%TF.GenerationSoftware,KiCad,Pcbnew,5.1.6-c6e7f7d~87~ubuntu20.04.1*%
%TF.CreationDate,2020-09-20T16:33:26-07:00*%
%TF.ProjectId,esp8266-iot,65737038-3236-4362-9d69-6f742e6b6963,rev?*%
%TF.SameCoordinates,Original*%
%TF.FileFunction,Paste,Top*%
%TF.FilePolarity,Positive*%
%FSLAX46Y46*%
G04 Gerber Fmt 4.6, Leading zero omitted, Abs format (unit mm)*
G04 Created by KiCad (PCBNEW 5.1.6-c6e7f7d~87~ubuntu20.04.1) date 2020-09-20 16:33:26*
%MOMM*%
%LPD*%
G01*
G04 APERTURE LIST*
%ADD10R,1.100000X2.500000*%
%ADD11R,2.500000X1.100000*%
%ADD12R,3.100000X1.600000*%
%ADD13R,0.650000X1.060000*%
%ADD14R,1.100000X1.100000*%
%ADD15R,2.650000X0.400000*%
%ADD16R,1.800000X2.500000*%
G04 APERTURE END LIST*
D10*
%TO.C,U2*%
X15740000Y-8450000D03*
X13740000Y-8450000D03*
X11740000Y-8450000D03*
X9740000Y-8450000D03*
X7740000Y-8450000D03*
X5740000Y-8450000D03*
D11*
X18450000Y7250000D03*
X18450000Y5250000D03*
X18450000Y3250000D03*
X18450000Y1250000D03*
X18450000Y-750000D03*
X18450000Y-2750000D03*
X18450000Y-4750000D03*
X18450000Y-6750000D03*
X3050000Y-6750000D03*
X3050000Y-4750000D03*
X3050000Y-2750000D03*
X3050000Y-750000D03*
X3050000Y1250000D03*
X3050000Y3250000D03*
X3050000Y5250000D03*
X3050000Y7250000D03*
%TD*%
D12*
%TO.C,U1*%
X-2355000Y-190000D03*
X-11245000Y-7810000D03*
X-2355000Y-2730000D03*
X-11245000Y-5270000D03*
X-2355000Y-5270000D03*
X-11245000Y-2730000D03*
X-2355000Y-7810000D03*
X-11245000Y-190000D03*
%TD*%
D13*
%TO.C,U3*%
X27050000Y11100000D03*
X28950000Y11100000D03*
X28950000Y8900000D03*
X28000000Y8900000D03*
X27050000Y8900000D03*
%TD*%
%TO.C,R12*%
G36*
G01*
X-15256250Y-11450000D02*
X-14343750Y-11450000D01*
G75*
G02*
X-14100000Y-11693750I0J-243750D01*
G01*
X-14100000Y-12181250D01*
G75*
G02*
X-14343750Y-12425000I-243750J0D01*
G01*
X-15256250Y-12425000D01*
G75*
G02*
X-15500000Y-12181250I0J243750D01*
G01*
X-15500000Y-11693750D01*
G75*
G02*
X-15256250Y-11450000I243750J0D01*
G01*
G37*
G36*
G01*
X-15256250Y-9575000D02*
X-14343750Y-9575000D01*
G75*
G02*
X-14100000Y-9818750I0J-243750D01*
G01*
X-14100000Y-10306250D01*
G75*
G02*
X-14343750Y-10550000I-243750J0D01*
G01*
X-15256250Y-10550000D01*
G75*
G02*
X-15500000Y-10306250I0J243750D01*
G01*
X-15500000Y-9818750D01*
G75*
G02*
X-15256250Y-9575000I243750J0D01*
G01*
G37*
%TD*%
%TO.C,R11*%
G36*
G01*
X-15256250Y-7450000D02*
X-14343750Y-7450000D01*
G75*
G02*
X-14100000Y-7693750I0J-243750D01*
G01*
X-14100000Y-8181250D01*
G75*
G02*
X-14343750Y-8425000I-243750J0D01*
G01*
X-15256250Y-8425000D01*
G75*
G02*
X-15500000Y-8181250I0J243750D01*
G01*
X-15500000Y-7693750D01*
G75*
G02*
X-15256250Y-7450000I243750J0D01*
G01*
G37*
G36*
G01*
X-15256250Y-5575000D02*
X-14343750Y-5575000D01*
G75*
G02*
X-14100000Y-5818750I0J-243750D01*
G01*
X-14100000Y-6306250D01*
G75*
G02*
X-14343750Y-6550000I-243750J0D01*
G01*
X-15256250Y-6550000D01*
G75*
G02*
X-15500000Y-6306250I0J243750D01*
G01*
X-15500000Y-5818750D01*
G75*
G02*
X-15256250Y-5575000I243750J0D01*
G01*
G37*
%TD*%
%TO.C,R10*%
G36*
G01*
X20143750Y-14650000D02*
X21056250Y-14650000D01*
G75*
G02*
X21300000Y-14893750I0J-243750D01*
G01*
X21300000Y-15381250D01*
G75*
G02*
X21056250Y-15625000I-243750J0D01*
G01*
X20143750Y-15625000D01*
G75*
G02*
X19900000Y-15381250I0J243750D01*
G01*
X19900000Y-14893750D01*
G75*
G02*
X20143750Y-14650000I243750J0D01*
G01*
G37*
G36*
G01*
X20143750Y-12775000D02*
X21056250Y-12775000D01*
G75*
G02*
X21300000Y-13018750I0J-243750D01*
G01*
X21300000Y-13506250D01*
G75*
G02*
X21056250Y-13750000I-243750J0D01*
G01*
X20143750Y-13750000D01*
G75*
G02*
X19900000Y-13506250I0J243750D01*
G01*
X19900000Y-13018750D01*
G75*
G02*
X20143750Y-12775000I243750J0D01*
G01*
G37*
%TD*%
%TO.C,R9*%
G36*
G01*
X18856250Y-13800000D02*
X17943750Y-13800000D01*
G75*
G02*
X17700000Y-13556250I0J243750D01*
G01*
X17700000Y-13068750D01*
G75*
G02*
X17943750Y-12825000I243750J0D01*
G01*
X18856250Y-12825000D01*
G75*
G02*
X19100000Y-13068750I0J-243750D01*
G01*
X19100000Y-13556250D01*
G75*
G02*
X18856250Y-13800000I-243750J0D01*
G01*
G37*
G36*
G01*
X18856250Y-15675000D02*
X17943750Y-15675000D01*
G75*
G02*
X17700000Y-15431250I0J243750D01*
G01*
X17700000Y-14943750D01*
G75*
G02*
X17943750Y-14700000I243750J0D01*
G01*
X18856250Y-14700000D01*
G75*
G02*
X19100000Y-14943750I0J-243750D01*
G01*
X19100000Y-15431250D01*
G75*
G02*
X18856250Y-15675000I-243750J0D01*
G01*
G37*
%TD*%
%TO.C,R8*%
G36*
G01*
X-14343750Y10650000D02*
X-15256250Y10650000D01*
G75*
G02*
X-15500000Y10893750I0J243750D01*
G01*
X-15500000Y11381250D01*
G75*
G02*
X-15256250Y11625000I243750J0D01*
G01*
X-14343750Y11625000D01*
G75*
G02*
X-14100000Y11381250I0J-243750D01*
G01*
X-14100000Y10893750D01*
G75*
G02*
X-14343750Y10650000I-243750J0D01*
G01*
G37*
G36*
G01*
X-14343750Y8775000D02*
X-15256250Y8775000D01*
G75*
G02*
X-15500000Y9018750I0J243750D01*
G01*
X-15500000Y9506250D01*
G75*
G02*
X-15256250Y9750000I243750J0D01*
G01*
X-14343750Y9750000D01*
G75*
G02*
X-14100000Y9506250I0J-243750D01*
G01*
X-14100000Y9018750D01*
G75*
G02*
X-14343750Y8775000I-243750J0D01*
G01*
G37*
%TD*%
%TO.C,R7*%
G36*
G01*
X23550000Y-12543750D02*
X23550000Y-13456250D01*
G75*
G02*
X23306250Y-13700000I-243750J0D01*
G01*
X22818750Y-13700000D01*
G75*
G02*
X22575000Y-13456250I0J243750D01*
G01*
X22575000Y-12543750D01*
G75*
G02*
X22818750Y-12300000I243750J0D01*
G01*
X23306250Y-12300000D01*
G75*
G02*
X23550000Y-12543750I0J-243750D01*
G01*
G37*
G36*
G01*
X25425000Y-12543750D02*
X25425000Y-13456250D01*
G75*
G02*
X25181250Y-13700000I-243750J0D01*
G01*
X24693750Y-13700000D01*
G75*
G02*
X24450000Y-13456250I0J243750D01*
G01*
X24450000Y-12543750D01*
G75*
G02*
X24693750Y-12300000I243750J0D01*
G01*
X25181250Y-12300000D01*
G75*
G02*
X25425000Y-12543750I0J-243750D01*
G01*
G37*
%TD*%
%TO.C,R6*%
G36*
G01*
X23550000Y-14543750D02*
X23550000Y-15456250D01*
G75*
G02*
X23306250Y-15700000I-243750J0D01*
G01*
X22818750Y-15700000D01*
G75*
G02*
X22575000Y-15456250I0J243750D01*
G01*
X22575000Y-14543750D01*
G75*
G02*
X22818750Y-14300000I243750J0D01*
G01*
X23306250Y-14300000D01*
G75*
G02*
X23550000Y-14543750I0J-243750D01*
G01*
G37*
G36*
G01*
X25425000Y-14543750D02*
X25425000Y-15456250D01*
G75*
G02*
X25181250Y-15700000I-243750J0D01*
G01*
X24693750Y-15700000D01*
G75*
G02*
X24450000Y-15456250I0J243750D01*
G01*
X24450000Y-14543750D01*
G75*
G02*
X24693750Y-14300000I243750J0D01*
G01*
X25181250Y-14300000D01*
G75*
G02*
X25425000Y-14543750I0J-243750D01*
G01*
G37*
%TD*%
%TO.C,R5*%
G36*
G01*
X-14343750Y2050000D02*
X-15256250Y2050000D01*
G75*
G02*
X-15500000Y2293750I0J243750D01*
G01*
X-15500000Y2781250D01*
G75*
G02*
X-15256250Y3025000I243750J0D01*
G01*
X-14343750Y3025000D01*
G75*
G02*
X-14100000Y2781250I0J-243750D01*
G01*
X-14100000Y2293750D01*
G75*
G02*
X-14343750Y2050000I-243750J0D01*
G01*
G37*
G36*
G01*
X-14343750Y175000D02*
X-15256250Y175000D01*
G75*
G02*
X-15500000Y418750I0J243750D01*
G01*
X-15500000Y906250D01*
G75*
G02*
X-15256250Y1150000I243750J0D01*
G01*
X-14343750Y1150000D01*
G75*
G02*
X-14100000Y906250I0J-243750D01*
G01*
X-14100000Y418750D01*
G75*
G02*
X-14343750Y175000I-243750J0D01*
G01*
G37*
%TD*%
%TO.C,R4*%
G36*
G01*
X3456250Y-13800000D02*
X2543750Y-13800000D01*
G75*
G02*
X2300000Y-13556250I0J243750D01*
G01*
X2300000Y-13068750D01*
G75*
G02*
X2543750Y-12825000I243750J0D01*
G01*
X3456250Y-12825000D01*
G75*
G02*
X3700000Y-13068750I0J-243750D01*
G01*
X3700000Y-13556250D01*
G75*
G02*
X3456250Y-13800000I-243750J0D01*
G01*
G37*
G36*
G01*
X3456250Y-15675000D02*
X2543750Y-15675000D01*
G75*
G02*
X2300000Y-15431250I0J243750D01*
G01*
X2300000Y-14943750D01*
G75*
G02*
X2543750Y-14700000I243750J0D01*
G01*
X3456250Y-14700000D01*
G75*
G02*
X3700000Y-14943750I0J-243750D01*
G01*
X3700000Y-15431250D01*
G75*
G02*
X3456250Y-15675000I-243750J0D01*
G01*
G37*
%TD*%
%TO.C,R3*%
G36*
G01*
X956250Y-15675000D02*
X43750Y-15675000D01*
G75*
G02*
X-200000Y-15431250I0J243750D01*
G01*
X-200000Y-14943750D01*
G75*
G02*
X43750Y-14700000I243750J0D01*
G01*
X956250Y-14700000D01*
G75*
G02*
X1200000Y-14943750I0J-243750D01*
G01*
X1200000Y-15431250D01*
G75*
G02*
X956250Y-15675000I-243750J0D01*
G01*
G37*
G36*
G01*
X956250Y-13800000D02*
X43750Y-13800000D01*
G75*
G02*
X-200000Y-13556250I0J243750D01*
G01*
X-200000Y-13068750D01*
G75*
G02*
X43750Y-12825000I243750J0D01*
G01*
X956250Y-12825000D01*
G75*
G02*
X1200000Y-13068750I0J-243750D01*
G01*
X1200000Y-13556250D01*
G75*
G02*
X956250Y-13800000I-243750J0D01*
G01*
G37*
%TD*%
%TO.C,R2*%
G36*
G01*
X-1343750Y-13750000D02*
X-2256250Y-13750000D01*
G75*
G02*
X-2500000Y-13506250I0J243750D01*
G01*
X-2500000Y-13018750D01*
G75*
G02*
X-2256250Y-12775000I243750J0D01*
G01*
X-1343750Y-12775000D01*
G75*
G02*
X-1100000Y-13018750I0J-243750D01*
G01*
X-1100000Y-13506250D01*
G75*
G02*
X-1343750Y-13750000I-243750J0D01*
G01*
G37*
G36*
G01*
X-1343750Y-15625000D02*
X-2256250Y-15625000D01*
G75*
G02*
X-2500000Y-15381250I0J243750D01*
G01*
X-2500000Y-14893750D01*
G75*
G02*
X-2256250Y-14650000I243750J0D01*
G01*
X-1343750Y-14650000D01*
G75*
G02*
X-1100000Y-14893750I0J-243750D01*
G01*
X-1100000Y-15381250D01*
G75*
G02*
X-1343750Y-15625000I-243750J0D01*
G01*
G37*
%TD*%
%TO.C,R1*%
G36*
G01*
X-2056250Y5550000D02*
X-1143750Y5550000D01*
G75*
G02*
X-900000Y5306250I0J-243750D01*
G01*
X-900000Y4818750D01*
G75*
G02*
X-1143750Y4575000I-243750J0D01*
G01*
X-2056250Y4575000D01*
G75*
G02*
X-2300000Y4818750I0J243750D01*
G01*
X-2300000Y5306250D01*
G75*
G02*
X-2056250Y5550000I243750J0D01*
G01*
G37*
G36*
G01*
X-2056250Y7425000D02*
X-1143750Y7425000D01*
G75*
G02*
X-900000Y7181250I0J-243750D01*
G01*
X-900000Y6693750D01*
G75*
G02*
X-1143750Y6450000I-243750J0D01*
G01*
X-2056250Y6450000D01*
G75*
G02*
X-2300000Y6693750I0J243750D01*
G01*
X-2300000Y7181250D01*
G75*
G02*
X-2056250Y7425000I243750J0D01*
G01*
G37*
%TD*%
D14*
%TO.C,J4*%
X31000000Y-1500000D03*
X31000000Y1500000D03*
D15*
X26440000Y0D03*
X26440000Y-650000D03*
X26440000Y-1300000D03*
X26440000Y650000D03*
X26440000Y1300000D03*
%TD*%
D16*
%TO.C,D10*%
X-18000000Y-13200000D03*
X-18000000Y-9200000D03*
%TD*%
%TO.C,D9*%
X-21800000Y-9200000D03*
X-21800000Y-13200000D03*
%TD*%
%TO.C,D8*%
X-18000000Y-2000000D03*
X-18000000Y-6000000D03*
%TD*%
%TO.C,D7*%
X-21800000Y-6000000D03*
X-21800000Y-2000000D03*
%TD*%
%TO.C,D6*%
X-18000000Y2550000D03*
X-18000000Y6550000D03*
%TD*%
%TO.C,D5*%
X-21750000Y6550000D03*
X-21750000Y2550000D03*
%TD*%
%TO.C,D4*%
X-18000000Y13800000D03*
X-18000000Y9800000D03*
%TD*%
%TO.C,D3*%
X-21750000Y9800000D03*
X-21750000Y13800000D03*
%TD*%
%TO.C,D2*%
G36*
G01*
X28450000Y-13456250D02*
X28450000Y-12543750D01*
G75*
G02*
X28693750Y-12300000I243750J0D01*
G01*
X29181250Y-12300000D01*
G75*
G02*
X29425000Y-12543750I0J-243750D01*
G01*
X29425000Y-13456250D01*
G75*
G02*
X29181250Y-13700000I-243750J0D01*
G01*
X28693750Y-13700000D01*
G75*
G02*
X28450000Y-13456250I0J243750D01*
G01*
G37*
G36*
G01*
X26575000Y-13456250D02*
X26575000Y-12543750D01*
G75*
G02*
X26818750Y-12300000I243750J0D01*
G01*
X27306250Y-12300000D01*
G75*
G02*
X27550000Y-12543750I0J-243750D01*
G01*
X27550000Y-13456250D01*
G75*
G02*
X27306250Y-13700000I-243750J0D01*
G01*
X26818750Y-13700000D01*
G75*
G02*
X26575000Y-13456250I0J243750D01*
G01*
G37*
%TD*%
%TO.C,D1*%
G36*
G01*
X28450000Y-15456250D02*
X28450000Y-14543750D01*
G75*
G02*
X28693750Y-14300000I243750J0D01*
G01*
X29181250Y-14300000D01*
G75*
G02*
X29425000Y-14543750I0J-243750D01*
G01*
X29425000Y-15456250D01*
G75*
G02*
X29181250Y-15700000I-243750J0D01*
G01*
X28693750Y-15700000D01*
G75*
G02*
X28450000Y-15456250I0J243750D01*
G01*
G37*
G36*
G01*
X26575000Y-15456250D02*
X26575000Y-14543750D01*
G75*
G02*
X26818750Y-14300000I243750J0D01*
G01*
X27306250Y-14300000D01*
G75*
G02*
X27550000Y-14543750I0J-243750D01*
G01*
X27550000Y-15456250D01*
G75*
G02*
X27306250Y-15700000I-243750J0D01*
G01*
X26818750Y-15700000D01*
G75*
G02*
X26575000Y-15456250I0J243750D01*
G01*
G37*
%TD*%
%TO.C,C4*%
G36*
G01*
X28775000Y13375000D02*
X28775000Y14625000D01*
G75*
G02*
X29025000Y14875000I250000J0D01*
G01*
X29775000Y14875000D01*
G75*
G02*
X30025000Y14625000I0J-250000D01*
G01*
X30025000Y13375000D01*
G75*
G02*
X29775000Y13125000I-250000J0D01*
G01*
X29025000Y13125000D01*
G75*
G02*
X28775000Y13375000I0J250000D01*
G01*
G37*
G36*
G01*
X25975000Y13375000D02*
X25975000Y14625000D01*
G75*
G02*
X26225000Y14875000I250000J0D01*
G01*
X26975000Y14875000D01*
G75*
G02*
X27225000Y14625000I0J-250000D01*
G01*
X27225000Y13375000D01*
G75*
G02*
X26975000Y13125000I-250000J0D01*
G01*
X26225000Y13125000D01*
G75*
G02*
X25975000Y13375000I0J250000D01*
G01*
G37*
%TD*%
%TO.C,C3*%
G36*
G01*
X28775000Y5375000D02*
X28775000Y6625000D01*
G75*
G02*
X29025000Y6875000I250000J0D01*
G01*
X29775000Y6875000D01*
G75*
G02*
X30025000Y6625000I0J-250000D01*
G01*
X30025000Y5375000D01*
G75*
G02*
X29775000Y5125000I-250000J0D01*
G01*
X29025000Y5125000D01*
G75*
G02*
X28775000Y5375000I0J250000D01*
G01*
G37*
G36*
G01*
X25975000Y5375000D02*
X25975000Y6625000D01*
G75*
G02*
X26225000Y6875000I250000J0D01*
G01*
X26975000Y6875000D01*
G75*
G02*
X27225000Y6625000I0J-250000D01*
G01*
X27225000Y5375000D01*
G75*
G02*
X26975000Y5125000I-250000J0D01*
G01*
X26225000Y5125000D01*
G75*
G02*
X25975000Y5375000I0J250000D01*
G01*
G37*
%TD*%
%TO.C,C2*%
G36*
G01*
X375000Y-11625000D02*
X375000Y-10375000D01*
G75*
G02*
X625000Y-10125000I250000J0D01*
G01*
X1375000Y-10125000D01*
G75*
G02*
X1625000Y-10375000I0J-250000D01*
G01*
X1625000Y-11625000D01*
G75*
G02*
X1375000Y-11875000I-250000J0D01*
G01*
X625000Y-11875000D01*
G75*
G02*
X375000Y-11625000I0J250000D01*
G01*
G37*
G36*
G01*
X-2425000Y-11625000D02*
X-2425000Y-10375000D01*
G75*
G02*
X-2175000Y-10125000I250000J0D01*
G01*
X-1425000Y-10125000D01*
G75*
G02*
X-1175000Y-10375000I0J-250000D01*
G01*
X-1175000Y-11625000D01*
G75*
G02*
X-1425000Y-11875000I-250000J0D01*
G01*
X-2175000Y-11875000D01*
G75*
G02*
X-2425000Y-11625000I0J250000D01*
G01*
G37*
%TD*%
%TO.C,C1*%
G36*
G01*
X-225000Y2375000D02*
X-225000Y3625000D01*
G75*
G02*
X25000Y3875000I250000J0D01*
G01*
X775000Y3875000D01*
G75*
G02*
X1025000Y3625000I0J-250000D01*
G01*
X1025000Y2375000D01*
G75*
G02*
X775000Y2125000I-250000J0D01*
G01*
X25000Y2125000D01*
G75*
G02*
X-225000Y2375000I0J250000D01*
G01*
G37*
G36*
G01*
X-3025000Y2375000D02*
X-3025000Y3625000D01*
G75*
G02*
X-2775000Y3875000I250000J0D01*
G01*
X-2025000Y3875000D01*
G75*
G02*
X-1775000Y3625000I0J-250000D01*
G01*
X-1775000Y2375000D01*
G75*
G02*
X-2025000Y2125000I-250000J0D01*
G01*
X-2775000Y2125000D01*
G75*
G02*
X-3025000Y2375000I0J250000D01*
G01*
G37*
%TD*%
M02*
