%TF.GenerationSoftware,KiCad,Pcbnew,5.1.6-c6e7f7d~87~ubuntu20.04.1*%
%TF.CreationDate,2020-09-20T16:33:26-07:00*%
%TF.ProjectId,esp8266-iot,65737038-3236-4362-9d69-6f742e6b6963,rev?*%
%TF.SameCoordinates,Original*%
%TF.FileFunction,Copper,L1,Top*%
%TF.FilePolarity,Positive*%
%FSLAX46Y46*%
G04 Gerber Fmt 4.6, Leading zero omitted, Abs format (unit mm)*
G04 Created by KiCad (PCBNEW 5.1.6-c6e7f7d~87~ubuntu20.04.1) date 2020-09-20 16:33:26*
%MOMM*%
%LPD*%
G01*
G04 APERTURE LIST*
%TA.AperFunction,SMDPad,CuDef*%
%ADD10R,1.100000X2.500000*%
%TD*%
%TA.AperFunction,SMDPad,CuDef*%
%ADD11R,2.500000X1.100000*%
%TD*%
%TA.AperFunction,SMDPad,CuDef*%
%ADD12R,3.100000X1.600000*%
%TD*%
%TA.AperFunction,SMDPad,CuDef*%
%ADD13C,3.000000*%
%TD*%
%TA.AperFunction,SMDPad,CuDef*%
%ADD14R,0.650000X1.060000*%
%TD*%
%TA.AperFunction,SMDPad,CuDef*%
%ADD15R,1.100000X1.100000*%
%TD*%
%TA.AperFunction,SMDPad,CuDef*%
%ADD16R,2.650000X0.400000*%
%TD*%
%TA.AperFunction,ComponentPad*%
%ADD17C,0.550000*%
%TD*%
%TA.AperFunction,ComponentPad*%
%ADD18O,2.200000X1.500000*%
%TD*%
%TA.AperFunction,ComponentPad*%
%ADD19O,1.700000X1.700000*%
%TD*%
%TA.AperFunction,ComponentPad*%
%ADD20R,1.700000X1.700000*%
%TD*%
%TA.AperFunction,ComponentPad*%
%ADD21O,3.600000X1.800000*%
%TD*%
%TA.AperFunction,SMDPad,CuDef*%
%ADD22R,1.800000X2.500000*%
%TD*%
%TA.AperFunction,ViaPad*%
%ADD23C,7.000000*%
%TD*%
%TA.AperFunction,ViaPad*%
%ADD24C,0.800000*%
%TD*%
%TA.AperFunction,Conductor*%
%ADD25C,0.500000*%
%TD*%
%TA.AperFunction,Conductor*%
%ADD26C,1.000000*%
%TD*%
%TA.AperFunction,Conductor*%
%ADD27C,0.250000*%
%TD*%
G04 APERTURE END LIST*
D10*
%TO.P,U2,22*%
%TO.N,N/C*%
X15740000Y-8450000D03*
%TO.P,U2,21*%
X13740000Y-8450000D03*
%TO.P,U2,20*%
X11740000Y-8450000D03*
%TO.P,U2,19*%
X9740000Y-8450000D03*
%TO.P,U2,18*%
X7740000Y-8450000D03*
%TO.P,U2,17*%
X5740000Y-8450000D03*
D11*
%TO.P,U2,16*%
%TO.N,/TXD*%
X18450000Y7250000D03*
%TO.P,U2,15*%
%TO.N,/RXD*%
X18450000Y5250000D03*
%TO.P,U2,14*%
%TO.N,/GPIO5*%
X18450000Y3250000D03*
%TO.P,U2,13*%
%TO.N,/GPIO4*%
X18450000Y1250000D03*
%TO.P,U2,12*%
%TO.N,/GPIO0*%
X18450000Y-750000D03*
%TO.P,U2,11*%
%TO.N,/GPIO2*%
X18450000Y-2750000D03*
%TO.P,U2,10*%
%TO.N,/GPIO15*%
X18450000Y-4750000D03*
%TO.P,U2,9*%
%TO.N,GND*%
X18450000Y-6750000D03*
%TO.P,U2,8*%
%TO.N,+3V3*%
X3050000Y-6750000D03*
%TO.P,U2,7*%
%TO.N,/GPIO13*%
X3050000Y-4750000D03*
%TO.P,U2,6*%
%TO.N,/GPIO12*%
X3050000Y-2750000D03*
%TO.P,U2,5*%
%TO.N,/GPIO14*%
X3050000Y-750000D03*
%TO.P,U2,4*%
%TO.N,/GPIO16*%
X3050000Y1250000D03*
%TO.P,U2,3*%
%TO.N,/CH_PD*%
X3050000Y3250000D03*
%TO.P,U2,2*%
%TO.N,Net-(U2-Pad2)*%
X3050000Y5250000D03*
%TO.P,U2,1*%
%TO.N,/REST*%
X3050000Y7250000D03*
%TD*%
D12*
%TO.P,U1,8*%
%TO.N,/GPIO14*%
X-2355000Y-190000D03*
%TO.P,U1,4*%
%TO.N,Net-(R12-Pad1)*%
X-11245000Y-7810000D03*
%TO.P,U1,7*%
%TO.N,GND*%
X-2355000Y-2730000D03*
%TO.P,U1,3*%
%TO.N,Net-(R11-Pad1)*%
X-11245000Y-5270000D03*
%TO.P,U1,6*%
%TO.N,/GPIO12*%
X-2355000Y-5270000D03*
%TO.P,U1,2*%
%TO.N,Net-(R8-Pad1)*%
X-11245000Y-2730000D03*
%TO.P,U1,5*%
%TO.N,GND*%
X-2355000Y-7810000D03*
%TO.P,U1,1*%
%TO.N,Net-(R5-Pad1)*%
X-11245000Y-190000D03*
%TD*%
D13*
%TO.P,TP3,1*%
%TO.N,/GPIO13*%
X6500000Y-14250000D03*
%TD*%
%TO.P,TP2,1*%
%TO.N,/GPIO16*%
X10750000Y-14250000D03*
%TD*%
%TO.P,TP1,1*%
%TO.N,/GPIO5*%
X15000000Y-14250000D03*
%TD*%
D14*
%TO.P,U3,5*%
%TO.N,+3V3*%
X27050000Y11100000D03*
%TO.P,U3,4*%
%TO.N,Net-(U3-Pad4)*%
X28950000Y11100000D03*
%TO.P,U3,3*%
%TO.N,/VBUS*%
X28950000Y8900000D03*
%TO.P,U3,2*%
%TO.N,GND*%
X28000000Y8900000D03*
%TO.P,U3,1*%
%TO.N,/VBUS*%
X27050000Y8900000D03*
%TD*%
%TO.P,R12,2*%
%TO.N,Net-(D7-Pad2)*%
%TA.AperFunction,SMDPad,CuDef*%
G36*
G01*
X-15256250Y-11450000D02*
X-14343750Y-11450000D01*
G75*
G02*
X-14100000Y-11693750I0J-243750D01*
G01*
X-14100000Y-12181250D01*
G75*
G02*
X-14343750Y-12425000I-243750J0D01*
G01*
X-15256250Y-12425000D01*
G75*
G02*
X-15500000Y-12181250I0J243750D01*
G01*
X-15500000Y-11693750D01*
G75*
G02*
X-15256250Y-11450000I243750J0D01*
G01*
G37*
%TD.AperFunction*%
%TO.P,R12,1*%
%TO.N,Net-(R12-Pad1)*%
%TA.AperFunction,SMDPad,CuDef*%
G36*
G01*
X-15256250Y-9575000D02*
X-14343750Y-9575000D01*
G75*
G02*
X-14100000Y-9818750I0J-243750D01*
G01*
X-14100000Y-10306250D01*
G75*
G02*
X-14343750Y-10550000I-243750J0D01*
G01*
X-15256250Y-10550000D01*
G75*
G02*
X-15500000Y-10306250I0J243750D01*
G01*
X-15500000Y-9818750D01*
G75*
G02*
X-15256250Y-9575000I243750J0D01*
G01*
G37*
%TD.AperFunction*%
%TD*%
%TO.P,R11,2*%
%TO.N,Net-(D10-Pad1)*%
%TA.AperFunction,SMDPad,CuDef*%
G36*
G01*
X-15256250Y-7450000D02*
X-14343750Y-7450000D01*
G75*
G02*
X-14100000Y-7693750I0J-243750D01*
G01*
X-14100000Y-8181250D01*
G75*
G02*
X-14343750Y-8425000I-243750J0D01*
G01*
X-15256250Y-8425000D01*
G75*
G02*
X-15500000Y-8181250I0J243750D01*
G01*
X-15500000Y-7693750D01*
G75*
G02*
X-15256250Y-7450000I243750J0D01*
G01*
G37*
%TD.AperFunction*%
%TO.P,R11,1*%
%TO.N,Net-(R11-Pad1)*%
%TA.AperFunction,SMDPad,CuDef*%
G36*
G01*
X-15256250Y-5575000D02*
X-14343750Y-5575000D01*
G75*
G02*
X-14100000Y-5818750I0J-243750D01*
G01*
X-14100000Y-6306250D01*
G75*
G02*
X-14343750Y-6550000I-243750J0D01*
G01*
X-15256250Y-6550000D01*
G75*
G02*
X-15500000Y-6306250I0J243750D01*
G01*
X-15500000Y-5818750D01*
G75*
G02*
X-15256250Y-5575000I243750J0D01*
G01*
G37*
%TD.AperFunction*%
%TD*%
%TO.P,R10,2*%
%TO.N,GND*%
%TA.AperFunction,SMDPad,CuDef*%
G36*
G01*
X20143750Y-14650000D02*
X21056250Y-14650000D01*
G75*
G02*
X21300000Y-14893750I0J-243750D01*
G01*
X21300000Y-15381250D01*
G75*
G02*
X21056250Y-15625000I-243750J0D01*
G01*
X20143750Y-15625000D01*
G75*
G02*
X19900000Y-15381250I0J243750D01*
G01*
X19900000Y-14893750D01*
G75*
G02*
X20143750Y-14650000I243750J0D01*
G01*
G37*
%TD.AperFunction*%
%TO.P,R10,1*%
%TO.N,/GPIO15*%
%TA.AperFunction,SMDPad,CuDef*%
G36*
G01*
X20143750Y-12775000D02*
X21056250Y-12775000D01*
G75*
G02*
X21300000Y-13018750I0J-243750D01*
G01*
X21300000Y-13506250D01*
G75*
G02*
X21056250Y-13750000I-243750J0D01*
G01*
X20143750Y-13750000D01*
G75*
G02*
X19900000Y-13506250I0J243750D01*
G01*
X19900000Y-13018750D01*
G75*
G02*
X20143750Y-12775000I243750J0D01*
G01*
G37*
%TD.AperFunction*%
%TD*%
%TO.P,R9,2*%
%TO.N,/GPIO2*%
%TA.AperFunction,SMDPad,CuDef*%
G36*
G01*
X18856250Y-13800000D02*
X17943750Y-13800000D01*
G75*
G02*
X17700000Y-13556250I0J243750D01*
G01*
X17700000Y-13068750D01*
G75*
G02*
X17943750Y-12825000I243750J0D01*
G01*
X18856250Y-12825000D01*
G75*
G02*
X19100000Y-13068750I0J-243750D01*
G01*
X19100000Y-13556250D01*
G75*
G02*
X18856250Y-13800000I-243750J0D01*
G01*
G37*
%TD.AperFunction*%
%TO.P,R9,1*%
%TO.N,+3V3*%
%TA.AperFunction,SMDPad,CuDef*%
G36*
G01*
X18856250Y-15675000D02*
X17943750Y-15675000D01*
G75*
G02*
X17700000Y-15431250I0J243750D01*
G01*
X17700000Y-14943750D01*
G75*
G02*
X17943750Y-14700000I243750J0D01*
G01*
X18856250Y-14700000D01*
G75*
G02*
X19100000Y-14943750I0J-243750D01*
G01*
X19100000Y-15431250D01*
G75*
G02*
X18856250Y-15675000I-243750J0D01*
G01*
G37*
%TD.AperFunction*%
%TD*%
%TO.P,R8,2*%
%TO.N,Net-(D3-Pad2)*%
%TA.AperFunction,SMDPad,CuDef*%
G36*
G01*
X-14343750Y10650000D02*
X-15256250Y10650000D01*
G75*
G02*
X-15500000Y10893750I0J243750D01*
G01*
X-15500000Y11381250D01*
G75*
G02*
X-15256250Y11625000I243750J0D01*
G01*
X-14343750Y11625000D01*
G75*
G02*
X-14100000Y11381250I0J-243750D01*
G01*
X-14100000Y10893750D01*
G75*
G02*
X-14343750Y10650000I-243750J0D01*
G01*
G37*
%TD.AperFunction*%
%TO.P,R8,1*%
%TO.N,Net-(R8-Pad1)*%
%TA.AperFunction,SMDPad,CuDef*%
G36*
G01*
X-14343750Y8775000D02*
X-15256250Y8775000D01*
G75*
G02*
X-15500000Y9018750I0J243750D01*
G01*
X-15500000Y9506250D01*
G75*
G02*
X-15256250Y9750000I243750J0D01*
G01*
X-14343750Y9750000D01*
G75*
G02*
X-14100000Y9506250I0J-243750D01*
G01*
X-14100000Y9018750D01*
G75*
G02*
X-14343750Y8775000I-243750J0D01*
G01*
G37*
%TD.AperFunction*%
%TD*%
%TO.P,R7,2*%
%TO.N,/GPIO0*%
%TA.AperFunction,SMDPad,CuDef*%
G36*
G01*
X23550000Y-12543750D02*
X23550000Y-13456250D01*
G75*
G02*
X23306250Y-13700000I-243750J0D01*
G01*
X22818750Y-13700000D01*
G75*
G02*
X22575000Y-13456250I0J243750D01*
G01*
X22575000Y-12543750D01*
G75*
G02*
X22818750Y-12300000I243750J0D01*
G01*
X23306250Y-12300000D01*
G75*
G02*
X23550000Y-12543750I0J-243750D01*
G01*
G37*
%TD.AperFunction*%
%TO.P,R7,1*%
%TO.N,Net-(D2-Pad1)*%
%TA.AperFunction,SMDPad,CuDef*%
G36*
G01*
X25425000Y-12543750D02*
X25425000Y-13456250D01*
G75*
G02*
X25181250Y-13700000I-243750J0D01*
G01*
X24693750Y-13700000D01*
G75*
G02*
X24450000Y-13456250I0J243750D01*
G01*
X24450000Y-12543750D01*
G75*
G02*
X24693750Y-12300000I243750J0D01*
G01*
X25181250Y-12300000D01*
G75*
G02*
X25425000Y-12543750I0J-243750D01*
G01*
G37*
%TD.AperFunction*%
%TD*%
%TO.P,R6,2*%
%TO.N,/GPIO4*%
%TA.AperFunction,SMDPad,CuDef*%
G36*
G01*
X23550000Y-14543750D02*
X23550000Y-15456250D01*
G75*
G02*
X23306250Y-15700000I-243750J0D01*
G01*
X22818750Y-15700000D01*
G75*
G02*
X22575000Y-15456250I0J243750D01*
G01*
X22575000Y-14543750D01*
G75*
G02*
X22818750Y-14300000I243750J0D01*
G01*
X23306250Y-14300000D01*
G75*
G02*
X23550000Y-14543750I0J-243750D01*
G01*
G37*
%TD.AperFunction*%
%TO.P,R6,1*%
%TO.N,Net-(D1-Pad1)*%
%TA.AperFunction,SMDPad,CuDef*%
G36*
G01*
X25425000Y-14543750D02*
X25425000Y-15456250D01*
G75*
G02*
X25181250Y-15700000I-243750J0D01*
G01*
X24693750Y-15700000D01*
G75*
G02*
X24450000Y-15456250I0J243750D01*
G01*
X24450000Y-14543750D01*
G75*
G02*
X24693750Y-14300000I243750J0D01*
G01*
X25181250Y-14300000D01*
G75*
G02*
X25425000Y-14543750I0J-243750D01*
G01*
G37*
%TD.AperFunction*%
%TD*%
%TO.P,R5,2*%
%TO.N,Net-(D4-Pad1)*%
%TA.AperFunction,SMDPad,CuDef*%
G36*
G01*
X-14343750Y2050000D02*
X-15256250Y2050000D01*
G75*
G02*
X-15500000Y2293750I0J243750D01*
G01*
X-15500000Y2781250D01*
G75*
G02*
X-15256250Y3025000I243750J0D01*
G01*
X-14343750Y3025000D01*
G75*
G02*
X-14100000Y2781250I0J-243750D01*
G01*
X-14100000Y2293750D01*
G75*
G02*
X-14343750Y2050000I-243750J0D01*
G01*
G37*
%TD.AperFunction*%
%TO.P,R5,1*%
%TO.N,Net-(R5-Pad1)*%
%TA.AperFunction,SMDPad,CuDef*%
G36*
G01*
X-14343750Y175000D02*
X-15256250Y175000D01*
G75*
G02*
X-15500000Y418750I0J243750D01*
G01*
X-15500000Y906250D01*
G75*
G02*
X-15256250Y1150000I243750J0D01*
G01*
X-14343750Y1150000D01*
G75*
G02*
X-14100000Y906250I0J-243750D01*
G01*
X-14100000Y418750D01*
G75*
G02*
X-14343750Y175000I-243750J0D01*
G01*
G37*
%TD.AperFunction*%
%TD*%
%TO.P,R4,2*%
%TO.N,/REST*%
%TA.AperFunction,SMDPad,CuDef*%
G36*
G01*
X3456250Y-13800000D02*
X2543750Y-13800000D01*
G75*
G02*
X2300000Y-13556250I0J243750D01*
G01*
X2300000Y-13068750D01*
G75*
G02*
X2543750Y-12825000I243750J0D01*
G01*
X3456250Y-12825000D01*
G75*
G02*
X3700000Y-13068750I0J-243750D01*
G01*
X3700000Y-13556250D01*
G75*
G02*
X3456250Y-13800000I-243750J0D01*
G01*
G37*
%TD.AperFunction*%
%TO.P,R4,1*%
%TO.N,+3V3*%
%TA.AperFunction,SMDPad,CuDef*%
G36*
G01*
X3456250Y-15675000D02*
X2543750Y-15675000D01*
G75*
G02*
X2300000Y-15431250I0J243750D01*
G01*
X2300000Y-14943750D01*
G75*
G02*
X2543750Y-14700000I243750J0D01*
G01*
X3456250Y-14700000D01*
G75*
G02*
X3700000Y-14943750I0J-243750D01*
G01*
X3700000Y-15431250D01*
G75*
G02*
X3456250Y-15675000I-243750J0D01*
G01*
G37*
%TD.AperFunction*%
%TD*%
%TO.P,R3,1*%
%TO.N,+3V3*%
%TA.AperFunction,SMDPad,CuDef*%
G36*
G01*
X956250Y-15675000D02*
X43750Y-15675000D01*
G75*
G02*
X-200000Y-15431250I0J243750D01*
G01*
X-200000Y-14943750D01*
G75*
G02*
X43750Y-14700000I243750J0D01*
G01*
X956250Y-14700000D01*
G75*
G02*
X1200000Y-14943750I0J-243750D01*
G01*
X1200000Y-15431250D01*
G75*
G02*
X956250Y-15675000I-243750J0D01*
G01*
G37*
%TD.AperFunction*%
%TO.P,R3,2*%
%TO.N,/CH_PD*%
%TA.AperFunction,SMDPad,CuDef*%
G36*
G01*
X956250Y-13800000D02*
X43750Y-13800000D01*
G75*
G02*
X-200000Y-13556250I0J243750D01*
G01*
X-200000Y-13068750D01*
G75*
G02*
X43750Y-12825000I243750J0D01*
G01*
X956250Y-12825000D01*
G75*
G02*
X1200000Y-13068750I0J-243750D01*
G01*
X1200000Y-13556250D01*
G75*
G02*
X956250Y-13800000I-243750J0D01*
G01*
G37*
%TD.AperFunction*%
%TD*%
%TO.P,R2,2*%
%TO.N,/GPIO12*%
%TA.AperFunction,SMDPad,CuDef*%
G36*
G01*
X-1343750Y-13750000D02*
X-2256250Y-13750000D01*
G75*
G02*
X-2500000Y-13506250I0J243750D01*
G01*
X-2500000Y-13018750D01*
G75*
G02*
X-2256250Y-12775000I243750J0D01*
G01*
X-1343750Y-12775000D01*
G75*
G02*
X-1100000Y-13018750I0J-243750D01*
G01*
X-1100000Y-13506250D01*
G75*
G02*
X-1343750Y-13750000I-243750J0D01*
G01*
G37*
%TD.AperFunction*%
%TO.P,R2,1*%
%TO.N,+3V3*%
%TA.AperFunction,SMDPad,CuDef*%
G36*
G01*
X-1343750Y-15625000D02*
X-2256250Y-15625000D01*
G75*
G02*
X-2500000Y-15381250I0J243750D01*
G01*
X-2500000Y-14893750D01*
G75*
G02*
X-2256250Y-14650000I243750J0D01*
G01*
X-1343750Y-14650000D01*
G75*
G02*
X-1100000Y-14893750I0J-243750D01*
G01*
X-1100000Y-15381250D01*
G75*
G02*
X-1343750Y-15625000I-243750J0D01*
G01*
G37*
%TD.AperFunction*%
%TD*%
%TO.P,R1,2*%
%TO.N,/GPIO14*%
%TA.AperFunction,SMDPad,CuDef*%
G36*
G01*
X-2056250Y5550000D02*
X-1143750Y5550000D01*
G75*
G02*
X-900000Y5306250I0J-243750D01*
G01*
X-900000Y4818750D01*
G75*
G02*
X-1143750Y4575000I-243750J0D01*
G01*
X-2056250Y4575000D01*
G75*
G02*
X-2300000Y4818750I0J243750D01*
G01*
X-2300000Y5306250D01*
G75*
G02*
X-2056250Y5550000I243750J0D01*
G01*
G37*
%TD.AperFunction*%
%TO.P,R1,1*%
%TO.N,+3V3*%
%TA.AperFunction,SMDPad,CuDef*%
G36*
G01*
X-2056250Y7425000D02*
X-1143750Y7425000D01*
G75*
G02*
X-900000Y7181250I0J-243750D01*
G01*
X-900000Y6693750D01*
G75*
G02*
X-1143750Y6450000I-243750J0D01*
G01*
X-2056250Y6450000D01*
G75*
G02*
X-2300000Y6693750I0J243750D01*
G01*
X-2300000Y7181250D01*
G75*
G02*
X-2056250Y7425000I243750J0D01*
G01*
G37*
%TD.AperFunction*%
%TD*%
D15*
%TO.P,J4,6*%
%TO.N,GND*%
X31000000Y-1500000D03*
X31000000Y1500000D03*
D16*
%TO.P,J4,3*%
%TO.N,Net-(J4-Pad3)*%
X26440000Y0D03*
D17*
%TO.P,J4,LOCATE*%
%TO.N,N/C*%
X27700000Y-2000000D03*
X27700000Y2000000D03*
D16*
%TO.P,J4,2*%
%TO.N,Net-(J4-Pad2)*%
X26440000Y-650000D03*
%TO.P,J4,1*%
%TO.N,/VBUS*%
X26440000Y-1300000D03*
%TO.P,J4,4*%
%TO.N,Net-(J4-Pad4)*%
X26440000Y650000D03*
%TO.P,J4,5*%
%TO.N,GND*%
X26440000Y1300000D03*
D18*
%TO.P,J4,6*%
X29850000Y-3600000D03*
X29850000Y3600000D03*
X26380000Y3600000D03*
X26380000Y-3600000D03*
%TD*%
D19*
%TO.P,J3,2*%
%TO.N,GND*%
X22750000Y-9290000D03*
D20*
%TO.P,J3,1*%
%TO.N,/GPIO0*%
X22750000Y-6750000D03*
%TD*%
D21*
%TO.P,J2,4*%
%TO.N,/AC12B*%
X-27000000Y-8240000D03*
%TO.P,J2,3*%
%TO.N,/AC12A*%
X-27000000Y-3160000D03*
%TO.P,J2,2*%
%TO.N,/AC14B*%
X-27000000Y1920000D03*
%TO.P,J2,1*%
%TO.N,/AC14A*%
%TA.AperFunction,ComponentPad*%
G36*
G01*
X-28550000Y7900000D02*
X-25450000Y7900000D01*
G75*
G02*
X-25200000Y7650000I0J-250000D01*
G01*
X-25200000Y6350000D01*
G75*
G02*
X-25450000Y6100000I-250000J0D01*
G01*
X-28550000Y6100000D01*
G75*
G02*
X-28800000Y6350000I0J250000D01*
G01*
X-28800000Y7650000D01*
G75*
G02*
X-28550000Y7900000I250000J0D01*
G01*
G37*
%TD.AperFunction*%
%TD*%
D19*
%TO.P,J1,4*%
%TO.N,GND*%
X22750000Y-620000D03*
%TO.P,J1,3*%
%TO.N,/RXD*%
X22750000Y1920000D03*
%TO.P,J1,2*%
%TO.N,/TXD*%
X22750000Y4460000D03*
D20*
%TO.P,J1,1*%
%TO.N,+3V3*%
X22750000Y7000000D03*
%TD*%
D22*
%TO.P,D10,2*%
%TO.N,/AC12B*%
X-18000000Y-13200000D03*
%TO.P,D10,1*%
%TO.N,Net-(D10-Pad1)*%
X-18000000Y-9200000D03*
%TD*%
%TO.P,D9,2*%
%TO.N,Net-(D7-Pad2)*%
X-21800000Y-9200000D03*
%TO.P,D9,1*%
%TO.N,/AC12B*%
X-21800000Y-13200000D03*
%TD*%
%TO.P,D8,2*%
%TO.N,/AC12A*%
X-18000000Y-2000000D03*
%TO.P,D8,1*%
%TO.N,Net-(D10-Pad1)*%
X-18000000Y-6000000D03*
%TD*%
%TO.P,D7,2*%
%TO.N,Net-(D7-Pad2)*%
X-21800000Y-6000000D03*
%TO.P,D7,1*%
%TO.N,/AC12A*%
X-21800000Y-2000000D03*
%TD*%
%TO.P,D6,2*%
%TO.N,/AC14B*%
X-18000000Y2550000D03*
%TO.P,D6,1*%
%TO.N,Net-(D4-Pad1)*%
X-18000000Y6550000D03*
%TD*%
%TO.P,D5,2*%
%TO.N,Net-(D3-Pad2)*%
X-21750000Y6550000D03*
%TO.P,D5,1*%
%TO.N,/AC14B*%
X-21750000Y2550000D03*
%TD*%
%TO.P,D4,2*%
%TO.N,/AC14A*%
X-18000000Y13800000D03*
%TO.P,D4,1*%
%TO.N,Net-(D4-Pad1)*%
X-18000000Y9800000D03*
%TD*%
%TO.P,D3,2*%
%TO.N,Net-(D3-Pad2)*%
X-21750000Y9800000D03*
%TO.P,D3,1*%
%TO.N,/AC14A*%
X-21750000Y13800000D03*
%TD*%
%TO.P,D2,2*%
%TO.N,+3V3*%
%TA.AperFunction,SMDPad,CuDef*%
G36*
G01*
X28450000Y-13456250D02*
X28450000Y-12543750D01*
G75*
G02*
X28693750Y-12300000I243750J0D01*
G01*
X29181250Y-12300000D01*
G75*
G02*
X29425000Y-12543750I0J-243750D01*
G01*
X29425000Y-13456250D01*
G75*
G02*
X29181250Y-13700000I-243750J0D01*
G01*
X28693750Y-13700000D01*
G75*
G02*
X28450000Y-13456250I0J243750D01*
G01*
G37*
%TD.AperFunction*%
%TO.P,D2,1*%
%TO.N,Net-(D2-Pad1)*%
%TA.AperFunction,SMDPad,CuDef*%
G36*
G01*
X26575000Y-13456250D02*
X26575000Y-12543750D01*
G75*
G02*
X26818750Y-12300000I243750J0D01*
G01*
X27306250Y-12300000D01*
G75*
G02*
X27550000Y-12543750I0J-243750D01*
G01*
X27550000Y-13456250D01*
G75*
G02*
X27306250Y-13700000I-243750J0D01*
G01*
X26818750Y-13700000D01*
G75*
G02*
X26575000Y-13456250I0J243750D01*
G01*
G37*
%TD.AperFunction*%
%TD*%
%TO.P,D1,2*%
%TO.N,+3V3*%
%TA.AperFunction,SMDPad,CuDef*%
G36*
G01*
X28450000Y-15456250D02*
X28450000Y-14543750D01*
G75*
G02*
X28693750Y-14300000I243750J0D01*
G01*
X29181250Y-14300000D01*
G75*
G02*
X29425000Y-14543750I0J-243750D01*
G01*
X29425000Y-15456250D01*
G75*
G02*
X29181250Y-15700000I-243750J0D01*
G01*
X28693750Y-15700000D01*
G75*
G02*
X28450000Y-15456250I0J243750D01*
G01*
G37*
%TD.AperFunction*%
%TO.P,D1,1*%
%TO.N,Net-(D1-Pad1)*%
%TA.AperFunction,SMDPad,CuDef*%
G36*
G01*
X26575000Y-15456250D02*
X26575000Y-14543750D01*
G75*
G02*
X26818750Y-14300000I243750J0D01*
G01*
X27306250Y-14300000D01*
G75*
G02*
X27550000Y-14543750I0J-243750D01*
G01*
X27550000Y-15456250D01*
G75*
G02*
X27306250Y-15700000I-243750J0D01*
G01*
X26818750Y-15700000D01*
G75*
G02*
X26575000Y-15456250I0J243750D01*
G01*
G37*
%TD.AperFunction*%
%TD*%
%TO.P,C4,2*%
%TO.N,GND*%
%TA.AperFunction,SMDPad,CuDef*%
G36*
G01*
X28775000Y13375000D02*
X28775000Y14625000D01*
G75*
G02*
X29025000Y14875000I250000J0D01*
G01*
X29775000Y14875000D01*
G75*
G02*
X30025000Y14625000I0J-250000D01*
G01*
X30025000Y13375000D01*
G75*
G02*
X29775000Y13125000I-250000J0D01*
G01*
X29025000Y13125000D01*
G75*
G02*
X28775000Y13375000I0J250000D01*
G01*
G37*
%TD.AperFunction*%
%TO.P,C4,1*%
%TO.N,+3V3*%
%TA.AperFunction,SMDPad,CuDef*%
G36*
G01*
X25975000Y13375000D02*
X25975000Y14625000D01*
G75*
G02*
X26225000Y14875000I250000J0D01*
G01*
X26975000Y14875000D01*
G75*
G02*
X27225000Y14625000I0J-250000D01*
G01*
X27225000Y13375000D01*
G75*
G02*
X26975000Y13125000I-250000J0D01*
G01*
X26225000Y13125000D01*
G75*
G02*
X25975000Y13375000I0J250000D01*
G01*
G37*
%TD.AperFunction*%
%TD*%
%TO.P,C3,2*%
%TO.N,GND*%
%TA.AperFunction,SMDPad,CuDef*%
G36*
G01*
X28775000Y5375000D02*
X28775000Y6625000D01*
G75*
G02*
X29025000Y6875000I250000J0D01*
G01*
X29775000Y6875000D01*
G75*
G02*
X30025000Y6625000I0J-250000D01*
G01*
X30025000Y5375000D01*
G75*
G02*
X29775000Y5125000I-250000J0D01*
G01*
X29025000Y5125000D01*
G75*
G02*
X28775000Y5375000I0J250000D01*
G01*
G37*
%TD.AperFunction*%
%TO.P,C3,1*%
%TO.N,/VBUS*%
%TA.AperFunction,SMDPad,CuDef*%
G36*
G01*
X25975000Y5375000D02*
X25975000Y6625000D01*
G75*
G02*
X26225000Y6875000I250000J0D01*
G01*
X26975000Y6875000D01*
G75*
G02*
X27225000Y6625000I0J-250000D01*
G01*
X27225000Y5375000D01*
G75*
G02*
X26975000Y5125000I-250000J0D01*
G01*
X26225000Y5125000D01*
G75*
G02*
X25975000Y5375000I0J250000D01*
G01*
G37*
%TD.AperFunction*%
%TD*%
%TO.P,C2,2*%
%TO.N,GND*%
%TA.AperFunction,SMDPad,CuDef*%
G36*
G01*
X375000Y-11625000D02*
X375000Y-10375000D01*
G75*
G02*
X625000Y-10125000I250000J0D01*
G01*
X1375000Y-10125000D01*
G75*
G02*
X1625000Y-10375000I0J-250000D01*
G01*
X1625000Y-11625000D01*
G75*
G02*
X1375000Y-11875000I-250000J0D01*
G01*
X625000Y-11875000D01*
G75*
G02*
X375000Y-11625000I0J250000D01*
G01*
G37*
%TD.AperFunction*%
%TO.P,C2,1*%
%TO.N,/GPIO12*%
%TA.AperFunction,SMDPad,CuDef*%
G36*
G01*
X-2425000Y-11625000D02*
X-2425000Y-10375000D01*
G75*
G02*
X-2175000Y-10125000I250000J0D01*
G01*
X-1425000Y-10125000D01*
G75*
G02*
X-1175000Y-10375000I0J-250000D01*
G01*
X-1175000Y-11625000D01*
G75*
G02*
X-1425000Y-11875000I-250000J0D01*
G01*
X-2175000Y-11875000D01*
G75*
G02*
X-2425000Y-11625000I0J250000D01*
G01*
G37*
%TD.AperFunction*%
%TD*%
%TO.P,C1,2*%
%TO.N,GND*%
%TA.AperFunction,SMDPad,CuDef*%
G36*
G01*
X-225000Y2375000D02*
X-225000Y3625000D01*
G75*
G02*
X25000Y3875000I250000J0D01*
G01*
X775000Y3875000D01*
G75*
G02*
X1025000Y3625000I0J-250000D01*
G01*
X1025000Y2375000D01*
G75*
G02*
X775000Y2125000I-250000J0D01*
G01*
X25000Y2125000D01*
G75*
G02*
X-225000Y2375000I0J250000D01*
G01*
G37*
%TD.AperFunction*%
%TO.P,C1,1*%
%TO.N,/GPIO14*%
%TA.AperFunction,SMDPad,CuDef*%
G36*
G01*
X-3025000Y2375000D02*
X-3025000Y3625000D01*
G75*
G02*
X-2775000Y3875000I250000J0D01*
G01*
X-2025000Y3875000D01*
G75*
G02*
X-1775000Y3625000I0J-250000D01*
G01*
X-1775000Y2375000D01*
G75*
G02*
X-2025000Y2125000I-250000J0D01*
G01*
X-2775000Y2125000D01*
G75*
G02*
X-3025000Y2375000I0J250000D01*
G01*
G37*
%TD.AperFunction*%
%TD*%
D23*
%TO.N,*%
X27000000Y23000000D03*
X-27000000Y23000000D03*
X-27000000Y-23000000D03*
X27000000Y-23000000D03*
D24*
%TO.N,GND*%
X-800000Y3000000D03*
X-2200000Y-9200000D03*
X-200000Y-11000000D03*
X19400000Y-8000000D03*
X20600000Y-14400000D03*
X30800000Y14000000D03*
X30800000Y6000000D03*
X28000000Y10000000D03*
X-2200000Y-3800000D03*
%TO.N,+3V3*%
X800000Y-7000000D03*
X800000Y6200000D03*
X800000Y-16400000D03*
%TO.N,/CH_PD*%
X5200000Y3200000D03*
X1800000Y-14200000D03*
%TO.N,/REST*%
X5600000Y2200000D03*
X3000000Y-11400000D03*
%TO.N,/GPIO4*%
X22000000Y-15000000D03*
X17600009Y1048952D03*
%TO.N,/GPIO2*%
X16600000Y-2800000D03*
X18400000Y-11800000D03*
%TO.N,/GPIO15*%
X20600000Y-12200000D03*
X17450010Y-5597865D03*
%TO.N,/VBUS*%
X24400000Y-1800000D03*
X25200000Y5400000D03*
%TD*%
D25*
%TO.N,GND*%
X28000000Y8900000D02*
X28000000Y10000000D01*
X29400000Y6000000D02*
X30800000Y6000000D01*
X29400000Y14000000D02*
X30800000Y14000000D01*
X29850000Y2650000D02*
X31000000Y1500000D01*
X29850000Y3600000D02*
X29850000Y2650000D01*
X29850000Y-2650000D02*
X31000000Y-1500000D01*
X29850000Y-3600000D02*
X29850000Y-2650000D01*
X26380000Y1360000D02*
X26440000Y1300000D01*
X26380000Y3600000D02*
X26380000Y1360000D01*
X18150000Y-6750000D02*
X19400000Y-8000000D01*
X17750000Y-6750000D02*
X18150000Y-6750000D01*
X20600000Y-14400000D02*
X20600000Y-15137500D01*
X-2355000Y-9045000D02*
X-2200000Y-9200000D01*
X-2355000Y-7810000D02*
X-2355000Y-9045000D01*
X-2355000Y-3645000D02*
X-2200000Y-3800000D01*
X-2355000Y-2730000D02*
X-2355000Y-3645000D01*
X400000Y3000000D02*
X-800000Y3000000D01*
X-200000Y-11000000D02*
X1000000Y-11000000D01*
%TO.N,+3V3*%
X26600000Y11550000D02*
X27050000Y11100000D01*
X26600000Y14000000D02*
X26600000Y11550000D01*
X27050000Y11100000D02*
X26900000Y11100000D01*
X26900000Y11100000D02*
X26000000Y10200000D01*
D26*
X22800000Y7000000D02*
X22750000Y7000000D01*
X26000000Y10200000D02*
X22800000Y7000000D01*
X1050000Y-6750000D02*
X800000Y-7000000D01*
X3750000Y-6750000D02*
X1050000Y-6750000D01*
D25*
X28937500Y-13000000D02*
X28937500Y-15000000D01*
X4012501Y-16200001D02*
X3000000Y-15187500D01*
X28937500Y-15000000D02*
X27737499Y-16200001D01*
X3000000Y-15187500D02*
X500000Y-15187500D01*
X-1750000Y-15187500D02*
X-1800000Y-15137500D01*
X500000Y-15187500D02*
X-1750000Y-15187500D01*
X18400001Y-16200001D02*
X18400000Y-15675000D01*
X27737499Y-16200001D02*
X18400001Y-16200001D01*
X18400000Y-15675000D02*
X18400000Y-15187500D01*
X18400001Y-16200001D02*
X4012501Y-16200001D01*
X62500Y6937500D02*
X800000Y6200000D01*
X-1600000Y6937500D02*
X62500Y6937500D01*
X500000Y-16100000D02*
X800000Y-16400000D01*
X500000Y-15187500D02*
X500000Y-16100000D01*
%TO.N,Net-(D1-Pad1)*%
X27062500Y-15000000D02*
X24937500Y-15000000D01*
%TO.N,Net-(D2-Pad1)*%
X24937500Y-13000000D02*
X27062500Y-13000000D01*
%TO.N,Net-(D3-Pad2)*%
X-21750000Y9800000D02*
X-21750000Y6550000D01*
X-21750000Y6550000D02*
X-23700000Y4600000D01*
X-23700000Y4600000D02*
X-30000000Y4600000D01*
X-30000000Y4600000D02*
X-30400000Y5000000D01*
X-30400000Y5000000D02*
X-30400000Y16200000D01*
X-30400000Y16200000D02*
X-28200000Y18400000D01*
X-28200000Y18400000D02*
X-15600000Y18400000D01*
X-14800000Y17600000D02*
X-14800000Y11137500D01*
X-15600000Y18400000D02*
X-14800000Y17600000D01*
%TO.N,Net-(D4-Pad1)*%
X-18000000Y9800000D02*
X-18000000Y6550000D01*
X-18000000Y6550000D02*
X-15550000Y6550000D01*
X-15550000Y6550000D02*
X-14800000Y5800000D01*
X-14800000Y5800000D02*
X-14800000Y2537500D01*
%TO.N,Net-(D7-Pad2)*%
X-21800000Y-6000000D02*
X-21800000Y-9200000D01*
X-14800000Y-11937500D02*
X-14800000Y-14800000D01*
X-14800000Y-14800000D02*
X-16200000Y-16200000D01*
X-16200000Y-16200000D02*
X-28600000Y-16200000D01*
X-28600000Y-16200000D02*
X-31200000Y-13600000D01*
X-31200000Y-13600000D02*
X-31200000Y-6200000D01*
X-31200000Y-6200000D02*
X-30600000Y-5600000D01*
X-22200000Y-5600000D02*
X-21800000Y-6000000D01*
X-30600000Y-5600000D02*
X-22200000Y-5600000D01*
%TO.N,Net-(D10-Pad1)*%
X-18000000Y-6000000D02*
X-18000000Y-9200000D01*
X-18000000Y-9200000D02*
X-18000000Y-8400000D01*
X-17537500Y-7937500D02*
X-14800000Y-7937500D01*
X-18000000Y-8400000D02*
X-17537500Y-7937500D01*
%TO.N,Net-(R5-Pad1)*%
X-12097500Y662500D02*
X-11245000Y-190000D01*
X-14800000Y662500D02*
X-12097500Y662500D01*
%TO.N,Net-(R8-Pad1)*%
X-14800000Y9262500D02*
X-9662500Y9262500D01*
X-9662500Y9262500D02*
X-8400000Y8000000D01*
X-9195000Y-2730000D02*
X-11245000Y-2730000D01*
X-8400000Y-1935000D02*
X-9195000Y-2730000D01*
X-8400000Y8000000D02*
X-8400000Y-1935000D01*
%TO.N,Net-(R11-Pad1)*%
X-14007500Y-5270000D02*
X-11245000Y-5270000D01*
X-14800000Y-6062500D02*
X-14007500Y-5270000D01*
%TO.N,Net-(R12-Pad1)*%
X-13497500Y-10062500D02*
X-11245000Y-7810000D01*
X-14800000Y-10062500D02*
X-13497500Y-10062500D01*
%TO.N,/GPIO14*%
X-1795000Y-750000D02*
X-2355000Y-190000D01*
X3750000Y-750000D02*
X-1795000Y-750000D01*
X-2355000Y2955000D02*
X-2400000Y3000000D01*
X-2355000Y-190000D02*
X-2355000Y2955000D01*
X-1600000Y3800000D02*
X-2400000Y3000000D01*
X-1600000Y5062500D02*
X-1600000Y3800000D01*
%TO.N,/GPIO12*%
X-305000Y-5270000D02*
X-2355000Y-5270000D01*
X2215000Y-2750000D02*
X-305000Y-5270000D01*
X3750000Y-2750000D02*
X2215000Y-2750000D01*
X-1800000Y-13262500D02*
X-1800000Y-11000000D01*
X-305000Y-9505000D02*
X-305000Y-5270000D01*
X-1800000Y-11000000D02*
X-305000Y-9505000D01*
%TO.N,/AC14A*%
X-27000000Y7000000D02*
X-27000000Y12200000D01*
X-25400000Y13800000D02*
X-21750000Y13800000D01*
X-27000000Y12200000D02*
X-25400000Y13800000D01*
X-21750000Y13800000D02*
X-18000000Y13800000D01*
%TO.N,/AC14B*%
X-27000000Y1920000D02*
X-26320000Y2600000D01*
X-18050000Y2600000D02*
X-18000000Y2550000D01*
X-26320000Y2600000D02*
X-18050000Y2600000D01*
%TO.N,/AC12A*%
X-27000000Y-3160000D02*
X-25840000Y-2000000D01*
X-25840000Y-2000000D02*
X-21800000Y-2000000D01*
X-21800000Y-2000000D02*
X-18000000Y-2000000D01*
%TO.N,/AC12B*%
X-27000000Y-8240000D02*
X-27000000Y-11000000D01*
X-24800000Y-13200000D02*
X-21800000Y-13200000D01*
X-27000000Y-11000000D02*
X-24800000Y-13200000D01*
X-21800000Y-13200000D02*
X-18000000Y-13200000D01*
%TO.N,/RXD*%
X19420000Y5250000D02*
X22750000Y1920000D01*
X17750000Y5250000D02*
X19420000Y5250000D01*
%TO.N,/TXD*%
X19960000Y7250000D02*
X22750000Y4460000D01*
X17750000Y7250000D02*
X19960000Y7250000D01*
%TO.N,/GPIO0*%
X24050001Y-8050001D02*
X22750000Y-6750000D01*
X24050001Y-12012499D02*
X24050001Y-8050001D01*
X23062500Y-13000000D02*
X24050001Y-12012499D01*
X22750000Y-4439998D02*
X22750000Y-6750000D01*
X19060002Y-750000D02*
X22750000Y-4439998D01*
X17750000Y-750000D02*
X19060002Y-750000D01*
%TO.N,/CH_PD*%
X5150000Y3250000D02*
X5200000Y3200000D01*
X3750000Y3250000D02*
X5150000Y3250000D01*
X1387500Y-14200000D02*
X500000Y-13312500D01*
X1800000Y-14200000D02*
X1387500Y-14200000D01*
%TO.N,/REST*%
X3000000Y-11400000D02*
X3000000Y-13312500D01*
X3750000Y7250000D02*
X6050002Y4949998D01*
X6050002Y4949998D02*
X6050002Y2650002D01*
X6050002Y2650002D02*
X5600000Y2200000D01*
%TO.N,/GPIO4*%
X22000000Y-15000000D02*
X23062500Y-15000000D01*
X17750000Y1250000D02*
X17600009Y1100009D01*
X17600009Y1100009D02*
X17600009Y1048952D01*
%TO.N,/GPIO2*%
X16650000Y-2750000D02*
X16600000Y-2800000D01*
X17750000Y-2750000D02*
X16650000Y-2750000D01*
X18400000Y-11800000D02*
X18400000Y-13312500D01*
%TO.N,/GPIO15*%
X20600000Y-12200000D02*
X20600000Y-13262500D01*
X17750000Y-4750000D02*
X17450010Y-5049990D01*
X17450010Y-5049990D02*
X17450010Y-5597865D01*
%TO.N,/GPIO5*%
X16749999Y160001D02*
X14800000Y-1789998D01*
X17750000Y3250000D02*
X16749999Y2249999D01*
X16749999Y2249999D02*
X16749999Y160001D01*
X14800000Y-1789998D02*
X14800000Y-6800000D01*
D27*
X14800000Y-6800000D02*
X14800000Y-10200000D01*
D25*
X14800000Y-14050000D02*
X15000000Y-14250000D01*
X14800000Y-10200000D02*
X14800000Y-14050000D01*
%TO.N,/GPIO16*%
X3750000Y1250000D02*
X9150000Y1250000D01*
X9150000Y1250000D02*
X10800000Y-400000D01*
X10800000Y-400000D02*
X10800000Y-6779998D01*
D27*
X10800000Y-6779998D02*
X10800000Y-9775002D01*
X10800000Y-9775002D02*
X10800000Y-10400000D01*
D25*
X10800000Y-14200000D02*
X10750000Y-14250000D01*
X10800000Y-10400000D02*
X10800000Y-14200000D01*
%TO.N,/GPIO13*%
X3750000Y-4750000D02*
X4800000Y-5800000D01*
X4800000Y-5800000D02*
X4800000Y-6779998D01*
D27*
X4800000Y-6779998D02*
X4800000Y-8200000D01*
X4800000Y-8200000D02*
X4400000Y-8600000D01*
D25*
X4400000Y-8600000D02*
X4000000Y-9000000D01*
X4000000Y-11750000D02*
X6500000Y-14250000D01*
X4000000Y-9000000D02*
X4000000Y-11750000D01*
%TO.N,/VBUS*%
X26440000Y-1300000D02*
X24900000Y-1300000D01*
X24900000Y-1300000D02*
X24400000Y-1800000D01*
D26*
X26000000Y5400000D02*
X26600000Y6000000D01*
X25200000Y5400000D02*
X26000000Y5400000D01*
D25*
X27050000Y8900000D02*
X26600000Y8450000D01*
X26600000Y8450000D02*
X26600000Y6000000D01*
X28950000Y8350000D02*
X26600000Y6000000D01*
X28950000Y8900000D02*
X28950000Y8350000D01*
%TD*%
M02*
