%TF.GenerationSoftware,KiCad,Pcbnew,5.1.6-c6e7f7d~87~ubuntu20.04.1*%
%TF.CreationDate,2020-09-20T16:33:26-07:00*%
%TF.ProjectId,esp8266-iot,65737038-3236-4362-9d69-6f742e6b6963,rev?*%
%TF.SameCoordinates,Original*%
%TF.FileFunction,Soldermask,Top*%
%TF.FilePolarity,Negative*%
%FSLAX46Y46*%
G04 Gerber Fmt 4.6, Leading zero omitted, Abs format (unit mm)*
G04 Created by KiCad (PCBNEW 5.1.6-c6e7f7d~87~ubuntu20.04.1) date 2020-09-20 16:33:26*
%MOMM*%
%LPD*%
G01*
G04 APERTURE LIST*
%ADD10R,1.200000X2.600000*%
%ADD11R,2.600000X1.200000*%
%ADD12R,3.200000X1.700000*%
%ADD13C,3.100000*%
%ADD14R,0.750000X1.160000*%
%ADD15R,1.200000X1.200000*%
%ADD16R,2.750000X0.500000*%
%ADD17C,0.650000*%
%ADD18O,2.300000X1.600000*%
%ADD19O,1.800000X1.800000*%
%ADD20R,1.800000X1.800000*%
%ADD21O,3.700000X1.900000*%
%ADD22R,1.900000X2.600000*%
G04 APERTURE END LIST*
D10*
%TO.C,U2*%
X15740000Y-8450000D03*
X13740000Y-8450000D03*
X11740000Y-8450000D03*
X9740000Y-8450000D03*
X7740000Y-8450000D03*
X5740000Y-8450000D03*
D11*
X18450000Y7250000D03*
X18450000Y5250000D03*
X18450000Y3250000D03*
X18450000Y1250000D03*
X18450000Y-750000D03*
X18450000Y-2750000D03*
X18450000Y-4750000D03*
X18450000Y-6750000D03*
X3050000Y-6750000D03*
X3050000Y-4750000D03*
X3050000Y-2750000D03*
X3050000Y-750000D03*
X3050000Y1250000D03*
X3050000Y3250000D03*
X3050000Y5250000D03*
X3050000Y7250000D03*
%TD*%
D12*
%TO.C,U1*%
X-2355000Y-190000D03*
X-11245000Y-7810000D03*
X-2355000Y-2730000D03*
X-11245000Y-5270000D03*
X-2355000Y-5270000D03*
X-11245000Y-2730000D03*
X-2355000Y-7810000D03*
X-11245000Y-190000D03*
%TD*%
D13*
%TO.C,TP3*%
X6500000Y-14250000D03*
%TD*%
%TO.C,TP2*%
X10750000Y-14250000D03*
%TD*%
%TO.C,TP1*%
X15000000Y-14250000D03*
%TD*%
D14*
%TO.C,U3*%
X27050000Y11100000D03*
X28950000Y11100000D03*
X28950000Y8900000D03*
X28000000Y8900000D03*
X27050000Y8900000D03*
%TD*%
%TO.C,R12*%
G36*
G01*
X-15281250Y-11400000D02*
X-14318750Y-11400000D01*
G75*
G02*
X-14050000Y-11668750I0J-268750D01*
G01*
X-14050000Y-12206250D01*
G75*
G02*
X-14318750Y-12475000I-268750J0D01*
G01*
X-15281250Y-12475000D01*
G75*
G02*
X-15550000Y-12206250I0J268750D01*
G01*
X-15550000Y-11668750D01*
G75*
G02*
X-15281250Y-11400000I268750J0D01*
G01*
G37*
G36*
G01*
X-15281250Y-9525000D02*
X-14318750Y-9525000D01*
G75*
G02*
X-14050000Y-9793750I0J-268750D01*
G01*
X-14050000Y-10331250D01*
G75*
G02*
X-14318750Y-10600000I-268750J0D01*
G01*
X-15281250Y-10600000D01*
G75*
G02*
X-15550000Y-10331250I0J268750D01*
G01*
X-15550000Y-9793750D01*
G75*
G02*
X-15281250Y-9525000I268750J0D01*
G01*
G37*
%TD*%
%TO.C,R11*%
G36*
G01*
X-15281250Y-7400000D02*
X-14318750Y-7400000D01*
G75*
G02*
X-14050000Y-7668750I0J-268750D01*
G01*
X-14050000Y-8206250D01*
G75*
G02*
X-14318750Y-8475000I-268750J0D01*
G01*
X-15281250Y-8475000D01*
G75*
G02*
X-15550000Y-8206250I0J268750D01*
G01*
X-15550000Y-7668750D01*
G75*
G02*
X-15281250Y-7400000I268750J0D01*
G01*
G37*
G36*
G01*
X-15281250Y-5525000D02*
X-14318750Y-5525000D01*
G75*
G02*
X-14050000Y-5793750I0J-268750D01*
G01*
X-14050000Y-6331250D01*
G75*
G02*
X-14318750Y-6600000I-268750J0D01*
G01*
X-15281250Y-6600000D01*
G75*
G02*
X-15550000Y-6331250I0J268750D01*
G01*
X-15550000Y-5793750D01*
G75*
G02*
X-15281250Y-5525000I268750J0D01*
G01*
G37*
%TD*%
%TO.C,R10*%
G36*
G01*
X20118750Y-14600000D02*
X21081250Y-14600000D01*
G75*
G02*
X21350000Y-14868750I0J-268750D01*
G01*
X21350000Y-15406250D01*
G75*
G02*
X21081250Y-15675000I-268750J0D01*
G01*
X20118750Y-15675000D01*
G75*
G02*
X19850000Y-15406250I0J268750D01*
G01*
X19850000Y-14868750D01*
G75*
G02*
X20118750Y-14600000I268750J0D01*
G01*
G37*
G36*
G01*
X20118750Y-12725000D02*
X21081250Y-12725000D01*
G75*
G02*
X21350000Y-12993750I0J-268750D01*
G01*
X21350000Y-13531250D01*
G75*
G02*
X21081250Y-13800000I-268750J0D01*
G01*
X20118750Y-13800000D01*
G75*
G02*
X19850000Y-13531250I0J268750D01*
G01*
X19850000Y-12993750D01*
G75*
G02*
X20118750Y-12725000I268750J0D01*
G01*
G37*
%TD*%
%TO.C,R9*%
G36*
G01*
X18881250Y-13850000D02*
X17918750Y-13850000D01*
G75*
G02*
X17650000Y-13581250I0J268750D01*
G01*
X17650000Y-13043750D01*
G75*
G02*
X17918750Y-12775000I268750J0D01*
G01*
X18881250Y-12775000D01*
G75*
G02*
X19150000Y-13043750I0J-268750D01*
G01*
X19150000Y-13581250D01*
G75*
G02*
X18881250Y-13850000I-268750J0D01*
G01*
G37*
G36*
G01*
X18881250Y-15725000D02*
X17918750Y-15725000D01*
G75*
G02*
X17650000Y-15456250I0J268750D01*
G01*
X17650000Y-14918750D01*
G75*
G02*
X17918750Y-14650000I268750J0D01*
G01*
X18881250Y-14650000D01*
G75*
G02*
X19150000Y-14918750I0J-268750D01*
G01*
X19150000Y-15456250D01*
G75*
G02*
X18881250Y-15725000I-268750J0D01*
G01*
G37*
%TD*%
%TO.C,R8*%
G36*
G01*
X-14318750Y10600000D02*
X-15281250Y10600000D01*
G75*
G02*
X-15550000Y10868750I0J268750D01*
G01*
X-15550000Y11406250D01*
G75*
G02*
X-15281250Y11675000I268750J0D01*
G01*
X-14318750Y11675000D01*
G75*
G02*
X-14050000Y11406250I0J-268750D01*
G01*
X-14050000Y10868750D01*
G75*
G02*
X-14318750Y10600000I-268750J0D01*
G01*
G37*
G36*
G01*
X-14318750Y8725000D02*
X-15281250Y8725000D01*
G75*
G02*
X-15550000Y8993750I0J268750D01*
G01*
X-15550000Y9531250D01*
G75*
G02*
X-15281250Y9800000I268750J0D01*
G01*
X-14318750Y9800000D01*
G75*
G02*
X-14050000Y9531250I0J-268750D01*
G01*
X-14050000Y8993750D01*
G75*
G02*
X-14318750Y8725000I-268750J0D01*
G01*
G37*
%TD*%
%TO.C,R7*%
G36*
G01*
X23600000Y-12518750D02*
X23600000Y-13481250D01*
G75*
G02*
X23331250Y-13750000I-268750J0D01*
G01*
X22793750Y-13750000D01*
G75*
G02*
X22525000Y-13481250I0J268750D01*
G01*
X22525000Y-12518750D01*
G75*
G02*
X22793750Y-12250000I268750J0D01*
G01*
X23331250Y-12250000D01*
G75*
G02*
X23600000Y-12518750I0J-268750D01*
G01*
G37*
G36*
G01*
X25475000Y-12518750D02*
X25475000Y-13481250D01*
G75*
G02*
X25206250Y-13750000I-268750J0D01*
G01*
X24668750Y-13750000D01*
G75*
G02*
X24400000Y-13481250I0J268750D01*
G01*
X24400000Y-12518750D01*
G75*
G02*
X24668750Y-12250000I268750J0D01*
G01*
X25206250Y-12250000D01*
G75*
G02*
X25475000Y-12518750I0J-268750D01*
G01*
G37*
%TD*%
%TO.C,R6*%
G36*
G01*
X23600000Y-14518750D02*
X23600000Y-15481250D01*
G75*
G02*
X23331250Y-15750000I-268750J0D01*
G01*
X22793750Y-15750000D01*
G75*
G02*
X22525000Y-15481250I0J268750D01*
G01*
X22525000Y-14518750D01*
G75*
G02*
X22793750Y-14250000I268750J0D01*
G01*
X23331250Y-14250000D01*
G75*
G02*
X23600000Y-14518750I0J-268750D01*
G01*
G37*
G36*
G01*
X25475000Y-14518750D02*
X25475000Y-15481250D01*
G75*
G02*
X25206250Y-15750000I-268750J0D01*
G01*
X24668750Y-15750000D01*
G75*
G02*
X24400000Y-15481250I0J268750D01*
G01*
X24400000Y-14518750D01*
G75*
G02*
X24668750Y-14250000I268750J0D01*
G01*
X25206250Y-14250000D01*
G75*
G02*
X25475000Y-14518750I0J-268750D01*
G01*
G37*
%TD*%
%TO.C,R5*%
G36*
G01*
X-14318750Y2000000D02*
X-15281250Y2000000D01*
G75*
G02*
X-15550000Y2268750I0J268750D01*
G01*
X-15550000Y2806250D01*
G75*
G02*
X-15281250Y3075000I268750J0D01*
G01*
X-14318750Y3075000D01*
G75*
G02*
X-14050000Y2806250I0J-268750D01*
G01*
X-14050000Y2268750D01*
G75*
G02*
X-14318750Y2000000I-268750J0D01*
G01*
G37*
G36*
G01*
X-14318750Y125000D02*
X-15281250Y125000D01*
G75*
G02*
X-15550000Y393750I0J268750D01*
G01*
X-15550000Y931250D01*
G75*
G02*
X-15281250Y1200000I268750J0D01*
G01*
X-14318750Y1200000D01*
G75*
G02*
X-14050000Y931250I0J-268750D01*
G01*
X-14050000Y393750D01*
G75*
G02*
X-14318750Y125000I-268750J0D01*
G01*
G37*
%TD*%
%TO.C,R4*%
G36*
G01*
X3481250Y-13850000D02*
X2518750Y-13850000D01*
G75*
G02*
X2250000Y-13581250I0J268750D01*
G01*
X2250000Y-13043750D01*
G75*
G02*
X2518750Y-12775000I268750J0D01*
G01*
X3481250Y-12775000D01*
G75*
G02*
X3750000Y-13043750I0J-268750D01*
G01*
X3750000Y-13581250D01*
G75*
G02*
X3481250Y-13850000I-268750J0D01*
G01*
G37*
G36*
G01*
X3481250Y-15725000D02*
X2518750Y-15725000D01*
G75*
G02*
X2250000Y-15456250I0J268750D01*
G01*
X2250000Y-14918750D01*
G75*
G02*
X2518750Y-14650000I268750J0D01*
G01*
X3481250Y-14650000D01*
G75*
G02*
X3750000Y-14918750I0J-268750D01*
G01*
X3750000Y-15456250D01*
G75*
G02*
X3481250Y-15725000I-268750J0D01*
G01*
G37*
%TD*%
%TO.C,R3*%
G36*
G01*
X981250Y-15725000D02*
X18750Y-15725000D01*
G75*
G02*
X-250000Y-15456250I0J268750D01*
G01*
X-250000Y-14918750D01*
G75*
G02*
X18750Y-14650000I268750J0D01*
G01*
X981250Y-14650000D01*
G75*
G02*
X1250000Y-14918750I0J-268750D01*
G01*
X1250000Y-15456250D01*
G75*
G02*
X981250Y-15725000I-268750J0D01*
G01*
G37*
G36*
G01*
X981250Y-13850000D02*
X18750Y-13850000D01*
G75*
G02*
X-250000Y-13581250I0J268750D01*
G01*
X-250000Y-13043750D01*
G75*
G02*
X18750Y-12775000I268750J0D01*
G01*
X981250Y-12775000D01*
G75*
G02*
X1250000Y-13043750I0J-268750D01*
G01*
X1250000Y-13581250D01*
G75*
G02*
X981250Y-13850000I-268750J0D01*
G01*
G37*
%TD*%
%TO.C,R2*%
G36*
G01*
X-1318750Y-13800000D02*
X-2281250Y-13800000D01*
G75*
G02*
X-2550000Y-13531250I0J268750D01*
G01*
X-2550000Y-12993750D01*
G75*
G02*
X-2281250Y-12725000I268750J0D01*
G01*
X-1318750Y-12725000D01*
G75*
G02*
X-1050000Y-12993750I0J-268750D01*
G01*
X-1050000Y-13531250D01*
G75*
G02*
X-1318750Y-13800000I-268750J0D01*
G01*
G37*
G36*
G01*
X-1318750Y-15675000D02*
X-2281250Y-15675000D01*
G75*
G02*
X-2550000Y-15406250I0J268750D01*
G01*
X-2550000Y-14868750D01*
G75*
G02*
X-2281250Y-14600000I268750J0D01*
G01*
X-1318750Y-14600000D01*
G75*
G02*
X-1050000Y-14868750I0J-268750D01*
G01*
X-1050000Y-15406250D01*
G75*
G02*
X-1318750Y-15675000I-268750J0D01*
G01*
G37*
%TD*%
%TO.C,R1*%
G36*
G01*
X-2081250Y5600000D02*
X-1118750Y5600000D01*
G75*
G02*
X-850000Y5331250I0J-268750D01*
G01*
X-850000Y4793750D01*
G75*
G02*
X-1118750Y4525000I-268750J0D01*
G01*
X-2081250Y4525000D01*
G75*
G02*
X-2350000Y4793750I0J268750D01*
G01*
X-2350000Y5331250D01*
G75*
G02*
X-2081250Y5600000I268750J0D01*
G01*
G37*
G36*
G01*
X-2081250Y7475000D02*
X-1118750Y7475000D01*
G75*
G02*
X-850000Y7206250I0J-268750D01*
G01*
X-850000Y6668750D01*
G75*
G02*
X-1118750Y6400000I-268750J0D01*
G01*
X-2081250Y6400000D01*
G75*
G02*
X-2350000Y6668750I0J268750D01*
G01*
X-2350000Y7206250D01*
G75*
G02*
X-2081250Y7475000I268750J0D01*
G01*
G37*
%TD*%
D15*
%TO.C,J4*%
X31000000Y-1500000D03*
X31000000Y1500000D03*
D16*
X26440000Y0D03*
D17*
X27700000Y-2000000D03*
X27700000Y2000000D03*
D16*
X26440000Y-650000D03*
X26440000Y-1300000D03*
X26440000Y650000D03*
X26440000Y1300000D03*
D18*
X29850000Y-3600000D03*
X29850000Y3600000D03*
X26380000Y3600000D03*
X26380000Y-3600000D03*
%TD*%
D19*
%TO.C,J3*%
X22750000Y-9290000D03*
D20*
X22750000Y-6750000D03*
%TD*%
D21*
%TO.C,J2*%
X-27000000Y-8240000D03*
X-27000000Y-3160000D03*
X-27000000Y1920000D03*
G36*
G01*
X-28586111Y7950000D02*
X-25413889Y7950000D01*
G75*
G02*
X-25150000Y7686111I0J-263889D01*
G01*
X-25150000Y6313889D01*
G75*
G02*
X-25413889Y6050000I-263889J0D01*
G01*
X-28586111Y6050000D01*
G75*
G02*
X-28850000Y6313889I0J263889D01*
G01*
X-28850000Y7686111D01*
G75*
G02*
X-28586111Y7950000I263889J0D01*
G01*
G37*
%TD*%
D19*
%TO.C,J1*%
X22750000Y-620000D03*
X22750000Y1920000D03*
X22750000Y4460000D03*
D20*
X22750000Y7000000D03*
%TD*%
D22*
%TO.C,D10*%
X-18000000Y-13200000D03*
X-18000000Y-9200000D03*
%TD*%
%TO.C,D9*%
X-21800000Y-9200000D03*
X-21800000Y-13200000D03*
%TD*%
%TO.C,D8*%
X-18000000Y-2000000D03*
X-18000000Y-6000000D03*
%TD*%
%TO.C,D7*%
X-21800000Y-6000000D03*
X-21800000Y-2000000D03*
%TD*%
%TO.C,D6*%
X-18000000Y2550000D03*
X-18000000Y6550000D03*
%TD*%
%TO.C,D5*%
X-21750000Y6550000D03*
X-21750000Y2550000D03*
%TD*%
%TO.C,D4*%
X-18000000Y13800000D03*
X-18000000Y9800000D03*
%TD*%
%TO.C,D3*%
X-21750000Y9800000D03*
X-21750000Y13800000D03*
%TD*%
%TO.C,D2*%
G36*
G01*
X28400000Y-13481250D02*
X28400000Y-12518750D01*
G75*
G02*
X28668750Y-12250000I268750J0D01*
G01*
X29206250Y-12250000D01*
G75*
G02*
X29475000Y-12518750I0J-268750D01*
G01*
X29475000Y-13481250D01*
G75*
G02*
X29206250Y-13750000I-268750J0D01*
G01*
X28668750Y-13750000D01*
G75*
G02*
X28400000Y-13481250I0J268750D01*
G01*
G37*
G36*
G01*
X26525000Y-13481250D02*
X26525000Y-12518750D01*
G75*
G02*
X26793750Y-12250000I268750J0D01*
G01*
X27331250Y-12250000D01*
G75*
G02*
X27600000Y-12518750I0J-268750D01*
G01*
X27600000Y-13481250D01*
G75*
G02*
X27331250Y-13750000I-268750J0D01*
G01*
X26793750Y-13750000D01*
G75*
G02*
X26525000Y-13481250I0J268750D01*
G01*
G37*
%TD*%
%TO.C,D1*%
G36*
G01*
X28400000Y-15481250D02*
X28400000Y-14518750D01*
G75*
G02*
X28668750Y-14250000I268750J0D01*
G01*
X29206250Y-14250000D01*
G75*
G02*
X29475000Y-14518750I0J-268750D01*
G01*
X29475000Y-15481250D01*
G75*
G02*
X29206250Y-15750000I-268750J0D01*
G01*
X28668750Y-15750000D01*
G75*
G02*
X28400000Y-15481250I0J268750D01*
G01*
G37*
G36*
G01*
X26525000Y-15481250D02*
X26525000Y-14518750D01*
G75*
G02*
X26793750Y-14250000I268750J0D01*
G01*
X27331250Y-14250000D01*
G75*
G02*
X27600000Y-14518750I0J-268750D01*
G01*
X27600000Y-15481250D01*
G75*
G02*
X27331250Y-15750000I-268750J0D01*
G01*
X26793750Y-15750000D01*
G75*
G02*
X26525000Y-15481250I0J268750D01*
G01*
G37*
%TD*%
%TO.C,C4*%
G36*
G01*
X28725000Y13345000D02*
X28725000Y14655000D01*
G75*
G02*
X28995000Y14925000I270000J0D01*
G01*
X29805000Y14925000D01*
G75*
G02*
X30075000Y14655000I0J-270000D01*
G01*
X30075000Y13345000D01*
G75*
G02*
X29805000Y13075000I-270000J0D01*
G01*
X28995000Y13075000D01*
G75*
G02*
X28725000Y13345000I0J270000D01*
G01*
G37*
G36*
G01*
X25925000Y13345000D02*
X25925000Y14655000D01*
G75*
G02*
X26195000Y14925000I270000J0D01*
G01*
X27005000Y14925000D01*
G75*
G02*
X27275000Y14655000I0J-270000D01*
G01*
X27275000Y13345000D01*
G75*
G02*
X27005000Y13075000I-270000J0D01*
G01*
X26195000Y13075000D01*
G75*
G02*
X25925000Y13345000I0J270000D01*
G01*
G37*
%TD*%
%TO.C,C3*%
G36*
G01*
X28725000Y5345000D02*
X28725000Y6655000D01*
G75*
G02*
X28995000Y6925000I270000J0D01*
G01*
X29805000Y6925000D01*
G75*
G02*
X30075000Y6655000I0J-270000D01*
G01*
X30075000Y5345000D01*
G75*
G02*
X29805000Y5075000I-270000J0D01*
G01*
X28995000Y5075000D01*
G75*
G02*
X28725000Y5345000I0J270000D01*
G01*
G37*
G36*
G01*
X25925000Y5345000D02*
X25925000Y6655000D01*
G75*
G02*
X26195000Y6925000I270000J0D01*
G01*
X27005000Y6925000D01*
G75*
G02*
X27275000Y6655000I0J-270000D01*
G01*
X27275000Y5345000D01*
G75*
G02*
X27005000Y5075000I-270000J0D01*
G01*
X26195000Y5075000D01*
G75*
G02*
X25925000Y5345000I0J270000D01*
G01*
G37*
%TD*%
%TO.C,C2*%
G36*
G01*
X325000Y-11655000D02*
X325000Y-10345000D01*
G75*
G02*
X595000Y-10075000I270000J0D01*
G01*
X1405000Y-10075000D01*
G75*
G02*
X1675000Y-10345000I0J-270000D01*
G01*
X1675000Y-11655000D01*
G75*
G02*
X1405000Y-11925000I-270000J0D01*
G01*
X595000Y-11925000D01*
G75*
G02*
X325000Y-11655000I0J270000D01*
G01*
G37*
G36*
G01*
X-2475000Y-11655000D02*
X-2475000Y-10345000D01*
G75*
G02*
X-2205000Y-10075000I270000J0D01*
G01*
X-1395000Y-10075000D01*
G75*
G02*
X-1125000Y-10345000I0J-270000D01*
G01*
X-1125000Y-11655000D01*
G75*
G02*
X-1395000Y-11925000I-270000J0D01*
G01*
X-2205000Y-11925000D01*
G75*
G02*
X-2475000Y-11655000I0J270000D01*
G01*
G37*
%TD*%
%TO.C,C1*%
G36*
G01*
X-275000Y2345000D02*
X-275000Y3655000D01*
G75*
G02*
X-5000Y3925000I270000J0D01*
G01*
X805000Y3925000D01*
G75*
G02*
X1075000Y3655000I0J-270000D01*
G01*
X1075000Y2345000D01*
G75*
G02*
X805000Y2075000I-270000J0D01*
G01*
X-5000Y2075000D01*
G75*
G02*
X-275000Y2345000I0J270000D01*
G01*
G37*
G36*
G01*
X-3075000Y2345000D02*
X-3075000Y3655000D01*
G75*
G02*
X-2805000Y3925000I270000J0D01*
G01*
X-1995000Y3925000D01*
G75*
G02*
X-1725000Y3655000I0J-270000D01*
G01*
X-1725000Y2345000D01*
G75*
G02*
X-1995000Y2075000I-270000J0D01*
G01*
X-2805000Y2075000D01*
G75*
G02*
X-3075000Y2345000I0J270000D01*
G01*
G37*
%TD*%
M02*
