%TF.GenerationSoftware,KiCad,Pcbnew,5.1.6-c6e7f7d~87~ubuntu20.04.1*%
%TF.CreationDate,2020-09-20T16:33:26-07:00*%
%TF.ProjectId,esp8266-iot,65737038-3236-4362-9d69-6f742e6b6963,rev?*%
%TF.SameCoordinates,Original*%
%TF.FileFunction,Legend,Top*%
%TF.FilePolarity,Positive*%
%FSLAX46Y46*%
G04 Gerber Fmt 4.6, Leading zero omitted, Abs format (unit mm)*
G04 Created by KiCad (PCBNEW 5.1.6-c6e7f7d~87~ubuntu20.04.1) date 2020-09-20 16:33:26*
%MOMM*%
%LPD*%
G01*
G04 APERTURE LIST*
%ADD10C,0.250000*%
%ADD11C,0.152400*%
%ADD12C,0.120000*%
%ADD13C,0.150000*%
G04 APERTURE END LIST*
D10*
X-733333Y24440476D02*
X-923809Y24345238D01*
X-1304761Y24345238D01*
X-1495238Y24440476D01*
X-1590476Y24630952D01*
X-1590476Y25392857D01*
X-1495238Y25583333D01*
X-1304761Y25678571D01*
X-923809Y25678571D01*
X-733333Y25583333D01*
X-638095Y25392857D01*
X-638095Y25202380D01*
X-1590476Y25011904D01*
X123809Y24440476D02*
X314285Y24345238D01*
X695238Y24345238D01*
X885714Y24440476D01*
X980952Y24630952D01*
X980952Y24726190D01*
X885714Y24916666D01*
X695238Y25011904D01*
X409523Y25011904D01*
X219047Y25107142D01*
X123809Y25297619D01*
X123809Y25392857D01*
X219047Y25583333D01*
X409523Y25678571D01*
X695238Y25678571D01*
X885714Y25583333D01*
X1838095Y25678571D02*
X1838095Y23678571D01*
X1838095Y25583333D02*
X2028571Y25678571D01*
X2409523Y25678571D01*
X2600000Y25583333D01*
X2695238Y25488095D01*
X2790476Y25297619D01*
X2790476Y24726190D01*
X2695238Y24535714D01*
X2600000Y24440476D01*
X2409523Y24345238D01*
X2028571Y24345238D01*
X1838095Y24440476D01*
X3933333Y25488095D02*
X3742857Y25583333D01*
X3647619Y25678571D01*
X3552380Y25869047D01*
X3552380Y25964285D01*
X3647619Y26154761D01*
X3742857Y26250000D01*
X3933333Y26345238D01*
X4314285Y26345238D01*
X4504761Y26250000D01*
X4599999Y26154761D01*
X4695238Y25964285D01*
X4695238Y25869047D01*
X4599999Y25678571D01*
X4504761Y25583333D01*
X4314285Y25488095D01*
X3933333Y25488095D01*
X3742857Y25392857D01*
X3647619Y25297619D01*
X3552380Y25107142D01*
X3552380Y24726190D01*
X3647619Y24535714D01*
X3742857Y24440476D01*
X3933333Y24345238D01*
X4314285Y24345238D01*
X4504761Y24440476D01*
X4599999Y24535714D01*
X4695238Y24726190D01*
X4695238Y25107142D01*
X4599999Y25297619D01*
X4504761Y25392857D01*
X4314285Y25488095D01*
X5457142Y26154761D02*
X5552380Y26250000D01*
X5742857Y26345238D01*
X6219047Y26345238D01*
X6409523Y26250000D01*
X6504761Y26154761D01*
X6600000Y25964285D01*
X6600000Y25773809D01*
X6504761Y25488095D01*
X5361904Y24345238D01*
X6600000Y24345238D01*
X8314285Y26345238D02*
X7933333Y26345238D01*
X7742857Y26250000D01*
X7647619Y26154761D01*
X7457142Y25869047D01*
X7361904Y25488095D01*
X7361904Y24726190D01*
X7457142Y24535714D01*
X7552380Y24440476D01*
X7742857Y24345238D01*
X8123809Y24345238D01*
X8314285Y24440476D01*
X8409523Y24535714D01*
X8504761Y24726190D01*
X8504761Y25202380D01*
X8409523Y25392857D01*
X8314285Y25488095D01*
X8123809Y25583333D01*
X7742857Y25583333D01*
X7552380Y25488095D01*
X7457142Y25392857D01*
X7361904Y25202380D01*
X10219047Y26345238D02*
X9838095Y26345238D01*
X9647619Y26250000D01*
X9552380Y26154761D01*
X9361904Y25869047D01*
X9266666Y25488095D01*
X9266666Y24726190D01*
X9361904Y24535714D01*
X9457142Y24440476D01*
X9647619Y24345238D01*
X10028571Y24345238D01*
X10219047Y24440476D01*
X10314285Y24535714D01*
X10409523Y24726190D01*
X10409523Y25202380D01*
X10314285Y25392857D01*
X10219047Y25488095D01*
X10028571Y25583333D01*
X9647619Y25583333D01*
X9457142Y25488095D01*
X9361904Y25392857D01*
X9266666Y25202380D01*
X11266666Y25107142D02*
X12790476Y25107142D01*
X13742857Y24345238D02*
X13742857Y25678571D01*
X13742857Y26345238D02*
X13647619Y26250000D01*
X13742857Y26154761D01*
X13838095Y26250000D01*
X13742857Y26345238D01*
X13742857Y26154761D01*
X14980952Y24345238D02*
X14790476Y24440476D01*
X14695238Y24535714D01*
X14599999Y24726190D01*
X14599999Y25297619D01*
X14695238Y25488095D01*
X14790476Y25583333D01*
X14980952Y25678571D01*
X15266666Y25678571D01*
X15457142Y25583333D01*
X15552380Y25488095D01*
X15647619Y25297619D01*
X15647619Y24726190D01*
X15552380Y24535714D01*
X15457142Y24440476D01*
X15266666Y24345238D01*
X14980952Y24345238D01*
X16219047Y25678571D02*
X16980952Y25678571D01*
X16504761Y26345238D02*
X16504761Y24630952D01*
X16599999Y24440476D01*
X16790476Y24345238D01*
X16980952Y24345238D01*
X-1780952Y22428571D02*
X-1019047Y22428571D01*
X-1495238Y23095238D02*
X-1495238Y21380952D01*
X-1400000Y21190476D01*
X-1209523Y21095238D01*
X-1019047Y21095238D01*
X-66666Y21095238D02*
X-257142Y21190476D01*
X-352380Y21285714D01*
X-447619Y21476190D01*
X-447619Y22047619D01*
X-352380Y22238095D01*
X-257142Y22333333D01*
X-66666Y22428571D01*
X219047Y22428571D01*
X409523Y22333333D01*
X504761Y22238095D01*
X600000Y22047619D01*
X600000Y21476190D01*
X504761Y21285714D01*
X409523Y21190476D01*
X219047Y21095238D01*
X-66666Y21095238D01*
X1457142Y21095238D02*
X1457142Y22428571D01*
X1457142Y22238095D02*
X1552380Y22333333D01*
X1742857Y22428571D01*
X2028571Y22428571D01*
X2219047Y22333333D01*
X2314285Y22142857D01*
X2314285Y21095238D01*
X2314285Y22142857D02*
X2409523Y22333333D01*
X2600000Y22428571D01*
X2885714Y22428571D01*
X3076190Y22333333D01*
X3171428Y22142857D01*
X3171428Y21095238D01*
X5361904Y22047619D02*
X5266666Y22142857D01*
X5076190Y22238095D01*
X4885714Y22238095D01*
X4695238Y22142857D01*
X4600000Y22047619D01*
X4504761Y21857142D01*
X4504761Y21666666D01*
X4600000Y21476190D01*
X4695238Y21380952D01*
X4885714Y21285714D01*
X5076190Y21285714D01*
X5266666Y21380952D01*
X5361904Y21476190D01*
X5361904Y22238095D02*
X5361904Y21476190D01*
X5457142Y21380952D01*
X5552380Y21380952D01*
X5742857Y21476190D01*
X5838095Y21666666D01*
X5838095Y22142857D01*
X5647619Y22428571D01*
X5361904Y22619047D01*
X4980952Y22714285D01*
X4600000Y22619047D01*
X4314285Y22428571D01*
X4123809Y22142857D01*
X4028571Y21761904D01*
X4123809Y21380952D01*
X4314285Y21095238D01*
X4600000Y20904761D01*
X4980952Y20809523D01*
X5361904Y20904761D01*
X5647619Y21095238D01*
X6409523Y22428571D02*
X7171428Y22428571D01*
X6695238Y23095238D02*
X6695238Y21380952D01*
X6790476Y21190476D01*
X6980952Y21095238D01*
X7171428Y21095238D01*
X8123809Y21095238D02*
X7933333Y21190476D01*
X7838095Y21285714D01*
X7742857Y21476190D01*
X7742857Y22047619D01*
X7838095Y22238095D01*
X7933333Y22333333D01*
X8123809Y22428571D01*
X8409523Y22428571D01*
X8600000Y22333333D01*
X8695238Y22238095D01*
X8790476Y22047619D01*
X8790476Y21476190D01*
X8695238Y21285714D01*
X8600000Y21190476D01*
X8409523Y21095238D01*
X8123809Y21095238D01*
X9647619Y21095238D02*
X9647619Y22428571D01*
X9647619Y22238095D02*
X9742857Y22333333D01*
X9933333Y22428571D01*
X10219047Y22428571D01*
X10409523Y22333333D01*
X10504761Y22142857D01*
X10504761Y21095238D01*
X10504761Y22142857D02*
X10600000Y22333333D01*
X10790476Y22428571D01*
X11076190Y22428571D01*
X11266666Y22333333D01*
X11361904Y22142857D01*
X11361904Y21095238D01*
X12314285Y21095238D02*
X12314285Y23095238D01*
X12504761Y21857142D02*
X13076190Y21095238D01*
X13076190Y22428571D02*
X12314285Y21666666D01*
X13933333Y21285714D02*
X14028571Y21190476D01*
X13933333Y21095238D01*
X13838095Y21190476D01*
X13933333Y21285714D01*
X13933333Y21095238D01*
X14885714Y21095238D02*
X14885714Y22428571D01*
X14885714Y23095238D02*
X14790476Y23000000D01*
X14885714Y22904761D01*
X14980952Y23000000D01*
X14885714Y23095238D01*
X14885714Y22904761D01*
X15838095Y22428571D02*
X15838095Y21095238D01*
X15838095Y22238095D02*
X15933333Y22333333D01*
X16123809Y22428571D01*
X16409523Y22428571D01*
X16600000Y22333333D01*
X16695238Y22142857D01*
X16695238Y21095238D01*
X123809Y17940476D02*
X409523Y17845238D01*
X885714Y17845238D01*
X1076190Y17940476D01*
X1171428Y18035714D01*
X1266666Y18226190D01*
X1266666Y18416666D01*
X1171428Y18607142D01*
X1076190Y18702380D01*
X885714Y18797619D01*
X504761Y18892857D01*
X314285Y18988095D01*
X219047Y19083333D01*
X123809Y19273809D01*
X123809Y19464285D01*
X219047Y19654761D01*
X314285Y19750000D01*
X504761Y19845238D01*
X980952Y19845238D01*
X1266666Y19750000D01*
X2885714Y17940476D02*
X2695238Y17845238D01*
X2314285Y17845238D01*
X2123809Y17940476D01*
X2028571Y18130952D01*
X2028571Y18892857D01*
X2123809Y19083333D01*
X2314285Y19178571D01*
X2695238Y19178571D01*
X2885714Y19083333D01*
X2980952Y18892857D01*
X2980952Y18702380D01*
X2028571Y18511904D01*
X3838095Y19178571D02*
X3838095Y17178571D01*
X3838095Y19083333D02*
X4028571Y19178571D01*
X4409523Y19178571D01*
X4599999Y19083333D01*
X4695238Y18988095D01*
X4790476Y18797619D01*
X4790476Y18226190D01*
X4695238Y18035714D01*
X4599999Y17940476D01*
X4409523Y17845238D01*
X4028571Y17845238D01*
X3838095Y17940476D01*
X5361904Y19178571D02*
X6123809Y19178571D01*
X5647619Y19845238D02*
X5647619Y18130952D01*
X5742857Y17940476D01*
X5933333Y17845238D01*
X6123809Y17845238D01*
X8219047Y19654761D02*
X8314285Y19750000D01*
X8504761Y19845238D01*
X8980952Y19845238D01*
X9171428Y19750000D01*
X9266666Y19654761D01*
X9361904Y19464285D01*
X9361904Y19273809D01*
X9266666Y18988095D01*
X8123809Y17845238D01*
X9361904Y17845238D01*
X10599999Y19845238D02*
X10790476Y19845238D01*
X10980952Y19750000D01*
X11076190Y19654761D01*
X11171428Y19464285D01*
X11266666Y19083333D01*
X11266666Y18607142D01*
X11171428Y18226190D01*
X11076190Y18035714D01*
X10980952Y17940476D01*
X10790476Y17845238D01*
X10599999Y17845238D01*
X10409523Y17940476D01*
X10314285Y18035714D01*
X10219047Y18226190D01*
X10123809Y18607142D01*
X10123809Y19083333D01*
X10219047Y19464285D01*
X10314285Y19654761D01*
X10409523Y19750000D01*
X10599999Y19845238D01*
X12028571Y19654761D02*
X12123809Y19750000D01*
X12314285Y19845238D01*
X12790476Y19845238D01*
X12980952Y19750000D01*
X13076190Y19654761D01*
X13171428Y19464285D01*
X13171428Y19273809D01*
X13076190Y18988095D01*
X11933333Y17845238D01*
X13171428Y17845238D01*
X14409523Y19845238D02*
X14599999Y19845238D01*
X14790476Y19750000D01*
X14885714Y19654761D01*
X14980952Y19464285D01*
X15076190Y19083333D01*
X15076190Y18607142D01*
X14980952Y18226190D01*
X14885714Y18035714D01*
X14790476Y17940476D01*
X14599999Y17845238D01*
X14409523Y17845238D01*
X14219047Y17940476D01*
X14123809Y18035714D01*
X14028571Y18226190D01*
X13933333Y18607142D01*
X13933333Y19083333D01*
X14028571Y19464285D01*
X14123809Y19654761D01*
X14219047Y19750000D01*
X14409523Y19845238D01*
D11*
%TO.C,U2*%
X2734000Y-7609000D02*
X2734000Y-8371000D01*
X2734000Y-8371000D02*
X18736000Y-8371000D01*
X18736000Y-8371000D02*
X18736000Y-7609000D01*
D12*
%TO.C,U1*%
X-7800000Y1140000D02*
X-9335000Y1140000D01*
X-9335000Y1140000D02*
X-9335000Y-9140000D01*
X-9335000Y-9140000D02*
X-4265000Y-9140000D01*
X-4265000Y-9140000D02*
X-4265000Y1140000D01*
X-4265000Y1140000D02*
X-5800000Y1140000D01*
X-13035000Y1200000D02*
X-13035000Y-9200000D01*
X-13035000Y-9200000D02*
X-565000Y-9200000D01*
X-565000Y-9200000D02*
X-565000Y1200000D01*
X-565000Y1200000D02*
X-13035000Y1200000D01*
X-5800000Y1140000D02*
G75*
G02*
X-7800000Y1140000I-1000000J0D01*
G01*
%TO.C,TP3*%
X8250000Y-14250000D02*
G75*
G03*
X8250000Y-14250000I-1750000J0D01*
G01*
%TO.C,TP2*%
X12500000Y-14250000D02*
G75*
G03*
X12500000Y-14250000I-1750000J0D01*
G01*
%TO.C,TP1*%
X16750000Y-14250000D02*
G75*
G03*
X16750000Y-14250000I-1750000J0D01*
G01*
%TO.C,U3*%
X26390000Y10900000D02*
X26390000Y8450000D01*
X29610000Y9100000D02*
X29610000Y10900000D01*
%TO.C,R12*%
X-15510000Y-10741422D02*
X-15510000Y-11258578D01*
X-14090000Y-10741422D02*
X-14090000Y-11258578D01*
%TO.C,R11*%
X-15510000Y-6741422D02*
X-15510000Y-7258578D01*
X-14090000Y-6741422D02*
X-14090000Y-7258578D01*
%TO.C,R10*%
X19890000Y-13941422D02*
X19890000Y-14458578D01*
X21310000Y-13941422D02*
X21310000Y-14458578D01*
%TO.C,R9*%
X19110000Y-14508578D02*
X19110000Y-13991422D01*
X17690000Y-14508578D02*
X17690000Y-13991422D01*
%TO.C,R8*%
X-14090000Y9941422D02*
X-14090000Y10458578D01*
X-15510000Y9941422D02*
X-15510000Y10458578D01*
%TO.C,R7*%
X24258578Y-12290000D02*
X23741422Y-12290000D01*
X24258578Y-13710000D02*
X23741422Y-13710000D01*
%TO.C,R6*%
X24258578Y-14290000D02*
X23741422Y-14290000D01*
X24258578Y-15710000D02*
X23741422Y-15710000D01*
%TO.C,R5*%
X-14090000Y1341422D02*
X-14090000Y1858578D01*
X-15510000Y1341422D02*
X-15510000Y1858578D01*
%TO.C,R4*%
X3710000Y-14508578D02*
X3710000Y-13991422D01*
X2290000Y-14508578D02*
X2290000Y-13991422D01*
%TO.C,R3*%
X-210000Y-14508578D02*
X-210000Y-13991422D01*
X1210000Y-14508578D02*
X1210000Y-13991422D01*
%TO.C,R2*%
X-1090000Y-14458578D02*
X-1090000Y-13941422D01*
X-2510000Y-14458578D02*
X-2510000Y-13941422D01*
%TO.C,R1*%
X-2310000Y6258578D02*
X-2310000Y5741422D01*
X-890000Y6258578D02*
X-890000Y5741422D01*
D13*
%TO.C,J4*%
X26350000Y3600000D02*
X32000000Y3600000D01*
X26350000Y-3600000D02*
X26350000Y3600000D01*
X32000000Y-3600000D02*
X26350000Y-3600000D01*
X32000000Y-3600000D02*
X32000000Y3600000D01*
D12*
%TO.C,J3*%
X21420000Y-10620000D02*
X24080000Y-10620000D01*
X21420000Y-8020000D02*
X21420000Y-10620000D01*
X24080000Y-8020000D02*
X24080000Y-10620000D01*
X21420000Y-8020000D02*
X24080000Y-8020000D01*
X21420000Y-6750000D02*
X21420000Y-5420000D01*
X21420000Y-5420000D02*
X22750000Y-5420000D01*
%TO.C,J2*%
X-25690000Y9650000D02*
X-35110000Y9650000D01*
X-35110000Y9650000D02*
X-35110000Y-10890000D01*
X-35110000Y-10890000D02*
X-25690000Y-10890000D01*
X-25690000Y9650000D02*
X-25690000Y8050000D01*
X-25690000Y-10890000D02*
X-25690000Y-9290000D01*
X-25690000Y5950000D02*
X-25690000Y2970000D01*
X-25690000Y870000D02*
X-25690000Y-2110000D01*
X-25690000Y-4210000D02*
X-25690000Y-7190000D01*
X-31800000Y9650000D02*
X-31800000Y-10890000D01*
X-24400000Y6700000D02*
X-25000000Y7000000D01*
X-25000000Y7000000D02*
X-24400000Y7300000D01*
X-24400000Y7300000D02*
X-24400000Y6700000D01*
%TO.C,J1*%
X21420000Y8330000D02*
X22750000Y8330000D01*
X21420000Y7000000D02*
X21420000Y8330000D01*
X21420000Y5730000D02*
X24080000Y5730000D01*
X24080000Y5730000D02*
X24080000Y-1950000D01*
X21420000Y5730000D02*
X21420000Y-1950000D01*
X21420000Y-1950000D02*
X24080000Y-1950000D01*
%TO.C,D10*%
X-16350000Y-7800000D02*
X-16350000Y-13200000D01*
X-19650000Y-7800000D02*
X-19650000Y-13200000D01*
X-16350000Y-7800000D02*
X-19650000Y-7800000D01*
%TO.C,D9*%
X-23450000Y-14600000D02*
X-23450000Y-9200000D01*
X-20150000Y-14600000D02*
X-20150000Y-9200000D01*
X-23450000Y-14600000D02*
X-20150000Y-14600000D01*
%TO.C,D8*%
X-19650000Y-7400000D02*
X-19650000Y-2000000D01*
X-16350000Y-7400000D02*
X-16350000Y-2000000D01*
X-19650000Y-7400000D02*
X-16350000Y-7400000D01*
%TO.C,D7*%
X-20150000Y-600000D02*
X-20150000Y-6000000D01*
X-23450000Y-600000D02*
X-23450000Y-6000000D01*
X-20150000Y-600000D02*
X-23450000Y-600000D01*
%TO.C,D6*%
X-16350000Y7950000D02*
X-16350000Y2550000D01*
X-19650000Y7950000D02*
X-19650000Y2550000D01*
X-16350000Y7950000D02*
X-19650000Y7950000D01*
%TO.C,D5*%
X-23400000Y1150000D02*
X-23400000Y6550000D01*
X-20100000Y1150000D02*
X-20100000Y6550000D01*
X-23400000Y1150000D02*
X-20100000Y1150000D01*
%TO.C,D4*%
X-19650000Y8400000D02*
X-19650000Y13800000D01*
X-16350000Y8400000D02*
X-16350000Y13800000D01*
X-19650000Y8400000D02*
X-16350000Y8400000D01*
%TO.C,D3*%
X-20100000Y15200000D02*
X-20100000Y9800000D01*
X-23400000Y15200000D02*
X-23400000Y9800000D01*
X-20100000Y15200000D02*
X-23400000Y15200000D01*
%TO.C,D2*%
X29000000Y-12040000D02*
X26315000Y-12040000D01*
X26315000Y-12040000D02*
X26315000Y-13960000D01*
X26315000Y-13960000D02*
X29000000Y-13960000D01*
%TO.C,D1*%
X29000000Y-14040000D02*
X26315000Y-14040000D01*
X26315000Y-14040000D02*
X26315000Y-15960000D01*
X26315000Y-15960000D02*
X29000000Y-15960000D01*
%TO.C,C4*%
X27397936Y13090000D02*
X28602064Y13090000D01*
X27397936Y14910000D02*
X28602064Y14910000D01*
%TO.C,C3*%
X27397936Y5090000D02*
X28602064Y5090000D01*
X27397936Y6910000D02*
X28602064Y6910000D01*
%TO.C,C2*%
X-1002064Y-11910000D02*
X202064Y-11910000D01*
X-1002064Y-10090000D02*
X202064Y-10090000D01*
%TO.C,C1*%
X-1602064Y2090000D02*
X-397936Y2090000D01*
X-1602064Y3910000D02*
X-397936Y3910000D01*
%TO.C,U2*%
D10*
X11544761Y-623809D02*
X13163809Y-623809D01*
X13354285Y-528571D01*
X13449523Y-433333D01*
X13544761Y-242857D01*
X13544761Y138095D01*
X13449523Y328571D01*
X13354285Y423809D01*
X13163809Y519047D01*
X11544761Y519047D01*
X11735238Y1376190D02*
X11640000Y1471428D01*
X11544761Y1661904D01*
X11544761Y2138095D01*
X11640000Y2328571D01*
X11735238Y2423809D01*
X11925714Y2519047D01*
X12116190Y2519047D01*
X12401904Y2423809D01*
X13544761Y1280952D01*
X13544761Y2519047D01*
%TO.C,U1*%
X-12923809Y3695238D02*
X-12923809Y2076190D01*
X-12828571Y1885714D01*
X-12733333Y1790476D01*
X-12542857Y1695238D01*
X-12161904Y1695238D01*
X-11971428Y1790476D01*
X-11876190Y1885714D01*
X-11780952Y2076190D01*
X-11780952Y3695238D01*
X-9780952Y1695238D02*
X-10923809Y1695238D01*
X-10352380Y1695238D02*
X-10352380Y3695238D01*
X-10542857Y3409523D01*
X-10733333Y3219047D01*
X-10923809Y3123809D01*
%TO.C,TP3*%
X5704761Y-21723809D02*
X5704761Y-20580952D01*
X7704761Y-21152380D02*
X5704761Y-21152380D01*
X7704761Y-19914285D02*
X5704761Y-19914285D01*
X5704761Y-19152380D01*
X5800000Y-18961904D01*
X5895238Y-18866666D01*
X6085714Y-18771428D01*
X6371428Y-18771428D01*
X6561904Y-18866666D01*
X6657142Y-18961904D01*
X6752380Y-19152380D01*
X6752380Y-19914285D01*
X5704761Y-18104761D02*
X5704761Y-16866666D01*
X6466666Y-17533333D01*
X6466666Y-17247619D01*
X6561904Y-17057142D01*
X6657142Y-16961904D01*
X6847619Y-16866666D01*
X7323809Y-16866666D01*
X7514285Y-16961904D01*
X7609523Y-17057142D01*
X7704761Y-17247619D01*
X7704761Y-17819047D01*
X7609523Y-18009523D01*
X7514285Y-18104761D01*
%TO.C,TP2*%
X9704761Y-21923809D02*
X9704761Y-20780952D01*
X11704761Y-21352380D02*
X9704761Y-21352380D01*
X11704761Y-20114285D02*
X9704761Y-20114285D01*
X9704761Y-19352380D01*
X9800000Y-19161904D01*
X9895238Y-19066666D01*
X10085714Y-18971428D01*
X10371428Y-18971428D01*
X10561904Y-19066666D01*
X10657142Y-19161904D01*
X10752380Y-19352380D01*
X10752380Y-20114285D01*
X9895238Y-18209523D02*
X9800000Y-18114285D01*
X9704761Y-17923809D01*
X9704761Y-17447619D01*
X9800000Y-17257142D01*
X9895238Y-17161904D01*
X10085714Y-17066666D01*
X10276190Y-17066666D01*
X10561904Y-17161904D01*
X11704761Y-18304761D01*
X11704761Y-17066666D01*
%TO.C,TP1*%
X14304761Y-21523809D02*
X14304761Y-20380952D01*
X16304761Y-20952380D02*
X14304761Y-20952380D01*
X16304761Y-19714285D02*
X14304761Y-19714285D01*
X14304761Y-18952380D01*
X14400000Y-18761904D01*
X14495238Y-18666666D01*
X14685714Y-18571428D01*
X14971428Y-18571428D01*
X15161904Y-18666666D01*
X15257142Y-18761904D01*
X15352380Y-18952380D01*
X15352380Y-19714285D01*
X16304761Y-16666666D02*
X16304761Y-17809523D01*
X16304761Y-17238095D02*
X14304761Y-17238095D01*
X14590476Y-17428571D01*
X14780952Y-17619047D01*
X14876190Y-17809523D01*
%TO.C,U3*%
X23704761Y8676190D02*
X25323809Y8676190D01*
X25514285Y8771428D01*
X25609523Y8866666D01*
X25704761Y9057142D01*
X25704761Y9438095D01*
X25609523Y9628571D01*
X25514285Y9723809D01*
X25323809Y9819047D01*
X23704761Y9819047D01*
X23704761Y10580952D02*
X23704761Y11819047D01*
X24466666Y11152380D01*
X24466666Y11438095D01*
X24561904Y11628571D01*
X24657142Y11723809D01*
X24847619Y11819047D01*
X25323809Y11819047D01*
X25514285Y11723809D01*
X25609523Y11628571D01*
X25704761Y11438095D01*
X25704761Y10866666D01*
X25609523Y10676190D01*
X25514285Y10580952D01*
%TO.C,R12*%
X-11695238Y-14685714D02*
X-12647619Y-15352380D01*
X-11695238Y-15828571D02*
X-13695238Y-15828571D01*
X-13695238Y-15066666D01*
X-13600000Y-14876190D01*
X-13504761Y-14780952D01*
X-13314285Y-14685714D01*
X-13028571Y-14685714D01*
X-12838095Y-14780952D01*
X-12742857Y-14876190D01*
X-12647619Y-15066666D01*
X-12647619Y-15828571D01*
X-11695238Y-12780952D02*
X-11695238Y-13923809D01*
X-11695238Y-13352380D02*
X-13695238Y-13352380D01*
X-13409523Y-13542857D01*
X-13219047Y-13733333D01*
X-13123809Y-13923809D01*
X-13504761Y-12019047D02*
X-13600000Y-11923809D01*
X-13695238Y-11733333D01*
X-13695238Y-11257142D01*
X-13600000Y-11066666D01*
X-13504761Y-10971428D01*
X-13314285Y-10876190D01*
X-13123809Y-10876190D01*
X-12838095Y-10971428D01*
X-11695238Y-12114285D01*
X-11695238Y-10876190D01*
%TO.C,R11*%
X-13895238Y-3885714D02*
X-14847619Y-4552380D01*
X-13895238Y-5028571D02*
X-15895238Y-5028571D01*
X-15895238Y-4266666D01*
X-15800000Y-4076190D01*
X-15704761Y-3980952D01*
X-15514285Y-3885714D01*
X-15228571Y-3885714D01*
X-15038095Y-3980952D01*
X-14942857Y-4076190D01*
X-14847619Y-4266666D01*
X-14847619Y-5028571D01*
X-13895238Y-1980952D02*
X-13895238Y-3123809D01*
X-13895238Y-2552380D02*
X-15895238Y-2552380D01*
X-15609523Y-2742857D01*
X-15419047Y-2933333D01*
X-15323809Y-3123809D01*
X-13895238Y-76190D02*
X-13895238Y-1219047D01*
X-13895238Y-647619D02*
X-15895238Y-647619D01*
X-15609523Y-838095D01*
X-15419047Y-1028571D01*
X-15323809Y-1219047D01*
%TO.C,R10*%
X21704761Y-20885714D02*
X20752380Y-21552380D01*
X21704761Y-22028571D02*
X19704761Y-22028571D01*
X19704761Y-21266666D01*
X19800000Y-21076190D01*
X19895238Y-20980952D01*
X20085714Y-20885714D01*
X20371428Y-20885714D01*
X20561904Y-20980952D01*
X20657142Y-21076190D01*
X20752380Y-21266666D01*
X20752380Y-22028571D01*
X21704761Y-18980952D02*
X21704761Y-20123809D01*
X21704761Y-19552380D02*
X19704761Y-19552380D01*
X19990476Y-19742857D01*
X20180952Y-19933333D01*
X20276190Y-20123809D01*
X19704761Y-17742857D02*
X19704761Y-17552380D01*
X19800000Y-17361904D01*
X19895238Y-17266666D01*
X20085714Y-17171428D01*
X20466666Y-17076190D01*
X20942857Y-17076190D01*
X21323809Y-17171428D01*
X21514285Y-17266666D01*
X21609523Y-17361904D01*
X21704761Y-17552380D01*
X21704761Y-17742857D01*
X21609523Y-17933333D01*
X21514285Y-18028571D01*
X21323809Y-18123809D01*
X20942857Y-18219047D01*
X20466666Y-18219047D01*
X20085714Y-18123809D01*
X19895238Y-18028571D01*
X19800000Y-17933333D01*
X19704761Y-17742857D01*
%TO.C,R9*%
X19304761Y-20933333D02*
X18352380Y-21600000D01*
X19304761Y-22076190D02*
X17304761Y-22076190D01*
X17304761Y-21314285D01*
X17400000Y-21123809D01*
X17495238Y-21028571D01*
X17685714Y-20933333D01*
X17971428Y-20933333D01*
X18161904Y-21028571D01*
X18257142Y-21123809D01*
X18352380Y-21314285D01*
X18352380Y-22076190D01*
X19304761Y-19980952D02*
X19304761Y-19600000D01*
X19209523Y-19409523D01*
X19114285Y-19314285D01*
X18828571Y-19123809D01*
X18447619Y-19028571D01*
X17685714Y-19028571D01*
X17495238Y-19123809D01*
X17400000Y-19219047D01*
X17304761Y-19409523D01*
X17304761Y-19790476D01*
X17400000Y-19980952D01*
X17495238Y-20076190D01*
X17685714Y-20171428D01*
X18161904Y-20171428D01*
X18352380Y-20076190D01*
X18447619Y-19980952D01*
X18542857Y-19790476D01*
X18542857Y-19409523D01*
X18447619Y-19219047D01*
X18352380Y-19123809D01*
X18161904Y-19028571D01*
%TO.C,R8*%
X-11495238Y9866666D02*
X-12447619Y9200000D01*
X-11495238Y8723809D02*
X-13495238Y8723809D01*
X-13495238Y9485714D01*
X-13400000Y9676190D01*
X-13304761Y9771428D01*
X-13114285Y9866666D01*
X-12828571Y9866666D01*
X-12638095Y9771428D01*
X-12542857Y9676190D01*
X-12447619Y9485714D01*
X-12447619Y8723809D01*
X-12638095Y11009523D02*
X-12733333Y10819047D01*
X-12828571Y10723809D01*
X-13019047Y10628571D01*
X-13114285Y10628571D01*
X-13304761Y10723809D01*
X-13400000Y10819047D01*
X-13495238Y11009523D01*
X-13495238Y11390476D01*
X-13400000Y11580952D01*
X-13304761Y11676190D01*
X-13114285Y11771428D01*
X-13019047Y11771428D01*
X-12828571Y11676190D01*
X-12733333Y11580952D01*
X-12638095Y11390476D01*
X-12638095Y11009523D01*
X-12542857Y10819047D01*
X-12447619Y10723809D01*
X-12257142Y10628571D01*
X-11876190Y10628571D01*
X-11685714Y10723809D01*
X-11590476Y10819047D01*
X-11495238Y11009523D01*
X-11495238Y11390476D01*
X-11590476Y11580952D01*
X-11685714Y11676190D01*
X-11876190Y11771428D01*
X-12257142Y11771428D01*
X-12447619Y11676190D01*
X-12542857Y11580952D01*
X-12638095Y11390476D01*
%TO.C,R7*%
X26904761Y-10333333D02*
X25952380Y-11000000D01*
X26904761Y-11476190D02*
X24904761Y-11476190D01*
X24904761Y-10714285D01*
X25000000Y-10523809D01*
X25095238Y-10428571D01*
X25285714Y-10333333D01*
X25571428Y-10333333D01*
X25761904Y-10428571D01*
X25857142Y-10523809D01*
X25952380Y-10714285D01*
X25952380Y-11476190D01*
X24904761Y-9666666D02*
X24904761Y-8333333D01*
X26904761Y-9190476D01*
%TO.C,R6*%
X24304761Y-18933333D02*
X23352380Y-19600000D01*
X24304761Y-20076190D02*
X22304761Y-20076190D01*
X22304761Y-19314285D01*
X22400000Y-19123809D01*
X22495238Y-19028571D01*
X22685714Y-18933333D01*
X22971428Y-18933333D01*
X23161904Y-19028571D01*
X23257142Y-19123809D01*
X23352380Y-19314285D01*
X23352380Y-20076190D01*
X22304761Y-17219047D02*
X22304761Y-17600000D01*
X22400000Y-17790476D01*
X22495238Y-17885714D01*
X22780952Y-18076190D01*
X23161904Y-18171428D01*
X23923809Y-18171428D01*
X24114285Y-18076190D01*
X24209523Y-17980952D01*
X24304761Y-17790476D01*
X24304761Y-17409523D01*
X24209523Y-17219047D01*
X24114285Y-17123809D01*
X23923809Y-17028571D01*
X23447619Y-17028571D01*
X23257142Y-17123809D01*
X23161904Y-17219047D01*
X23066666Y-17409523D01*
X23066666Y-17790476D01*
X23161904Y-17980952D01*
X23257142Y-18076190D01*
X23447619Y-18171428D01*
%TO.C,R5*%
X-13895238Y5066666D02*
X-14847619Y4400000D01*
X-13895238Y3923809D02*
X-15895238Y3923809D01*
X-15895238Y4685714D01*
X-15800000Y4876190D01*
X-15704761Y4971428D01*
X-15514285Y5066666D01*
X-15228571Y5066666D01*
X-15038095Y4971428D01*
X-14942857Y4876190D01*
X-14847619Y4685714D01*
X-14847619Y3923809D01*
X-15895238Y6876190D02*
X-15895238Y5923809D01*
X-14942857Y5828571D01*
X-15038095Y5923809D01*
X-15133333Y6114285D01*
X-15133333Y6590476D01*
X-15038095Y6780952D01*
X-14942857Y6876190D01*
X-14752380Y6971428D01*
X-14276190Y6971428D01*
X-14085714Y6876190D01*
X-13990476Y6780952D01*
X-13895238Y6590476D01*
X-13895238Y6114285D01*
X-13990476Y5923809D01*
X-14085714Y5828571D01*
%TO.C,R4*%
X3904761Y-18933333D02*
X2952380Y-19600000D01*
X3904761Y-20076190D02*
X1904761Y-20076190D01*
X1904761Y-19314285D01*
X2000000Y-19123809D01*
X2095238Y-19028571D01*
X2285714Y-18933333D01*
X2571428Y-18933333D01*
X2761904Y-19028571D01*
X2857142Y-19123809D01*
X2952380Y-19314285D01*
X2952380Y-20076190D01*
X2571428Y-17219047D02*
X3904761Y-17219047D01*
X1809523Y-17695238D02*
X3238095Y-18171428D01*
X3238095Y-16933333D01*
%TO.C,R3*%
X1504761Y-18933333D02*
X552380Y-19600000D01*
X1504761Y-20076190D02*
X-495238Y-20076190D01*
X-495238Y-19314285D01*
X-400000Y-19123809D01*
X-304761Y-19028571D01*
X-114285Y-18933333D01*
X171428Y-18933333D01*
X361904Y-19028571D01*
X457142Y-19123809D01*
X552380Y-19314285D01*
X552380Y-20076190D01*
X-495238Y-18266666D02*
X-495238Y-17028571D01*
X266666Y-17695238D01*
X266666Y-17409523D01*
X361904Y-17219047D01*
X457142Y-17123809D01*
X647619Y-17028571D01*
X1123809Y-17028571D01*
X1314285Y-17123809D01*
X1409523Y-17219047D01*
X1504761Y-17409523D01*
X1504761Y-17980952D01*
X1409523Y-18171428D01*
X1314285Y-18266666D01*
%TO.C,R2*%
X-1095238Y-18933333D02*
X-2047619Y-19600000D01*
X-1095238Y-20076190D02*
X-3095238Y-20076190D01*
X-3095238Y-19314285D01*
X-3000000Y-19123809D01*
X-2904761Y-19028571D01*
X-2714285Y-18933333D01*
X-2428571Y-18933333D01*
X-2238095Y-19028571D01*
X-2142857Y-19123809D01*
X-2047619Y-19314285D01*
X-2047619Y-20076190D01*
X-2904761Y-18171428D02*
X-3000000Y-18076190D01*
X-3095238Y-17885714D01*
X-3095238Y-17409523D01*
X-3000000Y-17219047D01*
X-2904761Y-17123809D01*
X-2714285Y-17028571D01*
X-2523809Y-17028571D01*
X-2238095Y-17123809D01*
X-1095238Y-18266666D01*
X-1095238Y-17028571D01*
%TO.C,R1*%
X-3095238Y5666666D02*
X-4047619Y5000000D01*
X-3095238Y4523809D02*
X-5095238Y4523809D01*
X-5095238Y5285714D01*
X-5000000Y5476190D01*
X-4904761Y5571428D01*
X-4714285Y5666666D01*
X-4428571Y5666666D01*
X-4238095Y5571428D01*
X-4142857Y5476190D01*
X-4047619Y5285714D01*
X-4047619Y4523809D01*
X-3095238Y7571428D02*
X-3095238Y6428571D01*
X-3095238Y7000000D02*
X-5095238Y7000000D01*
X-4809523Y6809523D01*
X-4619047Y6619047D01*
X-4523809Y6428571D01*
%TO.C,J4*%
X28004761Y-666666D02*
X29433333Y-666666D01*
X29719047Y-761904D01*
X29909523Y-952380D01*
X30004761Y-1238095D01*
X30004761Y-1428571D01*
X28671428Y1142857D02*
X30004761Y1142857D01*
X27909523Y666666D02*
X29338095Y190476D01*
X29338095Y1428571D01*
%TO.C,J3*%
X22133333Y-2704761D02*
X22133333Y-4133333D01*
X22038095Y-4419047D01*
X21847619Y-4609523D01*
X21561904Y-4704761D01*
X21371428Y-4704761D01*
X22895238Y-2704761D02*
X24133333Y-2704761D01*
X23466666Y-3466666D01*
X23752380Y-3466666D01*
X23942857Y-3561904D01*
X24038095Y-3657142D01*
X24133333Y-3847619D01*
X24133333Y-4323809D01*
X24038095Y-4514285D01*
X23942857Y-4609523D01*
X23752380Y-4704761D01*
X23180952Y-4704761D01*
X22990476Y-4609523D01*
X22895238Y-4514285D01*
%TO.C,J2*%
X-30895238Y-1286666D02*
X-29466666Y-1286666D01*
X-29180952Y-1381904D01*
X-28990476Y-1572380D01*
X-28895238Y-1858095D01*
X-28895238Y-2048571D01*
X-30704761Y-429523D02*
X-30800000Y-334285D01*
X-30895238Y-143809D01*
X-30895238Y332380D01*
X-30800000Y522857D01*
X-30704761Y618095D01*
X-30514285Y713333D01*
X-30323809Y713333D01*
X-30038095Y618095D01*
X-28895238Y-524761D01*
X-28895238Y713333D01*
%TO.C,J1*%
X18733333Y10695238D02*
X18733333Y9266666D01*
X18638095Y8980952D01*
X18447619Y8790476D01*
X18161904Y8695238D01*
X17971428Y8695238D01*
X20733333Y8695238D02*
X19590476Y8695238D01*
X20161904Y8695238D02*
X20161904Y10695238D01*
X19971428Y10409523D01*
X19780952Y10219047D01*
X19590476Y10123809D01*
%TO.C,D10*%
X-17095238Y-25228571D02*
X-19095238Y-25228571D01*
X-19095238Y-24752380D01*
X-19000000Y-24466666D01*
X-18809523Y-24276190D01*
X-18619047Y-24180952D01*
X-18238095Y-24085714D01*
X-17952380Y-24085714D01*
X-17571428Y-24180952D01*
X-17380952Y-24276190D01*
X-17190476Y-24466666D01*
X-17095238Y-24752380D01*
X-17095238Y-25228571D01*
X-17095238Y-22180952D02*
X-17095238Y-23323809D01*
X-17095238Y-22752380D02*
X-19095238Y-22752380D01*
X-18809523Y-22942857D01*
X-18619047Y-23133333D01*
X-18523809Y-23323809D01*
X-19095238Y-20942857D02*
X-19095238Y-20752380D01*
X-19000000Y-20561904D01*
X-18904761Y-20466666D01*
X-18714285Y-20371428D01*
X-18333333Y-20276190D01*
X-17857142Y-20276190D01*
X-17476190Y-20371428D01*
X-17285714Y-20466666D01*
X-17190476Y-20561904D01*
X-17095238Y-20752380D01*
X-17095238Y-20942857D01*
X-17190476Y-21133333D01*
X-17285714Y-21228571D01*
X-17476190Y-21323809D01*
X-17857142Y-21419047D01*
X-18333333Y-21419047D01*
X-18714285Y-21323809D01*
X-18904761Y-21228571D01*
X-19000000Y-21133333D01*
X-19095238Y-20942857D01*
%TO.C,D9*%
X-21095238Y-25076190D02*
X-23095238Y-25076190D01*
X-23095238Y-24600000D01*
X-23000000Y-24314285D01*
X-22809523Y-24123809D01*
X-22619047Y-24028571D01*
X-22238095Y-23933333D01*
X-21952380Y-23933333D01*
X-21571428Y-24028571D01*
X-21380952Y-24123809D01*
X-21190476Y-24314285D01*
X-21095238Y-24600000D01*
X-21095238Y-25076190D01*
X-21095238Y-22980952D02*
X-21095238Y-22600000D01*
X-21190476Y-22409523D01*
X-21285714Y-22314285D01*
X-21571428Y-22123809D01*
X-21952380Y-22028571D01*
X-22714285Y-22028571D01*
X-22904761Y-22123809D01*
X-23000000Y-22219047D01*
X-23095238Y-22409523D01*
X-23095238Y-22790476D01*
X-23000000Y-22980952D01*
X-22904761Y-23076190D01*
X-22714285Y-23171428D01*
X-22238095Y-23171428D01*
X-22047619Y-23076190D01*
X-21952380Y-22980952D01*
X-21857142Y-22790476D01*
X-21857142Y-22409523D01*
X-21952380Y-22219047D01*
X-22047619Y-22123809D01*
X-22238095Y-22028571D01*
%TO.C,D8*%
X-17095238Y-18476190D02*
X-19095238Y-18476190D01*
X-19095238Y-18000000D01*
X-19000000Y-17714285D01*
X-18809523Y-17523809D01*
X-18619047Y-17428571D01*
X-18238095Y-17333333D01*
X-17952380Y-17333333D01*
X-17571428Y-17428571D01*
X-17380952Y-17523809D01*
X-17190476Y-17714285D01*
X-17095238Y-18000000D01*
X-17095238Y-18476190D01*
X-18238095Y-16190476D02*
X-18333333Y-16380952D01*
X-18428571Y-16476190D01*
X-18619047Y-16571428D01*
X-18714285Y-16571428D01*
X-18904761Y-16476190D01*
X-19000000Y-16380952D01*
X-19095238Y-16190476D01*
X-19095238Y-15809523D01*
X-19000000Y-15619047D01*
X-18904761Y-15523809D01*
X-18714285Y-15428571D01*
X-18619047Y-15428571D01*
X-18428571Y-15523809D01*
X-18333333Y-15619047D01*
X-18238095Y-15809523D01*
X-18238095Y-16190476D01*
X-18142857Y-16380952D01*
X-18047619Y-16476190D01*
X-17857142Y-16571428D01*
X-17476190Y-16571428D01*
X-17285714Y-16476190D01*
X-17190476Y-16380952D01*
X-17095238Y-16190476D01*
X-17095238Y-15809523D01*
X-17190476Y-15619047D01*
X-17285714Y-15523809D01*
X-17476190Y-15428571D01*
X-17857142Y-15428571D01*
X-18047619Y-15523809D01*
X-18142857Y-15619047D01*
X-18238095Y-15809523D01*
%TO.C,D7*%
X-21095238Y-18476190D02*
X-23095238Y-18476190D01*
X-23095238Y-18000000D01*
X-23000000Y-17714285D01*
X-22809523Y-17523809D01*
X-22619047Y-17428571D01*
X-22238095Y-17333333D01*
X-21952380Y-17333333D01*
X-21571428Y-17428571D01*
X-21380952Y-17523809D01*
X-21190476Y-17714285D01*
X-21095238Y-18000000D01*
X-21095238Y-18476190D01*
X-23095238Y-16666666D02*
X-23095238Y-15333333D01*
X-21095238Y-16190476D01*
%TO.C,D6*%
X-17095238Y17723809D02*
X-19095238Y17723809D01*
X-19095238Y18200000D01*
X-19000000Y18485714D01*
X-18809523Y18676190D01*
X-18619047Y18771428D01*
X-18238095Y18866666D01*
X-17952380Y18866666D01*
X-17571428Y18771428D01*
X-17380952Y18676190D01*
X-17190476Y18485714D01*
X-17095238Y18200000D01*
X-17095238Y17723809D01*
X-19095238Y20580952D02*
X-19095238Y20200000D01*
X-19000000Y20009523D01*
X-18904761Y19914285D01*
X-18619047Y19723809D01*
X-18238095Y19628571D01*
X-17476190Y19628571D01*
X-17285714Y19723809D01*
X-17190476Y19819047D01*
X-17095238Y20009523D01*
X-17095238Y20390476D01*
X-17190476Y20580952D01*
X-17285714Y20676190D01*
X-17476190Y20771428D01*
X-17952380Y20771428D01*
X-18142857Y20676190D01*
X-18238095Y20580952D01*
X-18333333Y20390476D01*
X-18333333Y20009523D01*
X-18238095Y19819047D01*
X-18142857Y19723809D01*
X-17952380Y19628571D01*
%TO.C,D5*%
X-20695238Y17723809D02*
X-22695238Y17723809D01*
X-22695238Y18200000D01*
X-22600000Y18485714D01*
X-22409523Y18676190D01*
X-22219047Y18771428D01*
X-21838095Y18866666D01*
X-21552380Y18866666D01*
X-21171428Y18771428D01*
X-20980952Y18676190D01*
X-20790476Y18485714D01*
X-20695238Y18200000D01*
X-20695238Y17723809D01*
X-22695238Y20676190D02*
X-22695238Y19723809D01*
X-21742857Y19628571D01*
X-21838095Y19723809D01*
X-21933333Y19914285D01*
X-21933333Y20390476D01*
X-21838095Y20580952D01*
X-21742857Y20676190D01*
X-21552380Y20771428D01*
X-21076190Y20771428D01*
X-20885714Y20676190D01*
X-20790476Y20580952D01*
X-20695238Y20390476D01*
X-20695238Y19914285D01*
X-20790476Y19723809D01*
X-20885714Y19628571D01*
%TO.C,D4*%
X-16895238Y23923809D02*
X-18895238Y23923809D01*
X-18895238Y24400000D01*
X-18800000Y24685714D01*
X-18609523Y24876190D01*
X-18419047Y24971428D01*
X-18038095Y25066666D01*
X-17752380Y25066666D01*
X-17371428Y24971428D01*
X-17180952Y24876190D01*
X-16990476Y24685714D01*
X-16895238Y24400000D01*
X-16895238Y23923809D01*
X-18228571Y26780952D02*
X-16895238Y26780952D01*
X-18990476Y26304761D02*
X-17561904Y25828571D01*
X-17561904Y27066666D01*
%TO.C,D3*%
X-20695238Y23923809D02*
X-22695238Y23923809D01*
X-22695238Y24400000D01*
X-22600000Y24685714D01*
X-22409523Y24876190D01*
X-22219047Y24971428D01*
X-21838095Y25066666D01*
X-21552380Y25066666D01*
X-21171428Y24971428D01*
X-20980952Y24876190D01*
X-20790476Y24685714D01*
X-20695238Y24400000D01*
X-20695238Y23923809D01*
X-22695238Y25733333D02*
X-22695238Y26971428D01*
X-21933333Y26304761D01*
X-21933333Y26590476D01*
X-21838095Y26780952D01*
X-21742857Y26876190D01*
X-21552380Y26971428D01*
X-21076190Y26971428D01*
X-20885714Y26876190D01*
X-20790476Y26780952D01*
X-20695238Y26590476D01*
X-20695238Y26019047D01*
X-20790476Y25828571D01*
X-20885714Y25733333D01*
%TO.C,D2*%
X30704761Y-11276190D02*
X28704761Y-11276190D01*
X28704761Y-10800000D01*
X28800000Y-10514285D01*
X28990476Y-10323809D01*
X29180952Y-10228571D01*
X29561904Y-10133333D01*
X29847619Y-10133333D01*
X30228571Y-10228571D01*
X30419047Y-10323809D01*
X30609523Y-10514285D01*
X30704761Y-10800000D01*
X30704761Y-11276190D01*
X28895238Y-9371428D02*
X28800000Y-9276190D01*
X28704761Y-9085714D01*
X28704761Y-8609523D01*
X28800000Y-8419047D01*
X28895238Y-8323809D01*
X29085714Y-8228571D01*
X29276190Y-8228571D01*
X29561904Y-8323809D01*
X30704761Y-9466666D01*
X30704761Y-8228571D01*
%TO.C,D1*%
X30704761Y-19476190D02*
X28704761Y-19476190D01*
X28704761Y-19000000D01*
X28800000Y-18714285D01*
X28990476Y-18523809D01*
X29180952Y-18428571D01*
X29561904Y-18333333D01*
X29847619Y-18333333D01*
X30228571Y-18428571D01*
X30419047Y-18523809D01*
X30609523Y-18714285D01*
X30704761Y-19000000D01*
X30704761Y-19476190D01*
X30704761Y-16428571D02*
X30704761Y-17571428D01*
X30704761Y-17000000D02*
X28704761Y-17000000D01*
X28990476Y-17190476D01*
X29180952Y-17380952D01*
X29276190Y-17571428D01*
%TO.C,C4*%
X27666666Y16085714D02*
X27571428Y15990476D01*
X27285714Y15895238D01*
X27095238Y15895238D01*
X26809523Y15990476D01*
X26619047Y16180952D01*
X26523809Y16371428D01*
X26428571Y16752380D01*
X26428571Y17038095D01*
X26523809Y17419047D01*
X26619047Y17609523D01*
X26809523Y17800000D01*
X27095238Y17895238D01*
X27285714Y17895238D01*
X27571428Y17800000D01*
X27666666Y17704761D01*
X29380952Y17228571D02*
X29380952Y15895238D01*
X28904761Y17990476D02*
X28428571Y16561904D01*
X29666666Y16561904D01*
%TO.C,C3*%
X31514285Y8866666D02*
X31609523Y8771428D01*
X31704761Y8485714D01*
X31704761Y8295238D01*
X31609523Y8009523D01*
X31419047Y7819047D01*
X31228571Y7723809D01*
X30847619Y7628571D01*
X30561904Y7628571D01*
X30180952Y7723809D01*
X29990476Y7819047D01*
X29800000Y8009523D01*
X29704761Y8295238D01*
X29704761Y8485714D01*
X29800000Y8771428D01*
X29895238Y8866666D01*
X29704761Y9533333D02*
X29704761Y10771428D01*
X30466666Y10104761D01*
X30466666Y10390476D01*
X30561904Y10580952D01*
X30657142Y10676190D01*
X30847619Y10771428D01*
X31323809Y10771428D01*
X31514285Y10676190D01*
X31609523Y10580952D01*
X31704761Y10390476D01*
X31704761Y9819047D01*
X31609523Y9628571D01*
X31514285Y9533333D01*
%TO.C,C2*%
X-5333333Y-11714285D02*
X-5428571Y-11809523D01*
X-5714285Y-11904761D01*
X-5904761Y-11904761D01*
X-6190476Y-11809523D01*
X-6380952Y-11619047D01*
X-6476190Y-11428571D01*
X-6571428Y-11047619D01*
X-6571428Y-10761904D01*
X-6476190Y-10380952D01*
X-6380952Y-10190476D01*
X-6190476Y-10000000D01*
X-5904761Y-9904761D01*
X-5714285Y-9904761D01*
X-5428571Y-10000000D01*
X-5333333Y-10095238D01*
X-4571428Y-10095238D02*
X-4476190Y-10000000D01*
X-4285714Y-9904761D01*
X-3809523Y-9904761D01*
X-3619047Y-10000000D01*
X-3523809Y-10095238D01*
X-3428571Y-10285714D01*
X-3428571Y-10476190D01*
X-3523809Y-10761904D01*
X-4666666Y-11904761D01*
X-3428571Y-11904761D01*
%TO.C,C1*%
X-5533333Y2085714D02*
X-5628571Y1990476D01*
X-5914285Y1895238D01*
X-6104761Y1895238D01*
X-6390476Y1990476D01*
X-6580952Y2180952D01*
X-6676190Y2371428D01*
X-6771428Y2752380D01*
X-6771428Y3038095D01*
X-6676190Y3419047D01*
X-6580952Y3609523D01*
X-6390476Y3800000D01*
X-6104761Y3895238D01*
X-5914285Y3895238D01*
X-5628571Y3800000D01*
X-5533333Y3704761D01*
X-3628571Y1895238D02*
X-4771428Y1895238D01*
X-4200000Y1895238D02*
X-4200000Y3895238D01*
X-4390476Y3609523D01*
X-4580952Y3419047D01*
X-4771428Y3323809D01*
%TD*%
M02*
