M48
; DRILL file {KiCad 5.1.6-c6e7f7d~87~ubuntu20.04.1} date Sun Sep 20 16:33:29 2020
; FORMAT={-:-/ absolute / metric / decimal}
; #@! TF.CreationDate,2020-09-20T16:33:29-07:00
; #@! TF.GenerationSoftware,Kicad,Pcbnew,5.1.6-c6e7f7d~87~ubuntu20.04.1
FMAT,2
METRIC
T1C0.400
T2C0.550
T3C0.800
T4C1.000
T5C1.200
T6C5.500
%
G90
G05
T1
X-2.2Y-3.8
X-2.2Y-9.2
X-0.8Y3.0
X-0.2Y-11.0
X0.8Y6.2
X0.8Y-7.0
X0.8Y-16.4
X1.8Y-14.2
X3.0Y-11.4
X5.2Y3.2
X5.6Y2.2
X16.6Y-2.8
X17.45Y-5.598
X17.6Y1.049
X18.4Y-11.8
X19.4Y-8.0
X20.6Y-12.2
X20.6Y-14.4
X22.0Y-15.0
X24.4Y-1.8
X25.2Y5.4
X28.0Y10.0
X30.8Y14.0
X30.8Y6.0
T2
X27.7Y2.0
X27.7Y-2.0
T4
X22.75Y-6.75
X22.75Y-9.29
X22.75Y7.0
X22.75Y4.46
X22.75Y1.92
X22.75Y-0.62
T5
X-27.0Y7.0
X-27.0Y1.92
X-27.0Y-3.16
X-27.0Y-8.24
T6
X-27.0Y23.0
X-27.0Y-23.0
X27.0Y23.0
X27.0Y-23.0
T3
G00X26.03Y3.6
M15
G01X26.73Y3.6
M16
G05
G00X26.03Y-3.6
M15
G01X26.73Y-3.6
M16
G05
G00X29.5Y3.6
M15
G01X30.2Y3.6
M16
G05
G00X29.5Y-3.6
M15
G01X30.2Y-3.6
M16
G05
T0
M30
