G04 #@! TF.GenerationSoftware,KiCad,Pcbnew,6.0.10-86aedd382b~118~ubuntu22.04.1*
G04 #@! TF.CreationDate,2023-01-22T16:27:42-08:00*
G04 #@! TF.ProjectId,ch348_octo_serial_minim,63683334-385f-46f6-9374-6f5f73657269,rev?*
G04 #@! TF.SameCoordinates,Original*
G04 #@! TF.FileFunction,Legend,Bot*
G04 #@! TF.FilePolarity,Positive*
%FSLAX46Y46*%
G04 Gerber Fmt 4.6, Leading zero omitted, Abs format (unit mm)*
G04 Created by KiCad (PCBNEW 6.0.10-86aedd382b~118~ubuntu22.04.1) date 2023-01-22 16:27:42*
%MOMM*%
%LPD*%
G01*
G04 APERTURE LIST*
%ADD10C,0.300000*%
%ADD11C,0.400000*%
%ADD12C,1.000000*%
G04 APERTURE END LIST*
D10*
X73025000Y-68200000D02*
X80645000Y-68200000D01*
X145415000Y-68200000D02*
X153035000Y-68200000D01*
X93345000Y-68200000D02*
X100965000Y-68200000D01*
X83185000Y-68200000D02*
X90805000Y-68200000D01*
X125095000Y-68200000D02*
X132715000Y-68200000D01*
X114935000Y-68200000D02*
X122555000Y-68200000D01*
X103505000Y-68200000D02*
X111125000Y-68200000D01*
X135255000Y-68200000D02*
X142875000Y-68200000D01*
D11*
X138892976Y-74107619D02*
X136992976Y-73474285D01*
X138892976Y-72840952D01*
X137173928Y-71121904D02*
X137083452Y-71212380D01*
X136992976Y-71483809D01*
X136992976Y-71664761D01*
X137083452Y-71936190D01*
X137264404Y-72117142D01*
X137445357Y-72207619D01*
X137807261Y-72298095D01*
X138078690Y-72298095D01*
X138440595Y-72207619D01*
X138621547Y-72117142D01*
X138802500Y-71936190D01*
X138892976Y-71664761D01*
X138892976Y-71483809D01*
X138802500Y-71212380D01*
X138712023Y-71121904D01*
X137173928Y-69221904D02*
X137083452Y-69312380D01*
X136992976Y-69583809D01*
X136992976Y-69764761D01*
X137083452Y-70036190D01*
X137264404Y-70217142D01*
X137445357Y-70307619D01*
X137807261Y-70398095D01*
X138078690Y-70398095D01*
X138440595Y-70307619D01*
X138621547Y-70217142D01*
X138802500Y-70036190D01*
X138892976Y-69764761D01*
X138892976Y-69583809D01*
X138802500Y-69312380D01*
X138712023Y-69221904D01*
D12*
X137011428Y-85961904D02*
X139868571Y-85961904D01*
X138440000Y-85961904D02*
X138440000Y-80961904D01*
X138916190Y-81676190D01*
X139392380Y-82152380D01*
X139868571Y-82390476D01*
X148838095Y-80961904D02*
X148361904Y-80961904D01*
X147885714Y-81200000D01*
X147647619Y-81438095D01*
X147409523Y-81914285D01*
X147171428Y-82866666D01*
X147171428Y-84057142D01*
X147409523Y-85009523D01*
X147647619Y-85485714D01*
X147885714Y-85723809D01*
X148361904Y-85961904D01*
X148838095Y-85961904D01*
X149314285Y-85723809D01*
X149552380Y-85485714D01*
X149790476Y-85009523D01*
X150028571Y-84057142D01*
X150028571Y-82866666D01*
X149790476Y-81914285D01*
X149552380Y-81438095D01*
X149314285Y-81200000D01*
X148838095Y-80961904D01*
D11*
X106984226Y-74107619D02*
X105084226Y-73474285D01*
X106984226Y-72840952D01*
X105265178Y-71121904D02*
X105174702Y-71212380D01*
X105084226Y-71483809D01*
X105084226Y-71664761D01*
X105174702Y-71936190D01*
X105355654Y-72117142D01*
X105536607Y-72207619D01*
X105898511Y-72298095D01*
X106169940Y-72298095D01*
X106531845Y-72207619D01*
X106712797Y-72117142D01*
X106893750Y-71936190D01*
X106984226Y-71664761D01*
X106984226Y-71483809D01*
X106893750Y-71212380D01*
X106803273Y-71121904D01*
X105265178Y-69221904D02*
X105174702Y-69312380D01*
X105084226Y-69583809D01*
X105084226Y-69764761D01*
X105174702Y-70036190D01*
X105355654Y-70217142D01*
X105536607Y-70307619D01*
X105898511Y-70398095D01*
X106169940Y-70398095D01*
X106531845Y-70307619D01*
X106712797Y-70217142D01*
X106893750Y-70036190D01*
X106984226Y-69764761D01*
X106984226Y-69583809D01*
X106893750Y-69312380D01*
X106803273Y-69221904D01*
D12*
X79206666Y-80961904D02*
X75873333Y-80961904D01*
X78016190Y-85961904D01*
D11*
X148932976Y-74107619D02*
X147032976Y-73474285D01*
X148932976Y-72840952D01*
X147213928Y-71121904D02*
X147123452Y-71212380D01*
X147032976Y-71483809D01*
X147032976Y-71664761D01*
X147123452Y-71936190D01*
X147304404Y-72117142D01*
X147485357Y-72207619D01*
X147847261Y-72298095D01*
X148118690Y-72298095D01*
X148480595Y-72207619D01*
X148661547Y-72117142D01*
X148842500Y-71936190D01*
X148932976Y-71664761D01*
X148932976Y-71483809D01*
X148842500Y-71212380D01*
X148752023Y-71121904D01*
X147213928Y-69221904D02*
X147123452Y-69312380D01*
X147032976Y-69583809D01*
X147032976Y-69764761D01*
X147123452Y-70036190D01*
X147304404Y-70217142D01*
X147485357Y-70307619D01*
X147847261Y-70398095D01*
X148118690Y-70398095D01*
X148480595Y-70307619D01*
X148661547Y-70217142D01*
X148842500Y-70036190D01*
X148932976Y-69764761D01*
X148932976Y-69583809D01*
X148842500Y-69312380D01*
X148752023Y-69221904D01*
X128732976Y-74107619D02*
X126832976Y-73474285D01*
X128732976Y-72840952D01*
X127013928Y-71121904D02*
X126923452Y-71212380D01*
X126832976Y-71483809D01*
X126832976Y-71664761D01*
X126923452Y-71936190D01*
X127104404Y-72117142D01*
X127285357Y-72207619D01*
X127647261Y-72298095D01*
X127918690Y-72298095D01*
X128280595Y-72207619D01*
X128461547Y-72117142D01*
X128642500Y-71936190D01*
X128732976Y-71664761D01*
X128732976Y-71483809D01*
X128642500Y-71212380D01*
X128552023Y-71121904D01*
X127013928Y-69221904D02*
X126923452Y-69312380D01*
X126832976Y-69583809D01*
X126832976Y-69764761D01*
X126923452Y-70036190D01*
X127104404Y-70217142D01*
X127285357Y-70307619D01*
X127647261Y-70398095D01*
X127918690Y-70398095D01*
X128280595Y-70307619D01*
X128461547Y-70217142D01*
X128642500Y-70036190D01*
X128732976Y-69764761D01*
X128732976Y-69583809D01*
X128642500Y-69312380D01*
X128552023Y-69221904D01*
X131272976Y-76188571D02*
X131272976Y-75102857D01*
X129372976Y-75645714D02*
X131272976Y-75645714D01*
X131272976Y-74650476D02*
X129372976Y-73383809D01*
X131272976Y-73383809D02*
X129372976Y-74650476D01*
X129372976Y-72660000D02*
X131272976Y-72660000D01*
X131272976Y-72207619D01*
X131182500Y-71936190D01*
X131001547Y-71755238D01*
X130820595Y-71664761D01*
X130458690Y-71574285D01*
X130187261Y-71574285D01*
X129825357Y-71664761D01*
X129644404Y-71755238D01*
X129463452Y-71936190D01*
X129372976Y-72207619D01*
X129372976Y-72660000D01*
X130639642Y-70760000D02*
X130096785Y-69312380D01*
X129553928Y-70760000D01*
D12*
X107067619Y-82628571D02*
X107067619Y-85961904D01*
X108258095Y-80723809D02*
X109448571Y-84295238D01*
X106353333Y-84295238D01*
D11*
X96824226Y-74107619D02*
X94924226Y-73474285D01*
X96824226Y-72840952D01*
X95105178Y-71121904D02*
X95014702Y-71212380D01*
X94924226Y-71483809D01*
X94924226Y-71664761D01*
X95014702Y-71936190D01*
X95195654Y-72117142D01*
X95376607Y-72207619D01*
X95738511Y-72298095D01*
X96009940Y-72298095D01*
X96371845Y-72207619D01*
X96552797Y-72117142D01*
X96733750Y-71936190D01*
X96824226Y-71664761D01*
X96824226Y-71483809D01*
X96733750Y-71212380D01*
X96643273Y-71121904D01*
X95105178Y-69221904D02*
X95014702Y-69312380D01*
X94924226Y-69583809D01*
X94924226Y-69764761D01*
X95014702Y-70036190D01*
X95195654Y-70217142D01*
X95376607Y-70307619D01*
X95738511Y-70398095D01*
X96009940Y-70398095D01*
X96371845Y-70307619D01*
X96552797Y-70217142D01*
X96733750Y-70036190D01*
X96824226Y-69764761D01*
X96824226Y-69583809D01*
X96733750Y-69312380D01*
X96643273Y-69221904D01*
X121752976Y-75283809D02*
X122657738Y-75917142D01*
X121752976Y-76369523D02*
X123652976Y-76369523D01*
X123652976Y-75645714D01*
X123562500Y-75464761D01*
X123472023Y-75374285D01*
X123291071Y-75283809D01*
X123019642Y-75283809D01*
X122838690Y-75374285D01*
X122748214Y-75464761D01*
X122657738Y-75645714D01*
X122657738Y-76369523D01*
X123652976Y-74650476D02*
X121752976Y-73383809D01*
X123652976Y-73383809D02*
X121752976Y-74650476D01*
X121752976Y-72660000D02*
X123652976Y-72660000D01*
X123652976Y-72207619D01*
X123562500Y-71936190D01*
X123381547Y-71755238D01*
X123200595Y-71664761D01*
X122838690Y-71574285D01*
X122567261Y-71574285D01*
X122205357Y-71664761D01*
X122024404Y-71755238D01*
X121843452Y-71936190D01*
X121752976Y-72207619D01*
X121752976Y-72660000D01*
X123019642Y-69312380D02*
X122476785Y-70760000D01*
X121933928Y-69312380D01*
X118572976Y-74107619D02*
X116672976Y-73474285D01*
X118572976Y-72840952D01*
X116853928Y-71121904D02*
X116763452Y-71212380D01*
X116672976Y-71483809D01*
X116672976Y-71664761D01*
X116763452Y-71936190D01*
X116944404Y-72117142D01*
X117125357Y-72207619D01*
X117487261Y-72298095D01*
X117758690Y-72298095D01*
X118120595Y-72207619D01*
X118301547Y-72117142D01*
X118482500Y-71936190D01*
X118572976Y-71664761D01*
X118572976Y-71483809D01*
X118482500Y-71212380D01*
X118392023Y-71121904D01*
X116853928Y-69221904D02*
X116763452Y-69312380D01*
X116672976Y-69583809D01*
X116672976Y-69764761D01*
X116763452Y-70036190D01*
X116944404Y-70217142D01*
X117125357Y-70307619D01*
X117487261Y-70398095D01*
X117758690Y-70398095D01*
X118120595Y-70307619D01*
X118301547Y-70217142D01*
X118482500Y-70036190D01*
X118572976Y-69764761D01*
X118572976Y-69583809D01*
X118482500Y-69312380D01*
X118392023Y-69221904D01*
X76524226Y-74107619D02*
X74624226Y-73474285D01*
X76524226Y-72840952D01*
X74805178Y-71121904D02*
X74714702Y-71212380D01*
X74624226Y-71483809D01*
X74624226Y-71664761D01*
X74714702Y-71936190D01*
X74895654Y-72117142D01*
X75076607Y-72207619D01*
X75438511Y-72298095D01*
X75709940Y-72298095D01*
X76071845Y-72207619D01*
X76252797Y-72117142D01*
X76433750Y-71936190D01*
X76524226Y-71664761D01*
X76524226Y-71483809D01*
X76433750Y-71212380D01*
X76343273Y-71121904D01*
X74805178Y-69221904D02*
X74714702Y-69312380D01*
X74624226Y-69583809D01*
X74624226Y-69764761D01*
X74714702Y-70036190D01*
X74895654Y-70217142D01*
X75076607Y-70307619D01*
X75438511Y-70398095D01*
X75709940Y-70398095D01*
X76071845Y-70307619D01*
X76252797Y-70217142D01*
X76433750Y-70036190D01*
X76524226Y-69764761D01*
X76524226Y-69583809D01*
X76433750Y-69312380D01*
X76343273Y-69221904D01*
X89224226Y-76188571D02*
X89224226Y-75102857D01*
X87324226Y-75645714D02*
X89224226Y-75645714D01*
X89224226Y-74650476D02*
X87324226Y-73383809D01*
X89224226Y-73383809D02*
X87324226Y-74650476D01*
X87324226Y-72660000D02*
X89224226Y-72660000D01*
X89224226Y-72207619D01*
X89133750Y-71936190D01*
X88952797Y-71755238D01*
X88771845Y-71664761D01*
X88409940Y-71574285D01*
X88138511Y-71574285D01*
X87776607Y-71664761D01*
X87595654Y-71755238D01*
X87414702Y-71936190D01*
X87324226Y-72207619D01*
X87324226Y-72660000D01*
X88590892Y-70760000D02*
X88048035Y-69312380D01*
X87505178Y-70760000D01*
X131912976Y-75283809D02*
X132817738Y-75917142D01*
X131912976Y-76369523D02*
X133812976Y-76369523D01*
X133812976Y-75645714D01*
X133722500Y-75464761D01*
X133632023Y-75374285D01*
X133451071Y-75283809D01*
X133179642Y-75283809D01*
X132998690Y-75374285D01*
X132908214Y-75464761D01*
X132817738Y-75645714D01*
X132817738Y-76369523D01*
X133812976Y-74650476D02*
X131912976Y-73383809D01*
X133812976Y-73383809D02*
X131912976Y-74650476D01*
X131912976Y-72660000D02*
X133812976Y-72660000D01*
X133812976Y-72207619D01*
X133722500Y-71936190D01*
X133541547Y-71755238D01*
X133360595Y-71664761D01*
X132998690Y-71574285D01*
X132727261Y-71574285D01*
X132365357Y-71664761D01*
X132184404Y-71755238D01*
X132003452Y-71936190D01*
X131912976Y-72207619D01*
X131912976Y-72660000D01*
X133179642Y-69312380D02*
X132636785Y-70760000D01*
X132093928Y-69312380D01*
X152112976Y-75283809D02*
X153017738Y-75917142D01*
X152112976Y-76369523D02*
X154012976Y-76369523D01*
X154012976Y-75645714D01*
X153922500Y-75464761D01*
X153832023Y-75374285D01*
X153651071Y-75283809D01*
X153379642Y-75283809D01*
X153198690Y-75374285D01*
X153108214Y-75464761D01*
X153017738Y-75645714D01*
X153017738Y-76369523D01*
X154012976Y-74650476D02*
X152112976Y-73383809D01*
X154012976Y-73383809D02*
X152112976Y-74650476D01*
X152112976Y-72660000D02*
X154012976Y-72660000D01*
X154012976Y-72207619D01*
X153922500Y-71936190D01*
X153741547Y-71755238D01*
X153560595Y-71664761D01*
X153198690Y-71574285D01*
X152927261Y-71574285D01*
X152565357Y-71664761D01*
X152384404Y-71755238D01*
X152203452Y-71936190D01*
X152112976Y-72207619D01*
X152112976Y-72660000D01*
X153379642Y-69312380D02*
X152836785Y-70760000D01*
X152293928Y-69312380D01*
D10*
X124565714Y-97378571D02*
X124565714Y-98450000D01*
X124637142Y-98664285D01*
X124780000Y-98807142D01*
X124994285Y-98878571D01*
X125137142Y-98878571D01*
X123208571Y-98878571D02*
X123208571Y-98092857D01*
X123280000Y-97950000D01*
X123422857Y-97878571D01*
X123708571Y-97878571D01*
X123851428Y-97950000D01*
X123208571Y-98807142D02*
X123351428Y-98878571D01*
X123708571Y-98878571D01*
X123851428Y-98807142D01*
X123922857Y-98664285D01*
X123922857Y-98521428D01*
X123851428Y-98378571D01*
X123708571Y-98307142D01*
X123351428Y-98307142D01*
X123208571Y-98235714D01*
X122494285Y-97878571D02*
X122494285Y-98878571D01*
X122494285Y-98021428D02*
X122422857Y-97950000D01*
X122280000Y-97878571D01*
X122065714Y-97878571D01*
X121922857Y-97950000D01*
X121851428Y-98092857D01*
X121851428Y-98878571D01*
X121208571Y-97521428D02*
X121137142Y-97450000D01*
X120994285Y-97378571D01*
X120637142Y-97378571D01*
X120494285Y-97450000D01*
X120422857Y-97521428D01*
X120351428Y-97664285D01*
X120351428Y-97807142D01*
X120422857Y-98021428D01*
X121280000Y-98878571D01*
X120351428Y-98878571D01*
X119422857Y-97378571D02*
X119280000Y-97378571D01*
X119137142Y-97450000D01*
X119065714Y-97521428D01*
X118994285Y-97664285D01*
X118922857Y-97950000D01*
X118922857Y-98307142D01*
X118994285Y-98592857D01*
X119065714Y-98735714D01*
X119137142Y-98807142D01*
X119280000Y-98878571D01*
X119422857Y-98878571D01*
X119565714Y-98807142D01*
X119637142Y-98735714D01*
X119708571Y-98592857D01*
X119780000Y-98307142D01*
X119780000Y-97950000D01*
X119708571Y-97664285D01*
X119637142Y-97521428D01*
X119565714Y-97450000D01*
X119422857Y-97378571D01*
X118351428Y-97521428D02*
X118280000Y-97450000D01*
X118137142Y-97378571D01*
X117780000Y-97378571D01*
X117637142Y-97450000D01*
X117565714Y-97521428D01*
X117494285Y-97664285D01*
X117494285Y-97807142D01*
X117565714Y-98021428D01*
X118422857Y-98878571D01*
X117494285Y-98878571D01*
X116994285Y-97378571D02*
X116065714Y-97378571D01*
X116565714Y-97950000D01*
X116351428Y-97950000D01*
X116208571Y-98021428D01*
X116137142Y-98092857D01*
X116065714Y-98235714D01*
X116065714Y-98592857D01*
X116137142Y-98735714D01*
X116208571Y-98807142D01*
X116351428Y-98878571D01*
X116780000Y-98878571D01*
X116922857Y-98807142D01*
X116994285Y-98735714D01*
X113351428Y-98164285D02*
X113422857Y-98092857D01*
X113565714Y-98021428D01*
X113708571Y-98021428D01*
X113851428Y-98092857D01*
X113922857Y-98164285D01*
X113994285Y-98307142D01*
X113994285Y-98450000D01*
X113922857Y-98592857D01*
X113851428Y-98664285D01*
X113708571Y-98735714D01*
X113565714Y-98735714D01*
X113422857Y-98664285D01*
X113351428Y-98592857D01*
X113351428Y-98021428D02*
X113351428Y-98592857D01*
X113280000Y-98664285D01*
X113208571Y-98664285D01*
X113065714Y-98592857D01*
X112994285Y-98450000D01*
X112994285Y-98092857D01*
X113137142Y-97878571D01*
X113351428Y-97735714D01*
X113637142Y-97664285D01*
X113922857Y-97735714D01*
X114137142Y-97878571D01*
X114280000Y-98092857D01*
X114351428Y-98378571D01*
X114280000Y-98664285D01*
X114137142Y-98878571D01*
X113922857Y-99021428D01*
X113637142Y-99092857D01*
X113351428Y-99021428D01*
X113137142Y-98878571D01*
X112565714Y-97378571D02*
X111708571Y-97378571D01*
X112137142Y-98878571D02*
X112137142Y-97378571D01*
X110994285Y-98878571D02*
X111137142Y-98807142D01*
X111208571Y-98735714D01*
X111280000Y-98592857D01*
X111280000Y-98164285D01*
X111208571Y-98021428D01*
X111137142Y-97950000D01*
X110994285Y-97878571D01*
X110780000Y-97878571D01*
X110637142Y-97950000D01*
X110565714Y-98021428D01*
X110494285Y-98164285D01*
X110494285Y-98592857D01*
X110565714Y-98735714D01*
X110637142Y-98807142D01*
X110780000Y-98878571D01*
X110994285Y-98878571D01*
X109851428Y-98878571D02*
X109851428Y-97878571D01*
X109851428Y-98021428D02*
X109780000Y-97950000D01*
X109637142Y-97878571D01*
X109422857Y-97878571D01*
X109280000Y-97950000D01*
X109208571Y-98092857D01*
X109208571Y-98878571D01*
X109208571Y-98092857D02*
X109137142Y-97950000D01*
X108994285Y-97878571D01*
X108780000Y-97878571D01*
X108637142Y-97950000D01*
X108565714Y-98092857D01*
X108565714Y-98878571D01*
X107851428Y-98878571D02*
X107851428Y-97378571D01*
X106994285Y-98878571D02*
X107637142Y-98021428D01*
X106994285Y-97378571D02*
X107851428Y-98235714D01*
X105780000Y-98807142D02*
X105922857Y-98878571D01*
X106208571Y-98878571D01*
X106351428Y-98807142D01*
X106422857Y-98664285D01*
X106422857Y-98092857D01*
X106351428Y-97950000D01*
X106208571Y-97878571D01*
X105922857Y-97878571D01*
X105780000Y-97950000D01*
X105708571Y-98092857D01*
X105708571Y-98235714D01*
X106422857Y-98378571D01*
X104422857Y-98878571D02*
X104422857Y-97378571D01*
X104422857Y-98807142D02*
X104565714Y-98878571D01*
X104851428Y-98878571D01*
X104994285Y-98807142D01*
X105065714Y-98735714D01*
X105137142Y-98592857D01*
X105137142Y-98164285D01*
X105065714Y-98021428D01*
X104994285Y-97950000D01*
X104851428Y-97878571D01*
X104565714Y-97878571D01*
X104422857Y-97950000D01*
X103065714Y-98878571D02*
X103065714Y-97378571D01*
X103065714Y-98807142D02*
X103208571Y-98878571D01*
X103494285Y-98878571D01*
X103637142Y-98807142D01*
X103708571Y-98735714D01*
X103780000Y-98592857D01*
X103780000Y-98164285D01*
X103708571Y-98021428D01*
X103637142Y-97950000D01*
X103494285Y-97878571D01*
X103208571Y-97878571D01*
X103065714Y-97950000D01*
X102351428Y-98878571D02*
X102351428Y-97878571D01*
X102351428Y-97378571D02*
X102422857Y-97450000D01*
X102351428Y-97521428D01*
X102280000Y-97450000D01*
X102351428Y-97378571D01*
X102351428Y-97521428D01*
X101065714Y-98807142D02*
X101208571Y-98878571D01*
X101494285Y-98878571D01*
X101637142Y-98807142D01*
X101708571Y-98664285D01*
X101708571Y-98092857D01*
X101637142Y-97950000D01*
X101494285Y-97878571D01*
X101208571Y-97878571D01*
X101065714Y-97950000D01*
X100994285Y-98092857D01*
X100994285Y-98235714D01*
X101708571Y-98378571D01*
D11*
X109524226Y-76188571D02*
X109524226Y-75102857D01*
X107624226Y-75645714D02*
X109524226Y-75645714D01*
X109524226Y-74650476D02*
X107624226Y-73383809D01*
X109524226Y-73383809D02*
X107624226Y-74650476D01*
X107624226Y-72660000D02*
X109524226Y-72660000D01*
X109524226Y-72207619D01*
X109433750Y-71936190D01*
X109252797Y-71755238D01*
X109071845Y-71664761D01*
X108709940Y-71574285D01*
X108438511Y-71574285D01*
X108076607Y-71664761D01*
X107895654Y-71755238D01*
X107714702Y-71936190D01*
X107624226Y-72207619D01*
X107624226Y-72660000D01*
X108890892Y-70760000D02*
X108348035Y-69312380D01*
X107805178Y-70760000D01*
X100004226Y-75283809D02*
X100908988Y-75917142D01*
X100004226Y-76369523D02*
X101904226Y-76369523D01*
X101904226Y-75645714D01*
X101813750Y-75464761D01*
X101723273Y-75374285D01*
X101542321Y-75283809D01*
X101270892Y-75283809D01*
X101089940Y-75374285D01*
X100999464Y-75464761D01*
X100908988Y-75645714D01*
X100908988Y-76369523D01*
X101904226Y-74650476D02*
X100004226Y-73383809D01*
X101904226Y-73383809D02*
X100004226Y-74650476D01*
X100004226Y-72660000D02*
X101904226Y-72660000D01*
X101904226Y-72207619D01*
X101813750Y-71936190D01*
X101632797Y-71755238D01*
X101451845Y-71664761D01*
X101089940Y-71574285D01*
X100818511Y-71574285D01*
X100456607Y-71664761D01*
X100275654Y-71755238D01*
X100094702Y-71936190D01*
X100004226Y-72207619D01*
X100004226Y-72660000D01*
X101270892Y-69312380D02*
X100728035Y-70760000D01*
X100185178Y-69312380D01*
X110164226Y-75283809D02*
X111068988Y-75917142D01*
X110164226Y-76369523D02*
X112064226Y-76369523D01*
X112064226Y-75645714D01*
X111973750Y-75464761D01*
X111883273Y-75374285D01*
X111702321Y-75283809D01*
X111430892Y-75283809D01*
X111249940Y-75374285D01*
X111159464Y-75464761D01*
X111068988Y-75645714D01*
X111068988Y-76369523D01*
X112064226Y-74650476D02*
X110164226Y-73383809D01*
X112064226Y-73383809D02*
X110164226Y-74650476D01*
X110164226Y-72660000D02*
X112064226Y-72660000D01*
X112064226Y-72207619D01*
X111973750Y-71936190D01*
X111792797Y-71755238D01*
X111611845Y-71664761D01*
X111249940Y-71574285D01*
X110978511Y-71574285D01*
X110616607Y-71664761D01*
X110435654Y-71755238D01*
X110254702Y-71936190D01*
X110164226Y-72207619D01*
X110164226Y-72660000D01*
X111430892Y-69312380D02*
X110888035Y-70760000D01*
X110345178Y-69312380D01*
X115942500Y-73202857D02*
X116032976Y-73383809D01*
X116032976Y-73655238D01*
X115942500Y-73926666D01*
X115761547Y-74107619D01*
X115580595Y-74198095D01*
X115218690Y-74288571D01*
X114947261Y-74288571D01*
X114585357Y-74198095D01*
X114404404Y-74107619D01*
X114223452Y-73926666D01*
X114132976Y-73655238D01*
X114132976Y-73474285D01*
X114223452Y-73202857D01*
X114313928Y-73112380D01*
X114947261Y-73112380D01*
X114947261Y-73474285D01*
X114132976Y-72298095D02*
X116032976Y-72298095D01*
X114132976Y-71212380D01*
X116032976Y-71212380D01*
X114132976Y-70307619D02*
X116032976Y-70307619D01*
X116032976Y-69855238D01*
X115942500Y-69583809D01*
X115761547Y-69402857D01*
X115580595Y-69312380D01*
X115218690Y-69221904D01*
X114947261Y-69221904D01*
X114585357Y-69312380D01*
X114404404Y-69402857D01*
X114223452Y-69583809D01*
X114132976Y-69855238D01*
X114132976Y-70307619D01*
X121112976Y-76188571D02*
X121112976Y-75102857D01*
X119212976Y-75645714D02*
X121112976Y-75645714D01*
X121112976Y-74650476D02*
X119212976Y-73383809D01*
X121112976Y-73383809D02*
X119212976Y-74650476D01*
X119212976Y-72660000D02*
X121112976Y-72660000D01*
X121112976Y-72207619D01*
X121022500Y-71936190D01*
X120841547Y-71755238D01*
X120660595Y-71664761D01*
X120298690Y-71574285D01*
X120027261Y-71574285D01*
X119665357Y-71664761D01*
X119484404Y-71755238D01*
X119303452Y-71936190D01*
X119212976Y-72207619D01*
X119212976Y-72660000D01*
X120479642Y-70760000D02*
X119936785Y-69312380D01*
X119393928Y-70760000D01*
D12*
X119846666Y-80961904D02*
X116751428Y-80961904D01*
X118418095Y-82866666D01*
X117703809Y-82866666D01*
X117227619Y-83104761D01*
X116989523Y-83342857D01*
X116751428Y-83819047D01*
X116751428Y-85009523D01*
X116989523Y-85485714D01*
X117227619Y-85723809D01*
X117703809Y-85961904D01*
X119132380Y-85961904D01*
X119608571Y-85723809D01*
X119846666Y-85485714D01*
D11*
X99364226Y-76188571D02*
X99364226Y-75102857D01*
X97464226Y-75645714D02*
X99364226Y-75645714D01*
X99364226Y-74650476D02*
X97464226Y-73383809D01*
X99364226Y-73383809D02*
X97464226Y-74650476D01*
X97464226Y-72660000D02*
X99364226Y-72660000D01*
X99364226Y-72207619D01*
X99273750Y-71936190D01*
X99092797Y-71755238D01*
X98911845Y-71664761D01*
X98549940Y-71574285D01*
X98278511Y-71574285D01*
X97916607Y-71664761D01*
X97735654Y-71755238D01*
X97554702Y-71936190D01*
X97464226Y-72207619D01*
X97464226Y-72660000D01*
X98730892Y-70760000D02*
X98188035Y-69312380D01*
X97645178Y-70760000D01*
X89864226Y-75283809D02*
X90768988Y-75917142D01*
X89864226Y-76369523D02*
X91764226Y-76369523D01*
X91764226Y-75645714D01*
X91673750Y-75464761D01*
X91583273Y-75374285D01*
X91402321Y-75283809D01*
X91130892Y-75283809D01*
X90949940Y-75374285D01*
X90859464Y-75464761D01*
X90768988Y-75645714D01*
X90768988Y-76369523D01*
X91764226Y-74650476D02*
X89864226Y-73383809D01*
X91764226Y-73383809D02*
X89864226Y-74650476D01*
X89864226Y-72660000D02*
X91764226Y-72660000D01*
X91764226Y-72207619D01*
X91673750Y-71936190D01*
X91492797Y-71755238D01*
X91311845Y-71664761D01*
X90949940Y-71574285D01*
X90678511Y-71574285D01*
X90316607Y-71664761D01*
X90135654Y-71755238D01*
X89954702Y-71936190D01*
X89864226Y-72207619D01*
X89864226Y-72660000D01*
X91130892Y-69312380D02*
X90588035Y-70760000D01*
X90045178Y-69312380D01*
X94193750Y-73202857D02*
X94284226Y-73383809D01*
X94284226Y-73655238D01*
X94193750Y-73926666D01*
X94012797Y-74107619D01*
X93831845Y-74198095D01*
X93469940Y-74288571D01*
X93198511Y-74288571D01*
X92836607Y-74198095D01*
X92655654Y-74107619D01*
X92474702Y-73926666D01*
X92384226Y-73655238D01*
X92384226Y-73474285D01*
X92474702Y-73202857D01*
X92565178Y-73112380D01*
X93198511Y-73112380D01*
X93198511Y-73474285D01*
X92384226Y-72298095D02*
X94284226Y-72298095D01*
X92384226Y-71212380D01*
X94284226Y-71212380D01*
X92384226Y-70307619D02*
X94284226Y-70307619D01*
X94284226Y-69855238D01*
X94193750Y-69583809D01*
X94012797Y-69402857D01*
X93831845Y-69312380D01*
X93469940Y-69221904D01*
X93198511Y-69221904D01*
X92836607Y-69312380D01*
X92655654Y-69402857D01*
X92474702Y-69583809D01*
X92384226Y-69855238D01*
X92384226Y-70307619D01*
D12*
X129768571Y-81438095D02*
X129530476Y-81200000D01*
X129054285Y-80961904D01*
X127863809Y-80961904D01*
X127387619Y-81200000D01*
X127149523Y-81438095D01*
X126911428Y-81914285D01*
X126911428Y-82390476D01*
X127149523Y-83104761D01*
X130006666Y-85961904D01*
X126911428Y-85961904D01*
D11*
X151472976Y-76188571D02*
X151472976Y-75102857D01*
X149572976Y-75645714D02*
X151472976Y-75645714D01*
X151472976Y-74650476D02*
X149572976Y-73383809D01*
X151472976Y-73383809D02*
X149572976Y-74650476D01*
X149572976Y-72660000D02*
X151472976Y-72660000D01*
X151472976Y-72207619D01*
X151382500Y-71936190D01*
X151201547Y-71755238D01*
X151020595Y-71664761D01*
X150658690Y-71574285D01*
X150387261Y-71574285D01*
X150025357Y-71664761D01*
X149844404Y-71755238D01*
X149663452Y-71936190D01*
X149572976Y-72207619D01*
X149572976Y-72660000D01*
X150839642Y-70760000D02*
X150296785Y-69312380D01*
X149753928Y-70760000D01*
D12*
X86747619Y-80961904D02*
X87700000Y-80961904D01*
X88176190Y-81200000D01*
X88414285Y-81438095D01*
X88890476Y-82152380D01*
X89128571Y-83104761D01*
X89128571Y-85009523D01*
X88890476Y-85485714D01*
X88652380Y-85723809D01*
X88176190Y-85961904D01*
X87223809Y-85961904D01*
X86747619Y-85723809D01*
X86509523Y-85485714D01*
X86271428Y-85009523D01*
X86271428Y-83819047D01*
X86509523Y-83342857D01*
X86747619Y-83104761D01*
X87223809Y-82866666D01*
X88176190Y-82866666D01*
X88652380Y-83104761D01*
X88890476Y-83342857D01*
X89128571Y-83819047D01*
D11*
X104353750Y-73202857D02*
X104444226Y-73383809D01*
X104444226Y-73655238D01*
X104353750Y-73926666D01*
X104172797Y-74107619D01*
X103991845Y-74198095D01*
X103629940Y-74288571D01*
X103358511Y-74288571D01*
X102996607Y-74198095D01*
X102815654Y-74107619D01*
X102634702Y-73926666D01*
X102544226Y-73655238D01*
X102544226Y-73474285D01*
X102634702Y-73202857D01*
X102725178Y-73112380D01*
X103358511Y-73112380D01*
X103358511Y-73474285D01*
X102544226Y-72298095D02*
X104444226Y-72298095D01*
X102544226Y-71212380D01*
X104444226Y-71212380D01*
X102544226Y-70307619D02*
X104444226Y-70307619D01*
X104444226Y-69855238D01*
X104353750Y-69583809D01*
X104172797Y-69402857D01*
X103991845Y-69312380D01*
X103629940Y-69221904D01*
X103358511Y-69221904D01*
X102996607Y-69312380D01*
X102815654Y-69402857D01*
X102634702Y-69583809D01*
X102544226Y-69855238D01*
X102544226Y-70307619D01*
X73893750Y-73202857D02*
X73984226Y-73383809D01*
X73984226Y-73655238D01*
X73893750Y-73926666D01*
X73712797Y-74107619D01*
X73531845Y-74198095D01*
X73169940Y-74288571D01*
X72898511Y-74288571D01*
X72536607Y-74198095D01*
X72355654Y-74107619D01*
X72174702Y-73926666D01*
X72084226Y-73655238D01*
X72084226Y-73474285D01*
X72174702Y-73202857D01*
X72265178Y-73112380D01*
X72898511Y-73112380D01*
X72898511Y-73474285D01*
X72084226Y-72298095D02*
X73984226Y-72298095D01*
X72084226Y-71212380D01*
X73984226Y-71212380D01*
X72084226Y-70307619D02*
X73984226Y-70307619D01*
X73984226Y-69855238D01*
X73893750Y-69583809D01*
X73712797Y-69402857D01*
X73531845Y-69312380D01*
X73169940Y-69221904D01*
X72898511Y-69221904D01*
X72536607Y-69312380D01*
X72355654Y-69402857D01*
X72174702Y-69583809D01*
X72084226Y-69855238D01*
X72084226Y-70307619D01*
D12*
X96669523Y-80961904D02*
X99050476Y-80961904D01*
X99288571Y-83342857D01*
X99050476Y-83104761D01*
X98574285Y-82866666D01*
X97383809Y-82866666D01*
X96907619Y-83104761D01*
X96669523Y-83342857D01*
X96431428Y-83819047D01*
X96431428Y-85009523D01*
X96669523Y-85485714D01*
X96907619Y-85723809D01*
X97383809Y-85961904D01*
X98574285Y-85961904D01*
X99050476Y-85723809D01*
X99288571Y-85485714D01*
D11*
X126102500Y-73202857D02*
X126192976Y-73383809D01*
X126192976Y-73655238D01*
X126102500Y-73926666D01*
X125921547Y-74107619D01*
X125740595Y-74198095D01*
X125378690Y-74288571D01*
X125107261Y-74288571D01*
X124745357Y-74198095D01*
X124564404Y-74107619D01*
X124383452Y-73926666D01*
X124292976Y-73655238D01*
X124292976Y-73474285D01*
X124383452Y-73202857D01*
X124473928Y-73112380D01*
X125107261Y-73112380D01*
X125107261Y-73474285D01*
X124292976Y-72298095D02*
X126192976Y-72298095D01*
X124292976Y-71212380D01*
X126192976Y-71212380D01*
X124292976Y-70307619D02*
X126192976Y-70307619D01*
X126192976Y-69855238D01*
X126102500Y-69583809D01*
X125921547Y-69402857D01*
X125740595Y-69312380D01*
X125378690Y-69221904D01*
X125107261Y-69221904D01*
X124745357Y-69312380D01*
X124564404Y-69402857D01*
X124383452Y-69583809D01*
X124292976Y-69855238D01*
X124292976Y-70307619D01*
X136262500Y-73202857D02*
X136352976Y-73383809D01*
X136352976Y-73655238D01*
X136262500Y-73926666D01*
X136081547Y-74107619D01*
X135900595Y-74198095D01*
X135538690Y-74288571D01*
X135267261Y-74288571D01*
X134905357Y-74198095D01*
X134724404Y-74107619D01*
X134543452Y-73926666D01*
X134452976Y-73655238D01*
X134452976Y-73474285D01*
X134543452Y-73202857D01*
X134633928Y-73112380D01*
X135267261Y-73112380D01*
X135267261Y-73474285D01*
X134452976Y-72298095D02*
X136352976Y-72298095D01*
X134452976Y-71212380D01*
X136352976Y-71212380D01*
X134452976Y-70307619D02*
X136352976Y-70307619D01*
X136352976Y-69855238D01*
X136262500Y-69583809D01*
X136081547Y-69402857D01*
X135900595Y-69312380D01*
X135538690Y-69221904D01*
X135267261Y-69221904D01*
X134905357Y-69312380D01*
X134724404Y-69402857D01*
X134543452Y-69583809D01*
X134452976Y-69855238D01*
X134452976Y-70307619D01*
X79064226Y-76188571D02*
X79064226Y-75102857D01*
X77164226Y-75645714D02*
X79064226Y-75645714D01*
X79064226Y-74650476D02*
X77164226Y-73383809D01*
X79064226Y-73383809D02*
X77164226Y-74650476D01*
X77164226Y-72660000D02*
X79064226Y-72660000D01*
X79064226Y-72207619D01*
X78973750Y-71936190D01*
X78792797Y-71755238D01*
X78611845Y-71664761D01*
X78249940Y-71574285D01*
X77978511Y-71574285D01*
X77616607Y-71664761D01*
X77435654Y-71755238D01*
X77254702Y-71936190D01*
X77164226Y-72207619D01*
X77164226Y-72660000D01*
X78430892Y-70760000D02*
X77888035Y-69312380D01*
X77345178Y-70760000D01*
G04 #@! TO.C,G\u002A\u002A\u002A*
G36*
X112527688Y-90380306D02*
G01*
X113039397Y-90431705D01*
X113484926Y-90567652D01*
X113913932Y-90802286D01*
X114194791Y-90987701D01*
X114476886Y-90825348D01*
X114539598Y-90791514D01*
X114750344Y-90710495D01*
X115017833Y-90658849D01*
X115384435Y-90627333D01*
X116009889Y-90591671D01*
X116009889Y-96571130D01*
X114236146Y-96571130D01*
X114236146Y-92583756D01*
X114001273Y-92348883D01*
X113827506Y-92206389D01*
X113489855Y-92044255D01*
X113124315Y-91979138D01*
X112769510Y-92015809D01*
X112464066Y-92159038D01*
X112451627Y-92168281D01*
X112344446Y-92255528D01*
X112259440Y-92350394D01*
X112193798Y-92469665D01*
X112144714Y-92630126D01*
X112109379Y-92848562D01*
X112084985Y-93141757D01*
X112068723Y-93526497D01*
X112057786Y-94019567D01*
X112049365Y-94637750D01*
X112026551Y-96571130D01*
X110183432Y-96571130D01*
X110227486Y-91782024D01*
X110434041Y-91409231D01*
X110530479Y-91251581D01*
X110870365Y-90869301D01*
X111300491Y-90596046D01*
X111819722Y-90432400D01*
X112426928Y-90378948D01*
X112527688Y-90380306D01*
G37*
G36*
X119344525Y-96571130D02*
G01*
X117428883Y-96571130D01*
X117428883Y-90753253D01*
X119344525Y-90753253D01*
X119344525Y-96571130D01*
G37*
G36*
X108282842Y-87723920D02*
G01*
X108572687Y-87900789D01*
X108781638Y-88149330D01*
X108904164Y-88443536D01*
X108934733Y-88757396D01*
X108867813Y-89064903D01*
X108697871Y-89340048D01*
X108419375Y-89556821D01*
X108070303Y-89676559D01*
X107687804Y-89676833D01*
X107322743Y-89551562D01*
X107005157Y-89306070D01*
X107005068Y-89305976D01*
X106861344Y-89059618D01*
X106797878Y-88747544D01*
X106818308Y-88423449D01*
X106926267Y-88141024D01*
X107065667Y-87976308D01*
X107349205Y-87784406D01*
X107682663Y-87669230D01*
X108014611Y-87653803D01*
X108282842Y-87723920D01*
G37*
G36*
X127191106Y-90356960D02*
G01*
X127741445Y-90501155D01*
X128275721Y-90783028D01*
X128437094Y-90888367D01*
X128576001Y-90960820D01*
X128660546Y-90965702D01*
X128724607Y-90912807D01*
X128744188Y-90890659D01*
X128983069Y-90735457D01*
X129349214Y-90642371D01*
X129842805Y-90611353D01*
X130412682Y-90611353D01*
X130412682Y-96646198D01*
X129472598Y-96626402D01*
X128532514Y-96606605D01*
X128532514Y-94690962D01*
X128532286Y-94158042D01*
X128530654Y-93702289D01*
X128526208Y-93353663D01*
X128517540Y-93094104D01*
X128503239Y-92905553D01*
X128481897Y-92769951D01*
X128452102Y-92669239D01*
X128412447Y-92585357D01*
X128361520Y-92500245D01*
X128238510Y-92338691D01*
X127970539Y-92128825D01*
X127662017Y-92013986D01*
X127342182Y-91994117D01*
X127040274Y-92069160D01*
X126785531Y-92239055D01*
X126607192Y-92503745D01*
X126566190Y-92656776D01*
X126534627Y-92925458D01*
X126516344Y-93311184D01*
X126510447Y-93826148D01*
X126510381Y-93885972D01*
X126506053Y-94369489D01*
X126495953Y-94885305D01*
X126481462Y-95375357D01*
X126463960Y-95781581D01*
X126417472Y-96646155D01*
X124630280Y-96606605D01*
X124594805Y-94655487D01*
X124591407Y-94471969D01*
X124578634Y-93883104D01*
X124562911Y-93415215D01*
X124540964Y-93051863D01*
X124509521Y-92776607D01*
X124465310Y-92573009D01*
X124405058Y-92424628D01*
X124325493Y-92315024D01*
X124223341Y-92227758D01*
X124095331Y-92146389D01*
X123920797Y-92077186D01*
X123617251Y-92035420D01*
X123298989Y-92055510D01*
X123031589Y-92137973D01*
X122999132Y-92155052D01*
X122887970Y-92223199D01*
X122800109Y-92305395D01*
X122732819Y-92417620D01*
X122683371Y-92575855D01*
X122649035Y-92796080D01*
X122627081Y-93094276D01*
X122614779Y-93486422D01*
X122609399Y-93988500D01*
X122608213Y-94616489D01*
X122608213Y-96571130D01*
X120692570Y-96571130D01*
X120694761Y-94708700D01*
X120695064Y-94547624D01*
X120700090Y-93844134D01*
X120712241Y-93262389D01*
X120733197Y-92785747D01*
X120764634Y-92397565D01*
X120808232Y-92081198D01*
X120865669Y-91820005D01*
X120938624Y-91597340D01*
X121028774Y-91396562D01*
X121033256Y-91387810D01*
X121311354Y-90998229D01*
X121691814Y-90690739D01*
X122155720Y-90474223D01*
X122684153Y-90357564D01*
X123258197Y-90349646D01*
X123507023Y-90381679D01*
X123884961Y-90485649D01*
X124264754Y-90668884D01*
X124687765Y-90948716D01*
X125029050Y-91197311D01*
X125219888Y-91022171D01*
X125580473Y-90739741D01*
X126096945Y-90477323D01*
X126638381Y-90349373D01*
X127191106Y-90356960D01*
G37*
G36*
X102403164Y-90373009D02*
G01*
X102948083Y-90529101D01*
X103472757Y-90814222D01*
X103655541Y-90936211D01*
X103764371Y-90985873D01*
X103837585Y-90968750D01*
X103915834Y-90891978D01*
X103935689Y-90871241D01*
X104187308Y-90718067D01*
X104559127Y-90635537D01*
X105048157Y-90624358D01*
X105544805Y-90646828D01*
X105563353Y-93555698D01*
X105564904Y-93821514D01*
X105567353Y-94436690D01*
X105568041Y-95002633D01*
X105567046Y-95503898D01*
X105564449Y-95925043D01*
X105560329Y-96250625D01*
X105554767Y-96465199D01*
X105547842Y-96553324D01*
X105542856Y-96562071D01*
X105465417Y-96599119D01*
X105290477Y-96623895D01*
X105003315Y-96637761D01*
X104589210Y-96642080D01*
X103664637Y-96642080D01*
X103664637Y-94701455D01*
X103664414Y-94212501D01*
X103662832Y-93741482D01*
X103658594Y-93380058D01*
X103650409Y-93110609D01*
X103636982Y-92915514D01*
X103617021Y-92777153D01*
X103589233Y-92677907D01*
X103552324Y-92600154D01*
X103505000Y-92526274D01*
X103458650Y-92460528D01*
X103211686Y-92194217D01*
X102936114Y-92047808D01*
X102600391Y-92003059D01*
X102292698Y-92035406D01*
X102050251Y-92147246D01*
X102017231Y-92171962D01*
X101910579Y-92260673D01*
X101826189Y-92357735D01*
X101761215Y-92479840D01*
X101712813Y-92643682D01*
X101678139Y-92865955D01*
X101654348Y-93163352D01*
X101638595Y-93552567D01*
X101628036Y-94050294D01*
X101619827Y-94673225D01*
X101597083Y-96642080D01*
X99762403Y-96642080D01*
X99762403Y-94759633D01*
X99762394Y-94689773D01*
X99760851Y-94086039D01*
X99754597Y-93605032D01*
X99740694Y-93229376D01*
X99716206Y-92941696D01*
X99678194Y-92724615D01*
X99623721Y-92560760D01*
X99549849Y-92432753D01*
X99453641Y-92323220D01*
X99332159Y-92214785D01*
X99209285Y-92119390D01*
X99075059Y-92055076D01*
X98906681Y-92034387D01*
X98650782Y-92043940D01*
X98414833Y-92072462D01*
X98111540Y-92179430D01*
X97904828Y-92372093D01*
X97776098Y-92663627D01*
X97760451Y-92765589D01*
X97742699Y-93002830D01*
X97727543Y-93341651D01*
X97715744Y-93759709D01*
X97708061Y-94234665D01*
X97705256Y-94744175D01*
X97704861Y-96571130D01*
X95848283Y-96571130D01*
X95877013Y-94283001D01*
X95879949Y-94054796D01*
X95890226Y-93396228D01*
X95903876Y-92858420D01*
X95923920Y-92425187D01*
X95953378Y-92080342D01*
X95995271Y-91807701D01*
X96052620Y-91591079D01*
X96128444Y-91414291D01*
X96225766Y-91261151D01*
X96347605Y-91115476D01*
X96496981Y-90961079D01*
X96829547Y-90687267D01*
X97207165Y-90501211D01*
X97654830Y-90396746D01*
X98201509Y-90363719D01*
X98641021Y-90391155D01*
X99053007Y-90491260D01*
X99452701Y-90680003D01*
X99883847Y-90973235D01*
X100182666Y-91200373D01*
X100478235Y-90933344D01*
X100827722Y-90671719D01*
X101324906Y-90445038D01*
X101856080Y-90345228D01*
X102403164Y-90373009D01*
G37*
G36*
X118896385Y-87769347D02*
G01*
X119037375Y-87849530D01*
X119266662Y-88083302D01*
X119401336Y-88378521D01*
X119440131Y-88703993D01*
X119381783Y-89028523D01*
X119225026Y-89320917D01*
X118968595Y-89549980D01*
X118771631Y-89638612D01*
X118422156Y-89688417D01*
X118063941Y-89634728D01*
X117739472Y-89486139D01*
X117491239Y-89251239D01*
X117342775Y-88943644D01*
X117309295Y-88602510D01*
X117394691Y-88273945D01*
X117590947Y-87987661D01*
X117890043Y-87773371D01*
X118227225Y-87655606D01*
X118546377Y-87654126D01*
X118896385Y-87769347D01*
G37*
G36*
X107087961Y-90659785D02*
G01*
X107146477Y-90673784D01*
X107346475Y-90695900D01*
X107624252Y-90710542D01*
X107937481Y-90717108D01*
X108243832Y-90714992D01*
X108500979Y-90703592D01*
X108666593Y-90682303D01*
X108668116Y-90681924D01*
X108702618Y-90676746D01*
X108731049Y-90688261D01*
X108754097Y-90728991D01*
X108772447Y-90811455D01*
X108786786Y-90948174D01*
X108797799Y-91151668D01*
X108806173Y-91434458D01*
X108812595Y-91809064D01*
X108817751Y-92288005D01*
X108822326Y-92883804D01*
X108827008Y-93608979D01*
X108845524Y-96571130D01*
X106928324Y-96571130D01*
X106928324Y-90601791D01*
X107087961Y-90659785D01*
G37*
G04 #@! TD*
M02*
