G04 #@! TF.GenerationSoftware,KiCad,Pcbnew,9.0.1-unknown-1000.20250414git3fadd20.fc41*
G04 #@! TF.CreationDate,2025-04-18T17:53:13-07:00*
G04 #@! TF.ProjectId,usb-pd-plank,7573622d-7064-42d7-906c-616e6b2e6b69,rev?*
G04 #@! TF.SameCoordinates,Original*
G04 #@! TF.FileFunction,Paste,Top*
G04 #@! TF.FilePolarity,Positive*
%FSLAX46Y46*%
G04 Gerber Fmt 4.6, Leading zero omitted, Abs format (unit mm)*
G04 Created by KiCad (PCBNEW 9.0.1-unknown-1000.20250414git3fadd20.fc41) date 2025-04-18 17:53:13*
%MOMM*%
%LPD*%
G01*
G04 APERTURE LIST*
G04 Aperture macros list*
%AMRoundRect*
0 Rectangle with rounded corners*
0 $1 Rounding radius*
0 $2 $3 $4 $5 $6 $7 $8 $9 X,Y pos of 4 corners*
0 Add a 4 corners polygon primitive as box body*
4,1,4,$2,$3,$4,$5,$6,$7,$8,$9,$2,$3,0*
0 Add four circle primitives for the rounded corners*
1,1,$1+$1,$2,$3*
1,1,$1+$1,$4,$5*
1,1,$1+$1,$6,$7*
1,1,$1+$1,$8,$9*
0 Add four rect primitives between the rounded corners*
20,1,$1+$1,$2,$3,$4,$5,0*
20,1,$1+$1,$4,$5,$6,$7,0*
20,1,$1+$1,$6,$7,$8,$9,0*
20,1,$1+$1,$8,$9,$2,$3,0*%
G04 Aperture macros list end*
%ADD10RoundRect,0.135000X0.185000X-0.135000X0.185000X0.135000X-0.185000X0.135000X-0.185000X-0.135000X0*%
%ADD11RoundRect,0.150000X-0.725000X-0.150000X0.725000X-0.150000X0.725000X0.150000X-0.725000X0.150000X0*%
%ADD12R,0.300000X1.750000*%
%ADD13O,0.900000X2.100000*%
%ADD14O,1.000000X2.100000*%
%ADD15RoundRect,0.135000X-0.135000X-0.185000X0.135000X-0.185000X0.135000X0.185000X-0.135000X0.185000X0*%
%ADD16RoundRect,0.250000X-0.650000X0.325000X-0.650000X-0.325000X0.650000X-0.325000X0.650000X0.325000X0*%
%ADD17RoundRect,0.150000X0.587500X0.150000X-0.587500X0.150000X-0.587500X-0.150000X0.587500X-0.150000X0*%
%ADD18RoundRect,0.112500X-0.112500X0.187500X-0.112500X-0.187500X0.112500X-0.187500X0.112500X0.187500X0*%
%ADD19RoundRect,0.150000X0.725000X0.150000X-0.725000X0.150000X-0.725000X-0.150000X0.725000X-0.150000X0*%
%ADD20RoundRect,0.243750X-0.456250X0.243750X-0.456250X-0.243750X0.456250X-0.243750X0.456250X0.243750X0*%
%ADD21RoundRect,0.135000X0.135000X0.185000X-0.135000X0.185000X-0.135000X-0.185000X0.135000X-0.185000X0*%
%ADD22RoundRect,0.150000X-0.587500X-0.150000X0.587500X-0.150000X0.587500X0.150000X-0.587500X0.150000X0*%
%ADD23R,0.025001X0.000001*%
%ADD24R,0.400000X0.200000*%
%ADD25R,0.200000X0.400000*%
%ADD26RoundRect,0.250000X0.325000X0.650000X-0.325000X0.650000X-0.325000X-0.650000X0.325000X-0.650000X0*%
%ADD27RoundRect,0.250000X0.650000X-0.325000X0.650000X0.325000X-0.650000X0.325000X-0.650000X-0.325000X0*%
%ADD28RoundRect,0.135000X-0.185000X0.135000X-0.185000X-0.135000X0.185000X-0.135000X0.185000X0.135000X0*%
%ADD29RoundRect,0.243750X0.243750X0.456250X-0.243750X0.456250X-0.243750X-0.456250X0.243750X-0.456250X0*%
G04 APERTURE END LIST*
D10*
G04 #@! TO.C,R1*
X69000000Y-103010000D03*
X69000000Y-101990000D03*
G04 #@! TD*
D11*
G04 #@! TO.C,Q6*
X67675000Y-84845000D03*
X67675000Y-86115000D03*
X67675000Y-87385000D03*
X67675000Y-88655000D03*
X72825000Y-88655000D03*
X72825000Y-87385000D03*
X72825000Y-86115000D03*
X72825000Y-84845000D03*
G04 #@! TD*
D12*
G04 #@! TO.C,J2*
X48650000Y-110850000D03*
X49450000Y-110850000D03*
X50750000Y-110850000D03*
X51750000Y-110850000D03*
X52250000Y-110850000D03*
X53250000Y-110850000D03*
X54550000Y-110850000D03*
X55350000Y-110850000D03*
X55050000Y-110850000D03*
X54250000Y-110850000D03*
X53750000Y-110850000D03*
X52750000Y-110850000D03*
X51250000Y-110850000D03*
X50250000Y-110850000D03*
X49750000Y-110850000D03*
X48950000Y-110850000D03*
D13*
X47680000Y-111690000D03*
D14*
X47680000Y-115870000D03*
D13*
X56320000Y-111690000D03*
D14*
X56320000Y-115870000D03*
G04 #@! TD*
D15*
G04 #@! TO.C,R5*
X71690000Y-83500000D03*
X72710000Y-83500000D03*
G04 #@! TD*
G04 #@! TO.C,R12*
X64790000Y-83500000D03*
X65810000Y-83500000D03*
G04 #@! TD*
D16*
G04 #@! TO.C,C2*
X66600000Y-99825000D03*
X66600000Y-102775000D03*
G04 #@! TD*
D17*
G04 #@! TO.C,Q4*
X62437500Y-109200000D03*
X62437500Y-107300000D03*
X60562500Y-108250000D03*
G04 #@! TD*
D18*
G04 #@! TO.C,D1*
X43500000Y-83450000D03*
X43500000Y-85550000D03*
G04 #@! TD*
D19*
G04 #@! TO.C,Q5*
X65325000Y-88655000D03*
X65325000Y-87385000D03*
X65325000Y-86115000D03*
X65325000Y-84845000D03*
X60175000Y-84845000D03*
X60175000Y-86115000D03*
X60175000Y-87385000D03*
X60175000Y-88655000D03*
G04 #@! TD*
D20*
G04 #@! TO.C,D5*
X58000000Y-114562500D03*
X58000000Y-116437500D03*
G04 #@! TD*
D11*
G04 #@! TO.C,Q7*
X67675000Y-111345000D03*
X67675000Y-112615000D03*
X67675000Y-113885000D03*
X67675000Y-115155000D03*
X72825000Y-115155000D03*
X72825000Y-113885000D03*
X72825000Y-112615000D03*
X72825000Y-111345000D03*
G04 #@! TD*
D12*
G04 #@! TO.C,J1*
X55350000Y-89150000D03*
X54550000Y-89150000D03*
X53250000Y-89150000D03*
X52250000Y-89150000D03*
X51750000Y-89150000D03*
X50750000Y-89150000D03*
X49450000Y-89150000D03*
X48650000Y-89150000D03*
X48950000Y-89150000D03*
X49750000Y-89150000D03*
X50250000Y-89150000D03*
X51250000Y-89150000D03*
X52750000Y-89150000D03*
X53750000Y-89150000D03*
X54250000Y-89150000D03*
X55050000Y-89150000D03*
D13*
X56320000Y-88310000D03*
D14*
X56320000Y-84130000D03*
D13*
X47680000Y-88310000D03*
D14*
X47680000Y-84130000D03*
G04 #@! TD*
D21*
G04 #@! TO.C,R7*
X61210000Y-116500000D03*
X60190000Y-116500000D03*
G04 #@! TD*
D22*
G04 #@! TO.C,Q2*
X65562500Y-107300000D03*
X65562500Y-109200000D03*
X67437500Y-108250000D03*
G04 #@! TD*
D16*
G04 #@! TO.C,C4*
X45750000Y-113025000D03*
X45750000Y-115975000D03*
G04 #@! TD*
D19*
G04 #@! TO.C,Q8*
X65325000Y-115155000D03*
X65325000Y-113885000D03*
X65325000Y-112615000D03*
X65325000Y-111345000D03*
X60175000Y-111345000D03*
X60175000Y-112615000D03*
X60175000Y-113885000D03*
X60175000Y-115155000D03*
G04 #@! TD*
D10*
G04 #@! TO.C,R3*
X72000000Y-103010000D03*
X72000000Y-101990000D03*
G04 #@! TD*
G04 #@! TO.C,R14*
X69000000Y-109510000D03*
X69000000Y-108490000D03*
G04 #@! TD*
G04 #@! TO.C,R11*
X58000000Y-112510000D03*
X58000000Y-111490000D03*
G04 #@! TD*
D20*
G04 #@! TO.C,D4*
X58000000Y-83562500D03*
X58000000Y-85437500D03*
G04 #@! TD*
D15*
G04 #@! TO.C,R10*
X59690000Y-83500000D03*
X60710000Y-83500000D03*
G04 #@! TD*
D23*
G04 #@! TO.C,U1*
X68837500Y-96625000D03*
X68837500Y-96875000D03*
X68837500Y-97125000D03*
X68837500Y-97375000D03*
X69112500Y-96625000D03*
X69112500Y-96875000D03*
X69112500Y-97125000D03*
X69112500Y-97375000D03*
X69387500Y-96625000D03*
X69387500Y-96875000D03*
X69387500Y-97125000D03*
X69387500Y-97375000D03*
X69662500Y-96625000D03*
X69662500Y-96875000D03*
X69662500Y-97125000D03*
X69662500Y-97375000D03*
D24*
X68150000Y-96200000D03*
X68150000Y-96600000D03*
X68150000Y-97000000D03*
X68150000Y-97400000D03*
X68150000Y-97800000D03*
D25*
X68850000Y-98100000D03*
X69250000Y-98100000D03*
X69650000Y-98100000D03*
D24*
X70350000Y-97800000D03*
X70350000Y-97400000D03*
X70350000Y-97000000D03*
X70350000Y-96600000D03*
X70350000Y-96200000D03*
D25*
X69650000Y-95900000D03*
X69250000Y-95900000D03*
X68850000Y-95900000D03*
G04 #@! TD*
D10*
G04 #@! TO.C,R8*
X66500000Y-91760000D03*
X66500000Y-90740000D03*
G04 #@! TD*
G04 #@! TO.C,R9*
X64000000Y-108760000D03*
X64000000Y-107740000D03*
G04 #@! TD*
D16*
G04 #@! TO.C,C5*
X43400000Y-87275000D03*
X43400000Y-90225000D03*
G04 #@! TD*
D15*
G04 #@! TO.C,R6*
X38990000Y-85500000D03*
X40010000Y-85500000D03*
G04 #@! TD*
D18*
G04 #@! TO.C,D2*
X45500000Y-83450000D03*
X45500000Y-85550000D03*
G04 #@! TD*
D26*
G04 #@! TO.C,C3*
X66875000Y-97300000D03*
X63925000Y-97300000D03*
G04 #@! TD*
D27*
G04 #@! TO.C,C1*
X72200000Y-95975000D03*
X72200000Y-93025000D03*
G04 #@! TD*
D28*
G04 #@! TO.C,R13*
X71500000Y-89990000D03*
X71500000Y-91010000D03*
G04 #@! TD*
D10*
G04 #@! TO.C,R4*
X71000000Y-103010000D03*
X71000000Y-101990000D03*
G04 #@! TD*
D16*
G04 #@! TO.C,C7*
X43400000Y-113025000D03*
X43400000Y-115975000D03*
G04 #@! TD*
D10*
G04 #@! TO.C,R2*
X70000000Y-103010000D03*
X70000000Y-101990000D03*
G04 #@! TD*
D17*
G04 #@! TO.C,Q3*
X64937500Y-92250000D03*
X64937500Y-90350000D03*
X63062500Y-91300000D03*
G04 #@! TD*
D29*
G04 #@! TO.C,D3*
X37437500Y-85500000D03*
X35562500Y-85500000D03*
G04 #@! TD*
D22*
G04 #@! TO.C,Q1*
X68062500Y-90350000D03*
X68062500Y-92250000D03*
X69937500Y-91300000D03*
G04 #@! TD*
D16*
G04 #@! TO.C,C6*
X45750000Y-87275000D03*
X45750000Y-90225000D03*
G04 #@! TD*
D21*
G04 #@! TO.C,R15*
X70760000Y-116500000D03*
X69740000Y-116500000D03*
G04 #@! TD*
M02*
