G04 #@! TF.GenerationSoftware,KiCad,Pcbnew,9.0.1-unknown-1000.20250410git9b253fb.fc41*
G04 #@! TF.CreationDate,2025-04-15T18:00:25-07:00*
G04 #@! TF.ProjectId,usb-pd-plank,7573622d-7064-42d7-906c-616e6b2e6b69,rev?*
G04 #@! TF.SameCoordinates,Original*
G04 #@! TF.FileFunction,Copper,L2,Bot*
G04 #@! TF.FilePolarity,Positive*
%FSLAX46Y46*%
G04 Gerber Fmt 4.6, Leading zero omitted, Abs format (unit mm)*
G04 Created by KiCad (PCBNEW 9.0.1-unknown-1000.20250410git9b253fb.fc41) date 2025-04-15 18:00:25*
%MOMM*%
%LPD*%
G01*
G04 APERTURE LIST*
G04 Aperture macros list*
%AMRoundRect*
0 Rectangle with rounded corners*
0 $1 Rounding radius*
0 $2 $3 $4 $5 $6 $7 $8 $9 X,Y pos of 4 corners*
0 Add a 4 corners polygon primitive as box body*
4,1,4,$2,$3,$4,$5,$6,$7,$8,$9,$2,$3,0*
0 Add four circle primitives for the rounded corners*
1,1,$1+$1,$2,$3*
1,1,$1+$1,$4,$5*
1,1,$1+$1,$6,$7*
1,1,$1+$1,$8,$9*
0 Add four rect primitives between the rounded corners*
20,1,$1+$1,$2,$3,$4,$5,0*
20,1,$1+$1,$4,$5,$6,$7,0*
20,1,$1+$1,$6,$7,$8,$9,0*
20,1,$1+$1,$8,$9,$2,$3,0*%
G04 Aperture macros list end*
G04 #@! TA.AperFunction,ComponentPad*
%ADD10O,0.900000X2.100000*%
G04 #@! TD*
G04 #@! TA.AperFunction,ComponentPad*
%ADD11O,1.000000X2.100000*%
G04 #@! TD*
G04 #@! TA.AperFunction,ComponentPad*
%ADD12RoundRect,0.250000X-1.450000X-0.600000X1.450000X-0.600000X1.450000X0.600000X-1.450000X0.600000X0*%
G04 #@! TD*
G04 #@! TA.AperFunction,ComponentPad*
%ADD13O,3.400000X1.700000*%
G04 #@! TD*
G04 #@! TA.AperFunction,ComponentPad*
%ADD14RoundRect,0.250000X-0.600000X1.450000X-0.600000X-1.450000X0.600000X-1.450000X0.600000X1.450000X0*%
G04 #@! TD*
G04 #@! TA.AperFunction,ComponentPad*
%ADD15O,1.700000X3.400000*%
G04 #@! TD*
G04 #@! TA.AperFunction,ViaPad*
%ADD16C,0.500000*%
G04 #@! TD*
G04 #@! TA.AperFunction,Conductor*
%ADD17C,0.150000*%
G04 #@! TD*
G04 APERTURE END LIST*
D10*
G04 #@! TO.P,J2,S1,SHIELD*
G04 #@! TO.N,GND*
X47680000Y-111690000D03*
D11*
X47680000Y-115870000D03*
D10*
X56320000Y-111690000D03*
D11*
X56320000Y-115870000D03*
G04 #@! TD*
D12*
G04 #@! TO.P,J3,1,Pin_1*
G04 #@! TO.N,+5V*
X35675000Y-88550000D03*
D13*
G04 #@! TO.P,J3,2,Pin_2*
G04 #@! TO.N,/I2C_SDA*
X35675000Y-91090000D03*
G04 #@! TO.P,J3,3,Pin_3*
G04 #@! TO.N,/I2C_SCL*
X35675000Y-93630000D03*
G04 #@! TO.P,J3,4,Pin_4*
G04 #@! TO.N,/~{ALERT}*
X35675000Y-96170000D03*
G04 #@! TO.P,J3,5,Pin_5*
G04 #@! TO.N,/~{FAULT}*
X35675000Y-98710000D03*
G04 #@! TO.P,J3,6,Pin_6*
G04 #@! TO.N,/EN_SRC*
X35675000Y-101250000D03*
G04 #@! TO.P,J3,7,Pin_7*
G04 #@! TO.N,/EN_SNK*
X35675000Y-103790000D03*
G04 #@! TO.P,J3,8,Pin_8*
G04 #@! TO.N,Net-(J3-Pin_8)*
X35675000Y-106330000D03*
G04 #@! TO.P,J3,9,Pin_9*
G04 #@! TO.N,Net-(J3-Pin_9)*
X35675000Y-108870000D03*
G04 #@! TO.P,J3,10,Pin_10*
G04 #@! TO.N,GND*
X35675000Y-111410000D03*
G04 #@! TD*
D10*
G04 #@! TO.P,J1,S1,SHIELD*
G04 #@! TO.N,GND*
X56320000Y-88310000D03*
D11*
X56320000Y-84130000D03*
D10*
X47680000Y-88310000D03*
D11*
X47680000Y-84130000D03*
G04 #@! TD*
D14*
G04 #@! TO.P,J5,1,Pin_1*
G04 #@! TO.N,/USBIN_CC1*
X62000000Y-100380000D03*
D15*
G04 #@! TO.P,J5,2,Pin_2*
G04 #@! TO.N,/USBOUT_CC1*
X62000000Y-104620000D03*
G04 #@! TO.P,J5,3,Pin_3*
G04 #@! TO.N,/USBIN_CC2*
X59460000Y-100380000D03*
G04 #@! TO.P,J5,4,Pin_4*
G04 #@! TO.N,/USBOUT_CC2*
X59460000Y-104620000D03*
G04 #@! TO.P,J5,5,Pin_5*
G04 #@! TO.N,/USBIN_DB_P*
X56920000Y-100380000D03*
G04 #@! TO.P,J5,6,Pin_6*
G04 #@! TO.N,/USBOUT_DB_P*
X56920000Y-104620000D03*
G04 #@! TO.P,J5,7,Pin_7*
G04 #@! TO.N,/USBIN_DA_N*
X54380000Y-100380000D03*
G04 #@! TO.P,J5,8,Pin_8*
G04 #@! TO.N,/USBOUT_DA_N*
X54380000Y-104620000D03*
G04 #@! TO.P,J5,9,Pin_9*
G04 #@! TO.N,/USBIN_DA_P*
X51840000Y-100380000D03*
G04 #@! TO.P,J5,10,Pin_10*
G04 #@! TO.N,/USBOUT_DA_P*
X51840000Y-104620000D03*
G04 #@! TO.P,J5,11,Pin_11*
G04 #@! TO.N,/USBIN_DB_N*
X49300000Y-100380000D03*
G04 #@! TO.P,J5,12,Pin_12*
G04 #@! TO.N,/USBOUT_DB_N*
X49300000Y-104620000D03*
G04 #@! TO.P,J5,13,Pin_13*
G04 #@! TO.N,/USBIN_SBU1*
X46760000Y-100380000D03*
G04 #@! TO.P,J5,14,Pin_14*
G04 #@! TO.N,/USBOUT_SBU1*
X46760000Y-104620000D03*
G04 #@! TO.P,J5,15,Pin_15*
G04 #@! TO.N,/USBIN_SBU2*
X44220000Y-100380000D03*
G04 #@! TO.P,J5,16,Pin_16*
G04 #@! TO.N,/USBOUT_SBU2*
X44220000Y-104620000D03*
G04 #@! TD*
D12*
G04 #@! TO.P,J4,1,Pin_1*
G04 #@! TO.N,+5V*
X40050000Y-88500000D03*
D13*
G04 #@! TO.P,J4,2,Pin_2*
G04 #@! TO.N,/I2C_SDA*
X40050000Y-91040000D03*
G04 #@! TO.P,J4,3,Pin_3*
G04 #@! TO.N,/I2C_SCL*
X40050000Y-93580000D03*
G04 #@! TO.P,J4,4,Pin_4*
G04 #@! TO.N,/~{ALERT}*
X40050000Y-96120000D03*
G04 #@! TO.P,J4,5,Pin_5*
G04 #@! TO.N,/~{FAULT}*
X40050000Y-98660000D03*
G04 #@! TO.P,J4,6,Pin_6*
G04 #@! TO.N,/EN_SRC*
X40050000Y-101200000D03*
G04 #@! TO.P,J4,7,Pin_7*
G04 #@! TO.N,/EN_SNK*
X40050000Y-103740000D03*
G04 #@! TO.P,J4,8,Pin_8*
G04 #@! TO.N,Net-(J3-Pin_8)*
X40050000Y-106280000D03*
G04 #@! TO.P,J4,9,Pin_9*
G04 #@! TO.N,Net-(J3-Pin_9)*
X40050000Y-108820000D03*
G04 #@! TO.P,J4,10,Pin_10*
G04 #@! TO.N,GND*
X40050000Y-111360000D03*
G04 #@! TD*
D16*
G04 #@! TO.N,GND*
X43500000Y-115000000D03*
X45750000Y-115000000D03*
G04 #@! TO.N,/USBOUT_SBU1*
X53250000Y-114000000D03*
X53250000Y-112100000D03*
G04 #@! TO.N,/USBOUT_CC1*
X57000000Y-112826000D03*
X57000000Y-114250000D03*
X50750000Y-112100000D03*
X50750000Y-113500000D03*
G04 #@! TD*
D17*
G04 #@! TO.N,/USBOUT_SBU1*
X53250000Y-114000000D02*
X53250000Y-112100000D01*
G04 #@! TO.N,/USBOUT_CC1*
X57000000Y-114250000D02*
X57000000Y-112826000D01*
X50750000Y-113500000D02*
X50750000Y-112100000D01*
G04 #@! TD*
M02*
