G04 #@! TF.GenerationSoftware,KiCad,Pcbnew,9.0.1-unknown-1000.20250410git9b253fb.fc41*
G04 #@! TF.CreationDate,2025-04-15T18:00:25-07:00*
G04 #@! TF.ProjectId,usb-pd-plank,7573622d-7064-42d7-906c-616e6b2e6b69,rev?*
G04 #@! TF.SameCoordinates,Original*
G04 #@! TF.FileFunction,Legend,Top*
G04 #@! TF.FilePolarity,Positive*
%FSLAX46Y46*%
G04 Gerber Fmt 4.6, Leading zero omitted, Abs format (unit mm)*
G04 Created by KiCad (PCBNEW 9.0.1-unknown-1000.20250410git9b253fb.fc41) date 2025-04-15 18:00:25*
%MOMM*%
%LPD*%
G01*
G04 APERTURE LIST*
%ADD10C,0.150000*%
%ADD11C,0.120000*%
G04 APERTURE END LIST*
D10*
X68284819Y-102666666D02*
X67808628Y-102999999D01*
X68284819Y-103238094D02*
X67284819Y-103238094D01*
X67284819Y-103238094D02*
X67284819Y-102857142D01*
X67284819Y-102857142D02*
X67332438Y-102761904D01*
X67332438Y-102761904D02*
X67380057Y-102714285D01*
X67380057Y-102714285D02*
X67475295Y-102666666D01*
X67475295Y-102666666D02*
X67618152Y-102666666D01*
X67618152Y-102666666D02*
X67713390Y-102714285D01*
X67713390Y-102714285D02*
X67761009Y-102761904D01*
X67761009Y-102761904D02*
X67808628Y-102857142D01*
X67808628Y-102857142D02*
X67808628Y-103238094D01*
X68284819Y-101714285D02*
X68284819Y-102285713D01*
X68284819Y-101999999D02*
X67284819Y-101999999D01*
X67284819Y-101999999D02*
X67427676Y-102095237D01*
X67427676Y-102095237D02*
X67522914Y-102190475D01*
X67522914Y-102190475D02*
X67570533Y-102285713D01*
X59354819Y-84761904D02*
X60164342Y-84761904D01*
X60164342Y-84761904D02*
X60259580Y-84714285D01*
X60259580Y-84714285D02*
X60307200Y-84666666D01*
X60307200Y-84666666D02*
X60354819Y-84571428D01*
X60354819Y-84571428D02*
X60354819Y-84380952D01*
X60354819Y-84380952D02*
X60307200Y-84285714D01*
X60307200Y-84285714D02*
X60259580Y-84238095D01*
X60259580Y-84238095D02*
X60164342Y-84190476D01*
X60164342Y-84190476D02*
X59354819Y-84190476D01*
X59450057Y-83761904D02*
X59402438Y-83714285D01*
X59402438Y-83714285D02*
X59354819Y-83619047D01*
X59354819Y-83619047D02*
X59354819Y-83380952D01*
X59354819Y-83380952D02*
X59402438Y-83285714D01*
X59402438Y-83285714D02*
X59450057Y-83238095D01*
X59450057Y-83238095D02*
X59545295Y-83190476D01*
X59545295Y-83190476D02*
X59640533Y-83190476D01*
X59640533Y-83190476D02*
X59783390Y-83238095D01*
X59783390Y-83238095D02*
X60354819Y-83809523D01*
X60354819Y-83809523D02*
X60354819Y-83190476D01*
X63738095Y-89806819D02*
X64309523Y-89806819D01*
X64023809Y-90806819D02*
X64023809Y-89806819D01*
X64642857Y-90806819D02*
X64642857Y-89806819D01*
X64642857Y-89806819D02*
X65023809Y-89806819D01*
X65023809Y-89806819D02*
X65119047Y-89854438D01*
X65119047Y-89854438D02*
X65166666Y-89902057D01*
X65166666Y-89902057D02*
X65214285Y-89997295D01*
X65214285Y-89997295D02*
X65214285Y-90140152D01*
X65214285Y-90140152D02*
X65166666Y-90235390D01*
X65166666Y-90235390D02*
X65119047Y-90283009D01*
X65119047Y-90283009D02*
X65023809Y-90330628D01*
X65023809Y-90330628D02*
X64642857Y-90330628D01*
X65595238Y-89902057D02*
X65642857Y-89854438D01*
X65642857Y-89854438D02*
X65738095Y-89806819D01*
X65738095Y-89806819D02*
X65976190Y-89806819D01*
X65976190Y-89806819D02*
X66071428Y-89854438D01*
X66071428Y-89854438D02*
X66119047Y-89902057D01*
X66119047Y-89902057D02*
X66166666Y-89997295D01*
X66166666Y-89997295D02*
X66166666Y-90092533D01*
X66166666Y-90092533D02*
X66119047Y-90235390D01*
X66119047Y-90235390D02*
X65547619Y-90806819D01*
X65547619Y-90806819D02*
X66166666Y-90806819D01*
X66833333Y-85124819D02*
X66500000Y-84648628D01*
X66261905Y-85124819D02*
X66261905Y-84124819D01*
X66261905Y-84124819D02*
X66642857Y-84124819D01*
X66642857Y-84124819D02*
X66738095Y-84172438D01*
X66738095Y-84172438D02*
X66785714Y-84220057D01*
X66785714Y-84220057D02*
X66833333Y-84315295D01*
X66833333Y-84315295D02*
X66833333Y-84458152D01*
X66833333Y-84458152D02*
X66785714Y-84553390D01*
X66785714Y-84553390D02*
X66738095Y-84601009D01*
X66738095Y-84601009D02*
X66642857Y-84648628D01*
X66642857Y-84648628D02*
X66261905Y-84648628D01*
X67738095Y-84124819D02*
X67261905Y-84124819D01*
X67261905Y-84124819D02*
X67214286Y-84601009D01*
X67214286Y-84601009D02*
X67261905Y-84553390D01*
X67261905Y-84553390D02*
X67357143Y-84505771D01*
X67357143Y-84505771D02*
X67595238Y-84505771D01*
X67595238Y-84505771D02*
X67690476Y-84553390D01*
X67690476Y-84553390D02*
X67738095Y-84601009D01*
X67738095Y-84601009D02*
X67785714Y-84696247D01*
X67785714Y-84696247D02*
X67785714Y-84934342D01*
X67785714Y-84934342D02*
X67738095Y-85029580D01*
X67738095Y-85029580D02*
X67690476Y-85077200D01*
X67690476Y-85077200D02*
X67595238Y-85124819D01*
X67595238Y-85124819D02*
X67357143Y-85124819D01*
X67357143Y-85124819D02*
X67261905Y-85077200D01*
X67261905Y-85077200D02*
X67214286Y-85029580D01*
X64833333Y-99789580D02*
X64785714Y-99837200D01*
X64785714Y-99837200D02*
X64642857Y-99884819D01*
X64642857Y-99884819D02*
X64547619Y-99884819D01*
X64547619Y-99884819D02*
X64404762Y-99837200D01*
X64404762Y-99837200D02*
X64309524Y-99741961D01*
X64309524Y-99741961D02*
X64261905Y-99646723D01*
X64261905Y-99646723D02*
X64214286Y-99456247D01*
X64214286Y-99456247D02*
X64214286Y-99313390D01*
X64214286Y-99313390D02*
X64261905Y-99122914D01*
X64261905Y-99122914D02*
X64309524Y-99027676D01*
X64309524Y-99027676D02*
X64404762Y-98932438D01*
X64404762Y-98932438D02*
X64547619Y-98884819D01*
X64547619Y-98884819D02*
X64642857Y-98884819D01*
X64642857Y-98884819D02*
X64785714Y-98932438D01*
X64785714Y-98932438D02*
X64833333Y-98980057D01*
X65214286Y-98980057D02*
X65261905Y-98932438D01*
X65261905Y-98932438D02*
X65357143Y-98884819D01*
X65357143Y-98884819D02*
X65595238Y-98884819D01*
X65595238Y-98884819D02*
X65690476Y-98932438D01*
X65690476Y-98932438D02*
X65738095Y-98980057D01*
X65738095Y-98980057D02*
X65785714Y-99075295D01*
X65785714Y-99075295D02*
X65785714Y-99170533D01*
X65785714Y-99170533D02*
X65738095Y-99313390D01*
X65738095Y-99313390D02*
X65166667Y-99884819D01*
X65166667Y-99884819D02*
X65785714Y-99884819D01*
X60404761Y-114950057D02*
X60309523Y-114902438D01*
X60309523Y-114902438D02*
X60214285Y-114807200D01*
X60214285Y-114807200D02*
X60071428Y-114664342D01*
X60071428Y-114664342D02*
X59976190Y-114616723D01*
X59976190Y-114616723D02*
X59880952Y-114616723D01*
X59928571Y-114854819D02*
X59833333Y-114807200D01*
X59833333Y-114807200D02*
X59738095Y-114711961D01*
X59738095Y-114711961D02*
X59690476Y-114521485D01*
X59690476Y-114521485D02*
X59690476Y-114188152D01*
X59690476Y-114188152D02*
X59738095Y-113997676D01*
X59738095Y-113997676D02*
X59833333Y-113902438D01*
X59833333Y-113902438D02*
X59928571Y-113854819D01*
X59928571Y-113854819D02*
X60119047Y-113854819D01*
X60119047Y-113854819D02*
X60214285Y-113902438D01*
X60214285Y-113902438D02*
X60309523Y-113997676D01*
X60309523Y-113997676D02*
X60357142Y-114188152D01*
X60357142Y-114188152D02*
X60357142Y-114521485D01*
X60357142Y-114521485D02*
X60309523Y-114711961D01*
X60309523Y-114711961D02*
X60214285Y-114807200D01*
X60214285Y-114807200D02*
X60119047Y-114854819D01*
X60119047Y-114854819D02*
X59928571Y-114854819D01*
X61214285Y-114188152D02*
X61214285Y-114854819D01*
X60976190Y-113807200D02*
X60738095Y-114521485D01*
X60738095Y-114521485D02*
X61357142Y-114521485D01*
X44104819Y-88738094D02*
X43104819Y-88738094D01*
X43104819Y-88738094D02*
X43104819Y-88499999D01*
X43104819Y-88499999D02*
X43152438Y-88357142D01*
X43152438Y-88357142D02*
X43247676Y-88261904D01*
X43247676Y-88261904D02*
X43342914Y-88214285D01*
X43342914Y-88214285D02*
X43533390Y-88166666D01*
X43533390Y-88166666D02*
X43676247Y-88166666D01*
X43676247Y-88166666D02*
X43866723Y-88214285D01*
X43866723Y-88214285D02*
X43961961Y-88261904D01*
X43961961Y-88261904D02*
X44057200Y-88357142D01*
X44057200Y-88357142D02*
X44104819Y-88499999D01*
X44104819Y-88499999D02*
X44104819Y-88738094D01*
X44104819Y-87214285D02*
X44104819Y-87785713D01*
X44104819Y-87499999D02*
X43104819Y-87499999D01*
X43104819Y-87499999D02*
X43247676Y-87595237D01*
X43247676Y-87595237D02*
X43342914Y-87690475D01*
X43342914Y-87690475D02*
X43390533Y-87785713D01*
X30111666Y-85234819D02*
X30111666Y-85949104D01*
X30111666Y-85949104D02*
X30064047Y-86091961D01*
X30064047Y-86091961D02*
X29968809Y-86187200D01*
X29968809Y-86187200D02*
X29825952Y-86234819D01*
X29825952Y-86234819D02*
X29730714Y-86234819D01*
X30492619Y-85234819D02*
X31111666Y-85234819D01*
X31111666Y-85234819D02*
X30778333Y-85615771D01*
X30778333Y-85615771D02*
X30921190Y-85615771D01*
X30921190Y-85615771D02*
X31016428Y-85663390D01*
X31016428Y-85663390D02*
X31064047Y-85711009D01*
X31064047Y-85711009D02*
X31111666Y-85806247D01*
X31111666Y-85806247D02*
X31111666Y-86044342D01*
X31111666Y-86044342D02*
X31064047Y-86139580D01*
X31064047Y-86139580D02*
X31016428Y-86187200D01*
X31016428Y-86187200D02*
X30921190Y-86234819D01*
X30921190Y-86234819D02*
X30635476Y-86234819D01*
X30635476Y-86234819D02*
X30540238Y-86187200D01*
X30540238Y-86187200D02*
X30492619Y-86139580D01*
X65238095Y-100306819D02*
X65809523Y-100306819D01*
X65523809Y-101306819D02*
X65523809Y-100306819D01*
X66142857Y-101306819D02*
X66142857Y-100306819D01*
X66142857Y-100306819D02*
X66523809Y-100306819D01*
X66523809Y-100306819D02*
X66619047Y-100354438D01*
X66619047Y-100354438D02*
X66666666Y-100402057D01*
X66666666Y-100402057D02*
X66714285Y-100497295D01*
X66714285Y-100497295D02*
X66714285Y-100640152D01*
X66714285Y-100640152D02*
X66666666Y-100735390D01*
X66666666Y-100735390D02*
X66619047Y-100783009D01*
X66619047Y-100783009D02*
X66523809Y-100830628D01*
X66523809Y-100830628D02*
X66142857Y-100830628D01*
X67666666Y-101306819D02*
X67095238Y-101306819D01*
X67380952Y-101306819D02*
X67380952Y-100306819D01*
X67380952Y-100306819D02*
X67285714Y-100449676D01*
X67285714Y-100449676D02*
X67190476Y-100544914D01*
X67190476Y-100544914D02*
X67095238Y-100592533D01*
X60604819Y-116238094D02*
X59604819Y-116238094D01*
X59604819Y-116238094D02*
X59604819Y-115999999D01*
X59604819Y-115999999D02*
X59652438Y-115857142D01*
X59652438Y-115857142D02*
X59747676Y-115761904D01*
X59747676Y-115761904D02*
X59842914Y-115714285D01*
X59842914Y-115714285D02*
X60033390Y-115666666D01*
X60033390Y-115666666D02*
X60176247Y-115666666D01*
X60176247Y-115666666D02*
X60366723Y-115714285D01*
X60366723Y-115714285D02*
X60461961Y-115761904D01*
X60461961Y-115761904D02*
X60557200Y-115857142D01*
X60557200Y-115857142D02*
X60604819Y-115999999D01*
X60604819Y-115999999D02*
X60604819Y-116238094D01*
X59604819Y-114761904D02*
X59604819Y-115238094D01*
X59604819Y-115238094D02*
X60081009Y-115285713D01*
X60081009Y-115285713D02*
X60033390Y-115238094D01*
X60033390Y-115238094D02*
X59985771Y-115142856D01*
X59985771Y-115142856D02*
X59985771Y-114904761D01*
X59985771Y-114904761D02*
X60033390Y-114809523D01*
X60033390Y-114809523D02*
X60081009Y-114761904D01*
X60081009Y-114761904D02*
X60176247Y-114714285D01*
X60176247Y-114714285D02*
X60414342Y-114714285D01*
X60414342Y-114714285D02*
X60509580Y-114761904D01*
X60509580Y-114761904D02*
X60557200Y-114809523D01*
X60557200Y-114809523D02*
X60604819Y-114904761D01*
X60604819Y-114904761D02*
X60604819Y-115142856D01*
X60604819Y-115142856D02*
X60557200Y-115238094D01*
X60557200Y-115238094D02*
X60509580Y-115285713D01*
X67333333Y-118124819D02*
X67000000Y-117648628D01*
X66761905Y-118124819D02*
X66761905Y-117124819D01*
X66761905Y-117124819D02*
X67142857Y-117124819D01*
X67142857Y-117124819D02*
X67238095Y-117172438D01*
X67238095Y-117172438D02*
X67285714Y-117220057D01*
X67285714Y-117220057D02*
X67333333Y-117315295D01*
X67333333Y-117315295D02*
X67333333Y-117458152D01*
X67333333Y-117458152D02*
X67285714Y-117553390D01*
X67285714Y-117553390D02*
X67238095Y-117601009D01*
X67238095Y-117601009D02*
X67142857Y-117648628D01*
X67142857Y-117648628D02*
X66761905Y-117648628D01*
X67666667Y-117124819D02*
X68333333Y-117124819D01*
X68333333Y-117124819D02*
X67904762Y-118124819D01*
X64404761Y-114950057D02*
X64309523Y-114902438D01*
X64309523Y-114902438D02*
X64214285Y-114807200D01*
X64214285Y-114807200D02*
X64071428Y-114664342D01*
X64071428Y-114664342D02*
X63976190Y-114616723D01*
X63976190Y-114616723D02*
X63880952Y-114616723D01*
X63928571Y-114854819D02*
X63833333Y-114807200D01*
X63833333Y-114807200D02*
X63738095Y-114711961D01*
X63738095Y-114711961D02*
X63690476Y-114521485D01*
X63690476Y-114521485D02*
X63690476Y-114188152D01*
X63690476Y-114188152D02*
X63738095Y-113997676D01*
X63738095Y-113997676D02*
X63833333Y-113902438D01*
X63833333Y-113902438D02*
X63928571Y-113854819D01*
X63928571Y-113854819D02*
X64119047Y-113854819D01*
X64119047Y-113854819D02*
X64214285Y-113902438D01*
X64214285Y-113902438D02*
X64309523Y-113997676D01*
X64309523Y-113997676D02*
X64357142Y-114188152D01*
X64357142Y-114188152D02*
X64357142Y-114521485D01*
X64357142Y-114521485D02*
X64309523Y-114711961D01*
X64309523Y-114711961D02*
X64214285Y-114807200D01*
X64214285Y-114807200D02*
X64119047Y-114854819D01*
X64119047Y-114854819D02*
X63928571Y-114854819D01*
X64738095Y-113950057D02*
X64785714Y-113902438D01*
X64785714Y-113902438D02*
X64880952Y-113854819D01*
X64880952Y-113854819D02*
X65119047Y-113854819D01*
X65119047Y-113854819D02*
X65214285Y-113902438D01*
X65214285Y-113902438D02*
X65261904Y-113950057D01*
X65261904Y-113950057D02*
X65309523Y-114045295D01*
X65309523Y-114045295D02*
X65309523Y-114140533D01*
X65309523Y-114140533D02*
X65261904Y-114283390D01*
X65261904Y-114283390D02*
X64690476Y-114854819D01*
X64690476Y-114854819D02*
X65309523Y-114854819D01*
X47959580Y-114666666D02*
X48007200Y-114714285D01*
X48007200Y-114714285D02*
X48054819Y-114857142D01*
X48054819Y-114857142D02*
X48054819Y-114952380D01*
X48054819Y-114952380D02*
X48007200Y-115095237D01*
X48007200Y-115095237D02*
X47911961Y-115190475D01*
X47911961Y-115190475D02*
X47816723Y-115238094D01*
X47816723Y-115238094D02*
X47626247Y-115285713D01*
X47626247Y-115285713D02*
X47483390Y-115285713D01*
X47483390Y-115285713D02*
X47292914Y-115238094D01*
X47292914Y-115238094D02*
X47197676Y-115190475D01*
X47197676Y-115190475D02*
X47102438Y-115095237D01*
X47102438Y-115095237D02*
X47054819Y-114952380D01*
X47054819Y-114952380D02*
X47054819Y-114857142D01*
X47054819Y-114857142D02*
X47102438Y-114714285D01*
X47102438Y-114714285D02*
X47150057Y-114666666D01*
X47388152Y-113809523D02*
X48054819Y-113809523D01*
X47007200Y-114047618D02*
X47721485Y-114285713D01*
X47721485Y-114285713D02*
X47721485Y-113666666D01*
X71284819Y-102666666D02*
X70808628Y-102999999D01*
X71284819Y-103238094D02*
X70284819Y-103238094D01*
X70284819Y-103238094D02*
X70284819Y-102857142D01*
X70284819Y-102857142D02*
X70332438Y-102761904D01*
X70332438Y-102761904D02*
X70380057Y-102714285D01*
X70380057Y-102714285D02*
X70475295Y-102666666D01*
X70475295Y-102666666D02*
X70618152Y-102666666D01*
X70618152Y-102666666D02*
X70713390Y-102714285D01*
X70713390Y-102714285D02*
X70761009Y-102761904D01*
X70761009Y-102761904D02*
X70808628Y-102857142D01*
X70808628Y-102857142D02*
X70808628Y-103238094D01*
X70284819Y-102333332D02*
X70284819Y-101714285D01*
X70284819Y-101714285D02*
X70665771Y-102047618D01*
X70665771Y-102047618D02*
X70665771Y-101904761D01*
X70665771Y-101904761D02*
X70713390Y-101809523D01*
X70713390Y-101809523D02*
X70761009Y-101761904D01*
X70761009Y-101761904D02*
X70856247Y-101714285D01*
X70856247Y-101714285D02*
X71094342Y-101714285D01*
X71094342Y-101714285D02*
X71189580Y-101761904D01*
X71189580Y-101761904D02*
X71237200Y-101809523D01*
X71237200Y-101809523D02*
X71284819Y-101904761D01*
X71284819Y-101904761D02*
X71284819Y-102190475D01*
X71284819Y-102190475D02*
X71237200Y-102285713D01*
X71237200Y-102285713D02*
X71189580Y-102333332D01*
X63834819Y-102833333D02*
X64549104Y-102833333D01*
X64549104Y-102833333D02*
X64691961Y-102880952D01*
X64691961Y-102880952D02*
X64787200Y-102976190D01*
X64787200Y-102976190D02*
X64834819Y-103119047D01*
X64834819Y-103119047D02*
X64834819Y-103214285D01*
X63834819Y-101880952D02*
X63834819Y-102357142D01*
X63834819Y-102357142D02*
X64311009Y-102404761D01*
X64311009Y-102404761D02*
X64263390Y-102357142D01*
X64263390Y-102357142D02*
X64215771Y-102261904D01*
X64215771Y-102261904D02*
X64215771Y-102023809D01*
X64215771Y-102023809D02*
X64263390Y-101928571D01*
X64263390Y-101928571D02*
X64311009Y-101880952D01*
X64311009Y-101880952D02*
X64406247Y-101833333D01*
X64406247Y-101833333D02*
X64644342Y-101833333D01*
X64644342Y-101833333D02*
X64739580Y-101880952D01*
X64739580Y-101880952D02*
X64787200Y-101928571D01*
X64787200Y-101928571D02*
X64834819Y-102023809D01*
X64834819Y-102023809D02*
X64834819Y-102261904D01*
X64834819Y-102261904D02*
X64787200Y-102357142D01*
X64787200Y-102357142D02*
X64739580Y-102404761D01*
X57284819Y-112642857D02*
X56808628Y-112976190D01*
X57284819Y-113214285D02*
X56284819Y-113214285D01*
X56284819Y-113214285D02*
X56284819Y-112833333D01*
X56284819Y-112833333D02*
X56332438Y-112738095D01*
X56332438Y-112738095D02*
X56380057Y-112690476D01*
X56380057Y-112690476D02*
X56475295Y-112642857D01*
X56475295Y-112642857D02*
X56618152Y-112642857D01*
X56618152Y-112642857D02*
X56713390Y-112690476D01*
X56713390Y-112690476D02*
X56761009Y-112738095D01*
X56761009Y-112738095D02*
X56808628Y-112833333D01*
X56808628Y-112833333D02*
X56808628Y-113214285D01*
X57284819Y-111690476D02*
X57284819Y-112261904D01*
X57284819Y-111976190D02*
X56284819Y-111976190D01*
X56284819Y-111976190D02*
X56427676Y-112071428D01*
X56427676Y-112071428D02*
X56522914Y-112166666D01*
X56522914Y-112166666D02*
X56570533Y-112261904D01*
X57284819Y-110738095D02*
X57284819Y-111309523D01*
X57284819Y-111023809D02*
X56284819Y-111023809D01*
X56284819Y-111023809D02*
X56427676Y-111119047D01*
X56427676Y-111119047D02*
X56522914Y-111214285D01*
X56522914Y-111214285D02*
X56570533Y-111309523D01*
X57304819Y-85238094D02*
X56304819Y-85238094D01*
X56304819Y-85238094D02*
X56304819Y-84999999D01*
X56304819Y-84999999D02*
X56352438Y-84857142D01*
X56352438Y-84857142D02*
X56447676Y-84761904D01*
X56447676Y-84761904D02*
X56542914Y-84714285D01*
X56542914Y-84714285D02*
X56733390Y-84666666D01*
X56733390Y-84666666D02*
X56876247Y-84666666D01*
X56876247Y-84666666D02*
X57066723Y-84714285D01*
X57066723Y-84714285D02*
X57161961Y-84761904D01*
X57161961Y-84761904D02*
X57257200Y-84857142D01*
X57257200Y-84857142D02*
X57304819Y-84999999D01*
X57304819Y-84999999D02*
X57304819Y-85238094D01*
X56638152Y-83809523D02*
X57304819Y-83809523D01*
X56257200Y-84047618D02*
X56971485Y-84285713D01*
X56971485Y-84285713D02*
X56971485Y-83666666D01*
X59624819Y-88642857D02*
X59148628Y-88976190D01*
X59624819Y-89214285D02*
X58624819Y-89214285D01*
X58624819Y-89214285D02*
X58624819Y-88833333D01*
X58624819Y-88833333D02*
X58672438Y-88738095D01*
X58672438Y-88738095D02*
X58720057Y-88690476D01*
X58720057Y-88690476D02*
X58815295Y-88642857D01*
X58815295Y-88642857D02*
X58958152Y-88642857D01*
X58958152Y-88642857D02*
X59053390Y-88690476D01*
X59053390Y-88690476D02*
X59101009Y-88738095D01*
X59101009Y-88738095D02*
X59148628Y-88833333D01*
X59148628Y-88833333D02*
X59148628Y-89214285D01*
X59624819Y-87690476D02*
X59624819Y-88261904D01*
X59624819Y-87976190D02*
X58624819Y-87976190D01*
X58624819Y-87976190D02*
X58767676Y-88071428D01*
X58767676Y-88071428D02*
X58862914Y-88166666D01*
X58862914Y-88166666D02*
X58910533Y-88261904D01*
X58624819Y-87071428D02*
X58624819Y-86976190D01*
X58624819Y-86976190D02*
X58672438Y-86880952D01*
X58672438Y-86880952D02*
X58720057Y-86833333D01*
X58720057Y-86833333D02*
X58815295Y-86785714D01*
X58815295Y-86785714D02*
X59005771Y-86738095D01*
X59005771Y-86738095D02*
X59243866Y-86738095D01*
X59243866Y-86738095D02*
X59434342Y-86785714D01*
X59434342Y-86785714D02*
X59529580Y-86833333D01*
X59529580Y-86833333D02*
X59577200Y-86880952D01*
X59577200Y-86880952D02*
X59624819Y-86976190D01*
X59624819Y-86976190D02*
X59624819Y-87071428D01*
X59624819Y-87071428D02*
X59577200Y-87166666D01*
X59577200Y-87166666D02*
X59529580Y-87214285D01*
X59529580Y-87214285D02*
X59434342Y-87261904D01*
X59434342Y-87261904D02*
X59243866Y-87309523D01*
X59243866Y-87309523D02*
X59005771Y-87309523D01*
X59005771Y-87309523D02*
X58815295Y-87261904D01*
X58815295Y-87261904D02*
X58720057Y-87214285D01*
X58720057Y-87214285D02*
X58672438Y-87166666D01*
X58672438Y-87166666D02*
X58624819Y-87071428D01*
X68738095Y-94454819D02*
X68738095Y-95264342D01*
X68738095Y-95264342D02*
X68785714Y-95359580D01*
X68785714Y-95359580D02*
X68833333Y-95407200D01*
X68833333Y-95407200D02*
X68928571Y-95454819D01*
X68928571Y-95454819D02*
X69119047Y-95454819D01*
X69119047Y-95454819D02*
X69214285Y-95407200D01*
X69214285Y-95407200D02*
X69261904Y-95359580D01*
X69261904Y-95359580D02*
X69309523Y-95264342D01*
X69309523Y-95264342D02*
X69309523Y-94454819D01*
X70309523Y-95454819D02*
X69738095Y-95454819D01*
X70023809Y-95454819D02*
X70023809Y-94454819D01*
X70023809Y-94454819D02*
X69928571Y-94597676D01*
X69928571Y-94597676D02*
X69833333Y-94692914D01*
X69833333Y-94692914D02*
X69738095Y-94740533D01*
X66833333Y-83784819D02*
X66500000Y-83308628D01*
X66261905Y-83784819D02*
X66261905Y-82784819D01*
X66261905Y-82784819D02*
X66642857Y-82784819D01*
X66642857Y-82784819D02*
X66738095Y-82832438D01*
X66738095Y-82832438D02*
X66785714Y-82880057D01*
X66785714Y-82880057D02*
X66833333Y-82975295D01*
X66833333Y-82975295D02*
X66833333Y-83118152D01*
X66833333Y-83118152D02*
X66785714Y-83213390D01*
X66785714Y-83213390D02*
X66738095Y-83261009D01*
X66738095Y-83261009D02*
X66642857Y-83308628D01*
X66642857Y-83308628D02*
X66261905Y-83308628D01*
X67404762Y-83213390D02*
X67309524Y-83165771D01*
X67309524Y-83165771D02*
X67261905Y-83118152D01*
X67261905Y-83118152D02*
X67214286Y-83022914D01*
X67214286Y-83022914D02*
X67214286Y-82975295D01*
X67214286Y-82975295D02*
X67261905Y-82880057D01*
X67261905Y-82880057D02*
X67309524Y-82832438D01*
X67309524Y-82832438D02*
X67404762Y-82784819D01*
X67404762Y-82784819D02*
X67595238Y-82784819D01*
X67595238Y-82784819D02*
X67690476Y-82832438D01*
X67690476Y-82832438D02*
X67738095Y-82880057D01*
X67738095Y-82880057D02*
X67785714Y-82975295D01*
X67785714Y-82975295D02*
X67785714Y-83022914D01*
X67785714Y-83022914D02*
X67738095Y-83118152D01*
X67738095Y-83118152D02*
X67690476Y-83165771D01*
X67690476Y-83165771D02*
X67595238Y-83213390D01*
X67595238Y-83213390D02*
X67404762Y-83213390D01*
X67404762Y-83213390D02*
X67309524Y-83261009D01*
X67309524Y-83261009D02*
X67261905Y-83308628D01*
X67261905Y-83308628D02*
X67214286Y-83403866D01*
X67214286Y-83403866D02*
X67214286Y-83594342D01*
X67214286Y-83594342D02*
X67261905Y-83689580D01*
X67261905Y-83689580D02*
X67309524Y-83737200D01*
X67309524Y-83737200D02*
X67404762Y-83784819D01*
X67404762Y-83784819D02*
X67595238Y-83784819D01*
X67595238Y-83784819D02*
X67690476Y-83737200D01*
X67690476Y-83737200D02*
X67738095Y-83689580D01*
X67738095Y-83689580D02*
X67785714Y-83594342D01*
X67785714Y-83594342D02*
X67785714Y-83403866D01*
X67785714Y-83403866D02*
X67738095Y-83308628D01*
X67738095Y-83308628D02*
X67690476Y-83261009D01*
X67690476Y-83261009D02*
X67595238Y-83213390D01*
X67333333Y-114784819D02*
X67000000Y-114308628D01*
X66761905Y-114784819D02*
X66761905Y-113784819D01*
X66761905Y-113784819D02*
X67142857Y-113784819D01*
X67142857Y-113784819D02*
X67238095Y-113832438D01*
X67238095Y-113832438D02*
X67285714Y-113880057D01*
X67285714Y-113880057D02*
X67333333Y-113975295D01*
X67333333Y-113975295D02*
X67333333Y-114118152D01*
X67333333Y-114118152D02*
X67285714Y-114213390D01*
X67285714Y-114213390D02*
X67238095Y-114261009D01*
X67238095Y-114261009D02*
X67142857Y-114308628D01*
X67142857Y-114308628D02*
X66761905Y-114308628D01*
X67809524Y-114784819D02*
X68000000Y-114784819D01*
X68000000Y-114784819D02*
X68095238Y-114737200D01*
X68095238Y-114737200D02*
X68142857Y-114689580D01*
X68142857Y-114689580D02*
X68238095Y-114546723D01*
X68238095Y-114546723D02*
X68285714Y-114356247D01*
X68285714Y-114356247D02*
X68285714Y-113975295D01*
X68285714Y-113975295D02*
X68238095Y-113880057D01*
X68238095Y-113880057D02*
X68190476Y-113832438D01*
X68190476Y-113832438D02*
X68095238Y-113784819D01*
X68095238Y-113784819D02*
X67904762Y-113784819D01*
X67904762Y-113784819D02*
X67809524Y-113832438D01*
X67809524Y-113832438D02*
X67761905Y-113880057D01*
X67761905Y-113880057D02*
X67714286Y-113975295D01*
X67714286Y-113975295D02*
X67714286Y-114213390D01*
X67714286Y-114213390D02*
X67761905Y-114308628D01*
X67761905Y-114308628D02*
X67809524Y-114356247D01*
X67809524Y-114356247D02*
X67904762Y-114403866D01*
X67904762Y-114403866D02*
X68095238Y-114403866D01*
X68095238Y-114403866D02*
X68190476Y-114356247D01*
X68190476Y-114356247D02*
X68238095Y-114308628D01*
X68238095Y-114308628D02*
X68285714Y-114213390D01*
X56333333Y-93009580D02*
X56285714Y-93057200D01*
X56285714Y-93057200D02*
X56142857Y-93104819D01*
X56142857Y-93104819D02*
X56047619Y-93104819D01*
X56047619Y-93104819D02*
X55904762Y-93057200D01*
X55904762Y-93057200D02*
X55809524Y-92961961D01*
X55809524Y-92961961D02*
X55761905Y-92866723D01*
X55761905Y-92866723D02*
X55714286Y-92676247D01*
X55714286Y-92676247D02*
X55714286Y-92533390D01*
X55714286Y-92533390D02*
X55761905Y-92342914D01*
X55761905Y-92342914D02*
X55809524Y-92247676D01*
X55809524Y-92247676D02*
X55904762Y-92152438D01*
X55904762Y-92152438D02*
X56047619Y-92104819D01*
X56047619Y-92104819D02*
X56142857Y-92104819D01*
X56142857Y-92104819D02*
X56285714Y-92152438D01*
X56285714Y-92152438D02*
X56333333Y-92200057D01*
X57238095Y-92104819D02*
X56761905Y-92104819D01*
X56761905Y-92104819D02*
X56714286Y-92581009D01*
X56714286Y-92581009D02*
X56761905Y-92533390D01*
X56761905Y-92533390D02*
X56857143Y-92485771D01*
X56857143Y-92485771D02*
X57095238Y-92485771D01*
X57095238Y-92485771D02*
X57190476Y-92533390D01*
X57190476Y-92533390D02*
X57238095Y-92581009D01*
X57238095Y-92581009D02*
X57285714Y-92676247D01*
X57285714Y-92676247D02*
X57285714Y-92914342D01*
X57285714Y-92914342D02*
X57238095Y-93009580D01*
X57238095Y-93009580D02*
X57190476Y-93057200D01*
X57190476Y-93057200D02*
X57095238Y-93104819D01*
X57095238Y-93104819D02*
X56857143Y-93104819D01*
X56857143Y-93104819D02*
X56761905Y-93057200D01*
X56761905Y-93057200D02*
X56714286Y-93009580D01*
X39333333Y-84784819D02*
X39000000Y-84308628D01*
X38761905Y-84784819D02*
X38761905Y-83784819D01*
X38761905Y-83784819D02*
X39142857Y-83784819D01*
X39142857Y-83784819D02*
X39238095Y-83832438D01*
X39238095Y-83832438D02*
X39285714Y-83880057D01*
X39285714Y-83880057D02*
X39333333Y-83975295D01*
X39333333Y-83975295D02*
X39333333Y-84118152D01*
X39333333Y-84118152D02*
X39285714Y-84213390D01*
X39285714Y-84213390D02*
X39238095Y-84261009D01*
X39238095Y-84261009D02*
X39142857Y-84308628D01*
X39142857Y-84308628D02*
X38761905Y-84308628D01*
X40190476Y-83784819D02*
X40000000Y-83784819D01*
X40000000Y-83784819D02*
X39904762Y-83832438D01*
X39904762Y-83832438D02*
X39857143Y-83880057D01*
X39857143Y-83880057D02*
X39761905Y-84022914D01*
X39761905Y-84022914D02*
X39714286Y-84213390D01*
X39714286Y-84213390D02*
X39714286Y-84594342D01*
X39714286Y-84594342D02*
X39761905Y-84689580D01*
X39761905Y-84689580D02*
X39809524Y-84737200D01*
X39809524Y-84737200D02*
X39904762Y-84784819D01*
X39904762Y-84784819D02*
X40095238Y-84784819D01*
X40095238Y-84784819D02*
X40190476Y-84737200D01*
X40190476Y-84737200D02*
X40238095Y-84689580D01*
X40238095Y-84689580D02*
X40285714Y-84594342D01*
X40285714Y-84594342D02*
X40285714Y-84356247D01*
X40285714Y-84356247D02*
X40238095Y-84261009D01*
X40238095Y-84261009D02*
X40190476Y-84213390D01*
X40190476Y-84213390D02*
X40095238Y-84165771D01*
X40095238Y-84165771D02*
X39904762Y-84165771D01*
X39904762Y-84165771D02*
X39809524Y-84213390D01*
X39809524Y-84213390D02*
X39761905Y-84261009D01*
X39761905Y-84261009D02*
X39714286Y-84356247D01*
X47804819Y-85238094D02*
X46804819Y-85238094D01*
X46804819Y-85238094D02*
X46804819Y-84999999D01*
X46804819Y-84999999D02*
X46852438Y-84857142D01*
X46852438Y-84857142D02*
X46947676Y-84761904D01*
X46947676Y-84761904D02*
X47042914Y-84714285D01*
X47042914Y-84714285D02*
X47233390Y-84666666D01*
X47233390Y-84666666D02*
X47376247Y-84666666D01*
X47376247Y-84666666D02*
X47566723Y-84714285D01*
X47566723Y-84714285D02*
X47661961Y-84761904D01*
X47661961Y-84761904D02*
X47757200Y-84857142D01*
X47757200Y-84857142D02*
X47804819Y-84999999D01*
X47804819Y-84999999D02*
X47804819Y-85238094D01*
X46900057Y-84285713D02*
X46852438Y-84238094D01*
X46852438Y-84238094D02*
X46804819Y-84142856D01*
X46804819Y-84142856D02*
X46804819Y-83904761D01*
X46804819Y-83904761D02*
X46852438Y-83809523D01*
X46852438Y-83809523D02*
X46900057Y-83761904D01*
X46900057Y-83761904D02*
X46995295Y-83714285D01*
X46995295Y-83714285D02*
X47090533Y-83714285D01*
X47090533Y-83714285D02*
X47233390Y-83761904D01*
X47233390Y-83761904D02*
X47804819Y-84333332D01*
X47804819Y-84333332D02*
X47804819Y-83714285D01*
X75289580Y-98666666D02*
X75337200Y-98714285D01*
X75337200Y-98714285D02*
X75384819Y-98857142D01*
X75384819Y-98857142D02*
X75384819Y-98952380D01*
X75384819Y-98952380D02*
X75337200Y-99095237D01*
X75337200Y-99095237D02*
X75241961Y-99190475D01*
X75241961Y-99190475D02*
X75146723Y-99238094D01*
X75146723Y-99238094D02*
X74956247Y-99285713D01*
X74956247Y-99285713D02*
X74813390Y-99285713D01*
X74813390Y-99285713D02*
X74622914Y-99238094D01*
X74622914Y-99238094D02*
X74527676Y-99190475D01*
X74527676Y-99190475D02*
X74432438Y-99095237D01*
X74432438Y-99095237D02*
X74384819Y-98952380D01*
X74384819Y-98952380D02*
X74384819Y-98857142D01*
X74384819Y-98857142D02*
X74432438Y-98714285D01*
X74432438Y-98714285D02*
X74480057Y-98666666D01*
X74384819Y-98333332D02*
X74384819Y-97714285D01*
X74384819Y-97714285D02*
X74765771Y-98047618D01*
X74765771Y-98047618D02*
X74765771Y-97904761D01*
X74765771Y-97904761D02*
X74813390Y-97809523D01*
X74813390Y-97809523D02*
X74861009Y-97761904D01*
X74861009Y-97761904D02*
X74956247Y-97714285D01*
X74956247Y-97714285D02*
X75194342Y-97714285D01*
X75194342Y-97714285D02*
X75289580Y-97761904D01*
X75289580Y-97761904D02*
X75337200Y-97809523D01*
X75337200Y-97809523D02*
X75384819Y-97904761D01*
X75384819Y-97904761D02*
X75384819Y-98190475D01*
X75384819Y-98190475D02*
X75337200Y-98285713D01*
X75337200Y-98285713D02*
X75289580Y-98333332D01*
X72429580Y-95666666D02*
X72477200Y-95714285D01*
X72477200Y-95714285D02*
X72524819Y-95857142D01*
X72524819Y-95857142D02*
X72524819Y-95952380D01*
X72524819Y-95952380D02*
X72477200Y-96095237D01*
X72477200Y-96095237D02*
X72381961Y-96190475D01*
X72381961Y-96190475D02*
X72286723Y-96238094D01*
X72286723Y-96238094D02*
X72096247Y-96285713D01*
X72096247Y-96285713D02*
X71953390Y-96285713D01*
X71953390Y-96285713D02*
X71762914Y-96238094D01*
X71762914Y-96238094D02*
X71667676Y-96190475D01*
X71667676Y-96190475D02*
X71572438Y-96095237D01*
X71572438Y-96095237D02*
X71524819Y-95952380D01*
X71524819Y-95952380D02*
X71524819Y-95857142D01*
X71524819Y-95857142D02*
X71572438Y-95714285D01*
X71572438Y-95714285D02*
X71620057Y-95666666D01*
X72524819Y-94714285D02*
X72524819Y-95285713D01*
X72524819Y-94999999D02*
X71524819Y-94999999D01*
X71524819Y-94999999D02*
X71667676Y-95095237D01*
X71667676Y-95095237D02*
X71762914Y-95190475D01*
X71762914Y-95190475D02*
X71810533Y-95285713D01*
X70284819Y-102666666D02*
X69808628Y-102999999D01*
X70284819Y-103238094D02*
X69284819Y-103238094D01*
X69284819Y-103238094D02*
X69284819Y-102857142D01*
X69284819Y-102857142D02*
X69332438Y-102761904D01*
X69332438Y-102761904D02*
X69380057Y-102714285D01*
X69380057Y-102714285D02*
X69475295Y-102666666D01*
X69475295Y-102666666D02*
X69618152Y-102666666D01*
X69618152Y-102666666D02*
X69713390Y-102714285D01*
X69713390Y-102714285D02*
X69761009Y-102761904D01*
X69761009Y-102761904D02*
X69808628Y-102857142D01*
X69808628Y-102857142D02*
X69808628Y-103238094D01*
X69618152Y-101809523D02*
X70284819Y-101809523D01*
X69237200Y-102047618D02*
X69951485Y-102285713D01*
X69951485Y-102285713D02*
X69951485Y-101666666D01*
X45709580Y-114666666D02*
X45757200Y-114714285D01*
X45757200Y-114714285D02*
X45804819Y-114857142D01*
X45804819Y-114857142D02*
X45804819Y-114952380D01*
X45804819Y-114952380D02*
X45757200Y-115095237D01*
X45757200Y-115095237D02*
X45661961Y-115190475D01*
X45661961Y-115190475D02*
X45566723Y-115238094D01*
X45566723Y-115238094D02*
X45376247Y-115285713D01*
X45376247Y-115285713D02*
X45233390Y-115285713D01*
X45233390Y-115285713D02*
X45042914Y-115238094D01*
X45042914Y-115238094D02*
X44947676Y-115190475D01*
X44947676Y-115190475D02*
X44852438Y-115095237D01*
X44852438Y-115095237D02*
X44804819Y-114952380D01*
X44804819Y-114952380D02*
X44804819Y-114857142D01*
X44804819Y-114857142D02*
X44852438Y-114714285D01*
X44852438Y-114714285D02*
X44900057Y-114666666D01*
X44804819Y-114333332D02*
X44804819Y-113666666D01*
X44804819Y-113666666D02*
X45804819Y-114095237D01*
X69284819Y-102666666D02*
X68808628Y-102999999D01*
X69284819Y-103238094D02*
X68284819Y-103238094D01*
X68284819Y-103238094D02*
X68284819Y-102857142D01*
X68284819Y-102857142D02*
X68332438Y-102761904D01*
X68332438Y-102761904D02*
X68380057Y-102714285D01*
X68380057Y-102714285D02*
X68475295Y-102666666D01*
X68475295Y-102666666D02*
X68618152Y-102666666D01*
X68618152Y-102666666D02*
X68713390Y-102714285D01*
X68713390Y-102714285D02*
X68761009Y-102761904D01*
X68761009Y-102761904D02*
X68808628Y-102857142D01*
X68808628Y-102857142D02*
X68808628Y-103238094D01*
X68380057Y-102285713D02*
X68332438Y-102238094D01*
X68332438Y-102238094D02*
X68284819Y-102142856D01*
X68284819Y-102142856D02*
X68284819Y-101904761D01*
X68284819Y-101904761D02*
X68332438Y-101809523D01*
X68332438Y-101809523D02*
X68380057Y-101761904D01*
X68380057Y-101761904D02*
X68475295Y-101714285D01*
X68475295Y-101714285D02*
X68570533Y-101714285D01*
X68570533Y-101714285D02*
X68713390Y-101761904D01*
X68713390Y-101761904D02*
X69284819Y-102333332D01*
X69284819Y-102333332D02*
X69284819Y-101714285D01*
X60404761Y-90950057D02*
X60309523Y-90902438D01*
X60309523Y-90902438D02*
X60214285Y-90807200D01*
X60214285Y-90807200D02*
X60071428Y-90664342D01*
X60071428Y-90664342D02*
X59976190Y-90616723D01*
X59976190Y-90616723D02*
X59880952Y-90616723D01*
X59928571Y-90854819D02*
X59833333Y-90807200D01*
X59833333Y-90807200D02*
X59738095Y-90711961D01*
X59738095Y-90711961D02*
X59690476Y-90521485D01*
X59690476Y-90521485D02*
X59690476Y-90188152D01*
X59690476Y-90188152D02*
X59738095Y-89997676D01*
X59738095Y-89997676D02*
X59833333Y-89902438D01*
X59833333Y-89902438D02*
X59928571Y-89854819D01*
X59928571Y-89854819D02*
X60119047Y-89854819D01*
X60119047Y-89854819D02*
X60214285Y-89902438D01*
X60214285Y-89902438D02*
X60309523Y-89997676D01*
X60309523Y-89997676D02*
X60357142Y-90188152D01*
X60357142Y-90188152D02*
X60357142Y-90521485D01*
X60357142Y-90521485D02*
X60309523Y-90711961D01*
X60309523Y-90711961D02*
X60214285Y-90807200D01*
X60214285Y-90807200D02*
X60119047Y-90854819D01*
X60119047Y-90854819D02*
X59928571Y-90854819D01*
X60690476Y-89854819D02*
X61309523Y-89854819D01*
X61309523Y-89854819D02*
X60976190Y-90235771D01*
X60976190Y-90235771D02*
X61119047Y-90235771D01*
X61119047Y-90235771D02*
X61214285Y-90283390D01*
X61214285Y-90283390D02*
X61261904Y-90331009D01*
X61261904Y-90331009D02*
X61309523Y-90426247D01*
X61309523Y-90426247D02*
X61309523Y-90664342D01*
X61309523Y-90664342D02*
X61261904Y-90759580D01*
X61261904Y-90759580D02*
X61214285Y-90807200D01*
X61214285Y-90807200D02*
X61119047Y-90854819D01*
X61119047Y-90854819D02*
X60833333Y-90854819D01*
X60833333Y-90854819D02*
X60738095Y-90807200D01*
X60738095Y-90807200D02*
X60690476Y-90759580D01*
X32761905Y-85954819D02*
X32761905Y-84954819D01*
X32761905Y-84954819D02*
X33000000Y-84954819D01*
X33000000Y-84954819D02*
X33142857Y-85002438D01*
X33142857Y-85002438D02*
X33238095Y-85097676D01*
X33238095Y-85097676D02*
X33285714Y-85192914D01*
X33285714Y-85192914D02*
X33333333Y-85383390D01*
X33333333Y-85383390D02*
X33333333Y-85526247D01*
X33333333Y-85526247D02*
X33285714Y-85716723D01*
X33285714Y-85716723D02*
X33238095Y-85811961D01*
X33238095Y-85811961D02*
X33142857Y-85907200D01*
X33142857Y-85907200D02*
X33000000Y-85954819D01*
X33000000Y-85954819D02*
X32761905Y-85954819D01*
X33666667Y-84954819D02*
X34285714Y-84954819D01*
X34285714Y-84954819D02*
X33952381Y-85335771D01*
X33952381Y-85335771D02*
X34095238Y-85335771D01*
X34095238Y-85335771D02*
X34190476Y-85383390D01*
X34190476Y-85383390D02*
X34238095Y-85431009D01*
X34238095Y-85431009D02*
X34285714Y-85526247D01*
X34285714Y-85526247D02*
X34285714Y-85764342D01*
X34285714Y-85764342D02*
X34238095Y-85859580D01*
X34238095Y-85859580D02*
X34190476Y-85907200D01*
X34190476Y-85907200D02*
X34095238Y-85954819D01*
X34095238Y-85954819D02*
X33809524Y-85954819D01*
X33809524Y-85954819D02*
X33714286Y-85907200D01*
X33714286Y-85907200D02*
X33666667Y-85859580D01*
X64404761Y-90950057D02*
X64309523Y-90902438D01*
X64309523Y-90902438D02*
X64214285Y-90807200D01*
X64214285Y-90807200D02*
X64071428Y-90664342D01*
X64071428Y-90664342D02*
X63976190Y-90616723D01*
X63976190Y-90616723D02*
X63880952Y-90616723D01*
X63928571Y-90854819D02*
X63833333Y-90807200D01*
X63833333Y-90807200D02*
X63738095Y-90711961D01*
X63738095Y-90711961D02*
X63690476Y-90521485D01*
X63690476Y-90521485D02*
X63690476Y-90188152D01*
X63690476Y-90188152D02*
X63738095Y-89997676D01*
X63738095Y-89997676D02*
X63833333Y-89902438D01*
X63833333Y-89902438D02*
X63928571Y-89854819D01*
X63928571Y-89854819D02*
X64119047Y-89854819D01*
X64119047Y-89854819D02*
X64214285Y-89902438D01*
X64214285Y-89902438D02*
X64309523Y-89997676D01*
X64309523Y-89997676D02*
X64357142Y-90188152D01*
X64357142Y-90188152D02*
X64357142Y-90521485D01*
X64357142Y-90521485D02*
X64309523Y-90711961D01*
X64309523Y-90711961D02*
X64214285Y-90807200D01*
X64214285Y-90807200D02*
X64119047Y-90854819D01*
X64119047Y-90854819D02*
X63928571Y-90854819D01*
X65309523Y-90854819D02*
X64738095Y-90854819D01*
X65023809Y-90854819D02*
X65023809Y-89854819D01*
X65023809Y-89854819D02*
X64928571Y-89997676D01*
X64928571Y-89997676D02*
X64833333Y-90092914D01*
X64833333Y-90092914D02*
X64738095Y-90140533D01*
X39716666Y-85184819D02*
X39716666Y-85899104D01*
X39716666Y-85899104D02*
X39669047Y-86041961D01*
X39669047Y-86041961D02*
X39573809Y-86137200D01*
X39573809Y-86137200D02*
X39430952Y-86184819D01*
X39430952Y-86184819D02*
X39335714Y-86184819D01*
X40621428Y-85518152D02*
X40621428Y-86184819D01*
X40383333Y-85137200D02*
X40145238Y-85851485D01*
X40145238Y-85851485D02*
X40764285Y-85851485D01*
X60333333Y-90509580D02*
X60285714Y-90557200D01*
X60285714Y-90557200D02*
X60142857Y-90604819D01*
X60142857Y-90604819D02*
X60047619Y-90604819D01*
X60047619Y-90604819D02*
X59904762Y-90557200D01*
X59904762Y-90557200D02*
X59809524Y-90461961D01*
X59809524Y-90461961D02*
X59761905Y-90366723D01*
X59761905Y-90366723D02*
X59714286Y-90176247D01*
X59714286Y-90176247D02*
X59714286Y-90033390D01*
X59714286Y-90033390D02*
X59761905Y-89842914D01*
X59761905Y-89842914D02*
X59809524Y-89747676D01*
X59809524Y-89747676D02*
X59904762Y-89652438D01*
X59904762Y-89652438D02*
X60047619Y-89604819D01*
X60047619Y-89604819D02*
X60142857Y-89604819D01*
X60142857Y-89604819D02*
X60285714Y-89652438D01*
X60285714Y-89652438D02*
X60333333Y-89700057D01*
X61190476Y-89604819D02*
X61000000Y-89604819D01*
X61000000Y-89604819D02*
X60904762Y-89652438D01*
X60904762Y-89652438D02*
X60857143Y-89700057D01*
X60857143Y-89700057D02*
X60761905Y-89842914D01*
X60761905Y-89842914D02*
X60714286Y-90033390D01*
X60714286Y-90033390D02*
X60714286Y-90414342D01*
X60714286Y-90414342D02*
X60761905Y-90509580D01*
X60761905Y-90509580D02*
X60809524Y-90557200D01*
X60809524Y-90557200D02*
X60904762Y-90604819D01*
X60904762Y-90604819D02*
X61095238Y-90604819D01*
X61095238Y-90604819D02*
X61190476Y-90557200D01*
X61190476Y-90557200D02*
X61238095Y-90509580D01*
X61238095Y-90509580D02*
X61285714Y-90414342D01*
X61285714Y-90414342D02*
X61285714Y-90176247D01*
X61285714Y-90176247D02*
X61238095Y-90081009D01*
X61238095Y-90081009D02*
X61190476Y-90033390D01*
X61190476Y-90033390D02*
X61095238Y-89985771D01*
X61095238Y-89985771D02*
X60904762Y-89985771D01*
X60904762Y-89985771D02*
X60809524Y-90033390D01*
X60809524Y-90033390D02*
X60761905Y-90081009D01*
X60761905Y-90081009D02*
X60714286Y-90176247D01*
X59854819Y-116761904D02*
X60664342Y-116761904D01*
X60664342Y-116761904D02*
X60759580Y-116714285D01*
X60759580Y-116714285D02*
X60807200Y-116666666D01*
X60807200Y-116666666D02*
X60854819Y-116571428D01*
X60854819Y-116571428D02*
X60854819Y-116380952D01*
X60854819Y-116380952D02*
X60807200Y-116285714D01*
X60807200Y-116285714D02*
X60759580Y-116238095D01*
X60759580Y-116238095D02*
X60664342Y-116190476D01*
X60664342Y-116190476D02*
X59854819Y-116190476D01*
X59854819Y-115809523D02*
X59854819Y-115190476D01*
X59854819Y-115190476D02*
X60235771Y-115523809D01*
X60235771Y-115523809D02*
X60235771Y-115380952D01*
X60235771Y-115380952D02*
X60283390Y-115285714D01*
X60283390Y-115285714D02*
X60331009Y-115238095D01*
X60331009Y-115238095D02*
X60426247Y-115190476D01*
X60426247Y-115190476D02*
X60664342Y-115190476D01*
X60664342Y-115190476D02*
X60759580Y-115238095D01*
X60759580Y-115238095D02*
X60807200Y-115285714D01*
X60807200Y-115285714D02*
X60854819Y-115380952D01*
X60854819Y-115380952D02*
X60854819Y-115666666D01*
X60854819Y-115666666D02*
X60807200Y-115761904D01*
X60807200Y-115761904D02*
X60759580Y-115809523D01*
D11*
G04 #@! TO.C,R1*
X68620000Y-102653641D02*
X68620000Y-102346359D01*
X69380000Y-102653641D02*
X69380000Y-102346359D01*
G04 #@! TO.C,U2*
X61100000Y-83110000D02*
X63900000Y-83110000D01*
X61100000Y-84490000D02*
X61100000Y-83110000D01*
X61500000Y-84890000D02*
X61100000Y-84490000D01*
X63900000Y-83110000D02*
X63900000Y-84890000D01*
X63900000Y-84890000D02*
X61500000Y-84890000D01*
X61050000Y-85450000D02*
X60550000Y-84950000D01*
X61050000Y-84950000D01*
X61050000Y-85450000D01*
G36*
X61050000Y-85450000D02*
G01*
X60550000Y-84950000D01*
X61050000Y-84950000D01*
X61050000Y-85450000D01*
G37*
D10*
G04 #@! TO.C,J2*
X47400000Y-114635000D02*
X47400000Y-112750000D01*
X47400000Y-118650000D02*
X47400000Y-117175000D01*
X56600000Y-114635000D02*
X56600000Y-112750000D01*
X56600000Y-118650000D02*
X47400000Y-118650000D01*
X56600000Y-118650000D02*
X56600000Y-117175000D01*
D11*
G04 #@! TO.C,TP2*
X65950000Y-92000000D02*
G75*
G02*
X64050000Y-92000000I-950000J0D01*
G01*
X64050000Y-92000000D02*
G75*
G02*
X65950000Y-92000000I950000J0D01*
G01*
G04 #@! TO.C,R5*
X67153641Y-83120000D02*
X66846359Y-83120000D01*
X67153641Y-83880000D02*
X66846359Y-83880000D01*
G04 #@! TO.C,C2*
X65140580Y-97490000D02*
X64859420Y-97490000D01*
X65140580Y-98510000D02*
X64859420Y-98510000D01*
G04 #@! TO.C,Q4*
X60500000Y-110440000D02*
X59850000Y-110440000D01*
X60500000Y-110440000D02*
X61150000Y-110440000D01*
X60500000Y-113560000D02*
X59850000Y-113560000D01*
X60500000Y-113560000D02*
X61150000Y-113560000D01*
X61902500Y-113840000D02*
X61422500Y-113840000D01*
X61662500Y-113510000D01*
X61902500Y-113840000D01*
G36*
X61902500Y-113840000D02*
G01*
X61422500Y-113840000D01*
X61662500Y-113510000D01*
X61902500Y-113840000D01*
G37*
G04 #@! TO.C,D1*
X44650000Y-89610000D02*
X44650000Y-86950000D01*
X44650000Y-89610000D02*
X46350000Y-89610000D01*
X46350000Y-89610000D02*
X46350000Y-86950000D01*
G04 #@! TO.C,J3*
X24735000Y-87220000D02*
X24735000Y-112740000D01*
X24735000Y-87220000D02*
X33365000Y-87220000D01*
X24735000Y-87340000D02*
X33365000Y-87340000D01*
X24735000Y-87458095D02*
X33365000Y-87458095D01*
X24735000Y-87576190D02*
X33365000Y-87576190D01*
X24735000Y-87694285D02*
X33365000Y-87694285D01*
X24735000Y-87812380D02*
X33365000Y-87812380D01*
X24735000Y-87930475D02*
X33365000Y-87930475D01*
X24735000Y-88048570D02*
X33365000Y-88048570D01*
X24735000Y-88166665D02*
X33365000Y-88166665D01*
X24735000Y-88284760D02*
X33365000Y-88284760D01*
X24735000Y-88402855D02*
X33365000Y-88402855D01*
X24735000Y-88520950D02*
X33365000Y-88520950D01*
X24735000Y-88639045D02*
X33365000Y-88639045D01*
X24735000Y-88757140D02*
X33365000Y-88757140D01*
X24735000Y-88875235D02*
X33365000Y-88875235D01*
X24735000Y-88993330D02*
X33365000Y-88993330D01*
X24735000Y-89111425D02*
X33365000Y-89111425D01*
X24735000Y-89229520D02*
X33365000Y-89229520D01*
X24735000Y-89347615D02*
X33365000Y-89347615D01*
X24735000Y-89465710D02*
X33365000Y-89465710D01*
X24735000Y-89583805D02*
X33365000Y-89583805D01*
X24735000Y-89701900D02*
X33365000Y-89701900D01*
X24735000Y-89820000D02*
X33365000Y-89820000D01*
X24735000Y-92360000D02*
X33365000Y-92360000D01*
X24735000Y-94900000D02*
X33365000Y-94900000D01*
X24735000Y-97440000D02*
X33365000Y-97440000D01*
X24735000Y-99980000D02*
X33365000Y-99980000D01*
X24735000Y-102520000D02*
X33365000Y-102520000D01*
X24735000Y-105060000D02*
X33365000Y-105060000D01*
X24735000Y-107600000D02*
X33365000Y-107600000D01*
X24735000Y-110140000D02*
X33365000Y-110140000D01*
X24735000Y-112740000D02*
X33365000Y-112740000D01*
X33365000Y-87220000D02*
X33365000Y-112740000D01*
X33365000Y-88190000D02*
X33715000Y-88190000D01*
X33365000Y-88910000D02*
X33715000Y-88910000D01*
X33365000Y-90730000D02*
X33775000Y-90730000D01*
X33365000Y-91450000D02*
X33775000Y-91450000D01*
X33365000Y-93270000D02*
X33775000Y-93270000D01*
X33365000Y-93990000D02*
X33775000Y-93990000D01*
X33365000Y-95810000D02*
X33775000Y-95810000D01*
X33365000Y-96530000D02*
X33775000Y-96530000D01*
X33365000Y-98350000D02*
X33775000Y-98350000D01*
X33365000Y-99070000D02*
X33775000Y-99070000D01*
X33365000Y-100890000D02*
X33775000Y-100890000D01*
X33365000Y-101610000D02*
X33775000Y-101610000D01*
X33365000Y-103430000D02*
X33775000Y-103430000D01*
X33365000Y-104150000D02*
X33775000Y-104150000D01*
X33365000Y-105970000D02*
X33775000Y-105970000D01*
X33365000Y-106690000D02*
X33775000Y-106690000D01*
X33365000Y-108510000D02*
X33775000Y-108510000D01*
X33365000Y-109230000D02*
X33775000Y-109230000D01*
X33365000Y-111050000D02*
X33775000Y-111050000D01*
X33365000Y-111770000D02*
X33775000Y-111770000D01*
X34825000Y-87220000D02*
X35935000Y-87220000D01*
X35935000Y-87220000D02*
X35935000Y-88550000D01*
G04 #@! TO.C,TP1*
X67450000Y-102500000D02*
G75*
G02*
X65550000Y-102500000I-950000J0D01*
G01*
X65550000Y-102500000D02*
G75*
G02*
X67450000Y-102500000I950000J0D01*
G01*
G04 #@! TO.C,D5*
X57540000Y-113815000D02*
X57540000Y-116500000D01*
X59460000Y-113815000D02*
X57540000Y-113815000D01*
X59460000Y-116500000D02*
X59460000Y-113815000D01*
D10*
G04 #@! TO.C,J1*
X47400000Y-81350000D02*
X47400000Y-82825000D01*
X47400000Y-81350000D02*
X56600000Y-81350000D01*
X47400000Y-85365000D02*
X47400000Y-87250000D01*
X56600000Y-81350000D02*
X56600000Y-82825000D01*
X56600000Y-85365000D02*
X56600000Y-87250000D01*
D11*
G04 #@! TO.C,R7*
X67653641Y-116120000D02*
X67346359Y-116120000D01*
X67653641Y-116880000D02*
X67346359Y-116880000D01*
G04 #@! TO.C,Q2*
X64500000Y-110440000D02*
X63850000Y-110440000D01*
X64500000Y-110440000D02*
X65150000Y-110440000D01*
X64500000Y-113560000D02*
X63850000Y-113560000D01*
X64500000Y-113560000D02*
X65150000Y-113560000D01*
X65902500Y-113840000D02*
X65422500Y-113840000D01*
X65662500Y-113510000D01*
X65902500Y-113840000D01*
G36*
X65902500Y-113840000D02*
G01*
X65422500Y-113840000D01*
X65662500Y-113510000D01*
X65902500Y-113840000D01*
G37*
G04 #@! TO.C,C4*
X44840000Y-113788748D02*
X44840000Y-115211252D01*
X46660000Y-113788748D02*
X46660000Y-115211252D01*
G04 #@! TO.C,R3*
X71620000Y-102653641D02*
X71620000Y-102346359D01*
X72380000Y-102653641D02*
X72380000Y-102346359D01*
G04 #@! TO.C,J5*
X42840000Y-99850000D02*
X42840000Y-105150000D01*
X60730000Y-99850000D02*
X42840000Y-99850000D01*
X60730000Y-99850000D02*
X60730000Y-102500000D01*
X60730000Y-102500000D02*
X63380000Y-102500000D01*
X62000000Y-99850000D02*
X63380000Y-99850000D01*
X63380000Y-99850000D02*
X63380000Y-101230000D01*
X63380000Y-102500000D02*
X63380000Y-105150000D01*
X63380000Y-105150000D02*
X42840000Y-105150000D01*
G04 #@! TO.C,R11*
X57620000Y-112153641D02*
X57620000Y-111846359D01*
X58380000Y-112153641D02*
X58380000Y-111846359D01*
G04 #@! TO.C,D4*
X57540000Y-83500000D02*
X57540000Y-86185000D01*
X57540000Y-86185000D02*
X59460000Y-86185000D01*
X59460000Y-86185000D02*
X59460000Y-83500000D01*
G04 #@! TO.C,R10*
X57620000Y-87846359D02*
X57620000Y-88153641D01*
X58380000Y-87846359D02*
X58380000Y-88153641D01*
G04 #@! TO.C,U1*
X68050000Y-98950000D02*
X68050000Y-98700000D01*
X68700000Y-96050000D02*
X68000000Y-96050000D01*
X68700000Y-98950000D02*
X68050000Y-98950000D01*
X70300000Y-96050000D02*
X70950000Y-96050000D01*
X70300000Y-98950000D02*
X70950000Y-98950000D01*
X70950000Y-96050000D02*
X70950000Y-96300000D01*
X70950000Y-98950000D02*
X70950000Y-98700000D01*
G04 #@! TO.C,R8*
X66846359Y-84120000D02*
X67153641Y-84120000D01*
X66846359Y-84880000D02*
X67153641Y-84880000D01*
G04 #@! TO.C,U4*
X67890000Y-108847500D02*
X67890000Y-108372500D01*
X68115000Y-106127500D02*
X67890000Y-106127500D01*
X68115000Y-108847500D02*
X67890000Y-108847500D01*
X70385000Y-106127500D02*
X70610000Y-106127500D01*
X70385000Y-108847500D02*
X70610000Y-108847500D01*
X70610000Y-106127500D02*
X70610000Y-106602500D01*
X70610000Y-108847500D02*
X70610000Y-108372500D01*
G04 #@! TO.C,R9*
X67346359Y-115120000D02*
X67653641Y-115120000D01*
X67346359Y-115880000D02*
X67653641Y-115880000D01*
G04 #@! TO.C,C5*
X55788748Y-93590000D02*
X57211252Y-93590000D01*
X55788748Y-95410000D02*
X57211252Y-95410000D01*
G04 #@! TO.C,R6*
X39346359Y-85120000D02*
X39653641Y-85120000D01*
X39346359Y-85880000D02*
X39653641Y-85880000D01*
G04 #@! TO.C,D2*
X44650000Y-82890000D02*
X44650000Y-85550000D01*
X46350000Y-82890000D02*
X44650000Y-82890000D01*
X46350000Y-82890000D02*
X46350000Y-85550000D01*
G04 #@! TO.C,C3*
X72990000Y-98359420D02*
X72990000Y-98640580D01*
X74010000Y-98359420D02*
X74010000Y-98640580D01*
G04 #@! TO.C,C1*
X72990000Y-95640580D02*
X72990000Y-95359420D01*
X74010000Y-95640580D02*
X74010000Y-95359420D01*
G04 #@! TO.C,R4*
X70620000Y-102653641D02*
X70620000Y-102346359D01*
X71380000Y-102653641D02*
X71380000Y-102346359D01*
G04 #@! TO.C,C7*
X42590000Y-113788748D02*
X42590000Y-115211252D01*
X44410000Y-113788748D02*
X44410000Y-115211252D01*
G04 #@! TO.C,R2*
X69620000Y-102653641D02*
X69620000Y-102346359D01*
X70380000Y-102653641D02*
X70380000Y-102346359D01*
G04 #@! TO.C,Q3*
X60500000Y-86440000D02*
X59850000Y-86440000D01*
X60500000Y-86440000D02*
X61150000Y-86440000D01*
X60500000Y-89560000D02*
X59850000Y-89560000D01*
X60500000Y-89560000D02*
X61150000Y-89560000D01*
X61902500Y-89840000D02*
X61422500Y-89840000D01*
X61662500Y-89510000D01*
X61902500Y-89840000D01*
G36*
X61902500Y-89840000D02*
G01*
X61422500Y-89840000D01*
X61662500Y-89510000D01*
X61902500Y-89840000D01*
G37*
G04 #@! TO.C,D3*
X35500000Y-86460000D02*
X38185000Y-86460000D01*
X38185000Y-84540000D02*
X35500000Y-84540000D01*
X38185000Y-86460000D02*
X38185000Y-84540000D01*
G04 #@! TO.C,Q1*
X64500000Y-86440000D02*
X63850000Y-86440000D01*
X64500000Y-86440000D02*
X65150000Y-86440000D01*
X64500000Y-89560000D02*
X63850000Y-89560000D01*
X64500000Y-89560000D02*
X65150000Y-89560000D01*
X65902500Y-89840000D02*
X65422500Y-89840000D01*
X65662500Y-89510000D01*
X65902500Y-89840000D01*
G36*
X65902500Y-89840000D02*
G01*
X65422500Y-89840000D01*
X65662500Y-89510000D01*
X65902500Y-89840000D01*
G37*
G04 #@! TO.C,J4*
X38720000Y-89770000D02*
X38720000Y-112690000D01*
X38720000Y-89770000D02*
X41380000Y-89770000D01*
X38720000Y-112690000D02*
X41380000Y-112690000D01*
X40050000Y-87170000D02*
X41380000Y-87170000D01*
X41380000Y-87170000D02*
X41380000Y-88500000D01*
X41380000Y-89770000D02*
X41380000Y-112690000D01*
G04 #@! TO.C,C6*
X59788748Y-91090000D02*
X61211252Y-91090000D01*
X59788748Y-92910000D02*
X61211252Y-92910000D01*
G04 #@! TO.C,U3*
X61600000Y-115110000D02*
X64400000Y-115110000D01*
X61600000Y-116490000D02*
X61600000Y-115110000D01*
X62000000Y-116890000D02*
X61600000Y-116490000D01*
X64400000Y-115110000D02*
X64400000Y-116890000D01*
X64400000Y-116890000D02*
X62000000Y-116890000D01*
X61550000Y-117450000D02*
X61050000Y-116950000D01*
X61550000Y-116950000D01*
X61550000Y-117450000D01*
G36*
X61550000Y-117450000D02*
G01*
X61050000Y-116950000D01*
X61550000Y-116950000D01*
X61550000Y-117450000D01*
G37*
G04 #@! TD*
M02*
