<?xml version="1.0" standalone="no"?>
 <!DOCTYPE svg PUBLIC "-//W3C//DTD SVG 1.1//EN" 
 "http://www.w3.org/Graphics/SVG/1.1/DTD/svg11.dtd"> 
<svg
  xmlns:svg="http://www.w3.org/2000/svg"
  xmlns="http://www.w3.org/2000/svg"
  xmlns:xlink="http://www.w3.org/1999/xlink"
  version="1.1"
  width="27.940000cm" height="21.590000cm" viewBox="0 0 110000 85000">
<title>SVG Picture created as esp8266-wiz550io-F_Mask.svg date 2021/04/17 07:34:25 </title>
  <desc>Picture generated by PCBNEW </desc>
<g style="fill:#000000; fill-opacity:1;stroke:#000000; stroke-opacity:1;
stroke-linecap:round; stroke-linejoin:round;"
 transform="translate(0 0) scale(1 1)">
</g>
<g style="fill:#000000; fill-opacity:0.0; 
stroke:#000000; stroke-width:-0.000393701; stroke-opacity:1; 
stroke-linecap:round; stroke-linejoin:round;">
<g >
</g>
<g style="fill:#000000; fill-opacity:0.0; 
stroke:#000000; stroke-width:0; stroke-opacity:1; 
stroke-linecap:round; stroke-linejoin:round;">
</g>
<g style="fill:#000000; fill-opacity:1.0; 
stroke:#000000; stroke-width:0; stroke-opacity:1; 
stroke-linecap:round; stroke-linejoin:round;">
<path style="fill:#000000; fill-opacity:1.0; 
stroke:#000000; stroke-width:0; stroke-opacity:1; 
stroke-linecap:round; stroke-linejoin:round;fill-rule:evenodd;"
d="M 22563,22326.8
22996.1,22326.8
22996.1,23311
22563,23311
Z" /> 
<path style="fill:#000000; fill-opacity:1.0; 
stroke:#000000; stroke-width:0; stroke-opacity:1; 
stroke-linecap:round; stroke-linejoin:round;fill-rule:evenodd;"
d="M 23350.4,22326.8
23783.5,22326.8
23783.5,23311
23350.4,23311
Z" /> 
<path style="fill:#000000; fill-opacity:1.0; 
stroke:#000000; stroke-width:0; stroke-opacity:1; 
stroke-linecap:round; stroke-linejoin:round;fill-rule:evenodd;"
d="M 24137.8,22326.8
24570.9,22326.8
24570.9,23311
24137.8,23311
Z" /> 
<path style="fill:#000000; fill-opacity:1.0; 
stroke:#000000; stroke-width:0; stroke-opacity:1; 
stroke-linecap:round; stroke-linejoin:round;fill-rule:evenodd;"
d="M 24925.2,22326.8
25358.3,22326.8
25358.3,23311
24925.2,23311
Z" /> 
<path style="fill:#000000; fill-opacity:1.0; 
stroke:#000000; stroke-width:0; stroke-opacity:1; 
stroke-linecap:round; stroke-linejoin:round;fill-rule:evenodd;"
d="M 25712.6,22326.8
26145.7,22326.8
26145.7,23311
25712.6,23311
Z" /> 
<path style="fill:#000000; fill-opacity:1.0; 
stroke:#000000; stroke-width:0; stroke-opacity:1; 
stroke-linecap:round; stroke-linejoin:round;fill-rule:evenodd;"
d="M 26500,22326.8
26933.1,22326.8
26933.1,23311
26500,23311
Z" /> 
<path style="fill:#000000; fill-opacity:1.0; 
stroke:#000000; stroke-width:0; stroke-opacity:1; 
stroke-linecap:round; stroke-linejoin:round;fill-rule:evenodd;"
d="M 22204.7,28783.5
22204.7,29216.5
21220.5,29216.5
21220.5,28783.5
Z" /> 
<path style="fill:#000000; fill-opacity:1.0; 
stroke:#000000; stroke-width:0; stroke-opacity:1; 
stroke-linecap:round; stroke-linejoin:round;fill-rule:evenodd;"
d="M 22204.7,27996.1
22204.7,28429.1
21220.5,28429.1
21220.5,27996.1
Z" /> 
<path style="fill:#000000; fill-opacity:1.0; 
stroke:#000000; stroke-width:0; stroke-opacity:1; 
stroke-linecap:round; stroke-linejoin:round;fill-rule:evenodd;"
d="M 22204.7,27208.7
22204.7,27641.7
21220.5,27641.7
21220.5,27208.7
Z" /> 
<path style="fill:#000000; fill-opacity:1.0; 
stroke:#000000; stroke-width:0; stroke-opacity:1; 
stroke-linecap:round; stroke-linejoin:round;fill-rule:evenodd;"
d="M 22204.7,26421.3
22204.7,26854.3
21220.5,26854.3
21220.5,26421.3
Z" /> 
<path style="fill:#000000; fill-opacity:1.0; 
stroke:#000000; stroke-width:0; stroke-opacity:1; 
stroke-linecap:round; stroke-linejoin:round;fill-rule:evenodd;"
d="M 22204.7,25633.9
22204.7,26066.9
21220.5,26066.9
21220.5,25633.9
Z" /> 
<path style="fill:#000000; fill-opacity:1.0; 
stroke:#000000; stroke-width:0; stroke-opacity:1; 
stroke-linecap:round; stroke-linejoin:round;fill-rule:evenodd;"
d="M 22204.7,24846.5
22204.7,25279.5
21220.5,25279.5
21220.5,24846.5
Z" /> 
<path style="fill:#000000; fill-opacity:1.0; 
stroke:#000000; stroke-width:0; stroke-opacity:1; 
stroke-linecap:round; stroke-linejoin:round;fill-rule:evenodd;"
d="M 22204.7,24059.1
22204.7,24492.1
21220.5,24492.1
21220.5,24059.1
Z" /> 
<path style="fill:#000000; fill-opacity:1.0; 
stroke:#000000; stroke-width:0; stroke-opacity:1; 
stroke-linecap:round; stroke-linejoin:round;fill-rule:evenodd;"
d="M 22204.7,23271.7
22204.7,23704.7
21220.5,23704.7
21220.5,23271.7
Z" /> 
<path style="fill:#000000; fill-opacity:1.0; 
stroke:#000000; stroke-width:0; stroke-opacity:1; 
stroke-linecap:round; stroke-linejoin:round;fill-rule:evenodd;"
d="M 28267.7,23271.7
28267.7,23704.7
27283.5,23704.7
27283.5,23271.7
Z" /> 
<path style="fill:#000000; fill-opacity:1.0; 
stroke:#000000; stroke-width:0; stroke-opacity:1; 
stroke-linecap:round; stroke-linejoin:round;fill-rule:evenodd;"
d="M 28267.7,24059.1
28267.7,24492.1
27283.5,24492.1
27283.5,24059.1
Z" /> 
<path style="fill:#000000; fill-opacity:1.0; 
stroke:#000000; stroke-width:0; stroke-opacity:1; 
stroke-linecap:round; stroke-linejoin:round;fill-rule:evenodd;"
d="M 28267.7,24846.5
28267.7,25279.5
27283.5,25279.5
27283.5,24846.5
Z" /> 
<path style="fill:#000000; fill-opacity:1.0; 
stroke:#000000; stroke-width:0; stroke-opacity:1; 
stroke-linecap:round; stroke-linejoin:round;fill-rule:evenodd;"
d="M 28267.7,25633.9
28267.7,26066.9
27283.5,26066.9
27283.5,25633.9
Z" /> 
<path style="fill:#000000; fill-opacity:1.0; 
stroke:#000000; stroke-width:0; stroke-opacity:1; 
stroke-linecap:round; stroke-linejoin:round;fill-rule:evenodd;"
d="M 28267.7,26421.3
28267.7,26854.3
27283.5,26854.3
27283.5,26421.3
Z" /> 
<path style="fill:#000000; fill-opacity:1.0; 
stroke:#000000; stroke-width:0; stroke-opacity:1; 
stroke-linecap:round; stroke-linejoin:round;fill-rule:evenodd;"
d="M 28267.7,27208.7
28267.7,27641.7
27283.5,27641.7
27283.5,27208.7
Z" /> 
<path style="fill:#000000; fill-opacity:1.0; 
stroke:#000000; stroke-width:0; stroke-opacity:1; 
stroke-linecap:round; stroke-linejoin:round;fill-rule:evenodd;"
d="M 28267.7,27996.1
28267.7,28429.1
27283.5,28429.1
27283.5,27996.1
Z" /> 
<path style="fill:#000000; fill-opacity:1.0; 
stroke:#000000; stroke-width:0; stroke-opacity:1; 
stroke-linecap:round; stroke-linejoin:round;fill-rule:evenodd;"
d="M 28267.7,28783.5
28267.7,29216.5
27283.5,29216.5
27283.5,28783.5
Z" /> 
</g>
<g >
</g>
<g style="fill:#000000; fill-opacity:1.0; 
stroke:#000000; stroke-width:0; stroke-opacity:1; 
stroke-linecap:round; stroke-linejoin:round;">
<circle cx="30000" cy="12273.6" r="334.646" /> 
<path style="fill:#000000; fill-opacity:1.0; 
stroke:#000000; stroke-width:0; stroke-opacity:1; 
stroke-linecap:round; stroke-linejoin:round;fill-rule:evenodd;"
d="M 29665.4,11608.3
29665.4,10939
30334.6,10939
30334.6,11608.3
Z" /> 
</g>
<g >
</g>
<g style="fill:#000000; fill-opacity:1.0; 
stroke:#000000; stroke-width:0; stroke-opacity:1; 
stroke-linecap:round; stroke-linejoin:round;">
<path style="fill:#000000; fill-opacity:1.0; 
stroke:#000000; stroke-width:0; stroke-opacity:1; 
stroke-linecap:round; stroke-linejoin:round;fill-rule:evenodd;"
d="M 22974.5,15224.9
22983.8,15226.3
22992.9,15228.5
23001.8,15231.7
23010.3,15235.7
23018.4,15240.6
23025.9,15246.2
23032.9,15252.5
23039.2,15259.5
23044.9,15267.1
23049.7,15275.1
23053.7,15283.6
23056.9,15292.5
23059.2,15301.7
23060.6,15311
23061,15320.4
23061,15679.6
23060.6,15689
23059.2,15698.3
23056.9,15707.5
23053.7,15716.4
23049.7,15724.9
23044.9,15732.9
23039.2,15740.5
23032.9,15747.5
23025.9,15753.8
23018.4,15759.4
23010.3,15764.3
23001.8,15768.3
22992.9,15771.5
22983.8,15773.7
22974.5,15775.1
22965.1,15775.6
22773.1,15775.6
22763.7,15775.1
22754.4,15773.7
22745.3,15771.5
22736.4,15768.3
22727.9,15764.3
22719.8,15759.4
22712.3,15753.8
22705.3,15747.5
22698.9,15740.5
22693.3,15732.9
22688.5,15724.9
22684.5,15716.4
22681.3,15707.5
22679,15698.3
22677.6,15689
22677.2,15679.6
22677.2,15320.4
22677.6,15311
22679,15301.7
22681.3,15292.5
22684.5,15283.6
22688.5,15275.1
22693.3,15267.1
22698.9,15259.5
22705.3,15252.5
22712.3,15246.2
22719.8,15240.6
22727.9,15235.7
22736.4,15231.7
22745.3,15228.5
22754.4,15226.3
22763.7,15224.9
22773.1,15224.4
22965.1,15224.4
Z" /> 
<path style="fill:#000000; fill-opacity:1.0; 
stroke:#000000; stroke-width:0; stroke-opacity:1; 
stroke-linecap:round; stroke-linejoin:round;fill-rule:evenodd;"
d="M 22236.3,15224.9
22245.6,15226.3
22254.7,15228.5
22263.6,15231.7
22272.1,15235.7
22280.2,15240.6
22287.7,15246.2
22294.7,15252.5
22301.1,15259.5
22306.7,15267.1
22311.5,15275.1
22315.5,15283.6
22318.7,15292.5
22321,15301.7
22322.4,15311
22322.8,15320.4
22322.8,15679.6
22322.4,15689
22321,15698.3
22318.7,15707.5
22315.5,15716.4
22311.5,15724.9
22306.7,15732.9
22301.1,15740.5
22294.7,15747.5
22287.7,15753.8
22280.2,15759.4
22272.1,15764.3
22263.6,15768.3
22254.7,15771.5
22245.6,15773.7
22236.3,15775.1
22226.9,15775.6
22034.9,15775.6
22025.5,15775.1
22016.2,15773.7
22007.1,15771.5
21998.2,15768.3
21989.7,15764.3
21981.6,15759.4
21974.1,15753.8
21967.1,15747.5
21960.8,15740.5
21955.1,15732.9
21950.3,15724.9
21946.3,15716.4
21943.1,15707.5
21940.8,15698.3
21939.4,15689
21939,15679.6
21939,15320.4
21939.4,15311
21940.8,15301.7
21943.1,15292.5
21946.3,15283.6
21950.3,15275.1
21955.1,15267.1
21960.8,15259.5
21967.1,15252.5
21974.1,15246.2
21981.6,15240.6
21989.7,15235.7
21998.2,15231.7
22007.1,15228.5
22016.2,15226.3
22025.5,15224.9
22034.9,15224.4
22226.9,15224.4
Z" /> 
</g>
<g >
</g>
<g style="fill:#000000; fill-opacity:1.0; 
stroke:#000000; stroke-width:0; stroke-opacity:1; 
stroke-linecap:round; stroke-linejoin:round;">
<path style="fill:#000000; fill-opacity:1.0; 
stroke:#000000; stroke-width:0; stroke-opacity:1; 
stroke-linecap:round; stroke-linejoin:round;fill-rule:evenodd;"
d="M 26989,16977.6
26998.3,16979
27007.5,16981.3
27016.3,16984.5
27024.9,16988.5
27032.9,16993.3
27040.5,16998.9
27047.5,17005.3
27053.8,17012.3
27059.4,17019.8
27064.3,17027.9
27068.3,17036.4
27071.5,17045.3
27073.7,17054.4
27075.1,17063.7
27075.6,17073.1
27075.6,17265.1
27075.1,17274.5
27073.7,17283.8
27071.5,17292.9
27068.3,17301.8
27064.3,17310.3
27059.4,17318.4
27053.8,17325.9
27047.5,17332.9
27040.5,17339.2
27032.9,17344.9
27024.9,17349.7
27016.3,17353.7
27007.5,17356.9
26998.3,17359.2
26989,17360.6
26979.6,17361
26620.4,17361
26611,17360.6
26601.7,17359.2
26592.5,17356.9
26583.6,17353.7
26575.1,17349.7
26567.1,17344.9
26559.5,17339.2
26552.5,17332.9
26546.2,17325.9
26540.6,17318.4
26535.7,17310.3
26531.7,17301.8
26528.5,17292.9
26526.3,17283.8
26524.9,17274.5
26524.4,17265.1
26524.4,17073.1
26524.9,17063.7
26526.3,17054.4
26528.5,17045.3
26531.7,17036.4
26535.7,17027.9
26540.6,17019.8
26546.2,17012.3
26552.5,17005.3
26559.5,16998.9
26567.1,16993.3
26575.1,16988.5
26583.6,16984.5
26592.5,16981.3
26601.7,16979
26611,16977.6
26620.4,16977.2
26979.6,16977.2
Z" /> 
<path style="fill:#000000; fill-opacity:1.0; 
stroke:#000000; stroke-width:0; stroke-opacity:1; 
stroke-linecap:round; stroke-linejoin:round;fill-rule:evenodd;"
d="M 26989,16239.4
26998.3,16240.8
27007.5,16243.1
27016.3,16246.3
27024.9,16250.3
27032.9,16255.1
27040.5,16260.8
27047.5,16267.1
27053.8,16274.1
27059.4,16281.6
27064.3,16289.7
27068.3,16298.2
27071.5,16307.1
27073.7,16316.2
27075.1,16325.5
27075.6,16334.9
27075.6,16526.9
27075.1,16536.3
27073.7,16545.6
27071.5,16554.7
27068.3,16563.6
27064.3,16572.1
27059.4,16580.2
27053.8,16587.7
27047.5,16594.7
27040.5,16601.1
27032.9,16606.7
27024.9,16611.5
27016.3,16615.5
27007.5,16618.7
26998.3,16621
26989,16622.4
26979.6,16622.8
26620.4,16622.8
26611,16622.4
26601.7,16621
26592.5,16618.7
26583.6,16615.5
26575.1,16611.5
26567.1,16606.7
26559.5,16601.1
26552.5,16594.7
26546.2,16587.7
26540.6,16580.2
26535.7,16572.1
26531.7,16563.6
26528.5,16554.7
26526.3,16545.6
26524.9,16536.3
26524.4,16526.9
26524.4,16334.9
26524.9,16325.5
26526.3,16316.2
26528.5,16307.1
26531.7,16298.2
26535.7,16289.7
26540.6,16281.6
26546.2,16274.1
26552.5,16267.1
26559.5,16260.8
26567.1,16255.1
26575.1,16250.3
26583.6,16246.3
26592.5,16243.1
26601.7,16240.8
26611,16239.4
26620.4,16239
26979.6,16239
Z" /> 
</g>
<g >
</g>
<g style="fill:#000000; fill-opacity:1.0; 
stroke:#000000; stroke-width:0; stroke-opacity:1; 
stroke-linecap:round; stroke-linejoin:round;">
<path style="fill:#000000; fill-opacity:1.0; 
stroke:#000000; stroke-width:0; stroke-opacity:1; 
stroke-linecap:round; stroke-linejoin:round;fill-rule:evenodd;"
d="M 23989,16977.6
23998.3,16979
24007.5,16981.3
24016.3,16984.5
24024.9,16988.5
24032.9,16993.3
24040.5,16998.9
24047.5,17005.3
24053.8,17012.3
24059.4,17019.8
24064.3,17027.9
24068.3,17036.4
24071.5,17045.3
24073.7,17054.4
24075.1,17063.7
24075.6,17073.1
24075.6,17265.1
24075.1,17274.5
24073.7,17283.8
24071.5,17292.9
24068.3,17301.8
24064.3,17310.3
24059.4,17318.4
24053.8,17325.9
24047.5,17332.9
24040.5,17339.2
24032.9,17344.9
24024.9,17349.7
24016.3,17353.7
24007.5,17356.9
23998.3,17359.2
23989,17360.6
23979.6,17361
23620.4,17361
23611,17360.6
23601.7,17359.2
23592.5,17356.9
23583.7,17353.7
23575.1,17349.7
23567.1,17344.9
23559.5,17339.2
23552.5,17332.9
23546.2,17325.9
23540.6,17318.4
23535.7,17310.3
23531.7,17301.8
23528.5,17292.9
23526.3,17283.8
23524.9,17274.5
23524.4,17265.1
23524.4,17073.1
23524.9,17063.7
23526.3,17054.4
23528.5,17045.3
23531.7,17036.4
23535.7,17027.9
23540.6,17019.8
23546.2,17012.3
23552.5,17005.3
23559.5,16998.9
23567.1,16993.3
23575.1,16988.5
23583.7,16984.5
23592.5,16981.3
23601.7,16979
23611,16977.6
23620.4,16977.2
23979.6,16977.2
Z" /> 
<path style="fill:#000000; fill-opacity:1.0; 
stroke:#000000; stroke-width:0; stroke-opacity:1; 
stroke-linecap:round; stroke-linejoin:round;fill-rule:evenodd;"
d="M 23989,16239.4
23998.3,16240.8
24007.5,16243.1
24016.3,16246.3
24024.9,16250.3
24032.9,16255.1
24040.5,16260.8
24047.5,16267.1
24053.8,16274.1
24059.4,16281.6
24064.3,16289.7
24068.3,16298.2
24071.5,16307.1
24073.7,16316.2
24075.1,16325.5
24075.6,16334.9
24075.6,16526.9
24075.1,16536.3
24073.7,16545.6
24071.5,16554.7
24068.3,16563.6
24064.3,16572.1
24059.4,16580.2
24053.8,16587.7
24047.5,16594.7
24040.5,16601.1
24032.9,16606.7
24024.9,16611.5
24016.3,16615.5
24007.5,16618.7
23998.3,16621
23989,16622.4
23979.6,16622.8
23620.4,16622.8
23611,16622.4
23601.7,16621
23592.5,16618.7
23583.7,16615.5
23575.1,16611.5
23567.1,16606.7
23559.5,16601.1
23552.5,16594.7
23546.2,16587.7
23540.6,16580.2
23535.7,16572.1
23531.7,16563.6
23528.5,16554.7
23526.3,16545.6
23524.9,16536.3
23524.4,16526.9
23524.4,16334.9
23524.9,16325.5
23526.3,16316.2
23528.5,16307.1
23531.7,16298.2
23535.7,16289.7
23540.6,16281.6
23546.2,16274.1
23552.5,16267.1
23559.5,16260.8
23567.1,16255.1
23575.1,16250.3
23583.7,16246.3
23592.5,16243.1
23601.7,16240.8
23611,16239.4
23620.4,16239
23979.6,16239
Z" /> 
</g>
<g >
</g>
<g style="fill:#000000; fill-opacity:1.0; 
stroke:#000000; stroke-width:0; stroke-opacity:1; 
stroke-linecap:round; stroke-linejoin:round;">
<path style="fill:#000000; fill-opacity:1.0; 
stroke:#000000; stroke-width:0; stroke-opacity:1; 
stroke-linecap:round; stroke-linejoin:round;fill-rule:evenodd;"
d="M 29736.3,26974.9
29745.6,26976.3
29754.7,26978.5
29763.6,26981.7
29772.1,26985.7
29780.2,26990.6
29787.7,26996.2
29794.7,27002.5
29801.1,27009.5
29806.7,27017.1
29811.5,27025.1
29815.5,27033.6
29818.7,27042.5
29821,27051.7
29822.4,27061
29822.8,27070.4
29822.8,27429.6
29822.4,27439
29821,27448.3
29818.7,27457.5
29815.5,27466.3
29811.5,27474.9
29806.7,27482.9
29801.1,27490.5
29794.7,27497.5
29787.7,27503.8
29780.2,27509.4
29772.1,27514.3
29763.6,27518.3
29754.7,27521.5
29745.6,27523.7
29736.3,27525.1
29726.9,27525.6
29534.9,27525.6
29525.5,27525.1
29516.2,27523.7
29507.1,27521.5
29498.2,27518.3
29489.7,27514.3
29481.6,27509.4
29474.1,27503.8
29467.1,27497.5
29460.8,27490.5
29455.1,27482.9
29450.3,27474.9
29446.3,27466.3
29443.1,27457.5
29440.8,27448.3
29439.4,27439
29439,27429.6
29439,27070.4
29439.4,27061
29440.8,27051.7
29443.1,27042.5
29446.3,27033.6
29450.3,27025.1
29455.1,27017.1
29460.8,27009.5
29467.1,27002.5
29474.1,26996.2
29481.6,26990.6
29489.7,26985.7
29498.2,26981.7
29507.1,26978.5
29516.2,26976.3
29525.5,26974.9
29534.9,26974.4
29726.9,26974.4
Z" /> 
<path style="fill:#000000; fill-opacity:1.0; 
stroke:#000000; stroke-width:0; stroke-opacity:1; 
stroke-linecap:round; stroke-linejoin:round;fill-rule:evenodd;"
d="M 30474.5,26974.9
30483.8,26976.3
30492.9,26978.5
30501.8,26981.7
30510.3,26985.7
30518.4,26990.6
30525.9,26996.2
30532.9,27002.5
30539.2,27009.5
30544.9,27017.1
30549.7,27025.1
30553.7,27033.6
30556.9,27042.5
30559.2,27051.7
30560.6,27061
30561,27070.4
30561,27429.6
30560.6,27439
30559.2,27448.3
30556.9,27457.5
30553.7,27466.3
30549.7,27474.9
30544.9,27482.9
30539.2,27490.5
30532.9,27497.5
30525.9,27503.8
30518.4,27509.4
30510.3,27514.3
30501.8,27518.3
30492.9,27521.5
30483.8,27523.7
30474.5,27525.1
30465.1,27525.6
30273.1,27525.6
30263.7,27525.1
30254.4,27523.7
30245.3,27521.5
30236.4,27518.3
30227.9,27514.3
30219.8,27509.4
30212.3,27503.8
30205.3,27497.5
30198.9,27490.5
30193.3,27482.9
30188.5,27474.9
30184.5,27466.3
30181.3,27457.5
30179,27448.3
30177.6,27439
30177.2,27429.6
30177.2,27070.4
30177.6,27061
30179,27051.7
30181.3,27042.5
30184.5,27033.6
30188.5,27025.1
30193.3,27017.1
30198.9,27009.5
30205.3,27002.5
30212.3,26996.2
30219.8,26990.6
30227.9,26985.7
30236.4,26981.7
30245.3,26978.5
30254.4,26976.3
30263.7,26974.9
30273.1,26974.4
30465.1,26974.4
Z" /> 
</g>
<g >
</g>
<g style="fill:#000000; fill-opacity:1.0; 
stroke:#000000; stroke-width:0; stroke-opacity:1; 
stroke-linecap:round; stroke-linejoin:round;">
<path style="fill:#000000; fill-opacity:1.0; 
stroke:#000000; stroke-width:0; stroke-opacity:1; 
stroke-linecap:round; stroke-linejoin:round;fill-rule:evenodd;"
d="M 21689,18439.4
21698.3,18440.8
21707.5,18443.1
21716.3,18446.3
21724.9,18450.3
21732.9,18455.1
21740.5,18460.8
21747.5,18467.1
21753.8,18474.1
21759.4,18481.6
21764.3,18489.7
21768.3,18498.2
21771.5,18507.1
21773.7,18516.2
21775.1,18525.5
21775.6,18534.9
21775.6,18726.9
21775.1,18736.3
21773.7,18745.6
21771.5,18754.7
21768.3,18763.6
21764.3,18772.1
21759.4,18780.2
21753.8,18787.7
21747.5,18794.7
21740.5,18801.1
21732.9,18806.7
21724.9,18811.5
21716.3,18815.5
21707.5,18818.7
21698.3,18821
21689,18822.4
21679.6,18822.8
21320.4,18822.8
21311,18822.4
21301.7,18821
21292.5,18818.7
21283.7,18815.5
21275.1,18811.5
21267.1,18806.7
21259.5,18801.1
21252.5,18794.7
21246.2,18787.7
21240.6,18780.2
21235.7,18772.1
21231.7,18763.6
21228.5,18754.7
21226.3,18745.6
21224.9,18736.3
21224.4,18726.9
21224.4,18534.9
21224.9,18525.5
21226.3,18516.2
21228.5,18507.1
21231.7,18498.2
21235.7,18489.7
21240.6,18481.6
21246.2,18474.1
21252.5,18467.1
21259.5,18460.8
21267.1,18455.1
21275.1,18450.3
21283.7,18446.3
21292.5,18443.1
21301.7,18440.8
21311,18439.4
21320.4,18439
21679.6,18439
Z" /> 
<path style="fill:#000000; fill-opacity:1.0; 
stroke:#000000; stroke-width:0; stroke-opacity:1; 
stroke-linecap:round; stroke-linejoin:round;fill-rule:evenodd;"
d="M 21689,19177.6
21698.3,19179
21707.5,19181.3
21716.3,19184.5
21724.9,19188.5
21732.9,19193.3
21740.5,19198.9
21747.5,19205.3
21753.8,19212.3
21759.4,19219.8
21764.3,19227.9
21768.3,19236.4
21771.5,19245.3
21773.7,19254.4
21775.1,19263.7
21775.6,19273.1
21775.6,19465.1
21775.1,19474.5
21773.7,19483.8
21771.5,19492.9
21768.3,19501.8
21764.3,19510.3
21759.4,19518.4
21753.8,19525.9
21747.5,19532.9
21740.5,19539.2
21732.9,19544.9
21724.9,19549.7
21716.3,19553.7
21707.5,19556.9
21698.3,19559.2
21689,19560.6
21679.6,19561
21320.4,19561
21311,19560.6
21301.7,19559.2
21292.5,19556.9
21283.7,19553.7
21275.1,19549.7
21267.1,19544.9
21259.5,19539.2
21252.5,19532.9
21246.2,19525.9
21240.6,19518.4
21235.7,19510.3
21231.7,19501.8
21228.5,19492.9
21226.3,19483.8
21224.9,19474.5
21224.4,19465.1
21224.4,19273.1
21224.9,19263.7
21226.3,19254.4
21228.5,19245.3
21231.7,19236.4
21235.7,19227.9
21240.6,19219.8
21246.2,19212.3
21252.5,19205.3
21259.5,19198.9
21267.1,19193.3
21275.1,19188.5
21283.7,19184.5
21292.5,19181.3
21301.7,19179
21311,19177.6
21320.4,19177.2
21679.6,19177.2
Z" /> 
</g>
<g >
</g>
<g style="fill:#000000; fill-opacity:1.0; 
stroke:#000000; stroke-width:0; stroke-opacity:1; 
stroke-linecap:round; stroke-linejoin:round;">
<path style="fill:#000000; fill-opacity:1.0; 
stroke:#000000; stroke-width:0; stroke-opacity:1; 
stroke-linecap:round; stroke-linejoin:round;fill-rule:evenodd;"
d="M 25724.4,16553.9
25724.4,16298
26141.7,16298
26141.7,16553.9
Z" /> 
<path style="fill:#000000; fill-opacity:1.0; 
stroke:#000000; stroke-width:0; stroke-opacity:1; 
stroke-linecap:round; stroke-linejoin:round;fill-rule:evenodd;"
d="M 25724.4,17302
25724.4,17046.1
26141.7,17046.1
26141.7,17302
Z" /> 
<path style="fill:#000000; fill-opacity:1.0; 
stroke:#000000; stroke-width:0; stroke-opacity:1; 
stroke-linecap:round; stroke-linejoin:round;fill-rule:evenodd;"
d="M 24858.3,17302
24858.3,17046.1
25275.6,17046.1
25275.6,17302
Z" /> 
<path style="fill:#000000; fill-opacity:1.0; 
stroke:#000000; stroke-width:0; stroke-opacity:1; 
stroke-linecap:round; stroke-linejoin:round;fill-rule:evenodd;"
d="M 24858.3,16928
24858.3,16672
25275.6,16672
25275.6,16928
Z" /> 
<path style="fill:#000000; fill-opacity:1.0; 
stroke:#000000; stroke-width:0; stroke-opacity:1; 
stroke-linecap:round; stroke-linejoin:round;fill-rule:evenodd;"
d="M 24858.3,16553.9
24858.3,16298
25275.6,16298
25275.6,16553.9
Z" /> 
</g>
<g >
</g>
<g style="fill:#000000; fill-opacity:1.0; 
stroke:#000000; stroke-width:0; stroke-opacity:1; 
stroke-linecap:round; stroke-linejoin:round;">
<path style="fill:#000000; fill-opacity:1.0; 
stroke:#000000; stroke-width:0; stroke-opacity:1; 
stroke-linecap:round; stroke-linejoin:round;fill-rule:evenodd;"
d="M 22240,16760
22020,16760
22020,16240
22240,16240
Z" /> 
<path style="fill:#000000; fill-opacity:1.0; 
stroke:#000000; stroke-width:0; stroke-opacity:1; 
stroke-linecap:round; stroke-linejoin:round;fill-rule:evenodd;"
d="M 22980,16760
22760,16760
22760,16240
22980,16240
Z" /> 
<path style="fill:#000000; fill-opacity:1.0; 
stroke:#000000; stroke-width:0; stroke-opacity:1; 
stroke-linecap:round; stroke-linejoin:round;fill-rule:evenodd;"
d="M 22980,17760
22760,17760
22760,17240
22980,17240
Z" /> 
<path style="fill:#000000; fill-opacity:1.0; 
stroke:#000000; stroke-width:0; stroke-opacity:1; 
stroke-linecap:round; stroke-linejoin:round;fill-rule:evenodd;"
d="M 22610,17760
22390,17760
22390,17240
22610,17240
Z" /> 
<path style="fill:#000000; fill-opacity:1.0; 
stroke:#000000; stroke-width:0; stroke-opacity:1; 
stroke-linecap:round; stroke-linejoin:round;fill-rule:evenodd;"
d="M 22240,17760
22020,17760
22020,17240
22240,17240
Z" /> 
</g>
<g >
</g>
<g style="fill:#000000; fill-opacity:1.0; 
stroke:#000000; stroke-width:0; stroke-opacity:1; 
stroke-linecap:round; stroke-linejoin:round;">
<path style="fill:#000000; fill-opacity:1.0; 
stroke:#000000; stroke-width:0; stroke-opacity:1; 
stroke-linecap:round; stroke-linejoin:round;fill-rule:evenodd;"
d="M 28689,19439.4
28698.3,19440.8
28707.5,19443.1
28716.3,19446.3
28724.9,19450.3
28732.9,19455.1
28740.5,19460.8
28747.5,19467.1
28753.8,19474.1
28759.4,19481.6
28764.3,19489.7
28768.3,19498.2
28771.5,19507.1
28773.7,19516.2
28775.1,19525.5
28775.6,19534.9
28775.6,19726.9
28775.1,19736.3
28773.7,19745.6
28771.5,19754.7
28768.3,19763.6
28764.3,19772.1
28759.4,19780.2
28753.8,19787.7
28747.5,19794.7
28740.5,19801.1
28732.9,19806.7
28724.9,19811.5
28716.3,19815.5
28707.5,19818.7
28698.3,19821
28689,19822.4
28679.6,19822.8
28320.4,19822.8
28311,19822.4
28301.7,19821
28292.5,19818.7
28283.6,19815.5
28275.1,19811.5
28267.1,19806.7
28259.5,19801.1
28252.5,19794.7
28246.2,19787.7
28240.6,19780.2
28235.7,19772.1
28231.7,19763.6
28228.5,19754.7
28226.3,19745.6
28224.9,19736.3
28224.4,19726.9
28224.4,19534.9
28224.9,19525.5
28226.3,19516.2
28228.5,19507.1
28231.7,19498.2
28235.7,19489.7
28240.6,19481.6
28246.2,19474.1
28252.5,19467.1
28259.5,19460.8
28267.1,19455.1
28275.1,19450.3
28283.6,19446.3
28292.5,19443.1
28301.7,19440.8
28311,19439.4
28320.4,19439
28679.6,19439
Z" /> 
<path style="fill:#000000; fill-opacity:1.0; 
stroke:#000000; stroke-width:0; stroke-opacity:1; 
stroke-linecap:round; stroke-linejoin:round;fill-rule:evenodd;"
d="M 28689,20177.6
28698.3,20179
28707.5,20181.3
28716.3,20184.5
28724.9,20188.5
28732.9,20193.3
28740.5,20198.9
28747.5,20205.3
28753.8,20212.3
28759.4,20219.8
28764.3,20227.9
28768.3,20236.4
28771.5,20245.3
28773.7,20254.4
28775.1,20263.7
28775.6,20273.1
28775.6,20465.1
28775.1,20474.5
28773.7,20483.8
28771.5,20492.9
28768.3,20501.8
28764.3,20510.3
28759.4,20518.4
28753.8,20525.9
28747.5,20532.9
28740.5,20539.2
28732.9,20544.9
28724.9,20549.7
28716.3,20553.7
28707.5,20556.9
28698.3,20559.2
28689,20560.6
28679.6,20561
28320.4,20561
28311,20560.6
28301.7,20559.2
28292.5,20556.9
28283.6,20553.7
28275.1,20549.7
28267.1,20544.9
28259.5,20539.2
28252.5,20532.9
28246.2,20525.9
28240.6,20518.4
28235.7,20510.3
28231.7,20501.8
28228.5,20492.9
28226.3,20483.8
28224.9,20474.5
28224.4,20465.1
28224.4,20273.1
28224.9,20263.7
28226.3,20254.4
28228.5,20245.3
28231.7,20236.4
28235.7,20227.9
28240.6,20219.8
28246.2,20212.3
28252.5,20205.3
28259.5,20198.9
28267.1,20193.3
28275.1,20188.5
28283.6,20184.5
28292.5,20181.3
28301.7,20179
28311,20177.6
28320.4,20177.2
28679.6,20177.2
Z" /> 
</g>
<g >
</g>
<g style="fill:#000000; fill-opacity:1.0; 
stroke:#000000; stroke-width:0; stroke-opacity:1; 
stroke-linecap:round; stroke-linejoin:round;">
<path style="fill:#000000; fill-opacity:1.0; 
stroke:#000000; stroke-width:0; stroke-opacity:1; 
stroke-linecap:round; stroke-linejoin:round;fill-rule:evenodd;"
d="M 24689,13677.6
24698.3,13679
24707.5,13681.3
24716.3,13684.5
24724.9,13688.5
24732.9,13693.3
24740.5,13698.9
24747.5,13705.3
24753.8,13712.3
24759.4,13719.8
24764.3,13727.9
24768.3,13736.4
24771.5,13745.3
24773.7,13754.4
24775.1,13763.7
24775.6,13773.1
24775.6,13965.1
24775.1,13974.5
24773.7,13983.8
24771.5,13992.9
24768.3,14001.8
24764.3,14010.3
24759.4,14018.4
24753.8,14025.9
24747.5,14032.9
24740.5,14039.2
24732.9,14044.9
24724.9,14049.7
24716.3,14053.7
24707.5,14056.9
24698.3,14059.2
24689,14060.6
24679.6,14061
24320.4,14061
24311,14060.6
24301.7,14059.2
24292.5,14056.9
24283.7,14053.7
24275.1,14049.7
24267.1,14044.9
24259.5,14039.2
24252.5,14032.9
24246.2,14025.9
24240.6,14018.4
24235.7,14010.3
24231.7,14001.8
24228.5,13992.9
24226.3,13983.8
24224.9,13974.5
24224.4,13965.1
24224.4,13773.1
24224.9,13763.7
24226.3,13754.4
24228.5,13745.3
24231.7,13736.4
24235.7,13727.9
24240.6,13719.8
24246.2,13712.3
24252.5,13705.3
24259.5,13698.9
24267.1,13693.3
24275.1,13688.5
24283.7,13684.5
24292.5,13681.3
24301.7,13679
24311,13677.6
24320.4,13677.2
24679.6,13677.2
Z" /> 
<path style="fill:#000000; fill-opacity:1.0; 
stroke:#000000; stroke-width:0; stroke-opacity:1; 
stroke-linecap:round; stroke-linejoin:round;fill-rule:evenodd;"
d="M 24689,12939.4
24698.3,12940.8
24707.5,12943.1
24716.3,12946.3
24724.9,12950.3
24732.9,12955.1
24740.5,12960.8
24747.5,12967.1
24753.8,12974.1
24759.4,12981.6
24764.3,12989.7
24768.3,12998.2
24771.5,13007.1
24773.7,13016.2
24775.1,13025.5
24775.6,13034.9
24775.6,13226.9
24775.1,13236.3
24773.7,13245.6
24771.5,13254.7
24768.3,13263.6
24764.3,13272.1
24759.4,13280.2
24753.8,13287.7
24747.5,13294.7
24740.5,13301.1
24732.9,13306.7
24724.9,13311.5
24716.3,13315.5
24707.5,13318.7
24698.3,13321
24689,13322.4
24679.6,13322.8
24320.4,13322.8
24311,13322.4
24301.7,13321
24292.5,13318.7
24283.7,13315.5
24275.1,13311.5
24267.1,13306.7
24259.5,13301.1
24252.5,13294.7
24246.2,13287.7
24240.6,13280.2
24235.7,13272.1
24231.7,13263.6
24228.5,13254.7
24226.3,13245.6
24224.9,13236.3
24224.4,13226.9
24224.4,13034.9
24224.9,13025.5
24226.3,13016.2
24228.5,13007.1
24231.7,12998.2
24235.7,12989.7
24240.6,12981.6
24246.2,12974.1
24252.5,12967.1
24259.5,12960.8
24267.1,12955.1
24275.1,12950.3
24283.7,12946.3
24292.5,12943.1
24301.7,12940.8
24311,12939.4
24320.4,12939
24679.6,12939
Z" /> 
</g>
<g >
</g>
<g style="fill:#000000; fill-opacity:1.0; 
stroke:#000000; stroke-width:0; stroke-opacity:1; 
stroke-linecap:round; stroke-linejoin:round;">
<path style="fill:#000000; fill-opacity:1.0; 
stroke:#000000; stroke-width:0; stroke-opacity:1; 
stroke-linecap:round; stroke-linejoin:round;fill-rule:evenodd;"
d="M 22689,13677.6
22698.3,13679
22707.5,13681.3
22716.3,13684.5
22724.9,13688.5
22732.9,13693.3
22740.5,13698.9
22747.5,13705.3
22753.8,13712.3
22759.4,13719.8
22764.3,13727.9
22768.3,13736.4
22771.5,13745.3
22773.7,13754.4
22775.1,13763.7
22775.6,13773.1
22775.6,13965.1
22775.1,13974.5
22773.7,13983.8
22771.5,13992.9
22768.3,14001.8
22764.3,14010.3
22759.4,14018.4
22753.8,14025.9
22747.5,14032.9
22740.5,14039.2
22732.9,14044.9
22724.9,14049.7
22716.3,14053.7
22707.5,14056.9
22698.3,14059.2
22689,14060.6
22679.6,14061
22320.4,14061
22311,14060.6
22301.7,14059.2
22292.5,14056.9
22283.7,14053.7
22275.1,14049.7
22267.1,14044.9
22259.5,14039.2
22252.5,14032.9
22246.2,14025.9
22240.6,14018.4
22235.7,14010.3
22231.7,14001.8
22228.5,13992.9
22226.3,13983.8
22224.9,13974.5
22224.4,13965.1
22224.4,13773.1
22224.9,13763.7
22226.3,13754.4
22228.5,13745.3
22231.7,13736.4
22235.7,13727.9
22240.6,13719.8
22246.2,13712.3
22252.5,13705.3
22259.5,13698.9
22267.1,13693.3
22275.1,13688.5
22283.7,13684.5
22292.5,13681.3
22301.7,13679
22311,13677.6
22320.4,13677.2
22679.6,13677.2
Z" /> 
<path style="fill:#000000; fill-opacity:1.0; 
stroke:#000000; stroke-width:0; stroke-opacity:1; 
stroke-linecap:round; stroke-linejoin:round;fill-rule:evenodd;"
d="M 22689,12939.4
22698.3,12940.8
22707.5,12943.1
22716.3,12946.3
22724.9,12950.3
22732.9,12955.1
22740.5,12960.8
22747.5,12967.1
22753.8,12974.1
22759.4,12981.6
22764.3,12989.7
22768.3,12998.2
22771.5,13007.1
22773.7,13016.2
22775.1,13025.5
22775.6,13034.9
22775.6,13226.9
22775.1,13236.3
22773.7,13245.6
22771.5,13254.7
22768.3,13263.6
22764.3,13272.1
22759.4,13280.2
22753.8,13287.7
22747.5,13294.7
22740.5,13301.1
22732.9,13306.7
22724.9,13311.5
22716.3,13315.5
22707.5,13318.7
22698.3,13321
22689,13322.4
22679.6,13322.8
22320.4,13322.8
22311,13322.4
22301.7,13321
22292.5,13318.7
22283.7,13315.5
22275.1,13311.5
22267.1,13306.7
22259.5,13301.1
22252.5,13294.7
22246.2,13287.7
22240.6,13280.2
22235.7,13272.1
22231.7,13263.6
22228.5,13254.7
22226.3,13245.6
22224.9,13236.3
22224.4,13226.9
22224.4,13034.9
22224.9,13025.5
22226.3,13016.2
22228.5,13007.1
22231.7,12998.2
22235.7,12989.7
22240.6,12981.6
22246.2,12974.1
22252.5,12967.1
22259.5,12960.8
22267.1,12955.1
22275.1,12950.3
22283.7,12946.3
22292.5,12943.1
22301.7,12940.8
22311,12939.4
22320.4,12939
22679.6,12939
Z" /> 
</g>
<g >
</g>
<g style="fill:#000000; fill-opacity:1.0; 
stroke:#000000; stroke-width:0; stroke-opacity:1; 
stroke-linecap:round; stroke-linejoin:round;">
<path style="fill:#000000; fill-opacity:1.0; 
stroke:#000000; stroke-width:0; stroke-opacity:1; 
stroke-linecap:round; stroke-linejoin:round;fill-rule:evenodd;"
d="M 29736.3,29224.9
29745.6,29226.3
29754.7,29228.5
29763.6,29231.7
29772.1,29235.7
29780.2,29240.6
29787.7,29246.2
29794.7,29252.5
29801.1,29259.5
29806.7,29267.1
29811.5,29275.1
29815.5,29283.6
29818.7,29292.5
29821,29301.7
29822.4,29311
29822.8,29320.4
29822.8,29679.6
29822.4,29689
29821,29698.3
29818.7,29707.5
29815.5,29716.3
29811.5,29724.9
29806.7,29732.9
29801.1,29740.5
29794.7,29747.5
29787.7,29753.8
29780.2,29759.4
29772.1,29764.3
29763.6,29768.3
29754.7,29771.5
29745.6,29773.7
29736.3,29775.1
29726.9,29775.6
29534.9,29775.6
29525.5,29775.1
29516.2,29773.7
29507.1,29771.5
29498.2,29768.3
29489.7,29764.3
29481.6,29759.4
29474.1,29753.8
29467.1,29747.5
29460.8,29740.5
29455.1,29732.9
29450.3,29724.9
29446.3,29716.3
29443.1,29707.5
29440.8,29698.3
29439.4,29689
29439,29679.6
29439,29320.4
29439.4,29311
29440.8,29301.7
29443.1,29292.5
29446.3,29283.6
29450.3,29275.1
29455.1,29267.1
29460.8,29259.5
29467.1,29252.5
29474.1,29246.2
29481.6,29240.6
29489.7,29235.7
29498.2,29231.7
29507.1,29228.5
29516.2,29226.3
29525.5,29224.9
29534.9,29224.4
29726.9,29224.4
Z" /> 
<path style="fill:#000000; fill-opacity:1.0; 
stroke:#000000; stroke-width:0; stroke-opacity:1; 
stroke-linecap:round; stroke-linejoin:round;fill-rule:evenodd;"
d="M 30474.5,29224.9
30483.8,29226.3
30492.9,29228.5
30501.8,29231.7
30510.3,29235.7
30518.4,29240.6
30525.9,29246.2
30532.9,29252.5
30539.2,29259.5
30544.9,29267.1
30549.7,29275.1
30553.7,29283.6
30556.9,29292.5
30559.2,29301.7
30560.6,29311
30561,29320.4
30561,29679.6
30560.6,29689
30559.2,29698.3
30556.9,29707.5
30553.7,29716.3
30549.7,29724.9
30544.9,29732.9
30539.2,29740.5
30532.9,29747.5
30525.9,29753.8
30518.4,29759.4
30510.3,29764.3
30501.8,29768.3
30492.9,29771.5
30483.8,29773.7
30474.5,29775.1
30465.1,29775.6
30273.1,29775.6
30263.7,29775.1
30254.4,29773.7
30245.3,29771.5
30236.4,29768.3
30227.9,29764.3
30219.8,29759.4
30212.3,29753.8
30205.3,29747.5
30198.9,29740.5
30193.3,29732.9
30188.5,29724.9
30184.5,29716.3
30181.3,29707.5
30179,29698.3
30177.6,29689
30177.2,29679.6
30177.2,29320.4
30177.6,29311
30179,29301.7
30181.3,29292.5
30184.5,29283.6
30188.5,29275.1
30193.3,29267.1
30198.9,29259.5
30205.3,29252.5
30212.3,29246.2
30219.8,29240.6
30227.9,29235.7
30236.4,29231.7
30245.3,29228.5
30254.4,29226.3
30263.7,29224.9
30273.1,29224.4
30465.1,29224.4
Z" /> 
</g>
<g >
</g>
<g style="fill:#000000; fill-opacity:1.0; 
stroke:#000000; stroke-width:0; stroke-opacity:1; 
stroke-linecap:round; stroke-linejoin:round;">
<path style="fill:#000000; fill-opacity:1.0; 
stroke:#000000; stroke-width:0; stroke-opacity:1; 
stroke-linecap:round; stroke-linejoin:round;fill-rule:evenodd;"
d="M 29736.3,28324.9
29745.6,28326.3
29754.7,28328.5
29763.6,28331.7
29772.1,28335.7
29780.2,28340.6
29787.7,28346.2
29794.7,28352.5
29801.1,28359.5
29806.7,28367.1
29811.5,28375.1
29815.5,28383.6
29818.7,28392.5
29821,28401.7
29822.4,28411
29822.8,28420.4
29822.8,28779.6
29822.4,28789
29821,28798.3
29818.7,28807.5
29815.5,28816.3
29811.5,28824.9
29806.7,28832.9
29801.1,28840.5
29794.7,28847.5
29787.7,28853.8
29780.2,28859.4
29772.1,28864.3
29763.6,28868.3
29754.7,28871.5
29745.6,28873.7
29736.3,28875.1
29726.9,28875.6
29534.9,28875.6
29525.5,28875.1
29516.2,28873.7
29507.1,28871.5
29498.2,28868.3
29489.7,28864.3
29481.6,28859.4
29474.1,28853.8
29467.1,28847.5
29460.8,28840.5
29455.1,28832.9
29450.3,28824.9
29446.3,28816.3
29443.1,28807.5
29440.8,28798.3
29439.4,28789
29439,28779.6
29439,28420.4
29439.4,28411
29440.8,28401.7
29443.1,28392.5
29446.3,28383.6
29450.3,28375.1
29455.1,28367.1
29460.8,28359.5
29467.1,28352.5
29474.1,28346.2
29481.6,28340.6
29489.7,28335.7
29498.2,28331.7
29507.1,28328.5
29516.2,28326.3
29525.5,28324.9
29534.9,28324.4
29726.9,28324.4
Z" /> 
<path style="fill:#000000; fill-opacity:1.0; 
stroke:#000000; stroke-width:0; stroke-opacity:1; 
stroke-linecap:round; stroke-linejoin:round;fill-rule:evenodd;"
d="M 30474.5,28324.9
30483.8,28326.3
30492.9,28328.5
30501.8,28331.7
30510.3,28335.7
30518.4,28340.6
30525.9,28346.2
30532.9,28352.5
30539.2,28359.5
30544.9,28367.1
30549.7,28375.1
30553.7,28383.6
30556.9,28392.5
30559.2,28401.7
30560.6,28411
30561,28420.4
30561,28779.6
30560.6,28789
30559.2,28798.3
30556.9,28807.5
30553.7,28816.3
30549.7,28824.9
30544.9,28832.9
30539.2,28840.5
30532.9,28847.5
30525.9,28853.8
30518.4,28859.4
30510.3,28864.3
30501.8,28868.3
30492.9,28871.5
30483.8,28873.7
30474.5,28875.1
30465.1,28875.6
30273.1,28875.6
30263.7,28875.1
30254.4,28873.7
30245.3,28871.5
30236.4,28868.3
30227.9,28864.3
30219.8,28859.4
30212.3,28853.8
30205.3,28847.5
30198.9,28840.5
30193.3,28832.9
30188.5,28824.9
30184.5,28816.3
30181.3,28807.5
30179,28798.3
30177.6,28789
30177.2,28779.6
30177.2,28420.4
30177.6,28411
30179,28401.7
30181.3,28392.5
30184.5,28383.6
30188.5,28375.1
30193.3,28367.1
30198.9,28359.5
30205.3,28352.5
30212.3,28346.2
30219.8,28340.6
30227.9,28335.7
30236.4,28331.7
30245.3,28328.5
30254.4,28326.3
30263.7,28324.9
30273.1,28324.4
30465.1,28324.4
Z" /> 
</g>
<g >
</g>
<g style="fill:#000000; fill-opacity:1.0; 
stroke:#000000; stroke-width:0; stroke-opacity:1; 
stroke-linecap:round; stroke-linejoin:round;">
<path style="fill:#000000; fill-opacity:1.0; 
stroke:#000000; stroke-width:0; stroke-opacity:1; 
stroke-linecap:round; stroke-linejoin:round;fill-rule:evenodd;"
d="M 21689,12939.4
21698.3,12940.8
21707.5,12943.1
21716.3,12946.3
21724.9,12950.3
21732.9,12955.1
21740.5,12960.8
21747.5,12967.1
21753.8,12974.1
21759.4,12981.6
21764.3,12989.7
21768.3,12998.2
21771.5,13007.1
21773.7,13016.2
21775.1,13025.5
21775.6,13034.9
21775.6,13226.9
21775.1,13236.3
21773.7,13245.6
21771.5,13254.7
21768.3,13263.6
21764.3,13272.1
21759.4,13280.2
21753.8,13287.7
21747.5,13294.7
21740.5,13301.1
21732.9,13306.7
21724.9,13311.5
21716.3,13315.5
21707.5,13318.7
21698.3,13321
21689,13322.4
21679.6,13322.8
21320.4,13322.8
21311,13322.4
21301.7,13321
21292.5,13318.7
21283.7,13315.5
21275.1,13311.5
21267.1,13306.7
21259.5,13301.1
21252.5,13294.7
21246.2,13287.7
21240.6,13280.2
21235.7,13272.1
21231.7,13263.6
21228.5,13254.7
21226.3,13245.6
21224.9,13236.3
21224.4,13226.9
21224.4,13034.9
21224.9,13025.5
21226.3,13016.2
21228.5,13007.1
21231.7,12998.2
21235.7,12989.7
21240.6,12981.6
21246.2,12974.1
21252.5,12967.1
21259.5,12960.8
21267.1,12955.1
21275.1,12950.3
21283.7,12946.3
21292.5,12943.1
21301.7,12940.8
21311,12939.4
21320.4,12939
21679.6,12939
Z" /> 
<path style="fill:#000000; fill-opacity:1.0; 
stroke:#000000; stroke-width:0; stroke-opacity:1; 
stroke-linecap:round; stroke-linejoin:round;fill-rule:evenodd;"
d="M 21689,13677.6
21698.3,13679
21707.5,13681.3
21716.3,13684.5
21724.9,13688.5
21732.9,13693.3
21740.5,13698.9
21747.5,13705.3
21753.8,13712.3
21759.4,13719.8
21764.3,13727.9
21768.3,13736.4
21771.5,13745.3
21773.7,13754.4
21775.1,13763.7
21775.6,13773.1
21775.6,13965.1
21775.1,13974.5
21773.7,13983.8
21771.5,13992.9
21768.3,14001.8
21764.3,14010.3
21759.4,14018.4
21753.8,14025.9
21747.5,14032.9
21740.5,14039.2
21732.9,14044.9
21724.9,14049.7
21716.3,14053.7
21707.5,14056.9
21698.3,14059.2
21689,14060.6
21679.6,14061
21320.4,14061
21311,14060.6
21301.7,14059.2
21292.5,14056.9
21283.7,14053.7
21275.1,14049.7
21267.1,14044.9
21259.5,14039.2
21252.5,14032.9
21246.2,14025.9
21240.6,14018.4
21235.7,14010.3
21231.7,14001.8
21228.5,13992.9
21226.3,13983.8
21224.9,13974.5
21224.4,13965.1
21224.4,13773.1
21224.9,13763.7
21226.3,13754.4
21228.5,13745.3
21231.7,13736.4
21235.7,13727.9
21240.6,13719.8
21246.2,13712.3
21252.5,13705.3
21259.5,13698.9
21267.1,13693.3
21275.1,13688.5
21283.7,13684.5
21292.5,13681.3
21301.7,13679
21311,13677.6
21320.4,13677.2
21679.6,13677.2
Z" /> 
</g>
<g >
</g>
<g style="fill:#000000; fill-opacity:1.0; 
stroke:#000000; stroke-width:0; stroke-opacity:1; 
stroke-linecap:round; stroke-linejoin:round;">
<circle cx="20000" cy="18000" r="334.646" /> 
<circle cx="20000" cy="17000" r="334.646" /> 
<path style="fill:#000000; fill-opacity:1.0; 
stroke:#000000; stroke-width:0; stroke-opacity:1; 
stroke-linecap:round; stroke-linejoin:round;fill-rule:evenodd;"
d="M 19665.4,16334.6
19665.4,15665.4
20334.6,15665.4
20334.6,16334.6
Z" /> 
</g>
<g >
</g>
<g style="fill:#000000; fill-opacity:1.0; 
stroke:#000000; stroke-width:0; stroke-opacity:1; 
stroke-linecap:round; stroke-linejoin:round;">
<circle cx="20000" cy="28000" r="334.646" /> 
<path style="fill:#000000; fill-opacity:1.0; 
stroke:#000000; stroke-width:0; stroke-opacity:1; 
stroke-linecap:round; stroke-linejoin:round;fill-rule:evenodd;"
d="M 19665.4,27334.6
19665.4,26665.4
20334.6,26665.4
20334.6,27334.6
Z" /> 
</g>
<g >
</g>
<g style="fill:#000000; fill-opacity:1.0; 
stroke:#000000; stroke-width:0; stroke-opacity:1; 
stroke-linecap:round; stroke-linejoin:round;">
</g>
<g style="fill:#000000; fill-opacity:1.0; 
stroke:#000000; stroke-width:708.661; stroke-opacity:1; 
stroke-linecap:round; stroke-linejoin:round;">
</g>
<g style="fill:#000000; fill-opacity:0.0; 
stroke:#000000; stroke-width:708.661; stroke-opacity:1; 
stroke-linecap:round; stroke-linejoin:round;">
<path d="M19645 25000
L20354 25000
" />
<path d="M19645 24000
L20354 24000
" />
<path d="M19645 23000
L20354 23000
" />
<path d="M19645 22000
L20354 22000
" />
<path d="M19645 21000
L20354 21000
" />
</g>
<g style="fill:#000000; fill-opacity:0.0; 
stroke:#000000; stroke-width:0; stroke-opacity:1; 
stroke-linecap:round; stroke-linejoin:round;">
</g>
<g style="fill:#000000; fill-opacity:1.0; 
stroke:#000000; stroke-width:0; stroke-opacity:1; 
stroke-linecap:round; stroke-linejoin:round;">
<path style="fill:#000000; fill-opacity:1.0; 
stroke:#000000; stroke-width:0; stroke-opacity:1; 
stroke-linecap:round; stroke-linejoin:round;fill-rule:evenodd;"
d="M 19291.3,20354.3
19291.3,19645.7
20708.7,19645.7
20708.7,20354.3
Z" /> 
</g>
<g >
</g>
<g style="fill:#000000; fill-opacity:1.0; 
stroke:#000000; stroke-width:0; stroke-opacity:1; 
stroke-linecap:round; stroke-linejoin:round;">
</g>
<g style="fill:#000000; fill-opacity:1.0; 
stroke:#000000; stroke-width:669.291; stroke-opacity:1; 
stroke-linecap:round; stroke-linejoin:round;">
</g>
<g style="fill:#000000; fill-opacity:0.0; 
stroke:#000000; stroke-width:669.291; stroke-opacity:1; 
stroke-linecap:round; stroke-linejoin:round;">
<path d="M29625 26000
L30374 26000
" />
<path d="M29625 25000
L30374 25000
" />
<path d="M29625 24000
L30374 24000
" />
<path d="M29625 23000
L30374 23000
" />
<path d="M29625 22000
L30374 22000
" />
<path d="M29625 21000
L30374 21000
" />
<path d="M29625 20000
L30374 20000
" />
</g>
<g style="fill:#000000; fill-opacity:0.0; 
stroke:#000000; stroke-width:0; stroke-opacity:1; 
stroke-linecap:round; stroke-linejoin:round;">
</g>
<g style="fill:#000000; fill-opacity:1.0; 
stroke:#000000; stroke-width:0; stroke-opacity:1; 
stroke-linecap:round; stroke-linejoin:round;">
<path style="fill:#000000; fill-opacity:1.0; 
stroke:#000000; stroke-width:0; stroke-opacity:1; 
stroke-linecap:round; stroke-linejoin:round;fill-rule:evenodd;"
d="M 29291.3,19334.6
29291.3,18665.4
30708.7,18665.4
30708.7,19334.6
Z" /> 
</g>
<g >
</g>
<g style="fill:#000000; fill-opacity:1.0; 
stroke:#000000; stroke-width:0; stroke-opacity:1; 
stroke-linecap:round; stroke-linejoin:round;">
</g>
<g style="fill:#000000; fill-opacity:1.0; 
stroke:#000000; stroke-width:708.661; stroke-opacity:1; 
stroke-linecap:round; stroke-linejoin:round;">
</g>
<g style="fill:#000000; fill-opacity:0.0; 
stroke:#000000; stroke-width:708.661; stroke-opacity:1; 
stroke-linecap:round; stroke-linejoin:round;">
<path d="M29645 17250
L30354 17250
" />
<path d="M29645 16250
L30354 16250
" />
<path d="M29645 15250
L30354 15250
" />
</g>
<g style="fill:#000000; fill-opacity:0.0; 
stroke:#000000; stroke-width:0; stroke-opacity:1; 
stroke-linecap:round; stroke-linejoin:round;">
</g>
<g style="fill:#000000; fill-opacity:1.0; 
stroke:#000000; stroke-width:0; stroke-opacity:1; 
stroke-linecap:round; stroke-linejoin:round;">
<path style="fill:#000000; fill-opacity:1.0; 
stroke:#000000; stroke-width:0; stroke-opacity:1; 
stroke-linecap:round; stroke-linejoin:round;fill-rule:evenodd;"
d="M 29291.3,14604.3
29291.3,13895.7
30708.7,13895.7
30708.7,14604.3
Z" /> 
</g>
<g >
</g>
<g style="fill:#000000; fill-opacity:1.0; 
stroke:#000000; stroke-width:0; stroke-opacity:1; 
stroke-linecap:round; stroke-linejoin:round;">
<circle cx="20000" cy="14000" r="334.646" /> 
<path style="fill:#000000; fill-opacity:1.0; 
stroke:#000000; stroke-width:0; stroke-opacity:1; 
stroke-linecap:round; stroke-linejoin:round;fill-rule:evenodd;"
d="M 19665.4,13334.6
19665.4,12665.4
20334.6,12665.4
20334.6,13334.6
Z" /> 
</g>
<g >
</g>
<g style="fill:#000000; fill-opacity:1.0; 
stroke:#000000; stroke-width:0; stroke-opacity:1; 
stroke-linecap:round; stroke-linejoin:round;">
<path style="fill:#000000; fill-opacity:1.0; 
stroke:#000000; stroke-width:0; stroke-opacity:1; 
stroke-linecap:round; stroke-linejoin:round;fill-rule:evenodd;"
d="M 25689,13677.6
25698.3,13679
25707.5,13681.3
25716.3,13684.5
25724.9,13688.5
25732.9,13693.3
25740.5,13698.9
25747.5,13705.3
25753.8,13712.3
25759.4,13719.8
25764.3,13727.9
25768.3,13736.4
25771.5,13745.3
25773.7,13754.4
25775.1,13763.7
25775.6,13773.1
25775.6,13965.1
25775.1,13974.5
25773.7,13983.8
25771.5,13992.9
25768.3,14001.8
25764.3,14010.3
25759.4,14018.4
25753.8,14025.9
25747.5,14032.9
25740.5,14039.2
25732.9,14044.9
25724.9,14049.7
25716.3,14053.7
25707.5,14056.9
25698.3,14059.2
25689,14060.6
25679.6,14061
25320.4,14061
25311,14060.6
25301.7,14059.2
25292.5,14056.9
25283.7,14053.7
25275.1,14049.7
25267.1,14044.9
25259.5,14039.2
25252.5,14032.9
25246.2,14025.9
25240.6,14018.4
25235.7,14010.3
25231.7,14001.8
25228.5,13992.9
25226.3,13983.8
25224.9,13974.5
25224.4,13965.1
25224.4,13773.1
25224.9,13763.7
25226.3,13754.4
25228.5,13745.3
25231.7,13736.4
25235.7,13727.9
25240.6,13719.8
25246.2,13712.3
25252.5,13705.3
25259.5,13698.9
25267.1,13693.3
25275.1,13688.5
25283.7,13684.5
25292.5,13681.3
25301.7,13679
25311,13677.6
25320.4,13677.2
25679.6,13677.2
Z" /> 
<path style="fill:#000000; fill-opacity:1.0; 
stroke:#000000; stroke-width:0; stroke-opacity:1; 
stroke-linecap:round; stroke-linejoin:round;fill-rule:evenodd;"
d="M 25689,12939.4
25698.3,12940.8
25707.5,12943.1
25716.3,12946.3
25724.9,12950.3
25732.9,12955.1
25740.5,12960.8
25747.5,12967.1
25753.8,12974.1
25759.4,12981.6
25764.3,12989.7
25768.3,12998.2
25771.5,13007.1
25773.7,13016.2
25775.1,13025.5
25775.6,13034.9
25775.6,13226.9
25775.1,13236.3
25773.7,13245.6
25771.5,13254.7
25768.3,13263.6
25764.3,13272.1
25759.4,13280.2
25753.8,13287.7
25747.5,13294.7
25740.5,13301.1
25732.9,13306.7
25724.9,13311.5
25716.3,13315.5
25707.5,13318.7
25698.3,13321
25689,13322.4
25679.6,13322.8
25320.4,13322.8
25311,13322.4
25301.7,13321
25292.5,13318.7
25283.7,13315.5
25275.1,13311.5
25267.1,13306.7
25259.5,13301.1
25252.5,13294.7
25246.2,13287.7
25240.6,13280.2
25235.7,13272.1
25231.7,13263.6
25228.5,13254.7
25226.3,13245.6
25224.9,13236.3
25224.4,13226.9
25224.4,13034.9
25224.9,13025.5
25226.3,13016.2
25228.5,13007.1
25231.7,12998.2
25235.7,12989.7
25240.6,12981.6
25246.2,12974.1
25252.5,12967.1
25259.5,12960.8
25267.1,12955.1
25275.1,12950.3
25283.7,12946.3
25292.5,12943.1
25301.7,12940.8
25311,12939.4
25320.4,12939
25679.6,12939
Z" /> 
</g>
<g >
</g>
<g style="fill:#000000; fill-opacity:1.0; 
stroke:#000000; stroke-width:0; stroke-opacity:1; 
stroke-linecap:round; stroke-linejoin:round;">
<path style="fill:#000000; fill-opacity:1.0; 
stroke:#000000; stroke-width:0; stroke-opacity:1; 
stroke-linecap:round; stroke-linejoin:round;fill-rule:evenodd;"
d="M 23689,13677.6
23698.3,13679
23707.5,13681.3
23716.3,13684.5
23724.9,13688.5
23732.9,13693.3
23740.5,13698.9
23747.5,13705.3
23753.8,13712.3
23759.4,13719.8
23764.3,13727.9
23768.3,13736.4
23771.5,13745.3
23773.7,13754.4
23775.1,13763.7
23775.6,13773.1
23775.6,13965.1
23775.1,13974.5
23773.7,13983.8
23771.5,13992.9
23768.3,14001.8
23764.3,14010.3
23759.4,14018.4
23753.8,14025.9
23747.5,14032.9
23740.5,14039.2
23732.9,14044.9
23724.9,14049.7
23716.3,14053.7
23707.5,14056.9
23698.3,14059.2
23689,14060.6
23679.6,14061
23320.4,14061
23311,14060.6
23301.7,14059.2
23292.5,14056.9
23283.7,14053.7
23275.1,14049.7
23267.1,14044.9
23259.5,14039.2
23252.5,14032.9
23246.2,14025.9
23240.6,14018.4
23235.7,14010.3
23231.7,14001.8
23228.5,13992.9
23226.3,13983.8
23224.9,13974.5
23224.4,13965.1
23224.4,13773.1
23224.9,13763.7
23226.3,13754.4
23228.5,13745.3
23231.7,13736.4
23235.7,13727.9
23240.6,13719.8
23246.2,13712.3
23252.5,13705.3
23259.5,13698.9
23267.1,13693.3
23275.1,13688.5
23283.7,13684.5
23292.5,13681.3
23301.7,13679
23311,13677.6
23320.4,13677.2
23679.6,13677.2
Z" /> 
<path style="fill:#000000; fill-opacity:1.0; 
stroke:#000000; stroke-width:0; stroke-opacity:1; 
stroke-linecap:round; stroke-linejoin:round;fill-rule:evenodd;"
d="M 23689,12939.4
23698.3,12940.8
23707.5,12943.1
23716.3,12946.3
23724.9,12950.3
23732.9,12955.1
23740.5,12960.8
23747.5,12967.1
23753.8,12974.1
23759.4,12981.6
23764.3,12989.7
23768.3,12998.2
23771.5,13007.1
23773.7,13016.2
23775.1,13025.5
23775.6,13034.9
23775.6,13226.9
23775.1,13236.3
23773.7,13245.6
23771.5,13254.7
23768.3,13263.6
23764.3,13272.1
23759.4,13280.2
23753.8,13287.7
23747.5,13294.7
23740.5,13301.1
23732.9,13306.7
23724.9,13311.5
23716.3,13315.5
23707.5,13318.7
23698.3,13321
23689,13322.4
23679.6,13322.8
23320.4,13322.8
23311,13322.4
23301.7,13321
23292.5,13318.7
23283.7,13315.5
23275.1,13311.5
23267.1,13306.7
23259.5,13301.1
23252.5,13294.7
23246.2,13287.7
23240.6,13280.2
23235.7,13272.1
23231.7,13263.6
23228.5,13254.7
23226.3,13245.6
23224.9,13236.3
23224.4,13226.9
23224.4,13034.9
23224.9,13025.5
23226.3,13016.2
23228.5,13007.1
23231.7,12998.2
23235.7,12989.7
23240.6,12981.6
23246.2,12974.1
23252.5,12967.1
23259.5,12960.8
23267.1,12955.1
23275.1,12950.3
23283.7,12946.3
23292.5,12943.1
23301.7,12940.8
23311,12939.4
23320.4,12939
23679.6,12939
Z" /> 
</g>
<g >
</g>
<g style="fill:#000000; fill-opacity:1.0; 
stroke:#000000; stroke-width:0; stroke-opacity:1; 
stroke-linecap:round; stroke-linejoin:round;">
<path style="fill:#000000; fill-opacity:1.0; 
stroke:#000000; stroke-width:0; stroke-opacity:1; 
stroke-linecap:round; stroke-linejoin:round;fill-rule:evenodd;"
d="M 28989,26277.6
28998.3,26279
29007.5,26281.3
29016.3,26284.5
29024.9,26288.5
29032.9,26293.3
29040.5,26298.9
29047.5,26305.3
29053.8,26312.3
29059.4,26319.8
29064.3,26327.9
29068.3,26336.4
29071.5,26345.3
29073.7,26354.4
29075.1,26363.7
29075.6,26373.1
29075.6,26565.1
29075.1,26574.5
29073.7,26583.8
29071.5,26592.9
29068.3,26601.8
29064.3,26610.3
29059.4,26618.4
29053.8,26625.9
29047.5,26632.9
29040.5,26639.2
29032.9,26644.9
29024.9,26649.7
29016.3,26653.7
29007.5,26656.9
28998.3,26659.2
28989,26660.6
28979.6,26661
28620.4,26661
28611,26660.6
28601.7,26659.2
28592.5,26656.9
28583.6,26653.7
28575.1,26649.7
28567.1,26644.9
28559.5,26639.2
28552.5,26632.9
28546.2,26625.9
28540.6,26618.4
28535.7,26610.3
28531.7,26601.8
28528.5,26592.9
28526.3,26583.8
28524.9,26574.5
28524.4,26565.1
28524.4,26373.1
28524.9,26363.7
28526.3,26354.4
28528.5,26345.3
28531.7,26336.4
28535.7,26327.9
28540.6,26319.8
28546.2,26312.3
28552.5,26305.3
28559.5,26298.9
28567.1,26293.3
28575.1,26288.5
28583.6,26284.5
28592.5,26281.3
28601.7,26279
28611,26277.6
28620.4,26277.2
28979.6,26277.2
Z" /> 
<path style="fill:#000000; fill-opacity:1.0; 
stroke:#000000; stroke-width:0; stroke-opacity:1; 
stroke-linecap:round; stroke-linejoin:round;fill-rule:evenodd;"
d="M 28989,25539.4
28998.3,25540.8
29007.5,25543.1
29016.3,25546.3
29024.9,25550.3
29032.9,25555.1
29040.5,25560.8
29047.5,25567.1
29053.8,25574.1
29059.4,25581.6
29064.3,25589.7
29068.3,25598.2
29071.5,25607.1
29073.7,25616.2
29075.1,25625.5
29075.6,25634.9
29075.6,25826.9
29075.1,25836.3
29073.7,25845.6
29071.5,25854.7
29068.3,25863.6
29064.3,25872.1
29059.4,25880.2
29053.8,25887.7
29047.5,25894.7
29040.5,25901.1
29032.9,25906.7
29024.9,25911.5
29016.3,25915.5
29007.5,25918.7
28998.3,25921
28989,25922.4
28979.6,25922.8
28620.4,25922.8
28611,25922.4
28601.7,25921
28592.5,25918.7
28583.6,25915.5
28575.1,25911.5
28567.1,25906.7
28559.5,25901.1
28552.5,25894.7
28546.2,25887.7
28540.6,25880.2
28535.7,25872.1
28531.7,25863.6
28528.5,25854.7
28526.3,25845.6
28524.9,25836.3
28524.4,25826.9
28524.4,25634.9
28524.9,25625.5
28526.3,25616.2
28528.5,25607.1
28531.7,25598.2
28535.7,25589.7
28540.6,25581.6
28546.2,25574.1
28552.5,25567.1
28559.5,25560.8
28567.1,25555.1
28575.1,25550.3
28583.6,25546.3
28592.5,25543.1
28601.7,25540.8
28611,25539.4
28620.4,25539
28979.6,25539
Z" /> 
</g>
<g >
</g>
<g style="fill:#000000; fill-opacity:1.0; 
stroke:#000000; stroke-width:0; stroke-opacity:1; 
stroke-linecap:round; stroke-linejoin:round;">
<path style="fill:#000000; fill-opacity:1.0; 
stroke:#000000; stroke-width:0; stroke-opacity:1; 
stroke-linecap:round; stroke-linejoin:round;fill-rule:evenodd;"
d="M 28474.5,21724.9
28483.8,21726.3
28492.9,21728.5
28501.8,21731.7
28510.3,21735.7
28518.4,21740.6
28525.9,21746.2
28532.9,21752.5
28539.2,21759.5
28544.9,21767.1
28549.7,21775.1
28553.7,21783.7
28556.9,21792.5
28559.2,21801.7
28560.6,21811
28561,21820.4
28561,22179.6
28560.6,22189
28559.2,22198.3
28556.9,22207.5
28553.7,22216.3
28549.7,22224.9
28544.9,22232.9
28539.2,22240.5
28532.9,22247.5
28525.9,22253.8
28518.4,22259.4
28510.3,22264.3
28501.8,22268.3
28492.9,22271.5
28483.8,22273.7
28474.5,22275.1
28465.1,22275.6
28273.1,22275.6
28263.7,22275.1
28254.4,22273.7
28245.3,22271.5
28236.4,22268.3
28227.9,22264.3
28219.8,22259.4
28212.3,22253.8
28205.3,22247.5
28198.9,22240.5
28193.3,22232.9
28188.5,22224.9
28184.5,22216.3
28181.3,22207.5
28179,22198.3
28177.6,22189
28177.2,22179.6
28177.2,21820.4
28177.6,21811
28179,21801.7
28181.3,21792.5
28184.5,21783.7
28188.5,21775.1
28193.3,21767.1
28198.9,21759.5
28205.3,21752.5
28212.3,21746.2
28219.8,21740.6
28227.9,21735.7
28236.4,21731.7
28245.3,21728.5
28254.4,21726.3
28263.7,21724.9
28273.1,21724.4
28465.1,21724.4
Z" /> 
<path style="fill:#000000; fill-opacity:1.0; 
stroke:#000000; stroke-width:0; stroke-opacity:1; 
stroke-linecap:round; stroke-linejoin:round;fill-rule:evenodd;"
d="M 27736.3,21724.9
27745.6,21726.3
27754.7,21728.5
27763.6,21731.7
27772.1,21735.7
27780.2,21740.6
27787.7,21746.2
27794.7,21752.5
27801.1,21759.5
27806.7,21767.1
27811.5,21775.1
27815.5,21783.7
27818.7,21792.5
27821,21801.7
27822.4,21811
27822.8,21820.4
27822.8,22179.6
27822.4,22189
27821,22198.3
27818.7,22207.5
27815.5,22216.3
27811.5,22224.9
27806.7,22232.9
27801.1,22240.5
27794.7,22247.5
27787.7,22253.8
27780.2,22259.4
27772.1,22264.3
27763.6,22268.3
27754.7,22271.5
27745.6,22273.7
27736.3,22275.1
27726.9,22275.6
27534.9,22275.6
27525.5,22275.1
27516.2,22273.7
27507.1,22271.5
27498.2,22268.3
27489.7,22264.3
27481.6,22259.4
27474.1,22253.8
27467.1,22247.5
27460.8,22240.5
27455.1,22232.9
27450.3,22224.9
27446.3,22216.3
27443.1,22207.5
27440.8,22198.3
27439.4,22189
27439,22179.6
27439,21820.4
27439.4,21811
27440.8,21801.7
27443.1,21792.5
27446.3,21783.7
27450.3,21775.1
27455.1,21767.1
27460.8,21759.5
27467.1,21752.5
27474.1,21746.2
27481.6,21740.6
27489.7,21735.7
27498.2,21731.7
27507.1,21728.5
27516.2,21726.3
27525.5,21724.9
27534.9,21724.4
27726.9,21724.4
Z" /> 
</g>
<g >
</g>
<g >
</g>
<g >
</g>
</g> 
</svg>
