G04 #@! TF.GenerationSoftware,KiCad,Pcbnew,5.1.5-52549c5~84~ubuntu19.10.1*
G04 #@! TF.CreationDate,2020-04-09T07:07:27-07:00*
G04 #@! TF.ProjectId,hub-75-pmod,6875622d-3735-42d7-906d-6f642e6b6963,rev?*
G04 #@! TF.SameCoordinates,PX2857260PY1dea728*
G04 #@! TF.FileFunction,Legend,Bot*
G04 #@! TF.FilePolarity,Positive*
%FSLAX46Y46*%
G04 Gerber Fmt 4.6, Leading zero omitted, Abs format (unit mm)*
G04 Created by KiCad (PCBNEW 5.1.5-52549c5~84~ubuntu19.10.1) date 2020-04-09 07:07:27*
%MOMM*%
%LPD*%
G04 APERTURE LIST*
%ADD10C,0.200000*%
%ADD11C,0.120000*%
G04 APERTURE END LIST*
D10*
X17258571Y-6901571D02*
X17258571Y-6115857D01*
X17330000Y-5973000D01*
X17472857Y-5901571D01*
X17758571Y-5901571D01*
X17901428Y-5973000D01*
X17258571Y-6830142D02*
X17401428Y-6901571D01*
X17758571Y-6901571D01*
X17901428Y-6830142D01*
X17972857Y-6687285D01*
X17972857Y-6544428D01*
X17901428Y-6401571D01*
X17758571Y-6330142D01*
X17401428Y-6330142D01*
X17258571Y-6258714D01*
X16544285Y-5901571D02*
X16544285Y-7401571D01*
X16544285Y-5973000D02*
X16401428Y-5901571D01*
X16115714Y-5901571D01*
X15972857Y-5973000D01*
X15901428Y-6044428D01*
X15830000Y-6187285D01*
X15830000Y-6615857D01*
X15901428Y-6758714D01*
X15972857Y-6830142D01*
X16115714Y-6901571D01*
X16401428Y-6901571D01*
X16544285Y-6830142D01*
X15187142Y-6901571D02*
X15187142Y-5901571D01*
X15187142Y-6187285D02*
X15115714Y-6044428D01*
X15044285Y-5973000D01*
X14901428Y-5901571D01*
X14758571Y-5901571D01*
X14330000Y-5544428D02*
X14258571Y-5473000D01*
X14115714Y-5401571D01*
X13758571Y-5401571D01*
X13615714Y-5473000D01*
X13544285Y-5544428D01*
X13472857Y-5687285D01*
X13472857Y-5830142D01*
X13544285Y-6044428D01*
X14401428Y-6901571D01*
X13472857Y-6901571D01*
X12544285Y-5401571D02*
X12401428Y-5401571D01*
X12258571Y-5473000D01*
X12187142Y-5544428D01*
X12115714Y-5687285D01*
X12044285Y-5973000D01*
X12044285Y-6330142D01*
X12115714Y-6615857D01*
X12187142Y-6758714D01*
X12258571Y-6830142D01*
X12401428Y-6901571D01*
X12544285Y-6901571D01*
X12687142Y-6830142D01*
X12758571Y-6758714D01*
X12830000Y-6615857D01*
X12901428Y-6330142D01*
X12901428Y-5973000D01*
X12830000Y-5687285D01*
X12758571Y-5544428D01*
X12687142Y-5473000D01*
X12544285Y-5401571D01*
X11472857Y-5544428D02*
X11401428Y-5473000D01*
X11258571Y-5401571D01*
X10901428Y-5401571D01*
X10758571Y-5473000D01*
X10687142Y-5544428D01*
X10615714Y-5687285D01*
X10615714Y-5830142D01*
X10687142Y-6044428D01*
X11544285Y-6901571D01*
X10615714Y-6901571D01*
X9687142Y-5401571D02*
X9544285Y-5401571D01*
X9401428Y-5473000D01*
X9330000Y-5544428D01*
X9258571Y-5687285D01*
X9187142Y-5973000D01*
X9187142Y-6330142D01*
X9258571Y-6615857D01*
X9330000Y-6758714D01*
X9401428Y-6830142D01*
X9544285Y-6901571D01*
X9687142Y-6901571D01*
X9830000Y-6830142D01*
X9901428Y-6758714D01*
X9972857Y-6615857D01*
X10044285Y-6330142D01*
X10044285Y-5973000D01*
X9972857Y-5687285D01*
X9901428Y-5544428D01*
X9830000Y-5473000D01*
X9687142Y-5401571D01*
X20615714Y-3615571D02*
X20044285Y-3615571D01*
X20401428Y-3115571D02*
X20401428Y-4401285D01*
X20330000Y-4544142D01*
X20187142Y-4615571D01*
X20044285Y-4615571D01*
X19330000Y-4615571D02*
X19472857Y-4544142D01*
X19544285Y-4472714D01*
X19615714Y-4329857D01*
X19615714Y-3901285D01*
X19544285Y-3758428D01*
X19472857Y-3687000D01*
X19330000Y-3615571D01*
X19115714Y-3615571D01*
X18972857Y-3687000D01*
X18901428Y-3758428D01*
X18830000Y-3901285D01*
X18830000Y-4329857D01*
X18901428Y-4472714D01*
X18972857Y-4544142D01*
X19115714Y-4615571D01*
X19330000Y-4615571D01*
X18187142Y-4615571D02*
X18187142Y-3615571D01*
X18187142Y-3758428D02*
X18115714Y-3687000D01*
X17972857Y-3615571D01*
X17758571Y-3615571D01*
X17615714Y-3687000D01*
X17544285Y-3829857D01*
X17544285Y-4615571D01*
X17544285Y-3829857D02*
X17472857Y-3687000D01*
X17330000Y-3615571D01*
X17115714Y-3615571D01*
X16972857Y-3687000D01*
X16901428Y-3829857D01*
X16901428Y-4615571D01*
X15258571Y-3901285D02*
X15330000Y-3829857D01*
X15472857Y-3758428D01*
X15615714Y-3758428D01*
X15758571Y-3829857D01*
X15830000Y-3901285D01*
X15901428Y-4044142D01*
X15901428Y-4187000D01*
X15830000Y-4329857D01*
X15758571Y-4401285D01*
X15615714Y-4472714D01*
X15472857Y-4472714D01*
X15330000Y-4401285D01*
X15258571Y-4329857D01*
X15258571Y-3758428D02*
X15258571Y-4329857D01*
X15187142Y-4401285D01*
X15115714Y-4401285D01*
X14972857Y-4329857D01*
X14901428Y-4187000D01*
X14901428Y-3829857D01*
X15044285Y-3615571D01*
X15258571Y-3472714D01*
X15544285Y-3401285D01*
X15830000Y-3472714D01*
X16044285Y-3615571D01*
X16187142Y-3829857D01*
X16258571Y-4115571D01*
X16187142Y-4401285D01*
X16044285Y-4615571D01*
X15830000Y-4758428D01*
X15544285Y-4829857D01*
X15258571Y-4758428D01*
X15044285Y-4615571D01*
X14472857Y-3615571D02*
X13901428Y-3615571D01*
X14258571Y-3115571D02*
X14258571Y-4401285D01*
X14187142Y-4544142D01*
X14044285Y-4615571D01*
X13901428Y-4615571D01*
X13187142Y-4615571D02*
X13330000Y-4544142D01*
X13401428Y-4472714D01*
X13472857Y-4329857D01*
X13472857Y-3901285D01*
X13401428Y-3758428D01*
X13330000Y-3687000D01*
X13187142Y-3615571D01*
X12972857Y-3615571D01*
X12830000Y-3687000D01*
X12758571Y-3758428D01*
X12687142Y-3901285D01*
X12687142Y-4329857D01*
X12758571Y-4472714D01*
X12830000Y-4544142D01*
X12972857Y-4615571D01*
X13187142Y-4615571D01*
X12044285Y-4615571D02*
X12044285Y-3615571D01*
X12044285Y-3758428D02*
X11972857Y-3687000D01*
X11830000Y-3615571D01*
X11615714Y-3615571D01*
X11472857Y-3687000D01*
X11401428Y-3829857D01*
X11401428Y-4615571D01*
X11401428Y-3829857D02*
X11330000Y-3687000D01*
X11187142Y-3615571D01*
X10972857Y-3615571D01*
X10830000Y-3687000D01*
X10758571Y-3829857D01*
X10758571Y-4615571D01*
X10044285Y-4615571D02*
X10044285Y-3115571D01*
X9901428Y-4044142D02*
X9472857Y-4615571D01*
X9472857Y-3615571D02*
X10044285Y-4187000D01*
X8830000Y-4472714D02*
X8758571Y-4544142D01*
X8830000Y-4615571D01*
X8901428Y-4544142D01*
X8830000Y-4472714D01*
X8830000Y-4615571D01*
X8115714Y-4615571D02*
X8115714Y-3615571D01*
X8115714Y-3115571D02*
X8187142Y-3187000D01*
X8115714Y-3258428D01*
X8044285Y-3187000D01*
X8115714Y-3115571D01*
X8115714Y-3258428D01*
X7401428Y-3615571D02*
X7401428Y-4615571D01*
X7401428Y-3758428D02*
X7330000Y-3687000D01*
X7187142Y-3615571D01*
X6972857Y-3615571D01*
X6830000Y-3687000D01*
X6758571Y-3829857D01*
X6758571Y-4615571D01*
X24220000Y-20419142D02*
X24005714Y-20490571D01*
X23648571Y-20490571D01*
X23505714Y-20419142D01*
X23434285Y-20347714D01*
X23362857Y-20204857D01*
X23362857Y-20062000D01*
X23434285Y-19919142D01*
X23505714Y-19847714D01*
X23648571Y-19776285D01*
X23934285Y-19704857D01*
X24077142Y-19633428D01*
X24148571Y-19562000D01*
X24220000Y-19419142D01*
X24220000Y-19276285D01*
X24148571Y-19133428D01*
X24077142Y-19062000D01*
X23934285Y-18990571D01*
X23577142Y-18990571D01*
X23362857Y-19062000D01*
X22934285Y-18990571D02*
X22077142Y-18990571D01*
X22505714Y-20490571D02*
X22505714Y-18990571D01*
X21077142Y-19704857D02*
X20862857Y-19776285D01*
X20791428Y-19847714D01*
X20720000Y-19990571D01*
X20720000Y-20204857D01*
X20791428Y-20347714D01*
X20862857Y-20419142D01*
X21005714Y-20490571D01*
X21577142Y-20490571D01*
X21577142Y-18990571D01*
X21077142Y-18990571D01*
X20934285Y-19062000D01*
X20862857Y-19133428D01*
X20791428Y-19276285D01*
X20791428Y-19419142D01*
X20862857Y-19562000D01*
X20934285Y-19633428D01*
X21077142Y-19704857D01*
X21577142Y-19704857D01*
X8178428Y-18990571D02*
X7892714Y-18990571D01*
X7749857Y-19062000D01*
X7607000Y-19204857D01*
X7535571Y-19490571D01*
X7535571Y-19990571D01*
X7607000Y-20276285D01*
X7749857Y-20419142D01*
X7892714Y-20490571D01*
X8178428Y-20490571D01*
X8321285Y-20419142D01*
X8464142Y-20276285D01*
X8535571Y-19990571D01*
X8535571Y-19490571D01*
X8464142Y-19204857D01*
X8321285Y-19062000D01*
X8178428Y-18990571D01*
X6892714Y-19704857D02*
X6392714Y-19704857D01*
X6178428Y-20490571D02*
X6892714Y-20490571D01*
X6892714Y-18990571D01*
X6178428Y-18990571D01*
X7499857Y-17553714D02*
X7571285Y-17625142D01*
X7785571Y-17696571D01*
X7928428Y-17696571D01*
X8142714Y-17625142D01*
X8285571Y-17482285D01*
X8357000Y-17339428D01*
X8428428Y-17053714D01*
X8428428Y-16839428D01*
X8357000Y-16553714D01*
X8285571Y-16410857D01*
X8142714Y-16268000D01*
X7928428Y-16196571D01*
X7785571Y-16196571D01*
X7571285Y-16268000D01*
X7499857Y-16339428D01*
X6142714Y-17696571D02*
X6857000Y-17696571D01*
X6857000Y-16196571D01*
X7749857Y-14902571D02*
X7749857Y-13402571D01*
X7392714Y-13402571D01*
X7178428Y-13474000D01*
X7035571Y-13616857D01*
X6964142Y-13759714D01*
X6892714Y-14045428D01*
X6892714Y-14259714D01*
X6964142Y-14545428D01*
X7035571Y-14688285D01*
X7178428Y-14831142D01*
X7392714Y-14902571D01*
X7749857Y-14902571D01*
X7249857Y-11322857D02*
X7035571Y-11394285D01*
X6964142Y-11465714D01*
X6892714Y-11608571D01*
X6892714Y-11822857D01*
X6964142Y-11965714D01*
X7035571Y-12037142D01*
X7178428Y-12108571D01*
X7749857Y-12108571D01*
X7749857Y-10608571D01*
X7249857Y-10608571D01*
X7107000Y-10680000D01*
X7035571Y-10751428D01*
X6964142Y-10894285D01*
X6964142Y-11037142D01*
X7035571Y-11180000D01*
X7107000Y-11251428D01*
X7249857Y-11322857D01*
X7749857Y-11322857D01*
X17532857Y-8330428D02*
X17675714Y-8259000D01*
X17747142Y-8187571D01*
X17818571Y-8044714D01*
X17818571Y-7973285D01*
X17747142Y-7830428D01*
X17675714Y-7759000D01*
X17532857Y-7687571D01*
X17247142Y-7687571D01*
X17104285Y-7759000D01*
X17032857Y-7830428D01*
X16961428Y-7973285D01*
X16961428Y-8044714D01*
X17032857Y-8187571D01*
X17104285Y-8259000D01*
X17247142Y-8330428D01*
X17532857Y-8330428D01*
X17675714Y-8401857D01*
X17747142Y-8473285D01*
X17818571Y-8616142D01*
X17818571Y-8901857D01*
X17747142Y-9044714D01*
X17675714Y-9116142D01*
X17532857Y-9187571D01*
X17247142Y-9187571D01*
X17104285Y-9116142D01*
X17032857Y-9044714D01*
X16961428Y-8901857D01*
X16961428Y-8616142D01*
X17032857Y-8473285D01*
X17104285Y-8401857D01*
X17247142Y-8330428D01*
X11921000Y-7560571D02*
X10921000Y-7560571D01*
X11563857Y-9060571D01*
D11*
X14640000Y-20812000D02*
X20140000Y-20812000D01*
X20140000Y-20812000D02*
X20140000Y-18862000D01*
X20140000Y-18862000D02*
X14640000Y-18862000D01*
X14640000Y-18862000D02*
X14640000Y-20812000D01*
X15990000Y-18612000D02*
X15690000Y-18312000D01*
X15690000Y-18312000D02*
X16290000Y-18312000D01*
X16290000Y-18312000D02*
X15990000Y-18612000D01*
X14640000Y-18018000D02*
X20140000Y-18018000D01*
X20140000Y-18018000D02*
X20140000Y-16068000D01*
X20140000Y-16068000D02*
X14640000Y-16068000D01*
X14640000Y-16068000D02*
X14640000Y-18018000D01*
X15990000Y-15818000D02*
X15690000Y-15518000D01*
X15690000Y-15518000D02*
X16290000Y-15518000D01*
X16290000Y-15518000D02*
X15990000Y-15818000D01*
X14640000Y-15224000D02*
X20140000Y-15224000D01*
X20140000Y-15224000D02*
X20140000Y-13274000D01*
X20140000Y-13274000D02*
X14640000Y-13274000D01*
X14640000Y-13274000D02*
X14640000Y-15224000D01*
X15990000Y-13024000D02*
X15690000Y-12724000D01*
X15690000Y-12724000D02*
X16290000Y-12724000D01*
X16290000Y-12724000D02*
X15990000Y-13024000D01*
X14640000Y-12430000D02*
X20140000Y-12430000D01*
X20140000Y-12430000D02*
X20140000Y-10480000D01*
X20140000Y-10480000D02*
X14640000Y-10480000D01*
X14640000Y-10480000D02*
X14640000Y-12430000D01*
X15990000Y-10230000D02*
X15690000Y-9930000D01*
X15690000Y-9930000D02*
X16290000Y-9930000D01*
X16290000Y-9930000D02*
X15990000Y-10230000D01*
X8671000Y-20812000D02*
X14171000Y-20812000D01*
X14171000Y-20812000D02*
X14171000Y-18862000D01*
X14171000Y-18862000D02*
X8671000Y-18862000D01*
X8671000Y-18862000D02*
X8671000Y-20812000D01*
X10021000Y-18612000D02*
X9721000Y-18312000D01*
X9721000Y-18312000D02*
X10321000Y-18312000D01*
X10321000Y-18312000D02*
X10021000Y-18612000D01*
X8671000Y-18018000D02*
X14171000Y-18018000D01*
X14171000Y-18018000D02*
X14171000Y-16068000D01*
X14171000Y-16068000D02*
X8671000Y-16068000D01*
X8671000Y-16068000D02*
X8671000Y-18018000D01*
X10021000Y-15818000D02*
X9721000Y-15518000D01*
X9721000Y-15518000D02*
X10321000Y-15518000D01*
X10321000Y-15518000D02*
X10021000Y-15818000D01*
X8671000Y-15224000D02*
X14171000Y-15224000D01*
X14171000Y-15224000D02*
X14171000Y-13274000D01*
X14171000Y-13274000D02*
X8671000Y-13274000D01*
X8671000Y-13274000D02*
X8671000Y-15224000D01*
X10021000Y-13024000D02*
X9721000Y-12724000D01*
X9721000Y-12724000D02*
X10321000Y-12724000D01*
X10321000Y-12724000D02*
X10021000Y-13024000D01*
X8671000Y-12430000D02*
X14171000Y-12430000D01*
X14171000Y-12430000D02*
X14171000Y-10480000D01*
X14171000Y-10480000D02*
X8671000Y-10480000D01*
X8671000Y-10480000D02*
X8671000Y-12430000D01*
X10021000Y-10230000D02*
X9721000Y-9930000D01*
X9721000Y-9930000D02*
X10321000Y-9930000D01*
X10321000Y-9930000D02*
X10021000Y-10230000D01*
M02*
