G04 #@! TF.GenerationSoftware,KiCad,Pcbnew,9.0.1-unknown-1000.20250420git906ef8b.fc41*
G04 #@! TF.CreationDate,2025-04-27T16:22:33-07:00*
G04 #@! TF.ProjectId,2024-clock-retrofit,32303234-2d63-46c6-9f63-6b2d72657472,rev?*
G04 #@! TF.SameCoordinates,Original*
G04 #@! TF.FileFunction,Legend,Top*
G04 #@! TF.FilePolarity,Positive*
%FSLAX46Y46*%
G04 Gerber Fmt 4.6, Leading zero omitted, Abs format (unit mm)*
G04 Created by KiCad (PCBNEW 9.0.1-unknown-1000.20250420git906ef8b.fc41) date 2025-04-27 16:22:33*
%MOMM*%
%LPD*%
G01*
G04 APERTURE LIST*
G04 Aperture macros list*
%AMRoundRect*
0 Rectangle with rounded corners*
0 $1 Rounding radius*
0 $2 $3 $4 $5 $6 $7 $8 $9 X,Y pos of 4 corners*
0 Add a 4 corners polygon primitive as box body*
4,1,4,$2,$3,$4,$5,$6,$7,$8,$9,$2,$3,0*
0 Add four circle primitives for the rounded corners*
1,1,$1+$1,$2,$3*
1,1,$1+$1,$4,$5*
1,1,$1+$1,$6,$7*
1,1,$1+$1,$8,$9*
0 Add four rect primitives between the rounded corners*
20,1,$1+$1,$2,$3,$4,$5,0*
20,1,$1+$1,$4,$5,$6,$7,0*
20,1,$1+$1,$6,$7,$8,$9,0*
20,1,$1+$1,$8,$9,$2,$3,0*%
G04 Aperture macros list end*
%ADD10C,0.150000*%
%ADD11C,0.120000*%
%ADD12RoundRect,0.218750X-0.218750X-0.256250X0.218750X-0.256250X0.218750X0.256250X-0.218750X0.256250X0*%
%ADD13RoundRect,0.218750X-0.256250X0.218750X-0.256250X-0.218750X0.256250X-0.218750X0.256250X0.218750X0*%
%ADD14RoundRect,0.225000X-0.225000X-0.250000X0.225000X-0.250000X0.225000X0.250000X-0.225000X0.250000X0*%
%ADD15RoundRect,0.135000X-0.135000X-0.185000X0.135000X-0.185000X0.135000X0.185000X-0.135000X0.185000X0*%
%ADD16O,1.600000X3.200000*%
%ADD17RoundRect,0.135000X-0.185000X0.135000X-0.185000X-0.135000X0.185000X-0.135000X0.185000X0.135000X0*%
%ADD18RoundRect,0.225000X0.225000X0.250000X-0.225000X0.250000X-0.225000X-0.250000X0.225000X-0.250000X0*%
%ADD19RoundRect,0.250000X0.325000X0.650000X-0.325000X0.650000X-0.325000X-0.650000X0.325000X-0.650000X0*%
%ADD20RoundRect,0.135000X0.135000X0.185000X-0.135000X0.185000X-0.135000X-0.185000X0.135000X-0.185000X0*%
%ADD21RoundRect,0.250000X0.450000X-0.262500X0.450000X0.262500X-0.450000X0.262500X-0.450000X-0.262500X0*%
%ADD22RoundRect,0.225000X-0.250000X0.225000X-0.250000X-0.225000X0.250000X-0.225000X0.250000X0.225000X0*%
%ADD23R,0.400000X1.200000*%
%ADD24RoundRect,0.250000X0.650000X-0.325000X0.650000X0.325000X-0.650000X0.325000X-0.650000X-0.325000X0*%
%ADD25RoundRect,0.218750X0.256250X-0.218750X0.256250X0.218750X-0.256250X0.218750X-0.256250X-0.218750X0*%
%ADD26RoundRect,0.135000X0.185000X-0.135000X0.185000X0.135000X-0.185000X0.135000X-0.185000X-0.135000X0*%
%ADD27R,1.000000X2.500000*%
%ADD28O,1.000000X2.500000*%
%ADD29RoundRect,0.250000X-0.450000X0.262500X-0.450000X-0.262500X0.450000X-0.262500X0.450000X0.262500X0*%
%ADD30RoundRect,0.375000X0.375000X-0.625000X0.375000X0.625000X-0.375000X0.625000X-0.375000X-0.625000X0*%
%ADD31RoundRect,0.500000X1.400000X-0.500000X1.400000X0.500000X-1.400000X0.500000X-1.400000X-0.500000X0*%
%ADD32C,2.600000*%
%ADD33O,1.750000X2.625000*%
G04 APERTURE END LIST*
D10*
X168785714Y-132524819D02*
X168785714Y-131524819D01*
X168785714Y-131524819D02*
X169023809Y-131524819D01*
X169023809Y-131524819D02*
X169166666Y-131572438D01*
X169166666Y-131572438D02*
X169261904Y-131667676D01*
X169261904Y-131667676D02*
X169309523Y-131762914D01*
X169309523Y-131762914D02*
X169357142Y-131953390D01*
X169357142Y-131953390D02*
X169357142Y-132096247D01*
X169357142Y-132096247D02*
X169309523Y-132286723D01*
X169309523Y-132286723D02*
X169261904Y-132381961D01*
X169261904Y-132381961D02*
X169166666Y-132477200D01*
X169166666Y-132477200D02*
X169023809Y-132524819D01*
X169023809Y-132524819D02*
X168785714Y-132524819D01*
X170261904Y-131524819D02*
X169785714Y-131524819D01*
X169785714Y-131524819D02*
X169738095Y-132001009D01*
X169738095Y-132001009D02*
X169785714Y-131953390D01*
X169785714Y-131953390D02*
X169880952Y-131905771D01*
X169880952Y-131905771D02*
X170119047Y-131905771D01*
X170119047Y-131905771D02*
X170214285Y-131953390D01*
X170214285Y-131953390D02*
X170261904Y-132001009D01*
X170261904Y-132001009D02*
X170309523Y-132096247D01*
X170309523Y-132096247D02*
X170309523Y-132334342D01*
X170309523Y-132334342D02*
X170261904Y-132429580D01*
X170261904Y-132429580D02*
X170214285Y-132477200D01*
X170214285Y-132477200D02*
X170119047Y-132524819D01*
X170119047Y-132524819D02*
X169880952Y-132524819D01*
X169880952Y-132524819D02*
X169785714Y-132477200D01*
X169785714Y-132477200D02*
X169738095Y-132429580D01*
X170785714Y-132524819D02*
X170976190Y-132524819D01*
X170976190Y-132524819D02*
X171071428Y-132477200D01*
X171071428Y-132477200D02*
X171119047Y-132429580D01*
X171119047Y-132429580D02*
X171214285Y-132286723D01*
X171214285Y-132286723D02*
X171261904Y-132096247D01*
X171261904Y-132096247D02*
X171261904Y-131715295D01*
X171261904Y-131715295D02*
X171214285Y-131620057D01*
X171214285Y-131620057D02*
X171166666Y-131572438D01*
X171166666Y-131572438D02*
X171071428Y-131524819D01*
X171071428Y-131524819D02*
X170880952Y-131524819D01*
X170880952Y-131524819D02*
X170785714Y-131572438D01*
X170785714Y-131572438D02*
X170738095Y-131620057D01*
X170738095Y-131620057D02*
X170690476Y-131715295D01*
X170690476Y-131715295D02*
X170690476Y-131953390D01*
X170690476Y-131953390D02*
X170738095Y-132048628D01*
X170738095Y-132048628D02*
X170785714Y-132096247D01*
X170785714Y-132096247D02*
X170880952Y-132143866D01*
X170880952Y-132143866D02*
X171071428Y-132143866D01*
X171071428Y-132143866D02*
X171166666Y-132096247D01*
X171166666Y-132096247D02*
X171214285Y-132048628D01*
X171214285Y-132048628D02*
X171261904Y-131953390D01*
X57761905Y-66024819D02*
X57761905Y-65024819D01*
X57761905Y-65024819D02*
X58000000Y-65024819D01*
X58000000Y-65024819D02*
X58142857Y-65072438D01*
X58142857Y-65072438D02*
X58238095Y-65167676D01*
X58238095Y-65167676D02*
X58285714Y-65262914D01*
X58285714Y-65262914D02*
X58333333Y-65453390D01*
X58333333Y-65453390D02*
X58333333Y-65596247D01*
X58333333Y-65596247D02*
X58285714Y-65786723D01*
X58285714Y-65786723D02*
X58238095Y-65881961D01*
X58238095Y-65881961D02*
X58142857Y-65977200D01*
X58142857Y-65977200D02*
X58000000Y-66024819D01*
X58000000Y-66024819D02*
X57761905Y-66024819D01*
X58904762Y-65453390D02*
X58809524Y-65405771D01*
X58809524Y-65405771D02*
X58761905Y-65358152D01*
X58761905Y-65358152D02*
X58714286Y-65262914D01*
X58714286Y-65262914D02*
X58714286Y-65215295D01*
X58714286Y-65215295D02*
X58761905Y-65120057D01*
X58761905Y-65120057D02*
X58809524Y-65072438D01*
X58809524Y-65072438D02*
X58904762Y-65024819D01*
X58904762Y-65024819D02*
X59095238Y-65024819D01*
X59095238Y-65024819D02*
X59190476Y-65072438D01*
X59190476Y-65072438D02*
X59238095Y-65120057D01*
X59238095Y-65120057D02*
X59285714Y-65215295D01*
X59285714Y-65215295D02*
X59285714Y-65262914D01*
X59285714Y-65262914D02*
X59238095Y-65358152D01*
X59238095Y-65358152D02*
X59190476Y-65405771D01*
X59190476Y-65405771D02*
X59095238Y-65453390D01*
X59095238Y-65453390D02*
X58904762Y-65453390D01*
X58904762Y-65453390D02*
X58809524Y-65501009D01*
X58809524Y-65501009D02*
X58761905Y-65548628D01*
X58761905Y-65548628D02*
X58714286Y-65643866D01*
X58714286Y-65643866D02*
X58714286Y-65834342D01*
X58714286Y-65834342D02*
X58761905Y-65929580D01*
X58761905Y-65929580D02*
X58809524Y-65977200D01*
X58809524Y-65977200D02*
X58904762Y-66024819D01*
X58904762Y-66024819D02*
X59095238Y-66024819D01*
X59095238Y-66024819D02*
X59190476Y-65977200D01*
X59190476Y-65977200D02*
X59238095Y-65929580D01*
X59238095Y-65929580D02*
X59285714Y-65834342D01*
X59285714Y-65834342D02*
X59285714Y-65643866D01*
X59285714Y-65643866D02*
X59238095Y-65548628D01*
X59238095Y-65548628D02*
X59190476Y-65501009D01*
X59190476Y-65501009D02*
X59095238Y-65453390D01*
X52785714Y-99024819D02*
X52785714Y-98024819D01*
X52785714Y-98024819D02*
X53023809Y-98024819D01*
X53023809Y-98024819D02*
X53166666Y-98072438D01*
X53166666Y-98072438D02*
X53261904Y-98167676D01*
X53261904Y-98167676D02*
X53309523Y-98262914D01*
X53309523Y-98262914D02*
X53357142Y-98453390D01*
X53357142Y-98453390D02*
X53357142Y-98596247D01*
X53357142Y-98596247D02*
X53309523Y-98786723D01*
X53309523Y-98786723D02*
X53261904Y-98881961D01*
X53261904Y-98881961D02*
X53166666Y-98977200D01*
X53166666Y-98977200D02*
X53023809Y-99024819D01*
X53023809Y-99024819D02*
X52785714Y-99024819D01*
X53738095Y-98120057D02*
X53785714Y-98072438D01*
X53785714Y-98072438D02*
X53880952Y-98024819D01*
X53880952Y-98024819D02*
X54119047Y-98024819D01*
X54119047Y-98024819D02*
X54214285Y-98072438D01*
X54214285Y-98072438D02*
X54261904Y-98120057D01*
X54261904Y-98120057D02*
X54309523Y-98215295D01*
X54309523Y-98215295D02*
X54309523Y-98310533D01*
X54309523Y-98310533D02*
X54261904Y-98453390D01*
X54261904Y-98453390D02*
X53690476Y-99024819D01*
X53690476Y-99024819D02*
X54309523Y-99024819D01*
X54928571Y-98024819D02*
X55023809Y-98024819D01*
X55023809Y-98024819D02*
X55119047Y-98072438D01*
X55119047Y-98072438D02*
X55166666Y-98120057D01*
X55166666Y-98120057D02*
X55214285Y-98215295D01*
X55214285Y-98215295D02*
X55261904Y-98405771D01*
X55261904Y-98405771D02*
X55261904Y-98643866D01*
X55261904Y-98643866D02*
X55214285Y-98834342D01*
X55214285Y-98834342D02*
X55166666Y-98929580D01*
X55166666Y-98929580D02*
X55119047Y-98977200D01*
X55119047Y-98977200D02*
X55023809Y-99024819D01*
X55023809Y-99024819D02*
X54928571Y-99024819D01*
X54928571Y-99024819D02*
X54833333Y-98977200D01*
X54833333Y-98977200D02*
X54785714Y-98929580D01*
X54785714Y-98929580D02*
X54738095Y-98834342D01*
X54738095Y-98834342D02*
X54690476Y-98643866D01*
X54690476Y-98643866D02*
X54690476Y-98405771D01*
X54690476Y-98405771D02*
X54738095Y-98215295D01*
X54738095Y-98215295D02*
X54785714Y-98120057D01*
X54785714Y-98120057D02*
X54833333Y-98072438D01*
X54833333Y-98072438D02*
X54928571Y-98024819D01*
X247884819Y-78714285D02*
X246884819Y-78714285D01*
X246884819Y-78714285D02*
X246884819Y-78476190D01*
X246884819Y-78476190D02*
X246932438Y-78333333D01*
X246932438Y-78333333D02*
X247027676Y-78238095D01*
X247027676Y-78238095D02*
X247122914Y-78190476D01*
X247122914Y-78190476D02*
X247313390Y-78142857D01*
X247313390Y-78142857D02*
X247456247Y-78142857D01*
X247456247Y-78142857D02*
X247646723Y-78190476D01*
X247646723Y-78190476D02*
X247741961Y-78238095D01*
X247741961Y-78238095D02*
X247837200Y-78333333D01*
X247837200Y-78333333D02*
X247884819Y-78476190D01*
X247884819Y-78476190D02*
X247884819Y-78714285D01*
X247218152Y-77285714D02*
X247884819Y-77285714D01*
X246837200Y-77523809D02*
X247551485Y-77761904D01*
X247551485Y-77761904D02*
X247551485Y-77142857D01*
X246980057Y-76809523D02*
X246932438Y-76761904D01*
X246932438Y-76761904D02*
X246884819Y-76666666D01*
X246884819Y-76666666D02*
X246884819Y-76428571D01*
X246884819Y-76428571D02*
X246932438Y-76333333D01*
X246932438Y-76333333D02*
X246980057Y-76285714D01*
X246980057Y-76285714D02*
X247075295Y-76238095D01*
X247075295Y-76238095D02*
X247170533Y-76238095D01*
X247170533Y-76238095D02*
X247313390Y-76285714D01*
X247313390Y-76285714D02*
X247884819Y-76857142D01*
X247884819Y-76857142D02*
X247884819Y-76238095D01*
X179785714Y-132524819D02*
X179785714Y-131524819D01*
X179785714Y-131524819D02*
X180023809Y-131524819D01*
X180023809Y-131524819D02*
X180166666Y-131572438D01*
X180166666Y-131572438D02*
X180261904Y-131667676D01*
X180261904Y-131667676D02*
X180309523Y-131762914D01*
X180309523Y-131762914D02*
X180357142Y-131953390D01*
X180357142Y-131953390D02*
X180357142Y-132096247D01*
X180357142Y-132096247D02*
X180309523Y-132286723D01*
X180309523Y-132286723D02*
X180261904Y-132381961D01*
X180261904Y-132381961D02*
X180166666Y-132477200D01*
X180166666Y-132477200D02*
X180023809Y-132524819D01*
X180023809Y-132524819D02*
X179785714Y-132524819D01*
X181214285Y-131524819D02*
X181023809Y-131524819D01*
X181023809Y-131524819D02*
X180928571Y-131572438D01*
X180928571Y-131572438D02*
X180880952Y-131620057D01*
X180880952Y-131620057D02*
X180785714Y-131762914D01*
X180785714Y-131762914D02*
X180738095Y-131953390D01*
X180738095Y-131953390D02*
X180738095Y-132334342D01*
X180738095Y-132334342D02*
X180785714Y-132429580D01*
X180785714Y-132429580D02*
X180833333Y-132477200D01*
X180833333Y-132477200D02*
X180928571Y-132524819D01*
X180928571Y-132524819D02*
X181119047Y-132524819D01*
X181119047Y-132524819D02*
X181214285Y-132477200D01*
X181214285Y-132477200D02*
X181261904Y-132429580D01*
X181261904Y-132429580D02*
X181309523Y-132334342D01*
X181309523Y-132334342D02*
X181309523Y-132096247D01*
X181309523Y-132096247D02*
X181261904Y-132001009D01*
X181261904Y-132001009D02*
X181214285Y-131953390D01*
X181214285Y-131953390D02*
X181119047Y-131905771D01*
X181119047Y-131905771D02*
X180928571Y-131905771D01*
X180928571Y-131905771D02*
X180833333Y-131953390D01*
X180833333Y-131953390D02*
X180785714Y-132001009D01*
X180785714Y-132001009D02*
X180738095Y-132096247D01*
X181928571Y-131524819D02*
X182023809Y-131524819D01*
X182023809Y-131524819D02*
X182119047Y-131572438D01*
X182119047Y-131572438D02*
X182166666Y-131620057D01*
X182166666Y-131620057D02*
X182214285Y-131715295D01*
X182214285Y-131715295D02*
X182261904Y-131905771D01*
X182261904Y-131905771D02*
X182261904Y-132143866D01*
X182261904Y-132143866D02*
X182214285Y-132334342D01*
X182214285Y-132334342D02*
X182166666Y-132429580D01*
X182166666Y-132429580D02*
X182119047Y-132477200D01*
X182119047Y-132477200D02*
X182023809Y-132524819D01*
X182023809Y-132524819D02*
X181928571Y-132524819D01*
X181928571Y-132524819D02*
X181833333Y-132477200D01*
X181833333Y-132477200D02*
X181785714Y-132429580D01*
X181785714Y-132429580D02*
X181738095Y-132334342D01*
X181738095Y-132334342D02*
X181690476Y-132143866D01*
X181690476Y-132143866D02*
X181690476Y-131905771D01*
X181690476Y-131905771D02*
X181738095Y-131715295D01*
X181738095Y-131715295D02*
X181785714Y-131620057D01*
X181785714Y-131620057D02*
X181833333Y-131572438D01*
X181833333Y-131572438D02*
X181928571Y-131524819D01*
X111884819Y-112714285D02*
X110884819Y-112714285D01*
X110884819Y-112714285D02*
X110884819Y-112476190D01*
X110884819Y-112476190D02*
X110932438Y-112333333D01*
X110932438Y-112333333D02*
X111027676Y-112238095D01*
X111027676Y-112238095D02*
X111122914Y-112190476D01*
X111122914Y-112190476D02*
X111313390Y-112142857D01*
X111313390Y-112142857D02*
X111456247Y-112142857D01*
X111456247Y-112142857D02*
X111646723Y-112190476D01*
X111646723Y-112190476D02*
X111741961Y-112238095D01*
X111741961Y-112238095D02*
X111837200Y-112333333D01*
X111837200Y-112333333D02*
X111884819Y-112476190D01*
X111884819Y-112476190D02*
X111884819Y-112714285D01*
X110980057Y-111761904D02*
X110932438Y-111714285D01*
X110932438Y-111714285D02*
X110884819Y-111619047D01*
X110884819Y-111619047D02*
X110884819Y-111380952D01*
X110884819Y-111380952D02*
X110932438Y-111285714D01*
X110932438Y-111285714D02*
X110980057Y-111238095D01*
X110980057Y-111238095D02*
X111075295Y-111190476D01*
X111075295Y-111190476D02*
X111170533Y-111190476D01*
X111170533Y-111190476D02*
X111313390Y-111238095D01*
X111313390Y-111238095D02*
X111884819Y-111809523D01*
X111884819Y-111809523D02*
X111884819Y-111190476D01*
X110884819Y-110333333D02*
X110884819Y-110523809D01*
X110884819Y-110523809D02*
X110932438Y-110619047D01*
X110932438Y-110619047D02*
X110980057Y-110666666D01*
X110980057Y-110666666D02*
X111122914Y-110761904D01*
X111122914Y-110761904D02*
X111313390Y-110809523D01*
X111313390Y-110809523D02*
X111694342Y-110809523D01*
X111694342Y-110809523D02*
X111789580Y-110761904D01*
X111789580Y-110761904D02*
X111837200Y-110714285D01*
X111837200Y-110714285D02*
X111884819Y-110619047D01*
X111884819Y-110619047D02*
X111884819Y-110428571D01*
X111884819Y-110428571D02*
X111837200Y-110333333D01*
X111837200Y-110333333D02*
X111789580Y-110285714D01*
X111789580Y-110285714D02*
X111694342Y-110238095D01*
X111694342Y-110238095D02*
X111456247Y-110238095D01*
X111456247Y-110238095D02*
X111361009Y-110285714D01*
X111361009Y-110285714D02*
X111313390Y-110333333D01*
X111313390Y-110333333D02*
X111265771Y-110428571D01*
X111265771Y-110428571D02*
X111265771Y-110619047D01*
X111265771Y-110619047D02*
X111313390Y-110714285D01*
X111313390Y-110714285D02*
X111361009Y-110761904D01*
X111361009Y-110761904D02*
X111456247Y-110809523D01*
X132261905Y-114454819D02*
X132261905Y-113454819D01*
X132261905Y-113454819D02*
X132500000Y-113454819D01*
X132500000Y-113454819D02*
X132642857Y-113502438D01*
X132642857Y-113502438D02*
X132738095Y-113597676D01*
X132738095Y-113597676D02*
X132785714Y-113692914D01*
X132785714Y-113692914D02*
X132833333Y-113883390D01*
X132833333Y-113883390D02*
X132833333Y-114026247D01*
X132833333Y-114026247D02*
X132785714Y-114216723D01*
X132785714Y-114216723D02*
X132738095Y-114311961D01*
X132738095Y-114311961D02*
X132642857Y-114407200D01*
X132642857Y-114407200D02*
X132500000Y-114454819D01*
X132500000Y-114454819D02*
X132261905Y-114454819D01*
X133690476Y-113454819D02*
X133500000Y-113454819D01*
X133500000Y-113454819D02*
X133404762Y-113502438D01*
X133404762Y-113502438D02*
X133357143Y-113550057D01*
X133357143Y-113550057D02*
X133261905Y-113692914D01*
X133261905Y-113692914D02*
X133214286Y-113883390D01*
X133214286Y-113883390D02*
X133214286Y-114264342D01*
X133214286Y-114264342D02*
X133261905Y-114359580D01*
X133261905Y-114359580D02*
X133309524Y-114407200D01*
X133309524Y-114407200D02*
X133404762Y-114454819D01*
X133404762Y-114454819D02*
X133595238Y-114454819D01*
X133595238Y-114454819D02*
X133690476Y-114407200D01*
X133690476Y-114407200D02*
X133738095Y-114359580D01*
X133738095Y-114359580D02*
X133785714Y-114264342D01*
X133785714Y-114264342D02*
X133785714Y-114026247D01*
X133785714Y-114026247D02*
X133738095Y-113931009D01*
X133738095Y-113931009D02*
X133690476Y-113883390D01*
X133690476Y-113883390D02*
X133595238Y-113835771D01*
X133595238Y-113835771D02*
X133404762Y-113835771D01*
X133404762Y-113835771D02*
X133309524Y-113883390D01*
X133309524Y-113883390D02*
X133261905Y-113931009D01*
X133261905Y-113931009D02*
X133214286Y-114026247D01*
X212384819Y-113214285D02*
X211384819Y-113214285D01*
X211384819Y-113214285D02*
X211384819Y-112976190D01*
X211384819Y-112976190D02*
X211432438Y-112833333D01*
X211432438Y-112833333D02*
X211527676Y-112738095D01*
X211527676Y-112738095D02*
X211622914Y-112690476D01*
X211622914Y-112690476D02*
X211813390Y-112642857D01*
X211813390Y-112642857D02*
X211956247Y-112642857D01*
X211956247Y-112642857D02*
X212146723Y-112690476D01*
X212146723Y-112690476D02*
X212241961Y-112738095D01*
X212241961Y-112738095D02*
X212337200Y-112833333D01*
X212337200Y-112833333D02*
X212384819Y-112976190D01*
X212384819Y-112976190D02*
X212384819Y-113214285D01*
X211384819Y-111738095D02*
X211384819Y-112214285D01*
X211384819Y-112214285D02*
X211861009Y-112261904D01*
X211861009Y-112261904D02*
X211813390Y-112214285D01*
X211813390Y-112214285D02*
X211765771Y-112119047D01*
X211765771Y-112119047D02*
X211765771Y-111880952D01*
X211765771Y-111880952D02*
X211813390Y-111785714D01*
X211813390Y-111785714D02*
X211861009Y-111738095D01*
X211861009Y-111738095D02*
X211956247Y-111690476D01*
X211956247Y-111690476D02*
X212194342Y-111690476D01*
X212194342Y-111690476D02*
X212289580Y-111738095D01*
X212289580Y-111738095D02*
X212337200Y-111785714D01*
X212337200Y-111785714D02*
X212384819Y-111880952D01*
X212384819Y-111880952D02*
X212384819Y-112119047D01*
X212384819Y-112119047D02*
X212337200Y-112214285D01*
X212337200Y-112214285D02*
X212289580Y-112261904D01*
X211384819Y-111357142D02*
X211384819Y-110738095D01*
X211384819Y-110738095D02*
X211765771Y-111071428D01*
X211765771Y-111071428D02*
X211765771Y-110928571D01*
X211765771Y-110928571D02*
X211813390Y-110833333D01*
X211813390Y-110833333D02*
X211861009Y-110785714D01*
X211861009Y-110785714D02*
X211956247Y-110738095D01*
X211956247Y-110738095D02*
X212194342Y-110738095D01*
X212194342Y-110738095D02*
X212289580Y-110785714D01*
X212289580Y-110785714D02*
X212337200Y-110833333D01*
X212337200Y-110833333D02*
X212384819Y-110928571D01*
X212384819Y-110928571D02*
X212384819Y-111214285D01*
X212384819Y-111214285D02*
X212337200Y-111309523D01*
X212337200Y-111309523D02*
X212289580Y-111357142D01*
X152333333Y-85359580D02*
X152285714Y-85407200D01*
X152285714Y-85407200D02*
X152142857Y-85454819D01*
X152142857Y-85454819D02*
X152047619Y-85454819D01*
X152047619Y-85454819D02*
X151904762Y-85407200D01*
X151904762Y-85407200D02*
X151809524Y-85311961D01*
X151809524Y-85311961D02*
X151761905Y-85216723D01*
X151761905Y-85216723D02*
X151714286Y-85026247D01*
X151714286Y-85026247D02*
X151714286Y-84883390D01*
X151714286Y-84883390D02*
X151761905Y-84692914D01*
X151761905Y-84692914D02*
X151809524Y-84597676D01*
X151809524Y-84597676D02*
X151904762Y-84502438D01*
X151904762Y-84502438D02*
X152047619Y-84454819D01*
X152047619Y-84454819D02*
X152142857Y-84454819D01*
X152142857Y-84454819D02*
X152285714Y-84502438D01*
X152285714Y-84502438D02*
X152333333Y-84550057D01*
X153238095Y-84454819D02*
X152761905Y-84454819D01*
X152761905Y-84454819D02*
X152714286Y-84931009D01*
X152714286Y-84931009D02*
X152761905Y-84883390D01*
X152761905Y-84883390D02*
X152857143Y-84835771D01*
X152857143Y-84835771D02*
X153095238Y-84835771D01*
X153095238Y-84835771D02*
X153190476Y-84883390D01*
X153190476Y-84883390D02*
X153238095Y-84931009D01*
X153238095Y-84931009D02*
X153285714Y-85026247D01*
X153285714Y-85026247D02*
X153285714Y-85264342D01*
X153285714Y-85264342D02*
X153238095Y-85359580D01*
X153238095Y-85359580D02*
X153190476Y-85407200D01*
X153190476Y-85407200D02*
X153095238Y-85454819D01*
X153095238Y-85454819D02*
X152857143Y-85454819D01*
X152857143Y-85454819D02*
X152761905Y-85407200D01*
X152761905Y-85407200D02*
X152714286Y-85359580D01*
X126393957Y-112454819D02*
X126060624Y-111978628D01*
X125822529Y-112454819D02*
X125822529Y-111454819D01*
X125822529Y-111454819D02*
X126203481Y-111454819D01*
X126203481Y-111454819D02*
X126298719Y-111502438D01*
X126298719Y-111502438D02*
X126346338Y-111550057D01*
X126346338Y-111550057D02*
X126393957Y-111645295D01*
X126393957Y-111645295D02*
X126393957Y-111788152D01*
X126393957Y-111788152D02*
X126346338Y-111883390D01*
X126346338Y-111883390D02*
X126298719Y-111931009D01*
X126298719Y-111931009D02*
X126203481Y-111978628D01*
X126203481Y-111978628D02*
X125822529Y-111978628D01*
X126774910Y-111550057D02*
X126822529Y-111502438D01*
X126822529Y-111502438D02*
X126917767Y-111454819D01*
X126917767Y-111454819D02*
X127155862Y-111454819D01*
X127155862Y-111454819D02*
X127251100Y-111502438D01*
X127251100Y-111502438D02*
X127298719Y-111550057D01*
X127298719Y-111550057D02*
X127346338Y-111645295D01*
X127346338Y-111645295D02*
X127346338Y-111740533D01*
X127346338Y-111740533D02*
X127298719Y-111883390D01*
X127298719Y-111883390D02*
X126727291Y-112454819D01*
X126727291Y-112454819D02*
X127346338Y-112454819D01*
X146238095Y-83494819D02*
X146238095Y-84304342D01*
X146238095Y-84304342D02*
X146285714Y-84399580D01*
X146285714Y-84399580D02*
X146333333Y-84447200D01*
X146333333Y-84447200D02*
X146428571Y-84494819D01*
X146428571Y-84494819D02*
X146619047Y-84494819D01*
X146619047Y-84494819D02*
X146714285Y-84447200D01*
X146714285Y-84447200D02*
X146761904Y-84399580D01*
X146761904Y-84399580D02*
X146809523Y-84304342D01*
X146809523Y-84304342D02*
X146809523Y-83494819D01*
X147761904Y-83494819D02*
X147285714Y-83494819D01*
X147285714Y-83494819D02*
X147238095Y-83971009D01*
X147238095Y-83971009D02*
X147285714Y-83923390D01*
X147285714Y-83923390D02*
X147380952Y-83875771D01*
X147380952Y-83875771D02*
X147619047Y-83875771D01*
X147619047Y-83875771D02*
X147714285Y-83923390D01*
X147714285Y-83923390D02*
X147761904Y-83971009D01*
X147761904Y-83971009D02*
X147809523Y-84066247D01*
X147809523Y-84066247D02*
X147809523Y-84304342D01*
X147809523Y-84304342D02*
X147761904Y-84399580D01*
X147761904Y-84399580D02*
X147714285Y-84447200D01*
X147714285Y-84447200D02*
X147619047Y-84494819D01*
X147619047Y-84494819D02*
X147380952Y-84494819D01*
X147380952Y-84494819D02*
X147285714Y-84447200D01*
X147285714Y-84447200D02*
X147238095Y-84399580D01*
X145583333Y-95204819D02*
X145250000Y-94728628D01*
X145011905Y-95204819D02*
X145011905Y-94204819D01*
X145011905Y-94204819D02*
X145392857Y-94204819D01*
X145392857Y-94204819D02*
X145488095Y-94252438D01*
X145488095Y-94252438D02*
X145535714Y-94300057D01*
X145535714Y-94300057D02*
X145583333Y-94395295D01*
X145583333Y-94395295D02*
X145583333Y-94538152D01*
X145583333Y-94538152D02*
X145535714Y-94633390D01*
X145535714Y-94633390D02*
X145488095Y-94681009D01*
X145488095Y-94681009D02*
X145392857Y-94728628D01*
X145392857Y-94728628D02*
X145011905Y-94728628D01*
X146535714Y-95204819D02*
X145964286Y-95204819D01*
X146250000Y-95204819D02*
X146250000Y-94204819D01*
X146250000Y-94204819D02*
X146154762Y-94347676D01*
X146154762Y-94347676D02*
X146059524Y-94442914D01*
X146059524Y-94442914D02*
X145964286Y-94490533D01*
X188785714Y-66024819D02*
X188785714Y-65024819D01*
X188785714Y-65024819D02*
X189023809Y-65024819D01*
X189023809Y-65024819D02*
X189166666Y-65072438D01*
X189166666Y-65072438D02*
X189261904Y-65167676D01*
X189261904Y-65167676D02*
X189309523Y-65262914D01*
X189309523Y-65262914D02*
X189357142Y-65453390D01*
X189357142Y-65453390D02*
X189357142Y-65596247D01*
X189357142Y-65596247D02*
X189309523Y-65786723D01*
X189309523Y-65786723D02*
X189261904Y-65881961D01*
X189261904Y-65881961D02*
X189166666Y-65977200D01*
X189166666Y-65977200D02*
X189023809Y-66024819D01*
X189023809Y-66024819D02*
X188785714Y-66024819D01*
X189690476Y-65024819D02*
X190309523Y-65024819D01*
X190309523Y-65024819D02*
X189976190Y-65405771D01*
X189976190Y-65405771D02*
X190119047Y-65405771D01*
X190119047Y-65405771D02*
X190214285Y-65453390D01*
X190214285Y-65453390D02*
X190261904Y-65501009D01*
X190261904Y-65501009D02*
X190309523Y-65596247D01*
X190309523Y-65596247D02*
X190309523Y-65834342D01*
X190309523Y-65834342D02*
X190261904Y-65929580D01*
X190261904Y-65929580D02*
X190214285Y-65977200D01*
X190214285Y-65977200D02*
X190119047Y-66024819D01*
X190119047Y-66024819D02*
X189833333Y-66024819D01*
X189833333Y-66024819D02*
X189738095Y-65977200D01*
X189738095Y-65977200D02*
X189690476Y-65929580D01*
X191166666Y-65024819D02*
X190976190Y-65024819D01*
X190976190Y-65024819D02*
X190880952Y-65072438D01*
X190880952Y-65072438D02*
X190833333Y-65120057D01*
X190833333Y-65120057D02*
X190738095Y-65262914D01*
X190738095Y-65262914D02*
X190690476Y-65453390D01*
X190690476Y-65453390D02*
X190690476Y-65834342D01*
X190690476Y-65834342D02*
X190738095Y-65929580D01*
X190738095Y-65929580D02*
X190785714Y-65977200D01*
X190785714Y-65977200D02*
X190880952Y-66024819D01*
X190880952Y-66024819D02*
X191071428Y-66024819D01*
X191071428Y-66024819D02*
X191166666Y-65977200D01*
X191166666Y-65977200D02*
X191214285Y-65929580D01*
X191214285Y-65929580D02*
X191261904Y-65834342D01*
X191261904Y-65834342D02*
X191261904Y-65596247D01*
X191261904Y-65596247D02*
X191214285Y-65501009D01*
X191214285Y-65501009D02*
X191166666Y-65453390D01*
X191166666Y-65453390D02*
X191071428Y-65405771D01*
X191071428Y-65405771D02*
X190880952Y-65405771D01*
X190880952Y-65405771D02*
X190785714Y-65453390D01*
X190785714Y-65453390D02*
X190738095Y-65501009D01*
X190738095Y-65501009D02*
X190690476Y-65596247D01*
X146259580Y-97466666D02*
X146307200Y-97514285D01*
X146307200Y-97514285D02*
X146354819Y-97657142D01*
X146354819Y-97657142D02*
X146354819Y-97752380D01*
X146354819Y-97752380D02*
X146307200Y-97895237D01*
X146307200Y-97895237D02*
X146211961Y-97990475D01*
X146211961Y-97990475D02*
X146116723Y-98038094D01*
X146116723Y-98038094D02*
X145926247Y-98085713D01*
X145926247Y-98085713D02*
X145783390Y-98085713D01*
X145783390Y-98085713D02*
X145592914Y-98038094D01*
X145592914Y-98038094D02*
X145497676Y-97990475D01*
X145497676Y-97990475D02*
X145402438Y-97895237D01*
X145402438Y-97895237D02*
X145354819Y-97752380D01*
X145354819Y-97752380D02*
X145354819Y-97657142D01*
X145354819Y-97657142D02*
X145402438Y-97514285D01*
X145402438Y-97514285D02*
X145450057Y-97466666D01*
X145354819Y-96609523D02*
X145354819Y-96799999D01*
X145354819Y-96799999D02*
X145402438Y-96895237D01*
X145402438Y-96895237D02*
X145450057Y-96942856D01*
X145450057Y-96942856D02*
X145592914Y-97038094D01*
X145592914Y-97038094D02*
X145783390Y-97085713D01*
X145783390Y-97085713D02*
X146164342Y-97085713D01*
X146164342Y-97085713D02*
X146259580Y-97038094D01*
X146259580Y-97038094D02*
X146307200Y-96990475D01*
X146307200Y-96990475D02*
X146354819Y-96895237D01*
X146354819Y-96895237D02*
X146354819Y-96704761D01*
X146354819Y-96704761D02*
X146307200Y-96609523D01*
X146307200Y-96609523D02*
X146259580Y-96561904D01*
X146259580Y-96561904D02*
X146164342Y-96514285D01*
X146164342Y-96514285D02*
X145926247Y-96514285D01*
X145926247Y-96514285D02*
X145831009Y-96561904D01*
X145831009Y-96561904D02*
X145783390Y-96609523D01*
X145783390Y-96609523D02*
X145735771Y-96704761D01*
X145735771Y-96704761D02*
X145735771Y-96895237D01*
X145735771Y-96895237D02*
X145783390Y-96990475D01*
X145783390Y-96990475D02*
X145831009Y-97038094D01*
X145831009Y-97038094D02*
X145926247Y-97085713D01*
X124649579Y-108641666D02*
X124697199Y-108689285D01*
X124697199Y-108689285D02*
X124744818Y-108832142D01*
X124744818Y-108832142D02*
X124744818Y-108927380D01*
X124744818Y-108927380D02*
X124697199Y-109070237D01*
X124697199Y-109070237D02*
X124601960Y-109165475D01*
X124601960Y-109165475D02*
X124506722Y-109213094D01*
X124506722Y-109213094D02*
X124316246Y-109260713D01*
X124316246Y-109260713D02*
X124173389Y-109260713D01*
X124173389Y-109260713D02*
X123982913Y-109213094D01*
X123982913Y-109213094D02*
X123887675Y-109165475D01*
X123887675Y-109165475D02*
X123792437Y-109070237D01*
X123792437Y-109070237D02*
X123744818Y-108927380D01*
X123744818Y-108927380D02*
X123744818Y-108832142D01*
X123744818Y-108832142D02*
X123792437Y-108689285D01*
X123792437Y-108689285D02*
X123840056Y-108641666D01*
X124078151Y-107784523D02*
X124744818Y-107784523D01*
X123697199Y-108022618D02*
X124411484Y-108260713D01*
X124411484Y-108260713D02*
X124411484Y-107641666D01*
X146843332Y-111124819D02*
X146509999Y-110648628D01*
X146271904Y-111124819D02*
X146271904Y-110124819D01*
X146271904Y-110124819D02*
X146652856Y-110124819D01*
X146652856Y-110124819D02*
X146748094Y-110172438D01*
X146748094Y-110172438D02*
X146795713Y-110220057D01*
X146795713Y-110220057D02*
X146843332Y-110315295D01*
X146843332Y-110315295D02*
X146843332Y-110458152D01*
X146843332Y-110458152D02*
X146795713Y-110553390D01*
X146795713Y-110553390D02*
X146748094Y-110601009D01*
X146748094Y-110601009D02*
X146652856Y-110648628D01*
X146652856Y-110648628D02*
X146271904Y-110648628D01*
X147176666Y-110124819D02*
X147795713Y-110124819D01*
X147795713Y-110124819D02*
X147462380Y-110505771D01*
X147462380Y-110505771D02*
X147605237Y-110505771D01*
X147605237Y-110505771D02*
X147700475Y-110553390D01*
X147700475Y-110553390D02*
X147748094Y-110601009D01*
X147748094Y-110601009D02*
X147795713Y-110696247D01*
X147795713Y-110696247D02*
X147795713Y-110934342D01*
X147795713Y-110934342D02*
X147748094Y-111029580D01*
X147748094Y-111029580D02*
X147700475Y-111077200D01*
X147700475Y-111077200D02*
X147605237Y-111124819D01*
X147605237Y-111124819D02*
X147319523Y-111124819D01*
X147319523Y-111124819D02*
X147224285Y-111077200D01*
X147224285Y-111077200D02*
X147176666Y-111029580D01*
X139261905Y-84824819D02*
X139261905Y-83824819D01*
X139261905Y-83824819D02*
X139500000Y-83824819D01*
X139500000Y-83824819D02*
X139642857Y-83872438D01*
X139642857Y-83872438D02*
X139738095Y-83967676D01*
X139738095Y-83967676D02*
X139785714Y-84062914D01*
X139785714Y-84062914D02*
X139833333Y-84253390D01*
X139833333Y-84253390D02*
X139833333Y-84396247D01*
X139833333Y-84396247D02*
X139785714Y-84586723D01*
X139785714Y-84586723D02*
X139738095Y-84681961D01*
X139738095Y-84681961D02*
X139642857Y-84777200D01*
X139642857Y-84777200D02*
X139500000Y-84824819D01*
X139500000Y-84824819D02*
X139261905Y-84824819D01*
X140738095Y-83824819D02*
X140261905Y-83824819D01*
X140261905Y-83824819D02*
X140214286Y-84301009D01*
X140214286Y-84301009D02*
X140261905Y-84253390D01*
X140261905Y-84253390D02*
X140357143Y-84205771D01*
X140357143Y-84205771D02*
X140595238Y-84205771D01*
X140595238Y-84205771D02*
X140690476Y-84253390D01*
X140690476Y-84253390D02*
X140738095Y-84301009D01*
X140738095Y-84301009D02*
X140785714Y-84396247D01*
X140785714Y-84396247D02*
X140785714Y-84634342D01*
X140785714Y-84634342D02*
X140738095Y-84729580D01*
X140738095Y-84729580D02*
X140690476Y-84777200D01*
X140690476Y-84777200D02*
X140595238Y-84824819D01*
X140595238Y-84824819D02*
X140357143Y-84824819D01*
X140357143Y-84824819D02*
X140261905Y-84777200D01*
X140261905Y-84777200D02*
X140214286Y-84729580D01*
X63884819Y-112714285D02*
X62884819Y-112714285D01*
X62884819Y-112714285D02*
X62884819Y-112476190D01*
X62884819Y-112476190D02*
X62932438Y-112333333D01*
X62932438Y-112333333D02*
X63027676Y-112238095D01*
X63027676Y-112238095D02*
X63122914Y-112190476D01*
X63122914Y-112190476D02*
X63313390Y-112142857D01*
X63313390Y-112142857D02*
X63456247Y-112142857D01*
X63456247Y-112142857D02*
X63646723Y-112190476D01*
X63646723Y-112190476D02*
X63741961Y-112238095D01*
X63741961Y-112238095D02*
X63837200Y-112333333D01*
X63837200Y-112333333D02*
X63884819Y-112476190D01*
X63884819Y-112476190D02*
X63884819Y-112714285D01*
X62980057Y-111761904D02*
X62932438Y-111714285D01*
X62932438Y-111714285D02*
X62884819Y-111619047D01*
X62884819Y-111619047D02*
X62884819Y-111380952D01*
X62884819Y-111380952D02*
X62932438Y-111285714D01*
X62932438Y-111285714D02*
X62980057Y-111238095D01*
X62980057Y-111238095D02*
X63075295Y-111190476D01*
X63075295Y-111190476D02*
X63170533Y-111190476D01*
X63170533Y-111190476D02*
X63313390Y-111238095D01*
X63313390Y-111238095D02*
X63884819Y-111809523D01*
X63884819Y-111809523D02*
X63884819Y-111190476D01*
X63218152Y-110333333D02*
X63884819Y-110333333D01*
X62837200Y-110571428D02*
X63551485Y-110809523D01*
X63551485Y-110809523D02*
X63551485Y-110190476D01*
X79384819Y-124214285D02*
X78384819Y-124214285D01*
X78384819Y-124214285D02*
X78384819Y-123976190D01*
X78384819Y-123976190D02*
X78432438Y-123833333D01*
X78432438Y-123833333D02*
X78527676Y-123738095D01*
X78527676Y-123738095D02*
X78622914Y-123690476D01*
X78622914Y-123690476D02*
X78813390Y-123642857D01*
X78813390Y-123642857D02*
X78956247Y-123642857D01*
X78956247Y-123642857D02*
X79146723Y-123690476D01*
X79146723Y-123690476D02*
X79241961Y-123738095D01*
X79241961Y-123738095D02*
X79337200Y-123833333D01*
X79337200Y-123833333D02*
X79384819Y-123976190D01*
X79384819Y-123976190D02*
X79384819Y-124214285D01*
X78480057Y-123261904D02*
X78432438Y-123214285D01*
X78432438Y-123214285D02*
X78384819Y-123119047D01*
X78384819Y-123119047D02*
X78384819Y-122880952D01*
X78384819Y-122880952D02*
X78432438Y-122785714D01*
X78432438Y-122785714D02*
X78480057Y-122738095D01*
X78480057Y-122738095D02*
X78575295Y-122690476D01*
X78575295Y-122690476D02*
X78670533Y-122690476D01*
X78670533Y-122690476D02*
X78813390Y-122738095D01*
X78813390Y-122738095D02*
X79384819Y-123309523D01*
X79384819Y-123309523D02*
X79384819Y-122690476D01*
X79384819Y-122214285D02*
X79384819Y-122023809D01*
X79384819Y-122023809D02*
X79337200Y-121928571D01*
X79337200Y-121928571D02*
X79289580Y-121880952D01*
X79289580Y-121880952D02*
X79146723Y-121785714D01*
X79146723Y-121785714D02*
X78956247Y-121738095D01*
X78956247Y-121738095D02*
X78575295Y-121738095D01*
X78575295Y-121738095D02*
X78480057Y-121785714D01*
X78480057Y-121785714D02*
X78432438Y-121833333D01*
X78432438Y-121833333D02*
X78384819Y-121928571D01*
X78384819Y-121928571D02*
X78384819Y-122119047D01*
X78384819Y-122119047D02*
X78432438Y-122214285D01*
X78432438Y-122214285D02*
X78480057Y-122261904D01*
X78480057Y-122261904D02*
X78575295Y-122309523D01*
X78575295Y-122309523D02*
X78813390Y-122309523D01*
X78813390Y-122309523D02*
X78908628Y-122261904D01*
X78908628Y-122261904D02*
X78956247Y-122214285D01*
X78956247Y-122214285D02*
X79003866Y-122119047D01*
X79003866Y-122119047D02*
X79003866Y-121928571D01*
X79003866Y-121928571D02*
X78956247Y-121833333D01*
X78956247Y-121833333D02*
X78908628Y-121785714D01*
X78908628Y-121785714D02*
X78813390Y-121738095D01*
X151661905Y-77024819D02*
X151661905Y-76024819D01*
X151661905Y-76024819D02*
X151900000Y-76024819D01*
X151900000Y-76024819D02*
X152042857Y-76072438D01*
X152042857Y-76072438D02*
X152138095Y-76167676D01*
X152138095Y-76167676D02*
X152185714Y-76262914D01*
X152185714Y-76262914D02*
X152233333Y-76453390D01*
X152233333Y-76453390D02*
X152233333Y-76596247D01*
X152233333Y-76596247D02*
X152185714Y-76786723D01*
X152185714Y-76786723D02*
X152138095Y-76881961D01*
X152138095Y-76881961D02*
X152042857Y-76977200D01*
X152042857Y-76977200D02*
X151900000Y-77024819D01*
X151900000Y-77024819D02*
X151661905Y-77024819D01*
X152566667Y-76024819D02*
X153185714Y-76024819D01*
X153185714Y-76024819D02*
X152852381Y-76405771D01*
X152852381Y-76405771D02*
X152995238Y-76405771D01*
X152995238Y-76405771D02*
X153090476Y-76453390D01*
X153090476Y-76453390D02*
X153138095Y-76501009D01*
X153138095Y-76501009D02*
X153185714Y-76596247D01*
X153185714Y-76596247D02*
X153185714Y-76834342D01*
X153185714Y-76834342D02*
X153138095Y-76929580D01*
X153138095Y-76929580D02*
X153090476Y-76977200D01*
X153090476Y-76977200D02*
X152995238Y-77024819D01*
X152995238Y-77024819D02*
X152709524Y-77024819D01*
X152709524Y-77024819D02*
X152614286Y-76977200D01*
X152614286Y-76977200D02*
X152566667Y-76929580D01*
X152054819Y-94166666D02*
X151578628Y-94499999D01*
X152054819Y-94738094D02*
X151054819Y-94738094D01*
X151054819Y-94738094D02*
X151054819Y-94357142D01*
X151054819Y-94357142D02*
X151102438Y-94261904D01*
X151102438Y-94261904D02*
X151150057Y-94214285D01*
X151150057Y-94214285D02*
X151245295Y-94166666D01*
X151245295Y-94166666D02*
X151388152Y-94166666D01*
X151388152Y-94166666D02*
X151483390Y-94214285D01*
X151483390Y-94214285D02*
X151531009Y-94261904D01*
X151531009Y-94261904D02*
X151578628Y-94357142D01*
X151578628Y-94357142D02*
X151578628Y-94738094D01*
X151388152Y-93309523D02*
X152054819Y-93309523D01*
X151007200Y-93547618D02*
X151721485Y-93785713D01*
X151721485Y-93785713D02*
X151721485Y-93166666D01*
X236785714Y-66024819D02*
X236785714Y-65024819D01*
X236785714Y-65024819D02*
X237023809Y-65024819D01*
X237023809Y-65024819D02*
X237166666Y-65072438D01*
X237166666Y-65072438D02*
X237261904Y-65167676D01*
X237261904Y-65167676D02*
X237309523Y-65262914D01*
X237309523Y-65262914D02*
X237357142Y-65453390D01*
X237357142Y-65453390D02*
X237357142Y-65596247D01*
X237357142Y-65596247D02*
X237309523Y-65786723D01*
X237309523Y-65786723D02*
X237261904Y-65881961D01*
X237261904Y-65881961D02*
X237166666Y-65977200D01*
X237166666Y-65977200D02*
X237023809Y-66024819D01*
X237023809Y-66024819D02*
X236785714Y-66024819D01*
X237690476Y-65024819D02*
X238309523Y-65024819D01*
X238309523Y-65024819D02*
X237976190Y-65405771D01*
X237976190Y-65405771D02*
X238119047Y-65405771D01*
X238119047Y-65405771D02*
X238214285Y-65453390D01*
X238214285Y-65453390D02*
X238261904Y-65501009D01*
X238261904Y-65501009D02*
X238309523Y-65596247D01*
X238309523Y-65596247D02*
X238309523Y-65834342D01*
X238309523Y-65834342D02*
X238261904Y-65929580D01*
X238261904Y-65929580D02*
X238214285Y-65977200D01*
X238214285Y-65977200D02*
X238119047Y-66024819D01*
X238119047Y-66024819D02*
X237833333Y-66024819D01*
X237833333Y-66024819D02*
X237738095Y-65977200D01*
X237738095Y-65977200D02*
X237690476Y-65929580D01*
X238880952Y-65453390D02*
X238785714Y-65405771D01*
X238785714Y-65405771D02*
X238738095Y-65358152D01*
X238738095Y-65358152D02*
X238690476Y-65262914D01*
X238690476Y-65262914D02*
X238690476Y-65215295D01*
X238690476Y-65215295D02*
X238738095Y-65120057D01*
X238738095Y-65120057D02*
X238785714Y-65072438D01*
X238785714Y-65072438D02*
X238880952Y-65024819D01*
X238880952Y-65024819D02*
X239071428Y-65024819D01*
X239071428Y-65024819D02*
X239166666Y-65072438D01*
X239166666Y-65072438D02*
X239214285Y-65120057D01*
X239214285Y-65120057D02*
X239261904Y-65215295D01*
X239261904Y-65215295D02*
X239261904Y-65262914D01*
X239261904Y-65262914D02*
X239214285Y-65358152D01*
X239214285Y-65358152D02*
X239166666Y-65405771D01*
X239166666Y-65405771D02*
X239071428Y-65453390D01*
X239071428Y-65453390D02*
X238880952Y-65453390D01*
X238880952Y-65453390D02*
X238785714Y-65501009D01*
X238785714Y-65501009D02*
X238738095Y-65548628D01*
X238738095Y-65548628D02*
X238690476Y-65643866D01*
X238690476Y-65643866D02*
X238690476Y-65834342D01*
X238690476Y-65834342D02*
X238738095Y-65929580D01*
X238738095Y-65929580D02*
X238785714Y-65977200D01*
X238785714Y-65977200D02*
X238880952Y-66024819D01*
X238880952Y-66024819D02*
X239071428Y-66024819D01*
X239071428Y-66024819D02*
X239166666Y-65977200D01*
X239166666Y-65977200D02*
X239214285Y-65929580D01*
X239214285Y-65929580D02*
X239261904Y-65834342D01*
X239261904Y-65834342D02*
X239261904Y-65643866D01*
X239261904Y-65643866D02*
X239214285Y-65548628D01*
X239214285Y-65548628D02*
X239166666Y-65501009D01*
X239166666Y-65501009D02*
X239071428Y-65453390D01*
X83884819Y-90714285D02*
X82884819Y-90714285D01*
X82884819Y-90714285D02*
X82884819Y-90476190D01*
X82884819Y-90476190D02*
X82932438Y-90333333D01*
X82932438Y-90333333D02*
X83027676Y-90238095D01*
X83027676Y-90238095D02*
X83122914Y-90190476D01*
X83122914Y-90190476D02*
X83313390Y-90142857D01*
X83313390Y-90142857D02*
X83456247Y-90142857D01*
X83456247Y-90142857D02*
X83646723Y-90190476D01*
X83646723Y-90190476D02*
X83741961Y-90238095D01*
X83741961Y-90238095D02*
X83837200Y-90333333D01*
X83837200Y-90333333D02*
X83884819Y-90476190D01*
X83884819Y-90476190D02*
X83884819Y-90714285D01*
X83884819Y-89190476D02*
X83884819Y-89761904D01*
X83884819Y-89476190D02*
X82884819Y-89476190D01*
X82884819Y-89476190D02*
X83027676Y-89571428D01*
X83027676Y-89571428D02*
X83122914Y-89666666D01*
X83122914Y-89666666D02*
X83170533Y-89761904D01*
X82884819Y-88857142D02*
X82884819Y-88190476D01*
X82884819Y-88190476D02*
X83884819Y-88619047D01*
X220785714Y-99024819D02*
X220785714Y-98024819D01*
X220785714Y-98024819D02*
X221023809Y-98024819D01*
X221023809Y-98024819D02*
X221166666Y-98072438D01*
X221166666Y-98072438D02*
X221261904Y-98167676D01*
X221261904Y-98167676D02*
X221309523Y-98262914D01*
X221309523Y-98262914D02*
X221357142Y-98453390D01*
X221357142Y-98453390D02*
X221357142Y-98596247D01*
X221357142Y-98596247D02*
X221309523Y-98786723D01*
X221309523Y-98786723D02*
X221261904Y-98881961D01*
X221261904Y-98881961D02*
X221166666Y-98977200D01*
X221166666Y-98977200D02*
X221023809Y-99024819D01*
X221023809Y-99024819D02*
X220785714Y-99024819D01*
X222214285Y-98358152D02*
X222214285Y-99024819D01*
X221976190Y-97977200D02*
X221738095Y-98691485D01*
X221738095Y-98691485D02*
X222357142Y-98691485D01*
X222785714Y-99024819D02*
X222976190Y-99024819D01*
X222976190Y-99024819D02*
X223071428Y-98977200D01*
X223071428Y-98977200D02*
X223119047Y-98929580D01*
X223119047Y-98929580D02*
X223214285Y-98786723D01*
X223214285Y-98786723D02*
X223261904Y-98596247D01*
X223261904Y-98596247D02*
X223261904Y-98215295D01*
X223261904Y-98215295D02*
X223214285Y-98120057D01*
X223214285Y-98120057D02*
X223166666Y-98072438D01*
X223166666Y-98072438D02*
X223071428Y-98024819D01*
X223071428Y-98024819D02*
X222880952Y-98024819D01*
X222880952Y-98024819D02*
X222785714Y-98072438D01*
X222785714Y-98072438D02*
X222738095Y-98120057D01*
X222738095Y-98120057D02*
X222690476Y-98215295D01*
X222690476Y-98215295D02*
X222690476Y-98453390D01*
X222690476Y-98453390D02*
X222738095Y-98548628D01*
X222738095Y-98548628D02*
X222785714Y-98596247D01*
X222785714Y-98596247D02*
X222880952Y-98643866D01*
X222880952Y-98643866D02*
X223071428Y-98643866D01*
X223071428Y-98643866D02*
X223166666Y-98596247D01*
X223166666Y-98596247D02*
X223214285Y-98548628D01*
X223214285Y-98548628D02*
X223261904Y-98453390D01*
X100785714Y-99024819D02*
X100785714Y-98024819D01*
X100785714Y-98024819D02*
X101023809Y-98024819D01*
X101023809Y-98024819D02*
X101166666Y-98072438D01*
X101166666Y-98072438D02*
X101261904Y-98167676D01*
X101261904Y-98167676D02*
X101309523Y-98262914D01*
X101309523Y-98262914D02*
X101357142Y-98453390D01*
X101357142Y-98453390D02*
X101357142Y-98596247D01*
X101357142Y-98596247D02*
X101309523Y-98786723D01*
X101309523Y-98786723D02*
X101261904Y-98881961D01*
X101261904Y-98881961D02*
X101166666Y-98977200D01*
X101166666Y-98977200D02*
X101023809Y-99024819D01*
X101023809Y-99024819D02*
X100785714Y-99024819D01*
X101738095Y-98120057D02*
X101785714Y-98072438D01*
X101785714Y-98072438D02*
X101880952Y-98024819D01*
X101880952Y-98024819D02*
X102119047Y-98024819D01*
X102119047Y-98024819D02*
X102214285Y-98072438D01*
X102214285Y-98072438D02*
X102261904Y-98120057D01*
X102261904Y-98120057D02*
X102309523Y-98215295D01*
X102309523Y-98215295D02*
X102309523Y-98310533D01*
X102309523Y-98310533D02*
X102261904Y-98453390D01*
X102261904Y-98453390D02*
X101690476Y-99024819D01*
X101690476Y-99024819D02*
X102309523Y-99024819D01*
X102690476Y-98120057D02*
X102738095Y-98072438D01*
X102738095Y-98072438D02*
X102833333Y-98024819D01*
X102833333Y-98024819D02*
X103071428Y-98024819D01*
X103071428Y-98024819D02*
X103166666Y-98072438D01*
X103166666Y-98072438D02*
X103214285Y-98120057D01*
X103214285Y-98120057D02*
X103261904Y-98215295D01*
X103261904Y-98215295D02*
X103261904Y-98310533D01*
X103261904Y-98310533D02*
X103214285Y-98453390D01*
X103214285Y-98453390D02*
X102642857Y-99024819D01*
X102642857Y-99024819D02*
X103261904Y-99024819D01*
X133857142Y-85954819D02*
X133523809Y-85478628D01*
X133285714Y-85954819D02*
X133285714Y-84954819D01*
X133285714Y-84954819D02*
X133666666Y-84954819D01*
X133666666Y-84954819D02*
X133761904Y-85002438D01*
X133761904Y-85002438D02*
X133809523Y-85050057D01*
X133809523Y-85050057D02*
X133857142Y-85145295D01*
X133857142Y-85145295D02*
X133857142Y-85288152D01*
X133857142Y-85288152D02*
X133809523Y-85383390D01*
X133809523Y-85383390D02*
X133761904Y-85431009D01*
X133761904Y-85431009D02*
X133666666Y-85478628D01*
X133666666Y-85478628D02*
X133285714Y-85478628D01*
X134809523Y-85954819D02*
X134238095Y-85954819D01*
X134523809Y-85954819D02*
X134523809Y-84954819D01*
X134523809Y-84954819D02*
X134428571Y-85097676D01*
X134428571Y-85097676D02*
X134333333Y-85192914D01*
X134333333Y-85192914D02*
X134238095Y-85240533D01*
X135666666Y-85288152D02*
X135666666Y-85954819D01*
X135428571Y-84907200D02*
X135190476Y-85621485D01*
X135190476Y-85621485D02*
X135809523Y-85621485D01*
X242884819Y-112714285D02*
X241884819Y-112714285D01*
X241884819Y-112714285D02*
X241884819Y-112476190D01*
X241884819Y-112476190D02*
X241932438Y-112333333D01*
X241932438Y-112333333D02*
X242027676Y-112238095D01*
X242027676Y-112238095D02*
X242122914Y-112190476D01*
X242122914Y-112190476D02*
X242313390Y-112142857D01*
X242313390Y-112142857D02*
X242456247Y-112142857D01*
X242456247Y-112142857D02*
X242646723Y-112190476D01*
X242646723Y-112190476D02*
X242741961Y-112238095D01*
X242741961Y-112238095D02*
X242837200Y-112333333D01*
X242837200Y-112333333D02*
X242884819Y-112476190D01*
X242884819Y-112476190D02*
X242884819Y-112714285D01*
X241884819Y-111238095D02*
X241884819Y-111714285D01*
X241884819Y-111714285D02*
X242361009Y-111761904D01*
X242361009Y-111761904D02*
X242313390Y-111714285D01*
X242313390Y-111714285D02*
X242265771Y-111619047D01*
X242265771Y-111619047D02*
X242265771Y-111380952D01*
X242265771Y-111380952D02*
X242313390Y-111285714D01*
X242313390Y-111285714D02*
X242361009Y-111238095D01*
X242361009Y-111238095D02*
X242456247Y-111190476D01*
X242456247Y-111190476D02*
X242694342Y-111190476D01*
X242694342Y-111190476D02*
X242789580Y-111238095D01*
X242789580Y-111238095D02*
X242837200Y-111285714D01*
X242837200Y-111285714D02*
X242884819Y-111380952D01*
X242884819Y-111380952D02*
X242884819Y-111619047D01*
X242884819Y-111619047D02*
X242837200Y-111714285D01*
X242837200Y-111714285D02*
X242789580Y-111761904D01*
X242218152Y-110333333D02*
X242884819Y-110333333D01*
X241837200Y-110571428D02*
X242551485Y-110809523D01*
X242551485Y-110809523D02*
X242551485Y-110190476D01*
X133857142Y-84454819D02*
X133523809Y-83978628D01*
X133285714Y-84454819D02*
X133285714Y-83454819D01*
X133285714Y-83454819D02*
X133666666Y-83454819D01*
X133666666Y-83454819D02*
X133761904Y-83502438D01*
X133761904Y-83502438D02*
X133809523Y-83550057D01*
X133809523Y-83550057D02*
X133857142Y-83645295D01*
X133857142Y-83645295D02*
X133857142Y-83788152D01*
X133857142Y-83788152D02*
X133809523Y-83883390D01*
X133809523Y-83883390D02*
X133761904Y-83931009D01*
X133761904Y-83931009D02*
X133666666Y-83978628D01*
X133666666Y-83978628D02*
X133285714Y-83978628D01*
X134809523Y-84454819D02*
X134238095Y-84454819D01*
X134523809Y-84454819D02*
X134523809Y-83454819D01*
X134523809Y-83454819D02*
X134428571Y-83597676D01*
X134428571Y-83597676D02*
X134333333Y-83692914D01*
X134333333Y-83692914D02*
X134238095Y-83740533D01*
X135190476Y-83550057D02*
X135238095Y-83502438D01*
X135238095Y-83502438D02*
X135333333Y-83454819D01*
X135333333Y-83454819D02*
X135571428Y-83454819D01*
X135571428Y-83454819D02*
X135666666Y-83502438D01*
X135666666Y-83502438D02*
X135714285Y-83550057D01*
X135714285Y-83550057D02*
X135761904Y-83645295D01*
X135761904Y-83645295D02*
X135761904Y-83740533D01*
X135761904Y-83740533D02*
X135714285Y-83883390D01*
X135714285Y-83883390D02*
X135142857Y-84454819D01*
X135142857Y-84454819D02*
X135761904Y-84454819D01*
X114884819Y-90714285D02*
X113884819Y-90714285D01*
X113884819Y-90714285D02*
X113884819Y-90476190D01*
X113884819Y-90476190D02*
X113932438Y-90333333D01*
X113932438Y-90333333D02*
X114027676Y-90238095D01*
X114027676Y-90238095D02*
X114122914Y-90190476D01*
X114122914Y-90190476D02*
X114313390Y-90142857D01*
X114313390Y-90142857D02*
X114456247Y-90142857D01*
X114456247Y-90142857D02*
X114646723Y-90190476D01*
X114646723Y-90190476D02*
X114741961Y-90238095D01*
X114741961Y-90238095D02*
X114837200Y-90333333D01*
X114837200Y-90333333D02*
X114884819Y-90476190D01*
X114884819Y-90476190D02*
X114884819Y-90714285D01*
X114884819Y-89190476D02*
X114884819Y-89761904D01*
X114884819Y-89476190D02*
X113884819Y-89476190D01*
X113884819Y-89476190D02*
X114027676Y-89571428D01*
X114027676Y-89571428D02*
X114122914Y-89666666D01*
X114122914Y-89666666D02*
X114170533Y-89761904D01*
X114313390Y-88619047D02*
X114265771Y-88714285D01*
X114265771Y-88714285D02*
X114218152Y-88761904D01*
X114218152Y-88761904D02*
X114122914Y-88809523D01*
X114122914Y-88809523D02*
X114075295Y-88809523D01*
X114075295Y-88809523D02*
X113980057Y-88761904D01*
X113980057Y-88761904D02*
X113932438Y-88714285D01*
X113932438Y-88714285D02*
X113884819Y-88619047D01*
X113884819Y-88619047D02*
X113884819Y-88428571D01*
X113884819Y-88428571D02*
X113932438Y-88333333D01*
X113932438Y-88333333D02*
X113980057Y-88285714D01*
X113980057Y-88285714D02*
X114075295Y-88238095D01*
X114075295Y-88238095D02*
X114122914Y-88238095D01*
X114122914Y-88238095D02*
X114218152Y-88285714D01*
X114218152Y-88285714D02*
X114265771Y-88333333D01*
X114265771Y-88333333D02*
X114313390Y-88428571D01*
X114313390Y-88428571D02*
X114313390Y-88619047D01*
X114313390Y-88619047D02*
X114361009Y-88714285D01*
X114361009Y-88714285D02*
X114408628Y-88761904D01*
X114408628Y-88761904D02*
X114503866Y-88809523D01*
X114503866Y-88809523D02*
X114694342Y-88809523D01*
X114694342Y-88809523D02*
X114789580Y-88761904D01*
X114789580Y-88761904D02*
X114837200Y-88714285D01*
X114837200Y-88714285D02*
X114884819Y-88619047D01*
X114884819Y-88619047D02*
X114884819Y-88428571D01*
X114884819Y-88428571D02*
X114837200Y-88333333D01*
X114837200Y-88333333D02*
X114789580Y-88285714D01*
X114789580Y-88285714D02*
X114694342Y-88238095D01*
X114694342Y-88238095D02*
X114503866Y-88238095D01*
X114503866Y-88238095D02*
X114408628Y-88285714D01*
X114408628Y-88285714D02*
X114361009Y-88333333D01*
X114361009Y-88333333D02*
X114313390Y-88428571D01*
X241634819Y-124714285D02*
X240634819Y-124714285D01*
X240634819Y-124714285D02*
X240634819Y-124476190D01*
X240634819Y-124476190D02*
X240682438Y-124333333D01*
X240682438Y-124333333D02*
X240777676Y-124238095D01*
X240777676Y-124238095D02*
X240872914Y-124190476D01*
X240872914Y-124190476D02*
X241063390Y-124142857D01*
X241063390Y-124142857D02*
X241206247Y-124142857D01*
X241206247Y-124142857D02*
X241396723Y-124190476D01*
X241396723Y-124190476D02*
X241491961Y-124238095D01*
X241491961Y-124238095D02*
X241587200Y-124333333D01*
X241587200Y-124333333D02*
X241634819Y-124476190D01*
X241634819Y-124476190D02*
X241634819Y-124714285D01*
X240634819Y-123238095D02*
X240634819Y-123714285D01*
X240634819Y-123714285D02*
X241111009Y-123761904D01*
X241111009Y-123761904D02*
X241063390Y-123714285D01*
X241063390Y-123714285D02*
X241015771Y-123619047D01*
X241015771Y-123619047D02*
X241015771Y-123380952D01*
X241015771Y-123380952D02*
X241063390Y-123285714D01*
X241063390Y-123285714D02*
X241111009Y-123238095D01*
X241111009Y-123238095D02*
X241206247Y-123190476D01*
X241206247Y-123190476D02*
X241444342Y-123190476D01*
X241444342Y-123190476D02*
X241539580Y-123238095D01*
X241539580Y-123238095D02*
X241587200Y-123285714D01*
X241587200Y-123285714D02*
X241634819Y-123380952D01*
X241634819Y-123380952D02*
X241634819Y-123619047D01*
X241634819Y-123619047D02*
X241587200Y-123714285D01*
X241587200Y-123714285D02*
X241539580Y-123761904D01*
X241063390Y-122619047D02*
X241015771Y-122714285D01*
X241015771Y-122714285D02*
X240968152Y-122761904D01*
X240968152Y-122761904D02*
X240872914Y-122809523D01*
X240872914Y-122809523D02*
X240825295Y-122809523D01*
X240825295Y-122809523D02*
X240730057Y-122761904D01*
X240730057Y-122761904D02*
X240682438Y-122714285D01*
X240682438Y-122714285D02*
X240634819Y-122619047D01*
X240634819Y-122619047D02*
X240634819Y-122428571D01*
X240634819Y-122428571D02*
X240682438Y-122333333D01*
X240682438Y-122333333D02*
X240730057Y-122285714D01*
X240730057Y-122285714D02*
X240825295Y-122238095D01*
X240825295Y-122238095D02*
X240872914Y-122238095D01*
X240872914Y-122238095D02*
X240968152Y-122285714D01*
X240968152Y-122285714D02*
X241015771Y-122333333D01*
X241015771Y-122333333D02*
X241063390Y-122428571D01*
X241063390Y-122428571D02*
X241063390Y-122619047D01*
X241063390Y-122619047D02*
X241111009Y-122714285D01*
X241111009Y-122714285D02*
X241158628Y-122761904D01*
X241158628Y-122761904D02*
X241253866Y-122809523D01*
X241253866Y-122809523D02*
X241444342Y-122809523D01*
X241444342Y-122809523D02*
X241539580Y-122761904D01*
X241539580Y-122761904D02*
X241587200Y-122714285D01*
X241587200Y-122714285D02*
X241634819Y-122619047D01*
X241634819Y-122619047D02*
X241634819Y-122428571D01*
X241634819Y-122428571D02*
X241587200Y-122333333D01*
X241587200Y-122333333D02*
X241539580Y-122285714D01*
X241539580Y-122285714D02*
X241444342Y-122238095D01*
X241444342Y-122238095D02*
X241253866Y-122238095D01*
X241253866Y-122238095D02*
X241158628Y-122285714D01*
X241158628Y-122285714D02*
X241111009Y-122333333D01*
X241111009Y-122333333D02*
X241063390Y-122428571D01*
X124989580Y-114366666D02*
X125037200Y-114414285D01*
X125037200Y-114414285D02*
X125084819Y-114557142D01*
X125084819Y-114557142D02*
X125084819Y-114652380D01*
X125084819Y-114652380D02*
X125037200Y-114795237D01*
X125037200Y-114795237D02*
X124941961Y-114890475D01*
X124941961Y-114890475D02*
X124846723Y-114938094D01*
X124846723Y-114938094D02*
X124656247Y-114985713D01*
X124656247Y-114985713D02*
X124513390Y-114985713D01*
X124513390Y-114985713D02*
X124322914Y-114938094D01*
X124322914Y-114938094D02*
X124227676Y-114890475D01*
X124227676Y-114890475D02*
X124132438Y-114795237D01*
X124132438Y-114795237D02*
X124084819Y-114652380D01*
X124084819Y-114652380D02*
X124084819Y-114557142D01*
X124084819Y-114557142D02*
X124132438Y-114414285D01*
X124132438Y-114414285D02*
X124180057Y-114366666D01*
X125084819Y-113414285D02*
X125084819Y-113985713D01*
X125084819Y-113699999D02*
X124084819Y-113699999D01*
X124084819Y-113699999D02*
X124227676Y-113795237D01*
X124227676Y-113795237D02*
X124322914Y-113890475D01*
X124322914Y-113890475D02*
X124370533Y-113985713D01*
X41285714Y-99024819D02*
X41285714Y-98024819D01*
X41285714Y-98024819D02*
X41523809Y-98024819D01*
X41523809Y-98024819D02*
X41666666Y-98072438D01*
X41666666Y-98072438D02*
X41761904Y-98167676D01*
X41761904Y-98167676D02*
X41809523Y-98262914D01*
X41809523Y-98262914D02*
X41857142Y-98453390D01*
X41857142Y-98453390D02*
X41857142Y-98596247D01*
X41857142Y-98596247D02*
X41809523Y-98786723D01*
X41809523Y-98786723D02*
X41761904Y-98881961D01*
X41761904Y-98881961D02*
X41666666Y-98977200D01*
X41666666Y-98977200D02*
X41523809Y-99024819D01*
X41523809Y-99024819D02*
X41285714Y-99024819D01*
X42809523Y-99024819D02*
X42238095Y-99024819D01*
X42523809Y-99024819D02*
X42523809Y-98024819D01*
X42523809Y-98024819D02*
X42428571Y-98167676D01*
X42428571Y-98167676D02*
X42333333Y-98262914D01*
X42333333Y-98262914D02*
X42238095Y-98310533D01*
X43285714Y-99024819D02*
X43476190Y-99024819D01*
X43476190Y-99024819D02*
X43571428Y-98977200D01*
X43571428Y-98977200D02*
X43619047Y-98929580D01*
X43619047Y-98929580D02*
X43714285Y-98786723D01*
X43714285Y-98786723D02*
X43761904Y-98596247D01*
X43761904Y-98596247D02*
X43761904Y-98215295D01*
X43761904Y-98215295D02*
X43714285Y-98120057D01*
X43714285Y-98120057D02*
X43666666Y-98072438D01*
X43666666Y-98072438D02*
X43571428Y-98024819D01*
X43571428Y-98024819D02*
X43380952Y-98024819D01*
X43380952Y-98024819D02*
X43285714Y-98072438D01*
X43285714Y-98072438D02*
X43238095Y-98120057D01*
X43238095Y-98120057D02*
X43190476Y-98215295D01*
X43190476Y-98215295D02*
X43190476Y-98453390D01*
X43190476Y-98453390D02*
X43238095Y-98548628D01*
X43238095Y-98548628D02*
X43285714Y-98596247D01*
X43285714Y-98596247D02*
X43380952Y-98643866D01*
X43380952Y-98643866D02*
X43571428Y-98643866D01*
X43571428Y-98643866D02*
X43666666Y-98596247D01*
X43666666Y-98596247D02*
X43714285Y-98548628D01*
X43714285Y-98548628D02*
X43761904Y-98453390D01*
X169384819Y-78714285D02*
X168384819Y-78714285D01*
X168384819Y-78714285D02*
X168384819Y-78476190D01*
X168384819Y-78476190D02*
X168432438Y-78333333D01*
X168432438Y-78333333D02*
X168527676Y-78238095D01*
X168527676Y-78238095D02*
X168622914Y-78190476D01*
X168622914Y-78190476D02*
X168813390Y-78142857D01*
X168813390Y-78142857D02*
X168956247Y-78142857D01*
X168956247Y-78142857D02*
X169146723Y-78190476D01*
X169146723Y-78190476D02*
X169241961Y-78238095D01*
X169241961Y-78238095D02*
X169337200Y-78333333D01*
X169337200Y-78333333D02*
X169384819Y-78476190D01*
X169384819Y-78476190D02*
X169384819Y-78714285D01*
X168384819Y-77809523D02*
X168384819Y-77190476D01*
X168384819Y-77190476D02*
X168765771Y-77523809D01*
X168765771Y-77523809D02*
X168765771Y-77380952D01*
X168765771Y-77380952D02*
X168813390Y-77285714D01*
X168813390Y-77285714D02*
X168861009Y-77238095D01*
X168861009Y-77238095D02*
X168956247Y-77190476D01*
X168956247Y-77190476D02*
X169194342Y-77190476D01*
X169194342Y-77190476D02*
X169289580Y-77238095D01*
X169289580Y-77238095D02*
X169337200Y-77285714D01*
X169337200Y-77285714D02*
X169384819Y-77380952D01*
X169384819Y-77380952D02*
X169384819Y-77666666D01*
X169384819Y-77666666D02*
X169337200Y-77761904D01*
X169337200Y-77761904D02*
X169289580Y-77809523D01*
X169384819Y-76714285D02*
X169384819Y-76523809D01*
X169384819Y-76523809D02*
X169337200Y-76428571D01*
X169337200Y-76428571D02*
X169289580Y-76380952D01*
X169289580Y-76380952D02*
X169146723Y-76285714D01*
X169146723Y-76285714D02*
X168956247Y-76238095D01*
X168956247Y-76238095D02*
X168575295Y-76238095D01*
X168575295Y-76238095D02*
X168480057Y-76285714D01*
X168480057Y-76285714D02*
X168432438Y-76333333D01*
X168432438Y-76333333D02*
X168384819Y-76428571D01*
X168384819Y-76428571D02*
X168384819Y-76619047D01*
X168384819Y-76619047D02*
X168432438Y-76714285D01*
X168432438Y-76714285D02*
X168480057Y-76761904D01*
X168480057Y-76761904D02*
X168575295Y-76809523D01*
X168575295Y-76809523D02*
X168813390Y-76809523D01*
X168813390Y-76809523D02*
X168908628Y-76761904D01*
X168908628Y-76761904D02*
X168956247Y-76714285D01*
X168956247Y-76714285D02*
X169003866Y-76619047D01*
X169003866Y-76619047D02*
X169003866Y-76428571D01*
X169003866Y-76428571D02*
X168956247Y-76333333D01*
X168956247Y-76333333D02*
X168908628Y-76285714D01*
X168908628Y-76285714D02*
X168813390Y-76238095D01*
X36384819Y-90714285D02*
X35384819Y-90714285D01*
X35384819Y-90714285D02*
X35384819Y-90476190D01*
X35384819Y-90476190D02*
X35432438Y-90333333D01*
X35432438Y-90333333D02*
X35527676Y-90238095D01*
X35527676Y-90238095D02*
X35622914Y-90190476D01*
X35622914Y-90190476D02*
X35813390Y-90142857D01*
X35813390Y-90142857D02*
X35956247Y-90142857D01*
X35956247Y-90142857D02*
X36146723Y-90190476D01*
X36146723Y-90190476D02*
X36241961Y-90238095D01*
X36241961Y-90238095D02*
X36337200Y-90333333D01*
X36337200Y-90333333D02*
X36384819Y-90476190D01*
X36384819Y-90476190D02*
X36384819Y-90714285D01*
X36384819Y-89190476D02*
X36384819Y-89761904D01*
X36384819Y-89476190D02*
X35384819Y-89476190D01*
X35384819Y-89476190D02*
X35527676Y-89571428D01*
X35527676Y-89571428D02*
X35622914Y-89666666D01*
X35622914Y-89666666D02*
X35670533Y-89761904D01*
X35384819Y-88285714D02*
X35384819Y-88761904D01*
X35384819Y-88761904D02*
X35861009Y-88809523D01*
X35861009Y-88809523D02*
X35813390Y-88761904D01*
X35813390Y-88761904D02*
X35765771Y-88666666D01*
X35765771Y-88666666D02*
X35765771Y-88428571D01*
X35765771Y-88428571D02*
X35813390Y-88333333D01*
X35813390Y-88333333D02*
X35861009Y-88285714D01*
X35861009Y-88285714D02*
X35956247Y-88238095D01*
X35956247Y-88238095D02*
X36194342Y-88238095D01*
X36194342Y-88238095D02*
X36289580Y-88285714D01*
X36289580Y-88285714D02*
X36337200Y-88333333D01*
X36337200Y-88333333D02*
X36384819Y-88428571D01*
X36384819Y-88428571D02*
X36384819Y-88666666D01*
X36384819Y-88666666D02*
X36337200Y-88761904D01*
X36337200Y-88761904D02*
X36289580Y-88809523D01*
X62384819Y-124714285D02*
X61384819Y-124714285D01*
X61384819Y-124714285D02*
X61384819Y-124476190D01*
X61384819Y-124476190D02*
X61432438Y-124333333D01*
X61432438Y-124333333D02*
X61527676Y-124238095D01*
X61527676Y-124238095D02*
X61622914Y-124190476D01*
X61622914Y-124190476D02*
X61813390Y-124142857D01*
X61813390Y-124142857D02*
X61956247Y-124142857D01*
X61956247Y-124142857D02*
X62146723Y-124190476D01*
X62146723Y-124190476D02*
X62241961Y-124238095D01*
X62241961Y-124238095D02*
X62337200Y-124333333D01*
X62337200Y-124333333D02*
X62384819Y-124476190D01*
X62384819Y-124476190D02*
X62384819Y-124714285D01*
X61480057Y-123761904D02*
X61432438Y-123714285D01*
X61432438Y-123714285D02*
X61384819Y-123619047D01*
X61384819Y-123619047D02*
X61384819Y-123380952D01*
X61384819Y-123380952D02*
X61432438Y-123285714D01*
X61432438Y-123285714D02*
X61480057Y-123238095D01*
X61480057Y-123238095D02*
X61575295Y-123190476D01*
X61575295Y-123190476D02*
X61670533Y-123190476D01*
X61670533Y-123190476D02*
X61813390Y-123238095D01*
X61813390Y-123238095D02*
X62384819Y-123809523D01*
X62384819Y-123809523D02*
X62384819Y-123190476D01*
X61813390Y-122619047D02*
X61765771Y-122714285D01*
X61765771Y-122714285D02*
X61718152Y-122761904D01*
X61718152Y-122761904D02*
X61622914Y-122809523D01*
X61622914Y-122809523D02*
X61575295Y-122809523D01*
X61575295Y-122809523D02*
X61480057Y-122761904D01*
X61480057Y-122761904D02*
X61432438Y-122714285D01*
X61432438Y-122714285D02*
X61384819Y-122619047D01*
X61384819Y-122619047D02*
X61384819Y-122428571D01*
X61384819Y-122428571D02*
X61432438Y-122333333D01*
X61432438Y-122333333D02*
X61480057Y-122285714D01*
X61480057Y-122285714D02*
X61575295Y-122238095D01*
X61575295Y-122238095D02*
X61622914Y-122238095D01*
X61622914Y-122238095D02*
X61718152Y-122285714D01*
X61718152Y-122285714D02*
X61765771Y-122333333D01*
X61765771Y-122333333D02*
X61813390Y-122428571D01*
X61813390Y-122428571D02*
X61813390Y-122619047D01*
X61813390Y-122619047D02*
X61861009Y-122714285D01*
X61861009Y-122714285D02*
X61908628Y-122761904D01*
X61908628Y-122761904D02*
X62003866Y-122809523D01*
X62003866Y-122809523D02*
X62194342Y-122809523D01*
X62194342Y-122809523D02*
X62289580Y-122761904D01*
X62289580Y-122761904D02*
X62337200Y-122714285D01*
X62337200Y-122714285D02*
X62384819Y-122619047D01*
X62384819Y-122619047D02*
X62384819Y-122428571D01*
X62384819Y-122428571D02*
X62337200Y-122333333D01*
X62337200Y-122333333D02*
X62289580Y-122285714D01*
X62289580Y-122285714D02*
X62194342Y-122238095D01*
X62194342Y-122238095D02*
X62003866Y-122238095D01*
X62003866Y-122238095D02*
X61908628Y-122285714D01*
X61908628Y-122285714D02*
X61861009Y-122333333D01*
X61861009Y-122333333D02*
X61813390Y-122428571D01*
X177285714Y-66024819D02*
X177285714Y-65024819D01*
X177285714Y-65024819D02*
X177523809Y-65024819D01*
X177523809Y-65024819D02*
X177666666Y-65072438D01*
X177666666Y-65072438D02*
X177761904Y-65167676D01*
X177761904Y-65167676D02*
X177809523Y-65262914D01*
X177809523Y-65262914D02*
X177857142Y-65453390D01*
X177857142Y-65453390D02*
X177857142Y-65596247D01*
X177857142Y-65596247D02*
X177809523Y-65786723D01*
X177809523Y-65786723D02*
X177761904Y-65881961D01*
X177761904Y-65881961D02*
X177666666Y-65977200D01*
X177666666Y-65977200D02*
X177523809Y-66024819D01*
X177523809Y-66024819D02*
X177285714Y-66024819D01*
X178190476Y-65024819D02*
X178809523Y-65024819D01*
X178809523Y-65024819D02*
X178476190Y-65405771D01*
X178476190Y-65405771D02*
X178619047Y-65405771D01*
X178619047Y-65405771D02*
X178714285Y-65453390D01*
X178714285Y-65453390D02*
X178761904Y-65501009D01*
X178761904Y-65501009D02*
X178809523Y-65596247D01*
X178809523Y-65596247D02*
X178809523Y-65834342D01*
X178809523Y-65834342D02*
X178761904Y-65929580D01*
X178761904Y-65929580D02*
X178714285Y-65977200D01*
X178714285Y-65977200D02*
X178619047Y-66024819D01*
X178619047Y-66024819D02*
X178333333Y-66024819D01*
X178333333Y-66024819D02*
X178238095Y-65977200D01*
X178238095Y-65977200D02*
X178190476Y-65929580D01*
X179714285Y-65024819D02*
X179238095Y-65024819D01*
X179238095Y-65024819D02*
X179190476Y-65501009D01*
X179190476Y-65501009D02*
X179238095Y-65453390D01*
X179238095Y-65453390D02*
X179333333Y-65405771D01*
X179333333Y-65405771D02*
X179571428Y-65405771D01*
X179571428Y-65405771D02*
X179666666Y-65453390D01*
X179666666Y-65453390D02*
X179714285Y-65501009D01*
X179714285Y-65501009D02*
X179761904Y-65596247D01*
X179761904Y-65596247D02*
X179761904Y-65834342D01*
X179761904Y-65834342D02*
X179714285Y-65929580D01*
X179714285Y-65929580D02*
X179666666Y-65977200D01*
X179666666Y-65977200D02*
X179571428Y-66024819D01*
X179571428Y-66024819D02*
X179333333Y-66024819D01*
X179333333Y-66024819D02*
X179238095Y-65977200D01*
X179238095Y-65977200D02*
X179190476Y-65929580D01*
X198384819Y-90714285D02*
X197384819Y-90714285D01*
X197384819Y-90714285D02*
X197384819Y-90476190D01*
X197384819Y-90476190D02*
X197432438Y-90333333D01*
X197432438Y-90333333D02*
X197527676Y-90238095D01*
X197527676Y-90238095D02*
X197622914Y-90190476D01*
X197622914Y-90190476D02*
X197813390Y-90142857D01*
X197813390Y-90142857D02*
X197956247Y-90142857D01*
X197956247Y-90142857D02*
X198146723Y-90190476D01*
X198146723Y-90190476D02*
X198241961Y-90238095D01*
X198241961Y-90238095D02*
X198337200Y-90333333D01*
X198337200Y-90333333D02*
X198384819Y-90476190D01*
X198384819Y-90476190D02*
X198384819Y-90714285D01*
X197718152Y-89285714D02*
X198384819Y-89285714D01*
X197337200Y-89523809D02*
X198051485Y-89761904D01*
X198051485Y-89761904D02*
X198051485Y-89142857D01*
X197718152Y-88333333D02*
X198384819Y-88333333D01*
X197337200Y-88571428D02*
X198051485Y-88809523D01*
X198051485Y-88809523D02*
X198051485Y-88190476D01*
X126854820Y-100761904D02*
X127664343Y-100761904D01*
X127664343Y-100761904D02*
X127759581Y-100714285D01*
X127759581Y-100714285D02*
X127807201Y-100666666D01*
X127807201Y-100666666D02*
X127854820Y-100571428D01*
X127854820Y-100571428D02*
X127854820Y-100380952D01*
X127854820Y-100380952D02*
X127807201Y-100285714D01*
X127807201Y-100285714D02*
X127759581Y-100238095D01*
X127759581Y-100238095D02*
X127664343Y-100190476D01*
X127664343Y-100190476D02*
X126854820Y-100190476D01*
X126854820Y-99809523D02*
X126854820Y-99190476D01*
X126854820Y-99190476D02*
X127235772Y-99523809D01*
X127235772Y-99523809D02*
X127235772Y-99380952D01*
X127235772Y-99380952D02*
X127283391Y-99285714D01*
X127283391Y-99285714D02*
X127331010Y-99238095D01*
X127331010Y-99238095D02*
X127426248Y-99190476D01*
X127426248Y-99190476D02*
X127664343Y-99190476D01*
X127664343Y-99190476D02*
X127759581Y-99238095D01*
X127759581Y-99238095D02*
X127807201Y-99285714D01*
X127807201Y-99285714D02*
X127854820Y-99380952D01*
X127854820Y-99380952D02*
X127854820Y-99666666D01*
X127854820Y-99666666D02*
X127807201Y-99761904D01*
X127807201Y-99761904D02*
X127759581Y-99809523D01*
X32884819Y-113214285D02*
X31884819Y-113214285D01*
X31884819Y-113214285D02*
X31884819Y-112976190D01*
X31884819Y-112976190D02*
X31932438Y-112833333D01*
X31932438Y-112833333D02*
X32027676Y-112738095D01*
X32027676Y-112738095D02*
X32122914Y-112690476D01*
X32122914Y-112690476D02*
X32313390Y-112642857D01*
X32313390Y-112642857D02*
X32456247Y-112642857D01*
X32456247Y-112642857D02*
X32646723Y-112690476D01*
X32646723Y-112690476D02*
X32741961Y-112738095D01*
X32741961Y-112738095D02*
X32837200Y-112833333D01*
X32837200Y-112833333D02*
X32884819Y-112976190D01*
X32884819Y-112976190D02*
X32884819Y-113214285D01*
X31980057Y-112261904D02*
X31932438Y-112214285D01*
X31932438Y-112214285D02*
X31884819Y-112119047D01*
X31884819Y-112119047D02*
X31884819Y-111880952D01*
X31884819Y-111880952D02*
X31932438Y-111785714D01*
X31932438Y-111785714D02*
X31980057Y-111738095D01*
X31980057Y-111738095D02*
X32075295Y-111690476D01*
X32075295Y-111690476D02*
X32170533Y-111690476D01*
X32170533Y-111690476D02*
X32313390Y-111738095D01*
X32313390Y-111738095D02*
X32884819Y-112309523D01*
X32884819Y-112309523D02*
X32884819Y-111690476D01*
X31884819Y-111357142D02*
X31884819Y-110738095D01*
X31884819Y-110738095D02*
X32265771Y-111071428D01*
X32265771Y-111071428D02*
X32265771Y-110928571D01*
X32265771Y-110928571D02*
X32313390Y-110833333D01*
X32313390Y-110833333D02*
X32361009Y-110785714D01*
X32361009Y-110785714D02*
X32456247Y-110738095D01*
X32456247Y-110738095D02*
X32694342Y-110738095D01*
X32694342Y-110738095D02*
X32789580Y-110785714D01*
X32789580Y-110785714D02*
X32837200Y-110833333D01*
X32837200Y-110833333D02*
X32884819Y-110928571D01*
X32884819Y-110928571D02*
X32884819Y-111214285D01*
X32884819Y-111214285D02*
X32837200Y-111309523D01*
X32837200Y-111309523D02*
X32789580Y-111357142D01*
X88785714Y-99024819D02*
X88785714Y-98024819D01*
X88785714Y-98024819D02*
X89023809Y-98024819D01*
X89023809Y-98024819D02*
X89166666Y-98072438D01*
X89166666Y-98072438D02*
X89261904Y-98167676D01*
X89261904Y-98167676D02*
X89309523Y-98262914D01*
X89309523Y-98262914D02*
X89357142Y-98453390D01*
X89357142Y-98453390D02*
X89357142Y-98596247D01*
X89357142Y-98596247D02*
X89309523Y-98786723D01*
X89309523Y-98786723D02*
X89261904Y-98881961D01*
X89261904Y-98881961D02*
X89166666Y-98977200D01*
X89166666Y-98977200D02*
X89023809Y-99024819D01*
X89023809Y-99024819D02*
X88785714Y-99024819D01*
X89738095Y-98120057D02*
X89785714Y-98072438D01*
X89785714Y-98072438D02*
X89880952Y-98024819D01*
X89880952Y-98024819D02*
X90119047Y-98024819D01*
X90119047Y-98024819D02*
X90214285Y-98072438D01*
X90214285Y-98072438D02*
X90261904Y-98120057D01*
X90261904Y-98120057D02*
X90309523Y-98215295D01*
X90309523Y-98215295D02*
X90309523Y-98310533D01*
X90309523Y-98310533D02*
X90261904Y-98453390D01*
X90261904Y-98453390D02*
X89690476Y-99024819D01*
X89690476Y-99024819D02*
X90309523Y-99024819D01*
X91261904Y-99024819D02*
X90690476Y-99024819D01*
X90976190Y-99024819D02*
X90976190Y-98024819D01*
X90976190Y-98024819D02*
X90880952Y-98167676D01*
X90880952Y-98167676D02*
X90785714Y-98262914D01*
X90785714Y-98262914D02*
X90690476Y-98310533D01*
X85884819Y-78714285D02*
X84884819Y-78714285D01*
X84884819Y-78714285D02*
X84884819Y-78476190D01*
X84884819Y-78476190D02*
X84932438Y-78333333D01*
X84932438Y-78333333D02*
X85027676Y-78238095D01*
X85027676Y-78238095D02*
X85122914Y-78190476D01*
X85122914Y-78190476D02*
X85313390Y-78142857D01*
X85313390Y-78142857D02*
X85456247Y-78142857D01*
X85456247Y-78142857D02*
X85646723Y-78190476D01*
X85646723Y-78190476D02*
X85741961Y-78238095D01*
X85741961Y-78238095D02*
X85837200Y-78333333D01*
X85837200Y-78333333D02*
X85884819Y-78476190D01*
X85884819Y-78476190D02*
X85884819Y-78714285D01*
X85884819Y-77190476D02*
X85884819Y-77761904D01*
X85884819Y-77476190D02*
X84884819Y-77476190D01*
X84884819Y-77476190D02*
X85027676Y-77571428D01*
X85027676Y-77571428D02*
X85122914Y-77666666D01*
X85122914Y-77666666D02*
X85170533Y-77761904D01*
X84884819Y-76857142D02*
X84884819Y-76238095D01*
X84884819Y-76238095D02*
X85265771Y-76571428D01*
X85265771Y-76571428D02*
X85265771Y-76428571D01*
X85265771Y-76428571D02*
X85313390Y-76333333D01*
X85313390Y-76333333D02*
X85361009Y-76285714D01*
X85361009Y-76285714D02*
X85456247Y-76238095D01*
X85456247Y-76238095D02*
X85694342Y-76238095D01*
X85694342Y-76238095D02*
X85789580Y-76285714D01*
X85789580Y-76285714D02*
X85837200Y-76333333D01*
X85837200Y-76333333D02*
X85884819Y-76428571D01*
X85884819Y-76428571D02*
X85884819Y-76714285D01*
X85884819Y-76714285D02*
X85837200Y-76809523D01*
X85837200Y-76809523D02*
X85789580Y-76857142D01*
X66884819Y-90714285D02*
X65884819Y-90714285D01*
X65884819Y-90714285D02*
X65884819Y-90476190D01*
X65884819Y-90476190D02*
X65932438Y-90333333D01*
X65932438Y-90333333D02*
X66027676Y-90238095D01*
X66027676Y-90238095D02*
X66122914Y-90190476D01*
X66122914Y-90190476D02*
X66313390Y-90142857D01*
X66313390Y-90142857D02*
X66456247Y-90142857D01*
X66456247Y-90142857D02*
X66646723Y-90190476D01*
X66646723Y-90190476D02*
X66741961Y-90238095D01*
X66741961Y-90238095D02*
X66837200Y-90333333D01*
X66837200Y-90333333D02*
X66884819Y-90476190D01*
X66884819Y-90476190D02*
X66884819Y-90714285D01*
X66884819Y-89190476D02*
X66884819Y-89761904D01*
X66884819Y-89476190D02*
X65884819Y-89476190D01*
X65884819Y-89476190D02*
X66027676Y-89571428D01*
X66027676Y-89571428D02*
X66122914Y-89666666D01*
X66122914Y-89666666D02*
X66170533Y-89761904D01*
X65884819Y-88333333D02*
X65884819Y-88523809D01*
X65884819Y-88523809D02*
X65932438Y-88619047D01*
X65932438Y-88619047D02*
X65980057Y-88666666D01*
X65980057Y-88666666D02*
X66122914Y-88761904D01*
X66122914Y-88761904D02*
X66313390Y-88809523D01*
X66313390Y-88809523D02*
X66694342Y-88809523D01*
X66694342Y-88809523D02*
X66789580Y-88761904D01*
X66789580Y-88761904D02*
X66837200Y-88714285D01*
X66837200Y-88714285D02*
X66884819Y-88619047D01*
X66884819Y-88619047D02*
X66884819Y-88428571D01*
X66884819Y-88428571D02*
X66837200Y-88333333D01*
X66837200Y-88333333D02*
X66789580Y-88285714D01*
X66789580Y-88285714D02*
X66694342Y-88238095D01*
X66694342Y-88238095D02*
X66456247Y-88238095D01*
X66456247Y-88238095D02*
X66361009Y-88285714D01*
X66361009Y-88285714D02*
X66313390Y-88333333D01*
X66313390Y-88333333D02*
X66265771Y-88428571D01*
X66265771Y-88428571D02*
X66265771Y-88619047D01*
X66265771Y-88619047D02*
X66313390Y-88714285D01*
X66313390Y-88714285D02*
X66361009Y-88761904D01*
X66361009Y-88761904D02*
X66456247Y-88809523D01*
X148833333Y-116624819D02*
X148500000Y-116148628D01*
X148261905Y-116624819D02*
X148261905Y-115624819D01*
X148261905Y-115624819D02*
X148642857Y-115624819D01*
X148642857Y-115624819D02*
X148738095Y-115672438D01*
X148738095Y-115672438D02*
X148785714Y-115720057D01*
X148785714Y-115720057D02*
X148833333Y-115815295D01*
X148833333Y-115815295D02*
X148833333Y-115958152D01*
X148833333Y-115958152D02*
X148785714Y-116053390D01*
X148785714Y-116053390D02*
X148738095Y-116101009D01*
X148738095Y-116101009D02*
X148642857Y-116148628D01*
X148642857Y-116148628D02*
X148261905Y-116148628D01*
X149404762Y-116053390D02*
X149309524Y-116005771D01*
X149309524Y-116005771D02*
X149261905Y-115958152D01*
X149261905Y-115958152D02*
X149214286Y-115862914D01*
X149214286Y-115862914D02*
X149214286Y-115815295D01*
X149214286Y-115815295D02*
X149261905Y-115720057D01*
X149261905Y-115720057D02*
X149309524Y-115672438D01*
X149309524Y-115672438D02*
X149404762Y-115624819D01*
X149404762Y-115624819D02*
X149595238Y-115624819D01*
X149595238Y-115624819D02*
X149690476Y-115672438D01*
X149690476Y-115672438D02*
X149738095Y-115720057D01*
X149738095Y-115720057D02*
X149785714Y-115815295D01*
X149785714Y-115815295D02*
X149785714Y-115862914D01*
X149785714Y-115862914D02*
X149738095Y-115958152D01*
X149738095Y-115958152D02*
X149690476Y-116005771D01*
X149690476Y-116005771D02*
X149595238Y-116053390D01*
X149595238Y-116053390D02*
X149404762Y-116053390D01*
X149404762Y-116053390D02*
X149309524Y-116101009D01*
X149309524Y-116101009D02*
X149261905Y-116148628D01*
X149261905Y-116148628D02*
X149214286Y-116243866D01*
X149214286Y-116243866D02*
X149214286Y-116434342D01*
X149214286Y-116434342D02*
X149261905Y-116529580D01*
X149261905Y-116529580D02*
X149309524Y-116577200D01*
X149309524Y-116577200D02*
X149404762Y-116624819D01*
X149404762Y-116624819D02*
X149595238Y-116624819D01*
X149595238Y-116624819D02*
X149690476Y-116577200D01*
X149690476Y-116577200D02*
X149738095Y-116529580D01*
X149738095Y-116529580D02*
X149785714Y-116434342D01*
X149785714Y-116434342D02*
X149785714Y-116243866D01*
X149785714Y-116243866D02*
X149738095Y-116148628D01*
X149738095Y-116148628D02*
X149690476Y-116101009D01*
X149690476Y-116101009D02*
X149595238Y-116053390D01*
X163384819Y-124214285D02*
X162384819Y-124214285D01*
X162384819Y-124214285D02*
X162384819Y-123976190D01*
X162384819Y-123976190D02*
X162432438Y-123833333D01*
X162432438Y-123833333D02*
X162527676Y-123738095D01*
X162527676Y-123738095D02*
X162622914Y-123690476D01*
X162622914Y-123690476D02*
X162813390Y-123642857D01*
X162813390Y-123642857D02*
X162956247Y-123642857D01*
X162956247Y-123642857D02*
X163146723Y-123690476D01*
X163146723Y-123690476D02*
X163241961Y-123738095D01*
X163241961Y-123738095D02*
X163337200Y-123833333D01*
X163337200Y-123833333D02*
X163384819Y-123976190D01*
X163384819Y-123976190D02*
X163384819Y-124214285D01*
X162384819Y-122738095D02*
X162384819Y-123214285D01*
X162384819Y-123214285D02*
X162861009Y-123261904D01*
X162861009Y-123261904D02*
X162813390Y-123214285D01*
X162813390Y-123214285D02*
X162765771Y-123119047D01*
X162765771Y-123119047D02*
X162765771Y-122880952D01*
X162765771Y-122880952D02*
X162813390Y-122785714D01*
X162813390Y-122785714D02*
X162861009Y-122738095D01*
X162861009Y-122738095D02*
X162956247Y-122690476D01*
X162956247Y-122690476D02*
X163194342Y-122690476D01*
X163194342Y-122690476D02*
X163289580Y-122738095D01*
X163289580Y-122738095D02*
X163337200Y-122785714D01*
X163337200Y-122785714D02*
X163384819Y-122880952D01*
X163384819Y-122880952D02*
X163384819Y-123119047D01*
X163384819Y-123119047D02*
X163337200Y-123214285D01*
X163337200Y-123214285D02*
X163289580Y-123261904D01*
X162384819Y-121785714D02*
X162384819Y-122261904D01*
X162384819Y-122261904D02*
X162861009Y-122309523D01*
X162861009Y-122309523D02*
X162813390Y-122261904D01*
X162813390Y-122261904D02*
X162765771Y-122166666D01*
X162765771Y-122166666D02*
X162765771Y-121928571D01*
X162765771Y-121928571D02*
X162813390Y-121833333D01*
X162813390Y-121833333D02*
X162861009Y-121785714D01*
X162861009Y-121785714D02*
X162956247Y-121738095D01*
X162956247Y-121738095D02*
X163194342Y-121738095D01*
X163194342Y-121738095D02*
X163289580Y-121785714D01*
X163289580Y-121785714D02*
X163337200Y-121833333D01*
X163337200Y-121833333D02*
X163384819Y-121928571D01*
X163384819Y-121928571D02*
X163384819Y-122166666D01*
X163384819Y-122166666D02*
X163337200Y-122261904D01*
X163337200Y-122261904D02*
X163289580Y-122309523D01*
X167884819Y-90714285D02*
X166884819Y-90714285D01*
X166884819Y-90714285D02*
X166884819Y-90476190D01*
X166884819Y-90476190D02*
X166932438Y-90333333D01*
X166932438Y-90333333D02*
X167027676Y-90238095D01*
X167027676Y-90238095D02*
X167122914Y-90190476D01*
X167122914Y-90190476D02*
X167313390Y-90142857D01*
X167313390Y-90142857D02*
X167456247Y-90142857D01*
X167456247Y-90142857D02*
X167646723Y-90190476D01*
X167646723Y-90190476D02*
X167741961Y-90238095D01*
X167741961Y-90238095D02*
X167837200Y-90333333D01*
X167837200Y-90333333D02*
X167884819Y-90476190D01*
X167884819Y-90476190D02*
X167884819Y-90714285D01*
X167218152Y-89285714D02*
X167884819Y-89285714D01*
X166837200Y-89523809D02*
X167551485Y-89761904D01*
X167551485Y-89761904D02*
X167551485Y-89142857D01*
X166884819Y-88857142D02*
X166884819Y-88238095D01*
X166884819Y-88238095D02*
X167265771Y-88571428D01*
X167265771Y-88571428D02*
X167265771Y-88428571D01*
X167265771Y-88428571D02*
X167313390Y-88333333D01*
X167313390Y-88333333D02*
X167361009Y-88285714D01*
X167361009Y-88285714D02*
X167456247Y-88238095D01*
X167456247Y-88238095D02*
X167694342Y-88238095D01*
X167694342Y-88238095D02*
X167789580Y-88285714D01*
X167789580Y-88285714D02*
X167837200Y-88333333D01*
X167837200Y-88333333D02*
X167884819Y-88428571D01*
X167884819Y-88428571D02*
X167884819Y-88714285D01*
X167884819Y-88714285D02*
X167837200Y-88809523D01*
X167837200Y-88809523D02*
X167789580Y-88857142D01*
X148554818Y-100761904D02*
X149364341Y-100761904D01*
X149364341Y-100761904D02*
X149459579Y-100714285D01*
X149459579Y-100714285D02*
X149507199Y-100666666D01*
X149507199Y-100666666D02*
X149554818Y-100571428D01*
X149554818Y-100571428D02*
X149554818Y-100380952D01*
X149554818Y-100380952D02*
X149507199Y-100285714D01*
X149507199Y-100285714D02*
X149459579Y-100238095D01*
X149459579Y-100238095D02*
X149364341Y-100190476D01*
X149364341Y-100190476D02*
X148554818Y-100190476D01*
X149554818Y-99190476D02*
X149554818Y-99761904D01*
X149554818Y-99476190D02*
X148554818Y-99476190D01*
X148554818Y-99476190D02*
X148697675Y-99571428D01*
X148697675Y-99571428D02*
X148792913Y-99666666D01*
X148792913Y-99666666D02*
X148840532Y-99761904D01*
X105285714Y-66024819D02*
X105285714Y-65024819D01*
X105285714Y-65024819D02*
X105523809Y-65024819D01*
X105523809Y-65024819D02*
X105666666Y-65072438D01*
X105666666Y-65072438D02*
X105761904Y-65167676D01*
X105761904Y-65167676D02*
X105809523Y-65262914D01*
X105809523Y-65262914D02*
X105857142Y-65453390D01*
X105857142Y-65453390D02*
X105857142Y-65596247D01*
X105857142Y-65596247D02*
X105809523Y-65786723D01*
X105809523Y-65786723D02*
X105761904Y-65881961D01*
X105761904Y-65881961D02*
X105666666Y-65977200D01*
X105666666Y-65977200D02*
X105523809Y-66024819D01*
X105523809Y-66024819D02*
X105285714Y-66024819D01*
X106809523Y-66024819D02*
X106238095Y-66024819D01*
X106523809Y-66024819D02*
X106523809Y-65024819D01*
X106523809Y-65024819D02*
X106428571Y-65167676D01*
X106428571Y-65167676D02*
X106333333Y-65262914D01*
X106333333Y-65262914D02*
X106238095Y-65310533D01*
X107428571Y-65024819D02*
X107523809Y-65024819D01*
X107523809Y-65024819D02*
X107619047Y-65072438D01*
X107619047Y-65072438D02*
X107666666Y-65120057D01*
X107666666Y-65120057D02*
X107714285Y-65215295D01*
X107714285Y-65215295D02*
X107761904Y-65405771D01*
X107761904Y-65405771D02*
X107761904Y-65643866D01*
X107761904Y-65643866D02*
X107714285Y-65834342D01*
X107714285Y-65834342D02*
X107666666Y-65929580D01*
X107666666Y-65929580D02*
X107619047Y-65977200D01*
X107619047Y-65977200D02*
X107523809Y-66024819D01*
X107523809Y-66024819D02*
X107428571Y-66024819D01*
X107428571Y-66024819D02*
X107333333Y-65977200D01*
X107333333Y-65977200D02*
X107285714Y-65929580D01*
X107285714Y-65929580D02*
X107238095Y-65834342D01*
X107238095Y-65834342D02*
X107190476Y-65643866D01*
X107190476Y-65643866D02*
X107190476Y-65405771D01*
X107190476Y-65405771D02*
X107238095Y-65215295D01*
X107238095Y-65215295D02*
X107285714Y-65120057D01*
X107285714Y-65120057D02*
X107333333Y-65072438D01*
X107333333Y-65072438D02*
X107428571Y-65024819D01*
X31384819Y-124214285D02*
X30384819Y-124214285D01*
X30384819Y-124214285D02*
X30384819Y-123976190D01*
X30384819Y-123976190D02*
X30432438Y-123833333D01*
X30432438Y-123833333D02*
X30527676Y-123738095D01*
X30527676Y-123738095D02*
X30622914Y-123690476D01*
X30622914Y-123690476D02*
X30813390Y-123642857D01*
X30813390Y-123642857D02*
X30956247Y-123642857D01*
X30956247Y-123642857D02*
X31146723Y-123690476D01*
X31146723Y-123690476D02*
X31241961Y-123738095D01*
X31241961Y-123738095D02*
X31337200Y-123833333D01*
X31337200Y-123833333D02*
X31384819Y-123976190D01*
X31384819Y-123976190D02*
X31384819Y-124214285D01*
X30480057Y-123261904D02*
X30432438Y-123214285D01*
X30432438Y-123214285D02*
X30384819Y-123119047D01*
X30384819Y-123119047D02*
X30384819Y-122880952D01*
X30384819Y-122880952D02*
X30432438Y-122785714D01*
X30432438Y-122785714D02*
X30480057Y-122738095D01*
X30480057Y-122738095D02*
X30575295Y-122690476D01*
X30575295Y-122690476D02*
X30670533Y-122690476D01*
X30670533Y-122690476D02*
X30813390Y-122738095D01*
X30813390Y-122738095D02*
X31384819Y-123309523D01*
X31384819Y-123309523D02*
X31384819Y-122690476D01*
X30384819Y-122357142D02*
X30384819Y-121690476D01*
X30384819Y-121690476D02*
X31384819Y-122119047D01*
X126833333Y-81454819D02*
X126500000Y-80978628D01*
X126261905Y-81454819D02*
X126261905Y-80454819D01*
X126261905Y-80454819D02*
X126642857Y-80454819D01*
X126642857Y-80454819D02*
X126738095Y-80502438D01*
X126738095Y-80502438D02*
X126785714Y-80550057D01*
X126785714Y-80550057D02*
X126833333Y-80645295D01*
X126833333Y-80645295D02*
X126833333Y-80788152D01*
X126833333Y-80788152D02*
X126785714Y-80883390D01*
X126785714Y-80883390D02*
X126738095Y-80931009D01*
X126738095Y-80931009D02*
X126642857Y-80978628D01*
X126642857Y-80978628D02*
X126261905Y-80978628D01*
X127738095Y-80454819D02*
X127261905Y-80454819D01*
X127261905Y-80454819D02*
X127214286Y-80931009D01*
X127214286Y-80931009D02*
X127261905Y-80883390D01*
X127261905Y-80883390D02*
X127357143Y-80835771D01*
X127357143Y-80835771D02*
X127595238Y-80835771D01*
X127595238Y-80835771D02*
X127690476Y-80883390D01*
X127690476Y-80883390D02*
X127738095Y-80931009D01*
X127738095Y-80931009D02*
X127785714Y-81026247D01*
X127785714Y-81026247D02*
X127785714Y-81264342D01*
X127785714Y-81264342D02*
X127738095Y-81359580D01*
X127738095Y-81359580D02*
X127690476Y-81407200D01*
X127690476Y-81407200D02*
X127595238Y-81454819D01*
X127595238Y-81454819D02*
X127357143Y-81454819D01*
X127357143Y-81454819D02*
X127261905Y-81407200D01*
X127261905Y-81407200D02*
X127214286Y-81359580D01*
X246384819Y-90714285D02*
X245384819Y-90714285D01*
X245384819Y-90714285D02*
X245384819Y-90476190D01*
X245384819Y-90476190D02*
X245432438Y-90333333D01*
X245432438Y-90333333D02*
X245527676Y-90238095D01*
X245527676Y-90238095D02*
X245622914Y-90190476D01*
X245622914Y-90190476D02*
X245813390Y-90142857D01*
X245813390Y-90142857D02*
X245956247Y-90142857D01*
X245956247Y-90142857D02*
X246146723Y-90190476D01*
X246146723Y-90190476D02*
X246241961Y-90238095D01*
X246241961Y-90238095D02*
X246337200Y-90333333D01*
X246337200Y-90333333D02*
X246384819Y-90476190D01*
X246384819Y-90476190D02*
X246384819Y-90714285D01*
X245718152Y-89285714D02*
X246384819Y-89285714D01*
X245337200Y-89523809D02*
X246051485Y-89761904D01*
X246051485Y-89761904D02*
X246051485Y-89142857D01*
X245384819Y-88333333D02*
X245384819Y-88523809D01*
X245384819Y-88523809D02*
X245432438Y-88619047D01*
X245432438Y-88619047D02*
X245480057Y-88666666D01*
X245480057Y-88666666D02*
X245622914Y-88761904D01*
X245622914Y-88761904D02*
X245813390Y-88809523D01*
X245813390Y-88809523D02*
X246194342Y-88809523D01*
X246194342Y-88809523D02*
X246289580Y-88761904D01*
X246289580Y-88761904D02*
X246337200Y-88714285D01*
X246337200Y-88714285D02*
X246384819Y-88619047D01*
X246384819Y-88619047D02*
X246384819Y-88428571D01*
X246384819Y-88428571D02*
X246337200Y-88333333D01*
X246337200Y-88333333D02*
X246289580Y-88285714D01*
X246289580Y-88285714D02*
X246194342Y-88238095D01*
X246194342Y-88238095D02*
X245956247Y-88238095D01*
X245956247Y-88238095D02*
X245861009Y-88285714D01*
X245861009Y-88285714D02*
X245813390Y-88333333D01*
X245813390Y-88333333D02*
X245765771Y-88428571D01*
X245765771Y-88428571D02*
X245765771Y-88619047D01*
X245765771Y-88619047D02*
X245813390Y-88714285D01*
X245813390Y-88714285D02*
X245861009Y-88761904D01*
X245861009Y-88761904D02*
X245956247Y-88809523D01*
X148761905Y-121454819D02*
X148761905Y-120454819D01*
X148761905Y-120454819D02*
X149000000Y-120454819D01*
X149000000Y-120454819D02*
X149142857Y-120502438D01*
X149142857Y-120502438D02*
X149238095Y-120597676D01*
X149238095Y-120597676D02*
X149285714Y-120692914D01*
X149285714Y-120692914D02*
X149333333Y-120883390D01*
X149333333Y-120883390D02*
X149333333Y-121026247D01*
X149333333Y-121026247D02*
X149285714Y-121216723D01*
X149285714Y-121216723D02*
X149238095Y-121311961D01*
X149238095Y-121311961D02*
X149142857Y-121407200D01*
X149142857Y-121407200D02*
X149000000Y-121454819D01*
X149000000Y-121454819D02*
X148761905Y-121454819D01*
X150190476Y-120788152D02*
X150190476Y-121454819D01*
X149952381Y-120407200D02*
X149714286Y-121121485D01*
X149714286Y-121121485D02*
X150333333Y-121121485D01*
X68384819Y-78714285D02*
X67384819Y-78714285D01*
X67384819Y-78714285D02*
X67384819Y-78476190D01*
X67384819Y-78476190D02*
X67432438Y-78333333D01*
X67432438Y-78333333D02*
X67527676Y-78238095D01*
X67527676Y-78238095D02*
X67622914Y-78190476D01*
X67622914Y-78190476D02*
X67813390Y-78142857D01*
X67813390Y-78142857D02*
X67956247Y-78142857D01*
X67956247Y-78142857D02*
X68146723Y-78190476D01*
X68146723Y-78190476D02*
X68241961Y-78238095D01*
X68241961Y-78238095D02*
X68337200Y-78333333D01*
X68337200Y-78333333D02*
X68384819Y-78476190D01*
X68384819Y-78476190D02*
X68384819Y-78714285D01*
X68384819Y-77190476D02*
X68384819Y-77761904D01*
X68384819Y-77476190D02*
X67384819Y-77476190D01*
X67384819Y-77476190D02*
X67527676Y-77571428D01*
X67527676Y-77571428D02*
X67622914Y-77666666D01*
X67622914Y-77666666D02*
X67670533Y-77761904D01*
X67480057Y-76809523D02*
X67432438Y-76761904D01*
X67432438Y-76761904D02*
X67384819Y-76666666D01*
X67384819Y-76666666D02*
X67384819Y-76428571D01*
X67384819Y-76428571D02*
X67432438Y-76333333D01*
X67432438Y-76333333D02*
X67480057Y-76285714D01*
X67480057Y-76285714D02*
X67575295Y-76238095D01*
X67575295Y-76238095D02*
X67670533Y-76238095D01*
X67670533Y-76238095D02*
X67813390Y-76285714D01*
X67813390Y-76285714D02*
X68384819Y-76857142D01*
X68384819Y-76857142D02*
X68384819Y-76238095D01*
X46761905Y-66024819D02*
X46761905Y-65024819D01*
X46761905Y-65024819D02*
X47000000Y-65024819D01*
X47000000Y-65024819D02*
X47142857Y-65072438D01*
X47142857Y-65072438D02*
X47238095Y-65167676D01*
X47238095Y-65167676D02*
X47285714Y-65262914D01*
X47285714Y-65262914D02*
X47333333Y-65453390D01*
X47333333Y-65453390D02*
X47333333Y-65596247D01*
X47333333Y-65596247D02*
X47285714Y-65786723D01*
X47285714Y-65786723D02*
X47238095Y-65881961D01*
X47238095Y-65881961D02*
X47142857Y-65977200D01*
X47142857Y-65977200D02*
X47000000Y-66024819D01*
X47000000Y-66024819D02*
X46761905Y-66024819D01*
X47666667Y-65024819D02*
X48333333Y-65024819D01*
X48333333Y-65024819D02*
X47904762Y-66024819D01*
X37884819Y-78714285D02*
X36884819Y-78714285D01*
X36884819Y-78714285D02*
X36884819Y-78476190D01*
X36884819Y-78476190D02*
X36932438Y-78333333D01*
X36932438Y-78333333D02*
X37027676Y-78238095D01*
X37027676Y-78238095D02*
X37122914Y-78190476D01*
X37122914Y-78190476D02*
X37313390Y-78142857D01*
X37313390Y-78142857D02*
X37456247Y-78142857D01*
X37456247Y-78142857D02*
X37646723Y-78190476D01*
X37646723Y-78190476D02*
X37741961Y-78238095D01*
X37741961Y-78238095D02*
X37837200Y-78333333D01*
X37837200Y-78333333D02*
X37884819Y-78476190D01*
X37884819Y-78476190D02*
X37884819Y-78714285D01*
X37884819Y-77190476D02*
X37884819Y-77761904D01*
X37884819Y-77476190D02*
X36884819Y-77476190D01*
X36884819Y-77476190D02*
X37027676Y-77571428D01*
X37027676Y-77571428D02*
X37122914Y-77666666D01*
X37122914Y-77666666D02*
X37170533Y-77761904D01*
X37884819Y-76238095D02*
X37884819Y-76809523D01*
X37884819Y-76523809D02*
X36884819Y-76523809D01*
X36884819Y-76523809D02*
X37027676Y-76619047D01*
X37027676Y-76619047D02*
X37122914Y-76714285D01*
X37122914Y-76714285D02*
X37170533Y-76809523D01*
X48285714Y-132524819D02*
X48285714Y-131524819D01*
X48285714Y-131524819D02*
X48523809Y-131524819D01*
X48523809Y-131524819D02*
X48666666Y-131572438D01*
X48666666Y-131572438D02*
X48761904Y-131667676D01*
X48761904Y-131667676D02*
X48809523Y-131762914D01*
X48809523Y-131762914D02*
X48857142Y-131953390D01*
X48857142Y-131953390D02*
X48857142Y-132096247D01*
X48857142Y-132096247D02*
X48809523Y-132286723D01*
X48809523Y-132286723D02*
X48761904Y-132381961D01*
X48761904Y-132381961D02*
X48666666Y-132477200D01*
X48666666Y-132477200D02*
X48523809Y-132524819D01*
X48523809Y-132524819D02*
X48285714Y-132524819D01*
X49190476Y-131524819D02*
X49809523Y-131524819D01*
X49809523Y-131524819D02*
X49476190Y-131905771D01*
X49476190Y-131905771D02*
X49619047Y-131905771D01*
X49619047Y-131905771D02*
X49714285Y-131953390D01*
X49714285Y-131953390D02*
X49761904Y-132001009D01*
X49761904Y-132001009D02*
X49809523Y-132096247D01*
X49809523Y-132096247D02*
X49809523Y-132334342D01*
X49809523Y-132334342D02*
X49761904Y-132429580D01*
X49761904Y-132429580D02*
X49714285Y-132477200D01*
X49714285Y-132477200D02*
X49619047Y-132524819D01*
X49619047Y-132524819D02*
X49333333Y-132524819D01*
X49333333Y-132524819D02*
X49238095Y-132477200D01*
X49238095Y-132477200D02*
X49190476Y-132429580D01*
X50190476Y-131620057D02*
X50238095Y-131572438D01*
X50238095Y-131572438D02*
X50333333Y-131524819D01*
X50333333Y-131524819D02*
X50571428Y-131524819D01*
X50571428Y-131524819D02*
X50666666Y-131572438D01*
X50666666Y-131572438D02*
X50714285Y-131620057D01*
X50714285Y-131620057D02*
X50761904Y-131715295D01*
X50761904Y-131715295D02*
X50761904Y-131810533D01*
X50761904Y-131810533D02*
X50714285Y-131953390D01*
X50714285Y-131953390D02*
X50142857Y-132524819D01*
X50142857Y-132524819D02*
X50761904Y-132524819D01*
X137069580Y-101441666D02*
X137117200Y-101489285D01*
X137117200Y-101489285D02*
X137164819Y-101632142D01*
X137164819Y-101632142D02*
X137164819Y-101727380D01*
X137164819Y-101727380D02*
X137117200Y-101870237D01*
X137117200Y-101870237D02*
X137021961Y-101965475D01*
X137021961Y-101965475D02*
X136926723Y-102013094D01*
X136926723Y-102013094D02*
X136736247Y-102060713D01*
X136736247Y-102060713D02*
X136593390Y-102060713D01*
X136593390Y-102060713D02*
X136402914Y-102013094D01*
X136402914Y-102013094D02*
X136307676Y-101965475D01*
X136307676Y-101965475D02*
X136212438Y-101870237D01*
X136212438Y-101870237D02*
X136164819Y-101727380D01*
X136164819Y-101727380D02*
X136164819Y-101632142D01*
X136164819Y-101632142D02*
X136212438Y-101489285D01*
X136212438Y-101489285D02*
X136260057Y-101441666D01*
X136164819Y-101108332D02*
X136164819Y-100489285D01*
X136164819Y-100489285D02*
X136545771Y-100822618D01*
X136545771Y-100822618D02*
X136545771Y-100679761D01*
X136545771Y-100679761D02*
X136593390Y-100584523D01*
X136593390Y-100584523D02*
X136641009Y-100536904D01*
X136641009Y-100536904D02*
X136736247Y-100489285D01*
X136736247Y-100489285D02*
X136974342Y-100489285D01*
X136974342Y-100489285D02*
X137069580Y-100536904D01*
X137069580Y-100536904D02*
X137117200Y-100584523D01*
X137117200Y-100584523D02*
X137164819Y-100679761D01*
X137164819Y-100679761D02*
X137164819Y-100965475D01*
X137164819Y-100965475D02*
X137117200Y-101060713D01*
X137117200Y-101060713D02*
X137069580Y-101108332D01*
X116384819Y-78714285D02*
X115384819Y-78714285D01*
X115384819Y-78714285D02*
X115384819Y-78476190D01*
X115384819Y-78476190D02*
X115432438Y-78333333D01*
X115432438Y-78333333D02*
X115527676Y-78238095D01*
X115527676Y-78238095D02*
X115622914Y-78190476D01*
X115622914Y-78190476D02*
X115813390Y-78142857D01*
X115813390Y-78142857D02*
X115956247Y-78142857D01*
X115956247Y-78142857D02*
X116146723Y-78190476D01*
X116146723Y-78190476D02*
X116241961Y-78238095D01*
X116241961Y-78238095D02*
X116337200Y-78333333D01*
X116337200Y-78333333D02*
X116384819Y-78476190D01*
X116384819Y-78476190D02*
X116384819Y-78714285D01*
X116384819Y-77190476D02*
X116384819Y-77761904D01*
X116384819Y-77476190D02*
X115384819Y-77476190D01*
X115384819Y-77476190D02*
X115527676Y-77571428D01*
X115527676Y-77571428D02*
X115622914Y-77666666D01*
X115622914Y-77666666D02*
X115670533Y-77761904D01*
X115718152Y-76333333D02*
X116384819Y-76333333D01*
X115337200Y-76571428D02*
X116051485Y-76809523D01*
X116051485Y-76809523D02*
X116051485Y-76190476D01*
X130454819Y-76238094D02*
X129454819Y-76238094D01*
X129454819Y-76238094D02*
X129454819Y-75999999D01*
X129454819Y-75999999D02*
X129502438Y-75857142D01*
X129502438Y-75857142D02*
X129597676Y-75761904D01*
X129597676Y-75761904D02*
X129692914Y-75714285D01*
X129692914Y-75714285D02*
X129883390Y-75666666D01*
X129883390Y-75666666D02*
X130026247Y-75666666D01*
X130026247Y-75666666D02*
X130216723Y-75714285D01*
X130216723Y-75714285D02*
X130311961Y-75761904D01*
X130311961Y-75761904D02*
X130407200Y-75857142D01*
X130407200Y-75857142D02*
X130454819Y-75999999D01*
X130454819Y-75999999D02*
X130454819Y-76238094D01*
X129550057Y-75285713D02*
X129502438Y-75238094D01*
X129502438Y-75238094D02*
X129454819Y-75142856D01*
X129454819Y-75142856D02*
X129454819Y-74904761D01*
X129454819Y-74904761D02*
X129502438Y-74809523D01*
X129502438Y-74809523D02*
X129550057Y-74761904D01*
X129550057Y-74761904D02*
X129645295Y-74714285D01*
X129645295Y-74714285D02*
X129740533Y-74714285D01*
X129740533Y-74714285D02*
X129883390Y-74761904D01*
X129883390Y-74761904D02*
X130454819Y-75333332D01*
X130454819Y-75333332D02*
X130454819Y-74714285D01*
X217884819Y-78714285D02*
X216884819Y-78714285D01*
X216884819Y-78714285D02*
X216884819Y-78476190D01*
X216884819Y-78476190D02*
X216932438Y-78333333D01*
X216932438Y-78333333D02*
X217027676Y-78238095D01*
X217027676Y-78238095D02*
X217122914Y-78190476D01*
X217122914Y-78190476D02*
X217313390Y-78142857D01*
X217313390Y-78142857D02*
X217456247Y-78142857D01*
X217456247Y-78142857D02*
X217646723Y-78190476D01*
X217646723Y-78190476D02*
X217741961Y-78238095D01*
X217741961Y-78238095D02*
X217837200Y-78333333D01*
X217837200Y-78333333D02*
X217884819Y-78476190D01*
X217884819Y-78476190D02*
X217884819Y-78714285D01*
X217218152Y-77285714D02*
X217884819Y-77285714D01*
X216837200Y-77523809D02*
X217551485Y-77761904D01*
X217551485Y-77761904D02*
X217551485Y-77142857D01*
X217884819Y-76238095D02*
X217884819Y-76809523D01*
X217884819Y-76523809D02*
X216884819Y-76523809D01*
X216884819Y-76523809D02*
X217027676Y-76619047D01*
X217027676Y-76619047D02*
X217122914Y-76714285D01*
X217122914Y-76714285D02*
X217170533Y-76809523D01*
X184285714Y-99024819D02*
X184285714Y-98024819D01*
X184285714Y-98024819D02*
X184523809Y-98024819D01*
X184523809Y-98024819D02*
X184666666Y-98072438D01*
X184666666Y-98072438D02*
X184761904Y-98167676D01*
X184761904Y-98167676D02*
X184809523Y-98262914D01*
X184809523Y-98262914D02*
X184857142Y-98453390D01*
X184857142Y-98453390D02*
X184857142Y-98596247D01*
X184857142Y-98596247D02*
X184809523Y-98786723D01*
X184809523Y-98786723D02*
X184761904Y-98881961D01*
X184761904Y-98881961D02*
X184666666Y-98977200D01*
X184666666Y-98977200D02*
X184523809Y-99024819D01*
X184523809Y-99024819D02*
X184285714Y-99024819D01*
X185714285Y-98358152D02*
X185714285Y-99024819D01*
X185476190Y-97977200D02*
X185238095Y-98691485D01*
X185238095Y-98691485D02*
X185857142Y-98691485D01*
X186380952Y-98453390D02*
X186285714Y-98405771D01*
X186285714Y-98405771D02*
X186238095Y-98358152D01*
X186238095Y-98358152D02*
X186190476Y-98262914D01*
X186190476Y-98262914D02*
X186190476Y-98215295D01*
X186190476Y-98215295D02*
X186238095Y-98120057D01*
X186238095Y-98120057D02*
X186285714Y-98072438D01*
X186285714Y-98072438D02*
X186380952Y-98024819D01*
X186380952Y-98024819D02*
X186571428Y-98024819D01*
X186571428Y-98024819D02*
X186666666Y-98072438D01*
X186666666Y-98072438D02*
X186714285Y-98120057D01*
X186714285Y-98120057D02*
X186761904Y-98215295D01*
X186761904Y-98215295D02*
X186761904Y-98262914D01*
X186761904Y-98262914D02*
X186714285Y-98358152D01*
X186714285Y-98358152D02*
X186666666Y-98405771D01*
X186666666Y-98405771D02*
X186571428Y-98453390D01*
X186571428Y-98453390D02*
X186380952Y-98453390D01*
X186380952Y-98453390D02*
X186285714Y-98501009D01*
X186285714Y-98501009D02*
X186238095Y-98548628D01*
X186238095Y-98548628D02*
X186190476Y-98643866D01*
X186190476Y-98643866D02*
X186190476Y-98834342D01*
X186190476Y-98834342D02*
X186238095Y-98929580D01*
X186238095Y-98929580D02*
X186285714Y-98977200D01*
X186285714Y-98977200D02*
X186380952Y-99024819D01*
X186380952Y-99024819D02*
X186571428Y-99024819D01*
X186571428Y-99024819D02*
X186666666Y-98977200D01*
X186666666Y-98977200D02*
X186714285Y-98929580D01*
X186714285Y-98929580D02*
X186761904Y-98834342D01*
X186761904Y-98834342D02*
X186761904Y-98643866D01*
X186761904Y-98643866D02*
X186714285Y-98548628D01*
X186714285Y-98548628D02*
X186666666Y-98501009D01*
X186666666Y-98501009D02*
X186571428Y-98453390D01*
X154833333Y-79624819D02*
X154500000Y-79148628D01*
X154261905Y-79624819D02*
X154261905Y-78624819D01*
X154261905Y-78624819D02*
X154642857Y-78624819D01*
X154642857Y-78624819D02*
X154738095Y-78672438D01*
X154738095Y-78672438D02*
X154785714Y-78720057D01*
X154785714Y-78720057D02*
X154833333Y-78815295D01*
X154833333Y-78815295D02*
X154833333Y-78958152D01*
X154833333Y-78958152D02*
X154785714Y-79053390D01*
X154785714Y-79053390D02*
X154738095Y-79101009D01*
X154738095Y-79101009D02*
X154642857Y-79148628D01*
X154642857Y-79148628D02*
X154261905Y-79148628D01*
X155166667Y-78624819D02*
X155833333Y-78624819D01*
X155833333Y-78624819D02*
X155404762Y-79624819D01*
X194884819Y-112714285D02*
X193884819Y-112714285D01*
X193884819Y-112714285D02*
X193884819Y-112476190D01*
X193884819Y-112476190D02*
X193932438Y-112333333D01*
X193932438Y-112333333D02*
X194027676Y-112238095D01*
X194027676Y-112238095D02*
X194122914Y-112190476D01*
X194122914Y-112190476D02*
X194313390Y-112142857D01*
X194313390Y-112142857D02*
X194456247Y-112142857D01*
X194456247Y-112142857D02*
X194646723Y-112190476D01*
X194646723Y-112190476D02*
X194741961Y-112238095D01*
X194741961Y-112238095D02*
X194837200Y-112333333D01*
X194837200Y-112333333D02*
X194884819Y-112476190D01*
X194884819Y-112476190D02*
X194884819Y-112714285D01*
X193884819Y-111238095D02*
X193884819Y-111714285D01*
X193884819Y-111714285D02*
X194361009Y-111761904D01*
X194361009Y-111761904D02*
X194313390Y-111714285D01*
X194313390Y-111714285D02*
X194265771Y-111619047D01*
X194265771Y-111619047D02*
X194265771Y-111380952D01*
X194265771Y-111380952D02*
X194313390Y-111285714D01*
X194313390Y-111285714D02*
X194361009Y-111238095D01*
X194361009Y-111238095D02*
X194456247Y-111190476D01*
X194456247Y-111190476D02*
X194694342Y-111190476D01*
X194694342Y-111190476D02*
X194789580Y-111238095D01*
X194789580Y-111238095D02*
X194837200Y-111285714D01*
X194837200Y-111285714D02*
X194884819Y-111380952D01*
X194884819Y-111380952D02*
X194884819Y-111619047D01*
X194884819Y-111619047D02*
X194837200Y-111714285D01*
X194837200Y-111714285D02*
X194789580Y-111761904D01*
X193980057Y-110809523D02*
X193932438Y-110761904D01*
X193932438Y-110761904D02*
X193884819Y-110666666D01*
X193884819Y-110666666D02*
X193884819Y-110428571D01*
X193884819Y-110428571D02*
X193932438Y-110333333D01*
X193932438Y-110333333D02*
X193980057Y-110285714D01*
X193980057Y-110285714D02*
X194075295Y-110238095D01*
X194075295Y-110238095D02*
X194170533Y-110238095D01*
X194170533Y-110238095D02*
X194313390Y-110285714D01*
X194313390Y-110285714D02*
X194884819Y-110857142D01*
X194884819Y-110857142D02*
X194884819Y-110238095D01*
X131954819Y-75666666D02*
X131478628Y-75999999D01*
X131954819Y-76238094D02*
X130954819Y-76238094D01*
X130954819Y-76238094D02*
X130954819Y-75857142D01*
X130954819Y-75857142D02*
X131002438Y-75761904D01*
X131002438Y-75761904D02*
X131050057Y-75714285D01*
X131050057Y-75714285D02*
X131145295Y-75666666D01*
X131145295Y-75666666D02*
X131288152Y-75666666D01*
X131288152Y-75666666D02*
X131383390Y-75714285D01*
X131383390Y-75714285D02*
X131431009Y-75761904D01*
X131431009Y-75761904D02*
X131478628Y-75857142D01*
X131478628Y-75857142D02*
X131478628Y-76238094D01*
X130954819Y-74809523D02*
X130954819Y-74999999D01*
X130954819Y-74999999D02*
X131002438Y-75095237D01*
X131002438Y-75095237D02*
X131050057Y-75142856D01*
X131050057Y-75142856D02*
X131192914Y-75238094D01*
X131192914Y-75238094D02*
X131383390Y-75285713D01*
X131383390Y-75285713D02*
X131764342Y-75285713D01*
X131764342Y-75285713D02*
X131859580Y-75238094D01*
X131859580Y-75238094D02*
X131907200Y-75190475D01*
X131907200Y-75190475D02*
X131954819Y-75095237D01*
X131954819Y-75095237D02*
X131954819Y-74904761D01*
X131954819Y-74904761D02*
X131907200Y-74809523D01*
X131907200Y-74809523D02*
X131859580Y-74761904D01*
X131859580Y-74761904D02*
X131764342Y-74714285D01*
X131764342Y-74714285D02*
X131526247Y-74714285D01*
X131526247Y-74714285D02*
X131431009Y-74761904D01*
X131431009Y-74761904D02*
X131383390Y-74809523D01*
X131383390Y-74809523D02*
X131335771Y-74904761D01*
X131335771Y-74904761D02*
X131335771Y-75095237D01*
X131335771Y-75095237D02*
X131383390Y-75190475D01*
X131383390Y-75190475D02*
X131431009Y-75238094D01*
X131431009Y-75238094D02*
X131526247Y-75285713D01*
X95785714Y-132524819D02*
X95785714Y-131524819D01*
X95785714Y-131524819D02*
X96023809Y-131524819D01*
X96023809Y-131524819D02*
X96166666Y-131572438D01*
X96166666Y-131572438D02*
X96261904Y-131667676D01*
X96261904Y-131667676D02*
X96309523Y-131762914D01*
X96309523Y-131762914D02*
X96357142Y-131953390D01*
X96357142Y-131953390D02*
X96357142Y-132096247D01*
X96357142Y-132096247D02*
X96309523Y-132286723D01*
X96309523Y-132286723D02*
X96261904Y-132381961D01*
X96261904Y-132381961D02*
X96166666Y-132477200D01*
X96166666Y-132477200D02*
X96023809Y-132524819D01*
X96023809Y-132524819D02*
X95785714Y-132524819D01*
X96690476Y-131524819D02*
X97309523Y-131524819D01*
X97309523Y-131524819D02*
X96976190Y-131905771D01*
X96976190Y-131905771D02*
X97119047Y-131905771D01*
X97119047Y-131905771D02*
X97214285Y-131953390D01*
X97214285Y-131953390D02*
X97261904Y-132001009D01*
X97261904Y-132001009D02*
X97309523Y-132096247D01*
X97309523Y-132096247D02*
X97309523Y-132334342D01*
X97309523Y-132334342D02*
X97261904Y-132429580D01*
X97261904Y-132429580D02*
X97214285Y-132477200D01*
X97214285Y-132477200D02*
X97119047Y-132524819D01*
X97119047Y-132524819D02*
X96833333Y-132524819D01*
X96833333Y-132524819D02*
X96738095Y-132477200D01*
X96738095Y-132477200D02*
X96690476Y-132429580D01*
X98166666Y-131858152D02*
X98166666Y-132524819D01*
X97928571Y-131477200D02*
X97690476Y-132191485D01*
X97690476Y-132191485D02*
X98309523Y-132191485D01*
X200384819Y-78714285D02*
X199384819Y-78714285D01*
X199384819Y-78714285D02*
X199384819Y-78476190D01*
X199384819Y-78476190D02*
X199432438Y-78333333D01*
X199432438Y-78333333D02*
X199527676Y-78238095D01*
X199527676Y-78238095D02*
X199622914Y-78190476D01*
X199622914Y-78190476D02*
X199813390Y-78142857D01*
X199813390Y-78142857D02*
X199956247Y-78142857D01*
X199956247Y-78142857D02*
X200146723Y-78190476D01*
X200146723Y-78190476D02*
X200241961Y-78238095D01*
X200241961Y-78238095D02*
X200337200Y-78333333D01*
X200337200Y-78333333D02*
X200384819Y-78476190D01*
X200384819Y-78476190D02*
X200384819Y-78714285D01*
X199718152Y-77285714D02*
X200384819Y-77285714D01*
X199337200Y-77523809D02*
X200051485Y-77761904D01*
X200051485Y-77761904D02*
X200051485Y-77142857D01*
X199384819Y-76571428D02*
X199384819Y-76476190D01*
X199384819Y-76476190D02*
X199432438Y-76380952D01*
X199432438Y-76380952D02*
X199480057Y-76333333D01*
X199480057Y-76333333D02*
X199575295Y-76285714D01*
X199575295Y-76285714D02*
X199765771Y-76238095D01*
X199765771Y-76238095D02*
X200003866Y-76238095D01*
X200003866Y-76238095D02*
X200194342Y-76285714D01*
X200194342Y-76285714D02*
X200289580Y-76333333D01*
X200289580Y-76333333D02*
X200337200Y-76380952D01*
X200337200Y-76380952D02*
X200384819Y-76476190D01*
X200384819Y-76476190D02*
X200384819Y-76571428D01*
X200384819Y-76571428D02*
X200337200Y-76666666D01*
X200337200Y-76666666D02*
X200289580Y-76714285D01*
X200289580Y-76714285D02*
X200194342Y-76761904D01*
X200194342Y-76761904D02*
X200003866Y-76809523D01*
X200003866Y-76809523D02*
X199765771Y-76809523D01*
X199765771Y-76809523D02*
X199575295Y-76761904D01*
X199575295Y-76761904D02*
X199480057Y-76714285D01*
X199480057Y-76714285D02*
X199432438Y-76666666D01*
X199432438Y-76666666D02*
X199384819Y-76571428D01*
X172785714Y-99024819D02*
X172785714Y-98024819D01*
X172785714Y-98024819D02*
X173023809Y-98024819D01*
X173023809Y-98024819D02*
X173166666Y-98072438D01*
X173166666Y-98072438D02*
X173261904Y-98167676D01*
X173261904Y-98167676D02*
X173309523Y-98262914D01*
X173309523Y-98262914D02*
X173357142Y-98453390D01*
X173357142Y-98453390D02*
X173357142Y-98596247D01*
X173357142Y-98596247D02*
X173309523Y-98786723D01*
X173309523Y-98786723D02*
X173261904Y-98881961D01*
X173261904Y-98881961D02*
X173166666Y-98977200D01*
X173166666Y-98977200D02*
X173023809Y-99024819D01*
X173023809Y-99024819D02*
X172785714Y-99024819D01*
X174214285Y-98358152D02*
X174214285Y-99024819D01*
X173976190Y-97977200D02*
X173738095Y-98691485D01*
X173738095Y-98691485D02*
X174357142Y-98691485D01*
X174642857Y-98024819D02*
X175309523Y-98024819D01*
X175309523Y-98024819D02*
X174880952Y-99024819D01*
X138766905Y-76994819D02*
X138766905Y-75994819D01*
X138766905Y-75994819D02*
X139005000Y-75994819D01*
X139005000Y-75994819D02*
X139147857Y-76042438D01*
X139147857Y-76042438D02*
X139243095Y-76137676D01*
X139243095Y-76137676D02*
X139290714Y-76232914D01*
X139290714Y-76232914D02*
X139338333Y-76423390D01*
X139338333Y-76423390D02*
X139338333Y-76566247D01*
X139338333Y-76566247D02*
X139290714Y-76756723D01*
X139290714Y-76756723D02*
X139243095Y-76851961D01*
X139243095Y-76851961D02*
X139147857Y-76947200D01*
X139147857Y-76947200D02*
X139005000Y-76994819D01*
X139005000Y-76994819D02*
X138766905Y-76994819D01*
X140290714Y-76994819D02*
X139719286Y-76994819D01*
X140005000Y-76994819D02*
X140005000Y-75994819D01*
X140005000Y-75994819D02*
X139909762Y-76137676D01*
X139909762Y-76137676D02*
X139814524Y-76232914D01*
X139814524Y-76232914D02*
X139719286Y-76280533D01*
X193384819Y-124714285D02*
X192384819Y-124714285D01*
X192384819Y-124714285D02*
X192384819Y-124476190D01*
X192384819Y-124476190D02*
X192432438Y-124333333D01*
X192432438Y-124333333D02*
X192527676Y-124238095D01*
X192527676Y-124238095D02*
X192622914Y-124190476D01*
X192622914Y-124190476D02*
X192813390Y-124142857D01*
X192813390Y-124142857D02*
X192956247Y-124142857D01*
X192956247Y-124142857D02*
X193146723Y-124190476D01*
X193146723Y-124190476D02*
X193241961Y-124238095D01*
X193241961Y-124238095D02*
X193337200Y-124333333D01*
X193337200Y-124333333D02*
X193384819Y-124476190D01*
X193384819Y-124476190D02*
X193384819Y-124714285D01*
X192384819Y-123238095D02*
X192384819Y-123714285D01*
X192384819Y-123714285D02*
X192861009Y-123761904D01*
X192861009Y-123761904D02*
X192813390Y-123714285D01*
X192813390Y-123714285D02*
X192765771Y-123619047D01*
X192765771Y-123619047D02*
X192765771Y-123380952D01*
X192765771Y-123380952D02*
X192813390Y-123285714D01*
X192813390Y-123285714D02*
X192861009Y-123238095D01*
X192861009Y-123238095D02*
X192956247Y-123190476D01*
X192956247Y-123190476D02*
X193194342Y-123190476D01*
X193194342Y-123190476D02*
X193289580Y-123238095D01*
X193289580Y-123238095D02*
X193337200Y-123285714D01*
X193337200Y-123285714D02*
X193384819Y-123380952D01*
X193384819Y-123380952D02*
X193384819Y-123619047D01*
X193384819Y-123619047D02*
X193337200Y-123714285D01*
X193337200Y-123714285D02*
X193289580Y-123761904D01*
X192384819Y-122333333D02*
X192384819Y-122523809D01*
X192384819Y-122523809D02*
X192432438Y-122619047D01*
X192432438Y-122619047D02*
X192480057Y-122666666D01*
X192480057Y-122666666D02*
X192622914Y-122761904D01*
X192622914Y-122761904D02*
X192813390Y-122809523D01*
X192813390Y-122809523D02*
X193194342Y-122809523D01*
X193194342Y-122809523D02*
X193289580Y-122761904D01*
X193289580Y-122761904D02*
X193337200Y-122714285D01*
X193337200Y-122714285D02*
X193384819Y-122619047D01*
X193384819Y-122619047D02*
X193384819Y-122428571D01*
X193384819Y-122428571D02*
X193337200Y-122333333D01*
X193337200Y-122333333D02*
X193289580Y-122285714D01*
X193289580Y-122285714D02*
X193194342Y-122238095D01*
X193194342Y-122238095D02*
X192956247Y-122238095D01*
X192956247Y-122238095D02*
X192861009Y-122285714D01*
X192861009Y-122285714D02*
X192813390Y-122333333D01*
X192813390Y-122333333D02*
X192765771Y-122428571D01*
X192765771Y-122428571D02*
X192765771Y-122619047D01*
X192765771Y-122619047D02*
X192813390Y-122714285D01*
X192813390Y-122714285D02*
X192861009Y-122761904D01*
X192861009Y-122761904D02*
X192956247Y-122809523D01*
X94261905Y-66024819D02*
X94261905Y-65024819D01*
X94261905Y-65024819D02*
X94500000Y-65024819D01*
X94500000Y-65024819D02*
X94642857Y-65072438D01*
X94642857Y-65072438D02*
X94738095Y-65167676D01*
X94738095Y-65167676D02*
X94785714Y-65262914D01*
X94785714Y-65262914D02*
X94833333Y-65453390D01*
X94833333Y-65453390D02*
X94833333Y-65596247D01*
X94833333Y-65596247D02*
X94785714Y-65786723D01*
X94785714Y-65786723D02*
X94738095Y-65881961D01*
X94738095Y-65881961D02*
X94642857Y-65977200D01*
X94642857Y-65977200D02*
X94500000Y-66024819D01*
X94500000Y-66024819D02*
X94261905Y-66024819D01*
X95309524Y-66024819D02*
X95500000Y-66024819D01*
X95500000Y-66024819D02*
X95595238Y-65977200D01*
X95595238Y-65977200D02*
X95642857Y-65929580D01*
X95642857Y-65929580D02*
X95738095Y-65786723D01*
X95738095Y-65786723D02*
X95785714Y-65596247D01*
X95785714Y-65596247D02*
X95785714Y-65215295D01*
X95785714Y-65215295D02*
X95738095Y-65120057D01*
X95738095Y-65120057D02*
X95690476Y-65072438D01*
X95690476Y-65072438D02*
X95595238Y-65024819D01*
X95595238Y-65024819D02*
X95404762Y-65024819D01*
X95404762Y-65024819D02*
X95309524Y-65072438D01*
X95309524Y-65072438D02*
X95261905Y-65120057D01*
X95261905Y-65120057D02*
X95214286Y-65215295D01*
X95214286Y-65215295D02*
X95214286Y-65453390D01*
X95214286Y-65453390D02*
X95261905Y-65548628D01*
X95261905Y-65548628D02*
X95309524Y-65596247D01*
X95309524Y-65596247D02*
X95404762Y-65643866D01*
X95404762Y-65643866D02*
X95595238Y-65643866D01*
X95595238Y-65643866D02*
X95690476Y-65596247D01*
X95690476Y-65596247D02*
X95738095Y-65548628D01*
X95738095Y-65548628D02*
X95785714Y-65453390D01*
X84285714Y-132524819D02*
X84285714Y-131524819D01*
X84285714Y-131524819D02*
X84523809Y-131524819D01*
X84523809Y-131524819D02*
X84666666Y-131572438D01*
X84666666Y-131572438D02*
X84761904Y-131667676D01*
X84761904Y-131667676D02*
X84809523Y-131762914D01*
X84809523Y-131762914D02*
X84857142Y-131953390D01*
X84857142Y-131953390D02*
X84857142Y-132096247D01*
X84857142Y-132096247D02*
X84809523Y-132286723D01*
X84809523Y-132286723D02*
X84761904Y-132381961D01*
X84761904Y-132381961D02*
X84666666Y-132477200D01*
X84666666Y-132477200D02*
X84523809Y-132524819D01*
X84523809Y-132524819D02*
X84285714Y-132524819D01*
X85190476Y-131524819D02*
X85809523Y-131524819D01*
X85809523Y-131524819D02*
X85476190Y-131905771D01*
X85476190Y-131905771D02*
X85619047Y-131905771D01*
X85619047Y-131905771D02*
X85714285Y-131953390D01*
X85714285Y-131953390D02*
X85761904Y-132001009D01*
X85761904Y-132001009D02*
X85809523Y-132096247D01*
X85809523Y-132096247D02*
X85809523Y-132334342D01*
X85809523Y-132334342D02*
X85761904Y-132429580D01*
X85761904Y-132429580D02*
X85714285Y-132477200D01*
X85714285Y-132477200D02*
X85619047Y-132524819D01*
X85619047Y-132524819D02*
X85333333Y-132524819D01*
X85333333Y-132524819D02*
X85238095Y-132477200D01*
X85238095Y-132477200D02*
X85190476Y-132429580D01*
X86142857Y-131524819D02*
X86761904Y-131524819D01*
X86761904Y-131524819D02*
X86428571Y-131905771D01*
X86428571Y-131905771D02*
X86571428Y-131905771D01*
X86571428Y-131905771D02*
X86666666Y-131953390D01*
X86666666Y-131953390D02*
X86714285Y-132001009D01*
X86714285Y-132001009D02*
X86761904Y-132096247D01*
X86761904Y-132096247D02*
X86761904Y-132334342D01*
X86761904Y-132334342D02*
X86714285Y-132429580D01*
X86714285Y-132429580D02*
X86666666Y-132477200D01*
X86666666Y-132477200D02*
X86571428Y-132524819D01*
X86571428Y-132524819D02*
X86285714Y-132524819D01*
X86285714Y-132524819D02*
X86190476Y-132477200D01*
X86190476Y-132477200D02*
X86142857Y-132429580D01*
X142954819Y-87666666D02*
X142478628Y-87999999D01*
X142954819Y-88238094D02*
X141954819Y-88238094D01*
X141954819Y-88238094D02*
X141954819Y-87857142D01*
X141954819Y-87857142D02*
X142002438Y-87761904D01*
X142002438Y-87761904D02*
X142050057Y-87714285D01*
X142050057Y-87714285D02*
X142145295Y-87666666D01*
X142145295Y-87666666D02*
X142288152Y-87666666D01*
X142288152Y-87666666D02*
X142383390Y-87714285D01*
X142383390Y-87714285D02*
X142431009Y-87761904D01*
X142431009Y-87761904D02*
X142478628Y-87857142D01*
X142478628Y-87857142D02*
X142478628Y-88238094D01*
X142954819Y-87190475D02*
X142954819Y-86999999D01*
X142954819Y-86999999D02*
X142907200Y-86904761D01*
X142907200Y-86904761D02*
X142859580Y-86857142D01*
X142859580Y-86857142D02*
X142716723Y-86761904D01*
X142716723Y-86761904D02*
X142526247Y-86714285D01*
X142526247Y-86714285D02*
X142145295Y-86714285D01*
X142145295Y-86714285D02*
X142050057Y-86761904D01*
X142050057Y-86761904D02*
X142002438Y-86809523D01*
X142002438Y-86809523D02*
X141954819Y-86904761D01*
X141954819Y-86904761D02*
X141954819Y-87095237D01*
X141954819Y-87095237D02*
X142002438Y-87190475D01*
X142002438Y-87190475D02*
X142050057Y-87238094D01*
X142050057Y-87238094D02*
X142145295Y-87285713D01*
X142145295Y-87285713D02*
X142383390Y-87285713D01*
X142383390Y-87285713D02*
X142478628Y-87238094D01*
X142478628Y-87238094D02*
X142526247Y-87190475D01*
X142526247Y-87190475D02*
X142573866Y-87095237D01*
X142573866Y-87095237D02*
X142573866Y-86904761D01*
X142573866Y-86904761D02*
X142526247Y-86809523D01*
X142526247Y-86809523D02*
X142478628Y-86761904D01*
X142478628Y-86761904D02*
X142383390Y-86714285D01*
X80884819Y-113214285D02*
X79884819Y-113214285D01*
X79884819Y-113214285D02*
X79884819Y-112976190D01*
X79884819Y-112976190D02*
X79932438Y-112833333D01*
X79932438Y-112833333D02*
X80027676Y-112738095D01*
X80027676Y-112738095D02*
X80122914Y-112690476D01*
X80122914Y-112690476D02*
X80313390Y-112642857D01*
X80313390Y-112642857D02*
X80456247Y-112642857D01*
X80456247Y-112642857D02*
X80646723Y-112690476D01*
X80646723Y-112690476D02*
X80741961Y-112738095D01*
X80741961Y-112738095D02*
X80837200Y-112833333D01*
X80837200Y-112833333D02*
X80884819Y-112976190D01*
X80884819Y-112976190D02*
X80884819Y-113214285D01*
X79980057Y-112261904D02*
X79932438Y-112214285D01*
X79932438Y-112214285D02*
X79884819Y-112119047D01*
X79884819Y-112119047D02*
X79884819Y-111880952D01*
X79884819Y-111880952D02*
X79932438Y-111785714D01*
X79932438Y-111785714D02*
X79980057Y-111738095D01*
X79980057Y-111738095D02*
X80075295Y-111690476D01*
X80075295Y-111690476D02*
X80170533Y-111690476D01*
X80170533Y-111690476D02*
X80313390Y-111738095D01*
X80313390Y-111738095D02*
X80884819Y-112309523D01*
X80884819Y-112309523D02*
X80884819Y-111690476D01*
X79884819Y-110785714D02*
X79884819Y-111261904D01*
X79884819Y-111261904D02*
X80361009Y-111309523D01*
X80361009Y-111309523D02*
X80313390Y-111261904D01*
X80313390Y-111261904D02*
X80265771Y-111166666D01*
X80265771Y-111166666D02*
X80265771Y-110928571D01*
X80265771Y-110928571D02*
X80313390Y-110833333D01*
X80313390Y-110833333D02*
X80361009Y-110785714D01*
X80361009Y-110785714D02*
X80456247Y-110738095D01*
X80456247Y-110738095D02*
X80694342Y-110738095D01*
X80694342Y-110738095D02*
X80789580Y-110785714D01*
X80789580Y-110785714D02*
X80837200Y-110833333D01*
X80837200Y-110833333D02*
X80884819Y-110928571D01*
X80884819Y-110928571D02*
X80884819Y-111166666D01*
X80884819Y-111166666D02*
X80837200Y-111261904D01*
X80837200Y-111261904D02*
X80789580Y-111309523D01*
X36785714Y-132524819D02*
X36785714Y-131524819D01*
X36785714Y-131524819D02*
X37023809Y-131524819D01*
X37023809Y-131524819D02*
X37166666Y-131572438D01*
X37166666Y-131572438D02*
X37261904Y-131667676D01*
X37261904Y-131667676D02*
X37309523Y-131762914D01*
X37309523Y-131762914D02*
X37357142Y-131953390D01*
X37357142Y-131953390D02*
X37357142Y-132096247D01*
X37357142Y-132096247D02*
X37309523Y-132286723D01*
X37309523Y-132286723D02*
X37261904Y-132381961D01*
X37261904Y-132381961D02*
X37166666Y-132477200D01*
X37166666Y-132477200D02*
X37023809Y-132524819D01*
X37023809Y-132524819D02*
X36785714Y-132524819D01*
X37690476Y-131524819D02*
X38309523Y-131524819D01*
X38309523Y-131524819D02*
X37976190Y-131905771D01*
X37976190Y-131905771D02*
X38119047Y-131905771D01*
X38119047Y-131905771D02*
X38214285Y-131953390D01*
X38214285Y-131953390D02*
X38261904Y-132001009D01*
X38261904Y-132001009D02*
X38309523Y-132096247D01*
X38309523Y-132096247D02*
X38309523Y-132334342D01*
X38309523Y-132334342D02*
X38261904Y-132429580D01*
X38261904Y-132429580D02*
X38214285Y-132477200D01*
X38214285Y-132477200D02*
X38119047Y-132524819D01*
X38119047Y-132524819D02*
X37833333Y-132524819D01*
X37833333Y-132524819D02*
X37738095Y-132477200D01*
X37738095Y-132477200D02*
X37690476Y-132429580D01*
X39261904Y-132524819D02*
X38690476Y-132524819D01*
X38976190Y-132524819D02*
X38976190Y-131524819D01*
X38976190Y-131524819D02*
X38880952Y-131667676D01*
X38880952Y-131667676D02*
X38785714Y-131762914D01*
X38785714Y-131762914D02*
X38690476Y-131810533D01*
X227535714Y-132524819D02*
X227535714Y-131524819D01*
X227535714Y-131524819D02*
X227773809Y-131524819D01*
X227773809Y-131524819D02*
X227916666Y-131572438D01*
X227916666Y-131572438D02*
X228011904Y-131667676D01*
X228011904Y-131667676D02*
X228059523Y-131762914D01*
X228059523Y-131762914D02*
X228107142Y-131953390D01*
X228107142Y-131953390D02*
X228107142Y-132096247D01*
X228107142Y-132096247D02*
X228059523Y-132286723D01*
X228059523Y-132286723D02*
X228011904Y-132381961D01*
X228011904Y-132381961D02*
X227916666Y-132477200D01*
X227916666Y-132477200D02*
X227773809Y-132524819D01*
X227773809Y-132524819D02*
X227535714Y-132524819D01*
X228964285Y-131524819D02*
X228773809Y-131524819D01*
X228773809Y-131524819D02*
X228678571Y-131572438D01*
X228678571Y-131572438D02*
X228630952Y-131620057D01*
X228630952Y-131620057D02*
X228535714Y-131762914D01*
X228535714Y-131762914D02*
X228488095Y-131953390D01*
X228488095Y-131953390D02*
X228488095Y-132334342D01*
X228488095Y-132334342D02*
X228535714Y-132429580D01*
X228535714Y-132429580D02*
X228583333Y-132477200D01*
X228583333Y-132477200D02*
X228678571Y-132524819D01*
X228678571Y-132524819D02*
X228869047Y-132524819D01*
X228869047Y-132524819D02*
X228964285Y-132477200D01*
X228964285Y-132477200D02*
X229011904Y-132429580D01*
X229011904Y-132429580D02*
X229059523Y-132334342D01*
X229059523Y-132334342D02*
X229059523Y-132096247D01*
X229059523Y-132096247D02*
X229011904Y-132001009D01*
X229011904Y-132001009D02*
X228964285Y-131953390D01*
X228964285Y-131953390D02*
X228869047Y-131905771D01*
X228869047Y-131905771D02*
X228678571Y-131905771D01*
X228678571Y-131905771D02*
X228583333Y-131953390D01*
X228583333Y-131953390D02*
X228535714Y-132001009D01*
X228535714Y-132001009D02*
X228488095Y-132096247D01*
X229440476Y-131620057D02*
X229488095Y-131572438D01*
X229488095Y-131572438D02*
X229583333Y-131524819D01*
X229583333Y-131524819D02*
X229821428Y-131524819D01*
X229821428Y-131524819D02*
X229916666Y-131572438D01*
X229916666Y-131572438D02*
X229964285Y-131620057D01*
X229964285Y-131620057D02*
X230011904Y-131715295D01*
X230011904Y-131715295D02*
X230011904Y-131810533D01*
X230011904Y-131810533D02*
X229964285Y-131953390D01*
X229964285Y-131953390D02*
X229392857Y-132524819D01*
X229392857Y-132524819D02*
X230011904Y-132524819D01*
X144954819Y-88142857D02*
X144478628Y-88476190D01*
X144954819Y-88714285D02*
X143954819Y-88714285D01*
X143954819Y-88714285D02*
X143954819Y-88333333D01*
X143954819Y-88333333D02*
X144002438Y-88238095D01*
X144002438Y-88238095D02*
X144050057Y-88190476D01*
X144050057Y-88190476D02*
X144145295Y-88142857D01*
X144145295Y-88142857D02*
X144288152Y-88142857D01*
X144288152Y-88142857D02*
X144383390Y-88190476D01*
X144383390Y-88190476D02*
X144431009Y-88238095D01*
X144431009Y-88238095D02*
X144478628Y-88333333D01*
X144478628Y-88333333D02*
X144478628Y-88714285D01*
X144954819Y-87190476D02*
X144954819Y-87761904D01*
X144954819Y-87476190D02*
X143954819Y-87476190D01*
X143954819Y-87476190D02*
X144097676Y-87571428D01*
X144097676Y-87571428D02*
X144192914Y-87666666D01*
X144192914Y-87666666D02*
X144240533Y-87761904D01*
X143954819Y-86285714D02*
X143954819Y-86761904D01*
X143954819Y-86761904D02*
X144431009Y-86809523D01*
X144431009Y-86809523D02*
X144383390Y-86761904D01*
X144383390Y-86761904D02*
X144335771Y-86666666D01*
X144335771Y-86666666D02*
X144335771Y-86428571D01*
X144335771Y-86428571D02*
X144383390Y-86333333D01*
X144383390Y-86333333D02*
X144431009Y-86285714D01*
X144431009Y-86285714D02*
X144526247Y-86238095D01*
X144526247Y-86238095D02*
X144764342Y-86238095D01*
X144764342Y-86238095D02*
X144859580Y-86285714D01*
X144859580Y-86285714D02*
X144907200Y-86333333D01*
X144907200Y-86333333D02*
X144954819Y-86428571D01*
X144954819Y-86428571D02*
X144954819Y-86666666D01*
X144954819Y-86666666D02*
X144907200Y-86761904D01*
X144907200Y-86761904D02*
X144859580Y-86809523D01*
X232285714Y-99024819D02*
X232285714Y-98024819D01*
X232285714Y-98024819D02*
X232523809Y-98024819D01*
X232523809Y-98024819D02*
X232666666Y-98072438D01*
X232666666Y-98072438D02*
X232761904Y-98167676D01*
X232761904Y-98167676D02*
X232809523Y-98262914D01*
X232809523Y-98262914D02*
X232857142Y-98453390D01*
X232857142Y-98453390D02*
X232857142Y-98596247D01*
X232857142Y-98596247D02*
X232809523Y-98786723D01*
X232809523Y-98786723D02*
X232761904Y-98881961D01*
X232761904Y-98881961D02*
X232666666Y-98977200D01*
X232666666Y-98977200D02*
X232523809Y-99024819D01*
X232523809Y-99024819D02*
X232285714Y-99024819D01*
X233761904Y-98024819D02*
X233285714Y-98024819D01*
X233285714Y-98024819D02*
X233238095Y-98501009D01*
X233238095Y-98501009D02*
X233285714Y-98453390D01*
X233285714Y-98453390D02*
X233380952Y-98405771D01*
X233380952Y-98405771D02*
X233619047Y-98405771D01*
X233619047Y-98405771D02*
X233714285Y-98453390D01*
X233714285Y-98453390D02*
X233761904Y-98501009D01*
X233761904Y-98501009D02*
X233809523Y-98596247D01*
X233809523Y-98596247D02*
X233809523Y-98834342D01*
X233809523Y-98834342D02*
X233761904Y-98929580D01*
X233761904Y-98929580D02*
X233714285Y-98977200D01*
X233714285Y-98977200D02*
X233619047Y-99024819D01*
X233619047Y-99024819D02*
X233380952Y-99024819D01*
X233380952Y-99024819D02*
X233285714Y-98977200D01*
X233285714Y-98977200D02*
X233238095Y-98929580D01*
X234428571Y-98024819D02*
X234523809Y-98024819D01*
X234523809Y-98024819D02*
X234619047Y-98072438D01*
X234619047Y-98072438D02*
X234666666Y-98120057D01*
X234666666Y-98120057D02*
X234714285Y-98215295D01*
X234714285Y-98215295D02*
X234761904Y-98405771D01*
X234761904Y-98405771D02*
X234761904Y-98643866D01*
X234761904Y-98643866D02*
X234714285Y-98834342D01*
X234714285Y-98834342D02*
X234666666Y-98929580D01*
X234666666Y-98929580D02*
X234619047Y-98977200D01*
X234619047Y-98977200D02*
X234523809Y-99024819D01*
X234523809Y-99024819D02*
X234428571Y-99024819D01*
X234428571Y-99024819D02*
X234333333Y-98977200D01*
X234333333Y-98977200D02*
X234285714Y-98929580D01*
X234285714Y-98929580D02*
X234238095Y-98834342D01*
X234238095Y-98834342D02*
X234190476Y-98643866D01*
X234190476Y-98643866D02*
X234190476Y-98405771D01*
X234190476Y-98405771D02*
X234238095Y-98215295D01*
X234238095Y-98215295D02*
X234285714Y-98120057D01*
X234285714Y-98120057D02*
X234333333Y-98072438D01*
X234333333Y-98072438D02*
X234428571Y-98024819D01*
X215884819Y-90714285D02*
X214884819Y-90714285D01*
X214884819Y-90714285D02*
X214884819Y-90476190D01*
X214884819Y-90476190D02*
X214932438Y-90333333D01*
X214932438Y-90333333D02*
X215027676Y-90238095D01*
X215027676Y-90238095D02*
X215122914Y-90190476D01*
X215122914Y-90190476D02*
X215313390Y-90142857D01*
X215313390Y-90142857D02*
X215456247Y-90142857D01*
X215456247Y-90142857D02*
X215646723Y-90190476D01*
X215646723Y-90190476D02*
X215741961Y-90238095D01*
X215741961Y-90238095D02*
X215837200Y-90333333D01*
X215837200Y-90333333D02*
X215884819Y-90476190D01*
X215884819Y-90476190D02*
X215884819Y-90714285D01*
X215218152Y-89285714D02*
X215884819Y-89285714D01*
X214837200Y-89523809D02*
X215551485Y-89761904D01*
X215551485Y-89761904D02*
X215551485Y-89142857D01*
X214884819Y-88285714D02*
X214884819Y-88761904D01*
X214884819Y-88761904D02*
X215361009Y-88809523D01*
X215361009Y-88809523D02*
X215313390Y-88761904D01*
X215313390Y-88761904D02*
X215265771Y-88666666D01*
X215265771Y-88666666D02*
X215265771Y-88428571D01*
X215265771Y-88428571D02*
X215313390Y-88333333D01*
X215313390Y-88333333D02*
X215361009Y-88285714D01*
X215361009Y-88285714D02*
X215456247Y-88238095D01*
X215456247Y-88238095D02*
X215694342Y-88238095D01*
X215694342Y-88238095D02*
X215789580Y-88285714D01*
X215789580Y-88285714D02*
X215837200Y-88333333D01*
X215837200Y-88333333D02*
X215884819Y-88428571D01*
X215884819Y-88428571D02*
X215884819Y-88666666D01*
X215884819Y-88666666D02*
X215837200Y-88761904D01*
X215837200Y-88761904D02*
X215789580Y-88809523D01*
X124604819Y-108142857D02*
X124128628Y-108476190D01*
X124604819Y-108714285D02*
X123604819Y-108714285D01*
X123604819Y-108714285D02*
X123604819Y-108333333D01*
X123604819Y-108333333D02*
X123652438Y-108238095D01*
X123652438Y-108238095D02*
X123700057Y-108190476D01*
X123700057Y-108190476D02*
X123795295Y-108142857D01*
X123795295Y-108142857D02*
X123938152Y-108142857D01*
X123938152Y-108142857D02*
X124033390Y-108190476D01*
X124033390Y-108190476D02*
X124081009Y-108238095D01*
X124081009Y-108238095D02*
X124128628Y-108333333D01*
X124128628Y-108333333D02*
X124128628Y-108714285D01*
X124604819Y-107190476D02*
X124604819Y-107761904D01*
X124604819Y-107476190D02*
X123604819Y-107476190D01*
X123604819Y-107476190D02*
X123747676Y-107571428D01*
X123747676Y-107571428D02*
X123842914Y-107666666D01*
X123842914Y-107666666D02*
X123890533Y-107761904D01*
X124604819Y-106238095D02*
X124604819Y-106809523D01*
X124604819Y-106523809D02*
X123604819Y-106523809D01*
X123604819Y-106523809D02*
X123747676Y-106619047D01*
X123747676Y-106619047D02*
X123842914Y-106714285D01*
X123842914Y-106714285D02*
X123890533Y-106809523D01*
X133857142Y-87454819D02*
X133523809Y-86978628D01*
X133285714Y-87454819D02*
X133285714Y-86454819D01*
X133285714Y-86454819D02*
X133666666Y-86454819D01*
X133666666Y-86454819D02*
X133761904Y-86502438D01*
X133761904Y-86502438D02*
X133809523Y-86550057D01*
X133809523Y-86550057D02*
X133857142Y-86645295D01*
X133857142Y-86645295D02*
X133857142Y-86788152D01*
X133857142Y-86788152D02*
X133809523Y-86883390D01*
X133809523Y-86883390D02*
X133761904Y-86931009D01*
X133761904Y-86931009D02*
X133666666Y-86978628D01*
X133666666Y-86978628D02*
X133285714Y-86978628D01*
X134809523Y-87454819D02*
X134238095Y-87454819D01*
X134523809Y-87454819D02*
X134523809Y-86454819D01*
X134523809Y-86454819D02*
X134428571Y-86597676D01*
X134428571Y-86597676D02*
X134333333Y-86692914D01*
X134333333Y-86692914D02*
X134238095Y-86740533D01*
X135142857Y-86454819D02*
X135761904Y-86454819D01*
X135761904Y-86454819D02*
X135428571Y-86835771D01*
X135428571Y-86835771D02*
X135571428Y-86835771D01*
X135571428Y-86835771D02*
X135666666Y-86883390D01*
X135666666Y-86883390D02*
X135714285Y-86931009D01*
X135714285Y-86931009D02*
X135761904Y-87026247D01*
X135761904Y-87026247D02*
X135761904Y-87264342D01*
X135761904Y-87264342D02*
X135714285Y-87359580D01*
X135714285Y-87359580D02*
X135666666Y-87407200D01*
X135666666Y-87407200D02*
X135571428Y-87454819D01*
X135571428Y-87454819D02*
X135285714Y-87454819D01*
X135285714Y-87454819D02*
X135190476Y-87407200D01*
X135190476Y-87407200D02*
X135142857Y-87359580D01*
X130914819Y-103786904D02*
X131724342Y-103786904D01*
X131724342Y-103786904D02*
X131819580Y-103739285D01*
X131819580Y-103739285D02*
X131867200Y-103691666D01*
X131867200Y-103691666D02*
X131914819Y-103596428D01*
X131914819Y-103596428D02*
X131914819Y-103405952D01*
X131914819Y-103405952D02*
X131867200Y-103310714D01*
X131867200Y-103310714D02*
X131819580Y-103263095D01*
X131819580Y-103263095D02*
X131724342Y-103215476D01*
X131724342Y-103215476D02*
X130914819Y-103215476D01*
X131248152Y-102310714D02*
X131914819Y-102310714D01*
X130867200Y-102548809D02*
X131581485Y-102786904D01*
X131581485Y-102786904D02*
X131581485Y-102167857D01*
X164884819Y-113214285D02*
X163884819Y-113214285D01*
X163884819Y-113214285D02*
X163884819Y-112976190D01*
X163884819Y-112976190D02*
X163932438Y-112833333D01*
X163932438Y-112833333D02*
X164027676Y-112738095D01*
X164027676Y-112738095D02*
X164122914Y-112690476D01*
X164122914Y-112690476D02*
X164313390Y-112642857D01*
X164313390Y-112642857D02*
X164456247Y-112642857D01*
X164456247Y-112642857D02*
X164646723Y-112690476D01*
X164646723Y-112690476D02*
X164741961Y-112738095D01*
X164741961Y-112738095D02*
X164837200Y-112833333D01*
X164837200Y-112833333D02*
X164884819Y-112976190D01*
X164884819Y-112976190D02*
X164884819Y-113214285D01*
X163884819Y-111738095D02*
X163884819Y-112214285D01*
X163884819Y-112214285D02*
X164361009Y-112261904D01*
X164361009Y-112261904D02*
X164313390Y-112214285D01*
X164313390Y-112214285D02*
X164265771Y-112119047D01*
X164265771Y-112119047D02*
X164265771Y-111880952D01*
X164265771Y-111880952D02*
X164313390Y-111785714D01*
X164313390Y-111785714D02*
X164361009Y-111738095D01*
X164361009Y-111738095D02*
X164456247Y-111690476D01*
X164456247Y-111690476D02*
X164694342Y-111690476D01*
X164694342Y-111690476D02*
X164789580Y-111738095D01*
X164789580Y-111738095D02*
X164837200Y-111785714D01*
X164837200Y-111785714D02*
X164884819Y-111880952D01*
X164884819Y-111880952D02*
X164884819Y-112119047D01*
X164884819Y-112119047D02*
X164837200Y-112214285D01*
X164837200Y-112214285D02*
X164789580Y-112261904D01*
X164884819Y-110738095D02*
X164884819Y-111309523D01*
X164884819Y-111023809D02*
X163884819Y-111023809D01*
X163884819Y-111023809D02*
X164027676Y-111119047D01*
X164027676Y-111119047D02*
X164122914Y-111214285D01*
X164122914Y-111214285D02*
X164170533Y-111309523D01*
X110384819Y-124714285D02*
X109384819Y-124714285D01*
X109384819Y-124714285D02*
X109384819Y-124476190D01*
X109384819Y-124476190D02*
X109432438Y-124333333D01*
X109432438Y-124333333D02*
X109527676Y-124238095D01*
X109527676Y-124238095D02*
X109622914Y-124190476D01*
X109622914Y-124190476D02*
X109813390Y-124142857D01*
X109813390Y-124142857D02*
X109956247Y-124142857D01*
X109956247Y-124142857D02*
X110146723Y-124190476D01*
X110146723Y-124190476D02*
X110241961Y-124238095D01*
X110241961Y-124238095D02*
X110337200Y-124333333D01*
X110337200Y-124333333D02*
X110384819Y-124476190D01*
X110384819Y-124476190D02*
X110384819Y-124714285D01*
X109384819Y-123809523D02*
X109384819Y-123190476D01*
X109384819Y-123190476D02*
X109765771Y-123523809D01*
X109765771Y-123523809D02*
X109765771Y-123380952D01*
X109765771Y-123380952D02*
X109813390Y-123285714D01*
X109813390Y-123285714D02*
X109861009Y-123238095D01*
X109861009Y-123238095D02*
X109956247Y-123190476D01*
X109956247Y-123190476D02*
X110194342Y-123190476D01*
X110194342Y-123190476D02*
X110289580Y-123238095D01*
X110289580Y-123238095D02*
X110337200Y-123285714D01*
X110337200Y-123285714D02*
X110384819Y-123380952D01*
X110384819Y-123380952D02*
X110384819Y-123666666D01*
X110384819Y-123666666D02*
X110337200Y-123761904D01*
X110337200Y-123761904D02*
X110289580Y-123809523D01*
X109384819Y-122571428D02*
X109384819Y-122476190D01*
X109384819Y-122476190D02*
X109432438Y-122380952D01*
X109432438Y-122380952D02*
X109480057Y-122333333D01*
X109480057Y-122333333D02*
X109575295Y-122285714D01*
X109575295Y-122285714D02*
X109765771Y-122238095D01*
X109765771Y-122238095D02*
X110003866Y-122238095D01*
X110003866Y-122238095D02*
X110194342Y-122285714D01*
X110194342Y-122285714D02*
X110289580Y-122333333D01*
X110289580Y-122333333D02*
X110337200Y-122380952D01*
X110337200Y-122380952D02*
X110384819Y-122476190D01*
X110384819Y-122476190D02*
X110384819Y-122571428D01*
X110384819Y-122571428D02*
X110337200Y-122666666D01*
X110337200Y-122666666D02*
X110289580Y-122714285D01*
X110289580Y-122714285D02*
X110194342Y-122761904D01*
X110194342Y-122761904D02*
X110003866Y-122809523D01*
X110003866Y-122809523D02*
X109765771Y-122809523D01*
X109765771Y-122809523D02*
X109575295Y-122761904D01*
X109575295Y-122761904D02*
X109480057Y-122714285D01*
X109480057Y-122714285D02*
X109432438Y-122666666D01*
X109432438Y-122666666D02*
X109384819Y-122571428D01*
X216285714Y-132524819D02*
X216285714Y-131524819D01*
X216285714Y-131524819D02*
X216523809Y-131524819D01*
X216523809Y-131524819D02*
X216666666Y-131572438D01*
X216666666Y-131572438D02*
X216761904Y-131667676D01*
X216761904Y-131667676D02*
X216809523Y-131762914D01*
X216809523Y-131762914D02*
X216857142Y-131953390D01*
X216857142Y-131953390D02*
X216857142Y-132096247D01*
X216857142Y-132096247D02*
X216809523Y-132286723D01*
X216809523Y-132286723D02*
X216761904Y-132381961D01*
X216761904Y-132381961D02*
X216666666Y-132477200D01*
X216666666Y-132477200D02*
X216523809Y-132524819D01*
X216523809Y-132524819D02*
X216285714Y-132524819D01*
X217714285Y-131524819D02*
X217523809Y-131524819D01*
X217523809Y-131524819D02*
X217428571Y-131572438D01*
X217428571Y-131572438D02*
X217380952Y-131620057D01*
X217380952Y-131620057D02*
X217285714Y-131762914D01*
X217285714Y-131762914D02*
X217238095Y-131953390D01*
X217238095Y-131953390D02*
X217238095Y-132334342D01*
X217238095Y-132334342D02*
X217285714Y-132429580D01*
X217285714Y-132429580D02*
X217333333Y-132477200D01*
X217333333Y-132477200D02*
X217428571Y-132524819D01*
X217428571Y-132524819D02*
X217619047Y-132524819D01*
X217619047Y-132524819D02*
X217714285Y-132477200D01*
X217714285Y-132477200D02*
X217761904Y-132429580D01*
X217761904Y-132429580D02*
X217809523Y-132334342D01*
X217809523Y-132334342D02*
X217809523Y-132096247D01*
X217809523Y-132096247D02*
X217761904Y-132001009D01*
X217761904Y-132001009D02*
X217714285Y-131953390D01*
X217714285Y-131953390D02*
X217619047Y-131905771D01*
X217619047Y-131905771D02*
X217428571Y-131905771D01*
X217428571Y-131905771D02*
X217333333Y-131953390D01*
X217333333Y-131953390D02*
X217285714Y-132001009D01*
X217285714Y-132001009D02*
X217238095Y-132096247D01*
X218761904Y-132524819D02*
X218190476Y-132524819D01*
X218476190Y-132524819D02*
X218476190Y-131524819D01*
X218476190Y-131524819D02*
X218380952Y-131667676D01*
X218380952Y-131667676D02*
X218285714Y-131762914D01*
X218285714Y-131762914D02*
X218190476Y-131810533D01*
X225785714Y-66024819D02*
X225785714Y-65024819D01*
X225785714Y-65024819D02*
X226023809Y-65024819D01*
X226023809Y-65024819D02*
X226166666Y-65072438D01*
X226166666Y-65072438D02*
X226261904Y-65167676D01*
X226261904Y-65167676D02*
X226309523Y-65262914D01*
X226309523Y-65262914D02*
X226357142Y-65453390D01*
X226357142Y-65453390D02*
X226357142Y-65596247D01*
X226357142Y-65596247D02*
X226309523Y-65786723D01*
X226309523Y-65786723D02*
X226261904Y-65881961D01*
X226261904Y-65881961D02*
X226166666Y-65977200D01*
X226166666Y-65977200D02*
X226023809Y-66024819D01*
X226023809Y-66024819D02*
X225785714Y-66024819D01*
X226690476Y-65024819D02*
X227309523Y-65024819D01*
X227309523Y-65024819D02*
X226976190Y-65405771D01*
X226976190Y-65405771D02*
X227119047Y-65405771D01*
X227119047Y-65405771D02*
X227214285Y-65453390D01*
X227214285Y-65453390D02*
X227261904Y-65501009D01*
X227261904Y-65501009D02*
X227309523Y-65596247D01*
X227309523Y-65596247D02*
X227309523Y-65834342D01*
X227309523Y-65834342D02*
X227261904Y-65929580D01*
X227261904Y-65929580D02*
X227214285Y-65977200D01*
X227214285Y-65977200D02*
X227119047Y-66024819D01*
X227119047Y-66024819D02*
X226833333Y-66024819D01*
X226833333Y-66024819D02*
X226738095Y-65977200D01*
X226738095Y-65977200D02*
X226690476Y-65929580D01*
X227642857Y-65024819D02*
X228309523Y-65024819D01*
X228309523Y-65024819D02*
X227880952Y-66024819D01*
X140357142Y-114454819D02*
X140023809Y-113978628D01*
X139785714Y-114454819D02*
X139785714Y-113454819D01*
X139785714Y-113454819D02*
X140166666Y-113454819D01*
X140166666Y-113454819D02*
X140261904Y-113502438D01*
X140261904Y-113502438D02*
X140309523Y-113550057D01*
X140309523Y-113550057D02*
X140357142Y-113645295D01*
X140357142Y-113645295D02*
X140357142Y-113788152D01*
X140357142Y-113788152D02*
X140309523Y-113883390D01*
X140309523Y-113883390D02*
X140261904Y-113931009D01*
X140261904Y-113931009D02*
X140166666Y-113978628D01*
X140166666Y-113978628D02*
X139785714Y-113978628D01*
X141309523Y-114454819D02*
X140738095Y-114454819D01*
X141023809Y-114454819D02*
X141023809Y-113454819D01*
X141023809Y-113454819D02*
X140928571Y-113597676D01*
X140928571Y-113597676D02*
X140833333Y-113692914D01*
X140833333Y-113692914D02*
X140738095Y-113740533D01*
X141928571Y-113454819D02*
X142023809Y-113454819D01*
X142023809Y-113454819D02*
X142119047Y-113502438D01*
X142119047Y-113502438D02*
X142166666Y-113550057D01*
X142166666Y-113550057D02*
X142214285Y-113645295D01*
X142214285Y-113645295D02*
X142261904Y-113835771D01*
X142261904Y-113835771D02*
X142261904Y-114073866D01*
X142261904Y-114073866D02*
X142214285Y-114264342D01*
X142214285Y-114264342D02*
X142166666Y-114359580D01*
X142166666Y-114359580D02*
X142119047Y-114407200D01*
X142119047Y-114407200D02*
X142023809Y-114454819D01*
X142023809Y-114454819D02*
X141928571Y-114454819D01*
X141928571Y-114454819D02*
X141833333Y-114407200D01*
X141833333Y-114407200D02*
X141785714Y-114359580D01*
X141785714Y-114359580D02*
X141738095Y-114264342D01*
X141738095Y-114264342D02*
X141690476Y-114073866D01*
X141690476Y-114073866D02*
X141690476Y-113835771D01*
X141690476Y-113835771D02*
X141738095Y-113645295D01*
X141738095Y-113645295D02*
X141785714Y-113550057D01*
X141785714Y-113550057D02*
X141833333Y-113502438D01*
X141833333Y-113502438D02*
X141928571Y-113454819D01*
X210634819Y-124214285D02*
X209634819Y-124214285D01*
X209634819Y-124214285D02*
X209634819Y-123976190D01*
X209634819Y-123976190D02*
X209682438Y-123833333D01*
X209682438Y-123833333D02*
X209777676Y-123738095D01*
X209777676Y-123738095D02*
X209872914Y-123690476D01*
X209872914Y-123690476D02*
X210063390Y-123642857D01*
X210063390Y-123642857D02*
X210206247Y-123642857D01*
X210206247Y-123642857D02*
X210396723Y-123690476D01*
X210396723Y-123690476D02*
X210491961Y-123738095D01*
X210491961Y-123738095D02*
X210587200Y-123833333D01*
X210587200Y-123833333D02*
X210634819Y-123976190D01*
X210634819Y-123976190D02*
X210634819Y-124214285D01*
X209634819Y-122738095D02*
X209634819Y-123214285D01*
X209634819Y-123214285D02*
X210111009Y-123261904D01*
X210111009Y-123261904D02*
X210063390Y-123214285D01*
X210063390Y-123214285D02*
X210015771Y-123119047D01*
X210015771Y-123119047D02*
X210015771Y-122880952D01*
X210015771Y-122880952D02*
X210063390Y-122785714D01*
X210063390Y-122785714D02*
X210111009Y-122738095D01*
X210111009Y-122738095D02*
X210206247Y-122690476D01*
X210206247Y-122690476D02*
X210444342Y-122690476D01*
X210444342Y-122690476D02*
X210539580Y-122738095D01*
X210539580Y-122738095D02*
X210587200Y-122785714D01*
X210587200Y-122785714D02*
X210634819Y-122880952D01*
X210634819Y-122880952D02*
X210634819Y-123119047D01*
X210634819Y-123119047D02*
X210587200Y-123214285D01*
X210587200Y-123214285D02*
X210539580Y-123261904D01*
X209634819Y-122357142D02*
X209634819Y-121690476D01*
X209634819Y-121690476D02*
X210634819Y-122119047D01*
X127289580Y-105416666D02*
X127337200Y-105464285D01*
X127337200Y-105464285D02*
X127384819Y-105607142D01*
X127384819Y-105607142D02*
X127384819Y-105702380D01*
X127384819Y-105702380D02*
X127337200Y-105845237D01*
X127337200Y-105845237D02*
X127241961Y-105940475D01*
X127241961Y-105940475D02*
X127146723Y-105988094D01*
X127146723Y-105988094D02*
X126956247Y-106035713D01*
X126956247Y-106035713D02*
X126813390Y-106035713D01*
X126813390Y-106035713D02*
X126622914Y-105988094D01*
X126622914Y-105988094D02*
X126527676Y-105940475D01*
X126527676Y-105940475D02*
X126432438Y-105845237D01*
X126432438Y-105845237D02*
X126384819Y-105702380D01*
X126384819Y-105702380D02*
X126384819Y-105607142D01*
X126384819Y-105607142D02*
X126432438Y-105464285D01*
X126432438Y-105464285D02*
X126480057Y-105416666D01*
X126480057Y-105035713D02*
X126432438Y-104988094D01*
X126432438Y-104988094D02*
X126384819Y-104892856D01*
X126384819Y-104892856D02*
X126384819Y-104654761D01*
X126384819Y-104654761D02*
X126432438Y-104559523D01*
X126432438Y-104559523D02*
X126480057Y-104511904D01*
X126480057Y-104511904D02*
X126575295Y-104464285D01*
X126575295Y-104464285D02*
X126670533Y-104464285D01*
X126670533Y-104464285D02*
X126813390Y-104511904D01*
X126813390Y-104511904D02*
X127384819Y-105083332D01*
X127384819Y-105083332D02*
X127384819Y-104464285D01*
D11*
G04 #@! TO.C,D59*
X168515000Y-132765000D02*
X168515000Y-134235000D01*
X168515000Y-134235000D02*
X170800000Y-134235000D01*
X170800000Y-132765000D02*
X168515000Y-132765000D01*
G04 #@! TO.C,D8*
X57015000Y-66265000D02*
X57015000Y-67735000D01*
X57015000Y-67735000D02*
X59300000Y-67735000D01*
X59300000Y-66265000D02*
X57015000Y-66265000D01*
G04 #@! TO.C,D20*
X52515000Y-99265000D02*
X52515000Y-100735000D01*
X52515000Y-100735000D02*
X54800000Y-100735000D01*
X54800000Y-99265000D02*
X52515000Y-99265000D01*
G04 #@! TO.C,D42*
X245265000Y-76015000D02*
X245265000Y-78300000D01*
X246735000Y-76015000D02*
X245265000Y-76015000D01*
X246735000Y-78300000D02*
X246735000Y-76015000D01*
G04 #@! TO.C,D60*
X179515000Y-132765000D02*
X179515000Y-134235000D01*
X179515000Y-134235000D02*
X181800000Y-134235000D01*
X181800000Y-132765000D02*
X179515000Y-132765000D01*
G04 #@! TO.C,D26*
X109265000Y-110015000D02*
X109265000Y-112300000D01*
X110735000Y-110015000D02*
X109265000Y-110015000D01*
X110735000Y-112300000D02*
X110735000Y-110015000D01*
G04 #@! TO.C,D6*
X134515000Y-113265000D02*
X134515000Y-114735000D01*
X134515000Y-114735000D02*
X136800000Y-114735000D01*
X136800000Y-113265000D02*
X134515000Y-113265000D01*
G04 #@! TO.C,D53*
X209765000Y-110515000D02*
X209765000Y-112800000D01*
X211235000Y-110515000D02*
X209765000Y-110515000D01*
X211235000Y-112800000D02*
X211235000Y-110515000D01*
G04 #@! TO.C,C5*
X149859419Y-84490000D02*
X150140581Y-84490000D01*
X149859419Y-85510000D02*
X150140581Y-85510000D01*
G04 #@! TO.C,R2*
X123046359Y-111620000D02*
X123353641Y-111620000D01*
X123046359Y-112380000D02*
X123353641Y-112380000D01*
G04 #@! TO.C,R1*
X143120000Y-94346359D02*
X143120000Y-94653641D01*
X143880000Y-94346359D02*
X143880000Y-94653641D01*
G04 #@! TO.C,D36*
X188515000Y-66265000D02*
X188515000Y-67735000D01*
X188515000Y-67735000D02*
X190800000Y-67735000D01*
X190800000Y-66265000D02*
X188515000Y-66265000D01*
G04 #@! TO.C,C6*
X148140581Y-96740000D02*
X147859419Y-96740000D01*
X148140581Y-97760000D02*
X147859419Y-97760000D01*
G04 #@! TO.C,C4*
X131961252Y-91090000D02*
X130538748Y-91090000D01*
X131961252Y-92910000D02*
X130538748Y-92910000D01*
G04 #@! TO.C,R3*
X147163640Y-109120000D02*
X146856358Y-109120000D01*
X147163640Y-109880000D02*
X146856358Y-109880000D01*
G04 #@! TO.C,D5*
X138515000Y-85065000D02*
X138515000Y-86535000D01*
X138515000Y-86535000D02*
X140800000Y-86535000D01*
X140800000Y-85065000D02*
X138515000Y-85065000D01*
G04 #@! TO.C,D24*
X61265000Y-110015000D02*
X61265000Y-112300000D01*
X62735000Y-110015000D02*
X61265000Y-110015000D01*
X62735000Y-112300000D02*
X62735000Y-110015000D01*
G04 #@! TO.C,D29*
X76765000Y-121515000D02*
X76765000Y-123800000D01*
X78235000Y-121515000D02*
X76765000Y-121515000D01*
X78235000Y-123800000D02*
X78235000Y-121515000D01*
G04 #@! TO.C,D3*
X150915000Y-77265000D02*
X150915000Y-78735000D01*
X150915000Y-78735000D02*
X153200000Y-78735000D01*
X153200000Y-77265000D02*
X150915000Y-77265000D01*
G04 #@! TO.C,R4*
X152515000Y-94227064D02*
X152515000Y-93772936D01*
X153985000Y-94227064D02*
X153985000Y-93772936D01*
G04 #@! TO.C,D38*
X236515000Y-66265000D02*
X236515000Y-67735000D01*
X236515000Y-67735000D02*
X238800000Y-67735000D01*
X238800000Y-66265000D02*
X236515000Y-66265000D01*
G04 #@! TO.C,D17*
X81265000Y-88015000D02*
X81265000Y-90300000D01*
X82735000Y-88015000D02*
X81265000Y-88015000D01*
X82735000Y-90300000D02*
X82735000Y-88015000D01*
G04 #@! TO.C,D49*
X220515000Y-99265000D02*
X220515000Y-100735000D01*
X220515000Y-100735000D02*
X222800000Y-100735000D01*
X222800000Y-99265000D02*
X220515000Y-99265000D01*
G04 #@! TO.C,D22*
X100515000Y-99265000D02*
X100515000Y-100735000D01*
X100515000Y-100735000D02*
X102800000Y-100735000D01*
X102800000Y-99265000D02*
X100515000Y-99265000D01*
G04 #@! TO.C,R14*
X134653641Y-81620000D02*
X134346359Y-81620000D01*
X134653641Y-82380000D02*
X134346359Y-82380000D01*
G04 #@! TO.C,D54*
X240265000Y-110015000D02*
X240265000Y-112300000D01*
X241735000Y-110015000D02*
X240265000Y-110015000D01*
X241735000Y-112300000D02*
X241735000Y-110015000D01*
G04 #@! TO.C,R12*
X134653641Y-80620000D02*
X134346359Y-80620000D01*
X134653641Y-81380000D02*
X134346359Y-81380000D01*
G04 #@! TO.C,D18*
X112265000Y-88015000D02*
X112265000Y-90300000D01*
X113735000Y-88015000D02*
X112265000Y-88015000D01*
X113735000Y-90300000D02*
X113735000Y-88015000D01*
G04 #@! TO.C,D58*
X239015000Y-122015000D02*
X239015000Y-124300000D01*
X240485000Y-122015000D02*
X239015000Y-122015000D01*
X240485000Y-124300000D02*
X240485000Y-122015000D01*
G04 #@! TO.C,C1*
X122690000Y-114059419D02*
X122690000Y-114340581D01*
X123710000Y-114059419D02*
X123710000Y-114340581D01*
G04 #@! TO.C,D19*
X41015000Y-99265000D02*
X41015000Y-100735000D01*
X41015000Y-100735000D02*
X43300000Y-100735000D01*
X43300000Y-99265000D02*
X41015000Y-99265000D01*
G04 #@! TO.C,D39*
X166765000Y-76015000D02*
X166765000Y-78300000D01*
X168235000Y-76015000D02*
X166765000Y-76015000D01*
X168235000Y-78300000D02*
X168235000Y-76015000D01*
G04 #@! TO.C,D15*
X33765000Y-88015000D02*
X33765000Y-90300000D01*
X35235000Y-88015000D02*
X33765000Y-88015000D01*
X35235000Y-90300000D02*
X35235000Y-88015000D01*
G04 #@! TO.C,D28*
X59765000Y-122015000D02*
X59765000Y-124300000D01*
X61235000Y-122015000D02*
X59765000Y-122015000D01*
X61235000Y-124300000D02*
X61235000Y-122015000D01*
G04 #@! TO.C,D35*
X177015000Y-66265000D02*
X177015000Y-67735000D01*
X177015000Y-67735000D02*
X179300000Y-67735000D01*
X179300000Y-66265000D02*
X177015000Y-66265000D01*
G04 #@! TO.C,D44*
X195765000Y-88015000D02*
X195765000Y-90300000D01*
X197235000Y-88015000D02*
X195765000Y-88015000D01*
X197235000Y-90300000D02*
X197235000Y-88015000D01*
D10*
G04 #@! TO.C,U3*
X117525000Y-97925000D02*
X117525000Y-102075000D01*
X117525000Y-97925000D02*
X118082500Y-97925000D01*
X117525000Y-102075000D02*
X118082500Y-102075000D01*
X126475000Y-97925000D02*
X125917500Y-97925000D01*
X126475000Y-97925000D02*
X126475000Y-102075000D01*
X126475000Y-102075000D02*
X125917500Y-102075000D01*
D11*
X126330000Y-97602500D02*
X126000000Y-97362500D01*
X126330000Y-97122500D01*
X126330000Y-97602500D01*
G36*
X126330000Y-97602500D02*
G01*
X126000000Y-97362500D01*
X126330000Y-97122500D01*
X126330000Y-97602500D01*
G37*
G04 #@! TO.C,D23*
X30265000Y-110515000D02*
X30265000Y-112800000D01*
X31735000Y-110515000D02*
X30265000Y-110515000D01*
X31735000Y-112800000D02*
X31735000Y-110515000D01*
G04 #@! TO.C,D21*
X88515000Y-99265000D02*
X88515000Y-100735000D01*
X88515000Y-100735000D02*
X90800000Y-100735000D01*
X90800000Y-99265000D02*
X88515000Y-99265000D01*
G04 #@! TO.C,D13*
X83265000Y-76015000D02*
X83265000Y-78300000D01*
X84735000Y-76015000D02*
X83265000Y-76015000D01*
X84735000Y-78300000D02*
X84735000Y-76015000D01*
G04 #@! TO.C,D16*
X64265000Y-88015000D02*
X64265000Y-90300000D01*
X65735000Y-88015000D02*
X64265000Y-88015000D01*
X65735000Y-90300000D02*
X65735000Y-88015000D01*
G04 #@! TO.C,R8*
X149153641Y-114620000D02*
X148846359Y-114620000D01*
X149153641Y-115380000D02*
X148846359Y-115380000D01*
G04 #@! TO.C,D55*
X160765000Y-121515000D02*
X160765000Y-123800000D01*
X162235000Y-121515000D02*
X160765000Y-121515000D01*
X162235000Y-123800000D02*
X162235000Y-121515000D01*
G04 #@! TO.C,D43*
X165265000Y-88015000D02*
X165265000Y-90300000D01*
X166735000Y-88015000D02*
X165265000Y-88015000D01*
X166735000Y-90300000D02*
X166735000Y-88015000D01*
D10*
G04 #@! TO.C,U1*
X150025000Y-97925000D02*
X150582500Y-97925000D01*
X150025000Y-102075000D02*
X150025000Y-97925000D01*
X150025000Y-102075000D02*
X150582500Y-102075000D01*
X158975000Y-97925000D02*
X158417500Y-97925000D01*
X158975000Y-102075000D02*
X158417500Y-102075000D01*
X158975000Y-102075000D02*
X158975000Y-97925000D01*
D11*
X150500000Y-102637500D02*
X150170000Y-102877500D01*
X150170000Y-102397500D01*
X150500000Y-102637500D01*
G36*
X150500000Y-102637500D02*
G01*
X150170000Y-102877500D01*
X150170000Y-102397500D01*
X150500000Y-102637500D01*
G37*
G04 #@! TO.C,D10*
X105015000Y-66265000D02*
X105015000Y-67735000D01*
X105015000Y-67735000D02*
X107300000Y-67735000D01*
X107300000Y-66265000D02*
X105015000Y-66265000D01*
G04 #@! TO.C,D27*
X28765000Y-121515000D02*
X28765000Y-123800000D01*
X30235000Y-121515000D02*
X28765000Y-121515000D01*
X30235000Y-123800000D02*
X30235000Y-121515000D01*
G04 #@! TO.C,R5*
X129346359Y-80620000D02*
X129653641Y-80620000D01*
X129346359Y-81380000D02*
X129653641Y-81380000D01*
G04 #@! TO.C,D46*
X243765000Y-88015000D02*
X243765000Y-90300000D01*
X245235000Y-88015000D02*
X243765000Y-88015000D01*
X245235000Y-90300000D02*
X245235000Y-88015000D01*
G04 #@! TO.C,D4*
X144915000Y-120265000D02*
X144915000Y-121735000D01*
X144915000Y-121735000D02*
X147200000Y-121735000D01*
X147200000Y-120265000D02*
X144915000Y-120265000D01*
G04 #@! TO.C,D12*
X65765000Y-76015000D02*
X65765000Y-78300000D01*
X67235000Y-76015000D02*
X65765000Y-76015000D01*
X67235000Y-78300000D02*
X67235000Y-76015000D01*
G04 #@! TO.C,D7*
X46015000Y-66265000D02*
X46015000Y-67735000D01*
X46015000Y-67735000D02*
X48300000Y-67735000D01*
X48300000Y-66265000D02*
X46015000Y-66265000D01*
G04 #@! TO.C,D11*
X35265000Y-76015000D02*
X35265000Y-78300000D01*
X36735000Y-76015000D02*
X35265000Y-76015000D01*
X36735000Y-78300000D02*
X36735000Y-76015000D01*
G04 #@! TO.C,D32*
X48015000Y-132765000D02*
X48015000Y-134235000D01*
X48015000Y-134235000D02*
X50300000Y-134235000D01*
X50300000Y-132765000D02*
X48015000Y-132765000D01*
G04 #@! TO.C,C3*
X135800000Y-98486252D02*
X135800000Y-97063748D01*
X137620000Y-98486252D02*
X137620000Y-97063748D01*
G04 #@! TO.C,D14*
X113765000Y-76015000D02*
X113765000Y-78300000D01*
X115235000Y-76015000D02*
X113765000Y-76015000D01*
X115235000Y-78300000D02*
X115235000Y-76015000D01*
G04 #@! TO.C,D2*
X128765000Y-77700000D02*
X128765000Y-79985000D01*
X128765000Y-79985000D02*
X130235000Y-79985000D01*
X130235000Y-79985000D02*
X130235000Y-77700000D01*
G04 #@! TO.C,D41*
X215265000Y-76015000D02*
X215265000Y-78300000D01*
X216735000Y-76015000D02*
X215265000Y-76015000D01*
X216735000Y-78300000D02*
X216735000Y-76015000D01*
G04 #@! TO.C,D48*
X184015000Y-99265000D02*
X184015000Y-100735000D01*
X184015000Y-100735000D02*
X186300000Y-100735000D01*
X186300000Y-99265000D02*
X184015000Y-99265000D01*
G04 #@! TO.C,R7*
X155153641Y-77620000D02*
X154846359Y-77620000D01*
X155153641Y-78380000D02*
X154846359Y-78380000D01*
G04 #@! TO.C,D52*
X192265000Y-110015000D02*
X192265000Y-112300000D01*
X193735000Y-110015000D02*
X192265000Y-110015000D01*
X193735000Y-112300000D02*
X193735000Y-110015000D01*
G04 #@! TO.C,R6*
X130620000Y-78653641D02*
X130620000Y-78346359D01*
X131380000Y-78653641D02*
X131380000Y-78346359D01*
G04 #@! TO.C,D34*
X95515000Y-132765000D02*
X95515000Y-134235000D01*
X95515000Y-134235000D02*
X97800000Y-134235000D01*
X97800000Y-132765000D02*
X95515000Y-132765000D01*
G04 #@! TO.C,D40*
X197765000Y-76015000D02*
X197765000Y-78300000D01*
X199235000Y-76015000D02*
X197765000Y-76015000D01*
X199235000Y-78300000D02*
X199235000Y-76015000D01*
G04 #@! TO.C,D47*
X172515000Y-99265000D02*
X172515000Y-100735000D01*
X172515000Y-100735000D02*
X174800000Y-100735000D01*
X174800000Y-99265000D02*
X172515000Y-99265000D01*
G04 #@! TO.C,D1*
X136945000Y-78955000D02*
X136945000Y-79420000D01*
X136945000Y-81580000D02*
X136945000Y-82045000D01*
X136945000Y-78955170D02*
G75*
G02*
X142292815Y-79419173I2560000J-1544830D01*
G01*
X137250316Y-79420000D02*
G75*
G02*
X141759479Y-79419571I2254684J-1080000D01*
G01*
X141759479Y-81580429D02*
G75*
G02*
X137250316Y-81580000I-2254479J1080429D01*
G01*
X142292815Y-81580827D02*
G75*
G02*
X136945000Y-82044830I-2787815J1080827D01*
G01*
G04 #@! TO.C,D56*
X190765000Y-122015000D02*
X190765000Y-124300000D01*
X192235000Y-122015000D02*
X190765000Y-122015000D01*
X192235000Y-124300000D02*
X192235000Y-122015000D01*
G04 #@! TO.C,D9*
X93515000Y-66265000D02*
X93515000Y-67735000D01*
X93515000Y-67735000D02*
X95800000Y-67735000D01*
X95800000Y-66265000D02*
X93515000Y-66265000D01*
G04 #@! TO.C,D33*
X84015000Y-132765000D02*
X84015000Y-134235000D01*
X84015000Y-134235000D02*
X86300000Y-134235000D01*
X86300000Y-132765000D02*
X84015000Y-132765000D01*
G04 #@! TO.C,R9*
X142753641Y-85420000D02*
X142446359Y-85420000D01*
X142753641Y-86180000D02*
X142446359Y-86180000D01*
G04 #@! TO.C,D25*
X78265000Y-110515000D02*
X78265000Y-112800000D01*
X79735000Y-110515000D02*
X78265000Y-110515000D01*
X79735000Y-112800000D02*
X79735000Y-110515000D01*
G04 #@! TO.C,D31*
X36515000Y-132765000D02*
X36515000Y-134235000D01*
X36515000Y-134235000D02*
X38800000Y-134235000D01*
X38800000Y-132765000D02*
X36515000Y-132765000D01*
G04 #@! TO.C,D62*
X227265000Y-132765000D02*
X227265000Y-134235000D01*
X227265000Y-134235000D02*
X229550000Y-134235000D01*
X229550000Y-132765000D02*
X227265000Y-132765000D01*
G04 #@! TO.C,R15*
X144120000Y-85153641D02*
X144120000Y-84846359D01*
X144880000Y-85153641D02*
X144880000Y-84846359D01*
G04 #@! TO.C,D50*
X232015000Y-99265000D02*
X232015000Y-100735000D01*
X232015000Y-100735000D02*
X234300000Y-100735000D01*
X234300000Y-99265000D02*
X232015000Y-99265000D01*
G04 #@! TO.C,D45*
X213265000Y-88015000D02*
X213265000Y-90300000D01*
X214735000Y-88015000D02*
X213265000Y-88015000D01*
X214735000Y-90300000D02*
X214735000Y-88015000D01*
G04 #@! TO.C,R11*
X121765000Y-107272936D02*
X121765000Y-107727064D01*
X123235000Y-107272936D02*
X123235000Y-107727064D01*
G04 #@! TO.C,R13*
X134653641Y-82620000D02*
X134346359Y-82620000D01*
X134653641Y-83380000D02*
X134346359Y-83380000D01*
G04 #@! TO.C,U4*
X128155000Y-95740000D02*
X129415000Y-95740000D01*
X128155000Y-99500000D02*
X128155000Y-95740000D01*
X134975000Y-95740000D02*
X133715000Y-95740000D01*
X134975000Y-99500000D02*
X134975000Y-95740000D01*
X128255000Y-100780000D02*
X127925000Y-101020000D01*
X127925000Y-100540000D01*
X128255000Y-100780000D01*
G36*
X128255000Y-100780000D02*
G01*
X127925000Y-101020000D01*
X127925000Y-100540000D01*
X128255000Y-100780000D01*
G37*
G04 #@! TO.C,D51*
X162265000Y-110515000D02*
X162265000Y-112800000D01*
X163735000Y-110515000D02*
X162265000Y-110515000D01*
X163735000Y-112800000D02*
X163735000Y-110515000D01*
G04 #@! TO.C,D30*
X107765000Y-122015000D02*
X107765000Y-124300000D01*
X109235000Y-122015000D02*
X107765000Y-122015000D01*
X109235000Y-124300000D02*
X109235000Y-122015000D01*
G04 #@! TO.C,D61*
X216015000Y-132765000D02*
X216015000Y-134235000D01*
X216015000Y-134235000D02*
X218300000Y-134235000D01*
X218300000Y-132765000D02*
X216015000Y-132765000D01*
G04 #@! TO.C,D37*
X225515000Y-66265000D02*
X225515000Y-67735000D01*
X225515000Y-67735000D02*
X227800000Y-67735000D01*
X227800000Y-66265000D02*
X225515000Y-66265000D01*
G04 #@! TO.C,R10*
X138653641Y-113620000D02*
X138346359Y-113620000D01*
X138653641Y-114380000D02*
X138346359Y-114380000D01*
G04 #@! TO.C,D57*
X208015000Y-121515000D02*
X208015000Y-123800000D01*
X209485000Y-121515000D02*
X208015000Y-121515000D01*
X209485000Y-123800000D02*
X209485000Y-121515000D01*
G04 #@! TO.C,C2*
X124990000Y-105109419D02*
X124990000Y-105390581D01*
X126010000Y-105109419D02*
X126010000Y-105390581D01*
G04 #@! TD*
G36*
X66608961Y-63219685D02*
G01*
X66637181Y-63244617D01*
X71571259Y-69165510D01*
X71599055Y-69229613D01*
X71600000Y-69244893D01*
X71600000Y-71600000D01*
X81600000Y-71600000D01*
X81600000Y-69855559D01*
X81619685Y-69788520D01*
X81641464Y-69763018D01*
X88964728Y-63231459D01*
X89027861Y-63201527D01*
X89047264Y-63200000D01*
X114341922Y-63200000D01*
X114408961Y-63219685D01*
X114437181Y-63244617D01*
X119371259Y-69165510D01*
X119399055Y-69229613D01*
X119400000Y-69244893D01*
X119400000Y-73200000D01*
X165400000Y-73200000D01*
X165400000Y-69855559D01*
X165419685Y-69788520D01*
X165441464Y-69763018D01*
X172764728Y-63231459D01*
X172827861Y-63201527D01*
X172847264Y-63200000D01*
X198341922Y-63200000D01*
X198408961Y-63219685D01*
X198437181Y-63244617D01*
X203371259Y-69165510D01*
X203399055Y-69229613D01*
X203400000Y-69244893D01*
X203400000Y-71600000D01*
X212800000Y-71600000D01*
X212800000Y-70055559D01*
X212819685Y-69988520D01*
X212841464Y-69963018D01*
X220164728Y-63431459D01*
X220227861Y-63401527D01*
X220247264Y-63400000D01*
X246141922Y-63400000D01*
X246208961Y-63419685D01*
X246237181Y-63444617D01*
X251164817Y-69357781D01*
X251192613Y-69421884D01*
X251192352Y-69454419D01*
X242606520Y-130553600D01*
X242577698Y-130617248D01*
X242564424Y-130630493D01*
X235634827Y-136570148D01*
X235571116Y-136598831D01*
X235554129Y-136600000D01*
X209854072Y-136600000D01*
X209787033Y-136580315D01*
X209763206Y-136560376D01*
X204633134Y-131035682D01*
X204601941Y-130973161D01*
X204600000Y-130951306D01*
X204600000Y-129399999D01*
X212100000Y-129399999D01*
X212100001Y-129400000D01*
X235400000Y-129400000D01*
X235400001Y-129399999D01*
X239000000Y-103900000D01*
X215800000Y-103900000D01*
X212100000Y-129399999D01*
X204600000Y-129399999D01*
X204600000Y-129000000D01*
X195000000Y-129000000D01*
X195000000Y-130345254D01*
X194980315Y-130412293D01*
X194959545Y-130436885D01*
X188235501Y-136567631D01*
X188172700Y-136598253D01*
X188151956Y-136600000D01*
X161657342Y-136600000D01*
X161590303Y-136580315D01*
X161562862Y-136556308D01*
X155480000Y-129399999D01*
X164200000Y-129399999D01*
X164200001Y-129400000D01*
X187500000Y-129400000D01*
X187500001Y-129399999D01*
X188555235Y-121925424D01*
X197602538Y-121925424D01*
X197602538Y-122274575D01*
X197643073Y-122621386D01*
X197643075Y-122621401D01*
X197723594Y-122961130D01*
X197723598Y-122961145D01*
X197843020Y-123289252D01*
X197843021Y-123289253D01*
X197999720Y-123601267D01*
X198191593Y-123892997D01*
X198416022Y-124160460D01*
X198416032Y-124160470D01*
X198670000Y-124400079D01*
X198670003Y-124400081D01*
X198950080Y-124608589D01*
X199252457Y-124783167D01*
X199252470Y-124783173D01*
X199573068Y-124921466D01*
X199907567Y-125021608D01*
X199907575Y-125021610D01*
X200251414Y-125082238D01*
X200251425Y-125082239D01*
X200599996Y-125102542D01*
X200600004Y-125102542D01*
X200948574Y-125082239D01*
X200948585Y-125082238D01*
X201292424Y-125021610D01*
X201292432Y-125021608D01*
X201626931Y-124921466D01*
X201947529Y-124783173D01*
X201947542Y-124783167D01*
X202249919Y-124608589D01*
X202529996Y-124400081D01*
X202529999Y-124400079D01*
X202783967Y-124160470D01*
X202783977Y-124160460D01*
X203008406Y-123892997D01*
X203200279Y-123601267D01*
X203356978Y-123289253D01*
X203356979Y-123289252D01*
X203476401Y-122961145D01*
X203476405Y-122961130D01*
X203556924Y-122621401D01*
X203556926Y-122621386D01*
X203597461Y-122274578D01*
X203599999Y-122100000D01*
X203597461Y-121925421D01*
X203556926Y-121578613D01*
X203556924Y-121578598D01*
X203476405Y-121238869D01*
X203476401Y-121238854D01*
X203356979Y-120910747D01*
X203356978Y-120910746D01*
X203200279Y-120598732D01*
X203008406Y-120307002D01*
X202783977Y-120039539D01*
X202783967Y-120039529D01*
X202529999Y-119799920D01*
X202529996Y-119799918D01*
X202249919Y-119591410D01*
X201947542Y-119416832D01*
X201947529Y-119416826D01*
X201626931Y-119278533D01*
X201292432Y-119178391D01*
X201292424Y-119178389D01*
X200948585Y-119117761D01*
X200948574Y-119117760D01*
X200600004Y-119097458D01*
X200599996Y-119097458D01*
X200251425Y-119117760D01*
X200251414Y-119117761D01*
X199907575Y-119178389D01*
X199907567Y-119178391D01*
X199573068Y-119278533D01*
X199252470Y-119416826D01*
X199252457Y-119416832D01*
X198950080Y-119591410D01*
X198670003Y-119799918D01*
X198670000Y-119799920D01*
X198416032Y-120039529D01*
X198416022Y-120039539D01*
X198191593Y-120307002D01*
X197999720Y-120598732D01*
X197843021Y-120910746D01*
X197843020Y-120910747D01*
X197723598Y-121238854D01*
X197723594Y-121238869D01*
X197643075Y-121578598D01*
X197643073Y-121578613D01*
X197602538Y-121925424D01*
X188555235Y-121925424D01*
X191100000Y-103900000D01*
X167900000Y-103900000D01*
X164200000Y-129399999D01*
X155480000Y-129399999D01*
X154800001Y-128600000D01*
X147706382Y-128600000D01*
X147639343Y-128580315D01*
X147593588Y-128527511D01*
X147583824Y-128494855D01*
X147200000Y-126000000D01*
X145000000Y-126000000D01*
X144422181Y-128503883D01*
X144387926Y-128564779D01*
X144326185Y-128597489D01*
X144301356Y-128600000D01*
X122906382Y-128600000D01*
X122839343Y-128580315D01*
X122793588Y-128527511D01*
X122783824Y-128494855D01*
X122459853Y-126389043D01*
X127702559Y-126389043D01*
X127702559Y-126610956D01*
X127743338Y-126829101D01*
X127823501Y-127036029D01*
X127823504Y-127036035D01*
X127940326Y-127224709D01*
X127940328Y-127224711D01*
X128089830Y-127388708D01*
X128266925Y-127522444D01*
X128266933Y-127522449D01*
X128465579Y-127621363D01*
X128465578Y-127621363D01*
X128679030Y-127682094D01*
X128900000Y-127702570D01*
X129120969Y-127682094D01*
X129334421Y-127621363D01*
X129533066Y-127522449D01*
X129533074Y-127522444D01*
X129710169Y-127388708D01*
X129859671Y-127224711D01*
X129859673Y-127224709D01*
X129976495Y-127036035D01*
X129976498Y-127036029D01*
X130056661Y-126829101D01*
X130097440Y-126610956D01*
X130100000Y-126500001D01*
X130100000Y-126499998D01*
X130097440Y-126389043D01*
X130056661Y-126170898D01*
X129976498Y-125963970D01*
X129976495Y-125963964D01*
X129859673Y-125775290D01*
X129859671Y-125775288D01*
X129710169Y-125611291D01*
X129533074Y-125477555D01*
X129533066Y-125477550D01*
X129334420Y-125378636D01*
X129334421Y-125378636D01*
X129120967Y-125317905D01*
X129120971Y-125317905D01*
X128900001Y-125297430D01*
X128899999Y-125297430D01*
X128679030Y-125317905D01*
X128465578Y-125378636D01*
X128266933Y-125477550D01*
X128266925Y-125477555D01*
X128089830Y-125611291D01*
X127940328Y-125775288D01*
X127940326Y-125775290D01*
X127823504Y-125963964D01*
X127823501Y-125963970D01*
X127743338Y-126170898D01*
X127702559Y-126389043D01*
X122459853Y-126389043D01*
X122400000Y-126000000D01*
X119800000Y-126000000D01*
X119222181Y-128503883D01*
X119187926Y-128564779D01*
X119126185Y-128597489D01*
X119101356Y-128600000D01*
X112400000Y-128600000D01*
X103435236Y-136568679D01*
X103372052Y-136598505D01*
X103352855Y-136600000D01*
X77855519Y-136600000D01*
X77788480Y-136580315D01*
X77763023Y-136558586D01*
X72831504Y-131035284D01*
X72801538Y-130972166D01*
X72800000Y-130952698D01*
X72800000Y-129399999D01*
X80400000Y-129399999D01*
X80400001Y-129400000D01*
X103700000Y-129400000D01*
X103700001Y-129399999D01*
X107300000Y-103900000D01*
X84100000Y-103900000D01*
X80400000Y-129399999D01*
X72800000Y-129399999D01*
X72800000Y-129000000D01*
X63200000Y-129000000D01*
X63200000Y-130143300D01*
X63180315Y-130210339D01*
X63157115Y-130237089D01*
X55834931Y-136569789D01*
X55771348Y-136598754D01*
X55753816Y-136600000D01*
X30055519Y-136600000D01*
X29988480Y-136580315D01*
X29963023Y-136558586D01*
X25038300Y-131042896D01*
X25008334Y-130979778D01*
X25008002Y-130943055D01*
X25224837Y-129399999D01*
X32600000Y-129399999D01*
X32600001Y-129400000D01*
X55900000Y-129400000D01*
X55900001Y-129399999D01*
X56927000Y-122125424D01*
X66102538Y-122125424D01*
X66102538Y-122474575D01*
X66143073Y-122821386D01*
X66143075Y-122821401D01*
X66223594Y-123161130D01*
X66223598Y-123161145D01*
X66343020Y-123489252D01*
X66343021Y-123489253D01*
X66499720Y-123801267D01*
X66691593Y-124092997D01*
X66916022Y-124360460D01*
X66916032Y-124360470D01*
X67170000Y-124600079D01*
X67170003Y-124600081D01*
X67450080Y-124808589D01*
X67752457Y-124983167D01*
X67752470Y-124983173D01*
X68073068Y-125121466D01*
X68407567Y-125221608D01*
X68407575Y-125221610D01*
X68751414Y-125282238D01*
X68751425Y-125282239D01*
X69099996Y-125302542D01*
X69100004Y-125302542D01*
X69448574Y-125282239D01*
X69448585Y-125282238D01*
X69792424Y-125221610D01*
X69792432Y-125221608D01*
X70126931Y-125121466D01*
X70447529Y-124983173D01*
X70447542Y-124983167D01*
X70749919Y-124808589D01*
X71029996Y-124600081D01*
X71029999Y-124600079D01*
X71283967Y-124360470D01*
X71283977Y-124360460D01*
X71508406Y-124092997D01*
X71700279Y-123801267D01*
X71856978Y-123489253D01*
X71856979Y-123489252D01*
X71976401Y-123161145D01*
X71976405Y-123161130D01*
X72056924Y-122821401D01*
X72056926Y-122821386D01*
X72097461Y-122474578D01*
X72099999Y-122300000D01*
X72097461Y-122125421D01*
X72056926Y-121778613D01*
X72056924Y-121778598D01*
X71976405Y-121438869D01*
X71976401Y-121438854D01*
X71856979Y-121110747D01*
X71856978Y-121110746D01*
X71700279Y-120798732D01*
X71508406Y-120507002D01*
X71283977Y-120239539D01*
X71283967Y-120239529D01*
X71029999Y-119999920D01*
X71029996Y-119999918D01*
X70749919Y-119791410D01*
X70447542Y-119616832D01*
X70447529Y-119616826D01*
X70126931Y-119478533D01*
X69792432Y-119378391D01*
X69792424Y-119378389D01*
X69448585Y-119317761D01*
X69448574Y-119317760D01*
X69100004Y-119297458D01*
X69099996Y-119297458D01*
X68751425Y-119317760D01*
X68751414Y-119317761D01*
X68407575Y-119378389D01*
X68407567Y-119378391D01*
X68073068Y-119478533D01*
X67752470Y-119616826D01*
X67752457Y-119616832D01*
X67450080Y-119791410D01*
X67170003Y-119999918D01*
X67170000Y-119999920D01*
X66916032Y-120239529D01*
X66916022Y-120239539D01*
X66691593Y-120507002D01*
X66499720Y-120798732D01*
X66343021Y-121110746D01*
X66343020Y-121110747D01*
X66223598Y-121438854D01*
X66223594Y-121438869D01*
X66143075Y-121778598D01*
X66143073Y-121778613D01*
X66102538Y-122125424D01*
X56927000Y-122125424D01*
X59500000Y-103900000D01*
X36300000Y-103900000D01*
X32600000Y-129399999D01*
X25224837Y-129399999D01*
X28934641Y-103000000D01*
X149700000Y-103000000D01*
X150700000Y-103000000D01*
X150700000Y-102300000D01*
X149700000Y-102300000D01*
X149700000Y-103000000D01*
X28934641Y-103000000D01*
X29679412Y-97700000D01*
X125800000Y-97700000D01*
X127100000Y-97700000D01*
X127100000Y-97000000D01*
X125800000Y-97000000D01*
X125800000Y-97700000D01*
X29679412Y-97700000D01*
X29918301Y-95999999D01*
X37300000Y-95999999D01*
X37300001Y-96000000D01*
X60600000Y-96000000D01*
X60600001Y-95999999D01*
X85100000Y-95999999D01*
X85100001Y-96000000D01*
X108400000Y-96000000D01*
X108400001Y-95999999D01*
X168800000Y-95999999D01*
X168800001Y-96000000D01*
X192100000Y-96000000D01*
X192100001Y-95999999D01*
X216800000Y-95999999D01*
X216800001Y-96000000D01*
X240100000Y-96000000D01*
X240100001Y-95999999D01*
X243700000Y-70500000D01*
X220500000Y-70500000D01*
X216800000Y-95999999D01*
X192100001Y-95999999D01*
X194736411Y-77325424D01*
X204002538Y-77325424D01*
X204002538Y-77674575D01*
X204043073Y-78021386D01*
X204043075Y-78021401D01*
X204123594Y-78361130D01*
X204123598Y-78361145D01*
X204243020Y-78689252D01*
X204243021Y-78689253D01*
X204399720Y-79001267D01*
X204591593Y-79292997D01*
X204816022Y-79560460D01*
X204816032Y-79560470D01*
X205070000Y-79800079D01*
X205070003Y-79800081D01*
X205350080Y-80008589D01*
X205652457Y-80183167D01*
X205652470Y-80183173D01*
X205973068Y-80321466D01*
X206307567Y-80421608D01*
X206307575Y-80421610D01*
X206651414Y-80482238D01*
X206651425Y-80482239D01*
X206999996Y-80502542D01*
X207000004Y-80502542D01*
X207348574Y-80482239D01*
X207348585Y-80482238D01*
X207692424Y-80421610D01*
X207692432Y-80421608D01*
X208026931Y-80321466D01*
X208347529Y-80183173D01*
X208347542Y-80183167D01*
X208649919Y-80008589D01*
X208929996Y-79800081D01*
X208929999Y-79800079D01*
X209183967Y-79560470D01*
X209183977Y-79560460D01*
X209408406Y-79292997D01*
X209600279Y-79001267D01*
X209756978Y-78689253D01*
X209756979Y-78689252D01*
X209876401Y-78361145D01*
X209876405Y-78361130D01*
X209956924Y-78021401D01*
X209956926Y-78021386D01*
X209997461Y-77674578D01*
X209999999Y-77500000D01*
X209997461Y-77325421D01*
X209956926Y-76978613D01*
X209956924Y-76978598D01*
X209876405Y-76638869D01*
X209876401Y-76638854D01*
X209756979Y-76310747D01*
X209756978Y-76310746D01*
X209600279Y-75998732D01*
X209408406Y-75707002D01*
X209183977Y-75439539D01*
X209183967Y-75439529D01*
X208929999Y-75199920D01*
X208929996Y-75199918D01*
X208649919Y-74991410D01*
X208347542Y-74816832D01*
X208347529Y-74816826D01*
X208026931Y-74678533D01*
X207692432Y-74578391D01*
X207692424Y-74578389D01*
X207348585Y-74517761D01*
X207348574Y-74517760D01*
X207000004Y-74497458D01*
X206999996Y-74497458D01*
X206651425Y-74517760D01*
X206651414Y-74517761D01*
X206307575Y-74578389D01*
X206307567Y-74578391D01*
X205973068Y-74678533D01*
X205652470Y-74816826D01*
X205652457Y-74816832D01*
X205350080Y-74991410D01*
X205070003Y-75199918D01*
X205070000Y-75199920D01*
X204816032Y-75439529D01*
X204816022Y-75439539D01*
X204591593Y-75707002D01*
X204399720Y-75998732D01*
X204243021Y-76310746D01*
X204243020Y-76310747D01*
X204123598Y-76638854D01*
X204123594Y-76638869D01*
X204043075Y-76978598D01*
X204043073Y-76978613D01*
X204002538Y-77325424D01*
X194736411Y-77325424D01*
X195700000Y-70500000D01*
X172500000Y-70500000D01*
X168800000Y-95999999D01*
X108400001Y-95999999D01*
X111112135Y-76789043D01*
X142902559Y-76789043D01*
X142902559Y-77010956D01*
X142943338Y-77229101D01*
X143023501Y-77436029D01*
X143023504Y-77436035D01*
X143140326Y-77624709D01*
X143140328Y-77624711D01*
X143289830Y-77788708D01*
X143466925Y-77922444D01*
X143466933Y-77922449D01*
X143665579Y-78021363D01*
X143665578Y-78021363D01*
X143879030Y-78082094D01*
X144100000Y-78102570D01*
X144320969Y-78082094D01*
X144534421Y-78021363D01*
X144733066Y-77922449D01*
X144733074Y-77922444D01*
X144910169Y-77788708D01*
X145059671Y-77624711D01*
X145059673Y-77624709D01*
X145176495Y-77436035D01*
X145176498Y-77436029D01*
X145256661Y-77229101D01*
X145297440Y-77010956D01*
X145300000Y-76900001D01*
X145300000Y-76899998D01*
X145297440Y-76789043D01*
X145256661Y-76570898D01*
X145176498Y-76363970D01*
X145176495Y-76363964D01*
X145059673Y-76175290D01*
X145059671Y-76175288D01*
X144910169Y-76011291D01*
X144733074Y-75877555D01*
X144733066Y-75877550D01*
X144534420Y-75778636D01*
X144534421Y-75778636D01*
X144320967Y-75717905D01*
X144320971Y-75717905D01*
X144100001Y-75697430D01*
X144099999Y-75697430D01*
X143879030Y-75717905D01*
X143665578Y-75778636D01*
X143466933Y-75877550D01*
X143466925Y-75877555D01*
X143289830Y-76011291D01*
X143140328Y-76175288D01*
X143140326Y-76175290D01*
X143023504Y-76363964D01*
X143023501Y-76363970D01*
X142943338Y-76570898D01*
X142902559Y-76789043D01*
X111112135Y-76789043D01*
X112000000Y-70500000D01*
X88800000Y-70500000D01*
X85100000Y-95999999D01*
X60600001Y-95999999D01*
X63222293Y-77425424D01*
X72402538Y-77425424D01*
X72402538Y-77774575D01*
X72443073Y-78121386D01*
X72443075Y-78121401D01*
X72523594Y-78461130D01*
X72523598Y-78461145D01*
X72643020Y-78789252D01*
X72643021Y-78789253D01*
X72799720Y-79101267D01*
X72991593Y-79392997D01*
X73216022Y-79660460D01*
X73216032Y-79660470D01*
X73470000Y-79900079D01*
X73470003Y-79900081D01*
X73750080Y-80108589D01*
X74052457Y-80283167D01*
X74052470Y-80283173D01*
X74373068Y-80421466D01*
X74707567Y-80521608D01*
X74707575Y-80521610D01*
X75051414Y-80582238D01*
X75051425Y-80582239D01*
X75399996Y-80602542D01*
X75400004Y-80602542D01*
X75748574Y-80582239D01*
X75748585Y-80582238D01*
X76092424Y-80521610D01*
X76092432Y-80521608D01*
X76426931Y-80421466D01*
X76747529Y-80283173D01*
X76747542Y-80283167D01*
X77049919Y-80108589D01*
X77329996Y-79900081D01*
X77329999Y-79900079D01*
X77583967Y-79660470D01*
X77583977Y-79660460D01*
X77808406Y-79392997D01*
X78000279Y-79101267D01*
X78156978Y-78789253D01*
X78156979Y-78789252D01*
X78276401Y-78461145D01*
X78276405Y-78461130D01*
X78356924Y-78121401D01*
X78356926Y-78121386D01*
X78397461Y-77774578D01*
X78399999Y-77600000D01*
X78397461Y-77425421D01*
X78356926Y-77078613D01*
X78356924Y-77078598D01*
X78276405Y-76738869D01*
X78276401Y-76738854D01*
X78156979Y-76410747D01*
X78156978Y-76410746D01*
X78000279Y-76098732D01*
X77808406Y-75807002D01*
X77583977Y-75539539D01*
X77583967Y-75539529D01*
X77329999Y-75299920D01*
X77329996Y-75299918D01*
X77049919Y-75091410D01*
X76747542Y-74916832D01*
X76747529Y-74916826D01*
X76426931Y-74778533D01*
X76092432Y-74678391D01*
X76092424Y-74678389D01*
X75748585Y-74617761D01*
X75748574Y-74617760D01*
X75400004Y-74597458D01*
X75399996Y-74597458D01*
X75051425Y-74617760D01*
X75051414Y-74617761D01*
X74707575Y-74678389D01*
X74707567Y-74678391D01*
X74373068Y-74778533D01*
X74052470Y-74916826D01*
X74052457Y-74916832D01*
X73750080Y-75091410D01*
X73470003Y-75299918D01*
X73470000Y-75299920D01*
X73216032Y-75539529D01*
X73216022Y-75539539D01*
X72991593Y-75807002D01*
X72799720Y-76098732D01*
X72643021Y-76410746D01*
X72643020Y-76410747D01*
X72523598Y-76738854D01*
X72523594Y-76738869D01*
X72443075Y-77078598D01*
X72443073Y-77078613D01*
X72402538Y-77425424D01*
X63222293Y-77425424D01*
X64200000Y-70500000D01*
X41000000Y-70500000D01*
X37300000Y-95999999D01*
X29918301Y-95999999D01*
X33593673Y-69845023D01*
X33622495Y-69781375D01*
X33633931Y-69769737D01*
X40964728Y-63231459D01*
X41027861Y-63201527D01*
X41047264Y-63200000D01*
X66541922Y-63200000D01*
X66608961Y-63219685D01*
G37*
%LPC*%
D12*
G04 #@! TO.C,D59*
X169212500Y-133500000D03*
X170787500Y-133500000D03*
G04 #@! TD*
G04 #@! TO.C,D8*
X57712500Y-67000000D03*
X59287500Y-67000000D03*
G04 #@! TD*
G04 #@! TO.C,D20*
X53212500Y-100000000D03*
X54787500Y-100000000D03*
G04 #@! TD*
D13*
G04 #@! TO.C,D42*
X246000000Y-76712499D03*
X246000000Y-78287501D03*
G04 #@! TD*
D12*
G04 #@! TO.C,D60*
X180212500Y-133500000D03*
X181787500Y-133500000D03*
G04 #@! TD*
D13*
G04 #@! TO.C,D26*
X110000000Y-110712499D03*
X110000000Y-112287501D03*
G04 #@! TD*
D12*
G04 #@! TO.C,D6*
X135212500Y-114000000D03*
X136787500Y-114000000D03*
G04 #@! TD*
D13*
G04 #@! TO.C,D53*
X210500000Y-111212499D03*
X210500000Y-112787501D03*
G04 #@! TD*
D14*
G04 #@! TO.C,C5*
X149225000Y-85000000D03*
X150775000Y-85000000D03*
G04 #@! TD*
D15*
G04 #@! TO.C,R2*
X122690001Y-112000000D03*
X123709999Y-112000000D03*
G04 #@! TD*
D16*
G04 #@! TO.C,U5*
X144460000Y-81500000D03*
X147000000Y-81500000D03*
X149540000Y-81500000D03*
G04 #@! TD*
D17*
G04 #@! TO.C,R1*
X143500000Y-93990001D03*
X143500000Y-95009999D03*
G04 #@! TD*
D12*
G04 #@! TO.C,D36*
X189212500Y-67000000D03*
X190787500Y-67000000D03*
G04 #@! TD*
D18*
G04 #@! TO.C,C6*
X148775000Y-97250000D03*
X147225000Y-97250000D03*
G04 #@! TD*
D19*
G04 #@! TO.C,C4*
X132725001Y-92000000D03*
X129774999Y-92000000D03*
G04 #@! TD*
D20*
G04 #@! TO.C,R3*
X147519998Y-109500000D03*
X146500000Y-109500000D03*
G04 #@! TD*
D12*
G04 #@! TO.C,D5*
X139212500Y-85800000D03*
X140787500Y-85800000D03*
G04 #@! TD*
D13*
G04 #@! TO.C,D24*
X62000000Y-110712499D03*
X62000000Y-112287501D03*
G04 #@! TD*
G04 #@! TO.C,D29*
X77500000Y-122212499D03*
X77500000Y-123787501D03*
G04 #@! TD*
D12*
G04 #@! TO.C,D3*
X151612500Y-78000000D03*
X153187500Y-78000000D03*
G04 #@! TD*
D21*
G04 #@! TO.C,R4*
X153250000Y-94912500D03*
X153250000Y-93087500D03*
G04 #@! TD*
D12*
G04 #@! TO.C,D38*
X237212500Y-67000000D03*
X238787500Y-67000000D03*
G04 #@! TD*
D13*
G04 #@! TO.C,D17*
X82000000Y-88712499D03*
X82000000Y-90287501D03*
G04 #@! TD*
D12*
G04 #@! TO.C,D49*
X221212500Y-100000000D03*
X222787500Y-100000000D03*
G04 #@! TD*
G04 #@! TO.C,D22*
X101212500Y-100000000D03*
X102787500Y-100000000D03*
G04 #@! TD*
D20*
G04 #@! TO.C,R14*
X135009999Y-82000000D03*
X133990001Y-82000000D03*
G04 #@! TD*
D13*
G04 #@! TO.C,D54*
X241000000Y-110712499D03*
X241000000Y-112287501D03*
G04 #@! TD*
D20*
G04 #@! TO.C,R12*
X135009999Y-81000000D03*
X133990001Y-81000000D03*
G04 #@! TD*
D13*
G04 #@! TO.C,D18*
X113000000Y-88712499D03*
X113000000Y-90287501D03*
G04 #@! TD*
G04 #@! TO.C,D58*
X239750000Y-122712499D03*
X239750000Y-124287501D03*
G04 #@! TD*
D22*
G04 #@! TO.C,C1*
X123200000Y-113425000D03*
X123200000Y-114975000D03*
G04 #@! TD*
D12*
G04 #@! TO.C,D19*
X41712500Y-100000000D03*
X43287500Y-100000000D03*
G04 #@! TD*
D13*
G04 #@! TO.C,D39*
X167500000Y-76712499D03*
X167500000Y-78287501D03*
G04 #@! TD*
G04 #@! TO.C,D15*
X34500000Y-88712499D03*
X34500000Y-90287501D03*
G04 #@! TD*
G04 #@! TO.C,D28*
X60500000Y-122712499D03*
X60500000Y-124287501D03*
G04 #@! TD*
D12*
G04 #@! TO.C,D35*
X177712500Y-67000000D03*
X179287500Y-67000000D03*
G04 #@! TD*
D13*
G04 #@! TO.C,D44*
X196500000Y-88712499D03*
X196500000Y-90287501D03*
G04 #@! TD*
D23*
G04 #@! TO.C,U3*
X125492500Y-97400000D03*
X124857500Y-97400000D03*
X124222500Y-97400000D03*
X123587500Y-97399999D03*
X122952500Y-97400000D03*
X122317500Y-97400000D03*
X121682500Y-97400000D03*
X121047500Y-97400000D03*
X120412500Y-97399999D03*
X119777500Y-97400000D03*
X119142500Y-97400000D03*
X118507500Y-97400000D03*
X118507500Y-102600000D03*
X119142500Y-102600000D03*
X119777500Y-102600000D03*
X120412500Y-102600001D03*
X121047500Y-102600000D03*
X121682500Y-102600000D03*
X122317500Y-102600000D03*
X122952500Y-102600000D03*
X123587500Y-102600001D03*
X124222500Y-102600000D03*
X124857500Y-102600000D03*
X125492500Y-102600000D03*
G04 #@! TD*
D13*
G04 #@! TO.C,D23*
X31000000Y-111212499D03*
X31000000Y-112787501D03*
G04 #@! TD*
D12*
G04 #@! TO.C,D21*
X89212500Y-100000000D03*
X90787500Y-100000000D03*
G04 #@! TD*
D13*
G04 #@! TO.C,D13*
X84000000Y-76712499D03*
X84000000Y-78287501D03*
G04 #@! TD*
G04 #@! TO.C,D16*
X65000000Y-88712499D03*
X65000000Y-90287501D03*
G04 #@! TD*
D20*
G04 #@! TO.C,R8*
X149509999Y-115000000D03*
X148490001Y-115000000D03*
G04 #@! TD*
D13*
G04 #@! TO.C,D55*
X161500000Y-122212499D03*
X161500000Y-123787501D03*
G04 #@! TD*
G04 #@! TO.C,D43*
X166000000Y-88712499D03*
X166000000Y-90287501D03*
G04 #@! TD*
D23*
G04 #@! TO.C,U1*
X151007500Y-102600000D03*
X151642500Y-102600000D03*
X152277500Y-102600000D03*
X152912500Y-102600001D03*
X153547500Y-102600000D03*
X154182500Y-102600000D03*
X154817500Y-102600000D03*
X155452500Y-102600000D03*
X156087500Y-102600001D03*
X156722500Y-102600000D03*
X157357500Y-102600000D03*
X157992500Y-102600000D03*
X157992500Y-97400000D03*
X157357500Y-97400000D03*
X156722500Y-97400000D03*
X156087500Y-97399999D03*
X155452500Y-97400000D03*
X154817500Y-97400000D03*
X154182500Y-97400000D03*
X153547500Y-97400000D03*
X152912500Y-97399999D03*
X152277500Y-97400000D03*
X151642500Y-97400000D03*
X151007500Y-97400000D03*
G04 #@! TD*
D12*
G04 #@! TO.C,D10*
X105712500Y-67000000D03*
X107287500Y-67000000D03*
G04 #@! TD*
D13*
G04 #@! TO.C,D27*
X29500000Y-122212499D03*
X29500000Y-123787501D03*
G04 #@! TD*
D15*
G04 #@! TO.C,R5*
X128990001Y-81000000D03*
X130009999Y-81000000D03*
G04 #@! TD*
D13*
G04 #@! TO.C,D46*
X244500000Y-88712499D03*
X244500000Y-90287501D03*
G04 #@! TD*
D12*
G04 #@! TO.C,D4*
X145612500Y-121000000D03*
X147187500Y-121000000D03*
G04 #@! TD*
D13*
G04 #@! TO.C,D12*
X66500000Y-76712499D03*
X66500000Y-78287501D03*
G04 #@! TD*
D12*
G04 #@! TO.C,D7*
X46712500Y-67000000D03*
X48287500Y-67000000D03*
G04 #@! TD*
D13*
G04 #@! TO.C,D11*
X36000000Y-76712499D03*
X36000000Y-78287501D03*
G04 #@! TD*
D12*
G04 #@! TO.C,D32*
X48712500Y-133500000D03*
X50287500Y-133500000D03*
G04 #@! TD*
D24*
G04 #@! TO.C,C3*
X136710000Y-99250001D03*
X136710000Y-96299999D03*
G04 #@! TD*
D13*
G04 #@! TO.C,D14*
X114500000Y-76712499D03*
X114500000Y-78287501D03*
G04 #@! TD*
D25*
G04 #@! TO.C,D2*
X129500000Y-79287501D03*
X129500000Y-77712499D03*
G04 #@! TD*
D13*
G04 #@! TO.C,D41*
X216000000Y-76712499D03*
X216000000Y-78287501D03*
G04 #@! TD*
D12*
G04 #@! TO.C,D48*
X184712500Y-100000000D03*
X186287500Y-100000000D03*
G04 #@! TD*
D20*
G04 #@! TO.C,R7*
X155509999Y-78000000D03*
X154490001Y-78000000D03*
G04 #@! TD*
D13*
G04 #@! TO.C,D52*
X193000000Y-110712499D03*
X193000000Y-112287501D03*
G04 #@! TD*
D26*
G04 #@! TO.C,R6*
X131000000Y-79009999D03*
X131000000Y-77990001D03*
G04 #@! TD*
D12*
G04 #@! TO.C,D34*
X96212500Y-133500000D03*
X97787500Y-133500000D03*
G04 #@! TD*
D13*
G04 #@! TO.C,D40*
X198500000Y-76712499D03*
X198500000Y-78287501D03*
G04 #@! TD*
D12*
G04 #@! TO.C,D47*
X173212500Y-100000000D03*
X174787500Y-100000000D03*
G04 #@! TD*
D27*
G04 #@! TO.C,D1*
X137600000Y-80500000D03*
D28*
X138870000Y-80500000D03*
X140140000Y-80500000D03*
X141410000Y-80500000D03*
G04 #@! TD*
D13*
G04 #@! TO.C,D56*
X191500000Y-122712499D03*
X191500000Y-124287501D03*
G04 #@! TD*
D12*
G04 #@! TO.C,D9*
X94212500Y-67000000D03*
X95787500Y-67000000D03*
G04 #@! TD*
G04 #@! TO.C,D33*
X84712500Y-133500000D03*
X86287500Y-133500000D03*
G04 #@! TD*
D20*
G04 #@! TO.C,R9*
X143109999Y-85800000D03*
X142090001Y-85800000D03*
G04 #@! TD*
D13*
G04 #@! TO.C,D25*
X79000000Y-111212499D03*
X79000000Y-112787501D03*
G04 #@! TD*
D12*
G04 #@! TO.C,D31*
X37212500Y-133500000D03*
X38787500Y-133500000D03*
G04 #@! TD*
G04 #@! TO.C,D62*
X227962500Y-133500000D03*
X229537500Y-133500000D03*
G04 #@! TD*
D26*
G04 #@! TO.C,R15*
X144500000Y-85509999D03*
X144500000Y-84490001D03*
G04 #@! TD*
D12*
G04 #@! TO.C,D50*
X232712500Y-100000000D03*
X234287500Y-100000000D03*
G04 #@! TD*
D13*
G04 #@! TO.C,D45*
X214000000Y-88712499D03*
X214000000Y-90287501D03*
G04 #@! TD*
D29*
G04 #@! TO.C,R11*
X122500000Y-106587500D03*
X122500000Y-108412500D03*
G04 #@! TD*
D20*
G04 #@! TO.C,R13*
X135009999Y-83000000D03*
X133990001Y-83000000D03*
G04 #@! TD*
D30*
G04 #@! TO.C,U4*
X129265000Y-100800000D03*
X131565000Y-100800000D03*
D31*
X131565000Y-94500000D03*
D30*
X133865000Y-100800000D03*
G04 #@! TD*
D13*
G04 #@! TO.C,D51*
X163000000Y-111212499D03*
X163000000Y-112787501D03*
G04 #@! TD*
G04 #@! TO.C,D30*
X108500000Y-122712499D03*
X108500000Y-124287501D03*
G04 #@! TD*
D12*
G04 #@! TO.C,D61*
X216712500Y-133500000D03*
X218287500Y-133500000D03*
G04 #@! TD*
G04 #@! TO.C,D37*
X226212500Y-67000000D03*
X227787500Y-67000000D03*
G04 #@! TD*
D20*
G04 #@! TO.C,R10*
X139009999Y-114000000D03*
X137990001Y-114000000D03*
G04 #@! TD*
D13*
G04 #@! TO.C,D57*
X208750000Y-122212499D03*
X208750000Y-123787501D03*
G04 #@! TD*
D22*
G04 #@! TO.C,C2*
X125500000Y-104475000D03*
X125500000Y-106025000D03*
G04 #@! TD*
D32*
G04 #@! TO.C,SW1*
X134262500Y-78202500D03*
X127252500Y-78202500D03*
D33*
X133012500Y-75275000D03*
X128512500Y-75275000D03*
G04 #@! TD*
%LPD*%
M02*
