G04 #@! TF.GenerationSoftware,KiCad,Pcbnew,9.0.1-unknown-1000.20250420git906ef8b.fc41*
G04 #@! TF.CreationDate,2025-04-27T16:22:33-07:00*
G04 #@! TF.ProjectId,2024-clock-retrofit,32303234-2d63-46c6-9f63-6b2d72657472,rev?*
G04 #@! TF.SameCoordinates,Original*
G04 #@! TF.FileFunction,Copper,L2,Bot*
G04 #@! TF.FilePolarity,Positive*
%FSLAX46Y46*%
G04 Gerber Fmt 4.6, Leading zero omitted, Abs format (unit mm)*
G04 Created by KiCad (PCBNEW 9.0.1-unknown-1000.20250420git906ef8b.fc41) date 2025-04-27 16:22:33*
%MOMM*%
%LPD*%
G01*
G04 APERTURE LIST*
G04 #@! TA.AperFunction,HeatsinkPad*
%ADD10O,1.600000X3.200000*%
G04 #@! TD*
G04 #@! TA.AperFunction,ComponentPad*
%ADD11R,1.000000X2.500000*%
G04 #@! TD*
G04 #@! TA.AperFunction,ComponentPad*
%ADD12O,1.000000X2.500000*%
G04 #@! TD*
G04 #@! TA.AperFunction,SMDPad,CuDef*
%ADD13R,1.500000X0.900000*%
G04 #@! TD*
G04 #@! TA.AperFunction,SMDPad,CuDef*
%ADD14R,0.900000X1.500000*%
G04 #@! TD*
G04 #@! TA.AperFunction,SMDPad,CuDef*
%ADD15R,0.900000X0.900000*%
G04 #@! TD*
G04 #@! TA.AperFunction,HeatsinkPad*
%ADD16C,0.800000*%
G04 #@! TD*
G04 #@! TA.AperFunction,SMDPad,CuDef*
%ADD17R,3.800000X3.800000*%
G04 #@! TD*
G04 #@! TA.AperFunction,SMDPad,CuDef*
%ADD18C,2.000000*%
G04 #@! TD*
G04 #@! TA.AperFunction,ComponentPad*
%ADD19C,2.600000*%
G04 #@! TD*
G04 #@! TA.AperFunction,ComponentPad*
%ADD20O,1.750000X2.625000*%
G04 #@! TD*
G04 #@! TA.AperFunction,ViaPad*
%ADD21C,0.800000*%
G04 #@! TD*
G04 #@! TA.AperFunction,Conductor*
%ADD22C,0.250000*%
G04 #@! TD*
G04 #@! TA.AperFunction,Conductor*
%ADD23C,0.500000*%
G04 #@! TD*
G04 #@! TA.AperFunction,Conductor*
%ADD24C,1.000000*%
G04 #@! TD*
G04 APERTURE END LIST*
D10*
G04 #@! TO.P,U5,1,SIGNAL*
G04 #@! TO.N,/IR_SIGNAL*
X144460000Y-81500000D03*
G04 #@! TO.P,U5,2,GND*
G04 #@! TO.N,GND*
X147000000Y-81500000D03*
G04 #@! TO.P,U5,3,VCC*
G04 #@! TO.N,+3.3V*
X149540000Y-81500000D03*
G04 #@! TD*
D11*
G04 #@! TO.P,D1,1,RK*
G04 #@! TO.N,Net-(D1-RK)*
X137600000Y-80500000D03*
D12*
G04 #@! TO.P,D1,2,A*
G04 #@! TO.N,+3.3V*
X138870000Y-80500000D03*
G04 #@! TO.P,D1,3,GK*
G04 #@! TO.N,Net-(D1-GK)*
X140140000Y-80500000D03*
G04 #@! TO.P,D1,4,BK*
G04 #@! TO.N,Net-(D1-BK)*
X141410000Y-80500000D03*
G04 #@! TD*
D13*
G04 #@! TO.P,U2,1,GND*
G04 #@! TO.N,GND*
X126250000Y-114750000D03*
G04 #@! TO.P,U2,2,VDD*
G04 #@! TO.N,+3.3V*
X126250000Y-113480000D03*
G04 #@! TO.P,U2,3,EN*
G04 #@! TO.N,Net-(U2-EN)*
X126250000Y-112210000D03*
G04 #@! TO.P,U2,4,SENSOR_VP*
G04 #@! TO.N,/SW1*
X126250000Y-110940000D03*
G04 #@! TO.P,U2,5,SENSOR_VN*
G04 #@! TO.N,unconnected-(U2-SENSOR_VN-Pad5)*
X126250000Y-109670000D03*
G04 #@! TO.P,U2,6,IO34*
G04 #@! TO.N,unconnected-(U2-IO34-Pad6)*
X126250000Y-108400000D03*
G04 #@! TO.P,U2,7,IO35*
G04 #@! TO.N,/IR_SIGNAL*
X126250000Y-107130000D03*
G04 #@! TO.P,U2,8,IO32*
G04 #@! TO.N,unconnected-(U2-IO32-Pad8)*
X126250000Y-105860000D03*
G04 #@! TO.P,U2,9,IO33*
G04 #@! TO.N,/LED_PM*
X126250000Y-104590000D03*
G04 #@! TO.P,U2,10,IO25*
G04 #@! TO.N,/LED_5MM_R*
X126250000Y-103320000D03*
G04 #@! TO.P,U2,11,IO26*
G04 #@! TO.N,/LED_5MM_G*
X126250000Y-102050000D03*
G04 #@! TO.P,U2,12,IO27*
G04 #@! TO.N,/LED_5MM_B*
X126250000Y-100780000D03*
G04 #@! TO.P,U2,13,IO14*
G04 #@! TO.N,/LED_CLK*
X126250000Y-99510000D03*
G04 #@! TO.P,U2,14,IO12*
G04 #@! TO.N,unconnected-(U2-IO12-Pad14)*
X126250000Y-98240000D03*
D14*
G04 #@! TO.P,U2,15,GND*
G04 #@! TO.N,GND*
X129290000Y-96990000D03*
G04 #@! TO.P,U2,16,IO13*
G04 #@! TO.N,/LED_MOSI*
X130560000Y-96990000D03*
G04 #@! TO.P,U2,17,SHD/SD2*
G04 #@! TO.N,unconnected-(U2-SHD{slash}SD2-Pad17)*
X131830000Y-96990000D03*
G04 #@! TO.P,U2,18,SWP/SD3*
G04 #@! TO.N,unconnected-(U2-SWP{slash}SD3-Pad18)*
X133100000Y-96990000D03*
G04 #@! TO.P,U2,19,SCS/CMD*
G04 #@! TO.N,unconnected-(U2-SCS{slash}CMD-Pad19)*
X134370000Y-96990000D03*
G04 #@! TO.P,U2,20,SCK/CLK*
G04 #@! TO.N,unconnected-(U2-SCK{slash}CLK-Pad20)*
X135640000Y-96990000D03*
G04 #@! TO.P,U2,21,SDO/SD0*
G04 #@! TO.N,unconnected-(U2-SDO{slash}SD0-Pad21)*
X136910000Y-96990000D03*
G04 #@! TO.P,U2,22,SDI/SD1*
G04 #@! TO.N,unconnected-(U2-SDI{slash}SD1-Pad22)*
X138180000Y-96990000D03*
G04 #@! TO.P,U2,23,IO15*
G04 #@! TO.N,unconnected-(U2-IO15-Pad23)*
X139450000Y-96990000D03*
G04 #@! TO.P,U2,24,IO2*
G04 #@! TO.N,unconnected-(U2-IO2-Pad24)*
X140720000Y-96990000D03*
D13*
G04 #@! TO.P,U2,25,IO0*
G04 #@! TO.N,/IO0*
X143750000Y-98240000D03*
G04 #@! TO.P,U2,26,IO4*
G04 #@! TO.N,/LED_TOP*
X143750000Y-99510000D03*
G04 #@! TO.P,U2,27,IO16*
G04 #@! TO.N,unconnected-(U2-IO16-Pad27)*
X143750000Y-100780000D03*
G04 #@! TO.P,U2,28,IO17*
G04 #@! TO.N,/LED_AL*
X143750000Y-102050000D03*
G04 #@! TO.P,U2,29,IO5*
G04 #@! TO.N,unconnected-(U2-IO5-Pad29)*
X143750000Y-103320000D03*
G04 #@! TO.P,U2,30,IO18*
G04 #@! TO.N,/LED_LE*
X143750000Y-104590000D03*
G04 #@! TO.P,U2,31,IO19*
G04 #@! TO.N,unconnected-(U2-IO19-Pad31)*
X143750000Y-105860000D03*
G04 #@! TO.P,U2,32,NC*
G04 #@! TO.N,unconnected-(U2-NC-Pad32)*
X143750000Y-107130000D03*
G04 #@! TO.P,U2,33,IO21*
G04 #@! TO.N,/~{LED_OE}*
X143750000Y-108400000D03*
G04 #@! TO.P,U2,34,RXD0/IO3*
G04 #@! TO.N,/RXD0*
X143750000Y-109670000D03*
G04 #@! TO.P,U2,35,TXD0/IO1*
G04 #@! TO.N,/TXD0*
X143750000Y-110940000D03*
G04 #@! TO.P,U2,36,IO22*
G04 #@! TO.N,/LED_TEMP*
X143750000Y-112210000D03*
G04 #@! TO.P,U2,37,IO23*
G04 #@! TO.N,/LED_BOTT*
X143750000Y-113480000D03*
G04 #@! TO.P,U2,38,GND*
G04 #@! TO.N,GND*
X143750000Y-114750000D03*
D15*
G04 #@! TO.P,U2,39,GND*
X132100000Y-105630000D03*
D16*
X132100000Y-106330000D03*
D15*
X132100000Y-107030000D03*
D16*
X132100000Y-107730000D03*
D15*
X132100000Y-108430000D03*
D16*
X132800000Y-105630000D03*
X132800000Y-107030000D03*
X132800000Y-108430000D03*
X133475000Y-106330000D03*
X133475000Y-107730000D03*
D15*
X133500000Y-105630000D03*
X133500000Y-107030000D03*
D17*
X133500000Y-107030000D03*
D15*
X133500000Y-108430000D03*
D16*
X134200000Y-105630000D03*
X134200000Y-107030000D03*
X134200000Y-108430000D03*
D15*
X134900000Y-105630000D03*
D16*
X134900000Y-106330000D03*
D15*
X134900000Y-107030000D03*
D16*
X134900000Y-107730000D03*
D15*
X134900000Y-108430000D03*
G04 #@! TD*
D18*
G04 #@! TO.P,TP5,1,1*
G04 #@! TO.N,/RXD0*
X154000000Y-109000000D03*
G04 #@! TD*
G04 #@! TO.P,TP7,1,1*
G04 #@! TO.N,GND*
X143500000Y-91000000D03*
G04 #@! TD*
G04 #@! TO.P,TP1,1,1*
G04 #@! TO.N,+5V*
X136400000Y-89000000D03*
G04 #@! TD*
G04 #@! TO.P,TP4,1,1*
G04 #@! TO.N,/TXD0*
X154000000Y-112000000D03*
G04 #@! TD*
D19*
G04 #@! TO.P,SW1,*
G04 #@! TO.N,*
X134262500Y-78202500D03*
X127252500Y-78202500D03*
D20*
G04 #@! TO.P,SW1,1,1*
G04 #@! TO.N,GND*
X133012500Y-75275000D03*
G04 #@! TO.P,SW1,2,2*
G04 #@! TO.N,/SW1*
X128512500Y-75275000D03*
G04 #@! TD*
D18*
G04 #@! TO.P,TP2,1,1*
G04 #@! TO.N,GND*
X133400000Y-89000000D03*
G04 #@! TD*
G04 #@! TO.P,TP6,1,1*
G04 #@! TO.N,GND*
X154000000Y-106000000D03*
G04 #@! TD*
G04 #@! TO.P,TP3,1,1*
G04 #@! TO.N,/IO0*
X143500000Y-94000000D03*
G04 #@! TD*
D21*
G04 #@! TO.N,Net-(U2-EN)*
X125000000Y-112200000D03*
G04 #@! TO.N,/LED_LE*
X140600000Y-103725000D03*
G04 #@! TO.N,/~{LED_OE}*
X151900000Y-104900000D03*
X142250000Y-108250000D03*
X152940171Y-101075639D03*
G04 #@! TO.N,/LED_MOSI*
X129600000Y-103600000D03*
G04 #@! TO.N,/LED_CLK*
X127600000Y-99400000D03*
G04 #@! TO.N,GND*
X130210000Y-99275000D03*
X124750000Y-115250000D03*
X153300000Y-91900000D03*
X134400000Y-94600000D03*
X154000000Y-106000000D03*
X147700000Y-98400000D03*
X150100000Y-102400000D03*
X128213612Y-100678467D03*
X127600000Y-115400000D03*
X136600000Y-94600000D03*
X128710000Y-99275000D03*
X126600000Y-97100000D03*
X135600000Y-94600000D03*
X124500000Y-105500000D03*
G04 #@! TO.N,/RXD0*
X145500000Y-109500000D03*
G04 #@! TO.N,+3.3V*
X139997753Y-86719320D03*
X147000000Y-104600000D03*
X147000000Y-100800000D03*
X127800000Y-111400000D03*
X130489252Y-79972946D03*
X132500000Y-80000000D03*
X124400000Y-113400000D03*
X140500000Y-94000000D03*
X127800000Y-108400000D03*
G04 #@! TO.N,/IO0*
X143500000Y-96000000D03*
G04 #@! TO.N,/LED_PM*
X122500000Y-80000000D03*
G04 #@! TO.N,/LED_AL*
X145825000Y-85000000D03*
G04 #@! TO.N,/LED_TEMP*
X145500000Y-115000000D03*
G04 #@! TO.N,/LED_TOP*
X144750000Y-89250000D03*
G04 #@! TO.N,/LED_BOTT*
X140250000Y-113750000D03*
G04 #@! TO.N,/SW1*
X124000000Y-77000000D03*
G04 #@! TO.N,/LED_5MM_R*
X129500000Y-82500000D03*
G04 #@! TO.N,/LED_5MM_G*
X130500000Y-83000000D03*
G04 #@! TO.N,/LED_5MM_B*
X131000000Y-84000000D03*
G04 #@! TO.N,+5V*
X142200000Y-98170000D03*
X139400000Y-105800000D03*
X150500000Y-95200000D03*
X83000000Y-99250000D03*
X135580000Y-100380000D03*
X161250000Y-125500000D03*
X172250000Y-133500000D03*
X83000000Y-96750000D03*
X119000000Y-109800000D03*
X161200000Y-95200000D03*
X162500000Y-114500000D03*
X163000000Y-128500000D03*
X116000000Y-106800000D03*
X172250000Y-131750000D03*
G04 #@! TO.N,/IR_SIGNAL*
X142000000Y-82500000D03*
X123500000Y-85000000D03*
X132500000Y-84000000D03*
X121500000Y-85000000D03*
G04 #@! TD*
D22*
G04 #@! TO.N,Net-(U2-EN)*
X126240000Y-112200000D02*
X126250000Y-112210000D01*
X125000000Y-112200000D02*
X126240000Y-112200000D01*
G04 #@! TO.N,/LED_LE*
X141465000Y-104590000D02*
X140600000Y-103725000D01*
X143750000Y-104590000D02*
X141465000Y-104590000D01*
G04 #@! TO.N,/~{LED_OE}*
X152900000Y-103900000D02*
X152900000Y-101115810D01*
X142400000Y-108400000D02*
X143750000Y-108400000D01*
X142250000Y-108250000D02*
X142400000Y-108400000D01*
X151900000Y-104900000D02*
X152900000Y-103900000D01*
X152900000Y-101115810D02*
X152940171Y-101075639D01*
G04 #@! TO.N,/LED_MOSI*
X130560000Y-96990000D02*
X130560000Y-98190000D01*
X129600000Y-103600000D02*
X130985000Y-102215000D01*
X130560000Y-98190000D02*
X130985000Y-98615000D01*
X130985000Y-98615000D02*
X130985000Y-102215000D01*
G04 #@! TO.N,/LED_CLK*
X126250000Y-99510000D02*
X127490000Y-99510000D01*
X127490000Y-99510000D02*
X127600000Y-99400000D01*
G04 #@! TO.N,/RXD0*
X146500000Y-109500000D02*
X145500000Y-109500000D01*
X145330000Y-109670000D02*
X143750000Y-109670000D01*
X154000000Y-109000000D02*
X152500000Y-107500000D01*
X148500000Y-107500000D02*
X146500000Y-109500000D01*
X152500000Y-107500000D02*
X148500000Y-107500000D01*
X145500000Y-109500000D02*
X145330000Y-109670000D01*
D23*
G04 #@! TO.N,+3.3V*
X140500000Y-87221567D02*
X139997753Y-86719320D01*
D22*
X132500000Y-80000000D02*
X130516306Y-80000000D01*
D23*
X124400000Y-113400000D02*
X126170000Y-113400000D01*
X126170000Y-113400000D02*
X126250000Y-113480000D01*
D24*
X147000000Y-100800000D02*
X147000000Y-104600000D01*
D23*
X127800000Y-111400000D02*
X127800000Y-108400000D01*
D22*
X130516306Y-80000000D02*
X130489252Y-79972946D01*
D23*
X140500000Y-94000000D02*
X140500000Y-87221567D01*
D22*
G04 #@! TO.N,/IO0*
X143500000Y-96000000D02*
X143500000Y-97990000D01*
X143500000Y-97990000D02*
X143750000Y-98240000D01*
X143500000Y-94000000D02*
X143500000Y-96000000D01*
G04 #@! TO.N,/TXD0*
X154000000Y-112000000D02*
X152625000Y-110625000D01*
X147875000Y-110625000D02*
X147560000Y-110940000D01*
X152625000Y-110625000D02*
X147875000Y-110625000D01*
X147560000Y-110940000D02*
X143750000Y-110940000D01*
G04 #@! TO.N,/LED_PM*
X125590000Y-104590000D02*
X126250000Y-104590000D01*
X122500000Y-101500000D02*
X125590000Y-104590000D01*
X122500000Y-80000000D02*
X122500000Y-101500000D01*
G04 #@! TO.N,/LED_AL*
X145825000Y-100975000D02*
X145825000Y-85000000D01*
X143750000Y-102050000D02*
X144750000Y-102050000D01*
X144750000Y-102050000D02*
X145825000Y-100975000D01*
G04 #@! TO.N,/LED_TEMP*
X145500000Y-112960000D02*
X145500000Y-115000000D01*
X143750000Y-112210000D02*
X144750000Y-112210000D01*
X144750000Y-112210000D02*
X145500000Y-112960000D01*
G04 #@! TO.N,/LED_TOP*
X145000000Y-89500000D02*
X144750000Y-89250000D01*
X143750000Y-99510000D02*
X144750000Y-99510000D01*
X144750000Y-99510000D02*
X145000000Y-99260000D01*
X145000000Y-99260000D02*
X145000000Y-89500000D01*
G04 #@! TO.N,/LED_BOTT*
X140250000Y-113750000D02*
X140520000Y-113480000D01*
X140520000Y-113480000D02*
X143750000Y-113480000D01*
G04 #@! TO.N,/SW1*
X121500000Y-86096016D02*
X120725000Y-85321016D01*
X121500000Y-107190000D02*
X121500000Y-86096016D01*
X120725000Y-80275000D02*
X124000000Y-77000000D01*
X126250000Y-110940000D02*
X125250000Y-110940000D01*
X125250000Y-110940000D02*
X121500000Y-107190000D01*
X120725000Y-85321016D02*
X120725000Y-80275000D01*
G04 #@! TO.N,/LED_5MM_R*
X123000000Y-90000000D02*
X129500000Y-83500000D01*
X129500000Y-83500000D02*
X129500000Y-82500000D01*
X126250000Y-103320000D02*
X125250000Y-103320000D01*
X125250000Y-103320000D02*
X123000000Y-101070000D01*
X123000000Y-101070000D02*
X123000000Y-90000000D01*
G04 #@! TO.N,/LED_5MM_G*
X130500000Y-83000000D02*
X130000000Y-83500000D01*
X130000000Y-83500000D02*
X130000000Y-84500000D01*
X125250000Y-102050000D02*
X126250000Y-102050000D01*
X130000000Y-84500000D02*
X123500000Y-91000000D01*
X123500000Y-91000000D02*
X123500000Y-100300000D01*
X123500000Y-100300000D02*
X125250000Y-102050000D01*
G04 #@! TO.N,/LED_5MM_B*
X131000000Y-84403984D02*
X131000000Y-84000000D01*
X125250000Y-100780000D02*
X124000000Y-99530000D01*
X124000000Y-99530000D02*
X124000000Y-91403984D01*
X126250000Y-100780000D02*
X125250000Y-100780000D01*
X124000000Y-91403984D02*
X131000000Y-84403984D01*
D24*
G04 #@! TO.N,+5V*
X142200000Y-96000000D02*
X142200000Y-98170000D01*
X141600000Y-95400000D02*
X142200000Y-96000000D01*
X138200000Y-90800000D02*
X138200000Y-94400000D01*
X136400000Y-89000000D02*
X138200000Y-90800000D01*
X162500000Y-114500000D02*
X161250000Y-115750000D01*
X83000000Y-96750000D02*
X83000000Y-99250000D01*
X142200000Y-98170000D02*
X139990000Y-100380000D01*
X138200000Y-94400000D02*
X139200000Y-95400000D01*
X161250000Y-126750000D02*
X163000000Y-128500000D01*
X161250000Y-125500000D02*
X161250000Y-126750000D01*
X116000000Y-106800000D02*
X119000000Y-109800000D01*
X139990000Y-100380000D02*
X139400000Y-100380000D01*
X139400000Y-100380000D02*
X135580000Y-100380000D01*
X172250000Y-131750000D02*
X172250000Y-133500000D01*
X139400000Y-105800000D02*
X139400000Y-100380000D01*
X139200000Y-95400000D02*
X141600000Y-95400000D01*
X161200000Y-95200000D02*
X150500000Y-95200000D01*
X161250000Y-115750000D02*
X161250000Y-125500000D01*
D22*
G04 #@! TO.N,/IR_SIGNAL*
X125000000Y-85000000D02*
X128500000Y-81500000D01*
X122000000Y-104500000D02*
X122000000Y-85500000D01*
X143000000Y-81500000D02*
X144460000Y-81500000D01*
X122000000Y-85500000D02*
X121500000Y-85000000D01*
X123500000Y-85000000D02*
X125000000Y-85000000D01*
X128500000Y-81500000D02*
X130500000Y-81500000D01*
X130500000Y-81500000D02*
X132500000Y-83500000D01*
X124000000Y-106500000D02*
X124275000Y-106775000D01*
X142000000Y-82500000D02*
X143000000Y-81500000D01*
X124275000Y-106775000D02*
X122000000Y-104500000D01*
X126250000Y-107130000D02*
X124630000Y-107130000D01*
X124630000Y-107130000D02*
X124000000Y-106500000D01*
X132500000Y-83500000D02*
X132500000Y-84000000D01*
G04 #@! TD*
G04 #@! TA.AperFunction,Conductor*
G04 #@! TO.N,GND*
G36*
X122580703Y-102112186D02*
G01*
X122587181Y-102118218D01*
X125213181Y-104744218D01*
X125246666Y-104805541D01*
X125249500Y-104831899D01*
X125249500Y-105064678D01*
X125264032Y-105137735D01*
X125264033Y-105137738D01*
X125264033Y-105137739D01*
X125264034Y-105137740D01*
X125276308Y-105156109D01*
X125276309Y-105156111D01*
X125297185Y-105222789D01*
X125278699Y-105290169D01*
X125276309Y-105293889D01*
X125264033Y-105312261D01*
X125264032Y-105312264D01*
X125249500Y-105385321D01*
X125249500Y-106334678D01*
X125264032Y-106407735D01*
X125264033Y-106407738D01*
X125276309Y-106426111D01*
X125297185Y-106492789D01*
X125290834Y-106534235D01*
X125285562Y-106550040D01*
X125264034Y-106582260D01*
X125249500Y-106655326D01*
X125249500Y-106658156D01*
X125245638Y-106669735D01*
X125229964Y-106692278D01*
X125217241Y-106716602D01*
X125210308Y-106720549D01*
X125205753Y-106727102D01*
X125180379Y-106737592D01*
X125156526Y-106751176D01*
X125143992Y-106752636D01*
X125141184Y-106753798D01*
X125138383Y-106753290D01*
X125128009Y-106754500D01*
X124836899Y-106754500D01*
X124769860Y-106734815D01*
X124749218Y-106718181D01*
X124582545Y-106551508D01*
X124582543Y-106551505D01*
X122411819Y-104380781D01*
X122378334Y-104319458D01*
X122375500Y-104293100D01*
X122375500Y-102205899D01*
X122395185Y-102138860D01*
X122447989Y-102093105D01*
X122517147Y-102083161D01*
X122580703Y-102112186D01*
G37*
G04 #@! TD.AperFunction*
G04 #@! TA.AperFunction,Conductor*
G36*
X66374539Y-63720185D02*
G01*
X66402758Y-63745116D01*
X71070759Y-69346717D01*
X71098555Y-69410819D01*
X71099500Y-69426099D01*
X71099500Y-71665891D01*
X71133608Y-71793187D01*
X71166554Y-71850250D01*
X71199500Y-71907314D01*
X71292686Y-72000500D01*
X71406814Y-72066392D01*
X71534108Y-72100500D01*
X71534110Y-72100500D01*
X81665890Y-72100500D01*
X81665892Y-72100500D01*
X81793186Y-72066392D01*
X81907314Y-72000500D01*
X82000500Y-71907314D01*
X82066392Y-71793186D01*
X82100500Y-71665892D01*
X82100500Y-70079813D01*
X82120185Y-70012774D01*
X82141961Y-69987274D01*
X87474667Y-65231076D01*
X89155497Y-63731959D01*
X89218630Y-63702027D01*
X89238033Y-63700500D01*
X114107500Y-63700500D01*
X114174539Y-63720185D01*
X114202758Y-63745116D01*
X118870759Y-69346717D01*
X118898555Y-69410819D01*
X118899500Y-69426099D01*
X118899500Y-73265891D01*
X118933608Y-73393187D01*
X118966554Y-73450250D01*
X118999500Y-73507314D01*
X119092686Y-73600500D01*
X119206814Y-73666392D01*
X119334108Y-73700500D01*
X119334110Y-73700500D01*
X127780999Y-73700500D01*
X127848038Y-73720185D01*
X127893793Y-73772989D01*
X127903737Y-73842147D01*
X127874712Y-73905703D01*
X127853886Y-73924816D01*
X127779286Y-73979017D01*
X127779284Y-73979019D01*
X127779283Y-73979019D01*
X127654019Y-74104283D01*
X127654019Y-74104284D01*
X127654017Y-74104286D01*
X127633002Y-74133211D01*
X127549886Y-74247609D01*
X127469457Y-74405457D01*
X127469456Y-74405460D01*
X127414714Y-74573943D01*
X127387000Y-74748921D01*
X127387000Y-75801078D01*
X127414714Y-75976056D01*
X127469456Y-76144539D01*
X127469457Y-76144542D01*
X127513317Y-76230620D01*
X127549886Y-76302390D01*
X127654017Y-76445714D01*
X127654019Y-76445716D01*
X127681867Y-76473564D01*
X127715352Y-76534887D01*
X127710368Y-76604579D01*
X127668496Y-76660512D01*
X127603032Y-76684929D01*
X127574788Y-76683718D01*
X127410810Y-76657746D01*
X127374527Y-76652000D01*
X127130473Y-76652000D01*
X127076731Y-76660512D01*
X126889427Y-76690178D01*
X126657312Y-76765597D01*
X126439857Y-76876396D01*
X126242423Y-77019839D01*
X126242418Y-77019843D01*
X126069843Y-77192418D01*
X126069839Y-77192423D01*
X125926396Y-77389857D01*
X125815597Y-77607312D01*
X125740178Y-77839427D01*
X125712489Y-78014249D01*
X125702000Y-78080473D01*
X125702000Y-78324527D01*
X125740179Y-78565576D01*
X125815596Y-78797685D01*
X125925830Y-79014033D01*
X125926396Y-79015142D01*
X126069839Y-79212576D01*
X126069843Y-79212581D01*
X126242418Y-79385156D01*
X126242423Y-79385160D01*
X126355992Y-79467672D01*
X126439861Y-79528606D01*
X126657315Y-79639404D01*
X126889424Y-79714821D01*
X127130473Y-79753000D01*
X127130474Y-79753000D01*
X127374526Y-79753000D01*
X127374527Y-79753000D01*
X127615576Y-79714821D01*
X127847685Y-79639404D01*
X128065139Y-79528606D01*
X128262583Y-79385155D01*
X128435155Y-79212583D01*
X128578606Y-79015139D01*
X128689404Y-78797685D01*
X128764821Y-78565576D01*
X128803000Y-78324527D01*
X128803000Y-78080473D01*
X128764821Y-77839424D01*
X128689404Y-77607315D01*
X128578606Y-77389861D01*
X128533684Y-77328031D01*
X128435160Y-77192423D01*
X128435156Y-77192418D01*
X128286008Y-77043270D01*
X128252523Y-76981947D01*
X128257507Y-76912255D01*
X128299379Y-76856322D01*
X128364843Y-76831905D01*
X128393084Y-76833115D01*
X128423921Y-76838000D01*
X128423923Y-76838000D01*
X128601078Y-76838000D01*
X128601079Y-76838000D01*
X128776055Y-76810286D01*
X128944542Y-76755542D01*
X129102390Y-76675114D01*
X129245714Y-76570983D01*
X129370983Y-76445714D01*
X129475114Y-76302390D01*
X129555542Y-76144542D01*
X129610286Y-75976055D01*
X129638000Y-75801079D01*
X129638000Y-75525000D01*
X131887500Y-75525000D01*
X131887500Y-75801044D01*
X131915201Y-75975939D01*
X131969919Y-76144347D01*
X131969921Y-76144350D01*
X132050313Y-76302129D01*
X132154399Y-76445389D01*
X132279610Y-76570600D01*
X132422870Y-76674686D01*
X132580649Y-76755078D01*
X132580652Y-76755080D01*
X132749053Y-76809796D01*
X132749066Y-76809799D01*
X132762500Y-76811927D01*
X132762500Y-76139738D01*
X132821437Y-76173766D01*
X132947332Y-76207500D01*
X133077668Y-76207500D01*
X133203563Y-76173766D01*
X133262500Y-76139738D01*
X133262500Y-76811927D01*
X133269801Y-76818163D01*
X133307993Y-76876670D01*
X133308491Y-76946538D01*
X133271137Y-77005584D01*
X133262155Y-77012769D01*
X133252420Y-77019841D01*
X133079843Y-77192418D01*
X133079839Y-77192423D01*
X132936396Y-77389857D01*
X132825597Y-77607312D01*
X132750178Y-77839427D01*
X132722489Y-78014249D01*
X132712000Y-78080473D01*
X132712000Y-78324527D01*
X132750179Y-78565576D01*
X132825596Y-78797685D01*
X132935830Y-79014033D01*
X132936396Y-79015142D01*
X133079839Y-79212576D01*
X133079843Y-79212581D01*
X133252418Y-79385156D01*
X133252423Y-79385160D01*
X133365992Y-79467672D01*
X133449861Y-79528606D01*
X133667315Y-79639404D01*
X133899424Y-79714821D01*
X134140473Y-79753000D01*
X134140474Y-79753000D01*
X134384526Y-79753000D01*
X134384527Y-79753000D01*
X134625576Y-79714821D01*
X134857685Y-79639404D01*
X135075139Y-79528606D01*
X135272583Y-79385155D01*
X135432417Y-79225321D01*
X136849500Y-79225321D01*
X136849500Y-81774678D01*
X136864032Y-81847735D01*
X136864033Y-81847739D01*
X136864034Y-81847740D01*
X136919399Y-81930601D01*
X136980848Y-81971659D01*
X137002260Y-81985966D01*
X137002264Y-81985967D01*
X137075321Y-82000499D01*
X137075324Y-82000500D01*
X137075326Y-82000500D01*
X138124676Y-82000500D01*
X138124677Y-82000499D01*
X138197740Y-81985966D01*
X138280601Y-81930601D01*
X138291074Y-81914925D01*
X138344683Y-81870122D01*
X138414008Y-81861412D01*
X138463068Y-81880715D01*
X138514496Y-81915079D01*
X138514511Y-81915087D01*
X138646121Y-81969601D01*
X138651087Y-81971658D01*
X138651091Y-81971658D01*
X138651092Y-81971659D01*
X138796079Y-82000500D01*
X138796082Y-82000500D01*
X138943920Y-82000500D01*
X139041462Y-81981096D01*
X139088913Y-81971658D01*
X139194547Y-81927902D01*
X139225488Y-81915087D01*
X139225488Y-81915086D01*
X139225495Y-81915084D01*
X139348416Y-81832951D01*
X139361287Y-81820080D01*
X139417319Y-81764049D01*
X139478642Y-81730564D01*
X139548334Y-81735548D01*
X139592681Y-81764049D01*
X139661580Y-81832948D01*
X139661584Y-81832951D01*
X139784498Y-81915080D01*
X139784511Y-81915087D01*
X139916121Y-81969601D01*
X139921087Y-81971658D01*
X139921091Y-81971658D01*
X139921092Y-81971659D01*
X140066079Y-82000500D01*
X140066082Y-82000500D01*
X140213920Y-82000500D01*
X140311462Y-81981096D01*
X140358913Y-81971658D01*
X140464547Y-81927902D01*
X140495488Y-81915087D01*
X140495488Y-81915086D01*
X140495495Y-81915084D01*
X140618416Y-81832951D01*
X140631287Y-81820080D01*
X140687319Y-81764049D01*
X140748642Y-81730564D01*
X140818334Y-81735548D01*
X140862681Y-81764049D01*
X140931580Y-81832948D01*
X140931584Y-81832951D01*
X141054498Y-81915080D01*
X141054511Y-81915087D01*
X141186121Y-81969601D01*
X141191087Y-81971658D01*
X141191091Y-81971658D01*
X141191092Y-81971659D01*
X141342057Y-82001689D01*
X141341614Y-82003913D01*
X141397004Y-82026275D01*
X141437367Y-82083306D01*
X141440489Y-82153106D01*
X141425900Y-82186226D01*
X141426408Y-82186498D01*
X141423533Y-82191875D01*
X141374499Y-82310255D01*
X141374497Y-82310261D01*
X141349500Y-82435928D01*
X141349500Y-82435931D01*
X141349500Y-82564069D01*
X141349500Y-82564071D01*
X141349499Y-82564071D01*
X141374497Y-82689738D01*
X141374499Y-82689744D01*
X141423533Y-82808124D01*
X141423538Y-82808133D01*
X141494723Y-82914668D01*
X141494726Y-82914672D01*
X141585327Y-83005273D01*
X141585331Y-83005276D01*
X141691866Y-83076461D01*
X141691872Y-83076464D01*
X141691873Y-83076465D01*
X141810256Y-83125501D01*
X141810260Y-83125501D01*
X141810261Y-83125502D01*
X141935928Y-83150500D01*
X141935931Y-83150500D01*
X142064071Y-83150500D01*
X142148615Y-83133682D01*
X142189744Y-83125501D01*
X142308127Y-83076465D01*
X142414669Y-83005276D01*
X142505276Y-82914669D01*
X142576465Y-82808127D01*
X142625501Y-82689744D01*
X142650500Y-82564069D01*
X142650500Y-82435931D01*
X142650500Y-82431898D01*
X142670185Y-82364859D01*
X142686819Y-82344217D01*
X143119218Y-81911819D01*
X143146145Y-81897115D01*
X143171964Y-81880523D01*
X143178164Y-81879631D01*
X143180541Y-81878334D01*
X143206899Y-81875500D01*
X143285500Y-81875500D01*
X143352539Y-81895185D01*
X143398294Y-81947989D01*
X143409500Y-81999500D01*
X143409500Y-82403469D01*
X143449868Y-82606412D01*
X143449870Y-82606420D01*
X143528959Y-82797358D01*
X143529059Y-82797598D01*
X143537517Y-82810256D01*
X143644024Y-82969657D01*
X143790342Y-83115975D01*
X143790345Y-83115977D01*
X143962402Y-83230941D01*
X144153580Y-83310130D01*
X144326185Y-83344463D01*
X144356530Y-83350499D01*
X144356534Y-83350500D01*
X144356535Y-83350500D01*
X144563466Y-83350500D01*
X144563467Y-83350499D01*
X144766420Y-83310130D01*
X144957598Y-83230941D01*
X145129655Y-83115977D01*
X145275977Y-82969655D01*
X145390941Y-82797598D01*
X145470130Y-82606420D01*
X145510500Y-82403465D01*
X145510500Y-80596579D01*
X145950000Y-80596579D01*
X145950000Y-81250000D01*
X146684314Y-81250000D01*
X146679920Y-81254394D01*
X146627259Y-81345606D01*
X146600000Y-81447339D01*
X146600000Y-81552661D01*
X146627259Y-81654394D01*
X146679920Y-81745606D01*
X146684314Y-81750000D01*
X145950000Y-81750000D01*
X145950000Y-82403420D01*
X145990348Y-82606266D01*
X145990350Y-82606274D01*
X146069500Y-82797358D01*
X146069505Y-82797368D01*
X146184410Y-82969335D01*
X146184413Y-82969339D01*
X146330660Y-83115586D01*
X146330664Y-83115589D01*
X146502631Y-83230494D01*
X146502641Y-83230499D01*
X146693723Y-83309648D01*
X146693725Y-83309649D01*
X146750000Y-83320842D01*
X146750000Y-81815686D01*
X146754394Y-81820080D01*
X146845606Y-81872741D01*
X146947339Y-81900000D01*
X147052661Y-81900000D01*
X147154394Y-81872741D01*
X147245606Y-81820080D01*
X147250000Y-81815686D01*
X147250000Y-83320842D01*
X147306274Y-83309649D01*
X147306276Y-83309648D01*
X147497358Y-83230499D01*
X147497368Y-83230494D01*
X147669335Y-83115589D01*
X147669339Y-83115586D01*
X147815586Y-82969339D01*
X147815589Y-82969335D01*
X147930494Y-82797368D01*
X147930499Y-82797358D01*
X148009649Y-82606274D01*
X148009651Y-82606266D01*
X148049999Y-82403420D01*
X148050000Y-82403417D01*
X148050000Y-81750000D01*
X147315686Y-81750000D01*
X147320080Y-81745606D01*
X147372741Y-81654394D01*
X147400000Y-81552661D01*
X147400000Y-81447339D01*
X147372741Y-81345606D01*
X147320080Y-81254394D01*
X147315686Y-81250000D01*
X148050000Y-81250000D01*
X148050000Y-80596581D01*
X148049999Y-80596580D01*
X148049989Y-80596530D01*
X148489500Y-80596530D01*
X148489500Y-82403469D01*
X148529868Y-82606412D01*
X148529870Y-82606420D01*
X148608959Y-82797358D01*
X148609059Y-82797598D01*
X148617517Y-82810256D01*
X148724024Y-82969657D01*
X148870342Y-83115975D01*
X148870345Y-83115977D01*
X149042402Y-83230941D01*
X149233580Y-83310130D01*
X149406185Y-83344463D01*
X149436530Y-83350499D01*
X149436534Y-83350500D01*
X149436535Y-83350500D01*
X149643466Y-83350500D01*
X149643467Y-83350499D01*
X149846420Y-83310130D01*
X150037598Y-83230941D01*
X150209655Y-83115977D01*
X150355977Y-82969655D01*
X150470941Y-82797598D01*
X150550130Y-82606420D01*
X150590500Y-82403465D01*
X150590500Y-80596535D01*
X150550130Y-80393580D01*
X150470941Y-80202402D01*
X150355977Y-80030345D01*
X150355975Y-80030342D01*
X150209657Y-79884024D01*
X150123626Y-79826541D01*
X150037598Y-79769059D01*
X149998828Y-79753000D01*
X149846420Y-79689870D01*
X149846412Y-79689868D01*
X149643469Y-79649500D01*
X149643465Y-79649500D01*
X149436535Y-79649500D01*
X149436530Y-79649500D01*
X149233587Y-79689868D01*
X149233579Y-79689870D01*
X149042403Y-79769058D01*
X148870342Y-79884024D01*
X148724024Y-80030342D01*
X148609058Y-80202403D01*
X148529870Y-80393579D01*
X148529868Y-80393587D01*
X148489500Y-80596530D01*
X148049989Y-80596530D01*
X148009651Y-80393733D01*
X148009649Y-80393725D01*
X147930499Y-80202641D01*
X147930494Y-80202631D01*
X147815589Y-80030664D01*
X147815586Y-80030660D01*
X147669339Y-79884413D01*
X147669335Y-79884410D01*
X147497368Y-79769505D01*
X147497358Y-79769500D01*
X147306272Y-79690349D01*
X147306267Y-79690347D01*
X147250000Y-79679155D01*
X147250000Y-81184314D01*
X147245606Y-81179920D01*
X147154394Y-81127259D01*
X147052661Y-81100000D01*
X146947339Y-81100000D01*
X146845606Y-81127259D01*
X146754394Y-81179920D01*
X146750000Y-81184314D01*
X146750000Y-79679156D01*
X146749999Y-79679155D01*
X146693732Y-79690347D01*
X146693727Y-79690349D01*
X146502641Y-79769500D01*
X146502631Y-79769505D01*
X146330664Y-79884410D01*
X146330660Y-79884413D01*
X146184413Y-80030660D01*
X146184410Y-80030664D01*
X146069505Y-80202631D01*
X146069500Y-80202641D01*
X145990350Y-80393725D01*
X145990348Y-80393733D01*
X145950000Y-80596579D01*
X145510500Y-80596579D01*
X145510500Y-80596535D01*
X145470130Y-80393580D01*
X145390941Y-80202402D01*
X145275977Y-80030345D01*
X145275975Y-80030342D01*
X145129657Y-79884024D01*
X145043626Y-79826541D01*
X144957598Y-79769059D01*
X144918828Y-79753000D01*
X144766420Y-79689870D01*
X144766412Y-79689868D01*
X144563469Y-79649500D01*
X144563465Y-79649500D01*
X144356535Y-79649500D01*
X144356530Y-79649500D01*
X144153587Y-79689868D01*
X144153579Y-79689870D01*
X143962403Y-79769058D01*
X143790342Y-79884024D01*
X143644024Y-80030342D01*
X143529058Y-80202403D01*
X143449870Y-80393579D01*
X143449868Y-80393587D01*
X143409500Y-80596530D01*
X143409500Y-81000500D01*
X143389815Y-81067539D01*
X143337011Y-81113294D01*
X143285500Y-81124500D01*
X142950564Y-81124500D01*
X142855061Y-81150089D01*
X142769438Y-81199525D01*
X142769435Y-81199527D01*
X142311968Y-81656993D01*
X142250645Y-81690478D01*
X142180953Y-81685494D01*
X142125020Y-81643622D01*
X142100603Y-81578158D01*
X142109726Y-81521860D01*
X142131658Y-81468913D01*
X142160500Y-81323918D01*
X142160500Y-79676082D01*
X142160500Y-79676079D01*
X142131659Y-79531092D01*
X142131658Y-79531091D01*
X142131658Y-79531087D01*
X142105390Y-79467670D01*
X142075087Y-79394511D01*
X142075080Y-79394498D01*
X141992951Y-79271584D01*
X141992948Y-79271580D01*
X141888419Y-79167051D01*
X141888415Y-79167048D01*
X141765501Y-79084919D01*
X141765488Y-79084912D01*
X141628917Y-79028343D01*
X141628907Y-79028340D01*
X141483920Y-78999500D01*
X141483918Y-78999500D01*
X141336082Y-78999500D01*
X141336080Y-78999500D01*
X141191092Y-79028340D01*
X141191082Y-79028343D01*
X141054511Y-79084912D01*
X141054498Y-79084919D01*
X140931584Y-79167048D01*
X140931580Y-79167051D01*
X140862681Y-79235951D01*
X140801358Y-79269436D01*
X140731666Y-79264452D01*
X140687319Y-79235951D01*
X140618419Y-79167051D01*
X140618415Y-79167048D01*
X140495501Y-79084919D01*
X140495488Y-79084912D01*
X140358917Y-79028343D01*
X140358907Y-79028340D01*
X140213920Y-78999500D01*
X140213918Y-78999500D01*
X140066082Y-78999500D01*
X140066080Y-78999500D01*
X139921092Y-79028340D01*
X139921082Y-79028343D01*
X139784511Y-79084912D01*
X139784498Y-79084919D01*
X139661584Y-79167048D01*
X139661580Y-79167051D01*
X139592681Y-79235951D01*
X139531358Y-79269436D01*
X139461666Y-79264452D01*
X139417319Y-79235951D01*
X139348419Y-79167051D01*
X139348415Y-79167048D01*
X139225501Y-79084919D01*
X139225488Y-79084912D01*
X139088917Y-79028343D01*
X139088907Y-79028340D01*
X138943920Y-78999500D01*
X138943918Y-78999500D01*
X138796082Y-78999500D01*
X138796080Y-78999500D01*
X138651092Y-79028340D01*
X138651082Y-79028343D01*
X138514511Y-79084912D01*
X138514498Y-79084919D01*
X138463067Y-79119285D01*
X138396389Y-79140163D01*
X138329009Y-79121678D01*
X138291075Y-79085075D01*
X138280601Y-79069399D01*
X138199400Y-79015143D01*
X138197739Y-79014033D01*
X138197735Y-79014032D01*
X138124677Y-78999500D01*
X138124674Y-78999500D01*
X137075326Y-78999500D01*
X137075323Y-78999500D01*
X137002264Y-79014032D01*
X137002260Y-79014033D01*
X136919399Y-79069399D01*
X136864033Y-79152260D01*
X136864032Y-79152264D01*
X136849500Y-79225321D01*
X135432417Y-79225321D01*
X135445155Y-79212583D01*
X135478236Y-79167051D01*
X135493278Y-79146348D01*
X135493279Y-79146346D01*
X135588603Y-79015143D01*
X135588604Y-79015142D01*
X135588606Y-79015139D01*
X135699404Y-78797685D01*
X135774821Y-78565576D01*
X135813000Y-78324527D01*
X135813000Y-78080473D01*
X135774821Y-77839424D01*
X135699404Y-77607315D01*
X135588606Y-77389861D01*
X135543684Y-77328031D01*
X135445160Y-77192423D01*
X135445156Y-77192418D01*
X135272581Y-77019843D01*
X135272576Y-77019839D01*
X135086713Y-76884802D01*
X135075142Y-76876395D01*
X134902733Y-76788549D01*
X142399500Y-76788549D01*
X142399500Y-77011450D01*
X142399501Y-77011466D01*
X142428594Y-77232452D01*
X142428595Y-77232457D01*
X142428596Y-77232463D01*
X142486290Y-77447780D01*
X142486293Y-77447790D01*
X142571593Y-77653722D01*
X142571595Y-77653726D01*
X142683052Y-77846774D01*
X142683057Y-77846780D01*
X142683058Y-77846782D01*
X142818751Y-78023622D01*
X142818757Y-78023629D01*
X142976370Y-78181242D01*
X142976377Y-78181248D01*
X143102294Y-78277867D01*
X143153226Y-78316948D01*
X143346274Y-78428405D01*
X143552219Y-78513710D01*
X143767537Y-78571404D01*
X143988543Y-78600500D01*
X143988550Y-78600500D01*
X144211450Y-78600500D01*
X144211457Y-78600500D01*
X144432463Y-78571404D01*
X144647781Y-78513710D01*
X144853726Y-78428405D01*
X145046774Y-78316948D01*
X145223624Y-78181247D01*
X145381247Y-78023624D01*
X145516948Y-77846774D01*
X145628405Y-77653726D01*
X145713710Y-77447781D01*
X145771404Y-77232463D01*
X145800500Y-77011457D01*
X145800500Y-76788543D01*
X145771404Y-76567537D01*
X145713710Y-76352219D01*
X145700072Y-76319295D01*
X145663342Y-76230620D01*
X145628405Y-76146274D01*
X145516948Y-75953226D01*
X145400202Y-75801079D01*
X145381248Y-75776377D01*
X145381242Y-75776370D01*
X145223629Y-75618757D01*
X145223622Y-75618751D01*
X145046782Y-75483058D01*
X145046780Y-75483057D01*
X145046774Y-75483052D01*
X144853726Y-75371595D01*
X144853722Y-75371593D01*
X144647790Y-75286293D01*
X144647783Y-75286291D01*
X144647781Y-75286290D01*
X144432463Y-75228596D01*
X144432457Y-75228595D01*
X144432452Y-75228594D01*
X144211466Y-75199501D01*
X144211463Y-75199500D01*
X144211457Y-75199500D01*
X143988543Y-75199500D01*
X143988537Y-75199500D01*
X143988533Y-75199501D01*
X143767547Y-75228594D01*
X143767540Y-75228595D01*
X143767537Y-75228596D01*
X143552219Y-75286290D01*
X143552209Y-75286293D01*
X143346277Y-75371593D01*
X143346273Y-75371595D01*
X143153226Y-75483052D01*
X143153217Y-75483058D01*
X142976377Y-75618751D01*
X142976370Y-75618757D01*
X142818757Y-75776370D01*
X142818751Y-75776377D01*
X142683058Y-75953217D01*
X142683052Y-75953226D01*
X142571595Y-76146273D01*
X142571593Y-76146277D01*
X142486293Y-76352209D01*
X142486290Y-76352219D01*
X142437345Y-76534887D01*
X142428597Y-76567534D01*
X142428594Y-76567547D01*
X142399501Y-76788533D01*
X142399500Y-76788549D01*
X134902733Y-76788549D01*
X134857687Y-76765597D01*
X134857686Y-76765596D01*
X134857685Y-76765596D01*
X134625576Y-76690179D01*
X134625574Y-76690178D01*
X134625572Y-76690178D01*
X134438269Y-76660512D01*
X134384527Y-76652000D01*
X134140473Y-76652000D01*
X133951252Y-76681969D01*
X133881959Y-76673014D01*
X133828507Y-76628018D01*
X133807868Y-76561266D01*
X133826593Y-76493953D01*
X133844175Y-76471813D01*
X133870602Y-76445386D01*
X133974686Y-76302129D01*
X134055078Y-76144350D01*
X134055080Y-76144347D01*
X134109798Y-75975939D01*
X134137500Y-75801044D01*
X134137500Y-75525000D01*
X133474721Y-75525000D01*
X133473766Y-75521437D01*
X133408598Y-75408563D01*
X133316437Y-75316402D01*
X133203563Y-75251234D01*
X133077668Y-75217500D01*
X132947332Y-75217500D01*
X132821437Y-75251234D01*
X132708563Y-75316402D01*
X132616402Y-75408563D01*
X132551234Y-75521437D01*
X132550279Y-75525000D01*
X131887500Y-75525000D01*
X129638000Y-75525000D01*
X129638000Y-74748921D01*
X129610286Y-74573945D01*
X129555542Y-74405458D01*
X129555542Y-74405457D01*
X129514561Y-74325029D01*
X129475114Y-74247610D01*
X129370983Y-74104286D01*
X129245714Y-73979017D01*
X129171114Y-73924817D01*
X129128450Y-73869488D01*
X129122471Y-73799874D01*
X129155077Y-73738079D01*
X129215916Y-73703722D01*
X129244001Y-73700500D01*
X132281849Y-73700500D01*
X132348888Y-73720185D01*
X132394643Y-73772989D01*
X132404587Y-73842147D01*
X132375562Y-73905703D01*
X132354735Y-73924818D01*
X132279610Y-73979400D01*
X132279609Y-73979400D01*
X132154399Y-74104610D01*
X132050313Y-74247870D01*
X131969921Y-74405649D01*
X131969919Y-74405652D01*
X131915201Y-74574060D01*
X131887500Y-74748955D01*
X131887500Y-75025000D01*
X134137500Y-75025000D01*
X134137500Y-74748955D01*
X134109798Y-74574060D01*
X134055080Y-74405652D01*
X134055078Y-74405649D01*
X133974686Y-74247870D01*
X133870600Y-74104610D01*
X133745390Y-73979400D01*
X133670265Y-73924818D01*
X133627600Y-73869488D01*
X133621621Y-73799874D01*
X133654227Y-73738079D01*
X133715066Y-73703722D01*
X133743151Y-73700500D01*
X165465890Y-73700500D01*
X165465892Y-73700500D01*
X165593186Y-73666392D01*
X165707314Y-73600500D01*
X165800500Y-73507314D01*
X165866392Y-73393186D01*
X165900500Y-73265892D01*
X165900500Y-70079813D01*
X165920185Y-70012774D01*
X165941961Y-69987274D01*
X171274667Y-65231076D01*
X172955497Y-63731959D01*
X173018630Y-63702027D01*
X173038033Y-63700500D01*
X198107500Y-63700500D01*
X198174539Y-63720185D01*
X198202758Y-63745116D01*
X202870759Y-69346717D01*
X202898555Y-69410819D01*
X202899500Y-69426099D01*
X202899500Y-71665891D01*
X202933608Y-71793187D01*
X202966554Y-71850250D01*
X202999500Y-71907314D01*
X203092686Y-72000500D01*
X203206814Y-72066392D01*
X203334108Y-72100500D01*
X203334110Y-72100500D01*
X212865890Y-72100500D01*
X212865892Y-72100500D01*
X212993186Y-72066392D01*
X213107314Y-72000500D01*
X213200500Y-71907314D01*
X213266392Y-71793186D01*
X213300500Y-71665892D01*
X213300500Y-70279813D01*
X213320185Y-70212774D01*
X213341961Y-70187274D01*
X220355497Y-63931959D01*
X220418630Y-63902027D01*
X220438033Y-63900500D01*
X245907500Y-63900500D01*
X245974539Y-63920185D01*
X246002759Y-63945117D01*
X250638319Y-69507790D01*
X250666115Y-69571893D01*
X250665854Y-69604428D01*
X242137206Y-130296671D01*
X242108384Y-130360319D01*
X242095110Y-130373564D01*
X235449680Y-136069648D01*
X235385969Y-136098331D01*
X235368982Y-136099500D01*
X210072325Y-136099500D01*
X210005286Y-136079815D01*
X209981459Y-136059876D01*
X205133634Y-130839140D01*
X205102441Y-130776619D01*
X205100500Y-130754764D01*
X205100500Y-129393338D01*
X211595225Y-129393338D01*
X211598642Y-129422235D01*
X211599500Y-129436796D01*
X211599500Y-129465890D01*
X211599501Y-129465899D01*
X211604887Y-129486001D01*
X211608253Y-129503523D01*
X211610700Y-129524209D01*
X211610702Y-129524216D01*
X211621479Y-129551240D01*
X211621480Y-129551240D01*
X211624186Y-129558025D01*
X211633608Y-129593186D01*
X211648491Y-129618963D01*
X211651808Y-129627280D01*
X211659522Y-129646621D01*
X211676928Y-129669935D01*
X211676929Y-129669936D01*
X211679838Y-129673833D01*
X211681299Y-129675789D01*
X211699500Y-129707314D01*
X211720547Y-129728361D01*
X211725900Y-129735531D01*
X211725900Y-129735532D01*
X211738354Y-129752213D01*
X211738358Y-129752217D01*
X211738361Y-129752221D01*
X211766947Y-129774761D01*
X211792686Y-129800500D01*
X211818468Y-129815385D01*
X211825496Y-129820927D01*
X211825497Y-129820928D01*
X211841841Y-129833815D01*
X211841843Y-129833817D01*
X211841844Y-129833817D01*
X211841845Y-129833818D01*
X211855127Y-129839526D01*
X211868573Y-129845304D01*
X211881613Y-129851842D01*
X211906814Y-129866392D01*
X211935573Y-129874098D01*
X211962922Y-129885851D01*
X211998943Y-129891077D01*
X212034108Y-129900500D01*
X212054928Y-129900500D01*
X212072733Y-129901784D01*
X212093340Y-129904775D01*
X212117682Y-129901896D01*
X212122238Y-129901358D01*
X212136798Y-129900500D01*
X235364843Y-129900500D01*
X235395280Y-129904797D01*
X235430457Y-129900500D01*
X235465892Y-129900500D01*
X235487176Y-129894796D01*
X235504215Y-129891490D01*
X235526092Y-129888818D01*
X235551952Y-129878388D01*
X235566245Y-129873610D01*
X235593186Y-129866392D01*
X235612268Y-129855374D01*
X235627870Y-129847769D01*
X235648311Y-129839527D01*
X235676626Y-129818217D01*
X235707314Y-129800500D01*
X235729046Y-129778767D01*
X235753608Y-129760283D01*
X235775443Y-129732370D01*
X235800500Y-129707314D01*
X235815868Y-129680695D01*
X235834807Y-129656486D01*
X235845720Y-129630819D01*
X235852447Y-129617338D01*
X235866392Y-129593186D01*
X235872093Y-129571907D01*
X235877756Y-129555478D01*
X235886375Y-129535210D01*
X235891329Y-129500118D01*
X235900500Y-129465892D01*
X235900500Y-129435157D01*
X239490273Y-104007589D01*
X239493277Y-103992843D01*
X239500500Y-103965892D01*
X239500500Y-103935157D01*
X239504797Y-103904720D01*
X239500500Y-103869542D01*
X239500500Y-103834108D01*
X239496575Y-103819458D01*
X239494799Y-103812829D01*
X239491489Y-103795772D01*
X239488819Y-103773912D01*
X239488818Y-103773910D01*
X239488818Y-103773908D01*
X239475563Y-103741043D01*
X239466392Y-103706814D01*
X239451023Y-103680195D01*
X239439527Y-103651689D01*
X239422752Y-103629398D01*
X239414444Y-103616838D01*
X239400502Y-103592689D01*
X239400498Y-103592684D01*
X239384925Y-103577111D01*
X239373528Y-103563992D01*
X239360283Y-103546392D01*
X239338309Y-103529202D01*
X239332369Y-103524555D01*
X239307314Y-103499500D01*
X239280697Y-103484132D01*
X239273835Y-103478764D01*
X239273834Y-103478763D01*
X239256485Y-103465192D01*
X239230818Y-103454278D01*
X239223873Y-103451324D01*
X239193186Y-103433608D01*
X239163498Y-103425652D01*
X239155487Y-103422246D01*
X239155484Y-103422245D01*
X239135210Y-103413625D01*
X239107590Y-103409725D01*
X239100118Y-103408671D01*
X239065892Y-103399500D01*
X239035157Y-103399500D01*
X239022004Y-103397643D01*
X239004722Y-103395203D01*
X239004718Y-103395202D01*
X238980454Y-103398167D01*
X238977032Y-103398585D01*
X238961998Y-103399500D01*
X215836122Y-103399500D01*
X215806660Y-103395225D01*
X215770508Y-103399500D01*
X215734107Y-103399500D01*
X215713990Y-103404889D01*
X215696474Y-103408253D01*
X215675787Y-103410700D01*
X215648757Y-103421480D01*
X215634923Y-103426075D01*
X215606815Y-103433607D01*
X215606814Y-103433607D01*
X215588779Y-103444020D01*
X215588778Y-103444019D01*
X215581021Y-103448497D01*
X215553380Y-103459522D01*
X215524221Y-103481290D01*
X215517888Y-103484947D01*
X215517885Y-103484950D01*
X215492685Y-103499500D01*
X215477964Y-103514221D01*
X215464470Y-103525899D01*
X215447783Y-103538357D01*
X215447776Y-103538363D01*
X215429760Y-103561211D01*
X215420079Y-103572104D01*
X215399504Y-103592681D01*
X215399496Y-103592691D01*
X215389086Y-103610721D01*
X215384610Y-103618471D01*
X215366182Y-103641845D01*
X215351814Y-103675275D01*
X215348159Y-103681607D01*
X215348158Y-103681611D01*
X215333608Y-103706813D01*
X215333607Y-103706814D01*
X215328213Y-103726941D01*
X215325898Y-103735578D01*
X215314149Y-103762922D01*
X215308923Y-103798930D01*
X215307030Y-103805998D01*
X215307030Y-103806003D01*
X215299500Y-103834103D01*
X215299500Y-103854931D01*
X215298215Y-103872737D01*
X211609969Y-129291720D01*
X211608919Y-129298951D01*
X211599500Y-129334108D01*
X211599500Y-129363873D01*
X211598215Y-129372730D01*
X211598215Y-129372732D01*
X211595225Y-129393338D01*
X205100500Y-129393338D01*
X205100500Y-128934110D01*
X205100500Y-128934108D01*
X205066392Y-128806814D01*
X205000500Y-128692686D01*
X204907314Y-128599500D01*
X204850250Y-128566554D01*
X204793187Y-128533608D01*
X204729539Y-128516554D01*
X204665892Y-128499500D01*
X195065892Y-128499500D01*
X194934108Y-128499500D01*
X194806812Y-128533608D01*
X194692686Y-128599500D01*
X194692683Y-128599502D01*
X194599502Y-128692683D01*
X194599500Y-128692686D01*
X194533608Y-128806812D01*
X194499500Y-128934108D01*
X194499500Y-130124285D01*
X194479815Y-130191324D01*
X194459045Y-130215916D01*
X188041584Y-136067131D01*
X187978783Y-136097753D01*
X187958039Y-136099500D01*
X161888794Y-136099500D01*
X161821755Y-136079815D01*
X161794314Y-136055808D01*
X159684709Y-133573920D01*
X171499499Y-133573920D01*
X171528340Y-133718907D01*
X171528343Y-133718917D01*
X171584912Y-133855488D01*
X171584919Y-133855501D01*
X171667048Y-133978415D01*
X171667051Y-133978419D01*
X171771580Y-134082948D01*
X171771584Y-134082951D01*
X171894498Y-134165080D01*
X171894511Y-134165087D01*
X172031082Y-134221656D01*
X172031087Y-134221658D01*
X172031091Y-134221658D01*
X172031092Y-134221659D01*
X172176079Y-134250500D01*
X172176082Y-134250500D01*
X172323920Y-134250500D01*
X172421462Y-134231096D01*
X172468913Y-134221658D01*
X172605495Y-134165084D01*
X172728416Y-134082951D01*
X172832951Y-133978416D01*
X172915084Y-133855495D01*
X172971658Y-133718913D01*
X173000500Y-133573918D01*
X173000500Y-131676082D01*
X173000500Y-131676079D01*
X172971659Y-131531092D01*
X172971658Y-131531091D01*
X172971658Y-131531087D01*
X172971656Y-131531082D01*
X172915087Y-131394511D01*
X172915080Y-131394498D01*
X172832951Y-131271584D01*
X172832948Y-131271580D01*
X172728419Y-131167051D01*
X172728415Y-131167048D01*
X172605501Y-131084919D01*
X172605488Y-131084912D01*
X172468917Y-131028343D01*
X172468907Y-131028340D01*
X172323920Y-130999500D01*
X172323918Y-130999500D01*
X172176082Y-130999500D01*
X172176080Y-130999500D01*
X172031092Y-131028340D01*
X172031082Y-131028343D01*
X171894511Y-131084912D01*
X171894498Y-131084919D01*
X171771584Y-131167048D01*
X171771580Y-131167051D01*
X171667051Y-131271580D01*
X171667048Y-131271584D01*
X171584919Y-131394498D01*
X171584912Y-131394511D01*
X171528343Y-131531082D01*
X171528340Y-131531092D01*
X171499500Y-131676079D01*
X171499500Y-131676082D01*
X171499500Y-133573918D01*
X171499500Y-133573920D01*
X171499499Y-133573920D01*
X159684709Y-133573920D01*
X159029520Y-132803109D01*
X159001100Y-132739281D01*
X159000000Y-132722801D01*
X159000000Y-126823920D01*
X160499499Y-126823920D01*
X160528340Y-126968907D01*
X160528343Y-126968917D01*
X160584914Y-127105492D01*
X160617812Y-127154727D01*
X160617813Y-127154730D01*
X160667046Y-127228414D01*
X160667052Y-127228421D01*
X162521578Y-129082947D01*
X162521581Y-129082949D01*
X162521584Y-129082952D01*
X162644506Y-129165084D01*
X162781088Y-129221659D01*
X162926078Y-129250499D01*
X162926082Y-129250500D01*
X162926083Y-129250500D01*
X163073919Y-129250500D01*
X163073920Y-129250499D01*
X163218913Y-129221659D01*
X163355495Y-129165084D01*
X163478416Y-129082952D01*
X163520692Y-129040676D01*
X163547688Y-129025934D01*
X163573593Y-129009334D01*
X163578078Y-129009339D01*
X163582015Y-129007190D01*
X163612698Y-129009384D01*
X163643462Y-129009424D01*
X163647232Y-129011854D01*
X163651706Y-129012174D01*
X163676326Y-129030604D01*
X163702192Y-129047274D01*
X163704050Y-129051358D01*
X163707640Y-129054045D01*
X163718386Y-129082856D01*
X163731135Y-129110867D01*
X163731126Y-129117012D01*
X163732058Y-129119509D01*
X163731089Y-129146162D01*
X163709969Y-129291720D01*
X163707030Y-129306003D01*
X163699500Y-129334106D01*
X163699500Y-129354927D01*
X163698215Y-129372730D01*
X163695225Y-129393340D01*
X163699500Y-129429491D01*
X163699500Y-129465892D01*
X163707201Y-129494636D01*
X163708252Y-129503522D01*
X163708253Y-129503523D01*
X163710700Y-129524209D01*
X163710702Y-129524216D01*
X163721479Y-129551240D01*
X163721480Y-129551240D01*
X163724186Y-129558025D01*
X163733608Y-129593186D01*
X163748491Y-129618963D01*
X163751808Y-129627280D01*
X163759522Y-129646621D01*
X163776928Y-129669935D01*
X163776929Y-129669936D01*
X163779838Y-129673833D01*
X163781299Y-129675789D01*
X163799500Y-129707314D01*
X163820547Y-129728361D01*
X163825900Y-129735531D01*
X163825900Y-129735532D01*
X163838354Y-129752213D01*
X163838358Y-129752217D01*
X163838361Y-129752221D01*
X163866947Y-129774761D01*
X163892686Y-129800500D01*
X163918468Y-129815385D01*
X163925496Y-129820927D01*
X163925497Y-129820928D01*
X163941841Y-129833815D01*
X163941843Y-129833817D01*
X163941844Y-129833817D01*
X163941845Y-129833818D01*
X163955127Y-129839526D01*
X163968573Y-129845304D01*
X163981613Y-129851842D01*
X164006814Y-129866392D01*
X164035573Y-129874098D01*
X164062922Y-129885851D01*
X164098943Y-129891077D01*
X164134108Y-129900500D01*
X164154928Y-129900500D01*
X164172733Y-129901784D01*
X164193340Y-129904775D01*
X164217682Y-129901896D01*
X164222238Y-129901358D01*
X164236798Y-129900500D01*
X187464843Y-129900500D01*
X187495280Y-129904797D01*
X187530457Y-129900500D01*
X187565892Y-129900500D01*
X187587176Y-129894796D01*
X187604215Y-129891490D01*
X187626092Y-129888818D01*
X187651952Y-129878388D01*
X187666245Y-129873610D01*
X187693186Y-129866392D01*
X187712268Y-129855374D01*
X187727870Y-129847769D01*
X187748311Y-129839527D01*
X187776626Y-129818217D01*
X187807314Y-129800500D01*
X187829046Y-129778767D01*
X187853608Y-129760283D01*
X187875443Y-129732370D01*
X187900500Y-129707314D01*
X187915868Y-129680695D01*
X187934807Y-129656486D01*
X187945720Y-129630819D01*
X187952447Y-129617338D01*
X187966392Y-129593186D01*
X187972093Y-129571907D01*
X187977756Y-129555478D01*
X187986375Y-129535210D01*
X187991329Y-129500118D01*
X188000500Y-129465892D01*
X188000500Y-129435157D01*
X189060329Y-121928034D01*
X197099500Y-121928034D01*
X197099500Y-122271965D01*
X197133210Y-122614249D01*
X197200308Y-122951572D01*
X197300150Y-123280706D01*
X197431770Y-123598464D01*
X197431772Y-123598469D01*
X197593893Y-123901775D01*
X197593904Y-123901793D01*
X197784975Y-124187751D01*
X197784985Y-124187765D01*
X198003176Y-124453632D01*
X198246367Y-124696823D01*
X198246372Y-124696827D01*
X198246373Y-124696828D01*
X198512240Y-124915019D01*
X198798213Y-125106100D01*
X198798222Y-125106105D01*
X198798224Y-125106106D01*
X199101530Y-125268227D01*
X199101532Y-125268227D01*
X199101538Y-125268231D01*
X199419295Y-125399850D01*
X199748422Y-125499690D01*
X200085750Y-125566789D01*
X200428031Y-125600500D01*
X200428034Y-125600500D01*
X200771966Y-125600500D01*
X200771969Y-125600500D01*
X201114250Y-125566789D01*
X201451578Y-125499690D01*
X201780705Y-125399850D01*
X202098462Y-125268231D01*
X202401787Y-125106100D01*
X202687760Y-124915019D01*
X202953627Y-124696828D01*
X203196828Y-124453627D01*
X203415019Y-124187760D01*
X203606100Y-123901787D01*
X203768231Y-123598462D01*
X203899850Y-123280705D01*
X203999690Y-122951578D01*
X204066789Y-122614250D01*
X204100500Y-122271969D01*
X204100500Y-121928031D01*
X204066789Y-121585750D01*
X203999690Y-121248422D01*
X203899850Y-120919295D01*
X203768231Y-120601538D01*
X203713008Y-120498224D01*
X203606106Y-120298224D01*
X203606105Y-120298222D01*
X203606100Y-120298213D01*
X203415019Y-120012240D01*
X203196828Y-119746373D01*
X203196827Y-119746372D01*
X203196823Y-119746367D01*
X202953632Y-119503176D01*
X202687765Y-119284985D01*
X202687764Y-119284984D01*
X202687760Y-119284981D01*
X202401787Y-119093900D01*
X202401782Y-119093897D01*
X202401775Y-119093893D01*
X202098469Y-118931772D01*
X202098464Y-118931770D01*
X201780706Y-118800150D01*
X201451572Y-118700308D01*
X201114248Y-118633210D01*
X201114249Y-118633210D01*
X200856456Y-118607821D01*
X200771969Y-118599500D01*
X200428031Y-118599500D01*
X200349966Y-118607188D01*
X200085750Y-118633210D01*
X199748427Y-118700308D01*
X199419293Y-118800150D01*
X199101535Y-118931770D01*
X199101530Y-118931772D01*
X198798224Y-119093893D01*
X198798206Y-119093904D01*
X198512248Y-119284975D01*
X198512234Y-119284985D01*
X198246367Y-119503176D01*
X198003176Y-119746367D01*
X197784985Y-120012234D01*
X197784975Y-120012248D01*
X197593904Y-120298206D01*
X197593893Y-120298224D01*
X197431772Y-120601530D01*
X197431770Y-120601535D01*
X197300150Y-120919293D01*
X197200308Y-121248427D01*
X197133210Y-121585750D01*
X197099500Y-121928034D01*
X189060329Y-121928034D01*
X191591328Y-104000119D01*
X191600500Y-103965892D01*
X191600500Y-103935157D01*
X191604797Y-103904720D01*
X191600500Y-103869542D01*
X191600500Y-103834108D01*
X191592545Y-103804419D01*
X191591355Y-103794674D01*
X191588819Y-103773912D01*
X191588818Y-103773910D01*
X191588818Y-103773908D01*
X191575563Y-103741043D01*
X191566392Y-103706814D01*
X191551023Y-103680195D01*
X191539527Y-103651689D01*
X191522752Y-103629398D01*
X191514444Y-103616838D01*
X191500502Y-103592689D01*
X191500498Y-103592684D01*
X191484925Y-103577111D01*
X191473528Y-103563992D01*
X191460283Y-103546392D01*
X191438309Y-103529202D01*
X191432369Y-103524555D01*
X191407314Y-103499500D01*
X191380697Y-103484132D01*
X191373835Y-103478764D01*
X191373834Y-103478763D01*
X191356485Y-103465192D01*
X191330818Y-103454278D01*
X191323873Y-103451324D01*
X191293186Y-103433608D01*
X191263498Y-103425652D01*
X191255487Y-103422246D01*
X191255484Y-103422245D01*
X191235210Y-103413625D01*
X191207590Y-103409725D01*
X191200118Y-103408671D01*
X191165892Y-103399500D01*
X191135157Y-103399500D01*
X191122004Y-103397643D01*
X191104722Y-103395203D01*
X191104718Y-103395202D01*
X191080454Y-103398167D01*
X191077032Y-103398585D01*
X191061998Y-103399500D01*
X167936122Y-103399500D01*
X167906660Y-103395225D01*
X167870508Y-103399500D01*
X167834107Y-103399500D01*
X167813990Y-103404889D01*
X167796474Y-103408253D01*
X167775787Y-103410700D01*
X167748757Y-103421480D01*
X167734923Y-103426075D01*
X167706815Y-103433607D01*
X167706814Y-103433607D01*
X167688779Y-103444020D01*
X167688778Y-103444019D01*
X167681021Y-103448497D01*
X167653380Y-103459522D01*
X167624221Y-103481290D01*
X167617888Y-103484947D01*
X167617885Y-103484950D01*
X167592685Y-103499500D01*
X167577964Y-103514221D01*
X167564470Y-103525899D01*
X167547783Y-103538357D01*
X167547776Y-103538363D01*
X167529760Y-103561211D01*
X167520079Y-103572104D01*
X167499504Y-103592681D01*
X167499496Y-103592691D01*
X167489086Y-103610721D01*
X167484610Y-103618471D01*
X167466182Y-103641845D01*
X167451814Y-103675275D01*
X167448159Y-103681607D01*
X167448158Y-103681611D01*
X167433608Y-103706813D01*
X167433607Y-103706814D01*
X167428213Y-103726941D01*
X167425898Y-103735578D01*
X167414149Y-103762922D01*
X167408923Y-103798930D01*
X167407030Y-103805998D01*
X167407030Y-103806003D01*
X167399500Y-103834103D01*
X167399500Y-103854931D01*
X167398215Y-103872737D01*
X163885100Y-128084739D01*
X163855993Y-128148257D01*
X163797166Y-128185955D01*
X163727296Y-128185865D01*
X163668567Y-128148015D01*
X163659282Y-128135823D01*
X163582952Y-128021584D01*
X163582947Y-128021579D01*
X163582947Y-128021578D01*
X162036819Y-126475450D01*
X162003334Y-126414127D01*
X162000500Y-126387769D01*
X162000500Y-116112230D01*
X162020185Y-116045191D01*
X162036819Y-116024549D01*
X163082947Y-114978421D01*
X163082952Y-114978416D01*
X163165084Y-114855494D01*
X163221658Y-114718912D01*
X163240538Y-114624000D01*
X163250500Y-114573919D01*
X163250500Y-114426080D01*
X163221659Y-114281092D01*
X163221658Y-114281091D01*
X163221658Y-114281087D01*
X163165084Y-114144506D01*
X163082952Y-114021584D01*
X163082947Y-114021579D01*
X163082947Y-114021578D01*
X162978421Y-113917052D01*
X162978417Y-113917049D01*
X162978416Y-113917048D01*
X162855494Y-113834916D01*
X162855489Y-113834914D01*
X162718913Y-113778342D01*
X162718907Y-113778340D01*
X162573919Y-113749500D01*
X162573917Y-113749500D01*
X162426083Y-113749500D01*
X162426081Y-113749500D01*
X162281093Y-113778340D01*
X162281087Y-113778342D01*
X162144509Y-113834914D01*
X162144502Y-113834918D01*
X162113699Y-113855500D01*
X162021584Y-113917048D01*
X162021582Y-113917049D01*
X162021579Y-113917052D01*
X162021578Y-113917052D01*
X160667050Y-115271580D01*
X160667044Y-115271588D01*
X160617812Y-115345268D01*
X160617813Y-115345269D01*
X160584921Y-115394496D01*
X160584914Y-115394508D01*
X160528342Y-115531086D01*
X160528340Y-115531092D01*
X160499500Y-115676079D01*
X160499500Y-115676082D01*
X160499500Y-125426082D01*
X160499500Y-126823918D01*
X160499500Y-126823920D01*
X160499499Y-126823920D01*
X159000000Y-126823920D01*
X159000000Y-116050000D01*
X111000000Y-116050000D01*
X111000000Y-129119113D01*
X110980315Y-129186152D01*
X110958381Y-129211792D01*
X103244947Y-136068179D01*
X103181763Y-136098005D01*
X103162566Y-136099500D01*
X78079611Y-136099500D01*
X78012572Y-136079815D01*
X77987115Y-136058086D01*
X73332004Y-130844360D01*
X73302038Y-130781242D01*
X73300500Y-130761774D01*
X73300500Y-129393338D01*
X79895225Y-129393338D01*
X79898642Y-129422235D01*
X79899500Y-129436796D01*
X79899500Y-129465890D01*
X79899501Y-129465899D01*
X79904887Y-129486001D01*
X79908253Y-129503523D01*
X79910700Y-129524209D01*
X79910702Y-129524216D01*
X79921479Y-129551240D01*
X79921480Y-129551240D01*
X79924186Y-129558025D01*
X79933608Y-129593186D01*
X79948491Y-129618963D01*
X79951808Y-129627280D01*
X79959522Y-129646621D01*
X79976928Y-129669935D01*
X79976929Y-129669936D01*
X79979838Y-129673833D01*
X79981299Y-129675789D01*
X79999500Y-129707314D01*
X80020547Y-129728361D01*
X80025900Y-129735531D01*
X80025900Y-129735532D01*
X80038354Y-129752213D01*
X80038358Y-129752217D01*
X80038361Y-129752221D01*
X80066947Y-129774761D01*
X80092686Y-129800500D01*
X80118468Y-129815385D01*
X80125496Y-129820927D01*
X80125497Y-129820928D01*
X80141841Y-129833815D01*
X80141843Y-129833817D01*
X80141844Y-129833817D01*
X80141845Y-129833818D01*
X80155127Y-129839526D01*
X80168573Y-129845304D01*
X80181613Y-129851842D01*
X80206814Y-129866392D01*
X80235573Y-129874098D01*
X80262922Y-129885851D01*
X80298943Y-129891077D01*
X80334108Y-129900500D01*
X80354928Y-129900500D01*
X80372733Y-129901784D01*
X80393340Y-129904775D01*
X80417682Y-129901896D01*
X80422238Y-129901358D01*
X80436798Y-129900500D01*
X103664843Y-129900500D01*
X103695280Y-129904797D01*
X103730457Y-129900500D01*
X103765892Y-129900500D01*
X103787176Y-129894796D01*
X103804215Y-129891490D01*
X103826092Y-129888818D01*
X103851952Y-129878388D01*
X103866245Y-129873610D01*
X103893186Y-129866392D01*
X103912268Y-129855374D01*
X103927870Y-129847769D01*
X103948311Y-129839527D01*
X103976626Y-129818217D01*
X104007314Y-129800500D01*
X104029046Y-129778767D01*
X104053608Y-129760283D01*
X104075443Y-129732370D01*
X104100500Y-129707314D01*
X104115868Y-129680695D01*
X104134807Y-129656486D01*
X104145720Y-129630819D01*
X104152447Y-129617338D01*
X104166392Y-129593186D01*
X104172093Y-129571907D01*
X104177756Y-129555478D01*
X104186375Y-129535210D01*
X104191329Y-129500118D01*
X104200500Y-129465892D01*
X104200500Y-129435157D01*
X106206692Y-115224628D01*
X125250000Y-115224628D01*
X125264503Y-115297540D01*
X125264505Y-115297544D01*
X125319760Y-115380239D01*
X125402455Y-115435494D01*
X125402459Y-115435496D01*
X125475371Y-115449999D01*
X125475374Y-115450000D01*
X126000000Y-115450000D01*
X126500000Y-115450000D01*
X127024626Y-115450000D01*
X127024628Y-115449999D01*
X127097540Y-115435496D01*
X127097544Y-115435494D01*
X127180239Y-115380239D01*
X127235494Y-115297544D01*
X127235496Y-115297540D01*
X127249999Y-115224628D01*
X142750000Y-115224628D01*
X142764503Y-115297540D01*
X142764505Y-115297544D01*
X142819760Y-115380239D01*
X142902455Y-115435494D01*
X142902459Y-115435496D01*
X142975371Y-115449999D01*
X142975374Y-115450000D01*
X143500000Y-115450000D01*
X143500000Y-115000000D01*
X142750000Y-115000000D01*
X142750000Y-115224628D01*
X127249999Y-115224628D01*
X127250000Y-115224626D01*
X127250000Y-115000000D01*
X126500000Y-115000000D01*
X126500000Y-115450000D01*
X126000000Y-115450000D01*
X126000000Y-115000000D01*
X125250000Y-115000000D01*
X125250000Y-115224628D01*
X106206692Y-115224628D01*
X107385615Y-106873919D01*
X115249499Y-106873919D01*
X115278340Y-107018906D01*
X115278342Y-107018912D01*
X115332677Y-107150090D01*
X115334916Y-107155494D01*
X115417048Y-107278416D01*
X115417051Y-107278419D01*
X115417052Y-107278420D01*
X115417052Y-107278421D01*
X118521579Y-110382947D01*
X118521580Y-110382948D01*
X118521583Y-110382950D01*
X118521585Y-110382952D01*
X118603344Y-110437581D01*
X118644507Y-110465085D01*
X118712797Y-110493371D01*
X118781088Y-110521659D01*
X118913515Y-110548000D01*
X118926078Y-110550499D01*
X118926082Y-110550500D01*
X118926083Y-110550500D01*
X119073919Y-110550500D01*
X119073920Y-110550499D01*
X119218913Y-110521659D01*
X119355495Y-110465084D01*
X119478416Y-110382952D01*
X119582952Y-110278416D01*
X119665084Y-110155495D01*
X119721659Y-110018913D01*
X119750500Y-109873918D01*
X119750500Y-109726083D01*
X119721659Y-109581088D01*
X119693371Y-109512797D01*
X119665085Y-109444507D01*
X119637581Y-109403344D01*
X119582952Y-109321585D01*
X119582950Y-109321583D01*
X119582948Y-109321580D01*
X119582947Y-109321579D01*
X116478421Y-106217052D01*
X116478417Y-106217049D01*
X116478416Y-106217048D01*
X116355494Y-106134916D01*
X116355492Y-106134915D01*
X116355490Y-106134914D01*
X116218912Y-106078342D01*
X116218906Y-106078340D01*
X116073919Y-106049500D01*
X116073917Y-106049500D01*
X115926083Y-106049500D01*
X115926081Y-106049500D01*
X115781093Y-106078340D01*
X115781087Y-106078342D01*
X115644509Y-106134914D01*
X115644502Y-106134918D01*
X115582418Y-106176400D01*
X115521584Y-106217048D01*
X115521582Y-106217049D01*
X115521579Y-106217052D01*
X115521578Y-106217052D01*
X115417052Y-106321578D01*
X115417052Y-106321579D01*
X115417049Y-106321582D01*
X115417048Y-106321584D01*
X115384844Y-106369782D01*
X115334918Y-106444502D01*
X115334914Y-106444509D01*
X115278342Y-106581087D01*
X115278340Y-106581093D01*
X115249500Y-106726080D01*
X115249500Y-106726083D01*
X115249500Y-106873917D01*
X115249500Y-106873919D01*
X115249499Y-106873919D01*
X107385615Y-106873919D01*
X107791328Y-104000119D01*
X107800500Y-103965892D01*
X107800500Y-103935157D01*
X107804797Y-103904720D01*
X107800500Y-103869542D01*
X107800500Y-103834108D01*
X107792545Y-103804419D01*
X107791355Y-103794674D01*
X107788819Y-103773912D01*
X107788818Y-103773910D01*
X107788818Y-103773908D01*
X107775563Y-103741043D01*
X107766392Y-103706814D01*
X107751023Y-103680195D01*
X107739527Y-103651689D01*
X107722752Y-103629398D01*
X107714444Y-103616838D01*
X107700502Y-103592689D01*
X107700498Y-103592684D01*
X107684925Y-103577111D01*
X107673528Y-103563992D01*
X107660283Y-103546392D01*
X107638309Y-103529202D01*
X107632369Y-103524555D01*
X107607314Y-103499500D01*
X107580697Y-103484132D01*
X107573835Y-103478764D01*
X107573834Y-103478763D01*
X107556485Y-103465192D01*
X107530818Y-103454278D01*
X107523873Y-103451324D01*
X107493186Y-103433608D01*
X107463498Y-103425652D01*
X107455487Y-103422246D01*
X107455484Y-103422245D01*
X107435210Y-103413625D01*
X107407590Y-103409725D01*
X107400118Y-103408671D01*
X107365892Y-103399500D01*
X107335157Y-103399500D01*
X107322004Y-103397643D01*
X107304722Y-103395203D01*
X107304718Y-103395202D01*
X107280454Y-103398167D01*
X107277032Y-103398585D01*
X107261998Y-103399500D01*
X84136122Y-103399500D01*
X84106660Y-103395225D01*
X84070508Y-103399500D01*
X84034107Y-103399500D01*
X84013990Y-103404889D01*
X83996474Y-103408253D01*
X83975787Y-103410700D01*
X83948757Y-103421480D01*
X83934923Y-103426075D01*
X83906815Y-103433607D01*
X83906814Y-103433607D01*
X83888779Y-103444020D01*
X83888778Y-103444019D01*
X83881021Y-103448497D01*
X83853380Y-103459522D01*
X83824221Y-103481290D01*
X83817888Y-103484947D01*
X83817885Y-103484950D01*
X83792685Y-103499500D01*
X83777964Y-103514221D01*
X83764470Y-103525899D01*
X83747783Y-103538357D01*
X83747776Y-103538363D01*
X83729760Y-103561211D01*
X83720079Y-103572104D01*
X83699504Y-103592681D01*
X83699496Y-103592691D01*
X83689086Y-103610721D01*
X83684610Y-103618471D01*
X83666182Y-103641845D01*
X83651814Y-103675275D01*
X83648159Y-103681607D01*
X83648158Y-103681611D01*
X83633608Y-103706813D01*
X83633607Y-103706814D01*
X83628213Y-103726941D01*
X83625898Y-103735578D01*
X83614149Y-103762922D01*
X83608923Y-103798930D01*
X83607030Y-103805998D01*
X83607030Y-103806003D01*
X83599500Y-103834103D01*
X83599500Y-103854931D01*
X83598215Y-103872737D01*
X79909969Y-129291720D01*
X79908919Y-129298951D01*
X79899500Y-129334108D01*
X79899500Y-129363873D01*
X79898215Y-129372730D01*
X79898215Y-129372732D01*
X79895225Y-129393338D01*
X73300500Y-129393338D01*
X73300500Y-128934110D01*
X73300500Y-128934108D01*
X73266392Y-128806814D01*
X73200500Y-128692686D01*
X73107314Y-128599500D01*
X73050250Y-128566554D01*
X72993187Y-128533608D01*
X72929539Y-128516554D01*
X72865892Y-128499500D01*
X63265892Y-128499500D01*
X63134108Y-128499500D01*
X63006812Y-128533608D01*
X62892686Y-128599500D01*
X62892683Y-128599502D01*
X62799502Y-128692683D01*
X62799500Y-128692686D01*
X62733608Y-128806812D01*
X62699500Y-128934108D01*
X62699500Y-129914445D01*
X62679815Y-129981484D01*
X62656615Y-130008234D01*
X55648522Y-136069289D01*
X55584939Y-136098254D01*
X55567407Y-136099500D01*
X30279611Y-136099500D01*
X30212572Y-136079815D01*
X30187115Y-136058086D01*
X25913449Y-131271580D01*
X25566229Y-130882693D01*
X25536263Y-130819575D01*
X25535931Y-130782852D01*
X25731190Y-129393338D01*
X32095225Y-129393338D01*
X32098642Y-129422235D01*
X32099500Y-129436796D01*
X32099500Y-129465890D01*
X32099501Y-129465899D01*
X32104887Y-129486001D01*
X32108253Y-129503523D01*
X32110700Y-129524209D01*
X32110702Y-129524216D01*
X32121479Y-129551240D01*
X32121480Y-129551240D01*
X32124186Y-129558025D01*
X32133608Y-129593186D01*
X32148491Y-129618963D01*
X32151808Y-129627280D01*
X32159522Y-129646621D01*
X32176928Y-129669935D01*
X32176929Y-129669936D01*
X32179838Y-129673833D01*
X32181299Y-129675789D01*
X32199500Y-129707314D01*
X32220547Y-129728361D01*
X32225900Y-129735531D01*
X32225900Y-129735532D01*
X32238354Y-129752213D01*
X32238358Y-129752217D01*
X32238361Y-129752221D01*
X32266947Y-129774761D01*
X32292686Y-129800500D01*
X32318468Y-129815385D01*
X32325496Y-129820927D01*
X32325497Y-129820928D01*
X32341841Y-129833815D01*
X32341843Y-129833817D01*
X32341844Y-129833817D01*
X32341845Y-129833818D01*
X32355127Y-129839526D01*
X32368573Y-129845304D01*
X32381613Y-129851842D01*
X32406814Y-129866392D01*
X32435573Y-129874098D01*
X32462922Y-129885851D01*
X32498943Y-129891077D01*
X32534108Y-129900500D01*
X32554928Y-129900500D01*
X32572733Y-129901784D01*
X32593340Y-129904775D01*
X32617682Y-129901896D01*
X32622238Y-129901358D01*
X32636798Y-129900500D01*
X55864843Y-129900500D01*
X55895280Y-129904797D01*
X55930457Y-129900500D01*
X55965892Y-129900500D01*
X55987176Y-129894796D01*
X56004215Y-129891490D01*
X56026092Y-129888818D01*
X56051952Y-129878388D01*
X56066245Y-129873610D01*
X56093186Y-129866392D01*
X56112268Y-129855374D01*
X56127870Y-129847769D01*
X56148311Y-129839527D01*
X56176626Y-129818217D01*
X56207314Y-129800500D01*
X56229046Y-129778767D01*
X56253608Y-129760283D01*
X56275443Y-129732370D01*
X56300500Y-129707314D01*
X56315868Y-129680695D01*
X56334807Y-129656486D01*
X56345720Y-129630819D01*
X56352447Y-129617338D01*
X56366392Y-129593186D01*
X56372093Y-129571907D01*
X56377756Y-129555478D01*
X56386375Y-129535210D01*
X56391329Y-129500118D01*
X56400500Y-129465892D01*
X56400500Y-129435157D01*
X57363451Y-122614250D01*
X57432094Y-122128034D01*
X65599500Y-122128034D01*
X65599500Y-122471965D01*
X65633210Y-122814249D01*
X65700308Y-123151572D01*
X65800150Y-123480706D01*
X65931770Y-123798464D01*
X65931772Y-123798469D01*
X66093893Y-124101775D01*
X66093904Y-124101793D01*
X66284975Y-124387751D01*
X66284985Y-124387765D01*
X66503176Y-124653632D01*
X66746367Y-124896823D01*
X66746372Y-124896827D01*
X66746373Y-124896828D01*
X67012240Y-125115019D01*
X67298213Y-125306100D01*
X67298222Y-125306105D01*
X67298224Y-125306106D01*
X67601530Y-125468227D01*
X67601532Y-125468227D01*
X67601538Y-125468231D01*
X67919295Y-125599850D01*
X68248422Y-125699690D01*
X68585750Y-125766789D01*
X68928031Y-125800500D01*
X68928034Y-125800500D01*
X69271966Y-125800500D01*
X69271969Y-125800500D01*
X69614250Y-125766789D01*
X69951578Y-125699690D01*
X70280705Y-125599850D01*
X70598462Y-125468231D01*
X70901787Y-125306100D01*
X71187760Y-125115019D01*
X71453627Y-124896828D01*
X71696828Y-124653627D01*
X71915019Y-124387760D01*
X72106100Y-124101787D01*
X72268231Y-123798462D01*
X72399850Y-123480705D01*
X72499690Y-123151578D01*
X72566789Y-122814250D01*
X72600500Y-122471969D01*
X72600500Y-122128031D01*
X72566789Y-121785750D01*
X72499690Y-121448422D01*
X72399850Y-121119295D01*
X72268231Y-120801538D01*
X72178929Y-120634467D01*
X72106106Y-120498224D01*
X72106105Y-120498222D01*
X72106100Y-120498213D01*
X71915019Y-120212240D01*
X71696828Y-119946373D01*
X71696827Y-119946372D01*
X71696823Y-119946367D01*
X71453632Y-119703176D01*
X71187765Y-119484985D01*
X71187764Y-119484984D01*
X71187760Y-119484981D01*
X70901787Y-119293900D01*
X70901782Y-119293897D01*
X70901775Y-119293893D01*
X70598469Y-119131772D01*
X70598464Y-119131770D01*
X70280706Y-119000150D01*
X69951572Y-118900308D01*
X69614248Y-118833210D01*
X69614249Y-118833210D01*
X69356456Y-118807821D01*
X69271969Y-118799500D01*
X68928031Y-118799500D01*
X68849966Y-118807188D01*
X68585750Y-118833210D01*
X68248427Y-118900308D01*
X67919293Y-119000150D01*
X67601535Y-119131770D01*
X67601530Y-119131772D01*
X67298224Y-119293893D01*
X67298206Y-119293904D01*
X67012248Y-119484975D01*
X67012234Y-119484985D01*
X66746367Y-119703176D01*
X66503176Y-119946367D01*
X66284985Y-120212234D01*
X66284975Y-120212248D01*
X66093904Y-120498206D01*
X66093893Y-120498224D01*
X65931772Y-120801530D01*
X65931770Y-120801535D01*
X65800150Y-121119293D01*
X65700308Y-121448427D01*
X65633210Y-121785750D01*
X65599500Y-122128034D01*
X57432094Y-122128034D01*
X57434971Y-122107653D01*
X58376922Y-115435496D01*
X59991328Y-104000119D01*
X60000500Y-103965892D01*
X60000500Y-103935157D01*
X60004797Y-103904720D01*
X60000500Y-103869542D01*
X60000500Y-103834108D01*
X59992545Y-103804419D01*
X59991355Y-103794674D01*
X59988819Y-103773912D01*
X59988818Y-103773910D01*
X59988818Y-103773908D01*
X59975563Y-103741043D01*
X59966392Y-103706814D01*
X59951023Y-103680195D01*
X59939527Y-103651689D01*
X59922752Y-103629398D01*
X59914444Y-103616838D01*
X59900502Y-103592689D01*
X59900498Y-103592684D01*
X59884925Y-103577111D01*
X59873528Y-103563992D01*
X59860283Y-103546392D01*
X59838309Y-103529202D01*
X59832369Y-103524555D01*
X59807314Y-103499500D01*
X59780697Y-103484132D01*
X59773835Y-103478764D01*
X59773834Y-103478763D01*
X59756485Y-103465192D01*
X59730818Y-103454278D01*
X59723873Y-103451324D01*
X59693186Y-103433608D01*
X59663498Y-103425652D01*
X59655487Y-103422246D01*
X59655484Y-103422245D01*
X59635210Y-103413625D01*
X59607590Y-103409725D01*
X59600118Y-103408671D01*
X59565892Y-103399500D01*
X59535157Y-103399500D01*
X59522004Y-103397643D01*
X59504722Y-103395203D01*
X59504718Y-103395202D01*
X59480454Y-103398167D01*
X59477032Y-103398585D01*
X59461998Y-103399500D01*
X36336122Y-103399500D01*
X36306660Y-103395225D01*
X36270508Y-103399500D01*
X36234107Y-103399500D01*
X36213990Y-103404889D01*
X36196474Y-103408253D01*
X36175787Y-103410700D01*
X36148757Y-103421480D01*
X36134923Y-103426075D01*
X36106815Y-103433607D01*
X36106814Y-103433607D01*
X36088779Y-103444020D01*
X36088778Y-103444019D01*
X36081021Y-103448497D01*
X36053380Y-103459522D01*
X36024221Y-103481290D01*
X36017888Y-103484947D01*
X36017885Y-103484950D01*
X35992685Y-103499500D01*
X35977964Y-103514221D01*
X35964470Y-103525899D01*
X35947783Y-103538357D01*
X35947776Y-103538363D01*
X35929760Y-103561211D01*
X35920079Y-103572104D01*
X35899504Y-103592681D01*
X35899496Y-103592691D01*
X35889086Y-103610721D01*
X35884610Y-103618471D01*
X35866182Y-103641845D01*
X35851814Y-103675275D01*
X35848159Y-103681607D01*
X35848158Y-103681611D01*
X35833608Y-103706813D01*
X35833607Y-103706814D01*
X35828213Y-103726941D01*
X35825898Y-103735578D01*
X35814149Y-103762922D01*
X35808923Y-103798930D01*
X35807030Y-103805998D01*
X35807030Y-103806003D01*
X35799500Y-103834103D01*
X35799500Y-103854931D01*
X35798215Y-103872737D01*
X32109969Y-129291720D01*
X32108919Y-129298951D01*
X32099500Y-129334108D01*
X32099500Y-129363873D01*
X32098215Y-129372730D01*
X32098215Y-129372732D01*
X32095225Y-129393338D01*
X25731190Y-129393338D01*
X25732702Y-129382576D01*
X26658836Y-122791950D01*
X29956631Y-99323920D01*
X82249499Y-99323920D01*
X82278340Y-99468907D01*
X82278343Y-99468917D01*
X82334912Y-99605488D01*
X82334919Y-99605501D01*
X82417048Y-99728415D01*
X82417051Y-99728419D01*
X82521580Y-99832948D01*
X82521584Y-99832951D01*
X82644498Y-99915080D01*
X82644511Y-99915087D01*
X82726629Y-99949101D01*
X82781087Y-99971658D01*
X82781091Y-99971658D01*
X82781092Y-99971659D01*
X82926079Y-100000500D01*
X82926082Y-100000500D01*
X83073920Y-100000500D01*
X83194767Y-99976461D01*
X83218913Y-99971658D01*
X83355495Y-99915084D01*
X83478416Y-99832951D01*
X83582951Y-99728416D01*
X83665084Y-99605495D01*
X83721658Y-99468913D01*
X83740446Y-99374463D01*
X83750500Y-99323920D01*
X83750500Y-96676079D01*
X83721659Y-96531092D01*
X83721658Y-96531091D01*
X83721658Y-96531087D01*
X83721656Y-96531082D01*
X83665087Y-96394511D01*
X83665080Y-96394498D01*
X83582951Y-96271584D01*
X83582948Y-96271580D01*
X83478419Y-96167051D01*
X83478415Y-96167048D01*
X83382460Y-96102933D01*
X83355500Y-96084919D01*
X83355488Y-96084912D01*
X83218917Y-96028343D01*
X83218907Y-96028340D01*
X83073920Y-95999500D01*
X83073918Y-95999500D01*
X82926082Y-95999500D01*
X82926080Y-95999500D01*
X82781092Y-96028340D01*
X82781082Y-96028343D01*
X82644511Y-96084912D01*
X82644498Y-96084919D01*
X82521584Y-96167048D01*
X82521580Y-96167051D01*
X82417051Y-96271580D01*
X82417048Y-96271584D01*
X82334919Y-96394498D01*
X82334912Y-96394511D01*
X82278343Y-96531082D01*
X82278340Y-96531092D01*
X82249500Y-96676079D01*
X82249500Y-96676082D01*
X82249500Y-99323918D01*
X82249500Y-99323920D01*
X82249499Y-99323920D01*
X29956631Y-99323920D01*
X30424654Y-95993340D01*
X36795225Y-95993340D01*
X36796490Y-96004034D01*
X36798642Y-96022235D01*
X36799500Y-96036796D01*
X36799500Y-96065890D01*
X36799501Y-96065899D01*
X36804887Y-96086001D01*
X36808253Y-96103523D01*
X36810700Y-96124209D01*
X36810702Y-96124216D01*
X36821479Y-96151240D01*
X36821480Y-96151240D01*
X36824186Y-96158025D01*
X36833608Y-96193186D01*
X36848491Y-96218963D01*
X36851808Y-96227280D01*
X36859522Y-96246621D01*
X36876928Y-96269935D01*
X36876929Y-96269936D01*
X36879838Y-96273833D01*
X36881299Y-96275789D01*
X36899500Y-96307314D01*
X36920547Y-96328361D01*
X36925900Y-96335531D01*
X36925900Y-96335532D01*
X36938354Y-96352213D01*
X36938358Y-96352217D01*
X36938361Y-96352221D01*
X36966947Y-96374761D01*
X36992686Y-96400500D01*
X37018468Y-96415385D01*
X37025496Y-96420927D01*
X37025497Y-96420928D01*
X37041841Y-96433815D01*
X37041843Y-96433817D01*
X37041844Y-96433817D01*
X37041845Y-96433818D01*
X37055127Y-96439526D01*
X37068573Y-96445304D01*
X37081613Y-96451842D01*
X37106814Y-96466392D01*
X37135573Y-96474098D01*
X37162922Y-96485851D01*
X37198943Y-96491077D01*
X37234108Y-96500500D01*
X37254928Y-96500500D01*
X37272733Y-96501784D01*
X37293340Y-96504775D01*
X37317682Y-96501896D01*
X37322238Y-96501358D01*
X37336798Y-96500500D01*
X60564843Y-96500500D01*
X60595280Y-96504797D01*
X60630457Y-96500500D01*
X60665892Y-96500500D01*
X60687176Y-96494796D01*
X60704215Y-96491490D01*
X60726092Y-96488818D01*
X60751952Y-96478388D01*
X60766245Y-96473610D01*
X60793186Y-96466392D01*
X60812268Y-96455374D01*
X60827870Y-96447769D01*
X60848311Y-96439527D01*
X60876626Y-96418217D01*
X60907314Y-96400500D01*
X60929046Y-96378767D01*
X60953608Y-96360283D01*
X60975443Y-96332370D01*
X61000500Y-96307314D01*
X61015868Y-96280695D01*
X61034807Y-96256486D01*
X61045720Y-96230819D01*
X61052447Y-96217338D01*
X61053609Y-96215326D01*
X61066392Y-96193186D01*
X61072093Y-96171907D01*
X61077756Y-96155478D01*
X61086375Y-96135210D01*
X61091329Y-96100118D01*
X61100500Y-96065892D01*
X61100500Y-96035157D01*
X61106404Y-95993340D01*
X84595225Y-95993340D01*
X84596490Y-96004034D01*
X84598642Y-96022235D01*
X84599500Y-96036796D01*
X84599500Y-96065890D01*
X84599501Y-96065899D01*
X84604887Y-96086001D01*
X84608253Y-96103523D01*
X84610700Y-96124209D01*
X84610702Y-96124216D01*
X84621479Y-96151240D01*
X84621480Y-96151240D01*
X84624186Y-96158025D01*
X84633608Y-96193186D01*
X84648491Y-96218963D01*
X84651808Y-96227280D01*
X84659522Y-96246621D01*
X84676928Y-96269935D01*
X84676929Y-96269936D01*
X84679838Y-96273833D01*
X84681299Y-96275789D01*
X84699500Y-96307314D01*
X84720547Y-96328361D01*
X84725900Y-96335531D01*
X84725900Y-96335532D01*
X84738354Y-96352213D01*
X84738358Y-96352217D01*
X84738361Y-96352221D01*
X84766947Y-96374761D01*
X84792686Y-96400500D01*
X84818468Y-96415385D01*
X84825496Y-96420927D01*
X84825497Y-96420928D01*
X84841841Y-96433815D01*
X84841843Y-96433817D01*
X84841844Y-96433817D01*
X84841845Y-96433818D01*
X84855127Y-96439526D01*
X84868573Y-96445304D01*
X84881613Y-96451842D01*
X84906814Y-96466392D01*
X84935573Y-96474098D01*
X84962922Y-96485851D01*
X84998943Y-96491077D01*
X85034108Y-96500500D01*
X85054928Y-96500500D01*
X85072733Y-96501784D01*
X85093340Y-96504775D01*
X85117682Y-96501896D01*
X85122238Y-96501358D01*
X85136798Y-96500500D01*
X108364843Y-96500500D01*
X108395280Y-96504797D01*
X108430457Y-96500500D01*
X108465892Y-96500500D01*
X108487176Y-96494796D01*
X108504215Y-96491490D01*
X108526092Y-96488818D01*
X108551952Y-96478388D01*
X108566245Y-96473610D01*
X108593186Y-96466392D01*
X108612268Y-96455374D01*
X108627870Y-96447769D01*
X108648311Y-96439527D01*
X108676626Y-96418217D01*
X108707314Y-96400500D01*
X108729046Y-96378767D01*
X108753608Y-96360283D01*
X108775443Y-96332370D01*
X108800500Y-96307314D01*
X108815868Y-96280695D01*
X108834807Y-96256486D01*
X108845720Y-96230819D01*
X108852447Y-96217338D01*
X108853609Y-96215326D01*
X108866392Y-96193186D01*
X108872093Y-96171907D01*
X108877756Y-96155478D01*
X108886375Y-96135210D01*
X108891329Y-96100118D01*
X108900500Y-96065892D01*
X108900500Y-96035157D01*
X111132442Y-80225565D01*
X120349500Y-80225565D01*
X120349500Y-85370451D01*
X120375090Y-85465954D01*
X120412902Y-85531447D01*
X120424526Y-85551579D01*
X121088181Y-86215234D01*
X121121666Y-86276557D01*
X121124500Y-86302915D01*
X121124500Y-107239435D01*
X121150090Y-107334938D01*
X121150091Y-107334939D01*
X121150090Y-107334939D01*
X121161757Y-107355145D01*
X121164885Y-107360563D01*
X121199526Y-107420563D01*
X121199528Y-107420565D01*
X125019432Y-111240471D01*
X125019435Y-111240473D01*
X125019437Y-111240475D01*
X125062250Y-111265192D01*
X125105062Y-111289910D01*
X125152813Y-111302705D01*
X125165436Y-111306087D01*
X125172675Y-111309043D01*
X125194124Y-111326149D01*
X125217556Y-111340432D01*
X125221048Y-111347622D01*
X125227300Y-111352608D01*
X125236097Y-111378600D01*
X125248085Y-111403279D01*
X125249204Y-111411678D01*
X125250096Y-111420727D01*
X125249192Y-111420816D01*
X125247363Y-111428137D01*
X125242630Y-111481037D01*
X125199766Y-111536214D01*
X125133876Y-111559458D01*
X125103049Y-111557253D01*
X125064072Y-111549500D01*
X125064069Y-111549500D01*
X124935931Y-111549500D01*
X124935929Y-111549500D01*
X124810261Y-111574497D01*
X124810255Y-111574499D01*
X124691875Y-111623533D01*
X124691866Y-111623538D01*
X124585331Y-111694723D01*
X124585327Y-111694726D01*
X124494726Y-111785327D01*
X124494723Y-111785331D01*
X124423538Y-111891866D01*
X124423533Y-111891875D01*
X124374499Y-112010255D01*
X124374497Y-112010261D01*
X124349500Y-112135928D01*
X124349500Y-112135931D01*
X124349500Y-112264069D01*
X124349500Y-112264071D01*
X124349499Y-112264071D01*
X124374497Y-112389738D01*
X124374499Y-112389744D01*
X124423533Y-112508124D01*
X124423538Y-112508133D01*
X124455929Y-112556609D01*
X124476807Y-112623287D01*
X124458322Y-112690667D01*
X124406344Y-112737357D01*
X124352827Y-112749500D01*
X124335929Y-112749500D01*
X124210261Y-112774497D01*
X124210255Y-112774499D01*
X124091875Y-112823533D01*
X124091866Y-112823538D01*
X123985331Y-112894723D01*
X123985327Y-112894726D01*
X123894726Y-112985327D01*
X123894723Y-112985331D01*
X123823538Y-113091866D01*
X123823533Y-113091875D01*
X123774499Y-113210255D01*
X123774497Y-113210261D01*
X123749500Y-113335928D01*
X123749500Y-113335931D01*
X123749500Y-113464069D01*
X123749500Y-113464071D01*
X123749499Y-113464071D01*
X123774497Y-113589738D01*
X123774499Y-113589744D01*
X123823533Y-113708124D01*
X123823538Y-113708133D01*
X123894723Y-113814668D01*
X123894726Y-113814672D01*
X123985327Y-113905273D01*
X123985331Y-113905276D01*
X124091866Y-113976461D01*
X124091872Y-113976464D01*
X124091873Y-113976465D01*
X124210256Y-114025501D01*
X124210260Y-114025501D01*
X124210261Y-114025502D01*
X124335928Y-114050500D01*
X124335931Y-114050500D01*
X124464071Y-114050500D01*
X124548615Y-114033682D01*
X124589744Y-114025501D01*
X124708127Y-113976465D01*
X124763093Y-113939738D01*
X124790541Y-113921398D01*
X124857218Y-113900520D01*
X124859432Y-113900500D01*
X125136960Y-113900500D01*
X125203999Y-113920185D01*
X125249754Y-113972989D01*
X125252019Y-113978267D01*
X125256324Y-113988981D01*
X125264034Y-114027740D01*
X125283763Y-114057267D01*
X125288565Y-114069217D01*
X125290740Y-114091692D01*
X125297486Y-114113238D01*
X125294040Y-114125797D01*
X125295295Y-114138761D01*
X125284975Y-114158841D01*
X125279001Y-114180618D01*
X125276609Y-114184339D01*
X125264506Y-114202453D01*
X125264503Y-114202459D01*
X125250000Y-114275371D01*
X125250000Y-114500000D01*
X127250000Y-114500000D01*
X127250000Y-114275373D01*
X127249999Y-114275371D01*
X127235496Y-114202459D01*
X127235495Y-114202455D01*
X127223391Y-114184341D01*
X127202513Y-114117664D01*
X127220997Y-114050284D01*
X127223392Y-114046558D01*
X127235966Y-114027740D01*
X127250500Y-113954674D01*
X127250500Y-113005326D01*
X127250500Y-113005323D01*
X127250499Y-113005321D01*
X127235967Y-112932264D01*
X127235966Y-112932262D01*
X127235966Y-112932260D01*
X127223691Y-112913889D01*
X127202814Y-112847214D01*
X127221298Y-112779834D01*
X127223692Y-112776109D01*
X127224768Y-112774499D01*
X127235966Y-112757740D01*
X127250500Y-112684674D01*
X127250500Y-112047172D01*
X127270185Y-111980133D01*
X127322989Y-111934378D01*
X127392147Y-111924434D01*
X127443392Y-111944071D01*
X127491864Y-111976460D01*
X127491872Y-111976464D01*
X127491873Y-111976465D01*
X127610256Y-112025501D01*
X127610260Y-112025501D01*
X127610261Y-112025502D01*
X127735928Y-112050500D01*
X127735931Y-112050500D01*
X127864071Y-112050500D01*
X127948615Y-112033682D01*
X127989744Y-112025501D01*
X128108127Y-111976465D01*
X128214669Y-111905276D01*
X128305276Y-111814669D01*
X128376465Y-111708127D01*
X128425501Y-111589744D01*
X128442892Y-111502316D01*
X128450500Y-111464071D01*
X128450500Y-111335928D01*
X128425502Y-111210261D01*
X128425501Y-111210260D01*
X128425501Y-111210256D01*
X128376465Y-111091873D01*
X128376464Y-111091871D01*
X128376458Y-111091861D01*
X128321398Y-111009457D01*
X128300520Y-110942780D01*
X128300500Y-110940567D01*
X128300500Y-108954628D01*
X131350000Y-108954628D01*
X131364503Y-109027540D01*
X131364505Y-109027544D01*
X131419760Y-109110239D01*
X131502455Y-109165494D01*
X131502459Y-109165496D01*
X131575371Y-109179999D01*
X131575374Y-109180000D01*
X131850000Y-109180000D01*
X132350000Y-109180000D01*
X133250000Y-109180000D01*
X133750000Y-109180000D01*
X134650000Y-109180000D01*
X135150000Y-109180000D01*
X135424626Y-109180000D01*
X135424628Y-109179999D01*
X135497540Y-109165496D01*
X135497544Y-109165494D01*
X135580239Y-109110239D01*
X135635494Y-109027544D01*
X135635496Y-109027540D01*
X135649999Y-108954628D01*
X135650000Y-108954626D01*
X135650000Y-108680000D01*
X135150000Y-108680000D01*
X135150000Y-109180000D01*
X134650000Y-109180000D01*
X134650000Y-108680000D01*
X133750000Y-108680000D01*
X133750000Y-109180000D01*
X133250000Y-109180000D01*
X133250000Y-108680000D01*
X132350000Y-108680000D01*
X132350000Y-109180000D01*
X131850000Y-109180000D01*
X131850000Y-108680000D01*
X131350000Y-108680000D01*
X131350000Y-108954628D01*
X128300500Y-108954628D01*
X128300500Y-108859432D01*
X128320185Y-108792393D01*
X128321398Y-108790541D01*
X128376461Y-108708133D01*
X128376461Y-108708132D01*
X128376465Y-108708127D01*
X128425501Y-108589744D01*
X128442892Y-108502316D01*
X128450500Y-108464071D01*
X128450500Y-108390218D01*
X132600000Y-108390218D01*
X132600000Y-108469782D01*
X132630448Y-108543291D01*
X132686709Y-108599552D01*
X132760218Y-108630000D01*
X132839782Y-108630000D01*
X132913291Y-108599552D01*
X132969552Y-108543291D01*
X133000000Y-108469782D01*
X133000000Y-108390218D01*
X134000000Y-108390218D01*
X134000000Y-108469782D01*
X134030448Y-108543291D01*
X134086709Y-108599552D01*
X134160218Y-108630000D01*
X134239782Y-108630000D01*
X134313291Y-108599552D01*
X134369552Y-108543291D01*
X134400000Y-108469782D01*
X134400000Y-108390218D01*
X134369552Y-108316709D01*
X134313291Y-108260448D01*
X134239782Y-108230000D01*
X134160218Y-108230000D01*
X134086709Y-108260448D01*
X134030448Y-108316709D01*
X134000000Y-108390218D01*
X133000000Y-108390218D01*
X132969552Y-108316709D01*
X132913291Y-108260448D01*
X132839782Y-108230000D01*
X132760218Y-108230000D01*
X132686709Y-108260448D01*
X132630448Y-108316709D01*
X132600000Y-108390218D01*
X128450500Y-108390218D01*
X128450500Y-108335928D01*
X128425502Y-108210261D01*
X128425501Y-108210260D01*
X128425501Y-108210256D01*
X128412969Y-108180000D01*
X131350000Y-108180000D01*
X131850000Y-108180000D01*
X135150000Y-108180000D01*
X135650000Y-108180000D01*
X135650000Y-107280000D01*
X135150000Y-107280000D01*
X135150000Y-108180000D01*
X131850000Y-108180000D01*
X131850000Y-107690218D01*
X131900000Y-107690218D01*
X131900000Y-107769782D01*
X131930448Y-107843291D01*
X131986709Y-107899552D01*
X132060218Y-107930000D01*
X132139782Y-107930000D01*
X132213291Y-107899552D01*
X132269552Y-107843291D01*
X132300000Y-107769782D01*
X132300000Y-107730000D01*
X132453553Y-107730000D01*
X132558884Y-107835331D01*
X132787500Y-108063946D01*
X132787501Y-108063946D01*
X133121446Y-107730001D01*
X133121446Y-107729999D01*
X133081665Y-107690218D01*
X133275000Y-107690218D01*
X133275000Y-107769782D01*
X133305448Y-107843291D01*
X133361709Y-107899552D01*
X133435218Y-107930000D01*
X133514782Y-107930000D01*
X133588291Y-107899552D01*
X133644552Y-107843291D01*
X133675000Y-107769782D01*
X133675000Y-107730000D01*
X133853553Y-107730000D01*
X134199999Y-108076446D01*
X134441115Y-107835331D01*
X134546446Y-107729999D01*
X134506665Y-107690218D01*
X134700000Y-107690218D01*
X134700000Y-107769782D01*
X134730448Y-107843291D01*
X134786709Y-107899552D01*
X134860218Y-107930000D01*
X134939782Y-107930000D01*
X135013291Y-107899552D01*
X135069552Y-107843291D01*
X135100000Y-107769782D01*
X135100000Y-107690218D01*
X135069552Y-107616709D01*
X135013291Y-107560448D01*
X134939782Y-107530000D01*
X134860218Y-107530000D01*
X134786709Y-107560448D01*
X134730448Y-107616709D01*
X134700000Y-107690218D01*
X134506665Y-107690218D01*
X134200000Y-107383553D01*
X133853553Y-107730000D01*
X133675000Y-107730000D01*
X133675000Y-107690218D01*
X133644552Y-107616709D01*
X133588291Y-107560448D01*
X133514782Y-107530000D01*
X133435218Y-107530000D01*
X133361709Y-107560448D01*
X133305448Y-107616709D01*
X133275000Y-107690218D01*
X133081665Y-107690218D01*
X132787501Y-107396053D01*
X132787500Y-107396053D01*
X132453553Y-107730000D01*
X132300000Y-107730000D01*
X132300000Y-107690218D01*
X132269552Y-107616709D01*
X132213291Y-107560448D01*
X132139782Y-107530000D01*
X132060218Y-107530000D01*
X131986709Y-107560448D01*
X131930448Y-107616709D01*
X131900000Y-107690218D01*
X131850000Y-107690218D01*
X131850000Y-107280000D01*
X131350000Y-107280000D01*
X131350000Y-108180000D01*
X128412969Y-108180000D01*
X128376465Y-108091873D01*
X128376464Y-108091872D01*
X128376461Y-108091866D01*
X128305276Y-107985331D01*
X128305273Y-107985327D01*
X128214672Y-107894726D01*
X128214668Y-107894723D01*
X128108133Y-107823538D01*
X128108124Y-107823533D01*
X127989744Y-107774499D01*
X127989738Y-107774497D01*
X127864071Y-107749500D01*
X127864069Y-107749500D01*
X127735931Y-107749500D01*
X127735929Y-107749500D01*
X127610261Y-107774497D01*
X127610255Y-107774499D01*
X127491875Y-107823533D01*
X127491861Y-107823541D01*
X127404786Y-107881723D01*
X127396150Y-107884426D01*
X127389417Y-107890476D01*
X127363326Y-107894704D01*
X127338109Y-107902601D01*
X127329381Y-107900206D01*
X127320447Y-107901655D01*
X127296213Y-107891107D01*
X127270729Y-107884116D01*
X127262986Y-107876645D01*
X127256382Y-107873771D01*
X127232796Y-107847516D01*
X127229973Y-107843291D01*
X127223693Y-107833891D01*
X127202814Y-107767218D01*
X127221296Y-107699837D01*
X127223692Y-107696109D01*
X127235966Y-107677740D01*
X127250500Y-107604674D01*
X127250500Y-106990218D01*
X132600000Y-106990218D01*
X132600000Y-107069782D01*
X132630448Y-107143291D01*
X132686709Y-107199552D01*
X132760218Y-107230000D01*
X132839782Y-107230000D01*
X132913291Y-107199552D01*
X132969552Y-107143291D01*
X133000000Y-107069782D01*
X133000000Y-106990218D01*
X134000000Y-106990218D01*
X134000000Y-107069782D01*
X134030448Y-107143291D01*
X134086709Y-107199552D01*
X134160218Y-107230000D01*
X134239782Y-107230000D01*
X134313291Y-107199552D01*
X134369552Y-107143291D01*
X134400000Y-107069782D01*
X134400000Y-106990218D01*
X134369552Y-106916709D01*
X134313291Y-106860448D01*
X134239782Y-106830000D01*
X134160218Y-106830000D01*
X134086709Y-106860448D01*
X134030448Y-106916709D01*
X134000000Y-106990218D01*
X133000000Y-106990218D01*
X132969552Y-106916709D01*
X132913291Y-106860448D01*
X132839782Y-106830000D01*
X132760218Y-106830000D01*
X132686709Y-106860448D01*
X132630448Y-106916709D01*
X132600000Y-106990218D01*
X127250500Y-106990218D01*
X127250500Y-106780000D01*
X131350000Y-106780000D01*
X131850000Y-106780000D01*
X135150000Y-106780000D01*
X135650000Y-106780000D01*
X135650000Y-105880000D01*
X135150000Y-105880000D01*
X135150000Y-106780000D01*
X131850000Y-106780000D01*
X131850000Y-106290218D01*
X131900000Y-106290218D01*
X131900000Y-106369782D01*
X131930448Y-106443291D01*
X131986709Y-106499552D01*
X132060218Y-106530000D01*
X132139782Y-106530000D01*
X132213291Y-106499552D01*
X132269552Y-106443291D01*
X132300000Y-106369782D01*
X132300000Y-106330000D01*
X132453553Y-106330000D01*
X132568059Y-106444506D01*
X132787500Y-106663946D01*
X132787501Y-106663946D01*
X133121446Y-106330001D01*
X133121446Y-106329999D01*
X133081665Y-106290218D01*
X133275000Y-106290218D01*
X133275000Y-106369782D01*
X133305448Y-106443291D01*
X133361709Y-106499552D01*
X133435218Y-106530000D01*
X133514782Y-106530000D01*
X133588291Y-106499552D01*
X133644552Y-106443291D01*
X133675000Y-106369782D01*
X133675000Y-106330000D01*
X133853553Y-106330000D01*
X134199999Y-106676446D01*
X134431940Y-106444506D01*
X134546446Y-106329999D01*
X134506665Y-106290218D01*
X134700000Y-106290218D01*
X134700000Y-106369782D01*
X134730448Y-106443291D01*
X134786709Y-106499552D01*
X134860218Y-106530000D01*
X134939782Y-106530000D01*
X135013291Y-106499552D01*
X135069552Y-106443291D01*
X135100000Y-106369782D01*
X135100000Y-106290218D01*
X135069552Y-106216709D01*
X135013291Y-106160448D01*
X134939782Y-106130000D01*
X134860218Y-106130000D01*
X134786709Y-106160448D01*
X134730448Y-106216709D01*
X134700000Y-106290218D01*
X134506665Y-106290218D01*
X134200000Y-105983553D01*
X133853553Y-106330000D01*
X133675000Y-106330000D01*
X133675000Y-106290218D01*
X133644552Y-106216709D01*
X133588291Y-106160448D01*
X133514782Y-106130000D01*
X133435218Y-106130000D01*
X133361709Y-106160448D01*
X133305448Y-106216709D01*
X133275000Y-106290218D01*
X133081665Y-106290218D01*
X132787501Y-105996053D01*
X132787500Y-105996053D01*
X132453553Y-106330000D01*
X132300000Y-106330000D01*
X132300000Y-106290218D01*
X132269552Y-106216709D01*
X132213291Y-106160448D01*
X132139782Y-106130000D01*
X132060218Y-106130000D01*
X131986709Y-106160448D01*
X131930448Y-106216709D01*
X131900000Y-106290218D01*
X131850000Y-106290218D01*
X131850000Y-105880000D01*
X131350000Y-105880000D01*
X131350000Y-106780000D01*
X127250500Y-106780000D01*
X127250500Y-106655326D01*
X127250500Y-106655323D01*
X127250499Y-106655321D01*
X127235967Y-106582264D01*
X127235966Y-106582261D01*
X127235966Y-106582260D01*
X127223691Y-106563889D01*
X127202814Y-106497214D01*
X127221298Y-106429834D01*
X127223692Y-106426109D01*
X127235966Y-106407740D01*
X127250500Y-106334674D01*
X127250500Y-105590218D01*
X132600000Y-105590218D01*
X132600000Y-105669782D01*
X132630448Y-105743291D01*
X132686709Y-105799552D01*
X132760218Y-105830000D01*
X132839782Y-105830000D01*
X132913291Y-105799552D01*
X132969552Y-105743291D01*
X133000000Y-105669782D01*
X133000000Y-105590218D01*
X134000000Y-105590218D01*
X134000000Y-105669782D01*
X134030448Y-105743291D01*
X134086709Y-105799552D01*
X134160218Y-105830000D01*
X134239782Y-105830000D01*
X134313291Y-105799552D01*
X134369552Y-105743291D01*
X134400000Y-105669782D01*
X134400000Y-105590218D01*
X134369552Y-105516709D01*
X134313291Y-105460448D01*
X134239782Y-105430000D01*
X134160218Y-105430000D01*
X134086709Y-105460448D01*
X134030448Y-105516709D01*
X134000000Y-105590218D01*
X133000000Y-105590218D01*
X132969552Y-105516709D01*
X132913291Y-105460448D01*
X132839782Y-105430000D01*
X132760218Y-105430000D01*
X132686709Y-105460448D01*
X132630448Y-105516709D01*
X132600000Y-105590218D01*
X127250500Y-105590218D01*
X127250500Y-105385326D01*
X127250500Y-105385323D01*
X127250499Y-105385321D01*
X127235967Y-105312264D01*
X127235966Y-105312261D01*
X127235966Y-105312260D01*
X127223691Y-105293889D01*
X127202814Y-105227214D01*
X127209539Y-105184660D01*
X127214764Y-105169470D01*
X127235966Y-105137740D01*
X127242405Y-105105371D01*
X131350000Y-105105371D01*
X131350000Y-105380000D01*
X131850000Y-105380000D01*
X132350000Y-105380000D01*
X133250000Y-105380000D01*
X133750000Y-105380000D01*
X134650000Y-105380000D01*
X135150000Y-105380000D01*
X135650000Y-105380000D01*
X135650000Y-105105373D01*
X135649999Y-105105371D01*
X135635496Y-105032459D01*
X135635494Y-105032455D01*
X135580239Y-104949760D01*
X135497544Y-104894505D01*
X135497540Y-104894503D01*
X135424627Y-104880000D01*
X135150000Y-104880000D01*
X135150000Y-105380000D01*
X134650000Y-105380000D01*
X134650000Y-104880000D01*
X133750000Y-104880000D01*
X133750000Y-105380000D01*
X133250000Y-105380000D01*
X133250000Y-104880000D01*
X132350000Y-104880000D01*
X132350000Y-105380000D01*
X131850000Y-105380000D01*
X131850000Y-104880000D01*
X131575373Y-104880000D01*
X131502459Y-104894503D01*
X131502455Y-104894505D01*
X131419760Y-104949760D01*
X131364505Y-105032455D01*
X131364503Y-105032459D01*
X131350000Y-105105371D01*
X127242405Y-105105371D01*
X127250500Y-105064674D01*
X127250500Y-104115326D01*
X127250500Y-104115323D01*
X127250499Y-104115321D01*
X127235967Y-104042264D01*
X127235966Y-104042262D01*
X127235966Y-104042260D01*
X127223691Y-104023889D01*
X127202814Y-103957214D01*
X127221298Y-103889834D01*
X127223692Y-103886109D01*
X127227252Y-103880781D01*
X127235966Y-103867740D01*
X127250500Y-103794674D01*
X127250500Y-103664071D01*
X128949499Y-103664071D01*
X128974497Y-103789738D01*
X128974499Y-103789744D01*
X129023533Y-103908124D01*
X129023538Y-103908133D01*
X129094723Y-104014668D01*
X129094726Y-104014672D01*
X129185327Y-104105273D01*
X129185331Y-104105276D01*
X129291866Y-104176461D01*
X129291875Y-104176466D01*
X129317553Y-104187102D01*
X129410256Y-104225501D01*
X129410260Y-104225501D01*
X129410261Y-104225502D01*
X129535928Y-104250500D01*
X129535931Y-104250500D01*
X129664071Y-104250500D01*
X129765739Y-104230276D01*
X129789744Y-104225501D01*
X129908127Y-104176465D01*
X130014669Y-104105276D01*
X130105276Y-104014669D01*
X130176465Y-103908127D01*
X130225501Y-103789744D01*
X130234508Y-103744463D01*
X130250500Y-103664071D01*
X130250500Y-103531898D01*
X130270185Y-103464859D01*
X130286819Y-103444217D01*
X130476481Y-103254555D01*
X131285475Y-102445563D01*
X131334911Y-102359937D01*
X131360500Y-102264436D01*
X131360500Y-102165564D01*
X131360500Y-98565565D01*
X131353626Y-98539910D01*
X131334911Y-98470063D01*
X131285475Y-98384437D01*
X131075809Y-98174771D01*
X131042324Y-98113448D01*
X131047308Y-98043756D01*
X131089180Y-97987823D01*
X131096343Y-97982843D01*
X131106697Y-97976173D01*
X131107740Y-97975966D01*
X131127027Y-97963078D01*
X131127853Y-97962547D01*
X131160423Y-97952947D01*
X131192786Y-97942814D01*
X131193831Y-97943100D01*
X131194873Y-97942794D01*
X131227439Y-97952320D01*
X131260166Y-97961298D01*
X131261866Y-97962390D01*
X131261932Y-97962410D01*
X131261977Y-97962461D01*
X131263873Y-97963680D01*
X131282260Y-97975966D01*
X131282262Y-97975966D01*
X131282264Y-97975967D01*
X131355321Y-97990499D01*
X131355324Y-97990500D01*
X131355326Y-97990500D01*
X132304676Y-97990500D01*
X132304677Y-97990499D01*
X132377740Y-97975966D01*
X132396110Y-97963691D01*
X132462786Y-97942814D01*
X132530166Y-97961298D01*
X132533873Y-97963680D01*
X132552260Y-97975966D01*
X132552262Y-97975966D01*
X132552264Y-97975967D01*
X132625321Y-97990499D01*
X132625324Y-97990500D01*
X132625326Y-97990500D01*
X133574676Y-97990500D01*
X133574677Y-97990499D01*
X133647740Y-97975966D01*
X133666110Y-97963691D01*
X133732786Y-97942814D01*
X133800166Y-97961298D01*
X133803873Y-97963680D01*
X133822260Y-97975966D01*
X133822262Y-97975966D01*
X133822264Y-97975967D01*
X133895321Y-97990499D01*
X133895324Y-97990500D01*
X133895326Y-97990500D01*
X134844676Y-97990500D01*
X134844677Y-97990499D01*
X134917740Y-97975966D01*
X134936110Y-97963691D01*
X135002786Y-97942814D01*
X135070166Y-97961298D01*
X135073873Y-97963680D01*
X135092260Y-97975966D01*
X135092262Y-97975966D01*
X135092264Y-97975967D01*
X135165321Y-97990499D01*
X135165324Y-97990500D01*
X135165326Y-97990500D01*
X136114676Y-97990500D01*
X136114677Y-97990499D01*
X136187740Y-97975966D01*
X136206110Y-97963691D01*
X136272786Y-97942814D01*
X136340166Y-97961298D01*
X136343873Y-97963680D01*
X136362260Y-97975966D01*
X136362262Y-97975966D01*
X136362264Y-97975967D01*
X136435321Y-97990499D01*
X136435324Y-97990500D01*
X136435326Y-97990500D01*
X137384676Y-97990500D01*
X137384677Y-97990499D01*
X137457740Y-97975966D01*
X137476110Y-97963691D01*
X137542786Y-97942814D01*
X137610166Y-97961298D01*
X137613873Y-97963680D01*
X137632260Y-97975966D01*
X137632262Y-97975966D01*
X137632264Y-97975967D01*
X137705321Y-97990499D01*
X137705324Y-97990500D01*
X137705326Y-97990500D01*
X138654676Y-97990500D01*
X138654677Y-97990499D01*
X138727740Y-97975966D01*
X138746110Y-97963691D01*
X138812786Y-97942814D01*
X138880166Y-97961298D01*
X138883873Y-97963680D01*
X138902260Y-97975966D01*
X138902262Y-97975966D01*
X138902264Y-97975967D01*
X138975321Y-97990499D01*
X138975324Y-97990500D01*
X138975326Y-97990500D01*
X139924676Y-97990500D01*
X139924677Y-97990499D01*
X139997740Y-97975966D01*
X140016110Y-97963691D01*
X140082786Y-97942814D01*
X140150166Y-97961298D01*
X140153873Y-97963680D01*
X140172260Y-97975966D01*
X140172262Y-97975966D01*
X140172264Y-97975967D01*
X140245321Y-97990499D01*
X140245324Y-97990500D01*
X141018770Y-97990500D01*
X141085809Y-98010185D01*
X141131564Y-98062989D01*
X141141508Y-98132147D01*
X141112483Y-98195703D01*
X141106451Y-98202181D01*
X139715451Y-99593181D01*
X139654128Y-99626666D01*
X139627770Y-99629500D01*
X135506080Y-99629500D01*
X135361092Y-99658340D01*
X135361082Y-99658343D01*
X135224511Y-99714912D01*
X135224498Y-99714919D01*
X135101584Y-99797048D01*
X135101580Y-99797051D01*
X134997051Y-99901580D01*
X134997048Y-99901584D01*
X134914919Y-100024498D01*
X134914912Y-100024511D01*
X134858343Y-100161082D01*
X134858340Y-100161092D01*
X134829500Y-100306079D01*
X134829500Y-100306082D01*
X134829500Y-100453918D01*
X134829500Y-100453920D01*
X134829499Y-100453920D01*
X134858340Y-100598907D01*
X134858343Y-100598917D01*
X134914912Y-100735488D01*
X134914919Y-100735501D01*
X134997048Y-100858415D01*
X134997051Y-100858419D01*
X135101580Y-100962948D01*
X135101584Y-100962951D01*
X135224498Y-101045080D01*
X135224511Y-101045087D01*
X135352060Y-101097919D01*
X135361087Y-101101658D01*
X135361091Y-101101658D01*
X135361092Y-101101659D01*
X135506079Y-101130500D01*
X135506082Y-101130500D01*
X138525500Y-101130500D01*
X138592539Y-101150185D01*
X138638294Y-101202989D01*
X138649500Y-101254500D01*
X138649500Y-105873918D01*
X138649500Y-105873920D01*
X138649499Y-105873920D01*
X138678340Y-106018907D01*
X138678343Y-106018917D01*
X138734912Y-106155488D01*
X138734919Y-106155501D01*
X138817048Y-106278415D01*
X138817051Y-106278419D01*
X138921580Y-106382948D01*
X138921584Y-106382951D01*
X139044498Y-106465080D01*
X139044511Y-106465087D01*
X139127718Y-106499552D01*
X139181087Y-106521658D01*
X139181091Y-106521658D01*
X139181092Y-106521659D01*
X139326079Y-106550500D01*
X139326082Y-106550500D01*
X139473920Y-106550500D01*
X139576976Y-106530000D01*
X139618913Y-106521658D01*
X139755495Y-106465084D01*
X139878416Y-106382951D01*
X139982951Y-106278416D01*
X140065084Y-106155495D01*
X140121658Y-106018913D01*
X140144990Y-105901617D01*
X140150500Y-105873920D01*
X140150500Y-104428485D01*
X140170185Y-104361446D01*
X140222989Y-104315691D01*
X140292147Y-104305747D01*
X140321948Y-104313922D01*
X140410256Y-104350501D01*
X140410260Y-104350501D01*
X140410261Y-104350502D01*
X140535928Y-104375500D01*
X140668100Y-104375500D01*
X140735139Y-104395185D01*
X140755781Y-104411819D01*
X141234437Y-104890475D01*
X141234438Y-104890476D01*
X141234440Y-104890477D01*
X141241417Y-104894505D01*
X141320063Y-104939911D01*
X141415564Y-104965500D01*
X141415565Y-104965500D01*
X142628009Y-104965500D01*
X142651272Y-104972331D01*
X142675388Y-104974908D01*
X142684199Y-104981999D01*
X142695048Y-104985185D01*
X142710925Y-105003508D01*
X142729819Y-105018714D01*
X142735325Y-105031667D01*
X142740803Y-105037989D01*
X142745638Y-105050265D01*
X142749500Y-105061843D01*
X142749500Y-105064674D01*
X142764034Y-105137740D01*
X142785562Y-105169959D01*
X142790834Y-105185765D01*
X142791522Y-105204703D01*
X142797185Y-105222789D01*
X142792766Y-105238895D01*
X142793373Y-105255588D01*
X142783713Y-105271892D01*
X142778699Y-105290169D01*
X142776309Y-105293889D01*
X142764033Y-105312261D01*
X142764032Y-105312264D01*
X142749500Y-105385321D01*
X142749500Y-106334678D01*
X142764032Y-106407735D01*
X142764033Y-106407738D01*
X142776309Y-106426111D01*
X142797185Y-106492789D01*
X142778699Y-106560169D01*
X142776309Y-106563889D01*
X142764033Y-106582261D01*
X142764032Y-106582264D01*
X142749500Y-106655321D01*
X142749500Y-107569418D01*
X142729815Y-107636457D01*
X142677011Y-107682212D01*
X142607853Y-107692156D01*
X142564054Y-107675373D01*
X142563502Y-107676408D01*
X142558124Y-107673533D01*
X142439744Y-107624499D01*
X142439738Y-107624497D01*
X142314071Y-107599500D01*
X142314069Y-107599500D01*
X142185931Y-107599500D01*
X142185929Y-107599500D01*
X142060261Y-107624497D01*
X142060255Y-107624499D01*
X141941875Y-107673533D01*
X141941866Y-107673538D01*
X141835331Y-107744723D01*
X141835327Y-107744726D01*
X141744726Y-107835327D01*
X141744723Y-107835331D01*
X141673538Y-107941866D01*
X141673533Y-107941875D01*
X141624499Y-108060255D01*
X141624497Y-108060261D01*
X141599500Y-108185928D01*
X141599500Y-108185931D01*
X141599500Y-108314069D01*
X141599500Y-108314071D01*
X141599499Y-108314071D01*
X141624497Y-108439738D01*
X141624499Y-108439744D01*
X141673533Y-108558124D01*
X141673538Y-108558133D01*
X141744723Y-108664668D01*
X141744726Y-108664672D01*
X141835327Y-108755273D01*
X141835331Y-108755276D01*
X141941866Y-108826461D01*
X141941872Y-108826464D01*
X141941873Y-108826465D01*
X142060256Y-108875501D01*
X142060260Y-108875501D01*
X142060261Y-108875502D01*
X142185928Y-108900500D01*
X142185931Y-108900500D01*
X142314071Y-108900500D01*
X142402588Y-108882892D01*
X142439744Y-108875501D01*
X142558127Y-108826465D01*
X142564277Y-108822355D01*
X142630952Y-108801475D01*
X142698333Y-108819957D01*
X142745026Y-108871934D01*
X142749637Y-108882892D01*
X142752923Y-108891884D01*
X142764034Y-108947740D01*
X142784566Y-108978469D01*
X142789671Y-108992437D01*
X142791009Y-109013062D01*
X142797185Y-109032789D01*
X142793225Y-109047222D01*
X142794194Y-109062160D01*
X142784167Y-109080236D01*
X142778699Y-109100169D01*
X142776309Y-109103889D01*
X142764033Y-109122261D01*
X142764032Y-109122264D01*
X142749500Y-109195321D01*
X142749500Y-110144678D01*
X142764032Y-110217735D01*
X142764033Y-110217738D01*
X142776309Y-110236111D01*
X142797185Y-110302789D01*
X142778699Y-110370169D01*
X142776309Y-110373889D01*
X142764033Y-110392261D01*
X142764032Y-110392264D01*
X142749500Y-110465321D01*
X142749500Y-111414678D01*
X142764032Y-111487735D01*
X142764033Y-111487738D01*
X142776309Y-111506111D01*
X142797185Y-111572789D01*
X142778699Y-111640169D01*
X142776309Y-111643889D01*
X142764033Y-111662261D01*
X142764032Y-111662264D01*
X142749500Y-111735321D01*
X142749500Y-112684678D01*
X142764032Y-112757735D01*
X142764033Y-112757738D01*
X142764033Y-112757739D01*
X142764034Y-112757740D01*
X142775232Y-112774499D01*
X142776309Y-112776111D01*
X142797185Y-112842789D01*
X142790834Y-112884235D01*
X142785562Y-112900040D01*
X142764034Y-112932260D01*
X142749500Y-113005326D01*
X142749500Y-113008156D01*
X142745638Y-113019735D01*
X142729964Y-113042278D01*
X142717241Y-113066602D01*
X142710308Y-113070549D01*
X142705753Y-113077102D01*
X142680379Y-113087592D01*
X142656526Y-113101176D01*
X142643992Y-113102636D01*
X142641184Y-113103798D01*
X142638383Y-113103290D01*
X142628009Y-113104500D01*
X140470558Y-113104500D01*
X140442521Y-113112013D01*
X140386237Y-113113855D01*
X140314071Y-113099500D01*
X140314069Y-113099500D01*
X140185931Y-113099500D01*
X140185929Y-113099500D01*
X140060261Y-113124497D01*
X140060255Y-113124499D01*
X139941875Y-113173533D01*
X139941866Y-113173538D01*
X139835331Y-113244723D01*
X139835327Y-113244726D01*
X139744726Y-113335327D01*
X139744723Y-113335331D01*
X139673538Y-113441866D01*
X139673533Y-113441875D01*
X139624499Y-113560255D01*
X139624497Y-113560261D01*
X139599500Y-113685928D01*
X139599500Y-113685931D01*
X139599500Y-113814069D01*
X139599500Y-113814071D01*
X139599499Y-113814071D01*
X139624497Y-113939738D01*
X139624499Y-113939744D01*
X139673533Y-114058124D01*
X139673538Y-114058133D01*
X139744723Y-114164668D01*
X139744726Y-114164672D01*
X139835327Y-114255273D01*
X139835331Y-114255276D01*
X139941866Y-114326461D01*
X139941872Y-114326464D01*
X139941873Y-114326465D01*
X140060256Y-114375501D01*
X140060260Y-114375501D01*
X140060261Y-114375502D01*
X140185928Y-114400500D01*
X140185931Y-114400500D01*
X140314071Y-114400500D01*
X140398615Y-114383682D01*
X140439744Y-114375501D01*
X140558127Y-114326465D01*
X140664669Y-114255276D01*
X140755276Y-114164669D01*
X140826465Y-114058127D01*
X140875501Y-113939744D01*
X140875501Y-113939743D01*
X140877832Y-113934116D01*
X140879936Y-113934987D01*
X140912674Y-113885053D01*
X140976491Y-113856607D01*
X140993021Y-113855500D01*
X142628009Y-113855500D01*
X142651217Y-113862314D01*
X142675273Y-113864861D01*
X142684139Y-113871981D01*
X142695048Y-113875185D01*
X142710886Y-113893464D01*
X142729749Y-113908613D01*
X142735287Y-113921623D01*
X142740803Y-113927989D01*
X142745599Y-113940147D01*
X142749500Y-113951803D01*
X142749500Y-113954674D01*
X142764034Y-114027740D01*
X142785829Y-114060359D01*
X142791096Y-114076097D01*
X142791805Y-114095095D01*
X142797486Y-114113238D01*
X142793082Y-114129288D01*
X142793704Y-114145918D01*
X142784031Y-114162282D01*
X142779001Y-114180618D01*
X142776609Y-114184339D01*
X142764506Y-114202453D01*
X142764503Y-114202459D01*
X142750000Y-114275371D01*
X142750000Y-114500000D01*
X143626000Y-114500000D01*
X143693039Y-114519685D01*
X143738794Y-114572489D01*
X143750000Y-114624000D01*
X143750000Y-114750000D01*
X143876000Y-114750000D01*
X143943039Y-114769685D01*
X143988794Y-114822489D01*
X144000000Y-114874000D01*
X144000000Y-115450000D01*
X144524626Y-115450000D01*
X144524628Y-115449999D01*
X144597540Y-115435496D01*
X144597544Y-115435494D01*
X144680239Y-115380240D01*
X144722876Y-115316429D01*
X144776488Y-115271623D01*
X144845813Y-115262916D01*
X144908841Y-115293070D01*
X144929081Y-115316428D01*
X144994723Y-115414668D01*
X144994726Y-115414672D01*
X145085327Y-115505273D01*
X145085331Y-115505276D01*
X145191866Y-115576461D01*
X145191872Y-115576464D01*
X145191873Y-115576465D01*
X145310256Y-115625501D01*
X145310260Y-115625501D01*
X145310261Y-115625502D01*
X145435928Y-115650500D01*
X145435931Y-115650500D01*
X145564071Y-115650500D01*
X145648615Y-115633682D01*
X145689744Y-115625501D01*
X145808127Y-115576465D01*
X145808133Y-115576461D01*
X145822461Y-115566888D01*
X145868304Y-115536255D01*
X145914669Y-115505276D01*
X146005276Y-115414669D01*
X146076465Y-115308127D01*
X146125501Y-115189744D01*
X146150500Y-115064069D01*
X146150500Y-114935931D01*
X146150500Y-114935928D01*
X146125502Y-114810261D01*
X146125501Y-114810260D01*
X146125501Y-114810256D01*
X146076465Y-114691873D01*
X146076464Y-114691872D01*
X146076461Y-114691866D01*
X146005276Y-114585331D01*
X146005273Y-114585327D01*
X145911819Y-114491873D01*
X145878334Y-114430550D01*
X145875500Y-114404192D01*
X145875500Y-112910564D01*
X145871255Y-112894723D01*
X145871254Y-112894720D01*
X145854135Y-112830830D01*
X145854135Y-112830829D01*
X145849910Y-112815064D01*
X145849910Y-112815063D01*
X145849910Y-112815062D01*
X145800475Y-112729438D01*
X145730562Y-112659525D01*
X144980563Y-111909526D01*
X144980562Y-111909525D01*
X144894938Y-111860090D01*
X144847186Y-111847295D01*
X144847164Y-111847289D01*
X144842081Y-111845926D01*
X144804498Y-111823008D01*
X144782432Y-111809554D01*
X144782430Y-111809551D01*
X144782428Y-111809550D01*
X144764173Y-111771953D01*
X144751911Y-111746703D01*
X144750794Y-111738309D01*
X144750500Y-111735331D01*
X144750500Y-111735326D01*
X144742424Y-111694724D01*
X144735967Y-111662264D01*
X144735966Y-111662261D01*
X144735966Y-111662260D01*
X144723691Y-111643889D01*
X144702814Y-111577214D01*
X144709165Y-111535764D01*
X144714435Y-111519963D01*
X144735966Y-111487740D01*
X144750500Y-111414674D01*
X144750500Y-111411842D01*
X144754362Y-111400264D01*
X144770035Y-111377721D01*
X144782759Y-111353398D01*
X144789692Y-111349449D01*
X144794248Y-111342898D01*
X144819618Y-111332408D01*
X144843474Y-111318824D01*
X144856007Y-111317363D01*
X144858816Y-111316202D01*
X144861616Y-111316709D01*
X144871991Y-111315500D01*
X147609435Y-111315500D01*
X147609436Y-111315500D01*
X147657186Y-111302705D01*
X147704938Y-111289910D01*
X147790562Y-111240475D01*
X147860475Y-111170562D01*
X147994218Y-111036819D01*
X148055541Y-111003334D01*
X148081899Y-111000500D01*
X152418101Y-111000500D01*
X152485140Y-111020185D01*
X152505782Y-111036819D01*
X152827307Y-111358344D01*
X152860792Y-111419667D01*
X152855808Y-111489359D01*
X152850113Y-111502316D01*
X152841114Y-111519977D01*
X152780291Y-111707169D01*
X152780291Y-111707172D01*
X152749500Y-111901577D01*
X152749500Y-112098422D01*
X152780290Y-112292826D01*
X152841117Y-112480029D01*
X152880137Y-112556609D01*
X152930476Y-112655405D01*
X153046172Y-112814646D01*
X153185354Y-112953828D01*
X153344595Y-113069524D01*
X153410865Y-113103290D01*
X153519970Y-113158882D01*
X153519972Y-113158882D01*
X153519975Y-113158884D01*
X153620317Y-113191487D01*
X153707173Y-113219709D01*
X153901578Y-113250500D01*
X153901583Y-113250500D01*
X154098422Y-113250500D01*
X154292826Y-113219709D01*
X154480025Y-113158884D01*
X154655405Y-113069524D01*
X154814646Y-112953828D01*
X154953828Y-112814646D01*
X155069524Y-112655405D01*
X155158884Y-112480025D01*
X155219709Y-112292826D01*
X155224264Y-112264069D01*
X155250500Y-112098422D01*
X155250500Y-111901577D01*
X155219709Y-111707173D01*
X155181553Y-111589744D01*
X155158884Y-111519975D01*
X155158882Y-111519972D01*
X155158882Y-111519970D01*
X155099425Y-111403279D01*
X155069524Y-111344595D01*
X154953828Y-111185354D01*
X154814646Y-111046172D01*
X154655405Y-110930476D01*
X154480029Y-110841117D01*
X154292826Y-110780290D01*
X154098422Y-110749500D01*
X154098417Y-110749500D01*
X153901583Y-110749500D01*
X153901578Y-110749500D01*
X153707172Y-110780291D01*
X153707169Y-110780291D01*
X153519977Y-110841114D01*
X153502316Y-110850113D01*
X153433646Y-110863007D01*
X153368907Y-110836728D01*
X153358344Y-110827307D01*
X152855563Y-110324526D01*
X152855562Y-110324525D01*
X152769938Y-110275090D01*
X152722186Y-110262295D01*
X152722184Y-110262294D01*
X152722182Y-110262293D01*
X152674436Y-110249500D01*
X152674435Y-110249500D01*
X147924436Y-110249500D01*
X147825564Y-110249500D01*
X147777812Y-110262295D01*
X147777811Y-110262294D01*
X147730063Y-110275089D01*
X147730062Y-110275089D01*
X147644435Y-110324527D01*
X147440782Y-110528181D01*
X147379459Y-110561666D01*
X147353101Y-110564500D01*
X144871991Y-110564500D01*
X144848724Y-110557668D01*
X144824613Y-110555092D01*
X144815801Y-110548000D01*
X144804952Y-110544815D01*
X144789073Y-110526490D01*
X144770181Y-110511286D01*
X144764674Y-110498332D01*
X144759197Y-110492011D01*
X144754362Y-110479736D01*
X144750500Y-110468157D01*
X144750500Y-110465326D01*
X144735966Y-110392260D01*
X144714435Y-110360036D01*
X144709165Y-110344236D01*
X144708476Y-110325297D01*
X144702814Y-110307214D01*
X144707233Y-110291105D01*
X144706626Y-110274412D01*
X144716284Y-110258108D01*
X144721298Y-110239834D01*
X144723692Y-110236109D01*
X144733190Y-110221894D01*
X144735966Y-110217740D01*
X144744241Y-110176139D01*
X144750374Y-110145309D01*
X144782759Y-110083398D01*
X144843474Y-110048824D01*
X144871991Y-110045500D01*
X145107916Y-110045500D01*
X145174955Y-110065185D01*
X145176806Y-110066398D01*
X145181485Y-110069524D01*
X145191873Y-110076465D01*
X145310256Y-110125501D01*
X145310260Y-110125501D01*
X145310261Y-110125502D01*
X145435928Y-110150500D01*
X145435931Y-110150500D01*
X145564071Y-110150500D01*
X145648615Y-110133682D01*
X145689744Y-110125501D01*
X145808127Y-110076465D01*
X145914669Y-110005276D01*
X145914672Y-110005273D01*
X146008127Y-109911819D01*
X146069450Y-109878334D01*
X146095808Y-109875500D01*
X146549434Y-109875500D01*
X146549436Y-109875500D01*
X146595684Y-109863107D01*
X146605458Y-109860489D01*
X146618617Y-109856962D01*
X146644938Y-109849910D01*
X146730562Y-109800475D01*
X146800475Y-109730562D01*
X148619218Y-107911819D01*
X148680541Y-107878334D01*
X148706899Y-107875500D01*
X152293101Y-107875500D01*
X152360140Y-107895185D01*
X152380782Y-107911819D01*
X152827307Y-108358344D01*
X152860792Y-108419667D01*
X152855808Y-108489359D01*
X152850113Y-108502316D01*
X152841114Y-108519977D01*
X152780291Y-108707169D01*
X152780291Y-108707172D01*
X152749500Y-108901577D01*
X152749500Y-109098422D01*
X152780290Y-109292826D01*
X152841117Y-109480029D01*
X152892613Y-109581095D01*
X152930476Y-109655405D01*
X153046172Y-109814646D01*
X153185354Y-109953828D01*
X153344595Y-110069524D01*
X153422268Y-110109100D01*
X153519970Y-110158882D01*
X153519972Y-110158882D01*
X153519975Y-110158884D01*
X153620317Y-110191487D01*
X153707173Y-110219709D01*
X153901578Y-110250500D01*
X153901583Y-110250500D01*
X154098422Y-110250500D01*
X154292826Y-110219709D01*
X154344826Y-110202813D01*
X154480025Y-110158884D01*
X154655405Y-110069524D01*
X154814646Y-109953828D01*
X154953828Y-109814646D01*
X155069524Y-109655405D01*
X155158884Y-109480025D01*
X155219709Y-109292826D01*
X155250500Y-109098422D01*
X155250500Y-108901577D01*
X155219709Y-108707173D01*
X155166460Y-108543291D01*
X155158884Y-108519975D01*
X155158882Y-108519972D01*
X155158882Y-108519970D01*
X155069523Y-108344594D01*
X155063227Y-108335928D01*
X154953828Y-108185354D01*
X154814646Y-108046172D01*
X154655405Y-107930476D01*
X154654471Y-107930000D01*
X154480029Y-107841117D01*
X154292826Y-107780290D01*
X154098422Y-107749500D01*
X154098417Y-107749500D01*
X153901583Y-107749500D01*
X153901578Y-107749500D01*
X153707172Y-107780291D01*
X153707169Y-107780291D01*
X153519977Y-107841114D01*
X153502316Y-107850113D01*
X153433646Y-107863007D01*
X153368907Y-107836728D01*
X153358344Y-107827307D01*
X152730563Y-107199526D01*
X152730562Y-107199525D01*
X152644938Y-107150090D01*
X152597186Y-107137295D01*
X152597184Y-107137294D01*
X152597182Y-107137293D01*
X152549436Y-107124500D01*
X152549435Y-107124500D01*
X148549436Y-107124500D01*
X148450564Y-107124500D01*
X148402812Y-107137295D01*
X148402811Y-107137294D01*
X148355063Y-107150089D01*
X148355062Y-107150089D01*
X148269435Y-107199527D01*
X146380782Y-109088181D01*
X146353854Y-109102884D01*
X146328036Y-109119477D01*
X146321835Y-109120368D01*
X146319459Y-109121666D01*
X146293101Y-109124500D01*
X146095808Y-109124500D01*
X146028769Y-109104815D01*
X146008127Y-109088181D01*
X145914672Y-108994726D01*
X145914668Y-108994723D01*
X145808133Y-108923538D01*
X145808124Y-108923533D01*
X145689744Y-108874499D01*
X145689738Y-108874497D01*
X145564071Y-108849500D01*
X145564069Y-108849500D01*
X145435931Y-108849500D01*
X145435929Y-108849500D01*
X145310261Y-108874497D01*
X145310255Y-108874499D01*
X145191875Y-108923533D01*
X145191866Y-108923538D01*
X145085331Y-108994723D01*
X145085327Y-108994726D01*
X144994726Y-109085327D01*
X144994721Y-109085333D01*
X144954429Y-109145634D01*
X144953343Y-109146541D01*
X144952891Y-109147882D01*
X144926621Y-109168872D01*
X144900817Y-109190438D01*
X144899412Y-109190614D01*
X144898307Y-109191498D01*
X144864848Y-109194955D01*
X144831492Y-109199145D01*
X144830215Y-109198534D01*
X144828807Y-109198680D01*
X144798797Y-109183502D01*
X144768464Y-109168990D01*
X144767310Y-109167577D01*
X144766458Y-109167147D01*
X144763714Y-109163177D01*
X144744426Y-109139574D01*
X144736844Y-109126674D01*
X144735966Y-109122260D01*
X144721704Y-109100915D01*
X144719892Y-109097832D01*
X144712227Y-109067276D01*
X144702814Y-109037214D01*
X144703791Y-109033649D01*
X144702892Y-109030062D01*
X144712964Y-109000210D01*
X144721298Y-108969834D01*
X144723692Y-108966109D01*
X144735966Y-108947740D01*
X144750500Y-108874674D01*
X144750500Y-107925326D01*
X144750500Y-107925323D01*
X144750499Y-107925321D01*
X144735967Y-107852264D01*
X144735966Y-107852261D01*
X144735966Y-107852260D01*
X144723691Y-107833889D01*
X144702814Y-107767214D01*
X144721298Y-107699834D01*
X144723692Y-107696109D01*
X144735966Y-107677740D01*
X144750500Y-107604674D01*
X144750500Y-107043677D01*
X153309873Y-107043677D01*
X153309873Y-107043678D01*
X153344858Y-107069096D01*
X153520164Y-107158418D01*
X153707294Y-107219221D01*
X153901618Y-107250000D01*
X154098382Y-107250000D01*
X154292705Y-107219221D01*
X154479835Y-107158418D01*
X154655143Y-107069095D01*
X154690125Y-107043678D01*
X154690126Y-107043678D01*
X154000001Y-106353553D01*
X154000000Y-106353553D01*
X153309873Y-107043677D01*
X144750500Y-107043677D01*
X144750500Y-106655326D01*
X144750500Y-106655323D01*
X144750499Y-106655321D01*
X144735967Y-106582264D01*
X144735966Y-106582261D01*
X144735966Y-106582260D01*
X144723691Y-106563889D01*
X144702814Y-106497214D01*
X144721298Y-106429834D01*
X144723692Y-106426109D01*
X144735966Y-106407740D01*
X144750500Y-106334674D01*
X144750500Y-105901617D01*
X152750000Y-105901617D01*
X152750000Y-106098382D01*
X152780778Y-106292705D01*
X152841581Y-106479835D01*
X152930905Y-106655145D01*
X152956319Y-106690125D01*
X152956320Y-106690125D01*
X153646446Y-106000000D01*
X153646446Y-105999999D01*
X154353553Y-105999999D01*
X154353553Y-106000000D01*
X155043678Y-106690126D01*
X155043678Y-106690125D01*
X155069095Y-106655143D01*
X155158418Y-106479835D01*
X155219221Y-106292705D01*
X155250000Y-106098382D01*
X155250000Y-105901617D01*
X155219221Y-105707294D01*
X155158418Y-105520164D01*
X155069096Y-105344858D01*
X155043678Y-105309873D01*
X155043677Y-105309873D01*
X154353553Y-105999999D01*
X153646446Y-105999999D01*
X152956320Y-105309872D01*
X152956320Y-105309873D01*
X152930902Y-105344859D01*
X152930899Y-105344863D01*
X152841582Y-105520161D01*
X152780778Y-105707294D01*
X152750000Y-105901617D01*
X144750500Y-105901617D01*
X144750500Y-105385326D01*
X144750500Y-105385323D01*
X144750499Y-105385321D01*
X144735967Y-105312264D01*
X144735966Y-105312261D01*
X144735966Y-105312260D01*
X144723691Y-105293889D01*
X144702814Y-105227214D01*
X144721298Y-105159834D01*
X144723692Y-105156109D01*
X144735966Y-105137740D01*
X144750500Y-105064674D01*
X144750500Y-104115326D01*
X144750500Y-104115323D01*
X144750499Y-104115321D01*
X144735967Y-104042264D01*
X144735966Y-104042262D01*
X144735966Y-104042260D01*
X144723691Y-104023889D01*
X144702814Y-103957214D01*
X144721298Y-103889834D01*
X144723692Y-103886109D01*
X144727252Y-103880781D01*
X144735966Y-103867740D01*
X144750500Y-103794674D01*
X144750500Y-102845326D01*
X144750500Y-102845323D01*
X144750499Y-102845321D01*
X144735967Y-102772264D01*
X144735966Y-102772261D01*
X144735966Y-102772260D01*
X144723691Y-102753889D01*
X144702814Y-102687214D01*
X144708476Y-102647895D01*
X144713802Y-102630911D01*
X144735966Y-102597740D01*
X144750500Y-102524674D01*
X144750500Y-102513889D01*
X144755879Y-102496737D01*
X144768472Y-102477907D01*
X144776953Y-102456903D01*
X144787522Y-102449423D01*
X144794721Y-102438660D01*
X144803868Y-102434682D01*
X144804970Y-102433212D01*
X144822386Y-102424751D01*
X144833986Y-102416543D01*
X144842109Y-102414066D01*
X144847179Y-102412707D01*
X144847180Y-102412706D01*
X144847186Y-102412705D01*
X144894938Y-102399910D01*
X144980562Y-102350475D01*
X145050475Y-102280562D01*
X146037819Y-101293218D01*
X146099142Y-101259733D01*
X146168834Y-101264717D01*
X146224767Y-101306589D01*
X146249184Y-101372053D01*
X146249500Y-101380899D01*
X146249500Y-104673918D01*
X146249500Y-104673920D01*
X146249499Y-104673920D01*
X146278340Y-104818907D01*
X146278343Y-104818917D01*
X146334912Y-104955488D01*
X146334919Y-104955501D01*
X146417048Y-105078415D01*
X146417051Y-105078419D01*
X146521580Y-105182948D01*
X146521584Y-105182951D01*
X146644498Y-105265080D01*
X146644511Y-105265087D01*
X146764214Y-105314669D01*
X146781087Y-105321658D01*
X146781091Y-105321658D01*
X146781092Y-105321659D01*
X146926079Y-105350500D01*
X146926082Y-105350500D01*
X147073920Y-105350500D01*
X147171462Y-105331096D01*
X147218913Y-105321658D01*
X147355495Y-105265084D01*
X147478416Y-105182951D01*
X147582951Y-105078416D01*
X147659354Y-104964071D01*
X151249499Y-104964071D01*
X151274497Y-105089738D01*
X151274499Y-105089744D01*
X151323533Y-105208124D01*
X151323538Y-105208133D01*
X151394723Y-105314668D01*
X151394726Y-105314672D01*
X151485327Y-105405273D01*
X151485331Y-105405276D01*
X151591866Y-105476461D01*
X151591872Y-105476464D01*
X151591873Y-105476465D01*
X151710256Y-105525501D01*
X151710260Y-105525501D01*
X151710261Y-105525502D01*
X151835928Y-105550500D01*
X151835931Y-105550500D01*
X151964071Y-105550500D01*
X152048615Y-105533682D01*
X152089744Y-105525501D01*
X152208127Y-105476465D01*
X152314669Y-105405276D01*
X152405276Y-105314669D01*
X152476465Y-105208127D01*
X152525501Y-105089744D01*
X152550500Y-104964069D01*
X152550500Y-104956320D01*
X153309872Y-104956320D01*
X154000000Y-105646446D01*
X154000001Y-105646446D01*
X154690125Y-104956320D01*
X154690125Y-104956319D01*
X154655145Y-104930905D01*
X154479835Y-104841581D01*
X154292705Y-104780778D01*
X154098382Y-104750000D01*
X153901618Y-104750000D01*
X153707294Y-104780778D01*
X153520161Y-104841582D01*
X153344863Y-104930899D01*
X153344859Y-104930902D01*
X153309873Y-104956320D01*
X153309872Y-104956320D01*
X152550500Y-104956320D01*
X152550500Y-104835931D01*
X152550336Y-104835108D01*
X152550562Y-104827978D01*
X152560875Y-104796563D01*
X152570185Y-104764859D01*
X152572039Y-104762557D01*
X152572356Y-104761594D01*
X152573688Y-104760511D01*
X152586819Y-104744217D01*
X152845709Y-104485327D01*
X153200475Y-104130562D01*
X153249911Y-104044937D01*
X153275500Y-103949436D01*
X153275500Y-103850564D01*
X153275500Y-101700207D01*
X153295185Y-101633168D01*
X153330610Y-101597104D01*
X153354840Y-101580915D01*
X153445447Y-101490308D01*
X153516636Y-101383766D01*
X153565672Y-101265383D01*
X153576946Y-101208707D01*
X153590671Y-101139710D01*
X153590671Y-101011567D01*
X153565673Y-100885900D01*
X153565672Y-100885899D01*
X153565672Y-100885895D01*
X153516636Y-100767512D01*
X153516635Y-100767511D01*
X153516632Y-100767505D01*
X153445447Y-100660970D01*
X153445444Y-100660966D01*
X153354843Y-100570365D01*
X153354839Y-100570362D01*
X153248304Y-100499177D01*
X153248295Y-100499172D01*
X153129915Y-100450138D01*
X153129909Y-100450136D01*
X153004242Y-100425139D01*
X153004240Y-100425139D01*
X152876102Y-100425139D01*
X152876100Y-100425139D01*
X152750432Y-100450136D01*
X152750426Y-100450138D01*
X152632046Y-100499172D01*
X152632037Y-100499177D01*
X152525502Y-100570362D01*
X152525498Y-100570365D01*
X152434897Y-100660966D01*
X152434894Y-100660970D01*
X152363709Y-100767505D01*
X152363704Y-100767514D01*
X152314670Y-100885894D01*
X152314668Y-100885900D01*
X152289671Y-101011567D01*
X152289671Y-101011570D01*
X152289671Y-101139708D01*
X152289671Y-101139710D01*
X152289670Y-101139710D01*
X152314668Y-101265377D01*
X152314670Y-101265383D01*
X152363704Y-101383763D01*
X152363709Y-101383772D01*
X152434894Y-101490307D01*
X152434897Y-101490311D01*
X152488180Y-101543593D01*
X152521666Y-101604916D01*
X152524500Y-101631275D01*
X152524500Y-103693100D01*
X152504815Y-103760139D01*
X152488181Y-103780781D01*
X152055781Y-104213181D01*
X151994458Y-104246666D01*
X151968100Y-104249500D01*
X151835929Y-104249500D01*
X151710261Y-104274497D01*
X151710255Y-104274499D01*
X151591875Y-104323533D01*
X151591866Y-104323538D01*
X151485331Y-104394723D01*
X151485327Y-104394726D01*
X151394726Y-104485327D01*
X151394723Y-104485331D01*
X151323538Y-104591866D01*
X151323533Y-104591875D01*
X151274499Y-104710255D01*
X151274497Y-104710261D01*
X151249500Y-104835928D01*
X151249500Y-104835931D01*
X151249500Y-104964069D01*
X151249500Y-104964071D01*
X151249499Y-104964071D01*
X147659354Y-104964071D01*
X147665084Y-104955495D01*
X147675270Y-104930905D01*
X147712268Y-104841582D01*
X147721658Y-104818913D01*
X147729292Y-104780537D01*
X147750500Y-104673920D01*
X147750500Y-100726079D01*
X147721659Y-100581092D01*
X147721658Y-100581091D01*
X147721658Y-100581087D01*
X147668983Y-100453918D01*
X147665087Y-100444511D01*
X147665080Y-100444498D01*
X147582951Y-100321584D01*
X147582948Y-100321580D01*
X147478419Y-100217051D01*
X147478415Y-100217048D01*
X147355501Y-100134919D01*
X147355488Y-100134912D01*
X147218917Y-100078343D01*
X147218907Y-100078340D01*
X147073920Y-100049500D01*
X147073918Y-100049500D01*
X146926082Y-100049500D01*
X146926080Y-100049500D01*
X146781092Y-100078340D01*
X146781082Y-100078343D01*
X146644511Y-100134912D01*
X146644498Y-100134919D01*
X146521584Y-100217048D01*
X146521580Y-100217051D01*
X146412741Y-100325891D01*
X146410872Y-100324022D01*
X146362577Y-100356901D01*
X146292732Y-100358753D01*
X146232973Y-100322551D01*
X146202273Y-100259787D01*
X146200500Y-100238892D01*
X146200500Y-95993340D01*
X168295225Y-95993340D01*
X168296490Y-96004034D01*
X168298642Y-96022235D01*
X168299500Y-96036796D01*
X168299500Y-96065890D01*
X168299501Y-96065899D01*
X168304887Y-96086001D01*
X168308253Y-96103523D01*
X168310700Y-96124209D01*
X168310702Y-96124216D01*
X168321479Y-96151240D01*
X168321480Y-96151240D01*
X168324186Y-96158025D01*
X168333608Y-96193186D01*
X168348491Y-96218963D01*
X168351808Y-96227280D01*
X168359522Y-96246621D01*
X168376928Y-96269935D01*
X168376929Y-96269936D01*
X168379838Y-96273833D01*
X168381299Y-96275789D01*
X168399500Y-96307314D01*
X168420547Y-96328361D01*
X168425900Y-96335531D01*
X168425900Y-96335532D01*
X168438354Y-96352213D01*
X168438358Y-96352217D01*
X168438361Y-96352221D01*
X168466947Y-96374761D01*
X168492686Y-96400500D01*
X168518468Y-96415385D01*
X168525496Y-96420927D01*
X168525497Y-96420928D01*
X168541841Y-96433815D01*
X168541843Y-96433817D01*
X168541844Y-96433817D01*
X168541845Y-96433818D01*
X168555127Y-96439526D01*
X168568573Y-96445304D01*
X168581613Y-96451842D01*
X168606814Y-96466392D01*
X168635573Y-96474098D01*
X168662922Y-96485851D01*
X168698943Y-96491077D01*
X168734108Y-96500500D01*
X168754928Y-96500500D01*
X168772733Y-96501784D01*
X168793340Y-96504775D01*
X168817682Y-96501896D01*
X168822238Y-96501358D01*
X168836798Y-96500500D01*
X192064843Y-96500500D01*
X192095280Y-96504797D01*
X192130457Y-96500500D01*
X192165892Y-96500500D01*
X192187176Y-96494796D01*
X192204215Y-96491490D01*
X192226092Y-96488818D01*
X192251952Y-96478388D01*
X192266245Y-96473610D01*
X192293186Y-96466392D01*
X192312268Y-96455374D01*
X192327870Y-96447769D01*
X192348311Y-96439527D01*
X192376626Y-96418217D01*
X192407314Y-96400500D01*
X192429046Y-96378767D01*
X192453608Y-96360283D01*
X192475443Y-96332370D01*
X192500500Y-96307314D01*
X192515868Y-96280695D01*
X192534807Y-96256486D01*
X192545720Y-96230819D01*
X192552447Y-96217338D01*
X192553609Y-96215326D01*
X192566392Y-96193186D01*
X192572093Y-96171907D01*
X192577756Y-96155478D01*
X192586375Y-96135210D01*
X192591329Y-96100118D01*
X192600500Y-96065892D01*
X192600500Y-96035157D01*
X192606404Y-95993340D01*
X216295225Y-95993340D01*
X216296490Y-96004034D01*
X216298642Y-96022235D01*
X216299500Y-96036796D01*
X216299500Y-96065890D01*
X216299501Y-96065899D01*
X216304887Y-96086001D01*
X216308253Y-96103523D01*
X216310700Y-96124209D01*
X216310702Y-96124216D01*
X216321479Y-96151240D01*
X216321480Y-96151240D01*
X216324186Y-96158025D01*
X216333608Y-96193186D01*
X216348491Y-96218963D01*
X216351808Y-96227280D01*
X216359522Y-96246621D01*
X216376928Y-96269935D01*
X216376929Y-96269936D01*
X216379838Y-96273833D01*
X216381299Y-96275789D01*
X216399500Y-96307314D01*
X216420547Y-96328361D01*
X216425900Y-96335531D01*
X216425900Y-96335532D01*
X216438354Y-96352213D01*
X216438358Y-96352217D01*
X216438361Y-96352221D01*
X216466947Y-96374761D01*
X216492686Y-96400500D01*
X216518468Y-96415385D01*
X216525496Y-96420927D01*
X216525497Y-96420928D01*
X216541841Y-96433815D01*
X216541843Y-96433817D01*
X216541844Y-96433817D01*
X216541845Y-96433818D01*
X216555127Y-96439526D01*
X216568573Y-96445304D01*
X216581613Y-96451842D01*
X216606814Y-96466392D01*
X216635573Y-96474098D01*
X216662922Y-96485851D01*
X216698943Y-96491077D01*
X216734108Y-96500500D01*
X216754928Y-96500500D01*
X216772733Y-96501784D01*
X216793340Y-96504775D01*
X216817682Y-96501896D01*
X216822238Y-96501358D01*
X216836798Y-96500500D01*
X240064843Y-96500500D01*
X240095280Y-96504797D01*
X240130457Y-96500500D01*
X240165892Y-96500500D01*
X240187176Y-96494796D01*
X240204215Y-96491490D01*
X240226092Y-96488818D01*
X240251952Y-96478388D01*
X240266245Y-96473610D01*
X240293186Y-96466392D01*
X240312268Y-96455374D01*
X240327870Y-96447769D01*
X240348311Y-96439527D01*
X240376626Y-96418217D01*
X240407314Y-96400500D01*
X240429046Y-96378767D01*
X240453608Y-96360283D01*
X240475443Y-96332370D01*
X240500500Y-96307314D01*
X240515868Y-96280695D01*
X240534807Y-96256486D01*
X240545720Y-96230819D01*
X240552447Y-96217338D01*
X240553609Y-96215326D01*
X240566392Y-96193186D01*
X240572093Y-96171907D01*
X240577756Y-96155478D01*
X240586375Y-96135210D01*
X240591329Y-96100118D01*
X240600500Y-96065892D01*
X240600500Y-96035157D01*
X244190273Y-70607589D01*
X244193277Y-70592843D01*
X244200500Y-70565892D01*
X244200500Y-70535157D01*
X244204797Y-70504720D01*
X244200500Y-70469542D01*
X244200500Y-70434108D01*
X244200499Y-70434103D01*
X244194799Y-70412829D01*
X244191489Y-70395772D01*
X244188819Y-70373912D01*
X244188818Y-70373910D01*
X244188818Y-70373908D01*
X244175563Y-70341043D01*
X244166392Y-70306814D01*
X244151023Y-70280195D01*
X244139527Y-70251689D01*
X244122752Y-70229398D01*
X244114444Y-70216838D01*
X244100502Y-70192689D01*
X244100498Y-70192684D01*
X244084925Y-70177111D01*
X244073528Y-70163992D01*
X244060283Y-70146392D01*
X244038309Y-70129202D01*
X244032369Y-70124555D01*
X244007314Y-70099500D01*
X243980697Y-70084132D01*
X243973835Y-70078764D01*
X243973834Y-70078763D01*
X243956485Y-70065192D01*
X243930818Y-70054278D01*
X243923873Y-70051324D01*
X243893186Y-70033608D01*
X243863498Y-70025652D01*
X243855487Y-70022246D01*
X243855484Y-70022245D01*
X243835210Y-70013625D01*
X243807590Y-70009725D01*
X243800118Y-70008671D01*
X243765892Y-69999500D01*
X243735157Y-69999500D01*
X243722004Y-69997643D01*
X243704722Y-69995203D01*
X243704718Y-69995202D01*
X243680454Y-69998167D01*
X243677032Y-69998585D01*
X243661998Y-69999500D01*
X220536122Y-69999500D01*
X220506660Y-69995225D01*
X220470508Y-69999500D01*
X220434107Y-69999500D01*
X220413990Y-70004889D01*
X220396474Y-70008253D01*
X220375787Y-70010700D01*
X220348757Y-70021480D01*
X220334923Y-70026075D01*
X220306815Y-70033607D01*
X220306814Y-70033607D01*
X220288779Y-70044020D01*
X220288778Y-70044019D01*
X220281021Y-70048497D01*
X220253380Y-70059522D01*
X220224221Y-70081290D01*
X220217888Y-70084947D01*
X220217885Y-70084950D01*
X220192685Y-70099500D01*
X220177964Y-70114221D01*
X220164470Y-70125899D01*
X220147783Y-70138357D01*
X220147776Y-70138363D01*
X220129760Y-70161211D01*
X220120079Y-70172104D01*
X220099504Y-70192681D01*
X220099496Y-70192691D01*
X220089086Y-70210721D01*
X220084610Y-70218471D01*
X220066182Y-70241845D01*
X220051814Y-70275275D01*
X220048159Y-70281607D01*
X220048158Y-70281611D01*
X220033608Y-70306813D01*
X220033607Y-70306814D01*
X220028213Y-70326941D01*
X220025898Y-70335578D01*
X220014149Y-70362922D01*
X220008923Y-70398930D01*
X220007030Y-70405998D01*
X220007030Y-70406003D01*
X219999500Y-70434103D01*
X219999500Y-70454931D01*
X219998215Y-70472737D01*
X216309969Y-95891720D01*
X216307030Y-95906003D01*
X216299500Y-95934106D01*
X216299500Y-95954927D01*
X216298215Y-95972732D01*
X216295710Y-95990000D01*
X216295225Y-95993340D01*
X192606404Y-95993340D01*
X195241505Y-77328034D01*
X203499500Y-77328034D01*
X203499500Y-77671965D01*
X203533210Y-78014249D01*
X203600308Y-78351572D01*
X203700150Y-78680706D01*
X203831770Y-78998464D01*
X203831772Y-78998469D01*
X203993893Y-79301775D01*
X203993904Y-79301793D01*
X204184975Y-79587751D01*
X204184985Y-79587765D01*
X204403176Y-79853632D01*
X204646367Y-80096823D01*
X204646372Y-80096827D01*
X204646373Y-80096828D01*
X204912240Y-80315019D01*
X205198213Y-80506100D01*
X205198222Y-80506105D01*
X205198224Y-80506106D01*
X205501530Y-80668227D01*
X205501532Y-80668227D01*
X205501538Y-80668231D01*
X205819295Y-80799850D01*
X206148422Y-80899690D01*
X206485750Y-80966789D01*
X206828031Y-81000500D01*
X206828034Y-81000500D01*
X207171966Y-81000500D01*
X207171969Y-81000500D01*
X207514250Y-80966789D01*
X207851578Y-80899690D01*
X208180705Y-80799850D01*
X208498462Y-80668231D01*
X208801787Y-80506100D01*
X209087760Y-80315019D01*
X209353627Y-80096828D01*
X209596828Y-79853627D01*
X209815019Y-79587760D01*
X210006100Y-79301787D01*
X210168231Y-78998462D01*
X210299850Y-78680705D01*
X210399690Y-78351578D01*
X210466789Y-78014250D01*
X210500500Y-77671969D01*
X210500500Y-77328031D01*
X210466789Y-76985750D01*
X210399690Y-76648422D01*
X210299850Y-76319295D01*
X210168231Y-76001538D01*
X210078929Y-75834467D01*
X210006106Y-75698224D01*
X210006105Y-75698222D01*
X210006100Y-75698213D01*
X209815019Y-75412240D01*
X209596828Y-75146373D01*
X209596827Y-75146372D01*
X209596823Y-75146367D01*
X209353632Y-74903176D01*
X209087765Y-74684985D01*
X209087764Y-74684984D01*
X209087760Y-74684981D01*
X208801787Y-74493900D01*
X208801782Y-74493897D01*
X208801775Y-74493893D01*
X208498469Y-74331772D01*
X208498464Y-74331770D01*
X208180706Y-74200150D01*
X207851572Y-74100308D01*
X207514248Y-74033210D01*
X207514249Y-74033210D01*
X207256456Y-74007821D01*
X207171969Y-73999500D01*
X206828031Y-73999500D01*
X206749966Y-74007188D01*
X206485750Y-74033210D01*
X206148427Y-74100308D01*
X205819293Y-74200150D01*
X205501535Y-74331770D01*
X205501530Y-74331772D01*
X205198224Y-74493893D01*
X205198206Y-74493904D01*
X204912248Y-74684975D01*
X204912234Y-74684985D01*
X204646367Y-74903176D01*
X204403176Y-75146367D01*
X204184985Y-75412234D01*
X204184975Y-75412248D01*
X203993904Y-75698206D01*
X203993893Y-75698224D01*
X203831772Y-76001530D01*
X203831770Y-76001535D01*
X203700150Y-76319293D01*
X203600308Y-76648427D01*
X203533210Y-76985750D01*
X203508912Y-77232463D01*
X203501461Y-77308127D01*
X203499500Y-77328034D01*
X195241505Y-77328034D01*
X196191328Y-70600119D01*
X196200500Y-70565892D01*
X196200500Y-70535157D01*
X196204797Y-70504720D01*
X196200500Y-70469542D01*
X196200500Y-70434108D01*
X196192545Y-70404419D01*
X196191489Y-70395772D01*
X196188819Y-70373912D01*
X196188818Y-70373910D01*
X196188818Y-70373908D01*
X196175563Y-70341043D01*
X196166392Y-70306814D01*
X196151023Y-70280195D01*
X196139527Y-70251689D01*
X196122752Y-70229398D01*
X196114444Y-70216838D01*
X196100502Y-70192689D01*
X196100498Y-70192684D01*
X196084925Y-70177111D01*
X196073528Y-70163992D01*
X196060283Y-70146392D01*
X196038309Y-70129202D01*
X196032369Y-70124555D01*
X196007314Y-70099500D01*
X195980697Y-70084132D01*
X195973835Y-70078764D01*
X195973834Y-70078763D01*
X195956485Y-70065192D01*
X195930818Y-70054278D01*
X195923873Y-70051324D01*
X195893186Y-70033608D01*
X195863498Y-70025652D01*
X195855487Y-70022246D01*
X195855484Y-70022245D01*
X195835210Y-70013625D01*
X195807590Y-70009725D01*
X195800118Y-70008671D01*
X195765892Y-69999500D01*
X195735157Y-69999500D01*
X195722004Y-69997643D01*
X195704722Y-69995203D01*
X195704718Y-69995202D01*
X195680454Y-69998167D01*
X195677032Y-69998585D01*
X195661998Y-69999500D01*
X172536122Y-69999500D01*
X172506660Y-69995225D01*
X172470508Y-69999500D01*
X172434107Y-69999500D01*
X172413990Y-70004889D01*
X172396474Y-70008253D01*
X172375787Y-70010700D01*
X172348757Y-70021480D01*
X172334923Y-70026075D01*
X172306815Y-70033607D01*
X172306814Y-70033607D01*
X172288779Y-70044020D01*
X172288778Y-70044019D01*
X172281021Y-70048497D01*
X172253380Y-70059522D01*
X172224221Y-70081290D01*
X172217888Y-70084947D01*
X172217885Y-70084950D01*
X172192685Y-70099500D01*
X172177964Y-70114221D01*
X172164470Y-70125899D01*
X172147783Y-70138357D01*
X172147776Y-70138363D01*
X172129760Y-70161211D01*
X172120079Y-70172104D01*
X172099504Y-70192681D01*
X172099496Y-70192691D01*
X172089086Y-70210721D01*
X172084610Y-70218471D01*
X172066182Y-70241845D01*
X172051814Y-70275275D01*
X172048159Y-70281607D01*
X172048158Y-70281611D01*
X172033608Y-70306813D01*
X172033607Y-70306814D01*
X172028213Y-70326941D01*
X172025898Y-70335578D01*
X172014149Y-70362922D01*
X172008923Y-70398930D01*
X172007030Y-70405998D01*
X172007030Y-70406003D01*
X171999500Y-70434103D01*
X171999500Y-70454931D01*
X171998215Y-70472737D01*
X168309969Y-95891720D01*
X168308919Y-95898951D01*
X168299500Y-95934108D01*
X168299500Y-95963873D01*
X168298215Y-95972730D01*
X168298215Y-95972732D01*
X168295710Y-95990000D01*
X168295225Y-95993340D01*
X146200500Y-95993340D01*
X146200500Y-95273920D01*
X149749499Y-95273920D01*
X149778340Y-95418907D01*
X149778343Y-95418917D01*
X149834912Y-95555488D01*
X149834919Y-95555501D01*
X149917048Y-95678415D01*
X149917051Y-95678419D01*
X150021580Y-95782948D01*
X150021584Y-95782951D01*
X150144498Y-95865080D01*
X150144511Y-95865087D01*
X150281082Y-95921656D01*
X150281087Y-95921658D01*
X150281091Y-95921658D01*
X150281092Y-95921659D01*
X150426079Y-95950500D01*
X150426082Y-95950500D01*
X161273920Y-95950500D01*
X161371462Y-95931096D01*
X161418913Y-95921658D01*
X161555495Y-95865084D01*
X161678416Y-95782951D01*
X161782951Y-95678416D01*
X161865084Y-95555495D01*
X161921658Y-95418913D01*
X161950500Y-95273918D01*
X161950500Y-95126082D01*
X161950500Y-95126079D01*
X161921659Y-94981092D01*
X161921658Y-94981091D01*
X161921658Y-94981087D01*
X161902357Y-94934490D01*
X161865087Y-94844511D01*
X161865080Y-94844498D01*
X161782951Y-94721584D01*
X161782948Y-94721580D01*
X161678419Y-94617051D01*
X161678415Y-94617048D01*
X161555501Y-94534919D01*
X161555488Y-94534912D01*
X161418917Y-94478343D01*
X161418907Y-94478340D01*
X161273920Y-94449500D01*
X161273918Y-94449500D01*
X150426082Y-94449500D01*
X150426080Y-94449500D01*
X150281092Y-94478340D01*
X150281082Y-94478343D01*
X150144511Y-94534912D01*
X150144498Y-94534919D01*
X150021584Y-94617048D01*
X150021580Y-94617051D01*
X149917051Y-94721580D01*
X149917048Y-94721584D01*
X149834919Y-94844498D01*
X149834912Y-94844511D01*
X149778343Y-94981082D01*
X149778340Y-94981092D01*
X149749500Y-95126079D01*
X149749500Y-95126082D01*
X149749500Y-95273918D01*
X149749500Y-95273920D01*
X149749499Y-95273920D01*
X146200500Y-95273920D01*
X146200500Y-85595807D01*
X146220185Y-85528768D01*
X146236819Y-85508125D01*
X146239665Y-85505278D01*
X146239669Y-85505276D01*
X146330276Y-85414669D01*
X146401465Y-85308127D01*
X146450501Y-85189744D01*
X146475500Y-85064069D01*
X146475500Y-84935931D01*
X146475500Y-84935928D01*
X146450502Y-84810261D01*
X146450501Y-84810260D01*
X146450501Y-84810256D01*
X146401465Y-84691873D01*
X146401464Y-84691872D01*
X146401461Y-84691866D01*
X146330276Y-84585331D01*
X146330273Y-84585327D01*
X146239672Y-84494726D01*
X146239668Y-84494723D01*
X146133133Y-84423538D01*
X146133124Y-84423533D01*
X146014744Y-84374499D01*
X146014738Y-84374497D01*
X145889071Y-84349500D01*
X145889069Y-84349500D01*
X145760931Y-84349500D01*
X145760929Y-84349500D01*
X145635261Y-84374497D01*
X145635255Y-84374499D01*
X145516875Y-84423533D01*
X145516866Y-84423538D01*
X145410331Y-84494723D01*
X145410327Y-84494726D01*
X145319726Y-84585327D01*
X145319723Y-84585331D01*
X145248538Y-84691866D01*
X145248533Y-84691875D01*
X145199499Y-84810255D01*
X145199497Y-84810261D01*
X145174500Y-84935928D01*
X145174500Y-84935931D01*
X145174500Y-85064069D01*
X145174500Y-85064071D01*
X145174499Y-85064071D01*
X145199497Y-85189738D01*
X145199499Y-85189744D01*
X145248533Y-85308124D01*
X145248538Y-85308133D01*
X145319722Y-85414667D01*
X145319723Y-85414668D01*
X145319724Y-85414669D01*
X145410331Y-85505276D01*
X145410333Y-85505277D01*
X145413181Y-85508125D01*
X145446666Y-85569448D01*
X145449500Y-85595807D01*
X145449500Y-88730192D01*
X145429815Y-88797231D01*
X145377011Y-88842986D01*
X145307853Y-88852930D01*
X145244297Y-88823905D01*
X145237819Y-88817873D01*
X145164672Y-88744726D01*
X145164668Y-88744723D01*
X145058133Y-88673538D01*
X145058124Y-88673533D01*
X144939744Y-88624499D01*
X144939738Y-88624497D01*
X144814071Y-88599500D01*
X144814069Y-88599500D01*
X144685931Y-88599500D01*
X144685929Y-88599500D01*
X144560261Y-88624497D01*
X144560255Y-88624499D01*
X144441875Y-88673533D01*
X144441866Y-88673538D01*
X144335331Y-88744723D01*
X144335327Y-88744726D01*
X144244726Y-88835327D01*
X144244723Y-88835331D01*
X144173538Y-88941866D01*
X144173533Y-88941875D01*
X144124499Y-89060255D01*
X144124497Y-89060261D01*
X144099500Y-89185928D01*
X144099500Y-89185931D01*
X144099500Y-89314069D01*
X144099500Y-89314071D01*
X144099499Y-89314071D01*
X144124497Y-89439738D01*
X144124499Y-89439744D01*
X144173533Y-89558124D01*
X144173538Y-89558133D01*
X144244723Y-89664668D01*
X144244726Y-89664672D01*
X144335315Y-89755261D01*
X144335318Y-89755263D01*
X144335331Y-89755276D01*
X144335378Y-89755307D01*
X144335387Y-89755314D01*
X144441866Y-89826461D01*
X144441879Y-89826468D01*
X144495677Y-89848751D01*
X144547953Y-89870405D01*
X144563517Y-89882946D01*
X144581703Y-89891252D01*
X144590166Y-89904421D01*
X144602356Y-89914244D01*
X144608669Y-89933213D01*
X144619477Y-89950030D01*
X144623439Y-89977589D01*
X144624421Y-89980538D01*
X144624500Y-89984965D01*
X144624500Y-90182091D01*
X144604815Y-90249130D01*
X144582829Y-90268180D01*
X144584100Y-90269451D01*
X143853553Y-90999999D01*
X143853553Y-91000001D01*
X144584100Y-91730548D01*
X144582738Y-91731909D01*
X144608893Y-91757683D01*
X144624500Y-91817907D01*
X144624500Y-93056664D01*
X144604815Y-93123703D01*
X144552011Y-93169458D01*
X144482853Y-93179402D01*
X144419297Y-93150377D01*
X144412819Y-93144345D01*
X144314648Y-93046174D01*
X144314646Y-93046172D01*
X144155405Y-92930476D01*
X143980029Y-92841117D01*
X143792826Y-92780290D01*
X143598422Y-92749500D01*
X143598417Y-92749500D01*
X143401583Y-92749500D01*
X143401578Y-92749500D01*
X143207173Y-92780290D01*
X143019970Y-92841117D01*
X142844594Y-92930476D01*
X142753741Y-92996485D01*
X142685354Y-93046172D01*
X142685352Y-93046174D01*
X142685351Y-93046174D01*
X142546174Y-93185351D01*
X142546174Y-93185352D01*
X142546172Y-93185354D01*
X142496485Y-93253741D01*
X142430476Y-93344594D01*
X142341117Y-93519970D01*
X142280290Y-93707173D01*
X142249500Y-93901577D01*
X142249500Y-94098422D01*
X142280290Y-94292826D01*
X142341117Y-94480029D01*
X142414865Y-94624767D01*
X142430476Y-94655405D01*
X142546172Y-94814646D01*
X142685354Y-94953828D01*
X142844595Y-95069524D01*
X143019975Y-95158884D01*
X143038814Y-95165005D01*
X143059217Y-95178955D01*
X143081703Y-95189224D01*
X143087555Y-95198330D01*
X143096491Y-95204440D01*
X143106113Y-95227207D01*
X143119477Y-95248002D01*
X143121836Y-95264408D01*
X143123691Y-95268798D01*
X143124500Y-95282937D01*
X143124500Y-95404192D01*
X143104815Y-95471231D01*
X143088181Y-95491874D01*
X143000148Y-95579906D01*
X142938824Y-95613390D01*
X142869133Y-95608406D01*
X142813199Y-95566534D01*
X142809365Y-95561115D01*
X142782952Y-95521585D01*
X142732598Y-95471231D01*
X142678416Y-95417049D01*
X142530165Y-95268798D01*
X142078421Y-94817052D01*
X142078414Y-94817046D01*
X142004729Y-94767812D01*
X142004729Y-94767813D01*
X141955491Y-94734913D01*
X141818917Y-94678343D01*
X141818907Y-94678340D01*
X141673920Y-94649500D01*
X141673918Y-94649500D01*
X141069808Y-94649500D01*
X141002769Y-94629815D01*
X140957014Y-94577011D01*
X140947070Y-94507853D01*
X140976095Y-94444297D01*
X140982127Y-94437819D01*
X141005273Y-94414672D01*
X141005276Y-94414669D01*
X141076465Y-94308127D01*
X141125501Y-94189744D01*
X141145515Y-94089132D01*
X141150500Y-94064071D01*
X141150500Y-93935928D01*
X141125502Y-93810261D01*
X141125501Y-93810260D01*
X141125501Y-93810256D01*
X141082803Y-93707174D01*
X141076466Y-93691875D01*
X141076458Y-93691861D01*
X141021398Y-93609457D01*
X141000520Y-93542780D01*
X141000500Y-93540567D01*
X141000500Y-92043677D01*
X142809873Y-92043677D01*
X142809873Y-92043678D01*
X142844858Y-92069096D01*
X143020164Y-92158418D01*
X143207294Y-92219221D01*
X143401618Y-92250000D01*
X143598382Y-92250000D01*
X143792705Y-92219221D01*
X143979835Y-92158418D01*
X144155143Y-92069095D01*
X144190125Y-92043678D01*
X144190126Y-92043678D01*
X143500001Y-91353553D01*
X143500000Y-91353553D01*
X142809873Y-92043677D01*
X141000500Y-92043677D01*
X141000500Y-90901617D01*
X142250000Y-90901617D01*
X142250000Y-91098382D01*
X142280778Y-91292705D01*
X142341581Y-91479835D01*
X142430905Y-91655145D01*
X142456319Y-91690125D01*
X142456320Y-91690125D01*
X143146446Y-91000000D01*
X143146446Y-90999999D01*
X142456320Y-90309872D01*
X142456320Y-90309873D01*
X142430902Y-90344859D01*
X142430899Y-90344863D01*
X142341582Y-90520161D01*
X142280778Y-90707294D01*
X142250000Y-90901617D01*
X141000500Y-90901617D01*
X141000500Y-89956320D01*
X142809872Y-89956320D01*
X143500000Y-90646446D01*
X143500001Y-90646446D01*
X144190125Y-89956320D01*
X144190125Y-89956319D01*
X144186577Y-89953742D01*
X144186569Y-89953736D01*
X144155144Y-89930905D01*
X143979835Y-89841581D01*
X143792705Y-89780778D01*
X143598382Y-89750000D01*
X143401618Y-89750000D01*
X143207294Y-89780778D01*
X143020161Y-89841582D01*
X142844863Y-89930899D01*
X142844859Y-89930902D01*
X142809873Y-89956320D01*
X142809872Y-89956320D01*
X141000500Y-89956320D01*
X141000500Y-87155677D01*
X141000500Y-87155675D01*
X140966392Y-87028381D01*
X140900500Y-86914253D01*
X140807314Y-86821067D01*
X140676528Y-86690281D01*
X140643043Y-86628958D01*
X140642592Y-86626791D01*
X140623255Y-86529583D01*
X140623255Y-86529581D01*
X140623254Y-86529576D01*
X140574218Y-86411193D01*
X140574217Y-86411192D01*
X140574214Y-86411186D01*
X140503029Y-86304651D01*
X140503026Y-86304647D01*
X140412425Y-86214046D01*
X140412421Y-86214043D01*
X140305886Y-86142858D01*
X140305877Y-86142853D01*
X140187497Y-86093819D01*
X140187491Y-86093817D01*
X140061824Y-86068820D01*
X140061822Y-86068820D01*
X139933684Y-86068820D01*
X139933682Y-86068820D01*
X139808014Y-86093817D01*
X139808008Y-86093819D01*
X139689628Y-86142853D01*
X139689619Y-86142858D01*
X139583084Y-86214043D01*
X139583080Y-86214046D01*
X139492479Y-86304647D01*
X139492476Y-86304651D01*
X139421291Y-86411186D01*
X139421286Y-86411195D01*
X139372252Y-86529575D01*
X139372250Y-86529581D01*
X139347253Y-86655248D01*
X139347253Y-86655251D01*
X139347253Y-86783389D01*
X139347253Y-86783391D01*
X139347252Y-86783391D01*
X139372250Y-86909058D01*
X139372252Y-86909064D01*
X139421286Y-87027444D01*
X139421291Y-87027453D01*
X139492476Y-87133988D01*
X139492479Y-87133992D01*
X139583080Y-87224593D01*
X139583084Y-87224596D01*
X139689619Y-87295781D01*
X139689625Y-87295784D01*
X139689626Y-87295785D01*
X139808009Y-87344821D01*
X139899691Y-87363058D01*
X139961602Y-87395443D01*
X139996176Y-87456158D01*
X139999500Y-87484675D01*
X139999500Y-93540567D01*
X139979815Y-93607606D01*
X139978602Y-93609457D01*
X139923541Y-93691861D01*
X139923533Y-93691875D01*
X139874499Y-93810255D01*
X139874497Y-93810261D01*
X139849500Y-93935928D01*
X139849500Y-93935931D01*
X139849500Y-94064069D01*
X139849500Y-94064071D01*
X139849499Y-94064071D01*
X139874497Y-94189738D01*
X139874499Y-94189744D01*
X139923533Y-94308124D01*
X139923538Y-94308133D01*
X139994723Y-94414668D01*
X139994726Y-94414672D01*
X140017873Y-94437819D01*
X140051358Y-94499142D01*
X140046374Y-94568834D01*
X140004502Y-94624767D01*
X139939038Y-94649184D01*
X139930192Y-94649500D01*
X139562229Y-94649500D01*
X139495190Y-94629815D01*
X139474548Y-94613181D01*
X138986819Y-94125451D01*
X138953334Y-94064128D01*
X138950500Y-94037770D01*
X138950500Y-90726079D01*
X138921659Y-90581092D01*
X138921658Y-90581091D01*
X138921658Y-90581087D01*
X138896422Y-90520161D01*
X138865087Y-90444511D01*
X138865080Y-90444498D01*
X138782952Y-90321585D01*
X138730818Y-90269451D01*
X138678416Y-90217049D01*
X137682772Y-89221405D01*
X137649287Y-89160082D01*
X137647980Y-89114325D01*
X137650500Y-89098415D01*
X137650500Y-88901577D01*
X137619709Y-88707173D01*
X137558882Y-88519970D01*
X137511743Y-88427455D01*
X137469524Y-88344595D01*
X137353828Y-88185354D01*
X137214646Y-88046172D01*
X137055405Y-87930476D01*
X137026794Y-87915898D01*
X136880029Y-87841117D01*
X136692826Y-87780290D01*
X136498422Y-87749500D01*
X136498417Y-87749500D01*
X136301583Y-87749500D01*
X136301578Y-87749500D01*
X136107173Y-87780290D01*
X135919970Y-87841117D01*
X135744594Y-87930476D01*
X135653741Y-87996485D01*
X135585354Y-88046172D01*
X135585352Y-88046174D01*
X135585351Y-88046174D01*
X135446174Y-88185351D01*
X135446174Y-88185352D01*
X135446172Y-88185354D01*
X135396485Y-88253741D01*
X135330476Y-88344594D01*
X135241117Y-88519970D01*
X135180290Y-88707173D01*
X135149500Y-88901577D01*
X135149500Y-89098422D01*
X135180290Y-89292826D01*
X135241117Y-89480029D01*
X135298915Y-89593463D01*
X135330476Y-89655405D01*
X135446172Y-89814646D01*
X135585354Y-89953828D01*
X135744595Y-90069524D01*
X135827455Y-90111743D01*
X135919970Y-90158882D01*
X135919972Y-90158882D01*
X135919975Y-90158884D01*
X136020317Y-90191487D01*
X136107173Y-90219709D01*
X136301578Y-90250500D01*
X136301583Y-90250500D01*
X136498416Y-90250500D01*
X136498417Y-90250500D01*
X136514326Y-90247980D01*
X136583618Y-90256934D01*
X136621405Y-90282772D01*
X137413181Y-91074548D01*
X137446666Y-91135871D01*
X137449500Y-91162229D01*
X137449500Y-94473918D01*
X137449500Y-94473920D01*
X137449499Y-94473920D01*
X137478340Y-94618907D01*
X137478343Y-94618917D01*
X137534912Y-94755488D01*
X137534916Y-94755495D01*
X137551422Y-94780198D01*
X137551423Y-94780201D01*
X137617046Y-94878414D01*
X137617052Y-94878421D01*
X138516451Y-95777819D01*
X138549936Y-95839142D01*
X138544952Y-95908833D01*
X138503080Y-95964767D01*
X138437616Y-95989184D01*
X138428770Y-95989500D01*
X137705323Y-95989500D01*
X137632264Y-96004032D01*
X137632261Y-96004033D01*
X137613889Y-96016309D01*
X137547211Y-96037185D01*
X137479831Y-96018699D01*
X137476111Y-96016309D01*
X137457740Y-96004034D01*
X137457739Y-96004033D01*
X137457738Y-96004033D01*
X137457735Y-96004032D01*
X137384677Y-95989500D01*
X137384674Y-95989500D01*
X136435326Y-95989500D01*
X136435323Y-95989500D01*
X136362264Y-96004032D01*
X136362261Y-96004033D01*
X136343889Y-96016309D01*
X136277211Y-96037185D01*
X136209831Y-96018699D01*
X136206111Y-96016309D01*
X136187740Y-96004034D01*
X136187739Y-96004033D01*
X136187738Y-96004033D01*
X136187735Y-96004032D01*
X136114677Y-95989500D01*
X136114674Y-95989500D01*
X135165326Y-95989500D01*
X135165323Y-95989500D01*
X135092264Y-96004032D01*
X135092261Y-96004033D01*
X135073889Y-96016309D01*
X135007211Y-96037185D01*
X134939831Y-96018699D01*
X134936111Y-96016309D01*
X134917740Y-96004034D01*
X134917739Y-96004033D01*
X134917738Y-96004033D01*
X134917735Y-96004032D01*
X134844677Y-95989500D01*
X134844674Y-95989500D01*
X133895326Y-95989500D01*
X133895323Y-95989500D01*
X133822264Y-96004032D01*
X133822261Y-96004033D01*
X133803889Y-96016309D01*
X133737211Y-96037185D01*
X133669831Y-96018699D01*
X133666111Y-96016309D01*
X133647740Y-96004034D01*
X133647739Y-96004033D01*
X133647738Y-96004033D01*
X133647735Y-96004032D01*
X133574677Y-95989500D01*
X133574674Y-95989500D01*
X132625326Y-95989500D01*
X132625323Y-95989500D01*
X132552264Y-96004032D01*
X132552261Y-96004033D01*
X132533889Y-96016309D01*
X132467211Y-96037185D01*
X132399831Y-96018699D01*
X132396111Y-96016309D01*
X132377740Y-96004034D01*
X132377739Y-96004033D01*
X132377738Y-96004033D01*
X132377735Y-96004032D01*
X132304677Y-95989500D01*
X132304674Y-95989500D01*
X131355326Y-95989500D01*
X131355323Y-95989500D01*
X131282264Y-96004032D01*
X131282261Y-96004033D01*
X131263889Y-96016309D01*
X131197211Y-96037185D01*
X131129831Y-96018699D01*
X131126111Y-96016309D01*
X131107740Y-96004034D01*
X131107739Y-96004033D01*
X131107738Y-96004033D01*
X131107735Y-96004032D01*
X131034677Y-95989500D01*
X131034674Y-95989500D01*
X130085326Y-95989500D01*
X130085323Y-95989500D01*
X130012264Y-96004032D01*
X130012258Y-96004034D01*
X129993437Y-96016610D01*
X129926759Y-96037486D01*
X129859379Y-96019000D01*
X129855658Y-96016608D01*
X129837544Y-96004505D01*
X129837540Y-96004503D01*
X129764627Y-95990000D01*
X129540000Y-95990000D01*
X129540000Y-97990000D01*
X129764626Y-97990000D01*
X129764628Y-97989999D01*
X129837540Y-97975496D01*
X129837541Y-97975496D01*
X129855656Y-97963392D01*
X129922333Y-97942513D01*
X129963902Y-97948903D01*
X129979638Y-97954169D01*
X130012260Y-97975966D01*
X130085326Y-97990500D01*
X130088197Y-97990500D01*
X130099853Y-97994401D01*
X130122333Y-98010064D01*
X130146602Y-98022759D01*
X130150580Y-98029745D01*
X130157180Y-98034344D01*
X130167622Y-98059672D01*
X130181176Y-98083474D01*
X130182650Y-98096124D01*
X130183811Y-98098939D01*
X130183303Y-98101725D01*
X130184500Y-98111991D01*
X130184500Y-98239435D01*
X130210090Y-98334938D01*
X130210091Y-98334939D01*
X130210091Y-98334940D01*
X130259526Y-98420563D01*
X130573181Y-98734218D01*
X130606666Y-98795541D01*
X130609500Y-98821899D01*
X130609500Y-102008100D01*
X130589815Y-102075139D01*
X130573181Y-102095781D01*
X129755781Y-102913181D01*
X129694458Y-102946666D01*
X129668100Y-102949500D01*
X129535929Y-102949500D01*
X129410261Y-102974497D01*
X129410255Y-102974499D01*
X129291875Y-103023533D01*
X129291866Y-103023538D01*
X129185331Y-103094723D01*
X129185327Y-103094726D01*
X129094726Y-103185327D01*
X129094723Y-103185331D01*
X129023538Y-103291866D01*
X129023533Y-103291875D01*
X128974499Y-103410255D01*
X128974497Y-103410261D01*
X128949500Y-103535928D01*
X128949500Y-103535931D01*
X128949500Y-103664069D01*
X128949500Y-103664071D01*
X128949499Y-103664071D01*
X127250500Y-103664071D01*
X127250500Y-102845326D01*
X127250500Y-102845323D01*
X127250499Y-102845321D01*
X127235967Y-102772264D01*
X127235966Y-102772261D01*
X127235966Y-102772260D01*
X127223691Y-102753889D01*
X127202814Y-102687214D01*
X127221298Y-102619834D01*
X127223692Y-102616109D01*
X127235966Y-102597740D01*
X127250500Y-102524674D01*
X127250500Y-101575326D01*
X127250500Y-101575323D01*
X127250499Y-101575321D01*
X127235967Y-101502264D01*
X127235966Y-101502261D01*
X127235966Y-101502260D01*
X127223691Y-101483889D01*
X127202814Y-101417214D01*
X127221298Y-101349834D01*
X127223692Y-101346109D01*
X127235966Y-101327740D01*
X127250500Y-101254674D01*
X127250500Y-100305326D01*
X127250500Y-100305323D01*
X127250499Y-100305321D01*
X127235967Y-100232264D01*
X127235966Y-100232261D01*
X127235966Y-100232260D01*
X127223691Y-100213889D01*
X127217718Y-100194813D01*
X127207213Y-100177807D01*
X127207492Y-100162154D01*
X127202814Y-100147214D01*
X127208102Y-100127935D01*
X127208459Y-100107948D01*
X127220476Y-100082829D01*
X127221298Y-100079834D01*
X127223671Y-100076140D01*
X127234082Y-100060558D01*
X127287693Y-100015755D01*
X127357018Y-100007047D01*
X127384635Y-100014888D01*
X127410256Y-100025501D01*
X127410260Y-100025501D01*
X127410261Y-100025502D01*
X127535928Y-100050500D01*
X127535931Y-100050500D01*
X127664071Y-100050500D01*
X127748615Y-100033682D01*
X127789744Y-100025501D01*
X127908127Y-99976465D01*
X128014669Y-99905276D01*
X128105276Y-99814669D01*
X128176465Y-99708127D01*
X128225501Y-99589744D01*
X128238436Y-99524717D01*
X128250500Y-99464071D01*
X128250500Y-99335928D01*
X128225502Y-99210261D01*
X128225501Y-99210260D01*
X128225501Y-99210256D01*
X128176465Y-99091873D01*
X128176464Y-99091872D01*
X128176461Y-99091866D01*
X128105276Y-98985331D01*
X128105273Y-98985327D01*
X128014672Y-98894726D01*
X128014668Y-98894723D01*
X127908133Y-98823538D01*
X127908124Y-98823533D01*
X127789744Y-98774499D01*
X127789738Y-98774497D01*
X127664071Y-98749500D01*
X127664069Y-98749500D01*
X127535931Y-98749500D01*
X127535929Y-98749500D01*
X127404282Y-98775687D01*
X127404043Y-98774486D01*
X127340615Y-98775045D01*
X127281506Y-98737790D01*
X127251922Y-98674493D01*
X127250500Y-98655765D01*
X127250500Y-97765323D01*
X127250499Y-97765321D01*
X127250361Y-97764628D01*
X128590000Y-97764628D01*
X128604503Y-97837540D01*
X128604505Y-97837544D01*
X128659760Y-97920239D01*
X128742455Y-97975494D01*
X128742459Y-97975496D01*
X128815371Y-97989999D01*
X128815374Y-97990000D01*
X129040000Y-97990000D01*
X129040000Y-97240000D01*
X128590000Y-97240000D01*
X128590000Y-97764628D01*
X127250361Y-97764628D01*
X127235967Y-97692264D01*
X127235966Y-97692260D01*
X127180601Y-97609399D01*
X127097740Y-97554034D01*
X127097739Y-97554033D01*
X127097735Y-97554032D01*
X127024677Y-97539500D01*
X127024674Y-97539500D01*
X125475326Y-97539500D01*
X125475323Y-97539500D01*
X125402264Y-97554032D01*
X125402260Y-97554033D01*
X125319399Y-97609399D01*
X125264033Y-97692260D01*
X125264032Y-97692264D01*
X125249500Y-97765321D01*
X125249500Y-98714678D01*
X125264032Y-98787735D01*
X125264033Y-98787738D01*
X125264033Y-98787739D01*
X125264034Y-98787740D01*
X125276309Y-98806111D01*
X125297185Y-98872789D01*
X125278699Y-98940169D01*
X125276309Y-98943889D01*
X125264033Y-98962261D01*
X125264032Y-98962264D01*
X125249500Y-99035321D01*
X125249500Y-99949101D01*
X125229815Y-100016140D01*
X125177011Y-100061895D01*
X125107853Y-100071839D01*
X125044297Y-100042814D01*
X125037819Y-100036782D01*
X124411819Y-99410782D01*
X124378334Y-99349459D01*
X124375500Y-99323101D01*
X124375500Y-96215371D01*
X128590000Y-96215371D01*
X128590000Y-96740000D01*
X129040000Y-96740000D01*
X129040000Y-95990000D01*
X128815373Y-95990000D01*
X128742459Y-96004503D01*
X128742455Y-96004505D01*
X128659760Y-96059760D01*
X128604505Y-96142455D01*
X128604503Y-96142459D01*
X128590000Y-96215371D01*
X124375500Y-96215371D01*
X124375500Y-91610883D01*
X124395185Y-91543844D01*
X124411819Y-91523202D01*
X125891344Y-90043677D01*
X132709873Y-90043677D01*
X132709873Y-90043678D01*
X132744858Y-90069096D01*
X132920164Y-90158418D01*
X133107294Y-90219221D01*
X133301618Y-90250000D01*
X133498382Y-90250000D01*
X133692705Y-90219221D01*
X133879835Y-90158418D01*
X134055143Y-90069095D01*
X134090125Y-90043678D01*
X134090126Y-90043678D01*
X133400001Y-89353553D01*
X133400000Y-89353553D01*
X132709873Y-90043677D01*
X125891344Y-90043677D01*
X127033404Y-88901617D01*
X132150000Y-88901617D01*
X132150000Y-89098382D01*
X132180778Y-89292705D01*
X132241581Y-89479835D01*
X132330905Y-89655145D01*
X132356319Y-89690125D01*
X132356320Y-89690125D01*
X133046446Y-89000000D01*
X133046446Y-88999999D01*
X133753553Y-88999999D01*
X133753553Y-89000001D01*
X134443678Y-89690126D01*
X134443678Y-89690125D01*
X134469095Y-89655143D01*
X134558418Y-89479835D01*
X134619221Y-89292705D01*
X134650000Y-89098382D01*
X134650000Y-88901617D01*
X134619221Y-88707294D01*
X134558418Y-88520164D01*
X134469096Y-88344858D01*
X134443678Y-88309873D01*
X134443677Y-88309873D01*
X133753553Y-88999999D01*
X133046446Y-88999999D01*
X132356320Y-88309872D01*
X132356320Y-88309873D01*
X132330902Y-88344859D01*
X132330899Y-88344863D01*
X132241582Y-88520161D01*
X132180778Y-88707294D01*
X132150000Y-88901617D01*
X127033404Y-88901617D01*
X127978701Y-87956320D01*
X132709872Y-87956320D01*
X133400000Y-88646446D01*
X133400001Y-88646446D01*
X134090125Y-87956320D01*
X134090125Y-87956319D01*
X134055145Y-87930905D01*
X133879835Y-87841581D01*
X133692705Y-87780778D01*
X133498382Y-87750000D01*
X133301618Y-87750000D01*
X133107294Y-87780778D01*
X132920161Y-87841582D01*
X132744863Y-87930899D01*
X132744859Y-87930902D01*
X132709873Y-87956320D01*
X132709872Y-87956320D01*
X127978701Y-87956320D01*
X128019123Y-87915898D01*
X129658464Y-86276557D01*
X131300474Y-84634547D01*
X131335808Y-84573346D01*
X131374303Y-84532246D01*
X131414669Y-84505276D01*
X131505276Y-84414669D01*
X131576465Y-84308127D01*
X131625501Y-84189744D01*
X131628383Y-84175257D01*
X131660768Y-84113347D01*
X131721484Y-84078772D01*
X131791253Y-84082512D01*
X131847925Y-84123379D01*
X131871617Y-84175257D01*
X131874497Y-84189738D01*
X131874499Y-84189744D01*
X131923533Y-84308124D01*
X131923538Y-84308133D01*
X131994723Y-84414668D01*
X131994726Y-84414672D01*
X132085327Y-84505273D01*
X132085331Y-84505276D01*
X132191866Y-84576461D01*
X132191872Y-84576464D01*
X132191873Y-84576465D01*
X132310256Y-84625501D01*
X132310260Y-84625501D01*
X132310261Y-84625502D01*
X132435928Y-84650500D01*
X132435931Y-84650500D01*
X132564071Y-84650500D01*
X132648615Y-84633682D01*
X132689744Y-84625501D01*
X132808127Y-84576465D01*
X132914669Y-84505276D01*
X133005276Y-84414669D01*
X133076465Y-84308127D01*
X133125501Y-84189744D01*
X133146390Y-84084733D01*
X133150500Y-84064071D01*
X133150500Y-83935928D01*
X133125502Y-83810261D01*
X133125501Y-83810260D01*
X133125501Y-83810256D01*
X133076465Y-83691873D01*
X133076464Y-83691872D01*
X133076461Y-83691866D01*
X133005276Y-83585331D01*
X133005273Y-83585327D01*
X132914672Y-83494726D01*
X132910424Y-83491240D01*
X132871089Y-83433495D01*
X132869325Y-83427519D01*
X132849910Y-83355062D01*
X132800475Y-83269438D01*
X132730562Y-83199525D01*
X130730563Y-81199526D01*
X130730562Y-81199525D01*
X130644938Y-81150090D01*
X130597186Y-81137295D01*
X130597184Y-81137294D01*
X130597182Y-81137293D01*
X130549436Y-81124500D01*
X130549435Y-81124500D01*
X128549436Y-81124500D01*
X128450564Y-81124500D01*
X128402812Y-81137295D01*
X128402811Y-81137294D01*
X128355063Y-81150089D01*
X128355062Y-81150089D01*
X128269435Y-81199527D01*
X124880782Y-84588181D01*
X124819459Y-84621666D01*
X124793101Y-84624500D01*
X124095808Y-84624500D01*
X124028769Y-84604815D01*
X124008127Y-84588181D01*
X123914672Y-84494726D01*
X123914668Y-84494723D01*
X123808133Y-84423538D01*
X123808124Y-84423533D01*
X123689744Y-84374499D01*
X123689738Y-84374497D01*
X123564071Y-84349500D01*
X123564069Y-84349500D01*
X123435931Y-84349500D01*
X123435929Y-84349500D01*
X123310261Y-84374497D01*
X123310255Y-84374499D01*
X123191875Y-84423533D01*
X123191866Y-84423538D01*
X123085331Y-84494723D01*
X123080621Y-84498589D01*
X123079411Y-84497115D01*
X123025858Y-84526358D01*
X122956166Y-84521374D01*
X122900233Y-84479502D01*
X122875816Y-84414038D01*
X122875500Y-84405192D01*
X122875500Y-80595807D01*
X122895185Y-80528768D01*
X122911819Y-80508125D01*
X122914665Y-80505278D01*
X122914669Y-80505276D01*
X123005276Y-80414669D01*
X123076465Y-80308127D01*
X123125501Y-80189744D01*
X123143985Y-80096823D01*
X123150500Y-80064071D01*
X123150500Y-80037017D01*
X129838751Y-80037017D01*
X129863749Y-80162684D01*
X129863751Y-80162690D01*
X129912785Y-80281070D01*
X129912790Y-80281079D01*
X129983975Y-80387614D01*
X129983978Y-80387618D01*
X130074579Y-80478219D01*
X130074583Y-80478222D01*
X130181118Y-80549407D01*
X130181124Y-80549410D01*
X130181125Y-80549411D01*
X130299508Y-80598447D01*
X130299512Y-80598447D01*
X130299513Y-80598448D01*
X130425180Y-80623446D01*
X130425183Y-80623446D01*
X130553323Y-80623446D01*
X130640548Y-80606095D01*
X130678996Y-80598447D01*
X130797379Y-80549411D01*
X130903921Y-80478222D01*
X130903924Y-80478219D01*
X130970325Y-80411819D01*
X131031648Y-80378334D01*
X131058006Y-80375500D01*
X131904192Y-80375500D01*
X131971231Y-80395185D01*
X131991873Y-80411819D01*
X132085327Y-80505273D01*
X132085331Y-80505276D01*
X132191866Y-80576461D01*
X132191872Y-80576464D01*
X132191873Y-80576465D01*
X132310256Y-80625501D01*
X132310260Y-80625501D01*
X132310261Y-80625502D01*
X132435928Y-80650500D01*
X132435931Y-80650500D01*
X132564071Y-80650500D01*
X132648615Y-80633682D01*
X132689744Y-80625501D01*
X132808127Y-80576465D01*
X132914669Y-80505276D01*
X133005276Y-80414669D01*
X133076465Y-80308127D01*
X133125501Y-80189744D01*
X133143985Y-80096823D01*
X133150500Y-80064071D01*
X133150500Y-79935928D01*
X133125502Y-79810261D01*
X133125501Y-79810260D01*
X133125501Y-79810256D01*
X133076465Y-79691873D01*
X133076464Y-79691872D01*
X133076461Y-79691866D01*
X133005276Y-79585331D01*
X133005273Y-79585327D01*
X132914672Y-79494726D01*
X132914668Y-79494723D01*
X132808133Y-79423538D01*
X132808124Y-79423533D01*
X132689744Y-79374499D01*
X132689738Y-79374497D01*
X132564071Y-79349500D01*
X132564069Y-79349500D01*
X132435931Y-79349500D01*
X132435929Y-79349500D01*
X132310261Y-79374497D01*
X132310255Y-79374499D01*
X132191875Y-79423533D01*
X132191866Y-79423538D01*
X132085331Y-79494723D01*
X132085327Y-79494726D01*
X131991873Y-79588181D01*
X131930550Y-79621666D01*
X131904192Y-79624500D01*
X131105056Y-79624500D01*
X131038017Y-79604815D01*
X131001954Y-79569391D01*
X130994528Y-79558277D01*
X130994526Y-79558275D01*
X130994524Y-79558272D01*
X130903924Y-79467672D01*
X130903920Y-79467669D01*
X130797385Y-79396484D01*
X130797376Y-79396479D01*
X130678996Y-79347445D01*
X130678990Y-79347443D01*
X130553323Y-79322446D01*
X130553321Y-79322446D01*
X130425183Y-79322446D01*
X130425181Y-79322446D01*
X130299513Y-79347443D01*
X130299507Y-79347445D01*
X130181127Y-79396479D01*
X130181118Y-79396484D01*
X130074583Y-79467669D01*
X130074579Y-79467672D01*
X129983978Y-79558273D01*
X129983975Y-79558277D01*
X129912790Y-79664812D01*
X129912785Y-79664821D01*
X129863751Y-79783201D01*
X129863749Y-79783207D01*
X129838752Y-79908874D01*
X129838752Y-79908877D01*
X129838752Y-80037015D01*
X129838752Y-80037017D01*
X129838751Y-80037017D01*
X123150500Y-80037017D01*
X123150500Y-79935932D01*
X123148719Y-79926980D01*
X123148719Y-79926977D01*
X123125502Y-79810261D01*
X123125501Y-79810260D01*
X123125501Y-79810256D01*
X123076465Y-79691873D01*
X123076464Y-79691872D01*
X123076461Y-79691866D01*
X123005276Y-79585331D01*
X123005273Y-79585327D01*
X122914672Y-79494726D01*
X122914668Y-79494723D01*
X122808133Y-79423538D01*
X122808124Y-79423533D01*
X122689744Y-79374499D01*
X122689738Y-79374497D01*
X122564071Y-79349500D01*
X122564069Y-79349500D01*
X122480899Y-79349500D01*
X122413860Y-79329815D01*
X122368105Y-79277011D01*
X122358161Y-79207853D01*
X122387186Y-79144297D01*
X122393218Y-79137819D01*
X123844217Y-77686819D01*
X123905540Y-77653334D01*
X123931898Y-77650500D01*
X124064071Y-77650500D01*
X124148615Y-77633682D01*
X124189744Y-77625501D01*
X124308127Y-77576465D01*
X124414669Y-77505276D01*
X124505276Y-77414669D01*
X124576465Y-77308127D01*
X124625501Y-77189744D01*
X124636363Y-77135139D01*
X124650500Y-77064071D01*
X124650500Y-76935928D01*
X124625502Y-76810261D01*
X124625501Y-76810260D01*
X124625501Y-76810256D01*
X124576465Y-76691873D01*
X124576464Y-76691872D01*
X124576461Y-76691866D01*
X124505276Y-76585331D01*
X124505273Y-76585327D01*
X124414672Y-76494726D01*
X124414668Y-76494723D01*
X124308133Y-76423538D01*
X124308124Y-76423533D01*
X124189744Y-76374499D01*
X124189738Y-76374497D01*
X124064071Y-76349500D01*
X124064069Y-76349500D01*
X123935931Y-76349500D01*
X123935929Y-76349500D01*
X123810261Y-76374497D01*
X123810255Y-76374499D01*
X123691875Y-76423533D01*
X123691866Y-76423538D01*
X123585331Y-76494723D01*
X123585327Y-76494726D01*
X123494726Y-76585327D01*
X123494723Y-76585331D01*
X123423538Y-76691866D01*
X123423533Y-76691875D01*
X123374499Y-76810255D01*
X123374497Y-76810261D01*
X123349500Y-76935928D01*
X123349500Y-77068100D01*
X123329815Y-77135139D01*
X123313181Y-77155781D01*
X120494438Y-79974525D01*
X120424527Y-80044435D01*
X120375089Y-80130062D01*
X120375088Y-80130065D01*
X120366347Y-80162687D01*
X120366347Y-80162690D01*
X120355707Y-80202402D01*
X120349500Y-80225565D01*
X111132442Y-80225565D01*
X112491328Y-70600119D01*
X112500500Y-70565892D01*
X112500500Y-70535157D01*
X112504797Y-70504720D01*
X112500500Y-70469542D01*
X112500500Y-70434108D01*
X112492545Y-70404419D01*
X112491489Y-70395772D01*
X112488819Y-70373912D01*
X112488818Y-70373910D01*
X112488818Y-70373908D01*
X112475563Y-70341043D01*
X112466392Y-70306814D01*
X112451023Y-70280195D01*
X112439527Y-70251689D01*
X112422752Y-70229398D01*
X112414444Y-70216838D01*
X112400502Y-70192689D01*
X112400498Y-70192684D01*
X112384925Y-70177111D01*
X112373528Y-70163992D01*
X112360283Y-70146392D01*
X112338309Y-70129202D01*
X112332369Y-70124555D01*
X112307314Y-70099500D01*
X112280697Y-70084132D01*
X112273835Y-70078764D01*
X112273834Y-70078763D01*
X112256485Y-70065192D01*
X112230818Y-70054278D01*
X112223873Y-70051324D01*
X112193186Y-70033608D01*
X112163498Y-70025652D01*
X112155487Y-70022246D01*
X112155484Y-70022245D01*
X112135210Y-70013625D01*
X112107590Y-70009725D01*
X112100118Y-70008671D01*
X112065892Y-69999500D01*
X112035157Y-69999500D01*
X112022004Y-69997643D01*
X112004722Y-69995203D01*
X112004718Y-69995202D01*
X111980454Y-69998167D01*
X111977032Y-69998585D01*
X111961998Y-69999500D01*
X88836122Y-69999500D01*
X88806660Y-69995225D01*
X88770508Y-69999500D01*
X88734107Y-69999500D01*
X88713990Y-70004889D01*
X88696474Y-70008253D01*
X88675787Y-70010700D01*
X88648757Y-70021480D01*
X88634923Y-70026075D01*
X88606815Y-70033607D01*
X88606814Y-70033607D01*
X88588779Y-70044020D01*
X88588778Y-70044019D01*
X88581021Y-70048497D01*
X88553380Y-70059522D01*
X88524221Y-70081290D01*
X88517888Y-70084947D01*
X88517885Y-70084950D01*
X88492685Y-70099500D01*
X88477964Y-70114221D01*
X88464470Y-70125899D01*
X88447783Y-70138357D01*
X88447776Y-70138363D01*
X88429760Y-70161211D01*
X88420079Y-70172104D01*
X88399504Y-70192681D01*
X88399496Y-70192691D01*
X88389086Y-70210721D01*
X88384610Y-70218471D01*
X88366182Y-70241845D01*
X88351814Y-70275275D01*
X88348159Y-70281607D01*
X88348158Y-70281611D01*
X88333608Y-70306813D01*
X88333607Y-70306814D01*
X88328213Y-70326941D01*
X88325898Y-70335578D01*
X88314149Y-70362922D01*
X88308923Y-70398930D01*
X88307030Y-70405998D01*
X88307030Y-70406003D01*
X88299500Y-70434103D01*
X88299500Y-70454931D01*
X88298215Y-70472737D01*
X84609969Y-95891720D01*
X84608919Y-95898951D01*
X84599500Y-95934108D01*
X84599500Y-95963873D01*
X84598215Y-95972730D01*
X84598215Y-95972732D01*
X84595710Y-95990000D01*
X84595225Y-95993340D01*
X61106404Y-95993340D01*
X63727388Y-77428031D01*
X71899500Y-77428031D01*
X71899500Y-77459852D01*
X71899500Y-77771969D01*
X71906868Y-77846782D01*
X71933210Y-78114249D01*
X72000308Y-78451572D01*
X72069815Y-78680706D01*
X72100150Y-78780705D01*
X72226156Y-79084912D01*
X72231770Y-79098464D01*
X72231772Y-79098469D01*
X72393893Y-79401775D01*
X72393897Y-79401782D01*
X72393900Y-79401787D01*
X72559416Y-79649500D01*
X72584975Y-79687751D01*
X72584985Y-79687765D01*
X72803176Y-79953632D01*
X73046367Y-80196823D01*
X73046372Y-80196827D01*
X73046373Y-80196828D01*
X73312240Y-80415019D01*
X73598213Y-80606100D01*
X73598222Y-80606105D01*
X73598224Y-80606106D01*
X73901530Y-80768227D01*
X73901532Y-80768227D01*
X73901538Y-80768231D01*
X74219295Y-80899850D01*
X74548422Y-80999690D01*
X74885750Y-81066789D01*
X75228031Y-81100500D01*
X75228034Y-81100500D01*
X75571966Y-81100500D01*
X75571969Y-81100500D01*
X75914250Y-81066789D01*
X76251578Y-80999690D01*
X76580705Y-80899850D01*
X76898462Y-80768231D01*
X77201787Y-80606100D01*
X77487760Y-80415019D01*
X77753627Y-80196828D01*
X77996828Y-79953627D01*
X78215019Y-79687760D01*
X78406100Y-79401787D01*
X78568231Y-79098462D01*
X78699850Y-78780705D01*
X78799690Y-78451578D01*
X78866789Y-78114250D01*
X78900500Y-77771969D01*
X78900500Y-77428031D01*
X78866789Y-77085750D01*
X78799690Y-76748422D01*
X78699850Y-76419295D01*
X78568231Y-76101538D01*
X78542613Y-76053611D01*
X78406106Y-75798224D01*
X78406105Y-75798222D01*
X78406100Y-75798213D01*
X78215019Y-75512240D01*
X77996828Y-75246373D01*
X77996827Y-75246372D01*
X77996823Y-75246367D01*
X77753632Y-75003176D01*
X77487765Y-74784985D01*
X77487764Y-74784984D01*
X77487760Y-74784981D01*
X77201787Y-74593900D01*
X77201782Y-74593897D01*
X77201775Y-74593893D01*
X76898469Y-74431772D01*
X76898464Y-74431770D01*
X76835402Y-74405649D01*
X76805394Y-74393219D01*
X76580706Y-74300150D01*
X76251572Y-74200308D01*
X75914248Y-74133210D01*
X75914249Y-74133210D01*
X75656456Y-74107821D01*
X75571969Y-74099500D01*
X75228031Y-74099500D01*
X75149966Y-74107188D01*
X74885750Y-74133210D01*
X74548427Y-74200308D01*
X74219293Y-74300150D01*
X73901535Y-74431770D01*
X73901530Y-74431772D01*
X73598224Y-74593893D01*
X73598206Y-74593904D01*
X73312248Y-74784975D01*
X73312234Y-74784985D01*
X73046367Y-75003176D01*
X72803176Y-75246367D01*
X72584985Y-75512234D01*
X72584975Y-75512248D01*
X72393904Y-75798206D01*
X72393893Y-75798224D01*
X72231772Y-76101530D01*
X72231770Y-76101535D01*
X72100150Y-76419293D01*
X72000308Y-76748427D01*
X71933210Y-77085750D01*
X71911309Y-77308127D01*
X71899500Y-77428031D01*
X63727388Y-77428031D01*
X64691328Y-70600119D01*
X64700500Y-70565892D01*
X64700500Y-70535157D01*
X64704797Y-70504720D01*
X64700500Y-70469542D01*
X64700500Y-70434108D01*
X64692545Y-70404419D01*
X64691489Y-70395772D01*
X64688819Y-70373912D01*
X64688818Y-70373910D01*
X64688818Y-70373908D01*
X64675563Y-70341043D01*
X64666392Y-70306814D01*
X64651023Y-70280195D01*
X64639527Y-70251689D01*
X64622752Y-70229398D01*
X64614444Y-70216838D01*
X64600502Y-70192689D01*
X64600498Y-70192684D01*
X64584925Y-70177111D01*
X64573528Y-70163992D01*
X64560283Y-70146392D01*
X64538309Y-70129202D01*
X64532369Y-70124555D01*
X64507314Y-70099500D01*
X64480697Y-70084132D01*
X64473835Y-70078764D01*
X64473834Y-70078763D01*
X64456485Y-70065192D01*
X64430818Y-70054278D01*
X64423873Y-70051324D01*
X64393186Y-70033608D01*
X64363498Y-70025652D01*
X64355487Y-70022246D01*
X64355484Y-70022245D01*
X64335210Y-70013625D01*
X64307590Y-70009725D01*
X64300118Y-70008671D01*
X64265892Y-69999500D01*
X64235157Y-69999500D01*
X64222004Y-69997643D01*
X64204722Y-69995203D01*
X64204718Y-69995202D01*
X64180454Y-69998167D01*
X64177032Y-69998585D01*
X64161998Y-69999500D01*
X41036122Y-69999500D01*
X41006660Y-69995225D01*
X40970508Y-69999500D01*
X40934107Y-69999500D01*
X40913990Y-70004889D01*
X40896474Y-70008253D01*
X40875787Y-70010700D01*
X40848757Y-70021480D01*
X40834923Y-70026075D01*
X40806815Y-70033607D01*
X40806814Y-70033607D01*
X40788779Y-70044020D01*
X40788778Y-70044019D01*
X40781021Y-70048497D01*
X40753380Y-70059522D01*
X40724221Y-70081290D01*
X40717888Y-70084947D01*
X40717885Y-70084950D01*
X40692685Y-70099500D01*
X40677964Y-70114221D01*
X40664470Y-70125899D01*
X40647783Y-70138357D01*
X40647776Y-70138363D01*
X40629760Y-70161211D01*
X40620079Y-70172104D01*
X40599504Y-70192681D01*
X40599496Y-70192691D01*
X40589086Y-70210721D01*
X40584610Y-70218471D01*
X40566182Y-70241845D01*
X40551814Y-70275275D01*
X40548159Y-70281607D01*
X40548158Y-70281611D01*
X40533608Y-70306813D01*
X40533607Y-70306814D01*
X40528213Y-70326941D01*
X40525898Y-70335578D01*
X40514149Y-70362922D01*
X40508923Y-70398930D01*
X40507030Y-70405998D01*
X40507030Y-70406003D01*
X40499500Y-70434103D01*
X40499500Y-70454931D01*
X40498215Y-70472737D01*
X36809969Y-95891720D01*
X36808919Y-95898951D01*
X36799500Y-95934108D01*
X36799500Y-95963873D01*
X36798215Y-95972730D01*
X36798215Y-95972732D01*
X36795710Y-95990000D01*
X36795225Y-95993340D01*
X30424654Y-95993340D01*
X34063767Y-70096394D01*
X34092589Y-70032747D01*
X34104025Y-70021109D01*
X34113371Y-70012774D01*
X37862663Y-66668810D01*
X41155497Y-63731959D01*
X41218630Y-63702027D01*
X41238033Y-63700500D01*
X66307500Y-63700500D01*
X66374539Y-63720185D01*
G37*
G04 #@! TD.AperFunction*
G04 #@! TD*
M02*
