G04 #@! TF.GenerationSoftware,KiCad,Pcbnew,8.0.7-unknown-1000.20241208gitf899755.fc40*
G04 #@! TF.CreationDate,2024-12-09T22:02:24-08:00*
G04 #@! TF.ProjectId,2024-clock-retrofit,32303234-2d63-46c6-9f63-6b2d72657472,rev?*
G04 #@! TF.SameCoordinates,Original*
G04 #@! TF.FileFunction,Legend,Bot*
G04 #@! TF.FilePolarity,Positive*
%FSLAX46Y46*%
G04 Gerber Fmt 4.6, Leading zero omitted, Abs format (unit mm)*
G04 Created by KiCad (PCBNEW 8.0.7-unknown-1000.20241208gitf899755.fc40) date 2024-12-09 22:02:24*
%MOMM*%
%LPD*%
G01*
G04 APERTURE LIST*
%ADD10C,0.300000*%
%ADD11C,0.150000*%
%ADD12C,0.120000*%
G04 APERTURE END LIST*
D10*
X119523809Y-103254876D02*
X119714285Y-103159638D01*
X119714285Y-103159638D02*
X119999999Y-103159638D01*
X119999999Y-103159638D02*
X120285714Y-103254876D01*
X120285714Y-103254876D02*
X120476190Y-103445352D01*
X120476190Y-103445352D02*
X120571428Y-103635828D01*
X120571428Y-103635828D02*
X120666666Y-104016780D01*
X120666666Y-104016780D02*
X120666666Y-104302495D01*
X120666666Y-104302495D02*
X120571428Y-104683447D01*
X120571428Y-104683447D02*
X120476190Y-104873923D01*
X120476190Y-104873923D02*
X120285714Y-105064400D01*
X120285714Y-105064400D02*
X119999999Y-105159638D01*
X119999999Y-105159638D02*
X119809523Y-105159638D01*
X119809523Y-105159638D02*
X119523809Y-105064400D01*
X119523809Y-105064400D02*
X119428571Y-104969161D01*
X119428571Y-104969161D02*
X119428571Y-104302495D01*
X119428571Y-104302495D02*
X119809523Y-104302495D01*
X118571428Y-105159638D02*
X118571428Y-103159638D01*
X118571428Y-103159638D02*
X117428571Y-105159638D01*
X117428571Y-105159638D02*
X117428571Y-103159638D01*
X116476190Y-105159638D02*
X116476190Y-103159638D01*
X116476190Y-103159638D02*
X116000000Y-103159638D01*
X116000000Y-103159638D02*
X115714285Y-103254876D01*
X115714285Y-103254876D02*
X115523809Y-103445352D01*
X115523809Y-103445352D02*
X115428571Y-103635828D01*
X115428571Y-103635828D02*
X115333333Y-104016780D01*
X115333333Y-104016780D02*
X115333333Y-104302495D01*
X115333333Y-104302495D02*
X115428571Y-104683447D01*
X115428571Y-104683447D02*
X115523809Y-104873923D01*
X115523809Y-104873923D02*
X115714285Y-105064400D01*
X115714285Y-105064400D02*
X116000000Y-105159638D01*
X116000000Y-105159638D02*
X116476190Y-105159638D01*
X153090361Y-105983584D02*
X154042742Y-106650251D01*
X153090361Y-107126441D02*
X155090361Y-107126441D01*
X155090361Y-107126441D02*
X155090361Y-106364536D01*
X155090361Y-106364536D02*
X154995123Y-106174060D01*
X154995123Y-106174060D02*
X154899885Y-106078822D01*
X154899885Y-106078822D02*
X154709409Y-105983584D01*
X154709409Y-105983584D02*
X154423695Y-105983584D01*
X154423695Y-105983584D02*
X154233219Y-106078822D01*
X154233219Y-106078822D02*
X154137980Y-106174060D01*
X154137980Y-106174060D02*
X154042742Y-106364536D01*
X154042742Y-106364536D02*
X154042742Y-107126441D01*
X155090361Y-105316917D02*
X153090361Y-103983584D01*
X155090361Y-103983584D02*
X153090361Y-105316917D01*
X155090361Y-102840727D02*
X155090361Y-102650250D01*
X155090361Y-102650250D02*
X154995123Y-102459774D01*
X154995123Y-102459774D02*
X154899885Y-102364536D01*
X154899885Y-102364536D02*
X154709409Y-102269298D01*
X154709409Y-102269298D02*
X154328457Y-102174060D01*
X154328457Y-102174060D02*
X153852266Y-102174060D01*
X153852266Y-102174060D02*
X153471314Y-102269298D01*
X153471314Y-102269298D02*
X153280838Y-102364536D01*
X153280838Y-102364536D02*
X153185600Y-102459774D01*
X153185600Y-102459774D02*
X153090361Y-102650250D01*
X153090361Y-102650250D02*
X153090361Y-102840727D01*
X153090361Y-102840727D02*
X153185600Y-103031203D01*
X153185600Y-103031203D02*
X153280838Y-103126441D01*
X153280838Y-103126441D02*
X153471314Y-103221679D01*
X153471314Y-103221679D02*
X153852266Y-103316917D01*
X153852266Y-103316917D02*
X154328457Y-103316917D01*
X154328457Y-103316917D02*
X154709409Y-103221679D01*
X154709409Y-103221679D02*
X154899885Y-103126441D01*
X154899885Y-103126441D02*
X154995123Y-103031203D01*
X154995123Y-103031203D02*
X155090361Y-102840727D01*
X155090361Y-119040225D02*
X155090361Y-117897368D01*
X153090361Y-118468797D02*
X155090361Y-118468797D01*
X155090361Y-117421177D02*
X153090361Y-116087844D01*
X155090361Y-116087844D02*
X153090361Y-117421177D01*
X155090361Y-114944987D02*
X155090361Y-114754510D01*
X155090361Y-114754510D02*
X154995123Y-114564034D01*
X154995123Y-114564034D02*
X154899885Y-114468796D01*
X154899885Y-114468796D02*
X154709409Y-114373558D01*
X154709409Y-114373558D02*
X154328457Y-114278320D01*
X154328457Y-114278320D02*
X153852266Y-114278320D01*
X153852266Y-114278320D02*
X153471314Y-114373558D01*
X153471314Y-114373558D02*
X153280838Y-114468796D01*
X153280838Y-114468796D02*
X153185600Y-114564034D01*
X153185600Y-114564034D02*
X153090361Y-114754510D01*
X153090361Y-114754510D02*
X153090361Y-114944987D01*
X153090361Y-114944987D02*
X153185600Y-115135463D01*
X153185600Y-115135463D02*
X153280838Y-115230701D01*
X153280838Y-115230701D02*
X153471314Y-115325939D01*
X153471314Y-115325939D02*
X153852266Y-115421177D01*
X153852266Y-115421177D02*
X154328457Y-115421177D01*
X154328457Y-115421177D02*
X154709409Y-115325939D01*
X154709409Y-115325939D02*
X154899885Y-115230701D01*
X154899885Y-115230701D02*
X154995123Y-115135463D01*
X154995123Y-115135463D02*
X155090361Y-114944987D01*
X158495123Y-106028822D02*
X158590361Y-106219298D01*
X158590361Y-106219298D02*
X158590361Y-106505012D01*
X158590361Y-106505012D02*
X158495123Y-106790727D01*
X158495123Y-106790727D02*
X158304647Y-106981203D01*
X158304647Y-106981203D02*
X158114171Y-107076441D01*
X158114171Y-107076441D02*
X157733219Y-107171679D01*
X157733219Y-107171679D02*
X157447504Y-107171679D01*
X157447504Y-107171679D02*
X157066552Y-107076441D01*
X157066552Y-107076441D02*
X156876076Y-106981203D01*
X156876076Y-106981203D02*
X156685600Y-106790727D01*
X156685600Y-106790727D02*
X156590361Y-106505012D01*
X156590361Y-106505012D02*
X156590361Y-106314536D01*
X156590361Y-106314536D02*
X156685600Y-106028822D01*
X156685600Y-106028822D02*
X156780838Y-105933584D01*
X156780838Y-105933584D02*
X157447504Y-105933584D01*
X157447504Y-105933584D02*
X157447504Y-106314536D01*
X156590361Y-105076441D02*
X158590361Y-105076441D01*
X158590361Y-105076441D02*
X156590361Y-103933584D01*
X156590361Y-103933584D02*
X158590361Y-103933584D01*
X156590361Y-102981203D02*
X158590361Y-102981203D01*
X158590361Y-102981203D02*
X158590361Y-102505013D01*
X158590361Y-102505013D02*
X158495123Y-102219298D01*
X158495123Y-102219298D02*
X158304647Y-102028822D01*
X158304647Y-102028822D02*
X158114171Y-101933584D01*
X158114171Y-101933584D02*
X157733219Y-101838346D01*
X157733219Y-101838346D02*
X157447504Y-101838346D01*
X157447504Y-101838346D02*
X157066552Y-101933584D01*
X157066552Y-101933584D02*
X156876076Y-102028822D01*
X156876076Y-102028822D02*
X156685600Y-102219298D01*
X156685600Y-102219298D02*
X156590361Y-102505013D01*
X156590361Y-102505013D02*
X156590361Y-102981203D01*
X150995123Y-118468796D02*
X151090361Y-118659272D01*
X151090361Y-118659272D02*
X151090361Y-118944986D01*
X151090361Y-118944986D02*
X150995123Y-119230701D01*
X150995123Y-119230701D02*
X150804647Y-119421177D01*
X150804647Y-119421177D02*
X150614171Y-119516415D01*
X150614171Y-119516415D02*
X150233219Y-119611653D01*
X150233219Y-119611653D02*
X149947504Y-119611653D01*
X149947504Y-119611653D02*
X149566552Y-119516415D01*
X149566552Y-119516415D02*
X149376076Y-119421177D01*
X149376076Y-119421177D02*
X149185600Y-119230701D01*
X149185600Y-119230701D02*
X149090361Y-118944986D01*
X149090361Y-118944986D02*
X149090361Y-118754510D01*
X149090361Y-118754510D02*
X149185600Y-118468796D01*
X149185600Y-118468796D02*
X149280838Y-118373558D01*
X149280838Y-118373558D02*
X149947504Y-118373558D01*
X149947504Y-118373558D02*
X149947504Y-118754510D01*
X149090361Y-117516415D02*
X151090361Y-117516415D01*
X151090361Y-117516415D02*
X149090361Y-116373558D01*
X149090361Y-116373558D02*
X151090361Y-116373558D01*
X149090361Y-115421177D02*
X151090361Y-115421177D01*
X151090361Y-115421177D02*
X151090361Y-114944987D01*
X151090361Y-114944987D02*
X150995123Y-114659272D01*
X150995123Y-114659272D02*
X150804647Y-114468796D01*
X150804647Y-114468796D02*
X150614171Y-114373558D01*
X150614171Y-114373558D02*
X150233219Y-114278320D01*
X150233219Y-114278320D02*
X149947504Y-114278320D01*
X149947504Y-114278320D02*
X149566552Y-114373558D01*
X149566552Y-114373558D02*
X149376076Y-114468796D01*
X149376076Y-114468796D02*
X149185600Y-114659272D01*
X149185600Y-114659272D02*
X149090361Y-114944987D01*
X149090361Y-114944987D02*
X149090361Y-115421177D01*
X149090361Y-107126441D02*
X151090361Y-107126441D01*
X151090361Y-105793108D02*
X151090361Y-105412155D01*
X151090361Y-105412155D02*
X150995123Y-105221679D01*
X150995123Y-105221679D02*
X150804647Y-105031203D01*
X150804647Y-105031203D02*
X150423695Y-104935965D01*
X150423695Y-104935965D02*
X149757028Y-104935965D01*
X149757028Y-104935965D02*
X149376076Y-105031203D01*
X149376076Y-105031203D02*
X149185600Y-105221679D01*
X149185600Y-105221679D02*
X149090361Y-105412155D01*
X149090361Y-105412155D02*
X149090361Y-105793108D01*
X149090361Y-105793108D02*
X149185600Y-105983584D01*
X149185600Y-105983584D02*
X149376076Y-106174060D01*
X149376076Y-106174060D02*
X149757028Y-106269298D01*
X149757028Y-106269298D02*
X150423695Y-106269298D01*
X150423695Y-106269298D02*
X150804647Y-106174060D01*
X150804647Y-106174060D02*
X150995123Y-105983584D01*
X150995123Y-105983584D02*
X151090361Y-105793108D01*
X151090361Y-103697870D02*
X151090361Y-103507393D01*
X151090361Y-103507393D02*
X150995123Y-103316917D01*
X150995123Y-103316917D02*
X150899885Y-103221679D01*
X150899885Y-103221679D02*
X150709409Y-103126441D01*
X150709409Y-103126441D02*
X150328457Y-103031203D01*
X150328457Y-103031203D02*
X149852266Y-103031203D01*
X149852266Y-103031203D02*
X149471314Y-103126441D01*
X149471314Y-103126441D02*
X149280838Y-103221679D01*
X149280838Y-103221679D02*
X149185600Y-103316917D01*
X149185600Y-103316917D02*
X149090361Y-103507393D01*
X149090361Y-103507393D02*
X149090361Y-103697870D01*
X149090361Y-103697870D02*
X149185600Y-103888346D01*
X149185600Y-103888346D02*
X149280838Y-103983584D01*
X149280838Y-103983584D02*
X149471314Y-104078822D01*
X149471314Y-104078822D02*
X149852266Y-104174060D01*
X149852266Y-104174060D02*
X150328457Y-104174060D01*
X150328457Y-104174060D02*
X150709409Y-104078822D01*
X150709409Y-104078822D02*
X150899885Y-103983584D01*
X150899885Y-103983584D02*
X150995123Y-103888346D01*
X150995123Y-103888346D02*
X151090361Y-103697870D01*
X118380952Y-112659638D02*
X119333333Y-112659638D01*
X119333333Y-112659638D02*
X119428571Y-113612019D01*
X119428571Y-113612019D02*
X119333333Y-113516780D01*
X119333333Y-113516780D02*
X119142857Y-113421542D01*
X119142857Y-113421542D02*
X118666666Y-113421542D01*
X118666666Y-113421542D02*
X118476190Y-113516780D01*
X118476190Y-113516780D02*
X118380952Y-113612019D01*
X118380952Y-113612019D02*
X118285714Y-113802495D01*
X118285714Y-113802495D02*
X118285714Y-114278685D01*
X118285714Y-114278685D02*
X118380952Y-114469161D01*
X118380952Y-114469161D02*
X118476190Y-114564400D01*
X118476190Y-114564400D02*
X118666666Y-114659638D01*
X118666666Y-114659638D02*
X119142857Y-114659638D01*
X119142857Y-114659638D02*
X119333333Y-114564400D01*
X119333333Y-114564400D02*
X119428571Y-114469161D01*
X117714285Y-112659638D02*
X117047619Y-114659638D01*
X117047619Y-114659638D02*
X116380952Y-112659638D01*
D11*
X123844819Y-97308095D02*
X124654342Y-97308095D01*
X124654342Y-97308095D02*
X124749580Y-97355714D01*
X124749580Y-97355714D02*
X124797200Y-97403333D01*
X124797200Y-97403333D02*
X124844819Y-97498571D01*
X124844819Y-97498571D02*
X124844819Y-97689047D01*
X124844819Y-97689047D02*
X124797200Y-97784285D01*
X124797200Y-97784285D02*
X124749580Y-97831904D01*
X124749580Y-97831904D02*
X124654342Y-97879523D01*
X124654342Y-97879523D02*
X123844819Y-97879523D01*
X124844819Y-98879523D02*
X124844819Y-98308095D01*
X124844819Y-98593809D02*
X123844819Y-98593809D01*
X123844819Y-98593809D02*
X123987676Y-98498571D01*
X123987676Y-98498571D02*
X124082914Y-98403333D01*
X124082914Y-98403333D02*
X124130533Y-98308095D01*
X132095832Y-77799700D02*
X131952975Y-77847319D01*
X131952975Y-77847319D02*
X131714880Y-77847319D01*
X131714880Y-77847319D02*
X131619642Y-77799700D01*
X131619642Y-77799700D02*
X131572023Y-77752080D01*
X131572023Y-77752080D02*
X131524404Y-77656842D01*
X131524404Y-77656842D02*
X131524404Y-77561604D01*
X131524404Y-77561604D02*
X131572023Y-77466366D01*
X131572023Y-77466366D02*
X131619642Y-77418747D01*
X131619642Y-77418747D02*
X131714880Y-77371128D01*
X131714880Y-77371128D02*
X131905356Y-77323509D01*
X131905356Y-77323509D02*
X132000594Y-77275890D01*
X132000594Y-77275890D02*
X132048213Y-77228271D01*
X132048213Y-77228271D02*
X132095832Y-77133033D01*
X132095832Y-77133033D02*
X132095832Y-77037795D01*
X132095832Y-77037795D02*
X132048213Y-76942557D01*
X132048213Y-76942557D02*
X132000594Y-76894938D01*
X132000594Y-76894938D02*
X131905356Y-76847319D01*
X131905356Y-76847319D02*
X131667261Y-76847319D01*
X131667261Y-76847319D02*
X131524404Y-76894938D01*
X131191070Y-76847319D02*
X130952975Y-77847319D01*
X130952975Y-77847319D02*
X130762499Y-77133033D01*
X130762499Y-77133033D02*
X130572023Y-77847319D01*
X130572023Y-77847319D02*
X130333928Y-76847319D01*
X129429166Y-77847319D02*
X130000594Y-77847319D01*
X129714880Y-77847319D02*
X129714880Y-76847319D01*
X129714880Y-76847319D02*
X129810118Y-76990176D01*
X129810118Y-76990176D02*
X129905356Y-77085414D01*
X129905356Y-77085414D02*
X130000594Y-77133033D01*
D12*
G04 #@! TO.C,U1*
X125880000Y-96620000D02*
X125880000Y-97400000D01*
X125880000Y-116200000D02*
X125880000Y-122360000D01*
X126880000Y-96620000D02*
X125880000Y-96620000D01*
X143120000Y-96620000D02*
X144120000Y-96620000D01*
X144120000Y-96620000D02*
X144120000Y-97400000D01*
X144120000Y-115945000D02*
X144120000Y-122360000D01*
X144120000Y-122360000D02*
X125880000Y-122360000D01*
X125875000Y-115975000D02*
X125375000Y-115475000D01*
X125875000Y-115475000D01*
X125875000Y-115975000D01*
G36*
X125875000Y-115975000D02*
G01*
X125375000Y-115475000D01*
X125875000Y-115475000D01*
X125875000Y-115975000D01*
G37*
G04 #@! TO.C,TP3*
X155200000Y-109000000D02*
G75*
G02*
X152800000Y-109000000I-1200000J0D01*
G01*
X152800000Y-109000000D02*
G75*
G02*
X155200000Y-109000000I1200000J0D01*
G01*
G04 #@! TO.C,TP5*
X151200000Y-112500000D02*
G75*
G02*
X148800000Y-112500000I-1200000J0D01*
G01*
X148800000Y-112500000D02*
G75*
G02*
X151200000Y-112500000I1200000J0D01*
G01*
G04 #@! TO.C,TP7*
X119200000Y-111000000D02*
G75*
G02*
X116800000Y-111000000I-1200000J0D01*
G01*
X116800000Y-111000000D02*
G75*
G02*
X119200000Y-111000000I1200000J0D01*
G01*
G04 #@! TO.C,TP2*
X155200000Y-112500000D02*
G75*
G02*
X152800000Y-112500000I-1200000J0D01*
G01*
X152800000Y-112500000D02*
G75*
G02*
X155200000Y-112500000I1200000J0D01*
G01*
G04 #@! TO.C,SW1*
X126902500Y-76912500D02*
X126902500Y-74812500D01*
X126902500Y-80022500D02*
X126902500Y-79512500D01*
X126902500Y-80022500D02*
X127422500Y-80022500D01*
X127422500Y-76682500D02*
X127962500Y-76682500D01*
X127422500Y-76912500D02*
X127422500Y-76682500D01*
X127422500Y-80022500D02*
X127422500Y-79512500D01*
X129062500Y-76682500D02*
X132462500Y-76682500D01*
X133562500Y-76682500D02*
X134102500Y-76682500D01*
X134102500Y-76912500D02*
X134102500Y-76682500D01*
X134102500Y-80022500D02*
X134102500Y-79512500D01*
X134102500Y-80022500D02*
X134622500Y-80022500D01*
X134622500Y-76912500D02*
X134622500Y-74812500D01*
X134622500Y-80022500D02*
X134622500Y-79512500D01*
G04 #@! TO.C,TP6*
X119200000Y-106950000D02*
G75*
G02*
X116800000Y-106950000I-1200000J0D01*
G01*
X116800000Y-106950000D02*
G75*
G02*
X119200000Y-106950000I1200000J0D01*
G01*
G04 #@! TO.C,TP4*
X158700000Y-108950000D02*
G75*
G02*
X156300000Y-108950000I-1200000J0D01*
G01*
X156300000Y-108950000D02*
G75*
G02*
X158700000Y-108950000I1200000J0D01*
G01*
G04 #@! TO.C,TP1*
X151200000Y-109000000D02*
G75*
G02*
X148800000Y-109000000I-1200000J0D01*
G01*
X148800000Y-109000000D02*
G75*
G02*
X151200000Y-109000000I1200000J0D01*
G01*
G04 #@! TD*
M02*
