%TF.GenerationSoftware,KiCad,Pcbnew,5.1.7-a382d34a8~88~ubuntu20.04.1*%
%TF.CreationDate,2021-01-15T03:25:47-08:00*%
%TF.ProjectId,snoopy-sao,736e6f6f-7079-42d7-9361-6f2e6b696361,rev?*%
%TF.SameCoordinates,Original*%
%TF.FileFunction,Soldermask,Bot*%
%TF.FilePolarity,Negative*%
%FSLAX46Y46*%
G04 Gerber Fmt 4.6, Leading zero omitted, Abs format (unit mm)*
G04 Created by KiCad (PCBNEW 5.1.7-a382d34a8~88~ubuntu20.04.1) date 2021-01-15 03:25:47*
%MOMM*%
%LPD*%
G01*
G04 APERTURE LIST*
%ADD10C,0.010000*%
%ADD11R,1.000000X1.000000*%
%ADD12C,0.100000*%
%ADD13R,6.908800X3.454400*%
%ADD14R,1.727200X3.454400*%
G04 APERTURE END LIST*
D10*
%TO.C,H3*%
G36*
X125315333Y-76604666D02*
G01*
X125345732Y-76906105D01*
X125315333Y-76943333D01*
X125164330Y-76908466D01*
X125146000Y-76774000D01*
X125238934Y-76564929D01*
X125315333Y-76604666D01*
G37*
X125315333Y-76604666D02*
X125345732Y-76906105D01*
X125315333Y-76943333D01*
X125164330Y-76908466D01*
X125146000Y-76774000D01*
X125238934Y-76564929D01*
X125315333Y-76604666D01*
G36*
X125102604Y-77692300D02*
G01*
X125009760Y-78317286D01*
X124842269Y-79098205D01*
X124638537Y-79870574D01*
X124436970Y-80469912D01*
X124306422Y-80711000D01*
X124144088Y-80789580D01*
X124187231Y-80584000D01*
X124312653Y-80137502D01*
X124498394Y-79383294D01*
X124646384Y-78740935D01*
X124835888Y-77984625D01*
X124997500Y-77497731D01*
X125082395Y-77387728D01*
X125102604Y-77692300D01*
G37*
X125102604Y-77692300D02*
X125009760Y-78317286D01*
X124842269Y-79098205D01*
X124638537Y-79870574D01*
X124436970Y-80469912D01*
X124306422Y-80711000D01*
X124144088Y-80789580D01*
X124187231Y-80584000D01*
X124312653Y-80137502D01*
X124498394Y-79383294D01*
X124646384Y-78740935D01*
X124835888Y-77984625D01*
X124997500Y-77497731D01*
X125082395Y-77387728D01*
X125102604Y-77692300D01*
G36*
X121590000Y-78409335D02*
G01*
X121493058Y-78658366D01*
X121237385Y-79247997D01*
X120875708Y-80056931D01*
X120828000Y-80162290D01*
X120449877Y-81057924D01*
X120177196Y-81821499D01*
X120066288Y-82294400D01*
X120066000Y-82307875D01*
X119975573Y-82701116D01*
X119765173Y-83140334D01*
X119526118Y-83483329D01*
X119349729Y-83587900D01*
X119312078Y-83481868D01*
X119376834Y-83093564D01*
X119551012Y-82409599D01*
X119682250Y-81957868D01*
X119909381Y-81049105D01*
X120045849Y-80194760D01*
X120063250Y-79904103D01*
X120176670Y-79258278D01*
X120606444Y-78837399D01*
X120828000Y-78717071D01*
X121339050Y-78480939D01*
X121585868Y-78403857D01*
X121590000Y-78409335D01*
G37*
X121590000Y-78409335D02*
X121493058Y-78658366D01*
X121237385Y-79247997D01*
X120875708Y-80056931D01*
X120828000Y-80162290D01*
X120449877Y-81057924D01*
X120177196Y-81821499D01*
X120066288Y-82294400D01*
X120066000Y-82307875D01*
X119975573Y-82701116D01*
X119765173Y-83140334D01*
X119526118Y-83483329D01*
X119349729Y-83587900D01*
X119312078Y-83481868D01*
X119376834Y-83093564D01*
X119551012Y-82409599D01*
X119682250Y-81957868D01*
X119909381Y-81049105D01*
X120045849Y-80194760D01*
X120063250Y-79904103D01*
X120176670Y-79258278D01*
X120606444Y-78837399D01*
X120828000Y-78717071D01*
X121339050Y-78480939D01*
X121585868Y-78403857D01*
X121590000Y-78409335D01*
G36*
X124553333Y-84224666D02*
G01*
X124583732Y-84526105D01*
X124553333Y-84563333D01*
X124402330Y-84528466D01*
X124384000Y-84394000D01*
X124476934Y-84184929D01*
X124553333Y-84224666D01*
G37*
X124553333Y-84224666D02*
X124583732Y-84526105D01*
X124553333Y-84563333D01*
X124402330Y-84528466D01*
X124384000Y-84394000D01*
X124476934Y-84184929D01*
X124553333Y-84224666D01*
G36*
X121336000Y-88585000D02*
G01*
X121209000Y-88712000D01*
X121082000Y-88585000D01*
X121209000Y-88458000D01*
X121336000Y-88585000D01*
G37*
X121336000Y-88585000D02*
X121209000Y-88712000D01*
X121082000Y-88585000D01*
X121209000Y-88458000D01*
X121336000Y-88585000D01*
G36*
X73808082Y-82771380D02*
G01*
X73999482Y-83001203D01*
X74206022Y-83531356D01*
X74330011Y-84327699D01*
X74346000Y-84723722D01*
X74318019Y-85469165D01*
X74210783Y-85806711D01*
X73989348Y-85834525D01*
X73954958Y-85822293D01*
X73438061Y-85814202D01*
X73002458Y-85961596D01*
X72402320Y-86261304D01*
X72060000Y-86423297D01*
X71700818Y-86745304D01*
X71281226Y-87331607D01*
X71176443Y-87512901D01*
X70673886Y-88430164D01*
X71247547Y-89206082D01*
X71564929Y-89688082D01*
X71651968Y-89937208D01*
X71623104Y-89947409D01*
X71238075Y-89876571D01*
X70831979Y-89799923D01*
X70283304Y-89456282D01*
X69846140Y-88729641D01*
X69577436Y-87742063D01*
X69520000Y-86987877D01*
X69751547Y-86007404D01*
X70398089Y-84974569D01*
X71387473Y-83981066D01*
X72496807Y-83204866D01*
X73176846Y-82822050D01*
X73566201Y-82684025D01*
X73808082Y-82771380D01*
G37*
X73808082Y-82771380D02*
X73999482Y-83001203D01*
X74206022Y-83531356D01*
X74330011Y-84327699D01*
X74346000Y-84723722D01*
X74318019Y-85469165D01*
X74210783Y-85806711D01*
X73989348Y-85834525D01*
X73954958Y-85822293D01*
X73438061Y-85814202D01*
X73002458Y-85961596D01*
X72402320Y-86261304D01*
X72060000Y-86423297D01*
X71700818Y-86745304D01*
X71281226Y-87331607D01*
X71176443Y-87512901D01*
X70673886Y-88430164D01*
X71247547Y-89206082D01*
X71564929Y-89688082D01*
X71651968Y-89937208D01*
X71623104Y-89947409D01*
X71238075Y-89876571D01*
X70831979Y-89799923D01*
X70283304Y-89456282D01*
X69846140Y-88729641D01*
X69577436Y-87742063D01*
X69520000Y-86987877D01*
X69751547Y-86007404D01*
X70398089Y-84974569D01*
X71387473Y-83981066D01*
X72496807Y-83204866D01*
X73176846Y-82822050D01*
X73566201Y-82684025D01*
X73808082Y-82771380D01*
G36*
X114643530Y-59093433D02*
G01*
X116286461Y-59371325D01*
X117742280Y-59797058D01*
X118909913Y-60340018D01*
X119688282Y-60969589D01*
X119764689Y-61068861D01*
X120077880Y-61369475D01*
X120656443Y-61825348D01*
X121366514Y-62341999D01*
X122074235Y-62824948D01*
X122645742Y-63179714D01*
X122942805Y-63312000D01*
X123196933Y-63480268D01*
X123672601Y-63905199D01*
X124250276Y-64466982D01*
X124810422Y-65045807D01*
X125233507Y-65521862D01*
X125400000Y-65774884D01*
X125569125Y-66100972D01*
X125979293Y-66561359D01*
X126010106Y-66590613D01*
X126464778Y-67210451D01*
X126830924Y-68032628D01*
X126891799Y-68242345D01*
X127189348Y-69093674D01*
X127584634Y-69845195D01*
X127678692Y-69976019D01*
X128102438Y-70891155D01*
X128194000Y-71680682D01*
X128318281Y-72610207D01*
X128624946Y-73562826D01*
X128702000Y-73726000D01*
X129032915Y-74619792D01*
X129203666Y-75559979D01*
X129210000Y-75731345D01*
X129286766Y-76597182D01*
X129474497Y-77380123D01*
X129503602Y-77455964D01*
X129672146Y-78146705D01*
X129791322Y-79175707D01*
X129855046Y-80375079D01*
X129857238Y-81576931D01*
X129791814Y-82613370D01*
X129708938Y-83124000D01*
X129539235Y-83876041D01*
X129325567Y-84863299D01*
X129183900Y-85537000D01*
X128829145Y-86825448D01*
X128303353Y-88226006D01*
X127685690Y-89556524D01*
X127055319Y-90634855D01*
X126843067Y-90923066D01*
X126155276Y-91713952D01*
X125334761Y-92557727D01*
X124473649Y-93371468D01*
X123664065Y-94072251D01*
X122998131Y-94577149D01*
X122567975Y-94803239D01*
X122527121Y-94808000D01*
X121993755Y-94937659D01*
X121309199Y-95257798D01*
X121169244Y-95340570D01*
X120120951Y-95756106D01*
X118868286Y-95916767D01*
X117621680Y-95817756D01*
X116591561Y-95454275D01*
X116576266Y-95445260D01*
X116105453Y-95077810D01*
X115719098Y-94547343D01*
X115389607Y-93779499D01*
X115089387Y-92699917D01*
X114790846Y-91234237D01*
X114596147Y-90109000D01*
X114339536Y-87353142D01*
X114405193Y-85853373D01*
X115780608Y-85853373D01*
X115840207Y-87681910D01*
X115963951Y-89501017D01*
X116096837Y-90889329D01*
X116256507Y-91923978D01*
X116460604Y-92682100D01*
X116726772Y-93240826D01*
X117072654Y-93677290D01*
X117250271Y-93846577D01*
X117848837Y-94315320D01*
X118371127Y-94481186D01*
X119076827Y-94422340D01*
X119132337Y-94413089D01*
X119971033Y-94196159D01*
X120698532Y-93887635D01*
X120804480Y-93823382D01*
X121452750Y-93464599D01*
X122273386Y-93095893D01*
X122460809Y-93022847D01*
X123015927Y-92724169D01*
X123582000Y-92216084D01*
X124193885Y-91448300D01*
X124886436Y-90370522D01*
X125694509Y-88932458D01*
X126652959Y-87083813D01*
X126854074Y-86683736D01*
X128060413Y-84274473D01*
X128036054Y-81730736D01*
X127983824Y-79975460D01*
X127868920Y-78377400D01*
X127702085Y-77014346D01*
X127494060Y-75964089D01*
X127255587Y-75304421D01*
X127126542Y-75144065D01*
X126779284Y-74693805D01*
X126593851Y-74224757D01*
X126284760Y-73645210D01*
X125737230Y-73069028D01*
X125647805Y-72999582D01*
X124951626Y-72637521D01*
X124446371Y-72743398D01*
X124102401Y-73327535D01*
X124035224Y-73561038D01*
X123759049Y-74048348D01*
X123215253Y-74651549D01*
X122845551Y-74977069D01*
X121800496Y-75816898D01*
X122241438Y-74961949D01*
X122672370Y-74177953D01*
X123185475Y-73310786D01*
X123300802Y-73125311D01*
X123670685Y-72447738D01*
X123731541Y-72033980D01*
X123622721Y-71855311D01*
X123342207Y-71773621D01*
X122946525Y-72049593D01*
X122579439Y-72453197D01*
X122035917Y-72991467D01*
X121543006Y-73307549D01*
X121394719Y-73342197D01*
X120972251Y-73575993D01*
X120380773Y-74255190D01*
X119638306Y-75352870D01*
X118762873Y-76842118D01*
X117772497Y-78696018D01*
X117651223Y-78933000D01*
X116783009Y-80787229D01*
X116206267Y-82440671D01*
X115884349Y-84070371D01*
X115780608Y-85853373D01*
X114405193Y-85853373D01*
X114460001Y-84601453D01*
X114939799Y-81957362D01*
X115761185Y-79524301D01*
X116728988Y-77676771D01*
X117266938Y-76755940D01*
X117496875Y-76147095D01*
X117440011Y-75775341D01*
X117302999Y-75650158D01*
X117064491Y-75778073D01*
X116645018Y-76252992D01*
X116110230Y-76977796D01*
X115525774Y-77855366D01*
X114957297Y-78788582D01*
X114470449Y-79680324D01*
X114221394Y-80209078D01*
X113895026Y-81170565D01*
X113568379Y-82470931D01*
X113273656Y-83942097D01*
X113043060Y-85415981D01*
X112908792Y-86724503D01*
X112889313Y-87161902D01*
X112900117Y-87951460D01*
X112950218Y-89053709D01*
X113030031Y-90275696D01*
X113067222Y-90744000D01*
X113269871Y-93157000D01*
X111143435Y-94557026D01*
X109531443Y-95761012D01*
X108342432Y-97004649D01*
X107495300Y-98390544D01*
X106954666Y-99856518D01*
X106708507Y-100657784D01*
X106493520Y-101249876D01*
X106385378Y-101462215D01*
X106067184Y-101575858D01*
X105389855Y-101702870D01*
X104508500Y-101814791D01*
X102794000Y-101990152D01*
X102794000Y-101246782D01*
X102649922Y-100463461D01*
X102279977Y-99504265D01*
X101777599Y-98588430D01*
X101497910Y-98205564D01*
X100994185Y-97796318D01*
X100158071Y-97311256D01*
X99141615Y-96827489D01*
X98096863Y-96422133D01*
X97785817Y-96322894D01*
X97080626Y-96061076D01*
X96875663Y-95839141D01*
X97173497Y-95646127D01*
X97976694Y-95471074D01*
X97985679Y-95469634D01*
X99662364Y-94952467D01*
X101340204Y-93944662D01*
X102258577Y-93181545D01*
X103156967Y-92388463D01*
X104166962Y-91538714D01*
X104699000Y-91109612D01*
X105513884Y-90453056D01*
X106003859Y-89998685D01*
X106251009Y-89644683D01*
X106337422Y-89289232D01*
X106346110Y-89066589D01*
X106515288Y-88527024D01*
X106923678Y-87915639D01*
X106985000Y-87847003D01*
X107404131Y-87392732D01*
X107568887Y-87091532D01*
X107508667Y-86735635D01*
X107252869Y-86117270D01*
X107235591Y-86076019D01*
X106903307Y-85488047D01*
X106556477Y-85172860D01*
X106478430Y-85156000D01*
X106155211Y-85374650D01*
X105925859Y-85890134D01*
X105862553Y-86491745D01*
X105922765Y-86778106D01*
X105912178Y-87196225D01*
X105742441Y-87903370D01*
X105543145Y-88493174D01*
X105238257Y-89180504D01*
X104837274Y-89798883D01*
X104251130Y-90455167D01*
X103390760Y-91256213D01*
X102841522Y-91734432D01*
X101500013Y-92834756D01*
X100347188Y-93631538D01*
X99233196Y-94199993D01*
X98008189Y-94615337D01*
X96522314Y-94952787D01*
X96372289Y-94981599D01*
X95103921Y-95186647D01*
X94102956Y-95246457D01*
X93152272Y-95168419D01*
X92761000Y-95104512D01*
X91585579Y-94915654D01*
X90305045Y-94742209D01*
X89713000Y-94674945D01*
X88327933Y-94474944D01*
X86697403Y-94151014D01*
X85025354Y-93750687D01*
X83515733Y-93321500D01*
X82684105Y-93036688D01*
X81442366Y-92460551D01*
X80149481Y-91689124D01*
X78978099Y-90837160D01*
X78100867Y-90019414D01*
X78042125Y-89951276D01*
X77233457Y-88837243D01*
X76662661Y-87651322D01*
X76299524Y-86284693D01*
X76113833Y-84628533D01*
X76073149Y-82859417D01*
X76323161Y-80424368D01*
X77021533Y-77968281D01*
X78123171Y-75590809D01*
X79164047Y-74022726D01*
X99553975Y-74022726D01*
X99565365Y-74872834D01*
X99619461Y-75631000D01*
X99801288Y-77001430D01*
X100092072Y-77911017D01*
X100512570Y-78399204D01*
X101083534Y-78505431D01*
X101128985Y-78499681D01*
X101426360Y-78390395D01*
X101597488Y-78089082D01*
X101687305Y-77474403D01*
X101721029Y-76901000D01*
X101696126Y-75637765D01*
X101522295Y-74525830D01*
X101232367Y-73631603D01*
X100859176Y-73021494D01*
X100435556Y-72761910D01*
X99994338Y-72919262D01*
X99837334Y-73091000D01*
X99641078Y-73470215D01*
X99553975Y-74022726D01*
X79164047Y-74022726D01*
X79582979Y-73391604D01*
X81132782Y-71678421D01*
X82769221Y-70232480D01*
X84248053Y-69183322D01*
X85655174Y-68481890D01*
X87076476Y-68079129D01*
X87568692Y-68002711D01*
X88197786Y-67884047D01*
X88582600Y-67749212D01*
X88915425Y-67688500D01*
X89659377Y-67627571D01*
X90717618Y-67572131D01*
X91993310Y-67527884D01*
X92577152Y-67513875D01*
X94668170Y-67434619D01*
X96296349Y-67291509D01*
X97503316Y-67080501D01*
X97768521Y-67009564D01*
X98954360Y-66538922D01*
X100360021Y-65789130D01*
X101850732Y-64844807D01*
X103291719Y-63790569D01*
X104413081Y-62837772D01*
X105977807Y-61460321D01*
X107344775Y-60441712D01*
X108620330Y-59733860D01*
X109910819Y-59288686D01*
X111322585Y-59058107D01*
X112914565Y-58994000D01*
X114643530Y-59093433D01*
G37*
X114643530Y-59093433D02*
X116286461Y-59371325D01*
X117742280Y-59797058D01*
X118909913Y-60340018D01*
X119688282Y-60969589D01*
X119764689Y-61068861D01*
X120077880Y-61369475D01*
X120656443Y-61825348D01*
X121366514Y-62341999D01*
X122074235Y-62824948D01*
X122645742Y-63179714D01*
X122942805Y-63312000D01*
X123196933Y-63480268D01*
X123672601Y-63905199D01*
X124250276Y-64466982D01*
X124810422Y-65045807D01*
X125233507Y-65521862D01*
X125400000Y-65774884D01*
X125569125Y-66100972D01*
X125979293Y-66561359D01*
X126010106Y-66590613D01*
X126464778Y-67210451D01*
X126830924Y-68032628D01*
X126891799Y-68242345D01*
X127189348Y-69093674D01*
X127584634Y-69845195D01*
X127678692Y-69976019D01*
X128102438Y-70891155D01*
X128194000Y-71680682D01*
X128318281Y-72610207D01*
X128624946Y-73562826D01*
X128702000Y-73726000D01*
X129032915Y-74619792D01*
X129203666Y-75559979D01*
X129210000Y-75731345D01*
X129286766Y-76597182D01*
X129474497Y-77380123D01*
X129503602Y-77455964D01*
X129672146Y-78146705D01*
X129791322Y-79175707D01*
X129855046Y-80375079D01*
X129857238Y-81576931D01*
X129791814Y-82613370D01*
X129708938Y-83124000D01*
X129539235Y-83876041D01*
X129325567Y-84863299D01*
X129183900Y-85537000D01*
X128829145Y-86825448D01*
X128303353Y-88226006D01*
X127685690Y-89556524D01*
X127055319Y-90634855D01*
X126843067Y-90923066D01*
X126155276Y-91713952D01*
X125334761Y-92557727D01*
X124473649Y-93371468D01*
X123664065Y-94072251D01*
X122998131Y-94577149D01*
X122567975Y-94803239D01*
X122527121Y-94808000D01*
X121993755Y-94937659D01*
X121309199Y-95257798D01*
X121169244Y-95340570D01*
X120120951Y-95756106D01*
X118868286Y-95916767D01*
X117621680Y-95817756D01*
X116591561Y-95454275D01*
X116576266Y-95445260D01*
X116105453Y-95077810D01*
X115719098Y-94547343D01*
X115389607Y-93779499D01*
X115089387Y-92699917D01*
X114790846Y-91234237D01*
X114596147Y-90109000D01*
X114339536Y-87353142D01*
X114405193Y-85853373D01*
X115780608Y-85853373D01*
X115840207Y-87681910D01*
X115963951Y-89501017D01*
X116096837Y-90889329D01*
X116256507Y-91923978D01*
X116460604Y-92682100D01*
X116726772Y-93240826D01*
X117072654Y-93677290D01*
X117250271Y-93846577D01*
X117848837Y-94315320D01*
X118371127Y-94481186D01*
X119076827Y-94422340D01*
X119132337Y-94413089D01*
X119971033Y-94196159D01*
X120698532Y-93887635D01*
X120804480Y-93823382D01*
X121452750Y-93464599D01*
X122273386Y-93095893D01*
X122460809Y-93022847D01*
X123015927Y-92724169D01*
X123582000Y-92216084D01*
X124193885Y-91448300D01*
X124886436Y-90370522D01*
X125694509Y-88932458D01*
X126652959Y-87083813D01*
X126854074Y-86683736D01*
X128060413Y-84274473D01*
X128036054Y-81730736D01*
X127983824Y-79975460D01*
X127868920Y-78377400D01*
X127702085Y-77014346D01*
X127494060Y-75964089D01*
X127255587Y-75304421D01*
X127126542Y-75144065D01*
X126779284Y-74693805D01*
X126593851Y-74224757D01*
X126284760Y-73645210D01*
X125737230Y-73069028D01*
X125647805Y-72999582D01*
X124951626Y-72637521D01*
X124446371Y-72743398D01*
X124102401Y-73327535D01*
X124035224Y-73561038D01*
X123759049Y-74048348D01*
X123215253Y-74651549D01*
X122845551Y-74977069D01*
X121800496Y-75816898D01*
X122241438Y-74961949D01*
X122672370Y-74177953D01*
X123185475Y-73310786D01*
X123300802Y-73125311D01*
X123670685Y-72447738D01*
X123731541Y-72033980D01*
X123622721Y-71855311D01*
X123342207Y-71773621D01*
X122946525Y-72049593D01*
X122579439Y-72453197D01*
X122035917Y-72991467D01*
X121543006Y-73307549D01*
X121394719Y-73342197D01*
X120972251Y-73575993D01*
X120380773Y-74255190D01*
X119638306Y-75352870D01*
X118762873Y-76842118D01*
X117772497Y-78696018D01*
X117651223Y-78933000D01*
X116783009Y-80787229D01*
X116206267Y-82440671D01*
X115884349Y-84070371D01*
X115780608Y-85853373D01*
X114405193Y-85853373D01*
X114460001Y-84601453D01*
X114939799Y-81957362D01*
X115761185Y-79524301D01*
X116728988Y-77676771D01*
X117266938Y-76755940D01*
X117496875Y-76147095D01*
X117440011Y-75775341D01*
X117302999Y-75650158D01*
X117064491Y-75778073D01*
X116645018Y-76252992D01*
X116110230Y-76977796D01*
X115525774Y-77855366D01*
X114957297Y-78788582D01*
X114470449Y-79680324D01*
X114221394Y-80209078D01*
X113895026Y-81170565D01*
X113568379Y-82470931D01*
X113273656Y-83942097D01*
X113043060Y-85415981D01*
X112908792Y-86724503D01*
X112889313Y-87161902D01*
X112900117Y-87951460D01*
X112950218Y-89053709D01*
X113030031Y-90275696D01*
X113067222Y-90744000D01*
X113269871Y-93157000D01*
X111143435Y-94557026D01*
X109531443Y-95761012D01*
X108342432Y-97004649D01*
X107495300Y-98390544D01*
X106954666Y-99856518D01*
X106708507Y-100657784D01*
X106493520Y-101249876D01*
X106385378Y-101462215D01*
X106067184Y-101575858D01*
X105389855Y-101702870D01*
X104508500Y-101814791D01*
X102794000Y-101990152D01*
X102794000Y-101246782D01*
X102649922Y-100463461D01*
X102279977Y-99504265D01*
X101777599Y-98588430D01*
X101497910Y-98205564D01*
X100994185Y-97796318D01*
X100158071Y-97311256D01*
X99141615Y-96827489D01*
X98096863Y-96422133D01*
X97785817Y-96322894D01*
X97080626Y-96061076D01*
X96875663Y-95839141D01*
X97173497Y-95646127D01*
X97976694Y-95471074D01*
X97985679Y-95469634D01*
X99662364Y-94952467D01*
X101340204Y-93944662D01*
X102258577Y-93181545D01*
X103156967Y-92388463D01*
X104166962Y-91538714D01*
X104699000Y-91109612D01*
X105513884Y-90453056D01*
X106003859Y-89998685D01*
X106251009Y-89644683D01*
X106337422Y-89289232D01*
X106346110Y-89066589D01*
X106515288Y-88527024D01*
X106923678Y-87915639D01*
X106985000Y-87847003D01*
X107404131Y-87392732D01*
X107568887Y-87091532D01*
X107508667Y-86735635D01*
X107252869Y-86117270D01*
X107235591Y-86076019D01*
X106903307Y-85488047D01*
X106556477Y-85172860D01*
X106478430Y-85156000D01*
X106155211Y-85374650D01*
X105925859Y-85890134D01*
X105862553Y-86491745D01*
X105922765Y-86778106D01*
X105912178Y-87196225D01*
X105742441Y-87903370D01*
X105543145Y-88493174D01*
X105238257Y-89180504D01*
X104837274Y-89798883D01*
X104251130Y-90455167D01*
X103390760Y-91256213D01*
X102841522Y-91734432D01*
X101500013Y-92834756D01*
X100347188Y-93631538D01*
X99233196Y-94199993D01*
X98008189Y-94615337D01*
X96522314Y-94952787D01*
X96372289Y-94981599D01*
X95103921Y-95186647D01*
X94102956Y-95246457D01*
X93152272Y-95168419D01*
X92761000Y-95104512D01*
X91585579Y-94915654D01*
X90305045Y-94742209D01*
X89713000Y-94674945D01*
X88327933Y-94474944D01*
X86697403Y-94151014D01*
X85025354Y-93750687D01*
X83515733Y-93321500D01*
X82684105Y-93036688D01*
X81442366Y-92460551D01*
X80149481Y-91689124D01*
X78978099Y-90837160D01*
X78100867Y-90019414D01*
X78042125Y-89951276D01*
X77233457Y-88837243D01*
X76662661Y-87651322D01*
X76299524Y-86284693D01*
X76113833Y-84628533D01*
X76073149Y-82859417D01*
X76323161Y-80424368D01*
X77021533Y-77968281D01*
X78123171Y-75590809D01*
X79164047Y-74022726D01*
X99553975Y-74022726D01*
X99565365Y-74872834D01*
X99619461Y-75631000D01*
X99801288Y-77001430D01*
X100092072Y-77911017D01*
X100512570Y-78399204D01*
X101083534Y-78505431D01*
X101128985Y-78499681D01*
X101426360Y-78390395D01*
X101597488Y-78089082D01*
X101687305Y-77474403D01*
X101721029Y-76901000D01*
X101696126Y-75637765D01*
X101522295Y-74525830D01*
X101232367Y-73631603D01*
X100859176Y-73021494D01*
X100435556Y-72761910D01*
X99994338Y-72919262D01*
X99837334Y-73091000D01*
X99641078Y-73470215D01*
X99553975Y-74022726D01*
X79164047Y-74022726D01*
X79582979Y-73391604D01*
X81132782Y-71678421D01*
X82769221Y-70232480D01*
X84248053Y-69183322D01*
X85655174Y-68481890D01*
X87076476Y-68079129D01*
X87568692Y-68002711D01*
X88197786Y-67884047D01*
X88582600Y-67749212D01*
X88915425Y-67688500D01*
X89659377Y-67627571D01*
X90717618Y-67572131D01*
X91993310Y-67527884D01*
X92577152Y-67513875D01*
X94668170Y-67434619D01*
X96296349Y-67291509D01*
X97503316Y-67080501D01*
X97768521Y-67009564D01*
X98954360Y-66538922D01*
X100360021Y-65789130D01*
X101850732Y-64844807D01*
X103291719Y-63790569D01*
X104413081Y-62837772D01*
X105977807Y-61460321D01*
X107344775Y-60441712D01*
X108620330Y-59733860D01*
X109910819Y-59288686D01*
X111322585Y-59058107D01*
X112914565Y-58994000D01*
X114643530Y-59093433D01*
G36*
X105910334Y-102769392D02*
G01*
X105918777Y-102852776D01*
X105521151Y-102886831D01*
X105461000Y-102886483D01*
X105067057Y-102849857D01*
X105104662Y-102772549D01*
X105148334Y-102759980D01*
X105701624Y-102722795D01*
X105910334Y-102769392D01*
G37*
X105910334Y-102769392D02*
X105918777Y-102852776D01*
X105521151Y-102886831D01*
X105461000Y-102886483D01*
X105067057Y-102849857D01*
X105104662Y-102772549D01*
X105148334Y-102759980D01*
X105701624Y-102722795D01*
X105910334Y-102769392D01*
G36*
X112107333Y-119784666D02*
G01*
X112137732Y-120086105D01*
X112107333Y-120123333D01*
X111956330Y-120088466D01*
X111938000Y-119954000D01*
X112030934Y-119744929D01*
X112107333Y-119784666D01*
G37*
X112107333Y-119784666D02*
X112137732Y-120086105D01*
X112107333Y-120123333D01*
X111956330Y-120088466D01*
X111938000Y-119954000D01*
X112030934Y-119744929D01*
X112107333Y-119784666D01*
G36*
X112446000Y-120843000D02*
G01*
X112319000Y-120970000D01*
X112192000Y-120843000D01*
X112319000Y-120716000D01*
X112446000Y-120843000D01*
G37*
X112446000Y-120843000D02*
X112319000Y-120970000D01*
X112192000Y-120843000D01*
X112319000Y-120716000D01*
X112446000Y-120843000D01*
G36*
X116288471Y-127312576D02*
G01*
X116994899Y-127435849D01*
X118071419Y-127673007D01*
X118356992Y-127738505D01*
X120013115Y-128124235D01*
X121245764Y-128426313D01*
X122128097Y-128667949D01*
X122733274Y-128872348D01*
X123134454Y-129062719D01*
X123404797Y-129262270D01*
X123515807Y-129374991D01*
X123779243Y-129724966D01*
X123666246Y-129931183D01*
X123257986Y-130107541D01*
X122492592Y-130268785D01*
X121413866Y-130339284D01*
X120207595Y-130322868D01*
X119059569Y-130223366D01*
X118155573Y-130044609D01*
X118020112Y-129999575D01*
X116967472Y-129568371D01*
X116044370Y-129111845D01*
X115356181Y-128689464D01*
X115008279Y-128360693D01*
X114986000Y-128287337D01*
X115142715Y-127879491D01*
X115372492Y-127567930D01*
X115578993Y-127384431D01*
X115850411Y-127297375D01*
X116288471Y-127312576D01*
G37*
X116288471Y-127312576D02*
X116994899Y-127435849D01*
X118071419Y-127673007D01*
X118356992Y-127738505D01*
X120013115Y-128124235D01*
X121245764Y-128426313D01*
X122128097Y-128667949D01*
X122733274Y-128872348D01*
X123134454Y-129062719D01*
X123404797Y-129262270D01*
X123515807Y-129374991D01*
X123779243Y-129724966D01*
X123666246Y-129931183D01*
X123257986Y-130107541D01*
X122492592Y-130268785D01*
X121413866Y-130339284D01*
X120207595Y-130322868D01*
X119059569Y-130223366D01*
X118155573Y-130044609D01*
X118020112Y-129999575D01*
X116967472Y-129568371D01*
X116044370Y-129111845D01*
X115356181Y-128689464D01*
X115008279Y-128360693D01*
X114986000Y-128287337D01*
X115142715Y-127879491D01*
X115372492Y-127567930D01*
X115578993Y-127384431D01*
X115850411Y-127297375D01*
X116288471Y-127312576D01*
G36*
X106057810Y-104339094D02*
G01*
X106407876Y-104703908D01*
X106645684Y-105472290D01*
X106793168Y-106361674D01*
X107003297Y-107479656D01*
X107295105Y-108566252D01*
X107593305Y-109357856D01*
X107909556Y-110069970D01*
X108101416Y-110615443D01*
X108128000Y-110764114D01*
X108240751Y-111163486D01*
X108522392Y-111794034D01*
X108636000Y-112013659D01*
X108954896Y-112682083D01*
X109131511Y-113194924D01*
X109144000Y-113290710D01*
X109348417Y-113660646D01*
X109525000Y-113766146D01*
X109862837Y-114102114D01*
X109906000Y-114295091D01*
X110024524Y-114742145D01*
X110321796Y-115405694D01*
X110458612Y-115661074D01*
X110756658Y-116251052D01*
X110883184Y-116762782D01*
X110858302Y-117393420D01*
X110721246Y-118235657D01*
X110585111Y-119397062D01*
X110550838Y-120646848D01*
X110588414Y-121318947D01*
X110707269Y-122186171D01*
X110890243Y-122714015D01*
X111222325Y-123070671D01*
X111595780Y-123312536D01*
X112201925Y-123780076D01*
X112432027Y-124315111D01*
X112446000Y-124551089D01*
X112392071Y-125112733D01*
X112184211Y-125243131D01*
X111753308Y-124957014D01*
X111522794Y-124747865D01*
X110955366Y-124402590D01*
X110460202Y-124400475D01*
X110180568Y-124725627D01*
X110160000Y-124899028D01*
X110373907Y-125449519D01*
X110889747Y-125963972D01*
X111518694Y-126275124D01*
X111747500Y-126305261D01*
X112084770Y-126330356D01*
X112086550Y-126464088D01*
X111725443Y-126797414D01*
X111557000Y-126937718D01*
X110828726Y-127376306D01*
X110160000Y-127507957D01*
X109713262Y-127374638D01*
X109504358Y-126986841D01*
X109443390Y-126558000D01*
X109308709Y-125776657D01*
X109109481Y-125466920D01*
X108873963Y-125641300D01*
X108657763Y-126210047D01*
X108481821Y-126917422D01*
X108388078Y-127437798D01*
X108383416Y-127510500D01*
X108188269Y-127768983D01*
X107728121Y-127788883D01*
X107185850Y-127571338D01*
X107087533Y-127502421D01*
X106431440Y-126716040D01*
X105958857Y-125492927D01*
X105668404Y-123823971D01*
X105558704Y-121700059D01*
X105628378Y-119112080D01*
X105684996Y-118230662D01*
X105776650Y-116767729D01*
X105802477Y-115758822D01*
X105756339Y-115153488D01*
X105632097Y-114901272D01*
X105423615Y-114951719D01*
X105299396Y-115061003D01*
X105066964Y-115458432D01*
X104875221Y-116170449D01*
X104718501Y-117240648D01*
X104591136Y-118712623D01*
X104487459Y-120629969D01*
X104448647Y-121605000D01*
X104397920Y-123191318D01*
X104382843Y-124370571D01*
X104409444Y-125242829D01*
X104483749Y-125908163D01*
X104611787Y-126466642D01*
X104769923Y-126939000D01*
X105420692Y-128161414D01*
X106316709Y-128942546D01*
X107479856Y-129297371D01*
X108243352Y-129316133D01*
X109507258Y-129249050D01*
X109724174Y-130253025D01*
X109820448Y-131097445D01*
X109825779Y-132139658D01*
X109785172Y-132706536D01*
X109629255Y-134156072D01*
X110646508Y-134675036D01*
X111501526Y-135006362D01*
X112361081Y-135184315D01*
X112550488Y-135194000D01*
X114095180Y-135347427D01*
X115525282Y-135772780D01*
X116696193Y-136417666D01*
X117208500Y-136881718D01*
X117690517Y-137481211D01*
X117987898Y-137952031D01*
X118034000Y-138095314D01*
X117795655Y-138423117D01*
X117141540Y-138746666D01*
X116163032Y-139032304D01*
X114951508Y-139246374D01*
X114886688Y-139254566D01*
X113961869Y-139398408D01*
X113188370Y-139570001D01*
X112801653Y-139702924D01*
X112422028Y-139779624D01*
X111636512Y-139852782D01*
X110523038Y-139920816D01*
X109159541Y-139982146D01*
X107623954Y-140035192D01*
X105994211Y-140078373D01*
X104348248Y-140110109D01*
X102763997Y-140128818D01*
X101319394Y-140132920D01*
X100092372Y-140120835D01*
X99160865Y-140090982D01*
X98602808Y-140041780D01*
X98476000Y-139993464D01*
X98681523Y-139724640D01*
X99111000Y-139465783D01*
X99638750Y-139141223D01*
X99671543Y-138897508D01*
X99219922Y-138765126D01*
X98863522Y-138750000D01*
X98186515Y-138841504D01*
X97762441Y-139210148D01*
X97587000Y-139512000D01*
X97192305Y-140061368D01*
X96658692Y-140250961D01*
X96373977Y-140257899D01*
X95595874Y-140173330D01*
X94983500Y-140012084D01*
X94501572Y-139665376D01*
X94503291Y-139234361D01*
X94979011Y-138756087D01*
X95371614Y-138521280D01*
X95772104Y-138175646D01*
X95701730Y-137883305D01*
X95196051Y-137737505D01*
X95071376Y-137734000D01*
X94376148Y-137959476D01*
X93847774Y-138521826D01*
X93650000Y-139214500D01*
X93536438Y-139625256D01*
X93104288Y-139757867D01*
X92951500Y-139760352D01*
X92223174Y-139598762D01*
X91651339Y-139292009D01*
X91248410Y-138894315D01*
X91232986Y-138516070D01*
X91328893Y-138307597D01*
X91764363Y-137730331D01*
X92455932Y-137046882D01*
X93258509Y-136377619D01*
X94027006Y-135842910D01*
X94616331Y-135563124D01*
X94644833Y-135556658D01*
X95346171Y-135390682D01*
X96164365Y-135167977D01*
X96224702Y-135150293D01*
X97143357Y-134992259D01*
X98085745Y-134987263D01*
X98111959Y-134990187D01*
X99038343Y-134977976D01*
X99951719Y-134793575D01*
X99982257Y-134783057D01*
X100762910Y-134621455D01*
X101763550Y-134567186D01*
X102836733Y-134608823D01*
X103835011Y-134734943D01*
X104610939Y-134934118D01*
X105001623Y-135172010D01*
X105352420Y-135434961D01*
X105763623Y-135294099D01*
X105988961Y-135074114D01*
X106137503Y-134676675D01*
X106229916Y-133999108D01*
X106286867Y-132938741D01*
X106296619Y-132646153D01*
X106314083Y-131564542D01*
X106299142Y-130651833D01*
X106255360Y-130044259D01*
X106224792Y-129900080D01*
X106011684Y-129650476D01*
X105767892Y-129860129D01*
X105517450Y-130483253D01*
X105284391Y-131474060D01*
X105227258Y-131800539D01*
X105054869Y-132724635D01*
X104876708Y-133266136D01*
X104632339Y-133547498D01*
X104299040Y-133681346D01*
X103688337Y-133733324D01*
X102815827Y-133680724D01*
X102209995Y-133593517D01*
X100949564Y-133459343D01*
X99930633Y-133582584D01*
X99813050Y-133615396D01*
X99108527Y-133762279D01*
X98087264Y-133900796D01*
X96940258Y-134006282D01*
X96634363Y-134025868D01*
X95458035Y-134117214D01*
X94588364Y-134267570D01*
X93824023Y-134531642D01*
X92963686Y-134964134D01*
X92754328Y-135080160D01*
X91331000Y-136020966D01*
X90367647Y-137012847D01*
X89816254Y-138110607D01*
X89706122Y-138559500D01*
X89539848Y-139189624D01*
X89267849Y-139458475D01*
X88804668Y-139512000D01*
X88106975Y-139328831D01*
X87816936Y-139020698D01*
X87583274Y-138413773D01*
X87727911Y-137997107D01*
X88306989Y-137611666D01*
X88316000Y-137607000D01*
X88906829Y-137213779D01*
X89038190Y-136910924D01*
X88706937Y-136742278D01*
X88379500Y-136721889D01*
X87600523Y-136833400D01*
X87140771Y-137223738D01*
X86898291Y-137992855D01*
X86866296Y-138205393D01*
X86677423Y-138960135D01*
X86366563Y-139226043D01*
X85914137Y-139011852D01*
X85648055Y-138748956D01*
X85368085Y-138357839D01*
X85327452Y-137937739D01*
X85506737Y-137272286D01*
X85513640Y-137251330D01*
X85961749Y-136454579D01*
X86695987Y-135683746D01*
X87561732Y-135063586D01*
X88404363Y-134718852D01*
X88693146Y-134686000D01*
X89280215Y-134545656D01*
X90015529Y-134193670D01*
X90273220Y-134031797D01*
X91010573Y-133610829D01*
X91672168Y-133481807D01*
X92295454Y-133536204D01*
X93402955Y-133549924D01*
X94748290Y-133328086D01*
X94962454Y-133274593D01*
X96068660Y-133051606D01*
X97307526Y-132946520D01*
X98841612Y-132947699D01*
X99304529Y-132963801D01*
X100506641Y-133007204D01*
X101284872Y-133013633D01*
X101722750Y-132970588D01*
X101903805Y-132865567D01*
X101911563Y-132686069D01*
X101880945Y-132578209D01*
X101674900Y-131688797D01*
X101725342Y-130948537D01*
X101840257Y-130558500D01*
X102126832Y-130071331D01*
X102609974Y-129872392D01*
X103386148Y-129942218D01*
X104055433Y-130111543D01*
X104837238Y-130241064D01*
X105205925Y-130085002D01*
X105143470Y-129671626D01*
X104700604Y-129099674D01*
X103900239Y-128493402D01*
X103180843Y-128336000D01*
X102255168Y-128239904D01*
X101096938Y-127990786D01*
X99924532Y-127647397D01*
X98956326Y-127268491D01*
X98686299Y-127126781D01*
X97791332Y-126323566D01*
X97064689Y-125121294D01*
X96523148Y-123605776D01*
X96183484Y-121862825D01*
X96062475Y-119978250D01*
X96176896Y-118037863D01*
X96539125Y-116144000D01*
X97101303Y-114270041D01*
X97739692Y-112712635D01*
X98549597Y-111288323D01*
X99626324Y-109813643D01*
X100178741Y-109137874D01*
X100892130Y-108174483D01*
X101572834Y-107075792D01*
X101918272Y-106407374D01*
X102330909Y-105586141D01*
X102672805Y-105144189D01*
X103035118Y-104979290D01*
X103201778Y-104968000D01*
X103854022Y-104869385D01*
X104636967Y-104627531D01*
X104748067Y-104582867D01*
X105527276Y-104318523D01*
X106057810Y-104339094D01*
G37*
X106057810Y-104339094D02*
X106407876Y-104703908D01*
X106645684Y-105472290D01*
X106793168Y-106361674D01*
X107003297Y-107479656D01*
X107295105Y-108566252D01*
X107593305Y-109357856D01*
X107909556Y-110069970D01*
X108101416Y-110615443D01*
X108128000Y-110764114D01*
X108240751Y-111163486D01*
X108522392Y-111794034D01*
X108636000Y-112013659D01*
X108954896Y-112682083D01*
X109131511Y-113194924D01*
X109144000Y-113290710D01*
X109348417Y-113660646D01*
X109525000Y-113766146D01*
X109862837Y-114102114D01*
X109906000Y-114295091D01*
X110024524Y-114742145D01*
X110321796Y-115405694D01*
X110458612Y-115661074D01*
X110756658Y-116251052D01*
X110883184Y-116762782D01*
X110858302Y-117393420D01*
X110721246Y-118235657D01*
X110585111Y-119397062D01*
X110550838Y-120646848D01*
X110588414Y-121318947D01*
X110707269Y-122186171D01*
X110890243Y-122714015D01*
X111222325Y-123070671D01*
X111595780Y-123312536D01*
X112201925Y-123780076D01*
X112432027Y-124315111D01*
X112446000Y-124551089D01*
X112392071Y-125112733D01*
X112184211Y-125243131D01*
X111753308Y-124957014D01*
X111522794Y-124747865D01*
X110955366Y-124402590D01*
X110460202Y-124400475D01*
X110180568Y-124725627D01*
X110160000Y-124899028D01*
X110373907Y-125449519D01*
X110889747Y-125963972D01*
X111518694Y-126275124D01*
X111747500Y-126305261D01*
X112084770Y-126330356D01*
X112086550Y-126464088D01*
X111725443Y-126797414D01*
X111557000Y-126937718D01*
X110828726Y-127376306D01*
X110160000Y-127507957D01*
X109713262Y-127374638D01*
X109504358Y-126986841D01*
X109443390Y-126558000D01*
X109308709Y-125776657D01*
X109109481Y-125466920D01*
X108873963Y-125641300D01*
X108657763Y-126210047D01*
X108481821Y-126917422D01*
X108388078Y-127437798D01*
X108383416Y-127510500D01*
X108188269Y-127768983D01*
X107728121Y-127788883D01*
X107185850Y-127571338D01*
X107087533Y-127502421D01*
X106431440Y-126716040D01*
X105958857Y-125492927D01*
X105668404Y-123823971D01*
X105558704Y-121700059D01*
X105628378Y-119112080D01*
X105684996Y-118230662D01*
X105776650Y-116767729D01*
X105802477Y-115758822D01*
X105756339Y-115153488D01*
X105632097Y-114901272D01*
X105423615Y-114951719D01*
X105299396Y-115061003D01*
X105066964Y-115458432D01*
X104875221Y-116170449D01*
X104718501Y-117240648D01*
X104591136Y-118712623D01*
X104487459Y-120629969D01*
X104448647Y-121605000D01*
X104397920Y-123191318D01*
X104382843Y-124370571D01*
X104409444Y-125242829D01*
X104483749Y-125908163D01*
X104611787Y-126466642D01*
X104769923Y-126939000D01*
X105420692Y-128161414D01*
X106316709Y-128942546D01*
X107479856Y-129297371D01*
X108243352Y-129316133D01*
X109507258Y-129249050D01*
X109724174Y-130253025D01*
X109820448Y-131097445D01*
X109825779Y-132139658D01*
X109785172Y-132706536D01*
X109629255Y-134156072D01*
X110646508Y-134675036D01*
X111501526Y-135006362D01*
X112361081Y-135184315D01*
X112550488Y-135194000D01*
X114095180Y-135347427D01*
X115525282Y-135772780D01*
X116696193Y-136417666D01*
X117208500Y-136881718D01*
X117690517Y-137481211D01*
X117987898Y-137952031D01*
X118034000Y-138095314D01*
X117795655Y-138423117D01*
X117141540Y-138746666D01*
X116163032Y-139032304D01*
X114951508Y-139246374D01*
X114886688Y-139254566D01*
X113961869Y-139398408D01*
X113188370Y-139570001D01*
X112801653Y-139702924D01*
X112422028Y-139779624D01*
X111636512Y-139852782D01*
X110523038Y-139920816D01*
X109159541Y-139982146D01*
X107623954Y-140035192D01*
X105994211Y-140078373D01*
X104348248Y-140110109D01*
X102763997Y-140128818D01*
X101319394Y-140132920D01*
X100092372Y-140120835D01*
X99160865Y-140090982D01*
X98602808Y-140041780D01*
X98476000Y-139993464D01*
X98681523Y-139724640D01*
X99111000Y-139465783D01*
X99638750Y-139141223D01*
X99671543Y-138897508D01*
X99219922Y-138765126D01*
X98863522Y-138750000D01*
X98186515Y-138841504D01*
X97762441Y-139210148D01*
X97587000Y-139512000D01*
X97192305Y-140061368D01*
X96658692Y-140250961D01*
X96373977Y-140257899D01*
X95595874Y-140173330D01*
X94983500Y-140012084D01*
X94501572Y-139665376D01*
X94503291Y-139234361D01*
X94979011Y-138756087D01*
X95371614Y-138521280D01*
X95772104Y-138175646D01*
X95701730Y-137883305D01*
X95196051Y-137737505D01*
X95071376Y-137734000D01*
X94376148Y-137959476D01*
X93847774Y-138521826D01*
X93650000Y-139214500D01*
X93536438Y-139625256D01*
X93104288Y-139757867D01*
X92951500Y-139760352D01*
X92223174Y-139598762D01*
X91651339Y-139292009D01*
X91248410Y-138894315D01*
X91232986Y-138516070D01*
X91328893Y-138307597D01*
X91764363Y-137730331D01*
X92455932Y-137046882D01*
X93258509Y-136377619D01*
X94027006Y-135842910D01*
X94616331Y-135563124D01*
X94644833Y-135556658D01*
X95346171Y-135390682D01*
X96164365Y-135167977D01*
X96224702Y-135150293D01*
X97143357Y-134992259D01*
X98085745Y-134987263D01*
X98111959Y-134990187D01*
X99038343Y-134977976D01*
X99951719Y-134793575D01*
X99982257Y-134783057D01*
X100762910Y-134621455D01*
X101763550Y-134567186D01*
X102836733Y-134608823D01*
X103835011Y-134734943D01*
X104610939Y-134934118D01*
X105001623Y-135172010D01*
X105352420Y-135434961D01*
X105763623Y-135294099D01*
X105988961Y-135074114D01*
X106137503Y-134676675D01*
X106229916Y-133999108D01*
X106286867Y-132938741D01*
X106296619Y-132646153D01*
X106314083Y-131564542D01*
X106299142Y-130651833D01*
X106255360Y-130044259D01*
X106224792Y-129900080D01*
X106011684Y-129650476D01*
X105767892Y-129860129D01*
X105517450Y-130483253D01*
X105284391Y-131474060D01*
X105227258Y-131800539D01*
X105054869Y-132724635D01*
X104876708Y-133266136D01*
X104632339Y-133547498D01*
X104299040Y-133681346D01*
X103688337Y-133733324D01*
X102815827Y-133680724D01*
X102209995Y-133593517D01*
X100949564Y-133459343D01*
X99930633Y-133582584D01*
X99813050Y-133615396D01*
X99108527Y-133762279D01*
X98087264Y-133900796D01*
X96940258Y-134006282D01*
X96634363Y-134025868D01*
X95458035Y-134117214D01*
X94588364Y-134267570D01*
X93824023Y-134531642D01*
X92963686Y-134964134D01*
X92754328Y-135080160D01*
X91331000Y-136020966D01*
X90367647Y-137012847D01*
X89816254Y-138110607D01*
X89706122Y-138559500D01*
X89539848Y-139189624D01*
X89267849Y-139458475D01*
X88804668Y-139512000D01*
X88106975Y-139328831D01*
X87816936Y-139020698D01*
X87583274Y-138413773D01*
X87727911Y-137997107D01*
X88306989Y-137611666D01*
X88316000Y-137607000D01*
X88906829Y-137213779D01*
X89038190Y-136910924D01*
X88706937Y-136742278D01*
X88379500Y-136721889D01*
X87600523Y-136833400D01*
X87140771Y-137223738D01*
X86898291Y-137992855D01*
X86866296Y-138205393D01*
X86677423Y-138960135D01*
X86366563Y-139226043D01*
X85914137Y-139011852D01*
X85648055Y-138748956D01*
X85368085Y-138357839D01*
X85327452Y-137937739D01*
X85506737Y-137272286D01*
X85513640Y-137251330D01*
X85961749Y-136454579D01*
X86695987Y-135683746D01*
X87561732Y-135063586D01*
X88404363Y-134718852D01*
X88693146Y-134686000D01*
X89280215Y-134545656D01*
X90015529Y-134193670D01*
X90273220Y-134031797D01*
X91010573Y-133610829D01*
X91672168Y-133481807D01*
X92295454Y-133536204D01*
X93402955Y-133549924D01*
X94748290Y-133328086D01*
X94962454Y-133274593D01*
X96068660Y-133051606D01*
X97307526Y-132946520D01*
X98841612Y-132947699D01*
X99304529Y-132963801D01*
X100506641Y-133007204D01*
X101284872Y-133013633D01*
X101722750Y-132970588D01*
X101903805Y-132865567D01*
X101911563Y-132686069D01*
X101880945Y-132578209D01*
X101674900Y-131688797D01*
X101725342Y-130948537D01*
X101840257Y-130558500D01*
X102126832Y-130071331D01*
X102609974Y-129872392D01*
X103386148Y-129942218D01*
X104055433Y-130111543D01*
X104837238Y-130241064D01*
X105205925Y-130085002D01*
X105143470Y-129671626D01*
X104700604Y-129099674D01*
X103900239Y-128493402D01*
X103180843Y-128336000D01*
X102255168Y-128239904D01*
X101096938Y-127990786D01*
X99924532Y-127647397D01*
X98956326Y-127268491D01*
X98686299Y-127126781D01*
X97791332Y-126323566D01*
X97064689Y-125121294D01*
X96523148Y-123605776D01*
X96183484Y-121862825D01*
X96062475Y-119978250D01*
X96176896Y-118037863D01*
X96539125Y-116144000D01*
X97101303Y-114270041D01*
X97739692Y-112712635D01*
X98549597Y-111288323D01*
X99626324Y-109813643D01*
X100178741Y-109137874D01*
X100892130Y-108174483D01*
X101572834Y-107075792D01*
X101918272Y-106407374D01*
X102330909Y-105586141D01*
X102672805Y-105144189D01*
X103035118Y-104979290D01*
X103201778Y-104968000D01*
X103854022Y-104869385D01*
X104636967Y-104627531D01*
X104748067Y-104582867D01*
X105527276Y-104318523D01*
X106057810Y-104339094D01*
G36*
X118861448Y-136767364D02*
G01*
X119278900Y-136958567D01*
X119727057Y-137080590D01*
X120536997Y-137199582D01*
X121562775Y-137295930D01*
X121992702Y-137323291D01*
X123229314Y-137400897D01*
X124468680Y-137494825D01*
X125481399Y-137587356D01*
X125654000Y-137606106D01*
X126410298Y-137677459D01*
X127541802Y-137765992D01*
X128916417Y-137862174D01*
X130402051Y-137956473D01*
X130988000Y-137990968D01*
X133078283Y-138134942D01*
X135015355Y-138314140D01*
X136732747Y-138519157D01*
X138163989Y-138740588D01*
X139242614Y-138969031D01*
X139902151Y-139195081D01*
X140017650Y-139268499D01*
X140234359Y-139664318D01*
X140032185Y-140050890D01*
X139496681Y-140358914D01*
X138713403Y-140519085D01*
X138462799Y-140528000D01*
X137778804Y-140584015D01*
X137350288Y-140724654D01*
X137292502Y-140791491D01*
X137014927Y-140909963D01*
X136317538Y-141027792D01*
X135288407Y-141133410D01*
X134096336Y-141211268D01*
X132634091Y-141304650D01*
X131649901Y-141415665D01*
X131113991Y-141548731D01*
X130988000Y-141672506D01*
X131009896Y-141770397D01*
X131112569Y-141853734D01*
X131351492Y-141929547D01*
X131782141Y-142004864D01*
X132459990Y-142086715D01*
X133440515Y-142182131D01*
X134779189Y-142298141D01*
X136531488Y-142441775D01*
X137973000Y-142557640D01*
X139293736Y-142668506D01*
X140499768Y-142778954D01*
X141463831Y-142876724D01*
X142058660Y-142949556D01*
X142086184Y-142953890D01*
X142801045Y-143250529D01*
X143110682Y-143848130D01*
X143038707Y-144685517D01*
X142853484Y-145101410D01*
X142466432Y-145337067D01*
X141726940Y-145482268D01*
X141694946Y-145486535D01*
X140849932Y-145640258D01*
X140136882Y-145839936D01*
X139958189Y-145913405D01*
X139301387Y-146074884D01*
X138878689Y-146046768D01*
X138464873Y-146027647D01*
X138354000Y-146139779D01*
X138128605Y-146283960D01*
X137565560Y-146364139D01*
X137338000Y-146370000D01*
X136701733Y-146423158D01*
X136347881Y-146555952D01*
X136322000Y-146609644D01*
X136091716Y-146734181D01*
X135494464Y-146812651D01*
X134837428Y-146828239D01*
X133740784Y-146869508D01*
X132472644Y-147002769D01*
X131200838Y-147201583D01*
X130093191Y-147439511D01*
X129317532Y-147690115D01*
X129291824Y-147701873D01*
X128589247Y-147863522D01*
X128135377Y-147844904D01*
X127555535Y-147870072D01*
X127247735Y-148033998D01*
X126769599Y-148305921D01*
X126040096Y-148489417D01*
X125249485Y-148564312D01*
X124588021Y-148510433D01*
X124270459Y-148349687D01*
X124096733Y-148224161D01*
X123755450Y-148144142D01*
X123177663Y-148108024D01*
X122294426Y-148114202D01*
X121036792Y-148161072D01*
X119494500Y-148238502D01*
X118045352Y-148327517D01*
X116789594Y-148426554D01*
X115807827Y-148527453D01*
X115180657Y-148622055D01*
X114986000Y-148694882D01*
X114755754Y-148810382D01*
X114159484Y-148888276D01*
X113525500Y-148909530D01*
X112749351Y-148962500D01*
X111799317Y-149135492D01*
X110592185Y-149448938D01*
X109044741Y-149923268D01*
X108001000Y-150265951D01*
X105773397Y-151005106D01*
X103958038Y-151591511D01*
X102487218Y-152038895D01*
X101293235Y-152360988D01*
X100308386Y-152571522D01*
X99464966Y-152684226D01*
X98695275Y-152712830D01*
X97931607Y-152671065D01*
X97106261Y-152572661D01*
X96825000Y-152532467D01*
X96195578Y-152393327D01*
X95809000Y-152232155D01*
X95439187Y-152079576D01*
X94737772Y-151875708D01*
X94031000Y-151704690D01*
X93153003Y-151474001D01*
X92444570Y-151224318D01*
X92126000Y-151054998D01*
X91699351Y-150880714D01*
X90897962Y-150690490D01*
X89853783Y-150504840D01*
X88698763Y-150344275D01*
X87564853Y-150229311D01*
X86584004Y-150180459D01*
X86497612Y-150180000D01*
X85876344Y-150131368D01*
X85541047Y-150010451D01*
X85522000Y-149968980D01*
X85292854Y-149850612D01*
X84704279Y-149772850D01*
X84188500Y-149755306D01*
X83197137Y-149744748D01*
X81859361Y-149717855D01*
X80242972Y-149677053D01*
X78415772Y-149624764D01*
X76445559Y-149563413D01*
X74400136Y-149495424D01*
X72347302Y-149423219D01*
X70354858Y-149349224D01*
X68490605Y-149275862D01*
X66822343Y-149205556D01*
X65417872Y-149140731D01*
X64344994Y-149083810D01*
X63671508Y-149037217D01*
X63487500Y-149015262D01*
X62927794Y-148853428D01*
X62664853Y-148684047D01*
X62662000Y-148668662D01*
X62471643Y-148440651D01*
X61973081Y-148015370D01*
X61288903Y-147495737D01*
X60446429Y-146807492D01*
X60033831Y-146224775D01*
X60016765Y-145646804D01*
X60360889Y-144972793D01*
X60406613Y-144906531D01*
X61042080Y-144308896D01*
X62052500Y-143709805D01*
X63308209Y-143166320D01*
X64679541Y-142735500D01*
X65890577Y-142493282D01*
X66838621Y-142344332D01*
X67574727Y-142194199D01*
X67967821Y-142070563D01*
X67996000Y-142048692D01*
X68270079Y-141977976D01*
X68945411Y-141877236D01*
X69916898Y-141757357D01*
X71079442Y-141629224D01*
X72327946Y-141503721D01*
X73557312Y-141391733D01*
X74662443Y-141304144D01*
X75538241Y-141251839D01*
X75765654Y-141244014D01*
X76154416Y-141124519D01*
X76195207Y-140705883D01*
X76184834Y-140648032D01*
X76305967Y-140045814D01*
X76888984Y-139549438D01*
X77893412Y-139189272D01*
X78219500Y-139121522D01*
X78830415Y-138950058D01*
X79155656Y-138742179D01*
X79172000Y-138692107D01*
X79373323Y-138540596D01*
X79673902Y-138568001D01*
X80246533Y-138593081D01*
X81004521Y-138484767D01*
X81134402Y-138453738D01*
X82342395Y-138146846D01*
X83149191Y-137971788D01*
X83647359Y-137940985D01*
X83929468Y-138066857D01*
X84088085Y-138361822D01*
X84215780Y-138838302D01*
X84223281Y-138868176D01*
X84456696Y-139623858D01*
X84771542Y-140156970D01*
X85255706Y-140511491D01*
X85997079Y-140731398D01*
X87083548Y-140860672D01*
X88348376Y-140932335D01*
X89663915Y-141018259D01*
X90934557Y-141149225D01*
X91990073Y-141305262D01*
X92521271Y-141421919D01*
X93076403Y-141557944D01*
X93708507Y-141666003D01*
X94470643Y-141747471D01*
X95415874Y-141803725D01*
X96597260Y-141836142D01*
X98067865Y-141846099D01*
X99880748Y-141834971D01*
X102088973Y-141804137D01*
X104745600Y-141754972D01*
X105090953Y-141748029D01*
X107218151Y-141702816D01*
X108900337Y-141659653D01*
X110200448Y-141613326D01*
X111181422Y-141558624D01*
X111906195Y-141490334D01*
X112437703Y-141403243D01*
X112838884Y-141292140D01*
X113172673Y-141151811D01*
X113342192Y-141064656D01*
X114232896Y-140715054D01*
X115174544Y-140526697D01*
X115363238Y-140516938D01*
X116653268Y-140427865D01*
X117777196Y-140210178D01*
X118612702Y-139894814D01*
X118985618Y-139600746D01*
X119180170Y-138997956D01*
X119162566Y-138184760D01*
X118955580Y-137401160D01*
X118742169Y-137035500D01*
X118608545Y-136761400D01*
X118861448Y-136767364D01*
G37*
X118861448Y-136767364D02*
X119278900Y-136958567D01*
X119727057Y-137080590D01*
X120536997Y-137199582D01*
X121562775Y-137295930D01*
X121992702Y-137323291D01*
X123229314Y-137400897D01*
X124468680Y-137494825D01*
X125481399Y-137587356D01*
X125654000Y-137606106D01*
X126410298Y-137677459D01*
X127541802Y-137765992D01*
X128916417Y-137862174D01*
X130402051Y-137956473D01*
X130988000Y-137990968D01*
X133078283Y-138134942D01*
X135015355Y-138314140D01*
X136732747Y-138519157D01*
X138163989Y-138740588D01*
X139242614Y-138969031D01*
X139902151Y-139195081D01*
X140017650Y-139268499D01*
X140234359Y-139664318D01*
X140032185Y-140050890D01*
X139496681Y-140358914D01*
X138713403Y-140519085D01*
X138462799Y-140528000D01*
X137778804Y-140584015D01*
X137350288Y-140724654D01*
X137292502Y-140791491D01*
X137014927Y-140909963D01*
X136317538Y-141027792D01*
X135288407Y-141133410D01*
X134096336Y-141211268D01*
X132634091Y-141304650D01*
X131649901Y-141415665D01*
X131113991Y-141548731D01*
X130988000Y-141672506D01*
X131009896Y-141770397D01*
X131112569Y-141853734D01*
X131351492Y-141929547D01*
X131782141Y-142004864D01*
X132459990Y-142086715D01*
X133440515Y-142182131D01*
X134779189Y-142298141D01*
X136531488Y-142441775D01*
X137973000Y-142557640D01*
X139293736Y-142668506D01*
X140499768Y-142778954D01*
X141463831Y-142876724D01*
X142058660Y-142949556D01*
X142086184Y-142953890D01*
X142801045Y-143250529D01*
X143110682Y-143848130D01*
X143038707Y-144685517D01*
X142853484Y-145101410D01*
X142466432Y-145337067D01*
X141726940Y-145482268D01*
X141694946Y-145486535D01*
X140849932Y-145640258D01*
X140136882Y-145839936D01*
X139958189Y-145913405D01*
X139301387Y-146074884D01*
X138878689Y-146046768D01*
X138464873Y-146027647D01*
X138354000Y-146139779D01*
X138128605Y-146283960D01*
X137565560Y-146364139D01*
X137338000Y-146370000D01*
X136701733Y-146423158D01*
X136347881Y-146555952D01*
X136322000Y-146609644D01*
X136091716Y-146734181D01*
X135494464Y-146812651D01*
X134837428Y-146828239D01*
X133740784Y-146869508D01*
X132472644Y-147002769D01*
X131200838Y-147201583D01*
X130093191Y-147439511D01*
X129317532Y-147690115D01*
X129291824Y-147701873D01*
X128589247Y-147863522D01*
X128135377Y-147844904D01*
X127555535Y-147870072D01*
X127247735Y-148033998D01*
X126769599Y-148305921D01*
X126040096Y-148489417D01*
X125249485Y-148564312D01*
X124588021Y-148510433D01*
X124270459Y-148349687D01*
X124096733Y-148224161D01*
X123755450Y-148144142D01*
X123177663Y-148108024D01*
X122294426Y-148114202D01*
X121036792Y-148161072D01*
X119494500Y-148238502D01*
X118045352Y-148327517D01*
X116789594Y-148426554D01*
X115807827Y-148527453D01*
X115180657Y-148622055D01*
X114986000Y-148694882D01*
X114755754Y-148810382D01*
X114159484Y-148888276D01*
X113525500Y-148909530D01*
X112749351Y-148962500D01*
X111799317Y-149135492D01*
X110592185Y-149448938D01*
X109044741Y-149923268D01*
X108001000Y-150265951D01*
X105773397Y-151005106D01*
X103958038Y-151591511D01*
X102487218Y-152038895D01*
X101293235Y-152360988D01*
X100308386Y-152571522D01*
X99464966Y-152684226D01*
X98695275Y-152712830D01*
X97931607Y-152671065D01*
X97106261Y-152572661D01*
X96825000Y-152532467D01*
X96195578Y-152393327D01*
X95809000Y-152232155D01*
X95439187Y-152079576D01*
X94737772Y-151875708D01*
X94031000Y-151704690D01*
X93153003Y-151474001D01*
X92444570Y-151224318D01*
X92126000Y-151054998D01*
X91699351Y-150880714D01*
X90897962Y-150690490D01*
X89853783Y-150504840D01*
X88698763Y-150344275D01*
X87564853Y-150229311D01*
X86584004Y-150180459D01*
X86497612Y-150180000D01*
X85876344Y-150131368D01*
X85541047Y-150010451D01*
X85522000Y-149968980D01*
X85292854Y-149850612D01*
X84704279Y-149772850D01*
X84188500Y-149755306D01*
X83197137Y-149744748D01*
X81859361Y-149717855D01*
X80242972Y-149677053D01*
X78415772Y-149624764D01*
X76445559Y-149563413D01*
X74400136Y-149495424D01*
X72347302Y-149423219D01*
X70354858Y-149349224D01*
X68490605Y-149275862D01*
X66822343Y-149205556D01*
X65417872Y-149140731D01*
X64344994Y-149083810D01*
X63671508Y-149037217D01*
X63487500Y-149015262D01*
X62927794Y-148853428D01*
X62664853Y-148684047D01*
X62662000Y-148668662D01*
X62471643Y-148440651D01*
X61973081Y-148015370D01*
X61288903Y-147495737D01*
X60446429Y-146807492D01*
X60033831Y-146224775D01*
X60016765Y-145646804D01*
X60360889Y-144972793D01*
X60406613Y-144906531D01*
X61042080Y-144308896D01*
X62052500Y-143709805D01*
X63308209Y-143166320D01*
X64679541Y-142735500D01*
X65890577Y-142493282D01*
X66838621Y-142344332D01*
X67574727Y-142194199D01*
X67967821Y-142070563D01*
X67996000Y-142048692D01*
X68270079Y-141977976D01*
X68945411Y-141877236D01*
X69916898Y-141757357D01*
X71079442Y-141629224D01*
X72327946Y-141503721D01*
X73557312Y-141391733D01*
X74662443Y-141304144D01*
X75538241Y-141251839D01*
X75765654Y-141244014D01*
X76154416Y-141124519D01*
X76195207Y-140705883D01*
X76184834Y-140648032D01*
X76305967Y-140045814D01*
X76888984Y-139549438D01*
X77893412Y-139189272D01*
X78219500Y-139121522D01*
X78830415Y-138950058D01*
X79155656Y-138742179D01*
X79172000Y-138692107D01*
X79373323Y-138540596D01*
X79673902Y-138568001D01*
X80246533Y-138593081D01*
X81004521Y-138484767D01*
X81134402Y-138453738D01*
X82342395Y-138146846D01*
X83149191Y-137971788D01*
X83647359Y-137940985D01*
X83929468Y-138066857D01*
X84088085Y-138361822D01*
X84215780Y-138838302D01*
X84223281Y-138868176D01*
X84456696Y-139623858D01*
X84771542Y-140156970D01*
X85255706Y-140511491D01*
X85997079Y-140731398D01*
X87083548Y-140860672D01*
X88348376Y-140932335D01*
X89663915Y-141018259D01*
X90934557Y-141149225D01*
X91990073Y-141305262D01*
X92521271Y-141421919D01*
X93076403Y-141557944D01*
X93708507Y-141666003D01*
X94470643Y-141747471D01*
X95415874Y-141803725D01*
X96597260Y-141836142D01*
X98067865Y-141846099D01*
X99880748Y-141834971D01*
X102088973Y-141804137D01*
X104745600Y-141754972D01*
X105090953Y-141748029D01*
X107218151Y-141702816D01*
X108900337Y-141659653D01*
X110200448Y-141613326D01*
X111181422Y-141558624D01*
X111906195Y-141490334D01*
X112437703Y-141403243D01*
X112838884Y-141292140D01*
X113172673Y-141151811D01*
X113342192Y-141064656D01*
X114232896Y-140715054D01*
X115174544Y-140526697D01*
X115363238Y-140516938D01*
X116653268Y-140427865D01*
X117777196Y-140210178D01*
X118612702Y-139894814D01*
X118985618Y-139600746D01*
X119180170Y-138997956D01*
X119162566Y-138184760D01*
X118955580Y-137401160D01*
X118742169Y-137035500D01*
X118608545Y-136761400D01*
X118861448Y-136767364D01*
%TD*%
%TO.C,R4*%
G36*
G01*
X95787625Y-96243673D02*
X95543673Y-96487625D01*
G75*
G02*
X95335077Y-96487625I-104298J104298D01*
G01*
X95126481Y-96279029D01*
G75*
G02*
X95126481Y-96070433I104298J104298D01*
G01*
X95370433Y-95826481D01*
G75*
G02*
X95579029Y-95826481I104298J-104298D01*
G01*
X95787625Y-96035077D01*
G75*
G02*
X95787625Y-96243673I-104298J-104298D01*
G01*
G37*
G36*
G01*
X96473519Y-96929567D02*
X96229567Y-97173519D01*
G75*
G02*
X96020971Y-97173519I-104298J104298D01*
G01*
X95812375Y-96964923D01*
G75*
G02*
X95812375Y-96756327I104298J104298D01*
G01*
X96056327Y-96512375D01*
G75*
G02*
X96264923Y-96512375I104298J-104298D01*
G01*
X96473519Y-96720971D01*
G75*
G02*
X96473519Y-96929567I-104298J-104298D01*
G01*
G37*
%TD*%
D11*
%TO.C,D16*%
X95250000Y-66500000D03*
X97150000Y-66500000D03*
%TD*%
D12*
%TO.C,D15*%
G36*
X81021142Y-69871751D02*
G01*
X81728249Y-69164644D01*
X82435356Y-69871751D01*
X81728249Y-70578858D01*
X81021142Y-69871751D01*
G37*
G36*
X82364644Y-68528249D02*
G01*
X83071751Y-67821142D01*
X83778858Y-68528249D01*
X83071751Y-69235356D01*
X82364644Y-68528249D01*
G37*
%TD*%
%TO.C,D14*%
G36*
X89071183Y-96158250D02*
G01*
X88105258Y-95899431D01*
X88364077Y-94933506D01*
X89330002Y-95192325D01*
X89071183Y-96158250D01*
G37*
G36*
X87235923Y-95666494D02*
G01*
X86269998Y-95407675D01*
X86528817Y-94441750D01*
X87494742Y-94700569D01*
X87235923Y-95666494D01*
G37*
%TD*%
D11*
%TO.C,D13*%
X75100000Y-83150000D03*
X75100000Y-81250000D03*
%TD*%
%TO.C,R3*%
G36*
G01*
X122610000Y-89827500D02*
X122610000Y-90172500D01*
G75*
G02*
X122462500Y-90320000I-147500J0D01*
G01*
X122167500Y-90320000D01*
G75*
G02*
X122020000Y-90172500I0J147500D01*
G01*
X122020000Y-89827500D01*
G75*
G02*
X122167500Y-89680000I147500J0D01*
G01*
X122462500Y-89680000D01*
G75*
G02*
X122610000Y-89827500I0J-147500D01*
G01*
G37*
G36*
G01*
X123580000Y-89827500D02*
X123580000Y-90172500D01*
G75*
G02*
X123432500Y-90320000I-147500J0D01*
G01*
X123137500Y-90320000D01*
G75*
G02*
X122990000Y-90172500I0J147500D01*
G01*
X122990000Y-89827500D01*
G75*
G02*
X123137500Y-89680000I147500J0D01*
G01*
X123432500Y-89680000D01*
G75*
G02*
X123580000Y-89827500I0J-147500D01*
G01*
G37*
%TD*%
%TO.C,D12*%
X121000000Y-90050000D03*
X121000000Y-91950000D03*
%TD*%
%TO.C,D11*%
X112550000Y-58200000D03*
X114450000Y-58200000D03*
%TD*%
D12*
%TO.C,D10*%
G36*
X126378858Y-75628249D02*
G01*
X125671751Y-76335356D01*
X124964644Y-75628249D01*
X125671751Y-74921142D01*
X126378858Y-75628249D01*
G37*
G36*
X125035356Y-76971751D02*
G01*
X124328249Y-77678858D01*
X123621142Y-76971751D01*
X124328249Y-76264644D01*
X125035356Y-76971751D01*
G37*
%TD*%
D11*
%TO.C,D9*%
X124800000Y-81850000D03*
X124800000Y-83750000D03*
%TD*%
%TO.C,R2*%
G36*
G01*
X113672500Y-122310000D02*
X113327500Y-122310000D01*
G75*
G02*
X113180000Y-122162500I0J147500D01*
G01*
X113180000Y-121867500D01*
G75*
G02*
X113327500Y-121720000I147500J0D01*
G01*
X113672500Y-121720000D01*
G75*
G02*
X113820000Y-121867500I0J-147500D01*
G01*
X113820000Y-122162500D01*
G75*
G02*
X113672500Y-122310000I-147500J0D01*
G01*
G37*
G36*
G01*
X113672500Y-123280000D02*
X113327500Y-123280000D01*
G75*
G02*
X113180000Y-123132500I0J147500D01*
G01*
X113180000Y-122837500D01*
G75*
G02*
X113327500Y-122690000I147500J0D01*
G01*
X113672500Y-122690000D01*
G75*
G02*
X113820000Y-122837500I0J-147500D01*
G01*
X113820000Y-123132500D01*
G75*
G02*
X113672500Y-123280000I-147500J0D01*
G01*
G37*
%TD*%
D12*
%TO.C,D8*%
G36*
X112641750Y-128771183D02*
G01*
X112900569Y-127805258D01*
X113866494Y-128064077D01*
X113607675Y-129030002D01*
X112641750Y-128771183D01*
G37*
G36*
X113133506Y-126935923D02*
G01*
X113392325Y-125969998D01*
X114358250Y-126228817D01*
X114099431Y-127194742D01*
X113133506Y-126935923D01*
G37*
%TD*%
D11*
%TO.C,D7*%
X110450000Y-128500000D03*
X108550000Y-128500000D03*
%TD*%
D12*
%TO.C,D6*%
G36*
X107914795Y-103340614D02*
G01*
X106929987Y-103514262D01*
X106756339Y-102529454D01*
X107741147Y-102355806D01*
X107914795Y-103340614D01*
G37*
G36*
X106043661Y-103670546D02*
G01*
X105058853Y-103844194D01*
X104885205Y-102859386D01*
X105870013Y-102685738D01*
X106043661Y-103670546D01*
G37*
%TD*%
%TO.C,D5*%
G36*
X101485205Y-103059386D02*
G01*
X102470013Y-102885738D01*
X102643661Y-103870546D01*
X101658853Y-104044194D01*
X101485205Y-103059386D01*
G37*
G36*
X103356339Y-102729454D02*
G01*
X104341147Y-102555806D01*
X104514795Y-103540614D01*
X103529987Y-103714262D01*
X103356339Y-102729454D01*
G37*
%TD*%
%TO.C,R1*%
G36*
G01*
X113190000Y-141672500D02*
X113190000Y-141327500D01*
G75*
G02*
X113337500Y-141180000I147500J0D01*
G01*
X113632500Y-141180000D01*
G75*
G02*
X113780000Y-141327500I0J-147500D01*
G01*
X113780000Y-141672500D01*
G75*
G02*
X113632500Y-141820000I-147500J0D01*
G01*
X113337500Y-141820000D01*
G75*
G02*
X113190000Y-141672500I0J147500D01*
G01*
G37*
G36*
G01*
X112220000Y-141672500D02*
X112220000Y-141327500D01*
G75*
G02*
X112367500Y-141180000I147500J0D01*
G01*
X112662500Y-141180000D01*
G75*
G02*
X112810000Y-141327500I0J-147500D01*
G01*
X112810000Y-141672500D01*
G75*
G02*
X112662500Y-141820000I-147500J0D01*
G01*
X112367500Y-141820000D01*
G75*
G02*
X112220000Y-141672500I0J147500D01*
G01*
G37*
%TD*%
D11*
%TO.C,D4*%
X102450000Y-129000000D03*
X100550000Y-129000000D03*
%TD*%
D12*
%TO.C,D3*%
G36*
X119965775Y-138808456D02*
G01*
X119623755Y-139748148D01*
X118684063Y-139406128D01*
X119026083Y-138466436D01*
X119965775Y-138808456D01*
G37*
G36*
X119315937Y-140593872D02*
G01*
X118973917Y-141533564D01*
X118034225Y-141191544D01*
X118376245Y-140251852D01*
X119315937Y-140593872D01*
G37*
%TD*%
D11*
%TO.C,D2*%
X84500000Y-139950000D03*
X84500000Y-138050000D03*
%TD*%
D12*
%TO.C,D1*%
G36*
X111474558Y-143077890D02*
G01*
X110655406Y-143651466D01*
X110081830Y-142832314D01*
X110900982Y-142258738D01*
X111474558Y-143077890D01*
G37*
G36*
X109918170Y-144167686D02*
G01*
X109099018Y-144741262D01*
X108525442Y-143922110D01*
X109344594Y-143348534D01*
X109918170Y-144167686D01*
G37*
%TD*%
D13*
%TO.C,X1*%
X103130800Y-148517200D03*
X103130800Y-142522800D03*
D14*
X98000000Y-148517200D03*
X98000000Y-142522800D03*
D13*
X92869200Y-148517200D03*
X92869200Y-142522800D03*
%TD*%
M02*
