%TF.GenerationSoftware,KiCad,Pcbnew,5.1.7-a382d34a8~88~ubuntu20.04.1*%
%TF.CreationDate,2021-01-15T03:25:47-08:00*%
%TF.ProjectId,snoopy-sao,736e6f6f-7079-42d7-9361-6f2e6b696361,rev?*%
%TF.SameCoordinates,Original*%
%TF.FileFunction,Profile,NP*%
%FSLAX46Y46*%
G04 Gerber Fmt 4.6, Leading zero omitted, Abs format (unit mm)*
G04 Created by KiCad (PCBNEW 5.1.7-a382d34a8~88~ubuntu20.04.1) date 2021-01-15 03:25:47*
%MOMM*%
%LPD*%
G01*
G04 APERTURE LIST*
%TA.AperFunction,Profile*%
%ADD10C,0.100000*%
%TD*%
G04 APERTURE END LIST*
D10*
X96862989Y-152494466D02*
X96862989Y-152494466D01*
X104591481Y-60731656D02*
X104067649Y-59843829D01*
X103267240Y-61714950D02*
X104591481Y-60731656D01*
X108038987Y-150227953D02*
X107344214Y-150459623D01*
X107344214Y-150459623D02*
X106688419Y-150677533D01*
X106688419Y-150677533D02*
X106069933Y-150882020D01*
X106069933Y-150882020D02*
X105487088Y-151073423D01*
X105487088Y-151073423D02*
X104938215Y-151252080D01*
X104938215Y-151252080D02*
X104421646Y-151418330D01*
X104421646Y-151418330D02*
X103935711Y-151572512D01*
X103935711Y-151572512D02*
X103478743Y-151714962D01*
X103478743Y-151714962D02*
X103049072Y-151846021D01*
X103049072Y-151846021D02*
X102645031Y-151966026D01*
X102645031Y-151966026D02*
X102264950Y-152075316D01*
X102264950Y-152075316D02*
X101907160Y-152174228D01*
X101907160Y-152174228D02*
X101569994Y-152263103D01*
X101569994Y-152263103D02*
X101251783Y-152342277D01*
X101251783Y-152342277D02*
X100950857Y-152412089D01*
X100950857Y-152412089D02*
X100665549Y-152472879D01*
X100665549Y-152472879D02*
X100394189Y-152524983D01*
X100394189Y-152524983D02*
X100135110Y-152568740D01*
X100135110Y-152568740D02*
X99886642Y-152604490D01*
X99886642Y-152604490D02*
X99647117Y-152632570D01*
X99647117Y-152632570D02*
X99414866Y-152653318D01*
X99414866Y-152653318D02*
X99188221Y-152667074D01*
X99188221Y-152667074D02*
X98965513Y-152674175D01*
X98965513Y-152674175D02*
X98745074Y-152674960D01*
X98745074Y-152674960D02*
X98525234Y-152669767D01*
X98525234Y-152669767D02*
X98304326Y-152658935D01*
X98304326Y-152658935D02*
X98080680Y-152642802D01*
X98080680Y-152642802D02*
X97852628Y-152621706D01*
X97852628Y-152621706D02*
X97618502Y-152595986D01*
X97618502Y-152595986D02*
X97376632Y-152565981D01*
X97376632Y-152565981D02*
X97125350Y-152532027D01*
X97125350Y-152532027D02*
X96862989Y-152494466D01*
X113563487Y-148871529D02*
X113460390Y-148872525D01*
X113460390Y-148872525D02*
X113355213Y-148875600D01*
X113355213Y-148875600D02*
X113247714Y-148880814D01*
X113247714Y-148880814D02*
X113137653Y-148888225D01*
X113137653Y-148888225D02*
X113024790Y-148897892D01*
X113024790Y-148897892D02*
X112908883Y-148909876D01*
X112908883Y-148909876D02*
X112789693Y-148924234D01*
X112789693Y-148924234D02*
X112666978Y-148941026D01*
X112666978Y-148941026D02*
X112540499Y-148960312D01*
X112540499Y-148960312D02*
X112410014Y-148982149D01*
X112410014Y-148982149D02*
X112275283Y-149006598D01*
X112275283Y-149006598D02*
X112136065Y-149033717D01*
X112136065Y-149033717D02*
X111992119Y-149063566D01*
X111992119Y-149063566D02*
X111843206Y-149096204D01*
X111843206Y-149096204D02*
X111689085Y-149131689D01*
X111689085Y-149131689D02*
X111529514Y-149170082D01*
X111529514Y-149170082D02*
X111364253Y-149211440D01*
X111364253Y-149211440D02*
X111193063Y-149255824D01*
X111193063Y-149255824D02*
X111015701Y-149303292D01*
X111015701Y-149303292D02*
X110831928Y-149353904D01*
X110831928Y-149353904D02*
X110641504Y-149407718D01*
X110641504Y-149407718D02*
X110444186Y-149464794D01*
X110444186Y-149464794D02*
X110239735Y-149525190D01*
X110239735Y-149525190D02*
X110027911Y-149588967D01*
X110027911Y-149588967D02*
X109808472Y-149656182D01*
X109808472Y-149656182D02*
X109581178Y-149726896D01*
X109581178Y-149726896D02*
X109345788Y-149801167D01*
X109345788Y-149801167D02*
X109102063Y-149879055D01*
X109102063Y-149879055D02*
X108849760Y-149960618D01*
X108849760Y-149960618D02*
X108588640Y-150045916D01*
X108588640Y-150045916D02*
X108318463Y-150135008D01*
X108318463Y-150135008D02*
X108038987Y-150227953D01*
X115023987Y-148656883D02*
X114934990Y-148730622D01*
X114934990Y-148730622D02*
X114811769Y-148768143D01*
X114811769Y-148768143D02*
X114689401Y-148793406D01*
X114689401Y-148793406D02*
X114544169Y-148815790D01*
X114544169Y-148815790D02*
X114435893Y-148828930D01*
X114435893Y-148828930D02*
X114319327Y-148840515D01*
X114319327Y-148840515D02*
X114195219Y-148850436D01*
X114195219Y-148850436D02*
X114064319Y-148858582D01*
X114064319Y-148858582D02*
X113927375Y-148864843D01*
X113927375Y-148864843D02*
X113785135Y-148869110D01*
X113785135Y-148869110D02*
X113638350Y-148871271D01*
X113638350Y-148871271D02*
X113563487Y-148871529D01*
X119532487Y-148200503D02*
X119301386Y-148213151D01*
X119301386Y-148213151D02*
X119073216Y-148226195D01*
X119073216Y-148226195D02*
X118848266Y-148239607D01*
X118848266Y-148239607D02*
X118626824Y-148253357D01*
X118626824Y-148253357D02*
X118409180Y-148267416D01*
X118409180Y-148267416D02*
X118195622Y-148281755D01*
X118195622Y-148281755D02*
X117986439Y-148296344D01*
X117986439Y-148296344D02*
X117781920Y-148311154D01*
X117781920Y-148311154D02*
X117582355Y-148326156D01*
X117582355Y-148326156D02*
X117388032Y-148341320D01*
X117388032Y-148341320D02*
X117199240Y-148356618D01*
X117199240Y-148356618D02*
X117016268Y-148372020D01*
X117016268Y-148372020D02*
X116839405Y-148387497D01*
X116839405Y-148387497D02*
X116668940Y-148403019D01*
X116668940Y-148403019D02*
X116505161Y-148418558D01*
X116505161Y-148418558D02*
X116348358Y-148434084D01*
X116348358Y-148434084D02*
X116198820Y-148449568D01*
X116198820Y-148449568D02*
X116056836Y-148464981D01*
X116056836Y-148464981D02*
X115922694Y-148480292D01*
X115922694Y-148480292D02*
X115796684Y-148495474D01*
X115796684Y-148495474D02*
X115679094Y-148510497D01*
X115679094Y-148510497D02*
X115570213Y-148525332D01*
X115570213Y-148525332D02*
X115470330Y-148539949D01*
X115470330Y-148539949D02*
X115298716Y-148568413D01*
X115298716Y-148568413D02*
X115166563Y-148595655D01*
X115166563Y-148595655D02*
X115047377Y-148633717D01*
X115047377Y-148633717D02*
X115023987Y-148656883D01*
X124308446Y-148311687D02*
X124228659Y-148236333D01*
X124228659Y-148236333D02*
X124106751Y-148175205D01*
X124106751Y-148175205D02*
X123996265Y-148142221D01*
X123996265Y-148142221D02*
X123858338Y-148115357D01*
X123858338Y-148115357D02*
X123689483Y-148094530D01*
X123689483Y-148094530D02*
X123486210Y-148079660D01*
X123486210Y-148079660D02*
X123370578Y-148074434D01*
X123370578Y-148074434D02*
X123245034Y-148070667D01*
X123245034Y-148070667D02*
X123109141Y-148068348D01*
X123109141Y-148068348D02*
X122962464Y-148067468D01*
X122962464Y-148067468D02*
X122804567Y-148068016D01*
X122804567Y-148068016D02*
X122635013Y-148069982D01*
X122635013Y-148069982D02*
X122453368Y-148073356D01*
X122453368Y-148073356D02*
X122259194Y-148078129D01*
X122259194Y-148078129D02*
X122052056Y-148084288D01*
X122052056Y-148084288D02*
X121831518Y-148091826D01*
X121831518Y-148091826D02*
X121597144Y-148100731D01*
X121597144Y-148100731D02*
X121348498Y-148110993D01*
X121348498Y-148110993D02*
X121085143Y-148122603D01*
X121085143Y-148122603D02*
X120806644Y-148135549D01*
X120806644Y-148135549D02*
X120512565Y-148149823D01*
X120512565Y-148149823D02*
X120202470Y-148165413D01*
X120202470Y-148165413D02*
X119875922Y-148182309D01*
X119875922Y-148182309D02*
X119532487Y-148200503D01*
X127285723Y-147995999D02*
X127178840Y-148086465D01*
X127178840Y-148086465D02*
X127036750Y-148170113D01*
X127036750Y-148170113D02*
X126864734Y-148246383D01*
X126864734Y-148246383D02*
X126769153Y-148281576D01*
X126769153Y-148281576D02*
X126668072Y-148314715D01*
X126668072Y-148314715D02*
X126562150Y-148345730D01*
X126562150Y-148345730D02*
X126452048Y-148374549D01*
X126452048Y-148374549D02*
X126338426Y-148401105D01*
X126338426Y-148401105D02*
X126221943Y-148425326D01*
X126221943Y-148425326D02*
X126103261Y-148447142D01*
X126103261Y-148447142D02*
X125983039Y-148466484D01*
X125983039Y-148466484D02*
X125861938Y-148483281D01*
X125861938Y-148483281D02*
X125740618Y-148497464D01*
X125740618Y-148497464D02*
X125619739Y-148508962D01*
X125619739Y-148508962D02*
X125499961Y-148517705D01*
X125499961Y-148517705D02*
X125381945Y-148523625D01*
X125381945Y-148523625D02*
X125266351Y-148526649D01*
X125266351Y-148526649D02*
X125153839Y-148526709D01*
X125153839Y-148526709D02*
X125045069Y-148523734D01*
X125045069Y-148523734D02*
X124940701Y-148517655D01*
X124940701Y-148517655D02*
X124747815Y-148495903D01*
X124747815Y-148495903D02*
X124580461Y-148460893D01*
X124580461Y-148460893D02*
X124443923Y-148412064D01*
X124443923Y-148412064D02*
X124343480Y-148348857D01*
X124343480Y-148348857D02*
X124308446Y-148311687D01*
X128173363Y-147806904D02*
X128046374Y-147789951D01*
X128046374Y-147789951D02*
X127916686Y-147786147D01*
X127916686Y-147786147D02*
X127787937Y-147794716D01*
X127787937Y-147794716D02*
X127663769Y-147814882D01*
X127663769Y-147814882D02*
X127547823Y-147845868D01*
X127547823Y-147845868D02*
X127443740Y-147886900D01*
X127443740Y-147886900D02*
X127355159Y-147937202D01*
X127355159Y-147937202D02*
X127285723Y-147995999D01*
X129329814Y-147663873D02*
X129206379Y-147713416D01*
X129206379Y-147713416D02*
X129103358Y-147745439D01*
X129103358Y-147745439D02*
X128993607Y-147772786D01*
X128993607Y-147772786D02*
X128879127Y-147795208D01*
X128879127Y-147795208D02*
X128761920Y-147812459D01*
X128761920Y-147812459D02*
X128643987Y-147824291D01*
X128643987Y-147824291D02*
X128527328Y-147830456D01*
X128527328Y-147830456D02*
X128413944Y-147830707D01*
X128413944Y-147830707D02*
X128305838Y-147824796D01*
X128305838Y-147824796D02*
X128205009Y-147812477D01*
X128205009Y-147812477D02*
X128173363Y-147806904D01*
X134875415Y-146790240D02*
X134720676Y-146789560D01*
X134720676Y-146789560D02*
X134558153Y-146791723D01*
X134558153Y-146791723D02*
X134388506Y-146796625D01*
X134388506Y-146796625D02*
X134212392Y-146804162D01*
X134212392Y-146804162D02*
X134030471Y-146814231D01*
X134030471Y-146814231D02*
X133843400Y-146826727D01*
X133843400Y-146826727D02*
X133651839Y-146841548D01*
X133651839Y-146841548D02*
X133456445Y-146858589D01*
X133456445Y-146858589D02*
X133257879Y-146877746D01*
X133257879Y-146877746D02*
X133056798Y-146898916D01*
X133056798Y-146898916D02*
X132853860Y-146921995D01*
X132853860Y-146921995D02*
X132649725Y-146946879D01*
X132649725Y-146946879D02*
X132445052Y-146973464D01*
X132445052Y-146973464D02*
X132240498Y-147001648D01*
X132240498Y-147001648D02*
X132036722Y-147031325D01*
X132036722Y-147031325D02*
X131834383Y-147062392D01*
X131834383Y-147062392D02*
X131634140Y-147094746D01*
X131634140Y-147094746D02*
X131436651Y-147128283D01*
X131436651Y-147128283D02*
X131242575Y-147162898D01*
X131242575Y-147162898D02*
X131052570Y-147198489D01*
X131052570Y-147198489D02*
X130867295Y-147234951D01*
X130867295Y-147234951D02*
X130687409Y-147272181D01*
X130687409Y-147272181D02*
X130513570Y-147310074D01*
X130513570Y-147310074D02*
X130346436Y-147348528D01*
X130346436Y-147348528D02*
X130186668Y-147387438D01*
X130186668Y-147387438D02*
X130034922Y-147426701D01*
X130034922Y-147426701D02*
X129891858Y-147466212D01*
X129891858Y-147466212D02*
X129758134Y-147505869D01*
X129758134Y-147505869D02*
X129634409Y-147545567D01*
X129634409Y-147545567D02*
X129521342Y-147585203D01*
X129521342Y-147585203D02*
X129419590Y-147624673D01*
X129419590Y-147624673D02*
X129329814Y-147663873D01*
X136359987Y-146571643D02*
X136269523Y-146652540D01*
X136269523Y-146652540D02*
X136144271Y-146692607D01*
X136144271Y-146692607D02*
X136019887Y-146719031D01*
X136019887Y-146719031D02*
X135872261Y-146741926D01*
X135872261Y-146741926D02*
X135762200Y-146755043D01*
X135762200Y-146755043D02*
X135643713Y-146766311D01*
X135643713Y-146766311D02*
X135517560Y-146775619D01*
X135517560Y-146775619D02*
X135384502Y-146782854D01*
X135384502Y-146782854D02*
X135245300Y-146787905D01*
X135245300Y-146787905D02*
X135100717Y-146790659D01*
X135100717Y-146790659D02*
X134951512Y-146791005D01*
X134951512Y-146791005D02*
X134875415Y-146790240D01*
X137375987Y-146332000D02*
X137272489Y-146333243D01*
X137272489Y-146333243D02*
X137171894Y-146336891D01*
X137171894Y-146336891D02*
X137027581Y-146346603D01*
X137027581Y-146346603D02*
X136892729Y-146361034D01*
X136892729Y-146361034D02*
X136769095Y-146379770D01*
X136769095Y-146379770D02*
X136658437Y-146402396D01*
X136658437Y-146402396D02*
X136534115Y-146437898D01*
X136534115Y-146437898D02*
X136440155Y-146478595D01*
X136440155Y-146478595D02*
X136365257Y-146547231D01*
X136365257Y-146547231D02*
X136359987Y-146571643D01*
X138391987Y-146101781D02*
X138330076Y-146180727D01*
X138330076Y-146180727D02*
X138217858Y-146230267D01*
X138217858Y-146230267D02*
X138093537Y-146264373D01*
X138093537Y-146264373D02*
X137982878Y-146286109D01*
X137982878Y-146286109D02*
X137859244Y-146304107D01*
X137859244Y-146304107D02*
X137724392Y-146317971D01*
X137724392Y-146317971D02*
X137580079Y-146327301D01*
X137580079Y-146327301D02*
X137479484Y-146330805D01*
X137479484Y-146330805D02*
X137375987Y-146332000D01*
X138916677Y-146008766D02*
X138811277Y-145985903D01*
X138811277Y-145985903D02*
X138689724Y-145972211D01*
X138689724Y-145972211D02*
X138583423Y-145974362D01*
X138583423Y-145974362D02*
X138481912Y-145996809D01*
X138481912Y-145996809D02*
X138402696Y-146058334D01*
X138402696Y-146058334D02*
X138391987Y-146101781D01*
X139996177Y-145875406D02*
X139874018Y-145926957D01*
X139874018Y-145926957D02*
X139773950Y-145959829D01*
X139773950Y-145959829D02*
X139668715Y-145987479D01*
X139668715Y-145987479D02*
X139560181Y-146009677D01*
X139560181Y-146009677D02*
X139450215Y-146026192D01*
X139450215Y-146026192D02*
X139340687Y-146036793D01*
X139340687Y-146036793D02*
X139233463Y-146041250D01*
X139233463Y-146041250D02*
X139130411Y-146039331D01*
X139130411Y-146039331D02*
X139002728Y-146026457D01*
X139002728Y-146026457D02*
X138916677Y-146008766D01*
X141732933Y-145448535D02*
X141609652Y-145465860D01*
X141609652Y-145465860D02*
X141484181Y-145485454D01*
X141484181Y-145485454D02*
X141357409Y-145507097D01*
X141357409Y-145507097D02*
X141230227Y-145530572D01*
X141230227Y-145530572D02*
X141103526Y-145555658D01*
X141103526Y-145555658D02*
X140978195Y-145582138D01*
X140978195Y-145582138D02*
X140855126Y-145609791D01*
X140855126Y-145609791D02*
X140735208Y-145638401D01*
X140735208Y-145638401D02*
X140619332Y-145667746D01*
X140619332Y-145667746D02*
X140508389Y-145697610D01*
X140508389Y-145697610D02*
X140403269Y-145727772D01*
X140403269Y-145727772D02*
X140304862Y-145758014D01*
X140304862Y-145758014D02*
X140171787Y-145803049D01*
X140171787Y-145803049D02*
X140058826Y-145847032D01*
X140058826Y-145847032D02*
X139996177Y-145875406D01*
X143076694Y-144647517D02*
X143050106Y-144744356D01*
X143050106Y-144744356D02*
X143004529Y-144872761D01*
X143004529Y-144872761D02*
X142949042Y-144982778D01*
X142949042Y-144982778D02*
X142880182Y-145076468D01*
X142880182Y-145076468D02*
X142794488Y-145155897D01*
X142794488Y-145155897D02*
X142688498Y-145223128D01*
X142688498Y-145223128D02*
X142558749Y-145280223D01*
X142558749Y-145280223D02*
X142457341Y-145313676D01*
X142457341Y-145313676D02*
X142342810Y-145344153D01*
X142342810Y-145344153D02*
X142214129Y-145372266D01*
X142214129Y-145372266D02*
X142070273Y-145398626D01*
X142070273Y-145398626D02*
X141910216Y-145423845D01*
X141910216Y-145423845D02*
X141732933Y-145448535D01*
X142124172Y-142915890D02*
X142285789Y-142948168D01*
X142285789Y-142948168D02*
X142433646Y-142990302D01*
X142433646Y-142990302D02*
X142567774Y-143042349D01*
X142567774Y-143042349D02*
X142688206Y-143104367D01*
X142688206Y-143104367D02*
X142794973Y-143176416D01*
X142794973Y-143176416D02*
X142888107Y-143258552D01*
X142888107Y-143258552D02*
X142967641Y-143350833D01*
X142967641Y-143350833D02*
X143033607Y-143453319D01*
X143033607Y-143453319D02*
X143086035Y-143566067D01*
X143086035Y-143566067D02*
X143124959Y-143689134D01*
X143124959Y-143689134D02*
X143150410Y-143822580D01*
X143150410Y-143822580D02*
X143162421Y-143966462D01*
X143162421Y-143966462D02*
X143161022Y-144120839D01*
X143161022Y-144120839D02*
X143146247Y-144285768D01*
X143146247Y-144285768D02*
X143118127Y-144461308D01*
X143118127Y-144461308D02*
X143076694Y-144647517D01*
X138010987Y-142519640D02*
X138181304Y-142533369D01*
X138181304Y-142533369D02*
X138351562Y-142547266D01*
X138351562Y-142547266D02*
X138521497Y-142561305D01*
X138521497Y-142561305D02*
X138690845Y-142575459D01*
X138690845Y-142575459D02*
X138859343Y-142589705D01*
X138859343Y-142589705D02*
X139026727Y-142604016D01*
X139026727Y-142604016D02*
X139192734Y-142618367D01*
X139192734Y-142618367D02*
X139357099Y-142632733D01*
X139357099Y-142632733D02*
X139519560Y-142647088D01*
X139519560Y-142647088D02*
X139679852Y-142661407D01*
X139679852Y-142661407D02*
X139837713Y-142675665D01*
X139837713Y-142675665D02*
X139992878Y-142689835D01*
X139992878Y-142689835D02*
X140145083Y-142703894D01*
X140145083Y-142703894D02*
X140294067Y-142717814D01*
X140294067Y-142717814D02*
X140439563Y-142731572D01*
X140439563Y-142731572D02*
X140581310Y-142745141D01*
X140581310Y-142745141D02*
X140719044Y-142758496D01*
X140719044Y-142758496D02*
X140852500Y-142771612D01*
X140852500Y-142771612D02*
X140981415Y-142784463D01*
X140981415Y-142784463D02*
X141105527Y-142797024D01*
X141105527Y-142797024D02*
X141224570Y-142809270D01*
X141224570Y-142809270D02*
X141338281Y-142821175D01*
X141338281Y-142821175D02*
X141446398Y-142832714D01*
X141446398Y-142832714D02*
X141548656Y-142843861D01*
X141548656Y-142843861D02*
X141734541Y-142864878D01*
X141734541Y-142864878D02*
X141893828Y-142884024D01*
X141893828Y-142884024D02*
X142024408Y-142901096D01*
X142024408Y-142901096D02*
X142124172Y-142915890D01*
X131025987Y-141634505D02*
X131052641Y-141739878D01*
X131052641Y-141739878D02*
X131134682Y-141807646D01*
X131134682Y-141807646D02*
X131235495Y-141849563D01*
X131235495Y-141849563D02*
X131383513Y-141890176D01*
X131383513Y-141890176D02*
X131587574Y-141930605D01*
X131587574Y-141930605D02*
X131713383Y-141951101D01*
X131713383Y-141951101D02*
X131856516Y-141971971D01*
X131856516Y-141971971D02*
X132018080Y-141993354D01*
X132018080Y-141993354D02*
X132199177Y-142015392D01*
X132199177Y-142015392D02*
X132400914Y-142038224D01*
X132400914Y-142038224D02*
X132624395Y-142061990D01*
X132624395Y-142061990D02*
X132870724Y-142086830D01*
X132870724Y-142086830D02*
X133141007Y-142112884D01*
X133141007Y-142112884D02*
X133436348Y-142140292D01*
X133436348Y-142140292D02*
X133757851Y-142169194D01*
X133757851Y-142169194D02*
X134106622Y-142199730D01*
X134106622Y-142199730D02*
X134483766Y-142232040D01*
X134483766Y-142232040D02*
X134890386Y-142266264D01*
X134890386Y-142266264D02*
X135327588Y-142302542D01*
X135327588Y-142302542D02*
X135796476Y-142341013D01*
X135796476Y-142341013D02*
X136298155Y-142381819D01*
X136298155Y-142381819D02*
X136833730Y-142425099D01*
X136833730Y-142425099D02*
X137404306Y-142470992D01*
X137404306Y-142470992D02*
X138010987Y-142519640D01*
X134134322Y-141173268D02*
X133935157Y-141183554D01*
X133935157Y-141183554D02*
X133743071Y-141194034D01*
X133743071Y-141194034D02*
X133558012Y-141204713D01*
X133558012Y-141204713D02*
X133379932Y-141215601D01*
X133379932Y-141215601D02*
X133208781Y-141226702D01*
X133208781Y-141226702D02*
X133044510Y-141238027D01*
X133044510Y-141238027D02*
X132887068Y-141249580D01*
X132887068Y-141249580D02*
X132736407Y-141261371D01*
X132736407Y-141261371D02*
X132592477Y-141273406D01*
X132592477Y-141273406D02*
X132455229Y-141285692D01*
X132455229Y-141285692D02*
X132324612Y-141298237D01*
X132324612Y-141298237D02*
X132200578Y-141311049D01*
X132200578Y-141311049D02*
X132083077Y-141324134D01*
X132083077Y-141324134D02*
X131972060Y-141337500D01*
X131972060Y-141337500D02*
X131867476Y-141351154D01*
X131867476Y-141351154D02*
X131677413Y-141379357D01*
X131677413Y-141379357D02*
X131512491Y-141408801D01*
X131512491Y-141408801D02*
X131372316Y-141439545D01*
X131372316Y-141439545D02*
X131256490Y-141471648D01*
X131256490Y-141471648D02*
X131127542Y-141522480D01*
X131127542Y-141522480D02*
X131037138Y-141595559D01*
X131037138Y-141595559D02*
X131025987Y-141634505D01*
X137330492Y-140753492D02*
X137214052Y-140825883D01*
X137214052Y-140825883D02*
X137118167Y-140855394D01*
X137118167Y-140855394D02*
X136996080Y-140884963D01*
X136996080Y-140884963D02*
X136849106Y-140914417D01*
X136849106Y-140914417D02*
X136678561Y-140943583D01*
X136678561Y-140943583D02*
X136485760Y-140972289D01*
X136485760Y-140972289D02*
X136381425Y-140986415D01*
X136381425Y-140986415D02*
X136272020Y-141000361D01*
X136272020Y-141000361D02*
X136157709Y-141014105D01*
X136157709Y-141014105D02*
X136038656Y-141027626D01*
X136038656Y-141027626D02*
X135915026Y-141040903D01*
X135915026Y-141040903D02*
X135786983Y-141053913D01*
X135786983Y-141053913D02*
X135654692Y-141066635D01*
X135654692Y-141066635D02*
X135518318Y-141079048D01*
X135518318Y-141079048D02*
X135378024Y-141091129D01*
X135378024Y-141091129D02*
X135233976Y-141102858D01*
X135233976Y-141102858D02*
X135086338Y-141114213D01*
X135086338Y-141114213D02*
X134935273Y-141125171D01*
X134935273Y-141125171D02*
X134780948Y-141135712D01*
X134780948Y-141135712D02*
X134623525Y-141145813D01*
X134623525Y-141145813D02*
X134463170Y-141155454D01*
X134463170Y-141155454D02*
X134300048Y-141164613D01*
X134300048Y-141164613D02*
X134134322Y-141173268D01*
X138500789Y-140490000D02*
X138390064Y-140491367D01*
X138390064Y-140491367D02*
X138281550Y-140495377D01*
X138281550Y-140495377D02*
X138175847Y-140501897D01*
X138175847Y-140501897D02*
X138073555Y-140510791D01*
X138073555Y-140510791D02*
X137927824Y-140528287D01*
X137927824Y-140528287D02*
X137793143Y-140550363D01*
X137793143Y-140550363D02*
X137671536Y-140576565D01*
X137671536Y-140576565D02*
X137565029Y-140606436D01*
X137565029Y-140606436D02*
X137450007Y-140651183D01*
X137450007Y-140651183D02*
X137356352Y-140713504D01*
X137356352Y-140713504D02*
X137330492Y-140753492D01*
X140055647Y-139230501D02*
X140159462Y-139333328D01*
X140159462Y-139333328D02*
X140228845Y-139439124D01*
X140228845Y-139439124D02*
X140265430Y-139546565D01*
X140265430Y-139546565D02*
X140270854Y-139654325D01*
X140270854Y-139654325D02*
X140246752Y-139761078D01*
X140246752Y-139761078D02*
X140194761Y-139865501D01*
X140194761Y-139865501D02*
X140116516Y-139966267D01*
X140116516Y-139966267D02*
X140013653Y-140062052D01*
X140013653Y-140062052D02*
X139887807Y-140151531D01*
X139887807Y-140151531D02*
X139740615Y-140233378D01*
X139740615Y-140233378D02*
X139573712Y-140306269D01*
X139573712Y-140306269D02*
X139388734Y-140368879D01*
X139388734Y-140368879D02*
X139289978Y-140395914D01*
X139289978Y-140395914D02*
X139187316Y-140419881D01*
X139187316Y-140419881D02*
X139080954Y-140440616D01*
X139080954Y-140440616D02*
X138971096Y-140457953D01*
X138971096Y-140457953D02*
X138857946Y-140471725D01*
X138857946Y-140471725D02*
X138741708Y-140481767D01*
X138741708Y-140481767D02*
X138622588Y-140487914D01*
X138622588Y-140487914D02*
X138500789Y-140490000D01*
X131025995Y-137952969D02*
X131448757Y-137978224D01*
X131448757Y-137978224D02*
X131867605Y-138005154D01*
X131867605Y-138005154D02*
X132282024Y-138033688D01*
X132282024Y-138033688D02*
X132691496Y-138063751D01*
X132691496Y-138063751D02*
X133095507Y-138095272D01*
X133095507Y-138095272D02*
X133493542Y-138128176D01*
X133493542Y-138128176D02*
X133885084Y-138162391D01*
X133885084Y-138162391D02*
X134269619Y-138197845D01*
X134269619Y-138197845D02*
X134646630Y-138234463D01*
X134646630Y-138234463D02*
X135015602Y-138272174D01*
X135015602Y-138272174D02*
X135376020Y-138310904D01*
X135376020Y-138310904D02*
X135727367Y-138350580D01*
X135727367Y-138350580D02*
X136069129Y-138391130D01*
X136069129Y-138391130D02*
X136400790Y-138432480D01*
X136400790Y-138432480D02*
X136721834Y-138474558D01*
X136721834Y-138474558D02*
X137031746Y-138517290D01*
X137031746Y-138517290D02*
X137330009Y-138560604D01*
X137330009Y-138560604D02*
X137616110Y-138604426D01*
X137616110Y-138604426D02*
X137889531Y-138648684D01*
X137889531Y-138648684D02*
X138149758Y-138693305D01*
X138149758Y-138693305D02*
X138396275Y-138738216D01*
X138396275Y-138738216D02*
X138628566Y-138783343D01*
X138628566Y-138783343D02*
X138846116Y-138828615D01*
X138846116Y-138828615D02*
X139048410Y-138873957D01*
X139048410Y-138873957D02*
X139234931Y-138919298D01*
X139234931Y-138919298D02*
X139405164Y-138964563D01*
X139405164Y-138964563D02*
X139558594Y-139009681D01*
X139558594Y-139009681D02*
X139694704Y-139054579D01*
X139694704Y-139054579D02*
X139812981Y-139099182D01*
X139812981Y-139099182D02*
X139912907Y-139143419D01*
X139912907Y-139143419D02*
X140055647Y-139230501D01*
X125691995Y-137569037D02*
X125854729Y-137586277D01*
X125854729Y-137586277D02*
X126052977Y-137605337D01*
X126052977Y-137605337D02*
X126164564Y-137615488D01*
X126164564Y-137615488D02*
X126284005Y-137626020D01*
X126284005Y-137626020D02*
X126410956Y-137636908D01*
X126410956Y-137636908D02*
X126545077Y-137648128D01*
X126545077Y-137648128D02*
X126686026Y-137659655D01*
X126686026Y-137659655D02*
X126833460Y-137671465D01*
X126833460Y-137671465D02*
X126987038Y-137683533D01*
X126987038Y-137683533D02*
X127146417Y-137695834D01*
X127146417Y-137695834D02*
X127311257Y-137708344D01*
X127311257Y-137708344D02*
X127481216Y-137721038D01*
X127481216Y-137721038D02*
X127655950Y-137733891D01*
X127655950Y-137733891D02*
X127835120Y-137746880D01*
X127835120Y-137746880D02*
X128018382Y-137759978D01*
X128018382Y-137759978D02*
X128205395Y-137773163D01*
X128205395Y-137773163D02*
X128395817Y-137786409D01*
X128395817Y-137786409D02*
X128589306Y-137799691D01*
X128589306Y-137799691D02*
X128785521Y-137812985D01*
X128785521Y-137812985D02*
X128984119Y-137826266D01*
X128984119Y-137826266D02*
X129184759Y-137839511D01*
X129184759Y-137839511D02*
X129387099Y-137852693D01*
X129387099Y-137852693D02*
X129590797Y-137865788D01*
X129590797Y-137865788D02*
X129795511Y-137878773D01*
X129795511Y-137878773D02*
X130000900Y-137891622D01*
X130000900Y-137891622D02*
X130206621Y-137904310D01*
X130206621Y-137904310D02*
X130412333Y-137916814D01*
X130412333Y-137916814D02*
X130617694Y-137929108D01*
X130617694Y-137929108D02*
X130822362Y-137941167D01*
X130822362Y-137941167D02*
X131025995Y-137952969D01*
X122262995Y-137301157D02*
X122368979Y-137307009D01*
X122368979Y-137307009D02*
X122477237Y-137313195D01*
X122477237Y-137313195D02*
X122587549Y-137319699D01*
X122587549Y-137319699D02*
X122699693Y-137326502D01*
X122699693Y-137326502D02*
X122813452Y-137333589D01*
X122813452Y-137333589D02*
X122928605Y-137340940D01*
X122928605Y-137340940D02*
X123044932Y-137348540D01*
X123044932Y-137348540D02*
X123162214Y-137356371D01*
X123162214Y-137356371D02*
X123280231Y-137364416D01*
X123280231Y-137364416D02*
X123398762Y-137372658D01*
X123398762Y-137372658D02*
X123517589Y-137381080D01*
X123517589Y-137381080D02*
X123636492Y-137389664D01*
X123636492Y-137389664D02*
X123755251Y-137398394D01*
X123755251Y-137398394D02*
X123873645Y-137407252D01*
X123873645Y-137407252D02*
X123991456Y-137416220D01*
X123991456Y-137416220D02*
X124108463Y-137425283D01*
X124108463Y-137425283D02*
X124224447Y-137434422D01*
X124224447Y-137434422D02*
X124339189Y-137443621D01*
X124339189Y-137443621D02*
X124452467Y-137452862D01*
X124452467Y-137452862D02*
X124564063Y-137462128D01*
X124564063Y-137462128D02*
X124673757Y-137471402D01*
X124673757Y-137471402D02*
X124781329Y-137480667D01*
X124781329Y-137480667D02*
X124886559Y-137489906D01*
X124886559Y-137489906D02*
X124989228Y-137499101D01*
X124989228Y-137499101D02*
X125089116Y-137508236D01*
X125089116Y-137508236D02*
X125279668Y-137526254D01*
X125279668Y-137526254D02*
X125456458Y-137543824D01*
X125456458Y-137543824D02*
X125617729Y-137560807D01*
X125617729Y-137560807D02*
X125691995Y-137569037D01*
X118073659Y-135888536D02*
X118170316Y-135993490D01*
X118170316Y-135993490D02*
X118263275Y-136092530D01*
X118263275Y-136092530D02*
X118353128Y-136185853D01*
X118353128Y-136185853D02*
X118440464Y-136273660D01*
X118440464Y-136273660D02*
X118525876Y-136356149D01*
X118525876Y-136356149D02*
X118609953Y-136433519D01*
X118609953Y-136433519D02*
X118693286Y-136505970D01*
X118693286Y-136505970D02*
X118776467Y-136573701D01*
X118776467Y-136573701D02*
X118860085Y-136636910D01*
X118860085Y-136636910D02*
X118944732Y-136695799D01*
X118944732Y-136695799D02*
X119030999Y-136750565D01*
X119030999Y-136750565D02*
X119119476Y-136801407D01*
X119119476Y-136801407D02*
X119210754Y-136848526D01*
X119210754Y-136848526D02*
X119305424Y-136892119D01*
X119305424Y-136892119D02*
X119404077Y-136932387D01*
X119404077Y-136932387D02*
X119507303Y-136969529D01*
X119507303Y-136969529D02*
X119615693Y-137003743D01*
X119615693Y-137003743D02*
X119729838Y-137035230D01*
X119729838Y-137035230D02*
X119850330Y-137064187D01*
X119850330Y-137064187D02*
X119977757Y-137090815D01*
X119977757Y-137090815D02*
X120112713Y-137115313D01*
X120112713Y-137115313D02*
X120255786Y-137137879D01*
X120255786Y-137137879D02*
X120407568Y-137158714D01*
X120407568Y-137158714D02*
X120568651Y-137178016D01*
X120568651Y-137178016D02*
X120739623Y-137195984D01*
X120739623Y-137195984D02*
X120921077Y-137212818D01*
X120921077Y-137212818D02*
X121113604Y-137228717D01*
X121113604Y-137228717D02*
X121317793Y-137243880D01*
X121317793Y-137243880D02*
X121534236Y-137258506D01*
X121534236Y-137258506D02*
X121763523Y-137272795D01*
X121763523Y-137272795D02*
X122006246Y-137286945D01*
X122006246Y-137286945D02*
X122262995Y-137301157D01*
X115259979Y-134384724D02*
X115404025Y-134422522D01*
X115404025Y-134422522D02*
X115541893Y-134459546D01*
X115541893Y-134459546D02*
X115673837Y-134495933D01*
X115673837Y-134495933D02*
X115800114Y-134531819D01*
X115800114Y-134531819D02*
X115920979Y-134567341D01*
X115920979Y-134567341D02*
X116036689Y-134602636D01*
X116036689Y-134602636D02*
X116147498Y-134637840D01*
X116147498Y-134637840D02*
X116253664Y-134673091D01*
X116253664Y-134673091D02*
X116355441Y-134708525D01*
X116355441Y-134708525D02*
X116453086Y-134744278D01*
X116453086Y-134744278D02*
X116546855Y-134780488D01*
X116546855Y-134780488D02*
X116723786Y-134854825D01*
X116723786Y-134854825D02*
X116888281Y-134932628D01*
X116888281Y-134932628D02*
X117042388Y-135014993D01*
X117042388Y-135014993D02*
X117188153Y-135103013D01*
X117188153Y-135103013D02*
X117327623Y-135197781D01*
X117327623Y-135197781D02*
X117462845Y-135300393D01*
X117462845Y-135300393D02*
X117595866Y-135411942D01*
X117595866Y-135411942D02*
X117728733Y-135533522D01*
X117728733Y-135533522D02*
X117863493Y-135666226D01*
X117863493Y-135666226D02*
X118002192Y-135811150D01*
X118002192Y-135811150D02*
X118073659Y-135888536D01*
X112713862Y-133890355D02*
X112835738Y-133896685D01*
X112835738Y-133896685D02*
X112937760Y-133906931D01*
X112937760Y-133906931D02*
X113054875Y-133921702D01*
X113054875Y-133921702D02*
X113185778Y-133940744D01*
X113185778Y-133940744D02*
X113329165Y-133963803D01*
X113329165Y-133963803D02*
X113483728Y-133990627D01*
X113483728Y-133990627D02*
X113648164Y-134020962D01*
X113648164Y-134020962D02*
X113821166Y-134054554D01*
X113821166Y-134054554D02*
X114001429Y-134091149D01*
X114001429Y-134091149D02*
X114187648Y-134130494D01*
X114187648Y-134130494D02*
X114378517Y-134172336D01*
X114378517Y-134172336D02*
X114572732Y-134216422D01*
X114572732Y-134216422D02*
X114670686Y-134239226D01*
X114670686Y-134239226D02*
X114768986Y-134262496D01*
X114768986Y-134262496D02*
X114867470Y-134286200D01*
X114867470Y-134286200D02*
X114965975Y-134310307D01*
X114965975Y-134310307D02*
X115064336Y-134334784D01*
X115064336Y-134334784D02*
X115162392Y-134359600D01*
X115162392Y-134359600D02*
X115259979Y-134384724D01*
X111319147Y-130993411D02*
X111317862Y-131198589D01*
X111317862Y-131198589D02*
X111318642Y-131394647D01*
X111318642Y-131394647D02*
X111321571Y-131581756D01*
X111321571Y-131581756D02*
X111326730Y-131760090D01*
X111326730Y-131760090D02*
X111334203Y-131929820D01*
X111334203Y-131929820D02*
X111344073Y-132091119D01*
X111344073Y-132091119D02*
X111356423Y-132244160D01*
X111356423Y-132244160D02*
X111371336Y-132389114D01*
X111371336Y-132389114D02*
X111388894Y-132526154D01*
X111388894Y-132526154D02*
X111409182Y-132655453D01*
X111409182Y-132655453D02*
X111432281Y-132777183D01*
X111432281Y-132777183D02*
X111458275Y-132891516D01*
X111458275Y-132891516D02*
X111487247Y-132998625D01*
X111487247Y-132998625D02*
X111519280Y-133098682D01*
X111519280Y-133098682D02*
X111592859Y-133278329D01*
X111592859Y-133278329D02*
X111679678Y-133431838D01*
X111679678Y-133431838D02*
X111780399Y-133560587D01*
X111780399Y-133560587D02*
X111895687Y-133665955D01*
X111895687Y-133665955D02*
X112026205Y-133749321D01*
X112026205Y-133749321D02*
X112172618Y-133812066D01*
X112172618Y-133812066D02*
X112335589Y-133855566D01*
X112335589Y-133855566D02*
X112515782Y-133881203D01*
X112515782Y-133881203D02*
X112713862Y-133890355D01*
X113806962Y-129671391D02*
X113606389Y-129532178D01*
X113606389Y-129532178D02*
X113416877Y-129402946D01*
X113416877Y-129402946D02*
X113238109Y-129283861D01*
X113238109Y-129283861D02*
X113069774Y-129175091D01*
X113069774Y-129175091D02*
X112911558Y-129076802D01*
X112911558Y-129076802D02*
X112763147Y-128989160D01*
X112763147Y-128989160D02*
X112624228Y-128912332D01*
X112624228Y-128912332D02*
X112494487Y-128846484D01*
X112494487Y-128846484D02*
X112373611Y-128791783D01*
X112373611Y-128791783D02*
X112261287Y-128748397D01*
X112261287Y-128748397D02*
X112157200Y-128716490D01*
X112157200Y-128716490D02*
X111972486Y-128687784D01*
X111972486Y-128687784D02*
X111816961Y-128706998D01*
X111816961Y-128706998D02*
X111688119Y-128775465D01*
X111688119Y-128775465D02*
X111583450Y-128894517D01*
X111583450Y-128894517D02*
X111500447Y-129065487D01*
X111500447Y-129065487D02*
X111466287Y-129170858D01*
X111466287Y-129170858D02*
X111436603Y-129289708D01*
X111436603Y-129289708D02*
X111411082Y-129422204D01*
X111411082Y-129422204D02*
X111389409Y-129568512D01*
X111389409Y-129568512D02*
X111371273Y-129728799D01*
X111371273Y-129728799D02*
X111356358Y-129903232D01*
X111356358Y-129903232D02*
X111344352Y-130091977D01*
X111344352Y-130091977D02*
X111334942Y-130295201D01*
X111334942Y-130295201D02*
X111327813Y-130513070D01*
X111327813Y-130513070D02*
X111322652Y-130745751D01*
X111322652Y-130745751D02*
X111319147Y-130993411D01*
X119740457Y-131909973D02*
X119543967Y-131910558D01*
X119543967Y-131910558D02*
X119352166Y-131908091D01*
X119352166Y-131908091D02*
X119164655Y-131902423D01*
X119164655Y-131902423D02*
X118981036Y-131893402D01*
X118981036Y-131893402D02*
X118800913Y-131880881D01*
X118800913Y-131880881D02*
X118623888Y-131864707D01*
X118623888Y-131864707D02*
X118449564Y-131844732D01*
X118449564Y-131844732D02*
X118277544Y-131820806D01*
X118277544Y-131820806D02*
X118107429Y-131792779D01*
X118107429Y-131792779D02*
X117938824Y-131760500D01*
X117938824Y-131760500D02*
X117771329Y-131723820D01*
X117771329Y-131723820D02*
X117604549Y-131682590D01*
X117604549Y-131682590D02*
X117438085Y-131636658D01*
X117438085Y-131636658D02*
X117271541Y-131585875D01*
X117271541Y-131585875D02*
X117104519Y-131530092D01*
X117104519Y-131530092D02*
X116936621Y-131469158D01*
X116936621Y-131469158D02*
X116767450Y-131402923D01*
X116767450Y-131402923D02*
X116596610Y-131331238D01*
X116596610Y-131331238D02*
X116423702Y-131253952D01*
X116423702Y-131253952D02*
X116248329Y-131170916D01*
X116248329Y-131170916D02*
X116070094Y-131081980D01*
X116070094Y-131081980D02*
X115888599Y-130986994D01*
X115888599Y-130986994D02*
X115703448Y-130885808D01*
X115703448Y-130885808D02*
X115514242Y-130778271D01*
X115514242Y-130778271D02*
X115320585Y-130664235D01*
X115320585Y-130664235D02*
X115122079Y-130543549D01*
X115122079Y-130543549D02*
X114918326Y-130416063D01*
X114918326Y-130416063D02*
X114708930Y-130281627D01*
X114708930Y-130281627D02*
X114493493Y-130140092D01*
X114493493Y-130140092D02*
X114271617Y-129991308D01*
X114271617Y-129991308D02*
X114042906Y-129835124D01*
X114042906Y-129835124D02*
X113806962Y-129671391D01*
X123556397Y-131124311D02*
X123415811Y-131177503D01*
X123415811Y-131177503D02*
X123278465Y-131228465D01*
X123278465Y-131228465D02*
X123144171Y-131277234D01*
X123144171Y-131277234D02*
X123012744Y-131323848D01*
X123012744Y-131323848D02*
X122883997Y-131368346D01*
X122883997Y-131368346D02*
X122757743Y-131410767D01*
X122757743Y-131410767D02*
X122633798Y-131451147D01*
X122633798Y-131451147D02*
X122511974Y-131489527D01*
X122511974Y-131489527D02*
X122392085Y-131525944D01*
X122392085Y-131525944D02*
X122273945Y-131560436D01*
X122273945Y-131560436D02*
X122157368Y-131593042D01*
X122157368Y-131593042D02*
X122042167Y-131623800D01*
X122042167Y-131623800D02*
X121928157Y-131652749D01*
X121928157Y-131652749D02*
X121815151Y-131679927D01*
X121815151Y-131679927D02*
X121702963Y-131705372D01*
X121702963Y-131705372D02*
X121591406Y-131729122D01*
X121591406Y-131729122D02*
X121480295Y-131751217D01*
X121480295Y-131751217D02*
X121369444Y-131771693D01*
X121369444Y-131771693D02*
X121258665Y-131790591D01*
X121258665Y-131790591D02*
X121147773Y-131807947D01*
X121147773Y-131807947D02*
X121036582Y-131823800D01*
X121036582Y-131823800D02*
X120924905Y-131838189D01*
X120924905Y-131838189D02*
X120812556Y-131851152D01*
X120812556Y-131851152D02*
X120699349Y-131862727D01*
X120699349Y-131862727D02*
X120585098Y-131872953D01*
X120585098Y-131872953D02*
X120469616Y-131881868D01*
X120469616Y-131881868D02*
X120352718Y-131889510D01*
X120352718Y-131889510D02*
X120234216Y-131895918D01*
X120234216Y-131895918D02*
X120113926Y-131901130D01*
X120113926Y-131901130D02*
X119991660Y-131905184D01*
X119991660Y-131905184D02*
X119867232Y-131908119D01*
X119867232Y-131908119D02*
X119740457Y-131909973D01*
X126263495Y-130189152D02*
X126134235Y-130223560D01*
X126134235Y-130223560D02*
X126025941Y-130255318D01*
X126025941Y-130255318D02*
X125901570Y-130293572D01*
X125901570Y-130293572D02*
X125762509Y-130337842D01*
X125762509Y-130337842D02*
X125610146Y-130387650D01*
X125610146Y-130387650D02*
X125445870Y-130442515D01*
X125445870Y-130442515D02*
X125271068Y-130501958D01*
X125271068Y-130501958D02*
X125087127Y-130565499D01*
X125087127Y-130565499D02*
X124992164Y-130598657D01*
X124992164Y-130598657D02*
X124895437Y-130632660D01*
X124895437Y-130632660D02*
X124797119Y-130667448D01*
X124797119Y-130667448D02*
X124697385Y-130702961D01*
X124697385Y-130702961D02*
X124596406Y-130739138D01*
X124596406Y-130739138D02*
X124494358Y-130775921D01*
X124494358Y-130775921D02*
X124391413Y-130813250D01*
X124391413Y-130813250D02*
X124287745Y-130851063D01*
X124287745Y-130851063D02*
X124183528Y-130889302D01*
X124183528Y-130889302D02*
X124078934Y-130927906D01*
X124078934Y-130927906D02*
X123974138Y-130966816D01*
X123974138Y-130966816D02*
X123869312Y-131005971D01*
X123869312Y-131005971D02*
X123764631Y-131045312D01*
X123764631Y-131045312D02*
X123660268Y-131084778D01*
X123660268Y-131084778D02*
X123556397Y-131124311D01*
X126475124Y-129206121D02*
X126589829Y-129312721D01*
X126589829Y-129312721D02*
X126688080Y-129410497D01*
X126688080Y-129410497D02*
X126769748Y-129500049D01*
X126769748Y-129500049D02*
X126834703Y-129581977D01*
X126834703Y-129581977D02*
X126900516Y-129691890D01*
X126900516Y-129691890D02*
X126928565Y-129817366D01*
X126928565Y-129817366D02*
X126887436Y-129923160D01*
X126887436Y-129923160D02*
X126810568Y-129992481D01*
X126810568Y-129992481D02*
X126693768Y-130055462D01*
X126693768Y-130055462D02*
X126593502Y-130094929D01*
X126593502Y-130094929D02*
X126475165Y-130133079D01*
X126475165Y-130133079D02*
X126338628Y-130170514D01*
X126338628Y-130170514D02*
X126263495Y-130189152D01*
X125431944Y-129063239D02*
X125553380Y-129001867D01*
X125553380Y-129001867D02*
X125663141Y-128955036D01*
X125663141Y-128955036D02*
X125763576Y-128923065D01*
X125763576Y-128923065D02*
X125887041Y-128904112D01*
X125887041Y-128904112D02*
X126003666Y-128912913D01*
X126003666Y-128912913D02*
X126119019Y-128950231D01*
X126119019Y-128950231D02*
X126208047Y-128997392D01*
X126208047Y-128997392D02*
X126301839Y-129061345D01*
X126301839Y-129061345D02*
X126402743Y-129142411D01*
X126402743Y-129142411D02*
X126475124Y-129206121D01*
X124077314Y-128588356D02*
X124201567Y-128707202D01*
X124201567Y-128707202D02*
X124314915Y-128812187D01*
X124314915Y-128812187D02*
X124418564Y-128903733D01*
X124418564Y-128903733D02*
X124513719Y-128982264D01*
X124513719Y-128982264D02*
X124601585Y-129048200D01*
X124601585Y-129048200D02*
X124722357Y-129124418D01*
X124722357Y-129124418D02*
X124833514Y-129174678D01*
X124833514Y-129174678D02*
X124939123Y-129200408D01*
X124939123Y-129200408D02*
X125043256Y-129203033D01*
X125043256Y-129203033D02*
X125149980Y-129183981D01*
X125149980Y-129183981D02*
X125263366Y-129144678D01*
X125263366Y-129144678D02*
X125387483Y-129086551D01*
X125387483Y-129086551D02*
X125431944Y-129063239D01*
X122288606Y-127402634D02*
X122393636Y-127448724D01*
X122393636Y-127448724D02*
X122503848Y-127501388D01*
X122503848Y-127501388D02*
X122618324Y-127560016D01*
X122618324Y-127560016D02*
X122736148Y-127624001D01*
X122736148Y-127624001D02*
X122856402Y-127692734D01*
X122856402Y-127692734D02*
X122978169Y-127765609D01*
X122978169Y-127765609D02*
X123100532Y-127842016D01*
X123100532Y-127842016D02*
X123222575Y-127921348D01*
X123222575Y-127921348D02*
X123343379Y-128002998D01*
X123343379Y-128002998D02*
X123462029Y-128086356D01*
X123462029Y-128086356D02*
X123577606Y-128170816D01*
X123577606Y-128170816D02*
X123689194Y-128255769D01*
X123689194Y-128255769D02*
X123795876Y-128340607D01*
X123795876Y-128340607D02*
X123896735Y-128424723D01*
X123896735Y-128424723D02*
X123990853Y-128507509D01*
X123990853Y-128507509D02*
X124077314Y-128588356D01*
X114720713Y-125504000D02*
X114939335Y-125519087D01*
X114939335Y-125519087D02*
X115083532Y-125537370D01*
X115083532Y-125537370D02*
X115248948Y-125562303D01*
X115248948Y-125562303D02*
X115434053Y-125593501D01*
X115434053Y-125593501D02*
X115637320Y-125630580D01*
X115637320Y-125630580D02*
X115857219Y-125673157D01*
X115857219Y-125673157D02*
X116092222Y-125720849D01*
X116092222Y-125720849D02*
X116340799Y-125773272D01*
X116340799Y-125773272D02*
X116601422Y-125830042D01*
X116601422Y-125830042D02*
X116872563Y-125890777D01*
X116872563Y-125890777D02*
X117152693Y-125955092D01*
X117152693Y-125955092D02*
X117440282Y-126022603D01*
X117440282Y-126022603D02*
X117733803Y-126092928D01*
X117733803Y-126092928D02*
X118031725Y-126165683D01*
X118031725Y-126165683D02*
X118332522Y-126240485D01*
X118332522Y-126240485D02*
X118634663Y-126316948D01*
X118634663Y-126316948D02*
X118936620Y-126394692D01*
X118936620Y-126394692D02*
X119236865Y-126473330D01*
X119236865Y-126473330D02*
X119533868Y-126552481D01*
X119533868Y-126552481D02*
X119826100Y-126631761D01*
X119826100Y-126631761D02*
X120112034Y-126710786D01*
X120112034Y-126710786D02*
X120390141Y-126789172D01*
X120390141Y-126789172D02*
X120658890Y-126866536D01*
X120658890Y-126866536D02*
X120916755Y-126942495D01*
X120916755Y-126942495D02*
X121162206Y-127016664D01*
X121162206Y-127016664D02*
X121393713Y-127088661D01*
X121393713Y-127088661D02*
X121609750Y-127158102D01*
X121609750Y-127158102D02*
X121808786Y-127224603D01*
X121808786Y-127224603D02*
X121989293Y-127287781D01*
X121989293Y-127287781D02*
X122149743Y-127347253D01*
X122149743Y-127347253D02*
X122288606Y-127402634D01*
X114182739Y-124551500D02*
X114149197Y-124714955D01*
X114149197Y-124714955D02*
X114121230Y-124858567D01*
X114121230Y-124858567D02*
X114099560Y-124983617D01*
X114099560Y-124983617D02*
X114084914Y-125091390D01*
X114084914Y-125091390D02*
X114077697Y-125223459D01*
X114077697Y-125223459D02*
X114090357Y-125323869D01*
X114090357Y-125323869D02*
X114142386Y-125415988D01*
X114142386Y-125415988D02*
X114239899Y-125469788D01*
X114239899Y-125469788D02*
X114346368Y-125491165D01*
X114346368Y-125491165D02*
X114484129Y-125501092D01*
X114484129Y-125501092D02*
X114594562Y-125503486D01*
X114594562Y-125503486D02*
X114720713Y-125504000D01*
X112191896Y-115090000D02*
X112353765Y-115380905D01*
X112353765Y-115380905D02*
X112509867Y-115675266D01*
X112509867Y-115675266D02*
X112660137Y-115972767D01*
X112660137Y-115972767D02*
X112804506Y-116273093D01*
X112804506Y-116273093D02*
X112942910Y-116575930D01*
X112942910Y-116575930D02*
X113075282Y-116880964D01*
X113075282Y-116880964D02*
X113201555Y-117187878D01*
X113201555Y-117187878D02*
X113321664Y-117496359D01*
X113321664Y-117496359D02*
X113435542Y-117806091D01*
X113435542Y-117806091D02*
X113543123Y-118116761D01*
X113543123Y-118116761D02*
X113644342Y-118428053D01*
X113644342Y-118428053D02*
X113739130Y-118739652D01*
X113739130Y-118739652D02*
X113827423Y-119051244D01*
X113827423Y-119051244D02*
X113909155Y-119362514D01*
X113909155Y-119362514D02*
X113984258Y-119673147D01*
X113984258Y-119673147D02*
X114052667Y-119982829D01*
X114052667Y-119982829D02*
X114114315Y-120291245D01*
X114114315Y-120291245D02*
X114169136Y-120598079D01*
X114169136Y-120598079D02*
X114217065Y-120903018D01*
X114217065Y-120903018D02*
X114258034Y-121205746D01*
X114258034Y-121205746D02*
X114291978Y-121505949D01*
X114291978Y-121505949D02*
X114318830Y-121803312D01*
X114318830Y-121803312D02*
X114338524Y-122097521D01*
X114338524Y-122097521D02*
X114350995Y-122388260D01*
X114350995Y-122388260D02*
X114356174Y-122675214D01*
X114356174Y-122675214D02*
X114353997Y-122958070D01*
X114353997Y-122958070D02*
X114344398Y-123236512D01*
X114344398Y-123236512D02*
X114327309Y-123510225D01*
X114327309Y-123510225D02*
X114302665Y-123778896D01*
X114302665Y-123778896D02*
X114270399Y-124042208D01*
X114270399Y-124042208D02*
X114230446Y-124299847D01*
X114230446Y-124299847D02*
X114182739Y-124551500D01*
X111721540Y-114074000D02*
X111762486Y-114174779D01*
X111762486Y-114174779D02*
X111806435Y-114279494D01*
X111806435Y-114279494D02*
X111852573Y-114386385D01*
X111852573Y-114386385D02*
X111900087Y-114493695D01*
X111900087Y-114493695D02*
X111948161Y-114599665D01*
X111948161Y-114599665D02*
X111995983Y-114702538D01*
X111995983Y-114702538D02*
X112042738Y-114800555D01*
X112042738Y-114800555D02*
X112087613Y-114891959D01*
X112087613Y-114891959D02*
X112143114Y-115000504D01*
X112143114Y-115000504D02*
X112191896Y-115090000D01*
X111217937Y-113058000D02*
X111273398Y-113147495D01*
X111273398Y-113147495D02*
X111335130Y-113256040D01*
X111335130Y-113256040D02*
X111384302Y-113347444D01*
X111384302Y-113347444D02*
X111434968Y-113445461D01*
X111434968Y-113445461D02*
X111486256Y-113548334D01*
X111486256Y-113548334D02*
X111537296Y-113654304D01*
X111537296Y-113654304D02*
X111587216Y-113761614D01*
X111587216Y-113761614D02*
X111635144Y-113868505D01*
X111635144Y-113868505D02*
X111680209Y-113973220D01*
X111680209Y-113973220D02*
X111721540Y-114074000D01*
X110081470Y-110772000D02*
X110121054Y-110881448D01*
X110121054Y-110881448D02*
X110166120Y-110988555D01*
X110166120Y-110988555D02*
X110223851Y-111118394D01*
X110223851Y-111118394D02*
X110292294Y-111267038D01*
X110292294Y-111267038D02*
X110369497Y-111430560D01*
X110369497Y-111430560D02*
X110453508Y-111605034D01*
X110453508Y-111605034D02*
X110497457Y-111695150D01*
X110497457Y-111695150D02*
X110542375Y-111786532D01*
X110542375Y-111786532D02*
X110588020Y-111878688D01*
X110588020Y-111878688D02*
X110634146Y-111971128D01*
X110634146Y-111971128D02*
X110680510Y-112063361D01*
X110680510Y-112063361D02*
X110726868Y-112154896D01*
X110726868Y-112154896D02*
X110772976Y-112245242D01*
X110772976Y-112245242D02*
X110863465Y-112420404D01*
X110863465Y-112420404D02*
X110950025Y-112584921D01*
X110950025Y-112584921D02*
X111030705Y-112734866D01*
X111030705Y-112734866D02*
X111103551Y-112866312D01*
X111103551Y-112866312D02*
X111166613Y-112975332D01*
X111166613Y-112975332D02*
X111217937Y-113058000D01*
X109344396Y-109022062D02*
X109411042Y-109113516D01*
X109411042Y-109113516D02*
X109480021Y-109224321D01*
X109480021Y-109224321D02*
X109550699Y-109352977D01*
X109550699Y-109352977D02*
X109598450Y-109447926D01*
X109598450Y-109447926D02*
X109646490Y-109549699D01*
X109646490Y-109549699D02*
X109694630Y-109657852D01*
X109694630Y-109657852D02*
X109742685Y-109771941D01*
X109742685Y-109771941D02*
X109790466Y-109891522D01*
X109790466Y-109891522D02*
X109837787Y-110016151D01*
X109837787Y-110016151D02*
X109884461Y-110145384D01*
X109884461Y-110145384D02*
X109930301Y-110278777D01*
X109930301Y-110278777D02*
X109975119Y-110415885D01*
X109975119Y-110415885D02*
X110018729Y-110556266D01*
X110018729Y-110556266D02*
X110060944Y-110699474D01*
X110060944Y-110699474D02*
X110081470Y-110772000D01*
X108276561Y-104616953D02*
X108296542Y-104804285D01*
X108296542Y-104804285D02*
X108317968Y-104990806D01*
X108317968Y-104990806D02*
X108340779Y-105176276D01*
X108340779Y-105176276D02*
X108364918Y-105360456D01*
X108364918Y-105360456D02*
X108390327Y-105543106D01*
X108390327Y-105543106D02*
X108416948Y-105723987D01*
X108416948Y-105723987D02*
X108444722Y-105902859D01*
X108444722Y-105902859D02*
X108473593Y-106079485D01*
X108473593Y-106079485D02*
X108503501Y-106253623D01*
X108503501Y-106253623D02*
X108534389Y-106425035D01*
X108534389Y-106425035D02*
X108566198Y-106593482D01*
X108566198Y-106593482D02*
X108598872Y-106758724D01*
X108598872Y-106758724D02*
X108632351Y-106920522D01*
X108632351Y-106920522D02*
X108666577Y-107078637D01*
X108666577Y-107078637D02*
X108701494Y-107232829D01*
X108701494Y-107232829D02*
X108737042Y-107382859D01*
X108737042Y-107382859D02*
X108773164Y-107528488D01*
X108773164Y-107528488D02*
X108809802Y-107669477D01*
X108809802Y-107669477D02*
X108846897Y-107805586D01*
X108846897Y-107805586D02*
X108884392Y-107936576D01*
X108884392Y-107936576D02*
X108922229Y-108062207D01*
X108922229Y-108062207D02*
X108960349Y-108182241D01*
X108960349Y-108182241D02*
X108998696Y-108296437D01*
X108998696Y-108296437D02*
X109037209Y-108404558D01*
X109037209Y-108404558D02*
X109075833Y-108506363D01*
X109075833Y-108506363D02*
X109114508Y-108601613D01*
X109114508Y-108601613D02*
X109191781Y-108771492D01*
X109191781Y-108771492D02*
X109268565Y-108912279D01*
X109268565Y-108912279D02*
X109344396Y-109022062D01*
X108514615Y-102748280D02*
X108397669Y-102807724D01*
X108397669Y-102807724D02*
X108308666Y-102893125D01*
X108308666Y-102893125D02*
X108259340Y-102981368D01*
X108259340Y-102981368D02*
X108224239Y-103095924D01*
X108224239Y-103095924D02*
X108202724Y-103241814D01*
X108202724Y-103241814D02*
X108195613Y-103358960D01*
X108195613Y-103358960D02*
X108194066Y-103493750D01*
X108194066Y-103493750D02*
X108197895Y-103647672D01*
X108197895Y-103647672D02*
X108206909Y-103822213D01*
X108206909Y-103822213D02*
X108220920Y-104018860D01*
X108220920Y-104018860D02*
X108229739Y-104125938D01*
X108229739Y-104125938D02*
X108239737Y-104239100D01*
X108239737Y-104239100D02*
X108250889Y-104358533D01*
X108250889Y-104358533D02*
X108263171Y-104484422D01*
X108263171Y-104484422D02*
X108276561Y-104616953D01*
X108654439Y-101456047D02*
X108725126Y-101535661D01*
X108725126Y-101535661D02*
X108784615Y-101621044D01*
X108784615Y-101621044D02*
X108833038Y-101710991D01*
X108833038Y-101710991D02*
X108870522Y-101804300D01*
X108870522Y-101804300D02*
X108906527Y-101947935D01*
X108906527Y-101947935D02*
X108918654Y-102092366D01*
X108918654Y-102092366D02*
X108907345Y-102233533D01*
X108907345Y-102233533D02*
X108873037Y-102367374D01*
X108873037Y-102367374D02*
X108816171Y-102489830D01*
X108816171Y-102489830D02*
X108737186Y-102596840D01*
X108737186Y-102596840D02*
X108636520Y-102684344D01*
X108636520Y-102684344D02*
X108514615Y-102748280D01*
X108679495Y-100071747D02*
X108641915Y-100215900D01*
X108641915Y-100215900D02*
X108609162Y-100351015D01*
X108609162Y-100351015D02*
X108581229Y-100477383D01*
X108581229Y-100477383D02*
X108558113Y-100595293D01*
X108558113Y-100595293D02*
X108539807Y-100705036D01*
X108539807Y-100705036D02*
X108526307Y-100806900D01*
X108526307Y-100806900D02*
X108515054Y-100945560D01*
X108515054Y-100945560D02*
X108514585Y-101068126D01*
X108514585Y-101068126D02*
X108524879Y-101175575D01*
X108524879Y-101175575D02*
X108555320Y-101297019D01*
X108555320Y-101297019D02*
X108604825Y-101395650D01*
X108604825Y-101395650D02*
X108654439Y-101456047D01*
X112195358Y-95335846D02*
X112001014Y-95466920D01*
X112001014Y-95466920D02*
X111814188Y-95596300D01*
X111814188Y-95596300D02*
X111634674Y-95724265D01*
X111634674Y-95724265D02*
X111462264Y-95851093D01*
X111462264Y-95851093D02*
X111296751Y-95977063D01*
X111296751Y-95977063D02*
X111137929Y-96102453D01*
X111137929Y-96102453D02*
X110985591Y-96227542D01*
X110985591Y-96227542D02*
X110839530Y-96352609D01*
X110839530Y-96352609D02*
X110699540Y-96477932D01*
X110699540Y-96477932D02*
X110565412Y-96603789D01*
X110565412Y-96603789D02*
X110436942Y-96730460D01*
X110436942Y-96730460D02*
X110313921Y-96858222D01*
X110313921Y-96858222D02*
X110196143Y-96987355D01*
X110196143Y-96987355D02*
X110083402Y-97118137D01*
X110083402Y-97118137D02*
X109975490Y-97250846D01*
X109975490Y-97250846D02*
X109872201Y-97385761D01*
X109872201Y-97385761D02*
X109773327Y-97523161D01*
X109773327Y-97523161D02*
X109678662Y-97663324D01*
X109678662Y-97663324D02*
X109588000Y-97806529D01*
X109588000Y-97806529D02*
X109501133Y-97953055D01*
X109501133Y-97953055D02*
X109417855Y-98103179D01*
X109417855Y-98103179D02*
X109337958Y-98257181D01*
X109337958Y-98257181D02*
X109261237Y-98415338D01*
X109261237Y-98415338D02*
X109187484Y-98577931D01*
X109187484Y-98577931D02*
X109116492Y-98745237D01*
X109116492Y-98745237D02*
X109048054Y-98917534D01*
X109048054Y-98917534D02*
X108981965Y-99095102D01*
X108981965Y-99095102D02*
X108918016Y-99278219D01*
X108918016Y-99278219D02*
X108856001Y-99467163D01*
X108856001Y-99467163D02*
X108795714Y-99662213D01*
X108795714Y-99662213D02*
X108736947Y-99863648D01*
X108736947Y-99863648D02*
X108679495Y-100071747D01*
X113820778Y-94898352D02*
X113754195Y-94787240D01*
X113754195Y-94787240D02*
X113688616Y-94702555D01*
X113688616Y-94702555D02*
X113591520Y-94633769D01*
X113591520Y-94633769D02*
X113469278Y-94619212D01*
X113469278Y-94619212D02*
X113351836Y-94646373D01*
X113351836Y-94646373D02*
X113257667Y-94683584D01*
X113257667Y-94683584D02*
X113148555Y-94736682D01*
X113148555Y-94736682D02*
X113022576Y-94806186D01*
X113022576Y-94806186D02*
X112877806Y-94892612D01*
X112877806Y-94892612D02*
X112712321Y-94996479D01*
X112712321Y-94996479D02*
X112621210Y-95055114D01*
X112621210Y-95055114D02*
X112524198Y-95118304D01*
X112524198Y-95118304D02*
X112421046Y-95186112D01*
X112421046Y-95186112D02*
X112311512Y-95258605D01*
X112311512Y-95258605D02*
X112195358Y-95335846D01*
X115125417Y-96332867D02*
X115017949Y-96232181D01*
X115017949Y-96232181D02*
X114910817Y-96129534D01*
X114910817Y-96129534D02*
X114804689Y-96025660D01*
X114804689Y-96025660D02*
X114700234Y-95921296D01*
X114700234Y-95921296D02*
X114598122Y-95817176D01*
X114598122Y-95817176D02*
X114499021Y-95714037D01*
X114499021Y-95714037D02*
X114403600Y-95612613D01*
X114403600Y-95612613D02*
X114312528Y-95513640D01*
X114312528Y-95513640D02*
X114226473Y-95417853D01*
X114226473Y-95417853D02*
X114146105Y-95325989D01*
X114146105Y-95325989D02*
X114072093Y-95238782D01*
X114072093Y-95238782D02*
X114005106Y-95156968D01*
X114005106Y-95156968D02*
X113919258Y-95045968D01*
X113919258Y-95045968D02*
X113852978Y-94951239D01*
X113852978Y-94951239D02*
X113820778Y-94898352D01*
X122722290Y-96794369D02*
X122437323Y-96923236D01*
X122437323Y-96923236D02*
X122154584Y-97042807D01*
X122154584Y-97042807D02*
X121874157Y-97153089D01*
X121874157Y-97153089D02*
X121596126Y-97254085D01*
X121596126Y-97254085D02*
X121320575Y-97345800D01*
X121320575Y-97345800D02*
X121047589Y-97428241D01*
X121047589Y-97428241D02*
X120777251Y-97501412D01*
X120777251Y-97501412D02*
X120509645Y-97565317D01*
X120509645Y-97565317D02*
X120244856Y-97619963D01*
X120244856Y-97619963D02*
X119982967Y-97665355D01*
X119982967Y-97665355D02*
X119724063Y-97701496D01*
X119724063Y-97701496D02*
X119468227Y-97728394D01*
X119468227Y-97728394D02*
X119215545Y-97746051D01*
X119215545Y-97746051D02*
X118966099Y-97754475D01*
X118966099Y-97754475D02*
X118719974Y-97753670D01*
X118719974Y-97753670D02*
X118477254Y-97743640D01*
X118477254Y-97743640D02*
X118238023Y-97724392D01*
X118238023Y-97724392D02*
X118002365Y-97695929D01*
X118002365Y-97695929D02*
X117770365Y-97658258D01*
X117770365Y-97658258D02*
X117542105Y-97611384D01*
X117542105Y-97611384D02*
X117317671Y-97555311D01*
X117317671Y-97555311D02*
X117097147Y-97490044D01*
X117097147Y-97490044D02*
X116880616Y-97415590D01*
X116880616Y-97415590D02*
X116668162Y-97331952D01*
X116668162Y-97331952D02*
X116459871Y-97239136D01*
X116459871Y-97239136D02*
X116255824Y-97137147D01*
X116255824Y-97137147D02*
X116056108Y-97025990D01*
X116056108Y-97025990D02*
X115860806Y-96905670D01*
X115860806Y-96905670D02*
X115670001Y-96776193D01*
X115670001Y-96776193D02*
X115483779Y-96637563D01*
X115483779Y-96637563D02*
X115302223Y-96489786D01*
X115302223Y-96489786D02*
X115125417Y-96332867D01*
X129496796Y-89841543D02*
X129317409Y-90191151D01*
X129317409Y-90191151D02*
X129139581Y-90528483D01*
X129139581Y-90528483D02*
X128962948Y-90853911D01*
X128962948Y-90853911D02*
X128787144Y-91167810D01*
X128787144Y-91167810D02*
X128611806Y-91470554D01*
X128611806Y-91470554D02*
X128436570Y-91762516D01*
X128436570Y-91762516D02*
X128261070Y-92044070D01*
X128261070Y-92044070D02*
X128084943Y-92315592D01*
X128084943Y-92315592D02*
X127907825Y-92577453D01*
X127907825Y-92577453D02*
X127729350Y-92830030D01*
X127729350Y-92830030D02*
X127549154Y-93073694D01*
X127549154Y-93073694D02*
X127366873Y-93308821D01*
X127366873Y-93308821D02*
X127182143Y-93535784D01*
X127182143Y-93535784D02*
X126994600Y-93754958D01*
X126994600Y-93754958D02*
X126803878Y-93966716D01*
X126803878Y-93966716D02*
X126609614Y-94171432D01*
X126609614Y-94171432D02*
X126411443Y-94369481D01*
X126411443Y-94369481D02*
X126209001Y-94561235D01*
X126209001Y-94561235D02*
X126001923Y-94747070D01*
X126001923Y-94747070D02*
X125789846Y-94927359D01*
X125789846Y-94927359D02*
X125572404Y-95102476D01*
X125572404Y-95102476D02*
X125349233Y-95272795D01*
X125349233Y-95272795D02*
X125119970Y-95438690D01*
X125119970Y-95438690D02*
X124884249Y-95600535D01*
X124884249Y-95600535D02*
X124641706Y-95758703D01*
X124641706Y-95758703D02*
X124391977Y-95913570D01*
X124391977Y-95913570D02*
X124134698Y-96065509D01*
X124134698Y-96065509D02*
X123869503Y-96214893D01*
X123869503Y-96214893D02*
X123596030Y-96362097D01*
X123596030Y-96362097D02*
X123313912Y-96507495D01*
X123313912Y-96507495D02*
X123022787Y-96651461D01*
X123022787Y-96651461D02*
X122722290Y-96794369D01*
X131327461Y-84737003D02*
X131262537Y-84983461D01*
X131262537Y-84983461D02*
X131200148Y-85218630D01*
X131200148Y-85218630D02*
X131140090Y-85443077D01*
X131140090Y-85443077D02*
X131082161Y-85657370D01*
X131082161Y-85657370D02*
X131026155Y-85862078D01*
X131026155Y-85862078D02*
X130971869Y-86057768D01*
X130971869Y-86057768D02*
X130919099Y-86245009D01*
X130919099Y-86245009D02*
X130867643Y-86424368D01*
X130867643Y-86424368D02*
X130817295Y-86596414D01*
X130817295Y-86596414D02*
X130767853Y-86761715D01*
X130767853Y-86761715D02*
X130719112Y-86920839D01*
X130719112Y-86920839D02*
X130670868Y-87074353D01*
X130670868Y-87074353D02*
X130622919Y-87222826D01*
X130622919Y-87222826D02*
X130575060Y-87366826D01*
X130575060Y-87366826D02*
X130527088Y-87506922D01*
X130527088Y-87506922D02*
X130478799Y-87643680D01*
X130478799Y-87643680D02*
X130429989Y-87777670D01*
X130429989Y-87777670D02*
X130380454Y-87909459D01*
X130380454Y-87909459D02*
X130329991Y-88039615D01*
X130329991Y-88039615D02*
X130278395Y-88168706D01*
X130278395Y-88168706D02*
X130225465Y-88297301D01*
X130225465Y-88297301D02*
X130170994Y-88425968D01*
X130170994Y-88425968D02*
X130114780Y-88555274D01*
X130114780Y-88555274D02*
X130056620Y-88685788D01*
X130056620Y-88685788D02*
X129996308Y-88818078D01*
X129996308Y-88818078D02*
X129933642Y-88952711D01*
X129933642Y-88952711D02*
X129868418Y-89090256D01*
X129868418Y-89090256D02*
X129800432Y-89231281D01*
X129800432Y-89231281D02*
X129729481Y-89376354D01*
X129729481Y-89376354D02*
X129655360Y-89526044D01*
X129655360Y-89526044D02*
X129577866Y-89680917D01*
X129577866Y-89680917D02*
X129496796Y-89841543D01*
X131158011Y-76660183D02*
X131205092Y-76786898D01*
X131205092Y-76786898D02*
X131249757Y-76935057D01*
X131249757Y-76935057D02*
X131291978Y-77103324D01*
X131291978Y-77103324D02*
X131331727Y-77290368D01*
X131331727Y-77290368D02*
X131368976Y-77494853D01*
X131368976Y-77494853D02*
X131403697Y-77715448D01*
X131403697Y-77715448D02*
X131435862Y-77950818D01*
X131435862Y-77950818D02*
X131465443Y-78199630D01*
X131465443Y-78199630D02*
X131492412Y-78460551D01*
X131492412Y-78460551D02*
X131516741Y-78732248D01*
X131516741Y-78732248D02*
X131538402Y-79013386D01*
X131538402Y-79013386D02*
X131557367Y-79302633D01*
X131557367Y-79302633D02*
X131573609Y-79598656D01*
X131573609Y-79598656D02*
X131587099Y-79900121D01*
X131587099Y-79900121D02*
X131597808Y-80205694D01*
X131597808Y-80205694D02*
X131605710Y-80514042D01*
X131605710Y-80514042D02*
X131610777Y-80823832D01*
X131610777Y-80823832D02*
X131612979Y-81133730D01*
X131612979Y-81133730D02*
X131612290Y-81442404D01*
X131612290Y-81442404D02*
X131608681Y-81748519D01*
X131608681Y-81748519D02*
X131602125Y-82050743D01*
X131602125Y-82050743D02*
X131592593Y-82347741D01*
X131592593Y-82347741D02*
X131580057Y-82638181D01*
X131580057Y-82638181D02*
X131564490Y-82920729D01*
X131564490Y-82920729D02*
X131545864Y-83194052D01*
X131545864Y-83194052D02*
X131524149Y-83456816D01*
X131524149Y-83456816D02*
X131499320Y-83707689D01*
X131499320Y-83707689D02*
X131471347Y-83945336D01*
X131471347Y-83945336D02*
X131440202Y-84168424D01*
X131440202Y-84168424D02*
X131405858Y-84375620D01*
X131405858Y-84375620D02*
X131368287Y-84565591D01*
X131368287Y-84565591D02*
X131327461Y-84737003D01*
X130771997Y-74635959D02*
X130773999Y-74752843D01*
X130773999Y-74752843D02*
X130779875Y-74875854D01*
X130779875Y-74875854D02*
X130789427Y-75003954D01*
X130789427Y-75003954D02*
X130802456Y-75136106D01*
X130802456Y-75136106D02*
X130818765Y-75271272D01*
X130818765Y-75271272D02*
X130838155Y-75408413D01*
X130838155Y-75408413D02*
X130860429Y-75546493D01*
X130860429Y-75546493D02*
X130885390Y-75684473D01*
X130885390Y-75684473D02*
X130912838Y-75821315D01*
X130912838Y-75821315D02*
X130942576Y-75955982D01*
X130942576Y-75955982D02*
X130974406Y-76087435D01*
X130974406Y-76087435D02*
X131008130Y-76214638D01*
X131008130Y-76214638D02*
X131043551Y-76336552D01*
X131043551Y-76336552D02*
X131080469Y-76452139D01*
X131080469Y-76452139D02*
X131118689Y-76560362D01*
X131118689Y-76560362D02*
X131158011Y-76660183D01*
X130475077Y-73238681D02*
X130534721Y-73320784D01*
X130534721Y-73320784D02*
X130590365Y-73440795D01*
X130590365Y-73440795D02*
X130628739Y-73552231D01*
X130628739Y-73552231D02*
X130663663Y-73679348D01*
X130663663Y-73679348D02*
X130694625Y-73819729D01*
X130694625Y-73819729D02*
X130712810Y-73919490D01*
X130712810Y-73919490D02*
X130728853Y-74023356D01*
X130728853Y-74023356D02*
X130742601Y-74130609D01*
X130742601Y-74130609D02*
X130753903Y-74240532D01*
X130753903Y-74240532D02*
X130762607Y-74352411D01*
X130762607Y-74352411D02*
X130768559Y-74465528D01*
X130768559Y-74465528D02*
X130771608Y-74579167D01*
X130771608Y-74579167D02*
X130771997Y-74635959D01*
X130128470Y-71518793D02*
X130135071Y-71665287D01*
X130135071Y-71665287D02*
X130144510Y-71810696D01*
X130144510Y-71810696D02*
X130156609Y-71954139D01*
X130156609Y-71954139D02*
X130171190Y-72094732D01*
X130171190Y-72094732D02*
X130188075Y-72231595D01*
X130188075Y-72231595D02*
X130207087Y-72363846D01*
X130207087Y-72363846D02*
X130228048Y-72490602D01*
X130228048Y-72490602D02*
X130250781Y-72610983D01*
X130250781Y-72610983D02*
X130275106Y-72724105D01*
X130275106Y-72724105D02*
X130300848Y-72829089D01*
X130300848Y-72829089D02*
X130341726Y-72969373D01*
X130341726Y-72969373D02*
X130384790Y-73086384D01*
X130384790Y-73086384D02*
X130429440Y-73177145D01*
X130429440Y-73177145D02*
X130475077Y-73238681D01*
X129559978Y-69394103D02*
X129624551Y-69486466D01*
X129624551Y-69486466D02*
X129685038Y-69583422D01*
X129685038Y-69583422D02*
X129741486Y-69685142D01*
X129741486Y-69685142D02*
X129793939Y-69791798D01*
X129793939Y-69791798D02*
X129842443Y-69903559D01*
X129842443Y-69903559D02*
X129887045Y-70020597D01*
X129887045Y-70020597D02*
X129927790Y-70143083D01*
X129927790Y-70143083D02*
X129964723Y-70271187D01*
X129964723Y-70271187D02*
X129997891Y-70405080D01*
X129997891Y-70405080D02*
X130027339Y-70544934D01*
X130027339Y-70544934D02*
X130053113Y-70690919D01*
X130053113Y-70690919D02*
X130075258Y-70843206D01*
X130075258Y-70843206D02*
X130093821Y-71001966D01*
X130093821Y-71001966D02*
X130108846Y-71167370D01*
X130108846Y-71167370D02*
X130120381Y-71339588D01*
X130120381Y-71339588D02*
X130128470Y-71518793D01*
X128781960Y-67753587D02*
X128811057Y-67852860D01*
X128811057Y-67852860D02*
X128844619Y-67956493D01*
X128844619Y-67956493D02*
X128882248Y-68063645D01*
X128882248Y-68063645D02*
X128923545Y-68173473D01*
X128923545Y-68173473D02*
X128968110Y-68285139D01*
X128968110Y-68285139D02*
X129015545Y-68397799D01*
X129015545Y-68397799D02*
X129065451Y-68510614D01*
X129065451Y-68510614D02*
X129117429Y-68622741D01*
X129117429Y-68622741D02*
X129171080Y-68733341D01*
X129171080Y-68733341D02*
X129226005Y-68841571D01*
X129226005Y-68841571D02*
X129281806Y-68946591D01*
X129281806Y-68946591D02*
X129338083Y-69047561D01*
X129338083Y-69047561D02*
X129394437Y-69143637D01*
X129394437Y-69143637D02*
X129450470Y-69233981D01*
X129450470Y-69233981D02*
X129505784Y-69317749D01*
X129505784Y-69317749D02*
X129559978Y-69394103D01*
X122516997Y-61279325D02*
X122741054Y-61391250D01*
X122741054Y-61391250D02*
X122970477Y-61516439D01*
X122970477Y-61516439D02*
X123204548Y-61654147D01*
X123204548Y-61654147D02*
X123442547Y-61803632D01*
X123442547Y-61803632D02*
X123683755Y-61964150D01*
X123683755Y-61964150D02*
X123927453Y-62134959D01*
X123927453Y-62134959D02*
X124172922Y-62315316D01*
X124172922Y-62315316D02*
X124419444Y-62504476D01*
X124419444Y-62504476D02*
X124666298Y-62701698D01*
X124666298Y-62701698D02*
X124912765Y-62906238D01*
X124912765Y-62906238D02*
X125158128Y-63117353D01*
X125158128Y-63117353D02*
X125401666Y-63334300D01*
X125401666Y-63334300D02*
X125642661Y-63556335D01*
X125642661Y-63556335D02*
X125880394Y-63782717D01*
X125880394Y-63782717D02*
X126114144Y-64012701D01*
X126114144Y-64012701D02*
X126343195Y-64245545D01*
X126343195Y-64245545D02*
X126566825Y-64480505D01*
X126566825Y-64480505D02*
X126784317Y-64716838D01*
X126784317Y-64716838D02*
X126994951Y-64953802D01*
X126994951Y-64953802D02*
X127198008Y-65190653D01*
X127198008Y-65190653D02*
X127392770Y-65426649D01*
X127392770Y-65426649D02*
X127578516Y-65661045D01*
X127578516Y-65661045D02*
X127754528Y-65893099D01*
X127754528Y-65893099D02*
X127920087Y-66122069D01*
X127920087Y-66122069D02*
X128074474Y-66347209D01*
X128074474Y-66347209D02*
X128216970Y-66567779D01*
X128216970Y-66567779D02*
X128346855Y-66783034D01*
X128346855Y-66783034D02*
X128463411Y-66992232D01*
X128463411Y-66992232D02*
X128565919Y-67194629D01*
X128565919Y-67194629D02*
X128653658Y-67389483D01*
X128653658Y-67389483D02*
X128725912Y-67576050D01*
X128725912Y-67576050D02*
X128781960Y-67753587D01*
X120349954Y-59903507D02*
X120423365Y-59973666D01*
X120423365Y-59973666D02*
X120510232Y-60049228D01*
X120510232Y-60049228D02*
X120609443Y-60129487D01*
X120609443Y-60129487D02*
X120719888Y-60213737D01*
X120719888Y-60213737D02*
X120840455Y-60301274D01*
X120840455Y-60301274D02*
X120970032Y-60391391D01*
X120970032Y-60391391D02*
X121107510Y-60483384D01*
X121107510Y-60483384D02*
X121251777Y-60576547D01*
X121251777Y-60576547D02*
X121401722Y-60670174D01*
X121401722Y-60670174D02*
X121556235Y-60763561D01*
X121556235Y-60763561D02*
X121714203Y-60856001D01*
X121714203Y-60856001D02*
X121874516Y-60946790D01*
X121874516Y-60946790D02*
X122036063Y-61035223D01*
X122036063Y-61035223D02*
X122197732Y-61120593D01*
X122197732Y-61120593D02*
X122358414Y-61202195D01*
X122358414Y-61202195D02*
X122516997Y-61279325D01*
X117809954Y-58287657D02*
X117908030Y-58337922D01*
X117908030Y-58337922D02*
X118006528Y-58389237D01*
X118006528Y-58389237D02*
X118105284Y-58441500D01*
X118105284Y-58441500D02*
X118204136Y-58494605D01*
X118204136Y-58494605D02*
X118302921Y-58548451D01*
X118302921Y-58548451D02*
X118401476Y-58602932D01*
X118401476Y-58602932D02*
X118499639Y-58657946D01*
X118499639Y-58657946D02*
X118597246Y-58713390D01*
X118597246Y-58713390D02*
X118694135Y-58769158D01*
X118694135Y-58769158D02*
X118790142Y-58825149D01*
X118790142Y-58825149D02*
X118885106Y-58881258D01*
X118885106Y-58881258D02*
X118978864Y-58937382D01*
X118978864Y-58937382D02*
X119071252Y-58993418D01*
X119071252Y-58993418D02*
X119162108Y-59049261D01*
X119162108Y-59049261D02*
X119251269Y-59104808D01*
X119251269Y-59104808D02*
X119338573Y-59159956D01*
X119338573Y-59159956D02*
X119423856Y-59214601D01*
X119423856Y-59214601D02*
X119587709Y-59321968D01*
X119587709Y-59321968D02*
X119741527Y-59426080D01*
X119741527Y-59426080D02*
X119884008Y-59526110D01*
X119884008Y-59526110D02*
X120013849Y-59621228D01*
X120013849Y-59621228D02*
X120129748Y-59710607D01*
X120129748Y-59710607D02*
X120230403Y-59793418D01*
X120230403Y-59793418D02*
X120314511Y-59868832D01*
X120314511Y-59868832D02*
X120349954Y-59903507D01*
X113118997Y-57288602D02*
X113364847Y-57291806D01*
X113364847Y-57291806D02*
X113596566Y-57295171D01*
X113596566Y-57295171D02*
X113814927Y-57298864D01*
X113814927Y-57298864D02*
X114020703Y-57303047D01*
X114020703Y-57303047D02*
X114214666Y-57307886D01*
X114214666Y-57307886D02*
X114397588Y-57313545D01*
X114397588Y-57313545D02*
X114570244Y-57320188D01*
X114570244Y-57320188D02*
X114733405Y-57327981D01*
X114733405Y-57327981D02*
X114887844Y-57337087D01*
X114887844Y-57337087D02*
X115034334Y-57347672D01*
X115034334Y-57347672D02*
X115173647Y-57359900D01*
X115173647Y-57359900D02*
X115306556Y-57373935D01*
X115306556Y-57373935D02*
X115433835Y-57389943D01*
X115433835Y-57389943D02*
X115556255Y-57408087D01*
X115556255Y-57408087D02*
X115674590Y-57428532D01*
X115674590Y-57428532D02*
X115789612Y-57451443D01*
X115789612Y-57451443D02*
X115902094Y-57476985D01*
X115902094Y-57476985D02*
X116012808Y-57505321D01*
X116012808Y-57505321D02*
X116122528Y-57536617D01*
X116122528Y-57536617D02*
X116232025Y-57571037D01*
X116232025Y-57571037D02*
X116342074Y-57608745D01*
X116342074Y-57608745D02*
X116453446Y-57649907D01*
X116453446Y-57649907D02*
X116566914Y-57694687D01*
X116566914Y-57694687D02*
X116683251Y-57743248D01*
X116683251Y-57743248D02*
X116803229Y-57795757D01*
X116803229Y-57795757D02*
X116927622Y-57852378D01*
X116927622Y-57852378D02*
X117057202Y-57913274D01*
X117057202Y-57913274D02*
X117192742Y-57978611D01*
X117192742Y-57978611D02*
X117335014Y-58048553D01*
X117335014Y-58048553D02*
X117484792Y-58123265D01*
X117484792Y-58123265D02*
X117642847Y-58202911D01*
X117642847Y-58202911D02*
X117809954Y-58287657D01*
X108621208Y-57821916D02*
X108750007Y-57779482D01*
X108750007Y-57779482D02*
X108875867Y-57739149D01*
X108875867Y-57739149D02*
X108999158Y-57700873D01*
X108999158Y-57700873D02*
X109120249Y-57664610D01*
X109120249Y-57664610D02*
X109239511Y-57630317D01*
X109239511Y-57630317D02*
X109357312Y-57597949D01*
X109357312Y-57597949D02*
X109474023Y-57567463D01*
X109474023Y-57567463D02*
X109590013Y-57538815D01*
X109590013Y-57538815D02*
X109705652Y-57511960D01*
X109705652Y-57511960D02*
X109821311Y-57486856D01*
X109821311Y-57486856D02*
X109937358Y-57463458D01*
X109937358Y-57463458D02*
X110054163Y-57441722D01*
X110054163Y-57441722D02*
X110172097Y-57421605D01*
X110172097Y-57421605D02*
X110291529Y-57403063D01*
X110291529Y-57403063D02*
X110412829Y-57386052D01*
X110412829Y-57386052D02*
X110536366Y-57370528D01*
X110536366Y-57370528D02*
X110662510Y-57356446D01*
X110662510Y-57356446D02*
X110791632Y-57343765D01*
X110791632Y-57343765D02*
X110924100Y-57332438D01*
X110924100Y-57332438D02*
X111060285Y-57322424D01*
X111060285Y-57322424D02*
X111200557Y-57313677D01*
X111200557Y-57313677D02*
X111345284Y-57306155D01*
X111345284Y-57306155D02*
X111494838Y-57299812D01*
X111494838Y-57299812D02*
X111649587Y-57294606D01*
X111649587Y-57294606D02*
X111809902Y-57290492D01*
X111809902Y-57290492D02*
X111976151Y-57287427D01*
X111976151Y-57287427D02*
X112148706Y-57285366D01*
X112148706Y-57285366D02*
X112327936Y-57284267D01*
X112327936Y-57284267D02*
X112514210Y-57284085D01*
X112514210Y-57284085D02*
X112707898Y-57284775D01*
X112707898Y-57284775D02*
X112909370Y-57286296D01*
X112909370Y-57286296D02*
X113118997Y-57288602D01*
X106507565Y-58800150D02*
X106589489Y-58731369D01*
X106589489Y-58731369D02*
X106706026Y-58652955D01*
X106706026Y-58652955D02*
X106801141Y-58596163D01*
X106801141Y-58596163D02*
X106908931Y-58536343D01*
X106908931Y-58536343D02*
X107028311Y-58473996D01*
X107028311Y-58473996D02*
X107158199Y-58409625D01*
X107158199Y-58409625D02*
X107297510Y-58343730D01*
X107297510Y-58343730D02*
X107445161Y-58276813D01*
X107445161Y-58276813D02*
X107600068Y-58209376D01*
X107600068Y-58209376D02*
X107761148Y-58141921D01*
X107761148Y-58141921D02*
X107927317Y-58074948D01*
X107927317Y-58074948D02*
X108097491Y-58008959D01*
X108097491Y-58008959D02*
X108270586Y-57944457D01*
X108270586Y-57944457D02*
X108445520Y-57881942D01*
X108445520Y-57881942D02*
X108621208Y-57821916D01*
X105520074Y-58568541D02*
X105555763Y-58700283D01*
X105555763Y-58700283D02*
X105592926Y-58815921D01*
X105592926Y-58815921D02*
X105631991Y-58915557D01*
X105631991Y-58915557D02*
X105695090Y-59035222D01*
X105695090Y-59035222D02*
X105764875Y-59119444D01*
X105764875Y-59119444D02*
X105870817Y-59177192D01*
X105870817Y-59177192D02*
X105994635Y-59173333D01*
X105994635Y-59173333D02*
X106101287Y-59130493D01*
X106101287Y-59130493D02*
X106221364Y-59053790D01*
X106221364Y-59053790D02*
X106309586Y-58984009D01*
X106309586Y-58984009D02*
X106404843Y-58899429D01*
X106404843Y-58899429D02*
X106507565Y-58800150D01*
X103613489Y-56924003D02*
X103772397Y-56932191D01*
X103772397Y-56932191D02*
X103929824Y-56956285D01*
X103929824Y-56956285D02*
X104084951Y-56995580D01*
X104084951Y-56995580D02*
X104236961Y-57049370D01*
X104236961Y-57049370D02*
X104385035Y-57116949D01*
X104385035Y-57116949D02*
X104528355Y-57197611D01*
X104528355Y-57197611D02*
X104666103Y-57290650D01*
X104666103Y-57290650D02*
X104797460Y-57395361D01*
X104797460Y-57395361D02*
X104921608Y-57511038D01*
X104921608Y-57511038D02*
X105037729Y-57636975D01*
X105037729Y-57636975D02*
X105145006Y-57772467D01*
X105145006Y-57772467D02*
X105242619Y-57916807D01*
X105242619Y-57916807D02*
X105329750Y-58069291D01*
X105329750Y-58069291D02*
X105405582Y-58229211D01*
X105405582Y-58229211D02*
X105469296Y-58395863D01*
X105469296Y-58395863D02*
X105520074Y-58568541D01*
X101307997Y-58597582D02*
X101324994Y-58481939D01*
X101324994Y-58481939D02*
X101373855Y-58356941D01*
X101373855Y-58356941D02*
X101451384Y-58224906D01*
X101451384Y-58224906D02*
X101554382Y-58088156D01*
X101554382Y-58088156D02*
X101679655Y-57949011D01*
X101679655Y-57949011D02*
X101824005Y-57809792D01*
X101824005Y-57809792D02*
X101902335Y-57740879D01*
X101902335Y-57740879D02*
X101984236Y-57672818D01*
X101984236Y-57672818D02*
X102069307Y-57605899D01*
X102069307Y-57605899D02*
X102157150Y-57540411D01*
X102157150Y-57540411D02*
X102247365Y-57476645D01*
X102247365Y-57476645D02*
X102339552Y-57414891D01*
X102339552Y-57414891D02*
X102433311Y-57355439D01*
X102433311Y-57355439D02*
X102528244Y-57298578D01*
X102528244Y-57298578D02*
X102623950Y-57244600D01*
X102623950Y-57244600D02*
X102720030Y-57193793D01*
X102720030Y-57193793D02*
X102816085Y-57146449D01*
X102816085Y-57146449D02*
X102911714Y-57102856D01*
X102911714Y-57102856D02*
X103006518Y-57063306D01*
X103006518Y-57063306D02*
X103192054Y-56997493D01*
X103192054Y-56997493D02*
X103369496Y-56951329D01*
X103369496Y-56951329D02*
X103535646Y-56927135D01*
X103535646Y-56927135D02*
X103613489Y-56924003D01*
X102323997Y-58575002D02*
X102246765Y-58659755D01*
X102246765Y-58659755D02*
X102165664Y-58733523D01*
X102165664Y-58733523D02*
X102081917Y-58796279D01*
X102081917Y-58796279D02*
X101954003Y-58869703D01*
X101954003Y-58869703D02*
X101827004Y-58918196D01*
X101827004Y-58918196D02*
X101705039Y-58941666D01*
X101705039Y-58941666D02*
X101592232Y-58940021D01*
X101592232Y-58940021D02*
X101492705Y-58913170D01*
X101492705Y-58913170D02*
X101387783Y-58838000D01*
X101387783Y-58838000D02*
X101335270Y-58751978D01*
X101335270Y-58751978D02*
X101309777Y-58640445D01*
X101309777Y-58640445D02*
X101307997Y-58597582D01*
X103085997Y-58575002D02*
X103076840Y-58450591D01*
X103076840Y-58450591D02*
X103050389Y-58351920D01*
X103050389Y-58351920D02*
X102990856Y-58260399D01*
X102990856Y-58260399D02*
X102882529Y-58210349D01*
X102882529Y-58210349D02*
X102773148Y-58221789D01*
X102773148Y-58221789D02*
X102680234Y-58260399D01*
X102680234Y-58260399D02*
X102579691Y-58324750D01*
X102579691Y-58324750D02*
X102473046Y-58414840D01*
X102473046Y-58414840D02*
X102399312Y-58489201D01*
X102399312Y-58489201D02*
X102323997Y-58575002D01*
X103314910Y-58956002D02*
X103215894Y-58918282D01*
X103215894Y-58918282D02*
X103145647Y-58830832D01*
X103145647Y-58830832D02*
X103104059Y-58722937D01*
X103104059Y-58722937D02*
X103087184Y-58613813D01*
X103087184Y-58613813D02*
X103085997Y-58575002D01*
X104067649Y-59843829D02*
X104013100Y-59753388D01*
X104013100Y-59753388D02*
X103957751Y-59665483D01*
X103957751Y-59665483D02*
X103901987Y-59580569D01*
X103901987Y-59580569D02*
X103818407Y-59459803D01*
X103818407Y-59459803D02*
X103736065Y-59348328D01*
X103736065Y-59348328D02*
X103656264Y-59247679D01*
X103656264Y-59247679D02*
X103580305Y-59159393D01*
X103580305Y-59159393D02*
X103509491Y-59085007D01*
X103509491Y-59085007D02*
X103425328Y-59010102D01*
X103425328Y-59010102D02*
X103327328Y-58957162D01*
X103327328Y-58957162D02*
X103314910Y-58956002D01*
X100418997Y-131727000D02*
X100418997Y-130746190D01*
X97879000Y-131893066D02*
X100418997Y-131727000D01*
X101459130Y-63240123D02*
X101547893Y-63146503D01*
X101547893Y-63146503D02*
X101621565Y-63074017D01*
X101621565Y-63074017D02*
X101705751Y-62994385D01*
X101705751Y-62994385D02*
X101799526Y-62908389D01*
X101799526Y-62908389D02*
X101901961Y-62816812D01*
X101901961Y-62816812D02*
X102012131Y-62720434D01*
X102012131Y-62720434D02*
X102129107Y-62620039D01*
X102129107Y-62620039D02*
X102251964Y-62516407D01*
X102251964Y-62516407D02*
X102379773Y-62410322D01*
X102379773Y-62410322D02*
X102511608Y-62302564D01*
X102511608Y-62302564D02*
X102646542Y-62193916D01*
X102646542Y-62193916D02*
X102783648Y-62085160D01*
X102783648Y-62085160D02*
X102921999Y-61977077D01*
X102921999Y-61977077D02*
X103060668Y-61870450D01*
X103060668Y-61870450D02*
X103198728Y-61766061D01*
X103198728Y-61766061D02*
X103267240Y-61714950D01*
X100737195Y-63782002D02*
X100848318Y-63748982D01*
X100848318Y-63748982D02*
X100952990Y-63689131D01*
X100952990Y-63689131D02*
X101047467Y-63622824D01*
X101047467Y-63622824D02*
X101148280Y-63542548D01*
X101148280Y-63542548D02*
X101226267Y-63474510D01*
X101226267Y-63474510D02*
X101304903Y-63400801D01*
X101304903Y-63400801D02*
X101382941Y-63322359D01*
X101382941Y-63322359D02*
X101459130Y-63240123D01*
X99861793Y-64283327D02*
X99961272Y-64207244D01*
X99961272Y-64207244D02*
X100061525Y-64134673D01*
X100061525Y-64134673D02*
X100161037Y-64066481D01*
X100161037Y-64066481D02*
X100258294Y-64003534D01*
X100258294Y-64003534D02*
X100351780Y-63946701D01*
X100351780Y-63946701D02*
X100439981Y-63896850D01*
X100439981Y-63896850D02*
X100546743Y-63842739D01*
X100546743Y-63842739D02*
X100657725Y-63797855D01*
X100657725Y-63797855D02*
X100737195Y-63782002D01*
X98297730Y-64937541D02*
X98445751Y-64908534D01*
X98445751Y-64908534D02*
X98548783Y-64883594D01*
X98548783Y-64883594D02*
X98654360Y-64854563D01*
X98654360Y-64854563D02*
X98761680Y-64821777D01*
X98761680Y-64821777D02*
X98869942Y-64785572D01*
X98869942Y-64785572D02*
X98978342Y-64746282D01*
X98978342Y-64746282D02*
X99086081Y-64704243D01*
X99086081Y-64704243D02*
X99192355Y-64659791D01*
X99192355Y-64659791D02*
X99296362Y-64613261D01*
X99296362Y-64613261D02*
X99397302Y-64564988D01*
X99397302Y-64564988D02*
X99494372Y-64515308D01*
X99494372Y-64515308D02*
X99586769Y-64464556D01*
X99586769Y-64464556D02*
X99673693Y-64413068D01*
X99673693Y-64413068D02*
X99792061Y-64335188D01*
X99792061Y-64335188D02*
X99861793Y-64283327D01*
X96648722Y-65365881D02*
X96769064Y-65322307D01*
X96769064Y-65322307D02*
X96904737Y-65277300D01*
X96904737Y-65277300D02*
X97002292Y-65246864D01*
X97002292Y-65246864D02*
X97104548Y-65216340D01*
X97104548Y-65216340D02*
X97210657Y-65185947D01*
X97210657Y-65185947D02*
X97319775Y-65155905D01*
X97319775Y-65155905D02*
X97431056Y-65126433D01*
X97431056Y-65126433D02*
X97543655Y-65097750D01*
X97543655Y-65097750D02*
X97656727Y-65070078D01*
X97656727Y-65070078D02*
X97769425Y-65043634D01*
X97769425Y-65043634D02*
X97880905Y-65018640D01*
X97880905Y-65018640D02*
X97990321Y-64995313D01*
X97990321Y-64995313D02*
X98096827Y-64973875D01*
X98096827Y-64973875D02*
X98199578Y-64954544D01*
X98199578Y-64954544D02*
X98297730Y-64937541D01*
X92203722Y-65705445D02*
X92395488Y-65701798D01*
X92395488Y-65701798D02*
X92586694Y-65697484D01*
X92586694Y-65697484D02*
X92777052Y-65692526D01*
X92777052Y-65692526D02*
X92966280Y-65686943D01*
X92966280Y-65686943D02*
X93154091Y-65680759D01*
X93154091Y-65680759D02*
X93340200Y-65673996D01*
X93340200Y-65673996D02*
X93524324Y-65666674D01*
X93524324Y-65666674D02*
X93706177Y-65658815D01*
X93706177Y-65658815D02*
X93885474Y-65650443D01*
X93885474Y-65650443D02*
X94061930Y-65641577D01*
X94061930Y-65641577D02*
X94235261Y-65632240D01*
X94235261Y-65632240D02*
X94405182Y-65622454D01*
X94405182Y-65622454D02*
X94571407Y-65612240D01*
X94571407Y-65612240D02*
X94733652Y-65601620D01*
X94733652Y-65601620D02*
X94891633Y-65590617D01*
X94891633Y-65590617D02*
X95045063Y-65579251D01*
X95045063Y-65579251D02*
X95193659Y-65567544D01*
X95193659Y-65567544D02*
X95337135Y-65555519D01*
X95337135Y-65555519D02*
X95475207Y-65543197D01*
X95475207Y-65543197D02*
X95607589Y-65530599D01*
X95607589Y-65530599D02*
X95733997Y-65517748D01*
X95733997Y-65517748D02*
X95854147Y-65504665D01*
X95854147Y-65504665D02*
X95967752Y-65491373D01*
X95967752Y-65491373D02*
X96074528Y-65477892D01*
X96074528Y-65477892D02*
X96174191Y-65464244D01*
X96174191Y-65464244D02*
X96351037Y-65436537D01*
X96351037Y-65436537D02*
X96496009Y-65408426D01*
X96496009Y-65408426D02*
X96606830Y-65380084D01*
X96606830Y-65380084D02*
X96648722Y-65365881D01*
X87167368Y-65997696D02*
X87320497Y-65974123D01*
X87320497Y-65974123D02*
X87507230Y-65950559D01*
X87507230Y-65950559D02*
X87612389Y-65938827D01*
X87612389Y-65938827D02*
X87724982Y-65927153D01*
X87724982Y-65927153D02*
X87844683Y-65915556D01*
X87844683Y-65915556D02*
X87971172Y-65904055D01*
X87971172Y-65904055D02*
X88104124Y-65892669D01*
X88104124Y-65892669D02*
X88243218Y-65881415D01*
X88243218Y-65881415D02*
X88388129Y-65870314D01*
X88388129Y-65870314D02*
X88538537Y-65859383D01*
X88538537Y-65859383D02*
X88694118Y-65848641D01*
X88694118Y-65848641D02*
X88854548Y-65838108D01*
X88854548Y-65838108D02*
X89019506Y-65827801D01*
X89019506Y-65827801D02*
X89188669Y-65817741D01*
X89188669Y-65817741D02*
X89361713Y-65807944D01*
X89361713Y-65807944D02*
X89538317Y-65798430D01*
X89538317Y-65798430D02*
X89718157Y-65789218D01*
X89718157Y-65789218D02*
X89900910Y-65780327D01*
X89900910Y-65780327D02*
X90086254Y-65771775D01*
X90086254Y-65771775D02*
X90273866Y-65763580D01*
X90273866Y-65763580D02*
X90463424Y-65755763D01*
X90463424Y-65755763D02*
X90654604Y-65748340D01*
X90654604Y-65748340D02*
X90847083Y-65741332D01*
X90847083Y-65741332D02*
X91040540Y-65734757D01*
X91040540Y-65734757D02*
X91234651Y-65728633D01*
X91234651Y-65728633D02*
X91429093Y-65722980D01*
X91429093Y-65722980D02*
X91623544Y-65717816D01*
X91623544Y-65717816D02*
X91817681Y-65713159D01*
X91817681Y-65713159D02*
X92011181Y-65709029D01*
X92011181Y-65709029D02*
X92203722Y-65705445D01*
X79732982Y-70488733D02*
X79919359Y-70281942D01*
X79919359Y-70281942D02*
X80111957Y-70077471D01*
X80111957Y-70077471D02*
X80310450Y-69875516D01*
X80310450Y-69875516D02*
X80514511Y-69676275D01*
X80514511Y-69676275D02*
X80723817Y-69479944D01*
X80723817Y-69479944D02*
X80938040Y-69286720D01*
X80938040Y-69286720D02*
X81156856Y-69096798D01*
X81156856Y-69096798D02*
X81379939Y-68910377D01*
X81379939Y-68910377D02*
X81606963Y-68727653D01*
X81606963Y-68727653D02*
X81837602Y-68548822D01*
X81837602Y-68548822D02*
X82071531Y-68374081D01*
X82071531Y-68374081D02*
X82308425Y-68203627D01*
X82308425Y-68203627D02*
X82547957Y-68037656D01*
X82547957Y-68037656D02*
X82789803Y-67876366D01*
X82789803Y-67876366D02*
X83033636Y-67719952D01*
X83033636Y-67719952D02*
X83279131Y-67568613D01*
X83279131Y-67568613D02*
X83525962Y-67422543D01*
X83525962Y-67422543D02*
X83773804Y-67281941D01*
X83773804Y-67281941D02*
X84022330Y-67147002D01*
X84022330Y-67147002D02*
X84271217Y-67017924D01*
X84271217Y-67017924D02*
X84520137Y-66894903D01*
X84520137Y-66894903D02*
X84768765Y-66778135D01*
X84768765Y-66778135D02*
X85016776Y-66667818D01*
X85016776Y-66667818D02*
X85263844Y-66564149D01*
X85263844Y-66564149D02*
X85509644Y-66467323D01*
X85509644Y-66467323D02*
X85753849Y-66377538D01*
X85753849Y-66377538D02*
X85996134Y-66294990D01*
X85996134Y-66294990D02*
X86236174Y-66219876D01*
X86236174Y-66219876D02*
X86473643Y-66152393D01*
X86473643Y-66152393D02*
X86708215Y-66092738D01*
X86708215Y-66092738D02*
X86939565Y-66041106D01*
X86939565Y-66041106D02*
X87167368Y-65997696D01*
X78228891Y-72202185D02*
X78319268Y-72098963D01*
X78319268Y-72098963D02*
X78413729Y-71991126D01*
X78413729Y-71991126D02*
X78511500Y-71879552D01*
X78511500Y-71879552D02*
X78611812Y-71765119D01*
X78611812Y-71765119D02*
X78713893Y-71648707D01*
X78713893Y-71648707D02*
X78816971Y-71531192D01*
X78816971Y-71531192D02*
X78920277Y-71413455D01*
X78920277Y-71413455D02*
X79023037Y-71296374D01*
X79023037Y-71296374D02*
X79124482Y-71180826D01*
X79124482Y-71180826D02*
X79223840Y-71067690D01*
X79223840Y-71067690D02*
X79320341Y-70957846D01*
X79320341Y-70957846D02*
X79413212Y-70852171D01*
X79413212Y-70852171D02*
X79501683Y-70751543D01*
X79501683Y-70751543D02*
X79584982Y-70656842D01*
X79584982Y-70656842D02*
X79662339Y-70568946D01*
X79662339Y-70568946D02*
X79732982Y-70488733D01*
X75653999Y-76251981D02*
X75696525Y-76088115D01*
X75696525Y-76088115D02*
X75768315Y-75921697D01*
X75768315Y-75921697D02*
X75815870Y-75823493D01*
X75815870Y-75823493D02*
X75870589Y-75716252D01*
X75870589Y-75716252D02*
X75932014Y-75600693D01*
X75932014Y-75600693D02*
X75999687Y-75477535D01*
X75999687Y-75477535D02*
X76073152Y-75347498D01*
X76073152Y-75347498D02*
X76151951Y-75211302D01*
X76151951Y-75211302D02*
X76235626Y-75069664D01*
X76235626Y-75069664D02*
X76323721Y-74923306D01*
X76323721Y-74923306D02*
X76415777Y-74772946D01*
X76415777Y-74772946D02*
X76511338Y-74619303D01*
X76511338Y-74619303D02*
X76609947Y-74463097D01*
X76609947Y-74463097D02*
X76711145Y-74305047D01*
X76711145Y-74305047D02*
X76814475Y-74145872D01*
X76814475Y-74145872D02*
X76919481Y-73986293D01*
X76919481Y-73986293D02*
X77025705Y-73827027D01*
X77025705Y-73827027D02*
X77132688Y-73668795D01*
X77132688Y-73668795D02*
X77239975Y-73512316D01*
X77239975Y-73512316D02*
X77347108Y-73358309D01*
X77347108Y-73358309D02*
X77453629Y-73207494D01*
X77453629Y-73207494D02*
X77559080Y-73060589D01*
X77559080Y-73060589D02*
X77663006Y-72918314D01*
X77663006Y-72918314D02*
X77764947Y-72781390D01*
X77764947Y-72781390D02*
X77864448Y-72650533D01*
X77864448Y-72650533D02*
X77961050Y-72526466D01*
X77961050Y-72526466D02*
X78054296Y-72409905D01*
X78054296Y-72409905D02*
X78143728Y-72301572D01*
X78143728Y-72301572D02*
X78228891Y-72202185D01*
X75166458Y-77554706D02*
X75216122Y-77442925D01*
X75216122Y-77442925D02*
X75264395Y-77332075D01*
X75264395Y-77332075D02*
X75311024Y-77222824D01*
X75311024Y-77222824D02*
X75355761Y-77115840D01*
X75355761Y-77115840D02*
X75398356Y-77011792D01*
X75398356Y-77011792D02*
X75438557Y-76911346D01*
X75438557Y-76911346D02*
X75476117Y-76815171D01*
X75476117Y-76815171D02*
X75526955Y-76680376D01*
X75526955Y-76680376D02*
X75570441Y-76558948D01*
X75570441Y-76558948D02*
X75605732Y-76453141D01*
X75605732Y-76453141D02*
X75638581Y-76340258D01*
X75638581Y-76340258D02*
X75653999Y-76251981D01*
X74386242Y-80101501D02*
X74418585Y-79947087D01*
X74418585Y-79947087D02*
X74454985Y-79785945D01*
X74454985Y-79785945D02*
X74495040Y-79619381D01*
X74495040Y-79619381D02*
X74538352Y-79448700D01*
X74538352Y-79448700D02*
X74584520Y-79275208D01*
X74584520Y-79275208D02*
X74633144Y-79100211D01*
X74633144Y-79100211D02*
X74683823Y-78925014D01*
X74683823Y-78925014D02*
X74736159Y-78750924D01*
X74736159Y-78750924D02*
X74789750Y-78579245D01*
X74789750Y-78579245D02*
X74844198Y-78411283D01*
X74844198Y-78411283D02*
X74899102Y-78248345D01*
X74899102Y-78248345D02*
X74954061Y-78091736D01*
X74954061Y-78091736D02*
X75008676Y-77942762D01*
X75008676Y-77942762D02*
X75062547Y-77802729D01*
X75062547Y-77802729D02*
X75115275Y-77672941D01*
X75115275Y-77672941D02*
X75166458Y-77554706D01*
X73718170Y-81562002D02*
X73834454Y-81527180D01*
X73834454Y-81527180D02*
X73923839Y-81448779D01*
X73923839Y-81448779D02*
X73988897Y-81360182D01*
X73988897Y-81360182D02*
X74052358Y-81245824D01*
X74052358Y-81245824D02*
X74114315Y-81105503D01*
X74114315Y-81105503D02*
X74154828Y-80997433D01*
X74154828Y-80997433D02*
X74194741Y-80877676D01*
X74194741Y-80877676D02*
X74234080Y-80746172D01*
X74234080Y-80746172D02*
X74272872Y-80602862D01*
X74272872Y-80602862D02*
X74311145Y-80447686D01*
X74311145Y-80447686D02*
X74348926Y-80280585D01*
X74348926Y-80280585D02*
X74386242Y-80101501D01*
X68907362Y-85142775D02*
X69002251Y-84999197D01*
X69002251Y-84999197D02*
X69107154Y-84852873D01*
X69107154Y-84852873D02*
X69221426Y-84704282D01*
X69221426Y-84704282D02*
X69344424Y-84553902D01*
X69344424Y-84553902D02*
X69475505Y-84402213D01*
X69475505Y-84402213D02*
X69614024Y-84249693D01*
X69614024Y-84249693D02*
X69759339Y-84096822D01*
X69759339Y-84096822D02*
X69910805Y-83944079D01*
X69910805Y-83944079D02*
X70067779Y-83791942D01*
X70067779Y-83791942D02*
X70229617Y-83640891D01*
X70229617Y-83640891D02*
X70395677Y-83491405D01*
X70395677Y-83491405D02*
X70565313Y-83343962D01*
X70565313Y-83343962D02*
X70737884Y-83199042D01*
X70737884Y-83199042D02*
X70912744Y-83057124D01*
X70912744Y-83057124D02*
X71089252Y-82918687D01*
X71089252Y-82918687D02*
X71266762Y-82784210D01*
X71266762Y-82784210D02*
X71444631Y-82654172D01*
X71444631Y-82654172D02*
X71622217Y-82529051D01*
X71622217Y-82529051D02*
X71798874Y-82409328D01*
X71798874Y-82409328D02*
X71973960Y-82295480D01*
X71973960Y-82295480D02*
X72146832Y-82187988D01*
X72146832Y-82187988D02*
X72316845Y-82087329D01*
X72316845Y-82087329D02*
X72483355Y-81993984D01*
X72483355Y-81993984D02*
X72645721Y-81908431D01*
X72645721Y-81908431D02*
X72803297Y-81831148D01*
X72803297Y-81831148D02*
X72955440Y-81762616D01*
X72955440Y-81762616D02*
X73101506Y-81703313D01*
X73101506Y-81703313D02*
X73240853Y-81653718D01*
X73240853Y-81653718D02*
X73372837Y-81614311D01*
X73372837Y-81614311D02*
X73496813Y-81585569D01*
X73496813Y-81585569D02*
X73612138Y-81567973D01*
X73612138Y-81567973D02*
X73718170Y-81562002D01*
X69540939Y-90782520D02*
X69412885Y-90698615D01*
X69412885Y-90698615D02*
X69291089Y-90602289D01*
X69291089Y-90602289D02*
X69175623Y-90494188D01*
X69175623Y-90494188D02*
X69066561Y-90374957D01*
X69066561Y-90374957D02*
X68963975Y-90245244D01*
X68963975Y-90245244D02*
X68867937Y-90105694D01*
X68867937Y-90105694D02*
X68778519Y-89956955D01*
X68778519Y-89956955D02*
X68695796Y-89799673D01*
X68695796Y-89799673D02*
X68619839Y-89634494D01*
X68619839Y-89634494D02*
X68550721Y-89462065D01*
X68550721Y-89462065D02*
X68488514Y-89283032D01*
X68488514Y-89283032D02*
X68433292Y-89098042D01*
X68433292Y-89098042D02*
X68385126Y-88907741D01*
X68385126Y-88907741D02*
X68344090Y-88712775D01*
X68344090Y-88712775D02*
X68310256Y-88513792D01*
X68310256Y-88513792D02*
X68283696Y-88311438D01*
X68283696Y-88311438D02*
X68264484Y-88106358D01*
X68264484Y-88106358D02*
X68252692Y-87899200D01*
X68252692Y-87899200D02*
X68248392Y-87690610D01*
X68248392Y-87690610D02*
X68251657Y-87481234D01*
X68251657Y-87481234D02*
X68262560Y-87271720D01*
X68262560Y-87271720D02*
X68281174Y-87062713D01*
X68281174Y-87062713D02*
X68307571Y-86854859D01*
X68307571Y-86854859D02*
X68341823Y-86648807D01*
X68341823Y-86648807D02*
X68384004Y-86445201D01*
X68384004Y-86445201D02*
X68434185Y-86244688D01*
X68434185Y-86244688D02*
X68492440Y-86047915D01*
X68492440Y-86047915D02*
X68558842Y-85855529D01*
X68558842Y-85855529D02*
X68633462Y-85668175D01*
X68633462Y-85668175D02*
X68716374Y-85486500D01*
X68716374Y-85486500D02*
X68807649Y-85311151D01*
X68807649Y-85311151D02*
X68907362Y-85142775D01*
X74232834Y-90579003D02*
X74120706Y-90650727D01*
X74120706Y-90650727D02*
X74001914Y-90718427D01*
X74001914Y-90718427D02*
X73876903Y-90782083D01*
X73876903Y-90782083D02*
X73746115Y-90841676D01*
X73746115Y-90841676D02*
X73609994Y-90897186D01*
X73609994Y-90897186D02*
X73468986Y-90948595D01*
X73468986Y-90948595D02*
X73323532Y-90995884D01*
X73323532Y-90995884D02*
X73174078Y-91039032D01*
X73174078Y-91039032D02*
X73021066Y-91078021D01*
X73021066Y-91078021D02*
X72864942Y-91112831D01*
X72864942Y-91112831D02*
X72706148Y-91143444D01*
X72706148Y-91143444D02*
X72545129Y-91169840D01*
X72545129Y-91169840D02*
X72382328Y-91191999D01*
X72382328Y-91191999D02*
X72218190Y-91209903D01*
X72218190Y-91209903D02*
X72053157Y-91223532D01*
X72053157Y-91223532D02*
X71887675Y-91232866D01*
X71887675Y-91232866D02*
X71722186Y-91237888D01*
X71722186Y-91237888D02*
X71557136Y-91238577D01*
X71557136Y-91238577D02*
X71392966Y-91234914D01*
X71392966Y-91234914D02*
X71230122Y-91226880D01*
X71230122Y-91226880D02*
X71069048Y-91214456D01*
X71069048Y-91214456D02*
X70910186Y-91197622D01*
X70910186Y-91197622D02*
X70753982Y-91176359D01*
X70753982Y-91176359D02*
X70600878Y-91150648D01*
X70600878Y-91150648D02*
X70451319Y-91120470D01*
X70451319Y-91120470D02*
X70305748Y-91085805D01*
X70305748Y-91085805D02*
X70164610Y-91046634D01*
X70164610Y-91046634D02*
X70028348Y-91002939D01*
X70028348Y-91002939D02*
X69897406Y-90954699D01*
X69897406Y-90954699D02*
X69772228Y-90901895D01*
X69772228Y-90901895D02*
X69653257Y-90844508D01*
X69653257Y-90844508D02*
X69540939Y-90782520D01*
X75301357Y-89944002D02*
X75198798Y-89982696D01*
X75198798Y-89982696D02*
X75096665Y-90036270D01*
X75096665Y-90036270D02*
X75002646Y-90089474D01*
X75002646Y-90089474D02*
X74895750Y-90152618D01*
X74895750Y-90152618D02*
X74777827Y-90224605D01*
X74777827Y-90224605D02*
X74650724Y-90304336D01*
X74650724Y-90304336D02*
X74561803Y-90361249D01*
X74561803Y-90361249D02*
X74470172Y-90420790D01*
X74470172Y-90420790D02*
X74376379Y-90482633D01*
X74376379Y-90482633D02*
X74280971Y-90546453D01*
X74280971Y-90546453D02*
X74232834Y-90579003D01*
X76877576Y-91418952D02*
X76803414Y-91343347D01*
X76803414Y-91343347D02*
X76729849Y-91268701D01*
X76729849Y-91268701D02*
X76656981Y-91195109D01*
X76656981Y-91195109D02*
X76584912Y-91122664D01*
X76584912Y-91122664D02*
X76513743Y-91051462D01*
X76513743Y-91051462D02*
X76374507Y-90913163D01*
X76374507Y-90913163D02*
X76240083Y-90780967D01*
X76240083Y-90780967D02*
X76111277Y-90655632D01*
X76111277Y-90655632D02*
X75988899Y-90537912D01*
X75988899Y-90537912D02*
X75873755Y-90428565D01*
X75873755Y-90428565D02*
X75766655Y-90328346D01*
X75766655Y-90328346D02*
X75668407Y-90238012D01*
X75668407Y-90238012D02*
X75579818Y-90158318D01*
X75579818Y-90158318D02*
X75501697Y-90090022D01*
X75501697Y-90090022D02*
X75405909Y-90010601D01*
X75405909Y-90010601D02*
X75322373Y-89951653D01*
X75322373Y-89951653D02*
X75301357Y-89944002D01*
X81369000Y-94521710D02*
X81234152Y-94478664D01*
X81234152Y-94478664D02*
X81099567Y-94432568D01*
X81099567Y-94432568D02*
X80965183Y-94383377D01*
X80965183Y-94383377D02*
X80830938Y-94331049D01*
X80830938Y-94331049D02*
X80696770Y-94275542D01*
X80696770Y-94275542D02*
X80562617Y-94216812D01*
X80562617Y-94216812D02*
X80428418Y-94154818D01*
X80428418Y-94154818D02*
X80294111Y-94089516D01*
X80294111Y-94089516D02*
X80159634Y-94020863D01*
X80159634Y-94020863D02*
X80024924Y-93948817D01*
X80024924Y-93948817D02*
X79889921Y-93873336D01*
X79889921Y-93873336D02*
X79754563Y-93794376D01*
X79754563Y-93794376D02*
X79618787Y-93711895D01*
X79618787Y-93711895D02*
X79482533Y-93625850D01*
X79482533Y-93625850D02*
X79345737Y-93536198D01*
X79345737Y-93536198D02*
X79208339Y-93442897D01*
X79208339Y-93442897D02*
X79070276Y-93345905D01*
X79070276Y-93345905D02*
X78931487Y-93245177D01*
X78931487Y-93245177D02*
X78791910Y-93140673D01*
X78791910Y-93140673D02*
X78651483Y-93032348D01*
X78651483Y-93032348D02*
X78510145Y-92920161D01*
X78510145Y-92920161D02*
X78367833Y-92804068D01*
X78367833Y-92804068D02*
X78224486Y-92684027D01*
X78224486Y-92684027D02*
X78080041Y-92559996D01*
X78080041Y-92559996D02*
X77934438Y-92431930D01*
X77934438Y-92431930D02*
X77787614Y-92299789D01*
X77787614Y-92299789D02*
X77639508Y-92163529D01*
X77639508Y-92163529D02*
X77490057Y-92023107D01*
X77490057Y-92023107D02*
X77339200Y-91878482D01*
X77339200Y-91878482D02*
X77186876Y-91729609D01*
X77186876Y-91729609D02*
X77033021Y-91576446D01*
X77033021Y-91576446D02*
X76877576Y-91418952D01*
X83401000Y-95165907D02*
X83292231Y-95130504D01*
X83292231Y-95130504D02*
X83176169Y-95092911D01*
X83176169Y-95092911D02*
X83053857Y-95053460D01*
X83053857Y-95053460D02*
X82926336Y-95012480D01*
X82926336Y-95012480D02*
X82794648Y-94970302D01*
X82794648Y-94970302D02*
X82659835Y-94927256D01*
X82659835Y-94927256D02*
X82522938Y-94883672D01*
X82522938Y-94883672D02*
X82384999Y-94839881D01*
X82384999Y-94839881D02*
X82247060Y-94796212D01*
X82247060Y-94796212D02*
X82110163Y-94752996D01*
X82110163Y-94752996D02*
X81975349Y-94710563D01*
X81975349Y-94710563D02*
X81843661Y-94669244D01*
X81843661Y-94669244D02*
X81716141Y-94629369D01*
X81716141Y-94629369D02*
X81593829Y-94591268D01*
X81593829Y-94591268D02*
X81477768Y-94555272D01*
X81477768Y-94555272D02*
X81369000Y-94521710D01*
X90005000Y-96296178D02*
X89756865Y-96271648D01*
X89756865Y-96271648D02*
X89508765Y-96245966D01*
X89508765Y-96245966D02*
X89260963Y-96219179D01*
X89260963Y-96219179D02*
X89013727Y-96191331D01*
X89013727Y-96191331D02*
X88767323Y-96162468D01*
X88767323Y-96162468D02*
X88522016Y-96132635D01*
X88522016Y-96132635D02*
X88278073Y-96101879D01*
X88278073Y-96101879D02*
X88035759Y-96070244D01*
X88035759Y-96070244D02*
X87795342Y-96037777D01*
X87795342Y-96037777D02*
X87557087Y-96004522D01*
X87557087Y-96004522D02*
X87321259Y-95970525D01*
X87321259Y-95970525D02*
X87088126Y-95935832D01*
X87088126Y-95935832D02*
X86857953Y-95900489D01*
X86857953Y-95900489D02*
X86631006Y-95864540D01*
X86631006Y-95864540D02*
X86407552Y-95828032D01*
X86407552Y-95828032D02*
X86187856Y-95791010D01*
X86187856Y-95791010D02*
X85972184Y-95753519D01*
X85972184Y-95753519D02*
X85760804Y-95715605D01*
X85760804Y-95715605D02*
X85553980Y-95677314D01*
X85553980Y-95677314D02*
X85351978Y-95638691D01*
X85351978Y-95638691D02*
X85155066Y-95599782D01*
X85155066Y-95599782D02*
X84963509Y-95560632D01*
X84963509Y-95560632D02*
X84777573Y-95521286D01*
X84777573Y-95521286D02*
X84597524Y-95481791D01*
X84597524Y-95481791D02*
X84423628Y-95442192D01*
X84423628Y-95442192D02*
X84256152Y-95402534D01*
X84256152Y-95402534D02*
X84095360Y-95362863D01*
X84095360Y-95362863D02*
X83941521Y-95323225D01*
X83941521Y-95323225D02*
X83794899Y-95283664D01*
X83794899Y-95283664D02*
X83655761Y-95244228D01*
X83655761Y-95244228D02*
X83524372Y-95204960D01*
X83524372Y-95204960D02*
X83401000Y-95165907D01*
X100017722Y-98977359D02*
X99839379Y-98850609D01*
X99839379Y-98850609D02*
X99700144Y-98777777D01*
X99700144Y-98777777D02*
X99530080Y-98699324D01*
X99530080Y-98699324D02*
X99331096Y-98615759D01*
X99331096Y-98615759D02*
X99105101Y-98527595D01*
X99105101Y-98527595D02*
X98854006Y-98435343D01*
X98854006Y-98435343D02*
X98579721Y-98339514D01*
X98579721Y-98339514D02*
X98284155Y-98240619D01*
X98284155Y-98240619D02*
X97969217Y-98139171D01*
X97969217Y-98139171D02*
X97636818Y-98035680D01*
X97636818Y-98035680D02*
X97288868Y-97930657D01*
X97288868Y-97930657D02*
X96927275Y-97824615D01*
X96927275Y-97824615D02*
X96553950Y-97718064D01*
X96553950Y-97718064D02*
X96170803Y-97611516D01*
X96170803Y-97611516D02*
X95779743Y-97505483D01*
X95779743Y-97505483D02*
X95382680Y-97400475D01*
X95382680Y-97400475D02*
X94981524Y-97297004D01*
X94981524Y-97297004D02*
X94578185Y-97195581D01*
X94578185Y-97195581D02*
X94174571Y-97096719D01*
X94174571Y-97096719D02*
X93772594Y-97000927D01*
X93772594Y-97000927D02*
X93374162Y-96908719D01*
X93374162Y-96908719D02*
X92981186Y-96820604D01*
X92981186Y-96820604D02*
X92595574Y-96737094D01*
X92595574Y-96737094D02*
X92219238Y-96658702D01*
X92219238Y-96658702D02*
X91854086Y-96585937D01*
X91854086Y-96585937D02*
X91502029Y-96519312D01*
X91502029Y-96519312D02*
X91164976Y-96459338D01*
X91164976Y-96459338D02*
X90844837Y-96406526D01*
X90844837Y-96406526D02*
X90543521Y-96361387D01*
X90543521Y-96361387D02*
X90262939Y-96324434D01*
X90262939Y-96324434D02*
X90005000Y-96296178D01*
X101306394Y-101572228D02*
X101285592Y-101420447D01*
X101285592Y-101420447D02*
X101250009Y-101288165D01*
X101250009Y-101288165D02*
X101199172Y-101135276D01*
X101199172Y-101135276D02*
X101134900Y-100965438D01*
X101134900Y-100965438D02*
X101059009Y-100782309D01*
X101059009Y-100782309D02*
X101017274Y-100686904D01*
X101017274Y-100686904D02*
X100973315Y-100589548D01*
X100973315Y-100589548D02*
X100927360Y-100490698D01*
X100927360Y-100490698D02*
X100879637Y-100390813D01*
X100879637Y-100390813D02*
X100830371Y-100290349D01*
X100830371Y-100290349D02*
X100779790Y-100189763D01*
X100779790Y-100189763D02*
X100728121Y-100089513D01*
X100728121Y-100089513D02*
X100675592Y-99990056D01*
X100675592Y-99990056D02*
X100622429Y-99891849D01*
X100622429Y-99891849D02*
X100568859Y-99795351D01*
X100568859Y-99795351D02*
X100515110Y-99701017D01*
X100515110Y-99701017D02*
X100461409Y-99609305D01*
X100461409Y-99609305D02*
X100407983Y-99520673D01*
X100407983Y-99520673D02*
X100355058Y-99435578D01*
X100355058Y-99435578D02*
X100251624Y-99277828D01*
X100251624Y-99277828D02*
X100152923Y-99139712D01*
X100152923Y-99139712D02*
X100060773Y-99024891D01*
X100060773Y-99024891D02*
X100017722Y-98977359D01*
X100544394Y-102441689D02*
X100659811Y-102370966D01*
X100659811Y-102370966D02*
X100769938Y-102293665D01*
X100769938Y-102293665D02*
X100873457Y-102211290D01*
X100873457Y-102211290D02*
X100969048Y-102125346D01*
X100969048Y-102125346D02*
X101055393Y-102037336D01*
X101055393Y-102037336D02*
X101131174Y-101948766D01*
X101131174Y-101948766D02*
X101195073Y-101861139D01*
X101195073Y-101861139D02*
X101259507Y-101748372D01*
X101259507Y-101748372D02*
X101297347Y-101643523D01*
X101297347Y-101643523D02*
X101306394Y-101572228D01*
X99784000Y-103521189D02*
X99790079Y-103397175D01*
X99790079Y-103397175D02*
X99808568Y-103279416D01*
X99808568Y-103279416D02*
X99839841Y-103167382D01*
X99839841Y-103167382D02*
X99884271Y-103060539D01*
X99884271Y-103060539D02*
X99942235Y-102958357D01*
X99942235Y-102958357D02*
X100014105Y-102860303D01*
X100014105Y-102860303D02*
X100100258Y-102765847D01*
X100100258Y-102765847D02*
X100201067Y-102674456D01*
X100201067Y-102674456D02*
X100316907Y-102585598D01*
X100316907Y-102585598D02*
X100402669Y-102527505D01*
X100402669Y-102527505D02*
X100495390Y-102470144D01*
X100495390Y-102470144D02*
X100544394Y-102441689D01*
X99989452Y-104168003D02*
X99900584Y-104103967D01*
X99900584Y-104103967D02*
X99851496Y-103999454D01*
X99851496Y-103999454D02*
X99819211Y-103882178D01*
X99819211Y-103882178D02*
X99800211Y-103772334D01*
X99800211Y-103772334D02*
X99788193Y-103651119D01*
X99788193Y-103651119D02*
X99784000Y-103521189D01*
X100625584Y-104485503D02*
X100534875Y-104421723D01*
X100534875Y-104421723D02*
X100442146Y-104362223D01*
X100442146Y-104362223D02*
X100350006Y-104308304D01*
X100350006Y-104308304D02*
X100261063Y-104261268D01*
X100261063Y-104261268D02*
X100158357Y-104214137D01*
X100158357Y-104214137D02*
X100054260Y-104178043D01*
X100054260Y-104178043D02*
X99989452Y-104168003D01*
X100530765Y-106182291D02*
X100575390Y-106064847D01*
X100575390Y-106064847D02*
X100617188Y-105954058D01*
X100617188Y-105954058D02*
X100656173Y-105849672D01*
X100656173Y-105849672D02*
X100692358Y-105751440D01*
X100692358Y-105751440D02*
X100756385Y-105572439D01*
X100756385Y-105572439D02*
X100809382Y-105415057D01*
X100809382Y-105415057D02*
X100851459Y-105277296D01*
X100851459Y-105277296D02*
X100882729Y-105157158D01*
X100882729Y-105157158D02*
X100903303Y-105052645D01*
X100903303Y-105052645D02*
X100914354Y-104920803D01*
X100914354Y-104920803D02*
X100901968Y-104812879D01*
X100901968Y-104812879D02*
X100849645Y-104694531D01*
X100849645Y-104694531D02*
X100784037Y-104616193D01*
X100784037Y-104616193D02*
X100696247Y-104539296D01*
X100696247Y-104539296D02*
X100625584Y-104485503D01*
X98746307Y-108939091D02*
X98814140Y-108863872D01*
X98814140Y-108863872D02*
X98882105Y-108786544D01*
X98882105Y-108786544D02*
X98950109Y-108707247D01*
X98950109Y-108707247D02*
X99018061Y-108626121D01*
X99018061Y-108626121D02*
X99085871Y-108543306D01*
X99085871Y-108543306D02*
X99153448Y-108458943D01*
X99153448Y-108458943D02*
X99220701Y-108373173D01*
X99220701Y-108373173D02*
X99287539Y-108286136D01*
X99287539Y-108286136D02*
X99353871Y-108197972D01*
X99353871Y-108197972D02*
X99419607Y-108108821D01*
X99419607Y-108108821D02*
X99484654Y-108018826D01*
X99484654Y-108018826D02*
X99548923Y-107928124D01*
X99548923Y-107928124D02*
X99612322Y-107836858D01*
X99612322Y-107836858D02*
X99674760Y-107745168D01*
X99674760Y-107745168D02*
X99736148Y-107653193D01*
X99736148Y-107653193D02*
X99796393Y-107561076D01*
X99796393Y-107561076D02*
X99855404Y-107468955D01*
X99855404Y-107468955D02*
X99913092Y-107376971D01*
X99913092Y-107376971D02*
X99969364Y-107285266D01*
X99969364Y-107285266D02*
X100024130Y-107193979D01*
X100024130Y-107193979D02*
X100077300Y-107103251D01*
X100077300Y-107103251D02*
X100128781Y-107013221D01*
X100128781Y-107013221D02*
X100178484Y-106924032D01*
X100178484Y-106924032D02*
X100226317Y-106835823D01*
X100226317Y-106835823D02*
X100316011Y-106662907D01*
X100316011Y-106662907D02*
X100397135Y-106495597D01*
X100397135Y-106495597D02*
X100468962Y-106335017D01*
X100468962Y-106335017D02*
X100530765Y-106182291D01*
X95217411Y-115217000D02*
X95344123Y-114924690D01*
X95344123Y-114924690D02*
X95469321Y-114639390D01*
X95469321Y-114639390D02*
X95593051Y-114361019D01*
X95593051Y-114361019D02*
X95715357Y-114089495D01*
X95715357Y-114089495D02*
X95836285Y-113824738D01*
X95836285Y-113824738D02*
X95955880Y-113566667D01*
X95955880Y-113566667D02*
X96074188Y-113315202D01*
X96074188Y-113315202D02*
X96191254Y-113070261D01*
X96191254Y-113070261D02*
X96307124Y-112831764D01*
X96307124Y-112831764D02*
X96421842Y-112599630D01*
X96421842Y-112599630D02*
X96535455Y-112373779D01*
X96535455Y-112373779D02*
X96648007Y-112154129D01*
X96648007Y-112154129D02*
X96759545Y-111940600D01*
X96759545Y-111940600D02*
X96870113Y-111733111D01*
X96870113Y-111733111D02*
X96979757Y-111531582D01*
X96979757Y-111531582D02*
X97088522Y-111335931D01*
X97088522Y-111335931D02*
X97196454Y-111146077D01*
X97196454Y-111146077D02*
X97303598Y-110961941D01*
X97303598Y-110961941D02*
X97410000Y-110783441D01*
X97410000Y-110783441D02*
X97515704Y-110610496D01*
X97515704Y-110610496D02*
X97620757Y-110443026D01*
X97620757Y-110443026D02*
X97725203Y-110280950D01*
X97725203Y-110280950D02*
X97829089Y-110124188D01*
X97829089Y-110124188D02*
X97932459Y-109972657D01*
X97932459Y-109972657D02*
X98035358Y-109826279D01*
X98035358Y-109826279D02*
X98137833Y-109684971D01*
X98137833Y-109684971D02*
X98239929Y-109548653D01*
X98239929Y-109548653D02*
X98341691Y-109417245D01*
X98341691Y-109417245D02*
X98443164Y-109290665D01*
X98443164Y-109290665D02*
X98544394Y-109168834D01*
X98544394Y-109168834D02*
X98645427Y-109051669D01*
X98645427Y-109051669D02*
X98746307Y-108939091D01*
X95090707Y-125219549D02*
X95022260Y-124981616D01*
X95022260Y-124981616D02*
X94958649Y-124725969D01*
X94958649Y-124725969D02*
X94899855Y-124453896D01*
X94899855Y-124453896D02*
X94845864Y-124166687D01*
X94845864Y-124166687D02*
X94796659Y-123865633D01*
X94796659Y-123865633D02*
X94752223Y-123552023D01*
X94752223Y-123552023D02*
X94712540Y-123227148D01*
X94712540Y-123227148D02*
X94677594Y-122892296D01*
X94677594Y-122892296D02*
X94647368Y-122548759D01*
X94647368Y-122548759D02*
X94621846Y-122197826D01*
X94621846Y-122197826D02*
X94601012Y-121840787D01*
X94601012Y-121840787D02*
X94584850Y-121478932D01*
X94584850Y-121478932D02*
X94573342Y-121113551D01*
X94573342Y-121113551D02*
X94566473Y-120745934D01*
X94566473Y-120745934D02*
X94564226Y-120377371D01*
X94564226Y-120377371D02*
X94566585Y-120009152D01*
X94566585Y-120009152D02*
X94573534Y-119642566D01*
X94573534Y-119642566D02*
X94585056Y-119278904D01*
X94585056Y-119278904D02*
X94601136Y-118919456D01*
X94601136Y-118919456D02*
X94621755Y-118565512D01*
X94621755Y-118565512D02*
X94646899Y-118218361D01*
X94646899Y-118218361D02*
X94676551Y-117879293D01*
X94676551Y-117879293D02*
X94710695Y-117549599D01*
X94710695Y-117549599D02*
X94749313Y-117230568D01*
X94749313Y-117230568D02*
X94792391Y-116923491D01*
X94792391Y-116923491D02*
X94839911Y-116629657D01*
X94839911Y-116629657D02*
X94891857Y-116350356D01*
X94891857Y-116350356D02*
X94948214Y-116086879D01*
X94948214Y-116086879D02*
X95008963Y-115840514D01*
X95008963Y-115840514D02*
X95074090Y-115612553D01*
X95074090Y-115612553D02*
X95143578Y-115404285D01*
X95143578Y-115404285D02*
X95217411Y-115217000D01*
X99112562Y-129278035D02*
X98919935Y-129203666D01*
X98919935Y-129203666D02*
X98731584Y-129125870D01*
X98731584Y-129125870D02*
X98547514Y-129044650D01*
X98547514Y-129044650D02*
X98367729Y-128960012D01*
X98367729Y-128960012D02*
X98192233Y-128871959D01*
X98192233Y-128871959D02*
X98021031Y-128780496D01*
X98021031Y-128780496D02*
X97854126Y-128685627D01*
X97854126Y-128685627D02*
X97691523Y-128587356D01*
X97691523Y-128587356D02*
X97533226Y-128485688D01*
X97533226Y-128485688D02*
X97379239Y-128380627D01*
X97379239Y-128380627D02*
X97229567Y-128272177D01*
X97229567Y-128272177D02*
X97084214Y-128160343D01*
X97084214Y-128160343D02*
X96943185Y-128045128D01*
X96943185Y-128045128D02*
X96806482Y-127926538D01*
X96806482Y-127926538D02*
X96674112Y-127804576D01*
X96674112Y-127804576D02*
X96546078Y-127679247D01*
X96546078Y-127679247D02*
X96422383Y-127550555D01*
X96422383Y-127550555D02*
X96303034Y-127418504D01*
X96303034Y-127418504D02*
X96188033Y-127283099D01*
X96188033Y-127283099D02*
X96077385Y-127144344D01*
X96077385Y-127144344D02*
X95971095Y-127002243D01*
X95971095Y-127002243D02*
X95869166Y-126856801D01*
X95869166Y-126856801D02*
X95771603Y-126708022D01*
X95771603Y-126708022D02*
X95678411Y-126555910D01*
X95678411Y-126555910D02*
X95589592Y-126400469D01*
X95589592Y-126400469D02*
X95505153Y-126241704D01*
X95505153Y-126241704D02*
X95425096Y-126079620D01*
X95425096Y-126079620D02*
X95349427Y-125914219D01*
X95349427Y-125914219D02*
X95278149Y-125745508D01*
X95278149Y-125745508D02*
X95211267Y-125573489D01*
X95211267Y-125573489D02*
X95148784Y-125398168D01*
X95148784Y-125398168D02*
X95090707Y-125219549D01*
X100418997Y-130746190D02*
X100418199Y-130578631D01*
X100418199Y-130578631D02*
X100414659Y-130430213D01*
X100414659Y-130430213D02*
X100406653Y-130298997D01*
X100406653Y-130298997D02*
X100392460Y-130183050D01*
X100392460Y-130183050D02*
X100370357Y-130080435D01*
X100370357Y-130080435D02*
X100318604Y-129947277D01*
X100318604Y-129947277D02*
X100239364Y-129833229D01*
X100239364Y-129833229D02*
X100126825Y-129731759D01*
X100126825Y-129731759D02*
X100030430Y-129667874D01*
X100030430Y-129667874D02*
X99914928Y-129604740D01*
X99914928Y-129604740D02*
X99778599Y-129540422D01*
X99778599Y-129540422D02*
X99619720Y-129472983D01*
X99619720Y-129472983D02*
X99436568Y-129400489D01*
X99436568Y-129400489D02*
X99335352Y-129361741D01*
X99335352Y-129361741D02*
X99227421Y-129321004D01*
X99227421Y-129321004D02*
X99112562Y-129278035D01*
X89720658Y-132903525D02*
X89803642Y-132816986D01*
X89803642Y-132816986D02*
X89893872Y-132739718D01*
X89893872Y-132739718D02*
X90001994Y-132670403D01*
X90001994Y-132670403D02*
X90138652Y-132607721D01*
X90138652Y-132607721D02*
X90314490Y-132550354D01*
X90314490Y-132550354D02*
X90420429Y-132523252D01*
X90420429Y-132523252D02*
X90540154Y-132496984D01*
X90540154Y-132496984D02*
X90674997Y-132471386D01*
X90674997Y-132471386D02*
X90826287Y-132446293D01*
X90826287Y-132446293D02*
X90995357Y-132421540D01*
X90995357Y-132421540D02*
X91183535Y-132396962D01*
X91183535Y-132396962D02*
X91392154Y-132372394D01*
X91392154Y-132372394D02*
X91622542Y-132347672D01*
X91622542Y-132347672D02*
X91876032Y-132322631D01*
X91876032Y-132322631D02*
X92153953Y-132297106D01*
X92153953Y-132297106D02*
X92457636Y-132270932D01*
X92457636Y-132270932D02*
X92788412Y-132243944D01*
X92788412Y-132243944D02*
X93147612Y-132215978D01*
X93147612Y-132215978D02*
X93536565Y-132186869D01*
X93536565Y-132186869D02*
X93956603Y-132156452D01*
X93956603Y-132156452D02*
X94409055Y-132124562D01*
X94409055Y-132124562D02*
X94895254Y-132091035D01*
X94895254Y-132091035D02*
X95416528Y-132055705D01*
X95416528Y-132055705D02*
X95974209Y-132018408D01*
X95974209Y-132018408D02*
X96569628Y-131978979D01*
X96569628Y-131978979D02*
X97204114Y-131937253D01*
X97204114Y-131937253D02*
X97879000Y-131893066D01*
X88430785Y-133378000D02*
X88576065Y-133373091D01*
X88576065Y-133373091D02*
X88719904Y-133358672D01*
X88719904Y-133358672D02*
X88861057Y-133335199D01*
X88861057Y-133335199D02*
X88998277Y-133303132D01*
X88998277Y-133303132D02*
X89130321Y-133262928D01*
X89130321Y-133262928D02*
X89255942Y-133215045D01*
X89255942Y-133215045D02*
X89373895Y-133159942D01*
X89373895Y-133159942D02*
X89482934Y-133098076D01*
X89482934Y-133098076D02*
X89581814Y-133029906D01*
X89581814Y-133029906D02*
X89669291Y-132955890D01*
X89669291Y-132955890D02*
X89720658Y-132903525D01*
X84270347Y-136669081D02*
X84342827Y-136517427D01*
X84342827Y-136517427D02*
X84423032Y-136365750D01*
X84423032Y-136365750D02*
X84510558Y-136214365D01*
X84510558Y-136214365D02*
X84605005Y-136063591D01*
X84605005Y-136063591D02*
X84705972Y-135913744D01*
X84705972Y-135913744D02*
X84813058Y-135765142D01*
X84813058Y-135765142D02*
X84925862Y-135618102D01*
X84925862Y-135618102D02*
X85043982Y-135472941D01*
X85043982Y-135472941D02*
X85167017Y-135329978D01*
X85167017Y-135329978D02*
X85294566Y-135189528D01*
X85294566Y-135189528D02*
X85426228Y-135051910D01*
X85426228Y-135051910D02*
X85561602Y-134917441D01*
X85561602Y-134917441D02*
X85700287Y-134786438D01*
X85700287Y-134786438D02*
X85841881Y-134659219D01*
X85841881Y-134659219D02*
X85985983Y-134536100D01*
X85985983Y-134536100D02*
X86132193Y-134417400D01*
X86132193Y-134417400D02*
X86280109Y-134303435D01*
X86280109Y-134303435D02*
X86429329Y-134194522D01*
X86429329Y-134194522D02*
X86579453Y-134090980D01*
X86579453Y-134090980D02*
X86730080Y-133993126D01*
X86730080Y-133993126D02*
X86880808Y-133901276D01*
X86880808Y-133901276D02*
X87031237Y-133815748D01*
X87031237Y-133815748D02*
X87180965Y-133736860D01*
X87180965Y-133736860D02*
X87329590Y-133664928D01*
X87329590Y-133664928D02*
X87476713Y-133600271D01*
X87476713Y-133600271D02*
X87621931Y-133543205D01*
X87621931Y-133543205D02*
X87764844Y-133494048D01*
X87764844Y-133494048D02*
X87905050Y-133453117D01*
X87905050Y-133453117D02*
X88042148Y-133420729D01*
X88042148Y-133420729D02*
X88175737Y-133397202D01*
X88175737Y-133397202D02*
X88305417Y-133382853D01*
X88305417Y-133382853D02*
X88430785Y-133378000D01*
X83085024Y-137950000D02*
X83214775Y-137942691D01*
X83214775Y-137942691D02*
X83334120Y-137919131D01*
X83334120Y-137919131D02*
X83445325Y-137876868D01*
X83445325Y-137876868D02*
X83550660Y-137813452D01*
X83550660Y-137813452D02*
X83652393Y-137726429D01*
X83652393Y-137726429D02*
X83752792Y-137613349D01*
X83752792Y-137613349D02*
X83820104Y-137522276D01*
X83820104Y-137522276D02*
X83888504Y-137417806D01*
X83888504Y-137417806D02*
X83958664Y-137299213D01*
X83958664Y-137299213D02*
X84031257Y-137165770D01*
X84031257Y-137165770D02*
X84106953Y-137016751D01*
X84106953Y-137016751D02*
X84186425Y-136851430D01*
X84186425Y-136851430D02*
X84270347Y-136669081D01*
X81960354Y-138227357D02*
X82076835Y-138171642D01*
X82076835Y-138171642D02*
X82175023Y-138132246D01*
X82175023Y-138132246D02*
X82280327Y-138095433D01*
X82280327Y-138095433D02*
X82390802Y-138061682D01*
X82390802Y-138061682D02*
X82504503Y-138031474D01*
X82504503Y-138031474D02*
X82619481Y-138005287D01*
X82619481Y-138005287D02*
X82733793Y-137983603D01*
X82733793Y-137983603D02*
X82845491Y-137966901D01*
X82845491Y-137966901D02*
X82952629Y-137955660D01*
X82952629Y-137955660D02*
X83053261Y-137950362D01*
X83053261Y-137950362D02*
X83085024Y-137950000D01*
X80326052Y-138521587D02*
X80442430Y-138518432D01*
X80442430Y-138518432D02*
X80560821Y-138512542D01*
X80560821Y-138512542D02*
X80680386Y-138504067D01*
X80680386Y-138504067D02*
X80800288Y-138493159D01*
X80800288Y-138493159D02*
X80919688Y-138479967D01*
X80919688Y-138479967D02*
X81037749Y-138464644D01*
X81037749Y-138464644D02*
X81153633Y-138447339D01*
X81153633Y-138447339D02*
X81266501Y-138428205D01*
X81266501Y-138428205D02*
X81375516Y-138407391D01*
X81375516Y-138407391D02*
X81479841Y-138385049D01*
X81479841Y-138385049D02*
X81578636Y-138361330D01*
X81578636Y-138361330D02*
X81714630Y-138323499D01*
X81714630Y-138323499D02*
X81833470Y-138283418D01*
X81833470Y-138283418D02*
X81932329Y-138241596D01*
X81932329Y-138241596D02*
X81960354Y-138227357D01*
X79210000Y-138723962D02*
X79298063Y-138650604D01*
X79298063Y-138650604D02*
X79401276Y-138617541D01*
X79401276Y-138617541D02*
X79500822Y-138595007D01*
X79500822Y-138595007D02*
X79617198Y-138574801D01*
X79617198Y-138574801D02*
X79748470Y-138557274D01*
X79748470Y-138557274D02*
X79892709Y-138542776D01*
X79892709Y-138542776D02*
X79995119Y-138534967D01*
X79995119Y-138534967D02*
X80101860Y-138528763D01*
X80101860Y-138528763D02*
X80212362Y-138524268D01*
X80212362Y-138524268D02*
X80326052Y-138521587D01*
X78257500Y-139083523D02*
X78402053Y-139054959D01*
X78402053Y-139054959D02*
X78539936Y-139023534D01*
X78539936Y-139023534D02*
X78669499Y-138989869D01*
X78669499Y-138989869D02*
X78789095Y-138954587D01*
X78789095Y-138954587D02*
X78897075Y-138918309D01*
X78897075Y-138918309D02*
X78991792Y-138881657D01*
X78991792Y-138881657D02*
X79094600Y-138833283D01*
X79094600Y-138833283D02*
X79179878Y-138775684D01*
X79179878Y-138775684D02*
X79210000Y-138723962D01*
X76222835Y-140610034D02*
X76208081Y-140480193D01*
X76208081Y-140480193D02*
X76213849Y-140353744D01*
X76213849Y-140353744D02*
X76239796Y-140230944D01*
X76239796Y-140230944D02*
X76285579Y-140112050D01*
X76285579Y-140112050D02*
X76350855Y-139997319D01*
X76350855Y-139997319D02*
X76435283Y-139887007D01*
X76435283Y-139887007D02*
X76538519Y-139781372D01*
X76538519Y-139781372D02*
X76660221Y-139680671D01*
X76660221Y-139680671D02*
X76800046Y-139585161D01*
X76800046Y-139585161D02*
X76957652Y-139495099D01*
X76957652Y-139495099D02*
X77132696Y-139410741D01*
X77132696Y-139410741D02*
X77226651Y-139370782D01*
X77226651Y-139370782D02*
X77324836Y-139332346D01*
X77324836Y-139332346D02*
X77427210Y-139295464D01*
X77427210Y-139295464D02*
X77533729Y-139260169D01*
X77533729Y-139260169D02*
X77644351Y-139226493D01*
X77644351Y-139226493D02*
X77759032Y-139194468D01*
X77759032Y-139194468D02*
X77877731Y-139164127D01*
X77877731Y-139164127D02*
X78000403Y-139135500D01*
X78000403Y-139135500D02*
X78127007Y-139108622D01*
X78127007Y-139108622D02*
X78257500Y-139083523D01*
X75803654Y-141206013D02*
X75911749Y-141199844D01*
X75911749Y-141199844D02*
X76030680Y-141179965D01*
X76030680Y-141179965D02*
X76141206Y-141133036D01*
X76141206Y-141133036D02*
X76212411Y-141057230D01*
X76212411Y-141057230D02*
X76247569Y-140947896D01*
X76247569Y-140947896D02*
X76251941Y-140833162D01*
X76251941Y-140833162D02*
X76242462Y-140729643D01*
X76242462Y-140729643D02*
X76222835Y-140610034D01*
X68033999Y-142010693D02*
X68210474Y-141958331D01*
X68210474Y-141958331D02*
X68329417Y-141936218D01*
X68329417Y-141936218D02*
X68475317Y-141912097D01*
X68475317Y-141912097D02*
X68646313Y-141886161D01*
X68646313Y-141886161D02*
X68840543Y-141858601D01*
X68840543Y-141858601D02*
X69056147Y-141829612D01*
X69056147Y-141829612D02*
X69291263Y-141799385D01*
X69291263Y-141799385D02*
X69544031Y-141768114D01*
X69544031Y-141768114D02*
X69812588Y-141735990D01*
X69812588Y-141735990D02*
X70095074Y-141703208D01*
X70095074Y-141703208D02*
X70389628Y-141669960D01*
X70389628Y-141669960D02*
X70694388Y-141636438D01*
X70694388Y-141636438D02*
X71007494Y-141602835D01*
X71007494Y-141602835D02*
X71327084Y-141569345D01*
X71327084Y-141569345D02*
X71651296Y-141536159D01*
X71651296Y-141536159D02*
X71978271Y-141503470D01*
X71978271Y-141503470D02*
X72306146Y-141471472D01*
X72306146Y-141471472D02*
X72633061Y-141440357D01*
X72633061Y-141440357D02*
X72957154Y-141410318D01*
X72957154Y-141410318D02*
X73276564Y-141381547D01*
X73276564Y-141381547D02*
X73589430Y-141354237D01*
X73589430Y-141354237D02*
X73893891Y-141328582D01*
X73893891Y-141328582D02*
X74188086Y-141304773D01*
X74188086Y-141304773D02*
X74470153Y-141283003D01*
X74470153Y-141283003D02*
X74738232Y-141263467D01*
X74738232Y-141263467D02*
X74990460Y-141246355D01*
X74990460Y-141246355D02*
X75224978Y-141231860D01*
X75224978Y-141231860D02*
X75439924Y-141220177D01*
X75439924Y-141220177D02*
X75633436Y-141211497D01*
X75633436Y-141211497D02*
X75803654Y-141206013D01*
X65928578Y-142455283D02*
X66030155Y-142441092D01*
X66030155Y-142441092D02*
X66130773Y-142426636D01*
X66130773Y-142426636D02*
X66230297Y-142411942D01*
X66230297Y-142411942D02*
X66425523Y-142381957D01*
X66425523Y-142381957D02*
X66614753Y-142351365D01*
X66614753Y-142351365D02*
X66796907Y-142320394D01*
X66796907Y-142320394D02*
X66970906Y-142289271D01*
X66970906Y-142289271D02*
X67135671Y-142258225D01*
X67135671Y-142258225D02*
X67290122Y-142227484D01*
X67290122Y-142227484D02*
X67433180Y-142197275D01*
X67433180Y-142197275D02*
X67563765Y-142167827D01*
X67563765Y-142167827D02*
X67680798Y-142139367D01*
X67680798Y-142139367D02*
X67783200Y-142112123D01*
X67783200Y-142112123D02*
X67907007Y-142074037D01*
X67907007Y-142074037D02*
X68010797Y-142029641D01*
X68010797Y-142029641D02*
X68033999Y-142010693D01*
X60444613Y-144868531D02*
X60512262Y-144779595D01*
X60512262Y-144779595D02*
X60591228Y-144689498D01*
X60591228Y-144689498D02*
X60681046Y-144598442D01*
X60681046Y-144598442D02*
X60781255Y-144506631D01*
X60781255Y-144506631D02*
X60891392Y-144414267D01*
X60891392Y-144414267D02*
X61010995Y-144321555D01*
X61010995Y-144321555D02*
X61139602Y-144228699D01*
X61139602Y-144228699D02*
X61276750Y-144135900D01*
X61276750Y-144135900D02*
X61421977Y-144043364D01*
X61421977Y-144043364D02*
X61574821Y-143951293D01*
X61574821Y-143951293D02*
X61734819Y-143859891D01*
X61734819Y-143859891D02*
X61901508Y-143769361D01*
X61901508Y-143769361D02*
X62074428Y-143679907D01*
X62074428Y-143679907D02*
X62253114Y-143591733D01*
X62253114Y-143591733D02*
X62437105Y-143505041D01*
X62437105Y-143505041D02*
X62625939Y-143420035D01*
X62625939Y-143420035D02*
X62819153Y-143336919D01*
X62819153Y-143336919D02*
X63016284Y-143255896D01*
X63016284Y-143255896D02*
X63216871Y-143177169D01*
X63216871Y-143177169D02*
X63420451Y-143100942D01*
X63420451Y-143100942D02*
X63626562Y-143027419D01*
X63626562Y-143027419D02*
X63834741Y-142956803D01*
X63834741Y-142956803D02*
X64044527Y-142889297D01*
X64044527Y-142889297D02*
X64255456Y-142825105D01*
X64255456Y-142825105D02*
X64467066Y-142764430D01*
X64467066Y-142764430D02*
X64678895Y-142707476D01*
X64678895Y-142707476D02*
X64890481Y-142654447D01*
X64890481Y-142654447D02*
X65101361Y-142605545D01*
X65101361Y-142605545D02*
X65311073Y-142560974D01*
X65311073Y-142560974D02*
X65519155Y-142520937D01*
X65519155Y-142520937D02*
X65725144Y-142485639D01*
X65725144Y-142485639D02*
X65928578Y-142455283D01*
X61326903Y-147457739D02*
X61194173Y-147360462D01*
X61194173Y-147360462D02*
X61068943Y-147266340D01*
X61068943Y-147266340D02*
X60951142Y-147175163D01*
X60951142Y-147175163D02*
X60840697Y-147086721D01*
X60840697Y-147086721D02*
X60737537Y-147000805D01*
X60737537Y-147000805D02*
X60641591Y-146917204D01*
X60641591Y-146917204D02*
X60552786Y-146835708D01*
X60552786Y-146835708D02*
X60471053Y-146756107D01*
X60471053Y-146756107D02*
X60396318Y-146678193D01*
X60396318Y-146678193D02*
X60328511Y-146601753D01*
X60328511Y-146601753D02*
X60213392Y-146452462D01*
X60213392Y-146452462D02*
X60125125Y-146306554D01*
X60125125Y-146306554D02*
X60063138Y-146162350D01*
X60063138Y-146162350D02*
X60026857Y-146018170D01*
X60026857Y-146018170D02*
X60015710Y-145872335D01*
X60015710Y-145872335D02*
X60029126Y-145723167D01*
X60029126Y-145723167D02*
X60066533Y-145568984D01*
X60066533Y-145568984D02*
X60127356Y-145408109D01*
X60127356Y-145408109D02*
X60211026Y-145238861D01*
X60211026Y-145238861D02*
X60261249Y-145150573D01*
X60261249Y-145150573D02*
X60316969Y-145059561D01*
X60316969Y-145059561D02*
X60378114Y-144965617D01*
X60378114Y-144965617D02*
X60444613Y-144868531D01*
X62700000Y-148630663D02*
X62637999Y-148532998D01*
X62637999Y-148532998D02*
X62564062Y-148455225D01*
X62564062Y-148455225D02*
X62464669Y-148360866D01*
X62464669Y-148360866D02*
X62385437Y-148289746D01*
X62385437Y-148289746D02*
X62296652Y-148212758D01*
X62296652Y-148212758D02*
X62199017Y-148130502D01*
X62199017Y-148130502D02*
X62093235Y-148043581D01*
X62093235Y-148043581D02*
X61980012Y-147952594D01*
X61980012Y-147952594D02*
X61860050Y-147858145D01*
X61860050Y-147858145D02*
X61734054Y-147760833D01*
X61734054Y-147760833D02*
X61602729Y-147661260D01*
X61602729Y-147661260D02*
X61466777Y-147560028D01*
X61466777Y-147560028D02*
X61326903Y-147457739D01*
X63525500Y-148977262D02*
X63400219Y-148949591D01*
X63400219Y-148949591D02*
X63280721Y-148919190D01*
X63280721Y-148919190D02*
X63168433Y-148886658D01*
X63168433Y-148886658D02*
X63064783Y-148852595D01*
X63064783Y-148852595D02*
X62942490Y-148805833D01*
X62942490Y-148805833D02*
X62841479Y-148758837D01*
X62841479Y-148758837D02*
X62750302Y-148701929D01*
X62750302Y-148701929D02*
X62700000Y-148630663D01*
X84226500Y-149717307D02*
X83851879Y-149714969D01*
X83851879Y-149714969D02*
X83407656Y-149709430D01*
X83407656Y-149709430D02*
X82899035Y-149700876D01*
X82899035Y-149700876D02*
X82331219Y-149689493D01*
X82331219Y-149689493D02*
X81709411Y-149675466D01*
X81709411Y-149675466D02*
X81038816Y-149658982D01*
X81038816Y-149658982D02*
X80324636Y-149640227D01*
X80324636Y-149640227D02*
X79572074Y-149619386D01*
X79572074Y-149619386D02*
X78786336Y-149596647D01*
X78786336Y-149596647D02*
X77972623Y-149572193D01*
X77972623Y-149572193D02*
X77136141Y-149546213D01*
X77136141Y-149546213D02*
X76282091Y-149518892D01*
X76282091Y-149518892D02*
X75415678Y-149490415D01*
X75415678Y-149490415D02*
X74542106Y-149460969D01*
X74542106Y-149460969D02*
X73666577Y-149430740D01*
X73666577Y-149430740D02*
X72794295Y-149399913D01*
X72794295Y-149399913D02*
X71930464Y-149368676D01*
X71930464Y-149368676D02*
X71080288Y-149337213D01*
X71080288Y-149337213D02*
X70248969Y-149305711D01*
X70248969Y-149305711D02*
X69441712Y-149274357D01*
X69441712Y-149274357D02*
X68663720Y-149243334D01*
X68663720Y-149243334D02*
X67920196Y-149212831D01*
X67920196Y-149212831D02*
X67216344Y-149183033D01*
X67216344Y-149183033D02*
X66557368Y-149154126D01*
X66557368Y-149154126D02*
X65948471Y-149126295D01*
X65948471Y-149126295D02*
X65394856Y-149099728D01*
X65394856Y-149099728D02*
X64901728Y-149074609D01*
X64901728Y-149074609D02*
X64474289Y-149051126D01*
X64474289Y-149051126D02*
X64117743Y-149029463D01*
X64117743Y-149029463D02*
X63837294Y-149009808D01*
X63837294Y-149009808D02*
X63638145Y-148992345D01*
X63638145Y-148992345D02*
X63525500Y-148977262D01*
X85560000Y-149930979D02*
X85478741Y-149858455D01*
X85478741Y-149858455D02*
X85366235Y-149821386D01*
X85366235Y-149821386D02*
X85254509Y-149796344D01*
X85254509Y-149796344D02*
X85121906Y-149774076D01*
X85121906Y-149774076D02*
X84970733Y-149754954D01*
X84970733Y-149754954D02*
X84860775Y-149744135D01*
X84860775Y-149744135D02*
X84744273Y-149734988D01*
X84744273Y-149734988D02*
X84621910Y-149727622D01*
X84621910Y-149727622D02*
X84494372Y-149722147D01*
X84494372Y-149722147D02*
X84362340Y-149718672D01*
X84362340Y-149718672D02*
X84226500Y-149717307D01*
X86535614Y-150142000D02*
X86387552Y-150139557D01*
X86387552Y-150139557D02*
X86246323Y-150132471D01*
X86246323Y-150132471D02*
X86113616Y-150121108D01*
X86113616Y-150121108D02*
X85991118Y-150105833D01*
X85991118Y-150105833D02*
X85880517Y-150087011D01*
X85880517Y-150087011D02*
X85754475Y-150057029D01*
X85754475Y-150057029D02*
X85656586Y-150022255D01*
X85656586Y-150022255D02*
X85571294Y-149963004D01*
X85571294Y-149963004D02*
X85560000Y-149930979D01*
X92164000Y-151017001D02*
X92053886Y-150953716D01*
X92053886Y-150953716D02*
X91877392Y-150886268D01*
X91877392Y-150886268D02*
X91766539Y-150851338D01*
X91766539Y-150851338D02*
X91641836Y-150815794D01*
X91641836Y-150815794D02*
X91504198Y-150779777D01*
X91504198Y-150779777D02*
X91354540Y-150743431D01*
X91354540Y-150743431D02*
X91193776Y-150706897D01*
X91193776Y-150706897D02*
X91022823Y-150670318D01*
X91022823Y-150670318D02*
X90842593Y-150633835D01*
X90842593Y-150633835D02*
X90654004Y-150597592D01*
X90654004Y-150597592D02*
X90457969Y-150561730D01*
X90457969Y-150561730D02*
X90255404Y-150526392D01*
X90255404Y-150526392D02*
X90047223Y-150491719D01*
X90047223Y-150491719D02*
X89834342Y-150457855D01*
X89834342Y-150457855D02*
X89617675Y-150424941D01*
X89617675Y-150424941D02*
X89398138Y-150393120D01*
X89398138Y-150393120D02*
X89176646Y-150362533D01*
X89176646Y-150362533D02*
X88954113Y-150333324D01*
X88954113Y-150333324D02*
X88731454Y-150305633D01*
X88731454Y-150305633D02*
X88509585Y-150279605D01*
X88509585Y-150279605D02*
X88289421Y-150255380D01*
X88289421Y-150255380D02*
X88071876Y-150233101D01*
X88071876Y-150233101D02*
X87857865Y-150212911D01*
X87857865Y-150212911D02*
X87648304Y-150194951D01*
X87648304Y-150194951D02*
X87444107Y-150179364D01*
X87444107Y-150179364D02*
X87246190Y-150166292D01*
X87246190Y-150166292D02*
X87055467Y-150155878D01*
X87055467Y-150155878D02*
X86872853Y-150148262D01*
X86872853Y-150148262D02*
X86699264Y-150143589D01*
X86699264Y-150143589D02*
X86535614Y-150142000D01*
X94069000Y-151666691D02*
X93911777Y-151630587D01*
X93911777Y-151630587D02*
X93755084Y-151592329D01*
X93755084Y-151592329D02*
X93599898Y-151552249D01*
X93599898Y-151552249D02*
X93447196Y-151510680D01*
X93447196Y-151510680D02*
X93297954Y-151467956D01*
X93297954Y-151467956D02*
X93153148Y-151424410D01*
X93153148Y-151424410D02*
X93013757Y-151380375D01*
X93013757Y-151380375D02*
X92880756Y-151336183D01*
X92880756Y-151336183D02*
X92755122Y-151292168D01*
X92755122Y-151292168D02*
X92637831Y-151248664D01*
X92637831Y-151248664D02*
X92529861Y-151206002D01*
X92529861Y-151206002D02*
X92432188Y-151164517D01*
X92432188Y-151164517D02*
X92307122Y-151105223D01*
X92307122Y-151105223D02*
X92210718Y-151050450D01*
X92210718Y-151050450D02*
X92164000Y-151017001D01*
X95847000Y-152194156D02*
X95735520Y-152136385D01*
X95735520Y-152136385D02*
X95628123Y-152094096D01*
X95628123Y-152094096D02*
X95494104Y-152047203D01*
X95494104Y-152047203D02*
X95391488Y-152013833D01*
X95391488Y-152013833D02*
X95279319Y-151979093D01*
X95279319Y-151979093D02*
X95158509Y-151943253D01*
X95158509Y-151943253D02*
X95029968Y-151906584D01*
X95029968Y-151906584D02*
X94894610Y-151869355D01*
X94894610Y-151869355D02*
X94753345Y-151831838D01*
X94753345Y-151831838D02*
X94607085Y-151794303D01*
X94607085Y-151794303D02*
X94456741Y-151757020D01*
X94456741Y-151757020D02*
X94303226Y-151720259D01*
X94303226Y-151720259D02*
X94147450Y-151684292D01*
X94147450Y-151684292D02*
X94069000Y-151666691D01*
X96863000Y-152494466D02*
X96744416Y-152475370D01*
X96744416Y-152475370D02*
X96625581Y-152452899D01*
X96625581Y-152452899D02*
X96508253Y-152427572D01*
X96508253Y-152427572D02*
X96394190Y-152399909D01*
X96394190Y-152399909D02*
X96285150Y-152370430D01*
X96285150Y-152370430D02*
X96182891Y-152339654D01*
X96182891Y-152339654D02*
X96060133Y-152297500D01*
X96060133Y-152297500D02*
X95956723Y-152255197D01*
X95956723Y-152255197D02*
X95861016Y-152203984D01*
X95861016Y-152203984D02*
X95847000Y-152194156D01*
M02*
