%TF.GenerationSoftware,KiCad,Pcbnew,5.1.7-a382d34a8~88~ubuntu20.04.1*%
%TF.CreationDate,2021-01-15T03:17:28-08:00*%
%TF.ProjectId,snoopy-sao,736e6f6f-7079-42d7-9361-6f2e6b696361,rev?*%
%TF.SameCoordinates,Original*%
%TF.FileFunction,Legend,Bot*%
%TF.FilePolarity,Positive*%
%FSLAX46Y46*%
G04 Gerber Fmt 4.6, Leading zero omitted, Abs format (unit mm)*
G04 Created by KiCad (PCBNEW 5.1.7-a382d34a8~88~ubuntu20.04.1) date 2021-01-15 03:17:28*
%MOMM*%
%LPD*%
G01*
G04 APERTURE LIST*
%ADD10C,0.120000*%
%ADD11C,1.000000*%
G04 APERTURE END LIST*
D10*
%TO.C,D16*%
X95200000Y-66500000D02*
G75*
G03*
X97200000Y-66500000I1000000J0D01*
G01*
X97700000Y-67250000D02*
X95950000Y-67250000D01*
X97700000Y-65750000D02*
X97700000Y-67250000D01*
X97700000Y-65750000D02*
X95950000Y-65750000D01*
%TO.C,D15*%
X81692893Y-69907107D02*
G75*
G03*
X83107107Y-68492893I707107J707107D01*
G01*
X83990990Y-68669670D02*
X82753553Y-69907107D01*
X82930330Y-67609010D02*
X83990990Y-68669670D01*
X82930330Y-67609010D02*
X81692893Y-68846447D01*
%TO.C,D14*%
X88765926Y-95558819D02*
G75*
G03*
X86834074Y-95041181I-965926J258819D01*
G01*
X86545226Y-94187327D02*
X88235596Y-94640260D01*
X86156997Y-95636216D02*
X86545226Y-94187327D01*
X86156997Y-95636216D02*
X87847367Y-96089149D01*
%TO.C,D13*%
X75100000Y-83200000D02*
G75*
G03*
X75100000Y-81200000I0J1000000D01*
G01*
X75850000Y-80700000D02*
X75850000Y-82450000D01*
X74350000Y-80700000D02*
X75850000Y-80700000D01*
X74350000Y-80700000D02*
X74350000Y-82450000D01*
%TO.C,D12*%
X121000000Y-90000000D02*
G75*
G03*
X121000000Y-92000000I0J-1000000D01*
G01*
X120250000Y-92500000D02*
X120250000Y-90750000D01*
X121750000Y-92500000D02*
X120250000Y-92500000D01*
X121750000Y-92500000D02*
X121750000Y-90750000D01*
%TO.C,D11*%
X112500000Y-58200000D02*
G75*
G03*
X114500000Y-58200000I1000000J0D01*
G01*
X115000000Y-58950000D02*
X113250000Y-58950000D01*
X115000000Y-57450000D02*
X115000000Y-58950000D01*
X115000000Y-57450000D02*
X113250000Y-57450000D01*
%TO.C,D10*%
X125707107Y-75592893D02*
G75*
G03*
X124292893Y-77007107I-707107J-707107D01*
G01*
X123409010Y-76830330D02*
X124646447Y-75592893D01*
X124469670Y-77890990D02*
X123409010Y-76830330D01*
X124469670Y-77890990D02*
X125707107Y-76653553D01*
%TO.C,D9*%
X124800000Y-81800000D02*
G75*
G03*
X124800000Y-83800000I0J-1000000D01*
G01*
X124050000Y-84300000D02*
X124050000Y-82550000D01*
X125550000Y-84300000D02*
X124050000Y-84300000D01*
X125550000Y-84300000D02*
X125550000Y-82550000D01*
%TO.C,D8*%
X113241181Y-128465926D02*
G75*
G03*
X113758819Y-126534074I258819J965926D01*
G01*
X114612673Y-126245226D02*
X114159740Y-127935596D01*
X113163784Y-125856997D02*
X114612673Y-126245226D01*
X113163784Y-125856997D02*
X112710851Y-127547367D01*
%TO.C,D7*%
X110500000Y-128500000D02*
G75*
G03*
X108500000Y-128500000I-1000000J0D01*
G01*
X108000000Y-127750000D02*
X109750000Y-127750000D01*
X108000000Y-129250000D02*
X108000000Y-127750000D01*
X108000000Y-129250000D02*
X109750000Y-129250000D01*
%TO.C,D6*%
X107384808Y-102926352D02*
G75*
G03*
X105415192Y-103273648I-984808J-173648D01*
G01*
X104792552Y-102621866D02*
X106515966Y-102317982D01*
X105053025Y-104099078D02*
X104792552Y-102621866D01*
X105053025Y-104099078D02*
X106776438Y-103795194D01*
%TO.C,D5*%
X102015192Y-103473648D02*
G75*
G03*
X103984808Y-103126352I984808J173648D01*
G01*
X104607448Y-103778134D02*
X102884034Y-104082018D01*
X104346975Y-102300922D02*
X104607448Y-103778134D01*
X104346975Y-102300922D02*
X102623562Y-102604806D01*
%TO.C,D4*%
X102500000Y-129000000D02*
G75*
G03*
X100500000Y-129000000I-1000000J0D01*
G01*
X100000000Y-128250000D02*
X101750000Y-128250000D01*
X100000000Y-129750000D02*
X100000000Y-128250000D01*
X100000000Y-129750000D02*
X101750000Y-129750000D01*
%TO.C,D3*%
X119342020Y-139060307D02*
G75*
G03*
X118657980Y-140939693I-342020J-939693D01*
G01*
X117782200Y-141153024D02*
X118380736Y-139508562D01*
X119191739Y-141666054D02*
X117782200Y-141153024D01*
X119191739Y-141666054D02*
X119790275Y-140021592D01*
%TO.C,D2*%
X84500000Y-140000000D02*
G75*
G03*
X84500000Y-138000000I0J1000000D01*
G01*
X85250000Y-137500000D02*
X85250000Y-139250000D01*
X83750000Y-137500000D02*
X85250000Y-137500000D01*
X83750000Y-137500000D02*
X83750000Y-139250000D01*
%TO.C,D1*%
X110819152Y-142926424D02*
G75*
G03*
X109180848Y-144073576I-819152J-573576D01*
G01*
X108341090Y-143746001D02*
X109774606Y-142742242D01*
X109201454Y-144974729D02*
X108341090Y-143746001D01*
X109201454Y-144974729D02*
X110634970Y-143970970D01*
D11*
%TO.C,X1*%
X108350000Y-139750000D02*
G75*
G03*
X108350000Y-139750000I-600000J0D01*
G01*
%TD*%
M02*
