%TF.GenerationSoftware,KiCad,Pcbnew,6.0.1-79c1e3a40b~116~ubuntu20.04.1*%
%TF.CreationDate,2022-02-06T08:21:26-08:00*%
%TF.ProjectId,rc2014-compat-backplane,72633230-3134-42d6-936f-6d7061742d62,rev?*%
%TF.SameCoordinates,Original*%
%TF.FileFunction,Soldermask,Bot*%
%TF.FilePolarity,Negative*%
%FSLAX46Y46*%
G04 Gerber Fmt 4.6, Leading zero omitted, Abs format (unit mm)*
G04 Created by KiCad (PCBNEW 6.0.1-79c1e3a40b~116~ubuntu20.04.1) date 2022-02-06 08:21:26*
%MOMM*%
%LPD*%
G01*
G04 APERTURE LIST*
G04 Aperture macros list*
%AMRoundRect*
0 Rectangle with rounded corners*
0 $1 Rounding radius*
0 $2 $3 $4 $5 $6 $7 $8 $9 X,Y pos of 4 corners*
0 Add a 4 corners polygon primitive as box body*
4,1,4,$2,$3,$4,$5,$6,$7,$8,$9,$2,$3,0*
0 Add four circle primitives for the rounded corners*
1,1,$1+$1,$2,$3*
1,1,$1+$1,$4,$5*
1,1,$1+$1,$6,$7*
1,1,$1+$1,$8,$9*
0 Add four rect primitives between the rounded corners*
20,1,$1+$1,$2,$3,$4,$5,0*
20,1,$1+$1,$4,$5,$6,$7,0*
20,1,$1+$1,$6,$7,$8,$9,0*
20,1,$1+$1,$8,$9,$2,$3,0*%
G04 Aperture macros list end*
%ADD10O,1.400000X2.800000*%
%ADD11R,1.800000X1.800000*%
%ADD12C,1.800000*%
%ADD13O,2.800000X1.400000*%
%ADD14R,2.000000X2.000000*%
%ADD15C,2.000000*%
%ADD16O,2.000000X1.500000*%
%ADD17RoundRect,0.375000X-1.325000X-0.375000X1.325000X-0.375000X1.325000X0.375000X-1.325000X0.375000X0*%
G04 APERTURE END LIST*
D10*
%TO.C,R11*%
X185928000Y-188660000D03*
X185928000Y-182180000D03*
%TD*%
%TO.C,R10*%
X42672000Y-188660000D03*
X42672000Y-182180000D03*
%TD*%
D11*
%TO.C,D7*%
X187203000Y-193548000D03*
D12*
X184663000Y-193548000D03*
%TD*%
D11*
%TO.C,D6*%
X41397000Y-193548000D03*
D12*
X43937000Y-193548000D03*
%TD*%
D10*
%TO.C,R1*%
X34544000Y-45528000D03*
X34544000Y-52008000D03*
%TD*%
D13*
%TO.C,R7*%
X117540000Y-54864000D03*
X111060000Y-54864000D03*
%TD*%
D14*
%TO.C,C12*%
X175199000Y-108204000D03*
D15*
X180199000Y-108204000D03*
%TD*%
D14*
%TO.C,C9*%
X149799000Y-108204000D03*
D15*
X154799000Y-108204000D03*
%TD*%
D14*
%TO.C,C6*%
X124399000Y-108204000D03*
D15*
X129399000Y-108204000D03*
%TD*%
D14*
%TO.C,C3*%
X98999000Y-108204000D03*
D15*
X103999000Y-108204000D03*
%TD*%
D14*
%TO.C,C2*%
X73599000Y-108204000D03*
D15*
X78599000Y-108204000D03*
%TD*%
D14*
%TO.C,C1*%
X48199000Y-108204000D03*
D15*
X53199000Y-108204000D03*
%TD*%
%TO.C,J1*%
X39370000Y-28170000D03*
D16*
X39370000Y-23770000D03*
%TD*%
D17*
%TO.C,J4*%
X61380000Y-64770000D03*
X61380000Y-67310000D03*
X61380000Y-69850000D03*
X61380000Y-72390000D03*
X61380000Y-74930000D03*
X61380000Y-77470000D03*
X61380000Y-80010000D03*
X61380000Y-82550000D03*
X61380000Y-85090000D03*
X61380000Y-87630000D03*
X61380000Y-90170000D03*
X61380000Y-92710000D03*
X61380000Y-95250000D03*
X61380000Y-97790000D03*
X61380000Y-100330000D03*
X61380000Y-102870000D03*
X61380000Y-105410000D03*
X61380000Y-107950000D03*
X61380000Y-110490000D03*
X61380000Y-113030000D03*
X61380000Y-115570000D03*
X61380000Y-118110000D03*
X61380000Y-120650000D03*
X61380000Y-123190000D03*
X61380000Y-125730000D03*
X61380000Y-128270000D03*
X61380000Y-130810000D03*
X61380000Y-133350000D03*
X61380000Y-135890000D03*
X61380000Y-138430000D03*
X61380000Y-140970000D03*
X61380000Y-143510000D03*
X61380000Y-146050000D03*
X61380000Y-148590000D03*
X61380000Y-151130000D03*
X61380000Y-153670000D03*
X61380000Y-156210000D03*
X61380000Y-158750000D03*
X61380000Y-161290000D03*
X61380000Y-163830000D03*
%TD*%
%TO.C,J13*%
X167220000Y-64770000D03*
X167220000Y-67310000D03*
X167220000Y-69850000D03*
X167220000Y-72390000D03*
X167220000Y-74930000D03*
X167220000Y-77470000D03*
X167220000Y-80010000D03*
X167220000Y-82550000D03*
X167220000Y-85090000D03*
X167220000Y-87630000D03*
X167220000Y-90170000D03*
X167220000Y-92710000D03*
X167220000Y-95250000D03*
X167220000Y-97790000D03*
X167220000Y-100330000D03*
X167220000Y-102870000D03*
X167220000Y-105410000D03*
X167220000Y-107950000D03*
X167220000Y-110490000D03*
X167220000Y-113030000D03*
X167220000Y-115570000D03*
X167220000Y-118110000D03*
X167220000Y-120650000D03*
X167220000Y-123190000D03*
X167220000Y-125730000D03*
X167220000Y-128270000D03*
X167220000Y-130810000D03*
X167220000Y-133350000D03*
X167220000Y-135890000D03*
X167220000Y-138430000D03*
X167220000Y-140970000D03*
X167220000Y-143510000D03*
X167220000Y-146050000D03*
X167220000Y-148590000D03*
X167220000Y-151130000D03*
X167220000Y-153670000D03*
X167220000Y-156210000D03*
X167220000Y-158750000D03*
X167220000Y-161290000D03*
X167220000Y-163830000D03*
%TD*%
%TO.C,J11*%
X141820000Y-64770000D03*
X141820000Y-67310000D03*
X141820000Y-69850000D03*
X141820000Y-72390000D03*
X141820000Y-74930000D03*
X141820000Y-77470000D03*
X141820000Y-80010000D03*
X141820000Y-82550000D03*
X141820000Y-85090000D03*
X141820000Y-87630000D03*
X141820000Y-90170000D03*
X141820000Y-92710000D03*
X141820000Y-95250000D03*
X141820000Y-97790000D03*
X141820000Y-100330000D03*
X141820000Y-102870000D03*
X141820000Y-105410000D03*
X141820000Y-107950000D03*
X141820000Y-110490000D03*
X141820000Y-113030000D03*
X141820000Y-115570000D03*
X141820000Y-118110000D03*
X141820000Y-120650000D03*
X141820000Y-123190000D03*
X141820000Y-125730000D03*
X141820000Y-128270000D03*
X141820000Y-130810000D03*
X141820000Y-133350000D03*
X141820000Y-135890000D03*
X141820000Y-138430000D03*
X141820000Y-140970000D03*
X141820000Y-143510000D03*
X141820000Y-146050000D03*
X141820000Y-148590000D03*
X141820000Y-151130000D03*
X141820000Y-153670000D03*
X141820000Y-156210000D03*
X141820000Y-158750000D03*
X141820000Y-161290000D03*
X141820000Y-163830000D03*
%TD*%
%TO.C,J10*%
X137580000Y-64770000D03*
X137580000Y-67310000D03*
X137580000Y-69850000D03*
X137580000Y-72390000D03*
X137580000Y-74930000D03*
X137580000Y-77470000D03*
X137580000Y-80010000D03*
X137580000Y-82550000D03*
X137580000Y-85090000D03*
X137580000Y-87630000D03*
X137580000Y-90170000D03*
X137580000Y-92710000D03*
X137580000Y-95250000D03*
X137580000Y-97790000D03*
X137580000Y-100330000D03*
X137580000Y-102870000D03*
X137580000Y-105410000D03*
X137580000Y-107950000D03*
X137580000Y-110490000D03*
X137580000Y-113030000D03*
X137580000Y-115570000D03*
X137580000Y-118110000D03*
X137580000Y-120650000D03*
X137580000Y-123190000D03*
X137580000Y-125730000D03*
X137580000Y-128270000D03*
X137580000Y-130810000D03*
X137580000Y-133350000D03*
X137580000Y-135890000D03*
X137580000Y-138430000D03*
X137580000Y-140970000D03*
X137580000Y-143510000D03*
X137580000Y-146050000D03*
X137580000Y-148590000D03*
X137580000Y-151130000D03*
X137580000Y-153670000D03*
X137580000Y-156210000D03*
X137580000Y-158750000D03*
X137580000Y-161290000D03*
X137580000Y-163830000D03*
%TD*%
%TO.C,J14*%
X188380000Y-64770000D03*
X188380000Y-67310000D03*
X188380000Y-69850000D03*
X188380000Y-72390000D03*
X188380000Y-74930000D03*
X188380000Y-77470000D03*
X188380000Y-80010000D03*
X188380000Y-82550000D03*
X188380000Y-85090000D03*
X188380000Y-87630000D03*
X188380000Y-90170000D03*
X188380000Y-92710000D03*
X188380000Y-95250000D03*
X188380000Y-97790000D03*
X188380000Y-100330000D03*
X188380000Y-102870000D03*
X188380000Y-105410000D03*
X188380000Y-107950000D03*
X188380000Y-110490000D03*
X188380000Y-113030000D03*
X188380000Y-115570000D03*
X188380000Y-118110000D03*
X188380000Y-120650000D03*
X188380000Y-123190000D03*
X188380000Y-125730000D03*
X188380000Y-128270000D03*
X188380000Y-130810000D03*
X188380000Y-133350000D03*
X188380000Y-135890000D03*
X188380000Y-138430000D03*
X188380000Y-140970000D03*
X188380000Y-143510000D03*
X188380000Y-146050000D03*
X188380000Y-148590000D03*
X188380000Y-151130000D03*
X188380000Y-153670000D03*
X188380000Y-156210000D03*
X188380000Y-158750000D03*
X188380000Y-161290000D03*
X188380000Y-163830000D03*
%TD*%
%TO.C,J15*%
X192620000Y-64770000D03*
X192620000Y-67310000D03*
X192620000Y-69850000D03*
X192620000Y-72390000D03*
X192620000Y-74930000D03*
X192620000Y-77470000D03*
X192620000Y-80010000D03*
X192620000Y-82550000D03*
X192620000Y-85090000D03*
X192620000Y-87630000D03*
X192620000Y-90170000D03*
X192620000Y-92710000D03*
X192620000Y-95250000D03*
X192620000Y-97790000D03*
X192620000Y-100330000D03*
X192620000Y-102870000D03*
X192620000Y-105410000D03*
X192620000Y-107950000D03*
X192620000Y-110490000D03*
X192620000Y-113030000D03*
X192620000Y-115570000D03*
X192620000Y-118110000D03*
X192620000Y-120650000D03*
X192620000Y-123190000D03*
X192620000Y-125730000D03*
X192620000Y-128270000D03*
X192620000Y-130810000D03*
X192620000Y-133350000D03*
X192620000Y-135890000D03*
X192620000Y-138430000D03*
X192620000Y-140970000D03*
X192620000Y-143510000D03*
X192620000Y-146050000D03*
X192620000Y-148590000D03*
X192620000Y-151130000D03*
X192620000Y-153670000D03*
X192620000Y-156210000D03*
X192620000Y-158750000D03*
X192620000Y-161290000D03*
X192620000Y-163830000D03*
%TD*%
%TO.C,J3*%
X40220000Y-64770000D03*
X40220000Y-67310000D03*
X40220000Y-69850000D03*
X40220000Y-72390000D03*
X40220000Y-74930000D03*
X40220000Y-77470000D03*
X40220000Y-80010000D03*
X40220000Y-82550000D03*
X40220000Y-85090000D03*
X40220000Y-87630000D03*
X40220000Y-90170000D03*
X40220000Y-92710000D03*
X40220000Y-95250000D03*
X40220000Y-97790000D03*
X40220000Y-100330000D03*
X40220000Y-102870000D03*
X40220000Y-105410000D03*
X40220000Y-107950000D03*
X40220000Y-110490000D03*
X40220000Y-113030000D03*
X40220000Y-115570000D03*
X40220000Y-118110000D03*
X40220000Y-120650000D03*
X40220000Y-123190000D03*
X40220000Y-125730000D03*
X40220000Y-128270000D03*
X40220000Y-130810000D03*
X40220000Y-133350000D03*
X40220000Y-135890000D03*
X40220000Y-138430000D03*
X40220000Y-140970000D03*
X40220000Y-143510000D03*
X40220000Y-146050000D03*
X40220000Y-148590000D03*
X40220000Y-151130000D03*
X40220000Y-153670000D03*
X40220000Y-156210000D03*
X40220000Y-158750000D03*
X40220000Y-161290000D03*
X40220000Y-163830000D03*
%TD*%
%TO.C,J12*%
X162980000Y-64770000D03*
X162980000Y-67310000D03*
X162980000Y-69850000D03*
X162980000Y-72390000D03*
X162980000Y-74930000D03*
X162980000Y-77470000D03*
X162980000Y-80010000D03*
X162980000Y-82550000D03*
X162980000Y-85090000D03*
X162980000Y-87630000D03*
X162980000Y-90170000D03*
X162980000Y-92710000D03*
X162980000Y-95250000D03*
X162980000Y-97790000D03*
X162980000Y-100330000D03*
X162980000Y-102870000D03*
X162980000Y-105410000D03*
X162980000Y-107950000D03*
X162980000Y-110490000D03*
X162980000Y-113030000D03*
X162980000Y-115570000D03*
X162980000Y-118110000D03*
X162980000Y-120650000D03*
X162980000Y-123190000D03*
X162980000Y-125730000D03*
X162980000Y-128270000D03*
X162980000Y-130810000D03*
X162980000Y-133350000D03*
X162980000Y-135890000D03*
X162980000Y-138430000D03*
X162980000Y-140970000D03*
X162980000Y-143510000D03*
X162980000Y-146050000D03*
X162980000Y-148590000D03*
X162980000Y-151130000D03*
X162980000Y-153670000D03*
X162980000Y-156210000D03*
X162980000Y-158750000D03*
X162980000Y-161290000D03*
X162980000Y-163830000D03*
%TD*%
%TO.C,J6*%
X86780000Y-64770000D03*
X86780000Y-67310000D03*
X86780000Y-69850000D03*
X86780000Y-72390000D03*
X86780000Y-74930000D03*
X86780000Y-77470000D03*
X86780000Y-80010000D03*
X86780000Y-82550000D03*
X86780000Y-85090000D03*
X86780000Y-87630000D03*
X86780000Y-90170000D03*
X86780000Y-92710000D03*
X86780000Y-95250000D03*
X86780000Y-97790000D03*
X86780000Y-100330000D03*
X86780000Y-102870000D03*
X86780000Y-105410000D03*
X86780000Y-107950000D03*
X86780000Y-110490000D03*
X86780000Y-113030000D03*
X86780000Y-115570000D03*
X86780000Y-118110000D03*
X86780000Y-120650000D03*
X86780000Y-123190000D03*
X86780000Y-125730000D03*
X86780000Y-128270000D03*
X86780000Y-130810000D03*
X86780000Y-133350000D03*
X86780000Y-135890000D03*
X86780000Y-138430000D03*
X86780000Y-140970000D03*
X86780000Y-143510000D03*
X86780000Y-146050000D03*
X86780000Y-148590000D03*
X86780000Y-151130000D03*
X86780000Y-153670000D03*
X86780000Y-156210000D03*
X86780000Y-158750000D03*
X86780000Y-161290000D03*
X86780000Y-163830000D03*
%TD*%
%TO.C,J5*%
X65620000Y-64770000D03*
X65620000Y-67310000D03*
X65620000Y-69850000D03*
X65620000Y-72390000D03*
X65620000Y-74930000D03*
X65620000Y-77470000D03*
X65620000Y-80010000D03*
X65620000Y-82550000D03*
X65620000Y-85090000D03*
X65620000Y-87630000D03*
X65620000Y-90170000D03*
X65620000Y-92710000D03*
X65620000Y-95250000D03*
X65620000Y-97790000D03*
X65620000Y-100330000D03*
X65620000Y-102870000D03*
X65620000Y-105410000D03*
X65620000Y-107950000D03*
X65620000Y-110490000D03*
X65620000Y-113030000D03*
X65620000Y-115570000D03*
X65620000Y-118110000D03*
X65620000Y-120650000D03*
X65620000Y-123190000D03*
X65620000Y-125730000D03*
X65620000Y-128270000D03*
X65620000Y-130810000D03*
X65620000Y-133350000D03*
X65620000Y-135890000D03*
X65620000Y-138430000D03*
X65620000Y-140970000D03*
X65620000Y-143510000D03*
X65620000Y-146050000D03*
X65620000Y-148590000D03*
X65620000Y-151130000D03*
X65620000Y-153670000D03*
X65620000Y-156210000D03*
X65620000Y-158750000D03*
X65620000Y-161290000D03*
X65620000Y-163830000D03*
%TD*%
%TO.C,J8*%
X112180000Y-64770000D03*
X112180000Y-67310000D03*
X112180000Y-69850000D03*
X112180000Y-72390000D03*
X112180000Y-74930000D03*
X112180000Y-77470000D03*
X112180000Y-80010000D03*
X112180000Y-82550000D03*
X112180000Y-85090000D03*
X112180000Y-87630000D03*
X112180000Y-90170000D03*
X112180000Y-92710000D03*
X112180000Y-95250000D03*
X112180000Y-97790000D03*
X112180000Y-100330000D03*
X112180000Y-102870000D03*
X112180000Y-105410000D03*
X112180000Y-107950000D03*
X112180000Y-110490000D03*
X112180000Y-113030000D03*
X112180000Y-115570000D03*
X112180000Y-118110000D03*
X112180000Y-120650000D03*
X112180000Y-123190000D03*
X112180000Y-125730000D03*
X112180000Y-128270000D03*
X112180000Y-130810000D03*
X112180000Y-133350000D03*
X112180000Y-135890000D03*
X112180000Y-138430000D03*
X112180000Y-140970000D03*
X112180000Y-143510000D03*
X112180000Y-146050000D03*
X112180000Y-148590000D03*
X112180000Y-151130000D03*
X112180000Y-153670000D03*
X112180000Y-156210000D03*
X112180000Y-158750000D03*
X112180000Y-161290000D03*
X112180000Y-163830000D03*
%TD*%
%TO.C,J7*%
X91020000Y-64770000D03*
X91020000Y-67310000D03*
X91020000Y-69850000D03*
X91020000Y-72390000D03*
X91020000Y-74930000D03*
X91020000Y-77470000D03*
X91020000Y-80010000D03*
X91020000Y-82550000D03*
X91020000Y-85090000D03*
X91020000Y-87630000D03*
X91020000Y-90170000D03*
X91020000Y-92710000D03*
X91020000Y-95250000D03*
X91020000Y-97790000D03*
X91020000Y-100330000D03*
X91020000Y-102870000D03*
X91020000Y-105410000D03*
X91020000Y-107950000D03*
X91020000Y-110490000D03*
X91020000Y-113030000D03*
X91020000Y-115570000D03*
X91020000Y-118110000D03*
X91020000Y-120650000D03*
X91020000Y-123190000D03*
X91020000Y-125730000D03*
X91020000Y-128270000D03*
X91020000Y-130810000D03*
X91020000Y-133350000D03*
X91020000Y-135890000D03*
X91020000Y-138430000D03*
X91020000Y-140970000D03*
X91020000Y-143510000D03*
X91020000Y-146050000D03*
X91020000Y-148590000D03*
X91020000Y-151130000D03*
X91020000Y-153670000D03*
X91020000Y-156210000D03*
X91020000Y-158750000D03*
X91020000Y-161290000D03*
X91020000Y-163830000D03*
%TD*%
%TO.C,J9*%
X116420000Y-64770000D03*
X116420000Y-67310000D03*
X116420000Y-69850000D03*
X116420000Y-72390000D03*
X116420000Y-74930000D03*
X116420000Y-77470000D03*
X116420000Y-80010000D03*
X116420000Y-82550000D03*
X116420000Y-85090000D03*
X116420000Y-87630000D03*
X116420000Y-90170000D03*
X116420000Y-92710000D03*
X116420000Y-95250000D03*
X116420000Y-97790000D03*
X116420000Y-100330000D03*
X116420000Y-102870000D03*
X116420000Y-105410000D03*
X116420000Y-107950000D03*
X116420000Y-110490000D03*
X116420000Y-113030000D03*
X116420000Y-115570000D03*
X116420000Y-118110000D03*
X116420000Y-120650000D03*
X116420000Y-123190000D03*
X116420000Y-125730000D03*
X116420000Y-128270000D03*
X116420000Y-130810000D03*
X116420000Y-133350000D03*
X116420000Y-135890000D03*
X116420000Y-138430000D03*
X116420000Y-140970000D03*
X116420000Y-143510000D03*
X116420000Y-146050000D03*
X116420000Y-148590000D03*
X116420000Y-151130000D03*
X116420000Y-153670000D03*
X116420000Y-156210000D03*
X116420000Y-158750000D03*
X116420000Y-161290000D03*
X116420000Y-163830000D03*
%TD*%
%TO.C,J2*%
X35980000Y-64770000D03*
X35980000Y-67310000D03*
X35980000Y-69850000D03*
X35980000Y-72390000D03*
X35980000Y-74930000D03*
X35980000Y-77470000D03*
X35980000Y-80010000D03*
X35980000Y-82550000D03*
X35980000Y-85090000D03*
X35980000Y-87630000D03*
X35980000Y-90170000D03*
X35980000Y-92710000D03*
X35980000Y-95250000D03*
X35980000Y-97790000D03*
X35980000Y-100330000D03*
X35980000Y-102870000D03*
X35980000Y-105410000D03*
X35980000Y-107950000D03*
X35980000Y-110490000D03*
X35980000Y-113030000D03*
X35980000Y-115570000D03*
X35980000Y-118110000D03*
X35980000Y-120650000D03*
X35980000Y-123190000D03*
X35980000Y-125730000D03*
X35980000Y-128270000D03*
X35980000Y-130810000D03*
X35980000Y-133350000D03*
X35980000Y-135890000D03*
X35980000Y-138430000D03*
X35980000Y-140970000D03*
X35980000Y-143510000D03*
X35980000Y-146050000D03*
X35980000Y-148590000D03*
X35980000Y-151130000D03*
X35980000Y-153670000D03*
X35980000Y-156210000D03*
X35980000Y-158750000D03*
X35980000Y-161290000D03*
X35980000Y-163830000D03*
%TD*%
M02*
