  0
SECTION
  2
HEADER
  9
$ACADVER
  1
AC1014
  9
$HANDSEED
  5
FFFF
  9
$MEASUREMENT
 70
     1
  0
ENDSEC
  0
SECTION
  2
TABLES
  0
TABLE
  2
VPORT
  5
8
330
0
100
AcDbSymbolTable
 70
     4
  0
VPORT
  5
2E
330
8
100
AcDbSymbolTableRecord
100
AcDbViewportTableRecord
  2
*ACTIVE
 70
     0
 10
0.0
 20
0.0
 11
1.0
 21
1.0
 12
210.0
 22
148.5
 13
0.0
 23
0.0
 14
10.0
 24
10.0
 15
10.0
 25
10.0
 16
0.0
 26
0.0
 36
1.0
 17
0.0
 27
0.0
 37
0.0
 40
341.0
 41
1.24
 42
50.0
 43
0.0
 44
0.0
 50
0.0
 51
0.0
 71
     0
 72
   100
 73
     1
 74
     3
 75
     0
 76
     0
 77
     0
 78
     0
  0
ENDTAB
  0
TABLE
  2
LTYPE
  5
5
330
0
100
AcDbSymbolTable
 70
     1
  0
LTYPE
  5
14
330
5
100
AcDbSymbolTableRecord
100
AcDbLinetypeTableRecord
  2
BYBLOCK
 70
     0
  3

 72
    65
 73
     0
 40
0.0
  0
LTYPE
  5
15
330
5
100
AcDbSymbolTableRecord
100
AcDbLinetypeTableRecord
  2
BYLAYER
 70
     0
  3

 72
    65
 73
     0
 40
0.0
  0
LTYPE
  5
16
330
5
100
AcDbSymbolTableRecord
100
AcDbLinetypeTableRecord
  2
CONTINUOUS
 70
     0
  3
Solid line
 72
    65
 73
     0
 40
0.0
  0
ENDTAB
  0
TABLE
  2
LAYER
  5
2
100
AcDbSymbolTable
 70
3
  0
LAYER
  5
50
100
AcDbSymbolTableRecord
100
AcDbLayerTableRecord
  2
0
 70
0
  6
CONTINUOUS
  0
LAYER
  5
51
100
AcDbSymbolTableRecord
100
AcDbLayerTableRecord
  2
Layer_1
 70
0
  6
CONTINUOUS
  0
LAYER
  5
52
100
AcDbSymbolTableRecord
100
AcDbLayerTableRecord
  2
Layer_2
 70
0
  6
CONTINUOUS
  0
ENDTAB
  0
TABLE
  2
STYLE
  5
3
330
0
100
AcDbSymbolTable
 70
     1
  0
STYLE
  5
11
330
3
100
AcDbSymbolTableRecord
100
AcDbTextStyleTableRecord
  2
STANDARD
 70
     0
 40
0.0
 41
1.0
 50
0.0
 71
     0
 42
2.5
  3
txt
  4

  0
ENDTAB
  0
TABLE
  2
VIEW
  5
6
330
0
100
AcDbSymbolTable
 70
     0
  0
ENDTAB
  0
TABLE
  2
UCS
  5
7
330
0
100
AcDbSymbolTable
 70
     0
  0
ENDTAB
  0
TABLE
  2
APPID
  5
9
330
0
100
AcDbSymbolTable
 70
     2
  0
APPID
  5
12
330
9
100
AcDbSymbolTableRecord
100
AcDbRegAppTableRecord
  2
ACAD
 70
     0
  0
ENDTAB
  0
TABLE
  2
DIMSTYLE
  5
A
330
0
100
AcDbSymbolTable
 70
     1
  0
DIMSTYLE
105
27
330
A
100
AcDbSymbolTableRecord
100
AcDbDimStyleTableRecord
  2
ISO-25
 70
     0
  3

  4

  5

  6

  7

 40
1.0
 41
2.5
 42
0.625
 43
3.75
 44
1.25
 45
0.0
 46
0.0
 47
0.0
 48
0.0
140
2.5
141
2.5
142
0.0
143
0.03937007874016
144
1.0
145
0.0
146
1.0
147
0.625
 71
     0
 72
     0
 73
     0
 74
     0
 75
     0
 76
     0
 77
     1
 78
     8
170
     0
171
     3
172
     1
173
     0
174
     0
175
     0
176
     0
177
     0
178
     0
270
     2
271
     2
272
     2
273
     2
274
     3
340
11
275
     0
280
     0
281
     0
282
     0
283
     0
284
     8
285
     0
286
     0
287
     3
288
     0
  0
ENDTAB
  0
TABLE
  2
BLOCK_RECORD
  5
1
330
0
100
AcDbSymbolTable
 70
     1
  0
BLOCK_RECORD
  5
1F
330
1
100
AcDbSymbolTableRecord
100
AcDbBlockTableRecord
  2
*MODEL_SPACE
  0
BLOCK_RECORD
  5
1B
330
1
100
AcDbSymbolTableRecord
100
AcDbBlockTableRecord
  2
*PAPER_SPACE
  0
ENDTAB
  0
ENDSEC
  0
SECTION
  2
BLOCKS
  0
BLOCK
  5
20
330
1F
100
AcDbEntity
  8
0
100
AcDbBlockBegin
  2
*MODEL_SPACE
 70
     0
 10
0.0
 20
0.0
 30
0.0
  3
*MODEL_SPACE
  1

  0
ENDBLK
  5
21
330
1F
100
AcDbEntity
  8
0
100
AcDbBlockEnd
  0
BLOCK
  5
1C
330
1B
100
AcDbEntity
 67
     1
  8
0
100
AcDbBlockBegin
  2
*PAPER_SPACE
  1

  0
ENDBLK
  5
1D
330
1B
100
AcDbEntity
 67
     1
  8
0
100
AcDbBlockEnd
  0
ENDSEC
  0
SECTION
  2
ENTITIES
  0
SPLINE
  5
100
100
AcDbEntity
  8
Layer_2
 62
7
100
AcDbSpline
 70
8
 71
3
 72
8
 73
4
 74
0
 40
0
 40
0
 40
0
 40
0
 40
1
 40
1
 40
1
 40
1
 10
46.863000
 20
4.505534
 30
0.0
 10
46.443900
 20
4.566814
 30
0.0
 10
45.986700
 20
4.701953
 30
0.0
 10
45.847000
 20
4.805844
 30
0.0
  0
SPLINE
  5
101
100
AcDbEntity
  8
Layer_2
 62
7
100
AcDbSpline
 70
8
 71
3
 72
8
 73
4
 74
0
 40
0
 40
0
 40
0
 40
0
 40
1
 40
1
 40
1
 40
1
 10
45.847000
 20
4.805844
 30
0.0
 10
45.707300
 20
4.909735
 30
0.0
 10
44.907200
 20
5.147096
 30
0.0
 10
44.069000
 20
5.333309
 30
0.0
  0
SPLINE
  5
102
100
AcDbEntity
  8
Layer_2
 62
7
100
AcDbSpline
 70
8
 71
3
 72
8
 73
4
 74
0
 40
0
 40
0
 40
0
 40
0
 40
1
 40
1
 40
1
 40
1
 10
44.069000
 20
5.333309
 30
0.0
 10
43.230800
 20
5.519523
 30
0.0
 10
42.373550
 20
5.811885
 30
0.0
 10
42.164000
 20
5.982999
 30
0.0
  0
SPLINE
  5
103
100
AcDbEntity
  8
Layer_2
 62
7
100
AcDbSpline
 70
8
 71
3
 72
8
 73
4
 74
0
 40
0
 40
0
 40
0
 40
0
 40
1
 40
1
 40
1
 40
1
 10
42.164000
 20
5.982999
 30
0.0
 10
41.766757
 20
6.307386
 30
0.0
 10
38.224952
 20
6.858000
 30
0.0
 10
36.535614
 20
6.858000
 30
0.0
  0
SPLINE
  5
104
100
AcDbEntity
  8
Layer_2
 62
7
100
AcDbSpline
 70
8
 71
3
 72
8
 73
4
 74
0
 40
0
 40
0
 40
0
 40
0
 40
1
 40
1
 40
1
 40
1
 10
36.535614
 20
6.858000
 30
0.0
 10
35.999026
 20
6.858000
 30
0.0
 10
35.560000
 20
6.952959
 30
0.0
 10
35.560000
 20
7.069021
 30
0.0
  0
SPLINE
  5
105
100
AcDbEntity
  8
Layer_2
 62
7
100
AcDbSpline
 70
8
 71
3
 72
8
 73
4
 74
0
 40
0
 40
0
 40
0
 40
0
 40
1
 40
1
 40
1
 40
1
 10
35.560000
 20
7.069021
 30
0.0
 10
35.560000
 20
7.185081
 30
0.0
 10
34.959925
 20
7.281233
 30
0.0
 10
34.226500
 20
7.282693
 30
0.0
  0
SPLINE
  5
106
100
AcDbEntity
  8
Layer_2
 62
7
100
AcDbSpline
 70
8
 71
3
 72
8
 73
4
 74
0
 40
0
 40
0
 40
0
 40
0
 40
1
 40
1
 40
1
 40
1
 10
34.226500
 20
7.282693
 30
0.0
 10
30.620261
 20
7.289890
 30
0.0
 10
14.247194
 20
7.875196
 30
0.0
 10
13.525500
 20
8.022738
 30
0.0
  0
SPLINE
  5
107
100
AcDbEntity
  8
Layer_2
 62
7
100
AcDbSpline
 70
8
 71
3
 72
8
 73
4
 74
0
 40
0
 40
0
 40
0
 40
0
 40
1
 40
1
 40
1
 40
1
 10
13.525500
 20
8.022738
 30
0.0
 10
13.071475
 20
8.115557
 30
0.0
 10
12.700000
 20
8.271529
 30
0.0
 10
12.700000
 20
8.369337
 30
0.0
  0
SPLINE
  5
108
100
AcDbEntity
  8
Layer_2
 62
7
100
AcDbSpline
 70
8
 71
3
 72
8
 73
4
 74
0
 40
0
 40
0
 40
0
 40
0
 40
1
 40
1
 40
1
 40
1
 10
12.700000
 20
8.369337
 30
0.0
 10
12.700000
 20
8.467148
 30
0.0
 10
12.082106
 20
8.994963
 30
0.0
 10
11.326903
 20
9.542261
 30
0.0
  0
SPLINE
  5
109
100
AcDbEntity
  8
Layer_2
 62
7
100
AcDbSpline
 70
8
 71
3
 72
8
 73
4
 74
0
 40
0
 40
0
 40
0
 40
0
 40
1
 40
1
 40
1
 40
1
 10
11.326903
 20
9.542261
 30
0.0
 10
9.870869
 20
10.597454
 30
0.0
 10
9.706994
 20
11.078369
 30
0.0
 10
10.444613
 20
12.131469
 30
0.0
  0
SPLINE
  5
10a
100
AcDbEntity
  8
Layer_2
 62
7
100
AcDbSpline
 70
8
 71
3
 72
8
 73
4
 74
0
 40
0
 40
0
 40
0
 40
0
 40
1
 40
1
 40
1
 40
1
 10
10.444613
 20
12.131469
 30
0.0
 10
11.104219
 20
13.073187
 30
0.0
 10
13.773889
 20
14.247990
 30
0.0
 10
15.928578
 20
14.544717
 30
0.0
  0
SPLINE
  5
10b
100
AcDbEntity
  8
Layer_2
 62
7
100
AcDbSpline
 70
8
 71
3
 72
8
 73
4
 74
0
 40
0
 40
0
 40
0
 40
0
 40
1
 40
1
 40
1
 40
1
 10
15.928578
 20
14.544717
 30
0.0
 10
17.016709
 20
14.694564
 30
0.0
 10
17.964149
 20
14.894631
 30
0.0
 10
18.033999
 20
14.989307
 30
0.0
  0
SPLINE
  5
10c
100
AcDbEntity
  8
Layer_2
 62
7
100
AcDbSpline
 70
8
 71
3
 72
8
 73
4
 74
0
 40
0
 40
0
 40
0
 40
0
 40
1
 40
1
 40
1
 40
1
 10
18.033999
 20
14.989307
 30
0.0
 10
18.140820
 20
15.134095
 30
0.0
 10
24.118853
 20
15.753220
 30
0.0
 10
25.803654
 20
15.793987
 30
0.0
  0
SPLINE
  5
10d
100
AcDbEntity
  8
Layer_2
 62
7
100
AcDbSpline
 70
8
 71
3
 72
8
 73
4
 74
0
 40
0
 40
0
 40
0
 40
0
 40
1
 40
1
 40
1
 40
1
 10
25.803654
 20
15.793987
 30
0.0
 10
26.217768
 20
15.803988
 30
0.0
 10
26.309827
 20
15.934894
 30
0.0
 10
26.222835
 20
16.389966
 30
0.0
  0
SPLINE
  5
10e
100
AcDbEntity
  8
Layer_2
 62
7
100
AcDbSpline
 70
8
 71
3
 72
8
 73
4
 74
0
 40
0
 40
0
 40
0
 40
0
 40
1
 40
1
 40
1
 40
1
 10
26.222835
 20
16.389966
 30
0.0
 10
26.088817
 20
17.091036
 30
0.0
 10
26.844995
 20
17.658358
 30
0.0
 10
28.257500
 20
17.916477
 30
0.0
  0
SPLINE
  5
10f
100
AcDbEntity
  8
Layer_2
 62
7
100
AcDbSpline
 70
8
 71
3
 72
8
 73
4
 74
0
 40
0
 40
0
 40
0
 40
0
 40
1
 40
1
 40
1
 40
1
 10
28.257500
 20
17.916477
 30
0.0
 10
28.781375
 20
18.012209
 30
0.0
 10
29.210000
 20
18.174012
 30
0.0
 10
29.210000
 20
18.276038
 30
0.0
  0
SPLINE
  5
110
100
AcDbEntity
  8
Layer_2
 62
7
100
AcDbSpline
 70
8
 71
3
 72
8
 73
4
 74
0
 40
0
 40
0
 40
0
 40
0
 40
1
 40
1
 40
1
 40
1
 10
29.210000
 20
18.276038
 30
0.0
 10
29.210000
 20
18.378062
 30
0.0
 10
29.712224
 20
18.469131
 30
0.0
 10
30.326052
 20
18.478413
 30
0.0
  0
SPLINE
  5
111
100
AcDbEntity
  8
Layer_2
 62
7
100
AcDbSpline
 70
8
 71
3
 72
8
 73
4
 74
0
 40
0
 40
0
 40
0
 40
0
 40
1
 40
1
 40
1
 40
1
 10
30.326052
 20
18.478413
 30
0.0
 10
30.939883
 20
18.487673
 30
0.0
 10
31.675319
 20
18.620094
 30
0.0
 10
31.960354
 20
18.772643
 30
0.0
  0
SPLINE
  5
112
100
AcDbEntity
  8
Layer_2
 62
7
100
AcDbSpline
 70
8
 71
3
 72
8
 73
4
 74
0
 40
0
 40
0
 40
0
 40
0
 40
1
 40
1
 40
1
 40
1
 10
31.960354
 20
18.772643
 30
0.0
 10
32.245390
 20
18.925188
 30
0.0
 10
32.751493
 20
19.050000
 30
0.0
 10
33.085024
 20
19.050000
 30
0.0
  0
SPLINE
  5
113
100
AcDbEntity
  8
Layer_2
 62
7
100
AcDbSpline
 70
8
 71
3
 72
8
 73
4
 74
0
 40
0
 40
0
 40
0
 40
0
 40
1
 40
1
 40
1
 40
1
 10
33.085024
 20
19.050000
 30
0.0
 10
33.567555
 20
19.050000
 30
0.0
 10
33.809710
 20
19.311686
 30
0.0
 10
34.270347
 20
20.330919
 30
0.0
  0
SPLINE
  5
114
100
AcDbEntity
  8
Layer_2
 62
7
100
AcDbSpline
 70
8
 71
3
 72
8
 73
4
 74
0
 40
0
 40
0
 40
0
 40
0
 40
1
 40
1
 40
1
 40
1
 10
34.270347
 20
20.330919
 30
0.0
 10
35.000859
 20
21.947293
 30
0.0
 10
37.117946
 20
23.622000
 30
0.0
 10
38.430785
 20
23.622000
 30
0.0
  0
SPLINE
  5
115
100
AcDbEntity
  8
Layer_2
 62
7
100
AcDbSpline
 70
8
 71
3
 72
8
 73
4
 74
0
 40
0
 40
0
 40
0
 40
0
 40
1
 40
1
 40
1
 40
1
 10
38.430785
 20
23.622000
 30
0.0
 10
38.948423
 20
23.622000
 30
0.0
 10
39.462350
 20
23.811047
 30
0.0
 10
39.720658
 20
24.096475
 30
0.0
  0
SPLINE
  5
116
100
AcDbEntity
  8
Layer_2
 62
7
100
AcDbSpline
 70
8
 71
3
 72
8
 73
4
 74
0
 40
0
 40
0
 40
0
 40
0
 40
1
 40
1
 40
1
 40
1
 10
39.720658
 20
24.096475
 30
0.0
 10
40.162840
 20
24.585078
 30
0.0
 10
40.460036
 20
24.621887
 30
0.0
 10
47.879000
 20
25.106934
 30
0.0
  0
SPLINE
  5
117
100
AcDbEntity
  8
Layer_2
 62
7
100
AcDbSpline
 70
8
 71
3
 72
8
 73
4
 74
0
 40
0
 40
0
 40
0
 40
0
 40
1
 40
1
 40
1
 40
1
 10
50.418997
 20
26.253810
 30
0.0
 10
50.418997
 20
27.201932
 30
0.0
 10
50.375455
 20
27.250864
 30
0.0
 10
49.112562
 20
27.721965
 30
0.0
  0
SPLINE
  5
118
100
AcDbEntity
  8
Layer_2
 62
7
100
AcDbSpline
 70
8
 71
3
 72
8
 73
4
 74
0
 40
0
 40
0
 40
0
 40
0
 40
1
 40
1
 40
1
 40
1
 10
49.112562
 20
27.721965
 30
0.0
 10
47.035085
 20
28.496935
 30
0.0
 10
45.686700
 20
29.857599
 30
0.0
 10
45.090707
 20
31.780451
 30
0.0
  0
SPLINE
  5
119
100
AcDbEntity
  8
Layer_2
 62
7
100
AcDbSpline
 70
8
 71
3
 72
8
 73
4
 74
0
 40
0
 40
0
 40
0
 40
0
 40
1
 40
1
 40
1
 40
1
 10
45.090707
 20
31.780451
 30
0.0
 10
44.334769
 20
34.219324
 30
0.0
 10
44.406754
 20
39.901786
 30
0.0
 10
45.217411
 20
41.783000
 30
0.0
  0
SPLINE
  5
11a
100
AcDbEntity
  8
Layer_2
 62
7
100
AcDbSpline
 70
8
 71
3
 72
8
 73
4
 74
0
 40
0
 40
0
 40
0
 40
0
 40
1
 40
1
 40
1
 40
1
 10
45.217411
 20
41.783000
 30
0.0
 10
46.577250
 20
44.938635
 30
0.0
 10
47.670905
 20
46.884246
 30
0.0
 10
48.746307
 20
48.060909
 30
0.0
  0
SPLINE
  5
11b
100
AcDbEntity
  8
Layer_2
 62
7
100
AcDbSpline
 70
8
 71
3
 72
8
 73
4
 74
0
 40
0
 40
0
 40
0
 40
0
 40
1
 40
1
 40
1
 40
1
 10
48.746307
 20
48.060909
 30
0.0
 10
49.468849
 20
48.851484
 30
0.0
 10
50.229175
 20
50.026107
 30
0.0
 10
50.530765
 20
50.817709
 30
0.0
  0
SPLINE
  5
11c
100
AcDbEntity
  8
Layer_2
 62
7
100
AcDbSpline
 70
8
 71
3
 72
8
 73
4
 74
0
 40
0
 40
0
 40
0
 40
0
 40
1
 40
1
 40
1
 40
1
 10
50.530765
 20
50.817709
 30
0.0
 10
51.021901
 20
52.106809
 30
0.0
 10
51.028100
 20
52.217762
 30
0.0
 10
50.625584
 20
52.514497
 30
0.0
  0
SPLINE
  5
11d
100
AcDbEntity
  8
Layer_2
 62
7
100
AcDbSpline
 70
8
 71
3
 72
8
 73
4
 74
0
 40
0
 40
0
 40
0
 40
0
 40
1
 40
1
 40
1
 40
1
 10
50.625584
 20
52.514497
 30
0.0
 10
50.388708
 20
52.689122
 30
0.0
 10
50.102450
 20
52.831997
 30
0.0
 10
49.989452
 20
52.831997
 30
0.0
  0
SPLINE
  5
11e
100
AcDbEntity
  8
Layer_2
 62
7
100
AcDbSpline
 70
8
 71
3
 72
8
 73
4
 74
0
 40
0
 40
0
 40
0
 40
0
 40
1
 40
1
 40
1
 40
1
 10
49.989452
 20
52.831997
 30
0.0
 10
49.876453
 20
52.831997
 30
0.0
 10
49.784000
 20
53.123065
 30
0.0
 10
49.784000
 20
53.478811
 30
0.0
  0
SPLINE
  5
11f
100
AcDbEntity
  8
Layer_2
 62
7
100
AcDbSpline
 70
8
 71
3
 72
8
 73
4
 74
0
 40
0
 40
0
 40
0
 40
0
 40
1
 40
1
 40
1
 40
1
 10
49.784000
 20
53.478811
 30
0.0
 10
49.784000
 20
53.931500
 30
0.0
 10
50.012211
 20
54.255485
 30
0.0
 10
50.544394
 20
54.558311
 30
0.0
  0
SPLINE
  5
120
100
AcDbEntity
  8
Layer_2
 62
7
100
AcDbSpline
 70
8
 71
3
 72
8
 73
4
 74
0
 40
0
 40
0
 40
0
 40
0
 40
1
 40
1
 40
1
 40
1
 10
50.544394
 20
54.558311
 30
0.0
 10
50.962610
 20
54.796290
 30
0.0
 10
51.305510
 20
55.187546
 30
0.0
 10
51.306394
 20
55.427772
 30
0.0
  0
SPLINE
  5
121
100
AcDbEntity
  8
Layer_2
 62
7
100
AcDbSpline
 70
8
 71
3
 72
8
 73
4
 74
0
 40
0
 40
0
 40
0
 40
0
 40
1
 40
1
 40
1
 40
1
 10
51.306394
 20
55.427772
 30
0.0
 10
51.307981
 20
55.855740
 30
0.0
 10
50.464971
 20
57.553191
 30
0.0
 10
50.017722
 20
58.022641
 30
0.0
  0
SPLINE
  5
122
100
AcDbEntity
  8
Layer_2
 62
7
100
AcDbSpline
 70
8
 71
3
 72
8
 73
4
 74
0
 40
0
 40
0
 40
0
 40
0
 40
1
 40
1
 40
1
 40
1
 10
50.017722
 20
58.022641
 30
0.0
 10
49.442944
 20
58.625941
 30
0.0
 10
42.628799
 20
60.450616
 30
0.0
 10
40.005000
 20
60.703822
 30
0.0
  0
SPLINE
  5
123
100
AcDbEntity
  8
Layer_2
 62
7
100
AcDbSpline
 70
8
 71
3
 72
8
 73
4
 74
0
 40
0
 40
0
 40
0
 40
0
 40
1
 40
1
 40
1
 40
1
 10
40.005000
 20
60.703822
 30
0.0
 10
37.359005
 20
60.959169
 30
0.0
 10
34.673278
 20
61.418832
 30
0.0
 10
33.401000
 20
61.834093
 30
0.0
  0
SPLINE
  5
124
100
AcDbEntity
  8
Layer_2
 62
7
100
AcDbSpline
 70
8
 71
3
 72
8
 73
4
 74
0
 40
0
 40
0
 40
0
 40
0
 40
1
 40
1
 40
1
 40
1
 10
33.401000
 20
61.834093
 30
0.0
 10
32.842200
 20
62.016484
 30
0.0
 10
31.927800
 20
62.306372
 30
0.0
 10
31.369000
 20
62.478290
 30
0.0
  0
SPLINE
  5
125
100
AcDbEntity
  8
Layer_2
 62
7
100
AcDbSpline
 70
8
 71
3
 72
8
 73
4
 74
0
 40
0
 40
0
 40
0
 40
0
 40
1
 40
1
 40
1
 40
1
 10
31.369000
 20
62.478290
 30
0.0
 10
29.929008
 20
62.921314
 30
0.0
 10
28.544372
 20
63.877846
 30
0.0
 10
26.877576
 20
65.581048
 30
0.0
  0
SPLINE
  5
126
100
AcDbEntity
  8
Layer_2
 62
7
100
AcDbSpline
 70
8
 71
3
 72
8
 73
4
 74
0
 40
0
 40
0
 40
0
 40
0
 40
1
 40
1
 40
1
 40
1
 10
26.877576
 20
65.581048
 30
0.0
 10
26.083694
 20
66.392272
 30
0.0
 10
25.374395
 20
67.055997
 30
0.0
 10
25.301357
 20
67.055997
 30
0.0
  0
SPLINE
  5
127
100
AcDbEntity
  8
Layer_2
 62
7
100
AcDbSpline
 70
8
 71
3
 72
8
 73
4
 74
0
 40
0
 40
0
 40
0
 40
0
 40
1
 40
1
 40
1
 40
1
 10
25.301357
 20
67.055997
 30
0.0
 10
25.228318
 20
67.055997
 30
0.0
 10
24.747483
 20
66.770247
 30
0.0
 10
24.232834
 20
66.420997
 30
0.0
  0
SPLINE
  5
128
100
AcDbEntity
  8
Layer_2
 62
7
100
AcDbSpline
 70
8
 71
3
 72
8
 73
4
 74
0
 40
0
 40
0
 40
0
 40
0
 40
1
 40
1
 40
1
 40
1
 10
24.232834
 20
66.420997
 30
0.0
 10
23.073925
 20
65.634542
 30
0.0
 10
20.701952
 20
65.531653
 30
0.0
 10
19.540939
 20
66.217480
 30
0.0
  0
SPLINE
  5
129
100
AcDbEntity
  8
Layer_2
 62
7
100
AcDbSpline
 70
8
 71
3
 72
8
 73
4
 74
0
 40
0
 40
0
 40
0
 40
0
 40
1
 40
1
 40
1
 40
1
 10
19.540939
 20
66.217480
 30
0.0
 10
18.141914
 20
67.043906
 30
0.0
 10
17.798510
 20
70.100690
 30
0.0
 10
18.907362
 20
71.857224
 30
0.0
  0
SPLINE
  5
12a
100
AcDbEntity
  8
Layer_2
 62
7
100
AcDbSpline
 70
8
 71
3
 72
8
 73
4
 74
0
 40
0
 40
0
 40
0
 40
0
 40
1
 40
1
 40
1
 40
1
 10
18.907362
 20
71.857224
 30
0.0
 10
19.863827
 20
73.372366
 30
0.0
 10
22.639028
 20
75.437998
 30
0.0
 10
23.718170
 20
75.437998
 30
0.0
  0
SPLINE
  5
12b
100
AcDbEntity
  8
Layer_2
 62
7
100
AcDbSpline
 70
8
 71
3
 72
8
 73
4
 74
0
 40
0
 40
0
 40
0
 40
0
 40
1
 40
1
 40
1
 40
1
 10
23.718170
 20
75.437998
 30
0.0
 10
23.971909
 20
75.437998
 30
0.0
 10
24.188417
 20
75.911315
 30
0.0
 10
24.386242
 20
76.898498
 30
0.0
  0
SPLINE
  5
12c
100
AcDbEntity
  8
Layer_2
 62
7
100
AcDbSpline
 70
8
 71
3
 72
8
 73
4
 74
0
 40
0
 40
0
 40
0
 40
0
 40
1
 40
1
 40
1
 40
1
 10
24.386242
 20
76.898498
 30
0.0
 10
24.547214
 20
77.701773
 30
0.0
 10
24.898311
 20
78.847831
 30
0.0
 10
25.166458
 20
79.445293
 30
0.0
  0
SPLINE
  5
12d
100
AcDbEntity
  8
Layer_2
 62
7
100
AcDbSpline
 70
8
 71
3
 72
8
 73
4
 74
0
 40
0
 40
0
 40
0
 40
0
 40
1
 40
1
 40
1
 40
1
 10
25.166458
 20
79.445293
 30
0.0
 10
25.434607
 20
80.042755
 30
0.0
 10
25.653999
 20
80.628982
 30
0.0
 10
25.653999
 20
80.748019
 30
0.0
  0
SPLINE
  5
12e
100
AcDbEntity
  8
Layer_2
 62
7
100
AcDbSpline
 70
8
 71
3
 72
8
 73
4
 74
0
 40
0
 40
0
 40
0
 40
0
 40
1
 40
1
 40
1
 40
1
 10
25.653999
 20
80.748019
 30
0.0
 10
25.653999
 20
81.128508
 30
0.0
 10
27.344897
 20
83.787955
 30
0.0
 10
28.228891
 20
84.797815
 30
0.0
  0
SPLINE
  5
12f
100
AcDbEntity
  8
Layer_2
 62
7
100
AcDbSpline
 70
8
 71
3
 72
8
 73
4
 74
0
 40
0
 40
0
 40
0
 40
0
 40
1
 40
1
 40
1
 40
1
 10
28.228891
 20
84.797815
 30
0.0
 10
28.698650
 20
85.334460
 30
0.0
 10
29.375494
 20
86.105513
 30
0.0
 10
29.732983
 20
86.511266
 30
0.0
  0
SPLINE
  5
130
100
AcDbEntity
  8
Layer_2
 62
7
100
AcDbSpline
 70
8
 71
3
 72
8
 73
4
 74
0
 40
0
 40
0
 40
0
 40
0
 40
1
 40
1
 40
1
 40
1
 10
29.732983
 20
86.511266
 30
0.0
 10
31.686675
 20
88.728708
 30
0.0
 10
34.757558
 20
90.583800
 30
0.0
 10
37.167368
 20
91.002304
 30
0.0
  0
SPLINE
  5
131
100
AcDbEntity
  8
Layer_2
 62
7
100
AcDbSpline
 70
8
 71
3
 72
8
 73
4
 74
0
 40
0
 40
0
 40
0
 40
0
 40
1
 40
1
 40
1
 40
1
 10
37.167368
 20
91.002304
 30
0.0
 10
37.889865
 20
91.127778
 30
0.0
 10
40.156223
 20
91.259291
 30
0.0
 10
42.203722
 20
91.294554
 30
0.0
  0
SPLINE
  5
132
100
AcDbEntity
  8
Layer_2
 62
7
100
AcDbSpline
 70
8
 71
3
 72
8
 73
4
 74
0
 40
0
 40
0
 40
0
 40
0
 40
1
 40
1
 40
1
 40
1
 10
42.203722
 20
91.294554
 30
0.0
 10
44.251219
 20
91.329817
 30
0.0
 10
46.251469
 20
91.482621
 30
0.0
 10
46.648722
 20
91.634118
 30
0.0
  0
SPLINE
  5
133
100
AcDbEntity
  8
Layer_2
 62
7
100
AcDbSpline
 70
8
 71
3
 72
8
 73
4
 74
0
 40
0
 40
0
 40
0
 40
0
 40
1
 40
1
 40
1
 40
1
 10
46.648722
 20
91.634118
 30
0.0
 10
47.045973
 20
91.785616
 30
0.0
 10
47.788028
 20
91.978368
 30
0.0
 10
48.297730
 20
92.062458
 30
0.0
  0
SPLINE
  5
134
100
AcDbEntity
  8
Layer_2
 62
7
100
AcDbSpline
 70
8
 71
3
 72
8
 73
4
 74
0
 40
0
 40
0
 40
0
 40
0
 40
1
 40
1
 40
1
 40
1
 10
48.297730
 20
92.062458
 30
0.0
 10
48.807434
 20
92.146548
 30
0.0
 10
49.511262
 20
92.440944
 30
0.0
 10
49.861793
 20
92.716673
 30
0.0
  0
SPLINE
  5
135
100
AcDbEntity
  8
Layer_2
 62
7
100
AcDbSpline
 70
8
 71
3
 72
8
 73
4
 74
0
 40
0
 40
0
 40
0
 40
0
 40
1
 40
1
 40
1
 40
1
 10
49.861793
 20
92.716673
 30
0.0
 10
50.212326
 20
92.992402
 30
0.0
 10
50.606259
 20
93.217998
 30
0.0
 10
50.737196
 20
93.217998
 30
0.0
  0
SPLINE
  5
136
100
AcDbEntity
  8
Layer_2
 62
7
100
AcDbSpline
 70
8
 71
3
 72
8
 73
4
 74
0
 40
0
 40
0
 40
0
 40
0
 40
1
 40
1
 40
1
 40
1
 10
50.737196
 20
93.217998
 30
0.0
 10
50.868133
 20
93.217998
 30
0.0
 10
51.193004
 20
93.461843
 30
0.0
 10
51.459130
 20
93.759876
 30
0.0
  0
SPLINE
  5
137
100
AcDbEntity
  8
Layer_2
 62
7
100
AcDbSpline
 70
8
 71
3
 72
8
 73
4
 74
0
 40
0
 40
0
 40
0
 40
0
 40
1
 40
1
 40
1
 40
1
 10
51.459130
 20
93.759876
 30
0.0
 10
51.725259
 20
94.057909
 30
0.0
 10
52.538908
 20
94.744237
 30
0.0
 10
53.267240
 20
95.285049
 30
0.0
  0
LWPOLYLINE
  5
138
100
AcDbEntity
  8
Layer_2
 62
7
100
AcDbPolyline
 90
3
 70
0
 10
47.879000
 20
25.106934
 30
0.0
 10
50.418997
 20
25.273000
 30
0.0
 10
50.418997
 20
26.253810
 30
0.0
  0
SPLINE
  5
139
100
AcDbEntity
  8
Layer_2
 62
7
100
AcDbSpline
 70
8
 71
3
 72
8
 73
4
 74
0
 40
0
 40
0
 40
0
 40
0
 40
1
 40
1
 40
1
 40
1
 10
54.067649
 20
97.156170
 30
0.0
 10
53.779544
 20
97.644475
 30
0.0
 10
53.440812
 20
98.043997
 30
0.0
 10
53.314910
 20
98.043997
 30
0.0
  0
SPLINE
  5
13a
100
AcDbEntity
  8
Layer_2
 62
7
100
AcDbSpline
 70
8
 71
3
 72
8
 73
4
 74
0
 40
0
 40
0
 40
0
 40
0
 40
1
 40
1
 40
1
 40
1
 10
53.314910
 20
98.043997
 30
0.0
 10
53.189008
 20
98.043997
 30
0.0
 10
53.085997
 20
98.215447
 30
0.0
 10
53.085997
 20
98.424997
 30
0.0
  0
SPLINE
  5
13b
100
AcDbEntity
  8
Layer_2
 62
7
100
AcDbSpline
 70
8
 71
3
 72
8
 73
4
 74
0
 40
0
 40
0
 40
0
 40
0
 40
1
 40
1
 40
1
 40
1
 10
53.085997
 20
98.424997
 30
0.0
 10
53.085997
 20
98.913108
 30
0.0
 10
52.729093
 20
98.913108
 30
0.0
 10
52.323997
 20
98.424997
 30
0.0
  0
SPLINE
  5
13c
100
AcDbEntity
  8
Layer_2
 62
7
100
AcDbSpline
 70
8
 71
3
 72
8
 73
4
 74
0
 40
0
 40
0
 40
0
 40
0
 40
1
 40
1
 40
1
 40
1
 10
52.323997
 20
98.424997
 30
0.0
 10
51.924582
 20
97.943731
 30
0.0
 10
51.307997
 20
97.930028
 30
0.0
 10
51.307997
 20
98.402418
 30
0.0
  0
SPLINE
  5
13d
100
AcDbEntity
  8
Layer_2
 62
7
100
AcDbSpline
 70
8
 71
3
 72
8
 73
4
 74
0
 40
0
 40
0
 40
0
 40
0
 40
1
 40
1
 40
1
 40
1
 10
51.307997
 20
98.402418
 30
0.0
 10
51.307997
 20
98.990099
 30
0.0
 10
52.803909
 20
100.075997
 30
0.0
 10
53.613489
 20
100.075997
 30
0.0
  0
SPLINE
  5
13e
100
AcDbEntity
  8
Layer_2
 62
7
100
AcDbSpline
 70
8
 71
3
 72
8
 73
4
 74
0
 40
0
 40
0
 40
0
 40
0
 40
1
 40
1
 40
1
 40
1
 10
53.613489
 20
100.075997
 30
0.0
 10
54.463495
 20
100.075997
 30
0.0
 10
55.285211
 20
99.367219
 30
0.0
 10
55.520074
 20
98.431458
 30
0.0
  0
SPLINE
  5
13f
100
AcDbEntity
  8
Layer_2
 62
7
100
AcDbSpline
 70
8
 71
3
 72
8
 73
4
 74
0
 40
0
 40
0
 40
0
 40
0
 40
1
 40
1
 40
1
 40
1
 10
55.520074
 20
98.431458
 30
0.0
 10
55.707246
 20
97.685710
 30
0.0
 10
55.939055
 20
97.631340
 30
0.0
 10
56.507565
 20
98.199849
 30
0.0
  0
SPLINE
  5
140
100
AcDbEntity
  8
Layer_2
 62
7
100
AcDbSpline
 70
8
 71
3
 72
8
 73
4
 74
0
 40
0
 40
0
 40
0
 40
0
 40
1
 40
1
 40
1
 40
1
 10
56.507565
 20
98.199849
 30
0.0
 10
56.732982
 20
98.425267
 30
0.0
 10
57.684122
 20
98.865473
 30
0.0
 10
58.621208
 20
99.178084
 30
0.0
  0
SPLINE
  5
141
100
AcDbEntity
  8
Layer_2
 62
7
100
AcDbSpline
 70
8
 71
3
 72
8
 73
4
 74
0
 40
0
 40
0
 40
0
 40
0
 40
1
 40
1
 40
1
 40
1
 10
58.621208
 20
99.178084
 30
0.0
 10
60.012059
 20
99.642070
 30
0.0
 10
60.838183
 20
99.740026
 30
0.0
 10
63.118997
 20
99.711397
 30
0.0
  0
SPLINE
  5
142
100
AcDbEntity
  8
Layer_2
 62
7
100
AcDbSpline
 70
8
 71
3
 72
8
 73
4
 74
0
 40
0
 40
0
 40
0
 40
0
 40
1
 40
1
 40
1
 40
1
 10
63.118997
 20
99.711397
 30
0.0
 10
65.819512
 20
99.677499
 30
0.0
 10
65.976471
 20
99.644071
 30
0.0
 10
67.809954
 20
98.712342
 30
0.0
  0
SPLINE
  5
143
100
AcDbEntity
  8
Layer_2
 62
7
100
AcDbSpline
 70
8
 71
3
 72
8
 73
4
 74
0
 40
0
 40
0
 40
0
 40
0
 40
1
 40
1
 40
1
 40
1
 10
67.809954
 20
98.712342
 30
0.0
 10
68.853280
 20
98.182151
 30
0.0
 10
69.996280
 20
97.455019
 30
0.0
 10
70.349954
 20
97.096493
 30
0.0
  0
SPLINE
  5
144
100
AcDbEntity
  8
Layer_2
 62
7
100
AcDbSpline
 70
8
 71
3
 72
8
 73
4
 74
0
 40
0
 40
0
 40
0
 40
0
 40
1
 40
1
 40
1
 40
1
 10
70.349954
 20
97.096493
 30
0.0
 10
70.703628
 20
96.737968
 30
0.0
 10
71.678797
 20
96.118850
 30
0.0
 10
72.516997
 20
95.720675
 30
0.0
  0
SPLINE
  5
145
100
AcDbEntity
  8
Layer_2
 62
7
100
AcDbSpline
 70
8
 71
3
 72
8
 73
4
 74
0
 40
0
 40
0
 40
0
 40
0
 40
1
 40
1
 40
1
 40
1
 10
72.516997
 20
95.720675
 30
0.0
 10
74.875763
 20
94.600177
 30
0.0
 10
78.273106
 20
91.089339
 30
0.0
 10
78.781960
 20
89.246412
 30
0.0
  0
SPLINE
  5
146
100
AcDbEntity
  8
Layer_2
 62
7
100
AcDbSpline
 70
8
 71
3
 72
8
 73
4
 74
0
 40
0
 40
0
 40
0
 40
0
 40
1
 40
1
 40
1
 40
1
 10
78.781960
 20
89.246412
 30
0.0
 10
78.924528
 20
88.730075
 30
0.0
 10
79.274638
 20
87.991843
 30
0.0
 10
79.559978
 20
87.605896
 30
0.0
  0
SPLINE
  5
147
100
AcDbEntity
  8
Layer_2
 62
7
100
AcDbSpline
 70
8
 71
3
 72
8
 73
4
 74
0
 40
0
 40
0
 40
0
 40
0
 40
1
 40
1
 40
1
 40
1
 10
79.559978
 20
87.605896
 30
0.0
 10
79.915345
 20
87.125238
 30
0.0
 10
80.094436
 20
86.455895
 30
0.0
 10
80.128470
 20
85.481207
 30
0.0
  0
SPLINE
  5
148
100
AcDbEntity
  8
Layer_2
 62
7
100
AcDbSpline
 70
8
 71
3
 72
8
 73
4
 74
0
 40
0
 40
0
 40
0
 40
0
 40
1
 40
1
 40
1
 40
1
 10
80.128470
 20
85.481207
 30
0.0
 10
80.155796
 20
84.698575
 30
0.0
 10
80.311771
 20
83.924626
 30
0.0
 10
80.475077
 20
83.761319
 30
0.0
  0
SPLINE
  5
149
100
AcDbEntity
  8
Layer_2
 62
7
100
AcDbSpline
 70
8
 71
3
 72
8
 73
4
 74
0
 40
0
 40
0
 40
0
 40
0
 40
1
 40
1
 40
1
 40
1
 10
80.475077
 20
83.761319
 30
0.0
 10
80.638383
 20
83.598012
 30
0.0
 10
80.771997
 20
82.969237
 30
0.0
 10
80.771997
 20
82.364040
 30
0.0
  0
SPLINE
  5
14a
100
AcDbEntity
  8
Layer_2
 62
7
100
AcDbSpline
 70
8
 71
3
 72
8
 73
4
 74
0
 40
0
 40
0
 40
0
 40
0
 40
1
 40
1
 40
1
 40
1
 10
80.771997
 20
82.364040
 30
0.0
 10
80.771997
 20
81.758843
 30
0.0
 10
80.945707
 20
80.847943
 30
0.0
 10
81.158011
 20
80.339817
 30
0.0
  0
SPLINE
  5
14b
100
AcDbEntity
  8
Layer_2
 62
7
100
AcDbSpline
 70
8
 71
3
 72
8
 73
4
 74
0
 40
0
 40
0
 40
0
 40
0
 40
1
 40
1
 40
1
 40
1
 10
81.158011
 20
80.339817
 30
0.0
 10
81.672999
 20
79.107280
 30
0.0
 10
81.780406
 20
73.987668
 30
0.0
 10
81.327461
 20
72.262997
 30
0.0
  0
SPLINE
  5
14c
100
AcDbEntity
  8
Layer_2
 62
7
100
AcDbSpline
 70
8
 71
3
 72
8
 73
4
 74
0
 40
0
 40
0
 40
0
 40
0
 40
1
 40
1
 40
1
 40
1
 10
81.327461
 20
72.262997
 30
0.0
 10
80.620695
 20
69.571873
 30
0.0
 10
80.381351
 20
68.904493
 30
0.0
 10
79.496796
 20
67.158457
 30
0.0
  0
SPLINE
  5
14d
100
AcDbEntity
  8
Layer_2
 62
7
100
AcDbSpline
 70
8
 71
3
 72
8
 73
4
 74
0
 40
0
 40
0
 40
0
 40
0
 40
1
 40
1
 40
1
 40
1
 10
79.496796
 20
67.158457
 30
0.0
 10
77.573730
 20
63.362488
 30
0.0
 10
75.978880
 20
61.725662
 30
0.0
 10
72.722290
 20
60.205631
 30
0.0
  0
SPLINE
  5
14e
100
AcDbEntity
  8
Layer_2
 62
7
100
AcDbSpline
 70
8
 71
3
 72
8
 73
4
 74
0
 40
0
 40
0
 40
0
 40
0
 40
1
 40
1
 40
1
 40
1
 10
72.722290
 20
60.205631
 30
0.0
 10
69.671060
 20
58.781453
 30
0.0
 10
66.985716
 20
58.944584
 30
0.0
 10
65.125417
 20
60.667133
 30
0.0
  0
SPLINE
  5
14f
100
AcDbEntity
  8
Layer_2
 62
7
100
AcDbSpline
 70
8
 71
3
 72
8
 73
4
 74
0
 40
0
 40
0
 40
0
 40
0
 40
1
 40
1
 40
1
 40
1
 10
65.125417
 20
60.667133
 30
0.0
 10
64.552550
 20
61.197583
 30
0.0
 10
63.965460
 20
61.843116
 30
0.0
 10
63.820778
 20
62.101648
 30
0.0
  0
SPLINE
  5
150
100
AcDbEntity
  8
Layer_2
 62
7
100
AcDbSpline
 70
8
 71
3
 72
8
 73
4
 74
0
 40
0
 40
0
 40
0
 40
0
 40
1
 40
1
 40
1
 40
1
 10
63.820778
 20
62.101648
 30
0.0
 10
63.574557
 20
62.541618
 30
0.0
 10
63.470512
 20
62.513612
 30
0.0
 10
62.195358
 20
61.664154
 30
0.0
  0
SPLINE
  5
151
100
AcDbEntity
  8
Layer_2
 62
7
100
AcDbSpline
 70
8
 71
3
 72
8
 73
4
 74
0
 40
0
 40
0
 40
0
 40
0
 40
1
 40
1
 40
1
 40
1
 10
62.195358
 20
61.664154
 30
0.0
 10
60.081530
 20
60.256005
 30
0.0
 10
59.286055
 20
59.184495
 30
0.0
 10
58.679495
 20
56.928253
 30
0.0
  0
SPLINE
  5
152
100
AcDbEntity
  8
Layer_2
 62
7
100
AcDbSpline
 70
8
 71
3
 72
8
 73
4
 74
0
 40
0
 40
0
 40
0
 40
0
 40
1
 40
1
 40
1
 40
1
 10
58.679495
 20
56.928253
 30
0.0
 10
58.466191
 20
56.134820
 30
0.0
 10
58.459034
 20
55.739363
 30
0.0
 10
58.654439
 20
55.543953
 30
0.0
  0
SPLINE
  5
153
100
AcDbEntity
  8
Layer_2
 62
7
100
AcDbSpline
 70
8
 71
3
 72
8
 73
4
 74
0
 40
0
 40
0
 40
0
 40
0
 40
1
 40
1
 40
1
 40
1
 10
58.654439
 20
55.543953
 30
0.0
 10
59.061530
 20
55.136862
 30
0.0
 10
58.985298
 20
54.432338
 30
0.0
 10
58.514615
 20
54.251720
 30
0.0
  0
SPLINE
  5
154
100
AcDbEntity
  8
Layer_2
 62
7
100
AcDbSpline
 70
8
 71
3
 72
8
 73
4
 74
0
 40
0
 40
0
 40
0
 40
0
 40
1
 40
1
 40
1
 40
1
 10
58.514615
 20
54.251720
 30
0.0
 10
58.164156
 20
54.117235
 30
0.0
 10
58.127921
 20
53.832794
 30
0.0
 10
58.276561
 20
52.383047
 30
0.0
  0
SPLINE
  5
155
100
AcDbEntity
  8
Layer_2
 62
7
100
AcDbSpline
 70
8
 71
3
 72
8
 73
4
 74
0
 40
0
 40
0
 40
0
 40
0
 40
1
 40
1
 40
1
 40
1
 10
58.276561
 20
52.383047
 30
0.0
 10
58.481793
 20
50.381352
 30
0.0
 10
58.943335
 20
48.477360
 30
0.0
 10
59.344396
 20
47.977938
 30
0.0
  0
SPLINE
  5
156
100
AcDbEntity
  8
Layer_2
 62
7
100
AcDbSpline
 70
8
 71
3
 72
8
 73
4
 74
0
 40
0
 40
0
 40
0
 40
0
 40
1
 40
1
 40
1
 40
1
 10
59.344396
 20
47.977938
 30
0.0
 10
59.576470
 20
47.688944
 30
0.0
 10
59.864723
 20
47.004589
 30
0.0
 10
60.081470
 20
46.228000
 30
0.0
  0
SPLINE
  5
157
100
AcDbEntity
  8
Layer_2
 62
7
100
AcDbSpline
 70
8
 71
3
 72
8
 73
4
 74
0
 40
0
 40
0
 40
0
 40
0
 40
1
 40
1
 40
1
 40
1
 10
60.081470
 20
46.228000
 30
0.0
 10
60.155939
 20
45.961189
 30
0.0
 10
60.978979
 20
44.305641
 30
0.0
 10
61.217937
 20
43.942000
 30
0.0
  0
SPLINE
  5
158
100
AcDbEntity
  8
Layer_2
 62
7
100
AcDbSpline
 70
8
 71
3
 72
8
 73
4
 74
0
 40
0
 40
0
 40
0
 40
0
 40
1
 40
1
 40
1
 40
1
 10
61.217937
 20
43.942000
 30
0.0
 10
61.355637
 20
43.732450
 30
0.0
 10
61.582258
 20
43.275250
 30
0.0
 10
61.721540
 20
42.926000
 30
0.0
  0
SPLINE
  5
159
100
AcDbEntity
  8
Layer_2
 62
7
100
AcDbSpline
 70
8
 71
3
 72
8
 73
4
 74
0
 40
0
 40
0
 40
0
 40
0
 40
1
 40
1
 40
1
 40
1
 10
61.721540
 20
42.926000
 30
0.0
 10
61.860824
 20
42.576750
 30
0.0
 10
62.072486
 20
42.119550
 30
0.0
 10
62.191897
 20
41.910000
 30
0.0
  0
SPLINE
  5
15a
100
AcDbEntity
  8
Layer_2
 62
7
100
AcDbSpline
 70
8
 71
3
 72
8
 73
4
 74
0
 40
0
 40
0
 40
0
 40
0
 40
1
 40
1
 40
1
 40
1
 10
62.191897
 20
41.910000
 30
0.0
 10
63.949027
 20
38.826551
 30
0.0
 10
64.733207
 20
35.099736
 30
0.0
 10
64.182739
 20
32.448500
 30
0.0
  0
SPLINE
  5
15b
100
AcDbEntity
  8
Layer_2
 62
7
100
AcDbSpline
 70
8
 71
3
 72
8
 73
4
 74
0
 40
0
 40
0
 40
0
 40
0
 40
1
 40
1
 40
1
 40
1
 10
64.182739
 20
32.448500
 30
0.0
 10
63.990278
 20
31.521538
 30
0.0
 10
64.004703
 20
31.496000
 30
0.0
 10
64.720713
 20
31.496000
 30
0.0
  0
SPLINE
  5
15c
100
AcDbEntity
  8
Layer_2
 62
7
100
AcDbSpline
 70
8
 71
3
 72
8
 73
4
 74
0
 40
0
 40
0
 40
0
 40
0
 40
1
 40
1
 40
1
 40
1
 10
64.720713
 20
31.496000
 30
0.0
 10
65.622321
 20
31.496000
 30
0.0
 10
70.927965
 20
30.164918
 30
0.0
 10
72.288606
 20
29.597366
 30
0.0
  0
SPLINE
  5
15d
100
AcDbEntity
  8
Layer_2
 62
7
100
AcDbSpline
 70
8
 71
3
 72
8
 73
4
 74
0
 40
0
 40
0
 40
0
 40
0
 40
1
 40
1
 40
1
 40
1
 10
72.288606
 20
29.597366
 30
0.0
 10
72.833320
 20
29.370155
 30
0.0
 10
73.638241
 20
28.836578
 30
0.0
 10
74.077314
 20
28.411644
 30
0.0
  0
SPLINE
  5
15e
100
AcDbEntity
  8
Layer_2
 62
7
100
AcDbSpline
 70
8
 71
3
 72
8
 73
4
 74
0
 40
0
 40
0
 40
0
 40
0
 40
1
 40
1
 40
1
 40
1
 10
74.077314
 20
28.411644
 30
0.0
 10
74.771224
 20
27.740081
 30
0.0
 10
74.948394
 20
27.677973
 30
0.0
 10
75.431944
 20
27.936761
 30
0.0
  0
SPLINE
  5
15f
100
AcDbEntity
  8
Layer_2
 62
7
100
AcDbSpline
 70
8
 71
3
 72
8
 73
4
 74
0
 40
0
 40
0
 40
0
 40
0
 40
1
 40
1
 40
1
 40
1
 10
75.431944
 20
27.936761
 30
0.0
 10
75.887257
 20
28.180437
 30
0.0
 10
76.076646
 20
28.154498
 30
0.0
 10
76.475124
 20
27.793879
 30
0.0
  0
SPLINE
  5
160
100
AcDbEntity
  8
Layer_2
 62
7
100
AcDbSpline
 70
8
 71
3
 72
8
 73
4
 74
0
 40
0
 40
0
 40
0
 40
0
 40
1
 40
1
 40
1
 40
1
 10
76.475124
 20
27.793879
 30
0.0
 10
77.130534
 20
27.200741
 30
0.0
 10
77.089418
 20
27.009757
 30
0.0
 10
76.263495
 20
26.810848
 30
0.0
  0
SPLINE
  5
161
100
AcDbEntity
  8
Layer_2
 62
7
100
AcDbSpline
 70
8
 71
3
 72
8
 73
4
 74
0
 40
0
 40
0
 40
0
 40
0
 40
1
 40
1
 40
1
 40
1
 10
76.263495
 20
26.810848
 30
0.0
 10
75.879320
 20
26.718326
 30
0.0
 10
74.661125
 20
26.297504
 30
0.0
 10
73.556397
 20
25.875689
 30
0.0
  0
SPLINE
  5
162
100
AcDbEntity
  8
Layer_2
 62
7
100
AcDbSpline
 70
8
 71
3
 72
8
 73
4
 74
0
 40
0
 40
0
 40
0
 40
0
 40
1
 40
1
 40
1
 40
1
 10
73.556397
 20
25.875689
 30
0.0
 10
72.038887
 20
25.296262
 30
0.0
 10
71.105914
 20
25.104172
 30
0.0
 10
69.740457
 20
25.090027
 30
0.0
  0
SPLINE
  5
163
100
AcDbEntity
  8
Layer_2
 62
7
100
AcDbSpline
 70
8
 71
3
 72
8
 73
4
 74
0
 40
0
 40
0
 40
0
 40
0
 40
1
 40
1
 40
1
 40
1
 10
69.740457
 20
25.090027
 30
0.0
 10
67.618160
 20
25.068041
 30
0.0
 10
66.363691
 20
25.541325
 30
0.0
 10
63.806962
 20
27.328609
 30
0.0
  0
SPLINE
  5
164
100
AcDbEntity
  8
Layer_2
 62
7
100
AcDbSpline
 70
8
 71
3
 72
8
 73
4
 74
0
 40
0
 40
0
 40
0
 40
0
 40
1
 40
1
 40
1
 40
1
 10
63.806962
 20
27.328609
 30
0.0
 10
61.607430
 20
28.866187
 30
0.0
 10
61.348832
 20
28.728768
 30
0.0
 10
61.319148
 20
26.006589
 30
0.0
  0
SPLINE
  5
165
100
AcDbEntity
  8
Layer_2
 62
7
100
AcDbSpline
 70
8
 71
3
 72
8
 73
4
 74
0
 40
0
 40
0
 40
0
 40
0
 40
1
 40
1
 40
1
 40
1
 10
61.319148
 20
26.006589
 30
0.0
 10
61.294727
 20
23.768764
 30
0.0
 10
61.608563
 20
23.116945
 30
0.0
 10
62.713862
 20
23.109645
 30
0.0
  0
SPLINE
  5
166
100
AcDbEntity
  8
Layer_2
 62
7
100
AcDbSpline
 70
8
 71
3
 72
8
 73
4
 74
0
 40
0
 40
0
 40
0
 40
0
 40
1
 40
1
 40
1
 40
1
 10
62.713862
 20
23.109645
 30
0.0
 10
63.076384
 20
23.107264
 30
0.0
 10
64.222138
 20
22.884784
 30
0.0
 10
65.259979
 20
22.615276
 30
0.0
  0
SPLINE
  5
167
100
AcDbEntity
  8
Layer_2
 62
7
100
AcDbSpline
 70
8
 71
3
 72
8
 73
4
 74
0
 40
0
 40
0
 40
0
 40
0
 40
1
 40
1
 40
1
 40
1
 10
65.259979
 20
22.615276
 30
0.0
 10
66.830345
 20
22.207477
 30
0.0
 10
67.302457
 20
21.955149
 30
0.0
 10
68.073659
 20
21.111464
 30
0.0
  0
SPLINE
  5
168
100
AcDbEntity
  8
Layer_2
 62
7
100
AcDbSpline
 70
8
 71
3
 72
8
 73
4
 74
0
 40
0
 40
0
 40
0
 40
0
 40
1
 40
1
 40
1
 40
1
 10
68.073659
 20
21.111464
 30
0.0
 10
69.126489
 20
19.959688
 30
0.0
 10
69.447436
 20
19.851465
 30
0.0
 10
72.262995
 20
19.698843
 30
0.0
  0
SPLINE
  5
169
100
AcDbEntity
  8
Layer_2
 62
7
100
AcDbSpline
 70
8
 71
3
 72
8
 73
4
 74
0
 40
0
 40
0
 40
0
 40
0
 40
1
 40
1
 40
1
 40
1
 10
72.262995
 20
19.698843
 30
0.0
 10
73.380595
 20
19.638261
 30
0.0
 10
74.923645
 20
19.517715
 30
0.0
 10
75.691995
 20
19.430963
 30
0.0
  0
SPLINE
  5
16a
100
AcDbEntity
  8
Layer_2
 62
7
100
AcDbSpline
 70
8
 71
3
 72
8
 73
4
 74
0
 40
0
 40
0
 40
0
 40
0
 40
1
 40
1
 40
1
 40
1
 10
75.691995
 20
19.430963
 30
0.0
 10
76.460345
 20
19.344214
 30
0.0
 10
78.860645
 20
19.171441
 30
0.0
 10
81.025995
 20
19.047031
 30
0.0
  0
SPLINE
  5
16b
100
AcDbEntity
  8
Layer_2
 62
7
100
AcDbSpline
 70
8
 71
3
 72
8
 73
4
 74
0
 40
0
 40
0
 40
0
 40
0
 40
1
 40
1
 40
1
 40
1
 10
81.025995
 20
19.047031
 30
0.0
 10
85.554508
 20
18.786840
 30
0.0
 10
89.502935
 20
18.228209
 30
0.0
 10
90.055647
 20
17.769499
 30
0.0
  0
SPLINE
  5
16c
100
AcDbEntity
  8
Layer_2
 62
7
100
AcDbSpline
 70
8
 71
3
 72
8
 73
4
 74
0
 40
0
 40
0
 40
0
 40
0
 40
1
 40
1
 40
1
 40
1
 10
90.055647
 20
17.769499
 30
0.0
 10
90.704059
 20
17.231360
 30
0.0
 10
89.813537
 20
16.510000
 30
0.0
 10
88.500789
 20
16.510000
 30
0.0
  0
SPLINE
  5
16d
100
AcDbEntity
  8
Layer_2
 62
7
100
AcDbSpline
 70
8
 71
3
 72
8
 73
4
 74
0
 40
0
 40
0
 40
0
 40
0
 40
1
 40
1
 40
1
 40
1
 10
88.500789
 20
16.510000
 30
0.0
 10
87.905429
 20
16.510000
 30
0.0
 10
87.378797
 20
16.391427
 30
0.0
 10
87.330492
 20
16.246507
 30
0.0
  0
SPLINE
  5
16e
100
AcDbEntity
  8
Layer_2
 62
7
100
AcDbSpline
 70
8
 71
3
 72
8
 73
4
 74
0
 40
0
 40
0
 40
0
 40
0
 40
1
 40
1
 40
1
 40
1
 10
87.330492
 20
16.246507
 30
0.0
 10
87.280163
 20
16.095530
 30
0.0
 10
85.915368
 20
15.916283
 30
0.0
 10
84.134322
 20
15.826732
 30
0.0
  0
SPLINE
  5
16f
100
AcDbEntity
  8
Layer_2
 62
7
100
AcDbSpline
 70
8
 71
3
 72
8
 73
4
 74
0
 40
0
 40
0
 40
0
 40
0
 40
1
 40
1
 40
1
 40
1
 10
84.134322
 20
15.826732
 30
0.0
 10
81.971983
 20
15.718009
 30
0.0
 10
81.025987
 20
15.577637
 30
0.0
 10
81.025987
 20
15.365495
 30
0.0
  0
SPLINE
  5
170
100
AcDbEntity
  8
Layer_2
 62
7
100
AcDbSpline
 70
8
 71
3
 72
8
 73
4
 74
0
 40
0
 40
0
 40
0
 40
0
 40
1
 40
1
 40
1
 40
1
 10
81.025987
 20
15.365495
 30
0.0
 10
81.025987
 20
15.054651
 30
0.0
 10
81.343235
 20
15.014451
 30
0.0
 10
88.010987
 20
14.480360
 30
0.0
  0
SPLINE
  5
171
100
AcDbEntity
  8
Layer_2
 62
7
100
AcDbSpline
 70
8
 71
3
 72
8
 73
4
 74
0
 40
0
 40
0
 40
0
 40
0
 40
1
 40
1
 40
1
 40
1
 10
88.010987
 20
14.480360
 30
0.0
 10
89.827087
 20
14.334890
 30
0.0
 10
91.678022
 20
14.156576
 30
0.0
 10
92.124173
 20
14.084110
 30
0.0
  0
SPLINE
  5
172
100
AcDbEntity
  8
Layer_2
 62
7
100
AcDbSpline
 70
8
 71
3
 72
8
 73
4
 74
0
 40
0
 40
0
 40
0
 40
0
 40
1
 40
1
 40
1
 40
1
 10
92.124173
 20
14.084110
 30
0.0
 10
93.022883
 20
13.938136
 30
0.0
 10
93.333115
 20
13.374148
 30
0.0
 10
93.076694
 20
12.352483
 30
0.0
  0
SPLINE
  5
173
100
AcDbEntity
  8
Layer_2
 62
7
100
AcDbSpline
 70
8
 71
3
 72
8
 73
4
 74
0
 40
0
 40
0
 40
0
 40
0
 40
1
 40
1
 40
1
 40
1
 10
93.076694
 20
12.352483
 30
0.0
 10
92.940711
 20
11.810680
 30
0.0
 10
92.726206
 20
11.682815
 30
0.0
 10
91.732933
 20
11.551465
 30
0.0
  0
SPLINE
  5
174
100
AcDbEntity
  8
Layer_2
 62
7
100
AcDbSpline
 70
8
 71
3
 72
8
 73
4
 74
0
 40
0
 40
0
 40
0
 40
0
 40
1
 40
1
 40
1
 40
1
 10
91.732933
 20
11.551465
 30
0.0
 10
91.082863
 20
11.465502
 30
0.0
 10
90.301323
 20
11.273409
 30
0.0
 10
89.996177
 20
11.124594
 30
0.0
  0
SPLINE
  5
175
100
AcDbEntity
  8
Layer_2
 62
7
100
AcDbSpline
 70
8
 71
3
 72
8
 73
4
 74
0
 40
0
 40
0
 40
0
 40
0
 40
1
 40
1
 40
1
 40
1
 10
89.996177
 20
11.124594
 30
0.0
 10
89.691033
 20
10.975779
 30
0.0
 10
89.205258
 20
10.915766
 30
0.0
 10
88.916677
 20
10.991234
 30
0.0
  0
SPLINE
  5
176
100
AcDbEntity
  8
Layer_2
 62
7
100
AcDbSpline
 70
8
 71
3
 72
8
 73
4
 74
0
 40
0
 40
0
 40
0
 40
0
 40
1
 40
1
 40
1
 40
1
 10
88.916677
 20
10.991234
 30
0.0
 10
88.628098
 20
11.066695
 30
0.0
 10
88.391987
 20
11.024841
 30
0.0
 10
88.391987
 20
10.898219
 30
0.0
  0
SPLINE
  5
177
100
AcDbEntity
  8
Layer_2
 62
7
100
AcDbSpline
 70
8
 71
3
 72
8
 73
4
 74
0
 40
0
 40
0
 40
0
 40
0
 40
1
 40
1
 40
1
 40
1
 10
88.391987
 20
10.898219
 30
0.0
 10
88.391987
 20
10.771598
 30
0.0
 10
87.934787
 20
10.668000
 30
0.0
 10
87.375987
 20
10.668000
 30
0.0
  0
SPLINE
  5
178
100
AcDbEntity
  8
Layer_2
 62
7
100
AcDbSpline
 70
8
 71
3
 72
8
 73
4
 74
0
 40
0
 40
0
 40
0
 40
0
 40
1
 40
1
 40
1
 40
1
 10
87.375987
 20
10.668000
 30
0.0
 10
86.817187
 20
10.668000
 30
0.0
 10
86.359987
 20
10.560158
 30
0.0
 10
86.359987
 20
10.428356
 30
0.0
  0
SPLINE
  5
179
100
AcDbEntity
  8
Layer_2
 62
7
100
AcDbSpline
 70
8
 71
3
 72
8
 73
4
 74
0
 40
0
 40
0
 40
0
 40
0
 40
1
 40
1
 40
1
 40
1
 10
86.359987
 20
10.428356
 30
0.0
 10
86.359987
 20
10.296549
 30
0.0
 10
85.691930
 20
10.198185
 30
0.0
 10
84.875415
 20
10.209760
 30
0.0
  0
SPLINE
  5
17a
100
AcDbEntity
  8
Layer_2
 62
7
100
AcDbSpline
 70
8
 71
3
 72
8
 73
4
 74
0
 40
0
 40
0
 40
0
 40
0
 40
1
 40
1
 40
1
 40
1
 10
84.875415
 20
10.209760
 30
0.0
 10
83.268722
 20
10.232541
 30
0.0
 10
80.221225
 20
9.752449
 30
0.0
 10
79.329814
 20
9.336127
 30
0.0
  0
SPLINE
  5
17b
100
AcDbEntity
  8
Layer_2
 62
7
100
AcDbSpline
 70
8
 71
3
 72
8
 73
4
 74
0
 40
0
 40
0
 40
0
 40
0
 40
1
 40
1
 40
1
 40
1
 10
79.329814
 20
9.336127
 30
0.0
 10
79.025567
 20
9.194033
 30
0.0
 10
78.505164
 20
9.129668
 30
0.0
 10
78.173363
 20
9.193096
 30
0.0
  0
SPLINE
  5
17c
100
AcDbEntity
  8
Layer_2
 62
7
100
AcDbSpline
 70
8
 71
3
 72
8
 73
4
 74
0
 40
0
 40
0
 40
0
 40
0
 40
1
 40
1
 40
1
 40
1
 10
78.173363
 20
9.193096
 30
0.0
 10
77.841565
 20
9.256522
 30
0.0
 10
77.442126
 20
9.171427
 30
0.0
 10
77.285723
 20
9.004001
 30
0.0
  0
SPLINE
  5
17d
100
AcDbEntity
  8
Layer_2
 62
7
100
AcDbSpline
 70
8
 71
3
 72
8
 73
4
 74
0
 40
0
 40
0
 40
0
 40
0
 40
1
 40
1
 40
1
 40
1
 10
77.285723
 20
9.004001
 30
0.0
 10
76.818964
 20
8.504330
 30
0.0
 10
74.624629
 20
8.271661
 30
0.0
 10
74.308446
 20
8.688313
 30
0.0
  0
SPLINE
  5
17e
100
AcDbEntity
  8
Layer_2
 62
7
100
AcDbSpline
 70
8
 71
3
 72
8
 73
4
 74
0
 40
0
 40
0
 40
0
 40
0
 40
1
 40
1
 40
1
 40
1
 10
74.308446
 20
8.688313
 30
0.0
 10
74.085691
 20
8.981850
 30
0.0
 10
73.287422
 20
9.000434
 30
0.0
 10
69.532487
 20
8.799497
 30
0.0
  0
SPLINE
  5
17f
100
AcDbEntity
  8
Layer_2
 62
7
100
AcDbSpline
 70
8
 71
3
 72
8
 73
4
 74
0
 40
0
 40
0
 40
0
 40
0
 40
1
 40
1
 40
1
 40
1
 10
69.532487
 20
8.799497
 30
0.0
 10
67.052812
 20
8.666803
 30
0.0
 10
65.023987
 20
8.461433
 30
0.0
 10
65.023987
 20
8.343117
 30
0.0
  0
SPLINE
  5
180
100
AcDbEntity
  8
Layer_2
 62
7
100
AcDbSpline
 70
8
 71
3
 72
8
 73
4
 74
0
 40
0
 40
0
 40
0
 40
0
 40
1
 40
1
 40
1
 40
1
 10
65.023987
 20
8.343117
 30
0.0
 10
65.023987
 20
8.224800
 30
0.0
 10
64.366762
 20
8.128212
 30
0.0
 10
63.563487
 20
8.128471
 30
0.0
  0
SPLINE
  5
181
100
AcDbEntity
  8
Layer_2
 62
7
100
AcDbSpline
 70
8
 71
3
 72
8
 73
4
 74
0
 40
0
 40
0
 40
0
 40
0
 40
1
 40
1
 40
1
 40
1
 10
63.563487
 20
8.128471
 30
0.0
 10
62.474033
 20
8.128725
 30
0.0
 10
61.070514
 20
7.784216
 30
0.0
 10
58.038987
 20
6.772047
 30
0.0
  0
SPLINE
  5
182
100
AcDbEntity
  8
Layer_2
 62
7
100
AcDbSpline
 70
8
 71
3
 72
8
 73
4
 74
0
 40
0
 40
0
 40
0
 40
0
 40
1
 40
1
 40
1
 40
1
 10
58.038987
 20
6.772047
 30
0.0
 10
50.414261
 20
4.226301
 30
0.0
 10
49.726546
 20
4.086828
 30
0.0
 10
46.862989
 20
4.505534
 30
0.0
  0
LWPOLYLINE
  5
183
100
AcDbEntity
  8
Layer_2
 62
7
100
AcDbPolyline
 90
3
 70
0
 10
53.267240
 20
95.285049
 30
0.0
 10
54.591482
 20
96.268343
 30
0.0
 10
54.067649
 20
97.156170
 30
0.0
  0
LWPOLYLINE
  5
184
100
AcDbEntity
  8
Layer_2
 62
7
100
AcDbPolyline
 90
1
 70
1
 10
46.862989
 20
4.505534
 30
0.0
  0
ENDSEC
  0
SECTION
  2
OBJECTS
  0
DICTIONARY
  5
C
330
0
100
AcDbDictionary
  3
ACAD_GROUP
350
D
  3
ACAD_MLINESTYLE
350
17
  0
DICTIONARY
  5
D
330
C
100
AcDbDictionary
  0
DICTIONARY
  5
1A
330
C
100
AcDbDictionary
  0
DICTIONARY
  5
17
330
C
100
AcDbDictionary
  3
STANDARD
350
18
  0
DICTIONARY
  5
19
330
C
100
AcDbDictionary
  0
ENDSEC
  0
EOF
