  0
SECTION
  2
HEADER
  9
$ACADVER
  1
AC1014
  9
$HANDSEED
  5
FFFF
  9
$MEASUREMENT
 70
     1
  0
ENDSEC
  0
SECTION
  2
TABLES
  0
TABLE
  2
VPORT
  5
8
330
0
100
AcDbSymbolTable
 70
     4
  0
VPORT
  5
2E
330
8
100
AcDbSymbolTableRecord
100
AcDbViewportTableRecord
  2
*ACTIVE
 70
     0
 10
0.0
 20
0.0
 11
1.0
 21
1.0
 12
210.0
 22
148.5
 13
0.0
 23
0.0
 14
10.0
 24
10.0
 15
10.0
 25
10.0
 16
0.0
 26
0.0
 36
1.0
 17
0.0
 27
0.0
 37
0.0
 40
341.0
 41
1.24
 42
50.0
 43
0.0
 44
0.0
 50
0.0
 51
0.0
 71
     0
 72
   100
 73
     1
 74
     3
 75
     0
 76
     0
 77
     0
 78
     0
  0
ENDTAB
  0
TABLE
  2
LTYPE
  5
5
330
0
100
AcDbSymbolTable
 70
     1
  0
LTYPE
  5
14
330
5
100
AcDbSymbolTableRecord
100
AcDbLinetypeTableRecord
  2
BYBLOCK
 70
     0
  3

 72
    65
 73
     0
 40
0.0
  0
LTYPE
  5
15
330
5
100
AcDbSymbolTableRecord
100
AcDbLinetypeTableRecord
  2
BYLAYER
 70
     0
  3

 72
    65
 73
     0
 40
0.0
  0
LTYPE
  5
16
330
5
100
AcDbSymbolTableRecord
100
AcDbLinetypeTableRecord
  2
CONTINUOUS
 70
     0
  3
Solid line
 72
    65
 73
     0
 40
0.0
  0
ENDTAB
  0
TABLE
  2
LAYER
  5
2
100
AcDbSymbolTable
 70
3
  0
LAYER
  5
50
100
AcDbSymbolTableRecord
100
AcDbLayerTableRecord
  2
0
 70
0
  6
CONTINUOUS
  0
LAYER
  5
51
100
AcDbSymbolTableRecord
100
AcDbLayerTableRecord
  2
Layer_1
 70
0
  6
CONTINUOUS
  0
LAYER
  5
52
100
AcDbSymbolTableRecord
100
AcDbLayerTableRecord
  2
Layer_2
 70
0
  6
CONTINUOUS
  0
ENDTAB
  0
TABLE
  2
STYLE
  5
3
330
0
100
AcDbSymbolTable
 70
     1
  0
STYLE
  5
11
330
3
100
AcDbSymbolTableRecord
100
AcDbTextStyleTableRecord
  2
STANDARD
 70
     0
 40
0.0
 41
1.0
 50
0.0
 71
     0
 42
2.5
  3
txt
  4

  0
ENDTAB
  0
TABLE
  2
VIEW
  5
6
330
0
100
AcDbSymbolTable
 70
     0
  0
ENDTAB
  0
TABLE
  2
UCS
  5
7
330
0
100
AcDbSymbolTable
 70
     0
  0
ENDTAB
  0
TABLE
  2
APPID
  5
9
330
0
100
AcDbSymbolTable
 70
     2
  0
APPID
  5
12
330
9
100
AcDbSymbolTableRecord
100
AcDbRegAppTableRecord
  2
ACAD
 70
     0
  0
ENDTAB
  0
TABLE
  2
DIMSTYLE
  5
A
330
0
100
AcDbSymbolTable
 70
     1
  0
DIMSTYLE
105
27
330
A
100
AcDbSymbolTableRecord
100
AcDbDimStyleTableRecord
  2
ISO-25
 70
     0
  3

  4

  5

  6

  7

 40
1.0
 41
2.5
 42
0.625
 43
3.75
 44
1.25
 45
0.0
 46
0.0
 47
0.0
 48
0.0
140
2.5
141
2.5
142
0.0
143
0.03937007874016
144
1.0
145
0.0
146
1.0
147
0.625
 71
     0
 72
     0
 73
     0
 74
     0
 75
     0
 76
     0
 77
     1
 78
     8
170
     0
171
     3
172
     1
173
     0
174
     0
175
     0
176
     0
177
     0
178
     0
270
     2
271
     2
272
     2
273
     2
274
     3
340
11
275
     0
280
     0
281
     0
282
     0
283
     0
284
     8
285
     0
286
     0
287
     3
288
     0
  0
ENDTAB
  0
TABLE
  2
BLOCK_RECORD
  5
1
330
0
100
AcDbSymbolTable
 70
     1
  0
BLOCK_RECORD
  5
1F
330
1
100
AcDbSymbolTableRecord
100
AcDbBlockTableRecord
  2
*MODEL_SPACE
  0
BLOCK_RECORD
  5
1B
330
1
100
AcDbSymbolTableRecord
100
AcDbBlockTableRecord
  2
*PAPER_SPACE
  0
ENDTAB
  0
ENDSEC
  0
SECTION
  2
BLOCKS
  0
BLOCK
  5
20
330
1F
100
AcDbEntity
  8
0
100
AcDbBlockBegin
  2
*MODEL_SPACE
 70
     0
 10
0.0
 20
0.0
 30
0.0
  3
*MODEL_SPACE
  1

  0
ENDBLK
  5
21
330
1F
100
AcDbEntity
  8
0
100
AcDbBlockEnd
  0
BLOCK
  5
1C
330
1B
100
AcDbEntity
 67
     1
  8
0
100
AcDbBlockBegin
  2
*PAPER_SPACE
  1

  0
ENDBLK
  5
1D
330
1B
100
AcDbEntity
 67
     1
  8
0
100
AcDbBlockEnd
  0
ENDSEC
  0
SECTION
  2
ENTITIES
  0
SPLINE
  5
100
100
AcDbEntity
  8
Layer_2
 62
7
100
AcDbSpline
 70
8
 71
3
 72
8
 73
4
 74
0
 40
0
 40
0
 40
0
 40
0
 40
1
 40
1
 40
1
 40
1
 10
31.738729
 20
37.885920
 30
0.0
 10
30.833547
 20
38.186969
 30
0.0
 10
30.343049
 20
38.479349
 30
0.0
 10
29.792430
 20
39.046092
 30
0.0
  0
SPLINE
  5
101
100
AcDbEntity
  8
Layer_2
 62
7
100
AcDbSpline
 70
8
 71
3
 72
8
 73
4
 74
0
 40
0
 40
0
 40
0
 40
0
 40
1
 40
1
 40
1
 40
1
 10
29.792430
 20
39.046092
 30
0.0
 10
29.204489
 20
39.651247
 30
0.0
 10
28.744254
 20
40.554749
 30
0.0
 10
28.565483
 20
41.454739
 30
0.0
  0
SPLINE
  5
102
100
AcDbEntity
  8
Layer_2
 62
7
100
AcDbSpline
 70
8
 71
3
 72
8
 73
4
 74
0
 40
0
 40
0
 40
0
 40
0
 40
1
 40
1
 40
1
 40
1
 10
28.565483
 20
41.454739
 30
0.0
 10
28.415768
 20
42.208450
 30
0.0
 10
28.442502
 20
43.451365
 30
0.0
 10
28.786521
 20
51.731333
 30
0.0
  0
SPLINE
  5
103
100
AcDbEntity
  8
Layer_2
 62
7
100
AcDbSpline
 70
8
 71
3
 72
8
 73
4
 74
0
 40
0
 40
0
 40
0
 40
0
 40
1
 40
1
 40
1
 40
1
 10
28.786521
 20
51.731333
 30
0.0
 10
28.830053
 20
52.779083
 30
0.0
 10
28.908478
 20
54.931733
 30
0.0
 10
28.960800
 20
56.515000
 30
0.0
  0
SPLINE
  5
104
100
AcDbEntity
  8
Layer_2
 62
7
100
AcDbSpline
 70
8
 71
3
 72
8
 73
4
 74
0
 40
0
 40
0
 40
0
 40
0
 40
1
 40
1
 40
1
 40
1
 10
28.960800
 20
56.515000
 30
0.0
 10
29.013121
 20
58.098267
 30
0.0
 10
29.076637
 20
59.450817
 30
0.0
 10
29.101947
 20
59.520667
 30
0.0
  0
SPLINE
  5
105
100
AcDbEntity
  8
Layer_2
 62
7
100
AcDbSpline
 70
8
 71
3
 72
8
 73
4
 74
0
 40
0
 40
0
 40
0
 40
0
 40
1
 40
1
 40
1
 40
1
 10
29.101947
 20
59.520667
 30
0.0
 10
29.127267
 20
59.590517
 30
0.0
 10
29.139991
 20
59.971990
 30
0.0
 10
29.130249
 20
60.368392
 30
0.0
  0
SPLINE
  5
106
100
AcDbEntity
  8
Layer_2
 62
7
100
AcDbSpline
 70
8
 71
3
 72
8
 73
4
 74
0
 40
0
 40
0
 40
0
 40
0
 40
1
 40
1
 40
1
 40
1
 10
29.130249
 20
60.368392
 30
0.0
 10
29.120513
 20
60.764793
 30
0.0
 10
29.153056
 20
62.003043
 30
0.0
 10
29.202557
 20
63.120058
 30
0.0
  0
SPLINE
  5
107
100
AcDbEntity
  8
Layer_2
 62
7
100
AcDbSpline
 70
8
 71
3
 72
8
 73
4
 74
0
 40
0
 40
0
 40
0
 40
0
 40
1
 40
1
 40
1
 40
1
 10
29.202557
 20
63.120058
 30
0.0
 10
29.252069
 20
64.237074
 30
0.0
 10
29.332798
 20
66.370200
 30
0.0
 10
29.381953
 20
67.860333
 30
0.0
  0
SPLINE
  5
108
100
AcDbEntity
  8
Layer_2
 62
7
100
AcDbSpline
 70
8
 71
3
 72
8
 73
4
 74
0
 40
0
 40
0
 40
0
 40
0
 40
1
 40
1
 40
1
 40
1
 10
29.381953
 20
67.860333
 30
0.0
 10
29.431110
 20
69.350467
 30
0.0
 10
29.505651
 20
71.388817
 30
0.0
 10
29.547598
 20
72.390000
 30
0.0
  0
SPLINE
  5
109
100
AcDbEntity
  8
Layer_2
 62
7
100
AcDbSpline
 70
8
 71
3
 72
8
 73
4
 74
0
 40
0
 40
0
 40
0
 40
0
 40
1
 40
1
 40
1
 40
1
 10
29.547598
 20
72.390000
 30
0.0
 10
29.589542
 20
73.391183
 30
0.0
 10
29.667512
 20
75.524783
 30
0.0
 10
29.720863
 20
77.131333
 30
0.0
  0
SPLINE
  5
10a
100
AcDbEntity
  8
Layer_2
 62
7
100
AcDbSpline
 70
8
 71
3
 72
8
 73
4
 74
0
 40
0
 40
0
 40
0
 40
0
 40
1
 40
1
 40
1
 40
1
 10
29.720863
 20
77.131333
 30
0.0
 10
29.774211
 20
78.737883
 30
0.0
 10
29.838462
 20
80.109483
 30
0.0
 10
29.863640
 20
80.179333
 30
0.0
  0
SPLINE
  5
10b
100
AcDbEntity
  8
Layer_2
 62
7
100
AcDbSpline
 70
8
 71
3
 72
8
 73
4
 74
0
 40
0
 40
0
 40
0
 40
0
 40
1
 40
1
 40
1
 40
1
 10
29.863640
 20
80.179333
 30
0.0
 10
29.888828
 20
80.249183
 30
0.0
 10
29.901864
 20
80.649233
 30
0.0
 10
29.892630
 20
81.068333
 30
0.0
  0
SPLINE
  5
10c
100
AcDbEntity
  8
Layer_2
 62
7
100
AcDbSpline
 70
8
 71
3
 72
8
 73
4
 74
0
 40
0
 40
0
 40
0
 40
0
 40
1
 40
1
 40
1
 40
1
 10
29.892630
 20
81.068333
 30
0.0
 10
29.883396
 20
81.487433
 30
0.0
 10
29.915702
 20
82.706633
 30
0.0
 10
29.964404
 20
83.777667
 30
0.0
  0
SPLINE
  5
10d
100
AcDbEntity
  8
Layer_2
 62
7
100
AcDbSpline
 70
8
 71
3
 72
8
 73
4
 74
0
 40
0
 40
0
 40
0
 40
0
 40
1
 40
1
 40
1
 40
1
 10
29.964404
 20
83.777667
 30
0.0
 10
30.013114
 20
84.848700
 30
0.0
 10
30.091877
 20
86.848950
 30
0.0
 10
30.139436
 20
88.222667
 30
0.0
  0
SPLINE
  5
10e
100
AcDbEntity
  8
Layer_2
 62
7
100
AcDbSpline
 70
8
 71
3
 72
8
 73
4
 74
0
 40
0
 40
0
 40
0
 40
0
 40
1
 40
1
 40
1
 40
1
 10
30.139436
 20
88.222667
 30
0.0
 10
30.186992
 20
89.596383
 30
0.0
 10
30.245545
 20
91.196583
 30
0.0
 10
30.269548
 20
91.778667
 30
0.0
  0
SPLINE
  5
10f
100
AcDbEntity
  8
Layer_2
 62
7
100
AcDbSpline
 70
8
 71
3
 72
8
 73
4
 74
0
 40
0
 40
0
 40
0
 40
0
 40
1
 40
1
 40
1
 40
1
 10
30.269548
 20
91.778667
 30
0.0
 10
30.364136
 20
94.072297
 30
0.0
 10
30.355633
 20
94.268258
 30
0.0
 10
30.146834
 20
94.606099
 30
0.0
  0
SPLINE
  5
110
100
AcDbEntity
  8
Layer_2
 62
7
100
AcDbSpline
 70
8
 71
3
 72
8
 73
4
 74
0
 40
0
 40
0
 40
0
 40
0
 40
1
 40
1
 40
1
 40
1
 10
30.146834
 20
94.606099
 30
0.0
 10
30.041289
 20
94.776872
 30
0.0
 10
29.802831
 20
94.994196
 30
0.0
 10
29.616924
 20
95.089038
 30
0.0
  0
SPLINE
  5
111
100
AcDbEntity
  8
Layer_2
 62
7
100
AcDbSpline
 70
8
 71
3
 72
8
 73
4
 74
0
 40
0
 40
0
 40
0
 40
0
 40
1
 40
1
 40
1
 40
1
 10
29.616924
 20
95.089038
 30
0.0
 10
29.284784
 20
95.258483
 30
0.0
 10
29.227920
 20
95.259792
 30
0.0
 10
26.344622
 20
95.164447
 30
0.0
  0
SPLINE
  5
112
100
AcDbEntity
  8
Layer_2
 62
7
100
AcDbSpline
 70
8
 71
3
 72
8
 73
4
 74
0
 40
0
 40
0
 40
0
 40
0
 40
1
 40
1
 40
1
 40
1
 10
26.344622
 20
95.164447
 30
0.0
 10
21.606070
 20
95.007750
 30
0.0
 10
21.251950
 20
95.015603
 30
0.0
 10
20.415083
 20
95.295948
 30
0.0
  0
SPLINE
  5
113
100
AcDbEntity
  8
Layer_2
 62
7
100
AcDbSpline
 70
8
 71
3
 72
8
 73
4
 74
0
 40
0
 40
0
 40
0
 40
0
 40
1
 40
1
 40
1
 40
1
 10
20.415083
 20
95.295948
 30
0.0
 10
18.943485
 20
95.788922
 30
0.0
 10
17.988008
 20
96.854637
 30
0.0
 10
17.565678
 20
98.474104
 30
0.0
  0
SPLINE
  5
114
100
AcDbEntity
  8
Layer_2
 62
7
100
AcDbSpline
 70
8
 71
3
 72
8
 73
4
 74
0
 40
0
 40
0
 40
0
 40
0
 40
1
 40
1
 40
1
 40
1
 10
17.565678
 20
98.474104
 30
0.0
 10
17.413059
 20
99.059336
 30
0.0
 10
17.413372
 20
99.120354
 30
0.0
 10
17.611337
 20
107.357333
 30
0.0
  0
SPLINE
  5
115
100
AcDbEntity
  8
Layer_2
 62
7
100
AcDbSpline
 70
8
 71
3
 72
8
 73
4
 74
0
 40
0
 40
0
 40
0
 40
0
 40
1
 40
1
 40
1
 40
1
 10
17.611337
 20
107.357333
 30
0.0
 10
17.654426
 20
109.150150
 30
0.0
 10
17.712281
 20
111.683800
 30
0.0
 10
17.739906
 20
112.987667
 30
0.0
  0
SPLINE
  5
116
100
AcDbEntity
  8
Layer_2
 62
7
100
AcDbSpline
 70
8
 71
3
 72
8
 73
4
 74
0
 40
0
 40
0
 40
0
 40
0
 40
1
 40
1
 40
1
 40
1
 10
17.739906
 20
112.987667
 30
0.0
 10
17.767531
 20
114.291533
 30
0.0
 10
17.825568
 20
115.634545
 30
0.0
 10
17.868877
 20
115.972138
 30
0.0
  0
SPLINE
  5
117
100
AcDbEntity
  8
Layer_2
 62
7
100
AcDbSpline
 70
8
 71
3
 72
8
 73
4
 74
0
 40
0
 40
0
 40
0
 40
0
 40
1
 40
1
 40
1
 40
1
 10
17.868877
 20
115.972138
 30
0.0
 10
17.956833
 20
116.657747
 30
0.0
 10
18.284852
 20
117.454310
 30
0.0
 10
18.779206
 20
118.182784
 30
0.0
  0
SPLINE
  5
118
100
AcDbEntity
  8
Layer_2
 62
7
100
AcDbSpline
 70
8
 71
3
 72
8
 73
4
 74
0
 40
0
 40
0
 40
0
 40
0
 40
1
 40
1
 40
1
 40
1
 10
18.779206
 20
118.182784
 30
0.0
 10
18.957446
 20
118.445436
 30
0.0
 10
19.126828
 20
118.723447
 30
0.0
 10
19.155611
 20
118.800584
 30
0.0
  0
SPLINE
  5
119
100
AcDbEntity
  8
Layer_2
 62
7
100
AcDbSpline
 70
8
 71
3
 72
8
 73
4
 74
0
 40
0
 40
0
 40
0
 40
0
 40
1
 40
1
 40
1
 40
1
 10
19.155611
 20
118.800584
 30
0.0
 10
19.184394
 20
118.877723
 30
0.0
 10
20.822971
 20
121.297073
 30
0.0
 10
22.796894
 20
124.176917
 30
0.0
  0
SPLINE
  5
11a
100
AcDbEntity
  8
Layer_2
 62
7
100
AcDbSpline
 70
8
 71
3
 72
8
 73
4
 74
0
 40
0
 40
0
 40
0
 40
0
 40
1
 40
1
 40
1
 40
1
 10
22.796894
 20
124.176917
 30
0.0
 10
24.770816
 20
127.056764
 30
0.0
 10
29.446180
 20
133.908800
 30
0.0
 10
33.186592
 20
139.403667
 30
0.0
  0
SPLINE
  5
11b
100
AcDbEntity
  8
Layer_2
 62
7
100
AcDbSpline
 70
8
 71
3
 72
8
 73
4
 74
0
 40
0
 40
0
 40
0
 40
0
 40
1
 40
1
 40
1
 40
1
 10
33.186592
 20
139.403667
 30
0.0
 10
36.927004
 20
144.898533
 30
0.0
 10
40.138419
 20
149.598325
 30
0.0
 10
40.323069
 20
149.847649
 30
0.0
  0
SPLINE
  5
11c
100
AcDbEntity
  8
Layer_2
 62
7
100
AcDbSpline
 70
8
 71
3
 72
8
 73
4
 74
0
 40
0
 40
0
 40
0
 40
0
 40
1
 40
1
 40
1
 40
1
 10
40.323069
 20
149.847649
 30
0.0
 10
40.787727
 20
150.475053
 30
0.0
 10
41.355537
 20
150.731003
 30
0.0
 10
42.291000
 20
150.734732
 30
0.0
  0
SPLINE
  5
11d
100
AcDbEntity
  8
Layer_2
 62
7
100
AcDbSpline
 70
8
 71
3
 72
8
 73
4
 74
0
 40
0
 40
0
 40
0
 40
0
 40
1
 40
1
 40
1
 40
1
 10
42.291000
 20
150.734732
 30
0.0
 10
42.999607
 20
150.737560
 30
0.0
 10
43.703711
 20
150.572019
 30
0.0
 10
44.153667
 20
150.296812
 30
0.0
  0
SPLINE
  5
11e
100
AcDbEntity
  8
Layer_2
 62
7
100
AcDbSpline
 70
8
 71
3
 72
8
 73
4
 74
0
 40
0
 40
0
 40
0
 40
0
 40
1
 40
1
 40
1
 40
1
 10
44.153667
 20
150.296812
 30
0.0
 10
44.293367
 20
150.211367
 30
0.0
 10
46.189016
 20
147.930011
 30
0.0
 10
48.366222
 20
145.227130
 30
0.0
  0
SPLINE
  5
11f
100
AcDbEntity
  8
Layer_2
 62
7
100
AcDbSpline
 70
8
 71
3
 72
8
 73
4
 74
0
 40
0
 40
0
 40
0
 40
0
 40
1
 40
1
 40
1
 40
1
 10
48.366222
 20
145.227130
 30
0.0
 10
50.543428
 20
142.524250
 30
0.0
 10
52.398491
 20
140.260647
 30
0.0
 10
52.488581
 20
140.196901
 30
0.0
  0
SPLINE
  5
120
100
AcDbEntity
  8
Layer_2
 62
7
100
AcDbSpline
 70
8
 71
3
 72
8
 73
4
 74
0
 40
0
 40
0
 40
0
 40
0
 40
1
 40
1
 40
1
 40
1
 10
52.488581
 20
140.196901
 30
0.0
 10
52.578672
 20
140.133155
 30
0.0
 10
53.540940
 20
138.938000
 30
0.0
 10
54.626954
 20
137.541000
 30
0.0
  0
SPLINE
  5
121
100
AcDbEntity
  8
Layer_2
 62
7
100
AcDbSpline
 70
8
 71
3
 72
8
 73
4
 74
0
 40
0
 40
0
 40
0
 40
0
 40
1
 40
1
 40
1
 40
1
 10
54.626954
 20
137.541000
 30
0.0
 10
55.712971
 20
136.144000
 30
0.0
 10
56.781131
 20
134.772400
 30
0.0
 10
57.000645
 20
134.493000
 30
0.0
  0
SPLINE
  5
122
100
AcDbEntity
  8
Layer_2
 62
7
100
AcDbSpline
 70
8
 71
3
 72
8
 73
4
 74
0
 40
0
 40
0
 40
0
 40
0
 40
1
 40
1
 40
1
 40
1
 10
57.000645
 20
134.493000
 30
0.0
 10
57.928383
 20
133.312165
 30
0.0
 10
65.448707
 20
123.599903
 30
0.0
 10
65.900625
 20
122.998960
 30
0.0
  0
SPLINE
  5
123
100
AcDbEntity
  8
Layer_2
 62
7
100
AcDbSpline
 70
8
 71
3
 72
8
 73
4
 74
0
 40
0
 40
0
 40
0
 40
0
 40
1
 40
1
 40
1
 40
1
 10
65.900625
 20
122.998960
 30
0.0
 10
66.452742
 20
122.264773
 30
0.0
 10
66.746480
 20
121.704407
 30
0.0
 10
66.843452
 20
121.200333
 30
0.0
  0
SPLINE
  5
124
100
AcDbEntity
  8
Layer_2
 62
7
100
AcDbSpline
 70
8
 71
3
 72
8
 73
4
 74
0
 40
0
 40
0
 40
0
 40
0
 40
1
 40
1
 40
1
 40
1
 10
66.843452
 20
121.200333
 30
0.0
 10
66.911839
 20
120.844842
 30
0.0
 10
66.912905
 20
114.360489
 30
0.0
 10
66.844775
 20
112.903000
 30
0.0
  0
SPLINE
  5
125
100
AcDbEntity
  8
Layer_2
 62
7
100
AcDbSpline
 70
8
 71
3
 72
8
 73
4
 74
0
 40
0
 40
0
 40
0
 40
0
 40
1
 40
1
 40
1
 40
1
 10
66.844775
 20
112.903000
 30
0.0
 10
66.823026
 20
112.437333
 30
0.0
 10
66.783133
 20
109.827483
 30
0.0
 10
66.756132
 20
107.103333
 30
0.0
  0
SPLINE
  5
126
100
AcDbEntity
  8
Layer_2
 62
7
100
AcDbSpline
 70
8
 71
3
 72
8
 73
4
 74
0
 40
0
 40
0
 40
0
 40
0
 40
1
 40
1
 40
1
 40
1
 10
66.756132
 20
107.103333
 30
0.0
 10
66.701980
 20
101.639296
 30
0.0
 10
66.696550
 20
101.578735
 30
0.0
 10
66.159491
 20
100.446986
 30
0.0
  0
SPLINE
  5
127
100
AcDbEntity
  8
Layer_2
 62
7
100
AcDbSpline
 70
8
 71
3
 72
8
 73
4
 74
0
 40
0
 40
0
 40
0
 40
0
 40
1
 40
1
 40
1
 40
1
 10
66.159491
 20
100.446986
 30
0.0
 10
65.787532
 20
99.663160
 30
0.0
 10
65.033348
 20
98.871183
 30
0.0
 10
64.338729
 20
98.534990
 30
0.0
  0
SPLINE
  5
128
100
AcDbEntity
  8
Layer_2
 62
7
100
AcDbSpline
 70
8
 71
3
 72
8
 73
4
 74
0
 40
0
 40
0
 40
0
 40
0
 40
1
 40
1
 40
1
 40
1
 10
64.338729
 20
98.534990
 30
0.0
 10
63.520413
 20
98.138922
 30
0.0
 10
62.915710
 20
98.065011
 30
0.0
 10
59.647622
 20
97.961598
 30
0.0
  0
SPLINE
  5
129
100
AcDbEntity
  8
Layer_2
 62
7
100
AcDbSpline
 70
8
 71
3
 72
8
 73
4
 74
0
 40
0
 40
0
 40
0
 40
0
 40
1
 40
1
 40
1
 40
1
 10
59.647622
 20
97.961598
 30
0.0
 10
54.802217
 20
97.808275
 30
0.0
 10
54.518825
 20
97.784031
 30
0.0
 10
53.863348
 20
97.466793
 30
0.0
  0
SPLINE
  5
12a
100
AcDbEntity
  8
Layer_2
 62
7
100
AcDbSpline
 70
8
 71
3
 72
8
 73
4
 74
0
 40
0
 40
0
 40
0
 40
0
 40
1
 40
1
 40
1
 40
1
 10
53.863348
 20
97.466793
 30
0.0
 10
53.326284
 20
97.206864
 30
0.0
 10
52.969057
 20
96.822075
 30
0.0
 10
52.673557
 20
96.185196
 30
0.0
  0
SPLINE
  5
12b
100
AcDbEntity
  8
Layer_2
 62
7
100
AcDbSpline
 70
8
 71
3
 72
8
 73
4
 74
0
 40
0
 40
0
 40
0
 40
0
 40
1
 40
1
 40
1
 40
1
 10
52.673557
 20
96.185196
 30
0.0
 10
52.458157
 20
95.720958
 30
0.0
 10
52.455056
 20
95.684652
 30
0.0
 10
52.398597
 20
92.964000
 30
0.0
  0
SPLINE
  5
12c
100
AcDbEntity
  8
Layer_2
 62
7
100
AcDbSpline
 70
8
 71
3
 72
8
 73
4
 74
0
 40
0
 40
0
 40
0
 40
0
 40
1
 40
1
 40
1
 40
1
 10
52.398597
 20
92.964000
 30
0.0
 10
52.367188
 20
91.450583
 30
0.0
 10
52.317920
 20
85.983233
 30
0.0
 10
52.289115
 20
80.814333
 30
0.0
  0
SPLINE
  5
12d
100
AcDbEntity
  8
Layer_2
 62
7
100
AcDbSpline
 70
8
 71
3
 72
8
 73
4
 74
0
 40
0
 40
0
 40
0
 40
0
 40
1
 40
1
 40
1
 40
1
 10
52.289115
 20
80.814333
 30
0.0
 10
52.260307
 20
75.645433
 30
0.0
 10
52.218736
 20
70.235233
 30
0.0
 10
52.196733
 20
68.791667
 30
0.0
  0
SPLINE
  5
12e
100
AcDbEntity
  8
Layer_2
 62
7
100
AcDbSpline
 70
8
 71
3
 72
8
 73
4
 74
0
 40
0
 40
0
 40
0
 40
0
 40
1
 40
1
 40
1
 40
1
 10
52.196733
 20
68.791667
 30
0.0
 10
52.174719
 20
67.348100
 30
0.0
 10
52.137024
 20
63.042800
 30
0.0
 10
52.112947
 20
59.224333
 30
0.0
  0
SPLINE
  5
12f
100
AcDbEntity
  8
Layer_2
 62
7
100
AcDbSpline
 70
8
 71
3
 72
8
 73
4
 74
0
 40
0
 40
0
 40
0
 40
0
 40
1
 40
1
 40
1
 40
1
 10
52.112947
 20
59.224333
 30
0.0
 10
52.041195
 20
47.845692
 30
0.0
 10
51.981177
 20
43.510166
 30
0.0
 10
51.886739
 20
42.883667
 30
0.0
  0
SPLINE
  5
130
100
AcDbEntity
  8
Layer_2
 62
7
100
AcDbSpline
 70
8
 71
3
 72
8
 73
4
 74
0
 40
0
 40
0
 40
0
 40
0
 40
1
 40
1
 40
1
 40
1
 10
51.886739
 20
42.883667
 30
0.0
 10
51.613977
 20
41.074197
 30
0.0
 10
50.504770
 20
39.486909
 30
0.0
 10
49.000452
 20
38.753373
 30
0.0
  0
SPLINE
  5
131
100
AcDbEntity
  8
Layer_2
 62
7
100
AcDbSpline
 70
8
 71
3
 72
8
 73
4
 74
0
 40
0
 40
0
 40
0
 40
0
 40
1
 40
1
 40
1
 40
1
 10
49.000452
 20
38.753373
 30
0.0
 10
47.787915
 20
38.162111
 30
0.0
 10
48.179384
 20
38.203412
 30
0.0
 10
40.766955
 20
37.884812
 30
0.0
  0
SPLINE
  5
132
100
AcDbEntity
  8
Layer_2
 62
7
100
AcDbSpline
 70
8
 71
3
 72
8
 73
4
 74
0
 40
0
 40
0
 40
0
 40
0
 40
1
 40
1
 40
1
 40
1
 10
40.766955
 20
37.884812
 30
0.0
 10
39.090555
 20
37.812760
 30
0.0
 10
36.518805
 20
37.735171
 30
0.0
 10
35.051955
 20
37.712396
 30
0.0
  0
LINE
  5
133
100
AcDbEntity
  8
Layer_2
 62
7
100
AcDbLine
 10
35.051955
 20
37.712396
 30
0.0
 11
32.384955
 21
37.670986
 31
0.0
  0
LINE
  5
134
100
AcDbEntity
  8
Layer_2
 62
7
100
AcDbLine
 10
32.384955
 20
37.670986
 30
0.0
 11
31.738686
 21
37.885920
 31
0.0
  0
LINE
  5
135
100
AcDbEntity
  8
Layer_2
 62
7
100
AcDbLine
 10
31.738686
 20
37.885920
 30
0.0
 11
31.738729
 21
37.885920
 31
0.0
  0
ENDSEC
  0
SECTION
  2
OBJECTS
  0
DICTIONARY
  5
C
330
0
100
AcDbDictionary
  3
ACAD_GROUP
350
D
  3
ACAD_MLINESTYLE
350
17
  0
DICTIONARY
  5
D
330
C
100
AcDbDictionary
  0
DICTIONARY
  5
1A
330
C
100
AcDbDictionary
  0
DICTIONARY
  5
17
330
C
100
AcDbDictionary
  3
STANDARD
350
18
  0
DICTIONARY
  5
19
330
C
100
AcDbDictionary
  0
ENDSEC
  0
EOF
