  0
SECTION
  2
HEADER
  9
$ACADVER
  1
AC1014
  9
$HANDSEED
  5
FFFF
  9
$MEASUREMENT
 70
     1
  0
ENDSEC
  0
SECTION
  2
TABLES
  0
TABLE
  2
VPORT
  5
8
330
0
100
AcDbSymbolTable
 70
     4
  0
VPORT
  5
2E
330
8
100
AcDbSymbolTableRecord
100
AcDbViewportTableRecord
  2
*ACTIVE
 70
     0
 10
0.0
 20
0.0
 11
1.0
 21
1.0
 12
210.0
 22
148.5
 13
0.0
 23
0.0
 14
10.0
 24
10.0
 15
10.0
 25
10.0
 16
0.0
 26
0.0
 36
1.0
 17
0.0
 27
0.0
 37
0.0
 40
341.0
 41
1.24
 42
50.0
 43
0.0
 44
0.0
 50
0.0
 51
0.0
 71
     0
 72
   100
 73
     1
 74
     3
 75
     0
 76
     0
 77
     0
 78
     0
  0
ENDTAB
  0
TABLE
  2
LTYPE
  5
5
330
0
100
AcDbSymbolTable
 70
     1
  0
LTYPE
  5
14
330
5
100
AcDbSymbolTableRecord
100
AcDbLinetypeTableRecord
  2
BYBLOCK
 70
     0
  3

 72
    65
 73
     0
 40
0.0
  0
LTYPE
  5
15
330
5
100
AcDbSymbolTableRecord
100
AcDbLinetypeTableRecord
  2
BYLAYER
 70
     0
  3

 72
    65
 73
     0
 40
0.0
  0
LTYPE
  5
16
330
5
100
AcDbSymbolTableRecord
100
AcDbLinetypeTableRecord
  2
CONTINUOUS
 70
     0
  3
Solid line
 72
    65
 73
     0
 40
0.0
  0
ENDTAB
  0
TABLE
  2
LAYER
  5
2
100
AcDbSymbolTable
 70
3
  0
LAYER
  5
50
100
AcDbSymbolTableRecord
100
AcDbLayerTableRecord
  2
0
 70
0
  6
CONTINUOUS
  0
LAYER
  5
51
100
AcDbSymbolTableRecord
100
AcDbLayerTableRecord
  2
Layer_1
 70
0
  6
CONTINUOUS
  0
LAYER
  5
52
100
AcDbSymbolTableRecord
100
AcDbLayerTableRecord
  2
Layer_2
 70
0
  6
CONTINUOUS
  0
ENDTAB
  0
TABLE
  2
STYLE
  5
3
330
0
100
AcDbSymbolTable
 70
     1
  0
STYLE
  5
11
330
3
100
AcDbSymbolTableRecord
100
AcDbTextStyleTableRecord
  2
STANDARD
 70
     0
 40
0.0
 41
1.0
 50
0.0
 71
     0
 42
2.5
  3
txt
  4

  0
ENDTAB
  0
TABLE
  2
VIEW
  5
6
330
0
100
AcDbSymbolTable
 70
     0
  0
ENDTAB
  0
TABLE
  2
UCS
  5
7
330
0
100
AcDbSymbolTable
 70
     0
  0
ENDTAB
  0
TABLE
  2
APPID
  5
9
330
0
100
AcDbSymbolTable
 70
     2
  0
APPID
  5
12
330
9
100
AcDbSymbolTableRecord
100
AcDbRegAppTableRecord
  2
ACAD
 70
     0
  0
ENDTAB
  0
TABLE
  2
DIMSTYLE
  5
A
330
0
100
AcDbSymbolTable
 70
     1
  0
DIMSTYLE
105
27
330
A
100
AcDbSymbolTableRecord
100
AcDbDimStyleTableRecord
  2
ISO-25
 70
     0
  3

  4

  5

  6

  7

 40
1.0
 41
2.5
 42
0.625
 43
3.75
 44
1.25
 45
0.0
 46
0.0
 47
0.0
 48
0.0
140
2.5
141
2.5
142
0.0
143
0.03937007874016
144
1.0
145
0.0
146
1.0
147
0.625
 71
     0
 72
     0
 73
     0
 74
     0
 75
     0
 76
     0
 77
     1
 78
     8
170
     0
171
     3
172
     1
173
     0
174
     0
175
     0
176
     0
177
     0
178
     0
270
     2
271
     2
272
     2
273
     2
274
     3
340
11
275
     0
280
     0
281
     0
282
     0
283
     0
284
     8
285
     0
286
     0
287
     3
288
     0
  0
ENDTAB
  0
TABLE
  2
BLOCK_RECORD
  5
1
330
0
100
AcDbSymbolTable
 70
     1
  0
BLOCK_RECORD
  5
1F
330
1
100
AcDbSymbolTableRecord
100
AcDbBlockTableRecord
  2
*MODEL_SPACE
  0
BLOCK_RECORD
  5
1B
330
1
100
AcDbSymbolTableRecord
100
AcDbBlockTableRecord
  2
*PAPER_SPACE
  0
ENDTAB
  0
ENDSEC
  0
SECTION
  2
BLOCKS
  0
BLOCK
  5
20
330
1F
100
AcDbEntity
  8
0
100
AcDbBlockBegin
  2
*MODEL_SPACE
 70
     0
 10
0.0
 20
0.0
 30
0.0
  3
*MODEL_SPACE
  1

  0
ENDBLK
  5
21
330
1F
100
AcDbEntity
  8
0
100
AcDbBlockEnd
  0
BLOCK
  5
1C
330
1B
100
AcDbEntity
 67
     1
  8
0
100
AcDbBlockBegin
  2
*PAPER_SPACE
  1

  0
ENDBLK
  5
1D
330
1B
100
AcDbEntity
 67
     1
  8
0
100
AcDbBlockEnd
  0
ENDSEC
  0
SECTION
  2
ENTITIES
  0
SPLINE
  5
100
100
AcDbEntity
  8
Layer_2
 62
7
100
AcDbSpline
 70
8
 71
3
 72
8
 73
4
 74
0
 40
0
 40
0
 40
0
 40
0
 40
1
 40
1
 40
1
 40
1
 10
32.670062
 20
0.801857
 30
0.0
 10
31.764788
 20
1.103024
 30
0.0
 10
31.274340
 20
1.395391
 30
0.0
 10
30.723763
 20
1.962092
 30
0.0
  0
SPLINE
  5
101
100
AcDbEntity
  8
Layer_2
 62
7
100
AcDbSpline
 70
8
 71
3
 72
8
 73
4
 74
0
 40
0
 40
0
 40
0
 40
0
 40
1
 40
1
 40
1
 40
1
 10
30.723763
 20
1.962092
 30
0.0
 10
30.135822
 20
2.567247
 30
0.0
 10
29.675587
 20
3.470746
 30
0.0
 10
29.496816
 20
4.370737
 30
0.0
  0
SPLINE
  5
102
100
AcDbEntity
  8
Layer_2
 62
7
100
AcDbSpline
 70
8
 71
3
 72
8
 73
4
 74
0
 40
0
 40
0
 40
0
 40
0
 40
1
 40
1
 40
1
 40
1
 10
29.496816
 20
4.370737
 30
0.0
 10
29.347102
 20
5.124453
 30
0.0
 10
29.373835
 20
6.367367
 30
0.0
 10
29.717854
 20
14.647333
 30
0.0
  0
SPLINE
  5
103
100
AcDbEntity
  8
Layer_2
 62
7
100
AcDbSpline
 70
8
 71
3
 72
8
 73
4
 74
0
 40
0
 40
0
 40
0
 40
0
 40
1
 40
1
 40
1
 40
1
 10
29.717854
 20
14.647333
 30
0.0
 10
29.761386
 20
15.695083
 30
0.0
 10
29.839812
 20
17.847733
 30
0.0
 10
29.892133
 20
19.431000
 30
0.0
  0
SPLINE
  5
104
100
AcDbEntity
  8
Layer_2
 62
7
100
AcDbSpline
 70
8
 71
3
 72
8
 73
4
 74
0
 40
0
 40
0
 40
0
 40
0
 40
1
 40
1
 40
1
 40
1
 10
29.892133
 20
19.431000
 30
0.0
 10
29.944454
 20
21.014267
 30
0.0
 10
30.007848
 20
22.366817
 30
0.0
 10
30.033008
 20
22.436667
 30
0.0
  0
SPLINE
  5
105
100
AcDbEntity
  8
Layer_2
 62
7
100
AcDbSpline
 70
8
 71
3
 72
8
 73
4
 74
0
 40
0
 40
0
 40
0
 40
0
 40
1
 40
1
 40
1
 40
1
 10
30.033008
 20
22.436667
 30
0.0
 10
30.058169
 20
22.506517
 30
0.0
 10
30.071198
 20
22.906567
 30
0.0
 10
30.061964
 20
23.325667
 30
0.0
  0
SPLINE
  5
106
100
AcDbEntity
  8
Layer_2
 62
7
100
AcDbSpline
 70
8
 71
3
 72
8
 73
4
 74
0
 40
0
 40
0
 40
0
 40
0
 40
1
 40
1
 40
1
 40
1
 10
30.061964
 20
23.325667
 30
0.0
 10
30.052730
 20
23.744767
 30
0.0
 10
30.085035
 20
24.963967
 30
0.0
 10
30.133737
 20
26.035000
 30
0.0
  0
SPLINE
  5
107
100
AcDbEntity
  8
Layer_2
 62
7
100
AcDbSpline
 70
8
 71
3
 72
8
 73
4
 74
0
 40
0
 40
0
 40
0
 40
0
 40
1
 40
1
 40
1
 40
1
 10
30.133737
 20
26.035000
 30
0.0
 10
30.182447
 20
27.106033
 30
0.0
 10
30.261211
 20
29.106283
 30
0.0
 10
30.308770
 20
30.480000
 30
0.0
  0
SPLINE
  5
108
100
AcDbEntity
  8
Layer_2
 62
7
100
AcDbSpline
 70
8
 71
3
 72
8
 73
4
 74
0
 40
0
 40
0
 40
0
 40
0
 40
1
 40
1
 40
1
 40
1
 10
30.308770
 20
30.480000
 30
0.0
 10
30.356326
 20
31.853717
 30
0.0
 10
30.414878
 20
33.453917
 30
0.0
 10
30.438881
 20
34.036000
 30
0.0
  0
SPLINE
  5
109
100
AcDbEntity
  8
Layer_2
 62
7
100
AcDbSpline
 70
8
 71
3
 72
8
 73
4
 74
0
 40
0
 40
0
 40
0
 40
0
 40
1
 40
1
 40
1
 40
1
 10
30.438881
 20
34.036000
 30
0.0
 10
30.533470
 20
36.329631
 30
0.0
 10
30.524966
 20
36.525592
 30
0.0
 10
30.316167
 20
36.863433
 30
0.0
  0
SPLINE
  5
10a
100
AcDbEntity
  8
Layer_2
 62
7
100
AcDbSpline
 70
8
 71
3
 72
8
 73
4
 74
0
 40
0
 40
0
 40
0
 40
0
 40
1
 40
1
 40
1
 40
1
 10
30.316167
 20
36.863433
 30
0.0
 10
30.210622
 20
37.034205
 30
0.0
 10
29.972164
 20
37.251529
 30
0.0
 10
29.786257
 20
37.346371
 30
0.0
  0
SPLINE
  5
10b
100
AcDbEntity
  8
Layer_2
 62
7
100
AcDbSpline
 70
8
 71
3
 72
8
 73
4
 74
0
 40
0
 40
0
 40
0
 40
0
 40
1
 40
1
 40
1
 40
1
 10
29.786257
 20
37.346371
 30
0.0
 10
29.454118
 20
37.515816
 30
0.0
 10
29.397254
 20
37.517126
 30
0.0
 10
26.513954
 20
37.421780
 30
0.0
  0
SPLINE
  5
10c
100
AcDbEntity
  8
Layer_2
 62
7
100
AcDbSpline
 70
8
 71
3
 72
8
 73
4
 74
0
 40
0
 40
0
 40
0
 40
0
 40
1
 40
1
 40
1
 40
1
 10
26.513954
 20
37.421780
 30
0.0
 10
21.775403
 20
37.265083
 30
0.0
 10
21.421283
 20
37.272936
 30
0.0
 10
20.584417
 20
37.553281
 30
0.0
  0
SPLINE
  5
10d
100
AcDbEntity
  8
Layer_2
 62
7
100
AcDbSpline
 70
8
 71
3
 72
8
 73
4
 74
0
 40
0
 40
0
 40
0
 40
0
 40
1
 40
1
 40
1
 40
1
 10
20.584417
 20
37.553281
 30
0.0
 10
19.112818
 20
38.046255
 30
0.0
 10
18.157342
 20
39.111970
 30
0.0
 10
17.735012
 20
40.731437
 30
0.0
  0
SPLINE
  5
10e
100
AcDbEntity
  8
Layer_2
 62
7
100
AcDbSpline
 70
8
 71
3
 72
8
 73
4
 74
0
 40
0
 40
0
 40
0
 40
0
 40
1
 40
1
 40
1
 40
1
 10
17.735012
 20
40.731437
 30
0.0
 10
17.582392
 20
41.316669
 30
0.0
 10
17.582705
 20
41.377687
 30
0.0
 10
17.780670
 20
49.614667
 30
0.0
  0
SPLINE
  5
10f
100
AcDbEntity
  8
Layer_2
 62
7
100
AcDbSpline
 70
8
 71
3
 72
8
 73
4
 74
0
 40
0
 40
0
 40
0
 40
0
 40
1
 40
1
 40
1
 40
1
 10
17.780670
 20
49.614667
 30
0.0
 10
17.823759
 20
51.407483
 30
0.0
 10
17.881614
 20
53.941133
 30
0.0
 10
17.909239
 20
55.245000
 30
0.0
  0
SPLINE
  5
110
100
AcDbEntity
  8
Layer_2
 62
7
100
AcDbSpline
 70
8
 71
3
 72
8
 73
4
 74
0
 40
0
 40
0
 40
0
 40
0
 40
1
 40
1
 40
1
 40
1
 10
17.909239
 20
55.245000
 30
0.0
 10
17.968908
 20
58.061283
 30
0.0
 10
18.034988
 20
58.662503
 30
0.0
 10
18.364810
 20
59.389910
 30
0.0
  0
SPLINE
  5
111
100
AcDbEntity
  8
Layer_2
 62
7
100
AcDbSpline
 70
8
 71
3
 72
8
 73
4
 74
0
 40
0
 40
0
 40
0
 40
0
 40
1
 40
1
 40
1
 40
1
 10
18.364810
 20
59.389910
 30
0.0
 10
19.036678
 20
60.871683
 30
0.0
 10
20.048257
 20
61.852881
 30
0.0
 10
21.547667
 20
62.477177
 30
0.0
  0
SPLINE
  5
112
100
AcDbEntity
  8
Layer_2
 62
7
100
AcDbSpline
 70
8
 71
3
 72
8
 73
4
 74
0
 40
0
 40
0
 40
0
 40
0
 40
1
 40
1
 40
1
 40
1
 10
21.547667
 20
62.477177
 30
0.0
 10
22.394724
 20
62.829859
 30
0.0
 10
23.932286
 20
63.013135
 30
0.0
 10
27.305000
 20
63.163447
 30
0.0
  0
SPLINE
  5
113
100
AcDbEntity
  8
Layer_2
 62
7
100
AcDbSpline
 70
8
 71
3
 72
8
 73
4
 74
0
 40
0
 40
0
 40
0
 40
0
 40
1
 40
1
 40
1
 40
1
 10
27.305000
 20
63.163447
 30
0.0
 10
29.660768
 20
63.268437
 30
0.0
 10
30.014900
 20
63.349377
 30
0.0
 10
30.576763
 20
63.911238
 30
0.0
  0
SPLINE
  5
114
100
AcDbEntity
  8
Layer_2
 62
7
100
AcDbSpline
 70
8
 71
3
 72
8
 73
4
 74
0
 40
0
 40
0
 40
0
 40
0
 40
1
 40
1
 40
1
 40
1
 10
30.576763
 20
63.911238
 30
0.0
 10
31.195224
 20
64.529702
 30
0.0
 10
31.218870
 20
64.684088
 30
0.0
 10
31.283174
 20
68.523789
 30
0.0
  0
SPLINE
  5
115
100
AcDbEntity
  8
Layer_2
 62
7
100
AcDbSpline
 70
8
 71
3
 72
8
 73
4
 74
0
 40
0
 40
0
 40
0
 40
0
 40
1
 40
1
 40
1
 40
1
 10
31.283174
 20
68.523789
 30
0.0
 10
31.405557
 20
75.831498
 30
0.0
 10
31.474616
 20
77.626744
 30
0.0
 10
31.661515
 20
78.359000
 30
0.0
  0
SPLINE
  5
116
100
AcDbEntity
  8
Layer_2
 62
7
100
AcDbSpline
 70
8
 71
3
 72
8
 73
4
 74
0
 40
0
 40
0
 40
0
 40
0
 40
1
 40
1
 40
1
 40
1
 10
31.661515
 20
78.359000
 30
0.0
 10
31.936312
 20
79.435627
 30
0.0
 10
32.416835
 20
80.320813
 30
0.0
 10
33.092790
 20
80.995601
 30
0.0
  0
SPLINE
  5
117
100
AcDbEntity
  8
Layer_2
 62
7
100
AcDbSpline
 70
8
 71
3
 72
8
 73
4
 74
0
 40
0
 40
0
 40
0
 40
0
 40
1
 40
1
 40
1
 40
1
 10
33.092790
 20
80.995601
 30
0.0
 10
34.108485
 20
82.009540
 30
0.0
 10
35.110105
 20
82.473971
 30
0.0
 10
36.628599
 20
82.635083
 30
0.0
  0
SPLINE
  5
118
100
AcDbEntity
  8
Layer_2
 62
7
100
AcDbSpline
 70
8
 71
3
 72
8
 73
4
 74
0
 40
0
 40
0
 40
0
 40
0
 40
1
 40
1
 40
1
 40
1
 10
36.628599
 20
82.635083
 30
0.0
 10
38.136446
 20
82.795065
 30
0.0
 10
39.077265
 20
82.898879
 30
0.0
 10
40.089667
 20
83.016990
 30
0.0
  0
SPLINE
  5
119
100
AcDbEntity
  8
Layer_2
 62
7
100
AcDbSpline
 70
8
 71
3
 72
8
 73
4
 74
0
 40
0
 40
0
 40
0
 40
0
 40
1
 40
1
 40
1
 40
1
 10
40.089667
 20
83.016990
 30
0.0
 10
40.648467
 20
83.082181
 30
0.0
 10
41.334267
 20
83.156189
 30
0.0
 10
41.613667
 20
83.181450
 30
0.0
  0
SPLINE
  5
11a
100
AcDbEntity
  8
Layer_2
 62
7
100
AcDbSpline
 70
8
 71
3
 72
8
 73
4
 74
0
 40
0
 40
0
 40
0
 40
0
 40
1
 40
1
 40
1
 40
1
 10
41.613667
 20
83.181450
 30
0.0
 10
42.244039
 20
83.238443
 30
0.0
 10
43.817895
 20
83.404491
 30
0.0
 10
46.763837
 20
83.724810
 30
0.0
  0
SPLINE
  5
11b
100
AcDbEntity
  8
Layer_2
 62
7
100
AcDbSpline
 70
8
 71
3
 72
8
 73
4
 74
0
 40
0
 40
0
 40
0
 40
0
 40
1
 40
1
 40
1
 40
1
 10
46.763837
 20
83.724810
 30
0.0
 10
49.107315
 20
83.979622
 30
0.0
 10
49.714039
 20
83.986067
 30
0.0
 10
50.583256
 20
83.765380
 30
0.0
  0
SPLINE
  5
11c
100
AcDbEntity
  8
Layer_2
 62
7
100
AcDbSpline
 70
8
 71
3
 72
8
 73
4
 74
0
 40
0
 40
0
 40
0
 40
0
 40
1
 40
1
 40
1
 40
1
 10
50.583256
 20
83.765380
 30
0.0
 10
51.290503
 20
83.585816
 30
0.0
 10
51.693408
 20
83.360165
 30
0.0
 10
52.243302
 20
82.835654
 30
0.0
  0
SPLINE
  5
11d
100
AcDbEntity
  8
Layer_2
 62
7
100
AcDbSpline
 70
8
 71
3
 72
8
 73
4
 74
0
 40
0
 40
0
 40
0
 40
0
 40
1
 40
1
 40
1
 40
1
 10
52.243302
 20
82.835654
 30
0.0
 10
52.752972
 20
82.349514
 30
0.0
 10
53.136850
 20
81.671293
 30
0.0
 10
53.384479
 20
80.819480
 30
0.0
  0
SPLINE
  5
11e
100
AcDbEntity
  8
Layer_2
 62
7
100
AcDbSpline
 70
8
 71
3
 72
8
 73
4
 74
0
 40
0
 40
0
 40
0
 40
0
 40
1
 40
1
 40
1
 40
1
 10
53.384479
 20
80.819480
 30
0.0
 10
53.516726
 20
80.364572
 30
0.0
 10
53.520414
 20
79.988717
 30
0.0
 10
53.431800
 20
75.998222
 30
0.0
  0
SPLINE
  5
11f
100
AcDbEntity
  8
Layer_2
 62
7
100
AcDbSpline
 70
8
 71
3
 72
8
 73
4
 74
0
 40
0
 40
0
 40
0
 40
0
 40
1
 40
1
 40
1
 40
1
 10
53.431800
 20
75.998222
 30
0.0
 10
53.378944
 20
73.617883
 30
0.0
 10
53.327139
 20
70.696608
 30
0.0
 10
53.316682
 20
69.506500
 30
0.0
  0
LINE
  5
120
100
AcDbEntity
  8
Layer_2
 62
7
100
AcDbLine
 10
53.316682
 20
69.506500
 30
0.0
 11
53.297659
 21
67.342666
 31
0.0
  0
LINE
  5
121
100
AcDbEntity
  8
Layer_2
 62
7
100
AcDbLine
 10
53.297659
 20
67.342666
 30
0.0
 11
53.552955
 21
66.842320
 31
0.0
  0
SPLINE
  5
122
100
AcDbEntity
  8
Layer_2
 62
7
100
AcDbSpline
 70
8
 71
3
 72
8
 73
4
 74
0
 40
0
 40
0
 40
0
 40
0
 40
1
 40
1
 40
1
 40
1
 10
53.552955
 20
66.842320
 30
0.0
 10
53.748908
 20
66.458278
 30
0.0
 10
53.904912
 20
66.282276
 30
0.0
 10
54.224079
 20
66.085154
 30
0.0
  0
SPLINE
  5
123
100
AcDbEntity
  8
Layer_2
 62
7
100
AcDbSpline
 70
8
 71
3
 72
8
 73
4
 74
0
 40
0
 40
0
 40
0
 40
0
 40
1
 40
1
 40
1
 40
1
 10
54.224079
 20
66.085154
 30
0.0
 10
54.629375
 20
65.834837
 30
0.0
 10
54.665790
 20
65.828520
 30
0.0
 10
55.662116
 20
65.835677
 30
0.0
  0
SPLINE
  5
124
100
AcDbEntity
  8
Layer_2
 62
7
100
AcDbSpline
 70
8
 71
3
 72
8
 73
4
 74
0
 40
0
 40
0
 40
0
 40
0
 40
1
 40
1
 40
1
 40
1
 10
55.662116
 20
65.835677
 30
0.0
 10
56.224331
 20
65.839714
 30
0.0
 10
57.732075
 20
65.905068
 30
0.0
 10
59.012659
 20
65.980904
 30
0.0
  0
SPLINE
  5
125
100
AcDbEntity
  8
Layer_2
 62
7
100
AcDbSpline
 70
8
 71
3
 72
8
 73
4
 74
0
 40
0
 40
0
 40
0
 40
0
 40
1
 40
1
 40
1
 40
1
 10
59.012659
 20
65.980904
 30
0.0
 10
62.798640
 20
66.205113
 30
0.0
 10
63.342163
 20
66.221232
 30
0.0
 10
63.988550
 20
66.128465
 30
0.0
  0
SPLINE
  5
126
100
AcDbEntity
  8
Layer_2
 62
7
100
AcDbSpline
 70
8
 71
3
 72
8
 73
4
 74
0
 40
0
 40
0
 40
0
 40
0
 40
1
 40
1
 40
1
 40
1
 10
63.988550
 20
66.128465
 30
0.0
 10
65.509442
 20
65.910193
 30
0.0
 10
66.629706
 20
64.960177
 30
0.0
 10
66.988214
 20
63.584667
 30
0.0
  0
SPLINE
  5
127
100
AcDbEntity
  8
Layer_2
 62
7
100
AcDbSpline
 70
8
 71
3
 72
8
 73
4
 74
0
 40
0
 40
0
 40
0
 40
0
 40
1
 40
1
 40
1
 40
1
 10
66.988214
 20
63.584667
 30
0.0
 10
67.066223
 20
63.285364
 30
0.0
 10
67.086935
 20
56.570113
 30
0.0
 10
67.014196
 20
55.160333
 30
0.0
  0
SPLINE
  5
128
100
AcDbEntity
  8
Layer_2
 62
7
100
AcDbSpline
 70
8
 71
3
 72
8
 73
4
 74
0
 40
0
 40
0
 40
0
 40
0
 40
1
 40
1
 40
1
 40
1
 10
67.014196
 20
55.160333
 30
0.0
 10
66.992579
 20
54.741233
 30
0.0
 10
66.952775
 20
52.150433
 30
0.0
 10
66.925759
 20
49.403000
 30
0.0
  0
SPLINE
  5
129
100
AcDbEntity
  8
Layer_2
 62
7
100
AcDbSpline
 70
8
 71
3
 72
8
 73
4
 74
0
 40
0
 40
0
 40
0
 40
0
 40
1
 40
1
 40
1
 40
1
 10
66.925759
 20
49.403000
 30
0.0
 10
66.871570
 20
43.892354
 30
0.0
 10
66.866701
 20
43.837722
 30
0.0
 10
66.328856
 20
42.704319
 30
0.0
  0
SPLINE
  5
12a
100
AcDbEntity
  8
Layer_2
 62
7
100
AcDbSpline
 70
8
 71
3
 72
8
 73
4
 74
0
 40
0
 40
0
 40
0
 40
0
 40
1
 40
1
 40
1
 40
1
 10
66.328856
 20
42.704319
 30
0.0
 10
65.956900
 20
41.920493
 30
0.0
 10
65.202715
 20
41.128516
 30
0.0
 10
64.508097
 20
40.792323
 30
0.0
  0
SPLINE
  5
12b
100
AcDbEntity
  8
Layer_2
 62
7
100
AcDbSpline
 70
8
 71
3
 72
8
 73
4
 74
0
 40
0
 40
0
 40
0
 40
0
 40
1
 40
1
 40
1
 40
1
 10
64.508097
 20
40.792323
 30
0.0
 10
63.689778
 20
40.396255
 30
0.0
 10
63.085078
 20
40.322344
 30
0.0
 10
59.816989
 20
40.218932
 30
0.0
  0
SPLINE
  5
12c
100
AcDbEntity
  8
Layer_2
 62
7
100
AcDbSpline
 70
8
 71
3
 72
8
 73
4
 74
0
 40
0
 40
0
 40
0
 40
0
 40
1
 40
1
 40
1
 40
1
 10
59.816989
 20
40.218932
 30
0.0
 10
54.971585
 20
40.065608
 30
0.0
 10
54.688192
 20
40.041364
 30
0.0
 10
54.032716
 20
39.724126
 30
0.0
  0
SPLINE
  5
12d
100
AcDbEntity
  8
Layer_2
 62
7
100
AcDbSpline
 70
8
 71
3
 72
8
 73
4
 74
0
 40
0
 40
0
 40
0
 40
0
 40
1
 40
1
 40
1
 40
1
 10
54.032716
 20
39.724126
 30
0.0
 10
53.495652
 20
39.464197
 30
0.0
 10
53.138425
 20
39.079408
 30
0.0
 10
52.842922
 20
38.442530
 30
0.0
  0
SPLINE
  5
12e
100
AcDbEntity
  8
Layer_2
 62
7
100
AcDbSpline
 70
8
 71
3
 72
8
 73
4
 74
0
 40
0
 40
0
 40
0
 40
0
 40
1
 40
1
 40
1
 40
1
 10
52.842922
 20
38.442530
 30
0.0
 10
52.627517
 20
37.978278
 30
0.0
 10
52.624426
 20
37.942065
 30
0.0
 10
52.568041
 20
35.221333
 30
0.0
  0
SPLINE
  5
12f
100
AcDbEntity
  8
Layer_2
 62
7
100
AcDbSpline
 70
8
 71
3
 72
8
 73
4
 74
0
 40
0
 40
0
 40
0
 40
0
 40
1
 40
1
 40
1
 40
1
 10
52.568041
 20
35.221333
 30
0.0
 10
52.536675
 20
33.707917
 30
0.0
 10
52.487634
 20
28.414025
 30
0.0
 10
52.459062
 20
23.457128
 30
0.0
  0
SPLINE
  5
130
100
AcDbEntity
  8
Layer_2
 62
7
100
AcDbSpline
 70
8
 71
3
 72
8
 73
4
 74
0
 40
0
 40
0
 40
0
 40
0
 40
1
 40
1
 40
1
 40
1
 10
52.459062
 20
23.457128
 30
0.0
 10
52.386463
 20
10.862643
 30
0.0
 10
52.328508
 20
6.486144
 30
0.0
 10
52.225250
 20
5.799667
 30
0.0
  0
SPLINE
  5
131
100
AcDbEntity
  8
Layer_2
 62
7
100
AcDbSpline
 70
8
 71
3
 72
8
 73
4
 74
0
 40
0
 40
0
 40
0
 40
0
 40
1
 40
1
 40
1
 40
1
 10
52.225250
 20
5.799667
 30
0.0
 10
51.953173
 20
3.990914
 30
0.0
 10
50.843569
 20
2.402956
 30
0.0
 10
49.339153
 20
1.669373
 30
0.0
  0
SPLINE
  5
132
100
AcDbEntity
  8
Layer_2
 62
7
100
AcDbSpline
 70
8
 71
3
 72
8
 73
4
 74
0
 40
0
 40
0
 40
0
 40
0
 40
1
 40
1
 40
1
 40
1
 10
49.339153
 20
1.669373
 30
0.0
 10
48.126380
 20
1.077997
 30
0.0
 10
48.486235
 20
1.115893
 30
0.0
 10
41.105656
 20
0.802325
 30
0.0
  0
SPLINE
  5
133
100
AcDbEntity
  8
Layer_2
 62
7
100
AcDbSpline
 70
8
 71
3
 72
8
 73
4
 74
0
 40
0
 40
0
 40
0
 40
0
 40
1
 40
1
 40
1
 40
1
 10
41.105656
 20
0.802325
 30
0.0
 10
39.429256
 20
0.731102
 30
0.0
 10
36.990856
 20
0.653486
 30
0.0
 10
35.686989
 20
0.629843
 30
0.0
  0
SPLINE
  5
134
100
AcDbEntity
  8
Layer_2
 62
7
100
AcDbSpline
 70
8
 71
3
 72
8
 73
4
 74
0
 40
0
 40
0
 40
0
 40
0
 40
1
 40
1
 40
1
 40
1
 10
35.686989
 20
0.629843
 30
0.0
 10
33.320022
 20
0.586920
 30
0.0
 10
33.315315
 20
0.587190
 30
0.0
 10
32.670051
 20
0.801857
 30
0.0
  0
LINE
  5
135
100
AcDbEntity
  8
Layer_2
 62
7
100
AcDbLine
 10
32.670051
 20
0.801857
 30
0.0
 11
32.670062
 21
0.801857
 31
0.0
  0
ENDSEC
  0
SECTION
  2
OBJECTS
  0
DICTIONARY
  5
C
330
0
100
AcDbDictionary
  3
ACAD_GROUP
350
D
  3
ACAD_MLINESTYLE
350
17
  0
DICTIONARY
  5
D
330
C
100
AcDbDictionary
  0
DICTIONARY
  5
1A
330
C
100
AcDbDictionary
  0
DICTIONARY
  5
17
330
C
100
AcDbDictionary
  3
STANDARD
350
18
  0
DICTIONARY
  5
19
330
C
100
AcDbDictionary
  0
ENDSEC
  0
EOF
