  0
SECTION
  2
HEADER
  9
$ACADVER
  1
AC1014
  9
$HANDSEED
  5
FFFF
  9
$MEASUREMENT
 70
     1
  0
ENDSEC
  0
SECTION
  2
TABLES
  0
TABLE
  2
VPORT
  5
8
330
0
100
AcDbSymbolTable
 70
     4
  0
VPORT
  5
2E
330
8
100
AcDbSymbolTableRecord
100
AcDbViewportTableRecord
  2
*ACTIVE
 70
     0
 10
0.0
 20
0.0
 11
1.0
 21
1.0
 12
210.0
 22
148.5
 13
0.0
 23
0.0
 14
10.0
 24
10.0
 15
10.0
 25
10.0
 16
0.0
 26
0.0
 36
1.0
 17
0.0
 27
0.0
 37
0.0
 40
341.0
 41
1.24
 42
50.0
 43
0.0
 44
0.0
 50
0.0
 51
0.0
 71
     0
 72
   100
 73
     1
 74
     3
 75
     0
 76
     0
 77
     0
 78
     0
  0
ENDTAB
  0
TABLE
  2
LTYPE
  5
5
330
0
100
AcDbSymbolTable
 70
     1
  0
LTYPE
  5
14
330
5
100
AcDbSymbolTableRecord
100
AcDbLinetypeTableRecord
  2
BYBLOCK
 70
     0
  3

 72
    65
 73
     0
 40
0.0
  0
LTYPE
  5
15
330
5
100
AcDbSymbolTableRecord
100
AcDbLinetypeTableRecord
  2
BYLAYER
 70
     0
  3

 72
    65
 73
     0
 40
0.0
  0
LTYPE
  5
16
330
5
100
AcDbSymbolTableRecord
100
AcDbLinetypeTableRecord
  2
CONTINUOUS
 70
     0
  3
Solid line
 72
    65
 73
     0
 40
0.0
  0
ENDTAB
  0
TABLE
  2
LAYER
  5
2
100
AcDbSymbolTable
 70
3
  0
LAYER
  5
50
100
AcDbSymbolTableRecord
100
AcDbLayerTableRecord
  2
0
 70
0
  6
CONTINUOUS
  0
LAYER
  5
51
100
AcDbSymbolTableRecord
100
AcDbLayerTableRecord
  2
Image
 70
0
  6
CONTINUOUS
  0
LAYER
  5
52
100
AcDbSymbolTableRecord
100
AcDbLayerTableRecord
  2
Path
 70
0
  6
CONTINUOUS
  0
ENDTAB
  0
TABLE
  2
STYLE
  5
3
330
0
100
AcDbSymbolTable
 70
     1
  0
STYLE
  5
11
330
3
100
AcDbSymbolTableRecord
100
AcDbTextStyleTableRecord
  2
STANDARD
 70
     0
 40
0.0
 41
1.0
 50
0.0
 71
     0
 42
2.5
  3
txt
  4

  0
ENDTAB
  0
TABLE
  2
VIEW
  5
6
330
0
100
AcDbSymbolTable
 70
     0
  0
ENDTAB
  0
TABLE
  2
UCS
  5
7
330
0
100
AcDbSymbolTable
 70
     0
  0
ENDTAB
  0
TABLE
  2
APPID
  5
9
330
0
100
AcDbSymbolTable
 70
     2
  0
APPID
  5
12
330
9
100
AcDbSymbolTableRecord
100
AcDbRegAppTableRecord
  2
ACAD
 70
     0
  0
ENDTAB
  0
TABLE
  2
DIMSTYLE
  5
A
330
0
100
AcDbSymbolTable
 70
     1
  0
DIMSTYLE
105
27
330
A
100
AcDbSymbolTableRecord
100
AcDbDimStyleTableRecord
  2
ISO-25
 70
     0
  3

  4

  5

  6

  7

 40
1.0
 41
2.5
 42
0.625
 43
3.75
 44
1.25
 45
0.0
 46
0.0
 47
0.0
 48
0.0
140
2.5
141
2.5
142
0.0
143
0.03937007874016
144
1.0
145
0.0
146
1.0
147
0.625
 71
     0
 72
     0
 73
     0
 74
     0
 75
     0
 76
     0
 77
     1
 78
     8
170
     0
171
     3
172
     1
173
     0
174
     0
175
     0
176
     0
177
     0
178
     0
270
     2
271
     2
272
     2
273
     2
274
     3
340
11
275
     0
280
     0
281
     0
282
     0
283
     0
284
     8
285
     0
286
     0
287
     3
288
     0
  0
ENDTAB
  0
TABLE
  2
BLOCK_RECORD
  5
1
330
0
100
AcDbSymbolTable
 70
     1
  0
BLOCK_RECORD
  5
1F
330
1
100
AcDbSymbolTableRecord
100
AcDbBlockTableRecord
  2
*MODEL_SPACE
  0
BLOCK_RECORD
  5
1B
330
1
100
AcDbSymbolTableRecord
100
AcDbBlockTableRecord
  2
*PAPER_SPACE
  0
ENDTAB
  0
ENDSEC
  0
SECTION
  2
BLOCKS
  0
BLOCK
  5
20
330
1F
100
AcDbEntity
  8
0
100
AcDbBlockBegin
  2
*MODEL_SPACE
 70
     0
 10
0.0
 20
0.0
 30
0.0
  3
*MODEL_SPACE
  1

  0
ENDBLK
  5
21
330
1F
100
AcDbEntity
  8
0
100
AcDbBlockEnd
  0
BLOCK
  5
1C
330
1B
100
AcDbEntity
 67
     1
  8
0
100
AcDbBlockBegin
  2
*PAPER_SPACE
  1

  0
ENDBLK
  5
1D
330
1B
100
AcDbEntity
 67
     1
  8
0
100
AcDbBlockEnd
  0
ENDSEC
  0
SECTION
  2
ENTITIES
  0
SPLINE
  5
100
100
AcDbEntity
  8
Path
 62
7
100
AcDbSpline
 70
8
 71
3
 72
8
 73
4
 74
0
 40
0
 40
0
 40
0
 40
0
 40
1
 40
1
 40
1
 40
1
 10
5.461000
 20
0.172731
 30
0.0
 10
3.611995
 20
0.537813
 30
0.0
 10
2.094759
 20
1.520095
 30
0.0
 10
1.152824
 20
2.961915
 30
0.0
  0
SPLINE
  5
101
100
AcDbEntity
  8
Path
 62
7
100
AcDbSpline
 70
8
 71
3
 72
8
 73
4
 74
0
 40
0
 40
0
 40
0
 40
0
 40
1
 40
1
 40
1
 40
1
 10
1.152824
 20
2.961915
 30
0.0
 10
0.497241
 20
3.965416
 30
0.0
 10
0.210914
 20
4.738267
 30
0.0
 10
0.083221
 20
5.848966
 30
0.0
  0
SPLINE
  5
102
100
AcDbEntity
  8
Path
 62
7
100
AcDbSpline
 70
8
 71
3
 72
8
 73
4
 74
0
 40
0
 40
0
 40
0
 40
0
 40
1
 40
1
 40
1
 40
1
 10
0.083221
 20
5.848966
 30
0.0
 10
-0.022302
 20
6.766830
 30
0.0
 10
-0.025810
 20
38.884566
 30
0.0
 10
0.079504
 20
39.885025
 30
0.0
  0
SPLINE
  5
103
100
AcDbEntity
  8
Path
 62
7
100
AcDbSpline
 70
8
 71
3
 72
8
 73
4
 74
0
 40
0
 40
0
 40
0
 40
0
 40
1
 40
1
 40
1
 40
1
 10
0.079504
 20
39.885025
 30
0.0
 10
0.235497
 20
41.366934
 30
0.0
 10
0.782613
 20
42.523623
 30
0.0
 10
1.851689
 20
43.631700
 30
0.0
  0
SPLINE
  5
104
100
AcDbEntity
  8
Path
 62
7
100
AcDbSpline
 70
8
 71
3
 72
8
 73
4
 74
0
 40
0
 40
0
 40
0
 40
0
 40
1
 40
1
 40
1
 40
1
 10
1.851689
 20
43.631700
 30
0.0
 10
2.894339
 20
44.712387
 30
0.0
 10
4.243982
 20
45.378080
 30
0.0
 10
5.739846
 20
45.549479
 30
0.0
  0
SPLINE
  5
105
100
AcDbEntity
  8
Path
 62
7
100
AcDbSpline
 70
8
 71
3
 72
8
 73
4
 74
0
 40
0
 40
0
 40
0
 40
0
 40
1
 40
1
 40
1
 40
1
 10
5.739846
 20
45.549479
 30
0.0
 10
6.799554
 20
45.670903
 30
0.0
 10
58.316249
 20
45.666211
 30
0.0
 10
59.418167
 20
45.544590
 30
0.0
  0
SPLINE
  5
106
100
AcDbEntity
  8
Path
 62
7
100
AcDbSpline
 70
8
 71
3
 72
8
 73
4
 74
0
 40
0
 40
0
 40
0
 40
0
 40
1
 40
1
 40
1
 40
1
 10
59.418167
 20
45.544590
 30
0.0
 10
59.870359
 20
45.494681
 30
0.0
 10
60.276526
 20
45.418481
 30
0.0
 10
60.320764
 20
45.375257
 30
0.0
  0
SPLINE
  5
107
100
AcDbEntity
  8
Path
 62
7
100
AcDbSpline
 70
8
 71
3
 72
8
 73
4
 74
0
 40
0
 40
0
 40
0
 40
0
 40
1
 40
1
 40
1
 40
1
 10
60.320764
 20
45.375257
 30
0.0
 10
60.365002
 20
45.332032
 30
0.0
 10
60.478276
 20
45.296667
 30
0.0
 10
60.572478
 20
45.296667
 30
0.0
  0
SPLINE
  5
108
100
AcDbEntity
  8
Path
 62
7
100
AcDbSpline
 70
8
 71
3
 72
8
 73
4
 74
0
 40
0
 40
0
 40
0
 40
0
 40
1
 40
1
 40
1
 40
1
 10
60.572478
 20
45.296667
 30
0.0
 10
60.742690
 20
45.296667
 30
0.0
 10
61.931256
 20
44.742713
 30
0.0
 10
62.113790
 20
44.578311
 30
0.0
  0
SPLINE
  5
109
100
AcDbEntity
  8
Path
 62
7
100
AcDbSpline
 70
8
 71
3
 72
8
 73
4
 74
0
 40
0
 40
0
 40
0
 40
0
 40
1
 40
1
 40
1
 40
1
 10
62.113790
 20
44.578311
 30
0.0
 10
62.166294
 20
44.531023
 30
0.0
 10
62.299644
 20
44.436065
 30
0.0
 10
62.410123
 20
44.367293
 30
0.0
  0
SPLINE
  5
10a
100
AcDbEntity
  8
Path
 62
7
100
AcDbSpline
 70
8
 71
3
 72
8
 73
4
 74
0
 40
0
 40
0
 40
0
 40
0
 40
1
 40
1
 40
1
 40
1
 10
62.410123
 20
44.367293
 30
0.0
 10
62.765834
 20
44.145871
 30
0.0
 10
63.875666
 20
42.965687
 30
0.0
 10
64.050331
 20
42.623116
 30
0.0
  0
SPLINE
  5
10b
100
AcDbEntity
  8
Path
 62
7
100
AcDbSpline
 70
8
 71
3
 72
8
 73
4
 74
0
 40
0
 40
0
 40
0
 40
0
 40
1
 40
1
 40
1
 40
1
 10
64.050331
 20
42.623116
 30
0.0
 10
64.143464
 20
42.440452
 30
0.0
 10
64.242580
 20
42.271950
 30
0.0
 10
64.270586
 20
42.248667
 30
0.0
  0
SPLINE
  5
10c
100
AcDbEntity
  8
Path
 62
7
100
AcDbSpline
 70
8
 71
3
 72
8
 73
4
 74
0
 40
0
 40
0
 40
0
 40
0
 40
1
 40
1
 40
1
 40
1
 10
64.270586
 20
42.248667
 30
0.0
 10
64.399237
 20
42.141713
 30
0.0
 10
64.860019
 20
40.795196
 30
0.0
 10
64.936971
 20
40.301333
 30
0.0
  0
SPLINE
  5
10d
100
AcDbEntity
  8
Path
 62
7
100
AcDbSpline
 70
8
 71
3
 72
8
 73
4
 74
0
 40
0
 40
0
 40
0
 40
0
 40
1
 40
1
 40
1
 40
1
 10
64.936971
 20
40.301333
 30
0.0
 10
65.059483
 20
39.515032
 30
0.0
 10
65.055903
 20
6.134367
 30
0.0
 10
64.933214
 20
5.455383
 30
0.0
  0
SPLINE
  5
10e
100
AcDbEntity
  8
Path
 62
7
100
AcDbSpline
 70
8
 71
3
 72
8
 73
4
 74
0
 40
0
 40
0
 40
0
 40
0
 40
1
 40
1
 40
1
 40
1
 10
64.933214
 20
5.455383
 30
0.0
 10
64.636848
 20
3.815006
 30
0.0
 10
63.780683
 20
2.418813
 30
0.0
 10
62.429464
 20
1.372378
 30
0.0
  0
SPLINE
  5
10f
100
AcDbEntity
  8
Path
 62
7
100
AcDbSpline
 70
8
 71
3
 72
8
 73
4
 74
0
 40
0
 40
0
 40
0
 40
0
 40
1
 40
1
 40
1
 40
1
 10
62.429464
 20
1.372378
 30
0.0
 10
62.236496
 20
1.222936
 30
0.0
 10
62.036471
 20
1.100667
 30
0.0
 10
61.984964
 20
1.100667
 30
0.0
  0
SPLINE
  5
110
100
AcDbEntity
  8
Path
 62
7
100
AcDbSpline
 70
8
 71
3
 72
8
 73
4
 74
0
 40
0
 40
0
 40
0
 40
0
 40
1
 40
1
 40
1
 40
1
 10
61.984964
 20
1.100667
 30
0.0
 10
61.933455
 20
1.100667
 30
0.0
 10
61.890876
 20
1.072092
 30
0.0
 10
61.890341
 20
1.037167
 30
0.0
  0
SPLINE
  5
111
100
AcDbEntity
  8
Path
 62
7
100
AcDbSpline
 70
8
 71
3
 72
8
 73
4
 74
0
 40
0
 40
0
 40
0
 40
0
 40
1
 40
1
 40
1
 40
1
 10
61.890341
 20
1.037167
 30
0.0
 10
61.889812
 20
1.002242
 30
0.0
 10
61.727882
 20
0.900607
 30
0.0
 10
61.530508
 20
0.811313
 30
0.0
  0
SPLINE
  5
112
100
AcDbEntity
  8
Path
 62
7
100
AcDbSpline
 70
8
 71
3
 72
8
 73
4
 74
0
 40
0
 40
0
 40
0
 40
0
 40
1
 40
1
 40
1
 40
1
 10
61.530508
 20
0.811313
 30
0.0
 10
61.333134
 20
0.722021
 30
0.0
 10
61.057346
 20
0.596299
 30
0.0
 10
60.917646
 20
0.531937
 30
0.0
  0
SPLINE
  5
113
100
AcDbEntity
  8
Path
 62
7
100
AcDbSpline
 70
8
 71
3
 72
8
 73
4
 74
0
 40
0
 40
0
 40
0
 40
0
 40
1
 40
1
 40
1
 40
1
 10
60.917646
 20
0.531937
 30
0.0
 10
60.641503
 20
0.404709
 30
0.0
 10
60.201747
 20
0.282771
 30
0.0
 10
59.605312
 20
0.168047
 30
0.0
  0
SPLINE
  5
114
100
AcDbEntity
  8
Path
 62
7
100
AcDbSpline
 70
8
 71
3
 72
8
 73
4
 74
0
 40
0
 40
0
 40
0
 40
0
 40
1
 40
1
 40
1
 40
1
 10
59.605312
 20
0.168047
 30
0.0
 10
59.129171
 20
0.076459
 30
0.0
 10
5.925247
 20
0.081063
 30
0.0
 10
5.460982
 20
0.172731
 30
0.0
  0
LWPOLYLINE
  5
115
100
AcDbEntity
  8
Path
 62
7
100
AcDbPolyline
 90
1
 70
1
 10
5.460982
 20
0.172731
 30
0.0
  0
ENDSEC
  0
SECTION
  2
OBJECTS
  0
DICTIONARY
  5
C
330
0
100
AcDbDictionary
  3
ACAD_GROUP
350
D
  3
ACAD_MLINESTYLE
350
17
  0
DICTIONARY
  5
D
330
C
100
AcDbDictionary
  0
DICTIONARY
  5
1A
330
C
100
AcDbDictionary
  0
DICTIONARY
  5
17
330
C
100
AcDbDictionary
  3
STANDARD
350
18
  0
DICTIONARY
  5
19
330
C
100
AcDbDictionary
  0
ENDSEC
  0
EOF
