<?xml version="1.0" standalone="no"?>
 <!DOCTYPE svg PUBLIC "-//W3C//DTD SVG 1.1//EN" 
 "http://www.w3.org/Graphics/SVG/1.1/DTD/svg11.dtd"> 
<svg
  xmlns:svg="http://www.w3.org/2000/svg"
  xmlns="http://www.w3.org/2000/svg"
  xmlns:xlink="http://www.w3.org/1999/xlink"
  version="1.1"
  width="29.700220cm" height="21.000720cm" viewBox="0 0 116930 82680">
<title>SVG Picture created as ft4232h-breakout-F_Mask.svg date 2021/06/06 15:27:48 </title>
  <desc>Picture generated by PCBNEW </desc>
<g style="fill:#000000; fill-opacity:1;stroke:#000000; stroke-opacity:1;
stroke-linecap:round; stroke-linejoin:round;"
 transform="translate(0 0) scale(1 1)">
</g>
<g style="fill:#000000; fill-opacity:0.0; 
stroke:#000000; stroke-width:-0.000393701; stroke-opacity:1; 
stroke-linecap:round; stroke-linejoin:round;">
<g >
</g>
<g style="fill:#000000; fill-opacity:0.0; 
stroke:#000000; stroke-width:0; stroke-opacity:1; 
stroke-linecap:round; stroke-linejoin:round;">
</g>
<g style="fill:#000000; fill-opacity:1.0; 
stroke:#000000; stroke-width:0; stroke-opacity:1; 
stroke-linecap:round; stroke-linejoin:round;">
<path style="fill:#000000; fill-opacity:1.0; 
stroke:#000000; stroke-width:0; stroke-opacity:1; 
stroke-linecap:round; stroke-linejoin:round;fill-rule:evenodd;"
d="M 47136.3,34724.9
47145.6,34726.3
47154.7,34728.5
47163.6,34731.7
47172.1,34735.7
47180.2,34740.6
47187.7,34746.2
47194.7,34752.5
47201.1,34759.5
47206.7,34767.1
47211.5,34775.1
47215.5,34783.7
47218.7,34792.5
47221,34801.7
47222.4,34811
47222.8,34820.4
47222.8,35179.6
47222.4,35189
47221,35198.3
47218.7,35207.5
47215.5,35216.3
47211.5,35224.9
47206.7,35232.9
47201.1,35240.5
47194.7,35247.5
47187.7,35253.8
47180.2,35259.4
47172.1,35264.3
47163.6,35268.3
47154.7,35271.5
47145.6,35273.7
47136.3,35275.1
47126.9,35275.6
46934.9,35275.6
46925.5,35275.1
46916.2,35273.7
46907.1,35271.5
46898.2,35268.3
46889.7,35264.3
46881.6,35259.4
46874.1,35253.8
46867.1,35247.5
46860.8,35240.5
46855.1,35232.9
46850.3,35224.9
46846.3,35216.3
46843.1,35207.5
46840.8,35198.3
46839.4,35189
46839,35179.6
46839,34820.4
46839.4,34811
46840.8,34801.7
46843.1,34792.5
46846.3,34783.7
46850.3,34775.1
46855.1,34767.1
46860.8,34759.5
46867.1,34752.5
46874.1,34746.2
46881.6,34740.6
46889.7,34735.7
46898.2,34731.7
46907.1,34728.5
46916.2,34726.3
46925.5,34724.9
46934.9,34724.4
47126.9,34724.4
Z" /> 
<path style="fill:#000000; fill-opacity:1.0; 
stroke:#000000; stroke-width:0; stroke-opacity:1; 
stroke-linecap:round; stroke-linejoin:round;fill-rule:evenodd;"
d="M 47874.5,34724.9
47883.8,34726.3
47892.9,34728.5
47901.8,34731.7
47910.3,34735.7
47918.4,34740.6
47925.9,34746.2
47932.9,34752.5
47939.2,34759.5
47944.9,34767.1
47949.7,34775.1
47953.7,34783.7
47956.9,34792.5
47959.2,34801.7
47960.6,34811
47961,34820.4
47961,35179.6
47960.6,35189
47959.2,35198.3
47956.9,35207.5
47953.7,35216.3
47949.7,35224.9
47944.9,35232.9
47939.2,35240.5
47932.9,35247.5
47925.9,35253.8
47918.4,35259.4
47910.3,35264.3
47901.8,35268.3
47892.9,35271.5
47883.8,35273.7
47874.5,35275.1
47865.1,35275.6
47673.1,35275.6
47663.7,35275.1
47654.4,35273.7
47645.3,35271.5
47636.4,35268.3
47627.9,35264.3
47619.8,35259.4
47612.3,35253.8
47605.3,35247.5
47598.9,35240.5
47593.3,35232.9
47588.5,35224.9
47584.5,35216.3
47581.3,35207.5
47579,35198.3
47577.6,35189
47577.2,35179.6
47577.2,34820.4
47577.6,34811
47579,34801.7
47581.3,34792.5
47584.5,34783.7
47588.5,34775.1
47593.3,34767.1
47598.9,34759.5
47605.3,34752.5
47612.3,34746.2
47619.8,34740.6
47627.9,34735.7
47636.4,34731.7
47645.3,34728.5
47654.4,34726.3
47663.7,34724.9
47673.1,34724.4
47865.1,34724.4
Z" /> 
</g>
<g >
</g>
<g style="fill:#000000; fill-opacity:1.0; 
stroke:#000000; stroke-width:0; stroke-opacity:1; 
stroke-linecap:round; stroke-linejoin:round;">
<path style="fill:#000000; fill-opacity:1.0; 
stroke:#000000; stroke-width:0; stroke-opacity:1; 
stroke-linecap:round; stroke-linejoin:round;fill-rule:evenodd;"
d="M 46537.5,34724.9
46546.8,34726.3
46555.9,34728.5
46564.8,34731.7
46573.3,34735.7
46581.4,34740.6
46588.9,34746.2
46595.9,34752.5
46602.2,34759.5
46607.8,34767.1
46612.7,34775.1
46616.7,34783.7
46619.9,34792.5
46622.2,34801.7
46623.6,34811
46624,34820.4
46624,35179.6
46623.6,35189
46622.2,35198.3
46619.9,35207.5
46616.7,35216.3
46612.7,35224.9
46607.8,35232.9
46602.2,35240.5
46595.9,35247.5
46588.9,35253.8
46581.4,35259.4
46573.3,35264.3
46564.8,35268.3
46555.9,35271.5
46546.8,35273.7
46537.5,35275.1
46528.1,35275.6
46336.1,35275.6
46326.7,35275.1
46317.4,35273.7
46308.3,35271.5
46299.4,35268.3
46290.9,35264.3
46282.8,35259.4
46275.2,35253.8
46268.3,35247.5
46261.9,35240.5
46256.3,35232.9
46251.5,35224.9
46247.5,35216.3
46244.3,35207.5
46242,35198.3
46240.6,35189
46240.2,35179.6
46240.2,34820.4
46240.6,34811
46242,34801.7
46244.3,34792.5
46247.5,34783.7
46251.5,34775.1
46256.3,34767.1
46261.9,34759.5
46268.3,34752.5
46275.2,34746.2
46282.8,34740.6
46290.9,34735.7
46299.4,34731.7
46308.3,34728.5
46317.4,34726.3
46326.7,34724.9
46336.1,34724.4
46528.1,34724.4
Z" /> 
<path style="fill:#000000; fill-opacity:1.0; 
stroke:#000000; stroke-width:0; stroke-opacity:1; 
stroke-linecap:round; stroke-linejoin:round;fill-rule:evenodd;"
d="M 45799.3,34724.9
45808.6,34726.3
45817.7,34728.5
45826.6,34731.7
45835.1,34735.7
45843.2,34740.6
45850.7,34746.2
45857.7,34752.5
45864,34759.5
45869.7,34767.1
45874.5,34775.1
45878.5,34783.7
45881.7,34792.5
45884,34801.7
45885.4,34811
45885.8,34820.4
45885.8,35179.6
45885.4,35189
45884,35198.3
45881.7,35207.5
45878.5,35216.3
45874.5,35224.9
45869.7,35232.9
45864,35240.5
45857.7,35247.5
45850.7,35253.8
45843.2,35259.4
45835.1,35264.3
45826.6,35268.3
45817.7,35271.5
45808.6,35273.7
45799.3,35275.1
45789.9,35275.6
45597.9,35275.6
45588.5,35275.1
45579.2,35273.7
45570.1,35271.5
45561.2,35268.3
45552.7,35264.3
45544.6,35259.4
45537.1,35253.8
45530.1,35247.5
45523.8,35240.5
45518.1,35232.9
45513.3,35224.9
45509.3,35216.3
45506.1,35207.5
45503.8,35198.3
45502.4,35189
45502,35179.6
45502,34820.4
45502.4,34811
45503.8,34801.7
45506.1,34792.5
45509.3,34783.7
45513.3,34775.1
45518.1,34767.1
45523.8,34759.5
45530.1,34752.5
45537.1,34746.2
45544.6,34740.6
45552.7,34735.7
45561.2,34731.7
45570.1,34728.5
45579.2,34726.3
45588.5,34724.9
45597.9,34724.4
45789.9,34724.4
Z" /> 
</g>
<g >
</g>
<g style="fill:#000000; fill-opacity:1.0; 
stroke:#000000; stroke-width:0; stroke-opacity:1; 
stroke-linecap:round; stroke-linejoin:round;">
<circle cx="39000" cy="34500" r="1377.95" /> 
</g>
<g style="fill:#000000; fill-opacity:1.0; 
stroke:#000000; stroke-width:98.4252; stroke-opacity:1; 
stroke-linecap:round; stroke-linejoin:round;">
</g>
<g >
</g>
<g style="fill:#000000; fill-opacity:1.0; 
stroke:#000000; stroke-width:98.4252; stroke-opacity:1; 
stroke-linecap:round; stroke-linejoin:round;">
</g>
<g style="fill:#000000; fill-opacity:1.0; 
stroke:#000000; stroke-width:0; stroke-opacity:1; 
stroke-linecap:round; stroke-linejoin:round;">
<path style="fill:#000000; fill-opacity:1.0; 
stroke:#000000; stroke-width:0; stroke-opacity:1; 
stroke-linecap:round; stroke-linejoin:round;fill-rule:evenodd;"
d="M 37189,36689.4
37198.3,36690.8
37207.5,36693.1
37216.3,36696.3
37224.9,36700.3
37232.9,36705.1
37240.5,36710.8
37247.5,36717.1
37253.8,36724.1
37259.4,36731.6
37264.3,36739.7
37268.3,36748.2
37271.5,36757.1
37273.7,36766.2
37275.1,36775.5
37275.6,36784.9
37275.6,36976.9
37275.1,36986.3
37273.7,36995.6
37271.5,37004.7
37268.3,37013.6
37264.3,37022.1
37259.4,37030.2
37253.8,37037.7
37247.5,37044.7
37240.5,37051.1
37232.9,37056.7
37224.9,37061.5
37216.3,37065.5
37207.5,37068.7
37198.3,37071
37189,37072.4
37179.6,37072.8
36820.4,37072.8
36811,37072.4
36801.7,37071
36792.5,37068.7
36783.7,37065.5
36775.1,37061.5
36767.1,37056.7
36759.5,37051.1
36752.5,37044.7
36746.2,37037.7
36740.6,37030.2
36735.7,37022.1
36731.7,37013.6
36728.5,37004.7
36726.3,36995.6
36724.9,36986.3
36724.4,36976.9
36724.4,36784.9
36724.9,36775.5
36726.3,36766.2
36728.5,36757.1
36731.7,36748.2
36735.7,36739.7
36740.6,36731.6
36746.2,36724.1
36752.5,36717.1
36759.5,36710.8
36767.1,36705.1
36775.1,36700.3
36783.7,36696.3
36792.5,36693.1
36801.7,36690.8
36811,36689.4
36820.4,36689
37179.6,36689
Z" /> 
<path style="fill:#000000; fill-opacity:1.0; 
stroke:#000000; stroke-width:0; stroke-opacity:1; 
stroke-linecap:round; stroke-linejoin:round;fill-rule:evenodd;"
d="M 37189,37427.6
37198.3,37429
37207.5,37431.3
37216.3,37434.5
37224.9,37438.5
37232.9,37443.3
37240.5,37448.9
37247.5,37455.3
37253.8,37462.3
37259.4,37469.8
37264.3,37477.9
37268.3,37486.4
37271.5,37495.3
37273.7,37504.4
37275.1,37513.7
37275.6,37523.1
37275.6,37715.1
37275.1,37724.5
37273.7,37733.8
37271.5,37742.9
37268.3,37751.8
37264.3,37760.3
37259.4,37768.4
37253.8,37775.9
37247.5,37782.9
37240.5,37789.2
37232.9,37794.9
37224.9,37799.7
37216.3,37803.7
37207.5,37806.9
37198.3,37809.2
37189,37810.6
37179.6,37811
36820.4,37811
36811,37810.6
36801.7,37809.2
36792.5,37806.9
36783.7,37803.7
36775.1,37799.7
36767.1,37794.9
36759.5,37789.2
36752.5,37782.9
36746.2,37775.9
36740.6,37768.4
36735.7,37760.3
36731.7,37751.8
36728.5,37742.9
36726.3,37733.8
36724.9,37724.5
36724.4,37715.1
36724.4,37523.1
36724.9,37513.7
36726.3,37504.4
36728.5,37495.3
36731.7,37486.4
36735.7,37477.9
36740.6,37469.8
36746.2,37462.3
36752.5,37455.3
36759.5,37448.9
36767.1,37443.3
36775.1,37438.5
36783.7,37434.5
36792.5,37431.3
36801.7,37429
36811,37427.6
36820.4,37427.2
37179.6,37427.2
Z" /> 
</g>
<g >
</g>
<g style="fill:#000000; fill-opacity:1.0; 
stroke:#000000; stroke-width:0; stroke-opacity:1; 
stroke-linecap:round; stroke-linejoin:round;">
<circle cx="28500" cy="38000" r="334.646" /> 
<path style="fill:#000000; fill-opacity:1.0; 
stroke:#000000; stroke-width:0; stroke-opacity:1; 
stroke-linecap:round; stroke-linejoin:round;fill-rule:evenodd;"
d="M 28165.4,37334.6
28165.4,36665.4
28834.6,36665.4
28834.6,37334.6
Z" /> 
</g>
<g >
</g>
<g style="fill:#000000; fill-opacity:1.0; 
stroke:#000000; stroke-width:0; stroke-opacity:1; 
stroke-linecap:round; stroke-linejoin:round;">
<path style="fill:#000000; fill-opacity:1.0; 
stroke:#000000; stroke-width:0; stroke-opacity:1; 
stroke-linecap:round; stroke-linejoin:round;fill-rule:evenodd;"
d="M 30204.7,32854.3
30204.7,33145.7
29259.8,33145.7
29259.8,32854.3
Z" /> 
<path style="fill:#000000; fill-opacity:1.0; 
stroke:#000000; stroke-width:0; stroke-opacity:1; 
stroke-linecap:round; stroke-linejoin:round;fill-rule:evenodd;"
d="M 31740.2,32854.3
31740.2,33145.7
30795.3,33145.7
30795.3,32854.3
Z" /> 
<path style="fill:#000000; fill-opacity:1.0; 
stroke:#000000; stroke-width:0; stroke-opacity:1; 
stroke-linecap:round; stroke-linejoin:round;fill-rule:evenodd;"
d="M 30204.7,33354.3
30204.7,33645.7
29259.8,33645.7
29259.8,33354.3
Z" /> 
<path style="fill:#000000; fill-opacity:1.0; 
stroke:#000000; stroke-width:0; stroke-opacity:1; 
stroke-linecap:round; stroke-linejoin:round;fill-rule:evenodd;"
d="M 31740.2,33354.3
31740.2,33645.7
30795.3,33645.7
30795.3,33354.3
Z" /> 
<path style="fill:#000000; fill-opacity:1.0; 
stroke:#000000; stroke-width:0; stroke-opacity:1; 
stroke-linecap:round; stroke-linejoin:round;fill-rule:evenodd;"
d="M 30204.7,33854.3
30204.7,34145.7
29259.8,34145.7
29259.8,33854.3
Z" /> 
<path style="fill:#000000; fill-opacity:1.0; 
stroke:#000000; stroke-width:0; stroke-opacity:1; 
stroke-linecap:round; stroke-linejoin:round;fill-rule:evenodd;"
d="M 31740.2,33854.3
31740.2,34145.7
30795.3,34145.7
30795.3,33854.3
Z" /> 
<path style="fill:#000000; fill-opacity:1.0; 
stroke:#000000; stroke-width:0; stroke-opacity:1; 
stroke-linecap:round; stroke-linejoin:round;fill-rule:evenodd;"
d="M 30204.7,34354.3
30204.7,34645.7
29259.8,34645.7
29259.8,34354.3
Z" /> 
<path style="fill:#000000; fill-opacity:1.0; 
stroke:#000000; stroke-width:0; stroke-opacity:1; 
stroke-linecap:round; stroke-linejoin:round;fill-rule:evenodd;"
d="M 31740.2,34354.3
31740.2,34645.7
30795.3,34645.7
30795.3,34354.3
Z" /> 
<path style="fill:#000000; fill-opacity:1.0; 
stroke:#000000; stroke-width:0; stroke-opacity:1; 
stroke-linecap:round; stroke-linejoin:round;fill-rule:evenodd;"
d="M 30204.7,34854.3
30204.7,35145.7
29259.8,35145.7
29259.8,34854.3
Z" /> 
<path style="fill:#000000; fill-opacity:1.0; 
stroke:#000000; stroke-width:0; stroke-opacity:1; 
stroke-linecap:round; stroke-linejoin:round;fill-rule:evenodd;"
d="M 31740.2,34854.3
31740.2,35145.7
30795.3,35145.7
30795.3,34854.3
Z" /> 
</g>
<g >
</g>
<g style="fill:#000000; fill-opacity:1.0; 
stroke:#000000; stroke-width:0; stroke-opacity:1; 
stroke-linecap:round; stroke-linejoin:round;">
</g>
<g style="fill:#000000; fill-opacity:1.0; 
stroke:#000000; stroke-width:787.402; stroke-opacity:1; 
stroke-linecap:round; stroke-linejoin:round;">
</g>
<g style="fill:#000000; fill-opacity:0.0; 
stroke:#000000; stroke-width:787.402; stroke-opacity:1; 
stroke-linecap:round; stroke-linejoin:round;">
<path d="M35364 45645
L35757 45645
" />
<path d="M44370 43645
L44763 43645
" />
<path d="M35364 42645
L35757 42645
" />
<path d="M44370 45645
L44763 45645
" />
<path d="M43375 45645
L42982 45645
" />
<path d="M43375 43645
L42982 43645
" />
<path d="M34370 45645
L33976 45645
" />
<path d="M35364 41645
L35757 41645
" />
<path d="M43375 44645
L42982 44645
" />
<path d="M43375 42645
L42982 42645
" />
<path d="M44370 41645
L44763 41645
" />
<path d="M43375 41645
L42982 41645
" />
<path d="M35364 44645
L35757 44645
" />
<path d="M34370 41645
L33976 41645
" />
<path d="M44370 44645
L44763 44645
" />
<path d="M35364 43645
L35757 43645
" />
<path d="M34370 42645
L33976 42645
" />
<path d="M34370 43645
L33976 43645
" />
<path d="M44370 42645
L44763 42645
" />
<path d="M34370 44645
L33976 44645
" />
<path d="M44370 38645
L44763 38645
" />
<path d="M43375 38645
L42982 38645
" />
<path d="M34370 39645
L33976 39645
" />
<path d="M44370 37645
L44763 37645
" />
<path d="M43375 39645
L42982 39645
" />
<path d="M35364 39645
L35757 39645
" />
<path d="M34370 37645
L33976 37645
" />
<path d="M43375 37645
L42982 37645
" />
<path d="M44370 39645
L44763 39645
" />
<path d="M35364 37645
L35757 37645
" />
<path d="M35364 40645
L35757 40645
" />
<path d="M44370 40645
L44763 40645
" />
<path d="M35364 38645
L35757 38645
" />
<path d="M43375 40645
L42982 40645
" />
<path d="M34370 40645
L33976 40645
" />
<path d="M34370 38645
L33976 38645
" />
<path d="M44370 36645
L44763 36645
" />
<path d="M43375 36645
L42982 36645
" />
<path d="M44370 35645
L44763 35645
" />
<path d="M34370 35645
L33976 35645
" />
<path d="M43375 35645
L42982 35645
" />
<path d="M35364 35645
L35757 35645
" />
<path d="M35364 36645
L35757 36645
" />
<path d="M34370 36645
L33976 36645
" />
<path d="M44370 34645
L44763 34645
" />
<path d="M34370 34645
L33976 34645
" />
<path d="M43375 34645
L42982 34645
" />
<path d="M35364 34645
L35757 34645
" />
<path d="M34370 33645
L33976 33645
" />
<path d="M44370 33645
L44763 33645
" />
<path d="M35364 33645
L35757 33645
" />
<path d="M43375 33645
L42982 33645
" />
</g>
<g >
</g>
<g style="fill:#000000; fill-opacity:0.0; 
stroke:#000000; stroke-width:787.402; stroke-opacity:1; 
stroke-linecap:round; stroke-linejoin:round;">
</g>
<g style="fill:#000000; fill-opacity:1.0; 
stroke:#000000; stroke-width:0; stroke-opacity:1; 
stroke-linecap:round; stroke-linejoin:round;">
<circle cx="28500" cy="41500" r="334.646" /> 
<circle cx="28500" cy="42500" r="334.646" /> 
<circle cx="28500" cy="43500" r="334.646" /> 
<circle cx="28500" cy="44500" r="334.646" /> 
<circle cx="28500" cy="45500" r="334.646" /> 
<path style="fill:#000000; fill-opacity:1.0; 
stroke:#000000; stroke-width:0; stroke-opacity:1; 
stroke-linecap:round; stroke-linejoin:round;fill-rule:evenodd;"
d="M 28834.6,46165.4
28834.6,46834.6
28165.4,46834.6
28165.4,46165.4
Z" /> 
</g>
<g >
</g>
<g style="fill:#000000; fill-opacity:1.0; 
stroke:#000000; stroke-width:0; stroke-opacity:1; 
stroke-linecap:round; stroke-linejoin:round;">
<circle cx="50500" cy="47500" r="334.646" /> 
<circle cx="50500" cy="46500" r="334.646" /> 
<circle cx="50500" cy="45500" r="334.646" /> 
<circle cx="50500" cy="44500" r="334.646" /> 
<circle cx="50500" cy="43500" r="334.646" /> 
<circle cx="50500" cy="42500" r="334.646" /> 
<path style="fill:#000000; fill-opacity:1.0; 
stroke:#000000; stroke-width:0; stroke-opacity:1; 
stroke-linecap:round; stroke-linejoin:round;fill-rule:evenodd;"
d="M 50165.4,41834.6
50165.4,41165.4
50834.6,41165.4
50834.6,41834.6
Z" /> 
</g>
<g >
</g>
<g style="fill:#000000; fill-opacity:1.0; 
stroke:#000000; stroke-width:0; stroke-opacity:1; 
stroke-linecap:round; stroke-linejoin:round;">
<circle cx="50500" cy="39500" r="334.646" /> 
<circle cx="50500" cy="38500" r="334.646" /> 
<circle cx="50500" cy="37500" r="334.646" /> 
<circle cx="50500" cy="36500" r="334.646" /> 
<circle cx="50500" cy="35500" r="334.646" /> 
<circle cx="50500" cy="34500" r="334.646" /> 
<path style="fill:#000000; fill-opacity:1.0; 
stroke:#000000; stroke-width:0; stroke-opacity:1; 
stroke-linecap:round; stroke-linejoin:round;fill-rule:evenodd;"
d="M 50165.4,33834.6
50165.4,33165.4
50834.6,33165.4
50834.6,33834.6
Z" /> 
</g>
<g >
</g>
<g style="fill:#000000; fill-opacity:1.0; 
stroke:#000000; stroke-width:0; stroke-opacity:1; 
stroke-linecap:round; stroke-linejoin:round;">
<circle cx="32000" cy="49000" r="334.646" /> 
<circle cx="33000" cy="49000" r="334.646" /> 
<path style="fill:#000000; fill-opacity:1.0; 
stroke:#000000; stroke-width:0; stroke-opacity:1; 
stroke-linecap:round; stroke-linejoin:round;fill-rule:evenodd;"
d="M 33665.4,48665.4
34334.6,48665.4
34334.6,49334.6
33665.4,49334.6
Z" /> 
</g>
<g >
</g>
<g style="fill:#000000; fill-opacity:1.0; 
stroke:#000000; stroke-width:0; stroke-opacity:1; 
stroke-linecap:round; stroke-linejoin:round;">
<circle cx="36000" cy="49000" r="334.646" /> 
<circle cx="37000" cy="49000" r="334.646" /> 
<path style="fill:#000000; fill-opacity:1.0; 
stroke:#000000; stroke-width:0; stroke-opacity:1; 
stroke-linecap:round; stroke-linejoin:round;fill-rule:evenodd;"
d="M 37665.4,48665.4
38334.6,48665.4
38334.6,49334.6
37665.4,49334.6
Z" /> 
</g>
<g >
</g>
<g style="fill:#000000; fill-opacity:1.0; 
stroke:#000000; stroke-width:0; stroke-opacity:1; 
stroke-linecap:round; stroke-linejoin:round;">
<circle cx="40000" cy="49000" r="334.646" /> 
<circle cx="41000" cy="49000" r="334.646" /> 
<path style="fill:#000000; fill-opacity:1.0; 
stroke:#000000; stroke-width:0; stroke-opacity:1; 
stroke-linecap:round; stroke-linejoin:round;fill-rule:evenodd;"
d="M 41665.4,48665.4
42334.6,48665.4
42334.6,49334.6
41665.4,49334.6
Z" /> 
</g>
<g >
</g>
<g style="fill:#000000; fill-opacity:1.0; 
stroke:#000000; stroke-width:0; stroke-opacity:1; 
stroke-linecap:round; stroke-linejoin:round;">
<circle cx="44000" cy="49000" r="334.646" /> 
<circle cx="45000" cy="49000" r="334.646" /> 
<path style="fill:#000000; fill-opacity:1.0; 
stroke:#000000; stroke-width:0; stroke-opacity:1; 
stroke-linecap:round; stroke-linejoin:round;fill-rule:evenodd;"
d="M 45665.4,48665.4
46334.6,48665.4
46334.6,49334.6
45665.4,49334.6
Z" /> 
</g>
<g >
</g>
<g >
</g>
<g style="fill:#000000; fill-opacity:1.0; 
stroke:#000000; stroke-width:0; stroke-opacity:1; 
stroke-linecap:round; stroke-linejoin:round;">
<path style="fill:#000000; fill-opacity:1.0; 
stroke:#000000; stroke-width:0; stroke-opacity:1; 
stroke-linecap:round; stroke-linejoin:round;fill-rule:evenodd;"
d="M 30236.3,35724.9
30245.6,35726.3
30254.7,35728.5
30263.6,35731.7
30272.1,35735.7
30280.2,35740.6
30287.7,35746.2
30294.7,35752.5
30301.1,35759.5
30306.7,35767.1
30311.5,35775.1
30315.5,35783.7
30318.7,35792.5
30321,35801.7
30322.4,35811
30322.8,35820.4
30322.8,36179.6
30322.4,36189
30321,36198.3
30318.7,36207.5
30315.5,36216.3
30311.5,36224.9
30306.7,36232.9
30301.1,36240.5
30294.7,36247.5
30287.7,36253.8
30280.2,36259.4
30272.1,36264.3
30263.6,36268.3
30254.7,36271.5
30245.6,36273.7
30236.3,36275.1
30226.9,36275.6
30034.9,36275.6
30025.5,36275.1
30016.2,36273.7
30007.1,36271.5
29998.2,36268.3
29989.7,36264.3
29981.6,36259.4
29974.1,36253.8
29967.1,36247.5
29960.8,36240.5
29955.1,36232.9
29950.3,36224.9
29946.3,36216.3
29943.1,36207.5
29940.8,36198.3
29939.4,36189
29939,36179.6
29939,35820.4
29939.4,35811
29940.8,35801.7
29943.1,35792.5
29946.3,35783.7
29950.3,35775.1
29955.1,35767.1
29960.8,35759.5
29967.1,35752.5
29974.1,35746.2
29981.6,35740.6
29989.7,35735.7
29998.2,35731.7
30007.1,35728.5
30016.2,35726.3
30025.5,35724.9
30034.9,35724.4
30226.9,35724.4
Z" /> 
<path style="fill:#000000; fill-opacity:1.0; 
stroke:#000000; stroke-width:0; stroke-opacity:1; 
stroke-linecap:round; stroke-linejoin:round;fill-rule:evenodd;"
d="M 30974.5,35724.9
30983.8,35726.3
30992.9,35728.5
31001.8,35731.7
31010.3,35735.7
31018.4,35740.6
31025.9,35746.2
31032.9,35752.5
31039.2,35759.5
31044.9,35767.1
31049.7,35775.1
31053.7,35783.7
31056.9,35792.5
31059.2,35801.7
31060.6,35811
31061,35820.4
31061,36179.6
31060.6,36189
31059.2,36198.3
31056.9,36207.5
31053.7,36216.3
31049.7,36224.9
31044.9,36232.9
31039.2,36240.5
31032.9,36247.5
31025.9,36253.8
31018.4,36259.4
31010.3,36264.3
31001.8,36268.3
30992.9,36271.5
30983.8,36273.7
30974.5,36275.1
30965.1,36275.6
30773.1,36275.6
30763.7,36275.1
30754.4,36273.7
30745.3,36271.5
30736.4,36268.3
30727.9,36264.3
30719.8,36259.4
30712.3,36253.8
30705.3,36247.5
30698.9,36240.5
30693.3,36232.9
30688.5,36224.9
30684.5,36216.3
30681.3,36207.5
30679,36198.3
30677.6,36189
30677.2,36179.6
30677.2,35820.4
30677.6,35811
30679,35801.7
30681.3,35792.5
30684.5,35783.7
30688.5,35775.1
30693.3,35767.1
30698.9,35759.5
30705.3,35752.5
30712.3,35746.2
30719.8,35740.6
30727.9,35735.7
30736.4,35731.7
30745.3,35728.5
30754.4,35726.3
30763.7,35724.9
30773.1,35724.4
30965.1,35724.4
Z" /> 
</g>
<g >
</g>
<g >
</g>
<g >
</g>
<g >
</g>
<g style="fill:#000000; fill-opacity:1.0; 
stroke:#000000; stroke-width:0; stroke-opacity:1; 
stroke-linecap:round; stroke-linejoin:round;">
<path style="fill:#000000; fill-opacity:1.0; 
stroke:#000000; stroke-width:0; stroke-opacity:1; 
stroke-linecap:round; stroke-linejoin:round;fill-rule:evenodd;"
d="M 41974.5,33474.9
41983.8,33476.3
41992.9,33478.5
42001.8,33481.7
42010.3,33485.7
42018.4,33490.6
42025.9,33496.2
42032.9,33502.5
42039.2,33509.5
42044.9,33517.1
42049.7,33525.1
42053.7,33533.7
42056.9,33542.5
42059.2,33551.7
42060.6,33561
42061,33570.4
42061,33929.6
42060.6,33939
42059.2,33948.3
42056.9,33957.5
42053.7,33966.3
42049.7,33974.9
42044.9,33982.9
42039.2,33990.5
42032.9,33997.5
42025.9,34003.8
42018.4,34009.4
42010.3,34014.3
42001.8,34018.3
41992.9,34021.5
41983.8,34023.7
41974.5,34025.1
41965.1,34025.6
41773.1,34025.6
41763.7,34025.1
41754.4,34023.7
41745.3,34021.5
41736.4,34018.3
41727.9,34014.3
41719.8,34009.4
41712.3,34003.8
41705.3,33997.5
41698.9,33990.5
41693.3,33982.9
41688.5,33974.9
41684.5,33966.3
41681.3,33957.5
41679,33948.3
41677.6,33939
41677.2,33929.6
41677.2,33570.4
41677.6,33561
41679,33551.7
41681.3,33542.5
41684.5,33533.7
41688.5,33525.1
41693.3,33517.1
41698.9,33509.5
41705.3,33502.5
41712.3,33496.2
41719.8,33490.6
41727.9,33485.7
41736.4,33481.7
41745.3,33478.5
41754.4,33476.3
41763.7,33474.9
41773.1,33474.4
41965.1,33474.4
Z" /> 
<path style="fill:#000000; fill-opacity:1.0; 
stroke:#000000; stroke-width:0; stroke-opacity:1; 
stroke-linecap:round; stroke-linejoin:round;fill-rule:evenodd;"
d="M 41236.3,33474.9
41245.6,33476.3
41254.7,33478.5
41263.6,33481.7
41272.1,33485.7
41280.2,33490.6
41287.7,33496.2
41294.7,33502.5
41301.1,33509.5
41306.7,33517.1
41311.5,33525.1
41315.5,33533.7
41318.7,33542.5
41321,33551.7
41322.4,33561
41322.8,33570.4
41322.8,33929.6
41322.4,33939
41321,33948.3
41318.7,33957.5
41315.5,33966.3
41311.5,33974.9
41306.7,33982.9
41301.1,33990.5
41294.7,33997.5
41287.7,34003.8
41280.2,34009.4
41272.1,34014.3
41263.6,34018.3
41254.7,34021.5
41245.6,34023.7
41236.3,34025.1
41226.9,34025.6
41034.9,34025.6
41025.5,34025.1
41016.2,34023.7
41007.1,34021.5
40998.2,34018.3
40989.7,34014.3
40981.6,34009.4
40974.1,34003.8
40967.1,33997.5
40960.8,33990.5
40955.1,33982.9
40950.3,33974.9
40946.3,33966.3
40943.1,33957.5
40940.8,33948.3
40939.4,33939
40939,33929.6
40939,33570.4
40939.4,33561
40940.8,33551.7
40943.1,33542.5
40946.3,33533.7
40950.3,33525.1
40955.1,33517.1
40960.8,33509.5
40967.1,33502.5
40974.1,33496.2
40981.6,33490.6
40989.7,33485.7
40998.2,33481.7
41007.1,33478.5
41016.2,33476.3
41025.5,33474.9
41034.9,33474.4
41226.9,33474.4
Z" /> 
</g>
<g >
</g>
<g >
</g>
<g >
</g>
</g> 
</svg>
