G04 #@! TF.GenerationSoftware,KiCad,Pcbnew,9.0.4-9.0.4-0~ubuntu24.04.1*
G04 #@! TF.CreationDate,2025-08-30T18:29:49-07:00*
G04 #@! TF.ProjectId,2025-pmod-sma,32303235-2d70-46d6-9f64-2d736d612e6b,rev?*
G04 #@! TF.SameCoordinates,Original*
G04 #@! TF.FileFunction,Legend,Bot*
G04 #@! TF.FilePolarity,Positive*
%FSLAX46Y46*%
G04 Gerber Fmt 4.6, Leading zero omitted, Abs format (unit mm)*
G04 Created by KiCad (PCBNEW 9.0.4-9.0.4-0~ubuntu24.04.1) date 2025-08-30 18:29:49*
%MOMM*%
%LPD*%
G01*
G04 APERTURE LIST*
%ADD10C,0.200000*%
G04 APERTURE END LIST*
D10*
X127596385Y-112170000D02*
X127524957Y-112241428D01*
X127524957Y-112241428D02*
X127453528Y-112384286D01*
X127453528Y-112384286D02*
X127453528Y-112741428D01*
X127453528Y-112741428D02*
X127524957Y-112884286D01*
X127524957Y-112884286D02*
X127596385Y-112955714D01*
X127596385Y-112955714D02*
X127739242Y-113027143D01*
X127739242Y-113027143D02*
X127882100Y-113027143D01*
X127882100Y-113027143D02*
X128096385Y-112955714D01*
X128096385Y-112955714D02*
X128953528Y-112098571D01*
X128953528Y-112098571D02*
X128953528Y-113027143D01*
X127453528Y-113955714D02*
X127453528Y-114098571D01*
X127453528Y-114098571D02*
X127524957Y-114241428D01*
X127524957Y-114241428D02*
X127596385Y-114312857D01*
X127596385Y-114312857D02*
X127739242Y-114384285D01*
X127739242Y-114384285D02*
X128024957Y-114455714D01*
X128024957Y-114455714D02*
X128382100Y-114455714D01*
X128382100Y-114455714D02*
X128667814Y-114384285D01*
X128667814Y-114384285D02*
X128810671Y-114312857D01*
X128810671Y-114312857D02*
X128882100Y-114241428D01*
X128882100Y-114241428D02*
X128953528Y-114098571D01*
X128953528Y-114098571D02*
X128953528Y-113955714D01*
X128953528Y-113955714D02*
X128882100Y-113812857D01*
X128882100Y-113812857D02*
X128810671Y-113741428D01*
X128810671Y-113741428D02*
X128667814Y-113669999D01*
X128667814Y-113669999D02*
X128382100Y-113598571D01*
X128382100Y-113598571D02*
X128024957Y-113598571D01*
X128024957Y-113598571D02*
X127739242Y-113669999D01*
X127739242Y-113669999D02*
X127596385Y-113741428D01*
X127596385Y-113741428D02*
X127524957Y-113812857D01*
X127524957Y-113812857D02*
X127453528Y-113955714D01*
X127596385Y-115027142D02*
X127524957Y-115098570D01*
X127524957Y-115098570D02*
X127453528Y-115241428D01*
X127453528Y-115241428D02*
X127453528Y-115598570D01*
X127453528Y-115598570D02*
X127524957Y-115741428D01*
X127524957Y-115741428D02*
X127596385Y-115812856D01*
X127596385Y-115812856D02*
X127739242Y-115884285D01*
X127739242Y-115884285D02*
X127882100Y-115884285D01*
X127882100Y-115884285D02*
X128096385Y-115812856D01*
X128096385Y-115812856D02*
X128953528Y-114955713D01*
X128953528Y-114955713D02*
X128953528Y-115884285D01*
X127453528Y-117241427D02*
X127453528Y-116527141D01*
X127453528Y-116527141D02*
X128167814Y-116455713D01*
X128167814Y-116455713D02*
X128096385Y-116527141D01*
X128096385Y-116527141D02*
X128024957Y-116669999D01*
X128024957Y-116669999D02*
X128024957Y-117027141D01*
X128024957Y-117027141D02*
X128096385Y-117169999D01*
X128096385Y-117169999D02*
X128167814Y-117241427D01*
X128167814Y-117241427D02*
X128310671Y-117312856D01*
X128310671Y-117312856D02*
X128667814Y-117312856D01*
X128667814Y-117312856D02*
X128810671Y-117241427D01*
X128810671Y-117241427D02*
X128882100Y-117169999D01*
X128882100Y-117169999D02*
X128953528Y-117027141D01*
X128953528Y-117027141D02*
X128953528Y-116669999D01*
X128953528Y-116669999D02*
X128882100Y-116527141D01*
X128882100Y-116527141D02*
X128810671Y-116455713D01*
X128382100Y-117955712D02*
X128382100Y-119098570D01*
X127953528Y-119812855D02*
X129453528Y-119812855D01*
X128024957Y-119812855D02*
X127953528Y-119955713D01*
X127953528Y-119955713D02*
X127953528Y-120241427D01*
X127953528Y-120241427D02*
X128024957Y-120384284D01*
X128024957Y-120384284D02*
X128096385Y-120455713D01*
X128096385Y-120455713D02*
X128239242Y-120527141D01*
X128239242Y-120527141D02*
X128667814Y-120527141D01*
X128667814Y-120527141D02*
X128810671Y-120455713D01*
X128810671Y-120455713D02*
X128882100Y-120384284D01*
X128882100Y-120384284D02*
X128953528Y-120241427D01*
X128953528Y-120241427D02*
X128953528Y-119955713D01*
X128953528Y-119955713D02*
X128882100Y-119812855D01*
X128953528Y-121169998D02*
X127953528Y-121169998D01*
X128096385Y-121169998D02*
X128024957Y-121241427D01*
X128024957Y-121241427D02*
X127953528Y-121384284D01*
X127953528Y-121384284D02*
X127953528Y-121598570D01*
X127953528Y-121598570D02*
X128024957Y-121741427D01*
X128024957Y-121741427D02*
X128167814Y-121812856D01*
X128167814Y-121812856D02*
X128953528Y-121812856D01*
X128167814Y-121812856D02*
X128024957Y-121884284D01*
X128024957Y-121884284D02*
X127953528Y-122027141D01*
X127953528Y-122027141D02*
X127953528Y-122241427D01*
X127953528Y-122241427D02*
X128024957Y-122384284D01*
X128024957Y-122384284D02*
X128167814Y-122455713D01*
X128167814Y-122455713D02*
X128953528Y-122455713D01*
X128953528Y-123384284D02*
X128882100Y-123241427D01*
X128882100Y-123241427D02*
X128810671Y-123169998D01*
X128810671Y-123169998D02*
X128667814Y-123098570D01*
X128667814Y-123098570D02*
X128239242Y-123098570D01*
X128239242Y-123098570D02*
X128096385Y-123169998D01*
X128096385Y-123169998D02*
X128024957Y-123241427D01*
X128024957Y-123241427D02*
X127953528Y-123384284D01*
X127953528Y-123384284D02*
X127953528Y-123598570D01*
X127953528Y-123598570D02*
X128024957Y-123741427D01*
X128024957Y-123741427D02*
X128096385Y-123812856D01*
X128096385Y-123812856D02*
X128239242Y-123884284D01*
X128239242Y-123884284D02*
X128667814Y-123884284D01*
X128667814Y-123884284D02*
X128810671Y-123812856D01*
X128810671Y-123812856D02*
X128882100Y-123741427D01*
X128882100Y-123741427D02*
X128953528Y-123598570D01*
X128953528Y-123598570D02*
X128953528Y-123384284D01*
X128953528Y-125169999D02*
X127453528Y-125169999D01*
X128882100Y-125169999D02*
X128953528Y-125027141D01*
X128953528Y-125027141D02*
X128953528Y-124741427D01*
X128953528Y-124741427D02*
X128882100Y-124598570D01*
X128882100Y-124598570D02*
X128810671Y-124527141D01*
X128810671Y-124527141D02*
X128667814Y-124455713D01*
X128667814Y-124455713D02*
X128239242Y-124455713D01*
X128239242Y-124455713D02*
X128096385Y-124527141D01*
X128096385Y-124527141D02*
X128024957Y-124598570D01*
X128024957Y-124598570D02*
X127953528Y-124741427D01*
X127953528Y-124741427D02*
X127953528Y-125027141D01*
X127953528Y-125027141D02*
X128024957Y-125169999D01*
X128382100Y-125884284D02*
X128382100Y-127027142D01*
X128882100Y-127669999D02*
X128953528Y-127812856D01*
X128953528Y-127812856D02*
X128953528Y-128098570D01*
X128953528Y-128098570D02*
X128882100Y-128241427D01*
X128882100Y-128241427D02*
X128739242Y-128312856D01*
X128739242Y-128312856D02*
X128667814Y-128312856D01*
X128667814Y-128312856D02*
X128524957Y-128241427D01*
X128524957Y-128241427D02*
X128453528Y-128098570D01*
X128453528Y-128098570D02*
X128453528Y-127884285D01*
X128453528Y-127884285D02*
X128382100Y-127741427D01*
X128382100Y-127741427D02*
X128239242Y-127669999D01*
X128239242Y-127669999D02*
X128167814Y-127669999D01*
X128167814Y-127669999D02*
X128024957Y-127741427D01*
X128024957Y-127741427D02*
X127953528Y-127884285D01*
X127953528Y-127884285D02*
X127953528Y-128098570D01*
X127953528Y-128098570D02*
X128024957Y-128241427D01*
X128953528Y-128955713D02*
X127953528Y-128955713D01*
X128096385Y-128955713D02*
X128024957Y-129027142D01*
X128024957Y-129027142D02*
X127953528Y-129169999D01*
X127953528Y-129169999D02*
X127953528Y-129384285D01*
X127953528Y-129384285D02*
X128024957Y-129527142D01*
X128024957Y-129527142D02*
X128167814Y-129598571D01*
X128167814Y-129598571D02*
X128953528Y-129598571D01*
X128167814Y-129598571D02*
X128024957Y-129669999D01*
X128024957Y-129669999D02*
X127953528Y-129812856D01*
X127953528Y-129812856D02*
X127953528Y-130027142D01*
X127953528Y-130027142D02*
X128024957Y-130169999D01*
X128024957Y-130169999D02*
X128167814Y-130241428D01*
X128167814Y-130241428D02*
X128953528Y-130241428D01*
X128953528Y-131598571D02*
X128167814Y-131598571D01*
X128167814Y-131598571D02*
X128024957Y-131527142D01*
X128024957Y-131527142D02*
X127953528Y-131384285D01*
X127953528Y-131384285D02*
X127953528Y-131098571D01*
X127953528Y-131098571D02*
X128024957Y-130955713D01*
X128882100Y-131598571D02*
X128953528Y-131455713D01*
X128953528Y-131455713D02*
X128953528Y-131098571D01*
X128953528Y-131098571D02*
X128882100Y-130955713D01*
X128882100Y-130955713D02*
X128739242Y-130884285D01*
X128739242Y-130884285D02*
X128596385Y-130884285D01*
X128596385Y-130884285D02*
X128453528Y-130955713D01*
X128453528Y-130955713D02*
X128382100Y-131098571D01*
X128382100Y-131098571D02*
X128382100Y-131455713D01*
X128382100Y-131455713D02*
X128310671Y-131598571D01*
X131422100Y-112232858D02*
X131493528Y-112447144D01*
X131493528Y-112447144D02*
X131493528Y-112804286D01*
X131493528Y-112804286D02*
X131422100Y-112947144D01*
X131422100Y-112947144D02*
X131350671Y-113018572D01*
X131350671Y-113018572D02*
X131207814Y-113090001D01*
X131207814Y-113090001D02*
X131064957Y-113090001D01*
X131064957Y-113090001D02*
X130922100Y-113018572D01*
X130922100Y-113018572D02*
X130850671Y-112947144D01*
X130850671Y-112947144D02*
X130779242Y-112804286D01*
X130779242Y-112804286D02*
X130707814Y-112518572D01*
X130707814Y-112518572D02*
X130636385Y-112375715D01*
X130636385Y-112375715D02*
X130564957Y-112304286D01*
X130564957Y-112304286D02*
X130422100Y-112232858D01*
X130422100Y-112232858D02*
X130279242Y-112232858D01*
X130279242Y-112232858D02*
X130136385Y-112304286D01*
X130136385Y-112304286D02*
X130064957Y-112375715D01*
X130064957Y-112375715D02*
X129993528Y-112518572D01*
X129993528Y-112518572D02*
X129993528Y-112875715D01*
X129993528Y-112875715D02*
X130064957Y-113090001D01*
X131422100Y-114304286D02*
X131493528Y-114161429D01*
X131493528Y-114161429D02*
X131493528Y-113875715D01*
X131493528Y-113875715D02*
X131422100Y-113732857D01*
X131422100Y-113732857D02*
X131279242Y-113661429D01*
X131279242Y-113661429D02*
X130707814Y-113661429D01*
X130707814Y-113661429D02*
X130564957Y-113732857D01*
X130564957Y-113732857D02*
X130493528Y-113875715D01*
X130493528Y-113875715D02*
X130493528Y-114161429D01*
X130493528Y-114161429D02*
X130564957Y-114304286D01*
X130564957Y-114304286D02*
X130707814Y-114375715D01*
X130707814Y-114375715D02*
X130850671Y-114375715D01*
X130850671Y-114375715D02*
X130993528Y-113661429D01*
X130493528Y-115018571D02*
X131993528Y-115018571D01*
X130564957Y-115018571D02*
X130493528Y-115161429D01*
X130493528Y-115161429D02*
X130493528Y-115447143D01*
X130493528Y-115447143D02*
X130564957Y-115590000D01*
X130564957Y-115590000D02*
X130636385Y-115661429D01*
X130636385Y-115661429D02*
X130779242Y-115732857D01*
X130779242Y-115732857D02*
X131207814Y-115732857D01*
X131207814Y-115732857D02*
X131350671Y-115661429D01*
X131350671Y-115661429D02*
X131422100Y-115590000D01*
X131422100Y-115590000D02*
X131493528Y-115447143D01*
X131493528Y-115447143D02*
X131493528Y-115161429D01*
X131493528Y-115161429D02*
X131422100Y-115018571D01*
X130136385Y-116304286D02*
X130064957Y-116375714D01*
X130064957Y-116375714D02*
X129993528Y-116518572D01*
X129993528Y-116518572D02*
X129993528Y-116875714D01*
X129993528Y-116875714D02*
X130064957Y-117018572D01*
X130064957Y-117018572D02*
X130136385Y-117090000D01*
X130136385Y-117090000D02*
X130279242Y-117161429D01*
X130279242Y-117161429D02*
X130422100Y-117161429D01*
X130422100Y-117161429D02*
X130636385Y-117090000D01*
X130636385Y-117090000D02*
X131493528Y-116232857D01*
X131493528Y-116232857D02*
X131493528Y-117161429D01*
X129993528Y-118090000D02*
X129993528Y-118232857D01*
X129993528Y-118232857D02*
X130064957Y-118375714D01*
X130064957Y-118375714D02*
X130136385Y-118447143D01*
X130136385Y-118447143D02*
X130279242Y-118518571D01*
X130279242Y-118518571D02*
X130564957Y-118590000D01*
X130564957Y-118590000D02*
X130922100Y-118590000D01*
X130922100Y-118590000D02*
X131207814Y-118518571D01*
X131207814Y-118518571D02*
X131350671Y-118447143D01*
X131350671Y-118447143D02*
X131422100Y-118375714D01*
X131422100Y-118375714D02*
X131493528Y-118232857D01*
X131493528Y-118232857D02*
X131493528Y-118090000D01*
X131493528Y-118090000D02*
X131422100Y-117947143D01*
X131422100Y-117947143D02*
X131350671Y-117875714D01*
X131350671Y-117875714D02*
X131207814Y-117804285D01*
X131207814Y-117804285D02*
X130922100Y-117732857D01*
X130922100Y-117732857D02*
X130564957Y-117732857D01*
X130564957Y-117732857D02*
X130279242Y-117804285D01*
X130279242Y-117804285D02*
X130136385Y-117875714D01*
X130136385Y-117875714D02*
X130064957Y-117947143D01*
X130064957Y-117947143D02*
X129993528Y-118090000D01*
X130136385Y-119161428D02*
X130064957Y-119232856D01*
X130064957Y-119232856D02*
X129993528Y-119375714D01*
X129993528Y-119375714D02*
X129993528Y-119732856D01*
X129993528Y-119732856D02*
X130064957Y-119875714D01*
X130064957Y-119875714D02*
X130136385Y-119947142D01*
X130136385Y-119947142D02*
X130279242Y-120018571D01*
X130279242Y-120018571D02*
X130422100Y-120018571D01*
X130422100Y-120018571D02*
X130636385Y-119947142D01*
X130636385Y-119947142D02*
X131493528Y-119089999D01*
X131493528Y-119089999D02*
X131493528Y-120018571D01*
X129993528Y-121375713D02*
X129993528Y-120661427D01*
X129993528Y-120661427D02*
X130707814Y-120589999D01*
X130707814Y-120589999D02*
X130636385Y-120661427D01*
X130636385Y-120661427D02*
X130564957Y-120804285D01*
X130564957Y-120804285D02*
X130564957Y-121161427D01*
X130564957Y-121161427D02*
X130636385Y-121304285D01*
X130636385Y-121304285D02*
X130707814Y-121375713D01*
X130707814Y-121375713D02*
X130850671Y-121447142D01*
X130850671Y-121447142D02*
X131207814Y-121447142D01*
X131207814Y-121447142D02*
X131350671Y-121375713D01*
X131350671Y-121375713D02*
X131422100Y-121304285D01*
X131422100Y-121304285D02*
X131493528Y-121161427D01*
X131493528Y-121161427D02*
X131493528Y-120804285D01*
X131493528Y-120804285D02*
X131422100Y-120661427D01*
X131422100Y-120661427D02*
X131350671Y-120589999D01*
M02*
