G04 #@! TF.GenerationSoftware,KiCad,Pcbnew,9.0.4-9.0.4-0~ubuntu24.04.1*
G04 #@! TF.CreationDate,2025-08-30T18:29:49-07:00*
G04 #@! TF.ProjectId,2025-pmod-sma,32303235-2d70-46d6-9f64-2d736d612e6b,rev?*
G04 #@! TF.SameCoordinates,Original*
G04 #@! TF.FileFunction,Copper,L1,Top*
G04 #@! TF.FilePolarity,Positive*
%FSLAX46Y46*%
G04 Gerber Fmt 4.6, Leading zero omitted, Abs format (unit mm)*
G04 Created by KiCad (PCBNEW 9.0.4-9.0.4-0~ubuntu24.04.1) date 2025-08-30 18:29:49*
%MOMM*%
%LPD*%
G01*
G04 APERTURE LIST*
G04 Aperture macros list*
%AMRoundRect*
0 Rectangle with rounded corners*
0 $1 Rounding radius*
0 $2 $3 $4 $5 $6 $7 $8 $9 X,Y pos of 4 corners*
0 Add a 4 corners polygon primitive as box body*
4,1,4,$2,$3,$4,$5,$6,$7,$8,$9,$2,$3,0*
0 Add four circle primitives for the rounded corners*
1,1,$1+$1,$2,$3*
1,1,$1+$1,$4,$5*
1,1,$1+$1,$6,$7*
1,1,$1+$1,$8,$9*
0 Add four rect primitives between the rounded corners*
20,1,$1+$1,$2,$3,$4,$5,0*
20,1,$1+$1,$4,$5,$6,$7,0*
20,1,$1+$1,$6,$7,$8,$9,0*
20,1,$1+$1,$8,$9,$2,$3,0*%
G04 Aperture macros list end*
G04 #@! TA.AperFunction,ComponentPad*
%ADD10RoundRect,0.850000X0.850000X0.000010X-0.850000X0.000010X-0.850000X-0.000010X0.850000X-0.000010X0*%
G04 #@! TD*
G04 #@! TA.AperFunction,ComponentPad*
%ADD11RoundRect,0.200100X0.949900X0.949900X-0.949900X0.949900X-0.949900X-0.949900X0.949900X-0.949900X0*%
G04 #@! TD*
G04 #@! TA.AperFunction,ComponentPad*
%ADD12C,2.500000*%
G04 #@! TD*
G04 #@! TA.AperFunction,ComponentPad*
%ADD13RoundRect,0.850000X-0.850000X-0.000010X0.850000X-0.000010X0.850000X0.000010X-0.850000X0.000010X0*%
G04 #@! TD*
G04 #@! TA.AperFunction,Conductor*
%ADD14C,0.300000*%
G04 #@! TD*
G04 APERTURE END LIST*
D10*
G04 #@! TO.P,J1,1,Pin_1*
G04 #@! TO.N,/A*
X111112500Y-115570000D03*
G04 #@! TO.P,J1,2,Pin_2*
G04 #@! TO.N,/B*
X111112500Y-118110000D03*
G04 #@! TO.P,J1,3,Pin_3*
G04 #@! TO.N,/C*
X111112500Y-120650000D03*
G04 #@! TO.P,J1,4,Pin_4*
G04 #@! TO.N,/D*
X111112500Y-123190000D03*
G04 #@! TO.P,J1,5,Pin_5*
G04 #@! TO.N,GND*
X111112500Y-125730000D03*
G04 #@! TO.P,J1,6,Pin_6*
G04 #@! TO.N,unconnected-(J1-Pin_6-Pad6)*
X111112500Y-128270000D03*
G04 #@! TO.P,J1,7,Pin_7*
G04 #@! TO.N,/E*
X115352500Y-115570000D03*
G04 #@! TO.P,J1,8,Pin_8*
G04 #@! TO.N,/F*
X115352500Y-118110000D03*
G04 #@! TO.P,J1,9,Pin_9*
G04 #@! TO.N,/G*
X115352500Y-120650000D03*
G04 #@! TO.P,J1,10,Pin_10*
G04 #@! TO.N,/H*
X115352500Y-123190000D03*
G04 #@! TO.P,J1,11,Pin_11*
G04 #@! TO.N,GND*
X115352500Y-125730000D03*
G04 #@! TO.P,J1,12,Pin_12*
G04 #@! TO.N,unconnected-(J1-Pin_12-Pad12)*
X115352500Y-128270000D03*
G04 #@! TD*
D11*
G04 #@! TO.P,J3,1,Pin_1*
G04 #@! TO.N,Net-(J2-Pin_10)*
X133350000Y-128230000D03*
D12*
G04 #@! TO.P,J3,2,Pin_2*
G04 #@! TO.N,GND*
X135890000Y-130770000D03*
X135890000Y-125690000D03*
X130810000Y-130770000D03*
X130810000Y-125690000D03*
G04 #@! TD*
D13*
G04 #@! TO.P,J2,1,Pin_1*
G04 #@! TO.N,/A*
X121070000Y-113030000D03*
G04 #@! TO.P,J2,2,Pin_2*
G04 #@! TO.N,/B*
X121070000Y-115570000D03*
G04 #@! TO.P,J2,3,Pin_3*
G04 #@! TO.N,/C*
X121070000Y-118110000D03*
G04 #@! TO.P,J2,4,Pin_4*
G04 #@! TO.N,/D*
X121070000Y-120650000D03*
G04 #@! TO.P,J2,5,Pin_5*
G04 #@! TO.N,/E*
X121070000Y-123190000D03*
G04 #@! TO.P,J2,6,Pin_6*
G04 #@! TO.N,/F*
X121070000Y-125730000D03*
G04 #@! TO.P,J2,7,Pin_7*
G04 #@! TO.N,/G*
X121070000Y-128270000D03*
G04 #@! TO.P,J2,8,Pin_8*
G04 #@! TO.N,/H*
X121070000Y-130810000D03*
G04 #@! TO.P,J2,9,Pin_9*
G04 #@! TO.N,Net-(J2-Pin_10)*
X125310000Y-113030000D03*
G04 #@! TO.P,J2,10,Pin_10*
X125310000Y-115570000D03*
G04 #@! TO.P,J2,11,Pin_11*
X125310000Y-118110000D03*
G04 #@! TO.P,J2,12,Pin_12*
X125310000Y-120650000D03*
G04 #@! TO.P,J2,13,Pin_13*
X125310000Y-123190000D03*
G04 #@! TO.P,J2,14,Pin_14*
X125310000Y-125730000D03*
G04 #@! TO.P,J2,15,Pin_15*
X125310000Y-128270000D03*
G04 #@! TO.P,J2,16,Pin_16*
X125310000Y-130810000D03*
G04 #@! TD*
D14*
G04 #@! TO.N,/C*
X111962500Y-120650000D02*
X113251500Y-119361000D01*
X116859000Y-119361000D02*
X118110000Y-118110000D01*
X118110000Y-118110000D02*
X121920000Y-118110000D01*
X113251500Y-119361000D02*
X116859000Y-119361000D01*
G04 #@! TO.N,/B*
X118110000Y-115570000D02*
X116821000Y-116859000D01*
X116821000Y-116859000D02*
X113213500Y-116859000D01*
X113213500Y-116859000D02*
X111962500Y-118110000D01*
X121920000Y-115570000D02*
X118110000Y-115570000D01*
G04 #@! TO.N,/E*
X123171000Y-115044730D02*
X122426270Y-114300000D01*
X122426270Y-114300000D02*
X115772500Y-114300000D01*
X123171000Y-121939000D02*
X123171000Y-115044730D01*
X115772500Y-114300000D02*
X114502500Y-115570000D01*
X121920000Y-123190000D02*
X123171000Y-121939000D01*
G04 #@! TO.N,/A*
X111962500Y-115570000D02*
X114502500Y-113030000D01*
X114502500Y-113030000D02*
X121920000Y-113030000D01*
G04 #@! TO.N,/D*
X116820999Y-121939001D02*
X113213499Y-121939001D01*
X118110000Y-120650000D02*
X116820999Y-121939001D01*
X121920000Y-120650000D02*
X118110000Y-120650000D01*
X113213499Y-121939001D02*
X111962500Y-123190000D01*
G04 #@! TD*
G04 #@! TA.AperFunction,Conductor*
G04 #@! TO.N,GND*
G36*
X136703736Y-110990726D02*
G01*
X136993796Y-111008271D01*
X137008659Y-111010076D01*
X137290798Y-111061780D01*
X137305335Y-111065363D01*
X137579172Y-111150695D01*
X137593163Y-111156000D01*
X137854743Y-111273727D01*
X137867989Y-111280680D01*
X138113465Y-111429075D01*
X138125776Y-111437573D01*
X138125792Y-111437585D01*
X138351573Y-111614473D01*
X138362781Y-111624403D01*
X138565596Y-111827218D01*
X138575526Y-111838426D01*
X138633811Y-111912821D01*
X138748899Y-112059721D01*
X138752422Y-112064217D01*
X138760926Y-112076537D01*
X138821973Y-112177521D01*
X138909316Y-112322004D01*
X138916275Y-112335263D01*
X139033997Y-112596831D01*
X139039306Y-112610832D01*
X139124635Y-112884663D01*
X139128219Y-112899201D01*
X139179923Y-113181340D01*
X139181728Y-113196205D01*
X139199274Y-113486263D01*
X139199500Y-113493750D01*
X139199500Y-130346249D01*
X139199274Y-130353736D01*
X139181728Y-130643794D01*
X139179923Y-130658659D01*
X139128219Y-130940798D01*
X139124635Y-130955336D01*
X139039306Y-131229167D01*
X139033997Y-131243168D01*
X138916275Y-131504736D01*
X138909316Y-131517995D01*
X138760928Y-131763459D01*
X138752422Y-131775782D01*
X138575526Y-132001573D01*
X138565596Y-132012781D01*
X138362781Y-132215596D01*
X138351573Y-132225526D01*
X138125782Y-132402422D01*
X138113459Y-132410928D01*
X137867995Y-132559316D01*
X137854736Y-132566275D01*
X137593168Y-132683997D01*
X137579167Y-132689306D01*
X137305336Y-132774635D01*
X137290798Y-132778219D01*
X137008659Y-132829923D01*
X136993794Y-132831728D01*
X136703736Y-132849274D01*
X136696249Y-132849500D01*
X111414817Y-132849500D01*
X111407212Y-132849499D01*
X111407209Y-132849499D01*
X111377020Y-132849499D01*
X111345063Y-132849499D01*
X111345062Y-132849498D01*
X111337579Y-132849273D01*
X111047519Y-132831730D01*
X111032654Y-132829925D01*
X110750522Y-132778224D01*
X110735989Y-132774642D01*
X110599060Y-132731975D01*
X110462138Y-132689309D01*
X110448137Y-132683999D01*
X110186573Y-132566280D01*
X110173314Y-132559321D01*
X109927849Y-132410933D01*
X109915526Y-132402427D01*
X109689737Y-132225535D01*
X109678529Y-132215606D01*
X109475704Y-132012783D01*
X109465774Y-132001574D01*
X109400509Y-131918270D01*
X109288876Y-131775781D01*
X109280378Y-131763470D01*
X109131978Y-131517988D01*
X109125029Y-131504746D01*
X109007302Y-131243168D01*
X109002003Y-131229198D01*
X108916660Y-130955322D01*
X108913081Y-130940800D01*
X108877468Y-130746469D01*
X108873710Y-130725962D01*
X119119500Y-130725962D01*
X119119500Y-130894038D01*
X119121484Y-130927360D01*
X119122312Y-130941250D01*
X119166984Y-131146602D01*
X119166987Y-131146613D01*
X119249718Y-131339808D01*
X119249720Y-131339811D01*
X119249721Y-131339813D01*
X119367523Y-131513865D01*
X119516135Y-131662477D01*
X119690187Y-131780279D01*
X119690189Y-131780280D01*
X119690191Y-131780281D01*
X119818987Y-131835435D01*
X119883388Y-131863013D01*
X119883396Y-131863014D01*
X119883397Y-131863015D01*
X120088749Y-131907687D01*
X120088750Y-131907687D01*
X120088755Y-131907688D01*
X120135962Y-131910500D01*
X120135973Y-131910500D01*
X122004027Y-131910500D01*
X122004038Y-131910500D01*
X122051245Y-131907688D01*
X122256612Y-131863013D01*
X122449813Y-131780279D01*
X122623865Y-131662477D01*
X122772477Y-131513865D01*
X122890279Y-131339813D01*
X122973013Y-131146612D01*
X123017688Y-130941245D01*
X123020500Y-130894038D01*
X123020500Y-130725962D01*
X123359500Y-130725962D01*
X123359500Y-130894038D01*
X123361484Y-130927360D01*
X123362312Y-130941250D01*
X123406984Y-131146602D01*
X123406987Y-131146613D01*
X123489718Y-131339808D01*
X123489720Y-131339811D01*
X123489721Y-131339813D01*
X123607523Y-131513865D01*
X123756135Y-131662477D01*
X123930187Y-131780279D01*
X123930189Y-131780280D01*
X123930191Y-131780281D01*
X124058987Y-131835435D01*
X124123388Y-131863013D01*
X124123396Y-131863014D01*
X124123397Y-131863015D01*
X124328749Y-131907687D01*
X124328750Y-131907687D01*
X124328755Y-131907688D01*
X124375962Y-131910500D01*
X124375973Y-131910500D01*
X126244027Y-131910500D01*
X126244038Y-131910500D01*
X126291245Y-131907688D01*
X126496612Y-131863013D01*
X126689813Y-131780279D01*
X126863865Y-131662477D01*
X127012477Y-131513865D01*
X127130279Y-131339813D01*
X127213013Y-131146612D01*
X127257688Y-130941245D01*
X127260500Y-130894038D01*
X127260500Y-130725962D01*
X127257688Y-130678755D01*
X127251856Y-130651947D01*
X129310000Y-130651947D01*
X129310000Y-130888052D01*
X129346934Y-131121247D01*
X129419897Y-131345802D01*
X129527087Y-131556175D01*
X129661728Y-131741493D01*
X129661729Y-131741494D01*
X130126377Y-131276846D01*
X130149762Y-131311844D01*
X130268156Y-131430238D01*
X130303152Y-131453621D01*
X129838504Y-131918269D01*
X129838505Y-131918270D01*
X130023825Y-132052912D01*
X130234197Y-132160102D01*
X130458752Y-132233065D01*
X130458751Y-132233065D01*
X130691948Y-132270000D01*
X130928052Y-132270000D01*
X131161247Y-132233065D01*
X131385802Y-132160102D01*
X131596174Y-132052912D01*
X131781493Y-131918271D01*
X131781494Y-131918269D01*
X131316846Y-131453622D01*
X131351844Y-131430238D01*
X131470238Y-131311844D01*
X131493622Y-131276846D01*
X131958269Y-131741494D01*
X131958271Y-131741493D01*
X132092912Y-131556174D01*
X132200102Y-131345802D01*
X132273065Y-131121247D01*
X132310000Y-130888052D01*
X132310000Y-130651947D01*
X134390000Y-130651947D01*
X134390000Y-130888052D01*
X134426934Y-131121247D01*
X134499897Y-131345802D01*
X134607087Y-131556175D01*
X134741728Y-131741493D01*
X134741728Y-131741494D01*
X135206376Y-131276845D01*
X135229762Y-131311844D01*
X135348156Y-131430238D01*
X135383152Y-131453621D01*
X134918504Y-131918269D01*
X134918505Y-131918270D01*
X135103825Y-132052912D01*
X135314197Y-132160102D01*
X135538752Y-132233065D01*
X135538751Y-132233065D01*
X135771948Y-132270000D01*
X136008052Y-132270000D01*
X136241247Y-132233065D01*
X136465802Y-132160102D01*
X136676174Y-132052912D01*
X136861493Y-131918271D01*
X136861494Y-131918269D01*
X136396846Y-131453622D01*
X136431844Y-131430238D01*
X136550238Y-131311844D01*
X136573622Y-131276847D01*
X137038269Y-131741494D01*
X137038271Y-131741493D01*
X137172912Y-131556174D01*
X137280102Y-131345802D01*
X137353065Y-131121247D01*
X137390000Y-130888052D01*
X137390000Y-130651947D01*
X137353065Y-130418752D01*
X137280102Y-130194197D01*
X137172912Y-129983825D01*
X137038270Y-129798505D01*
X137038269Y-129798504D01*
X136573621Y-130263152D01*
X136550238Y-130228156D01*
X136431844Y-130109762D01*
X136396846Y-130086377D01*
X136861494Y-129621729D01*
X136861493Y-129621728D01*
X136676175Y-129487087D01*
X136465802Y-129379897D01*
X136241247Y-129306934D01*
X136241248Y-129306934D01*
X136008052Y-129270000D01*
X135771948Y-129270000D01*
X135538752Y-129306934D01*
X135314197Y-129379897D01*
X135103830Y-129487084D01*
X134918505Y-129621729D01*
X135383153Y-130086377D01*
X135348156Y-130109762D01*
X135229762Y-130228156D01*
X135206377Y-130263153D01*
X134741729Y-129798505D01*
X134607084Y-129983830D01*
X134499897Y-130194197D01*
X134426934Y-130418752D01*
X134390000Y-130651947D01*
X132310000Y-130651947D01*
X132273065Y-130418752D01*
X132200102Y-130194197D01*
X132092912Y-129983825D01*
X131958270Y-129798505D01*
X131958269Y-129798504D01*
X131493621Y-130263152D01*
X131470238Y-130228156D01*
X131351844Y-130109762D01*
X131316846Y-130086377D01*
X131781494Y-129621729D01*
X131781493Y-129621728D01*
X131596175Y-129487087D01*
X131385802Y-129379897D01*
X131161247Y-129306934D01*
X131161248Y-129306934D01*
X130928052Y-129270000D01*
X130691948Y-129270000D01*
X130458752Y-129306934D01*
X130234197Y-129379897D01*
X130023830Y-129487084D01*
X129838505Y-129621729D01*
X130303153Y-130086377D01*
X130268156Y-130109762D01*
X130149762Y-130228156D01*
X130126377Y-130263153D01*
X129661729Y-129798505D01*
X129527084Y-129983830D01*
X129419897Y-130194197D01*
X129346934Y-130418752D01*
X129310000Y-130651947D01*
X127251856Y-130651947D01*
X127213013Y-130473388D01*
X127130279Y-130280187D01*
X127012477Y-130106135D01*
X126863865Y-129957523D01*
X126689813Y-129839721D01*
X126689810Y-129839719D01*
X126689806Y-129839717D01*
X126557302Y-129782976D01*
X126532529Y-129772367D01*
X126496613Y-129756987D01*
X126496602Y-129756984D01*
X126291250Y-129712312D01*
X126276492Y-129711433D01*
X126244038Y-129709500D01*
X124375962Y-129709500D01*
X124345416Y-129711319D01*
X124328749Y-129712312D01*
X124123397Y-129756984D01*
X124123386Y-129756987D01*
X123930191Y-129839718D01*
X123756137Y-129957521D01*
X123756132Y-129957525D01*
X123607525Y-130106132D01*
X123607521Y-130106137D01*
X123489718Y-130280191D01*
X123406987Y-130473386D01*
X123406984Y-130473397D01*
X123362312Y-130678749D01*
X123361319Y-130695416D01*
X123359500Y-130725962D01*
X123020500Y-130725962D01*
X123017688Y-130678755D01*
X123016531Y-130673438D01*
X122973015Y-130473397D01*
X122973012Y-130473386D01*
X122890281Y-130280191D01*
X122890280Y-130280189D01*
X122890279Y-130280187D01*
X122772477Y-130106135D01*
X122623865Y-129957523D01*
X122449813Y-129839721D01*
X122449811Y-129839720D01*
X122449808Y-129839718D01*
X122256613Y-129756987D01*
X122256602Y-129756984D01*
X122051250Y-129712312D01*
X122036492Y-129711433D01*
X122004038Y-129709500D01*
X120135962Y-129709500D01*
X120105416Y-129711319D01*
X120088749Y-129712312D01*
X119883397Y-129756984D01*
X119883386Y-129756987D01*
X119690191Y-129839718D01*
X119516137Y-129957521D01*
X119516132Y-129957525D01*
X119367525Y-130106132D01*
X119367521Y-130106137D01*
X119249718Y-130280191D01*
X119166987Y-130473386D01*
X119166984Y-130473397D01*
X119122312Y-130678749D01*
X119121319Y-130695416D01*
X119119500Y-130725962D01*
X108873710Y-130725962D01*
X108866438Y-130686282D01*
X108861375Y-130658659D01*
X108859571Y-130643796D01*
X108849263Y-130473388D01*
X108842046Y-130354066D01*
X108841820Y-130346579D01*
X108841820Y-128185962D01*
X109162000Y-128185962D01*
X109162000Y-128354038D01*
X109163984Y-128387360D01*
X109164812Y-128401250D01*
X109209484Y-128606602D01*
X109209487Y-128606613D01*
X109292218Y-128799808D01*
X109292220Y-128799811D01*
X109292221Y-128799813D01*
X109410023Y-128973865D01*
X109558635Y-129122477D01*
X109732687Y-129240279D01*
X109732689Y-129240280D01*
X109732691Y-129240281D01*
X109861487Y-129295435D01*
X109925888Y-129323013D01*
X109925896Y-129323014D01*
X109925897Y-129323015D01*
X110131249Y-129367687D01*
X110131250Y-129367687D01*
X110131255Y-129367688D01*
X110178462Y-129370500D01*
X110178473Y-129370500D01*
X112046527Y-129370500D01*
X112046538Y-129370500D01*
X112093745Y-129367688D01*
X112299112Y-129323013D01*
X112492313Y-129240279D01*
X112666365Y-129122477D01*
X112814977Y-128973865D01*
X112932779Y-128799813D01*
X113015513Y-128606612D01*
X113060188Y-128401245D01*
X113063000Y-128354038D01*
X113063000Y-128185962D01*
X113402000Y-128185962D01*
X113402000Y-128354038D01*
X113403984Y-128387360D01*
X113404812Y-128401250D01*
X113449484Y-128606602D01*
X113449487Y-128606613D01*
X113532218Y-128799808D01*
X113532220Y-128799811D01*
X113532221Y-128799813D01*
X113650023Y-128973865D01*
X113798635Y-129122477D01*
X113972687Y-129240279D01*
X113972689Y-129240280D01*
X113972691Y-129240281D01*
X114101487Y-129295435D01*
X114165888Y-129323013D01*
X114165896Y-129323014D01*
X114165897Y-129323015D01*
X114371249Y-129367687D01*
X114371250Y-129367687D01*
X114371255Y-129367688D01*
X114418462Y-129370500D01*
X114418473Y-129370500D01*
X116286527Y-129370500D01*
X116286538Y-129370500D01*
X116333745Y-129367688D01*
X116539112Y-129323013D01*
X116732313Y-129240279D01*
X116906365Y-129122477D01*
X117054977Y-128973865D01*
X117172779Y-128799813D01*
X117255513Y-128606612D01*
X117300188Y-128401245D01*
X117303000Y-128354038D01*
X117303000Y-128185962D01*
X119119500Y-128185962D01*
X119119500Y-128354038D01*
X119121484Y-128387360D01*
X119122312Y-128401250D01*
X119166984Y-128606602D01*
X119166987Y-128606613D01*
X119249718Y-128799808D01*
X119249720Y-128799811D01*
X119249721Y-128799813D01*
X119367523Y-128973865D01*
X119516135Y-129122477D01*
X119690187Y-129240279D01*
X119690189Y-129240280D01*
X119690191Y-129240281D01*
X119818987Y-129295435D01*
X119883388Y-129323013D01*
X119883396Y-129323014D01*
X119883397Y-129323015D01*
X120088749Y-129367687D01*
X120088750Y-129367687D01*
X120088755Y-129367688D01*
X120135962Y-129370500D01*
X120135973Y-129370500D01*
X122004027Y-129370500D01*
X122004038Y-129370500D01*
X122051245Y-129367688D01*
X122256612Y-129323013D01*
X122449813Y-129240279D01*
X122623865Y-129122477D01*
X122772477Y-128973865D01*
X122890279Y-128799813D01*
X122973013Y-128606612D01*
X123017688Y-128401245D01*
X123020500Y-128354038D01*
X123020500Y-128185962D01*
X123359500Y-128185962D01*
X123359500Y-128354038D01*
X123361484Y-128387360D01*
X123362312Y-128401250D01*
X123406984Y-128606602D01*
X123406987Y-128606613D01*
X123489718Y-128799808D01*
X123489720Y-128799811D01*
X123489721Y-128799813D01*
X123607523Y-128973865D01*
X123756135Y-129122477D01*
X123930187Y-129240279D01*
X123930189Y-129240280D01*
X123930191Y-129240281D01*
X124058987Y-129295435D01*
X124123388Y-129323013D01*
X124123396Y-129323014D01*
X124123397Y-129323015D01*
X124328749Y-129367687D01*
X124328750Y-129367687D01*
X124328755Y-129367688D01*
X124375962Y-129370500D01*
X124375973Y-129370500D01*
X126244027Y-129370500D01*
X126244038Y-129370500D01*
X126291245Y-129367688D01*
X126496612Y-129323013D01*
X126689813Y-129240279D01*
X126863865Y-129122477D01*
X127012477Y-128973865D01*
X127130279Y-128799813D01*
X127213013Y-128606612D01*
X127257688Y-128401245D01*
X127260500Y-128354038D01*
X127260500Y-128185962D01*
X127257688Y-128138755D01*
X127213013Y-127933388D01*
X127130279Y-127740187D01*
X127012477Y-127566135D01*
X126863865Y-127417523D01*
X126689813Y-127299721D01*
X126689811Y-127299720D01*
X126689808Y-127299718D01*
X126517224Y-127225813D01*
X131949500Y-127225813D01*
X131949500Y-129234186D01*
X131952353Y-129264614D01*
X131952353Y-129264616D01*
X131952354Y-129264618D01*
X131997217Y-129392830D01*
X131997218Y-129392832D01*
X131997219Y-129392833D01*
X132077878Y-129502121D01*
X132168792Y-129569219D01*
X132187170Y-129582783D01*
X132315382Y-129627646D01*
X132328426Y-129628869D01*
X132345814Y-129630500D01*
X132345818Y-129630500D01*
X134354186Y-129630500D01*
X134369400Y-129629073D01*
X134384618Y-129627646D01*
X134512830Y-129582783D01*
X134523378Y-129574997D01*
X134531209Y-129569219D01*
X134622121Y-129502121D01*
X134633219Y-129487084D01*
X134702783Y-129392830D01*
X134747646Y-129264618D01*
X134749928Y-129240281D01*
X134750500Y-129234186D01*
X134750500Y-127225813D01*
X134747646Y-127195385D01*
X134747646Y-127195382D01*
X134702783Y-127067170D01*
X134622121Y-126957879D01*
X134531207Y-126890780D01*
X134531206Y-126890779D01*
X134512833Y-126877219D01*
X134512832Y-126877218D01*
X134512830Y-126877217D01*
X134384618Y-126832354D01*
X134384616Y-126832353D01*
X134384614Y-126832353D01*
X134354186Y-126829500D01*
X134354182Y-126829500D01*
X132345818Y-126829500D01*
X132345814Y-126829500D01*
X132315385Y-126832353D01*
X132315382Y-126832353D01*
X132315382Y-126832354D01*
X132187170Y-126877217D01*
X132187168Y-126877218D01*
X132187166Y-126877219D01*
X132077878Y-126957878D01*
X131997219Y-127067166D01*
X131997218Y-127067168D01*
X131997217Y-127067170D01*
X131954237Y-127190000D01*
X131952353Y-127195385D01*
X131949500Y-127225813D01*
X126517224Y-127225813D01*
X126496613Y-127216987D01*
X126496602Y-127216984D01*
X126291250Y-127172312D01*
X126276492Y-127171433D01*
X126244038Y-127169500D01*
X124375962Y-127169500D01*
X124345416Y-127171319D01*
X124328749Y-127172312D01*
X124123397Y-127216984D01*
X124123386Y-127216987D01*
X123930191Y-127299718D01*
X123756137Y-127417521D01*
X123756132Y-127417525D01*
X123607525Y-127566132D01*
X123607521Y-127566137D01*
X123489718Y-127740191D01*
X123406987Y-127933386D01*
X123406984Y-127933397D01*
X123362312Y-128138749D01*
X123362312Y-128138755D01*
X123359500Y-128185962D01*
X123020500Y-128185962D01*
X123017688Y-128138755D01*
X122973013Y-127933388D01*
X122890279Y-127740187D01*
X122772477Y-127566135D01*
X122623865Y-127417523D01*
X122449813Y-127299721D01*
X122449811Y-127299720D01*
X122449808Y-127299718D01*
X122256613Y-127216987D01*
X122256602Y-127216984D01*
X122051250Y-127172312D01*
X122036492Y-127171433D01*
X122004038Y-127169500D01*
X120135962Y-127169500D01*
X120105416Y-127171319D01*
X120088749Y-127172312D01*
X119883397Y-127216984D01*
X119883386Y-127216987D01*
X119690191Y-127299718D01*
X119516137Y-127417521D01*
X119516132Y-127417525D01*
X119367525Y-127566132D01*
X119367521Y-127566137D01*
X119249718Y-127740191D01*
X119166987Y-127933386D01*
X119166984Y-127933397D01*
X119122312Y-128138749D01*
X119122312Y-128138755D01*
X119119500Y-128185962D01*
X117303000Y-128185962D01*
X117300188Y-128138755D01*
X117255513Y-127933388D01*
X117172779Y-127740187D01*
X117054977Y-127566135D01*
X116906365Y-127417523D01*
X116732313Y-127299721D01*
X116732311Y-127299720D01*
X116732308Y-127299718D01*
X116539113Y-127216987D01*
X116539102Y-127216984D01*
X116333750Y-127172312D01*
X116318992Y-127171433D01*
X116286538Y-127169500D01*
X114418462Y-127169500D01*
X114387916Y-127171319D01*
X114371249Y-127172312D01*
X114165897Y-127216984D01*
X114165886Y-127216987D01*
X113972691Y-127299718D01*
X113798637Y-127417521D01*
X113798632Y-127417525D01*
X113650025Y-127566132D01*
X113650021Y-127566137D01*
X113532218Y-127740191D01*
X113449487Y-127933386D01*
X113449484Y-127933397D01*
X113404812Y-128138749D01*
X113404812Y-128138755D01*
X113402000Y-128185962D01*
X113063000Y-128185962D01*
X113060188Y-128138755D01*
X113015513Y-127933388D01*
X112932779Y-127740187D01*
X112814977Y-127566135D01*
X112666365Y-127417523D01*
X112492313Y-127299721D01*
X112492311Y-127299720D01*
X112492308Y-127299718D01*
X112299113Y-127216987D01*
X112299102Y-127216984D01*
X112093750Y-127172312D01*
X112078992Y-127171433D01*
X112046538Y-127169500D01*
X110178462Y-127169500D01*
X110147916Y-127171319D01*
X110131249Y-127172312D01*
X109925897Y-127216984D01*
X109925886Y-127216987D01*
X109732691Y-127299718D01*
X109558637Y-127417521D01*
X109558632Y-127417525D01*
X109410025Y-127566132D01*
X109410021Y-127566137D01*
X109292218Y-127740191D01*
X109209487Y-127933386D01*
X109209484Y-127933397D01*
X109164812Y-128138749D01*
X109164812Y-128138755D01*
X109162000Y-128185962D01*
X108841820Y-128185962D01*
X108841820Y-125855000D01*
X109164943Y-125855000D01*
X109165310Y-125861182D01*
X109165312Y-125861192D01*
X109209963Y-126066456D01*
X109209965Y-126066462D01*
X109292658Y-126259566D01*
X109410410Y-126433546D01*
X109558953Y-126582089D01*
X109732933Y-126699841D01*
X109926037Y-126782534D01*
X109926045Y-126782536D01*
X110131307Y-126827187D01*
X110131310Y-126827188D01*
X110178513Y-126829999D01*
X110987499Y-126829999D01*
X110987500Y-126829998D01*
X110987500Y-125855000D01*
X109164943Y-125855000D01*
X108841820Y-125855000D01*
X108841820Y-125604999D01*
X109164942Y-125604999D01*
X109164943Y-125605000D01*
X110987500Y-125605000D01*
X111237500Y-125605000D01*
X111478356Y-125605000D01*
X111462500Y-125664174D01*
X111462500Y-125795826D01*
X111478356Y-125855000D01*
X111237500Y-125855000D01*
X111237500Y-126829999D01*
X112046486Y-126829999D01*
X112046488Y-126829998D01*
X112093691Y-126827187D01*
X112298954Y-126782536D01*
X112298962Y-126782534D01*
X112492066Y-126699841D01*
X112666046Y-126582089D01*
X112814589Y-126433546D01*
X112932341Y-126259566D01*
X113015034Y-126066462D01*
X113015036Y-126066456D01*
X113059687Y-125861192D01*
X113059689Y-125861182D01*
X113060057Y-125855000D01*
X112446644Y-125855000D01*
X112462500Y-125795826D01*
X112462500Y-125664174D01*
X112446644Y-125605000D01*
X113060057Y-125605000D01*
X113060057Y-125604999D01*
X113404942Y-125604999D01*
X113404943Y-125605000D01*
X114018356Y-125605000D01*
X114002500Y-125664174D01*
X114002500Y-125795826D01*
X114018356Y-125855000D01*
X113404943Y-125855000D01*
X113405310Y-125861182D01*
X113405312Y-125861192D01*
X113449963Y-126066456D01*
X113449965Y-126066462D01*
X113532658Y-126259566D01*
X113650410Y-126433546D01*
X113798953Y-126582089D01*
X113972933Y-126699841D01*
X114166037Y-126782534D01*
X114166045Y-126782536D01*
X114371307Y-126827187D01*
X114371310Y-126827188D01*
X114418513Y-126829999D01*
X115227499Y-126829999D01*
X115477500Y-126829999D01*
X116286486Y-126829999D01*
X116286488Y-126829998D01*
X116333691Y-126827187D01*
X116538954Y-126782536D01*
X116538962Y-126782534D01*
X116732066Y-126699841D01*
X116906046Y-126582089D01*
X117054589Y-126433546D01*
X117172341Y-126259566D01*
X117255034Y-126066462D01*
X117255036Y-126066456D01*
X117299687Y-125861192D01*
X117299689Y-125861182D01*
X117300057Y-125855000D01*
X115477500Y-125855000D01*
X115477500Y-126829999D01*
X115227499Y-126829999D01*
X115227500Y-126829998D01*
X115227500Y-125855000D01*
X114986644Y-125855000D01*
X115002500Y-125795826D01*
X115002500Y-125664174D01*
X114997620Y-125645962D01*
X119119500Y-125645962D01*
X119119500Y-125814038D01*
X119121484Y-125847360D01*
X119122312Y-125861250D01*
X119166984Y-126066602D01*
X119166987Y-126066613D01*
X119249718Y-126259808D01*
X119249720Y-126259811D01*
X119249721Y-126259813D01*
X119367523Y-126433865D01*
X119516135Y-126582477D01*
X119690187Y-126700279D01*
X119690189Y-126700280D01*
X119690191Y-126700281D01*
X119818987Y-126755435D01*
X119883388Y-126783013D01*
X119883396Y-126783014D01*
X119883397Y-126783015D01*
X120088749Y-126827687D01*
X120088750Y-126827687D01*
X120088755Y-126827688D01*
X120135962Y-126830500D01*
X120135973Y-126830500D01*
X122004027Y-126830500D01*
X122004038Y-126830500D01*
X122051245Y-126827688D01*
X122053544Y-126827188D01*
X122119700Y-126812796D01*
X122256612Y-126783013D01*
X122449813Y-126700279D01*
X122623865Y-126582477D01*
X122772477Y-126433865D01*
X122890279Y-126259813D01*
X122973013Y-126066612D01*
X123017688Y-125861245D01*
X123020500Y-125814038D01*
X123020500Y-125645962D01*
X123359500Y-125645962D01*
X123359500Y-125814038D01*
X123361484Y-125847360D01*
X123362312Y-125861250D01*
X123406984Y-126066602D01*
X123406987Y-126066613D01*
X123489718Y-126259808D01*
X123489720Y-126259811D01*
X123489721Y-126259813D01*
X123607523Y-126433865D01*
X123756135Y-126582477D01*
X123930187Y-126700279D01*
X123930189Y-126700280D01*
X123930191Y-126700281D01*
X124058987Y-126755435D01*
X124123388Y-126783013D01*
X124123396Y-126783014D01*
X124123397Y-126783015D01*
X124328749Y-126827687D01*
X124328750Y-126827687D01*
X124328755Y-126827688D01*
X124375962Y-126830500D01*
X124375973Y-126830500D01*
X126244027Y-126830500D01*
X126244038Y-126830500D01*
X126291245Y-126827688D01*
X126293544Y-126827188D01*
X126359700Y-126812796D01*
X126496612Y-126783013D01*
X126689813Y-126700279D01*
X126863865Y-126582477D01*
X127012477Y-126433865D01*
X127130279Y-126259813D01*
X127213013Y-126066612D01*
X127257688Y-125861245D01*
X127260500Y-125814038D01*
X127260500Y-125645962D01*
X127257688Y-125598755D01*
X127251856Y-125571947D01*
X129310000Y-125571947D01*
X129310000Y-125808052D01*
X129346934Y-126041247D01*
X129419897Y-126265802D01*
X129527087Y-126476175D01*
X129661728Y-126661493D01*
X129661729Y-126661494D01*
X130126377Y-126196846D01*
X130149762Y-126231844D01*
X130268156Y-126350238D01*
X130303152Y-126373621D01*
X129838504Y-126838269D01*
X129838505Y-126838270D01*
X130023825Y-126972912D01*
X130234197Y-127080102D01*
X130458752Y-127153065D01*
X130458751Y-127153065D01*
X130691948Y-127190000D01*
X130928052Y-127190000D01*
X131161247Y-127153065D01*
X131309213Y-127104988D01*
X131309214Y-127104988D01*
X131385804Y-127080102D01*
X131596174Y-126972912D01*
X131781493Y-126838271D01*
X131781494Y-126838269D01*
X131316846Y-126373622D01*
X131351844Y-126350238D01*
X131470238Y-126231844D01*
X131493622Y-126196846D01*
X131958269Y-126661494D01*
X131958271Y-126661493D01*
X132092912Y-126476174D01*
X132200102Y-126265802D01*
X132273065Y-126041247D01*
X132310000Y-125808052D01*
X132310000Y-125571947D01*
X134390000Y-125571947D01*
X134390000Y-125808052D01*
X134426934Y-126041247D01*
X134499897Y-126265802D01*
X134607087Y-126476175D01*
X134741728Y-126661493D01*
X134741728Y-126661494D01*
X135206376Y-126196845D01*
X135229762Y-126231844D01*
X135348156Y-126350238D01*
X135383152Y-126373621D01*
X134918504Y-126838269D01*
X134918505Y-126838270D01*
X135103825Y-126972912D01*
X135314197Y-127080102D01*
X135538752Y-127153065D01*
X135538751Y-127153065D01*
X135771948Y-127190000D01*
X136008052Y-127190000D01*
X136241247Y-127153065D01*
X136465802Y-127080102D01*
X136676174Y-126972912D01*
X136861493Y-126838271D01*
X136861494Y-126838269D01*
X136396846Y-126373622D01*
X136431844Y-126350238D01*
X136550238Y-126231844D01*
X136573622Y-126196847D01*
X137038269Y-126661494D01*
X137038271Y-126661493D01*
X137172912Y-126476174D01*
X137280102Y-126265802D01*
X137353065Y-126041247D01*
X137390000Y-125808052D01*
X137390000Y-125571947D01*
X137353065Y-125338752D01*
X137280102Y-125114197D01*
X137172912Y-124903825D01*
X137038270Y-124718505D01*
X137038269Y-124718504D01*
X136573621Y-125183152D01*
X136550238Y-125148156D01*
X136431844Y-125029762D01*
X136396846Y-125006377D01*
X136861494Y-124541729D01*
X136861493Y-124541728D01*
X136676175Y-124407087D01*
X136465802Y-124299897D01*
X136241247Y-124226934D01*
X136241248Y-124226934D01*
X136008052Y-124190000D01*
X135771948Y-124190000D01*
X135538752Y-124226934D01*
X135314197Y-124299897D01*
X135103830Y-124407084D01*
X134918505Y-124541729D01*
X135383153Y-125006377D01*
X135348156Y-125029762D01*
X135229762Y-125148156D01*
X135206377Y-125183153D01*
X134741729Y-124718505D01*
X134607084Y-124903830D01*
X134499897Y-125114197D01*
X134426934Y-125338752D01*
X134390000Y-125571947D01*
X132310000Y-125571947D01*
X132273065Y-125338752D01*
X132200102Y-125114197D01*
X132092912Y-124903825D01*
X131958270Y-124718505D01*
X131958269Y-124718504D01*
X131493621Y-125183152D01*
X131470238Y-125148156D01*
X131351844Y-125029762D01*
X131316846Y-125006377D01*
X131781494Y-124541729D01*
X131781493Y-124541728D01*
X131596175Y-124407087D01*
X131385802Y-124299897D01*
X131161247Y-124226934D01*
X131161248Y-124226934D01*
X130928052Y-124190000D01*
X130691948Y-124190000D01*
X130458752Y-124226934D01*
X130234197Y-124299897D01*
X130023830Y-124407084D01*
X129838505Y-124541729D01*
X130303153Y-125006377D01*
X130268156Y-125029762D01*
X130149762Y-125148156D01*
X130126377Y-125183153D01*
X129661729Y-124718505D01*
X129527084Y-124903830D01*
X129419897Y-125114197D01*
X129346934Y-125338752D01*
X129310000Y-125571947D01*
X127251856Y-125571947D01*
X127213013Y-125393388D01*
X127143046Y-125230000D01*
X127130281Y-125200191D01*
X127130280Y-125200189D01*
X127130279Y-125200187D01*
X127012477Y-125026135D01*
X126863865Y-124877523D01*
X126689813Y-124759721D01*
X126689810Y-124759719D01*
X126689806Y-124759717D01*
X126557302Y-124702976D01*
X126532529Y-124692367D01*
X126496613Y-124676987D01*
X126496602Y-124676984D01*
X126291250Y-124632312D01*
X126276492Y-124631433D01*
X126244038Y-124629500D01*
X124375962Y-124629500D01*
X124345416Y-124631319D01*
X124328749Y-124632312D01*
X124123397Y-124676984D01*
X124123386Y-124676987D01*
X123930191Y-124759718D01*
X123756137Y-124877521D01*
X123756132Y-124877525D01*
X123607525Y-125026132D01*
X123607521Y-125026137D01*
X123489718Y-125200191D01*
X123406987Y-125393386D01*
X123406984Y-125393397D01*
X123362312Y-125598749D01*
X123361319Y-125615416D01*
X123359500Y-125645962D01*
X123020500Y-125645962D01*
X123017688Y-125598755D01*
X123016531Y-125593438D01*
X122973015Y-125393397D01*
X122973012Y-125393386D01*
X122890281Y-125200191D01*
X122890280Y-125200189D01*
X122890279Y-125200187D01*
X122772477Y-125026135D01*
X122623865Y-124877523D01*
X122449813Y-124759721D01*
X122449811Y-124759720D01*
X122449808Y-124759718D01*
X122256613Y-124676987D01*
X122256602Y-124676984D01*
X122051250Y-124632312D01*
X122036492Y-124631433D01*
X122004038Y-124629500D01*
X120135962Y-124629500D01*
X120105416Y-124631319D01*
X120088749Y-124632312D01*
X119883397Y-124676984D01*
X119883386Y-124676987D01*
X119690191Y-124759718D01*
X119516137Y-124877521D01*
X119516132Y-124877525D01*
X119367525Y-125026132D01*
X119367521Y-125026137D01*
X119249718Y-125200191D01*
X119166987Y-125393386D01*
X119166984Y-125393397D01*
X119122312Y-125598749D01*
X119121319Y-125615416D01*
X119119500Y-125645962D01*
X114997620Y-125645962D01*
X114986644Y-125605000D01*
X115227500Y-125605000D01*
X115477500Y-125605000D01*
X117300057Y-125605000D01*
X117300057Y-125604999D01*
X117299689Y-125598817D01*
X117299687Y-125598807D01*
X117255036Y-125393543D01*
X117255034Y-125393537D01*
X117172341Y-125200433D01*
X117054589Y-125026453D01*
X116906046Y-124877910D01*
X116732066Y-124760158D01*
X116538962Y-124677465D01*
X116538954Y-124677463D01*
X116333692Y-124632812D01*
X116333689Y-124632811D01*
X116286488Y-124630000D01*
X115477500Y-124630000D01*
X115477500Y-125605000D01*
X115227500Y-125605000D01*
X115227500Y-124630000D01*
X114418514Y-124630000D01*
X114418511Y-124630001D01*
X114371308Y-124632812D01*
X114166045Y-124677463D01*
X114166037Y-124677465D01*
X113972933Y-124760158D01*
X113798953Y-124877910D01*
X113650410Y-125026453D01*
X113532658Y-125200433D01*
X113449965Y-125393537D01*
X113449963Y-125393543D01*
X113405312Y-125598807D01*
X113405310Y-125598817D01*
X113404942Y-125604999D01*
X113060057Y-125604999D01*
X113059689Y-125598817D01*
X113059687Y-125598807D01*
X113015036Y-125393543D01*
X113015034Y-125393537D01*
X112932341Y-125200433D01*
X112814589Y-125026453D01*
X112666046Y-124877910D01*
X112492066Y-124760158D01*
X112298962Y-124677465D01*
X112298954Y-124677463D01*
X112093692Y-124632812D01*
X112093689Y-124632811D01*
X112046488Y-124630000D01*
X111237500Y-124630000D01*
X111237500Y-125605000D01*
X110987500Y-125605000D01*
X110987500Y-124630000D01*
X110178514Y-124630000D01*
X110178511Y-124630001D01*
X110131308Y-124632812D01*
X109926045Y-124677463D01*
X109926037Y-124677465D01*
X109732933Y-124760158D01*
X109558953Y-124877910D01*
X109410410Y-125026453D01*
X109292658Y-125200433D01*
X109209965Y-125393537D01*
X109209963Y-125393543D01*
X109165312Y-125598807D01*
X109165310Y-125598817D01*
X109164942Y-125604999D01*
X108841820Y-125604999D01*
X108841820Y-115485962D01*
X109162000Y-115485962D01*
X109162000Y-115654038D01*
X109163984Y-115687360D01*
X109164812Y-115701250D01*
X109209484Y-115906602D01*
X109209487Y-115906613D01*
X109292218Y-116099808D01*
X109292220Y-116099811D01*
X109292221Y-116099813D01*
X109410023Y-116273865D01*
X109558635Y-116422477D01*
X109732687Y-116540279D01*
X109732689Y-116540280D01*
X109732691Y-116540281D01*
X109771472Y-116556888D01*
X109925888Y-116623013D01*
X109925896Y-116623014D01*
X109925897Y-116623015D01*
X110131249Y-116667687D01*
X110131250Y-116667687D01*
X110131255Y-116667688D01*
X110178462Y-116670500D01*
X110178473Y-116670500D01*
X112046527Y-116670500D01*
X112046538Y-116670500D01*
X112093745Y-116667688D01*
X112299112Y-116623013D01*
X112492313Y-116540279D01*
X112666365Y-116422477D01*
X112814977Y-116273865D01*
X112932779Y-116099813D01*
X113015513Y-115906612D01*
X113060188Y-115701245D01*
X113063000Y-115654038D01*
X113063000Y-115485962D01*
X113060188Y-115438755D01*
X113015513Y-115233388D01*
X113003572Y-115205505D01*
X112995276Y-115136133D01*
X113025804Y-115073285D01*
X113029857Y-115069034D01*
X114632074Y-113466819D01*
X114693397Y-113433334D01*
X114719755Y-113430500D01*
X119112555Y-113430500D01*
X119179594Y-113450185D01*
X119225349Y-113502989D01*
X119226524Y-113505643D01*
X119249721Y-113559813D01*
X119348662Y-113705998D01*
X119369936Y-113772549D01*
X119351852Y-113840038D01*
X119300152Y-113887037D01*
X119245971Y-113899500D01*
X115719773Y-113899500D01*
X115617910Y-113926793D01*
X115526587Y-113979520D01*
X115526584Y-113979522D01*
X115072926Y-114433181D01*
X115011603Y-114466666D01*
X114985245Y-114469500D01*
X114418462Y-114469500D01*
X114387916Y-114471319D01*
X114371249Y-114472312D01*
X114165897Y-114516984D01*
X114165886Y-114516987D01*
X113972691Y-114599718D01*
X113798637Y-114717521D01*
X113798632Y-114717525D01*
X113650025Y-114866132D01*
X113650021Y-114866137D01*
X113532218Y-115040191D01*
X113449487Y-115233386D01*
X113449484Y-115233397D01*
X113404812Y-115438749D01*
X113404812Y-115438755D01*
X113402000Y-115485962D01*
X113402000Y-115654038D01*
X113403984Y-115687360D01*
X113404812Y-115701250D01*
X113449484Y-115906602D01*
X113449487Y-115906613D01*
X113532218Y-116099808D01*
X113644021Y-116264997D01*
X113665295Y-116331549D01*
X113647211Y-116399038D01*
X113595511Y-116446037D01*
X113541330Y-116458500D01*
X113160773Y-116458500D01*
X113058910Y-116485793D01*
X112967587Y-116538520D01*
X112967584Y-116538522D01*
X112463486Y-117042619D01*
X112402163Y-117076104D01*
X112332471Y-117071120D01*
X112326993Y-117068926D01*
X112299117Y-117056989D01*
X112299115Y-117056988D01*
X112299112Y-117056987D01*
X112299109Y-117056986D01*
X112299102Y-117056984D01*
X112093750Y-117012312D01*
X112078992Y-117011433D01*
X112046538Y-117009500D01*
X110178462Y-117009500D01*
X110147916Y-117011319D01*
X110131249Y-117012312D01*
X109925897Y-117056984D01*
X109925886Y-117056987D01*
X109732691Y-117139718D01*
X109558637Y-117257521D01*
X109558632Y-117257525D01*
X109410025Y-117406132D01*
X109410021Y-117406137D01*
X109292218Y-117580191D01*
X109209487Y-117773386D01*
X109209484Y-117773397D01*
X109164812Y-117978749D01*
X109164812Y-117978755D01*
X109162000Y-118025962D01*
X109162000Y-118194038D01*
X109163984Y-118227360D01*
X109164812Y-118241250D01*
X109209484Y-118446602D01*
X109209487Y-118446613D01*
X109292218Y-118639808D01*
X109292220Y-118639811D01*
X109292221Y-118639813D01*
X109410023Y-118813865D01*
X109558635Y-118962477D01*
X109732687Y-119080279D01*
X109732689Y-119080280D01*
X109732691Y-119080281D01*
X109771472Y-119096888D01*
X109925888Y-119163013D01*
X109925896Y-119163014D01*
X109925897Y-119163015D01*
X110131249Y-119207687D01*
X110131250Y-119207687D01*
X110131255Y-119207688D01*
X110178462Y-119210500D01*
X110178473Y-119210500D01*
X112046527Y-119210500D01*
X112046538Y-119210500D01*
X112093745Y-119207688D01*
X112299112Y-119163013D01*
X112492313Y-119080279D01*
X112666365Y-118962477D01*
X112814977Y-118813865D01*
X112932779Y-118639813D01*
X113015513Y-118446612D01*
X113060188Y-118241245D01*
X113063000Y-118194038D01*
X113063000Y-118025962D01*
X113060188Y-117978755D01*
X113015513Y-117773388D01*
X113003572Y-117745505D01*
X112995276Y-117676133D01*
X113025804Y-117613285D01*
X113029835Y-117609057D01*
X113343076Y-117295816D01*
X113370007Y-117281111D01*
X113395820Y-117264523D01*
X113402020Y-117263631D01*
X113404397Y-117262334D01*
X113430755Y-117259500D01*
X113515611Y-117259500D01*
X113582650Y-117279185D01*
X113628405Y-117331989D01*
X113638349Y-117401147D01*
X113618302Y-117453003D01*
X113532218Y-117580191D01*
X113449487Y-117773386D01*
X113449484Y-117773397D01*
X113404812Y-117978749D01*
X113404812Y-117978755D01*
X113402000Y-118025962D01*
X113402000Y-118194038D01*
X113403984Y-118227360D01*
X113404812Y-118241250D01*
X113449484Y-118446602D01*
X113449487Y-118446613D01*
X113532218Y-118639808D01*
X113618302Y-118766997D01*
X113639576Y-118833549D01*
X113621492Y-118901038D01*
X113569792Y-118948037D01*
X113515611Y-118960500D01*
X113198773Y-118960500D01*
X113096910Y-118987793D01*
X113005587Y-119040520D01*
X113005584Y-119040522D01*
X112463486Y-119582619D01*
X112402163Y-119616104D01*
X112332471Y-119611120D01*
X112326993Y-119608926D01*
X112299117Y-119596989D01*
X112299115Y-119596988D01*
X112299112Y-119596987D01*
X112299109Y-119596986D01*
X112299102Y-119596984D01*
X112093750Y-119552312D01*
X112078992Y-119551433D01*
X112046538Y-119549500D01*
X110178462Y-119549500D01*
X110147916Y-119551319D01*
X110131249Y-119552312D01*
X109925897Y-119596984D01*
X109925886Y-119596987D01*
X109732691Y-119679718D01*
X109558637Y-119797521D01*
X109558632Y-119797525D01*
X109410025Y-119946132D01*
X109410021Y-119946137D01*
X109292218Y-120120191D01*
X109209487Y-120313386D01*
X109209484Y-120313397D01*
X109164812Y-120518749D01*
X109164812Y-120518755D01*
X109162000Y-120565962D01*
X109162000Y-120734038D01*
X109163984Y-120767360D01*
X109164812Y-120781250D01*
X109209484Y-120986602D01*
X109209487Y-120986613D01*
X109292218Y-121179808D01*
X109292220Y-121179811D01*
X109292221Y-121179813D01*
X109410023Y-121353865D01*
X109558635Y-121502477D01*
X109732687Y-121620279D01*
X109732689Y-121620280D01*
X109732691Y-121620281D01*
X109771472Y-121636888D01*
X109925888Y-121703013D01*
X109925896Y-121703014D01*
X109925897Y-121703015D01*
X110131249Y-121747687D01*
X110131250Y-121747687D01*
X110131255Y-121747688D01*
X110178462Y-121750500D01*
X110178473Y-121750500D01*
X112046527Y-121750500D01*
X112046538Y-121750500D01*
X112093745Y-121747688D01*
X112299112Y-121703013D01*
X112492313Y-121620279D01*
X112666365Y-121502477D01*
X112814977Y-121353865D01*
X112932779Y-121179813D01*
X113015513Y-120986612D01*
X113060188Y-120781245D01*
X113063000Y-120734038D01*
X113063000Y-120565962D01*
X113060188Y-120518755D01*
X113035243Y-120404087D01*
X113015515Y-120313397D01*
X113015512Y-120313386D01*
X113003572Y-120285505D01*
X112995276Y-120216133D01*
X113025804Y-120153285D01*
X113029855Y-120149036D01*
X113381074Y-119797819D01*
X113408001Y-119783115D01*
X113433820Y-119766523D01*
X113440020Y-119765631D01*
X113442397Y-119764334D01*
X113468755Y-119761500D01*
X113541330Y-119761500D01*
X113608369Y-119781185D01*
X113654124Y-119833989D01*
X113664068Y-119903147D01*
X113644021Y-119955003D01*
X113532218Y-120120191D01*
X113449487Y-120313386D01*
X113449484Y-120313397D01*
X113404812Y-120518749D01*
X113404812Y-120518755D01*
X113402000Y-120565962D01*
X113402000Y-120734038D01*
X113403984Y-120767360D01*
X113404812Y-120781250D01*
X113449484Y-120986602D01*
X113449487Y-120986613D01*
X113476845Y-121050500D01*
X113532221Y-121179813D01*
X113614000Y-121300641D01*
X113644022Y-121344998D01*
X113665296Y-121411550D01*
X113647212Y-121479039D01*
X113595512Y-121526038D01*
X113541331Y-121538501D01*
X113273838Y-121538501D01*
X113273822Y-121538500D01*
X113266226Y-121538500D01*
X113160772Y-121538500D01*
X113058911Y-121565794D01*
X113058909Y-121565794D01*
X113058909Y-121565795D01*
X113022247Y-121586961D01*
X113022243Y-121586964D01*
X113013249Y-121592157D01*
X112967586Y-121618521D01*
X112893019Y-121693088D01*
X112893017Y-121693090D01*
X112888874Y-121697232D01*
X112888869Y-121697237D01*
X112463487Y-122122619D01*
X112402164Y-122156104D01*
X112332472Y-122151120D01*
X112326995Y-122148927D01*
X112299112Y-122136987D01*
X112299102Y-122136984D01*
X112093750Y-122092312D01*
X112078992Y-122091433D01*
X112046538Y-122089500D01*
X110178462Y-122089500D01*
X110147916Y-122091319D01*
X110131249Y-122092312D01*
X109925897Y-122136984D01*
X109925886Y-122136987D01*
X109732691Y-122219718D01*
X109558637Y-122337521D01*
X109558632Y-122337525D01*
X109410025Y-122486132D01*
X109410021Y-122486137D01*
X109292218Y-122660191D01*
X109209487Y-122853386D01*
X109209484Y-122853397D01*
X109164812Y-123058749D01*
X109164812Y-123058755D01*
X109162000Y-123105962D01*
X109162000Y-123274038D01*
X109163984Y-123307360D01*
X109164812Y-123321250D01*
X109209484Y-123526602D01*
X109209487Y-123526613D01*
X109292218Y-123719808D01*
X109292220Y-123719811D01*
X109292221Y-123719813D01*
X109410023Y-123893865D01*
X109558635Y-124042477D01*
X109732687Y-124160279D01*
X109732689Y-124160280D01*
X109732691Y-124160281D01*
X109861487Y-124215435D01*
X109925888Y-124243013D01*
X109925896Y-124243014D01*
X109925897Y-124243015D01*
X110131249Y-124287687D01*
X110131250Y-124287687D01*
X110131255Y-124287688D01*
X110178462Y-124290500D01*
X110178473Y-124290500D01*
X112046527Y-124290500D01*
X112046538Y-124290500D01*
X112093745Y-124287688D01*
X112299112Y-124243013D01*
X112492313Y-124160279D01*
X112666365Y-124042477D01*
X112814977Y-123893865D01*
X112932779Y-123719813D01*
X113015513Y-123526612D01*
X113060188Y-123321245D01*
X113063000Y-123274038D01*
X113063000Y-123105962D01*
X113060188Y-123058755D01*
X113015513Y-122853388D01*
X113003571Y-122825502D01*
X112995277Y-122756131D01*
X113025805Y-122693283D01*
X113029835Y-122689056D01*
X113343074Y-122375817D01*
X113370005Y-122361112D01*
X113395818Y-122344524D01*
X113402018Y-122343632D01*
X113404395Y-122342335D01*
X113430753Y-122339501D01*
X113515610Y-122339501D01*
X113582649Y-122359186D01*
X113628404Y-122411990D01*
X113638348Y-122481148D01*
X113618301Y-122533003D01*
X113532219Y-122660189D01*
X113449487Y-122853386D01*
X113449484Y-122853397D01*
X113404812Y-123058749D01*
X113404812Y-123058755D01*
X113402000Y-123105962D01*
X113402000Y-123274038D01*
X113403984Y-123307360D01*
X113404812Y-123321250D01*
X113449484Y-123526602D01*
X113449487Y-123526613D01*
X113532218Y-123719808D01*
X113532220Y-123719811D01*
X113532221Y-123719813D01*
X113650023Y-123893865D01*
X113798635Y-124042477D01*
X113972687Y-124160279D01*
X113972689Y-124160280D01*
X113972691Y-124160281D01*
X114101487Y-124215435D01*
X114165888Y-124243013D01*
X114165896Y-124243014D01*
X114165897Y-124243015D01*
X114371249Y-124287687D01*
X114371250Y-124287687D01*
X114371255Y-124287688D01*
X114418462Y-124290500D01*
X114418473Y-124290500D01*
X116286527Y-124290500D01*
X116286538Y-124290500D01*
X116333745Y-124287688D01*
X116539112Y-124243013D01*
X116732313Y-124160279D01*
X116906365Y-124042477D01*
X117054977Y-123893865D01*
X117172779Y-123719813D01*
X117255513Y-123526612D01*
X117300188Y-123321245D01*
X117303000Y-123274038D01*
X117303000Y-123105962D01*
X117300188Y-123058755D01*
X117255513Y-122853388D01*
X117210535Y-122748356D01*
X117172781Y-122660191D01*
X117172780Y-122660189D01*
X117172779Y-122660187D01*
X117054977Y-122486135D01*
X117029920Y-122461078D01*
X116996435Y-122399755D01*
X117001419Y-122330063D01*
X117043291Y-122274130D01*
X117055582Y-122266022D01*
X117066912Y-122259481D01*
X118239573Y-121086818D01*
X118300896Y-121053334D01*
X118327254Y-121050500D01*
X119112555Y-121050500D01*
X119179594Y-121070185D01*
X119225349Y-121122989D01*
X119226524Y-121125643D01*
X119249721Y-121179813D01*
X119367523Y-121353865D01*
X119516135Y-121502477D01*
X119690187Y-121620279D01*
X119690189Y-121620280D01*
X119690191Y-121620281D01*
X119728972Y-121636888D01*
X119883388Y-121703013D01*
X119883396Y-121703014D01*
X119883397Y-121703015D01*
X120088749Y-121747687D01*
X120088750Y-121747687D01*
X120088755Y-121747688D01*
X120135962Y-121750500D01*
X120135973Y-121750500D01*
X122004027Y-121750500D01*
X122004038Y-121750500D01*
X122051245Y-121747688D01*
X122256612Y-121703013D01*
X122449813Y-121620279D01*
X122576997Y-121534197D01*
X122587029Y-121530990D01*
X122594989Y-121524094D01*
X122619734Y-121520535D01*
X122643549Y-121512923D01*
X122653722Y-121515648D01*
X122664147Y-121514150D01*
X122686890Y-121524536D01*
X122711038Y-121531007D01*
X122718121Y-121538799D01*
X122727703Y-121543175D01*
X122741221Y-121564209D01*
X122758036Y-121582707D01*
X122760783Y-121594649D01*
X122765477Y-121601953D01*
X122770500Y-121636888D01*
X122770500Y-121721744D01*
X122750815Y-121788783D01*
X122734181Y-121809425D01*
X122420986Y-122122619D01*
X122359663Y-122156104D01*
X122289971Y-122151120D01*
X122284493Y-122148926D01*
X122256617Y-122136989D01*
X122256615Y-122136988D01*
X122256612Y-122136987D01*
X122256609Y-122136986D01*
X122256602Y-122136984D01*
X122051250Y-122092312D01*
X122036492Y-122091433D01*
X122004038Y-122089500D01*
X120135962Y-122089500D01*
X120105416Y-122091319D01*
X120088749Y-122092312D01*
X119883397Y-122136984D01*
X119883386Y-122136987D01*
X119690191Y-122219718D01*
X119516137Y-122337521D01*
X119516132Y-122337525D01*
X119367525Y-122486132D01*
X119367521Y-122486137D01*
X119249718Y-122660191D01*
X119166987Y-122853386D01*
X119166984Y-122853397D01*
X119122312Y-123058749D01*
X119122312Y-123058755D01*
X119119500Y-123105962D01*
X119119500Y-123274038D01*
X119121484Y-123307360D01*
X119122312Y-123321250D01*
X119166984Y-123526602D01*
X119166987Y-123526613D01*
X119249718Y-123719808D01*
X119249720Y-123719811D01*
X119249721Y-123719813D01*
X119367523Y-123893865D01*
X119516135Y-124042477D01*
X119690187Y-124160279D01*
X119690189Y-124160280D01*
X119690191Y-124160281D01*
X119818987Y-124215435D01*
X119883388Y-124243013D01*
X119883396Y-124243014D01*
X119883397Y-124243015D01*
X120088749Y-124287687D01*
X120088750Y-124287687D01*
X120088755Y-124287688D01*
X120135962Y-124290500D01*
X120135973Y-124290500D01*
X122004027Y-124290500D01*
X122004038Y-124290500D01*
X122051245Y-124287688D01*
X122256612Y-124243013D01*
X122449813Y-124160279D01*
X122623865Y-124042477D01*
X122772477Y-123893865D01*
X122890279Y-123719813D01*
X122973013Y-123526612D01*
X123017688Y-123321245D01*
X123020500Y-123274038D01*
X123020500Y-123105962D01*
X123359500Y-123105962D01*
X123359500Y-123274038D01*
X123361484Y-123307360D01*
X123362312Y-123321250D01*
X123406984Y-123526602D01*
X123406987Y-123526613D01*
X123489718Y-123719808D01*
X123489720Y-123719811D01*
X123489721Y-123719813D01*
X123607523Y-123893865D01*
X123756135Y-124042477D01*
X123930187Y-124160279D01*
X123930189Y-124160280D01*
X123930191Y-124160281D01*
X124058987Y-124215435D01*
X124123388Y-124243013D01*
X124123396Y-124243014D01*
X124123397Y-124243015D01*
X124328749Y-124287687D01*
X124328750Y-124287687D01*
X124328755Y-124287688D01*
X124375962Y-124290500D01*
X124375973Y-124290500D01*
X126244027Y-124290500D01*
X126244038Y-124290500D01*
X126291245Y-124287688D01*
X126496612Y-124243013D01*
X126689813Y-124160279D01*
X126863865Y-124042477D01*
X127012477Y-123893865D01*
X127130279Y-123719813D01*
X127213013Y-123526612D01*
X127257688Y-123321245D01*
X127260500Y-123274038D01*
X127260500Y-123105962D01*
X127257688Y-123058755D01*
X127213013Y-122853388D01*
X127168035Y-122748356D01*
X127130281Y-122660191D01*
X127130280Y-122660189D01*
X127130279Y-122660187D01*
X127012477Y-122486135D01*
X126863865Y-122337523D01*
X126689813Y-122219721D01*
X126689811Y-122219720D01*
X126689808Y-122219718D01*
X126496613Y-122136987D01*
X126496602Y-122136984D01*
X126291250Y-122092312D01*
X126276492Y-122091433D01*
X126244038Y-122089500D01*
X124375962Y-122089500D01*
X124345416Y-122091319D01*
X124328749Y-122092312D01*
X124123397Y-122136984D01*
X124123386Y-122136987D01*
X123930191Y-122219718D01*
X123756137Y-122337521D01*
X123756132Y-122337525D01*
X123607525Y-122486132D01*
X123607521Y-122486137D01*
X123489718Y-122660191D01*
X123406987Y-122853386D01*
X123406984Y-122853397D01*
X123362312Y-123058749D01*
X123362312Y-123058755D01*
X123359500Y-123105962D01*
X123020500Y-123105962D01*
X123017688Y-123058755D01*
X122973013Y-122853388D01*
X122961072Y-122825505D01*
X122952776Y-122756133D01*
X122983304Y-122693285D01*
X122987356Y-122689035D01*
X123491480Y-122184913D01*
X123544207Y-122093588D01*
X123571500Y-121991727D01*
X123571500Y-121886273D01*
X123571500Y-121611169D01*
X123591185Y-121544130D01*
X123643989Y-121498375D01*
X123713147Y-121488431D01*
X123765002Y-121508478D01*
X123930187Y-121620279D01*
X124123388Y-121703013D01*
X124123396Y-121703014D01*
X124123397Y-121703015D01*
X124328749Y-121747687D01*
X124328750Y-121747687D01*
X124328755Y-121747688D01*
X124375962Y-121750500D01*
X124375973Y-121750500D01*
X126244027Y-121750500D01*
X126244038Y-121750500D01*
X126291245Y-121747688D01*
X126496612Y-121703013D01*
X126689813Y-121620279D01*
X126863865Y-121502477D01*
X127012477Y-121353865D01*
X127130279Y-121179813D01*
X127213013Y-120986612D01*
X127257688Y-120781245D01*
X127260500Y-120734038D01*
X127260500Y-120565962D01*
X127257688Y-120518755D01*
X127232743Y-120404087D01*
X127213015Y-120313397D01*
X127213012Y-120313386D01*
X127130281Y-120120191D01*
X127130280Y-120120189D01*
X127130279Y-120120187D01*
X127012477Y-119946135D01*
X126863865Y-119797523D01*
X126689813Y-119679721D01*
X126689811Y-119679720D01*
X126689808Y-119679718D01*
X126496613Y-119596987D01*
X126496602Y-119596984D01*
X126291250Y-119552312D01*
X126276492Y-119551433D01*
X126244038Y-119549500D01*
X124375962Y-119549500D01*
X124345416Y-119551319D01*
X124328749Y-119552312D01*
X124123397Y-119596984D01*
X124123386Y-119596987D01*
X123930191Y-119679718D01*
X123765003Y-119791521D01*
X123698451Y-119812795D01*
X123630962Y-119794711D01*
X123583963Y-119743011D01*
X123571500Y-119688830D01*
X123571500Y-119071169D01*
X123591185Y-119004130D01*
X123643989Y-118958375D01*
X123713147Y-118948431D01*
X123765002Y-118968478D01*
X123930187Y-119080279D01*
X124123388Y-119163013D01*
X124123396Y-119163014D01*
X124123397Y-119163015D01*
X124328749Y-119207687D01*
X124328750Y-119207687D01*
X124328755Y-119207688D01*
X124375962Y-119210500D01*
X124375973Y-119210500D01*
X126244027Y-119210500D01*
X126244038Y-119210500D01*
X126291245Y-119207688D01*
X126496612Y-119163013D01*
X126689813Y-119080279D01*
X126863865Y-118962477D01*
X127012477Y-118813865D01*
X127130279Y-118639813D01*
X127213013Y-118446612D01*
X127257688Y-118241245D01*
X127260500Y-118194038D01*
X127260500Y-118025962D01*
X127257688Y-117978755D01*
X127213013Y-117773388D01*
X127153457Y-117634312D01*
X127130281Y-117580191D01*
X127130280Y-117580189D01*
X127130279Y-117580187D01*
X127012477Y-117406135D01*
X126863865Y-117257523D01*
X126689813Y-117139721D01*
X126689811Y-117139720D01*
X126689808Y-117139718D01*
X126496613Y-117056987D01*
X126496602Y-117056984D01*
X126291250Y-117012312D01*
X126276492Y-117011433D01*
X126244038Y-117009500D01*
X124375962Y-117009500D01*
X124345416Y-117011319D01*
X124328749Y-117012312D01*
X124123397Y-117056984D01*
X124123386Y-117056987D01*
X123930191Y-117139718D01*
X123765003Y-117251521D01*
X123698451Y-117272795D01*
X123630962Y-117254711D01*
X123583963Y-117203011D01*
X123571500Y-117148830D01*
X123571500Y-116531169D01*
X123591185Y-116464130D01*
X123643989Y-116418375D01*
X123713147Y-116408431D01*
X123765002Y-116428478D01*
X123930187Y-116540279D01*
X124123388Y-116623013D01*
X124123396Y-116623014D01*
X124123397Y-116623015D01*
X124328749Y-116667687D01*
X124328750Y-116667687D01*
X124328755Y-116667688D01*
X124375962Y-116670500D01*
X124375973Y-116670500D01*
X126244027Y-116670500D01*
X126244038Y-116670500D01*
X126291245Y-116667688D01*
X126496612Y-116623013D01*
X126689813Y-116540279D01*
X126863865Y-116422477D01*
X127012477Y-116273865D01*
X127130279Y-116099813D01*
X127213013Y-115906612D01*
X127257688Y-115701245D01*
X127260500Y-115654038D01*
X127260500Y-115485962D01*
X127257688Y-115438755D01*
X127213013Y-115233388D01*
X127153457Y-115094312D01*
X127130281Y-115040191D01*
X127130280Y-115040189D01*
X127130279Y-115040187D01*
X127012477Y-114866135D01*
X126863865Y-114717523D01*
X126689813Y-114599721D01*
X126689811Y-114599720D01*
X126689808Y-114599718D01*
X126496613Y-114516987D01*
X126496602Y-114516984D01*
X126291250Y-114472312D01*
X126276492Y-114471433D01*
X126244038Y-114469500D01*
X124375962Y-114469500D01*
X124345416Y-114471319D01*
X124328749Y-114472312D01*
X124123397Y-114516984D01*
X124123386Y-114516987D01*
X123930191Y-114599718D01*
X123756137Y-114717521D01*
X123670841Y-114802817D01*
X123609517Y-114836301D01*
X123539826Y-114831317D01*
X123495479Y-114802816D01*
X122687183Y-113994520D01*
X122653698Y-113933197D01*
X122658682Y-113863505D01*
X122687179Y-113819162D01*
X122772477Y-113733865D01*
X122890279Y-113559813D01*
X122973013Y-113366612D01*
X123017688Y-113161245D01*
X123020500Y-113114038D01*
X123020500Y-112945962D01*
X123359500Y-112945962D01*
X123359500Y-113114038D01*
X123361484Y-113147360D01*
X123362312Y-113161250D01*
X123406984Y-113366602D01*
X123406987Y-113366613D01*
X123489718Y-113559808D01*
X123489720Y-113559811D01*
X123489721Y-113559813D01*
X123607523Y-113733865D01*
X123756135Y-113882477D01*
X123930187Y-114000279D01*
X123930189Y-114000280D01*
X123930191Y-114000281D01*
X124058987Y-114055435D01*
X124123388Y-114083013D01*
X124123396Y-114083014D01*
X124123397Y-114083015D01*
X124328749Y-114127687D01*
X124328750Y-114127687D01*
X124328755Y-114127688D01*
X124375962Y-114130500D01*
X124375973Y-114130500D01*
X126244027Y-114130500D01*
X126244038Y-114130500D01*
X126291245Y-114127688D01*
X126496612Y-114083013D01*
X126689813Y-114000279D01*
X126863865Y-113882477D01*
X127012477Y-113733865D01*
X127130279Y-113559813D01*
X127213013Y-113366612D01*
X127257688Y-113161245D01*
X127260500Y-113114038D01*
X127260500Y-112945962D01*
X127257688Y-112898755D01*
X127256182Y-112891833D01*
X127213015Y-112693397D01*
X127213012Y-112693386D01*
X127130281Y-112500191D01*
X127130280Y-112500189D01*
X127130279Y-112500187D01*
X127012477Y-112326135D01*
X126863865Y-112177523D01*
X126689813Y-112059721D01*
X126689811Y-112059720D01*
X126689808Y-112059718D01*
X126496613Y-111976987D01*
X126496602Y-111976984D01*
X126291250Y-111932312D01*
X126276492Y-111931433D01*
X126244038Y-111929500D01*
X124375962Y-111929500D01*
X124345416Y-111931319D01*
X124328749Y-111932312D01*
X124123397Y-111976984D01*
X124123386Y-111976987D01*
X123930191Y-112059718D01*
X123756137Y-112177521D01*
X123756132Y-112177525D01*
X123607525Y-112326132D01*
X123607521Y-112326137D01*
X123489718Y-112500191D01*
X123406987Y-112693386D01*
X123406984Y-112693397D01*
X123362312Y-112898749D01*
X123362312Y-112898755D01*
X123359500Y-112945962D01*
X123020500Y-112945962D01*
X123017688Y-112898755D01*
X123016182Y-112891833D01*
X122973015Y-112693397D01*
X122973012Y-112693386D01*
X122890281Y-112500191D01*
X122890280Y-112500189D01*
X122890279Y-112500187D01*
X122772477Y-112326135D01*
X122623865Y-112177523D01*
X122449813Y-112059721D01*
X122449811Y-112059720D01*
X122449808Y-112059718D01*
X122256613Y-111976987D01*
X122256602Y-111976984D01*
X122051250Y-111932312D01*
X122036492Y-111931433D01*
X122004038Y-111929500D01*
X120135962Y-111929500D01*
X120105416Y-111931319D01*
X120088749Y-111932312D01*
X119883397Y-111976984D01*
X119883386Y-111976987D01*
X119690191Y-112059718D01*
X119516137Y-112177521D01*
X119516132Y-112177525D01*
X119367525Y-112326132D01*
X119367521Y-112326137D01*
X119291379Y-112438637D01*
X119249721Y-112500187D01*
X119226542Y-112554313D01*
X119182058Y-112608190D01*
X119115507Y-112629465D01*
X119112555Y-112629500D01*
X114449773Y-112629500D01*
X114347913Y-112656793D01*
X114347910Y-112656794D01*
X114256585Y-112709521D01*
X112463486Y-114502619D01*
X112402163Y-114536104D01*
X112332471Y-114531120D01*
X112326993Y-114528926D01*
X112299117Y-114516989D01*
X112299115Y-114516988D01*
X112299112Y-114516987D01*
X112299109Y-114516986D01*
X112299102Y-114516984D01*
X112093750Y-114472312D01*
X112078992Y-114471433D01*
X112046538Y-114469500D01*
X110178462Y-114469500D01*
X110147916Y-114471319D01*
X110131249Y-114472312D01*
X109925897Y-114516984D01*
X109925886Y-114516987D01*
X109732691Y-114599718D01*
X109558637Y-114717521D01*
X109558632Y-114717525D01*
X109410025Y-114866132D01*
X109410021Y-114866137D01*
X109292218Y-115040191D01*
X109209487Y-115233386D01*
X109209484Y-115233397D01*
X109164812Y-115438749D01*
X109164812Y-115438755D01*
X109162000Y-115485962D01*
X108841820Y-115485962D01*
X108841820Y-113493750D01*
X108842046Y-113486263D01*
X108845806Y-113424108D01*
X108859591Y-113196203D01*
X108861396Y-113181341D01*
X108899072Y-112975751D01*
X108913101Y-112899196D01*
X108916680Y-112884678D01*
X109002020Y-112610814D01*
X109007315Y-112596851D01*
X109125056Y-112335243D01*
X109131989Y-112322032D01*
X109280400Y-112076532D01*
X109288887Y-112064236D01*
X109465797Y-111838428D01*
X109475710Y-111827238D01*
X109678550Y-111624400D01*
X109689742Y-111614485D01*
X109915549Y-111437578D01*
X109927854Y-111429085D01*
X110173324Y-111280695D01*
X110186573Y-111273741D01*
X110448146Y-111156018D01*
X110462139Y-111150711D01*
X110735998Y-111065375D01*
X110750523Y-111061795D01*
X111032662Y-111010093D01*
X111047516Y-111008289D01*
X111288942Y-110993687D01*
X111337912Y-110990726D01*
X111345395Y-110990500D01*
X111407209Y-110990501D01*
X111407213Y-110990500D01*
X136634108Y-110990500D01*
X136696249Y-110990500D01*
X136703736Y-110990726D01*
G37*
G04 #@! TD.AperFunction*
G04 #@! TD*
M02*
