G04 #@! TF.GenerationSoftware,KiCad,Pcbnew,9.0.4-9.0.4-0~ubuntu24.04.1*
G04 #@! TF.CreationDate,2025-08-30T18:29:49-07:00*
G04 #@! TF.ProjectId,2025-pmod-sma,32303235-2d70-46d6-9f64-2d736d612e6b,rev?*
G04 #@! TF.SameCoordinates,Original*
G04 #@! TF.FileFunction,Legend,Top*
G04 #@! TF.FilePolarity,Positive*
%FSLAX46Y46*%
G04 Gerber Fmt 4.6, Leading zero omitted, Abs format (unit mm)*
G04 Created by KiCad (PCBNEW 9.0.4-9.0.4-0~ubuntu24.04.1) date 2025-08-30 18:29:49*
%MOMM*%
%LPD*%
G01*
G04 APERTURE LIST*
%ADD10C,0.200000*%
%ADD11C,0.150000*%
%ADD12C,0.120000*%
G04 APERTURE END LIST*
D10*
X118114435Y-113842420D02*
X117257292Y-113842420D01*
X117685863Y-113842420D02*
X117685863Y-112242420D01*
X117685863Y-112242420D02*
X117543006Y-112470991D01*
X117543006Y-112470991D02*
X117400149Y-112623372D01*
X117400149Y-112623372D02*
X117257292Y-112699563D01*
X117257292Y-114970711D02*
X117328720Y-114894520D01*
X117328720Y-114894520D02*
X117471578Y-114818330D01*
X117471578Y-114818330D02*
X117828720Y-114818330D01*
X117828720Y-114818330D02*
X117971578Y-114894520D01*
X117971578Y-114894520D02*
X118043006Y-114970711D01*
X118043006Y-114970711D02*
X118114435Y-115123092D01*
X118114435Y-115123092D02*
X118114435Y-115275473D01*
X118114435Y-115275473D02*
X118043006Y-115504044D01*
X118043006Y-115504044D02*
X117185863Y-116418330D01*
X117185863Y-116418330D02*
X118114435Y-116418330D01*
X117185863Y-117394240D02*
X118114435Y-117394240D01*
X118114435Y-117394240D02*
X117614435Y-118003764D01*
X117614435Y-118003764D02*
X117828720Y-118003764D01*
X117828720Y-118003764D02*
X117971578Y-118079954D01*
X117971578Y-118079954D02*
X118043006Y-118156145D01*
X118043006Y-118156145D02*
X118114435Y-118308526D01*
X118114435Y-118308526D02*
X118114435Y-118689478D01*
X118114435Y-118689478D02*
X118043006Y-118841859D01*
X118043006Y-118841859D02*
X117971578Y-118918050D01*
X117971578Y-118918050D02*
X117828720Y-118994240D01*
X117828720Y-118994240D02*
X117400149Y-118994240D01*
X117400149Y-118994240D02*
X117257292Y-118918050D01*
X117257292Y-118918050D02*
X117185863Y-118841859D01*
X117971578Y-120503483D02*
X117971578Y-121570150D01*
X117614435Y-119893960D02*
X117257292Y-121036817D01*
X117257292Y-121036817D02*
X118185863Y-121036817D01*
X117185863Y-122546060D02*
X118185863Y-122546060D01*
X118185863Y-122546060D02*
X117543006Y-124146060D01*
X117543006Y-125807684D02*
X117400149Y-125731494D01*
X117400149Y-125731494D02*
X117328720Y-125655303D01*
X117328720Y-125655303D02*
X117257292Y-125502922D01*
X117257292Y-125502922D02*
X117257292Y-125426732D01*
X117257292Y-125426732D02*
X117328720Y-125274351D01*
X117328720Y-125274351D02*
X117400149Y-125198160D01*
X117400149Y-125198160D02*
X117543006Y-125121970D01*
X117543006Y-125121970D02*
X117828720Y-125121970D01*
X117828720Y-125121970D02*
X117971578Y-125198160D01*
X117971578Y-125198160D02*
X118043006Y-125274351D01*
X118043006Y-125274351D02*
X118114435Y-125426732D01*
X118114435Y-125426732D02*
X118114435Y-125502922D01*
X118114435Y-125502922D02*
X118043006Y-125655303D01*
X118043006Y-125655303D02*
X117971578Y-125731494D01*
X117971578Y-125731494D02*
X117828720Y-125807684D01*
X117828720Y-125807684D02*
X117543006Y-125807684D01*
X117543006Y-125807684D02*
X117400149Y-125883875D01*
X117400149Y-125883875D02*
X117328720Y-125960065D01*
X117328720Y-125960065D02*
X117257292Y-126112446D01*
X117257292Y-126112446D02*
X117257292Y-126417208D01*
X117257292Y-126417208D02*
X117328720Y-126569589D01*
X117328720Y-126569589D02*
X117400149Y-126645780D01*
X117400149Y-126645780D02*
X117543006Y-126721970D01*
X117543006Y-126721970D02*
X117828720Y-126721970D01*
X117828720Y-126721970D02*
X117971578Y-126645780D01*
X117971578Y-126645780D02*
X118043006Y-126569589D01*
X118043006Y-126569589D02*
X118114435Y-126417208D01*
X118114435Y-126417208D02*
X118114435Y-126112446D01*
X118114435Y-126112446D02*
X118043006Y-125960065D01*
X118043006Y-125960065D02*
X117971578Y-125883875D01*
X117971578Y-125883875D02*
X117828720Y-125807684D01*
X117400149Y-129297880D02*
X117685863Y-129297880D01*
X117685863Y-129297880D02*
X117828720Y-129221690D01*
X117828720Y-129221690D02*
X117900149Y-129145499D01*
X117900149Y-129145499D02*
X118043006Y-128916928D01*
X118043006Y-128916928D02*
X118114435Y-128612166D01*
X118114435Y-128612166D02*
X118114435Y-128002642D01*
X118114435Y-128002642D02*
X118043006Y-127850261D01*
X118043006Y-127850261D02*
X117971578Y-127774070D01*
X117971578Y-127774070D02*
X117828720Y-127697880D01*
X117828720Y-127697880D02*
X117543006Y-127697880D01*
X117543006Y-127697880D02*
X117400149Y-127774070D01*
X117400149Y-127774070D02*
X117328720Y-127850261D01*
X117328720Y-127850261D02*
X117257292Y-128002642D01*
X117257292Y-128002642D02*
X117257292Y-128383594D01*
X117257292Y-128383594D02*
X117328720Y-128535975D01*
X117328720Y-128535975D02*
X117400149Y-128612166D01*
X117400149Y-128612166D02*
X117543006Y-128688356D01*
X117543006Y-128688356D02*
X117828720Y-128688356D01*
X117828720Y-128688356D02*
X117971578Y-128612166D01*
X117971578Y-128612166D02*
X118043006Y-128535975D01*
X118043006Y-128535975D02*
X118114435Y-128383594D01*
X118114435Y-131873790D02*
X117257292Y-131873790D01*
X117685863Y-131873790D02*
X117685863Y-130273790D01*
X117685863Y-130273790D02*
X117543006Y-130502361D01*
X117543006Y-130502361D02*
X117400149Y-130654742D01*
X117400149Y-130654742D02*
X117257292Y-130730933D01*
X119043006Y-130273790D02*
X119185863Y-130273790D01*
X119185863Y-130273790D02*
X119328720Y-130349980D01*
X119328720Y-130349980D02*
X119400149Y-130426171D01*
X119400149Y-130426171D02*
X119471577Y-130578552D01*
X119471577Y-130578552D02*
X119543006Y-130883314D01*
X119543006Y-130883314D02*
X119543006Y-131264266D01*
X119543006Y-131264266D02*
X119471577Y-131569028D01*
X119471577Y-131569028D02*
X119400149Y-131721409D01*
X119400149Y-131721409D02*
X119328720Y-131797600D01*
X119328720Y-131797600D02*
X119185863Y-131873790D01*
X119185863Y-131873790D02*
X119043006Y-131873790D01*
X119043006Y-131873790D02*
X118900149Y-131797600D01*
X118900149Y-131797600D02*
X118828720Y-131721409D01*
X118828720Y-131721409D02*
X118757291Y-131569028D01*
X118757291Y-131569028D02*
X118685863Y-131264266D01*
X118685863Y-131264266D02*
X118685863Y-130883314D01*
X118685863Y-130883314D02*
X118757291Y-130578552D01*
X118757291Y-130578552D02*
X118828720Y-130426171D01*
X118828720Y-130426171D02*
X118900149Y-130349980D01*
X118900149Y-130349980D02*
X119043006Y-130273790D01*
D11*
X112696666Y-129994819D02*
X112696666Y-130709104D01*
X112696666Y-130709104D02*
X112649047Y-130851961D01*
X112649047Y-130851961D02*
X112553809Y-130947200D01*
X112553809Y-130947200D02*
X112410952Y-130994819D01*
X112410952Y-130994819D02*
X112315714Y-130994819D01*
X113696666Y-130994819D02*
X113125238Y-130994819D01*
X113410952Y-130994819D02*
X113410952Y-129994819D01*
X113410952Y-129994819D02*
X113315714Y-130137676D01*
X113315714Y-130137676D02*
X113220476Y-130232914D01*
X113220476Y-130232914D02*
X113125238Y-130280533D01*
X133016666Y-122644819D02*
X133016666Y-123359104D01*
X133016666Y-123359104D02*
X132969047Y-123501961D01*
X132969047Y-123501961D02*
X132873809Y-123597200D01*
X132873809Y-123597200D02*
X132730952Y-123644819D01*
X132730952Y-123644819D02*
X132635714Y-123644819D01*
X133397619Y-122644819D02*
X134016666Y-122644819D01*
X134016666Y-122644819D02*
X133683333Y-123025771D01*
X133683333Y-123025771D02*
X133826190Y-123025771D01*
X133826190Y-123025771D02*
X133921428Y-123073390D01*
X133921428Y-123073390D02*
X133969047Y-123121009D01*
X133969047Y-123121009D02*
X134016666Y-123216247D01*
X134016666Y-123216247D02*
X134016666Y-123454342D01*
X134016666Y-123454342D02*
X133969047Y-123549580D01*
X133969047Y-123549580D02*
X133921428Y-123597200D01*
X133921428Y-123597200D02*
X133826190Y-123644819D01*
X133826190Y-123644819D02*
X133540476Y-123644819D01*
X133540476Y-123644819D02*
X133445238Y-123597200D01*
X133445238Y-123597200D02*
X133397619Y-123549580D01*
X127936666Y-112484819D02*
X127936666Y-113199104D01*
X127936666Y-113199104D02*
X127889047Y-113341961D01*
X127889047Y-113341961D02*
X127793809Y-113437200D01*
X127793809Y-113437200D02*
X127650952Y-113484819D01*
X127650952Y-113484819D02*
X127555714Y-113484819D01*
X128365238Y-112580057D02*
X128412857Y-112532438D01*
X128412857Y-112532438D02*
X128508095Y-112484819D01*
X128508095Y-112484819D02*
X128746190Y-112484819D01*
X128746190Y-112484819D02*
X128841428Y-112532438D01*
X128841428Y-112532438D02*
X128889047Y-112580057D01*
X128889047Y-112580057D02*
X128936666Y-112675295D01*
X128936666Y-112675295D02*
X128936666Y-112770533D01*
X128936666Y-112770533D02*
X128889047Y-112913390D01*
X128889047Y-112913390D02*
X128317619Y-113484819D01*
X128317619Y-113484819D02*
X128936666Y-113484819D01*
D12*
G04 #@! TO.C,J1*
X101812500Y-115140000D02*
X107812500Y-115140000D01*
X101812500Y-116000000D02*
X101812500Y-115140000D01*
X101812500Y-117680000D02*
X107812500Y-117680000D01*
X101812500Y-118540000D02*
X101812500Y-117680000D01*
X101812500Y-120220000D02*
X107812500Y-120220000D01*
X101812500Y-121080000D02*
X101812500Y-120220000D01*
X101812500Y-122760000D02*
X107812500Y-122760000D01*
X101812500Y-123620000D02*
X101812500Y-122760000D01*
X101812500Y-125300000D02*
X107812500Y-125300000D01*
X101812500Y-126160000D02*
X101812500Y-125300000D01*
X107812500Y-114190000D02*
X107812500Y-129650000D01*
X107812500Y-116000000D02*
X101812500Y-116000000D01*
X107812500Y-118540000D02*
X101812500Y-118540000D01*
X107812500Y-121080000D02*
X101812500Y-121080000D01*
X107812500Y-123620000D02*
X101812500Y-123620000D01*
X107812500Y-126160000D02*
X101812500Y-126160000D01*
X107812500Y-129650000D02*
X110572500Y-129650000D01*
X110572500Y-114190000D02*
X107812500Y-114190000D01*
X110572500Y-116840000D02*
X107812500Y-116840000D01*
X110572500Y-119380000D02*
X107812500Y-119380000D01*
X110572500Y-121920000D02*
X107812500Y-121920000D01*
X110572500Y-124460000D02*
X107812500Y-124460000D01*
X110572500Y-127000000D02*
X107812500Y-127000000D01*
X110572500Y-129650000D02*
X110572500Y-114190000D01*
X110885142Y-115140000D02*
X110572500Y-115140000D01*
X110885142Y-116000000D02*
X110572500Y-116000000D01*
X110885142Y-117680000D02*
X110572500Y-117680000D01*
X110885142Y-118540000D02*
X110572500Y-118540000D01*
X110885142Y-120220000D02*
X110572500Y-120220000D01*
X110885142Y-121080000D02*
X110572500Y-121080000D01*
X110885142Y-122760000D02*
X110572500Y-122760000D01*
X110885142Y-123620000D02*
X110572500Y-123620000D01*
X110885142Y-125300000D02*
X110572500Y-125300000D01*
X110885142Y-126160000D02*
X110572500Y-126160000D01*
X110885142Y-127840000D02*
X110572500Y-127840000D01*
X110885142Y-128700000D02*
X110572500Y-128700000D01*
X113342500Y-127840000D02*
X113039858Y-127840000D01*
X113342500Y-128700000D02*
X113039858Y-128700000D01*
X113425142Y-115140000D02*
X113039858Y-115140000D01*
X113425142Y-116000000D02*
X113039858Y-116000000D01*
X113425142Y-117680000D02*
X113039858Y-117680000D01*
X113425142Y-118540000D02*
X113039858Y-118540000D01*
X113425142Y-120220000D02*
X113039858Y-120220000D01*
X113425142Y-121080000D02*
X113039858Y-121080000D01*
X113425142Y-122760000D02*
X113039858Y-122760000D01*
X113425142Y-123620000D02*
X113039858Y-123620000D01*
X113425142Y-125300000D02*
X113039858Y-125300000D01*
X113425142Y-126160000D02*
X113039858Y-126160000D01*
X115772500Y-128270000D02*
X115772500Y-129540000D01*
X115772500Y-129540000D02*
X114502500Y-129540000D01*
X107812500Y-128700000D02*
X101812500Y-128700000D01*
X101812500Y-127840000D01*
X107812500Y-127840000D01*
X107812500Y-128700000D01*
G36*
X107812500Y-128700000D02*
G01*
X101812500Y-128700000D01*
X101812500Y-127840000D01*
X107812500Y-127840000D01*
X107812500Y-128700000D01*
G37*
G04 #@! TO.C,J3*
X129250000Y-132330000D02*
X129250000Y-124130000D01*
X136950000Y-128230000D02*
X137450000Y-128730000D01*
X137450000Y-124130000D02*
X129250000Y-124130000D01*
X137450000Y-127730000D02*
X136950000Y-128230000D01*
X137450000Y-132330000D02*
X129250000Y-132330000D01*
X137450000Y-132330000D02*
X137450000Y-124130000D01*
G04 #@! TO.C,J2*
X120540000Y-111650000D02*
X121920000Y-111650000D01*
X120540000Y-113030000D02*
X120540000Y-111650000D01*
X120540000Y-114300000D02*
X120540000Y-132190000D01*
X120540000Y-114300000D02*
X123190000Y-114300000D01*
X120540000Y-132190000D02*
X125840000Y-132190000D01*
X123190000Y-111650000D02*
X125840000Y-111650000D01*
X123190000Y-114300000D02*
X123190000Y-111650000D01*
X125840000Y-111650000D02*
X125840000Y-132190000D01*
G04 #@! TD*
M02*
