G04 #@! TF.GenerationSoftware,KiCad,Pcbnew,9.0.1-unknown-1000.20250420git906ef8b.fc41*
G04 #@! TF.CreationDate,2025-04-22T06:59:41-07:00*
G04 #@! TF.ProjectId,baggage-label-felix,62616767-6167-4652-9d6c-6162656c2d66,rev?*
G04 #@! TF.SameCoordinates,Original*
G04 #@! TF.FileFunction,Legend,Top*
G04 #@! TF.FilePolarity,Positive*
%FSLAX46Y46*%
G04 Gerber Fmt 4.6, Leading zero omitted, Abs format (unit mm)*
G04 Created by KiCad (PCBNEW 9.0.1-unknown-1000.20250420git906ef8b.fc41) date 2025-04-22 06:59:41*
%MOMM*%
%LPD*%
G01*
G04 APERTURE LIST*
%ADD10C,0.300000*%
%ADD11C,0.150000*%
%ADD12C,0.500000*%
G04 APERTURE END LIST*
D10*
X110948907Y-89192386D02*
X110275472Y-88518951D01*
X111874880Y-87761337D02*
X110359651Y-89276565D01*
X110359651Y-89276565D02*
X110107113Y-89360745D01*
X110107113Y-89360745D02*
X109854575Y-89276565D01*
X109854575Y-89276565D02*
X109686216Y-89108207D01*
X110107114Y-86161929D02*
X110359652Y-86246108D01*
X110359652Y-86246108D02*
X110696369Y-86582826D01*
X110696369Y-86582826D02*
X110780549Y-86835364D01*
X110780549Y-86835364D02*
X110696369Y-87087902D01*
X110696369Y-87087902D02*
X110022934Y-87761337D01*
X110022934Y-87761337D02*
X109770396Y-87845516D01*
X109770396Y-87845516D02*
X109517858Y-87761337D01*
X109517858Y-87761337D02*
X109181140Y-87424619D01*
X109181140Y-87424619D02*
X109096961Y-87172081D01*
X109096961Y-87172081D02*
X109181140Y-86919543D01*
X109181140Y-86919543D02*
X109349499Y-86751184D01*
X109349499Y-86751184D02*
X110359652Y-87424619D01*
X109096961Y-84983417D02*
X109181140Y-85235956D01*
X109181140Y-85235956D02*
X109096961Y-85488494D01*
X109096961Y-85488494D02*
X107581732Y-87003723D01*
X108423526Y-84309982D02*
X107245015Y-85488494D01*
X106655759Y-86077749D02*
X106824118Y-86077749D01*
X106824118Y-86077749D02*
X106824118Y-85909390D01*
X106824118Y-85909390D02*
X106655759Y-85909390D01*
X106655759Y-85909390D02*
X106655759Y-86077749D01*
X106655759Y-86077749D02*
X106824118Y-85909390D01*
X107750091Y-83636547D02*
X105645607Y-83889086D01*
X106571580Y-84815059D02*
X106824118Y-82710574D01*
X105982324Y-82205498D02*
X105982324Y-82037139D01*
X105982324Y-82037139D02*
X106150682Y-82037139D01*
X106150682Y-82037139D02*
X106150682Y-82205498D01*
X106150682Y-82205498D02*
X105982324Y-82205498D01*
X105982324Y-82205498D02*
X106150682Y-82037139D01*
X105308889Y-81195345D02*
X103541122Y-82963112D01*
X104467095Y-81700421D02*
X104635454Y-80521910D01*
X103456942Y-81700421D02*
X104803813Y-81700421D01*
X103120225Y-79175040D02*
X103372763Y-79259219D01*
X103372763Y-79259219D02*
X103709480Y-79595937D01*
X103709480Y-79595937D02*
X103793660Y-79848475D01*
X103793660Y-79848475D02*
X103709480Y-80101013D01*
X103709480Y-80101013D02*
X103036045Y-80774448D01*
X103036045Y-80774448D02*
X102783507Y-80858627D01*
X102783507Y-80858627D02*
X102530969Y-80774448D01*
X102530969Y-80774448D02*
X102194251Y-80437730D01*
X102194251Y-80437730D02*
X102110072Y-80185192D01*
X102110072Y-80185192D02*
X102194251Y-79932654D01*
X102194251Y-79932654D02*
X102362610Y-79764295D01*
X102362610Y-79764295D02*
X103372763Y-80437730D01*
X101604996Y-77491452D02*
X99837229Y-79259219D01*
X101520817Y-77575632D02*
X101773355Y-77659811D01*
X101773355Y-77659811D02*
X102110072Y-77996529D01*
X102110072Y-77996529D02*
X102194252Y-78249067D01*
X102194252Y-78249067D02*
X102194252Y-78417425D01*
X102194252Y-78417425D02*
X102110072Y-78669964D01*
X102110072Y-78669964D02*
X101604996Y-79175040D01*
X101604996Y-79175040D02*
X101352458Y-79259219D01*
X101352458Y-79259219D02*
X101184099Y-79259219D01*
X101184099Y-79259219D02*
X100931561Y-79175040D01*
X100931561Y-79175040D02*
X100594843Y-78838322D01*
X100594843Y-78838322D02*
X100510664Y-78585784D01*
X100005588Y-75892044D02*
X98237821Y-77659811D01*
X99921408Y-75976223D02*
X100173946Y-76060403D01*
X100173946Y-76060403D02*
X100510664Y-76397120D01*
X100510664Y-76397120D02*
X100594843Y-76649658D01*
X100594843Y-76649658D02*
X100594843Y-76818017D01*
X100594843Y-76818017D02*
X100510664Y-77070555D01*
X100510664Y-77070555D02*
X100005588Y-77575632D01*
X100005588Y-77575632D02*
X99753049Y-77659811D01*
X99753049Y-77659811D02*
X99584691Y-77659811D01*
X99584691Y-77659811D02*
X99332153Y-77575632D01*
X99332153Y-77575632D02*
X98995435Y-77238914D01*
X98995435Y-77238914D02*
X98911256Y-76986376D01*
X99163794Y-75050250D02*
X97985282Y-76228761D01*
X97396027Y-76818017D02*
X97564385Y-76818017D01*
X97564385Y-76818017D02*
X97564385Y-76649658D01*
X97564385Y-76649658D02*
X97396027Y-76649658D01*
X97396027Y-76649658D02*
X97396027Y-76818017D01*
X97396027Y-76818017D02*
X97564385Y-76649658D01*
X97564386Y-73619201D02*
X97816924Y-73703380D01*
X97816924Y-73703380D02*
X98153641Y-74040098D01*
X98153641Y-74040098D02*
X98237821Y-74292636D01*
X98237821Y-74292636D02*
X98153641Y-74545174D01*
X98153641Y-74545174D02*
X97480206Y-75218609D01*
X97480206Y-75218609D02*
X97227668Y-75302788D01*
X97227668Y-75302788D02*
X96975130Y-75218609D01*
X96975130Y-75218609D02*
X96638412Y-74881891D01*
X96638412Y-74881891D02*
X96554233Y-74629353D01*
X96554233Y-74629353D02*
X96638412Y-74376815D01*
X96638412Y-74376815D02*
X96806771Y-74208456D01*
X96806771Y-74208456D02*
X97816924Y-74881891D01*
X94870646Y-72440689D02*
X94870646Y-72609048D01*
X94870646Y-72609048D02*
X94954825Y-72861586D01*
X94954825Y-72861586D02*
X95123184Y-73029945D01*
X95123184Y-73029945D02*
X95375722Y-73114125D01*
X95375722Y-73114125D02*
X95544081Y-73114125D01*
X95544081Y-73114125D02*
X95796619Y-73029945D01*
X95796619Y-73029945D02*
X95964977Y-72861586D01*
X95964977Y-72861586D02*
X96049157Y-72609048D01*
X96049157Y-72609048D02*
X96049157Y-72440689D01*
X96049157Y-72440689D02*
X95964977Y-72188151D01*
X95964977Y-72188151D02*
X95796619Y-72019793D01*
X95796619Y-72019793D02*
X95544081Y-71935613D01*
X95544081Y-71935613D02*
X95375722Y-71935613D01*
X94702287Y-72609048D02*
X95375722Y-71935613D01*
X95375722Y-71935613D02*
X95375722Y-71767254D01*
X95375722Y-71767254D02*
X95291542Y-71683075D01*
X95291542Y-71683075D02*
X95039004Y-71598896D01*
X95039004Y-71598896D02*
X94786466Y-71683075D01*
X94786466Y-71683075D02*
X94365569Y-72103972D01*
X94365569Y-72103972D02*
X94281390Y-72524869D01*
X94281390Y-72524869D02*
X94365569Y-72945766D01*
X94365569Y-72945766D02*
X94618107Y-73366663D01*
X94618107Y-73366663D02*
X95039004Y-73619201D01*
X95039004Y-73619201D02*
X95459901Y-73703380D01*
X95459901Y-73703380D02*
X95880798Y-73619201D01*
X95880798Y-73619201D02*
X96301695Y-73366663D01*
X96301695Y-73366663D02*
X96554233Y-72945766D01*
X96554233Y-72945766D02*
X96638412Y-72524869D01*
X96638412Y-72524869D02*
X96554233Y-72103972D01*
X96554233Y-72103972D02*
X96301695Y-71683075D01*
X96301695Y-71683075D02*
X95880798Y-71430537D01*
X95880798Y-71430537D02*
X95459901Y-71346358D01*
X92597802Y-70841281D02*
X94028852Y-69410232D01*
X94028852Y-69410232D02*
X94281390Y-69326052D01*
X94281390Y-69326052D02*
X94449748Y-69326052D01*
X94449748Y-69326052D02*
X94702287Y-69410232D01*
X94702287Y-69410232D02*
X94954825Y-69662770D01*
X94954825Y-69662770D02*
X95039004Y-69915308D01*
X93692134Y-69746949D02*
X93944672Y-69831129D01*
X93944672Y-69831129D02*
X94281390Y-70167846D01*
X94281390Y-70167846D02*
X94365569Y-70420384D01*
X94365569Y-70420384D02*
X94365569Y-70588743D01*
X94365569Y-70588743D02*
X94281390Y-70841281D01*
X94281390Y-70841281D02*
X93776313Y-71346357D01*
X93776313Y-71346357D02*
X93523775Y-71430537D01*
X93523775Y-71430537D02*
X93355417Y-71430537D01*
X93355417Y-71430537D02*
X93102878Y-71346357D01*
X93102878Y-71346357D02*
X92766161Y-71009640D01*
X92766161Y-71009640D02*
X92681981Y-70757102D01*
X92934519Y-68820976D02*
X91756008Y-69999487D01*
X91924367Y-69831128D02*
X91756008Y-69831128D01*
X91756008Y-69831128D02*
X91503470Y-69746949D01*
X91503470Y-69746949D02*
X91250932Y-69494411D01*
X91250932Y-69494411D02*
X91166752Y-69241873D01*
X91166752Y-69241873D02*
X91250932Y-68989335D01*
X91250932Y-68989335D02*
X92176905Y-68063361D01*
X91250932Y-68989335D02*
X90998394Y-69073514D01*
X90998394Y-69073514D02*
X90745856Y-68989335D01*
X90745856Y-68989335D02*
X90493317Y-68736796D01*
X90493317Y-68736796D02*
X90409138Y-68484258D01*
X90409138Y-68484258D02*
X90493317Y-68231720D01*
X90493317Y-68231720D02*
X91419291Y-67305747D01*
X89819883Y-65706339D02*
X88893909Y-66632312D01*
X88893909Y-66632312D02*
X88809730Y-66884850D01*
X88809730Y-66884850D02*
X88893909Y-67137389D01*
X88893909Y-67137389D02*
X89230627Y-67474106D01*
X89230627Y-67474106D02*
X89483165Y-67558285D01*
X89735703Y-65790518D02*
X89988241Y-65874698D01*
X89988241Y-65874698D02*
X90409138Y-66295595D01*
X90409138Y-66295595D02*
X90493318Y-66548133D01*
X90493318Y-66548133D02*
X90409138Y-66800671D01*
X90409138Y-66800671D02*
X90240780Y-66969030D01*
X90240780Y-66969030D02*
X89988241Y-67053209D01*
X89988241Y-67053209D02*
X89735703Y-66969030D01*
X89735703Y-66969030D02*
X89314806Y-66548133D01*
X89314806Y-66548133D02*
X89062268Y-66463953D01*
X88978089Y-64864545D02*
X87799577Y-66043056D01*
X87210322Y-66632312D02*
X87378681Y-66632312D01*
X87378681Y-66632312D02*
X87378681Y-66463953D01*
X87378681Y-66463953D02*
X87210322Y-66463953D01*
X87210322Y-66463953D02*
X87210322Y-66632312D01*
X87210322Y-66632312D02*
X87378681Y-66463953D01*
X87883757Y-63770213D02*
X87967936Y-64022751D01*
X87967936Y-64022751D02*
X87883757Y-64275290D01*
X87883757Y-64275290D02*
X86368528Y-65790518D01*
X87041963Y-63265137D02*
X87041963Y-63096778D01*
X87041963Y-63096778D02*
X87210322Y-63096778D01*
X87210322Y-63096778D02*
X87210322Y-63265137D01*
X87210322Y-63265137D02*
X87041963Y-63265137D01*
X87041963Y-63265137D02*
X87210322Y-63096778D01*
X85526734Y-61581549D02*
X85779272Y-61665729D01*
X85779272Y-61665729D02*
X86115990Y-62002446D01*
X86115990Y-62002446D02*
X86200169Y-62254985D01*
X86200169Y-62254985D02*
X86200169Y-62423343D01*
X86200169Y-62423343D02*
X86115990Y-62675881D01*
X86115990Y-62675881D02*
X85610914Y-63180958D01*
X85610914Y-63180958D02*
X85358376Y-63265137D01*
X85358376Y-63265137D02*
X85190017Y-63265137D01*
X85190017Y-63265137D02*
X84937479Y-63180958D01*
X84937479Y-63180958D02*
X84600761Y-62844240D01*
X84600761Y-62844240D02*
X84516582Y-62591702D01*
X84600761Y-60487218D02*
X84684941Y-60739756D01*
X84684941Y-60739756D02*
X84684941Y-60908115D01*
X84684941Y-60908115D02*
X84600761Y-61160653D01*
X84600761Y-61160653D02*
X84095685Y-61665729D01*
X84095685Y-61665729D02*
X83843147Y-61749908D01*
X83843147Y-61749908D02*
X83674788Y-61749908D01*
X83674788Y-61749908D02*
X83422250Y-61665729D01*
X83422250Y-61665729D02*
X83169712Y-61413191D01*
X83169712Y-61413191D02*
X83085532Y-61160653D01*
X83085532Y-61160653D02*
X83085532Y-60992294D01*
X83085532Y-60992294D02*
X83169712Y-60739756D01*
X83169712Y-60739756D02*
X83674788Y-60234680D01*
X83674788Y-60234680D02*
X83927326Y-60150500D01*
X83927326Y-60150500D02*
X84095685Y-60150500D01*
X84095685Y-60150500D02*
X84348223Y-60234680D01*
X84348223Y-60234680D02*
X84600761Y-60487218D01*
X83253891Y-59140347D02*
X82075380Y-60318859D01*
X82243738Y-60150500D02*
X82075380Y-60150500D01*
X82075380Y-60150500D02*
X81822842Y-60066321D01*
X81822842Y-60066321D02*
X81570303Y-59813782D01*
X81570303Y-59813782D02*
X81486124Y-59561244D01*
X81486124Y-59561244D02*
X81570303Y-59308706D01*
X81570303Y-59308706D02*
X82496277Y-58382733D01*
X81570303Y-59308706D02*
X81317765Y-59392886D01*
X81317765Y-59392886D02*
X81065227Y-59308706D01*
X81065227Y-59308706D02*
X80812689Y-59056168D01*
X80812689Y-59056168D02*
X80728510Y-58803630D01*
X80728510Y-58803630D02*
X80812689Y-58551092D01*
X80812689Y-58551092D02*
X81738662Y-57625119D01*
D11*
G36*
X99838594Y-92331577D02*
G01*
X100166297Y-92789761D01*
X100455053Y-93539175D01*
X100679355Y-94693686D01*
X100798665Y-96391026D01*
X100785194Y-99870702D01*
X100866539Y-99789358D01*
X103910996Y-96756299D01*
X104214999Y-96525358D01*
X104479068Y-96451153D01*
X104728875Y-96499944D01*
X104989198Y-96686353D01*
X105162336Y-96923762D01*
X105241152Y-97191129D01*
X105227014Y-97504461D01*
X105099973Y-97875443D01*
X104873140Y-98182676D01*
X100732864Y-102161299D01*
X96597770Y-106133704D01*
X96324602Y-106323436D01*
X96009189Y-106391727D01*
X95694327Y-106337672D01*
X95426307Y-106157020D01*
X95241015Y-105883836D01*
X95185900Y-105568438D01*
X95254191Y-105253025D01*
X95443923Y-104979857D01*
X97265105Y-103298567D01*
X99086287Y-101604841D01*
X97501937Y-101606112D01*
X95480191Y-101698102D01*
X91885493Y-101965451D01*
X91498427Y-101923342D01*
X91219194Y-101750950D01*
X91044944Y-101491302D01*
X90981896Y-101165477D01*
X91039677Y-100838001D01*
X91225412Y-100562389D01*
X91562015Y-100393553D01*
X92554102Y-100198698D01*
X94761562Y-100016811D01*
X96927040Y-99946914D01*
X99109603Y-99934949D01*
X99110833Y-98329144D01*
X99030849Y-95655300D01*
X98932925Y-94535648D01*
X98811901Y-93966667D01*
X98602884Y-93439830D01*
X98477612Y-93039576D01*
X98519023Y-92707576D01*
X98718942Y-92407740D01*
X98939411Y-92246708D01*
X99217889Y-92152309D01*
X99561740Y-92163007D01*
X99838594Y-92331577D01*
G37*
G36*
X92876334Y-86657639D02*
G01*
X93665226Y-86884610D01*
X94490594Y-87260668D01*
X95193854Y-87704738D01*
X95788989Y-88215653D01*
X96397616Y-88914856D01*
X96831389Y-89605497D01*
X97112319Y-90294869D01*
X97254225Y-90992762D01*
X97244425Y-91769914D01*
X97058324Y-92503713D01*
X96688394Y-93213106D01*
X96109185Y-93911835D01*
X95307226Y-94614853D01*
X94501107Y-95137410D01*
X93684268Y-95499068D01*
X92847637Y-95712293D01*
X92089440Y-95774332D01*
X91400801Y-95702208D01*
X90766156Y-95503274D01*
X90172719Y-95174977D01*
X89611476Y-94705073D01*
X89015996Y-94028853D01*
X88610733Y-93400825D01*
X88363850Y-92810836D01*
X88262282Y-92244508D01*
X88302733Y-91814496D01*
X89708364Y-91814496D01*
X89817409Y-92423328D01*
X90115296Y-93038176D01*
X90639421Y-93677128D01*
X91147318Y-94061981D01*
X91714567Y-94268515D01*
X92366306Y-94303532D01*
X93024255Y-94178797D01*
X93800528Y-93876096D01*
X94723740Y-93349160D01*
X92094294Y-92419139D01*
X90613416Y-91973888D01*
X89708364Y-91814496D01*
X88302733Y-91814496D01*
X88309657Y-91740894D01*
X88497806Y-91277676D01*
X88841036Y-90838363D01*
X89145423Y-90607380D01*
X89517774Y-90459864D01*
X89976795Y-90399442D01*
X90547196Y-90442003D01*
X91149872Y-90591329D01*
X92427962Y-91019186D01*
X95696246Y-92179769D01*
X95756673Y-91644586D01*
X95727844Y-91136334D01*
X95612311Y-90647178D01*
X95413302Y-90183955D01*
X95122065Y-89728298D01*
X94727366Y-89276239D01*
X94279038Y-88896746D01*
X93637766Y-88488183D01*
X93033801Y-88204010D01*
X92587679Y-88094548D01*
X92255947Y-88108403D01*
X91921923Y-88145370D01*
X91687901Y-88101700D01*
X91522811Y-87994935D01*
X91370496Y-87767152D01*
X91315046Y-87478372D01*
X91363285Y-87189032D01*
X91514003Y-86960255D01*
X91849662Y-86730266D01*
X92289553Y-86622850D01*
X92876334Y-86657639D01*
G37*
G36*
X86729016Y-79429458D02*
G01*
X86967523Y-79593145D01*
X87122076Y-79848701D01*
X87136685Y-80181118D01*
X86973741Y-80641814D01*
X87675444Y-80800125D01*
X88304266Y-81044909D01*
X88879083Y-81384662D01*
X89396975Y-81823640D01*
X89931515Y-82462576D01*
X90299617Y-83132438D01*
X90516846Y-83843561D01*
X90587091Y-84610593D01*
X90507079Y-85394021D01*
X90273016Y-86130553D01*
X89878271Y-86834552D01*
X89304232Y-87516195D01*
X88478724Y-88228575D01*
X87661294Y-88725537D01*
X86842129Y-89034672D01*
X86007970Y-89172098D01*
X85158978Y-89138833D01*
X84377443Y-88932300D01*
X83644267Y-88549924D01*
X82945897Y-87973174D01*
X82527147Y-87499769D01*
X82261909Y-87088468D01*
X82117427Y-86727102D01*
X81972354Y-85782056D01*
X79617225Y-87935984D01*
X78475580Y-88896459D01*
X78075527Y-89097757D01*
X77742576Y-89089411D01*
X77428465Y-88888688D01*
X77229054Y-88614587D01*
X77173395Y-88358219D01*
X77241858Y-88094667D01*
X77463697Y-87798569D01*
X78549002Y-86797577D01*
X80474556Y-85141346D01*
X83336640Y-85141346D01*
X83375416Y-85747860D01*
X83595014Y-86312340D01*
X84016845Y-86855595D01*
X84540795Y-87298556D01*
X85047433Y-87579605D01*
X85546582Y-87723789D01*
X86050974Y-87743648D01*
X86545361Y-87646845D01*
X87071110Y-87424981D01*
X87639980Y-87055072D01*
X88262299Y-86505348D01*
X88676767Y-85972334D01*
X88923896Y-85376416D01*
X89010978Y-84696600D01*
X88931935Y-84015599D01*
X88697092Y-83430339D01*
X88302712Y-82917904D01*
X87793024Y-82503314D01*
X87301191Y-82273884D01*
X86934459Y-82195361D01*
X86179985Y-82108086D01*
X85832846Y-82118449D01*
X84854123Y-83132404D01*
X84180570Y-83794558D01*
X83489402Y-84461893D01*
X83336640Y-85141346D01*
X80474556Y-85141346D01*
X81257870Y-84467592D01*
X82163563Y-83666074D01*
X83033459Y-82830860D01*
X84794591Y-80964810D01*
X85772745Y-79733036D01*
X85894502Y-79587445D01*
X86148497Y-79415533D01*
X86439562Y-79366727D01*
X86729016Y-79429458D01*
G37*
G36*
X79757230Y-72457671D02*
G01*
X79995737Y-72621358D01*
X80150289Y-72876915D01*
X80164898Y-73209331D01*
X80001954Y-73670028D01*
X80703657Y-73828338D01*
X81332479Y-74073123D01*
X81907296Y-74412875D01*
X82425189Y-74851853D01*
X82959729Y-75490789D01*
X83327830Y-76160651D01*
X83545060Y-76871775D01*
X83615304Y-77638806D01*
X83535292Y-78422234D01*
X83301230Y-79158767D01*
X82906485Y-79862765D01*
X82332446Y-80544408D01*
X81506938Y-81256788D01*
X80689508Y-81753750D01*
X79870342Y-82062885D01*
X79036183Y-82200311D01*
X78187191Y-82167047D01*
X77405656Y-81960513D01*
X76672480Y-81578137D01*
X75974110Y-81001388D01*
X75555360Y-80527982D01*
X75290122Y-80116682D01*
X75145640Y-79755315D01*
X75000568Y-78810269D01*
X72645439Y-80964197D01*
X71503794Y-81924673D01*
X71103740Y-82125971D01*
X70770789Y-82117624D01*
X70456679Y-81916901D01*
X70257267Y-81642801D01*
X70201609Y-81386433D01*
X70270071Y-81122881D01*
X70491911Y-80826782D01*
X71577215Y-79825791D01*
X73502771Y-78169559D01*
X76364853Y-78169559D01*
X76403629Y-78776074D01*
X76623227Y-79340554D01*
X77045059Y-79883809D01*
X77569008Y-80326769D01*
X78075646Y-80607818D01*
X78574796Y-80752002D01*
X79079187Y-80771862D01*
X79573575Y-80675058D01*
X80099324Y-80453195D01*
X80668193Y-80083285D01*
X81290512Y-79533561D01*
X81704980Y-79000547D01*
X81952109Y-78404629D01*
X82039191Y-77724814D01*
X81960149Y-77043812D01*
X81725305Y-76458552D01*
X81330925Y-75946117D01*
X80821237Y-75531528D01*
X80329404Y-75302097D01*
X79962673Y-75223574D01*
X79208198Y-75136300D01*
X78861060Y-75146662D01*
X77882336Y-76160617D01*
X77208784Y-76822771D01*
X76517615Y-77490107D01*
X76364853Y-78169559D01*
X73502771Y-78169559D01*
X74286084Y-77495806D01*
X75191776Y-76694287D01*
X76061672Y-75859073D01*
X77822805Y-73993024D01*
X78800958Y-72761250D01*
X78922716Y-72615659D01*
X79176710Y-72443747D01*
X79467775Y-72394941D01*
X79757230Y-72457671D01*
G37*
G36*
X69343763Y-76957482D02*
G01*
X69553077Y-77265722D01*
X69626137Y-77637770D01*
X69557945Y-78010112D01*
X69347908Y-78321167D01*
X69036926Y-78531098D01*
X68665029Y-78598878D01*
X68292535Y-78526184D01*
X67984223Y-78317022D01*
X67775694Y-78009143D01*
X67705476Y-77639324D01*
X67775082Y-77269658D01*
X67985777Y-76959036D01*
X68296472Y-76748235D01*
X68666583Y-76678217D01*
X69035957Y-76748800D01*
X69343763Y-76957482D01*
G37*
G36*
X73781956Y-71998063D02*
G01*
X74803165Y-70936441D01*
X75823338Y-69874818D01*
X76099290Y-69679619D01*
X76397930Y-69613169D01*
X76696041Y-69670643D01*
X76971486Y-69862383D01*
X77159619Y-70133570D01*
X77218628Y-70433867D01*
X77153971Y-70734722D01*
X76959569Y-71011049D01*
X75938878Y-72072154D01*
X74917669Y-73133776D01*
X73500100Y-74436323D01*
X72082013Y-75738352D01*
X71800598Y-75937340D01*
X71499649Y-76002592D01*
X71198908Y-75943943D01*
X70927647Y-75755968D01*
X70740203Y-75485249D01*
X70682060Y-75185003D01*
X70746954Y-74883610D01*
X70945781Y-74602121D01*
X72363869Y-73300092D01*
X73781956Y-71998063D01*
G37*
G36*
X69100966Y-62882271D02*
G01*
X69889858Y-63109242D01*
X70715227Y-63485301D01*
X71418487Y-63929371D01*
X72013621Y-64440286D01*
X72622248Y-65139488D01*
X73056022Y-65830130D01*
X73336952Y-66519501D01*
X73478857Y-67217394D01*
X73469057Y-67994546D01*
X73282957Y-68728346D01*
X72913027Y-69437738D01*
X72333818Y-70136467D01*
X71531859Y-70839485D01*
X70725739Y-71362043D01*
X69908901Y-71723700D01*
X69072269Y-71936925D01*
X68314073Y-71998964D01*
X67625433Y-71926840D01*
X66990788Y-71727906D01*
X66397352Y-71399610D01*
X65836108Y-70929705D01*
X65240628Y-70253486D01*
X64835366Y-69625457D01*
X64588482Y-69035468D01*
X64486915Y-68469140D01*
X64527365Y-68039128D01*
X65932996Y-68039128D01*
X66042041Y-68647961D01*
X66339928Y-69262808D01*
X66864053Y-69901760D01*
X67371950Y-70286614D01*
X67939200Y-70493148D01*
X68590938Y-70528164D01*
X69248887Y-70403429D01*
X70025160Y-70100729D01*
X70948372Y-69573792D01*
X68318927Y-68643771D01*
X66838049Y-68198520D01*
X65932996Y-68039128D01*
X64527365Y-68039128D01*
X64534289Y-67965527D01*
X64722438Y-67502309D01*
X65065668Y-67062995D01*
X65370055Y-66832013D01*
X65742406Y-66684496D01*
X66201427Y-66624074D01*
X66771828Y-66666636D01*
X67374504Y-66815961D01*
X68652594Y-67243818D01*
X71920878Y-68404401D01*
X71981306Y-67869219D01*
X71952476Y-67360967D01*
X71836943Y-66871810D01*
X71637934Y-66408587D01*
X71346697Y-65952931D01*
X70951999Y-65500872D01*
X70503670Y-65121379D01*
X69862398Y-64712815D01*
X69258434Y-64428643D01*
X68812311Y-64319180D01*
X68480579Y-64333035D01*
X68146556Y-64370002D01*
X67912533Y-64326332D01*
X67747443Y-64219568D01*
X67595129Y-63991785D01*
X67539678Y-63703005D01*
X67587918Y-63413664D01*
X67738635Y-63184887D01*
X68074294Y-62954898D01*
X68514186Y-62847483D01*
X69100966Y-62882271D01*
G37*
D12*
X86690900Y-111381187D02*
X85074656Y-109764943D01*
X86690900Y-109764943D02*
X85074656Y-111381187D01*
X83761458Y-106835501D02*
X84973641Y-108047684D01*
X84367549Y-107441592D02*
X82246229Y-109562913D01*
X82246229Y-109562913D02*
X82751305Y-109461897D01*
X82751305Y-109461897D02*
X83155366Y-109461897D01*
X83155366Y-109461897D02*
X83458412Y-109562913D01*
X79417802Y-106330424D02*
X79215771Y-106330424D01*
X79215771Y-106330424D02*
X78912725Y-106229409D01*
X78912725Y-106229409D02*
X78407649Y-105724333D01*
X78407649Y-105724333D02*
X78306634Y-105421287D01*
X78306634Y-105421287D02*
X78306634Y-105219257D01*
X78306634Y-105219257D02*
X78407649Y-104916211D01*
X78407649Y-104916211D02*
X78609680Y-104714180D01*
X78609680Y-104714180D02*
X79013741Y-104512150D01*
X79013741Y-104512150D02*
X81438107Y-104512150D01*
X81438107Y-104512150D02*
X80124908Y-103198952D01*
X77296481Y-104613165D02*
X75983283Y-103299967D01*
X75983283Y-103299967D02*
X77498512Y-103198952D01*
X77498512Y-103198952D02*
X77195466Y-102895906D01*
X77195466Y-102895906D02*
X77094451Y-102592860D01*
X77094451Y-102592860D02*
X77094451Y-102390829D01*
X77094451Y-102390829D02*
X77195466Y-102087784D01*
X77195466Y-102087784D02*
X77700542Y-101582707D01*
X77700542Y-101582707D02*
X78003588Y-101481692D01*
X78003588Y-101481692D02*
X78205619Y-101481692D01*
X78205619Y-101481692D02*
X78508664Y-101582707D01*
X78508664Y-101582707D02*
X79114756Y-102188799D01*
X79114756Y-102188799D02*
X79215771Y-102491845D01*
X79215771Y-102491845D02*
X79215771Y-102693875D01*
X74165008Y-101481692D02*
X74569069Y-101885753D01*
X74569069Y-101885753D02*
X74872115Y-101986768D01*
X74872115Y-101986768D02*
X75074146Y-101986768D01*
X75074146Y-101986768D02*
X75579222Y-101885753D01*
X75579222Y-101885753D02*
X76084298Y-101582707D01*
X76084298Y-101582707D02*
X76892420Y-100774585D01*
X76892420Y-100774585D02*
X76993435Y-100471540D01*
X76993435Y-100471540D02*
X76993435Y-100269509D01*
X76993435Y-100269509D02*
X76892420Y-99966463D01*
X76892420Y-99966463D02*
X76488359Y-99562402D01*
X76488359Y-99562402D02*
X76185313Y-99461387D01*
X76185313Y-99461387D02*
X75983283Y-99461387D01*
X75983283Y-99461387D02*
X75680237Y-99562402D01*
X75680237Y-99562402D02*
X75175161Y-100067479D01*
X75175161Y-100067479D02*
X75074146Y-100370524D01*
X75074146Y-100370524D02*
X75074146Y-100572555D01*
X75074146Y-100572555D02*
X75175161Y-100875601D01*
X75175161Y-100875601D02*
X75579222Y-101279662D01*
X75579222Y-101279662D02*
X75882268Y-101380677D01*
X75882268Y-101380677D02*
X76084298Y-101380677D01*
X76084298Y-101380677D02*
X76387344Y-101279662D01*
X73457902Y-96531945D02*
X73053841Y-96127884D01*
X73053841Y-96127884D02*
X72750795Y-96026868D01*
X72750795Y-96026868D02*
X72548764Y-96026868D01*
X72548764Y-96026868D02*
X72043688Y-96127884D01*
X72043688Y-96127884D02*
X71538612Y-96430929D01*
X71538612Y-96430929D02*
X70730490Y-97239051D01*
X70730490Y-97239051D02*
X70629474Y-97542097D01*
X70629474Y-97542097D02*
X70629474Y-97744128D01*
X70629474Y-97744128D02*
X70730490Y-98047174D01*
X70730490Y-98047174D02*
X71134551Y-98451235D01*
X71134551Y-98451235D02*
X71437596Y-98552250D01*
X71437596Y-98552250D02*
X71639627Y-98552250D01*
X71639627Y-98552250D02*
X71942673Y-98451235D01*
X71942673Y-98451235D02*
X72447749Y-97946158D01*
X72447749Y-97946158D02*
X72548764Y-97643113D01*
X72548764Y-97643113D02*
X72548764Y-97441082D01*
X72548764Y-97441082D02*
X72447749Y-97138036D01*
X72447749Y-97138036D02*
X72043688Y-96733975D01*
X72043688Y-96733975D02*
X71740642Y-96632960D01*
X71740642Y-96632960D02*
X71538612Y-96632960D01*
X71538612Y-96632960D02*
X71235566Y-96733975D01*
X69619322Y-96936006D02*
X68205108Y-95521792D01*
X68205108Y-95521792D02*
X71235566Y-94309609D01*
X66386834Y-93703517D02*
X67396986Y-94713670D01*
X67396986Y-94713670D02*
X68508154Y-93804533D01*
X68508154Y-93804533D02*
X68306123Y-93804533D01*
X68306123Y-93804533D02*
X68003078Y-93703517D01*
X68003078Y-93703517D02*
X67498001Y-93198441D01*
X67498001Y-93198441D02*
X67396986Y-92895395D01*
X67396986Y-92895395D02*
X67396986Y-92693365D01*
X67396986Y-92693365D02*
X67498001Y-92390319D01*
X67498001Y-92390319D02*
X68003078Y-91885243D01*
X68003078Y-91885243D02*
X68306123Y-91784228D01*
X68306123Y-91784228D02*
X68508154Y-91784228D01*
X68508154Y-91784228D02*
X68811200Y-91885243D01*
X68811200Y-91885243D02*
X69316276Y-92390319D01*
X69316276Y-92390319D02*
X69417291Y-92693365D01*
X69417291Y-92693365D02*
X69417291Y-92895395D01*
X64063483Y-90976106D02*
X63861452Y-90976106D01*
X63861452Y-90976106D02*
X63558407Y-90875090D01*
X63558407Y-90875090D02*
X63053330Y-90370014D01*
X63053330Y-90370014D02*
X62952315Y-90066968D01*
X62952315Y-90066968D02*
X62952315Y-89864938D01*
X62952315Y-89864938D02*
X63053330Y-89561892D01*
X63053330Y-89561892D02*
X63255361Y-89359862D01*
X63255361Y-89359862D02*
X63659422Y-89157831D01*
X63659422Y-89157831D02*
X66083788Y-89157831D01*
X66083788Y-89157831D02*
X64770590Y-87844633D01*
X62346223Y-87844633D02*
X62447239Y-88147678D01*
X62447239Y-88147678D02*
X62447239Y-88349709D01*
X62447239Y-88349709D02*
X62346223Y-88652755D01*
X62346223Y-88652755D02*
X62245208Y-88753770D01*
X62245208Y-88753770D02*
X61942162Y-88854785D01*
X61942162Y-88854785D02*
X61740132Y-88854785D01*
X61740132Y-88854785D02*
X61437086Y-88753770D01*
X61437086Y-88753770D02*
X61033025Y-88349709D01*
X61033025Y-88349709D02*
X60932010Y-88046663D01*
X60932010Y-88046663D02*
X60932010Y-87844633D01*
X60932010Y-87844633D02*
X61033025Y-87541587D01*
X61033025Y-87541587D02*
X61134040Y-87440572D01*
X61134040Y-87440572D02*
X61437086Y-87339556D01*
X61437086Y-87339556D02*
X61639117Y-87339556D01*
X61639117Y-87339556D02*
X61942162Y-87440572D01*
X61942162Y-87440572D02*
X62346223Y-87844633D01*
X62346223Y-87844633D02*
X62649269Y-87945648D01*
X62649269Y-87945648D02*
X62851300Y-87945648D01*
X62851300Y-87945648D02*
X63154345Y-87844633D01*
X63154345Y-87844633D02*
X63558406Y-87440572D01*
X63558406Y-87440572D02*
X63659422Y-87137526D01*
X63659422Y-87137526D02*
X63659422Y-86935495D01*
X63659422Y-86935495D02*
X63558406Y-86632450D01*
X63558406Y-86632450D02*
X63154345Y-86228389D01*
X63154345Y-86228389D02*
X62851300Y-86127373D01*
X62851300Y-86127373D02*
X62649269Y-86127373D01*
X62649269Y-86127373D02*
X62346223Y-86228389D01*
X62346223Y-86228389D02*
X61942162Y-86632450D01*
X61942162Y-86632450D02*
X61841147Y-86935495D01*
X61841147Y-86935495D02*
X61841147Y-87137526D01*
X61841147Y-87137526D02*
X61942162Y-87440572D01*
X60325918Y-85824327D02*
X60426933Y-86127373D01*
X60426933Y-86127373D02*
X60426933Y-86329404D01*
X60426933Y-86329404D02*
X60325918Y-86632449D01*
X60325918Y-86632449D02*
X60224903Y-86733465D01*
X60224903Y-86733465D02*
X59921857Y-86834480D01*
X59921857Y-86834480D02*
X59719827Y-86834480D01*
X59719827Y-86834480D02*
X59416781Y-86733465D01*
X59416781Y-86733465D02*
X59012720Y-86329404D01*
X59012720Y-86329404D02*
X58911705Y-86026358D01*
X58911705Y-86026358D02*
X58911705Y-85824327D01*
X58911705Y-85824327D02*
X59012720Y-85521282D01*
X59012720Y-85521282D02*
X59113735Y-85420266D01*
X59113735Y-85420266D02*
X59416781Y-85319251D01*
X59416781Y-85319251D02*
X59618811Y-85319251D01*
X59618811Y-85319251D02*
X59921857Y-85420266D01*
X59921857Y-85420266D02*
X60325918Y-85824327D01*
X60325918Y-85824327D02*
X60628964Y-85925343D01*
X60628964Y-85925343D02*
X60830994Y-85925343D01*
X60830994Y-85925343D02*
X61134040Y-85824327D01*
X61134040Y-85824327D02*
X61538101Y-85420266D01*
X61538101Y-85420266D02*
X61639116Y-85117221D01*
X61639116Y-85117221D02*
X61639116Y-84915190D01*
X61639116Y-84915190D02*
X61538101Y-84612144D01*
X61538101Y-84612144D02*
X61134040Y-84208083D01*
X61134040Y-84208083D02*
X60830994Y-84107068D01*
X60830994Y-84107068D02*
X60628964Y-84107068D01*
X60628964Y-84107068D02*
X60325918Y-84208083D01*
X60325918Y-84208083D02*
X59921857Y-84612144D01*
X59921857Y-84612144D02*
X59820842Y-84915190D01*
X59820842Y-84915190D02*
X59820842Y-85117221D01*
X59820842Y-85117221D02*
X59921857Y-85420266D01*
X57497491Y-83399961D02*
X58911705Y-81985748D01*
X57194445Y-84713160D02*
X59214750Y-83703007D01*
X59214750Y-83703007D02*
X57901552Y-82389809D01*
M02*
