G04 #@! TF.GenerationSoftware,KiCad,Pcbnew,8.0.8-unknown-1000.20250207gitc73cc2c.fc41*
G04 #@! TF.CreationDate,2025-04-05T07:38:36-07:00*
G04 #@! TF.ProjectId,baggage-label-felix,62616767-6167-4652-9d6c-6162656c2d66,rev?*
G04 #@! TF.SameCoordinates,Original*
G04 #@! TF.FileFunction,Copper,L2,Bot*
G04 #@! TF.FilePolarity,Positive*
%FSLAX46Y46*%
G04 Gerber Fmt 4.6, Leading zero omitted, Abs format (unit mm)*
G04 Created by KiCad (PCBNEW 8.0.8-unknown-1000.20250207gitc73cc2c.fc41) date 2025-04-05 07:38:36*
%MOMM*%
%LPD*%
G01*
G04 APERTURE LIST*
%ADD10C,0.150000*%
%ADD11C,0.300000*%
G04 #@! TA.AperFunction,NonConductor*
%ADD12C,0.300000*%
G04 #@! TD*
%ADD13C,0.500000*%
G04 #@! TA.AperFunction,NonConductor*
%ADD14C,0.500000*%
G04 #@! TD*
G04 #@! TA.AperFunction,ViaPad*
%ADD15C,12.000000*%
G04 #@! TD*
G04 APERTURE END LIST*
D10*
G36*
X76239404Y-68666068D02*
G01*
X76119427Y-68558429D01*
X75981252Y-68457267D01*
X75824878Y-68362581D01*
X75650304Y-68274372D01*
X75457532Y-68192639D01*
X75246562Y-68117382D01*
X75134252Y-68082182D01*
X75017392Y-68048602D01*
X74895982Y-68016641D01*
X74770023Y-67986298D01*
X74639514Y-67957575D01*
X74504456Y-67930471D01*
X74364847Y-67904986D01*
X74220689Y-67881120D01*
X74071982Y-67858874D01*
X73918724Y-67838246D01*
X73760917Y-67819238D01*
X73598560Y-67801849D01*
X73431653Y-67786078D01*
X73260197Y-67771927D01*
X73084191Y-67759395D01*
X72903635Y-67748482D01*
X72718530Y-67739189D01*
X72528874Y-67731514D01*
X72334669Y-67725459D01*
X72135915Y-67721022D01*
X68610644Y-67760399D01*
X68693543Y-67677500D01*
X71779450Y-64579159D01*
X71879432Y-64470251D01*
X71960216Y-64362691D01*
X72021801Y-64256479D01*
X72074050Y-64116960D01*
X72092168Y-63979837D01*
X72076155Y-63845110D01*
X72026011Y-63712780D01*
X71941736Y-63582845D01*
X71856131Y-63486967D01*
X71748612Y-63393818D01*
X71633300Y-63321615D01*
X71510197Y-63270360D01*
X71379302Y-63240052D01*
X71240614Y-63230692D01*
X71094135Y-63242278D01*
X71033361Y-63252778D01*
X70909408Y-63282398D01*
X70791425Y-63322036D01*
X70679412Y-63371692D01*
X70573370Y-63431367D01*
X70473298Y-63501060D01*
X70379197Y-63580771D01*
X70343229Y-63615461D01*
X70255705Y-63703142D01*
X70165668Y-63793652D01*
X70073118Y-63886993D01*
X69978053Y-63983162D01*
X69880475Y-64082161D01*
X69780383Y-64183989D01*
X69677778Y-64288647D01*
X69572659Y-64396134D01*
X69465026Y-64506450D01*
X69354880Y-64619596D01*
X69242219Y-64735572D01*
X69127046Y-64854376D01*
X69009358Y-64976010D01*
X68889157Y-65100474D01*
X68766442Y-65227767D01*
X68641213Y-65357889D01*
X68513471Y-65490841D01*
X68383215Y-65626622D01*
X68250446Y-65765233D01*
X68115162Y-65906673D01*
X67977365Y-66050942D01*
X67837055Y-66198041D01*
X67694231Y-66347969D01*
X67548893Y-66500726D01*
X67401041Y-66656313D01*
X67250676Y-66814730D01*
X67097797Y-66975976D01*
X66942404Y-67140051D01*
X66784497Y-67306955D01*
X66624077Y-67476689D01*
X66461144Y-67649253D01*
X66295696Y-67824646D01*
X66130253Y-68000289D01*
X65967331Y-68173088D01*
X65806932Y-68343040D01*
X65649053Y-68510147D01*
X65493697Y-68674409D01*
X65340863Y-68835824D01*
X65190550Y-68994395D01*
X65042759Y-69150119D01*
X64897490Y-69302998D01*
X64754743Y-69453032D01*
X64614517Y-69600220D01*
X64476813Y-69744562D01*
X64341631Y-69886058D01*
X64208971Y-70024709D01*
X64078832Y-70160515D01*
X63951215Y-70293475D01*
X63826120Y-70423589D01*
X63703547Y-70550858D01*
X63583496Y-70675281D01*
X63465966Y-70796858D01*
X63350958Y-70915590D01*
X63238472Y-71031476D01*
X63128508Y-71144517D01*
X63021065Y-71254712D01*
X62916144Y-71362061D01*
X62813745Y-71466565D01*
X62713868Y-71568223D01*
X62616513Y-71667036D01*
X62521679Y-71763003D01*
X62429367Y-71856125D01*
X62339577Y-71946401D01*
X62252309Y-72033831D01*
X62166018Y-72131779D01*
X62096776Y-72235994D01*
X62044584Y-72346474D01*
X62009441Y-72463221D01*
X61991348Y-72586233D01*
X61989105Y-72628629D01*
X61993477Y-72754143D01*
X62015918Y-72872663D01*
X62056428Y-72984187D01*
X62115008Y-73088718D01*
X62191657Y-73186253D01*
X62221222Y-73217211D01*
X62318539Y-73301996D01*
X62422413Y-73368274D01*
X62532845Y-73416046D01*
X62649834Y-73445312D01*
X62773381Y-73456071D01*
X62816020Y-73455545D01*
X62941121Y-73443134D01*
X63059956Y-73413674D01*
X63172526Y-73367165D01*
X63278829Y-73303607D01*
X63378866Y-73222999D01*
X63410819Y-73192341D01*
X63523078Y-73078880D01*
X63645356Y-72952995D01*
X63732440Y-72862171D01*
X63823977Y-72765825D01*
X63919966Y-72663959D01*
X64020408Y-72556571D01*
X64125303Y-72443662D01*
X64234650Y-72325231D01*
X64348449Y-72201280D01*
X64466702Y-72071807D01*
X64589406Y-71936813D01*
X64716564Y-71796298D01*
X64848174Y-71650262D01*
X64984236Y-71498705D01*
X65124751Y-71341626D01*
X65260206Y-71189154D01*
X65391970Y-71041571D01*
X65520042Y-70898879D01*
X65644423Y-70761076D01*
X65765112Y-70628162D01*
X65882109Y-70500139D01*
X65995415Y-70377005D01*
X66105029Y-70258761D01*
X66210952Y-70145407D01*
X66313183Y-70036942D01*
X66411722Y-69933367D01*
X66506570Y-69834682D01*
X66597726Y-69740886D01*
X66685191Y-69651981D01*
X66768964Y-69567965D01*
X66849046Y-69488839D01*
X66849863Y-69684938D01*
X66849207Y-69885684D01*
X66847078Y-70091077D01*
X66843476Y-70301117D01*
X66838400Y-70515804D01*
X66831851Y-70735137D01*
X66823828Y-70959118D01*
X66814332Y-71187745D01*
X66803362Y-71421019D01*
X66797325Y-71539399D01*
X66790919Y-71658941D01*
X66784145Y-71779644D01*
X66777003Y-71901508D01*
X66769492Y-72024535D01*
X66761613Y-72148723D01*
X66753366Y-72274073D01*
X66744750Y-72400585D01*
X66735766Y-72528258D01*
X66726414Y-72657094D01*
X66716693Y-72787090D01*
X66706604Y-72918249D01*
X66696146Y-73050569D01*
X66685320Y-73184051D01*
X66345436Y-76868902D01*
X66340659Y-77000252D01*
X66349645Y-77122293D01*
X66378595Y-77256453D01*
X66427363Y-77377207D01*
X66495949Y-77484555D01*
X66552682Y-77548672D01*
X66644244Y-77627555D01*
X66744839Y-77690118D01*
X66854470Y-77736360D01*
X66973135Y-77766281D01*
X67100834Y-77779881D01*
X67145409Y-77780788D01*
X67277771Y-77772385D01*
X67402848Y-77745621D01*
X67520639Y-77700496D01*
X67631144Y-77637011D01*
X67734362Y-77555164D01*
X67767149Y-77523802D01*
X67840174Y-77424329D01*
X67910028Y-77275130D01*
X67954837Y-77148037D01*
X67998238Y-76998844D01*
X68040230Y-76827549D01*
X68080813Y-76634154D01*
X68119987Y-76418658D01*
X68139046Y-76302622D01*
X68157753Y-76181060D01*
X68176108Y-76053974D01*
X68194111Y-75921362D01*
X68211761Y-75783225D01*
X68229059Y-75639563D01*
X68246005Y-75490376D01*
X68262599Y-75335663D01*
X68278841Y-75175425D01*
X68294731Y-75009662D01*
X68310268Y-74838374D01*
X68325453Y-74661560D01*
X68340286Y-74479221D01*
X68354767Y-74291357D01*
X68368896Y-74097968D01*
X68382673Y-73899053D01*
X68390979Y-73760825D01*
X68399058Y-73622557D01*
X68406911Y-73484248D01*
X68414537Y-73345898D01*
X68421936Y-73207508D01*
X68429109Y-73069078D01*
X68436055Y-72930607D01*
X68442774Y-72792095D01*
X68449267Y-72653544D01*
X68455533Y-72514951D01*
X68461572Y-72376318D01*
X68467385Y-72237645D01*
X68472971Y-72098931D01*
X68478330Y-71960177D01*
X68483463Y-71821382D01*
X68488369Y-71682547D01*
X68493048Y-71543672D01*
X68497501Y-71404755D01*
X68501726Y-71265799D01*
X68505726Y-71126802D01*
X68509498Y-70987764D01*
X68513044Y-70848686D01*
X68516363Y-70709567D01*
X68519456Y-70570408D01*
X68522322Y-70431209D01*
X68524961Y-70291969D01*
X68527373Y-70152688D01*
X68529559Y-70013368D01*
X68531518Y-69874006D01*
X68533251Y-69734604D01*
X68534756Y-69595162D01*
X68536036Y-69455679D01*
X68722485Y-69450538D01*
X68920187Y-69446515D01*
X69129142Y-69443608D01*
X69349350Y-69441819D01*
X69580811Y-69441147D01*
X69700761Y-69441230D01*
X69823525Y-69441593D01*
X69949101Y-69442234D01*
X70077491Y-69443155D01*
X70208694Y-69444355D01*
X70342711Y-69445835D01*
X70479540Y-69447594D01*
X70619183Y-69449632D01*
X70761639Y-69451949D01*
X70906908Y-69454546D01*
X71054990Y-69457422D01*
X71205886Y-69460577D01*
X71359595Y-69464011D01*
X71516117Y-69467725D01*
X71675452Y-69471718D01*
X71837601Y-69475991D01*
X72002562Y-69480543D01*
X72170337Y-69485374D01*
X72340925Y-69490484D01*
X72514327Y-69495874D01*
X72690541Y-69501543D01*
X72869569Y-69507491D01*
X74001137Y-69598679D01*
X74148120Y-69619177D01*
X74292708Y-69645439D01*
X74434898Y-69677466D01*
X74574693Y-69715256D01*
X74712091Y-69758810D01*
X74847093Y-69808128D01*
X74979699Y-69863211D01*
X75109908Y-69924057D01*
X75223327Y-69975084D01*
X75369566Y-70022945D01*
X75510105Y-70047749D01*
X75644945Y-70049498D01*
X75774086Y-70028191D01*
X75897527Y-69983827D01*
X76015270Y-69916407D01*
X76127312Y-69825931D01*
X76154433Y-69799709D01*
X76235739Y-69706701D01*
X76303756Y-69603577D01*
X76358484Y-69490338D01*
X76399923Y-69366984D01*
X76417636Y-69291954D01*
X76433471Y-69155657D01*
X76426574Y-69028103D01*
X76396944Y-68909292D01*
X76344582Y-68799224D01*
X76269487Y-68697900D01*
X76239404Y-68666068D01*
G37*
G36*
X77310514Y-71242212D02*
G01*
X77511900Y-71256655D01*
X77695735Y-71280877D01*
X77878339Y-71314166D01*
X78059712Y-71356522D01*
X78239855Y-71407945D01*
X78418767Y-71468435D01*
X78596449Y-71537993D01*
X78772900Y-71616617D01*
X78948121Y-71704308D01*
X79122112Y-71801067D01*
X79294871Y-71906892D01*
X79466400Y-72021785D01*
X79636699Y-72145744D01*
X79805767Y-72278771D01*
X79973605Y-72420864D01*
X80140212Y-72572025D01*
X80305589Y-72732253D01*
X80409593Y-72839511D01*
X80510731Y-72950413D01*
X80609003Y-73064957D01*
X80704409Y-73183145D01*
X80796950Y-73304975D01*
X80886625Y-73430448D01*
X80973434Y-73559565D01*
X81057377Y-73692324D01*
X81138454Y-73828727D01*
X81216666Y-73968772D01*
X81292011Y-74112461D01*
X81364491Y-74259792D01*
X81434105Y-74410767D01*
X81500853Y-74565384D01*
X81564735Y-74723645D01*
X81625752Y-74885549D01*
X81690111Y-75073657D01*
X81744854Y-75255096D01*
X81789979Y-75429863D01*
X81825486Y-75597960D01*
X81851375Y-75759386D01*
X81867648Y-75914141D01*
X81874302Y-76062225D01*
X81871339Y-76203639D01*
X81858759Y-76338382D01*
X81836561Y-76466454D01*
X81804745Y-76587855D01*
X81763312Y-76702586D01*
X81712261Y-76810646D01*
X81651593Y-76912035D01*
X81581307Y-77006753D01*
X81501403Y-77094801D01*
X81431417Y-77156894D01*
X81324596Y-77226144D01*
X81207461Y-77274766D01*
X81080012Y-77302760D01*
X80962561Y-77310338D01*
X80884099Y-77307650D01*
X80755673Y-77287518D01*
X80638552Y-77247751D01*
X80532737Y-77188347D01*
X80438227Y-77109308D01*
X80364322Y-77014274D01*
X80313587Y-76900151D01*
X80286022Y-76766938D01*
X80280749Y-76641345D01*
X80291567Y-76502496D01*
X80311806Y-76381871D01*
X80322136Y-76318483D01*
X80328612Y-76182866D01*
X80316178Y-76035461D01*
X80294441Y-75917173D01*
X80262067Y-75792254D01*
X80219055Y-75660705D01*
X80165406Y-75522525D01*
X80101118Y-75377715D01*
X80026194Y-75226275D01*
X79970334Y-75121632D01*
X79909747Y-75014042D01*
X79835102Y-74887544D01*
X79760383Y-74766074D01*
X79685592Y-74649631D01*
X79610729Y-74538216D01*
X79535792Y-74431828D01*
X79460782Y-74330467D01*
X79385700Y-74234133D01*
X79310544Y-74142827D01*
X79210224Y-74028906D01*
X79109774Y-73923923D01*
X79028656Y-73844635D01*
X78905887Y-73731471D01*
X78781806Y-73625228D01*
X78656413Y-73525907D01*
X78529709Y-73433509D01*
X78401694Y-73348031D01*
X78272367Y-73269476D01*
X78141728Y-73197842D01*
X78009778Y-73133130D01*
X77876517Y-73075340D01*
X77741944Y-73024471D01*
X77651516Y-72994890D01*
X77514843Y-72956165D01*
X77376930Y-72924215D01*
X77237780Y-72899042D01*
X77097390Y-72880645D01*
X76955762Y-72869024D01*
X76812895Y-72864179D01*
X76668790Y-72866109D01*
X76523446Y-72874816D01*
X76376863Y-72890299D01*
X76229042Y-72912558D01*
X77476668Y-76116595D01*
X77541789Y-76282619D01*
X77603477Y-76441843D01*
X77661733Y-76594267D01*
X77716556Y-76739890D01*
X77767947Y-76878713D01*
X77815905Y-77010736D01*
X77860431Y-77135959D01*
X77901524Y-77254381D01*
X77956728Y-77419264D01*
X78004209Y-77568846D01*
X78043966Y-77703127D01*
X78076000Y-77822108D01*
X78106699Y-77956948D01*
X78116960Y-78027780D01*
X78132989Y-78166215D01*
X78143028Y-78300342D01*
X78147075Y-78430163D01*
X78145132Y-78555677D01*
X78137199Y-78676884D01*
X78114066Y-78850619D01*
X78077453Y-79014664D01*
X78027362Y-79169019D01*
X77963791Y-79313683D01*
X77886742Y-79448656D01*
X77796213Y-79573940D01*
X77692205Y-79689532D01*
X77585529Y-79790330D01*
X77476377Y-79881851D01*
X77364747Y-79964094D01*
X77250639Y-80037060D01*
X77134055Y-80100747D01*
X77014993Y-80155158D01*
X76893454Y-80200291D01*
X76769438Y-80236146D01*
X76642944Y-80262724D01*
X76513974Y-80280024D01*
X76382526Y-80288047D01*
X76248600Y-80286792D01*
X76112198Y-80276260D01*
X75973318Y-80256450D01*
X75831961Y-80227362D01*
X75688127Y-80188997D01*
X75570409Y-80151086D01*
X75452481Y-80107815D01*
X75334342Y-80059185D01*
X75215993Y-80005195D01*
X75097433Y-79945847D01*
X74978663Y-79881139D01*
X74859682Y-79811071D01*
X74740490Y-79735645D01*
X74621089Y-79654859D01*
X74501476Y-79568714D01*
X74381654Y-79477209D01*
X74261621Y-79380346D01*
X74141377Y-79278123D01*
X74020923Y-79170541D01*
X73900258Y-79057599D01*
X73779383Y-78939298D01*
X73697585Y-78855311D01*
X73543704Y-78683911D01*
X73402776Y-78507946D01*
X73274801Y-78327414D01*
X73159779Y-78142317D01*
X73057710Y-77952653D01*
X72968594Y-77758424D01*
X72892431Y-77559629D01*
X72829220Y-77356268D01*
X72778963Y-77148341D01*
X72741659Y-76935848D01*
X72717307Y-76718789D01*
X72705909Y-76497165D01*
X72707463Y-76270974D01*
X72713669Y-76172261D01*
X74299654Y-76172261D01*
X74303523Y-76292108D01*
X74313254Y-76409817D01*
X74338840Y-76582375D01*
X74377614Y-76750123D01*
X74429576Y-76913063D01*
X74494725Y-77071194D01*
X74573062Y-77224516D01*
X74664586Y-77373030D01*
X74732929Y-77469367D01*
X74807133Y-77563567D01*
X74887199Y-77655630D01*
X74973125Y-77745556D01*
X75086196Y-77855243D01*
X75199510Y-77958405D01*
X75313067Y-78055042D01*
X75426866Y-78145154D01*
X75540909Y-78228741D01*
X75655194Y-78305803D01*
X75769722Y-78376340D01*
X75884494Y-78440351D01*
X75999507Y-78497838D01*
X76114764Y-78548800D01*
X76230264Y-78593237D01*
X76346007Y-78631148D01*
X76461992Y-78662535D01*
X76578220Y-78687396D01*
X76694691Y-78705733D01*
X76811405Y-78717544D01*
X76788898Y-78560767D01*
X76757902Y-78391203D01*
X76732522Y-78271057D01*
X76703370Y-78145227D01*
X76670445Y-78013714D01*
X76633748Y-77876518D01*
X76593278Y-77733639D01*
X76549036Y-77585077D01*
X76501021Y-77430832D01*
X76449233Y-77270904D01*
X76393673Y-77105293D01*
X76334341Y-76933998D01*
X76271236Y-76757021D01*
X76204358Y-76574360D01*
X76133708Y-76386016D01*
X75134778Y-73807865D01*
X75038262Y-73964287D01*
X74947673Y-74118541D01*
X74863009Y-74270624D01*
X74784271Y-74420538D01*
X74711460Y-74568283D01*
X74644574Y-74713857D01*
X74583614Y-74857263D01*
X74528580Y-74998498D01*
X74479473Y-75137564D01*
X74436291Y-75274460D01*
X74399035Y-75409187D01*
X74367705Y-75541744D01*
X74342301Y-75672132D01*
X74322823Y-75800349D01*
X74309271Y-75926398D01*
X74301645Y-76050276D01*
X74299654Y-76172261D01*
X72713669Y-76172261D01*
X72721970Y-76040218D01*
X72734081Y-75923127D01*
X72749430Y-75804895D01*
X72768018Y-75685522D01*
X72809330Y-75466528D01*
X72860210Y-75249429D01*
X72920660Y-75034224D01*
X72990679Y-74820913D01*
X73070266Y-74609497D01*
X73159423Y-74399975D01*
X73258149Y-74192348D01*
X73366443Y-73986615D01*
X73424179Y-73884459D01*
X73484307Y-73782776D01*
X73546827Y-73681567D01*
X73611740Y-73580832D01*
X73679044Y-73480570D01*
X73748741Y-73380782D01*
X73820830Y-73281467D01*
X73895312Y-73182626D01*
X73972185Y-73084259D01*
X74051451Y-72986365D01*
X74133109Y-72888945D01*
X74217160Y-72791998D01*
X74303602Y-72695525D01*
X74392437Y-72599526D01*
X74483664Y-72504000D01*
X74577284Y-72408948D01*
X74742725Y-72250469D01*
X74910562Y-72103518D01*
X75080796Y-71968095D01*
X75253427Y-71844200D01*
X75428453Y-71731833D01*
X75605876Y-71630995D01*
X75785695Y-71541684D01*
X75967910Y-71463902D01*
X76152522Y-71397647D01*
X76339530Y-71342921D01*
X76528934Y-71299723D01*
X76720735Y-71268053D01*
X76914932Y-71247912D01*
X77111525Y-71239298D01*
X77310514Y-71242212D01*
G37*
G36*
X84089165Y-77932961D02*
G01*
X84284309Y-77945452D01*
X84476393Y-77967480D01*
X84665416Y-77999045D01*
X84851380Y-78040146D01*
X85034283Y-78090784D01*
X85214127Y-78150959D01*
X85390910Y-78220670D01*
X85564633Y-78299917D01*
X85735296Y-78388702D01*
X85902899Y-78487022D01*
X86067442Y-78594880D01*
X86228924Y-78712274D01*
X86387347Y-78839205D01*
X86542709Y-78975672D01*
X86695011Y-79121676D01*
X86755566Y-79183607D01*
X86843242Y-79278507D01*
X86927128Y-79375812D01*
X87007226Y-79475522D01*
X87083535Y-79577635D01*
X87156055Y-79682153D01*
X87224786Y-79789076D01*
X87289729Y-79898402D01*
X87350883Y-80010134D01*
X87408248Y-80124269D01*
X87461825Y-80240809D01*
X87495883Y-80319442D01*
X87544511Y-80438878D01*
X87590189Y-80560099D01*
X87632915Y-80683105D01*
X87672691Y-80807897D01*
X87709515Y-80934473D01*
X87743389Y-81062835D01*
X87774313Y-81192981D01*
X87802285Y-81324913D01*
X87827306Y-81458630D01*
X87849377Y-81594132D01*
X87935109Y-81552375D01*
X88058789Y-81500243D01*
X88176568Y-81460716D01*
X88324426Y-81427622D01*
X88461791Y-81416935D01*
X88588665Y-81428658D01*
X88705048Y-81462789D01*
X88810938Y-81519328D01*
X88906336Y-81598277D01*
X88957014Y-81653683D01*
X89030273Y-81757968D01*
X89083897Y-81871575D01*
X89117884Y-81994505D01*
X89132235Y-82126756D01*
X89130151Y-82223175D01*
X89107171Y-82351360D01*
X89060788Y-82471612D01*
X88991000Y-82583930D01*
X88912554Y-82673888D01*
X88863958Y-82719063D01*
X88769553Y-82796164D01*
X88695881Y-82847650D01*
X88544057Y-82957215D01*
X88386258Y-83075573D01*
X88222484Y-83202722D01*
X88052736Y-83338663D01*
X87877013Y-83483396D01*
X87786911Y-83559059D01*
X87695316Y-83636920D01*
X87602227Y-83716980D01*
X87507644Y-83799237D01*
X87411568Y-83883692D01*
X87313998Y-83970345D01*
X87214934Y-84059196D01*
X87114377Y-84150245D01*
X87012326Y-84243492D01*
X86908781Y-84338937D01*
X86803743Y-84436580D01*
X86697211Y-84536421D01*
X86589186Y-84638459D01*
X86479667Y-84742696D01*
X86368654Y-84849131D01*
X86256148Y-84957763D01*
X86142148Y-85068594D01*
X86026654Y-85181622D01*
X85909667Y-85296849D01*
X85791186Y-85414273D01*
X85671212Y-85533896D01*
X85564763Y-85640895D01*
X85458881Y-85748429D01*
X85353565Y-85856497D01*
X85248816Y-85965099D01*
X85144634Y-86074235D01*
X85041019Y-86183906D01*
X84937970Y-86294111D01*
X84835488Y-86404851D01*
X84733573Y-86516125D01*
X84632224Y-86627933D01*
X84531443Y-86740275D01*
X84431227Y-86853152D01*
X84331579Y-86966563D01*
X84232497Y-87080508D01*
X84133982Y-87194988D01*
X84036033Y-87310002D01*
X83879944Y-87494652D01*
X83727211Y-87675040D01*
X83577833Y-87851165D01*
X83431811Y-88023028D01*
X83289145Y-88190629D01*
X83149834Y-88353968D01*
X83013879Y-88513044D01*
X82881279Y-88667858D01*
X82752035Y-88818409D01*
X82626147Y-88964699D01*
X82503614Y-89106725D01*
X82384437Y-89244490D01*
X82268616Y-89377992D01*
X82156150Y-89507232D01*
X82047040Y-89632210D01*
X81941285Y-89752925D01*
X81838886Y-89869378D01*
X81739843Y-89981569D01*
X81644155Y-90089497D01*
X81551823Y-90193163D01*
X81462846Y-90292566D01*
X81377225Y-90387708D01*
X81216050Y-90565203D01*
X81068298Y-90725650D01*
X80933968Y-90869047D01*
X80813060Y-90995395D01*
X80705575Y-91104693D01*
X80600171Y-91200772D01*
X80495349Y-91277615D01*
X80356494Y-91350151D01*
X80218674Y-91388492D01*
X80081891Y-91392637D01*
X79946145Y-91362586D01*
X79811434Y-91298339D01*
X79711081Y-91227714D01*
X79611311Y-91137853D01*
X79557816Y-91080342D01*
X79471808Y-90962211D01*
X79413779Y-90839935D01*
X79383728Y-90713515D01*
X79381656Y-90582949D01*
X79407562Y-90448238D01*
X79461446Y-90309383D01*
X79520220Y-90202521D01*
X79594732Y-90093328D01*
X79692526Y-89967798D01*
X79803015Y-89830060D01*
X79926197Y-89680113D01*
X80062073Y-89517959D01*
X80210644Y-89343596D01*
X80289689Y-89251837D01*
X80371908Y-89157025D01*
X80457300Y-89059162D01*
X80545866Y-88958246D01*
X80637605Y-88854279D01*
X80732517Y-88747259D01*
X80830603Y-88637188D01*
X80931863Y-88524064D01*
X81036296Y-88407888D01*
X81143902Y-88288661D01*
X81254682Y-88166381D01*
X81368636Y-88041049D01*
X81485763Y-87912665D01*
X81606063Y-87781230D01*
X81729537Y-87646742D01*
X81856184Y-87509202D01*
X81986005Y-87368610D01*
X82118999Y-87224966D01*
X82255167Y-87078270D01*
X82394508Y-86928522D01*
X82537023Y-86775722D01*
X82682711Y-86619870D01*
X81733520Y-86474797D01*
X81624600Y-86440692D01*
X81513895Y-86397443D01*
X81401405Y-86345051D01*
X81287130Y-86283514D01*
X81171069Y-86212834D01*
X81053224Y-86133009D01*
X80933593Y-86044041D01*
X80812178Y-85945928D01*
X80688977Y-85838672D01*
X80563992Y-85722272D01*
X80479676Y-85639592D01*
X80320768Y-85473333D01*
X80173048Y-85303560D01*
X80036516Y-85130274D01*
X79911172Y-84953475D01*
X79797016Y-84773162D01*
X79694048Y-84589335D01*
X79602269Y-84401996D01*
X79521677Y-84211142D01*
X79452274Y-84016775D01*
X79394058Y-83818895D01*
X79347031Y-83617501D01*
X79311192Y-83412594D01*
X79286541Y-83204173D01*
X79273078Y-82992239D01*
X79270803Y-82776791D01*
X79278967Y-82576231D01*
X80780127Y-82576231D01*
X80784102Y-82706044D01*
X80796254Y-82835354D01*
X80816582Y-82964163D01*
X80845086Y-83092470D01*
X80881767Y-83220275D01*
X80926625Y-83347578D01*
X80979659Y-83474379D01*
X81040870Y-83600679D01*
X81110257Y-83726476D01*
X81187821Y-83851771D01*
X81273561Y-83976565D01*
X81367478Y-84100856D01*
X81469572Y-84224646D01*
X81579842Y-84347933D01*
X81698288Y-84470719D01*
X81762591Y-84533257D01*
X81860230Y-84621631D01*
X81959290Y-84703483D01*
X82059770Y-84778815D01*
X82161671Y-84847625D01*
X82264993Y-84909914D01*
X82369736Y-84965683D01*
X82511603Y-85029897D01*
X82655995Y-85082518D01*
X82802914Y-85123547D01*
X82877563Y-85139957D01*
X83028659Y-85163984D01*
X83182152Y-85176290D01*
X83338040Y-85176872D01*
X83456529Y-85169617D01*
X83576366Y-85155767D01*
X83697551Y-85135324D01*
X83820084Y-85108287D01*
X83943964Y-85074656D01*
X84069193Y-85034431D01*
X84715803Y-84367095D01*
X85356196Y-83714268D01*
X86336474Y-82767149D01*
X86344343Y-82667367D01*
X86346837Y-82549864D01*
X86340619Y-82427264D01*
X86335171Y-82376991D01*
X86318729Y-82232193D01*
X86302141Y-82096430D01*
X86285407Y-81969702D01*
X86268528Y-81852008D01*
X86245796Y-81709137D01*
X86222804Y-81582328D01*
X86193701Y-81446403D01*
X86158242Y-81316421D01*
X86111708Y-81189255D01*
X86055007Y-81062673D01*
X85988137Y-80936673D01*
X85911100Y-80811256D01*
X85823894Y-80686422D01*
X85751817Y-80593180D01*
X85674021Y-80500264D01*
X85590505Y-80407677D01*
X85501269Y-80315418D01*
X85410574Y-80228771D01*
X85317240Y-80147580D01*
X85221267Y-80071846D01*
X85122655Y-80001568D01*
X85021403Y-79936747D01*
X84917513Y-79877382D01*
X84810983Y-79823474D01*
X84701814Y-79775022D01*
X84590006Y-79732026D01*
X84475559Y-79694487D01*
X84358472Y-79662404D01*
X84238747Y-79635778D01*
X84116382Y-79614608D01*
X83991378Y-79598894D01*
X83863735Y-79588637D01*
X83733453Y-79583836D01*
X83603405Y-79584889D01*
X83475949Y-79591673D01*
X83351082Y-79604189D01*
X83228807Y-79622436D01*
X83109121Y-79646415D01*
X82992027Y-79676126D01*
X82877523Y-79711569D01*
X82765610Y-79752743D01*
X82656287Y-79799648D01*
X82549555Y-79852286D01*
X82445413Y-79910655D01*
X82343862Y-79974756D01*
X82244902Y-80044588D01*
X82148532Y-80120153D01*
X82054753Y-80201448D01*
X81963564Y-80288476D01*
X81828295Y-80427566D01*
X81701235Y-80566090D01*
X81582384Y-80704047D01*
X81471741Y-80841437D01*
X81369308Y-80978260D01*
X81275083Y-81114517D01*
X81189068Y-81250207D01*
X81111261Y-81385330D01*
X81041663Y-81519887D01*
X80980275Y-81653877D01*
X80927095Y-81787300D01*
X80882124Y-81920157D01*
X80845362Y-82052447D01*
X80816809Y-82184170D01*
X80796464Y-82315327D01*
X80784329Y-82445916D01*
X80780127Y-82576231D01*
X79278967Y-82576231D01*
X79279716Y-82557830D01*
X79288383Y-82447669D01*
X79314191Y-82228538D01*
X79351302Y-82010993D01*
X79399713Y-81795036D01*
X79459426Y-81580665D01*
X79530441Y-81367880D01*
X79612756Y-81156683D01*
X79706374Y-80947072D01*
X79811293Y-80739048D01*
X79867990Y-80635631D01*
X79927513Y-80532610D01*
X79989861Y-80429987D01*
X80055034Y-80327760D01*
X80123033Y-80225929D01*
X80193857Y-80124496D01*
X80267507Y-80023459D01*
X80343982Y-79922819D01*
X80423282Y-79822575D01*
X80505408Y-79722728D01*
X80590359Y-79623278D01*
X80678135Y-79524225D01*
X80768737Y-79425568D01*
X80862164Y-79327308D01*
X80958416Y-79229444D01*
X81121178Y-79073062D01*
X81286676Y-78926702D01*
X81454910Y-78790364D01*
X81625881Y-78664049D01*
X81799588Y-78547756D01*
X81976031Y-78441485D01*
X82155211Y-78345236D01*
X82337127Y-78259010D01*
X82521779Y-78182807D01*
X82709167Y-78116625D01*
X82899292Y-78060466D01*
X83092153Y-78014329D01*
X83287750Y-77978215D01*
X83486084Y-77952123D01*
X83687154Y-77936053D01*
X83890960Y-77930006D01*
X84089165Y-77932961D01*
G37*
G36*
X91060951Y-84904747D02*
G01*
X91256095Y-84917239D01*
X91448179Y-84939267D01*
X91637203Y-84970832D01*
X91823167Y-85011933D01*
X92006070Y-85062571D01*
X92185914Y-85122745D01*
X92362697Y-85192456D01*
X92536420Y-85271704D01*
X92707083Y-85360488D01*
X92874686Y-85458809D01*
X93039228Y-85566667D01*
X93200711Y-85684061D01*
X93359134Y-85810991D01*
X93514496Y-85947459D01*
X93666798Y-86093462D01*
X93727353Y-86155394D01*
X93815028Y-86250294D01*
X93898915Y-86347599D01*
X93979012Y-86447308D01*
X94055321Y-86549422D01*
X94127842Y-86653940D01*
X94196573Y-86760862D01*
X94261516Y-86870189D01*
X94322670Y-86981920D01*
X94380035Y-87096056D01*
X94433612Y-87212596D01*
X94467670Y-87291228D01*
X94516298Y-87410664D01*
X94561975Y-87531886D01*
X94604702Y-87654892D01*
X94644477Y-87779683D01*
X94681302Y-87906260D01*
X94715176Y-88034621D01*
X94746099Y-88164768D01*
X94774071Y-88296700D01*
X94799093Y-88430416D01*
X94821163Y-88565918D01*
X94906896Y-88524161D01*
X95030576Y-88472030D01*
X95148355Y-88432503D01*
X95296212Y-88399408D01*
X95433578Y-88388722D01*
X95560452Y-88400445D01*
X95676834Y-88434576D01*
X95782724Y-88491115D01*
X95878123Y-88570063D01*
X95928801Y-88625469D01*
X96002060Y-88729755D01*
X96055683Y-88843362D01*
X96089671Y-88966291D01*
X96104022Y-89098543D01*
X96101937Y-89194961D01*
X96078958Y-89323147D01*
X96032574Y-89443399D01*
X95962786Y-89555717D01*
X95884340Y-89645675D01*
X95835744Y-89690850D01*
X95741340Y-89767950D01*
X95667668Y-89819436D01*
X95515843Y-89929002D01*
X95358044Y-90047359D01*
X95194271Y-90174509D01*
X95024522Y-90310450D01*
X94848800Y-90455182D01*
X94758698Y-90530846D01*
X94667102Y-90608707D01*
X94574013Y-90688766D01*
X94479431Y-90771024D01*
X94383354Y-90855479D01*
X94285784Y-90942132D01*
X94186721Y-91030983D01*
X94086163Y-91122032D01*
X93984113Y-91215279D01*
X93880568Y-91310724D01*
X93775530Y-91408367D01*
X93668998Y-91508207D01*
X93560973Y-91610246D01*
X93451454Y-91714483D01*
X93340441Y-91820917D01*
X93227934Y-91929550D01*
X93113935Y-92040381D01*
X92998441Y-92153409D01*
X92881454Y-92268636D01*
X92762973Y-92386060D01*
X92642998Y-92505682D01*
X92536549Y-92612682D01*
X92430667Y-92720215D01*
X92325352Y-92828283D01*
X92220603Y-92936886D01*
X92116421Y-93046022D01*
X92012806Y-93155693D01*
X91909757Y-93265898D01*
X91807275Y-93376638D01*
X91705360Y-93487911D01*
X91604011Y-93599719D01*
X91503229Y-93712062D01*
X91403014Y-93824939D01*
X91303365Y-93938350D01*
X91204284Y-94052295D01*
X91105768Y-94166775D01*
X91007820Y-94281789D01*
X90851731Y-94466439D01*
X90698998Y-94646826D01*
X90549620Y-94822952D01*
X90403598Y-94994815D01*
X90260932Y-95162416D01*
X90121621Y-95325754D01*
X89985666Y-95484831D01*
X89853066Y-95639645D01*
X89723822Y-95790196D01*
X89597934Y-95936485D01*
X89475401Y-96078512D01*
X89356224Y-96216277D01*
X89240402Y-96349779D01*
X89127937Y-96479019D01*
X89018826Y-96603996D01*
X88913072Y-96724712D01*
X88810673Y-96841165D01*
X88711629Y-96953355D01*
X88615942Y-97061284D01*
X88523609Y-97164950D01*
X88434633Y-97264353D01*
X88349012Y-97359494D01*
X88187837Y-97536990D01*
X88040084Y-97697436D01*
X87905754Y-97840834D01*
X87784847Y-97967181D01*
X87677362Y-98076480D01*
X87571957Y-98172558D01*
X87467136Y-98249401D01*
X87328280Y-98321938D01*
X87190461Y-98360279D01*
X87053678Y-98364423D01*
X86917931Y-98334373D01*
X86783221Y-98270126D01*
X86682868Y-98199500D01*
X86583098Y-98109639D01*
X86529602Y-98052128D01*
X86443595Y-97933998D01*
X86385566Y-97811722D01*
X86355515Y-97685301D01*
X86353443Y-97554736D01*
X86379348Y-97420025D01*
X86433233Y-97281170D01*
X86492007Y-97174308D01*
X86566518Y-97065115D01*
X86664313Y-96939585D01*
X86774801Y-96801846D01*
X86897984Y-96651900D01*
X87033860Y-96489745D01*
X87182430Y-96315383D01*
X87261476Y-96223623D01*
X87343694Y-96128812D01*
X87429087Y-96030949D01*
X87517652Y-95930033D01*
X87609391Y-95826066D01*
X87704304Y-95719046D01*
X87802390Y-95608974D01*
X87903650Y-95495851D01*
X88008083Y-95379675D01*
X88115689Y-95260447D01*
X88226469Y-95138168D01*
X88340422Y-95012836D01*
X88457549Y-94884452D01*
X88577850Y-94753016D01*
X88701324Y-94618528D01*
X88827971Y-94480988D01*
X88957792Y-94340397D01*
X89090786Y-94196753D01*
X89226954Y-94050057D01*
X89366295Y-93900308D01*
X89508809Y-93747508D01*
X89654498Y-93591656D01*
X88705307Y-93446583D01*
X88596387Y-93412479D01*
X88485682Y-93369230D01*
X88373191Y-93316838D01*
X88258916Y-93255301D01*
X88142856Y-93184620D01*
X88025010Y-93104796D01*
X87905380Y-93015828D01*
X87783964Y-92917715D01*
X87660764Y-92810459D01*
X87535778Y-92694058D01*
X87451463Y-92611378D01*
X87292555Y-92445119D01*
X87144834Y-92275347D01*
X87008302Y-92102061D01*
X86882958Y-91925261D01*
X86768803Y-91744949D01*
X86665835Y-91561122D01*
X86574055Y-91373782D01*
X86493464Y-91182929D01*
X86424060Y-90988562D01*
X86365845Y-90790682D01*
X86318818Y-90589288D01*
X86282979Y-90384381D01*
X86258328Y-90175960D01*
X86244865Y-89964025D01*
X86242590Y-89748578D01*
X86250754Y-89548018D01*
X87751914Y-89548018D01*
X87755889Y-89677830D01*
X87768040Y-89807141D01*
X87788368Y-89935950D01*
X87816873Y-90064257D01*
X87853554Y-90192062D01*
X87898412Y-90319365D01*
X87951446Y-90446166D01*
X88012657Y-90572465D01*
X88082044Y-90698262D01*
X88159608Y-90823558D01*
X88245348Y-90948351D01*
X88339265Y-91072643D01*
X88441358Y-91196432D01*
X88551628Y-91319720D01*
X88670075Y-91442506D01*
X88734378Y-91505044D01*
X88832017Y-91593417D01*
X88931076Y-91675270D01*
X89031557Y-91750601D01*
X89133458Y-91819412D01*
X89236780Y-91881701D01*
X89341522Y-91937470D01*
X89483389Y-92001684D01*
X89627782Y-92054305D01*
X89774701Y-92095333D01*
X89849350Y-92111743D01*
X90000446Y-92135771D01*
X90153938Y-92148076D01*
X90309827Y-92148659D01*
X90428316Y-92141403D01*
X90548153Y-92127554D01*
X90669338Y-92107110D01*
X90791870Y-92080073D01*
X90915751Y-92046442D01*
X91040980Y-92006217D01*
X91687590Y-91338882D01*
X92327983Y-90686054D01*
X93308261Y-89738936D01*
X93316130Y-89639154D01*
X93318623Y-89521650D01*
X93312406Y-89399051D01*
X93306958Y-89348777D01*
X93290515Y-89203980D01*
X93273928Y-89068217D01*
X93257194Y-88941489D01*
X93240315Y-88823795D01*
X93217582Y-88680924D01*
X93194591Y-88554115D01*
X93165487Y-88418190D01*
X93130029Y-88288207D01*
X93083495Y-88161042D01*
X93026794Y-88034459D01*
X92959924Y-87908460D01*
X92882887Y-87783043D01*
X92795681Y-87658209D01*
X92723604Y-87564966D01*
X92645807Y-87472051D01*
X92562291Y-87379464D01*
X92473056Y-87287205D01*
X92382361Y-87200558D01*
X92289027Y-87119367D01*
X92193054Y-87043633D01*
X92094442Y-86973355D01*
X91993190Y-86908534D01*
X91889299Y-86849169D01*
X91782770Y-86795260D01*
X91673601Y-86746808D01*
X91561793Y-86703813D01*
X91447345Y-86666273D01*
X91330259Y-86634191D01*
X91210533Y-86607564D01*
X91088169Y-86586394D01*
X90963165Y-86570681D01*
X90835522Y-86560424D01*
X90705239Y-86555623D01*
X90575192Y-86556675D01*
X90447735Y-86563460D01*
X90322869Y-86575975D01*
X90200593Y-86594223D01*
X90080908Y-86618202D01*
X89963814Y-86647913D01*
X89849310Y-86683355D01*
X89737396Y-86724529D01*
X89628074Y-86771435D01*
X89521341Y-86824073D01*
X89417200Y-86882442D01*
X89315649Y-86946543D01*
X89216688Y-87016375D01*
X89120319Y-87091939D01*
X89026539Y-87173235D01*
X88935351Y-87260263D01*
X88800082Y-87399353D01*
X88673021Y-87537876D01*
X88554170Y-87675833D01*
X88443528Y-87813223D01*
X88341094Y-87950047D01*
X88246870Y-88086304D01*
X88160854Y-88221994D01*
X88083048Y-88357117D01*
X88013450Y-88491674D01*
X87952061Y-88625664D01*
X87898881Y-88759087D01*
X87853910Y-88891944D01*
X87817148Y-89024234D01*
X87788595Y-89155957D01*
X87768251Y-89287113D01*
X87756116Y-89417703D01*
X87751914Y-89548018D01*
X86250754Y-89548018D01*
X86251503Y-89529616D01*
X86260169Y-89419456D01*
X86285978Y-89200325D01*
X86323088Y-88982780D01*
X86371500Y-88766822D01*
X86431213Y-88552451D01*
X86502227Y-88339667D01*
X86584543Y-88128469D01*
X86678160Y-87918859D01*
X86783079Y-87710834D01*
X86839777Y-87607417D01*
X86899299Y-87504397D01*
X86961648Y-87401773D01*
X87026821Y-87299546D01*
X87094820Y-87197716D01*
X87165644Y-87096283D01*
X87239294Y-86995246D01*
X87315769Y-86894605D01*
X87395069Y-86794362D01*
X87477195Y-86694515D01*
X87562146Y-86595065D01*
X87649922Y-86496011D01*
X87740524Y-86397354D01*
X87833951Y-86299094D01*
X87930203Y-86201231D01*
X88092965Y-86044848D01*
X88258463Y-85898488D01*
X88426697Y-85762151D01*
X88597668Y-85635835D01*
X88771375Y-85519542D01*
X88947818Y-85413272D01*
X89126997Y-85317023D01*
X89308913Y-85230797D01*
X89493565Y-85154593D01*
X89680954Y-85088412D01*
X89871079Y-85032253D01*
X90063940Y-84986116D01*
X90259537Y-84950002D01*
X90457871Y-84923910D01*
X90658941Y-84907840D01*
X90862747Y-84901793D01*
X91060951Y-84904747D01*
G37*
G36*
X91320763Y-99398715D02*
G01*
X91230902Y-99317355D01*
X91136184Y-99248137D01*
X91016110Y-99181106D01*
X90889042Y-99131561D01*
X90754979Y-99099502D01*
X90661718Y-99087845D01*
X90524157Y-99087359D01*
X90395923Y-99106108D01*
X90277016Y-99144093D01*
X90167434Y-99201312D01*
X90067178Y-99277767D01*
X90035832Y-99307527D01*
X89953038Y-99404601D01*
X89889626Y-99510855D01*
X89845594Y-99626290D01*
X89820943Y-99750905D01*
X89815673Y-99884701D01*
X89818223Y-99931340D01*
X89833412Y-100048028D01*
X89867802Y-100181507D01*
X89919824Y-100307847D01*
X89989479Y-100427047D01*
X90060993Y-100520925D01*
X90127021Y-100592458D01*
X90216831Y-100673666D01*
X90330881Y-100754687D01*
X90451781Y-100817784D01*
X90579529Y-100862957D01*
X90714126Y-100890207D01*
X90783993Y-100897110D01*
X90920145Y-100897596D01*
X91047262Y-100878847D01*
X91165344Y-100840862D01*
X91274391Y-100783643D01*
X91374404Y-100707188D01*
X91405734Y-100677429D01*
X91488673Y-100580355D01*
X91552523Y-100474100D01*
X91597284Y-100358665D01*
X91622955Y-100234050D01*
X91629536Y-100100254D01*
X91627488Y-100053615D01*
X91608496Y-99916298D01*
X91571726Y-99785684D01*
X91517178Y-99661773D01*
X91444852Y-99544565D01*
X91371000Y-99452012D01*
X91320763Y-99398715D01*
G37*
G36*
X96423182Y-94822703D02*
G01*
X96517609Y-94728859D01*
X96623694Y-94624523D01*
X96710907Y-94539386D01*
X96804678Y-94448347D01*
X96905007Y-94351407D01*
X97011893Y-94248564D01*
X97125336Y-94139820D01*
X97245337Y-94025175D01*
X97371896Y-93904627D01*
X97459911Y-93820984D01*
X97505011Y-93778179D01*
X97594743Y-93693466D01*
X97681560Y-93611345D01*
X97806321Y-93493020D01*
X97924524Y-93380523D01*
X98036170Y-93273856D01*
X98141259Y-93173017D01*
X98239791Y-93078008D01*
X98331765Y-92988827D01*
X98417181Y-92905475D01*
X98520869Y-92803406D01*
X98590985Y-92733654D01*
X98680020Y-92633544D01*
X98751278Y-92529062D01*
X98804757Y-92420209D01*
X98840459Y-92306984D01*
X98858382Y-92189388D01*
X98860406Y-92149218D01*
X98854189Y-92030310D01*
X98823361Y-91897477D01*
X98776730Y-91788673D01*
X98711447Y-91684531D01*
X98627512Y-91585053D01*
X98611710Y-91568926D01*
X98515680Y-91484554D01*
X98414113Y-91417960D01*
X98307008Y-91369143D01*
X98175054Y-91334660D01*
X98055952Y-91324363D01*
X98035563Y-91324375D01*
X97915805Y-91335668D01*
X97800565Y-91364885D01*
X97689841Y-91412026D01*
X97583635Y-91477090D01*
X97481947Y-91560078D01*
X97449055Y-91591723D01*
X97354110Y-91686021D01*
X97247507Y-91790680D01*
X97159905Y-91875976D01*
X97065745Y-91967099D01*
X96965028Y-92064052D01*
X96857753Y-92166834D01*
X96743921Y-92275444D01*
X96623532Y-92389883D01*
X96496585Y-92510151D01*
X96408311Y-92593568D01*
X96363081Y-92636248D01*
X96273357Y-92720952D01*
X96186565Y-92803049D01*
X96061870Y-92921308D01*
X95943770Y-93033701D01*
X95832263Y-93140228D01*
X95727351Y-93240891D01*
X95629032Y-93335688D01*
X95537307Y-93424620D01*
X95452176Y-93507687D01*
X95348925Y-93609319D01*
X95279179Y-93678700D01*
X95172736Y-93786163D01*
X95062469Y-93899491D01*
X94948375Y-94018684D01*
X94830457Y-94143743D01*
X94749720Y-94230373D01*
X94667283Y-94319611D01*
X94583145Y-94411455D01*
X94497308Y-94505907D01*
X94409770Y-94602965D01*
X94320533Y-94702629D01*
X94229595Y-94804901D01*
X94136957Y-94909779D01*
X94042619Y-95017264D01*
X93946581Y-95127356D01*
X93850794Y-95237699D01*
X93756691Y-95345419D01*
X93664272Y-95450515D01*
X93573537Y-95552989D01*
X93484486Y-95652840D01*
X93397118Y-95750068D01*
X93311434Y-95844673D01*
X93227435Y-95936655D01*
X93145119Y-96026014D01*
X93064487Y-96112750D01*
X92946696Y-96237936D01*
X92832694Y-96357221D01*
X92722481Y-96470603D01*
X92616056Y-96578085D01*
X92524981Y-96680380D01*
X92452266Y-96786756D01*
X92397913Y-96897212D01*
X92361920Y-97011749D01*
X92344287Y-97130365D01*
X92342490Y-97170811D01*
X92349825Y-97290836D01*
X92380851Y-97423867D01*
X92426705Y-97531894D01*
X92490336Y-97634384D01*
X92571745Y-97731337D01*
X92587042Y-97746957D01*
X92683703Y-97831961D01*
X92785610Y-97898895D01*
X92892763Y-97947760D01*
X93024405Y-97981931D01*
X93142925Y-97991646D01*
X93163188Y-97991509D01*
X93283869Y-97980701D01*
X93400324Y-97951387D01*
X93512553Y-97903566D01*
X93620556Y-97837239D01*
X93724333Y-97752406D01*
X93757987Y-97720015D01*
X93864429Y-97612552D01*
X93974697Y-97499224D01*
X94088790Y-97380031D01*
X94206709Y-97254972D01*
X94287446Y-97168342D01*
X94369883Y-97079104D01*
X94454021Y-96987260D01*
X94539858Y-96892808D01*
X94627396Y-96795750D01*
X94716633Y-96696086D01*
X94807571Y-96593814D01*
X94900209Y-96488936D01*
X94994547Y-96381451D01*
X95090584Y-96271359D01*
X95186622Y-96161267D01*
X95280960Y-96053782D01*
X95373598Y-95948904D01*
X95464536Y-95846632D01*
X95553773Y-95746968D01*
X95641311Y-95649910D01*
X95727148Y-95555459D01*
X95811286Y-95463614D01*
X95893723Y-95374377D01*
X95974460Y-95287746D01*
X96092378Y-95162687D01*
X96206472Y-95043494D01*
X96316739Y-94930166D01*
X96423182Y-94822703D01*
G37*
G36*
X101085882Y-95017580D02*
G01*
X101287268Y-95032022D01*
X101471102Y-95056244D01*
X101653706Y-95089533D01*
X101835080Y-95131890D01*
X102015222Y-95183313D01*
X102194135Y-95243803D01*
X102371817Y-95313360D01*
X102548268Y-95391984D01*
X102723489Y-95479676D01*
X102897479Y-95576434D01*
X103070239Y-95682260D01*
X103241768Y-95797152D01*
X103412067Y-95921112D01*
X103581135Y-96054138D01*
X103748973Y-96196232D01*
X103915580Y-96347393D01*
X104080956Y-96507621D01*
X104184960Y-96614879D01*
X104286098Y-96725780D01*
X104384371Y-96840325D01*
X104479777Y-96958512D01*
X104572318Y-97080343D01*
X104661992Y-97205816D01*
X104748801Y-97334932D01*
X104832744Y-97467692D01*
X104913822Y-97604094D01*
X104992033Y-97744140D01*
X105067379Y-97887828D01*
X105139858Y-98035160D01*
X105209472Y-98186134D01*
X105276220Y-98340752D01*
X105340103Y-98499013D01*
X105401119Y-98660916D01*
X105465479Y-98849025D01*
X105520221Y-99030463D01*
X105565346Y-99205231D01*
X105600853Y-99373327D01*
X105626743Y-99534753D01*
X105643015Y-99689509D01*
X105649670Y-99837593D01*
X105646707Y-99979007D01*
X105634126Y-100113749D01*
X105611928Y-100241822D01*
X105580112Y-100363223D01*
X105538679Y-100477954D01*
X105487629Y-100586013D01*
X105426960Y-100687402D01*
X105356674Y-100782121D01*
X105276771Y-100870168D01*
X105206785Y-100932262D01*
X105099963Y-101001511D01*
X104982828Y-101050133D01*
X104855380Y-101078128D01*
X104737929Y-101085705D01*
X104659467Y-101083017D01*
X104531040Y-101062886D01*
X104413919Y-101023118D01*
X104308104Y-100963715D01*
X104213594Y-100884676D01*
X104139690Y-100789642D01*
X104088955Y-100675518D01*
X104061389Y-100542305D01*
X104056117Y-100416713D01*
X104066935Y-100277863D01*
X104087174Y-100157239D01*
X104097504Y-100093851D01*
X104103980Y-99958233D01*
X104091545Y-99810829D01*
X104069809Y-99692540D01*
X104037434Y-99567621D01*
X103994423Y-99436072D01*
X103940773Y-99297893D01*
X103876486Y-99153083D01*
X103801561Y-99001643D01*
X103745702Y-98897000D01*
X103685115Y-98789409D01*
X103610469Y-98662912D01*
X103535751Y-98541442D01*
X103460960Y-98424999D01*
X103386096Y-98313583D01*
X103311159Y-98207195D01*
X103236150Y-98105834D01*
X103161067Y-98009501D01*
X103085912Y-97918195D01*
X102985591Y-97804274D01*
X102885141Y-97699290D01*
X102804024Y-97620002D01*
X102681254Y-97506838D01*
X102557173Y-97400596D01*
X102431781Y-97301275D01*
X102305077Y-97208876D01*
X102177061Y-97123399D01*
X102047734Y-97044843D01*
X101917096Y-96973210D01*
X101785146Y-96908498D01*
X101651885Y-96850707D01*
X101517312Y-96799839D01*
X101426884Y-96770257D01*
X101290210Y-96731532D01*
X101152298Y-96699583D01*
X101013147Y-96674410D01*
X100872758Y-96656013D01*
X100731129Y-96644391D01*
X100588263Y-96639546D01*
X100444157Y-96641477D01*
X100298813Y-96650184D01*
X100152230Y-96665667D01*
X100004409Y-96687925D01*
X101252036Y-99891963D01*
X101317157Y-100057987D01*
X101378845Y-100217211D01*
X101437101Y-100369635D01*
X101491924Y-100515258D01*
X101543315Y-100654081D01*
X101591273Y-100786104D01*
X101635799Y-100911326D01*
X101676892Y-101029749D01*
X101732096Y-101194631D01*
X101779576Y-101344213D01*
X101819334Y-101478495D01*
X101851368Y-101597476D01*
X101882066Y-101732316D01*
X101892327Y-101803148D01*
X101908357Y-101941582D01*
X101918395Y-102075710D01*
X101922443Y-102205531D01*
X101920500Y-102331045D01*
X101912566Y-102452252D01*
X101889433Y-102625987D01*
X101852821Y-102790032D01*
X101802730Y-102944386D01*
X101739159Y-103089050D01*
X101662109Y-103224024D01*
X101571580Y-103349307D01*
X101467572Y-103464900D01*
X101360897Y-103565698D01*
X101251744Y-103657219D01*
X101140114Y-103739462D01*
X101026007Y-103812427D01*
X100909422Y-103876115D01*
X100790361Y-103930525D01*
X100668822Y-103975658D01*
X100544806Y-104011514D01*
X100418312Y-104038091D01*
X100289341Y-104055392D01*
X100157893Y-104063414D01*
X100023968Y-104062160D01*
X99887566Y-104051627D01*
X99748686Y-104031817D01*
X99607329Y-104002730D01*
X99463495Y-103964365D01*
X99345777Y-103926453D01*
X99227848Y-103883183D01*
X99109710Y-103834552D01*
X98991360Y-103780563D01*
X98872800Y-103721214D01*
X98754030Y-103656506D01*
X98635049Y-103586439D01*
X98515858Y-103511012D01*
X98396456Y-103430227D01*
X98276844Y-103344081D01*
X98157021Y-103252577D01*
X98036988Y-103155713D01*
X97916744Y-103053490D01*
X97796290Y-102945908D01*
X97675626Y-102832967D01*
X97554750Y-102714666D01*
X97472953Y-102630678D01*
X97319072Y-102459279D01*
X97178144Y-102283313D01*
X97050169Y-102102782D01*
X96935147Y-101917684D01*
X96833078Y-101728021D01*
X96743962Y-101533792D01*
X96667798Y-101334997D01*
X96604588Y-101131635D01*
X96554331Y-100923709D01*
X96517026Y-100711216D01*
X96492675Y-100494157D01*
X96481276Y-100272532D01*
X96482830Y-100046342D01*
X96489036Y-99947628D01*
X98075021Y-99947628D01*
X98078891Y-100067475D01*
X98088622Y-100185185D01*
X98114208Y-100357742D01*
X98152982Y-100525491D01*
X98204943Y-100688431D01*
X98270092Y-100846562D01*
X98348429Y-100999884D01*
X98439954Y-101148397D01*
X98508297Y-101244735D01*
X98582501Y-101338935D01*
X98662566Y-101430998D01*
X98748493Y-101520924D01*
X98861564Y-101630611D01*
X98974878Y-101733773D01*
X99088434Y-101830410D01*
X99202234Y-101920522D01*
X99316276Y-102004109D01*
X99430562Y-102081170D01*
X99545090Y-102151707D01*
X99659861Y-102215719D01*
X99774875Y-102273206D01*
X99890132Y-102324167D01*
X100005632Y-102368604D01*
X100121374Y-102406516D01*
X100237360Y-102437902D01*
X100353588Y-102462764D01*
X100470059Y-102481100D01*
X100586773Y-102492912D01*
X100564265Y-102336135D01*
X100533269Y-102166571D01*
X100507890Y-102046424D01*
X100478737Y-101920595D01*
X100445813Y-101789082D01*
X100409115Y-101651886D01*
X100368646Y-101509007D01*
X100324403Y-101360445D01*
X100276388Y-101206200D01*
X100224601Y-101046272D01*
X100169041Y-100880660D01*
X100109708Y-100709366D01*
X100046603Y-100532388D01*
X99979726Y-100349728D01*
X99909076Y-100161384D01*
X98910145Y-97583232D01*
X98813630Y-97739655D01*
X98723040Y-97893908D01*
X98638377Y-98045992D01*
X98559639Y-98195906D01*
X98486827Y-98343650D01*
X98419942Y-98489225D01*
X98358982Y-98632630D01*
X98303948Y-98773866D01*
X98254840Y-98912932D01*
X98211658Y-99049828D01*
X98174403Y-99184555D01*
X98143073Y-99317112D01*
X98117669Y-99447499D01*
X98098191Y-99575717D01*
X98084639Y-99701765D01*
X98077013Y-99825644D01*
X98075021Y-99947628D01*
X96489036Y-99947628D01*
X96497338Y-99815585D01*
X96509449Y-99698495D01*
X96524798Y-99580263D01*
X96543385Y-99460889D01*
X96584697Y-99241896D01*
X96635578Y-99024796D01*
X96696028Y-98809592D01*
X96766046Y-98596281D01*
X96845634Y-98384865D01*
X96934791Y-98175343D01*
X97033516Y-97967716D01*
X97141811Y-97761983D01*
X97199547Y-97659826D01*
X97259675Y-97558144D01*
X97322195Y-97456935D01*
X97387107Y-97356200D01*
X97454412Y-97255938D01*
X97524109Y-97156150D01*
X97596198Y-97056835D01*
X97670679Y-96957994D01*
X97747553Y-96859627D01*
X97826819Y-96761733D01*
X97908477Y-96664313D01*
X97992527Y-96567366D01*
X98078970Y-96470893D01*
X98167805Y-96374893D01*
X98259032Y-96279368D01*
X98352651Y-96184315D01*
X98518092Y-96025836D01*
X98685930Y-95878885D01*
X98856164Y-95743462D01*
X99028794Y-95619567D01*
X99203821Y-95507201D01*
X99381244Y-95406362D01*
X99561063Y-95317052D01*
X99743278Y-95239269D01*
X99927890Y-95173015D01*
X100114898Y-95118289D01*
X100304302Y-95075091D01*
X100496102Y-95043421D01*
X100690299Y-95023279D01*
X100886892Y-95014665D01*
X101085882Y-95017580D01*
G37*
D11*
D12*
X79307613Y-57551092D02*
X79981048Y-58224527D01*
X80738662Y-56625119D02*
X79223434Y-58140348D01*
X79223434Y-58140348D02*
X79139254Y-58392886D01*
X79139254Y-58392886D02*
X79223434Y-58645424D01*
X79223434Y-58645424D02*
X79391792Y-58813783D01*
X82338070Y-58392885D02*
X82253891Y-58140347D01*
X82253891Y-58140347D02*
X81917173Y-57803630D01*
X81917173Y-57803630D02*
X81664635Y-57719450D01*
X81664635Y-57719450D02*
X81412097Y-57803630D01*
X81412097Y-57803630D02*
X80738662Y-58477065D01*
X80738662Y-58477065D02*
X80654483Y-58729603D01*
X80654483Y-58729603D02*
X80738662Y-58982141D01*
X80738662Y-58982141D02*
X81075380Y-59318859D01*
X81075380Y-59318859D02*
X81327918Y-59403038D01*
X81327918Y-59403038D02*
X81580456Y-59318859D01*
X81580456Y-59318859D02*
X81748815Y-59150500D01*
X81748815Y-59150500D02*
X81075380Y-58140347D01*
X83516582Y-59403038D02*
X83264043Y-59318859D01*
X83264043Y-59318859D02*
X83011505Y-59403038D01*
X83011505Y-59403038D02*
X81496276Y-60918267D01*
X84190017Y-60076473D02*
X83011505Y-61254984D01*
X82422250Y-61844240D02*
X82422250Y-61675881D01*
X82422250Y-61675881D02*
X82590609Y-61675881D01*
X82590609Y-61675881D02*
X82590609Y-61844240D01*
X82590609Y-61844240D02*
X82422250Y-61844240D01*
X82422250Y-61844240D02*
X82590609Y-61675881D01*
X84863452Y-60749908D02*
X84610913Y-62854392D01*
X83684940Y-61928419D02*
X85789425Y-61675881D01*
X86294501Y-62517675D02*
X86462860Y-62517675D01*
X86462860Y-62517675D02*
X86462860Y-62349317D01*
X86462860Y-62349317D02*
X86294501Y-62349317D01*
X86294501Y-62349317D02*
X86294501Y-62517675D01*
X86294501Y-62517675D02*
X86462860Y-62349317D01*
X87304654Y-63191110D02*
X85536887Y-64958877D01*
X86799578Y-64032904D02*
X87978089Y-63864545D01*
X86799578Y-65043057D02*
X86799578Y-63696186D01*
X89324959Y-65379774D02*
X89240780Y-65127236D01*
X89240780Y-65127236D02*
X88904062Y-64790519D01*
X88904062Y-64790519D02*
X88651524Y-64706339D01*
X88651524Y-64706339D02*
X88398986Y-64790519D01*
X88398986Y-64790519D02*
X87725551Y-65463954D01*
X87725551Y-65463954D02*
X87641372Y-65716492D01*
X87641372Y-65716492D02*
X87725551Y-65969030D01*
X87725551Y-65969030D02*
X88062269Y-66305748D01*
X88062269Y-66305748D02*
X88314807Y-66389927D01*
X88314807Y-66389927D02*
X88567345Y-66305748D01*
X88567345Y-66305748D02*
X88735704Y-66137389D01*
X88735704Y-66137389D02*
X88062269Y-65127236D01*
X91008547Y-66895003D02*
X89240780Y-68662770D01*
X90924367Y-66979182D02*
X90840188Y-66726644D01*
X90840188Y-66726644D02*
X90503470Y-66389927D01*
X90503470Y-66389927D02*
X90250932Y-66305747D01*
X90250932Y-66305747D02*
X90082574Y-66305747D01*
X90082574Y-66305747D02*
X89830035Y-66389927D01*
X89830035Y-66389927D02*
X89324959Y-66895003D01*
X89324959Y-66895003D02*
X89240780Y-67147541D01*
X89240780Y-67147541D02*
X89240780Y-67315900D01*
X89240780Y-67315900D02*
X89324959Y-67568438D01*
X89324959Y-67568438D02*
X89661677Y-67905156D01*
X89661677Y-67905156D02*
X89914215Y-67989335D01*
X92607955Y-68494411D02*
X90840188Y-70262178D01*
X92523776Y-68578591D02*
X92439596Y-68326053D01*
X92439596Y-68326053D02*
X92102879Y-67989335D01*
X92102879Y-67989335D02*
X91850341Y-67905156D01*
X91850341Y-67905156D02*
X91681982Y-67905156D01*
X91681982Y-67905156D02*
X91429444Y-67989335D01*
X91429444Y-67989335D02*
X90924367Y-68494411D01*
X90924367Y-68494411D02*
X90840188Y-68746950D01*
X90840188Y-68746950D02*
X90840188Y-68915308D01*
X90840188Y-68915308D02*
X90924367Y-69167846D01*
X90924367Y-69167846D02*
X91261085Y-69504564D01*
X91261085Y-69504564D02*
X91513623Y-69588743D01*
X93449749Y-69336205D02*
X92271238Y-70514717D01*
X91681982Y-71103972D02*
X91681982Y-70935614D01*
X91681982Y-70935614D02*
X91850341Y-70935614D01*
X91850341Y-70935614D02*
X91850341Y-71103972D01*
X91850341Y-71103972D02*
X91681982Y-71103972D01*
X91681982Y-71103972D02*
X91850341Y-70935614D01*
X94880798Y-70935613D02*
X94796619Y-70683075D01*
X94796619Y-70683075D02*
X94459901Y-70346358D01*
X94459901Y-70346358D02*
X94207363Y-70262178D01*
X94207363Y-70262178D02*
X93954825Y-70346358D01*
X93954825Y-70346358D02*
X93281390Y-71019793D01*
X93281390Y-71019793D02*
X93197211Y-71272331D01*
X93197211Y-71272331D02*
X93281390Y-71524869D01*
X93281390Y-71524869D02*
X93618108Y-71861587D01*
X93618108Y-71861587D02*
X93870646Y-71945766D01*
X93870646Y-71945766D02*
X94123184Y-71861587D01*
X94123184Y-71861587D02*
X94291543Y-71693228D01*
X94291543Y-71693228D02*
X93618108Y-70683075D01*
X96059310Y-73629353D02*
X95890951Y-73629353D01*
X95890951Y-73629353D02*
X95638413Y-73545174D01*
X95638413Y-73545174D02*
X95470054Y-73376815D01*
X95470054Y-73376815D02*
X95385874Y-73124277D01*
X95385874Y-73124277D02*
X95385874Y-72955918D01*
X95385874Y-72955918D02*
X95470054Y-72703380D01*
X95470054Y-72703380D02*
X95638413Y-72535022D01*
X95638413Y-72535022D02*
X95890951Y-72450842D01*
X95890951Y-72450842D02*
X96059310Y-72450842D01*
X96059310Y-72450842D02*
X96311848Y-72535022D01*
X96311848Y-72535022D02*
X96480206Y-72703380D01*
X96480206Y-72703380D02*
X96564386Y-72955918D01*
X96564386Y-72955918D02*
X96564386Y-73124277D01*
X95890951Y-73797712D02*
X96564386Y-73124277D01*
X96564386Y-73124277D02*
X96732745Y-73124277D01*
X96732745Y-73124277D02*
X96816924Y-73208457D01*
X96816924Y-73208457D02*
X96901103Y-73460995D01*
X96901103Y-73460995D02*
X96816924Y-73713533D01*
X96816924Y-73713533D02*
X96396027Y-74134430D01*
X96396027Y-74134430D02*
X95975130Y-74218609D01*
X95975130Y-74218609D02*
X95554233Y-74134430D01*
X95554233Y-74134430D02*
X95133336Y-73881892D01*
X95133336Y-73881892D02*
X94880798Y-73460995D01*
X94880798Y-73460995D02*
X94796619Y-73040098D01*
X94796619Y-73040098D02*
X94880798Y-72619201D01*
X94880798Y-72619201D02*
X95133336Y-72198304D01*
X95133336Y-72198304D02*
X95554233Y-71945766D01*
X95554233Y-71945766D02*
X95975130Y-71861587D01*
X95975130Y-71861587D02*
X96396027Y-71945766D01*
X96396027Y-71945766D02*
X96816924Y-72198304D01*
X96816924Y-72198304D02*
X97069462Y-72619201D01*
X97069462Y-72619201D02*
X97153641Y-73040098D01*
X97658718Y-75902197D02*
X99089767Y-74471147D01*
X99089767Y-74471147D02*
X99173947Y-74218609D01*
X99173947Y-74218609D02*
X99173947Y-74050251D01*
X99173947Y-74050251D02*
X99089767Y-73797712D01*
X99089767Y-73797712D02*
X98837229Y-73545174D01*
X98837229Y-73545174D02*
X98584691Y-73460995D01*
X98753050Y-74807865D02*
X98668870Y-74555327D01*
X98668870Y-74555327D02*
X98332153Y-74218609D01*
X98332153Y-74218609D02*
X98079615Y-74134430D01*
X98079615Y-74134430D02*
X97911256Y-74134430D01*
X97911256Y-74134430D02*
X97658718Y-74218609D01*
X97658718Y-74218609D02*
X97153642Y-74723686D01*
X97153642Y-74723686D02*
X97069462Y-74976224D01*
X97069462Y-74976224D02*
X97069462Y-75144582D01*
X97069462Y-75144582D02*
X97153642Y-75397121D01*
X97153642Y-75397121D02*
X97490359Y-75733838D01*
X97490359Y-75733838D02*
X97742897Y-75818018D01*
X99679023Y-75565480D02*
X98500512Y-76743991D01*
X98668871Y-76575632D02*
X98668871Y-76743991D01*
X98668871Y-76743991D02*
X98753050Y-76996529D01*
X98753050Y-76996529D02*
X99005588Y-77249067D01*
X99005588Y-77249067D02*
X99258126Y-77333247D01*
X99258126Y-77333247D02*
X99510664Y-77249067D01*
X99510664Y-77249067D02*
X100436638Y-76323094D01*
X99510664Y-77249067D02*
X99426485Y-77501605D01*
X99426485Y-77501605D02*
X99510664Y-77754143D01*
X99510664Y-77754143D02*
X99763203Y-78006682D01*
X99763203Y-78006682D02*
X100015741Y-78090861D01*
X100015741Y-78090861D02*
X100268279Y-78006682D01*
X100268279Y-78006682D02*
X101194252Y-77080708D01*
X102793660Y-78680116D02*
X101867687Y-79606090D01*
X101867687Y-79606090D02*
X101615149Y-79690269D01*
X101615149Y-79690269D02*
X101362610Y-79606090D01*
X101362610Y-79606090D02*
X101025893Y-79269372D01*
X101025893Y-79269372D02*
X100941714Y-79016834D01*
X102709481Y-78764296D02*
X102625301Y-78511758D01*
X102625301Y-78511758D02*
X102204404Y-78090861D01*
X102204404Y-78090861D02*
X101951866Y-78006681D01*
X101951866Y-78006681D02*
X101699328Y-78090861D01*
X101699328Y-78090861D02*
X101530969Y-78259219D01*
X101530969Y-78259219D02*
X101446790Y-78511758D01*
X101446790Y-78511758D02*
X101530969Y-78764296D01*
X101530969Y-78764296D02*
X101951866Y-79185193D01*
X101951866Y-79185193D02*
X102036046Y-79437731D01*
X103635454Y-79521910D02*
X102456943Y-80700422D01*
X101867687Y-81289677D02*
X101867687Y-81121318D01*
X101867687Y-81121318D02*
X102036046Y-81121318D01*
X102036046Y-81121318D02*
X102036046Y-81289677D01*
X102036046Y-81289677D02*
X101867687Y-81289677D01*
X101867687Y-81289677D02*
X102036046Y-81121318D01*
X104729786Y-80616242D02*
X104477248Y-80532063D01*
X104477248Y-80532063D02*
X104224709Y-80616242D01*
X104224709Y-80616242D02*
X102709481Y-82131471D01*
X105234862Y-81458036D02*
X105403221Y-81458036D01*
X105403221Y-81458036D02*
X105403221Y-81289677D01*
X105403221Y-81289677D02*
X105234862Y-81289677D01*
X105234862Y-81289677D02*
X105234862Y-81458036D01*
X105234862Y-81458036D02*
X105403221Y-81289677D01*
X106918450Y-82973265D02*
X106834270Y-82720727D01*
X106834270Y-82720727D02*
X106497553Y-82384009D01*
X106497553Y-82384009D02*
X106245014Y-82299830D01*
X106245014Y-82299830D02*
X106076656Y-82299830D01*
X106076656Y-82299830D02*
X105824118Y-82384009D01*
X105824118Y-82384009D02*
X105319041Y-82889085D01*
X105319041Y-82889085D02*
X105234862Y-83141623D01*
X105234862Y-83141623D02*
X105234862Y-83309982D01*
X105234862Y-83309982D02*
X105319041Y-83562520D01*
X105319041Y-83562520D02*
X105655759Y-83899238D01*
X105655759Y-83899238D02*
X105908297Y-83983417D01*
X108012781Y-83899238D02*
X107760243Y-83815058D01*
X107760243Y-83815058D02*
X107591884Y-83815058D01*
X107591884Y-83815058D02*
X107339346Y-83899238D01*
X107339346Y-83899238D02*
X106834270Y-84404314D01*
X106834270Y-84404314D02*
X106750091Y-84656852D01*
X106750091Y-84656852D02*
X106750091Y-84825211D01*
X106750091Y-84825211D02*
X106834270Y-85077749D01*
X106834270Y-85077749D02*
X107086808Y-85330287D01*
X107086808Y-85330287D02*
X107339346Y-85414467D01*
X107339346Y-85414467D02*
X107507705Y-85414467D01*
X107507705Y-85414467D02*
X107760243Y-85330287D01*
X107760243Y-85330287D02*
X108265319Y-84825211D01*
X108265319Y-84825211D02*
X108349499Y-84572673D01*
X108349499Y-84572673D02*
X108349499Y-84404314D01*
X108349499Y-84404314D02*
X108265319Y-84151776D01*
X108265319Y-84151776D02*
X108012781Y-83899238D01*
X109359652Y-85246108D02*
X108181140Y-86424619D01*
X108349499Y-86256261D02*
X108349499Y-86424619D01*
X108349499Y-86424619D02*
X108433678Y-86677157D01*
X108433678Y-86677157D02*
X108686217Y-86929696D01*
X108686217Y-86929696D02*
X108938755Y-87013875D01*
X108938755Y-87013875D02*
X109191293Y-86929696D01*
X109191293Y-86929696D02*
X110117266Y-86003722D01*
X109191293Y-86929696D02*
X109107113Y-87182234D01*
X109107113Y-87182234D02*
X109191293Y-87434772D01*
X109191293Y-87434772D02*
X109443831Y-87687310D01*
X109443831Y-87687310D02*
X109696369Y-87771489D01*
X109696369Y-87771489D02*
X109948907Y-87687310D01*
X109948907Y-87687310D02*
X110874880Y-86761337D01*
D13*
D14*
X57118812Y-81809099D02*
X58735056Y-83425343D01*
X58735056Y-81809099D02*
X57118812Y-83425343D01*
X61664498Y-84738541D02*
X60452315Y-83526358D01*
X61058407Y-84132450D02*
X58937086Y-86253770D01*
X58937086Y-86253770D02*
X59038102Y-85748694D01*
X59038102Y-85748694D02*
X59038102Y-85344633D01*
X59038102Y-85344633D02*
X58937086Y-85041587D01*
X62169575Y-89082197D02*
X62169575Y-89284228D01*
X62169575Y-89284228D02*
X62270590Y-89587274D01*
X62270590Y-89587274D02*
X62775666Y-90092350D01*
X62775666Y-90092350D02*
X63078712Y-90193365D01*
X63078712Y-90193365D02*
X63280742Y-90193365D01*
X63280742Y-90193365D02*
X63583788Y-90092350D01*
X63583788Y-90092350D02*
X63785819Y-89890319D01*
X63785819Y-89890319D02*
X63987849Y-89486258D01*
X63987849Y-89486258D02*
X63987849Y-87061892D01*
X63987849Y-87061892D02*
X65301047Y-88375091D01*
X63886834Y-91203518D02*
X65200032Y-92516716D01*
X65200032Y-92516716D02*
X65301047Y-91001487D01*
X65301047Y-91001487D02*
X65604093Y-91304533D01*
X65604093Y-91304533D02*
X65907139Y-91405548D01*
X65907139Y-91405548D02*
X66109170Y-91405548D01*
X66109170Y-91405548D02*
X66412215Y-91304533D01*
X66412215Y-91304533D02*
X66917292Y-90799457D01*
X66917292Y-90799457D02*
X67018307Y-90496411D01*
X67018307Y-90496411D02*
X67018307Y-90294380D01*
X67018307Y-90294380D02*
X66917292Y-89991335D01*
X66917292Y-89991335D02*
X66311200Y-89385243D01*
X66311200Y-89385243D02*
X66008154Y-89284228D01*
X66008154Y-89284228D02*
X65806124Y-89284228D01*
X67018307Y-94334991D02*
X66614246Y-93930930D01*
X66614246Y-93930930D02*
X66513231Y-93627884D01*
X66513231Y-93627884D02*
X66513231Y-93425853D01*
X66513231Y-93425853D02*
X66614246Y-92920777D01*
X66614246Y-92920777D02*
X66917292Y-92415701D01*
X66917292Y-92415701D02*
X67725414Y-91607579D01*
X67725414Y-91607579D02*
X68028459Y-91506564D01*
X68028459Y-91506564D02*
X68230490Y-91506564D01*
X68230490Y-91506564D02*
X68533536Y-91607579D01*
X68533536Y-91607579D02*
X68937597Y-92011640D01*
X68937597Y-92011640D02*
X69038612Y-92314686D01*
X69038612Y-92314686D02*
X69038612Y-92516716D01*
X69038612Y-92516716D02*
X68937597Y-92819762D01*
X68937597Y-92819762D02*
X68432520Y-93324838D01*
X68432520Y-93324838D02*
X68129475Y-93425853D01*
X68129475Y-93425853D02*
X67927444Y-93425853D01*
X67927444Y-93425853D02*
X67624398Y-93324838D01*
X67624398Y-93324838D02*
X67220337Y-92920777D01*
X67220337Y-92920777D02*
X67119322Y-92617731D01*
X67119322Y-92617731D02*
X67119322Y-92415701D01*
X67119322Y-92415701D02*
X67220337Y-92112655D01*
X71968054Y-95042097D02*
X72372115Y-95446158D01*
X72372115Y-95446158D02*
X72473131Y-95749204D01*
X72473131Y-95749204D02*
X72473131Y-95951235D01*
X72473131Y-95951235D02*
X72372115Y-96456311D01*
X72372115Y-96456311D02*
X72069070Y-96961387D01*
X72069070Y-96961387D02*
X71260948Y-97769509D01*
X71260948Y-97769509D02*
X70957902Y-97870525D01*
X70957902Y-97870525D02*
X70755871Y-97870525D01*
X70755871Y-97870525D02*
X70452825Y-97769509D01*
X70452825Y-97769509D02*
X70048764Y-97365448D01*
X70048764Y-97365448D02*
X69947749Y-97062403D01*
X69947749Y-97062403D02*
X69947749Y-96860372D01*
X69947749Y-96860372D02*
X70048764Y-96557326D01*
X70048764Y-96557326D02*
X70553841Y-96052250D01*
X70553841Y-96052250D02*
X70856886Y-95951235D01*
X70856886Y-95951235D02*
X71058917Y-95951235D01*
X71058917Y-95951235D02*
X71361963Y-96052250D01*
X71361963Y-96052250D02*
X71766024Y-96456311D01*
X71766024Y-96456311D02*
X71867039Y-96759357D01*
X71867039Y-96759357D02*
X71867039Y-96961387D01*
X71867039Y-96961387D02*
X71766024Y-97264433D01*
X71563993Y-98880677D02*
X72978207Y-100294891D01*
X72978207Y-100294891D02*
X74190390Y-97264433D01*
X74796482Y-102113165D02*
X73786329Y-101103013D01*
X73786329Y-101103013D02*
X74695466Y-99991845D01*
X74695466Y-99991845D02*
X74695466Y-100193876D01*
X74695466Y-100193876D02*
X74796482Y-100496921D01*
X74796482Y-100496921D02*
X75301558Y-101001998D01*
X75301558Y-101001998D02*
X75604604Y-101103013D01*
X75604604Y-101103013D02*
X75806634Y-101103013D01*
X75806634Y-101103013D02*
X76109680Y-101001998D01*
X76109680Y-101001998D02*
X76614756Y-100496921D01*
X76614756Y-100496921D02*
X76715771Y-100193876D01*
X76715771Y-100193876D02*
X76715771Y-99991845D01*
X76715771Y-99991845D02*
X76614756Y-99688799D01*
X76614756Y-99688799D02*
X76109680Y-99183723D01*
X76109680Y-99183723D02*
X75806634Y-99082708D01*
X75806634Y-99082708D02*
X75604604Y-99082708D01*
X77523893Y-104436516D02*
X77523893Y-104638547D01*
X77523893Y-104638547D02*
X77624909Y-104941592D01*
X77624909Y-104941592D02*
X78129985Y-105446669D01*
X78129985Y-105446669D02*
X78433031Y-105547684D01*
X78433031Y-105547684D02*
X78635061Y-105547684D01*
X78635061Y-105547684D02*
X78938107Y-105446669D01*
X78938107Y-105446669D02*
X79140137Y-105244638D01*
X79140137Y-105244638D02*
X79342168Y-104840577D01*
X79342168Y-104840577D02*
X79342168Y-102416211D01*
X79342168Y-102416211D02*
X80655366Y-103729409D01*
X80655366Y-106153776D02*
X80352321Y-106052760D01*
X80352321Y-106052760D02*
X80150290Y-106052760D01*
X80150290Y-106052760D02*
X79847244Y-106153776D01*
X79847244Y-106153776D02*
X79746229Y-106254791D01*
X79746229Y-106254791D02*
X79645214Y-106557837D01*
X79645214Y-106557837D02*
X79645214Y-106759867D01*
X79645214Y-106759867D02*
X79746229Y-107062913D01*
X79746229Y-107062913D02*
X80150290Y-107466974D01*
X80150290Y-107466974D02*
X80453336Y-107567989D01*
X80453336Y-107567989D02*
X80655366Y-107567989D01*
X80655366Y-107567989D02*
X80958412Y-107466974D01*
X80958412Y-107466974D02*
X81059427Y-107365959D01*
X81059427Y-107365959D02*
X81160443Y-107062913D01*
X81160443Y-107062913D02*
X81160443Y-106860882D01*
X81160443Y-106860882D02*
X81059427Y-106557837D01*
X81059427Y-106557837D02*
X80655366Y-106153776D01*
X80655366Y-106153776D02*
X80554351Y-105850730D01*
X80554351Y-105850730D02*
X80554351Y-105648699D01*
X80554351Y-105648699D02*
X80655366Y-105345654D01*
X80655366Y-105345654D02*
X81059427Y-104941593D01*
X81059427Y-104941593D02*
X81362473Y-104840577D01*
X81362473Y-104840577D02*
X81564504Y-104840577D01*
X81564504Y-104840577D02*
X81867549Y-104941593D01*
X81867549Y-104941593D02*
X82271610Y-105345654D01*
X82271610Y-105345654D02*
X82372626Y-105648699D01*
X82372626Y-105648699D02*
X82372626Y-105850730D01*
X82372626Y-105850730D02*
X82271610Y-106153776D01*
X82271610Y-106153776D02*
X81867549Y-106557837D01*
X81867549Y-106557837D02*
X81564504Y-106658852D01*
X81564504Y-106658852D02*
X81362473Y-106658852D01*
X81362473Y-106658852D02*
X81059427Y-106557837D01*
X82675672Y-108174081D02*
X82372626Y-108073066D01*
X82372626Y-108073066D02*
X82170595Y-108073066D01*
X82170595Y-108073066D02*
X81867550Y-108174081D01*
X81867550Y-108174081D02*
X81766534Y-108275096D01*
X81766534Y-108275096D02*
X81665519Y-108578142D01*
X81665519Y-108578142D02*
X81665519Y-108780172D01*
X81665519Y-108780172D02*
X81766534Y-109083218D01*
X81766534Y-109083218D02*
X82170595Y-109487279D01*
X82170595Y-109487279D02*
X82473641Y-109588294D01*
X82473641Y-109588294D02*
X82675672Y-109588294D01*
X82675672Y-109588294D02*
X82978717Y-109487279D01*
X82978717Y-109487279D02*
X83079733Y-109386264D01*
X83079733Y-109386264D02*
X83180748Y-109083218D01*
X83180748Y-109083218D02*
X83180748Y-108881188D01*
X83180748Y-108881188D02*
X83079733Y-108578142D01*
X83079733Y-108578142D02*
X82675672Y-108174081D01*
X82675672Y-108174081D02*
X82574656Y-107871035D01*
X82574656Y-107871035D02*
X82574656Y-107669005D01*
X82574656Y-107669005D02*
X82675672Y-107365959D01*
X82675672Y-107365959D02*
X83079733Y-106961898D01*
X83079733Y-106961898D02*
X83382778Y-106860883D01*
X83382778Y-106860883D02*
X83584809Y-106860883D01*
X83584809Y-106860883D02*
X83887855Y-106961898D01*
X83887855Y-106961898D02*
X84291916Y-107365959D01*
X84291916Y-107365959D02*
X84392931Y-107669005D01*
X84392931Y-107669005D02*
X84392931Y-107871035D01*
X84392931Y-107871035D02*
X84291916Y-108174081D01*
X84291916Y-108174081D02*
X83887855Y-108578142D01*
X83887855Y-108578142D02*
X83584809Y-108679157D01*
X83584809Y-108679157D02*
X83382778Y-108679157D01*
X83382778Y-108679157D02*
X83079733Y-108578142D01*
X85100038Y-111002508D02*
X86514251Y-109588294D01*
X83786839Y-111305554D02*
X84796992Y-109285249D01*
X84796992Y-109285249D02*
X86110190Y-110598447D01*
D15*
G04 #@! TO.N,*
X60000000Y-60000000D03*
G04 #@! TD*
M02*
