G04 #@! TF.GenerationSoftware,KiCad,Pcbnew,8.0.4-1.fc40*
G04 #@! TF.CreationDate,2024-09-16T09:24:30-07:00*
G04 #@! TF.ProjectId,mrfixit,6d726669-7869-4742-9e6b-696361645f70,rev?*
G04 #@! TF.SameCoordinates,Original*
G04 #@! TF.FileFunction,Profile,NP*
%FSLAX46Y46*%
G04 Gerber Fmt 4.6, Leading zero omitted, Abs format (unit mm)*
G04 Created by KiCad (PCBNEW 8.0.4-1.fc40) date 2024-09-16 09:24:30*
%MOMM*%
%LPD*%
G01*
G04 APERTURE LIST*
G04 #@! TA.AperFunction,Profile*
%ADD10C,0.200000*%
G04 #@! TD*
%ADD11C,0.200000*%
G04 APERTURE END LIST*
D10*
X164618220Y-104704375D02*
X158583845Y-106468265D01*
X157241722Y-106998061D02*
X154522514Y-107055878D01*
D11*
X158123829Y-52911594D02*
X158156495Y-52988918D01*
X125839644Y-64763846D02*
X125637577Y-64683957D01*
X125456084Y-64565201D01*
X125284382Y-64420668D01*
X125231385Y-64373774D01*
X152408795Y-109555468D02*
X152501771Y-109759012D01*
X152625193Y-109931363D01*
X152764739Y-110079240D01*
X152801998Y-110104550D01*
X125231385Y-64373774D02*
X125069418Y-64224037D01*
X124924234Y-64069906D01*
X124807783Y-63898478D01*
X124801382Y-63885707D01*
X130248502Y-136786570D02*
X130034295Y-136736860D01*
X129835985Y-136696328D01*
X129634567Y-136660806D01*
X129528951Y-136646158D01*
D10*
X146446817Y-69911892D02*
X146380700Y-70150242D01*
D11*
X122624133Y-136471803D02*
X122389294Y-136470201D01*
X122187449Y-136465072D01*
X121968201Y-136452679D01*
X121756443Y-136425115D01*
X121742189Y-136421998D01*
X119993112Y-131244023D02*
X120155975Y-131114372D01*
X120313434Y-130980861D01*
X120465662Y-130848091D01*
X120575196Y-130750469D01*
X158392426Y-136944055D02*
X158519671Y-137107899D01*
X158518609Y-137326995D01*
X158454885Y-137557762D01*
X158428545Y-137645542D01*
X135048109Y-130492418D02*
X135029855Y-130727129D01*
X135019751Y-130931904D01*
X135012706Y-131154940D01*
X135008708Y-131390499D01*
X135007743Y-131632845D01*
X135009799Y-131876240D01*
X135014862Y-132114947D01*
X135022920Y-132343228D01*
X135033959Y-132555347D01*
X135053295Y-132803115D01*
X98148508Y-63870425D02*
X98100181Y-63651488D01*
X98072640Y-63446548D01*
X98057038Y-63229630D01*
X98053719Y-63008677D01*
X98063025Y-62791629D01*
X98085300Y-62586428D01*
X98091342Y-62547509D01*
X161989490Y-92654295D02*
X161824330Y-92781822D01*
X161653800Y-92924213D01*
X161515596Y-93071691D01*
X161513887Y-93095509D01*
X123285846Y-122784307D02*
X123333751Y-122537222D01*
X123374457Y-122320951D01*
X123419221Y-122067906D01*
X123455235Y-121839357D01*
X123484810Y-121617997D01*
X123510258Y-121386521D01*
X123533892Y-121127623D01*
X123551818Y-120905042D01*
X123571000Y-120650000D01*
X98227038Y-69604144D02*
X98108722Y-69433674D01*
X98013256Y-69236368D01*
X97924589Y-69000656D01*
X97861042Y-68791879D01*
X97806115Y-68571288D01*
X97761708Y-68344556D01*
X97729718Y-68117355D01*
X154574322Y-61487578D02*
X154501521Y-61684554D01*
X154414777Y-61897030D01*
X154318778Y-62114867D01*
X154218213Y-62327926D01*
X154117770Y-62526067D01*
X154004004Y-62729869D01*
X153986286Y-62759098D01*
D10*
X119521707Y-77001336D02*
X119813222Y-77138708D01*
D11*
X166930404Y-101170566D02*
X166781605Y-101352640D01*
X166634024Y-101494718D01*
X166463267Y-101645401D01*
X166287644Y-101788403D01*
X166125463Y-101907439D01*
X166042224Y-101960582D01*
X113082815Y-57715845D02*
X113234544Y-57852621D01*
X113404213Y-57957532D01*
D10*
X145348222Y-38573721D02*
X147417023Y-38565326D01*
D11*
X108827039Y-102862200D02*
X108710085Y-102672096D01*
X108599261Y-102475713D01*
X108499573Y-102287422D01*
X108399557Y-102087794D01*
X108385366Y-102058574D01*
X138599717Y-108081519D02*
X138443846Y-107938495D01*
X138262541Y-107831518D01*
X138156540Y-107826552D01*
D10*
X146380700Y-70150242D02*
X146475527Y-70198128D01*
D11*
X156936065Y-134690496D02*
X157055247Y-134893123D01*
X157177503Y-135087287D01*
X157304672Y-135275682D01*
X157438594Y-135461001D01*
X157581107Y-135645937D01*
X157630839Y-135707964D01*
X120976467Y-136335604D02*
X120757786Y-136319845D01*
X120547875Y-136303100D01*
X120332685Y-136284690D01*
X120126866Y-136265866D01*
X119918134Y-136245055D01*
X165596594Y-96538389D02*
X165767242Y-96675162D01*
X165897742Y-96837334D01*
X166022235Y-97025220D01*
X166049608Y-97072892D01*
X105806907Y-83978750D02*
X105798387Y-83753923D01*
X105788377Y-83531317D01*
X105777410Y-83320257D01*
X105763742Y-83095357D01*
X105748260Y-82892460D01*
X105740173Y-82814584D01*
X141767415Y-131229344D02*
X141763986Y-131000755D01*
X141762754Y-130788656D01*
X141764408Y-130542762D01*
X141769737Y-130313494D01*
X141778876Y-130095779D01*
X141791957Y-129884539D01*
X141805353Y-129716798D01*
X98203095Y-72127677D02*
X98211505Y-71925576D01*
X98222960Y-71657999D01*
X98233299Y-71428725D01*
X98245885Y-71174083D01*
X98257775Y-70967069D01*
X98272782Y-70757464D01*
X98292902Y-70547892D01*
X98313118Y-70381411D01*
X154434479Y-113506192D02*
X154427668Y-113829717D01*
X154421889Y-114126563D01*
X154417154Y-114398746D01*
X154413480Y-114648284D01*
X154410881Y-114877192D01*
X154409372Y-115087490D01*
X154409186Y-115372453D01*
X154411537Y-115626888D01*
X154416477Y-115857603D01*
X154424055Y-116071405D01*
X154434323Y-116275102D01*
X154447331Y-116475504D01*
X154457551Y-116610636D01*
X163693028Y-88692284D02*
X163652003Y-88899245D01*
X163615739Y-89110776D01*
X163590290Y-89270348D01*
X118789244Y-107861874D02*
X118581041Y-107881567D01*
X118365148Y-107905268D01*
X118171883Y-107931797D01*
X158687365Y-55474237D02*
X158673508Y-55676520D01*
X158644892Y-55885875D01*
X158618008Y-56031186D01*
X161513887Y-93095509D02*
X161705691Y-93191497D01*
X161893076Y-93279956D01*
X161934422Y-93299214D01*
X111486720Y-50440855D02*
X111701519Y-50550582D01*
X111896404Y-50675441D01*
X112071085Y-50815159D01*
X112225271Y-50969467D01*
X112358675Y-51138094D01*
X112471006Y-51320769D01*
X112509974Y-51397712D01*
X114358138Y-64083272D02*
X114240098Y-64251226D01*
X114133535Y-64424435D01*
X114038759Y-64613608D01*
X114026720Y-64661257D01*
X154522514Y-107055878D02*
X154461602Y-107309259D01*
X154381340Y-107549285D01*
X154280258Y-107777750D01*
X154156888Y-107996451D01*
X154009761Y-108207183D01*
X153837409Y-108411741D01*
X153638363Y-108611921D01*
X153411155Y-108809519D01*
X153243312Y-108940702D01*
X153061864Y-109072068D01*
X152866377Y-109204148D01*
X152656416Y-109337475D01*
X124324809Y-114352917D02*
X124374709Y-114157278D01*
X124439670Y-113899141D01*
X124493822Y-113677834D01*
X124551265Y-113429245D01*
X124594426Y-113220204D01*
X124632589Y-112991944D01*
X124658347Y-112773390D01*
X124677209Y-112535605D01*
X124680639Y-112483194D01*
X113989326Y-72037231D02*
X114089004Y-72215315D01*
X114195713Y-72385474D01*
X114312090Y-72550898D01*
X114440773Y-72714777D01*
X114584397Y-72880302D01*
X114745602Y-73050663D01*
X114927023Y-73229049D01*
X115077942Y-73370026D01*
X115131298Y-73418653D01*
X130003923Y-71156254D02*
X130231971Y-71092142D01*
X130454107Y-71018978D01*
X130653652Y-70933567D01*
X130837974Y-70813505D01*
X130915516Y-70737109D01*
X154330763Y-43403640D02*
X154411936Y-43599873D01*
X154499690Y-43792665D01*
X154507494Y-43809335D01*
X106339656Y-88659002D02*
X106292324Y-88444909D01*
X106256315Y-88222935D01*
X106236317Y-88011327D01*
X106224668Y-87790626D01*
X106218449Y-87612363D01*
X99763558Y-75687820D02*
X99625423Y-75532286D01*
X99500020Y-75374654D01*
X99377282Y-75199282D01*
X99247139Y-74990528D01*
X99130928Y-74788980D01*
X99033331Y-74612410D01*
X98924369Y-74410309D01*
X98844341Y-74259723D01*
X113739195Y-58168634D02*
X113901235Y-58288742D01*
X113920105Y-58296536D01*
X154102142Y-122510463D02*
X154122354Y-122719095D01*
X154147841Y-122937163D01*
X154175081Y-123160012D01*
X154199999Y-123358472D01*
X154227077Y-123569681D01*
X154241249Y-123678569D01*
X131290722Y-45750241D02*
X131259298Y-45543317D01*
X131246056Y-45320727D01*
X131250207Y-45088873D01*
X131270964Y-44854157D01*
X131307538Y-44622983D01*
X131359140Y-44401751D01*
X131424984Y-44196866D01*
X131504280Y-44014729D01*
X127749777Y-72196833D02*
X127938188Y-72083160D01*
X128113782Y-71978965D01*
X128356177Y-71839037D01*
X128577546Y-71716825D01*
X128782573Y-71610165D01*
X128975945Y-71516894D01*
X129162350Y-71434848D01*
X129408152Y-71339176D01*
X129661008Y-71254486D01*
X129861962Y-71195090D01*
X130003923Y-71156254D01*
D10*
X139868281Y-114266197D02*
X139926476Y-113955635D01*
D11*
X98716164Y-57697867D02*
X98704071Y-57491483D01*
X98684986Y-57286026D01*
X98663187Y-57084711D01*
X98645609Y-56938342D01*
X103690331Y-50637357D02*
X103958895Y-50581672D01*
X104194591Y-50534956D01*
X104406144Y-50496226D01*
X104665735Y-50455315D01*
X104918589Y-50424531D01*
X105185385Y-50401551D01*
X105407070Y-50388036D01*
X105656952Y-50376622D01*
X105943754Y-50366325D01*
X106159775Y-50359598D01*
X120025798Y-77084246D02*
X120221142Y-77011955D01*
X120407154Y-76914130D01*
X120440253Y-76892695D01*
X105401405Y-79614252D02*
X105352751Y-79403396D01*
X105309900Y-79194691D01*
X105271468Y-78982110D01*
X105263091Y-78928585D01*
X156652175Y-59689932D02*
X156505267Y-59856359D01*
X156361521Y-60009999D01*
X156219762Y-60151789D01*
X156031807Y-60324022D01*
X155842505Y-60479064D01*
X155649067Y-60619131D01*
X155448705Y-60746440D01*
X155238632Y-60863206D01*
X155073028Y-60945195D01*
X166551139Y-98316582D02*
X166600344Y-98433319D01*
X155408646Y-46919377D02*
X155420828Y-47147116D01*
X155433360Y-47350064D01*
X155454986Y-47614140D01*
X155482988Y-47838219D01*
X155536038Y-48091139D01*
X155614332Y-48312234D01*
X155725819Y-48523950D01*
X155878448Y-48748734D01*
X156024702Y-48939401D01*
X156201923Y-49159515D01*
X127997472Y-53088273D02*
X128101321Y-52857259D01*
X128204929Y-52631831D01*
X128308772Y-52411102D01*
X128413331Y-52194183D01*
X128519085Y-51980188D01*
X128626512Y-51768228D01*
X128736091Y-51557416D01*
X128848301Y-51346864D01*
X128963621Y-51135684D01*
X129082529Y-50922989D01*
X129205506Y-50707890D01*
X129333029Y-50489502D01*
X129465578Y-50266934D01*
X129603632Y-50039301D01*
X129747669Y-49805714D01*
X129898169Y-49565286D01*
X157630839Y-135707964D02*
X157745480Y-135873022D01*
X157860483Y-136062912D01*
X157963280Y-136247490D01*
X158010789Y-136338562D01*
X106091922Y-86254167D02*
X106059972Y-86028770D01*
X106031751Y-85818977D01*
X106005535Y-85609963D01*
X105984424Y-85403322D01*
X105983824Y-85386566D01*
X142189616Y-136983531D02*
X142181840Y-136757178D01*
X142156049Y-136547603D01*
X142107129Y-136319980D01*
X142055328Y-136116882D01*
X141984593Y-135855089D01*
X141917269Y-135611142D01*
X141891854Y-135519502D01*
X141805353Y-129716798D02*
X141821382Y-129516290D01*
X141834757Y-129278366D01*
X141838292Y-129065413D01*
X141827709Y-128819961D01*
X141799068Y-128580349D01*
X141762152Y-128380478D01*
X141711961Y-128163111D01*
X141665148Y-127982927D01*
X142848664Y-38646243D02*
X143049938Y-38630072D01*
X143143362Y-38613586D01*
X156329883Y-133720356D02*
X156459152Y-133919346D01*
X156568851Y-134091115D01*
X156695595Y-134292743D01*
X156809073Y-134476785D01*
X156913505Y-134651356D01*
X156936065Y-134690496D01*
X157623270Y-51787710D02*
X157707439Y-51976037D01*
X157799163Y-52176408D01*
X157885600Y-52362499D01*
X157927278Y-52451219D01*
X156707467Y-76097509D02*
X156948627Y-76394073D01*
X157162488Y-76657642D01*
X157351383Y-76891365D01*
X157517646Y-77098390D01*
X157663613Y-77281864D01*
X157791618Y-77444937D01*
X157955051Y-77658178D01*
X158091199Y-77843223D01*
X158207941Y-78010697D01*
X158347025Y-78225027D01*
X158484289Y-78452193D01*
X158597277Y-78646142D01*
X113725743Y-71631535D02*
X113850201Y-71801641D01*
X113956953Y-71978018D01*
X113989326Y-72037231D01*
X139551172Y-112516370D02*
X139544841Y-112298832D01*
X139531350Y-112076744D01*
X139502189Y-111869907D01*
X139465400Y-111727726D01*
D10*
X116205016Y-133420554D02*
X116673397Y-133191568D01*
D11*
X158597277Y-78646142D02*
X158741052Y-78889456D01*
X158891450Y-79133596D01*
X159047862Y-79377705D01*
X159209678Y-79620926D01*
X159376289Y-79862403D01*
X159547086Y-80101278D01*
X159721461Y-80336695D01*
X159898803Y-80567797D01*
X160078506Y-80793727D01*
X160259958Y-81013629D01*
X160381598Y-81156458D01*
X110677998Y-105445277D02*
X110543176Y-105285813D01*
X110406871Y-105137078D01*
X110396381Y-105125999D01*
X151097226Y-41034431D02*
X151280549Y-41159456D01*
X151464978Y-41243116D01*
X151663325Y-41314773D01*
X151824497Y-41364333D01*
X107561542Y-99342223D02*
X107546505Y-99132193D01*
X107526122Y-98896119D01*
X107501829Y-98646838D01*
X107475066Y-98397187D01*
X107447270Y-98160000D01*
X107419882Y-97948115D01*
X107388409Y-97738393D01*
X107372079Y-97651594D01*
X155548529Y-132419343D02*
X155652330Y-132627391D01*
X155768020Y-132825626D01*
X155882643Y-133015201D01*
X156011683Y-133223661D01*
X156150343Y-133443016D01*
X156293822Y-133665274D01*
X156329883Y-133720356D01*
X154927488Y-44758438D02*
X155006735Y-44942091D01*
X155075722Y-45133364D01*
X155146380Y-45356451D01*
X155192852Y-45508266D01*
X137662830Y-40200901D02*
X137864547Y-40153138D01*
X138039023Y-40112036D01*
X158428545Y-137645542D02*
X158372950Y-137839345D01*
X158335475Y-138000404D01*
X121634457Y-129869999D02*
X121768545Y-129714828D01*
X121907435Y-129527656D01*
X122046743Y-129316246D01*
X122182081Y-129088365D01*
X122278343Y-128911315D01*
X122396184Y-128673292D01*
X122497996Y-128440150D01*
X122579394Y-128219656D01*
X122596040Y-128167419D01*
X163308618Y-94088220D02*
X163468830Y-94230079D01*
X163624191Y-94360062D01*
X163791234Y-94493132D01*
X163821179Y-94516009D01*
X149587125Y-39820348D02*
X149750277Y-39937269D01*
X149869348Y-40033070D01*
X130335523Y-48865453D02*
X130450141Y-48682847D01*
X130563820Y-48506389D01*
X130686633Y-48319021D01*
X130811662Y-48131214D01*
X130931990Y-47953440D01*
X131060439Y-47768098D01*
X110463664Y-50233735D02*
X110669564Y-50250723D01*
X110874416Y-50271248D01*
X111090662Y-50304223D01*
X111286129Y-50357908D01*
X111486720Y-50440855D01*
X143143362Y-38613586D02*
X143359398Y-38600681D01*
X143573819Y-38594554D01*
X143847118Y-38588863D01*
X144085290Y-38584978D01*
X144347679Y-38581500D01*
X144630470Y-38578496D01*
X144929846Y-38576036D01*
X145136761Y-38574732D01*
X145348222Y-38573721D01*
X129898169Y-49565286D02*
X130006333Y-49393320D01*
X130115741Y-49218740D01*
X130229970Y-49035752D01*
X130335523Y-48865453D01*
X130592126Y-66886675D02*
X130505222Y-66659655D01*
X130410346Y-66438328D01*
X130311171Y-66229863D01*
X130211370Y-66041430D01*
X130095955Y-65851851D01*
X129991276Y-65713835D01*
X105909892Y-85051429D02*
X105859780Y-84850742D01*
X105836461Y-84630112D01*
X105822563Y-84385217D01*
X105813752Y-84171054D01*
X105806907Y-83978750D01*
X140873925Y-123507418D02*
X140842514Y-123276262D01*
X140813753Y-123029308D01*
X140788147Y-122793926D01*
X140761097Y-122533078D01*
X140740342Y-122325255D01*
X140719561Y-122110514D01*
X140699091Y-121892029D01*
X140679268Y-121672975D01*
X154172695Y-138330234D02*
X153829042Y-138329802D01*
X153494128Y-138329306D01*
X153169725Y-138328751D01*
X152857606Y-138328143D01*
X152559542Y-138327487D01*
X152277307Y-138326790D01*
X152012673Y-138326058D01*
X151767413Y-138325295D01*
X151543298Y-138324509D01*
X151342102Y-138323705D01*
X151087158Y-138322478D01*
X150843990Y-138320833D01*
X150715475Y-138318830D01*
X165848893Y-105301209D02*
X165678151Y-105408854D01*
X165478058Y-105460984D01*
X165397543Y-105472495D01*
X137876579Y-110701154D02*
X137898601Y-110901428D01*
X137840551Y-111099811D01*
X137804938Y-111163704D01*
X141665148Y-127982927D02*
X141586315Y-127689082D01*
X141516241Y-127425486D01*
X141454172Y-127188296D01*
X141399356Y-126973671D01*
X141351037Y-126777768D01*
X141289093Y-126510615D01*
X141237531Y-126263977D01*
X141193806Y-126024890D01*
X141155375Y-125780386D01*
X141119695Y-125517500D01*
X141084221Y-125223266D01*
X141059431Y-125003292D01*
X141032849Y-124759781D01*
X139391327Y-111200467D02*
X139380790Y-110991555D01*
X139349898Y-110791153D01*
X139318527Y-110666197D01*
X115131298Y-73418653D02*
X115283769Y-73558156D01*
X115458827Y-73720556D01*
X115609022Y-73861196D01*
X115763194Y-74006607D01*
X115916683Y-74152395D01*
X116064833Y-74294167D01*
X116235417Y-74459042D01*
X116266859Y-74489686D01*
X154091524Y-111331957D02*
X154196593Y-111506972D01*
X154294804Y-111686779D01*
X154377774Y-111861124D01*
X119918134Y-136245055D02*
X119708875Y-136223367D01*
X119501862Y-136202549D01*
X119284918Y-136181207D01*
X119072812Y-136160796D01*
X118851175Y-136140098D01*
X106682691Y-92748600D02*
X106639396Y-92544180D01*
X106613606Y-92314231D01*
X106599126Y-92077458D01*
X106590678Y-91876122D01*
X106582505Y-91631995D01*
X106580435Y-91563473D01*
X105740173Y-82814584D02*
X105715144Y-82587741D01*
X105688961Y-82324594D01*
X105666905Y-82092610D01*
X105643615Y-81840250D01*
X105619848Y-81575882D01*
X105596359Y-81307878D01*
X105573903Y-81044606D01*
X105553237Y-80794436D01*
X105535115Y-80565740D01*
X105524822Y-80429338D01*
X154241249Y-123678569D02*
X154270629Y-123903783D01*
X154297058Y-124107889D01*
X154331820Y-124380507D01*
X154361621Y-124621156D01*
X154387468Y-124839147D01*
X154410370Y-125043795D01*
X154431335Y-125244412D01*
X154451371Y-125450313D01*
X154471485Y-125670811D01*
X154492687Y-125915218D01*
X154515984Y-126192849D01*
X154524390Y-126294386D01*
X154518799Y-119662163D02*
X154519172Y-119911333D01*
X154517514Y-120143247D01*
X154513693Y-120358969D01*
X154507578Y-120559563D01*
X154493812Y-120834422D01*
X154474140Y-121081236D01*
X154448115Y-121303599D01*
X154415292Y-121505106D01*
X154360183Y-121747552D01*
X154291138Y-121967830D01*
X154207102Y-122174461D01*
X139245671Y-110137141D02*
X139236752Y-109935953D01*
X139213899Y-109721291D01*
X139193760Y-109600069D01*
X139799616Y-113713461D02*
X139706603Y-113520325D01*
X139631413Y-113306804D01*
X139590179Y-113108127D01*
X139565437Y-112871200D01*
X139554040Y-112628280D01*
X139551172Y-112516370D01*
X147953556Y-70503063D02*
X148162398Y-70520069D01*
X148378979Y-70542926D01*
X148583907Y-70569244D01*
X148799055Y-70604318D01*
X148835751Y-70611842D01*
X112811549Y-53888596D02*
X112832468Y-54116040D01*
X112840648Y-54327282D01*
X112846186Y-54539938D01*
X112850217Y-54777009D01*
X112851779Y-54927509D01*
X123456674Y-106126103D02*
X123268798Y-106235727D01*
X123087223Y-106333454D01*
X122896399Y-106426081D01*
X122698203Y-106505619D01*
X98091342Y-62547509D02*
X98141388Y-62308459D01*
X98197109Y-62110844D01*
X98264589Y-61912833D01*
X98341814Y-61719289D01*
X98426769Y-61535079D01*
X98540768Y-61325352D01*
X98659765Y-61147310D01*
X98683819Y-61116341D01*
X151628428Y-65052006D02*
X151431173Y-65130164D01*
X151245682Y-65211545D01*
X151051366Y-65306232D01*
X151023561Y-65321239D01*
X106159775Y-50359598D02*
X106395848Y-50352337D01*
X106627219Y-50344852D01*
X106848027Y-50337358D01*
X107052413Y-50330069D01*
X107275873Y-50321573D01*
X107481950Y-50312835D01*
X107588525Y-50307259D01*
X112772543Y-53765124D02*
X112811549Y-53888596D01*
X127732161Y-136644306D02*
X127496511Y-136662766D01*
X127284668Y-136666864D01*
X127035423Y-136664588D01*
X126827240Y-136658797D01*
X126603410Y-136649584D01*
X126366246Y-136637018D01*
X126118058Y-136621168D01*
X125861158Y-136602105D01*
X125597857Y-136579899D01*
X121981883Y-106794618D02*
X121719698Y-106911254D01*
X121445462Y-107029430D01*
X121258912Y-107107919D01*
X121071460Y-107185367D01*
X120884888Y-107261085D01*
X120610576Y-107369908D01*
X120348265Y-107470956D01*
X120103969Y-107561901D01*
X119883701Y-107640415D01*
X119693475Y-107704169D01*
X119496964Y-107762191D01*
X119459522Y-107771303D01*
X157170417Y-107608794D02*
X157188771Y-107400348D01*
X157212606Y-107186294D01*
X157241722Y-106998061D01*
X100011672Y-52314761D02*
X100105173Y-52127704D01*
X100216300Y-51919863D01*
X100343954Y-51715034D01*
X100472720Y-51555951D01*
X100649256Y-51402303D01*
X100831837Y-51286028D01*
X101011626Y-51188878D01*
X166943262Y-100717985D02*
X166976445Y-100923348D01*
X166944892Y-101129161D01*
X166930404Y-101170566D01*
X126443169Y-56727202D02*
X126507147Y-56507163D01*
X126571346Y-56302663D01*
X126636827Y-56106551D01*
X126705414Y-55916641D01*
X126720513Y-55877951D01*
X138039023Y-40112036D02*
X138237416Y-40044218D01*
X138424480Y-39952447D01*
X138457509Y-39932338D01*
X140679268Y-121672975D02*
X140649062Y-121332675D01*
X140620895Y-121015087D01*
X140594642Y-120719161D01*
X140570179Y-120443847D01*
X140547383Y-120188095D01*
X140526130Y-119950854D01*
X140506296Y-119731074D01*
X140487756Y-119527706D01*
X140454068Y-119166003D01*
X140424074Y-118857343D01*
X140396784Y-118593326D01*
X140371208Y-118365550D01*
X140346355Y-118165615D01*
X140308265Y-117899536D01*
X140266230Y-117648843D01*
X140216907Y-117385182D01*
X140178325Y-117188202D01*
X140134028Y-116964456D01*
X140109427Y-116839921D01*
X124397963Y-74383006D02*
X124632676Y-74202069D01*
X124856767Y-74032952D01*
X125072975Y-73873806D01*
X125284040Y-73722780D01*
X125492703Y-73578024D01*
X125701702Y-73437689D01*
X125913779Y-73299924D01*
X126131673Y-73162879D01*
X126358123Y-73024705D01*
X126595870Y-72883552D01*
X126761997Y-72786881D01*
X152656416Y-109337475D02*
X152488357Y-109453911D01*
X152408795Y-109555468D01*
X139318527Y-110666197D02*
X139272095Y-110460333D01*
X139249361Y-110256973D01*
X139245671Y-110137141D01*
X166600344Y-98433319D02*
X166643332Y-98640293D01*
X166675560Y-98787125D01*
X139830527Y-114658209D02*
X139839302Y-114453484D01*
X139868281Y-114266197D01*
X166042224Y-101960582D02*
X165870125Y-102089385D01*
X165750084Y-102251327D01*
X165709158Y-102425357D01*
X123923544Y-117933611D02*
X123973452Y-117654364D01*
X124017540Y-117405751D01*
X124056222Y-117184493D01*
X124089911Y-116987309D01*
X124131991Y-116729503D01*
X124165168Y-116507421D01*
X124197974Y-116247756D01*
X124220752Y-116005696D01*
X124236819Y-115755008D01*
X124246457Y-115545550D01*
X124255583Y-115305417D01*
X107696610Y-99941944D02*
X107630795Y-99743394D01*
X107584519Y-99542603D01*
X107561542Y-99342223D01*
X148645864Y-39141100D02*
X148775217Y-39211952D01*
X98854000Y-58933584D02*
X98826311Y-58720919D01*
X98800480Y-58514747D01*
X98771665Y-58273881D01*
X98747740Y-58060978D01*
X98727040Y-57856341D01*
X98716164Y-57697867D01*
X163755094Y-86674561D02*
X163789698Y-86888420D01*
X163800092Y-87090548D01*
X163796047Y-87297038D01*
X163785321Y-87530726D01*
X163772133Y-87771272D01*
X121742189Y-136421998D02*
X121526295Y-136387822D01*
X121319161Y-136364452D01*
X121119628Y-136346234D01*
X120976467Y-136335604D01*
X149833550Y-138270872D02*
X149603818Y-138258260D01*
X149389903Y-138244541D01*
X149127381Y-138224303D01*
X148888407Y-138201559D01*
X148670369Y-138176005D01*
X148470653Y-138147333D01*
X148242795Y-138106645D01*
X148034383Y-138060010D01*
X149869348Y-40033070D02*
X150030716Y-40168438D01*
X150208104Y-40312981D01*
X150364817Y-40439462D01*
X150503829Y-40550919D01*
X108978230Y-103109144D02*
X108870952Y-102931113D01*
X108827039Y-102862200D01*
X116673397Y-133191568D02*
X116880024Y-133088108D01*
X117060738Y-132986338D01*
X117234795Y-132862571D01*
X117401863Y-132718027D01*
X117519148Y-132609485D01*
X163772133Y-87771272D02*
X163759972Y-87970922D01*
X163744110Y-88196886D01*
X163725239Y-88425621D01*
X163703076Y-88633335D01*
X163693028Y-88692284D01*
X118851175Y-136140098D02*
X118604665Y-136115798D01*
X118363988Y-136079245D01*
X118167700Y-136020397D01*
X117983051Y-135922723D01*
X117777292Y-135769693D01*
X117575477Y-135596304D01*
X117391408Y-135430977D01*
X117322425Y-135368443D01*
X161934422Y-93299214D02*
X162142060Y-93396775D01*
X162329131Y-93487008D01*
X162549114Y-93597382D01*
X162738652Y-93698242D01*
X162938091Y-93813996D01*
X163131462Y-93942943D01*
X163308618Y-94088220D01*
X119459522Y-107771303D02*
X119255968Y-107807042D01*
X119050776Y-107834459D01*
X118835354Y-107857701D01*
X118789244Y-107861874D01*
X140109427Y-116839921D02*
X140068851Y-116631762D01*
X140022780Y-116386939D01*
X139984977Y-116173320D01*
X139947840Y-115939884D01*
X139920137Y-115731453D01*
X139896619Y-115495763D01*
X139882854Y-115295897D01*
X114026720Y-64661257D02*
X113915277Y-64834800D01*
X113887264Y-64869507D01*
X131309184Y-68244466D02*
X131188724Y-68059640D01*
X131077308Y-67879577D01*
X130974819Y-67704053D01*
X130859080Y-67490689D01*
X130756872Y-67283630D01*
X130667964Y-67082437D01*
X130592126Y-66886675D01*
X151051009Y-71358853D02*
X151229410Y-71471315D01*
X151379801Y-71620128D01*
X151481400Y-71806603D01*
X151492199Y-71842535D01*
D10*
X124709920Y-63698766D02*
X124782810Y-63052581D01*
D11*
X162956703Y-91616319D02*
X162819809Y-91778550D01*
X162733892Y-91898132D01*
X123022064Y-124689304D02*
X123046974Y-124469084D01*
X123068511Y-124258917D01*
X123088821Y-124045884D01*
X123092835Y-124001388D01*
X156201923Y-49159515D02*
X156323739Y-49318481D01*
X156359940Y-49379274D01*
X114996883Y-107841257D02*
X114758403Y-107802675D01*
X114522892Y-107756946D01*
X114290542Y-107704153D01*
X114061547Y-107644377D01*
X113836100Y-107577701D01*
X113614392Y-107504207D01*
X113396619Y-107423977D01*
X113182971Y-107337094D01*
X112973643Y-107243640D01*
X112768827Y-107143697D01*
X112568716Y-107037347D01*
X112373504Y-106924673D01*
X112183382Y-106805757D01*
X111998545Y-106680681D01*
X111819184Y-106549528D01*
X111645494Y-106412380D01*
X165150044Y-96044182D02*
X165264992Y-96210323D01*
X165395129Y-96372142D01*
X165543667Y-96514512D01*
X165596594Y-96538389D01*
X162580156Y-84031598D02*
X162675469Y-84228282D01*
X162766878Y-84413586D01*
X162856249Y-84593424D01*
X162949933Y-84780797D01*
X162981161Y-84842988D01*
X166675560Y-98787125D02*
X166706726Y-98988815D01*
X166728576Y-99192946D01*
X166748197Y-99425938D01*
X166761744Y-99633376D01*
X166765359Y-99701763D01*
X158411662Y-108122482D02*
X158240014Y-108239480D01*
X158043855Y-108298160D01*
X157823912Y-108321025D01*
X157603162Y-108307585D01*
X157404580Y-108257349D01*
X157227895Y-108147803D01*
X148034383Y-138060010D02*
X147823597Y-138013060D01*
X147612069Y-137972981D01*
X147505217Y-137955785D01*
X113568820Y-71424544D02*
X113689997Y-71591152D01*
X113725743Y-71631535D01*
X127263946Y-64965207D02*
X127035473Y-64945756D01*
X126834461Y-64927529D01*
X126604483Y-64904468D01*
X126369126Y-64876364D01*
X126146599Y-64841359D01*
X125942219Y-64794889D01*
X125839644Y-64763846D01*
X163602115Y-86131541D02*
X163669035Y-86331411D01*
X163724010Y-86534940D01*
X163755094Y-86674561D01*
D10*
X139926476Y-113955635D02*
X139799616Y-113713461D01*
D11*
X141791809Y-134231865D02*
X141794855Y-134000387D01*
X141797024Y-133786241D01*
X141798235Y-133579845D01*
X141798412Y-133371620D01*
X141797478Y-133151983D01*
X141795353Y-132911354D01*
X141791960Y-132640152D01*
X141788955Y-132437635D01*
X141785329Y-132214432D01*
X141781059Y-131967706D01*
X141776122Y-131694617D01*
X141770494Y-131392326D01*
X141767415Y-131229344D01*
X156718977Y-49996635D02*
X156848566Y-50212714D01*
X156962279Y-50408947D01*
X157065690Y-50596372D01*
X157164372Y-50786026D01*
X157263898Y-50988948D01*
X157369840Y-51216177D01*
X157456861Y-51409191D01*
X157552978Y-51626743D01*
X157623270Y-51787710D01*
X98683819Y-61116341D02*
X98813360Y-60944171D01*
X98928990Y-60771031D01*
X98967057Y-60703328D01*
X165397543Y-105472495D02*
X165183659Y-105491814D01*
X164983507Y-105478416D01*
X164798026Y-105393246D01*
X164785919Y-105383328D01*
X158373461Y-57502228D02*
X158262000Y-57678008D01*
X158177672Y-57837848D01*
X132184799Y-43190543D02*
X132369638Y-43075400D01*
X132554511Y-42970438D01*
X132736037Y-42871841D01*
X132868231Y-42802528D01*
X136427951Y-119909088D02*
X136407266Y-120163851D01*
X136388399Y-120388372D01*
X136370786Y-120587781D01*
X136348281Y-120823469D01*
X136325673Y-121035803D01*
X136301627Y-121236949D01*
X136274812Y-121439071D01*
X136243892Y-121654335D01*
X136217208Y-121831725D01*
X97906117Y-66516258D02*
X97974174Y-66322124D01*
X98022182Y-66122484D01*
X98029188Y-66075285D01*
X140869369Y-39046395D02*
X141081033Y-38972938D01*
X141281554Y-38911860D01*
X141507794Y-38854834D01*
X141718713Y-38815472D01*
X141945951Y-38791760D01*
X142037277Y-38788887D01*
X141032849Y-124759781D02*
X141008332Y-124539838D01*
X140981831Y-124314166D01*
X140954619Y-124092798D01*
X140927970Y-123885767D01*
X140898525Y-123670379D01*
X140873925Y-123507418D01*
X166519929Y-98236159D02*
X166551139Y-98316582D01*
X128322279Y-65156057D02*
X128093573Y-65100883D01*
X127883186Y-65055442D01*
X127655666Y-65013788D01*
X127441537Y-64983301D01*
X127263946Y-64965207D01*
X114199454Y-58549565D02*
X114345238Y-58708183D01*
X114466757Y-58869320D01*
X114568276Y-59041770D01*
X114654064Y-59234327D01*
X114728387Y-59455784D01*
X114782457Y-59659667D01*
X114821302Y-59831120D01*
X122845317Y-126664861D02*
X122864662Y-126420756D01*
X122884073Y-126181679D01*
X122903329Y-125950109D01*
X122922208Y-125728521D01*
X122940488Y-125519394D01*
X122963547Y-125264223D01*
X122984621Y-125041482D01*
X123007374Y-124817606D01*
X123022064Y-124689304D01*
X106442272Y-89540946D02*
X106439161Y-89321943D01*
X106425525Y-89116845D01*
X106391610Y-88894572D01*
X106347447Y-88691903D01*
X106339656Y-88659002D01*
X161092721Y-82020765D02*
X161220187Y-82179405D01*
X161354753Y-82348715D01*
X161444229Y-82461738D01*
X162981161Y-84842988D02*
X163107574Y-85094571D01*
X163212489Y-85303767D01*
X163323356Y-85525928D01*
X163423822Y-85730087D01*
X163514540Y-85922657D01*
X163593309Y-86109441D01*
X163602115Y-86131541D01*
X148115753Y-66435878D02*
X147916666Y-66547602D01*
X147769469Y-66689302D01*
X147625253Y-66879169D01*
X147508109Y-67073233D01*
X147416817Y-67251395D01*
X147349967Y-67398125D01*
X118615139Y-76365127D02*
X118767685Y-76495538D01*
X118928949Y-76628522D01*
X119092383Y-76753227D01*
X119263195Y-76865800D01*
X119465473Y-76974385D01*
X119521707Y-77001336D01*
X166765359Y-99701763D02*
X166777193Y-99924389D01*
X166792919Y-100148849D01*
X166824091Y-100348002D01*
X166852957Y-100390839D01*
X116266859Y-74489686D02*
X116431407Y-74649255D01*
X116579797Y-74790437D01*
X116760610Y-74956699D01*
X116932128Y-75106165D01*
X117105453Y-75247916D01*
X117291691Y-75391032D01*
X117501945Y-75544595D01*
X117682075Y-75672085D01*
X117886645Y-75814391D01*
X116379673Y-134326450D02*
X116284704Y-134140630D01*
X116240617Y-133932629D01*
X116227143Y-133762004D01*
X98703800Y-55209731D02*
X98776999Y-54996682D01*
X98869580Y-54748346D01*
X98976643Y-54475982D01*
X99053645Y-54286618D01*
X99133456Y-54094915D01*
X99214624Y-53904210D01*
X99295697Y-53717840D01*
X99413956Y-53453710D01*
X99523838Y-53218098D01*
X99620447Y-53022266D01*
X99720143Y-52842497D01*
X99754248Y-52794980D01*
X98844341Y-74259723D02*
X98736094Y-74053936D01*
X98640048Y-73868166D01*
X98517397Y-73622192D01*
X98418446Y-73408784D01*
X98340946Y-73220461D01*
X98267092Y-72995453D01*
X98222037Y-72784008D01*
X98200449Y-72568389D01*
X98196995Y-72330864D01*
X98203095Y-72127677D01*
D10*
X142195913Y-137371585D02*
X142189616Y-136983531D01*
D11*
X120440253Y-76892695D02*
X120614969Y-76788092D01*
X120802915Y-76684503D01*
X120990725Y-76584665D01*
X121190751Y-76481384D01*
X121291663Y-76430452D01*
X166025812Y-104988167D02*
X165980304Y-105190117D01*
X165848893Y-105301209D01*
X129528951Y-136646158D02*
X129281233Y-136625655D01*
X129044739Y-136614609D01*
X128789010Y-136608342D01*
X128527732Y-136606868D01*
X128274593Y-136610204D01*
X128043279Y-136618365D01*
X127805677Y-136635376D01*
X127732161Y-136644306D01*
X125705087Y-105203612D02*
X125495079Y-105206705D01*
X125292689Y-105233177D01*
X120575196Y-130750469D02*
X120733895Y-130610519D01*
X120897836Y-130470928D01*
X121052381Y-130343828D01*
X121213721Y-130218296D01*
X121241050Y-130198522D01*
X113444637Y-65546118D02*
X113407031Y-65757647D01*
X113399411Y-65972189D01*
X113398319Y-66236097D01*
X113400287Y-66502613D01*
X113402877Y-66718221D01*
X113406461Y-66967453D01*
X113411012Y-67253121D01*
X113416506Y-67578035D01*
X113422918Y-67945008D01*
D10*
X154377774Y-111861124D02*
X154465465Y-112077442D01*
D11*
X101011626Y-51188878D02*
X101225629Y-51087484D01*
X101438447Y-51007009D01*
X101660978Y-50944563D01*
X101861704Y-50904210D01*
X102083053Y-50872698D01*
X102279220Y-50852729D01*
X129991276Y-65713835D02*
X129849851Y-65568332D01*
X129682747Y-65450068D01*
X129481132Y-65383629D01*
X129265148Y-65350094D01*
X155192852Y-45508266D02*
X155255849Y-45722544D01*
X155311034Y-45942834D01*
X155349335Y-46158147D01*
X155372470Y-46360676D01*
X155391140Y-46607226D01*
X155405079Y-46850663D01*
X155408646Y-46919377D01*
X148775217Y-39211952D02*
X148945268Y-39341825D01*
X149110356Y-39464922D01*
X125107044Y-61246965D02*
X125149383Y-61005171D01*
X125197038Y-60756525D01*
X125249488Y-60502877D01*
X125306215Y-60246076D01*
X125366702Y-59987970D01*
X125430429Y-59730410D01*
X125496878Y-59475244D01*
X125565530Y-59224321D01*
X125635868Y-58979491D01*
X125707372Y-58742603D01*
X125779525Y-58515507D01*
X125851808Y-58300050D01*
X125923702Y-58098084D01*
X126029680Y-57824472D01*
X126131868Y-57591615D01*
X151023561Y-65321239D02*
X150816368Y-65431271D01*
X150598864Y-65536511D01*
X150353877Y-65643540D01*
X150141773Y-65728944D01*
X149897309Y-65821834D01*
X149613239Y-65924986D01*
X149398280Y-66000826D01*
X149160354Y-66083283D01*
X148897313Y-66173181D01*
X148607012Y-66271343D01*
X148287304Y-66378590D01*
X148115753Y-66435878D01*
X113404213Y-57957532D02*
X113589001Y-58061070D01*
X113739195Y-58168634D01*
X112624283Y-52297295D02*
X112635994Y-52527468D01*
X112651103Y-52759478D01*
X112668414Y-52978647D01*
X112689798Y-53198530D01*
X112710655Y-53357648D01*
X166049608Y-97072892D02*
X166154567Y-97281725D01*
X166251746Y-97497674D01*
X166346931Y-97724964D01*
X166429975Y-97938496D01*
X166499314Y-98141237D01*
X166519929Y-98236159D01*
D10*
X154465465Y-112077442D02*
X154434479Y-113506192D01*
D11*
X158532362Y-54129832D02*
X158572284Y-54336432D01*
X158605392Y-54556434D01*
X158635812Y-54797894D01*
X158661164Y-55040162D01*
X158679067Y-55262590D01*
X158687365Y-55474237D01*
X133729360Y-42326473D02*
X133993359Y-42166814D01*
X134243312Y-42016399D01*
X134479975Y-41874796D01*
X134704110Y-41741573D01*
X134916474Y-41616297D01*
X135117826Y-41498536D01*
X135308926Y-41387858D01*
X135490532Y-41283832D01*
X135746802Y-41139317D01*
X135985980Y-41007337D01*
X136210628Y-40886431D01*
X136423308Y-40775143D01*
X136626582Y-40672013D01*
X136692693Y-40639198D01*
X114917251Y-60236814D02*
X114940012Y-60441762D01*
X114952512Y-60655289D01*
X114961681Y-60874320D01*
X114968658Y-61113187D01*
X114969558Y-61154036D01*
X156082379Y-75462510D02*
X156246021Y-75611897D01*
X156397096Y-75759838D01*
X156541137Y-75909234D01*
X156679515Y-76063848D01*
X156707467Y-76097509D01*
X161993201Y-83140992D02*
X162141296Y-83324847D01*
X162266276Y-83492486D01*
X162389545Y-83677692D01*
X162496102Y-83863205D01*
X162580156Y-84031598D01*
X155073028Y-60945195D02*
X154881621Y-61042873D01*
X154708737Y-61152820D01*
X154684775Y-61179209D01*
X157927278Y-52451219D02*
X158012294Y-52635739D01*
X158095268Y-52828392D01*
X158123829Y-52911594D01*
D10*
X157771029Y-138247224D02*
X157541725Y-138334070D01*
D11*
X152587966Y-73009895D02*
X152821959Y-73129947D01*
X153047017Y-73248616D01*
X153263439Y-73366099D01*
X153471525Y-73482593D01*
X153671578Y-73598295D01*
X153863897Y-73713404D01*
X154048782Y-73828116D01*
X154226535Y-73942629D01*
X154397455Y-74057141D01*
X154561845Y-74171848D01*
X154796840Y-74344709D01*
X155018830Y-74519121D01*
X155228830Y-74695752D01*
X155427855Y-74875267D01*
X149110356Y-39464922D02*
X149271241Y-39585575D01*
X149374940Y-39667949D01*
X107372079Y-97651594D02*
X107327348Y-97430917D01*
X107279800Y-97170682D01*
X107230443Y-96877999D01*
X107197031Y-96668363D01*
X107163560Y-96449574D01*
X107130330Y-96223739D01*
X107097639Y-95992966D01*
X107065786Y-95759362D01*
X107035069Y-95525033D01*
X107005786Y-95292089D01*
X106978237Y-95062635D01*
X106952719Y-94838779D01*
X106929532Y-94622628D01*
X106908973Y-94416290D01*
X106899773Y-94317460D01*
X152760593Y-64328958D02*
X152588281Y-64492462D01*
X152427304Y-64628928D01*
X152236580Y-64764988D01*
X152034023Y-64880094D01*
X151845109Y-64967083D01*
X151628428Y-65052006D01*
X132600494Y-136914321D02*
X132395283Y-136939523D01*
X132186698Y-136955755D01*
X131964398Y-136958610D01*
X131725599Y-136951054D01*
X131525378Y-136941166D01*
X131409514Y-136934827D01*
D10*
X112901452Y-56736322D02*
X112943309Y-57557358D01*
D11*
X148835751Y-70611842D02*
X149091622Y-70680004D01*
X149305116Y-70744345D01*
X149548489Y-70821178D01*
X149809387Y-70906338D01*
X150075457Y-70995657D01*
X150334346Y-71084970D01*
X150573699Y-71170112D01*
X150781163Y-71246917D01*
X150986824Y-71329155D01*
X151051009Y-71358853D01*
X160381598Y-81156458D02*
X160517008Y-81316137D01*
X160645966Y-81471177D01*
X160782547Y-81638048D01*
X160806728Y-81667988D01*
X163590290Y-89270348D02*
X163551079Y-89517331D01*
X163511659Y-89751520D01*
X163472062Y-89972790D01*
X163432322Y-90181014D01*
X163372520Y-90468613D01*
X163312588Y-90726153D01*
X163252641Y-90953206D01*
X163192795Y-91149349D01*
X163113353Y-91362056D01*
X163015002Y-91548066D01*
X162956703Y-91616319D01*
X126761997Y-72786881D02*
X126943622Y-72680427D01*
X127124371Y-72573095D01*
X127328096Y-72451273D01*
X127505552Y-72344579D01*
X127681555Y-72238222D01*
X127749777Y-72196833D01*
X103902022Y-77999876D02*
X103606056Y-77891414D01*
X103336014Y-77791148D01*
X103089669Y-77698050D01*
X102864794Y-77611087D01*
X102659163Y-77529231D01*
X102470550Y-77451450D01*
X102214670Y-77340168D01*
X101984558Y-77232262D01*
X101772701Y-77124256D01*
X101571584Y-77012672D01*
X101373695Y-76894034D01*
X101171520Y-76764866D01*
X101030645Y-76671186D01*
X139882854Y-115295897D02*
X139868858Y-115073492D01*
X139852559Y-114857844D01*
X139830527Y-114658209D01*
X117322425Y-135368443D02*
X117156979Y-135217714D01*
X116975086Y-135049176D01*
X116830434Y-134909981D01*
X116690373Y-134764410D01*
X116562413Y-134609684D01*
X116435909Y-134420740D01*
X116379673Y-134326450D01*
X129265148Y-65350094D02*
X129060543Y-65317388D01*
X128850583Y-65276402D01*
X128652504Y-65234003D01*
X128451482Y-65187730D01*
X128322279Y-65156057D01*
X146475527Y-70198128D02*
X146675216Y-70285350D01*
X146900866Y-70356686D01*
X147115089Y-70405309D01*
X147358549Y-70445211D01*
X147577790Y-70471562D01*
X147821612Y-70493542D01*
X147953556Y-70503063D01*
X154207102Y-122174461D02*
X154132974Y-122368651D01*
X154102142Y-122510463D01*
X134235799Y-136874547D02*
X133984426Y-136855079D01*
X133771356Y-136841989D01*
X133539925Y-136835055D01*
X133324597Y-136839151D01*
X133101072Y-136854866D01*
X132900018Y-136876201D01*
X132665720Y-136905654D01*
X132600494Y-136914321D01*
X131409514Y-136934827D02*
X131199818Y-136922370D01*
X130981539Y-136906644D01*
X130766784Y-136885358D01*
X130552963Y-136853578D01*
X130344801Y-136809991D01*
X130248502Y-136786570D01*
D10*
X124801382Y-63885707D02*
X124709920Y-63698766D01*
D11*
X166852957Y-100390839D02*
X166907986Y-100558907D01*
X136859129Y-117016308D02*
X136794027Y-117295126D01*
X136736899Y-117553123D01*
X136686753Y-117796960D01*
X136642596Y-118033299D01*
X136603434Y-118268801D01*
X136568275Y-118510129D01*
X136536126Y-118763943D01*
X136505994Y-119036907D01*
X136476886Y-119335681D01*
X136457559Y-119552492D01*
X136437951Y-119785710D01*
X136427951Y-119909088D01*
X154507494Y-43809335D02*
X154599361Y-44008557D01*
X154681604Y-44191780D01*
X154751413Y-44352744D01*
X137962770Y-109078808D02*
X137936434Y-109298134D01*
X137909197Y-109509585D01*
X137880683Y-109711655D01*
X137874727Y-109749088D01*
X138156540Y-107826552D02*
X138105742Y-108044153D01*
X138068009Y-108276503D01*
X138033567Y-108515861D01*
X138005124Y-108730340D01*
X137976719Y-108959908D01*
X137962770Y-109078808D01*
D10*
X150715475Y-138318830D02*
X150715475Y-138318830D01*
D11*
X106498114Y-90328750D02*
X106471641Y-90114499D01*
X106455165Y-89905229D01*
X106444856Y-89690302D01*
X106442272Y-89540946D01*
X125523009Y-106856390D02*
X125561935Y-106594867D01*
X125596843Y-106350825D01*
X125627558Y-106125844D01*
X125653906Y-105921507D01*
X125681942Y-105683904D01*
X125705004Y-105448177D01*
X125713476Y-105245667D01*
X125705087Y-105203612D01*
X137462726Y-112835891D02*
X137395165Y-113095694D01*
X137335742Y-113326379D01*
X137283869Y-113531674D01*
X137218931Y-113800175D01*
X137167675Y-114032535D01*
X137128116Y-114241345D01*
X137098271Y-114439197D01*
X137076156Y-114638681D01*
X137059787Y-114852388D01*
X137047179Y-115092908D01*
X137036349Y-115372832D01*
X137029137Y-115587558D01*
X158177672Y-57837848D02*
X158074066Y-58035889D01*
X157963026Y-58208247D01*
X157831386Y-58375310D01*
X157676591Y-58553395D01*
X157512665Y-58735067D01*
X157361401Y-58900616D01*
X154684775Y-61179209D02*
X154613563Y-61375189D01*
X154574322Y-61487578D01*
X126131868Y-57591615D02*
X126211904Y-57407021D01*
X126285494Y-57215032D01*
X126356646Y-57010593D01*
X126419865Y-56808968D01*
X126443169Y-56727202D01*
D10*
X147417023Y-38565326D02*
X147893149Y-38750932D01*
D11*
X138457509Y-39932338D02*
X138636155Y-39825629D01*
X138824428Y-39727655D01*
X139020438Y-39639245D01*
X139222297Y-39561232D01*
X139428116Y-39494445D01*
X139497277Y-39474822D01*
X131995900Y-69567698D02*
X131926031Y-69356270D01*
X131823556Y-69142116D01*
X131720137Y-68942839D01*
X131604917Y-68732694D01*
X131484592Y-68524585D01*
X131365860Y-68331415D01*
X131309184Y-68244466D01*
X149374940Y-39667949D02*
X149538096Y-39786822D01*
X149587125Y-39820348D01*
D10*
X135102571Y-135104979D02*
X135105217Y-136930593D01*
D11*
X131171720Y-70137057D02*
X131284406Y-69961592D01*
X131441207Y-69835416D01*
X131629351Y-69724152D01*
X131819576Y-69649809D01*
X107588525Y-50307259D02*
X107806290Y-50295244D01*
X108078185Y-50283179D01*
X108282099Y-50275297D01*
X108498937Y-50267677D01*
X108724247Y-50260434D01*
X108953577Y-50253680D01*
X109182472Y-50247530D01*
X109406481Y-50242098D01*
X109621150Y-50237498D01*
X109822026Y-50233843D01*
X110087739Y-50230382D01*
X110297369Y-50229689D01*
X110463664Y-50233735D01*
X105983824Y-85386566D02*
X105948003Y-85177683D01*
X105909892Y-85051429D01*
X111645494Y-106412380D02*
X111472007Y-106260101D01*
X111298102Y-106096428D01*
X111152186Y-105953824D01*
X111009793Y-105810405D01*
X110850200Y-105643424D01*
X110708421Y-105483817D01*
X110677998Y-105445277D01*
X158156495Y-52988918D02*
X158235394Y-53176630D01*
X158304121Y-53373988D01*
X158378696Y-53601606D01*
X158449700Y-53830889D01*
X158507710Y-54033242D01*
X158532362Y-54129832D01*
X158010789Y-136338562D02*
X158113106Y-136529555D01*
X158227433Y-136720348D01*
X158342933Y-136885683D01*
X158392426Y-136944055D01*
X156359940Y-49379274D02*
X156465406Y-49571237D01*
X156579568Y-49764885D01*
X156700573Y-49966275D01*
X156718977Y-49996635D01*
X112710655Y-53357648D02*
X112742646Y-53557088D01*
X112771584Y-53756016D01*
X112772543Y-53765124D01*
X124715958Y-105438514D02*
X124540303Y-105551461D01*
X124353823Y-105652182D01*
X124222068Y-105714083D01*
X154524390Y-126294386D02*
X154542955Y-126511344D01*
X154562028Y-126720121D01*
X154584390Y-126948162D01*
X154607898Y-127165060D01*
X154630451Y-127331076D01*
X106899773Y-94317460D02*
X106876429Y-94063753D01*
X106855414Y-93844458D01*
X106829992Y-93598204D01*
X106806255Y-93395392D01*
X106776817Y-93187527D01*
X106738218Y-92978916D01*
X106691578Y-92782541D01*
X106682691Y-92748600D01*
X126720513Y-55877951D02*
X126806160Y-55669120D01*
X126891616Y-55473957D01*
X126983805Y-55272771D01*
X127078092Y-55071781D01*
X127163964Y-54890769D01*
X127265097Y-54678875D01*
X127383533Y-54431657D01*
X127427210Y-54340634D01*
D10*
X141891854Y-135519502D02*
X141779268Y-135113808D01*
D11*
X132868231Y-42802528D02*
X133064049Y-42699574D01*
X133242206Y-42603265D01*
X133417299Y-42506469D01*
X133601798Y-42401716D01*
X133729360Y-42326473D01*
X163821179Y-94516009D02*
X163992363Y-94653350D01*
X164160285Y-94803944D01*
X164325851Y-94968834D01*
X164489966Y-95149061D01*
X164653536Y-95345667D01*
X164776402Y-95504497D01*
X164899854Y-95673567D01*
X165024273Y-95853315D01*
X165150044Y-96044182D01*
X158583845Y-106468265D02*
X158569940Y-106695642D01*
X158556968Y-106901549D01*
X158539019Y-107172468D01*
X158522550Y-107401032D01*
X158502251Y-107646069D01*
X158478305Y-107868304D01*
X158439237Y-108068578D01*
X158411662Y-108122482D01*
X125106139Y-109186157D02*
X125155567Y-108928687D01*
X125199696Y-108698327D01*
X125238995Y-108492463D01*
X125289907Y-108223881D01*
X125332581Y-107995716D01*
X125379389Y-107739124D01*
X125418095Y-107517800D01*
X125452440Y-107310840D01*
X125486164Y-107097338D01*
X125523009Y-106856390D01*
X114913415Y-62441675D02*
X114877366Y-62672617D01*
X114840340Y-62880719D01*
X114788053Y-63126787D01*
X114730677Y-63342159D01*
X114666295Y-63532496D01*
X114573048Y-63743838D01*
X114462121Y-63935968D01*
X114358138Y-64083272D01*
X147349967Y-67398125D02*
X147271361Y-67599632D01*
X147191602Y-67818340D01*
X147113874Y-68037687D01*
X147046281Y-68232465D01*
X146992422Y-68390413D01*
X153402149Y-110590097D02*
X153574799Y-110742909D01*
X153734986Y-110891839D01*
X153875097Y-111037487D01*
X154001265Y-111196714D01*
X154091524Y-111331957D01*
X161444229Y-82461738D02*
X161578133Y-82629932D01*
X161707592Y-82790938D01*
X161835882Y-82949216D01*
X161965587Y-83107609D01*
X161993201Y-83140992D01*
X154630451Y-127331076D02*
X154649149Y-127546029D01*
X154658305Y-127770375D01*
X154663733Y-127997030D01*
X154666166Y-128199639D01*
X154666585Y-128323634D01*
D10*
X119813222Y-77138708D02*
X120025798Y-77084246D01*
D11*
X108385366Y-102058574D02*
X108295171Y-101858233D01*
X108220555Y-101655897D01*
X108159376Y-101464543D01*
X108100739Y-101268301D01*
X108029901Y-101022819D01*
X107966775Y-100800354D01*
X107943553Y-100718057D01*
D10*
X141779268Y-135113808D02*
X141791809Y-134231865D01*
D11*
X124222068Y-105714083D02*
X124023022Y-105810014D01*
X123821031Y-105917117D01*
X123634573Y-106021415D01*
X123456674Y-106126103D01*
X158618008Y-56031186D02*
X158582237Y-56242009D01*
X158559475Y-56453447D01*
X158546780Y-56673978D01*
X158544657Y-56772020D01*
X105263091Y-78928585D02*
X105227465Y-78729732D01*
X105149291Y-78554136D01*
X127427210Y-54340634D02*
X127512742Y-54158517D01*
X127612560Y-53941660D01*
X127708401Y-53731347D01*
X127810876Y-53504827D01*
X127894564Y-53318683D01*
X127977236Y-53133725D01*
X127997472Y-53088273D01*
X107943553Y-100718057D02*
X107884072Y-100514933D01*
X107817687Y-100300895D01*
X107752498Y-100101410D01*
X107696610Y-99941944D01*
D10*
X116227143Y-133762004D02*
X116205016Y-133420554D01*
D11*
X155427855Y-74875267D02*
X155587713Y-75022238D01*
X155737683Y-75157631D01*
X155894327Y-75297334D01*
X156063064Y-75445712D01*
X156082379Y-75462510D01*
X113887264Y-64869507D02*
X113754503Y-65034371D01*
X113632996Y-65197900D01*
X113521625Y-65374735D01*
X113444637Y-65546118D01*
D10*
X135105217Y-136930593D02*
X135011912Y-136930604D01*
D11*
X125292689Y-105233177D02*
X125079443Y-105269512D01*
X124884056Y-105329181D01*
X124715958Y-105438514D01*
X122596040Y-128167419D02*
X122656110Y-127945160D01*
X122702586Y-127732238D01*
X122745032Y-127498796D01*
X122775599Y-127300208D01*
X122802750Y-127093530D01*
X122826113Y-126881000D01*
X122845317Y-126664861D01*
X146992422Y-68390413D02*
X146924637Y-68588735D01*
X146856286Y-68784830D01*
X146777676Y-69005663D01*
X146707608Y-69197323D01*
X146629689Y-69399138D01*
X146623675Y-69413467D01*
X98176786Y-65546118D02*
X98243390Y-65355520D01*
X98298803Y-65129777D01*
X98323052Y-64904344D01*
X98315890Y-64664669D01*
X98287381Y-64452895D01*
X98238485Y-64215240D01*
X98188360Y-64015532D01*
X98148508Y-63870425D01*
X105524822Y-80429338D02*
X105504711Y-80221805D01*
X105475159Y-80001735D01*
X105439585Y-79791695D01*
X105401405Y-79614252D01*
X158544657Y-56772020D02*
X158538286Y-56985329D01*
X158514809Y-57200011D01*
X158445525Y-57403648D01*
X158373461Y-57502228D01*
X143536467Y-137618716D02*
X143334171Y-137578863D01*
X143133119Y-137539805D01*
X142905435Y-137496247D01*
X142706401Y-137458926D01*
X142493614Y-137420714D01*
X142478133Y-137418128D01*
X97729718Y-68117355D02*
X97714512Y-67872469D01*
X97715847Y-67656140D01*
X97728129Y-67431211D01*
X97750386Y-67206498D01*
X97781648Y-66990819D01*
X97820943Y-66792990D01*
X97879878Y-66584235D01*
X97906117Y-66516258D01*
X150503829Y-40550919D02*
X150668071Y-40682620D01*
X150839741Y-40821260D01*
X151008815Y-40959394D01*
X151097226Y-41034431D01*
X154751413Y-44352744D02*
X154835230Y-44548984D01*
X154918477Y-44738410D01*
X154927488Y-44758438D01*
X135011912Y-136930604D02*
X134796225Y-136917767D01*
X134571878Y-136901216D01*
X134340503Y-136883056D01*
X134235799Y-136874547D01*
X146623675Y-69413467D02*
X146544345Y-69616330D01*
X146476236Y-69814309D01*
X146446817Y-69911892D01*
X139193760Y-109600069D02*
X139144124Y-109387138D01*
X139080820Y-109163855D01*
X139007166Y-108938696D01*
X138926478Y-108720141D01*
X138842072Y-108516667D01*
X138736390Y-108296449D01*
X138617865Y-108104096D01*
X138599717Y-108081519D01*
X124680639Y-112483194D02*
X124695698Y-112257301D01*
X124711489Y-112040294D01*
X124728185Y-111830836D01*
X124745959Y-111627589D01*
X124775018Y-111331437D01*
X124807473Y-111041735D01*
X124843906Y-110753968D01*
X124884900Y-110463622D01*
X124931038Y-110166182D01*
X124964941Y-109961719D01*
X125001563Y-109750759D01*
X125041074Y-109531964D01*
X125083649Y-109303997D01*
X125106139Y-109186157D01*
X139497277Y-39474822D02*
X139715592Y-39414499D01*
X139910468Y-39359254D01*
X140128768Y-39294943D01*
X140328141Y-39233041D01*
X140518416Y-39170477D01*
X140709425Y-39104181D01*
X140869369Y-39046395D01*
X164785919Y-105383328D02*
X164686949Y-105189932D01*
X164651973Y-104969355D01*
X164624563Y-104755556D01*
X164618220Y-104704375D01*
X160806728Y-81667988D02*
X160932886Y-81824294D01*
X161065051Y-81987099D01*
X161092721Y-82020765D01*
X165762424Y-102887569D02*
X165793517Y-103091928D01*
X165826240Y-103318307D01*
X165859570Y-103558550D01*
X165892484Y-103804505D01*
X165923960Y-104048016D01*
X165952976Y-104280931D01*
X165978509Y-104495094D01*
X166005368Y-104737385D01*
X166023988Y-104943542D01*
X166025812Y-104988167D01*
D10*
X157136553Y-108052464D02*
X157170417Y-107608794D01*
D11*
X98313118Y-70381411D02*
X98342328Y-70148477D01*
X98360601Y-69927155D01*
X98317747Y-69716806D01*
X98227038Y-69604144D01*
X130915516Y-70737109D02*
X131025268Y-70568139D01*
X131112615Y-70374376D01*
X131168100Y-70180364D01*
X131171720Y-70137057D01*
X148592948Y-39112894D02*
X148645864Y-39141100D01*
D10*
X157227895Y-108147803D02*
X157136553Y-108052464D01*
X112943309Y-57557358D02*
X113082815Y-57715845D01*
D11*
X142037277Y-38788887D02*
X142241666Y-38767260D01*
X142448602Y-38720960D01*
X142460610Y-38717370D01*
X135986645Y-123860198D02*
X135956356Y-124221587D01*
X135927342Y-124555631D01*
X135899155Y-124865709D01*
X135871348Y-125155197D01*
X135843471Y-125427471D01*
X135815078Y-125685910D01*
X135785721Y-125933890D01*
X135754952Y-126174788D01*
X135722322Y-126411981D01*
X135687385Y-126648847D01*
X135649692Y-126888763D01*
X135608795Y-127135105D01*
X135564246Y-127391250D01*
X135515599Y-127660577D01*
X135462404Y-127946461D01*
X135404215Y-128252281D01*
X154457551Y-116610636D02*
X154474904Y-116857029D01*
X154485792Y-117069802D01*
X154494480Y-117319495D01*
X154499809Y-117543767D01*
X154504320Y-117809709D01*
X154506961Y-118014577D01*
X154509372Y-118244600D01*
X154511606Y-118502432D01*
X154513716Y-118790728D01*
X154515755Y-119112141D01*
X154517777Y-119469326D01*
X154518799Y-119662163D01*
X151824497Y-41364333D02*
X152064048Y-41436316D01*
X152287451Y-41509660D01*
X152495448Y-41584880D01*
X152688782Y-41662494D01*
X152952917Y-41784529D01*
X153188243Y-41914849D01*
X153397269Y-42055196D01*
X153582503Y-42207310D01*
X153746454Y-42372933D01*
X153891632Y-42553806D01*
X154020544Y-42751670D01*
X154135701Y-42968266D01*
X105149291Y-78554136D02*
X104973395Y-78448796D01*
X104772437Y-78351003D01*
X104566384Y-78260145D01*
X104379702Y-78182849D01*
X104176241Y-78102626D01*
X103958431Y-78020555D01*
X103902022Y-77999876D01*
X113920105Y-58296536D02*
X114076444Y-58429212D01*
X114199454Y-58549565D01*
X121291663Y-76430452D02*
X121488766Y-76330644D01*
X121676251Y-76233163D01*
X121856095Y-76136703D01*
X122115854Y-75991081D01*
X122369538Y-75840431D01*
X122623816Y-75680357D01*
X122796959Y-75566234D01*
X122975307Y-75444665D01*
X123160838Y-75314348D01*
X123355527Y-75173979D01*
X123561352Y-75022256D01*
X123780288Y-74857877D01*
X124014312Y-74679538D01*
X124265401Y-74485937D01*
X124397963Y-74383006D01*
X137804938Y-111163704D02*
X137713979Y-111354408D01*
X137648078Y-111566842D01*
X137607519Y-111784980D01*
X137583120Y-112005708D01*
X137573893Y-112130338D01*
X135053295Y-132803115D02*
X135069436Y-133029342D01*
X135078389Y-133231045D01*
X135085915Y-133474360D01*
X135090633Y-133684620D01*
X135094566Y-133919048D01*
X135097718Y-134177971D01*
X135100099Y-134461716D01*
X135101260Y-134664831D01*
X135102083Y-134879219D01*
X135102571Y-135104979D01*
X131348110Y-46566733D02*
X131345381Y-46342845D01*
X131335555Y-46118419D01*
X131315896Y-45905319D01*
X131290722Y-45750241D01*
X117886645Y-75814391D02*
X118059513Y-75936792D01*
X118238541Y-76068490D01*
X118407716Y-76197379D01*
X118568452Y-76325712D01*
X118615139Y-76365127D01*
X101030645Y-76671186D02*
X100809858Y-76522072D01*
X100622692Y-76394450D01*
X100417947Y-76251909D01*
X100254998Y-76133625D01*
X100094440Y-76007741D01*
X99938545Y-75868351D01*
X99790027Y-75716285D01*
X99763558Y-75687820D01*
X124782810Y-63052581D02*
X124807701Y-62849218D01*
X124835933Y-62647322D01*
X124870404Y-62430372D01*
X124907906Y-62231351D01*
X124928300Y-62146050D01*
X118886955Y-131782908D02*
X119112064Y-131690813D01*
X119322680Y-131599271D01*
X119515485Y-131509899D01*
X119718667Y-131407791D01*
X119909606Y-131299282D01*
X119993112Y-131244023D01*
X151492199Y-71842535D02*
X151568559Y-72066858D01*
X151675075Y-72270355D01*
X151815139Y-72456637D01*
X151992142Y-72629320D01*
X152162622Y-72760103D01*
X152360650Y-72886344D01*
X152587966Y-73009895D01*
X110396381Y-105125999D02*
X110256813Y-104975383D01*
X110123459Y-104823701D01*
X109994642Y-104668566D01*
X109868686Y-104507594D01*
X109743912Y-104338398D01*
X109618643Y-104158593D01*
X109491202Y-103965794D01*
X109359911Y-103757615D01*
X109223094Y-103531672D01*
X109079074Y-103285578D01*
X108978230Y-103109144D01*
X112509974Y-51397712D02*
X112575189Y-51598123D01*
X112598050Y-51798296D01*
X112612083Y-52030309D01*
X112621708Y-52237775D01*
X112624283Y-52297295D01*
X106218449Y-87612363D02*
X106208263Y-87376207D01*
X106195027Y-87173149D01*
X106177457Y-86964217D01*
X106155537Y-86749239D01*
X106129250Y-86528046D01*
X106098582Y-86300464D01*
X106091922Y-86254167D01*
X137874727Y-109749088D02*
X137849172Y-109966261D01*
X137841046Y-110171562D01*
X137846198Y-110386437D01*
X137864622Y-110606419D01*
X137876579Y-110701154D01*
X125597857Y-136579899D02*
X125348097Y-136561504D01*
X125105457Y-136547444D01*
X124826526Y-136533562D01*
X124625355Y-136524586D01*
X124415474Y-136515959D01*
X124199849Y-136507789D01*
X123981447Y-136500183D01*
X123763236Y-136493249D01*
X123548182Y-136487095D01*
X123339253Y-136481829D01*
X123043835Y-136475831D01*
X122778889Y-136472438D01*
X122624133Y-136471803D01*
X162733892Y-91898132D02*
X162598974Y-92083870D01*
X162460277Y-92246183D01*
X162303968Y-92399119D01*
X162145487Y-92533394D01*
X161989490Y-92654295D01*
X135404215Y-128252281D02*
X135355153Y-128511357D01*
X135309144Y-128761480D01*
X135266254Y-129002237D01*
X135226549Y-129233211D01*
X135190095Y-129453989D01*
X135156958Y-129664154D01*
X135127203Y-129863292D01*
X135092906Y-130110939D01*
X135064896Y-130337262D01*
X135048109Y-130492418D01*
X114821302Y-59831120D02*
X114867756Y-60038657D01*
X114917251Y-60236814D01*
X123571000Y-120650000D02*
X123590196Y-120406555D01*
X123612034Y-120162521D01*
X123636591Y-119917298D01*
X123663947Y-119670286D01*
X123694177Y-119420886D01*
X123727360Y-119168501D01*
X123763574Y-118912529D01*
X123802897Y-118652374D01*
X123845405Y-118387434D01*
X123891177Y-118117112D01*
X123923544Y-117933611D01*
X154135701Y-42968266D02*
X154227290Y-43162837D01*
X154311786Y-43353819D01*
X154330763Y-43403640D01*
X131504280Y-44014729D02*
X131616918Y-43828882D01*
X131747293Y-43650647D01*
X131892572Y-43474697D01*
X132037293Y-43319760D01*
X132184799Y-43190543D01*
X145302396Y-137837008D02*
X145083724Y-137843128D01*
X144879313Y-137833800D01*
X144642643Y-137809860D01*
X144422462Y-137779244D01*
X144168575Y-137737660D01*
X143952548Y-137698843D01*
X143711849Y-137653148D01*
X143536467Y-137618716D01*
X147505217Y-137955785D02*
X147299835Y-137931783D01*
X147098015Y-137913629D01*
X146867122Y-137895985D01*
X146617853Y-137879428D01*
X146360905Y-137864534D01*
X146106972Y-137851881D01*
X145866753Y-137842045D01*
X145650943Y-137835602D01*
X145419654Y-137833288D01*
X145302396Y-137837008D01*
X112851779Y-54927509D02*
X112854203Y-55142689D01*
X112858117Y-55375828D01*
X112863315Y-55619507D01*
X112869595Y-55866305D01*
X112876752Y-56108805D01*
X112884583Y-56339587D01*
X112892884Y-56551232D01*
X112901452Y-56736322D01*
X158335475Y-138000404D02*
X158167904Y-138103216D01*
X131819576Y-69649809D02*
X131995900Y-69567698D01*
X152801998Y-110104550D02*
X152965149Y-110223841D01*
X153132258Y-110359862D01*
X153301325Y-110502765D01*
X153402149Y-110590097D01*
X113422918Y-67945008D02*
X113426958Y-68170397D01*
X113430973Y-68386839D01*
X113434967Y-68594474D01*
X113442919Y-68983894D01*
X113450861Y-69339795D01*
X113458842Y-69663316D01*
X113466909Y-69955595D01*
X113475110Y-70217770D01*
X113483493Y-70450978D01*
X113492105Y-70656357D01*
X113505557Y-70914738D01*
X113519793Y-71116906D01*
X113545701Y-71339368D01*
X113568820Y-71424544D01*
X154771971Y-129985694D02*
X154801872Y-130229857D01*
X154827940Y-130442232D01*
X154861005Y-130706923D01*
X154888401Y-130914824D01*
X154919175Y-131118962D01*
X154969006Y-131334103D01*
X155070379Y-131522504D01*
X155084637Y-131544452D01*
X118171883Y-107931797D02*
X117942655Y-107954780D01*
X117695231Y-107964330D01*
X117398199Y-107967721D01*
X117179333Y-107966751D01*
X116948493Y-107963331D01*
X116709706Y-107957576D01*
X116467004Y-107949601D01*
X116224414Y-107939520D01*
X115985966Y-107927449D01*
X115755690Y-107913502D01*
X115537614Y-107897794D01*
X115335768Y-107880441D01*
X115072244Y-107851576D01*
X114996883Y-107841257D01*
X131060439Y-47768098D02*
X131173036Y-47590056D01*
X131263859Y-47381208D01*
X131312377Y-47178588D01*
X131335748Y-46977971D01*
X131346536Y-46736255D01*
X131348110Y-46566733D01*
X136692693Y-40639198D02*
X136899872Y-40538212D01*
X137097859Y-40444114D01*
X137312367Y-40345233D01*
X137513835Y-40256892D01*
X137662830Y-40200901D01*
X147893149Y-38750932D02*
X148082892Y-38827073D01*
X148271243Y-38908850D01*
X148455670Y-39001635D01*
X148592948Y-39112894D01*
D10*
X157541725Y-138334070D02*
X154172695Y-138330234D01*
D11*
X136217208Y-121831725D02*
X136182721Y-122065440D01*
X136150224Y-122301555D01*
X136119533Y-122541705D01*
X136090460Y-122787525D01*
X136062821Y-123040650D01*
X136036429Y-123302713D01*
X136017342Y-123506111D01*
X135998774Y-123716146D01*
X135986645Y-123860198D01*
X121241050Y-130198522D02*
X121403972Y-130074575D01*
X121558102Y-129943445D01*
X121634457Y-129869999D01*
X154666585Y-128323634D02*
X154667474Y-128559346D01*
X154670575Y-128766599D01*
X154678551Y-129001237D01*
X154692263Y-129227395D01*
X154712981Y-129465064D01*
X154735450Y-129676923D01*
X154763863Y-129919180D01*
X154771971Y-129985694D01*
X165709158Y-102425357D02*
X165726887Y-102629419D01*
X165754426Y-102835236D01*
X165762424Y-102887569D01*
X166907986Y-100558907D02*
X166943262Y-100717985D01*
X114969558Y-61154036D02*
X114973774Y-61386750D01*
X114975529Y-61625916D01*
X114971524Y-61858948D01*
X114959672Y-62060183D01*
X114934259Y-62293018D01*
X114913415Y-62441675D01*
X158167904Y-138103216D02*
X157968666Y-138174012D01*
X157771029Y-138247224D01*
X124255583Y-115305417D02*
X124263988Y-115102631D01*
X124276279Y-114871566D01*
X124290070Y-114666349D01*
X124309130Y-114455722D01*
X124324809Y-114352917D01*
X153986286Y-62759098D02*
X153862443Y-62951545D01*
X153718562Y-63159993D01*
X153601005Y-63322342D01*
X153477908Y-63486347D01*
X153351728Y-63648863D01*
X153224924Y-63806743D01*
X153059125Y-64004597D01*
X152902407Y-64181155D01*
X152760593Y-64328958D01*
X150715496Y-138318809D02*
X150504589Y-138306242D01*
X150291661Y-138294697D01*
X150072895Y-138283181D01*
X149833550Y-138270872D01*
X122698203Y-106505619D02*
X122507556Y-106575122D01*
X122317881Y-106650568D01*
X122120640Y-106733379D01*
X121981883Y-106794618D01*
X106580435Y-91563473D02*
X106571859Y-91320685D01*
X106560968Y-91085442D01*
X106548256Y-90865190D01*
X106531300Y-90631163D01*
X106510255Y-90416142D01*
X106498114Y-90328750D01*
X98967057Y-60703328D02*
X99020638Y-60510225D01*
X99018401Y-60306357D01*
X99000284Y-60097807D01*
X98977184Y-59890986D01*
X98945413Y-59632864D01*
X98919186Y-59428685D01*
X98888761Y-59196311D01*
X98854000Y-58933584D01*
X137573893Y-112130338D02*
X137551981Y-112347129D01*
X137519649Y-112561865D01*
X137480757Y-112761009D01*
X137462726Y-112835891D01*
X117519148Y-132609485D02*
X117669516Y-132473655D01*
X117850319Y-132326259D01*
X118033611Y-132197430D01*
X118230577Y-132080410D01*
X118452404Y-131968437D01*
X118655281Y-131877951D01*
X118886955Y-131782908D01*
X142460610Y-38717370D02*
X142655947Y-38670066D01*
X142848664Y-38646243D01*
X155084637Y-131544452D02*
X155197832Y-131733539D01*
X155312518Y-131939799D01*
X155422383Y-132147002D01*
X155517766Y-132339578D01*
X155548529Y-132419343D01*
X137029137Y-115587558D02*
X137022172Y-115793875D01*
X137013251Y-116018337D01*
X137000178Y-116238638D01*
X136977068Y-116453250D01*
X136940173Y-116661388D01*
X136894553Y-116866403D01*
X136859129Y-117016308D01*
X99754248Y-52794980D02*
X99858745Y-52614741D01*
X99958083Y-52422511D01*
X100011672Y-52314761D01*
X102279220Y-50852729D02*
X102518736Y-50830593D01*
X102725909Y-50808053D01*
X102956107Y-50776765D01*
X103194367Y-50736554D01*
X103420578Y-50692949D01*
X103632069Y-50649560D01*
X103690331Y-50637357D01*
X123092835Y-124001388D02*
X123119733Y-123774383D01*
X123152367Y-123550671D01*
X123185566Y-123342825D01*
X123222573Y-123125908D01*
X123261842Y-122909669D01*
X123285846Y-122784307D01*
X98645609Y-56938342D02*
X98620288Y-56720136D01*
X98601195Y-56517673D01*
X98585511Y-56269742D01*
X98581099Y-56043874D01*
X98588074Y-55836683D01*
X98612978Y-55598803D01*
X98656075Y-55378206D01*
X98703800Y-55209731D01*
D10*
X142478133Y-137418128D02*
X142195913Y-137371585D01*
D11*
X139465400Y-111727726D02*
X139417363Y-111524967D01*
X139394851Y-111324156D01*
X139391327Y-111200467D01*
X157361401Y-58900616D02*
X157204477Y-59072590D01*
X157047697Y-59245639D01*
X156900876Y-59408834D01*
X156755271Y-59572200D01*
X156652175Y-59689932D01*
X124928300Y-62146050D02*
X124975690Y-61944829D01*
X125016852Y-61743699D01*
X125060101Y-61515517D01*
X125095854Y-61313382D01*
X125107044Y-61246965D01*
X98029188Y-66075285D02*
X98073111Y-65868110D01*
X98133192Y-65667892D01*
X98176786Y-65546118D01*
M02*
