G04 #@! TF.GenerationSoftware,KiCad,Pcbnew,5.1.4+dfsg1-1*
G04 #@! TF.CreationDate,2019-11-22T10:50:05-08:00*
G04 #@! TF.ProjectId,mrfixit,6d726669-7869-4742-9e6b-696361645f70,rev?*
G04 #@! TF.SameCoordinates,Original*
G04 #@! TF.FileFunction,Legend,Bot*
G04 #@! TF.FilePolarity,Positive*
%FSLAX46Y46*%
G04 Gerber Fmt 4.6, Leading zero omitted, Abs format (unit mm)*
G04 Created by KiCad (PCBNEW 5.1.4+dfsg1-1) date 2019-11-22 10:50:05*
%MOMM*%
%LPD*%
G04 APERTURE LIST*
%ADD10C,0.200000*%
%ADD11C,0.120000*%
%ADD12C,0.400000*%
%ADD13C,0.150000*%
G04 APERTURE END LIST*
D10*
X153504285Y-43673571D02*
X152932857Y-43673571D01*
X153290000Y-43173571D02*
X153290000Y-44459285D01*
X153218571Y-44602142D01*
X153075714Y-44673571D01*
X152932857Y-44673571D01*
X152218571Y-44673571D02*
X152361428Y-44602142D01*
X152432857Y-44530714D01*
X152504285Y-44387857D01*
X152504285Y-43959285D01*
X152432857Y-43816428D01*
X152361428Y-43745000D01*
X152218571Y-43673571D01*
X152004285Y-43673571D01*
X151861428Y-43745000D01*
X151790000Y-43816428D01*
X151718571Y-43959285D01*
X151718571Y-44387857D01*
X151790000Y-44530714D01*
X151861428Y-44602142D01*
X152004285Y-44673571D01*
X152218571Y-44673571D01*
X151075714Y-44673571D02*
X151075714Y-43673571D01*
X151075714Y-43816428D02*
X151004285Y-43745000D01*
X150861428Y-43673571D01*
X150647142Y-43673571D01*
X150504285Y-43745000D01*
X150432857Y-43887857D01*
X150432857Y-44673571D01*
X150432857Y-43887857D02*
X150361428Y-43745000D01*
X150218571Y-43673571D01*
X150004285Y-43673571D01*
X149861428Y-43745000D01*
X149790000Y-43887857D01*
X149790000Y-44673571D01*
X148147142Y-43959285D02*
X148218571Y-43887857D01*
X148361428Y-43816428D01*
X148504285Y-43816428D01*
X148647142Y-43887857D01*
X148718571Y-43959285D01*
X148790000Y-44102142D01*
X148790000Y-44245000D01*
X148718571Y-44387857D01*
X148647142Y-44459285D01*
X148504285Y-44530714D01*
X148361428Y-44530714D01*
X148218571Y-44459285D01*
X148147142Y-44387857D01*
X148147142Y-43816428D02*
X148147142Y-44387857D01*
X148075714Y-44459285D01*
X148004285Y-44459285D01*
X147861428Y-44387857D01*
X147790000Y-44245000D01*
X147790000Y-43887857D01*
X147932857Y-43673571D01*
X148147142Y-43530714D01*
X148432857Y-43459285D01*
X148718571Y-43530714D01*
X148932857Y-43673571D01*
X149075714Y-43887857D01*
X149147142Y-44173571D01*
X149075714Y-44459285D01*
X148932857Y-44673571D01*
X148718571Y-44816428D01*
X148432857Y-44887857D01*
X148147142Y-44816428D01*
X147932857Y-44673571D01*
X147361428Y-43673571D02*
X146790000Y-43673571D01*
X147147142Y-43173571D02*
X147147142Y-44459285D01*
X147075714Y-44602142D01*
X146932857Y-44673571D01*
X146790000Y-44673571D01*
X146075714Y-44673571D02*
X146218571Y-44602142D01*
X146290000Y-44530714D01*
X146361428Y-44387857D01*
X146361428Y-43959285D01*
X146290000Y-43816428D01*
X146218571Y-43745000D01*
X146075714Y-43673571D01*
X145861428Y-43673571D01*
X145718571Y-43745000D01*
X145647142Y-43816428D01*
X145575714Y-43959285D01*
X145575714Y-44387857D01*
X145647142Y-44530714D01*
X145718571Y-44602142D01*
X145861428Y-44673571D01*
X146075714Y-44673571D01*
X144932857Y-44673571D02*
X144932857Y-43673571D01*
X144932857Y-43816428D02*
X144861428Y-43745000D01*
X144718571Y-43673571D01*
X144504285Y-43673571D01*
X144361428Y-43745000D01*
X144290000Y-43887857D01*
X144290000Y-44673571D01*
X144290000Y-43887857D02*
X144218571Y-43745000D01*
X144075714Y-43673571D01*
X143861428Y-43673571D01*
X143718571Y-43745000D01*
X143647142Y-43887857D01*
X143647142Y-44673571D01*
X142932857Y-44673571D02*
X142932857Y-43173571D01*
X142790000Y-44102142D02*
X142361428Y-44673571D01*
X142361428Y-43673571D02*
X142932857Y-44245000D01*
X141718571Y-44530714D02*
X141647142Y-44602142D01*
X141718571Y-44673571D01*
X141790000Y-44602142D01*
X141718571Y-44530714D01*
X141718571Y-44673571D01*
X141004285Y-44673571D02*
X141004285Y-43673571D01*
X141004285Y-43173571D02*
X141075714Y-43245000D01*
X141004285Y-43316428D01*
X140932857Y-43245000D01*
X141004285Y-43173571D01*
X141004285Y-43316428D01*
X140290000Y-43673571D02*
X140290000Y-44673571D01*
X140290000Y-43816428D02*
X140218571Y-43745000D01*
X140075714Y-43673571D01*
X139861428Y-43673571D01*
X139718571Y-43745000D01*
X139647142Y-43887857D01*
X139647142Y-44673571D01*
X137932857Y-43673571D02*
X137575714Y-44673571D01*
X137218571Y-43673571D01*
X135861428Y-44673571D02*
X136718571Y-44673571D01*
X136290000Y-44673571D02*
X136290000Y-43173571D01*
X136432857Y-43387857D01*
X136575714Y-43530714D01*
X136718571Y-43602142D01*
X135218571Y-44530714D02*
X135147142Y-44602142D01*
X135218571Y-44673571D01*
X135290000Y-44602142D01*
X135218571Y-44530714D01*
X135218571Y-44673571D01*
X134218571Y-43173571D02*
X134075714Y-43173571D01*
X133932857Y-43245000D01*
X133861428Y-43316428D01*
X133790000Y-43459285D01*
X133718571Y-43745000D01*
X133718571Y-44102142D01*
X133790000Y-44387857D01*
X133861428Y-44530714D01*
X133932857Y-44602142D01*
X134075714Y-44673571D01*
X134218571Y-44673571D01*
X134361428Y-44602142D01*
X134432857Y-44530714D01*
X134504285Y-44387857D01*
X134575714Y-44102142D01*
X134575714Y-43745000D01*
X134504285Y-43459285D01*
X134432857Y-43316428D01*
X134361428Y-43245000D01*
X134218571Y-43173571D01*
X149218571Y-46409285D02*
X149290000Y-46337857D01*
X149432857Y-46266428D01*
X149575714Y-46266428D01*
X149718571Y-46337857D01*
X149790000Y-46409285D01*
X149861428Y-46552142D01*
X149861428Y-46695000D01*
X149790000Y-46837857D01*
X149718571Y-46909285D01*
X149575714Y-46980714D01*
X149432857Y-46980714D01*
X149290000Y-46909285D01*
X149218571Y-46837857D01*
X149218571Y-46266428D02*
X149218571Y-46837857D01*
X149147142Y-46909285D01*
X149075714Y-46909285D01*
X148932857Y-46837857D01*
X148861428Y-46695000D01*
X148861428Y-46337857D01*
X149004285Y-46123571D01*
X149218571Y-45980714D01*
X149504285Y-45909285D01*
X149790000Y-45980714D01*
X150004285Y-46123571D01*
X150147142Y-46337857D01*
X150218571Y-46623571D01*
X150147142Y-46909285D01*
X150004285Y-47123571D01*
X149790000Y-47266428D01*
X149504285Y-47337857D01*
X149218571Y-47266428D01*
X149004285Y-47123571D01*
X148432857Y-45623571D02*
X147575714Y-45623571D01*
X148004285Y-47123571D02*
X148004285Y-45623571D01*
X146861428Y-47123571D02*
X147004285Y-47052142D01*
X147075714Y-46980714D01*
X147147142Y-46837857D01*
X147147142Y-46409285D01*
X147075714Y-46266428D01*
X147004285Y-46195000D01*
X146861428Y-46123571D01*
X146647142Y-46123571D01*
X146504285Y-46195000D01*
X146432857Y-46266428D01*
X146361428Y-46409285D01*
X146361428Y-46837857D01*
X146432857Y-46980714D01*
X146504285Y-47052142D01*
X146647142Y-47123571D01*
X146861428Y-47123571D01*
X145718571Y-47123571D02*
X145718571Y-46123571D01*
X145718571Y-46266428D02*
X145647142Y-46195000D01*
X145504285Y-46123571D01*
X145290000Y-46123571D01*
X145147142Y-46195000D01*
X145075714Y-46337857D01*
X145075714Y-47123571D01*
X145075714Y-46337857D02*
X145004285Y-46195000D01*
X144861428Y-46123571D01*
X144647142Y-46123571D01*
X144504285Y-46195000D01*
X144432857Y-46337857D01*
X144432857Y-47123571D01*
X143718571Y-47123571D02*
X143718571Y-45623571D01*
X142861428Y-47123571D02*
X143504285Y-46266428D01*
X142861428Y-45623571D02*
X143718571Y-46480714D01*
X141647142Y-47052142D02*
X141790000Y-47123571D01*
X142075714Y-47123571D01*
X142218571Y-47052142D01*
X142290000Y-46909285D01*
X142290000Y-46337857D01*
X142218571Y-46195000D01*
X142075714Y-46123571D01*
X141790000Y-46123571D01*
X141647142Y-46195000D01*
X141575714Y-46337857D01*
X141575714Y-46480714D01*
X142290000Y-46623571D01*
X140290000Y-47123571D02*
X140290000Y-45623571D01*
X140290000Y-47052142D02*
X140432857Y-47123571D01*
X140718571Y-47123571D01*
X140861428Y-47052142D01*
X140932857Y-46980714D01*
X141004285Y-46837857D01*
X141004285Y-46409285D01*
X140932857Y-46266428D01*
X140861428Y-46195000D01*
X140718571Y-46123571D01*
X140432857Y-46123571D01*
X140290000Y-46195000D01*
X138932857Y-47123571D02*
X138932857Y-45623571D01*
X138932857Y-47052142D02*
X139075714Y-47123571D01*
X139361428Y-47123571D01*
X139504285Y-47052142D01*
X139575714Y-46980714D01*
X139647142Y-46837857D01*
X139647142Y-46409285D01*
X139575714Y-46266428D01*
X139504285Y-46195000D01*
X139361428Y-46123571D01*
X139075714Y-46123571D01*
X138932857Y-46195000D01*
X138218571Y-47123571D02*
X138218571Y-46123571D01*
X138218571Y-45623571D02*
X138290000Y-45695000D01*
X138218571Y-45766428D01*
X138147142Y-45695000D01*
X138218571Y-45623571D01*
X138218571Y-45766428D01*
X136932857Y-47052142D02*
X137075714Y-47123571D01*
X137361428Y-47123571D01*
X137504285Y-47052142D01*
X137575714Y-46909285D01*
X137575714Y-46337857D01*
X137504285Y-46195000D01*
X137361428Y-46123571D01*
X137075714Y-46123571D01*
X136932857Y-46195000D01*
X136861428Y-46337857D01*
X136861428Y-46480714D01*
X137575714Y-46623571D01*
D11*
X120588748Y-133600000D02*
X121111252Y-133600000D01*
X120588748Y-135020000D02*
X121111252Y-135020000D01*
D12*
X108720000Y-58280000D02*
G75*
G03X108720000Y-58280000I-200000J0D01*
G01*
D10*
X129090000Y-132110000D02*
X129090000Y-129570000D01*
X131630000Y-132110000D02*
X129090000Y-132110000D01*
X131630000Y-129570000D02*
X126550000Y-129570000D01*
X131630000Y-134650000D02*
X126550000Y-134650000D01*
X131630000Y-134650000D02*
X131630000Y-129570000D01*
X126550000Y-134650000D02*
X126550000Y-129570000D01*
D13*
X121166666Y-133082380D02*
X121500000Y-132606190D01*
X121738095Y-133082380D02*
X121738095Y-132082380D01*
X121357142Y-132082380D01*
X121261904Y-132130000D01*
X121214285Y-132177619D01*
X121166666Y-132272857D01*
X121166666Y-132415714D01*
X121214285Y-132510952D01*
X121261904Y-132558571D01*
X121357142Y-132606190D01*
X121738095Y-132606190D01*
X120214285Y-133082380D02*
X120785714Y-133082380D01*
X120500000Y-133082380D02*
X120500000Y-132082380D01*
X120595238Y-132225238D01*
X120690476Y-132320476D01*
X120785714Y-132368095D01*
X107388095Y-51762380D02*
X107388095Y-50762380D01*
X107150000Y-50762380D01*
X107007142Y-50810000D01*
X106911904Y-50905238D01*
X106864285Y-51000476D01*
X106816666Y-51190952D01*
X106816666Y-51333809D01*
X106864285Y-51524285D01*
X106911904Y-51619523D01*
X107007142Y-51714761D01*
X107150000Y-51762380D01*
X107388095Y-51762380D01*
X105864285Y-51762380D02*
X106435714Y-51762380D01*
X106150000Y-51762380D02*
X106150000Y-50762380D01*
X106245238Y-50905238D01*
X106340476Y-51000476D01*
X106435714Y-51048095D01*
M02*
