M48
; DRILL file {KiCad 5.1.7-a382d34a8~88~ubuntu20.04.1} date Thu Jan 14 11:41:59 2021
; FORMAT={-:-/ absolute / metric / decimal}
; #@! TF.CreationDate,2021-01-14T11:41:59-08:00
; #@! TF.GenerationSoftware,Kicad,Pcbnew,5.1.7-a382d34a8~88~ubuntu20.04.1
FMAT,2
METRIC
T1C0.400
T2C0.700
T3C1.000
%
G90
G05
T1
X129.159Y-123.444
X129.667Y-121.793
X136.652Y-125.222
T2
X125.73Y-121.92
X125.73Y-123.19
X125.73Y-124.46
X125.73Y-125.73
X125.73Y-127.0
X127.0Y-121.92
X127.0Y-123.19
X127.0Y-124.46
X127.0Y-125.73
X127.0Y-127.0
X169.025Y-121.92
X169.025Y-123.19
X169.025Y-124.46
X169.025Y-125.73
X169.025Y-127.0
X170.295Y-121.92
X170.295Y-123.19
X170.295Y-124.46
X170.295Y-125.73
X170.295Y-127.0
T3
X141.5Y-124.46
X144.04Y-124.46
X146.58Y-124.46
X149.12Y-124.46
X151.66Y-124.46
X154.2Y-124.46
X159.5Y-123.19
X159.5Y-125.73
X162.04Y-123.19
X162.04Y-125.73
X164.58Y-123.19
X164.58Y-125.73
T0
M30
