G04 #@! TF.GenerationSoftware,KiCad,Pcbnew,8.0.5-1.fc40*
G04 #@! TF.CreationDate,2024-11-04T14:35:02-08:00*
G04 #@! TF.ProjectId,baggage-label-blank,62616767-6167-4652-9d6c-6162656c2d62,rev?*
G04 #@! TF.SameCoordinates,Original*
G04 #@! TF.FileFunction,Legend,Top*
G04 #@! TF.FilePolarity,Positive*
%FSLAX46Y46*%
G04 Gerber Fmt 4.6, Leading zero omitted, Abs format (unit mm)*
G04 Created by KiCad (PCBNEW 8.0.5-1.fc40) date 2024-11-04 14:35:02*
%MOMM*%
%LPD*%
G01*
G04 APERTURE LIST*
%ADD10C,0.150000*%
G04 APERTURE END LIST*
D10*
X51186128Y-66928571D02*
X52257557Y-66928571D01*
X52257557Y-66928571D02*
X52471842Y-67000000D01*
X52471842Y-67000000D02*
X52614700Y-67142857D01*
X52614700Y-67142857D02*
X52686128Y-67357143D01*
X52686128Y-67357143D02*
X52686128Y-67500000D01*
X52686128Y-65500000D02*
X52686128Y-66214286D01*
X52686128Y-66214286D02*
X51186128Y-66214286D01*
X52543271Y-64142857D02*
X52614700Y-64214285D01*
X52614700Y-64214285D02*
X52686128Y-64428571D01*
X52686128Y-64428571D02*
X52686128Y-64571428D01*
X52686128Y-64571428D02*
X52614700Y-64785714D01*
X52614700Y-64785714D02*
X52471842Y-64928571D01*
X52471842Y-64928571D02*
X52328985Y-65000000D01*
X52328985Y-65000000D02*
X52043271Y-65071428D01*
X52043271Y-65071428D02*
X51828985Y-65071428D01*
X51828985Y-65071428D02*
X51543271Y-65000000D01*
X51543271Y-65000000D02*
X51400414Y-64928571D01*
X51400414Y-64928571D02*
X51257557Y-64785714D01*
X51257557Y-64785714D02*
X51186128Y-64571428D01*
X51186128Y-64571428D02*
X51186128Y-64428571D01*
X51186128Y-64428571D02*
X51257557Y-64214285D01*
X51257557Y-64214285D02*
X51328985Y-64142857D01*
X51186128Y-63071428D02*
X52257557Y-63071428D01*
X52257557Y-63071428D02*
X52471842Y-63142857D01*
X52471842Y-63142857D02*
X52614700Y-63285714D01*
X52614700Y-63285714D02*
X52686128Y-63500000D01*
X52686128Y-63500000D02*
X52686128Y-63642857D01*
X52686128Y-61642857D02*
X52686128Y-62357143D01*
X52686128Y-62357143D02*
X51186128Y-62357143D01*
X52543271Y-60285714D02*
X52614700Y-60357142D01*
X52614700Y-60357142D02*
X52686128Y-60571428D01*
X52686128Y-60571428D02*
X52686128Y-60714285D01*
X52686128Y-60714285D02*
X52614700Y-60928571D01*
X52614700Y-60928571D02*
X52471842Y-61071428D01*
X52471842Y-61071428D02*
X52328985Y-61142857D01*
X52328985Y-61142857D02*
X52043271Y-61214285D01*
X52043271Y-61214285D02*
X51828985Y-61214285D01*
X51828985Y-61214285D02*
X51543271Y-61142857D01*
X51543271Y-61142857D02*
X51400414Y-61071428D01*
X51400414Y-61071428D02*
X51257557Y-60928571D01*
X51257557Y-60928571D02*
X51186128Y-60714285D01*
X51186128Y-60714285D02*
X51186128Y-60571428D01*
X51186128Y-60571428D02*
X51257557Y-60357142D01*
X51257557Y-60357142D02*
X51328985Y-60285714D01*
X51186128Y-59214285D02*
X52257557Y-59214285D01*
X52257557Y-59214285D02*
X52471842Y-59285714D01*
X52471842Y-59285714D02*
X52614700Y-59428571D01*
X52614700Y-59428571D02*
X52686128Y-59642857D01*
X52686128Y-59642857D02*
X52686128Y-59785714D01*
X52686128Y-57785714D02*
X52686128Y-58500000D01*
X52686128Y-58500000D02*
X51186128Y-58500000D01*
X52543271Y-56428571D02*
X52614700Y-56499999D01*
X52614700Y-56499999D02*
X52686128Y-56714285D01*
X52686128Y-56714285D02*
X52686128Y-56857142D01*
X52686128Y-56857142D02*
X52614700Y-57071428D01*
X52614700Y-57071428D02*
X52471842Y-57214285D01*
X52471842Y-57214285D02*
X52328985Y-57285714D01*
X52328985Y-57285714D02*
X52043271Y-57357142D01*
X52043271Y-57357142D02*
X51828985Y-57357142D01*
X51828985Y-57357142D02*
X51543271Y-57285714D01*
X51543271Y-57285714D02*
X51400414Y-57214285D01*
X51400414Y-57214285D02*
X51257557Y-57071428D01*
X51257557Y-57071428D02*
X51186128Y-56857142D01*
X51186128Y-56857142D02*
X51186128Y-56714285D01*
X51186128Y-56714285D02*
X51257557Y-56499999D01*
X51257557Y-56499999D02*
X51328985Y-56428571D01*
X51186128Y-55357142D02*
X52257557Y-55357142D01*
X52257557Y-55357142D02*
X52471842Y-55428571D01*
X52471842Y-55428571D02*
X52614700Y-55571428D01*
X52614700Y-55571428D02*
X52686128Y-55785714D01*
X52686128Y-55785714D02*
X52686128Y-55928571D01*
X52686128Y-53928571D02*
X52686128Y-54642857D01*
X52686128Y-54642857D02*
X51186128Y-54642857D01*
X52543271Y-52571428D02*
X52614700Y-52642856D01*
X52614700Y-52642856D02*
X52686128Y-52857142D01*
X52686128Y-52857142D02*
X52686128Y-52999999D01*
X52686128Y-52999999D02*
X52614700Y-53214285D01*
X52614700Y-53214285D02*
X52471842Y-53357142D01*
X52471842Y-53357142D02*
X52328985Y-53428571D01*
X52328985Y-53428571D02*
X52043271Y-53499999D01*
X52043271Y-53499999D02*
X51828985Y-53499999D01*
X51828985Y-53499999D02*
X51543271Y-53428571D01*
X51543271Y-53428571D02*
X51400414Y-53357142D01*
X51400414Y-53357142D02*
X51257557Y-53214285D01*
X51257557Y-53214285D02*
X51186128Y-52999999D01*
X51186128Y-52999999D02*
X51186128Y-52857142D01*
X51186128Y-52857142D02*
X51257557Y-52642856D01*
X51257557Y-52642856D02*
X51328985Y-52571428D01*
X54321429Y-51971842D02*
X54250000Y-51900414D01*
X54250000Y-51900414D02*
X54107143Y-51828985D01*
X54107143Y-51828985D02*
X53964286Y-51828985D01*
X53964286Y-51828985D02*
X53821429Y-51900414D01*
X53821429Y-51900414D02*
X53750000Y-51971842D01*
X53750000Y-51971842D02*
X53678572Y-52114700D01*
X53678572Y-52114700D02*
X53678572Y-52257557D01*
X53678572Y-52257557D02*
X53750000Y-52400414D01*
X53750000Y-52400414D02*
X53821429Y-52471842D01*
X53821429Y-52471842D02*
X53964286Y-52543271D01*
X53964286Y-52543271D02*
X54107143Y-52543271D01*
X54107143Y-52543271D02*
X54250000Y-52471842D01*
X54250000Y-52471842D02*
X54321429Y-52400414D01*
X54321429Y-51828985D02*
X54321429Y-52400414D01*
X54321429Y-52400414D02*
X54392857Y-52471842D01*
X54392857Y-52471842D02*
X54464286Y-52471842D01*
X54464286Y-52471842D02*
X54607143Y-52400414D01*
X54607143Y-52400414D02*
X54678572Y-52257557D01*
X54678572Y-52257557D02*
X54678572Y-51900414D01*
X54678572Y-51900414D02*
X54535715Y-51686128D01*
X54535715Y-51686128D02*
X54321429Y-51543271D01*
X54321429Y-51543271D02*
X54035715Y-51471842D01*
X54035715Y-51471842D02*
X53750000Y-51543271D01*
X53750000Y-51543271D02*
X53535715Y-51686128D01*
X53535715Y-51686128D02*
X53392857Y-51900414D01*
X53392857Y-51900414D02*
X53321429Y-52186128D01*
X53321429Y-52186128D02*
X53392857Y-52471842D01*
X53392857Y-52471842D02*
X53535715Y-52686128D01*
X53535715Y-52686128D02*
X53750000Y-52828985D01*
X53750000Y-52828985D02*
X54035715Y-52900414D01*
X54035715Y-52900414D02*
X54321429Y-52828985D01*
X54321429Y-52828985D02*
X54535715Y-52686128D01*
X55107143Y-51186128D02*
X55964286Y-51186128D01*
X55535714Y-52686128D02*
X55535714Y-51186128D01*
X56678571Y-52686128D02*
X56535714Y-52614700D01*
X56535714Y-52614700D02*
X56464285Y-52543271D01*
X56464285Y-52543271D02*
X56392857Y-52400414D01*
X56392857Y-52400414D02*
X56392857Y-51971842D01*
X56392857Y-51971842D02*
X56464285Y-51828985D01*
X56464285Y-51828985D02*
X56535714Y-51757557D01*
X56535714Y-51757557D02*
X56678571Y-51686128D01*
X56678571Y-51686128D02*
X56892857Y-51686128D01*
X56892857Y-51686128D02*
X57035714Y-51757557D01*
X57035714Y-51757557D02*
X57107143Y-51828985D01*
X57107143Y-51828985D02*
X57178571Y-51971842D01*
X57178571Y-51971842D02*
X57178571Y-52400414D01*
X57178571Y-52400414D02*
X57107143Y-52543271D01*
X57107143Y-52543271D02*
X57035714Y-52614700D01*
X57035714Y-52614700D02*
X56892857Y-52686128D01*
X56892857Y-52686128D02*
X56678571Y-52686128D01*
X57821428Y-52686128D02*
X57821428Y-51686128D01*
X57821428Y-51828985D02*
X57892857Y-51757557D01*
X57892857Y-51757557D02*
X58035714Y-51686128D01*
X58035714Y-51686128D02*
X58250000Y-51686128D01*
X58250000Y-51686128D02*
X58392857Y-51757557D01*
X58392857Y-51757557D02*
X58464286Y-51900414D01*
X58464286Y-51900414D02*
X58464286Y-52686128D01*
X58464286Y-51900414D02*
X58535714Y-51757557D01*
X58535714Y-51757557D02*
X58678571Y-51686128D01*
X58678571Y-51686128D02*
X58892857Y-51686128D01*
X58892857Y-51686128D02*
X59035714Y-51757557D01*
X59035714Y-51757557D02*
X59107143Y-51900414D01*
X59107143Y-51900414D02*
X59107143Y-52686128D01*
X59821428Y-52686128D02*
X59821428Y-51186128D01*
X60678571Y-52686128D02*
X60035714Y-51828985D01*
X60678571Y-51186128D02*
X59821428Y-52043271D01*
X61892857Y-52614700D02*
X61750000Y-52686128D01*
X61750000Y-52686128D02*
X61464286Y-52686128D01*
X61464286Y-52686128D02*
X61321428Y-52614700D01*
X61321428Y-52614700D02*
X61250000Y-52471842D01*
X61250000Y-52471842D02*
X61250000Y-51900414D01*
X61250000Y-51900414D02*
X61321428Y-51757557D01*
X61321428Y-51757557D02*
X61464286Y-51686128D01*
X61464286Y-51686128D02*
X61750000Y-51686128D01*
X61750000Y-51686128D02*
X61892857Y-51757557D01*
X61892857Y-51757557D02*
X61964286Y-51900414D01*
X61964286Y-51900414D02*
X61964286Y-52043271D01*
X61964286Y-52043271D02*
X61250000Y-52186128D01*
X63250000Y-52686128D02*
X63250000Y-51186128D01*
X63250000Y-52614700D02*
X63107142Y-52686128D01*
X63107142Y-52686128D02*
X62821428Y-52686128D01*
X62821428Y-52686128D02*
X62678571Y-52614700D01*
X62678571Y-52614700D02*
X62607142Y-52543271D01*
X62607142Y-52543271D02*
X62535714Y-52400414D01*
X62535714Y-52400414D02*
X62535714Y-51971842D01*
X62535714Y-51971842D02*
X62607142Y-51828985D01*
X62607142Y-51828985D02*
X62678571Y-51757557D01*
X62678571Y-51757557D02*
X62821428Y-51686128D01*
X62821428Y-51686128D02*
X63107142Y-51686128D01*
X63107142Y-51686128D02*
X63250000Y-51757557D01*
X64607143Y-52686128D02*
X64607143Y-51186128D01*
X64607143Y-52614700D02*
X64464285Y-52686128D01*
X64464285Y-52686128D02*
X64178571Y-52686128D01*
X64178571Y-52686128D02*
X64035714Y-52614700D01*
X64035714Y-52614700D02*
X63964285Y-52543271D01*
X63964285Y-52543271D02*
X63892857Y-52400414D01*
X63892857Y-52400414D02*
X63892857Y-51971842D01*
X63892857Y-51971842D02*
X63964285Y-51828985D01*
X63964285Y-51828985D02*
X64035714Y-51757557D01*
X64035714Y-51757557D02*
X64178571Y-51686128D01*
X64178571Y-51686128D02*
X64464285Y-51686128D01*
X64464285Y-51686128D02*
X64607143Y-51757557D01*
X65321428Y-52686128D02*
X65321428Y-51686128D01*
X65321428Y-51186128D02*
X65250000Y-51257557D01*
X65250000Y-51257557D02*
X65321428Y-51328985D01*
X65321428Y-51328985D02*
X65392857Y-51257557D01*
X65392857Y-51257557D02*
X65321428Y-51186128D01*
X65321428Y-51186128D02*
X65321428Y-51328985D01*
X66607143Y-52614700D02*
X66464286Y-52686128D01*
X66464286Y-52686128D02*
X66178572Y-52686128D01*
X66178572Y-52686128D02*
X66035714Y-52614700D01*
X66035714Y-52614700D02*
X65964286Y-52471842D01*
X65964286Y-52471842D02*
X65964286Y-51900414D01*
X65964286Y-51900414D02*
X66035714Y-51757557D01*
X66035714Y-51757557D02*
X66178572Y-51686128D01*
X66178572Y-51686128D02*
X66464286Y-51686128D01*
X66464286Y-51686128D02*
X66607143Y-51757557D01*
X66607143Y-51757557D02*
X66678572Y-51900414D01*
X66678572Y-51900414D02*
X66678572Y-52043271D01*
X66678572Y-52043271D02*
X65964286Y-52186128D01*
M02*
