%TF.GenerationSoftware,KiCad,Pcbnew,5.1.6-c6e7f7d~87~ubuntu20.04.1*%
%TF.CreationDate,2020-07-24T20:42:58-07:00*%
%TF.ProjectId,bcdc-coaster,62636463-2d63-46f6-9173-7465722e6b69,rev?*%
%TF.SameCoordinates,Original*%
%TF.FileFunction,Copper,L2,Bot*%
%TF.FilePolarity,Positive*%
%FSLAX46Y46*%
G04 Gerber Fmt 4.6, Leading zero omitted, Abs format (unit mm)*
G04 Created by KiCad (PCBNEW 5.1.6-c6e7f7d~87~ubuntu20.04.1) date 2020-07-24 20:42:58*
%MOMM*%
%LPD*%
G01*
G04 APERTURE LIST*
%TA.AperFunction,EtchedComponent*%
%ADD10C,0.010000*%
%TD*%
G04 APERTURE END LIST*
D10*
%TO.C,G\u002A\u002A\u002A*%
G36*
X-8866934Y16226209D02*
G01*
X-9901045Y16225767D01*
X-10803286Y16224918D01*
X-11582896Y16223467D01*
X-12249116Y16221220D01*
X-12811185Y16217980D01*
X-13278344Y16213554D01*
X-13659834Y16207747D01*
X-13964893Y16200363D01*
X-14202763Y16191207D01*
X-14382683Y16180085D01*
X-14513894Y16166802D01*
X-14605636Y16151163D01*
X-14667148Y16132973D01*
X-14707672Y16112037D01*
X-14720214Y16102737D01*
X-14808309Y16024875D01*
X-14877824Y15939065D01*
X-14930948Y15828546D01*
X-14969871Y15676558D01*
X-14996780Y15466340D01*
X-15013865Y15181132D01*
X-15023315Y14804171D01*
X-15027318Y14318698D01*
X-15028069Y13745333D01*
X-15027363Y13168940D01*
X-15024677Y12716169D01*
X-15018894Y12369536D01*
X-15008897Y12111554D01*
X-14993571Y11924737D01*
X-14971797Y11791599D01*
X-14942461Y11694656D01*
X-14904444Y11616421D01*
X-14890628Y11593080D01*
X-14683383Y11379718D01*
X-14485198Y11293612D01*
X-14368086Y11280699D01*
X-14123577Y11269118D01*
X-13765197Y11258866D01*
X-13306471Y11249941D01*
X-12760926Y11242338D01*
X-12142089Y11236055D01*
X-11463484Y11231090D01*
X-10738639Y11227438D01*
X-9981080Y11225098D01*
X-9204333Y11224065D01*
X-8421924Y11224337D01*
X-7647379Y11225911D01*
X-6894224Y11228784D01*
X-6175987Y11232953D01*
X-5506192Y11238415D01*
X-4898366Y11245167D01*
X-4366036Y11253205D01*
X-3922727Y11262527D01*
X-3581966Y11273130D01*
X-3357279Y11285011D01*
X-3267633Y11296119D01*
X-3059238Y11401074D01*
X-2897216Y11546216D01*
X-2855082Y11605574D01*
X-2821965Y11675185D01*
X-2796782Y11771615D01*
X-2778451Y11911433D01*
X-2765888Y12111208D01*
X-2758012Y12387509D01*
X-2753738Y12756904D01*
X-2751985Y13235962D01*
X-2751667Y13773276D01*
X-2751667Y15815299D01*
X-2957906Y16021539D01*
X-3164145Y16227778D01*
X-8866934Y16226209D01*
G37*
X-8866934Y16226209D02*
X-9901045Y16225767D01*
X-10803286Y16224918D01*
X-11582896Y16223467D01*
X-12249116Y16221220D01*
X-12811185Y16217980D01*
X-13278344Y16213554D01*
X-13659834Y16207747D01*
X-13964893Y16200363D01*
X-14202763Y16191207D01*
X-14382683Y16180085D01*
X-14513894Y16166802D01*
X-14605636Y16151163D01*
X-14667148Y16132973D01*
X-14707672Y16112037D01*
X-14720214Y16102737D01*
X-14808309Y16024875D01*
X-14877824Y15939065D01*
X-14930948Y15828546D01*
X-14969871Y15676558D01*
X-14996780Y15466340D01*
X-15013865Y15181132D01*
X-15023315Y14804171D01*
X-15027318Y14318698D01*
X-15028069Y13745333D01*
X-15027363Y13168940D01*
X-15024677Y12716169D01*
X-15018894Y12369536D01*
X-15008897Y12111554D01*
X-14993571Y11924737D01*
X-14971797Y11791599D01*
X-14942461Y11694656D01*
X-14904444Y11616421D01*
X-14890628Y11593080D01*
X-14683383Y11379718D01*
X-14485198Y11293612D01*
X-14368086Y11280699D01*
X-14123577Y11269118D01*
X-13765197Y11258866D01*
X-13306471Y11249941D01*
X-12760926Y11242338D01*
X-12142089Y11236055D01*
X-11463484Y11231090D01*
X-10738639Y11227438D01*
X-9981080Y11225098D01*
X-9204333Y11224065D01*
X-8421924Y11224337D01*
X-7647379Y11225911D01*
X-6894224Y11228784D01*
X-6175987Y11232953D01*
X-5506192Y11238415D01*
X-4898366Y11245167D01*
X-4366036Y11253205D01*
X-3922727Y11262527D01*
X-3581966Y11273130D01*
X-3357279Y11285011D01*
X-3267633Y11296119D01*
X-3059238Y11401074D01*
X-2897216Y11546216D01*
X-2855082Y11605574D01*
X-2821965Y11675185D01*
X-2796782Y11771615D01*
X-2778451Y11911433D01*
X-2765888Y12111208D01*
X-2758012Y12387509D01*
X-2753738Y12756904D01*
X-2751985Y13235962D01*
X-2751667Y13773276D01*
X-2751667Y15815299D01*
X-2957906Y16021539D01*
X-3164145Y16227778D01*
X-8866934Y16226209D01*
G36*
X2998611Y15795412D02*
G01*
X2977780Y13859402D01*
X2972448Y13232171D01*
X2972936Y12729900D01*
X2981537Y12336485D01*
X3000545Y12035818D01*
X3032251Y11811793D01*
X3078948Y11648305D01*
X3142930Y11529246D01*
X3226488Y11438511D01*
X3331915Y11359994D01*
X3333730Y11358791D01*
X3434405Y11338141D01*
X3662996Y11319046D01*
X4006314Y11301552D01*
X4451173Y11285705D01*
X4984383Y11271552D01*
X5592758Y11259137D01*
X6263110Y11248507D01*
X6982252Y11239708D01*
X7736994Y11232786D01*
X8514150Y11227788D01*
X9300533Y11224758D01*
X10082954Y11223743D01*
X10848225Y11224789D01*
X11583159Y11227942D01*
X12274569Y11233249D01*
X12909266Y11240754D01*
X13474063Y11250504D01*
X13955772Y11262545D01*
X14341205Y11276923D01*
X14617176Y11293684D01*
X14770495Y11312874D01*
X14789976Y11318831D01*
X14914092Y11376249D01*
X15012993Y11437989D01*
X15089541Y11519707D01*
X15146599Y11637058D01*
X15187030Y11805699D01*
X15213698Y12041285D01*
X15229466Y12359470D01*
X15237197Y12775911D01*
X15239755Y13306264D01*
X15240000Y13779460D01*
X15240000Y15815299D01*
X15033761Y16021539D01*
X14827522Y16227778D01*
X3413067Y16227778D01*
X2998611Y15795412D01*
G37*
X2998611Y15795412D02*
X2977780Y13859402D01*
X2972448Y13232171D01*
X2972936Y12729900D01*
X2981537Y12336485D01*
X3000545Y12035818D01*
X3032251Y11811793D01*
X3078948Y11648305D01*
X3142930Y11529246D01*
X3226488Y11438511D01*
X3331915Y11359994D01*
X3333730Y11358791D01*
X3434405Y11338141D01*
X3662996Y11319046D01*
X4006314Y11301552D01*
X4451173Y11285705D01*
X4984383Y11271552D01*
X5592758Y11259137D01*
X6263110Y11248507D01*
X6982252Y11239708D01*
X7736994Y11232786D01*
X8514150Y11227788D01*
X9300533Y11224758D01*
X10082954Y11223743D01*
X10848225Y11224789D01*
X11583159Y11227942D01*
X12274569Y11233249D01*
X12909266Y11240754D01*
X13474063Y11250504D01*
X13955772Y11262545D01*
X14341205Y11276923D01*
X14617176Y11293684D01*
X14770495Y11312874D01*
X14789976Y11318831D01*
X14914092Y11376249D01*
X15012993Y11437989D01*
X15089541Y11519707D01*
X15146599Y11637058D01*
X15187030Y11805699D01*
X15213698Y12041285D01*
X15229466Y12359470D01*
X15237197Y12775911D01*
X15239755Y13306264D01*
X15240000Y13779460D01*
X15240000Y15815299D01*
X15033761Y16021539D01*
X14827522Y16227778D01*
X3413067Y16227778D01*
X2998611Y15795412D01*
G36*
X-427165Y328460D02*
G01*
X-1385695Y238692D01*
X-2328696Y66516D01*
X-3238437Y-181716D01*
X-4097189Y-499653D01*
X-4887222Y-880943D01*
X-5590807Y-1319234D01*
X-6190213Y-1808175D01*
X-6567865Y-2213033D01*
X-7010524Y-2864508D01*
X-7327304Y-3568658D01*
X-7514947Y-4310206D01*
X-7570199Y-5073877D01*
X-7489803Y-5844395D01*
X-7412408Y-6175145D01*
X-7187900Y-6842008D01*
X-6910376Y-7384320D01*
X-6571147Y-7811498D01*
X-6161522Y-8132959D01*
X-5672809Y-8358122D01*
X-5305833Y-8457891D01*
X-4789674Y-8523819D01*
X-4354374Y-8480646D01*
X-3986337Y-8324107D01*
X-3671967Y-8049937D01*
X-3561311Y-7910670D01*
X-3369543Y-7599029D01*
X-3230882Y-7252493D01*
X-3136548Y-6839714D01*
X-3077760Y-6329347D01*
X-3064907Y-6138333D01*
X-3026802Y-5641694D01*
X-2969577Y-5268790D01*
X-2880132Y-5002375D01*
X-2745369Y-4825202D01*
X-2552190Y-4720024D01*
X-2287496Y-4669594D01*
X-1939633Y-4656667D01*
X-1555185Y-4673934D01*
X-1221145Y-4721323D01*
X-1049565Y-4767503D01*
X-676295Y-4860422D01*
X-222249Y-4912131D01*
X257884Y-4920941D01*
X709418Y-4885163D01*
X987778Y-4830399D01*
X1283034Y-4768137D01*
X1649225Y-4715084D01*
X2016175Y-4681038D01*
X2083812Y-4677357D01*
X2395704Y-4666347D01*
X2603558Y-4671986D01*
X2744005Y-4699770D01*
X2853678Y-4755196D01*
X2918109Y-4802559D01*
X3046317Y-4920620D01*
X3140689Y-5059645D01*
X3208722Y-5245264D01*
X3257910Y-5503102D01*
X3295749Y-5858789D01*
X3319088Y-6173611D01*
X3366921Y-6699997D01*
X3436930Y-7114845D01*
X3537853Y-7447086D01*
X3678427Y-7725650D01*
X3862809Y-7974135D01*
X4181934Y-8272077D01*
X4538483Y-8452499D01*
X4952020Y-8521052D01*
X5442106Y-8483388D01*
X5554860Y-8462852D01*
X6113148Y-8290398D01*
X6591812Y-8007515D01*
X6993459Y-7611272D01*
X7320694Y-7098737D01*
X7576122Y-6466981D01*
X7687969Y-6063371D01*
X7811990Y-5270994D01*
X7797401Y-4503486D01*
X7643836Y-3757413D01*
X7367653Y-3062871D01*
X6980418Y-2434471D01*
X6469945Y-1856768D01*
X5846545Y-1334875D01*
X5120526Y-873906D01*
X4302199Y-478977D01*
X3401872Y-155200D01*
X2429855Y92310D01*
X1396456Y258439D01*
X529167Y329469D01*
X-427165Y328460D01*
G37*
X-427165Y328460D02*
X-1385695Y238692D01*
X-2328696Y66516D01*
X-3238437Y-181716D01*
X-4097189Y-499653D01*
X-4887222Y-880943D01*
X-5590807Y-1319234D01*
X-6190213Y-1808175D01*
X-6567865Y-2213033D01*
X-7010524Y-2864508D01*
X-7327304Y-3568658D01*
X-7514947Y-4310206D01*
X-7570199Y-5073877D01*
X-7489803Y-5844395D01*
X-7412408Y-6175145D01*
X-7187900Y-6842008D01*
X-6910376Y-7384320D01*
X-6571147Y-7811498D01*
X-6161522Y-8132959D01*
X-5672809Y-8358122D01*
X-5305833Y-8457891D01*
X-4789674Y-8523819D01*
X-4354374Y-8480646D01*
X-3986337Y-8324107D01*
X-3671967Y-8049937D01*
X-3561311Y-7910670D01*
X-3369543Y-7599029D01*
X-3230882Y-7252493D01*
X-3136548Y-6839714D01*
X-3077760Y-6329347D01*
X-3064907Y-6138333D01*
X-3026802Y-5641694D01*
X-2969577Y-5268790D01*
X-2880132Y-5002375D01*
X-2745369Y-4825202D01*
X-2552190Y-4720024D01*
X-2287496Y-4669594D01*
X-1939633Y-4656667D01*
X-1555185Y-4673934D01*
X-1221145Y-4721323D01*
X-1049565Y-4767503D01*
X-676295Y-4860422D01*
X-222249Y-4912131D01*
X257884Y-4920941D01*
X709418Y-4885163D01*
X987778Y-4830399D01*
X1283034Y-4768137D01*
X1649225Y-4715084D01*
X2016175Y-4681038D01*
X2083812Y-4677357D01*
X2395704Y-4666347D01*
X2603558Y-4671986D01*
X2744005Y-4699770D01*
X2853678Y-4755196D01*
X2918109Y-4802559D01*
X3046317Y-4920620D01*
X3140689Y-5059645D01*
X3208722Y-5245264D01*
X3257910Y-5503102D01*
X3295749Y-5858789D01*
X3319088Y-6173611D01*
X3366921Y-6699997D01*
X3436930Y-7114845D01*
X3537853Y-7447086D01*
X3678427Y-7725650D01*
X3862809Y-7974135D01*
X4181934Y-8272077D01*
X4538483Y-8452499D01*
X4952020Y-8521052D01*
X5442106Y-8483388D01*
X5554860Y-8462852D01*
X6113148Y-8290398D01*
X6591812Y-8007515D01*
X6993459Y-7611272D01*
X7320694Y-7098737D01*
X7576122Y-6466981D01*
X7687969Y-6063371D01*
X7811990Y-5270994D01*
X7797401Y-4503486D01*
X7643836Y-3757413D01*
X7367653Y-3062871D01*
X6980418Y-2434471D01*
X6469945Y-1856768D01*
X5846545Y-1334875D01*
X5120526Y-873906D01*
X4302199Y-478977D01*
X3401872Y-155200D01*
X2429855Y92310D01*
X1396456Y258439D01*
X529167Y329469D01*
X-427165Y328460D01*
G36*
X-105833333Y-105833333D02*
G01*
X105833333Y-105833333D01*
X105833333Y1957822D01*
X17308355Y1957822D01*
X17300685Y1508867D01*
X17271198Y970969D01*
X17222491Y368911D01*
X17157160Y-272529D01*
X17077802Y-928570D01*
X16987013Y-1574432D01*
X16887391Y-2185334D01*
X16781532Y-2736497D01*
X16748781Y-2887230D01*
X16494136Y-3854463D01*
X16172727Y-4759998D01*
X15768517Y-5640807D01*
X15265472Y-6533864D01*
X14956275Y-7020278D01*
X14667334Y-7443327D01*
X14310795Y-7940412D01*
X13911336Y-8478811D01*
X13493638Y-9025801D01*
X13082377Y-9548659D01*
X12702233Y-10014663D01*
X12659726Y-10065391D01*
X12194558Y-10698840D01*
X11858888Y-11347498D01*
X11641559Y-12037927D01*
X11535820Y-12741396D01*
X11530716Y-12994959D01*
X11545748Y-13376838D01*
X11579537Y-13875888D01*
X11630704Y-14480962D01*
X11697871Y-15180915D01*
X11779659Y-15964601D01*
X11874690Y-16820876D01*
X11981584Y-17738593D01*
X12098962Y-18706607D01*
X12225447Y-19713772D01*
X12359659Y-20748943D01*
X12500220Y-21800973D01*
X12645751Y-22858719D01*
X12794873Y-23911033D01*
X12946208Y-24946771D01*
X13098377Y-25954787D01*
X13250001Y-26923935D01*
X13399701Y-27843070D01*
X13415884Y-27940000D01*
X13556626Y-28845819D01*
X13653685Y-29632034D01*
X13706657Y-30313353D01*
X13715139Y-30904482D01*
X13678728Y-31420126D01*
X13597021Y-31874994D01*
X13469613Y-32283792D01*
X13296102Y-32661226D01*
X13285877Y-32680150D01*
X12987418Y-33100181D01*
X12586401Y-33474819D01*
X12139904Y-33758630D01*
X11804945Y-33898707D01*
X11346471Y-34045585D01*
X10781710Y-34195832D01*
X10127886Y-34346016D01*
X9402225Y-34492707D01*
X8621954Y-34632471D01*
X7804297Y-34761878D01*
X6966481Y-34877495D01*
X6125732Y-34975891D01*
X5926667Y-34996438D01*
X5140339Y-35063716D01*
X4240773Y-35120549D01*
X3255486Y-35166532D01*
X2211994Y-35201262D01*
X1137814Y-35224334D01*
X60460Y-35235343D01*
X-992550Y-35233885D01*
X-1993701Y-35219556D01*
X-2915476Y-35191952D01*
X-3730360Y-35150668D01*
X-3880555Y-35140560D01*
X-4984078Y-35055064D01*
X-5980613Y-34960577D01*
X-6904210Y-34852675D01*
X-7788919Y-34726933D01*
X-8668790Y-34578929D01*
X-9577872Y-34404239D01*
X-9630833Y-34393476D01*
X-10252654Y-34262945D01*
X-10755834Y-34147380D01*
X-11161188Y-34040191D01*
X-11489532Y-33934786D01*
X-11761679Y-33824575D01*
X-11998444Y-33702965D01*
X-12192584Y-33582270D01*
X-12578081Y-33284039D01*
X-12870759Y-32952027D01*
X-13111632Y-32537619D01*
X-13158874Y-32436891D01*
X-13293727Y-32083251D01*
X-13389598Y-31692069D01*
X-13446413Y-31249457D01*
X-13464098Y-30741529D01*
X-13442580Y-30154399D01*
X-13381783Y-29474179D01*
X-13281635Y-28686983D01*
X-13142060Y-27778925D01*
X-13133754Y-27728333D01*
X-12909284Y-26322769D01*
X-12680117Y-24808212D01*
X-12450571Y-23216492D01*
X-12224965Y-21579439D01*
X-12007618Y-19928883D01*
X-11802847Y-18296653D01*
X-11614971Y-16714581D01*
X-11496843Y-15663333D01*
X-11406351Y-14812243D01*
X-11339202Y-14082032D01*
X-11300424Y-13453662D01*
X-11295043Y-12908093D01*
X-11328086Y-12426289D01*
X-11404580Y-11989210D01*
X-11529551Y-11577818D01*
X-11708026Y-11173074D01*
X-11945031Y-10755941D01*
X-12245594Y-10307380D01*
X-12614742Y-9808353D01*
X-13057499Y-9239821D01*
X-13260547Y-8983381D01*
X-13945646Y-8095768D01*
X-14531694Y-7280069D01*
X-15028190Y-6518038D01*
X-15444629Y-5791425D01*
X-15790511Y-5081982D01*
X-16075333Y-4371461D01*
X-16308593Y-3641613D01*
X-16499789Y-2874191D01*
X-16540736Y-2681111D01*
X-16641923Y-2145751D01*
X-16737255Y-1559952D01*
X-16824746Y-944270D01*
X-16902409Y-319263D01*
X-16968256Y294513D01*
X-17020302Y876500D01*
X-17056559Y1406142D01*
X-17075041Y1862881D01*
X-17073760Y2226162D01*
X-17050730Y2475426D01*
X-17042682Y2512396D01*
X-17011570Y2618976D01*
X-16978347Y2645092D01*
X-16924308Y2576891D01*
X-16830746Y2400519D01*
X-16794143Y2328333D01*
X-16705866Y2133915D01*
X-16583456Y1836515D01*
X-16438842Y1466536D01*
X-16283953Y1054378D01*
X-16157394Y705556D01*
X-15855596Y-129218D01*
X-15583223Y-855605D01*
X-15329285Y-1500420D01*
X-15082797Y-2090477D01*
X-14832770Y-2652589D01*
X-14568217Y-3213571D01*
X-14463679Y-3427785D01*
X-14086840Y-4156839D01*
X-13737564Y-4754217D01*
X-13411589Y-5225717D01*
X-13104654Y-5577139D01*
X-12812498Y-5814281D01*
X-12644435Y-5903320D01*
X-12470985Y-5960552D01*
X-12325231Y-5949396D01*
X-12160332Y-5881677D01*
X-11927281Y-5733521D01*
X-11722050Y-5516330D01*
X-11537761Y-5216183D01*
X-11367537Y-4819161D01*
X-11204502Y-4311344D01*
X-11041777Y-3678812D01*
X-11014840Y-3563055D01*
X-10822799Y-2931429D01*
X-10538698Y-2270567D01*
X-10186760Y-1631175D01*
X-9868855Y-1164167D01*
X-9702900Y-959924D01*
X-9459130Y-680502D01*
X-9159717Y-350296D01*
X-8826830Y6298D01*
X-8482641Y364883D01*
X-8434551Y414124D01*
X-7495409Y1330681D01*
X-6593232Y2122084D01*
X-5717852Y2796183D01*
X-4859100Y3360832D01*
X-4039195Y3808050D01*
X-3384463Y4106739D01*
X-2768529Y4334450D01*
X-2153713Y4500019D01*
X-1502331Y4612283D01*
X-1339270Y4627518D01*
X-17429646Y4627518D01*
X-17444340Y4117666D01*
X-17498623Y3570259D01*
X-17532743Y3339280D01*
X-17669278Y2659186D01*
X-17842420Y2057621D01*
X-18046196Y1542513D01*
X-18274636Y1121789D01*
X-18521769Y803378D01*
X-18781625Y595207D01*
X-19048233Y505204D01*
X-19315622Y541296D01*
X-19538280Y676385D01*
X-19710318Y865811D01*
X-19834027Y1113844D01*
X-19913235Y1438620D01*
X-19951772Y1858276D01*
X-19953467Y2390949D01*
X-19946050Y2607800D01*
X-19874768Y3478221D01*
X-19736283Y4239689D01*
X-19527220Y4909102D01*
X-19448384Y5098691D01*
X-19292631Y5380956D01*
X-19130161Y5528488D01*
X-18951476Y5547636D01*
X-18840998Y5504760D01*
X-18723488Y5365407D01*
X-18706221Y5126851D01*
X-18789197Y4789206D01*
X-18836669Y4660888D01*
X-18960689Y4279788D01*
X-19074715Y3809625D01*
X-19169176Y3302445D01*
X-19234497Y2810295D01*
X-19261104Y2385223D01*
X-19261273Y2352528D01*
X-19248971Y2005723D01*
X-19215931Y1703827D01*
X-19167180Y1471068D01*
X-19107749Y1331674D01*
X-19044606Y1308612D01*
X-18950269Y1419119D01*
X-18830419Y1634870D01*
X-18698141Y1925376D01*
X-18566519Y2260151D01*
X-18448638Y2608707D01*
X-18375216Y2868291D01*
X-18247132Y3476597D01*
X-18170740Y4071419D01*
X-18148704Y4617537D01*
X-18183689Y5079733D01*
X-18200804Y5173966D01*
X-18240971Y5426349D01*
X-18254712Y5644768D01*
X-18245583Y5747618D01*
X-18146272Y5897150D01*
X-17974742Y5957736D01*
X-17777837Y5916171D01*
X-17735062Y5891547D01*
X-17607248Y5731830D01*
X-17512685Y5454591D01*
X-17452956Y5079823D01*
X-17429646Y4627518D01*
X-1339270Y4627518D01*
X-776703Y4680079D01*
X-211667Y4705590D01*
X694840Y4708489D01*
X1502604Y4654590D01*
X2244709Y4537444D01*
X2954237Y4350600D01*
X3664271Y4087605D01*
X4198056Y3845699D01*
X4980587Y3431869D01*
X5745230Y2952637D01*
X6509372Y2394752D01*
X7290404Y1744964D01*
X8105714Y990023D01*
X8632950Y466490D01*
X8982605Y106442D01*
X9321170Y-250903D01*
X9627947Y-583040D01*
X9882238Y-867467D01*
X10063347Y-1081679D01*
X10100315Y-1128889D01*
X10539628Y-1798155D01*
X10915967Y-2554405D01*
X11207327Y-3349588D01*
X11329363Y-3812629D01*
X11494631Y-4457028D01*
X11676271Y-4972258D01*
X11880625Y-5369904D01*
X12114038Y-5661551D01*
X12382850Y-5858784D01*
X12473343Y-5902132D01*
X12648090Y-5960698D01*
X12793767Y-5949440D01*
X12951448Y-5884523D01*
X13240694Y-5686427D01*
X13553955Y-5359232D01*
X13885271Y-4911729D01*
X14228683Y-4352710D01*
X14578231Y-3690967D01*
X14886348Y-3030249D01*
X15030532Y-2694600D01*
X15212522Y-2256971D01*
X15420182Y-1747356D01*
X15641377Y-1195754D01*
X15863970Y-632160D01*
X16046195Y-163523D01*
X16246661Y352272D01*
X16443294Y850764D01*
X16626908Y1309215D01*
X16788313Y1704890D01*
X16918323Y2015051D01*
X17007750Y2216961D01*
X17010370Y2222500D01*
X17244882Y2716389D01*
X17291611Y2293056D01*
X17308355Y1957822D01*
X105833333Y1957822D01*
X105833333Y15733889D01*
X17921111Y15733889D01*
X17921111Y14534445D01*
X16439445Y14534445D01*
X16439445Y13015234D01*
X16437522Y12464074D01*
X16429249Y12032294D01*
X16410868Y11698189D01*
X16378620Y11440051D01*
X16328747Y11236174D01*
X16257491Y11064852D01*
X16161094Y10904377D01*
X16046815Y10747454D01*
X15784423Y10491035D01*
X15436369Y10271029D01*
X15058058Y10120382D01*
X14947423Y10093734D01*
X14829843Y10084282D01*
X14582453Y10075543D01*
X14216555Y10067613D01*
X13743448Y10060585D01*
X13174433Y10054557D01*
X12520810Y10049622D01*
X11793880Y10045876D01*
X11004943Y10043416D01*
X10165299Y10042334D01*
X9286250Y10042728D01*
X8960556Y10043253D01*
X3280833Y10054167D01*
X2911006Y10221352D01*
X2645240Y10373408D01*
X2388411Y10570573D01*
X2286789Y10670116D01*
X2140323Y10839272D01*
X2026639Y10996862D01*
X1941030Y11164067D01*
X1878791Y11362068D01*
X1835217Y11612046D01*
X1805600Y11935182D01*
X1785237Y12352656D01*
X1769420Y12885649D01*
X1766266Y13012997D01*
X1728611Y14560716D01*
X1340556Y14705567D01*
X1020414Y14787512D01*
X610089Y14838662D01*
X152376Y14859021D01*
X-309931Y14848593D01*
X-734036Y14807381D01*
X-1077146Y14735390D01*
X-1164167Y14705331D01*
X-1516944Y14565553D01*
X-1552222Y12980138D01*
X-1565236Y12452578D01*
X-1579059Y12045866D01*
X-1595561Y11739744D01*
X-1616616Y11513953D01*
X-1644094Y11348234D01*
X-1679868Y11222329D01*
X-1724147Y11119316D01*
X-1982826Y10736630D01*
X-2336745Y10407369D01*
X-2674804Y10203937D01*
X-2734308Y10177300D01*
X-2796317Y10154024D01*
X-2870241Y10133884D01*
X-2965489Y10116651D01*
X-3091473Y10102100D01*
X-3257601Y10090004D01*
X-3473285Y10080136D01*
X-3747932Y10072269D01*
X-4090955Y10066177D01*
X-4511762Y10061632D01*
X-5019764Y10058408D01*
X-5624370Y10056279D01*
X-6334991Y10055016D01*
X-7161036Y10054395D01*
X-8111915Y10054187D01*
X-8890000Y10054167D01*
X-9960945Y10053921D01*
X-10900169Y10053659D01*
X-11717058Y10054090D01*
X-12421001Y10055927D01*
X-13021384Y10059881D01*
X-13527596Y10066663D01*
X-13949023Y10076983D01*
X-14295053Y10091554D01*
X-14575073Y10111087D01*
X-14798472Y10136292D01*
X-14974635Y10167881D01*
X-15112952Y10206565D01*
X-15222809Y10253055D01*
X-15313594Y10308063D01*
X-15394695Y10372300D01*
X-15475498Y10446476D01*
X-15565391Y10531304D01*
X-15599459Y10562485D01*
X-15777772Y10730199D01*
X-15916371Y10885889D01*
X-16020566Y11050281D01*
X-16095668Y11244099D01*
X-16146988Y11488070D01*
X-16179837Y11802918D01*
X-16199525Y12209369D01*
X-16211364Y12728149D01*
X-16214989Y12964583D01*
X-16237478Y14534445D01*
X-17638889Y14534445D01*
X-17638889Y15733889D01*
X-16253548Y15733889D01*
X-16128595Y16130284D01*
X-15929514Y16551711D01*
X-15627435Y16926133D01*
X-15256906Y17213708D01*
X-15131717Y17279854D01*
X-15073834Y17306003D01*
X-15012514Y17328860D01*
X-14938388Y17348647D01*
X-14842086Y17365586D01*
X-14714241Y17379896D01*
X-14545482Y17391801D01*
X-14326441Y17401521D01*
X-14047747Y17409278D01*
X-13700033Y17415293D01*
X-13273928Y17419787D01*
X-12760065Y17422982D01*
X-12149073Y17425100D01*
X-11431583Y17426361D01*
X-10598226Y17426988D01*
X-9639633Y17427201D01*
X-8895362Y17427222D01*
X-7663636Y17426353D01*
X-6572131Y17423739D01*
X-5619970Y17419368D01*
X-4806273Y17413230D01*
X-4130162Y17405315D01*
X-3590759Y17395611D01*
X-3187184Y17384109D01*
X-2918560Y17370797D01*
X-2784007Y17355664D01*
X-2773899Y17352724D01*
X-2337941Y17116293D01*
X-1975359Y16771277D01*
X-1707362Y16340205D01*
X-1626416Y16133788D01*
X-1559748Y15962656D01*
X-1488271Y15897644D01*
X-1373317Y15907885D01*
X-1350810Y15913767D01*
X-803186Y16022208D01*
X-193813Y16077459D01*
X425688Y16078746D01*
X1003695Y16025297D01*
X1358195Y15954321D01*
X1607460Y15891784D01*
X1750226Y15866898D01*
X1815911Y15879384D01*
X1833933Y15928959D01*
X1834445Y15949772D01*
X1894525Y16233894D01*
X2057208Y16542232D01*
X2296156Y16841671D01*
X2585030Y17099097D01*
X2891528Y17278846D01*
X2954940Y17305442D01*
X3019662Y17328679D01*
X3095057Y17348753D01*
X3190489Y17365859D01*
X3315319Y17380190D01*
X3478911Y17391943D01*
X3690627Y17401312D01*
X3959832Y17408492D01*
X4295887Y17413677D01*
X4708155Y17417064D01*
X5206000Y17418845D01*
X5798785Y17419218D01*
X6495871Y17418375D01*
X7306623Y17416513D01*
X8240403Y17413826D01*
X9228865Y17410753D01*
X15215854Y17391945D01*
X15563066Y17178222D01*
X15869578Y16934202D01*
X16135704Y16620422D01*
X16329750Y16280508D01*
X16413765Y16007269D01*
X16457480Y15733889D01*
X17921111Y15733889D01*
X105833333Y15733889D01*
X105833333Y25599406D01*
X16148337Y25599406D01*
X16095849Y25541138D01*
X16093876Y25541111D01*
X16029879Y25593748D01*
X15897134Y25738399D01*
X15712859Y25955176D01*
X15494273Y26224191D01*
X15406672Y26334861D01*
X14873274Y26992890D01*
X14299507Y27663667D01*
X13701618Y28330475D01*
X13095856Y28976596D01*
X12498470Y29585314D01*
X11925708Y30139911D01*
X11393820Y30623671D01*
X10919053Y31019876D01*
X10672084Y31205964D01*
X9755156Y31779470D01*
X8794930Y32219363D01*
X7793899Y32524670D01*
X6894384Y32679753D01*
X6262603Y32715584D01*
X5529232Y32695359D01*
X4720542Y32622712D01*
X3862810Y32501273D01*
X2982310Y32334674D01*
X2105317Y32126548D01*
X1371519Y31916360D01*
X911330Y31777487D01*
X549143Y31684964D01*
X249996Y31637890D01*
X-21075Y31635358D01*
X-299030Y31676467D01*
X-618833Y31760311D01*
X-926477Y31856957D01*
X-1548200Y32039255D01*
X-2264558Y32216775D01*
X-3029150Y32380142D01*
X-3795576Y32519976D01*
X-4517435Y32626900D01*
X-4995205Y32679283D01*
X-6070677Y32713675D01*
X-7093931Y32619794D01*
X-8071832Y32395394D01*
X-9011243Y32038224D01*
X-9919026Y31546038D01*
X-10802044Y30916586D01*
X-11080910Y30685453D01*
X-11925753Y29925025D01*
X-12762619Y29096722D01*
X-13607990Y28183014D01*
X-14478346Y27166372D01*
X-15036679Y26478008D01*
X-15374630Y26063737D01*
X-15635075Y25767370D01*
X-15818217Y25589025D01*
X-15924257Y25528817D01*
X-15953395Y25586864D01*
X-15905834Y25763282D01*
X-15781775Y26058186D01*
X-15581419Y26471695D01*
X-15454386Y26719701D01*
X-14688593Y28073101D01*
X-13863069Y29298931D01*
X-12977894Y30397107D01*
X-12033150Y31367549D01*
X-11028919Y32210175D01*
X-9965283Y32924901D01*
X-8842323Y33511646D01*
X-8572500Y33629822D01*
X-7430672Y34053729D01*
X-6171397Y34410907D01*
X-4802601Y34699383D01*
X-3457222Y34901934D01*
X-3055909Y34940599D01*
X-2540573Y34972920D01*
X-1935427Y34998768D01*
X-1264685Y35018017D01*
X-552560Y35030539D01*
X176737Y35036207D01*
X898990Y35034893D01*
X1589989Y35026472D01*
X2225519Y35010814D01*
X2781368Y34987793D01*
X3233322Y34957282D01*
X3421945Y34938092D01*
X4616713Y34774655D01*
X5695669Y34581389D01*
X6682132Y34352002D01*
X7599424Y34080205D01*
X8470865Y33759709D01*
X9319777Y33384224D01*
X9489722Y33301572D01*
X10585990Y32682076D01*
X11622612Y31935518D01*
X12597501Y31063674D01*
X13508571Y30068321D01*
X13962983Y29493794D01*
X14290079Y29043352D01*
X14613172Y28569141D01*
X14924717Y28085158D01*
X15217168Y27605400D01*
X15482979Y27143864D01*
X15714605Y26714546D01*
X15904499Y26331445D01*
X16045117Y26008556D01*
X16128911Y25759878D01*
X16148337Y25599406D01*
X105833333Y25599406D01*
X105833333Y105833333D01*
X-105833333Y105833333D01*
X-105833333Y-105833333D01*
G37*
X-105833333Y-105833333D02*
X105833333Y-105833333D01*
X105833333Y1957822D01*
X17308355Y1957822D01*
X17300685Y1508867D01*
X17271198Y970969D01*
X17222491Y368911D01*
X17157160Y-272529D01*
X17077802Y-928570D01*
X16987013Y-1574432D01*
X16887391Y-2185334D01*
X16781532Y-2736497D01*
X16748781Y-2887230D01*
X16494136Y-3854463D01*
X16172727Y-4759998D01*
X15768517Y-5640807D01*
X15265472Y-6533864D01*
X14956275Y-7020278D01*
X14667334Y-7443327D01*
X14310795Y-7940412D01*
X13911336Y-8478811D01*
X13493638Y-9025801D01*
X13082377Y-9548659D01*
X12702233Y-10014663D01*
X12659726Y-10065391D01*
X12194558Y-10698840D01*
X11858888Y-11347498D01*
X11641559Y-12037927D01*
X11535820Y-12741396D01*
X11530716Y-12994959D01*
X11545748Y-13376838D01*
X11579537Y-13875888D01*
X11630704Y-14480962D01*
X11697871Y-15180915D01*
X11779659Y-15964601D01*
X11874690Y-16820876D01*
X11981584Y-17738593D01*
X12098962Y-18706607D01*
X12225447Y-19713772D01*
X12359659Y-20748943D01*
X12500220Y-21800973D01*
X12645751Y-22858719D01*
X12794873Y-23911033D01*
X12946208Y-24946771D01*
X13098377Y-25954787D01*
X13250001Y-26923935D01*
X13399701Y-27843070D01*
X13415884Y-27940000D01*
X13556626Y-28845819D01*
X13653685Y-29632034D01*
X13706657Y-30313353D01*
X13715139Y-30904482D01*
X13678728Y-31420126D01*
X13597021Y-31874994D01*
X13469613Y-32283792D01*
X13296102Y-32661226D01*
X13285877Y-32680150D01*
X12987418Y-33100181D01*
X12586401Y-33474819D01*
X12139904Y-33758630D01*
X11804945Y-33898707D01*
X11346471Y-34045585D01*
X10781710Y-34195832D01*
X10127886Y-34346016D01*
X9402225Y-34492707D01*
X8621954Y-34632471D01*
X7804297Y-34761878D01*
X6966481Y-34877495D01*
X6125732Y-34975891D01*
X5926667Y-34996438D01*
X5140339Y-35063716D01*
X4240773Y-35120549D01*
X3255486Y-35166532D01*
X2211994Y-35201262D01*
X1137814Y-35224334D01*
X60460Y-35235343D01*
X-992550Y-35233885D01*
X-1993701Y-35219556D01*
X-2915476Y-35191952D01*
X-3730360Y-35150668D01*
X-3880555Y-35140560D01*
X-4984078Y-35055064D01*
X-5980613Y-34960577D01*
X-6904210Y-34852675D01*
X-7788919Y-34726933D01*
X-8668790Y-34578929D01*
X-9577872Y-34404239D01*
X-9630833Y-34393476D01*
X-10252654Y-34262945D01*
X-10755834Y-34147380D01*
X-11161188Y-34040191D01*
X-11489532Y-33934786D01*
X-11761679Y-33824575D01*
X-11998444Y-33702965D01*
X-12192584Y-33582270D01*
X-12578081Y-33284039D01*
X-12870759Y-32952027D01*
X-13111632Y-32537619D01*
X-13158874Y-32436891D01*
X-13293727Y-32083251D01*
X-13389598Y-31692069D01*
X-13446413Y-31249457D01*
X-13464098Y-30741529D01*
X-13442580Y-30154399D01*
X-13381783Y-29474179D01*
X-13281635Y-28686983D01*
X-13142060Y-27778925D01*
X-13133754Y-27728333D01*
X-12909284Y-26322769D01*
X-12680117Y-24808212D01*
X-12450571Y-23216492D01*
X-12224965Y-21579439D01*
X-12007618Y-19928883D01*
X-11802847Y-18296653D01*
X-11614971Y-16714581D01*
X-11496843Y-15663333D01*
X-11406351Y-14812243D01*
X-11339202Y-14082032D01*
X-11300424Y-13453662D01*
X-11295043Y-12908093D01*
X-11328086Y-12426289D01*
X-11404580Y-11989210D01*
X-11529551Y-11577818D01*
X-11708026Y-11173074D01*
X-11945031Y-10755941D01*
X-12245594Y-10307380D01*
X-12614742Y-9808353D01*
X-13057499Y-9239821D01*
X-13260547Y-8983381D01*
X-13945646Y-8095768D01*
X-14531694Y-7280069D01*
X-15028190Y-6518038D01*
X-15444629Y-5791425D01*
X-15790511Y-5081982D01*
X-16075333Y-4371461D01*
X-16308593Y-3641613D01*
X-16499789Y-2874191D01*
X-16540736Y-2681111D01*
X-16641923Y-2145751D01*
X-16737255Y-1559952D01*
X-16824746Y-944270D01*
X-16902409Y-319263D01*
X-16968256Y294513D01*
X-17020302Y876500D01*
X-17056559Y1406142D01*
X-17075041Y1862881D01*
X-17073760Y2226162D01*
X-17050730Y2475426D01*
X-17042682Y2512396D01*
X-17011570Y2618976D01*
X-16978347Y2645092D01*
X-16924308Y2576891D01*
X-16830746Y2400519D01*
X-16794143Y2328333D01*
X-16705866Y2133915D01*
X-16583456Y1836515D01*
X-16438842Y1466536D01*
X-16283953Y1054378D01*
X-16157394Y705556D01*
X-15855596Y-129218D01*
X-15583223Y-855605D01*
X-15329285Y-1500420D01*
X-15082797Y-2090477D01*
X-14832770Y-2652589D01*
X-14568217Y-3213571D01*
X-14463679Y-3427785D01*
X-14086840Y-4156839D01*
X-13737564Y-4754217D01*
X-13411589Y-5225717D01*
X-13104654Y-5577139D01*
X-12812498Y-5814281D01*
X-12644435Y-5903320D01*
X-12470985Y-5960552D01*
X-12325231Y-5949396D01*
X-12160332Y-5881677D01*
X-11927281Y-5733521D01*
X-11722050Y-5516330D01*
X-11537761Y-5216183D01*
X-11367537Y-4819161D01*
X-11204502Y-4311344D01*
X-11041777Y-3678812D01*
X-11014840Y-3563055D01*
X-10822799Y-2931429D01*
X-10538698Y-2270567D01*
X-10186760Y-1631175D01*
X-9868855Y-1164167D01*
X-9702900Y-959924D01*
X-9459130Y-680502D01*
X-9159717Y-350296D01*
X-8826830Y6298D01*
X-8482641Y364883D01*
X-8434551Y414124D01*
X-7495409Y1330681D01*
X-6593232Y2122084D01*
X-5717852Y2796183D01*
X-4859100Y3360832D01*
X-4039195Y3808050D01*
X-3384463Y4106739D01*
X-2768529Y4334450D01*
X-2153713Y4500019D01*
X-1502331Y4612283D01*
X-1339270Y4627518D01*
X-17429646Y4627518D01*
X-17444340Y4117666D01*
X-17498623Y3570259D01*
X-17532743Y3339280D01*
X-17669278Y2659186D01*
X-17842420Y2057621D01*
X-18046196Y1542513D01*
X-18274636Y1121789D01*
X-18521769Y803378D01*
X-18781625Y595207D01*
X-19048233Y505204D01*
X-19315622Y541296D01*
X-19538280Y676385D01*
X-19710318Y865811D01*
X-19834027Y1113844D01*
X-19913235Y1438620D01*
X-19951772Y1858276D01*
X-19953467Y2390949D01*
X-19946050Y2607800D01*
X-19874768Y3478221D01*
X-19736283Y4239689D01*
X-19527220Y4909102D01*
X-19448384Y5098691D01*
X-19292631Y5380956D01*
X-19130161Y5528488D01*
X-18951476Y5547636D01*
X-18840998Y5504760D01*
X-18723488Y5365407D01*
X-18706221Y5126851D01*
X-18789197Y4789206D01*
X-18836669Y4660888D01*
X-18960689Y4279788D01*
X-19074715Y3809625D01*
X-19169176Y3302445D01*
X-19234497Y2810295D01*
X-19261104Y2385223D01*
X-19261273Y2352528D01*
X-19248971Y2005723D01*
X-19215931Y1703827D01*
X-19167180Y1471068D01*
X-19107749Y1331674D01*
X-19044606Y1308612D01*
X-18950269Y1419119D01*
X-18830419Y1634870D01*
X-18698141Y1925376D01*
X-18566519Y2260151D01*
X-18448638Y2608707D01*
X-18375216Y2868291D01*
X-18247132Y3476597D01*
X-18170740Y4071419D01*
X-18148704Y4617537D01*
X-18183689Y5079733D01*
X-18200804Y5173966D01*
X-18240971Y5426349D01*
X-18254712Y5644768D01*
X-18245583Y5747618D01*
X-18146272Y5897150D01*
X-17974742Y5957736D01*
X-17777837Y5916171D01*
X-17735062Y5891547D01*
X-17607248Y5731830D01*
X-17512685Y5454591D01*
X-17452956Y5079823D01*
X-17429646Y4627518D01*
X-1339270Y4627518D01*
X-776703Y4680079D01*
X-211667Y4705590D01*
X694840Y4708489D01*
X1502604Y4654590D01*
X2244709Y4537444D01*
X2954237Y4350600D01*
X3664271Y4087605D01*
X4198056Y3845699D01*
X4980587Y3431869D01*
X5745230Y2952637D01*
X6509372Y2394752D01*
X7290404Y1744964D01*
X8105714Y990023D01*
X8632950Y466490D01*
X8982605Y106442D01*
X9321170Y-250903D01*
X9627947Y-583040D01*
X9882238Y-867467D01*
X10063347Y-1081679D01*
X10100315Y-1128889D01*
X10539628Y-1798155D01*
X10915967Y-2554405D01*
X11207327Y-3349588D01*
X11329363Y-3812629D01*
X11494631Y-4457028D01*
X11676271Y-4972258D01*
X11880625Y-5369904D01*
X12114038Y-5661551D01*
X12382850Y-5858784D01*
X12473343Y-5902132D01*
X12648090Y-5960698D01*
X12793767Y-5949440D01*
X12951448Y-5884523D01*
X13240694Y-5686427D01*
X13553955Y-5359232D01*
X13885271Y-4911729D01*
X14228683Y-4352710D01*
X14578231Y-3690967D01*
X14886348Y-3030249D01*
X15030532Y-2694600D01*
X15212522Y-2256971D01*
X15420182Y-1747356D01*
X15641377Y-1195754D01*
X15863970Y-632160D01*
X16046195Y-163523D01*
X16246661Y352272D01*
X16443294Y850764D01*
X16626908Y1309215D01*
X16788313Y1704890D01*
X16918323Y2015051D01*
X17007750Y2216961D01*
X17010370Y2222500D01*
X17244882Y2716389D01*
X17291611Y2293056D01*
X17308355Y1957822D01*
X105833333Y1957822D01*
X105833333Y15733889D01*
X17921111Y15733889D01*
X17921111Y14534445D01*
X16439445Y14534445D01*
X16439445Y13015234D01*
X16437522Y12464074D01*
X16429249Y12032294D01*
X16410868Y11698189D01*
X16378620Y11440051D01*
X16328747Y11236174D01*
X16257491Y11064852D01*
X16161094Y10904377D01*
X16046815Y10747454D01*
X15784423Y10491035D01*
X15436369Y10271029D01*
X15058058Y10120382D01*
X14947423Y10093734D01*
X14829843Y10084282D01*
X14582453Y10075543D01*
X14216555Y10067613D01*
X13743448Y10060585D01*
X13174433Y10054557D01*
X12520810Y10049622D01*
X11793880Y10045876D01*
X11004943Y10043416D01*
X10165299Y10042334D01*
X9286250Y10042728D01*
X8960556Y10043253D01*
X3280833Y10054167D01*
X2911006Y10221352D01*
X2645240Y10373408D01*
X2388411Y10570573D01*
X2286789Y10670116D01*
X2140323Y10839272D01*
X2026639Y10996862D01*
X1941030Y11164067D01*
X1878791Y11362068D01*
X1835217Y11612046D01*
X1805600Y11935182D01*
X1785237Y12352656D01*
X1769420Y12885649D01*
X1766266Y13012997D01*
X1728611Y14560716D01*
X1340556Y14705567D01*
X1020414Y14787512D01*
X610089Y14838662D01*
X152376Y14859021D01*
X-309931Y14848593D01*
X-734036Y14807381D01*
X-1077146Y14735390D01*
X-1164167Y14705331D01*
X-1516944Y14565553D01*
X-1552222Y12980138D01*
X-1565236Y12452578D01*
X-1579059Y12045866D01*
X-1595561Y11739744D01*
X-1616616Y11513953D01*
X-1644094Y11348234D01*
X-1679868Y11222329D01*
X-1724147Y11119316D01*
X-1982826Y10736630D01*
X-2336745Y10407369D01*
X-2674804Y10203937D01*
X-2734308Y10177300D01*
X-2796317Y10154024D01*
X-2870241Y10133884D01*
X-2965489Y10116651D01*
X-3091473Y10102100D01*
X-3257601Y10090004D01*
X-3473285Y10080136D01*
X-3747932Y10072269D01*
X-4090955Y10066177D01*
X-4511762Y10061632D01*
X-5019764Y10058408D01*
X-5624370Y10056279D01*
X-6334991Y10055016D01*
X-7161036Y10054395D01*
X-8111915Y10054187D01*
X-8890000Y10054167D01*
X-9960945Y10053921D01*
X-10900169Y10053659D01*
X-11717058Y10054090D01*
X-12421001Y10055927D01*
X-13021384Y10059881D01*
X-13527596Y10066663D01*
X-13949023Y10076983D01*
X-14295053Y10091554D01*
X-14575073Y10111087D01*
X-14798472Y10136292D01*
X-14974635Y10167881D01*
X-15112952Y10206565D01*
X-15222809Y10253055D01*
X-15313594Y10308063D01*
X-15394695Y10372300D01*
X-15475498Y10446476D01*
X-15565391Y10531304D01*
X-15599459Y10562485D01*
X-15777772Y10730199D01*
X-15916371Y10885889D01*
X-16020566Y11050281D01*
X-16095668Y11244099D01*
X-16146988Y11488070D01*
X-16179837Y11802918D01*
X-16199525Y12209369D01*
X-16211364Y12728149D01*
X-16214989Y12964583D01*
X-16237478Y14534445D01*
X-17638889Y14534445D01*
X-17638889Y15733889D01*
X-16253548Y15733889D01*
X-16128595Y16130284D01*
X-15929514Y16551711D01*
X-15627435Y16926133D01*
X-15256906Y17213708D01*
X-15131717Y17279854D01*
X-15073834Y17306003D01*
X-15012514Y17328860D01*
X-14938388Y17348647D01*
X-14842086Y17365586D01*
X-14714241Y17379896D01*
X-14545482Y17391801D01*
X-14326441Y17401521D01*
X-14047747Y17409278D01*
X-13700033Y17415293D01*
X-13273928Y17419787D01*
X-12760065Y17422982D01*
X-12149073Y17425100D01*
X-11431583Y17426361D01*
X-10598226Y17426988D01*
X-9639633Y17427201D01*
X-8895362Y17427222D01*
X-7663636Y17426353D01*
X-6572131Y17423739D01*
X-5619970Y17419368D01*
X-4806273Y17413230D01*
X-4130162Y17405315D01*
X-3590759Y17395611D01*
X-3187184Y17384109D01*
X-2918560Y17370797D01*
X-2784007Y17355664D01*
X-2773899Y17352724D01*
X-2337941Y17116293D01*
X-1975359Y16771277D01*
X-1707362Y16340205D01*
X-1626416Y16133788D01*
X-1559748Y15962656D01*
X-1488271Y15897644D01*
X-1373317Y15907885D01*
X-1350810Y15913767D01*
X-803186Y16022208D01*
X-193813Y16077459D01*
X425688Y16078746D01*
X1003695Y16025297D01*
X1358195Y15954321D01*
X1607460Y15891784D01*
X1750226Y15866898D01*
X1815911Y15879384D01*
X1833933Y15928959D01*
X1834445Y15949772D01*
X1894525Y16233894D01*
X2057208Y16542232D01*
X2296156Y16841671D01*
X2585030Y17099097D01*
X2891528Y17278846D01*
X2954940Y17305442D01*
X3019662Y17328679D01*
X3095057Y17348753D01*
X3190489Y17365859D01*
X3315319Y17380190D01*
X3478911Y17391943D01*
X3690627Y17401312D01*
X3959832Y17408492D01*
X4295887Y17413677D01*
X4708155Y17417064D01*
X5206000Y17418845D01*
X5798785Y17419218D01*
X6495871Y17418375D01*
X7306623Y17416513D01*
X8240403Y17413826D01*
X9228865Y17410753D01*
X15215854Y17391945D01*
X15563066Y17178222D01*
X15869578Y16934202D01*
X16135704Y16620422D01*
X16329750Y16280508D01*
X16413765Y16007269D01*
X16457480Y15733889D01*
X17921111Y15733889D01*
X105833333Y15733889D01*
X105833333Y25599406D01*
X16148337Y25599406D01*
X16095849Y25541138D01*
X16093876Y25541111D01*
X16029879Y25593748D01*
X15897134Y25738399D01*
X15712859Y25955176D01*
X15494273Y26224191D01*
X15406672Y26334861D01*
X14873274Y26992890D01*
X14299507Y27663667D01*
X13701618Y28330475D01*
X13095856Y28976596D01*
X12498470Y29585314D01*
X11925708Y30139911D01*
X11393820Y30623671D01*
X10919053Y31019876D01*
X10672084Y31205964D01*
X9755156Y31779470D01*
X8794930Y32219363D01*
X7793899Y32524670D01*
X6894384Y32679753D01*
X6262603Y32715584D01*
X5529232Y32695359D01*
X4720542Y32622712D01*
X3862810Y32501273D01*
X2982310Y32334674D01*
X2105317Y32126548D01*
X1371519Y31916360D01*
X911330Y31777487D01*
X549143Y31684964D01*
X249996Y31637890D01*
X-21075Y31635358D01*
X-299030Y31676467D01*
X-618833Y31760311D01*
X-926477Y31856957D01*
X-1548200Y32039255D01*
X-2264558Y32216775D01*
X-3029150Y32380142D01*
X-3795576Y32519976D01*
X-4517435Y32626900D01*
X-4995205Y32679283D01*
X-6070677Y32713675D01*
X-7093931Y32619794D01*
X-8071832Y32395394D01*
X-9011243Y32038224D01*
X-9919026Y31546038D01*
X-10802044Y30916586D01*
X-11080910Y30685453D01*
X-11925753Y29925025D01*
X-12762619Y29096722D01*
X-13607990Y28183014D01*
X-14478346Y27166372D01*
X-15036679Y26478008D01*
X-15374630Y26063737D01*
X-15635075Y25767370D01*
X-15818217Y25589025D01*
X-15924257Y25528817D01*
X-15953395Y25586864D01*
X-15905834Y25763282D01*
X-15781775Y26058186D01*
X-15581419Y26471695D01*
X-15454386Y26719701D01*
X-14688593Y28073101D01*
X-13863069Y29298931D01*
X-12977894Y30397107D01*
X-12033150Y31367549D01*
X-11028919Y32210175D01*
X-9965283Y32924901D01*
X-8842323Y33511646D01*
X-8572500Y33629822D01*
X-7430672Y34053729D01*
X-6171397Y34410907D01*
X-4802601Y34699383D01*
X-3457222Y34901934D01*
X-3055909Y34940599D01*
X-2540573Y34972920D01*
X-1935427Y34998768D01*
X-1264685Y35018017D01*
X-552560Y35030539D01*
X176737Y35036207D01*
X898990Y35034893D01*
X1589989Y35026472D01*
X2225519Y35010814D01*
X2781368Y34987793D01*
X3233322Y34957282D01*
X3421945Y34938092D01*
X4616713Y34774655D01*
X5695669Y34581389D01*
X6682132Y34352002D01*
X7599424Y34080205D01*
X8470865Y33759709D01*
X9319777Y33384224D01*
X9489722Y33301572D01*
X10585990Y32682076D01*
X11622612Y31935518D01*
X12597501Y31063674D01*
X13508571Y30068321D01*
X13962983Y29493794D01*
X14290079Y29043352D01*
X14613172Y28569141D01*
X14924717Y28085158D01*
X15217168Y27605400D01*
X15482979Y27143864D01*
X15714605Y26714546D01*
X15904499Y26331445D01*
X16045117Y26008556D01*
X16128911Y25759878D01*
X16148337Y25599406D01*
X105833333Y25599406D01*
X105833333Y105833333D01*
X-105833333Y105833333D01*
X-105833333Y-105833333D01*
%TD*%
M02*
