%TF.GenerationSoftware,KiCad,Pcbnew,5.1.6-c6e7f7d~87~ubuntu19.10.1*%
%TF.CreationDate,2020-12-10T17:19:22-08:00*%
%TF.ProjectId,2021-xmas-tree,32303231-2d78-46d6-9173-2d747265652e,rev?*%
%TF.SameCoordinates,Original*%
%TF.FileFunction,Profile,NP*%
%FSLAX46Y46*%
G04 Gerber Fmt 4.6, Leading zero omitted, Abs format (unit mm)*
G04 Created by KiCad (PCBNEW 5.1.6-c6e7f7d~87~ubuntu19.10.1) date 2020-12-10 17:19:22*
%MOMM*%
%LPD*%
G01*
G04 APERTURE LIST*
%TA.AperFunction,Profile*%
%ADD10C,0.200000*%
%TD*%
G04 APERTURE END LIST*
D10*
X47554422Y77D02*
X54363056Y0D01*
X47554422Y3849658D02*
X47554422Y77D01*
X47554422Y7699237D02*
X47554422Y3849658D01*
X47475047Y7641063D02*
X47554422Y7699237D01*
X44743219Y7602437D02*
X44718745Y7390770D01*
X44570139Y7445261D02*
X44743219Y7602437D01*
X45517141Y6597613D02*
X45764420Y6685945D01*
X45764420Y6685945D02*
X46009585Y6785566D01*
X46009585Y6785566D02*
X46192488Y6867912D01*
X46192488Y6867912D02*
X46374886Y6956972D01*
X46374886Y6956972D02*
X46557070Y7052901D01*
X46557070Y7052901D02*
X46739335Y7155857D01*
X46739335Y7155857D02*
X46921971Y7265995D01*
X46921971Y7265995D02*
X47105274Y7383471D01*
X47105274Y7383471D02*
X47289534Y7508442D01*
X47289534Y7508442D02*
X47475047Y7641063D01*
X44422954Y6331492D02*
X44652478Y6365746D01*
X44652478Y6365746D02*
X44848109Y6410992D01*
X44848109Y6410992D02*
X45067556Y6466699D01*
X45067556Y6466699D02*
X45287071Y6527090D01*
X45287071Y6527090D02*
X45482905Y6586391D01*
X45482905Y6586391D02*
X45517141Y6597613D01*
X44553920Y6759273D02*
X44488300Y6558621D01*
X44488300Y6558621D02*
X44428289Y6359802D01*
X44428289Y6359802D02*
X44422954Y6331492D01*
X44718745Y7390770D02*
X44676146Y7180647D01*
X44676146Y7180647D02*
X44623641Y6984609D01*
X44623641Y6984609D02*
X44561146Y6781069D01*
X44561146Y6781069D02*
X44553920Y6759273D01*
X41600184Y5609243D02*
X41775317Y5609243D01*
X41584017Y5882645D02*
X41600184Y5609243D01*
X44044277Y6961677D02*
X44194912Y7100819D01*
X44194912Y7100819D02*
X44344270Y7238375D01*
X44344270Y7238375D02*
X44502886Y7383917D01*
X44502886Y7383917D02*
X44570139Y7445261D01*
X41775317Y5609243D02*
X41986911Y5630519D01*
X41986911Y5630519D02*
X42219501Y5694267D01*
X42219501Y5694267D02*
X42407596Y5769874D01*
X42407596Y5769874D02*
X42607297Y5869249D01*
X42607297Y5869249D02*
X42818514Y5992338D01*
X42818514Y5992338D02*
X43041160Y6139090D01*
X43041160Y6139090D02*
X43275147Y6309453D01*
X43275147Y6309453D02*
X43437396Y6436118D01*
X43437396Y6436118D02*
X43604620Y6573239D01*
X43604620Y6573239D02*
X43776794Y6720798D01*
X43776794Y6720798D02*
X43953890Y6878781D01*
X43953890Y6878781D02*
X44044277Y6961677D01*
X37986766Y11201342D02*
X37932442Y11059946D01*
X37240588Y10830639D02*
X37986766Y11201342D01*
X41581028Y10466337D02*
X41567745Y10266153D01*
X41567745Y10266153D02*
X41560476Y10064620D01*
X41560476Y10064620D02*
X41554471Y9817272D01*
X41554471Y9817272D02*
X41549725Y9531521D01*
X41549725Y9531521D02*
X41546232Y9214780D01*
X41546232Y9214780D02*
X41543988Y8874461D01*
X41543988Y8874461D02*
X41542988Y8517978D01*
X41542988Y8517978D02*
X41543228Y8152741D01*
X41543228Y8152741D02*
X41544701Y7786163D01*
X41544701Y7786163D02*
X41547403Y7425657D01*
X41547403Y7425657D02*
X41551330Y7078635D01*
X41551330Y7078635D02*
X41556475Y6752509D01*
X41556475Y6752509D02*
X41562836Y6454692D01*
X41562836Y6454692D02*
X41570405Y6192597D01*
X41570405Y6192597D02*
X41579179Y5973634D01*
X41579179Y5973634D02*
X41584017Y5882645D01*
X41576397Y10732384D02*
X41586650Y10519298D01*
X41586650Y10519298D02*
X41581028Y10466337D01*
X41010417Y10266556D02*
X41168988Y10399009D01*
X41168988Y10399009D02*
X41333845Y10535827D01*
X41333845Y10535827D02*
X41494776Y10667945D01*
X41494776Y10667945D02*
X41576397Y10732384D01*
X37994167Y8708845D02*
X38274687Y8748800D01*
X38274687Y8748800D02*
X38543041Y8804178D01*
X38543041Y8804178D02*
X38803602Y8877239D01*
X38803602Y8877239D02*
X39060741Y8970240D01*
X39060741Y8970240D02*
X39318833Y9085440D01*
X39318833Y9085440D02*
X39582250Y9225096D01*
X39582250Y9225096D02*
X39762978Y9332903D01*
X39762978Y9332903D02*
X39949312Y9453252D01*
X39949312Y9453252D02*
X40142548Y9586813D01*
X40142548Y9586813D02*
X40343981Y9734255D01*
X40343981Y9734255D02*
X40554906Y9896246D01*
X40554906Y9896246D02*
X40776619Y10073457D01*
X40776619Y10073457D02*
X41010417Y10266556D01*
X36984715Y8758883D02*
X37212008Y8713043D01*
X37212008Y8713043D02*
X37431978Y8698548D01*
X37431978Y8698548D02*
X37632934Y8693825D01*
X37632934Y8693825D02*
X37863625Y8698553D01*
X37863625Y8698553D02*
X37994167Y8708845D01*
X37527100Y10160077D02*
X37435430Y9959310D01*
X37435430Y9959310D02*
X37349364Y9765561D01*
X37349364Y9765561D02*
X37269886Y9581371D01*
X37269886Y9581371D02*
X37175862Y9355046D01*
X37175862Y9355046D02*
X37097630Y9156257D01*
X37097630Y9156257D02*
X37025600Y8955672D01*
X37025600Y8955672D02*
X36984715Y8758883D01*
X37932442Y11059946D02*
X37841963Y10851039D01*
X37841963Y10851039D02*
X37747603Y10641323D01*
X37747603Y10641323D02*
X37650780Y10428786D01*
X37650780Y10428786D02*
X37563139Y10238074D01*
X37563139Y10238074D02*
X37527100Y10160077D01*
X31462020Y15649588D02*
X31297330Y15508396D01*
X31085663Y15569917D02*
X31462020Y15649588D01*
X34433830Y9890871D02*
X34636874Y9910680D01*
X34636874Y9910680D02*
X34852560Y9944689D01*
X34852560Y9944689D02*
X35080817Y9992874D01*
X35080817Y9992874D02*
X35321570Y10055210D01*
X35321570Y10055210D02*
X35574747Y10131674D01*
X35574747Y10131674D02*
X35840276Y10222240D01*
X35840276Y10222240D02*
X36118084Y10326885D01*
X36118084Y10326885D02*
X36310075Y10404458D01*
X36310075Y10404458D02*
X36507469Y10488269D01*
X36507469Y10488269D02*
X36710244Y10578313D01*
X36710244Y10578313D02*
X36918380Y10674581D01*
X36918380Y10674581D02*
X37131855Y10777066D01*
X37131855Y10777066D02*
X37240588Y10830639D01*
X31880810Y10458707D02*
X32075142Y10382300D01*
X32075142Y10382300D02*
X32264738Y10311371D01*
X32264738Y10311371D02*
X32540298Y10215238D01*
X32540298Y10215238D02*
X32805324Y10131404D01*
X32805324Y10131404D02*
X33059886Y10059852D01*
X33059886Y10059852D02*
X33304058Y10000567D01*
X33304058Y10000567D02*
X33537913Y9953531D01*
X33537913Y9953531D02*
X33761522Y9918729D01*
X33761522Y9918729D02*
X33974960Y9896145D01*
X33974960Y9896145D02*
X34178298Y9885762D01*
X34178298Y9885762D02*
X34433830Y9890871D01*
X31303262Y10700888D02*
X31499742Y10614584D01*
X31499742Y10614584D02*
X31687383Y10537130D01*
X31687383Y10537130D02*
X31880810Y10458707D01*
X31567636Y11011945D02*
X31424711Y10857072D01*
X31424711Y10857072D02*
X31303262Y10700888D01*
X32765909Y12413300D02*
X32619956Y12228728D01*
X32619956Y12228728D02*
X32468196Y12041330D01*
X32468196Y12041330D02*
X32312984Y11853863D01*
X32312984Y11853863D02*
X32156677Y11669082D01*
X32156677Y11669082D02*
X32001632Y11489743D01*
X32001632Y11489743D02*
X31850205Y11318603D01*
X31850205Y11318603D02*
X31704754Y11158418D01*
X31704754Y11158418D02*
X31567636Y11011945D01*
X33639588Y13663292D02*
X33528200Y13479571D01*
X33528200Y13479571D02*
X33393356Y13279670D01*
X33393356Y13279670D02*
X33263723Y13093186D01*
X33263723Y13093186D02*
X33124514Y12897060D01*
X33124514Y12897060D02*
X32984744Y12704192D01*
X32984744Y12704192D02*
X32853427Y12527477D01*
X32853427Y12527477D02*
X32765909Y12413300D01*
X33030617Y13709161D02*
X33246993Y13709738D01*
X33246993Y13709738D02*
X33458523Y13706932D01*
X33458523Y13706932D02*
X33639588Y13663292D01*
X31775834Y13943177D02*
X31976297Y13844735D01*
X31976297Y13844735D02*
X32191487Y13768987D01*
X32191487Y13768987D02*
X32393341Y13731342D01*
X32393341Y13731342D02*
X32596148Y13715045D01*
X32596148Y13715045D02*
X32848446Y13709086D01*
X32848446Y13709086D02*
X33030617Y13709161D01*
X30990093Y14657798D02*
X31129236Y14481655D01*
X31129236Y14481655D02*
X31275337Y14328374D01*
X31275337Y14328374D02*
X31434906Y14183247D01*
X31434906Y14183247D02*
X31597239Y14056012D01*
X31597239Y14056012D02*
X31775834Y13943177D01*
X30774778Y14836259D02*
X30942282Y14725279D01*
X30942282Y14725279D02*
X30990093Y14657798D01*
X30672580Y14854357D02*
X30774778Y14836259D01*
X31297330Y15508396D02*
X31146937Y15375212D01*
X31146937Y15375212D02*
X30977555Y15215139D01*
X30977555Y15215139D02*
X30833262Y15068395D01*
X30833262Y15068395D02*
X30693960Y14904772D01*
X30693960Y14904772D02*
X30672580Y14854357D01*
X26497349Y16273354D02*
X26610133Y16167525D01*
X26652000Y16474333D02*
X26497349Y16273354D01*
X27659425Y15583437D02*
X27908929Y15511158D01*
X27908929Y15511158D02*
X28179238Y15453548D01*
X28179238Y15453548D02*
X28468285Y15410614D01*
X28468285Y15410614D02*
X28670373Y15390150D01*
X28670373Y15390150D02*
X28879258Y15376214D01*
X28879258Y15376214D02*
X29094329Y15368810D01*
X29094329Y15368810D02*
X29314973Y15367940D01*
X29314973Y15367940D02*
X29540579Y15373606D01*
X29540579Y15373606D02*
X29770533Y15385810D01*
X29770533Y15385810D02*
X30004224Y15404555D01*
X30004224Y15404555D02*
X30241040Y15429843D01*
X30241040Y15429843D02*
X30480368Y15461678D01*
X30480368Y15461678D02*
X30721596Y15500060D01*
X30721596Y15500060D02*
X30964113Y15544993D01*
X30964113Y15544993D02*
X31085663Y15569917D01*
X26610133Y16167525D02*
X26790741Y16018204D01*
X26790741Y16018204D02*
X26970477Y15898083D01*
X26970477Y15898083D02*
X27170343Y15786828D01*
X27170343Y15786828D02*
X27387606Y15685960D01*
X27387606Y15685960D02*
X27579978Y15610935D01*
X27579978Y15610935D02*
X27659425Y15583437D01*
X12416295Y15979735D02*
X12507887Y15944913D01*
X12540580Y16226531D02*
X12416295Y15979735D01*
X27693056Y17403876D02*
X27495648Y17255794D01*
X27495648Y17255794D02*
X27323022Y17121788D01*
X27323022Y17121788D02*
X27137853Y16970292D01*
X27137853Y16970292D02*
X26981631Y16832062D01*
X26981631Y16832062D02*
X26824732Y16676872D01*
X26824732Y16676872D02*
X26692318Y16525429D01*
X26692318Y16525429D02*
X26652000Y16474333D01*
X28718563Y18314212D02*
X28567702Y18139987D01*
X28567702Y18139987D02*
X28418348Y17998644D01*
X28418348Y17998644D02*
X28236521Y17838210D01*
X28236521Y17838210D02*
X28075288Y17702874D01*
X28075288Y17702874D02*
X27906317Y17566899D01*
X27906317Y17566899D02*
X27735407Y17435434D01*
X27735407Y17435434D02*
X27693056Y17403876D01*
X28089109Y17958956D02*
X28283593Y18078845D01*
X28283593Y18078845D02*
X28477513Y18194198D01*
X28477513Y18194198D02*
X28653355Y18291689D01*
X28653355Y18291689D02*
X28718563Y18314212D01*
X20250670Y14672934D02*
X20649331Y14727523D01*
X20649331Y14727523D02*
X20853445Y14762450D01*
X20853445Y14762450D02*
X21060729Y14802457D01*
X21060729Y14802457D02*
X21271167Y14847537D01*
X21271167Y14847537D02*
X21484743Y14897684D01*
X21484743Y14897684D02*
X21701442Y14952892D01*
X21701442Y14952892D02*
X21921248Y15013154D01*
X21921248Y15013154D02*
X22144147Y15078463D01*
X22144147Y15078463D02*
X22370124Y15148813D01*
X22370124Y15148813D02*
X22599162Y15224199D01*
X22599162Y15224199D02*
X22831246Y15304612D01*
X22831246Y15304612D02*
X23066362Y15390048D01*
X23066362Y15390048D02*
X23304493Y15480499D01*
X23304493Y15480499D02*
X23545625Y15575959D01*
X23545625Y15575959D02*
X23789743Y15676422D01*
X23789743Y15676422D02*
X24036830Y15781881D01*
X24036830Y15781881D02*
X24286871Y15892330D01*
X24286871Y15892330D02*
X24539852Y16007763D01*
X24539852Y16007763D02*
X24795757Y16128172D01*
X24795757Y16128172D02*
X25054571Y16253552D01*
X25054571Y16253552D02*
X25316278Y16383897D01*
X25316278Y16383897D02*
X25580863Y16519199D01*
X25580863Y16519199D02*
X25848310Y16659452D01*
X25848310Y16659452D02*
X26118605Y16804650D01*
X26118605Y16804650D02*
X26391732Y16954787D01*
X26391732Y16954787D02*
X26667676Y17109856D01*
X26667676Y17109856D02*
X26946421Y17269850D01*
X26946421Y17269850D02*
X27227952Y17434764D01*
X27227952Y17434764D02*
X27512254Y17604590D01*
X27512254Y17604590D02*
X27799311Y17779323D01*
X27799311Y17779323D02*
X28089109Y17958956D01*
X18697223Y14710402D02*
X18915829Y14679007D01*
X18915829Y14679007D02*
X19157528Y14660618D01*
X19157528Y14660618D02*
X19373997Y14651378D01*
X19373997Y14651378D02*
X19598795Y14647296D01*
X19598795Y14647296D02*
X19820650Y14648643D01*
X19820650Y14648643D02*
X20028288Y14655691D01*
X20028288Y14655691D02*
X20250670Y14672934D01*
X18026945Y14935689D02*
X18221306Y14836399D01*
X18221306Y14836399D02*
X18434117Y14773362D01*
X18434117Y14773362D02*
X18662271Y14718037D01*
X18662271Y14718037D02*
X18697223Y14710402D01*
X18577576Y15946699D02*
X18466965Y15751801D01*
X18466965Y15751801D02*
X18363776Y15568188D01*
X18363776Y15568188D02*
X18248665Y15360857D01*
X18248665Y15360857D02*
X18136705Y15155289D01*
X18136705Y15155289D02*
X18044358Y14977537D01*
X18044358Y14977537D02*
X18026945Y14935689D01*
X19145184Y16956545D02*
X19041337Y16766358D01*
X19041337Y16766358D02*
X18931195Y16570129D01*
X18931195Y16570129D02*
X18817429Y16368745D01*
X18817429Y16368745D02*
X18715304Y16188681D01*
X18715304Y16188681D02*
X18605822Y15996252D01*
X18605822Y15996252D02*
X18577576Y15946699D01*
X18867956Y16808048D02*
X19040310Y16914357D01*
X19040310Y16914357D02*
X19145184Y16956545D01*
X15892640Y15676679D02*
X16101183Y15717090D01*
X16101183Y15717090D02*
X16307993Y15762028D01*
X16307993Y15762028D02*
X16512795Y15811387D01*
X16512795Y15811387D02*
X16715316Y15865063D01*
X16715316Y15865063D02*
X16915281Y15922953D01*
X16915281Y15922953D02*
X17112417Y15984951D01*
X17112417Y15984951D02*
X17306451Y16050955D01*
X17306451Y16050955D02*
X17497107Y16120860D01*
X17497107Y16120860D02*
X17684114Y16194562D01*
X17684114Y16194562D02*
X17957180Y16312007D01*
X17957180Y16312007D02*
X18220494Y16437409D01*
X18220494Y16437409D02*
X18473130Y16570418D01*
X18473130Y16570418D02*
X18714166Y16710681D01*
X18714166Y16710681D02*
X18867956Y16808048D01*
X13546667Y15673133D02*
X13765022Y15643842D01*
X13765022Y15643842D02*
X13970862Y15627492D01*
X13970862Y15627492D02*
X14203154Y15615942D01*
X14203154Y15615942D02*
X14453249Y15609179D01*
X14453249Y15609179D02*
X14712496Y15607191D01*
X14712496Y15607191D02*
X14972246Y15609964D01*
X14972246Y15609964D02*
X15223850Y15617485D01*
X15223850Y15617485D02*
X15458658Y15629741D01*
X15458658Y15629741D02*
X15668021Y15646719D01*
X15668021Y15646719D02*
X15892640Y15676679D01*
X12507887Y15944913D02*
X12710633Y15878432D01*
X12710633Y15878432D02*
X12911742Y15821617D01*
X12911742Y15821617D02*
X13131908Y15764854D01*
X13131908Y15764854D02*
X13350445Y15713555D01*
X13350445Y15713555D02*
X13546667Y15673133D01*
X13094689Y17438436D02*
X12985703Y17222533D01*
X12976720Y17359635D02*
X13094689Y17438436D01*
X12770790Y16739978D02*
X12690371Y16548858D01*
X12690371Y16548858D02*
X12604825Y16359678D01*
X12604825Y16359678D02*
X12540580Y16226531D01*
X12985703Y17222533D02*
X12899486Y17040415D01*
X12899486Y17040415D02*
X12813755Y16844575D01*
X12813755Y16844575D02*
X12770790Y16739978D01*
X14699841Y40946787D02*
X14862028Y40864361D01*
X14922008Y40966922D02*
X14699841Y40946787D01*
X11624028Y16990348D02*
X11828165Y16994296D01*
X11828165Y16994296D02*
X12063243Y17014550D01*
X12063243Y17014550D02*
X12280060Y17052936D01*
X12280060Y17052936D02*
X12482971Y17110642D01*
X12482971Y17110642D02*
X12676333Y17188858D01*
X12676333Y17188858D02*
X12864500Y17288774D01*
X12864500Y17288774D02*
X12976720Y17359635D01*
X8431389Y18000446D02*
X8667200Y17879172D01*
X8667200Y17879172D02*
X8898231Y17765633D01*
X8898231Y17765633D02*
X9124470Y17659833D01*
X9124470Y17659833D02*
X9345903Y17561775D01*
X9345903Y17561775D02*
X9562521Y17471463D01*
X9562521Y17471463D02*
X9774310Y17388901D01*
X9774310Y17388901D02*
X9981259Y17314092D01*
X9981259Y17314092D02*
X10183356Y17247041D01*
X10183356Y17247041D02*
X10380589Y17187751D01*
X10380589Y17187751D02*
X10667292Y17113376D01*
X10667292Y17113376D02*
X10942984Y17056485D01*
X10942984Y17056485D02*
X11207626Y17017090D01*
X11207626Y17017090D02*
X11461176Y16995205D01*
X11461176Y16995205D02*
X11624028Y16990348D01*
X6563150Y19083689D02*
X6734995Y18969996D01*
X6734995Y18969996D02*
X6955705Y18837528D01*
X6955705Y18837528D02*
X7159674Y18717577D01*
X7159674Y18717577D02*
X7384324Y18587081D01*
X7384324Y18587081D02*
X7618614Y18452439D01*
X7618614Y18452439D02*
X7851505Y18320055D01*
X7851505Y18320055D02*
X8071958Y18196327D01*
X8071958Y18196327D02*
X8268932Y18087657D01*
X8268932Y18087657D02*
X8431389Y18000446D01*
X7083497Y19389550D02*
X6905478Y19290110D01*
X6905478Y19290110D02*
X6716613Y19181502D01*
X6716613Y19181502D02*
X6563150Y19083689D01*
X8343195Y20092051D02*
X8142205Y19979354D01*
X8142205Y19979354D02*
X7927957Y19859489D01*
X7927957Y19859489D02*
X7710540Y19738083D01*
X7710540Y19738083D02*
X7500047Y19620764D01*
X7500047Y19620764D02*
X7306568Y19513160D01*
X7306568Y19513160D02*
X7111062Y19404782D01*
X7111062Y19404782D02*
X7083497Y19389550D01*
X9913056Y20929867D02*
X9731401Y20836632D01*
X9731401Y20836632D02*
X9532703Y20733241D01*
X9532703Y20733241D02*
X9323402Y20623130D01*
X9323402Y20623130D02*
X9109935Y20509736D01*
X9109935Y20509736D02*
X8898742Y20396494D01*
X8898742Y20396494D02*
X8696262Y20286842D01*
X8696262Y20286842D02*
X8508933Y20184215D01*
X8508933Y20184215D02*
X8343195Y20092051D01*
X10670059Y21329756D02*
X10477399Y21221356D01*
X10477399Y21221356D02*
X10298654Y21127865D01*
X10298654Y21127865D02*
X10117333Y21034282D01*
X10117333Y21034282D02*
X9913056Y20929867D01*
X9525001Y21238774D02*
X9757882Y21241709D01*
X9757882Y21241709D02*
X9979175Y21249477D01*
X9979175Y21249477D02*
X10183153Y21261630D01*
X10183153Y21261630D02*
X10397008Y21281375D01*
X10397008Y21281375D02*
X10613431Y21315197D01*
X10613431Y21315197D02*
X10670059Y21329756D01*
X3340148Y22945251D02*
X3656367Y22756813D01*
X3656367Y22756813D02*
X3990389Y22576954D01*
X3990389Y22576954D02*
X4340410Y22406174D01*
X4340410Y22406174D02*
X4704623Y22244970D01*
X4704623Y22244970D02*
X4891487Y22168114D01*
X4891487Y22168114D02*
X5081223Y22093839D01*
X5081223Y22093839D02*
X5273604Y22022208D01*
X5273604Y22022208D02*
X5468404Y21953281D01*
X5468404Y21953281D02*
X5665399Y21887123D01*
X5665399Y21887123D02*
X5864362Y21823794D01*
X5864362Y21823794D02*
X6065068Y21763357D01*
X6065068Y21763357D02*
X6267290Y21705875D01*
X6267290Y21705875D02*
X6470804Y21651410D01*
X6470804Y21651410D02*
X6675383Y21600023D01*
X6675383Y21600023D02*
X6880803Y21551778D01*
X6880803Y21551778D02*
X7086836Y21506736D01*
X7086836Y21506736D02*
X7293258Y21464960D01*
X7293258Y21464960D02*
X7499843Y21426512D01*
X7499843Y21426512D02*
X7706366Y21391454D01*
X7706366Y21391454D02*
X7912599Y21359849D01*
X7912599Y21359849D02*
X8118319Y21331759D01*
X8118319Y21331759D02*
X8323298Y21307246D01*
X8323298Y21307246D02*
X8527312Y21286372D01*
X8527312Y21286372D02*
X8730135Y21269200D01*
X8730135Y21269200D02*
X8931541Y21255792D01*
X8931541Y21255792D02*
X9329199Y21240516D01*
X9329199Y21240516D02*
X9525001Y21238774D01*
X1185303Y25076618D02*
X1324414Y24853615D01*
X1324414Y24853615D02*
X1478318Y24633651D01*
X1478318Y24633651D02*
X1646398Y24417335D01*
X1646398Y24417335D02*
X1828041Y24205275D01*
X1828041Y24205275D02*
X2022631Y23998080D01*
X2022631Y23998080D02*
X2229551Y23796359D01*
X2229551Y23796359D02*
X2448188Y23600720D01*
X2448188Y23600720D02*
X2677925Y23411772D01*
X2677925Y23411772D02*
X2836946Y23289825D01*
X2836946Y23289825D02*
X3000445Y23171302D01*
X3000445Y23171302D02*
X3168240Y23056384D01*
X3168240Y23056384D02*
X3340148Y22945251D01*
X776757Y25991431D02*
X839464Y25795330D01*
X839464Y25795330D02*
X920780Y25604136D01*
X920780Y25604136D02*
X1019041Y25393223D01*
X1019041Y25393223D02*
X1121301Y25191580D01*
X1121301Y25191580D02*
X1185303Y25076618D01*
X3951112Y27181403D02*
X3703830Y27096910D01*
X3703830Y27096910D02*
X3469341Y27016684D01*
X3469341Y27016684D02*
X3247320Y26940602D01*
X3247320Y26940602D02*
X3037443Y26868544D01*
X3037443Y26868544D02*
X2839387Y26800387D01*
X2839387Y26800387D02*
X2477441Y26675292D01*
X2477441Y26675292D02*
X2158890Y26564348D01*
X2158890Y26564348D02*
X1881145Y26466583D01*
X1881145Y26466583D02*
X1641615Y26381026D01*
X1641615Y26381026D02*
X1437709Y26306706D01*
X1437709Y26306706D02*
X1192979Y26214170D01*
X1192979Y26214170D02*
X967178Y26121053D01*
X967178Y26121053D02*
X790238Y26019515D01*
X790238Y26019515D02*
X776757Y25991431D01*
X8413751Y28758436D02*
X8190974Y28675166D01*
X8190974Y28675166D02*
X7968725Y28592689D01*
X7968725Y28592689D02*
X7745288Y28510397D01*
X7745288Y28510397D02*
X7518945Y28427685D01*
X7518945Y28427685D02*
X7287978Y28343944D01*
X7287978Y28343944D02*
X7050672Y28258569D01*
X7050672Y28258569D02*
X6805308Y28170952D01*
X6805308Y28170952D02*
X6550169Y28080487D01*
X6550169Y28080487D02*
X6283539Y27986566D01*
X6283539Y27986566D02*
X6003699Y27888584D01*
X6003699Y27888584D02*
X5708933Y27785932D01*
X5708933Y27785932D02*
X5397524Y27678005D01*
X5397524Y27678005D02*
X5067755Y27564195D01*
X5067755Y27564195D02*
X4717908Y27443896D01*
X4717908Y27443896D02*
X4346266Y27316501D01*
X4346266Y27316501D02*
X4151735Y27249953D01*
X4151735Y27249953D02*
X3951112Y27181403D01*
X24350991Y37563166D02*
X24014966Y37261207D01*
X24014966Y37261207D02*
X23669188Y36961364D01*
X23669188Y36961364D02*
X23313584Y36663598D01*
X23313584Y36663598D02*
X22948087Y36367870D01*
X22948087Y36367870D02*
X22572625Y36074141D01*
X22572625Y36074141D02*
X22187129Y35782373D01*
X22187129Y35782373D02*
X21791530Y35492528D01*
X21791530Y35492528D02*
X21385757Y35204567D01*
X21385757Y35204567D02*
X20969741Y34918451D01*
X20969741Y34918451D02*
X20543411Y34634142D01*
X20543411Y34634142D02*
X20106700Y34351601D01*
X20106700Y34351601D02*
X19659535Y34070789D01*
X19659535Y34070789D02*
X19201848Y33791669D01*
X19201848Y33791669D02*
X18733569Y33514202D01*
X18733569Y33514202D02*
X18254629Y33238349D01*
X18254629Y33238349D02*
X17764956Y32964071D01*
X17764956Y32964071D02*
X17264482Y32691330D01*
X17264482Y32691330D02*
X16753137Y32420087D01*
X16753137Y32420087D02*
X16230851Y32150304D01*
X16230851Y32150304D02*
X15697554Y31881943D01*
X15697554Y31881943D02*
X15153176Y31614964D01*
X15153176Y31614964D02*
X14597649Y31349330D01*
X14597649Y31349330D02*
X14030901Y31085001D01*
X14030901Y31085001D02*
X13452863Y30821940D01*
X13452863Y30821940D02*
X12863465Y30560106D01*
X12863465Y30560106D02*
X12262638Y30299463D01*
X12262638Y30299463D02*
X11650312Y30039972D01*
X11650312Y30039972D02*
X11026417Y29781593D01*
X11026417Y29781593D02*
X10390883Y29524288D01*
X10390883Y29524288D02*
X9743640Y29268020D01*
X9743640Y29268020D02*
X9084619Y29012748D01*
X9084619Y29012748D02*
X8413751Y28758436D01*
X25537655Y38748851D02*
X25410135Y38594217D01*
X25410135Y38594217D02*
X25237088Y38415395D01*
X25237088Y38415395D02*
X25062784Y38241236D01*
X25062784Y38241236D02*
X24917627Y38098960D01*
X24917627Y38098960D02*
X24764740Y37951327D01*
X24764740Y37951327D02*
X24608296Y37802508D01*
X24608296Y37802508D02*
X24452470Y37656672D01*
X24452470Y37656672D02*
X24350991Y37563166D01*
X25258890Y38710952D02*
X25459186Y38744207D01*
X25459186Y38744207D02*
X25537655Y38748851D01*
X24200556Y38641290D02*
X24413801Y38647723D01*
X24413801Y38647723D02*
X24618697Y38656423D01*
X24618697Y38656423D02*
X24844542Y38669263D01*
X24844542Y38669263D02*
X25066437Y38686628D01*
X25066437Y38686628D02*
X25258890Y38710952D01*
X21878953Y38819757D02*
X22103102Y38780025D01*
X22103102Y38780025D02*
X22319904Y38745514D01*
X22319904Y38745514D02*
X22531437Y38716063D01*
X22531437Y38716063D02*
X22739778Y38691513D01*
X22739778Y38691513D02*
X22947005Y38671703D01*
X22947005Y38671703D02*
X23155197Y38656475D01*
X23155197Y38656475D02*
X23366430Y38645668D01*
X23366430Y38645668D02*
X23582783Y38639123D01*
X23582783Y38639123D02*
X23806334Y38636679D01*
X23806334Y38636679D02*
X24039159Y38638179D01*
X24039159Y38638179D02*
X24200556Y38641290D01*
X20566945Y39158257D02*
X20766217Y39082483D01*
X20766217Y39082483D02*
X20978926Y39023728D01*
X20978926Y39023728D02*
X21181247Y38972414D01*
X21181247Y38972414D02*
X21398698Y38920741D01*
X21398698Y38920741D02*
X21618858Y38871912D01*
X21618858Y38871912D02*
X21829311Y38829131D01*
X21829311Y38829131D02*
X21878953Y38819757D01*
X20699237Y39272229D02*
X20566945Y39158257D01*
X22916001Y41160285D02*
X22755588Y40992999D01*
X22755588Y40992999D02*
X22565501Y40821075D01*
X22565501Y40821075D02*
X22409717Y40683674D01*
X22409717Y40683674D02*
X22236613Y40533094D01*
X22236613Y40533094D02*
X22051266Y40373658D01*
X22051266Y40373658D02*
X21858756Y40209694D01*
X21858756Y40209694D02*
X21664162Y40045527D01*
X21664162Y40045527D02*
X21472561Y39885481D01*
X21472561Y39885481D02*
X21289033Y39733885D01*
X21289033Y39733885D02*
X21118657Y39595062D01*
X21118657Y39595062D02*
X20898863Y39420241D01*
X20898863Y39420241D02*
X20737228Y39298493D01*
X20737228Y39298493D02*
X20699237Y39272229D01*
X22341230Y40875294D02*
X22533374Y40977977D01*
X22533374Y40977977D02*
X22719952Y41073876D01*
X22719952Y41073876D02*
X22906883Y41159448D01*
X22906883Y41159448D02*
X22916001Y41160285D01*
X19050001Y39873394D02*
X19269552Y39882321D01*
X19269552Y39882321D02*
X19479328Y39895993D01*
X19479328Y39895993D02*
X19681027Y39914927D01*
X19681027Y39914927D02*
X19972149Y39954328D01*
X19972149Y39954328D02*
X20254656Y40008478D01*
X20254656Y40008478D02*
X20534282Y40079123D01*
X20534282Y40079123D02*
X20816762Y40168010D01*
X20816762Y40168010D02*
X21009499Y40238264D01*
X21009499Y40238264D02*
X21207752Y40317918D01*
X21207752Y40317918D02*
X21413221Y40407489D01*
X21413221Y40407489D02*
X21627604Y40507495D01*
X21627604Y40507495D02*
X21852600Y40618453D01*
X21852600Y40618453D02*
X22089909Y40740880D01*
X22089909Y40740880D02*
X22341230Y40875294D01*
X16268483Y40304746D02*
X16460510Y40244257D01*
X16460510Y40244257D02*
X16739230Y40162646D01*
X16739230Y40162646D02*
X17008463Y40091720D01*
X17008463Y40091720D02*
X17270118Y40031182D01*
X17270118Y40031182D02*
X17526105Y39980735D01*
X17526105Y39980735D02*
X17778337Y39940084D01*
X17778337Y39940084D02*
X18028721Y39908932D01*
X18028721Y39908932D02*
X18279169Y39886983D01*
X18279169Y39886983D02*
X18531592Y39873942D01*
X18531592Y39873942D02*
X18787899Y39869510D01*
X18787899Y39869510D02*
X19050001Y39873394D01*
X14862028Y40864361D02*
X15059494Y40771842D01*
X15059494Y40771842D02*
X15274049Y40679766D01*
X15274049Y40679766D02*
X15465963Y40601260D01*
X15465963Y40601260D02*
X15666298Y40522264D01*
X15666298Y40522264D02*
X15866196Y40446303D01*
X15866196Y40446303D02*
X16056798Y40376902D01*
X16056798Y40376902D02*
X16268483Y40304746D01*
X17048614Y42397333D02*
X16894012Y42309518D01*
X16823404Y42421172D02*
X17048614Y42397333D01*
X16039812Y41602467D02*
X15874090Y41452496D01*
X15874090Y41452496D02*
X15684111Y41297195D01*
X15684111Y41297195D02*
X15508664Y41175044D01*
X15508664Y41175044D02*
X15310443Y41068315D01*
X15310443Y41068315D02*
X15117700Y41000538D01*
X15117700Y41000538D02*
X14922008Y40966922D01*
X16894012Y42309518D02*
X16722950Y42199558D01*
X16722950Y42199558D02*
X16545486Y42059999D01*
X16545486Y42059999D02*
X16377711Y41913791D01*
X16377711Y41913791D02*
X16204927Y41756254D01*
X16204927Y41756254D02*
X16039812Y41602467D01*
X7955139Y47519164D02*
X7832421Y47412891D01*
X7584722Y47492759D02*
X7955139Y47519164D01*
X15858987Y42406858D02*
X16088346Y42417095D01*
X16088346Y42417095D02*
X16310141Y42424068D01*
X16310141Y42424068D02*
X16511019Y42427577D01*
X16511019Y42427577D02*
X16723246Y42426522D01*
X16723246Y42426522D02*
X16823404Y42421172D01*
X13335001Y42513893D02*
X13558429Y42463465D01*
X13558429Y42463465D02*
X13791664Y42424322D01*
X13791664Y42424322D02*
X14042955Y42396114D01*
X14042955Y42396114D02*
X14248236Y42381924D01*
X14248236Y42381924D02*
X14471794Y42373541D01*
X14471794Y42373541D02*
X14717109Y42370816D01*
X14717109Y42370816D02*
X14987662Y42373603D01*
X14987662Y42373603D02*
X15286933Y42381754D01*
X15286933Y42381754D02*
X15504119Y42390095D01*
X15504119Y42390095D02*
X15736647Y42400710D01*
X15736647Y42400710D02*
X15858987Y42406858D01*
X12289566Y42990746D02*
X12468577Y42881453D01*
X12468577Y42881453D02*
X12669488Y42774928D01*
X12669488Y42774928D02*
X12879653Y42676939D01*
X12879653Y42676939D02*
X13086429Y42593254D01*
X13086429Y42593254D02*
X13277169Y42529640D01*
X13277169Y42529640D02*
X13335001Y42513893D01*
X11712223Y43492767D02*
X11861348Y43333055D01*
X11861348Y43333055D02*
X12018233Y43197490D01*
X12018233Y43197490D02*
X12184360Y43065806D01*
X12184360Y43065806D02*
X12289566Y42990746D01*
X12420973Y44006497D02*
X12226511Y43884507D01*
X12226511Y43884507D02*
X12043992Y43762421D01*
X12043992Y43762421D02*
X11865929Y43634205D01*
X11865929Y43634205D02*
X11713269Y43497294D01*
X11713269Y43497294D02*
X11712223Y43492767D01*
X12964584Y44439147D02*
X12832805Y44283051D01*
X12832805Y44283051D02*
X12647239Y44151012D01*
X12647239Y44151012D02*
X12454930Y44027222D01*
X12454930Y44027222D02*
X12420973Y44006497D01*
X12336053Y44259979D02*
X12531692Y44316887D01*
X12531692Y44316887D02*
X12729102Y44373682D01*
X12729102Y44373682D02*
X12929359Y44429985D01*
X12929359Y44429985D02*
X12964584Y44439147D01*
X10318751Y43896751D02*
X10565417Y43907769D01*
X10565417Y43907769D02*
X10796167Y43925462D01*
X10796167Y43925462D02*
X11019746Y43951405D01*
X11019746Y43951405D02*
X11244894Y43987172D01*
X11244894Y43987172D02*
X11480357Y44034339D01*
X11480357Y44034339D02*
X11734875Y44094479D01*
X11734875Y44094479D02*
X11943529Y44149045D01*
X11943529Y44149045D02*
X12171508Y44212459D01*
X12171508Y44212459D02*
X12336053Y44259979D01*
X8779380Y44083137D02*
X9014435Y44014306D01*
X9014435Y44014306D02*
X9234749Y43962213D01*
X9234749Y43962213D02*
X9451754Y43925471D01*
X9451754Y43925471D02*
X9676882Y43902698D01*
X9676882Y43902698D02*
X9921568Y43892509D01*
X9921568Y43892509D02*
X10139080Y43892488D01*
X10139080Y43892488D02*
X10318751Y43896751D01*
X6002264Y46662486D02*
X6129842Y46424196D01*
X6129842Y46424196D02*
X6265222Y46194633D01*
X6265222Y46194633D02*
X6408045Y45974130D01*
X6408045Y45974130D02*
X6557954Y45763018D01*
X6557954Y45763018D02*
X6714592Y45561630D01*
X6714592Y45561630D02*
X6877601Y45370298D01*
X6877601Y45370298D02*
X7046622Y45189354D01*
X7046622Y45189354D02*
X7221299Y45019130D01*
X7221299Y45019130D02*
X7401273Y44859958D01*
X7401273Y44859958D02*
X7586187Y44712172D01*
X7586187Y44712172D02*
X7775683Y44576102D01*
X7775683Y44576102D02*
X7969404Y44452082D01*
X7969404Y44452082D02*
X8166992Y44340443D01*
X8166992Y44340443D02*
X8368089Y44241517D01*
X8368089Y44241517D02*
X8572337Y44155638D01*
X8572337Y44155638D02*
X8779380Y44083137D01*
X5988337Y46844178D02*
X6002264Y46662486D01*
X6885817Y47077326D02*
X6677722Y47034715D01*
X6677722Y47034715D02*
X6457844Y46985736D01*
X6457844Y46985736D02*
X6246405Y46932589D01*
X6246405Y46932589D02*
X6053541Y46872565D01*
X6053541Y46872565D02*
X5988337Y46844178D01*
X7832421Y47412891D02*
X7648075Y47293343D01*
X7648075Y47293343D02*
X7440517Y47211881D01*
X7440517Y47211881D02*
X7236922Y47154489D01*
X7236922Y47154489D02*
X7029202Y47106721D01*
X7029202Y47106721D02*
X6885817Y47077326D01*
X1005416Y52722743D02*
X956744Y52511076D01*
X2698750Y52745973D02*
X1005416Y52722743D01*
X5291666Y47514375D02*
X5545889Y47493945D01*
X5545889Y47493945D02*
X5745843Y47484446D01*
X5745843Y47484446D02*
X5971421Y47477110D01*
X5971421Y47477110D02*
X6214489Y47472015D01*
X6214489Y47472015D02*
X6466913Y47469235D01*
X6466913Y47469235D02*
X6720562Y47468848D01*
X6720562Y47468848D02*
X6967300Y47470930D01*
X6967300Y47470930D02*
X7198995Y47475558D01*
X7198995Y47475558D02*
X7407513Y47482809D01*
X7407513Y47482809D02*
X7584722Y47492759D01*
X4495819Y47643568D02*
X4716508Y47602407D01*
X4716508Y47602407D02*
X4932082Y47566174D01*
X4932082Y47566174D02*
X5138719Y47534692D01*
X5138719Y47534692D02*
X5291666Y47514375D01*
X996674Y50545899D02*
X1083186Y50264506D01*
X1083186Y50264506D02*
X1187846Y49996012D01*
X1187846Y49996012D02*
X1310540Y49740511D01*
X1310540Y49740511D02*
X1451158Y49498096D01*
X1451158Y49498096D02*
X1609587Y49268858D01*
X1609587Y49268858D02*
X1785714Y49052892D01*
X1785714Y49052892D02*
X1979430Y48850290D01*
X1979430Y48850290D02*
X2190620Y48661144D01*
X2190620Y48661144D02*
X2419174Y48485548D01*
X2419174Y48485548D02*
X2664979Y48323595D01*
X2664979Y48323595D02*
X2927924Y48175377D01*
X2927924Y48175377D02*
X3207895Y48040987D01*
X3207895Y48040987D02*
X3504783Y47920518D01*
X3504783Y47920518D02*
X3818474Y47814063D01*
X3818474Y47814063D02*
X4148856Y47721716D01*
X4148856Y47721716D02*
X4495819Y47643568D01*
X906332Y51593853D02*
X906258Y51374431D01*
X906258Y51374431D02*
X908521Y51161338D01*
X908521Y51161338D02*
X918957Y50943904D01*
X918957Y50943904D02*
X951298Y50728065D01*
X951298Y50728065D02*
X996674Y50545899D01*
X956744Y52511076D02*
X928895Y52306969D01*
X928895Y52306969D02*
X915534Y52084833D01*
X915534Y52084833D02*
X909354Y51878070D01*
X909354Y51878070D02*
X906486Y51637270D01*
X906486Y51637270D02*
X906332Y51593853D01*
X19504605Y60737435D02*
X19145011Y60440488D01*
X18807274Y60760745D02*
X19504605Y60737435D01*
X20443472Y54503791D02*
X19919772Y54406746D01*
X19919772Y54406746D02*
X19391660Y54312179D01*
X19391660Y54312179D02*
X18859378Y54220113D01*
X18859378Y54220113D02*
X18323170Y54130571D01*
X18323170Y54130571D02*
X17783276Y54043579D01*
X17783276Y54043579D02*
X17239940Y53959159D01*
X17239940Y53959159D02*
X16693404Y53877336D01*
X16693404Y53877336D02*
X16143909Y53798134D01*
X16143909Y53798134D02*
X15591700Y53721577D01*
X15591700Y53721577D02*
X15037016Y53647689D01*
X15037016Y53647689D02*
X14480102Y53576494D01*
X14480102Y53576494D02*
X13921200Y53508016D01*
X13921200Y53508016D02*
X13360551Y53442278D01*
X13360551Y53442278D02*
X12798398Y53379306D01*
X12798398Y53379306D02*
X12234984Y53319122D01*
X12234984Y53319122D02*
X11670551Y53261752D01*
X11670551Y53261752D02*
X11105340Y53207218D01*
X11105340Y53207218D02*
X10539596Y53155545D01*
X10539596Y53155545D02*
X9973559Y53106758D01*
X9973559Y53106758D02*
X9407472Y53060879D01*
X9407472Y53060879D02*
X8841577Y53017933D01*
X8841577Y53017933D02*
X8276117Y52977945D01*
X8276117Y52977945D02*
X7711335Y52940937D01*
X7711335Y52940937D02*
X7147472Y52906934D01*
X7147472Y52906934D02*
X6584771Y52875960D01*
X6584771Y52875960D02*
X6023474Y52848039D01*
X6023474Y52848039D02*
X5463823Y52823196D01*
X5463823Y52823196D02*
X4906061Y52801453D01*
X4906061Y52801453D02*
X4350431Y52782835D01*
X4350431Y52782835D02*
X3797174Y52767367D01*
X3797174Y52767367D02*
X3246533Y52755071D01*
X3246533Y52755071D02*
X2698750Y52745973D01*
X26211389Y55969310D02*
X25976312Y55865234D01*
X25976312Y55865234D02*
X25771648Y55788765D01*
X25771648Y55788765D02*
X25531284Y55707303D01*
X25531284Y55707303D02*
X25257498Y55621427D01*
X25257498Y55621427D02*
X24952567Y55531716D01*
X24952567Y55531716D02*
X24618770Y55438749D01*
X24618770Y55438749D02*
X24258385Y55343103D01*
X24258385Y55343103D02*
X23873688Y55245359D01*
X23873688Y55245359D02*
X23672935Y55195880D01*
X23672935Y55195880D02*
X23466959Y55146094D01*
X23466959Y55146094D02*
X23256043Y55096073D01*
X23256043Y55096073D02*
X23040474Y55045888D01*
X23040474Y55045888D02*
X22820535Y54995613D01*
X22820535Y54995613D02*
X22596512Y54945319D01*
X22596512Y54945319D02*
X22368688Y54895080D01*
X22368688Y54895080D02*
X22137350Y54844967D01*
X22137350Y54844967D02*
X21902781Y54795052D01*
X21902781Y54795052D02*
X21665266Y54745409D01*
X21665266Y54745409D02*
X21425090Y54696109D01*
X21425090Y54696109D02*
X21182538Y54647225D01*
X21182538Y54647225D02*
X20937894Y54598829D01*
X20937894Y54598829D02*
X20691444Y54550993D01*
X20691444Y54550993D02*
X20443472Y54503791D01*
X25830327Y56178738D02*
X26061494Y56129008D01*
X26061494Y56129008D02*
X26255961Y56082267D01*
X26255961Y56082267D02*
X26211389Y55969310D01*
X23475447Y57115104D02*
X23647132Y57006322D01*
X23647132Y57006322D02*
X23834116Y56899840D01*
X23834116Y56899840D02*
X24034616Y56796366D01*
X24034616Y56796366D02*
X24246855Y56696606D01*
X24246855Y56696606D02*
X24469051Y56601270D01*
X24469051Y56601270D02*
X24699425Y56511064D01*
X24699425Y56511064D02*
X24936196Y56426696D01*
X24936196Y56426696D02*
X25177585Y56348875D01*
X25177585Y56348875D02*
X25421811Y56278307D01*
X25421811Y56278307D02*
X25667095Y56215702D01*
X25667095Y56215702D02*
X25830327Y56178738D01*
X22917850Y57570629D02*
X23083702Y57420650D01*
X23083702Y57420650D02*
X23252735Y57280782D01*
X23252735Y57280782D02*
X23413479Y57158352D01*
X23413479Y57158352D02*
X23475447Y57115104D01*
X22404253Y58273831D02*
X22475956Y58078497D01*
X22475956Y58078497D02*
X22615095Y57896088D01*
X22615095Y57896088D02*
X22770877Y57719809D01*
X22770877Y57719809D02*
X22917850Y57570629D01*
X23128789Y58656969D02*
X22935050Y58538953D01*
X22935050Y58538953D02*
X22749529Y58440068D01*
X22749529Y58440068D02*
X22566128Y58346975D01*
X22566128Y58346975D02*
X22404253Y58273831D01*
X22819057Y58617477D02*
X23020648Y58650379D01*
X23020648Y58650379D02*
X23128789Y58656969D01*
X19340253Y58892318D02*
X19604130Y58771650D01*
X19604130Y58771650D02*
X19877671Y58670872D01*
X19877671Y58670872D02*
X20161989Y58589894D01*
X20161989Y58589894D02*
X20358072Y58546866D01*
X20358072Y58546866D02*
X20559770Y58512573D01*
X20559770Y58512573D02*
X20767412Y58486990D01*
X20767412Y58486990D02*
X20981331Y58470089D01*
X20981331Y58470089D02*
X21201854Y58461846D01*
X21201854Y58461846D02*
X21429313Y58462233D01*
X21429313Y58462233D02*
X21664037Y58471226D01*
X21664037Y58471226D02*
X21906357Y58488797D01*
X21906357Y58488797D02*
X22156602Y58514920D01*
X22156602Y58514920D02*
X22415103Y58549571D01*
X22415103Y58549571D02*
X22682190Y58592722D01*
X22682190Y58592722D02*
X22819057Y58617477D01*
X18309167Y59583328D02*
X18486601Y59438819D01*
X18486601Y59438819D02*
X18649223Y59320326D01*
X18649223Y59320326D02*
X18828015Y59198310D01*
X18828015Y59198310D02*
X19010861Y59080890D01*
X19010861Y59080890D02*
X19185646Y58976186D01*
X19185646Y58976186D02*
X19340253Y58892318D01*
X18217616Y59770410D02*
X18309167Y59583328D01*
X19145011Y60440488D02*
X18980010Y60306903D01*
X18980010Y60306903D02*
X18821297Y60184491D01*
X18821297Y60184491D02*
X18659520Y60066496D01*
X18659520Y60066496D02*
X18485332Y59946164D01*
X18485332Y59946164D02*
X18289383Y59816739D01*
X18289383Y59816739D02*
X18217616Y59770410D01*
X13646894Y64417345D02*
X13671678Y64302690D01*
X13983029Y64417345D02*
X13646894Y64417345D01*
X16455278Y61102523D02*
X16695702Y61028827D01*
X16695702Y61028827D02*
X16942730Y60965246D01*
X16942730Y60965246D02*
X17200714Y60911147D01*
X17200714Y60911147D02*
X17404009Y60876414D01*
X17404009Y60876414D02*
X17617750Y60846393D01*
X17617750Y60846393D02*
X17843773Y60820816D01*
X17843773Y60820816D02*
X18083914Y60799416D01*
X18083914Y60799416D02*
X18340009Y60781927D01*
X18340009Y60781927D02*
X18613894Y60768082D01*
X18613894Y60768082D02*
X18807274Y60760745D01*
X14092881Y63160450D02*
X14189212Y62973732D01*
X14189212Y62973732D02*
X14292314Y62794824D01*
X14292314Y62794824D02*
X14402200Y62623713D01*
X14402200Y62623713D02*
X14518887Y62460384D01*
X14518887Y62460384D02*
X14706703Y62229953D01*
X14706703Y62229953D02*
X14909909Y62016956D01*
X14909909Y62016956D02*
X15128557Y61821348D01*
X15128557Y61821348D02*
X15362700Y61643082D01*
X15362700Y61643082D02*
X15612391Y61482113D01*
X15612391Y61482113D02*
X15787515Y61384386D01*
X15787515Y61384386D02*
X15969589Y61294313D01*
X15969589Y61294313D02*
X16158627Y61211879D01*
X16158627Y61211879D02*
X16354646Y61137071D01*
X16354646Y61137071D02*
X16455278Y61102523D01*
X13671678Y64302690D02*
X13727931Y64090480D01*
X13727931Y64090480D02*
X13798113Y63875614D01*
X13798113Y63875614D02*
X13868097Y63684123D01*
X13868097Y63684123D02*
X13945313Y63490066D01*
X13945313Y63490066D02*
X14026739Y63301636D01*
X14026739Y63301636D02*
X14092881Y63160450D01*
X22753957Y69853220D02*
X22907911Y69762997D01*
X22807638Y69957027D02*
X22753957Y69853220D01*
X21431250Y66038478D02*
X21177934Y65958810D01*
X21177934Y65958810D02*
X20920187Y65879761D01*
X20920187Y65879761D02*
X20658585Y65801456D01*
X20658585Y65801456D02*
X20393704Y65724020D01*
X20393704Y65724020D02*
X20126118Y65647578D01*
X20126118Y65647578D02*
X19856405Y65572255D01*
X19856405Y65572255D02*
X19585140Y65498178D01*
X19585140Y65498178D02*
X19312897Y65425470D01*
X19312897Y65425470D02*
X19040254Y65354258D01*
X19040254Y65354258D02*
X18767786Y65284667D01*
X18767786Y65284667D02*
X18496069Y65216822D01*
X18496069Y65216822D02*
X18225678Y65150848D01*
X18225678Y65150848D02*
X17957189Y65086871D01*
X17957189Y65086871D02*
X17691178Y65025016D01*
X17691178Y65025016D02*
X17428221Y64965408D01*
X17428221Y64965408D02*
X17168893Y64908173D01*
X17168893Y64908173D02*
X16913769Y64853436D01*
X16913769Y64853436D02*
X16663427Y64801322D01*
X16663427Y64801322D02*
X16418441Y64751957D01*
X16418441Y64751957D02*
X16179388Y64705465D01*
X16179388Y64705465D02*
X15946842Y64661973D01*
X15946842Y64661973D02*
X15721380Y64621605D01*
X15721380Y64621605D02*
X15503578Y64584487D01*
X15503578Y64584487D02*
X15294011Y64550745D01*
X15294011Y64550745D02*
X15093255Y64520502D01*
X15093255Y64520502D02*
X14720478Y64471020D01*
X14720478Y64471020D02*
X14389854Y64437044D01*
X14389854Y64437044D02*
X14105988Y64419575D01*
X14105988Y64419575D02*
X13983029Y64417345D01*
X26899306Y68317552D02*
X26624206Y68166771D01*
X26624206Y68166771D02*
X26337819Y68016102D01*
X26337819Y68016102D02*
X26040656Y67865758D01*
X26040656Y67865758D02*
X25733234Y67715954D01*
X25733234Y67715954D02*
X25416067Y67566903D01*
X25416067Y67566903D02*
X25089670Y67418822D01*
X25089670Y67418822D02*
X24754557Y67271924D01*
X24754557Y67271924D02*
X24411243Y67126423D01*
X24411243Y67126423D02*
X24060243Y66982535D01*
X24060243Y66982535D02*
X23702070Y66840473D01*
X23702070Y66840473D02*
X23337241Y66700453D01*
X23337241Y66700453D02*
X22966269Y66562688D01*
X22966269Y66562688D02*
X22589669Y66427394D01*
X22589669Y66427394D02*
X22399420Y66360740D01*
X22399420Y66360740D02*
X22207956Y66294784D01*
X22207956Y66294784D02*
X22015343Y66229553D01*
X22015343Y66229553D02*
X21821645Y66165074D01*
X21821645Y66165074D02*
X21626925Y66101373D01*
X21626925Y66101373D02*
X21431250Y66038478D01*
X28554564Y69386580D02*
X28369771Y69250973D01*
X28369771Y69250973D02*
X28178869Y69119009D01*
X28178869Y69119009D02*
X27961429Y68973759D01*
X27961429Y68973759D02*
X27787455Y68860316D01*
X27787455Y68860316D02*
X27609226Y68746293D01*
X27609226Y68746293D02*
X27431316Y68634643D01*
X27431316Y68634643D02*
X27258297Y68528322D01*
X27258297Y68528322D02*
X27043122Y68399953D01*
X27043122Y68399953D02*
X26899306Y68317552D01*
X28814080Y69587017D02*
X28650647Y69461018D01*
X28650647Y69461018D02*
X28554564Y69386580D01*
X28374822Y69527169D02*
X28580991Y69565315D01*
X28580991Y69565315D02*
X28786763Y69593351D01*
X28786763Y69593351D02*
X28814080Y69587017D01*
X22907911Y69762997D02*
X23116156Y69653960D01*
X23116156Y69653960D02*
X23347041Y69557287D01*
X23347041Y69557287D02*
X23599527Y69473022D01*
X23599527Y69473022D02*
X23872573Y69401212D01*
X23872573Y69401212D02*
X24165143Y69341900D01*
X24165143Y69341900D02*
X24476197Y69295130D01*
X24476197Y69295130D02*
X24804696Y69260949D01*
X24804696Y69260949D02*
X25149602Y69239401D01*
X25149602Y69239401D02*
X25509875Y69230530D01*
X25509875Y69230530D02*
X25884477Y69234381D01*
X25884477Y69234381D02*
X26272369Y69251000D01*
X26272369Y69251000D02*
X26672512Y69280431D01*
X26672512Y69280431D02*
X26876853Y69299964D01*
X26876853Y69299964D02*
X27083867Y69322718D01*
X27083867Y69322718D02*
X27293425Y69348697D01*
X27293425Y69348697D02*
X27505397Y69377907D01*
X27505397Y69377907D02*
X27719652Y69410353D01*
X27719652Y69410353D02*
X27936061Y69446042D01*
X27936061Y69446042D02*
X28154494Y69484979D01*
X28154494Y69484979D02*
X28374822Y69527169D01*
X20584584Y73499811D02*
X20334153Y73370541D01*
X20037778Y73524867D02*
X20584584Y73499811D01*
X23496678Y70593532D02*
X23319527Y70470172D01*
X23319527Y70470172D02*
X23147965Y70340338D01*
X23147965Y70340338D02*
X22996038Y70206260D01*
X22996038Y70206260D02*
X22860912Y70046523D01*
X22860912Y70046523D02*
X22807638Y69957027D01*
X24009111Y71003171D02*
X23851756Y70856935D01*
X23851756Y70856935D02*
X23685502Y70727683D01*
X23685502Y70727683D02*
X23518028Y70608084D01*
X23518028Y70608084D02*
X23496678Y70593532D01*
X24068114Y71107840D02*
X24009111Y71003171D01*
X23523727Y70998054D02*
X23722909Y71033145D01*
X23722909Y71033145D02*
X23927397Y71072797D01*
X23927397Y71072797D02*
X24068114Y71107840D01*
X19420417Y71698292D02*
X19634657Y71562787D01*
X19634657Y71562787D02*
X19853467Y71439696D01*
X19853467Y71439696D02*
X20077073Y71328978D01*
X20077073Y71328978D02*
X20305704Y71230596D01*
X20305704Y71230596D02*
X20539584Y71144510D01*
X20539584Y71144510D02*
X20778943Y71070682D01*
X20778943Y71070682D02*
X21024005Y71009073D01*
X21024005Y71009073D02*
X21275000Y70959645D01*
X21275000Y70959645D02*
X21532152Y70922358D01*
X21532152Y70922358D02*
X21795691Y70897173D01*
X21795691Y70897173D02*
X22065841Y70884053D01*
X22065841Y70884053D02*
X22342832Y70882957D01*
X22342832Y70882957D02*
X22626888Y70893849D01*
X22626888Y70893849D02*
X22918238Y70916687D01*
X22918238Y70916687D02*
X23217109Y70951435D01*
X23217109Y70951435D02*
X23523727Y70998054D01*
X18520834Y72530999D02*
X18659994Y72370820D01*
X18659994Y72370820D02*
X18821795Y72214228D01*
X18821795Y72214228D02*
X18971036Y72076082D01*
X18971036Y72076082D02*
X19122693Y71940548D01*
X19122693Y71940548D02*
X19294306Y71794572D01*
X19294306Y71794572D02*
X19420417Y71698292D01*
X19575681Y73025728D02*
X19337833Y72924023D01*
X19337833Y72924023D02*
X19127971Y72832629D01*
X19127971Y72832629D02*
X18906748Y72733710D01*
X18906748Y72733710D02*
X18704531Y72638868D01*
X18704531Y72638868D02*
X18525313Y72538374D01*
X18525313Y72538374D02*
X18520834Y72530999D01*
X20334153Y73370541D02*
X20153485Y73282939D01*
X20153485Y73282939D02*
X19955732Y73192241D01*
X19955732Y73192241D02*
X19765158Y73107517D01*
X19765158Y73107517D02*
X19575681Y73025728D01*
X17321670Y74348022D02*
X17485221Y74196710D01*
X17682631Y74736079D02*
X17321670Y74348022D01*
X18043593Y75124135D02*
X17682631Y74736079D01*
X17426727Y75146255D02*
X18043593Y75124135D01*
X17934872Y73907089D02*
X18119720Y73825793D01*
X18119720Y73825793D02*
X18316353Y73755984D01*
X18316353Y73755984D02*
X18530025Y73696706D01*
X18530025Y73696706D02*
X18765986Y73647005D01*
X18765986Y73647005D02*
X19029490Y73605924D01*
X19029490Y73605924D02*
X19248352Y73580198D01*
X19248352Y73580198D02*
X19487877Y73558381D01*
X19487877Y73558381D02*
X19750280Y73540072D01*
X19750280Y73540072D02*
X20037778Y73524867D01*
X17485221Y74196710D02*
X17654641Y74068918D01*
X17654641Y74068918D02*
X17826796Y73963737D01*
X17826796Y73963737D02*
X17934872Y73907089D01*
X33127363Y101123845D02*
X32482779Y100805753D01*
X32376945Y101126227D02*
X33127363Y101123845D01*
X16527639Y75228148D02*
X16736637Y75196378D01*
X16736637Y75196378D02*
X16965322Y75173696D01*
X16965322Y75173696D02*
X17191530Y75157548D01*
X17191530Y75157548D02*
X17393133Y75147520D01*
X17393133Y75147520D02*
X17426727Y75146255D01*
X13513608Y77500824D02*
X13632454Y77279092D01*
X13632454Y77279092D02*
X13760880Y77067753D01*
X13760880Y77067753D02*
X13898820Y76866856D01*
X13898820Y76866856D02*
X14046208Y76676450D01*
X14046208Y76676450D02*
X14202977Y76496587D01*
X14202977Y76496587D02*
X14369061Y76327315D01*
X14369061Y76327315D02*
X14544394Y76168684D01*
X14544394Y76168684D02*
X14728909Y76020746D01*
X14728909Y76020746D02*
X14922541Y75883550D01*
X14922541Y75883550D02*
X15125222Y75757145D01*
X15125222Y75757145D02*
X15336886Y75641583D01*
X15336886Y75641583D02*
X15557467Y75536912D01*
X15557467Y75536912D02*
X15786900Y75443183D01*
X15786900Y75443183D02*
X16025117Y75360446D01*
X16025117Y75360446D02*
X16272052Y75288751D01*
X16272052Y75288751D02*
X16527639Y75228148D01*
X13088576Y78696005D02*
X13133139Y78497644D01*
X13133139Y78497644D02*
X13195954Y78300081D01*
X13195954Y78300081D02*
X13275406Y78074760D01*
X13275406Y78074760D02*
X13362945Y77845721D01*
X13362945Y77845721D02*
X13450022Y77637007D01*
X13450022Y77637007D02*
X13513608Y77500824D01*
X13277141Y78775380D02*
X13088584Y78702611D01*
X13088584Y78702611D02*
X13088576Y78696005D01*
X15134167Y78972627D02*
X14880309Y78935561D01*
X14880309Y78935561D02*
X14679546Y78908554D01*
X14679546Y78908554D02*
X14474847Y78882753D01*
X14474847Y78882753D02*
X14270669Y78858631D01*
X14270669Y78858631D02*
X14071469Y78836661D01*
X14071469Y78836661D02*
X13821315Y78811534D01*
X13821315Y78811534D02*
X13598499Y78792196D01*
X13598499Y78792196D02*
X13374518Y78777876D01*
X13374518Y78777876D02*
X13277141Y78775380D01*
X29686250Y83870758D02*
X29148291Y83627540D01*
X29148291Y83627540D02*
X28614612Y83389772D01*
X28614612Y83389772D02*
X28085319Y83157490D01*
X28085319Y83157490D02*
X27560523Y82930730D01*
X27560523Y82930730D02*
X27040332Y82709530D01*
X27040332Y82709530D02*
X26524856Y82493926D01*
X26524856Y82493926D02*
X26014202Y82283955D01*
X26014202Y82283955D02*
X25508481Y82079654D01*
X25508481Y82079654D02*
X25007801Y81881058D01*
X25007801Y81881058D02*
X24512271Y81688206D01*
X24512271Y81688206D02*
X24022000Y81501133D01*
X24022000Y81501133D02*
X23537097Y81319876D01*
X23537097Y81319876D02*
X23057672Y81144472D01*
X23057672Y81144472D02*
X22583832Y80974957D01*
X22583832Y80974957D02*
X22115687Y80811369D01*
X22115687Y80811369D02*
X21653347Y80653744D01*
X21653347Y80653744D02*
X21196919Y80502118D01*
X21196919Y80502118D02*
X20746513Y80356529D01*
X20746513Y80356529D02*
X20302239Y80217012D01*
X20302239Y80217012D02*
X19864204Y80083605D01*
X19864204Y80083605D02*
X19432518Y79956345D01*
X19432518Y79956345D02*
X19007290Y79835267D01*
X19007290Y79835267D02*
X18588628Y79720409D01*
X18588628Y79720409D02*
X18176643Y79611808D01*
X18176643Y79611808D02*
X17771442Y79509499D01*
X17771442Y79509499D02*
X17373135Y79413521D01*
X17373135Y79413521D02*
X16981831Y79323908D01*
X16981831Y79323908D02*
X16597639Y79240699D01*
X16597639Y79240699D02*
X16220667Y79163930D01*
X16220667Y79163930D02*
X15851025Y79093637D01*
X15851025Y79093637D02*
X15488822Y79029857D01*
X15488822Y79029857D02*
X15134167Y78972627D01*
X35065237Y86603366D02*
X34829730Y86444611D01*
X34829730Y86444611D02*
X34617956Y86325437D01*
X34617956Y86325437D02*
X34350278Y86180182D01*
X34350278Y86180182D02*
X34034217Y86012664D01*
X34034217Y86012664D02*
X33677294Y85826706D01*
X33677294Y85826706D02*
X33485858Y85728005D01*
X33485858Y85728005D02*
X33287027Y85626126D01*
X33287027Y85626126D02*
X33081740Y85521547D01*
X33081740Y85521547D02*
X32870938Y85414746D01*
X32870938Y85414746D02*
X32655560Y85306200D01*
X32655560Y85306200D02*
X32436546Y85196386D01*
X32436546Y85196386D02*
X32214837Y85085783D01*
X32214837Y85085783D02*
X31991373Y84974867D01*
X31991373Y84974867D02*
X31767093Y84864116D01*
X31767093Y84864116D02*
X31542937Y84754008D01*
X31542937Y84754008D02*
X31319847Y84645021D01*
X31319847Y84645021D02*
X31098761Y84537631D01*
X31098761Y84537631D02*
X30880619Y84432317D01*
X30880619Y84432317D02*
X30666362Y84329555D01*
X30666362Y84329555D02*
X30456930Y84229825D01*
X30456930Y84229825D02*
X30253263Y84133602D01*
X30253263Y84133602D02*
X30056300Y84041365D01*
X30056300Y84041365D02*
X29866982Y83953591D01*
X29866982Y83953591D02*
X29686250Y83870758D01*
X34650722Y86823129D02*
X34847574Y86726156D01*
X34847574Y86726156D02*
X35032258Y86627302D01*
X35032258Y86627302D02*
X35065237Y86603366D01*
X33919583Y87234800D02*
X34097866Y87122923D01*
X34097866Y87122923D02*
X34290240Y87011941D01*
X34290240Y87011941D02*
X34489530Y86904172D01*
X34489530Y86904172D02*
X34650722Y86823129D01*
X33340542Y87750735D02*
X33464342Y87591669D01*
X33464342Y87591669D02*
X33619563Y87457428D01*
X33619563Y87457428D02*
X33778994Y87333946D01*
X33778994Y87333946D02*
X33919583Y87234800D01*
X33920332Y88071084D02*
X33726050Y87965768D01*
X33726050Y87965768D02*
X33537633Y87862592D01*
X33537633Y87862592D02*
X33362377Y87764366D01*
X33362377Y87764366D02*
X33340542Y87750735D01*
X34412854Y88355723D02*
X34242859Y88248915D01*
X34242859Y88248915D02*
X34058528Y88146268D01*
X34058528Y88146268D02*
X33920332Y88071084D01*
X30991530Y88320184D02*
X31224414Y88275830D01*
X31224414Y88275830D02*
X31455385Y88237694D01*
X31455385Y88237694D02*
X31684309Y88205772D01*
X31684309Y88205772D02*
X31911051Y88180064D01*
X31911051Y88180064D02*
X32135477Y88160569D01*
X32135477Y88160569D02*
X32357452Y88147284D01*
X32357452Y88147284D02*
X32576843Y88140208D01*
X32576843Y88140208D02*
X32793513Y88139341D01*
X32793513Y88139341D02*
X33007330Y88144680D01*
X33007330Y88144680D02*
X33218159Y88156225D01*
X33218159Y88156225D02*
X33425866Y88173973D01*
X33425866Y88173973D02*
X33630315Y88197924D01*
X33630315Y88197924D02*
X33831373Y88228075D01*
X33831373Y88228075D02*
X34028905Y88264427D01*
X34028905Y88264427D02*
X34318298Y88330575D01*
X34318298Y88330575D02*
X34412854Y88355723D01*
X28990126Y88796225D02*
X29194667Y88733814D01*
X29194667Y88733814D02*
X29428473Y88674763D01*
X29428473Y88674763D02*
X29642481Y88622786D01*
X29642481Y88622786D02*
X29878822Y88566787D01*
X29878822Y88566787D02*
X30127780Y88509077D01*
X30127780Y88509077D02*
X30379636Y88451967D01*
X30379636Y88451967D02*
X30624675Y88397769D01*
X30624675Y88397769D02*
X30853179Y88348792D01*
X30853179Y88348792D02*
X30991530Y88320184D01*
X29287626Y88914975D02*
X29098483Y88844238D01*
X29098483Y88844238D02*
X28990126Y88796225D01*
X30381236Y89492783D02*
X30207321Y89378458D01*
X30207321Y89378458D02*
X30018312Y89272169D01*
X30018312Y89272169D02*
X29801507Y89157035D01*
X29801507Y89157035D02*
X29585224Y89048021D01*
X29585224Y89048021D02*
X29397783Y88960088D01*
X29397783Y88960088D02*
X29287626Y88914975D01*
X29871273Y89506912D02*
X30077893Y89510020D01*
X30077893Y89510020D02*
X30290661Y89506625D01*
X30290661Y89506625D02*
X30381236Y89492783D01*
X28987094Y89564750D02*
X29206201Y89526088D01*
X29206201Y89526088D02*
X29420165Y89506803D01*
X29420165Y89506803D02*
X29650134Y89503043D01*
X29650134Y89503043D02*
X29871273Y89506912D01*
X27748606Y90172887D02*
X27934784Y90019984D01*
X27934784Y90019984D02*
X28111462Y89903671D01*
X28111462Y89903671D02*
X28304043Y89799254D01*
X28304043Y89799254D02*
X28509086Y89708425D01*
X28509086Y89708425D02*
X28723151Y89632871D01*
X28723151Y89632871D02*
X28942797Y89574283D01*
X28942797Y89574283D02*
X28987094Y89564750D01*
X27305000Y90756121D02*
X27398500Y90570961D01*
X27398500Y90570961D02*
X27526695Y90406446D01*
X27526695Y90406446D02*
X27664450Y90255313D01*
X27664450Y90255313D02*
X27748606Y90172887D01*
X28249271Y91249725D02*
X28054268Y91164684D01*
X28054268Y91164684D02*
X27862243Y91072428D01*
X27862243Y91072428D02*
X27668211Y90973708D01*
X27668211Y90973708D02*
X27465504Y90863847D01*
X27465504Y90863847D02*
X27305000Y90756121D01*
X27578992Y91284219D02*
X27786722Y91282591D01*
X27786722Y91282591D02*
X27987792Y91278689D01*
X27987792Y91278689D02*
X28200836Y91267728D01*
X28200836Y91267728D02*
X28249271Y91249725D01*
X26415046Y91396243D02*
X26636192Y91340779D01*
X26636192Y91340779D02*
X26847788Y91304789D01*
X26847788Y91304789D02*
X27069509Y91290285D01*
X27069509Y91290285D02*
X27286481Y91286004D01*
X27286481Y91286004D02*
X27513315Y91284485D01*
X27513315Y91284485D02*
X27578992Y91284219D01*
X24181165Y92857262D02*
X24332454Y92666605D01*
X24332454Y92666605D02*
X24498162Y92485493D01*
X24498162Y92485493D02*
X24677461Y92314466D01*
X24677461Y92314466D02*
X24869525Y92154065D01*
X24869525Y92154065D02*
X25073525Y92004832D01*
X25073525Y92004832D02*
X25288634Y91867307D01*
X25288634Y91867307D02*
X25514024Y91742032D01*
X25514024Y91742032D02*
X25748868Y91629548D01*
X25748868Y91629548D02*
X25992339Y91530397D01*
X25992339Y91530397D02*
X26243609Y91445119D01*
X26243609Y91445119D02*
X26415046Y91396243D01*
X23889414Y93362571D02*
X23977281Y93165449D01*
X23977281Y93165449D02*
X24092628Y92983114D01*
X24092628Y92983114D02*
X24181165Y92857262D01*
X24888473Y93679767D02*
X24689818Y93617969D01*
X24689818Y93617969D02*
X24460097Y93546113D01*
X24460097Y93546113D02*
X24258507Y93482621D01*
X24258507Y93482621D02*
X24065002Y93421047D01*
X24065002Y93421047D02*
X23889414Y93362571D01*
X36300833Y98081002D02*
X36082167Y97960675D01*
X36082167Y97960675D02*
X35854261Y97839108D01*
X35854261Y97839108D02*
X35617150Y97716312D01*
X35617150Y97716312D02*
X35370866Y97592302D01*
X35370866Y97592302D02*
X35115444Y97467090D01*
X35115444Y97467090D02*
X34850918Y97340689D01*
X34850918Y97340689D02*
X34577320Y97213112D01*
X34577320Y97213112D02*
X34294687Y97084373D01*
X34294687Y97084373D02*
X34003050Y96954484D01*
X34003050Y96954484D02*
X33702444Y96823459D01*
X33702444Y96823459D02*
X33392903Y96691310D01*
X33392903Y96691310D02*
X33074461Y96558050D01*
X33074461Y96558050D02*
X32747151Y96423693D01*
X32747151Y96423693D02*
X32411008Y96288252D01*
X32411008Y96288252D02*
X32066065Y96151739D01*
X32066065Y96151739D02*
X31712356Y96014168D01*
X31712356Y96014168D02*
X31349915Y95875552D01*
X31349915Y95875552D02*
X30978775Y95735904D01*
X30978775Y95735904D02*
X30598972Y95595237D01*
X30598972Y95595237D02*
X30210538Y95453563D01*
X30210538Y95453563D02*
X29813507Y95310897D01*
X29813507Y95310897D02*
X29407913Y95167251D01*
X29407913Y95167251D02*
X28993791Y95022638D01*
X28993791Y95022638D02*
X28571173Y94877071D01*
X28571173Y94877071D02*
X28140094Y94730564D01*
X28140094Y94730564D02*
X27700588Y94583128D01*
X27700588Y94583128D02*
X27252689Y94434779D01*
X27252689Y94434779D02*
X26796429Y94285527D01*
X26796429Y94285527D02*
X26331844Y94135387D01*
X26331844Y94135387D02*
X25858967Y93984372D01*
X25858967Y93984372D02*
X25377832Y93832494D01*
X25377832Y93832494D02*
X24888473Y93679767D01*
X37214291Y98660633D02*
X37030071Y98518972D01*
X37030071Y98518972D02*
X36852775Y98406961D01*
X36852775Y98406961D02*
X36646228Y98281303D01*
X36646228Y98281303D02*
X36472294Y98178795D01*
X36472294Y98178795D02*
X36300833Y98081002D01*
X34254723Y98653251D02*
X34498498Y98625764D01*
X34498498Y98625764D02*
X34785381Y98604197D01*
X34785381Y98604197D02*
X34994408Y98593093D01*
X34994408Y98593093D02*
X35213327Y98584597D01*
X35213327Y98584597D02*
X35438432Y98578700D01*
X35438432Y98578700D02*
X35666017Y98575392D01*
X35666017Y98575392D02*
X35892376Y98574665D01*
X35892376Y98574665D02*
X36113800Y98576509D01*
X36113800Y98576509D02*
X36326585Y98580915D01*
X36326585Y98580915D02*
X36527023Y98587873D01*
X36527023Y98587873D02*
X36796423Y98603077D01*
X36796423Y98603077D02*
X37017195Y98623972D01*
X37017195Y98623972D02*
X37214291Y98660633D01*
X31982225Y99296074D02*
X32210191Y99190311D01*
X32210191Y99190311D02*
X32458195Y99090673D01*
X32458195Y99090673D02*
X32656142Y99020306D01*
X32656142Y99020306D02*
X32863386Y98953944D01*
X32863386Y98953944D02*
X33079082Y98891824D01*
X33079082Y98891824D02*
X33302383Y98834187D01*
X33302383Y98834187D02*
X33532444Y98781271D01*
X33532444Y98781271D02*
X33768418Y98733318D01*
X33768418Y98733318D02*
X34009459Y98690564D01*
X34009459Y98690564D02*
X34254723Y98653251D01*
X31176285Y99826477D02*
X31347838Y99680434D01*
X31347838Y99680434D02*
X31527545Y99556894D01*
X31527545Y99556894D02*
X31704393Y99447738D01*
X31704393Y99447738D02*
X31889898Y99343730D01*
X31889898Y99343730D02*
X31982225Y99296074D01*
X31299759Y100070465D02*
X31155368Y99922548D01*
X31155368Y99922548D02*
X31176285Y99826477D01*
X32482779Y100805753D02*
X32297829Y100713751D01*
X32297829Y100713751D02*
X32087619Y100606313D01*
X32087619Y100606313D02*
X31873650Y100490471D01*
X31873650Y100490471D02*
X31701336Y100387328D01*
X31701336Y100387328D02*
X31530598Y100268546D01*
X31530598Y100268546D02*
X31351701Y100118577D01*
X31351701Y100118577D02*
X31299759Y100070465D01*
X47235880Y125441299D02*
X47124173Y125276966D01*
X47051203Y125464214D02*
X47235880Y125441299D01*
X30304163Y101391847D02*
X30510077Y101338958D01*
X30510077Y101338958D02*
X30704725Y101292996D01*
X30704725Y101292996D02*
X30952037Y101241808D01*
X30952037Y101241808D02*
X31192053Y101201303D01*
X31192053Y101201303D02*
X31432051Y101170548D01*
X31432051Y101170548D02*
X31679306Y101148611D01*
X31679306Y101148611D02*
X31941095Y101134559D01*
X31941095Y101134559D02*
X32151351Y101128634D01*
X32151351Y101128634D02*
X32376945Y101126227D01*
X28153648Y102744590D02*
X28215399Y102527586D01*
X28215399Y102527586D02*
X28353250Y102345855D01*
X28353250Y102345855D02*
X28503573Y102207746D01*
X28503573Y102207746D02*
X28690798Y102070179D01*
X28690798Y102070179D02*
X28911928Y101935040D01*
X28911928Y101935040D02*
X29163970Y101804211D01*
X29163970Y101804211D02*
X29347690Y101720318D01*
X29347690Y101720318D02*
X29542929Y101639737D01*
X29542929Y101639737D02*
X29748800Y101563026D01*
X29748800Y101563026D02*
X29964414Y101490744D01*
X29964414Y101490744D02*
X30188884Y101423449D01*
X30188884Y101423449D02*
X30304163Y101391847D01*
X30258795Y104334003D02*
X30077923Y104206559D01*
X30077923Y104206559D02*
X29907693Y104086563D01*
X29907693Y104086563D02*
X29597872Y103867938D01*
X29597872Y103867938D02*
X29326758Y103676185D01*
X29326758Y103676185D02*
X29091778Y103509360D01*
X29091778Y103509360D02*
X28890358Y103365521D01*
X28890358Y103365521D02*
X28719924Y103242724D01*
X28719924Y103242724D02*
X28516744Y103093731D01*
X28516744Y103093731D02*
X28330269Y102950587D01*
X28330269Y102950587D02*
X28178326Y102809104D01*
X28178326Y102809104D02*
X28153648Y102744590D01*
X35292718Y107881383D02*
X34983257Y107663266D01*
X34983257Y107663266D02*
X34661064Y107436182D01*
X34661064Y107436182D02*
X34496000Y107319847D01*
X34496000Y107319847D02*
X34328721Y107201951D01*
X34328721Y107201951D02*
X34159549Y107082724D01*
X34159549Y107082724D02*
X33988807Y106962391D01*
X33988807Y106962391D02*
X33816818Y106841181D01*
X33816818Y106841181D02*
X33643904Y106719320D01*
X33643904Y106719320D02*
X33470388Y106597037D01*
X33470388Y106597037D02*
X33296592Y106474558D01*
X33296592Y106474558D02*
X33122839Y106352110D01*
X33122839Y106352110D02*
X32949452Y106229922D01*
X32949452Y106229922D02*
X32776754Y106108220D01*
X32776754Y106108220D02*
X32605066Y105987232D01*
X32605066Y105987232D02*
X32434712Y105867185D01*
X32434712Y105867185D02*
X32266014Y105748306D01*
X32266014Y105748306D02*
X32099295Y105630824D01*
X32099295Y105630824D02*
X31934877Y105514964D01*
X31934877Y105514964D02*
X31614235Y105289023D01*
X31614235Y105289023D02*
X31306670Y105072303D01*
X31306670Y105072303D02*
X31014763Y104866622D01*
X31014763Y104866622D02*
X30741094Y104673800D01*
X30741094Y104673800D02*
X30488244Y104495653D01*
X30488244Y104495653D02*
X30258795Y104334003D01*
X43462223Y113620148D02*
X43186907Y113428621D01*
X43186907Y113428621D02*
X42889385Y113221247D01*
X42889385Y113221247D02*
X42567695Y112996645D01*
X42567695Y112996645D02*
X42397173Y112877452D01*
X42397173Y112877452D02*
X42219871Y112753435D01*
X42219871Y112753435D02*
X42035546Y112624422D01*
X42035546Y112624422D02*
X41843951Y112490239D01*
X41843951Y112490239D02*
X41644840Y112350715D01*
X41644840Y112350715D02*
X41437969Y112205676D01*
X41437969Y112205676D02*
X41223091Y112054952D01*
X41223091Y112054952D02*
X40999962Y111898368D01*
X40999962Y111898368D02*
X40768335Y111735752D01*
X40768335Y111735752D02*
X40527966Y111566933D01*
X40527966Y111566933D02*
X40278608Y111391738D01*
X40278608Y111391738D02*
X40020017Y111209994D01*
X40020017Y111209994D02*
X39751946Y111021528D01*
X39751946Y111021528D02*
X39474151Y110826169D01*
X39474151Y110826169D02*
X39186385Y110623744D01*
X39186385Y110623744D02*
X38888404Y110414080D01*
X38888404Y110414080D02*
X38579962Y110197005D01*
X38579962Y110197005D02*
X38260812Y109972347D01*
X38260812Y109972347D02*
X37930711Y109739933D01*
X37930711Y109739933D02*
X37589412Y109499591D01*
X37589412Y109499591D02*
X37236670Y109251147D01*
X37236670Y109251147D02*
X36872238Y108994431D01*
X36872238Y108994431D02*
X36495873Y108729268D01*
X36495873Y108729268D02*
X36107328Y108455488D01*
X36107328Y108455488D02*
X35706358Y108172917D01*
X35706358Y108172917D02*
X35292718Y107881383D01*
X44836604Y114577757D02*
X44671607Y114462005D01*
X44671607Y114462005D02*
X44486526Y114332877D01*
X44486526Y114332877D02*
X44299931Y114202866D01*
X44299931Y114202866D02*
X44085194Y114053368D01*
X44085194Y114053368D02*
X43909064Y113930820D01*
X43909064Y113930820D02*
X43722653Y113801177D01*
X43722653Y113801177D02*
X43528339Y113666096D01*
X43528339Y113666096D02*
X43462223Y113620148D01*
X44554381Y114577228D02*
X44759132Y114611345D01*
X44759132Y114611345D02*
X44836604Y114577757D01*
X42862500Y114508915D02*
X43113133Y114491364D01*
X43113133Y114491364D02*
X43323220Y114485090D01*
X43323220Y114485090D02*
X43538848Y114485599D01*
X43538848Y114485599D02*
X43757271Y114492779D01*
X43757271Y114492779D02*
X43975744Y114506520D01*
X43975744Y114506520D02*
X44191520Y114526711D01*
X44191520Y114526711D02*
X44401854Y114553239D01*
X44401854Y114553239D02*
X44554381Y114577228D01*
X41497364Y114753322D02*
X41690110Y114698298D01*
X41690110Y114698298D02*
X41903894Y114654146D01*
X41903894Y114654146D02*
X42105282Y114617235D01*
X42105282Y114617235D02*
X42319160Y114581508D01*
X42319160Y114581508D02*
X42532150Y114549359D01*
X42532150Y114549359D02*
X42730871Y114523184D01*
X42730871Y114523184D02*
X42862500Y114508915D01*
X42406578Y115639845D02*
X42245638Y115515025D01*
X42245638Y115515025D02*
X42080312Y115376756D01*
X42080312Y115376756D02*
X41919550Y115233765D01*
X41919550Y115233765D02*
X41772298Y115094775D01*
X41772298Y115094775D02*
X41620865Y114939955D01*
X41620865Y114939955D02*
X41495187Y114776137D01*
X41495187Y114776137D02*
X41497364Y114753322D01*
X42709640Y115864729D02*
X42548638Y115744993D01*
X42548638Y115744993D02*
X42406578Y115639845D01*
X41704223Y115871103D02*
X41907252Y115870747D01*
X41907252Y115870747D02*
X42141075Y115870055D01*
X42141075Y115870055D02*
X42345198Y115869135D01*
X42345198Y115869135D02*
X42565739Y115867563D01*
X42565739Y115867563D02*
X42709640Y115864729D01*
X40410696Y115950452D02*
X40614447Y115903936D01*
X40614447Y115903936D02*
X40838856Y115882282D01*
X40838856Y115882282D02*
X41043167Y115875500D01*
X41043167Y115875500D02*
X41260650Y115872677D01*
X41260650Y115872677D02*
X41462924Y115871608D01*
X41462924Y115871608D02*
X41704223Y115871103D01*
X39167567Y116716998D02*
X39316675Y116552593D01*
X39316675Y116552593D02*
X39481241Y116405495D01*
X39481241Y116405495D02*
X39662122Y116275173D01*
X39662122Y116275173D02*
X39860175Y116161100D01*
X39860175Y116161100D02*
X40076257Y116062746D01*
X40076257Y116062746D02*
X40311227Y115979582D01*
X40311227Y115979582D02*
X40410696Y115950452D01*
X38807623Y117404440D02*
X38880525Y117193045D01*
X38880525Y117193045D02*
X38987067Y116989560D01*
X38987067Y116989560D02*
X39093869Y116817154D01*
X39093869Y116817154D02*
X39167567Y116716998D01*
X39116937Y117690133D02*
X38957610Y117561977D01*
X38957610Y117561977D02*
X38814299Y117419820D01*
X38814299Y117419820D02*
X38807623Y117404440D01*
X42966383Y120999868D02*
X42703703Y120761076D01*
X42703703Y120761076D02*
X42434390Y120518306D01*
X42434390Y120518306D02*
X42160495Y120273323D01*
X42160495Y120273323D02*
X41884072Y120027892D01*
X41884072Y120027892D02*
X41607174Y119783777D01*
X41607174Y119783777D02*
X41331852Y119542743D01*
X41331852Y119542743D02*
X41060160Y119306555D01*
X41060160Y119306555D02*
X40794149Y119076978D01*
X40794149Y119076978D02*
X40535874Y118855777D01*
X40535874Y118855777D02*
X40287385Y118644716D01*
X40287385Y118644716D02*
X40050737Y118445561D01*
X40050737Y118445561D02*
X39827981Y118260075D01*
X39827981Y118260075D02*
X39621171Y118090025D01*
X39621171Y118090025D02*
X39432358Y117937175D01*
X39432358Y117937175D02*
X39263596Y117803289D01*
X39263596Y117803289D02*
X39116937Y117690133D01*
X47124173Y125276966D02*
X46943401Y125027953D01*
X46943401Y125027953D02*
X46797091Y124842658D01*
X46797091Y124842658D02*
X46630513Y124642309D01*
X46630513Y124642309D02*
X46443980Y124427232D01*
X46443980Y124427232D02*
X46237808Y124197750D01*
X46237808Y124197750D02*
X46012310Y123954186D01*
X46012310Y123954186D02*
X45767802Y123696863D01*
X45767802Y123696863D02*
X45504598Y123426107D01*
X45504598Y123426107D02*
X45223012Y123142239D01*
X45223012Y123142239D02*
X45075425Y122995490D01*
X45075425Y122995490D02*
X44923360Y122845584D01*
X44923360Y122845584D02*
X44766857Y122692562D01*
X44766857Y122692562D02*
X44605955Y122536465D01*
X44605955Y122536465D02*
X44440694Y122377333D01*
X44440694Y122377333D02*
X44271112Y122215206D01*
X44271112Y122215206D02*
X44097250Y122050125D01*
X44097250Y122050125D02*
X43919146Y121882130D01*
X43919146Y121882130D02*
X43736841Y121711262D01*
X43736841Y121711262D02*
X43550372Y121537562D01*
X43550372Y121537562D02*
X43359780Y121361069D01*
X43359780Y121361069D02*
X43165104Y121181824D01*
X43165104Y121181824D02*
X42966383Y120999868D01*
X46539314Y131201336D02*
X46791115Y131097400D01*
X46659057Y131485261D02*
X46539314Y131201336D01*
X45561250Y125844988D02*
X45761228Y125759214D01*
X45761228Y125759214D02*
X45968024Y125689699D01*
X45968024Y125689699D02*
X46202896Y125624120D01*
X46202896Y125624120D02*
X46405703Y125575846D01*
X46405703Y125575846D02*
X46617384Y125532415D01*
X46617384Y125532415D02*
X46833898Y125494860D01*
X46833898Y125494860D02*
X47051203Y125464214D01*
X45190833Y126120170D02*
X45339967Y125979790D01*
X45339967Y125979790D02*
X45512813Y125870756D01*
X45512813Y125870756D02*
X45561250Y125844988D01*
X46399098Y127378606D02*
X46215728Y127191691D01*
X46215728Y127191691D02*
X46040821Y127012748D01*
X46040821Y127012748D02*
X45876468Y126843955D01*
X45876468Y126843955D02*
X45724758Y126687489D01*
X45724758Y126687489D02*
X45545760Y126501807D01*
X45545760Y126501807D02*
X45397913Y126347073D01*
X45397913Y126347073D02*
X45245390Y126184288D01*
X45245390Y126184288D02*
X45190833Y126120170D01*
X48801507Y130245550D02*
X48692760Y130047947D01*
X48692760Y130047947D02*
X48571991Y129850032D01*
X48571991Y129850032D02*
X48435020Y129646814D01*
X48435020Y129646814D02*
X48277666Y129433305D01*
X48277666Y129433305D02*
X48095747Y129204516D01*
X48095747Y129204516D02*
X47958758Y129041038D01*
X47958758Y129041038D02*
X47807754Y128867073D01*
X47807754Y128867073D02*
X47641498Y128681143D01*
X47641498Y128681143D02*
X47458751Y128481771D01*
X47458751Y128481771D02*
X47258274Y128267477D01*
X47258274Y128267477D02*
X47038828Y128036784D01*
X47038828Y128036784D02*
X46799175Y127788214D01*
X46799175Y127788214D02*
X46538076Y127520289D01*
X46538076Y127520289D02*
X46399098Y127378606D01*
X49129831Y131198050D02*
X49106870Y130976149D01*
X49106870Y130976149D02*
X49035016Y130767693D01*
X49035016Y130767693D02*
X48954752Y130569418D01*
X48954752Y130569418D02*
X48861512Y130364934D01*
X48861512Y130364934D02*
X48801507Y130245550D01*
X48909346Y131125526D02*
X49103960Y131190870D01*
X49103960Y131190870D02*
X49129831Y131198050D01*
X46791115Y131097400D02*
X47033454Y131010566D01*
X47033454Y131010566D02*
X47278563Y130949497D01*
X47278563Y130949497D02*
X47528263Y130914219D01*
X47528263Y130914219D02*
X47784373Y130904755D01*
X47784373Y130904755D02*
X48048715Y130921130D01*
X48048715Y130921130D02*
X48253470Y130950382D01*
X48253470Y130950382D02*
X48464648Y130994191D01*
X48464648Y130994191D02*
X48683017Y131052569D01*
X48683017Y131052569D02*
X48909346Y131125526D01*
X53162991Y135288815D02*
X53282998Y135446035D01*
X53289967Y134945569D02*
X53162991Y135288815D01*
X47064173Y133149716D02*
X47028679Y132931924D01*
X47028679Y132931924D02*
X46993508Y132730348D01*
X46993508Y132730348D02*
X46946615Y132484745D01*
X46946615Y132484745D02*
X46899094Y132263031D01*
X46899094Y132263031D02*
X46850258Y132062383D01*
X46850258Y132062383D02*
X46786316Y131836897D01*
X46786316Y131836897D02*
X46717905Y131634404D01*
X46717905Y131634404D02*
X46659057Y131485261D01*
X47728251Y135396105D02*
X47631315Y135213904D01*
X47631315Y135213904D02*
X47520913Y134987823D01*
X47520913Y134987823D02*
X47428184Y134767933D01*
X47428184Y134767933D02*
X47348912Y134539974D01*
X47348912Y134539974D02*
X47278883Y134289687D01*
X47278883Y134289687D02*
X47229891Y134078741D01*
X47229891Y134078741D02*
X47181948Y133841200D01*
X47181948Y133841200D02*
X47133276Y133571046D01*
X47133276Y133571046D02*
X47099545Y133369856D01*
X47099545Y133369856D02*
X47064173Y133149716D01*
X48590353Y137071800D02*
X48493260Y136879310D01*
X48493260Y136879310D02*
X48395225Y136685767D01*
X48395225Y136685767D02*
X48297738Y136494069D01*
X48297738Y136494069D02*
X48202291Y136307117D01*
X48202291Y136307117D02*
X48110377Y136127810D01*
X48110377Y136127810D02*
X47995896Y135905637D01*
X47995896Y135905637D02*
X47893883Y135709083D01*
X47893883Y135709083D02*
X47789285Y135509887D01*
X47789285Y135509887D02*
X47728251Y135396105D01*
X49811871Y139311938D02*
X49689550Y139132101D01*
X49689550Y139132101D02*
X49580163Y138949747D01*
X49580163Y138949747D02*
X49448747Y138717868D01*
X49448747Y138717868D02*
X49335853Y138511689D01*
X49335853Y138511689D02*
X49210774Y138278028D01*
X49210774Y138278028D02*
X49073596Y138017047D01*
X49073596Y138017047D02*
X48975466Y137827962D01*
X48975466Y137827962D02*
X48872025Y137626854D01*
X48872025Y137626854D02*
X48763297Y137413772D01*
X48763297Y137413772D02*
X48649310Y137188762D01*
X48649310Y137188762D02*
X48590353Y137071800D01*
X50058754Y139733678D02*
X49958568Y139546066D01*
X49958568Y139546066D02*
X49854332Y139372457D01*
X49854332Y139372457D02*
X49811871Y139311938D01*
X50929230Y140796001D02*
X50732615Y140683751D01*
X50732615Y140683751D02*
X50574505Y140543332D01*
X50574505Y140543332D02*
X50444978Y140388907D01*
X50444978Y140388907D02*
X50313349Y140195430D01*
X50313349Y140195430D02*
X50203929Y140009357D01*
X50203929Y140009357D02*
X50088700Y139792845D01*
X50088700Y139792845D02*
X50058754Y139733678D01*
X51487917Y140762424D02*
X51291055Y140841690D01*
X51291055Y140841690D02*
X51087764Y140849922D01*
X51087764Y140849922D02*
X50929230Y140796001D01*
X52217018Y140112471D02*
X52080514Y140286528D01*
X52080514Y140286528D02*
X51927975Y140453059D01*
X51927975Y140453059D02*
X51774921Y140587150D01*
X51774921Y140587150D02*
X51588938Y140709970D01*
X51588938Y140709970D02*
X51487917Y140762424D01*
X52904792Y138878702D02*
X52804274Y139097102D01*
X52804274Y139097102D02*
X52714005Y139286236D01*
X52714005Y139286236D02*
X52610940Y139489824D01*
X52610940Y139489824D02*
X52513179Y139666894D01*
X52513179Y139666894D02*
X52394488Y139859404D01*
X52394488Y139859404D02*
X52264587Y140047542D01*
X52264587Y140047542D02*
X52217018Y140112471D01*
X53531934Y136419128D02*
X53525734Y136627883D01*
X53525734Y136627883D02*
X53508906Y136840162D01*
X53508906Y136840162D02*
X53481363Y137056308D01*
X53481363Y137056308D02*
X53443016Y137276665D01*
X53443016Y137276665D02*
X53393778Y137501577D01*
X53393778Y137501577D02*
X53333561Y137731387D01*
X53333561Y137731387D02*
X53262276Y137966439D01*
X53262276Y137966439D02*
X53179836Y138207077D01*
X53179836Y138207077D02*
X53086153Y138453645D01*
X53086153Y138453645D02*
X52981139Y138706486D01*
X52981139Y138706486D02*
X52904792Y138878702D01*
X53282998Y135446035D02*
X53398038Y135615455D01*
X53398038Y135615455D02*
X53480120Y135808190D01*
X53480120Y135808190D02*
X53517610Y136010795D01*
X53517610Y136010795D02*
X53530543Y136234317D01*
X53530543Y136234317D02*
X53531934Y136419128D01*
X53167396Y130906485D02*
X53615299Y130903408D01*
X53293777Y130708293D02*
X53167396Y130906485D01*
X53682508Y134055517D02*
X53583703Y134263942D01*
X53583703Y134263942D02*
X53498565Y134450564D01*
X53498565Y134450564D02*
X53406346Y134660285D01*
X53406346Y134660285D02*
X53320893Y134865457D01*
X53320893Y134865457D02*
X53289967Y134945569D01*
X54191670Y132926628D02*
X54107447Y133123917D01*
X54107447Y133123917D02*
X54027016Y133307321D01*
X54027016Y133307321D02*
X53941620Y133498348D01*
X53941620Y133498348D02*
X53855339Y133687953D01*
X53855339Y133687953D02*
X53756377Y133900870D01*
X53756377Y133900870D02*
X53682508Y134055517D01*
X54932405Y131555204D02*
X54810852Y131724199D01*
X54810852Y131724199D02*
X54695170Y131903086D01*
X54695170Y131903086D02*
X54582822Y132096558D01*
X54582822Y132096558D02*
X54471276Y132309306D01*
X54471276Y132309306D02*
X54380913Y132496536D01*
X54380913Y132496536D02*
X54288143Y132701510D01*
X54288143Y132701510D02*
X54191670Y132926628D01*
X55080683Y131294845D02*
X54989434Y131475921D01*
X54989434Y131475921D02*
X54932405Y131555204D01*
X54274863Y130946798D02*
X54487173Y131012478D01*
X54487173Y131012478D02*
X54680474Y131087836D01*
X54680474Y131087836D02*
X54866008Y131169597D01*
X54866008Y131169597D02*
X55043795Y131263733D01*
X55043795Y131263733D02*
X55080683Y131294845D01*
X53615299Y130903408D02*
X53832075Y130906561D01*
X53832075Y130906561D02*
X54038560Y130917727D01*
X54038560Y130917727D02*
X54250584Y130941979D01*
X54250584Y130941979D02*
X54274863Y130946798D01*
X61683196Y110991269D02*
X61862917Y110901557D01*
X61841946Y110826000D02*
X61683196Y110991269D01*
X55333196Y128682185D02*
X55105833Y128873109D01*
X55105833Y128873109D02*
X54896919Y129050365D01*
X54896919Y129050365D02*
X54705355Y129215045D01*
X54705355Y129215045D02*
X54530042Y129368242D01*
X54530042Y129368242D02*
X54369880Y129511046D01*
X54369880Y129511046D02*
X54155642Y129708156D01*
X54155642Y129708156D02*
X53969313Y129888026D01*
X53969313Y129888026D02*
X53807183Y130054340D01*
X53807183Y130054340D02*
X53665544Y130210784D01*
X53665544Y130210784D02*
X53502155Y130410391D01*
X53502155Y130410391D02*
X53359808Y130607738D01*
X53359808Y130607738D02*
X53293777Y130708293D01*
X57213839Y126847075D02*
X57065226Y127046573D01*
X57065226Y127046573D02*
X56906910Y127230114D01*
X56906910Y127230114D02*
X56765385Y127381531D01*
X56765385Y127381531D02*
X56604481Y127544593D01*
X56604481Y127544593D02*
X56424332Y127719170D01*
X56424332Y127719170D02*
X56225076Y127905126D01*
X56225076Y127905126D02*
X56006849Y128102330D01*
X56006849Y128102330D02*
X55850891Y128239983D01*
X55850891Y128239983D02*
X55686603Y128382535D01*
X55686603Y128382535D02*
X55514024Y128529949D01*
X55514024Y128529949D02*
X55333196Y128682185D01*
X57396946Y126532347D02*
X57300932Y126710977D01*
X57300932Y126710977D02*
X57213839Y126847075D01*
X56708193Y126006843D02*
X56905486Y126116536D01*
X56905486Y126116536D02*
X57084381Y126231040D01*
X57084381Y126231040D02*
X57254161Y126358746D01*
X57254161Y126358746D02*
X57393167Y126513757D01*
X57393167Y126513757D02*
X57396946Y126532347D01*
X55069560Y125304329D02*
X55266387Y125378433D01*
X55266387Y125378433D02*
X55508454Y125471815D01*
X55508454Y125471815D02*
X55730492Y125560391D01*
X55730492Y125560391D02*
X55936048Y125645682D01*
X55936048Y125645682D02*
X56128667Y125729207D01*
X56128667Y125729207D02*
X56311896Y125812486D01*
X56311896Y125812486D02*
X56533128Y125918557D01*
X56533128Y125918557D02*
X56708193Y126006843D01*
X54511128Y125062922D02*
X54699763Y125157738D01*
X54699763Y125157738D02*
X54907137Y125242233D01*
X54907137Y125242233D02*
X55069560Y125304329D01*
X55463943Y123805893D02*
X55281215Y123988220D01*
X55281215Y123988220D02*
X55103395Y124180855D01*
X55103395Y124180855D02*
X54937119Y124375045D01*
X54937119Y124375045D02*
X54789022Y124562035D01*
X54789022Y124562035D02*
X54665739Y124733071D01*
X54665739Y124733071D02*
X54556639Y124911096D01*
X54556639Y124911096D02*
X54511128Y125062922D01*
X59601806Y120793355D02*
X59288989Y120990704D01*
X59288989Y120990704D02*
X58976833Y121191626D01*
X58976833Y121191626D02*
X58666744Y121395095D01*
X58666744Y121395095D02*
X58360129Y121600087D01*
X58360129Y121600087D02*
X58058395Y121805578D01*
X58058395Y121805578D02*
X57762951Y122010543D01*
X57762951Y122010543D02*
X57475201Y122213958D01*
X57475201Y122213958D02*
X57196555Y122414798D01*
X57196555Y122414798D02*
X56928419Y122612039D01*
X56928419Y122612039D02*
X56672200Y122804656D01*
X56672200Y122804656D02*
X56429305Y122991625D01*
X56429305Y122991625D02*
X56201141Y123171921D01*
X56201141Y123171921D02*
X55989116Y123344521D01*
X55989116Y123344521D02*
X55794636Y123508399D01*
X55794636Y123508399D02*
X55619110Y123662531D01*
X55619110Y123662531D02*
X55463943Y123805893D01*
X61630229Y119444075D02*
X61470073Y119567156D01*
X61470073Y119567156D02*
X61259671Y119712405D01*
X61259671Y119712405D02*
X61060271Y119847026D01*
X61060271Y119847026D02*
X60834486Y119997496D01*
X60834486Y119997496D02*
X60590659Y120158266D01*
X60590659Y120158266D02*
X60422205Y120268427D01*
X60422205Y120268427D02*
X60251912Y120379056D01*
X60251912Y120379056D02*
X60082254Y120488507D01*
X60082254Y120488507D02*
X59834363Y120646880D01*
X59834363Y120646880D02*
X59601806Y120793355D01*
X61550905Y119394821D02*
X61630229Y119444075D01*
X60818890Y119061032D02*
X61015995Y119153679D01*
X61015995Y119153679D02*
X61224556Y119250396D01*
X61224556Y119250396D02*
X61414994Y119336950D01*
X61414994Y119336950D02*
X61550905Y119394821D01*
X58441304Y118416377D02*
X58663629Y118419063D01*
X58663629Y118419063D02*
X58870694Y118429528D01*
X58870694Y118429528D02*
X59132243Y118458076D01*
X59132243Y118458076D02*
X59388744Y118506439D01*
X59388744Y118506439D02*
X59585399Y118557775D01*
X59585399Y118557775D02*
X59791637Y118623624D01*
X59791637Y118623624D02*
X60012782Y118705431D01*
X60012782Y118705431D02*
X60254156Y118804639D01*
X60254156Y118804639D02*
X60521084Y118922692D01*
X60521084Y118922692D02*
X60715862Y119012575D01*
X60715862Y119012575D02*
X60818890Y119061032D01*
X58035611Y118350914D02*
X58246788Y118416704D01*
X58246788Y118416704D02*
X58441304Y118416377D01*
X59284306Y117545597D02*
X59100108Y117656054D01*
X59100108Y117656054D02*
X58911216Y117771921D01*
X58911216Y117771921D02*
X58723992Y117889094D01*
X58723992Y117889094D02*
X58544800Y118003469D01*
X58544800Y118003469D02*
X58341798Y118136251D01*
X58341798Y118136251D02*
X58173716Y118250234D01*
X58173716Y118250234D02*
X58035611Y118350914D01*
X61055872Y116464155D02*
X60883563Y116586395D01*
X60883563Y116586395D02*
X60676265Y116714785D01*
X60676265Y116714785D02*
X60439871Y116857909D01*
X60439871Y116857909D02*
X60217038Y116991500D01*
X60217038Y116991500D02*
X60045234Y117094014D01*
X60045234Y117094014D02*
X59853856Y117207886D01*
X59853856Y117207886D02*
X59642071Y117333625D01*
X59642071Y117333625D02*
X59409045Y117471739D01*
X59409045Y117471739D02*
X59284306Y117545597D01*
X60070439Y115888885D02*
X60254427Y115977652D01*
X60254427Y115977652D02*
X60459018Y116085350D01*
X60459018Y116085350D02*
X60662583Y116199354D01*
X60662583Y116199354D02*
X60843499Y116307038D01*
X60843499Y116307038D02*
X61017551Y116423144D01*
X61017551Y116423144D02*
X61055872Y116464155D01*
X58287708Y115563422D02*
X58537901Y115551035D01*
X58537901Y115551035D02*
X58756328Y115559946D01*
X58756328Y115559946D02*
X58985615Y115584602D01*
X58985615Y115584602D02*
X59220796Y115624097D01*
X59220796Y115624097D02*
X59456905Y115677524D01*
X59456905Y115677524D02*
X59688974Y115743977D01*
X59688974Y115743977D02*
X59912038Y115822548D01*
X59912038Y115822548D02*
X60070439Y115888885D01*
X58031946Y115582790D02*
X58236331Y115568930D01*
X58236331Y115568930D02*
X58287708Y115563422D01*
X58622848Y115207353D02*
X58447633Y115316425D01*
X58447633Y115316425D02*
X58269882Y115428047D01*
X58269882Y115428047D02*
X58090445Y115542631D01*
X58090445Y115542631D02*
X58031946Y115582790D01*
X63940380Y112240989D02*
X63706042Y112365281D01*
X63706042Y112365281D02*
X63476748Y112487175D01*
X63476748Y112487175D02*
X63252432Y112606707D01*
X63252432Y112606707D02*
X63033031Y112723912D01*
X63033031Y112723912D02*
X62818480Y112838826D01*
X62818480Y112838826D02*
X62608715Y112951486D01*
X62608715Y112951486D02*
X62403669Y113061928D01*
X62403669Y113061928D02*
X62203280Y113170187D01*
X62203280Y113170187D02*
X62007483Y113276300D01*
X62007483Y113276300D02*
X61816212Y113380302D01*
X61816212Y113380302D02*
X61629403Y113482230D01*
X61629403Y113482230D02*
X61446993Y113582120D01*
X61446993Y113582120D02*
X61268915Y113680008D01*
X61268915Y113680008D02*
X60925501Y113869920D01*
X60925501Y113869920D02*
X60598645Y114052256D01*
X60598645Y114052256D02*
X60287829Y114227302D01*
X60287829Y114227302D02*
X59992538Y114395349D01*
X59992538Y114395349D02*
X59712255Y114556683D01*
X59712255Y114556683D02*
X59446463Y114711594D01*
X59446463Y114711594D02*
X59194645Y114860368D01*
X59194645Y114860368D02*
X58956285Y115003295D01*
X58956285Y115003295D02*
X58730866Y115140663D01*
X58730866Y115140663D02*
X58622848Y115207353D01*
X65184687Y111556599D02*
X65000090Y111667411D01*
X65000090Y111667411D02*
X64814970Y111770235D01*
X64814970Y111770235D02*
X64630896Y111870835D01*
X64630896Y111870835D02*
X64420371Y111984698D01*
X64420371Y111984698D02*
X64188498Y112109019D01*
X64188498Y112109019D02*
X64003653Y112207432D01*
X64003653Y112207432D02*
X63940380Y112240989D01*
X64029167Y110918649D02*
X64253059Y111002600D01*
X64253059Y111002600D02*
X64447910Y111089025D01*
X64447910Y111089025D02*
X64643037Y111185003D01*
X64643037Y111185003D02*
X64825781Y111283543D01*
X64825781Y111283543D02*
X65017510Y111399676D01*
X65017510Y111399676D02*
X65181178Y111537036D01*
X65181178Y111537036D02*
X65184687Y111556599D01*
X61862917Y110901557D02*
X62072285Y110815738D01*
X62072285Y110815738D02*
X62304373Y110755090D01*
X62304373Y110755090D02*
X62556595Y110719594D01*
X62556595Y110719594D02*
X62757418Y110709464D01*
X62757418Y110709464D02*
X62967019Y110713461D01*
X62967019Y110713461D02*
X63184308Y110731576D01*
X63184308Y110731576D02*
X63408193Y110763801D01*
X63408193Y110763801D02*
X63637582Y110810127D01*
X63637582Y110810127D02*
X63871385Y110870545D01*
X63871385Y110870545D02*
X64029167Y110918649D01*
X65387362Y102252595D02*
X65528473Y102261696D01*
X65635812Y102088048D02*
X65387362Y102252595D01*
X62442826Y110437605D02*
X62255234Y110516315D01*
X62255234Y110516315D02*
X62066416Y110630141D01*
X62066416Y110630141D02*
X61909192Y110759514D01*
X61909192Y110759514D02*
X61841946Y110826000D01*
X62648560Y110365466D02*
X62459128Y110431947D01*
X62459128Y110431947D02*
X62442826Y110437605D01*
X62525090Y110212666D02*
X62648560Y110365466D01*
X61072022Y109496894D02*
X61265901Y109553893D01*
X61265901Y109553893D02*
X61460325Y109622161D01*
X61460325Y109622161D02*
X61653272Y109700704D01*
X61653272Y109700704D02*
X61842720Y109788525D01*
X61842720Y109788525D02*
X62026648Y109884627D01*
X62026648Y109884627D02*
X62203033Y109988015D01*
X62203033Y109988015D02*
X62409828Y110125979D01*
X62409828Y110125979D02*
X62525090Y110212666D01*
X59416598Y109488613D02*
X59638898Y109442649D01*
X59638898Y109442649D02*
X59843065Y109418563D01*
X59843065Y109418563D02*
X60062276Y109405711D01*
X60062276Y109405711D02*
X60288821Y109404055D01*
X60288821Y109404055D02*
X60514986Y109413555D01*
X60514986Y109413555D02*
X60733060Y109434173D01*
X60733060Y109434173D02*
X60935330Y109465872D01*
X60935330Y109465872D02*
X61072022Y109496894D01*
X59605069Y109152764D02*
X59454863Y109317242D01*
X59454863Y109317242D02*
X59344765Y109486901D01*
X59344765Y109486901D02*
X59416598Y109488613D01*
X63281634Y106976259D02*
X63071058Y107075041D01*
X63071058Y107075041D02*
X62869110Y107170386D01*
X62869110Y107170386D02*
X62675545Y107262438D01*
X62675545Y107262438D02*
X62490117Y107351342D01*
X62490117Y107351342D02*
X62142690Y107520290D01*
X62142690Y107520290D02*
X61824864Y107678390D01*
X61824864Y107678390D02*
X61534677Y107826807D01*
X61534677Y107826807D02*
X61270164Y107966703D01*
X61270164Y107966703D02*
X61029362Y108099240D01*
X61029362Y108099240D02*
X60810306Y108225581D01*
X60810306Y108225581D02*
X60611032Y108346889D01*
X60611032Y108346889D02*
X60429578Y108464325D01*
X60429578Y108464325D02*
X60263978Y108579054D01*
X60263978Y108579054D02*
X60041011Y108748612D01*
X60041011Y108748612D02*
X59842670Y108918616D01*
X59842670Y108918616D02*
X59662328Y109092990D01*
X59662328Y109092990D02*
X59605069Y109152764D01*
X64851496Y106175233D02*
X64662261Y106280372D01*
X64662261Y106280372D02*
X64482041Y106376908D01*
X64482041Y106376908D02*
X64283168Y106480926D01*
X64283168Y106480926D02*
X64072081Y106589143D01*
X64072081Y106589143D02*
X63855218Y106698272D01*
X63855218Y106698272D02*
X63639019Y106805028D01*
X63639019Y106805028D02*
X63429922Y106906125D01*
X63429922Y106906125D02*
X63281634Y106976259D01*
X67239446Y104941246D02*
X67038142Y105036271D01*
X67038142Y105036271D02*
X66853210Y105124037D01*
X66853210Y105124037D02*
X66602087Y105244358D01*
X66602087Y105244358D02*
X66376432Y105354217D01*
X66376432Y105354217D02*
X66169425Y105457140D01*
X66169425Y105457140D02*
X65974246Y105556650D01*
X65974246Y105556650D02*
X65784075Y105656271D01*
X65784075Y105656271D02*
X65592092Y105759529D01*
X65592092Y105759529D02*
X65391477Y105869947D01*
X65391477Y105869947D02*
X65175410Y105991050D01*
X65175410Y105991050D02*
X64937070Y106126362D01*
X64937070Y106126362D02*
X64851496Y106175233D01*
X68580000Y104269159D02*
X68396407Y104390664D01*
X68396407Y104390664D02*
X68182150Y104495205D01*
X68182150Y104495205D02*
X67996427Y104583829D01*
X67996427Y104583829D02*
X67760499Y104695552D01*
X67760499Y104695552D02*
X67572364Y104784349D01*
X67572364Y104784349D02*
X67357476Y104885638D01*
X67357476Y104885638D02*
X67239446Y104941246D01*
X67924635Y103367777D02*
X68076258Y103541276D01*
X68076258Y103541276D02*
X68212724Y103712122D01*
X68212724Y103712122D02*
X68344359Y103887556D01*
X68344359Y103887556D02*
X68477435Y104078674D01*
X68477435Y104078674D02*
X68578816Y104260567D01*
X68578816Y104260567D02*
X68580000Y104269159D01*
X65528473Y102261696D02*
X65806597Y102287118D01*
X65806597Y102287118D02*
X66069740Y102326927D01*
X66069740Y102326927D02*
X66319258Y102381748D01*
X66319258Y102381748D02*
X66556506Y102452208D01*
X66556506Y102452208D02*
X66782838Y102538932D01*
X66782838Y102538932D02*
X66999611Y102642546D01*
X66999611Y102642546D02*
X67208179Y102763675D01*
X67208179Y102763675D02*
X67409897Y102902944D01*
X67409897Y102902944D02*
X67606122Y103060980D01*
X67606122Y103060980D02*
X67798208Y103238409D01*
X67798208Y103238409D02*
X67924635Y103367777D01*
X72075537Y82743961D02*
X72911869Y82746077D01*
X72206313Y82609529D02*
X72075537Y82743961D01*
X70290973Y100001816D02*
X69980282Y100106822D01*
X69980282Y100106822D02*
X69660629Y100220409D01*
X69660629Y100220409D02*
X69334499Y100341463D01*
X69334499Y100341463D02*
X69004377Y100468870D01*
X69004377Y100468870D02*
X68672745Y100601518D01*
X68672745Y100601518D02*
X68342091Y100738292D01*
X68342091Y100738292D02*
X68014896Y100878079D01*
X68014896Y100878079D02*
X67693647Y101019766D01*
X67693647Y101019766D02*
X67380827Y101162240D01*
X67380827Y101162240D02*
X67078922Y101304387D01*
X67078922Y101304387D02*
X66790414Y101445093D01*
X66790414Y101445093D02*
X66517790Y101583245D01*
X66517790Y101583245D02*
X66263533Y101717730D01*
X66263533Y101717730D02*
X66030128Y101847434D01*
X66030128Y101847434D02*
X65820059Y101971245D01*
X65820059Y101971245D02*
X65635812Y102088048D01*
X72559783Y99452030D02*
X72321644Y99482229D01*
X72321644Y99482229D02*
X72076701Y99521936D01*
X72076701Y99521936D02*
X71821862Y99571900D01*
X71821862Y99571900D02*
X71622378Y99616556D01*
X71622378Y99616556D02*
X71414282Y99667719D01*
X71414282Y99667719D02*
X71196270Y99725706D01*
X71196270Y99725706D02*
X70967038Y99790833D01*
X70967038Y99790833D02*
X70725280Y99863416D01*
X70725280Y99863416D02*
X70469692Y99943771D01*
X70469692Y99943771D02*
X70290973Y100001816D01*
X72870639Y99402463D02*
X72661415Y99439997D01*
X72661415Y99439997D02*
X72559783Y99452030D01*
X72368955Y98437163D02*
X72479138Y98610255D01*
X72479138Y98610255D02*
X72586239Y98797622D01*
X72586239Y98797622D02*
X72692712Y98996252D01*
X72692712Y98996252D02*
X72784943Y99179952D01*
X72784943Y99179952D02*
X72868914Y99377442D01*
X72868914Y99377442D02*
X72870639Y99402463D01*
X68513838Y97511550D02*
X68866347Y97456458D01*
X68866347Y97456458D02*
X69203333Y97416270D01*
X69203333Y97416270D02*
X69524934Y97391018D01*
X69524934Y97391018D02*
X69831289Y97380736D01*
X69831289Y97380736D02*
X70122538Y97385458D01*
X70122538Y97385458D02*
X70398818Y97405217D01*
X70398818Y97405217D02*
X70660270Y97440046D01*
X70660270Y97440046D02*
X70907032Y97489978D01*
X70907032Y97489978D02*
X71139242Y97555047D01*
X71139242Y97555047D02*
X71357041Y97635286D01*
X71357041Y97635286D02*
X71560566Y97730729D01*
X71560566Y97730729D02*
X71749956Y97841408D01*
X71749956Y97841408D02*
X71925352Y97967358D01*
X71925352Y97967358D02*
X72086891Y98108612D01*
X72086891Y98108612D02*
X72234712Y98265202D01*
X72234712Y98265202D02*
X72368955Y98437163D01*
X68097154Y97565811D02*
X68303922Y97545359D01*
X68303922Y97545359D02*
X68513838Y97511550D01*
X68624429Y97150285D02*
X68451619Y97260539D01*
X68451619Y97260539D02*
X68272734Y97395498D01*
X68272734Y97395498D02*
X68114260Y97535418D01*
X68114260Y97535418D02*
X68097154Y97565811D01*
X69408791Y96943288D02*
X69191634Y96974223D01*
X69191634Y96974223D02*
X68991541Y97022833D01*
X68991541Y97022833D02*
X68795281Y97082179D01*
X68795281Y97082179D02*
X68624429Y97150285D01*
X69490746Y96753714D02*
X69423002Y96943215D01*
X69423002Y96943215D02*
X69408791Y96943288D01*
X67887646Y95458018D02*
X68141853Y95533887D01*
X68141853Y95533887D02*
X68383050Y95636267D01*
X68383050Y95636267D02*
X68610053Y95764202D01*
X68610053Y95764202D02*
X68821679Y95916735D01*
X68821679Y95916735D02*
X69016745Y96092908D01*
X69016745Y96092908D02*
X69194067Y96291767D01*
X69194067Y96291767D02*
X69314702Y96455223D01*
X69314702Y96455223D02*
X69424191Y96630497D01*
X69424191Y96630497D02*
X69490746Y96753714D01*
X66957223Y95401990D02*
X67184148Y95395953D01*
X67184148Y95395953D02*
X67390389Y95394359D01*
X67390389Y95394359D02*
X67593489Y95404250D01*
X67593489Y95404250D02*
X67813498Y95440851D01*
X67813498Y95440851D02*
X67887646Y95458018D01*
X64862736Y95747165D02*
X65128714Y95681117D01*
X65128714Y95681117D02*
X65369680Y95623788D01*
X65369680Y95623788D02*
X65589305Y95574571D01*
X65589305Y95574571D02*
X65791261Y95532863D01*
X65791261Y95532863D02*
X66039399Y95487884D01*
X66039399Y95487884D02*
X66271360Y95453742D01*
X66271360Y95453742D02*
X66495848Y95429002D01*
X66495848Y95429002D02*
X66721567Y95412229D01*
X66721567Y95412229D02*
X66957223Y95401990D01*
X64432873Y95841812D02*
X64644392Y95800266D01*
X64644392Y95800266D02*
X64841254Y95752569D01*
X64841254Y95752569D02*
X64862736Y95747165D01*
X65687223Y94536689D02*
X65522921Y94686012D01*
X65522921Y94686012D02*
X65377617Y94825032D01*
X65377617Y94825032D02*
X65221442Y94978839D01*
X65221442Y94978839D02*
X65061641Y95139893D01*
X65061641Y95139893D02*
X64905463Y95300655D01*
X64905463Y95300655D02*
X64760154Y95453583D01*
X64760154Y95453583D02*
X64595842Y95632270D01*
X64595842Y95632270D02*
X64461913Y95789967D01*
X64461913Y95789967D02*
X64432873Y95841812D01*
X68003970Y93031622D02*
X67746379Y93166039D01*
X67746379Y93166039D02*
X67496229Y93302434D01*
X67496229Y93302434D02*
X67253839Y93440601D01*
X67253839Y93440601D02*
X67019524Y93580333D01*
X67019524Y93580333D02*
X66793602Y93721425D01*
X66793602Y93721425D02*
X66576390Y93863671D01*
X66576390Y93863671D02*
X66368206Y94006865D01*
X66368206Y94006865D02*
X66169366Y94150801D01*
X66169366Y94150801D02*
X65980188Y94295272D01*
X65980188Y94295272D02*
X65800988Y94440073D01*
X65800988Y94440073D02*
X65687223Y94536689D01*
X69736219Y91974601D02*
X69549071Y92121177D01*
X69549071Y92121177D02*
X69359510Y92247209D01*
X69359510Y92247209D02*
X69188852Y92355230D01*
X69188852Y92355230D02*
X69000479Y92470730D01*
X69000479Y92470730D02*
X68800421Y92590031D01*
X68800421Y92590031D02*
X68594710Y92709450D01*
X68594710Y92709450D02*
X68389377Y92825308D01*
X68389377Y92825308D02*
X68190453Y92933926D01*
X68190453Y92933926D02*
X68003970Y93031622D01*
X70015055Y91716005D02*
X69862667Y91851526D01*
X69862667Y91851526D02*
X69736219Y91974601D01*
X70864407Y90716761D02*
X70746121Y90887300D01*
X70746121Y90887300D02*
X70614444Y91061973D01*
X70614444Y91061973D02*
X70474863Y91234321D01*
X70474863Y91234321D02*
X70332866Y91397890D01*
X70332866Y91397890D02*
X70193941Y91546224D01*
X70193941Y91546224D02*
X70039012Y91695024D01*
X70039012Y91695024D02*
X70015055Y91716005D01*
X71579989Y89081451D02*
X71536787Y89282514D01*
X71536787Y89282514D02*
X71470105Y89476883D01*
X71470105Y89476883D02*
X71380529Y89702582D01*
X71380529Y89702582D02*
X71274409Y89945095D01*
X71274409Y89945095D02*
X71187783Y90129284D01*
X71187783Y90129284D02*
X71098104Y90308643D01*
X71098104Y90308643D02*
X70978412Y90529694D01*
X70978412Y90529694D02*
X70864407Y90716761D01*
X72541000Y88329278D02*
X72307356Y88496153D01*
X72307356Y88496153D02*
X72114966Y88634048D01*
X72114966Y88634048D02*
X71915706Y88778241D01*
X71915706Y88778241D02*
X71745323Y88905163D01*
X71745323Y88905163D02*
X71591359Y89043871D01*
X71591359Y89043871D02*
X71579989Y89081451D01*
X77655211Y85597201D02*
X77359304Y85697443D01*
X77359304Y85697443D02*
X77060101Y85807158D01*
X77060101Y85807158D02*
X76757630Y85926331D01*
X76757630Y85926331D02*
X76451918Y86054945D01*
X76451918Y86054945D02*
X76142995Y86192986D01*
X76142995Y86192986D02*
X75830889Y86340439D01*
X75830889Y86340439D02*
X75515629Y86497289D01*
X75515629Y86497289D02*
X75197242Y86663520D01*
X75197242Y86663520D02*
X74875756Y86839117D01*
X74875756Y86839117D02*
X74551201Y87024065D01*
X74551201Y87024065D02*
X74223605Y87218349D01*
X74223605Y87218349D02*
X73892996Y87421954D01*
X73892996Y87421954D02*
X73559403Y87634865D01*
X73559403Y87634865D02*
X73391496Y87744805D01*
X73391496Y87744805D02*
X73222853Y87857065D01*
X73222853Y87857065D02*
X73053479Y87971645D01*
X73053479Y87971645D02*
X72883376Y88088541D01*
X72883376Y88088541D02*
X72712548Y88207753D01*
X72712548Y88207753D02*
X72541000Y88329278D01*
X78069723Y85440692D02*
X77869729Y85524385D01*
X77869729Y85524385D02*
X77676458Y85590276D01*
X77676458Y85590276D02*
X77655211Y85597201D01*
X77895008Y85128018D02*
X77999370Y85306043D01*
X77999370Y85306043D02*
X78069723Y85440692D01*
X74100973Y82808763D02*
X74427105Y82871390D01*
X74427105Y82871390D02*
X74741792Y82945252D01*
X74741792Y82945252D02*
X75044944Y83030294D01*
X75044944Y83030294D02*
X75336470Y83126460D01*
X75336470Y83126460D02*
X75616280Y83233695D01*
X75616280Y83233695D02*
X75884282Y83351944D01*
X75884282Y83351944D02*
X76140387Y83481152D01*
X76140387Y83481152D02*
X76384504Y83621262D01*
X76384504Y83621262D02*
X76616542Y83772220D01*
X76616542Y83772220D02*
X76836411Y83933971D01*
X76836411Y83933971D02*
X77044021Y84106459D01*
X77044021Y84106459D02*
X77239280Y84289628D01*
X77239280Y84289628D02*
X77422099Y84483424D01*
X77422099Y84483424D02*
X77592387Y84687791D01*
X77592387Y84687791D02*
X77750053Y84902674D01*
X77750053Y84902674D02*
X77895008Y85128018D01*
X72911869Y82746077D02*
X73130789Y82747378D01*
X73130789Y82747378D02*
X73367515Y82751169D01*
X73367515Y82751169D02*
X73569089Y82757677D01*
X73569089Y82757677D02*
X73773438Y82769543D01*
X73773438Y82769543D02*
X73973833Y82789709D01*
X73973833Y82789709D02*
X74100973Y82808763D01*
X68955280Y79260607D02*
X69142795Y79300824D01*
X69252714Y79140436D02*
X68955280Y79260607D01*
X72548750Y82374706D02*
X72372545Y82477144D01*
X72372545Y82477144D02*
X72213292Y82602506D01*
X72213292Y82602506D02*
X72206313Y82609529D01*
X73757015Y82054996D02*
X73545319Y82092689D01*
X73545319Y82092689D02*
X73327317Y82138837D01*
X73327317Y82138837D02*
X73113092Y82190771D01*
X73113092Y82190771D02*
X72912728Y82245823D01*
X72912728Y82245823D02*
X72704786Y82312246D01*
X72704786Y82312246D02*
X72548750Y82374706D01*
X74012780Y81987834D02*
X73820739Y82044039D01*
X73820739Y82044039D02*
X73757015Y82054996D01*
X73444031Y81262294D02*
X73594781Y81419276D01*
X73594781Y81419276D02*
X73736261Y81585224D01*
X73736261Y81585224D02*
X73866906Y81751884D01*
X73866906Y81751884D02*
X73987961Y81928921D01*
X73987961Y81928921D02*
X74012780Y81987834D01*
X71225833Y80326873D02*
X71478670Y80356664D01*
X71478670Y80356664D02*
X71721090Y80397958D01*
X71721090Y80397958D02*
X71953484Y80450921D01*
X71953484Y80450921D02*
X72176243Y80515716D01*
X72176243Y80515716D02*
X72389761Y80592511D01*
X72389761Y80592511D02*
X72594428Y80681468D01*
X72594428Y80681468D02*
X72790637Y80782755D01*
X72790637Y80782755D02*
X72978778Y80896537D01*
X72978778Y80896537D02*
X73159245Y81022978D01*
X73159245Y81022978D02*
X73332428Y81162243D01*
X73332428Y81162243D02*
X73444031Y81262294D01*
X69655973Y80421964D02*
X69882378Y80375668D01*
X69882378Y80375668D02*
X70122171Y80345479D01*
X70122171Y80345479D02*
X70334765Y80327589D01*
X70334765Y80327589D02*
X70556027Y80315858D01*
X70556027Y80315858D02*
X70776925Y80310832D01*
X70776925Y80310832D02*
X70988427Y80313058D01*
X70988427Y80313058D02*
X71225833Y80326873D01*
X69691250Y80328474D02*
X69655973Y80421964D01*
X70229238Y80007404D02*
X70041551Y80080120D01*
X70041551Y80080120D02*
X69865274Y80181750D01*
X69865274Y80181750D02*
X69703575Y80315581D01*
X69703575Y80315581D02*
X69691250Y80328474D01*
X70379167Y79941962D02*
X70229238Y80007404D01*
X70105773Y79736119D02*
X70279415Y79858101D01*
X70279415Y79858101D02*
X70379167Y79941962D01*
X69142795Y79300824D02*
X69340785Y79355657D01*
X69340785Y79355657D02*
X69554504Y79437013D01*
X69554504Y79437013D02*
X69742572Y79524402D01*
X69742572Y79524402D02*
X69928443Y79625061D01*
X69928443Y79625061D02*
X70105773Y79736119D01*
X82902787Y75308262D02*
X82735219Y75328211D01*
X82902787Y75126559D02*
X82902787Y75308262D01*
X75612543Y77101681D02*
X75370278Y77169905D01*
X75370278Y77169905D02*
X75128578Y77238558D01*
X75128578Y77238558D02*
X74887666Y77307567D01*
X74887666Y77307567D02*
X74647767Y77376861D01*
X74647767Y77376861D02*
X74409105Y77446366D01*
X74409105Y77446366D02*
X74171905Y77516012D01*
X74171905Y77516012D02*
X73936391Y77585726D01*
X73936391Y77585726D02*
X73702787Y77655437D01*
X73702787Y77655437D02*
X73471317Y77725072D01*
X73471317Y77725072D02*
X73242207Y77794560D01*
X73242207Y77794560D02*
X73015680Y77863829D01*
X73015680Y77863829D02*
X72791961Y77932806D01*
X72791961Y77932806D02*
X72571274Y78001421D01*
X72571274Y78001421D02*
X72353844Y78069600D01*
X72353844Y78069600D02*
X72139894Y78137272D01*
X72139894Y78137272D02*
X71929649Y78204365D01*
X71929649Y78204365D02*
X71723334Y78270808D01*
X71723334Y78270808D02*
X71521173Y78336528D01*
X71521173Y78336528D02*
X71323390Y78401453D01*
X71323390Y78401453D02*
X71130209Y78465511D01*
X71130209Y78465511D02*
X70758554Y78590740D01*
X70758554Y78590740D02*
X70408001Y78711640D01*
X70408001Y78711640D02*
X70080346Y78827635D01*
X70080346Y78827635D02*
X69777383Y78938149D01*
X69777383Y78938149D02*
X69500907Y79042608D01*
X69500907Y79042608D02*
X69252714Y79140436D01*
X82735219Y75328211D02*
X82467175Y75371899D01*
X82467175Y75371899D02*
X82213558Y75422329D01*
X82213558Y75422329D02*
X81906016Y75488305D01*
X81906016Y75488305D02*
X81549698Y75568546D01*
X81549698Y75568546D02*
X81149757Y75661767D01*
X81149757Y75661767D02*
X80935038Y75712846D01*
X80935038Y75712846D02*
X80711345Y75766688D01*
X80711345Y75766688D02*
X80479321Y75823135D01*
X80479321Y75823135D02*
X80239612Y75882025D01*
X80239612Y75882025D02*
X79992860Y75943198D01*
X79992860Y75943198D02*
X79739710Y76006495D01*
X79739710Y76006495D02*
X79480805Y76071754D01*
X79480805Y76071754D02*
X79216791Y76138816D01*
X79216791Y76138816D02*
X78948309Y76207520D01*
X78948309Y76207520D02*
X78676005Y76277705D01*
X78676005Y76277705D02*
X78400523Y76349212D01*
X78400523Y76349212D02*
X78122506Y76421879D01*
X78122506Y76421879D02*
X77842598Y76495548D01*
X77842598Y76495548D02*
X77561444Y76570057D01*
X77561444Y76570057D02*
X77279686Y76645245D01*
X77279686Y76645245D02*
X76997970Y76720954D01*
X76997970Y76720954D02*
X76716939Y76797022D01*
X76716939Y76797022D02*
X76437236Y76873289D01*
X76437236Y76873289D02*
X76159507Y76949594D01*
X76159507Y76949594D02*
X75884394Y77025778D01*
X75884394Y77025778D02*
X75612543Y77101681D01*
X78581261Y71911774D02*
X78969314Y71934607D01*
X78916398Y71801641D02*
X78581261Y71911774D01*
X81777523Y73140205D02*
X81958451Y73306749D01*
X81958451Y73306749D02*
X82127513Y73483969D01*
X82127513Y73483969D02*
X82283414Y73669578D01*
X82283414Y73669578D02*
X82424859Y73861290D01*
X82424859Y73861290D02*
X82550553Y74056818D01*
X82550553Y74056818D02*
X82659201Y74253877D01*
X82659201Y74253877D02*
X82749508Y74450181D01*
X82749508Y74450181D02*
X82820179Y74643444D01*
X82820179Y74643444D02*
X82881623Y74892446D01*
X82881623Y74892446D02*
X82902787Y75126559D01*
X78969314Y71934607D02*
X79243783Y71960437D01*
X79243783Y71960437D02*
X79518547Y72005430D01*
X79518547Y72005430D02*
X79792702Y72069195D01*
X79792702Y72069195D02*
X80065342Y72151346D01*
X80065342Y72151346D02*
X80335565Y72251493D01*
X80335565Y72251493D02*
X80602465Y72369250D01*
X80602465Y72369250D02*
X80865141Y72504227D01*
X80865141Y72504227D02*
X81122686Y72656037D01*
X81122686Y72656037D02*
X81291087Y72766403D01*
X81291087Y72766403D02*
X81456539Y72883963D01*
X81456539Y72883963D02*
X81618773Y73008602D01*
X81618773Y73008602D02*
X81777523Y73140205D01*
X79533761Y57639477D02*
X79815981Y57552685D01*
X79683240Y57505013D02*
X79533761Y57639477D01*
X80248136Y71555771D02*
X80024466Y71575441D01*
X80024466Y71575441D02*
X79803607Y71602601D01*
X79803607Y71602601D02*
X79587578Y71636879D01*
X79587578Y71636879D02*
X79378399Y71677901D01*
X79378399Y71677901D02*
X79178088Y71725295D01*
X79178088Y71725295D02*
X78952265Y71790053D01*
X78952265Y71790053D02*
X78916398Y71801641D01*
X80574454Y71499825D02*
X80374838Y71544251D01*
X80374838Y71544251D02*
X80248136Y71555771D01*
X79511496Y70507945D02*
X79675699Y70630321D01*
X79675699Y70630321D02*
X79839825Y70767020D01*
X79839825Y70767020D02*
X80016866Y70923084D01*
X80016866Y70923084D02*
X80191860Y71084548D01*
X80191860Y71084548D02*
X80349845Y71237453D01*
X80349845Y71237453D02*
X80500615Y71395278D01*
X80500615Y71395278D02*
X80574454Y71499825D01*
X75023432Y69090897D02*
X75334442Y69119357D01*
X75334442Y69119357D02*
X75644927Y69156951D01*
X75644927Y69156951D02*
X75954130Y69203437D01*
X75954130Y69203437D02*
X76261290Y69258577D01*
X76261290Y69258577D02*
X76565648Y69322130D01*
X76565648Y69322130D02*
X76866444Y69393857D01*
X76866444Y69393857D02*
X77162920Y69473519D01*
X77162920Y69473519D02*
X77454316Y69560874D01*
X77454316Y69560874D02*
X77739873Y69655684D01*
X77739873Y69655684D02*
X78018832Y69757709D01*
X78018832Y69757709D02*
X78290433Y69866709D01*
X78290433Y69866709D02*
X78553916Y69982444D01*
X78553916Y69982444D02*
X78808524Y70104675D01*
X78808524Y70104675D02*
X79053496Y70233162D01*
X79053496Y70233162D02*
X79288073Y70367665D01*
X79288073Y70367665D02*
X79511496Y70507945D01*
X74743715Y69034435D02*
X74940200Y69083546D01*
X74940200Y69083546D02*
X75023432Y69090897D01*
X76535148Y68033889D02*
X76331472Y68136220D01*
X76331472Y68136220D02*
X76118383Y68246173D01*
X76118383Y68246173D02*
X75901699Y68360498D01*
X75901699Y68360498D02*
X75687236Y68475946D01*
X75687236Y68475946D02*
X75480811Y68589268D01*
X75480811Y68589268D02*
X75288242Y68697215D01*
X75288242Y68697215D02*
X75063091Y68827168D01*
X75063091Y68827168D02*
X74886703Y68934088D01*
X74886703Y68934088D02*
X74743715Y69034435D01*
X87929871Y64010127D02*
X87555083Y64103172D01*
X87555083Y64103172D02*
X87178485Y64199393D01*
X87178485Y64199393D02*
X86800378Y64298682D01*
X86800378Y64298682D02*
X86421064Y64400933D01*
X86421064Y64400933D02*
X86040844Y64506039D01*
X86040844Y64506039D02*
X85660020Y64613895D01*
X85660020Y64613895D02*
X85278893Y64724392D01*
X85278893Y64724392D02*
X84897767Y64837425D01*
X84897767Y64837425D02*
X84516942Y64952888D01*
X84516942Y64952888D02*
X84136719Y65070672D01*
X84136719Y65070672D02*
X83757402Y65190673D01*
X83757402Y65190673D02*
X83379291Y65312784D01*
X83379291Y65312784D02*
X83002689Y65436897D01*
X83002689Y65436897D02*
X82627896Y65562907D01*
X82627896Y65562907D02*
X82255216Y65690706D01*
X82255216Y65690706D02*
X81884949Y65820189D01*
X81884949Y65820189D02*
X81517397Y65951248D01*
X81517397Y65951248D02*
X81152863Y66083778D01*
X81152863Y66083778D02*
X80791647Y66217671D01*
X80791647Y66217671D02*
X80434052Y66352821D01*
X80434052Y66352821D02*
X80080379Y66489122D01*
X80080379Y66489122D02*
X79730930Y66626467D01*
X79730930Y66626467D02*
X79386007Y66764749D01*
X79386007Y66764749D02*
X79045911Y66903862D01*
X79045911Y66903862D02*
X78710945Y67043699D01*
X78710945Y67043699D02*
X78381409Y67184154D01*
X78381409Y67184154D02*
X78057607Y67325120D01*
X78057607Y67325120D02*
X77739839Y67466491D01*
X77739839Y67466491D02*
X77428407Y67608159D01*
X77428407Y67608159D02*
X77123614Y67750020D01*
X77123614Y67750020D02*
X76825760Y67891965D01*
X76825760Y67891965D02*
X76535148Y68033889D01*
X90546290Y63440839D02*
X90329348Y63478395D01*
X90329348Y63478395D02*
X90063823Y63531024D01*
X90063823Y63531024D02*
X89823448Y63580967D01*
X89823448Y63580967D02*
X89556603Y63637957D01*
X89556603Y63637957D02*
X89271272Y63700254D01*
X89271272Y63700254D02*
X89074723Y63743877D01*
X89074723Y63743877D02*
X88875872Y63788573D01*
X88875872Y63788573D02*
X88677083Y63833827D01*
X88677083Y63833827D02*
X88480724Y63879124D01*
X88480724Y63879124D02*
X88195912Y63946024D01*
X88195912Y63946024D02*
X87929871Y64010127D01*
X90717889Y63392457D02*
X90546290Y63440839D01*
X90023500Y62116171D02*
X90152366Y62319032D01*
X90152366Y62319032D02*
X90268431Y62514228D01*
X90268431Y62514228D02*
X90386780Y62721680D01*
X90386780Y62721680D02*
X90498879Y62925703D01*
X90498879Y62925703D02*
X90596192Y63110608D01*
X90596192Y63110608D02*
X90684039Y63290958D01*
X90684039Y63290958D02*
X90717889Y63392457D01*
X87272752Y60204919D02*
X87473758Y60245654D01*
X87473758Y60245654D02*
X87671789Y60297512D01*
X87671789Y60297512D02*
X87866651Y60360357D01*
X87866651Y60360357D02*
X88058150Y60434057D01*
X88058150Y60434057D02*
X88246093Y60518476D01*
X88246093Y60518476D02*
X88430286Y60613480D01*
X88430286Y60613480D02*
X88610538Y60718935D01*
X88610538Y60718935D02*
X88786654Y60834707D01*
X88786654Y60834707D02*
X88958440Y60960662D01*
X88958440Y60960662D02*
X89125705Y61096664D01*
X89125705Y61096664D02*
X89288253Y61242581D01*
X89288253Y61242581D02*
X89445893Y61398276D01*
X89445893Y61398276D02*
X89598431Y61563618D01*
X89598431Y61563618D02*
X89745674Y61738470D01*
X89745674Y61738470D02*
X89887428Y61922699D01*
X89887428Y61922699D02*
X90023500Y62116171D01*
X86971719Y60137109D02*
X87174836Y60186978D01*
X87174836Y60186978D02*
X87272752Y60204919D01*
X87282626Y59959192D02*
X87101822Y60051203D01*
X87101822Y60051203D02*
X86971719Y60137109D01*
X88450219Y59669582D02*
X88230813Y59691093D01*
X88230813Y59691093D02*
X88032174Y59719643D01*
X88032174Y59719643D02*
X87814426Y59764878D01*
X87814426Y59764878D02*
X87611303Y59824036D01*
X87611303Y59824036D02*
X87414469Y59899187D01*
X87414469Y59899187D02*
X87282626Y59959192D01*
X88758898Y59615996D02*
X88556070Y59659398D01*
X88556070Y59659398D02*
X88450219Y59669582D01*
X88216359Y58955757D02*
X88355839Y59105096D01*
X88355839Y59105096D02*
X88493835Y59262043D01*
X88493835Y59262043D02*
X88633813Y59431474D01*
X88633813Y59431474D02*
X88751240Y59595299D01*
X88751240Y59595299D02*
X88758898Y59615996D01*
X86156496Y57924891D02*
X86381785Y57961992D01*
X86381785Y57961992D02*
X86600490Y58011448D01*
X86600490Y58011448D02*
X86812585Y58073248D01*
X86812585Y58073248D02*
X87018046Y58147379D01*
X87018046Y58147379D02*
X87216847Y58233827D01*
X87216847Y58233827D02*
X87408962Y58332580D01*
X87408962Y58332580D02*
X87594366Y58443626D01*
X87594366Y58443626D02*
X87773034Y58566951D01*
X87773034Y58566951D02*
X87944941Y58702544D01*
X87944941Y58702544D02*
X88110061Y58850390D01*
X88110061Y58850390D02*
X88216359Y58955757D01*
X84031677Y58057023D02*
X84260333Y58008962D01*
X84260333Y58008962D02*
X84523536Y57968423D01*
X84523536Y57968423D02*
X84736392Y57943402D01*
X84736392Y57943402D02*
X84956874Y57923346D01*
X84956874Y57923346D02*
X85179920Y57908569D01*
X85179920Y57908569D02*
X85400469Y57899387D01*
X85400469Y57899387D02*
X85613462Y57896113D01*
X85613462Y57896113D02*
X85813837Y57899062D01*
X85813837Y57899062D02*
X86052632Y57913220D01*
X86052632Y57913220D02*
X86156496Y57924891D01*
X84351289Y57833186D02*
X84165059Y57919130D01*
X84165059Y57919130D02*
X83990567Y58021000D01*
X83990567Y58021000D02*
X84031677Y58057023D01*
X84666677Y57676505D02*
X84487707Y57773132D01*
X84487707Y57773132D02*
X84351289Y57833186D01*
X83902965Y57349969D02*
X84124592Y57426371D01*
X84124592Y57426371D02*
X84315966Y57500642D01*
X84315966Y57500642D02*
X84509281Y57584031D01*
X84509281Y57584031D02*
X84666677Y57676505D01*
X82320704Y57137139D02*
X82565966Y57139350D01*
X82565966Y57139350D02*
X82786779Y57147069D01*
X82786779Y57147069D02*
X82988585Y57161025D01*
X82988585Y57161025D02*
X83222403Y57188357D01*
X83222403Y57188357D02*
X83445653Y57228006D01*
X83445653Y57228006D02*
X83668964Y57281400D01*
X83668964Y57281400D02*
X83902965Y57349969D01*
X79815981Y57552685D02*
X80083144Y57473156D01*
X80083144Y57473156D02*
X80337461Y57403043D01*
X80337461Y57403043D02*
X80581063Y57341991D01*
X80581063Y57341991D02*
X80816079Y57289647D01*
X80816079Y57289647D02*
X81044640Y57245658D01*
X81044640Y57245658D02*
X81268875Y57209670D01*
X81268875Y57209670D02*
X81490915Y57181330D01*
X81490915Y57181330D02*
X81712890Y57160285D01*
X81712890Y57160285D02*
X81936930Y57146181D01*
X81936930Y57146181D02*
X82165164Y57138664D01*
X82165164Y57138664D02*
X82320704Y57137139D01*
X85130198Y37420836D02*
X85030725Y37445336D01*
X84960169Y37297638D02*
X85130198Y37420836D01*
X80852439Y56984979D02*
X80653184Y57039552D01*
X80653184Y57039552D02*
X80425484Y57111945D01*
X80425484Y57111945D02*
X80221507Y57188988D01*
X80221507Y57188988D02*
X80008013Y57287593D01*
X80008013Y57287593D02*
X79828604Y57392929D01*
X79828604Y57392929D02*
X79683240Y57505013D01*
X81350564Y56832222D02*
X81149986Y56903648D01*
X81149986Y56903648D02*
X80952502Y56958789D01*
X80952502Y56958789D02*
X80852439Y56984979D01*
X80486261Y56029423D02*
X80659511Y56169699D01*
X80659511Y56169699D02*
X80834248Y56322076D01*
X80834248Y56322076D02*
X81012822Y56484635D01*
X81012822Y56484635D02*
X81172957Y56636683D01*
X81172957Y56636683D02*
X81323752Y56792495D01*
X81323752Y56792495D02*
X81350564Y56832222D01*
X77958072Y55352818D02*
X78225943Y55337378D01*
X78225943Y55337378D02*
X78488005Y55338410D01*
X78488005Y55338410D02*
X78744060Y55355860D01*
X78744060Y55355860D02*
X78993907Y55389677D01*
X78993907Y55389677D02*
X79237348Y55439806D01*
X79237348Y55439806D02*
X79474185Y55506193D01*
X79474185Y55506193D02*
X79704219Y55588787D01*
X79704219Y55588787D02*
X79927251Y55687534D01*
X79927251Y55687534D02*
X80143083Y55802380D01*
X80143083Y55802380D02*
X80351515Y55933272D01*
X80351515Y55933272D02*
X80486261Y56029423D01*
X76462461Y55617552D02*
X76687549Y55561805D01*
X76687549Y55561805D02*
X76932679Y55512508D01*
X76932679Y55512508D02*
X77155705Y55471577D01*
X77155705Y55471577D02*
X77385550Y55432346D01*
X77385550Y55432346D02*
X77606422Y55397613D01*
X77606422Y55397613D02*
X77845833Y55364778D01*
X77845833Y55364778D02*
X77958072Y55352818D01*
X76861337Y55219851D02*
X76707851Y55348171D01*
X76707851Y55348171D02*
X76559646Y55484642D01*
X76559646Y55484642D02*
X76462461Y55617552D01*
X77015075Y54892252D02*
X76981098Y55098998D01*
X76981098Y55098998D02*
X76861337Y55219851D01*
X76588432Y54767213D02*
X76785701Y54831922D01*
X76785701Y54831922D02*
X76979922Y54886605D01*
X76979922Y54886605D02*
X77015075Y54892252D01*
X75974377Y54586209D02*
X76176536Y54638873D01*
X76176536Y54638873D02*
X76385200Y54700957D01*
X76385200Y54700957D02*
X76588432Y54767213D01*
X74420788Y54586473D02*
X74640391Y54556467D01*
X74640391Y54556467D02*
X74843571Y54540449D01*
X74843571Y54540449D02*
X75060479Y54531531D01*
X75060479Y54531531D02*
X75281225Y54529716D01*
X75281225Y54529716D02*
X75495918Y54535007D01*
X75495918Y54535007D02*
X75740708Y54551615D01*
X75740708Y54551615D02*
X75941271Y54579332D01*
X75941271Y54579332D02*
X75974377Y54586209D01*
X74094856Y54633278D02*
X74297556Y54607965D01*
X74297556Y54607965D02*
X74420788Y54586473D01*
X75267039Y53859874D02*
X75053115Y53991790D01*
X75053115Y53991790D02*
X74860803Y54113754D01*
X74860803Y54113754D02*
X74664432Y54240585D01*
X74664432Y54240585D02*
X74477625Y54363293D01*
X74477625Y54363293D02*
X74278323Y54497186D01*
X74278323Y54497186D02*
X74110835Y54616786D01*
X74110835Y54616786D02*
X74094856Y54633278D01*
X86390176Y49473633D02*
X85973040Y49586249D01*
X85973040Y49586249D02*
X85559259Y49700889D01*
X85559259Y49700889D02*
X85148948Y49817508D01*
X85148948Y49817508D02*
X84742217Y49936062D01*
X84742217Y49936062D02*
X84339182Y50056505D01*
X84339182Y50056505D02*
X83939954Y50178794D01*
X83939954Y50178794D02*
X83544647Y50302883D01*
X83544647Y50302883D02*
X83153375Y50428728D01*
X83153375Y50428728D02*
X82766249Y50556284D01*
X82766249Y50556284D02*
X82383383Y50685508D01*
X82383383Y50685508D02*
X82004891Y50816353D01*
X82004891Y50816353D02*
X81630885Y50948777D01*
X81630885Y50948777D02*
X81261478Y51082733D01*
X81261478Y51082733D02*
X80896784Y51218178D01*
X80896784Y51218178D02*
X80536915Y51355067D01*
X80536915Y51355067D02*
X80181985Y51493355D01*
X80181985Y51493355D02*
X79832106Y51632997D01*
X79832106Y51632997D02*
X79487393Y51773950D01*
X79487393Y51773950D02*
X79147957Y51916168D01*
X79147957Y51916168D02*
X78813913Y52059607D01*
X78813913Y52059607D02*
X78485372Y52204222D01*
X78485372Y52204222D02*
X78162449Y52349970D01*
X78162449Y52349970D02*
X77845256Y52496804D01*
X77845256Y52496804D02*
X77533906Y52644680D01*
X77533906Y52644680D02*
X77228513Y52793555D01*
X77228513Y52793555D02*
X76929189Y52943383D01*
X76929189Y52943383D02*
X76636048Y53094120D01*
X76636048Y53094120D02*
X76349202Y53245721D01*
X76349202Y53245721D02*
X76068765Y53398141D01*
X76068765Y53398141D02*
X75794850Y53551336D01*
X75794850Y53551336D02*
X75527570Y53705262D01*
X75527570Y53705262D02*
X75267039Y53859874D01*
X97355049Y47928723D02*
X97077479Y47861603D01*
X97077479Y47861603D02*
X96720127Y47819889D01*
X96720127Y47819889D02*
X96513235Y47808318D01*
X96513235Y47808318D02*
X96288440Y47802811D01*
X96288440Y47802811D02*
X96046423Y47803272D01*
X96046423Y47803272D02*
X95787864Y47809604D01*
X95787864Y47809604D02*
X95513444Y47821712D01*
X95513444Y47821712D02*
X95223845Y47839499D01*
X95223845Y47839499D02*
X94919747Y47862871D01*
X94919747Y47862871D02*
X94601831Y47891730D01*
X94601831Y47891730D02*
X94270777Y47925981D01*
X94270777Y47925981D02*
X93927267Y47965528D01*
X93927267Y47965528D02*
X93571981Y48010275D01*
X93571981Y48010275D02*
X93205601Y48060126D01*
X93205601Y48060126D02*
X92828806Y48114986D01*
X92828806Y48114986D02*
X92442279Y48174757D01*
X92442279Y48174757D02*
X92046699Y48239346D01*
X92046699Y48239346D02*
X91642748Y48308654D01*
X91642748Y48308654D02*
X91231106Y48382587D01*
X91231106Y48382587D02*
X90812454Y48461049D01*
X90812454Y48461049D02*
X90387473Y48543943D01*
X90387473Y48543943D02*
X89956844Y48631174D01*
X89956844Y48631174D02*
X89521247Y48722646D01*
X89521247Y48722646D02*
X89081364Y48818262D01*
X89081364Y48818262D02*
X88637875Y48917928D01*
X88637875Y48917928D02*
X88191462Y49021547D01*
X88191462Y49021547D02*
X87742804Y49129022D01*
X87742804Y49129022D02*
X87292584Y49240259D01*
X87292584Y49240259D02*
X86841480Y49355161D01*
X86841480Y49355161D02*
X86390176Y49473633D01*
X97529269Y47968059D02*
X97355049Y47928723D01*
X97506594Y47515735D02*
X97522622Y47725638D01*
X97522622Y47725638D02*
X97532052Y47927791D01*
X97532052Y47927791D02*
X97529269Y47968059D01*
X96220553Y44397708D02*
X96423369Y44615422D01*
X96423369Y44615422D02*
X96608688Y44847407D01*
X96608688Y44847407D02*
X96776676Y45094065D01*
X96776676Y45094065D02*
X96879121Y45266854D01*
X96879121Y45266854D02*
X96973987Y45446463D01*
X96973987Y45446463D02*
X97061322Y45633012D01*
X97061322Y45633012D02*
X97141176Y45826619D01*
X97141176Y45826619D02*
X97213599Y46027405D01*
X97213599Y46027405D02*
X97278638Y46235488D01*
X97278638Y46235488D02*
X97336345Y46450989D01*
X97336345Y46450989D02*
X97386767Y46674027D01*
X97386767Y46674027D02*
X97429954Y46904720D01*
X97429954Y46904720D02*
X97465956Y47143190D01*
X97465956Y47143190D02*
X97494821Y47389554D01*
X97494821Y47389554D02*
X97506594Y47515735D01*
X93223559Y43110489D02*
X93457308Y43139740D01*
X93457308Y43139740D02*
X93685304Y43176006D01*
X93685304Y43176006D02*
X93907452Y43219247D01*
X93907452Y43219247D02*
X94123658Y43269421D01*
X94123658Y43269421D02*
X94333830Y43326490D01*
X94333830Y43326490D02*
X94537872Y43390411D01*
X94537872Y43390411D02*
X94735691Y43461146D01*
X94735691Y43461146D02*
X94927194Y43538654D01*
X94927194Y43538654D02*
X95112286Y43622895D01*
X95112286Y43622895D02*
X95290874Y43713827D01*
X95290874Y43713827D02*
X95546354Y43862687D01*
X95546354Y43862687D02*
X95786672Y44026377D01*
X95786672Y44026377D02*
X96011510Y44204763D01*
X96011510Y44204763D02*
X96220553Y44397708D01*
X92858450Y43057993D02*
X93070419Y43092567D01*
X93070419Y43092567D02*
X93223559Y43110489D01*
X93422507Y42797690D02*
X93228215Y42866407D01*
X93228215Y42866407D02*
X93039747Y42946400D01*
X93039747Y42946400D02*
X92860698Y43047464D01*
X92860698Y43047464D02*
X92858450Y43057993D01*
X94826669Y42578208D02*
X94592618Y42601396D01*
X94592618Y42601396D02*
X94373590Y42626063D01*
X94373590Y42626063D02*
X94170436Y42652077D01*
X94170436Y42652077D02*
X93940109Y42686285D01*
X93940109Y42686285D02*
X93737572Y42722130D01*
X93737572Y42722130D02*
X93533547Y42766938D01*
X93533547Y42766938D02*
X93422507Y42797690D01*
X95277461Y42528371D02*
X95074461Y42553833D01*
X95074461Y42553833D02*
X94871640Y42573990D01*
X94871640Y42573990D02*
X94826669Y42578208D01*
X94939657Y41683710D02*
X95027481Y41866207D01*
X95027481Y41866207D02*
X95117449Y42071190D01*
X95117449Y42071190D02*
X95197461Y42268401D01*
X95197461Y42268401D02*
X95267740Y42466963D01*
X95267740Y42466963D02*
X95277461Y42528371D01*
X92062657Y39754810D02*
X92312619Y39789974D01*
X92312619Y39789974D02*
X92552582Y39836090D01*
X92552582Y39836090D02*
X92782682Y39893251D01*
X92782682Y39893251D02*
X93003060Y39961550D01*
X93003060Y39961550D02*
X93213853Y40041079D01*
X93213853Y40041079D02*
X93415201Y40131932D01*
X93415201Y40131932D02*
X93607241Y40234202D01*
X93607241Y40234202D02*
X93790113Y40347981D01*
X93790113Y40347981D02*
X93963955Y40473363D01*
X93963955Y40473363D02*
X94128906Y40610439D01*
X94128906Y40610439D02*
X94285104Y40759305D01*
X94285104Y40759305D02*
X94432688Y40920051D01*
X94432688Y40920051D02*
X94571797Y41092772D01*
X94571797Y41092772D02*
X94702569Y41277560D01*
X94702569Y41277560D02*
X94825142Y41474508D01*
X94825142Y41474508D02*
X94939657Y41683710D01*
X89909848Y39828219D02*
X90161584Y39795695D01*
X90161584Y39795695D02*
X90369364Y39775144D01*
X90369364Y39775144D02*
X90588021Y39758069D01*
X90588021Y39758069D02*
X90812703Y39744637D01*
X90812703Y39744637D02*
X91038559Y39735012D01*
X91038559Y39735012D02*
X91260736Y39729359D01*
X91260736Y39729359D02*
X91474385Y39727845D01*
X91474385Y39727845D02*
X91674653Y39730635D01*
X91674653Y39730635D02*
X91912477Y39741335D01*
X91912477Y39741335D02*
X92062657Y39754810D01*
X89401102Y39882866D02*
X89613634Y39868543D01*
X89613634Y39868543D02*
X89835343Y39839219D01*
X89835343Y39839219D02*
X89909848Y39828219D01*
X89765016Y39482652D02*
X89596053Y39620953D01*
X89596053Y39620953D02*
X89454709Y39772076D01*
X89454709Y39772076D02*
X89401102Y39882866D01*
X90088797Y39325404D02*
X89898019Y39404878D01*
X89898019Y39404878D02*
X89765016Y39482652D01*
X90240556Y39261338D02*
X90088797Y39325404D01*
X89467809Y38578449D02*
X89629264Y38696825D01*
X89629264Y38696825D02*
X89786776Y38824336D01*
X89786776Y38824336D02*
X89945213Y38960455D01*
X89945213Y38960455D02*
X90110223Y39111886D01*
X90110223Y39111886D02*
X90240556Y39261338D01*
X84376533Y38333333D02*
X84742434Y38216624D01*
X84742434Y38216624D02*
X85106050Y38117715D01*
X85106050Y38117715D02*
X85466508Y38036564D01*
X85466508Y38036564D02*
X85822934Y37973129D01*
X85822934Y37973129D02*
X86174455Y37927368D01*
X86174455Y37927368D02*
X86520199Y37899239D01*
X86520199Y37899239D02*
X86859292Y37888699D01*
X86859292Y37888699D02*
X87190862Y37895708D01*
X87190862Y37895708D02*
X87514035Y37920222D01*
X87514035Y37920222D02*
X87827938Y37962199D01*
X87827938Y37962199D02*
X88131699Y38021599D01*
X88131699Y38021599D02*
X88424444Y38098378D01*
X88424444Y38098378D02*
X88705300Y38192494D01*
X88705300Y38192494D02*
X88973395Y38303906D01*
X88973395Y38303906D02*
X89227856Y38432572D01*
X89227856Y38432572D02*
X89467809Y38578449D01*
X83847070Y38527728D02*
X84048827Y38448979D01*
X84048827Y38448979D02*
X84259340Y38373887D01*
X84259340Y38373887D02*
X84376533Y38333333D01*
X83814087Y38499550D02*
X83847070Y38527728D01*
X84502823Y37754475D02*
X84334475Y37914346D01*
X84334475Y37914346D02*
X84172333Y38082798D01*
X84172333Y38082798D02*
X84012010Y38257626D01*
X84012010Y38257626D02*
X83866376Y38427339D01*
X83866376Y38427339D02*
X83814087Y38499550D01*
X85030725Y37445336D02*
X84836079Y37527606D01*
X84836079Y37527606D02*
X84658827Y37636541D01*
X84658827Y37636541D02*
X84502823Y37754475D01*
X81897723Y36011149D02*
X82144486Y36034750D01*
X82038653Y35890454D02*
X81897723Y36011149D01*
X82144486Y36034750D02*
X82401440Y36065936D01*
X82401440Y36065936D02*
X82649034Y36110317D01*
X82649034Y36110317D02*
X82891010Y36169570D01*
X82891010Y36169570D02*
X83131111Y36245375D01*
X83131111Y36245375D02*
X83373079Y36339409D01*
X83373079Y36339409D02*
X83620657Y36453351D01*
X83620657Y36453351D02*
X83877588Y36588880D01*
X83877588Y36588880D02*
X84055919Y36692055D01*
X84055919Y36692055D02*
X84241180Y36806067D01*
X84241180Y36806067D02*
X84434478Y36931414D01*
X84434478Y36931414D02*
X84636924Y37068594D01*
X84636924Y37068594D02*
X84849625Y37218104D01*
X84849625Y37218104D02*
X84960169Y37297638D01*
X83484863Y35295419D02*
X83225759Y35323624D01*
X83326113Y35122694D02*
X83484863Y35295419D01*
X83225759Y35323624D02*
X82994013Y35362788D01*
X82994013Y35362788D02*
X82772527Y35430050D01*
X82772527Y35430050D02*
X82555874Y35528001D01*
X82555874Y35528001D02*
X82375105Y35634939D01*
X82375105Y35634939D02*
X82190781Y35766488D01*
X82190781Y35766488D02*
X82038653Y35890454D01*
X80875944Y33882139D02*
X80998597Y33914289D01*
X81580680Y33438394D02*
X80875944Y33882139D01*
X80998597Y33914289D02*
X81272435Y33992094D01*
X81272435Y33992094D02*
X81540135Y34080031D01*
X81540135Y34080031D02*
X81799839Y34177132D01*
X81799839Y34177132D02*
X82049686Y34282434D01*
X82049686Y34282434D02*
X82287815Y34394969D01*
X82287815Y34394969D02*
X82512368Y34513772D01*
X82512368Y34513772D02*
X82721483Y34637878D01*
X82721483Y34637878D02*
X82913302Y34766321D01*
X82913302Y34766321D02*
X83085964Y34898135D01*
X83085964Y34898135D02*
X83237610Y35032354D01*
X83237610Y35032354D02*
X83326113Y35122694D01*
X95927765Y23837289D02*
X96378805Y23860122D01*
X96243418Y23610636D02*
X95927765Y23837289D01*
X85817821Y31116987D02*
X85540655Y31249649D01*
X85540655Y31249649D02*
X85264971Y31384058D01*
X85264971Y31384058D02*
X84990804Y31520195D01*
X84990804Y31520195D02*
X84718188Y31658041D01*
X84718188Y31658041D02*
X84447158Y31797575D01*
X84447158Y31797575D02*
X84177751Y31938779D01*
X84177751Y31938779D02*
X83910002Y32081634D01*
X83910002Y32081634D02*
X83643946Y32226119D01*
X83643946Y32226119D02*
X83379618Y32372216D01*
X83379618Y32372216D02*
X83117053Y32519905D01*
X83117053Y32519905D02*
X82856288Y32669167D01*
X82856288Y32669167D02*
X82597356Y32819983D01*
X82597356Y32819983D02*
X82340294Y32972332D01*
X82340294Y32972332D02*
X82085137Y33126197D01*
X82085137Y33126197D02*
X81831921Y33281557D01*
X81831921Y33281557D02*
X81580680Y33438394D01*
X98468484Y27147433D02*
X98098830Y27203104D01*
X98098830Y27203104D02*
X97725479Y27263827D01*
X97725479Y27263827D02*
X97348634Y27329538D01*
X97348634Y27329538D02*
X96968499Y27400172D01*
X96968499Y27400172D02*
X96585279Y27475667D01*
X96585279Y27475667D02*
X96199178Y27555957D01*
X96199178Y27555957D02*
X95810399Y27640979D01*
X95810399Y27640979D02*
X95419147Y27730668D01*
X95419147Y27730668D02*
X95025626Y27824961D01*
X95025626Y27824961D02*
X94630040Y27923794D01*
X94630040Y27923794D02*
X94232594Y28027102D01*
X94232594Y28027102D02*
X93833490Y28134821D01*
X93833490Y28134821D02*
X93432934Y28246888D01*
X93432934Y28246888D02*
X93031130Y28363239D01*
X93031130Y28363239D02*
X92628281Y28483808D01*
X92628281Y28483808D02*
X92224591Y28608533D01*
X92224591Y28608533D02*
X91820265Y28737349D01*
X91820265Y28737349D02*
X91415508Y28870192D01*
X91415508Y28870192D02*
X91010522Y29006998D01*
X91010522Y29006998D02*
X90605512Y29147704D01*
X90605512Y29147704D02*
X90200682Y29292244D01*
X90200682Y29292244D02*
X89796237Y29440556D01*
X89796237Y29440556D02*
X89392380Y29592574D01*
X89392380Y29592574D02*
X88989315Y29748236D01*
X88989315Y29748236D02*
X88587248Y29907476D01*
X88587248Y29907476D02*
X88186380Y30070231D01*
X88186380Y30070231D02*
X87786918Y30236437D01*
X87786918Y30236437D02*
X87389064Y30406030D01*
X87389064Y30406030D02*
X86993024Y30578945D01*
X86993024Y30578945D02*
X86599000Y30755119D01*
X86599000Y30755119D02*
X86207198Y30934487D01*
X86207198Y30934487D02*
X85817821Y31116987D01*
X100611419Y26916949D02*
X100386011Y26930016D01*
X100386011Y26930016D02*
X100147115Y26951125D01*
X100147115Y26951125D02*
X99934876Y26972018D01*
X99934876Y26972018D02*
X99703173Y26996294D01*
X99703173Y26996294D02*
X99459993Y27023094D01*
X99459993Y27023094D02*
X99213325Y27051559D01*
X99213325Y27051559D02*
X98971158Y27080829D01*
X98971158Y27080829D02*
X98741482Y27110046D01*
X98741482Y27110046D02*
X98532284Y27138349D01*
X98532284Y27138349D02*
X98468484Y27147433D01*
X100696800Y26632310D02*
X100747327Y26831822D01*
X100747327Y26831822D02*
X100611419Y26916949D01*
X99728060Y25105815D02*
X99883388Y25258857D01*
X99883388Y25258857D02*
X100034113Y25430850D01*
X100034113Y25430850D02*
X100177646Y25617714D01*
X100177646Y25617714D02*
X100311396Y25815369D01*
X100311396Y25815369D02*
X100432776Y26019736D01*
X100432776Y26019736D02*
X100539196Y26226734D01*
X100539196Y26226734D02*
X100628067Y26432286D01*
X100628067Y26432286D02*
X100696800Y26632310D01*
X98711912Y24413504D02*
X98904058Y24517460D01*
X98904058Y24517460D02*
X99107462Y24641528D01*
X99107462Y24641528D02*
X99277771Y24754969D01*
X99277771Y24754969D02*
X99442142Y24873004D01*
X99442142Y24873004D02*
X99622746Y25014712D01*
X99622746Y25014712D02*
X99728060Y25105815D01*
X96378805Y23860122D02*
X96616882Y23876505D01*
X96616882Y23876505D02*
X96855837Y23901390D01*
X96855837Y23901390D02*
X97093982Y23934376D01*
X97093982Y23934376D02*
X97329626Y23975063D01*
X97329626Y23975063D02*
X97561079Y24023049D01*
X97561079Y24023049D02*
X97786651Y24077934D01*
X97786651Y24077934D02*
X98004652Y24139317D01*
X98004652Y24139317D02*
X98213393Y24206797D01*
X98213393Y24206797D02*
X98411184Y24279973D01*
X98411184Y24279973D02*
X98596335Y24358445D01*
X98596335Y24358445D02*
X98711912Y24413504D01*
X92926728Y22073915D02*
X93991351Y22095135D01*
X94502878Y21547772D02*
X92926728Y22073915D01*
X96924564Y23283333D02*
X96725721Y23318896D01*
X96725721Y23318896D02*
X96524780Y23420451D01*
X96524780Y23420451D02*
X96338970Y23542977D01*
X96338970Y23542977D02*
X96243418Y23610636D01*
X97048836Y23256875D02*
X96924564Y23283333D01*
X96661822Y22680962D02*
X96800675Y22843859D01*
X96800675Y22843859D02*
X96924813Y23018449D01*
X96924813Y23018449D02*
X97032266Y23203698D01*
X97032266Y23203698D02*
X97048836Y23256875D01*
X95878274Y22261949D02*
X96092738Y22329072D01*
X96092738Y22329072D02*
X96278494Y22407479D01*
X96278494Y22407479D02*
X96462507Y22514580D01*
X96462507Y22514580D02*
X96624021Y22644439D01*
X96624021Y22644439D02*
X96661822Y22680962D01*
X93991351Y22095135D02*
X94192733Y22099440D01*
X94192733Y22099440D02*
X94463387Y22106494D01*
X94463387Y22106494D02*
X94700092Y22114596D01*
X94700092Y22114596D02*
X94907070Y22124120D01*
X94907070Y22124120D02*
X95144098Y22139675D01*
X95144098Y22139675D02*
X95345794Y22159306D01*
X95345794Y22159306D02*
X95563478Y22190923D01*
X95563478Y22190923D02*
X95761147Y22232021D01*
X95761147Y22232021D02*
X95878274Y22261949D01*
X91977980Y17969569D02*
X91488392Y18205524D01*
X91788366Y17803625D02*
X91977980Y17969569D01*
X96325973Y20956675D02*
X96105722Y21023409D01*
X96105722Y21023409D02*
X95864282Y21100351D01*
X95864282Y21100351D02*
X95625567Y21177554D01*
X95625567Y21177554D02*
X95424861Y21242994D01*
X95424861Y21242994D02*
X95209084Y21313759D01*
X95209084Y21313759D02*
X94981391Y21388825D01*
X94981391Y21388825D02*
X94744937Y21467170D01*
X94744937Y21467170D02*
X94502878Y21547772D01*
X96567874Y20834289D02*
X96389196Y20939312D01*
X96389196Y20939312D02*
X96325973Y20956675D01*
X96061390Y20106619D02*
X96201326Y20259147D01*
X96201326Y20259147D02*
X96330202Y20418179D01*
X96330202Y20418179D02*
X96454938Y20595212D01*
X96454938Y20595212D02*
X96553440Y20778718D01*
X96553440Y20778718D02*
X96567874Y20834289D01*
X90965208Y18748251D02*
X91320129Y18700705D01*
X91320129Y18700705D02*
X91679279Y18673239D01*
X91679279Y18673239D02*
X92040711Y18665335D01*
X92040711Y18665335D02*
X92402478Y18676473D01*
X92402478Y18676473D02*
X92762634Y18706135D01*
X92762634Y18706135D02*
X93119232Y18753802D01*
X93119232Y18753802D02*
X93470328Y18818956D01*
X93470328Y18818956D02*
X93813973Y18901077D01*
X93813973Y18901077D02*
X94148223Y18999646D01*
X94148223Y18999646D02*
X94471130Y19114146D01*
X94471130Y19114146D02*
X94780748Y19244056D01*
X94780748Y19244056D02*
X95075131Y19388859D01*
X95075131Y19388859D02*
X95352333Y19548036D01*
X95352333Y19548036D02*
X95610408Y19721067D01*
X95610408Y19721067D02*
X95847409Y19907434D01*
X95847409Y19907434D02*
X96061390Y20106619D01*
X90637513Y18788436D02*
X90841574Y18767460D01*
X90841574Y18767460D02*
X90965208Y18748251D01*
X90812337Y18609133D02*
X90667726Y18748058D01*
X90667726Y18748058D02*
X90637513Y18788436D01*
X91488392Y18205524D02*
X91288721Y18305478D01*
X91288721Y18305478D02*
X91096021Y18411721D01*
X91096021Y18411721D02*
X90924514Y18521041D01*
X90924514Y18521041D02*
X90812337Y18609133D01*
X87365419Y17224179D02*
X87612363Y17201769D01*
X87767380Y16937649D02*
X87365419Y17224179D01*
X90046530Y17148675D02*
X90249862Y17177722D01*
X90249862Y17177722D02*
X90447319Y17214368D01*
X90447319Y17214368D02*
X90700012Y17274509D01*
X90700012Y17274509D02*
X90938803Y17346860D01*
X90938803Y17346860D02*
X91161716Y17430677D01*
X91161716Y17430677D02*
X91366776Y17525220D01*
X91366776Y17525220D02*
X91552010Y17629744D01*
X91552010Y17629744D02*
X91752662Y17773307D01*
X91752662Y17773307D02*
X91788366Y17803625D01*
X87612363Y17201769D02*
X87820332Y17183514D01*
X87820332Y17183514D02*
X88019791Y17167274D01*
X88019791Y17167274D02*
X88303524Y17146681D01*
X88303524Y17146681D02*
X88569394Y17130592D01*
X88569394Y17130592D02*
X88818172Y17118993D01*
X88818172Y17118993D02*
X89050628Y17111865D01*
X89050628Y17111865D02*
X89267532Y17109191D01*
X89267532Y17109191D02*
X89469654Y17110956D01*
X89469654Y17110956D02*
X89717489Y17120183D01*
X89717489Y17120183D02*
X89942240Y17137231D01*
X89942240Y17137231D02*
X90046530Y17148675D01*
X75797902Y13705417D02*
X76307630Y13726451D01*
X76508711Y12979469D02*
X75797902Y13705417D01*
X88190713Y16650576D02*
X88011745Y16766375D01*
X88011745Y16766375D02*
X87828629Y16894156D01*
X87828629Y16894156D02*
X87767380Y16937649D01*
X88262754Y16617971D02*
X88190713Y16650576D01*
X87210702Y15647808D02*
X87391610Y15752075D01*
X87391610Y15752075D02*
X87584338Y15885116D01*
X87584338Y15885116D02*
X87775919Y16034974D01*
X87775919Y16034974D02*
X87953385Y16189689D01*
X87953385Y16189689D02*
X88103768Y16337304D01*
X88103768Y16337304D02*
X88233909Y16493622D01*
X88233909Y16493622D02*
X88262754Y16617971D01*
X84726023Y15484221D02*
X84996478Y15422353D01*
X84996478Y15422353D02*
X85257583Y15376354D01*
X85257583Y15376354D02*
X85509888Y15346259D01*
X85509888Y15346259D02*
X85753943Y15332106D01*
X85753943Y15332106D02*
X85990296Y15333930D01*
X85990296Y15333930D02*
X86219498Y15351767D01*
X86219498Y15351767D02*
X86442099Y15385655D01*
X86442099Y15385655D02*
X86658647Y15435628D01*
X86658647Y15435628D02*
X86869693Y15501723D01*
X86869693Y15501723D02*
X87075786Y15583977D01*
X87075786Y15583977D02*
X87210702Y15647808D01*
X83014526Y16121258D02*
X83236867Y16023828D01*
X83236867Y16023828D02*
X83438971Y15936967D01*
X83438971Y15936967D02*
X83681409Y15835935D01*
X83681409Y15835935D02*
X83898542Y15749720D01*
X83898542Y15749720D02*
X84096470Y15676049D01*
X84096470Y15676049D02*
X84326162Y15598144D01*
X84326162Y15598144D02*
X84547287Y15531860D01*
X84547287Y15531860D02*
X84726023Y15484221D01*
X82323800Y16363871D02*
X82529128Y16331124D01*
X82529128Y16331124D02*
X82751492Y16236657D01*
X82751492Y16236657D02*
X82955762Y16147182D01*
X82955762Y16147182D02*
X83014526Y16121258D01*
X82369983Y16127053D02*
X82336682Y16326981D01*
X82336682Y16326981D02*
X82323800Y16363871D01*
X82514723Y15847737D02*
X82387396Y16009527D01*
X82387396Y16009527D02*
X82369983Y16127053D01*
X82646068Y15740592D02*
X82514723Y15847737D01*
X81910169Y15242021D02*
X82087848Y15334535D01*
X82087848Y15334535D02*
X82275538Y15446691D01*
X82275538Y15446691D02*
X82447738Y15561213D01*
X82447738Y15561213D02*
X82609172Y15687731D01*
X82609172Y15687731D02*
X82646068Y15740592D01*
X76642854Y16019534D02*
X76854137Y15916704D01*
X76854137Y15916704D02*
X77062191Y15818973D01*
X77062191Y15818973D02*
X77267038Y15726338D01*
X77267038Y15726338D02*
X77468700Y15638794D01*
X77468700Y15638794D02*
X77667198Y15556340D01*
X77667198Y15556340D02*
X77862555Y15478972D01*
X77862555Y15478972D02*
X78054791Y15406686D01*
X78054791Y15406686D02*
X78243929Y15339480D01*
X78243929Y15339480D02*
X78612996Y15220293D01*
X78612996Y15220293D02*
X78969930Y15121385D01*
X78969930Y15121385D02*
X79314904Y15042731D01*
X79314904Y15042731D02*
X79648093Y14984305D01*
X79648093Y14984305D02*
X79969670Y14946081D01*
X79969670Y14946081D02*
X80279809Y14928033D01*
X80279809Y14928033D02*
X80578683Y14930137D01*
X80578683Y14930137D02*
X80866467Y14952366D01*
X80866467Y14952366D02*
X81143333Y14994694D01*
X81143333Y14994694D02*
X81409456Y15057096D01*
X81409456Y15057096D02*
X81665010Y15139547D01*
X81665010Y15139547D02*
X81910169Y15242021D01*
X76136680Y16263058D02*
X76327118Y16174207D01*
X76327118Y16174207D02*
X76519822Y16080209D01*
X76519822Y16080209D02*
X76642854Y16019534D01*
X76816508Y15503758D02*
X76661245Y15644172D01*
X76661245Y15644172D02*
X76502980Y15800161D01*
X76502980Y15800161D02*
X76356144Y15955606D01*
X76356144Y15955606D02*
X76215345Y16118731D01*
X76215345Y16118731D02*
X76136680Y16263058D01*
X78828196Y14301459D02*
X78628595Y14383832D01*
X78628595Y14383832D02*
X78447735Y14471157D01*
X78447735Y14471157D02*
X78247516Y14575985D01*
X78247516Y14575985D02*
X78034553Y14694364D01*
X78034553Y14694364D02*
X77815460Y14822339D01*
X77815460Y14822339D02*
X77596851Y14955959D01*
X77596851Y14955959D02*
X77385342Y15091269D01*
X77385342Y15091269D02*
X77187546Y15224317D01*
X77187546Y15224317D02*
X77010078Y15351149D01*
X77010078Y15351149D02*
X76816508Y15503758D01*
X78483031Y14118193D02*
X78682197Y14183498D01*
X78682197Y14183498D02*
X78872330Y14260858D01*
X78872330Y14260858D02*
X78828196Y14301459D01*
X76307630Y13726451D02*
X76527662Y13737782D01*
X76527662Y13737782D02*
X76739181Y13753433D01*
X76739181Y13753433D02*
X76943981Y13773728D01*
X76943981Y13773728D02*
X77143856Y13798990D01*
X77143856Y13798990D02*
X77405800Y13840957D01*
X77405800Y13840957D02*
X77666434Y13893095D01*
X77666434Y13893095D02*
X77863610Y13939334D01*
X77863610Y13939334D02*
X78064239Y13992047D01*
X78064239Y13992047D02*
X78270114Y14051559D01*
X78270114Y14051559D02*
X78483031Y14118193D01*
X77873000Y11720634D02*
X77786153Y11789127D01*
X77782301Y11584138D02*
X77873000Y11720634D01*
X77786153Y11789127D02*
X77611772Y11929776D01*
X77611772Y11929776D02*
X77443277Y12073032D01*
X77443277Y12073032D02*
X77270285Y12228566D01*
X77270285Y12228566D02*
X77121679Y12368335D01*
X77121679Y12368335D02*
X76958235Y12527105D01*
X76958235Y12527105D02*
X76774640Y12709831D01*
X76774640Y12709831D02*
X76620522Y12865574D01*
X76620522Y12865574D02*
X76508711Y12979469D01*
X60589583Y14366208D02*
X60827608Y14083996D01*
X60561781Y14141635D02*
X60589583Y14366208D01*
X76640973Y10615986D02*
X76851616Y10726799D01*
X76851616Y10726799D02*
X77054759Y10856387D01*
X77054759Y10856387D02*
X77247358Y11002167D01*
X77247358Y11002167D02*
X77426365Y11161554D01*
X77426365Y11161554D02*
X77588734Y11331964D01*
X77588734Y11331964D02*
X77731420Y11510813D01*
X77731420Y11510813D02*
X77782301Y11584138D01*
X73025000Y10550356D02*
X73312789Y10484506D01*
X73312789Y10484506D02*
X73591498Y10427968D01*
X73591498Y10427968D02*
X73861308Y10380745D01*
X73861308Y10380745D02*
X74122398Y10342840D01*
X74122398Y10342840D02*
X74374948Y10314256D01*
X74374948Y10314256D02*
X74619140Y10294997D01*
X74619140Y10294997D02*
X74855153Y10285066D01*
X74855153Y10285066D02*
X75083167Y10284467D01*
X75083167Y10284467D02*
X75303363Y10293202D01*
X75303363Y10293202D02*
X75515922Y10311274D01*
X75515922Y10311274D02*
X75721023Y10338688D01*
X75721023Y10338688D02*
X75918846Y10375446D01*
X75918846Y10375446D02*
X76202331Y10448110D01*
X76202331Y10448110D02*
X76470455Y10541818D01*
X76470455Y10541818D02*
X76640973Y10615986D01*
X71371838Y11032937D02*
X71587205Y10961779D01*
X71587205Y10961779D02*
X71794789Y10897782D01*
X71794789Y10897782D02*
X72033341Y10826445D01*
X72033341Y10826445D02*
X72285517Y10752831D01*
X72285517Y10752831D02*
X72533972Y10682004D01*
X72533972Y10682004D02*
X72761360Y10619027D01*
X72761360Y10619027D02*
X72989546Y10559058D01*
X72989546Y10559058D02*
X73025000Y10550356D01*
X71491705Y10862755D02*
X71365867Y11019778D01*
X71365867Y11019778D02*
X71371838Y11032937D01*
X71860833Y10400014D02*
X71744308Y10570223D01*
X71744308Y10570223D02*
X71609641Y10731407D01*
X71609641Y10731407D02*
X71491705Y10862755D01*
X71620348Y10271263D02*
X71805740Y10363249D01*
X71805740Y10363249D02*
X71860833Y10400014D01*
X68756390Y10300081D02*
X68991793Y10196462D01*
X68991793Y10196462D02*
X69245441Y10113608D01*
X69245441Y10113608D02*
X69513388Y10051559D01*
X69513388Y10051559D02*
X69791689Y10010353D01*
X69791689Y10010353D02*
X70076398Y9990031D01*
X70076398Y9990031D02*
X70363570Y9990633D01*
X70363570Y9990633D02*
X70649260Y10012198D01*
X70649260Y10012198D02*
X70929522Y10054766D01*
X70929522Y10054766D02*
X71200411Y10118376D01*
X71200411Y10118376D02*
X71457982Y10203069D01*
X71457982Y10203069D02*
X71620348Y10271263D01*
X67163961Y11307620D02*
X67342541Y11181216D01*
X67342541Y11181216D02*
X67543597Y11046851D01*
X67543597Y11046851D02*
X67716324Y10934287D01*
X67716324Y10934287D02*
X67899274Y10817042D01*
X67899274Y10817042D02*
X68084726Y10700004D01*
X68084726Y10700004D02*
X68264959Y10588056D01*
X68264959Y10588056D02*
X68483806Y10455155D01*
X68483806Y10455155D02*
X68661349Y10351568D01*
X68661349Y10351568D02*
X68756390Y10300081D01*
X65584118Y13103958D02*
X65730539Y12887174D01*
X65730539Y12887174D02*
X65877942Y12679681D01*
X65877942Y12679681D02*
X66026107Y12481729D01*
X66026107Y12481729D02*
X66174815Y12293564D01*
X66174815Y12293564D02*
X66323848Y12115437D01*
X66323848Y12115437D02*
X66472988Y11947594D01*
X66472988Y11947594D02*
X66622015Y11790285D01*
X66622015Y11790285D02*
X66770713Y11643758D01*
X66770713Y11643758D02*
X66918861Y11508261D01*
X66918861Y11508261D02*
X67115160Y11345186D01*
X67115160Y11345186D02*
X67163961Y11307620D01*
X65467017Y13035137D02*
X65395178Y13245826D01*
X65395178Y13245826D02*
X65584118Y13103958D01*
X66374142Y11466216D02*
X66241685Y11616534D01*
X66241685Y11616534D02*
X66120227Y11784591D01*
X66120227Y11784591D02*
X65991538Y11983827D01*
X65991538Y11983827D02*
X65861655Y12203799D01*
X65861655Y12203799D02*
X65736615Y12434067D01*
X65736615Y12434067D02*
X65622455Y12664188D01*
X65622455Y12664188D02*
X65525214Y12883719D01*
X65525214Y12883719D02*
X65467017Y13035137D01*
X66463333Y11347979D02*
X66374142Y11466216D01*
X65034583Y11430831D02*
X65258814Y11394454D01*
X65258814Y11394454D02*
X65480498Y11369133D01*
X65480498Y11369133D02*
X65718398Y11348412D01*
X65718398Y11348412D02*
X65952774Y11333436D01*
X65952774Y11333436D02*
X66163885Y11325349D01*
X66163885Y11325349D02*
X66364988Y11326672D01*
X66364988Y11326672D02*
X66463333Y11347979D01*
X61470138Y13412909D02*
X61674854Y13221866D01*
X61674854Y13221866D02*
X61882524Y13039476D01*
X61882524Y13039476D02*
X62093031Y12865803D01*
X62093031Y12865803D02*
X62306257Y12700911D01*
X62306257Y12700911D02*
X62522085Y12544867D01*
X62522085Y12544867D02*
X62740400Y12397733D01*
X62740400Y12397733D02*
X62961084Y12259577D01*
X62961084Y12259577D02*
X63184020Y12130462D01*
X63184020Y12130462D02*
X63409092Y12010453D01*
X63409092Y12010453D02*
X63636183Y11899616D01*
X63636183Y11899616D02*
X63865175Y11798015D01*
X63865175Y11798015D02*
X64095953Y11705716D01*
X64095953Y11705716D02*
X64328400Y11622783D01*
X64328400Y11622783D02*
X64562398Y11549281D01*
X64562398Y11549281D02*
X64797831Y11485275D01*
X64797831Y11485275D02*
X65034583Y11430831D01*
X60827608Y14083996D02*
X60970608Y13923426D01*
X60970608Y13923426D02*
X61114533Y13770450D01*
X61114533Y13770450D02*
X61271603Y13609053D01*
X61271603Y13609053D02*
X61427696Y13453986D01*
X61427696Y13453986D02*
X61470138Y13412909D01*
X54363056Y0D02*
X54363056Y5276405D01*
X60154256Y13305208D02*
X60301931Y13479859D01*
X60301931Y13479859D02*
X60409706Y13658914D01*
X60409706Y13658914D02*
X60493117Y13853526D01*
X60493117Y13853526D02*
X60548012Y14055173D01*
X60548012Y14055173D02*
X60561781Y14141635D01*
X59720665Y13060791D02*
X59913802Y13128733D01*
X59913802Y13128733D02*
X60091592Y13246860D01*
X60091592Y13246860D02*
X60154256Y13305208D01*
X56683346Y13408983D02*
X56912253Y13314143D01*
X56912253Y13314143D02*
X57132121Y13229487D01*
X57132121Y13229487D02*
X57343769Y13154919D01*
X57343769Y13154919D02*
X57548019Y13090346D01*
X57548019Y13090346D02*
X57745690Y13035673D01*
X57745690Y13035673D02*
X58031659Y12972021D01*
X58031659Y12972021D02*
X58307444Y12930115D01*
X58307444Y12930115D02*
X58575816Y12909639D01*
X58575816Y12909639D02*
X58839544Y12910275D01*
X58839544Y12910275D02*
X59101398Y12931705D01*
X59101398Y12931705D02*
X59364148Y12973611D01*
X59364148Y12973611D02*
X59630565Y13035677D01*
X59630565Y13035677D02*
X59720665Y13060791D01*
X56179379Y13617210D02*
X56370224Y13541238D01*
X56370224Y13541238D02*
X56561513Y13460864D01*
X56561513Y13460864D02*
X56683346Y13408983D01*
X56213891Y12801624D02*
X56185924Y13013677D01*
X56185924Y13013677D02*
X56169537Y13216259D01*
X56169537Y13216259D02*
X56161129Y13432912D01*
X56161129Y13432912D02*
X56179379Y13617210D01*
X57117409Y11008458D02*
X56975815Y11178034D01*
X56975815Y11178034D02*
X56847835Y11343648D01*
X56847835Y11343648D02*
X56697269Y11560493D01*
X56697269Y11560493D02*
X56568257Y11775548D01*
X56568257Y11775548D02*
X56459287Y11991815D01*
X56459287Y11991815D02*
X56368847Y12212294D01*
X56368847Y12212294D02*
X56295425Y12439988D01*
X56295425Y12439988D02*
X56237507Y12677899D01*
X56237507Y12677899D02*
X56213891Y12801624D01*
X57361667Y10707476D02*
X57233590Y10871790D01*
X57233590Y10871790D02*
X57117409Y11008458D01*
X57205991Y10689167D02*
X57361667Y10707476D01*
X56491616Y10579391D02*
X56692689Y10617035D01*
X56692689Y10617035D02*
X56907330Y10653102D01*
X56907330Y10653102D02*
X57118560Y10682477D01*
X57118560Y10682477D02*
X57205991Y10689167D01*
X54424792Y10534325D02*
X54657717Y10483218D01*
X54657717Y10483218D02*
X54877338Y10458042D01*
X54877338Y10458042D02*
X55121881Y10446727D01*
X55121881Y10446727D02*
X55387045Y10449179D01*
X55387045Y10449179D02*
X55596861Y10459997D01*
X55596861Y10459997D02*
X55814042Y10478466D01*
X55814042Y10478466D02*
X56036771Y10504548D01*
X56036771Y10504548D02*
X56263234Y10538203D01*
X56263234Y10538203D02*
X56491616Y10579391D01*
X54363056Y5276405D02*
X54363066Y5732211D01*
X54363066Y5732211D02*
X54363105Y6161050D01*
X54363105Y6161050D02*
X54363182Y6563736D01*
X54363182Y6563736D02*
X54363305Y6941087D01*
X54363305Y6941087D02*
X54363486Y7293918D01*
X54363486Y7293918D02*
X54363732Y7623045D01*
X54363732Y7623045D02*
X54364055Y7929286D01*
X54364055Y7929286D02*
X54364463Y8213455D01*
X54364463Y8213455D02*
X54364966Y8476370D01*
X54364966Y8476370D02*
X54365574Y8718845D01*
X54365574Y8718845D02*
X54366296Y8941699D01*
X54366296Y8941699D02*
X54367141Y9145746D01*
X54367141Y9145746D02*
X54369242Y9500686D01*
X54369242Y9500686D02*
X54371953Y9790196D01*
X54371953Y9790196D02*
X54375351Y10020805D01*
X54375351Y10020805D02*
X54381902Y10270562D01*
X54381902Y10270562D02*
X54397339Y10484822D01*
X54397339Y10484822D02*
X54424792Y10534325D01*
M02*
