%TF.GenerationSoftware,KiCad,Pcbnew,5.1.6-c6e7f7d~87~ubuntu19.10.1*%
%TF.CreationDate,2020-12-10T17:19:22-08:00*%
%TF.ProjectId,2021-xmas-tree,32303231-2d78-46d6-9173-2d747265652e,rev?*%
%TF.SameCoordinates,Original*%
%TF.FileFunction,Soldermask,Top*%
%TF.FilePolarity,Negative*%
%FSLAX46Y46*%
G04 Gerber Fmt 4.6, Leading zero omitted, Abs format (unit mm)*
G04 Created by KiCad (PCBNEW 5.1.6-c6e7f7d~87~ubuntu19.10.1) date 2020-12-10 17:19:22*
%MOMM*%
%LPD*%
G01*
G04 APERTURE LIST*
%ADD10C,0.010000*%
G04 APERTURE END LIST*
D10*
%TO.C,G\u002A\u002A\u002A*%
G36*
X51331708Y13624613D02*
G01*
X51381208Y13537652D01*
X51382604Y13535122D01*
X51582148Y13214240D01*
X51826592Y12897627D01*
X52125997Y12572444D01*
X52177442Y12520972D01*
X52635921Y12111684D01*
X53120999Y11766752D01*
X53636289Y11483828D01*
X54030833Y11316143D01*
X54330694Y11203069D01*
X54339621Y5573757D01*
X54348549Y-55556D01*
X47539722Y-55556D01*
X47539722Y8577566D01*
X47676055Y8732464D01*
X48005649Y9156655D01*
X48293317Y9628698D01*
X48532804Y10135569D01*
X48717855Y10664245D01*
X48830545Y11136319D01*
X48860132Y11281464D01*
X48888492Y11396333D01*
X48911680Y11466115D01*
X48922152Y11480278D01*
X48961242Y11452692D01*
X49029053Y11378245D01*
X49116110Y11269396D01*
X49212942Y11138609D01*
X49310075Y10998346D01*
X49398036Y10861068D01*
X49417549Y10828565D01*
X49547613Y10581697D01*
X49646226Y10339088D01*
X49707597Y10117175D01*
X49726200Y9952137D01*
X49729177Y9851085D01*
X49742644Y9804969D01*
X49775163Y9798196D01*
X49806319Y9806208D01*
X50021211Y9897119D01*
X50251677Y10040702D01*
X50481887Y10226449D01*
X50580094Y10319902D01*
X50718422Y10465049D01*
X50823978Y10595597D01*
X50914564Y10736796D01*
X51007977Y10913890D01*
X51028853Y10956430D01*
X51151681Y11230266D01*
X51242652Y11488645D01*
X51306430Y11751743D01*
X51347677Y12039736D01*
X51371057Y12372801D01*
X51374135Y12450417D01*
X51380145Y12717526D01*
X51376416Y12935323D01*
X51362024Y13124497D01*
X51336049Y13305738D01*
X51336018Y13305918D01*
X51305116Y13487518D01*
X51288174Y13604968D01*
X51286252Y13663489D01*
X51300409Y13668298D01*
X51331708Y13624613D01*
G37*
X51331708Y13624613D02*
X51381208Y13537652D01*
X51382604Y13535122D01*
X51582148Y13214240D01*
X51826592Y12897627D01*
X52125997Y12572444D01*
X52177442Y12520972D01*
X52635921Y12111684D01*
X53120999Y11766752D01*
X53636289Y11483828D01*
X54030833Y11316143D01*
X54330694Y11203069D01*
X54339621Y5573757D01*
X54348549Y-55556D01*
X47539722Y-55556D01*
X47539722Y8577566D01*
X47676055Y8732464D01*
X48005649Y9156655D01*
X48293317Y9628698D01*
X48532804Y10135569D01*
X48717855Y10664245D01*
X48830545Y11136319D01*
X48860132Y11281464D01*
X48888492Y11396333D01*
X48911680Y11466115D01*
X48922152Y11480278D01*
X48961242Y11452692D01*
X49029053Y11378245D01*
X49116110Y11269396D01*
X49212942Y11138609D01*
X49310075Y10998346D01*
X49398036Y10861068D01*
X49417549Y10828565D01*
X49547613Y10581697D01*
X49646226Y10339088D01*
X49707597Y10117175D01*
X49726200Y9952137D01*
X49729177Y9851085D01*
X49742644Y9804969D01*
X49775163Y9798196D01*
X49806319Y9806208D01*
X50021211Y9897119D01*
X50251677Y10040702D01*
X50481887Y10226449D01*
X50580094Y10319902D01*
X50718422Y10465049D01*
X50823978Y10595597D01*
X50914564Y10736796D01*
X51007977Y10913890D01*
X51028853Y10956430D01*
X51151681Y11230266D01*
X51242652Y11488645D01*
X51306430Y11751743D01*
X51347677Y12039736D01*
X51371057Y12372801D01*
X51374135Y12450417D01*
X51380145Y12717526D01*
X51376416Y12935323D01*
X51362024Y13124497D01*
X51336049Y13305738D01*
X51336018Y13305918D01*
X51305116Y13487518D01*
X51288174Y13604968D01*
X51286252Y13663489D01*
X51300409Y13668298D01*
X51331708Y13624613D01*
%TD*%
M02*
