%TF.GenerationSoftware,KiCad,Pcbnew,5.1.7-a382d34a8~88~ubuntu20.04.1*%
%TF.CreationDate,2020-12-11T07:09:02-08:00*%
%TF.ProjectId,2021-xmas-tree,32303231-2d78-46d6-9173-2d747265652e,rev?*%
%TF.SameCoordinates,Original*%
%TF.FileFunction,Soldermask,Top*%
%TF.FilePolarity,Negative*%
%FSLAX46Y46*%
G04 Gerber Fmt 4.6, Leading zero omitted, Abs format (unit mm)*
G04 Created by KiCad (PCBNEW 5.1.7-a382d34a8~88~ubuntu20.04.1) date 2020-12-11 07:09:02*
%MOMM*%
%LPD*%
G01*
G04 APERTURE LIST*
%ADD10C,0.010000*%
G04 APERTURE END LIST*
D10*
%TO.C,G\u002A\u002A\u002A*%
G36*
X100389409Y-140319464D02*
G01*
X100443042Y-140388122D01*
X100517367Y-140492358D01*
X100574633Y-140576686D01*
X100788710Y-140857876D01*
X101048921Y-141135957D01*
X101333399Y-141389008D01*
X101534583Y-141539048D01*
X101699480Y-141644357D01*
X101883704Y-141750192D01*
X102070013Y-141847750D01*
X102241165Y-141928227D01*
X102379917Y-141982820D01*
X102433592Y-141998068D01*
X102540000Y-142021439D01*
X102540000Y-150023889D01*
X97706944Y-150023889D01*
X97706944Y-146957662D01*
X97707274Y-146498966D01*
X97708231Y-146060783D01*
X97709767Y-145648206D01*
X97711832Y-145266326D01*
X97714379Y-144920236D01*
X97717360Y-144615026D01*
X97720724Y-144355791D01*
X97724425Y-144147620D01*
X97728413Y-143995607D01*
X97732640Y-143904842D01*
X97736284Y-143879676D01*
X97785682Y-143837893D01*
X97861250Y-143747969D01*
X97954042Y-143622958D01*
X98055115Y-143475917D01*
X98155525Y-143319899D01*
X98246327Y-143167962D01*
X98318578Y-143033160D01*
X98324379Y-143021250D01*
X98406006Y-142836035D01*
X98484469Y-142629982D01*
X98554403Y-142420287D01*
X98610443Y-142224149D01*
X98647224Y-142058765D01*
X98659444Y-141947188D01*
X98668911Y-141872048D01*
X98691775Y-141839482D01*
X98692660Y-141839444D01*
X98736465Y-141867942D01*
X98805224Y-141944403D01*
X98889334Y-142055277D01*
X98979192Y-142187011D01*
X99065195Y-142326055D01*
X99137740Y-142458859D01*
X99151287Y-142486622D01*
X99212389Y-142630291D01*
X99261946Y-142773980D01*
X99289030Y-142885583D01*
X99312083Y-143043061D01*
X99536343Y-142927308D01*
X99697728Y-142827236D01*
X99850648Y-142704206D01*
X99915487Y-142639286D01*
X100095750Y-142392416D01*
X100243526Y-142096484D01*
X100355259Y-141766781D01*
X100427392Y-141418596D01*
X100456366Y-141067220D01*
X100438625Y-140727944D01*
X100404393Y-140537886D01*
X100379296Y-140421038D01*
X100365326Y-140334608D01*
X100365334Y-140298184D01*
X100389409Y-140319464D01*
G37*
X100389409Y-140319464D02*
X100443042Y-140388122D01*
X100517367Y-140492358D01*
X100574633Y-140576686D01*
X100788710Y-140857876D01*
X101048921Y-141135957D01*
X101333399Y-141389008D01*
X101534583Y-141539048D01*
X101699480Y-141644357D01*
X101883704Y-141750192D01*
X102070013Y-141847750D01*
X102241165Y-141928227D01*
X102379917Y-141982820D01*
X102433592Y-141998068D01*
X102540000Y-142021439D01*
X102540000Y-150023889D01*
X97706944Y-150023889D01*
X97706944Y-146957662D01*
X97707274Y-146498966D01*
X97708231Y-146060783D01*
X97709767Y-145648206D01*
X97711832Y-145266326D01*
X97714379Y-144920236D01*
X97717360Y-144615026D01*
X97720724Y-144355791D01*
X97724425Y-144147620D01*
X97728413Y-143995607D01*
X97732640Y-143904842D01*
X97736284Y-143879676D01*
X97785682Y-143837893D01*
X97861250Y-143747969D01*
X97954042Y-143622958D01*
X98055115Y-143475917D01*
X98155525Y-143319899D01*
X98246327Y-143167962D01*
X98318578Y-143033160D01*
X98324379Y-143021250D01*
X98406006Y-142836035D01*
X98484469Y-142629982D01*
X98554403Y-142420287D01*
X98610443Y-142224149D01*
X98647224Y-142058765D01*
X98659444Y-141947188D01*
X98668911Y-141872048D01*
X98691775Y-141839482D01*
X98692660Y-141839444D01*
X98736465Y-141867942D01*
X98805224Y-141944403D01*
X98889334Y-142055277D01*
X98979192Y-142187011D01*
X99065195Y-142326055D01*
X99137740Y-142458859D01*
X99151287Y-142486622D01*
X99212389Y-142630291D01*
X99261946Y-142773980D01*
X99289030Y-142885583D01*
X99312083Y-143043061D01*
X99536343Y-142927308D01*
X99697728Y-142827236D01*
X99850648Y-142704206D01*
X99915487Y-142639286D01*
X100095750Y-142392416D01*
X100243526Y-142096484D01*
X100355259Y-141766781D01*
X100427392Y-141418596D01*
X100456366Y-141067220D01*
X100438625Y-140727944D01*
X100404393Y-140537886D01*
X100379296Y-140421038D01*
X100365326Y-140334608D01*
X100365334Y-140298184D01*
X100389409Y-140319464D01*
%TD*%
M02*
