G04 #@! TF.GenerationSoftware,KiCad,Pcbnew,5.1.7-a382d34a8~88~ubuntu20.04.1*
G04 #@! TF.CreationDate,2021-04-25T15:43:49-07:00*
G04 #@! TF.ProjectId,keypad-base,6b657970-6164-42d6-9261-73652e6b6963,Apr2021*
G04 #@! TF.SameCoordinates,Original*
G04 #@! TF.FileFunction,Other,User*
%FSLAX46Y46*%
G04 Gerber Fmt 4.6, Leading zero omitted, Abs format (unit mm)*
G04 Created by KiCad (PCBNEW 5.1.7-a382d34a8~88~ubuntu20.04.1) date 2021-04-25 15:43:49*
%MOMM*%
%LPD*%
G01*
G04 APERTURE LIST*
%ADD10C,0.120000*%
%ADD11C,0.050000*%
G04 APERTURE END LIST*
D10*
G04 #@! TO.C,SW8*
X237750000Y-90900000D02*
X237750000Y-100900000D01*
X241250000Y-90900000D02*
X237750000Y-90900000D01*
X241250000Y-100900000D02*
X241250000Y-90900000D01*
X237750000Y-100900000D02*
X241250000Y-100900000D01*
G04 #@! TO.C,SW1*
X237750000Y-70900000D02*
X237750000Y-80900000D01*
X241250000Y-70900000D02*
X237750000Y-70900000D01*
X241250000Y-80900000D02*
X241250000Y-70900000D01*
X237750000Y-80900000D02*
X241250000Y-80900000D01*
G04 #@! TO.C,J1*
X89850000Y-87870000D02*
X89850000Y-77800000D01*
X99600000Y-87870000D02*
X89850000Y-87870000D01*
X99600000Y-77800000D02*
X89850000Y-77800000D01*
X99600000Y-87870000D02*
X99600000Y-77800000D01*
G04 #@! TO.C,U8*
X209428000Y-70138000D02*
X218572000Y-70138000D01*
X209428000Y-74710000D02*
X209428000Y-70138000D01*
X218572000Y-74710000D02*
X209428000Y-74710000D01*
X218572000Y-70138000D02*
X218572000Y-74710000D01*
G04 #@! TO.C,U7*
X190428000Y-70138000D02*
X199572000Y-70138000D01*
X190428000Y-74710000D02*
X190428000Y-70138000D01*
X199572000Y-74710000D02*
X190428000Y-74710000D01*
X199572000Y-70138000D02*
X199572000Y-74710000D01*
G04 #@! TO.C,U6*
X171428000Y-70138000D02*
X180572000Y-70138000D01*
X171428000Y-74710000D02*
X171428000Y-70138000D01*
X180572000Y-74710000D02*
X171428000Y-74710000D01*
X180572000Y-70138000D02*
X180572000Y-74710000D01*
G04 #@! TO.C,U5*
X152428000Y-70138000D02*
X161572000Y-70138000D01*
X152428000Y-74710000D02*
X152428000Y-70138000D01*
X161572000Y-74710000D02*
X152428000Y-74710000D01*
X161572000Y-70138000D02*
X161572000Y-74710000D01*
G04 #@! TO.C,U4*
X133428000Y-70138000D02*
X142572000Y-70138000D01*
X133428000Y-74710000D02*
X133428000Y-70138000D01*
X142572000Y-74710000D02*
X133428000Y-74710000D01*
X142572000Y-70138000D02*
X142572000Y-74710000D01*
G04 #@! TO.C,U3*
X114428000Y-70138000D02*
X123572000Y-70138000D01*
X114428000Y-74710000D02*
X114428000Y-70138000D01*
X123572000Y-74710000D02*
X114428000Y-74710000D01*
X123572000Y-70138000D02*
X123572000Y-74710000D01*
D11*
G04 #@! TO.C,TMS1*
X177950000Y-56000000D02*
G75*
G03*
X177950000Y-56000000I-1250000J0D01*
G01*
G04 #@! TO.C,TDO1*
X180490000Y-56000000D02*
G75*
G03*
X180490000Y-56000000I-1250000J0D01*
G01*
G04 #@! TO.C,TDI1*
X183030000Y-56000000D02*
G75*
G03*
X183030000Y-56000000I-1250000J0D01*
G01*
G04 #@! TO.C,TCK1*
X175410000Y-56000000D02*
G75*
G03*
X175410000Y-56000000I-1250000J0D01*
G01*
G04 #@! TO.C,CON1*
X162200000Y-54200000D02*
X170850000Y-54200000D01*
X170850000Y-54200000D02*
X170850000Y-60350000D01*
X170850000Y-60350000D02*
X162200000Y-60350000D01*
X162200000Y-60350000D02*
X162200000Y-54200000D01*
G04 #@! TD*
M02*
