G04 #@! TF.GenerationSoftware,KiCad,Pcbnew,5.1.7-a382d34a8~88~ubuntu20.04.1*
G04 #@! TF.CreationDate,2021-04-25T17:54:28-07:00*
G04 #@! TF.ProjectId,keypad-base,6b657970-6164-42d6-9261-73652e6b6963,Apr2021a*
G04 #@! TF.SameCoordinates,Original*
G04 #@! TF.FileFunction,Soldermask,Bot*
G04 #@! TF.FilePolarity,Negative*
%FSLAX46Y46*%
G04 Gerber Fmt 4.6, Leading zero omitted, Abs format (unit mm)*
G04 Created by KiCad (PCBNEW 5.1.7-a382d34a8~88~ubuntu20.04.1) date 2021-04-25 17:54:28*
%MOMM*%
%LPD*%
G01*
G04 APERTURE LIST*
%ADD10C,3.200000*%
%ADD11C,6.000000*%
%ADD12R,2.000000X1.500000*%
%ADD13R,1.500000X1.000000*%
%ADD14C,0.600000*%
%ADD15O,1.700000X1.700000*%
%ADD16R,1.700000X1.700000*%
%ADD17R,1.750000X0.300000*%
%ADD18C,0.650000*%
%ADD19O,2.100000X0.900000*%
%ADD20O,1.600000X1.000000*%
%ADD21R,0.400000X4.000000*%
%ADD22C,1.500000*%
%ADD23C,4.100000*%
%ADD24C,1.700000*%
G04 APERTURE END LIST*
D10*
G04 #@! TO.C,H5*
X107500000Y-111900000D03*
D11*
X107500000Y-111900000D03*
G04 #@! TD*
D10*
G04 #@! TO.C,H4*
X107500000Y-59900000D03*
D11*
X107500000Y-59900000D03*
G04 #@! TD*
D10*
G04 #@! TO.C,H3*
X225500000Y-59900000D03*
D11*
X225500000Y-59900000D03*
G04 #@! TD*
D10*
G04 #@! TO.C,H2*
X225500000Y-111900000D03*
D11*
X225500000Y-111900000D03*
G04 #@! TD*
D12*
G04 #@! TO.C,SW8*
X240250000Y-91900000D03*
X240250000Y-99900000D03*
D13*
X238650000Y-98100000D03*
X238650000Y-93700000D03*
D14*
X240000000Y-97050000D03*
X240000000Y-94750000D03*
G04 #@! TD*
D12*
G04 #@! TO.C,SW1*
X240250000Y-71900000D03*
X240250000Y-79900000D03*
D13*
X238650000Y-78100000D03*
X238650000Y-73700000D03*
D14*
X240000000Y-77050000D03*
X240000000Y-74750000D03*
G04 #@! TD*
D15*
G04 #@! TO.C,J3*
X150368000Y-59944000D03*
D16*
X147828000Y-59944000D03*
G04 #@! TD*
D15*
G04 #@! TO.C,J2*
X157988000Y-59944000D03*
D16*
X155448000Y-59944000D03*
G04 #@! TD*
D17*
G04 #@! TO.C,J1*
X98150000Y-79550000D03*
X98150000Y-79850000D03*
X98150000Y-80650000D03*
X98150000Y-80350000D03*
X98150000Y-85150000D03*
X98150000Y-85450000D03*
X98150000Y-85950000D03*
X98150000Y-86250000D03*
X98150000Y-83150000D03*
X98150000Y-84150000D03*
X98150000Y-84650000D03*
X98150000Y-83650000D03*
X98150000Y-81150000D03*
X98150000Y-81650000D03*
X98150000Y-82150000D03*
X98150000Y-82650000D03*
D18*
X96810000Y-80010000D03*
X96810000Y-85790000D03*
D19*
X97310000Y-78580000D03*
X97310000Y-87220000D03*
D20*
X93130000Y-78580000D03*
X93130000Y-87220000D03*
G04 #@! TD*
D21*
G04 #@! TO.C,U8*
X214700000Y-72424000D03*
X216800000Y-72424000D03*
X215400000Y-72424000D03*
X218200000Y-72424000D03*
X216100000Y-72424000D03*
X217500000Y-72424000D03*
X214000000Y-72424000D03*
X213300000Y-72424000D03*
X212600000Y-72424000D03*
X211900000Y-72424000D03*
X211200000Y-72424000D03*
X210500000Y-72424000D03*
X209800000Y-72424000D03*
G04 #@! TD*
G04 #@! TO.C,U7*
X195700000Y-72424000D03*
X197800000Y-72424000D03*
X196400000Y-72424000D03*
X199200000Y-72424000D03*
X197100000Y-72424000D03*
X198500000Y-72424000D03*
X195000000Y-72424000D03*
X194300000Y-72424000D03*
X193600000Y-72424000D03*
X192900000Y-72424000D03*
X192200000Y-72424000D03*
X191500000Y-72424000D03*
X190800000Y-72424000D03*
G04 #@! TD*
G04 #@! TO.C,U6*
X176700000Y-72424000D03*
X178800000Y-72424000D03*
X177400000Y-72424000D03*
X180200000Y-72424000D03*
X178100000Y-72424000D03*
X179500000Y-72424000D03*
X176000000Y-72424000D03*
X175300000Y-72424000D03*
X174600000Y-72424000D03*
X173900000Y-72424000D03*
X173200000Y-72424000D03*
X172500000Y-72424000D03*
X171800000Y-72424000D03*
G04 #@! TD*
G04 #@! TO.C,U5*
X157700000Y-72424000D03*
X159800000Y-72424000D03*
X158400000Y-72424000D03*
X161200000Y-72424000D03*
X159100000Y-72424000D03*
X160500000Y-72424000D03*
X157000000Y-72424000D03*
X156300000Y-72424000D03*
X155600000Y-72424000D03*
X154900000Y-72424000D03*
X154200000Y-72424000D03*
X153500000Y-72424000D03*
X152800000Y-72424000D03*
G04 #@! TD*
G04 #@! TO.C,U4*
X138700000Y-72424000D03*
X140800000Y-72424000D03*
X139400000Y-72424000D03*
X142200000Y-72424000D03*
X140100000Y-72424000D03*
X141500000Y-72424000D03*
X138000000Y-72424000D03*
X137300000Y-72424000D03*
X136600000Y-72424000D03*
X135900000Y-72424000D03*
X135200000Y-72424000D03*
X134500000Y-72424000D03*
X133800000Y-72424000D03*
G04 #@! TD*
G04 #@! TO.C,U3*
X119700000Y-72424000D03*
X121800000Y-72424000D03*
X120400000Y-72424000D03*
X123200000Y-72424000D03*
X121100000Y-72424000D03*
X122500000Y-72424000D03*
X119000000Y-72424000D03*
X118300000Y-72424000D03*
X117600000Y-72424000D03*
X116900000Y-72424000D03*
X116200000Y-72424000D03*
X115500000Y-72424000D03*
X114800000Y-72424000D03*
G04 #@! TD*
D22*
G04 #@! TO.C,TMS1*
X176700000Y-56000000D03*
G04 #@! TD*
G04 #@! TO.C,TDO1*
X179240000Y-56000000D03*
G04 #@! TD*
G04 #@! TO.C,TDI1*
X181780000Y-56000000D03*
G04 #@! TD*
G04 #@! TO.C,TCK1*
X174160000Y-56000000D03*
G04 #@! TD*
D15*
G04 #@! TO.C,CON1*
X169080000Y-58540000D03*
X169080000Y-56000000D03*
X166540000Y-58540000D03*
X166540000Y-56000000D03*
X164000000Y-58540000D03*
D16*
X164000000Y-56000000D03*
G04 #@! TD*
D23*
G04 #@! TO.C,SW7*
X214000000Y-100000000D03*
D24*
X219080000Y-100000000D03*
X208920000Y-100000000D03*
G04 #@! TD*
D23*
G04 #@! TO.C,SW6*
X195000000Y-100000000D03*
D24*
X200080000Y-100000000D03*
X189920000Y-100000000D03*
G04 #@! TD*
D23*
G04 #@! TO.C,SW5*
X176000000Y-100000000D03*
D24*
X181080000Y-100000000D03*
X170920000Y-100000000D03*
G04 #@! TD*
D23*
G04 #@! TO.C,SW4*
X157000000Y-100000000D03*
D24*
X162080000Y-100000000D03*
X151920000Y-100000000D03*
G04 #@! TD*
D23*
G04 #@! TO.C,SW3*
X138000000Y-100000000D03*
D24*
X143080000Y-100000000D03*
X132920000Y-100000000D03*
G04 #@! TD*
D23*
G04 #@! TO.C,SW2*
X119000000Y-100000000D03*
D24*
X124080000Y-100000000D03*
X113920000Y-100000000D03*
G04 #@! TD*
M02*
