G04 #@! TF.GenerationSoftware,KiCad,Pcbnew,5.1.7-a382d34a8~88~ubuntu20.04.1*
G04 #@! TF.CreationDate,2021-06-06T15:47:04-07:00*
G04 #@! TF.ProjectId,keypad-base,6b657970-6164-42d6-9261-73652e6b6963,Jun2021*
G04 #@! TF.SameCoordinates,Original*
G04 #@! TF.FileFunction,Other,User*
%FSLAX46Y46*%
G04 Gerber Fmt 4.6, Leading zero omitted, Abs format (unit mm)*
G04 Created by KiCad (PCBNEW 5.1.7-a382d34a8~88~ubuntu20.04.1) date 2021-06-06 15:47:04*
%MOMM*%
%LPD*%
G01*
G04 APERTURE LIST*
%ADD10C,0.050000*%
%ADD11C,0.120000*%
G04 APERTURE END LIST*
D10*
G04 #@! TO.C,R11*
X159356000Y-91506000D02*
X162716000Y-91506000D01*
X159356000Y-93406000D02*
X159356000Y-91506000D01*
X162716000Y-93406000D02*
X159356000Y-93406000D01*
X162716000Y-91506000D02*
X162716000Y-93406000D01*
G04 #@! TO.C,R4*
X147476000Y-91374000D02*
X144116000Y-91374000D01*
X147476000Y-89474000D02*
X147476000Y-91374000D01*
X144116000Y-89474000D02*
X147476000Y-89474000D01*
X144116000Y-91374000D02*
X144116000Y-89474000D01*
G04 #@! TO.C,U11*
X158066000Y-87056000D02*
X148766000Y-87056000D01*
X158066000Y-92776000D02*
X158066000Y-87056000D01*
X148766000Y-92776000D02*
X158066000Y-92776000D01*
X148766000Y-87056000D02*
X148766000Y-92776000D01*
G04 #@! TO.C,J3*
X146028000Y-61744000D02*
X152178000Y-61744000D01*
X152178000Y-61744000D02*
X152178000Y-58144000D01*
X152178000Y-58144000D02*
X146028000Y-58144000D01*
X146028000Y-58144000D02*
X146028000Y-61744000D01*
G04 #@! TO.C,J2*
X153648000Y-61744000D02*
X159798000Y-61744000D01*
X159798000Y-61744000D02*
X159798000Y-58144000D01*
X159798000Y-58144000D02*
X153648000Y-58144000D01*
X153648000Y-58144000D02*
X153648000Y-61744000D01*
G04 #@! TO.C,C20*
X162208000Y-88834000D02*
X158848000Y-88834000D01*
X162208000Y-86934000D02*
X162208000Y-88834000D01*
X158848000Y-86934000D02*
X162208000Y-86934000D01*
X158848000Y-88834000D02*
X158848000Y-86934000D01*
G04 #@! TO.C,U10*
X113416000Y-85576000D02*
X117216000Y-85576000D01*
X117216000Y-85576000D02*
X117216000Y-89176000D01*
X117216000Y-89176000D02*
X113416000Y-89176000D01*
X113416000Y-89176000D02*
X113416000Y-85576000D01*
G04 #@! TO.C,C18*
X117922000Y-85696000D02*
X119822000Y-85696000D01*
X119822000Y-85696000D02*
X119822000Y-89056000D01*
X119822000Y-89056000D02*
X117922000Y-89056000D01*
X117922000Y-89056000D02*
X117922000Y-85696000D01*
G04 #@! TO.C,C17*
X208722000Y-74324000D02*
X206822000Y-74324000D01*
X206822000Y-74324000D02*
X206822000Y-70964000D01*
X206822000Y-70964000D02*
X208722000Y-70964000D01*
X208722000Y-70964000D02*
X208722000Y-74324000D01*
G04 #@! TO.C,C16*
X110302000Y-85696000D02*
X112202000Y-85696000D01*
X112202000Y-85696000D02*
X112202000Y-89056000D01*
X112202000Y-89056000D02*
X110302000Y-89056000D01*
X110302000Y-89056000D02*
X110302000Y-85696000D01*
G04 #@! TO.C,C15*
X189926000Y-74324000D02*
X188026000Y-74324000D01*
X188026000Y-74324000D02*
X188026000Y-70964000D01*
X188026000Y-70964000D02*
X189926000Y-70964000D01*
X189926000Y-70964000D02*
X189926000Y-74324000D01*
G04 #@! TO.C,C14*
X169606000Y-73816000D02*
X167706000Y-73816000D01*
X167706000Y-73816000D02*
X167706000Y-70456000D01*
X167706000Y-70456000D02*
X169606000Y-70456000D01*
X169606000Y-70456000D02*
X169606000Y-73816000D01*
G04 #@! TO.C,C13*
X152334000Y-74324000D02*
X150434000Y-74324000D01*
X150434000Y-74324000D02*
X150434000Y-70964000D01*
X150434000Y-70964000D02*
X152334000Y-70964000D01*
X152334000Y-70964000D02*
X152334000Y-74324000D01*
G04 #@! TO.C,C12*
X133538000Y-74324000D02*
X131638000Y-74324000D01*
X131638000Y-74324000D02*
X131638000Y-70964000D01*
X131638000Y-70964000D02*
X133538000Y-70964000D01*
X133538000Y-70964000D02*
X133538000Y-74324000D01*
G04 #@! TO.C,C11*
X114234000Y-74324000D02*
X112334000Y-74324000D01*
X112334000Y-74324000D02*
X112334000Y-70964000D01*
X112334000Y-70964000D02*
X114234000Y-70964000D01*
X114234000Y-70964000D02*
X114234000Y-74324000D01*
G04 #@! TO.C,C9*
X107254000Y-85696000D02*
X109154000Y-85696000D01*
X109154000Y-85696000D02*
X109154000Y-89056000D01*
X109154000Y-89056000D02*
X107254000Y-89056000D01*
X107254000Y-89056000D02*
X107254000Y-85696000D01*
G04 #@! TO.C,C8*
X171040000Y-77150000D02*
X171040000Y-75250000D01*
X171040000Y-75250000D02*
X174400000Y-75250000D01*
X174400000Y-75250000D02*
X174400000Y-77150000D01*
X174400000Y-77150000D02*
X171040000Y-77150000D01*
G04 #@! TO.C,R16*
X108360000Y-81346000D02*
X108360000Y-83246000D01*
X108360000Y-83246000D02*
X105000000Y-83246000D01*
X105000000Y-83246000D02*
X105000000Y-81346000D01*
X105000000Y-81346000D02*
X108360000Y-81346000D01*
G04 #@! TO.C,R15*
X108360000Y-79314000D02*
X108360000Y-81214000D01*
X108360000Y-81214000D02*
X105000000Y-81214000D01*
X105000000Y-81214000D02*
X105000000Y-79314000D01*
X105000000Y-79314000D02*
X108360000Y-79314000D01*
G04 #@! TO.C,R14*
X101050000Y-77320000D02*
X102950000Y-77320000D01*
X102950000Y-77320000D02*
X102950000Y-80680000D01*
X102950000Y-80680000D02*
X101050000Y-80680000D01*
X101050000Y-80680000D02*
X101050000Y-77320000D01*
G04 #@! TO.C,R13*
X101050000Y-84320000D02*
X102950000Y-84320000D01*
X102950000Y-84320000D02*
X102950000Y-87680000D01*
X102950000Y-87680000D02*
X101050000Y-87680000D01*
X101050000Y-87680000D02*
X101050000Y-84320000D01*
D11*
G04 #@! TO.C,H1*
X165992000Y-159492000D02*
X167008000Y-159492000D01*
X167008000Y-159492000D02*
X167008000Y-160508000D01*
X167008000Y-160508000D02*
X165992000Y-160508000D01*
X165992000Y-160508000D02*
X165992000Y-159492000D01*
D10*
G04 #@! TO.C,R12*
X171040000Y-79690000D02*
X171040000Y-77790000D01*
X171040000Y-77790000D02*
X174400000Y-77790000D01*
X174400000Y-77790000D02*
X174400000Y-79690000D01*
X174400000Y-79690000D02*
X171040000Y-79690000D01*
G04 #@! TO.C,R10*
X206690000Y-74324000D02*
X204790000Y-74324000D01*
X204790000Y-74324000D02*
X204790000Y-70964000D01*
X204790000Y-70964000D02*
X206690000Y-70964000D01*
X206690000Y-70964000D02*
X206690000Y-74324000D01*
G04 #@! TO.C,R9*
X187894000Y-74324000D02*
X185994000Y-74324000D01*
X185994000Y-74324000D02*
X185994000Y-70964000D01*
X185994000Y-70964000D02*
X187894000Y-70964000D01*
X187894000Y-70964000D02*
X187894000Y-74324000D01*
G04 #@! TO.C,R8*
X167574000Y-73816000D02*
X165674000Y-73816000D01*
X165674000Y-73816000D02*
X165674000Y-70456000D01*
X165674000Y-70456000D02*
X167574000Y-70456000D01*
X167574000Y-70456000D02*
X167574000Y-73816000D01*
G04 #@! TO.C,R7*
X150302000Y-74324000D02*
X148402000Y-74324000D01*
X148402000Y-74324000D02*
X148402000Y-70964000D01*
X148402000Y-70964000D02*
X150302000Y-70964000D01*
X150302000Y-70964000D02*
X150302000Y-74324000D01*
G04 #@! TO.C,R6*
X131506000Y-74324000D02*
X129606000Y-74324000D01*
X129606000Y-74324000D02*
X129606000Y-70964000D01*
X129606000Y-70964000D02*
X131506000Y-70964000D01*
X131506000Y-70964000D02*
X131506000Y-74324000D01*
G04 #@! TO.C,R5*
X112202000Y-74324000D02*
X110302000Y-74324000D01*
X110302000Y-74324000D02*
X110302000Y-70964000D01*
X110302000Y-70964000D02*
X112202000Y-70964000D01*
X112202000Y-70964000D02*
X112202000Y-74324000D01*
G04 #@! TO.C,Q1*
X174576000Y-81506000D02*
X174576000Y-78006000D01*
X177976000Y-81506000D02*
X174576000Y-81506000D01*
X177976000Y-78006000D02*
X177976000Y-81506000D01*
X174576000Y-78006000D02*
X177976000Y-78006000D01*
G04 #@! TO.C,X1*
X162900000Y-91948000D02*
X169100000Y-91948000D01*
X162900000Y-88148000D02*
X162900000Y-91948000D01*
X169100000Y-88148000D02*
X162900000Y-88148000D01*
X169100000Y-91948000D02*
X169100000Y-88148000D01*
G04 #@! TO.C,U1*
X170620000Y-76928000D02*
X162380000Y-76928000D01*
X170620000Y-85168000D02*
X170620000Y-76928000D01*
X162380000Y-85168000D02*
X170620000Y-85168000D01*
X162380000Y-76928000D02*
X162380000Y-85168000D01*
G04 #@! TO.C,R3*
X158848000Y-86294000D02*
X158848000Y-84394000D01*
X158848000Y-84394000D02*
X162208000Y-84394000D01*
X162208000Y-84394000D02*
X162208000Y-86294000D01*
X162208000Y-86294000D02*
X158848000Y-86294000D01*
G04 #@! TO.C,R2*
X222946000Y-74324000D02*
X221046000Y-74324000D01*
X221046000Y-74324000D02*
X221046000Y-70964000D01*
X221046000Y-70964000D02*
X222946000Y-70964000D01*
X222946000Y-70964000D02*
X222946000Y-74324000D01*
G04 #@! TO.C,R1*
X224978000Y-74324000D02*
X223078000Y-74324000D01*
X223078000Y-74324000D02*
X223078000Y-70964000D01*
X223078000Y-70964000D02*
X224978000Y-70964000D01*
X224978000Y-70964000D02*
X224978000Y-74324000D01*
G04 #@! TO.C,C7*
X156620000Y-79822000D02*
X156620000Y-81722000D01*
X156620000Y-81722000D02*
X153260000Y-81722000D01*
X153260000Y-81722000D02*
X153260000Y-79822000D01*
X153260000Y-79822000D02*
X156620000Y-79822000D01*
G04 #@! TO.C,C6*
X162562500Y-70456000D02*
X164462500Y-70456000D01*
X164462500Y-70456000D02*
X164462500Y-73816000D01*
X164462500Y-73816000D02*
X162562500Y-73816000D01*
X162562500Y-73816000D02*
X162562500Y-70456000D01*
G04 #@! TO.C,C5*
X162680000Y-89098000D02*
X162680000Y-90998000D01*
X162680000Y-90998000D02*
X159320000Y-90998000D01*
X159320000Y-90998000D02*
X159320000Y-89098000D01*
X159320000Y-89098000D02*
X162680000Y-89098000D01*
G04 #@! TO.C,C4*
X162144500Y-75377000D02*
X162144500Y-77277000D01*
X162144500Y-77277000D02*
X158784500Y-77277000D01*
X158784500Y-77277000D02*
X158784500Y-75377000D01*
X158784500Y-75377000D02*
X162144500Y-75377000D01*
G04 #@! TO.C,C3*
X165764000Y-85410000D02*
X165764000Y-87310000D01*
X165764000Y-87310000D02*
X162404000Y-87310000D01*
X162404000Y-87310000D02*
X162404000Y-85410000D01*
X162404000Y-85410000D02*
X165764000Y-85410000D01*
G04 #@! TO.C,C2*
X169320000Y-90998000D02*
X169320000Y-89098000D01*
X169320000Y-89098000D02*
X172680000Y-89098000D01*
X172680000Y-89098000D02*
X172680000Y-90998000D01*
X172680000Y-90998000D02*
X169320000Y-90998000D01*
G04 #@! TO.C,C1*
X171040000Y-85786000D02*
X171040000Y-83886000D01*
X171040000Y-83886000D02*
X174400000Y-83886000D01*
X174400000Y-83886000D02*
X174400000Y-85786000D01*
X174400000Y-85786000D02*
X171040000Y-85786000D01*
G04 #@! TD*
M02*
