G04 #@! TF.GenerationSoftware,KiCad,Pcbnew,5.1.7-a382d34a8~88~ubuntu20.04.1*
G04 #@! TF.CreationDate,2021-04-25T14:41:57-07:00*
G04 #@! TF.ProjectId,keypad-base,6b657970-6164-42d6-9261-73652e6b6963,Apr2021*
G04 #@! TF.SameCoordinates,Original*
G04 #@! TF.FileFunction,Legend,Top*
G04 #@! TF.FilePolarity,Positive*
%FSLAX46Y46*%
G04 Gerber Fmt 4.6, Leading zero omitted, Abs format (unit mm)*
G04 Created by KiCad (PCBNEW 5.1.7-a382d34a8~88~ubuntu20.04.1) date 2021-04-25 14:41:57*
%MOMM*%
%LPD*%
G01*
G04 APERTURE LIST*
%ADD10C,0.400000*%
%ADD11C,0.500000*%
%ADD12C,0.120000*%
%ADD13C,0.150000*%
%ADD14C,0.200000*%
G04 APERTURE END LIST*
D10*
X153380952Y-111839428D02*
X154142857Y-111839428D01*
X153666666Y-113172761D02*
X153666666Y-111458476D01*
X153761904Y-111268000D01*
X153952380Y-111172761D01*
X154142857Y-111172761D01*
X154809523Y-113172761D02*
X154809523Y-111839428D01*
X154809523Y-111172761D02*
X154714285Y-111268000D01*
X154809523Y-111363238D01*
X154904761Y-111268000D01*
X154809523Y-111172761D01*
X154809523Y-111363238D01*
X155476190Y-111839428D02*
X156238095Y-111839428D01*
X155761904Y-111172761D02*
X155761904Y-112887047D01*
X155857142Y-113077523D01*
X156047619Y-113172761D01*
X156238095Y-113172761D01*
X156809523Y-113077523D02*
X157000000Y-113172761D01*
X157380952Y-113172761D01*
X157571428Y-113077523D01*
X157666666Y-112887047D01*
X157666666Y-112791809D01*
X157571428Y-112601333D01*
X157380952Y-112506095D01*
X157095238Y-112506095D01*
X156904761Y-112410857D01*
X156809523Y-112220380D01*
X156809523Y-112125142D01*
X156904761Y-111934666D01*
X157095238Y-111839428D01*
X157380952Y-111839428D01*
X157571428Y-111934666D01*
X161095238Y-113172761D02*
X159952380Y-113172761D01*
X160523809Y-113172761D02*
X160523809Y-111172761D01*
X160333333Y-111458476D01*
X160142857Y-111648952D01*
X159952380Y-111744190D01*
X162904761Y-111172761D02*
X161952380Y-111172761D01*
X161857142Y-112125142D01*
X161952380Y-112029904D01*
X162142857Y-111934666D01*
X162619047Y-111934666D01*
X162809523Y-112029904D01*
X162904761Y-112125142D01*
X163000000Y-112315619D01*
X163000000Y-112791809D01*
X162904761Y-112982285D01*
X162809523Y-113077523D01*
X162619047Y-113172761D01*
X162142857Y-113172761D01*
X161952380Y-113077523D01*
X161857142Y-112982285D01*
X164809523Y-111172761D02*
X163857142Y-111172761D01*
X163761904Y-112125142D01*
X163857142Y-112029904D01*
X164047619Y-111934666D01*
X164523809Y-111934666D01*
X164714285Y-112029904D01*
X164809523Y-112125142D01*
X164904761Y-112315619D01*
X164904761Y-112791809D01*
X164809523Y-112982285D01*
X164714285Y-113077523D01*
X164523809Y-113172761D01*
X164047619Y-113172761D01*
X163857142Y-113077523D01*
X163761904Y-112982285D01*
X166142857Y-111172761D02*
X166333333Y-111172761D01*
X166523809Y-111268000D01*
X166619047Y-111363238D01*
X166714285Y-111553714D01*
X166809523Y-111934666D01*
X166809523Y-112410857D01*
X166714285Y-112791809D01*
X166619047Y-112982285D01*
X166523809Y-113077523D01*
X166333333Y-113172761D01*
X166142857Y-113172761D01*
X165952380Y-113077523D01*
X165857142Y-112982285D01*
X165761904Y-112791809D01*
X165666666Y-112410857D01*
X165666666Y-111934666D01*
X165761904Y-111553714D01*
X165857142Y-111363238D01*
X165952380Y-111268000D01*
X166142857Y-111172761D01*
X167476190Y-111172761D02*
X168809523Y-111172761D01*
X167476190Y-113172761D01*
X168809523Y-113172761D01*
X170619047Y-113172761D02*
X169476190Y-113172761D01*
X170047619Y-113172761D02*
X170047619Y-111172761D01*
X169857142Y-111458476D01*
X169666666Y-111648952D01*
X169476190Y-111744190D01*
X171857142Y-111172761D02*
X172047619Y-111172761D01*
X172238095Y-111268000D01*
X172333333Y-111363238D01*
X172428571Y-111553714D01*
X172523809Y-111934666D01*
X172523809Y-112410857D01*
X172428571Y-112791809D01*
X172333333Y-112982285D01*
X172238095Y-113077523D01*
X172047619Y-113172761D01*
X171857142Y-113172761D01*
X171666666Y-113077523D01*
X171571428Y-112982285D01*
X171476190Y-112791809D01*
X171380952Y-112410857D01*
X171380952Y-111934666D01*
X171476190Y-111553714D01*
X171571428Y-111363238D01*
X171666666Y-111268000D01*
X171857142Y-111172761D01*
X173476190Y-113172761D02*
X173857142Y-113172761D01*
X174047619Y-113077523D01*
X174142857Y-112982285D01*
X174333333Y-112696571D01*
X174428571Y-112315619D01*
X174428571Y-111553714D01*
X174333333Y-111363238D01*
X174238095Y-111268000D01*
X174047619Y-111172761D01*
X173666666Y-111172761D01*
X173476190Y-111268000D01*
X173380952Y-111363238D01*
X173285714Y-111553714D01*
X173285714Y-112029904D01*
X173380952Y-112220380D01*
X173476190Y-112315619D01*
X173666666Y-112410857D01*
X174047619Y-112410857D01*
X174238095Y-112315619D01*
X174333333Y-112220380D01*
X174428571Y-112029904D01*
D11*
X124428571Y-109561142D02*
X124428571Y-106561142D01*
X124714285Y-108418285D02*
X125571428Y-109561142D01*
X125571428Y-107561142D02*
X124428571Y-108704000D01*
X127999999Y-109418285D02*
X127714285Y-109561142D01*
X127142857Y-109561142D01*
X126857142Y-109418285D01*
X126714285Y-109132571D01*
X126714285Y-107989714D01*
X126857142Y-107704000D01*
X127142857Y-107561142D01*
X127714285Y-107561142D01*
X127999999Y-107704000D01*
X128142857Y-107989714D01*
X128142857Y-108275428D01*
X126714285Y-108561142D01*
X129142857Y-107561142D02*
X129857142Y-109561142D01*
X130571428Y-107561142D02*
X129857142Y-109561142D01*
X129571428Y-110275428D01*
X129428571Y-110418285D01*
X129142857Y-110561142D01*
X131714285Y-107561142D02*
X131714285Y-110561142D01*
X131714285Y-107704000D02*
X131999999Y-107561142D01*
X132571428Y-107561142D01*
X132857142Y-107704000D01*
X132999999Y-107846857D01*
X133142857Y-108132571D01*
X133142857Y-108989714D01*
X132999999Y-109275428D01*
X132857142Y-109418285D01*
X132571428Y-109561142D01*
X131999999Y-109561142D01*
X131714285Y-109418285D01*
X135714285Y-109561142D02*
X135714285Y-107989714D01*
X135571428Y-107704000D01*
X135285714Y-107561142D01*
X134714285Y-107561142D01*
X134428571Y-107704000D01*
X135714285Y-109418285D02*
X135428571Y-109561142D01*
X134714285Y-109561142D01*
X134428571Y-109418285D01*
X134285714Y-109132571D01*
X134285714Y-108846857D01*
X134428571Y-108561142D01*
X134714285Y-108418285D01*
X135428571Y-108418285D01*
X135714285Y-108275428D01*
X138428571Y-109561142D02*
X138428571Y-106561142D01*
X138428571Y-109418285D02*
X138142857Y-109561142D01*
X137571428Y-109561142D01*
X137285714Y-109418285D01*
X137142857Y-109275428D01*
X137000000Y-108989714D01*
X137000000Y-108132571D01*
X137142857Y-107846857D01*
X137285714Y-107704000D01*
X137571428Y-107561142D01*
X138142857Y-107561142D01*
X138428571Y-107704000D01*
X139857142Y-108418285D02*
X142142857Y-108418285D01*
X143571428Y-109561142D02*
X143571428Y-106561142D01*
X143571428Y-107704000D02*
X143857142Y-107561142D01*
X144428571Y-107561142D01*
X144714285Y-107704000D01*
X144857142Y-107846857D01*
X145000000Y-108132571D01*
X145000000Y-108989714D01*
X144857142Y-109275428D01*
X144714285Y-109418285D01*
X144428571Y-109561142D01*
X143857142Y-109561142D01*
X143571428Y-109418285D01*
X147571428Y-109561142D02*
X147571428Y-107989714D01*
X147428571Y-107704000D01*
X147142857Y-107561142D01*
X146571428Y-107561142D01*
X146285714Y-107704000D01*
X147571428Y-109418285D02*
X147285714Y-109561142D01*
X146571428Y-109561142D01*
X146285714Y-109418285D01*
X146142857Y-109132571D01*
X146142857Y-108846857D01*
X146285714Y-108561142D01*
X146571428Y-108418285D01*
X147285714Y-108418285D01*
X147571428Y-108275428D01*
X148857142Y-109418285D02*
X149142857Y-109561142D01*
X149714285Y-109561142D01*
X149999999Y-109418285D01*
X150142857Y-109132571D01*
X150142857Y-108989714D01*
X149999999Y-108704000D01*
X149714285Y-108561142D01*
X149285714Y-108561142D01*
X148999999Y-108418285D01*
X148857142Y-108132571D01*
X148857142Y-107989714D01*
X148999999Y-107704000D01*
X149285714Y-107561142D01*
X149714285Y-107561142D01*
X149999999Y-107704000D01*
X152571428Y-109418285D02*
X152285714Y-109561142D01*
X151714285Y-109561142D01*
X151428571Y-109418285D01*
X151285714Y-109132571D01*
X151285714Y-107989714D01*
X151428571Y-107704000D01*
X151714285Y-107561142D01*
X152285714Y-107561142D01*
X152571428Y-107704000D01*
X152714285Y-107989714D01*
X152714285Y-108275428D01*
X151285714Y-108561142D01*
X158142857Y-108132571D02*
X157999999Y-107989714D01*
X157714285Y-107846857D01*
X157428571Y-107846857D01*
X157142857Y-107989714D01*
X156999999Y-108132571D01*
X156857142Y-108418285D01*
X156857142Y-108704000D01*
X156999999Y-108989714D01*
X157142857Y-109132571D01*
X157428571Y-109275428D01*
X157714285Y-109275428D01*
X157999999Y-109132571D01*
X158142857Y-108989714D01*
X158142857Y-107846857D02*
X158142857Y-108989714D01*
X158285714Y-109132571D01*
X158428571Y-109132571D01*
X158714285Y-108989714D01*
X158857142Y-108704000D01*
X158857142Y-107989714D01*
X158571428Y-107561142D01*
X158142857Y-107275428D01*
X157571428Y-107132571D01*
X156999999Y-107275428D01*
X156571428Y-107561142D01*
X156285714Y-107989714D01*
X156142857Y-108561142D01*
X156285714Y-109132571D01*
X156571428Y-109561142D01*
X156999999Y-109846857D01*
X157571428Y-109989714D01*
X158142857Y-109846857D01*
X158571428Y-109561142D01*
X159714285Y-106561142D02*
X161428571Y-106561142D01*
X160571428Y-109561142D02*
X160571428Y-106561142D01*
X162857142Y-109561142D02*
X162571428Y-109418285D01*
X162428571Y-109275428D01*
X162285714Y-108989714D01*
X162285714Y-108132571D01*
X162428571Y-107846857D01*
X162571428Y-107704000D01*
X162857142Y-107561142D01*
X163285714Y-107561142D01*
X163571428Y-107704000D01*
X163714285Y-107846857D01*
X163857142Y-108132571D01*
X163857142Y-108989714D01*
X163714285Y-109275428D01*
X163571428Y-109418285D01*
X163285714Y-109561142D01*
X162857142Y-109561142D01*
X165142857Y-109561142D02*
X165142857Y-107561142D01*
X165142857Y-107846857D02*
X165285714Y-107704000D01*
X165571428Y-107561142D01*
X166000000Y-107561142D01*
X166285714Y-107704000D01*
X166428571Y-107989714D01*
X166428571Y-109561142D01*
X166428571Y-107989714D02*
X166571428Y-107704000D01*
X166857142Y-107561142D01*
X167285714Y-107561142D01*
X167571428Y-107704000D01*
X167714285Y-107989714D01*
X167714285Y-109561142D01*
X169142857Y-109561142D02*
X169142857Y-106561142D01*
X170857142Y-109561142D02*
X169571428Y-107846857D01*
X170857142Y-106561142D02*
X169142857Y-108275428D01*
X173285714Y-109418285D02*
X173000000Y-109561142D01*
X172428571Y-109561142D01*
X172142857Y-109418285D01*
X172000000Y-109132571D01*
X172000000Y-107989714D01*
X172142857Y-107704000D01*
X172428571Y-107561142D01*
X173000000Y-107561142D01*
X173285714Y-107704000D01*
X173428571Y-107989714D01*
X173428571Y-108275428D01*
X172000000Y-108561142D01*
X176000000Y-109561142D02*
X176000000Y-106561142D01*
X176000000Y-109418285D02*
X175714285Y-109561142D01*
X175142857Y-109561142D01*
X174857142Y-109418285D01*
X174714285Y-109275428D01*
X174571428Y-108989714D01*
X174571428Y-108132571D01*
X174714285Y-107846857D01*
X174857142Y-107704000D01*
X175142857Y-107561142D01*
X175714285Y-107561142D01*
X176000000Y-107704000D01*
X178714285Y-109561142D02*
X178714285Y-106561142D01*
X178714285Y-109418285D02*
X178428571Y-109561142D01*
X177857142Y-109561142D01*
X177571428Y-109418285D01*
X177428571Y-109275428D01*
X177285714Y-108989714D01*
X177285714Y-108132571D01*
X177428571Y-107846857D01*
X177571428Y-107704000D01*
X177857142Y-107561142D01*
X178428571Y-107561142D01*
X178714285Y-107704000D01*
X180142857Y-109561142D02*
X180142857Y-107561142D01*
X180142857Y-106561142D02*
X180000000Y-106704000D01*
X180142857Y-106846857D01*
X180285714Y-106704000D01*
X180142857Y-106561142D01*
X180142857Y-106846857D01*
X182714285Y-109418285D02*
X182428571Y-109561142D01*
X181857142Y-109561142D01*
X181571428Y-109418285D01*
X181428571Y-109132571D01*
X181428571Y-107989714D01*
X181571428Y-107704000D01*
X181857142Y-107561142D01*
X182428571Y-107561142D01*
X182714285Y-107704000D01*
X182857142Y-107989714D01*
X182857142Y-108275428D01*
X181428571Y-108561142D01*
X186285714Y-108704000D02*
X187714285Y-108704000D01*
X186000000Y-109561142D02*
X187000000Y-106561142D01*
X188000000Y-109561142D01*
X189000000Y-107561142D02*
X189000000Y-110561142D01*
X189000000Y-107704000D02*
X189285714Y-107561142D01*
X189857142Y-107561142D01*
X190142857Y-107704000D01*
X190285714Y-107846857D01*
X190428571Y-108132571D01*
X190428571Y-108989714D01*
X190285714Y-109275428D01*
X190142857Y-109418285D01*
X189857142Y-109561142D01*
X189285714Y-109561142D01*
X189000000Y-109418285D01*
X191714285Y-109561142D02*
X191714285Y-107561142D01*
X191714285Y-108132571D02*
X191857142Y-107846857D01*
X192000000Y-107704000D01*
X192285714Y-107561142D01*
X192571428Y-107561142D01*
X193428571Y-106846857D02*
X193571428Y-106704000D01*
X193857142Y-106561142D01*
X194571428Y-106561142D01*
X194857142Y-106704000D01*
X195000000Y-106846857D01*
X195142857Y-107132571D01*
X195142857Y-107418285D01*
X195000000Y-107846857D01*
X193285714Y-109561142D01*
X195142857Y-109561142D01*
X196999999Y-106561142D02*
X197285714Y-106561142D01*
X197571428Y-106704000D01*
X197714285Y-106846857D01*
X197857142Y-107132571D01*
X197999999Y-107704000D01*
X197999999Y-108418285D01*
X197857142Y-108989714D01*
X197714285Y-109275428D01*
X197571428Y-109418285D01*
X197285714Y-109561142D01*
X196999999Y-109561142D01*
X196714285Y-109418285D01*
X196571428Y-109275428D01*
X196428571Y-108989714D01*
X196285714Y-108418285D01*
X196285714Y-107704000D01*
X196428571Y-107132571D01*
X196571428Y-106846857D01*
X196714285Y-106704000D01*
X196999999Y-106561142D01*
X199142857Y-106846857D02*
X199285714Y-106704000D01*
X199571428Y-106561142D01*
X200285714Y-106561142D01*
X200571428Y-106704000D01*
X200714285Y-106846857D01*
X200857142Y-107132571D01*
X200857142Y-107418285D01*
X200714285Y-107846857D01*
X198999999Y-109561142D01*
X200857142Y-109561142D01*
X203714285Y-109561142D02*
X201999999Y-109561142D01*
X202857142Y-109561142D02*
X202857142Y-106561142D01*
X202571428Y-106989714D01*
X202285714Y-107275428D01*
X201999999Y-107418285D01*
D12*
G04 #@! TO.C,R11*
X161294578Y-91746000D02*
X160777422Y-91746000D01*
X161294578Y-93166000D02*
X160777422Y-93166000D01*
G04 #@! TO.C,R4*
X145537422Y-91134000D02*
X146054578Y-91134000D01*
X145537422Y-89714000D02*
X146054578Y-89714000D01*
G04 #@! TO.C,U11*
X150691000Y-87451000D02*
X149016000Y-87451000D01*
X150691000Y-87191000D02*
X150691000Y-87451000D01*
X153416000Y-87191000D02*
X150691000Y-87191000D01*
X156141000Y-87191000D02*
X156141000Y-87451000D01*
X153416000Y-87191000D02*
X156141000Y-87191000D01*
X150691000Y-92641000D02*
X150691000Y-92381000D01*
X153416000Y-92641000D02*
X150691000Y-92641000D01*
X156141000Y-92641000D02*
X156141000Y-92381000D01*
X153416000Y-92641000D02*
X156141000Y-92641000D01*
G04 #@! TO.C,J3*
X151698000Y-61274000D02*
X151698000Y-58614000D01*
X149098000Y-61274000D02*
X151698000Y-61274000D01*
X149098000Y-58614000D02*
X151698000Y-58614000D01*
X149098000Y-61274000D02*
X149098000Y-58614000D01*
X147828000Y-61274000D02*
X146498000Y-61274000D01*
X146498000Y-61274000D02*
X146498000Y-59944000D01*
G04 #@! TO.C,J2*
X159318000Y-61274000D02*
X159318000Y-58614000D01*
X156718000Y-61274000D02*
X159318000Y-61274000D01*
X156718000Y-58614000D02*
X159318000Y-58614000D01*
X156718000Y-61274000D02*
X156718000Y-58614000D01*
X155448000Y-61274000D02*
X154118000Y-61274000D01*
X154118000Y-61274000D02*
X154118000Y-59944000D01*
G04 #@! TO.C,C20*
X160269422Y-88594000D02*
X160786578Y-88594000D01*
X160269422Y-87174000D02*
X160786578Y-87174000D01*
G04 #@! TO.C,U10*
X114416000Y-88986000D02*
X116216000Y-88986000D01*
X116216000Y-85766000D02*
X113766000Y-85766000D01*
G04 #@! TO.C,C18*
X119582000Y-87117422D02*
X119582000Y-87634578D01*
X118162000Y-87117422D02*
X118162000Y-87634578D01*
G04 #@! TO.C,C17*
X207062000Y-72902578D02*
X207062000Y-72385422D01*
X208482000Y-72902578D02*
X208482000Y-72385422D01*
G04 #@! TO.C,C16*
X111962000Y-87117422D02*
X111962000Y-87634578D01*
X110542000Y-87117422D02*
X110542000Y-87634578D01*
G04 #@! TO.C,C15*
X188266000Y-72902578D02*
X188266000Y-72385422D01*
X189686000Y-72902578D02*
X189686000Y-72385422D01*
G04 #@! TO.C,C14*
X167946000Y-72394578D02*
X167946000Y-71877422D01*
X169366000Y-72394578D02*
X169366000Y-71877422D01*
G04 #@! TO.C,C13*
X150674000Y-72902578D02*
X150674000Y-72385422D01*
X152094000Y-72902578D02*
X152094000Y-72385422D01*
G04 #@! TO.C,C12*
X131878000Y-72902578D02*
X131878000Y-72385422D01*
X133298000Y-72902578D02*
X133298000Y-72385422D01*
G04 #@! TO.C,C11*
X112574000Y-72902578D02*
X112574000Y-72385422D01*
X113994000Y-72902578D02*
X113994000Y-72385422D01*
G04 #@! TO.C,C9*
X108914000Y-87117422D02*
X108914000Y-87634578D01*
X107494000Y-87117422D02*
X107494000Y-87634578D01*
G04 #@! TO.C,C8*
X172461422Y-75490000D02*
X172978578Y-75490000D01*
X172461422Y-76910000D02*
X172978578Y-76910000D01*
G04 #@! TO.C,R16*
X106938578Y-83006000D02*
X106421422Y-83006000D01*
X106938578Y-81586000D02*
X106421422Y-81586000D01*
G04 #@! TO.C,R15*
X106938578Y-80974000D02*
X106421422Y-80974000D01*
X106938578Y-79554000D02*
X106421422Y-79554000D01*
G04 #@! TO.C,R14*
X102710000Y-78741422D02*
X102710000Y-79258578D01*
X101290000Y-78741422D02*
X101290000Y-79258578D01*
G04 #@! TO.C,R13*
X102710000Y-85741422D02*
X102710000Y-86258578D01*
X101290000Y-85741422D02*
X101290000Y-86258578D01*
G04 #@! TO.C,R12*
X172461422Y-78030000D02*
X172978578Y-78030000D01*
X172461422Y-79450000D02*
X172978578Y-79450000D01*
G04 #@! TO.C,R10*
X205030000Y-72902578D02*
X205030000Y-72385422D01*
X206450000Y-72902578D02*
X206450000Y-72385422D01*
G04 #@! TO.C,R9*
X186234000Y-72902578D02*
X186234000Y-72385422D01*
X187654000Y-72902578D02*
X187654000Y-72385422D01*
G04 #@! TO.C,R8*
X165914000Y-72394578D02*
X165914000Y-71877422D01*
X167334000Y-72394578D02*
X167334000Y-71877422D01*
G04 #@! TO.C,R7*
X148642000Y-72902578D02*
X148642000Y-72385422D01*
X150062000Y-72902578D02*
X150062000Y-72385422D01*
G04 #@! TO.C,R6*
X129846000Y-72902578D02*
X129846000Y-72385422D01*
X131266000Y-72902578D02*
X131266000Y-72385422D01*
G04 #@! TO.C,R5*
X110542000Y-72902578D02*
X110542000Y-72385422D01*
X111962000Y-72902578D02*
X111962000Y-72385422D01*
G04 #@! TO.C,Q1*
X177036000Y-81336000D02*
X175576000Y-81336000D01*
X177036000Y-78176000D02*
X174876000Y-78176000D01*
X177036000Y-78176000D02*
X177036000Y-79106000D01*
X177036000Y-81336000D02*
X177036000Y-80406000D01*
G04 #@! TO.C,X1*
X169050000Y-88248000D02*
X163300000Y-88248000D01*
X169050000Y-91848000D02*
X169050000Y-88248000D01*
X163300000Y-91848000D02*
X169050000Y-91848000D01*
G04 #@! TO.C,U1*
X163615000Y-77438000D02*
X162890000Y-77438000D01*
X170110000Y-84658000D02*
X170110000Y-83933000D01*
X169385000Y-84658000D02*
X170110000Y-84658000D01*
X162890000Y-84658000D02*
X162890000Y-83933000D01*
X163615000Y-84658000D02*
X162890000Y-84658000D01*
X170110000Y-77438000D02*
X170110000Y-78163000D01*
X169385000Y-77438000D02*
X170110000Y-77438000D01*
G04 #@! TO.C,R3*
X160269422Y-84634000D02*
X160786578Y-84634000D01*
X160269422Y-86054000D02*
X160786578Y-86054000D01*
G04 #@! TO.C,R2*
X221286000Y-72902578D02*
X221286000Y-72385422D01*
X222706000Y-72902578D02*
X222706000Y-72385422D01*
G04 #@! TO.C,R1*
X223318000Y-72902578D02*
X223318000Y-72385422D01*
X224738000Y-72902578D02*
X224738000Y-72385422D01*
G04 #@! TO.C,C7*
X155198578Y-81482000D02*
X154681422Y-81482000D01*
X155198578Y-80062000D02*
X154681422Y-80062000D01*
G04 #@! TO.C,C6*
X164222500Y-71877422D02*
X164222500Y-72394578D01*
X162802500Y-71877422D02*
X162802500Y-72394578D01*
G04 #@! TO.C,C5*
X161258578Y-90758000D02*
X160741422Y-90758000D01*
X161258578Y-89338000D02*
X160741422Y-89338000D01*
G04 #@! TO.C,C4*
X160723078Y-77037000D02*
X160205922Y-77037000D01*
X160723078Y-75617000D02*
X160205922Y-75617000D01*
G04 #@! TO.C,C3*
X164342578Y-87070000D02*
X163825422Y-87070000D01*
X164342578Y-85650000D02*
X163825422Y-85650000D01*
G04 #@! TO.C,C2*
X170741422Y-89338000D02*
X171258578Y-89338000D01*
X170741422Y-90758000D02*
X171258578Y-90758000D01*
G04 #@! TO.C,C1*
X172461422Y-84126000D02*
X172978578Y-84126000D01*
X172461422Y-85546000D02*
X172978578Y-85546000D01*
D13*
G04 #@! TO.C,SW7*
X220088000Y-99140000D02*
X216460000Y-99140000D01*
X220096000Y-95428000D02*
X220096000Y-99140000D01*
X209190000Y-97250000D02*
X214550000Y-97250000D01*
X209190000Y-93250000D02*
X217810000Y-93250000D01*
X209190000Y-93250000D02*
X209190000Y-97250000D01*
X217810000Y-93249000D02*
G75*
G02*
X220096000Y-95535000I0J-2286000D01*
G01*
X214570000Y-97250000D02*
G75*
G02*
X216460000Y-99140000I0J-1890000D01*
G01*
G04 #@! TO.C,SW6*
X201088000Y-99140000D02*
X197460000Y-99140000D01*
X201096000Y-95428000D02*
X201096000Y-99140000D01*
X190190000Y-97250000D02*
X195550000Y-97250000D01*
X190190000Y-93250000D02*
X198810000Y-93250000D01*
X190190000Y-93250000D02*
X190190000Y-97250000D01*
X198810000Y-93249000D02*
G75*
G02*
X201096000Y-95535000I0J-2286000D01*
G01*
X195570000Y-97250000D02*
G75*
G02*
X197460000Y-99140000I0J-1890000D01*
G01*
G04 #@! TO.C,SW5*
X182088000Y-99140000D02*
X178460000Y-99140000D01*
X182096000Y-95428000D02*
X182096000Y-99140000D01*
X171190000Y-97250000D02*
X176550000Y-97250000D01*
X171190000Y-93250000D02*
X179810000Y-93250000D01*
X171190000Y-93250000D02*
X171190000Y-97250000D01*
X179810000Y-93249000D02*
G75*
G02*
X182096000Y-95535000I0J-2286000D01*
G01*
X176570000Y-97250000D02*
G75*
G02*
X178460000Y-99140000I0J-1890000D01*
G01*
G04 #@! TO.C,SW4*
X163088000Y-99140000D02*
X159460000Y-99140000D01*
X163096000Y-95428000D02*
X163096000Y-99140000D01*
X152190000Y-97250000D02*
X157550000Y-97250000D01*
X152190000Y-93250000D02*
X160810000Y-93250000D01*
X152190000Y-93250000D02*
X152190000Y-97250000D01*
X160810000Y-93249000D02*
G75*
G02*
X163096000Y-95535000I0J-2286000D01*
G01*
X157570000Y-97250000D02*
G75*
G02*
X159460000Y-99140000I0J-1890000D01*
G01*
G04 #@! TO.C,SW3*
X144088000Y-99140000D02*
X140460000Y-99140000D01*
X144096000Y-95428000D02*
X144096000Y-99140000D01*
X133190000Y-97250000D02*
X138550000Y-97250000D01*
X133190000Y-93250000D02*
X141810000Y-93250000D01*
X133190000Y-93250000D02*
X133190000Y-97250000D01*
X141810000Y-93249000D02*
G75*
G02*
X144096000Y-95535000I0J-2286000D01*
G01*
X138570000Y-97250000D02*
G75*
G02*
X140460000Y-99140000I0J-1890000D01*
G01*
G04 #@! TO.C,SW2*
X125088000Y-99140000D02*
X121460000Y-99140000D01*
X125096000Y-95428000D02*
X125096000Y-99140000D01*
X114190000Y-97250000D02*
X119550000Y-97250000D01*
X114190000Y-93250000D02*
X122810000Y-93250000D01*
X114190000Y-93250000D02*
X114190000Y-97250000D01*
X122810000Y-93249000D02*
G75*
G02*
X125096000Y-95535000I0J-2286000D01*
G01*
X119570000Y-97250000D02*
G75*
G02*
X121460000Y-99140000I0J-1890000D01*
G01*
G04 #@! TO.C,R11*
X160393142Y-94558380D02*
X160059809Y-94082190D01*
X159821714Y-94558380D02*
X159821714Y-93558380D01*
X160202666Y-93558380D01*
X160297904Y-93606000D01*
X160345523Y-93653619D01*
X160393142Y-93748857D01*
X160393142Y-93891714D01*
X160345523Y-93986952D01*
X160297904Y-94034571D01*
X160202666Y-94082190D01*
X159821714Y-94082190D01*
X161345523Y-94558380D02*
X160774095Y-94558380D01*
X161059809Y-94558380D02*
X161059809Y-93558380D01*
X160964571Y-93701238D01*
X160869333Y-93796476D01*
X160774095Y-93844095D01*
X162297904Y-94558380D02*
X161726476Y-94558380D01*
X162012190Y-94558380D02*
X162012190Y-93558380D01*
X161916952Y-93701238D01*
X161821714Y-93796476D01*
X161726476Y-93844095D01*
G04 #@! TO.C,R4*
X145629333Y-89226380D02*
X145296000Y-88750190D01*
X145057904Y-89226380D02*
X145057904Y-88226380D01*
X145438857Y-88226380D01*
X145534095Y-88274000D01*
X145581714Y-88321619D01*
X145629333Y-88416857D01*
X145629333Y-88559714D01*
X145581714Y-88654952D01*
X145534095Y-88702571D01*
X145438857Y-88750190D01*
X145057904Y-88750190D01*
X146486476Y-88559714D02*
X146486476Y-89226380D01*
X146248380Y-88178761D02*
X146010285Y-88893047D01*
X146629333Y-88893047D01*
G04 #@! TO.C,U11*
X152177904Y-85808380D02*
X152177904Y-86617904D01*
X152225523Y-86713142D01*
X152273142Y-86760761D01*
X152368380Y-86808380D01*
X152558857Y-86808380D01*
X152654095Y-86760761D01*
X152701714Y-86713142D01*
X152749333Y-86617904D01*
X152749333Y-85808380D01*
X153749333Y-86808380D02*
X153177904Y-86808380D01*
X153463619Y-86808380D02*
X153463619Y-85808380D01*
X153368380Y-85951238D01*
X153273142Y-86046476D01*
X153177904Y-86094095D01*
X154701714Y-86808380D02*
X154130285Y-86808380D01*
X154416000Y-86808380D02*
X154416000Y-85808380D01*
X154320761Y-85951238D01*
X154225523Y-86046476D01*
X154130285Y-86094095D01*
G04 #@! TO.C,J3*
X144950380Y-60277333D02*
X145664666Y-60277333D01*
X145807523Y-60324952D01*
X145902761Y-60420190D01*
X145950380Y-60563047D01*
X145950380Y-60658285D01*
X144950380Y-59896380D02*
X144950380Y-59277333D01*
X145331333Y-59610666D01*
X145331333Y-59467809D01*
X145378952Y-59372571D01*
X145426571Y-59324952D01*
X145521809Y-59277333D01*
X145759904Y-59277333D01*
X145855142Y-59324952D01*
X145902761Y-59372571D01*
X145950380Y-59467809D01*
X145950380Y-59753523D01*
X145902761Y-59848761D01*
X145855142Y-59896380D01*
G04 #@! TO.C,J2*
X152570380Y-60277333D02*
X153284666Y-60277333D01*
X153427523Y-60324952D01*
X153522761Y-60420190D01*
X153570380Y-60563047D01*
X153570380Y-60658285D01*
X152665619Y-59848761D02*
X152618000Y-59801142D01*
X152570380Y-59705904D01*
X152570380Y-59467809D01*
X152618000Y-59372571D01*
X152665619Y-59324952D01*
X152760857Y-59277333D01*
X152856095Y-59277333D01*
X152998952Y-59324952D01*
X153570380Y-59896380D01*
X153570380Y-59277333D01*
G04 #@! TO.C,C20*
X159885142Y-86591142D02*
X159837523Y-86638761D01*
X159694666Y-86686380D01*
X159599428Y-86686380D01*
X159456571Y-86638761D01*
X159361333Y-86543523D01*
X159313714Y-86448285D01*
X159266095Y-86257809D01*
X159266095Y-86114952D01*
X159313714Y-85924476D01*
X159361333Y-85829238D01*
X159456571Y-85734000D01*
X159599428Y-85686380D01*
X159694666Y-85686380D01*
X159837523Y-85734000D01*
X159885142Y-85781619D01*
X160266095Y-85781619D02*
X160313714Y-85734000D01*
X160408952Y-85686380D01*
X160647047Y-85686380D01*
X160742285Y-85734000D01*
X160789904Y-85781619D01*
X160837523Y-85876857D01*
X160837523Y-85972095D01*
X160789904Y-86114952D01*
X160218476Y-86686380D01*
X160837523Y-86686380D01*
X161456571Y-85686380D02*
X161551809Y-85686380D01*
X161647047Y-85734000D01*
X161694666Y-85781619D01*
X161742285Y-85876857D01*
X161789904Y-86067333D01*
X161789904Y-86305428D01*
X161742285Y-86495904D01*
X161694666Y-86591142D01*
X161647047Y-86638761D01*
X161551809Y-86686380D01*
X161456571Y-86686380D01*
X161361333Y-86638761D01*
X161313714Y-86591142D01*
X161266095Y-86495904D01*
X161218476Y-86305428D01*
X161218476Y-86067333D01*
X161266095Y-85876857D01*
X161313714Y-85781619D01*
X161361333Y-85734000D01*
X161456571Y-85686380D01*
G04 #@! TO.C,U10*
X114077904Y-83928380D02*
X114077904Y-84737904D01*
X114125523Y-84833142D01*
X114173142Y-84880761D01*
X114268380Y-84928380D01*
X114458857Y-84928380D01*
X114554095Y-84880761D01*
X114601714Y-84833142D01*
X114649333Y-84737904D01*
X114649333Y-83928380D01*
X115649333Y-84928380D02*
X115077904Y-84928380D01*
X115363619Y-84928380D02*
X115363619Y-83928380D01*
X115268380Y-84071238D01*
X115173142Y-84166476D01*
X115077904Y-84214095D01*
X116268380Y-83928380D02*
X116363619Y-83928380D01*
X116458857Y-83976000D01*
X116506476Y-84023619D01*
X116554095Y-84118857D01*
X116601714Y-84309333D01*
X116601714Y-84547428D01*
X116554095Y-84737904D01*
X116506476Y-84833142D01*
X116458857Y-84880761D01*
X116363619Y-84928380D01*
X116268380Y-84928380D01*
X116173142Y-84880761D01*
X116125523Y-84833142D01*
X116077904Y-84737904D01*
X116030285Y-84547428D01*
X116030285Y-84309333D01*
X116077904Y-84118857D01*
X116125523Y-84023619D01*
X116173142Y-83976000D01*
X116268380Y-83928380D01*
G04 #@! TO.C,C18*
X120879142Y-88018857D02*
X120926761Y-88066476D01*
X120974380Y-88209333D01*
X120974380Y-88304571D01*
X120926761Y-88447428D01*
X120831523Y-88542666D01*
X120736285Y-88590285D01*
X120545809Y-88637904D01*
X120402952Y-88637904D01*
X120212476Y-88590285D01*
X120117238Y-88542666D01*
X120022000Y-88447428D01*
X119974380Y-88304571D01*
X119974380Y-88209333D01*
X120022000Y-88066476D01*
X120069619Y-88018857D01*
X120974380Y-87066476D02*
X120974380Y-87637904D01*
X120974380Y-87352190D02*
X119974380Y-87352190D01*
X120117238Y-87447428D01*
X120212476Y-87542666D01*
X120260095Y-87637904D01*
X120402952Y-86495047D02*
X120355333Y-86590285D01*
X120307714Y-86637904D01*
X120212476Y-86685523D01*
X120164857Y-86685523D01*
X120069619Y-86637904D01*
X120022000Y-86590285D01*
X119974380Y-86495047D01*
X119974380Y-86304571D01*
X120022000Y-86209333D01*
X120069619Y-86161714D01*
X120164857Y-86114095D01*
X120212476Y-86114095D01*
X120307714Y-86161714D01*
X120355333Y-86209333D01*
X120402952Y-86304571D01*
X120402952Y-86495047D01*
X120450571Y-86590285D01*
X120498190Y-86637904D01*
X120593428Y-86685523D01*
X120783904Y-86685523D01*
X120879142Y-86637904D01*
X120926761Y-86590285D01*
X120974380Y-86495047D01*
X120974380Y-86304571D01*
X120926761Y-86209333D01*
X120879142Y-86161714D01*
X120783904Y-86114095D01*
X120593428Y-86114095D01*
X120498190Y-86161714D01*
X120450571Y-86209333D01*
X120402952Y-86304571D01*
G04 #@! TO.C,C17*
X206479142Y-73286857D02*
X206526761Y-73334476D01*
X206574380Y-73477333D01*
X206574380Y-73572571D01*
X206526761Y-73715428D01*
X206431523Y-73810666D01*
X206336285Y-73858285D01*
X206145809Y-73905904D01*
X206002952Y-73905904D01*
X205812476Y-73858285D01*
X205717238Y-73810666D01*
X205622000Y-73715428D01*
X205574380Y-73572571D01*
X205574380Y-73477333D01*
X205622000Y-73334476D01*
X205669619Y-73286857D01*
X206574380Y-72334476D02*
X206574380Y-72905904D01*
X206574380Y-72620190D02*
X205574380Y-72620190D01*
X205717238Y-72715428D01*
X205812476Y-72810666D01*
X205860095Y-72905904D01*
X205574380Y-72001142D02*
X205574380Y-71334476D01*
X206574380Y-71763047D01*
G04 #@! TO.C,C16*
X113259142Y-88018857D02*
X113306761Y-88066476D01*
X113354380Y-88209333D01*
X113354380Y-88304571D01*
X113306761Y-88447428D01*
X113211523Y-88542666D01*
X113116285Y-88590285D01*
X112925809Y-88637904D01*
X112782952Y-88637904D01*
X112592476Y-88590285D01*
X112497238Y-88542666D01*
X112402000Y-88447428D01*
X112354380Y-88304571D01*
X112354380Y-88209333D01*
X112402000Y-88066476D01*
X112449619Y-88018857D01*
X113354380Y-87066476D02*
X113354380Y-87637904D01*
X113354380Y-87352190D02*
X112354380Y-87352190D01*
X112497238Y-87447428D01*
X112592476Y-87542666D01*
X112640095Y-87637904D01*
X112354380Y-86209333D02*
X112354380Y-86399809D01*
X112402000Y-86495047D01*
X112449619Y-86542666D01*
X112592476Y-86637904D01*
X112782952Y-86685523D01*
X113163904Y-86685523D01*
X113259142Y-86637904D01*
X113306761Y-86590285D01*
X113354380Y-86495047D01*
X113354380Y-86304571D01*
X113306761Y-86209333D01*
X113259142Y-86161714D01*
X113163904Y-86114095D01*
X112925809Y-86114095D01*
X112830571Y-86161714D01*
X112782952Y-86209333D01*
X112735333Y-86304571D01*
X112735333Y-86495047D01*
X112782952Y-86590285D01*
X112830571Y-86637904D01*
X112925809Y-86685523D01*
G04 #@! TO.C,C15*
X187683142Y-73286857D02*
X187730761Y-73334476D01*
X187778380Y-73477333D01*
X187778380Y-73572571D01*
X187730761Y-73715428D01*
X187635523Y-73810666D01*
X187540285Y-73858285D01*
X187349809Y-73905904D01*
X187206952Y-73905904D01*
X187016476Y-73858285D01*
X186921238Y-73810666D01*
X186826000Y-73715428D01*
X186778380Y-73572571D01*
X186778380Y-73477333D01*
X186826000Y-73334476D01*
X186873619Y-73286857D01*
X187778380Y-72334476D02*
X187778380Y-72905904D01*
X187778380Y-72620190D02*
X186778380Y-72620190D01*
X186921238Y-72715428D01*
X187016476Y-72810666D01*
X187064095Y-72905904D01*
X186778380Y-71429714D02*
X186778380Y-71905904D01*
X187254571Y-71953523D01*
X187206952Y-71905904D01*
X187159333Y-71810666D01*
X187159333Y-71572571D01*
X187206952Y-71477333D01*
X187254571Y-71429714D01*
X187349809Y-71382095D01*
X187587904Y-71382095D01*
X187683142Y-71429714D01*
X187730761Y-71477333D01*
X187778380Y-71572571D01*
X187778380Y-71810666D01*
X187730761Y-71905904D01*
X187683142Y-71953523D01*
G04 #@! TO.C,C14*
X167363142Y-72778857D02*
X167410761Y-72826476D01*
X167458380Y-72969333D01*
X167458380Y-73064571D01*
X167410761Y-73207428D01*
X167315523Y-73302666D01*
X167220285Y-73350285D01*
X167029809Y-73397904D01*
X166886952Y-73397904D01*
X166696476Y-73350285D01*
X166601238Y-73302666D01*
X166506000Y-73207428D01*
X166458380Y-73064571D01*
X166458380Y-72969333D01*
X166506000Y-72826476D01*
X166553619Y-72778857D01*
X167458380Y-71826476D02*
X167458380Y-72397904D01*
X167458380Y-72112190D02*
X166458380Y-72112190D01*
X166601238Y-72207428D01*
X166696476Y-72302666D01*
X166744095Y-72397904D01*
X166791714Y-70969333D02*
X167458380Y-70969333D01*
X166410761Y-71207428D02*
X167125047Y-71445523D01*
X167125047Y-70826476D01*
G04 #@! TO.C,C13*
X150091142Y-73286857D02*
X150138761Y-73334476D01*
X150186380Y-73477333D01*
X150186380Y-73572571D01*
X150138761Y-73715428D01*
X150043523Y-73810666D01*
X149948285Y-73858285D01*
X149757809Y-73905904D01*
X149614952Y-73905904D01*
X149424476Y-73858285D01*
X149329238Y-73810666D01*
X149234000Y-73715428D01*
X149186380Y-73572571D01*
X149186380Y-73477333D01*
X149234000Y-73334476D01*
X149281619Y-73286857D01*
X150186380Y-72334476D02*
X150186380Y-72905904D01*
X150186380Y-72620190D02*
X149186380Y-72620190D01*
X149329238Y-72715428D01*
X149424476Y-72810666D01*
X149472095Y-72905904D01*
X149186380Y-72001142D02*
X149186380Y-71382095D01*
X149567333Y-71715428D01*
X149567333Y-71572571D01*
X149614952Y-71477333D01*
X149662571Y-71429714D01*
X149757809Y-71382095D01*
X149995904Y-71382095D01*
X150091142Y-71429714D01*
X150138761Y-71477333D01*
X150186380Y-71572571D01*
X150186380Y-71858285D01*
X150138761Y-71953523D01*
X150091142Y-72001142D01*
G04 #@! TO.C,C12*
X131295142Y-73286857D02*
X131342761Y-73334476D01*
X131390380Y-73477333D01*
X131390380Y-73572571D01*
X131342761Y-73715428D01*
X131247523Y-73810666D01*
X131152285Y-73858285D01*
X130961809Y-73905904D01*
X130818952Y-73905904D01*
X130628476Y-73858285D01*
X130533238Y-73810666D01*
X130438000Y-73715428D01*
X130390380Y-73572571D01*
X130390380Y-73477333D01*
X130438000Y-73334476D01*
X130485619Y-73286857D01*
X131390380Y-72334476D02*
X131390380Y-72905904D01*
X131390380Y-72620190D02*
X130390380Y-72620190D01*
X130533238Y-72715428D01*
X130628476Y-72810666D01*
X130676095Y-72905904D01*
X130485619Y-71953523D02*
X130438000Y-71905904D01*
X130390380Y-71810666D01*
X130390380Y-71572571D01*
X130438000Y-71477333D01*
X130485619Y-71429714D01*
X130580857Y-71382095D01*
X130676095Y-71382095D01*
X130818952Y-71429714D01*
X131390380Y-72001142D01*
X131390380Y-71382095D01*
G04 #@! TO.C,C11*
X111991142Y-73286857D02*
X112038761Y-73334476D01*
X112086380Y-73477333D01*
X112086380Y-73572571D01*
X112038761Y-73715428D01*
X111943523Y-73810666D01*
X111848285Y-73858285D01*
X111657809Y-73905904D01*
X111514952Y-73905904D01*
X111324476Y-73858285D01*
X111229238Y-73810666D01*
X111134000Y-73715428D01*
X111086380Y-73572571D01*
X111086380Y-73477333D01*
X111134000Y-73334476D01*
X111181619Y-73286857D01*
X112086380Y-72334476D02*
X112086380Y-72905904D01*
X112086380Y-72620190D02*
X111086380Y-72620190D01*
X111229238Y-72715428D01*
X111324476Y-72810666D01*
X111372095Y-72905904D01*
X112086380Y-71382095D02*
X112086380Y-71953523D01*
X112086380Y-71667809D02*
X111086380Y-71667809D01*
X111229238Y-71763047D01*
X111324476Y-71858285D01*
X111372095Y-71953523D01*
G04 #@! TO.C,C9*
X110211142Y-87542666D02*
X110258761Y-87590285D01*
X110306380Y-87733142D01*
X110306380Y-87828380D01*
X110258761Y-87971238D01*
X110163523Y-88066476D01*
X110068285Y-88114095D01*
X109877809Y-88161714D01*
X109734952Y-88161714D01*
X109544476Y-88114095D01*
X109449238Y-88066476D01*
X109354000Y-87971238D01*
X109306380Y-87828380D01*
X109306380Y-87733142D01*
X109354000Y-87590285D01*
X109401619Y-87542666D01*
X110306380Y-87066476D02*
X110306380Y-86876000D01*
X110258761Y-86780761D01*
X110211142Y-86733142D01*
X110068285Y-86637904D01*
X109877809Y-86590285D01*
X109496857Y-86590285D01*
X109401619Y-86637904D01*
X109354000Y-86685523D01*
X109306380Y-86780761D01*
X109306380Y-86971238D01*
X109354000Y-87066476D01*
X109401619Y-87114095D01*
X109496857Y-87161714D01*
X109734952Y-87161714D01*
X109830190Y-87114095D01*
X109877809Y-87066476D01*
X109925428Y-86971238D01*
X109925428Y-86780761D01*
X109877809Y-86685523D01*
X109830190Y-86637904D01*
X109734952Y-86590285D01*
G04 #@! TO.C,C8*
X172553333Y-74907142D02*
X172505714Y-74954761D01*
X172362857Y-75002380D01*
X172267619Y-75002380D01*
X172124761Y-74954761D01*
X172029523Y-74859523D01*
X171981904Y-74764285D01*
X171934285Y-74573809D01*
X171934285Y-74430952D01*
X171981904Y-74240476D01*
X172029523Y-74145238D01*
X172124761Y-74050000D01*
X172267619Y-74002380D01*
X172362857Y-74002380D01*
X172505714Y-74050000D01*
X172553333Y-74097619D01*
X173124761Y-74430952D02*
X173029523Y-74383333D01*
X172981904Y-74335714D01*
X172934285Y-74240476D01*
X172934285Y-74192857D01*
X172981904Y-74097619D01*
X173029523Y-74050000D01*
X173124761Y-74002380D01*
X173315238Y-74002380D01*
X173410476Y-74050000D01*
X173458095Y-74097619D01*
X173505714Y-74192857D01*
X173505714Y-74240476D01*
X173458095Y-74335714D01*
X173410476Y-74383333D01*
X173315238Y-74430952D01*
X173124761Y-74430952D01*
X173029523Y-74478571D01*
X172981904Y-74526190D01*
X172934285Y-74621428D01*
X172934285Y-74811904D01*
X172981904Y-74907142D01*
X173029523Y-74954761D01*
X173124761Y-75002380D01*
X173315238Y-75002380D01*
X173410476Y-74954761D01*
X173458095Y-74907142D01*
X173505714Y-74811904D01*
X173505714Y-74621428D01*
X173458095Y-74526190D01*
X173410476Y-74478571D01*
X173315238Y-74430952D01*
G04 #@! TO.C,R16*
X106037142Y-84398380D02*
X105703809Y-83922190D01*
X105465714Y-84398380D02*
X105465714Y-83398380D01*
X105846666Y-83398380D01*
X105941904Y-83446000D01*
X105989523Y-83493619D01*
X106037142Y-83588857D01*
X106037142Y-83731714D01*
X105989523Y-83826952D01*
X105941904Y-83874571D01*
X105846666Y-83922190D01*
X105465714Y-83922190D01*
X106989523Y-84398380D02*
X106418095Y-84398380D01*
X106703809Y-84398380D02*
X106703809Y-83398380D01*
X106608571Y-83541238D01*
X106513333Y-83636476D01*
X106418095Y-83684095D01*
X107846666Y-83398380D02*
X107656190Y-83398380D01*
X107560952Y-83446000D01*
X107513333Y-83493619D01*
X107418095Y-83636476D01*
X107370476Y-83826952D01*
X107370476Y-84207904D01*
X107418095Y-84303142D01*
X107465714Y-84350761D01*
X107560952Y-84398380D01*
X107751428Y-84398380D01*
X107846666Y-84350761D01*
X107894285Y-84303142D01*
X107941904Y-84207904D01*
X107941904Y-83969809D01*
X107894285Y-83874571D01*
X107846666Y-83826952D01*
X107751428Y-83779333D01*
X107560952Y-83779333D01*
X107465714Y-83826952D01*
X107418095Y-83874571D01*
X107370476Y-83969809D01*
G04 #@! TO.C,R15*
X106037142Y-82366380D02*
X105703809Y-81890190D01*
X105465714Y-82366380D02*
X105465714Y-81366380D01*
X105846666Y-81366380D01*
X105941904Y-81414000D01*
X105989523Y-81461619D01*
X106037142Y-81556857D01*
X106037142Y-81699714D01*
X105989523Y-81794952D01*
X105941904Y-81842571D01*
X105846666Y-81890190D01*
X105465714Y-81890190D01*
X106989523Y-82366380D02*
X106418095Y-82366380D01*
X106703809Y-82366380D02*
X106703809Y-81366380D01*
X106608571Y-81509238D01*
X106513333Y-81604476D01*
X106418095Y-81652095D01*
X107894285Y-81366380D02*
X107418095Y-81366380D01*
X107370476Y-81842571D01*
X107418095Y-81794952D01*
X107513333Y-81747333D01*
X107751428Y-81747333D01*
X107846666Y-81794952D01*
X107894285Y-81842571D01*
X107941904Y-81937809D01*
X107941904Y-82175904D01*
X107894285Y-82271142D01*
X107846666Y-82318761D01*
X107751428Y-82366380D01*
X107513333Y-82366380D01*
X107418095Y-82318761D01*
X107370476Y-82271142D01*
G04 #@! TO.C,R14*
X104102380Y-79642857D02*
X103626190Y-79976190D01*
X104102380Y-80214285D02*
X103102380Y-80214285D01*
X103102380Y-79833333D01*
X103150000Y-79738095D01*
X103197619Y-79690476D01*
X103292857Y-79642857D01*
X103435714Y-79642857D01*
X103530952Y-79690476D01*
X103578571Y-79738095D01*
X103626190Y-79833333D01*
X103626190Y-80214285D01*
X104102380Y-78690476D02*
X104102380Y-79261904D01*
X104102380Y-78976190D02*
X103102380Y-78976190D01*
X103245238Y-79071428D01*
X103340476Y-79166666D01*
X103388095Y-79261904D01*
X103435714Y-77833333D02*
X104102380Y-77833333D01*
X103054761Y-78071428D02*
X103769047Y-78309523D01*
X103769047Y-77690476D01*
G04 #@! TO.C,R13*
X104102380Y-86642857D02*
X103626190Y-86976190D01*
X104102380Y-87214285D02*
X103102380Y-87214285D01*
X103102380Y-86833333D01*
X103150000Y-86738095D01*
X103197619Y-86690476D01*
X103292857Y-86642857D01*
X103435714Y-86642857D01*
X103530952Y-86690476D01*
X103578571Y-86738095D01*
X103626190Y-86833333D01*
X103626190Y-87214285D01*
X104102380Y-85690476D02*
X104102380Y-86261904D01*
X104102380Y-85976190D02*
X103102380Y-85976190D01*
X103245238Y-86071428D01*
X103340476Y-86166666D01*
X103388095Y-86261904D01*
X103102380Y-85357142D02*
X103102380Y-84738095D01*
X103483333Y-85071428D01*
X103483333Y-84928571D01*
X103530952Y-84833333D01*
X103578571Y-84785714D01*
X103673809Y-84738095D01*
X103911904Y-84738095D01*
X104007142Y-84785714D01*
X104054761Y-84833333D01*
X104102380Y-84928571D01*
X104102380Y-85214285D01*
X104054761Y-85309523D01*
X104007142Y-85357142D01*
G04 #@! TO.C,H1*
X165738095Y-160952380D02*
X165738095Y-159952380D01*
X165738095Y-160428571D02*
X166309523Y-160428571D01*
X166309523Y-160952380D02*
X166309523Y-159952380D01*
X167309523Y-160952380D02*
X166738095Y-160952380D01*
X167023809Y-160952380D02*
X167023809Y-159952380D01*
X166928571Y-160095238D01*
X166833333Y-160190476D01*
X166738095Y-160238095D01*
G04 #@! TO.C,R12*
X172077142Y-77542380D02*
X171743809Y-77066190D01*
X171505714Y-77542380D02*
X171505714Y-76542380D01*
X171886666Y-76542380D01*
X171981904Y-76590000D01*
X172029523Y-76637619D01*
X172077142Y-76732857D01*
X172077142Y-76875714D01*
X172029523Y-76970952D01*
X171981904Y-77018571D01*
X171886666Y-77066190D01*
X171505714Y-77066190D01*
X173029523Y-77542380D02*
X172458095Y-77542380D01*
X172743809Y-77542380D02*
X172743809Y-76542380D01*
X172648571Y-76685238D01*
X172553333Y-76780476D01*
X172458095Y-76828095D01*
X173410476Y-76637619D02*
X173458095Y-76590000D01*
X173553333Y-76542380D01*
X173791428Y-76542380D01*
X173886666Y-76590000D01*
X173934285Y-76637619D01*
X173981904Y-76732857D01*
X173981904Y-76828095D01*
X173934285Y-76970952D01*
X173362857Y-77542380D01*
X173981904Y-77542380D01*
G04 #@! TO.C,R10*
X204542380Y-73286857D02*
X204066190Y-73620190D01*
X204542380Y-73858285D02*
X203542380Y-73858285D01*
X203542380Y-73477333D01*
X203590000Y-73382095D01*
X203637619Y-73334476D01*
X203732857Y-73286857D01*
X203875714Y-73286857D01*
X203970952Y-73334476D01*
X204018571Y-73382095D01*
X204066190Y-73477333D01*
X204066190Y-73858285D01*
X204542380Y-72334476D02*
X204542380Y-72905904D01*
X204542380Y-72620190D02*
X203542380Y-72620190D01*
X203685238Y-72715428D01*
X203780476Y-72810666D01*
X203828095Y-72905904D01*
X203542380Y-71715428D02*
X203542380Y-71620190D01*
X203590000Y-71524952D01*
X203637619Y-71477333D01*
X203732857Y-71429714D01*
X203923333Y-71382095D01*
X204161428Y-71382095D01*
X204351904Y-71429714D01*
X204447142Y-71477333D01*
X204494761Y-71524952D01*
X204542380Y-71620190D01*
X204542380Y-71715428D01*
X204494761Y-71810666D01*
X204447142Y-71858285D01*
X204351904Y-71905904D01*
X204161428Y-71953523D01*
X203923333Y-71953523D01*
X203732857Y-71905904D01*
X203637619Y-71858285D01*
X203590000Y-71810666D01*
X203542380Y-71715428D01*
G04 #@! TO.C,R9*
X185746380Y-72810666D02*
X185270190Y-73144000D01*
X185746380Y-73382095D02*
X184746380Y-73382095D01*
X184746380Y-73001142D01*
X184794000Y-72905904D01*
X184841619Y-72858285D01*
X184936857Y-72810666D01*
X185079714Y-72810666D01*
X185174952Y-72858285D01*
X185222571Y-72905904D01*
X185270190Y-73001142D01*
X185270190Y-73382095D01*
X185746380Y-72334476D02*
X185746380Y-72144000D01*
X185698761Y-72048761D01*
X185651142Y-72001142D01*
X185508285Y-71905904D01*
X185317809Y-71858285D01*
X184936857Y-71858285D01*
X184841619Y-71905904D01*
X184794000Y-71953523D01*
X184746380Y-72048761D01*
X184746380Y-72239238D01*
X184794000Y-72334476D01*
X184841619Y-72382095D01*
X184936857Y-72429714D01*
X185174952Y-72429714D01*
X185270190Y-72382095D01*
X185317809Y-72334476D01*
X185365428Y-72239238D01*
X185365428Y-72048761D01*
X185317809Y-71953523D01*
X185270190Y-71905904D01*
X185174952Y-71858285D01*
G04 #@! TO.C,R8*
X165426380Y-72302666D02*
X164950190Y-72636000D01*
X165426380Y-72874095D02*
X164426380Y-72874095D01*
X164426380Y-72493142D01*
X164474000Y-72397904D01*
X164521619Y-72350285D01*
X164616857Y-72302666D01*
X164759714Y-72302666D01*
X164854952Y-72350285D01*
X164902571Y-72397904D01*
X164950190Y-72493142D01*
X164950190Y-72874095D01*
X164854952Y-71731238D02*
X164807333Y-71826476D01*
X164759714Y-71874095D01*
X164664476Y-71921714D01*
X164616857Y-71921714D01*
X164521619Y-71874095D01*
X164474000Y-71826476D01*
X164426380Y-71731238D01*
X164426380Y-71540761D01*
X164474000Y-71445523D01*
X164521619Y-71397904D01*
X164616857Y-71350285D01*
X164664476Y-71350285D01*
X164759714Y-71397904D01*
X164807333Y-71445523D01*
X164854952Y-71540761D01*
X164854952Y-71731238D01*
X164902571Y-71826476D01*
X164950190Y-71874095D01*
X165045428Y-71921714D01*
X165235904Y-71921714D01*
X165331142Y-71874095D01*
X165378761Y-71826476D01*
X165426380Y-71731238D01*
X165426380Y-71540761D01*
X165378761Y-71445523D01*
X165331142Y-71397904D01*
X165235904Y-71350285D01*
X165045428Y-71350285D01*
X164950190Y-71397904D01*
X164902571Y-71445523D01*
X164854952Y-71540761D01*
G04 #@! TO.C,R7*
X148154380Y-72810666D02*
X147678190Y-73144000D01*
X148154380Y-73382095D02*
X147154380Y-73382095D01*
X147154380Y-73001142D01*
X147202000Y-72905904D01*
X147249619Y-72858285D01*
X147344857Y-72810666D01*
X147487714Y-72810666D01*
X147582952Y-72858285D01*
X147630571Y-72905904D01*
X147678190Y-73001142D01*
X147678190Y-73382095D01*
X147154380Y-72477333D02*
X147154380Y-71810666D01*
X148154380Y-72239238D01*
G04 #@! TO.C,R6*
X129358380Y-72810666D02*
X128882190Y-73144000D01*
X129358380Y-73382095D02*
X128358380Y-73382095D01*
X128358380Y-73001142D01*
X128406000Y-72905904D01*
X128453619Y-72858285D01*
X128548857Y-72810666D01*
X128691714Y-72810666D01*
X128786952Y-72858285D01*
X128834571Y-72905904D01*
X128882190Y-73001142D01*
X128882190Y-73382095D01*
X128358380Y-71953523D02*
X128358380Y-72144000D01*
X128406000Y-72239238D01*
X128453619Y-72286857D01*
X128596476Y-72382095D01*
X128786952Y-72429714D01*
X129167904Y-72429714D01*
X129263142Y-72382095D01*
X129310761Y-72334476D01*
X129358380Y-72239238D01*
X129358380Y-72048761D01*
X129310761Y-71953523D01*
X129263142Y-71905904D01*
X129167904Y-71858285D01*
X128929809Y-71858285D01*
X128834571Y-71905904D01*
X128786952Y-71953523D01*
X128739333Y-72048761D01*
X128739333Y-72239238D01*
X128786952Y-72334476D01*
X128834571Y-72382095D01*
X128929809Y-72429714D01*
G04 #@! TO.C,R5*
X110054380Y-72810666D02*
X109578190Y-73144000D01*
X110054380Y-73382095D02*
X109054380Y-73382095D01*
X109054380Y-73001142D01*
X109102000Y-72905904D01*
X109149619Y-72858285D01*
X109244857Y-72810666D01*
X109387714Y-72810666D01*
X109482952Y-72858285D01*
X109530571Y-72905904D01*
X109578190Y-73001142D01*
X109578190Y-73382095D01*
X109054380Y-71905904D02*
X109054380Y-72382095D01*
X109530571Y-72429714D01*
X109482952Y-72382095D01*
X109435333Y-72286857D01*
X109435333Y-72048761D01*
X109482952Y-71953523D01*
X109530571Y-71905904D01*
X109625809Y-71858285D01*
X109863904Y-71858285D01*
X109959142Y-71905904D01*
X110006761Y-71953523D01*
X110054380Y-72048761D01*
X110054380Y-72286857D01*
X110006761Y-72382095D01*
X109959142Y-72429714D01*
G04 #@! TO.C,Q1*
X176180761Y-77803619D02*
X176085523Y-77756000D01*
X175990285Y-77660761D01*
X175847428Y-77517904D01*
X175752190Y-77470285D01*
X175656952Y-77470285D01*
X175704571Y-77708380D02*
X175609333Y-77660761D01*
X175514095Y-77565523D01*
X175466476Y-77375047D01*
X175466476Y-77041714D01*
X175514095Y-76851238D01*
X175609333Y-76756000D01*
X175704571Y-76708380D01*
X175895047Y-76708380D01*
X175990285Y-76756000D01*
X176085523Y-76851238D01*
X176133142Y-77041714D01*
X176133142Y-77375047D01*
X176085523Y-77565523D01*
X175990285Y-77660761D01*
X175895047Y-77708380D01*
X175704571Y-77708380D01*
X177085523Y-77708380D02*
X176514095Y-77708380D01*
X176799809Y-77708380D02*
X176799809Y-76708380D01*
X176704571Y-76851238D01*
X176609333Y-76946476D01*
X176514095Y-76994095D01*
G04 #@! TO.C,X1*
X165190476Y-92300380D02*
X165857142Y-93300380D01*
X165857142Y-92300380D02*
X165190476Y-93300380D01*
X166761904Y-93300380D02*
X166190476Y-93300380D01*
X166476190Y-93300380D02*
X166476190Y-92300380D01*
X166380952Y-92443238D01*
X166285714Y-92538476D01*
X166190476Y-92586095D01*
G04 #@! TO.C,U1*
X165738095Y-75680380D02*
X165738095Y-76489904D01*
X165785714Y-76585142D01*
X165833333Y-76632761D01*
X165928571Y-76680380D01*
X166119047Y-76680380D01*
X166214285Y-76632761D01*
X166261904Y-76585142D01*
X166309523Y-76489904D01*
X166309523Y-75680380D01*
X167309523Y-76680380D02*
X166738095Y-76680380D01*
X167023809Y-76680380D02*
X167023809Y-75680380D01*
X166928571Y-75823238D01*
X166833333Y-75918476D01*
X166738095Y-75966095D01*
G04 #@! TO.C,R3*
X160361333Y-84146380D02*
X160028000Y-83670190D01*
X159789904Y-84146380D02*
X159789904Y-83146380D01*
X160170857Y-83146380D01*
X160266095Y-83194000D01*
X160313714Y-83241619D01*
X160361333Y-83336857D01*
X160361333Y-83479714D01*
X160313714Y-83574952D01*
X160266095Y-83622571D01*
X160170857Y-83670190D01*
X159789904Y-83670190D01*
X160694666Y-83146380D02*
X161313714Y-83146380D01*
X160980380Y-83527333D01*
X161123238Y-83527333D01*
X161218476Y-83574952D01*
X161266095Y-83622571D01*
X161313714Y-83717809D01*
X161313714Y-83955904D01*
X161266095Y-84051142D01*
X161218476Y-84098761D01*
X161123238Y-84146380D01*
X160837523Y-84146380D01*
X160742285Y-84098761D01*
X160694666Y-84051142D01*
G04 #@! TO.C,R2*
X220798380Y-72810666D02*
X220322190Y-73144000D01*
X220798380Y-73382095D02*
X219798380Y-73382095D01*
X219798380Y-73001142D01*
X219846000Y-72905904D01*
X219893619Y-72858285D01*
X219988857Y-72810666D01*
X220131714Y-72810666D01*
X220226952Y-72858285D01*
X220274571Y-72905904D01*
X220322190Y-73001142D01*
X220322190Y-73382095D01*
X219893619Y-72429714D02*
X219846000Y-72382095D01*
X219798380Y-72286857D01*
X219798380Y-72048761D01*
X219846000Y-71953523D01*
X219893619Y-71905904D01*
X219988857Y-71858285D01*
X220084095Y-71858285D01*
X220226952Y-71905904D01*
X220798380Y-72477333D01*
X220798380Y-71858285D01*
G04 #@! TO.C,R1*
X222830380Y-72810666D02*
X222354190Y-73144000D01*
X222830380Y-73382095D02*
X221830380Y-73382095D01*
X221830380Y-73001142D01*
X221878000Y-72905904D01*
X221925619Y-72858285D01*
X222020857Y-72810666D01*
X222163714Y-72810666D01*
X222258952Y-72858285D01*
X222306571Y-72905904D01*
X222354190Y-73001142D01*
X222354190Y-73382095D01*
X222830380Y-71858285D02*
X222830380Y-72429714D01*
X222830380Y-72144000D02*
X221830380Y-72144000D01*
X221973238Y-72239238D01*
X222068476Y-72334476D01*
X222116095Y-72429714D01*
G04 #@! TO.C,C7*
X154773333Y-82779142D02*
X154725714Y-82826761D01*
X154582857Y-82874380D01*
X154487619Y-82874380D01*
X154344761Y-82826761D01*
X154249523Y-82731523D01*
X154201904Y-82636285D01*
X154154285Y-82445809D01*
X154154285Y-82302952D01*
X154201904Y-82112476D01*
X154249523Y-82017238D01*
X154344761Y-81922000D01*
X154487619Y-81874380D01*
X154582857Y-81874380D01*
X154725714Y-81922000D01*
X154773333Y-81969619D01*
X155106666Y-81874380D02*
X155773333Y-81874380D01*
X155344761Y-82874380D01*
G04 #@! TO.C,C6*
X165519642Y-72302666D02*
X165567261Y-72350285D01*
X165614880Y-72493142D01*
X165614880Y-72588380D01*
X165567261Y-72731238D01*
X165472023Y-72826476D01*
X165376785Y-72874095D01*
X165186309Y-72921714D01*
X165043452Y-72921714D01*
X164852976Y-72874095D01*
X164757738Y-72826476D01*
X164662500Y-72731238D01*
X164614880Y-72588380D01*
X164614880Y-72493142D01*
X164662500Y-72350285D01*
X164710119Y-72302666D01*
X164614880Y-71445523D02*
X164614880Y-71636000D01*
X164662500Y-71731238D01*
X164710119Y-71778857D01*
X164852976Y-71874095D01*
X165043452Y-71921714D01*
X165424404Y-71921714D01*
X165519642Y-71874095D01*
X165567261Y-71826476D01*
X165614880Y-71731238D01*
X165614880Y-71540761D01*
X165567261Y-71445523D01*
X165519642Y-71397904D01*
X165424404Y-71350285D01*
X165186309Y-71350285D01*
X165091071Y-71397904D01*
X165043452Y-71445523D01*
X164995833Y-71540761D01*
X164995833Y-71731238D01*
X165043452Y-71826476D01*
X165091071Y-71874095D01*
X165186309Y-71921714D01*
G04 #@! TO.C,C5*
X160833333Y-92055142D02*
X160785714Y-92102761D01*
X160642857Y-92150380D01*
X160547619Y-92150380D01*
X160404761Y-92102761D01*
X160309523Y-92007523D01*
X160261904Y-91912285D01*
X160214285Y-91721809D01*
X160214285Y-91578952D01*
X160261904Y-91388476D01*
X160309523Y-91293238D01*
X160404761Y-91198000D01*
X160547619Y-91150380D01*
X160642857Y-91150380D01*
X160785714Y-91198000D01*
X160833333Y-91245619D01*
X161738095Y-91150380D02*
X161261904Y-91150380D01*
X161214285Y-91626571D01*
X161261904Y-91578952D01*
X161357142Y-91531333D01*
X161595238Y-91531333D01*
X161690476Y-91578952D01*
X161738095Y-91626571D01*
X161785714Y-91721809D01*
X161785714Y-91959904D01*
X161738095Y-92055142D01*
X161690476Y-92102761D01*
X161595238Y-92150380D01*
X161357142Y-92150380D01*
X161261904Y-92102761D01*
X161214285Y-92055142D01*
G04 #@! TO.C,C4*
X160297833Y-78334142D02*
X160250214Y-78381761D01*
X160107357Y-78429380D01*
X160012119Y-78429380D01*
X159869261Y-78381761D01*
X159774023Y-78286523D01*
X159726404Y-78191285D01*
X159678785Y-78000809D01*
X159678785Y-77857952D01*
X159726404Y-77667476D01*
X159774023Y-77572238D01*
X159869261Y-77477000D01*
X160012119Y-77429380D01*
X160107357Y-77429380D01*
X160250214Y-77477000D01*
X160297833Y-77524619D01*
X161154976Y-77762714D02*
X161154976Y-78429380D01*
X160916880Y-77381761D02*
X160678785Y-78096047D01*
X161297833Y-78096047D01*
G04 #@! TO.C,C3*
X163917333Y-88367142D02*
X163869714Y-88414761D01*
X163726857Y-88462380D01*
X163631619Y-88462380D01*
X163488761Y-88414761D01*
X163393523Y-88319523D01*
X163345904Y-88224285D01*
X163298285Y-88033809D01*
X163298285Y-87890952D01*
X163345904Y-87700476D01*
X163393523Y-87605238D01*
X163488761Y-87510000D01*
X163631619Y-87462380D01*
X163726857Y-87462380D01*
X163869714Y-87510000D01*
X163917333Y-87557619D01*
X164250666Y-87462380D02*
X164869714Y-87462380D01*
X164536380Y-87843333D01*
X164679238Y-87843333D01*
X164774476Y-87890952D01*
X164822095Y-87938571D01*
X164869714Y-88033809D01*
X164869714Y-88271904D01*
X164822095Y-88367142D01*
X164774476Y-88414761D01*
X164679238Y-88462380D01*
X164393523Y-88462380D01*
X164298285Y-88414761D01*
X164250666Y-88367142D01*
G04 #@! TO.C,C2*
X170833333Y-88755142D02*
X170785714Y-88802761D01*
X170642857Y-88850380D01*
X170547619Y-88850380D01*
X170404761Y-88802761D01*
X170309523Y-88707523D01*
X170261904Y-88612285D01*
X170214285Y-88421809D01*
X170214285Y-88278952D01*
X170261904Y-88088476D01*
X170309523Y-87993238D01*
X170404761Y-87898000D01*
X170547619Y-87850380D01*
X170642857Y-87850380D01*
X170785714Y-87898000D01*
X170833333Y-87945619D01*
X171214285Y-87945619D02*
X171261904Y-87898000D01*
X171357142Y-87850380D01*
X171595238Y-87850380D01*
X171690476Y-87898000D01*
X171738095Y-87945619D01*
X171785714Y-88040857D01*
X171785714Y-88136095D01*
X171738095Y-88278952D01*
X171166666Y-88850380D01*
X171785714Y-88850380D01*
G04 #@! TO.C,C1*
X172553333Y-83543142D02*
X172505714Y-83590761D01*
X172362857Y-83638380D01*
X172267619Y-83638380D01*
X172124761Y-83590761D01*
X172029523Y-83495523D01*
X171981904Y-83400285D01*
X171934285Y-83209809D01*
X171934285Y-83066952D01*
X171981904Y-82876476D01*
X172029523Y-82781238D01*
X172124761Y-82686000D01*
X172267619Y-82638380D01*
X172362857Y-82638380D01*
X172505714Y-82686000D01*
X172553333Y-82733619D01*
X173505714Y-83638380D02*
X172934285Y-83638380D01*
X173220000Y-83638380D02*
X173220000Y-82638380D01*
X173124761Y-82781238D01*
X173029523Y-82876476D01*
X172934285Y-82924095D01*
G04 #@! TO.C,SW7*
D14*
X212536666Y-92304761D02*
X212679523Y-92352380D01*
X212917619Y-92352380D01*
X213012857Y-92304761D01*
X213060476Y-92257142D01*
X213108095Y-92161904D01*
X213108095Y-92066666D01*
X213060476Y-91971428D01*
X213012857Y-91923809D01*
X212917619Y-91876190D01*
X212727142Y-91828571D01*
X212631904Y-91780952D01*
X212584285Y-91733333D01*
X212536666Y-91638095D01*
X212536666Y-91542857D01*
X212584285Y-91447619D01*
X212631904Y-91400000D01*
X212727142Y-91352380D01*
X212965238Y-91352380D01*
X213108095Y-91400000D01*
X213441428Y-91352380D02*
X213679523Y-92352380D01*
X213870000Y-91638095D01*
X214060476Y-92352380D01*
X214298571Y-91352380D01*
X214584285Y-91352380D02*
X215250952Y-91352380D01*
X214822380Y-92352380D01*
G04 #@! TO.C,SW6*
X193536666Y-92304761D02*
X193679523Y-92352380D01*
X193917619Y-92352380D01*
X194012857Y-92304761D01*
X194060476Y-92257142D01*
X194108095Y-92161904D01*
X194108095Y-92066666D01*
X194060476Y-91971428D01*
X194012857Y-91923809D01*
X193917619Y-91876190D01*
X193727142Y-91828571D01*
X193631904Y-91780952D01*
X193584285Y-91733333D01*
X193536666Y-91638095D01*
X193536666Y-91542857D01*
X193584285Y-91447619D01*
X193631904Y-91400000D01*
X193727142Y-91352380D01*
X193965238Y-91352380D01*
X194108095Y-91400000D01*
X194441428Y-91352380D02*
X194679523Y-92352380D01*
X194870000Y-91638095D01*
X195060476Y-92352380D01*
X195298571Y-91352380D01*
X196108095Y-91352380D02*
X195917619Y-91352380D01*
X195822380Y-91400000D01*
X195774761Y-91447619D01*
X195679523Y-91590476D01*
X195631904Y-91780952D01*
X195631904Y-92161904D01*
X195679523Y-92257142D01*
X195727142Y-92304761D01*
X195822380Y-92352380D01*
X196012857Y-92352380D01*
X196108095Y-92304761D01*
X196155714Y-92257142D01*
X196203333Y-92161904D01*
X196203333Y-91923809D01*
X196155714Y-91828571D01*
X196108095Y-91780952D01*
X196012857Y-91733333D01*
X195822380Y-91733333D01*
X195727142Y-91780952D01*
X195679523Y-91828571D01*
X195631904Y-91923809D01*
G04 #@! TO.C,SW5*
X174536666Y-92304761D02*
X174679523Y-92352380D01*
X174917619Y-92352380D01*
X175012857Y-92304761D01*
X175060476Y-92257142D01*
X175108095Y-92161904D01*
X175108095Y-92066666D01*
X175060476Y-91971428D01*
X175012857Y-91923809D01*
X174917619Y-91876190D01*
X174727142Y-91828571D01*
X174631904Y-91780952D01*
X174584285Y-91733333D01*
X174536666Y-91638095D01*
X174536666Y-91542857D01*
X174584285Y-91447619D01*
X174631904Y-91400000D01*
X174727142Y-91352380D01*
X174965238Y-91352380D01*
X175108095Y-91400000D01*
X175441428Y-91352380D02*
X175679523Y-92352380D01*
X175870000Y-91638095D01*
X176060476Y-92352380D01*
X176298571Y-91352380D01*
X177155714Y-91352380D02*
X176679523Y-91352380D01*
X176631904Y-91828571D01*
X176679523Y-91780952D01*
X176774761Y-91733333D01*
X177012857Y-91733333D01*
X177108095Y-91780952D01*
X177155714Y-91828571D01*
X177203333Y-91923809D01*
X177203333Y-92161904D01*
X177155714Y-92257142D01*
X177108095Y-92304761D01*
X177012857Y-92352380D01*
X176774761Y-92352380D01*
X176679523Y-92304761D01*
X176631904Y-92257142D01*
G04 #@! TO.C,SW4*
X155536666Y-92304761D02*
X155679523Y-92352380D01*
X155917619Y-92352380D01*
X156012857Y-92304761D01*
X156060476Y-92257142D01*
X156108095Y-92161904D01*
X156108095Y-92066666D01*
X156060476Y-91971428D01*
X156012857Y-91923809D01*
X155917619Y-91876190D01*
X155727142Y-91828571D01*
X155631904Y-91780952D01*
X155584285Y-91733333D01*
X155536666Y-91638095D01*
X155536666Y-91542857D01*
X155584285Y-91447619D01*
X155631904Y-91400000D01*
X155727142Y-91352380D01*
X155965238Y-91352380D01*
X156108095Y-91400000D01*
X156441428Y-91352380D02*
X156679523Y-92352380D01*
X156870000Y-91638095D01*
X157060476Y-92352380D01*
X157298571Y-91352380D01*
X158108095Y-91685714D02*
X158108095Y-92352380D01*
X157870000Y-91304761D02*
X157631904Y-92019047D01*
X158250952Y-92019047D01*
G04 #@! TO.C,SW3*
X136536666Y-92304761D02*
X136679523Y-92352380D01*
X136917619Y-92352380D01*
X137012857Y-92304761D01*
X137060476Y-92257142D01*
X137108095Y-92161904D01*
X137108095Y-92066666D01*
X137060476Y-91971428D01*
X137012857Y-91923809D01*
X136917619Y-91876190D01*
X136727142Y-91828571D01*
X136631904Y-91780952D01*
X136584285Y-91733333D01*
X136536666Y-91638095D01*
X136536666Y-91542857D01*
X136584285Y-91447619D01*
X136631904Y-91400000D01*
X136727142Y-91352380D01*
X136965238Y-91352380D01*
X137108095Y-91400000D01*
X137441428Y-91352380D02*
X137679523Y-92352380D01*
X137870000Y-91638095D01*
X138060476Y-92352380D01*
X138298571Y-91352380D01*
X138584285Y-91352380D02*
X139203333Y-91352380D01*
X138870000Y-91733333D01*
X139012857Y-91733333D01*
X139108095Y-91780952D01*
X139155714Y-91828571D01*
X139203333Y-91923809D01*
X139203333Y-92161904D01*
X139155714Y-92257142D01*
X139108095Y-92304761D01*
X139012857Y-92352380D01*
X138727142Y-92352380D01*
X138631904Y-92304761D01*
X138584285Y-92257142D01*
G04 #@! TO.C,SW2*
X117536666Y-92304761D02*
X117679523Y-92352380D01*
X117917619Y-92352380D01*
X118012857Y-92304761D01*
X118060476Y-92257142D01*
X118108095Y-92161904D01*
X118108095Y-92066666D01*
X118060476Y-91971428D01*
X118012857Y-91923809D01*
X117917619Y-91876190D01*
X117727142Y-91828571D01*
X117631904Y-91780952D01*
X117584285Y-91733333D01*
X117536666Y-91638095D01*
X117536666Y-91542857D01*
X117584285Y-91447619D01*
X117631904Y-91400000D01*
X117727142Y-91352380D01*
X117965238Y-91352380D01*
X118108095Y-91400000D01*
X118441428Y-91352380D02*
X118679523Y-92352380D01*
X118870000Y-91638095D01*
X119060476Y-92352380D01*
X119298571Y-91352380D01*
X119631904Y-91447619D02*
X119679523Y-91400000D01*
X119774761Y-91352380D01*
X120012857Y-91352380D01*
X120108095Y-91400000D01*
X120155714Y-91447619D01*
X120203333Y-91542857D01*
X120203333Y-91638095D01*
X120155714Y-91780952D01*
X119584285Y-92352380D01*
X120203333Y-92352380D01*
G04 #@! TD*
M02*
