%TF.GenerationSoftware,KiCad,Pcbnew,5.1.7-a382d34a8~88~ubuntu20.04.1*%
%TF.CreationDate,2020-12-12T08:47:46-08:00*%
%TF.ProjectId,syzygy-serdes-breakout,73797a79-6779-42d7-9365-726465732d62,rev?*%
%TF.SameCoordinates,Original*%
%TF.FileFunction,Legend,Top*%
%TF.FilePolarity,Positive*%
%FSLAX46Y46*%
G04 Gerber Fmt 4.6, Leading zero omitted, Abs format (unit mm)*
G04 Created by KiCad (PCBNEW 5.1.7-a382d34a8~88~ubuntu20.04.1) date 2020-12-12 08:47:46*
%MOMM*%
%LPD*%
G01*
G04 APERTURE LIST*
%ADD10C,0.600000*%
%ADD11C,0.250000*%
%ADD12C,0.120000*%
%ADD13C,0.300000*%
%ADD14C,0.152400*%
%ADD15C,1.000000*%
%ADD16C,0.200000*%
G04 APERTURE END LIST*
D10*
X90500000Y-95200000D02*
G75*
G03*
X90500000Y-95200000I-300000J0D01*
G01*
D11*
X110561904Y-103104761D02*
X110942857Y-103104761D01*
X111133333Y-103200000D01*
X111323809Y-103390476D01*
X111419047Y-103771428D01*
X111419047Y-104438095D01*
X111323809Y-104819047D01*
X111133333Y-105009523D01*
X110942857Y-105104761D01*
X110561904Y-105104761D01*
X110371428Y-105009523D01*
X110180952Y-104819047D01*
X110085714Y-104438095D01*
X110085714Y-103771428D01*
X110180952Y-103390476D01*
X110371428Y-103200000D01*
X110561904Y-103104761D01*
X112276190Y-105104761D02*
X112276190Y-103104761D01*
X113419047Y-105104761D01*
X113419047Y-103104761D01*
D12*
%TO.C,R16*%
X105362779Y-96610000D02*
X105037221Y-96610000D01*
X105362779Y-95590000D02*
X105037221Y-95590000D01*
%TO.C,R15*%
X102362779Y-96610000D02*
X102037221Y-96610000D01*
X102362779Y-95590000D02*
X102037221Y-95590000D01*
%TO.C,R14*%
X99362779Y-96610000D02*
X99037221Y-96610000D01*
X99362779Y-95590000D02*
X99037221Y-95590000D01*
%TO.C,R13*%
X105510000Y-103237221D02*
X105510000Y-103562779D01*
X104490000Y-103237221D02*
X104490000Y-103562779D01*
%TO.C,R12*%
X104010000Y-103237221D02*
X104010000Y-103562779D01*
X102990000Y-103237221D02*
X102990000Y-103562779D01*
%TO.C,R11*%
X102510000Y-103237221D02*
X102510000Y-103562779D01*
X101490000Y-103237221D02*
X101490000Y-103562779D01*
%TO.C,D4*%
X100000000Y-101000000D02*
X101500000Y-101000000D01*
X100000000Y-101000000D02*
X98500000Y-101000000D01*
X101500000Y-99000000D02*
X98500000Y-99000000D01*
D13*
X99741421Y-100500000D02*
G75*
G03*
X99741421Y-100500000I-141421J0D01*
G01*
D12*
%TO.C,D3*%
X104400000Y-101000000D02*
X105900000Y-101000000D01*
X104400000Y-101000000D02*
X102900000Y-101000000D01*
X105900000Y-99000000D02*
X102900000Y-99000000D01*
D13*
X104141421Y-100500000D02*
G75*
G03*
X104141421Y-100500000I-141421J0D01*
G01*
D12*
%TO.C,R10*%
X85490000Y-99837221D02*
X85490000Y-100162779D01*
X86510000Y-99837221D02*
X86510000Y-100162779D01*
%TO.C,D2*%
X80000000Y-95960000D02*
X82685000Y-95960000D01*
X82685000Y-95960000D02*
X82685000Y-94040000D01*
X82685000Y-94040000D02*
X80000000Y-94040000D01*
%TO.C,C7*%
X85490000Y-95837221D02*
X85490000Y-96162779D01*
X86510000Y-95837221D02*
X86510000Y-96162779D01*
D14*
%TO.C,U1*%
X88879100Y-103495800D02*
X93120900Y-103495800D01*
X93120900Y-94504200D02*
X88879100Y-94504200D01*
X94962400Y-100079500D02*
X94962400Y-100460500D01*
X94962400Y-100460500D02*
X94708400Y-100460500D01*
X94708400Y-100460500D02*
X94708400Y-100079500D01*
X94708400Y-100079500D02*
X94962400Y-100079500D01*
D12*
%TO.C,R9*%
X95290000Y-94737221D02*
X95290000Y-95062779D01*
X96310000Y-94737221D02*
X96310000Y-95062779D01*
%TO.C,R8*%
X77910000Y-96062779D02*
X77910000Y-95737221D01*
X76890000Y-96062779D02*
X76890000Y-95737221D01*
%TO.C,J5*%
X76670000Y-103670000D02*
X78000000Y-103670000D01*
X76670000Y-105000000D02*
X76670000Y-103670000D01*
X79270000Y-103670000D02*
X81870000Y-103670000D01*
X79270000Y-106270000D02*
X79270000Y-103670000D01*
X76670000Y-106270000D02*
X79270000Y-106270000D01*
X81870000Y-103670000D02*
X81870000Y-111410000D01*
X76670000Y-106270000D02*
X76670000Y-111410000D01*
X76670000Y-111410000D02*
X81870000Y-111410000D01*
%TO.C,C6*%
X94837221Y-112760000D02*
X95162779Y-112760000D01*
X94837221Y-111740000D02*
X95162779Y-111740000D01*
%TO.C,SW1*%
X110090000Y-93390000D02*
X113910000Y-93390000D01*
X110090000Y-101260000D02*
X110090000Y-102610000D01*
X110090000Y-102610000D02*
X113910000Y-102610000D01*
X113910000Y-102610000D02*
X113910000Y-101260000D01*
X110090000Y-98760000D02*
X110090000Y-99740000D01*
X110090000Y-93390000D02*
X110090000Y-94740000D01*
X113910000Y-93390000D02*
X113910000Y-94740000D01*
X110090000Y-96260000D02*
X110090000Y-97240000D01*
X113910000Y-98760000D02*
X113910000Y-99740000D01*
X113910000Y-96260000D02*
X113910000Y-97240000D01*
%TO.C,R7*%
X86837221Y-122490000D02*
X87162779Y-122490000D01*
X86837221Y-123510000D02*
X87162779Y-123510000D01*
%TO.C,R6*%
X83837221Y-122490000D02*
X84162779Y-122490000D01*
X83837221Y-123510000D02*
X84162779Y-123510000D01*
%TO.C,R5*%
X89490000Y-120162779D02*
X89490000Y-119837221D01*
X90510000Y-120162779D02*
X90510000Y-119837221D01*
%TO.C,R4*%
X78162779Y-123510000D02*
X77837221Y-123510000D01*
X78162779Y-122490000D02*
X77837221Y-122490000D01*
%TO.C,R3*%
X81162779Y-123510000D02*
X80837221Y-123510000D01*
X81162779Y-122490000D02*
X80837221Y-122490000D01*
%TO.C,R2*%
X122510000Y-95837221D02*
X122510000Y-96162779D01*
X121490000Y-95837221D02*
X121490000Y-96162779D01*
%TO.C,R1*%
X117162779Y-123510000D02*
X116837221Y-123510000D01*
X117162779Y-122490000D02*
X116837221Y-122490000D01*
%TO.C,J4*%
X88560000Y-106540000D02*
X87850000Y-106540000D01*
X88560000Y-120460000D02*
X87850000Y-120460000D01*
X88560000Y-106540000D02*
X88560000Y-120460000D01*
X81400000Y-120460000D02*
X87850000Y-120460000D01*
X81400000Y-106540000D02*
X87850000Y-106540000D01*
D15*
%TO.C,J3*%
X107960000Y-116260000D02*
G75*
G03*
X107960000Y-116260000I-100000J0D01*
G01*
D12*
%TO.C,J2*%
X111440000Y-120460000D02*
X112150000Y-120460000D01*
X111440000Y-106540000D02*
X112150000Y-106540000D01*
X111440000Y-120460000D02*
X111440000Y-106540000D01*
X118600000Y-106540000D02*
X112150000Y-106540000D01*
X118600000Y-120460000D02*
X112150000Y-120460000D01*
%TO.C,D1*%
X120685000Y-94040000D02*
X118000000Y-94040000D01*
X120685000Y-95960000D02*
X120685000Y-94040000D01*
X118000000Y-95960000D02*
X120685000Y-95960000D01*
%TO.C,C5*%
X90510000Y-116837221D02*
X90510000Y-117162779D01*
X89490000Y-116837221D02*
X89490000Y-117162779D01*
%TO.C,C4*%
X119837221Y-103490000D02*
X120162779Y-103490000D01*
X119837221Y-104510000D02*
X120162779Y-104510000D01*
%TO.C,C3*%
X84510000Y-95837221D02*
X84510000Y-96162779D01*
X83490000Y-95837221D02*
X83490000Y-96162779D01*
%TO.C,C2*%
X94837221Y-113240000D02*
X95162779Y-113240000D01*
X94837221Y-114260000D02*
X95162779Y-114260000D01*
%TO.C,C1*%
X113837221Y-122490000D02*
X114162779Y-122490000D01*
X113837221Y-123510000D02*
X114162779Y-123510000D01*
%TO.C,D4*%
D16*
X98892857Y-98878571D02*
X98892857Y-97378571D01*
X99250000Y-97378571D01*
X99464285Y-97450000D01*
X99607142Y-97592857D01*
X99678571Y-97735714D01*
X99750000Y-98021428D01*
X99750000Y-98235714D01*
X99678571Y-98521428D01*
X99607142Y-98664285D01*
X99464285Y-98807142D01*
X99250000Y-98878571D01*
X98892857Y-98878571D01*
X101035714Y-97878571D02*
X101035714Y-98878571D01*
X100678571Y-97307142D02*
X100321428Y-98378571D01*
X101250000Y-98378571D01*
%TO.C,D3*%
X103292857Y-98878571D02*
X103292857Y-97378571D01*
X103650000Y-97378571D01*
X103864285Y-97450000D01*
X104007142Y-97592857D01*
X104078571Y-97735714D01*
X104150000Y-98021428D01*
X104150000Y-98235714D01*
X104078571Y-98521428D01*
X104007142Y-98664285D01*
X103864285Y-98807142D01*
X103650000Y-98878571D01*
X103292857Y-98878571D01*
X104650000Y-97378571D02*
X105578571Y-97378571D01*
X105078571Y-97950000D01*
X105292857Y-97950000D01*
X105435714Y-98021428D01*
X105507142Y-98092857D01*
X105578571Y-98235714D01*
X105578571Y-98592857D01*
X105507142Y-98735714D01*
X105435714Y-98807142D01*
X105292857Y-98878571D01*
X104864285Y-98878571D01*
X104721428Y-98807142D01*
X104650000Y-98735714D01*
%TO.C,R10*%
X86678571Y-104564285D02*
X85964285Y-105064285D01*
X86678571Y-105421428D02*
X85178571Y-105421428D01*
X85178571Y-104850000D01*
X85250000Y-104707142D01*
X85321428Y-104635714D01*
X85464285Y-104564285D01*
X85678571Y-104564285D01*
X85821428Y-104635714D01*
X85892857Y-104707142D01*
X85964285Y-104850000D01*
X85964285Y-105421428D01*
X86678571Y-103135714D02*
X86678571Y-103992857D01*
X86678571Y-103564285D02*
X85178571Y-103564285D01*
X85392857Y-103707142D01*
X85535714Y-103850000D01*
X85607142Y-103992857D01*
X85178571Y-102207142D02*
X85178571Y-102064285D01*
X85250000Y-101921428D01*
X85321428Y-101850000D01*
X85464285Y-101778571D01*
X85750000Y-101707142D01*
X86107142Y-101707142D01*
X86392857Y-101778571D01*
X86535714Y-101850000D01*
X86607142Y-101921428D01*
X86678571Y-102064285D01*
X86678571Y-102207142D01*
X86607142Y-102350000D01*
X86535714Y-102421428D01*
X86392857Y-102492857D01*
X86107142Y-102564285D01*
X85750000Y-102564285D01*
X85464285Y-102492857D01*
X85321428Y-102421428D01*
X85250000Y-102350000D01*
X85178571Y-102207142D01*
%TO.C,D2*%
X79892857Y-97328571D02*
X79892857Y-95828571D01*
X80250000Y-95828571D01*
X80464285Y-95900000D01*
X80607142Y-96042857D01*
X80678571Y-96185714D01*
X80750000Y-96471428D01*
X80750000Y-96685714D01*
X80678571Y-96971428D01*
X80607142Y-97114285D01*
X80464285Y-97257142D01*
X80250000Y-97328571D01*
X79892857Y-97328571D01*
X81321428Y-95971428D02*
X81392857Y-95900000D01*
X81535714Y-95828571D01*
X81892857Y-95828571D01*
X82035714Y-95900000D01*
X82107142Y-95971428D01*
X82178571Y-96114285D01*
X82178571Y-96257142D01*
X82107142Y-96471428D01*
X81250000Y-97328571D01*
X82178571Y-97328571D01*
%TO.C,C7*%
X86350000Y-94535714D02*
X86278571Y-94607142D01*
X86064285Y-94678571D01*
X85921428Y-94678571D01*
X85707142Y-94607142D01*
X85564285Y-94464285D01*
X85492857Y-94321428D01*
X85421428Y-94035714D01*
X85421428Y-93821428D01*
X85492857Y-93535714D01*
X85564285Y-93392857D01*
X85707142Y-93250000D01*
X85921428Y-93178571D01*
X86064285Y-93178571D01*
X86278571Y-93250000D01*
X86350000Y-93321428D01*
X86850000Y-93178571D02*
X87850000Y-93178571D01*
X87207142Y-94678571D01*
%TO.C,U1*%
X89857142Y-98178571D02*
X89857142Y-99392857D01*
X89928571Y-99535714D01*
X90000000Y-99607142D01*
X90142857Y-99678571D01*
X90428571Y-99678571D01*
X90571428Y-99607142D01*
X90642857Y-99535714D01*
X90714285Y-99392857D01*
X90714285Y-98178571D01*
X92214285Y-99678571D02*
X91357142Y-99678571D01*
X91785714Y-99678571D02*
X91785714Y-98178571D01*
X91642857Y-98392857D01*
X91500000Y-98535714D01*
X91357142Y-98607142D01*
%TO.C,R9*%
X97908571Y-95150000D02*
X97194285Y-95650000D01*
X97908571Y-96007142D02*
X96408571Y-96007142D01*
X96408571Y-95435714D01*
X96480000Y-95292857D01*
X96551428Y-95221428D01*
X96694285Y-95150000D01*
X96908571Y-95150000D01*
X97051428Y-95221428D01*
X97122857Y-95292857D01*
X97194285Y-95435714D01*
X97194285Y-96007142D01*
X97908571Y-94435714D02*
X97908571Y-94150000D01*
X97837142Y-94007142D01*
X97765714Y-93935714D01*
X97551428Y-93792857D01*
X97265714Y-93721428D01*
X96694285Y-93721428D01*
X96551428Y-93792857D01*
X96480000Y-93864285D01*
X96408571Y-94007142D01*
X96408571Y-94292857D01*
X96480000Y-94435714D01*
X96551428Y-94507142D01*
X96694285Y-94578571D01*
X97051428Y-94578571D01*
X97194285Y-94507142D01*
X97265714Y-94435714D01*
X97337142Y-94292857D01*
X97337142Y-94007142D01*
X97265714Y-93864285D01*
X97194285Y-93792857D01*
X97051428Y-93721428D01*
%TO.C,R8*%
X76648571Y-96150000D02*
X75934285Y-96650000D01*
X76648571Y-97007142D02*
X75148571Y-97007142D01*
X75148571Y-96435714D01*
X75220000Y-96292857D01*
X75291428Y-96221428D01*
X75434285Y-96150000D01*
X75648571Y-96150000D01*
X75791428Y-96221428D01*
X75862857Y-96292857D01*
X75934285Y-96435714D01*
X75934285Y-97007142D01*
X75791428Y-95292857D02*
X75720000Y-95435714D01*
X75648571Y-95507142D01*
X75505714Y-95578571D01*
X75434285Y-95578571D01*
X75291428Y-95507142D01*
X75220000Y-95435714D01*
X75148571Y-95292857D01*
X75148571Y-95007142D01*
X75220000Y-94864285D01*
X75291428Y-94792857D01*
X75434285Y-94721428D01*
X75505714Y-94721428D01*
X75648571Y-94792857D01*
X75720000Y-94864285D01*
X75791428Y-95007142D01*
X75791428Y-95292857D01*
X75862857Y-95435714D01*
X75934285Y-95507142D01*
X76077142Y-95578571D01*
X76362857Y-95578571D01*
X76505714Y-95507142D01*
X76577142Y-95435714D01*
X76648571Y-95292857D01*
X76648571Y-95007142D01*
X76577142Y-94864285D01*
X76505714Y-94792857D01*
X76362857Y-94721428D01*
X76077142Y-94721428D01*
X75934285Y-94792857D01*
X75862857Y-94864285D01*
X75791428Y-95007142D01*
%TO.C,J5*%
X78500000Y-111778571D02*
X78500000Y-112850000D01*
X78428571Y-113064285D01*
X78285714Y-113207142D01*
X78071428Y-113278571D01*
X77928571Y-113278571D01*
X79928571Y-111778571D02*
X79214285Y-111778571D01*
X79142857Y-112492857D01*
X79214285Y-112421428D01*
X79357142Y-112350000D01*
X79714285Y-112350000D01*
X79857142Y-112421428D01*
X79928571Y-112492857D01*
X80000000Y-112635714D01*
X80000000Y-112992857D01*
X79928571Y-113135714D01*
X79857142Y-113207142D01*
X79714285Y-113278571D01*
X79357142Y-113278571D01*
X79214285Y-113207142D01*
X79142857Y-113135714D01*
%TO.C,C6*%
X97950000Y-112735714D02*
X97878571Y-112807142D01*
X97664285Y-112878571D01*
X97521428Y-112878571D01*
X97307142Y-112807142D01*
X97164285Y-112664285D01*
X97092857Y-112521428D01*
X97021428Y-112235714D01*
X97021428Y-112021428D01*
X97092857Y-111735714D01*
X97164285Y-111592857D01*
X97307142Y-111450000D01*
X97521428Y-111378571D01*
X97664285Y-111378571D01*
X97878571Y-111450000D01*
X97950000Y-111521428D01*
X99235714Y-111378571D02*
X98950000Y-111378571D01*
X98807142Y-111450000D01*
X98735714Y-111521428D01*
X98592857Y-111735714D01*
X98521428Y-112021428D01*
X98521428Y-112592857D01*
X98592857Y-112735714D01*
X98664285Y-112807142D01*
X98807142Y-112878571D01*
X99092857Y-112878571D01*
X99235714Y-112807142D01*
X99307142Y-112735714D01*
X99378571Y-112592857D01*
X99378571Y-112235714D01*
X99307142Y-112092857D01*
X99235714Y-112021428D01*
X99092857Y-111950000D01*
X98807142Y-111950000D01*
X98664285Y-112021428D01*
X98592857Y-112092857D01*
X98521428Y-112235714D01*
%TO.C,SW1*%
X112607142Y-100000000D02*
X112678571Y-99785714D01*
X112678571Y-99428571D01*
X112607142Y-99285714D01*
X112535714Y-99214285D01*
X112392857Y-99142857D01*
X112250000Y-99142857D01*
X112107142Y-99214285D01*
X112035714Y-99285714D01*
X111964285Y-99428571D01*
X111892857Y-99714285D01*
X111821428Y-99857142D01*
X111750000Y-99928571D01*
X111607142Y-100000000D01*
X111464285Y-100000000D01*
X111321428Y-99928571D01*
X111250000Y-99857142D01*
X111178571Y-99714285D01*
X111178571Y-99357142D01*
X111250000Y-99142857D01*
X111178571Y-98642857D02*
X112678571Y-98285714D01*
X111607142Y-98000000D01*
X112678571Y-97714285D01*
X111178571Y-97357142D01*
X112678571Y-96000000D02*
X112678571Y-96857142D01*
X112678571Y-96428571D02*
X111178571Y-96428571D01*
X111392857Y-96571428D01*
X111535714Y-96714285D01*
X111607142Y-96857142D01*
%TO.C,R7*%
X86750000Y-122248571D02*
X86250000Y-121534285D01*
X85892857Y-122248571D02*
X85892857Y-120748571D01*
X86464285Y-120748571D01*
X86607142Y-120820000D01*
X86678571Y-120891428D01*
X86750000Y-121034285D01*
X86750000Y-121248571D01*
X86678571Y-121391428D01*
X86607142Y-121462857D01*
X86464285Y-121534285D01*
X85892857Y-121534285D01*
X87250000Y-120748571D02*
X88250000Y-120748571D01*
X87607142Y-122248571D01*
%TO.C,R6*%
X83750000Y-122248571D02*
X83250000Y-121534285D01*
X82892857Y-122248571D02*
X82892857Y-120748571D01*
X83464285Y-120748571D01*
X83607142Y-120820000D01*
X83678571Y-120891428D01*
X83750000Y-121034285D01*
X83750000Y-121248571D01*
X83678571Y-121391428D01*
X83607142Y-121462857D01*
X83464285Y-121534285D01*
X82892857Y-121534285D01*
X85035714Y-120748571D02*
X84750000Y-120748571D01*
X84607142Y-120820000D01*
X84535714Y-120891428D01*
X84392857Y-121105714D01*
X84321428Y-121391428D01*
X84321428Y-121962857D01*
X84392857Y-122105714D01*
X84464285Y-122177142D01*
X84607142Y-122248571D01*
X84892857Y-122248571D01*
X85035714Y-122177142D01*
X85107142Y-122105714D01*
X85178571Y-121962857D01*
X85178571Y-121605714D01*
X85107142Y-121462857D01*
X85035714Y-121391428D01*
X84892857Y-121320000D01*
X84607142Y-121320000D01*
X84464285Y-121391428D01*
X84392857Y-121462857D01*
X84321428Y-121605714D01*
%TO.C,R5*%
X92278571Y-120250000D02*
X91564285Y-120750000D01*
X92278571Y-121107142D02*
X90778571Y-121107142D01*
X90778571Y-120535714D01*
X90850000Y-120392857D01*
X90921428Y-120321428D01*
X91064285Y-120250000D01*
X91278571Y-120250000D01*
X91421428Y-120321428D01*
X91492857Y-120392857D01*
X91564285Y-120535714D01*
X91564285Y-121107142D01*
X90778571Y-118892857D02*
X90778571Y-119607142D01*
X91492857Y-119678571D01*
X91421428Y-119607142D01*
X91350000Y-119464285D01*
X91350000Y-119107142D01*
X91421428Y-118964285D01*
X91492857Y-118892857D01*
X91635714Y-118821428D01*
X91992857Y-118821428D01*
X92135714Y-118892857D01*
X92207142Y-118964285D01*
X92278571Y-119107142D01*
X92278571Y-119464285D01*
X92207142Y-119607142D01*
X92135714Y-119678571D01*
%TO.C,R4*%
X77750000Y-122278571D02*
X77250000Y-121564285D01*
X76892857Y-122278571D02*
X76892857Y-120778571D01*
X77464285Y-120778571D01*
X77607142Y-120850000D01*
X77678571Y-120921428D01*
X77750000Y-121064285D01*
X77750000Y-121278571D01*
X77678571Y-121421428D01*
X77607142Y-121492857D01*
X77464285Y-121564285D01*
X76892857Y-121564285D01*
X79035714Y-121278571D02*
X79035714Y-122278571D01*
X78678571Y-120707142D02*
X78321428Y-121778571D01*
X79250000Y-121778571D01*
%TO.C,R3*%
X80750000Y-122278571D02*
X80250000Y-121564285D01*
X79892857Y-122278571D02*
X79892857Y-120778571D01*
X80464285Y-120778571D01*
X80607142Y-120850000D01*
X80678571Y-120921428D01*
X80750000Y-121064285D01*
X80750000Y-121278571D01*
X80678571Y-121421428D01*
X80607142Y-121492857D01*
X80464285Y-121564285D01*
X79892857Y-121564285D01*
X81250000Y-120778571D02*
X82178571Y-120778571D01*
X81678571Y-121350000D01*
X81892857Y-121350000D01*
X82035714Y-121421428D01*
X82107142Y-121492857D01*
X82178571Y-121635714D01*
X82178571Y-121992857D01*
X82107142Y-122135714D01*
X82035714Y-122207142D01*
X81892857Y-122278571D01*
X81464285Y-122278571D01*
X81321428Y-122207142D01*
X81250000Y-122135714D01*
%TO.C,R2*%
X124108571Y-99450000D02*
X123394285Y-99950000D01*
X124108571Y-100307142D02*
X122608571Y-100307142D01*
X122608571Y-99735714D01*
X122680000Y-99592857D01*
X122751428Y-99521428D01*
X122894285Y-99450000D01*
X123108571Y-99450000D01*
X123251428Y-99521428D01*
X123322857Y-99592857D01*
X123394285Y-99735714D01*
X123394285Y-100307142D01*
X122751428Y-98878571D02*
X122680000Y-98807142D01*
X122608571Y-98664285D01*
X122608571Y-98307142D01*
X122680000Y-98164285D01*
X122751428Y-98092857D01*
X122894285Y-98021428D01*
X123037142Y-98021428D01*
X123251428Y-98092857D01*
X124108571Y-98950000D01*
X124108571Y-98021428D01*
%TO.C,R1*%
X119550000Y-123678571D02*
X119050000Y-122964285D01*
X118692857Y-123678571D02*
X118692857Y-122178571D01*
X119264285Y-122178571D01*
X119407142Y-122250000D01*
X119478571Y-122321428D01*
X119550000Y-122464285D01*
X119550000Y-122678571D01*
X119478571Y-122821428D01*
X119407142Y-122892857D01*
X119264285Y-122964285D01*
X118692857Y-122964285D01*
X120978571Y-123678571D02*
X120121428Y-123678571D01*
X120550000Y-123678571D02*
X120550000Y-122178571D01*
X120407142Y-122392857D01*
X120264285Y-122535714D01*
X120121428Y-122607142D01*
%TO.C,J4*%
X75178571Y-114300000D02*
X76250000Y-114300000D01*
X76464285Y-114371428D01*
X76607142Y-114514285D01*
X76678571Y-114728571D01*
X76678571Y-114871428D01*
X75678571Y-112942857D02*
X76678571Y-112942857D01*
X75107142Y-113300000D02*
X76178571Y-113657142D01*
X76178571Y-112728571D01*
%TO.C,J3*%
X99500000Y-121978571D02*
X99500000Y-123050000D01*
X99428571Y-123264285D01*
X99285714Y-123407142D01*
X99071428Y-123478571D01*
X98928571Y-123478571D01*
X100071428Y-121978571D02*
X101000000Y-121978571D01*
X100500000Y-122550000D01*
X100714285Y-122550000D01*
X100857142Y-122621428D01*
X100928571Y-122692857D01*
X101000000Y-122835714D01*
X101000000Y-123192857D01*
X100928571Y-123335714D01*
X100857142Y-123407142D01*
X100714285Y-123478571D01*
X100285714Y-123478571D01*
X100142857Y-123407142D01*
X100071428Y-123335714D01*
%TO.C,J2*%
X122578571Y-113500000D02*
X123650000Y-113500000D01*
X123864285Y-113571428D01*
X124007142Y-113714285D01*
X124078571Y-113928571D01*
X124078571Y-114071428D01*
X122721428Y-112857142D02*
X122650000Y-112785714D01*
X122578571Y-112642857D01*
X122578571Y-112285714D01*
X122650000Y-112142857D01*
X122721428Y-112071428D01*
X122864285Y-112000000D01*
X123007142Y-112000000D01*
X123221428Y-112071428D01*
X124078571Y-112928571D01*
X124078571Y-112000000D01*
%TO.C,D1*%
X115292857Y-94678571D02*
X115292857Y-93178571D01*
X115650000Y-93178571D01*
X115864285Y-93250000D01*
X116007142Y-93392857D01*
X116078571Y-93535714D01*
X116150000Y-93821428D01*
X116150000Y-94035714D01*
X116078571Y-94321428D01*
X116007142Y-94464285D01*
X115864285Y-94607142D01*
X115650000Y-94678571D01*
X115292857Y-94678571D01*
X117578571Y-94678571D02*
X116721428Y-94678571D01*
X117150000Y-94678571D02*
X117150000Y-93178571D01*
X117007142Y-93392857D01*
X116864285Y-93535714D01*
X116721428Y-93607142D01*
%TO.C,C5*%
X91965714Y-117250000D02*
X92037142Y-117321428D01*
X92108571Y-117535714D01*
X92108571Y-117678571D01*
X92037142Y-117892857D01*
X91894285Y-118035714D01*
X91751428Y-118107142D01*
X91465714Y-118178571D01*
X91251428Y-118178571D01*
X90965714Y-118107142D01*
X90822857Y-118035714D01*
X90680000Y-117892857D01*
X90608571Y-117678571D01*
X90608571Y-117535714D01*
X90680000Y-117321428D01*
X90751428Y-117250000D01*
X90608571Y-115892857D02*
X90608571Y-116607142D01*
X91322857Y-116678571D01*
X91251428Y-116607142D01*
X91180000Y-116464285D01*
X91180000Y-116107142D01*
X91251428Y-115964285D01*
X91322857Y-115892857D01*
X91465714Y-115821428D01*
X91822857Y-115821428D01*
X91965714Y-115892857D01*
X92037142Y-115964285D01*
X92108571Y-116107142D01*
X92108571Y-116464285D01*
X92037142Y-116607142D01*
X91965714Y-116678571D01*
%TO.C,C4*%
X122750000Y-104535714D02*
X122678571Y-104607142D01*
X122464285Y-104678571D01*
X122321428Y-104678571D01*
X122107142Y-104607142D01*
X121964285Y-104464285D01*
X121892857Y-104321428D01*
X121821428Y-104035714D01*
X121821428Y-103821428D01*
X121892857Y-103535714D01*
X121964285Y-103392857D01*
X122107142Y-103250000D01*
X122321428Y-103178571D01*
X122464285Y-103178571D01*
X122678571Y-103250000D01*
X122750000Y-103321428D01*
X124035714Y-103678571D02*
X124035714Y-104678571D01*
X123678571Y-103107142D02*
X123321428Y-104178571D01*
X124250000Y-104178571D01*
%TO.C,C3*%
X85135714Y-100250000D02*
X85207142Y-100321428D01*
X85278571Y-100535714D01*
X85278571Y-100678571D01*
X85207142Y-100892857D01*
X85064285Y-101035714D01*
X84921428Y-101107142D01*
X84635714Y-101178571D01*
X84421428Y-101178571D01*
X84135714Y-101107142D01*
X83992857Y-101035714D01*
X83850000Y-100892857D01*
X83778571Y-100678571D01*
X83778571Y-100535714D01*
X83850000Y-100321428D01*
X83921428Y-100250000D01*
X83778571Y-99750000D02*
X83778571Y-98821428D01*
X84350000Y-99321428D01*
X84350000Y-99107142D01*
X84421428Y-98964285D01*
X84492857Y-98892857D01*
X84635714Y-98821428D01*
X84992857Y-98821428D01*
X85135714Y-98892857D01*
X85207142Y-98964285D01*
X85278571Y-99107142D01*
X85278571Y-99535714D01*
X85207142Y-99678571D01*
X85135714Y-99750000D01*
%TO.C,C2*%
X97950000Y-114535714D02*
X97878571Y-114607142D01*
X97664285Y-114678571D01*
X97521428Y-114678571D01*
X97307142Y-114607142D01*
X97164285Y-114464285D01*
X97092857Y-114321428D01*
X97021428Y-114035714D01*
X97021428Y-113821428D01*
X97092857Y-113535714D01*
X97164285Y-113392857D01*
X97307142Y-113250000D01*
X97521428Y-113178571D01*
X97664285Y-113178571D01*
X97878571Y-113250000D01*
X97950000Y-113321428D01*
X98521428Y-113321428D02*
X98592857Y-113250000D01*
X98735714Y-113178571D01*
X99092857Y-113178571D01*
X99235714Y-113250000D01*
X99307142Y-113321428D01*
X99378571Y-113464285D01*
X99378571Y-113607142D01*
X99307142Y-113821428D01*
X98450000Y-114678571D01*
X99378571Y-114678571D01*
%TO.C,C1*%
X110950000Y-123535714D02*
X110878571Y-123607142D01*
X110664285Y-123678571D01*
X110521428Y-123678571D01*
X110307142Y-123607142D01*
X110164285Y-123464285D01*
X110092857Y-123321428D01*
X110021428Y-123035714D01*
X110021428Y-122821428D01*
X110092857Y-122535714D01*
X110164285Y-122392857D01*
X110307142Y-122250000D01*
X110521428Y-122178571D01*
X110664285Y-122178571D01*
X110878571Y-122250000D01*
X110950000Y-122321428D01*
X112378571Y-123678571D02*
X111521428Y-123678571D01*
X111950000Y-123678571D02*
X111950000Y-122178571D01*
X111807142Y-122392857D01*
X111664285Y-122535714D01*
X111521428Y-122607142D01*
%TD*%
M02*
