%TF.GenerationSoftware,KiCad,Pcbnew,5.1.7-a382d34a8~88~ubuntu20.04.1*%
%TF.CreationDate,2020-12-12T08:47:46-08:00*%
%TF.ProjectId,syzygy-serdes-breakout,73797a79-6779-42d7-9365-726465732d62,rev?*%
%TF.SameCoordinates,Original*%
%TF.FileFunction,Paste,Bot*%
%TF.FilePolarity,Positive*%
%FSLAX46Y46*%
G04 Gerber Fmt 4.6, Leading zero omitted, Abs format (unit mm)*
G04 Created by KiCad (PCBNEW 5.1.7-a382d34a8~88~ubuntu20.04.1) date 2020-12-12 08:47:46*
%MOMM*%
%LPD*%
G01*
G04 APERTURE LIST*
%ADD10R,0.300000X1.450000*%
%ADD11R,4.700000X0.640000*%
%ADD12R,2.540000X0.640000*%
G04 APERTURE END LIST*
D10*
%TO.C,J1*%
X106750000Y-96910000D03*
X106750000Y-103090000D03*
X106250000Y-96910000D03*
X106250000Y-103090000D03*
X105250000Y-96910000D03*
X105250000Y-103090000D03*
X104750000Y-96910000D03*
X104750000Y-103090000D03*
X103750000Y-96910000D03*
X103750000Y-103090000D03*
X103250000Y-96910000D03*
X103250000Y-103090000D03*
X102250000Y-96910000D03*
X102250000Y-103090000D03*
X101750000Y-96910000D03*
X101750000Y-103090000D03*
X100750000Y-96910000D03*
X100750000Y-103090000D03*
X100250000Y-96910000D03*
X100250000Y-103090000D03*
X99250000Y-96910000D03*
X99250000Y-103090000D03*
X98750000Y-96910000D03*
X98750000Y-103090000D03*
X97750000Y-96910000D03*
X97750000Y-103090000D03*
X97250000Y-96910000D03*
X97250000Y-103090000D03*
X96250000Y-96910000D03*
X96250000Y-103090000D03*
X95750000Y-96910000D03*
X95750000Y-103090000D03*
X94750000Y-96910000D03*
X94750000Y-103090000D03*
X94250000Y-96910000D03*
X94250000Y-103090000D03*
X93250000Y-96910000D03*
X93250000Y-103090000D03*
X92750000Y-96910000D03*
X92750000Y-103090000D03*
D11*
X103175000Y-100000000D03*
X96825000Y-100000000D03*
D12*
X108445000Y-100000000D03*
X91555000Y-100000000D03*
%TD*%
M02*
