%TF.GenerationSoftware,KiCad,Pcbnew,5.1.7-a382d34a8~88~ubuntu20.04.1*%
%TF.CreationDate,2020-12-12T08:47:46-08:00*%
%TF.ProjectId,syzygy-serdes-breakout,73797a79-6779-42d7-9365-726465732d62,rev?*%
%TF.SameCoordinates,Original*%
%TF.FileFunction,Copper,L4,Bot*%
%TF.FilePolarity,Positive*%
%FSLAX46Y46*%
G04 Gerber Fmt 4.6, Leading zero omitted, Abs format (unit mm)*
G04 Created by KiCad (PCBNEW 5.1.7-a382d34a8~88~ubuntu20.04.1) date 2020-12-12 08:47:46*
%MOMM*%
%LPD*%
G01*
G04 APERTURE LIST*
%TA.AperFunction,ComponentPad*%
%ADD10O,1.700000X1.700000*%
%TD*%
%TA.AperFunction,ComponentPad*%
%ADD11R,1.700000X1.700000*%
%TD*%
%TA.AperFunction,ComponentPad*%
%ADD12C,3.000000*%
%TD*%
%TA.AperFunction,ComponentPad*%
%ADD13C,1.200000*%
%TD*%
%TA.AperFunction,ComponentPad*%
%ADD14O,1.700000X2.540000*%
%TD*%
%TA.AperFunction,SMDPad,CuDef*%
%ADD15R,0.300000X1.450000*%
%TD*%
%TA.AperFunction,SMDPad,CuDef*%
%ADD16R,4.700000X0.640000*%
%TD*%
%TA.AperFunction,SMDPad,CuDef*%
%ADD17R,2.540000X0.640000*%
%TD*%
%TA.AperFunction,ViaPad*%
%ADD18C,5.000000*%
%TD*%
%TA.AperFunction,ViaPad*%
%ADD19C,0.800000*%
%TD*%
%TA.AperFunction,Conductor*%
%ADD20C,0.250000*%
%TD*%
%TA.AperFunction,Conductor*%
%ADD21C,0.147000*%
%TD*%
%TA.AperFunction,Conductor*%
%ADD22C,0.254000*%
%TD*%
%TA.AperFunction,Conductor*%
%ADD23C,0.100000*%
%TD*%
G04 APERTURE END LIST*
D10*
%TO.P,J5,6*%
%TO.N,GND*%
X80540000Y-110080000D03*
%TO.P,J5,5*%
%TO.N,/PMCU_RESET*%
X78000000Y-110080000D03*
%TO.P,J5,4*%
%TO.N,/PMCU_MOSI*%
X80540000Y-107540000D03*
%TO.P,J5,3*%
%TO.N,/PMCU_SCK*%
X78000000Y-107540000D03*
%TO.P,J5,2*%
%TO.N,+3V3*%
X80540000Y-105000000D03*
D11*
%TO.P,J5,1*%
%TO.N,/PMCU_MISO*%
X78000000Y-105000000D03*
%TD*%
D12*
%TO.P,J4,10*%
%TO.N,/SHIELD0*%
X84000000Y-120070000D03*
X84000000Y-106930000D03*
D13*
%TO.P,J4,9*%
%TO.N,/RX0_P*%
X87500000Y-109500000D03*
%TO.P,J4,8*%
%TO.N,/RX0_N*%
X87500000Y-111500000D03*
%TO.P,J4,7*%
%TO.N,/DRAIN*%
X87500000Y-113500000D03*
%TO.P,J4,6*%
%TO.N,/TX0_P*%
X87500000Y-115500000D03*
%TO.P,J4,5*%
%TO.N,/TX0_N*%
X87500000Y-117500000D03*
%TO.P,J4,4*%
%TO.N,GND*%
X86000000Y-117000000D03*
%TO.P,J4,3*%
%TO.N,/REFCLK_P*%
X86000000Y-114500000D03*
%TO.P,J4,2*%
%TO.N,/REFCLK_N*%
X86000000Y-112500000D03*
%TO.P,J4,1*%
%TO.N,/WAKE*%
X86000000Y-110000000D03*
%TD*%
D14*
%TO.P,J3,12*%
%TO.N,VCC*%
X93650000Y-119670000D03*
%TO.P,J3,6*%
X93650000Y-116330000D03*
%TO.P,J3,11*%
%TO.N,GND*%
X96190000Y-119670000D03*
%TO.P,J3,5*%
X96190000Y-116330000D03*
%TO.P,J3,10*%
%TO.N,/S2*%
X98730000Y-119670000D03*
%TO.P,J3,4*%
%TO.N,/S4*%
X98730000Y-116330000D03*
%TO.P,J3,9*%
%TO.N,/S3*%
X101270000Y-119670000D03*
%TO.P,J3,3*%
%TO.N,/S5*%
X101270000Y-116330000D03*
%TO.P,J3,8*%
%TO.N,/S6*%
X103810000Y-119670000D03*
%TO.P,J3,2*%
%TO.N,/S8*%
X103810000Y-116330000D03*
%TO.P,J3,7*%
%TO.N,/S7*%
X106350000Y-119670000D03*
%TO.P,J3,1*%
%TO.N,/S9*%
X106350000Y-116330000D03*
%TD*%
D12*
%TO.P,J2,10*%
%TO.N,/SHIELD1*%
X116000000Y-106930000D03*
X116000000Y-120070000D03*
D13*
%TO.P,J2,9*%
%TO.N,/TX1_P*%
X112500000Y-117500000D03*
%TO.P,J2,8*%
%TO.N,/TX1_N*%
X112500000Y-115500000D03*
%TO.P,J2,7*%
%TO.N,GND*%
X112500000Y-113500000D03*
%TO.P,J2,6*%
%TO.N,/RX1_P*%
X112500000Y-111500000D03*
%TO.P,J2,5*%
%TO.N,/RX1_N*%
X112500000Y-109500000D03*
%TO.P,J2,4*%
%TO.N,GND*%
X114000000Y-110000000D03*
%TO.P,J2,3*%
%TO.N,/S0_P*%
X114000000Y-112500000D03*
%TO.P,J2,2*%
%TO.N,/S0_N*%
X114000000Y-114500000D03*
%TO.P,J2,1*%
%TO.N,Net-(J2-Pad1)*%
X114000000Y-117000000D03*
%TD*%
D15*
%TO.P,J1,40*%
%TO.N,+3V3*%
X106750000Y-96910000D03*
%TO.P,J1,39*%
%TO.N,VCC*%
X106750000Y-103090000D03*
%TO.P,J1,38*%
%TO.N,Net-(J1-Pad38)*%
X106250000Y-96910000D03*
%TO.P,J1,37*%
%TO.N,Net-(J1-Pad37)*%
X106250000Y-103090000D03*
%TO.P,J1,36*%
%TO.N,/C2P_CLK_N*%
X105250000Y-96910000D03*
%TO.P,J1,35*%
%TO.N,/P2C_CLK_N*%
X105250000Y-103090000D03*
%TO.P,J1,34*%
%TO.N,/C2P_CLK_P*%
X104750000Y-96910000D03*
%TO.P,J1,33*%
%TO.N,/P2C_CLK_P*%
X104750000Y-103090000D03*
%TO.P,J1,32*%
%TO.N,/S17*%
X103750000Y-96910000D03*
%TO.P,J1,31*%
%TO.N,/S16*%
X103750000Y-103090000D03*
%TO.P,J1,30*%
%TO.N,/S15*%
X103250000Y-96910000D03*
%TO.P,J1,29*%
%TO.N,/S14*%
X103250000Y-103090000D03*
%TO.P,J1,28*%
%TO.N,/S13*%
X102250000Y-96910000D03*
%TO.P,J1,27*%
%TO.N,/S12*%
X102250000Y-103090000D03*
%TO.P,J1,26*%
%TO.N,/S11*%
X101750000Y-96910000D03*
%TO.P,J1,25*%
%TO.N,/S10*%
X101750000Y-103090000D03*
%TO.P,J1,24*%
%TO.N,/S9*%
X100750000Y-96910000D03*
%TO.P,J1,23*%
%TO.N,/S8*%
X100750000Y-103090000D03*
%TO.P,J1,22*%
%TO.N,/S7*%
X100250000Y-96910000D03*
%TO.P,J1,21*%
%TO.N,/S6*%
X100250000Y-103090000D03*
%TO.P,J1,20*%
%TO.N,/S5*%
X99250000Y-96910000D03*
%TO.P,J1,19*%
%TO.N,/S4*%
X99250000Y-103090000D03*
%TO.P,J1,18*%
%TO.N,/S3*%
X98750000Y-96910000D03*
%TO.P,J1,17*%
%TO.N,/S2*%
X98750000Y-103090000D03*
%TO.P,J1,16*%
%TO.N,/S0_P*%
X97750000Y-96910000D03*
%TO.P,J1,15*%
%TO.N,/REFCLK_N*%
X97750000Y-103090000D03*
%TO.P,J1,14*%
%TO.N,/S0_N*%
X97250000Y-96910000D03*
%TO.P,J1,13*%
%TO.N,/REFCLK_P*%
X97250000Y-103090000D03*
%TO.P,J1,12*%
%TO.N,/TX1_N*%
X96250000Y-96910000D03*
%TO.P,J1,11*%
%TO.N,/RX1_N*%
X96250000Y-103090000D03*
%TO.P,J1,10*%
%TO.N,/TX1_P*%
X95750000Y-96910000D03*
%TO.P,J1,09*%
%TO.N,/RX1_P*%
X95750000Y-103090000D03*
%TO.P,J1,08*%
%TO.N,/TX0_N*%
X94750000Y-96910000D03*
%TO.P,J1,07*%
%TO.N,/RX0_N*%
X94750000Y-103090000D03*
%TO.P,J1,06*%
%TO.N,/TX0_P*%
X94250000Y-96910000D03*
%TO.P,J1,05*%
%TO.N,/RX0_P*%
X94250000Y-103090000D03*
%TO.P,J1,04*%
%TO.N,/R_GA*%
X93250000Y-96910000D03*
%TO.P,J1,03*%
%TO.N,/PMCU_MOSI*%
X93250000Y-103090000D03*
%TO.P,J1,02*%
%TO.N,+5V*%
X92750000Y-96910000D03*
%TO.P,J1,01*%
%TO.N,/PMCU_SCK*%
X92750000Y-103090000D03*
D16*
%TO.P,J1,G3*%
%TO.N,GND*%
X103175000Y-100000000D03*
%TO.P,J1,G2*%
X96825000Y-100000000D03*
D17*
%TO.P,J1,G4*%
X108445000Y-100000000D03*
%TO.P,J1,G1*%
X91555000Y-100000000D03*
%TD*%
D18*
%TO.N,*%
X81090000Y-100000000D03*
X118910000Y-100000000D03*
D19*
X78500000Y-95250000D03*
%TO.N,+3V3*%
X94870000Y-94000000D03*
X85000000Y-94075020D03*
X107760000Y-96670000D03*
X81000000Y-115000000D03*
X78500000Y-102250000D03*
%TO.N,/S15*%
X104400000Y-95500000D03*
%TO.N,/S14*%
X105100000Y-105800000D03*
%TO.N,/S13*%
X102087102Y-95390199D03*
%TO.N,/S12*%
X103937340Y-105662660D03*
%TO.N,/S11*%
X98400000Y-95500000D03*
%TO.N,/S10*%
X102904087Y-105654727D03*
%TO.N,/S9*%
X102085930Y-101501250D03*
%TO.N,/S8*%
X103290000Y-108940000D03*
%TO.N,/S7*%
X100659675Y-101764996D03*
%TO.N,/S6*%
X102325716Y-109204913D03*
%TO.N,/S5*%
X96603393Y-101272340D03*
%TO.N,/S4*%
X99150000Y-106770000D03*
%TO.N,/S3*%
X95878383Y-99070010D03*
%TO.N,/S2*%
X98442899Y-106062870D03*
%TO.N,/REFCLK_N*%
X98026500Y-105000000D03*
%TO.N,/REFCLK_P*%
X96973500Y-105000000D03*
%TO.N,/R_GA*%
X92000000Y-96300000D03*
%TO.N,+5V*%
X92060000Y-97970000D03*
X107330000Y-99079998D03*
%TO.N,GND*%
X116800000Y-95000000D03*
X111250000Y-114500000D03*
X110250000Y-114500000D03*
X109500000Y-114750000D03*
X109500000Y-112250000D03*
X110500000Y-112500000D03*
X111500000Y-112250000D03*
X110250000Y-111500000D03*
X91000000Y-96000000D03*
X101100000Y-94900000D03*
X99300000Y-94900000D03*
X100200000Y-94900000D03*
X103000000Y-94900000D03*
X105300000Y-94900000D03*
X106200000Y-94900000D03*
X107100000Y-94900000D03*
X97000000Y-93660000D03*
X85000000Y-98000000D03*
X89000000Y-111750000D03*
X89750000Y-111000000D03*
X90500000Y-110250000D03*
X91250000Y-109500000D03*
X92000000Y-108750000D03*
X92750000Y-108000000D03*
X93500000Y-107250000D03*
X94250000Y-106500000D03*
X88750000Y-108500000D03*
X89500000Y-107750000D03*
X90250000Y-107000000D03*
X91000000Y-106250000D03*
X84500000Y-117500000D03*
X84500000Y-115500000D03*
X79250000Y-117500000D03*
X78250000Y-117500000D03*
X77500000Y-117000000D03*
X76750000Y-116250000D03*
X76250000Y-115500000D03*
X79250000Y-115500000D03*
X78500000Y-115000000D03*
X77750000Y-114250000D03*
X77250000Y-113500000D03*
X77000000Y-112750000D03*
X77000000Y-111750000D03*
X77250000Y-102250000D03*
X77250000Y-101250000D03*
X77250000Y-100250000D03*
X77250000Y-99250000D03*
X79250000Y-97250000D03*
X80000000Y-96500000D03*
X91000000Y-112500000D03*
X90250000Y-113250000D03*
X91750000Y-111750000D03*
X93000000Y-111750000D03*
X93750000Y-111000000D03*
X94500000Y-110250000D03*
X95250000Y-109500000D03*
X95000000Y-108250000D03*
X95750000Y-107500000D03*
X89500000Y-114000000D03*
X88750000Y-114750000D03*
X105000000Y-107500000D03*
X105000000Y-111500000D03*
X104250000Y-111500000D03*
X98400000Y-109750000D03*
X96750000Y-108250000D03*
X97250000Y-106000000D03*
X94250000Y-105750000D03*
X109500000Y-109500000D03*
X110750000Y-109500000D03*
X117200000Y-117600000D03*
X118000000Y-117600000D03*
X118800000Y-117600000D03*
X119600000Y-117600000D03*
X120400000Y-117600000D03*
X121200000Y-117600000D03*
X122000000Y-117400000D03*
X122600000Y-116800000D03*
X123200000Y-116200000D03*
X123800000Y-115600000D03*
X124000000Y-114800000D03*
X124000000Y-114000000D03*
X124000000Y-113200000D03*
X124000000Y-112400000D03*
X124000000Y-111600000D03*
X124000000Y-110800000D03*
X124000000Y-110000000D03*
X124000000Y-109200000D03*
X124000000Y-108400000D03*
X124000000Y-107600000D03*
X124000000Y-106800000D03*
X124000000Y-106000000D03*
X124000000Y-105200000D03*
X124000000Y-104400000D03*
X124000000Y-103600000D03*
X124000000Y-102800000D03*
X124000000Y-102000000D03*
X124000000Y-101200000D03*
X124000000Y-100400000D03*
X124000000Y-99600000D03*
X124000000Y-98800000D03*
X123400000Y-98000000D03*
X112400000Y-95000000D03*
X111600000Y-95000000D03*
X117200000Y-115400000D03*
X118000000Y-115400000D03*
X118800000Y-115400000D03*
X119600000Y-115400000D03*
X120400000Y-115400000D03*
X121200000Y-115400000D03*
X121800000Y-114800000D03*
X122000000Y-114000000D03*
X122000000Y-113200000D03*
X122000000Y-112400000D03*
X122000000Y-111600000D03*
X122000000Y-110800000D03*
X122000000Y-110000000D03*
X122000000Y-109200000D03*
X122000000Y-108400000D03*
X122000000Y-107600000D03*
X122000000Y-106800000D03*
X122000000Y-106000000D03*
X122000000Y-105200000D03*
X122000000Y-104400000D03*
X122000000Y-103600000D03*
X122000000Y-102800000D03*
X122000000Y-102000000D03*
X122000000Y-101200000D03*
X119000000Y-96600000D03*
%TO.N,/DRAIN*%
X84700000Y-113500000D03*
%TO.N,VCC*%
X108180000Y-114400000D03*
X107880000Y-103130000D03*
X99380000Y-101760000D03*
X104140000Y-101110000D03*
%TO.N,/PMCU_MOSI*%
X88300000Y-104100000D03*
%TO.N,/PMCU_SCK*%
X83200000Y-103100000D03*
X92600000Y-101600000D03*
%TO.N,/S0_N*%
X96900000Y-98400000D03*
%TO.N,/S0_P*%
X98100000Y-98400000D03*
%TD*%
D20*
%TO.N,+3V3*%
X106750000Y-96910000D02*
X106750000Y-96944347D01*
X107520000Y-96910000D02*
X107760000Y-96670000D01*
X106750000Y-96910000D02*
X107520000Y-96910000D01*
X79364999Y-113364999D02*
X81000000Y-115000000D01*
X79364999Y-106175001D02*
X79364999Y-113364999D01*
X80540000Y-105000000D02*
X79364999Y-106175001D01*
X80540000Y-104540000D02*
X80540000Y-105000000D01*
X78500000Y-102250000D02*
X80540000Y-104540000D01*
%TO.N,/S15*%
X103685000Y-95500000D02*
X104400000Y-95500000D01*
X103250000Y-95935000D02*
X103685000Y-95500000D01*
X103250000Y-96910000D02*
X103250000Y-95935000D01*
%TO.N,/S14*%
X103250000Y-103090000D02*
X103274999Y-103114999D01*
X103274999Y-103974999D02*
X105100000Y-105800000D01*
X103274999Y-103114999D02*
X103274999Y-103974999D01*
%TO.N,/S13*%
X102250000Y-95553097D02*
X102250000Y-96910000D01*
X102087102Y-95390199D02*
X102250000Y-95553097D01*
%TO.N,/S12*%
X102250000Y-103975320D02*
X103937340Y-105662660D01*
X102250000Y-103090000D02*
X102250000Y-103975320D01*
%TO.N,/S11*%
X98400000Y-95500000D02*
X98525001Y-95625001D01*
X98525001Y-95625001D02*
X101040001Y-95625001D01*
X101750000Y-96335000D02*
X101750000Y-96910000D01*
X101040001Y-95625001D02*
X101750000Y-96335000D01*
%TO.N,/S10*%
X101750000Y-104500640D02*
X102904087Y-105654727D01*
X101750000Y-103090000D02*
X101750000Y-104500640D01*
%TO.N,/S9*%
X101520245Y-101501250D02*
X102085930Y-101501250D01*
X100499999Y-100481004D02*
X101520245Y-101501250D01*
X100499999Y-99419999D02*
X100499999Y-100481004D01*
X100750000Y-99169998D02*
X100499999Y-99419999D01*
X100750000Y-96910000D02*
X100750000Y-99169998D01*
%TO.N,/S8*%
X100750000Y-103090000D02*
X100750000Y-106400000D01*
X100750000Y-106400000D02*
X103290000Y-108940000D01*
%TO.N,/S7*%
X100049988Y-101155309D02*
X100659675Y-101764996D01*
X100049988Y-97110012D02*
X100049988Y-101155309D01*
X100250000Y-96910000D02*
X100049988Y-97110012D01*
%TO.N,/S6*%
X100250000Y-103090000D02*
X100250000Y-107129197D01*
X100250000Y-107129197D02*
X102325716Y-109204913D01*
%TO.N,/S5*%
X99250000Y-96910000D02*
X99500001Y-97160001D01*
X98807662Y-101272340D02*
X96603393Y-101272340D01*
X99500001Y-100580001D02*
X98807662Y-101272340D01*
X99500001Y-97160001D02*
X99500001Y-100580001D01*
%TO.N,/S4*%
X99250000Y-106670000D02*
X99150000Y-106770000D01*
X99250000Y-103090000D02*
X99250000Y-106670000D01*
%TO.N,/S3*%
X98251094Y-99321908D02*
X96130281Y-99321908D01*
X98825001Y-98748001D02*
X98251094Y-99321908D01*
X98750000Y-97976998D02*
X98825001Y-98051999D01*
X96130281Y-99321908D02*
X95878383Y-99070010D01*
X98750000Y-96910000D02*
X98750000Y-97976998D01*
X98825001Y-98051999D02*
X98825001Y-98748001D01*
%TO.N,/S2*%
X98750000Y-103090000D02*
X98751501Y-103091501D01*
X98751501Y-103091501D02*
X98751501Y-105754268D01*
X98751501Y-105754268D02*
X98442899Y-106062870D01*
D21*
%TO.N,/REFCLK_N*%
X97750000Y-104177501D02*
X97700000Y-104227501D01*
X97700000Y-104673500D02*
X98026500Y-105000000D01*
X97700000Y-104227501D02*
X97700000Y-104673500D01*
X97750000Y-103090000D02*
X97750000Y-104177501D01*
%TO.N,/REFCLK_P*%
X97300000Y-104673500D02*
X96973500Y-105000000D01*
X97300000Y-104227501D02*
X97300000Y-104673500D01*
X97250000Y-104177501D02*
X97300000Y-104227501D01*
X97250000Y-103090000D02*
X97250000Y-104177501D01*
%TO.N,/TX1_N*%
X113070773Y-116070773D02*
X112500000Y-115500000D01*
X109900000Y-94500000D02*
X109907521Y-94433243D01*
X109892478Y-94813675D02*
X109900000Y-94746919D01*
X108634549Y-94933965D02*
X108670290Y-94877084D01*
X109900000Y-94746919D02*
X109900000Y-94500000D01*
X109730165Y-95017209D02*
X109787046Y-94981468D01*
X109329709Y-94877084D02*
X109365450Y-94933965D01*
X109600000Y-95046919D02*
X109666756Y-95039397D01*
X109870290Y-94877084D02*
X109892478Y-94813675D01*
X109965450Y-94312953D02*
X110012953Y-94265450D01*
X109533243Y-95039397D02*
X109600000Y-95046919D01*
X109307521Y-94813675D02*
X109329709Y-94877084D01*
X109787046Y-94981468D02*
X109834549Y-94933965D01*
X109292478Y-94433243D02*
X109300000Y-94500000D01*
X109234549Y-94312953D02*
X109270290Y-94369834D01*
X108530165Y-95017209D02*
X108587046Y-94981468D01*
X109365450Y-94933965D02*
X109412953Y-94981468D01*
X98082844Y-94200000D02*
X107800000Y-94200000D01*
X109187046Y-94265450D02*
X109234549Y-94312953D01*
X109469834Y-95017209D02*
X109533243Y-95039397D01*
X109130165Y-94229709D02*
X109187046Y-94265450D01*
X109907521Y-94433243D02*
X109929709Y-94369834D01*
X109066756Y-94207521D02*
X109130165Y-94229709D01*
X110012953Y-94265450D02*
X110069834Y-94229709D01*
X110133243Y-94207521D02*
X110200000Y-94200000D01*
X108869834Y-94229709D02*
X108933243Y-94207521D01*
X108729709Y-94369834D02*
X108765450Y-94312953D01*
X109300000Y-94746919D02*
X109307521Y-94813675D01*
X108812953Y-94265450D02*
X108869834Y-94229709D01*
X108707521Y-94433243D02*
X108729709Y-94369834D01*
X108765450Y-94312953D02*
X108812953Y-94265450D01*
X115158454Y-116300000D02*
X114584962Y-115726508D01*
X108100000Y-94500000D02*
X108100000Y-94746919D01*
X109666756Y-95039397D02*
X109730165Y-95017209D01*
X96200000Y-96285000D02*
X96200000Y-96082844D01*
X108092478Y-94433243D02*
X108100000Y-94500000D01*
X108070290Y-94369834D02*
X108092478Y-94433243D01*
X107930165Y-94229709D02*
X107987046Y-94265450D01*
X107866756Y-94207521D02*
X107930165Y-94229709D01*
X107800000Y-94200000D02*
X107866756Y-94207521D01*
X108100000Y-94746919D02*
X108107521Y-94813675D01*
X108692478Y-94813675D02*
X108700000Y-94746919D01*
X96250000Y-96910000D02*
X96250000Y-96335000D01*
X108165450Y-94933965D02*
X108212953Y-94981468D01*
X96200000Y-96082844D02*
X98082844Y-94200000D01*
X109300000Y-94500000D02*
X109300000Y-94746919D01*
X110200000Y-94200000D02*
X117917156Y-94200000D01*
X108269834Y-95017209D02*
X108333243Y-95039397D01*
X109834549Y-94933965D02*
X109870290Y-94877084D01*
X108034549Y-94312953D02*
X108070290Y-94369834D01*
X109000000Y-94200000D02*
X109066756Y-94207521D01*
X108212953Y-94981468D02*
X108269834Y-95017209D01*
X96250000Y-96335000D02*
X96200000Y-96285000D01*
X108333243Y-95039397D02*
X108400000Y-95046919D01*
X107987046Y-94265450D02*
X108034549Y-94312953D01*
X122800000Y-114917156D02*
X121417156Y-116300000D01*
X108107521Y-94813675D02*
X108129709Y-94877084D01*
X109412953Y-94981468D02*
X109469834Y-95017209D01*
X109270290Y-94369834D02*
X109292478Y-94433243D01*
X108129709Y-94877084D02*
X108165450Y-94933965D01*
X108400000Y-95046919D02*
X108466756Y-95039397D01*
X108466756Y-95039397D02*
X108530165Y-95017209D01*
X108700000Y-94500000D02*
X108707521Y-94433243D01*
X108933243Y-94207521D02*
X109000000Y-94200000D01*
X108587046Y-94981468D02*
X108634549Y-94933965D01*
X108700000Y-94746919D02*
X108700000Y-94500000D01*
X108670290Y-94877084D02*
X108692478Y-94813675D01*
X121417156Y-116300000D02*
X115158454Y-116300000D01*
X109929709Y-94369834D02*
X109965450Y-94312953D01*
X110069834Y-94229709D02*
X110133243Y-94207521D01*
X117917156Y-94200000D02*
X122800000Y-99082844D01*
X122800000Y-99082844D02*
X122800000Y-114917156D01*
X114584962Y-115726508D02*
X113415037Y-115726509D01*
X113415037Y-115726509D02*
X113070773Y-116070773D01*
%TO.N,/RX1_N*%
X111700000Y-110300000D02*
X112500000Y-109500000D01*
X105224697Y-110132747D02*
X105259895Y-110188764D01*
X105202847Y-110070302D02*
X105224697Y-110132747D01*
X105166182Y-109876374D02*
X105188032Y-109938819D01*
X105188032Y-109938819D02*
X105202847Y-110070302D01*
X105028186Y-109738378D02*
X105084203Y-109773576D01*
X104588032Y-110070302D02*
X104602847Y-109938819D01*
X104890880Y-109709120D02*
X104900000Y-109709120D01*
X105130984Y-109820357D02*
X105166182Y-109876374D01*
X104825138Y-109716528D02*
X104890880Y-109709120D01*
X104706676Y-109773576D02*
X104762693Y-109738378D01*
X104624697Y-109876374D02*
X104659895Y-109820357D01*
X105259895Y-110188764D02*
X105306676Y-110235545D01*
X104300000Y-110300000D02*
X104365741Y-110292593D01*
X104484203Y-110235545D02*
X104530984Y-110188764D01*
X96250000Y-103090000D02*
X96250000Y-104177501D01*
X104365741Y-110292593D02*
X104428186Y-110270743D01*
X104900000Y-109709120D02*
X104965741Y-109716528D01*
X96250000Y-104177501D02*
X96200000Y-104227501D01*
X105084203Y-109773576D02*
X105130984Y-109820357D01*
X105306676Y-110235545D02*
X105362693Y-110270743D01*
X96200000Y-104227501D02*
X96200000Y-105917156D01*
X104566182Y-110132747D02*
X104588032Y-110070302D01*
X104762693Y-109738378D02*
X104825138Y-109716528D01*
X104659895Y-109820357D02*
X104706676Y-109773576D01*
X96200000Y-105917156D02*
X100582844Y-110300000D01*
X100582844Y-110300000D02*
X104300000Y-110300000D01*
X104428186Y-110270743D02*
X104484203Y-110235545D01*
X104965741Y-109716528D02*
X105028186Y-109738378D01*
X104530984Y-110188764D02*
X104566182Y-110132747D01*
X104602847Y-109938819D02*
X104624697Y-109876374D01*
X105362693Y-110270743D02*
X105425138Y-110292593D01*
X105425138Y-110292593D02*
X105490880Y-110300000D01*
X105490880Y-110300000D02*
X111700000Y-110300000D01*
%TO.N,/TX1_P*%
X95800000Y-95917156D02*
X97917156Y-93800000D01*
X123200000Y-115082844D02*
X121582844Y-116700000D01*
X121582844Y-116700000D02*
X114992782Y-116700000D01*
X114992782Y-116700000D02*
X114419281Y-116126499D01*
X114419281Y-116126499D02*
X113580719Y-116126499D01*
X113580719Y-116126499D02*
X113126499Y-116580719D01*
X113126499Y-116580719D02*
X113126499Y-116873501D01*
X113126499Y-116873501D02*
X112500000Y-117500000D01*
X123200000Y-98917156D02*
X123200000Y-115082844D01*
X118082844Y-93800000D02*
X123200000Y-98917156D01*
X97917156Y-93800000D02*
X118082844Y-93800000D01*
X95750000Y-96910000D02*
X95750000Y-96335000D01*
X95750000Y-96335000D02*
X95800000Y-96285000D01*
X95800000Y-96285000D02*
X95800000Y-95917156D01*
%TO.N,/RX1_P*%
X95800000Y-104227501D02*
X95800000Y-106082844D01*
X95800000Y-106082844D02*
X100417156Y-110700000D01*
X100417156Y-110700000D02*
X111700000Y-110700000D01*
X111700000Y-110700000D02*
X112500000Y-111500000D01*
X95750000Y-103090000D02*
X95750000Y-104177501D01*
X95750000Y-104177501D02*
X95800000Y-104227501D01*
%TO.N,/TX0_N*%
X94700000Y-95772499D02*
X94700000Y-95417156D01*
X86419281Y-116126499D02*
X86873501Y-116580719D01*
X75800000Y-114082844D02*
X78417156Y-116700000D01*
X85580719Y-116126499D02*
X86419281Y-116126499D01*
X78417156Y-116700000D02*
X85007218Y-116700000D01*
X85007218Y-116700000D02*
X85580719Y-116126499D01*
X86873501Y-116580719D02*
X86873501Y-116873501D01*
X86873501Y-116873501D02*
X87500000Y-117500000D01*
X75800000Y-98917156D02*
X75800000Y-114082844D01*
X79917156Y-94800000D02*
X75800000Y-98917156D01*
X94082844Y-94800000D02*
X79917156Y-94800000D01*
X94700000Y-95417156D02*
X94082844Y-94800000D01*
X94750000Y-96910000D02*
X94750000Y-95822499D01*
X94750000Y-95822499D02*
X94700000Y-95772499D01*
%TO.N,/RX0_N*%
X94700000Y-104300000D02*
X89217158Y-109782842D01*
X94700000Y-103715000D02*
X94700000Y-104300000D01*
X94750000Y-103665000D02*
X94700000Y-103715000D01*
X89217158Y-109782842D02*
X87500000Y-111500000D01*
X94750000Y-103090000D02*
X94750000Y-103665000D01*
%TO.N,/TX0_P*%
X86929227Y-116070773D02*
X87500000Y-115500000D01*
X82729709Y-95877085D02*
X82707521Y-95813676D01*
X82933243Y-96039398D02*
X82869834Y-96017210D01*
X82812953Y-95981469D02*
X82765450Y-95933966D01*
X84387046Y-95981469D02*
X84330165Y-96017210D01*
X82700000Y-95500000D02*
X82692478Y-95433244D01*
X83000000Y-96046919D02*
X82933243Y-96039398D01*
X83730165Y-95229710D02*
X83666756Y-95207522D01*
X83066756Y-96039398D02*
X83000000Y-96046919D01*
X83234549Y-95933966D02*
X83187046Y-95981469D01*
X84500000Y-95500000D02*
X84500000Y-95746919D01*
X83292478Y-95813676D02*
X83270290Y-95877085D01*
X83600000Y-95200000D02*
X83533243Y-95207522D01*
X83900000Y-95500000D02*
X83892478Y-95433244D01*
X83300000Y-95746919D02*
X83292478Y-95813676D01*
X84669834Y-95229710D02*
X84612953Y-95265451D01*
X83300000Y-95500000D02*
X83300000Y-95746919D01*
X86584963Y-115726509D02*
X86929227Y-116070773D01*
X83329709Y-95369835D02*
X83307521Y-95433244D01*
X84507521Y-95433244D02*
X84500000Y-95500000D01*
X83365450Y-95312954D02*
X83329709Y-95369835D01*
X83533243Y-95207522D02*
X83469834Y-95229710D01*
X83787046Y-95265451D02*
X83730165Y-95229710D01*
X84529709Y-95369835D02*
X84507521Y-95433244D01*
X83834549Y-95312954D02*
X83787046Y-95265451D01*
X83270290Y-95877085D02*
X83234549Y-95933966D01*
X83870290Y-95369835D02*
X83834549Y-95312954D01*
X83892478Y-95433244D02*
X83870290Y-95369835D01*
X82869834Y-96017210D02*
X82812953Y-95981469D01*
X84841546Y-116300000D02*
X85415038Y-115726508D01*
X83130165Y-96017210D02*
X83066756Y-96039398D01*
X84266756Y-96039398D02*
X84200000Y-96046919D01*
X83469834Y-95229710D02*
X83412953Y-95265451D01*
X84492478Y-95813676D02*
X84470290Y-95877085D01*
X84733243Y-95207522D02*
X84669834Y-95229710D01*
X84133243Y-96039398D02*
X84069834Y-96017210D01*
X84069834Y-96017210D02*
X84012953Y-95981469D01*
X82765450Y-95933966D02*
X82729709Y-95877085D01*
X84800000Y-95200000D02*
X84733243Y-95207522D01*
X80082844Y-95200000D02*
X76200000Y-99082844D01*
X83412953Y-95265451D02*
X83365450Y-95312954D01*
X93917156Y-95200000D02*
X84800000Y-95200000D01*
X82707521Y-95813676D02*
X82700000Y-95746919D01*
X94300000Y-95582844D02*
X93917156Y-95200000D01*
X84330165Y-96017210D02*
X84266756Y-96039398D01*
X84470290Y-95877085D02*
X84434549Y-95933966D01*
X83907521Y-95813676D02*
X83900000Y-95746919D01*
X82700000Y-95746919D02*
X82700000Y-95500000D01*
X94300000Y-95772499D02*
X94300000Y-95582844D01*
X94250000Y-95822499D02*
X94300000Y-95772499D01*
X84565450Y-95312954D02*
X84529709Y-95369835D01*
X83929709Y-95877085D02*
X83907521Y-95813676D01*
X82587046Y-95265451D02*
X82530165Y-95229710D01*
X94250000Y-96910000D02*
X94250000Y-95822499D01*
X84500000Y-95746919D02*
X84492478Y-95813676D01*
X83307521Y-95433244D02*
X83300000Y-95500000D01*
X83965450Y-95933966D02*
X83929709Y-95877085D01*
X83187046Y-95981469D02*
X83130165Y-96017210D01*
X83666756Y-95207522D02*
X83600000Y-95200000D01*
X84434549Y-95933966D02*
X84387046Y-95981469D01*
X84200000Y-96046919D02*
X84133243Y-96039398D01*
X83900000Y-95746919D02*
X83900000Y-95500000D01*
X84612953Y-95265451D02*
X84565450Y-95312954D01*
X84012953Y-95981469D02*
X83965450Y-95933966D01*
X82692478Y-95433244D02*
X82670290Y-95369835D01*
X82670290Y-95369835D02*
X82634549Y-95312954D01*
X82634549Y-95312954D02*
X82587046Y-95265451D01*
X82530165Y-95229710D02*
X82466756Y-95207522D01*
X82466756Y-95207522D02*
X82400000Y-95200000D01*
X82400000Y-95200000D02*
X80082844Y-95200000D01*
X76200000Y-99082844D02*
X76200000Y-113917156D01*
X76200000Y-113917156D02*
X78582844Y-116300000D01*
X78582844Y-116300000D02*
X84841546Y-116300000D01*
X85415038Y-115726508D02*
X86584963Y-115726509D01*
%TO.N,/RX0_P*%
X88934314Y-109500000D02*
X87500000Y-109500000D01*
X92262564Y-106171750D02*
X88934314Y-109500000D01*
X92439660Y-105952636D02*
X92410512Y-106013161D01*
X92454608Y-105819963D02*
X92454608Y-105887141D01*
X92439660Y-105754468D02*
X92454608Y-105819963D01*
X92565029Y-104989294D02*
X92512507Y-104947409D01*
X92845415Y-105259042D02*
X92792892Y-105217157D01*
X92905941Y-105288189D02*
X92845415Y-105259042D01*
X93217157Y-105217157D02*
X93164634Y-105259042D01*
X92971435Y-105303138D02*
X92905941Y-105288189D01*
X94300000Y-104134314D02*
X93217157Y-105217157D01*
X93038614Y-105303138D02*
X92971435Y-105303138D01*
X94300000Y-103715000D02*
X94300000Y-104134314D01*
X93104108Y-105288189D02*
X93038614Y-105303138D01*
X93164634Y-105259042D02*
X93104108Y-105288189D01*
X92098879Y-105361035D02*
X92140765Y-105413558D01*
X92512507Y-104947409D02*
X92451981Y-104918261D01*
X94250000Y-103665000D02*
X94300000Y-103715000D01*
X92410512Y-105693942D02*
X92439660Y-105754468D01*
X92368628Y-106065685D02*
X92262564Y-106171750D01*
X92451981Y-104918261D02*
X92386486Y-104903313D01*
X94250000Y-103090000D02*
X94250000Y-103665000D01*
X92098879Y-105041816D02*
X92069732Y-105102342D01*
X92069732Y-105300509D02*
X92098879Y-105361035D01*
X92386486Y-104903313D02*
X92319308Y-104903313D01*
X92193288Y-104947409D02*
X92140765Y-104989294D01*
X92410512Y-106013161D02*
X92368628Y-106065685D01*
X92454608Y-105887141D02*
X92439660Y-105952636D01*
X92319308Y-104903313D02*
X92253813Y-104918261D01*
X92054783Y-105167836D02*
X92054783Y-105235015D01*
X92253813Y-104918261D02*
X92193288Y-104947409D01*
X92140765Y-104989294D02*
X92098879Y-105041816D01*
X92792892Y-105217157D02*
X92565029Y-104989294D01*
X92069732Y-105102342D02*
X92054783Y-105167836D01*
X92368627Y-105641420D02*
X92410512Y-105693942D01*
X92054783Y-105235015D02*
X92069732Y-105300509D01*
X92140765Y-105413558D02*
X92368627Y-105641420D01*
D20*
%TO.N,/R_GA*%
X92440001Y-95859999D02*
X92000000Y-96300000D01*
X93250000Y-95935000D02*
X93174999Y-95859999D01*
X93174999Y-95859999D02*
X92440001Y-95859999D01*
X93250000Y-96910000D02*
X93250000Y-95935000D01*
%TO.N,+5V*%
X92750000Y-97280000D02*
X92060000Y-97970000D01*
X92750000Y-96910000D02*
X92750000Y-97280000D01*
%TO.N,/DRAIN*%
X84700000Y-113500000D02*
X87500000Y-113500000D01*
%TO.N,VCC*%
X106790000Y-103130000D02*
X106750000Y-103090000D01*
X107880000Y-103130000D02*
X106790000Y-103130000D01*
%TO.N,/PMCU_MOSI*%
X88340001Y-104140001D02*
X88300000Y-104100000D01*
X93174999Y-104140001D02*
X88340001Y-104140001D01*
X93250000Y-104065000D02*
X93174999Y-104140001D01*
X93250000Y-103090000D02*
X93250000Y-104065000D01*
%TO.N,/PMCU_SCK*%
X92740000Y-103100000D02*
X92750000Y-103090000D01*
X83200000Y-103100000D02*
X92740000Y-103100000D01*
X92750000Y-101750000D02*
X92600000Y-101600000D01*
X92750000Y-103090000D02*
X92750000Y-101750000D01*
D21*
%TO.N,/S0_N*%
X97300000Y-97535000D02*
X97300000Y-98000000D01*
X97250000Y-96910000D02*
X97250000Y-97485000D01*
X97250000Y-97485000D02*
X97300000Y-97535000D01*
X97300000Y-98000000D02*
X96900000Y-98400000D01*
%TO.N,/S0_P*%
X97750000Y-96910000D02*
X97750000Y-97485000D01*
X97750000Y-97485000D02*
X97700000Y-97535000D01*
X97700000Y-97535000D02*
X97700000Y-98000000D01*
X97700000Y-98000000D02*
X98100000Y-98400000D01*
%TD*%
D22*
%TO.N,GND*%
X122503463Y-93457312D02*
X122987756Y-93603529D01*
X123434422Y-93841025D01*
X123826450Y-94160755D01*
X124148907Y-94550539D01*
X124389518Y-94995540D01*
X124539111Y-95478796D01*
X124594000Y-96001029D01*
X124594001Y-121980136D01*
X124542688Y-122503464D01*
X124396472Y-122987756D01*
X124158975Y-123434422D01*
X123839245Y-123826450D01*
X123449458Y-124148910D01*
X123004460Y-124389518D01*
X122521205Y-124539111D01*
X121998971Y-124594000D01*
X79019854Y-124594000D01*
X78302304Y-124523644D01*
X77631172Y-124321017D01*
X77012186Y-123991896D01*
X76468916Y-123548815D01*
X76022054Y-123008652D01*
X75688619Y-122391977D01*
X75481314Y-121722284D01*
X75406024Y-121005947D01*
X75406000Y-120999166D01*
X75406000Y-119884738D01*
X82119000Y-119884738D01*
X82119000Y-120255262D01*
X82191286Y-120618667D01*
X82333080Y-120960987D01*
X82538932Y-121269067D01*
X82800933Y-121531068D01*
X83109013Y-121736920D01*
X83451333Y-121878714D01*
X83814738Y-121951000D01*
X84185262Y-121951000D01*
X84548667Y-121878714D01*
X84890987Y-121736920D01*
X85199067Y-121531068D01*
X85461068Y-121269067D01*
X85666920Y-120960987D01*
X85808714Y-120618667D01*
X85881000Y-120255262D01*
X85881000Y-119884738D01*
X85808714Y-119521333D01*
X85671276Y-119189528D01*
X92419000Y-119189528D01*
X92419000Y-120150471D01*
X92436812Y-120331317D01*
X92507202Y-120563362D01*
X92621509Y-120777215D01*
X92775340Y-120964660D01*
X92962784Y-121118491D01*
X93176637Y-121232798D01*
X93408682Y-121303188D01*
X93650000Y-121326956D01*
X93891317Y-121303188D01*
X94123362Y-121232798D01*
X94337215Y-121118491D01*
X94524660Y-120964660D01*
X94678491Y-120777216D01*
X94792798Y-120563363D01*
X94863188Y-120331318D01*
X94881000Y-120150472D01*
X94881000Y-119797000D01*
X94959000Y-119797000D01*
X94959000Y-120217000D01*
X95007430Y-120454716D01*
X95101305Y-120678416D01*
X95237018Y-120879504D01*
X95409354Y-121050251D01*
X95611690Y-121184097D01*
X95836250Y-121275897D01*
X95873020Y-121279489D01*
X96063000Y-121218627D01*
X96063000Y-119797000D01*
X96317000Y-119797000D01*
X96317000Y-121218627D01*
X96506980Y-121279489D01*
X96543750Y-121275897D01*
X96768310Y-121184097D01*
X96970646Y-121050251D01*
X97142982Y-120879504D01*
X97278695Y-120678416D01*
X97372570Y-120454716D01*
X97421000Y-120217000D01*
X97421000Y-119797000D01*
X96317000Y-119797000D01*
X96063000Y-119797000D01*
X94959000Y-119797000D01*
X94881000Y-119797000D01*
X94881000Y-119189529D01*
X94874448Y-119123000D01*
X94959000Y-119123000D01*
X94959000Y-119543000D01*
X96063000Y-119543000D01*
X96063000Y-118121373D01*
X96317000Y-118121373D01*
X96317000Y-119543000D01*
X97421000Y-119543000D01*
X97421000Y-119189528D01*
X97499000Y-119189528D01*
X97499000Y-120150471D01*
X97516812Y-120331317D01*
X97587202Y-120563362D01*
X97701509Y-120777215D01*
X97855340Y-120964660D01*
X98042784Y-121118491D01*
X98256637Y-121232798D01*
X98488682Y-121303188D01*
X98730000Y-121326956D01*
X98971317Y-121303188D01*
X99203362Y-121232798D01*
X99417215Y-121118491D01*
X99604660Y-120964660D01*
X99758491Y-120777216D01*
X99872798Y-120563363D01*
X99943188Y-120331318D01*
X99961000Y-120150472D01*
X99961000Y-119189529D01*
X99961000Y-119189528D01*
X100039000Y-119189528D01*
X100039000Y-120150471D01*
X100056812Y-120331317D01*
X100127202Y-120563362D01*
X100241509Y-120777215D01*
X100395340Y-120964660D01*
X100582784Y-121118491D01*
X100796637Y-121232798D01*
X101028682Y-121303188D01*
X101270000Y-121326956D01*
X101511317Y-121303188D01*
X101743362Y-121232798D01*
X101957215Y-121118491D01*
X102144660Y-120964660D01*
X102298491Y-120777216D01*
X102412798Y-120563363D01*
X102483188Y-120331318D01*
X102501000Y-120150472D01*
X102501000Y-119189529D01*
X102501000Y-119189528D01*
X102579000Y-119189528D01*
X102579000Y-120150471D01*
X102596812Y-120331317D01*
X102667202Y-120563362D01*
X102781509Y-120777215D01*
X102935340Y-120964660D01*
X103122784Y-121118491D01*
X103336637Y-121232798D01*
X103568682Y-121303188D01*
X103810000Y-121326956D01*
X104051317Y-121303188D01*
X104283362Y-121232798D01*
X104497215Y-121118491D01*
X104684660Y-120964660D01*
X104838491Y-120777216D01*
X104952798Y-120563363D01*
X105023188Y-120331318D01*
X105041000Y-120150472D01*
X105041000Y-119189529D01*
X105041000Y-119189528D01*
X105119000Y-119189528D01*
X105119000Y-120150471D01*
X105136812Y-120331317D01*
X105207202Y-120563362D01*
X105321509Y-120777215D01*
X105475340Y-120964660D01*
X105662784Y-121118491D01*
X105876637Y-121232798D01*
X106108682Y-121303188D01*
X106350000Y-121326956D01*
X106591317Y-121303188D01*
X106823362Y-121232798D01*
X107037215Y-121118491D01*
X107224660Y-120964660D01*
X107378491Y-120777216D01*
X107492798Y-120563363D01*
X107563188Y-120331318D01*
X107581000Y-120150472D01*
X107581000Y-119884738D01*
X114119000Y-119884738D01*
X114119000Y-120255262D01*
X114191286Y-120618667D01*
X114333080Y-120960987D01*
X114538932Y-121269067D01*
X114800933Y-121531068D01*
X115109013Y-121736920D01*
X115451333Y-121878714D01*
X115814738Y-121951000D01*
X116185262Y-121951000D01*
X116548667Y-121878714D01*
X116890987Y-121736920D01*
X117199067Y-121531068D01*
X117461068Y-121269067D01*
X117666920Y-120960987D01*
X117808714Y-120618667D01*
X117881000Y-120255262D01*
X117881000Y-119884738D01*
X117808714Y-119521333D01*
X117666920Y-119179013D01*
X117461068Y-118870933D01*
X117199067Y-118608932D01*
X116890987Y-118403080D01*
X116548667Y-118261286D01*
X116185262Y-118189000D01*
X115814738Y-118189000D01*
X115451333Y-118261286D01*
X115109013Y-118403080D01*
X114800933Y-118608932D01*
X114538932Y-118870933D01*
X114333080Y-119179013D01*
X114191286Y-119521333D01*
X114119000Y-119884738D01*
X107581000Y-119884738D01*
X107581000Y-119189529D01*
X107563188Y-119008682D01*
X107492798Y-118776637D01*
X107378491Y-118562784D01*
X107224660Y-118375340D01*
X107037216Y-118221509D01*
X106823363Y-118107202D01*
X106591318Y-118036812D01*
X106350000Y-118013044D01*
X106108683Y-118036812D01*
X105876638Y-118107202D01*
X105662785Y-118221509D01*
X105475341Y-118375340D01*
X105321510Y-118562784D01*
X105207202Y-118776637D01*
X105136812Y-119008682D01*
X105119000Y-119189528D01*
X105041000Y-119189528D01*
X105023188Y-119008682D01*
X104952798Y-118776637D01*
X104838491Y-118562784D01*
X104684660Y-118375340D01*
X104497216Y-118221509D01*
X104283363Y-118107202D01*
X104051318Y-118036812D01*
X103810000Y-118013044D01*
X103568683Y-118036812D01*
X103336638Y-118107202D01*
X103122785Y-118221509D01*
X102935341Y-118375340D01*
X102781510Y-118562784D01*
X102667202Y-118776637D01*
X102596812Y-119008682D01*
X102579000Y-119189528D01*
X102501000Y-119189528D01*
X102483188Y-119008682D01*
X102412798Y-118776637D01*
X102298491Y-118562784D01*
X102144660Y-118375340D01*
X101957216Y-118221509D01*
X101743363Y-118107202D01*
X101511318Y-118036812D01*
X101270000Y-118013044D01*
X101028683Y-118036812D01*
X100796638Y-118107202D01*
X100582785Y-118221509D01*
X100395341Y-118375340D01*
X100241510Y-118562784D01*
X100127202Y-118776637D01*
X100056812Y-119008682D01*
X100039000Y-119189528D01*
X99961000Y-119189528D01*
X99943188Y-119008682D01*
X99872798Y-118776637D01*
X99758491Y-118562784D01*
X99604660Y-118375340D01*
X99417216Y-118221509D01*
X99203363Y-118107202D01*
X98971318Y-118036812D01*
X98730000Y-118013044D01*
X98488683Y-118036812D01*
X98256638Y-118107202D01*
X98042785Y-118221509D01*
X97855341Y-118375340D01*
X97701510Y-118562784D01*
X97587202Y-118776637D01*
X97516812Y-119008682D01*
X97499000Y-119189528D01*
X97421000Y-119189528D01*
X97421000Y-119123000D01*
X97372570Y-118885284D01*
X97278695Y-118661584D01*
X97142982Y-118460496D01*
X96970646Y-118289749D01*
X96768310Y-118155903D01*
X96543750Y-118064103D01*
X96506980Y-118060511D01*
X96317000Y-118121373D01*
X96063000Y-118121373D01*
X95873020Y-118060511D01*
X95836250Y-118064103D01*
X95611690Y-118155903D01*
X95409354Y-118289749D01*
X95237018Y-118460496D01*
X95101305Y-118661584D01*
X95007430Y-118885284D01*
X94959000Y-119123000D01*
X94874448Y-119123000D01*
X94863188Y-119008682D01*
X94792798Y-118776637D01*
X94678491Y-118562784D01*
X94524660Y-118375340D01*
X94337216Y-118221509D01*
X94123363Y-118107202D01*
X93891318Y-118036812D01*
X93650000Y-118013044D01*
X93408683Y-118036812D01*
X93176638Y-118107202D01*
X92962785Y-118221509D01*
X92775341Y-118375340D01*
X92621510Y-118562784D01*
X92507202Y-118776637D01*
X92436812Y-119008682D01*
X92419000Y-119189528D01*
X85671276Y-119189528D01*
X85666920Y-119179013D01*
X85461068Y-118870933D01*
X85199067Y-118608932D01*
X84890987Y-118403080D01*
X84548667Y-118261286D01*
X84185262Y-118189000D01*
X83814738Y-118189000D01*
X83451333Y-118261286D01*
X83109013Y-118403080D01*
X82800933Y-118608932D01*
X82538932Y-118870933D01*
X82333080Y-119179013D01*
X82191286Y-119521333D01*
X82119000Y-119884738D01*
X75406000Y-119884738D01*
X75406000Y-114309876D01*
X75420269Y-114336572D01*
X75462832Y-114388435D01*
X75477066Y-114405779D01*
X75494408Y-114420011D01*
X78079989Y-117005593D01*
X78094221Y-117022935D01*
X78111563Y-117037167D01*
X78111564Y-117037168D01*
X78163428Y-117079732D01*
X78228879Y-117114716D01*
X78242385Y-117121935D01*
X78328058Y-117147924D01*
X78394828Y-117154500D01*
X78394831Y-117154500D01*
X78417156Y-117156699D01*
X78439481Y-117154500D01*
X84984893Y-117154500D01*
X85007218Y-117156699D01*
X85029543Y-117154500D01*
X85029546Y-117154500D01*
X85030771Y-117154379D01*
X85054370Y-117278356D01*
X85126845Y-117457491D01*
X85134511Y-117471834D01*
X85286958Y-117533437D01*
X85820395Y-117000000D01*
X85806253Y-116985858D01*
X85985858Y-116806253D01*
X86000000Y-116820395D01*
X86014143Y-116806253D01*
X86193748Y-116985858D01*
X86179605Y-117000000D01*
X86193748Y-117014143D01*
X86014143Y-117193748D01*
X86000000Y-117179605D01*
X85466563Y-117713042D01*
X85528166Y-117865489D01*
X85706081Y-117940909D01*
X85895291Y-117980171D01*
X86088525Y-117981765D01*
X86278356Y-117945630D01*
X86457491Y-117873155D01*
X86471834Y-117865489D01*
X86533436Y-117713044D01*
X86544323Y-117723931D01*
X86556699Y-117786147D01*
X86630649Y-117964678D01*
X86738007Y-118125351D01*
X86874649Y-118261993D01*
X87035322Y-118369351D01*
X87213853Y-118443301D01*
X87403380Y-118481000D01*
X87596620Y-118481000D01*
X87786147Y-118443301D01*
X87964678Y-118369351D01*
X88125351Y-118261993D01*
X88261993Y-118125351D01*
X88369351Y-117964678D01*
X88443301Y-117786147D01*
X88481000Y-117596620D01*
X88481000Y-117403380D01*
X88443301Y-117213853D01*
X88369351Y-117035322D01*
X88261993Y-116874649D01*
X88125351Y-116738007D01*
X87964678Y-116630649D01*
X87786147Y-116556699D01*
X87596620Y-116519000D01*
X87403380Y-116519000D01*
X87325644Y-116534462D01*
X87321425Y-116491621D01*
X87312734Y-116462969D01*
X87403380Y-116481000D01*
X87596620Y-116481000D01*
X87786147Y-116443301D01*
X87964678Y-116369351D01*
X88125351Y-116261993D01*
X88261993Y-116125351D01*
X88369351Y-115964678D01*
X88417047Y-115849528D01*
X92419000Y-115849528D01*
X92419000Y-116810471D01*
X92436812Y-116991317D01*
X92507202Y-117223362D01*
X92621509Y-117437215D01*
X92775340Y-117624660D01*
X92962784Y-117778491D01*
X93176637Y-117892798D01*
X93408682Y-117963188D01*
X93650000Y-117986956D01*
X93891317Y-117963188D01*
X94123362Y-117892798D01*
X94337215Y-117778491D01*
X94524660Y-117624660D01*
X94678491Y-117437216D01*
X94792798Y-117223363D01*
X94863188Y-116991318D01*
X94881000Y-116810472D01*
X94881000Y-116457000D01*
X94959000Y-116457000D01*
X94959000Y-116877000D01*
X95007430Y-117114716D01*
X95101305Y-117338416D01*
X95237018Y-117539504D01*
X95409354Y-117710251D01*
X95611690Y-117844097D01*
X95836250Y-117935897D01*
X95873020Y-117939489D01*
X96063000Y-117878627D01*
X96063000Y-116457000D01*
X96317000Y-116457000D01*
X96317000Y-117878627D01*
X96506980Y-117939489D01*
X96543750Y-117935897D01*
X96768310Y-117844097D01*
X96970646Y-117710251D01*
X97142982Y-117539504D01*
X97278695Y-117338416D01*
X97372570Y-117114716D01*
X97421000Y-116877000D01*
X97421000Y-116457000D01*
X96317000Y-116457000D01*
X96063000Y-116457000D01*
X94959000Y-116457000D01*
X94881000Y-116457000D01*
X94881000Y-115849529D01*
X94874448Y-115783000D01*
X94959000Y-115783000D01*
X94959000Y-116203000D01*
X96063000Y-116203000D01*
X96063000Y-114781373D01*
X96317000Y-114781373D01*
X96317000Y-116203000D01*
X97421000Y-116203000D01*
X97421000Y-115849528D01*
X97499000Y-115849528D01*
X97499000Y-116810471D01*
X97516812Y-116991317D01*
X97587202Y-117223362D01*
X97701509Y-117437215D01*
X97855340Y-117624660D01*
X98042784Y-117778491D01*
X98256637Y-117892798D01*
X98488682Y-117963188D01*
X98730000Y-117986956D01*
X98971317Y-117963188D01*
X99203362Y-117892798D01*
X99417215Y-117778491D01*
X99604660Y-117624660D01*
X99758491Y-117437216D01*
X99872798Y-117223363D01*
X99943188Y-116991318D01*
X99961000Y-116810472D01*
X99961000Y-115849529D01*
X99961000Y-115849528D01*
X100039000Y-115849528D01*
X100039000Y-116810471D01*
X100056812Y-116991317D01*
X100127202Y-117223362D01*
X100241509Y-117437215D01*
X100395340Y-117624660D01*
X100582784Y-117778491D01*
X100796637Y-117892798D01*
X101028682Y-117963188D01*
X101270000Y-117986956D01*
X101511317Y-117963188D01*
X101743362Y-117892798D01*
X101957215Y-117778491D01*
X102144660Y-117624660D01*
X102298491Y-117437216D01*
X102412798Y-117223363D01*
X102483188Y-116991318D01*
X102501000Y-116810472D01*
X102501000Y-115849529D01*
X102501000Y-115849528D01*
X102579000Y-115849528D01*
X102579000Y-116810471D01*
X102596812Y-116991317D01*
X102667202Y-117223362D01*
X102781509Y-117437215D01*
X102935340Y-117624660D01*
X103122784Y-117778491D01*
X103336637Y-117892798D01*
X103568682Y-117963188D01*
X103810000Y-117986956D01*
X104051317Y-117963188D01*
X104283362Y-117892798D01*
X104497215Y-117778491D01*
X104684660Y-117624660D01*
X104838491Y-117437216D01*
X104952798Y-117223363D01*
X105023188Y-116991318D01*
X105041000Y-116810472D01*
X105041000Y-115849529D01*
X105041000Y-115849528D01*
X105119000Y-115849528D01*
X105119000Y-116810471D01*
X105136812Y-116991317D01*
X105207202Y-117223362D01*
X105321509Y-117437215D01*
X105475340Y-117624660D01*
X105662784Y-117778491D01*
X105876637Y-117892798D01*
X106108682Y-117963188D01*
X106350000Y-117986956D01*
X106591317Y-117963188D01*
X106823362Y-117892798D01*
X107037215Y-117778491D01*
X107224660Y-117624660D01*
X107378491Y-117437216D01*
X107492798Y-117223363D01*
X107563188Y-116991318D01*
X107581000Y-116810472D01*
X107581000Y-115849529D01*
X107563188Y-115668682D01*
X107492798Y-115436637D01*
X107378491Y-115222784D01*
X107224660Y-115035340D01*
X107037216Y-114881509D01*
X106823363Y-114767202D01*
X106591318Y-114696812D01*
X106350000Y-114673044D01*
X106108683Y-114696812D01*
X105876638Y-114767202D01*
X105662785Y-114881509D01*
X105475341Y-115035340D01*
X105321510Y-115222784D01*
X105207202Y-115436637D01*
X105136812Y-115668682D01*
X105119000Y-115849528D01*
X105041000Y-115849528D01*
X105023188Y-115668682D01*
X104952798Y-115436637D01*
X104838491Y-115222784D01*
X104684660Y-115035340D01*
X104497216Y-114881509D01*
X104283363Y-114767202D01*
X104051318Y-114696812D01*
X103810000Y-114673044D01*
X103568683Y-114696812D01*
X103336638Y-114767202D01*
X103122785Y-114881509D01*
X102935341Y-115035340D01*
X102781510Y-115222784D01*
X102667202Y-115436637D01*
X102596812Y-115668682D01*
X102579000Y-115849528D01*
X102501000Y-115849528D01*
X102483188Y-115668682D01*
X102412798Y-115436637D01*
X102298491Y-115222784D01*
X102144660Y-115035340D01*
X101957216Y-114881509D01*
X101743363Y-114767202D01*
X101511318Y-114696812D01*
X101270000Y-114673044D01*
X101028683Y-114696812D01*
X100796638Y-114767202D01*
X100582785Y-114881509D01*
X100395341Y-115035340D01*
X100241510Y-115222784D01*
X100127202Y-115436637D01*
X100056812Y-115668682D01*
X100039000Y-115849528D01*
X99961000Y-115849528D01*
X99943188Y-115668682D01*
X99872798Y-115436637D01*
X99758491Y-115222784D01*
X99604660Y-115035340D01*
X99417216Y-114881509D01*
X99203363Y-114767202D01*
X98971318Y-114696812D01*
X98730000Y-114673044D01*
X98488683Y-114696812D01*
X98256638Y-114767202D01*
X98042785Y-114881509D01*
X97855341Y-115035340D01*
X97701510Y-115222784D01*
X97587202Y-115436637D01*
X97516812Y-115668682D01*
X97499000Y-115849528D01*
X97421000Y-115849528D01*
X97421000Y-115783000D01*
X97372570Y-115545284D01*
X97278695Y-115321584D01*
X97142982Y-115120496D01*
X96970646Y-114949749D01*
X96768310Y-114815903D01*
X96543750Y-114724103D01*
X96506980Y-114720511D01*
X96317000Y-114781373D01*
X96063000Y-114781373D01*
X95873020Y-114720511D01*
X95836250Y-114724103D01*
X95611690Y-114815903D01*
X95409354Y-114949749D01*
X95237018Y-115120496D01*
X95101305Y-115321584D01*
X95007430Y-115545284D01*
X94959000Y-115783000D01*
X94874448Y-115783000D01*
X94863188Y-115668682D01*
X94792798Y-115436637D01*
X94678491Y-115222784D01*
X94524660Y-115035340D01*
X94337216Y-114881509D01*
X94123363Y-114767202D01*
X93891318Y-114696812D01*
X93650000Y-114673044D01*
X93408683Y-114696812D01*
X93176638Y-114767202D01*
X92962785Y-114881509D01*
X92775341Y-115035340D01*
X92621510Y-115222784D01*
X92507202Y-115436637D01*
X92436812Y-115668682D01*
X92419000Y-115849528D01*
X88417047Y-115849528D01*
X88443301Y-115786147D01*
X88481000Y-115596620D01*
X88481000Y-115403380D01*
X88443301Y-115213853D01*
X88369351Y-115035322D01*
X88261993Y-114874649D01*
X88125351Y-114738007D01*
X87964678Y-114630649D01*
X87786147Y-114556699D01*
X87596620Y-114519000D01*
X87403380Y-114519000D01*
X87213853Y-114556699D01*
X87035322Y-114630649D01*
X86964867Y-114677725D01*
X86981000Y-114596620D01*
X86981000Y-114403380D01*
X86964867Y-114322275D01*
X87035322Y-114369351D01*
X87213853Y-114443301D01*
X87403380Y-114481000D01*
X87596620Y-114481000D01*
X87786147Y-114443301D01*
X87964678Y-114369351D01*
X88033930Y-114323078D01*
X107399000Y-114323078D01*
X107399000Y-114476922D01*
X107429013Y-114627809D01*
X107487887Y-114769942D01*
X107573358Y-114897859D01*
X107682141Y-115006642D01*
X107810058Y-115092113D01*
X107952191Y-115150987D01*
X108103078Y-115181000D01*
X108256922Y-115181000D01*
X108407809Y-115150987D01*
X108549942Y-115092113D01*
X108677859Y-115006642D01*
X108786642Y-114897859D01*
X108872113Y-114769942D01*
X108930987Y-114627809D01*
X108961000Y-114476922D01*
X108961000Y-114323078D01*
X108930987Y-114172191D01*
X108872113Y-114030058D01*
X108786642Y-113902141D01*
X108677859Y-113793358D01*
X108549942Y-113707887D01*
X108407809Y-113649013D01*
X108256922Y-113619000D01*
X108103078Y-113619000D01*
X107952191Y-113649013D01*
X107810058Y-113707887D01*
X107682141Y-113793358D01*
X107573358Y-113902141D01*
X107487887Y-114030058D01*
X107429013Y-114172191D01*
X107399000Y-114323078D01*
X88033930Y-114323078D01*
X88125351Y-114261993D01*
X88261993Y-114125351D01*
X88369351Y-113964678D01*
X88443301Y-113786147D01*
X88481000Y-113596620D01*
X88481000Y-113588525D01*
X111518235Y-113588525D01*
X111554370Y-113778356D01*
X111626845Y-113957491D01*
X111634511Y-113971834D01*
X111786958Y-114033437D01*
X112320395Y-113500000D01*
X111786958Y-112966563D01*
X111634511Y-113028166D01*
X111559091Y-113206081D01*
X111519829Y-113395291D01*
X111518235Y-113588525D01*
X88481000Y-113588525D01*
X88481000Y-113403380D01*
X88443301Y-113213853D01*
X88369351Y-113035322D01*
X88261993Y-112874649D01*
X88125351Y-112738007D01*
X87964678Y-112630649D01*
X87786147Y-112556699D01*
X87596620Y-112519000D01*
X87403380Y-112519000D01*
X87213853Y-112556699D01*
X87035322Y-112630649D01*
X86964867Y-112677725D01*
X86981000Y-112596620D01*
X86981000Y-112403380D01*
X86964867Y-112322275D01*
X87035322Y-112369351D01*
X87213853Y-112443301D01*
X87403380Y-112481000D01*
X87596620Y-112481000D01*
X87786147Y-112443301D01*
X87964678Y-112369351D01*
X88125351Y-112261993D01*
X88261993Y-112125351D01*
X88369351Y-111964678D01*
X88443301Y-111786147D01*
X88481000Y-111596620D01*
X88481000Y-111403380D01*
X88443301Y-111213853D01*
X88439085Y-111203674D01*
X89554326Y-110088434D01*
X89554331Y-110088428D01*
X95005593Y-104637167D01*
X95022935Y-104622935D01*
X95043514Y-104597859D01*
X95079732Y-104553728D01*
X95121935Y-104474771D01*
X95127250Y-104457249D01*
X95147924Y-104389098D01*
X95154500Y-104322328D01*
X95154500Y-104322325D01*
X95156699Y-104300000D01*
X95154500Y-104277675D01*
X95154500Y-104099015D01*
X95170711Y-104085711D01*
X95218322Y-104027696D01*
X95250000Y-103968432D01*
X95281678Y-104027696D01*
X95295501Y-104044539D01*
X95295501Y-104155166D01*
X95293301Y-104177501D01*
X95298226Y-104227501D01*
X95302077Y-104266599D01*
X95320645Y-104327809D01*
X95328066Y-104352272D01*
X95345500Y-104384889D01*
X95345501Y-106060509D01*
X95343301Y-106082844D01*
X95350171Y-106152586D01*
X95352077Y-106171942D01*
X95372750Y-106240091D01*
X95378066Y-106257615D01*
X95420269Y-106336572D01*
X95457004Y-106381333D01*
X95477066Y-106405779D01*
X95494408Y-106420011D01*
X100079987Y-111005591D01*
X100094221Y-111022935D01*
X100111563Y-111037167D01*
X100111564Y-111037168D01*
X100163427Y-111079732D01*
X100242384Y-111121935D01*
X100262324Y-111127984D01*
X100328058Y-111147924D01*
X100394828Y-111154500D01*
X100394831Y-111154500D01*
X100417156Y-111156699D01*
X100439481Y-111154500D01*
X111511741Y-111154500D01*
X111560915Y-111203674D01*
X111556699Y-111213853D01*
X111519000Y-111403380D01*
X111519000Y-111596620D01*
X111556699Y-111786147D01*
X111630649Y-111964678D01*
X111738007Y-112125351D01*
X111874649Y-112261993D01*
X112035322Y-112369351D01*
X112213853Y-112443301D01*
X112403380Y-112481000D01*
X112596620Y-112481000D01*
X112786147Y-112443301D01*
X112964678Y-112369351D01*
X113035133Y-112322275D01*
X113019000Y-112403380D01*
X113019000Y-112596620D01*
X113052974Y-112767419D01*
X113033436Y-112786956D01*
X112971834Y-112634511D01*
X112793919Y-112559091D01*
X112604709Y-112519829D01*
X112411475Y-112518235D01*
X112221644Y-112554370D01*
X112042509Y-112626845D01*
X112028166Y-112634511D01*
X111966563Y-112786958D01*
X112500000Y-113320395D01*
X112514143Y-113306253D01*
X112693748Y-113485858D01*
X112679605Y-113500000D01*
X112693748Y-113514143D01*
X112514143Y-113693748D01*
X112500000Y-113679605D01*
X111966563Y-114213042D01*
X112028166Y-114365489D01*
X112206081Y-114440909D01*
X112395291Y-114480171D01*
X112588525Y-114481765D01*
X112778356Y-114445630D01*
X112957491Y-114373155D01*
X112971834Y-114365489D01*
X113033436Y-114213044D01*
X113052974Y-114232581D01*
X113019000Y-114403380D01*
X113019000Y-114596620D01*
X113035133Y-114677725D01*
X112964678Y-114630649D01*
X112786147Y-114556699D01*
X112596620Y-114519000D01*
X112403380Y-114519000D01*
X112213853Y-114556699D01*
X112035322Y-114630649D01*
X111874649Y-114738007D01*
X111738007Y-114874649D01*
X111630649Y-115035322D01*
X111556699Y-115213853D01*
X111519000Y-115403380D01*
X111519000Y-115596620D01*
X111556699Y-115786147D01*
X111630649Y-115964678D01*
X111738007Y-116125351D01*
X111874649Y-116261993D01*
X112035322Y-116369351D01*
X112213853Y-116443301D01*
X112403380Y-116481000D01*
X112596620Y-116481000D01*
X112687267Y-116462969D01*
X112678575Y-116491622D01*
X112674356Y-116534462D01*
X112596620Y-116519000D01*
X112403380Y-116519000D01*
X112213853Y-116556699D01*
X112035322Y-116630649D01*
X111874649Y-116738007D01*
X111738007Y-116874649D01*
X111630649Y-117035322D01*
X111556699Y-117213853D01*
X111519000Y-117403380D01*
X111519000Y-117596620D01*
X111556699Y-117786147D01*
X111630649Y-117964678D01*
X111738007Y-118125351D01*
X111874649Y-118261993D01*
X112035322Y-118369351D01*
X112213853Y-118443301D01*
X112403380Y-118481000D01*
X112596620Y-118481000D01*
X112786147Y-118443301D01*
X112964678Y-118369351D01*
X113125351Y-118261993D01*
X113261993Y-118125351D01*
X113369351Y-117964678D01*
X113436255Y-117803157D01*
X113535322Y-117869351D01*
X113713853Y-117943301D01*
X113903380Y-117981000D01*
X114096620Y-117981000D01*
X114286147Y-117943301D01*
X114464678Y-117869351D01*
X114625351Y-117761993D01*
X114761993Y-117625351D01*
X114869351Y-117464678D01*
X114943301Y-117286147D01*
X114969506Y-117154407D01*
X114970454Y-117154500D01*
X114970457Y-117154500D01*
X114992782Y-117156699D01*
X115015107Y-117154500D01*
X121560519Y-117154500D01*
X121582844Y-117156699D01*
X121605169Y-117154500D01*
X121605172Y-117154500D01*
X121671942Y-117147924D01*
X121757615Y-117121935D01*
X121836572Y-117079731D01*
X121905779Y-117022935D01*
X121920016Y-117005587D01*
X123505593Y-115420011D01*
X123522935Y-115405779D01*
X123549134Y-115373855D01*
X123579731Y-115336573D01*
X123608645Y-115282478D01*
X123621935Y-115257615D01*
X123647924Y-115171942D01*
X123654500Y-115105172D01*
X123654500Y-115105169D01*
X123656699Y-115082844D01*
X123654500Y-115060519D01*
X123654500Y-98939470D01*
X123656698Y-98917155D01*
X123654500Y-98894840D01*
X123654500Y-98894828D01*
X123647924Y-98828058D01*
X123621935Y-98742385D01*
X123599316Y-98700068D01*
X123579731Y-98663427D01*
X123537168Y-98611563D01*
X123537163Y-98611558D01*
X123522935Y-98594221D01*
X123505599Y-98579994D01*
X118420016Y-93494413D01*
X118405779Y-93477065D01*
X118336572Y-93420269D01*
X118309877Y-93406000D01*
X121980146Y-93406000D01*
X122503463Y-93457312D01*
%TA.AperFunction,Conductor*%
D23*
G36*
X122503463Y-93457312D02*
G01*
X122987756Y-93603529D01*
X123434422Y-93841025D01*
X123826450Y-94160755D01*
X124148907Y-94550539D01*
X124389518Y-94995540D01*
X124539111Y-95478796D01*
X124594000Y-96001029D01*
X124594001Y-121980136D01*
X124542688Y-122503464D01*
X124396472Y-122987756D01*
X124158975Y-123434422D01*
X123839245Y-123826450D01*
X123449458Y-124148910D01*
X123004460Y-124389518D01*
X122521205Y-124539111D01*
X121998971Y-124594000D01*
X79019854Y-124594000D01*
X78302304Y-124523644D01*
X77631172Y-124321017D01*
X77012186Y-123991896D01*
X76468916Y-123548815D01*
X76022054Y-123008652D01*
X75688619Y-122391977D01*
X75481314Y-121722284D01*
X75406024Y-121005947D01*
X75406000Y-120999166D01*
X75406000Y-119884738D01*
X82119000Y-119884738D01*
X82119000Y-120255262D01*
X82191286Y-120618667D01*
X82333080Y-120960987D01*
X82538932Y-121269067D01*
X82800933Y-121531068D01*
X83109013Y-121736920D01*
X83451333Y-121878714D01*
X83814738Y-121951000D01*
X84185262Y-121951000D01*
X84548667Y-121878714D01*
X84890987Y-121736920D01*
X85199067Y-121531068D01*
X85461068Y-121269067D01*
X85666920Y-120960987D01*
X85808714Y-120618667D01*
X85881000Y-120255262D01*
X85881000Y-119884738D01*
X85808714Y-119521333D01*
X85671276Y-119189528D01*
X92419000Y-119189528D01*
X92419000Y-120150471D01*
X92436812Y-120331317D01*
X92507202Y-120563362D01*
X92621509Y-120777215D01*
X92775340Y-120964660D01*
X92962784Y-121118491D01*
X93176637Y-121232798D01*
X93408682Y-121303188D01*
X93650000Y-121326956D01*
X93891317Y-121303188D01*
X94123362Y-121232798D01*
X94337215Y-121118491D01*
X94524660Y-120964660D01*
X94678491Y-120777216D01*
X94792798Y-120563363D01*
X94863188Y-120331318D01*
X94881000Y-120150472D01*
X94881000Y-119797000D01*
X94959000Y-119797000D01*
X94959000Y-120217000D01*
X95007430Y-120454716D01*
X95101305Y-120678416D01*
X95237018Y-120879504D01*
X95409354Y-121050251D01*
X95611690Y-121184097D01*
X95836250Y-121275897D01*
X95873020Y-121279489D01*
X96063000Y-121218627D01*
X96063000Y-119797000D01*
X96317000Y-119797000D01*
X96317000Y-121218627D01*
X96506980Y-121279489D01*
X96543750Y-121275897D01*
X96768310Y-121184097D01*
X96970646Y-121050251D01*
X97142982Y-120879504D01*
X97278695Y-120678416D01*
X97372570Y-120454716D01*
X97421000Y-120217000D01*
X97421000Y-119797000D01*
X96317000Y-119797000D01*
X96063000Y-119797000D01*
X94959000Y-119797000D01*
X94881000Y-119797000D01*
X94881000Y-119189529D01*
X94874448Y-119123000D01*
X94959000Y-119123000D01*
X94959000Y-119543000D01*
X96063000Y-119543000D01*
X96063000Y-118121373D01*
X96317000Y-118121373D01*
X96317000Y-119543000D01*
X97421000Y-119543000D01*
X97421000Y-119189528D01*
X97499000Y-119189528D01*
X97499000Y-120150471D01*
X97516812Y-120331317D01*
X97587202Y-120563362D01*
X97701509Y-120777215D01*
X97855340Y-120964660D01*
X98042784Y-121118491D01*
X98256637Y-121232798D01*
X98488682Y-121303188D01*
X98730000Y-121326956D01*
X98971317Y-121303188D01*
X99203362Y-121232798D01*
X99417215Y-121118491D01*
X99604660Y-120964660D01*
X99758491Y-120777216D01*
X99872798Y-120563363D01*
X99943188Y-120331318D01*
X99961000Y-120150472D01*
X99961000Y-119189529D01*
X99961000Y-119189528D01*
X100039000Y-119189528D01*
X100039000Y-120150471D01*
X100056812Y-120331317D01*
X100127202Y-120563362D01*
X100241509Y-120777215D01*
X100395340Y-120964660D01*
X100582784Y-121118491D01*
X100796637Y-121232798D01*
X101028682Y-121303188D01*
X101270000Y-121326956D01*
X101511317Y-121303188D01*
X101743362Y-121232798D01*
X101957215Y-121118491D01*
X102144660Y-120964660D01*
X102298491Y-120777216D01*
X102412798Y-120563363D01*
X102483188Y-120331318D01*
X102501000Y-120150472D01*
X102501000Y-119189529D01*
X102501000Y-119189528D01*
X102579000Y-119189528D01*
X102579000Y-120150471D01*
X102596812Y-120331317D01*
X102667202Y-120563362D01*
X102781509Y-120777215D01*
X102935340Y-120964660D01*
X103122784Y-121118491D01*
X103336637Y-121232798D01*
X103568682Y-121303188D01*
X103810000Y-121326956D01*
X104051317Y-121303188D01*
X104283362Y-121232798D01*
X104497215Y-121118491D01*
X104684660Y-120964660D01*
X104838491Y-120777216D01*
X104952798Y-120563363D01*
X105023188Y-120331318D01*
X105041000Y-120150472D01*
X105041000Y-119189529D01*
X105041000Y-119189528D01*
X105119000Y-119189528D01*
X105119000Y-120150471D01*
X105136812Y-120331317D01*
X105207202Y-120563362D01*
X105321509Y-120777215D01*
X105475340Y-120964660D01*
X105662784Y-121118491D01*
X105876637Y-121232798D01*
X106108682Y-121303188D01*
X106350000Y-121326956D01*
X106591317Y-121303188D01*
X106823362Y-121232798D01*
X107037215Y-121118491D01*
X107224660Y-120964660D01*
X107378491Y-120777216D01*
X107492798Y-120563363D01*
X107563188Y-120331318D01*
X107581000Y-120150472D01*
X107581000Y-119884738D01*
X114119000Y-119884738D01*
X114119000Y-120255262D01*
X114191286Y-120618667D01*
X114333080Y-120960987D01*
X114538932Y-121269067D01*
X114800933Y-121531068D01*
X115109013Y-121736920D01*
X115451333Y-121878714D01*
X115814738Y-121951000D01*
X116185262Y-121951000D01*
X116548667Y-121878714D01*
X116890987Y-121736920D01*
X117199067Y-121531068D01*
X117461068Y-121269067D01*
X117666920Y-120960987D01*
X117808714Y-120618667D01*
X117881000Y-120255262D01*
X117881000Y-119884738D01*
X117808714Y-119521333D01*
X117666920Y-119179013D01*
X117461068Y-118870933D01*
X117199067Y-118608932D01*
X116890987Y-118403080D01*
X116548667Y-118261286D01*
X116185262Y-118189000D01*
X115814738Y-118189000D01*
X115451333Y-118261286D01*
X115109013Y-118403080D01*
X114800933Y-118608932D01*
X114538932Y-118870933D01*
X114333080Y-119179013D01*
X114191286Y-119521333D01*
X114119000Y-119884738D01*
X107581000Y-119884738D01*
X107581000Y-119189529D01*
X107563188Y-119008682D01*
X107492798Y-118776637D01*
X107378491Y-118562784D01*
X107224660Y-118375340D01*
X107037216Y-118221509D01*
X106823363Y-118107202D01*
X106591318Y-118036812D01*
X106350000Y-118013044D01*
X106108683Y-118036812D01*
X105876638Y-118107202D01*
X105662785Y-118221509D01*
X105475341Y-118375340D01*
X105321510Y-118562784D01*
X105207202Y-118776637D01*
X105136812Y-119008682D01*
X105119000Y-119189528D01*
X105041000Y-119189528D01*
X105023188Y-119008682D01*
X104952798Y-118776637D01*
X104838491Y-118562784D01*
X104684660Y-118375340D01*
X104497216Y-118221509D01*
X104283363Y-118107202D01*
X104051318Y-118036812D01*
X103810000Y-118013044D01*
X103568683Y-118036812D01*
X103336638Y-118107202D01*
X103122785Y-118221509D01*
X102935341Y-118375340D01*
X102781510Y-118562784D01*
X102667202Y-118776637D01*
X102596812Y-119008682D01*
X102579000Y-119189528D01*
X102501000Y-119189528D01*
X102483188Y-119008682D01*
X102412798Y-118776637D01*
X102298491Y-118562784D01*
X102144660Y-118375340D01*
X101957216Y-118221509D01*
X101743363Y-118107202D01*
X101511318Y-118036812D01*
X101270000Y-118013044D01*
X101028683Y-118036812D01*
X100796638Y-118107202D01*
X100582785Y-118221509D01*
X100395341Y-118375340D01*
X100241510Y-118562784D01*
X100127202Y-118776637D01*
X100056812Y-119008682D01*
X100039000Y-119189528D01*
X99961000Y-119189528D01*
X99943188Y-119008682D01*
X99872798Y-118776637D01*
X99758491Y-118562784D01*
X99604660Y-118375340D01*
X99417216Y-118221509D01*
X99203363Y-118107202D01*
X98971318Y-118036812D01*
X98730000Y-118013044D01*
X98488683Y-118036812D01*
X98256638Y-118107202D01*
X98042785Y-118221509D01*
X97855341Y-118375340D01*
X97701510Y-118562784D01*
X97587202Y-118776637D01*
X97516812Y-119008682D01*
X97499000Y-119189528D01*
X97421000Y-119189528D01*
X97421000Y-119123000D01*
X97372570Y-118885284D01*
X97278695Y-118661584D01*
X97142982Y-118460496D01*
X96970646Y-118289749D01*
X96768310Y-118155903D01*
X96543750Y-118064103D01*
X96506980Y-118060511D01*
X96317000Y-118121373D01*
X96063000Y-118121373D01*
X95873020Y-118060511D01*
X95836250Y-118064103D01*
X95611690Y-118155903D01*
X95409354Y-118289749D01*
X95237018Y-118460496D01*
X95101305Y-118661584D01*
X95007430Y-118885284D01*
X94959000Y-119123000D01*
X94874448Y-119123000D01*
X94863188Y-119008682D01*
X94792798Y-118776637D01*
X94678491Y-118562784D01*
X94524660Y-118375340D01*
X94337216Y-118221509D01*
X94123363Y-118107202D01*
X93891318Y-118036812D01*
X93650000Y-118013044D01*
X93408683Y-118036812D01*
X93176638Y-118107202D01*
X92962785Y-118221509D01*
X92775341Y-118375340D01*
X92621510Y-118562784D01*
X92507202Y-118776637D01*
X92436812Y-119008682D01*
X92419000Y-119189528D01*
X85671276Y-119189528D01*
X85666920Y-119179013D01*
X85461068Y-118870933D01*
X85199067Y-118608932D01*
X84890987Y-118403080D01*
X84548667Y-118261286D01*
X84185262Y-118189000D01*
X83814738Y-118189000D01*
X83451333Y-118261286D01*
X83109013Y-118403080D01*
X82800933Y-118608932D01*
X82538932Y-118870933D01*
X82333080Y-119179013D01*
X82191286Y-119521333D01*
X82119000Y-119884738D01*
X75406000Y-119884738D01*
X75406000Y-114309876D01*
X75420269Y-114336572D01*
X75462832Y-114388435D01*
X75477066Y-114405779D01*
X75494408Y-114420011D01*
X78079989Y-117005593D01*
X78094221Y-117022935D01*
X78111563Y-117037167D01*
X78111564Y-117037168D01*
X78163428Y-117079732D01*
X78228879Y-117114716D01*
X78242385Y-117121935D01*
X78328058Y-117147924D01*
X78394828Y-117154500D01*
X78394831Y-117154500D01*
X78417156Y-117156699D01*
X78439481Y-117154500D01*
X84984893Y-117154500D01*
X85007218Y-117156699D01*
X85029543Y-117154500D01*
X85029546Y-117154500D01*
X85030771Y-117154379D01*
X85054370Y-117278356D01*
X85126845Y-117457491D01*
X85134511Y-117471834D01*
X85286958Y-117533437D01*
X85820395Y-117000000D01*
X85806253Y-116985858D01*
X85985858Y-116806253D01*
X86000000Y-116820395D01*
X86014143Y-116806253D01*
X86193748Y-116985858D01*
X86179605Y-117000000D01*
X86193748Y-117014143D01*
X86014143Y-117193748D01*
X86000000Y-117179605D01*
X85466563Y-117713042D01*
X85528166Y-117865489D01*
X85706081Y-117940909D01*
X85895291Y-117980171D01*
X86088525Y-117981765D01*
X86278356Y-117945630D01*
X86457491Y-117873155D01*
X86471834Y-117865489D01*
X86533436Y-117713044D01*
X86544323Y-117723931D01*
X86556699Y-117786147D01*
X86630649Y-117964678D01*
X86738007Y-118125351D01*
X86874649Y-118261993D01*
X87035322Y-118369351D01*
X87213853Y-118443301D01*
X87403380Y-118481000D01*
X87596620Y-118481000D01*
X87786147Y-118443301D01*
X87964678Y-118369351D01*
X88125351Y-118261993D01*
X88261993Y-118125351D01*
X88369351Y-117964678D01*
X88443301Y-117786147D01*
X88481000Y-117596620D01*
X88481000Y-117403380D01*
X88443301Y-117213853D01*
X88369351Y-117035322D01*
X88261993Y-116874649D01*
X88125351Y-116738007D01*
X87964678Y-116630649D01*
X87786147Y-116556699D01*
X87596620Y-116519000D01*
X87403380Y-116519000D01*
X87325644Y-116534462D01*
X87321425Y-116491621D01*
X87312734Y-116462969D01*
X87403380Y-116481000D01*
X87596620Y-116481000D01*
X87786147Y-116443301D01*
X87964678Y-116369351D01*
X88125351Y-116261993D01*
X88261993Y-116125351D01*
X88369351Y-115964678D01*
X88417047Y-115849528D01*
X92419000Y-115849528D01*
X92419000Y-116810471D01*
X92436812Y-116991317D01*
X92507202Y-117223362D01*
X92621509Y-117437215D01*
X92775340Y-117624660D01*
X92962784Y-117778491D01*
X93176637Y-117892798D01*
X93408682Y-117963188D01*
X93650000Y-117986956D01*
X93891317Y-117963188D01*
X94123362Y-117892798D01*
X94337215Y-117778491D01*
X94524660Y-117624660D01*
X94678491Y-117437216D01*
X94792798Y-117223363D01*
X94863188Y-116991318D01*
X94881000Y-116810472D01*
X94881000Y-116457000D01*
X94959000Y-116457000D01*
X94959000Y-116877000D01*
X95007430Y-117114716D01*
X95101305Y-117338416D01*
X95237018Y-117539504D01*
X95409354Y-117710251D01*
X95611690Y-117844097D01*
X95836250Y-117935897D01*
X95873020Y-117939489D01*
X96063000Y-117878627D01*
X96063000Y-116457000D01*
X96317000Y-116457000D01*
X96317000Y-117878627D01*
X96506980Y-117939489D01*
X96543750Y-117935897D01*
X96768310Y-117844097D01*
X96970646Y-117710251D01*
X97142982Y-117539504D01*
X97278695Y-117338416D01*
X97372570Y-117114716D01*
X97421000Y-116877000D01*
X97421000Y-116457000D01*
X96317000Y-116457000D01*
X96063000Y-116457000D01*
X94959000Y-116457000D01*
X94881000Y-116457000D01*
X94881000Y-115849529D01*
X94874448Y-115783000D01*
X94959000Y-115783000D01*
X94959000Y-116203000D01*
X96063000Y-116203000D01*
X96063000Y-114781373D01*
X96317000Y-114781373D01*
X96317000Y-116203000D01*
X97421000Y-116203000D01*
X97421000Y-115849528D01*
X97499000Y-115849528D01*
X97499000Y-116810471D01*
X97516812Y-116991317D01*
X97587202Y-117223362D01*
X97701509Y-117437215D01*
X97855340Y-117624660D01*
X98042784Y-117778491D01*
X98256637Y-117892798D01*
X98488682Y-117963188D01*
X98730000Y-117986956D01*
X98971317Y-117963188D01*
X99203362Y-117892798D01*
X99417215Y-117778491D01*
X99604660Y-117624660D01*
X99758491Y-117437216D01*
X99872798Y-117223363D01*
X99943188Y-116991318D01*
X99961000Y-116810472D01*
X99961000Y-115849529D01*
X99961000Y-115849528D01*
X100039000Y-115849528D01*
X100039000Y-116810471D01*
X100056812Y-116991317D01*
X100127202Y-117223362D01*
X100241509Y-117437215D01*
X100395340Y-117624660D01*
X100582784Y-117778491D01*
X100796637Y-117892798D01*
X101028682Y-117963188D01*
X101270000Y-117986956D01*
X101511317Y-117963188D01*
X101743362Y-117892798D01*
X101957215Y-117778491D01*
X102144660Y-117624660D01*
X102298491Y-117437216D01*
X102412798Y-117223363D01*
X102483188Y-116991318D01*
X102501000Y-116810472D01*
X102501000Y-115849529D01*
X102501000Y-115849528D01*
X102579000Y-115849528D01*
X102579000Y-116810471D01*
X102596812Y-116991317D01*
X102667202Y-117223362D01*
X102781509Y-117437215D01*
X102935340Y-117624660D01*
X103122784Y-117778491D01*
X103336637Y-117892798D01*
X103568682Y-117963188D01*
X103810000Y-117986956D01*
X104051317Y-117963188D01*
X104283362Y-117892798D01*
X104497215Y-117778491D01*
X104684660Y-117624660D01*
X104838491Y-117437216D01*
X104952798Y-117223363D01*
X105023188Y-116991318D01*
X105041000Y-116810472D01*
X105041000Y-115849529D01*
X105041000Y-115849528D01*
X105119000Y-115849528D01*
X105119000Y-116810471D01*
X105136812Y-116991317D01*
X105207202Y-117223362D01*
X105321509Y-117437215D01*
X105475340Y-117624660D01*
X105662784Y-117778491D01*
X105876637Y-117892798D01*
X106108682Y-117963188D01*
X106350000Y-117986956D01*
X106591317Y-117963188D01*
X106823362Y-117892798D01*
X107037215Y-117778491D01*
X107224660Y-117624660D01*
X107378491Y-117437216D01*
X107492798Y-117223363D01*
X107563188Y-116991318D01*
X107581000Y-116810472D01*
X107581000Y-115849529D01*
X107563188Y-115668682D01*
X107492798Y-115436637D01*
X107378491Y-115222784D01*
X107224660Y-115035340D01*
X107037216Y-114881509D01*
X106823363Y-114767202D01*
X106591318Y-114696812D01*
X106350000Y-114673044D01*
X106108683Y-114696812D01*
X105876638Y-114767202D01*
X105662785Y-114881509D01*
X105475341Y-115035340D01*
X105321510Y-115222784D01*
X105207202Y-115436637D01*
X105136812Y-115668682D01*
X105119000Y-115849528D01*
X105041000Y-115849528D01*
X105023188Y-115668682D01*
X104952798Y-115436637D01*
X104838491Y-115222784D01*
X104684660Y-115035340D01*
X104497216Y-114881509D01*
X104283363Y-114767202D01*
X104051318Y-114696812D01*
X103810000Y-114673044D01*
X103568683Y-114696812D01*
X103336638Y-114767202D01*
X103122785Y-114881509D01*
X102935341Y-115035340D01*
X102781510Y-115222784D01*
X102667202Y-115436637D01*
X102596812Y-115668682D01*
X102579000Y-115849528D01*
X102501000Y-115849528D01*
X102483188Y-115668682D01*
X102412798Y-115436637D01*
X102298491Y-115222784D01*
X102144660Y-115035340D01*
X101957216Y-114881509D01*
X101743363Y-114767202D01*
X101511318Y-114696812D01*
X101270000Y-114673044D01*
X101028683Y-114696812D01*
X100796638Y-114767202D01*
X100582785Y-114881509D01*
X100395341Y-115035340D01*
X100241510Y-115222784D01*
X100127202Y-115436637D01*
X100056812Y-115668682D01*
X100039000Y-115849528D01*
X99961000Y-115849528D01*
X99943188Y-115668682D01*
X99872798Y-115436637D01*
X99758491Y-115222784D01*
X99604660Y-115035340D01*
X99417216Y-114881509D01*
X99203363Y-114767202D01*
X98971318Y-114696812D01*
X98730000Y-114673044D01*
X98488683Y-114696812D01*
X98256638Y-114767202D01*
X98042785Y-114881509D01*
X97855341Y-115035340D01*
X97701510Y-115222784D01*
X97587202Y-115436637D01*
X97516812Y-115668682D01*
X97499000Y-115849528D01*
X97421000Y-115849528D01*
X97421000Y-115783000D01*
X97372570Y-115545284D01*
X97278695Y-115321584D01*
X97142982Y-115120496D01*
X96970646Y-114949749D01*
X96768310Y-114815903D01*
X96543750Y-114724103D01*
X96506980Y-114720511D01*
X96317000Y-114781373D01*
X96063000Y-114781373D01*
X95873020Y-114720511D01*
X95836250Y-114724103D01*
X95611690Y-114815903D01*
X95409354Y-114949749D01*
X95237018Y-115120496D01*
X95101305Y-115321584D01*
X95007430Y-115545284D01*
X94959000Y-115783000D01*
X94874448Y-115783000D01*
X94863188Y-115668682D01*
X94792798Y-115436637D01*
X94678491Y-115222784D01*
X94524660Y-115035340D01*
X94337216Y-114881509D01*
X94123363Y-114767202D01*
X93891318Y-114696812D01*
X93650000Y-114673044D01*
X93408683Y-114696812D01*
X93176638Y-114767202D01*
X92962785Y-114881509D01*
X92775341Y-115035340D01*
X92621510Y-115222784D01*
X92507202Y-115436637D01*
X92436812Y-115668682D01*
X92419000Y-115849528D01*
X88417047Y-115849528D01*
X88443301Y-115786147D01*
X88481000Y-115596620D01*
X88481000Y-115403380D01*
X88443301Y-115213853D01*
X88369351Y-115035322D01*
X88261993Y-114874649D01*
X88125351Y-114738007D01*
X87964678Y-114630649D01*
X87786147Y-114556699D01*
X87596620Y-114519000D01*
X87403380Y-114519000D01*
X87213853Y-114556699D01*
X87035322Y-114630649D01*
X86964867Y-114677725D01*
X86981000Y-114596620D01*
X86981000Y-114403380D01*
X86964867Y-114322275D01*
X87035322Y-114369351D01*
X87213853Y-114443301D01*
X87403380Y-114481000D01*
X87596620Y-114481000D01*
X87786147Y-114443301D01*
X87964678Y-114369351D01*
X88033930Y-114323078D01*
X107399000Y-114323078D01*
X107399000Y-114476922D01*
X107429013Y-114627809D01*
X107487887Y-114769942D01*
X107573358Y-114897859D01*
X107682141Y-115006642D01*
X107810058Y-115092113D01*
X107952191Y-115150987D01*
X108103078Y-115181000D01*
X108256922Y-115181000D01*
X108407809Y-115150987D01*
X108549942Y-115092113D01*
X108677859Y-115006642D01*
X108786642Y-114897859D01*
X108872113Y-114769942D01*
X108930987Y-114627809D01*
X108961000Y-114476922D01*
X108961000Y-114323078D01*
X108930987Y-114172191D01*
X108872113Y-114030058D01*
X108786642Y-113902141D01*
X108677859Y-113793358D01*
X108549942Y-113707887D01*
X108407809Y-113649013D01*
X108256922Y-113619000D01*
X108103078Y-113619000D01*
X107952191Y-113649013D01*
X107810058Y-113707887D01*
X107682141Y-113793358D01*
X107573358Y-113902141D01*
X107487887Y-114030058D01*
X107429013Y-114172191D01*
X107399000Y-114323078D01*
X88033930Y-114323078D01*
X88125351Y-114261993D01*
X88261993Y-114125351D01*
X88369351Y-113964678D01*
X88443301Y-113786147D01*
X88481000Y-113596620D01*
X88481000Y-113588525D01*
X111518235Y-113588525D01*
X111554370Y-113778356D01*
X111626845Y-113957491D01*
X111634511Y-113971834D01*
X111786958Y-114033437D01*
X112320395Y-113500000D01*
X111786958Y-112966563D01*
X111634511Y-113028166D01*
X111559091Y-113206081D01*
X111519829Y-113395291D01*
X111518235Y-113588525D01*
X88481000Y-113588525D01*
X88481000Y-113403380D01*
X88443301Y-113213853D01*
X88369351Y-113035322D01*
X88261993Y-112874649D01*
X88125351Y-112738007D01*
X87964678Y-112630649D01*
X87786147Y-112556699D01*
X87596620Y-112519000D01*
X87403380Y-112519000D01*
X87213853Y-112556699D01*
X87035322Y-112630649D01*
X86964867Y-112677725D01*
X86981000Y-112596620D01*
X86981000Y-112403380D01*
X86964867Y-112322275D01*
X87035322Y-112369351D01*
X87213853Y-112443301D01*
X87403380Y-112481000D01*
X87596620Y-112481000D01*
X87786147Y-112443301D01*
X87964678Y-112369351D01*
X88125351Y-112261993D01*
X88261993Y-112125351D01*
X88369351Y-111964678D01*
X88443301Y-111786147D01*
X88481000Y-111596620D01*
X88481000Y-111403380D01*
X88443301Y-111213853D01*
X88439085Y-111203674D01*
X89554326Y-110088434D01*
X89554331Y-110088428D01*
X95005593Y-104637167D01*
X95022935Y-104622935D01*
X95043514Y-104597859D01*
X95079732Y-104553728D01*
X95121935Y-104474771D01*
X95127250Y-104457249D01*
X95147924Y-104389098D01*
X95154500Y-104322328D01*
X95154500Y-104322325D01*
X95156699Y-104300000D01*
X95154500Y-104277675D01*
X95154500Y-104099015D01*
X95170711Y-104085711D01*
X95218322Y-104027696D01*
X95250000Y-103968432D01*
X95281678Y-104027696D01*
X95295501Y-104044539D01*
X95295501Y-104155166D01*
X95293301Y-104177501D01*
X95298226Y-104227501D01*
X95302077Y-104266599D01*
X95320645Y-104327809D01*
X95328066Y-104352272D01*
X95345500Y-104384889D01*
X95345501Y-106060509D01*
X95343301Y-106082844D01*
X95350171Y-106152586D01*
X95352077Y-106171942D01*
X95372750Y-106240091D01*
X95378066Y-106257615D01*
X95420269Y-106336572D01*
X95457004Y-106381333D01*
X95477066Y-106405779D01*
X95494408Y-106420011D01*
X100079987Y-111005591D01*
X100094221Y-111022935D01*
X100111563Y-111037167D01*
X100111564Y-111037168D01*
X100163427Y-111079732D01*
X100242384Y-111121935D01*
X100262324Y-111127984D01*
X100328058Y-111147924D01*
X100394828Y-111154500D01*
X100394831Y-111154500D01*
X100417156Y-111156699D01*
X100439481Y-111154500D01*
X111511741Y-111154500D01*
X111560915Y-111203674D01*
X111556699Y-111213853D01*
X111519000Y-111403380D01*
X111519000Y-111596620D01*
X111556699Y-111786147D01*
X111630649Y-111964678D01*
X111738007Y-112125351D01*
X111874649Y-112261993D01*
X112035322Y-112369351D01*
X112213853Y-112443301D01*
X112403380Y-112481000D01*
X112596620Y-112481000D01*
X112786147Y-112443301D01*
X112964678Y-112369351D01*
X113035133Y-112322275D01*
X113019000Y-112403380D01*
X113019000Y-112596620D01*
X113052974Y-112767419D01*
X113033436Y-112786956D01*
X112971834Y-112634511D01*
X112793919Y-112559091D01*
X112604709Y-112519829D01*
X112411475Y-112518235D01*
X112221644Y-112554370D01*
X112042509Y-112626845D01*
X112028166Y-112634511D01*
X111966563Y-112786958D01*
X112500000Y-113320395D01*
X112514143Y-113306253D01*
X112693748Y-113485858D01*
X112679605Y-113500000D01*
X112693748Y-113514143D01*
X112514143Y-113693748D01*
X112500000Y-113679605D01*
X111966563Y-114213042D01*
X112028166Y-114365489D01*
X112206081Y-114440909D01*
X112395291Y-114480171D01*
X112588525Y-114481765D01*
X112778356Y-114445630D01*
X112957491Y-114373155D01*
X112971834Y-114365489D01*
X113033436Y-114213044D01*
X113052974Y-114232581D01*
X113019000Y-114403380D01*
X113019000Y-114596620D01*
X113035133Y-114677725D01*
X112964678Y-114630649D01*
X112786147Y-114556699D01*
X112596620Y-114519000D01*
X112403380Y-114519000D01*
X112213853Y-114556699D01*
X112035322Y-114630649D01*
X111874649Y-114738007D01*
X111738007Y-114874649D01*
X111630649Y-115035322D01*
X111556699Y-115213853D01*
X111519000Y-115403380D01*
X111519000Y-115596620D01*
X111556699Y-115786147D01*
X111630649Y-115964678D01*
X111738007Y-116125351D01*
X111874649Y-116261993D01*
X112035322Y-116369351D01*
X112213853Y-116443301D01*
X112403380Y-116481000D01*
X112596620Y-116481000D01*
X112687267Y-116462969D01*
X112678575Y-116491622D01*
X112674356Y-116534462D01*
X112596620Y-116519000D01*
X112403380Y-116519000D01*
X112213853Y-116556699D01*
X112035322Y-116630649D01*
X111874649Y-116738007D01*
X111738007Y-116874649D01*
X111630649Y-117035322D01*
X111556699Y-117213853D01*
X111519000Y-117403380D01*
X111519000Y-117596620D01*
X111556699Y-117786147D01*
X111630649Y-117964678D01*
X111738007Y-118125351D01*
X111874649Y-118261993D01*
X112035322Y-118369351D01*
X112213853Y-118443301D01*
X112403380Y-118481000D01*
X112596620Y-118481000D01*
X112786147Y-118443301D01*
X112964678Y-118369351D01*
X113125351Y-118261993D01*
X113261993Y-118125351D01*
X113369351Y-117964678D01*
X113436255Y-117803157D01*
X113535322Y-117869351D01*
X113713853Y-117943301D01*
X113903380Y-117981000D01*
X114096620Y-117981000D01*
X114286147Y-117943301D01*
X114464678Y-117869351D01*
X114625351Y-117761993D01*
X114761993Y-117625351D01*
X114869351Y-117464678D01*
X114943301Y-117286147D01*
X114969506Y-117154407D01*
X114970454Y-117154500D01*
X114970457Y-117154500D01*
X114992782Y-117156699D01*
X115015107Y-117154500D01*
X121560519Y-117154500D01*
X121582844Y-117156699D01*
X121605169Y-117154500D01*
X121605172Y-117154500D01*
X121671942Y-117147924D01*
X121757615Y-117121935D01*
X121836572Y-117079731D01*
X121905779Y-117022935D01*
X121920016Y-117005587D01*
X123505593Y-115420011D01*
X123522935Y-115405779D01*
X123549134Y-115373855D01*
X123579731Y-115336573D01*
X123608645Y-115282478D01*
X123621935Y-115257615D01*
X123647924Y-115171942D01*
X123654500Y-115105172D01*
X123654500Y-115105169D01*
X123656699Y-115082844D01*
X123654500Y-115060519D01*
X123654500Y-98939470D01*
X123656698Y-98917155D01*
X123654500Y-98894840D01*
X123654500Y-98894828D01*
X123647924Y-98828058D01*
X123621935Y-98742385D01*
X123599316Y-98700068D01*
X123579731Y-98663427D01*
X123537168Y-98611563D01*
X123537163Y-98611558D01*
X123522935Y-98594221D01*
X123505599Y-98579994D01*
X118420016Y-93494413D01*
X118405779Y-93477065D01*
X118336572Y-93420269D01*
X118309877Y-93406000D01*
X121980146Y-93406000D01*
X122503463Y-93457312D01*
G37*
%TD.AperFunction*%
D22*
X82245500Y-95705373D02*
X82244918Y-95708529D01*
X82245500Y-95750065D01*
X82245500Y-95769246D01*
X82245813Y-95772428D01*
X82245858Y-95775614D01*
X82247998Y-95794608D01*
X82252076Y-95836016D01*
X82253009Y-95839090D01*
X82254095Y-95848726D01*
X82255307Y-95877519D01*
X82264371Y-95914812D01*
X82272388Y-95952360D01*
X82283792Y-95978836D01*
X82295448Y-96012144D01*
X82303039Y-96039955D01*
X82320180Y-96074307D01*
X82336349Y-96109124D01*
X82353361Y-96132401D01*
X82372131Y-96162273D01*
X82385719Y-96187694D01*
X82410081Y-96217380D01*
X82433587Y-96247718D01*
X82455341Y-96266616D01*
X82480305Y-96291580D01*
X82499201Y-96313332D01*
X82529529Y-96336830D01*
X82559225Y-96361200D01*
X82584646Y-96374788D01*
X82614518Y-96393558D01*
X82637795Y-96410570D01*
X82672612Y-96426739D01*
X82706964Y-96443880D01*
X82734775Y-96451471D01*
X82768083Y-96463127D01*
X82794559Y-96474531D01*
X82832093Y-96482545D01*
X82869400Y-96491613D01*
X82898202Y-96492825D01*
X82933268Y-96496776D01*
X82961610Y-96502002D01*
X83000015Y-96501463D01*
X83038390Y-96502001D01*
X83066727Y-96496776D01*
X83101799Y-96492825D01*
X83130599Y-96491612D01*
X83167919Y-96482542D01*
X83205441Y-96474530D01*
X83231907Y-96463130D01*
X83265224Y-96451471D01*
X83293035Y-96443880D01*
X83327387Y-96426739D01*
X83362204Y-96410570D01*
X83385481Y-96393558D01*
X83415353Y-96374788D01*
X83440774Y-96361200D01*
X83470460Y-96336838D01*
X83500798Y-96313332D01*
X83519696Y-96291578D01*
X83544660Y-96266614D01*
X83566412Y-96247718D01*
X83589910Y-96217390D01*
X83600000Y-96205095D01*
X83610081Y-96217380D01*
X83633587Y-96247718D01*
X83655341Y-96266616D01*
X83680305Y-96291580D01*
X83699201Y-96313332D01*
X83729529Y-96336830D01*
X83759225Y-96361200D01*
X83784646Y-96374788D01*
X83814518Y-96393558D01*
X83837795Y-96410570D01*
X83872612Y-96426739D01*
X83906964Y-96443880D01*
X83934775Y-96451471D01*
X83968083Y-96463127D01*
X83994559Y-96474531D01*
X84032093Y-96482545D01*
X84069400Y-96491613D01*
X84098202Y-96492825D01*
X84133268Y-96496776D01*
X84161610Y-96502002D01*
X84200015Y-96501463D01*
X84238390Y-96502001D01*
X84266727Y-96496776D01*
X84301799Y-96492825D01*
X84330599Y-96491612D01*
X84367919Y-96482542D01*
X84405441Y-96474530D01*
X84431907Y-96463130D01*
X84465224Y-96451471D01*
X84493035Y-96443880D01*
X84527387Y-96426739D01*
X84562204Y-96410570D01*
X84585481Y-96393558D01*
X84615353Y-96374788D01*
X84640774Y-96361200D01*
X84670460Y-96336838D01*
X84700798Y-96313332D01*
X84719696Y-96291578D01*
X84744660Y-96266614D01*
X84766412Y-96247718D01*
X84789910Y-96217390D01*
X84814280Y-96187694D01*
X84827868Y-96162273D01*
X84846638Y-96132401D01*
X84863650Y-96109124D01*
X84879819Y-96074307D01*
X84896960Y-96039955D01*
X84904551Y-96012144D01*
X84916206Y-95978839D01*
X84927609Y-95952367D01*
X84935621Y-95914844D01*
X84944693Y-95877519D01*
X84945906Y-95848710D01*
X84946988Y-95839102D01*
X84947924Y-95836017D01*
X84952006Y-95794568D01*
X84954141Y-95775622D01*
X84954186Y-95772438D01*
X84954500Y-95769247D01*
X84954500Y-95750055D01*
X84955083Y-95708536D01*
X84954500Y-95705374D01*
X84954500Y-95654500D01*
X91560296Y-95654500D01*
X91502141Y-95693358D01*
X91393358Y-95802141D01*
X91307887Y-95930058D01*
X91249013Y-96072191D01*
X91219000Y-96223078D01*
X91219000Y-96376922D01*
X91249013Y-96527809D01*
X91307887Y-96669942D01*
X91393358Y-96797859D01*
X91502141Y-96906642D01*
X91630058Y-96992113D01*
X91772191Y-97050987D01*
X91923078Y-97081000D01*
X92076922Y-97081000D01*
X92217157Y-97053106D01*
X92217157Y-97097251D01*
X92125408Y-97189000D01*
X91983078Y-97189000D01*
X91832191Y-97219013D01*
X91690058Y-97277887D01*
X91562141Y-97363358D01*
X91453358Y-97472141D01*
X91367887Y-97600058D01*
X91309013Y-97742191D01*
X91279000Y-97893078D01*
X91279000Y-98046922D01*
X91309013Y-98197809D01*
X91367887Y-98339942D01*
X91453358Y-98467859D01*
X91562141Y-98576642D01*
X91690058Y-98662113D01*
X91832191Y-98720987D01*
X91983078Y-98751000D01*
X92136922Y-98751000D01*
X92287809Y-98720987D01*
X92429942Y-98662113D01*
X92557859Y-98576642D01*
X92666642Y-98467859D01*
X92752113Y-98339942D01*
X92810987Y-98197809D01*
X92841000Y-98046922D01*
X92841000Y-98017843D01*
X92900000Y-98017843D01*
X92974689Y-98010487D01*
X93000000Y-98002809D01*
X93025311Y-98010487D01*
X93100000Y-98017843D01*
X93400000Y-98017843D01*
X93474689Y-98010487D01*
X93546508Y-97988701D01*
X93612696Y-97953322D01*
X93670711Y-97905711D01*
X93718322Y-97847696D01*
X93750000Y-97788432D01*
X93781678Y-97847696D01*
X93829289Y-97905711D01*
X93887304Y-97953322D01*
X93953492Y-97988701D01*
X94025311Y-98010487D01*
X94100000Y-98017843D01*
X94400000Y-98017843D01*
X94474689Y-98010487D01*
X94500000Y-98002809D01*
X94525311Y-98010487D01*
X94600000Y-98017843D01*
X94900000Y-98017843D01*
X94974689Y-98010487D01*
X95046508Y-97988701D01*
X95112696Y-97953322D01*
X95170711Y-97905711D01*
X95218322Y-97847696D01*
X95250000Y-97788432D01*
X95281678Y-97847696D01*
X95329289Y-97905711D01*
X95387304Y-97953322D01*
X95453492Y-97988701D01*
X95525311Y-98010487D01*
X95600000Y-98017843D01*
X95900000Y-98017843D01*
X95974689Y-98010487D01*
X96000000Y-98002809D01*
X96025311Y-98010487D01*
X96100000Y-98017843D01*
X96216049Y-98017843D01*
X96207887Y-98030058D01*
X96149013Y-98172191D01*
X96119000Y-98323078D01*
X96119000Y-98324328D01*
X96106192Y-98319023D01*
X95955305Y-98289010D01*
X95801461Y-98289010D01*
X95650574Y-98319023D01*
X95508441Y-98377897D01*
X95380524Y-98463368D01*
X95271741Y-98572151D01*
X95186270Y-98700068D01*
X95127396Y-98842201D01*
X95097383Y-98993088D01*
X95097383Y-99146932D01*
X95127377Y-99297722D01*
X94475000Y-99297157D01*
X94400311Y-99304513D01*
X94328492Y-99326299D01*
X94262304Y-99361678D01*
X94204289Y-99409289D01*
X94156678Y-99467304D01*
X94121299Y-99533492D01*
X94099513Y-99605311D01*
X94092157Y-99680000D01*
X94094000Y-99777750D01*
X94189250Y-99873000D01*
X96698000Y-99873000D01*
X96698000Y-99853000D01*
X96952000Y-99853000D01*
X96952000Y-99873000D01*
X96972000Y-99873000D01*
X96972000Y-100127000D01*
X96952000Y-100127000D01*
X96952000Y-100147000D01*
X96698000Y-100147000D01*
X96698000Y-100127000D01*
X94189250Y-100127000D01*
X94094000Y-100222250D01*
X94092157Y-100320000D01*
X94099513Y-100394689D01*
X94121299Y-100466508D01*
X94156678Y-100532696D01*
X94204289Y-100590711D01*
X94262304Y-100638322D01*
X94328492Y-100673701D01*
X94400311Y-100695487D01*
X94475000Y-100702843D01*
X96069770Y-100701462D01*
X95996751Y-100774481D01*
X95911280Y-100902398D01*
X95852406Y-101044531D01*
X95822393Y-101195418D01*
X95822393Y-101349262D01*
X95852406Y-101500149D01*
X95911280Y-101642282D01*
X95996751Y-101770199D01*
X96105534Y-101878982D01*
X96233451Y-101964453D01*
X96276192Y-101982157D01*
X96100000Y-101982157D01*
X96025311Y-101989513D01*
X96000000Y-101997191D01*
X95974689Y-101989513D01*
X95900000Y-101982157D01*
X95600000Y-101982157D01*
X95525311Y-101989513D01*
X95453492Y-102011299D01*
X95387304Y-102046678D01*
X95329289Y-102094289D01*
X95281678Y-102152304D01*
X95250000Y-102211568D01*
X95218322Y-102152304D01*
X95170711Y-102094289D01*
X95112696Y-102046678D01*
X95046508Y-102011299D01*
X94974689Y-101989513D01*
X94900000Y-101982157D01*
X94600000Y-101982157D01*
X94525311Y-101989513D01*
X94500000Y-101997191D01*
X94474689Y-101989513D01*
X94400000Y-101982157D01*
X94100000Y-101982157D01*
X94025311Y-101989513D01*
X93953492Y-102011299D01*
X93887304Y-102046678D01*
X93829289Y-102094289D01*
X93781678Y-102152304D01*
X93750000Y-102211568D01*
X93718322Y-102152304D01*
X93670711Y-102094289D01*
X93612696Y-102046678D01*
X93546508Y-102011299D01*
X93474689Y-101989513D01*
X93400000Y-101982157D01*
X93283951Y-101982157D01*
X93292113Y-101969942D01*
X93350987Y-101827809D01*
X93381000Y-101676922D01*
X93381000Y-101523078D01*
X93350987Y-101372191D01*
X93292113Y-101230058D01*
X93206642Y-101102141D01*
X93097859Y-100993358D01*
X92969942Y-100907887D01*
X92827809Y-100849013D01*
X92676922Y-100819000D01*
X92523078Y-100819000D01*
X92372191Y-100849013D01*
X92230058Y-100907887D01*
X92102141Y-100993358D01*
X91993358Y-101102141D01*
X91907887Y-101230058D01*
X91849013Y-101372191D01*
X91819000Y-101523078D01*
X91819000Y-101676922D01*
X91849013Y-101827809D01*
X91907887Y-101969942D01*
X91993358Y-102097859D01*
X92102141Y-102206642D01*
X92224993Y-102288729D01*
X92224513Y-102290311D01*
X92217157Y-102365000D01*
X92217157Y-102594000D01*
X91454744Y-102594000D01*
X91549594Y-102452047D01*
X91616759Y-102289895D01*
X91651000Y-102117756D01*
X91651000Y-101942244D01*
X91616759Y-101770105D01*
X91549594Y-101607953D01*
X91452085Y-101462021D01*
X91327979Y-101337915D01*
X91182047Y-101240406D01*
X91019895Y-101173241D01*
X90847756Y-101139000D01*
X90672244Y-101139000D01*
X90500105Y-101173241D01*
X90337953Y-101240406D01*
X90192021Y-101337915D01*
X90067915Y-101462021D01*
X89970406Y-101607953D01*
X89903241Y-101770105D01*
X89869000Y-101942244D01*
X89869000Y-102117756D01*
X89903241Y-102289895D01*
X89970406Y-102452047D01*
X90065256Y-102594000D01*
X83798501Y-102594000D01*
X83697859Y-102493358D01*
X83569942Y-102407887D01*
X83427809Y-102349013D01*
X83276922Y-102319000D01*
X83123078Y-102319000D01*
X82972191Y-102349013D01*
X82830058Y-102407887D01*
X82702141Y-102493358D01*
X82593358Y-102602141D01*
X82507887Y-102730058D01*
X82449013Y-102872191D01*
X82419000Y-103023078D01*
X82419000Y-103176922D01*
X82449013Y-103327809D01*
X82507887Y-103469942D01*
X82593358Y-103597859D01*
X82702141Y-103706642D01*
X82830058Y-103792113D01*
X82972191Y-103850987D01*
X83123078Y-103881000D01*
X83276922Y-103881000D01*
X83427809Y-103850987D01*
X83569942Y-103792113D01*
X83697859Y-103706642D01*
X83798501Y-103606000D01*
X87690780Y-103606000D01*
X87607887Y-103730058D01*
X87549013Y-103872191D01*
X87519000Y-104023078D01*
X87519000Y-104176922D01*
X87549013Y-104327809D01*
X87607887Y-104469942D01*
X87693358Y-104597859D01*
X87802141Y-104706642D01*
X87930058Y-104792113D01*
X88072191Y-104850987D01*
X88223078Y-104881000D01*
X88376922Y-104881000D01*
X88527809Y-104850987D01*
X88669942Y-104792113D01*
X88797859Y-104706642D01*
X88858500Y-104646001D01*
X91840631Y-104646001D01*
X91819362Y-104667874D01*
X91791832Y-104694642D01*
X91775486Y-104718379D01*
X91753475Y-104745978D01*
X91733969Y-104767199D01*
X91714007Y-104799981D01*
X91693129Y-104832195D01*
X91682470Y-104858985D01*
X91667161Y-104890775D01*
X91652866Y-104915804D01*
X91640689Y-104952234D01*
X91627508Y-104988275D01*
X91623081Y-105016748D01*
X91615229Y-105051147D01*
X91606859Y-105078739D01*
X91603094Y-105116964D01*
X91598264Y-105155025D01*
X91600283Y-105183769D01*
X91600283Y-105219082D01*
X91598264Y-105247826D01*
X91603094Y-105285884D01*
X91606859Y-105324113D01*
X91615230Y-105351708D01*
X91623081Y-105386103D01*
X91627508Y-105414576D01*
X91640689Y-105450617D01*
X91652866Y-105487047D01*
X91667161Y-105512076D01*
X91682469Y-105543865D01*
X91693127Y-105570652D01*
X91713998Y-105602855D01*
X91733969Y-105635652D01*
X91753480Y-105656878D01*
X91759518Y-105664449D01*
X91761034Y-105667286D01*
X91787420Y-105699437D01*
X91799346Y-105714392D01*
X91801571Y-105716680D01*
X91803597Y-105719149D01*
X91817127Y-105732679D01*
X91846118Y-105762495D01*
X91848768Y-105764320D01*
X91938001Y-105853553D01*
X88746055Y-109045500D01*
X88373567Y-109045500D01*
X88369351Y-109035322D01*
X88261993Y-108874649D01*
X88125351Y-108738007D01*
X87964678Y-108630649D01*
X87786147Y-108556699D01*
X87596620Y-108519000D01*
X87403380Y-108519000D01*
X87213853Y-108556699D01*
X87035322Y-108630649D01*
X86874649Y-108738007D01*
X86738007Y-108874649D01*
X86630649Y-109035322D01*
X86563745Y-109196843D01*
X86464678Y-109130649D01*
X86286147Y-109056699D01*
X86096620Y-109019000D01*
X85903380Y-109019000D01*
X85713853Y-109056699D01*
X85535322Y-109130649D01*
X85374649Y-109238007D01*
X85238007Y-109374649D01*
X85130649Y-109535322D01*
X85056699Y-109713853D01*
X85019000Y-109903380D01*
X85019000Y-110096620D01*
X85056699Y-110286147D01*
X85130649Y-110464678D01*
X85238007Y-110625351D01*
X85374649Y-110761993D01*
X85535322Y-110869351D01*
X85713853Y-110943301D01*
X85903380Y-110981000D01*
X86096620Y-110981000D01*
X86286147Y-110943301D01*
X86464678Y-110869351D01*
X86625351Y-110761993D01*
X86761993Y-110625351D01*
X86869351Y-110464678D01*
X86936255Y-110303157D01*
X87035322Y-110369351D01*
X87213853Y-110443301D01*
X87403380Y-110481000D01*
X87596620Y-110481000D01*
X87786147Y-110443301D01*
X87964678Y-110369351D01*
X88034629Y-110322611D01*
X87796326Y-110560915D01*
X87786147Y-110556699D01*
X87596620Y-110519000D01*
X87403380Y-110519000D01*
X87213853Y-110556699D01*
X87035322Y-110630649D01*
X86874649Y-110738007D01*
X86738007Y-110874649D01*
X86630649Y-111035322D01*
X86556699Y-111213853D01*
X86519000Y-111403380D01*
X86519000Y-111596620D01*
X86535133Y-111677725D01*
X86464678Y-111630649D01*
X86286147Y-111556699D01*
X86096620Y-111519000D01*
X85903380Y-111519000D01*
X85713853Y-111556699D01*
X85535322Y-111630649D01*
X85374649Y-111738007D01*
X85238007Y-111874649D01*
X85130649Y-112035322D01*
X85056699Y-112213853D01*
X85019000Y-112403380D01*
X85019000Y-112596620D01*
X85056699Y-112786147D01*
X85064826Y-112805768D01*
X84927809Y-112749013D01*
X84776922Y-112719000D01*
X84623078Y-112719000D01*
X84472191Y-112749013D01*
X84330058Y-112807887D01*
X84202141Y-112893358D01*
X84093358Y-113002141D01*
X84007887Y-113130058D01*
X83949013Y-113272191D01*
X83919000Y-113423078D01*
X83919000Y-113576922D01*
X83949013Y-113727809D01*
X84007887Y-113869942D01*
X84093358Y-113997859D01*
X84202141Y-114106642D01*
X84330058Y-114192113D01*
X84472191Y-114250987D01*
X84623078Y-114281000D01*
X84776922Y-114281000D01*
X84927809Y-114250987D01*
X85064826Y-114194232D01*
X85056699Y-114213853D01*
X85019000Y-114403380D01*
X85019000Y-114596620D01*
X85056699Y-114786147D01*
X85130649Y-114964678D01*
X85238007Y-115125351D01*
X85374649Y-115261993D01*
X85390032Y-115272272D01*
X85325941Y-115278584D01*
X85240268Y-115304573D01*
X85240266Y-115304574D01*
X85161309Y-115346777D01*
X85109446Y-115389340D01*
X85109441Y-115389345D01*
X85092104Y-115403573D01*
X85077876Y-115420910D01*
X84653287Y-115845500D01*
X78771104Y-115845500D01*
X76654500Y-113728897D01*
X76654500Y-104150000D01*
X76767157Y-104150000D01*
X76767157Y-105850000D01*
X76774513Y-105924689D01*
X76796299Y-105996508D01*
X76831678Y-106062696D01*
X76879289Y-106120711D01*
X76937304Y-106168322D01*
X77003492Y-106203701D01*
X77075311Y-106225487D01*
X77150000Y-106232843D01*
X78850000Y-106232843D01*
X78858999Y-106231957D01*
X78858999Y-106658102D01*
X78784717Y-106583820D01*
X78583097Y-106449102D01*
X78359069Y-106356307D01*
X78121243Y-106309000D01*
X77878757Y-106309000D01*
X77640931Y-106356307D01*
X77416903Y-106449102D01*
X77215283Y-106583820D01*
X77043820Y-106755283D01*
X76909102Y-106956903D01*
X76816307Y-107180931D01*
X76769000Y-107418757D01*
X76769000Y-107661243D01*
X76816307Y-107899069D01*
X76909102Y-108123097D01*
X77043820Y-108324717D01*
X77215283Y-108496180D01*
X77416903Y-108630898D01*
X77640931Y-108723693D01*
X77878757Y-108771000D01*
X78121243Y-108771000D01*
X78359069Y-108723693D01*
X78583097Y-108630898D01*
X78784717Y-108496180D01*
X78858999Y-108421898D01*
X78858999Y-109198102D01*
X78784717Y-109123820D01*
X78583097Y-108989102D01*
X78359069Y-108896307D01*
X78121243Y-108849000D01*
X77878757Y-108849000D01*
X77640931Y-108896307D01*
X77416903Y-108989102D01*
X77215283Y-109123820D01*
X77043820Y-109295283D01*
X76909102Y-109496903D01*
X76816307Y-109720931D01*
X76769000Y-109958757D01*
X76769000Y-110201243D01*
X76816307Y-110439069D01*
X76909102Y-110663097D01*
X77043820Y-110864717D01*
X77215283Y-111036180D01*
X77416903Y-111170898D01*
X77640931Y-111263693D01*
X77878757Y-111311000D01*
X78121243Y-111311000D01*
X78359069Y-111263693D01*
X78583097Y-111170898D01*
X78784717Y-111036180D01*
X78859000Y-110961897D01*
X78859000Y-113340143D01*
X78856552Y-113364999D01*
X78866321Y-113464191D01*
X78895254Y-113559573D01*
X78910730Y-113588525D01*
X78942241Y-113647478D01*
X79005473Y-113724526D01*
X79024779Y-113740371D01*
X80219000Y-114934592D01*
X80219000Y-115076922D01*
X80249013Y-115227809D01*
X80307887Y-115369942D01*
X80393358Y-115497859D01*
X80502141Y-115606642D01*
X80630058Y-115692113D01*
X80772191Y-115750987D01*
X80923078Y-115781000D01*
X81076922Y-115781000D01*
X81227809Y-115750987D01*
X81369942Y-115692113D01*
X81497859Y-115606642D01*
X81606642Y-115497859D01*
X81692113Y-115369942D01*
X81750987Y-115227809D01*
X81781000Y-115076922D01*
X81781000Y-114923078D01*
X81750987Y-114772191D01*
X81692113Y-114630058D01*
X81606642Y-114502141D01*
X81497859Y-114393358D01*
X81369942Y-114307887D01*
X81227809Y-114249013D01*
X81076922Y-114219000D01*
X80934592Y-114219000D01*
X79870999Y-113155408D01*
X79870999Y-111106654D01*
X79997051Y-111184799D01*
X80223019Y-111269495D01*
X80413000Y-111209187D01*
X80413000Y-110207000D01*
X80667000Y-110207000D01*
X80667000Y-111209187D01*
X80856981Y-111269495D01*
X81082949Y-111184799D01*
X81288052Y-111057647D01*
X81464408Y-110892924D01*
X81605239Y-110696961D01*
X81705134Y-110477288D01*
X81729489Y-110396980D01*
X81668627Y-110207000D01*
X80667000Y-110207000D01*
X80413000Y-110207000D01*
X80393000Y-110207000D01*
X80393000Y-109953000D01*
X80413000Y-109953000D01*
X80413000Y-108950813D01*
X80667000Y-108950813D01*
X80667000Y-109953000D01*
X81668627Y-109953000D01*
X81729489Y-109763020D01*
X81705134Y-109682712D01*
X81605239Y-109463039D01*
X81464408Y-109267076D01*
X81288052Y-109102353D01*
X81082949Y-108975201D01*
X80856981Y-108890505D01*
X80667000Y-108950813D01*
X80413000Y-108950813D01*
X80223019Y-108890505D01*
X79997051Y-108975201D01*
X79870999Y-109053346D01*
X79870999Y-108573499D01*
X79956903Y-108630898D01*
X80180931Y-108723693D01*
X80418757Y-108771000D01*
X80661243Y-108771000D01*
X80899069Y-108723693D01*
X81123097Y-108630898D01*
X81324717Y-108496180D01*
X81496180Y-108324717D01*
X81630898Y-108123097D01*
X81723693Y-107899069D01*
X81771000Y-107661243D01*
X81771000Y-107418757D01*
X81723693Y-107180931D01*
X81630898Y-106956903D01*
X81496180Y-106755283D01*
X81485635Y-106744738D01*
X82119000Y-106744738D01*
X82119000Y-107115262D01*
X82191286Y-107478667D01*
X82333080Y-107820987D01*
X82538932Y-108129067D01*
X82800933Y-108391068D01*
X83109013Y-108596920D01*
X83451333Y-108738714D01*
X83814738Y-108811000D01*
X84185262Y-108811000D01*
X84548667Y-108738714D01*
X84890987Y-108596920D01*
X85199067Y-108391068D01*
X85461068Y-108129067D01*
X85666920Y-107820987D01*
X85808714Y-107478667D01*
X85881000Y-107115262D01*
X85881000Y-106744738D01*
X85808714Y-106381333D01*
X85666920Y-106039013D01*
X85461068Y-105730933D01*
X85199067Y-105468932D01*
X84890987Y-105263080D01*
X84548667Y-105121286D01*
X84185262Y-105049000D01*
X83814738Y-105049000D01*
X83451333Y-105121286D01*
X83109013Y-105263080D01*
X82800933Y-105468932D01*
X82538932Y-105730933D01*
X82333080Y-106039013D01*
X82191286Y-106381333D01*
X82119000Y-106744738D01*
X81485635Y-106744738D01*
X81324717Y-106583820D01*
X81123097Y-106449102D01*
X80899069Y-106356307D01*
X80661243Y-106309000D01*
X80418757Y-106309000D01*
X80180931Y-106356307D01*
X79956903Y-106449102D01*
X79870999Y-106506501D01*
X79870999Y-106384592D01*
X80103833Y-106151758D01*
X80180931Y-106183693D01*
X80418757Y-106231000D01*
X80661243Y-106231000D01*
X80899069Y-106183693D01*
X81123097Y-106090898D01*
X81324717Y-105956180D01*
X81496180Y-105784717D01*
X81630898Y-105583097D01*
X81723693Y-105359069D01*
X81771000Y-105121243D01*
X81771000Y-104878757D01*
X81723693Y-104640931D01*
X81630898Y-104416903D01*
X81496180Y-104215283D01*
X81324717Y-104043820D01*
X81123097Y-103909102D01*
X80899069Y-103816307D01*
X80661243Y-103769000D01*
X80530828Y-103769000D01*
X79274645Y-102358873D01*
X79281000Y-102326922D01*
X79281000Y-102256214D01*
X79725335Y-102553109D01*
X80249643Y-102770285D01*
X80806246Y-102881000D01*
X81373754Y-102881000D01*
X81930357Y-102770285D01*
X82454665Y-102553109D01*
X82926530Y-102237819D01*
X83327819Y-101836530D01*
X83643109Y-101364665D01*
X83860285Y-100840357D01*
X83963790Y-100320000D01*
X89902157Y-100320000D01*
X89909513Y-100394689D01*
X89931299Y-100466508D01*
X89966678Y-100532696D01*
X90014289Y-100590711D01*
X90072304Y-100638322D01*
X90138492Y-100673701D01*
X90210311Y-100695487D01*
X90285000Y-100702843D01*
X91332750Y-100701000D01*
X91428000Y-100605750D01*
X91428000Y-100127000D01*
X91682000Y-100127000D01*
X91682000Y-100605750D01*
X91777250Y-100701000D01*
X92825000Y-100702843D01*
X92899689Y-100695487D01*
X92971508Y-100673701D01*
X93037696Y-100638322D01*
X93095711Y-100590711D01*
X93143322Y-100532696D01*
X93178701Y-100466508D01*
X93200487Y-100394689D01*
X93207843Y-100320000D01*
X93206000Y-100222250D01*
X93110750Y-100127000D01*
X91682000Y-100127000D01*
X91428000Y-100127000D01*
X89999250Y-100127000D01*
X89904000Y-100222250D01*
X89902157Y-100320000D01*
X83963790Y-100320000D01*
X83971000Y-100283754D01*
X83971000Y-99716246D01*
X83963791Y-99680000D01*
X89902157Y-99680000D01*
X89904000Y-99777750D01*
X89999250Y-99873000D01*
X91428000Y-99873000D01*
X91428000Y-99394250D01*
X91682000Y-99394250D01*
X91682000Y-99873000D01*
X93110750Y-99873000D01*
X93206000Y-99777750D01*
X93207843Y-99680000D01*
X93200487Y-99605311D01*
X93178701Y-99533492D01*
X93143322Y-99467304D01*
X93095711Y-99409289D01*
X93037696Y-99361678D01*
X92971508Y-99326299D01*
X92899689Y-99304513D01*
X92825000Y-99297157D01*
X91777250Y-99299000D01*
X91682000Y-99394250D01*
X91428000Y-99394250D01*
X91332750Y-99299000D01*
X90285000Y-99297157D01*
X90210311Y-99304513D01*
X90138492Y-99326299D01*
X90072304Y-99361678D01*
X90014289Y-99409289D01*
X89966678Y-99467304D01*
X89931299Y-99533492D01*
X89909513Y-99605311D01*
X89902157Y-99680000D01*
X83963791Y-99680000D01*
X83860285Y-99159643D01*
X83643109Y-98635335D01*
X83327819Y-98163470D01*
X82926530Y-97762181D01*
X82454665Y-97446891D01*
X81930357Y-97229715D01*
X81373754Y-97119000D01*
X80806246Y-97119000D01*
X80249643Y-97229715D01*
X79725335Y-97446891D01*
X79253470Y-97762181D01*
X78852181Y-98163470D01*
X78536891Y-98635335D01*
X78319715Y-99159643D01*
X78209000Y-99716246D01*
X78209000Y-100283754D01*
X78319715Y-100840357D01*
X78536891Y-101364665D01*
X78611155Y-101475809D01*
X78576922Y-101469000D01*
X78423078Y-101469000D01*
X78272191Y-101499013D01*
X78130058Y-101557887D01*
X78002141Y-101643358D01*
X77893358Y-101752141D01*
X77807887Y-101880058D01*
X77749013Y-102022191D01*
X77719000Y-102173078D01*
X77719000Y-102326922D01*
X77749013Y-102477809D01*
X77807887Y-102619942D01*
X77893358Y-102747859D01*
X78002141Y-102856642D01*
X78130058Y-102942113D01*
X78272191Y-103000987D01*
X78423078Y-103031000D01*
X78518081Y-103031000D01*
X79579215Y-104222175D01*
X79449102Y-104416903D01*
X79356307Y-104640931D01*
X79309000Y-104878757D01*
X79309000Y-105121243D01*
X79356307Y-105359069D01*
X79388242Y-105436167D01*
X79232843Y-105591566D01*
X79232843Y-104150000D01*
X79225487Y-104075311D01*
X79203701Y-104003492D01*
X79168322Y-103937304D01*
X79120711Y-103879289D01*
X79062696Y-103831678D01*
X78996508Y-103796299D01*
X78924689Y-103774513D01*
X78850000Y-103767157D01*
X77150000Y-103767157D01*
X77075311Y-103774513D01*
X77003492Y-103796299D01*
X76937304Y-103831678D01*
X76879289Y-103879289D01*
X76831678Y-103937304D01*
X76796299Y-104003492D01*
X76774513Y-104075311D01*
X76767157Y-104150000D01*
X76654500Y-104150000D01*
X76654500Y-99271103D01*
X80271104Y-95654500D01*
X82245500Y-95654500D01*
X82245500Y-95705373D01*
%TA.AperFunction,Conductor*%
D23*
G36*
X82245500Y-95705373D02*
G01*
X82244918Y-95708529D01*
X82245500Y-95750065D01*
X82245500Y-95769246D01*
X82245813Y-95772428D01*
X82245858Y-95775614D01*
X82247998Y-95794608D01*
X82252076Y-95836016D01*
X82253009Y-95839090D01*
X82254095Y-95848726D01*
X82255307Y-95877519D01*
X82264371Y-95914812D01*
X82272388Y-95952360D01*
X82283792Y-95978836D01*
X82295448Y-96012144D01*
X82303039Y-96039955D01*
X82320180Y-96074307D01*
X82336349Y-96109124D01*
X82353361Y-96132401D01*
X82372131Y-96162273D01*
X82385719Y-96187694D01*
X82410081Y-96217380D01*
X82433587Y-96247718D01*
X82455341Y-96266616D01*
X82480305Y-96291580D01*
X82499201Y-96313332D01*
X82529529Y-96336830D01*
X82559225Y-96361200D01*
X82584646Y-96374788D01*
X82614518Y-96393558D01*
X82637795Y-96410570D01*
X82672612Y-96426739D01*
X82706964Y-96443880D01*
X82734775Y-96451471D01*
X82768083Y-96463127D01*
X82794559Y-96474531D01*
X82832093Y-96482545D01*
X82869400Y-96491613D01*
X82898202Y-96492825D01*
X82933268Y-96496776D01*
X82961610Y-96502002D01*
X83000015Y-96501463D01*
X83038390Y-96502001D01*
X83066727Y-96496776D01*
X83101799Y-96492825D01*
X83130599Y-96491612D01*
X83167919Y-96482542D01*
X83205441Y-96474530D01*
X83231907Y-96463130D01*
X83265224Y-96451471D01*
X83293035Y-96443880D01*
X83327387Y-96426739D01*
X83362204Y-96410570D01*
X83385481Y-96393558D01*
X83415353Y-96374788D01*
X83440774Y-96361200D01*
X83470460Y-96336838D01*
X83500798Y-96313332D01*
X83519696Y-96291578D01*
X83544660Y-96266614D01*
X83566412Y-96247718D01*
X83589910Y-96217390D01*
X83600000Y-96205095D01*
X83610081Y-96217380D01*
X83633587Y-96247718D01*
X83655341Y-96266616D01*
X83680305Y-96291580D01*
X83699201Y-96313332D01*
X83729529Y-96336830D01*
X83759225Y-96361200D01*
X83784646Y-96374788D01*
X83814518Y-96393558D01*
X83837795Y-96410570D01*
X83872612Y-96426739D01*
X83906964Y-96443880D01*
X83934775Y-96451471D01*
X83968083Y-96463127D01*
X83994559Y-96474531D01*
X84032093Y-96482545D01*
X84069400Y-96491613D01*
X84098202Y-96492825D01*
X84133268Y-96496776D01*
X84161610Y-96502002D01*
X84200015Y-96501463D01*
X84238390Y-96502001D01*
X84266727Y-96496776D01*
X84301799Y-96492825D01*
X84330599Y-96491612D01*
X84367919Y-96482542D01*
X84405441Y-96474530D01*
X84431907Y-96463130D01*
X84465224Y-96451471D01*
X84493035Y-96443880D01*
X84527387Y-96426739D01*
X84562204Y-96410570D01*
X84585481Y-96393558D01*
X84615353Y-96374788D01*
X84640774Y-96361200D01*
X84670460Y-96336838D01*
X84700798Y-96313332D01*
X84719696Y-96291578D01*
X84744660Y-96266614D01*
X84766412Y-96247718D01*
X84789910Y-96217390D01*
X84814280Y-96187694D01*
X84827868Y-96162273D01*
X84846638Y-96132401D01*
X84863650Y-96109124D01*
X84879819Y-96074307D01*
X84896960Y-96039955D01*
X84904551Y-96012144D01*
X84916206Y-95978839D01*
X84927609Y-95952367D01*
X84935621Y-95914844D01*
X84944693Y-95877519D01*
X84945906Y-95848710D01*
X84946988Y-95839102D01*
X84947924Y-95836017D01*
X84952006Y-95794568D01*
X84954141Y-95775622D01*
X84954186Y-95772438D01*
X84954500Y-95769247D01*
X84954500Y-95750055D01*
X84955083Y-95708536D01*
X84954500Y-95705374D01*
X84954500Y-95654500D01*
X91560296Y-95654500D01*
X91502141Y-95693358D01*
X91393358Y-95802141D01*
X91307887Y-95930058D01*
X91249013Y-96072191D01*
X91219000Y-96223078D01*
X91219000Y-96376922D01*
X91249013Y-96527809D01*
X91307887Y-96669942D01*
X91393358Y-96797859D01*
X91502141Y-96906642D01*
X91630058Y-96992113D01*
X91772191Y-97050987D01*
X91923078Y-97081000D01*
X92076922Y-97081000D01*
X92217157Y-97053106D01*
X92217157Y-97097251D01*
X92125408Y-97189000D01*
X91983078Y-97189000D01*
X91832191Y-97219013D01*
X91690058Y-97277887D01*
X91562141Y-97363358D01*
X91453358Y-97472141D01*
X91367887Y-97600058D01*
X91309013Y-97742191D01*
X91279000Y-97893078D01*
X91279000Y-98046922D01*
X91309013Y-98197809D01*
X91367887Y-98339942D01*
X91453358Y-98467859D01*
X91562141Y-98576642D01*
X91690058Y-98662113D01*
X91832191Y-98720987D01*
X91983078Y-98751000D01*
X92136922Y-98751000D01*
X92287809Y-98720987D01*
X92429942Y-98662113D01*
X92557859Y-98576642D01*
X92666642Y-98467859D01*
X92752113Y-98339942D01*
X92810987Y-98197809D01*
X92841000Y-98046922D01*
X92841000Y-98017843D01*
X92900000Y-98017843D01*
X92974689Y-98010487D01*
X93000000Y-98002809D01*
X93025311Y-98010487D01*
X93100000Y-98017843D01*
X93400000Y-98017843D01*
X93474689Y-98010487D01*
X93546508Y-97988701D01*
X93612696Y-97953322D01*
X93670711Y-97905711D01*
X93718322Y-97847696D01*
X93750000Y-97788432D01*
X93781678Y-97847696D01*
X93829289Y-97905711D01*
X93887304Y-97953322D01*
X93953492Y-97988701D01*
X94025311Y-98010487D01*
X94100000Y-98017843D01*
X94400000Y-98017843D01*
X94474689Y-98010487D01*
X94500000Y-98002809D01*
X94525311Y-98010487D01*
X94600000Y-98017843D01*
X94900000Y-98017843D01*
X94974689Y-98010487D01*
X95046508Y-97988701D01*
X95112696Y-97953322D01*
X95170711Y-97905711D01*
X95218322Y-97847696D01*
X95250000Y-97788432D01*
X95281678Y-97847696D01*
X95329289Y-97905711D01*
X95387304Y-97953322D01*
X95453492Y-97988701D01*
X95525311Y-98010487D01*
X95600000Y-98017843D01*
X95900000Y-98017843D01*
X95974689Y-98010487D01*
X96000000Y-98002809D01*
X96025311Y-98010487D01*
X96100000Y-98017843D01*
X96216049Y-98017843D01*
X96207887Y-98030058D01*
X96149013Y-98172191D01*
X96119000Y-98323078D01*
X96119000Y-98324328D01*
X96106192Y-98319023D01*
X95955305Y-98289010D01*
X95801461Y-98289010D01*
X95650574Y-98319023D01*
X95508441Y-98377897D01*
X95380524Y-98463368D01*
X95271741Y-98572151D01*
X95186270Y-98700068D01*
X95127396Y-98842201D01*
X95097383Y-98993088D01*
X95097383Y-99146932D01*
X95127377Y-99297722D01*
X94475000Y-99297157D01*
X94400311Y-99304513D01*
X94328492Y-99326299D01*
X94262304Y-99361678D01*
X94204289Y-99409289D01*
X94156678Y-99467304D01*
X94121299Y-99533492D01*
X94099513Y-99605311D01*
X94092157Y-99680000D01*
X94094000Y-99777750D01*
X94189250Y-99873000D01*
X96698000Y-99873000D01*
X96698000Y-99853000D01*
X96952000Y-99853000D01*
X96952000Y-99873000D01*
X96972000Y-99873000D01*
X96972000Y-100127000D01*
X96952000Y-100127000D01*
X96952000Y-100147000D01*
X96698000Y-100147000D01*
X96698000Y-100127000D01*
X94189250Y-100127000D01*
X94094000Y-100222250D01*
X94092157Y-100320000D01*
X94099513Y-100394689D01*
X94121299Y-100466508D01*
X94156678Y-100532696D01*
X94204289Y-100590711D01*
X94262304Y-100638322D01*
X94328492Y-100673701D01*
X94400311Y-100695487D01*
X94475000Y-100702843D01*
X96069770Y-100701462D01*
X95996751Y-100774481D01*
X95911280Y-100902398D01*
X95852406Y-101044531D01*
X95822393Y-101195418D01*
X95822393Y-101349262D01*
X95852406Y-101500149D01*
X95911280Y-101642282D01*
X95996751Y-101770199D01*
X96105534Y-101878982D01*
X96233451Y-101964453D01*
X96276192Y-101982157D01*
X96100000Y-101982157D01*
X96025311Y-101989513D01*
X96000000Y-101997191D01*
X95974689Y-101989513D01*
X95900000Y-101982157D01*
X95600000Y-101982157D01*
X95525311Y-101989513D01*
X95453492Y-102011299D01*
X95387304Y-102046678D01*
X95329289Y-102094289D01*
X95281678Y-102152304D01*
X95250000Y-102211568D01*
X95218322Y-102152304D01*
X95170711Y-102094289D01*
X95112696Y-102046678D01*
X95046508Y-102011299D01*
X94974689Y-101989513D01*
X94900000Y-101982157D01*
X94600000Y-101982157D01*
X94525311Y-101989513D01*
X94500000Y-101997191D01*
X94474689Y-101989513D01*
X94400000Y-101982157D01*
X94100000Y-101982157D01*
X94025311Y-101989513D01*
X93953492Y-102011299D01*
X93887304Y-102046678D01*
X93829289Y-102094289D01*
X93781678Y-102152304D01*
X93750000Y-102211568D01*
X93718322Y-102152304D01*
X93670711Y-102094289D01*
X93612696Y-102046678D01*
X93546508Y-102011299D01*
X93474689Y-101989513D01*
X93400000Y-101982157D01*
X93283951Y-101982157D01*
X93292113Y-101969942D01*
X93350987Y-101827809D01*
X93381000Y-101676922D01*
X93381000Y-101523078D01*
X93350987Y-101372191D01*
X93292113Y-101230058D01*
X93206642Y-101102141D01*
X93097859Y-100993358D01*
X92969942Y-100907887D01*
X92827809Y-100849013D01*
X92676922Y-100819000D01*
X92523078Y-100819000D01*
X92372191Y-100849013D01*
X92230058Y-100907887D01*
X92102141Y-100993358D01*
X91993358Y-101102141D01*
X91907887Y-101230058D01*
X91849013Y-101372191D01*
X91819000Y-101523078D01*
X91819000Y-101676922D01*
X91849013Y-101827809D01*
X91907887Y-101969942D01*
X91993358Y-102097859D01*
X92102141Y-102206642D01*
X92224993Y-102288729D01*
X92224513Y-102290311D01*
X92217157Y-102365000D01*
X92217157Y-102594000D01*
X91454744Y-102594000D01*
X91549594Y-102452047D01*
X91616759Y-102289895D01*
X91651000Y-102117756D01*
X91651000Y-101942244D01*
X91616759Y-101770105D01*
X91549594Y-101607953D01*
X91452085Y-101462021D01*
X91327979Y-101337915D01*
X91182047Y-101240406D01*
X91019895Y-101173241D01*
X90847756Y-101139000D01*
X90672244Y-101139000D01*
X90500105Y-101173241D01*
X90337953Y-101240406D01*
X90192021Y-101337915D01*
X90067915Y-101462021D01*
X89970406Y-101607953D01*
X89903241Y-101770105D01*
X89869000Y-101942244D01*
X89869000Y-102117756D01*
X89903241Y-102289895D01*
X89970406Y-102452047D01*
X90065256Y-102594000D01*
X83798501Y-102594000D01*
X83697859Y-102493358D01*
X83569942Y-102407887D01*
X83427809Y-102349013D01*
X83276922Y-102319000D01*
X83123078Y-102319000D01*
X82972191Y-102349013D01*
X82830058Y-102407887D01*
X82702141Y-102493358D01*
X82593358Y-102602141D01*
X82507887Y-102730058D01*
X82449013Y-102872191D01*
X82419000Y-103023078D01*
X82419000Y-103176922D01*
X82449013Y-103327809D01*
X82507887Y-103469942D01*
X82593358Y-103597859D01*
X82702141Y-103706642D01*
X82830058Y-103792113D01*
X82972191Y-103850987D01*
X83123078Y-103881000D01*
X83276922Y-103881000D01*
X83427809Y-103850987D01*
X83569942Y-103792113D01*
X83697859Y-103706642D01*
X83798501Y-103606000D01*
X87690780Y-103606000D01*
X87607887Y-103730058D01*
X87549013Y-103872191D01*
X87519000Y-104023078D01*
X87519000Y-104176922D01*
X87549013Y-104327809D01*
X87607887Y-104469942D01*
X87693358Y-104597859D01*
X87802141Y-104706642D01*
X87930058Y-104792113D01*
X88072191Y-104850987D01*
X88223078Y-104881000D01*
X88376922Y-104881000D01*
X88527809Y-104850987D01*
X88669942Y-104792113D01*
X88797859Y-104706642D01*
X88858500Y-104646001D01*
X91840631Y-104646001D01*
X91819362Y-104667874D01*
X91791832Y-104694642D01*
X91775486Y-104718379D01*
X91753475Y-104745978D01*
X91733969Y-104767199D01*
X91714007Y-104799981D01*
X91693129Y-104832195D01*
X91682470Y-104858985D01*
X91667161Y-104890775D01*
X91652866Y-104915804D01*
X91640689Y-104952234D01*
X91627508Y-104988275D01*
X91623081Y-105016748D01*
X91615229Y-105051147D01*
X91606859Y-105078739D01*
X91603094Y-105116964D01*
X91598264Y-105155025D01*
X91600283Y-105183769D01*
X91600283Y-105219082D01*
X91598264Y-105247826D01*
X91603094Y-105285884D01*
X91606859Y-105324113D01*
X91615230Y-105351708D01*
X91623081Y-105386103D01*
X91627508Y-105414576D01*
X91640689Y-105450617D01*
X91652866Y-105487047D01*
X91667161Y-105512076D01*
X91682469Y-105543865D01*
X91693127Y-105570652D01*
X91713998Y-105602855D01*
X91733969Y-105635652D01*
X91753480Y-105656878D01*
X91759518Y-105664449D01*
X91761034Y-105667286D01*
X91787420Y-105699437D01*
X91799346Y-105714392D01*
X91801571Y-105716680D01*
X91803597Y-105719149D01*
X91817127Y-105732679D01*
X91846118Y-105762495D01*
X91848768Y-105764320D01*
X91938001Y-105853553D01*
X88746055Y-109045500D01*
X88373567Y-109045500D01*
X88369351Y-109035322D01*
X88261993Y-108874649D01*
X88125351Y-108738007D01*
X87964678Y-108630649D01*
X87786147Y-108556699D01*
X87596620Y-108519000D01*
X87403380Y-108519000D01*
X87213853Y-108556699D01*
X87035322Y-108630649D01*
X86874649Y-108738007D01*
X86738007Y-108874649D01*
X86630649Y-109035322D01*
X86563745Y-109196843D01*
X86464678Y-109130649D01*
X86286147Y-109056699D01*
X86096620Y-109019000D01*
X85903380Y-109019000D01*
X85713853Y-109056699D01*
X85535322Y-109130649D01*
X85374649Y-109238007D01*
X85238007Y-109374649D01*
X85130649Y-109535322D01*
X85056699Y-109713853D01*
X85019000Y-109903380D01*
X85019000Y-110096620D01*
X85056699Y-110286147D01*
X85130649Y-110464678D01*
X85238007Y-110625351D01*
X85374649Y-110761993D01*
X85535322Y-110869351D01*
X85713853Y-110943301D01*
X85903380Y-110981000D01*
X86096620Y-110981000D01*
X86286147Y-110943301D01*
X86464678Y-110869351D01*
X86625351Y-110761993D01*
X86761993Y-110625351D01*
X86869351Y-110464678D01*
X86936255Y-110303157D01*
X87035322Y-110369351D01*
X87213853Y-110443301D01*
X87403380Y-110481000D01*
X87596620Y-110481000D01*
X87786147Y-110443301D01*
X87964678Y-110369351D01*
X88034629Y-110322611D01*
X87796326Y-110560915D01*
X87786147Y-110556699D01*
X87596620Y-110519000D01*
X87403380Y-110519000D01*
X87213853Y-110556699D01*
X87035322Y-110630649D01*
X86874649Y-110738007D01*
X86738007Y-110874649D01*
X86630649Y-111035322D01*
X86556699Y-111213853D01*
X86519000Y-111403380D01*
X86519000Y-111596620D01*
X86535133Y-111677725D01*
X86464678Y-111630649D01*
X86286147Y-111556699D01*
X86096620Y-111519000D01*
X85903380Y-111519000D01*
X85713853Y-111556699D01*
X85535322Y-111630649D01*
X85374649Y-111738007D01*
X85238007Y-111874649D01*
X85130649Y-112035322D01*
X85056699Y-112213853D01*
X85019000Y-112403380D01*
X85019000Y-112596620D01*
X85056699Y-112786147D01*
X85064826Y-112805768D01*
X84927809Y-112749013D01*
X84776922Y-112719000D01*
X84623078Y-112719000D01*
X84472191Y-112749013D01*
X84330058Y-112807887D01*
X84202141Y-112893358D01*
X84093358Y-113002141D01*
X84007887Y-113130058D01*
X83949013Y-113272191D01*
X83919000Y-113423078D01*
X83919000Y-113576922D01*
X83949013Y-113727809D01*
X84007887Y-113869942D01*
X84093358Y-113997859D01*
X84202141Y-114106642D01*
X84330058Y-114192113D01*
X84472191Y-114250987D01*
X84623078Y-114281000D01*
X84776922Y-114281000D01*
X84927809Y-114250987D01*
X85064826Y-114194232D01*
X85056699Y-114213853D01*
X85019000Y-114403380D01*
X85019000Y-114596620D01*
X85056699Y-114786147D01*
X85130649Y-114964678D01*
X85238007Y-115125351D01*
X85374649Y-115261993D01*
X85390032Y-115272272D01*
X85325941Y-115278584D01*
X85240268Y-115304573D01*
X85240266Y-115304574D01*
X85161309Y-115346777D01*
X85109446Y-115389340D01*
X85109441Y-115389345D01*
X85092104Y-115403573D01*
X85077876Y-115420910D01*
X84653287Y-115845500D01*
X78771104Y-115845500D01*
X76654500Y-113728897D01*
X76654500Y-104150000D01*
X76767157Y-104150000D01*
X76767157Y-105850000D01*
X76774513Y-105924689D01*
X76796299Y-105996508D01*
X76831678Y-106062696D01*
X76879289Y-106120711D01*
X76937304Y-106168322D01*
X77003492Y-106203701D01*
X77075311Y-106225487D01*
X77150000Y-106232843D01*
X78850000Y-106232843D01*
X78858999Y-106231957D01*
X78858999Y-106658102D01*
X78784717Y-106583820D01*
X78583097Y-106449102D01*
X78359069Y-106356307D01*
X78121243Y-106309000D01*
X77878757Y-106309000D01*
X77640931Y-106356307D01*
X77416903Y-106449102D01*
X77215283Y-106583820D01*
X77043820Y-106755283D01*
X76909102Y-106956903D01*
X76816307Y-107180931D01*
X76769000Y-107418757D01*
X76769000Y-107661243D01*
X76816307Y-107899069D01*
X76909102Y-108123097D01*
X77043820Y-108324717D01*
X77215283Y-108496180D01*
X77416903Y-108630898D01*
X77640931Y-108723693D01*
X77878757Y-108771000D01*
X78121243Y-108771000D01*
X78359069Y-108723693D01*
X78583097Y-108630898D01*
X78784717Y-108496180D01*
X78858999Y-108421898D01*
X78858999Y-109198102D01*
X78784717Y-109123820D01*
X78583097Y-108989102D01*
X78359069Y-108896307D01*
X78121243Y-108849000D01*
X77878757Y-108849000D01*
X77640931Y-108896307D01*
X77416903Y-108989102D01*
X77215283Y-109123820D01*
X77043820Y-109295283D01*
X76909102Y-109496903D01*
X76816307Y-109720931D01*
X76769000Y-109958757D01*
X76769000Y-110201243D01*
X76816307Y-110439069D01*
X76909102Y-110663097D01*
X77043820Y-110864717D01*
X77215283Y-111036180D01*
X77416903Y-111170898D01*
X77640931Y-111263693D01*
X77878757Y-111311000D01*
X78121243Y-111311000D01*
X78359069Y-111263693D01*
X78583097Y-111170898D01*
X78784717Y-111036180D01*
X78859000Y-110961897D01*
X78859000Y-113340143D01*
X78856552Y-113364999D01*
X78866321Y-113464191D01*
X78895254Y-113559573D01*
X78910730Y-113588525D01*
X78942241Y-113647478D01*
X79005473Y-113724526D01*
X79024779Y-113740371D01*
X80219000Y-114934592D01*
X80219000Y-115076922D01*
X80249013Y-115227809D01*
X80307887Y-115369942D01*
X80393358Y-115497859D01*
X80502141Y-115606642D01*
X80630058Y-115692113D01*
X80772191Y-115750987D01*
X80923078Y-115781000D01*
X81076922Y-115781000D01*
X81227809Y-115750987D01*
X81369942Y-115692113D01*
X81497859Y-115606642D01*
X81606642Y-115497859D01*
X81692113Y-115369942D01*
X81750987Y-115227809D01*
X81781000Y-115076922D01*
X81781000Y-114923078D01*
X81750987Y-114772191D01*
X81692113Y-114630058D01*
X81606642Y-114502141D01*
X81497859Y-114393358D01*
X81369942Y-114307887D01*
X81227809Y-114249013D01*
X81076922Y-114219000D01*
X80934592Y-114219000D01*
X79870999Y-113155408D01*
X79870999Y-111106654D01*
X79997051Y-111184799D01*
X80223019Y-111269495D01*
X80413000Y-111209187D01*
X80413000Y-110207000D01*
X80667000Y-110207000D01*
X80667000Y-111209187D01*
X80856981Y-111269495D01*
X81082949Y-111184799D01*
X81288052Y-111057647D01*
X81464408Y-110892924D01*
X81605239Y-110696961D01*
X81705134Y-110477288D01*
X81729489Y-110396980D01*
X81668627Y-110207000D01*
X80667000Y-110207000D01*
X80413000Y-110207000D01*
X80393000Y-110207000D01*
X80393000Y-109953000D01*
X80413000Y-109953000D01*
X80413000Y-108950813D01*
X80667000Y-108950813D01*
X80667000Y-109953000D01*
X81668627Y-109953000D01*
X81729489Y-109763020D01*
X81705134Y-109682712D01*
X81605239Y-109463039D01*
X81464408Y-109267076D01*
X81288052Y-109102353D01*
X81082949Y-108975201D01*
X80856981Y-108890505D01*
X80667000Y-108950813D01*
X80413000Y-108950813D01*
X80223019Y-108890505D01*
X79997051Y-108975201D01*
X79870999Y-109053346D01*
X79870999Y-108573499D01*
X79956903Y-108630898D01*
X80180931Y-108723693D01*
X80418757Y-108771000D01*
X80661243Y-108771000D01*
X80899069Y-108723693D01*
X81123097Y-108630898D01*
X81324717Y-108496180D01*
X81496180Y-108324717D01*
X81630898Y-108123097D01*
X81723693Y-107899069D01*
X81771000Y-107661243D01*
X81771000Y-107418757D01*
X81723693Y-107180931D01*
X81630898Y-106956903D01*
X81496180Y-106755283D01*
X81485635Y-106744738D01*
X82119000Y-106744738D01*
X82119000Y-107115262D01*
X82191286Y-107478667D01*
X82333080Y-107820987D01*
X82538932Y-108129067D01*
X82800933Y-108391068D01*
X83109013Y-108596920D01*
X83451333Y-108738714D01*
X83814738Y-108811000D01*
X84185262Y-108811000D01*
X84548667Y-108738714D01*
X84890987Y-108596920D01*
X85199067Y-108391068D01*
X85461068Y-108129067D01*
X85666920Y-107820987D01*
X85808714Y-107478667D01*
X85881000Y-107115262D01*
X85881000Y-106744738D01*
X85808714Y-106381333D01*
X85666920Y-106039013D01*
X85461068Y-105730933D01*
X85199067Y-105468932D01*
X84890987Y-105263080D01*
X84548667Y-105121286D01*
X84185262Y-105049000D01*
X83814738Y-105049000D01*
X83451333Y-105121286D01*
X83109013Y-105263080D01*
X82800933Y-105468932D01*
X82538932Y-105730933D01*
X82333080Y-106039013D01*
X82191286Y-106381333D01*
X82119000Y-106744738D01*
X81485635Y-106744738D01*
X81324717Y-106583820D01*
X81123097Y-106449102D01*
X80899069Y-106356307D01*
X80661243Y-106309000D01*
X80418757Y-106309000D01*
X80180931Y-106356307D01*
X79956903Y-106449102D01*
X79870999Y-106506501D01*
X79870999Y-106384592D01*
X80103833Y-106151758D01*
X80180931Y-106183693D01*
X80418757Y-106231000D01*
X80661243Y-106231000D01*
X80899069Y-106183693D01*
X81123097Y-106090898D01*
X81324717Y-105956180D01*
X81496180Y-105784717D01*
X81630898Y-105583097D01*
X81723693Y-105359069D01*
X81771000Y-105121243D01*
X81771000Y-104878757D01*
X81723693Y-104640931D01*
X81630898Y-104416903D01*
X81496180Y-104215283D01*
X81324717Y-104043820D01*
X81123097Y-103909102D01*
X80899069Y-103816307D01*
X80661243Y-103769000D01*
X80530828Y-103769000D01*
X79274645Y-102358873D01*
X79281000Y-102326922D01*
X79281000Y-102256214D01*
X79725335Y-102553109D01*
X80249643Y-102770285D01*
X80806246Y-102881000D01*
X81373754Y-102881000D01*
X81930357Y-102770285D01*
X82454665Y-102553109D01*
X82926530Y-102237819D01*
X83327819Y-101836530D01*
X83643109Y-101364665D01*
X83860285Y-100840357D01*
X83963790Y-100320000D01*
X89902157Y-100320000D01*
X89909513Y-100394689D01*
X89931299Y-100466508D01*
X89966678Y-100532696D01*
X90014289Y-100590711D01*
X90072304Y-100638322D01*
X90138492Y-100673701D01*
X90210311Y-100695487D01*
X90285000Y-100702843D01*
X91332750Y-100701000D01*
X91428000Y-100605750D01*
X91428000Y-100127000D01*
X91682000Y-100127000D01*
X91682000Y-100605750D01*
X91777250Y-100701000D01*
X92825000Y-100702843D01*
X92899689Y-100695487D01*
X92971508Y-100673701D01*
X93037696Y-100638322D01*
X93095711Y-100590711D01*
X93143322Y-100532696D01*
X93178701Y-100466508D01*
X93200487Y-100394689D01*
X93207843Y-100320000D01*
X93206000Y-100222250D01*
X93110750Y-100127000D01*
X91682000Y-100127000D01*
X91428000Y-100127000D01*
X89999250Y-100127000D01*
X89904000Y-100222250D01*
X89902157Y-100320000D01*
X83963790Y-100320000D01*
X83971000Y-100283754D01*
X83971000Y-99716246D01*
X83963791Y-99680000D01*
X89902157Y-99680000D01*
X89904000Y-99777750D01*
X89999250Y-99873000D01*
X91428000Y-99873000D01*
X91428000Y-99394250D01*
X91682000Y-99394250D01*
X91682000Y-99873000D01*
X93110750Y-99873000D01*
X93206000Y-99777750D01*
X93207843Y-99680000D01*
X93200487Y-99605311D01*
X93178701Y-99533492D01*
X93143322Y-99467304D01*
X93095711Y-99409289D01*
X93037696Y-99361678D01*
X92971508Y-99326299D01*
X92899689Y-99304513D01*
X92825000Y-99297157D01*
X91777250Y-99299000D01*
X91682000Y-99394250D01*
X91428000Y-99394250D01*
X91332750Y-99299000D01*
X90285000Y-99297157D01*
X90210311Y-99304513D01*
X90138492Y-99326299D01*
X90072304Y-99361678D01*
X90014289Y-99409289D01*
X89966678Y-99467304D01*
X89931299Y-99533492D01*
X89909513Y-99605311D01*
X89902157Y-99680000D01*
X83963791Y-99680000D01*
X83860285Y-99159643D01*
X83643109Y-98635335D01*
X83327819Y-98163470D01*
X82926530Y-97762181D01*
X82454665Y-97446891D01*
X81930357Y-97229715D01*
X81373754Y-97119000D01*
X80806246Y-97119000D01*
X80249643Y-97229715D01*
X79725335Y-97446891D01*
X79253470Y-97762181D01*
X78852181Y-98163470D01*
X78536891Y-98635335D01*
X78319715Y-99159643D01*
X78209000Y-99716246D01*
X78209000Y-100283754D01*
X78319715Y-100840357D01*
X78536891Y-101364665D01*
X78611155Y-101475809D01*
X78576922Y-101469000D01*
X78423078Y-101469000D01*
X78272191Y-101499013D01*
X78130058Y-101557887D01*
X78002141Y-101643358D01*
X77893358Y-101752141D01*
X77807887Y-101880058D01*
X77749013Y-102022191D01*
X77719000Y-102173078D01*
X77719000Y-102326922D01*
X77749013Y-102477809D01*
X77807887Y-102619942D01*
X77893358Y-102747859D01*
X78002141Y-102856642D01*
X78130058Y-102942113D01*
X78272191Y-103000987D01*
X78423078Y-103031000D01*
X78518081Y-103031000D01*
X79579215Y-104222175D01*
X79449102Y-104416903D01*
X79356307Y-104640931D01*
X79309000Y-104878757D01*
X79309000Y-105121243D01*
X79356307Y-105359069D01*
X79388242Y-105436167D01*
X79232843Y-105591566D01*
X79232843Y-104150000D01*
X79225487Y-104075311D01*
X79203701Y-104003492D01*
X79168322Y-103937304D01*
X79120711Y-103879289D01*
X79062696Y-103831678D01*
X78996508Y-103796299D01*
X78924689Y-103774513D01*
X78850000Y-103767157D01*
X77150000Y-103767157D01*
X77075311Y-103774513D01*
X77003492Y-103796299D01*
X76937304Y-103831678D01*
X76879289Y-103879289D01*
X76831678Y-103937304D01*
X76796299Y-104003492D01*
X76774513Y-104075311D01*
X76767157Y-104150000D01*
X76654500Y-104150000D01*
X76654500Y-99271103D01*
X80271104Y-95654500D01*
X82245500Y-95654500D01*
X82245500Y-95705373D01*
G37*
%TD.AperFunction*%
D22*
X107645500Y-94705367D02*
X107644917Y-94708529D01*
X107645500Y-94750092D01*
X107645500Y-94769247D01*
X107645813Y-94772428D01*
X107645858Y-94775615D01*
X107647996Y-94794595D01*
X107652076Y-94836017D01*
X107653011Y-94839098D01*
X107654094Y-94848718D01*
X107655307Y-94877518D01*
X107664377Y-94914838D01*
X107672389Y-94952360D01*
X107683789Y-94978826D01*
X107695448Y-95012143D01*
X107703039Y-95039954D01*
X107720180Y-95074306D01*
X107736349Y-95109123D01*
X107753361Y-95132400D01*
X107772131Y-95162272D01*
X107785719Y-95187693D01*
X107810081Y-95217379D01*
X107833587Y-95247717D01*
X107855341Y-95266615D01*
X107880305Y-95291579D01*
X107899201Y-95313331D01*
X107929529Y-95336829D01*
X107959225Y-95361199D01*
X107984646Y-95374787D01*
X108014518Y-95393557D01*
X108037795Y-95410569D01*
X108072612Y-95426738D01*
X108106964Y-95443879D01*
X108134775Y-95451470D01*
X108168080Y-95463125D01*
X108194552Y-95474528D01*
X108232075Y-95482540D01*
X108269400Y-95491612D01*
X108298209Y-95492825D01*
X108333265Y-95496775D01*
X108361617Y-95502002D01*
X108400000Y-95501463D01*
X108438383Y-95502002D01*
X108466737Y-95496774D01*
X108501799Y-95492824D01*
X108530599Y-95491611D01*
X108567924Y-95482540D01*
X108605447Y-95474527D01*
X108631911Y-95463128D01*
X108665224Y-95451470D01*
X108693035Y-95443879D01*
X108727387Y-95426738D01*
X108762204Y-95410569D01*
X108785481Y-95393557D01*
X108815353Y-95374787D01*
X108840774Y-95361199D01*
X108870460Y-95336837D01*
X108900798Y-95313331D01*
X108919696Y-95291577D01*
X108944660Y-95266613D01*
X108966412Y-95247717D01*
X108989910Y-95217389D01*
X109000000Y-95205094D01*
X109010081Y-95217379D01*
X109033587Y-95247717D01*
X109055341Y-95266615D01*
X109080305Y-95291579D01*
X109099201Y-95313331D01*
X109129529Y-95336829D01*
X109159225Y-95361199D01*
X109184646Y-95374787D01*
X109214518Y-95393557D01*
X109237795Y-95410569D01*
X109272612Y-95426738D01*
X109306964Y-95443879D01*
X109334775Y-95451470D01*
X109368080Y-95463125D01*
X109394552Y-95474528D01*
X109432075Y-95482540D01*
X109469400Y-95491612D01*
X109498209Y-95492825D01*
X109533265Y-95496775D01*
X109561617Y-95502002D01*
X109600000Y-95501463D01*
X109638383Y-95502002D01*
X109666737Y-95496774D01*
X109701799Y-95492824D01*
X109730599Y-95491611D01*
X109767924Y-95482540D01*
X109805447Y-95474527D01*
X109831911Y-95463128D01*
X109865224Y-95451470D01*
X109893035Y-95443879D01*
X109927387Y-95426738D01*
X109962204Y-95410569D01*
X109985481Y-95393557D01*
X110015353Y-95374787D01*
X110040774Y-95361199D01*
X110070460Y-95336837D01*
X110100798Y-95313331D01*
X110119696Y-95291577D01*
X110144660Y-95266613D01*
X110166412Y-95247717D01*
X110189910Y-95217389D01*
X110214280Y-95187693D01*
X110227868Y-95162272D01*
X110246638Y-95132400D01*
X110263650Y-95109123D01*
X110279819Y-95074306D01*
X110296960Y-95039954D01*
X110304551Y-95012143D01*
X110316208Y-94978831D01*
X110327608Y-94952366D01*
X110335619Y-94914853D01*
X110344693Y-94877518D01*
X110345906Y-94848711D01*
X110346988Y-94839101D01*
X110347924Y-94836017D01*
X110352006Y-94794575D01*
X110354141Y-94775623D01*
X110354186Y-94772438D01*
X110354500Y-94769247D01*
X110354500Y-94750056D01*
X110355083Y-94708536D01*
X110354500Y-94705374D01*
X110354500Y-94654500D01*
X117728897Y-94654500D01*
X122345500Y-99271104D01*
X122345501Y-114728895D01*
X121228897Y-115845500D01*
X115346714Y-115845500D01*
X114922128Y-115420915D01*
X114907896Y-115403573D01*
X114889451Y-115388436D01*
X114838690Y-115346777D01*
X114791557Y-115321584D01*
X114759732Y-115304573D01*
X114674059Y-115278584D01*
X114609968Y-115272272D01*
X114625351Y-115261993D01*
X114761993Y-115125351D01*
X114869351Y-114964678D01*
X114943301Y-114786147D01*
X114981000Y-114596620D01*
X114981000Y-114403380D01*
X114943301Y-114213853D01*
X114869351Y-114035322D01*
X114761993Y-113874649D01*
X114625351Y-113738007D01*
X114464678Y-113630649D01*
X114286147Y-113556699D01*
X114096620Y-113519000D01*
X113903380Y-113519000D01*
X113713853Y-113556699D01*
X113535322Y-113630649D01*
X113465044Y-113677607D01*
X113480171Y-113604709D01*
X113481765Y-113411475D01*
X113464773Y-113322212D01*
X113535322Y-113369351D01*
X113713853Y-113443301D01*
X113903380Y-113481000D01*
X114096620Y-113481000D01*
X114286147Y-113443301D01*
X114464678Y-113369351D01*
X114625351Y-113261993D01*
X114761993Y-113125351D01*
X114869351Y-112964678D01*
X114943301Y-112786147D01*
X114981000Y-112596620D01*
X114981000Y-112403380D01*
X114943301Y-112213853D01*
X114869351Y-112035322D01*
X114761993Y-111874649D01*
X114625351Y-111738007D01*
X114464678Y-111630649D01*
X114286147Y-111556699D01*
X114096620Y-111519000D01*
X113903380Y-111519000D01*
X113713853Y-111556699D01*
X113535322Y-111630649D01*
X113464867Y-111677725D01*
X113481000Y-111596620D01*
X113481000Y-111403380D01*
X113443301Y-111213853D01*
X113369351Y-111035322D01*
X113261993Y-110874649D01*
X113125351Y-110738007D01*
X113087989Y-110713042D01*
X113466563Y-110713042D01*
X113528166Y-110865489D01*
X113706081Y-110940909D01*
X113895291Y-110980171D01*
X114088525Y-110981765D01*
X114278356Y-110945630D01*
X114457491Y-110873155D01*
X114471834Y-110865489D01*
X114533437Y-110713042D01*
X114000000Y-110179605D01*
X113466563Y-110713042D01*
X113087989Y-110713042D01*
X112964678Y-110630649D01*
X112786147Y-110556699D01*
X112596620Y-110519000D01*
X112403380Y-110519000D01*
X112213853Y-110556699D01*
X112203674Y-110560915D01*
X112142759Y-110500000D01*
X112203674Y-110439085D01*
X112213853Y-110443301D01*
X112403380Y-110481000D01*
X112596620Y-110481000D01*
X112786147Y-110443301D01*
X112964678Y-110369351D01*
X113064264Y-110302810D01*
X113126845Y-110457491D01*
X113134511Y-110471834D01*
X113286958Y-110533437D01*
X113820395Y-110000000D01*
X114179605Y-110000000D01*
X114713042Y-110533437D01*
X114865489Y-110471834D01*
X114940909Y-110293919D01*
X114980171Y-110104709D01*
X114981765Y-109911475D01*
X114945630Y-109721644D01*
X114873155Y-109542509D01*
X114865489Y-109528166D01*
X114713042Y-109466563D01*
X114179605Y-110000000D01*
X113820395Y-110000000D01*
X113806253Y-109985858D01*
X113985858Y-109806253D01*
X114000000Y-109820395D01*
X114533437Y-109286958D01*
X114471834Y-109134511D01*
X114293919Y-109059091D01*
X114104709Y-109019829D01*
X113911475Y-109018235D01*
X113721644Y-109054370D01*
X113542509Y-109126845D01*
X113528166Y-109134511D01*
X113466564Y-109286956D01*
X113455677Y-109276069D01*
X113443301Y-109213853D01*
X113369351Y-109035322D01*
X113261993Y-108874649D01*
X113125351Y-108738007D01*
X112964678Y-108630649D01*
X112786147Y-108556699D01*
X112596620Y-108519000D01*
X112403380Y-108519000D01*
X112213853Y-108556699D01*
X112035322Y-108630649D01*
X111874649Y-108738007D01*
X111738007Y-108874649D01*
X111630649Y-109035322D01*
X111556699Y-109213853D01*
X111519000Y-109403380D01*
X111519000Y-109596620D01*
X111556699Y-109786147D01*
X111560915Y-109796326D01*
X111511741Y-109845500D01*
X105633082Y-109845500D01*
X105631181Y-109837677D01*
X105623163Y-109800129D01*
X105611761Y-109773658D01*
X105600441Y-109741308D01*
X105592852Y-109713505D01*
X105575716Y-109679162D01*
X105559544Y-109644339D01*
X105542535Y-109621065D01*
X105524299Y-109592044D01*
X105510715Y-109566629D01*
X105486370Y-109536965D01*
X105462848Y-109506605D01*
X105441086Y-109487700D01*
X105416857Y-109463471D01*
X105397954Y-109441712D01*
X105367612Y-109418203D01*
X105337931Y-109393845D01*
X105312510Y-109380257D01*
X105283501Y-109362030D01*
X105260221Y-109345016D01*
X105225397Y-109328844D01*
X105191055Y-109311708D01*
X105163245Y-109304117D01*
X105130907Y-109292801D01*
X105104435Y-109281398D01*
X105066884Y-109273380D01*
X105029579Y-109264313D01*
X105000784Y-109263101D01*
X104992183Y-109262132D01*
X104989098Y-109261196D01*
X104947661Y-109257115D01*
X104943277Y-109256621D01*
X104929261Y-109254037D01*
X104895440Y-109254512D01*
X104861620Y-109254037D01*
X104847606Y-109256621D01*
X104843219Y-109257115D01*
X104801782Y-109261196D01*
X104798697Y-109262132D01*
X104790097Y-109263101D01*
X104761299Y-109264313D01*
X104723984Y-109273382D01*
X104686445Y-109281398D01*
X104659979Y-109292799D01*
X104627627Y-109304119D01*
X104599824Y-109311708D01*
X104565481Y-109328844D01*
X104530658Y-109345016D01*
X104507384Y-109362025D01*
X104478363Y-109380261D01*
X104452948Y-109393845D01*
X104423284Y-109418190D01*
X104392924Y-109441712D01*
X104374019Y-109463474D01*
X104349790Y-109487703D01*
X104328031Y-109506606D01*
X104304522Y-109536948D01*
X104280164Y-109566629D01*
X104266576Y-109592050D01*
X104248349Y-109621059D01*
X104231335Y-109644339D01*
X104215163Y-109679163D01*
X104198027Y-109713505D01*
X104190436Y-109741315D01*
X104179119Y-109773656D01*
X104167716Y-109800129D01*
X104159697Y-109837681D01*
X104157797Y-109845500D01*
X102772772Y-109845500D01*
X102823575Y-109811555D01*
X102932358Y-109702772D01*
X102966670Y-109651420D01*
X103062191Y-109690987D01*
X103213078Y-109721000D01*
X103366922Y-109721000D01*
X103517809Y-109690987D01*
X103659942Y-109632113D01*
X103787859Y-109546642D01*
X103896642Y-109437859D01*
X103982113Y-109309942D01*
X104040987Y-109167809D01*
X104071000Y-109016922D01*
X104071000Y-108863078D01*
X104040987Y-108712191D01*
X103982113Y-108570058D01*
X103896642Y-108442141D01*
X103787859Y-108333358D01*
X103659942Y-108247887D01*
X103517809Y-108189013D01*
X103366922Y-108159000D01*
X103224592Y-108159000D01*
X101810330Y-106744738D01*
X114119000Y-106744738D01*
X114119000Y-107115262D01*
X114191286Y-107478667D01*
X114333080Y-107820987D01*
X114538932Y-108129067D01*
X114800933Y-108391068D01*
X115109013Y-108596920D01*
X115451333Y-108738714D01*
X115814738Y-108811000D01*
X116185262Y-108811000D01*
X116548667Y-108738714D01*
X116890987Y-108596920D01*
X117199067Y-108391068D01*
X117461068Y-108129067D01*
X117666920Y-107820987D01*
X117808714Y-107478667D01*
X117881000Y-107115262D01*
X117881000Y-106744738D01*
X117808714Y-106381333D01*
X117666920Y-106039013D01*
X117461068Y-105730933D01*
X117199067Y-105468932D01*
X116890987Y-105263080D01*
X116548667Y-105121286D01*
X116185262Y-105049000D01*
X115814738Y-105049000D01*
X115451333Y-105121286D01*
X115109013Y-105263080D01*
X114800933Y-105468932D01*
X114538932Y-105730933D01*
X114333080Y-106039013D01*
X114191286Y-106381333D01*
X114119000Y-106744738D01*
X101810330Y-106744738D01*
X101256000Y-106190409D01*
X101256000Y-104615254D01*
X101280255Y-104695214D01*
X101294538Y-104721935D01*
X101327242Y-104783119D01*
X101390474Y-104860167D01*
X101409780Y-104876011D01*
X102123087Y-105589319D01*
X102123087Y-105731649D01*
X102153100Y-105882536D01*
X102211974Y-106024669D01*
X102297445Y-106152586D01*
X102406228Y-106261369D01*
X102534145Y-106346840D01*
X102676278Y-106405714D01*
X102827165Y-106435727D01*
X102981009Y-106435727D01*
X103131896Y-106405714D01*
X103274029Y-106346840D01*
X103401946Y-106261369D01*
X103416747Y-106246568D01*
X103439481Y-106269302D01*
X103567398Y-106354773D01*
X103709531Y-106413647D01*
X103860418Y-106443660D01*
X104014262Y-106443660D01*
X104165149Y-106413647D01*
X104307282Y-106354773D01*
X104435199Y-106269302D01*
X104458625Y-106245876D01*
X104493358Y-106297859D01*
X104602141Y-106406642D01*
X104730058Y-106492113D01*
X104872191Y-106550987D01*
X105023078Y-106581000D01*
X105176922Y-106581000D01*
X105327809Y-106550987D01*
X105469942Y-106492113D01*
X105597859Y-106406642D01*
X105706642Y-106297859D01*
X105792113Y-106169942D01*
X105850987Y-106027809D01*
X105881000Y-105876922D01*
X105881000Y-105723078D01*
X105850987Y-105572191D01*
X105792113Y-105430058D01*
X105706642Y-105302141D01*
X105597859Y-105193358D01*
X105469942Y-105107887D01*
X105327809Y-105049013D01*
X105176922Y-105019000D01*
X105034592Y-105019000D01*
X104132588Y-104116997D01*
X104170711Y-104085711D01*
X104218322Y-104027696D01*
X104250000Y-103968432D01*
X104281678Y-104027696D01*
X104329289Y-104085711D01*
X104387304Y-104133322D01*
X104453492Y-104168701D01*
X104525311Y-104190487D01*
X104600000Y-104197843D01*
X104900000Y-104197843D01*
X104974689Y-104190487D01*
X105000000Y-104182809D01*
X105025311Y-104190487D01*
X105100000Y-104197843D01*
X105400000Y-104197843D01*
X105474689Y-104190487D01*
X105546508Y-104168701D01*
X105612696Y-104133322D01*
X105670711Y-104085711D01*
X105718322Y-104027696D01*
X105750000Y-103968432D01*
X105781678Y-104027696D01*
X105829289Y-104085711D01*
X105887304Y-104133322D01*
X105953492Y-104168701D01*
X106025311Y-104190487D01*
X106100000Y-104197843D01*
X106400000Y-104197843D01*
X106474689Y-104190487D01*
X106500000Y-104182809D01*
X106525311Y-104190487D01*
X106600000Y-104197843D01*
X106900000Y-104197843D01*
X106974689Y-104190487D01*
X107046508Y-104168701D01*
X107112696Y-104133322D01*
X107170711Y-104085711D01*
X107218322Y-104027696D01*
X107253701Y-103961508D01*
X107275487Y-103889689D01*
X107282843Y-103815000D01*
X107282843Y-103637344D01*
X107382141Y-103736642D01*
X107510058Y-103822113D01*
X107652191Y-103880987D01*
X107803078Y-103911000D01*
X107956922Y-103911000D01*
X108107809Y-103880987D01*
X108249942Y-103822113D01*
X108377859Y-103736642D01*
X108486642Y-103627859D01*
X108572113Y-103499942D01*
X108630987Y-103357809D01*
X108661000Y-103206922D01*
X108661000Y-103053078D01*
X108630987Y-102902191D01*
X108572113Y-102760058D01*
X108486642Y-102632141D01*
X108377859Y-102523358D01*
X108249942Y-102437887D01*
X108107809Y-102379013D01*
X107956922Y-102349000D01*
X107803078Y-102349000D01*
X107652191Y-102379013D01*
X107510058Y-102437887D01*
X107382141Y-102523358D01*
X107282843Y-102622656D01*
X107282843Y-102365000D01*
X107275487Y-102290311D01*
X107253701Y-102218492D01*
X107218322Y-102152304D01*
X107170711Y-102094289D01*
X107112696Y-102046678D01*
X107046508Y-102011299D01*
X106974689Y-101989513D01*
X106900000Y-101982157D01*
X106600000Y-101982157D01*
X106525311Y-101989513D01*
X106500000Y-101997191D01*
X106474689Y-101989513D01*
X106400000Y-101982157D01*
X106100000Y-101982157D01*
X106025311Y-101989513D01*
X105953492Y-102011299D01*
X105887304Y-102046678D01*
X105829289Y-102094289D01*
X105781678Y-102152304D01*
X105750000Y-102211568D01*
X105718322Y-102152304D01*
X105670711Y-102094289D01*
X105612696Y-102046678D01*
X105546508Y-102011299D01*
X105474689Y-101989513D01*
X105400000Y-101982157D01*
X105100000Y-101982157D01*
X105025311Y-101989513D01*
X105000000Y-101997191D01*
X104974689Y-101989513D01*
X104900000Y-101982157D01*
X104600000Y-101982157D01*
X104525311Y-101989513D01*
X104453492Y-102011299D01*
X104387304Y-102046678D01*
X104329289Y-102094289D01*
X104281678Y-102152304D01*
X104250000Y-102211568D01*
X104218322Y-102152304D01*
X104170711Y-102094289D01*
X104112696Y-102046678D01*
X104046508Y-102011299D01*
X103974689Y-101989513D01*
X103900000Y-101982157D01*
X103600000Y-101982157D01*
X103525311Y-101989513D01*
X103500000Y-101997191D01*
X103474689Y-101989513D01*
X103400000Y-101982157D01*
X103100000Y-101982157D01*
X103025311Y-101989513D01*
X102953492Y-102011299D01*
X102887304Y-102046678D01*
X102829289Y-102094289D01*
X102781678Y-102152304D01*
X102750000Y-102211568D01*
X102718322Y-102152304D01*
X102670711Y-102094289D01*
X102630441Y-102061240D01*
X102692572Y-101999109D01*
X102730567Y-101942244D01*
X108349000Y-101942244D01*
X108349000Y-102117756D01*
X108383241Y-102289895D01*
X108450406Y-102452047D01*
X108547915Y-102597979D01*
X108672021Y-102722085D01*
X108817953Y-102819594D01*
X108980105Y-102886759D01*
X109152244Y-102921000D01*
X109327756Y-102921000D01*
X109499895Y-102886759D01*
X109662047Y-102819594D01*
X109807979Y-102722085D01*
X109932085Y-102597979D01*
X110029594Y-102452047D01*
X110096759Y-102289895D01*
X110131000Y-102117756D01*
X110131000Y-101942244D01*
X110096759Y-101770105D01*
X110029594Y-101607953D01*
X109932085Y-101462021D01*
X109807979Y-101337915D01*
X109662047Y-101240406D01*
X109499895Y-101173241D01*
X109327756Y-101139000D01*
X109152244Y-101139000D01*
X108980105Y-101173241D01*
X108817953Y-101240406D01*
X108672021Y-101337915D01*
X108547915Y-101462021D01*
X108450406Y-101607953D01*
X108383241Y-101770105D01*
X108349000Y-101942244D01*
X102730567Y-101942244D01*
X102778043Y-101871192D01*
X102836917Y-101729059D01*
X102866930Y-101578172D01*
X102866930Y-101424328D01*
X102836917Y-101273441D01*
X102778043Y-101131308D01*
X102692572Y-101003391D01*
X102583789Y-100894608D01*
X102455872Y-100809137D01*
X102313739Y-100750263D01*
X102162852Y-100720250D01*
X102009008Y-100720250D01*
X101858121Y-100750263D01*
X101715988Y-100809137D01*
X101612723Y-100878136D01*
X101436900Y-100702313D01*
X102952750Y-100701000D01*
X103048000Y-100605750D01*
X103048000Y-100127000D01*
X103302000Y-100127000D01*
X103302000Y-100605750D01*
X103397250Y-100701000D01*
X103473940Y-100701066D01*
X103447887Y-100740058D01*
X103389013Y-100882191D01*
X103359000Y-101033078D01*
X103359000Y-101186922D01*
X103389013Y-101337809D01*
X103447887Y-101479942D01*
X103533358Y-101607859D01*
X103642141Y-101716642D01*
X103770058Y-101802113D01*
X103912191Y-101860987D01*
X104063078Y-101891000D01*
X104216922Y-101891000D01*
X104367809Y-101860987D01*
X104509942Y-101802113D01*
X104637859Y-101716642D01*
X104746642Y-101607859D01*
X104832113Y-101479942D01*
X104890987Y-101337809D01*
X104921000Y-101186922D01*
X104921000Y-101033078D01*
X104890987Y-100882191D01*
X104832113Y-100740058D01*
X104806831Y-100702221D01*
X105525000Y-100702843D01*
X105599689Y-100695487D01*
X105671508Y-100673701D01*
X105737696Y-100638322D01*
X105795711Y-100590711D01*
X105843322Y-100532696D01*
X105878701Y-100466508D01*
X105900487Y-100394689D01*
X105907843Y-100320000D01*
X106792157Y-100320000D01*
X106799513Y-100394689D01*
X106821299Y-100466508D01*
X106856678Y-100532696D01*
X106904289Y-100590711D01*
X106962304Y-100638322D01*
X107028492Y-100673701D01*
X107100311Y-100695487D01*
X107175000Y-100702843D01*
X108222750Y-100701000D01*
X108318000Y-100605750D01*
X108318000Y-100127000D01*
X108572000Y-100127000D01*
X108572000Y-100605750D01*
X108667250Y-100701000D01*
X109715000Y-100702843D01*
X109789689Y-100695487D01*
X109861508Y-100673701D01*
X109927696Y-100638322D01*
X109985711Y-100590711D01*
X110033322Y-100532696D01*
X110068701Y-100466508D01*
X110090487Y-100394689D01*
X110097843Y-100320000D01*
X110096000Y-100222250D01*
X110000750Y-100127000D01*
X108572000Y-100127000D01*
X108318000Y-100127000D01*
X106889250Y-100127000D01*
X106794000Y-100222250D01*
X106792157Y-100320000D01*
X105907843Y-100320000D01*
X105906000Y-100222250D01*
X105810750Y-100127000D01*
X103302000Y-100127000D01*
X103048000Y-100127000D01*
X103028000Y-100127000D01*
X103028000Y-99873000D01*
X103048000Y-99873000D01*
X103048000Y-99394250D01*
X103302000Y-99394250D01*
X103302000Y-99873000D01*
X105810750Y-99873000D01*
X105906000Y-99777750D01*
X105907843Y-99680000D01*
X105900487Y-99605311D01*
X105878701Y-99533492D01*
X105843322Y-99467304D01*
X105795711Y-99409289D01*
X105737696Y-99361678D01*
X105671508Y-99326299D01*
X105599689Y-99304513D01*
X105525000Y-99297157D01*
X103397250Y-99299000D01*
X103302000Y-99394250D01*
X103048000Y-99394250D01*
X102952750Y-99299000D01*
X101240086Y-99297517D01*
X101248678Y-99269191D01*
X101256000Y-99194852D01*
X101258448Y-99169998D01*
X101256000Y-99145144D01*
X101256000Y-99003076D01*
X106549000Y-99003076D01*
X106549000Y-99156920D01*
X106579013Y-99307807D01*
X106637887Y-99449940D01*
X106723358Y-99577857D01*
X106795147Y-99649646D01*
X106792157Y-99680000D01*
X106794000Y-99777750D01*
X106889250Y-99873000D01*
X108318000Y-99873000D01*
X108318000Y-99394250D01*
X108572000Y-99394250D01*
X108572000Y-99873000D01*
X110000750Y-99873000D01*
X110096000Y-99777750D01*
X110097159Y-99716246D01*
X116029000Y-99716246D01*
X116029000Y-100283754D01*
X116139715Y-100840357D01*
X116356891Y-101364665D01*
X116672181Y-101836530D01*
X117073470Y-102237819D01*
X117545335Y-102553109D01*
X118069643Y-102770285D01*
X118626246Y-102881000D01*
X119193754Y-102881000D01*
X119750357Y-102770285D01*
X120274665Y-102553109D01*
X120746530Y-102237819D01*
X121147819Y-101836530D01*
X121463109Y-101364665D01*
X121680285Y-100840357D01*
X121791000Y-100283754D01*
X121791000Y-99716246D01*
X121680285Y-99159643D01*
X121463109Y-98635335D01*
X121147819Y-98163470D01*
X120746530Y-97762181D01*
X120274665Y-97446891D01*
X119750357Y-97229715D01*
X119193754Y-97119000D01*
X118626246Y-97119000D01*
X118069643Y-97229715D01*
X117545335Y-97446891D01*
X117073470Y-97762181D01*
X116672181Y-98163470D01*
X116356891Y-98635335D01*
X116139715Y-99159643D01*
X116029000Y-99716246D01*
X110097159Y-99716246D01*
X110097843Y-99680000D01*
X110090487Y-99605311D01*
X110068701Y-99533492D01*
X110033322Y-99467304D01*
X109985711Y-99409289D01*
X109927696Y-99361678D01*
X109861508Y-99326299D01*
X109789689Y-99304513D01*
X109715000Y-99297157D01*
X108667250Y-99299000D01*
X108572000Y-99394250D01*
X108318000Y-99394250D01*
X108222750Y-99299000D01*
X108082788Y-99298754D01*
X108111000Y-99156920D01*
X108111000Y-99003076D01*
X108080987Y-98852189D01*
X108022113Y-98710056D01*
X107936642Y-98582139D01*
X107827859Y-98473356D01*
X107699942Y-98387885D01*
X107557809Y-98329011D01*
X107406922Y-98298998D01*
X107253078Y-98298998D01*
X107102191Y-98329011D01*
X106960058Y-98387885D01*
X106832141Y-98473356D01*
X106723358Y-98582139D01*
X106637887Y-98710056D01*
X106579013Y-98852189D01*
X106549000Y-99003076D01*
X101256000Y-99003076D01*
X101256000Y-97799657D01*
X101281678Y-97847696D01*
X101329289Y-97905711D01*
X101387304Y-97953322D01*
X101453492Y-97988701D01*
X101525311Y-98010487D01*
X101600000Y-98017843D01*
X101900000Y-98017843D01*
X101974689Y-98010487D01*
X102000000Y-98002809D01*
X102025311Y-98010487D01*
X102100000Y-98017843D01*
X102400000Y-98017843D01*
X102474689Y-98010487D01*
X102546508Y-97988701D01*
X102612696Y-97953322D01*
X102670711Y-97905711D01*
X102718322Y-97847696D01*
X102750000Y-97788432D01*
X102781678Y-97847696D01*
X102829289Y-97905711D01*
X102887304Y-97953322D01*
X102953492Y-97988701D01*
X103025311Y-98010487D01*
X103100000Y-98017843D01*
X103400000Y-98017843D01*
X103474689Y-98010487D01*
X103500000Y-98002809D01*
X103525311Y-98010487D01*
X103600000Y-98017843D01*
X103900000Y-98017843D01*
X103974689Y-98010487D01*
X104046508Y-97988701D01*
X104112696Y-97953322D01*
X104170711Y-97905711D01*
X104218322Y-97847696D01*
X104250000Y-97788432D01*
X104281678Y-97847696D01*
X104329289Y-97905711D01*
X104387304Y-97953322D01*
X104453492Y-97988701D01*
X104525311Y-98010487D01*
X104600000Y-98017843D01*
X104900000Y-98017843D01*
X104974689Y-98010487D01*
X105000000Y-98002809D01*
X105025311Y-98010487D01*
X105100000Y-98017843D01*
X105400000Y-98017843D01*
X105474689Y-98010487D01*
X105546508Y-97988701D01*
X105612696Y-97953322D01*
X105670711Y-97905711D01*
X105718322Y-97847696D01*
X105750000Y-97788432D01*
X105781678Y-97847696D01*
X105829289Y-97905711D01*
X105887304Y-97953322D01*
X105953492Y-97988701D01*
X106025311Y-98010487D01*
X106100000Y-98017843D01*
X106400000Y-98017843D01*
X106474689Y-98010487D01*
X106500000Y-98002809D01*
X106525311Y-98010487D01*
X106600000Y-98017843D01*
X106900000Y-98017843D01*
X106974689Y-98010487D01*
X107046508Y-97988701D01*
X107112696Y-97953322D01*
X107170711Y-97905711D01*
X107218322Y-97847696D01*
X107253701Y-97781508D01*
X107275487Y-97709689D01*
X107282843Y-97635000D01*
X107282843Y-97416000D01*
X107495154Y-97416000D01*
X107520000Y-97418447D01*
X107524895Y-97417965D01*
X107532191Y-97420987D01*
X107683078Y-97451000D01*
X107836922Y-97451000D01*
X107987809Y-97420987D01*
X108129942Y-97362113D01*
X108257859Y-97276642D01*
X108366642Y-97167859D01*
X108452113Y-97039942D01*
X108510987Y-96897809D01*
X108541000Y-96746922D01*
X108541000Y-96593078D01*
X108510987Y-96442191D01*
X108452113Y-96300058D01*
X108366642Y-96172141D01*
X108257859Y-96063358D01*
X108129942Y-95977887D01*
X107987809Y-95919013D01*
X107836922Y-95889000D01*
X107683078Y-95889000D01*
X107532191Y-95919013D01*
X107390058Y-95977887D01*
X107262141Y-96063358D01*
X107261453Y-96064046D01*
X107253701Y-96038492D01*
X107218322Y-95972304D01*
X107170711Y-95914289D01*
X107112696Y-95866678D01*
X107046508Y-95831299D01*
X106974689Y-95809513D01*
X106900000Y-95802157D01*
X106600000Y-95802157D01*
X106525311Y-95809513D01*
X106500000Y-95817191D01*
X106474689Y-95809513D01*
X106400000Y-95802157D01*
X106100000Y-95802157D01*
X106025311Y-95809513D01*
X105953492Y-95831299D01*
X105887304Y-95866678D01*
X105829289Y-95914289D01*
X105781678Y-95972304D01*
X105750000Y-96031568D01*
X105718322Y-95972304D01*
X105670711Y-95914289D01*
X105612696Y-95866678D01*
X105546508Y-95831299D01*
X105474689Y-95809513D01*
X105400000Y-95802157D01*
X105120191Y-95802157D01*
X105150987Y-95727809D01*
X105181000Y-95576922D01*
X105181000Y-95423078D01*
X105150987Y-95272191D01*
X105092113Y-95130058D01*
X105006642Y-95002141D01*
X104897859Y-94893358D01*
X104769942Y-94807887D01*
X104627809Y-94749013D01*
X104476922Y-94719000D01*
X104323078Y-94719000D01*
X104172191Y-94749013D01*
X104030058Y-94807887D01*
X103902141Y-94893358D01*
X103801499Y-94994000D01*
X103709854Y-94994000D01*
X103685000Y-94991552D01*
X103660146Y-94994000D01*
X103585807Y-95001322D01*
X103490425Y-95030255D01*
X103402521Y-95077241D01*
X103325473Y-95140473D01*
X103309628Y-95159780D01*
X102909780Y-95559629D01*
X102890474Y-95575473D01*
X102827242Y-95652521D01*
X102813480Y-95678268D01*
X102811917Y-95681193D01*
X102838089Y-95618008D01*
X102868102Y-95467121D01*
X102868102Y-95313277D01*
X102838089Y-95162390D01*
X102779215Y-95020257D01*
X102693744Y-94892340D01*
X102584961Y-94783557D01*
X102457044Y-94698086D01*
X102351819Y-94654500D01*
X107645500Y-94654500D01*
X107645500Y-94705367D01*
%TA.AperFunction,Conductor*%
D23*
G36*
X107645500Y-94705367D02*
G01*
X107644917Y-94708529D01*
X107645500Y-94750092D01*
X107645500Y-94769247D01*
X107645813Y-94772428D01*
X107645858Y-94775615D01*
X107647996Y-94794595D01*
X107652076Y-94836017D01*
X107653011Y-94839098D01*
X107654094Y-94848718D01*
X107655307Y-94877518D01*
X107664377Y-94914838D01*
X107672389Y-94952360D01*
X107683789Y-94978826D01*
X107695448Y-95012143D01*
X107703039Y-95039954D01*
X107720180Y-95074306D01*
X107736349Y-95109123D01*
X107753361Y-95132400D01*
X107772131Y-95162272D01*
X107785719Y-95187693D01*
X107810081Y-95217379D01*
X107833587Y-95247717D01*
X107855341Y-95266615D01*
X107880305Y-95291579D01*
X107899201Y-95313331D01*
X107929529Y-95336829D01*
X107959225Y-95361199D01*
X107984646Y-95374787D01*
X108014518Y-95393557D01*
X108037795Y-95410569D01*
X108072612Y-95426738D01*
X108106964Y-95443879D01*
X108134775Y-95451470D01*
X108168080Y-95463125D01*
X108194552Y-95474528D01*
X108232075Y-95482540D01*
X108269400Y-95491612D01*
X108298209Y-95492825D01*
X108333265Y-95496775D01*
X108361617Y-95502002D01*
X108400000Y-95501463D01*
X108438383Y-95502002D01*
X108466737Y-95496774D01*
X108501799Y-95492824D01*
X108530599Y-95491611D01*
X108567924Y-95482540D01*
X108605447Y-95474527D01*
X108631911Y-95463128D01*
X108665224Y-95451470D01*
X108693035Y-95443879D01*
X108727387Y-95426738D01*
X108762204Y-95410569D01*
X108785481Y-95393557D01*
X108815353Y-95374787D01*
X108840774Y-95361199D01*
X108870460Y-95336837D01*
X108900798Y-95313331D01*
X108919696Y-95291577D01*
X108944660Y-95266613D01*
X108966412Y-95247717D01*
X108989910Y-95217389D01*
X109000000Y-95205094D01*
X109010081Y-95217379D01*
X109033587Y-95247717D01*
X109055341Y-95266615D01*
X109080305Y-95291579D01*
X109099201Y-95313331D01*
X109129529Y-95336829D01*
X109159225Y-95361199D01*
X109184646Y-95374787D01*
X109214518Y-95393557D01*
X109237795Y-95410569D01*
X109272612Y-95426738D01*
X109306964Y-95443879D01*
X109334775Y-95451470D01*
X109368080Y-95463125D01*
X109394552Y-95474528D01*
X109432075Y-95482540D01*
X109469400Y-95491612D01*
X109498209Y-95492825D01*
X109533265Y-95496775D01*
X109561617Y-95502002D01*
X109600000Y-95501463D01*
X109638383Y-95502002D01*
X109666737Y-95496774D01*
X109701799Y-95492824D01*
X109730599Y-95491611D01*
X109767924Y-95482540D01*
X109805447Y-95474527D01*
X109831911Y-95463128D01*
X109865224Y-95451470D01*
X109893035Y-95443879D01*
X109927387Y-95426738D01*
X109962204Y-95410569D01*
X109985481Y-95393557D01*
X110015353Y-95374787D01*
X110040774Y-95361199D01*
X110070460Y-95336837D01*
X110100798Y-95313331D01*
X110119696Y-95291577D01*
X110144660Y-95266613D01*
X110166412Y-95247717D01*
X110189910Y-95217389D01*
X110214280Y-95187693D01*
X110227868Y-95162272D01*
X110246638Y-95132400D01*
X110263650Y-95109123D01*
X110279819Y-95074306D01*
X110296960Y-95039954D01*
X110304551Y-95012143D01*
X110316208Y-94978831D01*
X110327608Y-94952366D01*
X110335619Y-94914853D01*
X110344693Y-94877518D01*
X110345906Y-94848711D01*
X110346988Y-94839101D01*
X110347924Y-94836017D01*
X110352006Y-94794575D01*
X110354141Y-94775623D01*
X110354186Y-94772438D01*
X110354500Y-94769247D01*
X110354500Y-94750056D01*
X110355083Y-94708536D01*
X110354500Y-94705374D01*
X110354500Y-94654500D01*
X117728897Y-94654500D01*
X122345500Y-99271104D01*
X122345501Y-114728895D01*
X121228897Y-115845500D01*
X115346714Y-115845500D01*
X114922128Y-115420915D01*
X114907896Y-115403573D01*
X114889451Y-115388436D01*
X114838690Y-115346777D01*
X114791557Y-115321584D01*
X114759732Y-115304573D01*
X114674059Y-115278584D01*
X114609968Y-115272272D01*
X114625351Y-115261993D01*
X114761993Y-115125351D01*
X114869351Y-114964678D01*
X114943301Y-114786147D01*
X114981000Y-114596620D01*
X114981000Y-114403380D01*
X114943301Y-114213853D01*
X114869351Y-114035322D01*
X114761993Y-113874649D01*
X114625351Y-113738007D01*
X114464678Y-113630649D01*
X114286147Y-113556699D01*
X114096620Y-113519000D01*
X113903380Y-113519000D01*
X113713853Y-113556699D01*
X113535322Y-113630649D01*
X113465044Y-113677607D01*
X113480171Y-113604709D01*
X113481765Y-113411475D01*
X113464773Y-113322212D01*
X113535322Y-113369351D01*
X113713853Y-113443301D01*
X113903380Y-113481000D01*
X114096620Y-113481000D01*
X114286147Y-113443301D01*
X114464678Y-113369351D01*
X114625351Y-113261993D01*
X114761993Y-113125351D01*
X114869351Y-112964678D01*
X114943301Y-112786147D01*
X114981000Y-112596620D01*
X114981000Y-112403380D01*
X114943301Y-112213853D01*
X114869351Y-112035322D01*
X114761993Y-111874649D01*
X114625351Y-111738007D01*
X114464678Y-111630649D01*
X114286147Y-111556699D01*
X114096620Y-111519000D01*
X113903380Y-111519000D01*
X113713853Y-111556699D01*
X113535322Y-111630649D01*
X113464867Y-111677725D01*
X113481000Y-111596620D01*
X113481000Y-111403380D01*
X113443301Y-111213853D01*
X113369351Y-111035322D01*
X113261993Y-110874649D01*
X113125351Y-110738007D01*
X113087989Y-110713042D01*
X113466563Y-110713042D01*
X113528166Y-110865489D01*
X113706081Y-110940909D01*
X113895291Y-110980171D01*
X114088525Y-110981765D01*
X114278356Y-110945630D01*
X114457491Y-110873155D01*
X114471834Y-110865489D01*
X114533437Y-110713042D01*
X114000000Y-110179605D01*
X113466563Y-110713042D01*
X113087989Y-110713042D01*
X112964678Y-110630649D01*
X112786147Y-110556699D01*
X112596620Y-110519000D01*
X112403380Y-110519000D01*
X112213853Y-110556699D01*
X112203674Y-110560915D01*
X112142759Y-110500000D01*
X112203674Y-110439085D01*
X112213853Y-110443301D01*
X112403380Y-110481000D01*
X112596620Y-110481000D01*
X112786147Y-110443301D01*
X112964678Y-110369351D01*
X113064264Y-110302810D01*
X113126845Y-110457491D01*
X113134511Y-110471834D01*
X113286958Y-110533437D01*
X113820395Y-110000000D01*
X114179605Y-110000000D01*
X114713042Y-110533437D01*
X114865489Y-110471834D01*
X114940909Y-110293919D01*
X114980171Y-110104709D01*
X114981765Y-109911475D01*
X114945630Y-109721644D01*
X114873155Y-109542509D01*
X114865489Y-109528166D01*
X114713042Y-109466563D01*
X114179605Y-110000000D01*
X113820395Y-110000000D01*
X113806253Y-109985858D01*
X113985858Y-109806253D01*
X114000000Y-109820395D01*
X114533437Y-109286958D01*
X114471834Y-109134511D01*
X114293919Y-109059091D01*
X114104709Y-109019829D01*
X113911475Y-109018235D01*
X113721644Y-109054370D01*
X113542509Y-109126845D01*
X113528166Y-109134511D01*
X113466564Y-109286956D01*
X113455677Y-109276069D01*
X113443301Y-109213853D01*
X113369351Y-109035322D01*
X113261993Y-108874649D01*
X113125351Y-108738007D01*
X112964678Y-108630649D01*
X112786147Y-108556699D01*
X112596620Y-108519000D01*
X112403380Y-108519000D01*
X112213853Y-108556699D01*
X112035322Y-108630649D01*
X111874649Y-108738007D01*
X111738007Y-108874649D01*
X111630649Y-109035322D01*
X111556699Y-109213853D01*
X111519000Y-109403380D01*
X111519000Y-109596620D01*
X111556699Y-109786147D01*
X111560915Y-109796326D01*
X111511741Y-109845500D01*
X105633082Y-109845500D01*
X105631181Y-109837677D01*
X105623163Y-109800129D01*
X105611761Y-109773658D01*
X105600441Y-109741308D01*
X105592852Y-109713505D01*
X105575716Y-109679162D01*
X105559544Y-109644339D01*
X105542535Y-109621065D01*
X105524299Y-109592044D01*
X105510715Y-109566629D01*
X105486370Y-109536965D01*
X105462848Y-109506605D01*
X105441086Y-109487700D01*
X105416857Y-109463471D01*
X105397954Y-109441712D01*
X105367612Y-109418203D01*
X105337931Y-109393845D01*
X105312510Y-109380257D01*
X105283501Y-109362030D01*
X105260221Y-109345016D01*
X105225397Y-109328844D01*
X105191055Y-109311708D01*
X105163245Y-109304117D01*
X105130907Y-109292801D01*
X105104435Y-109281398D01*
X105066884Y-109273380D01*
X105029579Y-109264313D01*
X105000784Y-109263101D01*
X104992183Y-109262132D01*
X104989098Y-109261196D01*
X104947661Y-109257115D01*
X104943277Y-109256621D01*
X104929261Y-109254037D01*
X104895440Y-109254512D01*
X104861620Y-109254037D01*
X104847606Y-109256621D01*
X104843219Y-109257115D01*
X104801782Y-109261196D01*
X104798697Y-109262132D01*
X104790097Y-109263101D01*
X104761299Y-109264313D01*
X104723984Y-109273382D01*
X104686445Y-109281398D01*
X104659979Y-109292799D01*
X104627627Y-109304119D01*
X104599824Y-109311708D01*
X104565481Y-109328844D01*
X104530658Y-109345016D01*
X104507384Y-109362025D01*
X104478363Y-109380261D01*
X104452948Y-109393845D01*
X104423284Y-109418190D01*
X104392924Y-109441712D01*
X104374019Y-109463474D01*
X104349790Y-109487703D01*
X104328031Y-109506606D01*
X104304522Y-109536948D01*
X104280164Y-109566629D01*
X104266576Y-109592050D01*
X104248349Y-109621059D01*
X104231335Y-109644339D01*
X104215163Y-109679163D01*
X104198027Y-109713505D01*
X104190436Y-109741315D01*
X104179119Y-109773656D01*
X104167716Y-109800129D01*
X104159697Y-109837681D01*
X104157797Y-109845500D01*
X102772772Y-109845500D01*
X102823575Y-109811555D01*
X102932358Y-109702772D01*
X102966670Y-109651420D01*
X103062191Y-109690987D01*
X103213078Y-109721000D01*
X103366922Y-109721000D01*
X103517809Y-109690987D01*
X103659942Y-109632113D01*
X103787859Y-109546642D01*
X103896642Y-109437859D01*
X103982113Y-109309942D01*
X104040987Y-109167809D01*
X104071000Y-109016922D01*
X104071000Y-108863078D01*
X104040987Y-108712191D01*
X103982113Y-108570058D01*
X103896642Y-108442141D01*
X103787859Y-108333358D01*
X103659942Y-108247887D01*
X103517809Y-108189013D01*
X103366922Y-108159000D01*
X103224592Y-108159000D01*
X101810330Y-106744738D01*
X114119000Y-106744738D01*
X114119000Y-107115262D01*
X114191286Y-107478667D01*
X114333080Y-107820987D01*
X114538932Y-108129067D01*
X114800933Y-108391068D01*
X115109013Y-108596920D01*
X115451333Y-108738714D01*
X115814738Y-108811000D01*
X116185262Y-108811000D01*
X116548667Y-108738714D01*
X116890987Y-108596920D01*
X117199067Y-108391068D01*
X117461068Y-108129067D01*
X117666920Y-107820987D01*
X117808714Y-107478667D01*
X117881000Y-107115262D01*
X117881000Y-106744738D01*
X117808714Y-106381333D01*
X117666920Y-106039013D01*
X117461068Y-105730933D01*
X117199067Y-105468932D01*
X116890987Y-105263080D01*
X116548667Y-105121286D01*
X116185262Y-105049000D01*
X115814738Y-105049000D01*
X115451333Y-105121286D01*
X115109013Y-105263080D01*
X114800933Y-105468932D01*
X114538932Y-105730933D01*
X114333080Y-106039013D01*
X114191286Y-106381333D01*
X114119000Y-106744738D01*
X101810330Y-106744738D01*
X101256000Y-106190409D01*
X101256000Y-104615254D01*
X101280255Y-104695214D01*
X101294538Y-104721935D01*
X101327242Y-104783119D01*
X101390474Y-104860167D01*
X101409780Y-104876011D01*
X102123087Y-105589319D01*
X102123087Y-105731649D01*
X102153100Y-105882536D01*
X102211974Y-106024669D01*
X102297445Y-106152586D01*
X102406228Y-106261369D01*
X102534145Y-106346840D01*
X102676278Y-106405714D01*
X102827165Y-106435727D01*
X102981009Y-106435727D01*
X103131896Y-106405714D01*
X103274029Y-106346840D01*
X103401946Y-106261369D01*
X103416747Y-106246568D01*
X103439481Y-106269302D01*
X103567398Y-106354773D01*
X103709531Y-106413647D01*
X103860418Y-106443660D01*
X104014262Y-106443660D01*
X104165149Y-106413647D01*
X104307282Y-106354773D01*
X104435199Y-106269302D01*
X104458625Y-106245876D01*
X104493358Y-106297859D01*
X104602141Y-106406642D01*
X104730058Y-106492113D01*
X104872191Y-106550987D01*
X105023078Y-106581000D01*
X105176922Y-106581000D01*
X105327809Y-106550987D01*
X105469942Y-106492113D01*
X105597859Y-106406642D01*
X105706642Y-106297859D01*
X105792113Y-106169942D01*
X105850987Y-106027809D01*
X105881000Y-105876922D01*
X105881000Y-105723078D01*
X105850987Y-105572191D01*
X105792113Y-105430058D01*
X105706642Y-105302141D01*
X105597859Y-105193358D01*
X105469942Y-105107887D01*
X105327809Y-105049013D01*
X105176922Y-105019000D01*
X105034592Y-105019000D01*
X104132588Y-104116997D01*
X104170711Y-104085711D01*
X104218322Y-104027696D01*
X104250000Y-103968432D01*
X104281678Y-104027696D01*
X104329289Y-104085711D01*
X104387304Y-104133322D01*
X104453492Y-104168701D01*
X104525311Y-104190487D01*
X104600000Y-104197843D01*
X104900000Y-104197843D01*
X104974689Y-104190487D01*
X105000000Y-104182809D01*
X105025311Y-104190487D01*
X105100000Y-104197843D01*
X105400000Y-104197843D01*
X105474689Y-104190487D01*
X105546508Y-104168701D01*
X105612696Y-104133322D01*
X105670711Y-104085711D01*
X105718322Y-104027696D01*
X105750000Y-103968432D01*
X105781678Y-104027696D01*
X105829289Y-104085711D01*
X105887304Y-104133322D01*
X105953492Y-104168701D01*
X106025311Y-104190487D01*
X106100000Y-104197843D01*
X106400000Y-104197843D01*
X106474689Y-104190487D01*
X106500000Y-104182809D01*
X106525311Y-104190487D01*
X106600000Y-104197843D01*
X106900000Y-104197843D01*
X106974689Y-104190487D01*
X107046508Y-104168701D01*
X107112696Y-104133322D01*
X107170711Y-104085711D01*
X107218322Y-104027696D01*
X107253701Y-103961508D01*
X107275487Y-103889689D01*
X107282843Y-103815000D01*
X107282843Y-103637344D01*
X107382141Y-103736642D01*
X107510058Y-103822113D01*
X107652191Y-103880987D01*
X107803078Y-103911000D01*
X107956922Y-103911000D01*
X108107809Y-103880987D01*
X108249942Y-103822113D01*
X108377859Y-103736642D01*
X108486642Y-103627859D01*
X108572113Y-103499942D01*
X108630987Y-103357809D01*
X108661000Y-103206922D01*
X108661000Y-103053078D01*
X108630987Y-102902191D01*
X108572113Y-102760058D01*
X108486642Y-102632141D01*
X108377859Y-102523358D01*
X108249942Y-102437887D01*
X108107809Y-102379013D01*
X107956922Y-102349000D01*
X107803078Y-102349000D01*
X107652191Y-102379013D01*
X107510058Y-102437887D01*
X107382141Y-102523358D01*
X107282843Y-102622656D01*
X107282843Y-102365000D01*
X107275487Y-102290311D01*
X107253701Y-102218492D01*
X107218322Y-102152304D01*
X107170711Y-102094289D01*
X107112696Y-102046678D01*
X107046508Y-102011299D01*
X106974689Y-101989513D01*
X106900000Y-101982157D01*
X106600000Y-101982157D01*
X106525311Y-101989513D01*
X106500000Y-101997191D01*
X106474689Y-101989513D01*
X106400000Y-101982157D01*
X106100000Y-101982157D01*
X106025311Y-101989513D01*
X105953492Y-102011299D01*
X105887304Y-102046678D01*
X105829289Y-102094289D01*
X105781678Y-102152304D01*
X105750000Y-102211568D01*
X105718322Y-102152304D01*
X105670711Y-102094289D01*
X105612696Y-102046678D01*
X105546508Y-102011299D01*
X105474689Y-101989513D01*
X105400000Y-101982157D01*
X105100000Y-101982157D01*
X105025311Y-101989513D01*
X105000000Y-101997191D01*
X104974689Y-101989513D01*
X104900000Y-101982157D01*
X104600000Y-101982157D01*
X104525311Y-101989513D01*
X104453492Y-102011299D01*
X104387304Y-102046678D01*
X104329289Y-102094289D01*
X104281678Y-102152304D01*
X104250000Y-102211568D01*
X104218322Y-102152304D01*
X104170711Y-102094289D01*
X104112696Y-102046678D01*
X104046508Y-102011299D01*
X103974689Y-101989513D01*
X103900000Y-101982157D01*
X103600000Y-101982157D01*
X103525311Y-101989513D01*
X103500000Y-101997191D01*
X103474689Y-101989513D01*
X103400000Y-101982157D01*
X103100000Y-101982157D01*
X103025311Y-101989513D01*
X102953492Y-102011299D01*
X102887304Y-102046678D01*
X102829289Y-102094289D01*
X102781678Y-102152304D01*
X102750000Y-102211568D01*
X102718322Y-102152304D01*
X102670711Y-102094289D01*
X102630441Y-102061240D01*
X102692572Y-101999109D01*
X102730567Y-101942244D01*
X108349000Y-101942244D01*
X108349000Y-102117756D01*
X108383241Y-102289895D01*
X108450406Y-102452047D01*
X108547915Y-102597979D01*
X108672021Y-102722085D01*
X108817953Y-102819594D01*
X108980105Y-102886759D01*
X109152244Y-102921000D01*
X109327756Y-102921000D01*
X109499895Y-102886759D01*
X109662047Y-102819594D01*
X109807979Y-102722085D01*
X109932085Y-102597979D01*
X110029594Y-102452047D01*
X110096759Y-102289895D01*
X110131000Y-102117756D01*
X110131000Y-101942244D01*
X110096759Y-101770105D01*
X110029594Y-101607953D01*
X109932085Y-101462021D01*
X109807979Y-101337915D01*
X109662047Y-101240406D01*
X109499895Y-101173241D01*
X109327756Y-101139000D01*
X109152244Y-101139000D01*
X108980105Y-101173241D01*
X108817953Y-101240406D01*
X108672021Y-101337915D01*
X108547915Y-101462021D01*
X108450406Y-101607953D01*
X108383241Y-101770105D01*
X108349000Y-101942244D01*
X102730567Y-101942244D01*
X102778043Y-101871192D01*
X102836917Y-101729059D01*
X102866930Y-101578172D01*
X102866930Y-101424328D01*
X102836917Y-101273441D01*
X102778043Y-101131308D01*
X102692572Y-101003391D01*
X102583789Y-100894608D01*
X102455872Y-100809137D01*
X102313739Y-100750263D01*
X102162852Y-100720250D01*
X102009008Y-100720250D01*
X101858121Y-100750263D01*
X101715988Y-100809137D01*
X101612723Y-100878136D01*
X101436900Y-100702313D01*
X102952750Y-100701000D01*
X103048000Y-100605750D01*
X103048000Y-100127000D01*
X103302000Y-100127000D01*
X103302000Y-100605750D01*
X103397250Y-100701000D01*
X103473940Y-100701066D01*
X103447887Y-100740058D01*
X103389013Y-100882191D01*
X103359000Y-101033078D01*
X103359000Y-101186922D01*
X103389013Y-101337809D01*
X103447887Y-101479942D01*
X103533358Y-101607859D01*
X103642141Y-101716642D01*
X103770058Y-101802113D01*
X103912191Y-101860987D01*
X104063078Y-101891000D01*
X104216922Y-101891000D01*
X104367809Y-101860987D01*
X104509942Y-101802113D01*
X104637859Y-101716642D01*
X104746642Y-101607859D01*
X104832113Y-101479942D01*
X104890987Y-101337809D01*
X104921000Y-101186922D01*
X104921000Y-101033078D01*
X104890987Y-100882191D01*
X104832113Y-100740058D01*
X104806831Y-100702221D01*
X105525000Y-100702843D01*
X105599689Y-100695487D01*
X105671508Y-100673701D01*
X105737696Y-100638322D01*
X105795711Y-100590711D01*
X105843322Y-100532696D01*
X105878701Y-100466508D01*
X105900487Y-100394689D01*
X105907843Y-100320000D01*
X106792157Y-100320000D01*
X106799513Y-100394689D01*
X106821299Y-100466508D01*
X106856678Y-100532696D01*
X106904289Y-100590711D01*
X106962304Y-100638322D01*
X107028492Y-100673701D01*
X107100311Y-100695487D01*
X107175000Y-100702843D01*
X108222750Y-100701000D01*
X108318000Y-100605750D01*
X108318000Y-100127000D01*
X108572000Y-100127000D01*
X108572000Y-100605750D01*
X108667250Y-100701000D01*
X109715000Y-100702843D01*
X109789689Y-100695487D01*
X109861508Y-100673701D01*
X109927696Y-100638322D01*
X109985711Y-100590711D01*
X110033322Y-100532696D01*
X110068701Y-100466508D01*
X110090487Y-100394689D01*
X110097843Y-100320000D01*
X110096000Y-100222250D01*
X110000750Y-100127000D01*
X108572000Y-100127000D01*
X108318000Y-100127000D01*
X106889250Y-100127000D01*
X106794000Y-100222250D01*
X106792157Y-100320000D01*
X105907843Y-100320000D01*
X105906000Y-100222250D01*
X105810750Y-100127000D01*
X103302000Y-100127000D01*
X103048000Y-100127000D01*
X103028000Y-100127000D01*
X103028000Y-99873000D01*
X103048000Y-99873000D01*
X103048000Y-99394250D01*
X103302000Y-99394250D01*
X103302000Y-99873000D01*
X105810750Y-99873000D01*
X105906000Y-99777750D01*
X105907843Y-99680000D01*
X105900487Y-99605311D01*
X105878701Y-99533492D01*
X105843322Y-99467304D01*
X105795711Y-99409289D01*
X105737696Y-99361678D01*
X105671508Y-99326299D01*
X105599689Y-99304513D01*
X105525000Y-99297157D01*
X103397250Y-99299000D01*
X103302000Y-99394250D01*
X103048000Y-99394250D01*
X102952750Y-99299000D01*
X101240086Y-99297517D01*
X101248678Y-99269191D01*
X101256000Y-99194852D01*
X101258448Y-99169998D01*
X101256000Y-99145144D01*
X101256000Y-99003076D01*
X106549000Y-99003076D01*
X106549000Y-99156920D01*
X106579013Y-99307807D01*
X106637887Y-99449940D01*
X106723358Y-99577857D01*
X106795147Y-99649646D01*
X106792157Y-99680000D01*
X106794000Y-99777750D01*
X106889250Y-99873000D01*
X108318000Y-99873000D01*
X108318000Y-99394250D01*
X108572000Y-99394250D01*
X108572000Y-99873000D01*
X110000750Y-99873000D01*
X110096000Y-99777750D01*
X110097159Y-99716246D01*
X116029000Y-99716246D01*
X116029000Y-100283754D01*
X116139715Y-100840357D01*
X116356891Y-101364665D01*
X116672181Y-101836530D01*
X117073470Y-102237819D01*
X117545335Y-102553109D01*
X118069643Y-102770285D01*
X118626246Y-102881000D01*
X119193754Y-102881000D01*
X119750357Y-102770285D01*
X120274665Y-102553109D01*
X120746530Y-102237819D01*
X121147819Y-101836530D01*
X121463109Y-101364665D01*
X121680285Y-100840357D01*
X121791000Y-100283754D01*
X121791000Y-99716246D01*
X121680285Y-99159643D01*
X121463109Y-98635335D01*
X121147819Y-98163470D01*
X120746530Y-97762181D01*
X120274665Y-97446891D01*
X119750357Y-97229715D01*
X119193754Y-97119000D01*
X118626246Y-97119000D01*
X118069643Y-97229715D01*
X117545335Y-97446891D01*
X117073470Y-97762181D01*
X116672181Y-98163470D01*
X116356891Y-98635335D01*
X116139715Y-99159643D01*
X116029000Y-99716246D01*
X110097159Y-99716246D01*
X110097843Y-99680000D01*
X110090487Y-99605311D01*
X110068701Y-99533492D01*
X110033322Y-99467304D01*
X109985711Y-99409289D01*
X109927696Y-99361678D01*
X109861508Y-99326299D01*
X109789689Y-99304513D01*
X109715000Y-99297157D01*
X108667250Y-99299000D01*
X108572000Y-99394250D01*
X108318000Y-99394250D01*
X108222750Y-99299000D01*
X108082788Y-99298754D01*
X108111000Y-99156920D01*
X108111000Y-99003076D01*
X108080987Y-98852189D01*
X108022113Y-98710056D01*
X107936642Y-98582139D01*
X107827859Y-98473356D01*
X107699942Y-98387885D01*
X107557809Y-98329011D01*
X107406922Y-98298998D01*
X107253078Y-98298998D01*
X107102191Y-98329011D01*
X106960058Y-98387885D01*
X106832141Y-98473356D01*
X106723358Y-98582139D01*
X106637887Y-98710056D01*
X106579013Y-98852189D01*
X106549000Y-99003076D01*
X101256000Y-99003076D01*
X101256000Y-97799657D01*
X101281678Y-97847696D01*
X101329289Y-97905711D01*
X101387304Y-97953322D01*
X101453492Y-97988701D01*
X101525311Y-98010487D01*
X101600000Y-98017843D01*
X101900000Y-98017843D01*
X101974689Y-98010487D01*
X102000000Y-98002809D01*
X102025311Y-98010487D01*
X102100000Y-98017843D01*
X102400000Y-98017843D01*
X102474689Y-98010487D01*
X102546508Y-97988701D01*
X102612696Y-97953322D01*
X102670711Y-97905711D01*
X102718322Y-97847696D01*
X102750000Y-97788432D01*
X102781678Y-97847696D01*
X102829289Y-97905711D01*
X102887304Y-97953322D01*
X102953492Y-97988701D01*
X103025311Y-98010487D01*
X103100000Y-98017843D01*
X103400000Y-98017843D01*
X103474689Y-98010487D01*
X103500000Y-98002809D01*
X103525311Y-98010487D01*
X103600000Y-98017843D01*
X103900000Y-98017843D01*
X103974689Y-98010487D01*
X104046508Y-97988701D01*
X104112696Y-97953322D01*
X104170711Y-97905711D01*
X104218322Y-97847696D01*
X104250000Y-97788432D01*
X104281678Y-97847696D01*
X104329289Y-97905711D01*
X104387304Y-97953322D01*
X104453492Y-97988701D01*
X104525311Y-98010487D01*
X104600000Y-98017843D01*
X104900000Y-98017843D01*
X104974689Y-98010487D01*
X105000000Y-98002809D01*
X105025311Y-98010487D01*
X105100000Y-98017843D01*
X105400000Y-98017843D01*
X105474689Y-98010487D01*
X105546508Y-97988701D01*
X105612696Y-97953322D01*
X105670711Y-97905711D01*
X105718322Y-97847696D01*
X105750000Y-97788432D01*
X105781678Y-97847696D01*
X105829289Y-97905711D01*
X105887304Y-97953322D01*
X105953492Y-97988701D01*
X106025311Y-98010487D01*
X106100000Y-98017843D01*
X106400000Y-98017843D01*
X106474689Y-98010487D01*
X106500000Y-98002809D01*
X106525311Y-98010487D01*
X106600000Y-98017843D01*
X106900000Y-98017843D01*
X106974689Y-98010487D01*
X107046508Y-97988701D01*
X107112696Y-97953322D01*
X107170711Y-97905711D01*
X107218322Y-97847696D01*
X107253701Y-97781508D01*
X107275487Y-97709689D01*
X107282843Y-97635000D01*
X107282843Y-97416000D01*
X107495154Y-97416000D01*
X107520000Y-97418447D01*
X107524895Y-97417965D01*
X107532191Y-97420987D01*
X107683078Y-97451000D01*
X107836922Y-97451000D01*
X107987809Y-97420987D01*
X108129942Y-97362113D01*
X108257859Y-97276642D01*
X108366642Y-97167859D01*
X108452113Y-97039942D01*
X108510987Y-96897809D01*
X108541000Y-96746922D01*
X108541000Y-96593078D01*
X108510987Y-96442191D01*
X108452113Y-96300058D01*
X108366642Y-96172141D01*
X108257859Y-96063358D01*
X108129942Y-95977887D01*
X107987809Y-95919013D01*
X107836922Y-95889000D01*
X107683078Y-95889000D01*
X107532191Y-95919013D01*
X107390058Y-95977887D01*
X107262141Y-96063358D01*
X107261453Y-96064046D01*
X107253701Y-96038492D01*
X107218322Y-95972304D01*
X107170711Y-95914289D01*
X107112696Y-95866678D01*
X107046508Y-95831299D01*
X106974689Y-95809513D01*
X106900000Y-95802157D01*
X106600000Y-95802157D01*
X106525311Y-95809513D01*
X106500000Y-95817191D01*
X106474689Y-95809513D01*
X106400000Y-95802157D01*
X106100000Y-95802157D01*
X106025311Y-95809513D01*
X105953492Y-95831299D01*
X105887304Y-95866678D01*
X105829289Y-95914289D01*
X105781678Y-95972304D01*
X105750000Y-96031568D01*
X105718322Y-95972304D01*
X105670711Y-95914289D01*
X105612696Y-95866678D01*
X105546508Y-95831299D01*
X105474689Y-95809513D01*
X105400000Y-95802157D01*
X105120191Y-95802157D01*
X105150987Y-95727809D01*
X105181000Y-95576922D01*
X105181000Y-95423078D01*
X105150987Y-95272191D01*
X105092113Y-95130058D01*
X105006642Y-95002141D01*
X104897859Y-94893358D01*
X104769942Y-94807887D01*
X104627809Y-94749013D01*
X104476922Y-94719000D01*
X104323078Y-94719000D01*
X104172191Y-94749013D01*
X104030058Y-94807887D01*
X103902141Y-94893358D01*
X103801499Y-94994000D01*
X103709854Y-94994000D01*
X103685000Y-94991552D01*
X103660146Y-94994000D01*
X103585807Y-95001322D01*
X103490425Y-95030255D01*
X103402521Y-95077241D01*
X103325473Y-95140473D01*
X103309628Y-95159780D01*
X102909780Y-95559629D01*
X102890474Y-95575473D01*
X102827242Y-95652521D01*
X102813480Y-95678268D01*
X102811917Y-95681193D01*
X102838089Y-95618008D01*
X102868102Y-95467121D01*
X102868102Y-95313277D01*
X102838089Y-95162390D01*
X102779215Y-95020257D01*
X102693744Y-94892340D01*
X102584961Y-94783557D01*
X102457044Y-94698086D01*
X102351819Y-94654500D01*
X107645500Y-94654500D01*
X107645500Y-94705367D01*
G37*
%TD.AperFunction*%
D22*
X97528641Y-105606642D02*
X97656558Y-105692113D01*
X97737275Y-105725547D01*
X97691912Y-105835061D01*
X97661899Y-105985948D01*
X97661899Y-106139792D01*
X97691912Y-106290679D01*
X97750786Y-106432812D01*
X97836257Y-106560729D01*
X97945040Y-106669512D01*
X98072957Y-106754983D01*
X98215090Y-106813857D01*
X98365977Y-106843870D01*
X98369000Y-106843870D01*
X98369000Y-106846922D01*
X98399013Y-106997809D01*
X98457887Y-107139942D01*
X98543358Y-107267859D01*
X98652141Y-107376642D01*
X98780058Y-107462113D01*
X98922191Y-107520987D01*
X99073078Y-107551000D01*
X99226922Y-107551000D01*
X99377809Y-107520987D01*
X99519942Y-107462113D01*
X99647859Y-107376642D01*
X99756642Y-107267859D01*
X99761218Y-107261011D01*
X99780255Y-107323771D01*
X99780256Y-107323772D01*
X99827242Y-107411676D01*
X99890474Y-107488724D01*
X99909781Y-107504569D01*
X101544716Y-109139505D01*
X101544716Y-109281835D01*
X101574729Y-109432722D01*
X101633603Y-109574855D01*
X101719074Y-109702772D01*
X101827857Y-109811555D01*
X101878660Y-109845500D01*
X100771105Y-109845500D01*
X96654500Y-105728897D01*
X96654500Y-105713214D01*
X96745691Y-105750987D01*
X96896578Y-105781000D01*
X97050422Y-105781000D01*
X97201309Y-105750987D01*
X97343442Y-105692113D01*
X97471359Y-105606642D01*
X97500000Y-105578001D01*
X97528641Y-105606642D01*
%TA.AperFunction,Conductor*%
D23*
G36*
X97528641Y-105606642D02*
G01*
X97656558Y-105692113D01*
X97737275Y-105725547D01*
X97691912Y-105835061D01*
X97661899Y-105985948D01*
X97661899Y-106139792D01*
X97691912Y-106290679D01*
X97750786Y-106432812D01*
X97836257Y-106560729D01*
X97945040Y-106669512D01*
X98072957Y-106754983D01*
X98215090Y-106813857D01*
X98365977Y-106843870D01*
X98369000Y-106843870D01*
X98369000Y-106846922D01*
X98399013Y-106997809D01*
X98457887Y-107139942D01*
X98543358Y-107267859D01*
X98652141Y-107376642D01*
X98780058Y-107462113D01*
X98922191Y-107520987D01*
X99073078Y-107551000D01*
X99226922Y-107551000D01*
X99377809Y-107520987D01*
X99519942Y-107462113D01*
X99647859Y-107376642D01*
X99756642Y-107267859D01*
X99761218Y-107261011D01*
X99780255Y-107323771D01*
X99780256Y-107323772D01*
X99827242Y-107411676D01*
X99890474Y-107488724D01*
X99909781Y-107504569D01*
X101544716Y-109139505D01*
X101544716Y-109281835D01*
X101574729Y-109432722D01*
X101633603Y-109574855D01*
X101719074Y-109702772D01*
X101827857Y-109811555D01*
X101878660Y-109845500D01*
X100771105Y-109845500D01*
X96654500Y-105728897D01*
X96654500Y-105713214D01*
X96745691Y-105750987D01*
X96896578Y-105781000D01*
X97050422Y-105781000D01*
X97201309Y-105750987D01*
X97343442Y-105692113D01*
X97471359Y-105606642D01*
X97500000Y-105578001D01*
X97528641Y-105606642D01*
G37*
%TD.AperFunction*%
D22*
X97663427Y-93420268D02*
X97613556Y-93461197D01*
X97594221Y-93477065D01*
X97579989Y-93494407D01*
X95494408Y-95579989D01*
X95477066Y-95594221D01*
X95462834Y-95611563D01*
X95462832Y-95611565D01*
X95420269Y-95663428D01*
X95382704Y-95733708D01*
X95378066Y-95742385D01*
X95352076Y-95828058D01*
X95346167Y-95888058D01*
X95344841Y-95901526D01*
X95329289Y-95914289D01*
X95281678Y-95972304D01*
X95250000Y-96031568D01*
X95218322Y-95972304D01*
X95204500Y-95955462D01*
X95204500Y-95844824D01*
X95206699Y-95822499D01*
X95204301Y-95798151D01*
X95197924Y-95733401D01*
X95171935Y-95647728D01*
X95168436Y-95641182D01*
X95154500Y-95615109D01*
X95154500Y-95439470D01*
X95156698Y-95417155D01*
X95154500Y-95394840D01*
X95154500Y-95394828D01*
X95147924Y-95328058D01*
X95121935Y-95242385D01*
X95097104Y-95195930D01*
X95079731Y-95163427D01*
X95037168Y-95111563D01*
X95037163Y-95111558D01*
X95022935Y-95094221D01*
X95005598Y-95079993D01*
X94685132Y-94759528D01*
X94793078Y-94781000D01*
X94946922Y-94781000D01*
X95097809Y-94750987D01*
X95239942Y-94692113D01*
X95367859Y-94606642D01*
X95476642Y-94497859D01*
X95562113Y-94369942D01*
X95620987Y-94227809D01*
X95651000Y-94076922D01*
X95651000Y-93923078D01*
X95620987Y-93772191D01*
X95562113Y-93630058D01*
X95476642Y-93502141D01*
X95380501Y-93406000D01*
X97690121Y-93406000D01*
X97663427Y-93420268D01*
%TA.AperFunction,Conductor*%
D23*
G36*
X97663427Y-93420268D02*
G01*
X97613556Y-93461197D01*
X97594221Y-93477065D01*
X97579989Y-93494407D01*
X95494408Y-95579989D01*
X95477066Y-95594221D01*
X95462834Y-95611563D01*
X95462832Y-95611565D01*
X95420269Y-95663428D01*
X95382704Y-95733708D01*
X95378066Y-95742385D01*
X95352076Y-95828058D01*
X95346167Y-95888058D01*
X95344841Y-95901526D01*
X95329289Y-95914289D01*
X95281678Y-95972304D01*
X95250000Y-96031568D01*
X95218322Y-95972304D01*
X95204500Y-95955462D01*
X95204500Y-95844824D01*
X95206699Y-95822499D01*
X95204301Y-95798151D01*
X95197924Y-95733401D01*
X95171935Y-95647728D01*
X95168436Y-95641182D01*
X95154500Y-95615109D01*
X95154500Y-95439470D01*
X95156698Y-95417155D01*
X95154500Y-95394840D01*
X95154500Y-95394828D01*
X95147924Y-95328058D01*
X95121935Y-95242385D01*
X95097104Y-95195930D01*
X95079731Y-95163427D01*
X95037168Y-95111563D01*
X95037163Y-95111558D01*
X95022935Y-95094221D01*
X95005598Y-95079993D01*
X94685132Y-94759528D01*
X94793078Y-94781000D01*
X94946922Y-94781000D01*
X95097809Y-94750987D01*
X95239942Y-94692113D01*
X95367859Y-94606642D01*
X95476642Y-94497859D01*
X95562113Y-94369942D01*
X95620987Y-94227809D01*
X95651000Y-94076922D01*
X95651000Y-93923078D01*
X95620987Y-93772191D01*
X95562113Y-93630058D01*
X95476642Y-93502141D01*
X95380501Y-93406000D01*
X97690121Y-93406000D01*
X97663427Y-93420268D01*
G37*
%TD.AperFunction*%
D22*
X101717160Y-94698086D02*
X101589243Y-94783557D01*
X101480460Y-94892340D01*
X101394989Y-95020257D01*
X101336115Y-95162390D01*
X101327387Y-95206269D01*
X101322480Y-95202242D01*
X101234576Y-95155256D01*
X101139194Y-95126323D01*
X101064855Y-95119001D01*
X101064847Y-95119001D01*
X101040001Y-95116554D01*
X101015155Y-95119001D01*
X99084725Y-95119001D01*
X99006642Y-95002141D01*
X98897859Y-94893358D01*
X98769942Y-94807887D01*
X98627809Y-94749013D01*
X98476922Y-94719000D01*
X98323078Y-94719000D01*
X98177683Y-94747921D01*
X98271104Y-94654500D01*
X101822385Y-94654500D01*
X101717160Y-94698086D01*
%TA.AperFunction,Conductor*%
D23*
G36*
X101717160Y-94698086D02*
G01*
X101589243Y-94783557D01*
X101480460Y-94892340D01*
X101394989Y-95020257D01*
X101336115Y-95162390D01*
X101327387Y-95206269D01*
X101322480Y-95202242D01*
X101234576Y-95155256D01*
X101139194Y-95126323D01*
X101064855Y-95119001D01*
X101064847Y-95119001D01*
X101040001Y-95116554D01*
X101015155Y-95119001D01*
X99084725Y-95119001D01*
X99006642Y-95002141D01*
X98897859Y-94893358D01*
X98769942Y-94807887D01*
X98627809Y-94749013D01*
X98476922Y-94719000D01*
X98323078Y-94719000D01*
X98177683Y-94747921D01*
X98271104Y-94654500D01*
X101822385Y-94654500D01*
X101717160Y-94698086D01*
G37*
%TD.AperFunction*%
%TD*%
M02*
