G04 #@! TF.GenerationSoftware,KiCad,Pcbnew,5.1.7-a382d34a8~88~ubuntu20.04.1*
G04 #@! TF.CreationDate,2021-04-18T20:21:47-07:00*
G04 #@! TF.ProjectId,ft4232h-breakout,66743432-3332-4682-9d62-7265616b6f75,Apr2021*
G04 #@! TF.SameCoordinates,Original*
G04 #@! TF.FileFunction,Other,Fab,Top*
%FSLAX46Y46*%
G04 Gerber Fmt 4.6, Leading zero omitted, Abs format (unit mm)*
G04 Created by KiCad (PCBNEW 5.1.7-a382d34a8~88~ubuntu20.04.1) date 2021-04-18 20:21:47*
%MOMM*%
%LPD*%
G01*
G04 APERTURE LIST*
%ADD10C,0.100000*%
G04 APERTURE END LIST*
D10*
G04 #@! TO.C,R1*
X94580000Y-93615000D02*
X94580000Y-95615000D01*
X93380000Y-93615000D02*
X94580000Y-93615000D01*
X93380000Y-95615000D02*
X93380000Y-93615000D01*
X94580000Y-95615000D02*
X93380000Y-95615000D01*
G04 #@! TO.C,J9*
X71755000Y-92710000D02*
X73660000Y-92710000D01*
X73660000Y-92710000D02*
X73660000Y-97790000D01*
X73660000Y-97790000D02*
X71120000Y-97790000D01*
X71120000Y-97790000D02*
X71120000Y-93345000D01*
X71120000Y-93345000D02*
X71755000Y-92710000D01*
G04 #@! TO.C,J5*
X75765000Y-83185000D02*
X79175000Y-83185000D01*
X78740000Y-89535000D02*
X75765000Y-89535000D01*
X79175000Y-83185000D02*
X79175000Y-89100000D01*
X79175000Y-89100000D02*
X78740000Y-89535000D01*
X75765000Y-89535000D02*
X75765000Y-83185000D01*
X79175000Y-89100000D02*
X80220000Y-89100000D01*
X80220000Y-89100000D02*
X80220000Y-88700000D01*
X80220000Y-88700000D02*
X79175000Y-88700000D01*
X75765000Y-89100000D02*
X74720000Y-89100000D01*
X74720000Y-89100000D02*
X74720000Y-88700000D01*
X74720000Y-88700000D02*
X75765000Y-88700000D01*
X79175000Y-87830000D02*
X80220000Y-87830000D01*
X80220000Y-87830000D02*
X80220000Y-87430000D01*
X80220000Y-87430000D02*
X79175000Y-87430000D01*
X75765000Y-87830000D02*
X74720000Y-87830000D01*
X74720000Y-87830000D02*
X74720000Y-87430000D01*
X74720000Y-87430000D02*
X75765000Y-87430000D01*
X79175000Y-86560000D02*
X80220000Y-86560000D01*
X80220000Y-86560000D02*
X80220000Y-86160000D01*
X80220000Y-86160000D02*
X79175000Y-86160000D01*
X75765000Y-86560000D02*
X74720000Y-86560000D01*
X74720000Y-86560000D02*
X74720000Y-86160000D01*
X74720000Y-86160000D02*
X75765000Y-86160000D01*
X79175000Y-85290000D02*
X80220000Y-85290000D01*
X80220000Y-85290000D02*
X80220000Y-84890000D01*
X80220000Y-84890000D02*
X79175000Y-84890000D01*
X75765000Y-85290000D02*
X74720000Y-85290000D01*
X74720000Y-85290000D02*
X74720000Y-84890000D01*
X74720000Y-84890000D02*
X75765000Y-84890000D01*
X79175000Y-84020000D02*
X80220000Y-84020000D01*
X80220000Y-84020000D02*
X80220000Y-83620000D01*
X80220000Y-83620000D02*
X79175000Y-83620000D01*
X75765000Y-84020000D02*
X74720000Y-84020000D01*
X74720000Y-84020000D02*
X74720000Y-83620000D01*
X74720000Y-83620000D02*
X75765000Y-83620000D01*
G04 #@! TO.C,J8*
X68350000Y-105090000D02*
X62350000Y-105090000D01*
X62350000Y-105730000D02*
X62350000Y-105090000D01*
X68350000Y-105730000D02*
X62350000Y-105730000D01*
X72710000Y-105090000D02*
X70890000Y-105090000D01*
X72710000Y-105730000D02*
X72710000Y-105090000D01*
X72710000Y-105730000D02*
X70890000Y-105730000D01*
X68350000Y-107630000D02*
X62350000Y-107630000D01*
X62350000Y-108270000D02*
X62350000Y-107630000D01*
X68350000Y-108270000D02*
X62350000Y-108270000D01*
X72710000Y-107630000D02*
X70890000Y-107630000D01*
X72710000Y-108270000D02*
X72710000Y-107630000D01*
X72710000Y-108270000D02*
X70890000Y-108270000D01*
X68350000Y-110170000D02*
X62350000Y-110170000D01*
X62350000Y-110810000D02*
X62350000Y-110170000D01*
X68350000Y-110810000D02*
X62350000Y-110810000D01*
X72710000Y-110170000D02*
X70890000Y-110170000D01*
X72710000Y-110810000D02*
X72710000Y-110170000D01*
X72710000Y-110810000D02*
X70890000Y-110810000D01*
X68350000Y-112710000D02*
X62350000Y-112710000D01*
X62350000Y-113350000D02*
X62350000Y-112710000D01*
X68350000Y-113350000D02*
X62350000Y-113350000D01*
X72710000Y-112710000D02*
X70890000Y-112710000D01*
X72710000Y-113350000D02*
X72710000Y-112710000D01*
X72710000Y-113350000D02*
X70890000Y-113350000D01*
X68350000Y-115250000D02*
X62350000Y-115250000D01*
X62350000Y-115890000D02*
X62350000Y-115250000D01*
X68350000Y-115890000D02*
X62350000Y-115890000D01*
X72710000Y-115250000D02*
X70890000Y-115250000D01*
X72710000Y-115890000D02*
X72710000Y-115250000D01*
X72710000Y-115890000D02*
X70890000Y-115890000D01*
X68350000Y-117790000D02*
X62350000Y-117790000D01*
X62350000Y-118430000D02*
X62350000Y-117790000D01*
X68350000Y-118430000D02*
X62350000Y-118430000D01*
X72710000Y-117790000D02*
X70890000Y-117790000D01*
X72710000Y-118430000D02*
X72710000Y-117790000D01*
X72710000Y-118430000D02*
X70890000Y-118430000D01*
X70890000Y-118745000D02*
X70255000Y-119380000D01*
X70890000Y-104140000D02*
X70890000Y-118745000D01*
X68350000Y-104140000D02*
X70890000Y-104140000D01*
X68350000Y-119380000D02*
X68350000Y-104140000D01*
X70255000Y-119380000D02*
X68350000Y-119380000D01*
G04 #@! TO.C,J7*
X130405000Y-104140000D02*
X132310000Y-104140000D01*
X132310000Y-104140000D02*
X132310000Y-121920000D01*
X132310000Y-121920000D02*
X129770000Y-121920000D01*
X129770000Y-121920000D02*
X129770000Y-104775000D01*
X129770000Y-104775000D02*
X130405000Y-104140000D01*
X127950000Y-105090000D02*
X129770000Y-105090000D01*
X127950000Y-105090000D02*
X127950000Y-105730000D01*
X127950000Y-105730000D02*
X129770000Y-105730000D01*
X132310000Y-105090000D02*
X138310000Y-105090000D01*
X138310000Y-105090000D02*
X138310000Y-105730000D01*
X132310000Y-105730000D02*
X138310000Y-105730000D01*
X127950000Y-107630000D02*
X129770000Y-107630000D01*
X127950000Y-107630000D02*
X127950000Y-108270000D01*
X127950000Y-108270000D02*
X129770000Y-108270000D01*
X132310000Y-107630000D02*
X138310000Y-107630000D01*
X138310000Y-107630000D02*
X138310000Y-108270000D01*
X132310000Y-108270000D02*
X138310000Y-108270000D01*
X127950000Y-110170000D02*
X129770000Y-110170000D01*
X127950000Y-110170000D02*
X127950000Y-110810000D01*
X127950000Y-110810000D02*
X129770000Y-110810000D01*
X132310000Y-110170000D02*
X138310000Y-110170000D01*
X138310000Y-110170000D02*
X138310000Y-110810000D01*
X132310000Y-110810000D02*
X138310000Y-110810000D01*
X127950000Y-112710000D02*
X129770000Y-112710000D01*
X127950000Y-112710000D02*
X127950000Y-113350000D01*
X127950000Y-113350000D02*
X129770000Y-113350000D01*
X132310000Y-112710000D02*
X138310000Y-112710000D01*
X138310000Y-112710000D02*
X138310000Y-113350000D01*
X132310000Y-113350000D02*
X138310000Y-113350000D01*
X127950000Y-115250000D02*
X129770000Y-115250000D01*
X127950000Y-115250000D02*
X127950000Y-115890000D01*
X127950000Y-115890000D02*
X129770000Y-115890000D01*
X132310000Y-115250000D02*
X138310000Y-115250000D01*
X138310000Y-115250000D02*
X138310000Y-115890000D01*
X132310000Y-115890000D02*
X138310000Y-115890000D01*
X127950000Y-117790000D02*
X129770000Y-117790000D01*
X127950000Y-117790000D02*
X127950000Y-118430000D01*
X127950000Y-118430000D02*
X129770000Y-118430000D01*
X132310000Y-117790000D02*
X138310000Y-117790000D01*
X138310000Y-117790000D02*
X138310000Y-118430000D01*
X132310000Y-118430000D02*
X138310000Y-118430000D01*
X127950000Y-120330000D02*
X129770000Y-120330000D01*
X127950000Y-120330000D02*
X127950000Y-120970000D01*
X127950000Y-120970000D02*
X129770000Y-120970000D01*
X132310000Y-120330000D02*
X138310000Y-120330000D01*
X138310000Y-120330000D02*
X138310000Y-120970000D01*
X132310000Y-120970000D02*
X138310000Y-120970000D01*
G04 #@! TO.C,J6*
X130405000Y-83820000D02*
X132310000Y-83820000D01*
X132310000Y-83820000D02*
X132310000Y-101600000D01*
X132310000Y-101600000D02*
X129770000Y-101600000D01*
X129770000Y-101600000D02*
X129770000Y-84455000D01*
X129770000Y-84455000D02*
X130405000Y-83820000D01*
X127950000Y-84770000D02*
X129770000Y-84770000D01*
X127950000Y-84770000D02*
X127950000Y-85410000D01*
X127950000Y-85410000D02*
X129770000Y-85410000D01*
X132310000Y-84770000D02*
X138310000Y-84770000D01*
X138310000Y-84770000D02*
X138310000Y-85410000D01*
X132310000Y-85410000D02*
X138310000Y-85410000D01*
X127950000Y-87310000D02*
X129770000Y-87310000D01*
X127950000Y-87310000D02*
X127950000Y-87950000D01*
X127950000Y-87950000D02*
X129770000Y-87950000D01*
X132310000Y-87310000D02*
X138310000Y-87310000D01*
X138310000Y-87310000D02*
X138310000Y-87950000D01*
X132310000Y-87950000D02*
X138310000Y-87950000D01*
X127950000Y-89850000D02*
X129770000Y-89850000D01*
X127950000Y-89850000D02*
X127950000Y-90490000D01*
X127950000Y-90490000D02*
X129770000Y-90490000D01*
X132310000Y-89850000D02*
X138310000Y-89850000D01*
X138310000Y-89850000D02*
X138310000Y-90490000D01*
X132310000Y-90490000D02*
X138310000Y-90490000D01*
X127950000Y-92390000D02*
X129770000Y-92390000D01*
X127950000Y-92390000D02*
X127950000Y-93030000D01*
X127950000Y-93030000D02*
X129770000Y-93030000D01*
X132310000Y-92390000D02*
X138310000Y-92390000D01*
X138310000Y-92390000D02*
X138310000Y-93030000D01*
X132310000Y-93030000D02*
X138310000Y-93030000D01*
X127950000Y-94930000D02*
X129770000Y-94930000D01*
X127950000Y-94930000D02*
X127950000Y-95570000D01*
X127950000Y-95570000D02*
X129770000Y-95570000D01*
X132310000Y-94930000D02*
X138310000Y-94930000D01*
X138310000Y-94930000D02*
X138310000Y-95570000D01*
X132310000Y-95570000D02*
X138310000Y-95570000D01*
X127950000Y-97470000D02*
X129770000Y-97470000D01*
X127950000Y-97470000D02*
X127950000Y-98110000D01*
X127950000Y-98110000D02*
X129770000Y-98110000D01*
X132310000Y-97470000D02*
X138310000Y-97470000D01*
X138310000Y-97470000D02*
X138310000Y-98110000D01*
X132310000Y-98110000D02*
X138310000Y-98110000D01*
X127950000Y-100010000D02*
X129770000Y-100010000D01*
X127950000Y-100010000D02*
X127950000Y-100650000D01*
X127950000Y-100650000D02*
X129770000Y-100650000D01*
X132310000Y-100010000D02*
X138310000Y-100010000D01*
X138310000Y-100010000D02*
X138310000Y-100650000D01*
X132310000Y-100650000D02*
X138310000Y-100650000D01*
G04 #@! TO.C,J4*
X86995000Y-123190000D02*
X87630000Y-123825000D01*
X80010000Y-123190000D02*
X86995000Y-123190000D01*
X80010000Y-125730000D02*
X80010000Y-123190000D01*
X87630000Y-125730000D02*
X80010000Y-125730000D01*
X87630000Y-123825000D02*
X87630000Y-125730000D01*
G04 #@! TO.C,J3*
X97155000Y-123190000D02*
X97790000Y-123825000D01*
X90170000Y-123190000D02*
X97155000Y-123190000D01*
X90170000Y-125730000D02*
X90170000Y-123190000D01*
X97790000Y-125730000D02*
X90170000Y-125730000D01*
X97790000Y-123825000D02*
X97790000Y-125730000D01*
G04 #@! TO.C,J2*
X107315000Y-123190000D02*
X107950000Y-123825000D01*
X100330000Y-123190000D02*
X107315000Y-123190000D01*
X100330000Y-125730000D02*
X100330000Y-123190000D01*
X107950000Y-125730000D02*
X100330000Y-125730000D01*
X107950000Y-123825000D02*
X107950000Y-125730000D01*
G04 #@! TO.C,J1*
X117475000Y-123190000D02*
X118110000Y-123825000D01*
X110490000Y-123190000D02*
X117475000Y-123190000D01*
X110490000Y-125730000D02*
X110490000Y-123190000D01*
X118110000Y-125730000D02*
X110490000Y-125730000D01*
X118110000Y-123825000D02*
X118110000Y-125730000D01*
G04 #@! TO.C,C5*
X76470000Y-90840000D02*
X78470000Y-90840000D01*
X76470000Y-92040000D02*
X76470000Y-90840000D01*
X78470000Y-92040000D02*
X76470000Y-92040000D01*
X78470000Y-90840000D02*
X78470000Y-92040000D01*
G04 #@! TO.C,C1*
X106410000Y-86325000D02*
X104410000Y-86325000D01*
X106410000Y-85125000D02*
X106410000Y-86325000D01*
X104410000Y-85125000D02*
X106410000Y-85125000D01*
X104410000Y-86325000D02*
X104410000Y-85125000D01*
G04 #@! TD*
M02*
