G04 #@! TF.GenerationSoftware,KiCad,Pcbnew,5.1.7-a382d34a8~88~ubuntu20.04.1*
G04 #@! TF.CreationDate,2021-04-18T20:21:47-07:00*
G04 #@! TF.ProjectId,ft4232h-breakout,66743432-3332-4682-9d62-7265616b6f75,Apr2021*
G04 #@! TF.SameCoordinates,Original*
G04 #@! TF.FileFunction,Paste,Bot*
G04 #@! TF.FilePolarity,Positive*
%FSLAX46Y46*%
G04 Gerber Fmt 4.6, Leading zero omitted, Abs format (unit mm)*
G04 Created by KiCad (PCBNEW 5.1.7-a382d34a8~88~ubuntu20.04.1) date 2021-04-18 20:21:47*
%MOMM*%
%LPD*%
G01*
G04 APERTURE LIST*
%ADD10C,8.000000*%
G04 APERTURE END LIST*
D10*
G04 #@! TO.C,TP1*
X99060000Y-87630000D03*
G04 #@! TD*
G04 #@! TO.C,C6*
G36*
G01*
X124916250Y-85910000D02*
X124003750Y-85910000D01*
G75*
G02*
X123760000Y-85666250I0J243750D01*
G01*
X123760000Y-85178750D01*
G75*
G02*
X124003750Y-84935000I243750J0D01*
G01*
X124916250Y-84935000D01*
G75*
G02*
X125160000Y-85178750I0J-243750D01*
G01*
X125160000Y-85666250D01*
G75*
G02*
X124916250Y-85910000I-243750J0D01*
G01*
G37*
G36*
G01*
X124916250Y-87785000D02*
X124003750Y-87785000D01*
G75*
G02*
X123760000Y-87541250I0J243750D01*
G01*
X123760000Y-87053750D01*
G75*
G02*
X124003750Y-86810000I243750J0D01*
G01*
X124916250Y-86810000D01*
G75*
G02*
X125160000Y-87053750I0J-243750D01*
G01*
X125160000Y-87541250D01*
G75*
G02*
X124916250Y-87785000I-243750J0D01*
G01*
G37*
G04 #@! TD*
G04 #@! TO.C,C4*
G36*
G01*
X76656250Y-116390000D02*
X75743750Y-116390000D01*
G75*
G02*
X75500000Y-116146250I0J243750D01*
G01*
X75500000Y-115658750D01*
G75*
G02*
X75743750Y-115415000I243750J0D01*
G01*
X76656250Y-115415000D01*
G75*
G02*
X76900000Y-115658750I0J-243750D01*
G01*
X76900000Y-116146250D01*
G75*
G02*
X76656250Y-116390000I-243750J0D01*
G01*
G37*
G36*
G01*
X76656250Y-118265000D02*
X75743750Y-118265000D01*
G75*
G02*
X75500000Y-118021250I0J243750D01*
G01*
X75500000Y-117533750D01*
G75*
G02*
X75743750Y-117290000I243750J0D01*
G01*
X76656250Y-117290000D01*
G75*
G02*
X76900000Y-117533750I0J-243750D01*
G01*
X76900000Y-118021250D01*
G75*
G02*
X76656250Y-118265000I-243750J0D01*
G01*
G37*
G04 #@! TD*
G04 #@! TO.C,C3*
G36*
G01*
X124916250Y-106230000D02*
X124003750Y-106230000D01*
G75*
G02*
X123760000Y-105986250I0J243750D01*
G01*
X123760000Y-105498750D01*
G75*
G02*
X124003750Y-105255000I243750J0D01*
G01*
X124916250Y-105255000D01*
G75*
G02*
X125160000Y-105498750I0J-243750D01*
G01*
X125160000Y-105986250D01*
G75*
G02*
X124916250Y-106230000I-243750J0D01*
G01*
G37*
G36*
G01*
X124916250Y-108105000D02*
X124003750Y-108105000D01*
G75*
G02*
X123760000Y-107861250I0J243750D01*
G01*
X123760000Y-107373750D01*
G75*
G02*
X124003750Y-107130000I243750J0D01*
G01*
X124916250Y-107130000D01*
G75*
G02*
X125160000Y-107373750I0J-243750D01*
G01*
X125160000Y-107861250D01*
G75*
G02*
X124916250Y-108105000I-243750J0D01*
G01*
G37*
G04 #@! TD*
G04 #@! TO.C,C2*
G36*
G01*
X82728750Y-89350000D02*
X83641250Y-89350000D01*
G75*
G02*
X83885000Y-89593750I0J-243750D01*
G01*
X83885000Y-90081250D01*
G75*
G02*
X83641250Y-90325000I-243750J0D01*
G01*
X82728750Y-90325000D01*
G75*
G02*
X82485000Y-90081250I0J243750D01*
G01*
X82485000Y-89593750D01*
G75*
G02*
X82728750Y-89350000I243750J0D01*
G01*
G37*
G36*
G01*
X82728750Y-87475000D02*
X83641250Y-87475000D01*
G75*
G02*
X83885000Y-87718750I0J-243750D01*
G01*
X83885000Y-88206250D01*
G75*
G02*
X83641250Y-88450000I-243750J0D01*
G01*
X82728750Y-88450000D01*
G75*
G02*
X82485000Y-88206250I0J243750D01*
G01*
X82485000Y-87718750D01*
G75*
G02*
X82728750Y-87475000I243750J0D01*
G01*
G37*
G04 #@! TD*
M02*
