M48
; DRILL file {KiCad 5.1.7-a382d34a8~88~ubuntu20.04.1} date Sat Jan 30 07:14:23 2021
; FORMAT={-:-/ absolute / metric / decimal}
; #@! TF.CreationDate,2021-01-30T07:14:23-08:00
; #@! TF.GenerationSoftware,Kicad,Pcbnew,5.1.7-a382d34a8~88~ubuntu20.04.1
FMAT,2
METRIC
T1C0.400
T2C1.000
%
G90
G05
T1
X128.3Y-99.6
X132.3Y-88.1
T2
X131.46Y-90.65
X131.46Y-93.19
X131.46Y-95.73
X131.46Y-98.27
X131.46Y-100.81
X131.46Y-103.35
X134.0Y-90.65
X134.0Y-93.19
X134.0Y-95.73
X134.0Y-98.27
X134.0Y-100.81
X134.0Y-103.35
X119.46Y-83.856
X119.46Y-86.396
X119.46Y-88.936
X122.0Y-83.856
X122.0Y-86.396
X122.0Y-88.936
X119.46Y-93.0
X119.46Y-95.54
X119.46Y-98.08
X119.46Y-100.62
X119.46Y-103.16
X122.0Y-93.0
X122.0Y-95.54
X122.0Y-98.08
X122.0Y-100.62
X122.0Y-103.16
T0
M30
