  0
SECTION
  2
HEADER
  9
$ANGBASE
  50
0.0
  9
$ANGDIR
  70
1
  9
$MEASUREMENT
  70
1
  0
ENDSEC
  0
SECTION
  2
TABLES
  0
TABLE
  2
LTYPE
  70
4
  0
LTYPE
  5
40F
  2
CONTINUOUS
  70
0
  3
Solid line
  72
65
  73
0
  40
0.0
  0
LTYPE
  5
410
  2
DASHDOT
 70
0
  3
Dash Dot ____ _ ____ _
 72
65
 73
4
 40
2.0
 49
1.25
 49
-0.25
 49
0.25
 49
-0.25
  0
LTYPE
  5
411
  2
DASHED
 70
0
  3
Dashed __ __ __ __ __
 72
65
 73
2
 40
0.75
 49
0.5
 49
-0.25
  0
LTYPE
  5
43B
  2
DOTTED
 70
0
  3
Dotted .  .  .  .
 72
65
 73
2
 40
0.2
 49
0.0
 49
-0.2
  0
ENDTAB
  0
TABLE
  2
STYLE
  70
4
  0
STYLE
  2
KICAD
  70
0
  40
0
  41
1
  42
1
  50
0
  71
0
  3
isocp.shx
  0
STYLE
  2
KICADB
  70
0
  40
0
  41
1
  42
1
  50
0
  71
0
  3
isocp.shx
  0
STYLE
  2
KICADI
  70
0
  40
0
  41
1
  42
1
  50
15
  71
0
  3
isocp.shx
  0
STYLE
  2
KICADBI
  70
0
  40
0
  41
1
  42
1
  50
15
  71
0
  3
isocp.shx
  0
ENDTAB
  0
TABLE
  2
LAYER
  70
1
  0
LAYER
  2
BLACK
  70
0
  62
7
  6
CONTINUOUS
  0
ENDTAB
  0
ENDSEC
  0
SECTION
  2
ENTITIES
0
LINE
8
BLACK
6
CONTINUOUS
10
105.816
20
-131.697
11
104.892
21
-131.996
0
LINE
8
BLACK
6
CONTINUOUS
10
106.675
20
-132.035
11
105.816
21
-131.697
0
LINE
8
BLACK
6
CONTINUOUS
10
75.6117
20
-133.619
11
75.4191
21
-133.621
0
LINE
8
BLACK
6
CONTINUOUS
10
75.4191
20
-133.621
11
75.2263
21
-133.623
0
LINE
8
BLACK
6
CONTINUOUS
10
75.2263
20
-133.623
11
75.0345
21
-133.624
0
LINE
8
BLACK
6
CONTINUOUS
10
75.0345
20
-133.624
11
74.845
21
-133.624
0
LINE
8
BLACK
6
CONTINUOUS
10
74.845
20
-133.624
11
74.659
21
-133.624
0
LINE
8
BLACK
6
CONTINUOUS
10
74.659
20
-133.624
11
74.4778
21
-133.622
0
LINE
8
BLACK
6
CONTINUOUS
10
74.4778
20
-133.622
11
74.3025
21
-133.62
0
LINE
8
BLACK
6
CONTINUOUS
10
74.3025
20
-133.62
11
74.1345
21
-133.617
0
LINE
8
BLACK
6
CONTINUOUS
10
74.1345
20
-133.617
11
73.9749
21
-133.614
0
LINE
8
BLACK
6
CONTINUOUS
10
73.9749
20
-133.614
11
73.825
21
-133.61
0
LINE
8
BLACK
6
CONTINUOUS
10
73.825
20
-133.61
11
73.6861
21
-133.605
0
LINE
8
BLACK
6
CONTINUOUS
10
73.6861
20
-133.605
11
73.5593
21
-133.6
0
LINE
8
BLACK
6
CONTINUOUS
10
73.5593
20
-133.6
11
73.4459
21
-133.594
0
LINE
8
BLACK
6
CONTINUOUS
10
73.4459
20
-133.594
11
73.3037
21
-133.584
0
LINE
8
BLACK
6
CONTINUOUS
10
73.3037
20
-133.584
11
73.1987
21
-133.572
0
LINE
8
BLACK
6
CONTINUOUS
10
78.5032
20
-133.371
11
78.3423
21
-133.405
0
LINE
8
BLACK
6
CONTINUOUS
10
78.3423
20
-133.405
11
78.1903
21
-133.435
0
LINE
8
BLACK
6
CONTINUOUS
10
78.1903
20
-133.435
11
78.0447
21
-133.462
0
LINE
8
BLACK
6
CONTINUOUS
10
78.0447
20
-133.462
11
77.9031
21
-133.486
0
LINE
8
BLACK
6
CONTINUOUS
10
77.9031
20
-133.486
11
77.763
21
-133.507
0
LINE
8
BLACK
6
CONTINUOUS
10
77.763
20
-133.507
11
77.6219
21
-133.525
0
LINE
8
BLACK
6
CONTINUOUS
10
77.6219
20
-133.525
11
77.4773
21
-133.542
0
LINE
8
BLACK
6
CONTINUOUS
10
77.4773
20
-133.542
11
77.3268
21
-133.556
0
LINE
8
BLACK
6
CONTINUOUS
10
77.3268
20
-133.556
11
77.1679
21
-133.568
0
LINE
8
BLACK
6
CONTINUOUS
10
77.1679
20
-133.568
11
76.998
21
-133.579
0
LINE
8
BLACK
6
CONTINUOUS
10
76.998
20
-133.579
11
76.8148
21
-133.588
0
LINE
8
BLACK
6
CONTINUOUS
10
76.8148
20
-133.588
11
76.6158
21
-133.596
0
LINE
8
BLACK
6
CONTINUOUS
10
76.6158
20
-133.596
11
76.5096
21
-133.599
0
LINE
8
BLACK
6
CONTINUOUS
10
76.5096
20
-133.599
11
76.3984
21
-133.603
0
LINE
8
BLACK
6
CONTINUOUS
10
76.3984
20
-133.603
11
76.2821
21
-133.606
0
LINE
8
BLACK
6
CONTINUOUS
10
76.2821
20
-133.606
11
76.1603
21
-133.609
0
LINE
8
BLACK
6
CONTINUOUS
10
76.1603
20
-133.609
11
76.0326
21
-133.611
0
LINE
8
BLACK
6
CONTINUOUS
10
76.0326
20
-133.611
11
75.8988
21
-133.614
0
LINE
8
BLACK
6
CONTINUOUS
10
75.8988
20
-133.614
11
75.7586
21
-133.616
0
LINE
8
BLACK
6
CONTINUOUS
10
75.7586
20
-133.616
11
75.6117
21
-133.619
0
LINE
8
BLACK
6
CONTINUOUS
10
79.7602
20
-133.067
11
79.6461
21
-133.102
0
LINE
8
BLACK
6
CONTINUOUS
10
79.6461
20
-133.102
11
79.5271
21
-133.134
0
LINE
8
BLACK
6
CONTINUOUS
10
79.5271
20
-133.134
11
79.4189
21
-133.162
0
LINE
8
BLACK
6
CONTINUOUS
10
79.4189
20
-133.162
11
79.2969
21
-133.192
0
LINE
8
BLACK
6
CONTINUOUS
10
79.2969
20
-133.192
11
79.1633
21
-133.224
0
LINE
8
BLACK
6
CONTINUOUS
10
79.1633
20
-133.224
11
79.0203
21
-133.257
0
LINE
8
BLACK
6
CONTINUOUS
10
79.0203
20
-133.257
11
78.9207
21
-133.28
0
LINE
8
BLACK
6
CONTINUOUS
10
78.9207
20
-133.28
11
78.8186
21
-133.303
0
LINE
8
BLACK
6
CONTINUOUS
10
78.8186
20
-133.303
11
78.7146
21
-133.326
0
LINE
8
BLACK
6
CONTINUOUS
10
78.7146
20
-133.326
11
78.6092
21
-133.349
0
LINE
8
BLACK
6
CONTINUOUS
10
78.6092
20
-133.349
11
78.5032
21
-133.371
0
LINE
8
BLACK
6
CONTINUOUS
10
80.9326
20
-133.172
11
80.8032
21
-133.146
0
LINE
8
BLACK
6
CONTINUOUS
10
80.8032
20
-133.146
11
80.6835
21
-133.123
0
LINE
8
BLACK
6
CONTINUOUS
10
80.6835
20
-133.123
11
80.5731
21
-133.102
0
LINE
8
BLACK
6
CONTINUOUS
10
80.5731
20
-133.102
11
80.4713
21
-133.085
0
LINE
8
BLACK
6
CONTINUOUS
10
80.4713
20
-133.085
11
80.3341
21
-133.063
0
LINE
8
BLACK
6
CONTINUOUS
10
80.3341
20
-133.063
11
80.214
21
-133.047
0
LINE
8
BLACK
6
CONTINUOUS
10
80.214
20
-133.047
11
80.1092
21
-133.037
0
LINE
8
BLACK
6
CONTINUOUS
10
80.1092
20
-133.037
11
79.9907
21
-133.032
0
LINE
8
BLACK
6
CONTINUOUS
10
79.9907
20
-133.032
11
79.8713
21
-133.039
0
LINE
8
BLACK
6
CONTINUOUS
10
79.8713
20
-133.039
11
79.7602
21
-133.067
0
LINE
8
BLACK
6
CONTINUOUS
10
83.9513
20
-133.36
11
83.7842
21
-133.36
0
LINE
8
BLACK
6
CONTINUOUS
10
83.7842
20
-133.36
11
83.6253
21
-133.36
0
LINE
8
BLACK
6
CONTINUOUS
10
83.6253
20
-133.36
11
83.4743
21
-133.36
0
LINE
8
BLACK
6
CONTINUOUS
10
83.4743
20
-133.36
11
83.3309
21
-133.359
0
LINE
8
BLACK
6
CONTINUOUS
10
83.3309
20
-133.359
11
83.1946
21
-133.359
0
LINE
8
BLACK
6
CONTINUOUS
10
83.1946
20
-133.359
11
83.0652
21
-133.358
0
LINE
8
BLACK
6
CONTINUOUS
10
83.0652
20
-133.358
11
82.9423
21
-133.357
0
LINE
8
BLACK
6
CONTINUOUS
10
82.9423
20
-133.357
11
82.8255
21
-133.355
0
LINE
8
BLACK
6
CONTINUOUS
10
82.8255
20
-133.355
11
82.7144
21
-133.353
0
LINE
8
BLACK
6
CONTINUOUS
10
82.7144
20
-133.353
11
82.6088
21
-133.351
0
LINE
8
BLACK
6
CONTINUOUS
10
82.6088
20
-133.351
11
82.5082
21
-133.349
0
LINE
8
BLACK
6
CONTINUOUS
10
82.5082
20
-133.349
11
82.3207
21
-133.343
0
LINE
8
BLACK
6
CONTINUOUS
10
82.3207
20
-133.343
11
82.1492
21
-133.335
0
LINE
8
BLACK
6
CONTINUOUS
10
82.1492
20
-133.335
11
81.9908
21
-133.325
0
LINE
8
BLACK
6
CONTINUOUS
10
81.9908
20
-133.325
11
81.8426
21
-133.313
0
LINE
8
BLACK
6
CONTINUOUS
10
81.8426
20
-133.313
11
81.7018
21
-133.299
0
LINE
8
BLACK
6
CONTINUOUS
10
81.7018
20
-133.299
11
81.5656
21
-133.282
0
LINE
8
BLACK
6
CONTINUOUS
10
81.5656
20
-133.282
11
81.4311
21
-133.263
0
LINE
8
BLACK
6
CONTINUOUS
10
81.4311
20
-133.263
11
81.2955
21
-133.24
0
LINE
8
BLACK
6
CONTINUOUS
10
81.2955
20
-133.24
11
81.1558
21
-133.215
0
LINE
8
BLACK
6
CONTINUOUS
10
81.1558
20
-133.215
11
81.0093
21
-133.187
0
LINE
8
BLACK
6
CONTINUOUS
10
81.0093
20
-133.187
11
80.9326
21
-133.172
0
LINE
8
BLACK
6
CONTINUOUS
10
87.0964
20
-133.128
11
86.9185
21
-133.166
0
LINE
8
BLACK
6
CONTINUOUS
10
86.9185
20
-133.166
11
86.755
21
-133.199
0
LINE
8
BLACK
6
CONTINUOUS
10
86.755
20
-133.199
11
86.6022
21
-133.228
0
LINE
8
BLACK
6
CONTINUOUS
10
86.6022
20
-133.228
11
86.4565
21
-133.253
0
LINE
8
BLACK
6
CONTINUOUS
10
86.4565
20
-133.253
11
86.3144
21
-133.275
0
LINE
8
BLACK
6
CONTINUOUS
10
86.3144
20
-133.275
11
86.1721
21
-133.294
0
LINE
8
BLACK
6
CONTINUOUS
10
86.1721
20
-133.294
11
86.0262
21
-133.309
0
LINE
8
BLACK
6
CONTINUOUS
10
86.0262
20
-133.309
11
85.8729
21
-133.322
0
LINE
8
BLACK
6
CONTINUOUS
10
85.8729
20
-133.322
11
85.7088
21
-133.333
0
LINE
8
BLACK
6
CONTINUOUS
10
85.7088
20
-133.333
11
85.5301
21
-133.341
0
LINE
8
BLACK
6
CONTINUOUS
10
85.5301
20
-133.341
11
85.3333
21
-133.347
0
LINE
8
BLACK
6
CONTINUOUS
10
85.3333
20
-133.347
11
85.227
21
-133.35
0
LINE
8
BLACK
6
CONTINUOUS
10
85.227
20
-133.35
11
85.1148
21
-133.352
0
LINE
8
BLACK
6
CONTINUOUS
10
85.1148
20
-133.352
11
84.9963
21
-133.354
0
LINE
8
BLACK
6
CONTINUOUS
10
84.9963
20
-133.354
11
84.8709
21
-133.355
0
LINE
8
BLACK
6
CONTINUOUS
10
84.8709
20
-133.355
11
84.7384
21
-133.356
0
LINE
8
BLACK
6
CONTINUOUS
10
84.7384
20
-133.356
11
84.5982
21
-133.357
0
LINE
8
BLACK
6
CONTINUOUS
10
84.5982
20
-133.357
11
84.4498
21
-133.358
0
LINE
8
BLACK
6
CONTINUOUS
10
84.4498
20
-133.358
11
84.2928
21
-133.359
0
LINE
8
BLACK
6
CONTINUOUS
10
84.2928
20
-133.359
11
84.1268
21
-133.359
0
LINE
8
BLACK
6
CONTINUOUS
10
84.1268
20
-133.359
11
83.9513
21
-133.36
0
LINE
8
BLACK
6
CONTINUOUS
10
90.7815
20
-131.932
11
90.6774
21
-131.98
0
LINE
8
BLACK
6
CONTINUOUS
10
90.6774
20
-131.98
11
90.5724
21
-132.026
0
LINE
8
BLACK
6
CONTINUOUS
10
90.5724
20
-132.026
11
90.4666
21
-132.072
0
LINE
8
BLACK
6
CONTINUOUS
10
90.4666
20
-132.072
11
90.3601
21
-132.118
0
LINE
8
BLACK
6
CONTINUOUS
10
90.3601
20
-132.118
11
90.2527
21
-132.162
0
LINE
8
BLACK
6
CONTINUOUS
10
90.2527
20
-132.162
11
90.1445
21
-132.207
0
LINE
8
BLACK
6
CONTINUOUS
10
90.1445
20
-132.207
11
90.0356
21
-132.25
0
LINE
8
BLACK
6
CONTINUOUS
10
90.0356
20
-132.25
11
89.926
21
-132.293
0
LINE
8
BLACK
6
CONTINUOUS
10
89.926
20
-132.293
11
89.8156
21
-132.336
0
LINE
8
BLACK
6
CONTINUOUS
10
89.8156
20
-132.336
11
89.7044
21
-132.377
0
LINE
8
BLACK
6
CONTINUOUS
10
89.7044
20
-132.377
11
89.5926
21
-132.418
0
LINE
8
BLACK
6
CONTINUOUS
10
89.5926
20
-132.418
11
89.48
21
-132.459
0
LINE
8
BLACK
6
CONTINUOUS
10
89.48
20
-132.459
11
89.3667
21
-132.499
0
LINE
8
BLACK
6
CONTINUOUS
10
89.3667
20
-132.499
11
89.2527
21
-132.538
0
LINE
8
BLACK
6
CONTINUOUS
10
89.2527
20
-132.538
11
89.1381
21
-132.576
0
LINE
8
BLACK
6
CONTINUOUS
10
89.1381
20
-132.576
11
89.0228
21
-132.614
0
LINE
8
BLACK
6
CONTINUOUS
10
89.0228
20
-132.614
11
88.9068
21
-132.651
0
LINE
8
BLACK
6
CONTINUOUS
10
88.9068
20
-132.651
11
88.7902
21
-132.688
0
LINE
8
BLACK
6
CONTINUOUS
10
88.7902
20
-132.688
11
88.673
21
-132.724
0
LINE
8
BLACK
6
CONTINUOUS
10
88.673
20
-132.724
11
88.5551
21
-132.759
0
LINE
8
BLACK
6
CONTINUOUS
10
88.5551
20
-132.759
11
88.4367
21
-132.793
0
LINE
8
BLACK
6
CONTINUOUS
10
88.4367
20
-132.793
11
88.3176
21
-132.827
0
LINE
8
BLACK
6
CONTINUOUS
10
88.3176
20
-132.827
11
88.1979
21
-132.86
0
LINE
8
BLACK
6
CONTINUOUS
10
88.1979
20
-132.86
11
88.0777
21
-132.893
0
LINE
8
BLACK
6
CONTINUOUS
10
88.0777
20
-132.893
11
87.9569
21
-132.925
0
LINE
8
BLACK
6
CONTINUOUS
10
87.9569
20
-132.925
11
87.8355
21
-132.956
0
LINE
8
BLACK
6
CONTINUOUS
10
87.8355
20
-132.956
11
87.7136
21
-132.986
0
LINE
8
BLACK
6
CONTINUOUS
10
87.7136
20
-132.986
11
87.5912
21
-133.016
0
LINE
8
BLACK
6
CONTINUOUS
10
87.5912
20
-133.016
11
87.4682
21
-133.045
0
LINE
8
BLACK
6
CONTINUOUS
10
87.4682
20
-133.045
11
87.3448
21
-133.074
0
LINE
8
BLACK
6
CONTINUOUS
10
87.3448
20
-133.074
11
87.2208
21
-133.101
0
LINE
8
BLACK
6
CONTINUOUS
10
87.2208
20
-133.101
11
87.0964
21
-133.128
0
LINE
8
BLACK
6
CONTINUOUS
10
92.4936
20
-131.543
11
92.3443
21
-131.543
0
LINE
8
BLACK
6
CONTINUOUS
10
92.3443
20
-131.543
11
92.2116
21
-131.544
0
LINE
8
BLACK
6
CONTINUOUS
10
92.2116
20
-131.544
11
92.0932
21
-131.546
0
LINE
8
BLACK
6
CONTINUOUS
10
92.0932
20
-131.546
11
91.9868
21
-131.55
0
LINE
8
BLACK
6
CONTINUOUS
10
91.9868
20
-131.55
11
91.8443
21
-131.56
0
LINE
8
BLACK
6
CONTINUOUS
10
91.8443
20
-131.56
11
91.7154
21
-131.578
0
LINE
8
BLACK
6
CONTINUOUS
10
91.7154
20
-131.578
11
91.5922
21
-131.604
0
LINE
8
BLACK
6
CONTINUOUS
10
91.5922
20
-131.604
11
91.4666
21
-131.641
0
LINE
8
BLACK
6
CONTINUOUS
10
91.4666
20
-131.641
11
91.3307
21
-131.691
0
LINE
8
BLACK
6
CONTINUOUS
10
91.3307
20
-131.691
11
91.2304
21
-131.732
0
LINE
8
BLACK
6
CONTINUOUS
10
91.2304
20
-131.732
11
91.1197
21
-131.779
0
LINE
8
BLACK
6
CONTINUOUS
10
91.1197
20
-131.779
11
90.9961
21
-131.834
0
LINE
8
BLACK
6
CONTINUOUS
10
90.9961
20
-131.834
11
90.8573
21
-131.898
0
LINE
8
BLACK
6
CONTINUOUS
10
90.8573
20
-131.898
11
90.7815
21
-131.932
0
LINE
8
BLACK
6
CONTINUOUS
10
94.4743
20
-131.92
11
94.2905
21
-131.858
0
LINE
8
BLACK
6
CONTINUOUS
10
94.2905
20
-131.858
11
94.1251
21
-131.804
0
LINE
8
BLACK
6
CONTINUOUS
10
94.1251
20
-131.804
11
93.9759
21
-131.756
0
LINE
8
BLACK
6
CONTINUOUS
10
93.9759
20
-131.756
11
93.8407
21
-131.714
0
LINE
8
BLACK
6
CONTINUOUS
10
93.8407
20
-131.714
11
93.7173
21
-131.678
0
LINE
8
BLACK
6
CONTINUOUS
10
93.7173
20
-131.678
11
93.6034
21
-131.647
0
LINE
8
BLACK
6
CONTINUOUS
10
93.6034
20
-131.647
11
93.4967
21
-131.622
0
LINE
8
BLACK
6
CONTINUOUS
10
93.4967
20
-131.622
11
93.395
21
-131.601
0
LINE
8
BLACK
6
CONTINUOUS
10
93.395
20
-131.601
11
93.2961
21
-131.584
0
LINE
8
BLACK
6
CONTINUOUS
10
93.2961
20
-131.584
11
93.1481
21
-131.565
0
LINE
8
BLACK
6
CONTINUOUS
10
93.1481
20
-131.565
11
93.0464
21
-131.556
0
LINE
8
BLACK
6
CONTINUOUS
10
93.0464
20
-131.556
11
92.9396
21
-131.55
0
LINE
8
BLACK
6
CONTINUOUS
10
92.9396
20
-131.55
11
92.8255
21
-131.546
0
LINE
8
BLACK
6
CONTINUOUS
10
92.8255
20
-131.546
11
92.7018
21
-131.544
0
LINE
8
BLACK
6
CONTINUOUS
10
92.7018
20
-131.544
11
92.5664
21
-131.543
0
LINE
8
BLACK
6
CONTINUOUS
10
92.5664
20
-131.543
11
92.4936
21
-131.543
0
LINE
8
BLACK
6
CONTINUOUS
10
104.892
20
-131.996
11
104.571
21
-132.096
0
LINE
8
BLACK
6
CONTINUOUS
10
104.571
20
-132.096
11
104.248
21
-132.19
0
LINE
8
BLACK
6
CONTINUOUS
10
104.248
20
-132.19
11
103.926
21
-132.277
0
LINE
8
BLACK
6
CONTINUOUS
10
103.926
20
-132.277
11
103.602
21
-132.357
0
LINE
8
BLACK
6
CONTINUOUS
10
103.602
20
-132.357
11
103.278
21
-132.431
0
LINE
8
BLACK
6
CONTINUOUS
10
103.278
20
-132.431
11
102.953
21
-132.499
0
LINE
8
BLACK
6
CONTINUOUS
10
102.953
20
-132.499
11
102.628
21
-132.559
0
LINE
8
BLACK
6
CONTINUOUS
10
102.628
20
-132.559
11
102.302
21
-132.613
0
LINE
8
BLACK
6
CONTINUOUS
10
102.302
20
-132.613
11
101.976
21
-132.66
0
LINE
8
BLACK
6
CONTINUOUS
10
101.976
20
-132.66
11
101.65
21
-132.701
0
LINE
8
BLACK
6
CONTINUOUS
10
101.65
20
-132.701
11
101.323
21
-132.735
0
LINE
8
BLACK
6
CONTINUOUS
10
101.323
20
-132.735
11
100.996
21
-132.763
0
LINE
8
BLACK
6
CONTINUOUS
10
100.996
20
-132.763
11
100.668
21
-132.784
0
LINE
8
BLACK
6
CONTINUOUS
10
100.668
20
-132.784
11
100.341
21
-132.798
0
LINE
8
BLACK
6
CONTINUOUS
10
100.341
20
-132.798
11
100.013
21
-132.805
0
LINE
8
BLACK
6
CONTINUOUS
10
100.013
20
-132.805
11
99.6855
21
-132.806
0
LINE
8
BLACK
6
CONTINUOUS
10
99.6855
20
-132.806
11
99.3577
21
-132.801
0
LINE
8
BLACK
6
CONTINUOUS
10
99.3577
20
-132.801
11
99.03
21
-132.788
0
LINE
8
BLACK
6
CONTINUOUS
10
99.03
20
-132.788
11
98.7024
21
-132.769
0
LINE
8
BLACK
6
CONTINUOUS
10
98.7024
20
-132.769
11
98.3749
21
-132.744
0
LINE
8
BLACK
6
CONTINUOUS
10
98.3749
20
-132.744
11
98.0476
21
-132.711
0
LINE
8
BLACK
6
CONTINUOUS
10
98.0476
20
-132.711
11
97.7205
21
-132.673
0
LINE
8
BLACK
6
CONTINUOUS
10
97.7205
20
-132.673
11
97.3938
21
-132.627
0
LINE
8
BLACK
6
CONTINUOUS
10
97.3938
20
-132.627
11
97.0673
21
-132.575
0
LINE
8
BLACK
6
CONTINUOUS
10
97.0673
20
-132.575
11
96.7413
21
-132.516
0
LINE
8
BLACK
6
CONTINUOUS
10
96.7413
20
-132.516
11
96.4157
21
-132.451
0
LINE
8
BLACK
6
CONTINUOUS
10
96.4157
20
-132.451
11
96.0906
21
-132.379
0
LINE
8
BLACK
6
CONTINUOUS
10
96.0906
20
-132.379
11
95.766
21
-132.3
0
LINE
8
BLACK
6
CONTINUOUS
10
95.766
20
-132.3
11
95.4421
21
-132.215
0
LINE
8
BLACK
6
CONTINUOUS
10
95.4421
20
-132.215
11
95.1188
21
-132.123
0
LINE
8
BLACK
6
CONTINUOUS
10
95.1188
20
-132.123
11
94.7962
21
-132.025
0
LINE
8
BLACK
6
CONTINUOUS
10
94.7962
20
-132.025
11
94.4743
21
-131.92
0
LINE
8
BLACK
6
CONTINUOUS
10
147.113
20
-104.071
11
147.283
21
-104.662
0
LINE
8
BLACK
6
CONTINUOUS
10
147.396
20
-103.604
11
147.113
21
-104.071
0
LINE
8
BLACK
6
CONTINUOUS
10
109.902
20
-132.956
11
109.792
21
-132.934
0
LINE
8
BLACK
6
CONTINUOUS
10
109.792
20
-132.934
11
109.683
21
-132.911
0
LINE
8
BLACK
6
CONTINUOUS
10
109.683
20
-132.911
11
109.574
21
-132.888
0
LINE
8
BLACK
6
CONTINUOUS
10
109.574
20
-132.888
11
109.466
21
-132.865
0
LINE
8
BLACK
6
CONTINUOUS
10
109.466
20
-132.865
11
109.358
21
-132.841
0
LINE
8
BLACK
6
CONTINUOUS
10
109.358
20
-132.841
11
109.251
21
-132.817
0
LINE
8
BLACK
6
CONTINUOUS
10
109.251
20
-132.817
11
109.143
21
-132.792
0
LINE
8
BLACK
6
CONTINUOUS
10
109.143
20
-132.792
11
109.037
21
-132.767
0
LINE
8
BLACK
6
CONTINUOUS
10
109.037
20
-132.767
11
108.931
21
-132.741
0
LINE
8
BLACK
6
CONTINUOUS
10
108.931
20
-132.741
11
108.825
21
-132.715
0
LINE
8
BLACK
6
CONTINUOUS
10
108.825
20
-132.715
11
108.72
21
-132.688
0
LINE
8
BLACK
6
CONTINUOUS
10
108.72
20
-132.688
11
108.616
21
-132.661
0
LINE
8
BLACK
6
CONTINUOUS
10
108.616
20
-132.661
11
108.512
21
-132.633
0
LINE
8
BLACK
6
CONTINUOUS
10
108.512
20
-132.633
11
108.409
21
-132.605
0
LINE
8
BLACK
6
CONTINUOUS
10
108.409
20
-132.605
11
108.306
21
-132.577
0
LINE
8
BLACK
6
CONTINUOUS
10
108.306
20
-132.577
11
108.204
21
-132.548
0
LINE
8
BLACK
6
CONTINUOUS
10
108.204
20
-132.548
11
108.103
21
-132.519
0
LINE
8
BLACK
6
CONTINUOUS
10
108.103
20
-132.519
11
108.002
21
-132.489
0
LINE
8
BLACK
6
CONTINUOUS
10
108.002
20
-132.489
11
107.902
21
-132.459
0
LINE
8
BLACK
6
CONTINUOUS
10
107.902
20
-132.459
11
107.803
21
-132.429
0
LINE
8
BLACK
6
CONTINUOUS
10
107.803
20
-132.429
11
107.705
21
-132.398
0
LINE
8
BLACK
6
CONTINUOUS
10
107.705
20
-132.398
11
107.607
21
-132.367
0
LINE
8
BLACK
6
CONTINUOUS
10
107.607
20
-132.367
11
107.51
21
-132.335
0
LINE
8
BLACK
6
CONTINUOUS
10
107.51
20
-132.335
11
107.414
21
-132.303
0
LINE
8
BLACK
6
CONTINUOUS
10
107.414
20
-132.303
11
107.318
21
-132.271
0
LINE
8
BLACK
6
CONTINUOUS
10
107.318
20
-132.271
11
107.224
21
-132.239
0
LINE
8
BLACK
6
CONTINUOUS
10
107.224
20
-132.239
11
107.037
21
-132.172
0
LINE
8
BLACK
6
CONTINUOUS
10
107.037
20
-132.172
11
106.854
21
-132.104
0
LINE
8
BLACK
6
CONTINUOUS
10
106.854
20
-132.104
11
106.675
21
-132.035
0
LINE
8
BLACK
6
CONTINUOUS
10
115.585
20
-132.95
11
115.466
21
-132.97
0
LINE
8
BLACK
6
CONTINUOUS
10
115.466
20
-132.97
11
115.335
21
-132.989
0
LINE
8
BLACK
6
CONTINUOUS
10
115.335
20
-132.989
11
115.193
21
-133.007
0
LINE
8
BLACK
6
CONTINUOUS
10
115.193
20
-133.007
11
115.041
21
-133.023
0
LINE
8
BLACK
6
CONTINUOUS
10
115.041
20
-133.023
11
114.88
21
-133.038
0
LINE
8
BLACK
6
CONTINUOUS
10
114.88
20
-133.038
11
114.709
21
-133.052
0
LINE
8
BLACK
6
CONTINUOUS
10
114.709
20
-133.052
11
114.531
21
-133.065
0
LINE
8
BLACK
6
CONTINUOUS
10
114.531
20
-133.065
11
114.346
21
-133.076
0
LINE
8
BLACK
6
CONTINUOUS
10
114.346
20
-133.076
11
114.155
21
-133.086
0
LINE
8
BLACK
6
CONTINUOUS
10
114.155
20
-133.086
11
113.959
21
-133.095
0
LINE
8
BLACK
6
CONTINUOUS
10
113.959
20
-133.095
11
113.758
21
-133.102
0
LINE
8
BLACK
6
CONTINUOUS
10
113.758
20
-133.102
11
113.553
21
-133.108
0
LINE
8
BLACK
6
CONTINUOUS
10
113.553
20
-133.108
11
113.345
21
-133.113
0
LINE
8
BLACK
6
CONTINUOUS
10
113.345
20
-133.113
11
113.135
21
-133.117
0
LINE
8
BLACK
6
CONTINUOUS
10
113.135
20
-133.117
11
112.924
21
-133.119
0
LINE
8
BLACK
6
CONTINUOUS
10
112.924
20
-133.119
11
112.712
21
-133.12
0
LINE
8
BLACK
6
CONTINUOUS
10
112.712
20
-133.12
11
112.5
21
-133.119
0
LINE
8
BLACK
6
CONTINUOUS
10
112.5
20
-133.119
11
112.289
21
-133.117
0
LINE
8
BLACK
6
CONTINUOUS
10
112.289
20
-133.117
11
112.081
21
-133.114
0
LINE
8
BLACK
6
CONTINUOUS
10
112.081
20
-133.114
11
111.875
21
-133.11
0
LINE
8
BLACK
6
CONTINUOUS
10
111.875
20
-133.11
11
111.672
21
-133.104
0
LINE
8
BLACK
6
CONTINUOUS
10
111.672
20
-133.104
11
111.473
21
-133.097
0
LINE
8
BLACK
6
CONTINUOUS
10
111.473
20
-133.097
11
111.28
21
-133.089
0
LINE
8
BLACK
6
CONTINUOUS
10
111.28
20
-133.089
11
111.093
21
-133.079
0
LINE
8
BLACK
6
CONTINUOUS
10
111.093
20
-133.079
11
110.912
21
-133.069
0
LINE
8
BLACK
6
CONTINUOUS
10
110.912
20
-133.069
11
110.739
21
-133.056
0
LINE
8
BLACK
6
CONTINUOUS
10
110.739
20
-133.056
11
110.574
21
-133.043
0
LINE
8
BLACK
6
CONTINUOUS
10
110.574
20
-133.043
11
110.418
21
-133.028
0
LINE
8
BLACK
6
CONTINUOUS
10
110.418
20
-133.028
11
110.272
21
-133.012
0
LINE
8
BLACK
6
CONTINUOUS
10
110.272
20
-133.012
11
110.137
21
-132.994
0
LINE
8
BLACK
6
CONTINUOUS
10
110.137
20
-132.994
11
110.013
21
-132.976
0
LINE
8
BLACK
6
CONTINUOUS
10
110.013
20
-132.976
11
109.902
21
-132.956
0
LINE
8
BLACK
6
CONTINUOUS
10
117.194
20
-132.937
11
117.066
21
-132.912
0
LINE
8
BLACK
6
CONTINUOUS
10
117.066
20
-132.912
11
116.951
21
-132.891
0
LINE
8
BLACK
6
CONTINUOUS
10
116.951
20
-132.891
11
116.848
21
-132.873
0
LINE
8
BLACK
6
CONTINUOUS
10
116.848
20
-132.873
11
116.71
21
-132.852
0
LINE
8
BLACK
6
CONTINUOUS
10
116.71
20
-132.852
11
116.585
21
-132.839
0
LINE
8
BLACK
6
CONTINUOUS
10
116.585
20
-132.839
11
116.467
21
-132.833
0
LINE
8
BLACK
6
CONTINUOUS
10
116.467
20
-132.833
11
116.349
21
-132.836
0
LINE
8
BLACK
6
CONTINUOUS
10
116.349
20
-132.836
11
116.223
21
-132.846
0
LINE
8
BLACK
6
CONTINUOUS
10
116.223
20
-132.846
11
116.083
21
-132.863
0
LINE
8
BLACK
6
CONTINUOUS
10
116.083
20
-132.863
11
115.978
21
-132.88
0
LINE
8
BLACK
6
CONTINUOUS
10
115.978
20
-132.88
11
115.861
21
-132.899
0
LINE
8
BLACK
6
CONTINUOUS
10
115.861
20
-132.899
11
115.731
21
-132.923
0
LINE
8
BLACK
6
CONTINUOUS
10
115.731
20
-132.923
11
115.585
21
-132.95
0
LINE
8
BLACK
6
CONTINUOUS
10
122.058
20
-133.059
11
121.945
21
-133.073
0
LINE
8
BLACK
6
CONTINUOUS
10
121.945
20
-133.073
11
121.824
21
-133.085
0
LINE
8
BLACK
6
CONTINUOUS
10
121.824
20
-133.085
11
121.695
21
-133.096
0
LINE
8
BLACK
6
CONTINUOUS
10
121.695
20
-133.096
11
121.559
21
-133.105
0
LINE
8
BLACK
6
CONTINUOUS
10
121.559
20
-133.105
11
121.417
21
-133.114
0
LINE
8
BLACK
6
CONTINUOUS
10
121.417
20
-133.114
11
121.268
21
-133.121
0
LINE
8
BLACK
6
CONTINUOUS
10
121.268
20
-133.121
11
121.114
21
-133.127
0
LINE
8
BLACK
6
CONTINUOUS
10
121.114
20
-133.127
11
120.956
21
-133.132
0
LINE
8
BLACK
6
CONTINUOUS
10
120.956
20
-133.132
11
120.793
21
-133.135
0
LINE
8
BLACK
6
CONTINUOUS
10
120.793
20
-133.135
11
120.627
21
-133.138
0
LINE
8
BLACK
6
CONTINUOUS
10
120.627
20
-133.138
11
120.457
21
-133.139
0
LINE
8
BLACK
6
CONTINUOUS
10
120.457
20
-133.139
11
120.285
21
-133.14
0
LINE
8
BLACK
6
CONTINUOUS
10
120.285
20
-133.14
11
120.111
21
-133.139
0
LINE
8
BLACK
6
CONTINUOUS
10
120.111
20
-133.139
11
119.935
21
-133.137
0
LINE
8
BLACK
6
CONTINUOUS
10
119.935
20
-133.137
11
119.759
21
-133.134
0
LINE
8
BLACK
6
CONTINUOUS
10
119.759
20
-133.134
11
119.583
21
-133.13
0
LINE
8
BLACK
6
CONTINUOUS
10
119.583
20
-133.13
11
119.406
21
-133.126
0
LINE
8
BLACK
6
CONTINUOUS
10
119.406
20
-133.126
11
119.231
21
-133.12
0
LINE
8
BLACK
6
CONTINUOUS
10
119.231
20
-133.12
11
119.057
21
-133.113
0
LINE
8
BLACK
6
CONTINUOUS
10
119.057
20
-133.113
11
118.886
21
-133.105
0
LINE
8
BLACK
6
CONTINUOUS
10
118.886
20
-133.105
11
118.717
21
-133.096
0
LINE
8
BLACK
6
CONTINUOUS
10
118.717
20
-133.096
11
118.551
21
-133.086
0
LINE
8
BLACK
6
CONTINUOUS
10
118.551
20
-133.086
11
118.389
21
-133.075
0
LINE
8
BLACK
6
CONTINUOUS
10
118.389
20
-133.075
11
118.231
21
-133.063
0
LINE
8
BLACK
6
CONTINUOUS
10
118.231
20
-133.063
11
118.078
21
-133.051
0
LINE
8
BLACK
6
CONTINUOUS
10
118.078
20
-133.051
11
117.931
21
-133.037
0
LINE
8
BLACK
6
CONTINUOUS
10
117.931
20
-133.037
11
117.789
21
-133.022
0
LINE
8
BLACK
6
CONTINUOUS
10
117.789
20
-133.022
11
117.655
21
-133.007
0
LINE
8
BLACK
6
CONTINUOUS
10
117.655
20
-133.007
11
117.527
21
-132.991
0
LINE
8
BLACK
6
CONTINUOUS
10
117.527
20
-132.991
11
117.408
21
-132.974
0
LINE
8
BLACK
6
CONTINUOUS
10
117.408
20
-132.974
11
117.296
21
-132.956
0
LINE
8
BLACK
6
CONTINUOUS
10
117.296
20
-132.956
11
117.194
21
-132.937
0
LINE
8
BLACK
6
CONTINUOUS
10
124.845
20
-133.02
11
124.694
21
-133.011
0
LINE
8
BLACK
6
CONTINUOUS
10
124.694
20
-133.011
11
124.551
21
-133.004
0
LINE
8
BLACK
6
CONTINUOUS
10
124.551
20
-133.004
11
124.416
21
-132.997
0
LINE
8
BLACK
6
CONTINUOUS
10
124.416
20
-132.997
11
124.289
21
-132.99
0
LINE
8
BLACK
6
CONTINUOUS
10
124.289
20
-132.99
11
124.169
21
-132.984
0
LINE
8
BLACK
6
CONTINUOUS
10
124.169
20
-132.984
11
124.056
21
-132.978
0
LINE
8
BLACK
6
CONTINUOUS
10
124.056
20
-132.978
11
123.949
21
-132.974
0
LINE
8
BLACK
6
CONTINUOUS
10
123.949
20
-132.974
11
123.849
21
-132.969
0
LINE
8
BLACK
6
CONTINUOUS
10
123.849
20
-132.969
11
123.664
21
-132.962
0
LINE
8
BLACK
6
CONTINUOUS
10
123.664
20
-132.962
11
123.497
21
-132.958
0
LINE
8
BLACK
6
CONTINUOUS
10
123.497
20
-132.958
11
123.346
21
-132.956
0
LINE
8
BLACK
6
CONTINUOUS
10
123.346
20
-132.956
11
123.205
21
-132.957
0
LINE
8
BLACK
6
CONTINUOUS
10
123.205
20
-132.957
11
123.073
21
-132.96
0
LINE
8
BLACK
6
CONTINUOUS
10
123.073
20
-132.96
11
122.944
21
-132.966
0
LINE
8
BLACK
6
CONTINUOUS
10
122.944
20
-132.966
11
122.816
21
-132.975
0
LINE
8
BLACK
6
CONTINUOUS
10
122.816
20
-132.975
11
122.685
21
-132.986
0
LINE
8
BLACK
6
CONTINUOUS
10
122.685
20
-132.986
11
122.547
21
-133
0
LINE
8
BLACK
6
CONTINUOUS
10
122.547
20
-133
11
122.399
21
-133.017
0
LINE
8
BLACK
6
CONTINUOUS
10
122.399
20
-133.017
11
122.237
21
-133.037
0
LINE
8
BLACK
6
CONTINUOUS
10
122.237
20
-133.037
11
122.058
21
-133.059
0
LINE
8
BLACK
6
CONTINUOUS
10
138.851
20
-126.393
11
138.541
21
-126.797
0
LINE
8
BLACK
6
CONTINUOUS
10
138.541
20
-126.797
11
138.219
21
-127.19
0
LINE
8
BLACK
6
CONTINUOUS
10
138.219
20
-127.19
11
137.885
21
-127.572
0
LINE
8
BLACK
6
CONTINUOUS
10
137.885
20
-127.572
11
137.54
21
-127.943
0
LINE
8
BLACK
6
CONTINUOUS
10
137.54
20
-127.943
11
137.183
21
-128.303
0
LINE
8
BLACK
6
CONTINUOUS
10
137.183
20
-128.303
11
136.816
21
-128.651
0
LINE
8
BLACK
6
CONTINUOUS
10
136.816
20
-128.651
11
136.439
21
-128.987
0
LINE
8
BLACK
6
CONTINUOUS
10
136.439
20
-128.987
11
136.051
21
-129.311
0
LINE
8
BLACK
6
CONTINUOUS
10
136.051
20
-129.311
11
135.655
21
-129.624
0
LINE
8
BLACK
6
CONTINUOUS
10
135.655
20
-129.624
11
135.249
21
-129.924
0
LINE
8
BLACK
6
CONTINUOUS
10
135.249
20
-129.924
11
134.834
21
-130.211
0
LINE
8
BLACK
6
CONTINUOUS
10
134.834
20
-130.211
11
134.412
21
-130.486
0
LINE
8
BLACK
6
CONTINUOUS
10
134.412
20
-130.486
11
133.981
21
-130.748
0
LINE
8
BLACK
6
CONTINUOUS
10
133.981
20
-130.748
11
133.543
21
-130.996
0
LINE
8
BLACK
6
CONTINUOUS
10
133.543
20
-130.996
11
133.098
21
-131.232
0
LINE
8
BLACK
6
CONTINUOUS
10
133.098
20
-131.232
11
132.646
21
-131.454
0
LINE
8
BLACK
6
CONTINUOUS
10
132.646
20
-131.454
11
132.189
21
-131.662
0
LINE
8
BLACK
6
CONTINUOUS
10
132.189
20
-131.662
11
131.725
21
-131.857
0
LINE
8
BLACK
6
CONTINUOUS
10
131.725
20
-131.857
11
131.256
21
-132.037
0
LINE
8
BLACK
6
CONTINUOUS
10
131.256
20
-132.037
11
130.781
21
-132.203
0
LINE
8
BLACK
6
CONTINUOUS
10
130.781
20
-132.203
11
130.303
21
-132.355
0
LINE
8
BLACK
6
CONTINUOUS
10
130.303
20
-132.355
11
129.82
21
-132.492
0
LINE
8
BLACK
6
CONTINUOUS
10
129.82
20
-132.492
11
129.333
21
-132.615
0
LINE
8
BLACK
6
CONTINUOUS
10
129.333
20
-132.615
11
128.842
21
-132.722
0
LINE
8
BLACK
6
CONTINUOUS
10
128.842
20
-132.722
11
128.349
21
-132.815
0
LINE
8
BLACK
6
CONTINUOUS
10
128.349
20
-132.815
11
127.853
21
-132.892
0
LINE
8
BLACK
6
CONTINUOUS
10
127.853
20
-132.892
11
127.355
21
-132.953
0
LINE
8
BLACK
6
CONTINUOUS
10
127.355
20
-132.953
11
126.855
21
-132.999
0
LINE
8
BLACK
6
CONTINUOUS
10
126.855
20
-132.999
11
126.354
21
-133.028
0
LINE
8
BLACK
6
CONTINUOUS
10
126.354
20
-133.028
11
125.851
21
-133.042
0
LINE
8
BLACK
6
CONTINUOUS
10
125.851
20
-133.042
11
125.348
21
-133.039
0
LINE
8
BLACK
6
CONTINUOUS
10
125.348
20
-133.039
11
124.845
21
-133.02
0
LINE
8
BLACK
6
CONTINUOUS
10
139.946
20
-125.245
11
139.849
21
-125.318
0
LINE
8
BLACK
6
CONTINUOUS
10
139.849
20
-125.318
11
139.75
21
-125.399
0
LINE
8
BLACK
6
CONTINUOUS
10
139.75
20
-125.399
11
139.65
21
-125.487
0
LINE
8
BLACK
6
CONTINUOUS
10
139.65
20
-125.487
11
139.549
21
-125.582
0
LINE
8
BLACK
6
CONTINUOUS
10
139.549
20
-125.582
11
139.447
21
-125.684
0
LINE
8
BLACK
6
CONTINUOUS
10
139.447
20
-125.684
11
139.343
21
-125.793
0
LINE
8
BLACK
6
CONTINUOUS
10
139.343
20
-125.793
11
139.274
21
-125.869
0
LINE
8
BLACK
6
CONTINUOUS
10
139.274
20
-125.869
11
139.204
21
-125.949
0
LINE
8
BLACK
6
CONTINUOUS
10
139.204
20
-125.949
11
139.134
21
-126.032
0
LINE
8
BLACK
6
CONTINUOUS
10
139.134
20
-126.032
11
139.064
21
-126.118
0
LINE
8
BLACK
6
CONTINUOUS
10
139.064
20
-126.118
11
138.993
21
-126.206
0
LINE
8
BLACK
6
CONTINUOUS
10
138.993
20
-126.206
11
138.922
21
-126.298
0
LINE
8
BLACK
6
CONTINUOUS
10
138.922
20
-126.298
11
138.851
21
-126.393
0
LINE
8
BLACK
6
CONTINUOUS
10
144.093
20
-120.767
11
143.992
21
-120.923
0
LINE
8
BLACK
6
CONTINUOUS
10
143.992
20
-120.923
11
143.887
21
-121.081
0
LINE
8
BLACK
6
CONTINUOUS
10
143.887
20
-121.081
11
143.78
21
-121.238
0
LINE
8
BLACK
6
CONTINUOUS
10
143.78
20
-121.238
11
143.669
21
-121.396
0
LINE
8
BLACK
6
CONTINUOUS
10
143.669
20
-121.396
11
143.556
21
-121.553
0
LINE
8
BLACK
6
CONTINUOUS
10
143.556
20
-121.553
11
143.44
21
-121.711
0
LINE
8
BLACK
6
CONTINUOUS
10
143.44
20
-121.711
11
143.321
21
-121.868
0
LINE
8
BLACK
6
CONTINUOUS
10
143.321
20
-121.868
11
143.2
21
-122.025
0
LINE
8
BLACK
6
CONTINUOUS
10
143.2
20
-122.025
11
143.077
21
-122.181
0
LINE
8
BLACK
6
CONTINUOUS
10
143.077
20
-122.181
11
142.951
21
-122.337
0
LINE
8
BLACK
6
CONTINUOUS
10
142.951
20
-122.337
11
142.824
21
-122.491
0
LINE
8
BLACK
6
CONTINUOUS
10
142.824
20
-122.491
11
142.694
21
-122.645
0
LINE
8
BLACK
6
CONTINUOUS
10
142.694
20
-122.645
11
142.563
21
-122.797
0
LINE
8
BLACK
6
CONTINUOUS
10
142.563
20
-122.797
11
142.431
21
-122.948
0
LINE
8
BLACK
6
CONTINUOUS
10
142.431
20
-122.948
11
142.297
21
-123.097
0
LINE
8
BLACK
6
CONTINUOUS
10
142.297
20
-123.097
11
142.161
21
-123.245
0
LINE
8
BLACK
6
CONTINUOUS
10
142.161
20
-123.245
11
142.025
21
-123.39
0
LINE
8
BLACK
6
CONTINUOUS
10
142.025
20
-123.39
11
141.888
21
-123.534
0
LINE
8
BLACK
6
CONTINUOUS
10
141.888
20
-123.534
11
141.75
21
-123.675
0
LINE
8
BLACK
6
CONTINUOUS
10
141.75
20
-123.675
11
141.611
21
-123.815
0
LINE
8
BLACK
6
CONTINUOUS
10
141.611
20
-123.815
11
141.471
21
-123.951
0
LINE
8
BLACK
6
CONTINUOUS
10
141.471
20
-123.951
11
141.332
21
-124.085
0
LINE
8
BLACK
6
CONTINUOUS
10
141.332
20
-124.085
11
141.192
21
-124.217
0
LINE
8
BLACK
6
CONTINUOUS
10
141.192
20
-124.217
11
141.052
21
-124.345
0
LINE
8
BLACK
6
CONTINUOUS
10
141.052
20
-124.345
11
140.912
21
-124.47
0
LINE
8
BLACK
6
CONTINUOUS
10
140.912
20
-124.47
11
140.772
21
-124.592
0
LINE
8
BLACK
6
CONTINUOUS
10
140.772
20
-124.592
11
140.633
21
-124.71
0
LINE
8
BLACK
6
CONTINUOUS
10
140.633
20
-124.71
11
140.494
21
-124.825
0
LINE
8
BLACK
6
CONTINUOUS
10
140.494
20
-124.825
11
140.356
21
-124.936
0
LINE
8
BLACK
6
CONTINUOUS
10
140.356
20
-124.936
11
140.218
21
-125.043
0
LINE
8
BLACK
6
CONTINUOUS
10
140.218
20
-125.043
11
140.082
21
-125.146
0
LINE
8
BLACK
6
CONTINUOUS
10
140.082
20
-125.146
11
139.946
21
-125.245
0
LINE
8
BLACK
6
CONTINUOUS
10
145.428
20
-118.14
11
145.377
21
-118.267
0
LINE
8
BLACK
6
CONTINUOUS
10
145.377
20
-118.267
11
145.315
21
-118.41
0
LINE
8
BLACK
6
CONTINUOUS
10
145.315
20
-118.41
11
145.245
21
-118.566
0
LINE
8
BLACK
6
CONTINUOUS
10
145.245
20
-118.566
11
145.167
21
-118.735
0
LINE
8
BLACK
6
CONTINUOUS
10
145.167
20
-118.735
11
145.083
21
-118.912
0
LINE
8
BLACK
6
CONTINUOUS
10
145.083
20
-118.912
11
145.039
21
-119.003
0
LINE
8
BLACK
6
CONTINUOUS
10
145.039
20
-119.003
11
144.994
21
-119.096
0
LINE
8
BLACK
6
CONTINUOUS
10
144.994
20
-119.096
11
144.948
21
-119.189
0
LINE
8
BLACK
6
CONTINUOUS
10
144.948
20
-119.189
11
144.901
21
-119.284
0
LINE
8
BLACK
6
CONTINUOUS
10
144.901
20
-119.284
11
144.853
21
-119.379
0
LINE
8
BLACK
6
CONTINUOUS
10
144.853
20
-119.379
11
144.805
21
-119.474
0
LINE
8
BLACK
6
CONTINUOUS
10
144.805
20
-119.474
11
144.757
21
-119.568
0
LINE
8
BLACK
6
CONTINUOUS
10
144.757
20
-119.568
11
144.708
21
-119.663
0
LINE
8
BLACK
6
CONTINUOUS
10
144.708
20
-119.663
11
144.66
21
-119.756
0
LINE
8
BLACK
6
CONTINUOUS
10
144.66
20
-119.756
11
144.611
21
-119.849
0
LINE
8
BLACK
6
CONTINUOUS
10
144.611
20
-119.849
11
144.563
21
-119.94
0
LINE
8
BLACK
6
CONTINUOUS
10
144.563
20
-119.94
11
144.515
21
-120.03
0
LINE
8
BLACK
6
CONTINUOUS
10
144.515
20
-120.03
11
144.421
21
-120.203
0
LINE
8
BLACK
6
CONTINUOUS
10
144.421
20
-120.203
11
144.331
21
-120.365
0
LINE
8
BLACK
6
CONTINUOUS
10
144.331
20
-120.365
11
144.245
21
-120.515
0
LINE
8
BLACK
6
CONTINUOUS
10
144.245
20
-120.515
11
144.165
21
-120.65
0
LINE
8
BLACK
6
CONTINUOUS
10
144.165
20
-120.65
11
144.093
21
-120.767
0
LINE
8
BLACK
6
CONTINUOUS
10
146.187
20
-116.462
11
146.127
21
-116.59
0
LINE
8
BLACK
6
CONTINUOUS
10
146.127
20
-116.59
11
146.066
21
-116.72
0
LINE
8
BLACK
6
CONTINUOUS
10
146.066
20
-116.72
11
146.006
21
-116.849
0
LINE
8
BLACK
6
CONTINUOUS
10
146.006
20
-116.849
11
145.946
21
-116.977
0
LINE
8
BLACK
6
CONTINUOUS
10
145.946
20
-116.977
11
145.887
21
-117.104
0
LINE
8
BLACK
6
CONTINUOUS
10
145.887
20
-117.104
11
145.83
21
-117.228
0
LINE
8
BLACK
6
CONTINUOUS
10
145.83
20
-117.228
11
145.775
21
-117.349
0
LINE
8
BLACK
6
CONTINUOUS
10
145.775
20
-117.349
11
145.722
21
-117.465
0
LINE
8
BLACK
6
CONTINUOUS
10
145.722
20
-117.465
11
145.672
21
-117.577
0
LINE
8
BLACK
6
CONTINUOUS
10
145.672
20
-117.577
11
145.625
21
-117.682
0
LINE
8
BLACK
6
CONTINUOUS
10
145.625
20
-117.682
11
145.581
21
-117.781
0
LINE
8
BLACK
6
CONTINUOUS
10
145.581
20
-117.781
11
145.523
21
-117.913
0
LINE
8
BLACK
6
CONTINUOUS
10
145.523
20
-117.913
11
145.475
21
-118.026
0
LINE
8
BLACK
6
CONTINUOUS
10
145.475
20
-118.026
11
145.428
21
-118.14
0
LINE
8
BLACK
6
CONTINUOUS
10
147.597
20
-112.336
11
147.567
21
-112.474
0
LINE
8
BLACK
6
CONTINUOUS
10
147.567
20
-112.474
11
147.537
21
-112.611
0
LINE
8
BLACK
6
CONTINUOUS
10
147.537
20
-112.611
11
147.506
21
-112.747
0
LINE
8
BLACK
6
CONTINUOUS
10
147.506
20
-112.747
11
147.474
21
-112.88
0
LINE
8
BLACK
6
CONTINUOUS
10
147.474
20
-112.88
11
147.442
21
-113.013
0
LINE
8
BLACK
6
CONTINUOUS
10
147.442
20
-113.013
11
147.408
21
-113.145
0
LINE
8
BLACK
6
CONTINUOUS
10
147.408
20
-113.145
11
147.375
21
-113.275
0
LINE
8
BLACK
6
CONTINUOUS
10
147.375
20
-113.275
11
147.34
21
-113.404
0
LINE
8
BLACK
6
CONTINUOUS
10
147.34
20
-113.404
11
147.304
21
-113.532
0
LINE
8
BLACK
6
CONTINUOUS
10
147.304
20
-113.532
11
147.268
21
-113.66
0
LINE
8
BLACK
6
CONTINUOUS
10
147.268
20
-113.66
11
147.231
21
-113.787
0
LINE
8
BLACK
6
CONTINUOUS
10
147.231
20
-113.787
11
147.193
21
-113.913
0
LINE
8
BLACK
6
CONTINUOUS
10
147.193
20
-113.913
11
147.154
21
-114.039
0
LINE
8
BLACK
6
CONTINUOUS
10
147.154
20
-114.039
11
147.114
21
-114.164
0
LINE
8
BLACK
6
CONTINUOUS
10
147.114
20
-114.164
11
147.073
21
-114.289
0
LINE
8
BLACK
6
CONTINUOUS
10
147.073
20
-114.289
11
147.031
21
-114.414
0
LINE
8
BLACK
6
CONTINUOUS
10
147.031
20
-114.414
11
146.988
21
-114.538
0
LINE
8
BLACK
6
CONTINUOUS
10
146.988
20
-114.538
11
146.943
21
-114.663
0
LINE
8
BLACK
6
CONTINUOUS
10
146.943
20
-114.663
11
146.898
21
-114.787
0
LINE
8
BLACK
6
CONTINUOUS
10
146.898
20
-114.787
11
146.851
21
-114.912
0
LINE
8
BLACK
6
CONTINUOUS
10
146.851
20
-114.912
11
146.804
21
-115.038
0
LINE
8
BLACK
6
CONTINUOUS
10
146.804
20
-115.038
11
146.754
21
-115.163
0
LINE
8
BLACK
6
CONTINUOUS
10
146.754
20
-115.163
11
146.704
21
-115.289
0
LINE
8
BLACK
6
CONTINUOUS
10
146.704
20
-115.289
11
146.652
21
-115.416
0
LINE
8
BLACK
6
CONTINUOUS
10
146.652
20
-115.416
11
146.599
21
-115.543
0
LINE
8
BLACK
6
CONTINUOUS
10
146.599
20
-115.543
11
146.545
21
-115.671
0
LINE
8
BLACK
6
CONTINUOUS
10
146.545
20
-115.671
11
146.489
21
-115.8
0
LINE
8
BLACK
6
CONTINUOUS
10
146.489
20
-115.8
11
146.432
21
-115.93
0
LINE
8
BLACK
6
CONTINUOUS
10
146.432
20
-115.93
11
146.373
21
-116.061
0
LINE
8
BLACK
6
CONTINUOUS
10
146.373
20
-116.061
11
146.313
21
-116.194
0
LINE
8
BLACK
6
CONTINUOUS
10
146.313
20
-116.194
11
146.251
21
-116.327
0
LINE
8
BLACK
6
CONTINUOUS
10
146.251
20
-116.327
11
146.187
21
-116.462
0
LINE
8
BLACK
6
CONTINUOUS
10
147.829
20
-109.191
11
147.829
21
-109.366
0
LINE
8
BLACK
6
CONTINUOUS
10
147.829
20
-109.366
11
147.828
21
-109.532
0
LINE
8
BLACK
6
CONTINUOUS
10
147.828
20
-109.532
11
147.828
21
-109.689
0
LINE
8
BLACK
6
CONTINUOUS
10
147.828
20
-109.689
11
147.827
21
-109.837
0
LINE
8
BLACK
6
CONTINUOUS
10
147.827
20
-109.837
11
147.826
21
-109.978
0
LINE
8
BLACK
6
CONTINUOUS
10
147.826
20
-109.978
11
147.825
21
-110.11
0
LINE
8
BLACK
6
CONTINUOUS
10
147.825
20
-110.11
11
147.823
21
-110.236
0
LINE
8
BLACK
6
CONTINUOUS
10
147.823
20
-110.236
11
147.821
21
-110.354
0
LINE
8
BLACK
6
CONTINUOUS
10
147.821
20
-110.354
11
147.819
21
-110.466
0
LINE
8
BLACK
6
CONTINUOUS
10
147.819
20
-110.466
11
147.817
21
-110.573
0
LINE
8
BLACK
6
CONTINUOUS
10
147.817
20
-110.573
11
147.814
21
-110.674
0
LINE
8
BLACK
6
CONTINUOUS
10
147.814
20
-110.674
11
147.806
21
-110.861
0
LINE
8
BLACK
6
CONTINUOUS
10
147.806
20
-110.861
11
147.797
21
-111.032
0
LINE
8
BLACK
6
CONTINUOUS
10
147.797
20
-111.032
11
147.785
21
-111.19
0
LINE
8
BLACK
6
CONTINUOUS
10
147.785
20
-111.19
11
147.771
21
-111.339
0
LINE
8
BLACK
6
CONTINUOUS
10
147.771
20
-111.339
11
147.754
21
-111.483
0
LINE
8
BLACK
6
CONTINUOUS
10
147.754
20
-111.483
11
147.734
21
-111.625
0
LINE
8
BLACK
6
CONTINUOUS
10
147.734
20
-111.625
11
147.71
21
-111.768
0
LINE
8
BLACK
6
CONTINUOUS
10
147.71
20
-111.768
11
147.683
21
-111.917
0
LINE
8
BLACK
6
CONTINUOUS
10
147.683
20
-111.917
11
147.652
21
-112.075
0
LINE
8
BLACK
6
CONTINUOUS
10
147.652
20
-112.075
11
147.617
21
-112.245
0
LINE
8
BLACK
6
CONTINUOUS
10
147.617
20
-112.245
11
147.597
21
-112.336
0
LINE
8
BLACK
6
CONTINUOUS
10
147.283
20
-104.662
11
147.325
21
-104.81
0
LINE
8
BLACK
6
CONTINUOUS
10
147.325
20
-104.81
11
147.365
21
-104.954
0
LINE
8
BLACK
6
CONTINUOUS
10
147.365
20
-104.954
11
147.403
21
-105.093
0
LINE
8
BLACK
6
CONTINUOUS
10
147.403
20
-105.093
11
147.439
21
-105.228
0
LINE
8
BLACK
6
CONTINUOUS
10
147.439
20
-105.228
11
147.473
21
-105.36
0
LINE
8
BLACK
6
CONTINUOUS
10
147.473
20
-105.36
11
147.505
21
-105.489
0
LINE
8
BLACK
6
CONTINUOUS
10
147.505
20
-105.489
11
147.535
21
-105.615
0
LINE
8
BLACK
6
CONTINUOUS
10
147.535
20
-105.615
11
147.564
21
-105.739
0
LINE
8
BLACK
6
CONTINUOUS
10
147.564
20
-105.739
11
147.59
21
-105.862
0
LINE
8
BLACK
6
CONTINUOUS
10
147.59
20
-105.862
11
147.615
21
-105.983
0
LINE
8
BLACK
6
CONTINUOUS
10
147.615
20
-105.983
11
147.638
21
-106.103
0
LINE
8
BLACK
6
CONTINUOUS
10
147.638
20
-106.103
11
147.659
21
-106.223
0
LINE
8
BLACK
6
CONTINUOUS
10
147.659
20
-106.223
11
147.679
21
-106.343
0
LINE
8
BLACK
6
CONTINUOUS
10
147.679
20
-106.343
11
147.698
21
-106.463
0
LINE
8
BLACK
6
CONTINUOUS
10
147.698
20
-106.463
11
147.715
21
-106.585
0
LINE
8
BLACK
6
CONTINUOUS
10
147.715
20
-106.585
11
147.73
21
-106.707
0
LINE
8
BLACK
6
CONTINUOUS
10
147.73
20
-106.707
11
147.745
21
-106.831
0
LINE
8
BLACK
6
CONTINUOUS
10
147.745
20
-106.831
11
147.757
21
-106.958
0
LINE
8
BLACK
6
CONTINUOUS
10
147.757
20
-106.958
11
147.769
21
-107.087
0
LINE
8
BLACK
6
CONTINUOUS
10
147.769
20
-107.087
11
147.779
21
-107.219
0
LINE
8
BLACK
6
CONTINUOUS
10
147.779
20
-107.219
11
147.789
21
-107.354
0
LINE
8
BLACK
6
CONTINUOUS
10
147.789
20
-107.354
11
147.797
21
-107.493
0
LINE
8
BLACK
6
CONTINUOUS
10
147.797
20
-107.493
11
147.804
21
-107.637
0
LINE
8
BLACK
6
CONTINUOUS
10
147.804
20
-107.637
11
147.81
21
-107.785
0
LINE
8
BLACK
6
CONTINUOUS
10
147.81
20
-107.785
11
147.815
21
-107.938
0
LINE
8
BLACK
6
CONTINUOUS
10
147.815
20
-107.938
11
147.819
21
-108.097
0
LINE
8
BLACK
6
CONTINUOUS
10
147.819
20
-108.097
11
147.823
21
-108.262
0
LINE
8
BLACK
6
CONTINUOUS
10
147.823
20
-108.262
11
147.825
21
-108.433
0
LINE
8
BLACK
6
CONTINUOUS
10
147.825
20
-108.433
11
147.827
21
-108.611
0
LINE
8
BLACK
6
CONTINUOUS
10
147.827
20
-108.611
11
147.829
21
-108.796
0
LINE
8
BLACK
6
CONTINUOUS
10
147.829
20
-108.796
11
147.829
21
-108.989
0
LINE
8
BLACK
6
CONTINUOUS
10
147.829
20
-108.989
11
147.829
21
-109.191
0
LINE
8
BLACK
6
CONTINUOUS
10
147.721
20
-86.4497
11
148.146
21
-87.2958
0
LINE
8
BLACK
6
CONTINUOUS
10
148.05
20
-85.4665
11
147.721
21
-86.4497
0
LINE
8
BLACK
6
CONTINUOUS
10
149.704
20
-97.422
11
149.672
21
-97.6212
0
LINE
8
BLACK
6
CONTINUOUS
10
149.672
20
-97.6212
11
149.637
21
-97.82
0
LINE
8
BLACK
6
CONTINUOUS
10
149.637
20
-97.82
11
149.599
21
-98.0185
0
LINE
8
BLACK
6
CONTINUOUS
10
149.599
20
-98.0185
11
149.559
21
-98.2167
0
LINE
8
BLACK
6
CONTINUOUS
10
149.559
20
-98.2167
11
149.516
21
-98.4146
0
LINE
8
BLACK
6
CONTINUOUS
10
149.516
20
-98.4146
11
149.471
21
-98.6121
0
LINE
8
BLACK
6
CONTINUOUS
10
149.471
20
-98.6121
11
149.423
21
-98.8093
0
LINE
8
BLACK
6
CONTINUOUS
10
149.423
20
-98.8093
11
149.372
21
-99.0061
0
LINE
8
BLACK
6
CONTINUOUS
10
149.372
20
-99.0061
11
149.319
21
-99.2025
0
LINE
8
BLACK
6
CONTINUOUS
10
149.319
20
-99.2025
11
149.263
21
-99.3986
0
LINE
8
BLACK
6
CONTINUOUS
10
149.263
20
-99.3986
11
149.205
21
-99.5943
0
LINE
8
BLACK
6
CONTINUOUS
10
149.205
20
-99.5943
11
149.144
21
-99.7896
0
LINE
8
BLACK
6
CONTINUOUS
10
149.144
20
-99.7896
11
149.081
21
-99.9845
0
LINE
8
BLACK
6
CONTINUOUS
10
149.081
20
-99.9845
11
149.015
21
-100.179
0
LINE
8
BLACK
6
CONTINUOUS
10
149.015
20
-100.179
11
148.947
21
-100.373
0
LINE
8
BLACK
6
CONTINUOUS
10
148.947
20
-100.373
11
148.876
21
-100.567
0
LINE
8
BLACK
6
CONTINUOUS
10
148.876
20
-100.567
11
148.802
21
-100.76
0
LINE
8
BLACK
6
CONTINUOUS
10
148.802
20
-100.76
11
148.726
21
-100.953
0
LINE
8
BLACK
6
CONTINUOUS
10
148.726
20
-100.953
11
148.647
21
-101.145
0
LINE
8
BLACK
6
CONTINUOUS
10
148.647
20
-101.145
11
148.566
21
-101.337
0
LINE
8
BLACK
6
CONTINUOUS
10
148.566
20
-101.337
11
148.483
21
-101.529
0
LINE
8
BLACK
6
CONTINUOUS
10
148.483
20
-101.529
11
148.397
21
-101.72
0
LINE
8
BLACK
6
CONTINUOUS
10
148.397
20
-101.72
11
148.308
21
-101.911
0
LINE
8
BLACK
6
CONTINUOUS
10
148.308
20
-101.911
11
148.217
21
-102.101
0
LINE
8
BLACK
6
CONTINUOUS
10
148.217
20
-102.101
11
148.123
21
-102.29
0
LINE
8
BLACK
6
CONTINUOUS
10
148.123
20
-102.29
11
148.027
21
-102.48
0
LINE
8
BLACK
6
CONTINUOUS
10
148.027
20
-102.48
11
147.928
21
-102.668
0
LINE
8
BLACK
6
CONTINUOUS
10
147.928
20
-102.668
11
147.826
21
-102.856
0
LINE
8
BLACK
6
CONTINUOUS
10
147.826
20
-102.856
11
147.723
21
-103.044
0
LINE
8
BLACK
6
CONTINUOUS
10
147.723
20
-103.044
11
147.616
21
-103.231
0
LINE
8
BLACK
6
CONTINUOUS
10
147.616
20
-103.231
11
147.507
21
-103.418
0
LINE
8
BLACK
6
CONTINUOUS
10
147.507
20
-103.418
11
147.396
21
-103.604
0
LINE
8
BLACK
6
CONTINUOUS
10
149.71
20
-92.1727
11
149.728
21
-92.3034
0
LINE
8
BLACK
6
CONTINUOUS
10
149.728
20
-92.3034
11
149.745
21
-92.4409
0
LINE
8
BLACK
6
CONTINUOUS
10
149.745
20
-92.4409
11
149.761
21
-92.5846
0
LINE
8
BLACK
6
CONTINUOUS
10
149.761
20
-92.5846
11
149.776
21
-92.7341
0
LINE
8
BLACK
6
CONTINUOUS
10
149.776
20
-92.7341
11
149.79
21
-92.889
0
LINE
8
BLACK
6
CONTINUOUS
10
149.79
20
-92.889
11
149.802
21
-93.0488
0
LINE
8
BLACK
6
CONTINUOUS
10
149.802
20
-93.0488
11
149.813
21
-93.213
0
LINE
8
BLACK
6
CONTINUOUS
10
149.813
20
-93.213
11
149.823
21
-93.3812
0
LINE
8
BLACK
6
CONTINUOUS
10
149.823
20
-93.3812
11
149.832
21
-93.5529
0
LINE
8
BLACK
6
CONTINUOUS
10
149.832
20
-93.5529
11
149.84
21
-93.7277
0
LINE
8
BLACK
6
CONTINUOUS
10
149.84
20
-93.7277
11
149.846
21
-93.9051
0
LINE
8
BLACK
6
CONTINUOUS
10
149.846
20
-93.9051
11
149.851
21
-94.0846
0
LINE
8
BLACK
6
CONTINUOUS
10
149.851
20
-94.0846
11
149.855
21
-94.2658
0
LINE
8
BLACK
6
CONTINUOUS
10
149.855
20
-94.2658
11
149.858
21
-94.4483
0
LINE
8
BLACK
6
CONTINUOUS
10
149.858
20
-94.4483
11
149.86
21
-94.6315
0
LINE
8
BLACK
6
CONTINUOUS
10
149.86
20
-94.6315
11
149.86
21
-94.8151
0
LINE
8
BLACK
6
CONTINUOUS
10
149.86
20
-94.8151
11
149.859
21
-94.9985
0
LINE
8
BLACK
6
CONTINUOUS
10
149.859
20
-94.9985
11
149.857
21
-95.1813
0
LINE
8
BLACK
6
CONTINUOUS
10
149.857
20
-95.1813
11
149.854
21
-95.363
0
LINE
8
BLACK
6
CONTINUOUS
10
149.854
20
-95.363
11
149.85
21
-95.5433
0
LINE
8
BLACK
6
CONTINUOUS
10
149.85
20
-95.5433
11
149.844
21
-95.7216
0
LINE
8
BLACK
6
CONTINUOUS
10
149.844
20
-95.7216
11
149.837
21
-95.8974
0
LINE
8
BLACK
6
CONTINUOUS
10
149.837
20
-95.8974
11
149.829
21
-96.0704
0
LINE
8
BLACK
6
CONTINUOUS
10
149.829
20
-96.0704
11
149.82
21
-96.2401
0
LINE
8
BLACK
6
CONTINUOUS
10
149.82
20
-96.2401
11
149.81
21
-96.4059
0
LINE
8
BLACK
6
CONTINUOUS
10
149.81
20
-96.4059
11
149.798
21
-96.5675
0
LINE
8
BLACK
6
CONTINUOUS
10
149.798
20
-96.5675
11
149.786
21
-96.7243
0
LINE
8
BLACK
6
CONTINUOUS
10
149.786
20
-96.7243
11
149.772
21
-96.876
0
LINE
8
BLACK
6
CONTINUOUS
10
149.772
20
-96.876
11
149.757
21
-97.0221
0
LINE
8
BLACK
6
CONTINUOUS
10
149.757
20
-97.0221
11
149.74
21
-97.1621
0
LINE
8
BLACK
6
CONTINUOUS
10
149.74
20
-97.1621
11
149.723
21
-97.2956
0
LINE
8
BLACK
6
CONTINUOUS
10
149.723
20
-97.2956
11
149.704
21
-97.422
0
LINE
8
BLACK
6
CONTINUOUS
10
148.146
20
-87.2958
11
148.221
21
-87.448
0
LINE
8
BLACK
6
CONTINUOUS
10
148.221
20
-87.448
11
148.295
21
-87.5997
0
LINE
8
BLACK
6
CONTINUOUS
10
148.295
20
-87.5997
11
148.367
21
-87.751
0
LINE
8
BLACK
6
CONTINUOUS
10
148.367
20
-87.751
11
148.437
21
-87.9018
0
LINE
8
BLACK
6
CONTINUOUS
10
148.437
20
-87.9018
11
148.505
21
-88.0523
0
LINE
8
BLACK
6
CONTINUOUS
10
148.505
20
-88.0523
11
148.571
21
-88.2026
0
LINE
8
BLACK
6
CONTINUOUS
10
148.571
20
-88.2026
11
148.636
21
-88.3526
0
LINE
8
BLACK
6
CONTINUOUS
10
148.636
20
-88.3526
11
148.698
21
-88.5024
0
LINE
8
BLACK
6
CONTINUOUS
10
148.698
20
-88.5024
11
148.759
21
-88.652
0
LINE
8
BLACK
6
CONTINUOUS
10
148.759
20
-88.652
11
148.818
21
-88.8016
0
LINE
8
BLACK
6
CONTINUOUS
10
148.818
20
-88.8016
11
148.876
21
-88.9512
0
LINE
8
BLACK
6
CONTINUOUS
10
148.876
20
-88.9512
11
148.932
21
-89.1007
0
LINE
8
BLACK
6
CONTINUOUS
10
148.932
20
-89.1007
11
148.986
21
-89.2503
0
LINE
8
BLACK
6
CONTINUOUS
10
148.986
20
-89.2503
11
149.038
21
-89.4001
0
LINE
8
BLACK
6
CONTINUOUS
10
149.038
20
-89.4001
11
149.089
21
-89.55
0
LINE
8
BLACK
6
CONTINUOUS
10
149.089
20
-89.55
11
149.138
21
-89.7001
0
LINE
8
BLACK
6
CONTINUOUS
10
149.138
20
-89.7001
11
149.185
21
-89.8505
0
LINE
8
BLACK
6
CONTINUOUS
10
149.185
20
-89.8505
11
149.231
21
-90.0012
0
LINE
8
BLACK
6
CONTINUOUS
10
149.231
20
-90.0012
11
149.275
21
-90.1523
0
LINE
8
BLACK
6
CONTINUOUS
10
149.275
20
-90.1523
11
149.317
21
-90.3037
0
LINE
8
BLACK
6
CONTINUOUS
10
149.317
20
-90.3037
11
149.358
21
-90.4557
0
LINE
8
BLACK
6
CONTINUOUS
10
149.358
20
-90.4557
11
149.398
21
-90.6082
0
LINE
8
BLACK
6
CONTINUOUS
10
149.398
20
-90.6082
11
149.436
21
-90.7612
0
LINE
8
BLACK
6
CONTINUOUS
10
149.436
20
-90.7612
11
149.472
21
-90.9149
0
LINE
8
BLACK
6
CONTINUOUS
10
149.472
20
-90.9149
11
149.507
21
-91.0692
0
LINE
8
BLACK
6
CONTINUOUS
10
149.507
20
-91.0692
11
149.54
21
-91.2243
0
LINE
8
BLACK
6
CONTINUOUS
10
149.54
20
-91.2243
11
149.572
21
-91.3801
0
LINE
8
BLACK
6
CONTINUOUS
10
149.572
20
-91.3801
11
149.602
21
-91.5368
0
LINE
8
BLACK
6
CONTINUOUS
10
149.602
20
-91.5368
11
149.631
21
-91.6943
0
LINE
8
BLACK
6
CONTINUOUS
10
149.631
20
-91.6943
11
149.659
21
-91.8528
0
LINE
8
BLACK
6
CONTINUOUS
10
149.659
20
-91.8528
11
149.685
21
-92.0122
0
LINE
8
BLACK
6
CONTINUOUS
10
149.685
20
-92.0122
11
149.71
21
-92.1727
0
LINE
8
BLACK
6
CONTINUOUS
10
134.25
20
-63.6791
11
135.391
21
-63.9039
0
LINE
8
BLACK
6
CONTINUOUS
10
133.827
20
-62.9831
11
134.25
21
-63.6791
0
LINE
8
BLACK
6
CONTINUOUS
10
148.611
20
-83.3961
11
148.585
21
-83.512
0
LINE
8
BLACK
6
CONTINUOUS
10
148.585
20
-83.512
11
148.557
21
-83.6346
0
LINE
8
BLACK
6
CONTINUOUS
10
148.557
20
-83.6346
11
148.527
21
-83.7629
0
LINE
8
BLACK
6
CONTINUOUS
10
148.527
20
-83.7629
11
148.495
21
-83.8958
0
LINE
8
BLACK
6
CONTINUOUS
10
148.495
20
-83.8958
11
148.46
21
-84.0323
0
LINE
8
BLACK
6
CONTINUOUS
10
148.46
20
-84.0323
11
148.425
21
-84.1714
0
LINE
8
BLACK
6
CONTINUOUS
10
148.425
20
-84.1714
11
148.388
21
-84.3118
0
LINE
8
BLACK
6
CONTINUOUS
10
148.388
20
-84.3118
11
148.35
21
-84.4527
0
LINE
8
BLACK
6
CONTINUOUS
10
148.35
20
-84.4527
11
148.312
21
-84.5929
0
LINE
8
BLACK
6
CONTINUOUS
10
148.312
20
-84.5929
11
148.273
21
-84.7314
0
LINE
8
BLACK
6
CONTINUOUS
10
148.273
20
-84.7314
11
148.234
21
-84.8671
0
LINE
8
BLACK
6
CONTINUOUS
10
148.234
20
-84.8671
11
148.196
21
-84.9989
0
LINE
8
BLACK
6
CONTINUOUS
10
148.196
20
-84.9989
11
148.158
21
-85.1258
0
LINE
8
BLACK
6
CONTINUOUS
10
148.158
20
-85.1258
11
148.121
21
-85.2468
0
LINE
8
BLACK
6
CONTINUOUS
10
148.121
20
-85.2468
11
148.085
21
-85.3607
0
LINE
8
BLACK
6
CONTINUOUS
10
148.085
20
-85.3607
11
148.05
21
-85.4665
0
LINE
8
BLACK
6
CONTINUOUS
10
148.843
20
-80.1923
11
148.843
21
-80.3734
0
LINE
8
BLACK
6
CONTINUOUS
10
148.843
20
-80.3734
11
148.842
21
-80.5445
0
LINE
8
BLACK
6
CONTINUOUS
10
148.842
20
-80.5445
11
148.842
21
-80.706
0
LINE
8
BLACK
6
CONTINUOUS
10
148.842
20
-80.706
11
148.842
21
-80.8585
0
LINE
8
BLACK
6
CONTINUOUS
10
148.842
20
-80.8585
11
148.841
21
-81.0024
0
LINE
8
BLACK
6
CONTINUOUS
10
148.841
20
-81.0024
11
148.84
21
-81.1382
0
LINE
8
BLACK
6
CONTINUOUS
10
148.84
20
-81.1382
11
148.839
21
-81.2664
0
LINE
8
BLACK
6
CONTINUOUS
10
148.839
20
-81.2664
11
148.837
21
-81.3875
0
LINE
8
BLACK
6
CONTINUOUS
10
148.837
20
-81.3875
11
148.835
21
-81.5019
0
LINE
8
BLACK
6
CONTINUOUS
10
148.835
20
-81.5019
11
148.833
21
-81.6101
0
LINE
8
BLACK
6
CONTINUOUS
10
148.833
20
-81.6101
11
148.83
21
-81.7127
0
LINE
8
BLACK
6
CONTINUOUS
10
148.83
20
-81.7127
11
148.823
21
-81.9025
0
LINE
8
BLACK
6
CONTINUOUS
10
148.823
20
-81.9025
11
148.814
21
-82.0753
0
LINE
8
BLACK
6
CONTINUOUS
10
148.814
20
-82.0753
11
148.802
21
-82.2349
0
LINE
8
BLACK
6
CONTINUOUS
10
148.802
20
-82.2349
11
148.788
21
-82.3851
0
LINE
8
BLACK
6
CONTINUOUS
10
148.788
20
-82.3851
11
148.771
21
-82.5297
0
LINE
8
BLACK
6
CONTINUOUS
10
148.771
20
-82.5297
11
148.75
21
-82.6725
0
LINE
8
BLACK
6
CONTINUOUS
10
148.75
20
-82.6725
11
148.726
21
-82.8174
0
LINE
8
BLACK
6
CONTINUOUS
10
148.726
20
-82.8174
11
148.699
21
-82.9682
0
LINE
8
BLACK
6
CONTINUOUS
10
148.699
20
-82.9682
11
148.667
21
-83.1287
0
LINE
8
BLACK
6
CONTINUOUS
10
148.667
20
-83.1287
11
148.63
21
-83.3028
0
LINE
8
BLACK
6
CONTINUOUS
10
148.63
20
-83.3028
11
148.611
21
-83.3961
0
LINE
8
BLACK
6
CONTINUOUS
10
148.614
20
-77.005
11
148.652
21
-77.184
0
LINE
8
BLACK
6
CONTINUOUS
10
148.652
20
-77.184
11
148.685
21
-77.3482
0
LINE
8
BLACK
6
CONTINUOUS
10
148.685
20
-77.3482
11
148.714
21
-77.5013
0
LINE
8
BLACK
6
CONTINUOUS
10
148.714
20
-77.5013
11
148.74
21
-77.647
0
LINE
8
BLACK
6
CONTINUOUS
10
148.74
20
-77.647
11
148.762
21
-77.7892
0
LINE
8
BLACK
6
CONTINUOUS
10
148.762
20
-77.7892
11
148.78
21
-77.9316
0
LINE
8
BLACK
6
CONTINUOUS
10
148.78
20
-77.9316
11
148.796
21
-78.0779
0
LINE
8
BLACK
6
CONTINUOUS
10
148.796
20
-78.0779
11
148.809
21
-78.2319
0
LINE
8
BLACK
6
CONTINUOUS
10
148.809
20
-78.2319
11
148.819
21
-78.3974
0
LINE
8
BLACK
6
CONTINUOUS
10
148.819
20
-78.3974
11
148.827
21
-78.5781
0
LINE
8
BLACK
6
CONTINUOUS
10
148.827
20
-78.5781
11
148.833
21
-78.7777
0
LINE
8
BLACK
6
CONTINUOUS
10
148.833
20
-78.7777
11
148.835
21
-78.8858
0
LINE
8
BLACK
6
CONTINUOUS
10
148.835
20
-78.8858
11
148.837
21
-79.0001
0
LINE
8
BLACK
6
CONTINUOUS
10
148.837
20
-79.0001
11
148.839
21
-79.121
0
LINE
8
BLACK
6
CONTINUOUS
10
148.839
20
-79.121
11
148.84
21
-79.249
0
LINE
8
BLACK
6
CONTINUOUS
10
148.84
20
-79.249
11
148.841
21
-79.3846
0
LINE
8
BLACK
6
CONTINUOUS
10
148.841
20
-79.3846
11
148.842
21
-79.5282
0
LINE
8
BLACK
6
CONTINUOUS
10
148.842
20
-79.5282
11
148.842
21
-79.6803
0
LINE
8
BLACK
6
CONTINUOUS
10
148.842
20
-79.6803
11
148.842
21
-79.8414
0
LINE
8
BLACK
6
CONTINUOUS
10
148.842
20
-79.8414
11
148.843
21
-80.0119
0
LINE
8
BLACK
6
CONTINUOUS
10
148.843
20
-80.0119
11
148.843
21
-80.1923
0
LINE
8
BLACK
6
CONTINUOUS
10
146.224
20
-71.1369
11
146.324
21
-71.2907
0
LINE
8
BLACK
6
CONTINUOUS
10
146.324
20
-71.2907
11
146.422
21
-71.4475
0
LINE
8
BLACK
6
CONTINUOUS
10
146.422
20
-71.4475
11
146.519
21
-71.607
0
LINE
8
BLACK
6
CONTINUOUS
10
146.519
20
-71.607
11
146.615
21
-71.7692
0
LINE
8
BLACK
6
CONTINUOUS
10
146.615
20
-71.7692
11
146.71
21
-71.934
0
LINE
8
BLACK
6
CONTINUOUS
10
146.71
20
-71.934
11
146.803
21
-72.1013
0
LINE
8
BLACK
6
CONTINUOUS
10
146.803
20
-72.1013
11
146.895
21
-72.271
0
LINE
8
BLACK
6
CONTINUOUS
10
146.895
20
-72.271
11
146.985
21
-72.443
0
LINE
8
BLACK
6
CONTINUOUS
10
146.985
20
-72.443
11
147.074
21
-72.6172
0
LINE
8
BLACK
6
CONTINUOUS
10
147.074
20
-72.6172
11
147.162
21
-72.7935
0
LINE
8
BLACK
6
CONTINUOUS
10
147.162
20
-72.7935
11
147.248
21
-72.9718
0
LINE
8
BLACK
6
CONTINUOUS
10
147.248
20
-72.9718
11
147.332
21
-73.152
0
LINE
8
BLACK
6
CONTINUOUS
10
147.332
20
-73.152
11
147.414
21
-73.334
0
LINE
8
BLACK
6
CONTINUOUS
10
147.414
20
-73.334
11
147.495
21
-73.5177
0
LINE
8
BLACK
6
CONTINUOUS
10
147.495
20
-73.5177
11
147.574
21
-73.7031
0
LINE
8
BLACK
6
CONTINUOUS
10
147.574
20
-73.7031
11
147.651
21
-73.8899
0
LINE
8
BLACK
6
CONTINUOUS
10
147.651
20
-73.8899
11
147.727
21
-74.0782
0
LINE
8
BLACK
6
CONTINUOUS
10
147.727
20
-74.0782
11
147.801
21
-74.2677
0
LINE
8
BLACK
6
CONTINUOUS
10
147.801
20
-74.2677
11
147.872
21
-74.4585
0
LINE
8
BLACK
6
CONTINUOUS
10
147.872
20
-74.4585
11
147.942
21
-74.6504
0
LINE
8
BLACK
6
CONTINUOUS
10
147.942
20
-74.6504
11
148.01
21
-74.8434
0
LINE
8
BLACK
6
CONTINUOUS
10
148.01
20
-74.8434
11
148.076
21
-75.0372
0
LINE
8
BLACK
6
CONTINUOUS
10
148.076
20
-75.0372
11
148.139
21
-75.2319
0
LINE
8
BLACK
6
CONTINUOUS
10
148.139
20
-75.2319
11
148.201
21
-75.4273
0
LINE
8
BLACK
6
CONTINUOUS
10
148.201
20
-75.4273
11
148.261
21
-75.6234
0
LINE
8
BLACK
6
CONTINUOUS
10
148.261
20
-75.6234
11
148.318
21
-75.8199
0
LINE
8
BLACK
6
CONTINUOUS
10
148.318
20
-75.8199
11
148.373
21
-76.0169
0
LINE
8
BLACK
6
CONTINUOUS
10
148.373
20
-76.0169
11
148.426
21
-76.2143
0
LINE
8
BLACK
6
CONTINUOUS
10
148.426
20
-76.2143
11
148.476
21
-76.4118
0
LINE
8
BLACK
6
CONTINUOUS
10
148.476
20
-76.4118
11
148.525
21
-76.6095
0
LINE
8
BLACK
6
CONTINUOUS
10
148.525
20
-76.6095
11
148.571
21
-76.8073
0
LINE
8
BLACK
6
CONTINUOUS
10
148.571
20
-76.8073
11
148.614
21
-77.005
0
LINE
8
BLACK
6
CONTINUOUS
10
135.391
20
-63.9039
11
135.813
21
-63.9922
0
LINE
8
BLACK
6
CONTINUOUS
10
135.813
20
-63.9922
11
136.231
21
-64.0902
0
LINE
8
BLACK
6
CONTINUOUS
10
136.231
20
-64.0902
11
136.644
21
-64.1977
0
LINE
8
BLACK
6
CONTINUOUS
10
136.644
20
-64.1977
11
137.052
21
-64.3146
0
LINE
8
BLACK
6
CONTINUOUS
10
137.052
20
-64.3146
11
137.456
21
-64.441
0
LINE
8
BLACK
6
CONTINUOUS
10
137.456
20
-64.441
11
137.856
21
-64.5766
0
LINE
8
BLACK
6
CONTINUOUS
10
137.856
20
-64.5766
11
138.25
21
-64.7215
0
LINE
8
BLACK
6
CONTINUOUS
10
138.25
20
-64.7215
11
138.64
21
-64.8756
0
LINE
8
BLACK
6
CONTINUOUS
10
138.64
20
-64.8756
11
139.024
21
-65.0388
0
LINE
8
BLACK
6
CONTINUOUS
10
139.024
20
-65.0388
11
139.404
21
-65.211
0
LINE
8
BLACK
6
CONTINUOUS
10
139.404
20
-65.211
11
139.778
21
-65.3921
0
LINE
8
BLACK
6
CONTINUOUS
10
139.778
20
-65.3921
11
140.146
21
-65.5822
0
LINE
8
BLACK
6
CONTINUOUS
10
140.146
20
-65.5822
11
140.51
21
-65.781
0
LINE
8
BLACK
6
CONTINUOUS
10
140.51
20
-65.781
11
140.867
21
-65.9886
0
LINE
8
BLACK
6
CONTINUOUS
10
140.867
20
-65.9886
11
141.219
21
-66.2049
0
LINE
8
BLACK
6
CONTINUOUS
10
141.219
20
-66.2049
11
141.565
21
-66.4297
0
LINE
8
BLACK
6
CONTINUOUS
10
141.565
20
-66.4297
11
141.905
21
-66.6631
0
LINE
8
BLACK
6
CONTINUOUS
10
141.905
20
-66.6631
11
142.239
21
-66.9049
0
LINE
8
BLACK
6
CONTINUOUS
10
142.239
20
-66.9049
11
142.567
21
-67.1551
0
LINE
8
BLACK
6
CONTINUOUS
10
142.567
20
-67.1551
11
142.889
21
-67.4136
0
LINE
8
BLACK
6
CONTINUOUS
10
142.889
20
-67.4136
11
143.205
21
-67.6803
0
LINE
8
BLACK
6
CONTINUOUS
10
143.205
20
-67.6803
11
143.514
21
-67.9552
0
LINE
8
BLACK
6
CONTINUOUS
10
143.514
20
-67.9552
11
143.816
21
-68.2381
0
LINE
8
BLACK
6
CONTINUOUS
10
143.816
20
-68.2381
11
144.112
21
-68.5291
0
LINE
8
BLACK
6
CONTINUOUS
10
144.112
20
-68.5291
11
144.401
21
-68.8281
0
LINE
8
BLACK
6
CONTINUOUS
10
144.401
20
-68.8281
11
144.683
21
-69.1349
0
LINE
8
BLACK
6
CONTINUOUS
10
144.683
20
-69.1349
11
144.958
21
-69.4495
0
LINE
8
BLACK
6
CONTINUOUS
10
144.958
20
-69.4495
11
145.225
21
-69.7718
0
LINE
8
BLACK
6
CONTINUOUS
10
145.225
20
-69.7718
11
145.486
21
-70.1018
0
LINE
8
BLACK
6
CONTINUOUS
10
145.486
20
-70.1018
11
145.739
21
-70.4393
0
LINE
8
BLACK
6
CONTINUOUS
10
145.739
20
-70.4393
11
145.985
21
-70.7844
0
LINE
8
BLACK
6
CONTINUOUS
10
145.985
20
-70.7844
11
146.224
21
-71.1369
0
LINE
8
BLACK
6
CONTINUOUS
10
113.177
20
-56.247
11
114.253
21
-55.8834
0
LINE
8
BLACK
6
CONTINUOUS
10
112.725
20
-55.9612
11
113.177
21
-56.247
0
LINE
8
BLACK
6
CONTINUOUS
10
130.751
20
-59.2652
11
130.868
21
-59.374
0
LINE
8
BLACK
6
CONTINUOUS
10
130.868
20
-59.374
11
130.984
21
-59.483
0
LINE
8
BLACK
6
CONTINUOUS
10
130.984
20
-59.483
11
131.099
21
-59.5922
0
LINE
8
BLACK
6
CONTINUOUS
10
131.099
20
-59.5922
11
131.211
21
-59.7016
0
LINE
8
BLACK
6
CONTINUOUS
10
131.211
20
-59.7016
11
131.322
21
-59.8113
0
LINE
8
BLACK
6
CONTINUOUS
10
131.322
20
-59.8113
11
131.432
21
-59.9214
0
LINE
8
BLACK
6
CONTINUOUS
10
131.432
20
-59.9214
11
131.54
21
-60.0317
0
LINE
8
BLACK
6
CONTINUOUS
10
131.54
20
-60.0317
11
131.647
21
-60.1424
0
LINE
8
BLACK
6
CONTINUOUS
10
131.647
20
-60.1424
11
131.752
21
-60.2535
0
LINE
8
BLACK
6
CONTINUOUS
10
131.752
20
-60.2535
11
131.856
21
-60.365
0
LINE
8
BLACK
6
CONTINUOUS
10
131.856
20
-60.365
11
131.958
21
-60.477
0
LINE
8
BLACK
6
CONTINUOUS
10
131.958
20
-60.477
11
132.059
21
-60.5894
0
LINE
8
BLACK
6
CONTINUOUS
10
132.059
20
-60.5894
11
132.159
21
-60.7024
0
LINE
8
BLACK
6
CONTINUOUS
10
132.159
20
-60.7024
11
132.257
21
-60.8159
0
LINE
8
BLACK
6
CONTINUOUS
10
132.257
20
-60.8159
11
132.354
21
-60.9299
0
LINE
8
BLACK
6
CONTINUOUS
10
132.354
20
-60.9299
11
132.45
21
-61.0445
0
LINE
8
BLACK
6
CONTINUOUS
10
132.45
20
-61.0445
11
132.544
21
-61.1598
0
LINE
8
BLACK
6
CONTINUOUS
10
132.544
20
-61.1598
11
132.637
21
-61.2757
0
LINE
8
BLACK
6
CONTINUOUS
10
132.637
20
-61.2757
11
132.73
21
-61.3923
0
LINE
8
BLACK
6
CONTINUOUS
10
132.73
20
-61.3923
11
132.82
21
-61.5096
0
LINE
8
BLACK
6
CONTINUOUS
10
132.82
20
-61.5096
11
132.91
21
-61.6276
0
LINE
8
BLACK
6
CONTINUOUS
10
132.91
20
-61.6276
11
132.999
21
-61.7464
0
LINE
8
BLACK
6
CONTINUOUS
10
132.999
20
-61.7464
11
133.086
21
-61.8661
0
LINE
8
BLACK
6
CONTINUOUS
10
133.086
20
-61.8661
11
133.173
21
-61.9865
0
LINE
8
BLACK
6
CONTINUOUS
10
133.173
20
-61.9865
11
133.258
21
-62.1078
0
LINE
8
BLACK
6
CONTINUOUS
10
133.258
20
-62.1078
11
133.342
21
-62.2299
0
LINE
8
BLACK
6
CONTINUOUS
10
133.342
20
-62.2299
11
133.425
21
-62.353
0
LINE
8
BLACK
6
CONTINUOUS
10
133.425
20
-62.353
11
133.508
21
-62.477
0
LINE
8
BLACK
6
CONTINUOUS
10
133.508
20
-62.477
11
133.589
21
-62.602
0
LINE
8
BLACK
6
CONTINUOUS
10
133.589
20
-62.602
11
133.669
21
-62.728
0
LINE
8
BLACK
6
CONTINUOUS
10
133.669
20
-62.728
11
133.749
21
-62.855
0
LINE
8
BLACK
6
CONTINUOUS
10
133.749
20
-62.855
11
133.827
21
-62.9831
0
LINE
8
BLACK
6
CONTINUOUS
10
122.826
20
-55.2807
11
123.113
21
-55.3444
0
LINE
8
BLACK
6
CONTINUOUS
10
123.113
20
-55.3444
11
123.398
21
-55.4122
0
LINE
8
BLACK
6
CONTINUOUS
10
123.398
20
-55.4122
11
123.681
21
-55.4841
0
LINE
8
BLACK
6
CONTINUOUS
10
123.681
20
-55.4841
11
123.962
21
-55.56
0
LINE
8
BLACK
6
CONTINUOUS
10
123.962
20
-55.56
11
124.24
21
-55.6401
0
LINE
8
BLACK
6
CONTINUOUS
10
124.24
20
-55.6401
11
124.516
21
-55.7242
0
LINE
8
BLACK
6
CONTINUOUS
10
124.516
20
-55.7242
11
124.79
21
-55.8123
0
LINE
8
BLACK
6
CONTINUOUS
10
124.79
20
-55.8123
11
125.061
21
-55.9044
0
LINE
8
BLACK
6
CONTINUOUS
10
125.061
20
-55.9044
11
125.33
21
-56.0005
0
LINE
8
BLACK
6
CONTINUOUS
10
125.33
20
-56.0005
11
125.597
21
-56.1006
0
LINE
8
BLACK
6
CONTINUOUS
10
125.597
20
-56.1006
11
125.861
21
-56.2046
0
LINE
8
BLACK
6
CONTINUOUS
10
125.861
20
-56.2046
11
126.122
21
-56.3126
0
LINE
8
BLACK
6
CONTINUOUS
10
126.122
20
-56.3126
11
126.381
21
-56.4244
0
LINE
8
BLACK
6
CONTINUOUS
10
126.381
20
-56.4244
11
126.637
21
-56.5402
0
LINE
8
BLACK
6
CONTINUOUS
10
126.637
20
-56.5402
11
126.89
21
-56.6598
0
LINE
8
BLACK
6
CONTINUOUS
10
126.89
20
-56.6598
11
127.141
21
-56.7832
0
LINE
8
BLACK
6
CONTINUOUS
10
127.141
20
-56.7832
11
127.389
21
-56.9105
0
LINE
8
BLACK
6
CONTINUOUS
10
127.389
20
-56.9105
11
127.634
21
-57.0416
0
LINE
8
BLACK
6
CONTINUOUS
10
127.634
20
-57.0416
11
127.876
21
-57.1765
0
LINE
8
BLACK
6
CONTINUOUS
10
127.876
20
-57.1765
11
128.116
21
-57.3151
0
LINE
8
BLACK
6
CONTINUOUS
10
128.116
20
-57.3151
11
128.353
21
-57.4575
0
LINE
8
BLACK
6
CONTINUOUS
10
128.353
20
-57.4575
11
128.586
21
-57.6036
0
LINE
8
BLACK
6
CONTINUOUS
10
128.586
20
-57.6036
11
128.817
21
-57.7534
0
LINE
8
BLACK
6
CONTINUOUS
10
128.817
20
-57.7534
11
129.044
21
-57.9069
0
LINE
8
BLACK
6
CONTINUOUS
10
129.044
20
-57.9069
11
129.269
21
-58.0641
0
LINE
8
BLACK
6
CONTINUOUS
10
129.269
20
-58.0641
11
129.49
21
-58.2249
0
LINE
8
BLACK
6
CONTINUOUS
10
129.49
20
-58.2249
11
129.708
21
-58.3893
0
LINE
8
BLACK
6
CONTINUOUS
10
129.708
20
-58.3893
11
129.924
21
-58.5574
0
LINE
8
BLACK
6
CONTINUOUS
10
129.924
20
-58.5574
11
130.135
21
-58.729
0
LINE
8
BLACK
6
CONTINUOUS
10
130.135
20
-58.729
11
130.344
21
-58.9042
0
LINE
8
BLACK
6
CONTINUOUS
10
130.344
20
-58.9042
11
130.549
21
-59.083
0
LINE
8
BLACK
6
CONTINUOUS
10
130.549
20
-59.083
11
130.751
21
-59.2652
0
LINE
8
BLACK
6
CONTINUOUS
10
119.638
20
-55.052
11
119.819
21
-55.052
0
LINE
8
BLACK
6
CONTINUOUS
10
119.819
20
-55.052
11
119.989
21
-55.0522
0
LINE
8
BLACK
6
CONTINUOUS
10
119.989
20
-55.0522
11
120.15
21
-55.0525
0
LINE
8
BLACK
6
CONTINUOUS
10
120.15
20
-55.0525
11
120.302
21
-55.053
0
LINE
8
BLACK
6
CONTINUOUS
10
120.302
20
-55.053
11
120.446
21
-55.0538
0
LINE
8
BLACK
6
CONTINUOUS
10
120.446
20
-55.0538
11
120.582
21
-55.0548
0
LINE
8
BLACK
6
CONTINUOUS
10
120.582
20
-55.0548
11
120.71
21
-55.056
0
LINE
8
BLACK
6
CONTINUOUS
10
120.71
20
-55.056
11
120.831
21
-55.0576
0
LINE
8
BLACK
6
CONTINUOUS
10
120.831
20
-55.0576
11
120.945
21
-55.0596
0
LINE
8
BLACK
6
CONTINUOUS
10
120.945
20
-55.0596
11
121.053
21
-55.062
0
LINE
8
BLACK
6
CONTINUOUS
10
121.053
20
-55.062
11
121.155
21
-55.0647
0
LINE
8
BLACK
6
CONTINUOUS
10
121.155
20
-55.0647
11
121.345
21
-55.0717
0
LINE
8
BLACK
6
CONTINUOUS
10
121.345
20
-55.0717
11
121.518
21
-55.0807
0
LINE
8
BLACK
6
CONTINUOUS
10
121.518
20
-55.0807
11
121.677
21
-55.0922
0
LINE
8
BLACK
6
CONTINUOUS
10
121.677
20
-55.0922
11
121.827
21
-55.1062
0
LINE
8
BLACK
6
CONTINUOUS
10
121.827
20
-55.1062
11
121.971
21
-55.1232
0
LINE
8
BLACK
6
CONTINUOUS
10
121.971
20
-55.1232
11
122.112
21
-55.1434
0
LINE
8
BLACK
6
CONTINUOUS
10
122.112
20
-55.1434
11
122.256
21
-55.167
0
LINE
8
BLACK
6
CONTINUOUS
10
122.256
20
-55.167
11
122.405
21
-55.1943
0
LINE
8
BLACK
6
CONTINUOUS
10
122.405
20
-55.1943
11
122.563
21
-55.2256
0
LINE
8
BLACK
6
CONTINUOUS
10
122.563
20
-55.2256
11
122.734
21
-55.2612
0
LINE
8
BLACK
6
CONTINUOUS
10
122.734
20
-55.2612
11
122.826
21
-55.2807
0
LINE
8
BLACK
6
CONTINUOUS
10
116.425
20
-55.2859
11
116.609
21
-55.247
0
LINE
8
BLACK
6
CONTINUOUS
10
116.609
20
-55.247
11
116.778
21
-55.2127
0
LINE
8
BLACK
6
CONTINUOUS
10
116.778
20
-55.2127
11
116.934
21
-55.1826
0
LINE
8
BLACK
6
CONTINUOUS
10
116.934
20
-55.1826
11
117.082
21
-55.1565
0
LINE
8
BLACK
6
CONTINUOUS
10
117.082
20
-55.1565
11
117.226
21
-55.1342
0
LINE
8
BLACK
6
CONTINUOUS
10
117.226
20
-55.1342
11
117.37
21
-55.1152
0
LINE
8
BLACK
6
CONTINUOUS
10
117.37
20
-55.1152
11
117.517
21
-55.0994
0
LINE
8
BLACK
6
CONTINUOUS
10
117.517
20
-55.0994
11
117.672
21
-55.0865
0
LINE
8
BLACK
6
CONTINUOUS
10
117.672
20
-55.0865
11
117.838
21
-55.0761
0
LINE
8
BLACK
6
CONTINUOUS
10
117.838
20
-55.0761
11
118.019
21
-55.068
0
LINE
8
BLACK
6
CONTINUOUS
10
118.019
20
-55.068
11
118.219
21
-55.0619
0
LINE
8
BLACK
6
CONTINUOUS
10
118.219
20
-55.0619
11
118.327
21
-55.0596
0
LINE
8
BLACK
6
CONTINUOUS
10
118.327
20
-55.0596
11
118.442
21
-55.0576
0
LINE
8
BLACK
6
CONTINUOUS
10
118.442
20
-55.0576
11
118.563
21
-55.056
0
LINE
8
BLACK
6
CONTINUOUS
10
118.563
20
-55.056
11
118.691
21
-55.0547
0
LINE
8
BLACK
6
CONTINUOUS
10
118.691
20
-55.0547
11
118.827
21
-55.0537
0
LINE
8
BLACK
6
CONTINUOUS
10
118.827
20
-55.0537
11
118.971
21
-55.053
0
LINE
8
BLACK
6
CONTINUOUS
10
118.971
20
-55.053
11
119.124
21
-55.0525
0
LINE
8
BLACK
6
CONTINUOUS
10
119.124
20
-55.0525
11
119.286
21
-55.0522
0
LINE
8
BLACK
6
CONTINUOUS
10
119.286
20
-55.0522
11
119.457
21
-55.052
0
LINE
8
BLACK
6
CONTINUOUS
10
119.457
20
-55.052
11
119.638
21
-55.052
0
LINE
8
BLACK
6
CONTINUOUS
10
114.253
20
-55.8834
11
114.368
21
-55.8451
0
LINE
8
BLACK
6
CONTINUOUS
10
114.368
20
-55.8451
11
114.492
21
-55.8056
0
LINE
8
BLACK
6
CONTINUOUS
10
114.492
20
-55.8056
11
114.622
21
-55.765
0
LINE
8
BLACK
6
CONTINUOUS
10
114.622
20
-55.765
11
114.757
21
-55.7238
0
LINE
8
BLACK
6
CONTINUOUS
10
114.757
20
-55.7238
11
114.898
21
-55.6821
0
LINE
8
BLACK
6
CONTINUOUS
10
114.898
20
-55.6821
11
115.041
21
-55.6404
0
LINE
8
BLACK
6
CONTINUOUS
10
115.041
20
-55.6404
11
115.188
21
-55.5989
0
LINE
8
BLACK
6
CONTINUOUS
10
115.188
20
-55.5989
11
115.335
21
-55.5579
0
LINE
8
BLACK
6
CONTINUOUS
10
115.335
20
-55.5579
11
115.483
21
-55.5178
0
LINE
8
BLACK
6
CONTINUOUS
10
115.483
20
-55.5178
11
115.629
21
-55.4787
0
LINE
8
BLACK
6
CONTINUOUS
10
115.629
20
-55.4787
11
115.774
21
-55.4412
0
LINE
8
BLACK
6
CONTINUOUS
10
115.774
20
-55.4412
11
115.915
21
-55.4054
0
LINE
8
BLACK
6
CONTINUOUS
10
115.915
20
-55.4054
11
116.052
21
-55.3717
0
LINE
8
BLACK
6
CONTINUOUS
10
116.052
20
-55.3717
11
116.183
21
-55.3403
0
LINE
8
BLACK
6
CONTINUOUS
10
116.183
20
-55.3403
11
116.308
21
-55.3116
0
LINE
8
BLACK
6
CONTINUOUS
10
116.308
20
-55.3116
11
116.425
21
-55.2859
0
LINE
8
BLACK
6
CONTINUOUS
10
72.0211
20
-59.7226
11
72.6408
21
-58.9931
0
LINE
8
BLACK
6
CONTINUOUS
10
71.4881
20
-59.781
11
72.0211
21
-59.7226
0
LINE
8
BLACK
6
CONTINUOUS
10
105.723
20
-53.6534
11
105.95
21
-53.6782
0
LINE
8
BLACK
6
CONTINUOUS
10
105.95
20
-53.6782
11
106.179
21
-53.7068
0
LINE
8
BLACK
6
CONTINUOUS
10
106.179
20
-53.7068
11
106.409
21
-53.7392
0
LINE
8
BLACK
6
CONTINUOUS
10
106.409
20
-53.7392
11
106.641
21
-53.7753
0
LINE
8
BLACK
6
CONTINUOUS
10
106.641
20
-53.7753
11
106.874
21
-53.815
0
LINE
8
BLACK
6
CONTINUOUS
10
106.874
20
-53.815
11
107.108
21
-53.8582
0
LINE
8
BLACK
6
CONTINUOUS
10
107.108
20
-53.8582
11
107.342
21
-53.9049
0
LINE
8
BLACK
6
CONTINUOUS
10
107.342
20
-53.9049
11
107.577
21
-53.9549
0
LINE
8
BLACK
6
CONTINUOUS
10
107.577
20
-53.9549
11
107.812
21
-54.0083
0
LINE
8
BLACK
6
CONTINUOUS
10
107.812
20
-54.0083
11
108.048
21
-54.0648
0
LINE
8
BLACK
6
CONTINUOUS
10
108.048
20
-54.0648
11
108.282
21
-54.1245
0
LINE
8
BLACK
6
CONTINUOUS
10
108.282
20
-54.1245
11
108.517
21
-54.1872
0
LINE
8
BLACK
6
CONTINUOUS
10
108.517
20
-54.1872
11
108.75
21
-54.2529
0
LINE
8
BLACK
6
CONTINUOUS
10
108.75
20
-54.2529
11
108.983
21
-54.3215
0
LINE
8
BLACK
6
CONTINUOUS
10
108.983
20
-54.3215
11
109.214
21
-54.3929
0
LINE
8
BLACK
6
CONTINUOUS
10
109.214
20
-54.3929
11
109.444
21
-54.467
0
LINE
8
BLACK
6
CONTINUOUS
10
109.444
20
-54.467
11
109.672
21
-54.5438
0
LINE
8
BLACK
6
CONTINUOUS
10
109.672
20
-54.5438
11
109.898
21
-54.6232
0
LINE
8
BLACK
6
CONTINUOUS
10
109.898
20
-54.6232
11
110.122
21
-54.7051
0
LINE
8
BLACK
6
CONTINUOUS
10
110.122
20
-54.7051
11
110.344
21
-54.7894
0
LINE
8
BLACK
6
CONTINUOUS
10
110.344
20
-54.7894
11
110.563
21
-54.8761
0
LINE
8
BLACK
6
CONTINUOUS
10
110.563
20
-54.8761
11
110.779
21
-54.965
0
LINE
8
BLACK
6
CONTINUOUS
10
110.779
20
-54.965
11
110.992
21
-55.0561
0
LINE
8
BLACK
6
CONTINUOUS
10
110.992
20
-55.0561
11
111.201
21
-55.1493
0
LINE
8
BLACK
6
CONTINUOUS
10
111.201
20
-55.1493
11
111.407
21
-55.2445
0
LINE
8
BLACK
6
CONTINUOUS
10
111.407
20
-55.2445
11
111.609
21
-55.3417
0
LINE
8
BLACK
6
CONTINUOUS
10
111.609
20
-55.3417
11
111.806
21
-55.4407
0
LINE
8
BLACK
6
CONTINUOUS
10
111.806
20
-55.4407
11
112
21
-55.5415
0
LINE
8
BLACK
6
CONTINUOUS
10
112
20
-55.5415
11
112.188
21
-55.6441
0
LINE
8
BLACK
6
CONTINUOUS
10
112.188
20
-55.6441
11
112.372
21
-55.7482
0
LINE
8
BLACK
6
CONTINUOUS
10
112.372
20
-55.7482
11
112.551
21
-55.854
0
LINE
8
BLACK
6
CONTINUOUS
10
112.551
20
-55.854
11
112.725
21
-55.9612
0
LINE
8
BLACK
6
CONTINUOUS
10
95.6886
20
-55.8875
11
95.9575
21
-55.7285
0
LINE
8
BLACK
6
CONTINUOUS
10
95.9575
20
-55.7285
11
96.2319
21
-55.5747
0
LINE
8
BLACK
6
CONTINUOUS
10
96.2319
20
-55.5747
11
96.5116
21
-55.4261
0
LINE
8
BLACK
6
CONTINUOUS
10
96.5116
20
-55.4261
11
96.7963
21
-55.2827
0
LINE
8
BLACK
6
CONTINUOUS
10
96.7963
20
-55.2827
11
97.0857
21
-55.1447
0
LINE
8
BLACK
6
CONTINUOUS
10
97.0857
20
-55.1447
11
97.3796
21
-55.0122
0
LINE
8
BLACK
6
CONTINUOUS
10
97.3796
20
-55.0122
11
97.6777
21
-54.885
0
LINE
8
BLACK
6
CONTINUOUS
10
97.6777
20
-54.885
11
97.9797
21
-54.7634
0
LINE
8
BLACK
6
CONTINUOUS
10
97.9797
20
-54.7634
11
98.2854
21
-54.6474
0
LINE
8
BLACK
6
CONTINUOUS
10
98.2854
20
-54.6474
11
98.5945
21
-54.537
0
LINE
8
BLACK
6
CONTINUOUS
10
98.5945
20
-54.537
11
98.9068
21
-54.4323
0
LINE
8
BLACK
6
CONTINUOUS
10
98.9068
20
-54.4323
11
99.2219
21
-54.3334
0
LINE
8
BLACK
6
CONTINUOUS
10
99.2219
20
-54.3334
11
99.5397
21
-54.2403
0
LINE
8
BLACK
6
CONTINUOUS
10
99.5397
20
-54.2403
11
99.8598
21
-54.153
0
LINE
8
BLACK
6
CONTINUOUS
10
99.8598
20
-54.153
11
100.182
21
-54.0717
0
LINE
8
BLACK
6
CONTINUOUS
10
100.182
20
-54.0717
11
100.506
21
-53.9963
0
LINE
8
BLACK
6
CONTINUOUS
10
100.506
20
-53.9963
11
100.832
21
-53.927
0
LINE
8
BLACK
6
CONTINUOUS
10
100.832
20
-53.927
11
101.158
21
-53.8639
0
LINE
8
BLACK
6
CONTINUOUS
10
101.158
20
-53.8639
11
101.486
21
-53.8068
0
LINE
8
BLACK
6
CONTINUOUS
10
101.486
20
-53.8068
11
101.815
21
-53.756
0
LINE
8
BLACK
6
CONTINUOUS
10
101.815
20
-53.756
11
102.144
21
-53.7115
0
LINE
8
BLACK
6
CONTINUOUS
10
102.144
20
-53.7115
11
102.474
21
-53.6733
0
LINE
8
BLACK
6
CONTINUOUS
10
102.474
20
-53.6733
11
102.803
21
-53.6416
0
LINE
8
BLACK
6
CONTINUOUS
10
102.803
20
-53.6416
11
103.132
21
-53.6163
0
LINE
8
BLACK
6
CONTINUOUS
10
103.132
20
-53.6163
11
103.461
21
-53.5975
0
LINE
8
BLACK
6
CONTINUOUS
10
103.461
20
-53.5975
11
103.788
21
-53.5853
0
LINE
8
BLACK
6
CONTINUOUS
10
103.788
20
-53.5853
11
104.115
21
-53.5797
0
LINE
8
BLACK
6
CONTINUOUS
10
104.115
20
-53.5797
11
104.44
21
-53.5808
0
LINE
8
BLACK
6
CONTINUOUS
10
104.44
20
-53.5808
11
104.764
21
-53.5886
0
LINE
8
BLACK
6
CONTINUOUS
10
104.764
20
-53.5886
11
105.086
21
-53.6033
0
LINE
8
BLACK
6
CONTINUOUS
10
105.086
20
-53.6033
11
105.406
21
-53.6249
0
LINE
8
BLACK
6
CONTINUOUS
10
105.406
20
-53.6249
11
105.723
21
-53.6534
0
LINE
8
BLACK
6
CONTINUOUS
10
95.1187
20
-56.1893
11
95.2135
21
-56.1528
0
LINE
8
BLACK
6
CONTINUOUS
10
95.2135
20
-56.1528
11
95.3161
21
-56.1007
0
LINE
8
BLACK
6
CONTINUOUS
10
95.3161
20
-56.1007
11
95.4207
21
-56.0437
0
LINE
8
BLACK
6
CONTINUOUS
10
95.4207
20
-56.0437
11
95.5137
21
-55.991
0
LINE
8
BLACK
6
CONTINUOUS
10
95.5137
20
-55.991
11
95.6123
21
-55.9333
0
LINE
8
BLACK
6
CONTINUOUS
10
95.6123
20
-55.9333
11
95.6886
21
-55.8875
0
LINE
8
BLACK
6
CONTINUOUS
10
94.3944
20
-55.7517
11
94.4941
21
-55.8181
0
LINE
8
BLACK
6
CONTINUOUS
10
94.4941
20
-55.8181
11
94.5909
21
-55.8814
0
LINE
8
BLACK
6
CONTINUOUS
10
94.5909
20
-55.8814
11
94.6834
21
-55.941
0
LINE
8
BLACK
6
CONTINUOUS
10
94.6834
20
-55.941
11
94.7705
21
-55.9959
0
LINE
8
BLACK
6
CONTINUOUS
10
94.7705
20
-55.9959
11
94.8759
21
-56.0608
0
LINE
8
BLACK
6
CONTINUOUS
10
94.8759
20
-56.0608
11
94.9664
21
-56.1143
0
LINE
8
BLACK
6
CONTINUOUS
10
94.9664
20
-56.1143
11
95.0541
21
-56.1627
0
LINE
8
BLACK
6
CONTINUOUS
10
95.0541
20
-56.1627
11
95.1187
21
-56.1893
0
LINE
8
BLACK
6
CONTINUOUS
10
83.7698
20
-53.1454
11
84.1094
21
-53.1151
0
LINE
8
BLACK
6
CONTINUOUS
10
84.1094
20
-53.1151
11
84.4516
21
-53.0928
0
LINE
8
BLACK
6
CONTINUOUS
10
84.4516
20
-53.0928
11
84.7959
21
-53.0784
0
LINE
8
BLACK
6
CONTINUOUS
10
84.7959
20
-53.0784
11
85.1421
21
-53.0718
0
LINE
8
BLACK
6
CONTINUOUS
10
85.1421
20
-53.0718
11
85.4899
21
-53.0729
0
LINE
8
BLACK
6
CONTINUOUS
10
85.4899
20
-53.0729
11
85.8391
21
-53.0816
0
LINE
8
BLACK
6
CONTINUOUS
10
85.8391
20
-53.0816
11
86.1892
21
-53.0979
0
LINE
8
BLACK
6
CONTINUOUS
10
86.1892
20
-53.0979
11
86.54
21
-53.1217
0
LINE
8
BLACK
6
CONTINUOUS
10
86.54
20
-53.1217
11
86.8912
21
-53.1529
0
LINE
8
BLACK
6
CONTINUOUS
10
86.8912
20
-53.1529
11
87.2425
21
-53.1914
0
LINE
8
BLACK
6
CONTINUOUS
10
87.2425
20
-53.1914
11
87.5937
21
-53.2373
0
LINE
8
BLACK
6
CONTINUOUS
10
87.5937
20
-53.2373
11
87.9443
21
-53.2903
0
LINE
8
BLACK
6
CONTINUOUS
10
87.9443
20
-53.2903
11
88.2942
21
-53.3505
0
LINE
8
BLACK
6
CONTINUOUS
10
88.2942
20
-53.3505
11
88.6429
21
-53.4178
0
LINE
8
BLACK
6
CONTINUOUS
10
88.6429
20
-53.4178
11
88.9903
21
-53.492
0
LINE
8
BLACK
6
CONTINUOUS
10
88.9903
20
-53.492
11
89.336
21
-53.5731
0
LINE
8
BLACK
6
CONTINUOUS
10
89.336
20
-53.5731
11
89.6797
21
-53.6611
0
LINE
8
BLACK
6
CONTINUOUS
10
89.6797
20
-53.6611
11
90.0211
21
-53.7558
0
LINE
8
BLACK
6
CONTINUOUS
10
90.0211
20
-53.7558
11
90.36
21
-53.8573
0
LINE
8
BLACK
6
CONTINUOUS
10
90.36
20
-53.8573
11
90.6959
21
-53.9653
0
LINE
8
BLACK
6
CONTINUOUS
10
90.6959
20
-53.9653
11
91.0287
21
-54.0799
0
LINE
8
BLACK
6
CONTINUOUS
10
91.0287
20
-54.0799
11
91.358
21
-54.201
0
LINE
8
BLACK
6
CONTINUOUS
10
91.358
20
-54.201
11
91.6836
21
-54.3285
0
LINE
8
BLACK
6
CONTINUOUS
10
91.6836
20
-54.3285
11
92.005
21
-54.4623
0
LINE
8
BLACK
6
CONTINUOUS
10
92.005
20
-54.4623
11
92.3221
21
-54.6023
0
LINE
8
BLACK
6
CONTINUOUS
10
92.3221
20
-54.6023
11
92.6346
21
-54.7486
0
LINE
8
BLACK
6
CONTINUOUS
10
92.6346
20
-54.7486
11
92.942
21
-54.9009
0
LINE
8
BLACK
6
CONTINUOUS
10
92.942
20
-54.9009
11
93.2442
21
-55.0593
0
LINE
8
BLACK
6
CONTINUOUS
10
93.2442
20
-55.0593
11
93.5409
21
-55.2236
0
LINE
8
BLACK
6
CONTINUOUS
10
93.5409
20
-55.2236
11
93.8317
21
-55.3938
0
LINE
8
BLACK
6
CONTINUOUS
10
93.8317
20
-55.3938
11
94.1163
21
-55.5699
0
LINE
8
BLACK
6
CONTINUOUS
10
94.1163
20
-55.5699
11
94.3944
21
-55.7517
0
LINE
8
BLACK
6
CONTINUOUS
10
72.6408
20
-58.9931
11
72.9107
21
-58.683
0
LINE
8
BLACK
6
CONTINUOUS
10
72.9107
20
-58.683
11
73.1867
21
-58.3804
0
LINE
8
BLACK
6
CONTINUOUS
10
73.1867
20
-58.3804
11
73.4687
21
-58.0856
0
LINE
8
BLACK
6
CONTINUOUS
10
73.4687
20
-58.0856
11
73.7566
21
-57.7985
0
LINE
8
BLACK
6
CONTINUOUS
10
73.7566
20
-57.7985
11
74.0504
21
-57.5192
0
LINE
8
BLACK
6
CONTINUOUS
10
74.0504
20
-57.5192
11
74.3499
21
-57.2478
0
LINE
8
BLACK
6
CONTINUOUS
10
74.3499
20
-57.2478
11
74.655
21
-56.9843
0
LINE
8
BLACK
6
CONTINUOUS
10
74.655
20
-56.9843
11
74.9655
21
-56.7288
0
LINE
8
BLACK
6
CONTINUOUS
10
74.9655
20
-56.7288
11
75.2814
21
-56.4813
0
LINE
8
BLACK
6
CONTINUOUS
10
75.2814
20
-56.4813
11
75.6026
21
-56.2419
0
LINE
8
BLACK
6
CONTINUOUS
10
75.6026
20
-56.2419
11
75.9289
21
-56.0107
0
LINE
8
BLACK
6
CONTINUOUS
10
75.9289
20
-56.0107
11
76.2602
21
-55.7877
0
LINE
8
BLACK
6
CONTINUOUS
10
76.2602
20
-55.7877
11
76.5965
21
-55.573
0
LINE
8
BLACK
6
CONTINUOUS
10
76.5965
20
-55.573
11
76.9376
21
-55.3667
0
LINE
8
BLACK
6
CONTINUOUS
10
76.9376
20
-55.3667
11
77.2833
21
-55.1687
0
LINE
8
BLACK
6
CONTINUOUS
10
77.2833
20
-55.1687
11
77.6336
21
-54.9792
0
LINE
8
BLACK
6
CONTINUOUS
10
77.6336
20
-54.9792
11
77.9884
21
-54.7982
0
LINE
8
BLACK
6
CONTINUOUS
10
77.9884
20
-54.7982
11
78.3476
21
-54.6258
0
LINE
8
BLACK
6
CONTINUOUS
10
78.3476
20
-54.6258
11
78.711
21
-54.462
0
LINE
8
BLACK
6
CONTINUOUS
10
78.711
20
-54.462
11
79.0785
21
-54.3069
0
LINE
8
BLACK
6
CONTINUOUS
10
79.0785
20
-54.3069
11
79.45
21
-54.1605
0
LINE
8
BLACK
6
CONTINUOUS
10
79.45
20
-54.1605
11
79.8255
21
-54.023
0
LINE
8
BLACK
6
CONTINUOUS
10
79.8255
20
-54.023
11
80.2047
21
-53.8943
0
LINE
8
BLACK
6
CONTINUOUS
10
80.2047
20
-53.8943
11
80.5876
21
-53.7746
0
LINE
8
BLACK
6
CONTINUOUS
10
80.5876
20
-53.7746
11
80.9741
21
-53.6639
0
LINE
8
BLACK
6
CONTINUOUS
10
80.9741
20
-53.6639
11
81.364
21
-53.5622
0
LINE
8
BLACK
6
CONTINUOUS
10
81.364
20
-53.5622
11
81.7573
21
-53.4696
0
LINE
8
BLACK
6
CONTINUOUS
10
81.7573
20
-53.4696
11
82.1538
21
-53.3862
0
LINE
8
BLACK
6
CONTINUOUS
10
82.1538
20
-53.3862
11
82.5534
21
-53.312
0
LINE
8
BLACK
6
CONTINUOUS
10
82.5534
20
-53.312
11
82.956
21
-53.2471
0
LINE
8
BLACK
6
CONTINUOUS
10
82.956
20
-53.2471
11
83.3615
21
-53.1915
0
LINE
8
BLACK
6
CONTINUOUS
10
83.3615
20
-53.1915
11
83.7698
21
-53.1454
0
LINE
8
BLACK
6
CONTINUOUS
10
64.859
20
-62.0394
11
65.0362
21
-61.9344
0
LINE
8
BLACK
6
CONTINUOUS
10
65.0362
20
-61.9344
11
65.2177
21
-61.8308
0
LINE
8
BLACK
6
CONTINUOUS
10
65.2177
20
-61.8308
11
65.4032
21
-61.7287
0
LINE
8
BLACK
6
CONTINUOUS
10
65.4032
20
-61.7287
11
65.5925
21
-61.6282
0
LINE
8
BLACK
6
CONTINUOUS
10
65.5925
20
-61.6282
11
65.7854
21
-61.5294
0
LINE
8
BLACK
6
CONTINUOUS
10
65.7854
20
-61.5294
11
65.9817
21
-61.4323
0
LINE
8
BLACK
6
CONTINUOUS
10
65.9817
20
-61.4323
11
66.181
21
-61.337
0
LINE
8
BLACK
6
CONTINUOUS
10
66.181
20
-61.337
11
66.3832
21
-61.2437
0
LINE
8
BLACK
6
CONTINUOUS
10
66.3832
20
-61.2437
11
66.5881
21
-61.1523
0
LINE
8
BLACK
6
CONTINUOUS
10
66.5881
20
-61.1523
11
66.7953
21
-61.0629
0
LINE
8
BLACK
6
CONTINUOUS
10
66.7953
20
-61.0629
11
67.0047
21
-60.9758
0
LINE
8
BLACK
6
CONTINUOUS
10
67.0047
20
-60.9758
11
67.2161
21
-60.8908
0
LINE
8
BLACK
6
CONTINUOUS
10
67.2161
20
-60.8908
11
67.4291
21
-60.8081
0
LINE
8
BLACK
6
CONTINUOUS
10
67.4291
20
-60.8081
11
67.6436
21
-60.7279
0
LINE
8
BLACK
6
CONTINUOUS
10
67.6436
20
-60.7279
11
67.8594
21
-60.65
0
LINE
8
BLACK
6
CONTINUOUS
10
67.8594
20
-60.65
11
68.0761
21
-60.5748
0
LINE
8
BLACK
6
CONTINUOUS
10
68.0761
20
-60.5748
11
68.2936
21
-60.5021
0
LINE
8
BLACK
6
CONTINUOUS
10
68.2936
20
-60.5021
11
68.5117
21
-60.4321
0
LINE
8
BLACK
6
CONTINUOUS
10
68.5117
20
-60.4321
11
68.73
21
-60.365
0
LINE
8
BLACK
6
CONTINUOUS
10
68.73
20
-60.365
11
68.9483
21
-60.3006
0
LINE
8
BLACK
6
CONTINUOUS
10
68.9483
20
-60.3006
11
69.1665
21
-60.2393
0
LINE
8
BLACK
6
CONTINUOUS
10
69.1665
20
-60.2393
11
69.3843
21
-60.1809
0
LINE
8
BLACK
6
CONTINUOUS
10
69.3843
20
-60.1809
11
69.6015
21
-60.1257
0
LINE
8
BLACK
6
CONTINUOUS
10
69.6015
20
-60.1257
11
69.8177
21
-60.0736
0
LINE
8
BLACK
6
CONTINUOUS
10
69.8177
20
-60.0736
11
70.0329
21
-60.0247
0
LINE
8
BLACK
6
CONTINUOUS
10
70.0329
20
-60.0247
11
70.2467
21
-59.9793
0
LINE
8
BLACK
6
CONTINUOUS
10
70.2467
20
-59.9793
11
70.4589
21
-59.9372
0
LINE
8
BLACK
6
CONTINUOUS
10
70.4589
20
-59.9372
11
70.6693
21
-59.8986
0
LINE
8
BLACK
6
CONTINUOUS
10
70.6693
20
-59.8986
11
70.8777
21
-59.8637
0
LINE
8
BLACK
6
CONTINUOUS
10
70.8777
20
-59.8637
11
71.0837
21
-59.8323
0
LINE
8
BLACK
6
CONTINUOUS
10
71.0837
20
-59.8323
11
71.2873
21
-59.8047
0
LINE
8
BLACK
6
CONTINUOUS
10
71.2873
20
-59.8047
11
71.4881
21
-59.781
0
LINE
8
BLACK
6
CONTINUOUS
10
60.7034
20
-65.5958
11
60.8073
21
-65.4729
0
LINE
8
BLACK
6
CONTINUOUS
10
60.8073
20
-65.4729
11
60.9139
21
-65.3498
0
LINE
8
BLACK
6
CONTINUOUS
10
60.9139
20
-65.3498
11
61.0232
21
-65.2267
0
LINE
8
BLACK
6
CONTINUOUS
10
61.0232
20
-65.2267
11
61.1349
21
-65.1037
0
LINE
8
BLACK
6
CONTINUOUS
10
61.1349
20
-65.1037
11
61.249
21
-64.9807
0
LINE
8
BLACK
6
CONTINUOUS
10
61.249
20
-64.9807
11
61.3655
21
-64.858
0
LINE
8
BLACK
6
CONTINUOUS
10
61.3655
20
-64.858
11
61.4841
21
-64.7357
0
LINE
8
BLACK
6
CONTINUOUS
10
61.4841
20
-64.7357
11
61.6048
21
-64.6137
0
LINE
8
BLACK
6
CONTINUOUS
10
61.6048
20
-64.6137
11
61.7275
21
-64.4922
0
LINE
8
BLACK
6
CONTINUOUS
10
61.7275
20
-64.4922
11
61.8521
21
-64.3713
0
LINE
8
BLACK
6
CONTINUOUS
10
61.8521
20
-64.3713
11
61.9785
21
-64.2511
0
LINE
8
BLACK
6
CONTINUOUS
10
61.9785
20
-64.2511
11
62.1065
21
-64.1316
0
LINE
8
BLACK
6
CONTINUOUS
10
62.1065
20
-64.1316
11
62.2361
21
-64.013
0
LINE
8
BLACK
6
CONTINUOUS
10
62.2361
20
-64.013
11
62.3672
21
-63.8953
0
LINE
8
BLACK
6
CONTINUOUS
10
62.3672
20
-63.8953
11
62.4997
21
-63.7787
0
LINE
8
BLACK
6
CONTINUOUS
10
62.4997
20
-63.7787
11
62.6334
21
-63.6632
0
LINE
8
BLACK
6
CONTINUOUS
10
62.6334
20
-63.6632
11
62.7682
21
-63.5489
0
LINE
8
BLACK
6
CONTINUOUS
10
62.7682
20
-63.5489
11
62.9041
21
-63.4358
0
LINE
8
BLACK
6
CONTINUOUS
10
62.9041
20
-63.4358
11
63.041
21
-63.3242
0
LINE
8
BLACK
6
CONTINUOUS
10
63.041
20
-63.3242
11
63.1787
21
-63.214
0
LINE
8
BLACK
6
CONTINUOUS
10
63.1787
20
-63.214
11
63.3171
21
-63.1054
0
LINE
8
BLACK
6
CONTINUOUS
10
63.3171
20
-63.1054
11
63.4562
21
-62.9985
0
LINE
8
BLACK
6
CONTINUOUS
10
63.4562
20
-62.9985
11
63.5958
21
-62.8933
0
LINE
8
BLACK
6
CONTINUOUS
10
63.5958
20
-62.8933
11
63.7359
21
-62.7899
0
LINE
8
BLACK
6
CONTINUOUS
10
63.7359
20
-62.7899
11
63.8762
21
-62.6884
0
LINE
8
BLACK
6
CONTINUOUS
10
63.8762
20
-62.6884
11
64.0168
21
-62.589
0
LINE
8
BLACK
6
CONTINUOUS
10
64.0168
20
-62.589
11
64.1575
21
-62.4916
0
LINE
8
BLACK
6
CONTINUOUS
10
64.1575
20
-62.4916
11
64.2982
21
-62.3964
0
LINE
8
BLACK
6
CONTINUOUS
10
64.2982
20
-62.3964
11
64.4388
21
-62.3035
0
LINE
8
BLACK
6
CONTINUOUS
10
64.4388
20
-62.3035
11
64.5792
21
-62.213
0
LINE
8
BLACK
6
CONTINUOUS
10
64.5792
20
-62.213
11
64.7193
21
-62.1249
0
LINE
8
BLACK
6
CONTINUOUS
10
64.7193
20
-62.1249
11
64.859
21
-62.0394
0
LINE
8
BLACK
6
CONTINUOUS
10
57.2413
20
-72.5564
11
57.2967
21
-72.324
0
LINE
8
BLACK
6
CONTINUOUS
10
57.2967
20
-72.324
11
57.356
21
-72.0914
0
LINE
8
BLACK
6
CONTINUOUS
10
57.356
20
-72.0914
11
57.4191
21
-71.8589
0
LINE
8
BLACK
6
CONTINUOUS
10
57.4191
20
-71.8589
11
57.4861
21
-71.6265
0
LINE
8
BLACK
6
CONTINUOUS
10
57.4861
20
-71.6265
11
57.5569
21
-71.3943
0
LINE
8
BLACK
6
CONTINUOUS
10
57.5569
20
-71.3943
11
57.6314
21
-71.1624
0
LINE
8
BLACK
6
CONTINUOUS
10
57.6314
20
-71.1624
11
57.7096
21
-70.931
0
LINE
8
BLACK
6
CONTINUOUS
10
57.7096
20
-70.931
11
57.7914
21
-70.7001
0
LINE
8
BLACK
6
CONTINUOUS
10
57.7914
20
-70.7001
11
57.8768
21
-70.4698
0
LINE
8
BLACK
6
CONTINUOUS
10
57.8768
20
-70.4698
11
57.9656
21
-70.2403
0
LINE
8
BLACK
6
CONTINUOUS
10
57.9656
20
-70.2403
11
58.058
21
-70.0117
0
LINE
8
BLACK
6
CONTINUOUS
10
58.058
20
-70.0117
11
58.1537
21
-69.784
0
LINE
8
BLACK
6
CONTINUOUS
10
58.1537
20
-69.784
11
58.2528
21
-69.5574
0
LINE
8
BLACK
6
CONTINUOUS
10
58.2528
20
-69.5574
11
58.3553
21
-69.3319
0
LINE
8
BLACK
6
CONTINUOUS
10
58.3553
20
-69.3319
11
58.4609
21
-69.1078
0
LINE
8
BLACK
6
CONTINUOUS
10
58.4609
20
-69.1078
11
58.5698
21
-68.885
0
LINE
8
BLACK
6
CONTINUOUS
10
58.5698
20
-68.885
11
58.6818
21
-68.6637
0
LINE
8
BLACK
6
CONTINUOUS
10
58.6818
20
-68.6637
11
58.7969
21
-68.4441
0
LINE
8
BLACK
6
CONTINUOUS
10
58.7969
20
-68.4441
11
58.915
21
-68.2261
0
LINE
8
BLACK
6
CONTINUOUS
10
58.915
20
-68.2261
11
59.0361
21
-68.0099
0
LINE
8
BLACK
6
CONTINUOUS
10
59.0361
20
-68.0099
11
59.1602
21
-67.7957
0
LINE
8
BLACK
6
CONTINUOUS
10
59.1602
20
-67.7957
11
59.2871
21
-67.5835
0
LINE
8
BLACK
6
CONTINUOUS
10
59.2871
20
-67.5835
11
59.4169
21
-67.3734
0
LINE
8
BLACK
6
CONTINUOUS
10
59.4169
20
-67.3734
11
59.5495
21
-67.1655
0
LINE
8
BLACK
6
CONTINUOUS
10
59.5495
20
-67.1655
11
59.6847
21
-66.96
0
LINE
8
BLACK
6
CONTINUOUS
10
59.6847
20
-66.96
11
59.8227
21
-66.7569
0
LINE
8
BLACK
6
CONTINUOUS
10
59.8227
20
-66.7569
11
59.9632
21
-66.5564
0
LINE
8
BLACK
6
CONTINUOUS
10
59.9632
20
-66.5564
11
60.1063
21
-66.3586
0
LINE
8
BLACK
6
CONTINUOUS
10
60.1063
20
-66.3586
11
60.252
21
-66.1635
0
LINE
8
BLACK
6
CONTINUOUS
10
60.252
20
-66.1635
11
60.4001
21
-65.9713
0
LINE
8
BLACK
6
CONTINUOUS
10
60.4001
20
-65.9713
11
60.5506
21
-65.782
0
LINE
8
BLACK
6
CONTINUOUS
10
60.5506
20
-65.782
11
60.7034
21
-65.5958
0
LINE
8
BLACK
6
CONTINUOUS
10
56.5727
20
-74.3927
11
56.6306
21
-74.271
0
LINE
8
BLACK
6
CONTINUOUS
10
56.6306
20
-74.271
11
56.6864
21
-74.1503
0
LINE
8
BLACK
6
CONTINUOUS
10
56.6864
20
-74.1503
11
56.74
21
-74.0307
0
LINE
8
BLACK
6
CONTINUOUS
10
56.74
20
-74.0307
11
56.7914
21
-73.912
0
LINE
8
BLACK
6
CONTINUOUS
10
56.7914
20
-73.912
11
56.8406
21
-73.7943
0
LINE
8
BLACK
6
CONTINUOUS
10
56.8406
20
-73.7943
11
56.8877
21
-73.6775
0
LINE
8
BLACK
6
CONTINUOUS
10
56.8877
20
-73.6775
11
56.9326
21
-73.5616
0
LINE
8
BLACK
6
CONTINUOUS
10
56.9326
20
-73.5616
11
56.9754
21
-73.4467
0
LINE
8
BLACK
6
CONTINUOUS
10
56.9754
20
-73.4467
11
57.016
21
-73.3326
0
LINE
8
BLACK
6
CONTINUOUS
10
57.016
20
-73.3326
11
57.0545
21
-73.2193
0
LINE
8
BLACK
6
CONTINUOUS
10
57.0545
20
-73.2193
11
57.0909
21
-73.1069
0
LINE
8
BLACK
6
CONTINUOUS
10
57.0909
20
-73.1069
11
57.1252
21
-72.9953
0
LINE
8
BLACK
6
CONTINUOUS
10
57.1252
20
-72.9953
11
57.1573
21
-72.8844
0
LINE
8
BLACK
6
CONTINUOUS
10
57.1573
20
-72.8844
11
57.1874
21
-72.7744
0
LINE
8
BLACK
6
CONTINUOUS
10
57.1874
20
-72.7744
11
57.2154
21
-72.665
0
LINE
8
BLACK
6
CONTINUOUS
10
57.2154
20
-72.665
11
57.2413
21
-72.5564
0
LINE
8
BLACK
6
CONTINUOUS
10
55.2968
20
-76.1587
11
55.428
21
-76.029
0
LINE
8
BLACK
6
CONTINUOUS
10
55.428
20
-76.029
11
55.5457
21
-75.911
0
LINE
8
BLACK
6
CONTINUOUS
10
55.5457
20
-75.911
11
55.6515
21
-75.8026
0
LINE
8
BLACK
6
CONTINUOUS
10
55.6515
20
-75.8026
11
55.7467
21
-75.702
0
LINE
8
BLACK
6
CONTINUOUS
10
55.7467
20
-75.702
11
55.8328
21
-75.6071
0
LINE
8
BLACK
6
CONTINUOUS
10
55.8328
20
-75.6071
11
55.911
21
-75.5161
0
LINE
8
BLACK
6
CONTINUOUS
10
55.911
20
-75.5161
11
55.9829
21
-75.427
0
LINE
8
BLACK
6
CONTINUOUS
10
55.9829
20
-75.427
11
56.0497
21
-75.3379
0
LINE
8
BLACK
6
CONTINUOUS
10
56.0497
20
-75.3379
11
56.113
21
-75.2469
0
LINE
8
BLACK
6
CONTINUOUS
10
56.113
20
-75.2469
11
56.1741
21
-75.152
0
LINE
8
BLACK
6
CONTINUOUS
10
56.1741
20
-75.152
11
56.2344
21
-75.0512
0
LINE
8
BLACK
6
CONTINUOUS
10
56.2344
20
-75.0512
11
56.2952
21
-74.9428
0
LINE
8
BLACK
6
CONTINUOUS
10
56.2952
20
-74.9428
11
56.3581
21
-74.8246
0
LINE
8
BLACK
6
CONTINUOUS
10
56.3581
20
-74.8246
11
56.4244
21
-74.6948
0
LINE
8
BLACK
6
CONTINUOUS
10
56.4244
20
-74.6948
11
56.4954
21
-74.5515
0
LINE
8
BLACK
6
CONTINUOUS
10
56.4954
20
-74.5515
11
56.5727
21
-74.3927
0
LINE
8
BLACK
6
CONTINUOUS
10
52.0697
20
-80.6157
11
52.1514
21
-80.4504
0
LINE
8
BLACK
6
CONTINUOUS
10
52.1514
20
-80.4504
11
52.2334
21
-80.2882
0
LINE
8
BLACK
6
CONTINUOUS
10
52.2334
20
-80.2882
11
52.3157
21
-80.1288
0
LINE
8
BLACK
6
CONTINUOUS
10
52.3157
20
-80.1288
11
52.3986
21
-79.9721
0
LINE
8
BLACK
6
CONTINUOUS
10
52.3986
20
-79.9721
11
52.4821
21
-79.818
0
LINE
8
BLACK
6
CONTINUOUS
10
52.4821
20
-79.818
11
52.5662
21
-79.6663
0
LINE
8
BLACK
6
CONTINUOUS
10
52.5662
20
-79.6663
11
52.6511
21
-79.517
0
LINE
8
BLACK
6
CONTINUOUS
10
52.6511
20
-79.517
11
52.7368
21
-79.3698
0
LINE
8
BLACK
6
CONTINUOUS
10
52.7368
20
-79.3698
11
52.8235
21
-79.2247
0
LINE
8
BLACK
6
CONTINUOUS
10
52.8235
20
-79.2247
11
52.9112
21
-79.0816
0
LINE
8
BLACK
6
CONTINUOUS
10
52.9112
20
-79.0816
11
53.0001
21
-78.9402
0
LINE
8
BLACK
6
CONTINUOUS
10
53.0001
20
-78.9402
11
53.0902
21
-78.8006
0
LINE
8
BLACK
6
CONTINUOUS
10
53.0902
20
-78.8006
11
53.1817
21
-78.6624
0
LINE
8
BLACK
6
CONTINUOUS
10
53.1817
20
-78.6624
11
53.2746
21
-78.5257
0
LINE
8
BLACK
6
CONTINUOUS
10
53.2746
20
-78.5257
11
53.369
21
-78.3903
0
LINE
8
BLACK
6
CONTINUOUS
10
53.369
20
-78.3903
11
53.465
21
-78.256
0
LINE
8
BLACK
6
CONTINUOUS
10
53.465
20
-78.256
11
53.5627
21
-78.1228
0
LINE
8
BLACK
6
CONTINUOUS
10
53.5627
20
-78.1228
11
53.6622
21
-77.9904
0
LINE
8
BLACK
6
CONTINUOUS
10
53.6622
20
-77.9904
11
53.7636
21
-77.8588
0
LINE
8
BLACK
6
CONTINUOUS
10
53.7636
20
-77.8588
11
53.867
21
-77.7278
0
LINE
8
BLACK
6
CONTINUOUS
10
53.867
20
-77.7278
11
53.9725
21
-77.5974
0
LINE
8
BLACK
6
CONTINUOUS
10
53.9725
20
-77.5974
11
54.0801
21
-77.4673
0
LINE
8
BLACK
6
CONTINUOUS
10
54.0801
20
-77.4673
11
54.19
21
-77.3375
0
LINE
8
BLACK
6
CONTINUOUS
10
54.19
20
-77.3375
11
54.3023
21
-77.2078
0
LINE
8
BLACK
6
CONTINUOUS
10
54.3023
20
-77.2078
11
54.417
21
-77.078
0
LINE
8
BLACK
6
CONTINUOUS
10
54.417
20
-77.078
11
54.5343
21
-76.9482
0
LINE
8
BLACK
6
CONTINUOUS
10
54.5343
20
-76.9482
11
54.6542
21
-76.818
0
LINE
8
BLACK
6
CONTINUOUS
10
54.6542
20
-76.818
11
54.7769
21
-76.6875
0
LINE
8
BLACK
6
CONTINUOUS
10
54.7769
20
-76.6875
11
54.9024
21
-76.5564
0
LINE
8
BLACK
6
CONTINUOUS
10
54.9024
20
-76.5564
11
55.0308
21
-76.4247
0
LINE
8
BLACK
6
CONTINUOUS
10
55.0308
20
-76.4247
11
55.1623
21
-76.2921
0
LINE
8
BLACK
6
CONTINUOUS
10
55.1623
20
-76.2921
11
55.2968
21
-76.1587
0
LINE
8
BLACK
6
CONTINUOUS
10
50.6057
20
-90.7757
11
50.5506
21
-90.4579
0
LINE
8
BLACK
6
CONTINUOUS
10
50.5506
20
-90.4579
11
50.5021
21
-90.1392
0
LINE
8
BLACK
6
CONTINUOUS
10
50.5021
20
-90.1392
11
50.4603
21
-89.8197
0
LINE
8
BLACK
6
CONTINUOUS
10
50.4603
20
-89.8197
11
50.4251
21
-89.4994
0
LINE
8
BLACK
6
CONTINUOUS
10
50.4251
20
-89.4994
11
50.3965
21
-89.1785
0
LINE
8
BLACK
6
CONTINUOUS
10
50.3965
20
-89.1785
11
50.3744
21
-88.8571
0
LINE
8
BLACK
6
CONTINUOUS
10
50.3744
20
-88.8571
11
50.359
21
-88.5352
0
LINE
8
BLACK
6
CONTINUOUS
10
50.359
20
-88.5352
11
50.3501
21
-88.213
0
LINE
8
BLACK
6
CONTINUOUS
10
50.3501
20
-88.213
11
50.3478
21
-87.8905
0
LINE
8
BLACK
6
CONTINUOUS
10
50.3478
20
-87.8905
11
50.3519
21
-87.5678
0
LINE
8
BLACK
6
CONTINUOUS
10
50.3519
20
-87.5678
11
50.3626
21
-87.245
0
LINE
8
BLACK
6
CONTINUOUS
10
50.3626
20
-87.245
11
50.3799
21
-86.9223
0
LINE
8
BLACK
6
CONTINUOUS
10
50.3799
20
-86.9223
11
50.4036
21
-86.5997
0
LINE
8
BLACK
6
CONTINUOUS
10
50.4036
20
-86.5997
11
50.4337
21
-86.2773
0
LINE
8
BLACK
6
CONTINUOUS
10
50.4337
20
-86.2773
11
50.4704
21
-85.9552
0
LINE
8
BLACK
6
CONTINUOUS
10
50.4704
20
-85.9552
11
50.5135
21
-85.6334
0
LINE
8
BLACK
6
CONTINUOUS
10
50.5135
20
-85.6334
11
50.563
21
-85.3122
0
LINE
8
BLACK
6
CONTINUOUS
10
50.563
20
-85.3122
11
50.619
21
-84.9915
0
LINE
8
BLACK
6
CONTINUOUS
10
50.619
20
-84.9915
11
50.6814
21
-84.6715
0
LINE
8
BLACK
6
CONTINUOUS
10
50.6814
20
-84.6715
11
50.7502
21
-84.3523
0
LINE
8
BLACK
6
CONTINUOUS
10
50.7502
20
-84.3523
11
50.8253
21
-84.034
0
LINE
8
BLACK
6
CONTINUOUS
10
50.8253
20
-84.034
11
50.9069
21
-83.7166
0
LINE
8
BLACK
6
CONTINUOUS
10
50.9069
20
-83.7166
11
50.9948
21
-83.4002
0
LINE
8
BLACK
6
CONTINUOUS
10
50.9948
20
-83.4002
11
51.089
21
-83.085
0
LINE
8
BLACK
6
CONTINUOUS
10
51.089
20
-83.085
11
51.1896
21
-82.771
0
LINE
8
BLACK
6
CONTINUOUS
10
51.1896
20
-82.771
11
51.2965
21
-82.4584
0
LINE
8
BLACK
6
CONTINUOUS
10
51.2965
20
-82.4584
11
51.4096
21
-82.1471
0
LINE
8
BLACK
6
CONTINUOUS
10
51.4096
20
-82.1471
11
51.5291
21
-81.8374
0
LINE
8
BLACK
6
CONTINUOUS
10
51.5291
20
-81.8374
11
51.6549
21
-81.5293
0
LINE
8
BLACK
6
CONTINUOUS
10
51.6549
20
-81.5293
11
51.7869
21
-81.223
0
LINE
8
BLACK
6
CONTINUOUS
10
51.7869
20
-81.223
11
51.9252
21
-80.9184
0
LINE
8
BLACK
6
CONTINUOUS
10
51.9252
20
-80.9184
11
52.0697
21
-80.6157
0
LINE
8
BLACK
6
CONTINUOUS
10
50.5946
20
-93.485
11
50.6168
21
-93.3707
0
LINE
8
BLACK
6
CONTINUOUS
10
50.6168
20
-93.3707
11
50.6376
21
-93.2623
0
LINE
8
BLACK
6
CONTINUOUS
10
50.6376
20
-93.2623
11
50.6569
21
-93.1593
0
LINE
8
BLACK
6
CONTINUOUS
10
50.6569
20
-93.1593
11
50.6912
21
-92.9681
0
LINE
8
BLACK
6
CONTINUOUS
10
50.6912
20
-92.9681
11
50.72
21
-92.7939
0
LINE
8
BLACK
6
CONTINUOUS
10
50.72
20
-92.7939
11
50.743
21
-92.6337
0
LINE
8
BLACK
6
CONTINUOUS
10
50.743
20
-92.6337
11
50.7604
21
-92.4842
0
LINE
8
BLACK
6
CONTINUOUS
10
50.7604
20
-92.4842
11
50.7722
21
-92.3424
0
LINE
8
BLACK
6
CONTINUOUS
10
50.7722
20
-92.3424
11
50.7784
21
-92.2051
0
LINE
8
BLACK
6
CONTINUOUS
10
50.7784
20
-92.2051
11
50.7789
21
-92.0691
0
LINE
8
BLACK
6
CONTINUOUS
10
50.7789
20
-92.0691
11
50.7739
21
-91.9313
0
LINE
8
BLACK
6
CONTINUOUS
10
50.7739
20
-91.9313
11
50.7633
21
-91.7887
0
LINE
8
BLACK
6
CONTINUOUS
10
50.7633
20
-91.7887
11
50.7471
21
-91.6379
0
LINE
8
BLACK
6
CONTINUOUS
10
50.7471
20
-91.6379
11
50.7253
21
-91.476
0
LINE
8
BLACK
6
CONTINUOUS
10
50.7253
20
-91.476
11
50.698
21
-91.2997
0
LINE
8
BLACK
6
CONTINUOUS
10
50.698
20
-91.2997
11
50.6652
21
-91.106
0
LINE
8
BLACK
6
CONTINUOUS
10
50.6652
20
-91.106
11
50.6468
21
-91.0015
0
LINE
8
BLACK
6
CONTINUOUS
10
50.6468
20
-91.0015
11
50.6269
21
-90.8916
0
LINE
8
BLACK
6
CONTINUOUS
10
50.6269
20
-90.8916
11
50.6057
21
-90.7757
0
LINE
8
BLACK
6
CONTINUOUS
10
50.3966
20
-96.3213
11
50.3967
21
-96.1782
0
LINE
8
BLACK
6
CONTINUOUS
10
50.3967
20
-96.1782
11
50.3969
21
-96.0415
0
LINE
8
BLACK
6
CONTINUOUS
10
50.3969
20
-96.0415
11
50.3974
21
-95.9111
0
LINE
8
BLACK
6
CONTINUOUS
10
50.3974
20
-95.9111
11
50.3981
21
-95.7865
0
LINE
8
BLACK
6
CONTINUOUS
10
50.3981
20
-95.7865
11
50.399
21
-95.6676
0
LINE
8
BLACK
6
CONTINUOUS
10
50.399
20
-95.6676
11
50.4003
21
-95.554
0
LINE
8
BLACK
6
CONTINUOUS
10
50.4003
20
-95.554
11
50.4018
21
-95.4454
0
LINE
8
BLACK
6
CONTINUOUS
10
50.4018
20
-95.4454
11
50.4036
21
-95.3415
0
LINE
8
BLACK
6
CONTINUOUS
10
50.4036
20
-95.3415
11
50.4082
21
-95.1467
0
LINE
8
BLACK
6
CONTINUOUS
10
50.4082
20
-95.1467
11
50.4144
21
-94.9671
0
LINE
8
BLACK
6
CONTINUOUS
10
50.4144
20
-94.9671
11
50.4222
21
-94.8004
0
LINE
8
BLACK
6
CONTINUOUS
10
50.4222
20
-94.8004
11
50.4318
21
-94.6442
0
LINE
8
BLACK
6
CONTINUOUS
10
50.4318
20
-94.6442
11
50.4434
21
-94.4961
0
LINE
8
BLACK
6
CONTINUOUS
10
50.4434
20
-94.4961
11
50.4572
21
-94.3537
0
LINE
8
BLACK
6
CONTINUOUS
10
50.4572
20
-94.3537
11
50.4733
21
-94.2146
0
LINE
8
BLACK
6
CONTINUOUS
10
50.4733
20
-94.2146
11
50.4919
21
-94.0764
0
LINE
8
BLACK
6
CONTINUOUS
10
50.4919
20
-94.0764
11
50.5132
21
-93.9367
0
LINE
8
BLACK
6
CONTINUOUS
10
50.5132
20
-93.9367
11
50.5373
21
-93.7932
0
LINE
8
BLACK
6
CONTINUOUS
10
50.5373
20
-93.7932
11
50.5644
21
-93.6434
0
LINE
8
BLACK
6
CONTINUOUS
10
50.5644
20
-93.6434
11
50.5946
21
-93.485
0
LINE
8
BLACK
6
CONTINUOUS
10
50.5872
20
-99.1153
11
50.5584
21
-98.9649
0
LINE
8
BLACK
6
CONTINUOUS
10
50.5584
20
-98.9649
11
50.5326
21
-98.8216
0
LINE
8
BLACK
6
CONTINUOUS
10
50.5326
20
-98.8216
11
50.5096
21
-98.6832
0
LINE
8
BLACK
6
CONTINUOUS
10
50.5096
20
-98.6832
11
50.4893
21
-98.5476
0
LINE
8
BLACK
6
CONTINUOUS
10
50.4893
20
-98.5476
11
50.4714
21
-98.4124
0
LINE
8
BLACK
6
CONTINUOUS
10
50.4714
20
-98.4124
11
50.4559
21
-98.2754
0
LINE
8
BLACK
6
CONTINUOUS
10
50.4559
20
-98.2754
11
50.4426
21
-98.1345
0
LINE
8
BLACK
6
CONTINUOUS
10
50.4426
20
-98.1345
11
50.4313
21
-97.9875
0
LINE
8
BLACK
6
CONTINUOUS
10
50.4313
20
-97.9875
11
50.422
21
-97.832
0
LINE
8
BLACK
6
CONTINUOUS
10
50.422
20
-97.832
11
50.4143
21
-97.6658
0
LINE
8
BLACK
6
CONTINUOUS
10
50.4143
20
-97.6658
11
50.4083
21
-97.4868
0
LINE
8
BLACK
6
CONTINUOUS
10
50.4083
20
-97.4868
11
50.4037
21
-97.2928
0
LINE
8
BLACK
6
CONTINUOUS
10
50.4037
20
-97.2928
11
50.4018
21
-97.1894
0
LINE
8
BLACK
6
CONTINUOUS
10
50.4018
20
-97.1894
11
50.4003
21
-97.0814
0
LINE
8
BLACK
6
CONTINUOUS
10
50.4003
20
-97.0814
11
50.3991
21
-96.9686
0
LINE
8
BLACK
6
CONTINUOUS
10
50.3991
20
-96.9686
11
50.3982
21
-96.8505
0
LINE
8
BLACK
6
CONTINUOUS
10
50.3982
20
-96.8505
11
50.3974
21
-96.7271
0
LINE
8
BLACK
6
CONTINUOUS
10
50.3974
20
-96.7271
11
50.3969
21
-96.5979
0
LINE
8
BLACK
6
CONTINUOUS
10
50.3969
20
-96.5979
11
50.3967
21
-96.4628
0
LINE
8
BLACK
6
CONTINUOUS
10
50.3967
20
-96.4628
11
50.3966
21
-96.3213
0
LINE
8
BLACK
6
CONTINUOUS
10
50.8504
20
-101.698
11
50.841
21
-101.503
0
LINE
8
BLACK
6
CONTINUOUS
10
50.841
20
-101.503
11
50.8306
21
-101.311
0
LINE
8
BLACK
6
CONTINUOUS
10
50.8306
20
-101.311
11
50.8192
21
-101.124
0
LINE
8
BLACK
6
CONTINUOUS
10
50.8192
20
-101.124
11
50.8068
21
-100.941
0
LINE
8
BLACK
6
CONTINUOUS
10
50.8068
20
-100.941
11
50.7934
21
-100.762
0
LINE
8
BLACK
6
CONTINUOUS
10
50.7934
20
-100.762
11
50.7791
21
-100.587
0
LINE
8
BLACK
6
CONTINUOUS
10
50.7791
20
-100.587
11
50.7638
21
-100.417
0
LINE
8
BLACK
6
CONTINUOUS
10
50.7638
20
-100.417
11
50.7476
21
-100.251
0
LINE
8
BLACK
6
CONTINUOUS
10
50.7476
20
-100.251
11
50.7306
21
-100.09
0
LINE
8
BLACK
6
CONTINUOUS
10
50.7306
20
-100.09
11
50.7126
21
-99.9348
0
LINE
8
BLACK
6
CONTINUOUS
10
50.7126
20
-99.9348
11
50.6938
21
-99.7843
0
LINE
8
BLACK
6
CONTINUOUS
10
50.6938
20
-99.7843
11
50.6741
21
-99.6392
0
LINE
8
BLACK
6
CONTINUOUS
10
50.6741
20
-99.6392
11
50.6536
21
-99.4996
0
LINE
8
BLACK
6
CONTINUOUS
10
50.6536
20
-99.4996
11
50.6323
21
-99.3656
0
LINE
8
BLACK
6
CONTINUOUS
10
50.6323
20
-99.3656
11
50.6101
21
-99.2375
0
LINE
8
BLACK
6
CONTINUOUS
10
50.6101
20
-99.2375
11
50.5872
21
-99.1153
0
LINE
8
BLACK
6
CONTINUOUS
10
51.4864
20
-106.016
11
51.4536
21
-105.902
0
LINE
8
BLACK
6
CONTINUOUS
10
51.4536
20
-105.902
11
51.4217
21
-105.788
0
LINE
8
BLACK
6
CONTINUOUS
10
51.4217
20
-105.788
11
51.3906
21
-105.673
0
LINE
8
BLACK
6
CONTINUOUS
10
51.3906
20
-105.673
11
51.3605
21
-105.556
0
LINE
8
BLACK
6
CONTINUOUS
10
51.3605
20
-105.556
11
51.3312
21
-105.439
0
LINE
8
BLACK
6
CONTINUOUS
10
51.3312
20
-105.439
11
51.3027
21
-105.32
0
LINE
8
BLACK
6
CONTINUOUS
10
51.3027
20
-105.32
11
51.2751
21
-105.2
0
LINE
8
BLACK
6
CONTINUOUS
10
51.2751
20
-105.2
11
51.2484
21
-105.079
0
LINE
8
BLACK
6
CONTINUOUS
10
51.2484
20
-105.079
11
51.2226
21
-104.956
0
LINE
8
BLACK
6
CONTINUOUS
10
51.2226
20
-104.956
11
51.1975
21
-104.832
0
LINE
8
BLACK
6
CONTINUOUS
10
51.1975
20
-104.832
11
51.1733
21
-104.707
0
LINE
8
BLACK
6
CONTINUOUS
10
51.1733
20
-104.707
11
51.15
21
-104.58
0
LINE
8
BLACK
6
CONTINUOUS
10
51.15
20
-104.58
11
51.1275
21
-104.452
0
LINE
8
BLACK
6
CONTINUOUS
10
51.1275
20
-104.452
11
51.1058
21
-104.322
0
LINE
8
BLACK
6
CONTINUOUS
10
51.1058
20
-104.322
11
51.0849
21
-104.191
0
LINE
8
BLACK
6
CONTINUOUS
10
51.0849
20
-104.191
11
51.0648
21
-104.058
0
LINE
8
BLACK
6
CONTINUOUS
10
51.0648
20
-104.058
11
51.0456
21
-103.924
0
LINE
8
BLACK
6
CONTINUOUS
10
51.0456
20
-103.924
11
51.0271
21
-103.788
0
LINE
8
BLACK
6
CONTINUOUS
10
51.0271
20
-103.788
11
51.0095
21
-103.651
0
LINE
8
BLACK
6
CONTINUOUS
10
51.0095
20
-103.651
11
50.9926
21
-103.512
0
LINE
8
BLACK
6
CONTINUOUS
10
50.9926
20
-103.512
11
50.9766
21
-103.371
0
LINE
8
BLACK
6
CONTINUOUS
10
50.9766
20
-103.371
11
50.9613
21
-103.228
0
LINE
8
BLACK
6
CONTINUOUS
10
50.9613
20
-103.228
11
50.9468
21
-103.084
0
LINE
8
BLACK
6
CONTINUOUS
10
50.9468
20
-103.084
11
50.933
21
-102.937
0
LINE
8
BLACK
6
CONTINUOUS
10
50.933
20
-102.937
11
50.9201
21
-102.789
0
LINE
8
BLACK
6
CONTINUOUS
10
50.9201
20
-102.789
11
50.9079
21
-102.639
0
LINE
8
BLACK
6
CONTINUOUS
10
50.9079
20
-102.639
11
50.8964
21
-102.487
0
LINE
8
BLACK
6
CONTINUOUS
10
50.8964
20
-102.487
11
50.8857
21
-102.333
0
LINE
8
BLACK
6
CONTINUOUS
10
50.8857
20
-102.333
11
50.8758
21
-102.178
0
LINE
8
BLACK
6
CONTINUOUS
10
50.8758
20
-102.178
11
50.8666
21
-102.02
0
LINE
8
BLACK
6
CONTINUOUS
10
50.8666
20
-102.02
11
50.8581
21
-101.86
0
LINE
8
BLACK
6
CONTINUOUS
10
50.8581
20
-101.86
11
50.8504
21
-101.698
0
LINE
8
BLACK
6
CONTINUOUS
10
51.7842
20
-108.132
11
51.7734
21
-107.94
0
LINE
8
BLACK
6
CONTINUOUS
10
51.7734
20
-107.94
11
51.7622
21
-107.76
0
LINE
8
BLACK
6
CONTINUOUS
10
51.7622
20
-107.76
11
51.7506
21
-107.593
0
LINE
8
BLACK
6
CONTINUOUS
10
51.7506
20
-107.593
11
51.7384
21
-107.437
0
LINE
8
BLACK
6
CONTINUOUS
10
51.7384
20
-107.437
11
51.7254
21
-107.29
0
LINE
8
BLACK
6
CONTINUOUS
10
51.7254
20
-107.29
11
51.7114
21
-107.153
0
LINE
8
BLACK
6
CONTINUOUS
10
51.7114
20
-107.153
11
51.6964
21
-107.023
0
LINE
8
BLACK
6
CONTINUOUS
10
51.6964
20
-107.023
11
51.6801
21
-106.899
0
LINE
8
BLACK
6
CONTINUOUS
10
51.6801
20
-106.899
11
51.6625
21
-106.781
0
LINE
8
BLACK
6
CONTINUOUS
10
51.6625
20
-106.781
11
51.6432
21
-106.668
0
LINE
8
BLACK
6
CONTINUOUS
10
51.6432
20
-106.668
11
51.6223
21
-106.558
0
LINE
8
BLACK
6
CONTINUOUS
10
51.6223
20
-106.558
11
51.5995
21
-106.449
0
LINE
8
BLACK
6
CONTINUOUS
10
51.5995
20
-106.449
11
51.5746
21
-106.342
0
LINE
8
BLACK
6
CONTINUOUS
10
51.5746
20
-106.342
11
51.5476
21
-106.235
0
LINE
8
BLACK
6
CONTINUOUS
10
51.5476
20
-106.235
11
51.5183
21
-106.126
0
LINE
8
BLACK
6
CONTINUOUS
10
51.5183
20
-106.126
11
51.4864
21
-106.016
0
LINE
8
BLACK
6
CONTINUOUS
10
52.0255
20
-110.393
11
52.008
21
-110.294
0
LINE
8
BLACK
6
CONTINUOUS
10
52.008
20
-110.294
11
51.9902
21
-110.183
0
LINE
8
BLACK
6
CONTINUOUS
10
51.9902
20
-110.183
11
51.9723
21
-110.063
0
LINE
8
BLACK
6
CONTINUOUS
10
51.9723
20
-110.063
11
51.9544
21
-109.934
0
LINE
8
BLACK
6
CONTINUOUS
10
51.9544
20
-109.934
11
51.9366
21
-109.798
0
LINE
8
BLACK
6
CONTINUOUS
10
51.9366
20
-109.798
11
51.919
21
-109.655
0
LINE
8
BLACK
6
CONTINUOUS
10
51.919
20
-109.655
11
51.9019
21
-109.507
0
LINE
8
BLACK
6
CONTINUOUS
10
51.9019
20
-109.507
11
51.8852
21
-109.355
0
LINE
8
BLACK
6
CONTINUOUS
10
51.8852
20
-109.355
11
51.8691
21
-109.2
0
LINE
8
BLACK
6
CONTINUOUS
10
51.8691
20
-109.2
11
51.8538
21
-109.044
0
LINE
8
BLACK
6
CONTINUOUS
10
51.8538
20
-109.044
11
51.8393
21
-108.886
0
LINE
8
BLACK
6
CONTINUOUS
10
51.8393
20
-108.886
11
51.8258
21
-108.73
0
LINE
8
BLACK
6
CONTINUOUS
10
51.8258
20
-108.73
11
51.8135
21
-108.575
0
LINE
8
BLACK
6
CONTINUOUS
10
51.8135
20
-108.575
11
51.8023
21
-108.423
0
LINE
8
BLACK
6
CONTINUOUS
10
51.8023
20
-108.423
11
51.7925
21
-108.275
0
LINE
8
BLACK
6
CONTINUOUS
10
51.7925
20
-108.275
11
51.7842
21
-108.132
0
LINE
8
BLACK
6
CONTINUOUS
10
52.1121
20
-111.79
11
52.1283
21
-111.682
0
LINE
8
BLACK
6
CONTINUOUS
10
52.1283
20
-111.682
11
52.1399
21
-111.577
0
LINE
8
BLACK
6
CONTINUOUS
10
52.1399
20
-111.577
11
52.1468
21
-111.473
0
LINE
8
BLACK
6
CONTINUOUS
10
52.1468
20
-111.473
11
52.1488
21
-111.366
0
LINE
8
BLACK
6
CONTINUOUS
10
52.1488
20
-111.366
11
52.1458
21
-111.255
0
LINE
8
BLACK
6
CONTINUOUS
10
52.1458
20
-111.255
11
52.1376
21
-111.135
0
LINE
8
BLACK
6
CONTINUOUS
10
52.1376
20
-111.135
11
52.1241
21
-111.005
0
LINE
8
BLACK
6
CONTINUOUS
10
52.1241
20
-111.005
11
52.1049
21
-110.861
0
LINE
8
BLACK
6
CONTINUOUS
10
52.1049
20
-110.861
11
52.089
21
-110.757
0
LINE
8
BLACK
6
CONTINUOUS
10
52.089
20
-110.757
11
52.0705
21
-110.645
0
LINE
8
BLACK
6
CONTINUOUS
10
52.0705
20
-110.645
11
52.0493
21
-110.524
0
LINE
8
BLACK
6
CONTINUOUS
10
52.0493
20
-110.524
11
52.0255
21
-110.393
0
LINE
8
BLACK
6
CONTINUOUS
10
52.0254
20
-115.541
11
52.0079
21
-115.341
0
LINE
8
BLACK
6
CONTINUOUS
10
52.0079
20
-115.341
11
52.0004
21
-115.235
0
LINE
8
BLACK
6
CONTINUOUS
10
52.0004
20
-115.235
11
51.9937
21
-115.125
0
LINE
8
BLACK
6
CONTINUOUS
10
51.9937
20
-115.125
11
51.9879
21
-115.011
0
LINE
8
BLACK
6
CONTINUOUS
10
51.9879
20
-115.011
11
51.9828
21
-114.894
0
LINE
8
BLACK
6
CONTINUOUS
10
51.9828
20
-114.894
11
51.9786
21
-114.774
0
LINE
8
BLACK
6
CONTINUOUS
10
51.9786
20
-114.774
11
51.9752
21
-114.651
0
LINE
8
BLACK
6
CONTINUOUS
10
51.9752
20
-114.651
11
51.9725
21
-114.526
0
LINE
8
BLACK
6
CONTINUOUS
10
51.9725
20
-114.526
11
51.9707
21
-114.399
0
LINE
8
BLACK
6
CONTINUOUS
10
51.9707
20
-114.399
11
51.9696
21
-114.27
0
LINE
8
BLACK
6
CONTINUOUS
10
51.9696
20
-114.27
11
51.9693
21
-114.14
0
LINE
8
BLACK
6
CONTINUOUS
10
51.9693
20
-114.14
11
51.9697
21
-114.01
0
LINE
8
BLACK
6
CONTINUOUS
10
51.9697
20
-114.01
11
51.9709
21
-113.878
0
LINE
8
BLACK
6
CONTINUOUS
10
51.9709
20
-113.878
11
51.9728
21
-113.747
0
LINE
8
BLACK
6
CONTINUOUS
10
51.9728
20
-113.747
11
51.9755
21
-113.615
0
LINE
8
BLACK
6
CONTINUOUS
10
51.9755
20
-113.615
11
51.9789
21
-113.484
0
LINE
8
BLACK
6
CONTINUOUS
10
51.9789
20
-113.484
11
51.983
21
-113.353
0
LINE
8
BLACK
6
CONTINUOUS
10
51.983
20
-113.353
11
51.9879
21
-113.224
0
LINE
8
BLACK
6
CONTINUOUS
10
51.9879
20
-113.224
11
51.9934
21
-113.096
0
LINE
8
BLACK
6
CONTINUOUS
10
51.9934
20
-113.096
11
51.9997
21
-112.969
0
LINE
8
BLACK
6
CONTINUOUS
10
51.9997
20
-112.969
11
52.0066
21
-112.845
0
LINE
8
BLACK
6
CONTINUOUS
10
52.0066
20
-112.845
11
52.0142
21
-112.723
0
LINE
8
BLACK
6
CONTINUOUS
10
52.0142
20
-112.723
11
52.0225
21
-112.604
0
LINE
8
BLACK
6
CONTINUOUS
10
52.0225
20
-112.604
11
52.0314
21
-112.488
0
LINE
8
BLACK
6
CONTINUOUS
10
52.0314
20
-112.488
11
52.041
21
-112.376
0
LINE
8
BLACK
6
CONTINUOUS
10
52.041
20
-112.376
11
52.0513
21
-112.267
0
LINE
8
BLACK
6
CONTINUOUS
10
52.0513
20
-112.267
11
52.0622
21
-112.162
0
LINE
8
BLACK
6
CONTINUOUS
10
52.0622
20
-112.162
11
52.0738
21
-112.061
0
LINE
8
BLACK
6
CONTINUOUS
10
52.0738
20
-112.061
11
52.0987
21
-111.875
0
LINE
8
BLACK
6
CONTINUOUS
10
52.0987
20
-111.875
11
52.1121
21
-111.79
0
LINE
8
BLACK
6
CONTINUOUS
10
64.215
20
-130.067
11
63.5883
21
-129.881
0
LINE
8
BLACK
6
CONTINUOUS
10
63.5883
20
-129.881
11
62.9737
21
-129.674
0
LINE
8
BLACK
6
CONTINUOUS
10
62.9737
20
-129.674
11
62.3717
21
-129.445
0
LINE
8
BLACK
6
CONTINUOUS
10
62.3717
20
-129.445
11
61.7826
21
-129.196
0
LINE
8
BLACK
6
CONTINUOUS
10
61.7826
20
-129.196
11
61.2068
21
-128.927
0
LINE
8
BLACK
6
CONTINUOUS
10
61.2068
20
-128.927
11
60.6447
21
-128.637
0
LINE
8
BLACK
6
CONTINUOUS
10
60.6447
20
-128.637
11
60.0967
21
-128.328
0
LINE
8
BLACK
6
CONTINUOUS
10
60.0967
20
-128.328
11
59.563
21
-128
0
LINE
8
BLACK
6
CONTINUOUS
10
59.563
20
-128
11
59.0441
21
-127.653
0
LINE
8
BLACK
6
CONTINUOUS
10
59.0441
20
-127.653
11
58.5403
21
-127.288
0
LINE
8
BLACK
6
CONTINUOUS
10
58.5403
20
-127.288
11
58.052
21
-126.906
0
LINE
8
BLACK
6
CONTINUOUS
10
58.052
20
-126.906
11
57.5796
21
-126.506
0
LINE
8
BLACK
6
CONTINUOUS
10
57.5796
20
-126.506
11
57.1234
21
-126.089
0
LINE
8
BLACK
6
CONTINUOUS
10
57.1234
20
-126.089
11
56.6838
21
-125.655
0
LINE
8
BLACK
6
CONTINUOUS
10
56.6838
20
-125.655
11
56.2611
21
-125.206
0
LINE
8
BLACK
6
CONTINUOUS
10
56.2611
20
-125.206
11
55.8558
21
-124.741
0
LINE
8
BLACK
6
CONTINUOUS
10
55.8558
20
-124.741
11
55.4682
21
-124.261
0
LINE
8
BLACK
6
CONTINUOUS
10
55.4682
20
-124.261
11
55.0986
21
-123.766
0
LINE
8
BLACK
6
CONTINUOUS
10
55.0986
20
-123.766
11
54.7474
21
-123.257
0
LINE
8
BLACK
6
CONTINUOUS
10
54.7474
20
-123.257
11
54.4151
21
-122.734
0
LINE
8
BLACK
6
CONTINUOUS
10
54.4151
20
-122.734
11
54.1019
21
-122.198
0
LINE
8
BLACK
6
CONTINUOUS
10
54.1019
20
-122.198
11
53.8082
21
-121.649
0
LINE
8
BLACK
6
CONTINUOUS
10
53.8082
20
-121.649
11
53.5344
21
-121.087
0
LINE
8
BLACK
6
CONTINUOUS
10
53.5344
20
-121.087
11
53.2808
21
-120.514
0
LINE
8
BLACK
6
CONTINUOUS
10
53.2808
20
-120.514
11
53.0479
21
-119.928
0
LINE
8
BLACK
6
CONTINUOUS
10
53.0479
20
-119.928
11
52.8359
21
-119.332
0
LINE
8
BLACK
6
CONTINUOUS
10
52.8359
20
-119.332
11
52.6453
21
-118.724
0
LINE
8
BLACK
6
CONTINUOUS
10
52.6453
20
-118.724
11
52.4764
21
-118.106
0
LINE
8
BLACK
6
CONTINUOUS
10
52.4764
20
-118.106
11
52.3296
21
-117.479
0
LINE
8
BLACK
6
CONTINUOUS
10
52.3296
20
-117.479
11
52.2053
21
-116.842
0
LINE
8
BLACK
6
CONTINUOUS
10
52.2053
20
-116.842
11
52.1038
21
-116.195
0
LINE
8
BLACK
6
CONTINUOUS
10
52.1038
20
-116.195
11
52.0254
21
-115.541
0
LINE
8
BLACK
6
CONTINUOUS
10
66.099
20
-130.912
11
65.9667
21
-130.824
0
LINE
8
BLACK
6
CONTINUOUS
10
65.9667
20
-130.824
11
65.8446
21
-130.745
0
LINE
8
BLACK
6
CONTINUOUS
10
65.8446
20
-130.745
11
65.7311
21
-130.674
0
LINE
8
BLACK
6
CONTINUOUS
10
65.7311
20
-130.674
11
65.6242
21
-130.609
0
LINE
8
BLACK
6
CONTINUOUS
10
65.6242
20
-130.609
11
65.5222
21
-130.55
0
LINE
8
BLACK
6
CONTINUOUS
10
65.5222
20
-130.55
11
65.4234
21
-130.496
0
LINE
8
BLACK
6
CONTINUOUS
10
65.4234
20
-130.496
11
65.326
21
-130.447
0
LINE
8
BLACK
6
CONTINUOUS
10
65.326
20
-130.447
11
65.2281
21
-130.401
0
LINE
8
BLACK
6
CONTINUOUS
10
65.2281
20
-130.401
11
65.1279
21
-130.358
0
LINE
8
BLACK
6
CONTINUOUS
10
65.1279
20
-130.358
11
65.0238
21
-130.317
0
LINE
8
BLACK
6
CONTINUOUS
10
65.0238
20
-130.317
11
64.9139
21
-130.277
0
LINE
8
BLACK
6
CONTINUOUS
10
64.9139
20
-130.277
11
64.7964
21
-130.237
0
LINE
8
BLACK
6
CONTINUOUS
10
64.7964
20
-130.237
11
64.6696
21
-130.197
0
LINE
8
BLACK
6
CONTINUOUS
10
64.6696
20
-130.197
11
64.5316
21
-130.156
0
LINE
8
BLACK
6
CONTINUOUS
10
64.5316
20
-130.156
11
64.3807
21
-130.113
0
LINE
8
BLACK
6
CONTINUOUS
10
64.3807
20
-130.113
11
64.215
21
-130.067
0
LINE
8
BLACK
6
CONTINUOUS
10
73.1987
20
-133.572
11
72.9656
21
-133.538
0
LINE
8
BLACK
6
CONTINUOUS
10
72.9656
20
-133.538
11
72.7319
21
-133.501
0
LINE
8
BLACK
6
CONTINUOUS
10
72.7319
20
-133.501
11
72.4978
21
-133.459
0
LINE
8
BLACK
6
CONTINUOUS
10
72.4978
20
-133.459
11
72.2635
21
-133.415
0
LINE
8
BLACK
6
CONTINUOUS
10
72.2635
20
-133.415
11
72.0289
21
-133.366
0
LINE
8
BLACK
6
CONTINUOUS
10
72.0289
20
-133.366
11
71.7944
21
-133.315
0
LINE
8
BLACK
6
CONTINUOUS
10
71.7944
20
-133.315
11
71.5599
21
-133.259
0
LINE
8
BLACK
6
CONTINUOUS
10
71.5599
20
-133.259
11
71.3256
21
-133.201
0
LINE
8
BLACK
6
CONTINUOUS
10
71.3256
20
-133.201
11
71.0917
21
-133.139
0
LINE
8
BLACK
6
CONTINUOUS
10
71.0917
20
-133.139
11
70.8583
21
-133.074
0
LINE
8
BLACK
6
CONTINUOUS
10
70.8583
20
-133.074
11
70.6254
21
-133.006
0
LINE
8
BLACK
6
CONTINUOUS
10
70.6254
20
-133.006
11
70.3933
21
-132.934
0
LINE
8
BLACK
6
CONTINUOUS
10
70.3933
20
-132.934
11
70.1621
21
-132.859
0
LINE
8
BLACK
6
CONTINUOUS
10
70.1621
20
-132.859
11
69.9318
21
-132.782
0
LINE
8
BLACK
6
CONTINUOUS
10
69.9318
20
-132.782
11
69.7026
21
-132.701
0
LINE
8
BLACK
6
CONTINUOUS
10
69.7026
20
-132.701
11
69.4747
21
-132.617
0
LINE
8
BLACK
6
CONTINUOUS
10
69.4747
20
-132.617
11
69.2481
21
-132.531
0
LINE
8
BLACK
6
CONTINUOUS
10
69.2481
20
-132.531
11
69.023
21
-132.441
0
LINE
8
BLACK
6
CONTINUOUS
10
69.023
20
-132.441
11
68.7995
21
-132.349
0
LINE
8
BLACK
6
CONTINUOUS
10
68.7995
20
-132.349
11
68.5778
21
-132.254
0
LINE
8
BLACK
6
CONTINUOUS
10
68.5778
20
-132.254
11
68.3579
21
-132.156
0
LINE
8
BLACK
6
CONTINUOUS
10
68.3579
20
-132.156
11
68.14
21
-132.055
0
LINE
8
BLACK
6
CONTINUOUS
10
68.14
20
-132.055
11
67.9243
21
-131.952
0
LINE
8
BLACK
6
CONTINUOUS
10
67.9243
20
-131.952
11
67.7108
21
-131.846
0
LINE
8
BLACK
6
CONTINUOUS
10
67.7108
20
-131.846
11
67.4996
21
-131.738
0
LINE
8
BLACK
6
CONTINUOUS
10
67.4996
20
-131.738
11
67.291
21
-131.627
0
LINE
8
BLACK
6
CONTINUOUS
10
67.291
20
-131.627
11
67.085
21
-131.514
0
LINE
8
BLACK
6
CONTINUOUS
10
67.085
20
-131.514
11
66.8818
21
-131.398
0
LINE
8
BLACK
6
CONTINUOUS
10
66.8818
20
-131.398
11
66.6815
21
-131.28
0
LINE
8
BLACK
6
CONTINUOUS
10
66.6815
20
-131.28
11
66.4841
21
-131.159
0
LINE
8
BLACK
6
CONTINUOUS
10
66.4841
20
-131.159
11
66.2899
21
-131.037
0
LINE
8
BLACK
6
CONTINUOUS
10
66.2899
20
-131.037
11
66.099
21
-130.912
0
LINE
8
BLACK
6
CONTINUOUS
10
143
20
-76.75
11
143
21
-73.25
0
LINE
8
BLACK
6
CONTINUOUS
10
143
20
-73.25
11
141
21
-73.25
0
LINE
8
BLACK
6
CONTINUOUS
10
141
20
-73.25
11
141
21
-76.75
0
LINE
8
BLACK
6
CONTINUOUS
10
141
20
-76.75
11
143
21
-76.75
0
LINE
8
BLACK
6
CONTINUOUS
10
141
20
-119.75
11
141
21
-116.25
0
LINE
8
BLACK
6
CONTINUOUS
10
141
20
-116.25
11
139
21
-116.25
0
LINE
8
BLACK
6
CONTINUOUS
10
139
20
-116.25
11
139
21
-119.75
0
LINE
8
BLACK
6
CONTINUOUS
10
139
20
-119.75
11
141
21
-119.75
0
LINE
8
BLACK
6
CONTINUOUS
10
143
20
-115.75
11
143
21
-112.25
0
LINE
8
BLACK
6
CONTINUOUS
10
143
20
-112.25
11
141
21
-112.25
0
LINE
8
BLACK
6
CONTINUOUS
10
141
20
-112.25
11
141
21
-115.75
0
LINE
8
BLACK
6
CONTINUOUS
10
141
20
-115.75
11
143
21
-115.75
0
LINE
8
BLACK
6
CONTINUOUS
10
55
20
-114.25
11
55
21
-117.75
0
LINE
8
BLACK
6
CONTINUOUS
10
55
20
-117.75
11
57
21
-117.75
0
LINE
8
BLACK
6
CONTINUOUS
10
57
20
-117.75
11
57
21
-114.25
0
LINE
8
BLACK
6
CONTINUOUS
10
57
20
-114.25
11
55
21
-114.25
0
LINE
8
BLACK
6
CONTINUOUS
10
145
20
-98.75
11
145
21
-95.25
0
LINE
8
BLACK
6
CONTINUOUS
10
145
20
-95.25
11
143
21
-95.25
0
LINE
8
BLACK
6
CONTINUOUS
10
143
20
-95.25
11
143
21
-98.75
0
LINE
8
BLACK
6
CONTINUOUS
10
143
20
-98.75
11
145
21
-98.75
0
LINE
8
BLACK
6
CONTINUOUS
10
144.35
20
-85.9
11
140.85
21
-85.9
0
LINE
8
BLACK
6
CONTINUOUS
10
140.85
20
-85.9
11
140.85
21
-87.9
0
LINE
8
BLACK
6
CONTINUOUS
10
140.85
20
-87.9
11
144.35
21
-87.9
0
LINE
8
BLACK
6
CONTINUOUS
10
144.35
20
-87.9
11
144.35
21
-85.9
0
LINE
8
BLACK
6
CONTINUOUS
10
144.35
20
-88.2
11
140.85
21
-88.2
0
LINE
8
BLACK
6
CONTINUOUS
10
140.85
20
-88.2
11
140.85
21
-90.2
0
LINE
8
BLACK
6
CONTINUOUS
10
140.85
20
-90.2
11
144.35
21
-90.2
0
LINE
8
BLACK
6
CONTINUOUS
10
144.35
20
-90.2
11
144.35
21
-88.2
0
LINE
8
BLACK
6
CONTINUOUS
10
57
20
-107.75
11
57
21
-104.25
0
LINE
8
BLACK
6
CONTINUOUS
10
57
20
-104.25
11
55
21
-104.25
0
LINE
8
BLACK
6
CONTINUOUS
10
55
20
-104.25
11
55
21
-107.75
0
LINE
8
BLACK
6
CONTINUOUS
10
55
20
-107.75
11
57
21
-107.75
0
LINE
8
BLACK
6
CONTINUOUS
10
57
20
-86.75
11
57
21
-83.25
0
LINE
8
BLACK
6
CONTINUOUS
10
57
20
-83.25
11
55
21
-83.25
0
LINE
8
BLACK
6
CONTINUOUS
10
55
20
-83.25
11
55
21
-86.75
0
LINE
8
BLACK
6
CONTINUOUS
10
55
20
-86.75
11
57
21
-86.75
0
ARC
8
BLACK
10
132
20
-125
40
2.25
50
-0
51
180
0
LINE
8
BLACK
6
CONTINUOUS
10
134.25
20
-125
11
134.25
21
-126
0
LINE
8
BLACK
6
CONTINUOUS
10
134.25
20
-126
11
129.75
21
-126
0
LINE
8
BLACK
6
CONTINUOUS
10
129.75
20
-126
11
129.75
21
-125
0
ARC
8
BLACK
10
124
20
-126
40
2.25
50
-0
51
180
0
LINE
8
BLACK
6
CONTINUOUS
10
126.25
20
-126
11
126.25
21
-127
0
LINE
8
BLACK
6
CONTINUOUS
10
126.25
20
-127
11
121.75
21
-127
0
LINE
8
BLACK
6
CONTINUOUS
10
121.75
20
-127
11
121.75
21
-126
0
ARC
8
BLACK
10
114
20
-125
40
2.25
50
-0
51
180
0
LINE
8
BLACK
6
CONTINUOUS
10
116.25
20
-125
11
116.25
21
-126
0
LINE
8
BLACK
6
CONTINUOUS
10
116.25
20
-126
11
111.75
21
-126
0
LINE
8
BLACK
6
CONTINUOUS
10
111.75
20
-126
11
111.75
21
-125
0
ARC
8
BLACK
10
132
20
-106
40
2.25
50
-180
51
-0
0
LINE
8
BLACK
6
CONTINUOUS
10
129.75
20
-106
11
129.75
21
-105
0
LINE
8
BLACK
6
CONTINUOUS
10
129.75
20
-105
11
134.25
21
-105
0
LINE
8
BLACK
6
CONTINUOUS
10
134.25
20
-105
11
134.25
21
-106
0
ARC
8
BLACK
10
125
20
-104
40
2.25
50
-180
51
-0
0
LINE
8
BLACK
6
CONTINUOUS
10
122.75
20
-104
11
122.75
21
-103
0
LINE
8
BLACK
6
CONTINUOUS
10
122.75
20
-103
11
127.25
21
-103
0
LINE
8
BLACK
6
CONTINUOUS
10
127.25
20
-103
11
127.25
21
-104
0
ARC
8
BLACK
10
114
20
-107
40
2.25
50
-180
51
-0
0
LINE
8
BLACK
6
CONTINUOUS
10
111.75
20
-107
11
111.75
21
-106
0
LINE
8
BLACK
6
CONTINUOUS
10
111.75
20
-106
11
116.25
21
-106
0
LINE
8
BLACK
6
CONTINUOUS
10
116.25
20
-106
11
116.25
21
-107
0
ARC
8
BLACK
10
105
20
-104
40
2.25
50
-190
51
-9.99999
0
LINE
8
BLACK
6
CONTINUOUS
10
102.784
20
-103.609
11
102.958
21
-102.624
0
LINE
8
BLACK
6
CONTINUOUS
10
102.958
20
-102.624
11
107.389
21
-103.406
0
LINE
8
BLACK
6
CONTINUOUS
10
107.389
20
-103.406
11
107.216
21
-104.391
0
ARC
8
BLACK
10
93
20
-115
40
2.25
50
-90
51
90
0
LINE
8
BLACK
6
CONTINUOUS
10
93
20
-117.25
11
92
21
-117.25
0
LINE
8
BLACK
6
CONTINUOUS
10
92
20
-117.25
11
92
21
-112.75
0
LINE
8
BLACK
6
CONTINUOUS
10
92
20
-112.75
11
93
21
-112.75
0
ARC
8
BLACK
10
85
20
-125
40
2.25
50
-0
51
180
0
LINE
8
BLACK
6
CONTINUOUS
10
87.25
20
-125
11
87.25
21
-126
0
LINE
8
BLACK
6
CONTINUOUS
10
87.25
20
-126
11
82.75
21
-126
0
LINE
8
BLACK
6
CONTINUOUS
10
82.75
20
-126
11
82.75
21
-125
0
ARC
8
BLACK
10
71
20
-126
40
2.25
50
-0
51
180
0
LINE
8
BLACK
6
CONTINUOUS
10
73.25
20
-126
11
73.25
21
-127
0
LINE
8
BLACK
6
CONTINUOUS
10
73.25
20
-127
11
68.75
21
-127
0
LINE
8
BLACK
6
CONTINUOUS
10
68.75
20
-127
11
68.75
21
-126
0
ARC
8
BLACK
10
85
20
-108
40
2.25
50
-180
51
-0
0
LINE
8
BLACK
6
CONTINUOUS
10
82.75
20
-108
11
82.75
21
-107
0
LINE
8
BLACK
6
CONTINUOUS
10
82.75
20
-107
11
87.25
21
-107
0
LINE
8
BLACK
6
CONTINUOUS
10
87.25
20
-107
11
87.25
21
-108
0
ARC
8
BLACK
10
75
20
-104
40
2.25
50
-190
51
-9.99999
0
LINE
8
BLACK
6
CONTINUOUS
10
72.7842
20
-103.609
11
72.9578
21
-102.624
0
LINE
8
BLACK
6
CONTINUOUS
10
72.9578
20
-102.624
11
77.3895
21
-103.406
0
LINE
8
BLACK
6
CONTINUOUS
10
77.3895
20
-103.406
11
77.2158
21
-104.391
0
ARC
8
BLACK
10
142
20
-103
40
2.25
50
-295
51
-115
0
LINE
8
BLACK
6
CONTINUOUS
10
142.951
20
-100.961
11
143.857
21
-101.383
0
LINE
8
BLACK
6
CONTINUOUS
10
143.857
20
-101.383
11
141.955
21
-105.462
0
LINE
8
BLACK
6
CONTINUOUS
10
141.955
20
-105.462
11
141.049
21
-105.039
0
ARC
8
BLACK
10
120
20
-104
40
2.25
50
-0
51
180
0
LINE
8
BLACK
6
CONTINUOUS
10
122.25
20
-104
11
122.25
21
-105
0
LINE
8
BLACK
6
CONTINUOUS
10
122.25
20
-105
11
117.75
21
-105
0
LINE
8
BLACK
6
CONTINUOUS
10
117.75
20
-105
11
117.75
21
-104
0
ARC
8
BLACK
10
112
20
-105
40
2.25
50
-0
51
180
0
LINE
8
BLACK
6
CONTINUOUS
10
114.25
20
-105
11
114.25
21
-106
0
LINE
8
BLACK
6
CONTINUOUS
10
114.25
20
-106
11
109.75
21
-106
0
LINE
8
BLACK
6
CONTINUOUS
10
109.75
20
-106
11
109.75
21
-105
0
ARC
8
BLACK
10
99.6
20
-104
40
2.25
50
-0
51
180
0
LINE
8
BLACK
6
CONTINUOUS
10
101.85
20
-104
11
101.85
21
-105
0
LINE
8
BLACK
6
CONTINUOUS
10
101.85
20
-105
11
97.35
21
-105
0
LINE
8
BLACK
6
CONTINUOUS
10
97.35
20
-105
11
97.35
21
-104
0
ARC
8
BLACK
10
126
20
-86
40
2.25
50
-150
51
30
0
LINE
8
BLACK
6
CONTINUOUS
10
124.051
20
-87.125
11
123.551
21
-86.259
0
LINE
8
BLACK
6
CONTINUOUS
10
123.551
20
-86.259
11
127.449
21
-84.009
0
LINE
8
BLACK
6
CONTINUOUS
10
127.449
20
-84.009
11
127.949
21
-84.875
0
ARC
8
BLACK
10
117
20
-84
40
2.25
50
-170
51
9.99999
0
LINE
8
BLACK
6
CONTINUOUS
10
114.784
20
-84.3907
11
114.611
21
-83.4059
0
LINE
8
BLACK
6
CONTINUOUS
10
114.611
20
-83.4059
11
119.042
21
-82.6245
0
LINE
8
BLACK
6
CONTINUOUS
10
119.042
20
-82.6245
11
119.216
21
-83.6093
0
ARC
8
BLACK
10
112
20
-87
40
2.25
50
-180
51
-0
0
LINE
8
BLACK
6
CONTINUOUS
10
109.75
20
-87
11
109.75
21
-86
0
LINE
8
BLACK
6
CONTINUOUS
10
109.75
20
-86
11
114.25
21
-86
0
LINE
8
BLACK
6
CONTINUOUS
10
114.25
20
-86
11
114.25
21
-87
0
ARC
8
BLACK
10
94
20
-85
40
2.25
50
-150
51
30
0
LINE
8
BLACK
6
CONTINUOUS
10
92.0514
20
-86.125
11
91.5514
21
-85.259
0
LINE
8
BLACK
6
CONTINUOUS
10
91.5514
20
-85.259
11
95.4486
21
-83.009
0
LINE
8
BLACK
6
CONTINUOUS
10
95.4486
20
-83.009
11
95.9486
21
-83.875
0
ARC
8
BLACK
10
134
20
-85
40
2.25
50
-0
51
180
0
LINE
8
BLACK
6
CONTINUOUS
10
136.25
20
-85
11
136.25
21
-86
0
LINE
8
BLACK
6
CONTINUOUS
10
136.25
20
-86
11
131.75
21
-86
0
LINE
8
BLACK
6
CONTINUOUS
10
131.75
20
-86
11
131.75
21
-85
0
ARC
8
BLACK
10
122
20
-83
40
2.25
50
-0
51
180
0
LINE
8
BLACK
6
CONTINUOUS
10
124.25
20
-83
11
124.25
21
-84
0
LINE
8
BLACK
6
CONTINUOUS
10
124.25
20
-84
11
119.75
21
-84
0
LINE
8
BLACK
6
CONTINUOUS
10
119.75
20
-84
11
119.75
21
-83
0
ARC
8
BLACK
10
112
20
-85
40
2.25
50
-0
51
180
0
LINE
8
BLACK
6
CONTINUOUS
10
114.25
20
-85
11
114.25
21
-86
0
LINE
8
BLACK
6
CONTINUOUS
10
114.25
20
-86
11
109.75
21
-86
0
LINE
8
BLACK
6
CONTINUOUS
10
109.75
20
-86
11
109.75
21
-85
0
ARC
8
BLACK
10
101
20
-85
40
2.25
50
-0
51
180
0
LINE
8
BLACK
6
CONTINUOUS
10
103.25
20
-85
11
103.25
21
-86
0
LINE
8
BLACK
6
CONTINUOUS
10
103.25
20
-86
11
98.75
21
-86
0
LINE
8
BLACK
6
CONTINUOUS
10
98.75
20
-86
11
98.75
21
-85
0
ARC
8
BLACK
10
81
20
-105
40
2.25
50
-0
51
180
0
LINE
8
BLACK
6
CONTINUOUS
10
83.25
20
-105
11
83.25
21
-106
0
LINE
8
BLACK
6
CONTINUOUS
10
83.25
20
-106
11
78.75
21
-106
0
LINE
8
BLACK
6
CONTINUOUS
10
78.75
20
-106
11
78.75
21
-105
0
ARC
8
BLACK
10
68
20
-106
40
2.25
50
-0
51
180
0
LINE
8
BLACK
6
CONTINUOUS
10
70.25
20
-106
11
70.25
21
-107
0
LINE
8
BLACK
6
CONTINUOUS
10
70.25
20
-107
11
65.75
21
-107
0
LINE
8
BLACK
6
CONTINUOUS
10
65.75
20
-107
11
65.75
21
-106
0
ARC
8
BLACK
10
81
20
-86
40
2.25
50
-180
51
-0
0
LINE
8
BLACK
6
CONTINUOUS
10
78.75
20
-86
11
78.75
21
-85
0
LINE
8
BLACK
6
CONTINUOUS
10
78.75
20
-85
11
83.25
21
-85
0
LINE
8
BLACK
6
CONTINUOUS
10
83.25
20
-85
11
83.25
21
-86
0
ARC
8
BLACK
10
65
20
-82
40
2.25
50
-165
51
15
0
LINE
8
BLACK
6
CONTINUOUS
10
62.8267
20
-82.5823
11
62.5678
21
-81.6164
0
LINE
8
BLACK
6
CONTINUOUS
10
62.5678
20
-81.6164
11
66.9145
21
-80.4517
0
LINE
8
BLACK
6
CONTINUOUS
10
66.9145
20
-80.4517
11
67.1733
21
-81.4177
0
ARC
8
BLACK
10
128
20
-67
40
2.25
50
-135
51
45
0
LINE
8
BLACK
6
CONTINUOUS
10
126.409
20
-68.591
11
125.702
21
-67.8839
0
LINE
8
BLACK
6
CONTINUOUS
10
125.702
20
-67.8839
11
128.884
21
-64.7019
0
LINE
8
BLACK
6
CONTINUOUS
10
128.884
20
-64.7019
11
129.591
21
-65.409
0
ARC
8
BLACK
10
121
20
-65
40
2.25
50
-180
51
-0
0
LINE
8
BLACK
6
CONTINUOUS
10
118.75
20
-65
11
118.75
21
-64
0
LINE
8
BLACK
6
CONTINUOUS
10
118.75
20
-64
11
123.25
21
-64
0
LINE
8
BLACK
6
CONTINUOUS
10
123.25
20
-64
11
123.25
21
-65
0
ARC
8
BLACK
10
112
20
-63
40
2.25
50
-180
51
-0
0
LINE
8
BLACK
6
CONTINUOUS
10
109.75
20
-63
11
109.75
21
-62
0
LINE
8
BLACK
6
CONTINUOUS
10
109.75
20
-62
11
114.25
21
-62
0
LINE
8
BLACK
6
CONTINUOUS
10
114.25
20
-62
11
114.25
21
-63
0
ARC
8
BLACK
10
102
20
-60
40
2.25
50
-180
51
-0
0
LINE
8
BLACK
6
CONTINUOUS
10
99.75
20
-60
11
99.75
21
-59
0
LINE
8
BLACK
6
CONTINUOUS
10
99.75
20
-59
11
104.25
21
-59
0
LINE
8
BLACK
6
CONTINUOUS
10
104.25
20
-59
11
104.25
21
-60
0
ARC
8
BLACK
10
75
20
-86
40
2.25
50
-335
51
-155
0
LINE
8
BLACK
6
CONTINUOUS
10
77.0392
20
-85.0491
11
77.4618
21
-85.9554
0
LINE
8
BLACK
6
CONTINUOUS
10
77.4618
20
-85.9554
11
73.3834
21
-87.8572
0
LINE
8
BLACK
6
CONTINUOUS
10
73.3834
20
-87.8572
11
72.9608
21
-86.9509
0
ARC
8
BLACK
10
83
20
-83
40
2.25
50
-0
51
180
0
LINE
8
BLACK
6
CONTINUOUS
10
85.25
20
-83
11
85.25
21
-84
0
LINE
8
BLACK
6
CONTINUOUS
10
85.25
20
-84
11
80.75
21
-84
0
LINE
8
BLACK
6
CONTINUOUS
10
80.75
20
-84
11
80.75
21
-83
0
ARC
8
BLACK
10
83
20
-63
40
2.25
50
-180
51
-0
0
LINE
8
BLACK
6
CONTINUOUS
10
80.75
20
-63
11
80.75
21
-62
0
LINE
8
BLACK
6
CONTINUOUS
10
80.75
20
-62
11
85.25
21
-62
0
LINE
8
BLACK
6
CONTINUOUS
10
85.25
20
-62
11
85.25
21
-63
0
ARC
8
BLACK
10
70
20
-63
40
2.25
50
-180
51
-0
0
LINE
8
BLACK
6
CONTINUOUS
10
67.75
20
-63
11
67.75
21
-62
0
LINE
8
BLACK
6
CONTINUOUS
10
67.75
20
-62
11
72.25
21
-62
0
LINE
8
BLACK
6
CONTINUOUS
10
72.25
20
-62
11
72.25
21
-63
0
LINE
8
BLACK
6
CONTINUOUS
10
91.25
20
-121.5
11
91.25
21
-131.5
0
LINE
8
BLACK
6
CONTINUOUS
10
91.25
20
-131.5
11
108.75
21
-131.5
0
LINE
8
BLACK
6
CONTINUOUS
10
108.75
20
-131.5
11
108.75
21
-121.5
0
LINE
8
BLACK
6
CONTINUOUS
10
108.75
20
-121.5
11
91.25
21
-121.5
  0
ENDSEC
  0
EOF
