  0
SECTION
  2
HEADER
  9
$ACADVER
  1
AC1014
  9
$HANDSEED
  5
FFFF
  9
$MEASUREMENT
 70
     1
  0
ENDSEC
  0
SECTION
  2
TABLES
  0
TABLE
  2
VPORT
  5
8
330
0
100
AcDbSymbolTable
 70
     4
  0
VPORT
  5
2E
330
8
100
AcDbSymbolTableRecord
100
AcDbViewportTableRecord
  2
*ACTIVE
 70
     0
 10
0.0
 20
0.0
 11
1.0
 21
1.0
 12
210.0
 22
148.5
 13
0.0
 23
0.0
 14
10.0
 24
10.0
 15
10.0
 25
10.0
 16
0.0
 26
0.0
 36
1.0
 17
0.0
 27
0.0
 37
0.0
 40
341.0
 41
1.24
 42
50.0
 43
0.0
 44
0.0
 50
0.0
 51
0.0
 71
     0
 72
   100
 73
     1
 74
     3
 75
     0
 76
     0
 77
     0
 78
     0
  0
ENDTAB
  0
TABLE
  2
LTYPE
  5
5
330
0
100
AcDbSymbolTable
 70
     1
  0
LTYPE
  5
14
330
5
100
AcDbSymbolTableRecord
100
AcDbLinetypeTableRecord
  2
BYBLOCK
 70
     0
  3

 72
    65
 73
     0
 40
0.0
  0
LTYPE
  5
15
330
5
100
AcDbSymbolTableRecord
100
AcDbLinetypeTableRecord
  2
BYLAYER
 70
     0
  3

 72
    65
 73
     0
 40
0.0
  0
LTYPE
  5
16
330
5
100
AcDbSymbolTableRecord
100
AcDbLinetypeTableRecord
  2
CONTINUOUS
 70
     0
  3
Solid line
 72
    65
 73
     0
 40
0.0
  0
ENDTAB
  0
TABLE
  2
LAYER
  5
2
100
AcDbSymbolTable
 70
3
  0
LAYER
  5
50
100
AcDbSymbolTableRecord
100
AcDbLayerTableRecord
  2
0
 70
0
  6
CONTINUOUS
  0
LAYER
  5
51
100
AcDbSymbolTableRecord
100
AcDbLayerTableRecord
  2
Image
 70
0
  6
CONTINUOUS
  0
LAYER
  5
52
100
AcDbSymbolTableRecord
100
AcDbLayerTableRecord
  2
Path
 70
0
  6
CONTINUOUS
  0
ENDTAB
  0
TABLE
  2
STYLE
  5
3
330
0
100
AcDbSymbolTable
 70
     1
  0
STYLE
  5
11
330
3
100
AcDbSymbolTableRecord
100
AcDbTextStyleTableRecord
  2
STANDARD
 70
     0
 40
0.0
 41
1.0
 50
0.0
 71
     0
 42
2.5
  3
txt
  4

  0
ENDTAB
  0
TABLE
  2
VIEW
  5
6
330
0
100
AcDbSymbolTable
 70
     0
  0
ENDTAB
  0
TABLE
  2
UCS
  5
7
330
0
100
AcDbSymbolTable
 70
     0
  0
ENDTAB
  0
TABLE
  2
APPID
  5
9
330
0
100
AcDbSymbolTable
 70
     2
  0
APPID
  5
12
330
9
100
AcDbSymbolTableRecord
100
AcDbRegAppTableRecord
  2
ACAD
 70
     0
  0
ENDTAB
  0
TABLE
  2
DIMSTYLE
  5
A
330
0
100
AcDbSymbolTable
 70
     1
  0
DIMSTYLE
105
27
330
A
100
AcDbSymbolTableRecord
100
AcDbDimStyleTableRecord
  2
ISO-25
 70
     0
  3

  4

  5

  6

  7

 40
1.0
 41
2.5
 42
0.625
 43
3.75
 44
1.25
 45
0.0
 46
0.0
 47
0.0
 48
0.0
140
2.5
141
2.5
142
0.0
143
0.03937007874016
144
1.0
145
0.0
146
1.0
147
0.625
 71
     0
 72
     0
 73
     0
 74
     0
 75
     0
 76
     0
 77
     1
 78
     8
170
     0
171
     3
172
     1
173
     0
174
     0
175
     0
176
     0
177
     0
178
     0
270
     2
271
     2
272
     2
273
     2
274
     3
340
11
275
     0
280
     0
281
     0
282
     0
283
     0
284
     8
285
     0
286
     0
287
     3
288
     0
  0
ENDTAB
  0
TABLE
  2
BLOCK_RECORD
  5
1
330
0
100
AcDbSymbolTable
 70
     1
  0
BLOCK_RECORD
  5
1F
330
1
100
AcDbSymbolTableRecord
100
AcDbBlockTableRecord
  2
*MODEL_SPACE
  0
BLOCK_RECORD
  5
1B
330
1
100
AcDbSymbolTableRecord
100
AcDbBlockTableRecord
  2
*PAPER_SPACE
  0
ENDTAB
  0
ENDSEC
  0
SECTION
  2
BLOCKS
  0
BLOCK
  5
20
330
1F
100
AcDbEntity
  8
0
100
AcDbBlockBegin
  2
*MODEL_SPACE
 70
     0
 10
0.0
 20
0.0
 30
0.0
  3
*MODEL_SPACE
  1

  0
ENDBLK
  5
21
330
1F
100
AcDbEntity
  8
0
100
AcDbBlockEnd
  0
BLOCK
  5
1C
330
1B
100
AcDbEntity
 67
     1
  8
0
100
AcDbBlockBegin
  2
*PAPER_SPACE
  1

  0
ENDBLK
  5
1D
330
1B
100
AcDbEntity
 67
     1
  8
0
100
AcDbBlockEnd
  0
ENDSEC
  0
SECTION
  2
ENTITIES
  0
SPLINE
  5
100
100
AcDbEntity
  8
Path
 62
7
100
AcDbSpline
 70
8
 71
3
 72
8
 73
4
 74
0
 40
0
 40
0
 40
0
 40
0
 40
1
 40
1
 40
1
 40
1
 10
54.892223
 20
2.139582
 30
0.0
 10
54.843714
 20
2.143736
 30
0.0
 10
54.446839
 20
2.165326
 30
0.0
 10
54.010277
 20
2.187519
 30
0.0
  0
SPLINE
  5
101
100
AcDbEntity
  8
Path
 62
7
100
AcDbSpline
 70
8
 71
3
 72
8
 73
4
 74
0
 40
0
 40
0
 40
0
 40
0
 40
1
 40
1
 40
1
 40
1
 10
54.010277
 20
2.187519
 30
0.0
 10
53.164028
 20
2.230543
 30
0.0
 10
52.638608
 20
2.292125
 30
0.0
 10
52.211110
 20
2.398382
 30
0.0
  0
SPLINE
  5
102
100
AcDbEntity
  8
Path
 62
7
100
AcDbSpline
 70
8
 71
3
 72
8
 73
4
 74
0
 40
0
 40
0
 40
0
 40
0
 40
1
 40
1
 40
1
 40
1
 10
52.211110
 20
2.398382
 30
0.0
 10
52.065589
 20
2.434550
 30
0.0
 10
51.827464
 20
2.481453
 30
0.0
 10
51.681944
 20
2.502606
 30
0.0
  0
SPLINE
  5
103
100
AcDbEntity
  8
Path
 62
7
100
AcDbSpline
 70
8
 71
3
 72
8
 73
4
 74
0
 40
0
 40
0
 40
0
 40
0
 40
1
 40
1
 40
1
 40
1
 10
51.681944
 20
2.502606
 30
0.0
 10
51.251064
 20
2.565239
 30
0.0
 10
49.795599
 20
2.643717
 30
0.0
 10
49.479123
 20
2.621383
 30
0.0
  0
SPLINE
  5
104
100
AcDbEntity
  8
Path
 62
7
100
AcDbSpline
 70
8
 71
3
 72
8
 73
4
 74
0
 40
0
 40
0
 40
0
 40
0
 40
1
 40
1
 40
1
 40
1
 10
49.479123
 20
2.621383
 30
0.0
 10
49.105547
 20
2.595031
 30
0.0
 10
48.682002
 20
2.647365
 30
0.0
 10
47.713194
 20
2.839675
 30
0.0
  0
SPLINE
  5
105
100
AcDbEntity
  8
Path
 62
7
100
AcDbSpline
 70
8
 71
3
 72
8
 73
4
 74
0
 40
0
 40
0
 40
0
 40
0
 40
1
 40
1
 40
1
 40
1
 10
47.713194
 20
2.839675
 30
0.0
 10
47.286333
 20
2.924400
 30
0.0
 10
46.810083
 20
3.014670
 30
0.0
 10
46.654860
 20
3.040264
 30
0.0
  0
SPLINE
  5
106
100
AcDbEntity
  8
Path
 62
7
100
AcDbSpline
 70
8
 71
3
 72
8
 73
4
 74
0
 40
0
 40
0
 40
0
 40
0
 40
1
 40
1
 40
1
 40
1
 10
46.366343
 20
3.474860
 30
0.0
 10
46.359860
 20
3.873667
 30
0.0
 10
46.347954
 20
3.932174
 30
0.0
 10
46.068581
 20
4.938890
 30
0.0
  0
LWPOLYLINE
  5
107
100
AcDbEntity
  8
Path
 62
7
100
AcDbPolyline
 90
3
 70
0
 10
46.654860
 20
3.040264
 30
0.0
 10
46.372640
 20
3.086806
 30
0.0
 10
46.366343
 20
3.474860
 30
0.0
  0
SPLINE
  5
108
100
AcDbEntity
  8
Path
 62
7
100
AcDbSpline
 70
8
 71
3
 72
8
 73
4
 74
0
 40
0
 40
0
 40
0
 40
0
 40
1
 40
1
 40
1
 40
1
 10
45.968536
 20
6.226527
 30
0.0
 10
45.980839
 20
7.091725
 30
0.0
 10
45.977956
 20
7.446581
 30
0.0
 10
45.944142
 20
9.229048
 30
0.0
  0
SPLINE
  5
109
100
AcDbEntity
  8
Path
 62
7
100
AcDbSpline
 70
8
 71
3
 72
8
 73
4
 74
0
 40
0
 40
0
 40
0
 40
0
 40
1
 40
1
 40
1
 40
1
 10
45.944142
 20
9.229048
 30
0.0
 10
45.932130
 20
9.862913
 30
0.0
 10
45.942819
 20
10.293167
 30
0.0
 10
45.982080
 20
10.741594
 30
0.0
  0
SPLINE
  5
10a
100
AcDbEntity
  8
Path
 62
7
100
AcDbSpline
 70
8
 71
3
 72
8
 73
4
 74
0
 40
0
 40
0
 40
0
 40
0
 40
1
 40
1
 40
1
 40
1
 10
45.982080
 20
10.741594
 30
0.0
 10
46.047771
 20
11.493635
 30
0.0
 10
46.022742
 20
11.803158
 30
0.0
 10
45.841875
 20
12.475464
 30
0.0
  0
SPLINE
  5
10b
100
AcDbEntity
  8
Path
 62
7
100
AcDbSpline
 70
8
 71
3
 72
8
 73
4
 74
0
 40
0
 40
0
 40
0
 40
0
 40
1
 40
1
 40
1
 40
1
 10
45.841875
 20
12.475464
 30
0.0
 10
45.396737
 20
14.130123
 30
0.0
 10
45.357468
 20
14.330288
 30
0.0
 10
45.209576
 20
15.698610
 30
0.0
  0
SPLINE
  5
10c
100
AcDbEntity
  8
Path
 62
7
100
AcDbSpline
 70
8
 71
3
 72
8
 73
4
 74
0
 40
0
 40
0
 40
0
 40
0
 40
1
 40
1
 40
1
 40
1
 10
45.209576
 20
15.698610
 30
0.0
 10
45.160295
 20
16.154577
 30
0.0
 10
45.088778
 20
16.718140
 30
0.0
 10
45.050652
 20
16.950973
 30
0.0
  0
SPLINE
  5
10d
100
AcDbEntity
  8
Path
 62
7
100
AcDbSpline
 70
8
 71
3
 72
8
 73
4
 74
0
 40
0
 40
0
 40
0
 40
0
 40
1
 40
1
 40
1
 40
1
 10
45.050652
 20
16.950973
 30
0.0
 10
45.012523
 20
17.183806
 30
0.0
 10
44.924927
 20
18.009304
 30
0.0
 10
44.855995
 20
18.785417
 30
0.0
  0
SPLINE
  5
10e
100
AcDbEntity
  8
Path
 62
7
100
AcDbSpline
 70
8
 71
3
 72
8
 73
4
 74
0
 40
0
 40
0
 40
0
 40
0
 40
1
 40
1
 40
1
 40
1
 10
44.855995
 20
18.785417
 30
0.0
 10
44.522496
 20
22.540145
 30
0.0
 10
44.557950
 20
22.239467
 30
0.0
 10
44.286154
 20
23.618470
 30
0.0
  0
SPLINE
  5
10f
100
AcDbEntity
  8
Path
 62
7
100
AcDbSpline
 70
8
 71
3
 72
8
 73
4
 74
0
 40
0
 40
0
 40
0
 40
0
 40
1
 40
1
 40
1
 40
1
 10
44.286154
 20
23.618470
 30
0.0
 10
44.132130
 20
24.399928
 30
0.0
 10
44.084806
 20
24.722436
 30
0.0
 10
44.059581
 20
25.162494
 30
0.0
  0
SPLINE
  5
110
100
AcDbEntity
  8
Path
 62
7
100
AcDbSpline
 70
8
 71
3
 72
8
 73
4
 74
0
 40
0
 40
0
 40
0
 40
0
 40
1
 40
1
 40
1
 40
1
 10
44.059581
 20
25.162494
 30
0.0
 10
44.042039
 20
25.468427
 30
0.0
 10
44.018496
 20
25.755388
 30
0.0
 10
44.007254
 20
25.800182
 30
0.0
  0
SPLINE
  5
111
100
AcDbEntity
  8
Path
 62
7
100
AcDbSpline
 70
8
 71
3
 72
8
 73
4
 74
0
 40
0
 40
0
 40
0
 40
0
 40
1
 40
1
 40
1
 40
1
 10
44.007254
 20
25.800182
 30
0.0
 10
43.996009
 20
25.844979
 30
0.0
 10
44.012996
 20
26.021382
 30
0.0
 10
44.045008
 20
26.192194
 30
0.0
  0
LWPOLYLINE
  5
112
100
AcDbEntity
  8
Path
 62
7
100
AcDbPolyline
 90
3
 70
0
 10
46.068581
 20
4.938890
 30
0.0
 10
45.955995
 20
5.344583
 30
0.0
 10
45.968536
 20
6.226527
 30
0.0
  0
SPLINE
  5
113
100
AcDbEntity
  8
Path
 62
7
100
AcDbSpline
 70
8
 71
3
 72
8
 73
4
 74
0
 40
0
 40
0
 40
0
 40
0
 40
1
 40
1
 40
1
 40
1
 10
43.976343
 20
26.744930
 30
0.0
 10
43.784546
 20
27.111055
 30
0.0
 10
43.741160
 20
27.320102
 30
0.0
 10
43.727899
 20
27.942021
 30
0.0
  0
SPLINE
  5
114
100
AcDbEntity
  8
Path
 62
7
100
AcDbSpline
 70
8
 71
3
 72
8
 73
4
 74
0
 40
0
 40
0
 40
0
 40
0
 40
1
 40
1
 40
1
 40
1
 10
43.727899
 20
27.942021
 30
0.0
 10
43.718665
 20
28.375568
 30
0.0
 10
43.700642
 20
28.541218
 30
0.0
 10
43.642127
 20
28.730665
 30
0.0
  0
SPLINE
  5
115
100
AcDbEntity
  8
Path
 62
7
100
AcDbSpline
 70
8
 71
3
 72
8
 73
4
 74
0
 40
0
 40
0
 40
0
 40
0
 40
1
 40
1
 40
1
 40
1
 10
43.642127
 20
28.730665
 30
0.0
 10
43.592565
 20
28.891129
 30
0.0
 10
43.568054
 20
29.065601
 30
0.0
 10
43.568054
 20
29.257924
 30
0.0
  0
SPLINE
  5
116
100
AcDbEntity
  8
Path
 62
7
100
AcDbSpline
 70
8
 71
3
 72
8
 73
4
 74
0
 40
0
 40
0
 40
0
 40
0
 40
1
 40
1
 40
1
 40
1
 10
43.568054
 20
29.257924
 30
0.0
 10
43.568054
 20
29.445056
 30
0.0
 10
43.542654
 20
29.631502
 30
0.0
 10
43.495254
 20
29.792194
 30
0.0
  0
SPLINE
  5
117
100
AcDbEntity
  8
Path
 62
7
100
AcDbSpline
 70
8
 71
3
 72
8
 73
4
 74
0
 40
0
 40
0
 40
0
 40
0
 40
1
 40
1
 40
1
 40
1
 10
43.495254
 20
29.792194
 30
0.0
 10
43.448383
 20
29.951114
 30
0.0
 10
43.422432
 20
30.139539
 30
0.0
 10
43.422398
 20
30.321250
 30
0.0
  0
SPLINE
  5
118
100
AcDbEntity
  8
Path
 62
7
100
AcDbSpline
 70
8
 71
3
 72
8
 73
4
 74
0
 40
0
 40
0
 40
0
 40
0
 40
1
 40
1
 40
1
 40
1
 10
43.422398
 20
30.321250
 30
0.0
 10
43.422366
 20
30.476470
 30
0.0
 10
43.399009
 20
30.718157
 30
0.0
 10
43.370487
 20
30.858322
 30
0.0
  0
SPLINE
  5
119
100
AcDbEntity
  8
Path
 62
7
100
AcDbSpline
 70
8
 71
3
 72
8
 73
4
 74
0
 40
0
 40
0
 40
0
 40
0
 40
1
 40
1
 40
1
 40
1
 10
43.370487
 20
30.858322
 30
0.0
 10
43.259296
 20
31.404795
 30
0.0
 10
42.966942
 20
32.152140
 30
0.0
 10
42.776444
 20
32.376872
 30
0.0
  0
SPLINE
  5
11a
100
AcDbEntity
  8
Path
 62
7
100
AcDbSpline
 70
8
 71
3
 72
8
 73
4
 74
0
 40
0
 40
0
 40
0
 40
0
 40
1
 40
1
 40
1
 40
1
 10
42.776444
 20
32.376872
 30
0.0
 10
42.639496
 20
32.538432
 30
0.0
 10
42.371005
 20
32.692904
 30
0.0
 10
42.333267
 20
32.631840
 30
0.0
  0
SPLINE
  5
11b
100
AcDbEntity
  8
Path
 62
7
100
AcDbSpline
 70
8
 71
3
 72
8
 73
4
 74
0
 40
0
 40
0
 40
0
 40
0
 40
1
 40
1
 40
1
 40
1
 10
42.333267
 20
32.631840
 30
0.0
 10
42.299509
 20
32.577220
 30
0.0
 10
42.213191
 20
32.019388
 30
0.0
 10
42.139497
 20
31.379583
 30
0.0
  0
SPLINE
  5
11c
100
AcDbEntity
  8
Path
 62
7
100
AcDbSpline
 70
8
 71
3
 72
8
 73
4
 74
0
 40
0
 40
0
 40
0
 40
0
 40
1
 40
1
 40
1
 40
1
 10
42.139497
 20
31.379583
 30
0.0
 10
42.110443
 20
31.127345
 30
0.0
 10
42.070824
 20
30.825720
 30
0.0
 10
42.051454
 20
30.709304
 30
0.0
  0
SPLINE
  5
11d
100
AcDbEntity
  8
Path
 62
7
100
AcDbSpline
 70
8
 71
3
 72
8
 73
4
 74
0
 40
0
 40
0
 40
0
 40
0
 40
1
 40
1
 40
1
 40
1
 10
42.051454
 20
30.709304
 30
0.0
 10
42.005808
 20
30.434931
 30
0.0
 10
42.006462
 20
30.093862
 30
0.0
 10
42.053306
 20
29.757238
 30
0.0
  0
SPLINE
  5
11e
100
AcDbEntity
  8
Path
 62
7
100
AcDbSpline
 70
8
 71
3
 72
8
 73
4
 74
0
 40
0
 40
0
 40
0
 40
0
 40
1
 40
1
 40
1
 40
1
 10
42.053306
 20
29.757238
 30
0.0
 10
42.090388
 20
29.490628
 30
0.0
 10
42.089686
 20
29.486087
 30
0.0
 10
41.981665
 20
29.294688
 30
0.0
  0
SPLINE
  5
11f
100
AcDbEntity
  8
Path
 62
7
100
AcDbSpline
 70
8
 71
3
 72
8
 73
4
 74
0
 40
0
 40
0
 40
0
 40
0
 40
1
 40
1
 40
1
 40
1
 10
41.981665
 20
29.294688
 30
0.0
 10
41.841732
 20
29.046741
 30
0.0
 10
41.780320
 20
28.789810
 30
0.0
 10
41.750620
 20
28.328054
 30
0.0
  0
SPLINE
  5
120
100
AcDbEntity
  8
Path
 62
7
100
AcDbSpline
 70
8
 71
3
 72
8
 73
4
 74
0
 40
0
 40
0
 40
0
 40
0
 40
1
 40
1
 40
1
 40
1
 10
41.750620
 20
28.328054
 30
0.0
 10
41.737523
 20
28.124325
 30
0.0
 10
41.687491
 20
27.806825
 30
0.0
 10
41.639453
 20
27.622500
 30
0.0
  0
SPLINE
  5
121
100
AcDbEntity
  8
Path
 62
7
100
AcDbSpline
 70
8
 71
3
 72
8
 73
4
 74
0
 40
0
 40
0
 40
0
 40
0
 40
1
 40
1
 40
1
 40
1
 10
41.639453
 20
27.622500
 30
0.0
 10
41.256381
 20
26.152597
 30
0.0
 10
41.245618
 20
26.084289
 30
0.0
 10
41.205864
 20
24.870833
 30
0.0
  0
SPLINE
  5
122
100
AcDbEntity
  8
Path
 62
7
100
AcDbSpline
 70
8
 71
3
 72
8
 73
4
 74
0
 40
0
 40
0
 40
0
 40
0
 40
1
 40
1
 40
1
 40
1
 10
41.205864
 20
24.870833
 30
0.0
 10
41.179644
 20
24.070654
 30
0.0
 10
41.173736
 20
24.020933
 30
0.0
 10
41.035856
 20
23.442083
 30
0.0
  0
SPLINE
  5
123
100
AcDbEntity
  8
Path
 62
7
100
AcDbSpline
 70
8
 71
3
 72
8
 73
4
 74
0
 40
0
 40
0
 40
0
 40
0
 40
1
 40
1
 40
1
 40
1
 10
41.035856
 20
23.442083
 30
0.0
 10
40.789029
 20
22.405816
 30
0.0
 10
40.712250
 20
21.890717
 30
0.0
 10
40.604678
 20
20.549304
 30
0.0
  0
SPLINE
  5
124
100
AcDbEntity
  8
Path
 62
7
100
AcDbSpline
 70
8
 71
3
 72
8
 73
4
 74
0
 40
0
 40
0
 40
0
 40
0
 40
1
 40
1
 40
1
 40
1
 10
40.604678
 20
20.549304
 30
0.0
 10
40.527237
 20
19.583628
 30
0.0
 10
40.494918
 20
19.288776
 30
0.0
 10
40.393935
 20
18.626667
 30
0.0
  0
SPLINE
  5
125
100
AcDbEntity
  8
Path
 62
7
100
AcDbSpline
 70
8
 71
3
 72
8
 73
4
 74
0
 40
0
 40
0
 40
0
 40
0
 40
1
 40
1
 40
1
 40
1
 10
40.393935
 20
18.626667
 30
0.0
 10
40.299151
 20
18.005174
 30
0.0
 10
40.227581
 20
17.375516
 30
0.0
 10
40.163372
 20
16.598194
 30
0.0
  0
SPLINE
  5
126
100
AcDbEntity
  8
Path
 62
7
100
AcDbSpline
 70
8
 71
3
 72
8
 73
4
 74
0
 40
0
 40
0
 40
0
 40
0
 40
1
 40
1
 40
1
 40
1
 10
40.163372
 20
16.598194
 30
0.0
 10
39.997637
 20
14.591863
 30
0.0
 10
39.905403
 20
13.896311
 30
0.0
 10
39.580942
 20
12.206110
 30
0.0
  0
SPLINE
  5
127
100
AcDbEntity
  8
Path
 62
7
100
AcDbSpline
 70
8
 71
3
 72
8
 73
4
 74
0
 40
0
 40
0
 40
0
 40
0
 40
1
 40
1
 40
1
 40
1
 10
39.580942
 20
12.206110
 30
0.0
 10
39.401152
 20
11.269528
 30
0.0
 10
39.278002
 20
10.494838
 30
0.0
 10
39.224836
 20
9.965973
 30
0.0
  0
SPLINE
  5
128
100
AcDbEntity
  8
Path
 62
7
100
AcDbSpline
 70
8
 71
3
 72
8
 73
4
 74
0
 40
0
 40
0
 40
0
 40
0
 40
1
 40
1
 40
1
 40
1
 10
39.224836
 20
9.965973
 30
0.0
 10
39.168851
 20
9.409049
 30
0.0
 10
39.171451
 20
8.251992
 30
0.0
 10
39.230022
 20
7.655277
 30
0.0
  0
SPLINE
  5
129
100
AcDbEntity
  8
Path
 62
7
100
AcDbSpline
 70
8
 71
3
 72
8
 73
4
 74
0
 40
0
 40
0
 40
0
 40
0
 40
1
 40
1
 40
1
 40
1
 10
39.230022
 20
7.655277
 30
0.0
 10
39.261637
 20
7.333221
 30
0.0
 10
39.277592
 20
6.587956
 30
0.0
 10
39.279298
 20
5.353412
 30
0.0
  0
LWPOLYLINE
  5
12a
100
AcDbEntity
  8
Path
 62
7
100
AcDbPolyline
 90
3
 70
0
 10
44.045008
 20
26.192194
 30
0.0
 10
44.103203
 20
26.502757
 30
0.0
 10
43.976343
 20
26.744930
 30
0.0
  0
SPLINE
  5
12b
100
AcDbEntity
  8
Path
 62
7
100
AcDbSpline
 70
8
 71
3
 72
8
 73
4
 74
0
 40
0
 40
0
 40
0
 40
0
 40
1
 40
1
 40
1
 40
1
 10
39.188639
 20
3.527787
 30
0.0
 10
39.137320
 20
3.527782
 30
0.0
 10
38.788070
 20
3.553002
 30
0.0
 10
38.412526
 20
3.583845
 30
0.0
  0
SPLINE
  5
12c
100
AcDbEntity
  8
Path
 62
7
100
AcDbSpline
 70
8
 71
3
 72
8
 73
4
 74
0
 40
0
 40
0
 40
0
 40
0
 40
1
 40
1
 40
1
 40
1
 10
38.412526
 20
3.583845
 30
0.0
 10
37.680069
 20
3.643992
 30
0.0
 10
37.488892
 20
3.639341
 30
0.0
 10
36.777221
 20
3.544070
 30
0.0
  0
SPLINE
  5
12d
100
AcDbEntity
  8
Path
 62
7
100
AcDbSpline
 70
8
 71
3
 72
8
 73
4
 74
0
 40
0
 40
0
 40
0
 40
0
 40
1
 40
1
 40
1
 40
1
 10
36.777221
 20
3.544070
 30
0.0
 10
36.370808
 20
3.489661
 30
0.0
 10
36.235254
 20
3.487325
 30
0.0
 10
35.586241
 20
3.523565
 30
0.0
  0
SPLINE
  5
12e
100
AcDbEntity
  8
Path
 62
7
100
AcDbSpline
 70
8
 71
3
 72
8
 73
4
 74
0
 40
0
 40
0
 40
0
 40
0
 40
1
 40
1
 40
1
 40
1
 10
35.586241
 20
3.523565
 30
0.0
 10
34.978845
 20
3.557482
 30
0.0
 10
34.780720
 20
3.582784
 30
0.0
 10
34.425229
 20
3.671821
 30
0.0
  0
SPLINE
  5
12f
100
AcDbEntity
  8
Path
 62
7
100
AcDbSpline
 70
8
 71
3
 72
8
 73
4
 74
0
 40
0
 40
0
 40
0
 40
0
 40
1
 40
1
 40
1
 40
1
 10
34.425229
 20
3.671821
 30
0.0
 10
34.189477
 20
3.730868
 30
0.0
 10
33.865680
 20
3.794054
 30
0.0
 10
33.705678
 20
3.812233
 30
0.0
  0
SPLINE
  5
130
100
AcDbEntity
  8
Path
 62
7
100
AcDbSpline
 70
8
 71
3
 72
8
 73
4
 74
0
 40
0
 40
0
 40
0
 40
0
 40
1
 40
1
 40
1
 40
1
 10
33.705678
 20
3.812233
 30
0.0
 10
33.251092
 20
3.863888
 30
0.0
 10
32.262855
 20
3.864951
 30
0.0
 10
31.908888
 20
3.814085
 30
0.0
  0
SPLINE
  5
131
100
AcDbEntity
  8
Path
 62
7
100
AcDbSpline
 70
8
 71
3
 72
8
 73
4
 74
0
 40
0
 40
0
 40
0
 40
0
 40
1
 40
1
 40
1
 40
1
 10
31.908888
 20
3.814085
 30
0.0
 10
31.586675
 20
3.767857
 30
0.0
 10
30.719406
 20
3.794030
 30
0.0
 10
29.774584
 20
3.878493
 30
0.0
  0
SPLINE
  5
132
100
AcDbEntity
  8
Path
 62
7
100
AcDbSpline
 70
8
 71
3
 72
8
 73
4
 74
0
 40
0
 40
0
 40
0
 40
0
 40
1
 40
1
 40
1
 40
1
 10
29.774584
 20
3.878493
 30
0.0
 10
29.239419
 20
3.926337
 30
0.0
 10
27.572970
 20
3.986908
 30
0.0
 10
26.800860
 20
3.986588
 30
0.0
  0
SPLINE
  5
133
100
AcDbEntity
  8
Path
 62
7
100
AcDbSpline
 70
8
 71
3
 72
8
 73
4
 74
0
 40
0
 40
0
 40
0
 40
0
 40
1
 40
1
 40
1
 40
1
 10
26.800860
 20
3.986588
 30
0.0
 10
26.353545
 20
3.986324
 30
0.0
 10
26.066610
 20
4.002596
 30
0.0
 10
25.918916
 20
4.036393
 30
0.0
  0
SPLINE
  5
134
100
AcDbEntity
  8
Path
 62
7
100
AcDbSpline
 70
8
 71
3
 72
8
 73
4
 74
0
 40
0
 40
0
 40
0
 40
0
 40
1
 40
1
 40
1
 40
1
 10
25.918916
 20
4.036393
 30
0.0
 10
25.798512
 20
4.063942
 30
0.0
 10
25.453937
 20
4.102817
 30
0.0
 10
25.153194
 20
4.122788
 30
0.0
  0
SPLINE
  5
135
100
AcDbEntity
  8
Path
 62
7
100
AcDbSpline
 70
8
 71
3
 72
8
 73
4
 74
0
 40
0
 40
0
 40
0
 40
0
 40
1
 40
1
 40
1
 40
1
 10
25.153194
 20
4.122788
 30
0.0
 10
24.852451
 20
4.142764
 30
0.0
 10
24.376201
 20
4.183504
 30
0.0
 10
24.094861
 20
4.213336
 30
0.0
  0
SPLINE
  5
136
100
AcDbEntity
  8
Path
 62
7
100
AcDbSpline
 70
8
 71
3
 72
8
 73
4
 74
0
 40
0
 40
0
 40
0
 40
0
 40
1
 40
1
 40
1
 40
1
 10
24.094861
 20
4.213336
 30
0.0
 10
23.813520
 20
4.243163
 30
0.0
 10
23.333389
 20
4.290396
 30
0.0
 10
23.027902
 20
4.318294
 30
0.0
  0
SPLINE
  5
137
100
AcDbEntity
  8
Path
 62
7
100
AcDbSpline
 70
8
 71
3
 72
8
 73
4
 74
0
 40
0
 40
0
 40
0
 40
0
 40
1
 40
1
 40
1
 40
1
 10
23.027902
 20
4.318294
 30
0.0
 10
22.289814
 20
4.385696
 30
0.0
 10
22.257181
 20
4.402167
 30
0.0
 10
21.499152
 20
5.089948
 30
0.0
  0
SPLINE
  5
138
100
AcDbEntity
  8
Path
 62
7
100
AcDbSpline
 70
8
 71
3
 72
8
 73
4
 74
0
 40
0
 40
0
 40
0
 40
0
 40
1
 40
1
 40
1
 40
1
 10
21.499152
 20
5.089948
 30
0.0
 10
20.862221
 20
5.667857
 30
0.0
 10
20.764863
 20
5.775463
 30
0.0
 10
20.556400
 20
6.131941
 30
0.0
  0
SPLINE
  5
139
100
AcDbEntity
  8
Path
 62
7
100
AcDbSpline
 70
8
 71
3
 72
8
 73
4
 74
0
 40
0
 40
0
 40
0
 40
0
 40
1
 40
1
 40
1
 40
1
 10
20.556400
 20
6.131941
 30
0.0
 10
20.438068
 20
6.334292
 30
0.0
 10
20.423949
 20
6.386539
 30
0.0
 10
20.403870
 20
6.696387
 30
0.0
  0
LWPOLYLINE
  5
13a
100
AcDbEntity
  8
Path
 62
7
100
AcDbPolyline
 90
3
 70
0
 10
39.279298
 20
5.353412
 30
0.0
 10
39.281944
 20
3.527798
 30
0.0
 10
39.188639
 20
3.527787
 30
0.0
  0
SPLINE
  5
13b
100
AcDbEntity
  8
Path
 62
7
100
AcDbSpline
 70
8
 71
3
 72
8
 73
4
 74
0
 40
0
 40
0
 40
0
 40
0
 40
1
 40
1
 40
1
 40
1
 10
20.850124
 20
7.266824
 30
0.0
 10
21.275461
 20
7.474770
 30
0.0
 10
21.353185
 20
7.528261
 30
0.0
 10
21.695875
 20
7.848907
 30
0.0
  0
SPLINE
  5
13c
100
AcDbEntity
  8
Path
 62
7
100
AcDbSpline
 70
8
 71
3
 72
8
 73
4
 74
0
 40
0
 40
0
 40
0
 40
0
 40
1
 40
1
 40
1
 40
1
 10
21.695875
 20
7.848907
 30
0.0
 10
22.109370
 20
8.235807
 30
0.0
 10
22.402399
 20
8.412882
 30
0.0
 10
23.063682
 20
8.675484
 30
0.0
  0
SPLINE
  5
13d
100
AcDbEntity
  8
Path
 62
7
100
AcDbSpline
 70
8
 71
3
 72
8
 73
4
 74
0
 40
0
 40
0
 40
0
 40
0
 40
1
 40
1
 40
1
 40
1
 10
23.063682
 20
8.675484
 30
0.0
 10
23.557015
 20
8.871392
 30
0.0
 10
23.974062
 20
9.074563
 30
0.0
 10
24.169839
 20
9.214369
 30
0.0
  0
SPLINE
  5
13e
100
AcDbEntity
  8
Path
 62
7
100
AcDbSpline
 70
8
 71
3
 72
8
 73
4
 74
0
 40
0
 40
0
 40
0
 40
0
 40
1
 40
1
 40
1
 40
1
 10
24.169839
 20
9.214369
 30
0.0
 10
24.259585
 20
9.278456
 30
0.0
 10
24.521522
 20
9.500558
 30
0.0
 10
24.751923
 20
9.707922
 30
0.0
  0
SPLINE
  5
13f
100
AcDbEntity
  8
Path
 62
7
100
AcDbSpline
 70
8
 71
3
 72
8
 73
4
 74
0
 40
0
 40
0
 40
0
 40
0
 40
1
 40
1
 40
1
 40
1
 10
24.751923
 20
9.707922
 30
0.0
 10
24.982323
 20
9.915290
 30
0.0
 10
25.281958
 20
10.163667
 30
0.0
 10
25.417777
 20
10.259870
 30
0.0
  0
SPLINE
  5
140
100
AcDbEntity
  8
Path
 62
7
100
AcDbSpline
 70
8
 71
3
 72
8
 73
4
 74
0
 40
0
 40
0
 40
0
 40
0
 40
1
 40
1
 40
1
 40
1
 10
25.417777
 20
10.259870
 30
0.0
 10
25.553596
 20
10.356072
 30
0.0
 10
25.730630
 20
10.503905
 30
0.0
 10
25.811184
 20
10.588392
 30
0.0
  0
SPLINE
  5
141
100
AcDbEntity
  8
Path
 62
7
100
AcDbSpline
 70
8
 71
3
 72
8
 73
4
 74
0
 40
0
 40
0
 40
0
 40
0
 40
1
 40
1
 40
1
 40
1
 10
25.811184
 20
10.588392
 30
0.0
 10
26.158451
 20
10.952607
 30
0.0
 10
26.603722
 20
11.741007
 30
0.0
 10
26.772767
 20
12.290973
 30
0.0
  0
SPLINE
  5
142
100
AcDbEntity
  8
Path
 62
7
100
AcDbSpline
 70
8
 71
3
 72
8
 73
4
 74
0
 40
0
 40
0
 40
0
 40
0
 40
1
 40
1
 40
1
 40
1
 10
26.772767
 20
12.290973
 30
0.0
 10
26.883045
 20
12.649750
 30
0.0
 10
26.976710
 20
13.214337
 30
0.0
 10
27.022044
 20
13.793531
 30
0.0
  0
SPLINE
  5
143
100
AcDbEntity
  8
Path
 62
7
100
AcDbSpline
 70
8
 71
3
 72
8
 73
4
 74
0
 40
0
 40
0
 40
0
 40
0
 40
1
 40
1
 40
1
 40
1
 10
27.022044
 20
13.793531
 30
0.0
 10
27.090447
 20
14.667460
 30
0.0
 10
27.164308
 20
15.493024
 30
0.0
 10
27.198791
 20
15.769087
 30
0.0
  0
SPLINE
  5
144
100
AcDbEntity
  8
Path
 62
7
100
AcDbSpline
 70
8
 71
3
 72
8
 73
4
 74
0
 40
0
 40
0
 40
0
 40
0
 40
1
 40
1
 40
1
 40
1
 10
27.198791
 20
15.769087
 30
0.0
 10
27.216968
 20
15.914608
 30
0.0
 10
27.248816
 20
16.224171
 30
0.0
 10
27.269562
 20
16.457004
 30
0.0
  0
SPLINE
  5
145
100
AcDbEntity
  8
Path
 62
7
100
AcDbSpline
 70
8
 71
3
 72
8
 73
4
 74
0
 40
0
 40
0
 40
0
 40
0
 40
1
 40
1
 40
1
 40
1
 10
27.269562
 20
16.457004
 30
0.0
 10
27.290305
 20
16.689837
 30
0.0
 10
27.377165
 20
17.237522
 30
0.0
 10
27.462573
 20
17.674085
 30
0.0
  0
SPLINE
  5
146
100
AcDbEntity
  8
Path
 62
7
100
AcDbSpline
 70
8
 71
3
 72
8
 73
4
 74
0
 40
0
 40
0
 40
0
 40
0
 40
1
 40
1
 40
1
 40
1
 10
27.462573
 20
17.674085
 30
0.0
 10
27.646855
 20
18.616044
 30
0.0
 10
27.676139
 20
18.835214
 30
0.0
 10
27.747727
 20
19.808391
 30
0.0
  0
SPLINE
  5
147
100
AcDbEntity
  8
Path
 62
7
100
AcDbSpline
 70
8
 71
3
 72
8
 73
4
 74
0
 40
0
 40
0
 40
0
 40
0
 40
1
 40
1
 40
1
 40
1
 10
27.747727
 20
19.808391
 30
0.0
 10
27.811375
 20
20.673632
 30
0.0
 10
27.923649
 20
21.538703
 30
0.0
 10
28.100271
 20
22.524781
 30
0.0
  0
SPLINE
  5
148
100
AcDbEntity
  8
Path
 62
7
100
AcDbSpline
 70
8
 71
3
 72
8
 73
4
 74
0
 40
0
 40
0
 40
0
 40
0
 40
1
 40
1
 40
1
 40
1
 10
28.100271
 20
22.524781
 30
0.0
 10
28.382709
 20
24.101613
 30
0.0
 10
28.399121
 20
24.231515
 30
0.0
 10
28.432310
 20
25.152974
 30
0.0
  0
SPLINE
  5
149
100
AcDbEntity
  8
Path
 62
7
100
AcDbSpline
 70
8
 71
3
 72
8
 73
4
 74
0
 40
0
 40
0
 40
0
 40
0
 40
1
 40
1
 40
1
 40
1
 10
28.432310
 20
25.152974
 30
0.0
 10
28.448026
 20
25.589537
 30
0.0
 10
28.479186
 20
26.018162
 30
0.0
 10
28.501536
 20
26.105474
 30
0.0
  0
SPLINE
  5
14a
100
AcDbEntity
  8
Path
 62
7
100
AcDbSpline
 70
8
 71
3
 72
8
 73
4
 74
0
 40
0
 40
0
 40
0
 40
0
 40
1
 40
1
 40
1
 40
1
 10
28.501536
 20
26.105474
 30
0.0
 10
28.782518
 20
27.203231
 30
0.0
 10
28.820925
 20
27.405044
 30
0.0
 10
28.857366
 20
27.975198
 30
0.0
  0
SPLINE
  5
14b
100
AcDbEntity
  8
Path
 62
7
100
AcDbSpline
 70
8
 71
3
 72
8
 73
4
 74
0
 40
0
 40
0
 40
0
 40
0
 40
1
 40
1
 40
1
 40
1
 10
28.857366
 20
27.975198
 30
0.0
 10
28.936035
 20
29.206031
 30
0.0
 10
29.038584
 20
30.000657
 30
0.0
 10
29.282866
 20
31.272234
 30
0.0
  0
SPLINE
  5
14c
100
AcDbEntity
  8
Path
 62
7
100
AcDbSpline
 70
8
 71
3
 72
8
 73
4
 74
0
 40
0
 40
0
 40
0
 40
0
 40
1
 40
1
 40
1
 40
1
 10
29.282866
 20
31.272234
 30
0.0
 10
29.561443
 20
32.722341
 30
0.0
 10
29.594000
 20
32.904292
 30
0.0
 10
29.699736
 20
33.602001
 30
0.0
  0
SPLINE
  5
14d
100
AcDbEntity
  8
Path
 62
7
100
AcDbSpline
 70
8
 71
3
 72
8
 73
4
 74
0
 40
0
 40
0
 40
0
 40
0
 40
1
 40
1
 40
1
 40
1
 10
29.699736
 20
33.602001
 30
0.0
 10
29.845079
 20
34.561058
 30
0.0
 10
29.917522
 20
35.218648
 30
0.0
 10
29.881814
 20
35.254779
 30
0.0
  0
SPLINE
  5
14e
100
AcDbEntity
  8
Path
 62
7
100
AcDbSpline
 70
8
 71
3
 72
8
 73
4
 74
0
 40
0
 40
0
 40
0
 40
0
 40
1
 40
1
 40
1
 40
1
 10
29.881814
 20
35.254779
 30
0.0
 10
29.865516
 20
35.271289
 30
0.0
 10
29.679926
 20
35.257981
 30
0.0
 10
29.469416
 20
35.225215
 30
0.0
  0
SPLINE
  5
14f
100
AcDbEntity
  8
Path
 62
7
100
AcDbSpline
 70
8
 71
3
 72
8
 73
4
 74
0
 40
0
 40
0
 40
0
 40
0
 40
1
 40
1
 40
1
 40
1
 10
29.469416
 20
35.225215
 30
0.0
 10
29.118221
 20
35.170555
 30
0.0
 10
29.070673
 20
35.153624
 30
0.0
 10
28.892685
 20
35.019877
 30
0.0
  0
SPLINE
  5
150
100
AcDbEntity
  8
Path
 62
7
100
AcDbSpline
 70
8
 71
3
 72
8
 73
4
 74
0
 40
0
 40
0
 40
0
 40
0
 40
1
 40
1
 40
1
 40
1
 10
28.892685
 20
35.019877
 30
0.0
 10
28.785995
 20
34.939703
 30
0.0
 10
28.563745
 20
34.815698
 30
0.0
 10
28.398795
 20
34.744308
 30
0.0
  0
SPLINE
  5
151
100
AcDbEntity
  8
Path
 62
7
100
AcDbSpline
 70
8
 71
3
 72
8
 73
4
 74
0
 40
0
 40
0
 40
0
 40
0
 40
1
 40
1
 40
1
 40
1
 10
28.398795
 20
34.744308
 30
0.0
 10
28.233846
 20
34.672918
 30
0.0
 10
27.889420
 20
34.487509
 30
0.0
 10
27.633401
 20
34.332288
 30
0.0
  0
SPLINE
  5
152
100
AcDbEntity
  8
Path
 62
7
100
AcDbSpline
 70
8
 71
3
 72
8
 73
4
 74
0
 40
0
 40
0
 40
0
 40
0
 40
1
 40
1
 40
1
 40
1
 10
27.633401
 20
34.332288
 30
0.0
 10
27.345868
 20
34.157954
 30
0.0
 10
27.055911
 20
34.012867
 30
0.0
 10
26.874930
 20
33.952773
 30
0.0
  0
SPLINE
  5
153
100
AcDbEntity
  8
Path
 62
7
100
AcDbSpline
 70
8
 71
3
 72
8
 73
4
 74
0
 40
0
 40
0
 40
0
 40
0
 40
1
 40
1
 40
1
 40
1
 10
26.874930
 20
33.952773
 30
0.0
 10
26.713789
 20
33.899261
 30
0.0
 10
26.391444
 20
33.769213
 30
0.0
 10
26.158610
 20
33.663774
 30
0.0
  0
SPLINE
  5
154
100
AcDbEntity
  8
Path
 62
7
100
AcDbSpline
 70
8
 71
3
 72
8
 73
4
 74
0
 40
0
 40
0
 40
0
 40
0
 40
1
 40
1
 40
1
 40
1
 10
26.158610
 20
33.663774
 30
0.0
 10
25.254952
 20
33.254561
 30
0.0
 10
24.008724
 20
32.772009
 30
0.0
 10
23.636249
 20
32.687088
 30
0.0
  0
SPLINE
  5
155
100
AcDbEntity
  8
Path
 62
7
100
AcDbSpline
 70
8
 71
3
 72
8
 73
4
 74
0
 40
0
 40
0
 40
0
 40
0
 40
1
 40
1
 40
1
 40
1
 10
23.636249
 20
32.687088
 30
0.0
 10
23.510131
 20
32.658336
 30
0.0
 10
23.208506
 20
32.617579
 30
0.0
 10
22.965971
 20
32.596519
 30
0.0
  0
SPLINE
  5
156
100
AcDbEntity
  8
Path
 62
7
100
AcDbSpline
 70
8
 71
3
 72
8
 73
4
 74
0
 40
0
 40
0
 40
0
 40
0
 40
1
 40
1
 40
1
 40
1
 10
22.965971
 20
32.596519
 30
0.0
 10
22.723437
 20
32.575458
 30
0.0
 10
22.445624
 20
32.543993
 30
0.0
 10
22.348610
 20
32.526594
 30
0.0
  0
SPLINE
  5
157
100
AcDbEntity
  8
Path
 62
7
100
AcDbSpline
 70
8
 71
3
 72
8
 73
4
 74
0
 40
0
 40
0
 40
0
 40
0
 40
1
 40
1
 40
1
 40
1
 10
22.348610
 20
32.526594
 30
0.0
 10
21.915813
 20
32.448968
 30
0.0
 10
19.940604
 20
32.505295
 30
0.0
 10
19.173610
 20
32.617135
 30
0.0
  0
SPLINE
  5
158
100
AcDbEntity
  8
Path
 62
7
100
AcDbSpline
 70
8
 71
3
 72
8
 73
4
 74
0
 40
0
 40
0
 40
0
 40
0
 40
1
 40
1
 40
1
 40
1
 10
19.173610
 20
32.617135
 30
0.0
 10
17.894145
 20
32.803698
 30
0.0
 10
16.733109
 20
33.298712
 30
0.0
 10
15.822221
 20
34.046012
 30
0.0
  0
SPLINE
  5
159
100
AcDbEntity
  8
Path
 62
7
100
AcDbSpline
 70
8
 71
3
 72
8
 73
4
 74
0
 40
0
 40
0
 40
0
 40
0
 40
1
 40
1
 40
1
 40
1
 10
15.822221
 20
34.046012
 30
0.0
 10
15.564113
 20
34.257766
 30
0.0
 10
14.990613
 20
34.831033
 30
0.0
 10
14.854725
 20
35.013114
 30
0.0
  0
SPLINE
  5
15a
100
AcDbEntity
  8
Path
 62
7
100
AcDbSpline
 70
8
 71
3
 72
8
 73
4
 74
0
 40
0
 40
0
 40
0
 40
0
 40
1
 40
1
 40
1
 40
1
 10
14.854725
 20
35.013114
 30
0.0
 10
14.811283
 20
35.071323
 30
0.0
 10
14.684556
 20
35.214997
 30
0.0
 10
14.573108
 20
35.332392
 30
0.0
  0
SPLINE
  5
15b
100
AcDbEntity
  8
Path
 62
7
100
AcDbSpline
 70
8
 71
3
 72
8
 73
4
 74
0
 40
0
 40
0
 40
0
 40
0
 40
1
 40
1
 40
1
 40
1
 10
14.573108
 20
35.332392
 30
0.0
 10
14.063831
 20
35.868843
 30
0.0
 10
13.704202
 20
36.380296
 30
0.0
 10
13.154957
 20
37.349247
 30
0.0
  0
SPLINE
  5
15c
100
AcDbEntity
  8
Path
 62
7
100
AcDbSpline
 70
8
 71
3
 72
8
 73
4
 74
0
 40
0
 40
0
 40
0
 40
0
 40
1
 40
1
 40
1
 40
1
 10
13.154957
 20
37.349247
 30
0.0
 10
13.119531
 20
37.411745
 30
0.0
 10
13.051495
 20
37.522870
 30
0.0
 10
13.003766
 20
37.596191
 30
0.0
  0
SPLINE
  5
15d
100
AcDbEntity
  8
Path
 62
7
100
AcDbSpline
 70
8
 71
3
 72
8
 73
4
 74
0
 40
0
 40
0
 40
0
 40
0
 40
1
 40
1
 40
1
 40
1
 10
13.003766
 20
37.596191
 30
0.0
 10
12.871674
 20
37.799113
 30
0.0
 10
12.713254
 20
38.087361
 30
0.0
 10
12.562093
 20
38.399818
 30
0.0
  0
SPLINE
  5
15e
100
AcDbEntity
  8
Path
 62
7
100
AcDbSpline
 70
8
 71
3
 72
8
 73
4
 74
0
 40
0
 40
0
 40
0
 40
0
 40
1
 40
1
 40
1
 40
1
 10
12.562093
 20
38.399818
 30
0.0
 10
12.427305
 20
38.678432
 30
0.0
 10
12.374165
 20
38.839667
 30
0.0
 10
12.120280
 20
39.740335
 30
0.0
  0
SPLINE
  5
15f
100
AcDbEntity
  8
Path
 62
7
100
AcDbSpline
 70
8
 71
3
 72
8
 73
4
 74
0
 40
0
 40
0
 40
0
 40
0
 40
1
 40
1
 40
1
 40
1
 10
12.120280
 20
39.740335
 30
0.0
 10
12.049178
 20
39.992573
 30
0.0
 10
11.938054
 20
40.341823
 30
0.0
 10
11.873337
 20
40.516448
 30
0.0
  0
SPLINE
  5
160
100
AcDbEntity
  8
Path
 62
7
100
AcDbSpline
 70
8
 71
3
 72
8
 73
4
 74
0
 40
0
 40
0
 40
0
 40
0
 40
1
 40
1
 40
1
 40
1
 10
11.873337
 20
40.516448
 30
0.0
 10
11.789899
 20
40.741587
 30
0.0
 10
11.750608
 20
40.916045
 30
0.0
 10
11.738269
 20
41.116168
 30
0.0
  0
SPLINE
  5
161
100
AcDbEntity
  8
Path
 62
7
100
AcDbSpline
 70
8
 71
3
 72
8
 73
4
 74
0
 40
0
 40
0
 40
0
 40
0
 40
1
 40
1
 40
1
 40
1
 10
11.738269
 20
41.116168
 30
0.0
 10
11.706581
 20
41.630113
 30
0.0
 10
11.602509
 20
42.558777
 30
0.0
 10
11.548806
 20
42.806797
 30
0.0
  0
SPLINE
  5
162
100
AcDbEntity
  8
Path
 62
7
100
AcDbSpline
 70
8
 71
3
 72
8
 73
4
 74
0
 40
0
 40
0
 40
0
 40
0
 40
1
 40
1
 40
1
 40
1
 10
11.548806
 20
42.806797
 30
0.0
 10
11.395966
 20
43.512666
 30
0.0
 10
11.170602
 20
45.103566
 30
0.0
 10
11.076500
 20
46.140931
 30
0.0
  0
SPLINE
  5
163
100
AcDbEntity
  8
Path
 62
7
100
AcDbSpline
 70
8
 71
3
 72
8
 73
4
 74
0
 40
0
 40
0
 40
0
 40
0
 40
1
 40
1
 40
1
 40
1
 10
11.076500
 20
46.140931
 30
0.0
 10
10.988662
 20
47.109242
 30
0.0
 10
10.956187
 20
47.343936
 30
0.0
 10
10.859418
 20
47.709791
 30
0.0
  0
SPLINE
  5
164
100
AcDbEntity
  8
Path
 62
7
100
AcDbSpline
 70
8
 71
3
 72
8
 73
4
 74
0
 40
0
 40
0
 40
0
 40
0
 40
1
 40
1
 40
1
 40
1
 10
10.859418
 20
47.709791
 30
0.0
 10
10.796630
 20
47.947167
 30
0.0
 10
10.779381
 20
48.147084
 30
0.0
 10
10.757162
 20
48.894918
 30
0.0
  0
SPLINE
  5
165
100
AcDbEntity
  8
Path
 62
7
100
AcDbSpline
 70
8
 71
3
 72
8
 73
4
 74
0
 40
0
 40
0
 40
0
 40
0
 40
1
 40
1
 40
1
 40
1
 10
10.757162
 20
48.894918
 30
0.0
 10
10.741692
 20
49.415615
 30
0.0
 10
10.707019
 20
49.935657
 30
0.0
 10
10.674841
 20
50.129641
 30
0.0
  0
SPLINE
  5
166
100
AcDbEntity
  8
Path
 62
7
100
AcDbSpline
 70
8
 71
3
 72
8
 73
4
 74
0
 40
0
 40
0
 40
0
 40
0
 40
1
 40
1
 40
1
 40
1
 10
10.674841
 20
50.129641
 30
0.0
 10
10.644265
 20
50.313968
 30
0.0
 10
10.619136
 20
50.668481
 30
0.0
 10
10.618999
 20
50.917446
 30
0.0
  0
SPLINE
  5
167
100
AcDbEntity
  8
Path
 62
7
100
AcDbSpline
 70
8
 71
3
 72
8
 73
4
 74
0
 40
0
 40
0
 40
0
 40
0
 40
1
 40
1
 40
1
 40
1
 10
10.618999
 20
50.917446
 30
0.0
 10
10.618787
 20
51.294276
 30
0.0
 10
10.601600
 20
51.442035
 30
0.0
 10
10.516383
 20
51.799389
 30
0.0
  0
SPLINE
  5
168
100
AcDbEntity
  8
Path
 62
7
100
AcDbSpline
 70
8
 71
3
 72
8
 73
4
 74
0
 40
0
 40
0
 40
0
 40
0
 40
1
 40
1
 40
1
 40
1
 10
10.516383
 20
51.799389
 30
0.0
 10
10.430915
 20
52.157810
 30
0.0
 10
10.410908
 20
52.330575
 30
0.0
 10
10.395176
 20
52.846028
 30
0.0
  0
SPLINE
  5
169
100
AcDbEntity
  8
Path
 62
7
100
AcDbSpline
 70
8
 71
3
 72
8
 73
4
 74
0
 40
0
 40
0
 40
0
 40
0
 40
1
 40
1
 40
1
 40
1
 10
10.395176
 20
52.846028
 30
0.0
 10
10.382579
 20
53.258736
 30
0.0
 10
10.340637
 20
53.708977
 30
0.0
 10
10.268649
 20
54.204224
 30
0.0
  0
SPLINE
  5
16a
100
AcDbEntity
  8
Path
 62
7
100
AcDbSpline
 70
8
 71
3
 72
8
 73
4
 74
0
 40
0
 40
0
 40
0
 40
0
 40
1
 40
1
 40
1
 40
1
 10
10.268649
 20
54.204224
 30
0.0
 10
10.209422
 20
54.611683
 30
0.0
 10
10.160777
 20
55.002105
 30
0.0
 10
10.160551
 20
55.071825
 30
0.0
  0
SPLINE
  5
16b
100
AcDbEntity
  8
Path
 62
7
100
AcDbSpline
 70
8
 71
3
 72
8
 73
4
 74
0
 40
0
 40
0
 40
0
 40
0
 40
1
 40
1
 40
1
 40
1
 10
10.160551
 20
55.071825
 30
0.0
 10
10.160339
 20
55.141548
 30
0.0
 10
10.127054
 20
55.292360
 30
0.0
 10
10.086619
 20
55.406962
 30
0.0
  0
SPLINE
  5
16c
100
AcDbEntity
  8
Path
 62
7
100
AcDbSpline
 70
8
 71
3
 72
8
 73
4
 74
0
 40
0
 40
0
 40
0
 40
0
 40
1
 40
1
 40
1
 40
1
 10
10.086619
 20
55.406962
 30
0.0
 10
10.024005
 20
55.584423
 30
0.0
 10
10.008728
 20
55.743544
 30
0.0
 10
9.983634
 20
56.479641
 30
0.0
  0
SPLINE
  5
16d
100
AcDbEntity
  8
Path
 62
7
100
AcDbSpline
 70
8
 71
3
 72
8
 73
4
 74
0
 40
0
 40
0
 40
0
 40
0
 40
1
 40
1
 40
1
 40
1
 10
9.983634
 20
56.479641
 30
0.0
 10
9.967429
 20
56.955007
 30
0.0
 10
9.937398
 20
57.478882
 30
0.0
 10
9.916900
 20
57.643808
 30
0.0
  0
SPLINE
  5
16e
100
AcDbEntity
  8
Path
 62
7
100
AcDbSpline
 70
8
 71
3
 72
8
 73
4
 74
0
 40
0
 40
0
 40
0
 40
0
 40
1
 40
1
 40
1
 40
1
 10
9.916900
 20
57.643808
 30
0.0
 10
9.874873
 20
57.981940
 30
0.0
 10
9.752140
 20
59.341353
 30
0.0
 10
9.701549
 20
60.029053
 30
0.0
  0
SPLINE
  5
16f
100
AcDbEntity
  8
Path
 62
7
100
AcDbSpline
 70
8
 71
3
 72
8
 73
4
 74
0
 40
0
 40
0
 40
0
 40
0
 40
1
 40
1
 40
1
 40
1
 10
9.701549
 20
60.029053
 30
0.0
 10
9.682547
 20
60.287376
 30
0.0
 10
9.629257
 20
60.639309
 30
0.0
 10
9.578132
 20
60.844139
 30
0.0
  0
SPLINE
  5
170
100
AcDbEntity
  8
Path
 62
7
100
AcDbSpline
 70
8
 71
3
 72
8
 73
4
 74
0
 40
0
 40
0
 40
0
 40
0
 40
1
 40
1
 40
1
 40
1
 10
9.578132
 20
60.844139
 30
0.0
 10
9.528645
 20
61.042397
 30
0.0
 10
9.466405
 20
61.350948
 30
0.0
 10
9.439818
 20
61.529807
 30
0.0
  0
SPLINE
  5
171
100
AcDbEntity
  8
Path
 62
7
100
AcDbSpline
 70
8
 71
3
 72
8
 73
4
 74
0
 40
0
 40
0
 40
0
 40
0
 40
1
 40
1
 40
1
 40
1
 10
9.439818
 20
61.529807
 30
0.0
 10
9.404725
 20
61.765894
 30
0.0
 10
9.373544
 20
61.868495
 30
0.0
 10
9.326018
 20
61.904256
 30
0.0
  0
SPLINE
  5
172
100
AcDbEntity
  8
Path
 62
7
100
AcDbSpline
 70
8
 71
3
 72
8
 73
4
 74
0
 40
0
 40
0
 40
0
 40
0
 40
1
 40
1
 40
1
 40
1
 10
9.326018
 20
61.904256
 30
0.0
 10
9.169185
 20
62.022260
 30
0.0
 10
8.684289
 20
62.237736
 30
0.0
 10
8.078749
 20
62.458515
 30
0.0
  0
SPLINE
  5
173
100
AcDbEntity
  8
Path
 62
7
100
AcDbSpline
 70
8
 71
3
 72
8
 73
4
 74
0
 40
0
 40
0
 40
0
 40
0
 40
1
 40
1
 40
1
 40
1
 10
8.078749
 20
62.458515
 30
0.0
 10
6.427182
 20
63.060667
 30
0.0
 10
5.976649
 20
63.269146
 30
0.0
 10
5.207372
 20
63.787205
 30
0.0
  0
SPLINE
  5
174
100
AcDbEntity
  8
Path
 62
7
100
AcDbSpline
 70
8
 71
3
 72
8
 73
4
 74
0
 40
0
 40
0
 40
0
 40
0
 40
1
 40
1
 40
1
 40
1
 10
5.207372
 20
63.787205
 30
0.0
 10
4.357447
 20
64.359581
 30
0.0
 10
4.227241
 20
64.460631
 30
0.0
 10
3.940285
 20
64.770572
 30
0.0
  0
SPLINE
  5
175
100
AcDbEntity
  8
Path
 62
7
100
AcDbSpline
 70
8
 71
3
 72
8
 73
4
 74
0
 40
0
 40
0
 40
0
 40
0
 40
1
 40
1
 40
1
 40
1
 10
3.940285
 20
64.770572
 30
0.0
 10
3.624858
 20
65.111262
 30
0.0
 10
3.465078
 20
65.359494
 30
0.0
 10
3.021068
 20
66.198668
 30
0.0
  0
SPLINE
  5
176
100
AcDbEntity
  8
Path
 62
7
100
AcDbSpline
 70
8
 71
3
 72
8
 73
4
 74
0
 40
0
 40
0
 40
0
 40
0
 40
1
 40
1
 40
1
 40
1
 10
3.021068
 20
66.198668
 30
0.0
 10
2.410034
 20
67.353511
 30
0.0
 10
2.348001
 20
67.559761
 30
0.0
 10
2.379822
 20
68.330715
 30
0.0
  0
SPLINE
  5
177
100
AcDbEntity
  8
Path
 62
7
100
AcDbSpline
 70
8
 71
3
 72
8
 73
4
 74
0
 40
0
 40
0
 40
0
 40
0
 40
1
 40
1
 40
1
 40
1
 10
2.379822
 20
68.330715
 30
0.0
 10
2.426534
 20
69.462428
 30
0.0
 10
2.442250
 20
69.711866
 30
0.0
 10
2.489845
 20
70.076981
 30
0.0
  0
SPLINE
  5
178
100
AcDbEntity
  8
Path
 62
7
100
AcDbSpline
 70
8
 71
3
 72
8
 73
4
 74
0
 40
0
 40
0
 40
0
 40
0
 40
1
 40
1
 40
1
 40
1
 10
2.489845
 20
70.076981
 30
0.0
 10
2.565030
 20
70.653926
 30
0.0
 10
2.561838
 20
70.682758
 30
0.0
 10
2.403765
 20
70.854247
 30
0.0
  0
SPLINE
  5
179
100
AcDbEntity
  8
Path
 62
7
100
AcDbSpline
 70
8
 71
3
 72
8
 73
4
 74
0
 40
0
 40
0
 40
0
 40
0
 40
1
 40
1
 40
1
 40
1
 10
2.403765
 20
70.854247
 30
0.0
 10
2.193263
 20
71.082614
 30
0.0
 10
1.973511
 20
71.739585
 30
0.0
 10
1.906445
 20
72.341036
 30
0.0
  0
SPLINE
  5
17a
100
AcDbEntity
  8
Path
 62
7
100
AcDbSpline
 70
8
 71
3
 72
8
 73
4
 74
0
 40
0
 40
0
 40
0
 40
0
 40
1
 40
1
 40
1
 40
1
 10
1.906445
 20
72.341036
 30
0.0
 10
1.852794
 20
72.822186
 30
0.0
 10
1.939223
 20
73.606668
 30
0.0
 10
2.082845
 20
73.942133
 30
0.0
  0
SPLINE
  5
17b
100
AcDbEntity
  8
Path
 62
7
100
AcDbSpline
 70
8
 71
3
 72
8
 73
4
 74
0
 40
0
 40
0
 40
0
 40
0
 40
1
 40
1
 40
1
 40
1
 10
2.082845
 20
73.942133
 30
0.0
 10
2.136839
 20
74.068252
 30
0.0
 10
2.192221
 20
74.266690
 30
0.0
 10
2.205915
 20
74.383106
 30
0.0
  0
SPLINE
  5
17c
100
AcDbEntity
  8
Path
 62
7
100
AcDbSpline
 70
8
 71
3
 72
8
 73
4
 74
0
 40
0
 40
0
 40
0
 40
0
 40
1
 40
1
 40
1
 40
1
 10
2.205915
 20
74.383106
 30
0.0
 10
2.219609
 20
74.499523
 30
0.0
 10
2.286028
 20
74.737648
 30
0.0
 10
2.353513
 20
74.912273
 30
0.0
  0
SPLINE
  5
17d
100
AcDbEntity
  8
Path
 62
7
100
AcDbSpline
 70
8
 71
3
 72
8
 73
4
 74
0
 40
0
 40
0
 40
0
 40
0
 40
1
 40
1
 40
1
 40
1
 10
2.353513
 20
74.912273
 30
0.0
 10
2.557397
 20
75.439842
 30
0.0
 10
2.551548
 20
75.786459
 30
0.0
 10
2.325235
 20
76.587966
 30
0.0
  0
SPLINE
  5
17e
100
AcDbEntity
  8
Path
 62
7
100
AcDbSpline
 70
8
 71
3
 72
8
 73
4
 74
0
 40
0
 40
0
 40
0
 40
0
 40
1
 40
1
 40
1
 40
1
 10
2.325235
 20
76.587966
 30
0.0
 10
2.224830
 20
76.943559
 30
0.0
 10
2.200777
 20
77.500188
 30
0.0
 10
2.268069
 20
77.910883
 30
0.0
  0
SPLINE
  5
17f
100
AcDbEntity
  8
Path
 62
7
100
AcDbSpline
 70
8
 71
3
 72
8
 73
4
 74
0
 40
0
 40
0
 40
0
 40
0
 40
1
 40
1
 40
1
 40
1
 10
2.268069
 20
77.910883
 30
0.0
 10
2.349084
 20
78.405329
 30
0.0
 10
2.603862
 20
79.020762
 30
0.0
 10
2.860546
 20
79.342050
 30
0.0
  0
SPLINE
  5
180
100
AcDbEntity
  8
Path
 62
7
100
AcDbSpline
 70
8
 71
3
 72
8
 73
4
 74
0
 40
0
 40
0
 40
0
 40
0
 40
1
 40
1
 40
1
 40
1
 10
2.860546
 20
79.342050
 30
0.0
 10
2.975744
 20
79.486242
 30
0.0
 10
3.103201
 20
79.672097
 30
0.0
 10
3.143784
 20
79.755063
 30
0.0
  0
SPLINE
  5
181
100
AcDbEntity
  8
Path
 62
7
100
AcDbSpline
 70
8
 71
3
 72
8
 73
4
 74
0
 40
0
 40
0
 40
0
 40
0
 40
1
 40
1
 40
1
 40
1
 10
3.143784
 20
79.755063
 30
0.0
 10
3.234242
 20
79.939988
 30
0.0
 10
3.227929
 20
80.038813
 30
0.0
 10
3.030727
 20
81.524807
 30
0.0
  0
SPLINE
  5
182
100
AcDbEntity
  8
Path
 62
7
100
AcDbSpline
 70
8
 71
3
 72
8
 73
4
 74
0
 40
0
 40
0
 40
0
 40
0
 40
1
 40
1
 40
1
 40
1
 10
3.030727
 20
81.524807
 30
0.0
 10
2.954917
 20
82.096063
 30
0.0
 10
2.892891
 20
82.652136
 30
0.0
 10
2.892891
 20
82.760524
 30
0.0
  0
SPLINE
  5
183
100
AcDbEntity
  8
Path
 62
7
100
AcDbSpline
 70
8
 71
3
 72
8
 73
4
 74
0
 40
0
 40
0
 40
0
 40
0
 40
1
 40
1
 40
1
 40
1
 10
2.892891
 20
82.760524
 30
0.0
 10
2.892891
 20
82.868913
 30
0.0
 10
2.861141
 20
83.210699
 30
0.0
 10
2.822336
 20
83.520050
 30
0.0
  0
SPLINE
  5
184
100
AcDbEntity
  8
Path
 62
7
100
AcDbSpline
 70
8
 71
3
 72
8
 73
4
 74
0
 40
0
 40
0
 40
0
 40
0
 40
1
 40
1
 40
1
 40
1
 10
2.822336
 20
83.520050
 30
0.0
 10
2.721290
 20
84.325568
 30
0.0
 10
2.737446
 20
84.805491
 30
0.0
 10
2.880527
 20
85.248661
 30
0.0
  0
SPLINE
  5
185
100
AcDbEntity
  8
Path
 62
7
100
AcDbSpline
 70
8
 71
3
 72
8
 73
4
 74
0
 40
0
 40
0
 40
0
 40
0
 40
1
 40
1
 40
1
 40
1
 10
2.880527
 20
85.248661
 30
0.0
 10
3.100532
 20
85.930086
 30
0.0
 10
3.780942
 20
87.494200
 30
0.0
 10
3.930975
 20
87.663411
 30
0.0
  0
SPLINE
  5
186
100
AcDbEntity
  8
Path
 62
7
100
AcDbSpline
 70
8
 71
3
 72
8
 73
4
 74
0
 40
0
 40
0
 40
0
 40
0
 40
1
 40
1
 40
1
 40
1
 10
3.930975
 20
87.663411
 30
0.0
 10
3.957647
 20
87.693493
 30
0.0
 10
4.073488
 20
87.909591
 30
0.0
 10
4.188399
 20
88.143630
 30
0.0
  0
SPLINE
  5
187
100
AcDbEntity
  8
Path
 62
7
100
AcDbSpline
 70
8
 71
3
 72
8
 73
4
 74
0
 40
0
 40
0
 40
0
 40
0
 40
1
 40
1
 40
1
 40
1
 10
4.188399
 20
88.143630
 30
0.0
 10
4.540683
 20
88.861131
 30
0.0
 10
4.661479
 20
88.997139
 30
0.0
 10
5.188353
 20
89.269513
 30
0.0
  0
SPLINE
  5
188
100
AcDbEntity
  8
Path
 62
7
100
AcDbSpline
 70
8
 71
3
 72
8
 73
4
 74
0
 40
0
 40
0
 40
0
 40
0
 40
1
 40
1
 40
1
 40
1
 10
5.188353
 20
89.269513
 30
0.0
 10
5.576318
 20
89.470077
 30
0.0
 10
5.906985
 20
89.557765
 30
0.0
 10
6.455947
 20
89.605662
 30
0.0
  0
SPLINE
  5
189
100
AcDbEntity
  8
Path
 62
7
100
AcDbSpline
 70
8
 71
3
 72
8
 73
4
 74
0
 40
0
 40
0
 40
0
 40
0
 40
1
 40
1
 40
1
 40
1
 10
6.455947
 20
89.605662
 30
0.0
 10
7.013679
 20
89.654325
 30
0.0
 10
7.232877
 20
89.687780
 30
0.0
 10
7.867058
 20
89.821035
 30
0.0
  0
SPLINE
  5
18a
100
AcDbEntity
  8
Path
 62
7
100
AcDbSpline
 70
8
 71
3
 72
8
 73
4
 74
0
 40
0
 40
0
 40
0
 40
0
 40
1
 40
1
 40
1
 40
1
 10
7.867058
 20
89.821035
 30
0.0
 10
8.890723
 20
90.036128
 30
0.0
 10
9.125700
 20
90.062558
 30
0.0
 10
10.336502
 20
90.098793
 30
0.0
  0
SPLINE
  5
18b
100
AcDbEntity
  8
Path
 62
7
100
AcDbSpline
 70
8
 71
3
 72
8
 73
4
 74
0
 40
0
 40
0
 40
0
 40
0
 40
1
 40
1
 40
1
 40
1
 10
10.336502
 20
90.098793
 30
0.0
 10
10.967093
 20
90.117666
 30
0.0
 10
11.610030
 20
90.141217
 30
0.0
 10
11.765252
 20
90.151132
 30
0.0
  0
SPLINE
  5
18c
100
AcDbEntity
  8
Path
 62
7
100
AcDbSpline
 70
8
 71
3
 72
8
 73
4
 74
0
 40
0
 40
0
 40
0
 40
0
 40
1
 40
1
 40
1
 40
1
 10
11.765252
 20
90.151132
 30
0.0
 10
12.425489
 20
90.193306
 30
0.0
 10
14.397163
 20
90.243727
 30
0.0
 10
14.640391
 20
90.224657
 30
0.0
  0
SPLINE
  5
18d
100
AcDbEntity
  8
Path
 62
7
100
AcDbSpline
 70
8
 71
3
 72
8
 73
4
 74
0
 40
0
 40
0
 40
0
 40
0
 40
1
 40
1
 40
1
 40
1
 10
14.640391
 20
90.224657
 30
0.0
 10
15.247119
 20
90.177088
 30
0.0
 10
15.364640
 20
90.153296
 30
0.0
 10
15.663447
 20
90.017537
 30
0.0
  0
SPLINE
  5
18e
100
AcDbEntity
  8
Path
 62
7
100
AcDbSpline
 70
8
 71
3
 72
8
 73
4
 74
0
 40
0
 40
0
 40
0
 40
0
 40
1
 40
1
 40
1
 40
1
 10
15.663447
 20
90.017537
 30
0.0
 10
16.142724
 20
89.799783
 30
0.0
 10
16.488023
 20
89.476889
 30
0.0
 10
16.686701
 20
89.060680
 30
0.0
  0
SPLINE
  5
18f
100
AcDbEntity
  8
Path
 62
7
100
AcDbSpline
 70
8
 71
3
 72
8
 73
4
 74
0
 40
0
 40
0
 40
0
 40
0
 40
1
 40
1
 40
1
 40
1
 10
16.686701
 20
89.060680
 30
0.0
 10
16.761558
 20
88.903861
 30
0.0
 10
16.773064
 20
88.813316
 30
0.0
 10
16.801010
 20
88.161096
 30
0.0
  0
SPLINE
  5
190
100
AcDbEntity
  8
Path
 62
7
100
AcDbSpline
 70
8
 71
3
 72
8
 73
4
 74
0
 40
0
 40
0
 40
0
 40
0
 40
1
 40
1
 40
1
 40
1
 10
16.801010
 20
88.161096
 30
0.0
 10
16.818102
 20
87.762229
 30
0.0
 10
16.856968
 20
87.285070
 30
0.0
 10
16.887382
 20
87.100744
 30
0.0
  0
SPLINE
  5
191
100
AcDbEntity
  8
Path
 62
7
100
AcDbSpline
 70
8
 71
3
 72
8
 73
4
 74
0
 40
0
 40
0
 40
0
 40
0
 40
1
 40
1
 40
1
 40
1
 10
16.887382
 20
87.100744
 30
0.0
 10
16.917796
 20
86.916417
 30
0.0
 10
16.945645
 20
86.733054
 30
0.0
 10
16.949270
 20
86.693268
 30
0.0
  0
SPLINE
  5
192
100
AcDbEntity
  8
Path
 62
7
100
AcDbSpline
 70
8
 71
3
 72
8
 73
4
 74
0
 40
0
 40
0
 40
0
 40
0
 40
1
 40
1
 40
1
 40
1
 10
16.949270
 20
86.693268
 30
0.0
 10
16.952895
 20
86.653483
 30
0.0
 10
16.970447
 20
86.597920
 30
0.0
 10
16.988276
 20
86.569796
 30
0.0
  0
SPLINE
  5
193
100
AcDbEntity
  8
Path
 62
7
100
AcDbSpline
 70
8
 71
3
 72
8
 73
4
 74
0
 40
0
 40
0
 40
0
 40
0
 40
1
 40
1
 40
1
 40
1
 10
16.988276
 20
86.569796
 30
0.0
 10
17.006103
 20
86.541671
 30
0.0
 10
17.024207
 20
86.074161
 30
0.0
 10
17.028506
 20
85.530883
 30
0.0
  0
SPLINE
  5
194
100
AcDbEntity
  8
Path
 62
7
100
AcDbSpline
 70
8
 71
3
 72
8
 73
4
 74
0
 40
0
 40
0
 40
0
 40
0
 40
1
 40
1
 40
1
 40
1
 10
17.028506
 20
85.530883
 30
0.0
 10
17.032806
 20
84.987605
 30
0.0
 10
17.055158
 20
84.173639
 30
0.0
 10
17.078179
 20
83.722070
 30
0.0
  0
LWPOLYLINE
  5
195
100
AcDbEntity
  8
Path
 62
7
100
AcDbPolyline
 90
3
 70
0
 10
20.403870
 20
6.696387
 30
0.0
 10
20.381743
 20
7.037837
 30
0.0
 10
20.850124
 20
7.266824
 30
0.0
  0
SPLINE
  5
196
100
AcDbEntity
  8
Path
 62
7
100
AcDbSpline
 70
8
 71
3
 72
8
 73
4
 74
0
 40
0
 40
0
 40
0
 40
0
 40
1
 40
1
 40
1
 40
1
 10
17.259542
 20
82.742546
 30
0.0
 10
17.338269
 20
82.653108
 30
0.0
 10
17.478294
 20
82.547811
 30
0.0
 10
17.580940
 20
82.500860
 30
0.0
  0
SPLINE
  5
197
100
AcDbEntity
  8
Path
 62
7
100
AcDbSpline
 70
8
 71
3
 72
8
 73
4
 74
0
 40
0
 40
0
 40
0
 40
0
 40
1
 40
1
 40
1
 40
1
 10
17.580940
 20
82.500860
 30
0.0
 10
17.680980
 20
82.455100
 30
0.0
 10
17.831722
 20
82.360105
 30
0.0
 10
17.915922
 20
82.289758
 30
0.0
  0
SPLINE
  5
198
100
AcDbEntity
  8
Path
 62
7
100
AcDbSpline
 70
8
 71
3
 72
8
 73
4
 74
0
 40
0
 40
0
 40
0
 40
0
 40
1
 40
1
 40
1
 40
1
 10
17.915922
 20
82.289758
 30
0.0
 10
18.000121
 20
82.219411
 30
0.0
 10
18.081530
 20
82.161855
 30
0.0
 10
18.096832
 20
82.161855
 30
0.0
  0
SPLINE
  5
199
100
AcDbEntity
  8
Path
 62
7
100
AcDbSpline
 70
8
 71
3
 72
8
 73
4
 74
0
 40
0
 40
0
 40
0
 40
0
 40
1
 40
1
 40
1
 40
1
 10
18.096832
 20
82.161855
 30
0.0
 10
18.112133
 20
82.161855
 30
0.0
 10
18.237840
 20
82.047992
 30
0.0
 10
18.376181
 20
81.908826
 30
0.0
  0
SPLINE
  5
19a
100
AcDbEntity
  8
Path
 62
7
100
AcDbSpline
 70
8
 71
3
 72
8
 73
4
 74
0
 40
0
 40
0
 40
0
 40
0
 40
1
 40
1
 40
1
 40
1
 10
18.376181
 20
81.908826
 30
0.0
 10
18.716106
 20
81.566874
 30
0.0
 10
18.861246
 20
81.267758
 30
0.0
 10
18.998029
 20
80.627272
 30
0.0
  0
SPLINE
  5
19b
100
AcDbEntity
  8
Path
 62
7
100
AcDbSpline
 70
8
 71
3
 72
8
 73
4
 74
0
 40
0
 40
0
 40
0
 40
0
 40
1
 40
1
 40
1
 40
1
 10
18.998029
 20
80.627272
 30
0.0
 10
19.031179
 20
80.472050
 30
0.0
 10
19.074356
 20
80.289487
 30
0.0
 10
19.093978
 20
80.221577
 30
0.0
  0
SPLINE
  5
19c
100
AcDbEntity
  8
Path
 62
7
100
AcDbSpline
 70
8
 71
3
 72
8
 73
4
 74
0
 40
0
 40
0
 40
0
 40
0
 40
1
 40
1
 40
1
 40
1
 10
19.093978
 20
80.221577
 30
0.0
 10
19.113600
 20
80.153668
 30
0.0
 10
19.137139
 20
79.740918
 30
0.0
 10
19.146285
 20
79.304355
 30
0.0
  0
SPLINE
  5
19d
100
AcDbEntity
  8
Path
 62
7
100
AcDbSpline
 70
8
 71
3
 72
8
 73
4
 74
0
 40
0
 40
0
 40
0
 40
0
 40
1
 40
1
 40
1
 40
1
 10
19.146285
 20
79.304355
 30
0.0
 10
19.160491
 20
78.626242
 30
0.0
 10
19.152312
 20
78.438653
 30
0.0
 10
19.090142
 20
78.016716
 30
0.0
  0
SPLINE
  5
19e
100
AcDbEntity
  8
Path
 62
7
100
AcDbSpline
 70
8
 71
3
 72
8
 73
4
 74
0
 40
0
 40
0
 40
0
 40
0
 40
1
 40
1
 40
1
 40
1
 10
19.090142
 20
78.016716
 30
0.0
 10
18.962751
 20
77.152151
 30
0.0
 10
18.832136
 20
76.766005
 30
0.0
 10
18.534865
 20
76.375120
 30
0.0
  0
SPLINE
  5
19f
100
AcDbEntity
  8
Path
 62
7
100
AcDbSpline
 70
8
 71
3
 72
8
 73
4
 74
0
 40
0
 40
0
 40
0
 40
0
 40
1
 40
1
 40
1
 40
1
 10
18.534865
 20
76.375120
 30
0.0
 10
18.377816
 20
76.168612
 30
0.0
 10
18.203447
 20
75.864519
 30
0.0
 10
18.203447
 20
75.797135
 30
0.0
  0
SPLINE
  5
1a0
100
AcDbEntity
  8
Path
 62
7
100
AcDbSpline
 70
8
 71
3
 72
8
 73
4
 74
0
 40
0
 40
0
 40
0
 40
0
 40
1
 40
1
 40
1
 40
1
 10
18.203447
 20
75.797135
 30
0.0
 10
18.203447
 20
75.775413
 30
0.0
 10
18.140692
 20
75.681702
 30
0.0
 10
18.063991
 20
75.588884
 30
0.0
  0
SPLINE
  5
1a1
100
AcDbEntity
  8
Path
 62
7
100
AcDbSpline
 70
8
 71
3
 72
8
 73
4
 74
0
 40
0
 40
0
 40
0
 40
0
 40
1
 40
1
 40
1
 40
1
 10
18.063991
 20
75.588884
 30
0.0
 10
17.802405
 20
75.272329
 30
0.0
 10
17.682332
 20
75.088782
 30
0.0
 10
17.621364
 20
74.912273
 30
0.0
  0
SPLINE
  5
1a2
100
AcDbEntity
  8
Path
 62
7
100
AcDbSpline
 70
8
 71
3
 72
8
 73
4
 74
0
 40
0
 40
0
 40
0
 40
0
 40
1
 40
1
 40
1
 40
1
 10
17.621364
 20
74.912273
 30
0.0
 10
17.564500
 20
74.747641
 30
0.0
 10
17.563052
 20
74.587722
 30
0.0
 10
17.599645
 20
72.513383
 30
0.0
  0
SPLINE
  5
1a3
100
AcDbEntity
  8
Path
 62
7
100
AcDbSpline
 70
8
 71
3
 72
8
 73
4
 74
0
 40
0
 40
0
 40
0
 40
0
 40
1
 40
1
 40
1
 40
1
 10
17.599645
 20
72.513383
 30
0.0
 10
17.642906
 20
70.060992
 30
0.0
 10
17.680682
 20
69.160107
 30
0.0
 10
17.745547
 20
69.033848
 30
0.0
  0
SPLINE
  5
1a4
100
AcDbEntity
  8
Path
 62
7
100
AcDbSpline
 70
8
 71
3
 72
8
 73
4
 74
0
 40
0
 40
0
 40
0
 40
0
 40
1
 40
1
 40
1
 40
1
 10
17.745547
 20
69.033848
 30
0.0
 10
17.769148
 20
68.987913
 30
0.0
 10
17.839762
 20
68.894764
 30
0.0
 10
17.902470
 20
68.826856
 30
0.0
  0
SPLINE
  5
1a5
100
AcDbEntity
  8
Path
 62
7
100
AcDbSpline
 70
8
 71
3
 72
8
 73
4
 74
0
 40
0
 40
0
 40
0
 40
0
 40
1
 40
1
 40
1
 40
1
 10
17.902470
 20
68.826856
 30
0.0
 10
17.965177
 20
68.758946
 30
0.0
 10
18.083790
 20
68.576383
 30
0.0
 10
18.166053
 20
68.421160
 30
0.0
  0
SPLINE
  5
1a6
100
AcDbEntity
  8
Path
 62
7
100
AcDbSpline
 70
8
 71
3
 72
8
 73
4
 74
0
 40
0
 40
0
 40
0
 40
0
 40
1
 40
1
 40
1
 40
1
 10
18.166053
 20
68.421160
 30
0.0
 10
18.424832
 20
67.932866
 30
0.0
 10
18.730476
 20
67.563137
 30
0.0
 10
19.308025
 20
67.039739
 30
0.0
  0
SPLINE
  5
1a7
100
AcDbEntity
  8
Path
 62
7
100
AcDbSpline
 70
8
 71
3
 72
8
 73
4
 74
0
 40
0
 40
0
 40
0
 40
0
 40
1
 40
1
 40
1
 40
1
 10
19.308025
 20
67.039739
 30
0.0
 10
19.602736
 20
66.772658
 30
0.0
 10
20.113739
 20
66.290693
 30
0.0
 10
20.443586
 20
65.968705
 30
0.0
  0
SPLINE
  5
1a8
100
AcDbEntity
  8
Path
 62
7
100
AcDbSpline
 70
8
 71
3
 72
8
 73
4
 74
0
 40
0
 40
0
 40
0
 40
0
 40
1
 40
1
 40
1
 40
1
 10
20.443586
 20
65.968705
 30
0.0
 10
21.062927
 20
65.364119
 30
0.0
 10
21.287015
 20
65.180856
 30
0.0
 10
22.063372
 20
64.644000
 30
0.0
  0
SPLINE
  5
1a9
100
AcDbEntity
  8
Path
 62
7
100
AcDbSpline
 70
8
 71
3
 72
8
 73
4
 74
0
 40
0
 40
0
 40
0
 40
0
 40
1
 40
1
 40
1
 40
1
 10
22.063372
 20
64.644000
 30
0.0
 10
22.313963
 20
64.470717
 30
0.0
 10
22.641785
 20
64.222887
 30
0.0
 10
22.791866
 20
64.093265
 30
0.0
  0
SPLINE
  5
1aa
100
AcDbEntity
  8
Path
 62
7
100
AcDbSpline
 70
8
 71
3
 72
8
 73
4
 74
0
 40
0
 40
0
 40
0
 40
0
 40
1
 40
1
 40
1
 40
1
 10
22.791866
 20
64.093265
 30
0.0
 10
23.231617
 20
63.713471
 30
0.0
 10
23.389663
 20
63.602558
 30
0.0
 10
23.698434
 20
63.457055
 30
0.0
  0
LWPOLYLINE
  5
1ab
100
AcDbEntity
  8
Path
 62
7
100
AcDbPolyline
 90
3
 70
0
 10
17.078179
 20
83.722070
 30
0.0
 10
17.120036
 20
82.901034
 30
0.0
 10
17.259542
 20
82.742546
 30
0.0
  0
SPLINE
  5
1ac
100
AcDbEntity
  8
Path
 62
7
100
AcDbSpline
 70
8
 71
3
 72
8
 73
4
 74
0
 40
0
 40
0
 40
0
 40
0
 40
1
 40
1
 40
1
 40
1
 10
24.202525
 20
63.374146
 30
0.0
 10
24.319441
 20
63.404096
 30
0.0
 10
24.505946
 20
63.490295
 30
0.0
 10
24.616980
 20
63.565696
 30
0.0
  0
SPLINE
  5
1ad
100
AcDbEntity
  8
Path
 62
7
100
AcDbSpline
 70
8
 71
3
 72
8
 73
4
 74
0
 40
0
 40
0
 40
0
 40
0
 40
1
 40
1
 40
1
 40
1
 10
24.616980
 20
63.565696
 30
0.0
 10
24.728013
 20
63.641100
 30
0.0
 10
25.111148
 20
63.849107
 30
0.0
 10
25.468390
 20
64.027939
 30
0.0
  0
SPLINE
  5
1ae
100
AcDbEntity
  8
Path
 62
7
100
AcDbSpline
 70
8
 71
3
 72
8
 73
4
 74
0
 40
0
 40
0
 40
0
 40
0
 40
1
 40
1
 40
1
 40
1
 10
25.468390
 20
64.027939
 30
0.0
 10
26.548773
 20
64.568761
 30
0.0
 10
27.134434
 20
64.954788
 30
0.0
 10
28.574690
 20
66.075385
 30
0.0
  0
SPLINE
  5
1af
100
AcDbEntity
  8
Path
 62
7
100
AcDbSpline
 70
8
 71
3
 72
8
 73
4
 74
0
 40
0
 40
0
 40
0
 40
0
 40
1
 40
1
 40
1
 40
1
 10
28.574690
 20
66.075385
 30
0.0
 10
29.431358
 20
66.741921
 30
0.0
 10
30.034635
 20
67.149234
 30
0.0
 10
30.938724
 20
67.671511
 30
0.0
  0
SPLINE
  5
1b0
100
AcDbEntity
  8
Path
 62
7
100
AcDbSpline
 70
8
 71
3
 72
8
 73
4
 74
0
 40
0
 40
0
 40
0
 40
0
 40
1
 40
1
 40
1
 40
1
 10
30.938724
 20
67.671511
 30
0.0
 10
31.123051
 20
67.777990
 30
0.0
 10
31.567551
 20
68.043512
 30
0.0
 10
31.926504
 20
68.261558
 30
0.0
  0
SPLINE
  5
1b1
100
AcDbEntity
  8
Path
 62
7
100
AcDbSpline
 70
8
 71
3
 72
8
 73
4
 74
0
 40
0
 40
0
 40
0
 40
0
 40
1
 40
1
 40
1
 40
1
 10
31.926504
 20
68.261558
 30
0.0
 10
32.968012
 20
68.894219
 30
0.0
 10
33.403397
 20
69.095207
 30
0.0
 10
34.180650
 20
69.302138
 30
0.0
  0
SPLINE
  5
1b2
100
AcDbEntity
  8
Path
 62
7
100
AcDbSpline
 70
8
 71
3
 72
8
 73
4
 74
0
 40
0
 40
0
 40
0
 40
0
 40
1
 40
1
 40
1
 40
1
 10
34.180650
 20
69.302138
 30
0.0
 10
34.712881
 20
69.443838
 30
0.0
 10
34.940555
 20
69.548521
 30
0.0
 10
35.092243
 20
69.721283
 30
0.0
  0
SPLINE
  5
1b3
100
AcDbEntity
  8
Path
 62
7
100
AcDbSpline
 70
8
 71
3
 72
8
 73
4
 74
0
 40
0
 40
0
 40
0
 40
0
 40
1
 40
1
 40
1
 40
1
 10
35.092243
 20
69.721283
 30
0.0
 10
35.205826
 20
69.850646
 30
0.0
 10
35.348447
 20
70.184677
 30
0.0
 10
35.348447
 20
70.321334
 30
0.0
  0
SPLINE
  5
1b4
100
AcDbEntity
  8
Path
 62
7
100
AcDbSpline
 70
8
 71
3
 72
8
 73
4
 74
0
 40
0
 40
0
 40
0
 40
0
 40
1
 40
1
 40
1
 40
1
 10
35.348447
 20
70.321334
 30
0.0
 10
35.348447
 20
70.455377
 30
0.0
 10
35.719718
 20
70.734608
 30
0.0
 10
35.996303
 20
70.808583
 30
0.0
  0
SPLINE
  5
1b5
100
AcDbEntity
  8
Path
 62
7
100
AcDbSpline
 70
8
 71
3
 72
8
 73
4
 74
0
 40
0
 40
0
 40
0
 40
0
 40
1
 40
1
 40
1
 40
1
 10
35.996303
 20
70.808583
 30
0.0
 10
36.085060
 20
70.832316
 30
0.0
 10
36.164409
 20
70.869273
 30
0.0
 10
36.172627
 20
70.890694
 30
0.0
  0
SPLINE
  5
1b6
100
AcDbEntity
  8
Path
 62
7
100
AcDbSpline
 70
8
 71
3
 72
8
 73
4
 74
0
 40
0
 40
0
 40
0
 40
0
 40
1
 40
1
 40
1
 40
1
 10
36.172627
 20
70.890694
 30
0.0
 10
36.200564
 20
70.963499
 30
0.0
 10
35.781170
 20
71.771624
 30
0.0
 10
35.485911
 20
72.213925
 30
0.0
  0
SPLINE
  5
1b7
100
AcDbEntity
  8
Path
 62
7
100
AcDbSpline
 70
8
 71
3
 72
8
 73
4
 74
0
 40
0
 40
0
 40
0
 40
0
 40
1
 40
1
 40
1
 40
1
 10
35.485911
 20
72.213925
 30
0.0
 10
35.152520
 20
72.713342
 30
0.0
 10
34.916867
 20
73.159570
 30
0.0
 10
34.768853
 20
73.571716
 30
0.0
  0
SPLINE
  5
1b8
100
AcDbEntity
  8
Path
 62
7
100
AcDbSpline
 70
8
 71
3
 72
8
 73
4
 74
0
 40
0
 40
0
 40
0
 40
0
 40
1
 40
1
 40
1
 40
1
 10
34.768853
 20
73.571716
 30
0.0
 10
34.594575
 20
74.056997
 30
0.0
 10
34.340795
 20
74.552371
 30
0.0
 10
34.168003
 20
74.744556
 30
0.0
  0
SPLINE
  5
1b9
100
AcDbEntity
  8
Path
 62
7
100
AcDbSpline
 70
8
 71
3
 72
8
 73
4
 74
0
 40
0
 40
0
 40
0
 40
0
 40
1
 40
1
 40
1
 40
1
 10
34.168003
 20
74.744556
 30
0.0
 10
33.929794
 20
75.009502
 30
0.0
 10
33.825511
 20
75.061741
 30
0.0
 10
33.441875
 20
75.108297
 30
0.0
  0
SPLINE
  5
1ba
100
AcDbEntity
  8
Path
 62
7
100
AcDbSpline
 70
8
 71
3
 72
8
 73
4
 74
0
 40
0
 40
0
 40
0
 40
0
 40
1
 40
1
 40
1
 40
1
 10
33.441875
 20
75.108297
 30
0.0
 10
33.258413
 20
75.130549
 30
0.0
 10
32.834122
 20
75.217877
 30
0.0
 10
32.499006
 20
75.302335
 30
0.0
  0
SPLINE
  5
1bb
100
AcDbEntity
  8
Path
 62
7
100
AcDbSpline
 70
8
 71
3
 72
8
 73
4
 74
0
 40
0
 40
0
 40
0
 40
0
 40
1
 40
1
 40
1
 40
1
 10
32.499006
 20
75.302335
 30
0.0
 10
32.073816
 20
75.409491
 30
0.0
 10
31.754024
 20
75.467160
 30
0.0
 10
31.440673
 20
75.493184
 30
0.0
  0
SPLINE
  5
1bc
100
AcDbEntity
  8
Path
 62
7
100
AcDbSpline
 70
8
 71
3
 72
8
 73
4
 74
0
 40
0
 40
0
 40
0
 40
0
 40
1
 40
1
 40
1
 40
1
 10
31.440673
 20
75.493184
 30
0.0
 10
30.576303
 20
75.564971
 30
0.0
 10
30.283960
 20
75.606301
 30
0.0
 10
30.016371
 20
75.694545
 30
0.0
  0
SPLINE
  5
1bd
100
AcDbEntity
  8
Path
 62
7
100
AcDbSpline
 70
8
 71
3
 72
8
 73
4
 74
0
 40
0
 40
0
 40
0
 40
0
 40
1
 40
1
 40
1
 40
1
 10
30.016371
 20
75.694545
 30
0.0
 10
29.780659
 20
75.772275
 30
0.0
 10
29.703972
 20
75.821453
 30
0.0
 10
29.408112
 20
76.084618
 30
0.0
  0
SPLINE
  5
1be
100
AcDbEntity
  8
Path
 62
7
100
AcDbSpline
 70
8
 71
3
 72
8
 73
4
 74
0
 40
0
 40
0
 40
0
 40
0
 40
1
 40
1
 40
1
 40
1
 10
29.408112
 20
76.084618
 30
0.0
 10
29.161216
 20
76.304227
 30
0.0
 10
29.044813
 20
76.436350
 30
0.0
 10
28.978109
 20
76.572684
 30
0.0
  0
LWPOLYLINE
  5
1bf
100
AcDbEntity
  8
Path
 62
7
100
AcDbPolyline
 90
3
 70
0
 10
23.698434
 20
63.457055
 30
0.0
 10
23.989949
 20
63.319684
 30
0.0
 10
24.202525
 20
63.374146
 30
0.0
  0
SPLINE
  5
1c0
100
AcDbEntity
  8
Path
 62
7
100
AcDbSpline
 70
8
 71
3
 72
8
 73
4
 74
0
 40
0
 40
0
 40
0
 40
0
 40
1
 40
1
 40
1
 40
1
 10
28.959537
 20
77.405810
 30
0.0
 10
28.999627
 20
77.761211
 30
0.0
 10
29.065098
 20
78.169150
 30
0.0
 10
29.105027
 20
78.312342
 30
0.0
  0
SPLINE
  5
1c1
100
AcDbEntity
  8
Path
 62
7
100
AcDbSpline
 70
8
 71
3
 72
8
 73
4
 74
0
 40
0
 40
0
 40
0
 40
0
 40
1
 40
1
 40
1
 40
1
 10
29.105027
 20
78.312342
 30
0.0
 10
29.144955
 20
78.455533
 30
0.0
 10
29.225391
 20
78.860121
 30
0.0
 10
29.283771
 20
79.211426
 30
0.0
  0
SPLINE
  5
1c2
100
AcDbEntity
  8
Path
 62
7
100
AcDbSpline
 70
8
 71
3
 72
8
 73
4
 74
0
 40
0
 40
0
 40
0
 40
0
 40
1
 40
1
 40
1
 40
1
 10
29.283771
 20
79.211426
 30
0.0
 10
29.494491
 20
80.479433
 30
0.0
 10
29.954074
 20
82.118685
 30
0.0
 10
30.308595
 20
82.866776
 30
0.0
  0
SPLINE
  5
1c3
100
AcDbEntity
  8
Path
 62
7
100
AcDbSpline
 70
8
 71
3
 72
8
 73
4
 74
0
 40
0
 40
0
 40
0
 40
0
 40
1
 40
1
 40
1
 40
1
 10
30.308595
 20
82.866776
 30
0.0
 10
30.408999
 20
83.078645
 30
0.0
 10
30.541939
 20
83.447789
 30
0.0
 10
30.619896
 20
83.731190
 30
0.0
  0
SPLINE
  5
1c4
100
AcDbEntity
  8
Path
 62
7
100
AcDbSpline
 70
8
 71
3
 72
8
 73
4
 74
0
 40
0
 40
0
 40
0
 40
0
 40
1
 40
1
 40
1
 40
1
 10
30.619896
 20
83.731190
 30
0.0
 10
30.694731
 20
84.003237
 30
0.0
 10
30.819534
 20
84.385400
 30
0.0
 10
30.897240
 20
84.580441
 30
0.0
  0
SPLINE
  5
1c5
100
AcDbEntity
  8
Path
 62
7
100
AcDbSpline
 70
8
 71
3
 72
8
 73
4
 74
0
 40
0
 40
0
 40
0
 40
0
 40
1
 40
1
 40
1
 40
1
 10
30.897240
 20
84.580441
 30
0.0
 10
31.028457
 20
84.909805
 30
0.0
 10
31.126319
 20
85.122686
 30
0.0
 10
31.603937
 20
86.117758
 30
0.0
  0
SPLINE
  5
1c6
100
AcDbEntity
  8
Path
 62
7
100
AcDbSpline
 70
8
 71
3
 72
8
 73
4
 74
0
 40
0
 40
0
 40
0
 40
0
 40
1
 40
1
 40
1
 40
1
 10
31.603937
 20
86.117758
 30
0.0
 10
31.702989
 20
86.324122
 30
0.0
 10
31.959606
 20
86.887684
 30
0.0
 10
32.174199
 20
87.370119
 30
0.0
  0
SPLINE
  5
1c7
100
AcDbEntity
  8
Path
 62
7
100
AcDbSpline
 70
8
 71
3
 72
8
 73
4
 74
0
 40
0
 40
0
 40
0
 40
0
 40
1
 40
1
 40
1
 40
1
 10
32.174199
 20
87.370119
 30
0.0
 10
32.729562
 20
88.618666
 30
0.0
 10
33.254148
 20
89.590998
 30
0.0
 10
34.074896
 20
90.893105
 30
0.0
  0
SPLINE
  5
1c8
100
AcDbEntity
  8
Path
 62
7
100
AcDbSpline
 70
8
 71
3
 72
8
 73
4
 74
0
 40
0
 40
0
 40
0
 40
0
 40
1
 40
1
 40
1
 40
1
 10
34.074896
 20
90.893105
 30
0.0
 10
34.233887
 20
91.145341
 30
0.0
 10
34.430695
 20
91.460266
 30
0.0
 10
34.512250
 20
91.592939
 30
0.0
  0
SPLINE
  5
1c9
100
AcDbEntity
  8
Path
 62
7
100
AcDbSpline
 70
8
 71
3
 72
8
 73
4
 74
0
 40
0
 40
0
 40
0
 40
0
 40
1
 40
1
 40
1
 40
1
 10
34.512250
 20
91.592939
 30
0.0
 10
34.688388
 20
91.879480
 30
0.0
 10
35.030767
 20
92.397763
 30
0.0
 10
35.237166
 20
92.690293
 30
0.0
  0
SPLINE
  5
1ca
100
AcDbEntity
  8
Path
 62
7
100
AcDbSpline
 70
8
 71
3
 72
8
 73
4
 74
0
 40
0
 40
0
 40
0
 40
0
 40
1
 40
1
 40
1
 40
1
 10
35.237166
 20
92.690293
 30
0.0
 10
35.468896
 20
93.018721
 30
0.0
 10
35.524837
 20
93.252345
 30
0.0
 10
35.524837
 20
93.891658
 30
0.0
  0
SPLINE
  5
1cb
100
AcDbEntity
  8
Path
 62
7
100
AcDbSpline
 70
8
 71
3
 72
8
 73
4
 74
0
 40
0
 40
0
 40
0
 40
0
 40
1
 40
1
 40
1
 40
1
 10
35.524837
 20
93.891658
 30
0.0
 10
35.524837
 20
94.252604
 30
0.0
 10
35.505866
 20
94.522646
 30
0.0
 10
35.467449
 20
94.708151
 30
0.0
  0
SPLINE
  5
1cc
100
AcDbEntity
  8
Path
 62
7
100
AcDbSpline
 70
8
 71
3
 72
8
 73
4
 74
0
 40
0
 40
0
 40
0
 40
0
 40
1
 40
1
 40
1
 40
1
 10
35.467449
 20
94.708151
 30
0.0
 10
35.358710
 20
95.233367
 30
0.0
 10
35.452315
 20
95.993985
 30
0.0
 10
35.681007
 20
96.443662
 30
0.0
  0
SPLINE
  5
1cd
100
AcDbEntity
  8
Path
 62
7
100
AcDbSpline
 70
8
 71
3
 72
8
 73
4
 74
0
 40
0
 40
0
 40
0
 40
0
 40
1
 40
1
 40
1
 40
1
 10
35.681007
 20
96.443662
 30
0.0
 10
35.808682
 20
96.694701
 30
0.0
 10
36.165843
 20
97.127263
 30
0.0
 10
36.361526
 20
97.267848
 30
0.0
  0
SPLINE
  5
1ce
100
AcDbEntity
  8
Path
 62
7
100
AcDbSpline
 70
8
 71
3
 72
8
 73
4
 74
0
 40
0
 40
0
 40
0
 40
0
 40
1
 40
1
 40
1
 40
1
 10
36.361526
 20
97.267848
 30
0.0
 10
36.457824
 20
97.337029
 30
0.0
 10
36.765365
 20
97.511636
 30
0.0
 10
37.044958
 20
97.655863
 30
0.0
  0
SPLINE
  5
1cf
100
AcDbEntity
  8
Path
 62
7
100
AcDbSpline
 70
8
 71
3
 72
8
 73
4
 74
0
 40
0
 40
0
 40
0
 40
0
 40
1
 40
1
 40
1
 40
1
 10
37.044958
 20
97.655863
 30
0.0
 10
37.324549
 20
97.800091
 30
0.0
 10
37.712057
 20
98.014316
 30
0.0
 10
37.906087
 20
98.131919
 30
0.0
  0
SPLINE
  5
1d0
100
AcDbEntity
  8
Path
 62
7
100
AcDbSpline
 70
8
 71
3
 72
8
 73
4
 74
0
 40
0
 40
0
 40
0
 40
0
 40
1
 40
1
 40
1
 40
1
 10
37.906087
 20
98.131919
 30
0.0
 10
39.352895
 20
99.008849
 30
0.0
 10
40.167962
 20
99.472937
 30
0.0
 10
40.869420
 20
99.819193
 30
0.0
  0
SPLINE
  5
1d1
100
AcDbEntity
  8
Path
 62
7
100
AcDbSpline
 70
8
 71
3
 72
8
 73
4
 74
0
 40
0
 40
0
 40
0
 40
0
 40
1
 40
1
 40
1
 40
1
 10
40.869420
 20
99.819193
 30
0.0
 10
41.315682
 20
100.039480
 30
0.0
 10
41.752245
 20
100.236714
 30
0.0
 10
41.839557
 20
100.257490
 30
0.0
  0
SPLINE
  5
1d2
100
AcDbEntity
  8
Path
 62
7
100
AcDbSpline
 70
8
 71
3
 72
8
 73
4
 74
0
 40
0
 40
0
 40
0
 40
0
 40
1
 40
1
 40
1
 40
1
 10
41.839557
 20
100.257490
 30
0.0
 10
41.926870
 20
100.278268
 30
0.0
 10
42.096156
 20
100.318256
 30
0.0
 10
42.215750
 20
100.346355
 30
0.0
  0
SPLINE
  5
1d3
100
AcDbEntity
  8
Path
 62
7
100
AcDbSpline
 70
8
 71
3
 72
8
 73
4
 74
0
 40
0
 40
0
 40
0
 40
0
 40
1
 40
1
 40
1
 40
1
 10
42.215750
 20
100.346355
 30
0.0
 10
42.335342
 20
100.374455
 30
0.0
 10
42.523661
 20
100.455319
 30
0.0
 10
42.634236
 20
100.526054
 30
0.0
  0
SPLINE
  5
1d4
100
AcDbEntity
  8
Path
 62
7
100
AcDbSpline
 70
8
 71
3
 72
8
 73
4
 74
0
 40
0
 40
0
 40
0
 40
0
 40
1
 40
1
 40
1
 40
1
 10
42.634236
 20
100.526054
 30
0.0
 10
42.942155
 20
100.723027
 30
0.0
 10
43.304661
 20
100.882537
 30
0.0
 10
43.674004
 20
100.983570
 30
0.0
  0
SPLINE
  5
1d5
100
AcDbEntity
  8
Path
 62
7
100
AcDbSpline
 70
8
 71
3
 72
8
 73
4
 74
0
 40
0
 40
0
 40
0
 40
0
 40
1
 40
1
 40
1
 40
1
 10
43.674004
 20
100.983570
 30
0.0
 10
44.291906
 20
101.152597
 30
0.0
 10
44.606091
 20
101.250699
 30
0.0
 10
45.046096
 20
101.411996
 30
0.0
  0
SPLINE
  5
1d6
100
AcDbEntity
  8
Path
 62
7
100
AcDbSpline
 70
8
 71
3
 72
8
 73
4
 74
0
 40
0
 40
0
 40
0
 40
0
 40
1
 40
1
 40
1
 40
1
 10
45.046096
 20
101.411996
 30
0.0
 10
45.509696
 20
101.581943
 30
0.0
 10
45.895660
 20
101.667043
 30
0.0
 10
46.214004
 20
101.669504
 30
0.0
  0
SPLINE
  5
1d7
100
AcDbEntity
  8
Path
 62
7
100
AcDbSpline
 70
8
 71
3
 72
8
 73
4
 74
0
 40
0
 40
0
 40
0
 40
0
 40
1
 40
1
 40
1
 40
1
 10
46.214004
 20
101.669504
 30
0.0
 10
46.320718
 20
101.670330
 30
0.0
 10
46.511218
 20
101.702512
 30
0.0
 10
46.637337
 20
101.741021
 30
0.0
  0
SPLINE
  5
1d8
100
AcDbEntity
  8
Path
 62
7
100
AcDbSpline
 70
8
 71
3
 72
8
 73
4
 74
0
 40
0
 40
0
 40
0
 40
0
 40
1
 40
1
 40
1
 40
1
 10
46.637337
 20
101.741021
 30
0.0
 10
46.763453
 20
101.779530
 30
0.0
 10
46.938078
 20
101.811538
 30
0.0
 10
47.025391
 20
101.812149
 30
0.0
  0
SPLINE
  5
1d9
100
AcDbEntity
  8
Path
 62
7
100
AcDbSpline
 70
8
 71
3
 72
8
 73
4
 74
0
 40
0
 40
0
 40
0
 40
0
 40
1
 40
1
 40
1
 40
1
 10
47.025391
 20
101.812149
 30
0.0
 10
47.112703
 20
101.812760
 30
0.0
 10
47.245318
 20
101.827456
 30
0.0
 10
47.320089
 20
101.844805
 30
0.0
  0
SPLINE
  5
1da
100
AcDbEntity
  8
Path
 62
7
100
AcDbSpline
 70
8
 71
3
 72
8
 73
4
 74
0
 40
0
 40
0
 40
0
 40
0
 40
1
 40
1
 40
1
 40
1
 10
47.320089
 20
101.844805
 30
0.0
 10
47.394860
 20
101.862155
 30
0.0
 10
48.387048
 20
101.880095
 30
0.0
 10
49.524949
 20
101.884670
 30
0.0
  0
LWPOLYLINE
  5
1db
100
AcDbEntity
  8
Path
 62
7
100
AcDbPolyline
 90
3
 70
0
 10
28.978109
 20
76.572684
 30
0.0
 10
28.886647
 20
76.759625
 30
0.0
 10
28.959537
 20
77.405810
 30
0.0
  0
SPLINE
  5
1dc
100
AcDbEntity
  8
Path
 62
7
100
AcDbSpline
 70
8
 71
3
 72
8
 73
4
 74
0
 40
0
 40
0
 40
0
 40
0
 40
1
 40
1
 40
1
 40
1
 10
52.069876
 20
101.707470
 30
0.0
 10
52.506467
 20
101.537276
 30
0.0
 10
52.739462
 20
101.416761
 30
0.0
 10
52.769675
 20
101.345508
 30
0.0
  0
SPLINE
  5
1dd
100
AcDbEntity
  8
Path
 62
7
100
AcDbSpline
 70
8
 71
3
 72
8
 73
4
 74
0
 40
0
 40
0
 40
0
 40
0
 40
1
 40
1
 40
1
 40
1
 10
52.769675
 20
101.345508
 30
0.0
 10
52.776157
 20
101.330255
 30
0.0
 10
52.799956
 20
101.317562
 30
0.0
 10
52.822591
 20
101.317302
 30
0.0
  0
SPLINE
  5
1de
100
AcDbEntity
  8
Path
 62
7
100
AcDbSpline
 70
8
 71
3
 72
8
 73
4
 74
0
 40
0
 40
0
 40
0
 40
0
 40
1
 40
1
 40
1
 40
1
 10
52.822591
 20
101.317302
 30
0.0
 10
52.845240
 20
101.317041
 30
0.0
 10
52.903438
 20
101.285158
 30
0.0
 10
52.951944
 20
101.246450
 30
0.0
  0
SPLINE
  5
1df
100
AcDbEntity
  8
Path
 62
7
100
AcDbSpline
 70
8
 71
3
 72
8
 73
4
 74
0
 40
0
 40
0
 40
0
 40
0
 40
1
 40
1
 40
1
 40
1
 10
52.951944
 20
101.246450
 30
0.0
 10
53.000452
 20
101.207741
 30
0.0
 10
53.151265
 20
101.093905
 30
0.0
 10
53.287083
 20
100.993480
 30
0.0
  0
SPLINE
  5
1e0
100
AcDbEntity
  8
Path
 62
7
100
AcDbSpline
 70
8
 71
3
 72
8
 73
4
 74
0
 40
0
 40
0
 40
0
 40
0
 40
1
 40
1
 40
1
 40
1
 10
53.287083
 20
100.993480
 30
0.0
 10
53.422902
 20
100.893055
 30
0.0
 10
53.541964
 20
100.801693
 30
0.0
 10
53.551667
 20
100.790453
 30
0.0
  0
SPLINE
  5
1e1
100
AcDbEntity
  8
Path
 62
7
100
AcDbSpline
 70
8
 71
3
 72
8
 73
4
 74
0
 40
0
 40
0
 40
0
 40
0
 40
1
 40
1
 40
1
 40
1
 10
53.551667
 20
100.790453
 30
0.0
 10
53.561377
 20
100.779213
 30
0.0
 10
53.656852
 20
100.710634
 30
0.0
 10
53.763852
 20
100.638054
 30
0.0
  0
SPLINE
  5
1e2
100
AcDbEntity
  8
Path
 62
7
100
AcDbSpline
 70
8
 71
3
 72
8
 73
4
 74
0
 40
0
 40
0
 40
0
 40
0
 40
1
 40
1
 40
1
 40
1
 10
53.763852
 20
100.638054
 30
0.0
 10
53.870852
 20
100.565475
 30
0.0
 10
53.997852
 20
100.469750
 30
0.0
 10
54.046075
 20
100.425332
 30
0.0
  0
SPLINE
  5
1e3
100
AcDbEntity
  8
Path
 62
7
100
AcDbSpline
 70
8
 71
3
 72
8
 73
4
 74
0
 40
0
 40
0
 40
0
 40
0
 40
1
 40
1
 40
1
 40
1
 10
54.046075
 20
100.425332
 30
0.0
 10
54.094295
 20
100.380914
 30
0.0
 10
54.379812
 20
100.147882
 30
0.0
 10
54.680556
 20
99.907483
 30
0.0
  0
SPLINE
  5
1e4
100
AcDbEntity
  8
Path
 62
7
100
AcDbSpline
 70
8
 71
3
 72
8
 73
4
 74
0
 40
0
 40
0
 40
0
 40
0
 40
1
 40
1
 40
1
 40
1
 10
54.680556
 20
99.907483
 30
0.0
 10
54.981298
 20
99.667085
 30
0.0
 10
55.248326
 20
99.449504
 30
0.0
 10
55.273953
 20
99.423971
 30
0.0
  0
SPLINE
  5
1e5
100
AcDbEntity
  8
Path
 62
7
100
AcDbSpline
 70
8
 71
3
 72
8
 73
4
 74
0
 40
0
 40
0
 40
0
 40
0
 40
1
 40
1
 40
1
 40
1
 10
55.273953
 20
99.423971
 30
0.0
 10
55.383655
 20
99.314664
 30
0.0
 10
55.640933
 20
99.197959
 30
0.0
 10
56.001224
 20
99.094069
 30
0.0
  0
SPLINE
  5
1e6
100
AcDbEntity
  8
Path
 62
7
100
AcDbSpline
 70
8
 71
3
 72
8
 73
4
 74
0
 40
0
 40
0
 40
0
 40
0
 40
1
 40
1
 40
1
 40
1
 10
56.001224
 20
99.094069
 30
0.0
 10
57.323220
 20
98.712871
 30
0.0
 10
57.924465
 20
98.295619
 30
0.0
 10
58.312428
 20
97.490136
 30
0.0
  0
SPLINE
  5
1e7
100
AcDbEntity
  8
Path
 62
7
100
AcDbSpline
 70
8
 71
3
 72
8
 73
4
 74
0
 40
0
 40
0
 40
0
 40
0
 40
1
 40
1
 40
1
 40
1
 10
58.312428
 20
97.490136
 30
0.0
 10
58.405882
 20
97.296109
 30
0.0
 10
58.493660
 20
97.100190
 30
0.0
 10
58.507490
 20
97.054762
 30
0.0
  0
SPLINE
  5
1e8
100
AcDbEntity
  8
Path
 62
7
100
AcDbSpline
 70
8
 71
3
 72
8
 73
4
 74
0
 40
0
 40
0
 40
0
 40
0
 40
1
 40
1
 40
1
 40
1
 10
58.507490
 20
97.054762
 30
0.0
 10
58.521327
 20
97.009333
 30
0.0
 10
58.600848
 20
96.826771
 30
0.0
 10
58.684221
 20
96.649067
 30
0.0
  0
SPLINE
  5
1e9
100
AcDbEntity
  8
Path
 62
7
100
AcDbSpline
 70
8
 71
3
 72
8
 73
4
 74
0
 40
0
 40
0
 40
0
 40
0
 40
1
 40
1
 40
1
 40
1
 10
58.684221
 20
96.649067
 30
0.0
 10
58.767596
 20
96.471363
 30
0.0
 10
58.877359
 20
96.226830
 30
0.0
 10
58.928140
 20
96.105658
 30
0.0
  0
SPLINE
  5
1ea
100
AcDbEntity
  8
Path
 62
7
100
AcDbSpline
 70
8
 71
3
 72
8
 73
4
 74
0
 40
0
 40
0
 40
0
 40
0
 40
1
 40
1
 40
1
 40
1
 10
58.928140
 20
96.105658
 30
0.0
 10
58.978919
 20
95.984487
 30
0.0
 10
59.058154
 20
95.801924
 30
0.0
 10
59.104215
 20
95.699964
 30
0.0
  0
SPLINE
  5
1eb
100
AcDbEntity
  8
Path
 62
7
100
AcDbSpline
 70
8
 71
3
 72
8
 73
4
 74
0
 40
0
 40
0
 40
0
 40
0
 40
1
 40
1
 40
1
 40
1
 10
59.104215
 20
95.699964
 30
0.0
 10
59.206310
 20
95.473960
 30
0.0
 10
59.232850
 20
95.398971
 30
0.0
 10
59.369579
 20
94.950136
 30
0.0
  0
SPLINE
  5
1ec
100
AcDbEntity
  8
Path
 62
7
100
AcDbSpline
 70
8
 71
3
 72
8
 73
4
 74
0
 40
0
 40
0
 40
0
 40
0
 40
1
 40
1
 40
1
 40
1
 10
59.369579
 20
94.950136
 30
0.0
 10
59.523051
 20
94.446354
 30
0.0
 10
59.546924
 20
94.290265
 30
0.0
 10
59.585373
 20
93.539025
 30
0.0
  0
SPLINE
  5
1ed
100
AcDbEntity
  8
Path
 62
7
100
AcDbSpline
 70
8
 71
3
 72
8
 73
4
 74
0
 40
0
 40
0
 40
0
 40
0
 40
1
 40
1
 40
1
 40
1
 10
59.585373
 20
93.539025
 30
0.0
 10
59.651180
 20
92.253316
 30
0.0
 10
59.689505
 20
92.145086
 30
0.0
 10
60.378650
 20
91.298887
 30
0.0
  0
SPLINE
  5
1ee
100
AcDbEntity
  8
Path
 62
7
100
AcDbSpline
 70
8
 71
3
 72
8
 73
4
 74
0
 40
0
 40
0
 40
0
 40
0
 40
1
 40
1
 40
1
 40
1
 10
60.378650
 20
91.298887
 30
0.0
 10
60.465557
 20
91.192171
 30
0.0
 10
60.536667
 20
91.093280
 30
0.0
 10
60.536667
 20
91.079128
 30
0.0
  0
SPLINE
  5
1ef
100
AcDbEntity
  8
Path
 62
7
100
AcDbSpline
 70
8
 71
3
 72
8
 73
4
 74
0
 40
0
 40
0
 40
0
 40
0
 40
1
 40
1
 40
1
 40
1
 10
60.536667
 20
91.079128
 30
0.0
 10
60.536667
 20
91.064976
 30
0.0
 10
60.698232
 20
90.787164
 30
0.0
 10
60.895704
 20
90.461767
 30
0.0
  0
SPLINE
  5
1f0
100
AcDbEntity
  8
Path
 62
7
100
AcDbSpline
 70
8
 71
3
 72
8
 73
4
 74
0
 40
0
 40
0
 40
0
 40
0
 40
1
 40
1
 40
1
 40
1
 10
60.895704
 20
90.461767
 30
0.0
 10
61.267396
 20
89.849279
 30
0.0
 10
61.410302
 20
89.566237
 30
0.0
 10
61.799997
 20
88.670692
 30
0.0
  0
SPLINE
  5
1f1
100
AcDbEntity
  8
Path
 62
7
100
AcDbSpline
 70
8
 71
3
 72
8
 73
4
 74
0
 40
0
 40
0
 40
0
 40
0
 40
1
 40
1
 40
1
 40
1
 10
61.799997
 20
88.670692
 30
0.0
 10
61.859096
 20
88.534873
 30
0.0
 10
61.995899
 20
88.236294
 30
0.0
 10
62.104005
 20
88.007183
 30
0.0
  0
SPLINE
  5
1f2
100
AcDbEntity
  8
Path
 62
7
100
AcDbSpline
 70
8
 71
3
 72
8
 73
4
 74
0
 40
0
 40
0
 40
0
 40
0
 40
1
 40
1
 40
1
 40
1
 10
62.104005
 20
88.007183
 30
0.0
 10
62.212106
 20
87.778073
 30
0.0
 10
62.300556
 20
87.570904
 30
0.0
 10
62.300556
 20
87.546808
 30
0.0
  0
SPLINE
  5
1f3
100
AcDbEntity
  8
Path
 62
7
100
AcDbSpline
 70
8
 71
3
 72
8
 73
4
 74
0
 40
0
 40
0
 40
0
 40
0
 40
1
 40
1
 40
1
 40
1
 10
62.300556
 20
87.546808
 30
0.0
 10
62.300556
 20
87.522713
 30
0.0
 10
62.315267
 20
87.487917
 30
0.0
 10
62.333222
 20
87.469484
 30
0.0
  0
SPLINE
  5
1f4
100
AcDbEntity
  8
Path
 62
7
100
AcDbSpline
 70
8
 71
3
 72
8
 73
4
 74
0
 40
0
 40
0
 40
0
 40
0
 40
1
 40
1
 40
1
 40
1
 10
62.333222
 20
87.469484
 30
0.0
 10
62.375711
 20
87.425896
 30
0.0
 10
62.638197
 20
86.629143
 30
0.0
 10
62.709089
 20
86.328570
 30
0.0
  0
SPLINE
  5
1f5
100
AcDbEntity
  8
Path
 62
7
100
AcDbSpline
 70
8
 71
3
 72
8
 73
4
 74
0
 40
0
 40
0
 40
0
 40
0
 40
1
 40
1
 40
1
 40
1
 10
62.709089
 20
86.328570
 30
0.0
 10
62.778016
 20
86.036325
 30
0.0
 10
62.864362
 20
85.287451
 30
0.0
 10
62.864092
 20
84.984165
 30
0.0
  0
SPLINE
  5
1f6
100
AcDbEntity
  8
Path
 62
7
100
AcDbSpline
 70
8
 71
3
 72
8
 73
4
 74
0
 40
0
 40
0
 40
0
 40
0
 40
1
 40
1
 40
1
 40
1
 10
62.864092
 20
84.984165
 30
0.0
 10
62.864092
 20
84.858046
 30
0.0
 10
62.832774
 20
84.607419
 30
0.0
 10
62.794735
 20
84.427216
 30
0.0
  0
SPLINE
  5
1f7
100
AcDbEntity
  8
Path
 62
7
100
AcDbSpline
 70
8
 71
3
 72
8
 73
4
 74
0
 40
0
 40
0
 40
0
 40
0
 40
1
 40
1
 40
1
 40
1
 10
62.794735
 20
84.427216
 30
0.0
 10
62.751205
 20
84.220994
 30
0.0
 10
62.724022
 20
83.946447
 30
0.0
 10
62.721384
 20
83.686382
 30
0.0
  0
SPLINE
  5
1f8
100
AcDbEntity
  8
Path
 62
7
100
AcDbSpline
 70
8
 71
3
 72
8
 73
4
 74
0
 40
0
 40
0
 40
0
 40
0
 40
1
 40
1
 40
1
 40
1
 10
62.721384
 20
83.686382
 30
0.0
 10
62.717071
 20
83.260703
 30
0.0
 10
62.678905
 20
83.097938
 30
0.0
 10
62.550188
 20
82.956174
 30
0.0
  0
SPLINE
  5
1f9
100
AcDbEntity
  8
Path
 62
7
100
AcDbSpline
 70
8
 71
3
 72
8
 73
4
 74
0
 40
0
 40
0
 40
0
 40
0
 40
1
 40
1
 40
1
 40
1
 10
62.550188
 20
82.956174
 30
0.0
 10
62.514715
 20
82.917103
 30
0.0
 10
62.426609
 20
82.766074
 30
0.0
 10
62.354399
 20
82.620554
 30
0.0
  0
SPLINE
  5
1fa
100
AcDbEntity
  8
Path
 62
7
100
AcDbSpline
 70
8
 71
3
 72
8
 73
4
 74
0
 40
0
 40
0
 40
0
 40
0
 40
1
 40
1
 40
1
 40
1
 10
62.354399
 20
82.620554
 30
0.0
 10
62.181721
 20
82.272561
 30
0.0
 10
62.123497
 20
82.196750
 30
0.0
 10
61.538128
 20
81.557786
 30
0.0
  0
SPLINE
  5
1fb
100
AcDbEntity
  8
Path
 62
7
100
AcDbSpline
 70
8
 71
3
 72
8
 73
4
 74
0
 40
0
 40
0
 40
0
 40
0
 40
1
 40
1
 40
1
 40
1
 10
61.538128
 20
81.557786
 30
0.0
 10
61.264845
 20
81.259482
 30
0.0
 10
60.945694
 20
80.904290
 30
0.0
 10
60.828902
 20
80.768470
 30
0.0
  0
SPLINE
  5
1fc
100
AcDbEntity
  8
Path
 62
7
100
AcDbSpline
 70
8
 71
3
 72
8
 73
4
 74
0
 40
0
 40
0
 40
0
 40
0
 40
1
 40
1
 40
1
 40
1
 10
60.828902
 20
80.768470
 30
0.0
 10
60.299547
 20
80.152890
 30
0.0
 10
59.852465
 20
79.797504
 30
0.0
 10
59.249755
 20
79.513207
 30
0.0
  0
SPLINE
  5
1fd
100
AcDbEntity
  8
Path
 62
7
100
AcDbSpline
 70
8
 71
3
 72
8
 73
4
 74
0
 40
0
 40
0
 40
0
 40
0
 40
1
 40
1
 40
1
 40
1
 10
59.249755
 20
79.513207
 30
0.0
 10
59.050288
 20
79.419119
 30
0.0
 10
58.875573
 20
79.313812
 30
0.0
 10
58.861502
 20
79.279193
 30
0.0
  0
SPLINE
  5
1fe
100
AcDbEntity
  8
Path
 62
7
100
AcDbSpline
 70
8
 71
3
 72
8
 73
4
 74
0
 40
0
 40
0
 40
0
 40
0
 40
1
 40
1
 40
1
 40
1
 10
58.861502
 20
79.279193
 30
0.0
 10
58.847426
 20
79.244573
 30
0.0
 10
58.797727
 20
79.105807
 30
0.0
 10
58.751049
 20
78.970824
 30
0.0
  0
SPLINE
  5
1ff
100
AcDbEntity
  8
Path
 62
7
100
AcDbSpline
 70
8
 71
3
 72
8
 73
4
 74
0
 40
0
 40
0
 40
0
 40
0
 40
1
 40
1
 40
1
 40
1
 10
58.751049
 20
78.970824
 30
0.0
 10
58.613950
 20
78.574351
 30
0.0
 10
58.349650
 20
78.002848
 30
0.0
 10
58.163013
 20
77.699304
 30
0.0
  0
SPLINE
  5
200
100
AcDbEntity
  8
Path
 62
7
100
AcDbSpline
 70
8
 71
3
 72
8
 73
4
 74
0
 40
0
 40
0
 40
0
 40
0
 40
1
 40
1
 40
1
 40
1
 10
58.163013
 20
77.699304
 30
0.0
 10
57.864663
 20
77.214073
 30
0.0
 10
57.290443
 20
76.478612
 30
0.0
 10
56.937320
 20
76.129444
 30
0.0
  0
SPLINE
  5
201
100
AcDbEntity
  8
Path
 62
7
100
AcDbSpline
 70
8
 71
3
 72
8
 73
4
 74
0
 40
0
 40
0
 40
0
 40
0
 40
1
 40
1
 40
1
 40
1
 10
56.937320
 20
76.129444
 30
0.0
 10
56.551314
 20
75.747758
 30
0.0
 10
56.303347
 20
75.589397
 30
0.0
 10
55.805155
 20
75.406396
 30
0.0
  0
SPLINE
  5
202
100
AcDbEntity
  8
Path
 62
7
100
AcDbSpline
 70
8
 71
3
 72
8
 73
4
 74
0
 40
0
 40
0
 40
0
 40
0
 40
1
 40
1
 40
1
 40
1
 10
55.805155
 20
75.406396
 30
0.0
 10
55.612811
 20
75.335741
 30
0.0
 10
55.340620
 20
75.214586
 30
0.0
 10
55.200288
 20
75.137163
 30
0.0
  0
SPLINE
  5
203
100
AcDbEntity
  8
Path
 62
7
100
AcDbSpline
 70
8
 71
3
 72
8
 73
4
 74
0
 40
0
 40
0
 40
0
 40
0
 40
1
 40
1
 40
1
 40
1
 10
55.200288
 20
75.137163
 30
0.0
 10
54.646261
 20
74.831501
 30
0.0
 10
54.165392
 20
74.647171
 30
0.0
 10
52.292480
 20
74.022524
 30
0.0
  0
SPLINE
  5
204
100
AcDbEntity
  8
Path
 62
7
100
AcDbSpline
 70
8
 71
3
 72
8
 73
4
 74
0
 40
0
 40
0
 40
0
 40
0
 40
1
 40
1
 40
1
 40
1
 10
52.292480
 20
74.022524
 30
0.0
 10
52.025849
 20
73.933600
 30
0.0
 10
51.761737
 20
73.601726
 30
0.0
 10
51.526694
 20
73.060277
 30
0.0
  0
SPLINE
  5
205
100
AcDbEntity
  8
Path
 62
7
100
AcDbSpline
 70
8
 71
3
 72
8
 73
4
 74
0
 40
0
 40
0
 40
0
 40
0
 40
1
 40
1
 40
1
 40
1
 10
51.526694
 20
73.060277
 30
0.0
 10
51.471946
 20
72.934158
 30
0.0
 10
51.311051
 20
72.487629
 30
0.0
 10
51.169149
 20
72.067989
 30
0.0
  0
SPLINE
  5
206
100
AcDbEntity
  8
Path
 62
7
100
AcDbSpline
 70
8
 71
3
 72
8
 73
4
 74
0
 40
0
 40
0
 40
0
 40
0
 40
1
 40
1
 40
1
 40
1
 10
51.169149
 20
72.067989
 30
0.0
 10
51.027248
 20
71.648352
 30
0.0
 10
50.861312
 20
71.187977
 30
0.0
 10
50.800402
 20
71.044935
 30
0.0
  0
SPLINE
  5
207
100
AcDbEntity
  8
Path
 62
7
100
AcDbSpline
 70
8
 71
3
 72
8
 73
4
 74
0
 40
0
 40
0
 40
0
 40
0
 40
1
 40
1
 40
1
 40
1
 10
50.800402
 20
71.044935
 30
0.0
 10
50.739495
 20
70.901893
 30
0.0
 10
50.659906
 20
70.677603
 30
0.0
 10
50.623544
 20
70.546510
 30
0.0
  0
LWPOLYLINE
  5
208
100
AcDbEntity
  8
Path
 62
7
100
AcDbPolyline
 90
3
 70
0
 10
49.524949
 20
101.884670
 30
0.0
 10
51.593750
 20
101.893076
 30
0.0
 10
52.069876
 20
101.707470
 30
0.0
  0
SPLINE
  5
209
100
AcDbEntity
  8
Path
 62
7
100
AcDbSpline
 70
8
 71
3
 72
8
 73
4
 74
0
 40
0
 40
0
 40
0
 40
0
 40
1
 40
1
 40
1
 40
1
 10
50.652254
 20
70.260274
 30
0.0
 10
50.989399
 20
70.090014
 30
0.0
 10
51.407878
 20
70.003678
 30
0.0
 10
52.130283
 20
69.955339
 30
0.0
  0
SPLINE
  5
20a
100
AcDbEntity
  8
Path
 62
7
100
AcDbSpline
 70
8
 71
3
 72
8
 73
4
 74
0
 40
0
 40
0
 40
0
 40
0
 40
1
 40
1
 40
1
 40
1
 10
52.130283
 20
69.955339
 30
0.0
 10
52.432773
 20
69.935098
 30
0.0
 10
52.829759
 20
69.886147
 30
0.0
 10
53.012478
 20
69.846560
 30
0.0
  0
SPLINE
  5
20b
100
AcDbEntity
  8
Path
 62
7
100
AcDbSpline
 70
8
 71
3
 72
8
 73
4
 74
0
 40
0
 40
0
 40
0
 40
0
 40
1
 40
1
 40
1
 40
1
 10
53.012478
 20
69.846560
 30
0.0
 10
53.392533
 20
69.764217
 30
0.0
 10
54.963883
 20
69.234341
 30
0.0
 10
55.227736
 20
69.099549
 30
0.0
  0
SPLINE
  5
20c
100
AcDbEntity
  8
Path
 62
7
100
AcDbSpline
 70
8
 71
3
 72
8
 73
4
 74
0
 40
0
 40
0
 40
0
 40
0
 40
1
 40
1
 40
1
 40
1
 10
55.227736
 20
69.099549
 30
0.0
 10
55.461850
 20
68.979952
 30
0.0
 10
55.617859
 20
68.808915
 30
0.0
 10
55.668926
 20
68.615867
 30
0.0
  0
SPLINE
  5
20d
100
AcDbEntity
  8
Path
 62
7
100
AcDbSpline
 70
8
 71
3
 72
8
 73
4
 74
0
 40
0
 40
0
 40
0
 40
0
 40
1
 40
1
 40
1
 40
1
 10
55.668926
 20
68.615867
 30
0.0
 10
55.802075
 20
68.112524
 30
0.0
 10
56.117927
 20
67.776032
 30
0.0
 10
56.764693
 20
67.448507
 30
0.0
  0
SPLINE
  5
20e
100
AcDbEntity
  8
Path
 62
7
100
AcDbSpline
 70
8
 71
3
 72
8
 73
4
 74
0
 40
0
 40
0
 40
0
 40
0
 40
1
 40
1
 40
1
 40
1
 10
56.764693
 20
67.448507
 30
0.0
 10
58.037024
 20
66.804185
 30
0.0
 10
58.915250
 20
66.227328
 30
0.0
 10
59.604582
 20
65.583136
 30
0.0
  0
SPLINE
  5
20f
100
AcDbEntity
  8
Path
 62
7
100
AcDbSpline
 70
8
 71
3
 72
8
 73
4
 74
0
 40
0
 40
0
 40
0
 40
0
 40
1
 40
1
 40
1
 40
1
 10
59.604582
 20
65.583136
 30
0.0
 10
59.761332
 20
65.436652
 30
0.0
 10
60.055866
 20
65.172394
 30
0.0
 10
60.259106
 20
64.995893
 30
0.0
  0
SPLINE
  5
210
100
AcDbEntity
  8
Path
 62
7
100
AcDbSpline
 70
8
 71
3
 72
8
 73
4
 74
0
 40
0
 40
0
 40
0
 40
0
 40
1
 40
1
 40
1
 40
1
 10
60.259106
 20
64.995893
 30
0.0
 10
60.462340
 20
64.819390
 30
0.0
 10
60.743632
 20
64.533640
 30
0.0
 10
60.884194
 20
64.360893
 30
0.0
  0
SPLINE
  5
211
100
AcDbEntity
  8
Path
 62
7
100
AcDbSpline
 70
8
 71
3
 72
8
 73
4
 74
0
 40
0
 40
0
 40
0
 40
0
 40
1
 40
1
 40
1
 40
1
 10
60.884194
 20
64.360893
 30
0.0
 10
62.247333
 20
62.685636
 30
0.0
 10
62.346078
 20
62.552469
 30
0.0
 10
62.774004
 20
61.812260
 30
0.0
  0
SPLINE
  5
212
100
AcDbEntity
  8
Path
 62
7
100
AcDbSpline
 70
8
 71
3
 72
8
 73
4
 74
0
 40
0
 40
0
 40
0
 40
0
 40
1
 40
1
 40
1
 40
1
 10
62.774004
 20
61.812260
 30
0.0
 10
63.272712
 20
60.949626
 30
0.0
 10
63.908548
 20
60.055085
 30
0.0
 10
64.558325
 20
59.301944
 30
0.0
  0
SPLINE
  5
213
100
AcDbEntity
  8
Path
 62
7
100
AcDbSpline
 70
8
 71
3
 72
8
 73
4
 74
0
 40
0
 40
0
 40
0
 40
0
 40
1
 40
1
 40
1
 40
1
 10
64.558325
 20
59.301944
 30
0.0
 10
64.667133
 20
59.175825
 30
0.0
 10
64.858442
 20
58.945637
 30
0.0
 10
64.983455
 20
58.790414
 30
0.0
  0
SPLINE
  5
214
100
AcDbEntity
  8
Path
 62
7
100
AcDbSpline
 70
8
 71
3
 72
8
 73
4
 74
0
 40
0
 40
0
 40
0
 40
0
 40
1
 40
1
 40
1
 40
1
 10
64.983455
 20
58.790414
 30
0.0
 10
65.108466
 20
58.635194
 30
0.0
 10
65.237162
 20
58.476444
 30
0.0
 10
65.269449
 20
58.437637
 30
0.0
  0
SPLINE
  5
215
100
AcDbEntity
  8
Path
 62
7
100
AcDbSpline
 70
8
 71
3
 72
8
 73
4
 74
0
 40
0
 40
0
 40
0
 40
0
 40
1
 40
1
 40
1
 40
1
 10
65.269449
 20
58.437637
 30
0.0
 10
65.301730
 20
58.398831
 30
0.0
 10
65.459909
 20
58.200393
 30
0.0
 10
65.620956
 20
57.996664
 30
0.0
  0
SPLINE
  5
216
100
AcDbEntity
  8
Path
 62
7
100
AcDbSpline
 70
8
 71
3
 72
8
 73
4
 74
0
 40
0
 40
0
 40
0
 40
0
 40
1
 40
1
 40
1
 40
1
 10
65.620956
 20
57.996664
 30
0.0
 10
65.781999
 20
57.792935
 30
0.0
 10
66.029038
 20
57.487272
 30
0.0
 10
66.169929
 20
57.317410
 30
0.0
  0
SPLINE
  5
217
100
AcDbEntity
  8
Path
 62
7
100
AcDbSpline
 70
8
 71
3
 72
8
 73
4
 74
0
 40
0
 40
0
 40
0
 40
0
 40
1
 40
1
 40
1
 40
1
 10
66.169929
 20
57.317410
 30
0.0
 10
66.456719
 20
56.971642
 30
0.0
 10
66.610217
 20
56.738737
 30
0.0
 10
66.756883
 20
56.426804
 30
0.0
  0
SPLINE
  5
218
100
AcDbEntity
  8
Path
 62
7
100
AcDbSpline
 70
8
 71
3
 72
8
 73
4
 74
0
 40
0
 40
0
 40
0
 40
0
 40
1
 40
1
 40
1
 40
1
 10
66.756883
 20
56.426804
 30
0.0
 10
66.811623
 20
56.310387
 30
0.0
 10
66.992074
 20
55.945262
 30
0.0
 10
67.157888
 20
55.615414
 30
0.0
  0
SPLINE
  5
219
100
AcDbEntity
  8
Path
 62
7
100
AcDbSpline
 70
8
 71
3
 72
8
 73
4
 74
0
 40
0
 40
0
 40
0
 40
0
 40
1
 40
1
 40
1
 40
1
 10
67.157888
 20
55.615414
 30
0.0
 10
67.648606
 20
54.639247
 30
0.0
 10
67.683171
 20
54.567521
 30
0.0
 10
67.778842
 20
54.326861
 30
0.0
  0
SPLINE
  5
21a
100
AcDbEntity
  8
Path
 62
7
100
AcDbSpline
 70
8
 71
3
 72
8
 73
4
 74
0
 40
0
 40
0
 40
0
 40
0
 40
1
 40
1
 40
1
 40
1
 10
67.778842
 20
54.326861
 30
0.0
 10
67.829179
 20
54.200240
 30
0.0
 10
67.898021
 20
53.955881
 30
0.0
 10
67.931821
 20
53.783841
 30
0.0
  0
SPLINE
  5
21b
100
AcDbEntity
  8
Path
 62
7
100
AcDbSpline
 70
8
 71
3
 72
8
 73
4
 74
0
 40
0
 40
0
 40
0
 40
0
 40
1
 40
1
 40
1
 40
1
 10
67.931821
 20
53.783841
 30
0.0
 10
67.987831
 20
53.498779
 30
0.0
 10
67.989344
 20
53.401537
 30
0.0
 10
67.948860
 20
52.687130
 30
0.0
  0
SPLINE
  5
21c
100
AcDbEntity
  8
Path
 62
7
100
AcDbSpline
 70
8
 71
3
 72
8
 73
4
 74
0
 40
0
 40
0
 40
0
 40
0
 40
1
 40
1
 40
1
 40
1
 10
67.948860
 20
52.687130
 30
0.0
 10
67.924439
 20
52.255976
 30
0.0
 10
67.888837
 20
51.841522
 30
0.0
 10
67.869755
 20
51.766118
 30
0.0
  0
SPLINE
  5
21d
100
AcDbEntity
  8
Path
 62
7
100
AcDbSpline
 70
8
 71
3
 72
8
 73
4
 74
0
 40
0
 40
0
 40
0
 40
0
 40
1
 40
1
 40
1
 40
1
 10
67.869755
 20
51.766118
 30
0.0
 10
67.850679
 20
51.690720
 30
0.0
 10
67.804443
 20
51.430589
 30
0.0
 10
67.767017
 20
51.188054
 30
0.0
  0
SPLINE
  5
21e
100
AcDbEntity
  8
Path
 62
7
100
AcDbSpline
 70
8
 71
3
 72
8
 73
4
 74
0
 40
0
 40
0
 40
0
 40
0
 40
1
 40
1
 40
1
 40
1
 10
67.767017
 20
51.188054
 30
0.0
 10
67.558518
 20
49.836917
 30
0.0
 10
67.339588
 20
49.026281
 30
0.0
 10
67.133430
 20
48.842083
 30
0.0
  0
SPLINE
  5
21f
100
AcDbEntity
  8
Path
 62
7
100
AcDbSpline
 70
8
 71
3
 72
8
 73
4
 74
0
 40
0
 40
0
 40
0
 40
0
 40
1
 40
1
 40
1
 40
1
 10
67.133430
 20
48.842083
 30
0.0
 10
67.090002
 20
48.803277
 30
0.0
 10
66.989735
 20
48.676459
 30
0.0
 10
66.910619
 20
48.560270
 30
0.0
  0
SPLINE
  5
220
100
AcDbEntity
  8
Path
 62
7
100
AcDbSpline
 70
8
 71
3
 72
8
 73
4
 74
0
 40
0
 40
0
 40
0
 40
0
 40
1
 40
1
 40
1
 40
1
 10
66.910619
 20
48.560270
 30
0.0
 10
66.700887
 20
48.252256
 30
0.0
 10
66.526159
 20
48.074765
 30
0.0
 10
66.166217
 20
47.804107
 30
0.0
  0
SPLINE
  5
221
100
AcDbEntity
  8
Path
 62
7
100
AcDbSpline
 70
8
 71
3
 72
8
 73
4
 74
0
 40
0
 40
0
 40
0
 40
0
 40
1
 40
1
 40
1
 40
1
 10
66.166217
 20
47.804107
 30
0.0
 10
65.846375
 20
47.563601
 30
0.0
 10
65.661455
 20
47.392053
 30
0.0
 10
65.690615
 20
47.362893
 30
0.0
  0
SPLINE
  5
222
100
AcDbEntity
  8
Path
 62
7
100
AcDbSpline
 70
8
 71
3
 72
8
 73
4
 74
0
 40
0
 40
0
 40
0
 40
0
 40
1
 40
1
 40
1
 40
1
 10
65.690615
 20
47.362893
 30
0.0
 10
65.699108
 20
47.354400
 30
0.0
 10
65.888349
 20
47.262732
 30
0.0
 10
66.111149
 20
47.159188
 30
0.0
  0
SPLINE
  5
223
100
AcDbEntity
  8
Path
 62
7
100
AcDbSpline
 70
8
 71
3
 72
8
 73
4
 74
0
 40
0
 40
0
 40
0
 40
0
 40
1
 40
1
 40
1
 40
1
 10
66.111149
 20
47.159188
 30
0.0
 10
66.887736
 20
46.798267
 30
0.0
 10
67.246299
 20
46.592397
 30
0.0
 10
67.485345
 20
46.370182
 30
0.0
  0
SPLINE
  5
224
100
AcDbEntity
  8
Path
 62
7
100
AcDbSpline
 70
8
 71
3
 72
8
 73
4
 74
0
 40
0
 40
0
 40
0
 40
0
 40
1
 40
1
 40
1
 40
1
 10
67.485345
 20
46.370182
 30
0.0
 10
67.612030
 20
46.252416
 30
0.0
 10
67.842683
 20
46.059910
 30
0.0
 10
67.997906
 20
45.942393
 30
0.0
  0
SPLINE
  5
225
100
AcDbEntity
  8
Path
 62
7
100
AcDbSpline
 70
8
 71
3
 72
8
 73
4
 74
0
 40
0
 40
0
 40
0
 40
0
 40
1
 40
1
 40
1
 40
1
 10
67.997906
 20
45.942393
 30
0.0
 10
68.459554
 20
45.592894
 30
0.0
 10
68.876735
 20
45.113144
 30
0.0
 10
69.326771
 20
44.414220
 30
0.0
  0
SPLINE
  5
226
100
AcDbEntity
  8
Path
 62
7
100
AcDbSpline
 70
8
 71
3
 72
8
 73
4
 74
0
 40
0
 40
0
 40
0
 40
0
 40
1
 40
1
 40
1
 40
1
 10
69.326771
 20
44.414220
 30
0.0
 10
69.496876
 20
44.150039
 30
0.0
 10
69.702513
 20
43.922455
 30
0.0
 10
69.773321
 20
43.920013
 30
0.0
  0
SPLINE
  5
227
100
AcDbEntity
  8
Path
 62
7
100
AcDbSpline
 70
8
 71
3
 72
8
 73
4
 74
0
 40
0
 40
0
 40
0
 40
0
 40
1
 40
1
 40
1
 40
1
 10
69.773321
 20
43.920013
 30
0.0
 10
69.849685
 20
43.917367
 30
0.0
 10
70.086016
 20
43.638539
 30
0.0
 10
70.226335
 20
43.385510
 30
0.0
  0
SPLINE
  5
228
100
AcDbEntity
  8
Path
 62
7
100
AcDbSpline
 70
8
 71
3
 72
8
 73
4
 74
0
 40
0
 40
0
 40
0
 40
0
 40
1
 40
1
 40
1
 40
1
 10
70.226335
 20
43.385510
 30
0.0
 10
70.392102
 20
43.086591
 30
0.0
 10
70.696656
 20
42.333325
 30
0.0
 10
70.696656
 20
42.222243
 30
0.0
  0
SPLINE
  5
229
100
AcDbEntity
  8
Path
 62
7
100
AcDbSpline
 70
8
 71
3
 72
8
 73
4
 74
0
 40
0
 40
0
 40
0
 40
0
 40
1
 40
1
 40
1
 40
1
 10
70.696656
 20
42.222243
 30
0.0
 10
70.696656
 20
42.188619
 30
0.0
 10
70.710705
 20
42.152427
 30
0.0
 10
70.727866
 20
42.141820
 30
0.0
  0
SPLINE
  5
22a
100
AcDbEntity
  8
Path
 62
7
100
AcDbSpline
 70
8
 71
3
 72
8
 73
4
 74
0
 40
0
 40
0
 40
0
 40
0
 40
1
 40
1
 40
1
 40
1
 10
70.727866
 20
42.141820
 30
0.0
 10
70.745038
 20
42.131210
 30
0.0
 10
70.767173
 20
42.078680
 30
0.0
 10
70.777071
 20
42.025083
 30
0.0
  0
SPLINE
  5
22b
100
AcDbEntity
  8
Path
 62
7
100
AcDbSpline
 70
8
 71
3
 72
8
 73
4
 74
0
 40
0
 40
0
 40
0
 40
0
 40
1
 40
1
 40
1
 40
1
 10
70.777071
 20
42.025083
 30
0.0
 10
70.786966
 20
41.971489
 30
0.0
 10
70.820817
 20
41.812276
 30
0.0
 10
70.852287
 20
41.671277
 30
0.0
  0
SPLINE
  5
22c
100
AcDbEntity
  8
Path
 62
7
100
AcDbSpline
 70
8
 71
3
 72
8
 73
4
 74
0
 40
0
 40
0
 40
0
 40
0
 40
1
 40
1
 40
1
 40
1
 10
70.852287
 20
41.671277
 30
0.0
 10
70.883761
 20
41.530281
 30
0.0
 10
70.924174
 20
41.118689
 30
0.0
 10
70.942086
 20
40.756639
 30
0.0
  0
SPLINE
  5
22d
100
AcDbEntity
  8
Path
 62
7
100
AcDbSpline
 70
8
 71
3
 72
8
 73
4
 74
0
 40
0
 40
0
 40
0
 40
0
 40
1
 40
1
 40
1
 40
1
 10
70.942086
 20
40.756639
 30
0.0
 10
70.968627
 20
40.220350
 30
0.0
 10
70.984859
 20
40.092651
 30
0.0
 10
71.029684
 20
40.067563
 30
0.0
  0
SPLINE
  5
22e
100
AcDbEntity
  8
Path
 62
7
100
AcDbSpline
 70
8
 71
3
 72
8
 73
4
 74
0
 40
0
 40
0
 40
0
 40
0
 40
1
 40
1
 40
1
 40
1
 10
71.029684
 20
40.067563
 30
0.0
 10
71.064832
 20
40.047905
 30
0.0
 10
71.084713
 20
39.987178
 30
0.0
 10
71.084713
 20
39.899495
 30
0.0
  0
SPLINE
  5
22f
100
AcDbEntity
  8
Path
 62
7
100
AcDbSpline
 70
8
 71
3
 72
8
 73
4
 74
0
 40
0
 40
0
 40
0
 40
0
 40
1
 40
1
 40
1
 40
1
 10
71.084713
 20
39.899495
 30
0.0
 10
71.084713
 20
39.823993
 30
0.0
 10
71.100588
 20
39.752408
 30
0.0
 10
71.119989
 20
39.740417
 30
0.0
  0
SPLINE
  5
230
100
AcDbEntity
  8
Path
 62
7
100
AcDbSpline
 70
8
 71
3
 72
8
 73
4
 74
0
 40
0
 40
0
 40
0
 40
0
 40
1
 40
1
 40
1
 40
1
 10
71.119989
 20
39.740417
 30
0.0
 10
71.171311
 20
39.708698
 30
0.0
 10
71.163172
 20
39.421935
 30
0.0
 10
71.107131
 20
39.287836
 30
0.0
  0
SPLINE
  5
231
100
AcDbEntity
  8
Path
 62
7
100
AcDbSpline
 70
8
 71
3
 72
8
 73
4
 74
0
 40
0
 40
0
 40
0
 40
0
 40
1
 40
1
 40
1
 40
1
 10
71.107131
 20
39.287836
 30
0.0
 10
71.052613
 20
39.157354
 30
0.0
 10
70.489905
 20
38.656842
 30
0.0
 10
70.218951
 20
38.497820
 30
0.0
  0
SPLINE
  5
232
100
AcDbEntity
  8
Path
 62
7
100
AcDbSpline
 70
8
 71
3
 72
8
 73
4
 74
0
 40
0
 40
0
 40
0
 40
0
 40
1
 40
1
 40
1
 40
1
 10
70.218951
 20
38.497820
 30
0.0
 10
70.005287
 20
38.372426
 30
0.0
 10
69.885031
 20
38.204616
 30
0.0
 10
69.885885
 20
38.033045
 30
0.0
  0
SPLINE
  5
233
100
AcDbEntity
  8
Path
 62
7
100
AcDbSpline
 70
8
 71
3
 72
8
 73
4
 74
0
 40
0
 40
0
 40
0
 40
0
 40
1
 40
1
 40
1
 40
1
 10
69.885885
 20
38.033045
 30
0.0
 10
69.886150
 20
37.963157
 30
0.0
 10
69.910201
 20
37.755158
 30
0.0
 10
69.939151
 20
37.570833
 30
0.0
  0
SPLINE
  5
234
100
AcDbEntity
  8
Path
 62
7
100
AcDbSpline
 70
8
 71
3
 72
8
 73
4
 74
0
 40
0
 40
0
 40
0
 40
0
 40
1
 40
1
 40
1
 40
1
 10
69.939151
 20
37.570833
 30
0.0
 10
70.045599
 20
36.893029
 30
0.0
 10
70.202327
 20
35.643061
 30
0.0
 10
70.202539
 20
35.470235
 30
0.0
  0
SPLINE
  5
235
100
AcDbEntity
  8
Path
 62
7
100
AcDbSpline
 70
8
 71
3
 72
8
 73
4
 74
0
 40
0
 40
0
 40
0
 40
0
 40
1
 40
1
 40
1
 40
1
 10
70.202539
 20
35.470235
 30
0.0
 10
70.202803
 20
35.297949
 30
0.0
 10
70.197115
 20
35.287969
 30
0.0
 10
70.025620
 20
35.157193
 30
0.0
  0
SPLINE
  5
236
100
AcDbEntity
  8
Path
 62
7
100
AcDbSpline
 70
8
 71
3
 72
8
 73
4
 74
0
 40
0
 40
0
 40
0
 40
0
 40
1
 40
1
 40
1
 40
1
 10
70.025620
 20
35.157193
 30
0.0
 10
69.874130
 20
35.041663
 30
0.0
 10
69.808796
 20
35.016869
 30
0.0
 10
69.574270
 20
34.985907
 30
0.0
  0
SPLINE
  5
237
100
AcDbEntity
  8
Path
 62
7
100
AcDbSpline
 70
8
 71
3
 72
8
 73
4
 74
0
 40
0
 40
0
 40
0
 40
0
 40
1
 40
1
 40
1
 40
1
 10
69.574270
 20
34.985907
 30
0.0
 10
69.251116
 20
34.943240
 30
0.0
 10
69.090741
 20
34.966619
 30
0.0
 10
68.962646
 20
35.075074
 30
0.0
  0
SPLINE
  5
238
100
AcDbEntity
  8
Path
 62
7
100
AcDbSpline
 70
8
 71
3
 72
8
 73
4
 74
0
 40
0
 40
0
 40
0
 40
0
 40
1
 40
1
 40
1
 40
1
 10
68.962646
 20
35.075074
 30
0.0
 10
68.874955
 20
35.149319
 30
0.0
 10
68.864403
 20
35.192044
 30
0.0
 10
68.794947
 20
35.754027
 30
0.0
  0
SPLINE
  5
239
100
AcDbEntity
  8
Path
 62
7
100
AcDbSpline
 70
8
 71
3
 72
8
 73
4
 74
0
 40
0
 40
0
 40
0
 40
0
 40
1
 40
1
 40
1
 40
1
 10
68.794947
 20
35.754027
 30
0.0
 10
68.754186
 20
36.083875
 30
0.0
 10
68.720197
 20
36.504563
 30
0.0
 10
68.719422
 20
36.688887
 30
0.0
  0
SPLINE
  5
23a
100
AcDbEntity
  8
Path
 62
7
100
AcDbSpline
 70
8
 71
3
 72
8
 73
4
 74
0
 40
0
 40
0
 40
0
 40
0
 40
1
 40
1
 40
1
 40
1
 10
68.719422
 20
36.688887
 30
0.0
 10
68.718628
 20
36.873214
 30
0.0
 10
68.702806
 20
37.095464
 30
0.0
 10
68.684203
 20
37.182777
 30
0.0
  0
SPLINE
  5
23b
100
AcDbEntity
  8
Path
 62
7
100
AcDbSpline
 70
8
 71
3
 72
8
 73
4
 74
0
 40
0
 40
0
 40
0
 40
0
 40
1
 40
1
 40
1
 40
1
 10
68.684203
 20
37.182777
 30
0.0
 10
68.665603
 20
37.270089
 30
0.0
 10
68.636354
 20
37.512350
 30
0.0
 10
68.619195
 20
37.721133
 30
0.0
  0
SPLINE
  5
23c
100
AcDbEntity
  8
Path
 62
7
100
AcDbSpline
 70
8
 71
3
 72
8
 73
4
 74
0
 40
0
 40
0
 40
0
 40
0
 40
1
 40
1
 40
1
 40
1
 10
68.619195
 20
37.721133
 30
0.0
 10
68.602024
 20
37.929918
 30
0.0
 10
68.570692
 20
38.121595
 30
0.0
 10
68.549541
 20
38.147080
 30
0.0
  0
SPLINE
  5
23d
100
AcDbEntity
  8
Path
 62
7
100
AcDbSpline
 70
8
 71
3
 72
8
 73
4
 74
0
 40
0
 40
0
 40
0
 40
0
 40
1
 40
1
 40
1
 40
1
 10
68.549541
 20
38.147080
 30
0.0
 10
68.528401
 20
38.172559
 30
0.0
 10
68.358353
 20
38.213400
 30
0.0
 10
68.171684
 20
38.237821
 30
0.0
  0
SPLINE
  5
23e
100
AcDbEntity
  8
Path
 62
7
100
AcDbSpline
 70
8
 71
3
 72
8
 73
4
 74
0
 40
0
 40
0
 40
0
 40
0
 40
1
 40
1
 40
1
 40
1
 10
68.171684
 20
38.237821
 30
0.0
 10
67.693244
 20
38.300419
 30
0.0
 10
67.514637
 20
38.361006
 30
0.0
 10
67.363758
 20
38.511885
 30
0.0
  0
SPLINE
  5
23f
100
AcDbEntity
  8
Path
 62
7
100
AcDbSpline
 70
8
 71
3
 72
8
 73
4
 74
0
 40
0
 40
0
 40
0
 40
0
 40
1
 40
1
 40
1
 40
1
 10
67.363758
 20
38.511885
 30
0.0
 10
67.172300
 20
38.703340
 30
0.0
 10
67.115738
 20
38.846551
 30
0.0
 10
67.031801
 20
39.352360
 30
0.0
  0
SPLINE
  5
240
100
AcDbEntity
  8
Path
 62
7
100
AcDbSpline
 70
8
 71
3
 72
8
 73
4
 74
0
 40
0
 40
0
 40
0
 40
0
 40
1
 40
1
 40
1
 40
1
 10
67.031801
 20
39.352360
 30
0.0
 10
66.989939
 20
39.604595
 30
0.0
 10
66.938753
 20
39.873063
 30
0.0
 10
66.918046
 20
39.948956
 30
0.0
  0
SPLINE
  5
241
100
AcDbEntity
  8
Path
 62
7
100
AcDbSpline
 70
8
 71
3
 72
8
 73
4
 74
0
 40
0
 40
0
 40
0
 40
0
 40
1
 40
1
 40
1
 40
1
 10
66.918046
 20
39.948956
 30
0.0
 10
66.881735
 20
40.082039
 30
0.0
 10
66.769274
 20
40.213060
 30
0.0
 10
66.689264
 20
40.215492
 30
0.0
  0
SPLINE
  5
242
100
AcDbEntity
  8
Path
 62
7
100
AcDbSpline
 70
8
 71
3
 72
8
 73
4
 74
0
 40
0
 40
0
 40
0
 40
0
 40
1
 40
1
 40
1
 40
1
 10
66.689264
 20
40.215492
 30
0.0
 10
66.624070
 20
40.217344
 30
0.0
 10
66.543026
 20
40.333761
 30
0.0
 10
66.516343
 20
40.463610
 30
0.0
  0
SPLINE
  5
243
100
AcDbEntity
  8
Path
 62
7
100
AcDbSpline
 70
8
 71
3
 72
8
 73
4
 74
0
 40
0
 40
0
 40
0
 40
0
 40
1
 40
1
 40
1
 40
1
 10
66.516343
 20
40.463610
 30
0.0
 10
66.502373
 20
40.531521
 30
0.0
 10
66.460555
 20
40.620257
 30
0.0
 10
66.423381
 20
40.660809
 30
0.0
  0
SPLINE
  5
244
100
AcDbEntity
  8
Path
 62
7
100
AcDbSpline
 70
8
 71
3
 72
8
 73
4
 74
0
 40
0
 40
0
 40
0
 40
0
 40
1
 40
1
 40
1
 40
1
 10
66.423381
 20
40.660809
 30
0.0
 10
66.386207
 20
40.701357
 30
0.0
 10
66.339757
 20
40.788669
 30
0.0
 10
66.320159
 20
40.854836
 30
0.0
  0
SPLINE
  5
245
100
AcDbEntity
  8
Path
 62
7
100
AcDbSpline
 70
8
 71
3
 72
8
 73
4
 74
0
 40
0
 40
0
 40
0
 40
0
 40
1
 40
1
 40
1
 40
1
 10
66.320159
 20
40.854836
 30
0.0
 10
66.269219
 20
41.026816
 30
0.0
 10
66.204724
 20
41.643260
 30
0.0
 10
66.211606
 20
41.892360
 30
0.0
  0
SPLINE
  5
246
100
AcDbEntity
  8
Path
 62
7
100
AcDbSpline
 70
8
 71
3
 72
8
 73
4
 74
0
 40
0
 40
0
 40
0
 40
0
 40
1
 40
1
 40
1
 40
1
 10
66.211606
 20
41.892360
 30
0.0
 10
66.238731
 20
42.873954
 30
0.0
 10
66.242136
 20
42.827863
 30
0.0
 10
66.124302
 20
43.074167
 30
0.0
  0
SPLINE
  5
247
100
AcDbEntity
  8
Path
 62
7
100
AcDbSpline
 70
8
 71
3
 72
8
 73
4
 74
0
 40
0
 40
0
 40
0
 40
0
 40
1
 40
1
 40
1
 40
1
 10
66.124302
 20
43.074167
 30
0.0
 10
66.063966
 20
43.200283
 30
0.0
 10
65.922297
 20
43.430470
 30
0.0
 10
65.809490
 20
43.585694
 30
0.0
  0
SPLINE
  5
248
100
AcDbEntity
  8
Path
 62
7
100
AcDbSpline
 70
8
 71
3
 72
8
 73
4
 74
0
 40
0
 40
0
 40
0
 40
0
 40
1
 40
1
 40
1
 40
1
 10
65.809490
 20
43.585694
 30
0.0
 10
65.696677
 20
43.740917
 30
0.0
 10
65.497382
 20
44.028524
 30
0.0
 10
65.366609
 20
44.224821
 30
0.0
  0
SPLINE
  5
249
100
AcDbEntity
  8
Path
 62
7
100
AcDbSpline
 70
8
 71
3
 72
8
 73
4
 74
0
 40
0
 40
0
 40
0
 40
0
 40
1
 40
1
 40
1
 40
1
 10
65.366609
 20
44.224821
 30
0.0
 10
64.931809
 20
44.877474
 30
0.0
 10
64.816683
 20
44.972605
 30
0.0
 10
63.976226
 20
45.373740
 30
0.0
  0
SPLINE
  5
24a
100
AcDbEntity
  8
Path
 62
7
100
AcDbSpline
 70
8
 71
3
 72
8
 73
4
 74
0
 40
0
 40
0
 40
0
 40
0
 40
1
 40
1
 40
1
 40
1
 10
63.976226
 20
45.373740
 30
0.0
 10
63.713778
 20
45.499001
 30
0.0
 10
63.624817
 20
45.524698
 30
0.0
 10
63.463170
 20
45.521946
 30
0.0
  0
SPLINE
  5
24b
100
AcDbEntity
  8
Path
 62
7
100
AcDbSpline
 70
8
 71
3
 72
8
 73
4
 74
0
 40
0
 40
0
 40
0
 40
0
 40
1
 40
1
 40
1
 40
1
 10
63.463170
 20
45.521946
 30
0.0
 10
63.241370
 20
45.518163
 30
0.0
 10
63.137177
 20
45.473837
 30
0.0
 10
63.054862
 20
45.348213
 30
0.0
  0
SPLINE
  5
24c
100
AcDbEntity
  8
Path
 62
7
100
AcDbSpline
 70
8
 71
3
 72
8
 73
4
 74
0
 40
0
 40
0
 40
0
 40
0
 40
1
 40
1
 40
1
 40
1
 10
63.054862
 20
45.348213
 30
0.0
 10
63.000771
 20
45.265660
 30
0.0
 10
63.003068
 20
45.250629
 30
0.0
 10
63.098960
 20
45.059166
 30
0.0
  0
SPLINE
  5
24d
100
AcDbEntity
  8
Path
 62
7
100
AcDbSpline
 70
8
 71
3
 72
8
 73
4
 74
0
 40
0
 40
0
 40
0
 40
0
 40
1
 40
1
 40
1
 40
1
 10
63.098960
 20
45.059166
 30
0.0
 10
63.154597
 20
44.948083
 30
0.0
 10
63.293548
 20
44.745733
 30
0.0
 10
63.407745
 20
44.609501
 30
0.0
  0
SPLINE
  5
24e
100
AcDbEntity
  8
Path
 62
7
100
AcDbSpline
 70
8
 71
3
 72
8
 73
4
 74
0
 40
0
 40
0
 40
0
 40
0
 40
1
 40
1
 40
1
 40
1
 10
63.407745
 20
44.609501
 30
0.0
 10
63.641811
 20
44.330271
 30
0.0
 10
63.700454
 20
44.212957
 30
0.0
 10
63.749142
 20
43.926543
 30
0.0
  0
SPLINE
  5
24f
100
AcDbEntity
  8
Path
 62
7
100
AcDbSpline
 70
8
 71
3
 72
8
 73
4
 74
0
 40
0
 40
0
 40
0
 40
0
 40
1
 40
1
 40
1
 40
1
 10
63.749142
 20
43.926543
 30
0.0
 10
63.767822
 20
43.816685
 30
0.0
 10
63.798767
 20
43.667273
 30
0.0
 10
63.817923
 20
43.594512
 30
0.0
  0
SPLINE
  5
250
100
AcDbEntity
  8
Path
 62
7
100
AcDbSpline
 70
8
 71
3
 72
8
 73
4
 74
0
 40
0
 40
0
 40
0
 40
0
 40
1
 40
1
 40
1
 40
1
 10
63.817923
 20
43.594512
 30
0.0
 10
63.837079
 20
43.521752
 30
0.0
 10
63.868464
 20
43.402689
 30
0.0
 10
63.887662
 20
43.329929
 30
0.0
  0
SPLINE
  5
251
100
AcDbEntity
  8
Path
 62
7
100
AcDbSpline
 70
8
 71
3
 72
8
 73
4
 74
0
 40
0
 40
0
 40
0
 40
0
 40
1
 40
1
 40
1
 40
1
 10
63.887662
 20
43.329929
 30
0.0
 10
63.906871
 20
43.257168
 30
0.0
 10
63.962619
 20
43.054762
 30
0.0
 10
64.011577
 20
42.880137
 30
0.0
  0
SPLINE
  5
252
100
AcDbEntity
  8
Path
 62
7
100
AcDbSpline
 70
8
 71
3
 72
8
 73
4
 74
0
 40
0
 40
0
 40
0
 40
0
 40
1
 40
1
 40
1
 40
1
 10
64.011577
 20
42.880137
 30
0.0
 10
64.180926
 20
42.276072
 30
0.0
 10
64.275219
 20
41.686284
 30
0.0
 10
64.310406
 20
41.011046
 30
0.0
  0
SPLINE
  5
253
100
AcDbEntity
  8
Path
 62
7
100
AcDbSpline
 70
8
 71
3
 72
8
 73
4
 74
0
 40
0
 40
0
 40
0
 40
0
 40
1
 40
1
 40
1
 40
1
 10
64.310406
 20
41.011046
 30
0.0
 10
64.347341
 20
40.302138
 30
0.0
 10
64.365725
 20
40.181387
 30
0.0
 10
64.436720
 20
40.181387
 30
0.0
  0
SPLINE
  5
254
100
AcDbEntity
  8
Path
 62
7
100
AcDbSpline
 70
8
 71
3
 72
8
 73
4
 74
0
 40
0
 40
0
 40
0
 40
0
 40
1
 40
1
 40
1
 40
1
 10
64.436720
 20
40.181387
 30
0.0
 10
64.499802
 20
40.181387
 30
0.0
 10
64.782144
 20
39.877854
 30
0.0
 10
64.808640
 20
39.781554
 30
0.0
  0
SPLINE
  5
255
100
AcDbEntity
  8
Path
 62
7
100
AcDbSpline
 70
8
 71
3
 72
8
 73
4
 74
0
 40
0
 40
0
 40
0
 40
0
 40
1
 40
1
 40
1
 40
1
 10
64.808640
 20
39.781554
 30
0.0
 10
64.830309
 20
39.702788
 30
0.0
 10
64.685426
 20
37.240422
 30
0.0
 10
64.644310
 20
36.988750
 30
0.0
  0
SPLINE
  5
256
100
AcDbEntity
  8
Path
 62
7
100
AcDbSpline
 70
8
 71
3
 72
8
 73
4
 74
0
 40
0
 40
0
 40
0
 40
0
 40
1
 40
1
 40
1
 40
1
 10
64.644310
 20
36.988750
 30
0.0
 10
64.607757
 20
36.765008
 30
0.0
 10
64.523742
 20
36.452561
 30
0.0
 10
64.436953
 20
36.217640
 30
0.0
  0
SPLINE
  5
257
100
AcDbEntity
  8
Path
 62
7
100
AcDbSpline
 70
8
 71
3
 72
8
 73
4
 74
0
 40
0
 40
0
 40
0
 40
0
 40
1
 40
1
 40
1
 40
1
 10
64.436953
 20
36.217640
 30
0.0
 10
64.392932
 20
36.098472
 30
0.0
 10
64.336131
 20
35.875875
 30
0.0
 10
64.310726
 20
35.722983
 30
0.0
  0
SPLINE
  5
258
100
AcDbEntity
  8
Path
 62
7
100
AcDbSpline
 70
8
 71
3
 72
8
 73
4
 74
0
 40
0
 40
0
 40
0
 40
0
 40
1
 40
1
 40
1
 40
1
 10
64.310726
 20
35.722983
 30
0.0
 10
64.270821
 20
35.482808
 30
0.0
 10
64.247329
 20
35.427216
 30
0.0
 10
64.138022
 20
35.314287
 30
0.0
  0
SPLINE
  5
259
100
AcDbEntity
  8
Path
 62
7
100
AcDbSpline
 70
8
 71
3
 72
8
 73
4
 74
0
 40
0
 40
0
 40
0
 40
0
 40
1
 40
1
 40
1
 40
1
 10
64.138022
 20
35.314287
 30
0.0
 10
64.005957
 20
35.177849
 30
0.0
 10
63.986706
 20
35.172560
 30
0.0
 10
63.164836
 20
35.046986
 30
0.0
  0
SPLINE
  5
25a
100
AcDbEntity
  8
Path
 62
7
100
AcDbSpline
 70
8
 71
3
 72
8
 73
4
 74
0
 40
0
 40
0
 40
0
 40
0
 40
1
 40
1
 40
1
 40
1
 10
63.164836
 20
35.046986
 30
0.0
 10
63.032174
 20
35.026719
 30
0.0
 10
62.890606
 20
34.904400
 30
0.0
 10
62.839907
 20
34.766250
 30
0.0
  0
SPLINE
  5
25b
100
AcDbEntity
  8
Path
 62
7
100
AcDbSpline
 70
8
 71
3
 72
8
 73
4
 74
0
 40
0
 40
0
 40
0
 40
0
 40
1
 40
1
 40
1
 40
1
 10
62.839907
 20
34.766250
 30
0.0
 10
62.818555
 20
34.708042
 30
0.0
 10
62.782847
 20
34.358792
 30
0.0
 10
62.760572
 20
33.990137
 30
0.0
  0
SPLINE
  5
25c
100
AcDbEntity
  8
Path
 62
7
100
AcDbSpline
 70
8
 71
3
 72
8
 73
4
 74
0
 40
0
 40
0
 40
0
 40
0
 40
1
 40
1
 40
1
 40
1
 10
62.760572
 20
33.990137
 30
0.0
 10
62.683729
 20
32.718322
 30
0.0
 10
62.651397
 20
32.407722
 30
0.0
 10
62.588389
 20
32.335920
 30
0.0
  0
SPLINE
  5
25d
100
AcDbEntity
  8
Path
 62
7
100
AcDbSpline
 70
8
 71
3
 72
8
 73
4
 74
0
 40
0
 40
0
 40
0
 40
0
 40
1
 40
1
 40
1
 40
1
 10
62.588389
 20
32.335920
 30
0.0
 10
62.366618
 20
32.083211
 30
0.0
 10
61.637418
 20
32.067619
 30
0.0
 10
61.404622
 20
32.310599
 30
0.0
  0
LWPOLYLINE
  5
25e
100
AcDbEntity
  8
Path
 62
7
100
AcDbPolyline
 90
3
 70
0
 10
50.623544
 20
70.546510
 30
0.0
 10
50.557427
 20
70.308160
 30
0.0
 10
50.652254
 20
70.260274
 30
0.0
  0
SPLINE
  5
25f
100
AcDbEntity
  8
Path
 62
7
100
AcDbSpline
 70
8
 71
3
 72
8
 73
4
 74
0
 40
0
 40
0
 40
0
 40
0
 40
1
 40
1
 40
1
 40
1
 10
61.347144
 20
32.849608
 30
0.0
 10
61.365770
 20
33.093623
 30
0.0
 10
61.397854
 20
33.368456
 30
0.0
 10
61.418449
 20
33.460341
 30
0.0
  0
SPLINE
  5
260
100
AcDbEntity
  8
Path
 62
7
100
AcDbSpline
 70
8
 71
3
 72
8
 73
4
 74
0
 40
0
 40
0
 40
0
 40
0
 40
1
 40
1
 40
1
 40
1
 10
61.418449
 20
33.460341
 30
0.0
 10
61.439033
 20
33.552225
 30
0.0
 10
61.480983
 20
33.883642
 30
0.0
 10
61.511656
 20
34.196819
 30
0.0
  0
SPLINE
  5
261
100
AcDbEntity
  8
Path
 62
7
100
AcDbSpline
 70
8
 71
3
 72
8
 73
4
 74
0
 40
0
 40
0
 40
0
 40
0
 40
1
 40
1
 40
1
 40
1
 10
61.511656
 20
34.196819
 30
0.0
 10
61.542332
 20
34.510001
 30
0.0
 10
61.574953
 20
34.838600
 30
0.0
 10
61.584149
 20
34.927043
 30
0.0
  0
SPLINE
  5
262
100
AcDbEntity
  8
Path
 62
7
100
AcDbSpline
 70
8
 71
3
 72
8
 73
4
 74
0
 40
0
 40
0
 40
0
 40
0
 40
1
 40
1
 40
1
 40
1
 10
61.584149
 20
34.927043
 30
0.0
 10
61.605025
 20
35.127803
 30
0.0
 10
61.583356
 20
35.146956
 30
0.0
 10
61.214661
 20
35.253750
 30
0.0
  0
SPLINE
  5
263
100
AcDbEntity
  8
Path
 62
7
100
AcDbSpline
 70
8
 71
3
 72
8
 73
4
 74
0
 40
0
 40
0
 40
0
 40
0
 40
1
 40
1
 40
1
 40
1
 10
61.214661
 20
35.253750
 30
0.0
 10
60.778221
 20
35.380160
 30
0.0
 10
60.585337
 20
35.540638
 30
0.0
 10
60.534285
 20
35.819816
 30
0.0
  0
SPLINE
  5
264
100
AcDbEntity
  8
Path
 62
7
100
AcDbSpline
 70
8
 71
3
 72
8
 73
4
 74
0
 40
0
 40
0
 40
0
 40
0
 40
1
 40
1
 40
1
 40
1
 10
60.534285
 20
35.819816
 30
0.0
 10
60.508780
 20
35.959272
 30
0.0
 10
60.538095
 20
36.366000
 30
0.0
 10
60.607062
 20
36.829989
 30
0.0
  0
SPLINE
  5
265
100
AcDbEntity
  8
Path
 62
7
100
AcDbSpline
 70
8
 71
3
 72
8
 73
4
 74
0
 40
0
 40
0
 40
0
 40
0
 40
1
 40
1
 40
1
 40
1
 10
60.607062
 20
36.829989
 30
0.0
 10
60.625821
 20
36.956106
 30
0.0
 10
60.656311
 20
37.543481
 30
0.0
 10
60.674851
 20
38.135266
 30
0.0
  0
SPLINE
  5
266
100
AcDbEntity
  8
Path
 62
7
100
AcDbSpline
 70
8
 71
3
 72
8
 73
4
 74
0
 40
0
 40
0
 40
0
 40
0
 40
1
 40
1
 40
1
 40
1
 10
60.674851
 20
38.135266
 30
0.0
 10
60.706897
 20
39.158463
 30
0.0
 10
60.742076
 20
39.503511
 30
0.0
 10
60.831905
 20
39.675763
 30
0.0
  0
SPLINE
  5
267
100
AcDbEntity
  8
Path
 62
7
100
AcDbSpline
 70
8
 71
3
 72
8
 73
4
 74
0
 40
0
 40
0
 40
0
 40
0
 40
1
 40
1
 40
1
 40
1
 10
60.831905
 20
39.675763
 30
0.0
 10
60.853839
 20
39.717821
 30
0.0
 10
61.004807
 20
39.889912
 30
0.0
 10
61.167399
 20
40.058187
 30
0.0
  0
LWPOLYLINE
  5
268
100
AcDbEntity
  8
Path
 62
7
100
AcDbPolyline
 90
3
 70
0
 10
61.404622
 20
32.310599
 30
0.0
 10
61.313280
 20
32.405939
 30
0.0
 10
61.347144
 20
32.849608
 30
0.0
  0
SPLINE
  5
269
100
AcDbEntity
  8
Path
 62
7
100
AcDbSpline
 70
8
 71
3
 72
8
 73
4
 74
0
 40
0
 40
0
 40
0
 40
0
 40
1
 40
1
 40
1
 40
1
 10
61.440841
 20
40.581442
 30
0.0
 10
61.428643
 20
40.700955
 30
0.0
 10
61.404098
 20
40.941614
 30
0.0
 10
61.386273
 20
41.116239
 30
0.0
  0
SPLINE
  5
26a
100
AcDbEntity
  8
Path
 62
7
100
AcDbSpline
 70
8
 71
3
 72
8
 73
4
 74
0
 40
0
 40
0
 40
0
 40
0
 40
1
 40
1
 40
1
 40
1
 10
61.386273
 20
41.116239
 30
0.0
 10
61.285019
 20
42.108295
 30
0.0
 10
61.199064
 20
42.818709
 30
0.0
 10
61.172331
 20
42.884537
 30
0.0
  0
SPLINE
  5
26b
100
AcDbEntity
  8
Path
 62
7
100
AcDbSpline
 70
8
 71
3
 72
8
 73
4
 74
0
 40
0
 40
0
 40
0
 40
0
 40
1
 40
1
 40
1
 40
1
 10
61.172331
 20
42.884537
 30
0.0
 10
61.136689
 20
42.972294
 30
0.0
 10
60.948512
 20
43.012884
 30
0.0
 10
60.829190
 20
42.958554
 30
0.0
  0
SPLINE
  5
26c
100
AcDbEntity
  8
Path
 62
7
100
AcDbSpline
 70
8
 71
3
 72
8
 73
4
 74
0
 40
0
 40
0
 40
0
 40
0
 40
1
 40
1
 40
1
 40
1
 10
60.829190
 20
42.958554
 30
0.0
 10
60.786367
 20
42.939055
 30
0.0
 10
60.603805
 20
42.748285
 30
0.0
 10
60.423496
 20
42.534623
 30
0.0
  0
SPLINE
  5
26d
100
AcDbEntity
  8
Path
 62
7
100
AcDbSpline
 70
8
 71
3
 72
8
 73
4
 74
0
 40
0
 40
0
 40
0
 40
0
 40
1
 40
1
 40
1
 40
1
 10
60.423496
 20
42.534623
 30
0.0
 10
60.163633
 20
42.226690
 30
0.0
 10
60.030992
 20
42.103466
 30
0.0
 10
59.783766
 20
41.940295
 30
0.0
  0
SPLINE
  5
26e
100
AcDbEntity
  8
Path
 62
7
100
AcDbSpline
 70
8
 71
3
 72
8
 73
4
 74
0
 40
0
 40
0
 40
0
 40
0
 40
1
 40
1
 40
1
 40
1
 10
59.783766
 20
41.940295
 30
0.0
 10
59.606439
 20
41.823262
 30
0.0
 10
59.372696
 20
41.703818
 30
0.0
 10
59.242002
 20
41.663451
 30
0.0
  0
SPLINE
  5
26f
100
AcDbEntity
  8
Path
 62
7
100
AcDbSpline
 70
8
 71
3
 72
8
 73
4
 74
0
 40
0
 40
0
 40
0
 40
0
 40
1
 40
1
 40
1
 40
1
 10
59.242002
 20
41.663451
 30
0.0
 10
59.098937
 20
41.619260
 30
0.0
 10
58.925322
 20
41.527439
 30
0.0
 10
58.782244
 20
41.420288
 30
0.0
  0
SPLINE
  5
270
100
AcDbEntity
  8
Path
 62
7
100
AcDbSpline
 70
8
 71
3
 72
8
 73
4
 74
0
 40
0
 40
0
 40
0
 40
0
 40
1
 40
1
 40
1
 40
1
 10
58.782244
 20
41.420288
 30
0.0
 10
58.655805
 20
41.325599
 30
0.0
 10
58.486850
 20
41.227412
 30
0.0
 10
58.406787
 20
41.202094
 30
0.0
  0
SPLINE
  5
271
100
AcDbEntity
  8
Path
 62
7
100
AcDbSpline
 70
8
 71
3
 72
8
 73
4
 74
0
 40
0
 40
0
 40
0
 40
0
 40
1
 40
1
 40
1
 40
1
 10
58.406787
 20
41.202094
 30
0.0
 10
58.239401
 20
41.149167
 30
0.0
 10
57.405482
 20
40.795146
 30
0.0
 10
57.326355
 20
40.743423
 30
0.0
  0
SPLINE
  5
272
100
AcDbEntity
  8
Path
 62
7
100
AcDbSpline
 70
8
 71
3
 72
8
 73
4
 74
0
 40
0
 40
0
 40
0
 40
0
 40
1
 40
1
 40
1
 40
1
 10
57.326355
 20
40.743423
 30
0.0
 10
57.153736
 20
40.630591
 30
0.0
 10
56.866377
 20
40.530275
 30
0.0
 10
56.579082
 20
40.482557
 30
0.0
  0
SPLINE
  5
273
100
AcDbEntity
  8
Path
 62
7
100
AcDbSpline
 70
8
 71
3
 72
8
 73
4
 74
0
 40
0
 40
0
 40
0
 40
0
 40
1
 40
1
 40
1
 40
1
 10
56.579082
 20
40.482557
 30
0.0
 10
56.398298
 20
40.452532
 30
0.0
 10
56.197325
 20
40.419115
 30
0.0
 10
56.132473
 20
40.408294
 30
0.0
  0
SPLINE
  5
274
100
AcDbEntity
  8
Path
 62
7
100
AcDbSpline
 70
8
 71
3
 72
8
 73
4
 74
0
 40
0
 40
0
 40
0
 40
0
 40
1
 40
1
 40
1
 40
1
 10
56.132473
 20
40.408294
 30
0.0
 10
56.015139
 20
40.388715
 30
0.0
 10
56.014652
 20
40.387815
 30
0.0
 10
56.032146
 20
40.223265
 30
0.0
  0
SPLINE
  5
275
100
AcDbEntity
  8
Path
 62
7
100
AcDbSpline
 70
8
 71
3
 72
8
 73
4
 74
0
 40
0
 40
0
 40
0
 40
0
 40
1
 40
1
 40
1
 40
1
 10
56.032146
 20
40.223265
 30
0.0
 10
56.050667
 20
40.049212
 30
0.0
 10
56.131010
 20
39.238793
 30
0.0
 10
56.214190
 20
38.387330
 30
0.0
  0
SPLINE
  5
276
100
AcDbEntity
  8
Path
 62
7
100
AcDbSpline
 70
8
 71
3
 72
8
 73
4
 74
0
 40
0
 40
0
 40
0
 40
0
 40
1
 40
1
 40
1
 40
1
 10
56.214190
 20
38.387330
 30
0.0
 10
56.241400
 20
38.108805
 30
0.0
 10
56.271689
 20
37.872892
 30
0.0
 10
56.281505
 20
37.863076
 30
0.0
  0
SPLINE
  5
277
100
AcDbEntity
  8
Path
 62
7
100
AcDbSpline
 70
8
 71
3
 72
8
 73
4
 74
0
 40
0
 40
0
 40
0
 40
0
 40
1
 40
1
 40
1
 40
1
 10
56.281505
 20
37.863076
 30
0.0
 10
56.291321
 20
37.853260
 30
0.0
 10
56.398570
 20
37.878740
 30
0.0
 10
56.519842
 20
37.919694
 30
0.0
  0
SPLINE
  5
278
100
AcDbEntity
  8
Path
 62
7
100
AcDbSpline
 70
8
 71
3
 72
8
 73
4
 74
0
 40
0
 40
0
 40
0
 40
0
 40
1
 40
1
 40
1
 40
1
 10
56.519842
 20
37.919694
 30
0.0
 10
56.806550
 20
38.016519
 30
0.0
 10
56.848539
 20
38.014182
 30
0.0
 10
57.079409
 20
37.888582
 30
0.0
  0
SPLINE
  5
279
100
AcDbEntity
  8
Path
 62
7
100
AcDbSpline
 70
8
 71
3
 72
8
 73
4
 74
0
 40
0
 40
0
 40
0
 40
0
 40
1
 40
1
 40
1
 40
1
 10
57.079409
 20
37.888582
 30
0.0
 10
57.186126
 20
37.830527
 30
0.0
 10
57.327776
 20
37.755981
 30
0.0
 10
57.394195
 20
37.722926
 30
0.0
  0
SPLINE
  5
27a
100
AcDbEntity
  8
Path
 62
7
100
AcDbSpline
 70
8
 71
3
 72
8
 73
4
 74
0
 40
0
 40
0
 40
0
 40
0
 40
1
 40
1
 40
1
 40
1
 10
57.394195
 20
37.722926
 30
0.0
 10
57.693941
 20
37.573738
 30
0.0
 10
58.311658
 20
36.841562
 30
0.0
 10
58.491252
 20
36.422595
 30
0.0
  0
SPLINE
  5
27b
100
AcDbEntity
  8
Path
 62
7
100
AcDbSpline
 70
8
 71
3
 72
8
 73
4
 74
0
 40
0
 40
0
 40
0
 40
0
 40
1
 40
1
 40
1
 40
1
 10
58.491252
 20
36.422595
 30
0.0
 10
58.600726
 20
36.167198
 30
0.0
 10
58.788602
 20
35.393217
 30
0.0
 10
58.826188
 20
35.042763
 30
0.0
  0
SPLINE
  5
27c
100
AcDbEntity
  8
Path
 62
7
100
AcDbSpline
 70
8
 71
3
 72
8
 73
4
 74
0
 40
0
 40
0
 40
0
 40
0
 40
1
 40
1
 40
1
 40
1
 10
58.826188
 20
35.042763
 30
0.0
 10
58.856613
 20
34.759101
 30
0.0
 10
58.785109
 20
33.835226
 30
0.0
 10
58.699241
 20
33.402524
 30
0.0
  0
SPLINE
  5
27d
100
AcDbEntity
  8
Path
 62
7
100
AcDbSpline
 70
8
 71
3
 72
8
 73
4
 74
0
 40
0
 40
0
 40
0
 40
0
 40
1
 40
1
 40
1
 40
1
 10
58.699241
 20
33.402524
 30
0.0
 10
58.515329
 20
32.475742
 30
0.0
 10
57.992312
 20
31.836270
 30
0.0
 10
56.833143
 20
31.120927
 30
0.0
  0
SPLINE
  5
27e
100
AcDbEntity
  8
Path
 62
7
100
AcDbSpline
 70
8
 71
3
 72
8
 73
4
 74
0
 40
0
 40
0
 40
0
 40
0
 40
1
 40
1
 40
1
 40
1
 10
56.833143
 20
31.120927
 30
0.0
 10
56.670985
 20
31.020856
 30
0.0
 10
56.585522
 20
30.945619
 30
0.0
 10
56.585522
 20
30.902934
 30
0.0
  0
SPLINE
  5
27f
100
AcDbEntity
  8
Path
 62
7
100
AcDbSpline
 70
8
 71
3
 72
8
 73
4
 74
0
 40
0
 40
0
 40
0
 40
0
 40
1
 40
1
 40
1
 40
1
 10
56.585522
 20
30.902934
 30
0.0
 10
56.585522
 20
30.798103
 30
0.0
 10
56.859503
 20
30.415508
 30
0.0
 10
56.978725
 20
30.353852
 30
0.0
  0
SPLINE
  5
280
100
AcDbEntity
  8
Path
 62
7
100
AcDbSpline
 70
8
 71
3
 72
8
 73
4
 74
0
 40
0
 40
0
 40
0
 40
0
 40
1
 40
1
 40
1
 40
1
 10
56.978725
 20
30.353852
 30
0.0
 10
57.038864
 20
30.322755
 30
0.0
 10
57.308935
 20
30.104255
 30
0.0
 10
57.578876
 20
29.868305
 30
0.0
  0
SPLINE
  5
281
100
AcDbEntity
  8
Path
 62
7
100
AcDbSpline
 70
8
 71
3
 72
8
 73
4
 74
0
 40
0
 40
0
 40
0
 40
0
 40
1
 40
1
 40
1
 40
1
 10
57.578876
 20
29.868305
 30
0.0
 10
57.991624
 20
29.507524
 30
0.0
 10
58.101262
 20
29.389538
 30
0.0
 10
58.268251
 20
29.126445
 30
0.0
  0
SPLINE
  5
282
100
AcDbEntity
  8
Path
 62
7
100
AcDbSpline
 70
8
 71
3
 72
8
 73
4
 74
0
 40
0
 40
0
 40
0
 40
0
 40
1
 40
1
 40
1
 40
1
 10
58.268251
 20
29.126445
 30
0.0
 10
58.377460
 20
28.954375
 30
0.0
 10
58.506273
 20
28.716250
 30
0.0
 10
58.554501
 20
28.597278
 30
0.0
  0
LWPOLYLINE
  5
283
100
AcDbEntity
  8
Path
 62
7
100
AcDbPolyline
 90
3
 70
0
 10
61.167399
 20
40.058187
 30
0.0
 10
61.463013
 20
40.364145
 30
0.0
 10
61.440841
 20
40.581442
 30
0.0
  0
SPLINE
  5
284
100
AcDbEntity
  8
Path
 62
7
100
AcDbSpline
 70
8
 71
3
 72
8
 73
4
 74
0
 40
0
 40
0
 40
0
 40
0
 40
1
 40
1
 40
1
 40
1
 10
58.611206
 20
26.952210
 30
0.0
 10
58.572165
 20
25.152006
 30
0.0
 10
58.576440
 20
24.576217
 30
0.0
 10
58.634278
 20
23.847766
 30
0.0
  0
SPLINE
  5
285
100
AcDbEntity
  8
Path
 62
7
100
AcDbSpline
 70
8
 71
3
 72
8
 73
4
 74
0
 40
0
 40
0
 40
0
 40
0
 40
1
 40
1
 40
1
 40
1
 10
58.634278
 20
23.847766
 30
0.0
 10
58.676267
 20
23.318782
 30
0.0
 10
58.684562
 20
22.905574
 30
0.0
 10
58.695526
 20
20.796239
 30
0.0
  0
SPLINE
  5
286
100
AcDbEntity
  8
Path
 62
7
100
AcDbSpline
 70
8
 71
3
 72
8
 73
4
 74
0
 40
0
 40
0
 40
0
 40
0
 40
1
 40
1
 40
1
 40
1
 10
58.695526
 20
20.796239
 30
0.0
 10
58.702697
 20
19.419417
 30
0.0
 10
58.628854
 20
18.824332
 30
0.0
 10
58.383829
 20
18.283941
 30
0.0
  0
SPLINE
  5
287
100
AcDbEntity
  8
Path
 62
7
100
AcDbSpline
 70
8
 71
3
 72
8
 73
4
 74
0
 40
0
 40
0
 40
0
 40
0
 40
1
 40
1
 40
1
 40
1
 10
58.383829
 20
18.283941
 30
0.0
 10
58.326102
 20
18.156621
 30
0.0
 10
58.278869
 20
18.005420
 30
0.0
 10
58.278869
 20
17.947939
 30
0.0
  0
SPLINE
  5
288
100
AcDbEntity
  8
Path
 62
7
100
AcDbSpline
 70
8
 71
3
 72
8
 73
4
 74
0
 40
0
 40
0
 40
0
 40
0
 40
1
 40
1
 40
1
 40
1
 10
58.278869
 20
17.947939
 30
0.0
 10
58.278869
 20
17.890458
 30
0.0
 10
58.341464
 20
17.364808
 30
0.0
 10
58.417976
 20
16.779833
 30
0.0
  0
SPLINE
  5
289
100
AcDbEntity
  8
Path
 62
7
100
AcDbSpline
 70
8
 71
3
 72
8
 73
4
 74
0
 40
0
 40
0
 40
0
 40
0
 40
1
 40
1
 40
1
 40
1
 10
58.417976
 20
16.779833
 30
0.0
 10
58.583076
 20
15.517498
 30
0.0
 10
58.609487
 20
15.273504
 30
0.0
 10
58.701117
 20
14.164016
 30
0.0
  0
SPLINE
  5
28a
100
AcDbEntity
  8
Path
 62
7
100
AcDbSpline
 70
8
 71
3
 72
8
 73
4
 74
0
 40
0
 40
0
 40
0
 40
0
 40
1
 40
1
 40
1
 40
1
 10
58.701117
 20
14.164016
 30
0.0
 10
58.739577
 20
13.698350
 30
0.0
 10
58.787305
 20
13.231842
 30
0.0
 10
58.807178
 20
13.127326
 30
0.0
  0
SPLINE
  5
28b
100
AcDbEntity
  8
Path
 62
7
100
AcDbSpline
 70
8
 71
3
 72
8
 73
4
 74
0
 40
0
 40
0
 40
0
 40
0
 40
1
 40
1
 40
1
 40
1
 10
58.807178
 20
13.127326
 30
0.0
 10
58.827048
 20
13.022813
 30
0.0
 10
58.843312
 20
12.576164
 30
0.0
 10
58.843312
 20
12.134768
 30
0.0
  0
SPLINE
  5
28c
100
AcDbEntity
  8
Path
 62
7
100
AcDbSpline
 70
8
 71
3
 72
8
 73
4
 74
0
 40
0
 40
0
 40
0
 40
0
 40
1
 40
1
 40
1
 40
1
 10
58.843312
 20
12.134768
 30
0.0
 10
58.843312
 20
11.459157
 30
0.0
 10
58.859981
 20
11.196301
 30
0.0
 10
58.948698
 20
10.472708
 30
0.0
  0
SPLINE
  5
28d
100
AcDbEntity
  8
Path
 62
7
100
AcDbSpline
 70
8
 71
3
 72
8
 73
4
 74
0
 40
0
 40
0
 40
0
 40
0
 40
1
 40
1
 40
1
 40
1
 10
58.948698
 20
10.472708
 30
0.0
 10
59.119326
 20
9.081082
 30
0.0
 10
59.104003
 20
9.157470
 30
0.0
 10
59.261364
 20
8.913950
 30
0.0
  0
SPLINE
  5
28e
100
AcDbEntity
  8
Path
 62
7
100
AcDbSpline
 70
8
 71
3
 72
8
 73
4
 74
0
 40
0
 40
0
 40
0
 40
0
 40
1
 40
1
 40
1
 40
1
 10
59.261364
 20
8.913950
 30
0.0
 10
59.401956
 20
8.696381
 30
0.0
 10
59.725256
 20
8.086643
 30
0.0
 10
59.725256
 20
8.039060
 30
0.0
  0
SPLINE
  5
28f
100
AcDbEntity
  8
Path
 62
7
100
AcDbSpline
 70
8
 71
3
 72
8
 73
4
 74
0
 40
0
 40
0
 40
0
 40
0
 40
1
 40
1
 40
1
 40
1
 10
59.725256
 20
8.039060
 30
0.0
 10
59.725256
 20
7.984427
 30
0.0
 10
60.122226
 20
7.323442
 30
0.0
 10
60.506610
 20
6.738046
 30
0.0
  0
SPLINE
  5
290
100
AcDbEntity
  8
Path
 62
7
100
AcDbSpline
 70
8
 71
3
 72
8
 73
4
 74
0
 40
0
 40
0
 40
0
 40
0
 40
1
 40
1
 40
1
 40
1
 10
60.506610
 20
6.738046
 30
0.0
 10
60.729566
 20
6.398495
 30
0.0
 10
61.002347
 20
5.961933
 30
0.0
 10
61.112792
 20
5.767906
 30
0.0
  0
SPLINE
  5
291
100
AcDbEntity
  8
Path
 62
7
100
AcDbSpline
 70
8
 71
3
 72
8
 73
4
 74
0
 40
0
 40
0
 40
0
 40
0
 40
1
 40
1
 40
1
 40
1
 10
61.112792
 20
5.767906
 30
0.0
 10
61.323029
 20
5.398561
 30
0.0
 10
61.539120
 20
5.082106
 30
0.0
 10
61.807566
 20
4.750438
 30
0.0
  0
SPLINE
  5
292
100
AcDbEntity
  8
Path
 62
7
100
AcDbSpline
 70
8
 71
3
 72
8
 73
4
 74
0
 40
0
 40
0
 40
0
 40
0
 40
1
 40
1
 40
1
 40
1
 10
61.807566
 20
4.750438
 30
0.0
 10
61.895387
 20
4.641937
 30
0.0
 10
62.066360
 20
4.358166
 30
0.0
 10
62.187516
 20
4.119840
 30
0.0
  0
SPLINE
  5
293
100
AcDbEntity
  8
Path
 62
7
100
AcDbSpline
 70
8
 71
3
 72
8
 73
4
 74
0
 40
0
 40
0
 40
0
 40
0
 40
1
 40
1
 40
1
 40
1
 10
62.187516
 20
4.119840
 30
0.0
 10
62.321387
 20
3.856493
 30
0.0
 10
62.471088
 20
3.618981
 30
0.0
 10
62.569153
 20
3.514347
 30
0.0
  0
SPLINE
  5
294
100
AcDbEntity
  8
Path
 62
7
100
AcDbSpline
 70
8
 71
3
 72
8
 73
4
 74
0
 40
0
 40
0
 40
0
 40
0
 40
1
 40
1
 40
1
 40
1
 10
62.569153
 20
3.514347
 30
0.0
 10
62.754915
 20
3.316139
 30
0.0
 10
62.755185
 20
3.310930
 30
0.0
 10
62.605272
 20
2.812860
 30
0.0
  0
SPLINE
  5
295
100
AcDbEntity
  8
Path
 62
7
100
AcDbSpline
 70
8
 71
3
 72
8
 73
4
 74
0
 40
0
 40
0
 40
0
 40
0
 40
1
 40
1
 40
1
 40
1
 10
62.605272
 20
2.812860
 30
0.0
 10
62.554083
 20
2.642793
 30
0.0
 10
62.512202
 20
2.483104
 30
0.0
 10
62.512202
 20
2.457998
 30
0.0
  0
SPLINE
  5
296
100
AcDbEntity
  8
Path
 62
7
100
AcDbSpline
 70
8
 71
3
 72
8
 73
4
 74
0
 40
0
 40
0
 40
0
 40
0
 40
1
 40
1
 40
1
 40
1
 10
62.512202
 20
2.457998
 30
0.0
 10
62.512202
 20
2.432889
 30
0.0
 10
62.436796
 20
2.386624
 30
0.0
 10
62.344631
 20
2.355186
 30
0.0
  0
SPLINE
  5
297
100
AcDbEntity
  8
Path
 62
7
100
AcDbSpline
 70
8
 71
3
 72
8
 73
4
 74
0
 40
0
 40
0
 40
0
 40
0
 40
1
 40
1
 40
1
 40
1
 10
62.344631
 20
2.355186
 30
0.0
 10
62.252468
 20
2.323748
 30
0.0
 10
62.073875
 20
2.258946
 30
0.0
 10
61.947756
 20
2.211178
 30
0.0
  0
LWPOLYLINE
  5
298
100
AcDbEntity
  8
Path
 62
7
100
AcDbPolyline
 90
3
 70
0
 10
58.554501
 20
28.597278
 30
0.0
 10
58.642192
 20
28.380960
 30
0.0
 10
58.611206
 20
26.952210
 30
0.0
  0
SPLINE
  5
299
100
AcDbEntity
  8
Path
 62
7
100
AcDbSpline
 70
8
 71
3
 72
8
 73
4
 74
0
 40
0
 40
0
 40
0
 40
0
 40
1
 40
1
 40
1
 40
1
 10
58.349422
 20
2.128168
 30
0.0
 10
56.496458
 20
2.130285
 30
0.0
 10
54.940708
 20
2.135418
 30
0.0
 10
54.892202
 20
2.139572
 30
0.0
  0
LWPOLYLINE
  5
29a
100
AcDbEntity
  8
Path
 62
7
100
AcDbPolyline
 90
3
 70
0
 10
61.947756
 20
2.211178
 30
0.0
 10
61.718452
 20
2.124332
 30
0.0
 10
58.349422
 20
2.128168
 30
0.0
  0
SPLINE
  5
29b
100
AcDbEntity
  8
Path
 62
7
100
AcDbSpline
 70
8
 71
3
 72
8
 73
4
 74
0
 40
0
 40
0
 40
0
 40
0
 40
1
 40
1
 40
1
 40
1
 10
22.948194
 20
34.928889
 30
0.0
 10
23.161625
 20
34.967143
 30
0.0
 10
23.455679
 20
35.037586
 30
0.0
 10
23.601647
 20
35.085425
 30
0.0
  0
SPLINE
  5
29c
100
AcDbEntity
  8
Path
 62
7
100
AcDbSpline
 70
8
 71
3
 72
8
 73
4
 74
0
 40
0
 40
0
 40
0
 40
0
 40
1
 40
1
 40
1
 40
1
 10
23.601647
 20
35.085425
 30
0.0
 10
23.885476
 20
35.178444
 30
0.0
 10
24.262798
 20
35.406544
 30
0.0
 10
24.213031
 20
35.455019
 30
0.0
  0
SPLINE
  5
29d
100
AcDbEntity
  8
Path
 62
7
100
AcDbSpline
 70
8
 71
3
 72
8
 73
4
 74
0
 40
0
 40
0
 40
0
 40
0
 40
1
 40
1
 40
1
 40
1
 10
24.213031
 20
35.455019
 30
0.0
 10
24.175984
 20
35.491102
 30
0.0
 10
23.024167
 20
35.905080
 30
0.0
 10
22.612049
 20
36.030432
 30
0.0
  0
SPLINE
  5
29e
100
AcDbEntity
  8
Path
 62
7
100
AcDbSpline
 70
8
 71
3
 72
8
 73
4
 74
0
 40
0
 40
0
 40
0
 40
0
 40
1
 40
1
 40
1
 40
1
 10
22.612049
 20
36.030432
 30
0.0
 10
22.425331
 20
36.087225
 30
0.0
 10
22.237950
 20
36.174323
 30
0.0
 10
22.118160
 20
36.260003
 30
0.0
  0
SPLINE
  5
29f
100
AcDbEntity
  8
Path
 62
7
100
AcDbSpline
 70
8
 71
3
 72
8
 73
4
 74
0
 40
0
 40
0
 40
0
 40
0
 40
1
 40
1
 40
1
 40
1
 10
22.118160
 20
36.260003
 30
0.0
 10
22.011999
 20
36.335930
 30
0.0
 10
21.736944
 20
36.495598
 30
0.0
 10
21.506927
 20
36.614812
 30
0.0
  0
SPLINE
  5
2a0
100
AcDbEntity
  8
Path
 62
7
100
AcDbSpline
 70
8
 71
3
 72
8
 73
4
 74
0
 40
0
 40
0
 40
0
 40
0
 40
1
 40
1
 40
1
 40
1
 10
21.506927
 20
36.614812
 30
0.0
 10
20.813769
 20
36.974074
 30
0.0
 10
20.430152
 20
37.248793
 30
0.0
 10
19.990400
 20
37.700842
 30
0.0
  0
SPLINE
  5
2a1
100
AcDbEntity
  8
Path
 62
7
100
AcDbSpline
 70
8
 71
3
 72
8
 73
4
 74
0
 40
0
 40
0
 40
0
 40
0
 40
1
 40
1
 40
1
 40
1
 10
19.990400
 20
37.700842
 30
0.0
 10
19.773923
 20
37.923375
 30
0.0
 10
19.541833
 20
38.155811
 30
0.0
 10
19.474645
 20
38.217374
 30
0.0
  0
SPLINE
  5
2a2
100
AcDbEntity
  8
Path
 62
7
100
AcDbSpline
 70
8
 71
3
 72
8
 73
4
 74
0
 40
0
 40
0
 40
0
 40
0
 40
1
 40
1
 40
1
 40
1
 10
19.474645
 20
38.217374
 30
0.0
 10
18.959615
 20
38.689272
 30
0.0
 10
18.820583
 20
38.858701
 30
0.0
 10
18.632883
 20
39.243159
 30
0.0
  0
SPLINE
  5
2a3
100
AcDbEntity
  8
Path
 62
7
100
AcDbSpline
 70
8
 71
3
 72
8
 73
4
 74
0
 40
0
 40
0
 40
0
 40
0
 40
1
 40
1
 40
1
 40
1
 10
18.632883
 20
39.243159
 30
0.0
 10
18.529587
 20
39.454735
 30
0.0
 10
18.365748
 20
39.745396
 30
0.0
 10
18.268797
 20
39.889073
 30
0.0
  0
SPLINE
  5
2a4
100
AcDbEntity
  8
Path
 62
7
100
AcDbSpline
 70
8
 71
3
 72
8
 73
4
 74
0
 40
0
 40
0
 40
0
 40
0
 40
1
 40
1
 40
1
 40
1
 10
18.268797
 20
39.889073
 30
0.0
 10
18.066463
 20
40.188920
 30
0.0
 10
17.885902
 20
40.552986
 30
0.0
 10
17.885861
 20
40.661193
 30
0.0
  0
SPLINE
  5
2a5
100
AcDbEntity
  8
Path
 62
7
100
AcDbSpline
 70
8
 71
3
 72
8
 73
4
 74
0
 40
0
 40
0
 40
0
 40
0
 40
1
 40
1
 40
1
 40
1
 10
17.885861
 20
40.661193
 30
0.0
 10
17.885827
 20
40.750972
 30
0.0
 10
17.827338
 20
40.943130
 30
0.0
 10
17.763456
 20
41.063333
 30
0.0
  0
SPLINE
  5
2a6
100
AcDbEntity
  8
Path
 62
7
100
AcDbSpline
 70
8
 71
3
 72
8
 73
4
 74
0
 40
0
 40
0
 40
0
 40
0
 40
1
 40
1
 40
1
 40
1
 10
17.763456
 20
41.063333
 30
0.0
 10
17.737678
 20
41.111839
 30
0.0
 10
17.705034
 20
41.278527
 30
0.0
 10
17.690915
 20
41.433750
 30
0.0
  0
SPLINE
  5
2a7
100
AcDbEntity
  8
Path
 62
7
100
AcDbSpline
 70
8
 71
3
 72
8
 73
4
 74
0
 40
0
 40
0
 40
0
 40
0
 40
1
 40
1
 40
1
 40
1
 10
17.690915
 20
41.433750
 30
0.0
 10
17.672203
 20
41.639453
 30
0.0
 10
17.608767
 20
41.878462
 30
0.0
 10
17.456946
 20
42.315270
 30
0.0
  0
SPLINE
  5
2a8
100
AcDbEntity
  8
Path
 62
7
100
AcDbSpline
 70
8
 71
3
 72
8
 73
4
 74
0
 40
0
 40
0
 40
0
 40
0
 40
1
 40
1
 40
1
 40
1
 10
17.456946
 20
42.315270
 30
0.0
 10
17.342382
 20
42.644886
 30
0.0
 10
17.224645
 20
43.002073
 30
0.0
 10
17.195308
 20
43.109020
 30
0.0
  0
SPLINE
  5
2a9
100
AcDbEntity
  8
Path
 62
7
100
AcDbSpline
 70
8
 71
3
 72
8
 73
4
 74
0
 40
0
 40
0
 40
0
 40
0
 40
1
 40
1
 40
1
 40
1
 10
17.195308
 20
43.109020
 30
0.0
 10
16.990634
 20
43.855153
 30
0.0
 10
16.614692
 20
45.547608
 30
0.0
 10
16.509546
 20
46.196250
 30
0.0
  0
SPLINE
  5
2aa
100
AcDbEntity
  8
Path
 62
7
100
AcDbSpline
 70
8
 71
3
 72
8
 73
4
 74
0
 40
0
 40
0
 40
0
 40
0
 40
1
 40
1
 40
1
 40
1
 10
16.509546
 20
46.196250
 30
0.0
 10
16.383971
 20
46.970924
 30
0.0
 10
16.266748
 20
47.531573
 30
0.0
 10
16.176108
 20
47.791005
 30
0.0
  0
SPLINE
  5
2ab
100
AcDbEntity
  8
Path
 62
7
100
AcDbSpline
 70
8
 71
3
 72
8
 73
4
 74
0
 40
0
 40
0
 40
0
 40
0
 40
1
 40
1
 40
1
 40
1
 10
16.176108
 20
47.791005
 30
0.0
 10
16.061992
 20
48.117633
 30
0.0
 10
15.995662
 20
48.500512
 30
0.0
 10
15.926793
 20
49.230137
 30
0.0
  0
SPLINE
  5
2ac
100
AcDbEntity
  8
Path
 62
7
100
AcDbSpline
 70
8
 71
3
 72
8
 73
4
 74
0
 40
0
 40
0
 40
0
 40
0
 40
1
 40
1
 40
1
 40
1
 10
15.926793
 20
49.230137
 30
0.0
 10
15.895659
 20
49.559985
 30
0.0
 10
15.832705
 20
49.988610
 30
0.0
 10
15.786896
 20
50.182637
 30
0.0
  0
SPLINE
  5
2ad
100
AcDbEntity
  8
Path
 62
7
100
AcDbSpline
 70
8
 71
3
 72
8
 73
4
 74
0
 40
0
 40
0
 40
0
 40
0
 40
1
 40
1
 40
1
 40
1
 10
15.786896
 20
50.182637
 30
0.0
 10
15.741087
 20
50.376667
 30
0.0
 10
15.679580
 20
50.773542
 30
0.0
 10
15.650213
 20
51.064583
 30
0.0
  0
SPLINE
  5
2ae
100
AcDbEntity
  8
Path
 62
7
100
AcDbSpline
 70
8
 71
3
 72
8
 73
4
 74
0
 40
0
 40
0
 40
0
 40
0
 40
1
 40
1
 40
1
 40
1
 10
15.650213
 20
51.064583
 30
0.0
 10
15.610170
 20
51.461427
 30
0.0
 10
15.566204
 20
51.690786
 30
0.0
 10
15.474392
 20
51.981804
 30
0.0
  0
SPLINE
  5
2af
100
AcDbEntity
  8
Path
 62
7
100
AcDbSpline
 70
8
 71
3
 72
8
 73
4
 74
0
 40
0
 40
0
 40
0
 40
0
 40
1
 40
1
 40
1
 40
1
 10
15.474392
 20
51.981804
 30
0.0
 10
15.407057
 20
52.195235
 30
0.0
 10
15.341745
 20
52.488923
 30
0.0
 10
15.329254
 20
52.634444
 30
0.0
  0
SPLINE
  5
2b0
100
AcDbEntity
  8
Path
 62
7
100
AcDbSpline
 70
8
 71
3
 72
8
 73
4
 74
0
 40
0
 40
0
 40
0
 40
0
 40
1
 40
1
 40
1
 40
1
 10
15.329254
 20
52.634444
 30
0.0
 10
15.282462
 20
53.179565
 30
0.0
 10
15.233300
 20
53.479766
 30
0.0
 10
15.095280
 20
54.063194
 30
0.0
  0
SPLINE
  5
2b1
100
AcDbEntity
  8
Path
 62
7
100
AcDbSpline
 70
8
 71
3
 72
8
 73
4
 74
0
 40
0
 40
0
 40
0
 40
0
 40
1
 40
1
 40
1
 40
1
 10
15.095280
 20
54.063194
 30
0.0
 10
15.017248
 20
54.393039
 30
0.0
 10
14.914102
 20
54.829602
 30
0.0
 10
14.866065
 20
55.033331
 30
0.0
  0
SPLINE
  5
2b2
100
AcDbEntity
  8
Path
 62
7
100
AcDbSpline
 70
8
 71
3
 72
8
 73
4
 74
0
 40
0
 40
0
 40
0
 40
0
 40
1
 40
1
 40
1
 40
1
 10
14.866065
 20
55.033331
 30
0.0
 10
14.724500
 20
55.633731
 30
0.0
 10
14.753051
 20
55.601698
 30
0.0
 10
14.025520
 20
55.976374
 30
0.0
  0
SPLINE
  5
2b3
100
AcDbEntity
  8
Path
 62
7
100
AcDbSpline
 70
8
 71
3
 72
8
 73
4
 74
0
 40
0
 40
0
 40
0
 40
0
 40
1
 40
1
 40
1
 40
1
 10
14.025520
 20
55.976374
 30
0.0
 10
13.677702
 20
56.155500
 30
0.0
 10
13.246330
 20
56.389656
 30
0.0
 10
13.066917
 20
56.496720
 30
0.0
  0
SPLINE
  5
2b4
100
AcDbEntity
  8
Path
 62
7
100
AcDbSpline
 70
8
 71
3
 72
8
 73
4
 74
0
 40
0
 40
0
 40
0
 40
0
 40
1
 40
1
 40
1
 40
1
 10
13.066917
 20
56.496720
 30
0.0
 10
12.728331
 20
56.698774
 30
0.0
 10
12.666923
 20
56.721581
 30
0.0
 10
12.661508
 20
56.647289
 30
0.0
  0
SPLINE
  5
2b5
100
AcDbEntity
  8
Path
 62
7
100
AcDbSpline
 70
8
 71
3
 72
8
 73
4
 74
0
 40
0
 40
0
 40
0
 40
0
 40
1
 40
1
 40
1
 40
1
 10
12.661508
 20
56.647289
 30
0.0
 10
12.650232
 20
56.492571
 30
0.0
 10
12.672769
 20
55.826864
 30
0.0
 10
12.702414
 20
55.439027
 30
0.0
  0
SPLINE
  5
2b6
100
AcDbEntity
  8
Path
 62
7
100
AcDbSpline
 70
8
 71
3
 72
8
 73
4
 74
0
 40
0
 40
0
 40
0
 40
0
 40
1
 40
1
 40
1
 40
1
 10
12.702414
 20
55.439027
 30
0.0
 10
12.758727
 20
54.702289
 30
0.0
 10
12.815349
 20
54.375394
 30
0.0
 10
12.980447
 20
53.833887
 30
0.0
  0
SPLINE
  5
2b7
100
AcDbEntity
  8
Path
 62
7
100
AcDbSpline
 70
8
 71
3
 72
8
 73
4
 74
0
 40
0
 40
0
 40
0
 40
0
 40
1
 40
1
 40
1
 40
1
 10
12.980447
 20
53.833887
 30
0.0
 10
13.075571
 20
53.521888
 30
0.0
 10
13.126025
 20
53.077782
 30
0.0
 10
13.160798
 20
52.246387
 30
0.0
  0
SPLINE
  5
2b8
100
AcDbEntity
  8
Path
 62
7
100
AcDbSpline
 70
8
 71
3
 72
8
 73
4
 74
0
 40
0
 40
0
 40
0
 40
0
 40
1
 40
1
 40
1
 40
1
 10
13.160798
 20
52.246387
 30
0.0
 10
13.217244
 20
50.896822
 30
0.0
 10
13.246156
 20
50.512583
 30
0.0
 10
13.363861
 20
49.547637
 30
0.0
  0
SPLINE
  5
2b9
100
AcDbEntity
  8
Path
 62
7
100
AcDbSpline
 70
8
 71
3
 72
8
 73
4
 74
0
 40
0
 40
0
 40
0
 40
0
 40
1
 40
1
 40
1
 40
1
 10
13.363861
 20
49.547637
 30
0.0
 10
13.423030
 20
49.062569
 30
0.0
 10
13.488815
 20
48.387881
 30
0.0
 10
13.510049
 20
48.048333
 30
0.0
  0
SPLINE
  5
2ba
100
AcDbEntity
  8
Path
 62
7
100
AcDbSpline
 70
8
 71
3
 72
8
 73
4
 74
0
 40
0
 40
0
 40
0
 40
0
 40
1
 40
1
 40
1
 40
1
 10
13.510049
 20
48.048333
 30
0.0
 10
13.566162
 20
47.151073
 30
0.0
 10
13.568939
 20
47.129396
 30
0.0
 10
13.704400
 20
46.531387
 30
0.0
  0
SPLINE
  5
2bb
100
AcDbEntity
  8
Path
 62
7
100
AcDbSpline
 70
8
 71
3
 72
8
 73
4
 74
0
 40
0
 40
0
 40
0
 40
0
 40
1
 40
1
 40
1
 40
1
 10
13.704400
 20
46.531387
 30
0.0
 10
13.772523
 20
46.230646
 30
0.0
 10
13.845040
 20
45.786146
 30
0.0
 10
13.865548
 20
45.543610
 30
0.0
  0
SPLINE
  5
2bc
100
AcDbEntity
  8
Path
 62
7
100
AcDbSpline
 70
8
 71
3
 72
8
 73
4
 74
0
 40
0
 40
0
 40
0
 40
0
 40
1
 40
1
 40
1
 40
1
 10
13.865548
 20
45.543610
 30
0.0
 10
13.886056
 20
45.301075
 30
0.0
 10
13.926405
 20
44.928012
 30
0.0
 10
13.955213
 20
44.714583
 30
0.0
  0
SPLINE
  5
2bd
100
AcDbEntity
  8
Path
 62
7
100
AcDbSpline
 70
8
 71
3
 72
8
 73
4
 74
0
 40
0
 40
0
 40
0
 40
0
 40
1
 40
1
 40
1
 40
1
 10
13.955213
 20
44.714583
 30
0.0
 10
13.984022
 20
44.501152
 30
0.0
 10
14.016303
 20
44.175714
 30
0.0
 10
14.026949
 20
43.991387
 30
0.0
  0
SPLINE
  5
2be
100
AcDbEntity
  8
Path
 62
7
100
AcDbSpline
 70
8
 71
3
 72
8
 73
4
 74
0
 40
0
 40
0
 40
0
 40
0
 40
1
 40
1
 40
1
 40
1
 10
14.026949
 20
43.991387
 30
0.0
 10
14.037596
 20
43.807063
 30
0.0
 10
14.100004
 20
43.410187
 30
0.0
 10
14.165634
 20
43.109444
 30
0.0
  0
SPLINE
  5
2bf
100
AcDbEntity
  8
Path
 62
7
100
AcDbSpline
 70
8
 71
3
 72
8
 73
4
 74
0
 40
0
 40
0
 40
0
 40
0
 40
1
 40
1
 40
1
 40
1
 10
14.165634
 20
43.109444
 30
0.0
 10
14.397804
 20
42.045554
 30
0.0
 10
14.460986
 20
41.711901
 30
0.0
 10
14.499657
 20
41.345554
 30
0.0
  0
SPLINE
  5
2c0
100
AcDbEntity
  8
Path
 62
7
100
AcDbSpline
 70
8
 71
3
 72
8
 73
4
 74
0
 40
0
 40
0
 40
0
 40
0
 40
1
 40
1
 40
1
 40
1
 10
14.499657
 20
41.345554
 30
0.0
 10
14.551726
 20
40.852265
 30
0.0
 10
14.548750
 20
40.862475
 30
0.0
 10
14.786049
 20
40.363280
 30
0.0
  0
SPLINE
  5
2c1
100
AcDbEntity
  8
Path
 62
7
100
AcDbSpline
 70
8
 71
3
 72
8
 73
4
 74
0
 40
0
 40
0
 40
0
 40
0
 40
1
 40
1
 40
1
 40
1
 10
14.786049
 20
40.363280
 30
0.0
 10
14.899902
 20
40.123771
 30
0.0
 10
14.993056
 20
39.921765
 30
0.0
 10
14.993056
 20
39.914375
 30
0.0
  0
SPLINE
  5
2c2
100
AcDbEntity
  8
Path
 62
7
100
AcDbSpline
 70
8
 71
3
 72
8
 73
4
 74
0
 40
0
 40
0
 40
0
 40
0
 40
1
 40
1
 40
1
 40
1
 10
14.993056
 20
39.914375
 30
0.0
 10
14.993056
 20
39.883929
 30
0.0
 10
15.640833
 20
38.524233
 30
0.0
 10
15.952351
 20
37.900790
 30
0.0
  0
SPLINE
  5
2c3
100
AcDbEntity
  8
Path
 62
7
100
AcDbSpline
 70
8
 71
3
 72
8
 73
4
 74
0
 40
0
 40
0
 40
0
 40
0
 40
1
 40
1
 40
1
 40
1
 10
15.952351
 20
37.900790
 30
0.0
 10
16.031336
 20
37.742720
 30
0.0
 10
16.178604
 20
37.509683
 30
0.0
 10
16.279614
 20
37.382932
 30
0.0
  0
SPLINE
  5
2c4
100
AcDbEntity
  8
Path
 62
7
100
AcDbSpline
 70
8
 71
3
 72
8
 73
4
 74
0
 40
0
 40
0
 40
0
 40
0
 40
1
 40
1
 40
1
 40
1
 10
16.279614
 20
37.382932
 30
0.0
 10
16.380624
 20
37.256183
 30
0.0
 10
16.594410
 20
36.961215
 30
0.0
 10
16.754694
 20
36.727448
 30
0.0
  0
SPLINE
  5
2c5
100
AcDbEntity
  8
Path
 62
7
100
AcDbSpline
 70
8
 71
3
 72
8
 73
4
 74
0
 40
0
 40
0
 40
0
 40
0
 40
1
 40
1
 40
1
 40
1
 10
16.754694
 20
36.727448
 30
0.0
 10
17.073345
 20
36.262712
 30
0.0
 10
17.352406
 20
35.978798
 30
0.0
 10
17.771439
 20
35.693025
 30
0.0
  0
SPLINE
  5
2c6
100
AcDbEntity
  8
Path
 62
7
100
AcDbSpline
 70
8
 71
3
 72
8
 73
4
 74
0
 40
0
 40
0
 40
0
 40
0
 40
1
 40
1
 40
1
 40
1
 10
17.771439
 20
35.693025
 30
0.0
 10
18.204303
 20
35.397816
 30
0.0
 10
18.377094
 20
35.309408
 30
0.0
 10
18.697222
 20
35.219338
 30
0.0
  0
SPLINE
  5
2c7
100
AcDbEntity
  8
Path
 62
7
100
AcDbSpline
 70
8
 71
3
 72
8
 73
4
 74
0
 40
0
 40
0
 40
0
 40
0
 40
1
 40
1
 40
1
 40
1
 10
18.697222
 20
35.219338
 30
0.0
 10
19.513350
 20
34.989728
 30
0.0
 10
20.125194
 20
34.903489
 30
0.0
 10
21.272500
 20
34.856367
 30
0.0
  0
SPLINE
  5
2c8
100
AcDbEntity
  8
Path
 62
7
100
AcDbSpline
 70
8
 71
3
 72
8
 73
4
 74
0
 40
0
 40
0
 40
0
 40
0
 40
1
 40
1
 40
1
 40
1
 10
21.272500
 20
34.856367
 30
0.0
 10
22.077640
 20
34.823294
 30
0.0
 10
22.448628
 20
34.839354
 30
0.0
 10
22.948194
 20
34.928889
 30
0.0
  0
LWPOLYLINE
  5
2c9
100
AcDbEntity
  8
Path
 62
7
100
AcDbPolyline
 90
1
 70
1
 10
54.892202
 20
2.139572
 30
0.0
  0
SPLINE
  5
2ca
100
AcDbEntity
  8
Path
 62
7
100
AcDbSpline
 70
8
 71
3
 72
8
 73
4
 74
0
 40
0
 40
0
 40
0
 40
0
 40
1
 40
1
 40
1
 40
1
 10
28.168462
 20
37.548741
 30
0.0
 10
28.343550
 20
37.653008
 30
0.0
 10
28.772556
 20
37.905513
 30
0.0
 10
29.121806
 20
38.109864
 30
0.0
  0
SPLINE
  5
2cb
100
AcDbEntity
  8
Path
 62
7
100
AcDbSpline
 70
8
 71
3
 72
8
 73
4
 74
0
 40
0
 40
0
 40
0
 40
0
 40
1
 40
1
 40
1
 40
1
 10
29.121806
 20
38.109864
 30
0.0
 10
29.471056
 20
38.314212
 30
0.0
 10
29.918459
 20
38.587259
 30
0.0
 10
30.116037
 20
38.716638
 30
0.0
  0
SPLINE
  5
2cc
100
AcDbEntity
  8
Path
 62
7
100
AcDbSpline
 70
8
 71
3
 72
8
 73
4
 74
0
 40
0
 40
0
 40
0
 40
0
 40
1
 40
1
 40
1
 40
1
 10
30.116037
 20
38.716638
 30
0.0
 10
30.472367
 20
38.949963
 30
0.0
 10
30.475589
 20
38.953339
 30
0.0
 10
30.514954
 20
39.134473
 30
0.0
  0
SPLINE
  5
2cd
100
AcDbEntity
  8
Path
 62
7
100
AcDbSpline
 70
8
 71
3
 72
8
 73
4
 74
0
 40
0
 40
0
 40
0
 40
0
 40
1
 40
1
 40
1
 40
1
 10
30.514954
 20
39.134473
 30
0.0
 10
30.570220
 20
39.388759
 30
0.0
 10
30.620436
 20
39.841398
 30
0.0
 10
30.621317
 20
40.093194
 30
0.0
  0
SPLINE
  5
2ce
100
AcDbEntity
  8
Path
 62
7
100
AcDbSpline
 70
8
 71
3
 72
8
 73
4
 74
0
 40
0
 40
0
 40
0
 40
0
 40
1
 40
1
 40
1
 40
1
 10
30.621317
 20
40.093194
 30
0.0
 10
30.621846
 20
40.216873
 30
0.0
 10
30.656916
 20
40.414130
 30
0.0
 10
30.705917
 20
40.567721
 30
0.0
  0
SPLINE
  5
2cf
100
AcDbEntity
  8
Path
 62
7
100
AcDbSpline
 70
8
 71
3
 72
8
 73
4
 74
0
 40
0
 40
0
 40
0
 40
0
 40
1
 40
1
 40
1
 40
1
 10
30.705917
 20
40.567721
 30
0.0
 10
30.773465
 20
40.779457
 30
0.0
 10
30.817868
 20
40.854940
 30
0.0
 10
30.934186
 20
40.955778
 30
0.0
  0
SPLINE
  5
2d0
100
AcDbEntity
  8
Path
 62
7
100
AcDbSpline
 70
8
 71
3
 72
8
 73
4
 74
0
 40
0
 40
0
 40
0
 40
0
 40
1
 40
1
 40
1
 40
1
 10
30.934186
 20
40.955778
 30
0.0
 10
31.068047
 20
41.071832
 30
0.0
 10
31.087589
 20
41.113173
 30
0.0
 10
31.201791
 20
41.521944
 30
0.0
  0
SPLINE
  5
2d1
100
AcDbEntity
  8
Path
 62
7
100
AcDbSpline
 70
8
 71
3
 72
8
 73
4
 74
0
 40
0
 40
0
 40
0
 40
0
 40
1
 40
1
 40
1
 40
1
 10
31.201791
 20
41.521944
 30
0.0
 10
31.347135
 20
42.042186
 30
0.0
 10
31.432500
 20
42.511414
 30
0.0
 10
31.432500
 20
42.790084
 30
0.0
  0
SPLINE
  5
2d2
100
AcDbEntity
  8
Path
 62
7
100
AcDbSpline
 70
8
 71
3
 72
8
 73
4
 74
0
 40
0
 40
0
 40
0
 40
0
 40
1
 40
1
 40
1
 40
1
 10
31.432500
 20
42.790084
 30
0.0
 10
31.432500
 20
43.126059
 30
0.0
 10
31.500061
 20
43.389603
 30
0.0
 10
31.701629
 20
43.839913
 30
0.0
  0
LWPOLYLINE
  5
2d3
100
AcDbEntity
  8
Path
 62
7
100
AcDbPolyline
 90
1
 70
1
 10
22.948194
 20
34.928889
 30
0.0
  0
SPLINE
  5
2d4
100
AcDbEntity
  8
Path
 62
7
100
AcDbSpline
 70
8
 71
3
 72
8
 73
4
 74
0
 40
0
 40
0
 40
0
 40
0
 40
1
 40
1
 40
1
 40
1
 10
31.885356
 20
44.757134
 30
0.0
 10
31.876836
 20
45.216413
 30
0.0
 10
31.881995
 20
45.259173
 30
0.0
 10
31.977057
 20
45.518295
 30
0.0
  0
SPLINE
  5
2d5
100
AcDbEntity
  8
Path
 62
7
100
AcDbSpline
 70
8
 71
3
 72
8
 73
4
 74
0
 40
0
 40
0
 40
0
 40
0
 40
1
 40
1
 40
1
 40
1
 10
31.977057
 20
45.518295
 30
0.0
 10
32.061277
 20
45.747834
 30
0.0
 10
32.071164
 20
45.807381
 30
0.0
 10
32.037369
 20
45.881549
 30
0.0
  0
SPLINE
  5
2d6
100
AcDbEntity
  8
Path
 62
7
100
AcDbSpline
 70
8
 71
3
 72
8
 73
4
 74
0
 40
0
 40
0
 40
0
 40
0
 40
1
 40
1
 40
1
 40
1
 10
32.037369
 20
45.881549
 30
0.0
 10
31.976253
 20
46.015688
 30
0.0
 10
31.988181
 20
46.215194
 30
0.0
 10
32.082169
 20
46.630802
 30
0.0
  0
SPLINE
  5
2d7
100
AcDbEntity
  8
Path
 62
7
100
AcDbSpline
 70
8
 71
3
 72
8
 73
4
 74
0
 40
0
 40
0
 40
0
 40
0
 40
1
 40
1
 40
1
 40
1
 10
32.082169
 20
46.630802
 30
0.0
 10
32.179514
 20
47.061252
 30
0.0
 10
32.270983
 20
47.805216
 30
0.0
 10
32.315007
 20
48.524583
 30
0.0
  0
SPLINE
  5
2d8
100
AcDbEntity
  8
Path
 62
7
100
AcDbSpline
 70
8
 71
3
 72
8
 73
4
 74
0
 40
0
 40
0
 40
0
 40
0
 40
1
 40
1
 40
1
 40
1
 10
32.315007
 20
48.524583
 30
0.0
 10
32.331623
 20
48.796220
 30
0.0
 10
32.386397
 20
49.304220
 30
0.0
 10
32.436708
 20
49.653470
 30
0.0
  0
SPLINE
  5
2d9
100
AcDbEntity
  8
Path
 62
7
100
AcDbSpline
 70
8
 71
3
 72
8
 73
4
 74
0
 40
0
 40
0
 40
0
 40
0
 40
1
 40
1
 40
1
 40
1
 10
32.436708
 20
49.653470
 30
0.0
 10
32.487018
 20
50.002720
 30
0.0
 10
32.538188
 20
50.447220
 30
0.0
 10
32.550420
 20
50.641250
 30
0.0
  0
SPLINE
  5
2da
100
AcDbEntity
  8
Path
 62
7
100
AcDbSpline
 70
8
 71
3
 72
8
 73
4
 74
0
 40
0
 40
0
 40
0
 40
0
 40
1
 40
1
 40
1
 40
1
 10
32.550420
 20
50.641250
 30
0.0
 10
32.567750
 20
50.916104
 30
0.0
 10
32.602580
 20
51.083268
 30
0.0
 10
32.708136
 20
51.398069
 30
0.0
  0
SPLINE
  5
2db
100
AcDbEntity
  8
Path
 62
7
100
AcDbSpline
 70
8
 71
3
 72
8
 73
4
 74
0
 40
0
 40
0
 40
0
 40
0
 40
1
 40
1
 40
1
 40
1
 10
32.708136
 20
51.398069
 30
0.0
 10
32.843335
 20
51.801265
 30
0.0
 10
32.843618
 20
51.803326
 30
0.0
 10
32.844303
 20
52.385846
 30
0.0
  0
SPLINE
  5
2dc
100
AcDbEntity
  8
Path
 62
7
100
AcDbSpline
 70
8
 71
3
 72
8
 73
4
 74
0
 40
0
 40
0
 40
0
 40
0
 40
1
 40
1
 40
1
 40
1
 10
32.844303
 20
52.385846
 30
0.0
 10
32.845097
 20
52.965257
 30
0.0
 10
32.878644
 20
53.282620
 30
0.0
 10
33.018169
 20
54.025072
 30
0.0
  0
SPLINE
  5
2dd
100
AcDbEntity
  8
Path
 62
7
100
AcDbSpline
 70
8
 71
3
 72
8
 73
4
 74
0
 40
0
 40
0
 40
0
 40
0
 40
1
 40
1
 40
1
 40
1
 10
33.018169
 20
54.025072
 30
0.0
 10
33.098452
 20
54.452271
 30
0.0
 10
33.110411
 20
54.981642
 30
0.0
 10
33.044125
 20
55.174444
 30
0.0
  0
LWPOLYLINE
  5
2de
100
AcDbEntity
  8
Path
 62
7
100
AcDbPolyline
 90
3
 70
0
 10
31.701629
 20
43.839913
 30
0.0
 10
31.894378
 20
44.270523
 30
0.0
 10
31.885356
 20
44.757134
 30
0.0
  0
SPLINE
  5
2df
100
AcDbEntity
  8
Path
 62
7
100
AcDbSpline
 70
8
 71
3
 72
8
 73
4
 74
0
 40
0
 40
0
 40
0
 40
0
 40
1
 40
1
 40
1
 40
1
 10
32.702156
 20
55.296062
 30
0.0
 10
32.365945
 20
55.293945
 30
0.0
 10
32.233793
 20
55.241740
 30
0.0
 10
31.767634
 20
54.927712
 30
0.0
  0
SPLINE
  5
2e0
100
AcDbEntity
  8
Path
 62
7
100
AcDbSpline
 70
8
 71
3
 72
8
 73
4
 74
0
 40
0
 40
0
 40
0
 40
0
 40
1
 40
1
 40
1
 40
1
 10
31.767634
 20
54.927712
 30
0.0
 10
31.470952
 20
54.727853
 30
0.0
 10
31.303801
 20
54.640755
 30
0.0
 10
30.990918
 20
54.522986
 30
0.0
  0
SPLINE
  5
2e1
100
AcDbEntity
  8
Path
 62
7
100
AcDbSpline
 70
8
 71
3
 72
8
 73
4
 74
0
 40
0
 40
0
 40
0
 40
0
 40
1
 40
1
 40
1
 40
1
 10
30.990918
 20
54.522986
 30
0.0
 10
30.660930
 20
54.398778
 30
0.0
 10
30.460291
 20
54.287433
 30
0.0
 10
29.933188
 20
53.936003
 30
0.0
  0
SPLINE
  5
2e2
100
AcDbEntity
  8
Path
 62
7
100
AcDbSpline
 70
8
 71
3
 72
8
 73
4
 74
0
 40
0
 40
0
 40
0
 40
0
 40
1
 40
1
 40
1
 40
1
 10
29.933188
 20
53.936003
 30
0.0
 10
29.317812
 20
53.525716
 30
0.0
 10
29.153435
 20
53.431866
 30
0.0
 10
28.869209
 20
53.328528
 30
0.0
  0
SPLINE
  5
2e3
100
AcDbEntity
  8
Path
 62
7
100
AcDbSpline
 70
8
 71
3
 72
8
 73
4
 74
0
 40
0
 40
0
 40
0
 40
0
 40
1
 40
1
 40
1
 40
1
 10
28.869209
 20
53.328528
 30
0.0
 10
28.379177
 20
53.150360
 30
0.0
 10
28.038846
 20
52.966874
 30
0.0
 10
27.481384
 20
52.580286
 30
0.0
  0
SPLINE
  5
2e4
100
AcDbEntity
  8
Path
 62
7
100
AcDbSpline
 70
8
 71
3
 72
8
 73
4
 74
0
 40
0
 40
0
 40
0
 40
0
 40
1
 40
1
 40
1
 40
1
 10
27.481384
 20
52.580286
 30
0.0
 10
27.078607
 20
52.300968
 30
0.0
 10
26.628119
 20
52.081935
 30
0.0
 10
25.677001
 20
51.702967
 30
0.0
  0
SPLINE
  5
2e5
100
AcDbEntity
  8
Path
 62
7
100
AcDbSpline
 70
8
 71
3
 72
8
 73
4
 74
0
 40
0
 40
0
 40
0
 40
0
 40
1
 40
1
 40
1
 40
1
 10
25.677001
 20
51.702967
 30
0.0
 10
25.262710
 20
51.537889
 30
0.0
 10
24.764995
 20
51.334689
 30
0.0
 10
24.570967
 20
51.251406
 30
0.0
  0
LWPOLYLINE
  5
2e6
100
AcDbEntity
  8
Path
 62
7
100
AcDbPolyline
 90
3
 70
0
 10
33.044125
 20
55.174444
 30
0.0
 10
33.001680
 20
55.297914
 30
0.0
 10
32.702156
 20
55.296062
 30
0.0
  0
SPLINE
  5
2e7
100
AcDbEntity
  8
Path
 62
7
100
AcDbSpline
 70
8
 71
3
 72
8
 73
4
 74
0
 40
0
 40
0
 40
0
 40
0
 40
1
 40
1
 40
1
 40
1
 10
23.353884
 20
51.101305
 30
0.0
 10
22.129357
 20
51.103157
 30
0.0
 10
21.939950
 20
51.145509
 30
0.0
 10
20.725689
 20
51.688778
 30
0.0
  0
SPLINE
  5
2e8
100
AcDbEntity
  8
Path
 62
7
100
AcDbSpline
 70
8
 71
3
 72
8
 73
4
 74
0
 40
0
 40
0
 40
0
 40
0
 40
1
 40
1
 40
1
 40
1
 10
20.725689
 20
51.688778
 30
0.0
 10
19.489087
 20
52.242048
 30
0.0
 10
19.140176
 20
52.429727
 30
0.0
 10
18.218797
 20
53.037264
 30
0.0
  0
SPLINE
  5
2e9
100
AcDbEntity
  8
Path
 62
7
100
AcDbSpline
 70
8
 71
3
 72
8
 73
4
 74
0
 40
0
 40
0
 40
0
 40
0
 40
1
 40
1
 40
1
 40
1
 10
18.218797
 20
53.037264
 30
0.0
 10
18.027538
 20
53.163375
 30
0.0
 10
17.865217
 20
53.260720
 30
0.0
 10
17.858084
 20
53.253587
 30
0.0
  0
SPLINE
  5
2ea
100
AcDbEntity
  8
Path
 62
7
100
AcDbSpline
 70
8
 71
3
 72
8
 73
4
 74
0
 40
0
 40
0
 40
0
 40
0
 40
1
 40
1
 40
1
 40
1
 10
17.858084
 20
53.253587
 30
0.0
 10
17.828429
 20
53.223933
 30
0.0
 10
17.930016
 20
52.094836
 30
0.0
 10
17.993127
 20
51.752627
 30
0.0
  0
SPLINE
  5
2eb
100
AcDbEntity
  8
Path
 62
7
100
AcDbSpline
 70
8
 71
3
 72
8
 73
4
 74
0
 40
0
 40
0
 40
0
 40
0
 40
1
 40
1
 40
1
 40
1
 10
17.993127
 20
51.752627
 30
0.0
 10
18.030700
 20
51.548900
 30
0.0
 10
18.076602
 20
51.247275
 30
0.0
 10
18.095132
 20
51.082350
 30
0.0
  0
SPLINE
  5
2ec
100
AcDbEntity
  8
Path
 62
7
100
AcDbSpline
 70
8
 71
3
 72
8
 73
4
 74
0
 40
0
 40
0
 40
0
 40
0
 40
1
 40
1
 40
1
 40
1
 10
18.095132
 20
51.082350
 30
0.0
 10
18.113660
 20
50.917427
 30
0.0
 10
18.194220
 20
50.472927
 30
0.0
 10
18.274150
 20
50.094573
 30
0.0
  0
SPLINE
  5
2ed
100
AcDbEntity
  8
Path
 62
7
100
AcDbSpline
 70
8
 71
3
 72
8
 73
4
 74
0
 40
0
 40
0
 40
0
 40
0
 40
1
 40
1
 40
1
 40
1
 10
18.274150
 20
50.094573
 30
0.0
 10
18.464199
 20
49.194961
 30
0.0
 10
18.560661
 20
48.632409
 30
0.0
 10
18.643147
 20
47.942630
 30
0.0
  0
SPLINE
  5
2ee
100
AcDbEntity
  8
Path
 62
7
100
AcDbSpline
 70
8
 71
3
 72
8
 73
4
 74
0
 40
0
 40
0
 40
0
 40
0
 40
1
 40
1
 40
1
 40
1
 10
18.643147
 20
47.942630
 30
0.0
 10
18.672175
 20
47.699890
 30
0.0
 10
18.743918
 20
47.366891
 30
0.0
 10
18.821759
 20
47.113600
 30
0.0
  0
SPLINE
  5
2ef
100
AcDbEntity
  8
Path
 62
7
100
AcDbSpline
 70
8
 71
3
 72
8
 73
4
 74
0
 40
0
 40
0
 40
0
 40
0
 40
1
 40
1
 40
1
 40
1
 10
18.821759
 20
47.113600
 30
0.0
 10
19.047137
 20
46.380228
 30
0.0
 10
19.115376
 20
46.103569
 30
0.0
 10
19.187219
 20
45.631933
 30
0.0
  0
SPLINE
  5
2f0
100
AcDbEntity
  8
Path
 62
7
100
AcDbSpline
 70
8
 71
3
 72
8
 73
4
 74
0
 40
0
 40
0
 40
0
 40
0
 40
1
 40
1
 40
1
 40
1
 10
19.187219
 20
45.631933
 30
0.0
 10
19.225642
 20
45.379698
 30
0.0
 10
19.282673
 20
45.062198
 30
0.0
 10
19.313956
 20
44.926380
 30
0.0
  0
SPLINE
  5
2f1
100
AcDbEntity
  8
Path
 62
7
100
AcDbSpline
 70
8
 71
3
 72
8
 73
4
 74
0
 40
0
 40
0
 40
0
 40
0
 40
1
 40
1
 40
1
 40
1
 10
19.313956
 20
44.926380
 30
0.0
 10
19.345239
 20
44.790558
 30
0.0
 10
19.386152
 20
44.584183
 30
0.0
 10
19.404874
 20
44.467767
 30
0.0
  0
SPLINE
  5
2f2
100
AcDbEntity
  8
Path
 62
7
100
AcDbSpline
 70
8
 71
3
 72
8
 73
4
 74
0
 40
0
 40
0
 40
0
 40
0
 40
1
 40
1
 40
1
 40
1
 10
19.404874
 20
44.467767
 30
0.0
 10
19.423596
 20
44.351350
 30
0.0
 10
19.455163
 20
44.155937
 30
0.0
 10
19.475022
 20
44.033517
 30
0.0
  0
SPLINE
  5
2f3
100
AcDbEntity
  8
Path
 62
7
100
AcDbSpline
 70
8
 71
3
 72
8
 73
4
 74
0
 40
0
 40
0
 40
0
 40
0
 40
1
 40
1
 40
1
 40
1
 10
19.475022
 20
44.033517
 30
0.0
 10
19.494882
 20
43.911091
 30
0.0
 10
19.557598
 20
43.665029
 30
0.0
 10
19.614392
 20
43.486710
 30
0.0
  0
SPLINE
  5
2f4
100
AcDbEntity
  8
Path
 62
7
100
AcDbSpline
 70
8
 71
3
 72
8
 73
4
 74
0
 40
0
 40
0
 40
0
 40
0
 40
1
 40
1
 40
1
 40
1
 10
19.614392
 20
43.486710
 30
0.0
 10
19.671185
 20
43.308389
 30
0.0
 10
19.767604
 20
42.995802
 30
0.0
 10
19.828655
 20
42.792073
 30
0.0
  0
SPLINE
  5
2f5
100
AcDbEntity
  8
Path
 62
7
100
AcDbSpline
 70
8
 71
3
 72
8
 73
4
 74
0
 40
0
 40
0
 40
0
 40
0
 40
1
 40
1
 40
1
 40
1
 10
19.828655
 20
42.792073
 30
0.0
 10
19.889706
 20
42.588344
 30
0.0
 10
19.984911
 20
42.278782
 30
0.0
 10
20.040221
 20
42.104157
 30
0.0
  0
SPLINE
  5
2f6
100
AcDbEntity
  8
Path
 62
7
100
AcDbSpline
 70
8
 71
3
 72
8
 73
4
 74
0
 40
0
 40
0
 40
0
 40
0
 40
1
 40
1
 40
1
 40
1
 10
20.040221
 20
42.104157
 30
0.0
 10
20.148542
 20
41.762167
 30
0.0
 10
20.284717
 20
41.213603
 30
0.0
 10
20.284717
 20
41.119240
 30
0.0
  0
SPLINE
  5
2f7
100
AcDbEntity
  8
Path
 62
7
100
AcDbSpline
 70
8
 71
3
 72
8
 73
4
 74
0
 40
0
 40
0
 40
0
 40
0
 40
1
 40
1
 40
1
 40
1
 10
20.284717
 20
41.119240
 30
0.0
 10
20.284717
 20
41.087313
 30
0.0
 10
20.320436
 20
41.046831
 30
0.0
 10
20.364092
 20
41.029284
 30
0.0
  0
SPLINE
  5
2f8
100
AcDbEntity
  8
Path
 62
7
100
AcDbSpline
 70
8
 71
3
 72
8
 73
4
 74
0
 40
0
 40
0
 40
0
 40
0
 40
1
 40
1
 40
1
 40
1
 10
20.364092
 20
41.029284
 30
0.0
 10
20.407748
 20
41.011742
 30
0.0
 10
20.425109
 20
40.996370
 30
0.0
 10
20.402673
 20
40.995142
 30
0.0
  0
SPLINE
  5
2f9
100
AcDbEntity
  8
Path
 62
7
100
AcDbSpline
 70
8
 71
3
 72
8
 73
4
 74
0
 40
0
 40
0
 40
0
 40
0
 40
1
 40
1
 40
1
 40
1
 10
20.402673
 20
40.995142
 30
0.0
 10
20.340562
 20
40.991729
 30
0.0
 10
20.390745
 20
40.844504
 30
0.0
 10
20.481592
 20
40.763600
 30
0.0
  0
SPLINE
  5
2fa
100
AcDbEntity
  8
Path
 62
7
100
AcDbSpline
 70
8
 71
3
 72
8
 73
4
 74
0
 40
0
 40
0
 40
0
 40
0
 40
1
 40
1
 40
1
 40
1
 10
20.481592
 20
40.763600
 30
0.0
 10
20.525166
 20
40.724796
 30
0.0
 10
20.616936
 20
40.597796
 30
0.0
 10
20.685525
 20
40.481380
 30
0.0
  0
SPLINE
  5
2fb
100
AcDbEntity
  8
Path
 62
7
100
AcDbSpline
 70
8
 71
3
 72
8
 73
4
 74
0
 40
0
 40
0
 40
0
 40
0
 40
1
 40
1
 40
1
 40
1
 10
20.685525
 20
40.481380
 30
0.0
 10
20.819567
 20
40.253870
 30
0.0
 10
20.851028
 20
40.219453
 30
0.0
 10
21.413606
 20
39.684915
 30
0.0
  0
SPLINE
  5
2fc
100
AcDbEntity
  8
Path
 62
7
100
AcDbSpline
 70
8
 71
3
 72
8
 73
4
 74
0
 40
0
 40
0
 40
0
 40
0
 40
1
 40
1
 40
1
 40
1
 10
21.413606
 20
39.684915
 30
0.0
 10
21.697571
 20
39.415104
 30
0.0
 10
21.850180
 20
39.300084
 30
0.0
 10
22.067486
 20
39.192092
 30
0.0
  0
SPLINE
  5
2fd
100
AcDbEntity
  8
Path
 62
7
100
AcDbSpline
 70
8
 71
3
 72
8
 73
4
 74
0
 40
0
 40
0
 40
0
 40
0
 40
1
 40
1
 40
1
 40
1
 10
22.067486
 20
39.192092
 30
0.0
 10
22.223392
 20
39.114619
 30
0.0
 10
22.461517
 20
38.964661
 30
0.0
 10
22.596653
 20
38.858859
 30
0.0
  0
SPLINE
  5
2fe
100
AcDbEntity
  8
Path
 62
7
100
AcDbSpline
 70
8
 71
3
 72
8
 73
4
 74
0
 40
0
 40
0
 40
0
 40
0
 40
1
 40
1
 40
1
 40
1
 10
22.596653
 20
38.858859
 30
0.0
 10
22.931137
 20
38.596977
 30
0.0
 10
23.195636
 20
38.449181
 30
0.0
 10
23.729797
 20
38.225690
 30
0.0
  0
SPLINE
  5
2ff
100
AcDbEntity
  8
Path
 62
7
100
AcDbSpline
 70
8
 71
3
 72
8
 73
4
 74
0
 40
0
 40
0
 40
0
 40
0
 40
1
 40
1
 40
1
 40
1
 10
23.729797
 20
38.225690
 30
0.0
 10
23.979010
 20
38.121418
 30
0.0
 10
24.341661
 20
37.963893
 30
0.0
 10
24.535689
 20
37.875628
 30
0.0
  0
SPLINE
  5
300
100
AcDbEntity
  8
Path
 62
7
100
AcDbSpline
 70
8
 71
3
 72
8
 73
4
 74
0
 40
0
 40
0
 40
0
 40
0
 40
1
 40
1
 40
1
 40
1
 10
24.535689
 20
37.875628
 30
0.0
 10
24.984762
 20
37.671349
 30
0.0
 10
25.443218
 20
37.553479
 30
0.0
 10
26.058854
 20
37.484024
 30
0.0
  0
SPLINE
  5
301
100
AcDbEntity
  8
Path
 62
7
100
AcDbSpline
 70
8
 71
3
 72
8
 73
4
 74
0
 40
0
 40
0
 40
0
 40
0
 40
1
 40
1
 40
1
 40
1
 10
26.058854
 20
37.484024
 30
0.0
 10
26.327071
 20
37.453763
 30
0.0
 10
26.625897
 20
37.415187
 30
0.0
 10
26.722911
 20
37.398299
 30
0.0
  0
SPLINE
  5
302
100
AcDbEntity
  8
Path
 62
7
100
AcDbSpline
 70
8
 71
3
 72
8
 73
4
 74
0
 40
0
 40
0
 40
0
 40
0
 40
1
 40
1
 40
1
 40
1
 10
26.722911
 20
37.398299
 30
0.0
 10
26.819926
 20
37.381418
 30
0.0
 10
27.113233
 20
37.365726
 30
0.0
 10
27.374707
 20
37.363445
 30
0.0
  0
LWPOLYLINE
  5
303
100
AcDbEntity
  8
Path
 62
7
100
AcDbPolyline
 90
3
 70
0
 10
24.570967
 20
51.251406
 30
0.0
 10
24.218189
 20
51.099982
 30
0.0
 10
23.353884
 20
51.101305
 30
0.0
  0
LWPOLYLINE
  5
304
100
AcDbEntity
  8
Path
 62
7
100
AcDbPolyline
 90
4
 70
0
 10
27.374707
 20
37.363445
 30
0.0
 10
27.850113
 20
37.359291
 30
0.0
 10
28.168457
 20
37.548865
 30
0.0
 10
28.168462
 20
37.548741
 30
0.0
  0
ENDSEC
  0
SECTION
  2
OBJECTS
  0
DICTIONARY
  5
C
330
0
100
AcDbDictionary
  3
ACAD_GROUP
350
D
  3
ACAD_MLINESTYLE
350
17
  0
DICTIONARY
  5
D
330
C
100
AcDbDictionary
  0
DICTIONARY
  5
1A
330
C
100
AcDbDictionary
  0
DICTIONARY
  5
17
330
C
100
AcDbDictionary
  3
STANDARD
350
18
  0
DICTIONARY
  5
19
330
C
100
AcDbDictionary
  0
ENDSEC
  0
EOF
