  0
SECTION
  2
HEADER
  9
$ANGBASE
  50
0.0
  9
$ANGDIR
  70
1
  9
$MEASUREMENT
  70
1
  0
ENDSEC
  0
SECTION
  2
TABLES
  0
TABLE
  2
LTYPE
  70
4
  0
LTYPE
  5
40F
  2
CONTINUOUS
  70
0
  3
Solid line
  72
65
  73
0
  40
0.0
  0
LTYPE
  5
410
  2
DASHDOT
 70
0
  3
Dash Dot ____ _ ____ _
 72
65
 73
4
 40
2.0
 49
1.25
 49
-0.25
 49
0.25
 49
-0.25
  0
LTYPE
  5
411
  2
DASHED
 70
0
  3
Dashed __ __ __ __ __
 72
65
 73
2
 40
0.75
 49
0.5
 49
-0.25
  0
LTYPE
  5
43B
  2
DOTTED
 70
0
  3
Dotted .  .  .  .
 72
65
 73
2
 40
0.2
 49
0.0
 49
-0.2
  0
ENDTAB
  0
TABLE
  2
STYLE
  70
4
  0
STYLE
  2
KICAD
  70
0
  40
0
  41
1
  42
1
  50
0
  71
0
  3
isocp.shx
  0
STYLE
  2
KICADB
  70
0
  40
0
  41
1
  42
1
  50
0
  71
0
  3
isocp.shx
  0
STYLE
  2
KICADI
  70
0
  40
0
  41
1
  42
1
  50
15
  71
0
  3
isocp.shx
  0
STYLE
  2
KICADBI
  70
0
  40
0
  41
1
  42
1
  50
15
  71
0
  3
isocp.shx
  0
ENDTAB
  0
TABLE
  2
LAYER
  70
1
  0
LAYER
  2
BLACK
  70
0
  62
7
  6
CONTINUOUS
  0
ENDTAB
  0
ENDSEC
  0
SECTION
  2
ENTITIES
0
LINE
8
BLACK
6
CONTINUOUS
10
65.77
20
-32.6
11
65.7817
21
-32.5988
0
LINE
8
BLACK
6
CONTINUOUS
10
65.7817
20
-32.5988
11
65.793
21
-32.5954
0
LINE
8
BLACK
6
CONTINUOUS
10
65.793
20
-32.5954
11
65.8033
21
-32.5899
0
LINE
8
BLACK
6
CONTINUOUS
10
65.8033
20
-32.5899
11
65.8124
21
-32.5824
0
LINE
8
BLACK
6
CONTINUOUS
10
65.8124
20
-32.5824
11
65.8199
21
-32.5733
0
LINE
8
BLACK
6
CONTINUOUS
10
65.8199
20
-32.5733
11
65.8254
21
-32.563
0
LINE
8
BLACK
6
CONTINUOUS
10
65.8254
20
-32.563
11
65.8288
21
-32.5517
0
LINE
8
BLACK
6
CONTINUOUS
10
65.8288
20
-32.5517
11
65.83
21
-32.54
0
LINE
8
BLACK
6
CONTINUOUS
10
65.83
20
-32.54
11
65.8288
21
-32.5283
0
LINE
8
BLACK
6
CONTINUOUS
10
65.8288
20
-32.5283
11
65.8254
21
-32.517
0
LINE
8
BLACK
6
CONTINUOUS
10
65.8254
20
-32.517
11
65.8199
21
-32.5067
0
LINE
8
BLACK
6
CONTINUOUS
10
65.8199
20
-32.5067
11
65.8124
21
-32.4976
0
LINE
8
BLACK
6
CONTINUOUS
10
65.8124
20
-32.4976
11
65.8033
21
-32.4901
0
LINE
8
BLACK
6
CONTINUOUS
10
65.8033
20
-32.4901
11
65.793
21
-32.4846
0
LINE
8
BLACK
6
CONTINUOUS
10
65.793
20
-32.4846
11
65.7817
21
-32.4812
0
LINE
8
BLACK
6
CONTINUOUS
10
65.7817
20
-32.4812
11
65.77
21
-32.48
0
LINE
8
BLACK
6
CONTINUOUS
10
65.77
20
-32.48
11
63.77
21
-32.48
0
LINE
8
BLACK
6
CONTINUOUS
10
63.77
20
-32.48
11
63.7583
21
-32.4812
0
LINE
8
BLACK
6
CONTINUOUS
10
63.7583
20
-32.4812
11
63.747
21
-32.4846
0
LINE
8
BLACK
6
CONTINUOUS
10
63.747
20
-32.4846
11
63.7367
21
-32.4901
0
LINE
8
BLACK
6
CONTINUOUS
10
63.7367
20
-32.4901
11
63.7276
21
-32.4976
0
LINE
8
BLACK
6
CONTINUOUS
10
63.7276
20
-32.4976
11
63.7201
21
-32.5067
0
LINE
8
BLACK
6
CONTINUOUS
10
63.7201
20
-32.5067
11
63.7146
21
-32.517
0
LINE
8
BLACK
6
CONTINUOUS
10
63.7146
20
-32.517
11
63.7112
21
-32.5283
0
LINE
8
BLACK
6
CONTINUOUS
10
63.7112
20
-32.5283
11
63.71
21
-32.54
0
LINE
8
BLACK
6
CONTINUOUS
10
63.71
20
-32.54
11
63.7112
21
-32.5517
0
LINE
8
BLACK
6
CONTINUOUS
10
63.7112
20
-32.5517
11
63.7146
21
-32.563
0
LINE
8
BLACK
6
CONTINUOUS
10
63.7146
20
-32.563
11
63.7201
21
-32.5733
0
LINE
8
BLACK
6
CONTINUOUS
10
63.7201
20
-32.5733
11
63.7276
21
-32.5824
0
LINE
8
BLACK
6
CONTINUOUS
10
63.7276
20
-32.5824
11
63.7367
21
-32.5899
0
LINE
8
BLACK
6
CONTINUOUS
10
63.7367
20
-32.5899
11
63.747
21
-32.5954
0
LINE
8
BLACK
6
CONTINUOUS
10
63.747
20
-32.5954
11
63.7583
21
-32.5988
0
LINE
8
BLACK
6
CONTINUOUS
10
63.7583
20
-32.5988
11
63.77
21
-32.6
0
LINE
8
BLACK
6
CONTINUOUS
10
63.77
20
-32.6
11
65.77
21
-32.6
0
LINE
8
BLACK
6
CONTINUOUS
10
63.83
20
-32.54
11
63.8288
21
-32.5283
0
LINE
8
BLACK
6
CONTINUOUS
10
63.8288
20
-32.5283
11
63.8254
21
-32.517
0
LINE
8
BLACK
6
CONTINUOUS
10
63.8254
20
-32.517
11
63.8199
21
-32.5067
0
LINE
8
BLACK
6
CONTINUOUS
10
63.8199
20
-32.5067
11
63.8124
21
-32.4976
0
LINE
8
BLACK
6
CONTINUOUS
10
63.8124
20
-32.4976
11
63.8033
21
-32.4901
0
LINE
8
BLACK
6
CONTINUOUS
10
63.8033
20
-32.4901
11
63.793
21
-32.4846
0
LINE
8
BLACK
6
CONTINUOUS
10
63.793
20
-32.4846
11
63.7817
21
-32.4812
0
LINE
8
BLACK
6
CONTINUOUS
10
63.7817
20
-32.4812
11
63.77
21
-32.48
0
LINE
8
BLACK
6
CONTINUOUS
10
63.77
20
-32.48
11
63.7583
21
-32.4812
0
LINE
8
BLACK
6
CONTINUOUS
10
63.7583
20
-32.4812
11
63.747
21
-32.4846
0
LINE
8
BLACK
6
CONTINUOUS
10
63.747
20
-32.4846
11
63.7367
21
-32.4901
0
LINE
8
BLACK
6
CONTINUOUS
10
63.7367
20
-32.4901
11
63.7276
21
-32.4976
0
LINE
8
BLACK
6
CONTINUOUS
10
63.7276
20
-32.4976
11
63.7201
21
-32.5067
0
LINE
8
BLACK
6
CONTINUOUS
10
63.7201
20
-32.5067
11
63.7146
21
-32.517
0
LINE
8
BLACK
6
CONTINUOUS
10
63.7146
20
-32.517
11
63.7112
21
-32.5283
0
LINE
8
BLACK
6
CONTINUOUS
10
63.7112
20
-32.5283
11
63.71
21
-32.54
0
LINE
8
BLACK
6
CONTINUOUS
10
63.71
20
-32.54
11
63.71
21
-36.04
0
LINE
8
BLACK
6
CONTINUOUS
10
63.71
20
-36.04
11
63.7112
21
-36.0517
0
LINE
8
BLACK
6
CONTINUOUS
10
63.7112
20
-36.0517
11
63.7146
21
-36.063
0
LINE
8
BLACK
6
CONTINUOUS
10
63.7146
20
-36.063
11
63.7201
21
-36.0733
0
LINE
8
BLACK
6
CONTINUOUS
10
63.7201
20
-36.0733
11
63.7276
21
-36.0824
0
LINE
8
BLACK
6
CONTINUOUS
10
63.7276
20
-36.0824
11
63.7367
21
-36.0899
0
LINE
8
BLACK
6
CONTINUOUS
10
63.7367
20
-36.0899
11
63.747
21
-36.0954
0
LINE
8
BLACK
6
CONTINUOUS
10
63.747
20
-36.0954
11
63.7583
21
-36.0988
0
LINE
8
BLACK
6
CONTINUOUS
10
63.7583
20
-36.0988
11
63.77
21
-36.1
0
LINE
8
BLACK
6
CONTINUOUS
10
63.77
20
-36.1
11
63.7817
21
-36.0988
0
LINE
8
BLACK
6
CONTINUOUS
10
63.7817
20
-36.0988
11
63.793
21
-36.0954
0
LINE
8
BLACK
6
CONTINUOUS
10
63.793
20
-36.0954
11
63.8033
21
-36.0899
0
LINE
8
BLACK
6
CONTINUOUS
10
63.8033
20
-36.0899
11
63.8124
21
-36.0824
0
LINE
8
BLACK
6
CONTINUOUS
10
63.8124
20
-36.0824
11
63.8199
21
-36.0733
0
LINE
8
BLACK
6
CONTINUOUS
10
63.8199
20
-36.0733
11
63.8254
21
-36.063
0
LINE
8
BLACK
6
CONTINUOUS
10
63.8254
20
-36.063
11
63.8288
21
-36.0517
0
LINE
8
BLACK
6
CONTINUOUS
10
63.8288
20
-36.0517
11
63.83
21
-36.04
0
LINE
8
BLACK
6
CONTINUOUS
10
63.83
20
-36.04
11
63.83
21
-32.54
0
LINE
8
BLACK
6
CONTINUOUS
10
65.77
20
-36.1
11
65.7817
21
-36.0988
0
LINE
8
BLACK
6
CONTINUOUS
10
65.7817
20
-36.0988
11
65.793
21
-36.0954
0
LINE
8
BLACK
6
CONTINUOUS
10
65.793
20
-36.0954
11
65.8033
21
-36.0899
0
LINE
8
BLACK
6
CONTINUOUS
10
65.8033
20
-36.0899
11
65.8124
21
-36.0824
0
LINE
8
BLACK
6
CONTINUOUS
10
65.8124
20
-36.0824
11
65.8199
21
-36.0733
0
LINE
8
BLACK
6
CONTINUOUS
10
65.8199
20
-36.0733
11
65.8254
21
-36.063
0
LINE
8
BLACK
6
CONTINUOUS
10
65.8254
20
-36.063
11
65.8288
21
-36.0517
0
LINE
8
BLACK
6
CONTINUOUS
10
65.8288
20
-36.0517
11
65.83
21
-36.04
0
LINE
8
BLACK
6
CONTINUOUS
10
65.83
20
-36.04
11
65.8288
21
-36.0283
0
LINE
8
BLACK
6
CONTINUOUS
10
65.8288
20
-36.0283
11
65.8254
21
-36.017
0
LINE
8
BLACK
6
CONTINUOUS
10
65.8254
20
-36.017
11
65.8199
21
-36.0067
0
LINE
8
BLACK
6
CONTINUOUS
10
65.8199
20
-36.0067
11
65.8124
21
-35.9976
0
LINE
8
BLACK
6
CONTINUOUS
10
65.8124
20
-35.9976
11
65.8033
21
-35.9901
0
LINE
8
BLACK
6
CONTINUOUS
10
65.8033
20
-35.9901
11
65.793
21
-35.9846
0
LINE
8
BLACK
6
CONTINUOUS
10
65.793
20
-35.9846
11
65.7817
21
-35.9812
0
LINE
8
BLACK
6
CONTINUOUS
10
65.7817
20
-35.9812
11
65.77
21
-35.98
0
LINE
8
BLACK
6
CONTINUOUS
10
65.77
20
-35.98
11
63.77
21
-35.98
0
LINE
8
BLACK
6
CONTINUOUS
10
63.77
20
-35.98
11
63.7583
21
-35.9812
0
LINE
8
BLACK
6
CONTINUOUS
10
63.7583
20
-35.9812
11
63.747
21
-35.9846
0
LINE
8
BLACK
6
CONTINUOUS
10
63.747
20
-35.9846
11
63.7367
21
-35.9901
0
LINE
8
BLACK
6
CONTINUOUS
10
63.7367
20
-35.9901
11
63.7276
21
-35.9976
0
LINE
8
BLACK
6
CONTINUOUS
10
63.7276
20
-35.9976
11
63.7201
21
-36.0067
0
LINE
8
BLACK
6
CONTINUOUS
10
63.7201
20
-36.0067
11
63.7146
21
-36.017
0
LINE
8
BLACK
6
CONTINUOUS
10
63.7146
20
-36.017
11
63.7112
21
-36.0283
0
LINE
8
BLACK
6
CONTINUOUS
10
63.7112
20
-36.0283
11
63.71
21
-36.04
0
LINE
8
BLACK
6
CONTINUOUS
10
63.71
20
-36.04
11
63.7112
21
-36.0517
0
LINE
8
BLACK
6
CONTINUOUS
10
63.7112
20
-36.0517
11
63.7146
21
-36.063
0
LINE
8
BLACK
6
CONTINUOUS
10
63.7146
20
-36.063
11
63.7201
21
-36.0733
0
LINE
8
BLACK
6
CONTINUOUS
10
63.7201
20
-36.0733
11
63.7276
21
-36.0824
0
LINE
8
BLACK
6
CONTINUOUS
10
63.7276
20
-36.0824
11
63.7367
21
-36.0899
0
LINE
8
BLACK
6
CONTINUOUS
10
63.7367
20
-36.0899
11
63.747
21
-36.0954
0
LINE
8
BLACK
6
CONTINUOUS
10
63.747
20
-36.0954
11
63.7583
21
-36.0988
0
LINE
8
BLACK
6
CONTINUOUS
10
63.7583
20
-36.0988
11
63.77
21
-36.1
0
LINE
8
BLACK
6
CONTINUOUS
10
63.77
20
-36.1
11
65.77
21
-36.1
0
LINE
8
BLACK
6
CONTINUOUS
10
65.71
20
-36.04
11
65.7112
21
-36.0517
0
LINE
8
BLACK
6
CONTINUOUS
10
65.7112
20
-36.0517
11
65.7146
21
-36.063
0
LINE
8
BLACK
6
CONTINUOUS
10
65.7146
20
-36.063
11
65.7201
21
-36.0733
0
LINE
8
BLACK
6
CONTINUOUS
10
65.7201
20
-36.0733
11
65.7276
21
-36.0824
0
LINE
8
BLACK
6
CONTINUOUS
10
65.7276
20
-36.0824
11
65.7367
21
-36.0899
0
LINE
8
BLACK
6
CONTINUOUS
10
65.7367
20
-36.0899
11
65.747
21
-36.0954
0
LINE
8
BLACK
6
CONTINUOUS
10
65.747
20
-36.0954
11
65.7583
21
-36.0988
0
LINE
8
BLACK
6
CONTINUOUS
10
65.7583
20
-36.0988
11
65.77
21
-36.1
0
LINE
8
BLACK
6
CONTINUOUS
10
65.77
20
-36.1
11
65.7817
21
-36.0988
0
LINE
8
BLACK
6
CONTINUOUS
10
65.7817
20
-36.0988
11
65.793
21
-36.0954
0
LINE
8
BLACK
6
CONTINUOUS
10
65.793
20
-36.0954
11
65.8033
21
-36.0899
0
LINE
8
BLACK
6
CONTINUOUS
10
65.8033
20
-36.0899
11
65.8124
21
-36.0824
0
LINE
8
BLACK
6
CONTINUOUS
10
65.8124
20
-36.0824
11
65.8199
21
-36.0733
0
LINE
8
BLACK
6
CONTINUOUS
10
65.8199
20
-36.0733
11
65.8254
21
-36.063
0
LINE
8
BLACK
6
CONTINUOUS
10
65.8254
20
-36.063
11
65.8288
21
-36.0517
0
LINE
8
BLACK
6
CONTINUOUS
10
65.8288
20
-36.0517
11
65.83
21
-36.04
0
LINE
8
BLACK
6
CONTINUOUS
10
65.83
20
-36.04
11
65.83
21
-32.54
0
LINE
8
BLACK
6
CONTINUOUS
10
65.83
20
-32.54
11
65.8288
21
-32.5283
0
LINE
8
BLACK
6
CONTINUOUS
10
65.8288
20
-32.5283
11
65.8254
21
-32.517
0
LINE
8
BLACK
6
CONTINUOUS
10
65.8254
20
-32.517
11
65.8199
21
-32.5067
0
LINE
8
BLACK
6
CONTINUOUS
10
65.8199
20
-32.5067
11
65.8124
21
-32.4976
0
LINE
8
BLACK
6
CONTINUOUS
10
65.8124
20
-32.4976
11
65.8033
21
-32.4901
0
LINE
8
BLACK
6
CONTINUOUS
10
65.8033
20
-32.4901
11
65.793
21
-32.4846
0
LINE
8
BLACK
6
CONTINUOUS
10
65.793
20
-32.4846
11
65.7817
21
-32.4812
0
LINE
8
BLACK
6
CONTINUOUS
10
65.7817
20
-32.4812
11
65.77
21
-32.48
0
LINE
8
BLACK
6
CONTINUOUS
10
65.77
20
-32.48
11
65.7583
21
-32.4812
0
LINE
8
BLACK
6
CONTINUOUS
10
65.7583
20
-32.4812
11
65.747
21
-32.4846
0
LINE
8
BLACK
6
CONTINUOUS
10
65.747
20
-32.4846
11
65.7367
21
-32.4901
0
LINE
8
BLACK
6
CONTINUOUS
10
65.7367
20
-32.4901
11
65.7276
21
-32.4976
0
LINE
8
BLACK
6
CONTINUOUS
10
65.7276
20
-32.4976
11
65.7201
21
-32.5067
0
LINE
8
BLACK
6
CONTINUOUS
10
65.7201
20
-32.5067
11
65.7146
21
-32.517
0
LINE
8
BLACK
6
CONTINUOUS
10
65.7146
20
-32.517
11
65.7112
21
-32.5283
0
LINE
8
BLACK
6
CONTINUOUS
10
65.7112
20
-32.5283
11
65.71
21
-32.54
0
LINE
8
BLACK
6
CONTINUOUS
10
65.71
20
-32.54
11
65.71
21
-36.04
0
LINE
8
BLACK
6
CONTINUOUS
10
60.69
20
-32.6
11
60.7017
21
-32.5988
0
LINE
8
BLACK
6
CONTINUOUS
10
60.7017
20
-32.5988
11
60.713
21
-32.5954
0
LINE
8
BLACK
6
CONTINUOUS
10
60.713
20
-32.5954
11
60.7233
21
-32.5899
0
LINE
8
BLACK
6
CONTINUOUS
10
60.7233
20
-32.5899
11
60.7324
21
-32.5824
0
LINE
8
BLACK
6
CONTINUOUS
10
60.7324
20
-32.5824
11
60.7399
21
-32.5733
0
LINE
8
BLACK
6
CONTINUOUS
10
60.7399
20
-32.5733
11
60.7454
21
-32.563
0
LINE
8
BLACK
6
CONTINUOUS
10
60.7454
20
-32.563
11
60.7488
21
-32.5517
0
LINE
8
BLACK
6
CONTINUOUS
10
60.7488
20
-32.5517
11
60.75
21
-32.54
0
LINE
8
BLACK
6
CONTINUOUS
10
60.75
20
-32.54
11
60.7488
21
-32.5283
0
LINE
8
BLACK
6
CONTINUOUS
10
60.7488
20
-32.5283
11
60.7454
21
-32.517
0
LINE
8
BLACK
6
CONTINUOUS
10
60.7454
20
-32.517
11
60.7399
21
-32.5067
0
LINE
8
BLACK
6
CONTINUOUS
10
60.7399
20
-32.5067
11
60.7324
21
-32.4976
0
LINE
8
BLACK
6
CONTINUOUS
10
60.7324
20
-32.4976
11
60.7233
21
-32.4901
0
LINE
8
BLACK
6
CONTINUOUS
10
60.7233
20
-32.4901
11
60.713
21
-32.4846
0
LINE
8
BLACK
6
CONTINUOUS
10
60.713
20
-32.4846
11
60.7017
21
-32.4812
0
LINE
8
BLACK
6
CONTINUOUS
10
60.7017
20
-32.4812
11
60.69
21
-32.48
0
LINE
8
BLACK
6
CONTINUOUS
10
60.69
20
-32.48
11
58.69
21
-32.48
0
LINE
8
BLACK
6
CONTINUOUS
10
58.69
20
-32.48
11
58.6783
21
-32.4812
0
LINE
8
BLACK
6
CONTINUOUS
10
58.6783
20
-32.4812
11
58.667
21
-32.4846
0
LINE
8
BLACK
6
CONTINUOUS
10
58.667
20
-32.4846
11
58.6567
21
-32.4901
0
LINE
8
BLACK
6
CONTINUOUS
10
58.6567
20
-32.4901
11
58.6476
21
-32.4976
0
LINE
8
BLACK
6
CONTINUOUS
10
58.6476
20
-32.4976
11
58.6401
21
-32.5067
0
LINE
8
BLACK
6
CONTINUOUS
10
58.6401
20
-32.5067
11
58.6346
21
-32.517
0
LINE
8
BLACK
6
CONTINUOUS
10
58.6346
20
-32.517
11
58.6312
21
-32.5283
0
LINE
8
BLACK
6
CONTINUOUS
10
58.6312
20
-32.5283
11
58.63
21
-32.54
0
LINE
8
BLACK
6
CONTINUOUS
10
58.63
20
-32.54
11
58.6312
21
-32.5517
0
LINE
8
BLACK
6
CONTINUOUS
10
58.6312
20
-32.5517
11
58.6346
21
-32.563
0
LINE
8
BLACK
6
CONTINUOUS
10
58.6346
20
-32.563
11
58.6401
21
-32.5733
0
LINE
8
BLACK
6
CONTINUOUS
10
58.6401
20
-32.5733
11
58.6476
21
-32.5824
0
LINE
8
BLACK
6
CONTINUOUS
10
58.6476
20
-32.5824
11
58.6567
21
-32.5899
0
LINE
8
BLACK
6
CONTINUOUS
10
58.6567
20
-32.5899
11
58.667
21
-32.5954
0
LINE
8
BLACK
6
CONTINUOUS
10
58.667
20
-32.5954
11
58.6783
21
-32.5988
0
LINE
8
BLACK
6
CONTINUOUS
10
58.6783
20
-32.5988
11
58.69
21
-32.6
0
LINE
8
BLACK
6
CONTINUOUS
10
58.69
20
-32.6
11
60.69
21
-32.6
0
LINE
8
BLACK
6
CONTINUOUS
10
58.75
20
-32.54
11
58.7488
21
-32.5283
0
LINE
8
BLACK
6
CONTINUOUS
10
58.7488
20
-32.5283
11
58.7454
21
-32.517
0
LINE
8
BLACK
6
CONTINUOUS
10
58.7454
20
-32.517
11
58.7399
21
-32.5067
0
LINE
8
BLACK
6
CONTINUOUS
10
58.7399
20
-32.5067
11
58.7324
21
-32.4976
0
LINE
8
BLACK
6
CONTINUOUS
10
58.7324
20
-32.4976
11
58.7233
21
-32.4901
0
LINE
8
BLACK
6
CONTINUOUS
10
58.7233
20
-32.4901
11
58.713
21
-32.4846
0
LINE
8
BLACK
6
CONTINUOUS
10
58.713
20
-32.4846
11
58.7017
21
-32.4812
0
LINE
8
BLACK
6
CONTINUOUS
10
58.7017
20
-32.4812
11
58.69
21
-32.48
0
LINE
8
BLACK
6
CONTINUOUS
10
58.69
20
-32.48
11
58.6783
21
-32.4812
0
LINE
8
BLACK
6
CONTINUOUS
10
58.6783
20
-32.4812
11
58.667
21
-32.4846
0
LINE
8
BLACK
6
CONTINUOUS
10
58.667
20
-32.4846
11
58.6567
21
-32.4901
0
LINE
8
BLACK
6
CONTINUOUS
10
58.6567
20
-32.4901
11
58.6476
21
-32.4976
0
LINE
8
BLACK
6
CONTINUOUS
10
58.6476
20
-32.4976
11
58.6401
21
-32.5067
0
LINE
8
BLACK
6
CONTINUOUS
10
58.6401
20
-32.5067
11
58.6346
21
-32.517
0
LINE
8
BLACK
6
CONTINUOUS
10
58.6346
20
-32.517
11
58.6312
21
-32.5283
0
LINE
8
BLACK
6
CONTINUOUS
10
58.6312
20
-32.5283
11
58.63
21
-32.54
0
LINE
8
BLACK
6
CONTINUOUS
10
58.63
20
-32.54
11
58.63
21
-36.04
0
LINE
8
BLACK
6
CONTINUOUS
10
58.63
20
-36.04
11
58.6312
21
-36.0517
0
LINE
8
BLACK
6
CONTINUOUS
10
58.6312
20
-36.0517
11
58.6346
21
-36.063
0
LINE
8
BLACK
6
CONTINUOUS
10
58.6346
20
-36.063
11
58.6401
21
-36.0733
0
LINE
8
BLACK
6
CONTINUOUS
10
58.6401
20
-36.0733
11
58.6476
21
-36.0824
0
LINE
8
BLACK
6
CONTINUOUS
10
58.6476
20
-36.0824
11
58.6567
21
-36.0899
0
LINE
8
BLACK
6
CONTINUOUS
10
58.6567
20
-36.0899
11
58.667
21
-36.0954
0
LINE
8
BLACK
6
CONTINUOUS
10
58.667
20
-36.0954
11
58.6783
21
-36.0988
0
LINE
8
BLACK
6
CONTINUOUS
10
58.6783
20
-36.0988
11
58.69
21
-36.1
0
LINE
8
BLACK
6
CONTINUOUS
10
58.69
20
-36.1
11
58.7017
21
-36.0988
0
LINE
8
BLACK
6
CONTINUOUS
10
58.7017
20
-36.0988
11
58.713
21
-36.0954
0
LINE
8
BLACK
6
CONTINUOUS
10
58.713
20
-36.0954
11
58.7233
21
-36.0899
0
LINE
8
BLACK
6
CONTINUOUS
10
58.7233
20
-36.0899
11
58.7324
21
-36.0824
0
LINE
8
BLACK
6
CONTINUOUS
10
58.7324
20
-36.0824
11
58.7399
21
-36.0733
0
LINE
8
BLACK
6
CONTINUOUS
10
58.7399
20
-36.0733
11
58.7454
21
-36.063
0
LINE
8
BLACK
6
CONTINUOUS
10
58.7454
20
-36.063
11
58.7488
21
-36.0517
0
LINE
8
BLACK
6
CONTINUOUS
10
58.7488
20
-36.0517
11
58.75
21
-36.04
0
LINE
8
BLACK
6
CONTINUOUS
10
58.75
20
-36.04
11
58.75
21
-32.54
0
LINE
8
BLACK
6
CONTINUOUS
10
60.69
20
-36.1
11
60.7017
21
-36.0988
0
LINE
8
BLACK
6
CONTINUOUS
10
60.7017
20
-36.0988
11
60.713
21
-36.0954
0
LINE
8
BLACK
6
CONTINUOUS
10
60.713
20
-36.0954
11
60.7233
21
-36.0899
0
LINE
8
BLACK
6
CONTINUOUS
10
60.7233
20
-36.0899
11
60.7324
21
-36.0824
0
LINE
8
BLACK
6
CONTINUOUS
10
60.7324
20
-36.0824
11
60.7399
21
-36.0733
0
LINE
8
BLACK
6
CONTINUOUS
10
60.7399
20
-36.0733
11
60.7454
21
-36.063
0
LINE
8
BLACK
6
CONTINUOUS
10
60.7454
20
-36.063
11
60.7488
21
-36.0517
0
LINE
8
BLACK
6
CONTINUOUS
10
60.7488
20
-36.0517
11
60.75
21
-36.04
0
LINE
8
BLACK
6
CONTINUOUS
10
60.75
20
-36.04
11
60.7488
21
-36.0283
0
LINE
8
BLACK
6
CONTINUOUS
10
60.7488
20
-36.0283
11
60.7454
21
-36.017
0
LINE
8
BLACK
6
CONTINUOUS
10
60.7454
20
-36.017
11
60.7399
21
-36.0067
0
LINE
8
BLACK
6
CONTINUOUS
10
60.7399
20
-36.0067
11
60.7324
21
-35.9976
0
LINE
8
BLACK
6
CONTINUOUS
10
60.7324
20
-35.9976
11
60.7233
21
-35.9901
0
LINE
8
BLACK
6
CONTINUOUS
10
60.7233
20
-35.9901
11
60.713
21
-35.9846
0
LINE
8
BLACK
6
CONTINUOUS
10
60.713
20
-35.9846
11
60.7017
21
-35.9812
0
LINE
8
BLACK
6
CONTINUOUS
10
60.7017
20
-35.9812
11
60.69
21
-35.98
0
LINE
8
BLACK
6
CONTINUOUS
10
60.69
20
-35.98
11
58.69
21
-35.98
0
LINE
8
BLACK
6
CONTINUOUS
10
58.69
20
-35.98
11
58.6783
21
-35.9812
0
LINE
8
BLACK
6
CONTINUOUS
10
58.6783
20
-35.9812
11
58.667
21
-35.9846
0
LINE
8
BLACK
6
CONTINUOUS
10
58.667
20
-35.9846
11
58.6567
21
-35.9901
0
LINE
8
BLACK
6
CONTINUOUS
10
58.6567
20
-35.9901
11
58.6476
21
-35.9976
0
LINE
8
BLACK
6
CONTINUOUS
10
58.6476
20
-35.9976
11
58.6401
21
-36.0067
0
LINE
8
BLACK
6
CONTINUOUS
10
58.6401
20
-36.0067
11
58.6346
21
-36.017
0
LINE
8
BLACK
6
CONTINUOUS
10
58.6346
20
-36.017
11
58.6312
21
-36.0283
0
LINE
8
BLACK
6
CONTINUOUS
10
58.6312
20
-36.0283
11
58.63
21
-36.04
0
LINE
8
BLACK
6
CONTINUOUS
10
58.63
20
-36.04
11
58.6312
21
-36.0517
0
LINE
8
BLACK
6
CONTINUOUS
10
58.6312
20
-36.0517
11
58.6346
21
-36.063
0
LINE
8
BLACK
6
CONTINUOUS
10
58.6346
20
-36.063
11
58.6401
21
-36.0733
0
LINE
8
BLACK
6
CONTINUOUS
10
58.6401
20
-36.0733
11
58.6476
21
-36.0824
0
LINE
8
BLACK
6
CONTINUOUS
10
58.6476
20
-36.0824
11
58.6567
21
-36.0899
0
LINE
8
BLACK
6
CONTINUOUS
10
58.6567
20
-36.0899
11
58.667
21
-36.0954
0
LINE
8
BLACK
6
CONTINUOUS
10
58.667
20
-36.0954
11
58.6783
21
-36.0988
0
LINE
8
BLACK
6
CONTINUOUS
10
58.6783
20
-36.0988
11
58.69
21
-36.1
0
LINE
8
BLACK
6
CONTINUOUS
10
58.69
20
-36.1
11
60.69
21
-36.1
0
LINE
8
BLACK
6
CONTINUOUS
10
60.63
20
-36.04
11
60.6312
21
-36.0517
0
LINE
8
BLACK
6
CONTINUOUS
10
60.6312
20
-36.0517
11
60.6346
21
-36.063
0
LINE
8
BLACK
6
CONTINUOUS
10
60.6346
20
-36.063
11
60.6401
21
-36.0733
0
LINE
8
BLACK
6
CONTINUOUS
10
60.6401
20
-36.0733
11
60.6476
21
-36.0824
0
LINE
8
BLACK
6
CONTINUOUS
10
60.6476
20
-36.0824
11
60.6567
21
-36.0899
0
LINE
8
BLACK
6
CONTINUOUS
10
60.6567
20
-36.0899
11
60.667
21
-36.0954
0
LINE
8
BLACK
6
CONTINUOUS
10
60.667
20
-36.0954
11
60.6783
21
-36.0988
0
LINE
8
BLACK
6
CONTINUOUS
10
60.6783
20
-36.0988
11
60.69
21
-36.1
0
LINE
8
BLACK
6
CONTINUOUS
10
60.69
20
-36.1
11
60.7017
21
-36.0988
0
LINE
8
BLACK
6
CONTINUOUS
10
60.7017
20
-36.0988
11
60.713
21
-36.0954
0
LINE
8
BLACK
6
CONTINUOUS
10
60.713
20
-36.0954
11
60.7233
21
-36.0899
0
LINE
8
BLACK
6
CONTINUOUS
10
60.7233
20
-36.0899
11
60.7324
21
-36.0824
0
LINE
8
BLACK
6
CONTINUOUS
10
60.7324
20
-36.0824
11
60.7399
21
-36.0733
0
LINE
8
BLACK
6
CONTINUOUS
10
60.7399
20
-36.0733
11
60.7454
21
-36.063
0
LINE
8
BLACK
6
CONTINUOUS
10
60.7454
20
-36.063
11
60.7488
21
-36.0517
0
LINE
8
BLACK
6
CONTINUOUS
10
60.7488
20
-36.0517
11
60.75
21
-36.04
0
LINE
8
BLACK
6
CONTINUOUS
10
60.75
20
-36.04
11
60.75
21
-32.54
0
LINE
8
BLACK
6
CONTINUOUS
10
60.75
20
-32.54
11
60.7488
21
-32.5283
0
LINE
8
BLACK
6
CONTINUOUS
10
60.7488
20
-32.5283
11
60.7454
21
-32.517
0
LINE
8
BLACK
6
CONTINUOUS
10
60.7454
20
-32.517
11
60.7399
21
-32.5067
0
LINE
8
BLACK
6
CONTINUOUS
10
60.7399
20
-32.5067
11
60.7324
21
-32.4976
0
LINE
8
BLACK
6
CONTINUOUS
10
60.7324
20
-32.4976
11
60.7233
21
-32.4901
0
LINE
8
BLACK
6
CONTINUOUS
10
60.7233
20
-32.4901
11
60.713
21
-32.4846
0
LINE
8
BLACK
6
CONTINUOUS
10
60.713
20
-32.4846
11
60.7017
21
-32.4812
0
LINE
8
BLACK
6
CONTINUOUS
10
60.7017
20
-32.4812
11
60.69
21
-32.48
0
LINE
8
BLACK
6
CONTINUOUS
10
60.69
20
-32.48
11
60.6783
21
-32.4812
0
LINE
8
BLACK
6
CONTINUOUS
10
60.6783
20
-32.4812
11
60.667
21
-32.4846
0
LINE
8
BLACK
6
CONTINUOUS
10
60.667
20
-32.4846
11
60.6567
21
-32.4901
0
LINE
8
BLACK
6
CONTINUOUS
10
60.6567
20
-32.4901
11
60.6476
21
-32.4976
0
LINE
8
BLACK
6
CONTINUOUS
10
60.6476
20
-32.4976
11
60.6401
21
-32.5067
0
LINE
8
BLACK
6
CONTINUOUS
10
60.6401
20
-32.5067
11
60.6346
21
-32.517
0
LINE
8
BLACK
6
CONTINUOUS
10
60.6346
20
-32.517
11
60.6312
21
-32.5283
0
LINE
8
BLACK
6
CONTINUOUS
10
60.6312
20
-32.5283
11
60.63
21
-32.54
0
LINE
8
BLACK
6
CONTINUOUS
10
60.63
20
-32.54
11
60.63
21
-36.04
  0
ENDSEC
  0
EOF
