G04 #@! TF.GenerationSoftware,KiCad,Pcbnew,8.0.4-1.fc40*
G04 #@! TF.CreationDate,2024-09-25T16:47:45-07:00*
G04 #@! TF.ProjectId,syzygy-dsi,73797a79-6779-42d6-9473-692e6b696361,A*
G04 #@! TF.SameCoordinates,Original*
G04 #@! TF.FileFunction,Copper,L4,Bot*
G04 #@! TF.FilePolarity,Positive*
%FSLAX46Y46*%
G04 Gerber Fmt 4.6, Leading zero omitted, Abs format (unit mm)*
G04 Created by KiCad (PCBNEW 8.0.4-1.fc40) date 2024-09-25 16:47:45*
%MOMM*%
%LPD*%
G01*
G04 APERTURE LIST*
G04 Aperture macros list*
%AMRoundRect*
0 Rectangle with rounded corners*
0 $1 Rounding radius*
0 $2 $3 $4 $5 $6 $7 $8 $9 X,Y pos of 4 corners*
0 Add a 4 corners polygon primitive as box body*
4,1,4,$2,$3,$4,$5,$6,$7,$8,$9,$2,$3,0*
0 Add four circle primitives for the rounded corners*
1,1,$1+$1,$2,$3*
1,1,$1+$1,$4,$5*
1,1,$1+$1,$6,$7*
1,1,$1+$1,$8,$9*
0 Add four rect primitives between the rounded corners*
20,1,$1+$1,$2,$3,$4,$5,0*
20,1,$1+$1,$4,$5,$6,$7,0*
20,1,$1+$1,$6,$7,$8,$9,0*
20,1,$1+$1,$8,$9,$2,$3,0*%
G04 Aperture macros list end*
G04 #@! TA.AperFunction,SMDPad,CuDef*
%ADD10RoundRect,0.200000X0.275000X-0.200000X0.275000X0.200000X-0.275000X0.200000X-0.275000X-0.200000X0*%
G04 #@! TD*
G04 #@! TA.AperFunction,SMDPad,CuDef*
%ADD11R,2.540000X0.640000*%
G04 #@! TD*
G04 #@! TA.AperFunction,SMDPad,CuDef*
%ADD12R,4.700000X0.640000*%
G04 #@! TD*
G04 #@! TA.AperFunction,SMDPad,CuDef*
%ADD13R,0.460000X1.450000*%
G04 #@! TD*
G04 #@! TA.AperFunction,ComponentPad*
%ADD14C,1.200000*%
G04 #@! TD*
G04 #@! TA.AperFunction,SMDPad,CuDef*
%ADD15RoundRect,0.200000X-0.200000X-0.275000X0.200000X-0.275000X0.200000X0.275000X-0.200000X0.275000X0*%
G04 #@! TD*
G04 #@! TA.AperFunction,SMDPad,CuDef*
%ADD16RoundRect,0.225000X0.225000X0.250000X-0.225000X0.250000X-0.225000X-0.250000X0.225000X-0.250000X0*%
G04 #@! TD*
G04 #@! TA.AperFunction,SMDPad,CuDef*
%ADD17RoundRect,0.225000X-0.250000X0.225000X-0.250000X-0.225000X0.250000X-0.225000X0.250000X0.225000X0*%
G04 #@! TD*
G04 #@! TA.AperFunction,SMDPad,CuDef*
%ADD18RoundRect,0.200000X0.200000X0.275000X-0.200000X0.275000X-0.200000X-0.275000X0.200000X-0.275000X0*%
G04 #@! TD*
G04 #@! TA.AperFunction,SMDPad,CuDef*
%ADD19RoundRect,0.250000X0.475000X-0.250000X0.475000X0.250000X-0.475000X0.250000X-0.475000X-0.250000X0*%
G04 #@! TD*
G04 #@! TA.AperFunction,SMDPad,CuDef*
%ADD20R,0.300000X0.800000*%
G04 #@! TD*
G04 #@! TA.AperFunction,SMDPad,CuDef*
%ADD21R,0.400000X0.800000*%
G04 #@! TD*
G04 #@! TA.AperFunction,SMDPad,CuDef*
%ADD22R,0.450000X1.450000*%
G04 #@! TD*
G04 #@! TA.AperFunction,SMDPad,CuDef*
%ADD23RoundRect,0.225000X-0.225000X-0.250000X0.225000X-0.250000X0.225000X0.250000X-0.225000X0.250000X0*%
G04 #@! TD*
G04 #@! TA.AperFunction,SMDPad,CuDef*
%ADD24RoundRect,0.225000X0.250000X-0.225000X0.250000X0.225000X-0.250000X0.225000X-0.250000X-0.225000X0*%
G04 #@! TD*
G04 #@! TA.AperFunction,ViaPad*
%ADD25C,0.800000*%
G04 #@! TD*
G04 #@! TA.AperFunction,Conductor*
%ADD26C,0.200000*%
G04 #@! TD*
G04 #@! TA.AperFunction,Conductor*
%ADD27C,1.000000*%
G04 #@! TD*
G04 #@! TA.AperFunction,Conductor*
%ADD28C,0.500000*%
G04 #@! TD*
G04 APERTURE END LIST*
D10*
G04 #@! TO.P,R1,1*
G04 #@! TO.N,+3.3V*
X122300000Y-75925000D03*
G04 #@! TO.P,R1,2*
G04 #@! TO.N,/R_GA*
X122300000Y-74275000D03*
G04 #@! TD*
D11*
G04 #@! TO.P,J1,0,GND*
G04 #@! TO.N,GND*
X133955320Y-65800000D03*
D12*
X139225320Y-65800000D03*
X145575320Y-65800000D03*
D11*
X150845320Y-65800000D03*
D13*
G04 #@! TO.P,J1,1,SCL*
G04 #@! TO.N,/MCU_SCL_USCK*
X134800320Y-68890000D03*
G04 #@! TO.P,J1,2,5V*
G04 #@! TO.N,unconnected-(J1-5V-Pad2)*
X134800320Y-62710000D03*
G04 #@! TO.P,J1,3,SDA*
G04 #@! TO.N,/MCU_SDA_MOSI*
X135600320Y-68890000D03*
G04 #@! TO.P,J1,4,R_GA*
G04 #@! TO.N,/R_GA*
X135600320Y-62710000D03*
G04 #@! TO.P,J1,5,S0_D0P*
G04 #@! TO.N,/S02_D0_P*
X136400320Y-68890000D03*
G04 #@! TO.P,J1,6,S1_D1P*
G04 #@! TO.N,/S13_D1_P*
X136400320Y-62710000D03*
G04 #@! TO.P,J1,7,S2_D0N*
G04 #@! TO.N,/S02_D0_N*
X137200320Y-68890000D03*
G04 #@! TO.P,J1,8,S3_D1N*
G04 #@! TO.N,/S13_D1_N*
X137200320Y-62710000D03*
G04 #@! TO.P,J1,9,S4_D2P*
G04 #@! TO.N,/S46_D2_P*
X138000320Y-68890000D03*
G04 #@! TO.P,J1,10,S5_D3P*
G04 #@! TO.N,/S57_D3_P*
X138000320Y-62710000D03*
G04 #@! TO.P,J1,11,S6_D2N*
G04 #@! TO.N,/S46_D2_N*
X138800320Y-68890000D03*
G04 #@! TO.P,J1,12,S7_D3N*
G04 #@! TO.N,/S57_D3_N*
X138800320Y-62710000D03*
G04 #@! TO.P,J1,13,S8_D4P*
G04 #@! TO.N,/S810_D4_P*
X139600320Y-68890000D03*
G04 #@! TO.P,J1,14,S9_D5P*
G04 #@! TO.N,/S911_D5_P*
X139600320Y-62710000D03*
G04 #@! TO.P,J1,15,S10_D4N*
G04 #@! TO.N,/S810_D4_N*
X140400320Y-68890000D03*
G04 #@! TO.P,J1,16,S11_D5N*
G04 #@! TO.N,/S911_D5_N*
X140400320Y-62710000D03*
G04 #@! TO.P,J1,17,S12_D6P*
G04 #@! TO.N,/S1214_D6_P*
X141200320Y-68890000D03*
G04 #@! TO.P,J1,18,S13_D7P*
G04 #@! TO.N,/S1315_D7_P*
X141200320Y-62710000D03*
G04 #@! TO.P,J1,19,S14_D6N*
G04 #@! TO.N,/S1214_D6_N*
X142000320Y-68890000D03*
G04 #@! TO.P,J1,20,S15_D7N*
G04 #@! TO.N,/S1315_D7_N*
X142000320Y-62710000D03*
G04 #@! TO.P,J1,21,S16*
G04 #@! TO.N,/S16*
X142800320Y-68890000D03*
G04 #@! TO.P,J1,22,S17*
G04 #@! TO.N,/S17*
X142800320Y-62710000D03*
G04 #@! TO.P,J1,23,S18*
G04 #@! TO.N,/S18*
X143600320Y-68890000D03*
G04 #@! TO.P,J1,24,S19*
G04 #@! TO.N,/S19*
X143600320Y-62710000D03*
G04 #@! TO.P,J1,25,S20*
G04 #@! TO.N,/S20*
X144400320Y-68890000D03*
G04 #@! TO.P,J1,26,S21*
G04 #@! TO.N,/S21*
X144400320Y-62710000D03*
G04 #@! TO.P,J1,27,S22*
G04 #@! TO.N,/S22*
X145200320Y-68890000D03*
G04 #@! TO.P,J1,28,S23*
G04 #@! TO.N,/S23*
X145200320Y-62710000D03*
G04 #@! TO.P,J1,29,S24*
G04 #@! TO.N,/S24*
X146000320Y-68890000D03*
G04 #@! TO.P,J1,30,S25*
G04 #@! TO.N,/S25*
X146000320Y-62710000D03*
G04 #@! TO.P,J1,31,S26*
G04 #@! TO.N,/S26*
X146800320Y-68890000D03*
G04 #@! TO.P,J1,32,S27*
G04 #@! TO.N,/S27*
X146800320Y-62710000D03*
G04 #@! TO.P,J1,33,P2C_CLKp*
G04 #@! TO.N,/P2C_CLKP*
X147600320Y-68890000D03*
G04 #@! TO.P,J1,34,C2P_CLKp*
G04 #@! TO.N,/C2P_CLK_P*
X147600320Y-62710000D03*
G04 #@! TO.P,J1,35,P2C_CLKn*
G04 #@! TO.N,/P2C_CLKN*
X148400320Y-68890000D03*
G04 #@! TO.P,J1,36,C2P_CLKn*
G04 #@! TO.N,/C2P_CLK_N*
X148400320Y-62710000D03*
G04 #@! TO.P,J1,37,RSVD*
G04 #@! TO.N,/RSVD_37*
X149200320Y-68890000D03*
G04 #@! TO.P,J1,38,RSVD*
G04 #@! TO.N,/RSVD_38*
X149200320Y-62710000D03*
G04 #@! TO.P,J1,39,VIO*
G04 #@! TO.N,VBUS*
X150000320Y-68890000D03*
G04 #@! TO.P,J1,40,+3.3V*
G04 #@! TO.N,+3.3V*
X150000320Y-62710000D03*
D14*
G04 #@! TO.P,J1,MH*
G04 #@! TO.N,N/C*
X131555320Y-66300000D03*
X153245320Y-66300000D03*
G04 #@! TD*
D15*
G04 #@! TO.P,R3,1*
G04 #@! TO.N,VBUS*
X156075000Y-74025000D03*
G04 #@! TO.P,R3,2*
G04 #@! TO.N,/S23*
X157725000Y-74025000D03*
G04 #@! TD*
D16*
G04 #@! TO.P,C3,1*
G04 #@! TO.N,+3.3V*
X160875000Y-71800000D03*
G04 #@! TO.P,C3,2*
G04 #@! TO.N,GND*
X159325000Y-71800000D03*
G04 #@! TD*
D17*
G04 #@! TO.P,C1,1*
G04 #@! TO.N,+3.3V*
X161900000Y-82250000D03*
G04 #@! TO.P,C1,2*
G04 #@! TO.N,GND*
X161900000Y-83800000D03*
G04 #@! TD*
D18*
G04 #@! TO.P,R2,1*
G04 #@! TO.N,VBUS*
X160725000Y-74025000D03*
G04 #@! TO.P,R2,2*
G04 #@! TO.N,/S21*
X159075000Y-74025000D03*
G04 #@! TD*
D19*
G04 #@! TO.P,C5,1*
G04 #@! TO.N,+3.3V*
X154300000Y-84749999D03*
G04 #@! TO.P,C5,2*
G04 #@! TO.N,GND*
X154300000Y-82850001D03*
G04 #@! TD*
D20*
G04 #@! TO.P,J2,1,1*
G04 #@! TO.N,+3.3V*
X134150320Y-81300000D03*
G04 #@! TO.P,J2,2,2*
X134650320Y-81300000D03*
G04 #@! TO.P,J2,3,3*
G04 #@! TO.N,unconnected-(J2-Pad3)*
X135150320Y-81300000D03*
G04 #@! TO.P,J2,4,4*
G04 #@! TO.N,/S17*
X135650320Y-81300000D03*
G04 #@! TO.P,J2,5,5*
G04 #@! TO.N,/S19*
X136150320Y-81300000D03*
G04 #@! TO.P,J2,6,6*
G04 #@! TO.N,/SDA*
X136650320Y-81300000D03*
G04 #@! TO.P,J2,7,7*
G04 #@! TO.N,/SCL*
X137150320Y-81300000D03*
G04 #@! TO.P,J2,8,8*
G04 #@! TO.N,unconnected-(J2-Pad8)*
X137650320Y-81300000D03*
G04 #@! TO.P,J2,9,9*
G04 #@! TO.N,GND*
X138150320Y-81300000D03*
G04 #@! TO.P,J2,10,10*
G04 #@! TO.N,/S13_D1_P*
X138650320Y-81300000D03*
G04 #@! TO.P,J2,11,11*
G04 #@! TO.N,/S13_D1_N*
X139150320Y-81300000D03*
G04 #@! TO.P,J2,12,12*
G04 #@! TO.N,GND*
X139650320Y-81300000D03*
G04 #@! TO.P,J2,13,13*
G04 #@! TO.N,/S57_D3_P*
X140150320Y-81300000D03*
G04 #@! TO.P,J2,14,14*
G04 #@! TO.N,/S57_D3_N*
X140650320Y-81300000D03*
G04 #@! TO.P,J2,15,15*
G04 #@! TO.N,GND*
X141150320Y-81300000D03*
G04 #@! TO.P,J2,16,16*
G04 #@! TO.N,/C2P_CLK_P*
X141650320Y-81300000D03*
G04 #@! TO.P,J2,17,17*
G04 #@! TO.N,/C2P_CLK_N*
X142150320Y-81300000D03*
G04 #@! TO.P,J2,18,18*
G04 #@! TO.N,GND*
X142650320Y-81300000D03*
G04 #@! TO.P,J2,19,19*
G04 #@! TO.N,/S911_D5_P*
X143150320Y-81300000D03*
G04 #@! TO.P,J2,20,20*
G04 #@! TO.N,/S911_D5_N*
X143650320Y-81300000D03*
G04 #@! TO.P,J2,21,21*
G04 #@! TO.N,GND*
X144150320Y-81300000D03*
G04 #@! TO.P,J2,22,22*
G04 #@! TO.N,/S1315_D7_P*
X144650320Y-81300000D03*
G04 #@! TO.P,J2,23,23*
G04 #@! TO.N,/S1315_D7_N*
X145150320Y-81300000D03*
G04 #@! TO.P,J2,24,24*
G04 #@! TO.N,GND*
X145650320Y-81300000D03*
G04 #@! TO.P,J2,25,25*
X146150320Y-81300000D03*
G04 #@! TO.P,J2,26,26*
X146650320Y-81300000D03*
G04 #@! TO.P,J2,27,27*
X147150320Y-81300000D03*
G04 #@! TO.P,J2,28,28*
G04 #@! TO.N,unconnected-(J2-Pad28)*
X147650320Y-81300000D03*
G04 #@! TO.P,J2,29,29*
G04 #@! TO.N,unconnected-(J2-Pad29)*
X148150320Y-81300000D03*
G04 #@! TO.P,J2,30,30*
G04 #@! TO.N,unconnected-(J2-Pad30)*
X148650320Y-81300000D03*
G04 #@! TO.P,J2,31,31*
G04 #@! TO.N,+3.3V*
X149150320Y-81300000D03*
G04 #@! TO.P,J2,32,32*
X149650320Y-81300000D03*
G04 #@! TO.P,J2,33,33*
X150150320Y-81300000D03*
G04 #@! TO.P,J2,34,34*
X150650320Y-81300000D03*
D21*
G04 #@! TO.P,J2,S1,SHIELD*
G04 #@! TO.N,GND*
X133150320Y-83800000D03*
G04 #@! TO.P,J2,S2,SHIELD__1*
X151650320Y-83800000D03*
G04 #@! TD*
D22*
G04 #@! TO.P,U1,1,VCCA*
G04 #@! TO.N,+3.3V*
X159850000Y-81661048D03*
G04 #@! TO.P,U1,2,SCLA*
G04 #@! TO.N,/SCL*
X159200000Y-81661048D03*
G04 #@! TO.P,U1,3,SDAA*
G04 #@! TO.N,/SDA*
X158550000Y-81661048D03*
G04 #@! TO.P,U1,4,GND*
G04 #@! TO.N,GND*
X157900000Y-81661048D03*
G04 #@! TO.P,U1,5,EN*
G04 #@! TO.N,unconnected-(U1-EN-Pad5)*
X157900000Y-77261048D03*
G04 #@! TO.P,U1,6,SDAB*
G04 #@! TO.N,/S23*
X158550000Y-77261048D03*
G04 #@! TO.P,U1,7,SCLB*
G04 #@! TO.N,/S21*
X159200000Y-77261048D03*
G04 #@! TO.P,U1,8,VCCB*
G04 #@! TO.N,VBUS*
X159850000Y-77261048D03*
G04 #@! TD*
D23*
G04 #@! TO.P,C4,1*
G04 #@! TO.N,VBUS*
X150125000Y-71800000D03*
G04 #@! TO.P,C4,2*
G04 #@! TO.N,GND*
X151675000Y-71800000D03*
G04 #@! TD*
D24*
G04 #@! TO.P,C2,1*
G04 #@! TO.N,VBUS*
X161900000Y-77800000D03*
G04 #@! TO.P,C2,2*
G04 #@! TO.N,GND*
X161900000Y-76250000D03*
G04 #@! TD*
D25*
G04 #@! TO.N,GND*
X135700000Y-83000000D03*
X145900000Y-66800000D03*
X139300000Y-73200000D03*
X145900000Y-64800000D03*
X133900000Y-66800000D03*
X132300000Y-65000000D03*
X133500000Y-62800000D03*
X155900000Y-76400000D03*
G04 #@! TO.N,/S23*
X157100000Y-72800000D03*
X157900000Y-70400000D03*
G04 #@! TO.N,/C2P_CLK_N*
X142400320Y-79300000D03*
X148500000Y-60200000D03*
G04 #@! TO.N,/C2P_CLK_P*
X141400320Y-79300000D03*
X147500000Y-60200000D03*
G04 #@! TO.N,/SCL*
X137700000Y-83800000D03*
X157700000Y-84400000D03*
G04 #@! TO.N,/SDA*
X158700000Y-83200000D03*
X137100000Y-84600000D03*
G04 #@! TO.N,/S911_D5_P*
X142146446Y-75253554D03*
X139500000Y-60200000D03*
G04 #@! TO.N,/S57_D3_P*
X139900320Y-76600000D03*
X137879488Y-61105463D03*
G04 #@! TO.N,/S57_D3_N*
X138879488Y-61105463D03*
X140900320Y-76600000D03*
G04 #@! TO.N,/S1315_D7_N*
X143653554Y-71746446D03*
X142100000Y-61088588D03*
G04 #@! TO.N,/S13_D1_N*
X137300000Y-60200000D03*
X138453554Y-78746446D03*
G04 #@! TO.N,/S1315_D7_P*
X142946446Y-72453554D03*
X141100000Y-61088588D03*
G04 #@! TO.N,/S911_D5_N*
X140500000Y-60200000D03*
X142853554Y-74546446D03*
G04 #@! TO.N,/S13_D1_P*
X137746446Y-79453554D03*
X136300000Y-60200000D03*
G04 #@! TD*
D26*
G04 #@! TO.N,/R_GA*
X135500000Y-61200000D02*
X135600320Y-61300320D01*
X135600320Y-61300320D02*
X135600320Y-62710000D01*
X122300000Y-74275000D02*
X122300000Y-62800000D01*
X123900000Y-61200000D02*
X135500000Y-61200000D01*
X122300000Y-62800000D02*
X123900000Y-61200000D01*
G04 #@! TO.N,/S23*
X145565320Y-64000000D02*
X146100000Y-64000000D01*
X145200320Y-62710000D02*
X145200320Y-63635000D01*
X157100000Y-72800000D02*
X157100000Y-73400000D01*
X154300000Y-65200000D02*
X157900000Y-68800000D01*
X157900000Y-68800000D02*
X157900000Y-70400000D01*
X157100000Y-73400000D02*
X157725000Y-74025000D01*
X158550000Y-74850000D02*
X157725000Y-74025000D01*
X158550000Y-77261048D02*
X158550000Y-74850000D01*
X145200320Y-63635000D02*
X145565320Y-64000000D01*
X146100000Y-64000000D02*
X153100000Y-64000000D01*
X153100000Y-64000000D02*
X154300000Y-65200000D01*
G04 #@! TO.N,/S21*
X159075000Y-73775000D02*
X159075000Y-74025000D01*
X150400000Y-67500000D02*
X151100000Y-66800000D01*
X142700000Y-66800000D02*
X143400000Y-67500000D01*
X142700000Y-65400000D02*
X142700000Y-66800000D01*
X159200000Y-77261048D02*
X159200000Y-74150000D01*
X144400320Y-62710000D02*
X144400320Y-63699680D01*
X159200000Y-74150000D02*
X159075000Y-74025000D01*
X143400000Y-67500000D02*
X150400000Y-67500000D01*
X144400320Y-63699680D02*
X142700000Y-65400000D01*
X151100000Y-66800000D02*
X152100000Y-66800000D01*
X152100000Y-66800000D02*
X159075000Y-73775000D01*
G04 #@! TO.N,/S19*
X136150320Y-76850320D02*
X136150320Y-81300000D01*
X143035320Y-64200000D02*
X130100000Y-64200000D01*
X129700000Y-64600000D02*
X129700000Y-70400000D01*
X143600320Y-62710000D02*
X143600320Y-63635000D01*
X143600320Y-63635000D02*
X143035320Y-64200000D01*
X130100000Y-64200000D02*
X129700000Y-64600000D01*
X129700000Y-70400000D02*
X136150320Y-76850320D01*
G04 #@! TO.N,/S17*
X142465320Y-63800000D02*
X142800320Y-63465000D01*
X129300000Y-64400000D02*
X129900000Y-63800000D01*
X129900000Y-63800000D02*
X142465320Y-63800000D01*
X129300000Y-70800000D02*
X129300000Y-64400000D01*
X142800320Y-63465000D02*
X142800320Y-62710000D01*
X135650320Y-81300000D02*
X135650320Y-77150320D01*
X135650320Y-77150320D02*
X129300000Y-70800000D01*
D27*
G04 #@! TO.N,+3.3V*
X155300000Y-63800000D02*
X162100000Y-70600000D01*
X155300000Y-86000000D02*
X154500000Y-86000000D01*
X160300000Y-86000000D02*
X155300000Y-86000000D01*
D26*
X154649999Y-84749999D02*
X155300000Y-85400000D01*
X122300000Y-75925000D02*
X121300000Y-76925000D01*
D27*
X121300000Y-84800000D02*
X121300000Y-77500000D01*
D26*
X134650320Y-81300000D02*
X134650320Y-82049680D01*
D27*
X163700000Y-82200000D02*
X163700000Y-84600000D01*
D26*
X149150320Y-81300000D02*
X149150320Y-82050320D01*
X151010000Y-62710000D02*
X151100000Y-62800000D01*
D27*
X149900000Y-86000000D02*
X134300000Y-86000000D01*
D26*
X153950001Y-84749999D02*
X152700000Y-86000000D01*
X160438952Y-82250000D02*
X159850000Y-81661048D01*
D27*
X162100000Y-70600000D02*
X163700000Y-72200000D01*
D26*
X134150320Y-82250320D02*
X134300000Y-82400000D01*
D27*
X162300000Y-86000000D02*
X160300000Y-86000000D01*
X163700000Y-72200000D02*
X163700000Y-82200000D01*
D26*
X154300000Y-84749999D02*
X153950001Y-84749999D01*
X134650320Y-82049680D02*
X134300000Y-82400000D01*
X161900000Y-82250000D02*
X160438952Y-82250000D01*
D27*
X163700000Y-84600000D02*
X162300000Y-86000000D01*
D26*
X150650320Y-82049680D02*
X149900000Y-82800000D01*
X163650000Y-82250000D02*
X161900000Y-82250000D01*
X134150320Y-81300000D02*
X134150320Y-82250320D01*
D27*
X149900000Y-82800000D02*
X149900000Y-86000000D01*
X151300000Y-86000000D02*
X149900000Y-86000000D01*
X154500000Y-86000000D02*
X152700000Y-86000000D01*
D26*
X154300000Y-85800000D02*
X154500000Y-86000000D01*
X150150320Y-81300000D02*
X150150320Y-82549680D01*
X149650320Y-81300000D02*
X149650320Y-82550320D01*
X154300000Y-84749999D02*
X154300000Y-85800000D01*
X149150320Y-82050320D02*
X149900000Y-82800000D01*
X154300000Y-84749999D02*
X154649999Y-84749999D01*
X155300000Y-85400000D02*
X155300000Y-86000000D01*
D27*
X134300000Y-82400000D02*
X134300000Y-86000000D01*
X122500000Y-86000000D02*
X121300000Y-84800000D01*
D26*
X160900000Y-71800000D02*
X162100000Y-70600000D01*
X163700000Y-82200000D02*
X163650000Y-82250000D01*
X150150320Y-82549680D02*
X149900000Y-82800000D01*
X150000320Y-62710000D02*
X151010000Y-62710000D01*
X121300000Y-76925000D02*
X121300000Y-77500000D01*
X149650320Y-82550320D02*
X149900000Y-82800000D01*
X160875000Y-71800000D02*
X160900000Y-71800000D01*
D27*
X151100000Y-62800000D02*
X154300000Y-62800000D01*
X134300000Y-86000000D02*
X122500000Y-86000000D01*
X154300000Y-62800000D02*
X155300000Y-63800000D01*
X152700000Y-86000000D02*
X151300000Y-86000000D01*
D26*
X150650320Y-81300000D02*
X150650320Y-82049680D01*
G04 #@! TO.N,/C2P_CLK_N*
X142150320Y-80699999D02*
X142100320Y-80649999D01*
X142150320Y-81300000D02*
X142150320Y-80699999D01*
X148500000Y-60200000D02*
X148200000Y-60500000D01*
X142100320Y-80649999D02*
X142100320Y-79600000D01*
X142100320Y-79600000D02*
X142400320Y-79300000D01*
X148200000Y-60500000D02*
X148200000Y-62300000D01*
G04 #@! TO.N,/C2P_CLK_P*
X141700320Y-80649999D02*
X141700320Y-79600000D01*
X141650320Y-81300000D02*
X141650320Y-80699999D01*
X147800000Y-60500000D02*
X147800000Y-62300000D01*
X141650320Y-80699999D02*
X141700320Y-80649999D01*
X147500000Y-60200000D02*
X147800000Y-60500000D01*
X141700320Y-79600000D02*
X141400320Y-79300000D01*
D28*
G04 #@! TO.N,VBUS*
X161900000Y-77800000D02*
X161300000Y-77200000D01*
D26*
X154675000Y-74025000D02*
X152700000Y-76000000D01*
D28*
X150125000Y-73425000D02*
X152700000Y-76000000D01*
D26*
X160725000Y-74025000D02*
X160725000Y-77175000D01*
D28*
X150000320Y-71675320D02*
X150125000Y-71800000D01*
X155700000Y-79000000D02*
X160700000Y-79000000D01*
X150125000Y-71800000D02*
X150125000Y-73425000D01*
X160700000Y-77200000D02*
X159911048Y-77200000D01*
X159911048Y-77200000D02*
X159875000Y-77236048D01*
X159875000Y-77236048D02*
X159875000Y-77261048D01*
X152700000Y-76000000D02*
X155700000Y-79000000D01*
X150000320Y-68890000D02*
X150000320Y-71675320D01*
D26*
X156075000Y-74025000D02*
X154675000Y-74025000D01*
D28*
X161300000Y-77200000D02*
X160700000Y-77200000D01*
X160700000Y-79000000D02*
X161900000Y-77800000D01*
D26*
X160725000Y-77175000D02*
X160700000Y-77200000D01*
G04 #@! TO.N,/SCL*
X159200000Y-81661048D02*
X159200000Y-82710050D01*
X158489950Y-84400000D02*
X157700000Y-84400000D01*
X137150320Y-81300000D02*
X137150320Y-83250320D01*
X159200000Y-82710050D02*
X159400000Y-82910050D01*
X159400000Y-83489950D02*
X158489950Y-84400000D01*
X159400000Y-82910050D02*
X159400000Y-83489950D01*
X137150320Y-83250320D02*
X137700000Y-83800000D01*
G04 #@! TO.N,/SDA*
X136650320Y-84150320D02*
X137100000Y-84600000D01*
X158550000Y-81661048D02*
X158550000Y-83050000D01*
X158550000Y-83050000D02*
X158700000Y-83200000D01*
X136650320Y-81300000D02*
X136650320Y-84150320D01*
G04 #@! TO.N,/S911_D5_P*
X139600320Y-62215000D02*
X139600320Y-62710000D01*
X139800320Y-61776661D02*
X139800320Y-62015000D01*
X143200320Y-80649999D02*
X143200320Y-75883163D01*
X143200320Y-75883163D02*
X142570711Y-75253554D01*
X139800000Y-61776341D02*
X139800320Y-61776661D01*
X143150320Y-81300000D02*
X143150320Y-80699999D01*
X143150320Y-80699999D02*
X143200320Y-80649999D01*
X139500000Y-60200000D02*
X139800000Y-60500000D01*
X142570711Y-75253554D02*
X142146446Y-75253554D01*
X139800000Y-60500000D02*
X139800000Y-61776341D01*
X139800320Y-62015000D02*
X139600320Y-62215000D01*
G04 #@! TO.N,/S57_D3_P*
X140200320Y-76900000D02*
X139900320Y-76600000D01*
X140150320Y-80699999D02*
X140200320Y-80649999D01*
X137879488Y-61105463D02*
X138179488Y-61405463D01*
X140200320Y-80649999D02*
X140200320Y-76900000D01*
X138179488Y-61405463D02*
X138179488Y-62700000D01*
X140150320Y-81300000D02*
X140150320Y-80699999D01*
G04 #@! TO.N,/S57_D3_N*
X140600320Y-80649999D02*
X140600320Y-76900000D01*
X140650320Y-81300000D02*
X140650320Y-80699999D01*
X138879488Y-61105463D02*
X138579488Y-61405463D01*
X140600320Y-76900000D02*
X140900320Y-76600000D01*
X140650320Y-80699999D02*
X140600320Y-80649999D01*
X138579488Y-61405463D02*
X138579488Y-62700000D01*
G04 #@! TO.N,/S1315_D7_N*
X145700320Y-77877714D02*
X145300320Y-77877714D01*
X144700320Y-79277714D02*
X145700320Y-79277714D01*
X144550320Y-79277714D02*
X144700320Y-79277714D01*
X141800320Y-62200320D02*
X141800320Y-62510000D01*
X146300320Y-78677714D02*
X146300320Y-78477714D01*
X141800320Y-62510000D02*
X142000320Y-62710000D01*
X145150320Y-80699999D02*
X145100320Y-80649999D01*
X145100320Y-77677714D02*
X145100320Y-77477714D01*
X145100320Y-80649999D02*
X145100320Y-80427714D01*
X142100000Y-61088588D02*
X141800000Y-61388588D01*
X144400320Y-79727714D02*
X144400320Y-79427714D01*
X145100320Y-73617477D02*
X143653554Y-72170711D01*
X141800000Y-62200000D02*
X141800320Y-62200320D01*
X145150320Y-81300000D02*
X145150320Y-80699999D01*
X143653554Y-72170711D02*
X143653554Y-71746446D01*
X145100320Y-77477714D02*
X145100320Y-76900000D01*
X145100320Y-76900000D02*
X145100320Y-73617477D01*
X141800000Y-61388588D02*
X141800000Y-62200000D01*
X144550320Y-79877714D02*
G75*
G02*
X144400286Y-79727714I-20J150014D01*
G01*
X146300320Y-78477714D02*
G75*
G03*
X145700320Y-77877680I-600020J14D01*
G01*
X145700320Y-79277714D02*
G75*
G03*
X146300314Y-78677714I-20J600014D01*
G01*
X145300320Y-77877714D02*
G75*
G02*
X145100286Y-77677714I-20J200014D01*
G01*
X145100320Y-80427714D02*
G75*
G03*
X144550320Y-79877680I-550020J14D01*
G01*
X144400320Y-79427714D02*
G75*
G02*
X144550320Y-79277720I149980J14D01*
G01*
G04 #@! TO.N,/S13_D1_N*
X138453554Y-79170711D02*
X138453554Y-78746446D01*
X137300000Y-60200000D02*
X137000000Y-60500000D01*
X137000320Y-62015000D02*
X137200320Y-62215000D01*
X137000000Y-60500000D02*
X137000000Y-61786013D01*
X139150320Y-81300000D02*
X139150320Y-80699999D01*
X139100320Y-79817477D02*
X138453554Y-79170711D01*
X139150320Y-80699999D02*
X139100320Y-80649999D01*
X139100320Y-80649999D02*
X139100320Y-79817477D01*
X137000000Y-61786013D02*
X137000320Y-61786333D01*
X137000320Y-61786333D02*
X137000320Y-62015000D01*
X137200320Y-62215000D02*
X137200320Y-62710000D01*
G04 #@! TO.N,/S1315_D7_P*
X144650320Y-80699999D02*
X144700320Y-80649999D01*
X144550320Y-78877714D02*
X144700320Y-78877714D01*
X141400000Y-61388588D02*
X141400000Y-62353072D01*
X144700320Y-77677714D02*
X144700320Y-77477714D01*
X141400000Y-62353072D02*
X141400320Y-62353392D01*
X141400320Y-62353392D02*
X141400320Y-62510000D01*
X144700320Y-80649999D02*
X144700320Y-80427714D01*
X144700320Y-76900000D02*
X144700320Y-73783163D01*
X144700320Y-73783163D02*
X143370711Y-72453554D01*
X145900320Y-78677714D02*
X145900320Y-78477714D01*
X144650320Y-81300000D02*
X144650320Y-80699999D01*
X145700320Y-78277714D02*
X145300320Y-78277714D01*
X143370711Y-72453554D02*
X142946446Y-72453554D01*
X144700320Y-78877714D02*
X145700320Y-78877714D01*
X144000320Y-79727714D02*
X144000320Y-79427714D01*
X141100000Y-61088588D02*
X141400000Y-61388588D01*
X144700320Y-77477714D02*
X144700320Y-76900000D01*
X141400320Y-62510000D02*
X141200320Y-62710000D01*
X145900320Y-78477714D02*
G75*
G03*
X145700320Y-78277680I-200020J14D01*
G01*
X144700320Y-80427714D02*
G75*
G03*
X144550320Y-80277680I-150020J14D01*
G01*
X145300320Y-78277714D02*
G75*
G02*
X144700286Y-77677714I-20J600014D01*
G01*
X144000320Y-79427714D02*
G75*
G02*
X144550320Y-78877720I549980J14D01*
G01*
X144550320Y-80277714D02*
G75*
G02*
X144000286Y-79727714I-20J550014D01*
G01*
X145700320Y-78877714D02*
G75*
G03*
X145900314Y-78677714I-20J200014D01*
G01*
G04 #@! TO.N,/S911_D5_N*
X143600320Y-75717477D02*
X142853554Y-74970711D01*
X140500000Y-60200000D02*
X140200000Y-60500000D01*
X143650320Y-80699999D02*
X143600320Y-80649999D01*
X143600320Y-80649999D02*
X143600320Y-75717477D01*
X143650320Y-81300000D02*
X143650320Y-80699999D01*
X140200320Y-62015000D02*
X140400320Y-62215000D01*
X142853554Y-74970711D02*
X142853554Y-74546446D01*
X140200000Y-60500000D02*
X140200000Y-61623269D01*
X140200320Y-61623589D02*
X140200320Y-62015000D01*
X140400320Y-62215000D02*
X140400320Y-62710000D01*
X140200000Y-61623269D02*
X140200320Y-61623589D01*
G04 #@! TO.N,/S13_D1_P*
X136400320Y-62215000D02*
X136400320Y-62710000D01*
X136600000Y-60500000D02*
X136600000Y-61939085D01*
X138700320Y-79983163D02*
X138170711Y-79453554D01*
X136600320Y-62015000D02*
X136400320Y-62215000D01*
X138170711Y-79453554D02*
X137746446Y-79453554D01*
X138650320Y-80699999D02*
X138700320Y-80649999D01*
X136600000Y-61939085D02*
X136600320Y-61939405D01*
X138650320Y-81300000D02*
X138650320Y-80699999D01*
X138700320Y-80649999D02*
X138700320Y-79983163D01*
X136600320Y-61939405D02*
X136600320Y-62015000D01*
X136300000Y-60200000D02*
X136600000Y-60500000D01*
G04 #@! TD*
G04 #@! TA.AperFunction,Conductor*
G04 #@! TO.N,GND*
G36*
X164358691Y-59319407D02*
G01*
X164394655Y-59368907D01*
X164399500Y-59399500D01*
X164399500Y-71669835D01*
X164380593Y-71728026D01*
X164331093Y-71763990D01*
X164269907Y-71763990D01*
X164230496Y-71739839D01*
X155746543Y-63255886D01*
X155251092Y-62760435D01*
X154746543Y-62255886D01*
X154722043Y-62239516D01*
X154631808Y-62179223D01*
X154504328Y-62126420D01*
X154368996Y-62099500D01*
X154368994Y-62099500D01*
X154368993Y-62099500D01*
X151031007Y-62099500D01*
X151031004Y-62099500D01*
X150895672Y-62126420D01*
X150895670Y-62126420D01*
X150768193Y-62179222D01*
X150768182Y-62179228D01*
X150653458Y-62255885D01*
X150653454Y-62255889D01*
X150599824Y-62309520D01*
X150545307Y-62337297D01*
X150484875Y-62327726D01*
X150441610Y-62284461D01*
X150430820Y-62239516D01*
X150430820Y-61965253D01*
X150430818Y-61965241D01*
X150428031Y-61951231D01*
X150419187Y-61906769D01*
X150374872Y-61840448D01*
X150374868Y-61840445D01*
X150308553Y-61796134D01*
X150308551Y-61796133D01*
X150308548Y-61796132D01*
X150308547Y-61796132D01*
X150250078Y-61784501D01*
X150250068Y-61784500D01*
X149750572Y-61784500D01*
X149750571Y-61784500D01*
X149750561Y-61784501D01*
X149692092Y-61796132D01*
X149692086Y-61796134D01*
X149655322Y-61820700D01*
X149596434Y-61837309D01*
X149545318Y-61820700D01*
X149508553Y-61796134D01*
X149508551Y-61796133D01*
X149508548Y-61796132D01*
X149508547Y-61796132D01*
X149450078Y-61784501D01*
X149450068Y-61784500D01*
X148950572Y-61784500D01*
X148950571Y-61784500D01*
X148950561Y-61784501D01*
X148892092Y-61796132D01*
X148892086Y-61796134D01*
X148855322Y-61820700D01*
X148796434Y-61837309D01*
X148745318Y-61820700D01*
X148708553Y-61796134D01*
X148708551Y-61796133D01*
X148708548Y-61796132D01*
X148708547Y-61796132D01*
X148650078Y-61784501D01*
X148650068Y-61784500D01*
X148650067Y-61784500D01*
X148599500Y-61784500D01*
X148541309Y-61765593D01*
X148505345Y-61716093D01*
X148500500Y-61685500D01*
X148500500Y-60892436D01*
X148519407Y-60834245D01*
X148568907Y-60798281D01*
X148586572Y-60794284D01*
X148656762Y-60785044D01*
X148802841Y-60724536D01*
X148928282Y-60628282D01*
X149024536Y-60502841D01*
X149085044Y-60356762D01*
X149105682Y-60200000D01*
X149085044Y-60043238D01*
X149024537Y-59897161D01*
X149024537Y-59897160D01*
X148928286Y-59771723D01*
X148928285Y-59771722D01*
X148928282Y-59771718D01*
X148928277Y-59771714D01*
X148928276Y-59771713D01*
X148802838Y-59675462D01*
X148656766Y-59614957D01*
X148656758Y-59614955D01*
X148500001Y-59594318D01*
X148499999Y-59594318D01*
X148343241Y-59614955D01*
X148343233Y-59614957D01*
X148197161Y-59675462D01*
X148197160Y-59675462D01*
X148071715Y-59771719D01*
X148069998Y-59773437D01*
X148068449Y-59774225D01*
X148066570Y-59775668D01*
X148066302Y-59775319D01*
X148015479Y-59801210D01*
X147955048Y-59791634D01*
X147930002Y-59773437D01*
X147928284Y-59771719D01*
X147802838Y-59675462D01*
X147656766Y-59614957D01*
X147656758Y-59614955D01*
X147500001Y-59594318D01*
X147499999Y-59594318D01*
X147343241Y-59614955D01*
X147343233Y-59614957D01*
X147197161Y-59675462D01*
X147197160Y-59675462D01*
X147071723Y-59771713D01*
X147071713Y-59771723D01*
X146975462Y-59897160D01*
X146975462Y-59897161D01*
X146914957Y-60043233D01*
X146914955Y-60043241D01*
X146894318Y-60199999D01*
X146894318Y-60200000D01*
X146914955Y-60356758D01*
X146914957Y-60356766D01*
X146975462Y-60502838D01*
X146975462Y-60502839D01*
X147035381Y-60580927D01*
X147071718Y-60628282D01*
X147197159Y-60724536D01*
X147343238Y-60785044D01*
X147413422Y-60794283D01*
X147468646Y-60820623D01*
X147497842Y-60874394D01*
X147499500Y-60892436D01*
X147499500Y-61685500D01*
X147480593Y-61743691D01*
X147431093Y-61779655D01*
X147400500Y-61784500D01*
X147350572Y-61784500D01*
X147350571Y-61784500D01*
X147350561Y-61784501D01*
X147292092Y-61796132D01*
X147292086Y-61796134D01*
X147255322Y-61820700D01*
X147196434Y-61837309D01*
X147145318Y-61820700D01*
X147108553Y-61796134D01*
X147108551Y-61796133D01*
X147108548Y-61796132D01*
X147108547Y-61796132D01*
X147050078Y-61784501D01*
X147050068Y-61784500D01*
X146550572Y-61784500D01*
X146550571Y-61784500D01*
X146550561Y-61784501D01*
X146492092Y-61796132D01*
X146492086Y-61796134D01*
X146455322Y-61820700D01*
X146396434Y-61837309D01*
X146345318Y-61820700D01*
X146308553Y-61796134D01*
X146308551Y-61796133D01*
X146308548Y-61796132D01*
X146308547Y-61796132D01*
X146250078Y-61784501D01*
X146250068Y-61784500D01*
X145750572Y-61784500D01*
X145750571Y-61784500D01*
X145750561Y-61784501D01*
X145692092Y-61796132D01*
X145692086Y-61796134D01*
X145655322Y-61820700D01*
X145596434Y-61837309D01*
X145545318Y-61820700D01*
X145508553Y-61796134D01*
X145508551Y-61796133D01*
X145508548Y-61796132D01*
X145508547Y-61796132D01*
X145450078Y-61784501D01*
X145450068Y-61784500D01*
X144950572Y-61784500D01*
X144950571Y-61784500D01*
X144950561Y-61784501D01*
X144892092Y-61796132D01*
X144892086Y-61796134D01*
X144855322Y-61820700D01*
X144796434Y-61837309D01*
X144745318Y-61820700D01*
X144708553Y-61796134D01*
X144708551Y-61796133D01*
X144708548Y-61796132D01*
X144708547Y-61796132D01*
X144650078Y-61784501D01*
X144650068Y-61784500D01*
X144150572Y-61784500D01*
X144150571Y-61784500D01*
X144150561Y-61784501D01*
X144092092Y-61796132D01*
X144092086Y-61796134D01*
X144055322Y-61820700D01*
X143996434Y-61837309D01*
X143945318Y-61820700D01*
X143908553Y-61796134D01*
X143908551Y-61796133D01*
X143908548Y-61796132D01*
X143908547Y-61796132D01*
X143850078Y-61784501D01*
X143850068Y-61784500D01*
X143350572Y-61784500D01*
X143350571Y-61784500D01*
X143350561Y-61784501D01*
X143292092Y-61796132D01*
X143292086Y-61796134D01*
X143255322Y-61820700D01*
X143196434Y-61837309D01*
X143145318Y-61820700D01*
X143108553Y-61796134D01*
X143108551Y-61796133D01*
X143108548Y-61796132D01*
X143108547Y-61796132D01*
X143050078Y-61784501D01*
X143050068Y-61784500D01*
X142550572Y-61784500D01*
X142550571Y-61784500D01*
X142550561Y-61784501D01*
X142492092Y-61796132D01*
X142492086Y-61796134D01*
X142455322Y-61820700D01*
X142396434Y-61837309D01*
X142345318Y-61820700D01*
X142329556Y-61810168D01*
X142291677Y-61762118D01*
X142289275Y-61700980D01*
X142323268Y-61650106D01*
X142346667Y-61636391D01*
X142402841Y-61613124D01*
X142528282Y-61516870D01*
X142624536Y-61391429D01*
X142685044Y-61245350D01*
X142705682Y-61088588D01*
X142685044Y-60931826D01*
X142624537Y-60785749D01*
X142624537Y-60785748D01*
X142528286Y-60660311D01*
X142528285Y-60660310D01*
X142528282Y-60660306D01*
X142528277Y-60660302D01*
X142528276Y-60660301D01*
X142402838Y-60564050D01*
X142256766Y-60503545D01*
X142256758Y-60503543D01*
X142100001Y-60482906D01*
X142099999Y-60482906D01*
X141943241Y-60503543D01*
X141943233Y-60503545D01*
X141797161Y-60564050D01*
X141797160Y-60564050D01*
X141671715Y-60660307D01*
X141669998Y-60662025D01*
X141668449Y-60662813D01*
X141666570Y-60664256D01*
X141666302Y-60663907D01*
X141615479Y-60689798D01*
X141555048Y-60680222D01*
X141530002Y-60662025D01*
X141528284Y-60660307D01*
X141402838Y-60564050D01*
X141256766Y-60503545D01*
X141256759Y-60503543D01*
X141164183Y-60491355D01*
X141108958Y-60465013D01*
X141079764Y-60411242D01*
X141084794Y-60363413D01*
X141083364Y-60363030D01*
X141085042Y-60356766D01*
X141085044Y-60356762D01*
X141105682Y-60200000D01*
X141085044Y-60043238D01*
X141024537Y-59897161D01*
X141024537Y-59897160D01*
X140928286Y-59771723D01*
X140928285Y-59771722D01*
X140928282Y-59771718D01*
X140928277Y-59771714D01*
X140928276Y-59771713D01*
X140802838Y-59675462D01*
X140656766Y-59614957D01*
X140656758Y-59614955D01*
X140500001Y-59594318D01*
X140499999Y-59594318D01*
X140343241Y-59614955D01*
X140343233Y-59614957D01*
X140197161Y-59675462D01*
X140197160Y-59675462D01*
X140071715Y-59771719D01*
X140069998Y-59773437D01*
X140068449Y-59774225D01*
X140066570Y-59775668D01*
X140066302Y-59775319D01*
X140015479Y-59801210D01*
X139955048Y-59791634D01*
X139930002Y-59773437D01*
X139928284Y-59771719D01*
X139802838Y-59675462D01*
X139656766Y-59614957D01*
X139656758Y-59614955D01*
X139500001Y-59594318D01*
X139499999Y-59594318D01*
X139343241Y-59614955D01*
X139343233Y-59614957D01*
X139197161Y-59675462D01*
X139197160Y-59675462D01*
X139071723Y-59771713D01*
X139071713Y-59771723D01*
X138975462Y-59897160D01*
X138975462Y-59897161D01*
X138914957Y-60043233D01*
X138914955Y-60043241D01*
X138894318Y-60199999D01*
X138894318Y-60200000D01*
X138914955Y-60356758D01*
X138914957Y-60356767D01*
X138919925Y-60368759D01*
X138924725Y-60429756D01*
X138892756Y-60481925D01*
X138841384Y-60504797D01*
X138722728Y-60520418D01*
X138722721Y-60520420D01*
X138576649Y-60580925D01*
X138576648Y-60580925D01*
X138451203Y-60677182D01*
X138449486Y-60678900D01*
X138447937Y-60679688D01*
X138446058Y-60681131D01*
X138445790Y-60680782D01*
X138394967Y-60706673D01*
X138334536Y-60697097D01*
X138309490Y-60678900D01*
X138307772Y-60677182D01*
X138182326Y-60580925D01*
X138036254Y-60520420D01*
X138036246Y-60520418D01*
X137956495Y-60509919D01*
X137901270Y-60483578D01*
X137872075Y-60429807D01*
X137877952Y-60373881D01*
X137885044Y-60356762D01*
X137905682Y-60200000D01*
X137885044Y-60043238D01*
X137824537Y-59897161D01*
X137824537Y-59897160D01*
X137728286Y-59771723D01*
X137728285Y-59771722D01*
X137728282Y-59771718D01*
X137728277Y-59771714D01*
X137728276Y-59771713D01*
X137602838Y-59675462D01*
X137456766Y-59614957D01*
X137456758Y-59614955D01*
X137300001Y-59594318D01*
X137299999Y-59594318D01*
X137143241Y-59614955D01*
X137143233Y-59614957D01*
X136997161Y-59675462D01*
X136997160Y-59675462D01*
X136871715Y-59771719D01*
X136869998Y-59773437D01*
X136868449Y-59774225D01*
X136866570Y-59775668D01*
X136866302Y-59775319D01*
X136815479Y-59801210D01*
X136755048Y-59791634D01*
X136730002Y-59773437D01*
X136728284Y-59771719D01*
X136602838Y-59675462D01*
X136456766Y-59614957D01*
X136456758Y-59614955D01*
X136300001Y-59594318D01*
X136299999Y-59594318D01*
X136143241Y-59614955D01*
X136143233Y-59614957D01*
X135997161Y-59675462D01*
X135997160Y-59675462D01*
X135871723Y-59771713D01*
X135871713Y-59771723D01*
X135775462Y-59897160D01*
X135775462Y-59897161D01*
X135714957Y-60043233D01*
X135714955Y-60043241D01*
X135694318Y-60199999D01*
X135694318Y-60200000D01*
X135714955Y-60356758D01*
X135714957Y-60356766D01*
X135775462Y-60502838D01*
X135775462Y-60502839D01*
X135835381Y-60580927D01*
X135871718Y-60628282D01*
X135997159Y-60724536D01*
X136143238Y-60785044D01*
X136213422Y-60794283D01*
X136268646Y-60820623D01*
X136297842Y-60874394D01*
X136299500Y-60892436D01*
X136299500Y-61685500D01*
X136280593Y-61743691D01*
X136231093Y-61779655D01*
X136200500Y-61784500D01*
X136150572Y-61784500D01*
X136150571Y-61784500D01*
X136150561Y-61784501D01*
X136092092Y-61796132D01*
X136092086Y-61796134D01*
X136055322Y-61820700D01*
X135996434Y-61837309D01*
X135945329Y-61820707D01*
X135944829Y-61820373D01*
X135906943Y-61772328D01*
X135900820Y-61738051D01*
X135900820Y-61260757D01*
X135900819Y-61260755D01*
X135880341Y-61184331D01*
X135880339Y-61184327D01*
X135840780Y-61115809D01*
X135784832Y-61059860D01*
X135684510Y-60959539D01*
X135665737Y-60948700D01*
X135665737Y-60948701D01*
X135615989Y-60919979D01*
X135615988Y-60919978D01*
X135615987Y-60919978D01*
X135539564Y-60899500D01*
X135539562Y-60899500D01*
X123939562Y-60899500D01*
X123860438Y-60899500D01*
X123813661Y-60912033D01*
X123784007Y-60919979D01*
X123715493Y-60959536D01*
X122115489Y-62559540D01*
X122115488Y-62559539D01*
X122059539Y-62615489D01*
X122019980Y-62684007D01*
X122019978Y-62684011D01*
X121999500Y-62760435D01*
X121999500Y-73588992D01*
X121980593Y-73647183D01*
X121931093Y-73683147D01*
X121915987Y-73686773D01*
X121899699Y-73689352D01*
X121899695Y-73689354D01*
X121786659Y-73746949D01*
X121696949Y-73836659D01*
X121639354Y-73949695D01*
X121624500Y-74043477D01*
X121624500Y-74506520D01*
X121624501Y-74506523D01*
X121639352Y-74600299D01*
X121639354Y-74600304D01*
X121696950Y-74713342D01*
X121786658Y-74803050D01*
X121899696Y-74860646D01*
X121993481Y-74875500D01*
X122606518Y-74875499D01*
X122606520Y-74875499D01*
X122606521Y-74875498D01*
X122653411Y-74868072D01*
X122700299Y-74860647D01*
X122700299Y-74860646D01*
X122700304Y-74860646D01*
X122813342Y-74803050D01*
X122903050Y-74713342D01*
X122960646Y-74600304D01*
X122975500Y-74506519D01*
X122975499Y-74043482D01*
X122960646Y-73949696D01*
X122903050Y-73836658D01*
X122813342Y-73746950D01*
X122700304Y-73689354D01*
X122700306Y-73689354D01*
X122684010Y-73686773D01*
X122629494Y-73658993D01*
X122601718Y-73604476D01*
X122600500Y-73588992D01*
X122600500Y-62965479D01*
X122619407Y-62907288D01*
X122629496Y-62895475D01*
X123995475Y-61529496D01*
X124049992Y-61501719D01*
X124065479Y-61500500D01*
X135200820Y-61500500D01*
X135259011Y-61519407D01*
X135294975Y-61568907D01*
X135299820Y-61599500D01*
X135299820Y-61738051D01*
X135280913Y-61796242D01*
X135255811Y-61820373D01*
X135255311Y-61820707D01*
X135196421Y-61837308D01*
X135145318Y-61820700D01*
X135108553Y-61796134D01*
X135108551Y-61796133D01*
X135108548Y-61796132D01*
X135108547Y-61796132D01*
X135050078Y-61784501D01*
X135050068Y-61784500D01*
X134550572Y-61784500D01*
X134550571Y-61784500D01*
X134550561Y-61784501D01*
X134492092Y-61796132D01*
X134492086Y-61796134D01*
X134425771Y-61840445D01*
X134425765Y-61840451D01*
X134381454Y-61906766D01*
X134381452Y-61906772D01*
X134369821Y-61965241D01*
X134369820Y-61965253D01*
X134369820Y-63400500D01*
X134350913Y-63458691D01*
X134301413Y-63494655D01*
X134270820Y-63499500D01*
X129860435Y-63499500D01*
X129784011Y-63519978D01*
X129784007Y-63519980D01*
X129715491Y-63559538D01*
X129115489Y-64159540D01*
X129115488Y-64159539D01*
X129059539Y-64215489D01*
X129019980Y-64284007D01*
X129019978Y-64284011D01*
X128999500Y-64360435D01*
X128999500Y-64360438D01*
X128999500Y-70839562D01*
X129014859Y-70896882D01*
X129019979Y-70915990D01*
X129024914Y-70924536D01*
X129059540Y-70984511D01*
X135320825Y-77245796D01*
X135348601Y-77300311D01*
X135349820Y-77315798D01*
X135349820Y-80600500D01*
X135330913Y-80658691D01*
X135281413Y-80694655D01*
X135250820Y-80699500D01*
X134980568Y-80699500D01*
X134919634Y-80711621D01*
X134881006Y-80711621D01*
X134820071Y-80699500D01*
X134820068Y-80699500D01*
X134480572Y-80699500D01*
X134480568Y-80699500D01*
X134419634Y-80711621D01*
X134381006Y-80711621D01*
X134320071Y-80699500D01*
X134320068Y-80699500D01*
X133980572Y-80699500D01*
X133980571Y-80699500D01*
X133980561Y-80699501D01*
X133922092Y-80711132D01*
X133922086Y-80711134D01*
X133855771Y-80755445D01*
X133855765Y-80755451D01*
X133811454Y-80821766D01*
X133811452Y-80821772D01*
X133799821Y-80880241D01*
X133799820Y-80880253D01*
X133799820Y-81719746D01*
X133799821Y-81719758D01*
X133811452Y-81778227D01*
X133811455Y-81778235D01*
X133814244Y-81782409D01*
X133830851Y-81841298D01*
X133809671Y-81898701D01*
X133801931Y-81907411D01*
X133755894Y-81953448D01*
X133755885Y-81953458D01*
X133679228Y-82068182D01*
X133679222Y-82068193D01*
X133626420Y-82195670D01*
X133626420Y-82195672D01*
X133599500Y-82331004D01*
X133599500Y-83140742D01*
X133580593Y-83198933D01*
X133531093Y-83234897D01*
X133469907Y-83234897D01*
X133445500Y-83223058D01*
X133428358Y-83211604D01*
X133428356Y-83211603D01*
X133370020Y-83200000D01*
X133250321Y-83200000D01*
X133250320Y-83200001D01*
X133250320Y-84399999D01*
X133250321Y-84400000D01*
X133370017Y-84400000D01*
X133370020Y-84399999D01*
X133428354Y-84388396D01*
X133445497Y-84376942D01*
X133504385Y-84360333D01*
X133561789Y-84381510D01*
X133595783Y-84432383D01*
X133599500Y-84459257D01*
X133599500Y-85200500D01*
X133580593Y-85258691D01*
X133531093Y-85294655D01*
X133500500Y-85299500D01*
X122831165Y-85299500D01*
X122772974Y-85280593D01*
X122761161Y-85270504D01*
X122029496Y-84538839D01*
X122001719Y-84484322D01*
X122000500Y-84468835D01*
X122000500Y-83900001D01*
X132750320Y-83900001D01*
X132750320Y-84219700D01*
X132761923Y-84278036D01*
X132806126Y-84344189D01*
X132806130Y-84344193D01*
X132872283Y-84388396D01*
X132930619Y-84399999D01*
X132930623Y-84400000D01*
X133050319Y-84400000D01*
X133050320Y-84399999D01*
X133050320Y-83900001D01*
X133050319Y-83900000D01*
X132750321Y-83900000D01*
X132750320Y-83900001D01*
X122000500Y-83900001D01*
X122000500Y-83380299D01*
X132750320Y-83380299D01*
X132750320Y-83699999D01*
X132750321Y-83700000D01*
X133050319Y-83700000D01*
X133050320Y-83699999D01*
X133050320Y-83200001D01*
X133050319Y-83200000D01*
X132930619Y-83200000D01*
X132872283Y-83211603D01*
X132806130Y-83255806D01*
X132806126Y-83255810D01*
X132761923Y-83321963D01*
X132750320Y-83380299D01*
X122000500Y-83380299D01*
X122000500Y-77431008D01*
X122000499Y-77431004D01*
X121973580Y-77295672D01*
X121936278Y-77205616D01*
X121920777Y-77168193D01*
X121920771Y-77168182D01*
X121844114Y-77053458D01*
X121844106Y-77053449D01*
X121790317Y-76999661D01*
X121762539Y-76945145D01*
X121772110Y-76884713D01*
X121790317Y-76859653D01*
X122095476Y-76554495D01*
X122149992Y-76526718D01*
X122165479Y-76525499D01*
X122606521Y-76525499D01*
X122606522Y-76525498D01*
X122664673Y-76516289D01*
X122700299Y-76510647D01*
X122700299Y-76510646D01*
X122700304Y-76510646D01*
X122813342Y-76453050D01*
X122903050Y-76363342D01*
X122960646Y-76250304D01*
X122975500Y-76156519D01*
X122975499Y-75693482D01*
X122975498Y-75693478D01*
X122975498Y-75693476D01*
X122960647Y-75599700D01*
X122960646Y-75599698D01*
X122960646Y-75599696D01*
X122903050Y-75486658D01*
X122813342Y-75396950D01*
X122700304Y-75339354D01*
X122700305Y-75339354D01*
X122606522Y-75324500D01*
X121993479Y-75324500D01*
X121993476Y-75324501D01*
X121899700Y-75339352D01*
X121899695Y-75339354D01*
X121786659Y-75396949D01*
X121696949Y-75486659D01*
X121639354Y-75599695D01*
X121624500Y-75693478D01*
X121624500Y-76134519D01*
X121605593Y-76192710D01*
X121595504Y-76204522D01*
X121115489Y-76684539D01*
X121059539Y-76740489D01*
X121019980Y-76809007D01*
X121019978Y-76809012D01*
X121017783Y-76817203D01*
X120984455Y-76868515D01*
X120968846Y-76878872D01*
X120968202Y-76879216D01*
X120853458Y-76955886D01*
X120853454Y-76955889D01*
X120755885Y-77053458D01*
X120679228Y-77168182D01*
X120679222Y-77168193D01*
X120626420Y-77295670D01*
X120626420Y-77295672D01*
X120599500Y-77431004D01*
X120599500Y-84868996D01*
X120626420Y-85004327D01*
X120626420Y-85004329D01*
X120679223Y-85131808D01*
X120745562Y-85231093D01*
X120755886Y-85246543D01*
X122053457Y-86544114D01*
X122168189Y-86620775D01*
X122295671Y-86673580D01*
X122322587Y-86678933D01*
X122322590Y-86678935D01*
X122322591Y-86678934D01*
X122431007Y-86700500D01*
X122431008Y-86700500D01*
X162368993Y-86700500D01*
X162368994Y-86700500D01*
X162504328Y-86673580D01*
X162631811Y-86620775D01*
X162746543Y-86544114D01*
X164230498Y-85060158D01*
X164285013Y-85032383D01*
X164345445Y-85041954D01*
X164388710Y-85085219D01*
X164399500Y-85130164D01*
X164399500Y-87200500D01*
X164380593Y-87258691D01*
X164331093Y-87294655D01*
X164300500Y-87299500D01*
X120499500Y-87299500D01*
X120441309Y-87280593D01*
X120405345Y-87231093D01*
X120400500Y-87200500D01*
X120400500Y-59399500D01*
X120419407Y-59341309D01*
X120468907Y-59305345D01*
X120499500Y-59300500D01*
X164300500Y-59300500D01*
X164358691Y-59319407D01*
G37*
G04 #@! TD.AperFunction*
G04 #@! TA.AperFunction,Conductor*
G36*
X135480561Y-81900498D02*
G01*
X135480566Y-81900498D01*
X135480572Y-81900500D01*
X135480573Y-81900500D01*
X135820067Y-81900500D01*
X135820068Y-81900500D01*
X135863434Y-81891874D01*
X135881005Y-81888379D01*
X135919635Y-81888379D01*
X135980561Y-81900498D01*
X135980566Y-81900498D01*
X135980572Y-81900500D01*
X135980573Y-81900500D01*
X136250820Y-81900500D01*
X136309011Y-81919407D01*
X136344975Y-81968907D01*
X136349820Y-81999500D01*
X136349820Y-84189884D01*
X136370297Y-84266305D01*
X136370301Y-84266313D01*
X136388108Y-84297158D01*
X136388109Y-84297158D01*
X136409858Y-84334829D01*
X136409860Y-84334831D01*
X136480819Y-84405791D01*
X136508596Y-84460308D01*
X136508968Y-84488715D01*
X136494318Y-84599998D01*
X136494318Y-84600000D01*
X136514955Y-84756758D01*
X136514957Y-84756766D01*
X136575462Y-84902838D01*
X136575462Y-84902839D01*
X136653337Y-85004328D01*
X136671718Y-85028282D01*
X136671722Y-85028285D01*
X136671723Y-85028286D01*
X136793799Y-85121958D01*
X136828455Y-85172382D01*
X136826854Y-85233547D01*
X136789606Y-85282088D01*
X136733532Y-85299500D01*
X135099500Y-85299500D01*
X135041309Y-85280593D01*
X135005345Y-85231093D01*
X135000500Y-85200500D01*
X135000500Y-82331008D01*
X135000499Y-82331004D01*
X134989997Y-82278208D01*
X134973580Y-82195672D01*
X134955303Y-82151550D01*
X134950916Y-82095802D01*
X134949973Y-82095678D01*
X134950557Y-82091241D01*
X134950503Y-82090555D01*
X134950802Y-82089375D01*
X134950820Y-82089244D01*
X134950820Y-81999500D01*
X134969727Y-81941309D01*
X135019227Y-81905345D01*
X135049820Y-81900500D01*
X135320067Y-81900500D01*
X135320068Y-81900500D01*
X135363434Y-81891874D01*
X135381005Y-81888379D01*
X135419635Y-81888379D01*
X135480561Y-81900498D01*
G37*
G04 #@! TD.AperFunction*
G04 #@! TA.AperFunction,Conductor*
G36*
X150599824Y-63290480D02*
G01*
X150653458Y-63344114D01*
X150768182Y-63420771D01*
X150768193Y-63420777D01*
X150815283Y-63440282D01*
X150895672Y-63473580D01*
X151031007Y-63500500D01*
X153968835Y-63500500D01*
X154027026Y-63519407D01*
X154038839Y-63529496D01*
X161322182Y-70812839D01*
X161349959Y-70867356D01*
X161340388Y-70927788D01*
X161322182Y-70952845D01*
X161179523Y-71095504D01*
X161125008Y-71123281D01*
X161109521Y-71124500D01*
X160616510Y-71124500D01*
X160516874Y-71140281D01*
X160516867Y-71140283D01*
X160396782Y-71201470D01*
X160301470Y-71296782D01*
X160240283Y-71416867D01*
X160240282Y-71416872D01*
X160240281Y-71416874D01*
X160224500Y-71516512D01*
X160224500Y-72083488D01*
X160235147Y-72150714D01*
X160240281Y-72183125D01*
X160240283Y-72183132D01*
X160301470Y-72303217D01*
X160301472Y-72303220D01*
X160396780Y-72398528D01*
X160396782Y-72398529D01*
X160516867Y-72459716D01*
X160516869Y-72459716D01*
X160516874Y-72459719D01*
X160592541Y-72471703D01*
X160616510Y-72475500D01*
X160616512Y-72475500D01*
X161133490Y-72475500D01*
X161154885Y-72472111D01*
X161233126Y-72459719D01*
X161353220Y-72398528D01*
X161448528Y-72303220D01*
X161509719Y-72183126D01*
X161525500Y-72083488D01*
X161525500Y-71640479D01*
X161544407Y-71582288D01*
X161554496Y-71570475D01*
X161747153Y-71377818D01*
X161801670Y-71350041D01*
X161862102Y-71359612D01*
X161887161Y-71377818D01*
X162970504Y-72461161D01*
X162998281Y-72515678D01*
X162999500Y-72531165D01*
X162999500Y-81850500D01*
X162980593Y-81908691D01*
X162931093Y-81944655D01*
X162900500Y-81949500D01*
X162649748Y-81949500D01*
X162591557Y-81930593D01*
X162561538Y-81895445D01*
X162559719Y-81891875D01*
X162559719Y-81891874D01*
X162498528Y-81771780D01*
X162403220Y-81676472D01*
X162403217Y-81676470D01*
X162283132Y-81615283D01*
X162283127Y-81615281D01*
X162283126Y-81615281D01*
X162249913Y-81610020D01*
X162183490Y-81599500D01*
X162183488Y-81599500D01*
X161616512Y-81599500D01*
X161616510Y-81599500D01*
X161516874Y-81615281D01*
X161516867Y-81615283D01*
X161396782Y-81676470D01*
X161396780Y-81676472D01*
X161301472Y-81771780D01*
X161240281Y-81891874D01*
X161240280Y-81891875D01*
X161238462Y-81895445D01*
X161195197Y-81938710D01*
X161150252Y-81949500D01*
X160604431Y-81949500D01*
X160546240Y-81930593D01*
X160534427Y-81920504D01*
X160304496Y-81690573D01*
X160276719Y-81636056D01*
X160275500Y-81620569D01*
X160275500Y-80916301D01*
X160275498Y-80916289D01*
X160268330Y-80880253D01*
X160263867Y-80857817D01*
X160219552Y-80791496D01*
X160219548Y-80791493D01*
X160153233Y-80747182D01*
X160153231Y-80747181D01*
X160153228Y-80747180D01*
X160153227Y-80747180D01*
X160094758Y-80735549D01*
X160094748Y-80735548D01*
X159605252Y-80735548D01*
X159605248Y-80735548D01*
X159544314Y-80747669D01*
X159505686Y-80747669D01*
X159444751Y-80735548D01*
X159444748Y-80735548D01*
X158955252Y-80735548D01*
X158955248Y-80735548D01*
X158894314Y-80747669D01*
X158855686Y-80747669D01*
X158794751Y-80735548D01*
X158794748Y-80735548D01*
X158305252Y-80735548D01*
X158305248Y-80735548D01*
X158243032Y-80747924D01*
X158204404Y-80747924D01*
X158144700Y-80736048D01*
X158000001Y-80736048D01*
X158000000Y-80736049D01*
X158000000Y-82586047D01*
X158000001Y-82586048D01*
X158149561Y-82586048D01*
X158149561Y-82588366D01*
X158200514Y-82599517D01*
X158241181Y-82645231D01*
X158249500Y-82684955D01*
X158249500Y-82767067D01*
X158230593Y-82825258D01*
X158229042Y-82827334D01*
X158175462Y-82897160D01*
X158175462Y-82897161D01*
X158114957Y-83043233D01*
X158114955Y-83043241D01*
X158094318Y-83199999D01*
X158094318Y-83200000D01*
X158114955Y-83356758D01*
X158114957Y-83356766D01*
X158175462Y-83502838D01*
X158175462Y-83502839D01*
X158254574Y-83605940D01*
X158271718Y-83628282D01*
X158397159Y-83724536D01*
X158397160Y-83724536D01*
X158397161Y-83724537D01*
X158503010Y-83768381D01*
X158549536Y-83808117D01*
X158563820Y-83867612D01*
X158540405Y-83924140D01*
X158535129Y-83929848D01*
X158394476Y-84070503D01*
X158339960Y-84098281D01*
X158324472Y-84099500D01*
X158275154Y-84099500D01*
X158216963Y-84080593D01*
X158196612Y-84060767D01*
X158128286Y-83971723D01*
X158128285Y-83971722D01*
X158128282Y-83971718D01*
X158128277Y-83971714D01*
X158128276Y-83971713D01*
X158002838Y-83875462D01*
X157856766Y-83814957D01*
X157856758Y-83814955D01*
X157700001Y-83794318D01*
X157699999Y-83794318D01*
X157543241Y-83814955D01*
X157543233Y-83814957D01*
X157397161Y-83875462D01*
X157397160Y-83875462D01*
X157271723Y-83971713D01*
X157271713Y-83971723D01*
X157175462Y-84097160D01*
X157175462Y-84097161D01*
X157114957Y-84243233D01*
X157114955Y-84243241D01*
X157094318Y-84399999D01*
X157094318Y-84400000D01*
X157114955Y-84556758D01*
X157114957Y-84556766D01*
X157175462Y-84702838D01*
X157175462Y-84702839D01*
X157216842Y-84756766D01*
X157271718Y-84828282D01*
X157397159Y-84924536D01*
X157543238Y-84985044D01*
X157660809Y-85000522D01*
X157699999Y-85005682D01*
X157700000Y-85005682D01*
X157700001Y-85005682D01*
X157731352Y-85001554D01*
X157856762Y-84985044D01*
X158002841Y-84924536D01*
X158128282Y-84828282D01*
X158196612Y-84739233D01*
X158247037Y-84704577D01*
X158275154Y-84700500D01*
X158529513Y-84700500D01*
X158529513Y-84700499D01*
X158605939Y-84680021D01*
X158674461Y-84640460D01*
X158730410Y-84584511D01*
X159256468Y-84058453D01*
X161225000Y-84058453D01*
X161240760Y-84157965D01*
X161240762Y-84157969D01*
X161301881Y-84277921D01*
X161397078Y-84373118D01*
X161517030Y-84434237D01*
X161517029Y-84434237D01*
X161616545Y-84449999D01*
X161800000Y-84449999D01*
X161800000Y-83900001D01*
X162000000Y-83900001D01*
X162000000Y-84449998D01*
X162000001Y-84449999D01*
X162183453Y-84449999D01*
X162282965Y-84434239D01*
X162282969Y-84434237D01*
X162402921Y-84373118D01*
X162498118Y-84277921D01*
X162559237Y-84157969D01*
X162575000Y-84058453D01*
X162575000Y-83900001D01*
X162574999Y-83900000D01*
X162000001Y-83900000D01*
X162000000Y-83900001D01*
X161800000Y-83900001D01*
X161799999Y-83900000D01*
X161225002Y-83900000D01*
X161225001Y-83900001D01*
X161225001Y-84058453D01*
X161225000Y-84058453D01*
X159256468Y-84058453D01*
X159640460Y-83674461D01*
X159654294Y-83650500D01*
X159680021Y-83605939D01*
X159697275Y-83541546D01*
X161225000Y-83541546D01*
X161225000Y-83699999D01*
X161225001Y-83700000D01*
X161799999Y-83700000D01*
X161800000Y-83699999D01*
X161800000Y-83150001D01*
X162000000Y-83150001D01*
X162000000Y-83699999D01*
X162000001Y-83700000D01*
X162574998Y-83700000D01*
X162574999Y-83699999D01*
X162574999Y-83541546D01*
X162559239Y-83442034D01*
X162559237Y-83442030D01*
X162498118Y-83322078D01*
X162402921Y-83226881D01*
X162282969Y-83165762D01*
X162282970Y-83165762D01*
X162183454Y-83150000D01*
X162000001Y-83150000D01*
X162000000Y-83150001D01*
X161800000Y-83150001D01*
X161799999Y-83150000D01*
X161616547Y-83150000D01*
X161616546Y-83150001D01*
X161517034Y-83165760D01*
X161517030Y-83165762D01*
X161397078Y-83226881D01*
X161301881Y-83322078D01*
X161240762Y-83442030D01*
X161225000Y-83541546D01*
X159697275Y-83541546D01*
X159700500Y-83529512D01*
X159700500Y-82870488D01*
X159680022Y-82794062D01*
X159680020Y-82794059D01*
X159680020Y-82794057D01*
X159645951Y-82735048D01*
X159633229Y-82675200D01*
X159658116Y-82619304D01*
X159711104Y-82588711D01*
X159731687Y-82586548D01*
X160094747Y-82586548D01*
X160094748Y-82586548D01*
X160153231Y-82574915D01*
X160216765Y-82532462D01*
X160275649Y-82515853D01*
X160316868Y-82527770D01*
X160316965Y-82527537D01*
X160319054Y-82528402D01*
X160321268Y-82529042D01*
X160322963Y-82530021D01*
X160399387Y-82550499D01*
X160399389Y-82550500D01*
X160399390Y-82550500D01*
X161150252Y-82550500D01*
X161208443Y-82569407D01*
X161238462Y-82604555D01*
X161240280Y-82608124D01*
X161240281Y-82608126D01*
X161301472Y-82728220D01*
X161396780Y-82823528D01*
X161396782Y-82823529D01*
X161516867Y-82884716D01*
X161516869Y-82884716D01*
X161516874Y-82884719D01*
X161592541Y-82896703D01*
X161616510Y-82900500D01*
X161616512Y-82900500D01*
X162183490Y-82900500D01*
X162204885Y-82897111D01*
X162283126Y-82884719D01*
X162403220Y-82823528D01*
X162498528Y-82728220D01*
X162559719Y-82608126D01*
X162559719Y-82608124D01*
X162561538Y-82604555D01*
X162604803Y-82561290D01*
X162649748Y-82550500D01*
X162900500Y-82550500D01*
X162958691Y-82569407D01*
X162994655Y-82618907D01*
X162999500Y-82649500D01*
X162999500Y-84268835D01*
X162980593Y-84327026D01*
X162970504Y-84338839D01*
X162038839Y-85270504D01*
X161984322Y-85298281D01*
X161968835Y-85299500D01*
X155646121Y-85299500D01*
X155587930Y-85280593D01*
X155560386Y-85250002D01*
X155540460Y-85215489D01*
X155525471Y-85200500D01*
X155484511Y-85159539D01*
X155484511Y-85159540D01*
X155254496Y-84929525D01*
X155226719Y-84875008D01*
X155225500Y-84859521D01*
X155225500Y-84445726D01*
X155225499Y-84445724D01*
X155222646Y-84415304D01*
X155222646Y-84415300D01*
X155177793Y-84287117D01*
X155171006Y-84277921D01*
X155097154Y-84177854D01*
X155097152Y-84177852D01*
X155097150Y-84177849D01*
X155097146Y-84177846D01*
X155097144Y-84177844D01*
X154987883Y-84097206D01*
X154859703Y-84052354D01*
X154859694Y-84052352D01*
X154829274Y-84049499D01*
X154829266Y-84049499D01*
X153770734Y-84049499D01*
X153770725Y-84049499D01*
X153740305Y-84052352D01*
X153740296Y-84052354D01*
X153612116Y-84097206D01*
X153502855Y-84177844D01*
X153502845Y-84177854D01*
X153422207Y-84287115D01*
X153377355Y-84415295D01*
X153377353Y-84415304D01*
X153374500Y-84445724D01*
X153374500Y-84859521D01*
X153355593Y-84917712D01*
X153345504Y-84929525D01*
X153004525Y-85270504D01*
X152950008Y-85298281D01*
X152934521Y-85299500D01*
X150699500Y-85299500D01*
X150641309Y-85280593D01*
X150605345Y-85231093D01*
X150600500Y-85200500D01*
X150600500Y-83900001D01*
X151250320Y-83900001D01*
X151250320Y-84219700D01*
X151261923Y-84278036D01*
X151306126Y-84344189D01*
X151306130Y-84344193D01*
X151372283Y-84388396D01*
X151430619Y-84399999D01*
X151430623Y-84400000D01*
X151550319Y-84400000D01*
X151550320Y-84399999D01*
X151550320Y-83900001D01*
X151750320Y-83900001D01*
X151750320Y-84399999D01*
X151750321Y-84400000D01*
X151870017Y-84400000D01*
X151870020Y-84399999D01*
X151928356Y-84388396D01*
X151994509Y-84344193D01*
X151994513Y-84344189D01*
X152038716Y-84278036D01*
X152050319Y-84219700D01*
X152050320Y-84219697D01*
X152050320Y-83900001D01*
X152050319Y-83900000D01*
X151750321Y-83900000D01*
X151750320Y-83900001D01*
X151550320Y-83900001D01*
X151550319Y-83900000D01*
X151250321Y-83900000D01*
X151250320Y-83900001D01*
X150600500Y-83900001D01*
X150600500Y-83380299D01*
X151250320Y-83380299D01*
X151250320Y-83699999D01*
X151250321Y-83700000D01*
X151550319Y-83700000D01*
X151550320Y-83699999D01*
X151550320Y-83200001D01*
X151750320Y-83200001D01*
X151750320Y-83699999D01*
X151750321Y-83700000D01*
X152050319Y-83700000D01*
X152050320Y-83699999D01*
X152050320Y-83380302D01*
X152050319Y-83380299D01*
X152038716Y-83321963D01*
X151994513Y-83255810D01*
X151994509Y-83255806D01*
X151928356Y-83211603D01*
X151870020Y-83200000D01*
X151750321Y-83200000D01*
X151750320Y-83200001D01*
X151550320Y-83200001D01*
X151550319Y-83200000D01*
X151430619Y-83200000D01*
X151372283Y-83211603D01*
X151306130Y-83255806D01*
X151306126Y-83255810D01*
X151261923Y-83321963D01*
X151250320Y-83380299D01*
X150600500Y-83380299D01*
X150600500Y-82950002D01*
X153375001Y-82950002D01*
X153375001Y-83154204D01*
X153377850Y-83184601D01*
X153377850Y-83184603D01*
X153422654Y-83312648D01*
X153503207Y-83421791D01*
X153503209Y-83421793D01*
X153612352Y-83502346D01*
X153740398Y-83547150D01*
X153770789Y-83550000D01*
X154199998Y-83550000D01*
X154200000Y-83549999D01*
X154200000Y-82950002D01*
X154400000Y-82950002D01*
X154400000Y-83549999D01*
X154400001Y-83550000D01*
X154829203Y-83550000D01*
X154859600Y-83547150D01*
X154859602Y-83547150D01*
X154987647Y-83502346D01*
X155096790Y-83421793D01*
X155096792Y-83421791D01*
X155177345Y-83312648D01*
X155222149Y-83184602D01*
X155224999Y-83154212D01*
X155225000Y-83154211D01*
X155225000Y-82950002D01*
X155224999Y-82950001D01*
X154400001Y-82950001D01*
X154400000Y-82950002D01*
X154200000Y-82950002D01*
X154199999Y-82950001D01*
X153375002Y-82950001D01*
X153375001Y-82950002D01*
X150600500Y-82950002D01*
X150600500Y-82731008D01*
X150600500Y-82731007D01*
X150576556Y-82610634D01*
X150583748Y-82549875D01*
X150586596Y-82545789D01*
X153375000Y-82545789D01*
X153375000Y-82750000D01*
X153375001Y-82750001D01*
X154199999Y-82750001D01*
X154200000Y-82750000D01*
X154200000Y-82150002D01*
X154400000Y-82150002D01*
X154400000Y-82750000D01*
X154400001Y-82750001D01*
X155224998Y-82750001D01*
X155224999Y-82750000D01*
X155224999Y-82545797D01*
X155222149Y-82515400D01*
X155222149Y-82515398D01*
X155177345Y-82387353D01*
X155096792Y-82278210D01*
X155096790Y-82278208D01*
X154987647Y-82197655D01*
X154859601Y-82152851D01*
X154829211Y-82150001D01*
X154400001Y-82150001D01*
X154400000Y-82150002D01*
X154200000Y-82150002D01*
X154199999Y-82150001D01*
X153770796Y-82150001D01*
X153740399Y-82152851D01*
X153740397Y-82152851D01*
X153612352Y-82197655D01*
X153503209Y-82278208D01*
X153503207Y-82278210D01*
X153422654Y-82387353D01*
X153377850Y-82515399D01*
X153375000Y-82545789D01*
X150586596Y-82545789D01*
X150603648Y-82521321D01*
X150890780Y-82234191D01*
X150913020Y-82195670D01*
X150930340Y-82165672D01*
X150930340Y-82165670D01*
X150930342Y-82165668D01*
X150950820Y-82089242D01*
X150950820Y-82010118D01*
X150950820Y-81865681D01*
X150967504Y-81810681D01*
X150989187Y-81778231D01*
X150992605Y-81761049D01*
X157475000Y-81761049D01*
X157475000Y-82405748D01*
X157486603Y-82464084D01*
X157530806Y-82530237D01*
X157530810Y-82530241D01*
X157596963Y-82574444D01*
X157655299Y-82586047D01*
X157655303Y-82586048D01*
X157799999Y-82586048D01*
X157800000Y-82586047D01*
X157800000Y-81761049D01*
X157799999Y-81761048D01*
X157475001Y-81761048D01*
X157475000Y-81761049D01*
X150992605Y-81761049D01*
X151000820Y-81719748D01*
X151000820Y-80916347D01*
X157475000Y-80916347D01*
X157475000Y-81561047D01*
X157475001Y-81561048D01*
X157799999Y-81561048D01*
X157800000Y-81561047D01*
X157800000Y-80736049D01*
X157799999Y-80736048D01*
X157655299Y-80736048D01*
X157596963Y-80747651D01*
X157530810Y-80791854D01*
X157530806Y-80791858D01*
X157486603Y-80858011D01*
X157475000Y-80916347D01*
X151000820Y-80916347D01*
X151000820Y-80880252D01*
X150989187Y-80821769D01*
X150944872Y-80755448D01*
X150933612Y-80747924D01*
X150878553Y-80711134D01*
X150878551Y-80711133D01*
X150878548Y-80711132D01*
X150878547Y-80711132D01*
X150820078Y-80699501D01*
X150820068Y-80699500D01*
X150480572Y-80699500D01*
X150480568Y-80699500D01*
X150419634Y-80711621D01*
X150381006Y-80711621D01*
X150320071Y-80699500D01*
X150320068Y-80699500D01*
X149980572Y-80699500D01*
X149980568Y-80699500D01*
X149919634Y-80711621D01*
X149881006Y-80711621D01*
X149820071Y-80699500D01*
X149820068Y-80699500D01*
X149480572Y-80699500D01*
X149480568Y-80699500D01*
X149419634Y-80711621D01*
X149381006Y-80711621D01*
X149320071Y-80699500D01*
X149320068Y-80699500D01*
X148980572Y-80699500D01*
X148980568Y-80699500D01*
X148919634Y-80711621D01*
X148881006Y-80711621D01*
X148820071Y-80699500D01*
X148820068Y-80699500D01*
X148480572Y-80699500D01*
X148480568Y-80699500D01*
X148419634Y-80711621D01*
X148381006Y-80711621D01*
X148320071Y-80699500D01*
X148320068Y-80699500D01*
X147980572Y-80699500D01*
X147980568Y-80699500D01*
X147919634Y-80711621D01*
X147881006Y-80711621D01*
X147820071Y-80699500D01*
X147820068Y-80699500D01*
X147480572Y-80699500D01*
X147480568Y-80699500D01*
X147418352Y-80711876D01*
X147379724Y-80711876D01*
X147320020Y-80700000D01*
X147250321Y-80700000D01*
X147250320Y-80700001D01*
X147250320Y-81899999D01*
X147250321Y-81900000D01*
X147320017Y-81900000D01*
X147320027Y-81899998D01*
X147379723Y-81888124D01*
X147418353Y-81888123D01*
X147422087Y-81888865D01*
X147422089Y-81888867D01*
X147480572Y-81900500D01*
X147480573Y-81900500D01*
X147820067Y-81900500D01*
X147820068Y-81900500D01*
X147863434Y-81891874D01*
X147881005Y-81888379D01*
X147919635Y-81888379D01*
X147980561Y-81900498D01*
X147980566Y-81900498D01*
X147980572Y-81900500D01*
X147980573Y-81900500D01*
X148320067Y-81900500D01*
X148320068Y-81900500D01*
X148363434Y-81891874D01*
X148381005Y-81888379D01*
X148419635Y-81888379D01*
X148480561Y-81900498D01*
X148480566Y-81900498D01*
X148480572Y-81900500D01*
X148480573Y-81900500D01*
X148750820Y-81900500D01*
X148809011Y-81919407D01*
X148844975Y-81968907D01*
X148849820Y-81999500D01*
X148849820Y-82089884D01*
X148870298Y-82166308D01*
X148870300Y-82166312D01*
X148909859Y-82234830D01*
X149196349Y-82521321D01*
X149224126Y-82575837D01*
X149223443Y-82610638D01*
X149199500Y-82731004D01*
X149199500Y-85200500D01*
X149180593Y-85258691D01*
X149131093Y-85294655D01*
X149100500Y-85299500D01*
X137466468Y-85299500D01*
X137408277Y-85280593D01*
X137372313Y-85231093D01*
X137372313Y-85169907D01*
X137406201Y-85121958D01*
X137454080Y-85085219D01*
X137528282Y-85028282D01*
X137624536Y-84902841D01*
X137685044Y-84756762D01*
X137705682Y-84600000D01*
X137693360Y-84506408D01*
X137704510Y-84446250D01*
X137748892Y-84404132D01*
X137778588Y-84395335D01*
X137856762Y-84385044D01*
X138002841Y-84324536D01*
X138128282Y-84228282D01*
X138224536Y-84102841D01*
X138285044Y-83956762D01*
X138305682Y-83800000D01*
X138285044Y-83643238D01*
X138269593Y-83605935D01*
X138224537Y-83497161D01*
X138224537Y-83497160D01*
X138128286Y-83371723D01*
X138128285Y-83371722D01*
X138128282Y-83371718D01*
X138128277Y-83371714D01*
X138128276Y-83371713D01*
X138002838Y-83275462D01*
X137856766Y-83214957D01*
X137856758Y-83214955D01*
X137700001Y-83194318D01*
X137699998Y-83194318D01*
X137588715Y-83208968D01*
X137528555Y-83197818D01*
X137505790Y-83180819D01*
X137479816Y-83154845D01*
X137452039Y-83100328D01*
X137450820Y-83084841D01*
X137450820Y-81999500D01*
X137469727Y-81941309D01*
X137519227Y-81905345D01*
X137549820Y-81900500D01*
X137820067Y-81900500D01*
X137820068Y-81900500D01*
X137820069Y-81900499D01*
X137820075Y-81900499D01*
X137845481Y-81895445D01*
X137878551Y-81888867D01*
X137878552Y-81888866D01*
X137882283Y-81888124D01*
X137920913Y-81888123D01*
X137980619Y-81899999D01*
X137980623Y-81900000D01*
X138050319Y-81900000D01*
X138050320Y-81899999D01*
X138050320Y-80700001D01*
X138050319Y-80700000D01*
X137980617Y-80700000D01*
X137920913Y-80711876D01*
X137882286Y-80711876D01*
X137820070Y-80699500D01*
X137820068Y-80699500D01*
X137480572Y-80699500D01*
X137480568Y-80699500D01*
X137419634Y-80711621D01*
X137381006Y-80711621D01*
X137320071Y-80699500D01*
X137320068Y-80699500D01*
X136980572Y-80699500D01*
X136980568Y-80699500D01*
X136919634Y-80711621D01*
X136881006Y-80711621D01*
X136820071Y-80699500D01*
X136820068Y-80699500D01*
X136549820Y-80699500D01*
X136491629Y-80680593D01*
X136455665Y-80631093D01*
X136450820Y-80600500D01*
X136450820Y-79453553D01*
X137140764Y-79453553D01*
X137140764Y-79453554D01*
X137161401Y-79610312D01*
X137161403Y-79610320D01*
X137221908Y-79756392D01*
X137221908Y-79756393D01*
X137312447Y-79874386D01*
X137318164Y-79881836D01*
X137443605Y-79978090D01*
X137589684Y-80038598D01*
X137707255Y-80054076D01*
X137746445Y-80059236D01*
X137746446Y-80059236D01*
X137746447Y-80059236D01*
X137777798Y-80055108D01*
X137903208Y-80038598D01*
X138049287Y-79978090D01*
X138105449Y-79934994D01*
X138163122Y-79914571D01*
X138221788Y-79931948D01*
X138235719Y-79943533D01*
X138370824Y-80078638D01*
X138398601Y-80133155D01*
X138399820Y-80148642D01*
X138399820Y-80506350D01*
X138386557Y-80555848D01*
X138370301Y-80584005D01*
X138370297Y-80584013D01*
X138358880Y-80626624D01*
X138325556Y-80677938D01*
X138268435Y-80699864D01*
X138263254Y-80700000D01*
X138250321Y-80700000D01*
X138250320Y-80700001D01*
X138250320Y-81899999D01*
X138250321Y-81900000D01*
X138320017Y-81900000D01*
X138320027Y-81899998D01*
X138379723Y-81888124D01*
X138418353Y-81888123D01*
X138422087Y-81888865D01*
X138422089Y-81888867D01*
X138480572Y-81900500D01*
X138480573Y-81900500D01*
X138820067Y-81900500D01*
X138820068Y-81900500D01*
X138863434Y-81891874D01*
X138881005Y-81888379D01*
X138919635Y-81888379D01*
X138980561Y-81900498D01*
X138980566Y-81900498D01*
X138980572Y-81900500D01*
X138980573Y-81900500D01*
X139320067Y-81900500D01*
X139320068Y-81900500D01*
X139320069Y-81900499D01*
X139320075Y-81900499D01*
X139345481Y-81895445D01*
X139378551Y-81888867D01*
X139378552Y-81888866D01*
X139382283Y-81888124D01*
X139420913Y-81888123D01*
X139480619Y-81899999D01*
X139480623Y-81900000D01*
X139550319Y-81900000D01*
X139550320Y-81899999D01*
X139550320Y-80700001D01*
X139550319Y-80700000D01*
X139537387Y-80700000D01*
X139479196Y-80681093D01*
X139443232Y-80631593D01*
X139441761Y-80626624D01*
X139430343Y-80584014D01*
X139430342Y-80584012D01*
X139430342Y-80584011D01*
X139415674Y-80558605D01*
X139414082Y-80555847D01*
X139400820Y-80506349D01*
X139400820Y-79777914D01*
X139400819Y-79777912D01*
X139397922Y-79767102D01*
X139380341Y-79701488D01*
X139340780Y-79632966D01*
X139317720Y-79609906D01*
X139284831Y-79577016D01*
X139284831Y-79577017D01*
X138943533Y-79235719D01*
X138915756Y-79181202D01*
X138925327Y-79120770D01*
X138934989Y-79105456D01*
X138978090Y-79049287D01*
X139038598Y-78903208D01*
X139059236Y-78746446D01*
X139057246Y-78731334D01*
X139043922Y-78630126D01*
X139038598Y-78589684D01*
X139009943Y-78520504D01*
X138978091Y-78443607D01*
X138978091Y-78443606D01*
X138881840Y-78318169D01*
X138881839Y-78318168D01*
X138881836Y-78318164D01*
X138881831Y-78318160D01*
X138881830Y-78318159D01*
X138810658Y-78263547D01*
X138756395Y-78221910D01*
X138756394Y-78221909D01*
X138756392Y-78221908D01*
X138610320Y-78161403D01*
X138610312Y-78161401D01*
X138453555Y-78140764D01*
X138453553Y-78140764D01*
X138296795Y-78161401D01*
X138296787Y-78161403D01*
X138150715Y-78221908D01*
X138150714Y-78221908D01*
X138025277Y-78318159D01*
X138025267Y-78318169D01*
X137929016Y-78443606D01*
X137929016Y-78443607D01*
X137868511Y-78589679D01*
X137868509Y-78589687D01*
X137847872Y-78746445D01*
X137847872Y-78748872D01*
X137847334Y-78750525D01*
X137847025Y-78752879D01*
X137846588Y-78752821D01*
X137828965Y-78807063D01*
X137779465Y-78843027D01*
X137748872Y-78847872D01*
X137746445Y-78847872D01*
X137589687Y-78868509D01*
X137589679Y-78868511D01*
X137443607Y-78929016D01*
X137443606Y-78929016D01*
X137318169Y-79025267D01*
X137318159Y-79025277D01*
X137221908Y-79150714D01*
X137221908Y-79150715D01*
X137161403Y-79296787D01*
X137161401Y-79296795D01*
X137140764Y-79453553D01*
X136450820Y-79453553D01*
X136450820Y-76810757D01*
X136450819Y-76810755D01*
X136430341Y-76734331D01*
X136430339Y-76734327D01*
X136390780Y-76665809D01*
X136334831Y-76609859D01*
X136334831Y-76609860D01*
X136324970Y-76599999D01*
X139294638Y-76599999D01*
X139294638Y-76600000D01*
X139315275Y-76756758D01*
X139315277Y-76756766D01*
X139375782Y-76902838D01*
X139375782Y-76902839D01*
X139450076Y-76999661D01*
X139472038Y-77028282D01*
X139597479Y-77124536D01*
X139597480Y-77124536D01*
X139597481Y-77124537D01*
X139702866Y-77168189D01*
X139743558Y-77185044D01*
X139813742Y-77194283D01*
X139868966Y-77220623D01*
X139898162Y-77274394D01*
X139899820Y-77292436D01*
X139899820Y-80506350D01*
X139886557Y-80555848D01*
X139870301Y-80584005D01*
X139870297Y-80584013D01*
X139858880Y-80626624D01*
X139825556Y-80677938D01*
X139768435Y-80699864D01*
X139763254Y-80700000D01*
X139750321Y-80700000D01*
X139750320Y-80700001D01*
X139750320Y-81899999D01*
X139750321Y-81900000D01*
X139820017Y-81900000D01*
X139820027Y-81899998D01*
X139879723Y-81888124D01*
X139918353Y-81888123D01*
X139922087Y-81888865D01*
X139922089Y-81888867D01*
X139980572Y-81900500D01*
X139980573Y-81900500D01*
X140320067Y-81900500D01*
X140320068Y-81900500D01*
X140363434Y-81891874D01*
X140381005Y-81888379D01*
X140419635Y-81888379D01*
X140480561Y-81900498D01*
X140480566Y-81900498D01*
X140480572Y-81900500D01*
X140480573Y-81900500D01*
X140820067Y-81900500D01*
X140820068Y-81900500D01*
X140820069Y-81900499D01*
X140820075Y-81900499D01*
X140845481Y-81895445D01*
X140878551Y-81888867D01*
X140878552Y-81888866D01*
X140882283Y-81888124D01*
X140920913Y-81888123D01*
X140980619Y-81899999D01*
X140980623Y-81900000D01*
X141050319Y-81900000D01*
X141050320Y-81899999D01*
X141050320Y-80700001D01*
X141050319Y-80700000D01*
X141037387Y-80700000D01*
X140979196Y-80681093D01*
X140943232Y-80631593D01*
X140941761Y-80626624D01*
X140930343Y-80584014D01*
X140930342Y-80584012D01*
X140930342Y-80584011D01*
X140915674Y-80558605D01*
X140914082Y-80555847D01*
X140900820Y-80506349D01*
X140900820Y-79874386D01*
X140919727Y-79816195D01*
X140969227Y-79780231D01*
X141030413Y-79780231D01*
X141060086Y-79795843D01*
X141097479Y-79824536D01*
X141243558Y-79885044D01*
X141313742Y-79894283D01*
X141368966Y-79920623D01*
X141398162Y-79974394D01*
X141399820Y-79992436D01*
X141399820Y-80506350D01*
X141386557Y-80555848D01*
X141370301Y-80584005D01*
X141370297Y-80584013D01*
X141358880Y-80626624D01*
X141325556Y-80677938D01*
X141268435Y-80699864D01*
X141263254Y-80700000D01*
X141250321Y-80700000D01*
X141250320Y-80700001D01*
X141250320Y-81899999D01*
X141250321Y-81900000D01*
X141320017Y-81900000D01*
X141320027Y-81899998D01*
X141379723Y-81888124D01*
X141418353Y-81888123D01*
X141422087Y-81888865D01*
X141422089Y-81888867D01*
X141480572Y-81900500D01*
X141480573Y-81900500D01*
X141820067Y-81900500D01*
X141820068Y-81900500D01*
X141863434Y-81891874D01*
X141881005Y-81888379D01*
X141919635Y-81888379D01*
X141980561Y-81900498D01*
X141980566Y-81900498D01*
X141980572Y-81900500D01*
X141980573Y-81900500D01*
X142320067Y-81900500D01*
X142320068Y-81900500D01*
X142320069Y-81900499D01*
X142320075Y-81900499D01*
X142345481Y-81895445D01*
X142378551Y-81888867D01*
X142378552Y-81888866D01*
X142382283Y-81888124D01*
X142420913Y-81888123D01*
X142480619Y-81899999D01*
X142480623Y-81900000D01*
X142550319Y-81900000D01*
X142550320Y-81899999D01*
X142550320Y-80700001D01*
X142550319Y-80700000D01*
X142537387Y-80700000D01*
X142479196Y-80681093D01*
X142443232Y-80631593D01*
X142441761Y-80626624D01*
X142430343Y-80584014D01*
X142430342Y-80584012D01*
X142430342Y-80584011D01*
X142415674Y-80558605D01*
X142414082Y-80555847D01*
X142400820Y-80506349D01*
X142400820Y-79992436D01*
X142419727Y-79934245D01*
X142469227Y-79898281D01*
X142486892Y-79894284D01*
X142557082Y-79885044D01*
X142703161Y-79824536D01*
X142740553Y-79795843D01*
X142798229Y-79775420D01*
X142856894Y-79792798D01*
X142894142Y-79841339D01*
X142899820Y-79874386D01*
X142899820Y-80506350D01*
X142886557Y-80555848D01*
X142870301Y-80584005D01*
X142870297Y-80584013D01*
X142858880Y-80626624D01*
X142825556Y-80677938D01*
X142768435Y-80699864D01*
X142763254Y-80700000D01*
X142750321Y-80700000D01*
X142750320Y-80700001D01*
X142750320Y-81899999D01*
X142750321Y-81900000D01*
X142820017Y-81900000D01*
X142820027Y-81899998D01*
X142879723Y-81888124D01*
X142918353Y-81888123D01*
X142922087Y-81888865D01*
X142922089Y-81888867D01*
X142980572Y-81900500D01*
X142980573Y-81900500D01*
X143320067Y-81900500D01*
X143320068Y-81900500D01*
X143363434Y-81891874D01*
X143381005Y-81888379D01*
X143419635Y-81888379D01*
X143480561Y-81900498D01*
X143480566Y-81900498D01*
X143480572Y-81900500D01*
X143480573Y-81900500D01*
X143820067Y-81900500D01*
X143820068Y-81900500D01*
X143820069Y-81900499D01*
X143820075Y-81900499D01*
X143845481Y-81895445D01*
X143878551Y-81888867D01*
X143878552Y-81888866D01*
X143882283Y-81888124D01*
X143920913Y-81888123D01*
X143980619Y-81899999D01*
X143980623Y-81900000D01*
X144050319Y-81900000D01*
X144050320Y-81899999D01*
X144050320Y-80700001D01*
X144050319Y-80700000D01*
X144037387Y-80700000D01*
X143979196Y-80681093D01*
X143943232Y-80631593D01*
X143941761Y-80626624D01*
X143930343Y-80584014D01*
X143930342Y-80584012D01*
X143930342Y-80584011D01*
X143915674Y-80558605D01*
X143914082Y-80555847D01*
X143900820Y-80506349D01*
X143900820Y-80501852D01*
X143919727Y-80443661D01*
X143969227Y-80407697D01*
X144030413Y-80407697D01*
X144054818Y-80419534D01*
X144147456Y-80481429D01*
X144237860Y-80518871D01*
X144284385Y-80558605D01*
X144298671Y-80618100D01*
X144275259Y-80674629D01*
X144269980Y-80680339D01*
X144250320Y-80699999D01*
X144250320Y-81899999D01*
X144250321Y-81900000D01*
X144320017Y-81900000D01*
X144320027Y-81899998D01*
X144379723Y-81888124D01*
X144418353Y-81888123D01*
X144422087Y-81888865D01*
X144422089Y-81888867D01*
X144480572Y-81900500D01*
X144480573Y-81900500D01*
X144820067Y-81900500D01*
X144820068Y-81900500D01*
X144863434Y-81891874D01*
X144881005Y-81888379D01*
X144919635Y-81888379D01*
X144980561Y-81900498D01*
X144980566Y-81900498D01*
X144980572Y-81900500D01*
X144980573Y-81900500D01*
X145320067Y-81900500D01*
X145320068Y-81900500D01*
X145320069Y-81900499D01*
X145320075Y-81900499D01*
X145345481Y-81895445D01*
X145378551Y-81888867D01*
X145378552Y-81888866D01*
X145382283Y-81888124D01*
X145420913Y-81888123D01*
X145480619Y-81899999D01*
X145480623Y-81900000D01*
X145550319Y-81900000D01*
X145550320Y-81899999D01*
X145550320Y-81400001D01*
X145750320Y-81400001D01*
X145750320Y-81899999D01*
X145750321Y-81900000D01*
X145820017Y-81900000D01*
X145820020Y-81899999D01*
X145881006Y-81887869D01*
X145919634Y-81887869D01*
X145980619Y-81899999D01*
X145980623Y-81900000D01*
X146050319Y-81900000D01*
X146050320Y-81899999D01*
X146050320Y-81400001D01*
X146250320Y-81400001D01*
X146250320Y-81899999D01*
X146250321Y-81900000D01*
X146320017Y-81900000D01*
X146320020Y-81899999D01*
X146381006Y-81887869D01*
X146419634Y-81887869D01*
X146480619Y-81899999D01*
X146480623Y-81900000D01*
X146550319Y-81900000D01*
X146550320Y-81899999D01*
X146550320Y-81400001D01*
X146750320Y-81400001D01*
X146750320Y-81899999D01*
X146750321Y-81900000D01*
X146820017Y-81900000D01*
X146820020Y-81899999D01*
X146881006Y-81887869D01*
X146919634Y-81887869D01*
X146980619Y-81899999D01*
X146980623Y-81900000D01*
X147050319Y-81900000D01*
X147050320Y-81899999D01*
X147050320Y-81400001D01*
X147050319Y-81400000D01*
X146750321Y-81400000D01*
X146750320Y-81400001D01*
X146550320Y-81400001D01*
X146550319Y-81400000D01*
X146250321Y-81400000D01*
X146250320Y-81400001D01*
X146050320Y-81400001D01*
X146050319Y-81400000D01*
X145750321Y-81400000D01*
X145750320Y-81400001D01*
X145550320Y-81400001D01*
X145550320Y-80700001D01*
X145750320Y-80700001D01*
X145750320Y-81199999D01*
X145750321Y-81200000D01*
X146050319Y-81200000D01*
X146050320Y-81199999D01*
X146050320Y-80700001D01*
X146250320Y-80700001D01*
X146250320Y-81199999D01*
X146250321Y-81200000D01*
X146550319Y-81200000D01*
X146550320Y-81199999D01*
X146550320Y-80700001D01*
X146750320Y-80700001D01*
X146750320Y-81199999D01*
X146750321Y-81200000D01*
X147050319Y-81200000D01*
X147050320Y-81199999D01*
X147050320Y-80700001D01*
X147050319Y-80700000D01*
X146980619Y-80700000D01*
X146919634Y-80712131D01*
X146881006Y-80712131D01*
X146820020Y-80700000D01*
X146750321Y-80700000D01*
X146750320Y-80700001D01*
X146550320Y-80700001D01*
X146550319Y-80700000D01*
X146480619Y-80700000D01*
X146419634Y-80712131D01*
X146381006Y-80712131D01*
X146320020Y-80700000D01*
X146250321Y-80700000D01*
X146250320Y-80700001D01*
X146050320Y-80700001D01*
X146050319Y-80700000D01*
X145980619Y-80700000D01*
X145919634Y-80712131D01*
X145881006Y-80712131D01*
X145820020Y-80700000D01*
X145750321Y-80700000D01*
X145750320Y-80700001D01*
X145550320Y-80700001D01*
X145550319Y-80700000D01*
X145537387Y-80700000D01*
X145479196Y-80681093D01*
X145443232Y-80631593D01*
X145441761Y-80626624D01*
X145430343Y-80584014D01*
X145430342Y-80584012D01*
X145430342Y-80584011D01*
X145415674Y-80558605D01*
X145414082Y-80555847D01*
X145400820Y-80506349D01*
X145400820Y-80381767D01*
X145400786Y-80381263D01*
X145400788Y-80343957D01*
X145368109Y-80179645D01*
X145304002Y-80024866D01*
X145210932Y-79885567D01*
X145149905Y-79824536D01*
X145092477Y-79767104D01*
X145081138Y-79759527D01*
X145043260Y-79711475D01*
X145040861Y-79650337D01*
X145074856Y-79599465D01*
X145132261Y-79578290D01*
X145136143Y-79578214D01*
X145644746Y-79578214D01*
X145644770Y-79578215D01*
X145652732Y-79578215D01*
X145652735Y-79578216D01*
X145659314Y-79578215D01*
X145659330Y-79578220D01*
X145700330Y-79578219D01*
X145700330Y-79578220D01*
X145789020Y-79578217D01*
X145962992Y-79543607D01*
X146126869Y-79475724D01*
X146126874Y-79475720D01*
X146126879Y-79475718D01*
X146225639Y-79409725D01*
X146274354Y-79377174D01*
X146399780Y-79251747D01*
X146498328Y-79104261D01*
X146566210Y-78940383D01*
X146600818Y-78766411D01*
X146600818Y-78725257D01*
X146600820Y-78725249D01*
X146600820Y-78653589D01*
X146600821Y-78630126D01*
X146600820Y-78630122D01*
X146600820Y-78438152D01*
X146600820Y-78431768D01*
X146600786Y-78431264D01*
X146600788Y-78389031D01*
X146566187Y-78215060D01*
X146498312Y-78051181D01*
X146399769Y-77903693D01*
X146366082Y-77870004D01*
X146274348Y-77778264D01*
X146175797Y-77712410D01*
X146126864Y-77679713D01*
X145962989Y-77611827D01*
X145962985Y-77611826D01*
X145962986Y-77611826D01*
X145789023Y-77577217D01*
X145789014Y-77577216D01*
X145745958Y-77577215D01*
X145745940Y-77577214D01*
X145739882Y-77577214D01*
X145700330Y-77577214D01*
X145652735Y-77577212D01*
X145652734Y-77577212D01*
X145644770Y-77577212D01*
X145644746Y-77577214D01*
X145499820Y-77577214D01*
X145441629Y-77558307D01*
X145405665Y-77508807D01*
X145400820Y-77478214D01*
X145400820Y-73577914D01*
X145400819Y-73577912D01*
X145397511Y-73565568D01*
X145380341Y-73501488D01*
X145340780Y-73432966D01*
X145329763Y-73421949D01*
X145284831Y-73377016D01*
X145284831Y-73377017D01*
X144143533Y-72235719D01*
X144115756Y-72181202D01*
X144125327Y-72120770D01*
X144134989Y-72105456D01*
X144178090Y-72049287D01*
X144238598Y-71903208D01*
X144259236Y-71746446D01*
X144238598Y-71589684D01*
X144238596Y-71589679D01*
X144178091Y-71443607D01*
X144178091Y-71443606D01*
X144081840Y-71318169D01*
X144081839Y-71318168D01*
X144081836Y-71318164D01*
X144081831Y-71318160D01*
X144081830Y-71318159D01*
X143956392Y-71221908D01*
X143810320Y-71161403D01*
X143810312Y-71161401D01*
X143653555Y-71140764D01*
X143653553Y-71140764D01*
X143496795Y-71161401D01*
X143496787Y-71161403D01*
X143350715Y-71221908D01*
X143350714Y-71221908D01*
X143225277Y-71318159D01*
X143225267Y-71318169D01*
X143129016Y-71443606D01*
X143129016Y-71443607D01*
X143068511Y-71589679D01*
X143068509Y-71589687D01*
X143047872Y-71746445D01*
X143047872Y-71748872D01*
X143047334Y-71750525D01*
X143047025Y-71752879D01*
X143046588Y-71752821D01*
X143028965Y-71807063D01*
X142979465Y-71843027D01*
X142948872Y-71847872D01*
X142946445Y-71847872D01*
X142789687Y-71868509D01*
X142789679Y-71868511D01*
X142643607Y-71929016D01*
X142643606Y-71929016D01*
X142518169Y-72025267D01*
X142518159Y-72025277D01*
X142421908Y-72150714D01*
X142421908Y-72150715D01*
X142361403Y-72296787D01*
X142361401Y-72296795D01*
X142340764Y-72453553D01*
X142340764Y-72453554D01*
X142361401Y-72610312D01*
X142361403Y-72610320D01*
X142421908Y-72756392D01*
X142421908Y-72756393D01*
X142421910Y-72756395D01*
X142518164Y-72881836D01*
X142643605Y-72978090D01*
X142643606Y-72978090D01*
X142643607Y-72978091D01*
X142789679Y-73038596D01*
X142789684Y-73038598D01*
X142907255Y-73054076D01*
X142946445Y-73059236D01*
X142946446Y-73059236D01*
X142946447Y-73059236D01*
X142977798Y-73055108D01*
X143103208Y-73038598D01*
X143249287Y-72978090D01*
X143305449Y-72934994D01*
X143363122Y-72914571D01*
X143421788Y-72931948D01*
X143435719Y-72943533D01*
X144370824Y-73878638D01*
X144398601Y-73933155D01*
X144399820Y-73948642D01*
X144399820Y-77624048D01*
X144399819Y-77624066D01*
X144399819Y-77636680D01*
X144399785Y-77636784D01*
X144399787Y-77766408D01*
X144399788Y-77766418D01*
X144434397Y-77940384D01*
X144434401Y-77940397D01*
X144502285Y-78104272D01*
X144600841Y-78251764D01*
X144627296Y-78278217D01*
X144726276Y-78377191D01*
X144743989Y-78389026D01*
X144754273Y-78395897D01*
X144792154Y-78443946D01*
X144794558Y-78505084D01*
X144760566Y-78555959D01*
X144703163Y-78577138D01*
X144699274Y-78577214D01*
X144505377Y-78577214D01*
X144505305Y-78577217D01*
X144466567Y-78577217D01*
X144466566Y-78577217D01*
X144466563Y-78577217D01*
X144466560Y-78577217D01*
X144466555Y-78577218D01*
X144302252Y-78609894D01*
X144302243Y-78609897D01*
X144147465Y-78674005D01*
X144147461Y-78674007D01*
X144147460Y-78674008D01*
X144082703Y-78717276D01*
X144054820Y-78735906D01*
X143995931Y-78752513D01*
X143938528Y-78731334D01*
X143904536Y-78680459D01*
X143900820Y-78653589D01*
X143900820Y-75677917D01*
X143900820Y-75677915D01*
X143898045Y-75667558D01*
X143880342Y-75601489D01*
X143880340Y-75601486D01*
X143880340Y-75601484D01*
X143840783Y-75532970D01*
X143840782Y-75532969D01*
X143840781Y-75532968D01*
X143840780Y-75532966D01*
X143343533Y-75035719D01*
X143315756Y-74981202D01*
X143325327Y-74920770D01*
X143334989Y-74905456D01*
X143378090Y-74849287D01*
X143438598Y-74703208D01*
X143459236Y-74546446D01*
X143438598Y-74389684D01*
X143424023Y-74354496D01*
X143378091Y-74243607D01*
X143378091Y-74243606D01*
X143281840Y-74118169D01*
X143281839Y-74118168D01*
X143281836Y-74118164D01*
X143281831Y-74118160D01*
X143281830Y-74118159D01*
X143156392Y-74021908D01*
X143010320Y-73961403D01*
X143010312Y-73961401D01*
X142853555Y-73940764D01*
X142853553Y-73940764D01*
X142696795Y-73961401D01*
X142696787Y-73961403D01*
X142550715Y-74021908D01*
X142550714Y-74021908D01*
X142425277Y-74118159D01*
X142425267Y-74118169D01*
X142329016Y-74243606D01*
X142329016Y-74243607D01*
X142268511Y-74389679D01*
X142268509Y-74389687D01*
X142247872Y-74546445D01*
X142247872Y-74548872D01*
X142247334Y-74550525D01*
X142247025Y-74552879D01*
X142246588Y-74552821D01*
X142228965Y-74607063D01*
X142179465Y-74643027D01*
X142148872Y-74647872D01*
X142146445Y-74647872D01*
X141989687Y-74668509D01*
X141989679Y-74668511D01*
X141843607Y-74729016D01*
X141843606Y-74729016D01*
X141718169Y-74825267D01*
X141718159Y-74825277D01*
X141621908Y-74950714D01*
X141621908Y-74950715D01*
X141561403Y-75096787D01*
X141561401Y-75096795D01*
X141540764Y-75253553D01*
X141540764Y-75253554D01*
X141561401Y-75410312D01*
X141561403Y-75410320D01*
X141621908Y-75556392D01*
X141621908Y-75556393D01*
X141718159Y-75681830D01*
X141718164Y-75681836D01*
X141718168Y-75681839D01*
X141718169Y-75681840D01*
X141733336Y-75693478D01*
X141843605Y-75778090D01*
X141989684Y-75838598D01*
X142107255Y-75854076D01*
X142146445Y-75859236D01*
X142146446Y-75859236D01*
X142146447Y-75859236D01*
X142177798Y-75855108D01*
X142303208Y-75838598D01*
X142449287Y-75778090D01*
X142505449Y-75734994D01*
X142563122Y-75714571D01*
X142621788Y-75731948D01*
X142635719Y-75743533D01*
X142870824Y-75978638D01*
X142898601Y-76033155D01*
X142899820Y-76048642D01*
X142899820Y-78725613D01*
X142880913Y-78783804D01*
X142831413Y-78819768D01*
X142770227Y-78819768D01*
X142740554Y-78804156D01*
X142703158Y-78775462D01*
X142557086Y-78714957D01*
X142557078Y-78714955D01*
X142400321Y-78694318D01*
X142400319Y-78694318D01*
X142243561Y-78714955D01*
X142243553Y-78714957D01*
X142097481Y-78775462D01*
X142097480Y-78775462D01*
X141972035Y-78871719D01*
X141970318Y-78873437D01*
X141968769Y-78874225D01*
X141966890Y-78875668D01*
X141966622Y-78875319D01*
X141915799Y-78901210D01*
X141855368Y-78891634D01*
X141830322Y-78873437D01*
X141828604Y-78871719D01*
X141703158Y-78775462D01*
X141557086Y-78714957D01*
X141557078Y-78714955D01*
X141400321Y-78694318D01*
X141400319Y-78694318D01*
X141243561Y-78714955D01*
X141243553Y-78714957D01*
X141097481Y-78775462D01*
X141060086Y-78804156D01*
X141002410Y-78824579D01*
X140943744Y-78807201D01*
X140906498Y-78758658D01*
X140900820Y-78725613D01*
X140900820Y-77292436D01*
X140919727Y-77234245D01*
X140969227Y-77198281D01*
X140986892Y-77194284D01*
X141057082Y-77185044D01*
X141203161Y-77124536D01*
X141328602Y-77028282D01*
X141424856Y-76902841D01*
X141485364Y-76756762D01*
X141506002Y-76600000D01*
X141485364Y-76443238D01*
X141463932Y-76391496D01*
X141424857Y-76297161D01*
X141424857Y-76297160D01*
X141328606Y-76171723D01*
X141328605Y-76171722D01*
X141328602Y-76171718D01*
X141328597Y-76171714D01*
X141328596Y-76171713D01*
X141203158Y-76075462D01*
X141057086Y-76014957D01*
X141057078Y-76014955D01*
X140900321Y-75994318D01*
X140900319Y-75994318D01*
X140743561Y-76014955D01*
X140743553Y-76014957D01*
X140597481Y-76075462D01*
X140597480Y-76075462D01*
X140472035Y-76171719D01*
X140470318Y-76173437D01*
X140468769Y-76174225D01*
X140466890Y-76175668D01*
X140466622Y-76175319D01*
X140415799Y-76201210D01*
X140355368Y-76191634D01*
X140330322Y-76173437D01*
X140328604Y-76171719D01*
X140203158Y-76075462D01*
X140057086Y-76014957D01*
X140057078Y-76014955D01*
X139900321Y-75994318D01*
X139900319Y-75994318D01*
X139743561Y-76014955D01*
X139743553Y-76014957D01*
X139597481Y-76075462D01*
X139597480Y-76075462D01*
X139472043Y-76171713D01*
X139472033Y-76171723D01*
X139375782Y-76297160D01*
X139375782Y-76297161D01*
X139315277Y-76443233D01*
X139315275Y-76443241D01*
X139294638Y-76599999D01*
X136324970Y-76599999D01*
X130029496Y-70304525D01*
X130001719Y-70250008D01*
X130000500Y-70234521D01*
X130000500Y-67765094D01*
X132399820Y-67765094D01*
X132399820Y-67914905D01*
X132429045Y-68061829D01*
X132429045Y-68061831D01*
X132486371Y-68200229D01*
X132486371Y-68200230D01*
X132527844Y-68262297D01*
X132569601Y-68324791D01*
X132675529Y-68430719D01*
X132800088Y-68513947D01*
X132938490Y-68571275D01*
X133085417Y-68600500D01*
X133085418Y-68600500D01*
X133235222Y-68600500D01*
X133235223Y-68600500D01*
X133382150Y-68571275D01*
X133520552Y-68513947D01*
X133645111Y-68430719D01*
X133751039Y-68324791D01*
X133834267Y-68200232D01*
X133891595Y-68061830D01*
X133920820Y-67914903D01*
X133920820Y-67765097D01*
X133891595Y-67618170D01*
X133834268Y-67479770D01*
X133834268Y-67479769D01*
X133813531Y-67448735D01*
X133751039Y-67355209D01*
X133645111Y-67249281D01*
X133520552Y-67166053D01*
X133520551Y-67166052D01*
X133520549Y-67166051D01*
X133382150Y-67108725D01*
X133235225Y-67079500D01*
X133235223Y-67079500D01*
X133085417Y-67079500D01*
X133085414Y-67079500D01*
X132938490Y-67108725D01*
X132938488Y-67108725D01*
X132800090Y-67166051D01*
X132800089Y-67166051D01*
X132675529Y-67249281D01*
X132675525Y-67249284D01*
X132569604Y-67355205D01*
X132569601Y-67355209D01*
X132486371Y-67479769D01*
X132486371Y-67479770D01*
X132429045Y-67618168D01*
X132429045Y-67618170D01*
X132399820Y-67765094D01*
X130000500Y-67765094D01*
X130000500Y-66300000D01*
X130749755Y-66300000D01*
X130769952Y-66479257D01*
X130769953Y-66479261D01*
X130829531Y-66649522D01*
X130829531Y-66649523D01*
X130925501Y-66802258D01*
X130925504Y-66802262D01*
X131053058Y-66929816D01*
X131053060Y-66929817D01*
X131053061Y-66929818D01*
X131140104Y-66984511D01*
X131205798Y-67025789D01*
X131273977Y-67049646D01*
X131376058Y-67085366D01*
X131376062Y-67085367D01*
X131376065Y-67085368D01*
X131555320Y-67105565D01*
X131734575Y-67085368D01*
X131735796Y-67084941D01*
X131751345Y-67079500D01*
X131904842Y-67025789D01*
X132057582Y-66929816D01*
X132185136Y-66802262D01*
X132281109Y-66649522D01*
X132340688Y-66479255D01*
X132360038Y-66307511D01*
X132385341Y-66251807D01*
X132438556Y-66221611D01*
X132499357Y-66228462D01*
X132533810Y-66257720D01*
X132534234Y-66257297D01*
X132539421Y-66262484D01*
X132540728Y-66263594D01*
X132541124Y-66264187D01*
X132541130Y-66264193D01*
X132607283Y-66308396D01*
X132665619Y-66319999D01*
X132665623Y-66320000D01*
X133855319Y-66320000D01*
X133855320Y-66319999D01*
X133855320Y-65900001D01*
X134055320Y-65900001D01*
X134055320Y-66319999D01*
X134055321Y-66320000D01*
X135245017Y-66320000D01*
X135245020Y-66319999D01*
X135303356Y-66308396D01*
X135369509Y-66264193D01*
X135369513Y-66264189D01*
X135413716Y-66198036D01*
X135425319Y-66139700D01*
X135425320Y-66139697D01*
X135425320Y-65900001D01*
X136675320Y-65900001D01*
X136675320Y-66139700D01*
X136686923Y-66198036D01*
X136731126Y-66264189D01*
X136731130Y-66264193D01*
X136797283Y-66308396D01*
X136855619Y-66319999D01*
X136855623Y-66320000D01*
X139125319Y-66320000D01*
X139125320Y-66319999D01*
X139125320Y-65900001D01*
X139325320Y-65900001D01*
X139325320Y-66319999D01*
X139325321Y-66320000D01*
X141595017Y-66320000D01*
X141595020Y-66319999D01*
X141653356Y-66308396D01*
X141719509Y-66264193D01*
X141719513Y-66264189D01*
X141763716Y-66198036D01*
X141775319Y-66139700D01*
X141775320Y-66139697D01*
X141775320Y-65900001D01*
X141775319Y-65900000D01*
X139325321Y-65900000D01*
X139325320Y-65900001D01*
X139125320Y-65900001D01*
X139125319Y-65900000D01*
X136675321Y-65900000D01*
X136675320Y-65900001D01*
X135425320Y-65900001D01*
X135425319Y-65900000D01*
X134055321Y-65900000D01*
X134055320Y-65900001D01*
X133855320Y-65900001D01*
X133855319Y-65900000D01*
X132485321Y-65900000D01*
X132485320Y-65900001D01*
X132485320Y-65951407D01*
X132466413Y-66009598D01*
X132416913Y-66045562D01*
X132355727Y-66045562D01*
X132306227Y-66009598D01*
X132292876Y-65984105D01*
X132288366Y-65971220D01*
X132281109Y-65950478D01*
X132185136Y-65797738D01*
X132057582Y-65670184D01*
X132057579Y-65670182D01*
X132057578Y-65670181D01*
X131904843Y-65574211D01*
X131734581Y-65514633D01*
X131734577Y-65514632D01*
X131555320Y-65494435D01*
X131376062Y-65514632D01*
X131376058Y-65514633D01*
X131205797Y-65574211D01*
X131205796Y-65574211D01*
X131053061Y-65670181D01*
X130925501Y-65797741D01*
X130829531Y-65950476D01*
X130829531Y-65950477D01*
X130769953Y-66120738D01*
X130769952Y-66120742D01*
X130749755Y-66300000D01*
X130000500Y-66300000D01*
X130000500Y-65460299D01*
X132485320Y-65460299D01*
X132485320Y-65699999D01*
X132485321Y-65700000D01*
X133855319Y-65700000D01*
X133855320Y-65699999D01*
X133855320Y-65280001D01*
X134055320Y-65280001D01*
X134055320Y-65699999D01*
X134055321Y-65700000D01*
X135425319Y-65700000D01*
X135425320Y-65699999D01*
X135425320Y-65460302D01*
X135425319Y-65460299D01*
X136675320Y-65460299D01*
X136675320Y-65699999D01*
X136675321Y-65700000D01*
X139125319Y-65700000D01*
X139125320Y-65699999D01*
X139125320Y-65280001D01*
X139325320Y-65280001D01*
X139325320Y-65699999D01*
X139325321Y-65700000D01*
X141775319Y-65700000D01*
X141775320Y-65699999D01*
X141775320Y-65460302D01*
X141775319Y-65460299D01*
X141763716Y-65401963D01*
X141719513Y-65335810D01*
X141719509Y-65335806D01*
X141653356Y-65291603D01*
X141595020Y-65280000D01*
X139325321Y-65280000D01*
X139325320Y-65280001D01*
X139125320Y-65280001D01*
X139125319Y-65280000D01*
X136855619Y-65280000D01*
X136797283Y-65291603D01*
X136731130Y-65335806D01*
X136731126Y-65335810D01*
X136686923Y-65401963D01*
X136675320Y-65460299D01*
X135425319Y-65460299D01*
X135413716Y-65401963D01*
X135369513Y-65335810D01*
X135369509Y-65335806D01*
X135303356Y-65291603D01*
X135245020Y-65280000D01*
X134055321Y-65280000D01*
X134055320Y-65280001D01*
X133855320Y-65280001D01*
X133855319Y-65280000D01*
X132665619Y-65280000D01*
X132607283Y-65291603D01*
X132541130Y-65335806D01*
X132541126Y-65335810D01*
X132496923Y-65401963D01*
X132485320Y-65460299D01*
X130000500Y-65460299D01*
X130000500Y-64765479D01*
X130019407Y-64707288D01*
X130029496Y-64695475D01*
X130195475Y-64529496D01*
X130249992Y-64501719D01*
X130265479Y-64500500D01*
X142935521Y-64500500D01*
X142993712Y-64519407D01*
X143029676Y-64568907D01*
X143029676Y-64630093D01*
X143005525Y-64669503D01*
X142515489Y-65159540D01*
X142515488Y-65159539D01*
X142459539Y-65215489D01*
X142419980Y-65284007D01*
X142419978Y-65284011D01*
X142399500Y-65360435D01*
X142399500Y-65360438D01*
X142399500Y-66839562D01*
X142419979Y-66915989D01*
X142425471Y-66925502D01*
X142427962Y-66929816D01*
X142459540Y-66984511D01*
X143159540Y-67684511D01*
X143159539Y-67684511D01*
X143215489Y-67740460D01*
X143284007Y-67780019D01*
X143284008Y-67780019D01*
X143284011Y-67780021D01*
X143297397Y-67783607D01*
X143348711Y-67816930D01*
X143370638Y-67874051D01*
X143354803Y-67933152D01*
X143307254Y-67971658D01*
X143292810Y-67975834D01*
X143292086Y-67976134D01*
X143255322Y-68000700D01*
X143196434Y-68017309D01*
X143145318Y-68000700D01*
X143108553Y-67976134D01*
X143108551Y-67976133D01*
X143108548Y-67976132D01*
X143108547Y-67976132D01*
X143050078Y-67964501D01*
X143050068Y-67964500D01*
X142550572Y-67964500D01*
X142550571Y-67964500D01*
X142550561Y-67964501D01*
X142492092Y-67976132D01*
X142492086Y-67976134D01*
X142455322Y-68000700D01*
X142396434Y-68017309D01*
X142345318Y-68000700D01*
X142308553Y-67976134D01*
X142308551Y-67976133D01*
X142308548Y-67976132D01*
X142308547Y-67976132D01*
X142250078Y-67964501D01*
X142250068Y-67964500D01*
X141750572Y-67964500D01*
X141750571Y-67964500D01*
X141750561Y-67964501D01*
X141692092Y-67976132D01*
X141692086Y-67976134D01*
X141655322Y-68000700D01*
X141596434Y-68017309D01*
X141545318Y-68000700D01*
X141508553Y-67976134D01*
X141508551Y-67976133D01*
X141508548Y-67976132D01*
X141508547Y-67976132D01*
X141450078Y-67964501D01*
X141450068Y-67964500D01*
X140950572Y-67964500D01*
X140950571Y-67964500D01*
X140950561Y-67964501D01*
X140892092Y-67976132D01*
X140892086Y-67976134D01*
X140855322Y-68000700D01*
X140796434Y-68017309D01*
X140745318Y-68000700D01*
X140708553Y-67976134D01*
X140708551Y-67976133D01*
X140708548Y-67976132D01*
X140708547Y-67976132D01*
X140650078Y-67964501D01*
X140650068Y-67964500D01*
X140150572Y-67964500D01*
X140150571Y-67964500D01*
X140150561Y-67964501D01*
X140092092Y-67976132D01*
X140092086Y-67976134D01*
X140055322Y-68000700D01*
X139996434Y-68017309D01*
X139945318Y-68000700D01*
X139908553Y-67976134D01*
X139908551Y-67976133D01*
X139908548Y-67976132D01*
X139908547Y-67976132D01*
X139850078Y-67964501D01*
X139850068Y-67964500D01*
X139350572Y-67964500D01*
X139350571Y-67964500D01*
X139350561Y-67964501D01*
X139292092Y-67976132D01*
X139292086Y-67976134D01*
X139255322Y-68000700D01*
X139196434Y-68017309D01*
X139145318Y-68000700D01*
X139108553Y-67976134D01*
X139108551Y-67976133D01*
X139108548Y-67976132D01*
X139108547Y-67976132D01*
X139050078Y-67964501D01*
X139050068Y-67964500D01*
X138550572Y-67964500D01*
X138550571Y-67964500D01*
X138550561Y-67964501D01*
X138492092Y-67976132D01*
X138492086Y-67976134D01*
X138455322Y-68000700D01*
X138396434Y-68017309D01*
X138345318Y-68000700D01*
X138308553Y-67976134D01*
X138308551Y-67976133D01*
X138308548Y-67976132D01*
X138308547Y-67976132D01*
X138250078Y-67964501D01*
X138250068Y-67964500D01*
X137750572Y-67964500D01*
X137750571Y-67964500D01*
X137750561Y-67964501D01*
X137692092Y-67976132D01*
X137692086Y-67976134D01*
X137655322Y-68000700D01*
X137596434Y-68017309D01*
X137545318Y-68000700D01*
X137508553Y-67976134D01*
X137508551Y-67976133D01*
X137508548Y-67976132D01*
X137508547Y-67976132D01*
X137450078Y-67964501D01*
X137450068Y-67964500D01*
X136950572Y-67964500D01*
X136950571Y-67964500D01*
X136950561Y-67964501D01*
X136892092Y-67976132D01*
X136892086Y-67976134D01*
X136855322Y-68000700D01*
X136796434Y-68017309D01*
X136745318Y-68000700D01*
X136708553Y-67976134D01*
X136708551Y-67976133D01*
X136708548Y-67976132D01*
X136708547Y-67976132D01*
X136650078Y-67964501D01*
X136650068Y-67964500D01*
X136150572Y-67964500D01*
X136150571Y-67964500D01*
X136150561Y-67964501D01*
X136092092Y-67976132D01*
X136092086Y-67976134D01*
X136055322Y-68000700D01*
X135996434Y-68017309D01*
X135945318Y-68000700D01*
X135908553Y-67976134D01*
X135908551Y-67976133D01*
X135908548Y-67976132D01*
X135908547Y-67976132D01*
X135850078Y-67964501D01*
X135850068Y-67964500D01*
X135350572Y-67964500D01*
X135350571Y-67964500D01*
X135350561Y-67964501D01*
X135292092Y-67976132D01*
X135292086Y-67976134D01*
X135255322Y-68000700D01*
X135196434Y-68017309D01*
X135145318Y-68000700D01*
X135108553Y-67976134D01*
X135108551Y-67976133D01*
X135108548Y-67976132D01*
X135108547Y-67976132D01*
X135050078Y-67964501D01*
X135050068Y-67964500D01*
X134550572Y-67964500D01*
X134550571Y-67964500D01*
X134550561Y-67964501D01*
X134492092Y-67976132D01*
X134492086Y-67976134D01*
X134425771Y-68020445D01*
X134425765Y-68020451D01*
X134381454Y-68086766D01*
X134381452Y-68086772D01*
X134369821Y-68145241D01*
X134369820Y-68145253D01*
X134369820Y-69634746D01*
X134369821Y-69634758D01*
X134381452Y-69693227D01*
X134381453Y-69693231D01*
X134425768Y-69759552D01*
X134492089Y-69803867D01*
X134536551Y-69812711D01*
X134550561Y-69815498D01*
X134550566Y-69815498D01*
X134550572Y-69815500D01*
X134550573Y-69815500D01*
X135050067Y-69815500D01*
X135050068Y-69815500D01*
X135108551Y-69803867D01*
X135145320Y-69779298D01*
X135204205Y-69762690D01*
X135255319Y-69779297D01*
X135292089Y-69803867D01*
X135336551Y-69812711D01*
X135350561Y-69815498D01*
X135350566Y-69815498D01*
X135350572Y-69815500D01*
X135350573Y-69815500D01*
X135850067Y-69815500D01*
X135850068Y-69815500D01*
X135908551Y-69803867D01*
X135945320Y-69779298D01*
X136004205Y-69762690D01*
X136055319Y-69779297D01*
X136092089Y-69803867D01*
X136136551Y-69812711D01*
X136150561Y-69815498D01*
X136150566Y-69815498D01*
X136150572Y-69815500D01*
X136150573Y-69815500D01*
X136650067Y-69815500D01*
X136650068Y-69815500D01*
X136708551Y-69803867D01*
X136745320Y-69779298D01*
X136804205Y-69762690D01*
X136855319Y-69779297D01*
X136892089Y-69803867D01*
X136936551Y-69812711D01*
X136950561Y-69815498D01*
X136950566Y-69815498D01*
X136950572Y-69815500D01*
X136950573Y-69815500D01*
X137450067Y-69815500D01*
X137450068Y-69815500D01*
X137508551Y-69803867D01*
X137545320Y-69779298D01*
X137604205Y-69762690D01*
X137655319Y-69779297D01*
X137692089Y-69803867D01*
X137736551Y-69812711D01*
X137750561Y-69815498D01*
X137750566Y-69815498D01*
X137750572Y-69815500D01*
X137750573Y-69815500D01*
X138250067Y-69815500D01*
X138250068Y-69815500D01*
X138308551Y-69803867D01*
X138345320Y-69779298D01*
X138404205Y-69762690D01*
X138455319Y-69779297D01*
X138492089Y-69803867D01*
X138536551Y-69812711D01*
X138550561Y-69815498D01*
X138550566Y-69815498D01*
X138550572Y-69815500D01*
X138550573Y-69815500D01*
X139050067Y-69815500D01*
X139050068Y-69815500D01*
X139108551Y-69803867D01*
X139145320Y-69779298D01*
X139204205Y-69762690D01*
X139255319Y-69779297D01*
X139292089Y-69803867D01*
X139336551Y-69812711D01*
X139350561Y-69815498D01*
X139350566Y-69815498D01*
X139350572Y-69815500D01*
X139350573Y-69815500D01*
X139850067Y-69815500D01*
X139850068Y-69815500D01*
X139908551Y-69803867D01*
X139945320Y-69779298D01*
X140004205Y-69762690D01*
X140055319Y-69779297D01*
X140092089Y-69803867D01*
X140136551Y-69812711D01*
X140150561Y-69815498D01*
X140150566Y-69815498D01*
X140150572Y-69815500D01*
X140150573Y-69815500D01*
X140650067Y-69815500D01*
X140650068Y-69815500D01*
X140708551Y-69803867D01*
X140745320Y-69779298D01*
X140804205Y-69762690D01*
X140855319Y-69779297D01*
X140892089Y-69803867D01*
X140936551Y-69812711D01*
X140950561Y-69815498D01*
X140950566Y-69815498D01*
X140950572Y-69815500D01*
X140950573Y-69815500D01*
X141450067Y-69815500D01*
X141450068Y-69815500D01*
X141508551Y-69803867D01*
X141545320Y-69779298D01*
X141604205Y-69762690D01*
X141655319Y-69779297D01*
X141692089Y-69803867D01*
X141736551Y-69812711D01*
X141750561Y-69815498D01*
X141750566Y-69815498D01*
X141750572Y-69815500D01*
X141750573Y-69815500D01*
X142250067Y-69815500D01*
X142250068Y-69815500D01*
X142308551Y-69803867D01*
X142345320Y-69779298D01*
X142404205Y-69762690D01*
X142455319Y-69779297D01*
X142492089Y-69803867D01*
X142536551Y-69812711D01*
X142550561Y-69815498D01*
X142550566Y-69815498D01*
X142550572Y-69815500D01*
X142550573Y-69815500D01*
X143050067Y-69815500D01*
X143050068Y-69815500D01*
X143108551Y-69803867D01*
X143145320Y-69779298D01*
X143204205Y-69762690D01*
X143255319Y-69779297D01*
X143292089Y-69803867D01*
X143336551Y-69812711D01*
X143350561Y-69815498D01*
X143350566Y-69815498D01*
X143350572Y-69815500D01*
X143350573Y-69815500D01*
X143850067Y-69815500D01*
X143850068Y-69815500D01*
X143908551Y-69803867D01*
X143945320Y-69779298D01*
X144004205Y-69762690D01*
X144055319Y-69779297D01*
X144092089Y-69803867D01*
X144136551Y-69812711D01*
X144150561Y-69815498D01*
X144150566Y-69815498D01*
X144150572Y-69815500D01*
X144150573Y-69815500D01*
X144650067Y-69815500D01*
X144650068Y-69815500D01*
X144708551Y-69803867D01*
X144745320Y-69779298D01*
X144804205Y-69762690D01*
X144855319Y-69779297D01*
X144892089Y-69803867D01*
X144936551Y-69812711D01*
X144950561Y-69815498D01*
X144950566Y-69815498D01*
X144950572Y-69815500D01*
X144950573Y-69815500D01*
X145450067Y-69815500D01*
X145450068Y-69815500D01*
X145508551Y-69803867D01*
X145545320Y-69779298D01*
X145604205Y-69762690D01*
X145655319Y-69779297D01*
X145692089Y-69803867D01*
X145736551Y-69812711D01*
X145750561Y-69815498D01*
X145750566Y-69815498D01*
X145750572Y-69815500D01*
X145750573Y-69815500D01*
X146250067Y-69815500D01*
X146250068Y-69815500D01*
X146308551Y-69803867D01*
X146345320Y-69779298D01*
X146404205Y-69762690D01*
X146455319Y-69779297D01*
X146492089Y-69803867D01*
X146536551Y-69812711D01*
X146550561Y-69815498D01*
X146550566Y-69815498D01*
X146550572Y-69815500D01*
X146550573Y-69815500D01*
X147050067Y-69815500D01*
X147050068Y-69815500D01*
X147108551Y-69803867D01*
X147145320Y-69779298D01*
X147204205Y-69762690D01*
X147255319Y-69779297D01*
X147292089Y-69803867D01*
X147336551Y-69812711D01*
X147350561Y-69815498D01*
X147350566Y-69815498D01*
X147350572Y-69815500D01*
X147350573Y-69815500D01*
X147850067Y-69815500D01*
X147850068Y-69815500D01*
X147908551Y-69803867D01*
X147945320Y-69779298D01*
X148004205Y-69762690D01*
X148055319Y-69779297D01*
X148092089Y-69803867D01*
X148136551Y-69812711D01*
X148150561Y-69815498D01*
X148150566Y-69815498D01*
X148150572Y-69815500D01*
X148150573Y-69815500D01*
X148650067Y-69815500D01*
X148650068Y-69815500D01*
X148708551Y-69803867D01*
X148745320Y-69779298D01*
X148804205Y-69762690D01*
X148855319Y-69779297D01*
X148892089Y-69803867D01*
X148936551Y-69812711D01*
X148950561Y-69815498D01*
X148950566Y-69815498D01*
X148950572Y-69815500D01*
X148950573Y-69815500D01*
X149450820Y-69815500D01*
X149509011Y-69834407D01*
X149544975Y-69883907D01*
X149549820Y-69914500D01*
X149549820Y-71276253D01*
X149539030Y-71321198D01*
X149490281Y-71416872D01*
X149490281Y-71416874D01*
X149474500Y-71516512D01*
X149474500Y-72083488D01*
X149485147Y-72150714D01*
X149490281Y-72183125D01*
X149490283Y-72183132D01*
X149551470Y-72303217D01*
X149551472Y-72303220D01*
X149645505Y-72397253D01*
X149673281Y-72451768D01*
X149674500Y-72467255D01*
X149674500Y-73484308D01*
X149690145Y-73542699D01*
X149690146Y-73542701D01*
X149690147Y-73542703D01*
X149705201Y-73598887D01*
X149705202Y-73598889D01*
X149705203Y-73598892D01*
X149764507Y-73701609D01*
X149764508Y-73701610D01*
X149764509Y-73701611D01*
X149764511Y-73701614D01*
X152339511Y-76276614D01*
X155423386Y-79360490D01*
X155526113Y-79419799D01*
X155550320Y-79426284D01*
X155550325Y-79426287D01*
X155550326Y-79426286D01*
X155640688Y-79450499D01*
X155640690Y-79450500D01*
X155640691Y-79450500D01*
X160759309Y-79450500D01*
X160849669Y-79426287D01*
X160849672Y-79426287D01*
X160862903Y-79422741D01*
X160873887Y-79419799D01*
X160976614Y-79360489D01*
X161857607Y-78479496D01*
X161912124Y-78451719D01*
X161927611Y-78450500D01*
X162183490Y-78450500D01*
X162204885Y-78447111D01*
X162283126Y-78434719D01*
X162403220Y-78373528D01*
X162498528Y-78278220D01*
X162559719Y-78158126D01*
X162573601Y-78070473D01*
X162575500Y-78058489D01*
X162575500Y-77541510D01*
X162570320Y-77508807D01*
X162559719Y-77441874D01*
X162559716Y-77441869D01*
X162559716Y-77441867D01*
X162498529Y-77321782D01*
X162498528Y-77321780D01*
X162403220Y-77226472D01*
X162403217Y-77226470D01*
X162283132Y-77165283D01*
X162283127Y-77165281D01*
X162283126Y-77165281D01*
X162249913Y-77160020D01*
X162183490Y-77149500D01*
X162183488Y-77149500D01*
X161927611Y-77149500D01*
X161869420Y-77130593D01*
X161857607Y-77120504D01*
X161788554Y-77051451D01*
X161760777Y-76996934D01*
X161770348Y-76936502D01*
X161788555Y-76911443D01*
X161800000Y-76899998D01*
X161800000Y-76350001D01*
X162000000Y-76350001D01*
X162000000Y-76899998D01*
X162000001Y-76899999D01*
X162183453Y-76899999D01*
X162282965Y-76884239D01*
X162282969Y-76884237D01*
X162402921Y-76823118D01*
X162498118Y-76727921D01*
X162559237Y-76607969D01*
X162575000Y-76508453D01*
X162575000Y-76350001D01*
X162574999Y-76350000D01*
X162000001Y-76350000D01*
X162000000Y-76350001D01*
X161800000Y-76350001D01*
X161799999Y-76350000D01*
X161225002Y-76350000D01*
X161225001Y-76350001D01*
X161225001Y-76508453D01*
X161225000Y-76508453D01*
X161240760Y-76607965D01*
X161243169Y-76615377D01*
X161241189Y-76616020D01*
X161249103Y-76665989D01*
X161221324Y-76720505D01*
X161166807Y-76748282D01*
X161151322Y-76749500D01*
X161124500Y-76749500D01*
X161066309Y-76730593D01*
X161030345Y-76681093D01*
X161025500Y-76650500D01*
X161025500Y-75991546D01*
X161225000Y-75991546D01*
X161225000Y-76149999D01*
X161225001Y-76150000D01*
X161799999Y-76150000D01*
X161800000Y-76149999D01*
X161800000Y-75600001D01*
X162000000Y-75600001D01*
X162000000Y-76149999D01*
X162000001Y-76150000D01*
X162574998Y-76150000D01*
X162574999Y-76149999D01*
X162574999Y-75991546D01*
X162559239Y-75892034D01*
X162559237Y-75892030D01*
X162498118Y-75772078D01*
X162402921Y-75676881D01*
X162282969Y-75615762D01*
X162282970Y-75615762D01*
X162183454Y-75600000D01*
X162000001Y-75600000D01*
X162000000Y-75600001D01*
X161800000Y-75600001D01*
X161799999Y-75600000D01*
X161616547Y-75600000D01*
X161616546Y-75600001D01*
X161517034Y-75615760D01*
X161517030Y-75615762D01*
X161397078Y-75676881D01*
X161301881Y-75772078D01*
X161240762Y-75892030D01*
X161225000Y-75991546D01*
X161025500Y-75991546D01*
X161025500Y-74758951D01*
X161044407Y-74700760D01*
X161079552Y-74670742D01*
X161163342Y-74628050D01*
X161253050Y-74538342D01*
X161310646Y-74425304D01*
X161325500Y-74331519D01*
X161325499Y-73718482D01*
X161325498Y-73718478D01*
X161325498Y-73718476D01*
X161310647Y-73624700D01*
X161310646Y-73624698D01*
X161310646Y-73624696D01*
X161253050Y-73511658D01*
X161163342Y-73421950D01*
X161050304Y-73364354D01*
X161050305Y-73364354D01*
X160956522Y-73349500D01*
X160493479Y-73349500D01*
X160493476Y-73349501D01*
X160399700Y-73364352D01*
X160399695Y-73364354D01*
X160286659Y-73421949D01*
X160196949Y-73511659D01*
X160139354Y-73624695D01*
X160124500Y-73718477D01*
X160124500Y-74331520D01*
X160124501Y-74331523D01*
X160139352Y-74425299D01*
X160139354Y-74425304D01*
X160196950Y-74538342D01*
X160286658Y-74628050D01*
X160370446Y-74670742D01*
X160413710Y-74714006D01*
X160424500Y-74758951D01*
X160424500Y-76371862D01*
X160405593Y-76430053D01*
X160356093Y-76466017D01*
X160294907Y-76466017D01*
X160245407Y-76430053D01*
X160243185Y-76426865D01*
X160219552Y-76391496D01*
X160219548Y-76391493D01*
X160153233Y-76347182D01*
X160153231Y-76347181D01*
X160153228Y-76347180D01*
X160153227Y-76347180D01*
X160094758Y-76335549D01*
X160094748Y-76335548D01*
X159605252Y-76335548D01*
X159600388Y-76335548D01*
X159600388Y-76333235D01*
X159549396Y-76322020D01*
X159508777Y-76276263D01*
X159500500Y-76236635D01*
X159500500Y-74681899D01*
X159519407Y-74623708D01*
X159529490Y-74611901D01*
X159603050Y-74538342D01*
X159660646Y-74425304D01*
X159675500Y-74331519D01*
X159675499Y-73718482D01*
X159675498Y-73718478D01*
X159675498Y-73718476D01*
X159660647Y-73624700D01*
X159660646Y-73624698D01*
X159660646Y-73624696D01*
X159603050Y-73511658D01*
X159513342Y-73421950D01*
X159400304Y-73364354D01*
X159400305Y-73364354D01*
X159306522Y-73349500D01*
X159306519Y-73349500D01*
X159115479Y-73349500D01*
X159057288Y-73330593D01*
X159045475Y-73320504D01*
X157808424Y-72083453D01*
X158675000Y-72083453D01*
X158690760Y-72182965D01*
X158690762Y-72182969D01*
X158751881Y-72302921D01*
X158847078Y-72398118D01*
X158967030Y-72459237D01*
X158967029Y-72459237D01*
X159066545Y-72474999D01*
X159225000Y-72474999D01*
X159225000Y-71900001D01*
X159425000Y-71900001D01*
X159425000Y-72474998D01*
X159425001Y-72474999D01*
X159583453Y-72474999D01*
X159682965Y-72459239D01*
X159682969Y-72459237D01*
X159802921Y-72398118D01*
X159898118Y-72302921D01*
X159959237Y-72182969D01*
X159975000Y-72083453D01*
X159975000Y-71900001D01*
X159974999Y-71900000D01*
X159425001Y-71900000D01*
X159425000Y-71900001D01*
X159225000Y-71900001D01*
X159224999Y-71900000D01*
X158675002Y-71900000D01*
X158675001Y-71900001D01*
X158675001Y-72083453D01*
X158675000Y-72083453D01*
X157808424Y-72083453D01*
X157241517Y-71516546D01*
X158675000Y-71516546D01*
X158675000Y-71699999D01*
X158675001Y-71700000D01*
X159224999Y-71700000D01*
X159225000Y-71699999D01*
X159225000Y-71125001D01*
X159425000Y-71125001D01*
X159425000Y-71699999D01*
X159425001Y-71700000D01*
X159974998Y-71700000D01*
X159974999Y-71699999D01*
X159974999Y-71516546D01*
X159959239Y-71417034D01*
X159959237Y-71417030D01*
X159898118Y-71297078D01*
X159802921Y-71201881D01*
X159682969Y-71140762D01*
X159682970Y-71140762D01*
X159583454Y-71125000D01*
X159425001Y-71125000D01*
X159425000Y-71125001D01*
X159225000Y-71125001D01*
X159224999Y-71125000D01*
X159066547Y-71125000D01*
X159066546Y-71125001D01*
X158967034Y-71140760D01*
X158967030Y-71140762D01*
X158847078Y-71201881D01*
X158751881Y-71297078D01*
X158690762Y-71417030D01*
X158675000Y-71516546D01*
X157241517Y-71516546D01*
X156029496Y-70304525D01*
X152977694Y-67252723D01*
X152949919Y-67198209D01*
X152959490Y-67137777D01*
X153002755Y-67094512D01*
X153060469Y-67085371D01*
X153060540Y-67084745D01*
X153062809Y-67085000D01*
X153063187Y-67084941D01*
X153064456Y-67085186D01*
X153066061Y-67085366D01*
X153066065Y-67085368D01*
X153245320Y-67105565D01*
X153424575Y-67085368D01*
X153425796Y-67084941D01*
X153441345Y-67079500D01*
X153594842Y-67025789D01*
X153747582Y-66929816D01*
X153875136Y-66802262D01*
X153971109Y-66649522D01*
X154030688Y-66479255D01*
X154050885Y-66300000D01*
X154030688Y-66120745D01*
X153971109Y-65950478D01*
X153875136Y-65797738D01*
X153747582Y-65670184D01*
X153747579Y-65670182D01*
X153747578Y-65670181D01*
X153594843Y-65574211D01*
X153424581Y-65514633D01*
X153424577Y-65514632D01*
X153245320Y-65494435D01*
X153066062Y-65514632D01*
X153066058Y-65514633D01*
X152895797Y-65574211D01*
X152895796Y-65574211D01*
X152743061Y-65670181D01*
X152615501Y-65797741D01*
X152519531Y-65950476D01*
X152519531Y-65950477D01*
X152507764Y-65984105D01*
X152470698Y-66032786D01*
X152412098Y-66050382D01*
X152354346Y-66030173D01*
X152319502Y-65979878D01*
X152315320Y-65951407D01*
X152315320Y-65900001D01*
X152315319Y-65900000D01*
X150945321Y-65900000D01*
X150945320Y-65900001D01*
X150945320Y-66319999D01*
X150945321Y-66320000D01*
X150978363Y-66320000D01*
X151036554Y-66338907D01*
X151072518Y-66388407D01*
X151072518Y-66449593D01*
X151036554Y-66499093D01*
X151003987Y-66514626D01*
X150984011Y-66519978D01*
X150984007Y-66519980D01*
X150915491Y-66559538D01*
X150304525Y-67170504D01*
X150250008Y-67198281D01*
X150234521Y-67199500D01*
X143565479Y-67199500D01*
X143507288Y-67180593D01*
X143495475Y-67170504D01*
X143029496Y-66704525D01*
X143001719Y-66650008D01*
X143000500Y-66634521D01*
X143000500Y-66395534D01*
X143019407Y-66337343D01*
X143068907Y-66301379D01*
X143130093Y-66301379D01*
X143138039Y-66305234D01*
X143138276Y-66304665D01*
X143147283Y-66308396D01*
X143205619Y-66319999D01*
X143205623Y-66320000D01*
X145475319Y-66320000D01*
X145475320Y-66319999D01*
X145475320Y-65900001D01*
X145675320Y-65900001D01*
X145675320Y-66319999D01*
X145675321Y-66320000D01*
X147945017Y-66320000D01*
X147945020Y-66319999D01*
X148003356Y-66308396D01*
X148069509Y-66264193D01*
X148069513Y-66264189D01*
X148113716Y-66198036D01*
X148125319Y-66139700D01*
X148125320Y-66139697D01*
X148125320Y-65900001D01*
X149375320Y-65900001D01*
X149375320Y-66139700D01*
X149386923Y-66198036D01*
X149431126Y-66264189D01*
X149431130Y-66264193D01*
X149497283Y-66308396D01*
X149555619Y-66319999D01*
X149555623Y-66320000D01*
X150745319Y-66320000D01*
X150745320Y-66319999D01*
X150745320Y-65900001D01*
X150745319Y-65900000D01*
X149375321Y-65900000D01*
X149375320Y-65900001D01*
X148125320Y-65900001D01*
X148125319Y-65900000D01*
X145675321Y-65900000D01*
X145675320Y-65900001D01*
X145475320Y-65900001D01*
X145475320Y-65280001D01*
X145675320Y-65280001D01*
X145675320Y-65699999D01*
X145675321Y-65700000D01*
X148125319Y-65700000D01*
X148125320Y-65699999D01*
X148125320Y-65460302D01*
X148125319Y-65460299D01*
X149375320Y-65460299D01*
X149375320Y-65699999D01*
X149375321Y-65700000D01*
X150745319Y-65700000D01*
X150745320Y-65699999D01*
X150745320Y-65280001D01*
X150945320Y-65280001D01*
X150945320Y-65699999D01*
X150945321Y-65700000D01*
X152315319Y-65700000D01*
X152315320Y-65699999D01*
X152315320Y-65460302D01*
X152315319Y-65460299D01*
X152303716Y-65401963D01*
X152259513Y-65335810D01*
X152259509Y-65335806D01*
X152193356Y-65291603D01*
X152135020Y-65280000D01*
X150945321Y-65280000D01*
X150945320Y-65280001D01*
X150745320Y-65280001D01*
X150745319Y-65280000D01*
X149555619Y-65280000D01*
X149497283Y-65291603D01*
X149431130Y-65335806D01*
X149431126Y-65335810D01*
X149386923Y-65401963D01*
X149375320Y-65460299D01*
X148125319Y-65460299D01*
X148113716Y-65401963D01*
X148069513Y-65335810D01*
X148069509Y-65335806D01*
X148003356Y-65291603D01*
X147945020Y-65280000D01*
X145675321Y-65280000D01*
X145675320Y-65280001D01*
X145475320Y-65280001D01*
X145475319Y-65280000D01*
X143483979Y-65280000D01*
X143425788Y-65261093D01*
X143389824Y-65211593D01*
X143389824Y-65150407D01*
X143413975Y-65110996D01*
X143565431Y-64959540D01*
X144640780Y-63884191D01*
X144640783Y-63884186D01*
X144680340Y-63815672D01*
X144680340Y-63815670D01*
X144680342Y-63815668D01*
X144700820Y-63739242D01*
X144700820Y-63681949D01*
X144719727Y-63623758D01*
X144744715Y-63599703D01*
X144744940Y-63599552D01*
X144745216Y-63599367D01*
X144804082Y-63582686D01*
X144855384Y-63599341D01*
X144855775Y-63599602D01*
X144856015Y-63599763D01*
X144893857Y-63647842D01*
X144899101Y-63669108D01*
X144899819Y-63674560D01*
X144918700Y-63745021D01*
X144920299Y-63750989D01*
X144928676Y-63765498D01*
X144928676Y-63765500D01*
X144959860Y-63819511D01*
X145324859Y-64184511D01*
X145380809Y-64240460D01*
X145449327Y-64280019D01*
X145449331Y-64280021D01*
X145525755Y-64300499D01*
X145525757Y-64300500D01*
X145525758Y-64300500D01*
X145604882Y-64300500D01*
X146060438Y-64300500D01*
X152934521Y-64300500D01*
X152992712Y-64319407D01*
X153004525Y-64329496D01*
X157570504Y-68895475D01*
X157598281Y-68949992D01*
X157599500Y-68965479D01*
X157599500Y-69824846D01*
X157580593Y-69883037D01*
X157560767Y-69903388D01*
X157471723Y-69971713D01*
X157471713Y-69971723D01*
X157375462Y-70097160D01*
X157375462Y-70097161D01*
X157314957Y-70243233D01*
X157314955Y-70243241D01*
X157294318Y-70399999D01*
X157294318Y-70400000D01*
X157314955Y-70556758D01*
X157314957Y-70556766D01*
X157375462Y-70702838D01*
X157375462Y-70702839D01*
X157375464Y-70702841D01*
X157471718Y-70828282D01*
X157471722Y-70828285D01*
X157471723Y-70828286D01*
X157597159Y-70924536D01*
X157597161Y-70924537D01*
X157741949Y-70984510D01*
X157743238Y-70985044D01*
X157860809Y-71000522D01*
X157899999Y-71005682D01*
X157900000Y-71005682D01*
X157900001Y-71005682D01*
X157931352Y-71001554D01*
X158056762Y-70985044D01*
X158202841Y-70924536D01*
X158328282Y-70828282D01*
X158424536Y-70702841D01*
X158485044Y-70556762D01*
X158505682Y-70400000D01*
X158485044Y-70243238D01*
X158424537Y-70097161D01*
X158424537Y-70097160D01*
X158328286Y-69971723D01*
X158328285Y-69971722D01*
X158328282Y-69971718D01*
X158328277Y-69971714D01*
X158328276Y-69971713D01*
X158239233Y-69903388D01*
X158204577Y-69852963D01*
X158200500Y-69824846D01*
X158200500Y-68760437D01*
X158200499Y-68760435D01*
X158180021Y-68684011D01*
X158180019Y-68684007D01*
X158140460Y-68615489D01*
X158084511Y-68559539D01*
X158084511Y-68559540D01*
X154484511Y-64959540D01*
X153885406Y-64360435D01*
X153284511Y-63759540D01*
X153284508Y-63759538D01*
X153259363Y-63745020D01*
X153259363Y-63745021D01*
X153215989Y-63719979D01*
X153215988Y-63719978D01*
X153215987Y-63719978D01*
X153139564Y-63699500D01*
X153139562Y-63699500D01*
X150479942Y-63699500D01*
X150421751Y-63680593D01*
X150385787Y-63631093D01*
X150385787Y-63569907D01*
X150397626Y-63545499D01*
X150400321Y-63541466D01*
X150419187Y-63513231D01*
X150430820Y-63454748D01*
X150430820Y-63360484D01*
X150449727Y-63302293D01*
X150499227Y-63266329D01*
X150560413Y-63266329D01*
X150599824Y-63290480D01*
G37*
G04 #@! TD.AperFunction*
G04 #@! TA.AperFunction,Conductor*
G36*
X150843440Y-67578273D02*
G01*
X150886704Y-67621537D01*
X150896276Y-67681969D01*
X150895593Y-67685796D01*
X150879820Y-67765092D01*
X150879820Y-67914905D01*
X150909045Y-68061829D01*
X150909045Y-68061831D01*
X150966371Y-68200229D01*
X150966371Y-68200230D01*
X151007844Y-68262297D01*
X151049601Y-68324791D01*
X151155529Y-68430719D01*
X151280088Y-68513947D01*
X151418490Y-68571275D01*
X151565417Y-68600500D01*
X151565418Y-68600500D01*
X151715222Y-68600500D01*
X151715223Y-68600500D01*
X151862150Y-68571275D01*
X152000552Y-68513947D01*
X152125111Y-68430719D01*
X152231039Y-68324791D01*
X152314267Y-68200232D01*
X152371595Y-68061830D01*
X152400820Y-67914903D01*
X152400820Y-67765097D01*
X152400820Y-67764799D01*
X152419727Y-67706608D01*
X152469227Y-67670644D01*
X152530413Y-67670644D01*
X152569824Y-67694795D01*
X156942235Y-72067206D01*
X156970012Y-72121723D01*
X156960441Y-72182155D01*
X156917176Y-72225420D01*
X156910117Y-72228674D01*
X156797160Y-72275463D01*
X156671723Y-72371713D01*
X156671713Y-72371723D01*
X156575462Y-72497160D01*
X156575462Y-72497161D01*
X156514957Y-72643233D01*
X156514955Y-72643241D01*
X156494318Y-72799999D01*
X156494318Y-72800000D01*
X156514955Y-72956758D01*
X156514957Y-72956766D01*
X156575462Y-73102838D01*
X156575462Y-73102839D01*
X156671713Y-73228276D01*
X156671718Y-73228282D01*
X156671722Y-73228285D01*
X156671723Y-73228286D01*
X156760767Y-73296612D01*
X156795423Y-73347037D01*
X156799500Y-73375154D01*
X156799500Y-73439561D01*
X156814355Y-73495000D01*
X156812583Y-73528813D01*
X156828032Y-73536685D01*
X156843764Y-73557187D01*
X156855731Y-73577914D01*
X156859536Y-73584505D01*
X156859537Y-73584507D01*
X156859540Y-73584511D01*
X157095505Y-73820476D01*
X157123281Y-73874991D01*
X157124500Y-73890478D01*
X157124500Y-74331520D01*
X157124501Y-74331523D01*
X157139352Y-74425299D01*
X157139354Y-74425304D01*
X157196950Y-74538342D01*
X157286658Y-74628050D01*
X157399696Y-74685646D01*
X157493481Y-74700500D01*
X157934520Y-74700499D01*
X157992711Y-74719406D01*
X158004524Y-74729495D01*
X158220504Y-74945475D01*
X158248281Y-74999992D01*
X158249500Y-75015479D01*
X158249500Y-76236635D01*
X158230593Y-76294826D01*
X158181093Y-76330790D01*
X158149612Y-76334210D01*
X158149612Y-76335548D01*
X158144748Y-76335548D01*
X157655252Y-76335548D01*
X157655251Y-76335548D01*
X157655241Y-76335549D01*
X157596772Y-76347180D01*
X157596766Y-76347182D01*
X157530451Y-76391493D01*
X157530445Y-76391499D01*
X157486134Y-76457814D01*
X157486132Y-76457820D01*
X157474501Y-76516289D01*
X157474500Y-76516301D01*
X157474500Y-78005794D01*
X157474501Y-78005806D01*
X157484981Y-78058488D01*
X157486133Y-78064279D01*
X157530448Y-78130600D01*
X157596769Y-78174915D01*
X157641231Y-78183759D01*
X157655241Y-78186546D01*
X157655246Y-78186546D01*
X157655252Y-78186548D01*
X157655253Y-78186548D01*
X158144747Y-78186548D01*
X158144748Y-78186548D01*
X158149418Y-78185618D01*
X158205685Y-78174427D01*
X158244315Y-78174427D01*
X158305241Y-78186546D01*
X158305246Y-78186546D01*
X158305252Y-78186548D01*
X158305253Y-78186548D01*
X158794747Y-78186548D01*
X158794748Y-78186548D01*
X158799418Y-78185618D01*
X158855685Y-78174427D01*
X158894315Y-78174427D01*
X158955241Y-78186546D01*
X158955246Y-78186546D01*
X158955252Y-78186548D01*
X158955253Y-78186548D01*
X159444747Y-78186548D01*
X159444748Y-78186548D01*
X159449418Y-78185618D01*
X159505685Y-78174427D01*
X159544315Y-78174427D01*
X159605241Y-78186546D01*
X159605246Y-78186546D01*
X159605252Y-78186548D01*
X159605253Y-78186548D01*
X160094747Y-78186548D01*
X160094748Y-78186548D01*
X160153231Y-78174915D01*
X160219552Y-78130600D01*
X160263867Y-78064279D01*
X160275500Y-78005796D01*
X160275500Y-77749500D01*
X160294407Y-77691309D01*
X160343907Y-77655345D01*
X160374500Y-77650500D01*
X160640691Y-77650500D01*
X161072389Y-77650500D01*
X161130580Y-77669407D01*
X161142393Y-77679496D01*
X161192893Y-77729996D01*
X161220670Y-77784513D01*
X161211099Y-77844945D01*
X161192893Y-77870004D01*
X160542393Y-78520504D01*
X160487876Y-78548281D01*
X160472389Y-78549500D01*
X155927612Y-78549500D01*
X155869421Y-78530593D01*
X155857608Y-78520504D01*
X153301041Y-75963937D01*
X153273264Y-75909420D01*
X153282835Y-75848988D01*
X153301041Y-75823929D01*
X154028176Y-75096795D01*
X154770475Y-74354496D01*
X154824992Y-74326719D01*
X154840479Y-74325500D01*
X155388992Y-74325500D01*
X155447183Y-74344407D01*
X155483147Y-74393907D01*
X155486773Y-74409013D01*
X155489352Y-74425300D01*
X155489354Y-74425304D01*
X155546950Y-74538342D01*
X155636658Y-74628050D01*
X155749696Y-74685646D01*
X155843481Y-74700500D01*
X156306518Y-74700499D01*
X156306520Y-74700499D01*
X156306521Y-74700498D01*
X156375502Y-74689574D01*
X156400299Y-74685647D01*
X156400299Y-74685646D01*
X156400304Y-74685646D01*
X156513342Y-74628050D01*
X156603050Y-74538342D01*
X156660646Y-74425304D01*
X156675500Y-74331519D01*
X156675499Y-73718482D01*
X156666078Y-73658993D01*
X156660247Y-73622174D01*
X156663703Y-73600354D01*
X156656426Y-73597561D01*
X156630519Y-73565568D01*
X156603051Y-73511660D01*
X156603050Y-73511658D01*
X156513342Y-73421950D01*
X156400304Y-73364354D01*
X156400305Y-73364354D01*
X156306522Y-73349500D01*
X155843479Y-73349500D01*
X155843476Y-73349501D01*
X155749700Y-73364352D01*
X155749695Y-73364354D01*
X155636659Y-73421949D01*
X155546949Y-73511659D01*
X155489354Y-73624695D01*
X155486774Y-73640986D01*
X155458997Y-73695503D01*
X155404481Y-73723281D01*
X155388993Y-73724500D01*
X154714562Y-73724500D01*
X154635438Y-73724500D01*
X154588661Y-73737033D01*
X154559007Y-73744979D01*
X154490493Y-73784536D01*
X152876070Y-75398959D01*
X152821553Y-75426736D01*
X152761121Y-75417165D01*
X152736062Y-75398959D01*
X150604496Y-73267393D01*
X150576719Y-73212876D01*
X150575500Y-73197389D01*
X150575500Y-72467255D01*
X150594407Y-72409064D01*
X150604490Y-72397257D01*
X150698528Y-72303220D01*
X150759719Y-72183126D01*
X150775500Y-72083488D01*
X150775500Y-72083453D01*
X151025000Y-72083453D01*
X151040760Y-72182965D01*
X151040762Y-72182969D01*
X151101881Y-72302921D01*
X151197078Y-72398118D01*
X151317030Y-72459237D01*
X151317029Y-72459237D01*
X151416545Y-72474999D01*
X151575000Y-72474999D01*
X151575000Y-71900001D01*
X151775000Y-71900001D01*
X151775000Y-72474998D01*
X151775001Y-72474999D01*
X151933453Y-72474999D01*
X152032965Y-72459239D01*
X152032969Y-72459237D01*
X152152921Y-72398118D01*
X152248118Y-72302921D01*
X152309237Y-72182969D01*
X152325000Y-72083453D01*
X152325000Y-71900001D01*
X152324999Y-71900000D01*
X151775001Y-71900000D01*
X151775000Y-71900001D01*
X151575000Y-71900001D01*
X151574999Y-71900000D01*
X151025002Y-71900000D01*
X151025001Y-71900001D01*
X151025001Y-72083453D01*
X151025000Y-72083453D01*
X150775500Y-72083453D01*
X150775500Y-71516546D01*
X151025000Y-71516546D01*
X151025000Y-71699999D01*
X151025001Y-71700000D01*
X151574999Y-71700000D01*
X151575000Y-71699999D01*
X151575000Y-71125001D01*
X151775000Y-71125001D01*
X151775000Y-71699999D01*
X151775001Y-71700000D01*
X152324998Y-71700000D01*
X152324999Y-71699999D01*
X152324999Y-71516546D01*
X152309239Y-71417034D01*
X152309237Y-71417030D01*
X152248118Y-71297078D01*
X152152921Y-71201881D01*
X152032969Y-71140762D01*
X152032970Y-71140762D01*
X151933454Y-71125000D01*
X151775001Y-71125000D01*
X151775000Y-71125001D01*
X151575000Y-71125001D01*
X151574999Y-71125000D01*
X151416547Y-71125000D01*
X151416546Y-71125001D01*
X151317034Y-71140760D01*
X151317030Y-71140762D01*
X151197078Y-71201881D01*
X151101881Y-71297078D01*
X151040762Y-71417030D01*
X151025000Y-71516546D01*
X150775500Y-71516546D01*
X150775500Y-71516512D01*
X150759719Y-71416874D01*
X150759716Y-71416869D01*
X150759716Y-71416867D01*
X150698529Y-71296782D01*
X150698528Y-71296780D01*
X150603220Y-71201472D01*
X150601640Y-71200667D01*
X150504874Y-71151361D01*
X150461610Y-71108096D01*
X150450820Y-71063152D01*
X150450820Y-68830692D01*
X150450820Y-68830691D01*
X150434193Y-68768637D01*
X150430820Y-68743015D01*
X150430820Y-68145253D01*
X150430818Y-68145241D01*
X150428031Y-68131231D01*
X150419187Y-68086769D01*
X150374872Y-68020448D01*
X150370174Y-68017309D01*
X150317055Y-67981815D01*
X150279176Y-67933765D01*
X150276774Y-67872626D01*
X150310768Y-67821753D01*
X150368171Y-67800576D01*
X150372057Y-67800500D01*
X150439563Y-67800500D01*
X150439563Y-67800499D01*
X150515989Y-67780021D01*
X150584511Y-67740460D01*
X150618363Y-67706608D01*
X150640461Y-67684511D01*
X150728491Y-67596480D01*
X150783007Y-67568702D01*
X150843440Y-67578273D01*
G37*
G04 #@! TD.AperFunction*
G04 #@! TD*
G04 #@! TA.AperFunction,Conductor*
G04 #@! TO.N,+3.3V*
G36*
X150088041Y-62089402D02*
G01*
X150134534Y-62143058D01*
X150145920Y-62195400D01*
X150145920Y-62239516D01*
X150153791Y-62306023D01*
X150161580Y-62338468D01*
X150164582Y-62350973D01*
X150175587Y-62383557D01*
X150180985Y-62399538D01*
X150234169Y-62477178D01*
X150240155Y-62485916D01*
X150240158Y-62485920D01*
X150283413Y-62529175D01*
X150283417Y-62529178D01*
X150283420Y-62529181D01*
X150290481Y-62534616D01*
X150341667Y-62574018D01*
X150389801Y-62591146D01*
X150440309Y-62609119D01*
X150440311Y-62609119D01*
X150440314Y-62609120D01*
X150474628Y-62614554D01*
X150500741Y-62618690D01*
X150574211Y-62620727D01*
X150674646Y-62591146D01*
X150729163Y-62563369D01*
X150768739Y-62534615D01*
X150835605Y-62510757D01*
X150904757Y-62526836D01*
X150954238Y-62577750D01*
X150968800Y-62636551D01*
X150968800Y-62961313D01*
X150948798Y-63029434D01*
X150895142Y-63075927D01*
X150824868Y-63086031D01*
X150764799Y-63060267D01*
X150758737Y-63055489D01*
X150748683Y-63047563D01*
X150709272Y-63023412D01*
X150709273Y-63023412D01*
X150709269Y-63023410D01*
X150663334Y-63000669D01*
X150663332Y-63000668D01*
X150663331Y-63000668D01*
X150560413Y-62981429D01*
X150499227Y-62981429D01*
X150499221Y-62981429D01*
X150499216Y-62981430D01*
X150426339Y-62990910D01*
X150426337Y-62990910D01*
X150331767Y-63035839D01*
X150331766Y-63035840D01*
X150282271Y-63071800D01*
X150282257Y-63071812D01*
X150228874Y-63122315D01*
X150228868Y-63122323D01*
X150178770Y-63214254D01*
X150159865Y-63272439D01*
X150159864Y-63272442D01*
X150159863Y-63272445D01*
X150159863Y-63272447D01*
X150153464Y-63312854D01*
X150145920Y-63360486D01*
X150145920Y-63382671D01*
X150133290Y-63437656D01*
X150129448Y-63445576D01*
X150120127Y-63466985D01*
X150120124Y-63466994D01*
X150110729Y-63517254D01*
X150078550Y-63580539D01*
X150017264Y-63616380D01*
X149986875Y-63620100D01*
X149901000Y-63620100D01*
X149832879Y-63600098D01*
X149786386Y-63546442D01*
X149775000Y-63494100D01*
X149775000Y-62195400D01*
X149795002Y-62127279D01*
X149848658Y-62080786D01*
X149901000Y-62069400D01*
X150019920Y-62069400D01*
X150088041Y-62089402D01*
G37*
G04 #@! TD.AperFunction*
G04 #@! TD*
G04 #@! TA.AperFunction,Conductor*
G04 #@! TO.N,unconnected-(J1-5V-Pad2)*
G36*
X134955121Y-62089402D02*
G01*
X135001614Y-62143058D01*
X135013000Y-62195400D01*
X135013000Y-63294100D01*
X134992998Y-63362221D01*
X134939342Y-63408714D01*
X134887000Y-63420100D01*
X134780720Y-63420100D01*
X134712599Y-63400098D01*
X134666106Y-63346442D01*
X134654720Y-63294100D01*
X134654720Y-62195400D01*
X134674722Y-62127279D01*
X134728378Y-62080786D01*
X134780720Y-62069400D01*
X134887000Y-62069400D01*
X134955121Y-62089402D01*
G37*
G04 #@! TD.AperFunction*
G04 #@! TD*
G04 #@! TA.AperFunction,Conductor*
G04 #@! TO.N,VBUS*
G36*
X150057916Y-68124402D02*
G01*
X150088744Y-68152393D01*
X150093312Y-68158188D01*
X150093315Y-68158191D01*
X150093317Y-68158193D01*
X150105451Y-68169410D01*
X150141894Y-68230337D01*
X150145920Y-68261932D01*
X150145920Y-68743016D01*
X150148356Y-68780191D01*
X150148358Y-68780213D01*
X150151728Y-68805812D01*
X150151731Y-68805830D01*
X150158996Y-68842357D01*
X150159000Y-68842372D01*
X150161627Y-68852177D01*
X150165920Y-68884786D01*
X150165920Y-70034200D01*
X150145918Y-70102321D01*
X150092262Y-70148814D01*
X150039920Y-70160200D01*
X149960720Y-70160200D01*
X149892599Y-70140198D01*
X149846106Y-70086542D01*
X149834720Y-70034200D01*
X149834720Y-69914500D01*
X149834593Y-69912883D01*
X149831213Y-69869936D01*
X149829178Y-69857088D01*
X149826373Y-69839370D01*
X149826369Y-69839355D01*
X149826368Y-69839343D01*
X149820393Y-69811017D01*
X149801741Y-69771756D01*
X149789550Y-69717687D01*
X149789550Y-68230400D01*
X149809552Y-68162279D01*
X149863208Y-68115786D01*
X149915550Y-68104400D01*
X149989795Y-68104400D01*
X150057916Y-68124402D01*
G37*
G04 #@! TD.AperFunction*
G04 #@! TD*
M02*
