G04 #@! TF.GenerationSoftware,KiCad,Pcbnew,8.0.4-1.fc40*
G04 #@! TF.CreationDate,2024-09-25T16:47:45-07:00*
G04 #@! TF.ProjectId,syzygy-dsi,73797a79-6779-42d6-9473-692e6b696361,A*
G04 #@! TF.SameCoordinates,Original*
G04 #@! TF.FileFunction,Copper,L1,Top*
G04 #@! TF.FilePolarity,Positive*
%FSLAX46Y46*%
G04 Gerber Fmt 4.6, Leading zero omitted, Abs format (unit mm)*
G04 Created by KiCad (PCBNEW 8.0.4-1.fc40) date 2024-09-25 16:47:45*
%MOMM*%
%LPD*%
G01*
G04 APERTURE LIST*
G04 #@! TA.AperFunction,ComponentPad*
%ADD10C,1.200000*%
G04 #@! TD*
G04 #@! TA.AperFunction,ViaPad*
%ADD11C,0.800000*%
G04 #@! TD*
G04 #@! TA.AperFunction,Conductor*
%ADD12C,0.200000*%
G04 #@! TD*
G04 APERTURE END LIST*
D10*
G04 #@! TO.P,J1,MH*
G04 #@! TO.N,N/C*
X131555320Y-66300000D03*
X153245320Y-66300000D03*
G04 #@! TD*
D11*
G04 #@! TO.N,GND*
X135700000Y-83000000D03*
X145900000Y-66800000D03*
X139300000Y-73200000D03*
X145900000Y-64800000D03*
X133900000Y-66800000D03*
X132300000Y-65000000D03*
X133500000Y-62800000D03*
X155900000Y-76400000D03*
G04 #@! TO.N,/S23*
X157100000Y-72800000D03*
X157900000Y-70400000D03*
G04 #@! TO.N,/C2P_CLK_N*
X142400320Y-79300000D03*
X148500000Y-60200000D03*
G04 #@! TO.N,/C2P_CLK_P*
X141400320Y-79300000D03*
X147500000Y-60200000D03*
G04 #@! TO.N,/SCL*
X137700000Y-83800000D03*
X157700000Y-84400000D03*
G04 #@! TO.N,/SDA*
X158700000Y-83200000D03*
X137100000Y-84600000D03*
G04 #@! TO.N,/S911_D5_P*
X142146446Y-75253554D03*
X139500000Y-60200000D03*
G04 #@! TO.N,/S57_D3_P*
X139900320Y-76600000D03*
X137879488Y-61105463D03*
G04 #@! TO.N,/S57_D3_N*
X138879488Y-61105463D03*
X140900320Y-76600000D03*
G04 #@! TO.N,/S1315_D7_N*
X143653554Y-71746446D03*
X142100000Y-61088588D03*
G04 #@! TO.N,/S13_D1_N*
X137300000Y-60200000D03*
X138453554Y-78746446D03*
G04 #@! TO.N,/S1315_D7_P*
X142946446Y-72453554D03*
X141100000Y-61088588D03*
G04 #@! TO.N,/S911_D5_N*
X140500000Y-60200000D03*
X142853554Y-74546446D03*
G04 #@! TO.N,/S13_D1_P*
X137746446Y-79453554D03*
X136300000Y-60200000D03*
G04 #@! TD*
D12*
G04 #@! TO.N,/S23*
X157900000Y-70400000D02*
X157900000Y-72000000D01*
X157900000Y-72000000D02*
X157100000Y-72800000D01*
G04 #@! TO.N,/C2P_CLK_N*
X142100320Y-79000000D02*
X142100320Y-77882524D01*
X148200000Y-60500000D02*
X148500000Y-60200000D01*
X148200000Y-71782844D02*
X148200000Y-60500000D01*
X142400320Y-79300000D02*
X142100320Y-79000000D01*
X142100320Y-77882524D02*
X148200000Y-71782844D01*
G04 #@! TO.N,/C2P_CLK_P*
X141700320Y-77716836D02*
X147800000Y-71617156D01*
X141700320Y-79000000D02*
X141700320Y-77716836D01*
X141400320Y-79300000D02*
X141700320Y-79000000D01*
X147800000Y-60500000D02*
X147500000Y-60200000D01*
X147800000Y-71617156D02*
X147800000Y-60500000D01*
G04 #@! TO.N,/SCL*
X157700000Y-86000000D02*
X157500000Y-86200000D01*
X140100000Y-86200000D02*
X137700000Y-83800000D01*
X157700000Y-84400000D02*
X157700000Y-86000000D01*
X157500000Y-86200000D02*
X140100000Y-86200000D01*
G04 #@! TO.N,/SDA*
X158700000Y-83200000D02*
X158700000Y-85565685D01*
X139100000Y-86600000D02*
X137100000Y-84600000D01*
X157665685Y-86600000D02*
X139100000Y-86600000D01*
X158700000Y-85565685D02*
X157665685Y-86600000D01*
G04 #@! TO.N,/S911_D5_P*
X142146446Y-74829289D02*
X139800000Y-72482843D01*
X142146446Y-75253554D02*
X142146446Y-74829289D01*
X139000000Y-66900000D02*
X139000000Y-66320000D01*
X139800000Y-60500000D02*
X139500000Y-60200000D01*
X139800000Y-64800000D02*
X139800000Y-60500000D01*
X139800000Y-65520000D02*
X139800000Y-64940000D01*
X139800000Y-64940000D02*
X139800000Y-64800000D01*
X139800000Y-72482843D02*
X139800000Y-67700000D01*
X139000000Y-66320000D02*
G75*
G02*
X139600000Y-65720000I600000J0D01*
G01*
X139600000Y-65720000D02*
G75*
G03*
X139800000Y-65520000I0J200000D01*
G01*
X139800000Y-67700000D02*
G75*
G03*
X139600000Y-67500000I-200000J0D01*
G01*
X139600000Y-67500000D02*
G75*
G02*
X139000000Y-66900000I0J600000D01*
G01*
G04 #@! TO.N,/S57_D3_P*
X137439488Y-65160000D02*
X137439488Y-64900000D01*
X140200320Y-76300000D02*
X140200320Y-75883164D01*
X137439488Y-63160000D02*
X137439488Y-62900000D01*
X138579488Y-63730000D02*
X138009488Y-63730000D01*
X138009488Y-64330000D02*
X138179488Y-64330000D01*
X139900320Y-76600000D02*
X140200320Y-76300000D01*
X140200320Y-75883164D02*
X138179488Y-73862332D01*
X138774488Y-63730000D02*
X138579488Y-63730000D01*
X138179488Y-61900000D02*
X138179488Y-61405463D01*
X138179488Y-64330000D02*
X138774488Y-64330000D01*
X138969488Y-64135000D02*
X138969488Y-63925000D01*
X138179488Y-61405463D02*
X137879488Y-61105463D01*
X138179488Y-73862332D02*
X138179488Y-65900000D01*
X138179488Y-62160000D02*
X138179488Y-61900000D01*
X138774488Y-64330000D02*
G75*
G03*
X138969500Y-64135000I12J195000D01*
G01*
X138969488Y-63925000D02*
G75*
G03*
X138774488Y-63730012I-194988J0D01*
G01*
X138179488Y-65900000D02*
G75*
G03*
X138009488Y-65730012I-169988J0D01*
G01*
X138009488Y-62330000D02*
G75*
G03*
X138179500Y-62160000I12J170000D01*
G01*
X138009488Y-63730000D02*
G75*
G02*
X137439500Y-63160000I12J570000D01*
G01*
X138009488Y-65730000D02*
G75*
G02*
X137439500Y-65160000I12J570000D01*
G01*
X137439488Y-64900000D02*
G75*
G02*
X138009488Y-64329988I570012J0D01*
G01*
X137439488Y-62900000D02*
G75*
G02*
X138009488Y-62329988I570012J0D01*
G01*
G04 #@! TO.N,/S57_D3_N*
X138774488Y-63330000D02*
X138579488Y-63330000D01*
X137839488Y-65160000D02*
X137839488Y-64900000D01*
X138579488Y-61405463D02*
X138879488Y-61105463D01*
X140600320Y-75717476D02*
X138579488Y-73696644D01*
X139369488Y-64135000D02*
X139369488Y-63925000D01*
X138179488Y-64730000D02*
X138774488Y-64730000D01*
X138579488Y-62160000D02*
X138579488Y-61900000D01*
X137839488Y-63160000D02*
X137839488Y-62900000D01*
X138579488Y-61900000D02*
X138579488Y-61405463D01*
X138579488Y-73696644D02*
X138579488Y-65900000D01*
X138009488Y-64730000D02*
X138179488Y-64730000D01*
X140600320Y-76300000D02*
X140600320Y-75717476D01*
X140900320Y-76600000D02*
X140600320Y-76300000D01*
X138579488Y-63330000D02*
X138009488Y-63330000D01*
X138774488Y-64730000D02*
G75*
G03*
X139369500Y-64135000I12J595000D01*
G01*
X139369488Y-63925000D02*
G75*
G03*
X138774488Y-63330012I-594988J0D01*
G01*
X138009488Y-63330000D02*
G75*
G02*
X137839500Y-63160000I12J170000D01*
G01*
X137839488Y-62900000D02*
G75*
G02*
X138009488Y-62729988I170012J0D01*
G01*
X137839488Y-64900000D02*
G75*
G02*
X138009488Y-64729988I170012J0D01*
G01*
X138579488Y-65900000D02*
G75*
G03*
X138009488Y-65330012I-569988J0D01*
G01*
X138009488Y-62730000D02*
G75*
G03*
X138579500Y-62160000I12J570000D01*
G01*
X138009488Y-65330000D02*
G75*
G02*
X137839500Y-65160000I12J170000D01*
G01*
G04 #@! TO.N,/S1315_D7_N*
X143653554Y-71746446D02*
X143229289Y-71746446D01*
X143229289Y-71746446D02*
X141800000Y-70317157D01*
X141800000Y-61388588D02*
X142100000Y-61088588D01*
X141800000Y-70317157D02*
X141800000Y-61388588D01*
G04 #@! TO.N,/S13_D1_N*
X137000000Y-60500000D02*
X137300000Y-60200000D01*
X135800000Y-71808000D02*
X135800000Y-71610000D01*
X137000000Y-70818000D02*
X137000000Y-70620000D01*
X138453554Y-78746446D02*
X138029289Y-78746446D01*
X135996000Y-71414000D02*
X136404000Y-71414000D01*
X137000000Y-70620000D02*
X137000000Y-69800000D01*
X137000000Y-69800000D02*
X137000000Y-60500000D01*
X138029289Y-78746446D02*
X137000000Y-77717157D01*
X137000000Y-77717157D02*
X137000000Y-72600000D01*
X136404000Y-72004000D02*
X135996000Y-72004000D01*
X135996000Y-72004000D02*
G75*
G02*
X135800000Y-71808000I0J196000D01*
G01*
X135800000Y-71610000D02*
G75*
G02*
X135996000Y-71414000I196000J0D01*
G01*
X137000000Y-72600000D02*
G75*
G03*
X136404000Y-72004000I-596000J0D01*
G01*
X136404000Y-71414000D02*
G75*
G03*
X137000000Y-70818000I0J596000D01*
G01*
G04 #@! TO.N,/S1315_D7_P*
X141400000Y-70482843D02*
X141400000Y-61388588D01*
X142946446Y-72453554D02*
X142946446Y-72029289D01*
X142946446Y-72029289D02*
X141400000Y-70482843D01*
X141400000Y-61388588D02*
X141100000Y-61088588D01*
G04 #@! TO.N,/S911_D5_N*
X140200000Y-64800000D02*
X140200000Y-60500000D01*
X140200000Y-65520000D02*
X140200000Y-64940000D01*
X140200000Y-60500000D02*
X140500000Y-60200000D01*
X142853554Y-74546446D02*
X142429289Y-74546446D01*
X140200000Y-64940000D02*
X140200000Y-64800000D01*
X142429289Y-74546446D02*
X140200000Y-72317157D01*
X139400000Y-66900000D02*
X139400000Y-66320000D01*
X140200000Y-72317157D02*
X140200000Y-67700000D01*
X139600000Y-67100000D02*
G75*
G02*
X139400000Y-66900000I0J200000D01*
G01*
X140200000Y-67700000D02*
G75*
G03*
X139600000Y-67100000I-600000J0D01*
G01*
X139600000Y-66120000D02*
G75*
G03*
X140200000Y-65520000I0J600000D01*
G01*
X139400000Y-66320000D02*
G75*
G02*
X139600000Y-66120000I200000J0D01*
G01*
G04 #@! TO.N,/S13_D1_P*
X135996000Y-71014000D02*
X136404000Y-71014000D01*
X136600000Y-70620000D02*
X136600000Y-69800000D01*
X136404000Y-72404000D02*
X135996000Y-72404000D01*
X137746446Y-79453554D02*
X137746446Y-79029289D01*
X136600000Y-60500000D02*
X136300000Y-60200000D01*
X136600000Y-70818000D02*
X136600000Y-70620000D01*
X135400000Y-71808000D02*
X135400000Y-71610000D01*
X137746446Y-79029289D02*
X136600000Y-77882843D01*
X136600000Y-77882843D02*
X136600000Y-72600000D01*
X136600000Y-69800000D02*
X136600000Y-60500000D01*
X136600000Y-72600000D02*
G75*
G03*
X136404000Y-72404000I-196000J0D01*
G01*
X135996000Y-72404000D02*
G75*
G02*
X135400000Y-71808000I0J596000D01*
G01*
X135400000Y-71610000D02*
G75*
G02*
X135996000Y-71014000I596000J0D01*
G01*
X136404000Y-71014000D02*
G75*
G03*
X136600000Y-70818000I0J196000D01*
G01*
G04 #@! TD*
G04 #@! TA.AperFunction,Conductor*
G04 #@! TO.N,GND*
G36*
X164358691Y-59319407D02*
G01*
X164394655Y-59368907D01*
X164399500Y-59399500D01*
X164399500Y-87200500D01*
X164380593Y-87258691D01*
X164331093Y-87294655D01*
X164300500Y-87299500D01*
X120499500Y-87299500D01*
X120441309Y-87280593D01*
X120405345Y-87231093D01*
X120400500Y-87200500D01*
X120400500Y-84599999D01*
X136494318Y-84599999D01*
X136494318Y-84600000D01*
X136514955Y-84756758D01*
X136514957Y-84756766D01*
X136575462Y-84902838D01*
X136575462Y-84902839D01*
X136671713Y-85028276D01*
X136671718Y-85028282D01*
X136797159Y-85124536D01*
X136943238Y-85185044D01*
X137060809Y-85200522D01*
X137099999Y-85205682D01*
X137100000Y-85205682D01*
X137211284Y-85191031D01*
X137271443Y-85202181D01*
X137294209Y-85219180D01*
X138859540Y-86784511D01*
X138859539Y-86784511D01*
X138915489Y-86840460D01*
X138984007Y-86880019D01*
X138984011Y-86880021D01*
X139060435Y-86900499D01*
X139060437Y-86900500D01*
X139060438Y-86900500D01*
X157705248Y-86900500D01*
X157705248Y-86900499D01*
X157781674Y-86880021D01*
X157850196Y-86840460D01*
X157906145Y-86784511D01*
X158940460Y-85750196D01*
X158969729Y-85699500D01*
X158980021Y-85681674D01*
X159000500Y-85605247D01*
X159000500Y-83775154D01*
X159019407Y-83716963D01*
X159039233Y-83696612D01*
X159108787Y-83643241D01*
X159128282Y-83628282D01*
X159224536Y-83502841D01*
X159285044Y-83356762D01*
X159305682Y-83200000D01*
X159285044Y-83043238D01*
X159224537Y-82897161D01*
X159224537Y-82897160D01*
X159128286Y-82771723D01*
X159128285Y-82771722D01*
X159128282Y-82771718D01*
X159128277Y-82771714D01*
X159128276Y-82771713D01*
X159002838Y-82675462D01*
X158856766Y-82614957D01*
X158856758Y-82614955D01*
X158700001Y-82594318D01*
X158699999Y-82594318D01*
X158543241Y-82614955D01*
X158543233Y-82614957D01*
X158397161Y-82675462D01*
X158397160Y-82675462D01*
X158271723Y-82771713D01*
X158271713Y-82771723D01*
X158175462Y-82897160D01*
X158175462Y-82897161D01*
X158114957Y-83043233D01*
X158114955Y-83043241D01*
X158094318Y-83199999D01*
X158094318Y-83200000D01*
X158114955Y-83356758D01*
X158114957Y-83356766D01*
X158175462Y-83502838D01*
X158175462Y-83502839D01*
X158175464Y-83502841D01*
X158271718Y-83628282D01*
X158271722Y-83628285D01*
X158271723Y-83628286D01*
X158360767Y-83696612D01*
X158395423Y-83747037D01*
X158399500Y-83775154D01*
X158399500Y-84033532D01*
X158380593Y-84091723D01*
X158331093Y-84127687D01*
X158269907Y-84127687D01*
X158221958Y-84093799D01*
X158128286Y-83971723D01*
X158128285Y-83971722D01*
X158128282Y-83971718D01*
X158128277Y-83971714D01*
X158128276Y-83971713D01*
X158002838Y-83875462D01*
X157856766Y-83814957D01*
X157856758Y-83814955D01*
X157700001Y-83794318D01*
X157699999Y-83794318D01*
X157543241Y-83814955D01*
X157543233Y-83814957D01*
X157397161Y-83875462D01*
X157397160Y-83875462D01*
X157271723Y-83971713D01*
X157271713Y-83971723D01*
X157175462Y-84097160D01*
X157175462Y-84097161D01*
X157114957Y-84243233D01*
X157114955Y-84243241D01*
X157094318Y-84399999D01*
X157094318Y-84400000D01*
X157114955Y-84556758D01*
X157114957Y-84556766D01*
X157175462Y-84702838D01*
X157175462Y-84702839D01*
X157245573Y-84794209D01*
X157271718Y-84828282D01*
X157271722Y-84828285D01*
X157271723Y-84828286D01*
X157360767Y-84896612D01*
X157395423Y-84947037D01*
X157399500Y-84975154D01*
X157399500Y-85800500D01*
X157380593Y-85858691D01*
X157331093Y-85894655D01*
X157300500Y-85899500D01*
X140265479Y-85899500D01*
X140207288Y-85880593D01*
X140195475Y-85870504D01*
X138319180Y-83994209D01*
X138291403Y-83939692D01*
X138291031Y-83911283D01*
X138305682Y-83800000D01*
X138305682Y-83799999D01*
X138298709Y-83747037D01*
X138285044Y-83643238D01*
X138224537Y-83497161D01*
X138224537Y-83497160D01*
X138128286Y-83371723D01*
X138128285Y-83371722D01*
X138128282Y-83371718D01*
X138128277Y-83371714D01*
X138128276Y-83371713D01*
X138002838Y-83275462D01*
X137856766Y-83214957D01*
X137856758Y-83214955D01*
X137700001Y-83194318D01*
X137699999Y-83194318D01*
X137543241Y-83214955D01*
X137543233Y-83214957D01*
X137397161Y-83275462D01*
X137397160Y-83275462D01*
X137271723Y-83371713D01*
X137271713Y-83371723D01*
X137175462Y-83497160D01*
X137175462Y-83497161D01*
X137114957Y-83643233D01*
X137114955Y-83643241D01*
X137094318Y-83799999D01*
X137094318Y-83800000D01*
X137106639Y-83893589D01*
X137095489Y-83953750D01*
X137051106Y-83995867D01*
X137021409Y-84004664D01*
X136943240Y-84014955D01*
X136943233Y-84014957D01*
X136797161Y-84075462D01*
X136797160Y-84075462D01*
X136671723Y-84171713D01*
X136671713Y-84171723D01*
X136575462Y-84297160D01*
X136575462Y-84297161D01*
X136514957Y-84443233D01*
X136514955Y-84443241D01*
X136494318Y-84599999D01*
X120400500Y-84599999D01*
X120400500Y-71521699D01*
X135099500Y-71521699D01*
X135099500Y-71896300D01*
X135133952Y-72069498D01*
X135133952Y-72069500D01*
X135201530Y-72232649D01*
X135294452Y-72371718D01*
X135299643Y-72379486D01*
X135424514Y-72504357D01*
X135571348Y-72602468D01*
X135734501Y-72670048D01*
X135907702Y-72704500D01*
X135956438Y-72704500D01*
X136200500Y-72704500D01*
X136258691Y-72723407D01*
X136294655Y-72772907D01*
X136299500Y-72803500D01*
X136299500Y-77922405D01*
X136319979Y-77998832D01*
X136330848Y-78017657D01*
X136359540Y-78067354D01*
X136881865Y-78589679D01*
X137256466Y-78964280D01*
X137284243Y-79018797D01*
X137274672Y-79079229D01*
X137265004Y-79094551D01*
X137221911Y-79150711D01*
X137221909Y-79150714D01*
X137161403Y-79296790D01*
X137161401Y-79296795D01*
X137140764Y-79453553D01*
X137140764Y-79453554D01*
X137161401Y-79610312D01*
X137161403Y-79610320D01*
X137221908Y-79756392D01*
X137221908Y-79756393D01*
X137221910Y-79756395D01*
X137318164Y-79881836D01*
X137443605Y-79978090D01*
X137589684Y-80038598D01*
X137707255Y-80054076D01*
X137746445Y-80059236D01*
X137746446Y-80059236D01*
X137746447Y-80059236D01*
X137777798Y-80055108D01*
X137903208Y-80038598D01*
X138049287Y-79978090D01*
X138174728Y-79881836D01*
X138270982Y-79756395D01*
X138331490Y-79610316D01*
X138352128Y-79453554D01*
X138352128Y-79453553D01*
X138352128Y-79451128D01*
X138352665Y-79449474D01*
X138352975Y-79447121D01*
X138353411Y-79447178D01*
X138371035Y-79392937D01*
X138420535Y-79356973D01*
X138451128Y-79352128D01*
X138453555Y-79352128D01*
X138484906Y-79348000D01*
X138610316Y-79331490D01*
X138686342Y-79299999D01*
X140794638Y-79299999D01*
X140794638Y-79300000D01*
X140815275Y-79456758D01*
X140815277Y-79456766D01*
X140875782Y-79602838D01*
X140875782Y-79602839D01*
X140900320Y-79634817D01*
X140972038Y-79728282D01*
X141097479Y-79824536D01*
X141243558Y-79885044D01*
X141361129Y-79900522D01*
X141400319Y-79905682D01*
X141400320Y-79905682D01*
X141400321Y-79905682D01*
X141431672Y-79901554D01*
X141557082Y-79885044D01*
X141703161Y-79824536D01*
X141828602Y-79728282D01*
X141828608Y-79728273D01*
X141830316Y-79726567D01*
X141831867Y-79725776D01*
X141833750Y-79724332D01*
X141834017Y-79724680D01*
X141884833Y-79698790D01*
X141945265Y-79708361D01*
X141970324Y-79726567D01*
X141972033Y-79728276D01*
X141972038Y-79728282D01*
X142097479Y-79824536D01*
X142243558Y-79885044D01*
X142361129Y-79900522D01*
X142400319Y-79905682D01*
X142400320Y-79905682D01*
X142400321Y-79905682D01*
X142431672Y-79901554D01*
X142557082Y-79885044D01*
X142703161Y-79824536D01*
X142828602Y-79728282D01*
X142924856Y-79602841D01*
X142985364Y-79456762D01*
X143006002Y-79300000D01*
X143005579Y-79296790D01*
X142989510Y-79174732D01*
X142985364Y-79143238D01*
X142924857Y-78997161D01*
X142924857Y-78997160D01*
X142828606Y-78871723D01*
X142828605Y-78871722D01*
X142828602Y-78871718D01*
X142828597Y-78871714D01*
X142828596Y-78871713D01*
X142703158Y-78775462D01*
X142557082Y-78714956D01*
X142486897Y-78705715D01*
X142431672Y-78679373D01*
X142402478Y-78625602D01*
X142400820Y-78607562D01*
X142400820Y-78048002D01*
X142419727Y-77989811D01*
X142429810Y-77978004D01*
X147607816Y-72799999D01*
X156494318Y-72799999D01*
X156494318Y-72800000D01*
X156514955Y-72956758D01*
X156514957Y-72956766D01*
X156575462Y-73102838D01*
X156575462Y-73102839D01*
X156575464Y-73102841D01*
X156671718Y-73228282D01*
X156797159Y-73324536D01*
X156943238Y-73385044D01*
X157060809Y-73400522D01*
X157099999Y-73405682D01*
X157100000Y-73405682D01*
X157100001Y-73405682D01*
X157131352Y-73401554D01*
X157256762Y-73385044D01*
X157402841Y-73324536D01*
X157528282Y-73228282D01*
X157624536Y-73102841D01*
X157685044Y-72956762D01*
X157705682Y-72800000D01*
X157691031Y-72688714D01*
X157702181Y-72628553D01*
X157719177Y-72605792D01*
X158140460Y-72184511D01*
X158141712Y-72182343D01*
X158180021Y-72115989D01*
X158200500Y-72039562D01*
X158200500Y-70975154D01*
X158219407Y-70916963D01*
X158239233Y-70896612D01*
X158278979Y-70866112D01*
X158328282Y-70828282D01*
X158424536Y-70702841D01*
X158485044Y-70556762D01*
X158505682Y-70400000D01*
X158485044Y-70243238D01*
X158464105Y-70192686D01*
X158424537Y-70097161D01*
X158424537Y-70097160D01*
X158328286Y-69971723D01*
X158328285Y-69971722D01*
X158328282Y-69971718D01*
X158328277Y-69971714D01*
X158328276Y-69971713D01*
X158202838Y-69875462D01*
X158056766Y-69814957D01*
X158056758Y-69814955D01*
X157900001Y-69794318D01*
X157899999Y-69794318D01*
X157743241Y-69814955D01*
X157743233Y-69814957D01*
X157597161Y-69875462D01*
X157597160Y-69875462D01*
X157471723Y-69971713D01*
X157471713Y-69971723D01*
X157375462Y-70097160D01*
X157375462Y-70097161D01*
X157314957Y-70243233D01*
X157314955Y-70243241D01*
X157294318Y-70399999D01*
X157294318Y-70400000D01*
X157314955Y-70556758D01*
X157314957Y-70556766D01*
X157375462Y-70702838D01*
X157375462Y-70702839D01*
X157463828Y-70818000D01*
X157471718Y-70828282D01*
X157471722Y-70828285D01*
X157471723Y-70828286D01*
X157560767Y-70896612D01*
X157595423Y-70947037D01*
X157599500Y-70975154D01*
X157599500Y-71834521D01*
X157580593Y-71892712D01*
X157570503Y-71904525D01*
X157294208Y-72180819D01*
X157239692Y-72208596D01*
X157211283Y-72208968D01*
X157100001Y-72194318D01*
X157099999Y-72194318D01*
X156943241Y-72214955D01*
X156943233Y-72214957D01*
X156797161Y-72275462D01*
X156797160Y-72275462D01*
X156671723Y-72371713D01*
X156671713Y-72371723D01*
X156575462Y-72497161D01*
X156514957Y-72643233D01*
X156514955Y-72643241D01*
X156494318Y-72799999D01*
X147607816Y-72799999D01*
X148440460Y-71967355D01*
X148442138Y-71964447D01*
X148442147Y-71964439D01*
X148442144Y-71964438D01*
X148442235Y-71964280D01*
X148480021Y-71898833D01*
X148500500Y-71822406D01*
X148500500Y-67765094D01*
X150879820Y-67765094D01*
X150879820Y-67914905D01*
X150909045Y-68061829D01*
X150909045Y-68061831D01*
X150966371Y-68200229D01*
X150966371Y-68200230D01*
X151007844Y-68262297D01*
X151049601Y-68324791D01*
X151155529Y-68430719D01*
X151280088Y-68513947D01*
X151418490Y-68571275D01*
X151565417Y-68600500D01*
X151565418Y-68600500D01*
X151715222Y-68600500D01*
X151715223Y-68600500D01*
X151862150Y-68571275D01*
X152000552Y-68513947D01*
X152125111Y-68430719D01*
X152231039Y-68324791D01*
X152314267Y-68200232D01*
X152371595Y-68061830D01*
X152400820Y-67914903D01*
X152400820Y-67765097D01*
X152371595Y-67618170D01*
X152314268Y-67479770D01*
X152314268Y-67479769D01*
X152285912Y-67437332D01*
X152231039Y-67355209D01*
X152125111Y-67249281D01*
X152000552Y-67166053D01*
X152000551Y-67166052D01*
X152000549Y-67166051D01*
X151862150Y-67108725D01*
X151715225Y-67079500D01*
X151715223Y-67079500D01*
X151565417Y-67079500D01*
X151565414Y-67079500D01*
X151418490Y-67108725D01*
X151418488Y-67108725D01*
X151280090Y-67166051D01*
X151280089Y-67166051D01*
X151155529Y-67249281D01*
X151155525Y-67249284D01*
X151049604Y-67355205D01*
X151049601Y-67355209D01*
X150966371Y-67479769D01*
X150966371Y-67479770D01*
X150909045Y-67618168D01*
X150909045Y-67618170D01*
X150879820Y-67765094D01*
X148500500Y-67765094D01*
X148500500Y-66300000D01*
X152439755Y-66300000D01*
X152459952Y-66479257D01*
X152459953Y-66479261D01*
X152519531Y-66649522D01*
X152519531Y-66649523D01*
X152615501Y-66802258D01*
X152615504Y-66802262D01*
X152743058Y-66929816D01*
X152743060Y-66929817D01*
X152743061Y-66929818D01*
X152855606Y-67000535D01*
X152895798Y-67025789D01*
X152963977Y-67049646D01*
X153066058Y-67085366D01*
X153066062Y-67085367D01*
X153066065Y-67085368D01*
X153245320Y-67105565D01*
X153424575Y-67085368D01*
X153594842Y-67025789D01*
X153747582Y-66929816D01*
X153875136Y-66802262D01*
X153971109Y-66649522D01*
X154030688Y-66479255D01*
X154050885Y-66300000D01*
X154030688Y-66120745D01*
X154021341Y-66094034D01*
X154000908Y-66035639D01*
X153971109Y-65950478D01*
X153899242Y-65836103D01*
X153875138Y-65797741D01*
X153875137Y-65797740D01*
X153875136Y-65797738D01*
X153747582Y-65670184D01*
X153747579Y-65670182D01*
X153747578Y-65670181D01*
X153594843Y-65574211D01*
X153424581Y-65514633D01*
X153424577Y-65514632D01*
X153245320Y-65494435D01*
X153066062Y-65514632D01*
X153066058Y-65514633D01*
X152895797Y-65574211D01*
X152895796Y-65574211D01*
X152743061Y-65670181D01*
X152615501Y-65797741D01*
X152519531Y-65950476D01*
X152519531Y-65950477D01*
X152459953Y-66120738D01*
X152459952Y-66120742D01*
X152439755Y-66300000D01*
X148500500Y-66300000D01*
X148500500Y-60892436D01*
X148519407Y-60834245D01*
X148568907Y-60798281D01*
X148586572Y-60794284D01*
X148656762Y-60785044D01*
X148802841Y-60724536D01*
X148928282Y-60628282D01*
X149024536Y-60502841D01*
X149085044Y-60356762D01*
X149105682Y-60200000D01*
X149085044Y-60043238D01*
X149024537Y-59897161D01*
X149024537Y-59897160D01*
X148928286Y-59771723D01*
X148928285Y-59771722D01*
X148928282Y-59771718D01*
X148928277Y-59771714D01*
X148928276Y-59771713D01*
X148802838Y-59675462D01*
X148656766Y-59614957D01*
X148656758Y-59614955D01*
X148500001Y-59594318D01*
X148499999Y-59594318D01*
X148343241Y-59614955D01*
X148343233Y-59614957D01*
X148197161Y-59675462D01*
X148197160Y-59675462D01*
X148071715Y-59771719D01*
X148069998Y-59773437D01*
X148068449Y-59774225D01*
X148066570Y-59775668D01*
X148066302Y-59775319D01*
X148015479Y-59801210D01*
X147955048Y-59791634D01*
X147930002Y-59773437D01*
X147928284Y-59771719D01*
X147802838Y-59675462D01*
X147656766Y-59614957D01*
X147656758Y-59614955D01*
X147500001Y-59594318D01*
X147499999Y-59594318D01*
X147343241Y-59614955D01*
X147343233Y-59614957D01*
X147197161Y-59675462D01*
X147197160Y-59675462D01*
X147071723Y-59771713D01*
X147071713Y-59771723D01*
X146975462Y-59897160D01*
X146975462Y-59897161D01*
X146914957Y-60043233D01*
X146914955Y-60043241D01*
X146894318Y-60199999D01*
X146894318Y-60200000D01*
X146914955Y-60356758D01*
X146914957Y-60356766D01*
X146975462Y-60502838D01*
X146975462Y-60502839D01*
X147035381Y-60580927D01*
X147071718Y-60628282D01*
X147197159Y-60724536D01*
X147343238Y-60785044D01*
X147413422Y-60794283D01*
X147468646Y-60820623D01*
X147497842Y-60874394D01*
X147499500Y-60892436D01*
X147499500Y-71451677D01*
X147480593Y-71509868D01*
X147470504Y-71521681D01*
X141515809Y-77476376D01*
X141515808Y-77476375D01*
X141459859Y-77532325D01*
X141420300Y-77600843D01*
X141420298Y-77600847D01*
X141399820Y-77677271D01*
X141399820Y-78607562D01*
X141380913Y-78665753D01*
X141331413Y-78701717D01*
X141313743Y-78705715D01*
X141243557Y-78714956D01*
X141097481Y-78775462D01*
X141097480Y-78775462D01*
X140972043Y-78871713D01*
X140972033Y-78871723D01*
X140875782Y-78997160D01*
X140875782Y-78997161D01*
X140815277Y-79143233D01*
X140815275Y-79143241D01*
X140794638Y-79299999D01*
X138686342Y-79299999D01*
X138756395Y-79270982D01*
X138881836Y-79174728D01*
X138978090Y-79049287D01*
X139038598Y-78903208D01*
X139059236Y-78746446D01*
X139038598Y-78589684D01*
X138978091Y-78443607D01*
X138978091Y-78443606D01*
X138881840Y-78318169D01*
X138881839Y-78318168D01*
X138881836Y-78318164D01*
X138881831Y-78318160D01*
X138881830Y-78318159D01*
X138756392Y-78221908D01*
X138610320Y-78161403D01*
X138610312Y-78161401D01*
X138453555Y-78140764D01*
X138453553Y-78140764D01*
X138296795Y-78161401D01*
X138296790Y-78161403D01*
X138150714Y-78221909D01*
X138150711Y-78221911D01*
X138094551Y-78265004D01*
X138036875Y-78285428D01*
X137978209Y-78268050D01*
X137964280Y-78256466D01*
X137329496Y-77621682D01*
X137301719Y-77567165D01*
X137300500Y-77551678D01*
X137300500Y-72511703D01*
X137300499Y-72511699D01*
X137299039Y-72504357D01*
X137266048Y-72338501D01*
X137217660Y-72221682D01*
X137198469Y-72175350D01*
X137198053Y-72174728D01*
X137100357Y-72028514D01*
X136975486Y-71903643D01*
X136968287Y-71898833D01*
X136828652Y-71805532D01*
X136816416Y-71800464D01*
X136769892Y-71760729D01*
X136755607Y-71701234D01*
X136779021Y-71644706D01*
X136816416Y-71617536D01*
X136828652Y-71612468D01*
X136975486Y-71514357D01*
X137100357Y-71389486D01*
X137198468Y-71242652D01*
X137266048Y-71079499D01*
X137300500Y-70906298D01*
X137300500Y-70818000D01*
X137300500Y-70770405D01*
X137300500Y-70580438D01*
X137300500Y-69760438D01*
X137300500Y-65918417D01*
X137319407Y-65860226D01*
X137368907Y-65824262D01*
X137430093Y-65824262D01*
X137454503Y-65836103D01*
X137597141Y-65931415D01*
X137597147Y-65931418D01*
X137597152Y-65931421D01*
X137697040Y-65972798D01*
X137755564Y-65997041D01*
X137755567Y-65997042D01*
X137755570Y-65997043D01*
X137799303Y-66005742D01*
X137852686Y-66035639D01*
X137878302Y-66091204D01*
X137878988Y-66102840D01*
X137878988Y-73901896D01*
X137899466Y-73978319D01*
X137899467Y-73978321D01*
X137924633Y-74021910D01*
X137939028Y-74046843D01*
X138866907Y-74974722D01*
X139754460Y-75862275D01*
X139782237Y-75916792D01*
X139772666Y-75977224D01*
X139729401Y-76020489D01*
X139722342Y-76023743D01*
X139597480Y-76075463D01*
X139472043Y-76171713D01*
X139472033Y-76171723D01*
X139375782Y-76297160D01*
X139375782Y-76297161D01*
X139315277Y-76443233D01*
X139315275Y-76443241D01*
X139294638Y-76599999D01*
X139294638Y-76600000D01*
X139315275Y-76756758D01*
X139315277Y-76756766D01*
X139375782Y-76902838D01*
X139375782Y-76902839D01*
X139375784Y-76902841D01*
X139472038Y-77028282D01*
X139597479Y-77124536D01*
X139743558Y-77185044D01*
X139861129Y-77200522D01*
X139900319Y-77205682D01*
X139900320Y-77205682D01*
X139900321Y-77205682D01*
X139931672Y-77201554D01*
X140057082Y-77185044D01*
X140203161Y-77124536D01*
X140328602Y-77028282D01*
X140328608Y-77028273D01*
X140330316Y-77026567D01*
X140331867Y-77025776D01*
X140333750Y-77024332D01*
X140334017Y-77024680D01*
X140384833Y-76998790D01*
X140445265Y-77008361D01*
X140470324Y-77026567D01*
X140472033Y-77028276D01*
X140472038Y-77028282D01*
X140597479Y-77124536D01*
X140743558Y-77185044D01*
X140861129Y-77200522D01*
X140900319Y-77205682D01*
X140900320Y-77205682D01*
X140900321Y-77205682D01*
X140931672Y-77201554D01*
X141057082Y-77185044D01*
X141203161Y-77124536D01*
X141328602Y-77028282D01*
X141424856Y-76902841D01*
X141485364Y-76756762D01*
X141506002Y-76600000D01*
X141485364Y-76443238D01*
X141424857Y-76297161D01*
X141424857Y-76297160D01*
X141328606Y-76171723D01*
X141328605Y-76171722D01*
X141328602Y-76171718D01*
X141328597Y-76171714D01*
X141328596Y-76171713D01*
X141203158Y-76075462D01*
X141057082Y-76014956D01*
X140986897Y-76005715D01*
X140931672Y-75979373D01*
X140902478Y-75925602D01*
X140900820Y-75907562D01*
X140900820Y-75677913D01*
X140900819Y-75677911D01*
X140880341Y-75601487D01*
X140880339Y-75601483D01*
X140840780Y-75532965D01*
X140784831Y-75477015D01*
X140784831Y-75477016D01*
X138908984Y-73601169D01*
X138881207Y-73546652D01*
X138879988Y-73531165D01*
X138879988Y-67687141D01*
X138898895Y-67628950D01*
X138948395Y-67592986D01*
X139009581Y-67592986D01*
X139033989Y-67604825D01*
X139173453Y-67698013D01*
X139337334Y-67765894D01*
X139419815Y-67782300D01*
X139473198Y-67812197D01*
X139498814Y-67867762D01*
X139499500Y-67879398D01*
X139499500Y-72522407D01*
X139519977Y-72598828D01*
X139519979Y-72598833D01*
X139542628Y-72638063D01*
X139542629Y-72638063D01*
X139542630Y-72638065D01*
X139559540Y-72667354D01*
X140794080Y-73901894D01*
X141656466Y-74764280D01*
X141684243Y-74818797D01*
X141674672Y-74879229D01*
X141665004Y-74894551D01*
X141621911Y-74950711D01*
X141621909Y-74950714D01*
X141561403Y-75096790D01*
X141561401Y-75096795D01*
X141540764Y-75253553D01*
X141540764Y-75253554D01*
X141561401Y-75410312D01*
X141561403Y-75410320D01*
X141621908Y-75556392D01*
X141621908Y-75556393D01*
X141718159Y-75681830D01*
X141718164Y-75681836D01*
X141843605Y-75778090D01*
X141989684Y-75838598D01*
X142107255Y-75854076D01*
X142146445Y-75859236D01*
X142146446Y-75859236D01*
X142146447Y-75859236D01*
X142177798Y-75855108D01*
X142303208Y-75838598D01*
X142449287Y-75778090D01*
X142574728Y-75681836D01*
X142670982Y-75556395D01*
X142731490Y-75410316D01*
X142752128Y-75253554D01*
X142752128Y-75253553D01*
X142752128Y-75251128D01*
X142752665Y-75249474D01*
X142752975Y-75247121D01*
X142753411Y-75247178D01*
X142771035Y-75192937D01*
X142820535Y-75156973D01*
X142851128Y-75152128D01*
X142853555Y-75152128D01*
X142884906Y-75148000D01*
X143010316Y-75131490D01*
X143156395Y-75070982D01*
X143281836Y-74974728D01*
X143378090Y-74849287D01*
X143438598Y-74703208D01*
X143459236Y-74546446D01*
X143438598Y-74389684D01*
X143378091Y-74243607D01*
X143378091Y-74243606D01*
X143281840Y-74118169D01*
X143281839Y-74118168D01*
X143281836Y-74118164D01*
X143281831Y-74118160D01*
X143281830Y-74118159D01*
X143156392Y-74021908D01*
X143010320Y-73961403D01*
X143010312Y-73961401D01*
X142853555Y-73940764D01*
X142853553Y-73940764D01*
X142696795Y-73961401D01*
X142696790Y-73961403D01*
X142550714Y-74021909D01*
X142550711Y-74021911D01*
X142494551Y-74065004D01*
X142436875Y-74085428D01*
X142378209Y-74068050D01*
X142364280Y-74056466D01*
X140529496Y-72221682D01*
X140501719Y-72167165D01*
X140500500Y-72151678D01*
X140500500Y-67611310D01*
X140500499Y-67611306D01*
X140499210Y-67604826D01*
X140465894Y-67437334D01*
X140398014Y-67273455D01*
X140398014Y-67273454D01*
X140299464Y-67125965D01*
X140174034Y-67000535D01*
X140026544Y-66901985D01*
X139862667Y-66834106D01*
X139780185Y-66817699D01*
X139726801Y-66787802D01*
X139701186Y-66732236D01*
X139700500Y-66720601D01*
X139700500Y-66499398D01*
X139719407Y-66441207D01*
X139768907Y-66405243D01*
X139780179Y-66402301D01*
X139862666Y-66385894D01*
X140026547Y-66318013D01*
X140174035Y-66219464D01*
X140299464Y-66094035D01*
X140398013Y-65946547D01*
X140465894Y-65782666D01*
X140500500Y-65608691D01*
X140500500Y-65520000D01*
X140500500Y-65472405D01*
X140500500Y-64900438D01*
X140500500Y-64760438D01*
X140500500Y-61584659D01*
X140519407Y-61526468D01*
X140568907Y-61490504D01*
X140630093Y-61490504D01*
X140669504Y-61514655D01*
X140671713Y-61516864D01*
X140671718Y-61516870D01*
X140671722Y-61516873D01*
X140671723Y-61516874D01*
X140684226Y-61526468D01*
X140797159Y-61613124D01*
X140797160Y-61613124D01*
X140797161Y-61613125D01*
X140837901Y-61630000D01*
X140943238Y-61673632D01*
X141013422Y-61682871D01*
X141068646Y-61709211D01*
X141097842Y-61762982D01*
X141099500Y-61781024D01*
X141099500Y-70522405D01*
X141119979Y-70598832D01*
X141130848Y-70617657D01*
X141159540Y-70667354D01*
X141810043Y-71317857D01*
X142456466Y-71964280D01*
X142484243Y-72018797D01*
X142474672Y-72079229D01*
X142465004Y-72094551D01*
X142421911Y-72150711D01*
X142421909Y-72150714D01*
X142361403Y-72296790D01*
X142361401Y-72296795D01*
X142340764Y-72453553D01*
X142340764Y-72453554D01*
X142361401Y-72610312D01*
X142361403Y-72610320D01*
X142421908Y-72756392D01*
X142421908Y-72756393D01*
X142518159Y-72881830D01*
X142518164Y-72881836D01*
X142643605Y-72978090D01*
X142789684Y-73038598D01*
X142907255Y-73054076D01*
X142946445Y-73059236D01*
X142946446Y-73059236D01*
X142946447Y-73059236D01*
X142977798Y-73055108D01*
X143103208Y-73038598D01*
X143249287Y-72978090D01*
X143374728Y-72881836D01*
X143470982Y-72756395D01*
X143531490Y-72610316D01*
X143552128Y-72453554D01*
X143552128Y-72453553D01*
X143552128Y-72451128D01*
X143552665Y-72449474D01*
X143552975Y-72447121D01*
X143553411Y-72447178D01*
X143571035Y-72392937D01*
X143620535Y-72356973D01*
X143651128Y-72352128D01*
X143653555Y-72352128D01*
X143684906Y-72348000D01*
X143810316Y-72331490D01*
X143956395Y-72270982D01*
X144081836Y-72174728D01*
X144178090Y-72049287D01*
X144238598Y-71903208D01*
X144259236Y-71746446D01*
X144238598Y-71589684D01*
X144207397Y-71514359D01*
X144178091Y-71443607D01*
X144178091Y-71443606D01*
X144081840Y-71318169D01*
X144081839Y-71318168D01*
X144081836Y-71318164D01*
X144081831Y-71318160D01*
X144081830Y-71318159D01*
X144001429Y-71256466D01*
X143956395Y-71221910D01*
X143956394Y-71221909D01*
X143956392Y-71221908D01*
X143810320Y-71161403D01*
X143810312Y-71161401D01*
X143653555Y-71140764D01*
X143653553Y-71140764D01*
X143496795Y-71161401D01*
X143496790Y-71161403D01*
X143350714Y-71221909D01*
X143350711Y-71221911D01*
X143294551Y-71265004D01*
X143236875Y-71285428D01*
X143178209Y-71268050D01*
X143164280Y-71256466D01*
X142129496Y-70221682D01*
X142101719Y-70167165D01*
X142100500Y-70151678D01*
X142100500Y-61781024D01*
X142119407Y-61722833D01*
X142168907Y-61686869D01*
X142186572Y-61682872D01*
X142256762Y-61673632D01*
X142402841Y-61613124D01*
X142528282Y-61516870D01*
X142624536Y-61391429D01*
X142685044Y-61245350D01*
X142705682Y-61088588D01*
X142685044Y-60931826D01*
X142624537Y-60785749D01*
X142624537Y-60785748D01*
X142528286Y-60660311D01*
X142528285Y-60660310D01*
X142528282Y-60660306D01*
X142528277Y-60660302D01*
X142528276Y-60660301D01*
X142402838Y-60564050D01*
X142256766Y-60503545D01*
X142256758Y-60503543D01*
X142100001Y-60482906D01*
X142099999Y-60482906D01*
X141943241Y-60503543D01*
X141943233Y-60503545D01*
X141797161Y-60564050D01*
X141797160Y-60564050D01*
X141671715Y-60660307D01*
X141669998Y-60662025D01*
X141668449Y-60662813D01*
X141666570Y-60664256D01*
X141666302Y-60663907D01*
X141615479Y-60689798D01*
X141555048Y-60680222D01*
X141530002Y-60662025D01*
X141528284Y-60660307D01*
X141402838Y-60564050D01*
X141256766Y-60503545D01*
X141256759Y-60503543D01*
X141164183Y-60491355D01*
X141108958Y-60465013D01*
X141079764Y-60411242D01*
X141084794Y-60363413D01*
X141083364Y-60363030D01*
X141085042Y-60356766D01*
X141085044Y-60356762D01*
X141105682Y-60200000D01*
X141085044Y-60043238D01*
X141024537Y-59897161D01*
X141024537Y-59897160D01*
X140928286Y-59771723D01*
X140928285Y-59771722D01*
X140928282Y-59771718D01*
X140928277Y-59771714D01*
X140928276Y-59771713D01*
X140802838Y-59675462D01*
X140656766Y-59614957D01*
X140656758Y-59614955D01*
X140500001Y-59594318D01*
X140499999Y-59594318D01*
X140343241Y-59614955D01*
X140343233Y-59614957D01*
X140197161Y-59675462D01*
X140197160Y-59675462D01*
X140071715Y-59771719D01*
X140069998Y-59773437D01*
X140068449Y-59774225D01*
X140066570Y-59775668D01*
X140066302Y-59775319D01*
X140015479Y-59801210D01*
X139955048Y-59791634D01*
X139930002Y-59773437D01*
X139928284Y-59771719D01*
X139802838Y-59675462D01*
X139656766Y-59614957D01*
X139656758Y-59614955D01*
X139500001Y-59594318D01*
X139499999Y-59594318D01*
X139343241Y-59614955D01*
X139343233Y-59614957D01*
X139197161Y-59675462D01*
X139197160Y-59675462D01*
X139071723Y-59771713D01*
X139071713Y-59771723D01*
X138975462Y-59897160D01*
X138975462Y-59897161D01*
X138914957Y-60043233D01*
X138914955Y-60043241D01*
X138894318Y-60199999D01*
X138894318Y-60200000D01*
X138914955Y-60356758D01*
X138914957Y-60356767D01*
X138919925Y-60368759D01*
X138924725Y-60429756D01*
X138892756Y-60481925D01*
X138841384Y-60504797D01*
X138722728Y-60520418D01*
X138722721Y-60520420D01*
X138576649Y-60580925D01*
X138576648Y-60580925D01*
X138451203Y-60677182D01*
X138449486Y-60678900D01*
X138447937Y-60679688D01*
X138446058Y-60681131D01*
X138445790Y-60680782D01*
X138394967Y-60706673D01*
X138334536Y-60697097D01*
X138309490Y-60678900D01*
X138307772Y-60677182D01*
X138182326Y-60580925D01*
X138036254Y-60520420D01*
X138036246Y-60520418D01*
X137956495Y-60509919D01*
X137901270Y-60483578D01*
X137872075Y-60429807D01*
X137877952Y-60373881D01*
X137885044Y-60356762D01*
X137905682Y-60200000D01*
X137885044Y-60043238D01*
X137824537Y-59897161D01*
X137824537Y-59897160D01*
X137728286Y-59771723D01*
X137728285Y-59771722D01*
X137728282Y-59771718D01*
X137728277Y-59771714D01*
X137728276Y-59771713D01*
X137602838Y-59675462D01*
X137456766Y-59614957D01*
X137456758Y-59614955D01*
X137300001Y-59594318D01*
X137299999Y-59594318D01*
X137143241Y-59614955D01*
X137143233Y-59614957D01*
X136997161Y-59675462D01*
X136997160Y-59675462D01*
X136871715Y-59771719D01*
X136869998Y-59773437D01*
X136868449Y-59774225D01*
X136866570Y-59775668D01*
X136866302Y-59775319D01*
X136815479Y-59801210D01*
X136755048Y-59791634D01*
X136730002Y-59773437D01*
X136728284Y-59771719D01*
X136602838Y-59675462D01*
X136456766Y-59614957D01*
X136456758Y-59614955D01*
X136300001Y-59594318D01*
X136299999Y-59594318D01*
X136143241Y-59614955D01*
X136143233Y-59614957D01*
X135997161Y-59675462D01*
X135997160Y-59675462D01*
X135871723Y-59771713D01*
X135871713Y-59771723D01*
X135775462Y-59897160D01*
X135775462Y-59897161D01*
X135714957Y-60043233D01*
X135714955Y-60043241D01*
X135694318Y-60199999D01*
X135694318Y-60200000D01*
X135714955Y-60356758D01*
X135714957Y-60356766D01*
X135775462Y-60502838D01*
X135775462Y-60502839D01*
X135835381Y-60580927D01*
X135871718Y-60628282D01*
X135997159Y-60724536D01*
X136143238Y-60785044D01*
X136213422Y-60794283D01*
X136268646Y-60820623D01*
X136297842Y-60874394D01*
X136299500Y-60892436D01*
X136299500Y-70614500D01*
X136280593Y-70672691D01*
X136231093Y-70708655D01*
X136200500Y-70713500D01*
X135907699Y-70713500D01*
X135734501Y-70747952D01*
X135734499Y-70747952D01*
X135571350Y-70815530D01*
X135424517Y-70913640D01*
X135299640Y-71038517D01*
X135201530Y-71185350D01*
X135133952Y-71348499D01*
X135133952Y-71348501D01*
X135099500Y-71521699D01*
X120400500Y-71521699D01*
X120400500Y-67765094D01*
X132399820Y-67765094D01*
X132399820Y-67914905D01*
X132429045Y-68061829D01*
X132429045Y-68061831D01*
X132486371Y-68200229D01*
X132486371Y-68200230D01*
X132527844Y-68262297D01*
X132569601Y-68324791D01*
X132675529Y-68430719D01*
X132800088Y-68513947D01*
X132938490Y-68571275D01*
X133085417Y-68600500D01*
X133085418Y-68600500D01*
X133235222Y-68600500D01*
X133235223Y-68600500D01*
X133382150Y-68571275D01*
X133520552Y-68513947D01*
X133645111Y-68430719D01*
X133751039Y-68324791D01*
X133834267Y-68200232D01*
X133891595Y-68061830D01*
X133920820Y-67914903D01*
X133920820Y-67765097D01*
X133891595Y-67618170D01*
X133834268Y-67479770D01*
X133834268Y-67479769D01*
X133805912Y-67437332D01*
X133751039Y-67355209D01*
X133645111Y-67249281D01*
X133520552Y-67166053D01*
X133520551Y-67166052D01*
X133520549Y-67166051D01*
X133382150Y-67108725D01*
X133235225Y-67079500D01*
X133235223Y-67079500D01*
X133085417Y-67079500D01*
X133085414Y-67079500D01*
X132938490Y-67108725D01*
X132938488Y-67108725D01*
X132800090Y-67166051D01*
X132800089Y-67166051D01*
X132675529Y-67249281D01*
X132675525Y-67249284D01*
X132569604Y-67355205D01*
X132569601Y-67355209D01*
X132486371Y-67479769D01*
X132486371Y-67479770D01*
X132429045Y-67618168D01*
X132429045Y-67618170D01*
X132399820Y-67765094D01*
X120400500Y-67765094D01*
X120400500Y-66300000D01*
X130749755Y-66300000D01*
X130769952Y-66479257D01*
X130769953Y-66479261D01*
X130829531Y-66649522D01*
X130829531Y-66649523D01*
X130925501Y-66802258D01*
X130925504Y-66802262D01*
X131053058Y-66929816D01*
X131053060Y-66929817D01*
X131053061Y-66929818D01*
X131165606Y-67000535D01*
X131205798Y-67025789D01*
X131273977Y-67049646D01*
X131376058Y-67085366D01*
X131376062Y-67085367D01*
X131376065Y-67085368D01*
X131555320Y-67105565D01*
X131734575Y-67085368D01*
X131904842Y-67025789D01*
X132057582Y-66929816D01*
X132185136Y-66802262D01*
X132281109Y-66649522D01*
X132340688Y-66479255D01*
X132360885Y-66300000D01*
X132340688Y-66120745D01*
X132331341Y-66094034D01*
X132310908Y-66035639D01*
X132281109Y-65950478D01*
X132209242Y-65836103D01*
X132185138Y-65797741D01*
X132185137Y-65797740D01*
X132185136Y-65797738D01*
X132057582Y-65670184D01*
X132057579Y-65670182D01*
X132057578Y-65670181D01*
X131904843Y-65574211D01*
X131734581Y-65514633D01*
X131734577Y-65514632D01*
X131555320Y-65494435D01*
X131376062Y-65514632D01*
X131376058Y-65514633D01*
X131205797Y-65574211D01*
X131205796Y-65574211D01*
X131053061Y-65670181D01*
X130925501Y-65797741D01*
X130829531Y-65950476D01*
X130829531Y-65950477D01*
X130769953Y-66120738D01*
X130769952Y-66120742D01*
X130749755Y-66300000D01*
X120400500Y-66300000D01*
X120400500Y-59399500D01*
X120419407Y-59341309D01*
X120468907Y-59305345D01*
X120499500Y-59300500D01*
X164300500Y-59300500D01*
X164358691Y-59319407D01*
G37*
G04 #@! TD.AperFunction*
G04 #@! TD*
M02*
