G04 #@! TF.GenerationSoftware,KiCad,Pcbnew,8.0.4-1.fc40*
G04 #@! TF.CreationDate,2024-09-25T16:47:45-07:00*
G04 #@! TF.ProjectId,syzygy-dsi,73797a79-6779-42d6-9473-692e6b696361,A*
G04 #@! TF.SameCoordinates,Original*
G04 #@! TF.FileFunction,Paste,Bot*
G04 #@! TF.FilePolarity,Positive*
%FSLAX46Y46*%
G04 Gerber Fmt 4.6, Leading zero omitted, Abs format (unit mm)*
G04 Created by KiCad (PCBNEW 8.0.4-1.fc40) date 2024-09-25 16:47:45*
%MOMM*%
%LPD*%
G01*
G04 APERTURE LIST*
G04 Aperture macros list*
%AMRoundRect*
0 Rectangle with rounded corners*
0 $1 Rounding radius*
0 $2 $3 $4 $5 $6 $7 $8 $9 X,Y pos of 4 corners*
0 Add a 4 corners polygon primitive as box body*
4,1,4,$2,$3,$4,$5,$6,$7,$8,$9,$2,$3,0*
0 Add four circle primitives for the rounded corners*
1,1,$1+$1,$2,$3*
1,1,$1+$1,$4,$5*
1,1,$1+$1,$6,$7*
1,1,$1+$1,$8,$9*
0 Add four rect primitives between the rounded corners*
20,1,$1+$1,$2,$3,$4,$5,0*
20,1,$1+$1,$4,$5,$6,$7,0*
20,1,$1+$1,$6,$7,$8,$9,0*
20,1,$1+$1,$8,$9,$2,$3,0*%
G04 Aperture macros list end*
%ADD10C,0.010000*%
%ADD11RoundRect,0.200000X0.275000X-0.200000X0.275000X0.200000X-0.275000X0.200000X-0.275000X-0.200000X0*%
%ADD12R,2.540000X0.640000*%
%ADD13R,4.700000X0.640000*%
%ADD14R,0.460000X1.450000*%
%ADD15RoundRect,0.200000X-0.200000X-0.275000X0.200000X-0.275000X0.200000X0.275000X-0.200000X0.275000X0*%
%ADD16RoundRect,0.225000X0.225000X0.250000X-0.225000X0.250000X-0.225000X-0.250000X0.225000X-0.250000X0*%
%ADD17RoundRect,0.225000X-0.250000X0.225000X-0.250000X-0.225000X0.250000X-0.225000X0.250000X0.225000X0*%
%ADD18RoundRect,0.200000X0.200000X0.275000X-0.200000X0.275000X-0.200000X-0.275000X0.200000X-0.275000X0*%
%ADD19RoundRect,0.250000X0.475000X-0.250000X0.475000X0.250000X-0.475000X0.250000X-0.475000X-0.250000X0*%
%ADD20R,0.400000X0.800000*%
%ADD21R,0.450000X1.450000*%
%ADD22RoundRect,0.225000X-0.225000X-0.250000X0.225000X-0.250000X0.225000X0.250000X-0.225000X0.250000X0*%
%ADD23RoundRect,0.225000X0.250000X-0.225000X0.250000X0.225000X-0.250000X0.225000X-0.250000X-0.225000X0*%
G04 APERTURE END LIST*
D10*
G04 #@! TO.C,J2*
X134275320Y-81550000D02*
X134025320Y-81550000D01*
X134025320Y-80900000D01*
X134275320Y-80900000D01*
X134275320Y-81550000D01*
G36*
X134275320Y-81550000D02*
G01*
X134025320Y-81550000D01*
X134025320Y-80900000D01*
X134275320Y-80900000D01*
X134275320Y-81550000D01*
G37*
X134775320Y-81550000D02*
X134525320Y-81550000D01*
X134525320Y-80900000D01*
X134775320Y-80900000D01*
X134775320Y-81550000D01*
G36*
X134775320Y-81550000D02*
G01*
X134525320Y-81550000D01*
X134525320Y-80900000D01*
X134775320Y-80900000D01*
X134775320Y-81550000D01*
G37*
X135275320Y-81550000D02*
X135025320Y-81550000D01*
X135025320Y-80900000D01*
X135275320Y-80900000D01*
X135275320Y-81550000D01*
G36*
X135275320Y-81550000D02*
G01*
X135025320Y-81550000D01*
X135025320Y-80900000D01*
X135275320Y-80900000D01*
X135275320Y-81550000D01*
G37*
X135775320Y-81550000D02*
X135525320Y-81550000D01*
X135525320Y-80900000D01*
X135775320Y-80900000D01*
X135775320Y-81550000D01*
G36*
X135775320Y-81550000D02*
G01*
X135525320Y-81550000D01*
X135525320Y-80900000D01*
X135775320Y-80900000D01*
X135775320Y-81550000D01*
G37*
X136275320Y-81550000D02*
X136025320Y-81550000D01*
X136025320Y-80900000D01*
X136275320Y-80900000D01*
X136275320Y-81550000D01*
G36*
X136275320Y-81550000D02*
G01*
X136025320Y-81550000D01*
X136025320Y-80900000D01*
X136275320Y-80900000D01*
X136275320Y-81550000D01*
G37*
X136775320Y-81550000D02*
X136525320Y-81550000D01*
X136525320Y-80900000D01*
X136775320Y-80900000D01*
X136775320Y-81550000D01*
G36*
X136775320Y-81550000D02*
G01*
X136525320Y-81550000D01*
X136525320Y-80900000D01*
X136775320Y-80900000D01*
X136775320Y-81550000D01*
G37*
X137275320Y-81550000D02*
X137025320Y-81550000D01*
X137025320Y-80900000D01*
X137275320Y-80900000D01*
X137275320Y-81550000D01*
G36*
X137275320Y-81550000D02*
G01*
X137025320Y-81550000D01*
X137025320Y-80900000D01*
X137275320Y-80900000D01*
X137275320Y-81550000D01*
G37*
X137775320Y-81550000D02*
X137525320Y-81550000D01*
X137525320Y-80900000D01*
X137775320Y-80900000D01*
X137775320Y-81550000D01*
G36*
X137775320Y-81550000D02*
G01*
X137525320Y-81550000D01*
X137525320Y-80900000D01*
X137775320Y-80900000D01*
X137775320Y-81550000D01*
G37*
X138275320Y-81550000D02*
X138025320Y-81550000D01*
X138025320Y-80900000D01*
X138275320Y-80900000D01*
X138275320Y-81550000D01*
G36*
X138275320Y-81550000D02*
G01*
X138025320Y-81550000D01*
X138025320Y-80900000D01*
X138275320Y-80900000D01*
X138275320Y-81550000D01*
G37*
X138775320Y-81550000D02*
X138525320Y-81550000D01*
X138525320Y-80900000D01*
X138775320Y-80900000D01*
X138775320Y-81550000D01*
G36*
X138775320Y-81550000D02*
G01*
X138525320Y-81550000D01*
X138525320Y-80900000D01*
X138775320Y-80900000D01*
X138775320Y-81550000D01*
G37*
X139275320Y-81550000D02*
X139025320Y-81550000D01*
X139025320Y-80900000D01*
X139275320Y-80900000D01*
X139275320Y-81550000D01*
G36*
X139275320Y-81550000D02*
G01*
X139025320Y-81550000D01*
X139025320Y-80900000D01*
X139275320Y-80900000D01*
X139275320Y-81550000D01*
G37*
X139775320Y-81550000D02*
X139525320Y-81550000D01*
X139525320Y-80900000D01*
X139775320Y-80900000D01*
X139775320Y-81550000D01*
G36*
X139775320Y-81550000D02*
G01*
X139525320Y-81550000D01*
X139525320Y-80900000D01*
X139775320Y-80900000D01*
X139775320Y-81550000D01*
G37*
X140275320Y-81550000D02*
X140025320Y-81550000D01*
X140025320Y-80900000D01*
X140275320Y-80900000D01*
X140275320Y-81550000D01*
G36*
X140275320Y-81550000D02*
G01*
X140025320Y-81550000D01*
X140025320Y-80900000D01*
X140275320Y-80900000D01*
X140275320Y-81550000D01*
G37*
X140775320Y-81550000D02*
X140525320Y-81550000D01*
X140525320Y-80900000D01*
X140775320Y-80900000D01*
X140775320Y-81550000D01*
G36*
X140775320Y-81550000D02*
G01*
X140525320Y-81550000D01*
X140525320Y-80900000D01*
X140775320Y-80900000D01*
X140775320Y-81550000D01*
G37*
X141275320Y-81550000D02*
X141025320Y-81550000D01*
X141025320Y-80900000D01*
X141275320Y-80900000D01*
X141275320Y-81550000D01*
G36*
X141275320Y-81550000D02*
G01*
X141025320Y-81550000D01*
X141025320Y-80900000D01*
X141275320Y-80900000D01*
X141275320Y-81550000D01*
G37*
X141775320Y-81550000D02*
X141525320Y-81550000D01*
X141525320Y-80900000D01*
X141775320Y-80900000D01*
X141775320Y-81550000D01*
G36*
X141775320Y-81550000D02*
G01*
X141525320Y-81550000D01*
X141525320Y-80900000D01*
X141775320Y-80900000D01*
X141775320Y-81550000D01*
G37*
X142275320Y-81550000D02*
X142025320Y-81550000D01*
X142025320Y-80900000D01*
X142275320Y-80900000D01*
X142275320Y-81550000D01*
G36*
X142275320Y-81550000D02*
G01*
X142025320Y-81550000D01*
X142025320Y-80900000D01*
X142275320Y-80900000D01*
X142275320Y-81550000D01*
G37*
X142775320Y-81550000D02*
X142525320Y-81550000D01*
X142525320Y-80900000D01*
X142775320Y-80900000D01*
X142775320Y-81550000D01*
G36*
X142775320Y-81550000D02*
G01*
X142525320Y-81550000D01*
X142525320Y-80900000D01*
X142775320Y-80900000D01*
X142775320Y-81550000D01*
G37*
X143275320Y-81550000D02*
X143025320Y-81550000D01*
X143025320Y-80900000D01*
X143275320Y-80900000D01*
X143275320Y-81550000D01*
G36*
X143275320Y-81550000D02*
G01*
X143025320Y-81550000D01*
X143025320Y-80900000D01*
X143275320Y-80900000D01*
X143275320Y-81550000D01*
G37*
X143775320Y-81550000D02*
X143525320Y-81550000D01*
X143525320Y-80900000D01*
X143775320Y-80900000D01*
X143775320Y-81550000D01*
G36*
X143775320Y-81550000D02*
G01*
X143525320Y-81550000D01*
X143525320Y-80900000D01*
X143775320Y-80900000D01*
X143775320Y-81550000D01*
G37*
X144275320Y-81550000D02*
X144025320Y-81550000D01*
X144025320Y-80900000D01*
X144275320Y-80900000D01*
X144275320Y-81550000D01*
G36*
X144275320Y-81550000D02*
G01*
X144025320Y-81550000D01*
X144025320Y-80900000D01*
X144275320Y-80900000D01*
X144275320Y-81550000D01*
G37*
X144775320Y-81550000D02*
X144525320Y-81550000D01*
X144525320Y-80900000D01*
X144775320Y-80900000D01*
X144775320Y-81550000D01*
G36*
X144775320Y-81550000D02*
G01*
X144525320Y-81550000D01*
X144525320Y-80900000D01*
X144775320Y-80900000D01*
X144775320Y-81550000D01*
G37*
X145275320Y-81550000D02*
X145025320Y-81550000D01*
X145025320Y-80900000D01*
X145275320Y-80900000D01*
X145275320Y-81550000D01*
G36*
X145275320Y-81550000D02*
G01*
X145025320Y-81550000D01*
X145025320Y-80900000D01*
X145275320Y-80900000D01*
X145275320Y-81550000D01*
G37*
X145775320Y-81550000D02*
X145525320Y-81550000D01*
X145525320Y-80900000D01*
X145775320Y-80900000D01*
X145775320Y-81550000D01*
G36*
X145775320Y-81550000D02*
G01*
X145525320Y-81550000D01*
X145525320Y-80900000D01*
X145775320Y-80900000D01*
X145775320Y-81550000D01*
G37*
X146275320Y-81550000D02*
X146025320Y-81550000D01*
X146025320Y-80900000D01*
X146275320Y-80900000D01*
X146275320Y-81550000D01*
G36*
X146275320Y-81550000D02*
G01*
X146025320Y-81550000D01*
X146025320Y-80900000D01*
X146275320Y-80900000D01*
X146275320Y-81550000D01*
G37*
X146775320Y-81550000D02*
X146525320Y-81550000D01*
X146525320Y-80900000D01*
X146775320Y-80900000D01*
X146775320Y-81550000D01*
G36*
X146775320Y-81550000D02*
G01*
X146525320Y-81550000D01*
X146525320Y-80900000D01*
X146775320Y-80900000D01*
X146775320Y-81550000D01*
G37*
X147275320Y-81550000D02*
X147025320Y-81550000D01*
X147025320Y-80900000D01*
X147275320Y-80900000D01*
X147275320Y-81550000D01*
G36*
X147275320Y-81550000D02*
G01*
X147025320Y-81550000D01*
X147025320Y-80900000D01*
X147275320Y-80900000D01*
X147275320Y-81550000D01*
G37*
X147775320Y-81550000D02*
X147525320Y-81550000D01*
X147525320Y-80900000D01*
X147775320Y-80900000D01*
X147775320Y-81550000D01*
G36*
X147775320Y-81550000D02*
G01*
X147525320Y-81550000D01*
X147525320Y-80900000D01*
X147775320Y-80900000D01*
X147775320Y-81550000D01*
G37*
X148275320Y-81550000D02*
X148025320Y-81550000D01*
X148025320Y-80900000D01*
X148275320Y-80900000D01*
X148275320Y-81550000D01*
G36*
X148275320Y-81550000D02*
G01*
X148025320Y-81550000D01*
X148025320Y-80900000D01*
X148275320Y-80900000D01*
X148275320Y-81550000D01*
G37*
X148775320Y-81550000D02*
X148525320Y-81550000D01*
X148525320Y-80900000D01*
X148775320Y-80900000D01*
X148775320Y-81550000D01*
G36*
X148775320Y-81550000D02*
G01*
X148525320Y-81550000D01*
X148525320Y-80900000D01*
X148775320Y-80900000D01*
X148775320Y-81550000D01*
G37*
X149275320Y-81550000D02*
X149025320Y-81550000D01*
X149025320Y-80900000D01*
X149275320Y-80900000D01*
X149275320Y-81550000D01*
G36*
X149275320Y-81550000D02*
G01*
X149025320Y-81550000D01*
X149025320Y-80900000D01*
X149275320Y-80900000D01*
X149275320Y-81550000D01*
G37*
X149775320Y-81550000D02*
X149525320Y-81550000D01*
X149525320Y-80900000D01*
X149775320Y-80900000D01*
X149775320Y-81550000D01*
G36*
X149775320Y-81550000D02*
G01*
X149525320Y-81550000D01*
X149525320Y-80900000D01*
X149775320Y-80900000D01*
X149775320Y-81550000D01*
G37*
X150275320Y-81550000D02*
X150025320Y-81550000D01*
X150025320Y-80900000D01*
X150275320Y-80900000D01*
X150275320Y-81550000D01*
G36*
X150275320Y-81550000D02*
G01*
X150025320Y-81550000D01*
X150025320Y-80900000D01*
X150275320Y-80900000D01*
X150275320Y-81550000D01*
G37*
X150775320Y-81550000D02*
X150525320Y-81550000D01*
X150525320Y-80900000D01*
X150775320Y-80900000D01*
X150775320Y-81550000D01*
G36*
X150775320Y-81550000D02*
G01*
X150525320Y-81550000D01*
X150525320Y-80900000D01*
X150775320Y-80900000D01*
X150775320Y-81550000D01*
G37*
G04 #@! TD*
D11*
G04 #@! TO.C,R1*
X122300000Y-75925000D03*
X122300000Y-74275000D03*
G04 #@! TD*
D12*
G04 #@! TO.C,J1*
X133955320Y-65800000D03*
D13*
X139225320Y-65800000D03*
X145575320Y-65800000D03*
D12*
X150845320Y-65800000D03*
D14*
X134800320Y-68890000D03*
X134800320Y-62710000D03*
X135600320Y-68890000D03*
X135600320Y-62710000D03*
X136400320Y-68890000D03*
X136400320Y-62710000D03*
X137200320Y-68890000D03*
X137200320Y-62710000D03*
X138000320Y-68890000D03*
X138000320Y-62710000D03*
X138800320Y-68890000D03*
X138800320Y-62710000D03*
X139600320Y-68890000D03*
X139600320Y-62710000D03*
X140400320Y-68890000D03*
X140400320Y-62710000D03*
X141200320Y-68890000D03*
X141200320Y-62710000D03*
X142000320Y-68890000D03*
X142000320Y-62710000D03*
X142800320Y-68890000D03*
X142800320Y-62710000D03*
X143600320Y-68890000D03*
X143600320Y-62710000D03*
X144400320Y-68890000D03*
X144400320Y-62710000D03*
X145200320Y-68890000D03*
X145200320Y-62710000D03*
X146000320Y-68890000D03*
X146000320Y-62710000D03*
X146800320Y-68890000D03*
X146800320Y-62710000D03*
X147600320Y-68890000D03*
X147600320Y-62710000D03*
X148400320Y-68890000D03*
X148400320Y-62710000D03*
X149200320Y-68890000D03*
X149200320Y-62710000D03*
X150000320Y-68890000D03*
X150000320Y-62710000D03*
G04 #@! TD*
D15*
G04 #@! TO.C,R3*
X156075000Y-74025000D03*
X157725000Y-74025000D03*
G04 #@! TD*
D16*
G04 #@! TO.C,C3*
X160875000Y-71800000D03*
X159325000Y-71800000D03*
G04 #@! TD*
D17*
G04 #@! TO.C,C1*
X161900000Y-82250000D03*
X161900000Y-83800000D03*
G04 #@! TD*
D18*
G04 #@! TO.C,R2*
X160725000Y-74025000D03*
X159075000Y-74025000D03*
G04 #@! TD*
D19*
G04 #@! TO.C,C5*
X154300000Y-84749999D03*
X154300000Y-82850001D03*
G04 #@! TD*
D20*
G04 #@! TO.C,J2*
X133150320Y-83800000D03*
X151650320Y-83800000D03*
G04 #@! TD*
D21*
G04 #@! TO.C,U1*
X159850000Y-81661048D03*
X159200000Y-81661048D03*
X158550000Y-81661048D03*
X157900000Y-81661048D03*
X157900000Y-77261048D03*
X158550000Y-77261048D03*
X159200000Y-77261048D03*
X159850000Y-77261048D03*
G04 #@! TD*
D22*
G04 #@! TO.C,C4*
X150125000Y-71800000D03*
X151675000Y-71800000D03*
G04 #@! TD*
D23*
G04 #@! TO.C,C2*
X161900000Y-77800000D03*
X161900000Y-76250000D03*
G04 #@! TD*
M02*
