%TF.GenerationSoftware,KiCad,Pcbnew,6.0.0-rc2-unknown-fe148df57e~144~ubuntu20.04.1*%
%TF.CreationDate,2021-12-26T07:15:28-08:00*%
%TF.ProjectId,micromod-pmod-function,6d696372-6f6d-46f6-942d-706d6f642d66,rev?*%
%TF.SameCoordinates,Original*%
%TF.FileFunction,Copper,L2,Bot*%
%TF.FilePolarity,Positive*%
%FSLAX46Y46*%
G04 Gerber Fmt 4.6, Leading zero omitted, Abs format (unit mm)*
G04 Created by KiCad (PCBNEW 6.0.0-rc2-unknown-fe148df57e~144~ubuntu20.04.1) date 2021-12-26 07:15:28*
%MOMM*%
%LPD*%
G01*
G04 APERTURE LIST*
%TA.AperFunction,ComponentPad*%
%ADD10O,1.700000X2.540000*%
%TD*%
%TA.AperFunction,SMDPad,CuDef*%
%ADD11R,0.350000X2.500000*%
%TD*%
%TA.AperFunction,ViaPad*%
%ADD12C,0.400000*%
%TD*%
%TA.AperFunction,Conductor*%
%ADD13C,0.250000*%
%TD*%
%TA.AperFunction,Conductor*%
%ADD14C,1.000000*%
%TD*%
G04 APERTURE END LIST*
D10*
%TO.P,J3,1,D0*%
%TO.N,/CTS*%
X205080000Y-96438500D03*
%TO.P,J3,2,D1*%
%TO.N,/SDO*%
X207620000Y-96438500D03*
%TO.P,J3,3,D2*%
%TO.N,/SDI*%
X210160000Y-96438500D03*
%TO.P,J3,4,D3*%
%TO.N,/SCK*%
X212700000Y-96438500D03*
%TO.P,J3,5,GND1*%
%TO.N,GND*%
X215240000Y-96438500D03*
%TO.P,J3,6,VCC1*%
%TO.N,+3V3*%
X217780000Y-96438500D03*
%TO.P,J3,7,D4*%
%TO.N,/RX*%
X205080000Y-93098500D03*
%TO.P,J3,8,D5*%
%TO.N,/TX*%
X207620000Y-93098500D03*
%TO.P,J3,9,D6*%
%TO.N,SCL*%
X210160000Y-93098500D03*
%TO.P,J3,10,D7*%
%TO.N,SDA*%
X212700000Y-93098500D03*
%TO.P,J3,11,GND2*%
%TO.N,GND*%
X215240000Y-93098500D03*
%TO.P,J3,12,VCC2*%
%TO.N,+3V3*%
X217780000Y-93098500D03*
%TD*%
D11*
%TO.P,J1,2*%
%TO.N,N/C*%
X209000000Y-148750000D03*
%TO.P,J1,4*%
X208500000Y-148750000D03*
%TO.P,J1,6*%
X208000000Y-148750000D03*
%TO.P,J1,8*%
X207500000Y-148750000D03*
%TO.P,J1,10*%
X207000000Y-148750000D03*
%TO.P,J1,12*%
X206500000Y-148750000D03*
%TO.P,J1,14*%
X206000000Y-148750000D03*
%TO.P,J1,16,RTS*%
%TO.N,unconnected-(J1-Pad16)*%
X205500000Y-148750000D03*
%TO.P,J1,18,CTS*%
%TO.N,/CTS*%
X205000000Y-148750000D03*
%TO.P,J1,20*%
%TO.N,N/C*%
X204500000Y-148750000D03*
%TO.P,J1,22*%
X204000000Y-148750000D03*
%TO.P,J1,32,EEPROM_A2*%
%TO.N,/A2*%
X201500000Y-148750000D03*
%TO.P,J1,34,EEPROM_A1*%
%TO.N,/A1*%
X201000000Y-148750000D03*
%TO.P,J1,36,EEPROM_A0*%
%TO.N,/A0*%
X200500000Y-148750000D03*
%TO.P,J1,38,A0*%
%TO.N,unconnected-(J1-Pad38)*%
X200000000Y-148750000D03*
%TO.P,J1,40,EEPROM_WP*%
%TO.N,unconnected-(J1-Pad40)*%
X199500000Y-148750000D03*
%TO.P,J1,42*%
%TO.N,N/C*%
X199000000Y-148750000D03*
%TO.P,J1,44*%
X198500000Y-148750000D03*
%TO.P,J1,46*%
X198000000Y-148750000D03*
%TO.P,J1,48*%
X197500000Y-148750000D03*
%TO.P,J1,50*%
X197000000Y-148750000D03*
%TO.P,J1,52*%
X196500000Y-148750000D03*
%TO.P,J1,54*%
X196000000Y-148750000D03*
%TO.P,J1,56*%
X195500000Y-148750000D03*
%TO.P,J1,58*%
X195000000Y-148750000D03*
%TO.P,J1,60*%
X194500000Y-148750000D03*
%TO.P,J1,62*%
X194000000Y-148750000D03*
%TO.P,J1,64*%
X193500000Y-148750000D03*
%TO.P,J1,66*%
X193000000Y-148750000D03*
%TO.P,J1,68*%
X192500000Y-148750000D03*
%TO.P,J1,70,USB_VIN*%
%TO.N,unconnected-(J1-Pad70)*%
X192000000Y-148750000D03*
%TO.P,J1,72,VCC*%
%TO.N,VCC*%
X191500000Y-148750000D03*
%TO.P,J1,74,VCC*%
X191000000Y-148750000D03*
%TD*%
D10*
%TO.P,J2,1,D0*%
%TO.N,/D0*%
X182220000Y-96438500D03*
%TO.P,J2,2,D1*%
%TO.N,/D1*%
X184760000Y-96438500D03*
%TO.P,J2,3,D2*%
%TO.N,/D2*%
X187300000Y-96438500D03*
%TO.P,J2,4,D3*%
%TO.N,/D3*%
X189840000Y-96438500D03*
%TO.P,J2,5,GND1*%
%TO.N,GND*%
X192380000Y-96438500D03*
%TO.P,J2,6,VCC1*%
%TO.N,+3V3*%
X194920000Y-96438500D03*
%TO.P,J2,7,D4*%
%TO.N,/D4*%
X182220000Y-93098500D03*
%TO.P,J2,8,D5*%
%TO.N,/D5*%
X184760000Y-93098500D03*
%TO.P,J2,9,D6*%
%TO.N,/D6*%
X187300000Y-93098500D03*
%TO.P,J2,10,D7*%
%TO.N,/D7*%
X189840000Y-93098500D03*
%TO.P,J2,11,GND2*%
%TO.N,GND*%
X192380000Y-93098500D03*
%TO.P,J2,12,VCC2*%
%TO.N,+3V3*%
X194920000Y-93098500D03*
%TD*%
D12*
%TO.N,GND*%
X206000000Y-136500000D03*
X191000000Y-140000000D03*
X186000000Y-134000000D03*
X215000000Y-100000000D03*
X186000000Y-142000000D03*
X212000000Y-133500000D03*
X209500000Y-146500000D03*
X193000000Y-101000000D03*
X189500000Y-145500000D03*
X202500000Y-140000000D03*
X199500000Y-147000000D03*
X202500000Y-145000000D03*
%TO.N,VCC*%
X190500000Y-143500000D03*
X191000000Y-144000000D03*
%TO.N,+3V3*%
X204767200Y-132500000D03*
X190500000Y-132500000D03*
%TO.N,/SCK*%
X213000000Y-103500000D03*
X215000000Y-105500000D03*
%TO.N,/SDI*%
X213500000Y-106000000D03*
X210500000Y-106000000D03*
%TO.N,/SDO*%
X208500000Y-134000000D03*
X208500000Y-140000000D03*
X211000000Y-108500000D03*
X208000000Y-108500000D03*
%TO.N,/TX*%
X206000000Y-146000000D03*
X203500000Y-143500000D03*
%TO.N,/RX*%
X205500000Y-146500000D03*
X204000000Y-145000000D03*
%TO.N,/CTS*%
X205000000Y-134000000D03*
X205000000Y-130500000D03*
X204000000Y-146000000D03*
%TO.N,SDA*%
X214000000Y-105500000D03*
X211500000Y-104500000D03*
X213000000Y-139000000D03*
X214000000Y-139000000D03*
%TO.N,SCL*%
X209000000Y-107000000D03*
X212500000Y-107000000D03*
%TO.N,/D0*%
X199500000Y-108000000D03*
X184500000Y-108000000D03*
%TO.N,/D1*%
X185000000Y-109000000D03*
X199000000Y-109000000D03*
%TO.N,/D2*%
X198500000Y-109500000D03*
X187500000Y-109500000D03*
%TO.N,/D3*%
X188000000Y-110000000D03*
X198000000Y-110000000D03*
%TO.N,/D4*%
X196000000Y-107500000D03*
%TO.N,/D5*%
X195500000Y-107000000D03*
%TO.N,/D6*%
X195000000Y-106500000D03*
%TO.N,/D7*%
X194500000Y-106000000D03*
%TO.N,/A2*%
X201000000Y-138000000D03*
%TO.N,/A1*%
X200462835Y-137600142D03*
%TO.N,/A0*%
X200000000Y-136500000D03*
%TD*%
D13*
%TO.N,VCC*%
X191000000Y-148750000D02*
X191000000Y-146500000D01*
D14*
X191500000Y-146000000D02*
X191500000Y-144500000D01*
X191000000Y-144000000D02*
X190500000Y-143500000D01*
X191500000Y-144500000D02*
X191000000Y-144000000D01*
D13*
X191500000Y-148750000D02*
X191500000Y-146000000D01*
X191000000Y-146500000D02*
X191500000Y-146000000D01*
D14*
%TO.N,+3V3*%
X190500000Y-132500000D02*
X204767200Y-132500000D01*
D13*
%TO.N,/SCK*%
X213000000Y-103500000D02*
X215000000Y-105500000D01*
%TO.N,/SDI*%
X210500000Y-106000000D02*
X213500000Y-106000000D01*
%TO.N,/SDO*%
X208500000Y-134000000D02*
X208500000Y-140000000D01*
X208000000Y-108500000D02*
X211000000Y-108500000D01*
%TO.N,/TX*%
X203500000Y-143500000D02*
X206000000Y-146000000D01*
%TO.N,/RX*%
X204000000Y-145000000D02*
X205500000Y-146500000D01*
%TO.N,/CTS*%
X206000000Y-133000000D02*
X206000000Y-131500000D01*
X204000000Y-146000000D02*
X205000000Y-147000000D01*
X205000000Y-147000000D02*
X205000000Y-148750000D01*
X206000000Y-131500000D02*
X205000000Y-130500000D01*
X205000000Y-134000000D02*
X206000000Y-133000000D01*
%TO.N,SDA*%
X214000000Y-139000000D02*
X213000000Y-139000000D01*
X213000000Y-104500000D02*
X214000000Y-105500000D01*
X211500000Y-104500000D02*
X213000000Y-104500000D01*
%TO.N,SCL*%
X212000000Y-107000000D02*
X212500000Y-107000000D01*
X209000000Y-107000000D02*
X212000000Y-107000000D01*
%TO.N,/D0*%
X199500000Y-108000000D02*
X184500000Y-108000000D01*
%TO.N,/D1*%
X199000000Y-109000000D02*
X185000000Y-109000000D01*
%TO.N,/D2*%
X198500000Y-109500000D02*
X187500000Y-109500000D01*
%TO.N,/D3*%
X198000000Y-110000000D02*
X188000000Y-110000000D01*
%TO.N,/D4*%
X196000000Y-107500000D02*
X186000000Y-107500000D01*
X183658480Y-94936980D02*
X182220000Y-93498500D01*
X183658480Y-102658480D02*
X183658480Y-94936980D01*
X184500000Y-106000000D02*
X184500000Y-103500000D01*
X184500000Y-103500000D02*
X183658480Y-102658480D01*
X186000000Y-107500000D02*
X184500000Y-106000000D01*
%TO.N,/D5*%
X187000000Y-107000000D02*
X186000000Y-106000000D01*
X186000000Y-106000000D02*
X186000000Y-94738500D01*
X195500000Y-107000000D02*
X187000000Y-107000000D01*
X186000000Y-94738500D02*
X184760000Y-93498500D01*
%TO.N,/D6*%
X188401520Y-94600020D02*
X187300000Y-93498500D01*
X190000000Y-106500000D02*
X188401520Y-104901520D01*
X195000000Y-106500000D02*
X190000000Y-106500000D01*
X188401520Y-104901520D02*
X188401520Y-94600020D01*
%TO.N,/D7*%
X191278480Y-94936980D02*
X189840000Y-93498500D01*
X192000000Y-106000000D02*
X191278480Y-105278480D01*
X191278480Y-105278480D02*
X191278480Y-94936980D01*
X194500000Y-106000000D02*
X192000000Y-106000000D01*
%TO.N,/A2*%
X201000000Y-138000000D02*
X201500000Y-138500000D01*
X201500000Y-138500000D02*
X201500000Y-148750000D01*
%TO.N,/A1*%
X201000000Y-148750000D02*
X201000000Y-146967534D01*
X201000000Y-146967534D02*
X200462835Y-146430369D01*
X200462835Y-146430369D02*
X200462835Y-137600142D01*
%TO.N,/A0*%
X200500000Y-147000000D02*
X200000000Y-146500000D01*
X200500000Y-148750000D02*
X200500000Y-147000000D01*
X199500000Y-137500000D02*
X199500000Y-137000000D01*
X199500000Y-137000000D02*
X200000000Y-136500000D01*
X200000000Y-146500000D02*
X200000000Y-138000000D01*
X200000000Y-138000000D02*
X199500000Y-137500000D01*
%TD*%
%TA.AperFunction,Conductor*%
%TO.N,GND*%
G36*
X217987153Y-85256421D02*
G01*
X218000000Y-85258976D01*
X218012172Y-85256555D01*
X218019754Y-85256555D01*
X218032104Y-85257162D01*
X218133188Y-85267118D01*
X218157408Y-85271935D01*
X218273617Y-85307187D01*
X218296418Y-85316631D01*
X218403517Y-85373876D01*
X218424047Y-85387594D01*
X218517909Y-85464626D01*
X218535374Y-85482091D01*
X218612406Y-85575953D01*
X218626124Y-85596483D01*
X218683369Y-85703582D01*
X218692813Y-85726383D01*
X218728065Y-85842592D01*
X218732882Y-85866812D01*
X218742838Y-85967896D01*
X218743445Y-85980246D01*
X218743445Y-85987828D01*
X218741024Y-86000000D01*
X218743445Y-86012170D01*
X218743579Y-86012844D01*
X218746000Y-86037425D01*
X218746000Y-91778211D01*
X218725998Y-91846332D01*
X218672342Y-91892825D01*
X218602068Y-91902929D01*
X218537419Y-91873376D01*
X218428835Y-91779150D01*
X218428830Y-91779146D01*
X218424304Y-91775219D01*
X218241874Y-91669681D01*
X218042778Y-91600543D01*
X218036845Y-91599683D01*
X218036842Y-91599682D01*
X217840140Y-91571162D01*
X217840137Y-91571162D01*
X217834200Y-91570301D01*
X217623667Y-91580045D01*
X217617843Y-91581449D01*
X217617840Y-91581449D01*
X217424607Y-91628018D01*
X217424605Y-91628019D01*
X217418774Y-91629424D01*
X217413316Y-91631906D01*
X217413312Y-91631907D01*
X217298706Y-91684016D01*
X217226916Y-91716657D01*
X217055014Y-91838596D01*
X216909272Y-91990840D01*
X216906021Y-91995875D01*
X216811766Y-92141851D01*
X216794948Y-92167897D01*
X216716166Y-92363378D01*
X216675771Y-92570229D01*
X216675500Y-92575770D01*
X216675500Y-93571159D01*
X216690493Y-93728306D01*
X216749823Y-93930542D01*
X216770394Y-93970483D01*
X216803180Y-94034140D01*
X216846324Y-94117910D01*
X216850028Y-94122625D01*
X216972808Y-94278932D01*
X216972812Y-94278936D01*
X216976514Y-94283649D01*
X216981044Y-94287580D01*
X216981045Y-94287581D01*
X217131165Y-94417850D01*
X217131170Y-94417854D01*
X217135696Y-94421781D01*
X217318126Y-94527319D01*
X217517222Y-94596457D01*
X217523155Y-94597317D01*
X217523158Y-94597318D01*
X217719860Y-94625838D01*
X217719863Y-94625838D01*
X217725800Y-94626699D01*
X217936333Y-94616955D01*
X217942157Y-94615551D01*
X217942160Y-94615551D01*
X218135393Y-94568982D01*
X218135395Y-94568981D01*
X218141226Y-94567576D01*
X218146684Y-94565094D01*
X218146688Y-94565093D01*
X218270191Y-94508939D01*
X218333084Y-94480343D01*
X218466179Y-94385932D01*
X218500100Y-94361870D01*
X218500101Y-94361869D01*
X218504986Y-94358404D01*
X218528982Y-94333337D01*
X218590536Y-94297961D01*
X218661446Y-94301479D01*
X218719196Y-94342776D01*
X218745453Y-94408739D01*
X218746000Y-94420468D01*
X218746000Y-95118211D01*
X218725998Y-95186332D01*
X218672342Y-95232825D01*
X218602068Y-95242929D01*
X218537419Y-95213376D01*
X218428835Y-95119150D01*
X218428830Y-95119146D01*
X218424304Y-95115219D01*
X218241874Y-95009681D01*
X218042778Y-94940543D01*
X218036845Y-94939683D01*
X218036842Y-94939682D01*
X217840140Y-94911162D01*
X217840137Y-94911162D01*
X217834200Y-94910301D01*
X217623667Y-94920045D01*
X217617843Y-94921449D01*
X217617840Y-94921449D01*
X217424607Y-94968018D01*
X217424605Y-94968019D01*
X217418774Y-94969424D01*
X217413316Y-94971906D01*
X217413312Y-94971907D01*
X217298706Y-95024016D01*
X217226916Y-95056657D01*
X217055014Y-95178596D01*
X216909272Y-95330840D01*
X216906021Y-95335875D01*
X216811766Y-95481851D01*
X216794948Y-95507897D01*
X216716166Y-95703378D01*
X216675771Y-95910229D01*
X216675500Y-95915770D01*
X216675500Y-96911159D01*
X216690493Y-97068306D01*
X216749823Y-97270542D01*
X216752573Y-97275881D01*
X216803180Y-97374140D01*
X216846324Y-97457910D01*
X216850028Y-97462625D01*
X216972808Y-97618932D01*
X216972812Y-97618936D01*
X216976514Y-97623649D01*
X216981044Y-97627580D01*
X216981045Y-97627581D01*
X217131165Y-97757850D01*
X217131170Y-97757854D01*
X217135696Y-97761781D01*
X217318126Y-97867319D01*
X217517222Y-97936457D01*
X217523155Y-97937317D01*
X217523158Y-97937318D01*
X217719860Y-97965838D01*
X217719863Y-97965838D01*
X217725800Y-97966699D01*
X217936333Y-97956955D01*
X217942157Y-97955551D01*
X217942160Y-97955551D01*
X218135393Y-97908982D01*
X218135395Y-97908981D01*
X218141226Y-97907576D01*
X218146684Y-97905094D01*
X218146688Y-97905093D01*
X218321438Y-97825638D01*
X218333084Y-97820343D01*
X218504986Y-97698404D01*
X218528982Y-97673337D01*
X218590536Y-97637961D01*
X218661446Y-97641479D01*
X218719196Y-97682776D01*
X218745453Y-97748739D01*
X218746000Y-97760468D01*
X218746000Y-104260956D01*
X218725998Y-104329077D01*
X218672342Y-104375570D01*
X218648038Y-104383797D01*
X218515708Y-104414001D01*
X218511108Y-104415051D01*
X218506720Y-104416773D01*
X218506714Y-104416775D01*
X218284736Y-104503895D01*
X218284733Y-104503896D01*
X218280344Y-104505619D01*
X218178435Y-104564456D01*
X218069736Y-104627213D01*
X218069732Y-104627216D01*
X218065656Y-104629569D01*
X218061979Y-104632501D01*
X218061975Y-104632504D01*
X217934168Y-104734427D01*
X217871840Y-104784132D01*
X217868639Y-104787582D01*
X217710549Y-104957963D01*
X217703225Y-104965856D01*
X217700575Y-104969742D01*
X217700574Y-104969744D01*
X217664980Y-105021951D01*
X217563577Y-105170681D01*
X217561532Y-105174928D01*
X217561530Y-105174931D01*
X217460272Y-105385195D01*
X217456017Y-105394031D01*
X217382948Y-105630918D01*
X217382247Y-105635568D01*
X217382246Y-105635573D01*
X217380207Y-105649100D01*
X217346000Y-105876050D01*
X217346000Y-106123950D01*
X217363891Y-106242645D01*
X217378912Y-106342303D01*
X217382948Y-106369082D01*
X217456017Y-106605969D01*
X217458062Y-106610216D01*
X217458063Y-106610218D01*
X217518943Y-106736635D01*
X217563577Y-106829319D01*
X217566232Y-106833213D01*
X217690585Y-107015604D01*
X217703225Y-107034144D01*
X217706424Y-107037591D01*
X217706425Y-107037593D01*
X217790858Y-107128590D01*
X217871840Y-107215868D01*
X217875518Y-107218801D01*
X217875520Y-107218803D01*
X218061975Y-107367496D01*
X218061979Y-107367499D01*
X218065656Y-107370431D01*
X218069732Y-107372784D01*
X218069736Y-107372787D01*
X218158042Y-107423770D01*
X218280344Y-107494381D01*
X218284733Y-107496104D01*
X218284736Y-107496105D01*
X218506714Y-107583225D01*
X218506720Y-107583227D01*
X218511108Y-107584949D01*
X218515707Y-107585999D01*
X218515708Y-107585999D01*
X218648038Y-107616203D01*
X218710000Y-107650862D01*
X218743387Y-107713519D01*
X218746000Y-107739044D01*
X218746000Y-144962575D01*
X218743579Y-144987153D01*
X218741024Y-145000000D01*
X218743445Y-145012172D01*
X218743445Y-145019754D01*
X218742838Y-145032104D01*
X218732882Y-145133188D01*
X218728065Y-145157408D01*
X218692813Y-145273617D01*
X218683369Y-145296418D01*
X218626124Y-145403517D01*
X218612406Y-145424047D01*
X218535374Y-145517909D01*
X218517909Y-145535374D01*
X218424047Y-145612406D01*
X218403517Y-145626124D01*
X218296418Y-145683369D01*
X218273617Y-145692813D01*
X218157408Y-145728065D01*
X218133188Y-145732882D01*
X218032104Y-145742838D01*
X218019754Y-145743445D01*
X218012172Y-145743445D01*
X218000000Y-145741024D01*
X217987153Y-145743579D01*
X217962575Y-145746000D01*
X210962424Y-145746000D01*
X210937846Y-145743579D01*
X210924999Y-145741024D01*
X210915865Y-145742841D01*
X210908191Y-145743445D01*
X210908190Y-145743445D01*
X210896666Y-145744352D01*
X210728224Y-145757609D01*
X210536294Y-145803688D01*
X210423967Y-145850216D01*
X210358503Y-145877332D01*
X210358500Y-145877333D01*
X210353936Y-145879224D01*
X210349718Y-145881809D01*
X210189864Y-145979766D01*
X210189861Y-145979768D01*
X210185638Y-145982356D01*
X210181874Y-145985571D01*
X210181871Y-145985573D01*
X210039303Y-146107339D01*
X210035547Y-146110547D01*
X210032339Y-146114303D01*
X209917567Y-146248683D01*
X209907356Y-146260638D01*
X209904768Y-146264861D01*
X209904766Y-146264864D01*
X209863867Y-146331606D01*
X209804224Y-146428936D01*
X209802333Y-146433500D01*
X209802332Y-146433503D01*
X209778012Y-146492217D01*
X209728688Y-146611294D01*
X209682609Y-146803224D01*
X209667841Y-146990865D01*
X209666024Y-146999999D01*
X209668445Y-147012169D01*
X209668579Y-147012843D01*
X209671000Y-147037424D01*
X209671000Y-147409741D01*
X209650998Y-147477862D01*
X209597342Y-147524355D01*
X209527068Y-147534459D01*
X209462488Y-147504965D01*
X209424104Y-147445239D01*
X209421421Y-147434320D01*
X209417156Y-147412874D01*
X209417155Y-147412872D01*
X209414734Y-147400699D01*
X209358484Y-147316516D01*
X209274301Y-147260266D01*
X209200067Y-147245500D01*
X209000097Y-147245500D01*
X208799934Y-147245501D01*
X208793867Y-147246708D01*
X208793863Y-147246708D01*
X208774578Y-147250544D01*
X208725421Y-147250543D01*
X208700067Y-147245500D01*
X208500081Y-147245500D01*
X208299934Y-147245501D01*
X208293867Y-147246708D01*
X208293863Y-147246708D01*
X208274578Y-147250544D01*
X208225421Y-147250543D01*
X208200067Y-147245500D01*
X208000081Y-147245500D01*
X207799934Y-147245501D01*
X207793867Y-147246708D01*
X207793863Y-147246708D01*
X207774578Y-147250544D01*
X207725421Y-147250543D01*
X207700067Y-147245500D01*
X207500081Y-147245500D01*
X207299934Y-147245501D01*
X207293867Y-147246708D01*
X207293863Y-147246708D01*
X207274578Y-147250544D01*
X207225421Y-147250543D01*
X207200067Y-147245500D01*
X207000081Y-147245500D01*
X206799934Y-147245501D01*
X206793867Y-147246708D01*
X206793863Y-147246708D01*
X206774578Y-147250544D01*
X206725421Y-147250543D01*
X206700067Y-147245500D01*
X206500081Y-147245500D01*
X206299934Y-147245501D01*
X206293867Y-147246708D01*
X206293863Y-147246708D01*
X206274578Y-147250544D01*
X206225421Y-147250543D01*
X206200067Y-147245500D01*
X206000081Y-147245500D01*
X205799934Y-147245501D01*
X205793867Y-147246708D01*
X205793863Y-147246708D01*
X205774578Y-147250544D01*
X205725421Y-147250543D01*
X205700067Y-147245500D01*
X205685061Y-147245500D01*
X205505500Y-147245501D01*
X205437380Y-147225499D01*
X205390887Y-147171844D01*
X205379500Y-147119501D01*
X205379500Y-147080735D01*
X205399502Y-147012614D01*
X205453158Y-146966121D01*
X205507809Y-146954756D01*
X205519580Y-146954972D01*
X205556755Y-146955653D01*
X205641360Y-146932587D01*
X205673701Y-146923770D01*
X205673703Y-146923769D01*
X205682360Y-146921409D01*
X205793306Y-146853288D01*
X205834157Y-146808156D01*
X205874644Y-146763427D01*
X205874645Y-146763426D01*
X205880672Y-146756767D01*
X205893706Y-146729866D01*
X205933522Y-146647685D01*
X205933522Y-146647684D01*
X205937437Y-146639604D01*
X205946532Y-146585545D01*
X205951147Y-146558117D01*
X205982174Y-146494259D01*
X206042800Y-146457313D01*
X206051770Y-146455562D01*
X206056755Y-146455653D01*
X206065411Y-146453293D01*
X206065412Y-146453293D01*
X206173701Y-146423770D01*
X206173703Y-146423769D01*
X206182360Y-146421409D01*
X206250251Y-146379724D01*
X206285658Y-146357984D01*
X206285659Y-146357984D01*
X206293306Y-146353288D01*
X206303249Y-146342303D01*
X206374644Y-146263427D01*
X206374645Y-146263426D01*
X206380672Y-146256767D01*
X206385332Y-146247150D01*
X206433522Y-146147685D01*
X206433522Y-146147684D01*
X206437437Y-146139604D01*
X206459037Y-146011219D01*
X206459174Y-146000000D01*
X206440718Y-145871125D01*
X206386832Y-145752610D01*
X206301850Y-145653983D01*
X206192601Y-145583172D01*
X206119322Y-145561257D01*
X206066329Y-145529635D01*
X203975234Y-143438540D01*
X203943393Y-143384807D01*
X203941990Y-143380010D01*
X203940718Y-143371125D01*
X203911466Y-143306789D01*
X203890548Y-143260782D01*
X203890547Y-143260780D01*
X203886832Y-143252610D01*
X203801850Y-143153983D01*
X203692601Y-143083172D01*
X203567870Y-143045870D01*
X203558894Y-143045815D01*
X203558893Y-143045815D01*
X203505678Y-143045490D01*
X203437683Y-143045074D01*
X203312505Y-143080850D01*
X203202400Y-143150321D01*
X203116219Y-143247903D01*
X203060890Y-143365751D01*
X203059509Y-143374620D01*
X203042979Y-143480783D01*
X203040860Y-143494390D01*
X203057741Y-143623481D01*
X203110174Y-143742645D01*
X203193946Y-143842303D01*
X203201414Y-143847274D01*
X203201415Y-143847275D01*
X203294850Y-143909472D01*
X203294853Y-143909473D01*
X203302320Y-143914444D01*
X203382428Y-143939471D01*
X203433949Y-143970643D01*
X203844131Y-144380825D01*
X203878157Y-144443137D01*
X203873092Y-144513952D01*
X203830545Y-144570788D01*
X203814312Y-144580334D01*
X203812505Y-144580850D01*
X203702400Y-144650321D01*
X203616219Y-144747903D01*
X203560890Y-144865751D01*
X203559509Y-144874620D01*
X203543882Y-144974983D01*
X203540860Y-144994390D01*
X203542024Y-145003292D01*
X203542024Y-145003295D01*
X203556577Y-145114582D01*
X203557741Y-145123481D01*
X203610174Y-145242645D01*
X203693946Y-145342303D01*
X203701414Y-145347274D01*
X203701415Y-145347275D01*
X203773795Y-145395456D01*
X203819417Y-145449854D01*
X203828387Y-145520282D01*
X203797858Y-145584379D01*
X203771213Y-145606903D01*
X203702400Y-145650321D01*
X203616219Y-145747903D01*
X203612404Y-145756028D01*
X203612403Y-145756030D01*
X203610172Y-145760782D01*
X203560890Y-145865751D01*
X203559509Y-145874620D01*
X203542734Y-145982356D01*
X203540860Y-145994390D01*
X203542024Y-146003292D01*
X203542024Y-146003295D01*
X203556541Y-146114303D01*
X203557741Y-146123481D01*
X203610174Y-146242645D01*
X203693946Y-146342303D01*
X203701414Y-146347274D01*
X203701415Y-146347275D01*
X203794850Y-146409472D01*
X203794853Y-146409473D01*
X203802320Y-146414444D01*
X203835206Y-146424718D01*
X203882428Y-146439471D01*
X203933949Y-146470643D01*
X204493712Y-147030406D01*
X204527738Y-147092718D01*
X204522673Y-147163533D01*
X204480126Y-147220369D01*
X204413606Y-147245180D01*
X204404626Y-147245501D01*
X204299934Y-147245501D01*
X204293867Y-147246708D01*
X204293863Y-147246708D01*
X204274578Y-147250544D01*
X204225421Y-147250543D01*
X204200067Y-147245500D01*
X204000017Y-147245500D01*
X203799934Y-147245501D01*
X203764182Y-147252612D01*
X203737874Y-147257844D01*
X203737872Y-147257845D01*
X203725699Y-147260266D01*
X203715379Y-147267162D01*
X203700001Y-147277437D01*
X203632248Y-147298651D01*
X203563782Y-147279868D01*
X203516339Y-147227050D01*
X203504000Y-147172671D01*
X203504000Y-147137425D01*
X203506421Y-147112844D01*
X203506555Y-147112170D01*
X203508976Y-147100000D01*
X203507304Y-147091595D01*
X203491643Y-146932587D01*
X203489847Y-146926667D01*
X203489846Y-146926661D01*
X203444606Y-146777525D01*
X203442811Y-146771607D01*
X203363511Y-146623247D01*
X203256791Y-146493209D01*
X203126753Y-146386489D01*
X203119663Y-146382699D01*
X203053389Y-146347275D01*
X202978393Y-146307189D01*
X202938546Y-146295102D01*
X202823339Y-146260154D01*
X202823333Y-146260153D01*
X202817413Y-146258357D01*
X202650000Y-146241868D01*
X202482587Y-146258357D01*
X202476667Y-146260153D01*
X202476661Y-146260154D01*
X202361454Y-146295102D01*
X202321607Y-146307189D01*
X202246611Y-146347275D01*
X202180338Y-146382699D01*
X202173247Y-146386489D01*
X202085434Y-146458556D01*
X202020087Y-146486310D01*
X201950109Y-146474329D01*
X201897717Y-146426416D01*
X201879500Y-146361157D01*
X201879500Y-139994390D01*
X208040860Y-139994390D01*
X208042024Y-140003292D01*
X208042024Y-140003295D01*
X208056577Y-140114582D01*
X208057741Y-140123481D01*
X208110174Y-140242645D01*
X208193946Y-140342303D01*
X208201414Y-140347274D01*
X208201415Y-140347275D01*
X208294850Y-140409472D01*
X208294853Y-140409473D01*
X208302320Y-140414444D01*
X208310887Y-140417120D01*
X208310888Y-140417121D01*
X208332171Y-140423770D01*
X208426587Y-140453267D01*
X208435560Y-140453431D01*
X208435563Y-140453432D01*
X208492790Y-140454481D01*
X208556755Y-140455653D01*
X208608917Y-140441432D01*
X208673701Y-140423770D01*
X208673703Y-140423769D01*
X208682360Y-140421409D01*
X208793306Y-140353288D01*
X208880672Y-140256767D01*
X208937437Y-140139604D01*
X208959037Y-140011219D01*
X208959174Y-140000000D01*
X208940718Y-139871125D01*
X208937003Y-139862955D01*
X208937001Y-139862947D01*
X208890800Y-139761335D01*
X208879500Y-139709183D01*
X208879500Y-138994390D01*
X212540860Y-138994390D01*
X212542024Y-139003292D01*
X212542024Y-139003295D01*
X212556577Y-139114582D01*
X212557741Y-139123481D01*
X212610174Y-139242645D01*
X212693946Y-139342303D01*
X212701414Y-139347274D01*
X212701415Y-139347275D01*
X212794850Y-139409472D01*
X212794853Y-139409473D01*
X212802320Y-139414444D01*
X212810887Y-139417120D01*
X212810888Y-139417121D01*
X212832171Y-139423770D01*
X212926587Y-139453267D01*
X212935560Y-139453431D01*
X212935563Y-139453432D01*
X212992790Y-139454481D01*
X213056755Y-139455653D01*
X213096590Y-139444793D01*
X213173698Y-139423771D01*
X213173701Y-139423770D01*
X213182360Y-139421409D01*
X213190010Y-139416712D01*
X213190012Y-139416711D01*
X213220282Y-139398125D01*
X213286210Y-139379500D01*
X213711723Y-139379500D01*
X213781542Y-139400613D01*
X213802320Y-139414444D01*
X213926587Y-139453267D01*
X213935560Y-139453431D01*
X213935563Y-139453432D01*
X213992790Y-139454481D01*
X214056755Y-139455653D01*
X214108917Y-139441432D01*
X214173701Y-139423770D01*
X214173703Y-139423769D01*
X214182360Y-139421409D01*
X214293306Y-139353288D01*
X214380672Y-139256767D01*
X214437437Y-139139604D01*
X214459037Y-139011219D01*
X214459174Y-139000000D01*
X214440718Y-138871125D01*
X214386832Y-138752610D01*
X214301850Y-138653983D01*
X214192601Y-138583172D01*
X214067870Y-138545870D01*
X214058894Y-138545815D01*
X214058893Y-138545815D01*
X214005678Y-138545490D01*
X213937683Y-138545074D01*
X213812505Y-138580850D01*
X213780469Y-138601063D01*
X213713236Y-138620500D01*
X213287454Y-138620500D01*
X213218922Y-138600232D01*
X213200133Y-138588054D01*
X213192601Y-138583172D01*
X213067870Y-138545870D01*
X213058894Y-138545815D01*
X213058893Y-138545815D01*
X213005678Y-138545490D01*
X212937683Y-138545074D01*
X212812505Y-138580850D01*
X212804918Y-138585637D01*
X212804916Y-138585638D01*
X212801087Y-138588054D01*
X212702400Y-138650321D01*
X212616219Y-138747903D01*
X212560890Y-138865751D01*
X212540860Y-138994390D01*
X208879500Y-138994390D01*
X208879500Y-134288101D01*
X208892108Y-134233163D01*
X208933522Y-134147684D01*
X208937437Y-134139604D01*
X208959037Y-134011219D01*
X208959174Y-134000000D01*
X208940718Y-133871125D01*
X208886832Y-133752610D01*
X208801850Y-133653983D01*
X208692601Y-133583172D01*
X208567870Y-133545870D01*
X208558894Y-133545815D01*
X208558893Y-133545815D01*
X208505678Y-133545490D01*
X208437683Y-133545074D01*
X208312505Y-133580850D01*
X208304918Y-133585637D01*
X208304916Y-133585638D01*
X208301087Y-133588054D01*
X208202400Y-133650321D01*
X208116219Y-133747903D01*
X208060890Y-133865751D01*
X208040860Y-133994390D01*
X208042024Y-134003292D01*
X208042024Y-134003295D01*
X208049782Y-134062618D01*
X208057741Y-134123481D01*
X208105391Y-134231776D01*
X208109829Y-134241861D01*
X208120500Y-134292607D01*
X208120500Y-139710679D01*
X208108555Y-139764227D01*
X208060890Y-139865751D01*
X208040860Y-139994390D01*
X201879500Y-139994390D01*
X201879500Y-138553920D01*
X201882049Y-138529972D01*
X201882128Y-138528307D01*
X201884320Y-138518124D01*
X201880373Y-138484777D01*
X201880023Y-138478846D01*
X201879928Y-138478854D01*
X201879500Y-138473676D01*
X201879500Y-138468476D01*
X201878646Y-138463344D01*
X201876331Y-138449435D01*
X201875494Y-138443557D01*
X201870694Y-138402999D01*
X201870694Y-138402998D01*
X201869470Y-138392659D01*
X201865507Y-138384407D01*
X201864004Y-138375374D01*
X201839665Y-138330266D01*
X201836969Y-138324975D01*
X201818213Y-138285913D01*
X201818209Y-138285907D01*
X201814781Y-138278768D01*
X201811187Y-138274492D01*
X201809248Y-138272553D01*
X201807492Y-138270638D01*
X201807445Y-138270552D01*
X201807567Y-138270439D01*
X201807095Y-138269904D01*
X201804010Y-138264186D01*
X201764425Y-138227594D01*
X201760860Y-138224165D01*
X201475233Y-137938538D01*
X201443391Y-137884803D01*
X201441991Y-137880016D01*
X201440718Y-137871125D01*
X201397397Y-137775846D01*
X201390548Y-137760782D01*
X201390547Y-137760780D01*
X201386832Y-137752610D01*
X201301850Y-137653983D01*
X201192601Y-137583172D01*
X201067870Y-137545870D01*
X201058894Y-137545815D01*
X201058893Y-137545815D01*
X201046692Y-137545741D01*
X201017615Y-137545563D01*
X200949619Y-137525145D01*
X200903562Y-137471331D01*
X200903553Y-137471267D01*
X200849667Y-137352752D01*
X200764685Y-137254125D01*
X200655436Y-137183314D01*
X200530705Y-137146012D01*
X200521729Y-137145957D01*
X200521728Y-137145957D01*
X200468513Y-137145632D01*
X200400518Y-137145216D01*
X200275340Y-137180992D01*
X200165235Y-137250463D01*
X200159293Y-137257191D01*
X200159292Y-137257192D01*
X200099942Y-137324394D01*
X200039856Y-137362213D01*
X199968863Y-137361543D01*
X199909501Y-137322597D01*
X199880619Y-137257741D01*
X199879500Y-137240987D01*
X199879500Y-137209384D01*
X199899502Y-137141263D01*
X199916405Y-137120289D01*
X200066479Y-136970215D01*
X200122433Y-136937747D01*
X200173700Y-136923770D01*
X200182360Y-136921409D01*
X200293306Y-136853288D01*
X200299330Y-136846633D01*
X200374644Y-136763427D01*
X200374645Y-136763426D01*
X200380672Y-136756767D01*
X200387924Y-136741800D01*
X200433522Y-136647685D01*
X200433522Y-136647684D01*
X200437437Y-136639604D01*
X200459037Y-136511219D01*
X200459174Y-136500000D01*
X200440718Y-136371125D01*
X200386832Y-136252610D01*
X200301850Y-136153983D01*
X200192601Y-136083172D01*
X200067870Y-136045870D01*
X200058894Y-136045815D01*
X200058893Y-136045815D01*
X200005678Y-136045490D01*
X199937683Y-136045074D01*
X199812505Y-136080850D01*
X199702400Y-136150321D01*
X199616219Y-136247903D01*
X199560890Y-136365751D01*
X199559509Y-136374621D01*
X199556884Y-136383206D01*
X199553970Y-136382315D01*
X199530212Y-136432775D01*
X199525051Y-136438254D01*
X199269782Y-136693524D01*
X199251039Y-136708661D01*
X199249810Y-136709779D01*
X199241060Y-136715429D01*
X199234613Y-136723607D01*
X199234611Y-136723609D01*
X199220271Y-136741800D01*
X199216325Y-136746241D01*
X199216398Y-136746303D01*
X199213039Y-136750267D01*
X199209362Y-136753944D01*
X199198108Y-136769692D01*
X199194602Y-136774362D01*
X199162844Y-136814647D01*
X199159812Y-136823281D01*
X199154486Y-136830734D01*
X199151501Y-136840715D01*
X199139799Y-136879844D01*
X199137964Y-136885492D01*
X199120982Y-136933851D01*
X199120500Y-136939416D01*
X199120500Y-136942124D01*
X199120386Y-136944758D01*
X199120357Y-136944856D01*
X199120193Y-136944849D01*
X199120149Y-136945553D01*
X199118287Y-136951778D01*
X199120403Y-137005635D01*
X199120500Y-137010582D01*
X199120500Y-137446080D01*
X199117951Y-137470028D01*
X199117872Y-137471693D01*
X199115680Y-137481876D01*
X199116904Y-137492217D01*
X199119627Y-137515223D01*
X199119977Y-137521154D01*
X199120072Y-137521146D01*
X199120500Y-137526324D01*
X199120500Y-137531524D01*
X199121354Y-137536653D01*
X199121354Y-137536656D01*
X199123669Y-137550565D01*
X199124506Y-137556443D01*
X199127670Y-137583172D01*
X199130530Y-137607341D01*
X199134493Y-137615593D01*
X199135996Y-137624626D01*
X199140943Y-137633795D01*
X199140944Y-137633797D01*
X199160334Y-137669732D01*
X199163031Y-137675025D01*
X199181785Y-137714082D01*
X199181788Y-137714086D01*
X199185219Y-137721232D01*
X199188814Y-137725508D01*
X199190737Y-137727431D01*
X199192509Y-137729363D01*
X199192552Y-137729442D01*
X199192428Y-137729555D01*
X199192904Y-137730095D01*
X199195990Y-137735814D01*
X199203635Y-137742881D01*
X199235586Y-137772416D01*
X199239152Y-137775846D01*
X199583595Y-138120289D01*
X199617621Y-138182601D01*
X199620500Y-138209384D01*
X199620500Y-146446080D01*
X199617951Y-146470028D01*
X199617872Y-146471693D01*
X199615680Y-146481876D01*
X199616904Y-146492217D01*
X199619627Y-146515223D01*
X199619977Y-146521154D01*
X199620072Y-146521146D01*
X199620500Y-146526324D01*
X199620500Y-146531524D01*
X199621354Y-146536653D01*
X199621354Y-146536656D01*
X199623669Y-146550565D01*
X199624506Y-146556443D01*
X199630530Y-146607341D01*
X199634493Y-146615593D01*
X199635996Y-146624626D01*
X199640943Y-146633795D01*
X199640944Y-146633797D01*
X199660334Y-146669732D01*
X199663031Y-146675025D01*
X199681785Y-146714082D01*
X199681788Y-146714086D01*
X199685219Y-146721232D01*
X199688814Y-146725508D01*
X199690737Y-146727431D01*
X199692509Y-146729363D01*
X199692552Y-146729442D01*
X199692428Y-146729555D01*
X199692904Y-146730095D01*
X199695990Y-146735814D01*
X199703635Y-146742881D01*
X199735586Y-146772416D01*
X199739152Y-146775846D01*
X199993712Y-147030406D01*
X200027738Y-147092718D01*
X200022673Y-147163533D01*
X199980126Y-147220369D01*
X199913606Y-147245180D01*
X199904626Y-147245501D01*
X199799934Y-147245501D01*
X199793867Y-147246708D01*
X199793863Y-147246708D01*
X199774578Y-147250544D01*
X199725421Y-147250543D01*
X199700067Y-147245500D01*
X199500081Y-147245500D01*
X199299934Y-147245501D01*
X199293867Y-147246708D01*
X199293863Y-147246708D01*
X199274578Y-147250544D01*
X199225421Y-147250543D01*
X199200067Y-147245500D01*
X199000081Y-147245500D01*
X198799934Y-147245501D01*
X198793867Y-147246708D01*
X198793863Y-147246708D01*
X198774578Y-147250544D01*
X198725421Y-147250543D01*
X198700067Y-147245500D01*
X198500081Y-147245500D01*
X198299934Y-147245501D01*
X198293867Y-147246708D01*
X198293863Y-147246708D01*
X198274578Y-147250544D01*
X198225421Y-147250543D01*
X198200067Y-147245500D01*
X198000081Y-147245500D01*
X197799934Y-147245501D01*
X197793867Y-147246708D01*
X197793863Y-147246708D01*
X197774578Y-147250544D01*
X197725421Y-147250543D01*
X197700067Y-147245500D01*
X197500081Y-147245500D01*
X197299934Y-147245501D01*
X197293867Y-147246708D01*
X197293863Y-147246708D01*
X197274578Y-147250544D01*
X197225421Y-147250543D01*
X197200067Y-147245500D01*
X197000081Y-147245500D01*
X196799934Y-147245501D01*
X196793867Y-147246708D01*
X196793863Y-147246708D01*
X196774578Y-147250544D01*
X196725421Y-147250543D01*
X196700067Y-147245500D01*
X196500081Y-147245500D01*
X196299934Y-147245501D01*
X196293867Y-147246708D01*
X196293863Y-147246708D01*
X196274578Y-147250544D01*
X196225421Y-147250543D01*
X196200067Y-147245500D01*
X196000081Y-147245500D01*
X195799934Y-147245501D01*
X195793867Y-147246708D01*
X195793863Y-147246708D01*
X195774578Y-147250544D01*
X195725421Y-147250543D01*
X195700067Y-147245500D01*
X195500081Y-147245500D01*
X195299934Y-147245501D01*
X195293867Y-147246708D01*
X195293863Y-147246708D01*
X195274578Y-147250544D01*
X195225421Y-147250543D01*
X195200067Y-147245500D01*
X195000081Y-147245500D01*
X194799934Y-147245501D01*
X194793867Y-147246708D01*
X194793863Y-147246708D01*
X194774578Y-147250544D01*
X194725421Y-147250543D01*
X194700067Y-147245500D01*
X194500081Y-147245500D01*
X194299934Y-147245501D01*
X194293867Y-147246708D01*
X194293863Y-147246708D01*
X194274578Y-147250544D01*
X194225421Y-147250543D01*
X194200067Y-147245500D01*
X194000081Y-147245500D01*
X193799934Y-147245501D01*
X193793867Y-147246708D01*
X193793863Y-147246708D01*
X193774578Y-147250544D01*
X193725421Y-147250543D01*
X193700067Y-147245500D01*
X193500081Y-147245500D01*
X193299934Y-147245501D01*
X193293867Y-147246708D01*
X193293863Y-147246708D01*
X193274578Y-147250544D01*
X193225421Y-147250543D01*
X193200067Y-147245500D01*
X193000081Y-147245500D01*
X192799934Y-147245501D01*
X192793867Y-147246708D01*
X192793863Y-147246708D01*
X192774578Y-147250544D01*
X192725421Y-147250543D01*
X192700067Y-147245500D01*
X192500081Y-147245500D01*
X192299934Y-147245501D01*
X192293867Y-147246708D01*
X192293863Y-147246708D01*
X192274578Y-147250544D01*
X192225421Y-147250543D01*
X192200067Y-147245500D01*
X192185061Y-147245500D01*
X192005500Y-147245501D01*
X191937380Y-147225499D01*
X191890887Y-147171844D01*
X191879500Y-147119501D01*
X191879500Y-146721255D01*
X191899502Y-146653134D01*
X191930819Y-146619773D01*
X192012168Y-146559908D01*
X192012173Y-146559904D01*
X192018071Y-146555563D01*
X192131982Y-146421480D01*
X192162475Y-146361764D01*
X192208666Y-146271305D01*
X192208668Y-146271300D01*
X192211993Y-146264788D01*
X192213931Y-146256871D01*
X192244560Y-146131696D01*
X192253811Y-146093892D01*
X192254500Y-146082786D01*
X192254500Y-144566765D01*
X192255933Y-144547815D01*
X192258074Y-144533745D01*
X192258074Y-144533741D01*
X192259174Y-144526511D01*
X192258153Y-144513952D01*
X192254915Y-144474152D01*
X192254500Y-144463937D01*
X192254500Y-144455947D01*
X192253655Y-144448698D01*
X192251229Y-144427887D01*
X192250796Y-144423513D01*
X192245504Y-144358451D01*
X192245503Y-144358448D01*
X192244910Y-144351153D01*
X192242655Y-144344193D01*
X192241481Y-144338316D01*
X192240109Y-144332513D01*
X192239262Y-144325246D01*
X192214476Y-144256963D01*
X192213073Y-144252876D01*
X192190689Y-144183778D01*
X192186890Y-144177517D01*
X192184395Y-144172068D01*
X192181728Y-144166742D01*
X192179232Y-144159866D01*
X192139421Y-144099145D01*
X192137074Y-144095424D01*
X192102332Y-144038170D01*
X192102329Y-144038166D01*
X192099417Y-144033367D01*
X192092051Y-144025027D01*
X192092077Y-144025004D01*
X192089377Y-144021961D01*
X192086782Y-144018857D01*
X192082766Y-144012732D01*
X192026854Y-143959766D01*
X192024413Y-143957389D01*
X191002362Y-142935338D01*
X190899167Y-142853693D01*
X190892538Y-142850595D01*
X190892535Y-142850593D01*
X190812745Y-142813302D01*
X190739778Y-142779199D01*
X190567527Y-142743372D01*
X190391654Y-142748131D01*
X190221592Y-142793221D01*
X190066466Y-142876226D01*
X189934595Y-142992690D01*
X189833053Y-143136369D01*
X189830318Y-143143156D01*
X189830316Y-143143159D01*
X189827922Y-143149100D01*
X189767287Y-143299552D01*
X189766186Y-143306789D01*
X189741926Y-143466255D01*
X189741926Y-143466259D01*
X189740826Y-143473489D01*
X189741419Y-143480780D01*
X189741419Y-143480783D01*
X189753695Y-143631696D01*
X189755090Y-143648847D01*
X189809312Y-143816222D01*
X189900583Y-143966633D01*
X189907949Y-143974974D01*
X189909332Y-143976357D01*
X190407943Y-144474967D01*
X190407949Y-144474974D01*
X190708595Y-144775619D01*
X190742620Y-144837932D01*
X190745500Y-144864715D01*
X190745500Y-146044053D01*
X190752878Y-146107339D01*
X190756305Y-146136732D01*
X190744326Y-146206711D01*
X190730103Y-146229328D01*
X190720271Y-146241800D01*
X190716325Y-146246241D01*
X190716398Y-146246303D01*
X190713039Y-146250267D01*
X190709362Y-146253944D01*
X190698108Y-146269692D01*
X190694602Y-146274362D01*
X190662844Y-146314647D01*
X190659812Y-146323281D01*
X190654486Y-146330734D01*
X190645388Y-146361157D01*
X190639799Y-146379844D01*
X190637964Y-146385492D01*
X190620982Y-146433851D01*
X190620500Y-146439416D01*
X190620500Y-146442124D01*
X190620386Y-146444758D01*
X190620357Y-146444856D01*
X190620193Y-146444849D01*
X190620149Y-146445553D01*
X190618287Y-146451778D01*
X190618696Y-146462183D01*
X190620403Y-146505635D01*
X190620500Y-146510582D01*
X190620500Y-147309746D01*
X190599265Y-147379748D01*
X190585266Y-147400699D01*
X190578579Y-147434317D01*
X190545672Y-147497227D01*
X190483977Y-147532359D01*
X190413082Y-147528559D01*
X190355496Y-147487033D01*
X190329502Y-147420967D01*
X190329000Y-147409736D01*
X190329000Y-147037424D01*
X190331421Y-147012843D01*
X190331555Y-147012169D01*
X190333976Y-146999999D01*
X190332159Y-146990865D01*
X190317391Y-146803224D01*
X190271312Y-146611294D01*
X190221988Y-146492217D01*
X190197668Y-146433503D01*
X190197667Y-146433500D01*
X190195776Y-146428936D01*
X190136133Y-146331606D01*
X190095234Y-146264864D01*
X190095232Y-146264861D01*
X190092644Y-146260638D01*
X190082434Y-146248683D01*
X189967661Y-146114303D01*
X189964453Y-146110547D01*
X189960697Y-146107339D01*
X189818129Y-145985573D01*
X189818126Y-145985571D01*
X189814362Y-145982356D01*
X189810139Y-145979768D01*
X189810136Y-145979766D01*
X189650282Y-145881809D01*
X189646064Y-145879224D01*
X189641500Y-145877333D01*
X189641497Y-145877332D01*
X189576033Y-145850216D01*
X189463706Y-145803688D01*
X189271776Y-145757609D01*
X189103334Y-145744352D01*
X189091810Y-145743445D01*
X189091809Y-145743445D01*
X189084135Y-145742841D01*
X189075001Y-145741024D01*
X189062154Y-145743579D01*
X189037576Y-145746000D01*
X182037425Y-145746000D01*
X182012847Y-145743579D01*
X182000000Y-145741024D01*
X181987828Y-145743445D01*
X181980246Y-145743445D01*
X181967896Y-145742838D01*
X181866812Y-145732882D01*
X181842592Y-145728065D01*
X181726383Y-145692813D01*
X181703582Y-145683369D01*
X181596483Y-145626124D01*
X181575953Y-145612406D01*
X181482091Y-145535374D01*
X181464626Y-145517909D01*
X181387594Y-145424047D01*
X181373876Y-145403517D01*
X181316631Y-145296418D01*
X181307187Y-145273617D01*
X181271935Y-145157408D01*
X181267118Y-145133188D01*
X181257162Y-145032104D01*
X181256555Y-145019754D01*
X181256555Y-145012172D01*
X181258976Y-145000000D01*
X181256421Y-144987153D01*
X181254000Y-144962575D01*
X181254000Y-132541080D01*
X189741476Y-132541080D01*
X189771271Y-132714477D01*
X189840156Y-132876368D01*
X189944437Y-133018071D01*
X190078520Y-133131982D01*
X190122034Y-133154201D01*
X190228695Y-133208666D01*
X190228700Y-133208668D01*
X190235212Y-133211993D01*
X190242318Y-133213732D01*
X190242321Y-133213733D01*
X190310247Y-133230354D01*
X190406108Y-133253811D01*
X190411710Y-133254159D01*
X190411713Y-133254159D01*
X190415275Y-133254380D01*
X190415284Y-133254380D01*
X190417214Y-133254500D01*
X204811253Y-133254500D01*
X204901382Y-133243992D01*
X204971359Y-133255970D01*
X205023753Y-133303881D01*
X205041927Y-133372512D01*
X205020111Y-133440074D01*
X205005067Y-133458239D01*
X204933531Y-133529775D01*
X204879061Y-133561828D01*
X204812505Y-133580850D01*
X204702400Y-133650321D01*
X204616219Y-133747903D01*
X204560890Y-133865751D01*
X204540860Y-133994390D01*
X204542024Y-134003292D01*
X204542024Y-134003295D01*
X204549782Y-134062618D01*
X204557741Y-134123481D01*
X204610174Y-134242645D01*
X204693946Y-134342303D01*
X204701414Y-134347274D01*
X204701415Y-134347275D01*
X204794850Y-134409472D01*
X204794853Y-134409473D01*
X204802320Y-134414444D01*
X204810887Y-134417120D01*
X204810888Y-134417121D01*
X204832171Y-134423770D01*
X204926587Y-134453267D01*
X204935560Y-134453431D01*
X204935563Y-134453432D01*
X204992790Y-134454481D01*
X205056755Y-134455653D01*
X205108917Y-134441432D01*
X205173701Y-134423770D01*
X205173703Y-134423769D01*
X205182360Y-134421409D01*
X205293306Y-134353288D01*
X205309467Y-134335434D01*
X205374644Y-134263427D01*
X205374645Y-134263426D01*
X205380672Y-134256767D01*
X205433523Y-134147684D01*
X205433523Y-134147682D01*
X205437437Y-134139604D01*
X205438926Y-134130753D01*
X205441656Y-134122199D01*
X205443115Y-134122665D01*
X205474076Y-134062618D01*
X206230216Y-133306478D01*
X206248964Y-133291336D01*
X206250189Y-133290221D01*
X206258940Y-133284571D01*
X206265387Y-133276393D01*
X206265389Y-133276391D01*
X206279729Y-133258200D01*
X206283676Y-133253758D01*
X206283603Y-133253696D01*
X206286961Y-133249733D01*
X206290638Y-133246056D01*
X206295493Y-133239262D01*
X206301859Y-133230354D01*
X206305422Y-133225608D01*
X206330707Y-133193533D01*
X206337156Y-133185353D01*
X206340189Y-133176717D01*
X206345514Y-133169265D01*
X206360204Y-133120145D01*
X206362039Y-133114498D01*
X206376391Y-133073630D01*
X206376391Y-133073628D01*
X206379018Y-133066149D01*
X206379500Y-133060584D01*
X206379500Y-133057877D01*
X206379614Y-133055245D01*
X206379644Y-133055144D01*
X206379807Y-133055151D01*
X206379851Y-133054451D01*
X206381714Y-133048222D01*
X206379597Y-132994350D01*
X206379500Y-132989402D01*
X206379500Y-131553925D01*
X206382050Y-131529967D01*
X206382128Y-131528308D01*
X206384321Y-131518124D01*
X206383097Y-131507782D01*
X206383097Y-131507779D01*
X206380374Y-131484779D01*
X206380024Y-131478848D01*
X206379928Y-131478856D01*
X206379500Y-131473680D01*
X206379500Y-131468476D01*
X206376327Y-131449412D01*
X206375496Y-131443566D01*
X206370694Y-131403001D01*
X206369470Y-131392659D01*
X206365507Y-131384407D01*
X206364004Y-131375374D01*
X206339656Y-131330248D01*
X206336982Y-131325002D01*
X206314781Y-131278769D01*
X206311187Y-131274493D01*
X206309247Y-131272553D01*
X206307493Y-131270641D01*
X206307445Y-131270552D01*
X206307568Y-131270440D01*
X206307095Y-131269904D01*
X206304010Y-131264186D01*
X206264413Y-131227583D01*
X206260848Y-131224154D01*
X205475234Y-130438540D01*
X205443393Y-130384807D01*
X205441990Y-130380010D01*
X205440718Y-130371125D01*
X205386832Y-130252610D01*
X205301850Y-130153983D01*
X205192601Y-130083172D01*
X205067870Y-130045870D01*
X205058894Y-130045815D01*
X205058893Y-130045815D01*
X205005678Y-130045490D01*
X204937683Y-130045074D01*
X204812505Y-130080850D01*
X204702400Y-130150321D01*
X204616219Y-130247903D01*
X204560890Y-130365751D01*
X204540860Y-130494390D01*
X204557741Y-130623481D01*
X204610174Y-130742645D01*
X204693946Y-130842303D01*
X204701414Y-130847274D01*
X204701415Y-130847275D01*
X204794850Y-130909472D01*
X204794853Y-130909473D01*
X204802320Y-130914444D01*
X204882428Y-130939471D01*
X204933949Y-130970643D01*
X205583595Y-131620289D01*
X205617621Y-131682601D01*
X205620500Y-131709384D01*
X205620500Y-132002714D01*
X205600498Y-132070835D01*
X205546842Y-132117328D01*
X205476568Y-132127432D01*
X205411988Y-132097938D01*
X205393018Y-132077396D01*
X205327104Y-131987828D01*
X205322763Y-131981929D01*
X205188680Y-131868018D01*
X205096147Y-131820768D01*
X205038505Y-131791334D01*
X205038500Y-131791332D01*
X205031988Y-131788007D01*
X205024882Y-131786268D01*
X205024879Y-131786267D01*
X204930753Y-131763235D01*
X204861092Y-131746189D01*
X204855490Y-131745841D01*
X204855487Y-131745841D01*
X204851925Y-131745620D01*
X204851916Y-131745620D01*
X204849986Y-131745500D01*
X190455947Y-131745500D01*
X190364050Y-131756214D01*
X190332518Y-131759890D01*
X190332516Y-131759890D01*
X190325246Y-131760738D01*
X190318369Y-131763234D01*
X190318366Y-131763235D01*
X190250121Y-131788007D01*
X190159866Y-131820768D01*
X190153749Y-131824778D01*
X190153746Y-131824780D01*
X190092874Y-131864690D01*
X190012732Y-131917234D01*
X189891736Y-132044960D01*
X189803368Y-132197096D01*
X189752370Y-132365480D01*
X189741476Y-132541080D01*
X181254000Y-132541080D01*
X181254000Y-107739044D01*
X181274002Y-107670923D01*
X181327658Y-107624430D01*
X181351962Y-107616203D01*
X181484292Y-107585999D01*
X181484293Y-107585999D01*
X181488892Y-107584949D01*
X181493280Y-107583227D01*
X181493286Y-107583225D01*
X181715264Y-107496105D01*
X181715267Y-107496104D01*
X181719656Y-107494381D01*
X181841958Y-107423770D01*
X181930264Y-107372787D01*
X181930268Y-107372784D01*
X181934344Y-107370431D01*
X181938021Y-107367499D01*
X181938025Y-107367496D01*
X182124480Y-107218803D01*
X182124482Y-107218801D01*
X182128160Y-107215868D01*
X182209142Y-107128590D01*
X182293575Y-107037593D01*
X182293576Y-107037591D01*
X182296775Y-107034144D01*
X182309416Y-107015604D01*
X182433768Y-106833213D01*
X182436423Y-106829319D01*
X182481058Y-106736635D01*
X182541937Y-106610218D01*
X182541938Y-106610216D01*
X182543983Y-106605969D01*
X182617052Y-106369082D01*
X182621089Y-106342303D01*
X182636109Y-106242645D01*
X182654000Y-106123950D01*
X182654000Y-105876050D01*
X182619793Y-105649100D01*
X182617754Y-105635573D01*
X182617753Y-105635568D01*
X182617052Y-105630918D01*
X182543983Y-105394031D01*
X182539728Y-105385195D01*
X182438470Y-105174931D01*
X182438468Y-105174928D01*
X182436423Y-105170681D01*
X182335020Y-105021951D01*
X182299426Y-104969744D01*
X182299425Y-104969742D01*
X182296775Y-104965856D01*
X182289452Y-104957963D01*
X182131361Y-104787582D01*
X182128160Y-104784132D01*
X182065832Y-104734427D01*
X181938025Y-104632504D01*
X181938021Y-104632501D01*
X181934344Y-104629569D01*
X181930268Y-104627216D01*
X181930264Y-104627213D01*
X181821565Y-104564456D01*
X181719656Y-104505619D01*
X181715267Y-104503896D01*
X181715264Y-104503895D01*
X181493286Y-104416775D01*
X181493280Y-104416773D01*
X181488892Y-104415051D01*
X181484292Y-104414001D01*
X181351962Y-104383797D01*
X181290000Y-104349138D01*
X181256613Y-104286481D01*
X181254000Y-104260956D01*
X181254000Y-97758789D01*
X181274002Y-97690668D01*
X181327658Y-97644175D01*
X181397932Y-97634071D01*
X181462581Y-97663624D01*
X181571165Y-97757850D01*
X181571170Y-97757854D01*
X181575696Y-97761781D01*
X181758126Y-97867319D01*
X181957222Y-97936457D01*
X181963155Y-97937317D01*
X181963158Y-97937318D01*
X182159860Y-97965838D01*
X182159863Y-97965838D01*
X182165800Y-97966699D01*
X182376333Y-97956955D01*
X182382157Y-97955551D01*
X182382160Y-97955551D01*
X182575393Y-97908982D01*
X182575395Y-97908981D01*
X182581226Y-97907576D01*
X182586684Y-97905094D01*
X182586688Y-97905093D01*
X182761438Y-97825638D01*
X182773084Y-97820343D01*
X182944986Y-97698404D01*
X183061963Y-97576209D01*
X183123517Y-97540833D01*
X183194427Y-97544352D01*
X183252177Y-97585648D01*
X183278433Y-97651612D01*
X183278980Y-97663340D01*
X183278980Y-102604560D01*
X183276431Y-102628508D01*
X183276352Y-102630173D01*
X183274160Y-102640356D01*
X183275384Y-102650697D01*
X183278107Y-102673703D01*
X183278457Y-102679634D01*
X183278552Y-102679626D01*
X183278980Y-102684804D01*
X183278980Y-102690004D01*
X183279834Y-102695133D01*
X183279834Y-102695136D01*
X183282149Y-102709045D01*
X183282986Y-102714923D01*
X183289010Y-102765821D01*
X183292973Y-102774073D01*
X183294476Y-102783106D01*
X183299423Y-102792275D01*
X183299424Y-102792277D01*
X183318814Y-102828212D01*
X183321511Y-102833505D01*
X183340265Y-102872562D01*
X183340268Y-102872566D01*
X183343699Y-102879712D01*
X183347294Y-102883988D01*
X183349217Y-102885911D01*
X183350989Y-102887843D01*
X183351032Y-102887922D01*
X183350908Y-102888035D01*
X183351384Y-102888575D01*
X183354470Y-102894294D01*
X183362115Y-102901361D01*
X183394066Y-102930896D01*
X183397632Y-102934326D01*
X184083595Y-103620289D01*
X184117621Y-103682601D01*
X184120500Y-103709384D01*
X184120500Y-105946080D01*
X184117951Y-105970028D01*
X184117872Y-105971693D01*
X184115680Y-105981876D01*
X184116904Y-105992217D01*
X184119627Y-106015223D01*
X184119977Y-106021154D01*
X184120072Y-106021146D01*
X184120500Y-106026324D01*
X184120500Y-106031524D01*
X184121354Y-106036653D01*
X184121354Y-106036656D01*
X184123669Y-106050565D01*
X184124506Y-106056443D01*
X184127720Y-106083595D01*
X184130530Y-106107341D01*
X184134493Y-106115593D01*
X184135996Y-106124626D01*
X184140943Y-106133795D01*
X184140944Y-106133797D01*
X184160334Y-106169732D01*
X184163031Y-106175025D01*
X184181785Y-106214082D01*
X184181788Y-106214086D01*
X184185219Y-106221232D01*
X184188814Y-106225508D01*
X184190737Y-106227431D01*
X184192509Y-106229363D01*
X184192552Y-106229442D01*
X184192428Y-106229555D01*
X184192904Y-106230095D01*
X184195990Y-106235814D01*
X184203635Y-106242881D01*
X184235586Y-106272416D01*
X184239152Y-106275846D01*
X185368711Y-107405405D01*
X185402737Y-107467717D01*
X185397672Y-107538532D01*
X185355125Y-107595368D01*
X185288605Y-107620179D01*
X185279616Y-107620500D01*
X184787454Y-107620500D01*
X184718922Y-107600232D01*
X184700133Y-107588054D01*
X184692601Y-107583172D01*
X184567870Y-107545870D01*
X184558894Y-107545815D01*
X184558893Y-107545815D01*
X184505678Y-107545490D01*
X184437683Y-107545074D01*
X184312505Y-107580850D01*
X184304918Y-107585637D01*
X184304916Y-107585638D01*
X184280471Y-107601062D01*
X184202400Y-107650321D01*
X184116219Y-107747903D01*
X184060890Y-107865751D01*
X184040860Y-107994390D01*
X184042024Y-108003292D01*
X184042024Y-108003295D01*
X184054809Y-108101062D01*
X184057741Y-108123481D01*
X184110174Y-108242645D01*
X184193946Y-108342303D01*
X184201414Y-108347274D01*
X184201415Y-108347275D01*
X184294850Y-108409472D01*
X184294853Y-108409473D01*
X184302320Y-108414444D01*
X184310887Y-108417120D01*
X184310888Y-108417121D01*
X184332171Y-108423770D01*
X184426587Y-108453267D01*
X184435560Y-108453431D01*
X184435563Y-108453432D01*
X184492790Y-108454481D01*
X184556755Y-108455653D01*
X184565417Y-108453292D01*
X184565421Y-108453291D01*
X184568564Y-108452434D01*
X184571794Y-108452497D01*
X184574322Y-108452182D01*
X184574367Y-108452547D01*
X184639547Y-108453816D01*
X184698515Y-108493355D01*
X184726745Y-108558498D01*
X184715275Y-108628562D01*
X184696144Y-108657405D01*
X184680248Y-108675404D01*
X184622161Y-108741174D01*
X184622159Y-108741178D01*
X184616219Y-108747903D01*
X184612404Y-108756028D01*
X184612403Y-108756030D01*
X184571899Y-108842303D01*
X184560890Y-108865751D01*
X184559509Y-108874620D01*
X184546892Y-108955653D01*
X184540860Y-108994390D01*
X184542024Y-109003292D01*
X184542024Y-109003295D01*
X184556577Y-109114582D01*
X184557741Y-109123481D01*
X184610174Y-109242645D01*
X184693946Y-109342303D01*
X184701414Y-109347274D01*
X184701415Y-109347275D01*
X184794850Y-109409472D01*
X184794853Y-109409473D01*
X184802320Y-109414444D01*
X184810887Y-109417120D01*
X184810888Y-109417121D01*
X184832171Y-109423770D01*
X184926587Y-109453267D01*
X184935560Y-109453431D01*
X184935563Y-109453432D01*
X184992790Y-109454481D01*
X185056755Y-109455653D01*
X185096590Y-109444793D01*
X185173698Y-109423771D01*
X185173701Y-109423770D01*
X185182360Y-109421409D01*
X185190010Y-109416712D01*
X185190012Y-109416711D01*
X185220282Y-109398125D01*
X185286210Y-109379500D01*
X186915988Y-109379500D01*
X186984109Y-109399502D01*
X187030602Y-109453158D01*
X187039349Y-109494588D01*
X187040860Y-109494390D01*
X187057741Y-109623481D01*
X187110174Y-109742645D01*
X187193946Y-109842303D01*
X187201414Y-109847274D01*
X187201415Y-109847275D01*
X187294850Y-109909472D01*
X187294853Y-109909473D01*
X187302320Y-109914444D01*
X187310887Y-109917120D01*
X187310888Y-109917121D01*
X187324614Y-109921409D01*
X187426587Y-109953267D01*
X187435563Y-109953432D01*
X187444424Y-109954867D01*
X187443835Y-109958502D01*
X187494912Y-109974509D01*
X187540427Y-110028997D01*
X187549821Y-110062918D01*
X187557741Y-110123481D01*
X187610174Y-110242645D01*
X187693946Y-110342303D01*
X187701414Y-110347274D01*
X187701415Y-110347275D01*
X187794850Y-110409472D01*
X187794853Y-110409473D01*
X187802320Y-110414444D01*
X187810887Y-110417120D01*
X187810888Y-110417121D01*
X187832171Y-110423770D01*
X187926587Y-110453267D01*
X187935560Y-110453431D01*
X187935563Y-110453432D01*
X187992790Y-110454481D01*
X188056755Y-110455653D01*
X188096590Y-110444793D01*
X188173698Y-110423771D01*
X188173701Y-110423770D01*
X188182360Y-110421409D01*
X188190010Y-110416712D01*
X188190012Y-110416711D01*
X188220282Y-110398125D01*
X188286210Y-110379500D01*
X197711723Y-110379500D01*
X197781542Y-110400613D01*
X197802320Y-110414444D01*
X197926587Y-110453267D01*
X197935560Y-110453431D01*
X197935563Y-110453432D01*
X197992790Y-110454481D01*
X198056755Y-110455653D01*
X198108917Y-110441432D01*
X198173701Y-110423770D01*
X198173703Y-110423769D01*
X198182360Y-110421409D01*
X198293306Y-110353288D01*
X198380672Y-110256767D01*
X198437437Y-110139604D01*
X198451147Y-110058117D01*
X198482174Y-109994259D01*
X198542800Y-109957313D01*
X198551770Y-109955562D01*
X198556755Y-109955653D01*
X198565411Y-109953293D01*
X198565412Y-109953293D01*
X198673701Y-109923770D01*
X198673703Y-109923769D01*
X198682360Y-109921409D01*
X198793306Y-109853288D01*
X198880672Y-109756767D01*
X198937437Y-109639604D01*
X198951147Y-109558117D01*
X198982174Y-109494259D01*
X199042800Y-109457313D01*
X199051770Y-109455562D01*
X199056755Y-109455653D01*
X199065411Y-109453293D01*
X199065412Y-109453293D01*
X199173701Y-109423770D01*
X199173703Y-109423769D01*
X199182360Y-109421409D01*
X199293306Y-109353288D01*
X199380672Y-109256767D01*
X199437437Y-109139604D01*
X199459037Y-109011219D01*
X199459174Y-109000000D01*
X199440718Y-108871125D01*
X199413775Y-108811868D01*
X199390548Y-108760782D01*
X199390547Y-108760780D01*
X199386832Y-108752610D01*
X199304995Y-108657633D01*
X199275681Y-108592971D01*
X199285980Y-108522725D01*
X199310671Y-108494390D01*
X207540860Y-108494390D01*
X207542024Y-108503292D01*
X207542024Y-108503295D01*
X207547592Y-108545870D01*
X207557741Y-108623481D01*
X207610174Y-108742645D01*
X207693946Y-108842303D01*
X207701414Y-108847274D01*
X207701415Y-108847275D01*
X207794850Y-108909472D01*
X207794853Y-108909473D01*
X207802320Y-108914444D01*
X207810887Y-108917120D01*
X207810888Y-108917121D01*
X207832171Y-108923770D01*
X207926587Y-108953267D01*
X207935560Y-108953431D01*
X207935563Y-108953432D01*
X207992790Y-108954481D01*
X208056755Y-108955653D01*
X208096590Y-108944793D01*
X208173698Y-108923771D01*
X208173701Y-108923770D01*
X208182360Y-108921409D01*
X208190010Y-108916712D01*
X208190012Y-108916711D01*
X208220282Y-108898125D01*
X208286210Y-108879500D01*
X210711723Y-108879500D01*
X210781542Y-108900613D01*
X210802320Y-108914444D01*
X210926587Y-108953267D01*
X210935560Y-108953431D01*
X210935563Y-108953432D01*
X210992790Y-108954481D01*
X211056755Y-108955653D01*
X211108917Y-108941432D01*
X211173701Y-108923770D01*
X211173703Y-108923769D01*
X211182360Y-108921409D01*
X211293306Y-108853288D01*
X211380672Y-108756767D01*
X211430471Y-108653983D01*
X211433522Y-108647685D01*
X211433522Y-108647684D01*
X211437437Y-108639604D01*
X211459037Y-108511219D01*
X211459174Y-108500000D01*
X211440718Y-108371125D01*
X211413775Y-108311867D01*
X211390548Y-108260782D01*
X211390547Y-108260780D01*
X211386832Y-108252610D01*
X211301850Y-108153983D01*
X211192601Y-108083172D01*
X211067870Y-108045870D01*
X211058894Y-108045815D01*
X211058893Y-108045815D01*
X211005678Y-108045490D01*
X210937683Y-108045074D01*
X210812505Y-108080850D01*
X210780469Y-108101063D01*
X210713236Y-108120500D01*
X208287454Y-108120500D01*
X208218922Y-108100232D01*
X208200133Y-108088054D01*
X208192601Y-108083172D01*
X208067870Y-108045870D01*
X208058894Y-108045815D01*
X208058893Y-108045815D01*
X208005678Y-108045490D01*
X207937683Y-108045074D01*
X207812505Y-108080850D01*
X207702400Y-108150321D01*
X207616219Y-108247903D01*
X207612404Y-108256028D01*
X207612403Y-108256030D01*
X207571899Y-108342303D01*
X207560890Y-108365751D01*
X207559509Y-108374620D01*
X207546892Y-108455653D01*
X207540860Y-108494390D01*
X199310671Y-108494390D01*
X199332622Y-108469199D01*
X199400798Y-108449386D01*
X199418912Y-108450869D01*
X199426587Y-108453267D01*
X199435560Y-108453431D01*
X199435563Y-108453432D01*
X199492790Y-108454481D01*
X199556755Y-108455653D01*
X199608917Y-108441432D01*
X199673701Y-108423770D01*
X199673703Y-108423769D01*
X199682360Y-108421409D01*
X199793306Y-108353288D01*
X199880672Y-108256767D01*
X199888227Y-108241175D01*
X199933522Y-108147685D01*
X199933522Y-108147684D01*
X199937437Y-108139604D01*
X199959037Y-108011219D01*
X199959174Y-108000000D01*
X199940718Y-107871125D01*
X199886832Y-107752610D01*
X199844341Y-107703296D01*
X199807713Y-107660787D01*
X199807712Y-107660786D01*
X199801850Y-107653983D01*
X199692601Y-107583172D01*
X199567870Y-107545870D01*
X199558894Y-107545815D01*
X199558893Y-107545815D01*
X199505678Y-107545490D01*
X199437683Y-107545074D01*
X199312505Y-107580850D01*
X199280469Y-107601063D01*
X199213236Y-107620500D01*
X196584706Y-107620500D01*
X196516585Y-107600498D01*
X196470092Y-107546842D01*
X196459133Y-107503329D01*
X196459174Y-107500000D01*
X196458370Y-107494381D01*
X196441991Y-107380015D01*
X196440718Y-107371125D01*
X196408786Y-107300894D01*
X196390548Y-107260782D01*
X196390547Y-107260780D01*
X196386832Y-107252610D01*
X196301850Y-107153983D01*
X196192601Y-107083172D01*
X196067870Y-107045870D01*
X196058893Y-107045815D01*
X196056497Y-107045457D01*
X195992081Y-107015604D01*
X195978614Y-106994390D01*
X208540860Y-106994390D01*
X208542024Y-107003292D01*
X208542024Y-107003295D01*
X208556577Y-107114582D01*
X208557741Y-107123481D01*
X208610174Y-107242645D01*
X208693946Y-107342303D01*
X208701414Y-107347274D01*
X208701415Y-107347275D01*
X208794850Y-107409472D01*
X208794853Y-107409473D01*
X208802320Y-107414444D01*
X208810887Y-107417120D01*
X208810888Y-107417121D01*
X208857757Y-107431763D01*
X208926587Y-107453267D01*
X208935560Y-107453431D01*
X208935563Y-107453432D01*
X208992790Y-107454481D01*
X209056755Y-107455653D01*
X209096590Y-107444793D01*
X209173698Y-107423771D01*
X209173701Y-107423770D01*
X209182360Y-107421409D01*
X209190010Y-107416712D01*
X209190012Y-107416711D01*
X209220282Y-107398125D01*
X209286210Y-107379500D01*
X212211723Y-107379500D01*
X212281542Y-107400613D01*
X212302320Y-107414444D01*
X212426587Y-107453267D01*
X212435560Y-107453431D01*
X212435563Y-107453432D01*
X212492790Y-107454481D01*
X212556755Y-107455653D01*
X212608917Y-107441432D01*
X212673701Y-107423770D01*
X212673703Y-107423769D01*
X212682360Y-107421409D01*
X212793306Y-107353288D01*
X212809467Y-107335434D01*
X212874644Y-107263427D01*
X212874645Y-107263426D01*
X212880672Y-107256767D01*
X212899066Y-107218803D01*
X212933522Y-107147685D01*
X212933522Y-107147684D01*
X212937437Y-107139604D01*
X212959037Y-107011219D01*
X212959174Y-107000000D01*
X212940718Y-106871125D01*
X212886832Y-106752610D01*
X212801850Y-106653983D01*
X212735894Y-106611233D01*
X212689610Y-106557397D01*
X212679779Y-106487084D01*
X212709523Y-106422619D01*
X212769397Y-106384467D01*
X212804426Y-106379500D01*
X213211723Y-106379500D01*
X213281542Y-106400613D01*
X213302320Y-106414444D01*
X213426587Y-106453267D01*
X213435560Y-106453431D01*
X213435563Y-106453432D01*
X213492790Y-106454481D01*
X213556755Y-106455653D01*
X213618923Y-106438704D01*
X213673701Y-106423770D01*
X213673703Y-106423769D01*
X213682360Y-106421409D01*
X213793306Y-106353288D01*
X213865002Y-106274079D01*
X213874644Y-106263427D01*
X213874645Y-106263426D01*
X213880672Y-106256767D01*
X213894118Y-106229016D01*
X213933522Y-106147685D01*
X213933522Y-106147684D01*
X213937437Y-106139604D01*
X213951147Y-106058117D01*
X213982174Y-105994259D01*
X214042800Y-105957313D01*
X214051770Y-105955562D01*
X214056755Y-105955653D01*
X214065411Y-105953293D01*
X214065412Y-105953293D01*
X214173701Y-105923770D01*
X214173703Y-105923769D01*
X214182360Y-105921409D01*
X214293306Y-105853288D01*
X214325791Y-105817399D01*
X214374644Y-105763427D01*
X214374645Y-105763426D01*
X214380672Y-105756767D01*
X214386003Y-105745764D01*
X214388166Y-105743379D01*
X214389605Y-105741246D01*
X214389913Y-105741454D01*
X214433702Y-105693182D01*
X214502260Y-105674734D01*
X214569908Y-105696279D01*
X214606367Y-105734120D01*
X214606558Y-105734427D01*
X214610174Y-105742645D01*
X214693946Y-105842303D01*
X214701414Y-105847274D01*
X214701415Y-105847275D01*
X214794850Y-105909472D01*
X214794853Y-105909473D01*
X214802320Y-105914444D01*
X214810887Y-105917120D01*
X214810888Y-105917121D01*
X214832171Y-105923770D01*
X214926587Y-105953267D01*
X214935560Y-105953431D01*
X214935563Y-105953432D01*
X214992790Y-105954481D01*
X215056755Y-105955653D01*
X215118923Y-105938704D01*
X215173701Y-105923770D01*
X215173703Y-105923769D01*
X215182360Y-105921409D01*
X215293306Y-105853288D01*
X215325791Y-105817399D01*
X215374644Y-105763427D01*
X215374645Y-105763426D01*
X215380672Y-105756767D01*
X215387159Y-105743379D01*
X215433522Y-105647685D01*
X215433522Y-105647684D01*
X215437437Y-105639604D01*
X215459037Y-105511219D01*
X215459174Y-105500000D01*
X215440718Y-105371125D01*
X215386832Y-105252610D01*
X215321998Y-105177366D01*
X215307713Y-105160787D01*
X215307712Y-105160786D01*
X215301850Y-105153983D01*
X215192601Y-105083172D01*
X215119322Y-105061257D01*
X215066329Y-105029635D01*
X213475234Y-103438540D01*
X213443393Y-103384807D01*
X213441990Y-103380010D01*
X213440718Y-103371125D01*
X213434580Y-103357625D01*
X213390548Y-103260782D01*
X213390547Y-103260780D01*
X213386832Y-103252610D01*
X213301850Y-103153983D01*
X213192601Y-103083172D01*
X213067870Y-103045870D01*
X213058894Y-103045815D01*
X213058893Y-103045815D01*
X213005678Y-103045490D01*
X212937683Y-103045074D01*
X212812505Y-103080850D01*
X212702400Y-103150321D01*
X212616219Y-103247903D01*
X212612404Y-103256028D01*
X212612403Y-103256030D01*
X212601728Y-103278768D01*
X212560890Y-103365751D01*
X212559509Y-103374620D01*
X212542357Y-103484777D01*
X212540860Y-103494390D01*
X212542024Y-103503292D01*
X212542024Y-103503295D01*
X212556577Y-103614582D01*
X212557741Y-103623481D01*
X212610174Y-103742645D01*
X212693946Y-103842303D01*
X212701417Y-103847276D01*
X212701418Y-103847277D01*
X212765017Y-103889613D01*
X212810640Y-103944011D01*
X212819610Y-104014438D01*
X212789081Y-104078536D01*
X212728744Y-104115952D01*
X212695198Y-104120500D01*
X211787454Y-104120500D01*
X211718922Y-104100232D01*
X211700133Y-104088054D01*
X211692601Y-104083172D01*
X211567870Y-104045870D01*
X211558894Y-104045815D01*
X211558893Y-104045815D01*
X211505678Y-104045490D01*
X211437683Y-104045074D01*
X211312505Y-104080850D01*
X211202400Y-104150321D01*
X211116219Y-104247903D01*
X211112404Y-104256028D01*
X211112403Y-104256030D01*
X211098107Y-104286481D01*
X211060890Y-104365751D01*
X211059509Y-104374620D01*
X211053214Y-104415051D01*
X211040860Y-104494390D01*
X211042024Y-104503292D01*
X211042024Y-104503295D01*
X211042328Y-104505619D01*
X211057741Y-104623481D01*
X211110174Y-104742645D01*
X211193946Y-104842303D01*
X211201414Y-104847274D01*
X211201415Y-104847275D01*
X211294850Y-104909472D01*
X211294853Y-104909473D01*
X211302320Y-104914444D01*
X211310887Y-104917120D01*
X211310888Y-104917121D01*
X211328637Y-104922666D01*
X211426587Y-104953267D01*
X211435560Y-104953431D01*
X211435563Y-104953432D01*
X211492790Y-104954481D01*
X211556755Y-104955653D01*
X211620860Y-104938176D01*
X211673698Y-104923771D01*
X211673701Y-104923770D01*
X211682360Y-104921409D01*
X211690010Y-104916712D01*
X211690012Y-104916711D01*
X211720282Y-104898125D01*
X211786210Y-104879500D01*
X212790616Y-104879500D01*
X212858737Y-104899502D01*
X212879711Y-104916405D01*
X213344131Y-105380825D01*
X213378157Y-105443137D01*
X213373092Y-105513952D01*
X213330545Y-105570788D01*
X213314312Y-105580334D01*
X213312505Y-105580850D01*
X213280469Y-105601063D01*
X213213236Y-105620500D01*
X210787454Y-105620500D01*
X210718922Y-105600232D01*
X210700133Y-105588054D01*
X210692601Y-105583172D01*
X210567870Y-105545870D01*
X210558894Y-105545815D01*
X210558893Y-105545815D01*
X210505678Y-105545490D01*
X210437683Y-105545074D01*
X210312505Y-105580850D01*
X210304918Y-105585637D01*
X210304916Y-105585638D01*
X210280471Y-105601062D01*
X210202400Y-105650321D01*
X210196458Y-105657049D01*
X210196457Y-105657050D01*
X210141918Y-105718804D01*
X210116219Y-105747903D01*
X210112404Y-105756028D01*
X210112403Y-105756030D01*
X210069866Y-105846633D01*
X210060890Y-105865751D01*
X210059509Y-105874620D01*
X210042809Y-105981876D01*
X210040860Y-105994390D01*
X210042024Y-106003292D01*
X210042024Y-106003295D01*
X210056335Y-106112731D01*
X210057741Y-106123481D01*
X210110174Y-106242645D01*
X210193946Y-106342303D01*
X210201417Y-106347276D01*
X210201418Y-106347277D01*
X210265017Y-106389613D01*
X210310640Y-106444011D01*
X210319610Y-106514438D01*
X210289081Y-106578536D01*
X210228744Y-106615952D01*
X210195198Y-106620500D01*
X209287454Y-106620500D01*
X209218922Y-106600232D01*
X209200133Y-106588054D01*
X209192601Y-106583172D01*
X209067870Y-106545870D01*
X209058894Y-106545815D01*
X209058893Y-106545815D01*
X209005678Y-106545490D01*
X208937683Y-106545074D01*
X208812505Y-106580850D01*
X208804918Y-106585637D01*
X208804916Y-106585638D01*
X208779837Y-106601462D01*
X208702400Y-106650321D01*
X208616219Y-106747903D01*
X208612404Y-106756028D01*
X208612403Y-106756030D01*
X208576166Y-106833213D01*
X208560890Y-106865751D01*
X208559509Y-106874620D01*
X208546890Y-106955665D01*
X208540860Y-106994390D01*
X195978614Y-106994390D01*
X195954031Y-106955665D01*
X195950396Y-106938704D01*
X195941991Y-106880014D01*
X195940718Y-106871125D01*
X195886832Y-106752610D01*
X195801850Y-106653983D01*
X195692601Y-106583172D01*
X195567870Y-106545870D01*
X195558893Y-106545815D01*
X195556497Y-106545457D01*
X195492081Y-106515604D01*
X195454031Y-106455665D01*
X195450396Y-106438704D01*
X195441991Y-106380014D01*
X195440718Y-106371125D01*
X195397397Y-106275846D01*
X195390548Y-106260782D01*
X195390547Y-106260780D01*
X195386832Y-106252610D01*
X195301850Y-106153983D01*
X195192601Y-106083172D01*
X195067870Y-106045870D01*
X195058893Y-106045815D01*
X195056497Y-106045457D01*
X194992081Y-106015604D01*
X194954031Y-105955665D01*
X194950396Y-105938704D01*
X194941991Y-105880014D01*
X194940718Y-105871125D01*
X194908833Y-105800999D01*
X194890548Y-105760782D01*
X194890547Y-105760780D01*
X194886832Y-105752610D01*
X194801850Y-105653983D01*
X194692601Y-105583172D01*
X194567870Y-105545870D01*
X194558894Y-105545815D01*
X194558893Y-105545815D01*
X194505678Y-105545490D01*
X194437683Y-105545074D01*
X194312505Y-105580850D01*
X194280469Y-105601063D01*
X194213236Y-105620500D01*
X192209384Y-105620500D01*
X192141263Y-105600498D01*
X192120289Y-105583595D01*
X191694885Y-105158191D01*
X191660859Y-105095879D01*
X191657980Y-105069096D01*
X191657980Y-97934702D01*
X191677982Y-97866581D01*
X191731638Y-97820088D01*
X191801912Y-97809984D01*
X191847075Y-97825638D01*
X191913139Y-97863857D01*
X191924003Y-97868831D01*
X192111676Y-97934002D01*
X192123278Y-97936830D01*
X192235071Y-97953039D01*
X192249007Y-97951053D01*
X192252349Y-97939697D01*
X192507000Y-97939697D01*
X192511475Y-97954936D01*
X192511689Y-97955122D01*
X192522007Y-97957118D01*
X192530273Y-97956735D01*
X192542090Y-97955054D01*
X192735229Y-97908507D01*
X192746524Y-97904618D01*
X192927379Y-97822388D01*
X192937721Y-97816441D01*
X193099772Y-97701490D01*
X193108800Y-97693697D01*
X193246189Y-97550179D01*
X193253585Y-97540814D01*
X193361354Y-97373910D01*
X193366850Y-97363306D01*
X193441108Y-97179048D01*
X193444502Y-97167589D01*
X193482861Y-96971168D01*
X193483934Y-96962332D01*
X193484000Y-96959629D01*
X193484000Y-96911159D01*
X193815500Y-96911159D01*
X193830493Y-97068306D01*
X193889823Y-97270542D01*
X193892573Y-97275881D01*
X193943180Y-97374140D01*
X193986324Y-97457910D01*
X193990028Y-97462625D01*
X194112808Y-97618932D01*
X194112812Y-97618936D01*
X194116514Y-97623649D01*
X194121044Y-97627580D01*
X194121045Y-97627581D01*
X194271165Y-97757850D01*
X194271170Y-97757854D01*
X194275696Y-97761781D01*
X194458126Y-97867319D01*
X194657222Y-97936457D01*
X194663155Y-97937317D01*
X194663158Y-97937318D01*
X194859860Y-97965838D01*
X194859863Y-97965838D01*
X194865800Y-97966699D01*
X195076333Y-97956955D01*
X195082157Y-97955551D01*
X195082160Y-97955551D01*
X195275393Y-97908982D01*
X195275395Y-97908981D01*
X195281226Y-97907576D01*
X195286684Y-97905094D01*
X195286688Y-97905093D01*
X195461438Y-97825638D01*
X195473084Y-97820343D01*
X195644986Y-97698404D01*
X195790728Y-97546160D01*
X195844666Y-97462625D01*
X195901800Y-97374140D01*
X195901801Y-97374137D01*
X195905052Y-97369103D01*
X195983834Y-97173622D01*
X196024229Y-96966771D01*
X196024500Y-96961230D01*
X196024500Y-96911159D01*
X203975500Y-96911159D01*
X203990493Y-97068306D01*
X204049823Y-97270542D01*
X204052573Y-97275881D01*
X204103180Y-97374140D01*
X204146324Y-97457910D01*
X204150028Y-97462625D01*
X204272808Y-97618932D01*
X204272812Y-97618936D01*
X204276514Y-97623649D01*
X204281044Y-97627580D01*
X204281045Y-97627581D01*
X204431165Y-97757850D01*
X204431170Y-97757854D01*
X204435696Y-97761781D01*
X204618126Y-97867319D01*
X204817222Y-97936457D01*
X204823155Y-97937317D01*
X204823158Y-97937318D01*
X205019860Y-97965838D01*
X205019863Y-97965838D01*
X205025800Y-97966699D01*
X205236333Y-97956955D01*
X205242157Y-97955551D01*
X205242160Y-97955551D01*
X205435393Y-97908982D01*
X205435395Y-97908981D01*
X205441226Y-97907576D01*
X205446684Y-97905094D01*
X205446688Y-97905093D01*
X205621438Y-97825638D01*
X205633084Y-97820343D01*
X205804986Y-97698404D01*
X205950728Y-97546160D01*
X206004666Y-97462625D01*
X206061800Y-97374140D01*
X206061801Y-97374137D01*
X206065052Y-97369103D01*
X206143834Y-97173622D01*
X206184229Y-96966771D01*
X206184500Y-96961230D01*
X206184500Y-96911159D01*
X206515500Y-96911159D01*
X206530493Y-97068306D01*
X206589823Y-97270542D01*
X206592573Y-97275881D01*
X206643180Y-97374140D01*
X206686324Y-97457910D01*
X206690028Y-97462625D01*
X206812808Y-97618932D01*
X206812812Y-97618936D01*
X206816514Y-97623649D01*
X206821044Y-97627580D01*
X206821045Y-97627581D01*
X206971165Y-97757850D01*
X206971170Y-97757854D01*
X206975696Y-97761781D01*
X207158126Y-97867319D01*
X207357222Y-97936457D01*
X207363155Y-97937317D01*
X207363158Y-97937318D01*
X207559860Y-97965838D01*
X207559863Y-97965838D01*
X207565800Y-97966699D01*
X207776333Y-97956955D01*
X207782157Y-97955551D01*
X207782160Y-97955551D01*
X207975393Y-97908982D01*
X207975395Y-97908981D01*
X207981226Y-97907576D01*
X207986684Y-97905094D01*
X207986688Y-97905093D01*
X208161438Y-97825638D01*
X208173084Y-97820343D01*
X208344986Y-97698404D01*
X208490728Y-97546160D01*
X208544666Y-97462625D01*
X208601800Y-97374140D01*
X208601801Y-97374137D01*
X208605052Y-97369103D01*
X208683834Y-97173622D01*
X208724229Y-96966771D01*
X208724500Y-96961230D01*
X208724500Y-96911159D01*
X209055500Y-96911159D01*
X209070493Y-97068306D01*
X209129823Y-97270542D01*
X209132573Y-97275881D01*
X209183180Y-97374140D01*
X209226324Y-97457910D01*
X209230028Y-97462625D01*
X209352808Y-97618932D01*
X209352812Y-97618936D01*
X209356514Y-97623649D01*
X209361044Y-97627580D01*
X209361045Y-97627581D01*
X209511165Y-97757850D01*
X209511170Y-97757854D01*
X209515696Y-97761781D01*
X209698126Y-97867319D01*
X209897222Y-97936457D01*
X209903155Y-97937317D01*
X209903158Y-97937318D01*
X210099860Y-97965838D01*
X210099863Y-97965838D01*
X210105800Y-97966699D01*
X210316333Y-97956955D01*
X210322157Y-97955551D01*
X210322160Y-97955551D01*
X210515393Y-97908982D01*
X210515395Y-97908981D01*
X210521226Y-97907576D01*
X210526684Y-97905094D01*
X210526688Y-97905093D01*
X210701438Y-97825638D01*
X210713084Y-97820343D01*
X210884986Y-97698404D01*
X211030728Y-97546160D01*
X211084666Y-97462625D01*
X211141800Y-97374140D01*
X211141801Y-97374137D01*
X211145052Y-97369103D01*
X211223834Y-97173622D01*
X211264229Y-96966771D01*
X211264500Y-96961230D01*
X211264500Y-96911159D01*
X211595500Y-96911159D01*
X211610493Y-97068306D01*
X211669823Y-97270542D01*
X211672573Y-97275881D01*
X211723180Y-97374140D01*
X211766324Y-97457910D01*
X211770028Y-97462625D01*
X211892808Y-97618932D01*
X211892812Y-97618936D01*
X211896514Y-97623649D01*
X211901044Y-97627580D01*
X211901045Y-97627581D01*
X212051165Y-97757850D01*
X212051170Y-97757854D01*
X212055696Y-97761781D01*
X212238126Y-97867319D01*
X212437222Y-97936457D01*
X212443155Y-97937317D01*
X212443158Y-97937318D01*
X212639860Y-97965838D01*
X212639863Y-97965838D01*
X212645800Y-97966699D01*
X212856333Y-97956955D01*
X212862157Y-97955551D01*
X212862160Y-97955551D01*
X213055393Y-97908982D01*
X213055395Y-97908981D01*
X213061226Y-97907576D01*
X213066684Y-97905094D01*
X213066688Y-97905093D01*
X213241438Y-97825638D01*
X213253084Y-97820343D01*
X213424986Y-97698404D01*
X213570728Y-97546160D01*
X213624666Y-97462625D01*
X213681800Y-97374140D01*
X213681801Y-97374137D01*
X213685052Y-97369103D01*
X213763834Y-97173622D01*
X213804229Y-96966771D01*
X213804500Y-96961230D01*
X213804500Y-96908144D01*
X214136000Y-96908144D01*
X214136285Y-96914121D01*
X214150416Y-97062234D01*
X214152676Y-97073972D01*
X214208598Y-97264591D01*
X214213039Y-97275694D01*
X214304000Y-97452307D01*
X214310450Y-97462353D01*
X214433171Y-97618586D01*
X214441408Y-97627235D01*
X214591457Y-97757440D01*
X214601183Y-97764377D01*
X214773139Y-97863857D01*
X214784003Y-97868831D01*
X214971676Y-97934002D01*
X214983278Y-97936830D01*
X215095071Y-97953039D01*
X215109007Y-97951053D01*
X215112349Y-97939697D01*
X215367000Y-97939697D01*
X215371475Y-97954936D01*
X215371689Y-97955122D01*
X215382007Y-97957118D01*
X215390273Y-97956735D01*
X215402090Y-97955054D01*
X215595229Y-97908507D01*
X215606524Y-97904618D01*
X215787379Y-97822388D01*
X215797721Y-97816441D01*
X215959772Y-97701490D01*
X215968800Y-97693697D01*
X216106189Y-97550179D01*
X216113585Y-97540814D01*
X216221354Y-97373910D01*
X216226850Y-97363306D01*
X216301108Y-97179048D01*
X216304502Y-97167589D01*
X216342861Y-96971168D01*
X216343934Y-96962332D01*
X216344000Y-96959629D01*
X216344000Y-96583615D01*
X216339525Y-96568376D01*
X216338135Y-96567171D01*
X216330452Y-96565500D01*
X215385115Y-96565500D01*
X215369876Y-96569975D01*
X215368671Y-96571365D01*
X215367000Y-96579048D01*
X215367000Y-97939697D01*
X215112349Y-97939697D01*
X215113000Y-97937485D01*
X215113000Y-96583615D01*
X215108525Y-96568376D01*
X215107135Y-96567171D01*
X215099452Y-96565500D01*
X214154115Y-96565500D01*
X214138876Y-96569975D01*
X214137671Y-96571365D01*
X214136000Y-96579048D01*
X214136000Y-96908144D01*
X213804500Y-96908144D01*
X213804500Y-96293385D01*
X214136000Y-96293385D01*
X214140475Y-96308624D01*
X214141865Y-96309829D01*
X214149548Y-96311500D01*
X215094885Y-96311500D01*
X215110124Y-96307025D01*
X215111329Y-96305635D01*
X215113000Y-96297952D01*
X215113000Y-96293385D01*
X215367000Y-96293385D01*
X215371475Y-96308624D01*
X215372865Y-96309829D01*
X215380548Y-96311500D01*
X216325885Y-96311500D01*
X216341124Y-96307025D01*
X216342329Y-96305635D01*
X216344000Y-96297952D01*
X216344000Y-95968856D01*
X216343715Y-95962879D01*
X216329584Y-95814766D01*
X216327324Y-95803028D01*
X216271402Y-95612409D01*
X216266961Y-95601306D01*
X216176000Y-95424693D01*
X216169550Y-95414647D01*
X216046829Y-95258414D01*
X216038592Y-95249765D01*
X215888543Y-95119560D01*
X215878817Y-95112623D01*
X215706861Y-95013143D01*
X215695997Y-95008169D01*
X215508324Y-94942998D01*
X215496722Y-94940170D01*
X215384929Y-94923961D01*
X215370993Y-94925947D01*
X215367000Y-94939515D01*
X215367000Y-96293385D01*
X215113000Y-96293385D01*
X215113000Y-94937303D01*
X215108525Y-94922064D01*
X215108311Y-94921878D01*
X215097993Y-94919882D01*
X215089727Y-94920265D01*
X215077910Y-94921946D01*
X214884771Y-94968493D01*
X214873476Y-94972382D01*
X214692621Y-95054612D01*
X214682279Y-95060559D01*
X214520228Y-95175510D01*
X214511200Y-95183303D01*
X214373811Y-95326821D01*
X214366415Y-95336186D01*
X214258646Y-95503090D01*
X214253150Y-95513694D01*
X214178892Y-95697952D01*
X214175498Y-95709411D01*
X214137139Y-95905832D01*
X214136066Y-95914668D01*
X214136000Y-95917371D01*
X214136000Y-96293385D01*
X213804500Y-96293385D01*
X213804500Y-95965841D01*
X213789507Y-95808694D01*
X213730177Y-95606458D01*
X213676939Y-95503090D01*
X213636422Y-95424421D01*
X213636420Y-95424418D01*
X213633676Y-95419090D01*
X213561198Y-95326821D01*
X213507192Y-95258068D01*
X213507188Y-95258064D01*
X213503486Y-95253351D01*
X213471262Y-95225388D01*
X213348835Y-95119150D01*
X213348830Y-95119146D01*
X213344304Y-95115219D01*
X213161874Y-95009681D01*
X212962778Y-94940543D01*
X212956845Y-94939683D01*
X212956842Y-94939682D01*
X212760140Y-94911162D01*
X212760137Y-94911162D01*
X212754200Y-94910301D01*
X212543667Y-94920045D01*
X212537843Y-94921449D01*
X212537840Y-94921449D01*
X212344607Y-94968018D01*
X212344605Y-94968019D01*
X212338774Y-94969424D01*
X212333316Y-94971906D01*
X212333312Y-94971907D01*
X212218706Y-95024016D01*
X212146916Y-95056657D01*
X211975014Y-95178596D01*
X211829272Y-95330840D01*
X211826021Y-95335875D01*
X211731766Y-95481851D01*
X211714948Y-95507897D01*
X211636166Y-95703378D01*
X211595771Y-95910229D01*
X211595500Y-95915770D01*
X211595500Y-96911159D01*
X211264500Y-96911159D01*
X211264500Y-95965841D01*
X211249507Y-95808694D01*
X211190177Y-95606458D01*
X211136939Y-95503090D01*
X211096422Y-95424421D01*
X211096420Y-95424418D01*
X211093676Y-95419090D01*
X211021198Y-95326821D01*
X210967192Y-95258068D01*
X210967188Y-95258064D01*
X210963486Y-95253351D01*
X210931262Y-95225388D01*
X210808835Y-95119150D01*
X210808830Y-95119146D01*
X210804304Y-95115219D01*
X210621874Y-95009681D01*
X210422778Y-94940543D01*
X210416845Y-94939683D01*
X210416842Y-94939682D01*
X210220140Y-94911162D01*
X210220137Y-94911162D01*
X210214200Y-94910301D01*
X210003667Y-94920045D01*
X209997843Y-94921449D01*
X209997840Y-94921449D01*
X209804607Y-94968018D01*
X209804605Y-94968019D01*
X209798774Y-94969424D01*
X209793316Y-94971906D01*
X209793312Y-94971907D01*
X209678706Y-95024016D01*
X209606916Y-95056657D01*
X209435014Y-95178596D01*
X209289272Y-95330840D01*
X209286021Y-95335875D01*
X209191766Y-95481851D01*
X209174948Y-95507897D01*
X209096166Y-95703378D01*
X209055771Y-95910229D01*
X209055500Y-95915770D01*
X209055500Y-96911159D01*
X208724500Y-96911159D01*
X208724500Y-95965841D01*
X208709507Y-95808694D01*
X208650177Y-95606458D01*
X208596939Y-95503090D01*
X208556422Y-95424421D01*
X208556420Y-95424418D01*
X208553676Y-95419090D01*
X208481198Y-95326821D01*
X208427192Y-95258068D01*
X208427188Y-95258064D01*
X208423486Y-95253351D01*
X208391262Y-95225388D01*
X208268835Y-95119150D01*
X208268830Y-95119146D01*
X208264304Y-95115219D01*
X208081874Y-95009681D01*
X207882778Y-94940543D01*
X207876845Y-94939683D01*
X207876842Y-94939682D01*
X207680140Y-94911162D01*
X207680137Y-94911162D01*
X207674200Y-94910301D01*
X207463667Y-94920045D01*
X207457843Y-94921449D01*
X207457840Y-94921449D01*
X207264607Y-94968018D01*
X207264605Y-94968019D01*
X207258774Y-94969424D01*
X207253316Y-94971906D01*
X207253312Y-94971907D01*
X207138706Y-95024016D01*
X207066916Y-95056657D01*
X206895014Y-95178596D01*
X206749272Y-95330840D01*
X206746021Y-95335875D01*
X206651766Y-95481851D01*
X206634948Y-95507897D01*
X206556166Y-95703378D01*
X206515771Y-95910229D01*
X206515500Y-95915770D01*
X206515500Y-96911159D01*
X206184500Y-96911159D01*
X206184500Y-95965841D01*
X206169507Y-95808694D01*
X206110177Y-95606458D01*
X206056939Y-95503090D01*
X206016422Y-95424421D01*
X206016420Y-95424418D01*
X206013676Y-95419090D01*
X205941198Y-95326821D01*
X205887192Y-95258068D01*
X205887188Y-95258064D01*
X205883486Y-95253351D01*
X205851262Y-95225388D01*
X205728835Y-95119150D01*
X205728830Y-95119146D01*
X205724304Y-95115219D01*
X205541874Y-95009681D01*
X205342778Y-94940543D01*
X205336845Y-94939683D01*
X205336842Y-94939682D01*
X205140140Y-94911162D01*
X205140137Y-94911162D01*
X205134200Y-94910301D01*
X204923667Y-94920045D01*
X204917843Y-94921449D01*
X204917840Y-94921449D01*
X204724607Y-94968018D01*
X204724605Y-94968019D01*
X204718774Y-94969424D01*
X204713316Y-94971906D01*
X204713312Y-94971907D01*
X204598706Y-95024016D01*
X204526916Y-95056657D01*
X204355014Y-95178596D01*
X204209272Y-95330840D01*
X204206021Y-95335875D01*
X204111766Y-95481851D01*
X204094948Y-95507897D01*
X204016166Y-95703378D01*
X203975771Y-95910229D01*
X203975500Y-95915770D01*
X203975500Y-96911159D01*
X196024500Y-96911159D01*
X196024500Y-95965841D01*
X196009507Y-95808694D01*
X195950177Y-95606458D01*
X195896939Y-95503090D01*
X195856422Y-95424421D01*
X195856420Y-95424418D01*
X195853676Y-95419090D01*
X195781198Y-95326821D01*
X195727192Y-95258068D01*
X195727188Y-95258064D01*
X195723486Y-95253351D01*
X195691262Y-95225388D01*
X195568835Y-95119150D01*
X195568830Y-95119146D01*
X195564304Y-95115219D01*
X195381874Y-95009681D01*
X195182778Y-94940543D01*
X195176845Y-94939683D01*
X195176842Y-94939682D01*
X194980140Y-94911162D01*
X194980137Y-94911162D01*
X194974200Y-94910301D01*
X194763667Y-94920045D01*
X194757843Y-94921449D01*
X194757840Y-94921449D01*
X194564607Y-94968018D01*
X194564605Y-94968019D01*
X194558774Y-94969424D01*
X194553316Y-94971906D01*
X194553312Y-94971907D01*
X194438706Y-95024016D01*
X194366916Y-95056657D01*
X194195014Y-95178596D01*
X194049272Y-95330840D01*
X194046021Y-95335875D01*
X193951766Y-95481851D01*
X193934948Y-95507897D01*
X193856166Y-95703378D01*
X193815771Y-95910229D01*
X193815500Y-95915770D01*
X193815500Y-96911159D01*
X193484000Y-96911159D01*
X193484000Y-96583615D01*
X193479525Y-96568376D01*
X193478135Y-96567171D01*
X193470452Y-96565500D01*
X192525115Y-96565500D01*
X192509876Y-96569975D01*
X192508671Y-96571365D01*
X192507000Y-96579048D01*
X192507000Y-97939697D01*
X192252349Y-97939697D01*
X192253000Y-97937485D01*
X192253000Y-96293385D01*
X192507000Y-96293385D01*
X192511475Y-96308624D01*
X192512865Y-96309829D01*
X192520548Y-96311500D01*
X193465885Y-96311500D01*
X193481124Y-96307025D01*
X193482329Y-96305635D01*
X193484000Y-96297952D01*
X193484000Y-95968856D01*
X193483715Y-95962879D01*
X193469584Y-95814766D01*
X193467324Y-95803028D01*
X193411402Y-95612409D01*
X193406961Y-95601306D01*
X193316000Y-95424693D01*
X193309550Y-95414647D01*
X193186829Y-95258414D01*
X193178592Y-95249765D01*
X193028543Y-95119560D01*
X193018817Y-95112623D01*
X192846861Y-95013143D01*
X192835997Y-95008169D01*
X192648324Y-94942998D01*
X192636722Y-94940170D01*
X192524929Y-94923961D01*
X192510993Y-94925947D01*
X192507000Y-94939515D01*
X192507000Y-96293385D01*
X192253000Y-96293385D01*
X192253000Y-94937303D01*
X192248525Y-94922064D01*
X192248311Y-94921878D01*
X192237993Y-94919882D01*
X192229727Y-94920265D01*
X192217910Y-94921946D01*
X192024771Y-94968493D01*
X192013476Y-94972382D01*
X191839654Y-95051414D01*
X191769363Y-95061400D01*
X191704832Y-95031800D01*
X191666548Y-94972010D01*
X191662376Y-94951523D01*
X191661077Y-94940543D01*
X191658853Y-94921757D01*
X191658503Y-94915826D01*
X191658408Y-94915834D01*
X191657980Y-94910656D01*
X191657980Y-94905456D01*
X191656355Y-94895694D01*
X191654811Y-94886415D01*
X191653974Y-94880537D01*
X191649174Y-94839979D01*
X191649174Y-94839978D01*
X191647950Y-94829639D01*
X191643987Y-94821387D01*
X191642484Y-94812354D01*
X191618145Y-94767246D01*
X191615449Y-94761955D01*
X191596695Y-94722898D01*
X191596692Y-94722894D01*
X191593261Y-94715748D01*
X191589666Y-94711472D01*
X191587743Y-94709549D01*
X191585971Y-94707617D01*
X191585928Y-94707538D01*
X191586052Y-94707425D01*
X191585576Y-94706885D01*
X191582490Y-94701166D01*
X191542893Y-94664563D01*
X191539328Y-94661134D01*
X190907592Y-94029398D01*
X190873566Y-93967086D01*
X190879821Y-93893205D01*
X190903834Y-93833622D01*
X190944229Y-93626771D01*
X190944500Y-93621230D01*
X190944500Y-93568144D01*
X191276000Y-93568144D01*
X191276285Y-93574121D01*
X191290416Y-93722234D01*
X191292676Y-93733972D01*
X191348598Y-93924591D01*
X191353039Y-93935694D01*
X191444000Y-94112307D01*
X191450450Y-94122353D01*
X191573171Y-94278586D01*
X191581408Y-94287235D01*
X191731457Y-94417440D01*
X191741183Y-94424377D01*
X191913139Y-94523857D01*
X191924003Y-94528831D01*
X192111676Y-94594002D01*
X192123278Y-94596830D01*
X192235071Y-94613039D01*
X192249007Y-94611053D01*
X192252349Y-94599697D01*
X192507000Y-94599697D01*
X192511475Y-94614936D01*
X192511689Y-94615122D01*
X192522007Y-94617118D01*
X192530273Y-94616735D01*
X192542090Y-94615054D01*
X192735229Y-94568507D01*
X192746524Y-94564618D01*
X192927379Y-94482388D01*
X192937721Y-94476441D01*
X193099772Y-94361490D01*
X193108800Y-94353697D01*
X193246189Y-94210179D01*
X193253585Y-94200814D01*
X193361354Y-94033910D01*
X193366850Y-94023306D01*
X193441108Y-93839048D01*
X193444502Y-93827589D01*
X193482861Y-93631168D01*
X193483934Y-93622332D01*
X193484000Y-93619629D01*
X193484000Y-93571159D01*
X193815500Y-93571159D01*
X193830493Y-93728306D01*
X193889823Y-93930542D01*
X193910394Y-93970483D01*
X193943180Y-94034140D01*
X193986324Y-94117910D01*
X193990028Y-94122625D01*
X194112808Y-94278932D01*
X194112812Y-94278936D01*
X194116514Y-94283649D01*
X194121044Y-94287580D01*
X194121045Y-94287581D01*
X194271165Y-94417850D01*
X194271170Y-94417854D01*
X194275696Y-94421781D01*
X194458126Y-94527319D01*
X194657222Y-94596457D01*
X194663155Y-94597317D01*
X194663158Y-94597318D01*
X194859860Y-94625838D01*
X194859863Y-94625838D01*
X194865800Y-94626699D01*
X195076333Y-94616955D01*
X195082157Y-94615551D01*
X195082160Y-94615551D01*
X195275393Y-94568982D01*
X195275395Y-94568981D01*
X195281226Y-94567576D01*
X195286684Y-94565094D01*
X195286688Y-94565093D01*
X195410191Y-94508939D01*
X195473084Y-94480343D01*
X195606179Y-94385932D01*
X195640100Y-94361870D01*
X195640101Y-94361869D01*
X195644986Y-94358404D01*
X195790728Y-94206160D01*
X195844666Y-94122625D01*
X195901800Y-94034140D01*
X195901801Y-94034137D01*
X195905052Y-94029103D01*
X195983834Y-93833622D01*
X196024229Y-93626771D01*
X196024500Y-93621230D01*
X196024500Y-93571159D01*
X203975500Y-93571159D01*
X203990493Y-93728306D01*
X204049823Y-93930542D01*
X204070394Y-93970483D01*
X204103180Y-94034140D01*
X204146324Y-94117910D01*
X204150028Y-94122625D01*
X204272808Y-94278932D01*
X204272812Y-94278936D01*
X204276514Y-94283649D01*
X204281044Y-94287580D01*
X204281045Y-94287581D01*
X204431165Y-94417850D01*
X204431170Y-94417854D01*
X204435696Y-94421781D01*
X204618126Y-94527319D01*
X204817222Y-94596457D01*
X204823155Y-94597317D01*
X204823158Y-94597318D01*
X205019860Y-94625838D01*
X205019863Y-94625838D01*
X205025800Y-94626699D01*
X205236333Y-94616955D01*
X205242157Y-94615551D01*
X205242160Y-94615551D01*
X205435393Y-94568982D01*
X205435395Y-94568981D01*
X205441226Y-94567576D01*
X205446684Y-94565094D01*
X205446688Y-94565093D01*
X205570191Y-94508939D01*
X205633084Y-94480343D01*
X205766179Y-94385932D01*
X205800100Y-94361870D01*
X205800101Y-94361869D01*
X205804986Y-94358404D01*
X205950728Y-94206160D01*
X206004666Y-94122625D01*
X206061800Y-94034140D01*
X206061801Y-94034137D01*
X206065052Y-94029103D01*
X206143834Y-93833622D01*
X206184229Y-93626771D01*
X206184500Y-93621230D01*
X206184500Y-93571159D01*
X206515500Y-93571159D01*
X206530493Y-93728306D01*
X206589823Y-93930542D01*
X206610394Y-93970483D01*
X206643180Y-94034140D01*
X206686324Y-94117910D01*
X206690028Y-94122625D01*
X206812808Y-94278932D01*
X206812812Y-94278936D01*
X206816514Y-94283649D01*
X206821044Y-94287580D01*
X206821045Y-94287581D01*
X206971165Y-94417850D01*
X206971170Y-94417854D01*
X206975696Y-94421781D01*
X207158126Y-94527319D01*
X207357222Y-94596457D01*
X207363155Y-94597317D01*
X207363158Y-94597318D01*
X207559860Y-94625838D01*
X207559863Y-94625838D01*
X207565800Y-94626699D01*
X207776333Y-94616955D01*
X207782157Y-94615551D01*
X207782160Y-94615551D01*
X207975393Y-94568982D01*
X207975395Y-94568981D01*
X207981226Y-94567576D01*
X207986684Y-94565094D01*
X207986688Y-94565093D01*
X208110191Y-94508939D01*
X208173084Y-94480343D01*
X208306179Y-94385932D01*
X208340100Y-94361870D01*
X208340101Y-94361869D01*
X208344986Y-94358404D01*
X208490728Y-94206160D01*
X208544666Y-94122625D01*
X208601800Y-94034140D01*
X208601801Y-94034137D01*
X208605052Y-94029103D01*
X208683834Y-93833622D01*
X208724229Y-93626771D01*
X208724500Y-93621230D01*
X208724500Y-93571159D01*
X209055500Y-93571159D01*
X209070493Y-93728306D01*
X209129823Y-93930542D01*
X209150394Y-93970483D01*
X209183180Y-94034140D01*
X209226324Y-94117910D01*
X209230028Y-94122625D01*
X209352808Y-94278932D01*
X209352812Y-94278936D01*
X209356514Y-94283649D01*
X209361044Y-94287580D01*
X209361045Y-94287581D01*
X209511165Y-94417850D01*
X209511170Y-94417854D01*
X209515696Y-94421781D01*
X209698126Y-94527319D01*
X209897222Y-94596457D01*
X209903155Y-94597317D01*
X209903158Y-94597318D01*
X210099860Y-94625838D01*
X210099863Y-94625838D01*
X210105800Y-94626699D01*
X210316333Y-94616955D01*
X210322157Y-94615551D01*
X210322160Y-94615551D01*
X210515393Y-94568982D01*
X210515395Y-94568981D01*
X210521226Y-94567576D01*
X210526684Y-94565094D01*
X210526688Y-94565093D01*
X210650191Y-94508939D01*
X210713084Y-94480343D01*
X210846179Y-94385932D01*
X210880100Y-94361870D01*
X210880101Y-94361869D01*
X210884986Y-94358404D01*
X211030728Y-94206160D01*
X211084666Y-94122625D01*
X211141800Y-94034140D01*
X211141801Y-94034137D01*
X211145052Y-94029103D01*
X211223834Y-93833622D01*
X211264229Y-93626771D01*
X211264500Y-93621230D01*
X211264500Y-93571159D01*
X211595500Y-93571159D01*
X211610493Y-93728306D01*
X211669823Y-93930542D01*
X211690394Y-93970483D01*
X211723180Y-94034140D01*
X211766324Y-94117910D01*
X211770028Y-94122625D01*
X211892808Y-94278932D01*
X211892812Y-94278936D01*
X211896514Y-94283649D01*
X211901044Y-94287580D01*
X211901045Y-94287581D01*
X212051165Y-94417850D01*
X212051170Y-94417854D01*
X212055696Y-94421781D01*
X212238126Y-94527319D01*
X212437222Y-94596457D01*
X212443155Y-94597317D01*
X212443158Y-94597318D01*
X212639860Y-94625838D01*
X212639863Y-94625838D01*
X212645800Y-94626699D01*
X212856333Y-94616955D01*
X212862157Y-94615551D01*
X212862160Y-94615551D01*
X213055393Y-94568982D01*
X213055395Y-94568981D01*
X213061226Y-94567576D01*
X213066684Y-94565094D01*
X213066688Y-94565093D01*
X213190191Y-94508939D01*
X213253084Y-94480343D01*
X213386179Y-94385932D01*
X213420100Y-94361870D01*
X213420101Y-94361869D01*
X213424986Y-94358404D01*
X213570728Y-94206160D01*
X213624666Y-94122625D01*
X213681800Y-94034140D01*
X213681801Y-94034137D01*
X213685052Y-94029103D01*
X213763834Y-93833622D01*
X213804229Y-93626771D01*
X213804500Y-93621230D01*
X213804500Y-93568144D01*
X214136000Y-93568144D01*
X214136285Y-93574121D01*
X214150416Y-93722234D01*
X214152676Y-93733972D01*
X214208598Y-93924591D01*
X214213039Y-93935694D01*
X214304000Y-94112307D01*
X214310450Y-94122353D01*
X214433171Y-94278586D01*
X214441408Y-94287235D01*
X214591457Y-94417440D01*
X214601183Y-94424377D01*
X214773139Y-94523857D01*
X214784003Y-94528831D01*
X214971676Y-94594002D01*
X214983278Y-94596830D01*
X215095071Y-94613039D01*
X215109007Y-94611053D01*
X215112349Y-94599697D01*
X215367000Y-94599697D01*
X215371475Y-94614936D01*
X215371689Y-94615122D01*
X215382007Y-94617118D01*
X215390273Y-94616735D01*
X215402090Y-94615054D01*
X215595229Y-94568507D01*
X215606524Y-94564618D01*
X215787379Y-94482388D01*
X215797721Y-94476441D01*
X215959772Y-94361490D01*
X215968800Y-94353697D01*
X216106189Y-94210179D01*
X216113585Y-94200814D01*
X216221354Y-94033910D01*
X216226850Y-94023306D01*
X216301108Y-93839048D01*
X216304502Y-93827589D01*
X216342861Y-93631168D01*
X216343934Y-93622332D01*
X216344000Y-93619629D01*
X216344000Y-93243615D01*
X216339525Y-93228376D01*
X216338135Y-93227171D01*
X216330452Y-93225500D01*
X215385115Y-93225500D01*
X215369876Y-93229975D01*
X215368671Y-93231365D01*
X215367000Y-93239048D01*
X215367000Y-94599697D01*
X215112349Y-94599697D01*
X215113000Y-94597485D01*
X215113000Y-93243615D01*
X215108525Y-93228376D01*
X215107135Y-93227171D01*
X215099452Y-93225500D01*
X214154115Y-93225500D01*
X214138876Y-93229975D01*
X214137671Y-93231365D01*
X214136000Y-93239048D01*
X214136000Y-93568144D01*
X213804500Y-93568144D01*
X213804500Y-92953385D01*
X214136000Y-92953385D01*
X214140475Y-92968624D01*
X214141865Y-92969829D01*
X214149548Y-92971500D01*
X215094885Y-92971500D01*
X215110124Y-92967025D01*
X215111329Y-92965635D01*
X215113000Y-92957952D01*
X215113000Y-92953385D01*
X215367000Y-92953385D01*
X215371475Y-92968624D01*
X215372865Y-92969829D01*
X215380548Y-92971500D01*
X216325885Y-92971500D01*
X216341124Y-92967025D01*
X216342329Y-92965635D01*
X216344000Y-92957952D01*
X216344000Y-92628856D01*
X216343715Y-92622879D01*
X216329584Y-92474766D01*
X216327324Y-92463028D01*
X216271402Y-92272409D01*
X216266961Y-92261306D01*
X216176000Y-92084693D01*
X216169550Y-92074647D01*
X216046829Y-91918414D01*
X216038592Y-91909765D01*
X215888543Y-91779560D01*
X215878817Y-91772623D01*
X215706861Y-91673143D01*
X215695997Y-91668169D01*
X215508324Y-91602998D01*
X215496722Y-91600170D01*
X215384929Y-91583961D01*
X215370993Y-91585947D01*
X215367000Y-91599515D01*
X215367000Y-92953385D01*
X215113000Y-92953385D01*
X215113000Y-91597303D01*
X215108525Y-91582064D01*
X215108311Y-91581878D01*
X215097993Y-91579882D01*
X215089727Y-91580265D01*
X215077910Y-91581946D01*
X214884771Y-91628493D01*
X214873476Y-91632382D01*
X214692621Y-91714612D01*
X214682279Y-91720559D01*
X214520228Y-91835510D01*
X214511200Y-91843303D01*
X214373811Y-91986821D01*
X214366415Y-91996186D01*
X214258646Y-92163090D01*
X214253150Y-92173694D01*
X214178892Y-92357952D01*
X214175498Y-92369411D01*
X214137139Y-92565832D01*
X214136066Y-92574668D01*
X214136000Y-92577371D01*
X214136000Y-92953385D01*
X213804500Y-92953385D01*
X213804500Y-92625841D01*
X213789507Y-92468694D01*
X213730177Y-92266458D01*
X213676939Y-92163090D01*
X213636422Y-92084421D01*
X213636420Y-92084418D01*
X213633676Y-92079090D01*
X213561198Y-91986821D01*
X213507192Y-91918068D01*
X213507188Y-91918064D01*
X213503486Y-91913351D01*
X213479832Y-91892825D01*
X213348835Y-91779150D01*
X213348830Y-91779146D01*
X213344304Y-91775219D01*
X213161874Y-91669681D01*
X212962778Y-91600543D01*
X212956845Y-91599683D01*
X212956842Y-91599682D01*
X212760140Y-91571162D01*
X212760137Y-91571162D01*
X212754200Y-91570301D01*
X212543667Y-91580045D01*
X212537843Y-91581449D01*
X212537840Y-91581449D01*
X212344607Y-91628018D01*
X212344605Y-91628019D01*
X212338774Y-91629424D01*
X212333316Y-91631906D01*
X212333312Y-91631907D01*
X212218706Y-91684016D01*
X212146916Y-91716657D01*
X211975014Y-91838596D01*
X211829272Y-91990840D01*
X211826021Y-91995875D01*
X211731766Y-92141851D01*
X211714948Y-92167897D01*
X211636166Y-92363378D01*
X211595771Y-92570229D01*
X211595500Y-92575770D01*
X211595500Y-93571159D01*
X211264500Y-93571159D01*
X211264500Y-92625841D01*
X211249507Y-92468694D01*
X211190177Y-92266458D01*
X211136939Y-92163090D01*
X211096422Y-92084421D01*
X211096420Y-92084418D01*
X211093676Y-92079090D01*
X211021198Y-91986821D01*
X210967192Y-91918068D01*
X210967188Y-91918064D01*
X210963486Y-91913351D01*
X210939832Y-91892825D01*
X210808835Y-91779150D01*
X210808830Y-91779146D01*
X210804304Y-91775219D01*
X210621874Y-91669681D01*
X210422778Y-91600543D01*
X210416845Y-91599683D01*
X210416842Y-91599682D01*
X210220140Y-91571162D01*
X210220137Y-91571162D01*
X210214200Y-91570301D01*
X210003667Y-91580045D01*
X209997843Y-91581449D01*
X209997840Y-91581449D01*
X209804607Y-91628018D01*
X209804605Y-91628019D01*
X209798774Y-91629424D01*
X209793316Y-91631906D01*
X209793312Y-91631907D01*
X209678706Y-91684016D01*
X209606916Y-91716657D01*
X209435014Y-91838596D01*
X209289272Y-91990840D01*
X209286021Y-91995875D01*
X209191766Y-92141851D01*
X209174948Y-92167897D01*
X209096166Y-92363378D01*
X209055771Y-92570229D01*
X209055500Y-92575770D01*
X209055500Y-93571159D01*
X208724500Y-93571159D01*
X208724500Y-92625841D01*
X208709507Y-92468694D01*
X208650177Y-92266458D01*
X208596939Y-92163090D01*
X208556422Y-92084421D01*
X208556420Y-92084418D01*
X208553676Y-92079090D01*
X208481198Y-91986821D01*
X208427192Y-91918068D01*
X208427188Y-91918064D01*
X208423486Y-91913351D01*
X208399832Y-91892825D01*
X208268835Y-91779150D01*
X208268830Y-91779146D01*
X208264304Y-91775219D01*
X208081874Y-91669681D01*
X207882778Y-91600543D01*
X207876845Y-91599683D01*
X207876842Y-91599682D01*
X207680140Y-91571162D01*
X207680137Y-91571162D01*
X207674200Y-91570301D01*
X207463667Y-91580045D01*
X207457843Y-91581449D01*
X207457840Y-91581449D01*
X207264607Y-91628018D01*
X207264605Y-91628019D01*
X207258774Y-91629424D01*
X207253316Y-91631906D01*
X207253312Y-91631907D01*
X207138706Y-91684016D01*
X207066916Y-91716657D01*
X206895014Y-91838596D01*
X206749272Y-91990840D01*
X206746021Y-91995875D01*
X206651766Y-92141851D01*
X206634948Y-92167897D01*
X206556166Y-92363378D01*
X206515771Y-92570229D01*
X206515500Y-92575770D01*
X206515500Y-93571159D01*
X206184500Y-93571159D01*
X206184500Y-92625841D01*
X206169507Y-92468694D01*
X206110177Y-92266458D01*
X206056939Y-92163090D01*
X206016422Y-92084421D01*
X206016420Y-92084418D01*
X206013676Y-92079090D01*
X205941198Y-91986821D01*
X205887192Y-91918068D01*
X205887188Y-91918064D01*
X205883486Y-91913351D01*
X205859832Y-91892825D01*
X205728835Y-91779150D01*
X205728830Y-91779146D01*
X205724304Y-91775219D01*
X205541874Y-91669681D01*
X205342778Y-91600543D01*
X205336845Y-91599683D01*
X205336842Y-91599682D01*
X205140140Y-91571162D01*
X205140137Y-91571162D01*
X205134200Y-91570301D01*
X204923667Y-91580045D01*
X204917843Y-91581449D01*
X204917840Y-91581449D01*
X204724607Y-91628018D01*
X204724605Y-91628019D01*
X204718774Y-91629424D01*
X204713316Y-91631906D01*
X204713312Y-91631907D01*
X204598706Y-91684016D01*
X204526916Y-91716657D01*
X204355014Y-91838596D01*
X204209272Y-91990840D01*
X204206021Y-91995875D01*
X204111766Y-92141851D01*
X204094948Y-92167897D01*
X204016166Y-92363378D01*
X203975771Y-92570229D01*
X203975500Y-92575770D01*
X203975500Y-93571159D01*
X196024500Y-93571159D01*
X196024500Y-92625841D01*
X196009507Y-92468694D01*
X195950177Y-92266458D01*
X195896939Y-92163090D01*
X195856422Y-92084421D01*
X195856420Y-92084418D01*
X195853676Y-92079090D01*
X195781198Y-91986821D01*
X195727192Y-91918068D01*
X195727188Y-91918064D01*
X195723486Y-91913351D01*
X195699832Y-91892825D01*
X195568835Y-91779150D01*
X195568830Y-91779146D01*
X195564304Y-91775219D01*
X195381874Y-91669681D01*
X195182778Y-91600543D01*
X195176845Y-91599683D01*
X195176842Y-91599682D01*
X194980140Y-91571162D01*
X194980137Y-91571162D01*
X194974200Y-91570301D01*
X194763667Y-91580045D01*
X194757843Y-91581449D01*
X194757840Y-91581449D01*
X194564607Y-91628018D01*
X194564605Y-91628019D01*
X194558774Y-91629424D01*
X194553316Y-91631906D01*
X194553312Y-91631907D01*
X194438706Y-91684016D01*
X194366916Y-91716657D01*
X194195014Y-91838596D01*
X194049272Y-91990840D01*
X194046021Y-91995875D01*
X193951766Y-92141851D01*
X193934948Y-92167897D01*
X193856166Y-92363378D01*
X193815771Y-92570229D01*
X193815500Y-92575770D01*
X193815500Y-93571159D01*
X193484000Y-93571159D01*
X193484000Y-93243615D01*
X193479525Y-93228376D01*
X193478135Y-93227171D01*
X193470452Y-93225500D01*
X192525115Y-93225500D01*
X192509876Y-93229975D01*
X192508671Y-93231365D01*
X192507000Y-93239048D01*
X192507000Y-94599697D01*
X192252349Y-94599697D01*
X192253000Y-94597485D01*
X192253000Y-93243615D01*
X192248525Y-93228376D01*
X192247135Y-93227171D01*
X192239452Y-93225500D01*
X191294115Y-93225500D01*
X191278876Y-93229975D01*
X191277671Y-93231365D01*
X191276000Y-93239048D01*
X191276000Y-93568144D01*
X190944500Y-93568144D01*
X190944500Y-92953385D01*
X191276000Y-92953385D01*
X191280475Y-92968624D01*
X191281865Y-92969829D01*
X191289548Y-92971500D01*
X192234885Y-92971500D01*
X192250124Y-92967025D01*
X192251329Y-92965635D01*
X192253000Y-92957952D01*
X192253000Y-92953385D01*
X192507000Y-92953385D01*
X192511475Y-92968624D01*
X192512865Y-92969829D01*
X192520548Y-92971500D01*
X193465885Y-92971500D01*
X193481124Y-92967025D01*
X193482329Y-92965635D01*
X193484000Y-92957952D01*
X193484000Y-92628856D01*
X193483715Y-92622879D01*
X193469584Y-92474766D01*
X193467324Y-92463028D01*
X193411402Y-92272409D01*
X193406961Y-92261306D01*
X193316000Y-92084693D01*
X193309550Y-92074647D01*
X193186829Y-91918414D01*
X193178592Y-91909765D01*
X193028543Y-91779560D01*
X193018817Y-91772623D01*
X192846861Y-91673143D01*
X192835997Y-91668169D01*
X192648324Y-91602998D01*
X192636722Y-91600170D01*
X192524929Y-91583961D01*
X192510993Y-91585947D01*
X192507000Y-91599515D01*
X192507000Y-92953385D01*
X192253000Y-92953385D01*
X192253000Y-91597303D01*
X192248525Y-91582064D01*
X192248311Y-91581878D01*
X192237993Y-91579882D01*
X192229727Y-91580265D01*
X192217910Y-91581946D01*
X192024771Y-91628493D01*
X192013476Y-91632382D01*
X191832621Y-91714612D01*
X191822279Y-91720559D01*
X191660228Y-91835510D01*
X191651200Y-91843303D01*
X191513811Y-91986821D01*
X191506415Y-91996186D01*
X191398646Y-92163090D01*
X191393150Y-92173694D01*
X191318892Y-92357952D01*
X191315498Y-92369411D01*
X191277139Y-92565832D01*
X191276066Y-92574668D01*
X191276000Y-92577371D01*
X191276000Y-92953385D01*
X190944500Y-92953385D01*
X190944500Y-92625841D01*
X190929507Y-92468694D01*
X190870177Y-92266458D01*
X190816939Y-92163090D01*
X190776422Y-92084421D01*
X190776420Y-92084418D01*
X190773676Y-92079090D01*
X190701198Y-91986821D01*
X190647192Y-91918068D01*
X190647188Y-91918064D01*
X190643486Y-91913351D01*
X190619832Y-91892825D01*
X190488835Y-91779150D01*
X190488830Y-91779146D01*
X190484304Y-91775219D01*
X190301874Y-91669681D01*
X190102778Y-91600543D01*
X190096845Y-91599683D01*
X190096842Y-91599682D01*
X189900140Y-91571162D01*
X189900137Y-91571162D01*
X189894200Y-91570301D01*
X189683667Y-91580045D01*
X189677843Y-91581449D01*
X189677840Y-91581449D01*
X189484607Y-91628018D01*
X189484605Y-91628019D01*
X189478774Y-91629424D01*
X189473316Y-91631906D01*
X189473312Y-91631907D01*
X189358706Y-91684016D01*
X189286916Y-91716657D01*
X189115014Y-91838596D01*
X188969272Y-91990840D01*
X188966021Y-91995875D01*
X188871766Y-92141851D01*
X188854948Y-92167897D01*
X188776166Y-92363378D01*
X188735771Y-92570229D01*
X188735500Y-92575770D01*
X188735500Y-93571159D01*
X188750493Y-93728306D01*
X188809823Y-93930542D01*
X188830394Y-93970483D01*
X188863180Y-94034140D01*
X188906324Y-94117910D01*
X188910028Y-94122625D01*
X189032808Y-94278932D01*
X189032812Y-94278936D01*
X189036514Y-94283649D01*
X189041044Y-94287580D01*
X189041045Y-94287581D01*
X189191165Y-94417850D01*
X189191170Y-94417854D01*
X189195696Y-94421781D01*
X189378126Y-94527319D01*
X189577222Y-94596457D01*
X189583155Y-94597317D01*
X189583158Y-94597318D01*
X189779860Y-94625838D01*
X189779863Y-94625838D01*
X189785800Y-94626699D01*
X189996333Y-94616955D01*
X190002157Y-94615551D01*
X190002160Y-94615551D01*
X190195401Y-94568980D01*
X190195403Y-94568979D01*
X190201226Y-94567576D01*
X190239390Y-94550224D01*
X190309677Y-94540236D01*
X190374209Y-94569836D01*
X190380635Y-94575829D01*
X190862075Y-95057269D01*
X190896101Y-95119581D01*
X190898980Y-95146364D01*
X190898980Y-95214229D01*
X190878978Y-95282350D01*
X190825322Y-95328843D01*
X190755048Y-95338947D01*
X190690468Y-95309453D01*
X190673894Y-95292062D01*
X190647192Y-95258069D01*
X190647191Y-95258068D01*
X190643486Y-95253351D01*
X190611262Y-95225388D01*
X190488835Y-95119150D01*
X190488830Y-95119146D01*
X190484304Y-95115219D01*
X190301874Y-95009681D01*
X190102778Y-94940543D01*
X190096845Y-94939683D01*
X190096842Y-94939682D01*
X189900140Y-94911162D01*
X189900137Y-94911162D01*
X189894200Y-94910301D01*
X189683667Y-94920045D01*
X189677843Y-94921449D01*
X189677840Y-94921449D01*
X189484607Y-94968018D01*
X189484605Y-94968019D01*
X189478774Y-94969424D01*
X189473316Y-94971906D01*
X189473312Y-94971907D01*
X189358706Y-95024016D01*
X189286916Y-95056657D01*
X189115014Y-95178596D01*
X189046885Y-95249765D01*
X188998038Y-95300791D01*
X188936483Y-95336167D01*
X188865573Y-95332648D01*
X188807823Y-95291352D01*
X188781567Y-95225388D01*
X188781020Y-95213660D01*
X188781020Y-94653945D01*
X188783570Y-94629987D01*
X188783648Y-94628328D01*
X188785841Y-94618144D01*
X188784617Y-94607802D01*
X188784617Y-94607799D01*
X188781894Y-94584799D01*
X188781544Y-94578868D01*
X188781448Y-94578876D01*
X188781020Y-94573700D01*
X188781020Y-94568496D01*
X188777847Y-94549432D01*
X188777016Y-94543586D01*
X188773394Y-94512992D01*
X188770990Y-94492679D01*
X188767027Y-94484427D01*
X188765524Y-94475394D01*
X188758657Y-94462666D01*
X188741179Y-94430275D01*
X188738502Y-94425022D01*
X188716301Y-94378789D01*
X188712707Y-94374513D01*
X188710767Y-94372573D01*
X188709013Y-94370661D01*
X188708965Y-94370572D01*
X188709088Y-94370460D01*
X188708615Y-94369924D01*
X188705530Y-94364206D01*
X188694573Y-94354077D01*
X188665934Y-94327604D01*
X188662368Y-94324174D01*
X188367592Y-94029398D01*
X188333566Y-93967086D01*
X188339821Y-93893205D01*
X188363834Y-93833622D01*
X188404229Y-93626771D01*
X188404500Y-93621230D01*
X188404500Y-92625841D01*
X188389507Y-92468694D01*
X188330177Y-92266458D01*
X188276939Y-92163090D01*
X188236422Y-92084421D01*
X188236420Y-92084418D01*
X188233676Y-92079090D01*
X188161198Y-91986821D01*
X188107192Y-91918068D01*
X188107188Y-91918064D01*
X188103486Y-91913351D01*
X188079832Y-91892825D01*
X187948835Y-91779150D01*
X187948830Y-91779146D01*
X187944304Y-91775219D01*
X187761874Y-91669681D01*
X187562778Y-91600543D01*
X187556845Y-91599683D01*
X187556842Y-91599682D01*
X187360140Y-91571162D01*
X187360137Y-91571162D01*
X187354200Y-91570301D01*
X187143667Y-91580045D01*
X187137843Y-91581449D01*
X187137840Y-91581449D01*
X186944607Y-91628018D01*
X186944605Y-91628019D01*
X186938774Y-91629424D01*
X186933316Y-91631906D01*
X186933312Y-91631907D01*
X186818706Y-91684016D01*
X186746916Y-91716657D01*
X186575014Y-91838596D01*
X186429272Y-91990840D01*
X186426021Y-91995875D01*
X186331766Y-92141851D01*
X186314948Y-92167897D01*
X186236166Y-92363378D01*
X186195771Y-92570229D01*
X186195500Y-92575770D01*
X186195500Y-93571159D01*
X186210493Y-93728306D01*
X186269823Y-93930542D01*
X186290394Y-93970483D01*
X186323180Y-94034140D01*
X186366324Y-94117910D01*
X186370028Y-94122625D01*
X186492808Y-94278932D01*
X186492812Y-94278936D01*
X186496514Y-94283649D01*
X186501044Y-94287580D01*
X186501045Y-94287581D01*
X186651165Y-94417850D01*
X186651170Y-94417854D01*
X186655696Y-94421781D01*
X186838126Y-94527319D01*
X187037222Y-94596457D01*
X187043155Y-94597317D01*
X187043158Y-94597318D01*
X187239860Y-94625838D01*
X187239863Y-94625838D01*
X187245800Y-94626699D01*
X187456333Y-94616955D01*
X187462157Y-94615551D01*
X187462160Y-94615551D01*
X187655401Y-94568980D01*
X187655403Y-94568979D01*
X187661226Y-94567576D01*
X187699390Y-94550224D01*
X187769677Y-94540236D01*
X187834209Y-94569836D01*
X187840635Y-94575829D01*
X187985115Y-94720309D01*
X188019141Y-94782621D01*
X188022020Y-94809404D01*
X188022020Y-94941721D01*
X188002018Y-95009842D01*
X187948362Y-95056335D01*
X187878088Y-95066439D01*
X187832925Y-95050785D01*
X187767070Y-95012687D01*
X187761874Y-95009681D01*
X187562778Y-94940543D01*
X187556845Y-94939683D01*
X187556842Y-94939682D01*
X187360140Y-94911162D01*
X187360137Y-94911162D01*
X187354200Y-94910301D01*
X187143667Y-94920045D01*
X187137843Y-94921449D01*
X187137840Y-94921449D01*
X186944607Y-94968018D01*
X186944605Y-94968019D01*
X186938774Y-94969424D01*
X186933316Y-94971906D01*
X186933312Y-94971907D01*
X186818706Y-95024016D01*
X186746916Y-95056657D01*
X186645973Y-95128261D01*
X186578400Y-95176194D01*
X186511266Y-95199292D01*
X186442301Y-95182428D01*
X186393402Y-95130956D01*
X186379500Y-95073424D01*
X186379500Y-94792420D01*
X186382049Y-94768472D01*
X186382128Y-94766807D01*
X186384320Y-94756624D01*
X186380373Y-94723277D01*
X186380023Y-94717346D01*
X186379928Y-94717354D01*
X186379500Y-94712176D01*
X186379500Y-94706976D01*
X186378208Y-94699212D01*
X186376331Y-94687935D01*
X186375494Y-94682057D01*
X186370694Y-94641499D01*
X186370694Y-94641498D01*
X186369470Y-94631159D01*
X186365507Y-94622907D01*
X186364004Y-94613874D01*
X186356355Y-94599697D01*
X186340242Y-94569836D01*
X186339665Y-94568766D01*
X186336969Y-94563475D01*
X186318213Y-94524413D01*
X186318209Y-94524407D01*
X186314781Y-94517268D01*
X186311187Y-94512992D01*
X186309248Y-94511053D01*
X186307492Y-94509138D01*
X186307445Y-94509052D01*
X186307567Y-94508939D01*
X186307095Y-94508404D01*
X186304010Y-94502686D01*
X186293185Y-94492679D01*
X186264427Y-94466096D01*
X186260861Y-94462666D01*
X185827593Y-94029398D01*
X185793567Y-93967086D01*
X185799822Y-93893205D01*
X185821591Y-93839190D01*
X185821594Y-93839181D01*
X185823834Y-93833622D01*
X185864229Y-93626771D01*
X185864500Y-93621230D01*
X185864500Y-92625841D01*
X185849507Y-92468694D01*
X185790177Y-92266458D01*
X185736939Y-92163090D01*
X185696422Y-92084421D01*
X185696420Y-92084418D01*
X185693676Y-92079090D01*
X185621198Y-91986821D01*
X185567192Y-91918068D01*
X185567188Y-91918064D01*
X185563486Y-91913351D01*
X185539832Y-91892825D01*
X185408835Y-91779150D01*
X185408830Y-91779146D01*
X185404304Y-91775219D01*
X185221874Y-91669681D01*
X185022778Y-91600543D01*
X185016845Y-91599683D01*
X185016842Y-91599682D01*
X184820140Y-91571162D01*
X184820137Y-91571162D01*
X184814200Y-91570301D01*
X184603667Y-91580045D01*
X184597843Y-91581449D01*
X184597840Y-91581449D01*
X184404607Y-91628018D01*
X184404605Y-91628019D01*
X184398774Y-91629424D01*
X184393316Y-91631906D01*
X184393312Y-91631907D01*
X184278706Y-91684016D01*
X184206916Y-91716657D01*
X184035014Y-91838596D01*
X183889272Y-91990840D01*
X183886021Y-91995875D01*
X183791766Y-92141851D01*
X183774948Y-92167897D01*
X183696166Y-92363378D01*
X183655771Y-92570229D01*
X183655500Y-92575770D01*
X183655500Y-93571159D01*
X183670493Y-93728306D01*
X183729823Y-93930542D01*
X183750394Y-93970483D01*
X183783180Y-94034140D01*
X183826324Y-94117910D01*
X183830028Y-94122625D01*
X183952808Y-94278932D01*
X183952812Y-94278936D01*
X183956514Y-94283649D01*
X183961044Y-94287580D01*
X183961045Y-94287581D01*
X184111165Y-94417850D01*
X184111170Y-94417854D01*
X184115696Y-94421781D01*
X184298126Y-94527319D01*
X184497222Y-94596457D01*
X184503155Y-94597317D01*
X184503158Y-94597318D01*
X184699860Y-94625838D01*
X184699863Y-94625838D01*
X184705800Y-94626699D01*
X184916333Y-94616955D01*
X184922157Y-94615551D01*
X184922160Y-94615551D01*
X185115401Y-94568980D01*
X185115403Y-94568979D01*
X185121226Y-94567576D01*
X185159390Y-94550224D01*
X185229677Y-94540236D01*
X185294209Y-94569836D01*
X185300635Y-94575829D01*
X185583595Y-94858789D01*
X185617621Y-94921101D01*
X185620500Y-94947884D01*
X185620500Y-95026662D01*
X185600498Y-95094783D01*
X185546842Y-95141276D01*
X185476568Y-95151380D01*
X185411919Y-95121827D01*
X185408835Y-95119150D01*
X185408830Y-95119146D01*
X185404304Y-95115219D01*
X185221874Y-95009681D01*
X185022778Y-94940543D01*
X185016845Y-94939683D01*
X185016842Y-94939682D01*
X184820140Y-94911162D01*
X184820137Y-94911162D01*
X184814200Y-94910301D01*
X184603667Y-94920045D01*
X184597843Y-94921449D01*
X184597840Y-94921449D01*
X184404607Y-94968018D01*
X184404605Y-94968019D01*
X184398774Y-94969424D01*
X184393316Y-94971906D01*
X184393312Y-94971907D01*
X184219593Y-95050893D01*
X184149303Y-95060879D01*
X184084771Y-95031279D01*
X184046487Y-94971489D01*
X184042316Y-94951004D01*
X184038854Y-94921759D01*
X184038504Y-94915826D01*
X184038408Y-94915834D01*
X184037980Y-94910656D01*
X184037980Y-94905456D01*
X184036355Y-94895694D01*
X184034811Y-94886415D01*
X184033974Y-94880537D01*
X184029174Y-94839979D01*
X184029174Y-94839978D01*
X184027950Y-94829639D01*
X184023987Y-94821387D01*
X184022484Y-94812354D01*
X183998145Y-94767246D01*
X183995449Y-94761955D01*
X183976695Y-94722898D01*
X183976692Y-94722894D01*
X183973261Y-94715748D01*
X183969666Y-94711472D01*
X183967743Y-94709549D01*
X183965971Y-94707617D01*
X183965928Y-94707538D01*
X183966052Y-94707425D01*
X183965576Y-94706885D01*
X183962490Y-94701166D01*
X183922893Y-94664563D01*
X183919328Y-94661134D01*
X183287592Y-94029398D01*
X183253566Y-93967086D01*
X183259821Y-93893205D01*
X183283834Y-93833622D01*
X183324229Y-93626771D01*
X183324500Y-93621230D01*
X183324500Y-92625841D01*
X183309507Y-92468694D01*
X183250177Y-92266458D01*
X183196939Y-92163090D01*
X183156422Y-92084421D01*
X183156420Y-92084418D01*
X183153676Y-92079090D01*
X183081198Y-91986821D01*
X183027192Y-91918068D01*
X183027188Y-91918064D01*
X183023486Y-91913351D01*
X182999832Y-91892825D01*
X182868835Y-91779150D01*
X182868830Y-91779146D01*
X182864304Y-91775219D01*
X182681874Y-91669681D01*
X182482778Y-91600543D01*
X182476845Y-91599683D01*
X182476842Y-91599682D01*
X182280140Y-91571162D01*
X182280137Y-91571162D01*
X182274200Y-91570301D01*
X182063667Y-91580045D01*
X182057843Y-91581449D01*
X182057840Y-91581449D01*
X181864607Y-91628018D01*
X181864605Y-91628019D01*
X181858774Y-91629424D01*
X181853316Y-91631906D01*
X181853312Y-91631907D01*
X181738706Y-91684016D01*
X181666916Y-91716657D01*
X181495014Y-91838596D01*
X181480054Y-91854224D01*
X181471019Y-91863662D01*
X181409464Y-91899039D01*
X181338554Y-91895521D01*
X181280804Y-91854224D01*
X181254547Y-91788261D01*
X181254000Y-91776532D01*
X181254000Y-86037425D01*
X181256421Y-86012844D01*
X181256555Y-86012170D01*
X181258976Y-86000000D01*
X181256555Y-85987828D01*
X181256555Y-85980246D01*
X181257162Y-85967896D01*
X181267118Y-85866812D01*
X181271935Y-85842592D01*
X181307187Y-85726383D01*
X181316631Y-85703582D01*
X181373876Y-85596483D01*
X181387594Y-85575953D01*
X181464626Y-85482091D01*
X181482091Y-85464626D01*
X181575953Y-85387594D01*
X181596483Y-85373876D01*
X181703582Y-85316631D01*
X181726383Y-85307187D01*
X181842592Y-85271935D01*
X181866812Y-85267118D01*
X181967896Y-85257162D01*
X181980246Y-85256555D01*
X181987828Y-85256555D01*
X182000000Y-85258976D01*
X182012847Y-85256421D01*
X182037425Y-85254000D01*
X217962575Y-85254000D01*
X217987153Y-85256421D01*
G37*
%TD.AperFunction*%
%TD*%
M02*
