%TF.GenerationSoftware,KiCad,Pcbnew,6.0.0-rc2-unknown-fe148df57e~144~ubuntu20.04.1*%
%TF.CreationDate,2021-12-26T07:15:28-08:00*%
%TF.ProjectId,micromod-pmod-function,6d696372-6f6d-46f6-942d-706d6f642d66,rev?*%
%TF.SameCoordinates,Original*%
%TF.FileFunction,Soldermask,Bot*%
%TF.FilePolarity,Negative*%
%FSLAX46Y46*%
G04 Gerber Fmt 4.6, Leading zero omitted, Abs format (unit mm)*
G04 Created by KiCad (PCBNEW 6.0.0-rc2-unknown-fe148df57e~144~ubuntu20.04.1) date 2021-12-26 07:15:28*
%MOMM*%
%LPD*%
G01*
G04 APERTURE LIST*
%ADD10O,1.700000X2.540000*%
%ADD11R,0.350000X2.500000*%
G04 APERTURE END LIST*
D10*
%TO.C,J3*%
X205080000Y-96438500D03*
X207620000Y-96438500D03*
X210160000Y-96438500D03*
X212700000Y-96438500D03*
X215240000Y-96438500D03*
X217780000Y-96438500D03*
X205080000Y-93098500D03*
X207620000Y-93098500D03*
X210160000Y-93098500D03*
X212700000Y-93098500D03*
X215240000Y-93098500D03*
X217780000Y-93098500D03*
%TD*%
D11*
%TO.C,J1*%
X209000000Y-148750000D03*
X208500000Y-148750000D03*
X208000000Y-148750000D03*
X207500000Y-148750000D03*
X207000000Y-148750000D03*
X206500000Y-148750000D03*
X206000000Y-148750000D03*
X205500000Y-148750000D03*
X205000000Y-148750000D03*
X204500000Y-148750000D03*
X204000000Y-148750000D03*
X201500000Y-148750000D03*
X201000000Y-148750000D03*
X200500000Y-148750000D03*
X200000000Y-148750000D03*
X199500000Y-148750000D03*
X199000000Y-148750000D03*
X198500000Y-148750000D03*
X198000000Y-148750000D03*
X197500000Y-148750000D03*
X197000000Y-148750000D03*
X196500000Y-148750000D03*
X196000000Y-148750000D03*
X195500000Y-148750000D03*
X195000000Y-148750000D03*
X194500000Y-148750000D03*
X194000000Y-148750000D03*
X193500000Y-148750000D03*
X193000000Y-148750000D03*
X192500000Y-148750000D03*
X192000000Y-148750000D03*
X191500000Y-148750000D03*
X191000000Y-148750000D03*
%TD*%
D10*
%TO.C,J2*%
X182220000Y-96438500D03*
X184760000Y-96438500D03*
X187300000Y-96438500D03*
X189840000Y-96438500D03*
X192380000Y-96438500D03*
X194920000Y-96438500D03*
X182220000Y-93098500D03*
X184760000Y-93098500D03*
X187300000Y-93098500D03*
X189840000Y-93098500D03*
X192380000Y-93098500D03*
X194920000Y-93098500D03*
%TD*%
M02*
