%TF.GenerationSoftware,KiCad,Pcbnew,6.0.0-rc2-unknown-fe148df57e~144~ubuntu20.04.1*%
%TF.CreationDate,2021-12-26T07:15:28-08:00*%
%TF.ProjectId,micromod-pmod-function,6d696372-6f6d-46f6-942d-706d6f642d66,rev?*%
%TF.SameCoordinates,Original*%
%TF.FileFunction,Copper,L1,Top*%
%TF.FilePolarity,Positive*%
%FSLAX46Y46*%
G04 Gerber Fmt 4.6, Leading zero omitted, Abs format (unit mm)*
G04 Created by KiCad (PCBNEW 6.0.0-rc2-unknown-fe148df57e~144~ubuntu20.04.1) date 2021-12-26 07:15:28*
%MOMM*%
%LPD*%
G01*
G04 APERTURE LIST*
G04 Aperture macros list*
%AMRoundRect*
0 Rectangle with rounded corners*
0 $1 Rounding radius*
0 $2 $3 $4 $5 $6 $7 $8 $9 X,Y pos of 4 corners*
0 Add a 4 corners polygon primitive as box body*
4,1,4,$2,$3,$4,$5,$6,$7,$8,$9,$2,$3,0*
0 Add four circle primitives for the rounded corners*
1,1,$1+$1,$2,$3*
1,1,$1+$1,$4,$5*
1,1,$1+$1,$6,$7*
1,1,$1+$1,$8,$9*
0 Add four rect primitives between the rounded corners*
20,1,$1+$1,$2,$3,$4,$5,0*
20,1,$1+$1,$4,$5,$6,$7,0*
20,1,$1+$1,$6,$7,$8,$9,0*
20,1,$1+$1,$8,$9,$2,$3,0*%
G04 Aperture macros list end*
%TA.AperFunction,SMDPad,CuDef*%
%ADD10R,0.650000X1.060000*%
%TD*%
%TA.AperFunction,ComponentPad*%
%ADD11O,1.700000X2.540000*%
%TD*%
%TA.AperFunction,SMDPad,CuDef*%
%ADD12RoundRect,0.250000X0.325000X0.450000X-0.325000X0.450000X-0.325000X-0.450000X0.325000X-0.450000X0*%
%TD*%
%TA.AperFunction,SMDPad,CuDef*%
%ADD13R,0.350000X2.000000*%
%TD*%
%TA.AperFunction,SMDPad,CuDef*%
%ADD14R,1.981200X0.558800*%
%TD*%
%TA.AperFunction,SMDPad,CuDef*%
%ADD15RoundRect,0.250000X-0.325000X-0.450000X0.325000X-0.450000X0.325000X0.450000X-0.325000X0.450000X0*%
%TD*%
%TA.AperFunction,SMDPad,CuDef*%
%ADD16RoundRect,0.243750X-0.243750X-0.456250X0.243750X-0.456250X0.243750X0.456250X-0.243750X0.456250X0*%
%TD*%
%TA.AperFunction,ViaPad*%
%ADD17C,0.400000*%
%TD*%
%TA.AperFunction,Conductor*%
%ADD18C,0.250000*%
%TD*%
%TA.AperFunction,Conductor*%
%ADD19C,0.500000*%
%TD*%
%TA.AperFunction,Conductor*%
%ADD20C,1.000000*%
%TD*%
G04 APERTURE END LIST*
D10*
%TO.P,U2,1,VIN*%
%TO.N,VCC*%
X190050000Y-139100000D03*
%TO.P,U2,2,GND*%
%TO.N,GND*%
X191000000Y-139100000D03*
%TO.P,U2,3,EN*%
%TO.N,/PWR_EN*%
X191950000Y-139100000D03*
%TO.P,U2,4,NC*%
%TO.N,unconnected-(U2-Pad4)*%
X191950000Y-136900000D03*
%TO.P,U2,5,VOUT*%
%TO.N,+3V3*%
X190050000Y-136900000D03*
%TD*%
D11*
%TO.P,J3,1,D0*%
%TO.N,/CTS*%
X205080000Y-96438500D03*
%TO.P,J3,2,D1*%
%TO.N,/SDO*%
X207620000Y-96438500D03*
%TO.P,J3,3,D2*%
%TO.N,/SDI*%
X210160000Y-96438500D03*
%TO.P,J3,4,D3*%
%TO.N,/SCK*%
X212700000Y-96438500D03*
%TO.P,J3,5,GND1*%
%TO.N,GND*%
X215240000Y-96438500D03*
%TO.P,J3,6,VCC1*%
%TO.N,+3V3*%
X217780000Y-96438500D03*
%TO.P,J3,7,D4*%
%TO.N,/RX*%
X205080000Y-93098500D03*
%TO.P,J3,8,D5*%
%TO.N,/TX*%
X207620000Y-93098500D03*
%TO.P,J3,9,D6*%
%TO.N,SCL*%
X210160000Y-93098500D03*
%TO.P,J3,10,D7*%
%TO.N,SDA*%
X212700000Y-93098500D03*
%TO.P,J3,11,GND2*%
%TO.N,GND*%
X215240000Y-93098500D03*
%TO.P,J3,12,VCC2*%
%TO.N,+3V3*%
X217780000Y-93098500D03*
%TD*%
D12*
%TO.P,C2,1*%
%TO.N,+3V3*%
X189000000Y-134000000D03*
%TO.P,C2,2*%
%TO.N,GND*%
X186950000Y-134000000D03*
%TD*%
D13*
%TO.P,J1,1,GND*%
%TO.N,GND*%
X209250000Y-149000000D03*
%TO.P,J1,3,SPI_SCK*%
%TO.N,/SCK*%
X208750000Y-149000000D03*
%TO.P,J1,5,SPI_SDI*%
%TO.N,/SDI*%
X208250000Y-149000000D03*
%TO.P,J1,7,SPI_SDO*%
%TO.N,/SDO*%
X207750000Y-149000000D03*
%TO.P,J1,9*%
%TO.N,N/C*%
X207250000Y-149000000D03*
%TO.P,J1,11*%
X206750000Y-149000000D03*
%TO.P,J1,13,TX*%
%TO.N,/TX*%
X206250000Y-149000000D03*
%TO.P,J1,15,RX*%
%TO.N,/RX*%
X205750000Y-149000000D03*
%TO.P,J1,17*%
%TO.N,N/C*%
X205250000Y-149000000D03*
%TO.P,J1,19,I2C_SDA*%
%TO.N,SDA*%
X204750000Y-149000000D03*
%TO.P,J1,21,I2C_SCL*%
%TO.N,SCL*%
X204250000Y-149000000D03*
%TO.P,J1,23,I2C_~{INT}*%
%TO.N,unconnected-(J1-Pad23)*%
X203750000Y-149000000D03*
%TO.P,J1,33,GND*%
%TO.N,GND*%
X201250000Y-149000000D03*
%TO.P,J1,35,USBHOST_D+*%
%TO.N,unconnected-(J1-Pad35)*%
X200750000Y-149000000D03*
%TO.P,J1,37,USBHOST_D-*%
%TO.N,unconnected-(J1-Pad37)*%
X200250000Y-149000000D03*
%TO.P,J1,39,GND*%
%TO.N,GND*%
X199750000Y-149000000D03*
%TO.P,J1,41,CAN-RX*%
%TO.N,unconnected-(J1-Pad41)*%
X199250000Y-149000000D03*
%TO.P,J1,43,CAN-TX*%
%TO.N,unconnected-(J1-Pad43)*%
X198750000Y-149000000D03*
%TO.P,J1,45,GND*%
%TO.N,GND*%
X198250000Y-149000000D03*
%TO.P,J1,47,F0/~{INT}*%
%TO.N,/D0*%
X197750000Y-149000000D03*
%TO.P,J1,49,F1/~{CS}*%
%TO.N,/D1*%
X197250000Y-149000000D03*
%TO.P,J1,51,F2/PWM*%
%TO.N,/D2*%
X196750000Y-149000000D03*
%TO.P,J1,53,F3*%
%TO.N,/D3*%
X196250000Y-149000000D03*
%TO.P,J1,55,F4*%
%TO.N,/D4*%
X195750000Y-149000000D03*
%TO.P,J1,57,F5*%
%TO.N,/D5*%
X195250000Y-149000000D03*
%TO.P,J1,59,F6*%
%TO.N,/D6*%
X194750000Y-149000000D03*
%TO.P,J1,61,F7*%
%TO.N,/D7*%
X194250000Y-149000000D03*
%TO.P,J1,63*%
%TO.N,N/C*%
X193750000Y-149000000D03*
%TO.P,J1,65*%
X193250000Y-149000000D03*
%TO.P,J1,67*%
X192750000Y-149000000D03*
%TO.P,J1,69*%
X192250000Y-149000000D03*
%TO.P,J1,71,PWR_EN*%
%TO.N,/PWR_EN*%
X191750000Y-149000000D03*
%TO.P,J1,73,3.3V*%
%TO.N,unconnected-(J1-Pad73)*%
X191250000Y-149000000D03*
%TO.P,J1,75,GND*%
%TO.N,GND*%
X190750000Y-149000000D03*
%TD*%
D11*
%TO.P,J2,1,D0*%
%TO.N,/D0*%
X182220000Y-96438500D03*
%TO.P,J2,2,D1*%
%TO.N,/D1*%
X184760000Y-96438500D03*
%TO.P,J2,3,D2*%
%TO.N,/D2*%
X187300000Y-96438500D03*
%TO.P,J2,4,D3*%
%TO.N,/D3*%
X189840000Y-96438500D03*
%TO.P,J2,5,GND1*%
%TO.N,GND*%
X192380000Y-96438500D03*
%TO.P,J2,6,VCC1*%
%TO.N,+3V3*%
X194920000Y-96438500D03*
%TO.P,J2,7,D4*%
%TO.N,/D4*%
X182220000Y-93098500D03*
%TO.P,J2,8,D5*%
%TO.N,/D5*%
X184760000Y-93098500D03*
%TO.P,J2,9,D6*%
%TO.N,/D6*%
X187300000Y-93098500D03*
%TO.P,J2,10,D7*%
%TO.N,/D7*%
X189840000Y-93098500D03*
%TO.P,J2,11,GND2*%
%TO.N,GND*%
X192380000Y-93098500D03*
%TO.P,J2,12,VCC2*%
%TO.N,+3V3*%
X194920000Y-93098500D03*
%TD*%
D14*
%TO.P,U1,1,A0*%
%TO.N,/A0*%
X202637800Y-135095000D03*
%TO.P,U1,2,A1*%
%TO.N,/A1*%
X202637800Y-136365000D03*
%TO.P,U1,3,A2*%
%TO.N,/A2*%
X202637800Y-137635000D03*
%TO.P,U1,4,VSS*%
%TO.N,GND*%
X202637800Y-138905000D03*
%TO.P,U1,5,SDA*%
%TO.N,SDA*%
X207362200Y-138905000D03*
%TO.P,U1,6,SCL*%
%TO.N,SCL*%
X207362200Y-137635000D03*
%TO.P,U1,7,WP*%
%TO.N,GND*%
X207362200Y-136365000D03*
%TO.P,U1,8,VCC*%
%TO.N,+3V3*%
X207362200Y-135095000D03*
%TD*%
D15*
%TO.P,C1,1*%
%TO.N,GND*%
X186975000Y-142000000D03*
%TO.P,C1,2*%
%TO.N,VCC*%
X189025000Y-142000000D03*
%TD*%
D12*
%TO.P,C4,1*%
%TO.N,+3V3*%
X218000000Y-100000000D03*
%TO.P,C4,2*%
%TO.N,GND*%
X215950000Y-100000000D03*
%TD*%
D16*
%TO.P,R1,1*%
%TO.N,/PWR_EN*%
X193125000Y-142000000D03*
%TO.P,R1,2*%
%TO.N,VCC*%
X195000000Y-142000000D03*
%TD*%
D15*
%TO.P,C5,1*%
%TO.N,+3V3*%
X209975000Y-135000000D03*
%TO.P,C5,2*%
%TO.N,GND*%
X212025000Y-135000000D03*
%TD*%
D12*
%TO.P,C3,1*%
%TO.N,+3V3*%
X195025000Y-100000000D03*
%TO.P,C3,2*%
%TO.N,GND*%
X192975000Y-100000000D03*
%TD*%
D17*
%TO.N,GND*%
X206000000Y-136500000D03*
X191000000Y-140000000D03*
X186000000Y-134000000D03*
X215000000Y-100000000D03*
X186000000Y-142000000D03*
X212000000Y-133500000D03*
X209500000Y-146500000D03*
X193000000Y-101000000D03*
X189500000Y-145500000D03*
X202500000Y-140000000D03*
X199500000Y-147000000D03*
X202500000Y-145000000D03*
%TO.N,VCC*%
X190500000Y-143500000D03*
X191000000Y-144000000D03*
%TO.N,+3V3*%
X204767200Y-132500000D03*
X190500000Y-132500000D03*
%TO.N,/SCK*%
X213000000Y-103500000D03*
X215000000Y-105500000D03*
%TO.N,/SDI*%
X213500000Y-106000000D03*
X210500000Y-106000000D03*
%TO.N,/SDO*%
X208500000Y-134000000D03*
X208500000Y-140000000D03*
X211000000Y-108500000D03*
X208000000Y-108500000D03*
%TO.N,/TX*%
X206000000Y-146000000D03*
X203500000Y-143500000D03*
%TO.N,/RX*%
X205500000Y-146500000D03*
X204000000Y-145000000D03*
%TO.N,/CTS*%
X205000000Y-134000000D03*
X205000000Y-130500000D03*
X204000000Y-146000000D03*
%TO.N,SDA*%
X214000000Y-105500000D03*
X211500000Y-104500000D03*
X213000000Y-139000000D03*
X214000000Y-139000000D03*
%TO.N,SCL*%
X209000000Y-107000000D03*
X212500000Y-107000000D03*
%TO.N,/D0*%
X199500000Y-108000000D03*
X184500000Y-108000000D03*
%TO.N,/D1*%
X185000000Y-109000000D03*
X199000000Y-109000000D03*
%TO.N,/D2*%
X198500000Y-109500000D03*
X187500000Y-109500000D03*
%TO.N,/D3*%
X188000000Y-110000000D03*
X198000000Y-110000000D03*
%TO.N,/D4*%
X196000000Y-107500000D03*
%TO.N,/D5*%
X195500000Y-107000000D03*
%TO.N,/D6*%
X195000000Y-106500000D03*
%TO.N,/D7*%
X194500000Y-106000000D03*
%TO.N,/A2*%
X201000000Y-138000000D03*
%TO.N,/A1*%
X200462835Y-137600142D03*
%TO.N,/A0*%
X200000000Y-136500000D03*
%TD*%
D18*
%TO.N,GND*%
X199750000Y-149000000D02*
X199750000Y-147250000D01*
D19*
X206135000Y-136365000D02*
X206000000Y-136500000D01*
X212025000Y-133525000D02*
X212000000Y-133500000D01*
D18*
X201250000Y-146250000D02*
X202500000Y-145000000D01*
X190500000Y-147000000D02*
X190500000Y-146000000D01*
X199000000Y-147000000D02*
X199500000Y-147000000D01*
X190750000Y-149000000D02*
X190750000Y-147250000D01*
D19*
X207362200Y-136365000D02*
X206135000Y-136365000D01*
D18*
X209250000Y-149000000D02*
X209250000Y-146750000D01*
D19*
X192975000Y-100975000D02*
X193000000Y-101000000D01*
D18*
X190500000Y-147000000D02*
X190750000Y-147250000D01*
X199750000Y-147250000D02*
X199500000Y-147000000D01*
D19*
X202637800Y-139862200D02*
X202500000Y-140000000D01*
X212025000Y-135000000D02*
X212025000Y-133525000D01*
X191000000Y-139100000D02*
X191000000Y-140000000D01*
D18*
X209250000Y-146750000D02*
X209500000Y-146500000D01*
X190500000Y-146000000D02*
X190000000Y-145500000D01*
D19*
X215950000Y-100000000D02*
X215000000Y-100000000D01*
X186950000Y-134000000D02*
X186000000Y-134000000D01*
D18*
X198250000Y-147750000D02*
X199000000Y-147000000D01*
X201250000Y-149000000D02*
X201250000Y-146250000D01*
D19*
X202637800Y-138905000D02*
X202637800Y-139862200D01*
D18*
X198250000Y-149000000D02*
X198250000Y-147750000D01*
X190000000Y-145500000D02*
X189500000Y-145500000D01*
D19*
X192975000Y-100000000D02*
X192975000Y-100975000D01*
X186975000Y-142000000D02*
X186000000Y-142000000D01*
D20*
%TO.N,VCC*%
X189025000Y-142025000D02*
X191000000Y-144000000D01*
X189025000Y-140125000D02*
X190048489Y-139101511D01*
X189025000Y-142000000D02*
X189025000Y-140125000D01*
D19*
X193000000Y-144000000D02*
X191000000Y-144000000D01*
D20*
X189025000Y-142000000D02*
X189025000Y-142025000D01*
D19*
X195000000Y-142000000D02*
X193000000Y-144000000D01*
D20*
%TO.N,+3V3*%
X189000000Y-134000000D02*
X190500000Y-132500000D01*
X207457200Y-135000000D02*
X207362200Y-135095000D01*
X205849501Y-131417699D02*
X204767200Y-132500000D01*
X218000000Y-100000000D02*
X218000000Y-96258500D01*
X194920000Y-93498500D02*
X194920000Y-96038500D01*
X218000000Y-96258500D02*
X217780000Y-96038500D01*
X189000000Y-110062798D02*
X195000000Y-104062798D01*
X190050000Y-136900000D02*
X190050000Y-135050000D01*
X217780000Y-96406614D02*
X217780000Y-96038500D01*
X207362200Y-135095000D02*
X204767200Y-132500000D01*
X190050000Y-135050000D02*
X189000000Y-134000000D01*
X218000000Y-100000000D02*
X205849501Y-112150499D01*
X217780000Y-93498500D02*
X217780000Y-96038500D01*
X209975000Y-135000000D02*
X207457200Y-135000000D01*
X195000000Y-96118500D02*
X194920000Y-96038500D01*
X205849501Y-112150499D02*
X205849501Y-131417699D01*
X189000000Y-134000000D02*
X189000000Y-110062798D01*
X195000000Y-104062798D02*
X195000000Y-96118500D01*
D18*
%TO.N,/SCK*%
X212700000Y-103200000D02*
X213000000Y-103500000D01*
X208750000Y-146250000D02*
X208750000Y-149000000D01*
X215000000Y-140000000D02*
X208750000Y-146250000D01*
X215000000Y-105500000D02*
X215000000Y-140000000D01*
X212700000Y-96038500D02*
X212700000Y-103200000D01*
%TO.N,/SDI*%
X213500000Y-140967534D02*
X208250000Y-146217534D01*
X210160000Y-96038500D02*
X210160000Y-105660000D01*
X210160000Y-105660000D02*
X210500000Y-106000000D01*
X213500000Y-106000000D02*
X213500000Y-140967534D01*
X208250000Y-146217534D02*
X208250000Y-149000000D01*
%TO.N,/SDO*%
X211000000Y-108500000D02*
X208500000Y-111000000D01*
X207620000Y-96038500D02*
X207620000Y-108120000D01*
X208500000Y-111000000D02*
X208500000Y-134000000D01*
X208500000Y-140000000D02*
X207750000Y-140750000D01*
X207620000Y-108120000D02*
X208000000Y-108500000D01*
X207750000Y-140750000D02*
X207750000Y-149000000D01*
%TO.N,/TX*%
X206000000Y-146000000D02*
X206250000Y-146250000D01*
X204000000Y-143000000D02*
X203500000Y-143500000D01*
X203000000Y-93200716D02*
X203000000Y-94000000D01*
X206250000Y-146250000D02*
X206250000Y-149000000D01*
X203000000Y-133684178D02*
X204000000Y-134684178D01*
X207620000Y-93498500D02*
X205698480Y-91576980D01*
X205698480Y-91576980D02*
X204623736Y-91576980D01*
X203000000Y-94000000D02*
X203000000Y-133684178D01*
X204000000Y-134684178D02*
X204000000Y-140000000D01*
X204000000Y-140000000D02*
X204000000Y-143000000D01*
X204623736Y-91576980D02*
X203000000Y-93200716D01*
%TO.N,/RX*%
X205750000Y-146750000D02*
X205750000Y-149000000D01*
X204376511Y-144623489D02*
X204000000Y-145000000D01*
X204376511Y-134528223D02*
X204376511Y-144623489D01*
X205500000Y-146500000D02*
X205750000Y-146750000D01*
X203978480Y-134130192D02*
X204376511Y-134528223D01*
X205080000Y-93498500D02*
X203978480Y-94600020D01*
X203978480Y-94600020D02*
X203978480Y-134130192D01*
%TO.N,/CTS*%
X205080000Y-96038500D02*
X205080000Y-130420000D01*
X205080000Y-130420000D02*
X205000000Y-130500000D01*
X205000000Y-134000000D02*
X205000000Y-145000000D01*
X205000000Y-145000000D02*
X204000000Y-146000000D01*
%TO.N,SDA*%
X204750000Y-146453513D02*
X204750000Y-149000000D01*
X207362200Y-138905000D02*
X207362200Y-143841313D01*
X212700000Y-93498500D02*
X211500000Y-94698500D01*
X212905000Y-138905000D02*
X207362200Y-138905000D01*
X211500000Y-94698500D02*
X211500000Y-104500000D01*
X214000000Y-105500000D02*
X214000000Y-139000000D01*
X213000000Y-139000000D02*
X212905000Y-138905000D01*
X207362200Y-143841313D02*
X204750000Y-146453513D01*
%TO.N,SCL*%
X212851520Y-107351520D02*
X212851520Y-135657736D01*
X212851520Y-135657736D02*
X210874256Y-137635000D01*
X205376511Y-145294536D02*
X204250000Y-146421047D01*
X204250000Y-146421047D02*
X204250000Y-149000000D01*
X210160000Y-93498500D02*
X209000000Y-94658500D01*
X206651000Y-137635000D02*
X205376511Y-138909489D01*
X210874256Y-137635000D02*
X207362200Y-137635000D01*
X207362200Y-137635000D02*
X206651000Y-137635000D01*
X205376511Y-138909489D02*
X205376511Y-145294536D01*
X212500000Y-107000000D02*
X212851520Y-107351520D01*
X209000000Y-94658500D02*
X209000000Y-107000000D01*
%TO.N,/D0*%
X200376511Y-138214166D02*
X199500000Y-137337655D01*
X199500000Y-137337655D02*
X199500000Y-108000000D01*
X184500000Y-98318500D02*
X182220000Y-96038500D01*
X197750000Y-149000000D02*
X197750000Y-147717534D01*
X184500000Y-108000000D02*
X184500000Y-98318500D01*
X197750000Y-147717534D02*
X200376511Y-145091023D01*
X200376511Y-145091023D02*
X200376511Y-138214166D01*
%TO.N,/D1*%
X197250000Y-149000000D02*
X197250000Y-147685068D01*
X199882551Y-138252680D02*
X199000000Y-137370129D01*
X185000000Y-96278500D02*
X184760000Y-96038500D01*
X199882551Y-145052517D02*
X199882551Y-138252680D01*
X185000000Y-109000000D02*
X185000000Y-96278500D01*
X197250000Y-147685068D02*
X199882551Y-145052517D01*
X199000000Y-137370129D02*
X199000000Y-109000000D01*
%TO.N,/D2*%
X196750000Y-149000000D02*
X196750000Y-147652604D01*
X187300000Y-109300000D02*
X187300000Y-96038500D01*
X196750000Y-147652604D02*
X199506040Y-144896564D01*
X199506040Y-138408642D02*
X198500000Y-137402602D01*
X199506040Y-144896564D02*
X199506040Y-138408642D01*
X198500000Y-137402602D02*
X198500000Y-109500000D01*
X187500000Y-109500000D02*
X187300000Y-109300000D01*
%TO.N,/D3*%
X196250000Y-147620137D02*
X199129529Y-144740608D01*
X199129529Y-138564597D02*
X198000000Y-137435068D01*
X198000000Y-137435068D02*
X198000000Y-110000000D01*
X189840000Y-108160000D02*
X189840000Y-96038500D01*
X188000000Y-110000000D02*
X189840000Y-108160000D01*
X199129529Y-144740608D02*
X199129529Y-138564597D01*
X196250000Y-149000000D02*
X196250000Y-147620137D01*
%TO.N,/D4*%
X198753018Y-144584652D02*
X198753018Y-138720552D01*
X198753018Y-138720552D02*
X196000000Y-135967534D01*
X195750000Y-147587670D02*
X198753018Y-144584652D01*
X196000000Y-135967534D02*
X196000000Y-107500000D01*
X195750000Y-149000000D02*
X195750000Y-147587670D01*
%TO.N,/D5*%
X195250000Y-147555198D02*
X195250000Y-149000000D01*
X198376507Y-138876507D02*
X198376507Y-144428691D01*
X198376507Y-144428691D02*
X195250000Y-147555198D01*
X195500000Y-107000000D02*
X195500000Y-136000000D01*
X195500000Y-136000000D02*
X198376507Y-138876507D01*
%TO.N,/D6*%
X194750000Y-149000000D02*
X194750000Y-147522732D01*
X197876510Y-139344044D02*
X195000000Y-136467534D01*
X195000000Y-136467534D02*
X195000000Y-106500000D01*
X197876510Y-144396222D02*
X197876510Y-139344044D01*
X194750000Y-147522732D02*
X197876510Y-144396222D01*
%TO.N,/D7*%
X194250000Y-147250000D02*
X194250000Y-149000000D01*
X197500000Y-139500000D02*
X197500000Y-144000000D01*
X194500000Y-136500000D02*
X197500000Y-139500000D01*
X197500000Y-144000000D02*
X194250000Y-147250000D01*
X194500000Y-106000000D02*
X194500000Y-136500000D01*
D19*
%TO.N,/PWR_EN*%
X193125000Y-142000000D02*
X193125000Y-140625000D01*
D18*
X195625000Y-140625000D02*
X193125000Y-140625000D01*
X194709256Y-143000000D02*
X195500000Y-143000000D01*
X195500000Y-143000000D02*
X196000000Y-142500000D01*
X196000000Y-142500000D02*
X196000000Y-141000000D01*
X191750000Y-149000000D02*
X191750000Y-145959256D01*
D19*
X193125000Y-140625000D02*
X193125000Y-140275000D01*
X193125000Y-140275000D02*
X191950000Y-139100000D01*
D18*
X191750000Y-145959256D02*
X194709256Y-143000000D01*
X196000000Y-141000000D02*
X195625000Y-140625000D01*
%TO.N,/A2*%
X202637800Y-137635000D02*
X201365000Y-137635000D01*
X201365000Y-137635000D02*
X201000000Y-138000000D01*
%TO.N,/A1*%
X201697977Y-136365000D02*
X202637800Y-136365000D01*
X200462835Y-137600142D02*
X201697977Y-136365000D01*
%TO.N,/A0*%
X201405000Y-135095000D02*
X200000000Y-136500000D01*
X202637800Y-135095000D02*
X201405000Y-135095000D01*
%TD*%
M02*
