M48
; DRILL file {KiCad 6.0.0-rc2-unknown-fe148df57e~144~ubuntu20.04.1} date Sun 26 Dec 2021 07:15:33 AM
; FORMAT={-:-/ absolute / inch / decimal}
; #@! TF.CreationDate,2021-12-26T07:15:33-08:00
; #@! TF.GenerationSoftware,Kicad,Pcbnew,6.0.0-rc2-unknown-fe148df57e~144~ubuntu20.04.1
; #@! TF.FileFunction,Plated,1,2,PTH
FMAT,2
INCH
; #@! TA.AperFunction,Plated,PTH,ViaDrill
T1C0.0079
; #@! TA.AperFunction,Plated,PTH,ComponentDrill
T2C0.0394
%
G90
G05
T1
X7.2638Y-4.252
X7.2835Y-4.2913
X7.3228Y-5.2756
X7.3228Y-5.5906
X7.3819Y-4.311
X7.4016Y-4.3307
X7.4606Y-5.7283
X7.5Y-5.2165
X7.5Y-5.6496
X7.5197Y-5.5118
X7.5197Y-5.6693
X7.5984Y-3.9764
X7.6575Y-4.1732
X7.6772Y-4.1929
X7.6969Y-4.2126
X7.7165Y-4.2323
X7.7953Y-4.3307
X7.815Y-4.311
X7.8346Y-4.2913
X7.8543Y-4.252
X7.8543Y-5.7874
X7.874Y-5.374
X7.8922Y-5.4173
X7.9134Y-5.4331
X7.9724Y-5.5118
X7.9724Y-5.7087
X8.0118Y-5.6496
X8.0315Y-5.7087
X8.0315Y-5.748
X8.0617Y-5.2165
X8.0709Y-5.1378
X8.0709Y-5.2756
X8.0906Y-5.7677
X8.1102Y-5.374
X8.1102Y-5.748
X8.189Y-4.2717
X8.2087Y-5.2756
X8.2087Y-5.5118
X8.2283Y-4.2126
X8.248Y-5.7677
X8.2874Y-4.1732
X8.3071Y-4.2717
X8.3268Y-4.1142
X8.3465Y-5.2559
X8.3661Y-4.2126
X8.3858Y-4.0748
X8.3858Y-5.4724
X8.4055Y-4.1732
X8.4252Y-4.1535
X8.4252Y-5.4724
X8.4646Y-3.937
X8.4646Y-4.1535
T2
X7.174Y-3.681
X7.174Y-3.781
X7.274Y-3.681
X7.274Y-3.781
X7.374Y-3.681
X7.374Y-3.781
X7.474Y-3.681
X7.474Y-3.781
X7.574Y-3.681
X7.574Y-3.781
X7.674Y-3.681
X7.674Y-3.781
X8.074Y-3.681
X8.074Y-3.781
X8.174Y-3.681
X8.174Y-3.781
X8.274Y-3.681
X8.274Y-3.781
X8.374Y-3.681
X8.374Y-3.781
X8.474Y-3.681
X8.474Y-3.781
X8.574Y-3.681
X8.574Y-3.781
T0
M30
