  0
SECTION
  2
HEADER
  9
$ANGBASE
  50
0.0
  9
$ANGDIR
  70
1
  9
$MEASUREMENT
  70
0
  0
ENDSEC
  0
SECTION
  2
TABLES
  0
TABLE
  2
LTYPE
  70
4
  0
LTYPE
  5
40F
  2
CONTINUOUS
  70
0
  3
Solid line
  72
65
  73
0
  40
0.0
  0
LTYPE
  5
410
  2
DASHDOT
 70
0
  3
Dash Dot ____ _ ____ _
 72
65
 73
4
 40
2.0
 49
1.25
 49
-0.25
 49
0.25
 49
-0.25
  0
LTYPE
  5
411
  2
DASHED
 70
0
  3
Dashed __ __ __ __ __
 72
65
 73
2
 40
0.75
 49
0.5
 49
-0.25
  0
LTYPE
  5
43B
  2
DOTTED
 70
0
  3
Dotted .  .  .  .
 72
65
 73
2
 40
0.2
 49
0.0
 49
-0.2
  0
ENDTAB
  0
TABLE
  2
STYLE
  70
4
  0
STYLE
  2
KICAD
  70
0
  40
0
  41
1
  42
1
  50
0
  71
0
  3
isocp.shx
  0
STYLE
  2
KICADB
  70
0
  40
0
  41
1
  42
1
  50
0
  71
0
  3
isocp.shx
  0
STYLE
  2
KICADI
  70
0
  40
0
  41
1
  42
1
  50
15
  71
0
  3
isocp.shx
  0
STYLE
  2
KICADBI
  70
0
  40
0
  41
1
  42
1
  50
15
  71
0
  3
isocp.shx
  0
ENDTAB
  0
TABLE
  2
LAYER
  70
35
  0
LAYER
  2
BLACK
  70
0
  62
7
  6
CONTINUOUS
  0
LAYER
  2
GRAY1
  70
0
  62
251
  6
CONTINUOUS
  0
LAYER
  2
GRAY2
  70
0
  62
8
  6
CONTINUOUS
  0
LAYER
  2
GRAY3
  70
0
  62
9
  6
CONTINUOUS
  0
LAYER
  2
WHITE
  70
0
  62
7
  6
CONTINUOUS
  0
LAYER
  2
LYELLOW
  70
0
  62
51
  6
CONTINUOUS
  0
LAYER
  2
LORANGE
  70
0
  62
41
  6
CONTINUOUS
  0
LAYER
  2
BLUE1
  70
0
  62
178
  6
CONTINUOUS
  0
LAYER
  2
GREEN1
  70
0
  62
98
  6
CONTINUOUS
  0
LAYER
  2
CYAN1
  70
0
  62
138
  6
CONTINUOUS
  0
LAYER
  2
RED1
  70
0
  62
18
  6
CONTINUOUS
  0
LAYER
  2
MAGENTA1
  70
0
  62
228
  6
CONTINUOUS
  0
LAYER
  2
BROWN1
  70
0
  62
58
  6
CONTINUOUS
  0
LAYER
  2
ORANGE1
  70
0
  62
34
  6
CONTINUOUS
  0
LAYER
  2
BLUE2
  70
0
  62
5
  6
CONTINUOUS
  0
LAYER
  2
GREEN2
  70
0
  62
3
  6
CONTINUOUS
  0
LAYER
  2
CYAN2
  70
0
  62
4
  6
CONTINUOUS
  0
LAYER
  2
RED2
  70
0
  62
1
  6
CONTINUOUS
  0
LAYER
  2
MAGENTA2
  70
0
  62
6
  6
CONTINUOUS
  0
LAYER
  2
BROWN2
  70
0
  62
54
  6
CONTINUOUS
  0
LAYER
  2
ORANGE2
  70
0
  62
42
  6
CONTINUOUS
  0
LAYER
  2
BLUE3
  70
0
  62
171
  6
CONTINUOUS
  0
LAYER
  2
GREEN3
  70
0
  62
91
  6
CONTINUOUS
  0
LAYER
  2
CYAN3
  70
0
  62
131
  6
CONTINUOUS
  0
LAYER
  2
RED3
  70
0
  62
11
  6
CONTINUOUS
  0
LAYER
  2
MAGENTA3
  70
0
  62
221
  6
CONTINUOUS
  0
LAYER
  2
YELLOW3
  70
0
  62
2
  6
CONTINUOUS
  0
LAYER
  2
ORANGE3
  70
0
  62
32
  6
CONTINUOUS
  0
LAYER
  2
BLUE4
  70
0
  62
5
  6
CONTINUOUS
  0
LAYER
  2
GREEN4
  70
0
  62
3
  6
CONTINUOUS
  0
LAYER
  2
CYAN4
  70
0
  62
4
  6
CONTINUOUS
  0
LAYER
  2
RED4
  70
0
  62
1
  6
CONTINUOUS
  0
LAYER
  2
MAGENTA4
  70
0
  62
6
  6
CONTINUOUS
  0
LAYER
  2
YELLOW4
  70
0
  62
2
  6
CONTINUOUS
  0
LAYER
  2
ORANGE4
  70
0
  62
40
  6
CONTINUOUS
  0
ENDTAB
  0
ENDSEC
  0
SECTION
  2
ENTITIES
0
LINE
8
WHITE
6
CONTINUOUS
10
5.5
20
-4.4681102362204728
11
5.5
21
-5.1318897637795278
0
ARC
8
WHITE
10
4.3835157480314964
20
-5.1318897637795278
40
0.1181102362230971
50
-180.00000000
51
-89.99961803
0
LINE
8
WHITE
6
CONTINUOUS
10
4.2654062992125983
20
-5.1318897637795278
11
4.2654062992125983
21
-4.4681102362204728
0
ARC
8
WHITE
10
5.3818897637795278
20
-5.1318897637795278
40
0.1181102362204724
50
-90.00000000
51
-0.00000000
0
LINE
8
WHITE
6
CONTINUOUS
10
5.3818897637795278
20
-5.25
11
4.3835165354330705
21
-5.25
0
LINE
8
WHITE
6
CONTINUOUS
10
4.3835165354330705
20
-4.3499999999999996
11
5.3818897637795278
21
-4.3499999999999996
0
ARC
8
WHITE
10
5.3818897637795278
20
-4.4681102362204728
40
0.1181102362204724
50
0.00000000
51
90.00000000
0
ARC
8
WHITE
10
4.3835157480314964
20
-4.4681102362204728
40
0.1181094488188976
50
89.99961803
51
180.00000000
0
CIRCLE
8
BLACK
10
4.4079724409448815
20
-4.5499999999999998
40
0.0196850393700787
0
CIRCLE
8
BLACK
10
4.4079724409448815
20
-4.6499999999999995
40
0.0196850393700787
0
CIRCLE
8
BLACK
10
4.4079724409448815
20
-4.75
40
0.0196850393700787
0
CIRCLE
8
BLACK
10
4.4079724409448815
20
-4.8499999999999996
40
0.0196850393700787
0
CIRCLE
8
BLACK
10
4.4079724409448815
20
-4.9500000000000002
40
0.0196850393700787
0
CIRCLE
8
BLACK
10
4.4079724409448815
20
-5.0499999999999998
40
0.0196850393700787
0
CIRCLE
8
BLACK
10
4.507972440944882
20
-4.5499999999999998
40
0.0196850393700787
0
CIRCLE
8
BLACK
10
4.507972440944882
20
-4.6499999999999995
40
0.0196850393700787
0
CIRCLE
8
BLACK
10
4.507972440944882
20
-4.75
40
0.0196850393700787
0
CIRCLE
8
BLACK
10
4.507972440944882
20
-4.8499999999999996
40
0.0196850393700787
0
CIRCLE
8
BLACK
10
4.507972440944882
20
-4.9500000000000002
40
0.0196850393700787
0
CIRCLE
8
BLACK
10
4.507972440944882
20
-5.0499999999999998
40
0.0196850393700787
0
CIRCLE
8
BLACK
10
5.25
20
-5.0484251968503937
40
0.0236220472440945
0
CIRCLE
8
BLACK
10
5.3499999999999996
20
-5.1484251968503933
40
0.0334645669291339
0
CIRCLE
8
BLACK
10
5.3499999999999996
20
-4.9484251968503932
40
0.0334645669291339
0
CIRCLE
8
BLACK
10
5.1499999999999995
20
-5.1484251968503933
40
0.0334645669291339
0
CIRCLE
8
BLACK
10
5.1499999999999995
20
-4.9484251968503932
40
0.0334645669291339
0
CIRCLE
8
BLACK
10
4.7999999999999998
20
-4.4500000000000002
40
0.0196850393700787
0
CIRCLE
8
BLACK
10
4.7999999999999998
20
-4.5499999999999998
40
0.0196850393700787
0
CIRCLE
8
BLACK
10
4.7999999999999998
20
-4.6499999999999995
40
0.0196850393700787
0
CIRCLE
8
BLACK
10
4.7999999999999998
20
-4.75
40
0.0196850393700787
0
CIRCLE
8
BLACK
10
4.7999999999999998
20
-4.8499999999999996
40
0.0196850393700787
0
CIRCLE
8
BLACK
10
4.7999999999999998
20
-4.9500000000000002
40
0.0196850393700787
0
CIRCLE
8
BLACK
10
4.7999999999999998
20
-5.0499999999999998
40
0.0196850393700787
0
CIRCLE
8
BLACK
10
4.7999999999999998
20
-5.1499999999999995
40
0.0196850393700787
0
CIRCLE
8
BLACK
10
4.8999999999999995
20
-4.4500000000000002
40
0.0196850393700787
0
CIRCLE
8
BLACK
10
4.8999999999999995
20
-4.5499999999999998
40
0.0196850393700787
0
CIRCLE
8
BLACK
10
4.8999999999999995
20
-4.6499999999999995
40
0.0196850393700787
0
CIRCLE
8
BLACK
10
4.8999999999999995
20
-4.75
40
0.0196850393700787
0
CIRCLE
8
BLACK
10
4.8999999999999995
20
-4.8499999999999996
40
0.0196850393700787
0
CIRCLE
8
BLACK
10
4.8999999999999995
20
-4.9500000000000002
40
0.0196850393700787
0
CIRCLE
8
BLACK
10
4.8999999999999995
20
-5.0499999999999998
40
0.0196850393700787
0
CIRCLE
8
BLACK
10
4.8999999999999995
20
-5.1499999999999995
40
0.0196850393700787
  0
ENDSEC
  0
EOF
