G04 #@! TF.GenerationSoftware,KiCad,Pcbnew,5.1.7-a382d34a8~88~ubuntu20.04.1*
G04 #@! TF.CreationDate,2021-03-27T06:24:58-07:00*
G04 #@! TF.ProjectId,galep4-plcc-28,67616c65-7034-42d7-906c-63632d32382e,Mar2021*
G04 #@! TF.SameCoordinates,Original*
G04 #@! TF.FileFunction,Legend,Top*
G04 #@! TF.FilePolarity,Positive*
%FSLAX46Y46*%
G04 Gerber Fmt 4.6, Leading zero omitted, Abs format (unit mm)*
G04 Created by KiCad (PCBNEW 5.1.7-a382d34a8~88~ubuntu20.04.1) date 2021-03-27 06:24:58*
%MOMM*%
%LPD*%
G01*
G04 APERTURE LIST*
%ADD10C,0.300000*%
%ADD11C,0.400000*%
%ADD12C,0.120000*%
G04 APERTURE END LIST*
D10*
X167656000Y-109583619D02*
X167560761Y-109774095D01*
X167560761Y-110059809D01*
X167656000Y-110345523D01*
X167846476Y-110536000D01*
X168036952Y-110631238D01*
X168417904Y-110726476D01*
X168703619Y-110726476D01*
X169084571Y-110631238D01*
X169275047Y-110536000D01*
X169465523Y-110345523D01*
X169560761Y-110059809D01*
X169560761Y-109869333D01*
X169465523Y-109583619D01*
X169370285Y-109488380D01*
X168703619Y-109488380D01*
X168703619Y-109869333D01*
X168989333Y-108726476D02*
X168989333Y-107774095D01*
X169560761Y-108916952D02*
X167560761Y-108250285D01*
X169560761Y-107583619D01*
X169560761Y-105964571D02*
X169560761Y-106916952D01*
X167560761Y-106916952D01*
X168513142Y-105297904D02*
X168513142Y-104631238D01*
X169560761Y-104345523D02*
X169560761Y-105297904D01*
X167560761Y-105297904D01*
X167560761Y-104345523D01*
X169560761Y-103488380D02*
X167560761Y-103488380D01*
X167560761Y-102726476D01*
X167656000Y-102536000D01*
X167751238Y-102440761D01*
X167941714Y-102345523D01*
X168227428Y-102345523D01*
X168417904Y-102440761D01*
X168513142Y-102536000D01*
X168608380Y-102726476D01*
X168608380Y-103488380D01*
X168798857Y-101488380D02*
X168798857Y-99964571D01*
X168227428Y-98155047D02*
X169560761Y-98155047D01*
X167465523Y-98631238D02*
X168894095Y-99107428D01*
X168894095Y-97869333D01*
X168227428Y-95869333D02*
X168227428Y-95107428D01*
X167560761Y-95583619D02*
X169275047Y-95583619D01*
X169465523Y-95488380D01*
X169560761Y-95297904D01*
X169560761Y-95107428D01*
X169560761Y-94155047D02*
X169465523Y-94345523D01*
X169370285Y-94440761D01*
X169179809Y-94536000D01*
X168608380Y-94536000D01*
X168417904Y-94440761D01*
X168322666Y-94345523D01*
X168227428Y-94155047D01*
X168227428Y-93869333D01*
X168322666Y-93678857D01*
X168417904Y-93583619D01*
X168608380Y-93488380D01*
X169179809Y-93488380D01*
X169370285Y-93583619D01*
X169465523Y-93678857D01*
X169560761Y-93869333D01*
X169560761Y-94155047D01*
X169560761Y-91107428D02*
X167560761Y-91107428D01*
X167560761Y-90345523D01*
X167656000Y-90155047D01*
X167751238Y-90059809D01*
X167941714Y-89964571D01*
X168227428Y-89964571D01*
X168417904Y-90059809D01*
X168513142Y-90155047D01*
X168608380Y-90345523D01*
X168608380Y-91107428D01*
X169560761Y-88155047D02*
X169560761Y-89107428D01*
X167560761Y-89107428D01*
X169370285Y-86345523D02*
X169465523Y-86440761D01*
X169560761Y-86726476D01*
X169560761Y-86916952D01*
X169465523Y-87202666D01*
X169275047Y-87393142D01*
X169084571Y-87488380D01*
X168703619Y-87583619D01*
X168417904Y-87583619D01*
X168036952Y-87488380D01*
X167846476Y-87393142D01*
X167656000Y-87202666D01*
X167560761Y-86916952D01*
X167560761Y-86726476D01*
X167656000Y-86440761D01*
X167751238Y-86345523D01*
X169370285Y-84345523D02*
X169465523Y-84440761D01*
X169560761Y-84726476D01*
X169560761Y-84916952D01*
X169465523Y-85202666D01*
X169275047Y-85393142D01*
X169084571Y-85488380D01*
X168703619Y-85583619D01*
X168417904Y-85583619D01*
X168036952Y-85488380D01*
X167846476Y-85393142D01*
X167656000Y-85202666D01*
X167560761Y-84916952D01*
X167560761Y-84726476D01*
X167656000Y-84440761D01*
X167751238Y-84345523D01*
X162623428Y-79390761D02*
X161480571Y-79390761D01*
X162052000Y-79390761D02*
X162052000Y-77390761D01*
X161861523Y-77676476D01*
X161671047Y-77866952D01*
X161480571Y-77962190D01*
X172164380Y-112345523D02*
X172069142Y-112440761D01*
X171973904Y-112631238D01*
X171973904Y-112821714D01*
X172069142Y-113012190D01*
X172164380Y-113107428D01*
X172354857Y-113202666D01*
X172545333Y-113202666D01*
X172735809Y-113107428D01*
X172831047Y-113012190D01*
X172926285Y-112821714D01*
X172926285Y-112631238D01*
X172831047Y-112440761D01*
X172735809Y-112345523D01*
X171973904Y-112345523D02*
X172735809Y-112345523D01*
X172831047Y-112250285D01*
X172831047Y-112155047D01*
X172735809Y-111964571D01*
X172545333Y-111869333D01*
X172069142Y-111869333D01*
X171783428Y-112059809D01*
X171592952Y-112345523D01*
X171497714Y-112726476D01*
X171592952Y-113107428D01*
X171783428Y-113393142D01*
X172069142Y-113583619D01*
X172450095Y-113678857D01*
X172831047Y-113583619D01*
X173116761Y-113393142D01*
X173307238Y-113107428D01*
X173402476Y-112726476D01*
X173307238Y-112345523D01*
X173116761Y-112059809D01*
X171116761Y-111297904D02*
X171116761Y-110155047D01*
X173116761Y-110726476D02*
X171116761Y-110726476D01*
X173116761Y-109202666D02*
X173021523Y-109393142D01*
X172926285Y-109488380D01*
X172735809Y-109583619D01*
X172164380Y-109583619D01*
X171973904Y-109488380D01*
X171878666Y-109393142D01*
X171783428Y-109202666D01*
X171783428Y-108916952D01*
X171878666Y-108726476D01*
X171973904Y-108631238D01*
X172164380Y-108536000D01*
X172735809Y-108536000D01*
X172926285Y-108631238D01*
X173021523Y-108726476D01*
X173116761Y-108916952D01*
X173116761Y-109202666D01*
X173116761Y-107678857D02*
X171783428Y-107678857D01*
X171973904Y-107678857D02*
X171878666Y-107583619D01*
X171783428Y-107393142D01*
X171783428Y-107107428D01*
X171878666Y-106916952D01*
X172069142Y-106821714D01*
X173116761Y-106821714D01*
X172069142Y-106821714D02*
X171878666Y-106726476D01*
X171783428Y-106536000D01*
X171783428Y-106250285D01*
X171878666Y-106059809D01*
X172069142Y-105964571D01*
X173116761Y-105964571D01*
X173116761Y-105012190D02*
X171116761Y-105012190D01*
X173116761Y-103869333D02*
X171973904Y-104726476D01*
X171116761Y-103869333D02*
X172259619Y-105012190D01*
X173021523Y-102250285D02*
X173116761Y-102440761D01*
X173116761Y-102821714D01*
X173021523Y-103012190D01*
X172831047Y-103107428D01*
X172069142Y-103107428D01*
X171878666Y-103012190D01*
X171783428Y-102821714D01*
X171783428Y-102440761D01*
X171878666Y-102250285D01*
X172069142Y-102155047D01*
X172259619Y-102155047D01*
X172450095Y-103107428D01*
X173116761Y-100440761D02*
X171116761Y-100440761D01*
X173021523Y-100440761D02*
X173116761Y-100631238D01*
X173116761Y-101012190D01*
X173021523Y-101202666D01*
X172926285Y-101297904D01*
X172735809Y-101393142D01*
X172164380Y-101393142D01*
X171973904Y-101297904D01*
X171878666Y-101202666D01*
X171783428Y-101012190D01*
X171783428Y-100631238D01*
X171878666Y-100440761D01*
X173116761Y-98631238D02*
X171116761Y-98631238D01*
X173021523Y-98631238D02*
X173116761Y-98821714D01*
X173116761Y-99202666D01*
X173021523Y-99393142D01*
X172926285Y-99488380D01*
X172735809Y-99583619D01*
X172164380Y-99583619D01*
X171973904Y-99488380D01*
X171878666Y-99393142D01*
X171783428Y-99202666D01*
X171783428Y-98821714D01*
X171878666Y-98631238D01*
X173116761Y-97678857D02*
X171783428Y-97678857D01*
X171116761Y-97678857D02*
X171212000Y-97774095D01*
X171307238Y-97678857D01*
X171212000Y-97583619D01*
X171116761Y-97678857D01*
X171307238Y-97678857D01*
X173021523Y-95964571D02*
X173116761Y-96155047D01*
X173116761Y-96536000D01*
X173021523Y-96726476D01*
X172831047Y-96821714D01*
X172069142Y-96821714D01*
X171878666Y-96726476D01*
X171783428Y-96536000D01*
X171783428Y-96155047D01*
X171878666Y-95964571D01*
X172069142Y-95869333D01*
X172259619Y-95869333D01*
X172450095Y-96821714D01*
X173116761Y-93488380D02*
X171116761Y-93488380D01*
X172545333Y-92821714D01*
X171116761Y-92155047D01*
X173116761Y-92155047D01*
X173116761Y-90345523D02*
X172069142Y-90345523D01*
X171878666Y-90440761D01*
X171783428Y-90631238D01*
X171783428Y-91012190D01*
X171878666Y-91202666D01*
X173021523Y-90345523D02*
X173116761Y-90536000D01*
X173116761Y-91012190D01*
X173021523Y-91202666D01*
X172831047Y-91297904D01*
X172640571Y-91297904D01*
X172450095Y-91202666D01*
X172354857Y-91012190D01*
X172354857Y-90536000D01*
X172259619Y-90345523D01*
X173116761Y-89393142D02*
X171783428Y-89393142D01*
X172164380Y-89393142D02*
X171973904Y-89297904D01*
X171878666Y-89202666D01*
X171783428Y-89012190D01*
X171783428Y-88821714D01*
X171307238Y-88250285D02*
X171212000Y-88155047D01*
X171116761Y-87964571D01*
X171116761Y-87488380D01*
X171212000Y-87297904D01*
X171307238Y-87202666D01*
X171497714Y-87107428D01*
X171688190Y-87107428D01*
X171973904Y-87202666D01*
X173116761Y-88345523D01*
X173116761Y-87107428D01*
X171116761Y-85869333D02*
X171116761Y-85678857D01*
X171212000Y-85488380D01*
X171307238Y-85393142D01*
X171497714Y-85297904D01*
X171878666Y-85202666D01*
X172354857Y-85202666D01*
X172735809Y-85297904D01*
X172926285Y-85393142D01*
X173021523Y-85488380D01*
X173116761Y-85678857D01*
X173116761Y-85869333D01*
X173021523Y-86059809D01*
X172926285Y-86155047D01*
X172735809Y-86250285D01*
X172354857Y-86345523D01*
X171878666Y-86345523D01*
X171497714Y-86250285D01*
X171307238Y-86155047D01*
X171212000Y-86059809D01*
X171116761Y-85869333D01*
X171307238Y-84440761D02*
X171212000Y-84345523D01*
X171116761Y-84155047D01*
X171116761Y-83678857D01*
X171212000Y-83488380D01*
X171307238Y-83393142D01*
X171497714Y-83297904D01*
X171688190Y-83297904D01*
X171973904Y-83393142D01*
X173116761Y-84536000D01*
X173116761Y-83297904D01*
X173116761Y-81393142D02*
X173116761Y-82536000D01*
X173116761Y-81964571D02*
X171116761Y-81964571D01*
X171402476Y-82155047D01*
X171592952Y-82345523D01*
X171688190Y-82536000D01*
D11*
X176022000Y-91440000D02*
X177292000Y-93218000D01*
X176022000Y-91440000D02*
X174752000Y-93218000D01*
X176022000Y-102616000D02*
X176022000Y-91440000D01*
D12*
G04 #@! TO.C,U3*
X178678000Y-77050000D02*
X173618000Y-77050000D01*
X178678000Y-117810000D02*
X178678000Y-77050000D01*
X166558000Y-117810000D02*
X178678000Y-117810000D01*
X166558000Y-77050000D02*
X166558000Y-117810000D01*
X171618000Y-77050000D02*
X166558000Y-77050000D01*
X173618000Y-77050000D02*
G75*
G02*
X171618000Y-77050000I-1000000J0D01*
G01*
G04 #@! TO.C,U2*
X200895000Y-86882000D02*
X192770000Y-86882000D01*
X200895000Y-107682000D02*
X200895000Y-86882000D01*
X182645000Y-107682000D02*
X200895000Y-107682000D01*
X182645000Y-87882000D02*
X182645000Y-107682000D01*
X183645000Y-86882000D02*
X182645000Y-87882000D01*
X190770000Y-86882000D02*
X183645000Y-86882000D01*
G04 #@! TO.C,U1*
X152670000Y-88157000D02*
X145545000Y-88157000D01*
X145545000Y-88157000D02*
X144545000Y-89157000D01*
X144545000Y-89157000D02*
X144545000Y-106407000D01*
X144545000Y-106407000D02*
X162795000Y-106407000D01*
X162795000Y-106407000D02*
X162795000Y-88157000D01*
X162795000Y-88157000D02*
X154670000Y-88157000D01*
G04 #@! TD*
M02*
