%TF.GenerationSoftware,KiCad,Pcbnew,5.1.7-a382d34a8~88~ubuntu20.04.1*%
%TF.CreationDate,2020-12-11T11:52:21-08:00*%
%TF.ProjectId,atmelice-swd-breakout,61746d65-6c69-4636-952d-7377642d6272,rev?*%
%TF.SameCoordinates,Original*%
%TF.FileFunction,Legend,Top*%
%TF.FilePolarity,Positive*%
%FSLAX46Y46*%
G04 Gerber Fmt 4.6, Leading zero omitted, Abs format (unit mm)*
G04 Created by KiCad (PCBNEW 5.1.7-a382d34a8~88~ubuntu20.04.1) date 2020-12-11 11:52:21*
%MOMM*%
%LPD*%
G01*
G04 APERTURE LIST*
%ADD10C,0.250000*%
%ADD11C,0.120000*%
G04 APERTURE END LIST*
D10*
X145669095Y-121420000D02*
X145573857Y-121372380D01*
X145431000Y-121372380D01*
X145288142Y-121420000D01*
X145192904Y-121515238D01*
X145145285Y-121610476D01*
X145097666Y-121800952D01*
X145097666Y-121943809D01*
X145145285Y-122134285D01*
X145192904Y-122229523D01*
X145288142Y-122324761D01*
X145431000Y-122372380D01*
X145526238Y-122372380D01*
X145669095Y-122324761D01*
X145716714Y-122277142D01*
X145716714Y-121943809D01*
X145526238Y-121943809D01*
X146145285Y-122372380D02*
X146145285Y-121372380D01*
X146716714Y-122372380D01*
X146716714Y-121372380D01*
X147192904Y-122372380D02*
X147192904Y-121372380D01*
X147431000Y-121372380D01*
X147573857Y-121420000D01*
X147669095Y-121515238D01*
X147716714Y-121610476D01*
X147764333Y-121800952D01*
X147764333Y-121943809D01*
X147716714Y-122134285D01*
X147669095Y-122229523D01*
X147573857Y-122324761D01*
X147431000Y-122372380D01*
X147192904Y-122372380D01*
X142557666Y-126452380D02*
X142891000Y-127452380D01*
X143224333Y-126452380D01*
X144129095Y-127357142D02*
X144081476Y-127404761D01*
X143938619Y-127452380D01*
X143843380Y-127452380D01*
X143700523Y-127404761D01*
X143605285Y-127309523D01*
X143557666Y-127214285D01*
X143510047Y-127023809D01*
X143510047Y-126880952D01*
X143557666Y-126690476D01*
X143605285Y-126595238D01*
X143700523Y-126500000D01*
X143843380Y-126452380D01*
X143938619Y-126452380D01*
X144081476Y-126500000D01*
X144129095Y-126547619D01*
X145129095Y-127357142D02*
X145081476Y-127404761D01*
X144938619Y-127452380D01*
X144843380Y-127452380D01*
X144700523Y-127404761D01*
X144605285Y-127309523D01*
X144557666Y-127214285D01*
X144510047Y-127023809D01*
X144510047Y-126880952D01*
X144557666Y-126690476D01*
X144605285Y-126595238D01*
X144700523Y-126500000D01*
X144843380Y-126452380D01*
X144938619Y-126452380D01*
X145081476Y-126500000D01*
X145129095Y-126547619D01*
X140803380Y-122372380D02*
X140470047Y-121896190D01*
X140231952Y-122372380D02*
X140231952Y-121372380D01*
X140612904Y-121372380D01*
X140708142Y-121420000D01*
X140755761Y-121467619D01*
X140803380Y-121562857D01*
X140803380Y-121705714D01*
X140755761Y-121800952D01*
X140708142Y-121848571D01*
X140612904Y-121896190D01*
X140231952Y-121896190D01*
X141184333Y-122324761D02*
X141327190Y-122372380D01*
X141565285Y-122372380D01*
X141660523Y-122324761D01*
X141708142Y-122277142D01*
X141755761Y-122181904D01*
X141755761Y-122086666D01*
X141708142Y-121991428D01*
X141660523Y-121943809D01*
X141565285Y-121896190D01*
X141374809Y-121848571D01*
X141279571Y-121800952D01*
X141231952Y-121753333D01*
X141184333Y-121658095D01*
X141184333Y-121562857D01*
X141231952Y-121467619D01*
X141279571Y-121420000D01*
X141374809Y-121372380D01*
X141612904Y-121372380D01*
X141755761Y-121420000D01*
X142041476Y-121372380D02*
X142612904Y-121372380D01*
X142327190Y-122372380D02*
X142327190Y-121372380D01*
X137430047Y-127404761D02*
X137572904Y-127452380D01*
X137811000Y-127452380D01*
X137906238Y-127404761D01*
X137953857Y-127357142D01*
X138001476Y-127261904D01*
X138001476Y-127166666D01*
X137953857Y-127071428D01*
X137906238Y-127023809D01*
X137811000Y-126976190D01*
X137620523Y-126928571D01*
X137525285Y-126880952D01*
X137477666Y-126833333D01*
X137430047Y-126738095D01*
X137430047Y-126642857D01*
X137477666Y-126547619D01*
X137525285Y-126500000D01*
X137620523Y-126452380D01*
X137858619Y-126452380D01*
X138001476Y-126500000D01*
X138334809Y-126452380D02*
X138572904Y-127452380D01*
X138763380Y-126738095D01*
X138953857Y-127452380D01*
X139191952Y-126452380D01*
X139763380Y-126452380D02*
X139953857Y-126452380D01*
X140049095Y-126500000D01*
X140144333Y-126595238D01*
X140191952Y-126785714D01*
X140191952Y-127119047D01*
X140144333Y-127309523D01*
X140049095Y-127404761D01*
X139953857Y-127452380D01*
X139763380Y-127452380D01*
X139668142Y-127404761D01*
X139572904Y-127309523D01*
X139525285Y-127119047D01*
X139525285Y-126785714D01*
X139572904Y-126595238D01*
X139668142Y-126500000D01*
X139763380Y-126452380D01*
X135247190Y-122372380D02*
X135247190Y-121372380D01*
X135485285Y-121372380D01*
X135628142Y-121420000D01*
X135723380Y-121515238D01*
X135771000Y-121610476D01*
X135818619Y-121800952D01*
X135818619Y-121943809D01*
X135771000Y-122134285D01*
X135723380Y-122229523D01*
X135628142Y-122324761D01*
X135485285Y-122372380D01*
X135247190Y-122372380D01*
X136247190Y-122372380D02*
X136247190Y-121372380D01*
X136913857Y-121372380D02*
X137104333Y-121372380D01*
X137199571Y-121420000D01*
X137294809Y-121515238D01*
X137342428Y-121705714D01*
X137342428Y-122039047D01*
X137294809Y-122229523D01*
X137199571Y-122324761D01*
X137104333Y-122372380D01*
X136913857Y-122372380D01*
X136818619Y-122324761D01*
X136723380Y-122229523D01*
X136675761Y-122039047D01*
X136675761Y-121705714D01*
X136723380Y-121515238D01*
X136818619Y-121420000D01*
X136913857Y-121372380D01*
X133135761Y-127357142D02*
X133088142Y-127404761D01*
X132945285Y-127452380D01*
X132850047Y-127452380D01*
X132707190Y-127404761D01*
X132611952Y-127309523D01*
X132564333Y-127214285D01*
X132516714Y-127023809D01*
X132516714Y-126880952D01*
X132564333Y-126690476D01*
X132611952Y-126595238D01*
X132707190Y-126500000D01*
X132850047Y-126452380D01*
X132945285Y-126452380D01*
X133088142Y-126500000D01*
X133135761Y-126547619D01*
X134040523Y-127452380D02*
X133564333Y-127452380D01*
X133564333Y-126452380D01*
X134373857Y-127452380D02*
X134373857Y-126452380D01*
X134945285Y-127452380D02*
X134516714Y-126880952D01*
X134945285Y-126452380D02*
X134373857Y-127023809D01*
D11*
%TO.C,J1*%
X127950000Y-127695000D02*
X127307530Y-127695000D01*
X126692470Y-127695000D02*
X126490000Y-127695000D01*
X127950000Y-127695000D02*
X127950000Y-121225000D01*
X125422470Y-121225000D02*
X124780000Y-121225000D01*
X127950000Y-121225000D02*
X127307530Y-121225000D01*
X126692470Y-121225000D02*
X126037530Y-121225000D01*
X124780000Y-126365000D02*
X124780000Y-121225000D01*
X124970000Y-126365000D02*
X124780000Y-126365000D01*
X124780000Y-127760000D02*
X124780000Y-127000000D01*
X125730000Y-127760000D02*
X124780000Y-127760000D01*
%TO.C,J2*%
X147761000Y-125790000D02*
X147761000Y-123130000D01*
X135001000Y-125790000D02*
X147761000Y-125790000D01*
X135001000Y-123130000D02*
X147761000Y-123130000D01*
X135001000Y-125790000D02*
X135001000Y-123130000D01*
X133731000Y-125790000D02*
X132401000Y-125790000D01*
X132401000Y-125790000D02*
X132401000Y-124460000D01*
%TD*%
M02*
