  0
SECTION
  2
HEADER
  9
$ACADVER
  1
AC1014
  9
$HANDSEED
  5
FFFF
  9
$MEASUREMENT
 70
     1
  0
ENDSEC
  0
SECTION
  2
TABLES
  0
TABLE
  2
VPORT
  5
8
330
0
100
AcDbSymbolTable
 70
     4
  0
VPORT
  5
2E
330
8
100
AcDbSymbolTableRecord
100
AcDbViewportTableRecord
  2
*ACTIVE
 70
     0
 10
0.0
 20
0.0
 11
1.0
 21
1.0
 12
210.0
 22
148.5
 13
0.0
 23
0.0
 14
10.0
 24
10.0
 15
10.0
 25
10.0
 16
0.0
 26
0.0
 36
1.0
 17
0.0
 27
0.0
 37
0.0
 40
341.0
 41
1.24
 42
50.0
 43
0.0
 44
0.0
 50
0.0
 51
0.0
 71
     0
 72
   100
 73
     1
 74
     3
 75
     0
 76
     0
 77
     0
 78
     0
  0
ENDTAB
  0
TABLE
  2
LTYPE
  5
5
330
0
100
AcDbSymbolTable
 70
     1
  0
LTYPE
  5
14
330
5
100
AcDbSymbolTableRecord
100
AcDbLinetypeTableRecord
  2
BYBLOCK
 70
     0
  3

 72
    65
 73
     0
 40
0.0
  0
LTYPE
  5
15
330
5
100
AcDbSymbolTableRecord
100
AcDbLinetypeTableRecord
  2
BYLAYER
 70
     0
  3

 72
    65
 73
     0
 40
0.0
  0
LTYPE
  5
16
330
5
100
AcDbSymbolTableRecord
100
AcDbLinetypeTableRecord
  2
CONTINUOUS
 70
     0
  3
Solid line
 72
    65
 73
     0
 40
0.0
  0
ENDTAB
  0
TABLE
  2
LAYER
  5
2
100
AcDbSymbolTable
 70
3
  0
LAYER
  5
50
100
AcDbSymbolTableRecord
100
AcDbLayerTableRecord
  2
0
 70
0
  6
CONTINUOUS
  0
LAYER
  5
51
100
AcDbSymbolTableRecord
100
AcDbLayerTableRecord
  2
Layer_1
 70
0
  6
CONTINUOUS
  0
LAYER
  5
52
100
AcDbSymbolTableRecord
100
AcDbLayerTableRecord
  2
Layer_2
 70
0
  6
CONTINUOUS
  0
ENDTAB
  0
TABLE
  2
STYLE
  5
3
330
0
100
AcDbSymbolTable
 70
     1
  0
STYLE
  5
11
330
3
100
AcDbSymbolTableRecord
100
AcDbTextStyleTableRecord
  2
STANDARD
 70
     0
 40
0.0
 41
1.0
 50
0.0
 71
     0
 42
2.5
  3
txt
  4

  0
ENDTAB
  0
TABLE
  2
VIEW
  5
6
330
0
100
AcDbSymbolTable
 70
     0
  0
ENDTAB
  0
TABLE
  2
UCS
  5
7
330
0
100
AcDbSymbolTable
 70
     0
  0
ENDTAB
  0
TABLE
  2
APPID
  5
9
330
0
100
AcDbSymbolTable
 70
     2
  0
APPID
  5
12
330
9
100
AcDbSymbolTableRecord
100
AcDbRegAppTableRecord
  2
ACAD
 70
     0
  0
ENDTAB
  0
TABLE
  2
DIMSTYLE
  5
A
330
0
100
AcDbSymbolTable
 70
     1
  0
DIMSTYLE
105
27
330
A
100
AcDbSymbolTableRecord
100
AcDbDimStyleTableRecord
  2
ISO-25
 70
     0
  3

  4

  5

  6

  7

 40
1.0
 41
2.5
 42
0.625
 43
3.75
 44
1.25
 45
0.0
 46
0.0
 47
0.0
 48
0.0
140
2.5
141
2.5
142
0.0
143
0.03937007874016
144
1.0
145
0.0
146
1.0
147
0.625
 71
     0
 72
     0
 73
     0
 74
     0
 75
     0
 76
     0
 77
     1
 78
     8
170
     0
171
     3
172
     1
173
     0
174
     0
175
     0
176
     0
177
     0
178
     0
270
     2
271
     2
272
     2
273
     2
274
     3
340
11
275
     0
280
     0
281
     0
282
     0
283
     0
284
     8
285
     0
286
     0
287
     3
288
     0
  0
ENDTAB
  0
TABLE
  2
BLOCK_RECORD
  5
1
330
0
100
AcDbSymbolTable
 70
     1
  0
BLOCK_RECORD
  5
1F
330
1
100
AcDbSymbolTableRecord
100
AcDbBlockTableRecord
  2
*MODEL_SPACE
  0
BLOCK_RECORD
  5
1B
330
1
100
AcDbSymbolTableRecord
100
AcDbBlockTableRecord
  2
*PAPER_SPACE
  0
ENDTAB
  0
ENDSEC
  0
SECTION
  2
BLOCKS
  0
BLOCK
  5
20
330
1F
100
AcDbEntity
  8
0
100
AcDbBlockBegin
  2
*MODEL_SPACE
 70
     0
 10
0.0
 20
0.0
 30
0.0
  3
*MODEL_SPACE
  1

  0
ENDBLK
  5
21
330
1F
100
AcDbEntity
  8
0
100
AcDbBlockEnd
  0
BLOCK
  5
1C
330
1B
100
AcDbEntity
 67
     1
  8
0
100
AcDbBlockBegin
  2
*PAPER_SPACE
  1

  0
ENDBLK
  5
1D
330
1B
100
AcDbEntity
 67
     1
  8
0
100
AcDbBlockEnd
  0
ENDSEC
  0
SECTION
  2
ENTITIES
  0
SPLINE
  5
100
100
AcDbEntity
  8
Layer_2
 62
7
100
AcDbSpline
 70
8
 71
3
 72
8
 73
4
 74
0
 40
0
 40
0
 40
0
 40
0
 40
1
 40
1
 40
1
 40
1
 10
54.363056
 20
5.276405
 30
0.0
 10
54.363056
 20
10.285076
 30
0.0
 10
54.366205
 20
10.551872
 30
0.0
 10
54.424792
 20
10.534325
 30
0.0
  0
SPLINE
  5
101
100
AcDbEntity
  8
Layer_2
 62
7
100
AcDbSpline
 70
8
 71
3
 72
8
 73
4
 74
0
 40
0
 40
0
 40
0
 40
0
 40
1
 40
1
 40
1
 40
1
 10
54.424792
 20
10.534325
 30
0.0
 10
54.867016
 20
10.401909
 30
0.0
 10
55.678332
 20
10.419601
 30
0.0
 10
56.491616
 20
10.579391
 30
0.0
  0
SPLINE
  5
102
100
AcDbEntity
  8
Layer_2
 62
7
100
AcDbSpline
 70
8
 71
3
 72
8
 73
4
 74
0
 40
0
 40
0
 40
0
 40
0
 40
1
 40
1
 40
1
 40
1
 10
56.491616
 20
10.579391
 30
0.0
 10
56.798898
 20
10.639769
 30
0.0
 10
57.120367
 20
10.689167
 30
0.0
 10
57.205991
 20
10.689167
 30
0.0
  0
SPLINE
  5
103
100
AcDbEntity
  8
Layer_2
 62
7
100
AcDbSpline
 70
8
 71
3
 72
8
 73
4
 74
0
 40
0
 40
0
 40
0
 40
0
 40
1
 40
1
 40
1
 40
1
 10
57.205991
 20
10.689167
 30
0.0
 10
57.291613
 20
10.689167
 30
0.0
 10
57.361667
 20
10.697422
 30
0.0
 10
57.361667
 20
10.707476
 30
0.0
  0
SPLINE
  5
104
100
AcDbEntity
  8
Layer_2
 62
7
100
AcDbSpline
 70
8
 71
3
 72
8
 73
4
 74
0
 40
0
 40
0
 40
0
 40
0
 40
1
 40
1
 40
1
 40
1
 10
57.361667
 20
10.707476
 30
0.0
 10
57.361667
 20
10.717556
 30
0.0
 10
57.251753
 20
10.852991
 30
0.0
 10
57.117409
 20
11.008458
 30
0.0
  0
SPLINE
  5
105
100
AcDbEntity
  8
Layer_2
 62
7
100
AcDbSpline
 70
8
 71
3
 72
8
 73
4
 74
0
 40
0
 40
0
 40
0
 40
0
 40
1
 40
1
 40
1
 40
1
 10
57.117409
 20
11.008458
 30
0.0
 10
56.589009
 20
11.619939
 30
0.0
 10
56.330855
 20
12.132281
 30
0.0
 10
56.213891
 20
12.801624
 30
0.0
  0
SPLINE
  5
106
100
AcDbEntity
  8
Layer_2
 62
7
100
AcDbSpline
 70
8
 71
3
 72
8
 73
4
 74
0
 40
0
 40
0
 40
0
 40
0
 40
1
 40
1
 40
1
 40
1
 10
56.213891
 20
12.801624
 30
0.0
 10
56.165007
 20
13.081360
 30
0.0
 10
56.142334
 20
13.617210
 30
0.0
 10
56.179379
 20
13.617210
 30
0.0
  0
SPLINE
  5
107
100
AcDbEntity
  8
Layer_2
 62
7
100
AcDbSpline
 70
8
 71
3
 72
8
 73
4
 74
0
 40
0
 40
0
 40
0
 40
0
 40
1
 40
1
 40
1
 40
1
 10
56.179379
 20
13.617210
 30
0.0
 10
56.188824
 20
13.617210
 30
0.0
 10
56.415601
 20
13.523510
 30
0.0
 10
56.683346
 20
13.408983
 30
0.0
  0
SPLINE
  5
108
100
AcDbEntity
  8
Layer_2
 62
7
100
AcDbSpline
 70
8
 71
3
 72
8
 73
4
 74
0
 40
0
 40
0
 40
0
 40
0
 40
1
 40
1
 40
1
 40
1
 10
56.683346
 20
13.408983
 30
0.0
 10
57.929754
 20
12.875853
 30
0.0
 10
58.755428
 20
12.781198
 30
0.0
 10
59.720665
 20
13.060791
 30
0.0
  0
SPLINE
  5
109
100
AcDbEntity
  8
Layer_2
 62
7
100
AcDbSpline
 70
8
 71
3
 72
8
 73
4
 74
0
 40
0
 40
0
 40
0
 40
0
 40
1
 40
1
 40
1
 40
1
 10
59.720665
 20
13.060791
 30
0.0
 10
59.933094
 20
13.122328
 30
0.0
 10
60.012389
 20
13.167024
 30
0.0
 10
60.154256
 20
13.305208
 30
0.0
  0
SPLINE
  5
10a
100
AcDbEntity
  8
Layer_2
 62
7
100
AcDbSpline
 70
8
 71
3
 72
8
 73
4
 74
0
 40
0
 40
0
 40
0
 40
0
 40
1
 40
1
 40
1
 40
1
 10
60.154256
 20
13.305208
 30
0.0
 10
60.366000
 20
13.511456
 30
0.0
 10
60.523882
 20
13.835496
 30
0.0
 10
60.561781
 20
14.141635
 30
0.0
  0
LWPOLYLINE
  5
10b
100
AcDbEntity
  8
Layer_2
 62
7
100
AcDbPolyline
 90
9
 70
0
 10
0.000000
 20
70.555554
 30
0.0
 10
0.000000
 20
141.111105
 30
0.0
 10
50.764723
 20
141.111105
 30
0.0
 10
101.529446
 20
141.111105
 30
0.0
 10
101.529446
 20
70.555554
 30
0.0
 10
101.529446
 20
0.000000
 30
0.0
 10
77.946253
 20
0.000000
 30
0.0
 10
54.363056
 20
0.000000
 30
0.0
 10
54.363056
 20
5.276405
 30
0.0
  0
SPLINE
  5
10c
100
AcDbEntity
  8
Layer_2
 62
7
100
AcDbSpline
 70
8
 71
3
 72
8
 73
4
 74
0
 40
0
 40
0
 40
0
 40
0
 40
1
 40
1
 40
1
 40
1
 10
60.827608
 20
14.083996
 30
0.0
 10
60.958518
 20
13.928778
 30
0.0
 10
61.247655
 20
13.626788
 30
0.0
 10
61.470138
 20
13.412909
 30
0.0
  0
SPLINE
  5
10d
100
AcDbEntity
  8
Layer_2
 62
7
100
AcDbSpline
 70
8
 71
3
 72
8
 73
4
 74
0
 40
0
 40
0
 40
0
 40
0
 40
1
 40
1
 40
1
 40
1
 10
61.470138
 20
13.412909
 30
0.0
 10
62.553879
 20
12.371062
 30
0.0
 10
63.768602
 20
11.695591
 30
0.0
 10
65.034583
 20
11.430831
 30
0.0
  0
SPLINE
  5
10e
100
AcDbEntity
  8
Layer_2
 62
7
100
AcDbSpline
 70
8
 71
3
 72
8
 73
4
 74
0
 40
0
 40
0
 40
0
 40
0
 40
1
 40
1
 40
1
 40
1
 10
65.034583
 20
11.430831
 30
0.0
 10
65.425603
 20
11.349059
 30
0.0
 10
66.463333
 20
11.288882
 30
0.0
 10
66.463333
 20
11.347979
 30
0.0
  0
SPLINE
  5
10f
100
AcDbEntity
  8
Layer_2
 62
7
100
AcDbSpline
 70
8
 71
3
 72
8
 73
4
 74
0
 40
0
 40
0
 40
0
 40
0
 40
1
 40
1
 40
1
 40
1
 10
66.463333
 20
11.347979
 30
0.0
 10
66.463333
 20
11.366923
 30
0.0
 10
66.423196
 20
11.420128
 30
0.0
 10
66.374142
 20
11.466216
 30
0.0
  0
SPLINE
  5
110
100
AcDbEntity
  8
Layer_2
 62
7
100
AcDbSpline
 70
8
 71
3
 72
8
 73
4
 74
0
 40
0
 40
0
 40
0
 40
0
 40
1
 40
1
 40
1
 40
1
 10
66.374142
 20
11.466216
 30
0.0
 10
66.122068
 20
11.703024
 30
0.0
 10
65.647967
 20
12.523015
 30
0.0
 10
65.467018
 20
13.035137
 30
0.0
  0
SPLINE
  5
111
100
AcDbEntity
  8
Layer_2
 62
7
100
AcDbSpline
 70
8
 71
3
 72
8
 73
4
 74
0
 40
0
 40
0
 40
0
 40
0
 40
1
 40
1
 40
1
 40
1
 10
65.467018
 20
13.035137
 30
0.0
 10
65.305115
 20
13.493361
 30
0.0
 10
65.321262
 20
13.502852
 30
0.0
 10
65.584118
 20
13.103958
 30
0.0
  0
SPLINE
  5
112
100
AcDbEntity
  8
Layer_2
 62
7
100
AcDbSpline
 70
8
 71
3
 72
8
 73
4
 74
0
 40
0
 40
0
 40
0
 40
0
 40
1
 40
1
 40
1
 40
1
 10
65.584118
 20
13.103958
 30
0.0
 10
66.102727
 20
12.316947
 30
0.0
 10
66.644075
 20
11.701420
 30
0.0
 10
67.163961
 20
11.307620
 30
0.0
  0
SPLINE
  5
113
100
AcDbEntity
  8
Layer_2
 62
7
100
AcDbSpline
 70
8
 71
3
 72
8
 73
4
 74
0
 40
0
 40
0
 40
0
 40
0
 40
1
 40
1
 40
1
 40
1
 10
67.163961
 20
11.307620
 30
0.0
 10
67.435846
 20
11.101679
 30
0.0
 10
68.487224
 20
10.436463
 30
0.0
 10
68.756390
 20
10.300081
 30
0.0
  0
SPLINE
  5
114
100
AcDbEntity
  8
Layer_2
 62
7
100
AcDbSpline
 70
8
 71
3
 72
8
 73
4
 74
0
 40
0
 40
0
 40
0
 40
0
 40
1
 40
1
 40
1
 40
1
 10
68.756390
 20
10.300081
 30
0.0
 10
69.556268
 20
9.894792
 30
0.0
 10
70.776936
 20
9.882508
 30
0.0
 10
71.620348
 20
10.271263
 30
0.0
  0
SPLINE
  5
115
100
AcDbEntity
  8
Layer_2
 62
7
100
AcDbSpline
 70
8
 71
3
 72
8
 73
4
 74
0
 40
0
 40
0
 40
0
 40
0
 40
1
 40
1
 40
1
 40
1
 10
71.620348
 20
10.271263
 30
0.0
 10
71.752616
 20
10.332228
 30
0.0
 10
71.860833
 20
10.390169
 30
0.0
 10
71.860833
 20
10.400014
 30
0.0
  0
SPLINE
  5
116
100
AcDbEntity
  8
Layer_2
 62
7
100
AcDbSpline
 70
8
 71
3
 72
8
 73
4
 74
0
 40
0
 40
0
 40
0
 40
0
 40
1
 40
1
 40
1
 40
1
 10
71.860833
 20
10.400014
 30
0.0
 10
71.860833
 20
10.432193
 30
0.0
 10
71.673143
 20
10.667481
 30
0.0
 10
71.491705
 20
10.862755
 30
0.0
  0
SPLINE
  5
117
100
AcDbEntity
  8
Layer_2
 62
7
100
AcDbSpline
 70
8
 71
3
 72
8
 73
4
 74
0
 40
0
 40
0
 40
0
 40
0
 40
1
 40
1
 40
1
 40
1
 10
71.491705
 20
10.862755
 30
0.0
 10
71.393981
 20
10.967926
 30
0.0
 10
71.340043
 20
11.044513
 30
0.0
 10
71.371838
 20
11.032937
 30
0.0
  0
SPLINE
  5
118
100
AcDbEntity
  8
Layer_2
 62
7
100
AcDbSpline
 70
8
 71
3
 72
8
 73
4
 74
0
 40
0
 40
0
 40
0
 40
0
 40
1
 40
1
 40
1
 40
1
 10
71.371838
 20
11.032937
 30
0.0
 10
71.623396
 20
10.941368
 30
0.0
 10
72.667820
 20
10.636485
 30
0.0
 10
73.025000
 20
10.550356
 30
0.0
  0
SPLINE
  5
119
100
AcDbEntity
  8
Layer_2
 62
7
100
AcDbSpline
 70
8
 71
3
 72
8
 73
4
 74
0
 40
0
 40
0
 40
0
 40
0
 40
1
 40
1
 40
1
 40
1
 10
73.025000
 20
10.550356
 30
0.0
 10
74.584412
 20
10.174332
 30
0.0
 10
75.748711
 20
10.195467
 30
0.0
 10
76.640973
 20
10.615986
 30
0.0
  0
SPLINE
  5
11a
100
AcDbEntity
  8
Layer_2
 62
7
100
AcDbSpline
 70
8
 71
3
 72
8
 73
4
 74
0
 40
0
 40
0
 40
0
 40
0
 40
1
 40
1
 40
1
 40
1
 10
76.640973
 20
10.615986
 30
0.0
 10
77.096178
 20
10.830523
 30
0.0
 10
77.520983
 20
11.190872
 30
0.0
 10
77.782301
 20
11.584138
 30
0.0
  0
LWPOLYLINE
  5
11b
100
AcDbEntity
  8
Layer_2
 62
7
100
AcDbPolyline
 90
3
 70
0
 10
60.561781
 20
14.141635
 30
0.0
 10
60.589583
 20
14.366208
 30
0.0
 10
60.827608
 20
14.083996
 30
0.0
  0
SPLINE
  5
11c
100
AcDbEntity
  8
Layer_2
 62
7
100
AcDbSpline
 70
8
 71
3
 72
8
 73
4
 74
0
 40
0
 40
0
 40
0
 40
0
 40
1
 40
1
 40
1
 40
1
 10
77.786153
 20
11.789127
 30
0.0
 10
77.400483
 20
12.093279
 30
0.0
 10
77.125854
 20
12.349184
 30
0.0
 10
76.508711
 20
12.979469
 30
0.0
  0
LWPOLYLINE
  5
11d
100
AcDbEntity
  8
Layer_2
 62
7
100
AcDbPolyline
 90
3
 70
0
 10
77.782301
 20
11.584138
 30
0.0
 10
77.873000
 20
11.720634
 30
0.0
 10
77.786153
 20
11.789127
 30
0.0
  0
SPLINE
  5
11e
100
AcDbEntity
  8
Layer_2
 62
7
100
AcDbSpline
 70
8
 71
3
 72
8
 73
4
 74
0
 40
0
 40
0
 40
0
 40
0
 40
1
 40
1
 40
1
 40
1
 10
76.307630
 20
13.726451
 30
0.0
 10
77.107232
 20
13.759442
 30
0.0
 10
77.711348
 20
13.868231
 30
0.0
 10
78.483031
 20
14.118193
 30
0.0
  0
SPLINE
  5
11f
100
AcDbEntity
  8
Layer_2
 62
7
100
AcDbSpline
 70
8
 71
3
 72
8
 73
4
 74
0
 40
0
 40
0
 40
0
 40
0
 40
1
 40
1
 40
1
 40
1
 10
78.483031
 20
14.118193
 30
0.0
 10
78.910453
 20
14.256644
 30
0.0
 10
78.928497
 20
14.266225
 30
0.0
 10
78.828196
 20
14.301459
 30
0.0
  0
SPLINE
  5
120
100
AcDbEntity
  8
Layer_2
 62
7
100
AcDbSpline
 70
8
 71
3
 72
8
 73
4
 74
0
 40
0
 40
0
 40
0
 40
0
 40
1
 40
1
 40
1
 40
1
 10
78.828196
 20
14.301459
 30
0.0
 10
78.371430
 20
14.461932
 30
0.0
 10
77.254896
 20
15.129235
 30
0.0
 10
76.816508
 20
15.503758
 30
0.0
  0
SPLINE
  5
121
100
AcDbEntity
  8
Layer_2
 62
7
100
AcDbSpline
 70
8
 71
3
 72
8
 73
4
 74
0
 40
0
 40
0
 40
0
 40
0
 40
1
 40
1
 40
1
 40
1
 10
76.816508
 20
15.503758
 30
0.0
 10
76.498744
 20
15.775236
 30
0.0
 10
76.061977
 20
16.263059
 30
0.0
 10
76.136680
 20
16.263059
 30
0.0
  0
SPLINE
  5
122
100
AcDbEntity
  8
Layer_2
 62
7
100
AcDbSpline
 70
8
 71
3
 72
8
 73
4
 74
0
 40
0
 40
0
 40
0
 40
0
 40
1
 40
1
 40
1
 40
1
 10
76.136680
 20
16.263059
 30
0.0
 10
76.144485
 20
16.263059
 30
0.0
 10
76.372252
 20
16.153474
 30
0.0
 10
76.642854
 20
16.019534
 30
0.0
  0
SPLINE
  5
123
100
AcDbEntity
  8
Layer_2
 62
7
100
AcDbSpline
 70
8
 71
3
 72
8
 73
4
 74
0
 40
0
 40
0
 40
0
 40
0
 40
1
 40
1
 40
1
 40
1
 10
76.642854
 20
16.019534
 30
0.0
 10
78.913837
 20
14.895481
 30
0.0
 10
80.630072
 20
14.642148
 30
0.0
 10
81.910169
 20
15.242021
 30
0.0
  0
SPLINE
  5
124
100
AcDbEntity
  8
Layer_2
 62
7
100
AcDbSpline
 70
8
 71
3
 72
8
 73
4
 74
0
 40
0
 40
0
 40
0
 40
0
 40
1
 40
1
 40
1
 40
1
 10
81.910169
 20
15.242021
 30
0.0
 10
82.202036
 20
15.378795
 30
0.0
 10
82.662242
 20
15.690583
 30
0.0
 10
82.646068
 20
15.740592
 30
0.0
  0
SPLINE
  5
125
100
AcDbEntity
  8
Layer_2
 62
7
100
AcDbSpline
 70
8
 71
3
 72
8
 73
4
 74
0
 40
0
 40
0
 40
0
 40
0
 40
1
 40
1
 40
1
 40
1
 10
82.646068
 20
15.740592
 30
0.0
 10
82.641728
 20
15.753980
 30
0.0
 10
82.582634
 20
15.802195
 30
0.0
 10
82.514723
 20
15.847737
 30
0.0
  0
SPLINE
  5
126
100
AcDbEntity
  8
Layer_2
 62
7
100
AcDbSpline
 70
8
 71
3
 72
8
 73
4
 74
0
 40
0
 40
0
 40
0
 40
0
 40
1
 40
1
 40
1
 40
1
 10
82.514723
 20
15.847737
 30
0.0
 10
82.404820
 20
15.921445
 30
0.0
 10
82.388914
 20
15.952137
 30
0.0
 10
82.369983
 20
16.127053
 30
0.0
  0
SPLINE
  5
127
100
AcDbEntity
  8
Layer_2
 62
7
100
AcDbSpline
 70
8
 71
3
 72
8
 73
4
 74
0
 40
0
 40
0
 40
0
 40
0
 40
1
 40
1
 40
1
 40
1
 10
82.369983
 20
16.127053
 30
0.0
 10
82.358288
 20
16.235135
 30
0.0
 10
82.337503
 20
16.341701
 30
0.0
 10
82.323800
 20
16.363871
 30
0.0
  0
SPLINE
  5
128
100
AcDbEntity
  8
Layer_2
 62
7
100
AcDbSpline
 70
8
 71
3
 72
8
 73
4
 74
0
 40
0
 40
0
 40
0
 40
0
 40
1
 40
1
 40
1
 40
1
 10
82.323800
 20
16.363871
 30
0.0
 10
82.277873
 20
16.438182
 30
0.0
 10
82.370628
 20
16.405603
 30
0.0
 10
83.014526
 20
16.121258
 30
0.0
  0
SPLINE
  5
129
100
AcDbEntity
  8
Layer_2
 62
7
100
AcDbSpline
 70
8
 71
3
 72
8
 73
4
 74
0
 40
0
 40
0
 40
0
 40
0
 40
1
 40
1
 40
1
 40
1
 10
83.014526
 20
16.121258
 30
0.0
 10
83.844101
 20
15.754919
 30
0.0
 10
84.241119
 20
15.607144
 30
0.0
 10
84.726023
 20
15.484221
 30
0.0
  0
SPLINE
  5
12a
100
AcDbEntity
  8
Layer_2
 62
7
100
AcDbSpline
 70
8
 71
3
 72
8
 73
4
 74
0
 40
0
 40
0
 40
0
 40
0
 40
1
 40
1
 40
1
 40
1
 10
84.726023
 20
15.484221
 30
0.0
 10
85.704915
 20
15.236079
 30
0.0
 10
86.496083
 20
15.288165
 30
0.0
 10
87.210702
 20
15.647808
 30
0.0
  0
SPLINE
  5
12b
100
AcDbEntity
  8
Layer_2
 62
7
100
AcDbSpline
 70
8
 71
3
 72
8
 73
4
 74
0
 40
0
 40
0
 40
0
 40
0
 40
1
 40
1
 40
1
 40
1
 10
87.210702
 20
15.647808
 30
0.0
 10
87.665838
 20
15.876860
 30
0.0
 10
88.385370
 20
16.540385
 30
0.0
 10
88.262754
 20
16.617971
 30
0.0
  0
SPLINE
  5
12c
100
AcDbEntity
  8
Layer_2
 62
7
100
AcDbSpline
 70
8
 71
3
 72
8
 73
4
 74
0
 40
0
 40
0
 40
0
 40
0
 40
1
 40
1
 40
1
 40
1
 10
88.262754
 20
16.617971
 30
0.0
 10
88.234885
 20
16.635619
 30
0.0
 10
88.202468
 20
16.650279
 30
0.0
 10
88.190713
 20
16.650576
 30
0.0
  0
SPLINE
  5
12d
100
AcDbEntity
  8
Layer_2
 62
7
100
AcDbSpline
 70
8
 71
3
 72
8
 73
4
 74
0
 40
0
 40
0
 40
0
 40
0
 40
1
 40
1
 40
1
 40
1
 10
88.190713
 20
16.650576
 30
0.0
 10
88.178965
 20
16.650840
 30
0.0
 10
87.988455
 20
16.780055
 30
0.0
 10
87.767380
 20
16.937649
 30
0.0
  0
LWPOLYLINE
  5
12e
100
AcDbEntity
  8
Layer_2
 62
7
100
AcDbPolyline
 90
3
 70
0
 10
76.508711
 20
12.979469
 30
0.0
 10
75.797902
 20
13.705417
 30
0.0
 10
76.307630
 20
13.726451
 30
0.0
  0
SPLINE
  5
12f
100
AcDbEntity
  8
Layer_2
 62
7
100
AcDbSpline
 70
8
 71
3
 72
8
 73
4
 74
0
 40
0
 40
0
 40
0
 40
0
 40
1
 40
1
 40
1
 40
1
 10
87.612363
 20
17.201769
 30
0.0
 10
88.744629
 20
17.099029
 30
0.0
 10
89.504083
 20
17.082463
 30
0.0
 10
90.046530
 20
17.148675
 30
0.0
  0
SPLINE
  5
130
100
AcDbEntity
  8
Layer_2
 62
7
100
AcDbSpline
 70
8
 71
3
 72
8
 73
4
 74
0
 40
0
 40
0
 40
0
 40
0
 40
1
 40
1
 40
1
 40
1
 10
90.046530
 20
17.148675
 30
0.0
 10
90.778952
 20
17.238075
 30
0.0
 10
91.415730
 20
17.477510
 30
0.0
 10
91.788366
 20
17.803625
 30
0.0
  0
LWPOLYLINE
  5
131
100
AcDbEntity
  8
Layer_2
 62
7
100
AcDbPolyline
 90
3
 70
0
 10
87.767380
 20
16.937649
 30
0.0
 10
87.365419
 20
17.224179
 30
0.0
 10
87.612363
 20
17.201769
 30
0.0
  0
SPLINE
  5
132
100
AcDbEntity
  8
Layer_2
 62
7
100
AcDbSpline
 70
8
 71
3
 72
8
 73
4
 74
0
 40
0
 40
0
 40
0
 40
0
 40
1
 40
1
 40
1
 40
1
 10
91.488392
 20
18.205524
 30
0.0
 10
91.162055
 20
18.362803
 30
0.0
 10
90.936628
 20
18.497383
 30
0.0
 10
90.812337
 20
18.609133
 30
0.0
  0
SPLINE
  5
133
100
AcDbEntity
  8
Layer_2
 62
7
100
AcDbSpline
 70
8
 71
3
 72
8
 73
4
 74
0
 40
0
 40
0
 40
0
 40
0
 40
1
 40
1
 40
1
 40
1
 10
90.812337
 20
18.609133
 30
0.0
 10
90.709776
 20
18.701343
 30
0.0
 10
90.631108
 20
18.782030
 30
0.0
 10
90.637513
 20
18.788436
 30
0.0
  0
SPLINE
  5
134
100
AcDbEntity
  8
Layer_2
 62
7
100
AcDbSpline
 70
8
 71
3
 72
8
 73
4
 74
0
 40
0
 40
0
 40
0
 40
0
 40
1
 40
1
 40
1
 40
1
 10
90.637513
 20
18.788436
 30
0.0
 10
90.643916
 20
18.794838
 30
0.0
 10
90.791385
 20
18.776767
 30
0.0
 10
90.965208
 20
18.748251
 30
0.0
  0
SPLINE
  5
135
100
AcDbEntity
  8
Layer_2
 62
7
100
AcDbSpline
 70
8
 71
3
 72
8
 73
4
 74
0
 40
0
 40
0
 40
0
 40
0
 40
1
 40
1
 40
1
 40
1
 10
90.965208
 20
18.748251
 30
0.0
 10
92.843390
 20
18.440204
 30
0.0
 10
94.985007
 20
19.011045
 30
0.0
 10
96.061390
 20
20.106619
 30
0.0
  0
SPLINE
  5
136
100
AcDbEntity
  8
Layer_2
 62
7
100
AcDbSpline
 70
8
 71
3
 72
8
 73
4
 74
0
 40
0
 40
0
 40
0
 40
0
 40
1
 40
1
 40
1
 40
1
 10
96.061390
 20
20.106619
 30
0.0
 10
96.314826
 20
20.364569
 30
0.0
 10
96.557198
 20
20.712792
 30
0.0
 10
96.567874
 20
20.834289
 30
0.0
  0
SPLINE
  5
137
100
AcDbEntity
  8
Layer_2
 62
7
100
AcDbSpline
 70
8
 71
3
 72
8
 73
4
 74
0
 40
0
 40
0
 40
0
 40
0
 40
1
 40
1
 40
1
 40
1
 10
96.567874
 20
20.834289
 30
0.0
 10
96.571631
 20
20.876961
 30
0.0
 10
96.509440
 20
20.908423
 30
0.0
 10
96.325973
 20
20.956675
 30
0.0
  0
SPLINE
  5
138
100
AcDbEntity
  8
Layer_2
 62
7
100
AcDbSpline
 70
8
 71
3
 72
8
 73
4
 74
0
 40
0
 40
0
 40
0
 40
0
 40
1
 40
1
 40
1
 40
1
 10
96.325973
 20
20.956675
 30
0.0
 10
96.190155
 20
20.992396
 30
0.0
 10
95.369764
 20
21.258392
 30
0.0
 10
94.502878
 20
21.547772
 30
0.0
  0
LWPOLYLINE
  5
139
100
AcDbEntity
  8
Layer_2
 62
7
100
AcDbPolyline
 90
3
 70
0
 10
91.788366
 20
17.803625
 30
0.0
 10
91.977980
 20
17.969569
 30
0.0
 10
91.488392
 20
18.205524
 30
0.0
  0
SPLINE
  5
13a
100
AcDbEntity
  8
Layer_2
 62
7
100
AcDbSpline
 70
8
 71
3
 72
8
 73
4
 74
0
 40
0
 40
0
 40
0
 40
0
 40
1
 40
1
 40
1
 40
1
 10
93.991351
 20
22.095135
 30
0.0
 10
95.112856
 20
22.117492
 30
0.0
 10
95.457118
 20
22.147924
 30
0.0
 10
95.878274
 20
22.261949
 30
0.0
  0
SPLINE
  5
13b
100
AcDbEntity
  8
Layer_2
 62
7
100
AcDbSpline
 70
8
 71
3
 72
8
 73
4
 74
0
 40
0
 40
0
 40
0
 40
0
 40
1
 40
1
 40
1
 40
1
 10
95.878274
 20
22.261949
 30
0.0
 10
96.229673
 20
22.357091
 30
0.0
 10
96.462413
 20
22.481553
 30
0.0
 10
96.661822
 20
22.680962
 30
0.0
  0
SPLINE
  5
13c
100
AcDbEntity
  8
Layer_2
 62
7
100
AcDbSpline
 70
8
 71
3
 72
8
 73
4
 74
0
 40
0
 40
0
 40
0
 40
0
 40
1
 40
1
 40
1
 40
1
 10
96.661822
 20
22.680962
 30
0.0
 10
96.809544
 20
22.828679
 30
0.0
 10
97.047920
 20
23.183405
 30
0.0
 10
97.048836
 20
23.256875
 30
0.0
  0
SPLINE
  5
13d
100
AcDbEntity
  8
Layer_2
 62
7
100
AcDbSpline
 70
8
 71
3
 72
8
 73
4
 74
0
 40
0
 40
0
 40
0
 40
0
 40
1
 40
1
 40
1
 40
1
 10
97.048836
 20
23.256875
 30
0.0
 10
97.049101
 20
23.271427
 30
0.0
 10
96.993094
 20
23.283333
 30
0.0
 10
96.924564
 20
23.283333
 30
0.0
  0
SPLINE
  5
13e
100
AcDbEntity
  8
Layer_2
 62
7
100
AcDbSpline
 70
8
 71
3
 72
8
 73
4
 74
0
 40
0
 40
0
 40
0
 40
0
 40
1
 40
1
 40
1
 40
1
 10
96.924564
 20
23.283333
 30
0.0
 10
96.747028
 20
23.283333
 30
0.0
 10
96.602558
 20
23.352752
 30
0.0
 10
96.243418
 20
23.610636
 30
0.0
  0
LWPOLYLINE
  5
13f
100
AcDbEntity
  8
Layer_2
 62
7
100
AcDbPolyline
 90
3
 70
0
 10
94.502878
 20
21.547772
 30
0.0
 10
92.926728
 20
22.073915
 30
0.0
 10
93.991351
 20
22.095135
 30
0.0
  0
SPLINE
  5
140
100
AcDbEntity
  8
Layer_2
 62
7
100
AcDbSpline
 70
8
 71
3
 72
8
 73
4
 74
0
 40
0
 40
0
 40
0
 40
0
 40
1
 40
1
 40
1
 40
1
 10
96.378805
 20
23.860122
 30
0.0
 10
97.221736
 20
23.902784
 30
0.0
 10
98.113376
 20
24.114268
 30
0.0
 10
98.711912
 20
24.413504
 30
0.0
  0
SPLINE
  5
141
100
AcDbEntity
  8
Layer_2
 62
7
100
AcDbSpline
 70
8
 71
3
 72
8
 73
4
 74
0
 40
0
 40
0
 40
0
 40
0
 40
1
 40
1
 40
1
 40
1
 10
98.711912
 20
24.413504
 30
0.0
 10
99.037095
 20
24.576077
 30
0.0
 10
99.466874
 20
24.868891
 30
0.0
 10
99.728060
 20
25.105815
 30
0.0
  0
SPLINE
  5
142
100
AcDbEntity
  8
Layer_2
 62
7
100
AcDbSpline
 70
8
 71
3
 72
8
 73
4
 74
0
 40
0
 40
0
 40
0
 40
0
 40
1
 40
1
 40
1
 40
1
 10
99.728060
 20
25.105815
 30
0.0
 10
100.146107
 20
25.485034
 30
0.0
 10
100.542664
 20
26.109909
 30
0.0
 10
100.696800
 20
26.632310
 30
0.0
  0
SPLINE
  5
143
100
AcDbEntity
  8
Layer_2
 62
7
100
AcDbSpline
 70
8
 71
3
 72
8
 73
4
 74
0
 40
0
 40
0
 40
0
 40
0
 40
1
 40
1
 40
1
 40
1
 10
100.696800
 20
26.632310
 30
0.0
 10
100.777672
 20
26.906410
 30
0.0
 10
100.774513
 20
26.916949
 30
0.0
 10
100.611419
 20
26.916949
 30
0.0
  0
SPLINE
  5
144
100
AcDbEntity
  8
Layer_2
 62
7
100
AcDbSpline
 70
8
 71
3
 72
8
 73
4
 74
0
 40
0
 40
0
 40
0
 40
0
 40
1
 40
1
 40
1
 40
1
 10
100.611419
 20
26.916949
 30
0.0
 10
100.384057
 20
26.916949
 30
0.0
 10
99.131104
 20
27.051709
 30
0.0
 10
98.468484
 20
27.147433
 30
0.0
  0
SPLINE
  5
145
100
AcDbEntity
  8
Layer_2
 62
7
100
AcDbSpline
 70
8
 71
3
 72
8
 73
4
 74
0
 40
0
 40
0
 40
0
 40
0
 40
1
 40
1
 40
1
 40
1
 10
98.468484
 20
27.147433
 30
0.0
 10
94.545960
 20
27.714088
 30
0.0
 10
89.957516
 20
29.153861
 30
0.0
 10
85.817821
 20
31.116987
 30
0.0
  0
SPLINE
  5
146
100
AcDbEntity
  8
Layer_2
 62
7
100
AcDbSpline
 70
8
 71
3
 72
8
 73
4
 74
0
 40
0
 40
0
 40
0
 40
0
 40
1
 40
1
 40
1
 40
1
 10
85.817821
 20
31.116987
 30
0.0
 10
84.335721
 20
31.819826
 30
0.0
 10
82.915302
 20
32.598032
 30
0.0
 10
81.580680
 20
33.438394
 30
0.0
  0
LWPOLYLINE
  5
147
100
AcDbEntity
  8
Layer_2
 62
7
100
AcDbPolyline
 90
3
 70
0
 10
96.243418
 20
23.610636
 30
0.0
 10
95.927765
 20
23.837289
 30
0.0
 10
96.378805
 20
23.860122
 30
0.0
  0
SPLINE
  5
148
100
AcDbEntity
  8
Layer_2
 62
7
100
AcDbSpline
 70
8
 71
3
 72
8
 73
4
 74
0
 40
0
 40
0
 40
0
 40
0
 40
1
 40
1
 40
1
 40
1
 10
80.998597
 20
33.914289
 30
0.0
 10
81.980950
 20
34.171776
 30
0.0
 10
82.882192
 20
34.639687
 30
0.0
 10
83.326113
 20
35.122694
 30
0.0
  0
LWPOLYLINE
  5
149
100
AcDbEntity
  8
Layer_2
 62
7
100
AcDbPolyline
 90
3
 70
0
 10
81.580680
 20
33.438394
 30
0.0
 10
80.875944
 20
33.882139
 30
0.0
 10
80.998597
 20
33.914289
 30
0.0
  0
SPLINE
  5
14a
100
AcDbEntity
  8
Layer_2
 62
7
100
AcDbSpline
 70
8
 71
3
 72
8
 73
4
 74
0
 40
0
 40
0
 40
0
 40
0
 40
1
 40
1
 40
1
 40
1
 10
83.225759
 20
35.323624
 30
0.0
 10
82.801431
 20
35.369810
 30
0.0
 10
82.451472
 20
35.536915
 30
0.0
 10
82.038653
 20
35.890454
 30
0.0
  0
LWPOLYLINE
  5
14b
100
AcDbEntity
  8
Layer_2
 62
7
100
AcDbPolyline
 90
3
 70
0
 10
83.326113
 20
35.122694
 30
0.0
 10
83.484863
 20
35.295419
 30
0.0
 10
83.225759
 20
35.323624
 30
0.0
  0
SPLINE
  5
14c
100
AcDbEntity
  8
Layer_2
 62
7
100
AcDbSpline
 70
8
 71
3
 72
8
 73
4
 74
0
 40
0
 40
0
 40
0
 40
0
 40
1
 40
1
 40
1
 40
1
 10
82.144486
 20
36.034750
 30
0.0
 10
83.079180
 20
36.124171
 30
0.0
 10
83.765395
 20
36.431953
 30
0.0
 10
84.960169
 20
37.297638
 30
0.0
  0
LWPOLYLINE
  5
14d
100
AcDbEntity
  8
Layer_2
 62
7
100
AcDbPolyline
 90
3
 70
0
 10
82.038653
 20
35.890454
 30
0.0
 10
81.897723
 20
36.011149
 30
0.0
 10
82.144486
 20
36.034750
 30
0.0
  0
SPLINE
  5
14e
100
AcDbEntity
  8
Layer_2
 62
7
100
AcDbSpline
 70
8
 71
3
 72
8
 73
4
 74
0
 40
0
 40
0
 40
0
 40
0
 40
1
 40
1
 40
1
 40
1
 10
85.030725
 20
37.445336
 30
0.0
 10
84.901590
 20
37.477131
 30
0.0
 10
84.677745
 20
37.608216
 30
0.0
 10
84.502823
 20
37.754475
 30
0.0
  0
SPLINE
  5
14f
100
AcDbEntity
  8
Layer_2
 62
7
100
AcDbSpline
 70
8
 71
3
 72
8
 73
4
 74
0
 40
0
 40
0
 40
0
 40
0
 40
1
 40
1
 40
1
 40
1
 10
84.502823
 20
37.754475
 30
0.0
 10
84.341835
 20
37.889082
 30
0.0
 10
83.865175
 20
38.404729
 30
0.0
 10
83.814087
 20
38.499550
 30
0.0
  0
SPLINE
  5
150
100
AcDbEntity
  8
Layer_2
 62
7
100
AcDbSpline
 70
8
 71
3
 72
8
 73
4
 74
0
 40
0
 40
0
 40
0
 40
0
 40
1
 40
1
 40
1
 40
1
 10
83.814087
 20
38.499550
 30
0.0
 10
83.783906
 20
38.555560
 30
0.0
 10
83.788210
 20
38.559232
 30
0.0
 10
83.847070
 20
38.527728
 30
0.0
  0
SPLINE
  5
151
100
AcDbEntity
  8
Layer_2
 62
7
100
AcDbSpline
 70
8
 71
3
 72
8
 73
4
 74
0
 40
0
 40
0
 40
0
 40
0
 40
1
 40
1
 40
1
 40
1
 10
83.847070
 20
38.527728
 30
0.0
 10
83.884299
 20
38.507805
 30
0.0
 10
84.122559
 20
38.420328
 30
0.0
 10
84.376533
 20
38.333333
 30
0.0
  0
SPLINE
  5
152
100
AcDbEntity
  8
Layer_2
 62
7
100
AcDbSpline
 70
8
 71
3
 72
8
 73
4
 74
0
 40
0
 40
0
 40
0
 40
0
 40
1
 40
1
 40
1
 40
1
 10
84.376533
 20
38.333333
 30
0.0
 10
86.332552
 20
37.663345
 30
0.0
 10
88.228300
 20
37.754616
 30
0.0
 10
89.467809
 20
38.578449
 30
0.0
  0
SPLINE
  5
153
100
AcDbEntity
  8
Layer_2
 62
7
100
AcDbSpline
 70
8
 71
3
 72
8
 73
4
 74
0
 40
0
 40
0
 40
0
 40
0
 40
1
 40
1
 40
1
 40
1
 10
89.467809
 20
38.578449
 30
0.0
 10
89.710559
 20
38.739792
 30
0.0
 10
90.240556
 20
39.208160
 30
0.0
 10
90.240556
 20
39.261338
 30
0.0
  0
SPLINE
  5
154
100
AcDbEntity
  8
Layer_2
 62
7
100
AcDbSpline
 70
8
 71
3
 72
8
 73
4
 74
0
 40
0
 40
0
 40
0
 40
0
 40
1
 40
1
 40
1
 40
1
 10
90.240556
 20
39.261338
 30
0.0
 10
90.240556
 20
39.274250
 30
0.0
 10
90.172262
 20
39.303082
 30
0.0
 10
90.088797
 20
39.325404
 30
0.0
  0
SPLINE
  5
155
100
AcDbEntity
  8
Layer_2
 62
7
100
AcDbSpline
 70
8
 71
3
 72
8
 73
4
 74
0
 40
0
 40
0
 40
0
 40
0
 40
1
 40
1
 40
1
 40
1
 10
90.088797
 20
39.325404
 30
0.0
 10
90.005326
 20
39.347735
 30
0.0
 10
89.859625
 20
39.418490
 30
0.0
 10
89.765016
 20
39.482652
 30
0.0
  0
SPLINE
  5
156
100
AcDbEntity
  8
Layer_2
 62
7
100
AcDbSpline
 70
8
 71
3
 72
8
 73
4
 74
0
 40
0
 40
0
 40
0
 40
0
 40
1
 40
1
 40
1
 40
1
 10
89.765016
 20
39.482652
 30
0.0
 10
89.590147
 20
39.601246
 30
0.0
 10
89.365992
 20
39.847755
 30
0.0
 10
89.401102
 20
39.882866
 30
0.0
  0
SPLINE
  5
157
100
AcDbEntity
  8
Layer_2
 62
7
100
AcDbSpline
 70
8
 71
3
 72
8
 73
4
 74
0
 40
0
 40
0
 40
0
 40
0
 40
1
 40
1
 40
1
 40
1
 10
89.401102
 20
39.882866
 30
0.0
 10
89.411712
 20
39.893475
 30
0.0
 10
89.640648
 20
39.868896
 30
0.0
 10
89.909848
 20
39.828219
 30
0.0
  0
SPLINE
  5
158
100
AcDbEntity
  8
Layer_2
 62
7
100
AcDbSpline
 70
8
 71
3
 72
8
 73
4
 74
0
 40
0
 40
0
 40
0
 40
0
 40
1
 40
1
 40
1
 40
1
 10
89.909848
 20
39.828219
 30
0.0
 10
90.533641
 20
39.733990
 30
0.0
 10
91.578348
 20
39.698366
 30
0.0
 10
92.062657
 20
39.754810
 30
0.0
  0
SPLINE
  5
159
100
AcDbEntity
  8
Layer_2
 62
7
100
AcDbSpline
 70
8
 71
3
 72
8
 73
4
 74
0
 40
0
 40
0
 40
0
 40
0
 40
1
 40
1
 40
1
 40
1
 10
92.062657
 20
39.754810
 30
0.0
 10
93.422705
 20
39.913314
 30
0.0
 10
94.350160
 20
40.535130
 30
0.0
 10
94.939657
 20
41.683710
 30
0.0
  0
SPLINE
  5
15a
100
AcDbEntity
  8
Layer_2
 62
7
100
AcDbSpline
 70
8
 71
3
 72
8
 73
4
 74
0
 40
0
 40
0
 40
0
 40
0
 40
1
 40
1
 40
1
 40
1
 10
94.939657
 20
41.683710
 30
0.0
 10
95.086712
 20
41.970232
 30
0.0
 10
95.301300
 20
42.506797
 30
0.0
 10
95.277461
 20
42.528371
 30
0.0
  0
SPLINE
  5
15b
100
AcDbEntity
  8
Layer_2
 62
7
100
AcDbSpline
 70
8
 71
3
 72
8
 73
4
 74
0
 40
0
 40
0
 40
0
 40
0
 40
1
 40
1
 40
1
 40
1
 10
95.277461
 20
42.528371
 30
0.0
 10
95.272064
 20
42.533266
 30
0.0
 10
95.069202
 20
42.555687
 30
0.0
 10
94.826669
 20
42.578208
 30
0.0
  0
SPLINE
  5
15c
100
AcDbEntity
  8
Layer_2
 62
7
100
AcDbSpline
 70
8
 71
3
 72
8
 73
4
 74
0
 40
0
 40
0
 40
0
 40
0
 40
1
 40
1
 40
1
 40
1
 10
94.826669
 20
42.578208
 30
0.0
 10
94.183258
 20
42.637953
 30
0.0
 10
93.691030
 20
42.714894
 30
0.0
 10
93.422507
 20
42.797690
 30
0.0
  0
SPLINE
  5
15d
100
AcDbEntity
  8
Layer_2
 62
7
100
AcDbSpline
 70
8
 71
3
 72
8
 73
4
 74
0
 40
0
 40
0
 40
0
 40
0
 40
1
 40
1
 40
1
 40
1
 10
93.422507
 20
42.797690
 30
0.0
 10
93.179366
 20
42.872660
 30
0.0
 10
92.832976
 20
43.032513
 30
0.0
 10
92.858450
 20
43.057993
 30
0.0
  0
SPLINE
  5
15e
100
AcDbEntity
  8
Layer_2
 62
7
100
AcDbSpline
 70
8
 71
3
 72
8
 73
4
 74
0
 40
0
 40
0
 40
0
 40
0
 40
1
 40
1
 40
1
 40
1
 10
92.858450
 20
43.057993
 30
0.0
 10
92.866334
 20
43.065877
 30
0.0
 10
93.030646
 20
43.089510
 30
0.0
 10
93.223559
 20
43.110489
 30
0.0
  0
SPLINE
  5
15f
100
AcDbEntity
  8
Layer_2
 62
7
100
AcDbSpline
 70
8
 71
3
 72
8
 73
4
 74
0
 40
0
 40
0
 40
0
 40
0
 40
1
 40
1
 40
1
 40
1
 10
93.223559
 20
43.110489
 30
0.0
 10
94.485399
 20
43.247720
 30
0.0
 10
95.505749
 20
43.685960
 30
0.0
 10
96.220553
 20
44.397708
 30
0.0
  0
SPLINE
  5
160
100
AcDbEntity
  8
Layer_2
 62
7
100
AcDbSpline
 70
8
 71
3
 72
8
 73
4
 74
0
 40
0
 40
0
 40
0
 40
0
 40
1
 40
1
 40
1
 40
1
 10
96.220553
 20
44.397708
 30
0.0
 10
96.972983
 20
45.146915
 30
0.0
 10
97.390453
 20
46.159073
 30
0.0
 10
97.506594
 20
47.515735
 30
0.0
  0
SPLINE
  5
161
100
AcDbEntity
  8
Layer_2
 62
7
100
AcDbSpline
 70
8
 71
3
 72
8
 73
4
 74
0
 40
0
 40
0
 40
0
 40
0
 40
1
 40
1
 40
1
 40
1
 10
97.506594
 20
47.515735
 30
0.0
 10
97.527205
 20
47.756379
 30
0.0
 10
97.537394
 20
47.959923
 30
0.0
 10
97.529269
 20
47.968059
 30
0.0
  0
SPLINE
  5
162
100
AcDbEntity
  8
Layer_2
 62
7
100
AcDbSpline
 70
8
 71
3
 72
8
 73
4
 74
0
 40
0
 40
0
 40
0
 40
0
 40
1
 40
1
 40
1
 40
1
 10
97.529269
 20
47.968059
 30
0.0
 10
97.521120
 20
47.976181
 30
0.0
 10
97.442734
 20
47.958481
 30
0.0
 10
97.355049
 20
47.928723
 30
0.0
  0
SPLINE
  5
163
100
AcDbEntity
  8
Layer_2
 62
7
100
AcDbSpline
 70
8
 71
3
 72
8
 73
4
 74
0
 40
0
 40
0
 40
0
 40
0
 40
1
 40
1
 40
1
 40
1
 10
97.355049
 20
47.928723
 30
0.0
 10
96.097114
 20
47.501643
 30
0.0
 10
91.202748
 20
48.191243
 30
0.0
 10
86.390176
 20
49.473633
 30
0.0
  0
SPLINE
  5
164
100
AcDbEntity
  8
Layer_2
 62
7
100
AcDbSpline
 70
8
 71
3
 72
8
 73
4
 74
0
 40
0
 40
0
 40
0
 40
0
 40
1
 40
1
 40
1
 40
1
 10
86.390176
 20
49.473633
 30
0.0
 10
81.923234
 20
50.663925
 30
0.0
 10
78.009655
 20
52.207186
 30
0.0
 10
75.267039
 20
53.859874
 30
0.0
  0
SPLINE
  5
165
100
AcDbEntity
  8
Layer_2
 62
7
100
AcDbSpline
 70
8
 71
3
 72
8
 73
4
 74
0
 40
0
 40
0
 40
0
 40
0
 40
1
 40
1
 40
1
 40
1
 10
75.267039
 20
53.859874
 30
0.0
 10
74.859065
 20
54.105717
 30
0.0
 10
74.080799
 20
54.619218
 30
0.0
 10
74.094856
 20
54.633278
 30
0.0
  0
SPLINE
  5
166
100
AcDbEntity
  8
Layer_2
 62
7
100
AcDbSpline
 70
8
 71
3
 72
8
 73
4
 74
0
 40
0
 40
0
 40
0
 40
0
 40
1
 40
1
 40
1
 40
1
 10
74.094856
 20
54.633278
 30
0.0
 10
74.100756
 20
54.639178
 30
0.0
 10
74.247433
 20
54.618117
 30
0.0
 10
74.420788
 20
54.586473
 30
0.0
  0
SPLINE
  5
167
100
AcDbEntity
  8
Layer_2
 62
7
100
AcDbSpline
 70
8
 71
3
 72
8
 73
4
 74
0
 40
0
 40
0
 40
0
 40
0
 40
1
 40
1
 40
1
 40
1
 10
74.420788
 20
54.586473
 30
0.0
 10
74.836176
 20
54.510633
 30
0.0
 10
75.635355
 20
54.510485
 30
0.0
 10
75.974377
 20
54.586209
 30
0.0
  0
SPLINE
  5
168
100
AcDbEntity
  8
Layer_2
 62
7
100
AcDbSpline
 70
8
 71
3
 72
8
 73
4
 74
0
 40
0
 40
0
 40
0
 40
0
 40
1
 40
1
 40
1
 40
1
 10
75.974377
 20
54.586209
 30
0.0
 10
76.112217
 20
54.616990
 30
0.0
 10
76.388542
 20
54.698440
 30
0.0
 10
76.588432
 20
54.767213
 30
0.0
  0
SPLINE
  5
169
100
AcDbEntity
  8
Layer_2
 62
7
100
AcDbSpline
 70
8
 71
3
 72
8
 73
4
 74
0
 40
0
 40
0
 40
0
 40
0
 40
1
 40
1
 40
1
 40
1
 10
76.588432
 20
54.767213
 30
0.0
 10
76.788320
 20
54.835983
 30
0.0
 10
76.980312
 20
54.892252
 30
0.0
 10
77.015075
 20
54.892252
 30
0.0
  0
SPLINE
  5
16a
100
AcDbEntity
  8
Layer_2
 62
7
100
AcDbSpline
 70
8
 71
3
 72
8
 73
4
 74
0
 40
0
 40
0
 40
0
 40
0
 40
1
 40
1
 40
1
 40
1
 10
77.015075
 20
54.892252
 30
0.0
 10
77.119046
 20
54.892252
 30
0.0
 10
77.027405
 20
55.087504
 30
0.0
 10
76.861337
 20
55.219851
 30
0.0
  0
SPLINE
  5
16b
100
AcDbEntity
  8
Layer_2
 62
7
100
AcDbSpline
 70
8
 71
3
 72
8
 73
4
 74
0
 40
0
 40
0
 40
0
 40
0
 40
1
 40
1
 40
1
 40
1
 10
76.861337
 20
55.219851
 30
0.0
 10
76.620521
 20
55.411756
 30
0.0
 10
76.390071
 20
55.641526
 30
0.0
 10
76.462461
 20
55.617552
 30
0.0
  0
SPLINE
  5
16c
100
AcDbEntity
  8
Layer_2
 62
7
100
AcDbSpline
 70
8
 71
3
 72
8
 73
4
 74
0
 40
0
 40
0
 40
0
 40
0
 40
1
 40
1
 40
1
 40
1
 10
76.462461
 20
55.617552
 30
0.0
 10
76.663629
 20
55.550922
 30
0.0
 10
77.611407
 20
55.383160
 30
0.0
 10
77.958072
 20
55.352818
 30
0.0
  0
SPLINE
  5
16d
100
AcDbEntity
  8
Layer_2
 62
7
100
AcDbSpline
 70
8
 71
3
 72
8
 73
4
 74
0
 40
0
 40
0
 40
0
 40
0
 40
1
 40
1
 40
1
 40
1
 10
77.958072
 20
55.352818
 30
0.0
 10
78.920597
 20
55.268574
 30
0.0
 10
79.776727
 20
55.497696
 30
0.0
 10
80.486261
 20
56.029423
 30
0.0
  0
SPLINE
  5
16e
100
AcDbEntity
  8
Layer_2
 62
7
100
AcDbSpline
 70
8
 71
3
 72
8
 73
4
 74
0
 40
0
 40
0
 40
0
 40
0
 40
1
 40
1
 40
1
 40
1
 10
80.486261
 20
56.029423
 30
0.0
 10
80.738022
 20
56.218095
 30
0.0
 10
81.350564
 20
56.787050
 30
0.0
 10
81.350564
 20
56.832222
 30
0.0
  0
SPLINE
  5
16f
100
AcDbEntity
  8
Layer_2
 62
7
100
AcDbSpline
 70
8
 71
3
 72
8
 73
4
 74
0
 40
0
 40
0
 40
0
 40
0
 40
1
 40
1
 40
1
 40
1
 10
81.350564
 20
56.832222
 30
0.0
 10
81.350564
 20
56.845928
 30
0.0
 10
81.126409
 20
56.914664
 30
0.0
 10
80.852439
 20
56.984979
 30
0.0
  0
SPLINE
  5
170
100
AcDbEntity
  8
Layer_2
 62
7
100
AcDbSpline
 70
8
 71
3
 72
8
 73
4
 74
0
 40
0
 40
0
 40
0
 40
0
 40
1
 40
1
 40
1
 40
1
 10
80.852439
 20
56.984979
 30
0.0
 10
80.300819
 20
57.126553
 30
0.0
 10
79.911429
 20
57.299744
 30
0.0
 10
79.683240
 20
57.505013
 30
0.0
  0
LWPOLYLINE
  5
171
100
AcDbEntity
  8
Layer_2
 62
7
100
AcDbPolyline
 90
3
 70
0
 10
84.960169
 20
37.297638
 30
0.0
 10
85.130198
 20
37.420836
 30
0.0
 10
85.030725
 20
37.445336
 30
0.0
  0
SPLINE
  5
172
100
AcDbEntity
  8
Layer_2
 62
7
100
AcDbSpline
 70
8
 71
3
 72
8
 73
4
 74
0
 40
0
 40
0
 40
0
 40
0
 40
1
 40
1
 40
1
 40
1
 10
79.815981
 20
57.552685
 30
0.0
 10
80.791256
 20
57.252762
 30
0.0
 10
81.482544
 20
57.138073
 30
0.0
 10
82.320704
 20
57.137139
 30
0.0
  0
SPLINE
  5
173
100
AcDbEntity
  8
Layer_2
 62
7
100
AcDbSpline
 70
8
 71
3
 72
8
 73
4
 74
0
 40
0
 40
0
 40
0
 40
0
 40
1
 40
1
 40
1
 40
1
 10
82.320704
 20
57.137139
 30
0.0
 10
83.012174
 20
57.136345
 30
0.0
 10
83.384803
 20
57.186489
 30
0.0
 10
83.902965
 20
57.349969
 30
0.0
  0
SPLINE
  5
174
100
AcDbEntity
  8
Layer_2
 62
7
100
AcDbSpline
 70
8
 71
3
 72
8
 73
4
 74
0
 40
0
 40
0
 40
0
 40
0
 40
1
 40
1
 40
1
 40
1
 10
83.902965
 20
57.349969
 30
0.0
 10
84.222484
 20
57.450778
 30
0.0
 10
84.666677
 20
57.640696
 30
0.0
 10
84.666677
 20
57.676505
 30
0.0
  0
SPLINE
  5
175
100
AcDbEntity
  8
Layer_2
 62
7
100
AcDbSpline
 70
8
 71
3
 72
8
 73
4
 74
0
 40
0
 40
0
 40
0
 40
0
 40
1
 40
1
 40
1
 40
1
 10
84.666677
 20
57.676505
 30
0.0
 10
84.666677
 20
57.689231
 30
0.0
 10
84.524749
 20
57.759738
 30
0.0
 10
84.351289
 20
57.833186
 30
0.0
  0
SPLINE
  5
176
100
AcDbEntity
  8
Layer_2
 62
7
100
AcDbSpline
 70
8
 71
3
 72
8
 73
4
 74
0
 40
0
 40
0
 40
0
 40
0
 40
1
 40
1
 40
1
 40
1
 10
84.351289
 20
57.833186
 30
0.0
 10
84.037974
 20
57.965859
 30
0.0
 10
83.839595
 20
58.104786
 30
0.0
 10
84.031677
 20
58.057023
 30
0.0
  0
SPLINE
  5
177
100
AcDbEntity
  8
Layer_2
 62
7
100
AcDbSpline
 70
8
 71
3
 72
8
 73
4
 74
0
 40
0
 40
0
 40
0
 40
0
 40
1
 40
1
 40
1
 40
1
 10
84.031677
 20
58.057023
 30
0.0
 10
84.584704
 20
57.919498
 30
0.0
 10
85.634169
 20
57.854236
 30
0.0
 10
86.156496
 20
57.924891
 30
0.0
  0
SPLINE
  5
178
100
AcDbEntity
  8
Layer_2
 62
7
100
AcDbSpline
 70
8
 71
3
 72
8
 73
4
 74
0
 40
0
 40
0
 40
0
 40
0
 40
1
 40
1
 40
1
 40
1
 10
86.156496
 20
57.924891
 30
0.0
 10
86.969200
 20
58.034825
 30
0.0
 10
87.657527
 20
58.379302
 30
0.0
 10
88.216359
 20
58.955757
 30
0.0
  0
SPLINE
  5
179
100
AcDbEntity
  8
Layer_2
 62
7
100
AcDbSpline
 70
8
 71
3
 72
8
 73
4
 74
0
 40
0
 40
0
 40
0
 40
0
 40
1
 40
1
 40
1
 40
1
 10
88.216359
 20
58.955757
 30
0.0
 10
88.457143
 20
59.204140
 30
0.0
 10
88.758898
 20
59.571358
 30
0.0
 10
88.758898
 20
59.615996
 30
0.0
  0
SPLINE
  5
17a
100
AcDbEntity
  8
Layer_2
 62
7
100
AcDbSpline
 70
8
 71
3
 72
8
 73
4
 74
0
 40
0
 40
0
 40
0
 40
0
 40
1
 40
1
 40
1
 40
1
 10
88.758898
 20
59.615996
 30
0.0
 10
88.758898
 20
59.631977
 30
0.0
 10
88.619991
 20
59.656088
 30
0.0
 10
88.450219
 20
59.669582
 30
0.0
  0
SPLINE
  5
17b
100
AcDbEntity
  8
Layer_2
 62
7
100
AcDbSpline
 70
8
 71
3
 72
8
 73
4
 74
0
 40
0
 40
0
 40
0
 40
0
 40
1
 40
1
 40
1
 40
1
 10
88.450219
 20
59.669582
 30
0.0
 10
87.956575
 20
59.708817
 30
0.0
 10
87.637615
 20
59.787933
 30
0.0
 10
87.282626
 20
59.959192
 30
0.0
  0
SPLINE
  5
17c
100
AcDbEntity
  8
Layer_2
 62
7
100
AcDbSpline
 70
8
 71
3
 72
8
 73
4
 74
0
 40
0
 40
0
 40
0
 40
0
 40
1
 40
1
 40
1
 40
1
 10
87.282626
 20
59.959192
 30
0.0
 10
87.101267
 20
60.046685
 30
0.0
 10
86.961358
 20
60.126748
 30
0.0
 10
86.971719
 20
60.137109
 30
0.0
  0
SPLINE
  5
17d
100
AcDbEntity
  8
Layer_2
 62
7
100
AcDbSpline
 70
8
 71
3
 72
8
 73
4
 74
0
 40
0
 40
0
 40
0
 40
0
 40
1
 40
1
 40
1
 40
1
 10
86.971719
 20
60.137109
 30
0.0
 10
86.982091
 20
60.147480
 30
0.0
 10
87.117547
 20
60.177984
 30
0.0
 10
87.272752
 20
60.204919
 30
0.0
  0
SPLINE
  5
17e
100
AcDbEntity
  8
Layer_2
 62
7
100
AcDbSpline
 70
8
 71
3
 72
8
 73
4
 74
0
 40
0
 40
0
 40
0
 40
0
 40
1
 40
1
 40
1
 40
1
 10
87.272752
 20
60.204919
 30
0.0
 10
88.352381
 20
60.392276
 30
0.0
 10
89.313279
 20
61.059915
 30
0.0
 10
90.023500
 20
62.116171
 30
0.0
  0
SPLINE
  5
17f
100
AcDbEntity
  8
Layer_2
 62
7
100
AcDbSpline
 70
8
 71
3
 72
8
 73
4
 74
0
 40
0
 40
0
 40
0
 40
0
 40
1
 40
1
 40
1
 40
1
 10
90.023500
 20
62.116171
 30
0.0
 10
90.268531
 20
62.480582
 30
0.0
 10
90.742759
 20
63.352214
 30
0.0
 10
90.717889
 20
63.392457
 30
0.0
  0
SPLINE
  5
180
100
AcDbEntity
  8
Layer_2
 62
7
100
AcDbSpline
 70
8
 71
3
 72
8
 73
4
 74
0
 40
0
 40
0
 40
0
 40
0
 40
1
 40
1
 40
1
 40
1
 10
90.717889
 20
63.392457
 30
0.0
 10
90.708655
 20
63.407406
 30
0.0
 10
90.631436
 20
63.429166
 30
0.0
 10
90.546290
 20
63.440839
 30
0.0
  0
SPLINE
  5
181
100
AcDbEntity
  8
Layer_2
 62
7
100
AcDbSpline
 70
8
 71
3
 72
8
 73
4
 74
0
 40
0
 40
0
 40
0
 40
0
 40
1
 40
1
 40
1
 40
1
 10
90.546290
 20
63.440839
 30
0.0
 10
90.243390
 20
63.482355
 30
0.0
 10
88.832965
 20
63.789240
 30
0.0
 10
87.929871
 20
64.010127
 30
0.0
  0
SPLINE
  5
182
100
AcDbEntity
  8
Layer_2
 62
7
100
AcDbSpline
 70
8
 71
3
 72
8
 73
4
 74
0
 40
0
 40
0
 40
0
 40
0
 40
1
 40
1
 40
1
 40
1
 10
87.929871
 20
64.010127
 30
0.0
 10
83.942873
 20
64.985302
 30
0.0
 10
79.595319
 20
66.520531
 30
0.0
 10
76.535148
 20
68.033889
 30
0.0
  0
SPLINE
  5
183
100
AcDbEntity
  8
Layer_2
 62
7
100
AcDbSpline
 70
8
 71
3
 72
8
 73
4
 74
0
 40
0
 40
0
 40
0
 40
0
 40
1
 40
1
 40
1
 40
1
 10
76.535148
 20
68.033889
 30
0.0
 10
75.834597
 20
68.380335
 30
0.0
 10
74.845235
 20
68.932912
 30
0.0
 10
74.743715
 20
69.034435
 30
0.0
  0
SPLINE
  5
184
100
AcDbEntity
  8
Layer_2
 62
7
100
AcDbSpline
 70
8
 71
3
 72
8
 73
4
 74
0
 40
0
 40
0
 40
0
 40
0
 40
1
 40
1
 40
1
 40
1
 10
74.743715
 20
69.034435
 30
0.0
 10
74.723818
 20
69.054305
 30
0.0
 10
74.832702
 20
69.076292
 30
0.0
 10
75.023432
 20
69.090897
 30
0.0
  0
SPLINE
  5
185
100
AcDbEntity
  8
Layer_2
 62
7
100
AcDbSpline
 70
8
 71
3
 72
8
 73
4
 74
0
 40
0
 40
0
 40
0
 40
0
 40
1
 40
1
 40
1
 40
1
 10
75.023432
 20
69.090897
 30
0.0
 10
76.682200
 20
69.217908
 30
0.0
 10
78.351002
 20
69.744810
 30
0.0
 10
79.511496
 20
70.507945
 30
0.0
  0
SPLINE
  5
186
100
AcDbEntity
  8
Layer_2
 62
7
100
AcDbSpline
 70
8
 71
3
 72
8
 73
4
 74
0
 40
0
 40
0
 40
0
 40
0
 40
1
 40
1
 40
1
 40
1
 10
79.511496
 20
70.507945
 30
0.0
 10
79.794555
 20
70.694082
 30
0.0
 10
80.574454
 20
71.421834
 30
0.0
 10
80.574454
 20
71.499825
 30
0.0
  0
SPLINE
  5
187
100
AcDbEntity
  8
Layer_2
 62
7
100
AcDbSpline
 70
8
 71
3
 72
8
 73
4
 74
0
 40
0
 40
0
 40
0
 40
0
 40
1
 40
1
 40
1
 40
1
 10
80.574454
 20
71.499825
 30
0.0
 10
80.574454
 20
71.517976
 30
0.0
 10
80.427610
 20
71.543135
 30
0.0
 10
80.248136
 20
71.555771
 30
0.0
  0
SPLINE
  5
188
100
AcDbEntity
  8
Layer_2
 62
7
100
AcDbSpline
 70
8
 71
3
 72
8
 73
4
 74
0
 40
0
 40
0
 40
0
 40
0
 40
1
 40
1
 40
1
 40
1
 10
80.248136
 20
71.555771
 30
0.0
 10
79.769412
 20
71.589479
 30
0.0
 10
79.296091
 20
71.676866
 30
0.0
 10
78.916398
 20
71.801641
 30
0.0
  0
LWPOLYLINE
  5
189
100
AcDbEntity
  8
Layer_2
 62
7
100
AcDbPolyline
 90
3
 70
0
 10
79.683240
 20
57.505013
 30
0.0
 10
79.533761
 20
57.639477
 30
0.0
 10
79.815981
 20
57.552685
 30
0.0
  0
SPLINE
  5
18a
100
AcDbEntity
  8
Layer_2
 62
7
100
AcDbSpline
 70
8
 71
3
 72
8
 73
4
 74
0
 40
0
 40
0
 40
0
 40
0
 40
1
 40
1
 40
1
 40
1
 10
78.969314
 20
71.934607
 30
0.0
 10
79.943613
 20
71.991926
 30
0.0
 10
80.940630
 20
72.419959
 30
0.0
 10
81.777523
 20
73.140205
 30
0.0
  0
SPLINE
  5
18b
100
AcDbEntity
  8
Layer_2
 62
7
100
AcDbSpline
 70
8
 71
3
 72
8
 73
4
 74
0
 40
0
 40
0
 40
0
 40
0
 40
1
 40
1
 40
1
 40
1
 10
81.777523
 20
73.140205
 30
0.0
 10
82.440383
 20
73.710678
 30
0.0
 10
82.902787
 20
74.526928
 30
0.0
 10
82.902787
 20
75.126559
 30
0.0
  0
LWPOLYLINE
  5
18c
100
AcDbEntity
  8
Layer_2
 62
7
100
AcDbPolyline
 90
3
 70
0
 10
78.916398
 20
71.801641
 30
0.0
 10
78.581261
 20
71.911774
 30
0.0
 10
78.969314
 20
71.934607
 30
0.0
  0
SPLINE
  5
18d
100
AcDbEntity
  8
Layer_2
 62
7
100
AcDbSpline
 70
8
 71
3
 72
8
 73
4
 74
0
 40
0
 40
0
 40
0
 40
0
 40
1
 40
1
 40
1
 40
1
 10
82.735219
 20
75.328211
 30
0.0
 10
82.039092
 20
75.411100
 30
0.0
 10
78.492615
 20
76.294133
 30
0.0
 10
75.612543
 20
77.101681
 30
0.0
  0
SPLINE
  5
18e
100
AcDbEntity
  8
Layer_2
 62
7
100
AcDbSpline
 70
8
 71
3
 72
8
 73
4
 74
0
 40
0
 40
0
 40
0
 40
0
 40
1
 40
1
 40
1
 40
1
 10
75.612543
 20
77.101681
 30
0.0
 10
73.026177
 20
77.826875
 30
0.0
 10
70.497803
 20
78.637395
 30
0.0
 10
69.252714
 20
79.140436
 30
0.0
  0
LWPOLYLINE
  5
18f
100
AcDbEntity
  8
Layer_2
 62
7
100
AcDbPolyline
 90
3
 70
0
 10
82.902787
 20
75.126559
 30
0.0
 10
82.902787
 20
75.308262
 30
0.0
 10
82.735219
 20
75.328211
 30
0.0
  0
SPLINE
  5
190
100
AcDbEntity
  8
Layer_2
 62
7
100
AcDbSpline
 70
8
 71
3
 72
8
 73
4
 74
0
 40
0
 40
0
 40
0
 40
0
 40
1
 40
1
 40
1
 40
1
 10
69.142795
 20
79.300824
 30
0.0
 10
69.427392
 20
79.361858
 30
0.0
 10
69.801875
 20
79.531139
 30
0.0
 10
70.105773
 20
79.736119
 30
0.0
  0
SPLINE
  5
191
100
AcDbEntity
  8
Layer_2
 62
7
100
AcDbSpline
 70
8
 71
3
 72
8
 73
4
 74
0
 40
0
 40
0
 40
0
 40
0
 40
1
 40
1
 40
1
 40
1
 10
70.105773
 20
79.736119
 30
0.0
 10
70.256135
 20
79.837452
 30
0.0
 10
70.379167
 20
79.930125
 30
0.0
 10
70.379167
 20
79.941962
 30
0.0
  0
SPLINE
  5
192
100
AcDbEntity
  8
Layer_2
 62
7
100
AcDbSpline
 70
8
 71
3
 72
8
 73
4
 74
0
 40
0
 40
0
 40
0
 40
0
 40
1
 40
1
 40
1
 40
1
 10
70.379167
 20
79.941962
 30
0.0
 10
70.379167
 20
79.953789
 30
0.0
 10
70.311698
 20
79.983248
 30
0.0
 10
70.229238
 20
80.007404
 30
0.0
  0
SPLINE
  5
193
100
AcDbEntity
  8
Layer_2
 62
7
100
AcDbSpline
 70
8
 71
3
 72
8
 73
4
 74
0
 40
0
 40
0
 40
0
 40
0
 40
1
 40
1
 40
1
 40
1
 10
70.229238
 20
80.007404
 30
0.0
 10
70.028623
 20
80.066166
 30
0.0
 10
69.820271
 20
80.190509
 30
0.0
 10
69.691250
 20
80.328474
 30
0.0
  0
SPLINE
  5
194
100
AcDbEntity
  8
Layer_2
 62
7
100
AcDbSpline
 70
8
 71
3
 72
8
 73
4
 74
0
 40
0
 40
0
 40
0
 40
0
 40
1
 40
1
 40
1
 40
1
 10
69.691250
 20
80.328474
 30
0.0
 10
69.604446
 20
80.421300
 30
0.0
 10
69.598103
 20
80.438106
 30
0.0
 10
69.655973
 20
80.421964
 30
0.0
  0
SPLINE
  5
195
100
AcDbEntity
  8
Layer_2
 62
7
100
AcDbSpline
 70
8
 71
3
 72
8
 73
4
 74
0
 40
0
 40
0
 40
0
 40
0
 40
1
 40
1
 40
1
 40
1
 10
69.655973
 20
80.421964
 30
0.0
 10
69.982427
 20
80.330900
 30
0.0
 10
70.762627
 20
80.283643
 30
0.0
 10
71.225833
 20
80.326873
 30
0.0
  0
SPLINE
  5
196
100
AcDbEntity
  8
Layer_2
 62
7
100
AcDbSpline
 70
8
 71
3
 72
8
 73
4
 74
0
 40
0
 40
0
 40
0
 40
0
 40
1
 40
1
 40
1
 40
1
 10
71.225833
 20
80.326873
 30
0.0
 10
72.143795
 20
80.412545
 30
0.0
 10
72.856778
 20
80.713210
 30
0.0
 10
73.444031
 20
81.262294
 30
0.0
  0
SPLINE
  5
197
100
AcDbEntity
  8
Layer_2
 62
7
100
AcDbSpline
 70
8
 71
3
 72
8
 73
4
 74
0
 40
0
 40
0
 40
0
 40
0
 40
1
 40
1
 40
1
 40
1
 10
73.444031
 20
81.262294
 30
0.0
 10
73.646284
 20
81.451400
 30
0.0
 10
74.012780
 20
81.918929
 30
0.0
 10
74.012780
 20
81.987834
 30
0.0
  0
SPLINE
  5
198
100
AcDbEntity
  8
Layer_2
 62
7
100
AcDbSpline
 70
8
 71
3
 72
8
 73
4
 74
0
 40
0
 40
0
 40
0
 40
0
 40
1
 40
1
 40
1
 40
1
 10
74.012780
 20
81.987834
 30
0.0
 10
74.012780
 20
82.002439
 30
0.0
 10
73.897686
 20
82.032665
 30
0.0
 10
73.757015
 20
82.054996
 30
0.0
  0
SPLINE
  5
199
100
AcDbEntity
  8
Layer_2
 62
7
100
AcDbSpline
 70
8
 71
3
 72
8
 73
4
 74
0
 40
0
 40
0
 40
0
 40
0
 40
1
 40
1
 40
1
 40
1
 10
73.757015
 20
82.054996
 30
0.0
 10
73.319296
 20
82.124494
 30
0.0
 10
72.769685
 20
82.269920
 30
0.0
 10
72.548750
 20
82.374706
 30
0.0
  0
SPLINE
  5
19a
100
AcDbEntity
  8
Layer_2
 62
7
100
AcDbSpline
 70
8
 71
3
 72
8
 73
4
 74
0
 40
0
 40
0
 40
0
 40
0
 40
1
 40
1
 40
1
 40
1
 10
72.548750
 20
82.374706
 30
0.0
 10
72.432333
 20
82.429919
 30
0.0
 10
72.278237
 20
82.535588
 30
0.0
 10
72.206313
 20
82.609529
 30
0.0
  0
LWPOLYLINE
  5
19b
100
AcDbEntity
  8
Layer_2
 62
7
100
AcDbPolyline
 90
3
 70
0
 10
69.252714
 20
79.140436
 30
0.0
 10
68.955280
 20
79.260607
 30
0.0
 10
69.142795
 20
79.300824
 30
0.0
  0
SPLINE
  5
19c
100
AcDbEntity
  8
Layer_2
 62
7
100
AcDbSpline
 70
8
 71
3
 72
8
 73
4
 74
0
 40
0
 40
0
 40
0
 40
0
 40
1
 40
1
 40
1
 40
1
 10
72.911869
 20
82.746077
 30
0.0
 10
73.533889
 20
82.747665
 30
0.0
 10
73.838594
 20
82.763699
 30
0.0
 10
74.100973
 20
82.808763
 30
0.0
  0
SPLINE
  5
19d
100
AcDbEntity
  8
Layer_2
 62
7
100
AcDbSpline
 70
8
 71
3
 72
8
 73
4
 74
0
 40
0
 40
0
 40
0
 40
0
 40
1
 40
1
 40
1
 40
1
 10
74.100973
 20
82.808763
 30
0.0
 10
75.870705
 20
83.112716
 30
0.0
 10
77.155979
 20
83.898391
 30
0.0
 10
77.895008
 20
85.128018
 30
0.0
  0
SPLINE
  5
19e
100
AcDbEntity
  8
Layer_2
 62
7
100
AcDbSpline
 70
8
 71
3
 72
8
 73
4
 74
0
 40
0
 40
0
 40
0
 40
0
 40
1
 40
1
 40
1
 40
1
 10
77.895008
 20
85.128018
 30
0.0
 10
77.991100
 20
85.287903
 30
0.0
 10
78.069723
 20
85.428606
 30
0.0
 10
78.069723
 20
85.440692
 30
0.0
  0
SPLINE
  5
19f
100
AcDbEntity
  8
Layer_2
 62
7
100
AcDbSpline
 70
8
 71
3
 72
8
 73
4
 74
0
 40
0
 40
0
 40
0
 40
0
 40
1
 40
1
 40
1
 40
1
 10
78.069723
 20
85.440692
 30
0.0
 10
78.069723
 20
85.452783
 30
0.0
 10
77.883192
 20
85.523208
 30
0.0
 10
77.655211
 20
85.597201
 30
0.0
  0
SPLINE
  5
1a0
100
AcDbEntity
  8
Layer_2
 62
7
100
AcDbSpline
 70
8
 71
3
 72
8
 73
4
 74
0
 40
0
 40
0
 40
0
 40
0
 40
1
 40
1
 40
1
 40
1
 10
77.655211
 20
85.597201
 30
0.0
 10
76.085885
 20
86.106542
 30
0.0
 10
74.374690
 20
87.020686
 30
0.0
 10
72.541000
 20
88.329278
 30
0.0
  0
SPLINE
  5
1a1
100
AcDbEntity
  8
Layer_2
 62
7
100
AcDbSpline
 70
8
 71
3
 72
8
 73
4
 74
0
 40
0
 40
0
 40
0
 40
0
 40
1
 40
1
 40
1
 40
1
 10
72.541000
 20
88.329278
 30
0.0
 10
71.632188
 20
88.977840
 30
0.0
 10
71.581505
 20
89.017512
 30
0.0
 10
71.579989
 20
89.081451
 30
0.0
  0
SPLINE
  5
1a2
100
AcDbEntity
  8
Layer_2
 62
7
100
AcDbSpline
 70
8
 71
3
 72
8
 73
4
 74
0
 40
0
 40
0
 40
0
 40
0
 40
1
 40
1
 40
1
 40
1
 10
71.579989
 20
89.081451
 30
0.0
 10
71.574380
 20
89.318182
 30
0.0
 10
71.155195
 20
90.276132
 30
0.0
 10
70.864407
 20
90.716761
 30
0.0
  0
SPLINE
  5
1a3
100
AcDbEntity
  8
Layer_2
 62
7
100
AcDbSpline
 70
8
 71
3
 72
8
 73
4
 74
0
 40
0
 40
0
 40
0
 40
0
 40
1
 40
1
 40
1
 40
1
 10
70.864407
 20
90.716761
 30
0.0
 10
70.630251
 20
91.071581
 30
0.0
 10
70.267214
 20
91.498682
 30
0.0
 10
70.015055
 20
91.716005
 30
0.0
  0
SPLINE
  5
1a4
100
AcDbEntity
  8
Layer_2
 62
7
100
AcDbSpline
 70
8
 71
3
 72
8
 73
4
 74
0
 40
0
 40
0
 40
0
 40
0
 40
1
 40
1
 40
1
 40
1
 10
70.015055
 20
91.716005
 30
0.0
 10
69.895170
 20
91.819325
 30
0.0
 10
69.769694
 20
91.935694
 30
0.0
 10
69.736219
 20
91.974601
 30
0.0
  0
SPLINE
  5
1a5
100
AcDbEntity
  8
Layer_2
 62
7
100
AcDbSpline
 70
8
 71
3
 72
8
 73
4
 74
0
 40
0
 40
0
 40
0
 40
0
 40
1
 40
1
 40
1
 40
1
 10
69.736219
 20
91.974601
 30
0.0
 10
69.621823
 20
92.107560
 30
0.0
 10
68.637759
 20
92.708037
 30
0.0
 10
68.003970
 20
93.031622
 30
0.0
  0
SPLINE
  5
1a6
100
AcDbEntity
  8
Layer_2
 62
7
100
AcDbSpline
 70
8
 71
3
 72
8
 73
4
 74
0
 40
0
 40
0
 40
0
 40
0
 40
1
 40
1
 40
1
 40
1
 10
68.003970
 20
93.031622
 30
0.0
 10
67.075238
 20
93.505790
 30
0.0
 10
66.281604
 20
94.021368
 30
0.0
 10
65.687223
 20
94.536689
 30
0.0
  0
SPLINE
  5
1a7
100
AcDbEntity
  8
Layer_2
 62
7
100
AcDbSpline
 70
8
 71
3
 72
8
 73
4
 74
0
 40
0
 40
0
 40
0
 40
0
 40
1
 40
1
 40
1
 40
1
 10
65.687223
 20
94.536689
 30
0.0
 10
65.307303
 20
94.866074
 30
0.0
 10
64.400568
 20
95.809506
 30
0.0
 10
64.432873
 20
95.841812
 30
0.0
  0
SPLINE
  5
1a8
100
AcDbEntity
  8
Layer_2
 62
7
100
AcDbSpline
 70
8
 71
3
 72
8
 73
4
 74
0
 40
0
 40
0
 40
0
 40
0
 40
1
 40
1
 40
1
 40
1
 10
64.432873
 20
95.841812
 30
0.0
 10
64.438959
 20
95.847897
 30
0.0
 10
64.632401
 20
95.805310
 30
0.0
 10
64.862736
 20
95.747165
 30
0.0
  0
SPLINE
  5
1a9
100
AcDbEntity
  8
Layer_2
 62
7
100
AcDbSpline
 70
8
 71
3
 72
8
 73
4
 74
0
 40
0
 40
0
 40
0
 40
0
 40
1
 40
1
 40
1
 40
1
 10
64.862736
 20
95.747165
 30
0.0
 10
65.857258
 20
95.496113
 30
0.0
 10
66.307822
 20
95.421860
 30
0.0
 10
66.957223
 20
95.401990
 30
0.0
  0
SPLINE
  5
1aa
100
AcDbEntity
  8
Layer_2
 62
7
100
AcDbSpline
 70
8
 71
3
 72
8
 73
4
 74
0
 40
0
 40
0
 40
0
 40
0
 40
1
 40
1
 40
1
 40
1
 10
66.957223
 20
95.401990
 30
0.0
 10
67.505810
 20
95.385215
 30
0.0
 10
67.609461
 20
95.391433
 30
0.0
 10
67.887646
 20
95.458018
 30
0.0
  0
SPLINE
  5
1ab
100
AcDbEntity
  8
Layer_2
 62
7
100
AcDbSpline
 70
8
 71
3
 72
8
 73
4
 74
0
 40
0
 40
0
 40
0
 40
0
 40
1
 40
1
 40
1
 40
1
 10
67.887646
 20
95.458018
 30
0.0
 10
68.581828
 20
95.624139
 30
0.0
 10
69.149854
 20
96.083244
 30
0.0
 10
69.490746
 20
96.753714
 30
0.0
  0
SPLINE
  5
1ac
100
AcDbEntity
  8
Layer_2
 62
7
100
AcDbSpline
 70
8
 71
3
 72
8
 73
4
 74
0
 40
0
 40
0
 40
0
 40
0
 40
1
 40
1
 40
1
 40
1
 10
69.490746
 20
96.753714
 30
0.0
 10
69.575130
 20
96.919677
 30
0.0
 10
69.564922
 20
96.943288
 30
0.0
 10
69.408791
 20
96.943288
 30
0.0
  0
SPLINE
  5
1ad
100
AcDbEntity
  8
Layer_2
 62
7
100
AcDbSpline
 70
8
 71
3
 72
8
 73
4
 74
0
 40
0
 40
0
 40
0
 40
0
 40
1
 40
1
 40
1
 40
1
 10
69.408791
 20
96.943288
 30
0.0
 10
69.253743
 20
96.943288
 30
0.0
 10
68.790592
 20
97.065515
 30
0.0
 10
68.624429
 20
97.150285
 30
0.0
  0
SPLINE
  5
1ae
100
AcDbEntity
  8
Layer_2
 62
7
100
AcDbSpline
 70
8
 71
3
 72
8
 73
4
 74
0
 40
0
 40
0
 40
0
 40
0
 40
1
 40
1
 40
1
 40
1
 10
68.624429
 20
97.150285
 30
0.0
 10
68.470566
 20
97.228782
 30
0.0
 10
68.073238
 20
97.541898
 30
0.0
 10
68.097154
 20
97.565811
 30
0.0
  0
SPLINE
  5
1af
100
AcDbEntity
  8
Layer_2
 62
7
100
AcDbSpline
 70
8
 71
3
 72
8
 73
4
 74
0
 40
0
 40
0
 40
0
 40
0
 40
1
 40
1
 40
1
 40
1
 10
68.097154
 20
97.565811
 30
0.0
 10
68.105621
 20
97.574277
 30
0.0
 10
68.293123
 20
97.549856
 30
0.0
 10
68.513838
 20
97.511550
 30
0.0
  0
SPLINE
  5
1b0
100
AcDbEntity
  8
Layer_2
 62
7
100
AcDbSpline
 70
8
 71
3
 72
8
 73
4
 74
0
 40
0
 40
0
 40
0
 40
0
 40
1
 40
1
 40
1
 40
1
 10
68.513838
 20
97.511550
 30
0.0
 10
70.435531
 20
97.178045
 30
0.0
 10
71.688957
 20
97.478993
 30
0.0
 10
72.368955
 20
98.437163
 30
0.0
  0
SPLINE
  5
1b1
100
AcDbEntity
  8
Layer_2
 62
7
100
AcDbSpline
 70
8
 71
3
 72
8
 73
4
 74
0
 40
0
 40
0
 40
0
 40
0
 40
1
 40
1
 40
1
 40
1
 10
72.368955
 20
98.437163
 30
0.0
 10
72.534277
 20
98.670118
 30
0.0
 10
72.899757
 20
99.373346
 30
0.0
 10
72.870639
 20
99.402463
 30
0.0
  0
SPLINE
  5
1b2
100
AcDbEntity
  8
Layer_2
 62
7
100
AcDbSpline
 70
8
 71
3
 72
8
 73
4
 74
0
 40
0
 40
0
 40
0
 40
0
 40
1
 40
1
 40
1
 40
1
 10
72.870639
 20
99.402463
 30
0.0
 10
72.860956
 20
99.412147
 30
0.0
 10
72.721068
 20
99.434452
 30
0.0
 10
72.559783
 20
99.452030
 30
0.0
  0
SPLINE
  5
1b3
100
AcDbEntity
  8
Layer_2
 62
7
100
AcDbSpline
 70
8
 71
3
 72
8
 73
4
 74
0
 40
0
 40
0
 40
0
 40
0
 40
1
 40
1
 40
1
 40
1
 10
72.559783
 20
99.452030
 30
0.0
 10
71.931070
 20
99.520550
 30
0.0
 10
71.262769
 20
99.682493
 30
0.0
 10
70.290973
 20
100.001816
 30
0.0
  0
SPLINE
  5
1b4
100
AcDbEntity
  8
Layer_2
 62
7
100
AcDbSpline
 70
8
 71
3
 72
8
 73
4
 74
0
 40
0
 40
0
 40
0
 40
0
 40
1
 40
1
 40
1
 40
1
 10
70.290973
 20
100.001816
 30
0.0
 10
68.662270
 20
100.536991
 30
0.0
 10
66.545195
 20
101.485766
 30
0.0
 10
65.635812
 20
102.088048
 30
0.0
  0
LWPOLYLINE
  5
1b5
100
AcDbEntity
  8
Layer_2
 62
7
100
AcDbPolyline
 90
3
 70
0
 10
72.206313
 20
82.609529
 30
0.0
 10
72.075537
 20
82.743961
 30
0.0
 10
72.911869
 20
82.746077
 30
0.0
  0
SPLINE
  5
1b6
100
AcDbEntity
  8
Layer_2
 62
7
100
AcDbSpline
 70
8
 71
3
 72
8
 73
4
 74
0
 40
0
 40
0
 40
0
 40
0
 40
1
 40
1
 40
1
 40
1
 10
65.528473
 20
102.261696
 30
0.0
 10
66.545598
 20
102.327250
 30
0.0
 10
67.252943
 20
102.653761
 30
0.0
 10
67.924635
 20
103.367777
 30
0.0
  0
SPLINE
  5
1b7
100
AcDbEntity
  8
Layer_2
 62
7
100
AcDbSpline
 70
8
 71
3
 72
8
 73
4
 74
0
 40
0
 40
0
 40
0
 40
0
 40
1
 40
1
 40
1
 40
1
 10
67.924635
 20
103.367777
 30
0.0
 10
68.170081
 20
103.628687
 30
0.0
 10
68.580000
 20
104.192485
 30
0.0
 10
68.580000
 20
104.269159
 30
0.0
  0
SPLINE
  5
1b8
100
AcDbEntity
  8
Layer_2
 62
7
100
AcDbSpline
 70
8
 71
3
 72
8
 73
4
 74
0
 40
0
 40
0
 40
0
 40
0
 40
1
 40
1
 40
1
 40
1
 10
68.580000
 20
104.269159
 30
0.0
 10
68.580000
 20
104.308439
 30
0.0
 10
68.537270
 20
104.329865
 30
0.0
 10
67.239446
 20
104.941246
 30
0.0
  0
SPLINE
  5
1b9
100
AcDbEntity
  8
Layer_2
 62
7
100
AcDbSpline
 70
8
 71
3
 72
8
 73
4
 74
0
 40
0
 40
0
 40
0
 40
0
 40
1
 40
1
 40
1
 40
1
 10
67.239446
 20
104.941246
 30
0.0
 10
66.118579
 20
105.469267
 30
0.0
 10
65.782431
 20
105.642974
 30
0.0
 10
64.851497
 20
106.175233
 30
0.0
  0
SPLINE
  5
1ba
100
AcDbEntity
  8
Layer_2
 62
7
100
AcDbSpline
 70
8
 71
3
 72
8
 73
4
 74
0
 40
0
 40
0
 40
0
 40
0
 40
1
 40
1
 40
1
 40
1
 10
64.851497
 20
106.175233
 30
0.0
 10
64.498559
 20
106.377020
 30
0.0
 10
63.792121
 20
106.737483
 30
0.0
 10
63.281634
 20
106.976259
 30
0.0
  0
SPLINE
  5
1bb
100
AcDbEntity
  8
Layer_2
 62
7
100
AcDbSpline
 70
8
 71
3
 72
8
 73
4
 74
0
 40
0
 40
0
 40
0
 40
0
 40
1
 40
1
 40
1
 40
1
 10
63.281634
 20
106.976259
 30
0.0
 10
60.988607
 20
108.048798
 30
0.0
 10
60.209975
 20
108.509745
 30
0.0
 10
59.605069
 20
109.152764
 30
0.0
  0
SPLINE
  5
1bc
100
AcDbEntity
  8
Layer_2
 62
7
100
AcDbSpline
 70
8
 71
3
 72
8
 73
4
 74
0
 40
0
 40
0
 40
0
 40
0
 40
1
 40
1
 40
1
 40
1
 10
59.605069
 20
109.152764
 30
0.0
 10
59.325148
 20
109.450320
 30
0.0
 10
59.283079
 20
109.525287
 30
0.0
 10
59.416598
 20
109.488613
 30
0.0
  0
SPLINE
  5
1bd
100
AcDbEntity
  8
Layer_2
 62
7
100
AcDbSpline
 70
8
 71
3
 72
8
 73
4
 74
0
 40
0
 40
0
 40
0
 40
0
 40
1
 40
1
 40
1
 40
1
 10
59.416598
 20
109.488613
 30
0.0
 10
59.842199
 20
109.371717
 30
0.0
 10
60.613380
 20
109.375572
 30
0.0
 10
61.072022
 20
109.496894
 30
0.0
  0
SPLINE
  5
1be
100
AcDbEntity
  8
Layer_2
 62
7
100
AcDbSpline
 70
8
 71
3
 72
8
 73
4
 74
0
 40
0
 40
0
 40
0
 40
0
 40
1
 40
1
 40
1
 40
1
 10
61.072022
 20
109.496894
 30
0.0
 10
61.586510
 20
109.632980
 30
0.0
 10
62.128374
 20
109.899900
 30
0.0
 10
62.525090
 20
110.212666
 30
0.0
  0
SPLINE
  5
1bf
100
AcDbEntity
  8
Layer_2
 62
7
100
AcDbSpline
 70
8
 71
3
 72
8
 73
4
 74
0
 40
0
 40
0
 40
0
 40
0
 40
1
 40
1
 40
1
 40
1
 10
62.525090
 20
110.212666
 30
0.0
 10
62.636747
 20
110.300693
 30
0.0
 10
62.679884
 20
110.354081
 30
0.0
 10
62.648560
 20
110.365466
 30
0.0
  0
SPLINE
  5
1c0
100
AcDbEntity
  8
Layer_2
 62
7
100
AcDbSpline
 70
8
 71
3
 72
8
 73
4
 74
0
 40
0
 40
0
 40
0
 40
0
 40
1
 40
1
 40
1
 40
1
 10
62.648560
 20
110.365466
 30
0.0
 10
62.622081
 20
110.375097
 30
0.0
 10
62.529498
 20
110.407551
 30
0.0
 10
62.442826
 20
110.437605
 30
0.0
  0
SPLINE
  5
1c1
100
AcDbEntity
  8
Layer_2
 62
7
100
AcDbSpline
 70
8
 71
3
 72
8
 73
4
 74
0
 40
0
 40
0
 40
0
 40
0
 40
1
 40
1
 40
1
 40
1
 10
62.442826
 20
110.437605
 30
0.0
 10
62.208701
 20
110.518784
 30
0.0
 10
62.019683
 20
110.640961
 30
0.0
 10
61.841946
 20
110.826000
 30
0.0
  0
LWPOLYLINE
  5
1c2
100
AcDbEntity
  8
Layer_2
 62
7
100
AcDbPolyline
 90
3
 70
0
 10
65.635812
 20
102.088048
 30
0.0
 10
65.387363
 20
102.252595
 30
0.0
 10
65.528473
 20
102.261696
 30
0.0
  0
SPLINE
  5
1c3
100
AcDbEntity
  8
Layer_2
 62
7
100
AcDbSpline
 70
8
 71
3
 72
8
 73
4
 74
0
 40
0
 40
0
 40
0
 40
0
 40
1
 40
1
 40
1
 40
1
 10
61.862917
 20
110.901557
 30
0.0
 10
62.388639
 20
110.639127
 30
0.0
 10
63.184304
 20
110.645411
 30
0.0
 10
64.029167
 20
110.918649
 30
0.0
  0
SPLINE
  5
1c4
100
AcDbEntity
  8
Layer_2
 62
7
100
AcDbSpline
 70
8
 71
3
 72
8
 73
4
 74
0
 40
0
 40
0
 40
0
 40
0
 40
1
 40
1
 40
1
 40
1
 10
64.029167
 20
110.918649
 30
0.0
 10
64.467666
 20
111.060471
 30
0.0
 10
65.212913
 20
111.471914
 30
0.0
 10
65.184687
 20
111.556599
 30
0.0
  0
SPLINE
  5
1c5
100
AcDbEntity
  8
Layer_2
 62
7
100
AcDbSpline
 70
8
 71
3
 72
8
 73
4
 74
0
 40
0
 40
0
 40
0
 40
0
 40
1
 40
1
 40
1
 40
1
 10
65.184687
 20
111.556599
 30
0.0
 10
65.179078
 20
111.573400
 30
0.0
 10
64.619153
 20
111.881364
 30
0.0
 10
63.940380
 20
112.240989
 30
0.0
  0
SPLINE
  5
1c6
100
AcDbEntity
  8
Layer_2
 62
7
100
AcDbSpline
 70
8
 71
3
 72
8
 73
4
 74
0
 40
0
 40
0
 40
0
 40
0
 40
1
 40
1
 40
1
 40
1
 10
63.940380
 20
112.240989
 30
0.0
 10
61.413649
 20
113.579698
 30
0.0
 10
59.758704
 20
114.502901
 30
0.0
 10
58.622848
 20
115.207353
 30
0.0
  0
SPLINE
  5
1c7
100
AcDbEntity
  8
Layer_2
 62
7
100
AcDbSpline
 70
8
 71
3
 72
8
 73
4
 74
0
 40
0
 40
0
 40
0
 40
0
 40
1
 40
1
 40
1
 40
1
 10
58.622848
 20
115.207353
 30
0.0
 10
58.297852
 20
115.408914
 30
0.0
 10
58.031946
 20
115.577860
 30
0.0
 10
58.031946
 20
115.582790
 30
0.0
  0
SPLINE
  5
1c8
100
AcDbEntity
  8
Layer_2
 62
7
100
AcDbSpline
 70
8
 71
3
 72
8
 73
4
 74
0
 40
0
 40
0
 40
0
 40
0
 40
1
 40
1
 40
1
 40
1
 10
58.031946
 20
115.582790
 30
0.0
 10
58.031946
 20
115.587719
 30
0.0
 10
58.147040
 20
115.579004
 30
0.0
 10
58.287708
 20
115.563422
 30
0.0
  0
SPLINE
  5
1c9
100
AcDbEntity
  8
Layer_2
 62
7
100
AcDbSpline
 70
8
 71
3
 72
8
 73
4
 74
0
 40
0
 40
0
 40
0
 40
0
 40
1
 40
1
 40
1
 40
1
 10
58.287708
 20
115.563422
 30
0.0
 10
58.788178
 20
115.507985
 30
0.0
 10
59.523694
 20
115.642264
 30
0.0
 10
60.070439
 20
115.888885
 30
0.0
  0
SPLINE
  5
1ca
100
AcDbEntity
  8
Layer_2
 62
7
100
AcDbSpline
 70
8
 71
3
 72
8
 73
4
 74
0
 40
0
 40
0
 40
0
 40
0
 40
1
 40
1
 40
1
 40
1
 10
60.070439
 20
115.888885
 30
0.0
 10
60.425595
 20
116.049086
 30
0.0
 10
61.069024
 20
116.424702
 30
0.0
 10
61.055872
 20
116.464155
 30
0.0
  0
SPLINE
  5
1cb
100
AcDbEntity
  8
Layer_2
 62
7
100
AcDbSpline
 70
8
 71
3
 72
8
 73
4
 74
0
 40
0
 40
0
 40
0
 40
0
 40
1
 40
1
 40
1
 40
1
 10
61.055872
 20
116.464155
 30
0.0
 10
61.045315
 20
116.495799
 30
0.0
 10
60.644667
 20
116.740378
 30
0.0
 10
59.284306
 20
117.545597
 30
0.0
  0
SPLINE
  5
1cc
100
AcDbEntity
  8
Layer_2
 62
7
100
AcDbSpline
 70
8
 71
3
 72
8
 73
4
 74
0
 40
0
 40
0
 40
0
 40
0
 40
1
 40
1
 40
1
 40
1
 10
59.284306
 20
117.545597
 30
0.0
 10
58.805030
 20
117.829290
 30
0.0
 10
58.207799
 20
118.214459
 30
0.0
 10
58.035611
 20
118.350914
 30
0.0
  0
SPLINE
  5
1cd
100
AcDbEntity
  8
Layer_2
 62
7
100
AcDbSpline
 70
8
 71
3
 72
8
 73
4
 74
0
 40
0
 40
0
 40
0
 40
0
 40
1
 40
1
 40
1
 40
1
 10
58.035611
 20
118.350914
 30
0.0
 10
57.951545
 20
118.417536
 30
0.0
 10
57.953749
 20
118.417892
 30
0.0
 10
58.441304
 20
118.416377
 30
0.0
  0
SPLINE
  5
1ce
100
AcDbEntity
  8
Layer_2
 62
7
100
AcDbSpline
 70
8
 71
3
 72
8
 73
4
 74
0
 40
0
 40
0
 40
0
 40
0
 40
1
 40
1
 40
1
 40
1
 10
58.441304
 20
118.416377
 30
0.0
 10
59.265235
 20
118.413810
 30
0.0
 10
59.698824
 20
118.531379
 30
0.0
 10
60.818890
 20
119.061032
 30
0.0
  0
SPLINE
  5
1cf
100
AcDbEntity
  8
Layer_2
 62
7
100
AcDbSpline
 70
8
 71
3
 72
8
 73
4
 74
0
 40
0
 40
0
 40
0
 40
0
 40
1
 40
1
 40
1
 40
1
 10
60.818890
 20
119.061032
 30
0.0
 10
61.177842
 20
119.230771
 30
0.0
 10
61.507248
 20
119.380976
 30
0.0
 10
61.550905
 20
119.394821
 30
0.0
  0
SPLINE
  5
1d0
100
AcDbEntity
  8
Layer_2
 62
7
100
AcDbSpline
 70
8
 71
3
 72
8
 73
4
 74
0
 40
0
 40
0
 40
0
 40
0
 40
1
 40
1
 40
1
 40
1
 10
61.550905
 20
119.394821
 30
0.0
 10
61.594561
 20
119.408667
 30
0.0
 10
61.630258
 20
119.430830
 30
0.0
 10
61.630229
 20
119.444075
 30
0.0
  0
SPLINE
  5
1d1
100
AcDbEntity
  8
Layer_2
 62
7
100
AcDbSpline
 70
8
 71
3
 72
8
 73
4
 74
0
 40
0
 40
0
 40
0
 40
0
 40
1
 40
1
 40
1
 40
1
 10
61.630229
 20
119.444075
 30
0.0
 10
61.630229
 20
119.476362
 30
0.0
 10
60.391532
 20
120.300285
 30
0.0
 10
59.601806
 20
120.793355
 30
0.0
  0
SPLINE
  5
1d2
100
AcDbEntity
  8
Layer_2
 62
7
100
AcDbSpline
 70
8
 71
3
 72
8
 73
4
 74
0
 40
0
 40
0
 40
0
 40
0
 40
1
 40
1
 40
1
 40
1
 10
59.601806
 20
120.793355
 30
0.0
 10
57.934193
 20
121.834540
 30
0.0
 10
56.234706
 20
123.071840
 30
0.0
 10
55.463943
 20
123.805893
 30
0.0
  0
SPLINE
  5
1d3
100
AcDbEntity
  8
Layer_2
 62
7
100
AcDbSpline
 70
8
 71
3
 72
8
 73
4
 74
0
 40
0
 40
0
 40
0
 40
0
 40
1
 40
1
 40
1
 40
1
 10
55.463943
 20
123.805893
 30
0.0
 10
54.976022
 20
124.270574
 30
0.0
 10
54.469681
 20
124.938582
 30
0.0
 10
54.511128
 20
125.062922
 30
0.0
  0
SPLINE
  5
1d4
100
AcDbEntity
  8
Layer_2
 62
7
100
AcDbSpline
 70
8
 71
3
 72
8
 73
4
 74
0
 40
0
 40
0
 40
0
 40
0
 40
1
 40
1
 40
1
 40
1
 10
54.511128
 20
125.062922
 30
0.0
 10
54.518060
 20
125.083679
 30
0.0
 10
54.769343
 20
125.192313
 30
0.0
 10
55.069560
 20
125.304329
 30
0.0
  0
SPLINE
  5
1d5
100
AcDbEntity
  8
Layer_2
 62
7
100
AcDbSpline
 70
8
 71
3
 72
8
 73
4
 74
0
 40
0
 40
0
 40
0
 40
0
 40
1
 40
1
 40
1
 40
1
 10
55.069560
 20
125.304329
 30
0.0
 10
55.794738
 20
125.574899
 30
0.0
 10
56.240085
 20
125.765829
 30
0.0
 10
56.708193
 20
126.006843
 30
0.0
  0
SPLINE
  5
1d6
100
AcDbEntity
  8
Layer_2
 62
7
100
AcDbSpline
 70
8
 71
3
 72
8
 73
4
 74
0
 40
0
 40
0
 40
0
 40
0
 40
1
 40
1
 40
1
 40
1
 10
56.708193
 20
126.006843
 30
0.0
 10
57.068328
 20
126.192266
 30
0.0
 10
57.396946
 20
126.442994
 30
0.0
 10
57.396946
 20
126.532347
 30
0.0
  0
SPLINE
  5
1d7
100
AcDbEntity
  8
Layer_2
 62
7
100
AcDbSpline
 70
8
 71
3
 72
8
 73
4
 74
0
 40
0
 40
0
 40
0
 40
0
 40
1
 40
1
 40
1
 40
1
 10
57.396946
 20
126.532347
 30
0.0
 10
57.396946
 20
126.553451
 30
0.0
 10
57.314547
 20
126.695078
 30
0.0
 10
57.213839
 20
126.847075
 30
0.0
  0
SPLINE
  5
1d8
100
AcDbEntity
  8
Layer_2
 62
7
100
AcDbSpline
 70
8
 71
3
 72
8
 73
4
 74
0
 40
0
 40
0
 40
0
 40
0
 40
1
 40
1
 40
1
 40
1
 10
57.213839
 20
126.847075
 30
0.0
 10
56.955613
 20
127.236806
 30
0.0
 10
56.319544
 20
127.857476
 30
0.0
 10
55.333196
 20
128.682185
 30
0.0
  0
SPLINE
  5
1d9
100
AcDbEntity
  8
Layer_2
 62
7
100
AcDbSpline
 70
8
 71
3
 72
8
 73
4
 74
0
 40
0
 40
0
 40
0
 40
0
 40
1
 40
1
 40
1
 40
1
 10
55.333196
 20
128.682185
 30
0.0
 10
54.069446
 20
129.738836
 30
0.0
 10
53.639731
 20
130.165744
 30
0.0
 10
53.293777
 20
130.708293
 30
0.0
  0
LWPOLYLINE
  5
1da
100
AcDbEntity
  8
Layer_2
 62
7
100
AcDbPolyline
 90
3
 70
0
 10
61.841946
 20
110.826000
 30
0.0
 10
61.683196
 20
110.991269
 30
0.0
 10
61.862917
 20
110.901557
 30
0.0
  0
SPLINE
  5
1db
100
AcDbEntity
  8
Layer_2
 62
7
100
AcDbSpline
 70
8
 71
3
 72
8
 73
4
 74
0
 40
0
 40
0
 40
0
 40
0
 40
1
 40
1
 40
1
 40
1
 10
53.615299
 20
130.903408
 30
0.0
 10
53.867513
 20
130.901688
 30
0.0
 10
54.155673
 20
130.920632
 30
0.0
 10
54.274863
 20
130.946798
 30
0.0
  0
SPLINE
  5
1dc
100
AcDbEntity
  8
Layer_2
 62
7
100
AcDbSpline
 70
8
 71
3
 72
8
 73
4
 74
0
 40
0
 40
0
 40
0
 40
0
 40
1
 40
1
 40
1
 40
1
 10
54.274863
 20
130.946798
 30
0.0
 10
54.492663
 20
130.994613
 30
0.0
 10
55.041689
 20
131.231744
 30
0.0
 10
55.080683
 20
131.294845
 30
0.0
  0
SPLINE
  5
1dd
100
AcDbEntity
  8
Layer_2
 62
7
100
AcDbSpline
 70
8
 71
3
 72
8
 73
4
 74
0
 40
0
 40
0
 40
0
 40
0
 40
1
 40
1
 40
1
 40
1
 10
55.080683
 20
131.294845
 30
0.0
 10
55.092748
 20
131.314350
 30
0.0
 10
55.026015
 20
131.431510
 30
0.0
 10
54.932405
 20
131.555204
 30
0.0
  0
SPLINE
  5
1de
100
AcDbEntity
  8
Layer_2
 62
7
100
AcDbSpline
 70
8
 71
3
 72
8
 73
4
 74
0
 40
0
 40
0
 40
0
 40
0
 40
1
 40
1
 40
1
 40
1
 10
54.932405
 20
131.555204
 30
0.0
 10
54.665031
 20
131.908513
 30
0.0
 10
54.455026
 20
132.297319
 30
0.0
 10
54.191670
 20
132.926628
 30
0.0
  0
SPLINE
  5
1df
100
AcDbEntity
  8
Layer_2
 62
7
100
AcDbSpline
 70
8
 71
3
 72
8
 73
4
 74
0
 40
0
 40
0
 40
0
 40
0
 40
1
 40
1
 40
1
 40
1
 10
54.191670
 20
132.926628
 30
0.0
 10
54.057693
 20
133.246774
 30
0.0
 10
53.828569
 20
133.754774
 30
0.0
 10
53.682508
 20
134.055517
 30
0.0
  0
SPLINE
  5
1e0
100
AcDbEntity
  8
Layer_2
 62
7
100
AcDbSpline
 70
8
 71
3
 72
8
 73
4
 74
0
 40
0
 40
0
 40
0
 40
0
 40
1
 40
1
 40
1
 40
1
 10
53.682508
 20
134.055517
 30
0.0
 10
53.536448
 20
134.356260
 30
0.0
 10
53.359801
 20
134.756783
 30
0.0
 10
53.289967
 20
134.945569
 30
0.0
  0
LWPOLYLINE
  5
1e1
100
AcDbEntity
  8
Layer_2
 62
7
100
AcDbPolyline
 90
3
 70
0
 10
53.293777
 20
130.708293
 30
0.0
 10
53.167396
 20
130.906485
 30
0.0
 10
53.615299
 20
130.903408
 30
0.0
  0
SPLINE
  5
1e2
100
AcDbEntity
  8
Layer_2
 62
7
100
AcDbSpline
 70
8
 71
3
 72
8
 73
4
 74
0
 40
0
 40
0
 40
0
 40
0
 40
1
 40
1
 40
1
 40
1
 10
53.282998
 20
135.446035
 30
0.0
 10
53.493339
 20
135.721595
 30
0.0
 10
53.534297
 20
135.881702
 30
0.0
 10
53.531934
 20
136.419128
 30
0.0
  0
SPLINE
  5
1e3
100
AcDbEntity
  8
Layer_2
 62
7
100
AcDbSpline
 70
8
 71
3
 72
8
 73
4
 74
0
 40
0
 40
0
 40
0
 40
0
 40
1
 40
1
 40
1
 40
1
 10
53.531934
 20
136.419128
 30
0.0
 10
53.528680
 20
137.155514
 30
0.0
 10
53.325559
 20
137.952194
 30
0.0
 10
52.904792
 20
138.878702
 30
0.0
  0
SPLINE
  5
1e4
100
AcDbEntity
  8
Layer_2
 62
7
100
AcDbSpline
 70
8
 71
3
 72
8
 73
4
 74
0
 40
0
 40
0
 40
0
 40
0
 40
1
 40
1
 40
1
 40
1
 10
52.904792
 20
138.878702
 30
0.0
 10
52.620373
 20
139.504982
 30
0.0
 10
52.477765
 20
139.760801
 30
0.0
 10
52.217018
 20
140.112471
 30
0.0
  0
SPLINE
  5
1e5
100
AcDbEntity
  8
Layer_2
 62
7
100
AcDbSpline
 70
8
 71
3
 72
8
 73
4
 74
0
 40
0
 40
0
 40
0
 40
0
 40
1
 40
1
 40
1
 40
1
 10
52.217018
 20
140.112471
 30
0.0
 10
51.966334
 20
140.450532
 30
0.0
 10
51.766470
 20
140.628708
 30
0.0
 10
51.487917
 20
140.762424
 30
0.0
  0
SPLINE
  5
1e6
100
AcDbEntity
  8
Layer_2
 62
7
100
AcDbSpline
 70
8
 71
3
 72
8
 73
4
 74
0
 40
0
 40
0
 40
0
 40
0
 40
1
 40
1
 40
1
 40
1
 10
51.487917
 20
140.762424
 30
0.0
 10
51.238772
 20
140.882024
 30
0.0
 10
51.143300
 20
140.887761
 30
0.0
 10
50.929230
 20
140.796001
 30
0.0
  0
SPLINE
  5
1e7
100
AcDbEntity
  8
Layer_2
 62
7
100
AcDbSpline
 70
8
 71
3
 72
8
 73
4
 74
0
 40
0
 40
0
 40
0
 40
0
 40
1
 40
1
 40
1
 40
1
 10
50.929230
 20
140.796001
 30
0.0
 10
50.614643
 20
140.661153
 30
0.0
 10
50.380895
 20
140.375884
 30
0.0
 10
50.058754
 20
139.733678
 30
0.0
  0
SPLINE
  5
1e8
100
AcDbEntity
  8
Layer_2
 62
7
100
AcDbSpline
 70
8
 71
3
 72
8
 73
4
 74
0
 40
0
 40
0
 40
0
 40
0
 40
1
 40
1
 40
1
 40
1
 10
50.058754
 20
139.733678
 30
0.0
 10
49.976445
 20
139.569664
 30
0.0
 10
49.865349
 20
139.379848
 30
0.0
 10
49.811871
 20
139.311938
 30
0.0
  0
SPLINE
  5
1e9
100
AcDbEntity
  8
Layer_2
 62
7
100
AcDbSpline
 70
8
 71
3
 72
8
 73
4
 74
0
 40
0
 40
0
 40
0
 40
0
 40
1
 40
1
 40
1
 40
1
 10
49.811871
 20
139.311938
 30
0.0
 10
49.639305
 20
139.092808
 30
0.0
 10
49.226203
 20
138.335218
 30
0.0
 10
48.590353
 20
137.071800
 30
0.0
  0
SPLINE
  5
1ea
100
AcDbEntity
  8
Layer_2
 62
7
100
AcDbSpline
 70
8
 71
3
 72
8
 73
4
 74
0
 40
0
 40
0
 40
0
 40
0
 40
1
 40
1
 40
1
 40
1
 10
48.590353
 20
137.071800
 30
0.0
 10
48.248581
 20
136.392702
 30
0.0
 10
47.860635
 20
135.638640
 30
0.0
 10
47.728251
 20
135.396105
 30
0.0
  0
SPLINE
  5
1eb
100
AcDbEntity
  8
Layer_2
 62
7
100
AcDbSpline
 70
8
 71
3
 72
8
 73
4
 74
0
 40
0
 40
0
 40
0
 40
0
 40
1
 40
1
 40
1
 40
1
 10
47.728251
 20
135.396105
 30
0.0
 10
47.359596
 20
134.720700
 30
0.0
 10
47.258139
 20
134.377501
 30
0.0
 10
47.064173
 20
133.149716
 30
0.0
  0
SPLINE
  5
1ec
100
AcDbEntity
  8
Layer_2
 62
7
100
AcDbSpline
 70
8
 71
3
 72
8
 73
4
 74
0
 40
0
 40
0
 40
0
 40
0
 40
1
 40
1
 40
1
 40
1
 10
47.064173
 20
133.149716
 30
0.0
 10
46.937057
 20
132.345108
 30
0.0
 10
46.821556
 20
131.870569
 30
0.0
 10
46.659057
 20
131.485261
 30
0.0
  0
LWPOLYLINE
  5
1ed
100
AcDbEntity
  8
Layer_2
 62
7
100
AcDbPolyline
 90
3
 70
0
 10
53.289967
 20
134.945569
 30
0.0
 10
53.162991
 20
135.288815
 30
0.0
 10
53.282998
 20
135.446035
 30
0.0
  0
SPLINE
  5
1ee
100
AcDbEntity
  8
Layer_2
 62
7
100
AcDbSpline
 70
8
 71
3
 72
8
 73
4
 74
0
 40
0
 40
0
 40
0
 40
0
 40
1
 40
1
 40
1
 40
1
 10
46.791115
 20
131.097400
 30
0.0
 10
47.435281
 20
130.831510
 30
0.0
 10
48.089561
 20
130.840198
 30
0.0
 10
48.909346
 20
131.125526
 30
0.0
  0
SPLINE
  5
1ef
100
AcDbEntity
  8
Layer_2
 62
7
100
AcDbSpline
 70
8
 71
3
 72
8
 73
4
 74
0
 40
0
 40
0
 40
0
 40
0
 40
1
 40
1
 40
1
 40
1
 10
48.909346
 20
131.125526
 30
0.0
 10
49.023947
 20
131.165414
 30
0.0
 10
49.123166
 20
131.198050
 30
0.0
 10
49.129831
 20
131.198050
 30
0.0
  0
SPLINE
  5
1f0
100
AcDbEntity
  8
Layer_2
 62
7
100
AcDbSpline
 70
8
 71
3
 72
8
 73
4
 74
0
 40
0
 40
0
 40
0
 40
0
 40
1
 40
1
 40
1
 40
1
 10
49.129831
 20
131.198050
 30
0.0
 10
49.203801
 20
131.198050
 30
0.0
 10
49.018497
 20
130.660461
 30
0.0
 10
48.801507
 20
130.245550
 30
0.0
  0
SPLINE
  5
1f1
100
AcDbEntity
  8
Layer_2
 62
7
100
AcDbSpline
 70
8
 71
3
 72
8
 73
4
 74
0
 40
0
 40
0
 40
0
 40
0
 40
1
 40
1
 40
1
 40
1
 10
48.801507
 20
130.245550
 30
0.0
 10
48.431270
 20
129.537609
 30
0.0
 10
47.912335
 20
128.918328
 30
0.0
 10
46.399098
 20
127.378606
 30
0.0
  0
SPLINE
  5
1f2
100
AcDbEntity
  8
Layer_2
 62
7
100
AcDbSpline
 70
8
 71
3
 72
8
 73
4
 74
0
 40
0
 40
0
 40
0
 40
0
 40
1
 40
1
 40
1
 40
1
 10
46.399098
 20
127.378606
 30
0.0
 10
45.734552
 20
126.702429
 30
0.0
 10
45.190833
 20
126.136133
 30
0.0
 10
45.190833
 20
126.120170
 30
0.0
  0
SPLINE
  5
1f3
100
AcDbEntity
  8
Layer_2
 62
7
100
AcDbSpline
 70
8
 71
3
 72
8
 73
4
 74
0
 40
0
 40
0
 40
0
 40
0
 40
1
 40
1
 40
1
 40
1
 10
45.190833
 20
126.120170
 30
0.0
 10
45.190833
 20
126.080094
 30
0.0
 10
45.391197
 20
125.931243
 30
0.0
 10
45.561250
 20
125.844988
 30
0.0
  0
SPLINE
  5
1f4
100
AcDbEntity
  8
Layer_2
 62
7
100
AcDbSpline
 70
8
 71
3
 72
8
 73
4
 74
0
 40
0
 40
0
 40
0
 40
0
 40
1
 40
1
 40
1
 40
1
 10
45.561250
 20
125.844988
 30
0.0
 10
45.862642
 20
125.692113
 30
0.0
 10
46.474264
 20
125.535807
 30
0.0
 10
47.051203
 20
125.464214
 30
0.0
  0
LWPOLYLINE
  5
1f5
100
AcDbEntity
  8
Layer_2
 62
7
100
AcDbPolyline
 90
3
 70
0
 10
46.659057
 20
131.485261
 30
0.0
 10
46.539314
 20
131.201336
 30
0.0
 10
46.791115
 20
131.097400
 30
0.0
  0
SPLINE
  5
1f6
100
AcDbEntity
  8
Layer_2
 62
7
100
AcDbSpline
 70
8
 71
3
 72
8
 73
4
 74
0
 40
0
 40
0
 40
0
 40
0
 40
1
 40
1
 40
1
 40
1
 10
47.124173
 20
125.276966
 30
0.0
 10
46.565021
 20
124.454388
 30
0.0
 10
45.107508
 20
122.955053
 30
0.0
 10
42.966383
 20
120.999868
 30
0.0
  0
SPLINE
  5
1f7
100
AcDbEntity
  8
Layer_2
 62
7
100
AcDbSpline
 70
8
 71
3
 72
8
 73
4
 74
0
 40
0
 40
0
 40
0
 40
0
 40
1
 40
1
 40
1
 40
1
 10
42.966383
 20
120.999868
 30
0.0
 10
41.586764
 20
119.740059
 30
0.0
 10
39.836529
 20
118.235217
 30
0.0
 10
39.116937
 20
117.690133
 30
0.0
  0
SPLINE
  5
1f8
100
AcDbEntity
  8
Layer_2
 62
7
100
AcDbSpline
 70
8
 71
3
 72
8
 73
4
 74
0
 40
0
 40
0
 40
0
 40
0
 40
1
 40
1
 40
1
 40
1
 10
39.116937
 20
117.690133
 30
0.0
 10
38.947923
 20
117.562106
 30
0.0
 10
38.808731
 20
117.433544
 30
0.0
 10
38.807623
 20
117.404440
 30
0.0
  0
SPLINE
  5
1f9
100
AcDbEntity
  8
Layer_2
 62
7
100
AcDbSpline
 70
8
 71
3
 72
8
 73
4
 74
0
 40
0
 40
0
 40
0
 40
0
 40
1
 40
1
 40
1
 40
1
 10
38.807623
 20
117.404440
 30
0.0
 10
38.803998
 20
117.308745
 30
0.0
 10
39.018165
 20
116.899687
 30
0.0
 10
39.167567
 20
116.716998
 30
0.0
  0
SPLINE
  5
1fa
100
AcDbEntity
  8
Layer_2
 62
7
100
AcDbSpline
 70
8
 71
3
 72
8
 73
4
 74
0
 40
0
 40
0
 40
0
 40
0
 40
1
 40
1
 40
1
 40
1
 10
39.167567
 20
116.716998
 30
0.0
 10
39.469788
 20
116.347433
 30
0.0
 10
39.871676
 20
116.099620
 30
0.0
 10
40.410696
 20
115.950452
 30
0.0
  0
SPLINE
  5
1fb
100
AcDbEntity
  8
Layer_2
 62
7
100
AcDbSpline
 70
8
 71
3
 72
8
 73
4
 74
0
 40
0
 40
0
 40
0
 40
0
 40
1
 40
1
 40
1
 40
1
 10
40.410696
 20
115.950452
 30
0.0
 10
40.671104
 20
115.878385
 30
0.0
 10
40.771072
 20
115.872253
 30
0.0
 10
41.704223
 20
115.871103
 30
0.0
  0
SPLINE
  5
1fc
100
AcDbEntity
  8
Layer_2
 62
7
100
AcDbSpline
 70
8
 71
3
 72
8
 73
4
 74
0
 40
0
 40
0
 40
0
 40
0
 40
1
 40
1
 40
1
 40
1
 10
41.704223
 20
115.871103
 30
0.0
 10
42.260441
 20
115.870415
 30
0.0
 10
42.712878
 20
115.867550
 30
0.0
 10
42.709640
 20
115.864729
 30
0.0
  0
SPLINE
  5
1fd
100
AcDbEntity
  8
Layer_2
 62
7
100
AcDbSpline
 70
8
 71
3
 72
8
 73
4
 74
0
 40
0
 40
0
 40
0
 40
0
 40
1
 40
1
 40
1
 40
1
 10
42.709640
 20
115.864729
 30
0.0
 10
42.706385
 20
115.861911
 30
0.0
 10
42.570024
 20
115.760711
 30
0.0
 10
42.406578
 20
115.639845
 30
0.0
  0
SPLINE
  5
1fe
100
AcDbEntity
  8
Layer_2
 62
7
100
AcDbSpline
 70
8
 71
3
 72
8
 73
4
 74
0
 40
0
 40
0
 40
0
 40
0
 40
1
 40
1
 40
1
 40
1
 10
42.406578
 20
115.639845
 30
0.0
 10
41.991206
 20
115.332678
 30
0.0
 10
41.433610
 20
114.789000
 30
0.0
 10
41.497364
 20
114.753322
 30
0.0
  0
SPLINE
  5
1ff
100
AcDbEntity
  8
Layer_2
 62
7
100
AcDbSpline
 70
8
 71
3
 72
8
 73
4
 74
0
 40
0
 40
0
 40
0
 40
0
 40
1
 40
1
 40
1
 40
1
 10
41.497364
 20
114.753322
 30
0.0
 10
41.593196
 20
114.699693
 30
0.0
 10
42.428827
 20
114.550084
 30
0.0
 10
42.862500
 20
114.508915
 30
0.0
  0
SPLINE
  5
200
100
AcDbEntity
  8
Layer_2
 62
7
100
AcDbSpline
 70
8
 71
3
 72
8
 73
4
 74
0
 40
0
 40
0
 40
0
 40
0
 40
1
 40
1
 40
1
 40
1
 10
42.862500
 20
114.508915
 30
0.0
 10
43.379559
 20
114.459829
 30
0.0
 10
44.021624
 20
114.485764
 30
0.0
 10
44.554381
 20
114.577228
 30
0.0
  0
SPLINE
  5
201
100
AcDbEntity
  8
Layer_2
 62
7
100
AcDbSpline
 70
8
 71
3
 72
8
 73
4
 74
0
 40
0
 40
0
 40
0
 40
0
 40
1
 40
1
 40
1
 40
1
 10
44.554381
 20
114.577228
 30
0.0
 10
44.907518
 20
114.637860
 30
0.0
 10
44.919622
 20
114.637883
 30
0.0
 10
44.836604
 20
114.577757
 30
0.0
  0
SPLINE
  5
202
100
AcDbEntity
  8
Layer_2
 62
7
100
AcDbSpline
 70
8
 71
3
 72
8
 73
4
 74
0
 40
0
 40
0
 40
0
 40
0
 40
1
 40
1
 40
1
 40
1
 10
44.836604
 20
114.577757
 30
0.0
 10
44.788897
 20
114.543216
 30
0.0
 10
44.170425
 20
114.112291
 30
0.0
 10
43.462223
 20
113.620148
 30
0.0
  0
SPLINE
  5
203
100
AcDbEntity
  8
Layer_2
 62
7
100
AcDbSpline
 70
8
 71
3
 72
8
 73
4
 74
0
 40
0
 40
0
 40
0
 40
0
 40
1
 40
1
 40
1
 40
1
 10
43.462223
 20
113.620148
 30
0.0
 10
42.049594
 20
112.638483
 30
0.0
 10
39.773336
 20
111.039497
 30
0.0
 10
35.292718
 20
107.881383
 30
0.0
  0
SPLINE
  5
204
100
AcDbEntity
  8
Layer_2
 62
7
100
AcDbSpline
 70
8
 71
3
 72
8
 73
4
 74
0
 40
0
 40
0
 40
0
 40
0
 40
1
 40
1
 40
1
 40
1
 10
35.292718
 20
107.881383
 30
0.0
 10
33.680802
 20
106.745238
 30
0.0
 10
31.415538
 20
105.148920
 30
0.0
 10
30.258795
 20
104.334003
 30
0.0
  0
SPLINE
  5
205
100
AcDbEntity
  8
Layer_2
 62
7
100
AcDbSpline
 70
8
 71
3
 72
8
 73
4
 74
0
 40
0
 40
0
 40
0
 40
0
 40
1
 40
1
 40
1
 40
1
 10
30.258795
 20
104.334003
 30
0.0
 10
28.271594
 20
102.934032
 30
0.0
 10
28.155519
 20
102.846394
 30
0.0
 10
28.153648
 20
102.744590
 30
0.0
  0
SPLINE
  5
206
100
AcDbEntity
  8
Layer_2
 62
7
100
AcDbSpline
 70
8
 71
3
 72
8
 73
4
 74
0
 40
0
 40
0
 40
0
 40
0
 40
1
 40
1
 40
1
 40
1
 10
28.153648
 20
102.744590
 30
0.0
 10
28.145473
 20
102.299275
 30
0.0
 10
29.064294
 20
101.721301
 30
0.0
 10
30.304163
 20
101.391847
 30
0.0
  0
SPLINE
  5
207
100
AcDbEntity
  8
Layer_2
 62
7
100
AcDbSpline
 70
8
 71
3
 72
8
 73
4
 74
0
 40
0
 40
0
 40
0
 40
0
 40
1
 40
1
 40
1
 40
1
 10
30.304163
 20
101.391847
 30
0.0
 10
31.059969
 20
101.191018
 30
0.0
 10
31.543929
 20
101.128999
 30
0.0
 10
32.376946
 20
101.126227
 30
0.0
  0
LWPOLYLINE
  5
208
100
AcDbEntity
  8
Layer_2
 62
7
100
AcDbPolyline
 90
3
 70
0
 10
47.051203
 20
125.464214
 30
0.0
 10
47.235880
 20
125.441299
 30
0.0
 10
47.124173
 20
125.276966
 30
0.0
  0
SPLINE
  5
209
100
AcDbEntity
  8
Layer_2
 62
7
100
AcDbSpline
 70
8
 71
3
 72
8
 73
4
 74
0
 40
0
 40
0
 40
0
 40
0
 40
1
 40
1
 40
1
 40
1
 10
32.482779
 20
100.805753
 30
0.0
 10
31.779575
 20
100.458733
 30
0.0
 10
31.581214
 20
100.335442
 30
0.0
 10
31.299759
 20
100.070465
 30
0.0
  0
SPLINE
  5
20a
100
AcDbEntity
  8
Layer_2
 62
7
100
AcDbSpline
 70
8
 71
3
 72
8
 73
4
 74
0
 40
0
 40
0
 40
0
 40
0
 40
1
 40
1
 40
1
 40
1
 10
31.299759
 20
100.070465
 30
0.0
 10
31.119866
 20
99.901102
 30
0.0
 10
31.116029
 20
99.893525
 30
0.0
 10
31.176285
 20
99.826477
 30
0.0
  0
SPLINE
  5
20b
100
AcDbEntity
  8
Layer_2
 62
7
100
AcDbSpline
 70
8
 71
3
 72
8
 73
4
 74
0
 40
0
 40
0
 40
0
 40
0
 40
1
 40
1
 40
1
 40
1
 10
31.176285
 20
99.826477
 30
0.0
 10
31.289395
 20
99.700620
 30
0.0
 10
31.657068
 20
99.458650
 30
0.0
 10
31.982225
 20
99.296074
 30
0.0
  0
SPLINE
  5
20c
100
AcDbEntity
  8
Layer_2
 62
7
100
AcDbSpline
 70
8
 71
3
 72
8
 73
4
 74
0
 40
0
 40
0
 40
0
 40
0
 40
1
 40
1
 40
1
 40
1
 10
31.982225
 20
99.296074
 30
0.0
 10
32.561636
 20
99.006377
 30
0.0
 10
33.376174
 20
98.775967
 30
0.0
 10
34.254723
 20
98.653251
 30
0.0
  0
SPLINE
  5
20d
100
AcDbEntity
  8
Layer_2
 62
7
100
AcDbSpline
 70
8
 71
3
 72
8
 73
4
 74
0
 40
0
 40
0
 40
0
 40
0
 40
1
 40
1
 40
1
 40
1
 10
34.254723
 20
98.653251
 30
0.0
 10
35.030018
 20
98.544959
 30
0.0
 10
36.859980
 20
98.549521
 30
0.0
 10
37.214291
 20
98.660633
 30
0.0
  0
SPLINE
  5
20e
100
AcDbEntity
  8
Layer_2
 62
7
100
AcDbSpline
 70
8
 71
3
 72
8
 73
4
 74
0
 40
0
 40
0
 40
0
 40
0
 40
1
 40
1
 40
1
 40
1
 10
37.214291
 20
98.660633
 30
0.0
 10
37.318807
 20
98.693409
 30
0.0
 10
36.746392
 20
98.330187
 30
0.0
 10
36.300833
 20
98.081002
 30
0.0
  0
SPLINE
  5
20f
100
AcDbEntity
  8
Layer_2
 62
7
100
AcDbSpline
 70
8
 71
3
 72
8
 73
4
 74
0
 40
0
 40
0
 40
0
 40
0
 40
1
 40
1
 40
1
 40
1
 10
36.300833
 20
98.081002
 30
0.0
 10
34.017799
 20
96.804186
 30
0.0
 10
30.152049
 20
95.313341
 30
0.0
 10
24.888473
 20
93.679767
 30
0.0
  0
SPLINE
  5
210
100
AcDbEntity
  8
Layer_2
 62
7
100
AcDbSpline
 70
8
 71
3
 72
8
 73
4
 74
0
 40
0
 40
0
 40
0
 40
0
 40
1
 40
1
 40
1
 40
1
 10
24.888473
 20
93.679767
 30
0.0
 10
24.345195
 20
93.511161
 30
0.0
 10
23.895619
 20
93.368421
 30
0.0
 10
23.889414
 20
93.362571
 30
0.0
  0
SPLINE
  5
211
100
AcDbEntity
  8
Layer_2
 62
7
100
AcDbSpline
 70
8
 71
3
 72
8
 73
4
 74
0
 40
0
 40
0
 40
0
 40
0
 40
1
 40
1
 40
1
 40
1
 10
23.889414
 20
93.362571
 30
0.0
 10
23.866925
 20
93.341378
 30
0.0
 10
24.020436
 20
93.075490
 30
0.0
 10
24.181165
 20
92.857262
 30
0.0
  0
SPLINE
  5
212
100
AcDbEntity
  8
Layer_2
 62
7
100
AcDbSpline
 70
8
 71
3
 72
8
 73
4
 74
0
 40
0
 40
0
 40
0
 40
0
 40
1
 40
1
 40
1
 40
1
 10
24.181165
 20
92.857262
 30
0.0
 10
24.692467
 20
92.163048
 30
0.0
 10
25.492889
 20
91.639551
 30
0.0
 10
26.415046
 20
91.396243
 30
0.0
  0
SPLINE
  5
213
100
AcDbEntity
  8
Layer_2
 62
7
100
AcDbSpline
 70
8
 71
3
 72
8
 73
4
 74
0
 40
0
 40
0
 40
0
 40
0
 40
1
 40
1
 40
1
 40
1
 10
26.415046
 20
91.396243
 30
0.0
 10
26.812819
 20
91.291294
 30
0.0
 10
26.857640
 20
91.286978
 30
0.0
 10
27.578992
 20
91.284219
 30
0.0
  0
SPLINE
  5
214
100
AcDbEntity
  8
Layer_2
 62
7
100
AcDbSpline
 70
8
 71
3
 72
8
 73
4
 74
0
 40
0
 40
0
 40
0
 40
0
 40
1
 40
1
 40
1
 40
1
 10
27.578992
 20
91.284219
 30
0.0
 10
28.060195
 20
91.282367
 30
0.0
 10
28.300558
 20
91.270010
 30
0.0
 10
28.249271
 20
91.249725
 30
0.0
  0
SPLINE
  5
215
100
AcDbEntity
  8
Layer_2
 62
7
100
AcDbSpline
 70
8
 71
3
 72
8
 73
4
 74
0
 40
0
 40
0
 40
0
 40
0
 40
1
 40
1
 40
1
 40
1
 10
28.249271
 20
91.249725
 30
0.0
 10
27.958807
 20
91.134853
 30
0.0
 10
27.305000
 20
90.793088
 30
0.0
 10
27.305000
 20
90.756121
 30
0.0
  0
SPLINE
  5
216
100
AcDbEntity
  8
Layer_2
 62
7
100
AcDbSpline
 70
8
 71
3
 72
8
 73
4
 74
0
 40
0
 40
0
 40
0
 40
0
 40
1
 40
1
 40
1
 40
1
 10
27.305000
 20
90.756121
 30
0.0
 10
27.305000
 20
90.670126
 30
0.0
 10
27.521882
 20
90.384977
 30
0.0
 10
27.748606
 20
90.172887
 30
0.0
  0
SPLINE
  5
217
100
AcDbEntity
  8
Layer_2
 62
7
100
AcDbSpline
 70
8
 71
3
 72
8
 73
4
 74
0
 40
0
 40
0
 40
0
 40
0
 40
1
 40
1
 40
1
 40
1
 10
27.748606
 20
90.172887
 30
0.0
 10
28.051308
 20
89.889724
 30
0.0
 10
28.514241
 20
89.662410
 30
0.0
 10
28.987094
 20
89.564750
 30
0.0
  0
SPLINE
  5
218
100
AcDbEntity
  8
Layer_2
 62
7
100
AcDbSpline
 70
8
 71
3
 72
8
 73
4
 74
0
 40
0
 40
0
 40
0
 40
0
 40
1
 40
1
 40
1
 40
1
 10
28.987094
 20
89.564750
 30
0.0
 10
29.271375
 20
89.506036
 30
0.0
 10
29.429887
 20
89.495670
 30
0.0
 10
29.871273
 20
89.506912
 30
0.0
  0
SPLINE
  5
219
100
AcDbEntity
  8
Layer_2
 62
7
100
AcDbSpline
 70
8
 71
3
 72
8
 73
4
 74
0
 40
0
 40
0
 40
0
 40
0
 40
1
 40
1
 40
1
 40
1
 10
29.871273
 20
89.506912
 30
0.0
 10
30.167061
 20
89.514452
 30
0.0
 10
30.396548
 20
89.507970
 30
0.0
 10
30.381236
 20
89.492783
 30
0.0
  0
SPLINE
  5
21a
100
AcDbEntity
  8
Layer_2
 62
7
100
AcDbSpline
 70
8
 71
3
 72
8
 73
4
 74
0
 40
0
 40
0
 40
0
 40
0
 40
1
 40
1
 40
1
 40
1
 10
30.381236
 20
89.492783
 30
0.0
 10
30.296673
 20
89.408217
 30
0.0
 10
29.519713
 20
88.997711
 30
0.0
 10
29.287626
 20
88.914975
 30
0.0
  0
SPLINE
  5
21b
100
AcDbEntity
  8
Layer_2
 62
7
100
AcDbSpline
 70
8
 71
3
 72
8
 73
4
 74
0
 40
0
 40
0
 40
0
 40
0
 40
1
 40
1
 40
1
 40
1
 10
29.287626
 20
88.914975
 30
0.0
 10
29.138216
 20
88.861709
 30
0.0
 10
29.004342
 20
88.808274
 30
0.0
 10
28.990126
 20
88.796225
 30
0.0
  0
SPLINE
  5
21c
100
AcDbEntity
  8
Layer_2
 62
7
100
AcDbSpline
 70
8
 71
3
 72
8
 73
4
 74
0
 40
0
 40
0
 40
0
 40
0
 40
1
 40
1
 40
1
 40
1
 10
28.990126
 20
88.796225
 30
0.0
 10
28.967583
 20
88.777122
 30
0.0
 10
30.289892
 20
88.462617
 30
0.0
 10
30.991530
 20
88.320184
 30
0.0
  0
SPLINE
  5
21d
100
AcDbEntity
  8
Layer_2
 62
7
100
AcDbSpline
 70
8
 71
3
 72
8
 73
4
 74
0
 40
0
 40
0
 40
0
 40
0
 40
1
 40
1
 40
1
 40
1
 10
30.991530
 20
88.320184
 30
0.0
 10
32.238442
 20
88.067055
 30
0.0
 10
33.409467
 20
88.079220
 30
0.0
 10
34.412854
 20
88.355723
 30
0.0
  0
SPLINE
  5
21e
100
AcDbEntity
  8
Layer_2
 62
7
100
AcDbSpline
 70
8
 71
3
 72
8
 73
4
 74
0
 40
0
 40
0
 40
0
 40
0
 40
1
 40
1
 40
1
 40
1
 10
34.412854
 20
88.355723
 30
0.0
 10
34.451999
 20
88.366518
 30
0.0
 10
34.230366
 20
88.238420
 30
0.0
 10
33.920332
 20
88.071084
 30
0.0
  0
SPLINE
  5
21f
100
AcDbEntity
  8
Layer_2
 62
7
100
AcDbSpline
 70
8
 71
3
 72
8
 73
4
 74
0
 40
0
 40
0
 40
0
 40
0
 40
1
 40
1
 40
1
 40
1
 10
33.920332
 20
88.071084
 30
0.0
 10
33.610301
 20
87.903743
 30
0.0
 10
33.349393
 20
87.759588
 30
0.0
 10
33.340543
 20
87.750735
 30
0.0
  0
SPLINE
  5
220
100
AcDbEntity
  8
Layer_2
 62
7
100
AcDbSpline
 70
8
 71
3
 72
8
 73
4
 74
0
 40
0
 40
0
 40
0
 40
0
 40
1
 40
1
 40
1
 40
1
 10
33.340543
 20
87.750735
 30
0.0
 10
33.305618
 20
87.715812
 30
0.0
 10
33.618609
 20
87.436931
 30
0.0
 10
33.919583
 20
87.234800
 30
0.0
  0
SPLINE
  5
221
100
AcDbEntity
  8
Layer_2
 62
7
100
AcDbSpline
 70
8
 71
3
 72
8
 73
4
 74
0
 40
0
 40
0
 40
0
 40
0
 40
1
 40
1
 40
1
 40
1
 10
33.919583
 20
87.234800
 30
0.0
 10
34.094208
 20
87.117526
 30
0.0
 10
34.423220
 20
86.932273
 30
0.0
 10
34.650722
 20
86.823129
 30
0.0
  0
SPLINE
  5
222
100
AcDbEntity
  8
Layer_2
 62
7
100
AcDbSpline
 70
8
 71
3
 72
8
 73
4
 74
0
 40
0
 40
0
 40
0
 40
0
 40
1
 40
1
 40
1
 40
1
 10
34.650722
 20
86.823129
 30
0.0
 10
34.878224
 20
86.713983
 30
0.0
 10
35.064756
 20
86.615093
 30
0.0
 10
35.065237
 20
86.603366
 30
0.0
  0
SPLINE
  5
223
100
AcDbEntity
  8
Layer_2
 62
7
100
AcDbSpline
 70
8
 71
3
 72
8
 73
4
 74
0
 40
0
 40
0
 40
0
 40
0
 40
1
 40
1
 40
1
 40
1
 10
35.065237
 20
86.603366
 30
0.0
 10
35.069206
 20
86.506489
 30
0.0
 10
31.564940
 20
84.726264
 30
0.0
 10
29.686250
 20
83.870758
 30
0.0
  0
SPLINE
  5
224
100
AcDbEntity
  8
Layer_2
 62
7
100
AcDbSpline
 70
8
 71
3
 72
8
 73
4
 74
0
 40
0
 40
0
 40
0
 40
0
 40
1
 40
1
 40
1
 40
1
 10
29.686250
 20
83.870758
 30
0.0
 10
23.925601
 20
81.247504
 30
0.0
 10
18.876519
 20
79.548019
 30
0.0
 10
15.134167
 20
78.972627
 30
0.0
  0
SPLINE
  5
225
100
AcDbEntity
  8
Layer_2
 62
7
100
AcDbSpline
 70
8
 71
3
 72
8
 73
4
 74
0
 40
0
 40
0
 40
0
 40
0
 40
1
 40
1
 40
1
 40
1
 10
15.134167
 20
78.972627
 30
0.0
 10
14.486500
 20
78.873048
 30
0.0
 10
13.566982
 20
78.775380
 30
0.0
 10
13.277141
 20
78.775380
 30
0.0
  0
SPLINE
  5
226
100
AcDbEntity
  8
Layer_2
 62
7
100
AcDbSpline
 70
8
 71
3
 72
8
 73
4
 74
0
 40
0
 40
0
 40
0
 40
0
 40
1
 40
1
 40
1
 40
1
 10
13.277141
 20
78.775380
 30
0.0
 10
13.104417
 20
78.775380
 30
0.0
 10
13.088101
 20
78.768501
 30
0.0
 10
13.088576
 20
78.696005
 30
0.0
  0
SPLINE
  5
227
100
AcDbEntity
  8
Layer_2
 62
7
100
AcDbSpline
 70
8
 71
3
 72
8
 73
4
 74
0
 40
0
 40
0
 40
0
 40
0
 40
1
 40
1
 40
1
 40
1
 10
13.088576
 20
78.696005
 30
0.0
 10
13.089449
 20
78.563692
 30
0.0
 10
13.355627
 20
77.815181
 30
0.0
 10
13.513608
 20
77.500824
 30
0.0
  0
SPLINE
  5
228
100
AcDbEntity
  8
Layer_2
 62
7
100
AcDbSpline
 70
8
 71
3
 72
8
 73
4
 74
0
 40
0
 40
0
 40
0
 40
0
 40
1
 40
1
 40
1
 40
1
 10
13.513608
 20
77.500824
 30
0.0
 10
14.121789
 20
76.290636
 30
0.0
 10
15.141555
 20
75.521698
 30
0.0
 10
16.527639
 20
75.228148
 30
0.0
  0
SPLINE
  5
229
100
AcDbEntity
  8
Layer_2
 62
7
100
AcDbSpline
 70
8
 71
3
 72
8
 73
4
 74
0
 40
0
 40
0
 40
0
 40
0
 40
1
 40
1
 40
1
 40
1
 10
16.527639
 20
75.228148
 30
0.0
 10
16.691330
 20
75.193483
 30
0.0
 10
17.068941
 20
75.159087
 30
0.0
 10
17.426727
 20
75.146255
 30
0.0
  0
LWPOLYLINE
  5
22a
100
AcDbEntity
  8
Layer_2
 62
7
100
AcDbPolyline
 90
3
 70
0
 10
32.376946
 20
101.126227
 30
0.0
 10
33.127363
 20
101.123845
 30
0.0
 10
32.482779
 20
100.805753
 30
0.0
  0
SPLINE
  5
22b
100
AcDbEntity
  8
Layer_2
 62
7
100
AcDbSpline
 70
8
 71
3
 72
8
 73
4
 74
0
 40
0
 40
0
 40
0
 40
0
 40
1
 40
1
 40
1
 40
1
 10
17.485221
 20
74.196710
 30
0.0
 10
17.575173
 20
74.113485
 30
0.0
 10
17.777516
 20
73.983159
 30
0.0
 10
17.934872
 20
73.907089
 30
0.0
  0
SPLINE
  5
22c
100
AcDbEntity
  8
Layer_2
 62
7
100
AcDbSpline
 70
8
 71
3
 72
8
 73
4
 74
0
 40
0
 40
0
 40
0
 40
0
 40
1
 40
1
 40
1
 40
1
 10
17.934872
 20
73.907089
 30
0.0
 10
18.416755
 20
73.674139
 30
0.0
 10
18.968326
 20
73.573889
 30
0.0
 10
20.037778
 20
73.524867
 30
0.0
  0
LWPOLYLINE
  5
22d
100
AcDbEntity
  8
Layer_2
 62
7
100
AcDbPolyline
 90
5
 70
0
 10
17.426727
 20
75.146255
 30
0.0
 10
18.043593
 20
75.124135
 30
0.0
 10
17.682631
 20
74.736079
 30
0.0
 10
17.321670
 20
74.348022
 30
0.0
 10
17.485221
 20
74.196710
 30
0.0
  0
SPLINE
  5
22e
100
AcDbEntity
  8
Layer_2
 62
7
100
AcDbSpline
 70
8
 71
3
 72
8
 73
4
 74
0
 40
0
 40
0
 40
0
 40
0
 40
1
 40
1
 40
1
 40
1
 10
20.334153
 20
73.370541
 30
0.0
 10
20.196417
 20
73.299442
 30
0.0
 10
19.855105
 20
73.144274
 30
0.0
 10
19.575681
 20
73.025728
 30
0.0
  0
SPLINE
  5
22f
100
AcDbEntity
  8
Layer_2
 62
7
100
AcDbSpline
 70
8
 71
3
 72
8
 73
4
 74
0
 40
0
 40
0
 40
0
 40
0
 40
1
 40
1
 40
1
 40
1
 10
19.575681
 20
73.025728
 30
0.0
 10
18.905127
 20
72.741245
 30
0.0
 10
18.520834
 20
72.561005
 30
0.0
 10
18.520834
 20
72.530999
 30
0.0
  0
SPLINE
  5
230
100
AcDbEntity
  8
Layer_2
 62
7
100
AcDbSpline
 70
8
 71
3
 72
8
 73
4
 74
0
 40
0
 40
0
 40
0
 40
0
 40
1
 40
1
 40
1
 40
1
 10
18.520834
 20
72.530999
 30
0.0
 10
18.520834
 20
72.479281
 30
0.0
 10
19.219385
 20
71.832661
 30
0.0
 10
19.420417
 20
71.698292
 30
0.0
  0
SPLINE
  5
231
100
AcDbEntity
  8
Layer_2
 62
7
100
AcDbSpline
 70
8
 71
3
 72
8
 73
4
 74
0
 40
0
 40
0
 40
0
 40
0
 40
1
 40
1
 40
1
 40
1
 10
19.420417
 20
71.698292
 30
0.0
 10
20.551250
 20
70.942433
 30
0.0
 10
21.867369
 20
70.717839
 30
0.0
 10
23.523727
 20
70.998054
 30
0.0
  0
SPLINE
  5
232
100
AcDbEntity
  8
Layer_2
 62
7
100
AcDbSpline
 70
8
 71
3
 72
8
 73
4
 74
0
 40
0
 40
0
 40
0
 40
0
 40
1
 40
1
 40
1
 40
1
 10
23.523727
 20
70.998054
 30
0.0
 10
23.801464
 20
71.045038
 30
0.0
 10
24.046438
 20
71.094441
 30
0.0
 10
24.068114
 20
71.107840
 30
0.0
  0
SPLINE
  5
233
100
AcDbEntity
  8
Layer_2
 62
7
100
AcDbSpline
 70
8
 71
3
 72
8
 73
4
 74
0
 40
0
 40
0
 40
0
 40
0
 40
1
 40
1
 40
1
 40
1
 10
24.068114
 20
71.107840
 30
0.0
 10
24.089789
 20
71.121228
 30
0.0
 10
24.063238
 20
71.074132
 30
0.0
 10
24.009111
 20
71.003171
 30
0.0
  0
SPLINE
  5
234
100
AcDbEntity
  8
Layer_2
 62
7
100
AcDbSpline
 70
8
 71
3
 72
8
 73
4
 74
0
 40
0
 40
0
 40
0
 40
0
 40
1
 40
1
 40
1
 40
1
 10
24.009111
 20
71.003171
 30
0.0
 10
23.954983
 20
70.932207
 30
0.0
 10
23.724388
 20
70.747869
 30
0.0
 10
23.496678
 20
70.593532
 30
0.0
  0
SPLINE
  5
235
100
AcDbEntity
  8
Layer_2
 62
7
100
AcDbSpline
 70
8
 71
3
 72
8
 73
4
 74
0
 40
0
 40
0
 40
0
 40
0
 40
1
 40
1
 40
1
 40
1
 10
23.496678
 20
70.593532
 30
0.0
 10
23.082628
 20
70.312907
 30
0.0
 10
22.908481
 20
70.152035
 30
0.0
 10
22.807638
 20
69.957027
 30
0.0
  0
LWPOLYLINE
  5
236
100
AcDbEntity
  8
Layer_2
 62
7
100
AcDbPolyline
 90
3
 70
0
 10
20.037778
 20
73.524867
 30
0.0
 10
20.584584
 20
73.499811
 30
0.0
 10
20.334153
 20
73.370541
 30
0.0
  0
SPLINE
  5
237
100
AcDbEntity
  8
Layer_2
 62
7
100
AcDbSpline
 70
8
 71
3
 72
8
 73
4
 74
0
 40
0
 40
0
 40
0
 40
0
 40
1
 40
1
 40
1
 40
1
 10
22.907911
 20
69.762997
 30
0.0
 10
23.956337
 20
69.148576
 30
0.0
 10
26.015024
 20
69.059772
 30
0.0
 10
28.374822
 20
69.527169
 30
0.0
  0
SPLINE
  5
238
100
AcDbEntity
  8
Layer_2
 62
7
100
AcDbSpline
 70
8
 71
3
 72
8
 73
4
 74
0
 40
0
 40
0
 40
0
 40
0
 40
1
 40
1
 40
1
 40
1
 10
28.374822
 20
69.527169
 30
0.0
 10
28.643077
 20
69.580300
 30
0.0
 10
28.840745
 20
69.607232
 30
0.0
 10
28.814080
 20
69.587017
 30
0.0
  0
SPLINE
  5
239
100
AcDbEntity
  8
Layer_2
 62
7
100
AcDbSpline
 70
8
 71
3
 72
8
 73
4
 74
0
 40
0
 40
0
 40
0
 40
0
 40
1
 40
1
 40
1
 40
1
 10
28.814080
 20
69.587017
 30
0.0
 10
28.787418
 20
69.566803
 30
0.0
 10
28.670636
 20
69.476604
 30
0.0
 10
28.554564
 20
69.386580
 30
0.0
  0
SPLINE
  5
23a
100
AcDbEntity
  8
Layer_2
 62
7
100
AcDbSpline
 70
8
 71
3
 72
8
 73
4
 74
0
 40
0
 40
0
 40
0
 40
0
 40
1
 40
1
 40
1
 40
1
 10
28.554564
 20
69.386580
 30
0.0
 10
28.237696
 20
69.140824
 30
0.0
 10
27.377562
 20
68.585310
 30
0.0
 10
26.899306
 20
68.317552
 30
0.0
  0
SPLINE
  5
23b
100
AcDbEntity
  8
Layer_2
 62
7
100
AcDbSpline
 70
8
 71
3
 72
8
 73
4
 74
0
 40
0
 40
0
 40
0
 40
0
 40
1
 40
1
 40
1
 40
1
 10
26.899306
 20
68.317552
 30
0.0
 10
25.463130
 20
67.513478
 30
0.0
 10
23.523334
 20
66.704975
 30
0.0
 10
21.431250
 20
66.038479
 30
0.0
  0
SPLINE
  5
23c
100
AcDbEntity
  8
Layer_2
 62
7
100
AcDbSpline
 70
8
 71
3
 72
8
 73
4
 74
0
 40
0
 40
0
 40
0
 40
0
 40
1
 40
1
 40
1
 40
1
 10
21.431250
 20
66.038479
 30
0.0
 10
18.754894
 20
65.185843
 30
0.0
 10
15.224061
 20
64.417345
 30
0.0
 10
13.983029
 20
64.417345
 30
0.0
  0
LWPOLYLINE
  5
23d
100
AcDbEntity
  8
Layer_2
 62
7
100
AcDbPolyline
 90
3
 70
0
 10
22.807638
 20
69.957027
 30
0.0
 10
22.753957
 20
69.853220
 30
0.0
 10
22.907911
 20
69.762997
 30
0.0
  0
SPLINE
  5
23e
100
AcDbEntity
  8
Layer_2
 62
7
100
AcDbSpline
 70
8
 71
3
 72
8
 73
4
 74
0
 40
0
 40
0
 40
0
 40
0
 40
1
 40
1
 40
1
 40
1
 10
13.671678
 20
64.302690
 30
0.0
 10
13.732463
 20
64.021491
 30
0.0
 10
13.916863
 20
63.521426
 30
0.0
 10
14.092881
 20
63.160450
 30
0.0
  0
SPLINE
  5
23f
100
AcDbEntity
  8
Layer_2
 62
7
100
AcDbSpline
 70
8
 71
3
 72
8
 73
4
 74
0
 40
0
 40
0
 40
0
 40
0
 40
1
 40
1
 40
1
 40
1
 10
14.092881
 20
63.160450
 30
0.0
 10
14.588627
 20
62.143772
 30
0.0
 10
15.372536
 20
61.460896
 30
0.0
 10
16.455278
 20
61.102523
 30
0.0
  0
SPLINE
  5
240
100
AcDbEntity
  8
Layer_2
 62
7
100
AcDbSpline
 70
8
 71
3
 72
8
 73
4
 74
0
 40
0
 40
0
 40
0
 40
0
 40
1
 40
1
 40
1
 40
1
 10
16.455278
 20
61.102523
 30
0.0
 10
17.091473
 20
60.891954
 30
0.0
 10
17.751689
 20
60.796017
 30
0.0
 10
18.807274
 20
60.760745
 30
0.0
  0
LWPOLYLINE
  5
241
100
AcDbEntity
  8
Layer_2
 62
7
100
AcDbPolyline
 90
3
 70
0
 10
13.983029
 20
64.417345
 30
0.0
 10
13.646894
 20
64.417345
 30
0.0
 10
13.671678
 20
64.302690
 30
0.0
  0
SPLINE
  5
242
100
AcDbEntity
  8
Layer_2
 62
7
100
AcDbSpline
 70
8
 71
3
 72
8
 73
4
 74
0
 40
0
 40
0
 40
0
 40
0
 40
1
 40
1
 40
1
 40
1
 10
19.145011
 20
60.440488
 30
0.0
 10
18.840549
 20
60.189070
 30
0.0
 10
18.610212
 20
60.022642
 30
0.0
 10
18.217616
 20
59.770410
 30
0.0
  0
SPLINE
  5
243
100
AcDbEntity
  8
Layer_2
 62
7
100
AcDbSpline
 70
8
 71
3
 72
8
 73
4
 74
0
 40
0
 40
0
 40
0
 40
0
 40
1
 40
1
 40
1
 40
1
 10
18.217616
 20
59.770410
 30
0.0
 10
18.154666
 20
59.729965
 30
0.0
 10
18.160455
 20
59.718136
 30
0.0
 10
18.309167
 20
59.583328
 30
0.0
  0
SPLINE
  5
244
100
AcDbEntity
  8
Layer_2
 62
7
100
AcDbSpline
 70
8
 71
3
 72
8
 73
4
 74
0
 40
0
 40
0
 40
0
 40
0
 40
1
 40
1
 40
1
 40
1
 10
18.309167
 20
59.583328
 30
0.0
 10
18.520415
 20
59.391830
 30
0.0
 10
19.040564
 20
59.043237
 30
0.0
 10
19.340253
 20
58.892318
 30
0.0
  0
SPLINE
  5
245
100
AcDbEntity
  8
Layer_2
 62
7
100
AcDbSpline
 70
8
 71
3
 72
8
 73
4
 74
0
 40
0
 40
0
 40
0
 40
0
 40
1
 40
1
 40
1
 40
1
 10
19.340253
 20
58.892318
 30
0.0
 10
20.262626
 20
58.427816
 30
0.0
 10
21.347116
 20
58.342136
 30
0.0
 10
22.819057
 20
58.617477
 30
0.0
  0
SPLINE
  5
246
100
AcDbEntity
  8
Layer_2
 62
7
100
AcDbSpline
 70
8
 71
3
 72
8
 73
4
 74
0
 40
0
 40
0
 40
0
 40
0
 40
1
 40
1
 40
1
 40
1
 10
22.819057
 20
58.617477
 30
0.0
 10
22.980864
 20
58.647745
 30
0.0
 10
23.120244
 20
58.665515
 30
0.0
 10
23.128789
 20
58.656969
 30
0.0
  0
SPLINE
  5
247
100
AcDbEntity
  8
Layer_2
 62
7
100
AcDbSpline
 70
8
 71
3
 72
8
 73
4
 74
0
 40
0
 40
0
 40
0
 40
0
 40
1
 40
1
 40
1
 40
1
 10
23.128789
 20
58.656969
 30
0.0
 10
23.143275
 20
58.642496
 30
0.0
 10
22.514782
 20
58.310132
 30
0.0
 10
22.404253
 20
58.273831
 30
0.0
  0
SPLINE
  5
248
100
AcDbEntity
  8
Layer_2
 62
7
100
AcDbSpline
 70
8
 71
3
 72
8
 73
4
 74
0
 40
0
 40
0
 40
0
 40
0
 40
1
 40
1
 40
1
 40
1
 10
22.404253
 20
58.273831
 30
0.0
 10
22.326729
 20
58.248378
 30
0.0
 10
22.592767
 20
57.884118
 30
0.0
 10
22.917850
 20
57.570629
 30
0.0
  0
SPLINE
  5
249
100
AcDbEntity
  8
Layer_2
 62
7
100
AcDbSpline
 70
8
 71
3
 72
8
 73
4
 74
0
 40
0
 40
0
 40
0
 40
0
 40
1
 40
1
 40
1
 40
1
 10
22.917850
 20
57.570629
 30
0.0
 10
23.070359
 20
57.423563
 30
0.0
 10
23.321277
 20
57.218575
 30
0.0
 10
23.475447
 20
57.115104
 30
0.0
  0
SPLINE
  5
24a
100
AcDbEntity
  8
Layer_2
 62
7
100
AcDbSpline
 70
8
 71
3
 72
8
 73
4
 74
0
 40
0
 40
0
 40
0
 40
0
 40
1
 40
1
 40
1
 40
1
 10
23.475447
 20
57.115104
 30
0.0
 10
24.056580
 20
56.725077
 30
0.0
 10
24.961554
 20
56.365233
 30
0.0
 10
25.830327
 20
56.178738
 30
0.0
  0
SPLINE
  5
24b
100
AcDbEntity
  8
Layer_2
 62
7
100
AcDbSpline
 70
8
 71
3
 72
8
 73
4
 74
0
 40
0
 40
0
 40
0
 40
0
 40
1
 40
1
 40
1
 40
1
 10
25.830327
 20
56.178738
 30
0.0
 10
26.414020
 20
56.053437
 30
0.0
 10
26.395552
 20
56.063586
 30
0.0
 10
26.211389
 20
55.969310
 30
0.0
  0
SPLINE
  5
24c
100
AcDbEntity
  8
Layer_2
 62
7
100
AcDbSpline
 70
8
 71
3
 72
8
 73
4
 74
0
 40
0
 40
0
 40
0
 40
0
 40
1
 40
1
 40
1
 40
1
 10
26.211389
 20
55.969310
 30
0.0
 10
25.536584
 20
55.623865
 30
0.0
 10
23.095618
 20
55.003655
 30
0.0
 10
20.443472
 20
54.503791
 30
0.0
  0
SPLINE
  5
24d
100
AcDbEntity
  8
Layer_2
 62
7
100
AcDbSpline
 70
8
 71
3
 72
8
 73
4
 74
0
 40
0
 40
0
 40
0
 40
0
 40
1
 40
1
 40
1
 40
1
 10
20.443472
 20
54.503791
 30
0.0
 10
14.881732
 20
53.455530
 30
0.0
 10
8.525664
 20
52.825888
 30
0.0
 10
2.698750
 20
52.745973
 30
0.0
  0
LWPOLYLINE
  5
24e
100
AcDbEntity
  8
Layer_2
 62
7
100
AcDbPolyline
 90
3
 70
0
 10
18.807274
 20
60.760745
 30
0.0
 10
19.504605
 20
60.737435
 30
0.0
 10
19.145011
 20
60.440488
 30
0.0
  0
SPLINE
  5
24f
100
AcDbEntity
  8
Layer_2
 62
7
100
AcDbSpline
 70
8
 71
3
 72
8
 73
4
 74
0
 40
0
 40
0
 40
0
 40
0
 40
1
 40
1
 40
1
 40
1
 10
0.956744
 20
52.511076
 30
0.0
 10
0.924452
 20
52.370641
 30
0.0
 10
0.907486
 20
52.061962
 30
0.0
 10
0.906332
 20
51.593853
 30
0.0
  0
SPLINE
  5
250
100
AcDbEntity
  8
Layer_2
 62
7
100
AcDbSpline
 70
8
 71
3
 72
8
 73
4
 74
0
 40
0
 40
0
 40
0
 40
0
 40
1
 40
1
 40
1
 40
1
 10
0.906332
 20
51.593853
 30
0.0
 10
0.904723
 20
50.941200
 30
0.0
 10
0.911496
 20
50.862627
 30
0.0
 10
0.996674
 20
50.545899
 30
0.0
  0
SPLINE
  5
251
100
AcDbEntity
  8
Layer_2
 62
7
100
AcDbSpline
 70
8
 71
3
 72
8
 73
4
 74
0
 40
0
 40
0
 40
0
 40
0
 40
1
 40
1
 40
1
 40
1
 10
0.996674
 20
50.545899
 30
0.0
 10
1.409483
 20
49.010903
 30
0.0
 10
2.601341
 20
48.022327
 30
0.0
 10
4.495819
 20
47.643568
 30
0.0
  0
SPLINE
  5
252
100
AcDbEntity
  8
Layer_2
 62
7
100
AcDbSpline
 70
8
 71
3
 72
8
 73
4
 74
0
 40
0
 40
0
 40
0
 40
0
 40
1
 40
1
 40
1
 40
1
 10
4.495819
 20
47.643568
 30
0.0
 10
4.729806
 20
47.596787
 30
0.0
 10
5.087937
 20
47.538648
 30
0.0
 10
5.291666
 20
47.514375
 30
0.0
  0
SPLINE
  5
253
100
AcDbEntity
  8
Layer_2
 62
7
100
AcDbSpline
 70
8
 71
3
 72
8
 73
4
 74
0
 40
0
 40
0
 40
0
 40
0
 40
1
 40
1
 40
1
 40
1
 10
5.291666
 20
47.514375
 30
0.0
 10
5.707212
 20
47.464861
 30
0.0
 10
7.019951
 20
47.452494
 30
0.0
 10
7.584722
 20
47.492759
 30
0.0
  0
LWPOLYLINE
  5
254
100
AcDbEntity
  8
Layer_2
 62
7
100
AcDbPolyline
 90
3
 70
0
 10
2.698750
 20
52.745973
 30
0.0
 10
1.005416
 20
52.722743
 30
0.0
 10
0.956744
 20
52.511076
 30
0.0
  0
SPLINE
  5
255
100
AcDbEntity
  8
Layer_2
 62
7
100
AcDbSpline
 70
8
 71
3
 72
8
 73
4
 74
0
 40
0
 40
0
 40
0
 40
0
 40
1
 40
1
 40
1
 40
1
 10
7.832421
 20
47.412891
 30
0.0
 10
7.668023
 20
47.270524
 30
0.0
 10
7.422272
 20
47.183405
 30
0.0
 10
6.885817
 20
47.077326
 30
0.0
  0
SPLINE
  5
256
100
AcDbEntity
  8
Layer_2
 62
7
100
AcDbSpline
 70
8
 71
3
 72
8
 73
4
 74
0
 40
0
 40
0
 40
0
 40
0
 40
1
 40
1
 40
1
 40
1
 10
6.885817
 20
47.077326
 30
0.0
 10
6.419189
 20
46.985052
 30
0.0
 10
6.093684
 20
46.900491
 30
0.0
 10
5.988337
 20
46.844178
 30
0.0
  0
SPLINE
  5
257
100
AcDbEntity
  8
Layer_2
 62
7
100
AcDbSpline
 70
8
 71
3
 72
8
 73
4
 74
0
 40
0
 40
0
 40
0
 40
0
 40
1
 40
1
 40
1
 40
1
 10
5.988337
 20
46.844178
 30
0.0
 10
5.930259
 20
46.813134
 30
0.0
 10
5.931098
 20
46.802183
 30
0.0
 10
6.002264
 20
46.662486
 30
0.0
  0
SPLINE
  5
258
100
AcDbEntity
  8
Layer_2
 62
7
100
AcDbSpline
 70
8
 71
3
 72
8
 73
4
 74
0
 40
0
 40
0
 40
0
 40
0
 40
1
 40
1
 40
1
 40
1
 10
6.002264
 20
46.662486
 30
0.0
 10
6.661242
 20
45.368927
 30
0.0
 10
7.668341
 20
44.433546
 30
0.0
 10
8.779380
 20
44.083137
 30
0.0
  0
SPLINE
  5
259
100
AcDbEntity
  8
Layer_2
 62
7
100
AcDbSpline
 70
8
 71
3
 72
8
 73
4
 74
0
 40
0
 40
0
 40
0
 40
0
 40
1
 40
1
 40
1
 40
1
 10
8.779380
 20
44.083137
 30
0.0
 10
9.304686
 20
43.917463
 30
0.0
 10
9.651308
 20
43.875492
 30
0.0
 10
10.318751
 20
43.896751
 30
0.0
  0
SPLINE
  5
25a
100
AcDbEntity
  8
Layer_2
 62
7
100
AcDbSpline
 70
8
 71
3
 72
8
 73
4
 74
0
 40
0
 40
0
 40
0
 40
0
 40
1
 40
1
 40
1
 40
1
 10
10.318751
 20
43.896751
 30
0.0
 10
11.005519
 20
43.918632
 30
0.0
 10
11.429266
 20
43.994919
 30
0.0
 10
12.336053
 20
44.259979
 30
0.0
  0
SPLINE
  5
25b
100
AcDbEntity
  8
Layer_2
 62
7
100
AcDbSpline
 70
8
 71
3
 72
8
 73
4
 74
0
 40
0
 40
0
 40
0
 40
0
 40
1
 40
1
 40
1
 40
1
 10
12.336053
 20
44.259979
 30
0.0
 10
12.642939
 20
44.349683
 30
0.0
 10
12.925778
 20
44.430310
 30
0.0
 10
12.964584
 20
44.439147
 30
0.0
  0
SPLINE
  5
25c
100
AcDbEntity
  8
Layer_2
 62
7
100
AcDbSpline
 70
8
 71
3
 72
8
 73
4
 74
0
 40
0
 40
0
 40
0
 40
0
 40
1
 40
1
 40
1
 40
1
 10
12.964584
 20
44.439147
 30
0.0
 10
13.086691
 20
44.466960
 30
0.0
 10
12.785265
 20
44.227059
 30
0.0
 10
12.420973
 20
44.006497
 30
0.0
  0
SPLINE
  5
25d
100
AcDbEntity
  8
Layer_2
 62
7
100
AcDbSpline
 70
8
 71
3
 72
8
 73
4
 74
0
 40
0
 40
0
 40
0
 40
0
 40
1
 40
1
 40
1
 40
1
 10
12.420973
 20
44.006497
 30
0.0
 10
12.073434
 20
43.796080
 30
0.0
 10
11.712223
 20
43.534259
 30
0.0
 10
11.712223
 20
43.492767
 30
0.0
  0
SPLINE
  5
25e
100
AcDbEntity
  8
Layer_2
 62
7
100
AcDbSpline
 70
8
 71
3
 72
8
 73
4
 74
0
 40
0
 40
0
 40
0
 40
0
 40
1
 40
1
 40
1
 40
1
 10
11.712223
 20
43.492767
 30
0.0
 10
11.712223
 20
43.451253
 30
0.0
 10
12.087820
 20
43.124657
 30
0.0
 10
12.289566
 20
42.990746
 30
0.0
  0
SPLINE
  5
25f
100
AcDbEntity
  8
Layer_2
 62
7
100
AcDbSpline
 70
8
 71
3
 72
8
 73
4
 74
0
 40
0
 40
0
 40
0
 40
0
 40
1
 40
1
 40
1
 40
1
 10
12.289566
 20
42.990746
 30
0.0
 10
12.580849
 20
42.797405
 30
0.0
 10
13.035898
 20
42.589844
 30
0.0
 10
13.335001
 20
42.513893
 30
0.0
  0
SPLINE
  5
260
100
AcDbEntity
  8
Layer_2
 62
7
100
AcDbSpline
 70
8
 71
3
 72
8
 73
4
 74
0
 40
0
 40
0
 40
0
 40
0
 40
1
 40
1
 40
1
 40
1
 10
13.335001
 20
42.513893
 30
0.0
 10
13.925066
 20
42.364062
 30
0.0
 10
14.531747
 20
42.338334
 30
0.0
 10
15.858987
 20
42.406858
 30
0.0
  0
SPLINE
  5
261
100
AcDbEntity
  8
Layer_2
 62
7
100
AcDbSpline
 70
8
 71
3
 72
8
 73
4
 74
0
 40
0
 40
0
 40
0
 40
0
 40
1
 40
1
 40
1
 40
1
 10
15.858987
 20
42.406858
 30
0.0
 10
16.265552
 20
42.427840
 30
0.0
 10
16.699539
 20
42.434296
 30
0.0
 10
16.823404
 20
42.421172
 30
0.0
  0
LWPOLYLINE
  5
262
100
AcDbEntity
  8
Layer_2
 62
7
100
AcDbPolyline
 90
3
 70
0
 10
7.584722
 20
47.492759
 30
0.0
 10
7.955139
 20
47.519164
 30
0.0
 10
7.832421
 20
47.412891
 30
0.0
  0
SPLINE
  5
263
100
AcDbEntity
  8
Layer_2
 62
7
100
AcDbSpline
 70
8
 71
3
 72
8
 73
4
 74
0
 40
0
 40
0
 40
0
 40
0
 40
1
 40
1
 40
1
 40
1
 10
16.894012
 20
42.309518
 30
0.0
 10
16.693173
 20
42.195440
 30
0.0
 10
16.515759
 20
42.048586
 30
0.0
 10
16.039813
 20
41.602467
 30
0.0
  0
SPLINE
  5
264
100
AcDbEntity
  8
Layer_2
 62
7
100
AcDbSpline
 70
8
 71
3
 72
8
 73
4
 74
0
 40
0
 40
0
 40
0
 40
0
 40
1
 40
1
 40
1
 40
1
 10
16.039813
 20
41.602467
 30
0.0
 10
15.579107
 20
41.170630
 30
0.0
 10
15.277519
 20
40.999159
 30
0.0
 10
14.922008
 20
40.966922
 30
0.0
  0
LWPOLYLINE
  5
265
100
AcDbEntity
  8
Layer_2
 62
7
100
AcDbPolyline
 90
3
 70
0
 10
16.823404
 20
42.421172
 30
0.0
 10
17.048614
 20
42.397333
 30
0.0
 10
16.894012
 20
42.309518
 30
0.0
  0
SPLINE
  5
266
100
AcDbEntity
  8
Layer_2
 62
7
100
AcDbSpline
 70
8
 71
3
 72
8
 73
4
 74
0
 40
0
 40
0
 40
0
 40
0
 40
1
 40
1
 40
1
 40
1
 10
14.862028
 20
40.864361
 30
0.0
 10
15.138657
 20
40.723772
 30
0.0
 10
15.859450
 20
40.436977
 30
0.0
 10
16.268483
 20
40.304746
 30
0.0
  0
SPLINE
  5
267
100
AcDbEntity
  8
Layer_2
 62
7
100
AcDbSpline
 70
8
 71
3
 72
8
 73
4
 74
0
 40
0
 40
0
 40
0
 40
0
 40
1
 40
1
 40
1
 40
1
 10
16.268483
 20
40.304746
 30
0.0
 10
17.307146
 20
39.968969
 30
0.0
 10
18.105518
 20
39.845157
 30
0.0
 10
19.050001
 20
39.873394
 30
0.0
  0
SPLINE
  5
268
100
AcDbEntity
  8
Layer_2
 62
7
100
AcDbSpline
 70
8
 71
3
 72
8
 73
4
 74
0
 40
0
 40
0
 40
0
 40
0
 40
1
 40
1
 40
1
 40
1
 10
19.050001
 20
39.873394
 30
0.0
 10
20.250033
 20
39.909271
 30
0.0
 10
20.960469
 20
40.125539
 30
0.0
 10
22.341230
 20
40.875294
 30
0.0
  0
SPLINE
  5
269
100
AcDbEntity
  8
Layer_2
 62
7
100
AcDbSpline
 70
8
 71
3
 72
8
 73
4
 74
0
 40
0
 40
0
 40
0
 40
0
 40
1
 40
1
 40
1
 40
1
 10
22.341230
 20
40.875294
 30
0.0
 10
22.647690
 20
41.041704
 30
0.0
 10
22.906337
 20
41.169947
 30
0.0
 10
22.916001
 20
41.160285
 30
0.0
  0
SPLINE
  5
26a
100
AcDbEntity
  8
Layer_2
 62
7
100
AcDbSpline
 70
8
 71
3
 72
8
 73
4
 74
0
 40
0
 40
0
 40
0
 40
0
 40
1
 40
1
 40
1
 40
1
 10
22.916001
 20
41.160285
 30
0.0
 10
22.952230
 20
41.124058
 30
0.0
 10
21.057597
 20
39.510364
 30
0.0
 10
20.699237
 20
39.272229
 30
0.0
  0
SPLINE
  5
26b
100
AcDbEntity
  8
Layer_2
 62
7
100
AcDbSpline
 70
8
 71
3
 72
8
 73
4
 74
0
 40
0
 40
0
 40
0
 40
0
 40
1
 40
1
 40
1
 40
1
 10
20.699237
 20
39.272229
 30
0.0
 10
20.626476
 20
39.223879
 30
0.0
 10
20.566945
 20
39.172592
 30
0.0
 10
20.566945
 20
39.158257
 30
0.0
  0
SPLINE
  5
26c
100
AcDbEntity
  8
Layer_2
 62
7
100
AcDbSpline
 70
8
 71
3
 72
8
 73
4
 74
0
 40
0
 40
0
 40
0
 40
0
 40
1
 40
1
 40
1
 40
1
 10
20.566945
 20
39.158257
 30
0.0
 10
20.566945
 20
39.120461
 30
0.0
 10
21.357513
 20
38.916491
 30
0.0
 10
21.878953
 20
38.819757
 30
0.0
  0
SPLINE
  5
26d
100
AcDbEntity
  8
Layer_2
 62
7
100
AcDbSpline
 70
8
 71
3
 72
8
 73
4
 74
0
 40
0
 40
0
 40
0
 40
0
 40
1
 40
1
 40
1
 40
1
 10
21.878953
 20
38.819757
 30
0.0
 10
22.691452
 20
38.669021
 30
0.0
 10
23.325227
 20
38.620300
 30
0.0
 10
24.200556
 20
38.641290
 30
0.0
  0
SPLINE
  5
26e
100
AcDbEntity
  8
Layer_2
 62
7
100
AcDbSpline
 70
8
 71
3
 72
8
 73
4
 74
0
 40
0
 40
0
 40
0
 40
0
 40
1
 40
1
 40
1
 40
1
 10
24.200556
 20
38.641290
 30
0.0
 10
24.659836
 20
38.652297
 30
0.0
 10
25.105796
 20
38.681657
 30
0.0
 10
25.258890
 20
38.710952
 30
0.0
  0
SPLINE
  5
26f
100
AcDbEntity
  8
Layer_2
 62
7
100
AcDbSpline
 70
8
 71
3
 72
8
 73
4
 74
0
 40
0
 40
0
 40
0
 40
0
 40
1
 40
1
 40
1
 40
1
 10
25.258890
 20
38.710952
 30
0.0
 10
25.404410
 20
38.738802
 30
0.0
 10
25.529855
 20
38.755854
 30
0.0
 10
25.537655
 20
38.748851
 30
0.0
  0
SPLINE
  5
270
100
AcDbEntity
  8
Layer_2
 62
7
100
AcDbSpline
 70
8
 71
3
 72
8
 73
4
 74
0
 40
0
 40
0
 40
0
 40
0
 40
1
 40
1
 40
1
 40
1
 10
25.537655
 20
38.748851
 30
0.0
 10
25.561314
 20
38.727605
 30
0.0
 10
24.884338
 20
38.051192
 30
0.0
 10
24.350991
 20
37.563166
 30
0.0
  0
SPLINE
  5
271
100
AcDbEntity
  8
Layer_2
 62
7
100
AcDbSpline
 70
8
 71
3
 72
8
 73
4
 74
0
 40
0
 40
0
 40
0
 40
0
 40
1
 40
1
 40
1
 40
1
 10
24.350991
 20
37.563166
 30
0.0
 10
20.818512
 20
34.330860
 30
0.0
 10
15.633125
 20
31.466129
 30
0.0
 10
8.413751
 20
28.758436
 30
0.0
  0
SPLINE
  5
272
100
AcDbEntity
  8
Layer_2
 62
7
100
AcDbSpline
 70
8
 71
3
 72
8
 73
4
 74
0
 40
0
 40
0
 40
0
 40
0
 40
1
 40
1
 40
1
 40
1
 10
8.413751
 20
28.758436
 30
0.0
 10
7.221146
 20
28.311139
 30
0.0
 10
6.124352
 20
27.923548
 30
0.0
 10
3.951112
 20
27.181403
 30
0.0
  0
SPLINE
  5
273
100
AcDbEntity
  8
Layer_2
 62
7
100
AcDbSpline
 70
8
 71
3
 72
8
 73
4
 74
0
 40
0
 40
0
 40
0
 40
0
 40
1
 40
1
 40
1
 40
1
 10
3.951112
 20
27.181403
 30
0.0
 10
1.244072
 20
26.256970
 30
0.0
 10
0.775455
 20
26.081302
 30
0.0
 10
0.776757
 20
25.991431
 30
0.0
  0
SPLINE
  5
274
100
AcDbEntity
  8
Layer_2
 62
7
100
AcDbSpline
 70
8
 71
3
 72
8
 73
4
 74
0
 40
0
 40
0
 40
0
 40
0
 40
1
 40
1
 40
1
 40
1
 10
0.776757
 20
25.991431
 30
0.0
 10
0.778051
 20
25.902137
 30
0.0
 10
1.023344
 20
25.352878
 30
0.0
 10
1.185303
 20
25.076618
 30
0.0
  0
SPLINE
  5
275
100
AcDbEntity
  8
Layer_2
 62
7
100
AcDbSpline
 70
8
 71
3
 72
8
 73
4
 74
0
 40
0
 40
0
 40
0
 40
0
 40
1
 40
1
 40
1
 40
1
 10
1.185303
 20
25.076618
 30
0.0
 10
1.652894
 20
24.279037
 30
0.0
 10
2.412662
 20
23.527546
 30
0.0
 10
3.340148
 20
22.945251
 30
0.0
  0
SPLINE
  5
276
100
AcDbEntity
  8
Layer_2
 62
7
100
AcDbSpline
 70
8
 71
3
 72
8
 73
4
 74
0
 40
0
 40
0
 40
0
 40
0
 40
1
 40
1
 40
1
 40
1
 10
3.340148
 20
22.945251
 30
0.0
 10
4.975965
 20
21.918255
 30
0.0
 10
7.448427
 20
21.236072
 30
0.0
 10
9.525001
 20
21.238774
 30
0.0
  0
SPLINE
  5
277
100
AcDbEntity
  8
Layer_2
 62
7
100
AcDbSpline
 70
8
 71
3
 72
8
 73
4
 74
0
 40
0
 40
0
 40
0
 40
0
 40
1
 40
1
 40
1
 40
1
 10
9.525001
 20
21.238774
 30
0.0
 10
10.030103
 20
21.239567
 30
0.0
 10
10.495191
 20
21.276384
 30
0.0
 10
10.670059
 20
21.329756
 30
0.0
  0
SPLINE
  5
278
100
AcDbEntity
  8
Layer_2
 62
7
100
AcDbSpline
 70
8
 71
3
 72
8
 73
4
 74
0
 40
0
 40
0
 40
0
 40
0
 40
1
 40
1
 40
1
 40
1
 10
10.670059
 20
21.329756
 30
0.0
 10
10.709673
 20
21.341847
 30
0.0
 10
10.369021
 20
21.161896
 30
0.0
 10
9.913056
 20
20.929867
 30
0.0
  0
SPLINE
  5
279
100
AcDbEntity
  8
Layer_2
 62
7
100
AcDbSpline
 70
8
 71
3
 72
8
 73
4
 74
0
 40
0
 40
0
 40
0
 40
0
 40
1
 40
1
 40
1
 40
1
 10
9.913056
 20
20.929867
 30
0.0
 10
9.457091
 20
20.697838
 30
0.0
 10
8.750653
 20
20.320820
 30
0.0
 10
8.343195
 20
20.092051
 30
0.0
  0
SPLINE
  5
27a
100
AcDbEntity
  8
Layer_2
 62
7
100
AcDbSpline
 70
8
 71
3
 72
8
 73
4
 74
0
 40
0
 40
0
 40
0
 40
0
 40
1
 40
1
 40
1
 40
1
 10
8.343195
 20
20.092051
 30
0.0
 10
7.935737
 20
19.863279
 30
0.0
 10
7.368873
 20
19.547155
 30
0.0
 10
7.083497
 20
19.389550
 30
0.0
  0
SPLINE
  5
27b
100
AcDbEntity
  8
Layer_2
 62
7
100
AcDbSpline
 70
8
 71
3
 72
8
 73
4
 74
0
 40
0
 40
0
 40
0
 40
0
 40
1
 40
1
 40
1
 40
1
 10
7.083497
 20
19.389550
 30
0.0
 10
6.798122
 20
19.231949
 30
0.0
 10
6.563966
 20
19.094312
 30
0.0
 10
6.563150
 20
19.083689
 30
0.0
  0
SPLINE
  5
27c
100
AcDbEntity
  8
Layer_2
 62
7
100
AcDbSpline
 70
8
 71
3
 72
8
 73
4
 74
0
 40
0
 40
0
 40
0
 40
0
 40
1
 40
1
 40
1
 40
1
 10
6.563150
 20
19.083689
 30
0.0
 10
6.561139
 20
19.057443
 30
0.0
 10
7.928215
 20
18.264796
 30
0.0
 10
8.431389
 20
18.000446
 30
0.0
  0
SPLINE
  5
27d
100
AcDbEntity
  8
Layer_2
 62
7
100
AcDbSpline
 70
8
 71
3
 72
8
 73
4
 74
0
 40
0
 40
0
 40
0
 40
0
 40
1
 40
1
 40
1
 40
1
 10
8.431389
 20
18.000446
 30
0.0
 10
9.701779
 20
17.333034
 30
0.0
 10
10.768699
 20
16.995479
 30
0.0
 10
11.624028
 20
16.990348
 30
0.0
  0
SPLINE
  5
27e
100
AcDbEntity
  8
Layer_2
 62
7
100
AcDbSpline
 70
8
 71
3
 72
8
 73
4
 74
0
 40
0
 40
0
 40
0
 40
0
 40
1
 40
1
 40
1
 40
1
 10
11.624028
 20
16.990348
 30
0.0
 10
12.189678
 20
16.986962
 30
0.0
 10
12.577139
 20
17.092734
 30
0.0
 10
12.976720
 20
17.359635
 30
0.0
  0
LWPOLYLINE
  5
27f
100
AcDbEntity
  8
Layer_2
 62
7
100
AcDbPolyline
 90
3
 70
0
 10
14.922008
 20
40.966922
 30
0.0
 10
14.699841
 20
40.946787
 30
0.0
 10
14.862028
 20
40.864361
 30
0.0
  0
SPLINE
  5
280
100
AcDbEntity
  8
Layer_2
 62
7
100
AcDbSpline
 70
8
 71
3
 72
8
 73
4
 74
0
 40
0
 40
0
 40
0
 40
0
 40
1
 40
1
 40
1
 40
1
 10
12.985703
 20
17.222533
 30
0.0
 10
12.925760
 20
17.103788
 30
0.0
 10
12.829050
 20
16.886640
 30
0.0
 10
12.770790
 20
16.739978
 30
0.0
  0
SPLINE
  5
281
100
AcDbEntity
  8
Layer_2
 62
7
100
AcDbSpline
 70
8
 71
3
 72
8
 73
4
 74
0
 40
0
 40
0
 40
0
 40
0
 40
1
 40
1
 40
1
 40
1
 10
12.770790
 20
16.739978
 30
0.0
 10
12.712531
 20
16.593317
 30
0.0
 10
12.608937
 20
16.362267
 30
0.0
 10
12.540580
 20
16.226531
 30
0.0
  0
LWPOLYLINE
  5
282
100
AcDbEntity
  8
Layer_2
 62
7
100
AcDbPolyline
 90
3
 70
0
 10
12.976720
 20
17.359635
 30
0.0
 10
13.094689
 20
17.438436
 30
0.0
 10
12.985703
 20
17.222533
 30
0.0
  0
SPLINE
  5
283
100
AcDbEntity
  8
Layer_2
 62
7
100
AcDbSpline
 70
8
 71
3
 72
8
 73
4
 74
0
 40
0
 40
0
 40
0
 40
0
 40
1
 40
1
 40
1
 40
1
 10
12.507887
 20
15.944913
 30
0.0
 10
12.709318
 20
15.868327
 30
0.0
 10
13.229924
 20
15.732120
 30
0.0
 10
13.546667
 20
15.673133
 30
0.0
  0
SPLINE
  5
284
100
AcDbEntity
  8
Layer_2
 62
7
100
AcDbSpline
 70
8
 71
3
 72
8
 73
4
 74
0
 40
0
 40
0
 40
0
 40
0
 40
1
 40
1
 40
1
 40
1
 10
13.546667
 20
15.673133
 30
0.0
 10
14.027521
 20
15.583588
 30
0.0
 10
15.392700
 20
15.585652
 30
0.0
 10
15.892640
 20
15.676679
 30
0.0
  0
SPLINE
  5
285
100
AcDbEntity
  8
Layer_2
 62
7
100
AcDbSpline
 70
8
 71
3
 72
8
 73
4
 74
0
 40
0
 40
0
 40
0
 40
0
 40
1
 40
1
 40
1
 40
1
 10
15.892640
 20
15.676679
 30
0.0
 10
17.009012
 20
15.879956
 30
0.0
 10
18.063077
 20
16.280765
 30
0.0
 10
18.867956
 20
16.808048
 30
0.0
  0
SPLINE
  5
286
100
AcDbEntity
  8
Layer_2
 62
7
100
AcDbSpline
 70
8
 71
3
 72
8
 73
4
 74
0
 40
0
 40
0
 40
0
 40
0
 40
1
 40
1
 40
1
 40
1
 10
18.867956
 20
16.808048
 30
0.0
 10
19.029768
 20
16.914053
 30
0.0
 10
19.154521
 20
16.980876
 30
0.0
 10
19.145184
 20
16.956545
 30
0.0
  0
SPLINE
  5
287
100
AcDbEntity
  8
Layer_2
 62
7
100
AcDbSpline
 70
8
 71
3
 72
8
 73
4
 74
0
 40
0
 40
0
 40
0
 40
0
 40
1
 40
1
 40
1
 40
1
 10
19.145184
 20
16.956545
 30
0.0
 10
19.135846
 20
16.932204
 30
0.0
 10
18.880423
 20
16.477782
 30
0.0
 10
18.577576
 20
15.946699
 30
0.0
  0
SPLINE
  5
288
100
AcDbEntity
  8
Layer_2
 62
7
100
AcDbSpline
 70
8
 71
3
 72
8
 73
4
 74
0
 40
0
 40
0
 40
0
 40
0
 40
1
 40
1
 40
1
 40
1
 10
18.577576
 20
15.946699
 30
0.0
 10
18.274729
 20
15.415612
 30
0.0
 10
18.026945
 20
14.960661
 30
0.0
 10
18.026945
 20
14.935689
 30
0.0
  0
SPLINE
  5
289
100
AcDbEntity
  8
Layer_2
 62
7
100
AcDbSpline
 70
8
 71
3
 72
8
 73
4
 74
0
 40
0
 40
0
 40
0
 40
0
 40
1
 40
1
 40
1
 40
1
 10
18.026945
 20
14.935689
 30
0.0
 10
18.026945
 20
14.890403
 30
0.0
 10
18.321816
 20
14.791298
 30
0.0
 10
18.697223
 20
14.710402
 30
0.0
  0
SPLINE
  5
28a
100
AcDbEntity
  8
Layer_2
 62
7
100
AcDbSpline
 70
8
 71
3
 72
8
 73
4
 74
0
 40
0
 40
0
 40
0
 40
0
 40
1
 40
1
 40
1
 40
1
 10
18.697223
 20
14.710402
 30
0.0
 10
18.995922
 20
14.646042
 30
0.0
 10
19.834397
 20
14.625817
 30
0.0
 10
20.250670
 20
14.672934
 30
0.0
  0
SPLINE
  5
28b
100
AcDbEntity
  8
Layer_2
 62
7
100
AcDbSpline
 70
8
 71
3
 72
8
 73
4
 74
0
 40
0
 40
0
 40
0
 40
0
 40
1
 40
1
 40
1
 40
1
 10
20.250670
 20
14.672934
 30
0.0
 10
22.342679
 20
14.909734
 30
0.0
 10
24.983376
 20
16.016764
 30
0.0
 10
28.089109
 20
17.958956
 30
0.0
  0
SPLINE
  5
28c
100
AcDbEntity
  8
Layer_2
 62
7
100
AcDbSpline
 70
8
 71
3
 72
8
 73
4
 74
0
 40
0
 40
0
 40
0
 40
0
 40
1
 40
1
 40
1
 40
1
 10
28.089109
 20
17.958956
 30
0.0
 10
28.452458
 20
18.186180
 30
0.0
 10
28.735713
 20
18.346047
 30
0.0
 10
28.718563
 20
18.314212
 30
0.0
  0
SPLINE
  5
28d
100
AcDbEntity
  8
Layer_2
 62
7
100
AcDbSpline
 70
8
 71
3
 72
8
 73
4
 74
0
 40
0
 40
0
 40
0
 40
0
 40
1
 40
1
 40
1
 40
1
 10
28.718563
 20
18.314212
 30
0.0
 10
28.649946
 20
18.186837
 30
0.0
 10
28.143195
 20
17.736997
 30
0.0
 10
27.693056
 20
17.403876
 30
0.0
  0
SPLINE
  5
28e
100
AcDbEntity
  8
Layer_2
 62
7
100
AcDbSpline
 70
8
 71
3
 72
8
 73
4
 74
0
 40
0
 40
0
 40
0
 40
0
 40
1
 40
1
 40
1
 40
1
 10
27.693056
 20
17.403876
 30
0.0
 10
27.131124
 20
16.988020
 30
0.0
 10
26.863175
 20
16.748771
 30
0.0
 10
26.652000
 20
16.474334
 30
0.0
  0
LWPOLYLINE
  5
28f
100
AcDbEntity
  8
Layer_2
 62
7
100
AcDbPolyline
 90
3
 70
0
 10
12.540580
 20
16.226531
 30
0.0
 10
12.416295
 20
15.979735
 30
0.0
 10
12.507887
 20
15.944913
 30
0.0
  0
SPLINE
  5
290
100
AcDbEntity
  8
Layer_2
 62
7
100
AcDbSpline
 70
8
 71
3
 72
8
 73
4
 74
0
 40
0
 40
0
 40
0
 40
0
 40
1
 40
1
 40
1
 40
1
 10
26.610133
 20
16.167526
 30
0.0
 10
26.859436
 20
15.933597
 30
0.0
 10
27.232218
 20
15.726090
 30
0.0
 10
27.659425
 20
15.583437
 30
0.0
  0
SPLINE
  5
291
100
AcDbEntity
  8
Layer_2
 62
7
100
AcDbSpline
 70
8
 71
3
 72
8
 73
4
 74
0
 40
0
 40
0
 40
0
 40
0
 40
1
 40
1
 40
1
 40
1
 10
27.659425
 20
15.583437
 30
0.0
 10
28.507119
 20
15.300378
 30
0.0
 10
29.788501
 20
15.295327
 30
0.0
 10
31.085663
 20
15.569917
 30
0.0
  0
LWPOLYLINE
  5
292
100
AcDbEntity
  8
Layer_2
 62
7
100
AcDbPolyline
 90
3
 70
0
 10
26.652000
 20
16.474334
 30
0.0
 10
26.497349
 20
16.273354
 30
0.0
 10
26.610133
 20
16.167526
 30
0.0
  0
SPLINE
  5
293
100
AcDbEntity
  8
Layer_2
 62
7
100
AcDbSpline
 70
8
 71
3
 72
8
 73
4
 74
0
 40
0
 40
0
 40
0
 40
0
 40
1
 40
1
 40
1
 40
1
 10
31.297330
 20
15.508396
 30
0.0
 10
30.973760
 20
15.230994
 30
0.0
 10
30.649564
 20
14.891597
 30
0.0
 10
30.672580
 20
14.854357
 30
0.0
  0
SPLINE
  5
294
100
AcDbEntity
  8
Layer_2
 62
7
100
AcDbSpline
 70
8
 71
3
 72
8
 73
4
 74
0
 40
0
 40
0
 40
0
 40
0
 40
1
 40
1
 40
1
 40
1
 10
30.672580
 20
14.854357
 30
0.0
 10
30.685465
 20
14.833534
 30
0.0
 10
30.731444
 20
14.825377
 30
0.0
 10
30.774778
 20
14.836259
 30
0.0
  0
SPLINE
  5
295
100
AcDbEntity
  8
Layer_2
 62
7
100
AcDbSpline
 70
8
 71
3
 72
8
 73
4
 74
0
 40
0
 40
0
 40
0
 40
0
 40
1
 40
1
 40
1
 40
1
 10
30.774778
 20
14.836259
 30
0.0
 10
30.839995
 20
14.852637
 30
0.0
 10
30.877081
 20
14.821892
 30
0.0
 10
30.990093
 20
14.657798
 30
0.0
  0
SPLINE
  5
296
100
AcDbEntity
  8
Layer_2
 62
7
100
AcDbSpline
 70
8
 71
3
 72
8
 73
4
 74
0
 40
0
 40
0
 40
0
 40
0
 40
1
 40
1
 40
1
 40
1
 10
30.990093
 20
14.657798
 30
0.0
 10
31.168414
 20
14.398887
 30
0.0
 10
31.520564
 20
14.078609
 30
0.0
 10
31.775834
 20
13.943177
 30
0.0
  0
SPLINE
  5
297
100
AcDbEntity
  8
Layer_2
 62
7
100
AcDbSpline
 70
8
 71
3
 72
8
 73
4
 74
0
 40
0
 40
0
 40
0
 40
0
 40
1
 40
1
 40
1
 40
1
 10
31.775834
 20
13.943177
 30
0.0
 10
32.164115
 20
13.737172
 30
0.0
 10
32.336073
 20
13.705104
 30
0.0
 10
33.030618
 20
13.709161
 30
0.0
  0
SPLINE
  5
298
100
AcDbEntity
  8
Layer_2
 62
7
100
AcDbSpline
 70
8
 71
3
 72
8
 73
4
 74
0
 40
0
 40
0
 40
0
 40
0
 40
1
 40
1
 40
1
 40
1
 10
33.030618
 20
13.709161
 30
0.0
 10
33.556334
 20
13.712230
 30
0.0
 10
33.655503
 20
13.704768
 30
0.0
 10
33.639588
 20
13.663292
 30
0.0
  0
SPLINE
  5
299
100
AcDbEntity
  8
Layer_2
 62
7
100
AcDbSpline
 70
8
 71
3
 72
8
 73
4
 74
0
 40
0
 40
0
 40
0
 40
0
 40
1
 40
1
 40
1
 40
1
 10
33.639588
 20
13.663292
 30
0.0
 10
33.602742
 20
13.567278
 30
0.0
 10
33.055110
 20
12.783764
 30
0.0
 10
32.765910
 20
12.413300
 30
0.0
  0
SPLINE
  5
29a
100
AcDbEntity
  8
Layer_2
 62
7
100
AcDbSpline
 70
8
 71
3
 72
8
 73
4
 74
0
 40
0
 40
0
 40
0
 40
0
 40
1
 40
1
 40
1
 40
1
 10
32.765910
 20
12.413300
 30
0.0
 10
32.386543
 20
11.927327
 30
0.0
 10
31.920082
 20
11.381811
 30
0.0
 10
31.567636
 20
11.011945
 30
0.0
  0
SPLINE
  5
29b
100
AcDbEntity
  8
Layer_2
 62
7
100
AcDbSpline
 70
8
 71
3
 72
8
 73
4
 74
0
 40
0
 40
0
 40
0
 40
0
 40
1
 40
1
 40
1
 40
1
 10
31.567636
 20
11.011945
 30
0.0
 10
31.413209
 20
10.849888
 30
0.0
 10
31.294239
 20
10.709907
 30
0.0
 10
31.303262
 20
10.700888
 30
0.0
  0
SPLINE
  5
29c
100
AcDbEntity
  8
Layer_2
 62
7
100
AcDbSpline
 70
8
 71
3
 72
8
 73
4
 74
0
 40
0
 40
0
 40
0
 40
0
 40
1
 40
1
 40
1
 40
1
 10
31.303262
 20
10.700888
 30
0.0
 10
31.312284
 20
10.691865
 30
0.0
 10
31.572179
 20
10.582886
 30
0.0
 10
31.880810
 20
10.458707
 30
0.0
  0
SPLINE
  5
29d
100
AcDbEntity
  8
Layer_2
 62
7
100
AcDbSpline
 70
8
 71
3
 72
8
 73
4
 74
0
 40
0
 40
0
 40
0
 40
0
 40
1
 40
1
 40
1
 40
1
 10
31.880810
 20
10.458707
 30
0.0
 10
32.929917
 20
10.036588
 30
0.0
 10
33.776026
 20
9.848398
 30
0.0
 10
34.433830
 20
9.890871
 30
0.0
  0
SPLINE
  5
29e
100
AcDbEntity
  8
Layer_2
 62
7
100
AcDbSpline
 70
8
 71
3
 72
8
 73
4
 74
0
 40
0
 40
0
 40
0
 40
0
 40
1
 40
1
 40
1
 40
1
 10
34.433830
 20
9.890871
 30
0.0
 10
35.133203
 20
9.936030
 30
0.0
 10
36.073694
 20
10.250927
 30
0.0
 10
37.240588
 20
10.830639
 30
0.0
  0
LWPOLYLINE
  5
29f
100
AcDbEntity
  8
Layer_2
 62
7
100
AcDbPolyline
 90
3
 70
0
 10
31.085663
 20
15.569917
 30
0.0
 10
31.462020
 20
15.649588
 30
0.0
 10
31.297330
 20
15.508396
 30
0.0
  0
SPLINE
  5
2a0
100
AcDbEntity
  8
Layer_2
 62
7
100
AcDbSpline
 70
8
 71
3
 72
8
 73
4
 74
0
 40
0
 40
0
 40
0
 40
0
 40
1
 40
1
 40
1
 40
1
 10
37.932442
 20
11.059946
 30
0.0
 10
37.902563
 20
10.982179
 30
0.0
 10
37.720159
 20
10.577235
 30
0.0
 10
37.527100
 20
10.160077
 30
0.0
  0
SPLINE
  5
2a1
100
AcDbEntity
  8
Layer_2
 62
7
100
AcDbSpline
 70
8
 71
3
 72
8
 73
4
 74
0
 40
0
 40
0
 40
0
 40
0
 40
1
 40
1
 40
1
 40
1
 10
37.527100
 20
10.160077
 30
0.0
 10
37.192368
 20
9.436777
 30
0.0
 10
36.945242
 20
8.798354
 30
0.0
 10
36.984715
 20
8.758883
 30
0.0
  0
SPLINE
  5
2a2
100
AcDbEntity
  8
Layer_2
 62
7
100
AcDbSpline
 70
8
 71
3
 72
8
 73
4
 74
0
 40
0
 40
0
 40
0
 40
0
 40
1
 40
1
 40
1
 40
1
 10
36.984715
 20
8.758883
 30
0.0
 10
37.038465
 20
8.705133
 30
0.0
 10
37.682887
 20
8.673190
 30
0.0
 10
37.994167
 20
8.708845
 30
0.0
  0
SPLINE
  5
2a3
100
AcDbEntity
  8
Layer_2
 62
7
100
AcDbSpline
 70
8
 71
3
 72
8
 73
4
 74
0
 40
0
 40
0
 40
0
 40
0
 40
1
 40
1
 40
1
 40
1
 10
37.994167
 20
8.708845
 30
0.0
 10
39.018385
 20
8.826164
 30
0.0
 10
39.728971
 20
9.193138
 30
0.0
 10
41.010417
 20
10.266556
 30
0.0
  0
SPLINE
  5
2a4
100
AcDbEntity
  8
Layer_2
 62
7
100
AcDbSpline
 70
8
 71
3
 72
8
 73
4
 74
0
 40
0
 40
0
 40
0
 40
0
 40
1
 40
1
 40
1
 40
1
 10
41.010417
 20
10.266556
 30
0.0
 10
41.301458
 20
10.510345
 30
0.0
 10
41.556152
 20
10.719972
 30
0.0
 10
41.576397
 20
10.732384
 30
0.0
  0
SPLINE
  5
2a5
100
AcDbEntity
  8
Layer_2
 62
7
100
AcDbSpline
 70
8
 71
3
 72
8
 73
4
 74
0
 40
0
 40
0
 40
0
 40
0
 40
1
 40
1
 40
1
 40
1
 10
41.576397
 20
10.732384
 30
0.0
 10
41.601797
 20
10.747968
 30
0.0
 10
41.603237
 20
10.665537
 30
0.0
 10
41.581028
 20
10.466337
 30
0.0
  0
SPLINE
  5
2a6
100
AcDbEntity
  8
Layer_2
 62
7
100
AcDbSpline
 70
8
 71
3
 72
8
 73
4
 74
0
 40
0
 40
0
 40
0
 40
0
 40
1
 40
1
 40
1
 40
1
 10
41.581028
 20
10.466337
 30
0.0
 10
41.528706
 20
9.997133
 30
0.0
 10
41.530823
 20
6.782514
 30
0.0
 10
41.584017
 20
5.882645
 30
0.0
  0
LWPOLYLINE
  5
2a7
100
AcDbEntity
  8
Layer_2
 62
7
100
AcDbPolyline
 90
3
 70
0
 10
37.240588
 20
10.830639
 30
0.0
 10
37.986766
 20
11.201342
 30
0.0
 10
37.932442
 20
11.059946
 30
0.0
  0
SPLINE
  5
2a8
100
AcDbEntity
  8
Layer_2
 62
7
100
AcDbSpline
 70
8
 71
3
 72
8
 73
4
 74
0
 40
0
 40
0
 40
0
 40
0
 40
1
 40
1
 40
1
 40
1
 10
41.775317
 20
5.609243
 30
0.0
 10
42.311389
 20
5.609243
 30
0.0
 10
43.073638
 20
6.063589
 30
0.0
 10
44.044277
 20
6.961677
 30
0.0
  0
SPLINE
  5
2a9
100
AcDbEntity
  8
Layer_2
 62
7
100
AcDbSpline
 70
8
 71
3
 72
8
 73
4
 74
0
 40
0
 40
0
 40
0
 40
0
 40
1
 40
1
 40
1
 40
1
 10
44.044277
 20
6.961677
 30
0.0
 10
44.238307
 20
7.141205
 30
0.0
 10
44.474942
 20
7.358817
 30
0.0
 10
44.570139
 20
7.445261
 30
0.0
  0
LWPOLYLINE
  5
2aa
100
AcDbEntity
  8
Layer_2
 62
7
100
AcDbPolyline
 90
3
 70
0
 10
41.584017
 20
5.882645
 30
0.0
 10
41.600184
 20
5.609243
 30
0.0
 10
41.775317
 20
5.609243
 30
0.0
  0
SPLINE
  5
2ab
100
AcDbEntity
  8
Layer_2
 62
7
100
AcDbSpline
 70
8
 71
3
 72
8
 73
4
 74
0
 40
0
 40
0
 40
0
 40
0
 40
1
 40
1
 40
1
 40
1
 10
44.718745
 20
7.390770
 30
0.0
 10
44.705278
 20
7.274354
 30
0.0
 10
44.631113
 20
6.990181
 30
0.0
 10
44.553920
 20
6.759273
 30
0.0
  0
SPLINE
  5
2ac
100
AcDbEntity
  8
Layer_2
 62
7
100
AcDbSpline
 70
8
 71
3
 72
8
 73
4
 74
0
 40
0
 40
0
 40
0
 40
0
 40
1
 40
1
 40
1
 40
1
 10
44.553920
 20
6.759273
 30
0.0
 10
44.476728
 20
6.528371
 30
0.0
 10
44.417795
 20
6.335866
 30
0.0
 10
44.422954
 20
6.331492
 30
0.0
  0
SPLINE
  5
2ad
100
AcDbEntity
  8
Layer_2
 62
7
100
AcDbSpline
 70
8
 71
3
 72
8
 73
4
 74
0
 40
0
 40
0
 40
0
 40
0
 40
1
 40
1
 40
1
 40
1
 10
44.422954
 20
6.331492
 30
0.0
 10
44.452170
 20
6.306727
 30
0.0
 10
45.162758
 20
6.479551
 30
0.0
 10
45.517141
 20
6.597613
 30
0.0
  0
SPLINE
  5
2ae
100
AcDbEntity
  8
Layer_2
 62
7
100
AcDbSpline
 70
8
 71
3
 72
8
 73
4
 74
0
 40
0
 40
0
 40
0
 40
0
 40
1
 40
1
 40
1
 40
1
 10
45.517141
 20
6.597613
 30
0.0
 10
46.179989
 20
6.818445
 30
0.0
 10
46.812877
 20
7.155736
 30
0.0
 10
47.475047
 20
7.641063
 30
0.0
  0
LWPOLYLINE
  5
2af
100
AcDbEntity
  8
Layer_2
 62
7
100
AcDbPolyline
 90
3
 70
0
 10
44.570139
 20
7.445261
 30
0.0
 10
44.743219
 20
7.602437
 30
0.0
 10
44.718745
 20
7.390770
 30
0.0
  0
LWPOLYLINE
  5
2b0
100
AcDbEntity
  8
Layer_2
 62
7
100
AcDbPolyline
 90
8
 70
0
 10
47.475047
 20
7.641063
 30
0.0
 10
47.554422
 20
7.699237
 30
0.0
 10
47.554422
 20
3.849658
 30
0.0
 10
47.554422
 20
0.000077
 30
0.0
 10
23.777205
 20
0.000077
 30
0.0
 10
-0.000018
 20
0.000077
 30
0.0
 10
-0.000018
 20
70.555554
 30
0.0
 10
0.000000
 20
70.555554
 30
0.0
  0
ENDSEC
  0
SECTION
  2
OBJECTS
  0
DICTIONARY
  5
C
330
0
100
AcDbDictionary
  3
ACAD_GROUP
350
D
  3
ACAD_MLINESTYLE
350
17
  0
DICTIONARY
  5
D
330
C
100
AcDbDictionary
  0
DICTIONARY
  5
1A
330
C
100
AcDbDictionary
  0
DICTIONARY
  5
17
330
C
100
AcDbDictionary
  3
STANDARD
350
18
  0
DICTIONARY
  5
19
330
C
100
AcDbDictionary
  0
ENDSEC
  0
EOF
