  0
SECTION
  2
HEADER
  9
$ACADVER
  1
AC1014
  9
$HANDSEED
  5
FFFF
  9
$MEASUREMENT
 70
     1
  0
ENDSEC
  0
SECTION
  2
TABLES
  0
TABLE
  2
VPORT
  5
8
330
0
100
AcDbSymbolTable
 70
     4
  0
VPORT
  5
2E
330
8
100
AcDbSymbolTableRecord
100
AcDbViewportTableRecord
  2
*ACTIVE
 70
     0
 10
0.0
 20
0.0
 11
1.0
 21
1.0
 12
210.0
 22
148.5
 13
0.0
 23
0.0
 14
10.0
 24
10.0
 15
10.0
 25
10.0
 16
0.0
 26
0.0
 36
1.0
 17
0.0
 27
0.0
 37
0.0
 40
341.0
 41
1.24
 42
50.0
 43
0.0
 44
0.0
 50
0.0
 51
0.0
 71
     0
 72
   100
 73
     1
 74
     3
 75
     0
 76
     0
 77
     0
 78
     0
  0
ENDTAB
  0
TABLE
  2
LTYPE
  5
5
330
0
100
AcDbSymbolTable
 70
     1
  0
LTYPE
  5
14
330
5
100
AcDbSymbolTableRecord
100
AcDbLinetypeTableRecord
  2
BYBLOCK
 70
     0
  3

 72
    65
 73
     0
 40
0.0
  0
LTYPE
  5
15
330
5
100
AcDbSymbolTableRecord
100
AcDbLinetypeTableRecord
  2
BYLAYER
 70
     0
  3

 72
    65
 73
     0
 40
0.0
  0
LTYPE
  5
16
330
5
100
AcDbSymbolTableRecord
100
AcDbLinetypeTableRecord
  2
CONTINUOUS
 70
     0
  3
Solid line
 72
    65
 73
     0
 40
0.0
  0
ENDTAB
  0
TABLE
  2
LAYER
  5
2
100
AcDbSymbolTable
 70
3
  0
LAYER
  5
50
100
AcDbSymbolTableRecord
100
AcDbLayerTableRecord
  2
0
 70
0
  6
CONTINUOUS
  0
LAYER
  5
51
100
AcDbSymbolTableRecord
100
AcDbLayerTableRecord
  2
Layer_1
 70
0
  6
CONTINUOUS
  0
LAYER
  5
52
100
AcDbSymbolTableRecord
100
AcDbLayerTableRecord
  2
Layer_2
 70
0
  6
CONTINUOUS
  0
ENDTAB
  0
TABLE
  2
STYLE
  5
3
330
0
100
AcDbSymbolTable
 70
     1
  0
STYLE
  5
11
330
3
100
AcDbSymbolTableRecord
100
AcDbTextStyleTableRecord
  2
STANDARD
 70
     0
 40
0.0
 41
1.0
 50
0.0
 71
     0
 42
2.5
  3
txt
  4

  0
ENDTAB
  0
TABLE
  2
VIEW
  5
6
330
0
100
AcDbSymbolTable
 70
     0
  0
ENDTAB
  0
TABLE
  2
UCS
  5
7
330
0
100
AcDbSymbolTable
 70
     0
  0
ENDTAB
  0
TABLE
  2
APPID
  5
9
330
0
100
AcDbSymbolTable
 70
     2
  0
APPID
  5
12
330
9
100
AcDbSymbolTableRecord
100
AcDbRegAppTableRecord
  2
ACAD
 70
     0
  0
ENDTAB
  0
TABLE
  2
DIMSTYLE
  5
A
330
0
100
AcDbSymbolTable
 70
     1
  0
DIMSTYLE
105
27
330
A
100
AcDbSymbolTableRecord
100
AcDbDimStyleTableRecord
  2
ISO-25
 70
     0
  3

  4

  5

  6

  7

 40
1.0
 41
2.5
 42
0.625
 43
3.75
 44
1.25
 45
0.0
 46
0.0
 47
0.0
 48
0.0
140
2.5
141
2.5
142
0.0
143
0.03937007874016
144
1.0
145
0.0
146
1.0
147
0.625
 71
     0
 72
     0
 73
     0
 74
     0
 75
     0
 76
     0
 77
     1
 78
     8
170
     0
171
     3
172
     1
173
     0
174
     0
175
     0
176
     0
177
     0
178
     0
270
     2
271
     2
272
     2
273
     2
274
     3
340
11
275
     0
280
     0
281
     0
282
     0
283
     0
284
     8
285
     0
286
     0
287
     3
288
     0
  0
ENDTAB
  0
TABLE
  2
BLOCK_RECORD
  5
1
330
0
100
AcDbSymbolTable
 70
     1
  0
BLOCK_RECORD
  5
1F
330
1
100
AcDbSymbolTableRecord
100
AcDbBlockTableRecord
  2
*MODEL_SPACE
  0
BLOCK_RECORD
  5
1B
330
1
100
AcDbSymbolTableRecord
100
AcDbBlockTableRecord
  2
*PAPER_SPACE
  0
ENDTAB
  0
ENDSEC
  0
SECTION
  2
BLOCKS
  0
BLOCK
  5
20
330
1F
100
AcDbEntity
  8
0
100
AcDbBlockBegin
  2
*MODEL_SPACE
 70
     0
 10
0.0
 20
0.0
 30
0.0
  3
*MODEL_SPACE
  1

  0
ENDBLK
  5
21
330
1F
100
AcDbEntity
  8
0
100
AcDbBlockEnd
  0
BLOCK
  5
1C
330
1B
100
AcDbEntity
 67
     1
  8
0
100
AcDbBlockBegin
  2
*PAPER_SPACE
  1

  0
ENDBLK
  5
1D
330
1B
100
AcDbEntity
 67
     1
  8
0
100
AcDbBlockEnd
  0
ENDSEC
  0
SECTION
  2
ENTITIES
  0
SPLINE
  5
100
100
AcDbEntity
  8
Layer_2
 62
7
100
AcDbSpline
 70
8
 71
3
 72
8
 73
4
 74
0
 40
0
 40
0
 40
0
 40
0
 40
1
 40
1
 40
1
 40
1
 10
38.673032
 20
7.441150
 30
0.0
 10
38.902119
 20
7.375448
 30
0.0
 10
39.587421
 20
7.403065
 30
0.0
 10
40.047238
 20
7.496527
 30
0.0
  0
SPLINE
  5
101
100
AcDbEntity
  8
Layer_2
 62
7
100
AcDbSpline
 70
8
 71
3
 72
8
 73
4
 74
0
 40
0
 40
0
 40
0
 40
0
 40
1
 40
1
 40
1
 40
1
 10
40.047238
 20
7.496527
 30
0.0
 10
40.285882
 20
7.545036
 30
0.0
 10
40.524927
 20
7.584723
 30
0.0
 10
40.578447
 20
7.584723
 30
0.0
  0
SPLINE
  5
102
100
AcDbEntity
  8
Layer_2
 62
7
100
AcDbSpline
 70
8
 71
3
 72
8
 73
4
 74
0
 40
0
 40
0
 40
0
 40
0
 40
1
 40
1
 40
1
 40
1
 10
40.578447
 20
7.584723
 30
0.0
 10
40.673864
 20
7.584723
 30
0.0
 10
40.671567
 20
7.589697
 30
0.0
 10
40.460806
 20
7.840485
 30
0.0
  0
SPLINE
  5
103
100
AcDbEntity
  8
Layer_2
 62
7
100
AcDbSpline
 70
8
 71
3
 72
8
 73
4
 74
0
 40
0
 40
0
 40
0
 40
0
 40
1
 40
1
 40
1
 40
1
 10
40.460806
 20
7.840485
 30
0.0
 10
40.187835
 20
8.165282
 30
0.0
 10
40.010300
 20
8.482375
 30
0.0
 10
39.912637
 20
8.819565
 30
0.0
  0
SPLINE
  5
104
100
AcDbEntity
  8
Layer_2
 62
7
100
AcDbSpline
 70
8
 71
3
 72
8
 73
4
 74
0
 40
0
 40
0
 40
0
 40
0
 40
1
 40
1
 40
1
 40
1
 10
39.912637
 20
8.819565
 30
0.0
 10
39.836246
 20
9.083305
 30
0.0
 10
39.789970
 20
9.568675
 30
0.0
 10
39.836757
 20
9.615458
 30
0.0
  0
SPLINE
  5
105
100
AcDbEntity
  8
Layer_2
 62
7
100
AcDbSpline
 70
8
 71
3
 72
8
 73
4
 74
0
 40
0
 40
0
 40
0
 40
0
 40
1
 40
1
 40
1
 40
1
 10
39.836757
 20
9.615458
 30
0.0
 10
39.850198
 20
9.628899
 30
0.0
 10
39.937193
 20
9.604002
 30
0.0
 10
40.030101
 20
9.560179
 30
0.0
  0
SPLINE
  5
106
100
AcDbEntity
  8
Layer_2
 62
7
100
AcDbSpline
 70
8
 71
3
 72
8
 73
4
 74
0
 40
0
 40
0
 40
0
 40
0
 40
1
 40
1
 40
1
 40
1
 10
40.030101
 20
9.560179
 30
0.0
 10
40.436652
 20
9.368364
 30
0.0
 10
40.772337
 20
9.257027
 30
0.0
 10
41.151527
 20
9.188238
 30
0.0
  0
SPLINE
  5
107
100
AcDbEntity
  8
Layer_2
 62
7
100
AcDbSpline
 70
8
 71
3
 72
8
 73
4
 74
0
 40
0
 40
0
 40
0
 40
0
 40
1
 40
1
 40
1
 40
1
 10
41.151527
 20
9.188238
 30
0.0
 10
41.595019
 20
9.107784
 30
0.0
 10
41.959003
 20
9.130422
 30
0.0
 10
42.375225
 20
9.264335
 30
0.0
  0
SPLINE
  5
108
100
AcDbEntity
  8
Layer_2
 62
7
100
AcDbSpline
 70
8
 71
3
 72
8
 73
4
 74
0
 40
0
 40
0
 40
0
 40
0
 40
1
 40
1
 40
1
 40
1
 10
42.375225
 20
9.264335
 30
0.0
 10
42.649952
 20
9.352725
 30
0.0
 10
42.883616
 20
9.659607
 30
0.0
 10
42.921822
 20
9.982192
 30
0.0
  0
LWPOLYLINE
  5
109
100
AcDbEntity
  8
Layer_2
 62
7
100
AcDbPolyline
 90
11
 70
0
 10
0.000000
 20
50.006250
 30
0.0
 10
0.000000
 20
100.012500
 30
0.0
 10
35.983333
 20
100.012500
 30
0.0
 10
71.966667
 20
100.012500
 30
0.0
 10
71.966667
 20
50.006250
 30
0.0
 10
71.966667
 20
0.000000
 30
0.0
 10
55.262640
 20
0.000000
 30
0.0
 10
38.558610
 20
0.000000
 30
0.0
 10
38.558610
 20
3.736983
 30
0.0
 10
38.558610
 20
7.473963
 30
0.0
 10
38.673032
 20
7.441150
 30
0.0
  0
SPLINE
  5
10a
100
AcDbEntity
  8
Layer_2
 62
7
100
AcDbSpline
 70
8
 71
3
 72
8
 73
4
 74
0
 40
0
 40
0
 40
0
 40
0
 40
1
 40
1
 40
1
 40
1
 10
43.362470
 20
9.718471
 30
0.0
 10
44.114440
 20
8.940527
 30
0.0
 10
44.858247
 20
8.458549
 30
0.0
 10
45.705789
 20
8.200033
 30
0.0
  0
SPLINE
  5
10b
100
AcDbEntity
  8
Layer_2
 62
7
100
AcDbSpline
 70
8
 71
3
 72
8
 73
4
 74
0
 40
0
 40
0
 40
0
 40
0
 40
1
 40
1
 40
1
 40
1
 10
45.705789
 20
8.200033
 30
0.0
 10
46.203849
 20
8.048117
 30
0.0
 10
47.023319
 20
7.954558
 30
0.0
 10
47.078194
 20
8.043344
 30
0.0
  0
SPLINE
  5
10c
100
AcDbEntity
  8
Layer_2
 62
7
100
AcDbSpline
 70
8
 71
3
 72
8
 73
4
 74
0
 40
0
 40
0
 40
0
 40
0
 40
1
 40
1
 40
1
 40
1
 10
47.078194
 20
8.043344
 30
0.0
 10
47.090206
 20
8.062764
 30
0.0
 10
47.038255
 20
8.154035
 30
0.0
 10
46.962785
 20
8.246192
 30
0.0
  0
SPLINE
  5
10d
100
AcDbEntity
  8
Layer_2
 62
7
100
AcDbSpline
 70
8
 71
3
 72
8
 73
4
 74
0
 40
0
 40
0
 40
0
 40
0
 40
1
 40
1
 40
1
 40
1
 10
46.962785
 20
8.246192
 30
0.0
 10
46.768134
 20
8.483883
 30
0.0
 10
46.623478
 20
8.725776
 30
0.0
 10
46.493401
 20
9.031110
 30
0.0
  0
SPLINE
  5
10e
100
AcDbEntity
  8
Layer_2
 62
7
100
AcDbSpline
 70
8
 71
3
 72
8
 73
4
 74
0
 40
0
 40
0
 40
0
 40
0
 40
1
 40
1
 40
1
 40
1
 10
46.493401
 20
9.031110
 30
0.0
 10
46.381175
 20
9.294540
 30
0.0
 10
46.314246
 20
9.489723
 30
0.0
 10
46.336141
 20
9.489723
 30
0.0
  0
SPLINE
  5
10f
100
AcDbEntity
  8
Layer_2
 62
7
100
AcDbSpline
 70
8
 71
3
 72
8
 73
4
 74
0
 40
0
 40
0
 40
0
 40
0
 40
1
 40
1
 40
1
 40
1
 10
46.336141
 20
9.489723
 30
0.0
 10
46.342464
 20
9.489723
 30
0.0
 10
46.400884
 20
9.406393
 30
0.0
 10
46.465969
 20
9.304547
 30
0.0
  0
SPLINE
  5
110
100
AcDbEntity
  8
Layer_2
 62
7
100
AcDbSpline
 70
8
 71
3
 72
8
 73
4
 74
0
 40
0
 40
0
 40
0
 40
0
 40
1
 40
1
 40
1
 40
1
 10
46.465969
 20
9.304547
 30
0.0
 10
46.778788
 20
8.815006
 30
0.0
 10
47.218690
 20
8.315338
 30
0.0
 10
47.589715
 20
8.028125
 30
0.0
  0
SPLINE
  5
111
100
AcDbEntity
  8
Layer_2
 62
7
100
AcDbSpline
 70
8
 71
3
 72
8
 73
4
 74
0
 40
0
 40
0
 40
0
 40
0
 40
1
 40
1
 40
1
 40
1
 10
47.589715
 20
8.028125
 30
0.0
 10
47.840625
 20
7.833892
 30
0.0
 10
48.665104
 20
7.322926
 30
0.0
 10
48.867801
 20
7.236039
 30
0.0
  0
SPLINE
  5
112
100
AcDbEntity
  8
Layer_2
 62
7
100
AcDbSpline
 70
8
 71
3
 72
8
 73
4
 74
0
 40
0
 40
0
 40
0
 40
0
 40
1
 40
1
 40
1
 40
1
 10
48.867801
 20
7.236039
 30
0.0
 10
49.036163
 20
7.163869
 30
0.0
 10
49.288629
 20
7.107277
 30
0.0
 10
49.600549
 20
7.071783
 30
0.0
  0
SPLINE
  5
113
100
AcDbEntity
  8
Layer_2
 62
7
100
AcDbSpline
 70
8
 71
3
 72
8
 73
4
 74
0
 40
0
 40
0
 40
0
 40
0
 40
1
 40
1
 40
1
 40
1
 10
49.600549
 20
7.071783
 30
0.0
 10
49.951846
 20
7.031807
 30
0.0
 10
50.620618
 20
7.164692
 30
0.0
 10
50.861082
 20
7.322251
 30
0.0
  0
LWPOLYLINE
  5
114
100
AcDbEntity
  8
Layer_2
 62
7
100
AcDbPolyline
 90
3
 70
0
 10
42.921822
 20
9.982192
 30
0.0
 10
42.942089
 20
10.153372
 30
0.0
 10
43.362470
 20
9.718471
 30
0.0
  0
SPLINE
  5
115
100
AcDbEntity
  8
Layer_2
 62
7
100
AcDbSpline
 70
8
 71
3
 72
8
 73
4
 74
0
 40
0
 40
0
 40
0
 40
0
 40
1
 40
1
 40
1
 40
1
 10
50.869284
 20
7.480660
 30
0.0
 10
50.828419
 20
7.538053
 30
0.0
 10
50.741318
 20
7.641910
 30
0.0
 10
50.675731
 20
7.711453
 30
0.0
  0
SPLINE
  5
116
100
AcDbEntity
  8
Layer_2
 62
7
100
AcDbSpline
 70
8
 71
3
 72
8
 73
4
 74
0
 40
0
 40
0
 40
0
 40
0
 40
1
 40
1
 40
1
 40
1
 10
50.675731
 20
7.711453
 30
0.0
 10
50.610140
 20
7.781002
 30
0.0
 10
50.583489
 20
7.827317
 30
0.0
 10
50.616498
 20
7.814381
 30
0.0
  0
SPLINE
  5
117
100
AcDbEntity
  8
Layer_2
 62
7
100
AcDbSpline
 70
8
 71
3
 72
8
 73
4
 74
0
 40
0
 40
0
 40
0
 40
0
 40
1
 40
1
 40
1
 40
1
 10
50.616498
 20
7.814381
 30
0.0
 10
51.389791
 20
7.511359
 30
0.0
 10
52.408714
 20
7.299566
 30
0.0
 10
53.110686
 20
7.295930
 30
0.0
  0
SPLINE
  5
118
100
AcDbEntity
  8
Layer_2
 62
7
100
AcDbSpline
 70
8
 71
3
 72
8
 73
4
 74
0
 40
0
 40
0
 40
0
 40
0
 40
1
 40
1
 40
1
 40
1
 10
53.110686
 20
7.295930
 30
0.0
 10
53.679397
 20
7.292994
 30
0.0
 10
53.951172
 20
7.345712
 30
0.0
 10
54.355746
 20
7.537453
 30
0.0
  0
SPLINE
  5
119
100
AcDbEntity
  8
Layer_2
 62
7
100
AcDbSpline
 70
8
 71
3
 72
8
 73
4
 74
0
 40
0
 40
0
 40
0
 40
0
 40
1
 40
1
 40
1
 40
1
 10
54.355746
 20
7.537453
 30
0.0
 10
54.622795
 20
7.664019
 30
0.0
 10
55.030119
 20
8.010856
 30
0.0
 10
55.146898
 20
8.211124
 30
0.0
  0
LWPOLYLINE
  5
11a
100
AcDbEntity
  8
Layer_2
 62
7
100
AcDbPolyline
 90
3
 70
0
 10
50.861082
 20
7.322251
 30
0.0
 10
50.943589
 20
7.376311
 30
0.0
 10
50.869284
 20
7.480660
 30
0.0
  0
SPLINE
  5
11b
100
AcDbEntity
  8
Layer_2
 62
7
100
AcDbSpline
 70
8
 71
3
 72
8
 73
4
 74
0
 40
0
 40
0
 40
0
 40
0
 40
1
 40
1
 40
1
 40
1
 10
55.057469
 20
8.422928
 30
0.0
 10
54.912297
 20
8.527182
 30
0.0
 10
53.790898
 20
9.636495
 30
0.0
 10
53.771266
 20
9.695265
 30
0.0
  0
SPLINE
  5
11c
100
AcDbEntity
  8
Layer_2
 62
7
100
AcDbSpline
 70
8
 71
3
 72
8
 73
4
 74
0
 40
0
 40
0
 40
0
 40
0
 40
1
 40
1
 40
1
 40
1
 10
53.771266
 20
9.695265
 30
0.0
 10
53.765921
 20
9.711245
 30
0.0
 10
53.916744
 20
9.727853
 30
0.0
 10
54.106405
 20
9.732198
 30
0.0
  0
SPLINE
  5
11d
100
AcDbEntity
  8
Layer_2
 62
7
100
AcDbSpline
 70
8
 71
3
 72
8
 73
4
 74
0
 40
0
 40
0
 40
0
 40
0
 40
1
 40
1
 40
1
 40
1
 10
54.106405
 20
9.732198
 30
0.0
 10
54.651902
 20
9.744686
 30
0.0
 10
55.377739
 20
9.885720
 30
0.0
 10
55.815190
 20
10.064218
 30
0.0
  0
LWPOLYLINE
  5
11e
100
AcDbEntity
  8
Layer_2
 62
7
100
AcDbPolyline
 90
3
 70
0
 10
55.146898
 20
8.211124
 30
0.0
 10
55.207556
 20
8.315145
 30
0.0
 10
55.057469
 20
8.422928
 30
0.0
  0
SPLINE
  5
11f
100
AcDbEntity
  8
Layer_2
 62
7
100
AcDbSpline
 70
8
 71
3
 72
8
 73
4
 74
0
 40
0
 40
0
 40
0
 40
0
 40
1
 40
1
 40
1
 40
1
 10
55.524601
 20
10.307651
 30
0.0
 10
55.029005
 20
10.550522
 30
0.0
 10
54.529043
 20
10.900296
 30
0.0
 10
54.211109
 20
11.226580
 30
0.0
  0
SPLINE
  5
120
100
AcDbEntity
  8
Layer_2
 62
7
100
AcDbSpline
 70
8
 71
3
 72
8
 73
4
 74
0
 40
0
 40
0
 40
0
 40
0
 40
1
 40
1
 40
1
 40
1
 10
54.211109
 20
11.226580
 30
0.0
 10
54.079037
 20
11.362121
 30
0.0
 10
53.978175
 20
11.480218
 30
0.0
 10
53.986972
 20
11.489015
 30
0.0
  0
SPLINE
  5
121
100
AcDbEntity
  8
Layer_2
 62
7
100
AcDbSpline
 70
8
 71
3
 72
8
 73
4
 74
0
 40
0
 40
0
 40
0
 40
0
 40
1
 40
1
 40
1
 40
1
 10
53.986972
 20
11.489015
 30
0.0
 10
53.995783
 20
11.497826
 30
0.0
 10
54.133012
 20
11.439631
 30
0.0
 10
54.291952
 20
11.359716
 30
0.0
  0
SPLINE
  5
122
100
AcDbEntity
  8
Layer_2
 62
7
100
AcDbSpline
 70
8
 71
3
 72
8
 73
4
 74
0
 40
0
 40
0
 40
0
 40
0
 40
1
 40
1
 40
1
 40
1
 10
54.291952
 20
11.359716
 30
0.0
 10
54.772856
 20
11.117921
 30
0.0
 10
55.460670
 20
10.848036
 30
0.0
 10
55.879992
 20
10.736593
 30
0.0
  0
SPLINE
  5
123
100
AcDbEntity
  8
Layer_2
 62
7
100
AcDbSpline
 70
8
 71
3
 72
8
 73
4
 74
0
 40
0
 40
0
 40
0
 40
0
 40
1
 40
1
 40
1
 40
1
 10
55.879992
 20
10.736593
 30
0.0
 10
56.489801
 20
10.574531
 30
0.0
 10
57.172704
 20
10.535685
 30
0.0
 10
57.608068
 20
10.638295
 30
0.0
  0
SPLINE
  5
124
100
AcDbEntity
  8
Layer_2
 62
7
100
AcDbSpline
 70
8
 71
3
 72
8
 73
4
 74
0
 40
0
 40
0
 40
0
 40
0
 40
1
 40
1
 40
1
 40
1
 10
57.608068
 20
10.638295
 30
0.0
 10
57.897302
 20
10.706462
 30
0.0
 10
58.290259
 20
10.894613
 30
0.0
 10
58.471872
 20
11.051889
 30
0.0
  0
LWPOLYLINE
  5
125
100
AcDbEntity
  8
Layer_2
 62
7
100
AcDbPolyline
 90
3
 70
0
 10
55.815190
 20
10.064218
 30
0.0
 10
55.927681
 20
10.110118
 30
0.0
 10
55.524601
 20
10.307651
 30
0.0
  0
SPLINE
  5
126
100
AcDbEntity
  8
Layer_2
 62
7
100
AcDbSpline
 70
8
 71
3
 72
8
 73
4
 74
0
 40
0
 40
0
 40
0
 40
0
 40
1
 40
1
 40
1
 40
1
 10
58.498330
 20
11.231946
 30
0.0
 10
58.396042
 20
11.284842
 30
0.0
 10
58.384715
 20
11.306440
 30
0.0
 10
58.384715
 20
11.448545
 30
0.0
  0
SPLINE
  5
127
100
AcDbEntity
  8
Layer_2
 62
7
100
AcDbSpline
 70
8
 71
3
 72
8
 73
4
 74
0
 40
0
 40
0
 40
0
 40
0
 40
1
 40
1
 40
1
 40
1
 10
58.384715
 20
11.448545
 30
0.0
 10
58.384715
 20
11.535360
 30
0.0
 10
58.392944
 20
11.606390
 30
0.0
 10
58.402998
 20
11.606390
 30
0.0
  0
SPLINE
  5
128
100
AcDbEntity
  8
Layer_2
 62
7
100
AcDbSpline
 70
8
 71
3
 72
8
 73
4
 74
0
 40
0
 40
0
 40
0
 40
0
 40
1
 40
1
 40
1
 40
1
 10
58.402998
 20
11.606390
 30
0.0
 10
58.413052
 20
11.606390
 30
0.0
 10
58.639281
 20
11.509658
 30
0.0
 10
58.905706
 20
11.391434
 30
0.0
  0
SPLINE
  5
129
100
AcDbEntity
  8
Layer_2
 62
7
100
AcDbSpline
 70
8
 71
3
 72
8
 73
4
 74
0
 40
0
 40
0
 40
0
 40
0
 40
1
 40
1
 40
1
 40
1
 10
58.905706
 20
11.391434
 30
0.0
 10
59.967148
 20
10.920423
 30
0.0
 10
60.691654
 20
10.774214
 30
0.0
 10
61.319844
 20
10.904254
 30
0.0
  0
SPLINE
  5
12a
100
AcDbEntity
  8
Layer_2
 62
7
100
AcDbSpline
 70
8
 71
3
 72
8
 73
4
 74
0
 40
0
 40
0
 40
0
 40
0
 40
1
 40
1
 40
1
 40
1
 10
61.319844
 20
10.904254
 30
0.0
 10
61.573698
 20
10.956806
 30
0.0
 10
61.958741
 20
11.146525
 30
0.0
 10
62.200031
 20
11.337949
 30
0.0
  0
SPLINE
  5
12b
100
AcDbEntity
  8
Layer_2
 62
7
100
AcDbSpline
 70
8
 71
3
 72
8
 73
4
 74
0
 40
0
 40
0
 40
0
 40
0
 40
1
 40
1
 40
1
 40
1
 10
62.200031
 20
11.337949
 30
0.0
 10
62.417399
 20
11.510394
 30
0.0
 10
62.621128
 20
11.752350
 30
0.0
 10
62.564777
 20
11.771133
 30
0.0
  0
SPLINE
  5
12c
100
AcDbEntity
  8
Layer_2
 62
7
100
AcDbSpline
 70
8
 71
3
 72
8
 73
4
 74
0
 40
0
 40
0
 40
0
 40
0
 40
1
 40
1
 40
1
 40
1
 10
62.564777
 20
11.771133
 30
0.0
 10
62.545330
 20
11.777615
 30
0.0
 10
62.394560
 20
11.879853
 30
0.0
 10
62.229759
 20
11.998314
 30
0.0
  0
SPLINE
  5
12d
100
AcDbEntity
  8
Layer_2
 62
7
100
AcDbSpline
 70
8
 71
3
 72
8
 73
4
 74
0
 40
0
 40
0
 40
0
 40
0
 40
1
 40
1
 40
1
 40
1
 10
62.229759
 20
11.998314
 30
0.0
 10
61.934241
 20
12.210740
 30
0.0
 10
61.932061
 20
12.213402
 30
0.0
 10
62.071231
 20
12.191892
 30
0.0
  0
SPLINE
  5
12e
100
AcDbEntity
  8
Layer_2
 62
7
100
AcDbSpline
 70
8
 71
3
 72
8
 73
4
 74
0
 40
0
 40
0
 40
0
 40
0
 40
1
 40
1
 40
1
 40
1
 10
62.071231
 20
12.191892
 30
0.0
 10
62.148842
 20
12.179906
 30
0.0
 10
62.561592
 20
12.160642
 30
0.0
 10
62.988455
 20
12.149103
 30
0.0
  0
SPLINE
  5
12f
100
AcDbEntity
  8
Layer_2
 62
7
100
AcDbSpline
 70
8
 71
3
 72
8
 73
4
 74
0
 40
0
 40
0
 40
0
 40
0
 40
1
 40
1
 40
1
 40
1
 10
62.988455
 20
12.149103
 30
0.0
 10
63.825115
 20
12.126481
 30
0.0
 10
64.120194
 20
12.157649
 30
0.0
 10
64.533473
 20
12.312280
 30
0.0
  0
SPLINE
  5
130
100
AcDbEntity
  8
Layer_2
 62
7
100
AcDbSpline
 70
8
 71
3
 72
8
 73
4
 74
0
 40
0
 40
0
 40
0
 40
0
 40
1
 40
1
 40
1
 40
1
 10
64.533473
 20
12.312280
 30
0.0
 10
64.722571
 20
12.383029
 30
0.0
 10
65.133728
 20
12.632121
 30
0.0
 10
65.177009
 20
12.702159
 30
0.0
  0
SPLINE
  5
131
100
AcDbEntity
  8
Layer_2
 62
7
100
AcDbSpline
 70
8
 71
3
 72
8
 73
4
 74
0
 40
0
 40
0
 40
0
 40
0
 40
1
 40
1
 40
1
 40
1
 10
65.177009
 20
12.702159
 30
0.0
 10
65.187962
 20
12.719886
 30
0.0
 10
65.043182
 20
12.809725
 30
0.0
 10
64.855270
 20
12.901795
 30
0.0
  0
SPLINE
  5
132
100
AcDbEntity
  8
Layer_2
 62
7
100
AcDbSpline
 70
8
 71
3
 72
8
 73
4
 74
0
 40
0
 40
0
 40
0
 40
0
 40
1
 40
1
 40
1
 40
1
 10
64.855270
 20
12.901795
 30
0.0
 10
64.667352
 20
12.993870
 30
0.0
 10
64.448259
 20
13.130257
 30
0.0
 10
64.368389
 20
13.204886
 30
0.0
  0
SPLINE
  5
133
100
AcDbEntity
  8
Layer_2
 62
7
100
AcDbSpline
 70
8
 71
3
 72
8
 73
4
 74
0
 40
0
 40
0
 40
0
 40
0
 40
1
 40
1
 40
1
 40
1
 10
64.368389
 20
13.204886
 30
0.0
 10
64.288522
 20
13.279512
 30
0.0
 10
64.249398
 20
13.332473
 30
0.0
 10
64.281447
 20
13.322583
 30
0.0
  0
SPLINE
  5
134
100
AcDbEntity
  8
Layer_2
 62
7
100
AcDbSpline
 70
8
 71
3
 72
8
 73
4
 74
0
 40
0
 40
0
 40
0
 40
0
 40
1
 40
1
 40
1
 40
1
 10
64.281447
 20
13.322583
 30
0.0
 10
64.692705
 20
13.195647
 30
0.0
 10
65.732239
 20
13.207669
 30
0.0
 10
66.322205
 20
13.346184
 30
0.0
  0
SPLINE
  5
135
100
AcDbEntity
  8
Layer_2
 62
7
100
AcDbSpline
 70
8
 71
3
 72
8
 73
4
 74
0
 40
0
 40
0
 40
0
 40
0
 40
1
 40
1
 40
1
 40
1
 10
66.322205
 20
13.346184
 30
0.0
 10
67.259279
 20
13.566196
 30
0.0
 10
67.981946
 20
13.997048
 30
0.0
 10
68.339234
 20
14.548731
 30
0.0
  0
SPLINE
  5
136
100
AcDbEntity
  8
Layer_2
 62
7
100
AcDbSpline
 70
8
 71
3
 72
8
 73
4
 74
0
 40
0
 40
0
 40
0
 40
0
 40
1
 40
1
 40
1
 40
1
 10
68.339234
 20
14.548731
 30
0.0
 10
68.413440
 20
14.663306
 30
0.0
 10
68.474148
 20
14.768579
 30
0.0
 10
68.474148
 20
14.782670
 30
0.0
  0
SPLINE
  5
137
100
AcDbEntity
  8
Layer_2
 62
7
100
AcDbSpline
 70
8
 71
3
 72
8
 73
4
 74
0
 40
0
 40
0
 40
0
 40
0
 40
1
 40
1
 40
1
 40
1
 10
68.474148
 20
14.782670
 30
0.0
 10
68.474148
 20
14.796773
 30
0.0
 10
68.400898
 20
14.826734
 30
0.0
 10
68.311369
 20
14.849277
 30
0.0
  0
SPLINE
  5
138
100
AcDbEntity
  8
Layer_2
 62
7
100
AcDbSpline
 70
8
 71
3
 72
8
 73
4
 74
0
 40
0
 40
0
 40
0
 40
0
 40
1
 40
1
 40
1
 40
1
 10
68.311369
 20
14.849277
 30
0.0
 10
68.221841
 20
14.871819
 30
0.0
 10
67.630498
 20
15.063658
 30
0.0
 10
66.997273
 20
15.275579
 30
0.0
  0
LWPOLYLINE
  5
139
100
AcDbEntity
  8
Layer_2
 62
7
100
AcDbPolyline
 90
3
 70
0
 10
58.471872
 20
11.051889
 30
0.0
 10
58.611945
 20
11.173195
 30
0.0
 10
58.498330
 20
11.231946
 30
0.0
  0
SPLINE
  5
13a
100
AcDbEntity
  8
Layer_2
 62
7
100
AcDbSpline
 70
8
 71
3
 72
8
 73
4
 74
0
 40
0
 40
0
 40
0
 40
0
 40
1
 40
1
 40
1
 40
1
 10
66.586788
 20
15.662738
 30
0.0
 10
67.522905
 20
15.665119
 30
0.0
 10
68.017237
 20
15.735009
 30
0.0
 10
68.297758
 20
15.904766
 30
0.0
  0
SPLINE
  5
13b
100
AcDbEntity
  8
Layer_2
 62
7
100
AcDbSpline
 70
8
 71
3
 72
8
 73
4
 74
0
 40
0
 40
0
 40
0
 40
0
 40
1
 40
1
 40
1
 40
1
 10
68.297758
 20
15.904766
 30
0.0
 10
68.450905
 20
15.997441
 30
0.0
 10
68.654009
 20
16.205279
 30
0.0
 10
68.724082
 20
16.341021
 30
0.0
  0
SPLINE
  5
13c
100
AcDbEntity
  8
Layer_2
 62
7
100
AcDbSpline
 70
8
 71
3
 72
8
 73
4
 74
0
 40
0
 40
0
 40
0
 40
0
 40
1
 40
1
 40
1
 40
1
 10
68.724082
 20
16.341021
 30
0.0
 10
68.761242
 20
16.413009
 30
0.0
 10
68.791648
 20
16.478385
 30
0.0
 10
68.791648
 20
16.486307
 30
0.0
  0
SPLINE
  5
13d
100
AcDbEntity
  8
Layer_2
 62
7
100
AcDbSpline
 70
8
 71
3
 72
8
 73
4
 74
0
 40
0
 40
0
 40
0
 40
0
 40
1
 40
1
 40
1
 40
1
 10
68.791648
 20
16.486307
 30
0.0
 10
68.791648
 20
16.494218
 30
0.0
 10
68.728900
 20
16.509114
 30
0.0
 10
68.652205
 20
16.519406
 30
0.0
  0
SPLINE
  5
13e
100
AcDbEntity
  8
Layer_2
 62
7
100
AcDbSpline
 70
8
 71
3
 72
8
 73
4
 74
0
 40
0
 40
0
 40
0
 40
0
 40
1
 40
1
 40
1
 40
1
 10
68.652205
 20
16.519406
 30
0.0
 10
68.562794
 20
16.531392
 30
0.0
 10
68.423573
 20
16.600951
 30
0.0
 10
68.264154
 20
16.713266
 30
0.0
  0
LWPOLYLINE
  5
13f
100
AcDbEntity
  8
Layer_2
 62
7
100
AcDbPolyline
 90
3
 70
0
 10
66.997273
 20
15.275579
 30
0.0
 10
65.845955
 20
15.660886
 30
0.0
 10
66.586788
 20
15.662738
 30
0.0
  0
SPLINE
  5
140
100
AcDbEntity
  8
Layer_2
 62
7
100
AcDbSpline
 70
8
 71
3
 72
8
 73
4
 74
0
 40
0
 40
0
 40
0
 40
0
 40
1
 40
1
 40
1
 40
1
 10
68.394776
 20
16.913532
 30
0.0
 10
69.906145
 20
17.013579
 30
0.0
 10
70.967484
 20
17.701323
 30
0.0
 10
71.364107
 20
18.837648
 30
0.0
  0
SPLINE
  5
141
100
AcDbEntity
  8
Layer_2
 62
7
100
AcDbSpline
 70
8
 71
3
 72
8
 73
4
 74
0
 40
0
 40
0
 40
0
 40
0
 40
1
 40
1
 40
1
 40
1
 10
71.364107
 20
18.837648
 30
0.0
 10
71.401223
 20
18.943987
 30
0.0
 10
71.425218
 20
19.041298
 30
0.0
 10
71.417434
 20
19.053897
 30
0.0
  0
SPLINE
  5
142
100
AcDbEntity
  8
Layer_2
 62
7
100
AcDbSpline
 70
8
 71
3
 72
8
 73
4
 74
0
 40
0
 40
0
 40
0
 40
0
 40
1
 40
1
 40
1
 40
1
 10
71.417434
 20
19.053897
 30
0.0
 10
71.409655
 20
19.066491
 30
0.0
 10
71.248251
 20
19.087677
 30
0.0
 10
71.058781
 20
19.100959
 30
0.0
  0
SPLINE
  5
143
100
AcDbEntity
  8
Layer_2
 62
7
100
AcDbSpline
 70
8
 71
3
 72
8
 73
4
 74
0
 40
0
 40
0
 40
0
 40
0
 40
1
 40
1
 40
1
 40
1
 10
71.058781
 20
19.100959
 30
0.0
 10
70.505450
 20
19.139755
 30
0.0
 10
69.510767
 20
19.277333
 30
0.0
 10
68.774008
 20
19.416977
 30
0.0
  0
SPLINE
  5
144
100
AcDbEntity
  8
Layer_2
 62
7
100
AcDbSpline
 70
8
 71
3
 72
8
 73
4
 74
0
 40
0
 40
0
 40
0
 40
0
 40
1
 40
1
 40
1
 40
1
 10
68.774008
 20
19.416977
 30
0.0
 10
65.137866
 20
20.106166
 30
0.0
 10
61.076472
 20
21.685052
 30
0.0
 10
57.984152
 20
23.611578
 30
0.0
  0
SPLINE
  5
145
100
AcDbEntity
  8
Layer_2
 62
7
100
AcDbSpline
 70
8
 71
3
 72
8
 73
4
 74
0
 40
0
 40
0
 40
0
 40
0
 40
1
 40
1
 40
1
 40
1
 10
57.984152
 20
23.611578
 30
0.0
 10
57.495784
 20
23.915836
 30
0.0
 10
57.368993
 20
24.009585
 30
0.0
 10
57.419708
 20
24.028932
 30
0.0
  0
SPLINE
  5
146
100
AcDbEntity
  8
Layer_2
 62
7
100
AcDbSpline
 70
8
 71
3
 72
8
 73
4
 74
0
 40
0
 40
0
 40
0
 40
0
 40
1
 40
1
 40
1
 40
1
 10
57.419708
 20
24.028932
 30
0.0
 10
57.455684
 20
24.042664
 30
0.0
 10
57.620059
 20
24.096766
 30
0.0
 10
57.784981
 20
24.149177
 30
0.0
  0
SPLINE
  5
147
100
AcDbEntity
  8
Layer_2
 62
7
100
AcDbSpline
 70
8
 71
3
 72
8
 73
4
 74
0
 40
0
 40
0
 40
0
 40
0
 40
1
 40
1
 40
1
 40
1
 10
57.784981
 20
24.149177
 30
0.0
 10
58.312614
 20
24.316857
 30
0.0
 10
58.815428
 20
24.606565
 30
0.0
 10
59.063236
 20
24.885674
 30
0.0
  0
SPLINE
  5
148
100
AcDbEntity
  8
Layer_2
 62
7
100
AcDbSpline
 70
8
 71
3
 72
8
 73
4
 74
0
 40
0
 40
0
 40
0
 40
0
 40
1
 40
1
 40
1
 40
1
 10
59.063236
 20
24.885674
 30
0.0
 10
59.116283
 20
24.945422
 30
0.0
 10
59.159939
 20
25.006213
 30
0.0
 10
59.160251
 20
25.020765
 30
0.0
  0
SPLINE
  5
149
100
AcDbEntity
  8
Layer_2
 62
7
100
AcDbSpline
 70
8
 71
3
 72
8
 73
4
 74
0
 40
0
 40
0
 40
0
 40
0
 40
1
 40
1
 40
1
 40
1
 10
59.160251
 20
25.020765
 30
0.0
 10
59.160516
 20
25.035317
 30
0.0
 10
59.092206
 20
25.047223
 30
0.0
 10
59.008349
 20
25.047223
 30
0.0
  0
SPLINE
  5
14a
100
AcDbEntity
  8
Layer_2
 62
7
100
AcDbSpline
 70
8
 71
3
 72
8
 73
4
 74
0
 40
0
 40
0
 40
0
 40
0
 40
1
 40
1
 40
1
 40
1
 10
59.008349
 20
25.047223
 30
0.0
 10
58.781910
 20
25.047223
 30
0.0
 10
58.572522
 20
25.132900
 30
0.0
 10
58.296508
 20
25.338498
 30
0.0
  0
LWPOLYLINE
  5
14b
100
AcDbEntity
  8
Layer_2
 62
7
100
AcDbPolyline
 90
3
 70
0
 10
68.264154
 20
16.713266
 30
0.0
 10
68.015543
 20
16.888423
 30
0.0
 10
68.394776
 20
16.913532
 30
0.0
  0
SPLINE
  5
14c
100
AcDbEntity
  8
Layer_2
 62
7
100
AcDbSpline
 70
8
 71
3
 72
8
 73
4
 74
0
 40
0
 40
0
 40
0
 40
0
 40
1
 40
1
 40
1
 40
1
 10
58.304528
 20
25.545733
 30
0.0
 10
58.831657
 20
25.593889
 30
0.0
 10
59.340559
 20
25.811768
 30
0.0
 10
59.984129
 20
26.264828
 30
0.0
  0
LWPOLYLINE
  5
14d
100
AcDbEntity
  8
Layer_2
 62
7
100
AcDbPolyline
 90
3
 70
0
 10
58.296508
 20
25.338498
 30
0.0
 10
58.049583
 20
25.522449
 30
0.0
 10
58.304528
 20
25.545733
 30
0.0
  0
SPLINE
  5
14e
100
AcDbEntity
  8
Layer_2
 62
7
100
AcDbSpline
 70
8
 71
3
 72
8
 73
4
 74
0
 40
0
 40
0
 40
0
 40
0
 40
1
 40
1
 40
1
 40
1
 10
60.140353
 20
26.606955
 30
0.0
 10
59.947747
 20
26.712058
 30
0.0
 10
59.695091
 20
26.938854
 30
0.0
 10
59.502228
 20
27.179767
 30
0.0
  0
SPLINE
  5
14f
100
AcDbEntity
  8
Layer_2
 62
7
100
AcDbSpline
 70
8
 71
3
 72
8
 73
4
 74
0
 40
0
 40
0
 40
0
 40
0
 40
1
 40
1
 40
1
 40
1
 10
59.502228
 20
27.179767
 30
0.0
 10
59.414196
 20
27.289731
 30
0.0
 10
59.405496
 20
27.312980
 30
0.0
 10
59.460958
 20
27.290006
 30
0.0
  0
SPLINE
  5
150
100
AcDbEntity
  8
Layer_2
 62
7
100
AcDbSpline
 70
8
 71
3
 72
8
 73
4
 74
0
 40
0
 40
0
 40
0
 40
0
 40
1
 40
1
 40
1
 40
1
 10
59.460958
 20
27.290006
 30
0.0
 10
59.795137
 20
27.151616
 30
0.0
 10
60.198733
 20
27.032442
 30
0.0
 10
60.677777
 20
26.930702
 30
0.0
  0
SPLINE
  5
151
100
AcDbEntity
  8
Layer_2
 62
7
100
AcDbSpline
 70
8
 71
3
 72
8
 73
4
 74
0
 40
0
 40
0
 40
0
 40
0
 40
1
 40
1
 40
1
 40
1
 10
60.677777
 20
26.930702
 30
0.0
 10
61.098210
 20
26.841410
 30
0.0
 10
62.113983
 20
26.841053
 30
0.0
 10
62.441667
 20
26.930173
 30
0.0
  0
SPLINE
  5
152
100
AcDbEntity
  8
Layer_2
 62
7
100
AcDbSpline
 70
8
 71
3
 72
8
 73
4
 74
0
 40
0
 40
0
 40
0
 40
0
 40
1
 40
1
 40
1
 40
1
 10
62.441667
 20
26.930173
 30
0.0
 10
62.890379
 20
27.052087
 30
0.0
 10
63.214523
 20
27.189356
 30
0.0
 10
63.468433
 20
27.364989
 30
0.0
  0
SPLINE
  5
153
100
AcDbEntity
  8
Layer_2
 62
7
100
AcDbSpline
 70
8
 71
3
 72
8
 73
4
 74
0
 40
0
 40
0
 40
0
 40
0
 40
1
 40
1
 40
1
 40
1
 10
63.468433
 20
27.364989
 30
0.0
 10
63.620396
 20
27.470108
 30
0.0
 10
63.958610
 20
27.771971
 30
0.0
 10
63.958610
 20
27.802488
 30
0.0
  0
SPLINE
  5
154
100
AcDbEntity
  8
Layer_2
 62
7
100
AcDbSpline
 70
8
 71
3
 72
8
 73
4
 74
0
 40
0
 40
0
 40
0
 40
0
 40
1
 40
1
 40
1
 40
1
 10
63.958610
 20
27.802488
 30
0.0
 10
63.958610
 20
27.818151
 30
0.0
 10
63.883204
 20
27.864234
 30
0.0
 10
63.791042
 20
27.904906
 30
0.0
  0
SPLINE
  5
155
100
AcDbEntity
  8
Layer_2
 62
7
100
AcDbSpline
 70
8
 71
3
 72
8
 73
4
 74
0
 40
0
 40
0
 40
0
 40
0
 40
1
 40
1
 40
1
 40
1
 10
63.791042
 20
27.904906
 30
0.0
 10
63.639459
 20
27.971795
 30
0.0
 10
63.358890
 20
28.202252
 30
0.0
 10
63.358890
 20
28.259868
 30
0.0
  0
SPLINE
  5
156
100
AcDbEntity
  8
Layer_2
 62
7
100
AcDbSpline
 70
8
 71
3
 72
8
 73
4
 74
0
 40
0
 40
0
 40
0
 40
0
 40
1
 40
1
 40
1
 40
1
 10
63.358890
 20
28.259868
 30
0.0
 10
63.358890
 20
28.272647
 30
0.0
 10
63.497796
 20
28.259074
 30
0.0
 10
63.667569
 20
28.229624
 30
0.0
  0
SPLINE
  5
157
100
AcDbEntity
  8
Layer_2
 62
7
100
AcDbSpline
 70
8
 71
3
 72
8
 73
4
 74
0
 40
0
 40
0
 40
0
 40
0
 40
1
 40
1
 40
1
 40
1
 10
63.667569
 20
28.229624
 30
0.0
 10
64.076548
 20
28.158779
 30
0.0
 10
65.309065
 20
28.150365
 30
0.0
 10
65.581390
 20
28.216553
 30
0.0
  0
SPLINE
  5
158
100
AcDbEntity
  8
Layer_2
 62
7
100
AcDbSpline
 70
8
 71
3
 72
8
 73
4
 74
0
 40
0
 40
0
 40
0
 40
0
 40
1
 40
1
 40
1
 40
1
 10
65.581390
 20
28.216553
 30
0.0
 10
65.900821
 20
28.294200
 30
0.0
 10
66.235710
 20
28.430686
 30
0.0
 10
66.452806
 20
28.571706
 30
0.0
  0
SPLINE
  5
159
100
AcDbEntity
  8
Layer_2
 62
7
100
AcDbSpline
 70
8
 71
3
 72
8
 73
4
 74
0
 40
0
 40
0
 40
0
 40
0
 40
1
 40
1
 40
1
 40
1
 10
66.452806
 20
28.571706
 30
0.0
 10
66.750808
 20
28.765275
 30
0.0
 10
67.092595
 20
29.146286
 30
0.0
 10
67.263709
 20
29.475665
 30
0.0
  0
SPLINE
  5
15a
100
AcDbEntity
  8
Layer_2
 62
7
100
AcDbSpline
 70
8
 71
3
 72
8
 73
4
 74
0
 40
0
 40
0
 40
0
 40
0
 40
1
 40
1
 40
1
 40
1
 10
67.263709
 20
29.475665
 30
0.0
 10
67.466980
 20
29.866947
 30
0.0
 10
67.562772
 20
30.127554
 30
0.0
 10
67.510258
 20
30.146403
 30
0.0
  0
SPLINE
  5
15b
100
AcDbEntity
  8
Layer_2
 62
7
100
AcDbSpline
 70
8
 71
3
 72
8
 73
4
 74
0
 40
0
 40
0
 40
0
 40
0
 40
1
 40
1
 40
1
 40
1
 10
67.510258
 20
30.146403
 30
0.0
 10
67.487424
 20
30.154605
 30
0.0
 10
67.302063
 20
30.176822
 30
0.0
 10
67.098333
 20
30.195798
 30
0.0
  0
SPLINE
  5
15c
100
AcDbEntity
  8
Layer_2
 62
7
100
AcDbSpline
 70
8
 71
3
 72
8
 73
4
 74
0
 40
0
 40
0
 40
0
 40
0
 40
1
 40
1
 40
1
 40
1
 10
67.098333
 20
30.195798
 30
0.0
 10
66.610188
 20
30.241272
 30
0.0
 10
66.220343
 20
30.318252
 30
0.0
 10
66.013735
 20
30.409973
 30
0.0
  0
SPLINE
  5
15d
100
AcDbEntity
  8
Layer_2
 62
7
100
AcDbSpline
 70
8
 71
3
 72
8
 73
4
 74
0
 40
0
 40
0
 40
0
 40
0
 40
1
 40
1
 40
1
 40
1
 10
66.013735
 20
30.409973
 30
0.0
 10
65.812313
 20
30.499397
 30
0.0
 10
65.845111
 20
30.530049
 30
0.0
 10
66.181110
 20
30.566405
 30
0.0
  0
SPLINE
  5
15e
100
AcDbEntity
  8
Layer_2
 62
7
100
AcDbSpline
 70
8
 71
3
 72
8
 73
4
 74
0
 40
0
 40
0
 40
0
 40
0
 40
1
 40
1
 40
1
 40
1
 10
66.181110
 20
30.566405
 30
0.0
 10
67.760175
 20
30.737283
 30
0.0
 10
68.795606
 20
31.682809
 30
0.0
 10
69.052702
 20
33.188659
 30
0.0
  0
SPLINE
  5
15f
100
AcDbEntity
  8
Layer_2
 62
7
100
AcDbSpline
 70
8
 71
3
 72
8
 73
4
 74
0
 40
0
 40
0
 40
0
 40
0
 40
1
 40
1
 40
1
 40
1
 10
69.052702
 20
33.188659
 30
0.0
 10
69.101983
 20
33.477330
 30
0.0
 10
69.155926
 20
34.008367
 30
0.0
 10
69.135871
 20
34.007438
 30
0.0
  0
SPLINE
  5
160
100
AcDbEntity
  8
Layer_2
 62
7
100
AcDbSpline
 70
8
 71
3
 72
8
 73
4
 74
0
 40
0
 40
0
 40
0
 40
0
 40
1
 40
1
 40
1
 40
1
 10
69.135871
 20
34.007438
 30
0.0
 10
69.130897
 20
34.007174
 30
0.0
 10
69.039494
 20
33.983573
 30
0.0
 10
68.932777
 20
33.954942
 30
0.0
  0
SPLINE
  5
161
100
AcDbEntity
  8
Layer_2
 62
7
100
AcDbSpline
 70
8
 71
3
 72
8
 73
4
 74
0
 40
0
 40
0
 40
0
 40
0
 40
1
 40
1
 40
1
 40
1
 10
68.932777
 20
33.954942
 30
0.0
 10
68.409643
 20
33.814525
 30
0.0
 10
66.565074
 20
33.946714
 30
0.0
 10
64.981667
 20
34.238097
 30
0.0
  0
SPLINE
  5
162
100
AcDbEntity
  8
Layer_2
 62
7
100
AcDbSpline
 70
8
 71
3
 72
8
 73
4
 74
0
 40
0
 40
0
 40
0
 40
0
 40
1
 40
1
 40
1
 40
1
 10
64.981667
 20
34.238097
 30
0.0
 10
64.816744
 20
34.268444
 30
0.0
 10
64.602431
 20
34.307137
 30
0.0
 10
64.505417
 20
34.324078
 30
0.0
  0
SPLINE
  5
163
100
AcDbEntity
  8
Layer_2
 62
7
100
AcDbSpline
 70
8
 71
3
 72
8
 73
4
 74
0
 40
0
 40
0
 40
0
 40
0
 40
1
 40
1
 40
1
 40
1
 10
64.505417
 20
34.324078
 30
0.0
 10
64.248345
 20
34.368970
 30
0.0
 10
63.610821
 20
34.496727
 30
0.0
 10
63.447083
 20
34.536166
 30
0.0
  0
SPLINE
  5
164
100
AcDbEntity
  8
Layer_2
 62
7
100
AcDbSpline
 70
8
 71
3
 72
8
 73
4
 74
0
 40
0
 40
0
 40
0
 40
0
 40
1
 40
1
 40
1
 40
1
 10
63.447083
 20
34.536166
 30
0.0
 10
63.369473
 20
34.554872
 30
0.0
 10
63.091661
 20
34.617763
 30
0.0
 10
62.829723
 20
34.675953
 30
0.0
  0
SPLINE
  5
165
100
AcDbEntity
  8
Layer_2
 62
7
100
AcDbSpline
 70
8
 71
3
 72
8
 73
4
 74
0
 40
0
 40
0
 40
0
 40
0
 40
1
 40
1
 40
1
 40
1
 10
62.829723
 20
34.675953
 30
0.0
 10
59.486554
 20
35.418652
 30
0.0
 10
55.915684
 20
36.703720
 30
0.0
 10
53.774763
 20
37.934606
 30
0.0
  0
SPLINE
  5
166
100
AcDbEntity
  8
Layer_2
 62
7
100
AcDbSpline
 70
8
 71
3
 72
8
 73
4
 74
0
 40
0
 40
0
 40
0
 40
0
 40
1
 40
1
 40
1
 40
1
 10
53.774763
 20
37.934606
 30
0.0
 10
53.260363
 20
38.230355
 30
0.0
 10
52.518831
 20
38.701787
 30
0.0
 10
52.537961
 20
38.720911
 30
0.0
  0
SPLINE
  5
167
100
AcDbEntity
  8
Layer_2
 62
7
100
AcDbSpline
 70
8
 71
3
 72
8
 73
4
 74
0
 40
0
 40
0
 40
0
 40
0
 40
1
 40
1
 40
1
 40
1
 10
52.537961
 20
38.720911
 30
0.0
 10
52.544707
 20
38.727658
 30
0.0
 10
52.612827
 20
38.714905
 30
0.0
 10
52.689345
 20
38.692590
 30
0.0
  0
SPLINE
  5
168
100
AcDbEntity
  8
Layer_2
 62
7
100
AcDbSpline
 70
8
 71
3
 72
8
 73
4
 74
0
 40
0
 40
0
 40
0
 40
0
 40
1
 40
1
 40
1
 40
1
 10
52.689345
 20
38.692590
 30
0.0
 10
52.765865
 20
38.670259
 30
0.0
 10
53.042786
 20
38.651095
 30
0.0
 10
53.304723
 20
38.649976
 30
0.0
  0
SPLINE
  5
169
100
AcDbEntity
  8
Layer_2
 62
7
100
AcDbSpline
 70
8
 71
3
 72
8
 73
4
 74
0
 40
0
 40
0
 40
0
 40
0
 40
1
 40
1
 40
1
 40
1
 10
53.304723
 20
38.649976
 30
0.0
 10
53.765109
 20
38.648124
 30
0.0
 10
53.795200
 20
38.652622
 30
0.0
 10
54.208140
 20
38.786139
 30
0.0
  0
SPLINE
  5
16a
100
AcDbEntity
  8
Layer_2
 62
7
100
AcDbSpline
 70
8
 71
3
 72
8
 73
4
 74
0
 40
0
 40
0
 40
0
 40
0
 40
1
 40
1
 40
1
 40
1
 10
54.208140
 20
38.786139
 30
0.0
 10
54.710317
 20
38.948603
 30
0.0
 10
54.716794
 20
38.964000
 30
0.0
 10
54.390695
 20
39.220196
 30
0.0
  0
SPLINE
  5
16b
100
AcDbEntity
  8
Layer_2
 62
7
100
AcDbSpline
 70
8
 71
3
 72
8
 73
4
 74
0
 40
0
 40
0
 40
0
 40
0
 40
1
 40
1
 40
1
 40
1
 10
54.390695
 20
39.220196
 30
0.0
 10
54.274924
 20
39.311149
 30
0.0
 10
54.194945
 20
39.390479
 30
0.0
 10
54.212964
 20
39.396487
 30
0.0
  0
SPLINE
  5
16c
100
AcDbEntity
  8
Layer_2
 62
7
100
AcDbSpline
 70
8
 71
3
 72
8
 73
4
 74
0
 40
0
 40
0
 40
0
 40
0
 40
1
 40
1
 40
1
 40
1
 10
54.212964
 20
39.396487
 30
0.0
 10
54.230982
 20
39.402493
 30
0.0
 10
54.387213
 20
39.373548
 30
0.0
 10
54.560152
 20
39.332188
 30
0.0
  0
SPLINE
  5
16d
100
AcDbEntity
  8
Layer_2
 62
7
100
AcDbSpline
 70
8
 71
3
 72
8
 73
4
 74
0
 40
0
 40
0
 40
0
 40
0
 40
1
 40
1
 40
1
 40
1
 10
54.560152
 20
39.332188
 30
0.0
 10
54.767946
 20
39.282486
 30
0.0
 10
55.044962
 20
39.250580
 30
0.0
 10
55.376950
 20
39.238121
 30
0.0
  0
SPLINE
  5
16e
100
AcDbEntity
  8
Layer_2
 62
7
100
AcDbSpline
 70
8
 71
3
 72
8
 73
4
 74
0
 40
0
 40
0
 40
0
 40
0
 40
1
 40
1
 40
1
 40
1
 10
55.376950
 20
39.238121
 30
0.0
 10
55.937817
 20
39.217060
 30
0.0
 10
56.213661
 20
39.262278
 30
0.0
 10
56.603194
 20
39.439038
 30
0.0
  0
SPLINE
  5
16f
100
AcDbEntity
  8
Layer_2
 62
7
100
AcDbSpline
 70
8
 71
3
 72
8
 73
4
 74
0
 40
0
 40
0
 40
0
 40
0
 40
1
 40
1
 40
1
 40
1
 10
56.603194
 20
39.439038
 30
0.0
 10
56.981500
 20
39.610715
 30
0.0
 10
57.762534
 20
40.260196
 30
0.0
 10
57.641194
 20
40.302201
 30
0.0
  0
SPLINE
  5
170
100
AcDbEntity
  8
Layer_2
 62
7
100
AcDbSpline
 70
8
 71
3
 72
8
 73
4
 74
0
 40
0
 40
0
 40
0
 40
0
 40
1
 40
1
 40
1
 40
1
 10
57.641194
 20
40.302201
 30
0.0
 10
57.613571
 20
40.311753
 30
0.0
 10
57.487786
 20
40.344725
 30
0.0
 10
57.361667
 20
40.375451
 30
0.0
  0
SPLINE
  5
171
100
AcDbEntity
  8
Layer_2
 62
7
100
AcDbSpline
 70
8
 71
3
 72
8
 73
4
 74
0
 40
0
 40
0
 40
0
 40
0
 40
1
 40
1
 40
1
 40
1
 10
57.361667
 20
40.375451
 30
0.0
 10
56.971078
 20
40.470603
 30
0.0
 10
56.531936
 20
40.668165
 30
0.0
 10
56.462964
 20
40.779764
 30
0.0
  0
SPLINE
  5
172
100
AcDbEntity
  8
Layer_2
 62
7
100
AcDbSpline
 70
8
 71
3
 72
8
 73
4
 74
0
 40
0
 40
0
 40
0
 40
0
 40
1
 40
1
 40
1
 40
1
 10
56.462964
 20
40.779764
 30
0.0
 10
56.431614
 20
40.830492
 30
0.0
 10
56.463758
 20
40.826100
 30
0.0
 10
56.726667
 20
40.743688
 30
0.0
  0
SPLINE
  5
173
100
AcDbEntity
  8
Layer_2
 62
7
100
AcDbSpline
 70
8
 71
3
 72
8
 73
4
 74
0
 40
0
 40
0
 40
0
 40
0
 40
1
 40
1
 40
1
 40
1
 10
56.726667
 20
40.743688
 30
0.0
 10
57.392718
 20
40.534921
 30
0.0
 10
58.196573
 20
40.438046
 30
0.0
 10
58.742472
 20
40.500752
 30
0.0
  0
SPLINE
  5
174
100
AcDbEntity
  8
Layer_2
 62
7
100
AcDbSpline
 70
8
 71
3
 72
8
 73
4
 74
0
 40
0
 40
0
 40
0
 40
0
 40
1
 40
1
 40
1
 40
1
 10
58.742472
 20
40.500752
 30
0.0
 10
59.234036
 20
40.557217
 30
0.0
 10
60.007852
 20
40.789140
 30
0.0
 10
60.007370
 20
40.879858
 30
0.0
  0
SPLINE
  5
175
100
AcDbEntity
  8
Layer_2
 62
7
100
AcDbSpline
 70
8
 71
3
 72
8
 73
4
 74
0
 40
0
 40
0
 40
0
 40
0
 40
1
 40
1
 40
1
 40
1
 10
60.007370
 20
40.879858
 30
0.0
 10
60.007370
 20
40.893511
 30
0.0
 10
59.931890
 20
40.935074
 30
0.0
 10
59.839799
 20
40.972240
 30
0.0
  0
SPLINE
  5
176
100
AcDbEntity
  8
Layer_2
 62
7
100
AcDbSpline
 70
8
 71
3
 72
8
 73
4
 74
0
 40
0
 40
0
 40
0
 40
0
 40
1
 40
1
 40
1
 40
1
 10
59.839799
 20
40.972240
 30
0.0
 10
59.747708
 20
41.009403
 30
0.0
 10
59.640610
 20
41.062733
 30
0.0
 10
59.601806
 20
41.090747
 30
0.0
  0
SPLINE
  5
177
100
AcDbEntity
  8
Layer_2
 62
7
100
AcDbSpline
 70
8
 71
3
 72
8
 73
4
 74
0
 40
0
 40
0
 40
0
 40
0
 40
1
 40
1
 40
1
 40
1
 10
59.601806
 20
41.090747
 30
0.0
 10
59.537047
 20
41.137501
 30
0.0
 10
59.542847
 20
41.139853
 30
0.0
 10
59.672360
 20
41.119396
 30
0.0
  0
SPLINE
  5
178
100
AcDbEntity
  8
Layer_2
 62
7
100
AcDbSpline
 70
8
 71
3
 72
8
 73
4
 74
0
 40
0
 40
0
 40
0
 40
0
 40
1
 40
1
 40
1
 40
1
 10
59.672360
 20
41.119396
 30
0.0
 10
60.364412
 20
41.010070
 30
0.0
 10
61.032951
 20
41.007435
 30
0.0
 10
61.413221
 20
41.112543
 30
0.0
  0
SPLINE
  5
179
100
AcDbEntity
  8
Layer_2
 62
7
100
AcDbSpline
 70
8
 71
3
 72
8
 73
4
 74
0
 40
0
 40
0
 40
0
 40
0
 40
1
 40
1
 40
1
 40
1
 10
61.413221
 20
41.112543
 30
0.0
 10
61.692959
 20
41.189857
 30
0.0
 10
62.079889
 20
41.388154
 30
0.0
 10
62.308224
 20
41.571217
 30
0.0
  0
SPLINE
  5
17a
100
AcDbEntity
  8
Layer_2
 62
7
100
AcDbSpline
 70
8
 71
3
 72
8
 73
4
 74
0
 40
0
 40
0
 40
0
 40
0
 40
1
 40
1
 40
1
 40
1
 10
62.308224
 20
41.571217
 30
0.0
 10
62.526841
 20
41.746493
 30
0.0
 10
62.941176
 20
42.225233
 30
0.0
 10
62.913294
 20
42.270341
 30
0.0
  0
SPLINE
  5
17b
100
AcDbEntity
  8
Layer_2
 62
7
100
AcDbSpline
 70
8
 71
3
 72
8
 73
4
 74
0
 40
0
 40
0
 40
0
 40
0
 40
1
 40
1
 40
1
 40
1
 10
62.913294
 20
42.270341
 30
0.0
 10
62.903849
 20
42.285634
 30
0.0
 10
62.810520
 20
42.298144
 30
0.0
 10
62.705903
 20
42.298144
 30
0.0
  0
SPLINE
  5
17c
100
AcDbEntity
  8
Layer_2
 62
7
100
AcDbSpline
 70
8
 71
3
 72
8
 73
4
 74
0
 40
0
 40
0
 40
0
 40
0
 40
1
 40
1
 40
1
 40
1
 10
62.705903
 20
42.298144
 30
0.0
 10
62.438320
 20
42.298144
 30
0.0
 10
62.180536
 20
42.357527
 30
0.0
 10
61.903681
 20
42.482939
 30
0.0
  0
SPLINE
  5
17d
100
AcDbEntity
  8
Layer_2
 62
7
100
AcDbSpline
 70
8
 71
3
 72
8
 73
4
 74
0
 40
0
 40
0
 40
0
 40
0
 40
1
 40
1
 40
1
 40
1
 10
61.903681
 20
42.482939
 30
0.0
 10
61.660519
 20
42.593096
 30
0.0
 10
61.605094
 20
42.650923
 30
0.0
 10
61.742677
 20
42.650923
 30
0.0
  0
SPLINE
  5
17e
100
AcDbEntity
  8
Layer_2
 62
7
100
AcDbSpline
 70
8
 71
3
 72
8
 73
4
 74
0
 40
0
 40
0
 40
0
 40
0
 40
1
 40
1
 40
1
 40
1
 10
61.742677
 20
42.650923
 30
0.0
 10
61.876953
 20
42.650923
 30
0.0
 10
62.271960
 20
42.762704
 30
0.0
 10
62.501306
 20
42.865606
 30
0.0
  0
SPLINE
  5
17f
100
AcDbEntity
  8
Layer_2
 62
7
100
AcDbSpline
 70
8
 71
3
 72
8
 73
4
 74
0
 40
0
 40
0
 40
0
 40
0
 40
1
 40
1
 40
1
 40
1
 10
62.501306
 20
42.865606
 30
0.0
 10
63.011127
 20
43.094346
 30
0.0
 10
63.450991
 20
43.484501
 30
0.0
 10
63.818505
 20
44.033937
 30
0.0
  0
SPLINE
  5
180
100
AcDbEntity
  8
Layer_2
 62
7
100
AcDbSpline
 70
8
 71
3
 72
8
 73
4
 74
0
 40
0
 40
0
 40
0
 40
0
 40
1
 40
1
 40
1
 40
1
 10
63.818505
 20
44.033937
 30
0.0
 10
64.024954
 20
44.342584
 30
0.0
 10
64.329175
 20
44.902670
 30
0.0
 10
64.304029
 20
44.927816
 30
0.0
  0
SPLINE
  5
181
100
AcDbEntity
  8
Layer_2
 62
7
100
AcDbSpline
 70
8
 71
3
 72
8
 73
4
 74
0
 40
0
 40
0
 40
0
 40
0
 40
1
 40
1
 40
1
 40
1
 10
64.304029
 20
44.927816
 30
0.0
 10
64.297520
 20
44.934325
 30
0.0
 10
64.062369
 20
44.987432
 30
0.0
 10
63.781453
 20
45.045850
 30
0.0
  0
SPLINE
  5
182
100
AcDbEntity
  8
Layer_2
 62
7
100
AcDbSpline
 70
8
 71
3
 72
8
 73
4
 74
0
 40
0
 40
0
 40
0
 40
0
 40
1
 40
1
 40
1
 40
1
 10
63.781453
 20
45.045850
 30
0.0
 10
62.944039
 20
45.219990
 30
0.0
 10
62.798232
 20
45.253061
 30
0.0
 10
62.120296
 20
45.422595
 30
0.0
  0
SPLINE
  5
183
100
AcDbEntity
  8
Layer_2
 62
7
100
AcDbSpline
 70
8
 71
3
 72
8
 73
4
 74
0
 40
0
 40
0
 40
0
 40
0
 40
1
 40
1
 40
1
 40
1
 10
62.120296
 20
45.422595
 30
0.0
 10
58.863878
 20
46.236948
 30
0.0
 10
55.035093
 20
47.676192
 30
0.0
 10
53.276217
 20
48.747095
 30
0.0
  0
LWPOLYLINE
  5
184
100
AcDbEntity
  8
Layer_2
 62
7
100
AcDbPolyline
 90
3
 70
0
 10
59.984129
 20
26.264828
 30
0.0
 10
60.326122
 20
26.505583
 30
0.0
 10
60.140353
 20
26.606955
 30
0.0
  0
SPLINE
  5
185
100
AcDbEntity
  8
Layer_2
 62
7
100
AcDbSpline
 70
8
 71
3
 72
8
 73
4
 74
0
 40
0
 40
0
 40
0
 40
0
 40
1
 40
1
 40
1
 40
1
 10
53.081383
 20
48.956262
 30
0.0
 10
54.270537
 20
49.029019
 30
0.0
 10
55.600148
 20
49.443902
 30
0.0
 10
56.386659
 20
49.987618
 30
0.0
  0
SPLINE
  5
186
100
AcDbEntity
  8
Layer_2
 62
7
100
AcDbSpline
 70
8
 71
3
 72
8
 73
4
 74
0
 40
0
 40
0
 40
0
 40
0
 40
1
 40
1
 40
1
 40
1
 10
56.386659
 20
49.987618
 30
0.0
 10
56.648665
 20
50.168739
 30
0.0
 10
57.114723
 20
50.618882
 30
0.0
 10
57.114723
 20
50.690814
 30
0.0
  0
SPLINE
  5
187
100
AcDbEntity
  8
Layer_2
 62
7
100
AcDbSpline
 70
8
 71
3
 72
8
 73
4
 74
0
 40
0
 40
0
 40
0
 40
0
 40
1
 40
1
 40
1
 40
1
 10
57.114723
 20
50.690814
 30
0.0
 10
57.114723
 20
50.714865
 30
0.0
 10
57.029361
 20
50.729520
 30
0.0
 10
56.889229
 20
50.729520
 30
0.0
  0
SPLINE
  5
188
100
AcDbEntity
  8
Layer_2
 62
7
100
AcDbSpline
 70
8
 71
3
 72
8
 73
4
 74
0
 40
0
 40
0
 40
0
 40
0
 40
1
 40
1
 40
1
 40
1
 10
56.889229
 20
50.729520
 30
0.0
 10
56.639714
 20
50.729520
 30
0.0
 10
55.986458
 20
50.849567
 30
0.0
 10
55.851671
 20
50.920190
 30
0.0
  0
SPLINE
  5
189
100
AcDbEntity
  8
Layer_2
 62
7
100
AcDbSpline
 70
8
 71
3
 72
8
 73
4
 74
0
 40
0
 40
0
 40
0
 40
0
 40
1
 40
1
 40
1
 40
1
 10
55.851671
 20
50.920190
 30
0.0
 10
55.773407
 20
50.961197
 30
0.0
 10
55.792211
 20
50.967399
 30
0.0
 10
56.056575
 20
50.987785
 30
0.0
  0
SPLINE
  5
18a
100
AcDbEntity
  8
Layer_2
 62
7
100
AcDbSpline
 70
8
 71
3
 72
8
 73
4
 74
0
 40
0
 40
0
 40
0
 40
0
 40
1
 40
1
 40
1
 40
1
 10
56.056575
 20
50.987785
 30
0.0
 10
57.359336
 20
51.088245
 30
0.0
 10
58.763993
 20
52.260693
 30
0.0
 10
58.771917
 20
53.254227
 30
0.0
  0
SPLINE
  5
18b
100
AcDbEntity
  8
Layer_2
 62
7
100
AcDbSpline
 70
8
 71
3
 72
8
 73
4
 74
0
 40
0
 40
0
 40
0
 40
0
 40
1
 40
1
 40
1
 40
1
 10
58.771917
 20
53.254227
 30
0.0
 10
58.772711
 20
53.359920
 30
0.0
 10
58.767287
 20
53.363458
 30
0.0
 10
58.534652
 20
53.407884
 30
0.0
  0
SPLINE
  5
18c
100
AcDbEntity
  8
Layer_2
 62
7
100
AcDbSpline
 70
8
 71
3
 72
8
 73
4
 74
0
 40
0
 40
0
 40
0
 40
0
 40
1
 40
1
 40
1
 40
1
 10
58.534652
 20
53.407884
 30
0.0
 10
57.970534
 20
53.515607
 30
0.0
 10
56.599923
 20
53.844608
 30
0.0
 10
55.439027
 20
54.150956
 30
0.0
  0
SPLINE
  5
18d
100
AcDbEntity
  8
Layer_2
 62
7
100
AcDbSpline
 70
8
 71
3
 72
8
 73
4
 74
0
 40
0
 40
0
 40
0
 40
0
 40
1
 40
1
 40
1
 40
1
 10
55.439027
 20
54.150956
 30
0.0
 10
54.628603
 20
54.364821
 30
0.0
 10
54.482706
 20
54.404181
 30
0.0
 10
53.851527
 20
54.579247
 30
0.0
  0
SPLINE
  5
18e
100
AcDbEntity
  8
Layer_2
 62
7
100
AcDbSpline
 70
8
 71
3
 72
8
 73
4
 74
0
 40
0
 40
0
 40
0
 40
0
 40
1
 40
1
 40
1
 40
1
 10
53.851527
 20
54.579247
 30
0.0
 10
51.818191
 20
55.143223
 30
0.0
 10
50.209596
 20
55.657917
 30
0.0
 10
49.019272
 20
56.125401
 30
0.0
  0
SPLINE
  5
18f
100
AcDbEntity
  8
Layer_2
 62
7
100
AcDbSpline
 70
8
 71
3
 72
8
 73
4
 74
0
 40
0
 40
0
 40
0
 40
0
 40
1
 40
1
 40
1
 40
1
 10
49.019272
 20
56.125401
 30
0.0
 10
48.914301
 20
56.166626
 30
0.0
 10
48.914389
 20
56.166700
 30
0.0
 10
49.170508
 20
56.252949
 30
0.0
  0
SPLINE
  5
190
100
AcDbEntity
  8
Layer_2
 62
7
100
AcDbSpline
 70
8
 71
3
 72
8
 73
4
 74
0
 40
0
 40
0
 40
0
 40
0
 40
1
 40
1
 40
1
 40
1
 10
49.170508
 20
56.252949
 30
0.0
 10
49.410041
 20
56.333610
 30
0.0
 10
49.882777
 20
56.597844
 30
0.0
 10
49.882777
 20
56.651067
 30
0.0
  0
SPLINE
  5
191
100
AcDbEntity
  8
Layer_2
 62
7
100
AcDbSpline
 70
8
 71
3
 72
8
 73
4
 74
0
 40
0
 40
0
 40
0
 40
0
 40
1
 40
1
 40
1
 40
1
 10
49.882777
 20
56.651067
 30
0.0
 10
49.882777
 20
56.664164
 30
0.0
 10
49.806955
 20
56.701833
 30
0.0
 10
49.714288
 20
56.734747
 30
0.0
  0
SPLINE
  5
192
100
AcDbEntity
  8
Layer_2
 62
7
100
AcDbSpline
 70
8
 71
3
 72
8
 73
4
 74
0
 40
0
 40
0
 40
0
 40
0
 40
1
 40
1
 40
1
 40
1
 10
49.714288
 20
56.734747
 30
0.0
 10
49.621617
 20
56.767661
 30
0.0
 10
49.500830
 20
56.841522
 30
0.0
 10
49.445870
 20
56.898887
 30
0.0
  0
LWPOLYLINE
  5
193
100
AcDbEntity
  8
Layer_2
 62
7
100
AcDbPolyline
 90
3
 70
0
 10
53.276217
 20
48.747095
 30
0.0
 10
52.946236
 20
48.948007
 30
0.0
 10
53.081383
 20
48.956262
 30
0.0
  0
SPLINE
  5
194
100
AcDbEntity
  8
Layer_2
 62
7
100
AcDbSpline
 70
8
 71
3
 72
8
 73
4
 74
0
 40
0
 40
0
 40
0
 40
0
 40
1
 40
1
 40
1
 40
1
 10
49.499710
 20
56.966752
 30
0.0
 10
49.751999
 20
56.906967
 30
0.0
 10
50.638967
 20
56.920752
 30
0.0
 10
50.923473
 20
56.988871
 30
0.0
  0
SPLINE
  5
195
100
AcDbEntity
  8
Layer_2
 62
7
100
AcDbSpline
 70
8
 71
3
 72
8
 73
4
 74
0
 40
0
 40
0
 40
0
 40
0
 40
1
 40
1
 40
1
 40
1
 10
50.923473
 20
56.988871
 30
0.0
 10
51.289201
 20
57.076448
 30
0.0
 10
51.768806
 20
57.322283
 30
0.0
 10
52.021663
 20
57.551772
 30
0.0
  0
SPLINE
  5
196
100
AcDbEntity
  8
Layer_2
 62
7
100
AcDbSpline
 70
8
 71
3
 72
8
 73
4
 74
0
 40
0
 40
0
 40
0
 40
0
 40
1
 40
1
 40
1
 40
1
 10
52.021663
 20
57.551772
 30
0.0
 10
52.214105
 20
57.726434
 30
0.0
 10
52.489015
 20
58.086024
 30
0.0
 10
52.453773
 20
58.116991
 30
0.0
  0
SPLINE
  5
197
100
AcDbEntity
  8
Layer_2
 62
7
100
AcDbSpline
 70
8
 71
3
 72
8
 73
4
 74
0
 40
0
 40
0
 40
0
 40
0
 40
1
 40
1
 40
1
 40
1
 10
52.453773
 20
58.116991
 30
0.0
 10
52.446417
 20
58.123447
 30
0.0
 10
52.268477
 20
58.162955
 30
0.0
 10
52.058327
 20
58.204785
 30
0.0
  0
SPLINE
  5
198
100
AcDbEntity
  8
Layer_2
 62
7
100
AcDbSpline
 70
8
 71
3
 72
8
 73
4
 74
0
 40
0
 40
0
 40
0
 40
0
 40
1
 40
1
 40
1
 40
1
 10
52.058327
 20
58.204785
 30
0.0
 10
51.656909
 20
58.284692
 30
0.0
 10
51.283952
 20
58.431364
 30
0.0
 10
51.178267
 20
58.550881
 30
0.0
  0
SPLINE
  5
199
100
AcDbEntity
  8
Layer_2
 62
7
100
AcDbSpline
 70
8
 71
3
 72
8
 73
4
 74
0
 40
0
 40
0
 40
0
 40
0
 40
1
 40
1
 40
1
 40
1
 10
51.178267
 20
58.550881
 30
0.0
 10
51.115778
 20
58.621552
 30
0.0
 10
51.117836
 20
58.621864
 30
0.0
 10
51.777987
 20
58.641467
 30
0.0
  0
SPLINE
  5
19a
100
AcDbEntity
  8
Layer_2
 62
7
100
AcDbSpline
 70
8
 71
3
 72
8
 73
4
 74
0
 40
0
 40
0
 40
0
 40
0
 40
1
 40
1
 40
1
 40
1
 10
51.777987
 20
58.641467
 30
0.0
 10
52.488917
 20
58.662581
 30
0.0
 10
52.872807
 20
58.724993
 30
0.0
 10
53.375277
 20
58.901174
 30
0.0
  0
SPLINE
  5
19b
100
AcDbEntity
  8
Layer_2
 62
7
100
AcDbSpline
 70
8
 71
3
 72
8
 73
4
 74
0
 40
0
 40
0
 40
0
 40
0
 40
1
 40
1
 40
1
 40
1
 10
53.375277
 20
58.901174
 30
0.0
 10
54.158788
 20
59.175891
 30
0.0
 10
54.837327
 20
59.698469
 30
0.0
 10
55.202717
 20
60.308575
 30
0.0
  0
SPLINE
  5
19c
100
AcDbEntity
  8
Layer_2
 62
7
100
AcDbSpline
 70
8
 71
3
 72
8
 73
4
 74
0
 40
0
 40
0
 40
0
 40
0
 40
1
 40
1
 40
1
 40
1
 10
55.202717
 20
60.308575
 30
0.0
 10
55.346470
 20
60.548607
 30
0.0
 10
55.357720
 20
60.607292
 30
0.0
 10
55.259994
 20
60.607292
 30
0.0
  0
SPLINE
  5
19d
100
AcDbEntity
  8
Layer_2
 62
7
100
AcDbSpline
 70
8
 71
3
 72
8
 73
4
 74
0
 40
0
 40
0
 40
0
 40
0
 40
1
 40
1
 40
1
 40
1
 10
55.259994
 20
60.607292
 30
0.0
 10
55.129165
 20
60.607292
 30
0.0
 10
54.248875
 20
60.959672
 30
0.0
 10
53.675140
 20
61.241707
 30
0.0
  0
SPLINE
  5
19e
100
AcDbEntity
  8
Layer_2
 62
7
100
AcDbSpline
 70
8
 71
3
 72
8
 73
4
 74
0
 40
0
 40
0
 40
0
 40
0
 40
1
 40
1
 40
1
 40
1
 10
53.675140
 20
61.241707
 30
0.0
 10
52.850942
 20
61.646861
 30
0.0
 10
52.020047
 20
62.164267
 30
0.0
 10
51.055765
 20
62.872813
 30
0.0
  0
SPLINE
  5
19f
100
AcDbEntity
  8
Layer_2
 62
7
100
AcDbSpline
 70
8
 71
3
 72
8
 73
4
 74
0
 40
0
 40
0
 40
0
 40
0
 40
1
 40
1
 40
1
 40
1
 10
51.055765
 20
62.872813
 30
0.0
 10
50.813602
 20
63.050748
 30
0.0
 10
50.729311
 20
63.132989
 30
0.0
 10
50.728930
 20
63.191676
 30
0.0
  0
SPLINE
  5
1a0
100
AcDbEntity
  8
Layer_2
 62
7
100
AcDbSpline
 70
8
 71
3
 72
8
 73
4
 74
0
 40
0
 40
0
 40
0
 40
0
 40
1
 40
1
 40
1
 40
1
 10
50.728930
 20
63.191676
 30
0.0
 10
50.728401
 20
63.274990
 30
0.0
 10
50.636744
 20
63.562749
 30
0.0
 10
50.591477
 20
63.623264
 30
0.0
  0
SPLINE
  5
1a1
100
AcDbEntity
  8
Layer_2
 62
7
100
AcDbSpline
 70
8
 71
3
 72
8
 73
4
 74
0
 40
0
 40
0
 40
0
 40
0
 40
1
 40
1
 40
1
 40
1
 10
50.591477
 20
63.623264
 30
0.0
 10
50.576845
 20
63.642817
 30
0.0
 10
50.543121
 20
63.714384
 30
0.0
 10
50.516528
 20
63.782292
 30
0.0
  0
SPLINE
  5
1a2
100
AcDbEntity
  8
Layer_2
 62
7
100
AcDbSpline
 70
8
 71
3
 72
8
 73
4
 74
0
 40
0
 40
0
 40
0
 40
0
 40
1
 40
1
 40
1
 40
1
 10
50.516528
 20
63.782292
 30
0.0
 10
50.302845
 20
64.327963
 30
0.0
 10
49.663003
 20
65.083367
 30
0.0
 10
49.148966
 20
65.396859
 30
0.0
  0
SPLINE
  5
1a3
100
AcDbEntity
  8
Layer_2
 62
7
100
AcDbSpline
 70
8
 71
3
 72
8
 73
4
 74
0
 40
0
 40
0
 40
0
 40
0
 40
1
 40
1
 40
1
 40
1
 10
49.148966
 20
65.396859
 30
0.0
 10
48.693419
 20
65.674679
 30
0.0
 10
48.438422
 20
65.820944
 30
0.0
 10
48.154167
 20
65.967470
 30
0.0
  0
SPLINE
  5
1a4
100
AcDbEntity
  8
Layer_2
 62
7
100
AcDbSpline
 70
8
 71
3
 72
8
 73
4
 74
0
 40
0
 40
0
 40
0
 40
0
 40
1
 40
1
 40
1
 40
1
 10
48.154167
 20
65.967470
 30
0.0
 10
47.465935
 20
66.322236
 30
0.0
 10
46.959954
 20
66.657612
 30
0.0
 10
46.513750
 20
67.054775
 30
0.0
  0
SPLINE
  5
1a5
100
AcDbEntity
  8
Layer_2
 62
7
100
AcDbSpline
 70
8
 71
3
 72
8
 73
4
 74
0
 40
0
 40
0
 40
0
 40
0
 40
1
 40
1
 40
1
 40
1
 10
46.513750
 20
67.054775
 30
0.0
 10
46.118391
 20
67.406681
 30
0.0
 10
45.653359
 20
67.910459
 30
0.0
 10
45.725649
 20
67.908535
 30
0.0
  0
SPLINE
  5
1a6
100
AcDbEntity
  8
Layer_2
 62
7
100
AcDbSpline
 70
8
 71
3
 72
8
 73
4
 74
0
 40
0
 40
0
 40
0
 40
0
 40
1
 40
1
 40
1
 40
1
 10
45.725649
 20
67.908535
 30
0.0
 10
45.751657
 20
67.907741
 30
0.0
 10
45.868167
 20
67.883770
 30
0.0
 10
45.984583
 20
67.855007
 30
0.0
  0
SPLINE
  5
1a7
100
AcDbEntity
  8
Layer_2
 62
7
100
AcDbSpline
 70
8
 71
3
 72
8
 73
4
 74
0
 40
0
 40
0
 40
0
 40
0
 40
1
 40
1
 40
1
 40
1
 10
45.984583
 20
67.855007
 30
0.0
 10
47.298068
 20
67.530636
 30
0.0
 10
47.902503
 20
67.513137
 30
0.0
 10
48.490767
 20
67.782451
 30
0.0
  0
SPLINE
  5
1a8
100
AcDbEntity
  8
Layer_2
 62
7
100
AcDbSpline
 70
8
 71
3
 72
8
 73
4
 74
0
 40
0
 40
0
 40
0
 40
0
 40
1
 40
1
 40
1
 40
1
 10
48.490767
 20
67.782451
 30
0.0
 10
48.731011
 20
67.892441
 30
0.0
 10
49.079436
 20
68.234208
 30
0.0
 10
49.222935
 20
68.500630
 30
0.0
  0
LWPOLYLINE
  5
1a9
100
AcDbEntity
  8
Layer_2
 62
7
100
AcDbPolyline
 90
3
 70
0
 10
49.445870
 20
56.898887
 30
0.0
 10
49.345945
 20
57.003185
 30
0.0
 10
49.499710
 20
56.966752
 30
0.0
  0
SPLINE
  5
1aa
100
AcDbEntity
  8
Layer_2
 62
7
100
AcDbSpline
 70
8
 71
3
 72
8
 73
4
 74
0
 40
0
 40
0
 40
0
 40
0
 40
1
 40
1
 40
1
 40
1
 10
49.240575
 20
68.700841
 30
0.0
 10
49.196030
 20
68.710233
 30
0.0
 10
49.075446
 20
68.734538
 30
0.0
 10
48.972610
 20
68.754839
 30
0.0
  0
SPLINE
  5
1ab
100
AcDbEntity
  8
Layer_2
 62
7
100
AcDbSpline
 70
8
 71
3
 72
8
 73
4
 74
0
 40
0
 40
0
 40
0
 40
0
 40
1
 40
1
 40
1
 40
1
 10
48.972610
 20
68.754839
 30
0.0
 10
48.869777
 20
68.775133
 30
0.0
 10
48.734840
 20
68.817736
 30
0.0
 10
48.672750
 20
68.849497
 30
0.0
  0
SPLINE
  5
1ac
100
AcDbEntity
  8
Layer_2
 62
7
100
AcDbSpline
 70
8
 71
3
 72
8
 73
4
 74
0
 40
0
 40
0
 40
0
 40
0
 40
1
 40
1
 40
1
 40
1
 10
48.672750
 20
68.849497
 30
0.0
 10
48.533619
 20
68.920664
 30
0.0
 10
48.286524
 20
69.112249
 30
0.0
 10
48.307204
 20
69.132926
 30
0.0
  0
SPLINE
  5
1ad
100
AcDbEntity
  8
Layer_2
 62
7
100
AcDbSpline
 70
8
 71
3
 72
8
 73
4
 74
0
 40
0
 40
0
 40
0
 40
0
 40
1
 40
1
 40
1
 40
1
 10
48.307204
 20
69.132926
 30
0.0
 10
48.315565
 20
69.141261
 30
0.0
 10
48.471066
 20
69.121523
 30
0.0
 10
48.652790
 20
69.089053
 30
0.0
  0
SPLINE
  5
1ae
100
AcDbEntity
  8
Layer_2
 62
7
100
AcDbSpline
 70
8
 71
3
 72
8
 73
4
 74
0
 40
0
 40
0
 40
0
 40
0
 40
1
 40
1
 40
1
 40
1
 10
48.652790
 20
69.089053
 30
0.0
 10
49.117451
 20
69.006008
 30
0.0
 10
49.964583
 20
69.005918
 30
0.0
 10
50.270833
 20
69.088878
 30
0.0
  0
SPLINE
  5
1af
100
AcDbEntity
  8
Layer_2
 62
7
100
AcDbSpline
 70
8
 71
3
 72
8
 73
4
 74
0
 40
0
 40
0
 40
0
 40
0
 40
1
 40
1
 40
1
 40
1
 10
50.270833
 20
69.088878
 30
0.0
 10
50.834785
 20
69.241654
 30
0.0
 10
51.238774
 20
69.572463
 30
0.0
 10
51.500852
 20
70.096081
 30
0.0
  0
SPLINE
  5
1b0
100
AcDbEntity
  8
Layer_2
 62
7
100
AcDbSpline
 70
8
 71
3
 72
8
 73
4
 74
0
 40
0
 40
0
 40
0
 40
0
 40
1
 40
1
 40
1
 40
1
 10
51.500852
 20
70.096081
 30
0.0
 10
51.581050
 20
70.256310
 30
0.0
 10
51.646667
 20
70.409379
 30
0.0
 10
51.646667
 20
70.436237
 30
0.0
  0
SPLINE
  5
1b1
100
AcDbEntity
  8
Layer_2
 62
7
100
AcDbSpline
 70
8
 71
3
 72
8
 73
4
 74
0
 40
0
 40
0
 40
0
 40
0
 40
1
 40
1
 40
1
 40
1
 10
51.646667
 20
70.436237
 30
0.0
 10
51.646667
 20
70.467802
 30
0.0
 10
51.606122
 20
70.485087
 30
0.0
 10
51.532015
 20
70.485116
 30
0.0
  0
SPLINE
  5
1b2
100
AcDbEntity
  8
Layer_2
 62
7
100
AcDbSpline
 70
8
 71
3
 72
8
 73
4
 74
0
 40
0
 40
0
 40
0
 40
0
 40
1
 40
1
 40
1
 40
1
 10
51.532015
 20
70.485116
 30
0.0
 10
50.641655
 20
70.485381
 30
0.0
 10
47.842792
 20
71.526934
 30
0.0
 10
46.569217
 20
72.331747
 30
0.0
  0
LWPOLYLINE
  5
1b3
100
AcDbEntity
  8
Layer_2
 62
7
100
AcDbPolyline
 90
3
 70
0
 10
49.222935
 20
68.500630
 30
0.0
 10
49.321564
 20
68.683748
 30
0.0
 10
49.240575
 20
68.700841
 30
0.0
  0
SPLINE
  5
1b4
100
AcDbEntity
  8
Layer_2
 62
7
100
AcDbSpline
 70
8
 71
3
 72
8
 73
4
 74
0
 40
0
 40
0
 40
0
 40
0
 40
1
 40
1
 40
1
 40
1
 10
46.637223
 20
72.500384
 30
0.0
 10
47.313133
 20
72.550271
 30
0.0
 10
47.866488
 20
72.874934
 30
0.0
 10
48.373242
 20
73.518948
 30
0.0
  0
SPLINE
  5
1b5
100
AcDbEntity
  8
Layer_2
 62
7
100
AcDbSpline
 70
8
 71
3
 72
8
 73
4
 74
0
 40
0
 40
0
 40
0
 40
0
 40
1
 40
1
 40
1
 40
1
 10
48.373242
 20
73.518948
 30
0.0
 10
48.481316
 20
73.656294
 30
0.0
 10
48.612777
 20
73.874856
 30
0.0
 10
48.612777
 20
73.917190
 30
0.0
  0
SPLINE
  5
1b6
100
AcDbEntity
  8
Layer_2
 62
7
100
AcDbSpline
 70
8
 71
3
 72
8
 73
4
 74
0
 40
0
 40
0
 40
0
 40
0
 40
1
 40
1
 40
1
 40
1
 10
48.612777
 20
73.917190
 30
0.0
 10
48.612777
 20
73.924720
 30
0.0
 10
48.418308
 20
74.023119
 30
0.0
 10
48.180625
 20
74.135854
 30
0.0
  0
SPLINE
  5
1b7
100
AcDbEntity
  8
Layer_2
 62
7
100
AcDbSpline
 70
8
 71
3
 72
8
 73
4
 74
0
 40
0
 40
0
 40
0
 40
0
 40
1
 40
1
 40
1
 40
1
 10
48.180625
 20
74.135854
 30
0.0
 10
47.034738
 20
74.679354
 30
0.0
 10
46.510170
 20
74.943140
 30
0.0
 10
46.072777
 20
75.195808
 30
0.0
  0
SPLINE
  5
1b8
100
AcDbEntity
  8
Layer_2
 62
7
100
AcDbSpline
 70
8
 71
3
 72
8
 73
4
 74
0
 40
0
 40
0
 40
0
 40
0
 40
1
 40
1
 40
1
 40
1
 10
46.072777
 20
75.195808
 30
0.0
 10
45.810839
 20
75.347122
 30
0.0
 10
45.429839
 20
75.549844
 30
0.0
 10
45.226110
 20
75.646301
 30
0.0
  0
SPLINE
  5
1b9
100
AcDbEntity
  8
Layer_2
 62
7
100
AcDbSpline
 70
8
 71
3
 72
8
 73
4
 74
0
 40
0
 40
0
 40
0
 40
0
 40
1
 40
1
 40
1
 40
1
 10
45.226110
 20
75.646301
 30
0.0
 10
43.268932
 20
76.572944
 30
0.0
 10
42.765046
 20
76.860286
 30
0.0
 10
42.320506
 20
77.303222
 30
0.0
  0
SPLINE
  5
1ba
100
AcDbEntity
  8
Layer_2
 62
7
100
AcDbSpline
 70
8
 71
3
 72
8
 73
4
 74
0
 40
0
 40
0
 40
0
 40
0
 40
1
 40
1
 40
1
 40
1
 10
42.320506
 20
77.303222
 30
0.0
 10
42.167929
 20
77.455248
 30
0.0
 10
42.049920
 20
77.586457
 30
0.0
 10
42.058259
 20
77.594798
 30
0.0
  0
SPLINE
  5
1bb
100
AcDbEntity
  8
Layer_2
 62
7
100
AcDbSpline
 70
8
 71
3
 72
8
 73
4
 74
0
 40
0
 40
0
 40
0
 40
0
 40
1
 40
1
 40
1
 40
1
 10
42.058259
 20
77.594798
 30
0.0
 10
42.066594
 20
77.603138
 30
0.0
 10
42.127829
 20
77.594348
 30
0.0
 10
42.194324
 20
77.575287
 30
0.0
  0
SPLINE
  5
1bc
100
AcDbEntity
  8
Layer_2
 62
7
100
AcDbSpline
 70
8
 71
3
 72
8
 73
4
 74
0
 40
0
 40
0
 40
0
 40
0
 40
1
 40
1
 40
1
 40
1
 10
42.194324
 20
77.575287
 30
0.0
 10
42.260824
 20
77.556216
 30
0.0
 10
42.484212
 20
77.540613
 30
0.0
 10
42.690751
 20
77.540613
 30
0.0
  0
SPLINE
  5
1bd
100
AcDbEntity
  8
Layer_2
 62
7
100
AcDbSpline
 70
8
 71
3
 72
8
 73
4
 74
0
 40
0
 40
0
 40
0
 40
0
 40
1
 40
1
 40
1
 40
1
 10
42.690751
 20
77.540613
 30
0.0
 10
43.268331
 20
77.540613
 30
0.0
 10
43.772278
 20
77.709172
 30
0.0
 10
44.264792
 20
78.067096
 30
0.0
  0
SPLINE
  5
1be
100
AcDbEntity
  8
Layer_2
 62
7
100
AcDbSpline
 70
8
 71
3
 72
8
 73
4
 74
0
 40
0
 40
0
 40
0
 40
0
 40
1
 40
1
 40
1
 40
1
 10
44.264792
 20
78.067096
 30
0.0
 10
44.347254
 20
78.127024
 30
0.0
 10
44.414723
 20
78.188105
 30
0.0
 10
44.414723
 20
78.202832
 30
0.0
  0
SPLINE
  5
1bf
100
AcDbEntity
  8
Layer_2
 62
7
100
AcDbSpline
 70
8
 71
3
 72
8
 73
4
 74
0
 40
0
 40
0
 40
0
 40
0
 40
1
 40
1
 40
1
 40
1
 10
44.414723
 20
78.202832
 30
0.0
 10
44.414723
 20
78.217558
 30
0.0
 10
44.333223
 20
78.258553
 30
0.0
 10
44.233616
 20
78.293931
 30
0.0
  0
SPLINE
  5
1c0
100
AcDbEntity
  8
Layer_2
 62
7
100
AcDbSpline
 70
8
 71
3
 72
8
 73
4
 74
0
 40
0
 40
0
 40
0
 40
0
 40
1
 40
1
 40
1
 40
1
 10
44.233616
 20
78.293931
 30
0.0
 10
44.134005
 20
78.329309
 30
0.0
 10
43.987162
 20
78.420349
 30
0.0
 10
43.907297
 20
78.496243
 30
0.0
  0
SPLINE
  5
1c1
100
AcDbEntity
  8
Layer_2
 62
7
100
AcDbSpline
 70
8
 71
3
 72
8
 73
4
 74
0
 40
0
 40
0
 40
0
 40
0
 40
1
 40
1
 40
1
 40
1
 10
43.907297
 20
78.496243
 30
0.0
 10
43.768378
 20
78.628252
 30
0.0
 10
43.766859
 20
78.631921
 30
0.0
 10
43.872322
 20
78.580929
 30
0.0
  0
SPLINE
  5
1c2
100
AcDbEntity
  8
Layer_2
 62
7
100
AcDbSpline
 70
8
 71
3
 72
8
 73
4
 74
0
 40
0
 40
0
 40
0
 40
0
 40
1
 40
1
 40
1
 40
1
 10
43.872322
 20
78.580929
 30
0.0
 10
44.250787
 20
78.397937
 30
0.0
 10
44.927755
 20
78.432469
 30
0.0
 10
45.546653
 20
78.666335
 30
0.0
  0
SPLINE
  5
1c3
100
AcDbEntity
  8
Layer_2
 62
7
100
AcDbSpline
 70
8
 71
3
 72
8
 73
4
 74
0
 40
0
 40
0
 40
0
 40
0
 40
1
 40
1
 40
1
 40
1
 10
45.546653
 20
78.666335
 30
0.0
 10
45.767850
 20
78.749921
 30
0.0
 10
46.186532
 20
78.993121
 30
0.0
 10
46.205090
 20
79.048806
 30
0.0
  0
SPLINE
  5
1c4
100
AcDbEntity
  8
Layer_2
 62
7
100
AcDbSpline
 70
8
 71
3
 72
8
 73
4
 74
0
 40
0
 40
0
 40
0
 40
0
 40
1
 40
1
 40
1
 40
1
 10
46.205090
 20
79.048806
 30
0.0
 10
46.211757
 20
79.068804
 30
0.0
 10
45.982308
 20
79.208215
 30
0.0
 10
45.695203
 20
79.358608
 30
0.0
  0
SPLINE
  5
1c5
100
AcDbEntity
  8
Layer_2
 62
7
100
AcDbSpline
 70
8
 71
3
 72
8
 73
4
 74
0
 40
0
 40
0
 40
0
 40
0
 40
1
 40
1
 40
1
 40
1
 10
45.695203
 20
79.358608
 30
0.0
 10
45.183978
 20
79.626401
 30
0.0
 10
44.928459
 20
79.762128
 30
0.0
 10
44.502917
 20
79.991931
 30
0.0
  0
SPLINE
  5
1c6
100
AcDbEntity
  8
Layer_2
 62
7
100
AcDbSpline
 70
8
 71
3
 72
8
 73
4
 74
0
 40
0
 40
0
 40
0
 40
0
 40
1
 40
1
 40
1
 40
1
 10
44.502917
 20
79.991931
 30
0.0
 10
44.386500
 20
80.054798
 30
0.0
 10
44.164250
 20
80.173961
 30
0.0
 10
44.009027
 20
80.256737
 30
0.0
  0
SPLINE
  5
1c7
100
AcDbEntity
  8
Layer_2
 62
7
100
AcDbSpline
 70
8
 71
3
 72
8
 73
4
 74
0
 40
0
 40
0
 40
0
 40
0
 40
1
 40
1
 40
1
 40
1
 10
44.009027
 20
80.256737
 30
0.0
 10
43.853806
 20
80.339513
 30
0.0
 10
43.679181
 20
80.434807
 30
0.0
 10
43.620973
 20
80.468501
 30
0.0
  0
SPLINE
  5
1c8
100
AcDbEntity
  8
Layer_2
 62
7
100
AcDbSpline
 70
8
 71
3
 72
8
 73
4
 74
0
 40
0
 40
0
 40
0
 40
0
 40
1
 40
1
 40
1
 40
1
 10
43.620973
 20
80.468501
 30
0.0
 10
43.562765
 20
80.502194
 30
0.0
 10
43.404015
 20
80.589893
 30
0.0
 10
43.268194
 20
80.663387
 30
0.0
  0
SPLINE
  5
1c9
100
AcDbEntity
  8
Layer_2
 62
7
100
AcDbSpline
 70
8
 71
3
 72
8
 73
4
 74
0
 40
0
 40
0
 40
0
 40
0
 40
1
 40
1
 40
1
 40
1
 10
43.268194
 20
80.663387
 30
0.0
 10
42.720570
 20
80.959714
 30
0.0
 10
41.257495
 20
81.822044
 30
0.0
 10
41.177647
 20
81.895546
 30
0.0
  0
SPLINE
  5
1ca
100
AcDbEntity
  8
Layer_2
 62
7
100
AcDbSpline
 70
8
 71
3
 72
8
 73
4
 74
0
 40
0
 40
0
 40
0
 40
0
 40
1
 40
1
 40
1
 40
1
 10
41.177647
 20
81.895546
 30
0.0
 10
41.172619
 20
81.900181
 30
0.0
 10
41.332973
 20
81.904986
 30
0.0
 10
41.534006
 20
81.906222
 30
0.0
  0
SPLINE
  5
1cb
100
AcDbEntity
  8
Layer_2
 62
7
100
AcDbSpline
 70
8
 71
3
 72
8
 73
4
 74
0
 40
0
 40
0
 40
0
 40
0
 40
1
 40
1
 40
1
 40
1
 10
41.534006
 20
81.906222
 30
0.0
 10
41.931497
 20
81.908656
 30
0.0
 10
42.206860
 20
81.967738
 30
0.0
 10
42.566434
 20
82.127715
 30
0.0
  0
SPLINE
  5
1cc
100
AcDbEntity
  8
Layer_2
 62
7
100
AcDbSpline
 70
8
 71
3
 72
8
 73
4
 74
0
 40
0
 40
0
 40
0
 40
0
 40
1
 40
1
 40
1
 40
1
 10
42.566434
 20
82.127715
 30
0.0
 10
42.830493
 20
82.245198
 30
0.0
 10
43.285833
 20
82.508467
 30
0.0
 10
43.285833
 20
82.543660
 30
0.0
  0
SPLINE
  5
1cd
100
AcDbEntity
  8
Layer_2
 62
7
100
AcDbSpline
 70
8
 71
3
 72
8
 73
4
 74
0
 40
0
 40
0
 40
0
 40
0
 40
1
 40
1
 40
1
 40
1
 10
43.285833
 20
82.543660
 30
0.0
 10
43.285833
 20
82.564871
 30
0.0
 10
42.650283
 20
82.958669
 30
0.0
 10
42.387501
 20
83.100281
 30
0.0
  0
SPLINE
  5
1ce
100
AcDbEntity
  8
Layer_2
 62
7
100
AcDbSpline
 70
8
 71
3
 72
8
 73
4
 74
0
 40
0
 40
0
 40
0
 40
0
 40
1
 40
1
 40
1
 40
1
 10
42.387501
 20
83.100281
 30
0.0
 10
42.155248
 20
83.225441
 30
0.0
 10
41.374486
 20
83.708482
 30
0.0
 10
41.243470
 20
83.808070
 30
0.0
  0
LWPOLYLINE
  5
1cf
100
AcDbEntity
  8
Layer_2
 62
7
100
AcDbPolyline
 90
3
 70
0
 10
46.569217
 20
72.331747
 30
0.0
 10
46.337360
 20
72.478239
 30
0.0
 10
46.637223
 20
72.500384
 30
0.0
  0
SPLINE
  5
1d0
100
AcDbEntity
  8
Layer_2
 62
7
100
AcDbSpline
 70
8
 71
3
 72
8
 73
4
 74
0
 40
0
 40
0
 40
0
 40
0
 40
1
 40
1
 40
1
 40
1
 10
41.444579
 20
83.925833
 30
0.0
 10
42.003020
 20
83.925833
 30
0.0
 10
42.358916
 20
84.023056
 30
0.0
 10
43.127083
 20
84.385451
 30
0.0
  0
SPLINE
  5
1d1
100
AcDbEntity
  8
Layer_2
 62
7
100
AcDbSpline
 70
8
 71
3
 72
8
 73
4
 74
0
 40
0
 40
0
 40
0
 40
0
 40
1
 40
1
 40
1
 40
1
 10
43.127083
 20
84.385451
 30
0.0
 10
43.359917
 20
84.495294
 30
0.0
 10
43.578198
 20
84.595068
 30
0.0
 10
43.612152
 20
84.607170
 30
0.0
  0
SPLINE
  5
1d2
100
AcDbEntity
  8
Layer_2
 62
7
100
AcDbSpline
 70
8
 71
3
 72
8
 73
4
 74
0
 40
0
 40
0
 40
0
 40
0
 40
1
 40
1
 40
1
 40
1
 10
43.612152
 20
84.607170
 30
0.0
 10
43.646109
 20
84.619272
 30
0.0
 10
43.673890
 20
84.642937
 30
0.0
 10
43.673890
 20
84.659758
 30
0.0
  0
SPLINE
  5
1d3
100
AcDbEntity
  8
Layer_2
 62
7
100
AcDbSpline
 70
8
 71
3
 72
8
 73
4
 74
0
 40
0
 40
0
 40
0
 40
0
 40
1
 40
1
 40
1
 40
1
 10
43.673890
 20
84.659758
 30
0.0
 10
43.673890
 20
84.693073
 30
0.0
 10
42.784202
 20
85.286463
 30
0.0
 10
41.998194
 20
85.777385
 30
0.0
  0
SPLINE
  5
1d4
100
AcDbEntity
  8
Layer_2
 62
7
100
AcDbSpline
 70
8
 71
3
 72
8
 73
4
 74
0
 40
0
 40
0
 40
0
 40
0
 40
1
 40
1
 40
1
 40
1
 10
41.998194
 20
85.777385
 30
0.0
 10
41.398261
 20
86.152089
 30
0.0
 10
40.197603
 20
87.002820
 30
0.0
 10
39.750219
 20
87.370194
 30
0.0
  0
SPLINE
  5
1d5
100
AcDbEntity
  8
Layer_2
 62
7
100
AcDbSpline
 70
8
 71
3
 72
8
 73
4
 74
0
 40
0
 40
0
 40
0
 40
0
 40
1
 40
1
 40
1
 40
1
 10
39.750219
 20
87.370194
 30
0.0
 10
39.570202
 20
87.518017
 30
0.0
 10
39.313181
 20
87.751563
 30
0.0
 10
39.179058
 20
87.889186
 30
0.0
  0
SPLINE
  5
1d6
100
AcDbEntity
  8
Layer_2
 62
7
100
AcDbSpline
 70
8
 71
3
 72
8
 73
4
 74
0
 40
0
 40
0
 40
0
 40
0
 40
1
 40
1
 40
1
 40
1
 10
39.179058
 20
87.889186
 30
0.0
 10
38.911660
 20
88.163567
 30
0.0
 10
38.603960
 20
88.608451
 30
0.0
 10
38.651815
 20
88.651495
 30
0.0
  0
SPLINE
  5
1d7
100
AcDbEntity
  8
Layer_2
 62
7
100
AcDbSpline
 70
8
 71
3
 72
8
 73
4
 74
0
 40
0
 40
0
 40
0
 40
0
 40
1
 40
1
 40
1
 40
1
 10
38.651815
 20
88.651495
 30
0.0
 10
38.668457
 20
88.666468
 30
0.0
 10
38.817021
 20
88.726964
 30
0.0
 10
38.981944
 20
88.785929
 30
0.0
  0
SPLINE
  5
1d8
100
AcDbEntity
  8
Layer_2
 62
7
100
AcDbSpline
 70
8
 71
3
 72
8
 73
4
 74
0
 40
0
 40
0
 40
0
 40
0
 40
1
 40
1
 40
1
 40
1
 10
38.981944
 20
88.785929
 30
0.0
 10
39.712903
 20
89.047269
 30
0.0
 10
40.511172
 20
89.432689
 30
0.0
 10
40.637997
 20
89.585504
 30
0.0
  0
SPLINE
  5
1d9
100
AcDbEntity
  8
Layer_2
 62
7
100
AcDbSpline
 70
8
 71
3
 72
8
 73
4
 74
0
 40
0
 40
0
 40
0
 40
0
 40
1
 40
1
 40
1
 40
1
 10
40.637997
 20
89.585504
 30
0.0
 10
40.708212
 20
89.670110
 30
0.0
 10
40.657947
 20
89.790047
 30
0.0
 10
40.434559
 20
90.070844
 30
0.0
  0
SPLINE
  5
1da
100
AcDbEntity
  8
Layer_2
 62
7
100
AcDbSpline
 70
8
 71
3
 72
8
 73
4
 74
0
 40
0
 40
0
 40
0
 40
0
 40
1
 40
1
 40
1
 40
1
 10
40.434559
 20
90.070844
 30
0.0
 10
40.210018
 20
90.353106
 30
0.0
 10
39.886752
 20
90.654307
 30
0.0
 10
39.158333
 20
91.259966
 30
0.0
  0
SPLINE
  5
1db
100
AcDbEntity
  8
Layer_2
 62
7
100
AcDbSpline
 70
8
 71
3
 72
8
 73
4
 74
0
 40
0
 40
0
 40
0
 40
0
 40
1
 40
1
 40
1
 40
1
 10
39.158333
 20
91.259966
 30
0.0
 10
38.570217
 20
91.748967
 30
0.0
 10
38.071893
 20
92.235461
 30
0.0
 10
37.867196
 20
92.520452
 30
0.0
  0
SPLINE
  5
1dc
100
AcDbEntity
  8
Layer_2
 62
7
100
AcDbSpline
 70
8
 71
3
 72
8
 73
4
 74
0
 40
0
 40
0
 40
0
 40
0
 40
1
 40
1
 40
1
 40
1
 10
37.867196
 20
92.520452
 30
0.0
 10
37.781809
 20
92.639333
 30
0.0
 10
37.711944
 20
92.745166
 30
0.0
 10
37.711944
 20
92.755637
 30
0.0
  0
SPLINE
  5
1dd
100
AcDbEntity
  8
Layer_2
 62
7
100
AcDbSpline
 70
8
 71
3
 72
8
 73
4
 74
0
 40
0
 40
0
 40
0
 40
0
 40
1
 40
1
 40
1
 40
1
 10
37.711944
 20
92.755637
 30
0.0
 10
37.711944
 20
92.766110
 30
0.0
 10
37.850850
 20
92.774296
 30
0.0
 10
38.020625
 20
92.773830
 30
0.0
  0
SPLINE
  5
1de
100
AcDbEntity
  8
Layer_2
 62
7
100
AcDbSpline
 70
8
 71
3
 72
8
 73
4
 74
0
 40
0
 40
0
 40
0
 40
0
 40
1
 40
1
 40
1
 40
1
 10
38.020625
 20
92.773830
 30
0.0
 10
38.190400
 20
92.773354
 30
0.0
 10
38.406808
 20
92.791100
 30
0.0
 10
38.501532
 20
92.813241
 30
0.0
  0
SPLINE
  5
1df
100
AcDbEntity
  8
Layer_2
 62
7
100
AcDbSpline
 70
8
 71
3
 72
8
 73
4
 74
0
 40
0
 40
0
 40
0
 40
0
 40
1
 40
1
 40
1
 40
1
 10
38.501532
 20
92.813241
 30
0.0
 10
38.696273
 20
92.858758
 30
0.0
 10
39.052500
 20
93.023733
 30
0.0
 10
39.052500
 20
93.068402
 30
0.0
  0
SPLINE
  5
1e0
100
AcDbEntity
  8
Layer_2
 62
7
100
AcDbSpline
 70
8
 71
3
 72
8
 73
4
 74
0
 40
0
 40
0
 40
0
 40
0
 40
1
 40
1
 40
1
 40
1
 10
39.052500
 20
93.068402
 30
0.0
 10
39.052500
 20
93.084602
 30
0.0
 10
38.979367
 20
93.197120
 30
0.0
 10
38.889982
 20
93.318441
 30
0.0
  0
SPLINE
  5
1e1
100
AcDbEntity
  8
Layer_2
 62
7
100
AcDbSpline
 70
8
 71
3
 72
8
 73
4
 74
0
 40
0
 40
0
 40
0
 40
0
 40
1
 40
1
 40
1
 40
1
 10
38.889982
 20
93.318441
 30
0.0
 10
38.705219
 20
93.569221
 30
0.0
 10
38.615877
 20
93.736752
 30
0.0
 10
38.452523
 20
94.138749
 30
0.0
  0
SPLINE
  5
1e2
100
AcDbEntity
  8
Layer_2
 62
7
100
AcDbSpline
 70
8
 71
3
 72
8
 73
4
 74
0
 40
0
 40
0
 40
0
 40
0
 40
1
 40
1
 40
1
 40
1
 10
38.452523
 20
94.138749
 30
0.0
 10
38.389452
 20
94.293971
 30
0.0
 10
38.234988
 20
94.635284
 30
0.0
 10
38.109271
 20
94.897221
 30
0.0
  0
SPLINE
  5
1e3
100
AcDbEntity
  8
Layer_2
 62
7
100
AcDbSpline
 70
8
 71
3
 72
8
 73
4
 74
0
 40
0
 40
0
 40
0
 40
0
 40
1
 40
1
 40
1
 40
1
 10
38.109271
 20
94.897221
 30
0.0
 10
37.983560
 20
95.159159
 30
0.0
 10
37.835798
 20
95.489568
 30
0.0
 10
37.780913
 20
95.631463
 30
0.0
  0
SPLINE
  5
1e4
100
AcDbEntity
  8
Layer_2
 62
7
100
AcDbSpline
 70
8
 71
3
 72
8
 73
4
 74
0
 40
0
 40
0
 40
0
 40
0
 40
1
 40
1
 40
1
 40
1
 10
37.780913
 20
95.631463
 30
0.0
 10
37.683040
 20
95.884495
 30
0.0
 10
37.682405
 20
95.890738
 30
0.0
 10
37.747832
 20
95.956163
 30
0.0
  0
SPLINE
  5
1e5
100
AcDbEntity
  8
Layer_2
 62
7
100
AcDbSpline
 70
8
 71
3
 72
8
 73
4
 74
0
 40
0
 40
0
 40
0
 40
0
 40
1
 40
1
 40
1
 40
1
 10
37.747832
 20
95.956163
 30
0.0
 10
37.895104
 20
96.103436
 30
0.0
 10
37.958890
 20
96.321703
 30
0.0
 10
37.958890
 20
96.678383
 30
0.0
  0
SPLINE
  5
1e6
100
AcDbEntity
  8
Layer_2
 62
7
100
AcDbSpline
 70
8
 71
3
 72
8
 73
4
 74
0
 40
0
 40
0
 40
0
 40
0
 40
1
 40
1
 40
1
 40
1
 10
37.958890
 20
96.678383
 30
0.0
 10
37.958890
 20
97.238427
 30
0.0
 10
37.790723
 20
97.831977
 30
0.0
 10
37.409057
 20
98.619027
 30
0.0
  0
SPLINE
  5
1e7
100
AcDbEntity
  8
Layer_2
 62
7
100
AcDbSpline
 70
8
 71
3
 72
8
 73
4
 74
0
 40
0
 40
0
 40
0
 40
0
 40
1
 40
1
 40
1
 40
1
 10
37.409057
 20
98.619027
 30
0.0
 10
37.037478
 20
99.385274
 30
0.0
 10
36.697179
 20
99.763849
 30
0.0
 10
36.325799
 20
99.824116
 30
0.0
  0
SPLINE
  5
1e8
100
AcDbEntity
  8
Layer_2
 62
7
100
AcDbSpline
 70
8
 71
3
 72
8
 73
4
 74
0
 40
0
 40
0
 40
0
 40
0
 40
1
 40
1
 40
1
 40
1
 10
36.325799
 20
99.824116
 30
0.0
 10
36.060949
 20
99.867095
 30
0.0
 10
35.781835
 20
99.622483
 30
0.0
 10
35.522956
 20
99.120511
 30
0.0
  0
SPLINE
  5
1e9
100
AcDbEntity
  8
Layer_2
 62
7
100
AcDbSpline
 70
8
 71
3
 72
8
 73
4
 74
0
 40
0
 40
0
 40
0
 40
0
 40
1
 40
1
 40
1
 40
1
 10
35.522956
 20
99.120511
 30
0.0
 10
35.440750
 20
98.961111
 30
0.0
 10
35.322978
 20
98.759256
 30
0.0
 10
35.261246
 20
98.671943
 30
0.0
  0
SPLINE
  5
1ea
100
AcDbEntity
  8
Layer_2
 62
7
100
AcDbSpline
 70
8
 71
3
 72
8
 73
4
 74
0
 40
0
 40
0
 40
0
 40
0
 40
1
 40
1
 40
1
 40
1
 10
35.261246
 20
98.671943
 30
0.0
 10
35.094823
 20
98.436570
 30
0.0
 10
35.012770
 20
98.285431
 30
0.0
 10
34.465583
 20
97.206328
 30
0.0
  0
SPLINE
  5
1eb
100
AcDbEntity
  8
Layer_2
 62
7
100
AcDbSpline
 70
8
 71
3
 72
8
 73
4
 74
0
 40
0
 40
0
 40
0
 40
0
 40
1
 40
1
 40
1
 40
1
 10
34.465583
 20
97.206328
 30
0.0
 10
34.190977
 20
96.664778
 30
0.0
 10
33.889680
 20
96.078467
 30
0.0
 10
33.796036
 20
95.903415
 30
0.0
  0
SPLINE
  5
1ec
100
AcDbEntity
  8
Layer_2
 62
7
100
AcDbSpline
 70
8
 71
3
 72
8
 73
4
 74
0
 40
0
 40
0
 40
0
 40
0
 40
1
 40
1
 40
1
 40
1
 10
33.796036
 20
95.903415
 30
0.0
 10
33.546889
 20
95.437680
 30
0.0
 10
33.504772
 20
95.278120
 30
0.0
 10
33.297648
 20
94.015277
 30
0.0
  0
SPLINE
  5
1ed
100
AcDbEntity
  8
Layer_2
 62
7
100
AcDbSpline
 70
8
 71
3
 72
8
 73
4
 74
0
 40
0
 40
0
 40
0
 40
0
 40
1
 40
1
 40
1
 40
1
 10
33.297648
 20
94.015277
 30
0.0
 10
33.248955
 20
93.718379
 30
0.0
 10
33.135985
 20
93.327613
 30
0.0
 10
33.049980
 20
93.158581
 30
0.0
  0
SPLINE
  5
1ee
100
AcDbEntity
  8
Layer_2
 62
7
100
AcDbSpline
 70
8
 71
3
 72
8
 73
4
 74
0
 40
0
 40
0
 40
0
 40
0
 40
1
 40
1
 40
1
 40
1
 10
33.049980
 20
93.158581
 30
0.0
 10
33.012621
 20
93.085155
 30
0.0
 10
32.990893
 20
93.010776
 30
0.0
 10
33.001699
 20
92.993295
 30
0.0
  0
SPLINE
  5
1ef
100
AcDbEntity
  8
Layer_2
 62
7
100
AcDbSpline
 70
8
 71
3
 72
8
 73
4
 74
0
 40
0
 40
0
 40
0
 40
0
 40
1
 40
1
 40
1
 40
1
 10
33.001699
 20
92.993295
 30
0.0
 10
33.012494
 20
92.975814
 30
0.0
 10
33.112321
 20
92.925552
 30
0.0
 10
33.223518
 20
92.881601
 30
0.0
  0
SPLINE
  5
1f0
100
AcDbEntity
  8
Layer_2
 62
7
100
AcDbSpline
 70
8
 71
3
 72
8
 73
4
 74
0
 40
0
 40
0
 40
0
 40
0
 40
1
 40
1
 40
1
 40
1
 10
33.223518
 20
92.881601
 30
0.0
 10
33.392637
 20
92.814757
 30
0.0
 10
33.494911
 20
92.801405
 30
0.0
 10
33.849027
 20
92.799942
 30
0.0
  0
SPLINE
  5
1f1
100
AcDbEntity
  8
Layer_2
 62
7
100
AcDbSpline
 70
8
 71
3
 72
8
 73
4
 74
0
 40
0
 40
0
 40
0
 40
0
 40
1
 40
1
 40
1
 40
1
 10
33.849027
 20
92.799942
 30
0.0
 10
34.258501
 20
92.798249
 30
0.0
 10
34.424570
 20
92.829073
 30
0.0
 10
34.791827
 20
92.974925
 30
0.0
  0
SPLINE
  5
1f2
100
AcDbEntity
  8
Layer_2
 62
7
100
AcDbSpline
 70
8
 71
3
 72
8
 73
4
 74
0
 40
0
 40
0
 40
0
 40
0
 40
1
 40
1
 40
1
 40
1
 10
34.791827
 20
92.974925
 30
0.0
 10
34.848991
 20
92.997627
 30
0.0
 10
34.849319
 20
92.987652
 30
0.0
 10
34.797198
 20
92.810449
 30
0.0
  0
SPLINE
  5
1f3
100
AcDbEntity
  8
Layer_2
 62
7
100
AcDbSpline
 70
8
 71
3
 72
8
 73
4
 74
0
 40
0
 40
0
 40
0
 40
0
 40
1
 40
1
 40
1
 40
1
 10
34.797198
 20
92.810449
 30
0.0
 10
34.611067
 20
92.177508
 30
0.0
 10
34.114587
 20
91.516980
 30
0.0
 10
32.915082
 20
90.306447
 30
0.0
  0
SPLINE
  5
1f4
100
AcDbEntity
  8
Layer_2
 62
7
100
AcDbSpline
 70
8
 71
3
 72
8
 73
4
 74
0
 40
0
 40
0
 40
0
 40
0
 40
1
 40
1
 40
1
 40
1
 10
32.915082
 20
90.306447
 30
0.0
 10
31.985733
 20
89.368550
 30
0.0
 10
32.015970
 20
89.403050
 30
0.0
 10
32.068156
 20
89.340169
 30
0.0
  0
SPLINE
  5
1f5
100
AcDbEntity
  8
Layer_2
 62
7
100
AcDbSpline
 70
8
 71
3
 72
8
 73
4
 74
0
 40
0
 40
0
 40
0
 40
0
 40
1
 40
1
 40
1
 40
1
 10
32.068156
 20
89.340169
 30
0.0
 10
32.187753
 20
89.196066
 30
0.0
 10
32.744354
 20
88.997261
 30
0.0
 10
33.159806
 20
88.950257
 30
0.0
  0
SPLINE
  5
1f6
100
AcDbEntity
  8
Layer_2
 62
7
100
AcDbSpline
 70
8
 71
3
 72
8
 73
4
 74
0
 40
0
 40
0
 40
0
 40
0
 40
1
 40
1
 40
1
 40
1
 10
33.159806
 20
88.950257
 30
0.0
 10
33.479499
 20
88.914088
 30
0.0
 10
33.482158
 20
88.904959
 30
0.0
 10
33.259281
 20
88.608837
 30
0.0
  0
SPLINE
  5
1f7
100
AcDbEntity
  8
Layer_2
 62
7
100
AcDbSpline
 70
8
 71
3
 72
8
 73
4
 74
0
 40
0
 40
0
 40
0
 40
0
 40
1
 40
1
 40
1
 40
1
 10
33.259281
 20
88.608837
 30
0.0
 10
32.989938
 20
88.250982
 30
0.0
 10
32.757197
 20
87.997770
 30
0.0
 10
32.034342
 20
87.276154
 30
0.0
  0
SPLINE
  5
1f8
100
AcDbEntity
  8
Layer_2
 62
7
100
AcDbSpline
 70
8
 71
3
 72
8
 73
4
 74
0
 40
0
 40
0
 40
0
 40
0
 40
1
 40
1
 40
1
 40
1
 10
32.034342
 20
87.276154
 30
0.0
 10
30.756061
 20
86.000061
 30
0.0
 10
29.180110
 20
84.581300
 30
0.0
 10
27.897087
 20
83.551561
 30
0.0
  0
SPLINE
  5
1f9
100
AcDbEntity
  8
Layer_2
 62
7
100
AcDbSpline
 70
8
 71
3
 72
8
 73
4
 74
0
 40
0
 40
0
 40
0
 40
0
 40
1
 40
1
 40
1
 40
1
 10
27.897087
 20
83.551561
 30
0.0
 10
27.445872
 20
83.189422
 30
0.0
 10
27.461287
 20
83.222995
 30
0.0
 10
27.615409
 20
82.938055
 30
0.0
  0
SPLINE
  5
1fa
100
AcDbEntity
  8
Layer_2
 62
7
100
AcDbSpline
 70
8
 71
3
 72
8
 73
4
 74
0
 40
0
 40
0
 40
0
 40
0
 40
1
 40
1
 40
1
 40
1
 10
27.615409
 20
82.938055
 30
0.0
 10
27.837638
 20
82.527195
 30
0.0
 10
28.263300
 20
82.250480
 30
0.0
 10
28.839575
 20
82.142249
 30
0.0
  0
SPLINE
  5
1fb
100
AcDbEntity
  8
Layer_2
 62
7
100
AcDbSpline
 70
8
 71
3
 72
8
 73
4
 74
0
 40
0
 40
0
 40
0
 40
0
 40
1
 40
1
 40
1
 40
1
 10
28.839575
 20
82.142249
 30
0.0
 10
29.088088
 20
82.095575
 30
0.0
 10
29.277593
 20
82.086675
 30
0.0
 10
29.711735
 20
82.101288
 30
0.0
  0
LWPOLYLINE
  5
1fc
100
AcDbEntity
  8
Layer_2
 62
7
100
AcDbPolyline
 90
3
 70
0
 10
41.243470
 20
83.808070
 30
0.0
 10
41.088466
 20
83.925833
 30
0.0
 10
41.444579
 20
83.925833
 30
0.0
  0
SPLINE
  5
1fd
100
AcDbEntity
  8
Layer_2
 62
7
100
AcDbSpline
 70
8
 71
3
 72
8
 73
4
 74
0
 40
0
 40
0
 40
0
 40
0
 40
1
 40
1
 40
1
 40
1
 10
30.047724
 20
81.955744
 30
0.0
 10
29.806522
 20
81.774609
 30
0.0
 10
29.386382
 20
81.391809
 30
0.0
 10
29.386382
 20
81.353180
 30
0.0
  0
SPLINE
  5
1fe
100
AcDbEntity
  8
Layer_2
 62
7
100
AcDbSpline
 70
8
 71
3
 72
8
 73
4
 74
0
 40
0
 40
0
 40
0
 40
0
 40
1
 40
1
 40
1
 40
1
 10
29.386382
 20
81.353180
 30
0.0
 10
29.386382
 20
81.320028
 30
0.0
 10
29.650772
 20
81.256553
 30
0.0
 10
30.056659
 20
81.192260
 30
0.0
  0
SPLINE
  5
1ff
100
AcDbEntity
  8
Layer_2
 62
7
100
AcDbSpline
 70
8
 71
3
 72
8
 73
4
 74
0
 40
0
 40
0
 40
0
 40
0
 40
1
 40
1
 40
1
 40
1
 10
30.056659
 20
81.192260
 30
0.0
 10
30.467633
 20
81.127160
 30
0.0
 10
31.147808
 20
81.125542
 30
0.0
 10
31.503049
 20
81.188817
 30
0.0
  0
SPLINE
  5
200
100
AcDbEntity
  8
Layer_2
 62
7
100
AcDbSpline
 70
8
 71
3
 72
8
 73
4
 74
0
 40
0
 40
0
 40
0
 40
0
 40
1
 40
1
 40
1
 40
1
 10
31.503049
 20
81.188817
 30
0.0
 10
31.648569
 20
81.214739
 30
0.0
 10
31.772823
 20
81.231405
 30
0.0
 10
31.779170
 20
81.225856
 30
0.0
  0
SPLINE
  5
201
100
AcDbEntity
  8
Layer_2
 62
7
100
AcDbSpline
 70
8
 71
3
 72
8
 73
4
 74
0
 40
0
 40
0
 40
0
 40
0
 40
1
 40
1
 40
1
 40
1
 10
31.779170
 20
81.225856
 30
0.0
 10
31.785520
 20
81.220308
 30
0.0
 10
31.690265
 20
81.147747
 30
0.0
 10
31.567504
 20
81.064612
 30
0.0
  0
SPLINE
  5
202
100
AcDbEntity
  8
Layer_2
 62
7
100
AcDbSpline
 70
8
 71
3
 72
8
 73
4
 74
0
 40
0
 40
0
 40
0
 40
0
 40
1
 40
1
 40
1
 40
1
 10
31.567504
 20
81.064612
 30
0.0
 10
31.252655
 20
80.851397
 30
0.0
 10
28.370660
 20
78.831061
 30
0.0
 10
26.413228
 20
77.451365
 30
0.0
  0
SPLINE
  5
203
100
AcDbEntity
  8
Layer_2
 62
7
100
AcDbSpline
 70
8
 71
3
 72
8
 73
4
 74
0
 40
0
 40
0
 40
0
 40
0
 40
1
 40
1
 40
1
 40
1
 10
26.413228
 20
77.451365
 30
0.0
 10
22.169995
 20
74.460519
 30
0.0
 10
19.986436
 20
72.917222
 30
0.0
 10
19.958507
 20
72.889293
 30
0.0
  0
SPLINE
  5
204
100
AcDbEntity
  8
Layer_2
 62
7
100
AcDbSpline
 70
8
 71
3
 72
8
 73
4
 74
0
 40
0
 40
0
 40
0
 40
0
 40
1
 40
1
 40
1
 40
1
 10
19.958507
 20
72.889293
 30
0.0
 10
19.849249
 20
72.780033
 30
0.0
 10
20.157669
 20
72.413209
 30
0.0
 10
20.519650
 20
72.221889
 30
0.0
  0
SPLINE
  5
205
100
AcDbEntity
  8
Layer_2
 62
7
100
AcDbSpline
 70
8
 71
3
 72
8
 73
4
 74
0
 40
0
 40
0
 40
0
 40
0
 40
1
 40
1
 40
1
 40
1
 10
20.519650
 20
72.221889
 30
0.0
 10
21.194383
 20
71.865268
 30
0.0
 10
22.317004
 20
71.622084
 30
0.0
 10
23.138742
 20
71.654540
 30
0.0
  0
SPLINE
  5
206
100
AcDbEntity
  8
Layer_2
 62
7
100
AcDbSpline
 70
8
 71
3
 72
8
 73
4
 74
0
 40
0
 40
0
 40
0
 40
0
 40
1
 40
1
 40
1
 40
1
 10
23.138742
 20
71.654540
 30
0.0
 10
23.388377
 20
71.664409
 30
0.0
 10
23.438151
 20
71.658377
 30
0.0
 10
23.392732
 20
71.623830
 30
0.0
  0
SPLINE
  5
207
100
AcDbEntity
  8
Layer_2
 62
7
100
AcDbSpline
 70
8
 71
3
 72
8
 73
4
 74
0
 40
0
 40
0
 40
0
 40
0
 40
1
 40
1
 40
1
 40
1
 10
23.392732
 20
71.623830
 30
0.0
 10
23.361662
 20
71.600203
 30
0.0
 10
23.323997
 20
71.580349
 30
0.0
 10
23.309031
 20
71.579732
 30
0.0
  0
SPLINE
  5
208
100
AcDbEntity
  8
Layer_2
 62
7
100
AcDbSpline
 70
8
 71
3
 72
8
 73
4
 74
0
 40
0
 40
0
 40
0
 40
0
 40
1
 40
1
 40
1
 40
1
 10
23.309031
 20
71.579732
 30
0.0
 10
23.260225
 20
71.577615
 30
0.0
 10
22.586563
 20
71.236843
 30
0.0
 10
22.465959
 20
71.153131
 30
0.0
  0
SPLINE
  5
209
100
AcDbEntity
  8
Layer_2
 62
7
100
AcDbSpline
 70
8
 71
3
 72
8
 73
4
 74
0
 40
0
 40
0
 40
0
 40
0
 40
1
 40
1
 40
1
 40
1
 10
22.465959
 20
71.153131
 30
0.0
 10
22.303774
 20
71.040562
 30
0.0
 10
22.107008
 20
70.871413
 30
0.0
 10
22.074262
 20
70.816412
 30
0.0
  0
SPLINE
  5
20a
100
AcDbEntity
  8
Layer_2
 62
7
100
AcDbSpline
 70
8
 71
3
 72
8
 73
4
 74
0
 40
0
 40
0
 40
0
 40
0
 40
1
 40
1
 40
1
 40
1
 10
22.074262
 20
70.816412
 30
0.0
 10
22.040495
 20
70.759696
 30
0.0
 10
22.326887
 20
70.541428
 30
0.0
 10
22.647285
 20
70.379691
 30
0.0
  0
SPLINE
  5
20b
100
AcDbEntity
  8
Layer_2
 62
7
100
AcDbSpline
 70
8
 71
3
 72
8
 73
4
 74
0
 40
0
 40
0
 40
0
 40
0
 40
1
 40
1
 40
1
 40
1
 10
22.647285
 20
70.379691
 30
0.0
 10
23.454758
 20
69.972081
 30
0.0
 10
24.909615
 20
69.760571
 30
0.0
 10
26.070270
 20
69.882054
 30
0.0
  0
SPLINE
  5
20c
100
AcDbEntity
  8
Layer_2
 62
7
100
AcDbSpline
 70
8
 71
3
 72
8
 73
4
 74
0
 40
0
 40
0
 40
0
 40
0
 40
1
 40
1
 40
1
 40
1
 10
26.070270
 20
69.882054
 30
0.0
 10
26.215791
 20
69.897294
 30
0.0
 10
26.339955
 20
69.905761
 30
0.0
 10
26.346191
 20
69.900866
 30
0.0
  0
SPLINE
  5
20d
100
AcDbEntity
  8
Layer_2
 62
7
100
AcDbSpline
 70
8
 71
3
 72
8
 73
4
 74
0
 40
0
 40
0
 40
0
 40
0
 40
1
 40
1
 40
1
 40
1
 10
26.346191
 20
69.900866
 30
0.0
 10
26.375966
 20
69.877556
 30
0.0
 10
25.703091
 20
69.495360
 30
0.0
 10
25.117770
 20
69.203107
 30
0.0
  0
SPLINE
  5
20e
100
AcDbEntity
  8
Layer_2
 62
7
100
AcDbSpline
 70
8
 71
3
 72
8
 73
4
 74
0
 40
0
 40
0
 40
0
 40
0
 40
1
 40
1
 40
1
 40
1
 10
25.117770
 20
69.203107
 30
0.0
 10
23.444951
 20
68.367865
 30
0.0
 10
20.942562
 20
67.423022
 30
0.0
 10
17.956381
 20
66.499131
 30
0.0
  0
SPLINE
  5
20f
100
AcDbEntity
  8
Layer_2
 62
7
100
AcDbSpline
 70
8
 71
3
 72
8
 73
4
 74
0
 40
0
 40
0
 40
0
 40
0
 40
1
 40
1
 40
1
 40
1
 10
17.956381
 20
66.499131
 30
0.0
 10
17.080675
 20
66.228201
 30
0.0
 10
16.933318
 20
66.175559
 30
0.0
 10
16.934572
 20
66.134107
 30
0.0
  0
SPLINE
  5
210
100
AcDbEntity
  8
Layer_2
 62
7
100
AcDbSpline
 70
8
 71
3
 72
8
 73
4
 74
0
 40
0
 40
0
 40
0
 40
0
 40
1
 40
1
 40
1
 40
1
 10
16.934572
 20
66.134107
 30
0.0
 10
16.936874
 20
66.057613
 30
0.0
 10
17.173761
 20
65.745154
 30
0.0
 10
17.407129
 20
65.510757
 30
0.0
  0
SPLINE
  5
211
100
AcDbEntity
  8
Layer_2
 62
7
100
AcDbSpline
 70
8
 71
3
 72
8
 73
4
 74
0
 40
0
 40
0
 40
0
 40
0
 40
1
 40
1
 40
1
 40
1
 10
17.407129
 20
65.510757
 30
0.0
 10
17.967276
 20
64.948139
 30
0.0
 10
18.817944
 20
64.635904
 30
0.0
 10
19.695756
 20
64.670726
 30
0.0
  0
LWPOLYLINE
  5
212
100
AcDbEntity
  8
Layer_2
 62
7
100
AcDbPolyline
 90
3
 70
0
 10
29.711735
 20
82.101288
 30
0.0
 10
30.266394
 20
82.119960
 30
0.0
 10
30.047724
 20
81.955744
 30
0.0
  0
SPLINE
  5
213
100
AcDbEntity
  8
Layer_2
 62
7
100
AcDbSpline
 70
8
 71
3
 72
8
 73
4
 74
0
 40
0
 40
0
 40
0
 40
0
 40
1
 40
1
 40
1
 40
1
 10
19.854506
 20
64.603286
 30
0.0
 10
19.601271
 20
64.493455
 30
0.0
 10
19.353575
 20
64.357848
 30
0.0
 10
19.341864
 20
64.322629
 30
0.0
  0
SPLINE
  5
214
100
AcDbEntity
  8
Layer_2
 62
7
100
AcDbSpline
 70
8
 71
3
 72
8
 73
4
 74
0
 40
0
 40
0
 40
0
 40
0
 40
1
 40
1
 40
1
 40
1
 10
19.341864
 20
64.322629
 30
0.0
 10
19.320165
 20
64.257370
 30
0.0
 10
19.668899
 20
63.874118
 30
0.0
 10
19.865754
 20
63.746885
 30
0.0
  0
SPLINE
  5
215
100
AcDbEntity
  8
Layer_2
 62
7
100
AcDbSpline
 70
8
 71
3
 72
8
 73
4
 74
0
 40
0
 40
0
 40
0
 40
0
 40
1
 40
1
 40
1
 40
1
 10
19.865754
 20
63.746885
 30
0.0
 10
20.233200
 20
63.509393
 30
0.0
 10
20.472748
 20
63.448761
 30
0.0
 10
21.047127
 20
63.447864
 30
0.0
  0
SPLINE
  5
216
100
AcDbEntity
  8
Layer_2
 62
7
100
AcDbSpline
 70
8
 71
3
 72
8
 73
4
 74
0
 40
0
 40
0
 40
0
 40
0
 40
1
 40
1
 40
1
 40
1
 10
21.047127
 20
63.447864
 30
0.0
 10
21.422731
 20
63.447335
 30
0.0
 10
21.530996
 20
63.437466
 30
0.0
 10
21.488099
 20
63.407922
 30
0.0
  0
SPLINE
  5
217
100
AcDbEntity
  8
Layer_2
 62
7
100
AcDbSpline
 70
8
 71
3
 72
8
 73
4
 74
0
 40
0
 40
0
 40
0
 40
0
 40
1
 40
1
 40
1
 40
1
 10
21.488099
 20
63.407922
 30
0.0
 10
21.336163
 20
63.303280
 30
0.0
 10
20.912959
 20
63.080178
 30
0.0
 10
20.758250
 20
63.023171
 30
0.0
  0
SPLINE
  5
218
100
AcDbEntity
  8
Layer_2
 62
7
100
AcDbSpline
 70
8
 71
3
 72
8
 73
4
 74
0
 40
0
 40
0
 40
0
 40
0
 40
1
 40
1
 40
1
 40
1
 10
20.758250
 20
63.023171
 30
0.0
 10
20.662729
 20
62.987973
 30
0.0
 10
20.572700
 20
62.949130
 30
0.0
 10
20.558184
 20
62.936848
 30
0.0
  0
SPLINE
  5
219
100
AcDbEntity
  8
Layer_2
 62
7
100
AcDbSpline
 70
8
 71
3
 72
8
 73
4
 74
0
 40
0
 40
0
 40
0
 40
0
 40
1
 40
1
 40
1
 40
1
 10
20.558184
 20
62.936848
 30
0.0
 10
20.525424
 20
62.909138
 30
0.0
 10
21.246677
 20
62.736344
 30
0.0
 10
22.030964
 20
62.584007
 30
0.0
  0
SPLINE
  5
21a
100
AcDbEntity
  8
Layer_2
 62
7
100
AcDbSpline
 70
8
 71
3
 72
8
 73
4
 74
0
 40
0
 40
0
 40
0
 40
0
 40
1
 40
1
 40
1
 40
1
 10
22.030964
 20
62.584007
 30
0.0
 10
22.817413
 20
62.431250
 30
0.0
 10
23.608890
 20
62.424604
 30
0.0
 10
24.163768
 20
62.566095
 30
0.0
  0
SPLINE
  5
21b
100
AcDbEntity
  8
Layer_2
 62
7
100
AcDbSpline
 70
8
 71
3
 72
8
 73
4
 74
0
 40
0
 40
0
 40
0
 40
0
 40
1
 40
1
 40
1
 40
1
 10
24.163768
 20
62.566095
 30
0.0
 10
24.269657
 20
62.593096
 30
0.0
 10
24.360719
 20
62.610759
 30
0.0
 10
24.366128
 20
62.605351
 30
0.0
  0
SPLINE
  5
21c
100
AcDbEntity
  8
Layer_2
 62
7
100
AcDbSpline
 70
8
 71
3
 72
8
 73
4
 74
0
 40
0
 40
0
 40
0
 40
0
 40
1
 40
1
 40
1
 40
1
 10
24.366128
 20
62.605351
 30
0.0
 10
24.371536
 20
62.599954
 30
0.0
 10
24.209347
 20
62.509313
 30
0.0
 10
24.005707
 20
62.403945
 30
0.0
  0
SPLINE
  5
21d
100
AcDbEntity
  8
Layer_2
 62
7
100
AcDbSpline
 70
8
 71
3
 72
8
 73
4
 74
0
 40
0
 40
0
 40
0
 40
0
 40
1
 40
1
 40
1
 40
1
 10
24.005707
 20
62.403945
 30
0.0
 10
23.770639
 20
62.282316
 30
0.0
 10
23.638792
 20
62.194080
 30
0.0
 10
23.644597
 20
62.162280
 30
0.0
  0
SPLINE
  5
21e
100
AcDbEntity
  8
Layer_2
 62
7
100
AcDbSpline
 70
8
 71
3
 72
8
 73
4
 74
0
 40
0
 40
0
 40
0
 40
0
 40
1
 40
1
 40
1
 40
1
 10
23.644597
 20
62.162280
 30
0.0
 10
23.660538
 20
62.074973
 30
0.0
 10
24.131899
 20
61.744109
 30
0.0
 10
24.489236
 20
61.569407
 30
0.0
  0
SPLINE
  5
21f
100
AcDbEntity
  8
Layer_2
 62
7
100
AcDbSpline
 70
8
 71
3
 72
8
 73
4
 74
0
 40
0
 40
0
 40
0
 40
0
 40
1
 40
1
 40
1
 40
1
 10
24.489236
 20
61.569407
 30
0.0
 10
24.678711
 20
61.476771
 30
0.0
 10
24.834144
 20
61.392115
 30
0.0
 10
24.834642
 20
61.381280
 30
0.0
  0
SPLINE
  5
220
100
AcDbEntity
  8
Layer_2
 62
7
100
AcDbSpline
 70
8
 71
3
 72
8
 73
4
 74
0
 40
0
 40
0
 40
0
 40
0
 40
1
 40
1
 40
1
 40
1
 10
24.834642
 20
61.381280
 30
0.0
 10
24.838182
 20
61.304300
 30
0.0
 10
22.569282
 20
60.142617
 30
0.0
 10
21.201936
 20
59.521320
 30
0.0
  0
SPLINE
  5
221
100
AcDbEntity
  8
Layer_2
 62
7
100
AcDbSpline
 70
8
 71
3
 72
8
 73
4
 74
0
 40
0
 40
0
 40
0
 40
0
 40
1
 40
1
 40
1
 40
1
 10
21.201936
 20
59.521320
 30
0.0
 10
21.075819
 20
59.464014
 30
0.0
 10
20.893256
 20
59.381176
 30
0.0
 10
20.796242
 20
59.337228
 30
0.0
  0
SPLINE
  5
222
100
AcDbEntity
  8
Layer_2
 62
7
100
AcDbSpline
 70
8
 71
3
 72
8
 73
4
 74
0
 40
0
 40
0
 40
0
 40
0
 40
1
 40
1
 40
1
 40
1
 10
20.796242
 20
59.337228
 30
0.0
 10
20.699228
 20
59.293284
 30
0.0
 10
20.520237
 20
59.211805
 30
0.0
 10
20.398484
 20
59.156169
 30
0.0
  0
SPLINE
  5
223
100
AcDbEntity
  8
Layer_2
 62
7
100
AcDbSpline
 70
8
 71
3
 72
8
 73
4
 74
0
 40
0
 40
0
 40
0
 40
0
 40
1
 40
1
 40
1
 40
1
 10
20.398484
 20
59.156169
 30
0.0
 10
20.276730
 20
59.100530
 30
0.0
 10
20.170733
 20
59.055008
 30
0.0
 10
20.162935
 20
59.055008
 30
0.0
  0
SPLINE
  5
224
100
AcDbEntity
  8
Layer_2
 62
7
100
AcDbSpline
 70
8
 71
3
 72
8
 73
4
 74
0
 40
0
 40
0
 40
0
 40
0
 40
1
 40
1
 40
1
 40
1
 10
20.162935
 20
59.055008
 30
0.0
 10
20.155135
 20
59.055008
 30
0.0
 10
20.032503
 20
59.001364
 30
0.0
 10
19.890416
 20
58.935803
 30
0.0
  0
SPLINE
  5
225
100
AcDbEntity
  8
Layer_2
 62
7
100
AcDbSpline
 70
8
 71
3
 72
8
 73
4
 74
0
 40
0
 40
0
 40
0
 40
0
 40
1
 40
1
 40
1
 40
1
 10
19.890416
 20
58.935803
 30
0.0
 10
19.497442
 20
58.754476
 30
0.0
 10
18.085292
 20
58.174633
 30
0.0
 10
17.391936
 20
57.909902
 30
0.0
  0
SPLINE
  5
226
100
AcDbEntity
  8
Layer_2
 62
7
100
AcDbSpline
 70
8
 71
3
 72
8
 73
4
 74
0
 40
0
 40
0
 40
0
 40
0
 40
1
 40
1
 40
1
 40
1
 10
17.391936
 20
57.909902
 30
0.0
 10
17.052388
 20
57.780256
 30
0.0
 10
16.719013
 20
57.652679
 30
0.0
 10
16.651103
 20
57.626396
 30
0.0
  0
SPLINE
  5
227
100
AcDbEntity
  8
Layer_2
 62
7
100
AcDbSpline
 70
8
 71
3
 72
8
 73
4
 74
0
 40
0
 40
0
 40
0
 40
0
 40
1
 40
1
 40
1
 40
1
 10
16.651103
 20
57.626396
 30
0.0
 10
15.195541
 20
57.063024
 30
0.0
 10
13.020638
 20
56.416953
 30
0.0
 10
11.676512
 20
56.148658
 30
0.0
  0
SPLINE
  5
228
100
AcDbEntity
  8
Layer_2
 62
7
100
AcDbSpline
 70
8
 71
3
 72
8
 73
4
 74
0
 40
0
 40
0
 40
0
 40
0
 40
1
 40
1
 40
1
 40
1
 10
11.676512
 20
56.148658
 30
0.0
 10
10.775578
 20
55.968823
 30
0.0
 10
10.259138
 20
55.894330
 30
0.0
 10
9.657284
 20
55.857394
 30
0.0
  0
SPLINE
  5
229
100
AcDbEntity
  8
Layer_2
 62
7
100
AcDbSpline
 70
8
 71
3
 72
8
 73
4
 74
0
 40
0
 40
0
 40
0
 40
0
 40
1
 40
1
 40
1
 40
1
 10
9.657284
 20
55.857394
 30
0.0
 10
9.214885
 20
55.830245
 30
0.0
 10
9.229052
 20
55.851256
 30
0.0
 10
9.369941
 20
55.430960
 30
0.0
  0
SPLINE
  5
22a
100
AcDbEntity
  8
Layer_2
 62
7
100
AcDbSpline
 70
8
 71
3
 72
8
 73
4
 74
0
 40
0
 40
0
 40
0
 40
0
 40
1
 40
1
 40
1
 40
1
 10
9.369941
 20
55.430960
 30
0.0
 10
9.628218
 20
54.660440
 30
0.0
 10
10.077512
 20
54.069604
 30
0.0
 10
10.681932
 20
53.705641
 30
0.0
  0
SPLINE
  5
22b
100
AcDbEntity
  8
Layer_2
 62
7
100
AcDbSpline
 70
8
 71
3
 72
8
 73
4
 74
0
 40
0
 40
0
 40
0
 40
0
 40
1
 40
1
 40
1
 40
1
 10
10.681932
 20
53.705641
 30
0.0
 10
11.134560
 20
53.433083
 30
0.0
 10
11.684472
 20
53.280151
 30
0.0
 10
12.353472
 20
53.240779
 30
0.0
  0
LWPOLYLINE
  5
22c
100
AcDbEntity
  8
Layer_2
 62
7
100
AcDbPolyline
 90
3
 70
0
 10
19.695756
 20
64.670726
 30
0.0
 10
20.041659
 20
64.684458
 30
0.0
 10
19.854506
 20
64.603286
 30
0.0
  0
SPLINE
  5
22d
100
AcDbEntity
  8
Layer_2
 62
7
100
AcDbSpline
 70
8
 71
3
 72
8
 73
4
 74
0
 40
0
 40
0
 40
0
 40
0
 40
1
 40
1
 40
1
 40
1
 10
12.392317
 20
52.581720
 30
0.0
 10
12.736524
 20
52.284175
 30
0.0
 10
13.185320
 20
52.160006
 30
0.0
 10
14.067106
 20
52.118339
 30
0.0
  0
LWPOLYLINE
  5
22e
100
AcDbEntity
  8
Layer_2
 62
7
100
AcDbPolyline
 90
5
 70
0
 10
12.353472
 20
53.240779
 30
0.0
 10
12.765423
 20
53.216543
 30
0.0
 10
12.514556
 20
52.954724
 30
0.0
 10
12.263690
 20
52.692909
 30
0.0
 10
12.392317
 20
52.581720
 30
0.0
  0
SPLINE
  5
22f
100
AcDbEntity
  8
Layer_2
 62
7
100
AcDbSpline
 70
8
 71
3
 72
8
 73
4
 74
0
 40
0
 40
0
 40
0
 40
0
 40
1
 40
1
 40
1
 40
1
 10
14.385610
 20
51.995615
 30
0.0
 10
14.278511
 20
51.941460
 30
0.0
 10
13.962590
 20
51.799802
 30
0.0
 10
13.683563
 20
51.680819
 30
0.0
  0
SPLINE
  5
230
100
AcDbEntity
  8
Layer_2
 62
7
100
AcDbSpline
 70
8
 71
3
 72
8
 73
4
 74
0
 40
0
 40
0
 40
0
 40
0
 40
1
 40
1
 40
1
 40
1
 10
13.683563
 20
51.680819
 30
0.0
 10
13.404536
 20
51.561839
 30
0.0
 10
13.161062
 20
51.449817
 30
0.0
 10
13.142508
 20
51.431886
 30
0.0
  0
SPLINE
  5
231
100
AcDbEntity
  8
Layer_2
 62
7
100
AcDbSpline
 70
8
 71
3
 72
8
 73
4
 74
0
 40
0
 40
0
 40
0
 40
0
 40
1
 40
1
 40
1
 40
1
 10
13.142508
 20
51.431886
 30
0.0
 10
13.100903
 20
51.391680
 30
0.0
 10
13.374107
 20
51.106014
 30
0.0
 10
13.670131
 20
50.880200
 30
0.0
  0
SPLINE
  5
232
100
AcDbEntity
  8
Layer_2
 62
7
100
AcDbSpline
 70
8
 71
3
 72
8
 73
4
 74
0
 40
0
 40
0
 40
0
 40
0
 40
1
 40
1
 40
1
 40
1
 10
13.670131
 20
50.880200
 30
0.0
 10
13.947720
 20
50.668449
 30
0.0
 10
14.438658
 20
50.438905
 30
0.0
 10
14.834298
 20
50.335876
 30
0.0
  0
SPLINE
  5
233
100
AcDbEntity
  8
Layer_2
 62
7
100
AcDbSpline
 70
8
 71
3
 72
8
 73
4
 74
0
 40
0
 40
0
 40
0
 40
0
 40
1
 40
1
 40
1
 40
1
 10
14.834298
 20
50.335876
 30
0.0
 10
15.111703
 20
50.263642
 30
0.0
 10
15.231987
 20
50.253360
 30
0.0
 10
15.786798
 20
50.254471
 30
0.0
  0
SPLINE
  5
234
100
AcDbEntity
  8
Layer_2
 62
7
100
AcDbSpline
 70
8
 71
3
 72
8
 73
4
 74
0
 40
0
 40
0
 40
0
 40
0
 40
1
 40
1
 40
1
 40
1
 10
15.786798
 20
50.254471
 30
0.0
 10
16.376903
 20
50.255794
 30
0.0
 10
16.902960
 20
50.315982
 30
0.0
 10
17.051113
 20
50.399463
 30
0.0
  0
SPLINE
  5
235
100
AcDbEntity
  8
Layer_2
 62
7
100
AcDbSpline
 70
8
 71
3
 72
8
 73
4
 74
0
 40
0
 40
0
 40
0
 40
0
 40
1
 40
1
 40
1
 40
1
 10
17.051113
 20
50.399463
 30
0.0
 10
17.186434
 20
50.475713
 30
0.0
 10
16.804724
 20
50.133636
 30
0.0
 10
16.614113
 20
50.007835
 30
0.0
  0
SPLINE
  5
236
100
AcDbEntity
  8
Layer_2
 62
7
100
AcDbSpline
 70
8
 71
3
 72
8
 73
4
 74
0
 40
0
 40
0
 40
0
 40
0
 40
1
 40
1
 40
1
 40
1
 10
16.614113
 20
50.007835
 30
0.0
 10
16.356318
 20
49.837697
 30
0.0
 10
16.157214
 20
49.631214
 30
0.0
 10
16.157214
 20
49.533998
 30
0.0
  0
SPLINE
  5
237
100
AcDbEntity
  8
Layer_2
 62
7
100
AcDbSpline
 70
8
 71
3
 72
8
 73
4
 74
0
 40
0
 40
0
 40
0
 40
0
 40
1
 40
1
 40
1
 40
1
 10
16.157214
 20
49.533998
 30
0.0
 10
16.157214
 20
49.457488
 30
0.0
 10
16.520726
 20
49.280696
 30
0.0
 10
16.845131
 20
49.199435
 30
0.0
  0
SPLINE
  5
238
100
AcDbEntity
  8
Layer_2
 62
7
100
AcDbSpline
 70
8
 71
3
 72
8
 73
4
 74
0
 40
0
 40
0
 40
0
 40
0
 40
1
 40
1
 40
1
 40
1
 10
16.845131
 20
49.199435
 30
0.0
 10
17.669402
 20
48.992962
 30
0.0
 10
18.830413
 20
49.028342
 30
0.0
 10
20.284714
 20
49.304244
 30
0.0
  0
SPLINE
  5
239
100
AcDbEntity
  8
Layer_2
 62
7
100
AcDbSpline
 70
8
 71
3
 72
8
 73
4
 74
0
 40
0
 40
0
 40
0
 40
0
 40
1
 40
1
 40
1
 40
1
 10
20.284714
 20
49.304244
 30
0.0
 10
20.361665
 20
49.318849
 30
0.0
 10
20.394895
 20
49.315277
 30
0.0
 10
20.372909
 20
49.294772
 30
0.0
  0
SPLINE
  5
23a
100
AcDbEntity
  8
Layer_2
 62
7
100
AcDbSpline
 70
8
 71
3
 72
8
 73
4
 74
0
 40
0
 40
0
 40
0
 40
0
 40
1
 40
1
 40
1
 40
1
 10
20.372909
 20
49.294772
 30
0.0
 10
19.915621
 20
48.868462
 30
0.0
 10
18.479576
 20
48.066071
 30
0.0
 10
17.302570
 20
47.579224
 30
0.0
  0
SPLINE
  5
23b
100
AcDbEntity
  8
Layer_2
 62
7
100
AcDbSpline
 70
8
 71
3
 72
8
 73
4
 74
0
 40
0
 40
0
 40
0
 40
0
 40
1
 40
1
 40
1
 40
1
 10
17.302570
 20
47.579224
 30
0.0
 10
15.657219
 20
46.898650
 30
0.0
 10
13.737041
 20
46.324697
 30
0.0
 10
11.729853
 20
45.913503
 30
0.0
  0
SPLINE
  5
23c
100
AcDbEntity
  8
Layer_2
 62
7
100
AcDbSpline
 70
8
 71
3
 72
8
 73
4
 74
0
 40
0
 40
0
 40
0
 40
0
 40
1
 40
1
 40
1
 40
1
 10
11.729853
 20
45.913503
 30
0.0
 10
11.061185
 20
45.776520
 30
0.0
 10
10.175630
 20
45.649441
 30
0.0
 10
9.889699
 20
45.649441
 30
0.0
  0
SPLINE
  5
23d
100
AcDbEntity
  8
Layer_2
 62
7
100
AcDbSpline
 70
8
 71
3
 72
8
 73
4
 74
0
 40
0
 40
0
 40
0
 40
0
 40
1
 40
1
 40
1
 40
1
 10
9.889699
 20
45.649441
 30
0.0
 10
9.703201
 20
45.649441
 30
0.0
 10
9.662313
 20
45.639651
 30
0.0
 10
9.678014
 20
45.598731
 30
0.0
  0
SPLINE
  5
23e
100
AcDbEntity
  8
Layer_2
 62
7
100
AcDbSpline
 70
8
 71
3
 72
8
 73
4
 74
0
 40
0
 40
0
 40
0
 40
0
 40
1
 40
1
 40
1
 40
1
 10
9.678014
 20
45.598731
 30
0.0
 10
9.688716
 20
45.570838
 30
0.0
 10
9.715675
 20
45.479557
 30
0.0
 10
9.737922
 20
45.395883
 30
0.0
  0
SPLINE
  5
23f
100
AcDbEntity
  8
Layer_2
 62
7
100
AcDbSpline
 70
8
 71
3
 72
8
 73
4
 74
0
 40
0
 40
0
 40
0
 40
0
 40
1
 40
1
 40
1
 40
1
 10
9.737922
 20
45.395883
 30
0.0
 10
9.918860
 20
44.715332
 30
0.0
 10
10.389558
 20
44.022619
 30
0.0
 10
10.913624
 20
43.665627
 30
0.0
  0
SPLINE
  5
240
100
AcDbEntity
  8
Layer_2
 62
7
100
AcDbSpline
 70
8
 71
3
 72
8
 73
4
 74
0
 40
0
 40
0
 40
0
 40
0
 40
1
 40
1
 40
1
 40
1
 10
10.913624
 20
43.665627
 30
0.0
 10
11.486572
 20
43.275343
 30
0.0
 10
12.061321
 20
43.131960
 30
0.0
 10
13.395161
 20
43.046560
 30
0.0
  0
LWPOLYLINE
  5
241
100
AcDbEntity
  8
Layer_2
 62
7
100
AcDbPolyline
 90
3
 70
0
 10
14.067106
 20
52.118339
 30
0.0
 10
14.580335
 20
52.094077
 30
0.0
 10
14.385610
 20
51.995615
 30
0.0
  0
SPLINE
  5
242
100
AcDbEntity
  8
Layer_2
 62
7
100
AcDbSpline
 70
8
 71
3
 72
8
 73
4
 74
0
 40
0
 40
0
 40
0
 40
0
 40
1
 40
1
 40
1
 40
1
 10
13.500994
 20
42.788216
 30
0.0
 10
13.341783
 20
42.660051
 30
0.0
 10
13.140082
 20
42.511072
 30
0.0
 10
13.052770
 20
42.457148
 30
0.0
  0
SPLINE
  5
243
100
AcDbEntity
  8
Layer_2
 62
7
100
AcDbSpline
 70
8
 71
3
 72
8
 73
4
 74
0
 40
0
 40
0
 40
0
 40
0
 40
1
 40
1
 40
1
 40
1
 10
13.052770
 20
42.457148
 30
0.0
 10
12.965457
 20
42.403226
 30
0.0
 10
12.887503
 20
42.353402
 30
0.0
 10
12.879537
 20
42.346433
 30
0.0
  0
SPLINE
  5
244
100
AcDbEntity
  8
Layer_2
 62
7
100
AcDbSpline
 70
8
 71
3
 72
8
 73
4
 74
0
 40
0
 40
0
 40
0
 40
0
 40
1
 40
1
 40
1
 40
1
 10
12.879537
 20
42.346433
 30
0.0
 10
12.850634
 20
42.321139
 30
0.0
 10
12.995625
 20
42.191752
 30
0.0
 10
13.249743
 20
42.016079
 30
0.0
  0
SPLINE
  5
245
100
AcDbEntity
  8
Layer_2
 62
7
100
AcDbSpline
 70
8
 71
3
 72
8
 73
4
 74
0
 40
0
 40
0
 40
0
 40
0
 40
1
 40
1
 40
1
 40
1
 10
13.249743
 20
42.016079
 30
0.0
 10
13.961122
 20
41.524304
 30
0.0
 10
14.588520
 20
41.363572
 30
0.0
 10
15.466555
 20
41.448151
 30
0.0
  0
SPLINE
  5
246
100
AcDbEntity
  8
Layer_2
 62
7
100
AcDbSpline
 70
8
 71
3
 72
8
 73
4
 74
0
 40
0
 40
0
 40
0
 40
0
 40
1
 40
1
 40
1
 40
1
 10
15.466555
 20
41.448151
 30
0.0
 10
15.720299
 20
41.472599
 30
0.0
 10
16.003329
 20
41.508450
 30
0.0
 10
16.095509
 20
41.527833
 30
0.0
  0
SPLINE
  5
247
100
AcDbEntity
  8
Layer_2
 62
7
100
AcDbSpline
 70
8
 71
3
 72
8
 73
4
 74
0
 40
0
 40
0
 40
0
 40
0
 40
1
 40
1
 40
1
 40
1
 10
16.095509
 20
41.527833
 30
0.0
 10
16.365091
 20
41.584512
 30
0.0
 10
16.364630
 20
41.544211
 30
0.0
 10
16.094186
 20
41.411705
 30
0.0
  0
LWPOLYLINE
  5
248
100
AcDbEntity
  8
Layer_2
 62
7
100
AcDbPolyline
 90
3
 70
0
 10
13.395161
 20
43.046560
 30
0.0
 10
13.790468
 20
43.021239
 30
0.0
 10
13.500994
 20
42.788216
 30
0.0
  0
SPLINE
  5
249
100
AcDbEntity
  8
Layer_2
 62
7
100
AcDbSpline
 70
8
 71
3
 72
8
 73
4
 74
0
 40
0
 40
0
 40
0
 40
0
 40
1
 40
1
 40
1
 40
1
 10
15.933741
 20
41.149259
 30
0.0
 10
16.225411
 20
40.708149
 30
0.0
 10
16.748893
 20
40.336301
 30
0.0
 10
17.462496
 20
40.063333
 30
0.0
  0
SPLINE
  5
24a
100
AcDbEntity
  8
Layer_2
 62
7
100
AcDbSpline
 70
8
 71
3
 72
8
 73
4
 74
0
 40
0
 40
0
 40
0
 40
0
 40
1
 40
1
 40
1
 40
1
 10
17.462496
 20
40.063333
 30
0.0
 10
17.798226
 20
39.934907
 30
0.0
 10
18.452512
 20
39.758046
 30
0.0
 10
18.591881
 20
39.758046
 30
0.0
  0
SPLINE
  5
24b
100
AcDbEntity
  8
Layer_2
 62
7
100
AcDbSpline
 70
8
 71
3
 72
8
 73
4
 74
0
 40
0
 40
0
 40
0
 40
0
 40
1
 40
1
 40
1
 40
1
 10
18.591881
 20
39.758046
 30
0.0
 10
18.768762
 20
39.758046
 30
0.0
 10
18.562866
 20
39.640743
 30
0.0
 10
18.150412
 20
39.506536
 30
0.0
  0
SPLINE
  5
24c
100
AcDbEntity
  8
Layer_2
 62
7
100
AcDbSpline
 70
8
 71
3
 72
8
 73
4
 74
0
 40
0
 40
0
 40
0
 40
0
 40
1
 40
1
 40
1
 40
1
 10
18.150412
 20
39.506536
 30
0.0
 10
17.372973
 20
39.253565
 30
0.0
 10
15.754732
 20
38.859865
 30
0.0
 10
14.834301
 20
38.699765
 30
0.0
  0
SPLINE
  5
24d
100
AcDbEntity
  8
Layer_2
 62
7
100
AcDbSpline
 70
8
 71
3
 72
8
 73
4
 74
0
 40
0
 40
0
 40
0
 40
0
 40
1
 40
1
 40
1
 40
1
 10
14.834301
 20
38.699765
 30
0.0
 10
14.737287
 20
38.682885
 30
0.0
 10
14.483287
 20
38.636279
 30
0.0
 10
14.269857
 20
38.596178
 30
0.0
  0
SPLINE
  5
24e
100
AcDbEntity
  8
Layer_2
 62
7
100
AcDbSpline
 70
8
 71
3
 72
8
 73
4
 74
0
 40
0
 40
0
 40
0
 40
0
 40
1
 40
1
 40
1
 40
1
 10
14.269857
 20
38.596178
 30
0.0
 10
13.231612
 20
38.401120
 30
0.0
 10
12.090492
 20
38.216544
 30
0.0
 10
11.200690
 20
38.099743
 30
0.0
  0
SPLINE
  5
24f
100
AcDbEntity
  8
Layer_2
 62
7
100
AcDbSpline
 70
8
 71
3
 72
8
 73
4
 74
0
 40
0
 40
0
 40
0
 40
0
 40
1
 40
1
 40
1
 40
1
 10
11.200690
 20
38.099743
 30
0.0
 10
9.293002
 20
37.849323
 30
0.0
 10
8.426597
 20
37.754806
 30
0.0
 10
6.861523
 20
37.626388
 30
0.0
  0
SPLINE
  5
250
100
AcDbEntity
  8
Layer_2
 62
7
100
AcDbSpline
 70
8
 71
3
 72
8
 73
4
 74
0
 40
0
 40
0
 40
0
 40
0
 40
1
 40
1
 40
1
 40
1
 10
6.861523
 20
37.626388
 30
0.0
 10
5.102116
 20
37.482026
 30
0.0
 10
3.932120
 20
37.424892
 30
0.0
 10
2.204857
 20
37.399002
 30
0.0
  0
LWPOLYLINE
  5
251
100
AcDbEntity
  8
Layer_2
 62
7
100
AcDbPolyline
 90
3
 70
0
 10
16.094186
 20
41.411705
 30
0.0
 10
15.841928
 20
41.288115
 30
0.0
 10
15.933741
 20
41.149259
 30
0.0
  0
SPLINE
  5
252
100
AcDbEntity
  8
Layer_2
 62
7
100
AcDbSpline
 70
8
 71
3
 72
8
 73
4
 74
0
 40
0
 40
0
 40
0
 40
0
 40
1
 40
1
 40
1
 40
1
 10
0.681932
 20
37.218054
 30
0.0
 10
0.619287
 20
36.977013
 30
0.0
 10
0.624519
 20
36.173992
 30
0.0
 10
0.690591
 20
35.889097
 30
0.0
  0
SPLINE
  5
253
100
AcDbEntity
  8
Layer_2
 62
7
100
AcDbSpline
 70
8
 71
3
 72
8
 73
4
 74
0
 40
0
 40
0
 40
0
 40
0
 40
1
 40
1
 40
1
 40
1
 10
0.690591
 20
35.889097
 30
0.0
 10
0.959678
 20
34.728817
 30
0.0
 10
1.822723
 20
34.025213
 30
0.0
 10
3.342108
 20
33.727427
 30
0.0
  0
SPLINE
  5
254
100
AcDbEntity
  8
Layer_2
 62
7
100
AcDbSpline
 70
8
 71
3
 72
8
 73
4
 74
0
 40
0
 40
0
 40
0
 40
0
 40
1
 40
1
 40
1
 40
1
 10
3.342108
 20
33.727427
 30
0.0
 10
3.828680
 20
33.632061
 30
0.0
 10
5.267219
 20
33.599702
 30
0.0
 10
5.547426
 20
33.677818
 30
0.0
  0
SPLINE
  5
255
100
AcDbEntity
  8
Layer_2
 62
7
100
AcDbSpline
 70
8
 71
3
 72
8
 73
4
 74
0
 40
0
 40
0
 40
0
 40
0
 40
1
 40
1
 40
1
 40
1
 10
5.547426
 20
33.677818
 30
0.0
 10
5.581381
 20
33.687290
 30
0.0
 10
5.609162
 20
33.679141
 30
0.0
 10
5.609162
 20
33.659958
 30
0.0
  0
SPLINE
  5
256
100
AcDbEntity
  8
Layer_2
 62
7
100
AcDbSpline
 70
8
 71
3
 72
8
 73
4
 74
0
 40
0
 40
0
 40
0
 40
0
 40
1
 40
1
 40
1
 40
1
 10
5.609162
 20
33.659958
 30
0.0
 10
5.609162
 20
33.589127
 30
0.0
 10
5.227747
 20
33.441360
 30
0.0
 10
4.833008
 20
33.359259
 30
0.0
  0
SPLINE
  5
257
100
AcDbEntity
  8
Layer_2
 62
7
100
AcDbSpline
 70
8
 71
3
 72
8
 73
4
 74
0
 40
0
 40
0
 40
0
 40
0
 40
1
 40
1
 40
1
 40
1
 10
4.833008
 20
33.359259
 30
0.0
 10
4.609900
 20
33.312857
 30
0.0
 10
4.375656
 20
33.253254
 30
0.0
 10
4.312467
 20
33.226814
 30
0.0
  0
LWPOLYLINE
  5
258
100
AcDbEntity
  8
Layer_2
 62
7
100
AcDbPolyline
 90
3
 70
0
 10
2.204857
 20
37.399002
 30
0.0
 10
0.723190
 20
37.376804
 30
0.0
 10
0.681932
 20
37.218054
 30
0.0
  0
SPLINE
  5
259
100
AcDbEntity
  8
Layer_2
 62
7
100
AcDbSpline
 70
8
 71
3
 72
8
 73
4
 74
0
 40
0
 40
0
 40
0
 40
0
 40
1
 40
1
 40
1
 40
1
 10
4.308104
 20
32.967070
 30
0.0
 10
4.568250
 20
32.468878
 30
0.0
 10
5.033917
 20
31.922408
 30
0.0
 10
5.453333
 20
31.623116
 30
0.0
  0
SPLINE
  5
25a
100
AcDbEntity
  8
Layer_2
 62
7
100
AcDbSpline
 70
8
 71
3
 72
8
 73
4
 74
0
 40
0
 40
0
 40
0
 40
0
 40
1
 40
1
 40
1
 40
1
 10
5.453333
 20
31.623116
 30
0.0
 10
5.956271
 20
31.264225
 30
0.0
 10
6.487707
 20
31.104639
 30
0.0
 10
7.179023
 20
31.104898
 30
0.0
  0
SPLINE
  5
25b
100
AcDbEntity
  8
Layer_2
 62
7
100
AcDbSpline
 70
8
 71
3
 72
8
 73
4
 74
0
 40
0
 40
0
 40
0
 40
0
 40
1
 40
1
 40
1
 40
1
 10
7.179023
 20
31.104898
 30
0.0
 10
7.759256
 20
31.105163
 30
0.0
 10
8.106483
 20
31.170261
 30
0.0
 10
9.092843
 20
31.463975
 30
0.0
  0
SPLINE
  5
25c
100
AcDbEntity
  8
Layer_2
 62
7
100
AcDbSpline
 70
8
 71
3
 72
8
 73
4
 74
0
 40
0
 40
0
 40
0
 40
0
 40
1
 40
1
 40
1
 40
1
 10
9.092843
 20
31.463975
 30
0.0
 10
9.155902
 20
31.482760
 30
0.0
 10
9.207496
 20
31.492089
 30
0.0
 10
9.207496
 20
31.484718
 30
0.0
  0
SPLINE
  5
25d
100
AcDbEntity
  8
Layer_2
 62
7
100
AcDbSpline
 70
8
 71
3
 72
8
 73
4
 74
0
 40
0
 40
0
 40
0
 40
0
 40
1
 40
1
 40
1
 40
1
 10
9.207496
 20
31.484718
 30
0.0
 10
9.207496
 20
31.465139
 30
0.0
 10
8.761790
 20
31.150258
 30
0.0
 10
8.734079
 20
31.150258
 30
0.0
  0
SPLINE
  5
25e
100
AcDbEntity
  8
Layer_2
 62
7
100
AcDbSpline
 70
8
 71
3
 72
8
 73
4
 74
0
 40
0
 40
0
 40
0
 40
0
 40
1
 40
1
 40
1
 40
1
 10
8.734079
 20
31.150258
 30
0.0
 10
8.715076
 20
31.150258
 30
0.0
 10
8.356626
 20
30.900529
 30
0.0
 10
8.290273
 20
30.841061
 30
0.0
  0
SPLINE
  5
25f
100
AcDbEntity
  8
Layer_2
 62
7
100
AcDbSpline
 70
8
 71
3
 72
8
 73
4
 74
0
 40
0
 40
0
 40
0
 40
0
 40
1
 40
1
 40
1
 40
1
 10
8.290273
 20
30.841061
 30
0.0
 10
8.280571
 20
30.832356
 30
0.0
 10
8.358479
 20
30.748033
 30
0.0
 10
8.463400
 20
30.653657
 30
0.0
  0
SPLINE
  5
260
100
AcDbEntity
  8
Layer_2
 62
7
100
AcDbSpline
 70
8
 71
3
 72
8
 73
4
 74
0
 40
0
 40
0
 40
0
 40
0
 40
1
 40
1
 40
1
 40
1
 10
8.463400
 20
30.653657
 30
0.0
 10
8.699847
 20
30.440971
 30
0.0
 10
9.105370
 20
30.226905
 30
0.0
 10
9.474075
 20
30.120148
 30
0.0
  0
SPLINE
  5
261
100
AcDbEntity
  8
Layer_2
 62
7
100
AcDbSpline
 70
8
 71
3
 72
8
 73
4
 74
0
 40
0
 40
0
 40
0
 40
0
 40
1
 40
1
 40
1
 40
1
 10
9.474075
 20
30.120148
 30
0.0
 10
9.744950
 20
30.041715
 30
0.0
 10
9.793137
 20
30.039336
 30
0.0
 10
10.918155
 20
30.048846
 30
0.0
  0
LWPOLYLINE
  5
262
100
AcDbEntity
  8
Layer_2
 62
7
100
AcDbPolyline
 90
3
 70
0
 10
4.312467
 20
33.226814
 30
0.0
 10
4.197576
 20
33.178737
 30
0.0
 10
4.308104
 20
32.967070
 30
0.0
  0
SPLINE
  5
263
100
AcDbEntity
  8
Layer_2
 62
7
100
AcDbSpline
 70
8
 71
3
 72
8
 73
4
 74
0
 40
0
 40
0
 40
0
 40
0
 40
1
 40
1
 40
1
 40
1
 10
11.923571
 20
29.958035
 30
0.0
 10
11.836431
 20
29.902674
 30
0.0
 10
11.623536
 20
29.726091
 30
0.0
 10
11.450471
 20
29.565632
 30
0.0
  0
SPLINE
  5
264
100
AcDbEntity
  8
Layer_2
 62
7
100
AcDbSpline
 70
8
 71
3
 72
8
 73
4
 74
0
 40
0
 40
0
 40
0
 40
0
 40
1
 40
1
 40
1
 40
1
 10
11.450471
 20
29.565632
 30
0.0
 10
11.056542
 20
29.200385
 30
0.0
 10
10.912668
 20
29.109337
 30
0.0
 10
10.642272
 20
29.054184
 30
0.0
  0
LWPOLYLINE
  5
265
100
AcDbEntity
  8
Layer_2
 62
7
100
AcDbPolyline
 90
3
 70
0
 10
10.918155
 20
30.048846
 30
0.0
 10
12.082008
 20
30.058688
 30
0.0
 10
11.923571
 20
29.958035
 30
0.0
  0
SPLINE
  5
266
100
AcDbEntity
  8
Layer_2
 62
7
100
AcDbSpline
 70
8
 71
3
 72
8
 73
4
 74
0
 40
0
 40
0
 40
0
 40
0
 40
1
 40
1
 40
1
 40
1
 10
10.637602
 20
28.912492
 30
0.0
 10
11.211968
 20
28.645289
 30
0.0
 10
11.943901
 20
28.413694
 30
0.0
 10
12.537047
 20
28.311480
 30
0.0
  0
SPLINE
  5
267
100
AcDbEntity
  8
Layer_2
 62
7
100
AcDbSpline
 70
8
 71
3
 72
8
 73
4
 74
0
 40
0
 40
0
 40
0
 40
0
 40
1
 40
1
 40
1
 40
1
 10
12.537047
 20
28.311480
 30
0.0
 10
12.986134
 20
28.234092
 30
0.0
 10
13.773545
 20
28.240334
 30
0.0
 10
14.206870
 20
28.324709
 30
0.0
  0
SPLINE
  5
268
100
AcDbEntity
  8
Layer_2
 62
7
100
AcDbSpline
 70
8
 71
3
 72
8
 73
4
 74
0
 40
0
 40
0
 40
0
 40
0
 40
1
 40
1
 40
1
 40
1
 10
14.206870
 20
28.324709
 30
0.0
 10
14.760113
 20
28.432442
 30
0.0
 10
15.097138
 20
28.566782
 30
0.0
 10
15.927912
 20
29.010713
 30
0.0
  0
LWPOLYLINE
  5
269
100
AcDbEntity
  8
Layer_2
 62
7
100
AcDbPolyline
 90
3
 70
0
 10
10.642272
 20
29.054184
 30
0.0
 10
10.427292
 20
29.010330
 30
0.0
 10
10.637602
 20
28.912492
 30
0.0
  0
SPLINE
  5
26a
100
AcDbEntity
  8
Layer_2
 62
7
100
AcDbSpline
 70
8
 71
3
 72
8
 73
4
 74
0
 40
0
 40
0
 40
0
 40
0
 40
1
 40
1
 40
1
 40
1
 10
16.069023
 20
29.013542
 30
0.0
 10
15.753185
 20
28.714824
 30
0.0
 10
15.137516
 20
28.194360
 30
0.0
 10
14.852896
 20
27.985474
 30
0.0
  0
SPLINE
  5
26b
100
AcDbEntity
  8
Layer_2
 62
7
100
AcDbSpline
 70
8
 71
3
 72
8
 73
4
 74
0
 40
0
 40
0
 40
0
 40
0
 40
1
 40
1
 40
1
 40
1
 10
14.852896
 20
27.985474
 30
0.0
 10
14.699841
 20
27.873142
 30
0.0
 10
14.573512
 20
27.771535
 30
0.0
 10
14.572166
 20
27.759679
 30
0.0
  0
SPLINE
  5
26c
100
AcDbEntity
  8
Layer_2
 62
7
100
AcDbSpline
 70
8
 71
3
 72
8
 73
4
 74
0
 40
0
 40
0
 40
0
 40
0
 40
1
 40
1
 40
1
 40
1
 10
14.572166
 20
27.759679
 30
0.0
 10
14.566792
 20
27.712358
 30
0.0
 10
15.330079
 20
27.529864
 30
0.0
 10
15.910273
 20
27.439752
 30
0.0
  0
SPLINE
  5
26d
100
AcDbEntity
  8
Layer_2
 62
7
100
AcDbSpline
 70
8
 71
3
 72
8
 73
4
 74
0
 40
0
 40
0
 40
0
 40
0
 40
1
 40
1
 40
1
 40
1
 10
15.910273
 20
27.439752
 30
0.0
 10
16.280884
 20
27.382192
 30
0.0
 10
17.730166
 20
27.379623
 30
0.0
 10
17.950894
 20
27.436128
 30
0.0
  0
LWPOLYLINE
  5
26e
100
AcDbEntity
  8
Layer_2
 62
7
100
AcDbPolyline
 90
3
 70
0
 10
15.927912
 20
29.010713
 30
0.0
 10
16.245412
 20
29.180372
 30
0.0
 10
16.069023
 20
29.013542
 30
0.0
  0
SPLINE
  5
26f
100
AcDbEntity
  8
Layer_2
 62
7
100
AcDbSpline
 70
8
 71
3
 72
8
 73
4
 74
0
 40
0
 40
0
 40
0
 40
0
 40
1
 40
1
 40
1
 40
1
 10
18.022086
 20
27.381351
 30
0.0
 10
17.859769
 20
27.195410
 30
0.0
 10
17.261539
 20
26.621626
 30
0.0
 10
16.915690
 20
26.320168
 30
0.0
  0
SPLINE
  5
270
100
AcDbEntity
  8
Layer_2
 62
7
100
AcDbSpline
 70
8
 71
3
 72
8
 73
4
 74
0
 40
0
 40
0
 40
0
 40
0
 40
1
 40
1
 40
1
 40
1
 10
16.915690
 20
26.320168
 30
0.0
 10
14.430439
 20
24.153897
 30
0.0
 10
10.526768
 20
22.053733
 30
0.0
 10
5.714996
 20
20.294227
 30
0.0
  0
SPLINE
  5
271
100
AcDbEntity
  8
Layer_2
 62
7
100
AcDbSpline
 70
8
 71
3
 72
8
 73
4
 74
0
 40
0
 40
0
 40
0
 40
0
 40
1
 40
1
 40
1
 40
1
 10
5.714996
 20
20.294227
 30
0.0
 10
4.861213
 20
19.982029
 30
0.0
 10
4.686829
 20
19.918937
 30
0.0
 10
4.356801
 20
19.802864
 30
0.0
  0
SPLINE
  5
272
100
AcDbEntity
  8
Layer_2
 62
7
100
AcDbSpline
 70
8
 71
3
 72
8
 73
4
 74
0
 40
0
 40
0
 40
0
 40
0
 40
1
 40
1
 40
1
 40
1
 10
4.356801
 20
19.802864
 30
0.0
 10
4.162773
 20
19.734623
 30
0.0
 10
3.964336
 20
19.665759
 30
0.0
 10
3.915829
 20
19.649840
 30
0.0
  0
SPLINE
  5
273
100
AcDbEntity
  8
Layer_2
 62
7
100
AcDbSpline
 70
8
 71
3
 72
8
 73
4
 74
0
 40
0
 40
0
 40
0
 40
0
 40
1
 40
1
 40
1
 40
1
 10
3.915829
 20
19.649840
 30
0.0
 10
3.420716
 20
19.487338
 30
0.0
 10
1.182347
 20
18.714114
 30
0.0
 10
0.947825
 20
18.624571
 30
0.0
  0
SPLINE
  5
274
100
AcDbEntity
  8
Layer_2
 62
7
100
AcDbSpline
 70
8
 71
3
 72
8
 73
4
 74
0
 40
0
 40
0
 40
0
 40
0
 40
1
 40
1
 40
1
 40
1
 10
0.947825
 20
18.624571
 30
0.0
 10
0.498242
 20
18.452910
 30
0.0
 10
0.508947
 20
18.466956
 30
0.0
 10
0.623325
 20
18.198796
 30
0.0
  0
SPLINE
  5
275
100
AcDbEntity
  8
Layer_2
 62
7
100
AcDbSpline
 70
8
 71
3
 72
8
 73
4
 74
0
 40
0
 40
0
 40
0
 40
0
 40
1
 40
1
 40
1
 40
1
 10
0.623325
 20
18.198796
 30
0.0
 10
0.954406
 20
17.422566
 30
0.0
 10
1.543155
 20
16.773110
 30
0.0
 10
2.399971
 20
16.238953
 30
0.0
  0
SPLINE
  5
276
100
AcDbEntity
  8
Layer_2
 62
7
100
AcDbSpline
 70
8
 71
3
 72
8
 73
4
 74
0
 40
0
 40
0
 40
0
 40
0
 40
1
 40
1
 40
1
 40
1
 10
2.399971
 20
16.238953
 30
0.0
 10
3.312445
 20
15.670096
 30
0.0
 10
4.532823
 20
15.270493
 30
0.0
 10
5.891384
 20
15.095717
 30
0.0
  0
SPLINE
  5
277
100
AcDbEntity
  8
Layer_2
 62
7
100
AcDbSpline
 70
8
 71
3
 72
8
 73
4
 74
0
 40
0
 40
0
 40
0
 40
0
 40
1
 40
1
 40
1
 40
1
 10
5.891384
 20
15.095717
 30
0.0
 10
6.260272
 20
15.048262
 30
0.0
 10
7.168539
 20
15.035533
 30
0.0
 10
7.390690
 20
15.074709
 30
0.0
  0
SPLINE
  5
278
100
AcDbEntity
  8
Layer_2
 62
7
100
AcDbSpline
 70
8
 71
3
 72
8
 73
4
 74
0
 40
0
 40
0
 40
0
 40
0
 40
1
 40
1
 40
1
 40
1
 10
7.390690
 20
15.074709
 30
0.0
 10
7.495461
 20
15.093177
 30
0.0
 10
7.400069
 20
15.032273
 30
0.0
 10
7.020273
 20
14.838185
 30
0.0
  0
SPLINE
  5
279
100
AcDbEntity
  8
Layer_2
 62
7
100
AcDbSpline
 70
8
 71
3
 72
8
 73
4
 74
0
 40
0
 40
0
 40
0
 40
0
 40
1
 40
1
 40
1
 40
1
 10
7.020273
 20
14.838185
 30
0.0
 10
6.305223
 20
14.472774
 30
0.0
 10
4.699378
 20
13.571567
 30
0.0
 10
4.687475
 20
13.529006
 30
0.0
  0
SPLINE
  5
27a
100
AcDbEntity
  8
Layer_2
 62
7
100
AcDbSpline
 70
8
 71
3
 72
8
 73
4
 74
0
 40
0
 40
0
 40
0
 40
0
 40
1
 40
1
 40
1
 40
1
 10
4.687475
 20
13.529006
 30
0.0
 10
4.673677
 20
13.479672
 30
0.0
 10
5.557773
 20
12.962371
 30
0.0
 10
6.191246
 20
12.649123
 30
0.0
  0
SPLINE
  5
27b
100
AcDbEntity
  8
Layer_2
 62
7
100
AcDbSpline
 70
8
 71
3
 72
8
 73
4
 74
0
 40
0
 40
0
 40
0
 40
0
 40
1
 40
1
 40
1
 40
1
 10
6.191246
 20
12.649123
 30
0.0
 10
7.518874
 20
11.992618
 30
0.0
 10
8.416053
 20
11.867391
 30
0.0
 10
9.092208
 20
12.244221
 30
0.0
  0
LWPOLYLINE
  5
27c
100
AcDbEntity
  8
Layer_2
 62
7
100
AcDbPolyline
 90
3
 70
0
 10
17.950894
 20
27.436128
 30
0.0
 10
18.104154
 20
27.475363
 30
0.0
 10
18.022086
 20
27.381351
 30
0.0
  0
SPLINE
  5
27d
100
AcDbEntity
  8
Layer_2
 62
7
100
AcDbSpline
 70
8
 71
3
 72
8
 73
4
 74
0
 40
0
 40
0
 40
0
 40
0
 40
1
 40
1
 40
1
 40
1
 10
9.213161
 20
12.232492
 30
0.0
 10
9.178170
 20
12.169465
 30
0.0
 10
9.097591
 20
11.990895
 30
0.0
 10
9.034098
 20
11.835672
 30
0.0
  0
SPLINE
  5
27e
100
AcDbEntity
  8
Layer_2
 62
7
100
AcDbSpline
 70
8
 71
3
 72
8
 73
4
 74
0
 40
0
 40
0
 40
0
 40
0
 40
1
 40
1
 40
1
 40
1
 10
9.034098
 20
11.835672
 30
0.0
 10
8.970605
 20
11.680452
 30
0.0
 10
8.889738
 20
11.503226
 30
0.0
 10
8.854394
 20
11.441843
 30
0.0
  0
LWPOLYLINE
  5
27f
100
AcDbEntity
  8
Layer_2
 62
7
100
AcDbPolyline
 90
3
 70
0
 10
9.092208
 20
12.244221
 30
0.0
 10
9.276782
 20
12.347088
 30
0.0
 10
9.213161
 20
12.232492
 30
0.0
  0
SPLINE
  5
280
100
AcDbEntity
  8
Layer_2
 62
7
100
AcDbSpline
 70
8
 71
3
 72
8
 73
4
 74
0
 40
0
 40
0
 40
0
 40
0
 40
1
 40
1
 40
1
 40
1
 10
8.884161
 20
11.292948
 30
0.0
 10
9.323516
 20
11.118742
 30
0.0
 10
10.024540
 20
11.023536
 30
0.0
 10
10.653884
 20
11.052609
 30
0.0
  0
SPLINE
  5
281
100
AcDbEntity
  8
Layer_2
 62
7
100
AcDbSpline
 70
8
 71
3
 72
8
 73
4
 74
0
 40
0
 40
0
 40
0
 40
0
 40
1
 40
1
 40
1
 40
1
 10
10.653884
 20
11.052609
 30
0.0
 10
11.657508
 20
11.098974
 30
0.0
 10
12.636757
 20
11.418506
 30
0.0
 10
13.491450
 20
11.978524
 30
0.0
  0
LWPOLYLINE
  5
282
100
AcDbEntity
  8
Layer_2
 62
7
100
AcDbPolyline
 90
3
 70
0
 10
8.854394
 20
11.441843
 30
0.0
 10
8.790133
 20
11.330231
 30
0.0
 10
8.884161
 20
11.292948
 30
0.0
  0
SPLINE
  5
283
100
AcDbEntity
  8
Layer_2
 62
7
100
AcDbSpline
 70
8
 71
3
 72
8
 73
4
 74
0
 40
0
 40
0
 40
0
 40
0
 40
1
 40
1
 40
1
 40
1
 10
13.507081
 20
11.902755
 30
0.0
 10
13.463748
 20
11.827055
 30
0.0
 10
13.349536
 20
11.630181
 30
0.0
 10
13.253276
 20
11.465256
 30
0.0
  0
SPLINE
  5
284
100
AcDbEntity
  8
Layer_2
 62
7
100
AcDbSpline
 70
8
 71
3
 72
8
 73
4
 74
0
 40
0
 40
0
 40
0
 40
0
 40
1
 40
1
 40
1
 40
1
 10
13.253276
 20
11.465256
 30
0.0
 10
12.871757
 20
10.811597
 30
0.0
 10
12.758527
 20
10.577269
 30
0.0
 10
12.809090
 20
10.546019
 30
0.0
  0
SPLINE
  5
285
100
AcDbEntity
  8
Layer_2
 62
7
100
AcDbSpline
 70
8
 71
3
 72
8
 73
4
 74
0
 40
0
 40
0
 40
0
 40
0
 40
1
 40
1
 40
1
 40
1
 10
12.809090
 20
10.546019
 30
0.0
 10
12.835363
 20
10.529774
 30
0.0
 10
12.968408
 20
10.487874
 30
0.0
 10
13.104746
 20
10.452891
 30
0.0
  0
SPLINE
  5
286
100
AcDbEntity
  8
Layer_2
 62
7
100
AcDbSpline
 70
8
 71
3
 72
8
 73
4
 74
0
 40
0
 40
0
 40
0
 40
0
 40
1
 40
1
 40
1
 40
1
 10
13.104746
 20
10.452891
 30
0.0
 10
13.444903
 20
10.365610
 30
0.0
 10
14.387438
 20
10.367801
 30
0.0
 10
14.816662
 20
10.456860
 30
0.0
  0
SPLINE
  5
287
100
AcDbEntity
  8
Layer_2
 62
7
100
AcDbSpline
 70
8
 71
3
 72
8
 73
4
 74
0
 40
0
 40
0
 40
0
 40
0
 40
1
 40
1
 40
1
 40
1
 10
14.816662
 20
10.456860
 30
0.0
 10
16.298156
 20
10.764290
 30
0.0
 10
18.044996
 20
11.541773
 30
0.0
 10
19.924603
 20
12.730297
 30
0.0
  0
SPLINE
  5
288
100
AcDbEntity
  8
Layer_2
 62
7
100
AcDbSpline
 70
8
 71
3
 72
8
 73
4
 74
0
 40
0
 40
0
 40
0
 40
0
 40
1
 40
1
 40
1
 40
1
 10
19.924603
 20
12.730297
 30
0.0
 10
20.143700
 20
12.868839
 30
0.0
 10
20.333537
 20
12.982191
 30
0.0
 10
20.346463
 20
12.982191
 30
0.0
  0
SPLINE
  5
289
100
AcDbEntity
  8
Layer_2
 62
7
100
AcDbSpline
 70
8
 71
3
 72
8
 73
4
 74
0
 40
0
 40
0
 40
0
 40
0
 40
1
 40
1
 40
1
 40
1
 10
20.346463
 20
12.982191
 30
0.0
 10
20.406703
 20
12.982191
 30
0.0
 10
20.015441
 20
12.629851
 30
0.0
 10
19.649718
 20
12.354758
 30
0.0
  0
SPLINE
  5
28a
100
AcDbEntity
  8
Layer_2
 62
7
100
AcDbSpline
 70
8
 71
3
 72
8
 73
4
 74
0
 40
0
 40
0
 40
0
 40
0
 40
1
 40
1
 40
1
 40
1
 10
19.649718
 20
12.354758
 30
0.0
 10
19.159937
 20
11.986347
 30
0.0
 10
18.969710
 20
11.814770
 30
0.0
 10
18.867269
 20
11.649019
 30
0.0
  0
LWPOLYLINE
  5
28b
100
AcDbEntity
  8
Layer_2
 62
7
100
AcDbPolyline
 90
3
 70
0
 10
13.491450
 20
11.978524
 30
0.0
 10
13.585866
 20
12.040386
 30
0.0
 10
13.507081
 20
11.902755
 30
0.0
  0
SPLINE
  5
28c
100
AcDbEntity
  8
Layer_2
 62
7
100
AcDbSpline
 70
8
 71
3
 72
8
 73
4
 74
0
 40
0
 40
0
 40
0
 40
0
 40
1
 40
1
 40
1
 40
1
 10
18.928771
 20
11.402994
 30
0.0
 10
19.113686
 20
11.242061
 30
0.0
 10
19.409165
 20
11.095516
 30
0.0
 10
19.744997
 20
10.998181
 30
0.0
  0
SPLINE
  5
28d
100
AcDbEntity
  8
Layer_2
 62
7
100
AcDbSpline
 70
8
 71
3
 72
8
 73
4
 74
0
 40
0
 40
0
 40
0
 40
0
 40
1
 40
1
 40
1
 40
1
 10
19.744997
 20
10.998181
 30
0.0
 10
19.991067
 20
10.926866
 30
0.0
 10
20.096537
 20
10.918468
 30
0.0
 10
20.743329
 20
10.918709
 30
0.0
  0
SPLINE
  5
28e
100
AcDbEntity
  8
Layer_2
 62
7
100
AcDbSpline
 70
8
 71
3
 72
8
 73
4
 74
0
 40
0
 40
0
 40
0
 40
0
 40
1
 40
1
 40
1
 40
1
 10
20.743329
 20
10.918709
 30
0.0
 10
21.287124
 20
10.918973
 30
0.0
 10
21.552464
 20
10.934742
 30
0.0
 10
21.812966
 20
10.982508
 30
0.0
  0
SPLINE
  5
28f
100
AcDbEntity
  8
Layer_2
 62
7
100
AcDbSpline
 70
8
 71
3
 72
8
 73
4
 74
0
 40
0
 40
0
 40
0
 40
0
 40
1
 40
1
 40
1
 40
1
 10
21.812966
 20
10.982508
 30
0.0
 10
22.003510
 20
11.017448
 30
0.0
 10
22.186073
 20
11.055879
 30
0.0
 10
22.218661
 20
11.067912
 30
0.0
  0
SPLINE
  5
290
100
AcDbEntity
  8
Layer_2
 62
7
100
AcDbSpline
 70
8
 71
3
 72
8
 73
4
 74
0
 40
0
 40
0
 40
0
 40
0
 40
1
 40
1
 40
1
 40
1
 10
22.218661
 20
11.067912
 30
0.0
 10
22.251249
 20
11.079951
 30
0.0
 10
22.154881
 20
10.974263
 30
0.0
 10
22.004509
 20
10.833060
 30
0.0
  0
SPLINE
  5
291
100
AcDbEntity
  8
Layer_2
 62
7
100
AcDbSpline
 70
8
 71
3
 72
8
 73
4
 74
0
 40
0
 40
0
 40
0
 40
0
 40
1
 40
1
 40
1
 40
1
 10
22.004509
 20
10.833060
 30
0.0
 10
21.854138
 20
10.691863
 30
0.0
 10
21.731107
 20
10.562026
 30
0.0
 10
21.731107
 20
10.544537
 30
0.0
  0
SPLINE
  5
292
100
AcDbEntity
  8
Layer_2
 62
7
100
AcDbSpline
 70
8
 71
3
 72
8
 73
4
 74
0
 40
0
 40
0
 40
0
 40
0
 40
1
 40
1
 40
1
 40
1
 10
21.731107
 20
10.544537
 30
0.0
 10
21.731107
 20
10.527049
 30
0.0
 10
21.760926
 20
10.512745
 30
0.0
 10
21.797372
 20
10.512745
 30
0.0
  0
SPLINE
  5
293
100
AcDbEntity
  8
Layer_2
 62
7
100
AcDbSpline
 70
8
 71
3
 72
8
 73
4
 74
0
 40
0
 40
0
 40
0
 40
0
 40
1
 40
1
 40
1
 40
1
 10
21.797372
 20
10.512745
 30
0.0
 10
21.836134
 20
10.512745
 30
0.0
 10
21.926575
 20
10.431166
 30
0.0
 10
22.015277
 20
10.316191
 30
0.0
  0
SPLINE
  5
294
100
AcDbEntity
  8
Layer_2
 62
7
100
AcDbSpline
 70
8
 71
3
 72
8
 73
4
 74
0
 40
0
 40
0
 40
0
 40
0
 40
1
 40
1
 40
1
 40
1
 10
22.015277
 20
10.316191
 30
0.0
 10
22.195886
 20
10.082088
 30
0.0
 10
22.480432
 20
9.869908
 30
0.0
 10
22.731030
 20
9.782461
 30
0.0
  0
SPLINE
  5
295
100
AcDbEntity
  8
Layer_2
 62
7
100
AcDbSpline
 70
8
 71
3
 72
8
 73
4
 74
0
 40
0
 40
0
 40
0
 40
0
 40
1
 40
1
 40
1
 40
1
 10
22.731030
 20
9.782461
 30
0.0
 10
22.870793
 20
9.733693
 30
0.0
 10
23.021249
 20
9.718995
 30
0.0
 10
23.380740
 20
9.718995
 30
0.0
  0
SPLINE
  5
296
100
AcDbEntity
  8
Layer_2
 62
7
100
AcDbSpline
 70
8
 71
3
 72
8
 73
4
 74
0
 40
0
 40
0
 40
0
 40
0
 40
1
 40
1
 40
1
 40
1
 10
23.380740
 20
9.718995
 30
0.0
 10
23.755201
 20
9.718995
 30
0.0
 10
23.844979
 20
9.709655
 30
0.0
 10
23.830581
 20
9.672140
 30
0.0
  0
SPLINE
  5
297
100
AcDbEntity
  8
Layer_2
 62
7
100
AcDbSpline
 70
8
 71
3
 72
8
 73
4
 74
0
 40
0
 40
0
 40
0
 40
0
 40
1
 40
1
 40
1
 40
1
 10
23.830581
 20
9.672140
 30
0.0
 10
23.754972
 20
9.475187
 30
0.0
 10
23.003162
 20
8.499507
 30
0.0
 10
22.495613
 20
7.939648
 30
0.0
  0
SPLINE
  5
298
100
AcDbEntity
  8
Layer_2
 62
7
100
AcDbSpline
 70
8
 71
3
 72
8
 73
4
 74
0
 40
0
 40
0
 40
0
 40
0
 40
1
 40
1
 40
1
 40
1
 10
22.495613
 20
7.939648
 30
0.0
 10
22.329595
 20
7.756517
 30
0.0
 10
22.201044
 20
7.594904
 30
0.0
 10
22.209944
 20
7.580503
 30
0.0
  0
SPLINE
  5
299
100
AcDbEntity
  8
Layer_2
 62
7
100
AcDbSpline
 70
8
 71
3
 72
8
 73
4
 74
0
 40
0
 40
0
 40
0
 40
0
 40
1
 40
1
 40
1
 40
1
 10
22.209944
 20
7.580503
 30
0.0
 10
22.228809
 20
7.549981
 30
0.0
 10
22.883638
 20
7.290512
 30
0.0
 10
23.183851
 20
7.194603
 30
0.0
  0
SPLINE
  5
29a
100
AcDbEntity
  8
Layer_2
 62
7
100
AcDbSpline
 70
8
 71
3
 72
8
 73
4
 74
0
 40
0
 40
0
 40
0
 40
0
 40
1
 40
1
 40
1
 40
1
 10
23.183851
 20
7.194603
 30
0.0
 10
23.431678
 20
7.115432
 30
0.0
 10
23.823134
 20
7.034755
 30
0.0
 10
24.112962
 20
7.003119
 30
0.0
  0
SPLINE
  5
29b
100
AcDbEntity
  8
Layer_2
 62
7
100
AcDbSpline
 70
8
 71
3
 72
8
 73
4
 74
0
 40
0
 40
0
 40
0
 40
0
 40
1
 40
1
 40
1
 40
1
 10
24.112962
 20
7.003119
 30
0.0
 10
24.628032
 20
6.946892
 30
0.0
 10
25.502730
 20
7.210679
 30
0.0
 10
26.518031
 20
7.728424
 30
0.0
  0
LWPOLYLINE
  5
29c
100
AcDbEntity
  8
Layer_2
 62
7
100
AcDbPolyline
 90
3
 70
0
 10
18.867269
 20
11.649019
 30
0.0
 10
18.789908
 20
11.523845
 30
0.0
 10
18.928771
 20
11.402994
 30
0.0
  0
SPLINE
  5
29d
100
AcDbEntity
  8
Layer_2
 62
7
100
AcDbSpline
 70
8
 71
3
 72
8
 73
4
 74
0
 40
0
 40
0
 40
0
 40
0
 40
1
 40
1
 40
1
 40
1
 10
26.847374
 20
7.766050
 30
0.0
 10
26.811351
 20
7.676004
 30
0.0
 10
26.726875
 20
7.483266
 30
0.0
 10
26.659652
 20
7.337745
 30
0.0
  0
SPLINE
  5
29e
100
AcDbEntity
  8
Layer_2
 62
7
100
AcDbSpline
 70
8
 71
3
 72
8
 73
4
 74
0
 40
0
 40
0
 40
0
 40
0
 40
1
 40
1
 40
1
 40
1
 10
26.659652
 20
7.337745
 30
0.0
 10
26.370940
 20
6.712752
 30
0.0
 10
26.324265
 20
6.604765
 30
0.0
 10
26.265225
 20
6.425208
 30
0.0
  0
SPLINE
  5
29f
100
AcDbEntity
  8
Layer_2
 62
7
100
AcDbSpline
 70
8
 71
3
 72
8
 73
4
 74
0
 40
0
 40
0
 40
0
 40
0
 40
1
 40
1
 40
1
 40
1
 10
26.265225
 20
6.425208
 30
0.0
 10
26.217522
 20
6.280131
 30
0.0
 10
26.212978
 20
6.229675
 30
0.0
 10
26.245788
 20
6.209398
 30
0.0
  0
SPLINE
  5
2a0
100
AcDbEntity
  8
Layer_2
 62
7
100
AcDbSpline
 70
8
 71
3
 72
8
 73
4
 74
0
 40
0
 40
0
 40
0
 40
0
 40
1
 40
1
 40
1
 40
1
 10
26.245788
 20
6.209398
 30
0.0
 10
26.329877
 20
6.157428
 30
0.0
 10
26.711354
 20
6.139828
 30
0.0
 10
26.979441
 20
6.175555
 30
0.0
  0
SPLINE
  5
2a1
100
AcDbEntity
  8
Layer_2
 62
7
100
AcDbSpline
 70
8
 71
3
 72
8
 73
4
 74
0
 40
0
 40
0
 40
0
 40
0
 40
1
 40
1
 40
1
 40
1
 10
26.979441
 20
6.175555
 30
0.0
 10
27.729434
 20
6.275493
 30
0.0
 10
28.267668
 20
6.576777
 30
0.0
 10
29.345530
 20
7.500006
 30
0.0
  0
LWPOLYLINE
  5
2a2
100
AcDbEntity
  8
Layer_2
 62
7
100
AcDbPolyline
 90
3
 70
0
 10
26.518031
 20
7.728424
 30
0.0
 10
26.912874
 20
7.929766
 30
0.0
 10
26.847374
 20
7.766050
 30
0.0
  0
SPLINE
  5
2a3
100
AcDbEntity
  8
Layer_2
 62
7
100
AcDbSpline
 70
8
 71
3
 72
8
 73
4
 74
0
 40
0
 40
0
 40
0
 40
0
 40
1
 40
1
 40
1
 40
1
 10
29.469001
 20
7.422737
 30
0.0
 10
29.427382
 20
7.130598
 30
0.0
 10
29.445717
 20
4.018743
 30
0.0
 10
29.489321
 20
3.975142
 30
0.0
  0
SPLINE
  5
2a4
100
AcDbEntity
  8
Layer_2
 62
7
100
AcDbSpline
 70
8
 71
3
 72
8
 73
4
 74
0
 40
0
 40
0
 40
0
 40
0
 40
1
 40
1
 40
1
 40
1
 10
29.489321
 20
3.975142
 30
0.0
 10
29.542129
 20
3.922334
 30
0.0
 10
29.899652
 20
4.005400
 30
0.0
 10
30.152618
 20
4.129249
 30
0.0
  0
SPLINE
  5
2a5
100
AcDbEntity
  8
Layer_2
 62
7
100
AcDbSpline
 70
8
 71
3
 72
8
 73
4
 74
0
 40
0
 40
0
 40
0
 40
0
 40
1
 40
1
 40
1
 40
1
 10
30.152618
 20
4.129249
 30
0.0
 10
30.433902
 20
4.266965
 30
0.0
 10
30.820916
 20
4.561901
 30
0.0
 10
31.305966
 20
5.008189
 30
0.0
  0
SPLINE
  5
2a6
100
AcDbEntity
  8
Layer_2
 62
7
100
AcDbSpline
 70
8
 71
3
 72
8
 73
4
 74
0
 40
0
 40
0
 40
0
 40
0
 40
1
 40
1
 40
1
 40
1
 10
31.305966
 20
5.008189
 30
0.0
 10
31.517717
 20
5.203018
 30
0.0
 10
31.698205
 20
5.355185
 30
0.0
 10
31.707050
 20
5.346338
 30
0.0
  0
SPLINE
  5
2a7
100
AcDbEntity
  8
Layer_2
 62
7
100
AcDbSpline
 70
8
 71
3
 72
8
 73
4
 74
0
 40
0
 40
0
 40
0
 40
0
 40
1
 40
1
 40
1
 40
1
 10
31.707050
 20
5.346338
 30
0.0
 10
31.731101
 20
5.322287
 30
0.0
 10
31.607440
 20
4.837951
 30
0.0
 10
31.531917
 20
4.660463
 30
0.0
  0
SPLINE
  5
2a8
100
AcDbEntity
  8
Layer_2
 62
7
100
AcDbSpline
 70
8
 71
3
 72
8
 73
4
 74
0
 40
0
 40
0
 40
0
 40
0
 40
1
 40
1
 40
1
 40
1
 10
31.531917
 20
4.660463
 30
0.0
 10
31.495664
 20
4.575252
 30
0.0
 10
31.473077
 20
4.498459
 30
0.0
 10
31.481726
 20
4.489810
 30
0.0
  0
SPLINE
  5
2a9
100
AcDbEntity
  8
Layer_2
 62
7
100
AcDbSpline
 70
8
 71
3
 72
8
 73
4
 74
0
 40
0
 40
0
 40
0
 40
0
 40
1
 40
1
 40
1
 40
1
 10
31.481726
 20
4.489810
 30
0.0
 10
31.505538
 20
4.465997
 30
0.0
 10
31.873960
 20
4.547619
 30
0.0
 10
32.190968
 20
4.646954
 30
0.0
  0
SPLINE
  5
2aa
100
AcDbEntity
  8
Layer_2
 62
7
100
AcDbSpline
 70
8
 71
3
 72
8
 73
4
 74
0
 40
0
 40
0
 40
0
 40
0
 40
1
 40
1
 40
1
 40
1
 10
32.190968
 20
4.646954
 30
0.0
 10
32.588594
 20
4.771549
 30
0.0
 10
33.058836
 20
4.999209
 30
0.0
 10
33.399230
 20
5.231921
 30
0.0
  0
LWPOLYLINE
  5
2ab
100
AcDbEntity
  8
Layer_2
 62
7
100
AcDbPolyline
 90
3
 70
0
 10
29.345530
 20
7.500006
 30
0.0
 10
29.498700
 20
7.631205
 30
0.0
 10
29.469001
 20
7.422737
 30
0.0
  0
LWPOLYLINE
  5
2ac
100
AcDbEntity
  8
Layer_2
 62
7
100
AcDbPolyline
 90
7
 70
0
 10
33.399230
 20
5.231921
 30
0.0
 10
33.690272
 20
5.430890
 30
0.0
 10
33.690272
 20
2.715461
 30
0.0
 10
33.690272
 20
0.000000
 30
0.0
 10
16.845139
 20
0.000000
 30
0.0
 10
0.000000
 20
0.000000
 30
0.0
 10
0.000000
 20
50.006250
 30
0.0
  0
ENDSEC
  0
SECTION
  2
OBJECTS
  0
DICTIONARY
  5
C
330
0
100
AcDbDictionary
  3
ACAD_GROUP
350
D
  3
ACAD_MLINESTYLE
350
17
  0
DICTIONARY
  5
D
330
C
100
AcDbDictionary
  0
DICTIONARY
  5
1A
330
C
100
AcDbDictionary
  0
DICTIONARY
  5
17
330
C
100
AcDbDictionary
  3
STANDARD
350
18
  0
DICTIONARY
  5
19
330
C
100
AcDbDictionary
  0
ENDSEC
  0
EOF
