%TF.GenerationSoftware,KiCad,Pcbnew,6.0.0-d3dd2cf0fa~116~ubuntu20.04.1*%
%TF.CreationDate,2022-01-22T11:47:11-08:00*%
%TF.ProjectId,usb-c-power-toggle,7573622d-632d-4706-9f77-65722d746f67,rev?*%
%TF.SameCoordinates,Original*%
%TF.FileFunction,Paste,Top*%
%TF.FilePolarity,Positive*%
%FSLAX46Y46*%
G04 Gerber Fmt 4.6, Leading zero omitted, Abs format (unit mm)*
G04 Created by KiCad (PCBNEW 6.0.0-d3dd2cf0fa~116~ubuntu20.04.1) date 2022-01-22 11:47:11*
%MOMM*%
%LPD*%
G01*
G04 APERTURE LIST*
%ADD10R,1.400000X1.500000*%
%ADD11R,2.100000X0.650000*%
%ADD12R,1.200000X1.200000*%
%ADD13R,1.300000X1.500000*%
%ADD14R,1.900000X0.350000*%
%ADD15R,1.750000X0.300000*%
%ADD16O,2.100000X0.900000*%
%ADD17O,1.600000X1.000000*%
G04 APERTURE END LIST*
D10*
%TO.C,P1*%
X132555000Y-74950000D03*
X130055000Y-74950000D03*
D11*
X134555000Y-76100000D03*
X134555000Y-82900000D03*
D12*
X131705000Y-80750000D03*
D13*
X132555000Y-84050000D03*
D12*
X131705000Y-78250000D03*
X129955000Y-77750000D03*
X129955000Y-81250000D03*
D10*
X130055000Y-84050000D03*
D14*
X134655000Y-81750000D03*
X134655000Y-81250000D03*
X134655000Y-78750000D03*
X134655000Y-78250000D03*
X134655000Y-76750000D03*
X134655000Y-77250000D03*
X134655000Y-77750000D03*
X134655000Y-79250000D03*
X134655000Y-79750000D03*
X134655000Y-80250000D03*
X134655000Y-80750000D03*
X134655000Y-82250000D03*
%TD*%
D15*
%TO.C,JP1*%
X138350000Y-76150000D03*
X138350000Y-76450000D03*
X138350000Y-77250000D03*
X138350000Y-76950000D03*
X138350000Y-81750000D03*
X138350000Y-82050000D03*
X138350000Y-82550000D03*
X138350000Y-82850000D03*
X138350000Y-79750000D03*
X138350000Y-80750000D03*
X138350000Y-81250000D03*
X138350000Y-80250000D03*
X138350000Y-77750000D03*
X138350000Y-78250000D03*
X138350000Y-78750000D03*
X138350000Y-79250000D03*
D16*
X139190000Y-75180000D03*
X139190000Y-83820000D03*
D17*
X143370000Y-75180000D03*
X143370000Y-83820000D03*
%TD*%
M02*
