G04 #@! TF.GenerationSoftware,KiCad,Pcbnew,8.0.5-1.fc40*
G04 #@! TF.CreationDate,2024-11-12T17:34:32-08:00*
G04 #@! TF.ProjectId,2024-supercon-sign-sao,32303234-2d73-4757-9065-72636f6e2d73,rev?*
G04 #@! TF.SameCoordinates,Original*
G04 #@! TF.FileFunction,Paste,Top*
G04 #@! TF.FilePolarity,Positive*
%FSLAX46Y46*%
G04 Gerber Fmt 4.6, Leading zero omitted, Abs format (unit mm)*
G04 Created by KiCad (PCBNEW 8.0.5-1.fc40) date 2024-11-12 17:34:32*
%MOMM*%
%LPD*%
G01*
G04 APERTURE LIST*
G04 Aperture macros list*
%AMRoundRect*
0 Rectangle with rounded corners*
0 $1 Rounding radius*
0 $2 $3 $4 $5 $6 $7 $8 $9 X,Y pos of 4 corners*
0 Add a 4 corners polygon primitive as box body*
4,1,4,$2,$3,$4,$5,$6,$7,$8,$9,$2,$3,0*
0 Add four circle primitives for the rounded corners*
1,1,$1+$1,$2,$3*
1,1,$1+$1,$4,$5*
1,1,$1+$1,$6,$7*
1,1,$1+$1,$8,$9*
0 Add four rect primitives between the rounded corners*
20,1,$1+$1,$2,$3,$4,$5,0*
20,1,$1+$1,$4,$5,$6,$7,0*
20,1,$1+$1,$6,$7,$8,$9,0*
20,1,$1+$1,$8,$9,$2,$3,0*%
G04 Aperture macros list end*
%ADD10RoundRect,0.135000X-0.135000X-0.185000X0.135000X-0.185000X0.135000X0.185000X-0.135000X0.185000X0*%
%ADD11RoundRect,0.218750X-0.218750X-0.256250X0.218750X-0.256250X0.218750X0.256250X-0.218750X0.256250X0*%
%ADD12RoundRect,0.218750X0.256250X-0.218750X0.256250X0.218750X-0.256250X0.218750X-0.256250X-0.218750X0*%
%ADD13RoundRect,0.218750X0.026517X-0.335876X0.335876X-0.026517X-0.026517X0.335876X-0.335876X0.026517X0*%
%ADD14RoundRect,0.135000X0.035355X-0.226274X0.226274X-0.035355X-0.035355X0.226274X-0.226274X0.035355X0*%
%ADD15RoundRect,0.135000X0.185000X-0.135000X0.185000X0.135000X-0.185000X0.135000X-0.185000X-0.135000X0*%
%ADD16RoundRect,0.150000X0.150000X-0.587500X0.150000X0.587500X-0.150000X0.587500X-0.150000X-0.587500X0*%
%ADD17RoundRect,0.135000X-0.226274X-0.035355X-0.035355X-0.226274X0.226274X0.035355X0.035355X0.226274X0*%
%ADD18RoundRect,0.140000X0.170000X-0.140000X0.170000X0.140000X-0.170000X0.140000X-0.170000X-0.140000X0*%
%ADD19RoundRect,0.218750X-0.026517X0.335876X-0.335876X0.026517X0.026517X-0.335876X0.335876X-0.026517X0*%
%ADD20RoundRect,0.135000X-0.185000X0.135000X-0.185000X-0.135000X0.185000X-0.135000X0.185000X0.135000X0*%
%ADD21RoundRect,0.135000X0.226274X0.035355X0.035355X0.226274X-0.226274X-0.035355X-0.035355X-0.226274X0*%
%ADD22RoundRect,0.218750X0.335876X0.026517X0.026517X0.335876X-0.335876X-0.026517X-0.026517X-0.335876X0*%
%ADD23RoundRect,0.218750X-0.335876X-0.026517X-0.026517X-0.335876X0.335876X0.026517X0.026517X0.335876X0*%
%ADD24RoundRect,0.100000X0.100000X-0.637500X0.100000X0.637500X-0.100000X0.637500X-0.100000X-0.637500X0*%
%ADD25RoundRect,0.135000X-0.035355X0.226274X-0.226274X0.035355X0.035355X-0.226274X0.226274X-0.035355X0*%
%ADD26RoundRect,0.140000X-0.170000X0.140000X-0.170000X-0.140000X0.170000X-0.140000X0.170000X0.140000X0*%
G04 APERTURE END LIST*
D10*
G04 #@! TO.C,R54*
X121490000Y-128500000D03*
X122510000Y-128500000D03*
G04 #@! TD*
D11*
G04 #@! TO.C,DB10*
X149212500Y-68000000D03*
X150787500Y-68000000D03*
G04 #@! TD*
D12*
G04 #@! TO.C,DC13*
X157000000Y-103787500D03*
X157000000Y-102212500D03*
G04 #@! TD*
D13*
G04 #@! TO.C,DA6*
X97693153Y-69306847D03*
X98806847Y-68193153D03*
G04 #@! TD*
D11*
G04 #@! TO.C,DB18*
X125212500Y-130000000D03*
X126787500Y-130000000D03*
G04 #@! TD*
D10*
G04 #@! TO.C,R47*
X149490000Y-128500000D03*
X150510000Y-128500000D03*
G04 #@! TD*
D12*
G04 #@! TO.C,DB12*
X157000000Y-87787500D03*
X157000000Y-86212500D03*
G04 #@! TD*
D14*
G04 #@! TO.C,R15*
X96389376Y-72610624D03*
X97110624Y-71889376D03*
G04 #@! TD*
D11*
G04 #@! TO.C,DA19*
X117212500Y-130000000D03*
X118787500Y-130000000D03*
G04 #@! TD*
D15*
G04 #@! TO.C,R41*
X155500000Y-111509999D03*
X155500000Y-110490001D03*
G04 #@! TD*
D10*
G04 #@! TO.C,R27*
X141490000Y-69500000D03*
X142510000Y-69500000D03*
G04 #@! TD*
D11*
G04 #@! TO.C,DC17*
X133212500Y-130000000D03*
X134787500Y-130000000D03*
G04 #@! TD*
D10*
G04 #@! TO.C,R28*
X145490000Y-69500000D03*
X146510000Y-69500000D03*
G04 #@! TD*
G04 #@! TO.C,R59*
X101490000Y-128500000D03*
X102510000Y-128500000D03*
G04 #@! TD*
G04 #@! TO.C,R23*
X125490000Y-69500000D03*
X126510000Y-69500000D03*
G04 #@! TD*
D16*
G04 #@! TO.C,Q2*
X145425001Y-134375000D03*
X147325001Y-134375000D03*
X146375001Y-132499999D03*
G04 #@! TD*
G04 #@! TO.C,Q3*
X150050000Y-134375001D03*
X151950000Y-134375001D03*
X151000000Y-132500000D03*
G04 #@! TD*
D10*
G04 #@! TO.C,R20*
X113490000Y-69500000D03*
X114510000Y-69500000D03*
G04 #@! TD*
D11*
G04 #@! TO.C,DC9*
X141212500Y-68000000D03*
X142787500Y-68000000D03*
G04 #@! TD*
D10*
G04 #@! TO.C,R56*
X113490000Y-128500000D03*
X114510000Y-128500000D03*
G04 #@! TD*
D15*
G04 #@! TO.C,R40*
X155500000Y-107509999D03*
X155500000Y-106490001D03*
G04 #@! TD*
D11*
G04 #@! TO.C,DA8*
X121212500Y-68000000D03*
X122787500Y-68000000D03*
G04 #@! TD*
G04 #@! TO.C,DA7*
X109212500Y-68000000D03*
X110787500Y-68000000D03*
G04 #@! TD*
D17*
G04 #@! TO.C,R31*
X154889376Y-71889376D03*
X155610624Y-72610624D03*
G04 #@! TD*
D12*
G04 #@! TO.C,DB13*
X157000000Y-99787500D03*
X157000000Y-98212500D03*
G04 #@! TD*
D18*
G04 #@! TO.C,C1*
X121000000Y-135480000D03*
X121000000Y-134520000D03*
G04 #@! TD*
D10*
G04 #@! TO.C,R51*
X133490000Y-128500000D03*
X134510000Y-128500000D03*
G04 #@! TD*
D19*
G04 #@! TO.C,DA16*
X154306847Y-128693153D03*
X153193153Y-129806847D03*
G04 #@! TD*
D11*
G04 #@! TO.C,DB17*
X137212500Y-130000000D03*
X138787500Y-130000000D03*
G04 #@! TD*
D12*
G04 #@! TO.C,DA4*
X95000000Y-91787500D03*
X95000000Y-90212500D03*
G04 #@! TD*
G04 #@! TO.C,DB5*
X95000000Y-75787500D03*
X95000000Y-74212500D03*
G04 #@! TD*
D10*
G04 #@! TO.C,R63*
X145990001Y-136250000D03*
X147009999Y-136250000D03*
G04 #@! TD*
D11*
G04 #@! TO.C,DB19*
X113212500Y-130000000D03*
X114787500Y-130000000D03*
G04 #@! TD*
D14*
G04 #@! TO.C,R16*
X98889376Y-70110624D03*
X99610624Y-69389376D03*
G04 #@! TD*
D12*
G04 #@! TO.C,DA12*
X157000000Y-83787500D03*
X157000000Y-82212500D03*
G04 #@! TD*
D15*
G04 #@! TO.C,R11*
X96500000Y-87509999D03*
X96500000Y-86490001D03*
G04 #@! TD*
D10*
G04 #@! TO.C,R62*
X141240001Y-136250000D03*
X142259999Y-136250000D03*
G04 #@! TD*
G04 #@! TO.C,R22*
X121490000Y-69500000D03*
X122510000Y-69500000D03*
G04 #@! TD*
D15*
G04 #@! TO.C,R35*
X155500000Y-87509999D03*
X155500000Y-86490001D03*
G04 #@! TD*
D11*
G04 #@! TO.C,DB7*
X113212500Y-68000000D03*
X114787500Y-68000000D03*
G04 #@! TD*
D12*
G04 #@! TO.C,DC14*
X157000000Y-115787500D03*
X157000000Y-114212500D03*
G04 #@! TD*
D10*
G04 #@! TO.C,R21*
X117490000Y-69500000D03*
X118510000Y-69500000D03*
G04 #@! TD*
D12*
G04 #@! TO.C,DA2*
X95000000Y-115787500D03*
X95000000Y-114212500D03*
G04 #@! TD*
D15*
G04 #@! TO.C,R2*
X96500000Y-123509999D03*
X96500000Y-122490001D03*
G04 #@! TD*
G04 #@! TO.C,R42*
X155500000Y-115509999D03*
X155500000Y-114490001D03*
G04 #@! TD*
D10*
G04 #@! TO.C,R48*
X145490000Y-128500000D03*
X146510000Y-128500000D03*
G04 #@! TD*
D12*
G04 #@! TO.C,DC12*
X157000000Y-91787500D03*
X157000000Y-90212500D03*
G04 #@! TD*
G04 #@! TO.C,DA13*
X157000000Y-95787500D03*
X157000000Y-94212500D03*
G04 #@! TD*
D11*
G04 #@! TO.C,DB20*
X101212500Y-130000000D03*
X102787500Y-130000000D03*
G04 #@! TD*
D15*
G04 #@! TO.C,R10*
X96500000Y-91509999D03*
X96500000Y-90490001D03*
G04 #@! TD*
D12*
G04 #@! TO.C,DA15*
X157000000Y-119787500D03*
X157000000Y-118212500D03*
G04 #@! TD*
D11*
G04 #@! TO.C,DC18*
X121212500Y-130000000D03*
X122787500Y-130000000D03*
G04 #@! TD*
D10*
G04 #@! TO.C,R53*
X125490000Y-128500000D03*
X126510000Y-128500000D03*
G04 #@! TD*
D13*
G04 #@! TO.C,DC5*
X95193153Y-71806847D03*
X96306847Y-70693153D03*
G04 #@! TD*
D15*
G04 #@! TO.C,R12*
X96500000Y-83509999D03*
X96500000Y-82490001D03*
G04 #@! TD*
D10*
G04 #@! TO.C,R55*
X117490000Y-128500000D03*
X118510000Y-128500000D03*
G04 #@! TD*
D12*
G04 #@! TO.C,DA3*
X95000000Y-103787500D03*
X95000000Y-102212500D03*
G04 #@! TD*
D15*
G04 #@! TO.C,R7*
X96500000Y-103509999D03*
X96500000Y-102490001D03*
G04 #@! TD*
D20*
G04 #@! TO.C,R61*
X112250000Y-134240001D03*
X112250000Y-135259999D03*
G04 #@! TD*
D10*
G04 #@! TO.C,R19*
X109490000Y-69500000D03*
X110510000Y-69500000D03*
G04 #@! TD*
G04 #@! TO.C,R18*
X105490000Y-69500000D03*
X106510000Y-69500000D03*
G04 #@! TD*
D12*
G04 #@! TO.C,DA5*
X95000000Y-79787500D03*
X95000000Y-78212500D03*
G04 #@! TD*
D15*
G04 #@! TO.C,R32*
X155500000Y-75509999D03*
X155500000Y-74490001D03*
G04 #@! TD*
D12*
G04 #@! TO.C,DA14*
X157000000Y-107787500D03*
X157000000Y-106212500D03*
G04 #@! TD*
D10*
G04 #@! TO.C,R17*
X101490000Y-69500000D03*
X102510000Y-69500000D03*
G04 #@! TD*
D15*
G04 #@! TO.C,R5*
X96500000Y-111509999D03*
X96500000Y-110490001D03*
G04 #@! TD*
D21*
G04 #@! TO.C,R1*
X97110624Y-126110624D03*
X96389376Y-125389376D03*
G04 #@! TD*
D11*
G04 #@! TO.C,DA9*
X133212500Y-68000000D03*
X134787500Y-68000000D03*
G04 #@! TD*
D15*
G04 #@! TO.C,R34*
X155500000Y-83509999D03*
X155500000Y-82490001D03*
G04 #@! TD*
D11*
G04 #@! TO.C,DB9*
X137212500Y-68000000D03*
X138787500Y-68000000D03*
G04 #@! TD*
D10*
G04 #@! TO.C,R29*
X149490000Y-69500000D03*
X150510000Y-69500000D03*
G04 #@! TD*
D16*
G04 #@! TO.C,Q1*
X140800000Y-134375000D03*
X142700000Y-134375000D03*
X141750000Y-132499999D03*
G04 #@! TD*
D12*
G04 #@! TO.C,DB14*
X157000000Y-111787500D03*
X157000000Y-110212500D03*
G04 #@! TD*
G04 #@! TO.C,DB11*
X157000000Y-75787500D03*
X157000000Y-74212500D03*
G04 #@! TD*
D21*
G04 #@! TO.C,R60*
X99610624Y-128610624D03*
X98889376Y-127889376D03*
G04 #@! TD*
D15*
G04 #@! TO.C,R14*
X96500000Y-75509999D03*
X96500000Y-74490001D03*
G04 #@! TD*
D10*
G04 #@! TO.C,R26*
X137490000Y-69500000D03*
X138510000Y-69500000D03*
G04 #@! TD*
G04 #@! TO.C,R50*
X137480000Y-128500000D03*
X138500000Y-128500000D03*
G04 #@! TD*
D12*
G04 #@! TO.C,DB4*
X95000000Y-87787500D03*
X95000000Y-86212500D03*
G04 #@! TD*
D15*
G04 #@! TO.C,R3*
X96500000Y-119509999D03*
X96500000Y-118490001D03*
G04 #@! TD*
D11*
G04 #@! TO.C,DC7*
X117212500Y-68000000D03*
X118787500Y-68000000D03*
G04 #@! TD*
D12*
G04 #@! TO.C,DB15*
X157000000Y-123787500D03*
X157000000Y-122212500D03*
G04 #@! TD*
D22*
G04 #@! TO.C,DA1*
X96306847Y-127306847D03*
X95193153Y-126193153D03*
G04 #@! TD*
D11*
G04 #@! TO.C,DC6*
X105212500Y-68000000D03*
X106787500Y-68000000D03*
G04 #@! TD*
D12*
G04 #@! TO.C,DB2*
X95000000Y-111787500D03*
X95000000Y-110212500D03*
G04 #@! TD*
D15*
G04 #@! TO.C,R9*
X96500000Y-95509999D03*
X96500000Y-94490001D03*
G04 #@! TD*
D10*
G04 #@! TO.C,R57*
X109490000Y-128500000D03*
X110510000Y-128500000D03*
G04 #@! TD*
D11*
G04 #@! TO.C,DA10*
X145212500Y-68000000D03*
X146787500Y-68000000D03*
G04 #@! TD*
D23*
G04 #@! TO.C,DC10*
X153193153Y-68193153D03*
X154306847Y-69306847D03*
G04 #@! TD*
D12*
G04 #@! TO.C,DC11*
X157000000Y-79787500D03*
X157000000Y-78212500D03*
G04 #@! TD*
D10*
G04 #@! TO.C,R64*
X150490001Y-136250000D03*
X151509999Y-136250000D03*
G04 #@! TD*
D24*
G04 #@! TO.C,U1*
X113575000Y-137612500D03*
X114225000Y-137612500D03*
X114875000Y-137612500D03*
X115525000Y-137612500D03*
X116175000Y-137612500D03*
X116825000Y-137612500D03*
X117475000Y-137612500D03*
X118125000Y-137612500D03*
X118775000Y-137612500D03*
X119425000Y-137612500D03*
X119425000Y-131887500D03*
X118775000Y-131887500D03*
X118125000Y-131887500D03*
X117475000Y-131887500D03*
X116825000Y-131887500D03*
X116175000Y-131887500D03*
X115525000Y-131887500D03*
X114875000Y-131887500D03*
X114225000Y-131887500D03*
X113575000Y-131887500D03*
G04 #@! TD*
D11*
G04 #@! TO.C,DC8*
X129212500Y-68000000D03*
X130787500Y-68000000D03*
G04 #@! TD*
D12*
G04 #@! TO.C,DB1*
X95000000Y-123787500D03*
X95000000Y-122212500D03*
G04 #@! TD*
D15*
G04 #@! TO.C,R4*
X96500000Y-115509999D03*
X96500000Y-114490001D03*
G04 #@! TD*
D19*
G04 #@! TO.C,DC15*
X156806847Y-126193153D03*
X155693153Y-127306847D03*
G04 #@! TD*
D12*
G04 #@! TO.C,DC4*
X95000000Y-83787500D03*
X95000000Y-82212500D03*
G04 #@! TD*
D15*
G04 #@! TO.C,R39*
X155500000Y-103509999D03*
X155500000Y-102490001D03*
G04 #@! TD*
G04 #@! TO.C,R8*
X96500000Y-99509999D03*
X96500000Y-98490001D03*
G04 #@! TD*
D11*
G04 #@! TO.C,DA17*
X141212500Y-130000000D03*
X142787500Y-130000000D03*
G04 #@! TD*
D22*
G04 #@! TO.C,DC20*
X98806847Y-129806847D03*
X97693153Y-128693153D03*
G04 #@! TD*
D11*
G04 #@! TO.C,DC16*
X145212500Y-130000000D03*
X146787500Y-130000000D03*
G04 #@! TD*
D12*
G04 #@! TO.C,DC3*
X95000000Y-95787500D03*
X95000000Y-94212500D03*
G04 #@! TD*
D25*
G04 #@! TO.C,R46*
X153110624Y-127889376D03*
X152389376Y-128610624D03*
G04 #@! TD*
D17*
G04 #@! TO.C,R30*
X152389376Y-69389376D03*
X153110624Y-70110624D03*
G04 #@! TD*
D11*
G04 #@! TO.C,DB6*
X101212500Y-68000000D03*
X102787500Y-68000000D03*
G04 #@! TD*
D15*
G04 #@! TO.C,R33*
X155500000Y-79509999D03*
X155500000Y-78490001D03*
G04 #@! TD*
D11*
G04 #@! TO.C,DA20*
X105212500Y-130000000D03*
X106787500Y-130000000D03*
G04 #@! TD*
D12*
G04 #@! TO.C,DB3*
X95000000Y-99787500D03*
X95000000Y-98212500D03*
G04 #@! TD*
D10*
G04 #@! TO.C,R58*
X105490000Y-128500000D03*
X106510000Y-128500000D03*
G04 #@! TD*
D15*
G04 #@! TO.C,R13*
X96500000Y-79509999D03*
X96500000Y-78490001D03*
G04 #@! TD*
D12*
G04 #@! TO.C,DC1*
X95000000Y-119787500D03*
X95000000Y-118212500D03*
G04 #@! TD*
D11*
G04 #@! TO.C,DB16*
X149212500Y-130000000D03*
X150787500Y-130000000D03*
G04 #@! TD*
D15*
G04 #@! TO.C,R6*
X96500000Y-107509999D03*
X96500000Y-106490001D03*
G04 #@! TD*
D11*
G04 #@! TO.C,DC19*
X109212500Y-130000000D03*
X110787500Y-130000000D03*
G04 #@! TD*
D12*
G04 #@! TO.C,DC2*
X95000000Y-107787500D03*
X95000000Y-106212500D03*
G04 #@! TD*
D15*
G04 #@! TO.C,R38*
X155500000Y-99509999D03*
X155500000Y-98490001D03*
G04 #@! TD*
G04 #@! TO.C,R37*
X155500000Y-95509999D03*
X155500000Y-94490001D03*
G04 #@! TD*
G04 #@! TO.C,R44*
X155500000Y-123509999D03*
X155500000Y-122490001D03*
G04 #@! TD*
D11*
G04 #@! TO.C,DB8*
X125212500Y-68000000D03*
X126787500Y-68000000D03*
G04 #@! TD*
D26*
G04 #@! TO.C,C2*
X121000000Y-136520000D03*
X121000000Y-137480000D03*
G04 #@! TD*
D10*
G04 #@! TO.C,R24*
X129490000Y-69500000D03*
X130510000Y-69500000D03*
G04 #@! TD*
D23*
G04 #@! TO.C,DA11*
X155693153Y-70693153D03*
X156806847Y-71806847D03*
G04 #@! TD*
D11*
G04 #@! TO.C,DA18*
X129212500Y-130000000D03*
X130787500Y-130000000D03*
G04 #@! TD*
D10*
G04 #@! TO.C,R52*
X129490000Y-128500000D03*
X130510000Y-128500000D03*
G04 #@! TD*
D25*
G04 #@! TO.C,R45*
X155860624Y-125139376D03*
X155139376Y-125860624D03*
G04 #@! TD*
D15*
G04 #@! TO.C,R36*
X155500000Y-91509999D03*
X155500000Y-90490001D03*
G04 #@! TD*
G04 #@! TO.C,R43*
X155500000Y-119509999D03*
X155500000Y-118490001D03*
G04 #@! TD*
D10*
G04 #@! TO.C,R49*
X141490000Y-128500000D03*
X142510000Y-128500000D03*
G04 #@! TD*
G04 #@! TO.C,R25*
X133490000Y-69500000D03*
X134510000Y-69500000D03*
G04 #@! TD*
M02*
