G04 #@! TF.GenerationSoftware,KiCad,Pcbnew,5.1.12-84ad8e8a86~92~ubuntu20.04.1*
G04 #@! TF.CreationDate,2021-12-19T18:17:29-08:00*
G04 #@! TF.ProjectId,ft4232h-breakout,66743432-3332-4682-9d62-7265616b6f75,Jun2021b*
G04 #@! TF.SameCoordinates,Original*
G04 #@! TF.FileFunction,Soldermask,Top*
G04 #@! TF.FilePolarity,Negative*
%FSLAX46Y46*%
G04 Gerber Fmt 4.6, Leading zero omitted, Abs format (unit mm)*
G04 Created by KiCad (PCBNEW 5.1.12-84ad8e8a86~92~ubuntu20.04.1) date 2021-12-19 18:17:29*
%MOMM*%
%LPD*%
G01*
G04 APERTURE LIST*
%ADD10C,7.500000*%
%ADD11O,1.700000X1.700000*%
%ADD12R,1.700000X1.700000*%
%ADD13O,3.000000X2.000000*%
G04 APERTURE END LIST*
D10*
G04 #@! TO.C,TP1*
X99060000Y-87630000D03*
G04 #@! TD*
D11*
G04 #@! TO.C,J8*
X71628000Y-85090000D03*
X71628000Y-87630000D03*
X71628000Y-90170000D03*
X71628000Y-92710000D03*
X71628000Y-95250000D03*
X71628000Y-97790000D03*
D12*
X71628000Y-100330000D03*
G04 #@! TD*
D11*
G04 #@! TO.C,J5*
X71628000Y-105410000D03*
X71628000Y-107950000D03*
X71628000Y-110490000D03*
X71628000Y-113030000D03*
X71628000Y-115570000D03*
X71628000Y-118110000D03*
D12*
X71628000Y-120650000D03*
G04 #@! TD*
D11*
G04 #@! TO.C,J4*
X81280000Y-124460000D03*
X83820000Y-124460000D03*
D12*
X86360000Y-124460000D03*
G04 #@! TD*
D11*
G04 #@! TO.C,J3*
X91440000Y-124460000D03*
X93980000Y-124460000D03*
D12*
X96520000Y-124460000D03*
G04 #@! TD*
G04 #@! TO.C,R2*
G36*
G01*
X119946000Y-88443750D02*
X119946000Y-89356250D01*
G75*
G02*
X119702250Y-89600000I-243750J0D01*
G01*
X119214750Y-89600000D01*
G75*
G02*
X118971000Y-89356250I0J243750D01*
G01*
X118971000Y-88443750D01*
G75*
G02*
X119214750Y-88200000I243750J0D01*
G01*
X119702250Y-88200000D01*
G75*
G02*
X119946000Y-88443750I0J-243750D01*
G01*
G37*
G36*
G01*
X121821000Y-88443750D02*
X121821000Y-89356250D01*
G75*
G02*
X121577250Y-89600000I-243750J0D01*
G01*
X121089750Y-89600000D01*
G75*
G02*
X120846000Y-89356250I0J243750D01*
G01*
X120846000Y-88443750D01*
G75*
G02*
X121089750Y-88200000I243750J0D01*
G01*
X121577250Y-88200000D01*
G75*
G02*
X121821000Y-88443750I0J-243750D01*
G01*
G37*
G04 #@! TD*
G04 #@! TO.C,D1*
G36*
G01*
X117450000Y-89356250D02*
X117450000Y-88443750D01*
G75*
G02*
X117693750Y-88200000I243750J0D01*
G01*
X118181250Y-88200000D01*
G75*
G02*
X118425000Y-88443750I0J-243750D01*
G01*
X118425000Y-89356250D01*
G75*
G02*
X118181250Y-89600000I-243750J0D01*
G01*
X117693750Y-89600000D01*
G75*
G02*
X117450000Y-89356250I0J243750D01*
G01*
G37*
G36*
G01*
X115575000Y-89356250D02*
X115575000Y-88443750D01*
G75*
G02*
X115818750Y-88200000I243750J0D01*
G01*
X116306250Y-88200000D01*
G75*
G02*
X116550000Y-88443750I0J-243750D01*
G01*
X116550000Y-89356250D01*
G75*
G02*
X116306250Y-89600000I-243750J0D01*
G01*
X115818750Y-89600000D01*
G75*
G02*
X115575000Y-89356250I0J243750D01*
G01*
G37*
G04 #@! TD*
D13*
G04 #@! TO.C,X1*
X90325000Y-115940000D03*
X113200000Y-110860000D03*
X90325000Y-108320000D03*
X113200000Y-115940000D03*
X109675000Y-115940000D03*
X109675000Y-110860000D03*
X86800000Y-115940000D03*
X90325000Y-105780000D03*
X109675000Y-113400000D03*
X109675000Y-108320000D03*
X113200000Y-105780000D03*
X109675000Y-105780000D03*
X90325000Y-113400000D03*
X86800000Y-105780000D03*
X113200000Y-113400000D03*
X90325000Y-110860000D03*
X86800000Y-108320000D03*
X86800000Y-110860000D03*
X113200000Y-108320000D03*
X86800000Y-113400000D03*
X113200000Y-98160000D03*
X109675000Y-98160000D03*
X86800000Y-100700000D03*
X113200000Y-95620000D03*
X109675000Y-100700000D03*
X90325000Y-100700000D03*
X86800000Y-95620000D03*
X109675000Y-95620000D03*
X113200000Y-100700000D03*
X90325000Y-95620000D03*
X90325000Y-103240000D03*
X113200000Y-103240000D03*
X90325000Y-98160000D03*
X109675000Y-103240000D03*
X86800000Y-103240000D03*
X86800000Y-98160000D03*
X113200000Y-93080000D03*
X109675000Y-93080000D03*
X113200000Y-90540000D03*
X86800000Y-90540000D03*
X109675000Y-90540000D03*
X90325000Y-90540000D03*
X90325000Y-93080000D03*
X86800000Y-93080000D03*
X113200000Y-88000000D03*
X86800000Y-88000000D03*
X109675000Y-88000000D03*
X90325000Y-88000000D03*
X86800000Y-85460000D03*
X113200000Y-85460000D03*
X90325000Y-85460000D03*
X109675000Y-85460000D03*
G04 #@! TD*
D11*
G04 #@! TO.C,J7*
X128270000Y-120650000D03*
X128270000Y-118110000D03*
X128270000Y-115570000D03*
X128270000Y-113030000D03*
X128270000Y-110490000D03*
X128270000Y-107950000D03*
D12*
X128270000Y-105410000D03*
G04 #@! TD*
D11*
G04 #@! TO.C,J6*
X128270000Y-100330000D03*
X128270000Y-97790000D03*
X128270000Y-95250000D03*
X128270000Y-92710000D03*
X128270000Y-90170000D03*
X128270000Y-87630000D03*
D12*
X128270000Y-85090000D03*
G04 #@! TD*
D11*
G04 #@! TO.C,J2*
X101600000Y-124460000D03*
X104140000Y-124460000D03*
D12*
X106680000Y-124460000D03*
G04 #@! TD*
D11*
G04 #@! TO.C,J1*
X111760000Y-124460000D03*
X114300000Y-124460000D03*
D12*
X116840000Y-124460000D03*
G04 #@! TD*
G04 #@! TO.C,C1*
G36*
G01*
X105860000Y-86181250D02*
X105860000Y-85268750D01*
G75*
G02*
X106103750Y-85025000I243750J0D01*
G01*
X106591250Y-85025000D01*
G75*
G02*
X106835000Y-85268750I0J-243750D01*
G01*
X106835000Y-86181250D01*
G75*
G02*
X106591250Y-86425000I-243750J0D01*
G01*
X106103750Y-86425000D01*
G75*
G02*
X105860000Y-86181250I0J243750D01*
G01*
G37*
G36*
G01*
X103985000Y-86181250D02*
X103985000Y-85268750D01*
G75*
G02*
X104228750Y-85025000I243750J0D01*
G01*
X104716250Y-85025000D01*
G75*
G02*
X104960000Y-85268750I0J-243750D01*
G01*
X104960000Y-86181250D01*
G75*
G02*
X104716250Y-86425000I-243750J0D01*
G01*
X104228750Y-86425000D01*
G75*
G02*
X103985000Y-86181250I0J243750D01*
G01*
G37*
G04 #@! TD*
M02*
