M48
; DRILL file {KiCad 5.1.12-84ad8e8a86~92~ubuntu20.04.1} date Sun 19 Dec 2021 06:17:29 PM
; FORMAT={-:-/ absolute / metric / decimal}
; #@! TF.CreationDate,2021-12-19T18:17:29-08:00
; #@! TF.GenerationSoftware,Kicad,Pcbnew,5.1.12-84ad8e8a86~92~ubuntu20.04.1
FMAT,2
METRIC
T1C0.400
T2C1.000
T3C1.100
T4C3.400
T5C3.400
T6C4.500
%
G90
G05
T1
X74.168Y-109.22
X74.173Y-95.001
X76.2Y-110.744
X78.232Y-114.3
X78.74Y-108.712
X79.375Y-121.92
X79.765Y-84.364
X81.28Y-110.744
X82.291Y-84.323
X92.688Y-83.08
X102.87Y-83.82
X107.315Y-86.995
X118.745Y-97.155
X119.888Y-85.344
X121.92Y-120.015
X123.19Y-120.015
X125.742Y-117.895
X126.58Y-112.039
T2
X71.628Y-85.09
X71.628Y-87.63
X71.628Y-90.17
X71.628Y-92.71
X71.628Y-95.25
X71.628Y-97.79
X71.628Y-100.33
X71.628Y-105.41
X71.628Y-107.95
X71.628Y-110.49
X71.628Y-113.03
X71.628Y-115.57
X71.628Y-118.11
X71.628Y-120.65
X81.28Y-124.46
X83.82Y-124.46
X86.36Y-124.46
X91.44Y-124.46
X93.98Y-124.46
X96.52Y-124.46
X101.6Y-124.46
X104.14Y-124.46
X106.68Y-124.46
X111.76Y-124.46
X114.3Y-124.46
X116.84Y-124.46
X128.27Y-85.09
X128.27Y-87.63
X128.27Y-90.17
X128.27Y-92.71
X128.27Y-95.25
X128.27Y-97.79
X128.27Y-100.33
X128.27Y-105.41
X128.27Y-107.95
X128.27Y-110.49
X128.27Y-113.03
X128.27Y-115.57
X128.27Y-118.11
X128.27Y-120.65
T3
X87.3Y-85.46
X87.3Y-88.0
X87.3Y-90.54
X87.3Y-93.08
X87.3Y-95.62
X87.3Y-98.16
X87.3Y-100.7
X87.3Y-103.24
X87.3Y-105.78
X87.3Y-108.32
X87.3Y-110.86
X87.3Y-113.4
X87.3Y-115.94
X89.825Y-85.46
X89.825Y-88.0
X89.825Y-90.54
X89.825Y-93.08
X89.825Y-95.62
X89.825Y-98.16
X89.825Y-100.7
X89.825Y-103.24
X89.825Y-105.78
X89.825Y-108.32
X89.825Y-110.86
X89.825Y-113.4
X89.825Y-115.94
X110.175Y-85.46
X110.175Y-88.0
X110.175Y-90.54
X110.175Y-93.08
X110.175Y-95.62
X110.175Y-98.16
X110.175Y-100.7
X110.175Y-103.24
X110.175Y-105.78
X110.175Y-108.32
X110.175Y-110.86
X110.175Y-113.4
X110.175Y-115.94
X112.7Y-85.46
X112.7Y-88.0
X112.7Y-90.54
X112.7Y-93.08
X112.7Y-95.62
X112.7Y-98.16
X112.7Y-100.7
X112.7Y-103.24
X112.7Y-105.78
X112.7Y-108.32
X112.7Y-110.86
X112.7Y-113.4
X112.7Y-115.94
T4
X123.825Y-123.825
T5
X76.2Y-123.825
T6
X99.06Y-87.63
T0
M30
