G04 #@! TF.GenerationSoftware,KiCad,Pcbnew,5.1.12-84ad8e8a86~92~ubuntu20.04.1*
G04 #@! TF.CreationDate,2021-12-19T18:17:29-08:00*
G04 #@! TF.ProjectId,ft4232h-breakout,66743432-3332-4682-9d62-7265616b6f75,Jun2021b*
G04 #@! TF.SameCoordinates,Original*
G04 #@! TF.FileFunction,Paste,Bot*
G04 #@! TF.FilePolarity,Positive*
%FSLAX46Y46*%
G04 Gerber Fmt 4.6, Leading zero omitted, Abs format (unit mm)*
G04 Created by KiCad (PCBNEW 5.1.12-84ad8e8a86~92~ubuntu20.04.1) date 2021-12-19 18:17:29*
%MOMM*%
%LPD*%
G01*
G04 APERTURE LIST*
G04 APERTURE END LIST*
G04 #@! TO.C,C5*
G36*
G01*
X74727750Y-99431500D02*
X75640250Y-99431500D01*
G75*
G02*
X75884000Y-99675250I0J-243750D01*
G01*
X75884000Y-100162750D01*
G75*
G02*
X75640250Y-100406500I-243750J0D01*
G01*
X74727750Y-100406500D01*
G75*
G02*
X74484000Y-100162750I0J243750D01*
G01*
X74484000Y-99675250D01*
G75*
G02*
X74727750Y-99431500I243750J0D01*
G01*
G37*
G36*
G01*
X74727750Y-97556500D02*
X75640250Y-97556500D01*
G75*
G02*
X75884000Y-97800250I0J-243750D01*
G01*
X75884000Y-98287750D01*
G75*
G02*
X75640250Y-98531500I-243750J0D01*
G01*
X74727750Y-98531500D01*
G75*
G02*
X74484000Y-98287750I0J243750D01*
G01*
X74484000Y-97800250D01*
G75*
G02*
X74727750Y-97556500I243750J0D01*
G01*
G37*
G04 #@! TD*
G04 #@! TO.C,C4*
G36*
G01*
X74727750Y-119243500D02*
X75640250Y-119243500D01*
G75*
G02*
X75884000Y-119487250I0J-243750D01*
G01*
X75884000Y-119974750D01*
G75*
G02*
X75640250Y-120218500I-243750J0D01*
G01*
X74727750Y-120218500D01*
G75*
G02*
X74484000Y-119974750I0J243750D01*
G01*
X74484000Y-119487250D01*
G75*
G02*
X74727750Y-119243500I243750J0D01*
G01*
G37*
G36*
G01*
X74727750Y-117368500D02*
X75640250Y-117368500D01*
G75*
G02*
X75884000Y-117612250I0J-243750D01*
G01*
X75884000Y-118099750D01*
G75*
G02*
X75640250Y-118343500I-243750J0D01*
G01*
X74727750Y-118343500D01*
G75*
G02*
X74484000Y-118099750I0J243750D01*
G01*
X74484000Y-117612250D01*
G75*
G02*
X74727750Y-117368500I243750J0D01*
G01*
G37*
G04 #@! TD*
G04 #@! TO.C,C6*
G36*
G01*
X124916250Y-85910000D02*
X124003750Y-85910000D01*
G75*
G02*
X123760000Y-85666250I0J243750D01*
G01*
X123760000Y-85178750D01*
G75*
G02*
X124003750Y-84935000I243750J0D01*
G01*
X124916250Y-84935000D01*
G75*
G02*
X125160000Y-85178750I0J-243750D01*
G01*
X125160000Y-85666250D01*
G75*
G02*
X124916250Y-85910000I-243750J0D01*
G01*
G37*
G36*
G01*
X124916250Y-87785000D02*
X124003750Y-87785000D01*
G75*
G02*
X123760000Y-87541250I0J243750D01*
G01*
X123760000Y-87053750D01*
G75*
G02*
X124003750Y-86810000I243750J0D01*
G01*
X124916250Y-86810000D01*
G75*
G02*
X125160000Y-87053750I0J-243750D01*
G01*
X125160000Y-87541250D01*
G75*
G02*
X124916250Y-87785000I-243750J0D01*
G01*
G37*
G04 #@! TD*
G04 #@! TO.C,C3*
G36*
G01*
X124916250Y-106230000D02*
X124003750Y-106230000D01*
G75*
G02*
X123760000Y-105986250I0J243750D01*
G01*
X123760000Y-105498750D01*
G75*
G02*
X124003750Y-105255000I243750J0D01*
G01*
X124916250Y-105255000D01*
G75*
G02*
X125160000Y-105498750I0J-243750D01*
G01*
X125160000Y-105986250D01*
G75*
G02*
X124916250Y-106230000I-243750J0D01*
G01*
G37*
G36*
G01*
X124916250Y-108105000D02*
X124003750Y-108105000D01*
G75*
G02*
X123760000Y-107861250I0J243750D01*
G01*
X123760000Y-107373750D01*
G75*
G02*
X124003750Y-107130000I243750J0D01*
G01*
X124916250Y-107130000D01*
G75*
G02*
X125160000Y-107373750I0J-243750D01*
G01*
X125160000Y-107861250D01*
G75*
G02*
X124916250Y-108105000I-243750J0D01*
G01*
G37*
G04 #@! TD*
G04 #@! TO.C,C2*
G36*
G01*
X82728750Y-89350000D02*
X83641250Y-89350000D01*
G75*
G02*
X83885000Y-89593750I0J-243750D01*
G01*
X83885000Y-90081250D01*
G75*
G02*
X83641250Y-90325000I-243750J0D01*
G01*
X82728750Y-90325000D01*
G75*
G02*
X82485000Y-90081250I0J243750D01*
G01*
X82485000Y-89593750D01*
G75*
G02*
X82728750Y-89350000I243750J0D01*
G01*
G37*
G36*
G01*
X82728750Y-87475000D02*
X83641250Y-87475000D01*
G75*
G02*
X83885000Y-87718750I0J-243750D01*
G01*
X83885000Y-88206250D01*
G75*
G02*
X83641250Y-88450000I-243750J0D01*
G01*
X82728750Y-88450000D01*
G75*
G02*
X82485000Y-88206250I0J243750D01*
G01*
X82485000Y-87718750D01*
G75*
G02*
X82728750Y-87475000I243750J0D01*
G01*
G37*
G04 #@! TD*
M02*
