M48
; DRILL file {KiCad 6.0.9-8da3e8f707~117~ubuntu22.04.1} date Sat 03 Dec 2022 05:44:37 PM
; FORMAT={-:-/ absolute / metric / decimal}
; #@! TF.CreationDate,2022-12-03T17:44:37-08:00
; #@! TF.GenerationSoftware,Kicad,Pcbnew,6.0.9-8da3e8f707~117~ubuntu22.04.1
; #@! TF.FileFunction,MixedPlating,1,4
FMAT,2
METRIC
; #@! TA.AperFunction,Plated,PTH,ViaDrill
T1C0.400
; #@! TA.AperFunction,Plated,PTH,ComponentDrill
T2C0.500
; #@! TA.AperFunction,Plated,PTH,ComponentDrill
T3C0.600
; #@! TA.AperFunction,Plated,PTH,ComponentDrill
T4C0.600
; #@! TA.AperFunction,Plated,PTH,ComponentDrill
T5C0.900
; #@! TA.AperFunction,Plated,PTH,ComponentDrill
T6C1.000
; #@! TA.AperFunction,Plated,PTH,ComponentDrill
T7C3.200
; #@! TA.AperFunction,NonPlated,NPTH,ComponentDrill
T8C0.650
; #@! TA.AperFunction,NonPlated,NPTH,ComponentDrill
T9C1.250
%
G90
G05
T1
X70.695Y-81.28
X70.695Y-88.9
X70.739Y-66.294
X71.882Y-44.196
X73.66Y-124.46
X75.104Y-108.674
X75.438Y-52.832
X76.454Y-105.41
X78.994Y-107.95
X85.09Y-93.98
X88.138Y-103.378
X89.408Y-98.298
X89.408Y-109.22
X91.694Y-72.644
X91.948Y-91.186
X91.948Y-114.046
X94.234Y-79.248
X94.914Y-90.551
X94.996Y-80.518
X94.996Y-99.06
X95.758Y-81.534
X95.758Y-124.714
X95.885Y-99.06
X96.774Y-82.296
X97.028Y-109.22
X97.282Y-83.312
X98.493Y-103.378
X98.679Y-97.282
X99.187Y-87.122
X99.568Y-83.312
X99.568Y-91.948
X99.568Y-114.046
X99.822Y-49.784
X100.33Y-77.724
X100.584Y-82.55
X101.092Y-78.74
X101.092Y-88.392
X101.346Y-89.916
X101.6Y-80.01
X101.934Y-98.485
X102.024Y-75.851
X102.719Y-77.582
X104.394Y-69.596
X104.394Y-71.12
X104.394Y-90.932
X106.172Y-74.676
X106.172Y-94.488
X106.822Y-78.637
X106.854Y-84.036
X106.934Y-89.154
X107.188Y-71.12
X107.305Y-95.784
X107.442Y-80.096
X107.442Y-96.774
X107.696Y-69.596
X107.696Y-98.843
X107.9Y-81.63
X108.509Y-98.262
X109.728Y-72.136
X109.728Y-77.47
X110.236Y-74.676
X110.602Y-83.415
X110.742Y-69.594
X110.998Y-73.406
X110.998Y-84.836
X111.252Y-78.994
X111.506Y-74.676
X112.522Y-77.724
X113.03Y-96.52
X113.065Y-78.596
X113.792Y-112.522
X114.134Y-95.854
X114.808Y-74.676
X115.316Y-69.596
X115.316Y-70.866
X115.32Y-88.134
X115.443Y-107.95
X115.57Y-73.406
X116.078Y-79.502
X116.082Y-89.92
X116.586Y-88.392
X116.84Y-59.944
X116.84Y-62.484
X117.094Y-97.79
X117.352Y-96.77
X117.357Y-95.749
X117.358Y-90.145
X118.467Y-90.028
X119.126Y-79.502
X119.305Y-81.788
X119.38Y-83.312
X119.634Y-92.71
X121.158Y-92.964
X122.936Y-75.184
X124.206Y-76.2
X124.206Y-83.058
X124.93Y-86.186
X124.941Y-87.595
X125.476Y-114.808
X127.0Y-80.264
X127.762Y-94.996
X128.189Y-93.907
X129.286Y-80.264
X130.048Y-114.808
X130.302Y-69.596
X130.302Y-75.438
X131.064Y-43.18
X136.652Y-76.2
X138.64Y-64.06
X146.812Y-91.44
X148.844Y-81.28
X148.844Y-86.36
X149.606Y-79.502
X149.606Y-87.884
X151.892Y-90.17
X152.065Y-66.121
X152.4Y-43.18
X152.4Y-92.71
X154.94Y-92.71
X155.194Y-102.362
X155.702Y-124.714
X156.21Y-76.2
X156.248Y-77.47
X156.248Y-90.166
T5
X110.987Y-114.38
X110.987Y-116.38
X110.987Y-118.38
X110.987Y-122.38
X110.987Y-124.38
X114.287Y-114.38
X114.287Y-116.38
X114.287Y-118.38
X114.287Y-122.38
X114.287Y-124.38
T6
X71.12Y-46.99
X71.12Y-49.53
X71.12Y-52.07
X71.12Y-54.61
X71.12Y-57.15
X71.12Y-59.69
X71.12Y-62.23
X71.12Y-105.41
X71.12Y-107.95
X71.12Y-110.49
X71.12Y-113.03
X71.12Y-115.57
X71.12Y-118.11
X71.12Y-120.65
X76.195Y-42.475
X76.2Y-125.73
X78.735Y-42.475
X78.74Y-125.73
X81.275Y-42.475
X81.28Y-125.73
X83.815Y-42.475
X83.82Y-125.73
X86.355Y-42.475
X86.36Y-125.73
X88.895Y-42.475
X88.9Y-125.73
X91.435Y-42.475
X91.44Y-125.73
X112.776Y-100.843
X112.776Y-103.383
X134.615Y-42.475
X134.62Y-125.73
X137.155Y-42.475
X137.16Y-125.73
X139.695Y-42.475
X139.7Y-125.73
X142.235Y-42.475
X142.24Y-125.73
X144.775Y-42.475
X144.78Y-125.73
X147.315Y-42.475
X147.32Y-125.73
X149.855Y-42.475
X149.86Y-125.73
X154.94Y-46.99
X154.94Y-49.53
X154.94Y-52.07
X154.94Y-54.61
X154.94Y-57.15
X154.94Y-59.69
X154.94Y-62.23
X154.94Y-105.41
X154.94Y-107.95
X154.94Y-110.49
X154.94Y-113.03
X154.94Y-115.57
X154.94Y-118.11
X154.94Y-120.65
T7
X85.74Y-56.53
X85.74Y-111.11
X140.32Y-56.53
X140.32Y-111.11
T8
X151.86Y-80.93
X151.86Y-86.71
T9
X70.68Y-71.12
X70.68Y-96.52
X76.68Y-71.12
X76.68Y-96.52
X100.33Y-41.47
X100.33Y-47.47
X100.33Y-120.17
X100.33Y-126.17
X125.73Y-41.47
X125.73Y-47.47
X125.73Y-120.17
X125.73Y-126.17
X149.38Y-71.12
X149.38Y-96.52
X155.38Y-71.12
X155.38Y-96.52
T2
G00X150.76Y-79.5
M15
G01X151.96Y-79.5
M16
G05
G00X150.76Y-88.14
M15
G01X151.96Y-88.14
M16
G05
T3
G00X70.38Y-73.52
M15
G01X70.98Y-73.52
M16
G05
G00X70.38Y-98.92
M15
G01X70.98Y-98.92
M16
G05
G00X72.38Y-68.72
M15
G01X72.98Y-68.72
M16
G05
G00X72.38Y-94.12
M15
G01X72.98Y-94.12
M16
G05
G00X77.38Y-73.52
M15
G01X77.98Y-73.52
M16
G05
G00X77.38Y-98.92
M15
G01X77.98Y-98.92
M16
G05
G00X97.93Y-41.17
M15
G01X97.93Y-41.77
M16
G05
G00X97.93Y-48.17
M15
G01X97.93Y-48.77
M16
G05
G00X97.93Y-124.47
M15
G01X97.93Y-123.87
M16
G05
G00X102.73Y-43.17
M15
G01X102.73Y-43.77
M16
G05
G00X102.73Y-119.47
M15
G01X102.73Y-118.87
M16
G05
G00X102.73Y-126.47
M15
G01X102.73Y-125.87
M16
G05
G00X123.33Y-41.17
M15
G01X123.33Y-41.77
M16
G05
G00X123.33Y-48.17
M15
G01X123.33Y-48.77
M16
G05
G00X123.33Y-124.47
M15
G01X123.33Y-123.87
M16
G05
G00X128.13Y-43.17
M15
G01X128.13Y-43.77
M16
G05
G00X128.13Y-119.47
M15
G01X128.13Y-118.87
M16
G05
G00X128.13Y-126.47
M15
G01X128.13Y-125.87
M16
G05
G00X148.68Y-68.72
M15
G01X148.08Y-68.72
M16
G05
G00X148.68Y-94.12
M15
G01X148.08Y-94.12
M16
G05
G00X153.68Y-73.52
M15
G01X153.08Y-73.52
M16
G05
G00X153.68Y-98.92
M15
G01X153.08Y-98.92
M16
G05
G00X155.68Y-68.72
M15
G01X155.08Y-68.72
M16
G05
G00X155.68Y-94.12
M15
G01X155.08Y-94.12
M16
G05
T4
G00X154.99Y-79.5
M15
G01X156.09Y-79.5
M16
G05
G00X154.99Y-88.14
M15
G01X156.09Y-88.14
M16
G05
T0
M30
