G04 #@! TF.GenerationSoftware,KiCad,Pcbnew,6.0.9-8da3e8f707~117~ubuntu22.04.1*
G04 #@! TF.CreationDate,2022-12-03T17:44:34-08:00*
G04 #@! TF.ProjectId,ch348_octo_serial,63683334-385f-46f6-9374-6f5f73657269,rev?*
G04 #@! TF.SameCoordinates,Original*
G04 #@! TF.FileFunction,Copper,L4,Bot*
G04 #@! TF.FilePolarity,Positive*
%FSLAX46Y46*%
G04 Gerber Fmt 4.6, Leading zero omitted, Abs format (unit mm)*
G04 Created by KiCad (PCBNEW 6.0.9-8da3e8f707~117~ubuntu22.04.1) date 2022-12-03 17:44:34*
%MOMM*%
%LPD*%
G01*
G04 APERTURE LIST*
G04 Aperture macros list*
%AMRoundRect*
0 Rectangle with rounded corners*
0 $1 Rounding radius*
0 $2 $3 $4 $5 $6 $7 $8 $9 X,Y pos of 4 corners*
0 Add a 4 corners polygon primitive as box body*
4,1,4,$2,$3,$4,$5,$6,$7,$8,$9,$2,$3,0*
0 Add four circle primitives for the rounded corners*
1,1,$1+$1,$2,$3*
1,1,$1+$1,$4,$5*
1,1,$1+$1,$6,$7*
1,1,$1+$1,$8,$9*
0 Add four rect primitives between the rounded corners*
20,1,$1+$1,$2,$3,$4,$5,0*
20,1,$1+$1,$4,$5,$6,$7,0*
20,1,$1+$1,$6,$7,$8,$9,0*
20,1,$1+$1,$8,$9,$2,$3,0*%
G04 Aperture macros list end*
G04 #@! TA.AperFunction,ComponentPad*
%ADD10R,1.700000X3.400000*%
G04 #@! TD*
G04 #@! TA.AperFunction,ComponentPad*
%ADD11O,1.700000X3.400000*%
G04 #@! TD*
G04 #@! TA.AperFunction,ComponentPad*
%ADD12R,1.700000X1.700000*%
G04 #@! TD*
G04 #@! TA.AperFunction,ComponentPad*
%ADD13O,1.700000X1.700000*%
G04 #@! TD*
G04 #@! TA.AperFunction,ComponentPad*
%ADD14R,3.400000X1.700000*%
G04 #@! TD*
G04 #@! TA.AperFunction,ComponentPad*
%ADD15O,3.400000X1.700000*%
G04 #@! TD*
G04 #@! TA.AperFunction,ComponentPad*
%ADD16O,1.799996X1.199896*%
G04 #@! TD*
G04 #@! TA.AperFunction,ComponentPad*
%ADD17C,5.600000*%
G04 #@! TD*
G04 #@! TA.AperFunction,ComponentPad*
%ADD18O,1.199896X1.799996*%
G04 #@! TD*
G04 #@! TA.AperFunction,ComponentPad*
%ADD19RoundRect,0.350000X0.350000X-0.350000X0.350000X0.350000X-0.350000X0.350000X-0.350000X-0.350000X0*%
G04 #@! TD*
G04 #@! TA.AperFunction,ComponentPad*
%ADD20C,1.400000*%
G04 #@! TD*
G04 #@! TA.AperFunction,ComponentPad*
%ADD21O,2.100000X1.000000*%
G04 #@! TD*
G04 #@! TA.AperFunction,ComponentPad*
%ADD22O,2.100000X0.900000*%
G04 #@! TD*
G04 #@! TA.AperFunction,ViaPad*
%ADD23C,0.800000*%
G04 #@! TD*
G04 #@! TA.AperFunction,Conductor*
%ADD24C,1.000000*%
G04 #@! TD*
G04 #@! TA.AperFunction,Conductor*
%ADD25C,0.250000*%
G04 #@! TD*
G04 APERTURE END LIST*
D10*
G04 #@! TO.P,J12,1,Pin_1*
G04 #@! TO.N,GND*
X134615000Y-43325000D03*
D11*
G04 #@! TO.P,J12,2,Pin_2*
G04 #@! TO.N,Vdrive*
X137155000Y-43325000D03*
G04 #@! TO.P,J12,3,Pin_3*
G04 #@! TO.N,/Serial Connector 6/CTS*
X139695000Y-43325000D03*
G04 #@! TO.P,J12,4,Pin_4*
G04 #@! TO.N,/Serial Connector 6/TXD*
X142235000Y-43325000D03*
G04 #@! TO.P,J12,5,Pin_5*
G04 #@! TO.N,/Serial Connector 6/RXD*
X144775000Y-43325000D03*
G04 #@! TO.P,J12,6,Pin_6*
G04 #@! TO.N,/Serial Connector 6/DTR*
X147315000Y-43325000D03*
G04 #@! TO.P,J12,7,Pin_7*
G04 #@! TO.N,/Serial Connector 6/RTS*
X149855000Y-43325000D03*
G04 #@! TD*
D12*
G04 #@! TO.P,J6,1,Pin_1*
G04 #@! TO.N,Net-(C16-Pad1)*
X112776000Y-103383000D03*
D13*
G04 #@! TO.P,J6,2,Pin_2*
G04 #@! TO.N,GND*
X112776000Y-100843000D03*
G04 #@! TD*
D14*
G04 #@! TO.P,J16,1,Pin_1*
G04 #@! TO.N,GND*
X71970000Y-62230000D03*
D15*
G04 #@! TO.P,J16,2,Pin_2*
G04 #@! TO.N,Vdrive*
X71970000Y-59690000D03*
G04 #@! TO.P,J16,3,Pin_3*
G04 #@! TO.N,/Serial Connector 0/CTS*
X71970000Y-57150000D03*
G04 #@! TO.P,J16,4,Pin_4*
G04 #@! TO.N,/Serial Connector 0/TXD*
X71970000Y-54610000D03*
G04 #@! TO.P,J16,5,Pin_5*
G04 #@! TO.N,/Serial Connector 0/RXD*
X71970000Y-52070000D03*
G04 #@! TO.P,J16,6,Pin_6*
G04 #@! TO.N,/Serial Connector 0/DTR*
X71970000Y-49530000D03*
G04 #@! TO.P,J16,7,Pin_7*
G04 #@! TO.N,/Serial Connector 0/RTS*
X71970000Y-46990000D03*
G04 #@! TD*
D16*
G04 #@! TO.P,J15,2,RING*
G04 #@! TO.N,/Serial Connector 0/RXD*
X72680000Y-68720000D03*
G04 #@! TO.P,J15,3,SLEEVE*
G04 #@! TO.N,GND*
X70680000Y-73520000D03*
G04 #@! TO.P,J15,4,TIP*
G04 #@! TO.N,/Serial Connector 0/TXD*
X77680000Y-73520000D03*
G04 #@! TD*
D14*
G04 #@! TO.P,J8,1,Pin_1*
G04 #@! TO.N,GND*
X154090000Y-105410000D03*
D15*
G04 #@! TO.P,J8,2,Pin_2*
G04 #@! TO.N,Vdrive*
X154090000Y-107950000D03*
G04 #@! TO.P,J8,3,Pin_3*
G04 #@! TO.N,/Serial Connector 4/CTS*
X154090000Y-110490000D03*
G04 #@! TO.P,J8,4,Pin_4*
G04 #@! TO.N,/Serial Connector 4/TXD*
X154090000Y-113030000D03*
G04 #@! TO.P,J8,5,Pin_5*
G04 #@! TO.N,/Serial Connector 4/RXD*
X154090000Y-115570000D03*
G04 #@! TO.P,J8,6,Pin_6*
G04 #@! TO.N,/Serial Connector 4/DTR*
X154090000Y-118110000D03*
G04 #@! TO.P,J8,7,Pin_7*
G04 #@! TO.N,/Serial Connector 4/RTS*
X154090000Y-120650000D03*
G04 #@! TD*
D17*
G04 #@! TO.P,J2,1,Pin_1*
G04 #@! TO.N,unconnected-(J2-Pad1)*
X140320000Y-56530000D03*
G04 #@! TD*
D14*
G04 #@! TO.P,J10,1,Pin_1*
G04 #@! TO.N,GND*
X154090000Y-46990000D03*
D15*
G04 #@! TO.P,J10,2,Pin_2*
G04 #@! TO.N,Vdrive*
X154090000Y-49530000D03*
G04 #@! TO.P,J10,3,Pin_3*
G04 #@! TO.N,/Serial Connector 5/CTS*
X154090000Y-52070000D03*
G04 #@! TO.P,J10,4,Pin_4*
G04 #@! TO.N,/Serial Connector 5/TXD*
X154090000Y-54610000D03*
G04 #@! TO.P,J10,5,Pin_5*
G04 #@! TO.N,/Serial Connector 5/RXD*
X154090000Y-57150000D03*
G04 #@! TO.P,J10,6,Pin_6*
G04 #@! TO.N,/Serial Connector 5/DTR*
X154090000Y-59690000D03*
G04 #@! TO.P,J10,7,Pin_7*
G04 #@! TO.N,/Serial Connector 5/RTS*
X154090000Y-62230000D03*
G04 #@! TD*
D16*
G04 #@! TO.P,J9,2,RING*
G04 #@! TO.N,/Serial Connector 5/RXD*
X153380000Y-73520000D03*
G04 #@! TO.P,J9,3,SLEEVE*
G04 #@! TO.N,GND*
X155380000Y-68720000D03*
G04 #@! TO.P,J9,4,TIP*
G04 #@! TO.N,/Serial Connector 5/TXD*
X148380000Y-68720000D03*
G04 #@! TD*
D18*
G04 #@! TO.P,J21,2,RING*
G04 #@! TO.N,/Serial Connector 3/RXD*
X123330000Y-124170000D03*
G04 #@! TO.P,J21,3,SLEEVE*
G04 #@! TO.N,GND*
X128130000Y-126170000D03*
G04 #@! TO.P,J21,4,TIP*
G04 #@! TO.N,/Serial Connector 3/TXD*
X128130000Y-119170000D03*
G04 #@! TD*
D17*
G04 #@! TO.P,J3,1,Pin_1*
G04 #@! TO.N,unconnected-(J3-Pad1)*
X85740000Y-56530000D03*
G04 #@! TD*
D14*
G04 #@! TO.P,J18,1,Pin_1*
G04 #@! TO.N,GND*
X71970000Y-120650000D03*
D15*
G04 #@! TO.P,J18,2,Pin_2*
G04 #@! TO.N,Vdrive*
X71970000Y-118110000D03*
G04 #@! TO.P,J18,3,Pin_3*
G04 #@! TO.N,/Serial Connector 1/CTS*
X71970000Y-115570000D03*
G04 #@! TO.P,J18,4,Pin_4*
G04 #@! TO.N,/Serial Connector 1/TXD*
X71970000Y-113030000D03*
G04 #@! TO.P,J18,5,Pin_5*
G04 #@! TO.N,/Serial Connector 1/RXD*
X71970000Y-110490000D03*
G04 #@! TO.P,J18,6,Pin_6*
G04 #@! TO.N,/Serial Connector 1/DTR*
X71970000Y-107950000D03*
G04 #@! TO.P,J18,7,Pin_7*
G04 #@! TO.N,/Serial Connector 1/RTS*
X71970000Y-105410000D03*
G04 #@! TD*
D18*
G04 #@! TO.P,J11,2,RING*
G04 #@! TO.N,/Serial Connector 6/RXD*
X128130000Y-43470000D03*
G04 #@! TO.P,J11,3,SLEEVE*
G04 #@! TO.N,GND*
X123330000Y-41470000D03*
G04 #@! TO.P,J11,4,TIP*
G04 #@! TO.N,/Serial Connector 6/TXD*
X123330000Y-48470000D03*
G04 #@! TD*
D10*
G04 #@! TO.P,J14,1,Pin_1*
G04 #@! TO.N,GND*
X76195000Y-43325000D03*
D11*
G04 #@! TO.P,J14,2,Pin_2*
G04 #@! TO.N,Vdrive*
X78735000Y-43325000D03*
G04 #@! TO.P,J14,3,Pin_3*
G04 #@! TO.N,/Serial Connector 7/CTS*
X81275000Y-43325000D03*
G04 #@! TO.P,J14,4,Pin_4*
G04 #@! TO.N,/Serial Connector 7/TXD*
X83815000Y-43325000D03*
G04 #@! TO.P,J14,5,Pin_5*
G04 #@! TO.N,/Serial Connector 7/RXD*
X86355000Y-43325000D03*
G04 #@! TO.P,J14,6,Pin_6*
G04 #@! TO.N,/Serial Connector 7/DTR*
X88895000Y-43325000D03*
G04 #@! TO.P,J14,7,Pin_7*
G04 #@! TO.N,/Serial Connector 7/RTS*
X91435000Y-43325000D03*
G04 #@! TD*
D19*
G04 #@! TO.P,SW1,1,1*
G04 #@! TO.N,unconnected-(SW1-Pad1)*
X114287500Y-124380000D03*
D20*
G04 #@! TO.P,SW1,2,2*
G04 #@! TO.N,unconnected-(SW1-Pad2)*
X114287500Y-122380000D03*
G04 #@! TO.P,SW1,3,3*
G04 #@! TO.N,unconnected-(SW1-Pad3)*
X114287500Y-118380000D03*
G04 #@! TO.P,SW1,4,4*
G04 #@! TO.N,unconnected-(SW1-Pad4)*
X114287500Y-116380000D03*
G04 #@! TO.P,SW1,5,5*
G04 #@! TO.N,unconnected-(SW1-Pad5)*
X114287500Y-114380000D03*
G04 #@! TO.P,SW1,6,6*
G04 #@! TO.N,Net-(C16-Pad1)*
X110987500Y-124380000D03*
G04 #@! TO.P,SW1,7,7*
G04 #@! TO.N,+1V8*
X110987500Y-122380000D03*
G04 #@! TO.P,SW1,8,8*
G04 #@! TO.N,Vdrive*
X110987500Y-118380000D03*
G04 #@! TO.P,SW1,9,9*
G04 #@! TO.N,+2V5*
X110987500Y-116380000D03*
G04 #@! TO.P,SW1,10,10*
G04 #@! TO.N,+3.3V*
X110987500Y-114380000D03*
G04 #@! TD*
D18*
G04 #@! TO.P,J19,2,RING*
G04 #@! TO.N,/Serial Connector 2/RXD*
X97930000Y-124170000D03*
G04 #@! TO.P,J19,3,SLEEVE*
G04 #@! TO.N,GND*
X102730000Y-126170000D03*
G04 #@! TO.P,J19,4,TIP*
G04 #@! TO.N,/Serial Connector 2/TXD*
X102730000Y-119170000D03*
G04 #@! TD*
D10*
G04 #@! TO.P,J22,1,Pin_1*
G04 #@! TO.N,GND*
X149860000Y-124880000D03*
D11*
G04 #@! TO.P,J22,2,Pin_2*
G04 #@! TO.N,Vdrive*
X147320000Y-124880000D03*
G04 #@! TO.P,J22,3,Pin_3*
G04 #@! TO.N,/Serial Connector 3/CTS*
X144780000Y-124880000D03*
G04 #@! TO.P,J22,4,Pin_4*
G04 #@! TO.N,/Serial Connector 3/TXD*
X142240000Y-124880000D03*
G04 #@! TO.P,J22,5,Pin_5*
G04 #@! TO.N,/Serial Connector 3/RXD*
X139700000Y-124880000D03*
G04 #@! TO.P,J22,6,Pin_6*
G04 #@! TO.N,/Serial Connector 3/DTR*
X137160000Y-124880000D03*
G04 #@! TO.P,J22,7,Pin_7*
G04 #@! TO.N,/Serial Connector 3/RTS*
X134620000Y-124880000D03*
G04 #@! TD*
D21*
G04 #@! TO.P,J1,S1,SHIELD*
G04 #@! TO.N,GND*
X155540000Y-79500000D03*
X155540000Y-88140000D03*
D22*
X151360000Y-88140000D03*
X151360000Y-79500000D03*
G04 #@! TD*
D17*
G04 #@! TO.P,J4,1,Pin_1*
G04 #@! TO.N,unconnected-(J4-Pad1)*
X140320000Y-111110000D03*
G04 #@! TD*
G04 #@! TO.P,J5,1,Pin_1*
G04 #@! TO.N,unconnected-(J5-Pad1)*
X85740000Y-111110000D03*
G04 #@! TD*
D10*
G04 #@! TO.P,J20,1,Pin_1*
G04 #@! TO.N,GND*
X91440000Y-124880000D03*
D11*
G04 #@! TO.P,J20,2,Pin_2*
G04 #@! TO.N,Vdrive*
X88900000Y-124880000D03*
G04 #@! TO.P,J20,3,Pin_3*
G04 #@! TO.N,/Serial Connector 2/CTS*
X86360000Y-124880000D03*
G04 #@! TO.P,J20,4,Pin_4*
G04 #@! TO.N,/Serial Connector 2/TXD*
X83820000Y-124880000D03*
G04 #@! TO.P,J20,5,Pin_5*
G04 #@! TO.N,/Serial Connector 2/RXD*
X81280000Y-124880000D03*
G04 #@! TO.P,J20,6,Pin_6*
G04 #@! TO.N,/Serial Connector 2/DTR*
X78740000Y-124880000D03*
G04 #@! TO.P,J20,7,Pin_7*
G04 #@! TO.N,/Serial Connector 2/RTS*
X76200000Y-124880000D03*
G04 #@! TD*
D16*
G04 #@! TO.P,J17,2,RING*
G04 #@! TO.N,/Serial Connector 1/RXD*
X72680000Y-94120000D03*
G04 #@! TO.P,J17,3,SLEEVE*
G04 #@! TO.N,GND*
X70680000Y-98920000D03*
G04 #@! TO.P,J17,4,TIP*
G04 #@! TO.N,/Serial Connector 1/TXD*
X77680000Y-98920000D03*
G04 #@! TD*
D18*
G04 #@! TO.P,J13,2,RING*
G04 #@! TO.N,/Serial Connector 7/RXD*
X102730000Y-43470000D03*
G04 #@! TO.P,J13,3,SLEEVE*
G04 #@! TO.N,GND*
X97930000Y-41470000D03*
G04 #@! TO.P,J13,4,TIP*
G04 #@! TO.N,/Serial Connector 7/TXD*
X97930000Y-48470000D03*
G04 #@! TD*
D16*
G04 #@! TO.P,J7,2,RING*
G04 #@! TO.N,/Serial Connector 4/RXD*
X153380000Y-98920000D03*
G04 #@! TO.P,J7,3,SLEEVE*
G04 #@! TO.N,GND*
X155380000Y-94120000D03*
G04 #@! TO.P,J7,4,TIP*
G04 #@! TO.N,/Serial Connector 4/TXD*
X148380000Y-94120000D03*
G04 #@! TD*
D23*
G04 #@! TO.N,+5V*
X91948000Y-91186000D03*
X148844000Y-86360000D03*
X88138000Y-103378000D03*
X148844000Y-81280000D03*
X98493498Y-103378000D03*
G04 #@! TO.N,GND*
X91948000Y-114046000D03*
X115316000Y-70866000D03*
X99187000Y-87122000D03*
X124206000Y-76200000D03*
X156247500Y-90165701D03*
X73660000Y-124460000D03*
X155194000Y-102362000D03*
X104394000Y-90932000D03*
X94913502Y-90551000D03*
X116840000Y-59944000D03*
X106822380Y-78636979D03*
X70695500Y-81280000D03*
X95758000Y-124714000D03*
X101092000Y-78740000D03*
X89408000Y-98298000D03*
X121158000Y-92964000D03*
X156247500Y-77470000D03*
X110742093Y-69594093D03*
X99568000Y-114046000D03*
X131064000Y-43180000D03*
X116840000Y-62484000D03*
X71882000Y-44196000D03*
X149606000Y-79502000D03*
X107696000Y-69596000D03*
X152400000Y-43180000D03*
X127000000Y-80264000D03*
X119126000Y-79502000D03*
X114808000Y-74676000D03*
X115316000Y-69596000D03*
X155702000Y-124714000D03*
X106853667Y-84036500D03*
X95885000Y-99060000D03*
X118467047Y-90027646D03*
X101934000Y-98484933D03*
X70695500Y-88900000D03*
X115443000Y-107950000D03*
X109728000Y-77470000D03*
X151892000Y-90170000D03*
X106934000Y-89154000D03*
X70739000Y-66294000D03*
X94996000Y-99060000D03*
X149606000Y-87884000D03*
G04 #@! TO.N,+3.3V*
X154940000Y-92710000D03*
X98679000Y-97282000D03*
X146812000Y-91440000D03*
X156210000Y-76200000D03*
X152400000Y-92710000D03*
X110998000Y-73406000D03*
X113792000Y-112522000D03*
X102719021Y-77581620D03*
X115570000Y-73406000D03*
X119634000Y-92710000D03*
G04 #@! TO.N,+2V5*
X89408000Y-109220000D03*
G04 #@! TO.N,+1V8*
X97028000Y-109220000D03*
G04 #@! TO.N,Vdrive*
X122936000Y-75184000D03*
X106172000Y-94488000D03*
X107188000Y-71120000D03*
X109728000Y-72136000D03*
G04 #@! TO.N,/Serial Connector 4/RXD*
X124930500Y-86186333D03*
G04 #@! TO.N,/Serial Connector 4/TXD*
X124941139Y-87594541D03*
G04 #@! TO.N,/Serial Connector 4/CTS*
X124206000Y-83058000D03*
G04 #@! TO.N,/Serial Connector 4/DTR*
X130048000Y-114808000D03*
X113030000Y-96520000D03*
X125476000Y-114808000D03*
G04 #@! TO.N,/Serial Connector 4/RTS*
X119305500Y-81788000D03*
G04 #@! TO.N,/Serial Connector 5/RXD*
X152065000Y-66121000D03*
X113064915Y-78595500D03*
G04 #@! TO.N,/Serial Connector 5/TXD*
X112522000Y-77724000D03*
G04 #@! TO.N,/Serial Connector 5/DTR*
X115320299Y-88133701D03*
G04 #@! TO.N,/Serial Connector 5/RTS*
X138640196Y-64060403D03*
G04 #@! TO.N,/Serial Connector 6/RXD*
X110236000Y-74676000D03*
G04 #@! TO.N,/Serial Connector 6/TXD*
X111506000Y-74676000D03*
G04 #@! TO.N,/Serial Connector 6/CTS*
X107442000Y-80095500D03*
G04 #@! TO.N,/Serial Connector 6/DTR*
X130302000Y-69596000D03*
X116586000Y-88392000D03*
X129286000Y-80264000D03*
X130302000Y-75438000D03*
G04 #@! TO.N,/Serial Connector 7/RXD*
X107899957Y-81629999D03*
X102024500Y-75851306D03*
X99822000Y-49784000D03*
G04 #@! TO.N,/Serial Connector 7/DTR*
X111252000Y-78994000D03*
X116082299Y-89920299D03*
G04 #@! TO.N,/Serial Connector 7/RTS*
X91694000Y-72644000D03*
G04 #@! TO.N,/Serial Connector 0/RXD*
X117094000Y-97790000D03*
G04 #@! TO.N,/Serial Connector 0/TXD*
X99568000Y-91948000D03*
G04 #@! TO.N,/Serial Connector 0/CTS*
X117352299Y-96769701D03*
G04 #@! TO.N,/Serial Connector 0/DTR*
X117358196Y-90144825D03*
G04 #@! TO.N,/Serial Connector 0/RTS*
X75438000Y-52832000D03*
X117356598Y-95749402D03*
G04 #@! TO.N,/Serial Connector 1/RXD*
X100330000Y-77724000D03*
X96774000Y-82296000D03*
X85090000Y-93980000D03*
G04 #@! TO.N,/Serial Connector 1/TXD*
X95758000Y-81534000D03*
X106172000Y-74676000D03*
G04 #@! TO.N,/Serial Connector 1/CTS*
X104394000Y-69596000D03*
X75103667Y-108674500D03*
X94234000Y-79248000D03*
G04 #@! TO.N,/Serial Connector 1/DTR*
X78994000Y-107950000D03*
X101600000Y-80010000D03*
X97282000Y-83312000D03*
G04 #@! TO.N,/Serial Connector 1/RTS*
X94996000Y-80518000D03*
X76454000Y-105410000D03*
X104394000Y-71120000D03*
G04 #@! TO.N,/Serial Connector 2/RXD*
X101346000Y-89916000D03*
G04 #@! TO.N,/Serial Connector 2/TXD*
X101092000Y-88392000D03*
G04 #@! TO.N,/Serial Connector 2/CTS*
X107304722Y-95783970D03*
G04 #@! TO.N,/Serial Connector 2/DTR*
X114133698Y-95854296D03*
G04 #@! TO.N,/Serial Connector 2/RTS*
X107442000Y-96774000D03*
G04 #@! TO.N,/Serial Connector 3/RXD*
X128188823Y-93907421D03*
G04 #@! TO.N,/Serial Connector 3/TXD*
X127762000Y-94996000D03*
G04 #@! TO.N,/Serial Connector 3/CTS*
X107696000Y-98843500D03*
G04 #@! TO.N,/Serial Connector 3/DTR*
X119380000Y-83312000D03*
G04 #@! TO.N,/Serial Connector 3/RTS*
X108508716Y-98261694D03*
G04 #@! TO.N,/ACT*
X136652000Y-76200000D03*
X116078000Y-79502000D03*
G04 #@! TO.N,/RX_S*
X110601620Y-83415021D03*
X100584000Y-82550000D03*
G04 #@! TO.N,/TX_S*
X99568000Y-83312000D03*
X110998000Y-84836000D03*
G04 #@! TD*
D24*
G04 #@! TO.N,+3.3V*
X110987500Y-114380000D02*
X111934000Y-114380000D01*
X111934000Y-114380000D02*
X113792000Y-112522000D01*
D25*
X152400000Y-92710000D02*
X154940000Y-92710000D01*
G04 #@! TO.N,/Serial Connector 4/RXD*
X131939219Y-93195052D02*
X124930500Y-86186333D01*
X153380000Y-98920000D02*
X153380000Y-97511876D01*
X149063176Y-93195052D02*
X131939219Y-93195052D01*
X153380000Y-97511876D02*
X149063176Y-93195052D01*
G04 #@! TO.N,/Serial Connector 4/TXD*
X148380000Y-94120000D02*
X131466598Y-94120000D01*
X131466598Y-94120000D02*
X124941139Y-87594541D01*
G04 #@! TO.N,/Serial Connector 4/CTS*
X124206000Y-83058000D02*
X124206000Y-88138000D01*
X146558000Y-110490000D02*
X154940000Y-110490000D01*
X124206000Y-88138000D02*
X146558000Y-110490000D01*
G04 #@! TO.N,/Serial Connector 4/DTR*
X136398000Y-114808000D02*
X143764000Y-122174000D01*
X155702000Y-118110000D02*
X154940000Y-118110000D01*
X130048000Y-114808000D02*
X136398000Y-114808000D01*
X156718000Y-119126000D02*
X155702000Y-118110000D01*
X156718000Y-121666000D02*
X156718000Y-119126000D01*
X125476000Y-108966000D02*
X125476000Y-114808000D01*
X143764000Y-122174000D02*
X156210000Y-122174000D01*
X113030000Y-96520000D02*
X125476000Y-108966000D01*
X156210000Y-122174000D02*
X156718000Y-121666000D01*
G04 #@! TO.N,/Serial Connector 4/RTS*
X151130000Y-117661701D02*
X151130000Y-115824000D01*
X120396000Y-82878500D02*
X119305500Y-81788000D01*
X151130000Y-115824000D02*
X120396000Y-85090000D01*
X120396000Y-85090000D02*
X120396000Y-82878500D01*
X154118299Y-120650000D02*
X151130000Y-117661701D01*
G04 #@! TO.N,/Serial Connector 5/RXD*
X116907811Y-78036499D02*
X116348810Y-78595500D01*
X141673740Y-69644948D02*
X133282189Y-78036499D01*
X149063176Y-69644948D02*
X141673740Y-69644948D01*
X152065000Y-66121000D02*
X152065000Y-66643124D01*
X133282189Y-78036499D02*
X116907811Y-78036499D01*
X152065000Y-66643124D02*
X149063176Y-69644948D01*
X116348810Y-78595500D02*
X113064915Y-78595500D01*
G04 #@! TO.N,/Serial Connector 5/TXD*
X112522000Y-77724000D02*
X116584620Y-77724000D01*
X116584620Y-77724000D02*
X125588620Y-68720000D01*
X125588620Y-68720000D02*
X148380000Y-68720000D01*
G04 #@! TO.N,/Serial Connector 5/DTR*
X156210000Y-64262000D02*
X150352001Y-70119999D01*
X155194000Y-59690000D02*
X156210000Y-60706000D01*
X143756599Y-70119999D02*
X134882598Y-78994000D01*
X115320299Y-82545701D02*
X115320299Y-88133701D01*
X119634000Y-80264000D02*
X117602000Y-80264000D01*
X156210000Y-60706000D02*
X156210000Y-64262000D01*
X120904000Y-78994000D02*
X119634000Y-80264000D01*
X134882598Y-78994000D02*
X120904000Y-78994000D01*
X117602000Y-80264000D02*
X115320299Y-82545701D01*
X150352001Y-70119999D02*
X143756599Y-70119999D01*
G04 #@! TO.N,/Serial Connector 5/RTS*
X154940000Y-62230000D02*
X140470599Y-62230000D01*
X140470599Y-62230000D02*
X138640196Y-64060403D01*
G04 #@! TO.N,/Serial Connector 6/RXD*
X110236000Y-72898000D02*
X110236000Y-74676000D01*
X122405052Y-60728948D02*
X110236000Y-72898000D01*
X122405052Y-47221052D02*
X122405052Y-60728948D01*
X126156104Y-43470000D02*
X122405052Y-47221052D01*
X128130000Y-43470000D02*
X126156104Y-43470000D01*
G04 #@! TO.N,/Serial Connector 6/TXD*
X111506000Y-74676000D02*
X114554000Y-71628000D01*
X114554000Y-71628000D02*
X114554000Y-69215690D01*
X114554000Y-69215690D02*
X123330000Y-60439690D01*
X123330000Y-60439690D02*
X123330000Y-48470000D01*
G04 #@! TO.N,/Serial Connector 6/CTS*
X126746000Y-56245701D02*
X126746000Y-66294000D01*
X112014000Y-76708000D02*
X108626500Y-80095500D01*
X108626500Y-80095500D02*
X107442000Y-80095500D01*
X116332000Y-76708000D02*
X112014000Y-76708000D01*
X126746000Y-66294000D02*
X116332000Y-76708000D01*
X139695000Y-43296701D02*
X126746000Y-56245701D01*
G04 #@! TO.N,/Serial Connector 6/DTR*
X130302000Y-69596000D02*
X130302000Y-75438000D01*
X129286000Y-80264000D02*
X128524000Y-81026000D01*
X118110000Y-81026000D02*
X128524000Y-81026000D01*
X116586000Y-82550000D02*
X116586000Y-88392000D01*
X118110000Y-81026000D02*
X116586000Y-82550000D01*
G04 #@! TO.N,/Serial Connector 7/RXD*
X102024500Y-75862500D02*
X107791999Y-81629999D01*
X102024500Y-75851306D02*
X102024500Y-75862500D01*
X107791999Y-81629999D02*
X107899957Y-81629999D01*
X99822000Y-49784000D02*
X102730000Y-46876000D01*
X102730000Y-46876000D02*
X102730000Y-43470000D01*
G04 #@! TO.N,/Serial Connector 7/DTR*
X111722500Y-79464500D02*
X111722500Y-85560500D01*
X111252000Y-78994000D02*
X111722500Y-79464500D01*
X111722500Y-85560500D02*
X116082299Y-89920299D01*
G04 #@! TO.N,/Serial Connector 7/RTS*
X91694000Y-72644000D02*
X91694000Y-42734000D01*
G04 #@! TO.N,/Serial Connector 0/RXD*
X105410000Y-86106000D02*
X95250000Y-86106000D01*
X95250000Y-86106000D02*
X77864000Y-68720000D01*
X77864000Y-68720000D02*
X72680000Y-68720000D01*
X117094000Y-97790000D02*
X105410000Y-86106000D01*
G04 #@! TO.N,/Serial Connector 0/TXD*
X99568000Y-91948000D02*
X81140000Y-73520000D01*
X81140000Y-73520000D02*
X77680000Y-73520000D01*
G04 #@! TO.N,/Serial Connector 0/CTS*
X89662000Y-79756000D02*
X95250000Y-85344000D01*
X81763805Y-57150000D02*
X89662000Y-65048195D01*
X71120000Y-57150000D02*
X81763805Y-57150000D01*
X95250000Y-85344000D02*
X105865189Y-85344000D01*
X89662000Y-65048195D02*
X89662000Y-79756000D01*
X117290890Y-96769701D02*
X117352299Y-96769701D01*
X105865189Y-85344000D02*
X117290890Y-96769701D01*
G04 #@! TO.N,/Serial Connector 0/DTR*
X88138000Y-45974000D02*
X77876582Y-45974000D01*
X106120569Y-84074000D02*
X95504000Y-84074000D01*
X95504000Y-84074000D02*
X90678000Y-79248000D01*
X112724569Y-90678000D02*
X106807569Y-84761000D01*
X90678000Y-48514000D02*
X88138000Y-45974000D01*
X74422000Y-49428582D02*
X74422000Y-49530000D01*
X77876582Y-45974000D02*
X74422000Y-49428582D01*
X106553569Y-84761000D02*
X106129167Y-84336598D01*
X106807569Y-84761000D02*
X106553569Y-84761000D01*
X106129167Y-84336598D02*
X106129167Y-84082598D01*
X106129167Y-84082598D02*
X106120569Y-84074000D01*
X90678000Y-79248000D02*
X90678000Y-48514000D01*
X117358196Y-90144825D02*
X116825021Y-90678000D01*
X116825021Y-90678000D02*
X112724569Y-90678000D01*
X74422000Y-49530000D02*
X71120000Y-49530000D01*
G04 #@! TO.N,/Serial Connector 0/RTS*
X117356598Y-95749402D02*
X116906281Y-95749402D01*
X105738879Y-84582000D02*
X95250000Y-84582000D01*
X116906281Y-95749402D02*
X105738879Y-84582000D01*
X90170000Y-79502000D02*
X90170000Y-55118000D01*
X90170000Y-55118000D02*
X87884000Y-52832000D01*
X87884000Y-52832000D02*
X75438000Y-52832000D01*
X95250000Y-84582000D02*
X90170000Y-79502000D01*
G04 #@! TO.N,/Serial Connector 1/RXD*
X100330000Y-77724000D02*
X96774000Y-81280000D01*
X96774000Y-81280000D02*
X96774000Y-82296000D01*
X85090000Y-93980000D02*
X84950000Y-94120000D01*
X84950000Y-94120000D02*
X72680000Y-94120000D01*
G04 #@! TO.N,/Serial Connector 1/TXD*
X106172000Y-74676000D02*
X105410000Y-73914000D01*
X105410000Y-73914000D02*
X102616000Y-73914000D01*
X95758000Y-80772000D02*
X95758000Y-81534000D01*
X102616000Y-73914000D02*
X95758000Y-80772000D01*
G04 #@! TO.N,/Serial Connector 1/CTS*
X103886000Y-69596000D02*
X94234000Y-79248000D01*
X75103667Y-112408034D02*
X75103667Y-108674500D01*
X71941701Y-115570000D02*
X75103667Y-112408034D01*
X104394000Y-69596000D02*
X103886000Y-69596000D01*
G04 #@! TO.N,/Serial Connector 1/DTR*
X78994000Y-107950000D02*
X71120000Y-107950000D01*
X98298000Y-83312000D02*
X97282000Y-83312000D01*
X101600000Y-80010000D02*
X98298000Y-83312000D01*
G04 #@! TO.N,/Serial Connector 1/RTS*
X76454000Y-105410000D02*
X71120000Y-105410000D01*
X104394000Y-71120000D02*
X94996000Y-80518000D01*
G04 #@! TO.N,/Serial Connector 2/RXD*
X101346000Y-89916000D02*
X100330000Y-90932000D01*
X97930000Y-118732000D02*
X97930000Y-124170000D01*
X100330000Y-90932000D02*
X100330000Y-116332000D01*
X100330000Y-116332000D02*
X97930000Y-118732000D01*
G04 #@! TO.N,/Serial Connector 2/TXD*
X101092000Y-88392000D02*
X102730000Y-90030000D01*
X102730000Y-90030000D02*
X102730000Y-119170000D01*
G04 #@! TO.N,/Serial Connector 2/CTS*
X87535000Y-126905000D02*
X96869000Y-126905000D01*
X86360000Y-125730000D02*
X87535000Y-126905000D01*
X96869000Y-126905000D02*
X103886000Y-119888000D01*
X103886000Y-119888000D02*
X103886000Y-99202692D01*
X103886000Y-99202692D02*
X107304722Y-95783970D01*
G04 #@! TO.N,/Serial Connector 2/DTR*
X75438000Y-121920000D02*
X74676000Y-122682000D01*
X109756902Y-95758000D02*
X114037402Y-95758000D01*
X74676000Y-126492000D02*
X75988002Y-127804002D01*
X75988002Y-127804002D02*
X103589998Y-127804002D01*
X78740000Y-122428000D02*
X78232000Y-121920000D01*
X74676000Y-122682000D02*
X74676000Y-126492000D01*
X78740000Y-125730000D02*
X78740000Y-122428000D01*
X103589998Y-127804002D02*
X106971500Y-124422500D01*
X78232000Y-121920000D02*
X75438000Y-121920000D01*
X106971500Y-98543402D02*
X109756902Y-95758000D01*
X106971500Y-124422500D02*
X106971500Y-98543402D01*
X114037402Y-95758000D02*
X114133698Y-95854296D01*
G04 #@! TO.N,/Serial Connector 2/RTS*
X107442000Y-96774000D02*
X104452499Y-99763501D01*
X77824501Y-127354501D02*
X76200000Y-125730000D01*
X104452499Y-120083501D02*
X97181499Y-127354501D01*
X97181499Y-127354501D02*
X77824501Y-127354501D01*
X104452499Y-99763501D02*
X104452499Y-120083501D01*
G04 #@! TO.N,/Serial Connector 3/RXD*
X138938000Y-121920000D02*
X129794000Y-121920000D01*
X129054948Y-121180948D02*
X129054948Y-94773546D01*
X139700000Y-122682000D02*
X138938000Y-121920000D01*
X139700000Y-125730000D02*
X139700000Y-122682000D01*
X129794000Y-121920000D02*
X129054948Y-121180948D01*
X129054948Y-94773546D02*
X128188823Y-93907421D01*
G04 #@! TO.N,/Serial Connector 3/TXD*
X127762000Y-94996000D02*
X128130000Y-95364000D01*
X128130000Y-95364000D02*
X128130000Y-119170000D01*
G04 #@! TO.N,/Serial Connector 3/CTS*
X127000000Y-126648124D02*
X127000000Y-123698000D01*
X127000000Y-123698000D02*
X107696000Y-104394000D01*
X144780000Y-126746000D02*
X144018000Y-127508000D01*
X107696000Y-104394000D02*
X107696000Y-98843500D01*
X144018000Y-127508000D02*
X127859876Y-127508000D01*
X127859876Y-127508000D02*
X127000000Y-126648124D01*
X144780000Y-125730000D02*
X144780000Y-126746000D01*
G04 #@! TO.N,/Serial Connector 3/DTR*
X119380000Y-85598000D02*
X119380000Y-83312000D01*
X126746000Y-92964000D02*
X119380000Y-85598000D01*
X129540000Y-122682000D02*
X126746000Y-119888000D01*
X135382000Y-122682000D02*
X129540000Y-122682000D01*
X137160000Y-124460000D02*
X135382000Y-122682000D01*
X126746000Y-119888000D02*
X126746000Y-92964000D01*
G04 #@! TO.N,/Serial Connector 3/RTS*
X108458000Y-98312410D02*
X108508716Y-98261694D01*
X134620000Y-125730000D02*
X129875784Y-125730000D01*
X129875784Y-125730000D02*
X108458000Y-104312216D01*
X108458000Y-104312216D02*
X108458000Y-98312410D01*
G04 #@! TO.N,/ACT*
X134366000Y-78486000D02*
X136652000Y-76200000D01*
X116078000Y-79502000D02*
X117094000Y-78486000D01*
X117094000Y-78486000D02*
X134366000Y-78486000D01*
G04 #@! TO.N,/RX_S*
X100584000Y-82550000D02*
X100779501Y-82354499D01*
X100779501Y-82354499D02*
X109541098Y-82354499D01*
X109541098Y-82354499D02*
X110601620Y-83415021D01*
G04 #@! TO.N,/TX_S*
X109474000Y-83312000D02*
X99568000Y-83312000D01*
X110998000Y-84836000D02*
X109474000Y-83312000D01*
G04 #@! TD*
M02*
