G04 #@! TF.GenerationSoftware,KiCad,Pcbnew,6.0.9-8da3e8f707~117~ubuntu22.04.1*
G04 #@! TF.CreationDate,2022-12-03T17:44:34-08:00*
G04 #@! TF.ProjectId,ch348_octo_serial,63683334-385f-46f6-9374-6f5f73657269,rev?*
G04 #@! TF.SameCoordinates,Original*
G04 #@! TF.FileFunction,Copper,L1,Top*
G04 #@! TF.FilePolarity,Positive*
%FSLAX46Y46*%
G04 Gerber Fmt 4.6, Leading zero omitted, Abs format (unit mm)*
G04 Created by KiCad (PCBNEW 6.0.9-8da3e8f707~117~ubuntu22.04.1) date 2022-12-03 17:44:34*
%MOMM*%
%LPD*%
G01*
G04 APERTURE LIST*
G04 Aperture macros list*
%AMRoundRect*
0 Rectangle with rounded corners*
0 $1 Rounding radius*
0 $2 $3 $4 $5 $6 $7 $8 $9 X,Y pos of 4 corners*
0 Add a 4 corners polygon primitive as box body*
4,1,4,$2,$3,$4,$5,$6,$7,$8,$9,$2,$3,0*
0 Add four circle primitives for the rounded corners*
1,1,$1+$1,$2,$3*
1,1,$1+$1,$4,$5*
1,1,$1+$1,$6,$7*
1,1,$1+$1,$8,$9*
0 Add four rect primitives between the rounded corners*
20,1,$1+$1,$2,$3,$4,$5,0*
20,1,$1+$1,$4,$5,$6,$7,0*
20,1,$1+$1,$6,$7,$8,$9,0*
20,1,$1+$1,$8,$9,$2,$3,0*%
G04 Aperture macros list end*
G04 #@! TA.AperFunction,SMDPad,CuDef*
%ADD10RoundRect,0.218750X-0.218750X-0.256250X0.218750X-0.256250X0.218750X0.256250X-0.218750X0.256250X0*%
G04 #@! TD*
G04 #@! TA.AperFunction,SMDPad,CuDef*
%ADD11R,0.950000X2.150000*%
G04 #@! TD*
G04 #@! TA.AperFunction,SMDPad,CuDef*
%ADD12R,3.250000X2.150000*%
G04 #@! TD*
G04 #@! TA.AperFunction,ComponentPad*
%ADD13R,1.700000X3.400000*%
G04 #@! TD*
G04 #@! TA.AperFunction,ComponentPad*
%ADD14O,1.700000X3.400000*%
G04 #@! TD*
G04 #@! TA.AperFunction,SMDPad,CuDef*
%ADD15RoundRect,0.147500X-0.172500X0.147500X-0.172500X-0.147500X0.172500X-0.147500X0.172500X0.147500X0*%
G04 #@! TD*
G04 #@! TA.AperFunction,ComponentPad*
%ADD16R,1.700000X1.700000*%
G04 #@! TD*
G04 #@! TA.AperFunction,ComponentPad*
%ADD17O,1.700000X1.700000*%
G04 #@! TD*
G04 #@! TA.AperFunction,ComponentPad*
%ADD18R,3.400000X1.700000*%
G04 #@! TD*
G04 #@! TA.AperFunction,ComponentPad*
%ADD19O,3.400000X1.700000*%
G04 #@! TD*
G04 #@! TA.AperFunction,ComponentPad*
%ADD20O,1.799996X1.199896*%
G04 #@! TD*
G04 #@! TA.AperFunction,SMDPad,CuDef*
%ADD21RoundRect,0.218750X0.256250X-0.218750X0.256250X0.218750X-0.256250X0.218750X-0.256250X-0.218750X0*%
G04 #@! TD*
G04 #@! TA.AperFunction,SMDPad,CuDef*
%ADD22RoundRect,0.147500X0.172500X-0.147500X0.172500X0.147500X-0.172500X0.147500X-0.172500X-0.147500X0*%
G04 #@! TD*
G04 #@! TA.AperFunction,SMDPad,CuDef*
%ADD23RoundRect,0.147500X0.147500X0.172500X-0.147500X0.172500X-0.147500X-0.172500X0.147500X-0.172500X0*%
G04 #@! TD*
G04 #@! TA.AperFunction,ComponentPad*
%ADD24C,5.600000*%
G04 #@! TD*
G04 #@! TA.AperFunction,SMDPad,CuDef*
%ADD25RoundRect,0.218750X-0.256250X0.218750X-0.256250X-0.218750X0.256250X-0.218750X0.256250X0.218750X0*%
G04 #@! TD*
G04 #@! TA.AperFunction,SMDPad,CuDef*
%ADD26RoundRect,0.147500X-0.147500X-0.172500X0.147500X-0.172500X0.147500X0.172500X-0.147500X0.172500X0*%
G04 #@! TD*
G04 #@! TA.AperFunction,ComponentPad*
%ADD27O,1.199896X1.799996*%
G04 #@! TD*
G04 #@! TA.AperFunction,SMDPad,CuDef*
%ADD28RoundRect,0.243750X-0.456250X0.243750X-0.456250X-0.243750X0.456250X-0.243750X0.456250X0.243750X0*%
G04 #@! TD*
G04 #@! TA.AperFunction,SMDPad,CuDef*
%ADD29RoundRect,0.218750X0.218750X0.256250X-0.218750X0.256250X-0.218750X-0.256250X0.218750X-0.256250X0*%
G04 #@! TD*
G04 #@! TA.AperFunction,SMDPad,CuDef*
%ADD30R,2.000000X4.500000*%
G04 #@! TD*
G04 #@! TA.AperFunction,SMDPad,CuDef*
%ADD31RoundRect,0.243750X0.243750X0.456250X-0.243750X0.456250X-0.243750X-0.456250X0.243750X-0.456250X0*%
G04 #@! TD*
G04 #@! TA.AperFunction,ComponentPad*
%ADD32RoundRect,0.350000X0.350000X-0.350000X0.350000X0.350000X-0.350000X0.350000X-0.350000X-0.350000X0*%
G04 #@! TD*
G04 #@! TA.AperFunction,ComponentPad*
%ADD33C,1.400000*%
G04 #@! TD*
G04 #@! TA.AperFunction,SMDPad,CuDef*
%ADD34R,1.750000X0.300000*%
G04 #@! TD*
G04 #@! TA.AperFunction,ComponentPad*
%ADD35O,2.100000X1.000000*%
G04 #@! TD*
G04 #@! TA.AperFunction,ComponentPad*
%ADD36O,2.100000X0.900000*%
G04 #@! TD*
G04 #@! TA.AperFunction,SMDPad,CuDef*
%ADD37RoundRect,0.075000X-0.075000X0.725000X-0.075000X-0.725000X0.075000X-0.725000X0.075000X0.725000X0*%
G04 #@! TD*
G04 #@! TA.AperFunction,SMDPad,CuDef*
%ADD38RoundRect,0.075000X-0.725000X0.075000X-0.725000X-0.075000X0.725000X-0.075000X0.725000X0.075000X0*%
G04 #@! TD*
G04 #@! TA.AperFunction,ViaPad*
%ADD39C,0.800000*%
G04 #@! TD*
G04 #@! TA.AperFunction,Conductor*
%ADD40C,0.500000*%
G04 #@! TD*
G04 #@! TA.AperFunction,Conductor*
%ADD41C,0.250000*%
G04 #@! TD*
G04 #@! TA.AperFunction,Conductor*
%ADD42C,1.000000*%
G04 #@! TD*
G04 APERTURE END LIST*
D10*
G04 #@! TO.P,C18,1*
G04 #@! TO.N,Vdrive*
X152374500Y-102362000D03*
G04 #@! TO.P,C18,2*
G04 #@! TO.N,GND*
X153949500Y-102362000D03*
G04 #@! TD*
D11*
G04 #@! TO.P,VR1,1,GND*
G04 #@! TO.N,Net-(R2-Pad2)*
X98439000Y-91334000D03*
G04 #@! TO.P,VR1,2,VOUT_2*
G04 #@! TO.N,+3.3V*
X96139000Y-91334000D03*
G04 #@! TO.P,VR1,3,VIN*
G04 #@! TO.N,+5V*
X93839000Y-91334000D03*
D12*
G04 #@! TO.P,VR1,4,VOUT_4*
G04 #@! TO.N,+3.3V*
X96139000Y-97134000D03*
G04 #@! TD*
D13*
G04 #@! TO.P,J12,1,Pin_1*
G04 #@! TO.N,GND*
X134615000Y-43325000D03*
D14*
G04 #@! TO.P,J12,2,Pin_2*
G04 #@! TO.N,Vdrive*
X137155000Y-43325000D03*
G04 #@! TO.P,J12,3,Pin_3*
G04 #@! TO.N,/Serial Connector 6/CTS*
X139695000Y-43325000D03*
G04 #@! TO.P,J12,4,Pin_4*
G04 #@! TO.N,/Serial Connector 6/TXD*
X142235000Y-43325000D03*
G04 #@! TO.P,J12,5,Pin_5*
G04 #@! TO.N,/Serial Connector 6/RXD*
X144775000Y-43325000D03*
G04 #@! TO.P,J12,6,Pin_6*
G04 #@! TO.N,/Serial Connector 6/DTR*
X147315000Y-43325000D03*
G04 #@! TO.P,J12,7,Pin_7*
G04 #@! TO.N,/Serial Connector 6/RTS*
X149855000Y-43325000D03*
G04 #@! TD*
D15*
G04 #@! TO.P,C9,1*
G04 #@! TO.N,/XO*
X116840000Y-57935000D03*
G04 #@! TO.P,C9,2*
G04 #@! TO.N,GND*
X116840000Y-58905000D03*
G04 #@! TD*
D16*
G04 #@! TO.P,J6,1,Pin_1*
G04 #@! TO.N,Net-(C16-Pad1)*
X112776000Y-103383000D03*
D17*
G04 #@! TO.P,J6,2,Pin_2*
G04 #@! TO.N,GND*
X112776000Y-100843000D03*
G04 #@! TD*
D18*
G04 #@! TO.P,J16,1,Pin_1*
G04 #@! TO.N,GND*
X71970000Y-62230000D03*
D19*
G04 #@! TO.P,J16,2,Pin_2*
G04 #@! TO.N,Vdrive*
X71970000Y-59690000D03*
G04 #@! TO.P,J16,3,Pin_3*
G04 #@! TO.N,/Serial Connector 0/CTS*
X71970000Y-57150000D03*
G04 #@! TO.P,J16,4,Pin_4*
G04 #@! TO.N,/Serial Connector 0/TXD*
X71970000Y-54610000D03*
G04 #@! TO.P,J16,5,Pin_5*
G04 #@! TO.N,/Serial Connector 0/RXD*
X71970000Y-52070000D03*
G04 #@! TO.P,J16,6,Pin_6*
G04 #@! TO.N,/Serial Connector 0/DTR*
X71970000Y-49530000D03*
G04 #@! TO.P,J16,7,Pin_7*
G04 #@! TO.N,/Serial Connector 0/RTS*
X71970000Y-46990000D03*
G04 #@! TD*
D10*
G04 #@! TO.P,D4,1,K*
G04 #@! TO.N,GND*
X69570500Y-87630000D03*
G04 #@! TO.P,D4,2,A*
G04 #@! TO.N,Net-(D4-Pad2)*
X71145500Y-87630000D03*
G04 #@! TD*
D20*
G04 #@! TO.P,J15,2,RING*
G04 #@! TO.N,/Serial Connector 0/RXD*
X72680000Y-68720000D03*
G04 #@! TO.P,J15,3,SLEEVE*
G04 #@! TO.N,GND*
X70680000Y-73520000D03*
G04 #@! TO.P,J15,4,TIP*
G04 #@! TO.N,/Serial Connector 0/TXD*
X77680000Y-73520000D03*
G04 #@! TD*
D21*
G04 #@! TO.P,C25,1*
G04 #@! TO.N,Vdrive*
X153924000Y-125755500D03*
G04 #@! TO.P,C25,2*
G04 #@! TO.N,GND*
X153924000Y-124180500D03*
G04 #@! TD*
D22*
G04 #@! TO.P,C7,1*
G04 #@! TO.N,/RESET*
X112776000Y-70589000D03*
G04 #@! TO.P,C7,2*
G04 #@! TO.N,GND*
X112776000Y-69619000D03*
G04 #@! TD*
D23*
G04 #@! TO.P,R12,1*
G04 #@! TO.N,GND*
X125961000Y-80264000D03*
G04 #@! TO.P,R12,2*
G04 #@! TO.N,/TEST*
X124991000Y-80264000D03*
G04 #@! TD*
D10*
G04 #@! TO.P,C1,1*
G04 #@! TO.N,+5V*
X93700500Y-89027000D03*
G04 #@! TO.P,C1,2*
G04 #@! TO.N,GND*
X95275500Y-89027000D03*
G04 #@! TD*
D18*
G04 #@! TO.P,J8,1,Pin_1*
G04 #@! TO.N,GND*
X154090000Y-105410000D03*
D19*
G04 #@! TO.P,J8,2,Pin_2*
G04 #@! TO.N,Vdrive*
X154090000Y-107950000D03*
G04 #@! TO.P,J8,3,Pin_3*
G04 #@! TO.N,/Serial Connector 4/CTS*
X154090000Y-110490000D03*
G04 #@! TO.P,J8,4,Pin_4*
G04 #@! TO.N,/Serial Connector 4/TXD*
X154090000Y-113030000D03*
G04 #@! TO.P,J8,5,Pin_5*
G04 #@! TO.N,/Serial Connector 4/RXD*
X154090000Y-115570000D03*
G04 #@! TO.P,J8,6,Pin_6*
G04 #@! TO.N,/Serial Connector 4/DTR*
X154090000Y-118110000D03*
G04 #@! TO.P,J8,7,Pin_7*
G04 #@! TO.N,/Serial Connector 4/RTS*
X154090000Y-120650000D03*
G04 #@! TD*
D22*
G04 #@! TO.P,R3,1*
G04 #@! TO.N,Net-(R2-Pad2)*
X99187000Y-89131000D03*
G04 #@! TO.P,R3,2*
G04 #@! TO.N,GND*
X99187000Y-88161000D03*
G04 #@! TD*
G04 #@! TO.P,R5,1*
G04 #@! TO.N,Net-(R4-Pad2)*
X94996000Y-101069000D03*
G04 #@! TO.P,R5,2*
G04 #@! TO.N,GND*
X94996000Y-100099000D03*
G04 #@! TD*
G04 #@! TO.P,R7,1*
G04 #@! TO.N,Net-(R6-Pad2)*
X102616000Y-101069000D03*
G04 #@! TO.P,R7,2*
G04 #@! TO.N,GND*
X102616000Y-100099000D03*
G04 #@! TD*
D15*
G04 #@! TO.P,R13,1*
G04 #@! TO.N,GND*
X116332000Y-69619000D03*
G04 #@! TO.P,R13,2*
G04 #@! TO.N,/CFG*
X116332000Y-70589000D03*
G04 #@! TD*
D23*
G04 #@! TO.P,C13,1*
G04 #@! TO.N,+3.3V*
X103101000Y-78740000D03*
G04 #@! TO.P,C13,2*
G04 #@! TO.N,GND*
X102131000Y-78740000D03*
G04 #@! TD*
D24*
G04 #@! TO.P,J2,1,Pin_1*
G04 #@! TO.N,unconnected-(J2-Pad1)*
X140320000Y-56530000D03*
G04 #@! TD*
D25*
G04 #@! TO.P,C21,1*
G04 #@! TO.N,Vdrive*
X73152000Y-42392500D03*
G04 #@! TO.P,C21,2*
G04 #@! TO.N,GND*
X73152000Y-43967500D03*
G04 #@! TD*
D15*
G04 #@! TO.P,R10,1*
G04 #@! TO.N,+3.3V*
X111760000Y-69619000D03*
G04 #@! TO.P,R10,2*
G04 #@! TO.N,/RESET*
X111760000Y-70589000D03*
G04 #@! TD*
D23*
G04 #@! TO.P,C17,1*
G04 #@! TO.N,Vdrive*
X105133000Y-91948000D03*
G04 #@! TO.P,C17,2*
G04 #@! TO.N,GND*
X104163000Y-91948000D03*
G04 #@! TD*
D18*
G04 #@! TO.P,J10,1,Pin_1*
G04 #@! TO.N,GND*
X154090000Y-46990000D03*
D19*
G04 #@! TO.P,J10,2,Pin_2*
G04 #@! TO.N,Vdrive*
X154090000Y-49530000D03*
G04 #@! TO.P,J10,3,Pin_3*
G04 #@! TO.N,/Serial Connector 5/CTS*
X154090000Y-52070000D03*
G04 #@! TO.P,J10,4,Pin_4*
G04 #@! TO.N,/Serial Connector 5/TXD*
X154090000Y-54610000D03*
G04 #@! TO.P,J10,5,Pin_5*
G04 #@! TO.N,/Serial Connector 5/RXD*
X154090000Y-57150000D03*
G04 #@! TO.P,J10,6,Pin_6*
G04 #@! TO.N,/Serial Connector 5/DTR*
X154090000Y-59690000D03*
G04 #@! TO.P,J10,7,Pin_7*
G04 #@! TO.N,/Serial Connector 5/RTS*
X154090000Y-62230000D03*
G04 #@! TD*
D26*
G04 #@! TO.P,C10,1*
G04 #@! TO.N,Vdrive*
X121435000Y-76200000D03*
G04 #@! TO.P,C10,2*
G04 #@! TO.N,GND*
X122405000Y-76200000D03*
G04 #@! TD*
D20*
G04 #@! TO.P,J9,2,RING*
G04 #@! TO.N,/Serial Connector 5/RXD*
X153380000Y-73520000D03*
G04 #@! TO.P,J9,3,SLEEVE*
G04 #@! TO.N,GND*
X155380000Y-68720000D03*
G04 #@! TO.P,J9,4,TIP*
G04 #@! TO.N,/Serial Connector 5/TXD*
X148380000Y-68720000D03*
G04 #@! TD*
D27*
G04 #@! TO.P,J21,2,RING*
G04 #@! TO.N,/Serial Connector 3/RXD*
X123330000Y-124170000D03*
G04 #@! TO.P,J21,3,SLEEVE*
G04 #@! TO.N,GND*
X128130000Y-126170000D03*
G04 #@! TO.P,J21,4,TIP*
G04 #@! TO.N,/Serial Connector 3/TXD*
X128130000Y-119170000D03*
G04 #@! TD*
D15*
G04 #@! TO.P,R4,1*
G04 #@! TO.N,+2V5*
X93726000Y-100099000D03*
G04 #@! TO.P,R4,2*
G04 #@! TO.N,Net-(R4-Pad2)*
X93726000Y-101069000D03*
G04 #@! TD*
D23*
G04 #@! TO.P,R11,1*
G04 #@! TO.N,+3.3V*
X155425000Y-76200000D03*
G04 #@! TO.P,R11,2*
G04 #@! TO.N,Net-(D2-Pad2)*
X154455000Y-76200000D03*
G04 #@! TD*
D24*
G04 #@! TO.P,J3,1,Pin_1*
G04 #@! TO.N,unconnected-(J3-Pad1)*
X85740000Y-56530000D03*
G04 #@! TD*
D25*
G04 #@! TO.P,C24,1*
G04 #@! TO.N,Vdrive*
X94234000Y-123418500D03*
G04 #@! TO.P,C24,2*
G04 #@! TO.N,GND*
X94234000Y-124993500D03*
G04 #@! TD*
D18*
G04 #@! TO.P,J18,1,Pin_1*
G04 #@! TO.N,GND*
X71970000Y-120650000D03*
D19*
G04 #@! TO.P,J18,2,Pin_2*
G04 #@! TO.N,Vdrive*
X71970000Y-118110000D03*
G04 #@! TO.P,J18,3,Pin_3*
G04 #@! TO.N,/Serial Connector 1/CTS*
X71970000Y-115570000D03*
G04 #@! TO.P,J18,4,Pin_4*
G04 #@! TO.N,/Serial Connector 1/TXD*
X71970000Y-113030000D03*
G04 #@! TO.P,J18,5,Pin_5*
G04 #@! TO.N,/Serial Connector 1/RXD*
X71970000Y-110490000D03*
G04 #@! TO.P,J18,6,Pin_6*
G04 #@! TO.N,/Serial Connector 1/DTR*
X71970000Y-107950000D03*
G04 #@! TO.P,J18,7,Pin_7*
G04 #@! TO.N,/Serial Connector 1/RTS*
X71970000Y-105410000D03*
G04 #@! TD*
D22*
G04 #@! TO.P,C8,1*
G04 #@! TO.N,/XI*
X116840000Y-64470000D03*
G04 #@! TO.P,C8,2*
G04 #@! TO.N,GND*
X116840000Y-63500000D03*
G04 #@! TD*
D28*
G04 #@! TO.P,C5,1*
G04 #@! TO.N,+2V5*
X91948000Y-111330500D03*
G04 #@! TO.P,C5,2*
G04 #@! TO.N,GND*
X91948000Y-113205500D03*
G04 #@! TD*
D10*
G04 #@! TO.P,D3,1,K*
G04 #@! TO.N,GND*
X69570500Y-80010000D03*
G04 #@! TO.P,D3,2,A*
G04 #@! TO.N,Net-(D3-Pad2)*
X71145500Y-80010000D03*
G04 #@! TD*
D28*
G04 #@! TO.P,C6,1*
G04 #@! TO.N,+1V8*
X99568000Y-111330500D03*
G04 #@! TO.P,C6,2*
G04 #@! TO.N,GND*
X99568000Y-113205500D03*
G04 #@! TD*
D29*
G04 #@! TO.P,D1,1,K*
G04 #@! TO.N,GND*
X151917500Y-91440000D03*
G04 #@! TO.P,D1,2,A*
G04 #@! TO.N,Net-(D1-Pad2)*
X150342500Y-91440000D03*
G04 #@! TD*
D22*
G04 #@! TO.P,C11,1*
G04 #@! TO.N,+3.3V*
X114808000Y-73637000D03*
G04 #@! TO.P,C11,2*
G04 #@! TO.N,GND*
X114808000Y-72667000D03*
G04 #@! TD*
D26*
G04 #@! TO.P,R8,1*
G04 #@! TO.N,Net-(J1-PadA5)*
X154455000Y-90170000D03*
G04 #@! TO.P,R8,2*
G04 #@! TO.N,GND*
X155425000Y-90170000D03*
G04 #@! TD*
D21*
G04 #@! TO.P,C2,1*
G04 #@! TO.N,+5V*
X89408000Y-100863500D03*
G04 #@! TO.P,C2,2*
G04 #@! TO.N,GND*
X89408000Y-99288500D03*
G04 #@! TD*
D10*
G04 #@! TO.P,D2,1,K*
G04 #@! TO.N,/ACT*
X150342500Y-76200000D03*
G04 #@! TO.P,D2,2,A*
G04 #@! TO.N,Net-(D2-Pad2)*
X151917500Y-76200000D03*
G04 #@! TD*
D23*
G04 #@! TO.P,R14,1*
G04 #@! TO.N,/RX_S*
X73383000Y-80010000D03*
G04 #@! TO.P,R14,2*
G04 #@! TO.N,Net-(D3-Pad2)*
X72413000Y-80010000D03*
G04 #@! TD*
G04 #@! TO.P,R15,1*
G04 #@! TO.N,/TX_S*
X73383000Y-87630000D03*
G04 #@! TO.P,R15,2*
G04 #@! TO.N,Net-(D4-Pad2)*
X72413000Y-87630000D03*
G04 #@! TD*
D27*
G04 #@! TO.P,J11,2,RING*
G04 #@! TO.N,/Serial Connector 6/RXD*
X128130000Y-43470000D03*
G04 #@! TO.P,J11,3,SLEEVE*
G04 #@! TO.N,GND*
X123330000Y-41470000D03*
G04 #@! TO.P,J11,4,TIP*
G04 #@! TO.N,/Serial Connector 6/TXD*
X123330000Y-48470000D03*
G04 #@! TD*
D28*
G04 #@! TO.P,C16,1*
G04 #@! TO.N,Net-(C16-Pad1)*
X114046000Y-106123500D03*
G04 #@! TO.P,C16,2*
G04 #@! TO.N,GND*
X114046000Y-107998500D03*
G04 #@! TD*
D30*
G04 #@! TO.P,X1,1,1*
G04 #@! TO.N,/XI*
X113030000Y-65210000D03*
G04 #@! TO.P,X1,2,2*
G04 #@! TO.N,/XO*
X113030000Y-56710000D03*
G04 #@! TD*
D23*
G04 #@! TO.P,R9,1*
G04 #@! TO.N,GND*
X155425000Y-77470000D03*
G04 #@! TO.P,R9,2*
G04 #@! TO.N,Net-(J1-PadB5)*
X154455000Y-77470000D03*
G04 #@! TD*
D29*
G04 #@! TO.P,C22,1*
G04 #@! TO.N,Vdrive*
X72288500Y-65024000D03*
G04 #@! TO.P,C22,2*
G04 #@! TO.N,GND*
X70713500Y-65024000D03*
G04 #@! TD*
D13*
G04 #@! TO.P,J14,1,Pin_1*
G04 #@! TO.N,GND*
X76195000Y-43325000D03*
D14*
G04 #@! TO.P,J14,2,Pin_2*
G04 #@! TO.N,Vdrive*
X78735000Y-43325000D03*
G04 #@! TO.P,J14,3,Pin_3*
G04 #@! TO.N,/Serial Connector 7/CTS*
X81275000Y-43325000D03*
G04 #@! TO.P,J14,4,Pin_4*
G04 #@! TO.N,/Serial Connector 7/TXD*
X83815000Y-43325000D03*
G04 #@! TO.P,J14,5,Pin_5*
G04 #@! TO.N,/Serial Connector 7/RXD*
X86355000Y-43325000D03*
G04 #@! TO.P,J14,6,Pin_6*
G04 #@! TO.N,/Serial Connector 7/DTR*
X88895000Y-43325000D03*
G04 #@! TO.P,J14,7,Pin_7*
G04 #@! TO.N,/Serial Connector 7/RTS*
X91435000Y-43325000D03*
G04 #@! TD*
D31*
G04 #@! TO.P,C4,1*
G04 #@! TO.N,+3.3V*
X93139500Y-97536000D03*
G04 #@! TO.P,C4,2*
G04 #@! TO.N,GND*
X91264500Y-97536000D03*
G04 #@! TD*
D29*
G04 #@! TO.P,C19,1*
G04 #@! TO.N,Vdrive*
X155219500Y-43180000D03*
G04 #@! TO.P,C19,2*
G04 #@! TO.N,GND*
X153644500Y-43180000D03*
G04 #@! TD*
D32*
G04 #@! TO.P,SW1,1,1*
G04 #@! TO.N,unconnected-(SW1-Pad1)*
X114287500Y-124380000D03*
D33*
G04 #@! TO.P,SW1,2,2*
G04 #@! TO.N,unconnected-(SW1-Pad2)*
X114287500Y-122380000D03*
G04 #@! TO.P,SW1,3,3*
G04 #@! TO.N,unconnected-(SW1-Pad3)*
X114287500Y-118380000D03*
G04 #@! TO.P,SW1,4,4*
G04 #@! TO.N,unconnected-(SW1-Pad4)*
X114287500Y-116380000D03*
G04 #@! TO.P,SW1,5,5*
G04 #@! TO.N,unconnected-(SW1-Pad5)*
X114287500Y-114380000D03*
G04 #@! TO.P,SW1,6,6*
G04 #@! TO.N,Net-(C16-Pad1)*
X110987500Y-124380000D03*
G04 #@! TO.P,SW1,7,7*
G04 #@! TO.N,+1V8*
X110987500Y-122380000D03*
G04 #@! TO.P,SW1,8,8*
G04 #@! TO.N,Vdrive*
X110987500Y-118380000D03*
G04 #@! TO.P,SW1,9,9*
G04 #@! TO.N,+2V5*
X110987500Y-116380000D03*
G04 #@! TO.P,SW1,10,10*
G04 #@! TO.N,+3.3V*
X110987500Y-114380000D03*
G04 #@! TD*
D27*
G04 #@! TO.P,J19,2,RING*
G04 #@! TO.N,/Serial Connector 2/RXD*
X97930000Y-124170000D03*
G04 #@! TO.P,J19,3,SLEEVE*
G04 #@! TO.N,GND*
X102730000Y-126170000D03*
G04 #@! TO.P,J19,4,TIP*
G04 #@! TO.N,/Serial Connector 2/TXD*
X102730000Y-119170000D03*
G04 #@! TD*
D13*
G04 #@! TO.P,J22,1,Pin_1*
G04 #@! TO.N,GND*
X149860000Y-124880000D03*
D14*
G04 #@! TO.P,J22,2,Pin_2*
G04 #@! TO.N,Vdrive*
X147320000Y-124880000D03*
G04 #@! TO.P,J22,3,Pin_3*
G04 #@! TO.N,/Serial Connector 3/CTS*
X144780000Y-124880000D03*
G04 #@! TO.P,J22,4,Pin_4*
G04 #@! TO.N,/Serial Connector 3/TXD*
X142240000Y-124880000D03*
G04 #@! TO.P,J22,5,Pin_5*
G04 #@! TO.N,/Serial Connector 3/RXD*
X139700000Y-124880000D03*
G04 #@! TO.P,J22,6,Pin_6*
G04 #@! TO.N,/Serial Connector 3/DTR*
X137160000Y-124880000D03*
G04 #@! TO.P,J22,7,Pin_7*
G04 #@! TO.N,/Serial Connector 3/RTS*
X134620000Y-124880000D03*
G04 #@! TD*
D26*
G04 #@! TO.P,R1,1*
G04 #@! TO.N,+3.3V*
X148105000Y-91440000D03*
G04 #@! TO.P,R1,2*
G04 #@! TO.N,Net-(D1-Pad2)*
X149075000Y-91440000D03*
G04 #@! TD*
D34*
G04 #@! TO.P,J1,A1,GND*
G04 #@! TO.N,GND*
X150520000Y-87170000D03*
G04 #@! TO.P,J1,A4,VBUS*
G04 #@! TO.N,+5V*
X150520000Y-86370000D03*
G04 #@! TO.P,J1,A5,CC1*
G04 #@! TO.N,Net-(J1-PadA5)*
X150520000Y-85070000D03*
G04 #@! TO.P,J1,A6,D+*
G04 #@! TO.N,/USB_P*
X150520000Y-84070000D03*
G04 #@! TO.P,J1,A7,D-*
G04 #@! TO.N,/USB_N*
X150520000Y-83570000D03*
G04 #@! TO.P,J1,A8,SBU1*
G04 #@! TO.N,unconnected-(J1-PadA8)*
X150520000Y-82570000D03*
G04 #@! TO.P,J1,A9,VBUS*
G04 #@! TO.N,+5V*
X150520000Y-81270000D03*
G04 #@! TO.P,J1,A12,GND*
G04 #@! TO.N,GND*
X150520000Y-80470000D03*
G04 #@! TO.P,J1,B1,GND*
X150520000Y-80770000D03*
G04 #@! TO.P,J1,B4,VBUS*
G04 #@! TO.N,+5V*
X150520000Y-81570000D03*
G04 #@! TO.P,J1,B5,CC2*
G04 #@! TO.N,Net-(J1-PadB5)*
X150520000Y-82070000D03*
G04 #@! TO.P,J1,B6,D+*
G04 #@! TO.N,/USB_P*
X150520000Y-83070000D03*
G04 #@! TO.P,J1,B7,D-*
G04 #@! TO.N,/USB_N*
X150520000Y-84570000D03*
G04 #@! TO.P,J1,B8,SBU2*
G04 #@! TO.N,unconnected-(J1-PadB8)*
X150520000Y-85570000D03*
G04 #@! TO.P,J1,B9,VBUS*
G04 #@! TO.N,+5V*
X150520000Y-86070000D03*
G04 #@! TO.P,J1,B12,GND*
G04 #@! TO.N,GND*
X150520000Y-86870000D03*
D35*
G04 #@! TO.P,J1,S1,SHIELD*
X155540000Y-79500000D03*
X155540000Y-88140000D03*
D36*
X151360000Y-88140000D03*
X151360000Y-79500000D03*
G04 #@! TD*
D37*
G04 #@! TO.P,U1,1,DCD5/GPIO40*
G04 #@! TO.N,unconnected-(U1-Pad1)*
X119030000Y-76145000D03*
G04 #@! TO.P,U1,2,RI5/GPIO41*
G04 #@! TO.N,unconnected-(U1-Pad2)*
X118530000Y-76145000D03*
G04 #@! TO.P,U1,3,DSR1/GPIO27*
G04 #@! TO.N,unconnected-(U1-Pad3)*
X118030000Y-76145000D03*
G04 #@! TO.P,U1,4,DCD1/GPIO28*
G04 #@! TO.N,unconnected-(U1-Pad4)*
X117530000Y-76145000D03*
G04 #@! TO.P,U1,5,RI1/GPIO29*
G04 #@! TO.N,unconnected-(U1-Pad5)*
X117030000Y-76145000D03*
G04 #@! TO.P,U1,6,NC*
G04 #@! TO.N,unconnected-(U1-Pad6)*
X116530000Y-76145000D03*
G04 #@! TO.P,U1,7,CFG*
G04 #@! TO.N,/CFG*
X116030000Y-76145000D03*
G04 #@! TO.P,U1,8,NC*
G04 #@! TO.N,unconnected-(U1-Pad8)*
X115530000Y-76145000D03*
G04 #@! TO.P,U1,9,NC*
G04 #@! TO.N,unconnected-(U1-Pad9)*
X115030000Y-76145000D03*
G04 #@! TO.P,U1,10,GND*
G04 #@! TO.N,GND*
X114530000Y-76145000D03*
G04 #@! TO.P,U1,11,VCC*
G04 #@! TO.N,+3.3V*
X114030000Y-76145000D03*
G04 #@! TO.P,U1,12,XI*
G04 #@! TO.N,/XI*
X113530000Y-76145000D03*
G04 #@! TO.P,U1,13,XO*
G04 #@! TO.N,/XO*
X113030000Y-76145000D03*
G04 #@! TO.P,U1,14,RESET*
G04 #@! TO.N,/RESET*
X112530000Y-76145000D03*
G04 #@! TO.P,U1,15,TXD5*
G04 #@! TO.N,/Serial Connector 5/TXD*
X112030000Y-76145000D03*
G04 #@! TO.P,U1,16,RXD5*
G04 #@! TO.N,/Serial Connector 5/RXD*
X111530000Y-76145000D03*
G04 #@! TO.P,U1,17,TXD6*
G04 #@! TO.N,/Serial Connector 6/TXD*
X111030000Y-76145000D03*
G04 #@! TO.P,U1,18,RXD6*
G04 #@! TO.N,/Serial Connector 6/RXD*
X110530000Y-76145000D03*
G04 #@! TO.P,U1,19,GND*
G04 #@! TO.N,GND*
X110030000Y-76145000D03*
G04 #@! TO.P,U1,20,GND*
X109530000Y-76145000D03*
G04 #@! TO.P,U1,21,VIO*
G04 #@! TO.N,Vdrive*
X109030000Y-76145000D03*
G04 #@! TO.P,U1,22,VIO*
X108530000Y-76145000D03*
G04 #@! TO.P,U1,23,CTS1/GPIO2*
G04 #@! TO.N,/Serial Connector 1/CTS*
X108030000Y-76145000D03*
G04 #@! TO.P,U1,24,RTS1/GPIO3*
G04 #@! TO.N,/Serial Connector 1/RTS*
X107530000Y-76145000D03*
G04 #@! TO.P,U1,25,TXD1*
G04 #@! TO.N,/Serial Connector 1/TXD*
X107030000Y-76145000D03*
D38*
G04 #@! TO.P,U1,26,RXD1*
G04 #@! TO.N,/Serial Connector 1/RXD*
X105355000Y-77820000D03*
G04 #@! TO.P,U1,27,GND*
G04 #@! TO.N,GND*
X105355000Y-78320000D03*
G04 #@! TO.P,U1,28,VCC*
G04 #@! TO.N,+3.3V*
X105355000Y-78820000D03*
G04 #@! TO.P,U1,29,ACT*
G04 #@! TO.N,/ACT*
X105355000Y-79320000D03*
G04 #@! TO.P,U1,30,DTR1/TNOW1/GPIO9*
G04 #@! TO.N,/Serial Connector 1/DTR*
X105355000Y-79820000D03*
G04 #@! TO.P,U1,31,CTS6/GPIO16*
G04 #@! TO.N,/Serial Connector 6/CTS*
X105355000Y-80320000D03*
G04 #@! TO.P,U1,32,RTS6/GPIO17*
G04 #@! TO.N,/Serial Connector 6/RTS*
X105355000Y-80820000D03*
G04 #@! TO.P,U1,33,TXD7*
G04 #@! TO.N,/Serial Connector 7/TXD*
X105355000Y-81320000D03*
G04 #@! TO.P,U1,34,RXD7*
G04 #@! TO.N,/Serial Connector 7/RXD*
X105355000Y-81820000D03*
G04 #@! TO.P,U1,35,CTS7/GPIO18*
G04 #@! TO.N,/Serial Connector 7/CTS*
X105355000Y-82320000D03*
G04 #@! TO.P,U1,36,RTS7/GPIO19*
G04 #@! TO.N,/Serial Connector 7/RTS*
X105355000Y-82820000D03*
G04 #@! TO.P,U1,37,GND*
G04 #@! TO.N,GND*
X105355000Y-83320000D03*
G04 #@! TO.P,U1,38,DSR7/GPIO45*
G04 #@! TO.N,unconnected-(U1-Pad38)*
X105355000Y-83820000D03*
G04 #@! TO.P,U1,39,DCD7/GPIO46*
G04 #@! TO.N,unconnected-(U1-Pad39)*
X105355000Y-84320000D03*
G04 #@! TO.P,U1,40,RI7/GPIO47*
G04 #@! TO.N,unconnected-(U1-Pad40)*
X105355000Y-84820000D03*
G04 #@! TO.P,U1,41,DSR6/GPIO42*
G04 #@! TO.N,unconnected-(U1-Pad41)*
X105355000Y-85320000D03*
G04 #@! TO.P,U1,42,DCD6/GPIO43*
G04 #@! TO.N,unconnected-(U1-Pad42)*
X105355000Y-85820000D03*
G04 #@! TO.P,U1,43,RI6/GPIO44*
G04 #@! TO.N,unconnected-(U1-Pad43)*
X105355000Y-86320000D03*
G04 #@! TO.P,U1,44,DSR3/GPIO33*
G04 #@! TO.N,unconnected-(U1-Pad44)*
X105355000Y-86820000D03*
G04 #@! TO.P,U1,45,DCD3/GPIO34*
G04 #@! TO.N,unconnected-(U1-Pad45)*
X105355000Y-87320000D03*
G04 #@! TO.P,U1,46,RI3/GPIO35*
G04 #@! TO.N,unconnected-(U1-Pad46)*
X105355000Y-87820000D03*
G04 #@! TO.P,U1,47,TXD2*
G04 #@! TO.N,/Serial Connector 2/TXD*
X105355000Y-88320000D03*
G04 #@! TO.P,U1,48,RXD2*
G04 #@! TO.N,/Serial Connector 2/RXD*
X105355000Y-88820000D03*
G04 #@! TO.P,U1,49,GND*
G04 #@! TO.N,GND*
X105355000Y-89320000D03*
G04 #@! TO.P,U1,50,VIO*
G04 #@! TO.N,Vdrive*
X105355000Y-89820000D03*
D37*
G04 #@! TO.P,U1,51,CTS3/GPIO6*
G04 #@! TO.N,/Serial Connector 3/CTS*
X107030000Y-91495000D03*
G04 #@! TO.P,U1,52,CTS2/GPIO4*
G04 #@! TO.N,/Serial Connector 2/CTS*
X107530000Y-91495000D03*
G04 #@! TO.P,U1,53,RTS2/GPIO5*
G04 #@! TO.N,/Serial Connector 2/RTS*
X108030000Y-91495000D03*
G04 #@! TO.P,U1,54,RTS3/GPIO7*
G04 #@! TO.N,/Serial Connector 3/RTS*
X108530000Y-91495000D03*
G04 #@! TO.P,U1,55,DSR2/GPIO30*
G04 #@! TO.N,unconnected-(U1-Pad55)*
X109030000Y-91495000D03*
G04 #@! TO.P,U1,56,DCD2/GPIO31*
G04 #@! TO.N,unconnected-(U1-Pad56)*
X109530000Y-91495000D03*
G04 #@! TO.P,U1,57,RI2/GPIO32*
G04 #@! TO.N,unconnected-(U1-Pad57)*
X110030000Y-91495000D03*
G04 #@! TO.P,U1,58,NC*
G04 #@! TO.N,unconnected-(U1-Pad58)*
X110530000Y-91495000D03*
G04 #@! TO.P,U1,59,NC*
G04 #@! TO.N,unconnected-(U1-Pad59)*
X111030000Y-91495000D03*
G04 #@! TO.P,U1,60,DSR0/GPIO24*
G04 #@! TO.N,unconnected-(U1-Pad60)*
X111530000Y-91495000D03*
G04 #@! TO.P,U1,61,DCD0/GPIO26*
G04 #@! TO.N,unconnected-(U1-Pad61)*
X112030000Y-91495000D03*
G04 #@! TO.P,U1,62,RI0/GPOIO25*
G04 #@! TO.N,unconnected-(U1-Pad62)*
X112530000Y-91495000D03*
G04 #@! TO.P,U1,63,DTR4/TNOW4/GPIO20*
G04 #@! TO.N,/Serial Connector 4/DTR*
X113030000Y-91495000D03*
G04 #@! TO.P,U1,64,DTR5/TNOW5/GPIO21*
G04 #@! TO.N,/Serial Connector 5/DTR*
X113530000Y-91495000D03*
G04 #@! TO.P,U1,65,DTR6/TNOW6/GPIO22*
G04 #@! TO.N,/Serial Connector 6/DTR*
X114030000Y-91495000D03*
G04 #@! TO.P,U1,66,DTR7/TNOW7/GPIO23*
G04 #@! TO.N,/Serial Connector 7/DTR*
X114530000Y-91495000D03*
G04 #@! TO.P,U1,67,DTR2/TNOW2/GPIO10*
G04 #@! TO.N,/Serial Connector 2/DTR*
X115030000Y-91495000D03*
G04 #@! TO.P,U1,68,TXD0*
G04 #@! TO.N,/Serial Connector 0/TXD*
X115530000Y-91495000D03*
G04 #@! TO.P,U1,69,RXD0*
G04 #@! TO.N,/Serial Connector 0/RXD*
X116030000Y-91495000D03*
G04 #@! TO.P,U1,70,CTS0/GPIO0*
G04 #@! TO.N,/Serial Connector 0/CTS*
X116530000Y-91495000D03*
G04 #@! TO.P,U1,71,RTS0/GPIO1*
G04 #@! TO.N,/Serial Connector 0/RTS*
X117030000Y-91495000D03*
G04 #@! TO.P,U1,72,DTR0/TNOW0/GPIO8*
G04 #@! TO.N,/Serial Connector 0/DTR*
X117530000Y-91495000D03*
G04 #@! TO.P,U1,73,NC*
G04 #@! TO.N,unconnected-(U1-Pad73)*
X118030000Y-91495000D03*
G04 #@! TO.P,U1,74,GND*
G04 #@! TO.N,GND*
X118530000Y-91495000D03*
G04 #@! TO.P,U1,75,VCC*
G04 #@! TO.N,+3.3V*
X119030000Y-91495000D03*
D38*
G04 #@! TO.P,U1,76,TX_S*
G04 #@! TO.N,/TX_S*
X120705000Y-89820000D03*
G04 #@! TO.P,U1,77,RX_S*
G04 #@! TO.N,/RX_S*
X120705000Y-89320000D03*
G04 #@! TO.P,U1,78,TXD3*
G04 #@! TO.N,/Serial Connector 3/TXD*
X120705000Y-88820000D03*
G04 #@! TO.P,U1,79,RXD3*
G04 #@! TO.N,/Serial Connector 3/RXD*
X120705000Y-88320000D03*
G04 #@! TO.P,U1,80,TXD4*
G04 #@! TO.N,/Serial Connector 4/TXD*
X120705000Y-87820000D03*
G04 #@! TO.P,U1,81,NC*
G04 #@! TO.N,unconnected-(U1-Pad81)*
X120705000Y-87320000D03*
G04 #@! TO.P,U1,82,NC*
G04 #@! TO.N,unconnected-(U1-Pad82)*
X120705000Y-86820000D03*
G04 #@! TO.P,U1,83,RXD4*
G04 #@! TO.N,/Serial Connector 4/RXD*
X120705000Y-86320000D03*
G04 #@! TO.P,U1,84,NC*
G04 #@! TO.N,unconnected-(U1-Pad84)*
X120705000Y-85820000D03*
G04 #@! TO.P,U1,85,NC*
G04 #@! TO.N,unconnected-(U1-Pad85)*
X120705000Y-85320000D03*
G04 #@! TO.P,U1,86,DSR4/GPIO37*
G04 #@! TO.N,unconnected-(U1-Pad86)*
X120705000Y-84820000D03*
G04 #@! TO.P,U1,87,DCD4/GPIO37*
G04 #@! TO.N,unconnected-(U1-Pad87)*
X120705000Y-84320000D03*
G04 #@! TO.P,U1,88,RI4/GPIO38*
G04 #@! TO.N,unconnected-(U1-Pad88)*
X120705000Y-83820000D03*
G04 #@! TO.P,U1,89,DTR3/TNOW3/GPIO11*
G04 #@! TO.N,/Serial Connector 3/DTR*
X120705000Y-83320000D03*
G04 #@! TO.P,U1,90,CTS4/GPIO12*
G04 #@! TO.N,/Serial Connector 4/CTS*
X120705000Y-82820000D03*
G04 #@! TO.P,U1,91,RTS4/GPIO13*
G04 #@! TO.N,/Serial Connector 4/RTS*
X120705000Y-82320000D03*
G04 #@! TO.P,U1,92,USB_N*
G04 #@! TO.N,/USB_N*
X120705000Y-81820000D03*
G04 #@! TO.P,U1,93,USB_P*
G04 #@! TO.N,/USB_P*
X120705000Y-81320000D03*
G04 #@! TO.P,U1,94,TEST*
G04 #@! TO.N,/TEST*
X120705000Y-80820000D03*
G04 #@! TO.P,U1,95,CTS5/GPIO14*
G04 #@! TO.N,/Serial Connector 5/CTS*
X120705000Y-80320000D03*
G04 #@! TO.P,U1,96,RTS5/GPIO15*
G04 #@! TO.N,/Serial Connector 5/RTS*
X120705000Y-79820000D03*
G04 #@! TO.P,U1,97,NC*
G04 #@! TO.N,unconnected-(U1-Pad97)*
X120705000Y-79320000D03*
G04 #@! TO.P,U1,98,DSR5/GPIO39*
G04 #@! TO.N,unconnected-(U1-Pad98)*
X120705000Y-78820000D03*
G04 #@! TO.P,U1,99,GND*
G04 #@! TO.N,GND*
X120705000Y-78320000D03*
G04 #@! TO.P,U1,100,VIO*
G04 #@! TO.N,Vdrive*
X120705000Y-77820000D03*
G04 #@! TD*
D24*
G04 #@! TO.P,J4,1,Pin_1*
G04 #@! TO.N,unconnected-(J4-Pad1)*
X140320000Y-111110000D03*
G04 #@! TD*
D26*
G04 #@! TO.P,C15,1*
G04 #@! TO.N,+3.3V*
X120419000Y-91948000D03*
G04 #@! TO.P,C15,2*
G04 #@! TO.N,GND*
X121389000Y-91948000D03*
G04 #@! TD*
D10*
G04 #@! TO.P,C23,1*
G04 #@! TO.N,Vdrive*
X70967500Y-124460000D03*
G04 #@! TO.P,C23,2*
G04 #@! TO.N,GND*
X72542500Y-124460000D03*
G04 #@! TD*
D22*
G04 #@! TO.P,C14,1*
G04 #@! TO.N,Vdrive*
X109728000Y-70589000D03*
G04 #@! TO.P,C14,2*
G04 #@! TO.N,GND*
X109728000Y-69619000D03*
G04 #@! TD*
G04 #@! TO.P,C12,1*
G04 #@! TO.N,Vdrive*
X108712000Y-70589000D03*
G04 #@! TO.P,C12,2*
G04 #@! TO.N,GND*
X108712000Y-69619000D03*
G04 #@! TD*
D15*
G04 #@! TO.P,R2,1*
G04 #@! TO.N,+3.3V*
X97917000Y-88161000D03*
G04 #@! TO.P,R2,2*
G04 #@! TO.N,Net-(R2-Pad2)*
X97917000Y-89131000D03*
G04 #@! TD*
D21*
G04 #@! TO.P,C3,1*
G04 #@! TO.N,+5V*
X97028000Y-100863500D03*
G04 #@! TO.P,C3,2*
G04 #@! TO.N,GND*
X97028000Y-99288500D03*
G04 #@! TD*
D23*
G04 #@! TO.P,R16,1*
G04 #@! TO.N,Vdrive*
X108943000Y-118364000D03*
G04 #@! TO.P,R16,2*
G04 #@! TO.N,+3.3V*
X107973000Y-118364000D03*
G04 #@! TD*
D29*
G04 #@! TO.P,C20,1*
G04 #@! TO.N,Vdrive*
X131597500Y-44958000D03*
G04 #@! TO.P,C20,2*
G04 #@! TO.N,GND*
X130022500Y-44958000D03*
G04 #@! TD*
D24*
G04 #@! TO.P,J5,1,Pin_1*
G04 #@! TO.N,unconnected-(J5-Pad1)*
X85740000Y-111110000D03*
G04 #@! TD*
D11*
G04 #@! TO.P,VR3,1,GND*
G04 #@! TO.N,Net-(R6-Pad2)*
X101868000Y-103272000D03*
G04 #@! TO.P,VR3,2,VOUT_2*
G04 #@! TO.N,+1V8*
X99568000Y-103272000D03*
G04 #@! TO.P,VR3,3,VIN*
G04 #@! TO.N,+5V*
X97268000Y-103272000D03*
D12*
G04 #@! TO.P,VR3,4,VOUT_4*
G04 #@! TO.N,+1V8*
X99568000Y-109072000D03*
G04 #@! TD*
D13*
G04 #@! TO.P,J20,1,Pin_1*
G04 #@! TO.N,GND*
X91440000Y-124880000D03*
D14*
G04 #@! TO.P,J20,2,Pin_2*
G04 #@! TO.N,Vdrive*
X88900000Y-124880000D03*
G04 #@! TO.P,J20,3,Pin_3*
G04 #@! TO.N,/Serial Connector 2/CTS*
X86360000Y-124880000D03*
G04 #@! TO.P,J20,4,Pin_4*
G04 #@! TO.N,/Serial Connector 2/TXD*
X83820000Y-124880000D03*
G04 #@! TO.P,J20,5,Pin_5*
G04 #@! TO.N,/Serial Connector 2/RXD*
X81280000Y-124880000D03*
G04 #@! TO.P,J20,6,Pin_6*
G04 #@! TO.N,/Serial Connector 2/DTR*
X78740000Y-124880000D03*
G04 #@! TO.P,J20,7,Pin_7*
G04 #@! TO.N,/Serial Connector 2/RTS*
X76200000Y-124880000D03*
G04 #@! TD*
D15*
G04 #@! TO.P,R6,1*
G04 #@! TO.N,+1V8*
X101092000Y-100099000D03*
G04 #@! TO.P,R6,2*
G04 #@! TO.N,Net-(R6-Pad2)*
X101092000Y-101069000D03*
G04 #@! TD*
D20*
G04 #@! TO.P,J17,2,RING*
G04 #@! TO.N,/Serial Connector 1/RXD*
X72680000Y-94120000D03*
G04 #@! TO.P,J17,3,SLEEVE*
G04 #@! TO.N,GND*
X70680000Y-98920000D03*
G04 #@! TO.P,J17,4,TIP*
G04 #@! TO.N,/Serial Connector 1/TXD*
X77680000Y-98920000D03*
G04 #@! TD*
D11*
G04 #@! TO.P,VR2,1,GND*
G04 #@! TO.N,Net-(R4-Pad2)*
X94248000Y-103272000D03*
G04 #@! TO.P,VR2,2,VOUT_2*
G04 #@! TO.N,+2V5*
X91948000Y-103272000D03*
G04 #@! TO.P,VR2,3,VIN*
G04 #@! TO.N,+5V*
X89648000Y-103272000D03*
D12*
G04 #@! TO.P,VR2,4,VOUT_4*
G04 #@! TO.N,+2V5*
X91948000Y-109072000D03*
G04 #@! TD*
D27*
G04 #@! TO.P,J13,2,RING*
G04 #@! TO.N,/Serial Connector 7/RXD*
X102730000Y-43470000D03*
G04 #@! TO.P,J13,3,SLEEVE*
G04 #@! TO.N,GND*
X97930000Y-41470000D03*
G04 #@! TO.P,J13,4,TIP*
G04 #@! TO.N,/Serial Connector 7/TXD*
X97930000Y-48470000D03*
G04 #@! TD*
D20*
G04 #@! TO.P,J7,2,RING*
G04 #@! TO.N,/Serial Connector 4/RXD*
X153380000Y-98920000D03*
G04 #@! TO.P,J7,3,SLEEVE*
G04 #@! TO.N,GND*
X155380000Y-94120000D03*
G04 #@! TO.P,J7,4,TIP*
G04 #@! TO.N,/Serial Connector 4/TXD*
X148380000Y-94120000D03*
G04 #@! TD*
D39*
G04 #@! TO.N,+5V*
X91948000Y-91186000D03*
X148844000Y-86360000D03*
X88138000Y-103378000D03*
X148844000Y-81280000D03*
X98493498Y-103378000D03*
G04 #@! TO.N,GND*
X91948000Y-114046000D03*
X115316000Y-70866000D03*
X99187000Y-87122000D03*
X124206000Y-76200000D03*
X156247500Y-90165701D03*
X73660000Y-124460000D03*
X155194000Y-102362000D03*
X104394000Y-90932000D03*
X94913502Y-90551000D03*
X116840000Y-59944000D03*
X106822380Y-78636979D03*
X70695500Y-81280000D03*
X95758000Y-124714000D03*
X101092000Y-78740000D03*
X89408000Y-98298000D03*
X121158000Y-92964000D03*
X156247500Y-77470000D03*
X110742093Y-69594093D03*
X99568000Y-114046000D03*
X131064000Y-43180000D03*
X116840000Y-62484000D03*
X71882000Y-44196000D03*
X149606000Y-79502000D03*
X107696000Y-69596000D03*
X152400000Y-43180000D03*
X127000000Y-80264000D03*
X119126000Y-79502000D03*
X114808000Y-74676000D03*
X115316000Y-69596000D03*
X155702000Y-124714000D03*
X106853667Y-84036500D03*
X95885000Y-99060000D03*
X118467047Y-90027646D03*
X101934000Y-98484933D03*
X70695500Y-88900000D03*
X115443000Y-107950000D03*
X109728000Y-77470000D03*
X151892000Y-90170000D03*
X106934000Y-89154000D03*
X70739000Y-66294000D03*
X94996000Y-99060000D03*
X149606000Y-87884000D03*
G04 #@! TO.N,+3.3V*
X154940000Y-92710000D03*
X98679000Y-97282000D03*
X146812000Y-91440000D03*
X156210000Y-76200000D03*
X152400000Y-92710000D03*
X110998000Y-73406000D03*
X113792000Y-112522000D03*
X102719021Y-77581620D03*
X115570000Y-73406000D03*
X119634000Y-92710000D03*
G04 #@! TO.N,+2V5*
X89408000Y-109220000D03*
G04 #@! TO.N,+1V8*
X97028000Y-109220000D03*
G04 #@! TO.N,Vdrive*
X122936000Y-75184000D03*
X106172000Y-94488000D03*
X107188000Y-71120000D03*
X109728000Y-72136000D03*
G04 #@! TO.N,/Serial Connector 4/RXD*
X124930500Y-86186333D03*
G04 #@! TO.N,/Serial Connector 4/TXD*
X124941139Y-87594541D03*
G04 #@! TO.N,/Serial Connector 4/CTS*
X124206000Y-83058000D03*
G04 #@! TO.N,/Serial Connector 4/DTR*
X130048000Y-114808000D03*
X113030000Y-96520000D03*
X125476000Y-114808000D03*
G04 #@! TO.N,/Serial Connector 4/RTS*
X119305500Y-81788000D03*
G04 #@! TO.N,/Serial Connector 5/RXD*
X152065000Y-66121000D03*
X113064915Y-78595500D03*
G04 #@! TO.N,/Serial Connector 5/TXD*
X112522000Y-77724000D03*
G04 #@! TO.N,/Serial Connector 5/DTR*
X115320299Y-88133701D03*
G04 #@! TO.N,/Serial Connector 5/RTS*
X138640196Y-64060403D03*
G04 #@! TO.N,/Serial Connector 6/RXD*
X110236000Y-74676000D03*
G04 #@! TO.N,/Serial Connector 6/TXD*
X111506000Y-74676000D03*
G04 #@! TO.N,/Serial Connector 6/CTS*
X107442000Y-80095500D03*
G04 #@! TO.N,/Serial Connector 6/DTR*
X130302000Y-69596000D03*
X116586000Y-88392000D03*
X129286000Y-80264000D03*
X130302000Y-75438000D03*
G04 #@! TO.N,/Serial Connector 7/RXD*
X107899957Y-81629999D03*
X102024500Y-75851306D03*
X99822000Y-49784000D03*
G04 #@! TO.N,/Serial Connector 7/DTR*
X111252000Y-78994000D03*
X116082299Y-89920299D03*
G04 #@! TO.N,/Serial Connector 7/RTS*
X91694000Y-72644000D03*
G04 #@! TO.N,/Serial Connector 0/RXD*
X117094000Y-97790000D03*
G04 #@! TO.N,/Serial Connector 0/TXD*
X99568000Y-91948000D03*
G04 #@! TO.N,/Serial Connector 0/CTS*
X117352299Y-96769701D03*
G04 #@! TO.N,/Serial Connector 0/DTR*
X117358196Y-90144825D03*
G04 #@! TO.N,/Serial Connector 0/RTS*
X75438000Y-52832000D03*
X117356598Y-95749402D03*
G04 #@! TO.N,/Serial Connector 1/RXD*
X100330000Y-77724000D03*
X96774000Y-82296000D03*
X85090000Y-93980000D03*
G04 #@! TO.N,/Serial Connector 1/TXD*
X95758000Y-81534000D03*
X106172000Y-74676000D03*
G04 #@! TO.N,/Serial Connector 1/CTS*
X104394000Y-69596000D03*
X75103667Y-108674500D03*
X94234000Y-79248000D03*
G04 #@! TO.N,/Serial Connector 1/DTR*
X78994000Y-107950000D03*
X101600000Y-80010000D03*
X97282000Y-83312000D03*
G04 #@! TO.N,/Serial Connector 1/RTS*
X94996000Y-80518000D03*
X76454000Y-105410000D03*
X104394000Y-71120000D03*
G04 #@! TO.N,/Serial Connector 2/RXD*
X101346000Y-89916000D03*
G04 #@! TO.N,/Serial Connector 2/TXD*
X101092000Y-88392000D03*
G04 #@! TO.N,/Serial Connector 2/CTS*
X107304722Y-95783970D03*
G04 #@! TO.N,/Serial Connector 2/DTR*
X114133698Y-95854296D03*
G04 #@! TO.N,/Serial Connector 2/RTS*
X107442000Y-96774000D03*
G04 #@! TO.N,/Serial Connector 3/RXD*
X128188823Y-93907421D03*
G04 #@! TO.N,/Serial Connector 3/TXD*
X127762000Y-94996000D03*
G04 #@! TO.N,/Serial Connector 3/CTS*
X107696000Y-98843500D03*
G04 #@! TO.N,/Serial Connector 3/DTR*
X119380000Y-83312000D03*
G04 #@! TO.N,/Serial Connector 3/RTS*
X108508716Y-98261694D03*
G04 #@! TO.N,/ACT*
X136652000Y-76200000D03*
X116078000Y-79502000D03*
G04 #@! TO.N,/RX_S*
X110601620Y-83415021D03*
X100584000Y-82550000D03*
G04 #@! TO.N,/TX_S*
X99568000Y-83312000D03*
X110998000Y-84836000D03*
G04 #@! TD*
D40*
G04 #@! TO.N,+5V*
X93599000Y-91094000D02*
X93839000Y-91334000D01*
X89408000Y-103032000D02*
X89648000Y-103272000D01*
D41*
X148854000Y-81270000D02*
X148844000Y-81280000D01*
X150520000Y-81570000D02*
X149134000Y-81570000D01*
D40*
X97028000Y-100863500D02*
X97028000Y-103032000D01*
D41*
X149134000Y-81570000D02*
X148844000Y-81280000D01*
D40*
X97028000Y-103032000D02*
X97268000Y-103272000D01*
D41*
X149134000Y-86070000D02*
X148844000Y-86360000D01*
X148854000Y-86370000D02*
X148844000Y-86360000D01*
D40*
X93599000Y-88925500D02*
X93599000Y-91094000D01*
X88244000Y-103272000D02*
X88138000Y-103378000D01*
X93839000Y-91334000D02*
X92096000Y-91334000D01*
D41*
X150520000Y-81270000D02*
X148854000Y-81270000D01*
X150520000Y-86370000D02*
X148854000Y-86370000D01*
D40*
X98387498Y-103272000D02*
X98493498Y-103378000D01*
X89648000Y-103272000D02*
X88244000Y-103272000D01*
X97268000Y-103272000D02*
X98387498Y-103272000D01*
X92096000Y-91334000D02*
X91948000Y-91186000D01*
D41*
X150520000Y-86070000D02*
X149134000Y-86070000D01*
D40*
X89408000Y-100863500D02*
X89408000Y-103032000D01*
G04 #@! TO.N,GND*
X151917500Y-90195500D02*
X151892000Y-90170000D01*
D41*
X102616000Y-99166933D02*
X101934000Y-98484933D01*
X121389000Y-92733000D02*
X121158000Y-92964000D01*
D40*
X91948000Y-113205500D02*
X91948000Y-114046000D01*
D41*
X150114000Y-86868000D02*
X149606000Y-87376000D01*
X149606000Y-79502000D02*
X149860000Y-79756000D01*
X114808000Y-72667000D02*
X114808000Y-71374000D01*
X94996000Y-100099000D02*
X94996000Y-99060000D01*
X106405000Y-83504315D02*
X106480000Y-83579315D01*
X118530000Y-91495000D02*
X118530000Y-90090599D01*
X149860000Y-80010000D02*
X150320000Y-80470000D01*
X105355000Y-78320000D02*
X106505401Y-78320000D01*
X106480000Y-83662833D02*
X106853667Y-84036500D01*
X106505401Y-78320000D02*
X106822380Y-78636979D01*
D40*
X69570500Y-80155000D02*
X70695500Y-81280000D01*
D41*
X149606000Y-80010000D02*
X149606000Y-79502000D01*
X122405000Y-76200000D02*
X124206000Y-76200000D01*
X121389000Y-91948000D02*
X121389000Y-92733000D01*
X149606000Y-87376000D02*
X149606000Y-87884000D01*
X109530000Y-77272000D02*
X109728000Y-77470000D01*
D40*
X153644500Y-43180000D02*
X152400000Y-43180000D01*
D41*
X155425000Y-90170000D02*
X156243201Y-90170000D01*
D40*
X72542500Y-124460000D02*
X73660000Y-124460000D01*
X151917500Y-91440000D02*
X151917500Y-90195500D01*
X70713500Y-65024000D02*
X70713500Y-66268500D01*
D41*
X119839315Y-78320000D02*
X119126000Y-79033315D01*
D40*
X155168500Y-124180500D02*
X155702000Y-124714000D01*
D41*
X106480000Y-83579315D02*
X106480000Y-83662833D01*
X116840000Y-58905000D02*
X116840000Y-59944000D01*
X115062000Y-71120000D02*
X115316000Y-70866000D01*
X102131000Y-78740000D02*
X101092000Y-78740000D01*
X111337186Y-68999000D02*
X110742093Y-69594093D01*
X109728000Y-69619000D02*
X110717186Y-69619000D01*
X104163000Y-91163000D02*
X104394000Y-90932000D01*
X105355000Y-83320000D02*
X106137167Y-83320000D01*
D40*
X91264500Y-97536000D02*
X90170000Y-97536000D01*
X114046000Y-107998500D02*
X115394500Y-107998500D01*
D41*
X112156000Y-68999000D02*
X111337186Y-68999000D01*
X107719000Y-69619000D02*
X107696000Y-69596000D01*
X106405000Y-83420000D02*
X106405000Y-83504315D01*
D40*
X69570500Y-87775000D02*
X70695500Y-88900000D01*
D41*
X99187000Y-88161000D02*
X99187000Y-87122000D01*
X150066000Y-87170000D02*
X149606000Y-87630000D01*
X110030000Y-76145000D02*
X110030000Y-77168000D01*
X106245685Y-83345000D02*
X106320685Y-83420000D01*
X119126000Y-79033315D02*
X119126000Y-79502000D01*
D40*
X99568000Y-113205500D02*
X99568000Y-114046000D01*
X89408000Y-99288500D02*
X89408000Y-98298000D01*
D41*
X125961000Y-80264000D02*
X127000000Y-80264000D01*
X106137167Y-83320000D02*
X106162167Y-83345000D01*
D40*
X130022500Y-44221500D02*
X131064000Y-43180000D01*
D41*
X110717186Y-69619000D02*
X110742093Y-69594093D01*
X115339000Y-69619000D02*
X115316000Y-69596000D01*
X106768000Y-89320000D02*
X106934000Y-89154000D01*
D40*
X153949500Y-102362000D02*
X155194000Y-102362000D01*
D41*
X114808000Y-71374000D02*
X115062000Y-71120000D01*
X112776000Y-69619000D02*
X112156000Y-68999000D01*
D40*
X70713500Y-66268500D02*
X70739000Y-66294000D01*
D41*
X108712000Y-69619000D02*
X107719000Y-69619000D01*
X120705000Y-78320000D02*
X119839315Y-78320000D01*
X106320685Y-83420000D02*
X106405000Y-83420000D01*
D40*
X73152000Y-43967500D02*
X72110500Y-43967500D01*
D41*
X102616000Y-100099000D02*
X102616000Y-99166933D01*
X114530000Y-74954000D02*
X114808000Y-74676000D01*
X116332000Y-69619000D02*
X115339000Y-69619000D01*
X114530000Y-76145000D02*
X114530000Y-74954000D01*
X105355000Y-89320000D02*
X106768000Y-89320000D01*
X149606000Y-87630000D02*
X149606000Y-87884000D01*
X156243201Y-90170000D02*
X156247500Y-90165701D01*
X155425000Y-77470000D02*
X156247500Y-77470000D01*
X149860000Y-79756000D02*
X149860000Y-80010000D01*
D40*
X94234000Y-124993500D02*
X95478500Y-124993500D01*
X94913502Y-89388998D02*
X94913502Y-90551000D01*
X97028000Y-99288500D02*
X96113500Y-99288500D01*
X115394500Y-107998500D02*
X115443000Y-107950000D01*
D41*
X110030000Y-77168000D02*
X109728000Y-77470000D01*
X116840000Y-63500000D02*
X116840000Y-62484000D01*
D40*
X95275500Y-89027000D02*
X94913502Y-89388998D01*
X72110500Y-43967500D02*
X71882000Y-44196000D01*
X95478500Y-124993500D02*
X95758000Y-124714000D01*
D41*
X118530000Y-90090599D02*
X118467047Y-90027646D01*
D40*
X130022500Y-44958000D02*
X130022500Y-44221500D01*
X90170000Y-97536000D02*
X89408000Y-98298000D01*
D41*
X150366000Y-80770000D02*
X149606000Y-80010000D01*
D40*
X153924000Y-124180500D02*
X155168500Y-124180500D01*
D41*
X106162167Y-83345000D02*
X106245685Y-83345000D01*
D40*
X96113500Y-99288500D02*
X95885000Y-99060000D01*
D41*
X109530000Y-76145000D02*
X109530000Y-77272000D01*
X104163000Y-91948000D02*
X104163000Y-91163000D01*
D40*
G04 #@! TO.N,+3.3V*
X96139000Y-97134000D02*
X96139000Y-91334000D01*
X103101000Y-77963599D02*
X102719021Y-77581620D01*
D41*
X148105000Y-91440000D02*
X146812000Y-91440000D01*
D40*
X108505000Y-114380000D02*
X110987500Y-114380000D01*
D41*
X155425000Y-76200000D02*
X156210000Y-76200000D01*
D40*
X107973000Y-118364000D02*
X107973000Y-114912000D01*
D41*
X119030000Y-91495000D02*
X119966000Y-91495000D01*
D40*
X93541500Y-97134000D02*
X93139500Y-97536000D01*
D41*
X96139000Y-89154000D02*
X96139000Y-91334000D01*
X114030000Y-74415000D02*
X114808000Y-73637000D01*
X97917000Y-88161000D02*
X97132000Y-88161000D01*
D40*
X115339000Y-73637000D02*
X115570000Y-73406000D01*
X114808000Y-73637000D02*
X115339000Y-73637000D01*
D41*
X114030000Y-76145000D02*
X114030000Y-74415000D01*
X111741784Y-69619000D02*
X110998000Y-70362784D01*
X105355000Y-78820000D02*
X103181000Y-78820000D01*
D40*
X103101000Y-78740000D02*
X103101000Y-77963599D01*
D41*
X97132000Y-88161000D02*
X96139000Y-89154000D01*
D40*
X96139000Y-97134000D02*
X93541500Y-97134000D01*
X107973000Y-114912000D02*
X108505000Y-114380000D01*
D42*
X98679000Y-97282000D02*
X96287000Y-97282000D01*
D41*
X110998000Y-70362784D02*
X110998000Y-73406000D01*
D40*
X120396000Y-91948000D02*
X119634000Y-92710000D01*
D41*
X119966000Y-91495000D02*
X120419000Y-91948000D01*
D40*
G04 #@! TO.N,+2V5*
X91948000Y-111330500D02*
X91948000Y-109072000D01*
D41*
X91948000Y-101858784D02*
X91948000Y-103272000D01*
D42*
X89408000Y-109220000D02*
X91800000Y-109220000D01*
D41*
X93707784Y-100099000D02*
X91948000Y-101858784D01*
D40*
X91948000Y-109072000D02*
X91948000Y-103272000D01*
D41*
G04 #@! TO.N,+1V8*
X99568000Y-101604784D02*
X99568000Y-103272000D01*
X101073784Y-100099000D02*
X99568000Y-101604784D01*
D40*
X99568000Y-111330500D02*
X99568000Y-109072000D01*
D42*
X97028000Y-109220000D02*
X99420000Y-109220000D01*
D40*
X99568000Y-109072000D02*
X99568000Y-103272000D01*
D41*
G04 #@! TO.N,/RESET*
X112776000Y-70589000D02*
X112284000Y-70589000D01*
X112284000Y-70589000D02*
X112530000Y-70835000D01*
X112776000Y-70589000D02*
X112530000Y-70835000D01*
X112530000Y-76145000D02*
X112530000Y-70835000D01*
X111760000Y-70589000D02*
X112284000Y-70589000D01*
G04 #@! TO.N,/XI*
X114300000Y-67564000D02*
X113030000Y-66294000D01*
X114300000Y-71120000D02*
X114300000Y-67564000D01*
X113530000Y-71890000D02*
X114300000Y-71120000D01*
X116100000Y-65210000D02*
X113030000Y-65210000D01*
X116840000Y-64470000D02*
X116100000Y-65210000D01*
X113530000Y-76145000D02*
X113530000Y-71890000D01*
G04 #@! TO.N,/XO*
X111705000Y-68017000D02*
X111705000Y-58035000D01*
X111705000Y-58035000D02*
X113030000Y-56710000D01*
X115615000Y-56710000D02*
X113030000Y-56710000D01*
X113030000Y-76145000D02*
X113030000Y-71628000D01*
X113538000Y-68834000D02*
X113030000Y-68326000D01*
X113538000Y-71120000D02*
X113538000Y-68834000D01*
X113030000Y-71628000D02*
X113538000Y-71120000D01*
X113030000Y-68326000D02*
X112014000Y-68326000D01*
X116840000Y-57935000D02*
X115615000Y-56710000D01*
X112014000Y-68326000D02*
X111705000Y-68017000D01*
G04 #@! TO.N,Vdrive*
X121435000Y-76181784D02*
X122432784Y-75184000D01*
X121435000Y-76200000D02*
X120650000Y-76985000D01*
D40*
X88900000Y-123970000D02*
X90140000Y-122730000D01*
D41*
X120650000Y-77765000D02*
X120705000Y-77820000D01*
D40*
X69820000Y-118394000D02*
X69820000Y-123312500D01*
X135915000Y-45475000D02*
X137155000Y-44235000D01*
X93545500Y-122730000D02*
X94234000Y-123418500D01*
X152649500Y-127030000D02*
X153924000Y-125755500D01*
X105133000Y-91948000D02*
X105133000Y-93449000D01*
X70104000Y-118110000D02*
X69820000Y-118394000D01*
D41*
X105355000Y-89820000D02*
X105355000Y-91726000D01*
D40*
X132114500Y-45475000D02*
X135915000Y-45475000D01*
X108712000Y-70589000D02*
X107719000Y-70589000D01*
X109728000Y-70589000D02*
X109728000Y-72136000D01*
X78735000Y-42475000D02*
X77435000Y-41175000D01*
X151940000Y-106710000D02*
X151940000Y-102796500D01*
X74120000Y-63530000D02*
X72626000Y-65024000D01*
D41*
X122432784Y-75184000D02*
X122936000Y-75184000D01*
D40*
X108959000Y-118380000D02*
X108943000Y-118364000D01*
X74369500Y-41175000D02*
X73152000Y-42392500D01*
X90140000Y-122730000D02*
X93545500Y-122730000D01*
X110987500Y-118380000D02*
X108959000Y-118380000D01*
X153180000Y-107950000D02*
X151940000Y-106710000D01*
X77435000Y-41175000D02*
X74369500Y-41175000D01*
D41*
X105355000Y-91726000D02*
X105133000Y-91948000D01*
D40*
X131597500Y-44958000D02*
X132114500Y-45475000D01*
X72880000Y-59690000D02*
X74120000Y-60930000D01*
D41*
X109030000Y-76145000D02*
X109030000Y-71287000D01*
D40*
X156240000Y-48230000D02*
X156240000Y-44200500D01*
X151940000Y-102796500D02*
X152374500Y-102362000D01*
D41*
X120650000Y-76985000D02*
X120650000Y-77765000D01*
D40*
X105133000Y-93449000D02*
X106172000Y-94488000D01*
D41*
X108530000Y-76145000D02*
X108530000Y-70771000D01*
D40*
X147320000Y-125730000D02*
X148620000Y-127030000D01*
X72626000Y-65024000D02*
X72288500Y-65024000D01*
X107719000Y-70589000D02*
X107188000Y-71120000D01*
D41*
X109030000Y-71287000D02*
X109728000Y-70589000D01*
X108530000Y-70771000D02*
X108712000Y-70589000D01*
D40*
X69820000Y-123312500D02*
X70967500Y-124460000D01*
X154940000Y-49530000D02*
X156240000Y-48230000D01*
X71120000Y-118110000D02*
X70104000Y-118110000D01*
X156240000Y-44200500D02*
X155219500Y-43180000D01*
X74120000Y-60930000D02*
X74120000Y-63530000D01*
X148620000Y-127030000D02*
X152649500Y-127030000D01*
X71120000Y-59690000D02*
X72880000Y-59690000D01*
D41*
G04 #@! TO.N,Net-(D1-Pad2)*
X150342500Y-91440000D02*
X149075000Y-91440000D01*
D42*
G04 #@! TO.N,Net-(C16-Pad1)*
X110987500Y-124380000D02*
X112387500Y-122980000D01*
X112387500Y-103771500D02*
X112776000Y-103383000D01*
X112387500Y-122980000D02*
X112387500Y-103771500D01*
D40*
X114046000Y-106123500D02*
X114046000Y-104653000D01*
X114046000Y-104653000D02*
X112776000Y-103383000D01*
D41*
G04 #@! TO.N,Net-(D2-Pad2)*
X154455000Y-76200000D02*
X151917500Y-76200000D01*
G04 #@! TO.N,Net-(D3-Pad2)*
X71145500Y-80010000D02*
X72413000Y-80010000D01*
G04 #@! TO.N,Net-(D4-Pad2)*
X72413000Y-87630000D02*
X71145500Y-87630000D01*
G04 #@! TO.N,Net-(J1-PadA5)*
X154455000Y-90170000D02*
X154165000Y-89880000D01*
X154165000Y-89880000D02*
X154165000Y-87540000D01*
X154165000Y-87540000D02*
X151695000Y-85070000D01*
X151695000Y-85070000D02*
X150520000Y-85070000D01*
G04 #@! TO.N,/USB_P*
X151720000Y-84045000D02*
X151695000Y-84070000D01*
X151720000Y-83095000D02*
X151720000Y-84045000D01*
X136255554Y-83070000D02*
X134505554Y-81320000D01*
X151695000Y-83070000D02*
X151720000Y-83095000D01*
X150520000Y-83070000D02*
X151695000Y-83070000D01*
X134505554Y-81320000D02*
X120705000Y-81320000D01*
X151695000Y-84070000D02*
X150520000Y-84070000D01*
X150520000Y-83070000D02*
X136255554Y-83070000D01*
G04 #@! TO.N,/USB_N*
X149102000Y-84327000D02*
X149345000Y-84570000D01*
X150520000Y-83570000D02*
X149102000Y-83570000D01*
X149102000Y-83570000D02*
X136048446Y-83570000D01*
X136048446Y-83570000D02*
X134298446Y-81820000D01*
X134298446Y-81820000D02*
X120705000Y-81820000D01*
X149345000Y-84570000D02*
X150520000Y-84570000D01*
X149102000Y-83570000D02*
X149102000Y-84327000D01*
G04 #@! TO.N,Net-(J1-PadB5)*
X151709951Y-82070000D02*
X150520000Y-82070000D01*
X154165000Y-79614951D02*
X151709951Y-82070000D01*
X154165000Y-77760000D02*
X154165000Y-79614951D01*
X154455000Y-77470000D02*
X154165000Y-77760000D01*
G04 #@! TO.N,/Serial Connector 4/RXD*
X154118299Y-115570000D02*
X149098000Y-110549701D01*
X149098000Y-103202000D02*
X153380000Y-98920000D01*
X120705000Y-86320000D02*
X124796833Y-86320000D01*
X149098000Y-110549701D02*
X149098000Y-103202000D01*
X124796833Y-86320000D02*
X124930500Y-86186333D01*
G04 #@! TO.N,/Serial Connector 4/TXD*
X120705000Y-87820000D02*
X124715680Y-87820000D01*
X154940000Y-113030000D02*
X156115000Y-111855000D01*
X156115000Y-111855000D02*
X156115000Y-100046876D01*
X156115000Y-100046876D02*
X150188124Y-94120000D01*
X124715680Y-87820000D02*
X124941139Y-87594541D01*
X150188124Y-94120000D02*
X148380000Y-94120000D01*
G04 #@! TO.N,/Serial Connector 4/CTS*
X123968000Y-82820000D02*
X124206000Y-83058000D01*
X120705000Y-82820000D02*
X123968000Y-82820000D01*
G04 #@! TO.N,/Serial Connector 4/DTR*
X125476000Y-114808000D02*
X130048000Y-114808000D01*
X113030000Y-91495000D02*
X113030000Y-96520000D01*
G04 #@! TO.N,/Serial Connector 4/RTS*
X120705000Y-82320000D02*
X119837500Y-82320000D01*
X119837500Y-82320000D02*
X119305500Y-81788000D01*
G04 #@! TO.N,/Serial Connector 5/RXD*
X152065000Y-59203299D02*
X154118299Y-57150000D01*
X111530000Y-76145000D02*
X111530000Y-77993402D01*
X152065000Y-72205000D02*
X152065000Y-59203299D01*
X111530000Y-77993402D02*
X112132098Y-78595500D01*
X153380000Y-73520000D02*
X152065000Y-72205000D01*
X112132098Y-78595500D02*
X113064915Y-78595500D01*
G04 #@! TO.N,/Serial Connector 5/TXD*
X148380000Y-68720000D02*
X148380000Y-60348299D01*
X112030000Y-77232000D02*
X112522000Y-77724000D01*
X148380000Y-60348299D02*
X154118299Y-54610000D01*
X112030000Y-76145000D02*
X112030000Y-77232000D01*
G04 #@! TO.N,/Serial Connector 5/CTS*
X152196784Y-52070000D02*
X154940000Y-52070000D01*
X123946784Y-80320000D02*
X152196784Y-52070000D01*
X120705000Y-80320000D02*
X123946784Y-80320000D01*
G04 #@! TO.N,/Serial Connector 5/DTR*
X113530000Y-91495000D02*
X113530000Y-89924000D01*
X113530000Y-89924000D02*
X115320299Y-88133701D01*
G04 #@! TO.N,/Serial Connector 5/RTS*
X138640196Y-64813804D02*
X138640196Y-64060403D01*
X123634000Y-79820000D02*
X138640196Y-64813804D01*
X120705000Y-79820000D02*
X123634000Y-79820000D01*
G04 #@! TO.N,/Serial Connector 6/RXD*
X143600000Y-41300000D02*
X144775000Y-42475000D01*
X128130000Y-43470000D02*
X130300000Y-41300000D01*
X130300000Y-41300000D02*
X143600000Y-41300000D01*
X110530000Y-76145000D02*
X110530000Y-74970000D01*
X110530000Y-74970000D02*
X110236000Y-74676000D01*
G04 #@! TO.N,/Serial Connector 6/TXD*
X123330000Y-48470000D02*
X137061701Y-48470000D01*
X137061701Y-48470000D02*
X142235000Y-43296701D01*
X111030000Y-75152000D02*
X111506000Y-74676000D01*
X111030000Y-76145000D02*
X111030000Y-75152000D01*
G04 #@! TO.N,/Serial Connector 6/CTS*
X105355000Y-80320000D02*
X107217500Y-80320000D01*
X107217500Y-80320000D02*
X107442000Y-80095500D01*
G04 #@! TO.N,/Serial Connector 6/DTR*
X130302000Y-75438000D02*
X130302000Y-79248000D01*
X130302000Y-60309701D02*
X130302000Y-69596000D01*
X130302000Y-79248000D02*
X129286000Y-80264000D01*
X116586000Y-88392000D02*
X115570000Y-89408000D01*
X115570000Y-89408000D02*
X114808000Y-89408000D01*
X147315000Y-43296701D02*
X130302000Y-60309701D01*
X114808000Y-89408000D02*
X114030000Y-90186000D01*
X114030000Y-90186000D02*
X114030000Y-91495000D01*
G04 #@! TO.N,/Serial Connector 6/RTS*
X149855000Y-42475000D02*
X151384000Y-44004000D01*
X122478784Y-74168000D02*
X115826784Y-80820000D01*
X127508000Y-74168000D02*
X122478784Y-74168000D01*
X151384000Y-50292000D02*
X127508000Y-74168000D01*
X151384000Y-44004000D02*
X151384000Y-50292000D01*
X115826784Y-80820000D02*
X105355000Y-80820000D01*
G04 #@! TO.N,/Serial Connector 7/RXD*
X102456694Y-75851306D02*
X102024500Y-75851306D01*
X99822000Y-49784000D02*
X102616000Y-52578000D01*
X102730000Y-43470000D02*
X96556000Y-43470000D01*
X105355000Y-81820000D02*
X107709956Y-81820000D01*
X107709956Y-81820000D02*
X107899957Y-81629999D01*
X96556000Y-43470000D02*
X93726000Y-40640000D01*
X102616000Y-52578000D02*
X102616000Y-75692000D01*
X102616000Y-75692000D02*
X102456694Y-75851306D01*
X93726000Y-40640000D02*
X88190000Y-40640000D01*
X88190000Y-40640000D02*
X86355000Y-42475000D01*
G04 #@! TO.N,/Serial Connector 7/TXD*
X102274310Y-81320000D02*
X105355000Y-81320000D01*
X88988299Y-48470000D02*
X97930000Y-48470000D01*
X97930000Y-48470000D02*
X97930000Y-77364598D01*
X83815000Y-43296701D02*
X88988299Y-48470000D01*
X101299902Y-80734500D02*
X101688810Y-80734500D01*
X97930000Y-77364598D02*
X101299902Y-80734500D01*
X101688810Y-80734500D02*
X102274310Y-81320000D01*
G04 #@! TO.N,/Serial Connector 7/CTS*
X81275000Y-46223000D02*
X81275000Y-42475000D01*
X92418500Y-72488788D02*
X92418500Y-57366500D01*
X92418500Y-57366500D02*
X81275000Y-46223000D01*
X105355000Y-82320000D02*
X102249712Y-82320000D01*
X102249712Y-82320000D02*
X92418500Y-72488788D01*
G04 #@! TO.N,/Serial Connector 7/DTR*
X103131062Y-73921062D02*
X103131062Y-52062938D01*
X114530000Y-90629315D02*
X115239016Y-89920299D01*
X115239016Y-89920299D02*
X116082299Y-89920299D01*
X114530000Y-91495000D02*
X114530000Y-90629315D01*
X88895000Y-43296701D02*
X92068298Y-46469999D01*
X111252000Y-78994000D02*
X108204000Y-78994000D01*
X92068298Y-46469999D02*
X97538123Y-46469999D01*
X108204000Y-78994000D02*
X103131062Y-73921062D01*
X97538123Y-46469999D02*
X103131062Y-52062938D01*
G04 #@! TO.N,/Serial Connector 7/RTS*
X91702598Y-72644000D02*
X91694000Y-72644000D01*
X105355000Y-82820000D02*
X101878598Y-82820000D01*
X101878598Y-82820000D02*
X91702598Y-72644000D01*
G04 #@! TO.N,/Serial Connector 0/RXD*
X116030000Y-96726000D02*
X117094000Y-97790000D01*
X71120000Y-52070000D02*
X69400499Y-53789501D01*
X69400499Y-67241499D02*
X70879000Y-68720000D01*
X70879000Y-68720000D02*
X72680000Y-68720000D01*
X69400499Y-53789501D02*
X69400499Y-67241499D01*
X116030000Y-91495000D02*
X116030000Y-96726000D01*
G04 #@! TO.N,/Serial Connector 0/TXD*
X73850000Y-67310000D02*
X74676000Y-68136000D01*
X69850000Y-55880000D02*
X69850000Y-66548000D01*
X74676000Y-68136000D02*
X74676000Y-71374000D01*
X107188000Y-99568000D02*
X99568000Y-91948000D01*
X115530000Y-96052000D02*
X113792000Y-97790000D01*
X115530000Y-91495000D02*
X115530000Y-96052000D01*
X113792000Y-97790000D02*
X110236000Y-97790000D01*
X74676000Y-71374000D02*
X76822000Y-73520000D01*
X76822000Y-73520000D02*
X77680000Y-73520000D01*
X108458000Y-99568000D02*
X107188000Y-99568000D01*
X71120000Y-54610000D02*
X69850000Y-55880000D01*
X69850000Y-66548000D02*
X70612000Y-67310000D01*
X70612000Y-67310000D02*
X73850000Y-67310000D01*
X110236000Y-97790000D02*
X108458000Y-99568000D01*
G04 #@! TO.N,/Serial Connector 0/CTS*
X116530000Y-91495000D02*
X116530000Y-95947402D01*
X116530000Y-95947402D02*
X117352299Y-96769701D01*
G04 #@! TO.N,/Serial Connector 0/DTR*
X117530000Y-90316629D02*
X117358196Y-90144825D01*
X117530000Y-91495000D02*
X117530000Y-90316629D01*
G04 #@! TO.N,/Serial Connector 0/RTS*
X75438000Y-48006000D02*
X74422000Y-46990000D01*
X75438000Y-52832000D02*
X75438000Y-48006000D01*
X117339402Y-95749402D02*
X117356598Y-95749402D01*
X117030000Y-95440000D02*
X117339402Y-95749402D01*
X74422000Y-46990000D02*
X71120000Y-46990000D01*
X117030000Y-91495000D02*
X117030000Y-95440000D01*
G04 #@! TO.N,/Serial Connector 1/RXD*
X105355000Y-77669000D02*
X104394000Y-76708000D01*
X104394000Y-76708000D02*
X101346000Y-76708000D01*
X96774000Y-82296000D02*
X85090000Y-93980000D01*
X101346000Y-76708000D02*
X100330000Y-77724000D01*
X71530002Y-94120000D02*
X69455002Y-96195000D01*
X69455002Y-96195000D02*
X69455002Y-108825002D01*
X72680000Y-94120000D02*
X71530002Y-94120000D01*
X105355000Y-77820000D02*
X105355000Y-77669000D01*
X69455002Y-108825002D02*
X71120000Y-110490000D01*
G04 #@! TO.N,/Serial Connector 1/TXD*
X95758000Y-81534000D02*
X78372000Y-98920000D01*
X107030000Y-75534000D02*
X106172000Y-74676000D01*
X77680000Y-107291701D02*
X71941701Y-113030000D01*
X77680000Y-98920000D02*
X77680000Y-107291701D01*
G04 #@! TO.N,/Serial Connector 1/CTS*
X108030000Y-76145000D02*
X108030000Y-73232000D01*
X108030000Y-73232000D02*
X104394000Y-69596000D01*
X76200000Y-94234000D02*
X75103667Y-95330333D01*
X79248000Y-94234000D02*
X76200000Y-94234000D01*
X94234000Y-79248000D02*
X79248000Y-94234000D01*
X75103667Y-95330333D02*
X75103667Y-108674500D01*
G04 #@! TO.N,/Serial Connector 1/DTR*
X84074000Y-96520000D02*
X82296000Y-96520000D01*
X82296000Y-96520000D02*
X78994000Y-99822000D01*
X101790000Y-79820000D02*
X101600000Y-80010000D01*
X78994000Y-99822000D02*
X78994000Y-107950000D01*
X97282000Y-83312000D02*
X84074000Y-96520000D01*
X105355000Y-79820000D02*
X101790000Y-79820000D01*
G04 #@! TO.N,/Serial Connector 1/RTS*
X94473876Y-80518000D02*
X76454000Y-98537876D01*
X94996000Y-80518000D02*
X94473876Y-80518000D01*
X107530000Y-74256000D02*
X104394000Y-71120000D01*
X76454000Y-98537876D02*
X76454000Y-105410000D01*
X107530000Y-76145000D02*
X107530000Y-74256000D01*
G04 #@! TO.N,/Serial Connector 2/RXD*
X95195000Y-126905000D02*
X82455000Y-126905000D01*
X82455000Y-126905000D02*
X81280000Y-125730000D01*
X102442000Y-88820000D02*
X101346000Y-89916000D01*
X97930000Y-124170000D02*
X95195000Y-126905000D01*
X105355000Y-88820000D02*
X102442000Y-88820000D01*
G04 #@! TO.N,/Serial Connector 2/TXD*
X89558299Y-119170000D02*
X102730000Y-119170000D01*
X83820000Y-124908299D02*
X89558299Y-119170000D01*
X101164000Y-88320000D02*
X101092000Y-88392000D01*
X105355000Y-88320000D02*
X101164000Y-88320000D01*
G04 #@! TO.N,/Serial Connector 2/CTS*
X107530000Y-95558692D02*
X107304722Y-95783970D01*
X107530000Y-91495000D02*
X107530000Y-95558692D01*
G04 #@! TO.N,/Serial Connector 2/DTR*
X115030000Y-91495000D02*
X115030000Y-94957994D01*
X115030000Y-94957994D02*
X114133698Y-95854296D01*
G04 #@! TO.N,/Serial Connector 2/RTS*
X108030000Y-96186000D02*
X107442000Y-96774000D01*
X108030000Y-91495000D02*
X108030000Y-96186000D01*
G04 #@! TO.N,/Serial Connector 3/RXD*
X124642000Y-88320000D02*
X128188823Y-91866823D01*
X127980000Y-124170000D02*
X123330000Y-124170000D01*
X138525000Y-126905000D02*
X130715000Y-126905000D01*
X128188823Y-91866823D02*
X128188823Y-93907421D01*
X130715000Y-126905000D02*
X127980000Y-124170000D01*
X139700000Y-125730000D02*
X138525000Y-126905000D01*
X120705000Y-88320000D02*
X124642000Y-88320000D01*
G04 #@! TO.N,/Serial Connector 3/TXD*
X123863401Y-88820000D02*
X127254000Y-92210599D01*
X120705000Y-88820000D02*
X123863401Y-88820000D01*
X127254000Y-92210599D02*
X127254000Y-94488000D01*
X128130000Y-119170000D02*
X131642000Y-122682000D01*
X127254000Y-94488000D02*
X127508000Y-94742000D01*
X140013701Y-122682000D02*
X142240000Y-124908299D01*
X131642000Y-122682000D02*
X140013701Y-122682000D01*
X127508000Y-94742000D02*
X127762000Y-94996000D01*
G04 #@! TO.N,/Serial Connector 3/CTS*
X107030000Y-94900000D02*
X106426000Y-95504000D01*
X106426000Y-97573500D02*
X107696000Y-98843500D01*
X107030000Y-91495000D02*
X107030000Y-94900000D01*
X106426000Y-95504000D02*
X106426000Y-97573500D01*
G04 #@! TO.N,/Serial Connector 3/DTR*
X119388000Y-83320000D02*
X119380000Y-83312000D01*
X120705000Y-83320000D02*
X119388000Y-83320000D01*
G04 #@! TO.N,/Serial Connector 3/RTS*
X108530000Y-98240410D02*
X108508716Y-98261694D01*
X108530000Y-91495000D02*
X108530000Y-98240410D01*
G04 #@! TO.N,Net-(R2-Pad2)*
X99187000Y-89131000D02*
X97917000Y-89131000D01*
X98439000Y-89879000D02*
X98439000Y-91334000D01*
X97917000Y-89357000D02*
X98439000Y-89879000D01*
X97917000Y-89131000D02*
X97917000Y-89357000D01*
X99187000Y-89131000D02*
X98439000Y-89879000D01*
G04 #@! TO.N,Net-(R4-Pad2)*
X93726000Y-101069000D02*
X94996000Y-101069000D01*
X94248000Y-101591000D02*
X93726000Y-101069000D01*
X94248000Y-103272000D02*
X94248000Y-101591000D01*
X94996000Y-101069000D02*
X94770000Y-101069000D01*
X94770000Y-101069000D02*
X94248000Y-101591000D01*
G04 #@! TO.N,Net-(R6-Pad2)*
X102616000Y-101069000D02*
X101092000Y-101069000D01*
X101868000Y-101817000D02*
X102616000Y-101069000D01*
X101868000Y-103272000D02*
X101868000Y-101817000D01*
X101120000Y-101069000D02*
X101868000Y-101817000D01*
G04 #@! TO.N,/ACT*
X108292810Y-79718500D02*
X115861500Y-79718500D01*
X106522282Y-79361479D02*
X107935789Y-79361479D01*
X105355000Y-79320000D02*
X106480803Y-79320000D01*
X136652000Y-76200000D02*
X150342500Y-76200000D01*
X115861500Y-79718500D02*
X116078000Y-79502000D01*
X106480803Y-79320000D02*
X106522282Y-79361479D01*
X107935789Y-79361479D02*
X108292810Y-79718500D01*
G04 #@! TO.N,/TEST*
X124435000Y-80820000D02*
X124991000Y-80264000D01*
X120705000Y-80820000D02*
X124435000Y-80820000D01*
G04 #@! TO.N,/CFG*
X116332000Y-70589000D02*
X116332000Y-73914000D01*
X116030000Y-74216000D02*
X116030000Y-76145000D01*
X116332000Y-73914000D02*
X116030000Y-74216000D01*
G04 #@! TO.N,/RX_S*
X119839315Y-89320000D02*
X119380000Y-88860685D01*
X117856000Y-86868000D02*
X116586000Y-86868000D01*
X113538000Y-83820000D02*
X111006599Y-83820000D01*
X116586000Y-86868000D02*
X113538000Y-83820000D01*
X120705000Y-89320000D02*
X119839315Y-89320000D01*
X82848811Y-77528499D02*
X95562499Y-77528499D01*
X73383000Y-80010000D02*
X80367310Y-80010000D01*
X80367310Y-80010000D02*
X82848811Y-77528499D01*
X95562499Y-77528499D02*
X100584000Y-82550000D01*
X119380000Y-88392000D02*
X117856000Y-86868000D01*
X111006599Y-83820000D02*
X110601620Y-83415021D01*
X119380000Y-88860685D02*
X119380000Y-88392000D01*
G04 #@! TO.N,/TX_S*
X116840000Y-87376000D02*
X119284000Y-89820000D01*
X94488000Y-78232000D02*
X82781000Y-78232000D01*
X115824000Y-87376000D02*
X113030000Y-84582000D01*
X120705000Y-89820000D02*
X119284000Y-89820000D01*
X99568000Y-83312000D02*
X94488000Y-78232000D01*
X113030000Y-84582000D02*
X111252000Y-84582000D01*
X82781000Y-78232000D02*
X73383000Y-87630000D01*
X111252000Y-84582000D02*
X110998000Y-84836000D01*
X116840000Y-87376000D02*
X115824000Y-87376000D01*
G04 #@! TD*
M02*
