G04 #@! TF.GenerationSoftware,KiCad,Pcbnew,6.0.9-8da3e8f707~117~ubuntu22.04.1*
G04 #@! TF.CreationDate,2022-12-03T17:44:34-08:00*
G04 #@! TF.ProjectId,ch348_octo_serial,63683334-385f-46f6-9374-6f5f73657269,rev?*
G04 #@! TF.SameCoordinates,Original*
G04 #@! TF.FileFunction,Soldermask,Top*
G04 #@! TF.FilePolarity,Negative*
%FSLAX46Y46*%
G04 Gerber Fmt 4.6, Leading zero omitted, Abs format (unit mm)*
G04 Created by KiCad (PCBNEW 6.0.9-8da3e8f707~117~ubuntu22.04.1) date 2022-12-03 17:44:34*
%MOMM*%
%LPD*%
G01*
G04 APERTURE LIST*
G04 Aperture macros list*
%AMRoundRect*
0 Rectangle with rounded corners*
0 $1 Rounding radius*
0 $2 $3 $4 $5 $6 $7 $8 $9 X,Y pos of 4 corners*
0 Add a 4 corners polygon primitive as box body*
4,1,4,$2,$3,$4,$5,$6,$7,$8,$9,$2,$3,0*
0 Add four circle primitives for the rounded corners*
1,1,$1+$1,$2,$3*
1,1,$1+$1,$4,$5*
1,1,$1+$1,$6,$7*
1,1,$1+$1,$8,$9*
0 Add four rect primitives between the rounded corners*
20,1,$1+$1,$2,$3,$4,$5,0*
20,1,$1+$1,$4,$5,$6,$7,0*
20,1,$1+$1,$6,$7,$8,$9,0*
20,1,$1+$1,$8,$9,$2,$3,0*%
G04 Aperture macros list end*
%ADD10RoundRect,0.218750X-0.218750X-0.256250X0.218750X-0.256250X0.218750X0.256250X-0.218750X0.256250X0*%
%ADD11R,0.950000X2.150000*%
%ADD12R,3.250000X2.150000*%
%ADD13R,1.700000X3.400000*%
%ADD14O,1.700000X3.400000*%
%ADD15RoundRect,0.147500X-0.172500X0.147500X-0.172500X-0.147500X0.172500X-0.147500X0.172500X0.147500X0*%
%ADD16R,1.700000X1.700000*%
%ADD17O,1.700000X1.700000*%
%ADD18R,3.400000X1.700000*%
%ADD19O,3.400000X1.700000*%
%ADD20C,1.250000*%
%ADD21O,1.799996X1.199896*%
%ADD22RoundRect,0.218750X0.256250X-0.218750X0.256250X0.218750X-0.256250X0.218750X-0.256250X-0.218750X0*%
%ADD23RoundRect,0.147500X0.172500X-0.147500X0.172500X0.147500X-0.172500X0.147500X-0.172500X-0.147500X0*%
%ADD24RoundRect,0.147500X0.147500X0.172500X-0.147500X0.172500X-0.147500X-0.172500X0.147500X-0.172500X0*%
%ADD25C,5.600000*%
%ADD26RoundRect,0.218750X-0.256250X0.218750X-0.256250X-0.218750X0.256250X-0.218750X0.256250X0.218750X0*%
%ADD27RoundRect,0.147500X-0.147500X-0.172500X0.147500X-0.172500X0.147500X0.172500X-0.147500X0.172500X0*%
%ADD28O,1.199896X1.799996*%
%ADD29RoundRect,0.243750X-0.456250X0.243750X-0.456250X-0.243750X0.456250X-0.243750X0.456250X0.243750X0*%
%ADD30RoundRect,0.218750X0.218750X0.256250X-0.218750X0.256250X-0.218750X-0.256250X0.218750X-0.256250X0*%
%ADD31R,2.000000X4.500000*%
%ADD32RoundRect,0.243750X0.243750X0.456250X-0.243750X0.456250X-0.243750X-0.456250X0.243750X-0.456250X0*%
%ADD33RoundRect,0.350000X0.350000X-0.350000X0.350000X0.350000X-0.350000X0.350000X-0.350000X-0.350000X0*%
%ADD34C,1.400000*%
%ADD35C,0.650000*%
%ADD36R,1.750000X0.300000*%
%ADD37O,2.100000X1.000000*%
%ADD38O,2.100000X0.900000*%
%ADD39RoundRect,0.075000X-0.075000X0.725000X-0.075000X-0.725000X0.075000X-0.725000X0.075000X0.725000X0*%
%ADD40RoundRect,0.075000X-0.725000X0.075000X-0.725000X-0.075000X0.725000X-0.075000X0.725000X0.075000X0*%
G04 APERTURE END LIST*
D10*
G04 #@! TO.C,C18*
X152374500Y-102362000D03*
X153949500Y-102362000D03*
G04 #@! TD*
D11*
G04 #@! TO.C,VR1*
X98439000Y-91334000D03*
X96139000Y-91334000D03*
X93839000Y-91334000D03*
D12*
X96139000Y-97134000D03*
G04 #@! TD*
D13*
G04 #@! TO.C,J12*
X134615000Y-43325000D03*
D14*
X137155000Y-43325000D03*
X139695000Y-43325000D03*
X142235000Y-43325000D03*
X144775000Y-43325000D03*
X147315000Y-43325000D03*
X149855000Y-43325000D03*
G04 #@! TD*
D15*
G04 #@! TO.C,C9*
X116840000Y-57935000D03*
X116840000Y-58905000D03*
G04 #@! TD*
D16*
G04 #@! TO.C,J6*
X112776000Y-103383000D03*
D17*
X112776000Y-100843000D03*
G04 #@! TD*
D18*
G04 #@! TO.C,J16*
X71970000Y-62230000D03*
D19*
X71970000Y-59690000D03*
X71970000Y-57150000D03*
X71970000Y-54610000D03*
X71970000Y-52070000D03*
X71970000Y-49530000D03*
X71970000Y-46990000D03*
G04 #@! TD*
D10*
G04 #@! TO.C,D4*
X69570500Y-87630000D03*
X71145500Y-87630000D03*
G04 #@! TD*
D20*
G04 #@! TO.C,J15*
X70680000Y-71120000D03*
X76680000Y-71120000D03*
D21*
X72680000Y-68720000D03*
X70680000Y-73520000D03*
X77680000Y-73520000D03*
G04 #@! TD*
D22*
G04 #@! TO.C,C25*
X153924000Y-125755500D03*
X153924000Y-124180500D03*
G04 #@! TD*
D23*
G04 #@! TO.C,C7*
X112776000Y-70589000D03*
X112776000Y-69619000D03*
G04 #@! TD*
D24*
G04 #@! TO.C,R12*
X125961000Y-80264000D03*
X124991000Y-80264000D03*
G04 #@! TD*
D10*
G04 #@! TO.C,C1*
X93700500Y-89027000D03*
X95275500Y-89027000D03*
G04 #@! TD*
D18*
G04 #@! TO.C,J8*
X154090000Y-105410000D03*
D19*
X154090000Y-107950000D03*
X154090000Y-110490000D03*
X154090000Y-113030000D03*
X154090000Y-115570000D03*
X154090000Y-118110000D03*
X154090000Y-120650000D03*
G04 #@! TD*
D23*
G04 #@! TO.C,R3*
X99187000Y-89131000D03*
X99187000Y-88161000D03*
G04 #@! TD*
G04 #@! TO.C,R5*
X94996000Y-101069000D03*
X94996000Y-100099000D03*
G04 #@! TD*
G04 #@! TO.C,R7*
X102616000Y-101069000D03*
X102616000Y-100099000D03*
G04 #@! TD*
D15*
G04 #@! TO.C,R13*
X116332000Y-69619000D03*
X116332000Y-70589000D03*
G04 #@! TD*
D24*
G04 #@! TO.C,C13*
X103101000Y-78740000D03*
X102131000Y-78740000D03*
G04 #@! TD*
D25*
G04 #@! TO.C,J2*
X140320000Y-56530000D03*
G04 #@! TD*
D26*
G04 #@! TO.C,C21*
X73152000Y-42392500D03*
X73152000Y-43967500D03*
G04 #@! TD*
D15*
G04 #@! TO.C,R10*
X111760000Y-69619000D03*
X111760000Y-70589000D03*
G04 #@! TD*
D24*
G04 #@! TO.C,C17*
X105133000Y-91948000D03*
X104163000Y-91948000D03*
G04 #@! TD*
D18*
G04 #@! TO.C,J10*
X154090000Y-46990000D03*
D19*
X154090000Y-49530000D03*
X154090000Y-52070000D03*
X154090000Y-54610000D03*
X154090000Y-57150000D03*
X154090000Y-59690000D03*
X154090000Y-62230000D03*
G04 #@! TD*
D27*
G04 #@! TO.C,C10*
X121435000Y-76200000D03*
X122405000Y-76200000D03*
G04 #@! TD*
D20*
G04 #@! TO.C,J9*
X155380000Y-71120000D03*
X149380000Y-71120000D03*
D21*
X153380000Y-73520000D03*
X155380000Y-68720000D03*
X148380000Y-68720000D03*
G04 #@! TD*
D20*
G04 #@! TO.C,J21*
X125730000Y-126170000D03*
X125730000Y-120170000D03*
D28*
X123330000Y-124170000D03*
X128130000Y-126170000D03*
X128130000Y-119170000D03*
G04 #@! TD*
D15*
G04 #@! TO.C,R4*
X93726000Y-100099000D03*
X93726000Y-101069000D03*
G04 #@! TD*
D24*
G04 #@! TO.C,R11*
X155425000Y-76200000D03*
X154455000Y-76200000D03*
G04 #@! TD*
D25*
G04 #@! TO.C,J3*
X85740000Y-56530000D03*
G04 #@! TD*
D26*
G04 #@! TO.C,C24*
X94234000Y-123418500D03*
X94234000Y-124993500D03*
G04 #@! TD*
D18*
G04 #@! TO.C,J18*
X71970000Y-120650000D03*
D19*
X71970000Y-118110000D03*
X71970000Y-115570000D03*
X71970000Y-113030000D03*
X71970000Y-110490000D03*
X71970000Y-107950000D03*
X71970000Y-105410000D03*
G04 #@! TD*
D23*
G04 #@! TO.C,C8*
X116840000Y-64470000D03*
X116840000Y-63500000D03*
G04 #@! TD*
D29*
G04 #@! TO.C,C5*
X91948000Y-111330500D03*
X91948000Y-113205500D03*
G04 #@! TD*
D10*
G04 #@! TO.C,D3*
X69570500Y-80010000D03*
X71145500Y-80010000D03*
G04 #@! TD*
D29*
G04 #@! TO.C,C6*
X99568000Y-111330500D03*
X99568000Y-113205500D03*
G04 #@! TD*
D30*
G04 #@! TO.C,D1*
X151917500Y-91440000D03*
X150342500Y-91440000D03*
G04 #@! TD*
D23*
G04 #@! TO.C,C11*
X114808000Y-73637000D03*
X114808000Y-72667000D03*
G04 #@! TD*
D27*
G04 #@! TO.C,R8*
X154455000Y-90170000D03*
X155425000Y-90170000D03*
G04 #@! TD*
D22*
G04 #@! TO.C,C2*
X89408000Y-100863500D03*
X89408000Y-99288500D03*
G04 #@! TD*
D10*
G04 #@! TO.C,D2*
X150342500Y-76200000D03*
X151917500Y-76200000D03*
G04 #@! TD*
D24*
G04 #@! TO.C,R14*
X73383000Y-80010000D03*
X72413000Y-80010000D03*
G04 #@! TD*
G04 #@! TO.C,R15*
X73383000Y-87630000D03*
X72413000Y-87630000D03*
G04 #@! TD*
D20*
G04 #@! TO.C,J11*
X125730000Y-47470000D03*
X125730000Y-41470000D03*
D28*
X128130000Y-43470000D03*
X123330000Y-41470000D03*
X123330000Y-48470000D03*
G04 #@! TD*
D29*
G04 #@! TO.C,C16*
X114046000Y-106123500D03*
X114046000Y-107998500D03*
G04 #@! TD*
D31*
G04 #@! TO.C,X1*
X113030000Y-65210000D03*
X113030000Y-56710000D03*
G04 #@! TD*
D24*
G04 #@! TO.C,R9*
X155425000Y-77470000D03*
X154455000Y-77470000D03*
G04 #@! TD*
D30*
G04 #@! TO.C,C22*
X72288500Y-65024000D03*
X70713500Y-65024000D03*
G04 #@! TD*
D13*
G04 #@! TO.C,J14*
X76195000Y-43325000D03*
D14*
X78735000Y-43325000D03*
X81275000Y-43325000D03*
X83815000Y-43325000D03*
X86355000Y-43325000D03*
X88895000Y-43325000D03*
X91435000Y-43325000D03*
G04 #@! TD*
D32*
G04 #@! TO.C,C4*
X93139500Y-97536000D03*
X91264500Y-97536000D03*
G04 #@! TD*
D30*
G04 #@! TO.C,C19*
X155219500Y-43180000D03*
X153644500Y-43180000D03*
G04 #@! TD*
D33*
G04 #@! TO.C,SW1*
X114287500Y-124380000D03*
D34*
X114287500Y-122380000D03*
X114287500Y-118380000D03*
X114287500Y-116380000D03*
X114287500Y-114380000D03*
X110987500Y-124380000D03*
X110987500Y-122380000D03*
X110987500Y-118380000D03*
X110987500Y-116380000D03*
X110987500Y-114380000D03*
G04 #@! TD*
D20*
G04 #@! TO.C,J19*
X100330000Y-126170000D03*
X100330000Y-120170000D03*
D28*
X97930000Y-124170000D03*
X102730000Y-126170000D03*
X102730000Y-119170000D03*
G04 #@! TD*
D13*
G04 #@! TO.C,J22*
X149860000Y-124880000D03*
D14*
X147320000Y-124880000D03*
X144780000Y-124880000D03*
X142240000Y-124880000D03*
X139700000Y-124880000D03*
X137160000Y-124880000D03*
X134620000Y-124880000D03*
G04 #@! TD*
D27*
G04 #@! TO.C,R1*
X148105000Y-91440000D03*
X149075000Y-91440000D03*
G04 #@! TD*
D35*
G04 #@! TO.C,J1*
X151860000Y-86710000D03*
X151860000Y-80930000D03*
D36*
X150520000Y-87170000D03*
X150520000Y-86370000D03*
X150520000Y-85070000D03*
X150520000Y-84070000D03*
X150520000Y-83570000D03*
X150520000Y-82570000D03*
X150520000Y-81270000D03*
X150520000Y-80470000D03*
X150520000Y-80770000D03*
X150520000Y-81570000D03*
X150520000Y-82070000D03*
X150520000Y-83070000D03*
X150520000Y-84570000D03*
X150520000Y-85570000D03*
X150520000Y-86070000D03*
X150520000Y-86870000D03*
D37*
X155540000Y-79500000D03*
X155540000Y-88140000D03*
D38*
X151360000Y-88140000D03*
X151360000Y-79500000D03*
G04 #@! TD*
D39*
G04 #@! TO.C,U1*
X119030000Y-76145000D03*
X118530000Y-76145000D03*
X118030000Y-76145000D03*
X117530000Y-76145000D03*
X117030000Y-76145000D03*
X116530000Y-76145000D03*
X116030000Y-76145000D03*
X115530000Y-76145000D03*
X115030000Y-76145000D03*
X114530000Y-76145000D03*
X114030000Y-76145000D03*
X113530000Y-76145000D03*
X113030000Y-76145000D03*
X112530000Y-76145000D03*
X112030000Y-76145000D03*
X111530000Y-76145000D03*
X111030000Y-76145000D03*
X110530000Y-76145000D03*
X110030000Y-76145000D03*
X109530000Y-76145000D03*
X109030000Y-76145000D03*
X108530000Y-76145000D03*
X108030000Y-76145000D03*
X107530000Y-76145000D03*
X107030000Y-76145000D03*
D40*
X105355000Y-77820000D03*
X105355000Y-78320000D03*
X105355000Y-78820000D03*
X105355000Y-79320000D03*
X105355000Y-79820000D03*
X105355000Y-80320000D03*
X105355000Y-80820000D03*
X105355000Y-81320000D03*
X105355000Y-81820000D03*
X105355000Y-82320000D03*
X105355000Y-82820000D03*
X105355000Y-83320000D03*
X105355000Y-83820000D03*
X105355000Y-84320000D03*
X105355000Y-84820000D03*
X105355000Y-85320000D03*
X105355000Y-85820000D03*
X105355000Y-86320000D03*
X105355000Y-86820000D03*
X105355000Y-87320000D03*
X105355000Y-87820000D03*
X105355000Y-88320000D03*
X105355000Y-88820000D03*
X105355000Y-89320000D03*
X105355000Y-89820000D03*
D39*
X107030000Y-91495000D03*
X107530000Y-91495000D03*
X108030000Y-91495000D03*
X108530000Y-91495000D03*
X109030000Y-91495000D03*
X109530000Y-91495000D03*
X110030000Y-91495000D03*
X110530000Y-91495000D03*
X111030000Y-91495000D03*
X111530000Y-91495000D03*
X112030000Y-91495000D03*
X112530000Y-91495000D03*
X113030000Y-91495000D03*
X113530000Y-91495000D03*
X114030000Y-91495000D03*
X114530000Y-91495000D03*
X115030000Y-91495000D03*
X115530000Y-91495000D03*
X116030000Y-91495000D03*
X116530000Y-91495000D03*
X117030000Y-91495000D03*
X117530000Y-91495000D03*
X118030000Y-91495000D03*
X118530000Y-91495000D03*
X119030000Y-91495000D03*
D40*
X120705000Y-89820000D03*
X120705000Y-89320000D03*
X120705000Y-88820000D03*
X120705000Y-88320000D03*
X120705000Y-87820000D03*
X120705000Y-87320000D03*
X120705000Y-86820000D03*
X120705000Y-86320000D03*
X120705000Y-85820000D03*
X120705000Y-85320000D03*
X120705000Y-84820000D03*
X120705000Y-84320000D03*
X120705000Y-83820000D03*
X120705000Y-83320000D03*
X120705000Y-82820000D03*
X120705000Y-82320000D03*
X120705000Y-81820000D03*
X120705000Y-81320000D03*
X120705000Y-80820000D03*
X120705000Y-80320000D03*
X120705000Y-79820000D03*
X120705000Y-79320000D03*
X120705000Y-78820000D03*
X120705000Y-78320000D03*
X120705000Y-77820000D03*
G04 #@! TD*
D25*
G04 #@! TO.C,J4*
X140320000Y-111110000D03*
G04 #@! TD*
D27*
G04 #@! TO.C,C15*
X120419000Y-91948000D03*
X121389000Y-91948000D03*
G04 #@! TD*
D10*
G04 #@! TO.C,C23*
X70967500Y-124460000D03*
X72542500Y-124460000D03*
G04 #@! TD*
D23*
G04 #@! TO.C,C14*
X109728000Y-70589000D03*
X109728000Y-69619000D03*
G04 #@! TD*
G04 #@! TO.C,C12*
X108712000Y-70589000D03*
X108712000Y-69619000D03*
G04 #@! TD*
D15*
G04 #@! TO.C,R2*
X97917000Y-88161000D03*
X97917000Y-89131000D03*
G04 #@! TD*
D22*
G04 #@! TO.C,C3*
X97028000Y-100863500D03*
X97028000Y-99288500D03*
G04 #@! TD*
D24*
G04 #@! TO.C,R16*
X108943000Y-118364000D03*
X107973000Y-118364000D03*
G04 #@! TD*
D30*
G04 #@! TO.C,C20*
X131597500Y-44958000D03*
X130022500Y-44958000D03*
G04 #@! TD*
D25*
G04 #@! TO.C,J5*
X85740000Y-111110000D03*
G04 #@! TD*
D11*
G04 #@! TO.C,VR3*
X101868000Y-103272000D03*
X99568000Y-103272000D03*
X97268000Y-103272000D03*
D12*
X99568000Y-109072000D03*
G04 #@! TD*
D13*
G04 #@! TO.C,J20*
X91440000Y-124880000D03*
D14*
X88900000Y-124880000D03*
X86360000Y-124880000D03*
X83820000Y-124880000D03*
X81280000Y-124880000D03*
X78740000Y-124880000D03*
X76200000Y-124880000D03*
G04 #@! TD*
D15*
G04 #@! TO.C,R6*
X101092000Y-100099000D03*
X101092000Y-101069000D03*
G04 #@! TD*
D20*
G04 #@! TO.C,J17*
X76680000Y-96520000D03*
X70680000Y-96520000D03*
D21*
X72680000Y-94120000D03*
X70680000Y-98920000D03*
X77680000Y-98920000D03*
G04 #@! TD*
D11*
G04 #@! TO.C,VR2*
X94248000Y-103272000D03*
X91948000Y-103272000D03*
X89648000Y-103272000D03*
D12*
X91948000Y-109072000D03*
G04 #@! TD*
D20*
G04 #@! TO.C,J13*
X100330000Y-41470000D03*
X100330000Y-47470000D03*
D28*
X102730000Y-43470000D03*
X97930000Y-41470000D03*
X97930000Y-48470000D03*
G04 #@! TD*
D20*
G04 #@! TO.C,J7*
X155380000Y-96520000D03*
X149380000Y-96520000D03*
D21*
X153380000Y-98920000D03*
X155380000Y-94120000D03*
X148380000Y-94120000D03*
G04 #@! TD*
M02*
