G04 #@! TF.GenerationSoftware,KiCad,Pcbnew,6.0.10-86aedd382b~118~ubuntu22.04.1*
G04 #@! TF.CreationDate,2023-01-25T08:31:52-08:00*
G04 #@! TF.ProjectId,covid-dude,636f7669-642d-4647-9564-652e6b696361,rev?*
G04 #@! TF.SameCoordinates,Original*
G04 #@! TF.FileFunction,Profile,NP*
%FSLAX46Y46*%
G04 Gerber Fmt 4.6, Leading zero omitted, Abs format (unit mm)*
G04 Created by KiCad (PCBNEW 6.0.10-86aedd382b~118~ubuntu22.04.1) date 2023-01-25 08:31:52*
%MOMM*%
%LPD*%
G01*
G04 APERTURE LIST*
G04 #@! TA.AperFunction,Profile*
%ADD10C,0.100000*%
G04 #@! TD*
G04 APERTURE END LIST*
G04 #@! TO.C,G\u002A\u002A\u002A*
D10*
X108372391Y-65469981D02*
X108807708Y-65495749D01*
X108966369Y-65513191D01*
X109206942Y-65543117D01*
X109507998Y-65578730D01*
X109817499Y-65613922D01*
X109928062Y-65626084D01*
X110208969Y-65661834D01*
X110483881Y-65705670D01*
X110709485Y-65750351D01*
X110785321Y-65769348D01*
X110985842Y-65817043D01*
X111168325Y-65846500D01*
X111237882Y-65851100D01*
X111378629Y-65868443D01*
X111576654Y-65913335D01*
X111738307Y-65960272D01*
X111987036Y-66039691D01*
X112268581Y-66128732D01*
X112445434Y-66184196D01*
X112757065Y-66284952D01*
X113084089Y-66396658D01*
X113401975Y-66510331D01*
X113686194Y-66616990D01*
X113912216Y-66707654D01*
X114055511Y-66773340D01*
X114057683Y-66774510D01*
X114194932Y-66837901D01*
X114296948Y-66866620D01*
X114301032Y-66866764D01*
X114384249Y-66891569D01*
X114536404Y-66956772D01*
X114726899Y-67049101D01*
X114757270Y-67064667D01*
X114946245Y-67159351D01*
X115096472Y-67229273D01*
X115179806Y-67261442D01*
X115185363Y-67262222D01*
X115253628Y-67289592D01*
X115388208Y-67361238D01*
X115554449Y-67458358D01*
X115772793Y-67584183D01*
X116037260Y-67727375D01*
X116291502Y-67857445D01*
X116297261Y-67860275D01*
X116556830Y-68001013D01*
X116843974Y-68177004D01*
X117099064Y-68351581D01*
X117112472Y-68361527D01*
X117315905Y-68508812D01*
X117506302Y-68638898D01*
X117650201Y-68729134D01*
X117678173Y-68744469D01*
X117889449Y-68889706D01*
X118071490Y-69101283D01*
X118233029Y-69378889D01*
X118377672Y-69750399D01*
X118422939Y-70114312D01*
X118383294Y-70462896D01*
X118277638Y-70834053D01*
X118134250Y-71120224D01*
X117963294Y-71305949D01*
X117820137Y-71410889D01*
X118003721Y-71531040D01*
X118423431Y-71806640D01*
X118750445Y-72023382D01*
X118983849Y-72180658D01*
X119120712Y-72276378D01*
X119257256Y-72372860D01*
X119429530Y-72490431D01*
X119488418Y-72529750D01*
X119705296Y-72688980D01*
X119982716Y-72916245D01*
X120304740Y-73196386D01*
X120655430Y-73514249D01*
X121018848Y-73854678D01*
X121379054Y-74202516D01*
X121720111Y-74542607D01*
X122026080Y-74859795D01*
X122281023Y-75138924D01*
X122466707Y-75361855D01*
X122625882Y-75567255D01*
X122807419Y-75799748D01*
X122924855Y-75949161D01*
X123260060Y-76380472D01*
X123547384Y-76766379D01*
X123814578Y-77145433D01*
X124089395Y-77556186D01*
X124163145Y-77669272D01*
X124282639Y-77865587D01*
X124436775Y-78137148D01*
X124615330Y-78464132D01*
X124808080Y-78826713D01*
X125004803Y-79205066D01*
X125195273Y-79579367D01*
X125369267Y-79929791D01*
X125516562Y-80236512D01*
X125626934Y-80479707D01*
X125680374Y-80611334D01*
X125763593Y-80835395D01*
X125859194Y-81087049D01*
X125904428Y-81204000D01*
X125982019Y-81414480D01*
X126049177Y-81616365D01*
X126076961Y-81712000D01*
X126122740Y-81865850D01*
X126193276Y-82079040D01*
X126273028Y-82304667D01*
X126352128Y-82548116D01*
X126416752Y-82796200D01*
X126450917Y-82982000D01*
X126488507Y-83201256D01*
X126543186Y-83414681D01*
X126564344Y-83477031D01*
X126618034Y-83664423D01*
X126644079Y-83843554D01*
X126644543Y-83863455D01*
X126661504Y-84015011D01*
X126705082Y-84218511D01*
X126743541Y-84356202D01*
X126771009Y-84456947D01*
X126792957Y-84571832D01*
X126809969Y-84714047D01*
X126822628Y-84896782D01*
X126831520Y-85133226D01*
X126837228Y-85436568D01*
X126840336Y-85820000D01*
X126841429Y-86296710D01*
X126841406Y-86566222D01*
X126841192Y-87074900D01*
X126840219Y-87486078D01*
X126836976Y-87815143D01*
X126829957Y-88077480D01*
X126817652Y-88288478D01*
X126798553Y-88463522D01*
X126771151Y-88617999D01*
X126733937Y-88767296D01*
X126685404Y-88926798D01*
X126624041Y-89111893D01*
X126578531Y-89247334D01*
X126526916Y-89410519D01*
X126467298Y-89611057D01*
X126450286Y-89670667D01*
X126278214Y-90127284D01*
X126045286Y-90498086D01*
X125755912Y-90777051D01*
X125548592Y-90901975D01*
X125333718Y-91006259D01*
X125720813Y-91209219D01*
X125990689Y-91362272D01*
X126183059Y-91506999D01*
X126327145Y-91672536D01*
X126452170Y-91888018D01*
X126498821Y-91984889D01*
X126582767Y-92195182D01*
X126627606Y-92401697D01*
X126643403Y-92656031D01*
X126643990Y-92729103D01*
X126636784Y-92961333D01*
X126617285Y-93167686D01*
X126589556Y-93306640D01*
X126586673Y-93314745D01*
X126527227Y-93428494D01*
X126414347Y-93609632D01*
X126263230Y-93835800D01*
X126089072Y-94084640D01*
X125907070Y-94333793D01*
X125786447Y-94492158D01*
X125671179Y-94653754D01*
X125572451Y-94812849D01*
X125571580Y-94814427D01*
X125493975Y-94923567D01*
X125347936Y-95099295D01*
X125145393Y-95328734D01*
X124898272Y-95599006D01*
X124618500Y-95897235D01*
X124318006Y-96210543D01*
X124008717Y-96526052D01*
X123717037Y-96816659D01*
X123137193Y-97386873D01*
X123135092Y-98001992D01*
X123121987Y-98701169D01*
X123086940Y-99301599D01*
X123028635Y-99815534D01*
X122945758Y-100255222D01*
X122860007Y-100564445D01*
X122773243Y-100832388D01*
X122688271Y-101095471D01*
X122618596Y-101311851D01*
X122595816Y-101382889D01*
X122490585Y-101671638D01*
X122345564Y-102014670D01*
X122174781Y-102383462D01*
X121992263Y-102749493D01*
X121812039Y-103084239D01*
X121648135Y-103359178D01*
X121561095Y-103486783D01*
X121195095Y-103966875D01*
X120865824Y-104361384D01*
X120557089Y-104684506D01*
X120252699Y-104950434D01*
X119936461Y-105173366D01*
X119592182Y-105367495D01*
X119217947Y-105540930D01*
X118975563Y-105644611D01*
X118754978Y-105739070D01*
X118588455Y-105810486D01*
X118531753Y-105834871D01*
X118439595Y-105891382D01*
X118361666Y-105987086D01*
X118282477Y-106146290D01*
X118201118Y-106353706D01*
X118112699Y-106592036D01*
X118029045Y-106817041D01*
X117965809Y-106986632D01*
X117957011Y-107010138D01*
X117902133Y-107140078D01*
X117809688Y-107342580D01*
X117693226Y-107589495D01*
X117566298Y-107852674D01*
X117442454Y-108103967D01*
X117335243Y-108315226D01*
X117269467Y-108438445D01*
X117222215Y-108529329D01*
X117136789Y-108699469D01*
X117024309Y-108926512D01*
X116895897Y-109188103D01*
X116862310Y-109256889D01*
X116713489Y-109555098D01*
X116558462Y-109854082D01*
X116415003Y-110120233D01*
X116300883Y-110319939D01*
X116295200Y-110329334D01*
X116144444Y-110577746D01*
X115978398Y-110851899D01*
X115856932Y-111052833D01*
X115686302Y-111326831D01*
X115472244Y-111657783D01*
X115236030Y-112013909D01*
X114998934Y-112363431D01*
X114782229Y-112674570D01*
X114634537Y-112878946D01*
X114473700Y-113095825D01*
X114288105Y-113346196D01*
X114132436Y-113556279D01*
X113957333Y-113786166D01*
X113762078Y-114032823D01*
X113604699Y-114224000D01*
X113452052Y-114407378D01*
X113260557Y-114642055D01*
X113060900Y-114890276D01*
X112962418Y-115014222D01*
X112787854Y-115228048D01*
X112579034Y-115470105D01*
X112327036Y-115750110D01*
X112022936Y-116077783D01*
X111657811Y-116462841D01*
X111222739Y-116915001D01*
X111116035Y-117025185D01*
X110934568Y-117212555D01*
X110718022Y-117436394D01*
X110509788Y-117651846D01*
X110486957Y-117675485D01*
X110287142Y-117873182D01*
X110039362Y-118105063D01*
X109783525Y-118334200D01*
X109661701Y-118439041D01*
X109182671Y-118844083D01*
X109145363Y-120160597D01*
X109136796Y-120524971D01*
X109128914Y-120979652D01*
X109121951Y-121502058D01*
X109116138Y-122069608D01*
X109111708Y-122659720D01*
X109108893Y-123249814D01*
X109107925Y-123800378D01*
X109107795Y-126123644D01*
X109602784Y-126157004D01*
X109894121Y-126181137D01*
X110203163Y-126213826D01*
X110468203Y-126248467D01*
X110493764Y-126252385D01*
X110767356Y-126291160D01*
X111078755Y-126329341D01*
X111315830Y-126354261D01*
X111531566Y-126379229D01*
X111707122Y-126408289D01*
X111808418Y-126435659D01*
X111814432Y-126438839D01*
X111896567Y-126462521D01*
X112066338Y-126493814D01*
X112298853Y-126528622D01*
X112565414Y-126562407D01*
X112839626Y-126597838D01*
X113079709Y-126635432D01*
X113259193Y-126670616D01*
X113350064Y-126697960D01*
X113474413Y-126734692D01*
X113647786Y-126753867D01*
X113688075Y-126754667D01*
X113891051Y-126774532D01*
X114082905Y-126823169D01*
X114103671Y-126831284D01*
X114264235Y-126880669D01*
X114479789Y-126925438D01*
X114625128Y-126946375D01*
X114813730Y-126969933D01*
X115004105Y-126999023D01*
X115222628Y-127038440D01*
X115495673Y-127092976D01*
X115849615Y-127167424D01*
X115896213Y-127177375D01*
X116122876Y-127224444D01*
X116335832Y-127266365D01*
X116461915Y-127289342D01*
X116618332Y-127320360D01*
X116819557Y-127369443D01*
X117083727Y-127441421D01*
X117428982Y-127541125D01*
X117621603Y-127598098D01*
X117833371Y-127656673D01*
X118014668Y-127699021D01*
X118127712Y-127716364D01*
X118130735Y-127716417D01*
X118234538Y-127732424D01*
X118413824Y-127774639D01*
X118636218Y-127835175D01*
X118724721Y-127861167D01*
X118984666Y-127934704D01*
X119242668Y-128000370D01*
X119451419Y-128046282D01*
X119488418Y-128052956D01*
X119674454Y-128094472D01*
X119921682Y-128163250D01*
X120185479Y-128246589D01*
X120266152Y-128274276D01*
X120494150Y-128351022D01*
X120688476Y-128410428D01*
X120819803Y-128443791D01*
X120851589Y-128448000D01*
X120964090Y-128470033D01*
X121112652Y-128523400D01*
X121120403Y-128526789D01*
X121407107Y-128642770D01*
X121770133Y-128773033D01*
X122175741Y-128905710D01*
X122345211Y-128957658D01*
X122777623Y-129094025D01*
X123233663Y-129249249D01*
X123692793Y-129415373D01*
X124134472Y-129584437D01*
X124538159Y-129748483D01*
X124883316Y-129899552D01*
X125149402Y-130029684D01*
X125234102Y-130077049D01*
X125407783Y-130165878D01*
X125625893Y-130259065D01*
X125743233Y-130302474D01*
X126155229Y-130464931D01*
X126601230Y-130675375D01*
X127029448Y-130908200D01*
X127273040Y-131058957D01*
X127494446Y-131195034D01*
X127720906Y-131318525D01*
X127904751Y-131403501D01*
X127910475Y-131405705D01*
X128135914Y-131513908D01*
X128414222Y-131680533D01*
X128717125Y-131885327D01*
X129016353Y-132108039D01*
X129283635Y-132328415D01*
X129490699Y-132526203D01*
X129520412Y-132559001D01*
X129732035Y-132883105D01*
X129846248Y-133256500D01*
X129861135Y-133667930D01*
X129780728Y-134086456D01*
X129672650Y-134340353D01*
X129496419Y-134567880D01*
X129431187Y-134632923D01*
X129169959Y-134882667D01*
X98702908Y-134880879D01*
X68235857Y-134879090D01*
X68078010Y-134761625D01*
X67961718Y-134643047D01*
X67837714Y-134468871D01*
X67775079Y-134358488D01*
X67695151Y-134176882D01*
X67649388Y-133996231D01*
X67628811Y-133772061D01*
X67624987Y-133615013D01*
X67647208Y-133236941D01*
X67731852Y-132928063D01*
X67891989Y-132655989D01*
X68107326Y-132419769D01*
X68335152Y-132223615D01*
X68627183Y-132003084D01*
X68948959Y-131781594D01*
X69266023Y-131582566D01*
X69543917Y-131429421D01*
X69612069Y-131397022D01*
X69844727Y-131280262D01*
X70098425Y-131135934D01*
X70244098Y-131044081D01*
X70456552Y-130913056D01*
X70728672Y-130760745D01*
X71031742Y-130601616D01*
X71337048Y-130450139D01*
X71615872Y-130320782D01*
X71839500Y-130228014D01*
X71916371Y-130201475D01*
X72089956Y-130139239D01*
X72309838Y-130048712D01*
X72478619Y-129972628D01*
X72843130Y-129802173D01*
X73126713Y-129674136D01*
X73349507Y-129580202D01*
X73531655Y-129512053D01*
X73693298Y-129461375D01*
X73761832Y-129442802D01*
X73981685Y-129373258D01*
X74194765Y-129286423D01*
X74275867Y-129245506D01*
X74469153Y-129156282D01*
X74692552Y-129078741D01*
X74756058Y-129061734D01*
X74909770Y-129019511D01*
X75141572Y-128949706D01*
X75422508Y-128861295D01*
X75723625Y-128763253D01*
X75787973Y-128741860D01*
X76081517Y-128645436D01*
X76353147Y-128559024D01*
X76576741Y-128490742D01*
X76726177Y-128448703D01*
X76749666Y-128443072D01*
X76894895Y-128403034D01*
X77106780Y-128335207D01*
X77346340Y-128252239D01*
X77418465Y-128226034D01*
X77647509Y-128147260D01*
X77850293Y-128087237D01*
X77993371Y-128055530D01*
X78023989Y-128052889D01*
X78135765Y-128035882D01*
X78322614Y-127990313D01*
X78552625Y-127924356D01*
X78672596Y-127886692D01*
X78933625Y-127807699D01*
X79188377Y-127739789D01*
X79394773Y-127693875D01*
X79453041Y-127684292D01*
X79675121Y-127644283D01*
X79896511Y-127589738D01*
X79945879Y-127574696D01*
X80163533Y-127511869D01*
X80448707Y-127440009D01*
X80757444Y-127369363D01*
X81045786Y-127310184D01*
X81190423Y-127284491D01*
X81365204Y-127246671D01*
X81506843Y-127200310D01*
X81525710Y-127191463D01*
X81641945Y-127152046D01*
X81822407Y-127111774D01*
X81949986Y-127090747D01*
X82488874Y-127009164D01*
X82933427Y-126929611D01*
X83275364Y-126853606D01*
X83345061Y-126834998D01*
X83545943Y-126787617D01*
X83729869Y-126758334D01*
X83797622Y-126753845D01*
X83960382Y-126734570D01*
X84151919Y-126688039D01*
X84188641Y-126676230D01*
X84346730Y-126638072D01*
X84578260Y-126600946D01*
X84843636Y-126570738D01*
X84963970Y-126560941D01*
X85225156Y-126538020D01*
X85464110Y-126508925D01*
X85644273Y-126478443D01*
X85699382Y-126464647D01*
X85861001Y-126424903D01*
X86077395Y-126384472D01*
X86225167Y-126362469D01*
X86470061Y-126328449D01*
X86755049Y-126286009D01*
X86960579Y-126253640D01*
X87216350Y-126218096D01*
X87523427Y-126184163D01*
X87820089Y-126158575D01*
X87851559Y-126156418D01*
X88346548Y-126123644D01*
X88340414Y-118824222D01*
X87657435Y-118231556D01*
X87099010Y-117732931D01*
X86558093Y-117223023D01*
X86053041Y-116720168D01*
X85602207Y-116242700D01*
X85223946Y-115808957D01*
X85185441Y-115762111D01*
X85006987Y-115547649D01*
X84851916Y-115369151D01*
X84734912Y-115242954D01*
X84670662Y-115185395D01*
X84665332Y-115183556D01*
X84612579Y-115141062D01*
X84511755Y-115027313D01*
X84380559Y-114862907D01*
X84313691Y-114774334D01*
X84143219Y-114548403D01*
X83965640Y-114319141D01*
X83814159Y-114129301D01*
X83788190Y-114097743D01*
X83421152Y-113642513D01*
X83137116Y-113261604D01*
X83042239Y-113123334D01*
X82816153Y-112786929D01*
X82570469Y-112427513D01*
X82327801Y-112077780D01*
X82110765Y-111770421D01*
X82002723Y-111620590D01*
X81693716Y-111170154D01*
X81453454Y-110762408D01*
X81354710Y-110562951D01*
X81273918Y-110410236D01*
X81156736Y-110216991D01*
X81068180Y-110083174D01*
X80959509Y-109908992D01*
X80824298Y-109667763D01*
X80682191Y-109395494D01*
X80586627Y-109200445D01*
X80443836Y-108901435D01*
X80274248Y-108549224D01*
X80101069Y-108191876D01*
X79973497Y-107930445D01*
X79661981Y-107274614D01*
X79407834Y-106694471D01*
X79206409Y-106180667D01*
X79131338Y-105992663D01*
X79057544Y-105880714D01*
X78952441Y-105813161D01*
X78783439Y-105758344D01*
X78766998Y-105753786D01*
X78473336Y-105650387D01*
X78135552Y-105496897D01*
X77796616Y-105315282D01*
X77499499Y-105127512D01*
X77403247Y-105056585D01*
X77141182Y-104831855D01*
X76831614Y-104532080D01*
X76491868Y-104174735D01*
X76166323Y-103808746D01*
X75909190Y-103481551D01*
X75682193Y-103123973D01*
X75466967Y-102711112D01*
X75295304Y-102353376D01*
X75165207Y-102076079D01*
X75068049Y-101858487D01*
X74995206Y-101679866D01*
X74938052Y-101519481D01*
X74887961Y-101356600D01*
X74855711Y-101241778D01*
X74781905Y-100988390D01*
X74697922Y-100722284D01*
X74644220Y-100564445D01*
X74564070Y-100321032D01*
X74500873Y-100079326D01*
X74452807Y-99821806D01*
X74418046Y-99530948D01*
X74394766Y-99189232D01*
X74381144Y-98779135D01*
X74375354Y-98283136D01*
X74374840Y-97977146D01*
X74377810Y-97417515D01*
X74386625Y-96952438D01*
X74402565Y-96563674D01*
X74426910Y-96232980D01*
X74460940Y-95942115D01*
X74505934Y-95672836D01*
X74551707Y-95456222D01*
X74641962Y-95110919D01*
X74757466Y-94741263D01*
X74887373Y-94376630D01*
X75020838Y-94046393D01*
X75147013Y-93779926D01*
X75212729Y-93665942D01*
X75353201Y-93445711D01*
X75498750Y-93214749D01*
X75586792Y-93073275D01*
X75782763Y-92779505D01*
X75976458Y-92532394D01*
X76151124Y-92351841D01*
X76262644Y-92270409D01*
X76352814Y-92211924D01*
X76369822Y-92145305D01*
X76324537Y-92024943D01*
X76322324Y-92020013D01*
X76266694Y-91887407D01*
X76182084Y-91675267D01*
X76078614Y-91409989D01*
X75966407Y-91117973D01*
X75855583Y-90825615D01*
X75756263Y-90559315D01*
X75678568Y-90345469D01*
X75659624Y-90291556D01*
X75608771Y-90123777D01*
X75545553Y-89884739D01*
X75480124Y-89613813D01*
X75448535Y-89473111D01*
X75390671Y-89218889D01*
X75334846Y-88993207D01*
X75289056Y-88827493D01*
X75269479Y-88769307D01*
X75246044Y-88688326D01*
X75219132Y-88549204D01*
X75187550Y-88342938D01*
X75150107Y-88060523D01*
X75105610Y-87692956D01*
X75052867Y-87231235D01*
X74990686Y-86666354D01*
X74989006Y-86650889D01*
X74970870Y-86406576D01*
X74959036Y-86082273D01*
X74953142Y-85699408D01*
X74952826Y-85279409D01*
X74957725Y-84843702D01*
X74967477Y-84413715D01*
X74981718Y-84010875D01*
X75000086Y-83656609D01*
X75022219Y-83372344D01*
X75047745Y-83179556D01*
X75080836Y-82989797D01*
X75121622Y-82728319D01*
X75163974Y-82435446D01*
X75189323Y-82248222D01*
X75233659Y-81928754D01*
X75284886Y-81587801D01*
X75334896Y-81278367D01*
X75357720Y-81147556D01*
X75399673Y-80924673D01*
X75442072Y-80724733D01*
X75490767Y-80527620D01*
X75551610Y-80313216D01*
X75630450Y-80061404D01*
X75733140Y-79752066D01*
X75865530Y-79365087D01*
X75932285Y-79172000D01*
X76015097Y-78922040D01*
X76092682Y-78669494D01*
X76148580Y-78468000D01*
X76149619Y-78463831D01*
X76208354Y-78280510D01*
X76303182Y-78040444D01*
X76416803Y-77786417D01*
X76456709Y-77704332D01*
X76559595Y-77493369D01*
X76639834Y-77320529D01*
X76686153Y-77210523D01*
X76693095Y-77186120D01*
X76718627Y-77104861D01*
X76788574Y-76944150D01*
X76892962Y-76723522D01*
X77021818Y-76462514D01*
X77165166Y-76180663D01*
X77313035Y-75897504D01*
X77455449Y-75632575D01*
X77582435Y-75405412D01*
X77684020Y-75235551D01*
X77706686Y-75200721D01*
X77844582Y-74992986D01*
X77971923Y-74797969D01*
X78064381Y-74652987D01*
X78074709Y-74636277D01*
X78188239Y-74456550D01*
X78340545Y-74222749D01*
X78514117Y-73960959D01*
X78691448Y-73697270D01*
X78855029Y-73457769D01*
X78987350Y-73268546D01*
X79052837Y-73178869D01*
X79226117Y-72956220D01*
X79404974Y-72735729D01*
X79574167Y-72535113D01*
X79718455Y-72372085D01*
X79822596Y-72264364D01*
X79869723Y-72229334D01*
X79923815Y-72184386D01*
X79994515Y-72075137D01*
X80000011Y-72064705D01*
X80083946Y-71932832D01*
X80213260Y-71761180D01*
X80325119Y-71627260D01*
X80461254Y-71478523D01*
X80643103Y-71288557D01*
X80856276Y-71071460D01*
X81086379Y-70841329D01*
X81319024Y-70612262D01*
X81539817Y-70398355D01*
X81734369Y-70213707D01*
X81888288Y-70072413D01*
X81987183Y-69988572D01*
X82015348Y-69971556D01*
X82079963Y-69937121D01*
X82201384Y-69847200D01*
X82341055Y-69731667D01*
X82535448Y-69569863D01*
X82800158Y-69358438D01*
X83113849Y-69113959D01*
X83455187Y-68852992D01*
X83802836Y-68592105D01*
X83925613Y-68501257D01*
X84090491Y-68387119D01*
X84225721Y-68306704D01*
X84298694Y-68278222D01*
X84386569Y-68239729D01*
X84470930Y-68165953D01*
X84552102Y-68107097D01*
X84714395Y-68011556D01*
X84936331Y-67890225D01*
X85196431Y-67754001D01*
X85473218Y-67613779D01*
X85745212Y-67480454D01*
X85990934Y-67364924D01*
X86188908Y-67278082D01*
X86310022Y-67233007D01*
X86436215Y-67185305D01*
X86618112Y-67104742D01*
X86772801Y-67030248D01*
X86984364Y-66933038D01*
X87192754Y-66851089D01*
X87310218Y-66813957D01*
X87472077Y-66767643D01*
X87694283Y-66698087D01*
X87930558Y-66619805D01*
X87945623Y-66614650D01*
X88201012Y-66537128D01*
X88465946Y-66472649D01*
X88681035Y-66435464D01*
X88875110Y-66406959D01*
X89033381Y-66371816D01*
X89095293Y-66349830D01*
X89196295Y-66311211D01*
X89364126Y-66266996D01*
X89611271Y-66214443D01*
X89950217Y-66150810D01*
X90213363Y-66104345D01*
X90541527Y-66062943D01*
X90956571Y-66034498D01*
X91433007Y-66018797D01*
X91945346Y-66015630D01*
X92468099Y-66024784D01*
X92975779Y-66046047D01*
X93442898Y-66079208D01*
X93843966Y-66124054D01*
X93918708Y-66135139D01*
X94224502Y-66185672D01*
X94517439Y-66238884D01*
X94764778Y-66288533D01*
X94933779Y-66328378D01*
X94936971Y-66329265D01*
X95169234Y-66388192D01*
X95428349Y-66445384D01*
X95530957Y-66465348D01*
X95769827Y-66515789D01*
X96022709Y-66584638D01*
X96321994Y-66681420D01*
X96605790Y-66781457D01*
X96775341Y-66843729D01*
X96928095Y-66903329D01*
X97085993Y-66969982D01*
X97270976Y-67053411D01*
X97504985Y-67163341D01*
X97809963Y-67309496D01*
X97954305Y-67379104D01*
X98722635Y-67749986D01*
X99475987Y-67423727D01*
X99758757Y-67300065D01*
X100015974Y-67185373D01*
X100224018Y-67090341D01*
X100359271Y-67025658D01*
X100383377Y-67013083D01*
X100608723Y-66903305D01*
X100902214Y-66779210D01*
X101222981Y-66656699D01*
X101530158Y-66551672D01*
X101697104Y-66501968D01*
X101950261Y-66425583D01*
X102238606Y-66328254D01*
X102460801Y-66245954D01*
X102709497Y-66160566D01*
X102969272Y-66090429D01*
X103167928Y-66053173D01*
X103395296Y-66016182D01*
X103618279Y-65964927D01*
X103705345Y-65938820D01*
X104044802Y-65844315D01*
X104476810Y-65756548D01*
X104980893Y-65677175D01*
X105536578Y-65607853D01*
X106123388Y-65550238D01*
X106720850Y-65505987D01*
X107308487Y-65476756D01*
X107865826Y-65464202D01*
X108372391Y-65469981D01*
G04 #@! TD*
M02*
