G04 #@! TF.GenerationSoftware,KiCad,Pcbnew,6.0.9-8da3e8f707~117~ubuntu22.04.1*
G04 #@! TF.CreationDate,2022-12-24T17:10:54-08:00*
G04 #@! TF.ProjectId,covid-dude,636f7669-642d-4647-9564-652e6b696361,rev?*
G04 #@! TF.SameCoordinates,Original*
G04 #@! TF.FileFunction,Legend,Top*
G04 #@! TF.FilePolarity,Positive*
%FSLAX46Y46*%
G04 Gerber Fmt 4.6, Leading zero omitted, Abs format (unit mm)*
G04 Created by KiCad (PCBNEW 6.0.9-8da3e8f707~117~ubuntu22.04.1) date 2022-12-24 17:10:54*
%MOMM*%
%LPD*%
G01*
G04 APERTURE LIST*
G04 APERTURE END LIST*
G04 #@! TO.C,G\u002A\u002A\u002A*
G36*
X73531655Y-129512053D02*
G01*
X73693298Y-129461375D01*
X73761832Y-129442802D01*
X73981685Y-129373258D01*
X74194765Y-129286423D01*
X74275867Y-129245506D01*
X74469153Y-129156282D01*
X74692552Y-129078741D01*
X74756058Y-129061734D01*
X74909770Y-129019511D01*
X75141572Y-128949706D01*
X75422508Y-128861295D01*
X75723625Y-128763253D01*
X75787973Y-128741860D01*
X76081517Y-128645436D01*
X76353147Y-128559024D01*
X76576741Y-128490742D01*
X76726177Y-128448703D01*
X76749666Y-128443072D01*
X76894895Y-128403034D01*
X77106780Y-128335207D01*
X77346340Y-128252239D01*
X77418465Y-128226034D01*
X77647509Y-128147260D01*
X77850293Y-128087237D01*
X77993371Y-128055530D01*
X78023989Y-128052889D01*
X78135765Y-128035882D01*
X78322614Y-127990313D01*
X78552625Y-127924356D01*
X78672596Y-127886692D01*
X78933625Y-127807699D01*
X79188377Y-127739789D01*
X79394773Y-127693875D01*
X79453041Y-127684292D01*
X79675121Y-127644283D01*
X79896511Y-127589738D01*
X79945879Y-127574696D01*
X80163533Y-127511869D01*
X80448707Y-127440009D01*
X80757444Y-127369363D01*
X81045786Y-127310184D01*
X81190423Y-127284491D01*
X81365204Y-127246671D01*
X81506843Y-127200310D01*
X81525710Y-127191463D01*
X81641945Y-127152046D01*
X81822407Y-127111774D01*
X81949986Y-127090747D01*
X82488874Y-127009164D01*
X82933427Y-126929611D01*
X83275364Y-126853606D01*
X83345061Y-126834998D01*
X83545943Y-126787617D01*
X83729869Y-126758334D01*
X83797622Y-126753845D01*
X83960382Y-126734570D01*
X84151919Y-126688039D01*
X84188641Y-126676230D01*
X84346730Y-126638072D01*
X84578260Y-126600946D01*
X84843636Y-126570738D01*
X84963970Y-126560941D01*
X85225156Y-126538020D01*
X85464110Y-126508925D01*
X85644273Y-126478443D01*
X85699382Y-126464647D01*
X85861001Y-126424903D01*
X86077395Y-126384472D01*
X86225167Y-126362469D01*
X86470061Y-126328449D01*
X86755049Y-126286009D01*
X86960579Y-126253640D01*
X87216350Y-126218096D01*
X87523427Y-126184163D01*
X87820089Y-126158575D01*
X87851559Y-126156418D01*
X88346548Y-126123644D01*
X88340414Y-118824222D01*
X87657435Y-118231556D01*
X87307280Y-117918898D01*
X92397512Y-117918898D01*
X92474023Y-117978075D01*
X92538987Y-118022188D01*
X92671469Y-118106783D01*
X92879184Y-118233819D01*
X93139199Y-118389618D01*
X93428579Y-118560499D01*
X93724389Y-118732783D01*
X93890423Y-118828277D01*
X94027374Y-118901303D01*
X94242546Y-119009931D01*
X94511465Y-119142387D01*
X94809656Y-119286898D01*
X95112643Y-119431693D01*
X95395953Y-119564999D01*
X95635111Y-119675042D01*
X95805641Y-119750051D01*
X95813808Y-119753450D01*
X96268351Y-119924792D01*
X96724404Y-120057666D01*
X96859761Y-120090755D01*
X97056004Y-120145398D01*
X97228216Y-120207008D01*
X97284037Y-120232745D01*
X97370187Y-120260085D01*
X97520173Y-120281119D01*
X97745124Y-120296499D01*
X98056167Y-120306882D01*
X98464430Y-120312922D01*
X98670601Y-120314336D01*
X99078635Y-120315966D01*
X99394618Y-120314910D01*
X99639637Y-120309265D01*
X99834776Y-120297127D01*
X100001124Y-120276593D01*
X100159766Y-120245759D01*
X100331788Y-120202722D01*
X100537416Y-120145821D01*
X100829671Y-120057153D01*
X101120453Y-119957773D01*
X101369287Y-119862041D01*
X101492912Y-119806831D01*
X101678886Y-119721541D01*
X101833930Y-119661666D01*
X101917189Y-119641237D01*
X102016118Y-119613532D01*
X102197319Y-119537476D01*
X102445088Y-119421181D01*
X102743725Y-119272759D01*
X103077528Y-119100321D01*
X103430796Y-118911979D01*
X103787827Y-118715846D01*
X104132920Y-118520033D01*
X104450374Y-118332651D01*
X104451909Y-118331723D01*
X104727424Y-118164362D01*
X104965084Y-118018669D01*
X105149758Y-117904030D01*
X105266314Y-117829830D01*
X105300461Y-117805380D01*
X105235480Y-117805513D01*
X105084178Y-117818723D01*
X104872189Y-117841797D01*
X104625148Y-117871520D01*
X104368690Y-117904680D01*
X104128449Y-117938062D01*
X103930060Y-117968451D01*
X103799157Y-117992636D01*
X103790200Y-117994726D01*
X103488203Y-118053920D01*
X103090662Y-118108097D01*
X102592790Y-118157757D01*
X101989800Y-118203403D01*
X101527394Y-118231831D01*
X101163248Y-118254378D01*
X100809101Y-118279629D01*
X100492094Y-118305407D01*
X100239365Y-118329538D01*
X100102304Y-118346105D01*
X99932019Y-118362092D01*
X99673594Y-118375241D01*
X99344865Y-118385553D01*
X98963672Y-118393029D01*
X98547851Y-118397669D01*
X98115241Y-118399473D01*
X97683678Y-118398442D01*
X97271002Y-118394577D01*
X96895048Y-118387879D01*
X96573656Y-118378347D01*
X96324662Y-118365982D01*
X96165905Y-118350785D01*
X96139898Y-118345987D01*
X96004672Y-118322960D01*
X95780512Y-118293425D01*
X95491246Y-118260151D01*
X95160696Y-118225911D01*
X94880401Y-118199493D01*
X94359400Y-118152311D01*
X93938898Y-118113310D01*
X93606665Y-118081055D01*
X93350468Y-118054112D01*
X93158078Y-118031047D01*
X93017265Y-118010424D01*
X92915796Y-117990811D01*
X92841443Y-117970771D01*
X92797765Y-117955248D01*
X92627857Y-117908306D01*
X92492877Y-117892889D01*
X92405910Y-117896428D01*
X92397512Y-117918898D01*
X87307280Y-117918898D01*
X87099010Y-117732931D01*
X86558093Y-117223023D01*
X86053041Y-116720168D01*
X85602207Y-116242700D01*
X85223946Y-115808957D01*
X85185441Y-115762111D01*
X85006987Y-115547649D01*
X84917324Y-115444440D01*
X87526242Y-115444440D01*
X87539216Y-115480313D01*
X87561590Y-115510820D01*
X87694638Y-115658825D01*
X87811936Y-115740751D01*
X87893404Y-115743833D01*
X87906348Y-115729976D01*
X87943596Y-115652642D01*
X109490334Y-115652642D01*
X109515959Y-115723895D01*
X109576388Y-115856227D01*
X109728669Y-115731558D01*
X109864168Y-115607266D01*
X109972065Y-115487554D01*
X110063181Y-115368219D01*
X109759355Y-115479891D01*
X109589511Y-115546225D01*
X109506610Y-115597019D01*
X109490334Y-115652642D01*
X87943596Y-115652642D01*
X87946233Y-115647167D01*
X87949690Y-115629562D01*
X87902727Y-115590497D01*
X87783348Y-115531587D01*
X87719602Y-115505271D01*
X87580077Y-115452980D01*
X87526242Y-115444440D01*
X84917324Y-115444440D01*
X84851916Y-115369151D01*
X84734912Y-115242954D01*
X84670662Y-115185395D01*
X84665332Y-115183556D01*
X84612579Y-115141062D01*
X84511755Y-115027313D01*
X84380559Y-114862907D01*
X84313691Y-114774334D01*
X84218578Y-114648278D01*
X86750066Y-114648278D01*
X86796358Y-114726436D01*
X86907590Y-114859573D01*
X86944499Y-114901812D01*
X87069967Y-115043376D01*
X87161930Y-115144007D01*
X87199410Y-115181014D01*
X87182560Y-115137696D01*
X87125840Y-115023629D01*
X87072127Y-114921149D01*
X86992295Y-114757238D01*
X86941672Y-114626196D01*
X86932294Y-114580496D01*
X86910908Y-114531582D01*
X86829516Y-114557250D01*
X86817216Y-114563701D01*
X86759943Y-114601801D01*
X86750066Y-114648278D01*
X84218578Y-114648278D01*
X84143219Y-114548403D01*
X83965640Y-114319141D01*
X83814159Y-114129301D01*
X83788190Y-114097743D01*
X83421152Y-113642513D01*
X83137116Y-113261604D01*
X83042239Y-113123334D01*
X82816153Y-112786929D01*
X82570469Y-112427513D01*
X82327801Y-112077780D01*
X82110765Y-111770421D01*
X82002723Y-111620590D01*
X81693716Y-111170154D01*
X81453454Y-110762408D01*
X81354710Y-110562951D01*
X81273918Y-110410236D01*
X81156736Y-110216991D01*
X81068180Y-110083174D01*
X80959509Y-109908992D01*
X80824298Y-109667763D01*
X80682191Y-109395494D01*
X80586627Y-109200445D01*
X80443836Y-108901435D01*
X80274248Y-108549224D01*
X80101069Y-108191876D01*
X79973497Y-107930445D01*
X79661981Y-107274614D01*
X79407834Y-106694471D01*
X79206409Y-106180667D01*
X79131338Y-105992663D01*
X79057544Y-105880714D01*
X78952441Y-105813161D01*
X78783439Y-105758344D01*
X78766998Y-105753786D01*
X78473336Y-105650387D01*
X78135552Y-105496897D01*
X77796616Y-105315282D01*
X77499499Y-105127512D01*
X77403247Y-105056585D01*
X77141182Y-104831855D01*
X76831614Y-104532080D01*
X76491868Y-104174735D01*
X76166323Y-103808746D01*
X75909190Y-103481551D01*
X75682193Y-103123973D01*
X75466967Y-102711112D01*
X75295304Y-102353376D01*
X75165207Y-102076079D01*
X75068049Y-101858487D01*
X74995206Y-101679866D01*
X74938052Y-101519481D01*
X74887961Y-101356600D01*
X74855711Y-101241778D01*
X74781905Y-100988390D01*
X74697922Y-100722284D01*
X74644220Y-100564445D01*
X74564070Y-100321032D01*
X74500873Y-100079326D01*
X74452807Y-99821806D01*
X74418046Y-99530948D01*
X74394766Y-99189232D01*
X74381144Y-98779135D01*
X74375354Y-98283136D01*
X74374840Y-97977146D01*
X74375738Y-97807973D01*
X77441382Y-97807973D01*
X77466287Y-98050933D01*
X77480012Y-98118604D01*
X77514014Y-98297384D01*
X77550426Y-98546893D01*
X77583434Y-98825271D01*
X77596265Y-98955778D01*
X77674381Y-99485883D01*
X77816238Y-100016160D01*
X78029571Y-100569965D01*
X78322118Y-101170655D01*
X78342653Y-101209249D01*
X78594257Y-101649651D01*
X78831898Y-101992921D01*
X79070267Y-102251136D01*
X79324054Y-102436373D01*
X79607951Y-102560707D01*
X79936647Y-102636217D01*
X80104527Y-102657633D01*
X80600076Y-102741992D01*
X81002955Y-102885072D01*
X81319136Y-103090305D01*
X81554591Y-103361125D01*
X81656607Y-103549799D01*
X81746237Y-103763080D01*
X81849974Y-104029353D01*
X81946731Y-104294324D01*
X81954982Y-104318000D01*
X82048513Y-104575490D01*
X82167510Y-104885842D01*
X82292347Y-105198381D01*
X82348457Y-105334000D01*
X82452933Y-105585056D01*
X82546740Y-105814324D01*
X82617500Y-105991349D01*
X82646658Y-106067778D01*
X82720334Y-106228984D01*
X82822190Y-106406254D01*
X82840165Y-106433658D01*
X82922750Y-106567509D01*
X82968885Y-106663800D01*
X82972383Y-106680473D01*
X82997749Y-106755140D01*
X83066664Y-106907986D01*
X83168355Y-107118163D01*
X83292047Y-107364825D01*
X83426965Y-107627125D01*
X83562335Y-107884217D01*
X83687383Y-108115253D01*
X83791335Y-108299388D01*
X83863416Y-108415774D01*
X83881327Y-108439148D01*
X83964019Y-108556546D01*
X84059751Y-108729923D01*
X84108993Y-108834259D01*
X84164221Y-108940513D01*
X84262001Y-109110329D01*
X84390460Y-109324769D01*
X84537722Y-109564899D01*
X84691912Y-109811783D01*
X84841155Y-110046486D01*
X84973576Y-110250071D01*
X85077301Y-110403604D01*
X85140454Y-110488148D01*
X85152785Y-110498667D01*
X85148720Y-110448751D01*
X85129556Y-110321578D01*
X85114271Y-110230556D01*
X85089906Y-110062731D01*
X85060317Y-109818600D01*
X85029686Y-109534353D01*
X85008246Y-109313334D01*
X84977462Y-108999321D01*
X84942443Y-108675063D01*
X84908334Y-108386881D01*
X84889095Y-108240889D01*
X84853169Y-107966348D01*
X84815261Y-107646651D01*
X84783336Y-107349092D01*
X84782215Y-107337778D01*
X84753080Y-107090061D01*
X84718202Y-106862690D01*
X84684086Y-106696786D01*
X84676675Y-106670494D01*
X84649229Y-106537141D01*
X84620595Y-106323448D01*
X84594639Y-106061849D01*
X84579150Y-105852049D01*
X84555975Y-105571304D01*
X84524334Y-105309634D01*
X84488907Y-105101330D01*
X84463228Y-105002348D01*
X84411259Y-104791644D01*
X84386892Y-104570221D01*
X84386637Y-104550420D01*
X84372541Y-104345206D01*
X84338026Y-104149460D01*
X84332227Y-104127961D01*
X84305423Y-103989790D01*
X84278132Y-103774191D01*
X84254442Y-103516532D01*
X84244228Y-103366334D01*
X84209716Y-102985558D01*
X84153021Y-102594901D01*
X84125297Y-102453371D01*
X87342440Y-102453371D01*
X87353864Y-102600721D01*
X87375108Y-102809973D01*
X87403122Y-103056195D01*
X87434857Y-103314455D01*
X87467265Y-103559821D01*
X87497297Y-103767361D01*
X87521904Y-103912143D01*
X87536448Y-103967527D01*
X87561008Y-104051688D01*
X87589045Y-104213870D01*
X87614637Y-104419595D01*
X87615475Y-104427747D01*
X87675106Y-104995445D01*
X87731854Y-105503328D01*
X87784386Y-105940731D01*
X87831368Y-106296995D01*
X87871469Y-106561456D01*
X87901715Y-106716889D01*
X87944460Y-106920967D01*
X87985818Y-107182928D01*
X88027486Y-107516406D01*
X88071165Y-107935035D01*
X88118553Y-108452449D01*
X88119791Y-108466667D01*
X88150157Y-108800787D01*
X88184405Y-109154068D01*
X88217828Y-109478992D01*
X88240067Y-109680222D01*
X88272573Y-109980728D01*
X88306934Y-110330624D01*
X88337018Y-110666694D01*
X88344077Y-110752667D01*
X88370080Y-111027109D01*
X88401959Y-111289601D01*
X88434521Y-111499678D01*
X88449125Y-111571111D01*
X88476132Y-111728839D01*
X88504390Y-111966181D01*
X88530410Y-112249961D01*
X88549401Y-112524080D01*
X88573702Y-112829892D01*
X88608967Y-113128152D01*
X88650224Y-113382277D01*
X88687458Y-113540080D01*
X88748275Y-113720074D01*
X88806790Y-113821116D01*
X88889374Y-113873454D01*
X89004281Y-113903542D01*
X89154436Y-113937370D01*
X89377989Y-113990139D01*
X89638627Y-114053210D01*
X89789086Y-114090265D01*
X90438288Y-114244017D01*
X91032866Y-114370359D01*
X91429621Y-114444060D01*
X91643669Y-114484884D01*
X91900937Y-114539712D01*
X92080178Y-114581096D01*
X92918448Y-114750258D01*
X93816545Y-114870792D01*
X94164324Y-114902410D01*
X94437768Y-114926716D01*
X94672157Y-114952638D01*
X94843234Y-114977142D01*
X94926742Y-114997194D01*
X94928017Y-114997921D01*
X95039551Y-115032271D01*
X95249838Y-115064353D01*
X95544510Y-115093843D01*
X95909195Y-115120417D01*
X96329525Y-115143749D01*
X96791128Y-115163517D01*
X97279636Y-115179395D01*
X97780679Y-115191060D01*
X98279886Y-115198188D01*
X98762887Y-115200453D01*
X99215314Y-115197532D01*
X99622796Y-115189101D01*
X99970963Y-115174835D01*
X100245445Y-115154410D01*
X100431873Y-115127503D01*
X100452561Y-115122576D01*
X100602177Y-115098601D01*
X100823411Y-115080533D01*
X101074777Y-115071478D01*
X101141847Y-115070982D01*
X101354956Y-115063453D01*
X110354465Y-115063453D01*
X110410914Y-115019363D01*
X110524638Y-114916087D01*
X110537192Y-114904289D01*
X110686403Y-114751441D01*
X110747964Y-114654550D01*
X110733577Y-114608820D01*
X110645274Y-114569405D01*
X110586539Y-114604545D01*
X110530740Y-114731455D01*
X110526876Y-114742446D01*
X110451978Y-114907609D01*
X110367384Y-115038779D01*
X110354465Y-115063453D01*
X101354956Y-115063453D01*
X101430615Y-115060780D01*
X101735342Y-115034176D01*
X101994967Y-114996668D01*
X102018684Y-114992004D01*
X102243599Y-114954780D01*
X102536321Y-114918376D01*
X102851601Y-114888007D01*
X103037392Y-114874568D01*
X103325816Y-114851063D01*
X103601832Y-114818391D01*
X103828186Y-114781475D01*
X103937363Y-114755675D01*
X104153487Y-114709314D01*
X104407148Y-114680385D01*
X104536650Y-114675556D01*
X104752917Y-114661836D01*
X105026388Y-114625482D01*
X105305150Y-114573702D01*
X105362069Y-114560948D01*
X105724082Y-114477422D01*
X106002040Y-114415280D01*
X106221850Y-114369338D01*
X106409418Y-114334412D01*
X106590651Y-114305315D01*
X106760133Y-114281147D01*
X107020576Y-114237980D01*
X107290229Y-114181794D01*
X107467260Y-114136720D01*
X107677450Y-114081026D01*
X107945472Y-114016990D01*
X108217998Y-113957279D01*
X108253471Y-113949987D01*
X108728546Y-113853270D01*
X108804405Y-113572968D01*
X108836204Y-113412914D01*
X108870366Y-113170066D01*
X108903270Y-112874363D01*
X108931296Y-112555742D01*
X108937242Y-112474222D01*
X108960104Y-112170294D01*
X108983822Y-111896801D01*
X109006034Y-111678342D01*
X109024379Y-111539517D01*
X109029356Y-111514667D01*
X109056802Y-111366999D01*
X109091217Y-111122164D01*
X109130900Y-110795549D01*
X109173337Y-110409931D01*
X112337156Y-110409931D01*
X112345840Y-110442222D01*
X112386082Y-110398362D01*
X112473745Y-110280200D01*
X112594248Y-110107863D01*
X112683129Y-109976556D01*
X112914109Y-109629288D01*
X113092045Y-109356650D01*
X113228308Y-109140466D01*
X113334271Y-108962561D01*
X113421307Y-108804760D01*
X113446466Y-108756610D01*
X113531965Y-108598346D01*
X113603579Y-108478241D01*
X113626159Y-108446165D01*
X113676233Y-108365954D01*
X113764639Y-108206326D01*
X113880108Y-107989329D01*
X114011371Y-107737006D01*
X114147156Y-107471404D01*
X114276196Y-107214569D01*
X114387218Y-106988545D01*
X114468955Y-106815379D01*
X114510136Y-106717115D01*
X114510260Y-106716727D01*
X114570332Y-106575452D01*
X114660868Y-106408233D01*
X114679279Y-106378222D01*
X114764048Y-106223550D01*
X114865685Y-106009915D01*
X114959722Y-105789543D01*
X115042508Y-105586057D01*
X115114299Y-105416271D01*
X115160609Y-105314377D01*
X115163000Y-105309765D01*
X115214650Y-105192630D01*
X115266258Y-105051778D01*
X115458160Y-104503502D01*
X115645568Y-104026109D01*
X115824556Y-103627763D01*
X115991203Y-103316628D01*
X116141582Y-103100867D01*
X116252927Y-102999019D01*
X116544187Y-102857250D01*
X116891986Y-102742570D01*
X117242734Y-102670218D01*
X117469921Y-102652889D01*
X117673922Y-102642877D01*
X117842842Y-102602916D01*
X118025862Y-102518119D01*
X118150547Y-102446859D01*
X118321805Y-102336792D01*
X118446011Y-102240478D01*
X118498134Y-102177514D01*
X118498441Y-102174544D01*
X118533469Y-102104049D01*
X118626804Y-101973816D01*
X118760818Y-101807795D01*
X118814152Y-101745574D01*
X118960685Y-101557487D01*
X119117298Y-101324271D01*
X119270060Y-101070864D01*
X119405039Y-100822202D01*
X119508303Y-100603223D01*
X119565921Y-100438865D01*
X119573274Y-100386764D01*
X119590708Y-100294883D01*
X119636784Y-100129683D01*
X119702165Y-99924181D01*
X119714040Y-99889044D01*
X119795530Y-99593970D01*
X119859097Y-99260038D01*
X119886915Y-99018380D01*
X119916042Y-98727186D01*
X119960994Y-98410809D01*
X120009807Y-98148720D01*
X120052686Y-97936708D01*
X120071308Y-97770335D01*
X120065503Y-97606060D01*
X120035100Y-97400345D01*
X120006267Y-97245609D01*
X119962922Y-96999607D01*
X119930180Y-96775107D01*
X119913425Y-96610446D01*
X119912319Y-96576499D01*
X119891343Y-96450603D01*
X119834487Y-96247568D01*
X119751355Y-95993622D01*
X119651554Y-95714990D01*
X119544687Y-95437898D01*
X119440359Y-95188573D01*
X119348177Y-94993240D01*
X119303502Y-94914140D01*
X119191917Y-94738295D01*
X119085602Y-94891170D01*
X118982077Y-95029242D01*
X118847494Y-95195633D01*
X118795434Y-95256974D01*
X118688707Y-95391776D01*
X118622374Y-95497109D01*
X118611581Y-95529772D01*
X118574706Y-95595971D01*
X118476795Y-95718502D01*
X118336920Y-95873977D01*
X118294943Y-95918042D01*
X118120880Y-96104258D01*
X117957803Y-96288378D01*
X117838509Y-96433269D01*
X117830378Y-96444000D01*
X117707252Y-96600673D01*
X117551332Y-96788998D01*
X117454031Y-96902149D01*
X117299888Y-97082135D01*
X117115847Y-97302929D01*
X116942761Y-97515479D01*
X116826880Y-97659025D01*
X116711606Y-97799239D01*
X116583553Y-97951856D01*
X116429331Y-98132613D01*
X116235553Y-98357244D01*
X115988831Y-98641487D01*
X115806431Y-98851078D01*
X115656261Y-99030607D01*
X115528460Y-99196022D01*
X115448446Y-99314269D01*
X115443817Y-99322667D01*
X115329257Y-99498864D01*
X115144015Y-99734652D01*
X114901362Y-100013942D01*
X114658605Y-100274852D01*
X114471033Y-100480078D01*
X114279782Y-100704075D01*
X114136586Y-100884895D01*
X114015427Y-101041624D01*
X113915750Y-101160183D01*
X113863953Y-101210926D01*
X113761356Y-101312907D01*
X113647497Y-101481049D01*
X113545291Y-101673897D01*
X113477655Y-101849997D01*
X113463084Y-101936052D01*
X113445801Y-102099933D01*
X113402833Y-102305023D01*
X113378229Y-102393749D01*
X113327788Y-102621521D01*
X113297075Y-102879094D01*
X113292849Y-102986415D01*
X113282058Y-103222994D01*
X113255496Y-103496672D01*
X113231402Y-103668889D01*
X113171097Y-104051129D01*
X113101363Y-104518685D01*
X113025911Y-105044748D01*
X112948454Y-105602509D01*
X112872704Y-106165161D01*
X112802374Y-106705894D01*
X112741176Y-107197899D01*
X112731164Y-107281334D01*
X112697974Y-107516484D01*
X112657570Y-107743528D01*
X112628411Y-107874000D01*
X112601081Y-108023149D01*
X112573001Y-108251252D01*
X112547878Y-108524462D01*
X112532618Y-108748889D01*
X112503760Y-109164979D01*
X112466419Y-109562264D01*
X112423633Y-109914273D01*
X112378443Y-110194535D01*
X112353515Y-110309096D01*
X112337156Y-110409931D01*
X109173337Y-110409931D01*
X109174150Y-110402545D01*
X109219266Y-109958539D01*
X109264547Y-109478922D01*
X109303900Y-109031111D01*
X109335464Y-108681070D01*
X109368508Y-108353336D01*
X109400417Y-108071201D01*
X109428579Y-107857956D01*
X109448091Y-107746190D01*
X109485018Y-107527050D01*
X109503346Y-107301559D01*
X109503786Y-107270115D01*
X109518690Y-107075879D01*
X109556684Y-106842548D01*
X109584256Y-106720592D01*
X109620124Y-106541520D01*
X109658888Y-106283769D01*
X109695966Y-105981303D01*
X109726779Y-105668085D01*
X109727728Y-105656859D01*
X109755388Y-105364945D01*
X109785949Y-105102971D01*
X109815954Y-104897193D01*
X109841946Y-104773867D01*
X109845253Y-104764185D01*
X109877869Y-104621798D01*
X109897351Y-104427095D01*
X109899777Y-104337124D01*
X109916458Y-104103347D01*
X109958429Y-103850062D01*
X109979736Y-103762243D01*
X110019467Y-103571995D01*
X110056902Y-103313811D01*
X110085932Y-103032582D01*
X110093765Y-102924592D01*
X110127835Y-102377850D01*
X109858238Y-102343916D01*
X109643341Y-102310492D01*
X109435694Y-102268440D01*
X109384082Y-102255658D01*
X109197839Y-102222146D01*
X108975243Y-102203035D01*
X108899361Y-102201334D01*
X108664481Y-102183993D01*
X108414186Y-102140582D01*
X108340223Y-102121758D01*
X108141385Y-102076919D01*
X107883971Y-102034697D01*
X107622371Y-102003961D01*
X107612595Y-102003097D01*
X107356236Y-101973394D01*
X107105967Y-101932215D01*
X106913722Y-101888181D01*
X106905468Y-101885727D01*
X106691267Y-101836049D01*
X106474432Y-101808255D01*
X106420712Y-101806222D01*
X106225092Y-101787978D01*
X105999395Y-101743500D01*
X105916733Y-101720945D01*
X105688482Y-101670781D01*
X105430362Y-101640540D01*
X105322746Y-101636562D01*
X105077536Y-101625564D01*
X104803485Y-101597883D01*
X104667037Y-101577684D01*
X104441863Y-101538916D01*
X104161184Y-101490698D01*
X103881011Y-101442649D01*
X103846770Y-101436784D01*
X103617599Y-101402634D01*
X103309366Y-101363876D01*
X102955828Y-101324400D01*
X102590744Y-101288093D01*
X102432516Y-101273896D01*
X102076449Y-101241544D01*
X101719879Y-101206291D01*
X101395497Y-101171560D01*
X101135998Y-101140777D01*
X101046548Y-101128760D01*
X100781142Y-101102548D01*
X100422540Y-101084616D01*
X99985696Y-101074454D01*
X99485563Y-101071555D01*
X98937092Y-101075408D01*
X98355236Y-101085506D01*
X97754948Y-101101339D01*
X97151181Y-101122398D01*
X96558888Y-101148175D01*
X95993020Y-101178162D01*
X95468531Y-101211848D01*
X95000373Y-101248725D01*
X94603499Y-101288285D01*
X94292861Y-101330019D01*
X94116703Y-101364576D01*
X93882411Y-101416904D01*
X93617217Y-101463945D01*
X93297123Y-101509319D01*
X92898130Y-101556644D01*
X92702450Y-101577846D01*
X92404713Y-101611554D01*
X92102077Y-101649341D01*
X91841459Y-101685214D01*
X91740757Y-101700691D01*
X91468622Y-101742547D01*
X91169722Y-101784978D01*
X91005345Y-101806572D01*
X90782152Y-101839639D01*
X90578669Y-101878381D01*
X90463565Y-101907354D01*
X90325087Y-101938095D01*
X90114046Y-101970519D01*
X89870755Y-101998636D01*
X89813008Y-102003994D01*
X89573759Y-102029908D01*
X89362858Y-102061384D01*
X89217666Y-102092612D01*
X89195100Y-102100047D01*
X89069585Y-102133189D01*
X88872539Y-102169402D01*
X88645076Y-102201202D01*
X88629398Y-102203032D01*
X88383244Y-102233111D01*
X88118089Y-102268325D01*
X87858321Y-102305073D01*
X87628325Y-102339756D01*
X87452489Y-102368771D01*
X87355200Y-102388518D01*
X87343884Y-102392855D01*
X87342440Y-102453371D01*
X84125297Y-102453371D01*
X84079811Y-102221167D01*
X83995752Y-101891160D01*
X83906513Y-101631686D01*
X83854801Y-101524398D01*
X83698848Y-101292040D01*
X83466688Y-101001436D01*
X83169567Y-100665965D01*
X82859242Y-100340128D01*
X82682733Y-100153315D01*
X82527050Y-99976061D01*
X82417220Y-99837325D01*
X82391856Y-99799308D01*
X82238332Y-99554296D01*
X82084884Y-99337557D01*
X81905348Y-99114810D01*
X81673562Y-98851772D01*
X81642984Y-98818061D01*
X81444785Y-98594910D01*
X81246794Y-98363418D01*
X81080108Y-98160264D01*
X81020712Y-98084065D01*
X80859935Y-97882867D01*
X80665017Y-97653998D01*
X80497438Y-97467983D01*
X80356161Y-97312027D01*
X80251328Y-97187124D01*
X80201981Y-97116191D01*
X80200445Y-97110505D01*
X80166446Y-97050602D01*
X80078419Y-96931595D01*
X79957319Y-96778914D01*
X79824102Y-96617991D01*
X79699722Y-96474257D01*
X79605135Y-96373143D01*
X79565844Y-96340353D01*
X79514419Y-96289440D01*
X79413492Y-96168300D01*
X79280192Y-95997944D01*
X79197726Y-95888797D01*
X78906368Y-95506538D01*
X78671191Y-95216373D01*
X78488644Y-95014526D01*
X78355174Y-94897218D01*
X78267229Y-94860670D01*
X78240349Y-94870533D01*
X78173557Y-94958392D01*
X78163708Y-94997467D01*
X78135603Y-95082501D01*
X78065841Y-95216103D01*
X78040131Y-95258667D01*
X77893346Y-95540486D01*
X77764902Y-95890635D01*
X77652092Y-96319714D01*
X77552212Y-96838321D01*
X77462556Y-97457054D01*
X77446990Y-97582382D01*
X77441382Y-97807973D01*
X74375738Y-97807973D01*
X74377810Y-97417515D01*
X74386625Y-96952438D01*
X74402565Y-96563674D01*
X74426910Y-96232980D01*
X74460940Y-95942115D01*
X74505934Y-95672836D01*
X74551707Y-95456222D01*
X74641962Y-95110919D01*
X74757466Y-94741263D01*
X74887373Y-94376630D01*
X75020838Y-94046393D01*
X75147013Y-93779926D01*
X75212729Y-93665942D01*
X75353201Y-93445711D01*
X75498750Y-93214749D01*
X75586792Y-93073275D01*
X75782763Y-92779505D01*
X75896815Y-92634000D01*
X78503340Y-92634000D01*
X78531625Y-92662222D01*
X78559911Y-92634000D01*
X78531625Y-92605778D01*
X78503340Y-92634000D01*
X75896815Y-92634000D01*
X75976458Y-92532394D01*
X76151124Y-92351841D01*
X76262644Y-92270409D01*
X76352814Y-92211924D01*
X76369822Y-92145305D01*
X76324537Y-92024943D01*
X76322324Y-92020013D01*
X76266694Y-91887407D01*
X76182084Y-91675267D01*
X76096418Y-91455635D01*
X78226179Y-91455635D01*
X78237850Y-91509937D01*
X78283541Y-91634651D01*
X78349678Y-91797775D01*
X78422689Y-91967305D01*
X78488998Y-92111240D01*
X78535034Y-92197575D01*
X78545768Y-92209149D01*
X78550678Y-92171992D01*
X80441372Y-92171992D01*
X80482346Y-92312194D01*
X80549715Y-92416852D01*
X80665286Y-92574557D01*
X80800943Y-92761533D01*
X80851002Y-92831017D01*
X81026351Y-93061160D01*
X81253166Y-93338850D01*
X81503683Y-93631044D01*
X81750142Y-93904698D01*
X81779658Y-93936358D01*
X81924042Y-94100414D01*
X82051623Y-94261830D01*
X82100007Y-94331469D01*
X82179754Y-94443065D01*
X82312490Y-94614466D01*
X82477727Y-94819638D01*
X82607656Y-94976445D01*
X82799052Y-95207610D01*
X82988113Y-95441223D01*
X83147726Y-95643545D01*
X83219987Y-95738445D01*
X83379706Y-95927953D01*
X83561918Y-96107964D01*
X83665713Y-96193332D01*
X83832748Y-96345438D01*
X83998245Y-96542851D01*
X84073471Y-96655201D01*
X84175774Y-96808016D01*
X84334639Y-97022535D01*
X84531696Y-97275883D01*
X84748574Y-97545185D01*
X84966901Y-97807565D01*
X85168307Y-98040149D01*
X85309083Y-98193778D01*
X85396723Y-98292623D01*
X85532934Y-98453841D01*
X85696219Y-98651172D01*
X85865080Y-98858354D01*
X86018020Y-99049127D01*
X86133542Y-99197228D01*
X86164915Y-99239266D01*
X86250773Y-99283520D01*
X86352451Y-99260857D01*
X86486668Y-99231314D01*
X86678891Y-99212869D01*
X86790868Y-99209778D01*
X86998126Y-99198131D01*
X87184138Y-99168504D01*
X87253889Y-99148140D01*
X87376818Y-99117313D01*
X87580241Y-99083722D01*
X87831767Y-99052229D01*
X88007127Y-99035063D01*
X88305263Y-99004160D01*
X88608250Y-98964294D01*
X88868989Y-98921985D01*
X88968819Y-98901946D01*
X89517107Y-98790398D01*
X90031103Y-98710152D01*
X90581451Y-98650309D01*
X90625133Y-98646430D01*
X90888014Y-98618987D01*
X91123882Y-98586475D01*
X91299932Y-98553808D01*
X91364447Y-98535709D01*
X91530398Y-98495080D01*
X91723602Y-98476173D01*
X91740757Y-98476000D01*
X91929866Y-98460622D01*
X92098324Y-98423127D01*
X92111393Y-98418444D01*
X92225261Y-98391810D01*
X92424340Y-98361426D01*
X92680946Y-98330973D01*
X92967394Y-98304130D01*
X92977771Y-98303289D01*
X93277773Y-98275847D01*
X93561606Y-98244098D01*
X93796676Y-98212035D01*
X93946993Y-98184482D01*
X94131290Y-98148272D01*
X94377482Y-98110405D01*
X94634719Y-98078639D01*
X94654120Y-98076607D01*
X94910027Y-98046245D01*
X95158935Y-98010118D01*
X95350012Y-97975661D01*
X95361247Y-97973206D01*
X95472478Y-97961289D01*
X95683917Y-97950862D01*
X95982640Y-97941922D01*
X96355723Y-97934466D01*
X96790243Y-97928490D01*
X97273277Y-97923992D01*
X97791902Y-97920968D01*
X98333193Y-97919416D01*
X98884229Y-97919331D01*
X99432085Y-97920712D01*
X99963839Y-97923554D01*
X100466566Y-97927854D01*
X100927344Y-97933610D01*
X101333250Y-97940818D01*
X101671359Y-97949475D01*
X101928750Y-97959578D01*
X102092497Y-97971124D01*
X102121380Y-97974860D01*
X102352024Y-98007975D01*
X102635454Y-98043874D01*
X102911792Y-98074989D01*
X102921576Y-98075999D01*
X103143798Y-98102609D01*
X103324691Y-98131213D01*
X103432823Y-98156634D01*
X103445507Y-98162305D01*
X103521455Y-98180934D01*
X103688903Y-98206466D01*
X103926626Y-98236141D01*
X104213401Y-98267199D01*
X104370701Y-98282588D01*
X104676400Y-98313108D01*
X104945930Y-98343159D01*
X105157387Y-98370056D01*
X105288867Y-98391119D01*
X105317594Y-98398551D01*
X105415771Y-98422604D01*
X105587276Y-98450865D01*
X105770156Y-98474276D01*
X106012992Y-98506997D01*
X106254225Y-98548357D01*
X106392427Y-98577865D01*
X106565435Y-98612192D01*
X106808603Y-98650149D01*
X107079399Y-98685336D01*
X107184409Y-98697042D01*
X107497066Y-98734332D01*
X107839780Y-98781900D01*
X108147993Y-98830664D01*
X108202672Y-98840276D01*
X108502495Y-98891221D01*
X108833549Y-98942873D01*
X109126087Y-98984368D01*
X109136080Y-98985674D01*
X109422307Y-99024060D01*
X109730870Y-99067235D01*
X109984632Y-99104316D01*
X110266614Y-99143727D01*
X110579251Y-99182762D01*
X110779764Y-99205055D01*
X110985244Y-99229586D01*
X111146827Y-99255232D01*
X111230879Y-99276615D01*
X111232325Y-99277406D01*
X111291950Y-99253029D01*
X111395442Y-99158573D01*
X111512026Y-99024608D01*
X111673061Y-98828436D01*
X111865333Y-98602779D01*
X112022034Y-98424758D01*
X112368056Y-98028286D01*
X112652973Y-97677661D01*
X112866456Y-97385741D01*
X112910360Y-97318889D01*
X113033610Y-97146699D01*
X113165869Y-96992254D01*
X113201862Y-96956741D01*
X113320594Y-96817655D01*
X113436496Y-96637130D01*
X113465267Y-96581875D01*
X113606127Y-96375212D01*
X113792620Y-96203802D01*
X113803814Y-96196240D01*
X113963692Y-96070870D01*
X114095097Y-95934534D01*
X114124434Y-95893773D01*
X114222831Y-95755036D01*
X114355212Y-95588957D01*
X114408659Y-95526615D01*
X114516594Y-95393768D01*
X114583904Y-95291266D01*
X114595100Y-95259834D01*
X114631887Y-95195011D01*
X114728878Y-95075185D01*
X114866014Y-94924918D01*
X114883043Y-94907219D01*
X115143037Y-94628030D01*
X115319876Y-94414268D01*
X115412012Y-94267980D01*
X115421003Y-94195321D01*
X115352170Y-94163647D01*
X115202861Y-94130862D01*
X115006020Y-94104138D01*
X114754790Y-94070232D01*
X114500701Y-94022821D01*
X114344409Y-93984590D01*
X114127407Y-93935518D01*
X113909919Y-93906958D01*
X113838989Y-93904000D01*
X113601553Y-93881948D01*
X113279323Y-93818487D01*
X112891067Y-93717660D01*
X112671715Y-93652547D01*
X112465487Y-93600394D01*
X112217531Y-93553223D01*
X112078750Y-93533310D01*
X111857693Y-93494933D01*
X111584067Y-93430873D01*
X111311665Y-93353926D01*
X111272421Y-93341478D01*
X111049570Y-93270621D01*
X110917065Y-93233838D01*
X110857881Y-93229618D01*
X110854992Y-93256450D01*
X110887438Y-93307284D01*
X111206723Y-93841590D01*
X111417521Y-94396388D01*
X111524290Y-94985588D01*
X111540311Y-95343565D01*
X111529135Y-95687719D01*
X111489384Y-95949437D01*
X111411724Y-96157528D01*
X111286820Y-96340801D01*
X111179740Y-96456420D01*
X110948681Y-96637324D01*
X110659761Y-96792608D01*
X110355712Y-96903530D01*
X110079265Y-96951348D01*
X110049909Y-96951956D01*
X109783621Y-96928734D01*
X109491385Y-96867047D01*
X109217670Y-96778976D01*
X109006941Y-96676603D01*
X108986819Y-96663105D01*
X108808279Y-96488725D01*
X108638547Y-96236459D01*
X108497550Y-95940763D01*
X108412699Y-95670399D01*
X108337776Y-95389468D01*
X108256506Y-95203183D01*
X108153481Y-95093661D01*
X108013294Y-95043022D01*
X107863400Y-95032889D01*
X107689312Y-95040383D01*
X107589269Y-95074018D01*
X107524566Y-95150525D01*
X107504334Y-95188111D01*
X107452671Y-95326642D01*
X107398812Y-95528508D01*
X107362165Y-95708106D01*
X107260487Y-96093137D01*
X107098175Y-96392819D01*
X106864228Y-96623247D01*
X106646993Y-96754445D01*
X106466626Y-96838540D01*
X106314771Y-96888144D01*
X106150076Y-96911149D01*
X105931189Y-96915450D01*
X105813303Y-96913581D01*
X105550429Y-96902887D01*
X105360345Y-96877946D01*
X105202838Y-96830110D01*
X105037697Y-96750736D01*
X105025683Y-96744247D01*
X104704660Y-96506917D01*
X104454941Y-96182280D01*
X104324281Y-95906919D01*
X104278594Y-95753819D01*
X104253123Y-95571165D01*
X104245416Y-95330197D01*
X104251265Y-95050423D01*
X104263269Y-94772370D01*
X104282727Y-94567903D01*
X104319078Y-94397734D01*
X104381762Y-94222578D01*
X104480217Y-94003148D01*
X104526349Y-93905512D01*
X104792693Y-93418230D01*
X105099194Y-93008267D01*
X105465318Y-92656102D01*
X105910530Y-92342216D01*
X106305364Y-92121558D01*
X106509370Y-92014869D01*
X106625802Y-91945085D01*
X106668424Y-91898910D01*
X106651000Y-91863046D01*
X106603804Y-91833246D01*
X106473309Y-91777828D01*
X106392427Y-91761133D01*
X106300085Y-91736774D01*
X106142309Y-91675104D01*
X105968151Y-91596435D01*
X105750176Y-91497691D01*
X105535147Y-91409505D01*
X105404220Y-91362518D01*
X105217180Y-91288142D01*
X105006027Y-91183159D01*
X104923374Y-91135709D01*
X104706409Y-91020220D01*
X104467119Y-90915680D01*
X104388270Y-90887088D01*
X104194244Y-90816628D01*
X104021922Y-90744632D01*
X103963993Y-90716390D01*
X103864396Y-90665128D01*
X103684506Y-90574363D01*
X103445425Y-90454675D01*
X103168257Y-90316642D01*
X102998218Y-90232273D01*
X102706861Y-90085880D01*
X102440174Y-89948137D01*
X102219771Y-89830488D01*
X102067260Y-89744373D01*
X102019284Y-89713989D01*
X101888586Y-89631986D01*
X101697177Y-89523649D01*
X101486029Y-89412150D01*
X101481867Y-89410038D01*
X101268835Y-89299472D01*
X101072438Y-89193254D01*
X100934736Y-89114136D01*
X100933407Y-89113318D01*
X100810303Y-89038372D01*
X100621656Y-88924612D01*
X100399078Y-88791072D01*
X100282850Y-88721583D01*
X100032297Y-88571581D01*
X99777442Y-88418344D01*
X99560792Y-88287451D01*
X99496250Y-88248237D01*
X99318838Y-88143516D01*
X99168534Y-88060638D01*
X99091459Y-88023458D01*
X99017008Y-87981319D01*
X98864416Y-87885103D01*
X98648779Y-87744681D01*
X98385193Y-87569923D01*
X98088755Y-87370702D01*
X97969227Y-87289680D01*
X97643151Y-87068376D01*
X97324837Y-86852807D01*
X97034577Y-86656677D01*
X96792658Y-86493694D01*
X96619370Y-86377562D01*
X96592057Y-86359386D01*
X96390276Y-86221324D01*
X96201986Y-86085628D01*
X96068374Y-85982014D01*
X95913767Y-85852212D01*
X95738408Y-85704783D01*
X95693200Y-85666738D01*
X95559880Y-85564266D01*
X95456829Y-85502240D01*
X95428519Y-85493778D01*
X95356180Y-85457769D01*
X95237129Y-85365883D01*
X95160622Y-85297404D01*
X94877827Y-85040136D01*
X94612532Y-84815316D01*
X94384176Y-84638668D01*
X94212203Y-84525913D01*
X94195814Y-84517184D01*
X94043456Y-84414480D01*
X93886446Y-84273208D01*
X93854436Y-84238546D01*
X93704065Y-84099248D01*
X93539248Y-83990261D01*
X93503174Y-83973391D01*
X93344175Y-83875523D01*
X93195072Y-83734947D01*
X93176287Y-83711627D01*
X93054916Y-83577990D01*
X92882282Y-83417485D01*
X92726665Y-83289312D01*
X92418589Y-83052161D01*
X92122101Y-83322255D01*
X91968509Y-83466317D01*
X91761563Y-83666163D01*
X91526906Y-83896766D01*
X91290185Y-84133101D01*
X91259911Y-84163633D01*
X90948519Y-84473427D01*
X90621965Y-84790070D01*
X90295612Y-85099363D01*
X89984825Y-85387108D01*
X89704971Y-85639104D01*
X89471414Y-85841153D01*
X89299519Y-85979055D01*
X89279955Y-85993364D01*
X89109449Y-86127147D01*
X88953507Y-86267610D01*
X88912249Y-86310065D01*
X88760495Y-86444063D01*
X88584134Y-86559902D01*
X88572828Y-86565826D01*
X88424381Y-86653101D01*
X88230824Y-86781513D01*
X88047841Y-86913110D01*
X87835117Y-87070703D01*
X87581717Y-87255114D01*
X87339697Y-87428485D01*
X87321866Y-87441111D01*
X87112514Y-87591421D01*
X86915724Y-87736518D01*
X86767437Y-87849814D01*
X86743735Y-87868770D01*
X86593841Y-87978495D01*
X86396034Y-88108239D01*
X86253452Y-88194503D01*
X86071453Y-88302967D01*
X85831196Y-88450272D01*
X85569327Y-88613808D01*
X85404899Y-88718087D01*
X85120225Y-88893161D01*
X84783870Y-89089774D01*
X84445508Y-89279293D01*
X84245211Y-89386583D01*
X83972575Y-89531382D01*
X83706630Y-89676651D01*
X83480085Y-89804298D01*
X83340089Y-89887190D01*
X83031587Y-90063110D01*
X82646369Y-90259434D01*
X82215519Y-90462293D01*
X81770119Y-90657817D01*
X81341254Y-90832136D01*
X80960006Y-90971380D01*
X80786577Y-91026602D01*
X80653399Y-91071001D01*
X80579897Y-91125361D01*
X80542874Y-91223007D01*
X80519134Y-91397265D01*
X80517348Y-91413388D01*
X80490519Y-91649175D01*
X80462220Y-91887568D01*
X80450196Y-91984889D01*
X80441372Y-92171992D01*
X78550678Y-92171992D01*
X78552519Y-92158063D01*
X78557517Y-92021517D01*
X78559846Y-91826938D01*
X78559911Y-91786258D01*
X78559911Y-91361849D01*
X78404343Y-91399087D01*
X78283735Y-91432369D01*
X78226179Y-91455635D01*
X76096418Y-91455635D01*
X76078614Y-91409989D01*
X75966407Y-91117973D01*
X75855583Y-90825615D01*
X75756263Y-90559315D01*
X75678568Y-90345469D01*
X75659624Y-90291556D01*
X75608771Y-90123777D01*
X75545553Y-89884739D01*
X75480124Y-89613813D01*
X75448535Y-89473111D01*
X75390671Y-89218889D01*
X75334846Y-88993207D01*
X75289056Y-88827493D01*
X75269479Y-88769307D01*
X75246044Y-88688326D01*
X75219132Y-88549204D01*
X75187550Y-88342938D01*
X75150107Y-88060523D01*
X75105610Y-87692956D01*
X75052867Y-87231235D01*
X74990686Y-86666354D01*
X74989006Y-86650889D01*
X74970870Y-86406576D01*
X74959036Y-86082273D01*
X74953142Y-85699408D01*
X74952860Y-85324903D01*
X78015282Y-85324903D01*
X78045078Y-85524022D01*
X78073495Y-85655601D01*
X78122180Y-85933758D01*
X78155254Y-86246085D01*
X78164532Y-86464476D01*
X78177182Y-86719087D01*
X78209553Y-86973851D01*
X78249387Y-87153749D01*
X78301721Y-87387040D01*
X78331225Y-87637200D01*
X78333630Y-87711644D01*
X78346546Y-87919034D01*
X78380253Y-88123850D01*
X78427188Y-88296040D01*
X78479789Y-88405548D01*
X78514112Y-88428889D01*
X78593614Y-88408064D01*
X78730409Y-88356239D01*
X78773866Y-88337873D01*
X78952207Y-88266754D01*
X79174121Y-88186175D01*
X79295323Y-88145170D01*
X79605848Y-88037794D01*
X79937947Y-87912933D01*
X80273345Y-87778566D01*
X80593766Y-87642676D01*
X80880934Y-87513243D01*
X81116574Y-87398248D01*
X81282411Y-87305673D01*
X81360169Y-87243498D01*
X81360228Y-87243403D01*
X81426394Y-87197548D01*
X81562677Y-87133070D01*
X81657712Y-87094990D01*
X81831534Y-87018314D01*
X82060042Y-86902434D01*
X82302274Y-86768448D01*
X82378396Y-86723763D01*
X82583016Y-86605407D01*
X82754304Y-86513369D01*
X82867158Y-86460807D01*
X82894041Y-86453441D01*
X82979579Y-86421027D01*
X83097566Y-86343105D01*
X83099054Y-86341940D01*
X83175700Y-86284932D01*
X83270722Y-86222097D01*
X83402351Y-86142579D01*
X83588818Y-86035519D01*
X83848353Y-85890062D01*
X83990646Y-85810959D01*
X84149135Y-85715614D01*
X84364197Y-85576459D01*
X84601054Y-85416288D01*
X84726058Y-85328885D01*
X84965820Y-85160143D01*
X85207115Y-84992284D01*
X85412575Y-84851229D01*
X85490488Y-84798653D01*
X85695056Y-84656921D01*
X85927963Y-84488247D01*
X86084475Y-84370586D01*
X86265000Y-84232636D01*
X86499848Y-84054312D01*
X86752867Y-83863023D01*
X86904009Y-83749184D01*
X87134424Y-83570273D01*
X87352285Y-83391172D01*
X87528318Y-83236454D01*
X87611135Y-83155648D01*
X87785882Y-82991418D01*
X87983877Y-82835125D01*
X88044181Y-82794123D01*
X88189224Y-82683858D01*
X88407122Y-82493079D01*
X88694657Y-82224839D01*
X89048615Y-81882188D01*
X89465778Y-81468176D01*
X89839435Y-81091111D01*
X90037284Y-80873671D01*
X90244396Y-80620356D01*
X90391399Y-80420740D01*
X90546500Y-80194543D01*
X90709563Y-79957531D01*
X90835634Y-79774972D01*
X91115240Y-79465745D01*
X91457980Y-79245282D01*
X91850996Y-79118713D01*
X92281429Y-79091169D01*
X92492602Y-79113827D01*
X92739993Y-79177362D01*
X92995911Y-79294336D01*
X93273488Y-79473623D01*
X93585858Y-79724093D01*
X93946152Y-80054617D01*
X94083931Y-80188807D01*
X94282229Y-80380374D01*
X94465095Y-80549987D01*
X94609646Y-80676820D01*
X94682405Y-80733543D01*
X94790951Y-80816915D01*
X94949968Y-80952226D01*
X95128537Y-81112999D01*
X95163251Y-81145295D01*
X95387293Y-81343257D01*
X95649057Y-81557528D01*
X95892065Y-81741887D01*
X95893189Y-81742692D01*
X96121302Y-81913289D01*
X96386340Y-82122274D01*
X96641307Y-82332331D01*
X96713457Y-82393996D01*
X96911511Y-82560883D01*
X97091798Y-82705075D01*
X97228423Y-82806222D01*
X97277191Y-82837005D01*
X97387591Y-82906509D01*
X97552269Y-83022299D01*
X97737045Y-83160278D01*
X97750967Y-83171009D01*
X98035250Y-83390021D01*
X98247410Y-83551607D01*
X98404249Y-83668137D01*
X98522566Y-83751981D01*
X98619165Y-83815509D01*
X98663661Y-83842970D01*
X98783978Y-83920445D01*
X98964170Y-84041853D01*
X99172103Y-84185433D01*
X99249855Y-84239974D01*
X99466780Y-84389031D01*
X99675242Y-84525758D01*
X99839706Y-84627046D01*
X99879067Y-84649186D01*
X100030771Y-84740294D01*
X100228590Y-84871493D01*
X100424276Y-85010451D01*
X100704696Y-85207201D01*
X101052913Y-85435868D01*
X101444535Y-85681836D01*
X101855170Y-85930486D01*
X102260427Y-86167202D01*
X102635914Y-86377366D01*
X102957240Y-86546361D01*
X103111358Y-86620755D01*
X103335588Y-86728520D01*
X103541000Y-86835625D01*
X103688552Y-86921561D01*
X103705345Y-86932777D01*
X103801254Y-86989760D01*
X103971536Y-87082004D01*
X104196752Y-87199770D01*
X104457461Y-87333324D01*
X104734223Y-87472926D01*
X105007598Y-87608841D01*
X105258144Y-87731332D01*
X105466423Y-87830660D01*
X105612993Y-87897090D01*
X105678134Y-87920889D01*
X105741035Y-87943645D01*
X105883960Y-88005410D01*
X106084891Y-88096427D01*
X106294023Y-88193824D01*
X106673205Y-88368377D01*
X107042740Y-88530951D01*
X107381812Y-88672932D01*
X107669605Y-88785704D01*
X107885304Y-88860651D01*
X107948107Y-88878455D01*
X108086277Y-88924125D01*
X108282613Y-89002100D01*
X108485523Y-89091391D01*
X108786614Y-89219671D01*
X109144603Y-89355345D01*
X109513847Y-89482315D01*
X109848705Y-89584480D01*
X109984632Y-89620179D01*
X110170420Y-89672791D01*
X110396240Y-89746788D01*
X110522049Y-89792100D01*
X110768279Y-89875253D01*
X111038045Y-89952784D01*
X111153510Y-89981099D01*
X111351929Y-90030121D01*
X111614760Y-90101026D01*
X111898464Y-90181898D01*
X112030347Y-90221083D01*
X112451773Y-90344786D01*
X112780015Y-90432830D01*
X113028150Y-90488324D01*
X113209255Y-90514374D01*
X113276642Y-90517334D01*
X113408484Y-90533121D01*
X113603578Y-90574313D01*
X113799104Y-90626208D01*
X113988078Y-90678255D01*
X114189507Y-90725868D01*
X114426396Y-90773568D01*
X114721751Y-90825878D01*
X115098579Y-90887317D01*
X115245657Y-90910512D01*
X115486200Y-90951493D01*
X115741952Y-90999759D01*
X115811358Y-91013881D01*
X115989059Y-91042319D01*
X116240878Y-91071569D01*
X116527907Y-91097473D01*
X116716481Y-91110640D01*
X116992977Y-91131163D01*
X117247594Y-91156751D01*
X117446781Y-91183677D01*
X117536748Y-91201723D01*
X117661154Y-91223263D01*
X117873758Y-91247510D01*
X118149729Y-91272132D01*
X118464239Y-91294797D01*
X118639866Y-91305319D01*
X119017493Y-91329153D01*
X119307044Y-91355380D01*
X119533578Y-91387691D01*
X119722152Y-91429781D01*
X119897825Y-91485343D01*
X119922863Y-91494424D01*
X120174225Y-91604238D01*
X120459286Y-91756637D01*
X120754785Y-91936046D01*
X121037460Y-92126890D01*
X121284047Y-92313593D01*
X121471286Y-92480580D01*
X121565860Y-92594503D01*
X121657200Y-92735832D01*
X121790895Y-92934522D01*
X121943583Y-93156040D01*
X122005790Y-93244790D01*
X122150197Y-93447597D01*
X122245403Y-93570063D01*
X122306821Y-93624515D01*
X122349863Y-93623279D01*
X122389942Y-93578684D01*
X122401781Y-93561504D01*
X122499847Y-93436626D01*
X122627951Y-93295500D01*
X122644698Y-93278522D01*
X122802760Y-93120282D01*
X122115676Y-92454560D01*
X121838883Y-92180727D01*
X121546740Y-91882153D01*
X121268283Y-91589109D01*
X121032547Y-91331862D01*
X120962008Y-91251864D01*
X120714498Y-90946271D01*
X120452273Y-90585815D01*
X120183525Y-90185256D01*
X119916443Y-89759354D01*
X119659220Y-89322868D01*
X119420045Y-88890560D01*
X119207110Y-88477188D01*
X119028604Y-88097513D01*
X118892720Y-87766295D01*
X118807646Y-87498294D01*
X118781291Y-87322132D01*
X118766616Y-87204819D01*
X118727795Y-87016333D01*
X118672639Y-86793794D01*
X118661434Y-86752456D01*
X118575418Y-86270317D01*
X118582126Y-85808544D01*
X118676210Y-85380304D01*
X118852322Y-84998762D01*
X119105113Y-84677083D01*
X119429234Y-84428432D01*
X119648583Y-84322556D01*
X119969985Y-84236722D01*
X120355619Y-84196811D01*
X120765912Y-84203853D01*
X121161286Y-84258879D01*
X121255022Y-84280729D01*
X121828635Y-84460729D01*
X122343896Y-84698458D01*
X122830273Y-85010295D01*
X123317232Y-85412617D01*
X123356779Y-85448909D01*
X123661219Y-85730195D01*
X123629728Y-85428542D01*
X123576851Y-84993871D01*
X123513386Y-84588476D01*
X123444596Y-84243318D01*
X123396185Y-84054445D01*
X123277096Y-83634831D01*
X123181926Y-83271602D01*
X123133733Y-83066667D01*
X123066496Y-82833997D01*
X122952532Y-82522160D01*
X122800844Y-82150236D01*
X122620432Y-81737303D01*
X122420300Y-81302440D01*
X122209448Y-80864725D01*
X121996878Y-80443236D01*
X121791592Y-80057053D01*
X121602593Y-79725255D01*
X121438881Y-79466918D01*
X121427599Y-79450644D01*
X121289265Y-79245497D01*
X121164176Y-79047573D01*
X121077971Y-78897539D01*
X121074003Y-78889778D01*
X120975699Y-78722258D01*
X120869311Y-78577910D01*
X120859667Y-78567089D01*
X120763329Y-78443232D01*
X120649263Y-78271294D01*
X120596727Y-78183577D01*
X120491728Y-78027423D01*
X120333752Y-77823972D01*
X120149185Y-77606382D01*
X120053271Y-77500600D01*
X119581131Y-76996325D01*
X119181371Y-76576009D01*
X118852478Y-76238124D01*
X118592939Y-75981142D01*
X118401242Y-75803535D01*
X118275874Y-75703775D01*
X118272160Y-75701345D01*
X118112455Y-75584979D01*
X117929411Y-75433322D01*
X117842798Y-75354768D01*
X117707738Y-75236066D01*
X117531294Y-75092983D01*
X117336199Y-74942438D01*
X117145188Y-74801349D01*
X116980994Y-74686633D01*
X116866351Y-74615210D01*
X116828582Y-74600000D01*
X116767452Y-74571384D01*
X116637154Y-74495456D01*
X116462945Y-74387091D01*
X116415251Y-74356520D01*
X116079187Y-74156997D01*
X115654380Y-73935269D01*
X115133642Y-73687726D01*
X114679955Y-73484770D01*
X114270923Y-73329832D01*
X113786873Y-73185453D01*
X113265919Y-73060899D01*
X112746176Y-72965438D01*
X112332294Y-72913954D01*
X111838408Y-72863707D01*
X111441256Y-72809058D01*
X111124434Y-72744799D01*
X110871539Y-72665718D01*
X110666167Y-72566608D01*
X110491914Y-72442257D01*
X110332378Y-72287457D01*
X110321276Y-72275278D01*
X110098165Y-71985260D01*
X109964874Y-71692667D01*
X109908863Y-71361812D01*
X109908355Y-71100307D01*
X109917459Y-70963295D01*
X112106013Y-70963295D01*
X112153858Y-70990689D01*
X112268273Y-71030244D01*
X112405582Y-71068762D01*
X112522106Y-71093044D01*
X112543017Y-71095354D01*
X112586714Y-71058061D01*
X112579615Y-70929395D01*
X112577319Y-70917000D01*
X112549908Y-70787365D01*
X112530298Y-70718761D01*
X112529293Y-70717151D01*
X112478872Y-70732325D01*
X112372638Y-70787056D01*
X112249288Y-70858841D01*
X112147518Y-70925179D01*
X112106013Y-70963295D01*
X109917459Y-70963295D01*
X109923984Y-70865103D01*
X109954687Y-70697320D01*
X110014976Y-70551494D01*
X110119366Y-70382157D01*
X110153910Y-70331034D01*
X110521634Y-69869444D01*
X110806519Y-69598429D01*
X114966081Y-69598429D01*
X115057947Y-69657849D01*
X115249310Y-69682789D01*
X115358797Y-69683771D01*
X115641648Y-69679938D01*
X115358797Y-69546989D01*
X115174953Y-69462180D01*
X115067737Y-69422645D01*
X115011495Y-69425398D01*
X114980574Y-69467453D01*
X114966942Y-69501376D01*
X114966081Y-69598429D01*
X110806519Y-69598429D01*
X110951622Y-69460391D01*
X111057733Y-69376381D01*
X111261346Y-69221423D01*
X111038802Y-69122008D01*
X110862349Y-69058081D01*
X110617831Y-68995644D01*
X110291855Y-68931862D01*
X109871027Y-68863899D01*
X109701781Y-68839022D01*
X109463286Y-68801223D01*
X109223977Y-68757943D01*
X109107795Y-68734188D01*
X108956704Y-68714447D01*
X108717399Y-68699021D01*
X108411865Y-68687909D01*
X108062089Y-68681111D01*
X107690054Y-68678626D01*
X107317748Y-68680454D01*
X106967156Y-68686596D01*
X106660262Y-68697049D01*
X106419054Y-68711815D01*
X106265516Y-68730893D01*
X106251002Y-68734230D01*
X106064072Y-68775580D01*
X105829661Y-68818614D01*
X105685300Y-68841283D01*
X105136548Y-68924692D01*
X104682254Y-69004044D01*
X104304001Y-69082994D01*
X103983372Y-69165199D01*
X103846616Y-69206228D01*
X103627067Y-69272588D01*
X103443534Y-69322872D01*
X103326741Y-69348839D01*
X103308229Y-69350667D01*
X103193732Y-69373994D01*
X102991940Y-69439809D01*
X102717613Y-69541866D01*
X102385510Y-69673916D01*
X102010390Y-69829711D01*
X101607012Y-70003005D01*
X101190136Y-70187549D01*
X100774520Y-70377096D01*
X100374924Y-70565398D01*
X100006106Y-70746207D01*
X99977664Y-70760518D01*
X99640636Y-70926915D01*
X99377697Y-71044062D01*
X99163938Y-71117358D01*
X98974445Y-71152199D01*
X98784309Y-71153982D01*
X98568619Y-71128106D01*
X98409614Y-71100257D01*
X98229543Y-71049223D01*
X97976696Y-70953910D01*
X97676751Y-70825660D01*
X97355384Y-70675818D01*
X97038274Y-70515727D01*
X96832071Y-70403352D01*
X96513658Y-70239568D01*
X96126510Y-70065656D01*
X95711633Y-69898945D01*
X95310035Y-69756766D01*
X95276392Y-69745909D01*
X94959053Y-69644318D01*
X94702879Y-69563747D01*
X94488007Y-69500334D01*
X94294576Y-69450218D01*
X94102725Y-69409535D01*
X93892592Y-69374424D01*
X93644316Y-69341022D01*
X93338036Y-69305467D01*
X92953889Y-69263897D01*
X92607982Y-69227009D01*
X92234570Y-69195303D01*
X91900249Y-69188325D01*
X91547325Y-69206132D01*
X91306869Y-69228301D01*
X90878941Y-69275075D01*
X90488453Y-69323070D01*
X90150695Y-69370019D01*
X89880953Y-69413656D01*
X89694519Y-69451714D01*
X89609609Y-69479920D01*
X89519219Y-69513301D01*
X89359667Y-69553931D01*
X89243295Y-69578029D01*
X88962395Y-69649781D01*
X88606430Y-69769199D01*
X88197705Y-69926462D01*
X87758528Y-70111750D01*
X87311203Y-70315241D01*
X86878037Y-70527114D01*
X86481336Y-70737547D01*
X86143405Y-70936720D01*
X86112026Y-70956717D01*
X85754758Y-71186803D01*
X85481563Y-71363904D01*
X85281096Y-71495692D01*
X85142008Y-71589835D01*
X85052953Y-71654006D01*
X85002582Y-71695874D01*
X84980439Y-71721631D01*
X84917309Y-71781731D01*
X84789090Y-71880031D01*
X84651600Y-71976108D01*
X84418757Y-72141877D01*
X84175684Y-72330449D01*
X83946309Y-72521648D01*
X83754558Y-72695294D01*
X83624357Y-72831213D01*
X83599906Y-72863002D01*
X83522937Y-72956846D01*
X83387150Y-73106675D01*
X83214149Y-73289072D01*
X83085523Y-73420516D01*
X82760096Y-73760529D01*
X82429725Y-74126602D01*
X82121836Y-74487296D01*
X81863856Y-74811172D01*
X81812694Y-74879551D01*
X81676027Y-75061062D01*
X81515344Y-75268952D01*
X81431007Y-75375846D01*
X81291086Y-75568240D01*
X81164578Y-75770104D01*
X81110167Y-75872846D01*
X81023421Y-76034779D01*
X80896701Y-76245287D01*
X80756053Y-76461270D01*
X80743204Y-76480083D01*
X80560745Y-76766941D01*
X80353191Y-77128053D01*
X80130921Y-77541997D01*
X79904315Y-77987349D01*
X79683751Y-78442687D01*
X79479608Y-78886586D01*
X79302265Y-79297625D01*
X79162101Y-79654379D01*
X79069890Y-79934000D01*
X79031192Y-80062807D01*
X78967537Y-80263831D01*
X78890016Y-80502286D01*
X78853961Y-80611334D01*
X78638881Y-81307704D01*
X78469517Y-81975338D01*
X78338915Y-82649802D01*
X78240127Y-83366666D01*
X78170067Y-84110889D01*
X78143412Y-84396332D01*
X78109962Y-84669384D01*
X78074707Y-84892480D01*
X78052551Y-84995347D01*
X78018257Y-85163936D01*
X78015282Y-85324903D01*
X74952860Y-85324903D01*
X74952826Y-85279409D01*
X74957725Y-84843702D01*
X74967477Y-84413715D01*
X74981718Y-84010875D01*
X75000086Y-83656609D01*
X75022219Y-83372344D01*
X75047745Y-83179556D01*
X75080836Y-82989797D01*
X75121622Y-82728319D01*
X75163974Y-82435446D01*
X75189323Y-82248222D01*
X75233659Y-81928754D01*
X75284886Y-81587801D01*
X75334896Y-81278367D01*
X75357720Y-81147556D01*
X75399673Y-80924673D01*
X75442072Y-80724733D01*
X75490767Y-80527620D01*
X75551610Y-80313216D01*
X75630450Y-80061404D01*
X75733140Y-79752066D01*
X75865530Y-79365087D01*
X75932285Y-79172000D01*
X76015097Y-78922040D01*
X76092682Y-78669494D01*
X76148580Y-78468000D01*
X76149619Y-78463831D01*
X76208354Y-78280510D01*
X76303182Y-78040444D01*
X76416803Y-77786417D01*
X76456709Y-77704332D01*
X76559595Y-77493369D01*
X76639834Y-77320529D01*
X76686153Y-77210523D01*
X76693095Y-77186120D01*
X76718627Y-77104861D01*
X76788574Y-76944150D01*
X76892962Y-76723522D01*
X77021818Y-76462514D01*
X77165166Y-76180663D01*
X77313035Y-75897504D01*
X77455449Y-75632575D01*
X77582435Y-75405412D01*
X77684020Y-75235551D01*
X77706686Y-75200721D01*
X77844582Y-74992986D01*
X77971923Y-74797969D01*
X78064381Y-74652987D01*
X78074709Y-74636277D01*
X78188239Y-74456550D01*
X78340545Y-74222749D01*
X78514117Y-73960959D01*
X78691448Y-73697270D01*
X78855029Y-73457769D01*
X78987350Y-73268546D01*
X79052837Y-73178869D01*
X79226117Y-72956220D01*
X79404974Y-72735729D01*
X79574167Y-72535113D01*
X79718455Y-72372085D01*
X79822596Y-72264364D01*
X79869723Y-72229334D01*
X79923815Y-72184386D01*
X79994515Y-72075137D01*
X80000011Y-72064705D01*
X80083946Y-71932832D01*
X80213260Y-71761180D01*
X80325119Y-71627260D01*
X80461254Y-71478523D01*
X80643103Y-71288557D01*
X80856276Y-71071460D01*
X81086379Y-70841329D01*
X81319024Y-70612262D01*
X81539817Y-70398355D01*
X81734369Y-70213707D01*
X81888288Y-70072413D01*
X81987183Y-69988572D01*
X82015348Y-69971556D01*
X82079963Y-69937121D01*
X82201384Y-69847200D01*
X82341055Y-69731667D01*
X82535448Y-69569863D01*
X82800158Y-69358438D01*
X83113849Y-69113959D01*
X83455187Y-68852992D01*
X83802836Y-68592105D01*
X83925613Y-68501257D01*
X84090491Y-68387119D01*
X84225721Y-68306704D01*
X84298694Y-68278222D01*
X84386569Y-68239729D01*
X84470930Y-68165953D01*
X84552102Y-68107097D01*
X84714395Y-68011556D01*
X84936331Y-67890225D01*
X85196431Y-67754001D01*
X85473218Y-67613779D01*
X85745212Y-67480454D01*
X85990934Y-67364924D01*
X86188908Y-67278082D01*
X86310022Y-67233007D01*
X86436215Y-67185305D01*
X86618112Y-67104742D01*
X86772801Y-67030248D01*
X86984364Y-66933038D01*
X87192754Y-66851089D01*
X87310218Y-66813957D01*
X87472077Y-66767643D01*
X87694283Y-66698087D01*
X87930558Y-66619805D01*
X87945623Y-66614650D01*
X88201012Y-66537128D01*
X88465946Y-66472649D01*
X88681035Y-66435464D01*
X88875110Y-66406959D01*
X89033381Y-66371816D01*
X89095293Y-66349830D01*
X89196295Y-66311211D01*
X89364126Y-66266996D01*
X89611271Y-66214443D01*
X89950217Y-66150810D01*
X90213363Y-66104345D01*
X90541527Y-66062943D01*
X90956571Y-66034498D01*
X91433007Y-66018797D01*
X91945346Y-66015630D01*
X92468099Y-66024784D01*
X92975779Y-66046047D01*
X93442898Y-66079208D01*
X93843966Y-66124054D01*
X93918708Y-66135139D01*
X94224502Y-66185672D01*
X94517439Y-66238884D01*
X94764778Y-66288533D01*
X94933779Y-66328378D01*
X94936971Y-66329265D01*
X95169234Y-66388192D01*
X95428349Y-66445384D01*
X95530957Y-66465348D01*
X95769827Y-66515789D01*
X96022709Y-66584638D01*
X96321994Y-66681420D01*
X96605790Y-66781457D01*
X96775341Y-66843729D01*
X96928095Y-66903329D01*
X97085993Y-66969982D01*
X97270976Y-67053411D01*
X97504985Y-67163341D01*
X97809963Y-67309496D01*
X97954305Y-67379104D01*
X98722635Y-67749986D01*
X99475987Y-67423727D01*
X99758757Y-67300065D01*
X100015974Y-67185373D01*
X100224018Y-67090341D01*
X100359271Y-67025658D01*
X100383377Y-67013083D01*
X100608723Y-66903305D01*
X100902214Y-66779210D01*
X101222981Y-66656699D01*
X101530158Y-66551672D01*
X101697104Y-66501968D01*
X101950261Y-66425583D01*
X102238606Y-66328254D01*
X102460801Y-66245954D01*
X102709497Y-66160566D01*
X102969272Y-66090429D01*
X103167928Y-66053173D01*
X103395296Y-66016182D01*
X103618279Y-65964927D01*
X103705345Y-65938820D01*
X104044802Y-65844315D01*
X104476810Y-65756548D01*
X104980893Y-65677175D01*
X105536578Y-65607853D01*
X106123388Y-65550238D01*
X106720850Y-65505987D01*
X107308487Y-65476756D01*
X107865826Y-65464202D01*
X108372391Y-65469981D01*
X108807708Y-65495749D01*
X108966369Y-65513191D01*
X109206942Y-65543117D01*
X109507998Y-65578730D01*
X109817499Y-65613922D01*
X109928062Y-65626084D01*
X110208969Y-65661834D01*
X110483881Y-65705670D01*
X110709485Y-65750351D01*
X110785321Y-65769348D01*
X110985842Y-65817043D01*
X111168325Y-65846500D01*
X111237882Y-65851100D01*
X111378629Y-65868443D01*
X111576654Y-65913335D01*
X111738307Y-65960272D01*
X111987036Y-66039691D01*
X112268581Y-66128732D01*
X112445434Y-66184196D01*
X112757065Y-66284952D01*
X113084089Y-66396658D01*
X113401975Y-66510331D01*
X113686194Y-66616990D01*
X113912216Y-66707654D01*
X114055511Y-66773340D01*
X114057683Y-66774510D01*
X114194932Y-66837901D01*
X114296948Y-66866620D01*
X114301032Y-66866764D01*
X114384249Y-66891569D01*
X114536404Y-66956772D01*
X114726899Y-67049101D01*
X114757270Y-67064667D01*
X114946245Y-67159351D01*
X115096472Y-67229273D01*
X115179806Y-67261442D01*
X115185363Y-67262222D01*
X115253628Y-67289592D01*
X115388208Y-67361238D01*
X115554449Y-67458358D01*
X115772793Y-67584183D01*
X116037260Y-67727375D01*
X116291502Y-67857445D01*
X116297261Y-67860275D01*
X116556830Y-68001013D01*
X116843974Y-68177004D01*
X117099064Y-68351581D01*
X117112472Y-68361527D01*
X117315905Y-68508812D01*
X117506302Y-68638898D01*
X117650201Y-68729134D01*
X117678173Y-68744469D01*
X117889449Y-68889706D01*
X118071490Y-69101283D01*
X118233029Y-69378889D01*
X118377672Y-69750399D01*
X118422939Y-70114312D01*
X118383294Y-70462896D01*
X118277638Y-70834053D01*
X118134250Y-71120224D01*
X117963294Y-71305949D01*
X117820137Y-71410889D01*
X118003721Y-71531040D01*
X118423431Y-71806640D01*
X118750445Y-72023382D01*
X118983849Y-72180658D01*
X119120712Y-72276378D01*
X119257256Y-72372860D01*
X119429530Y-72490431D01*
X119488418Y-72529750D01*
X119705296Y-72688980D01*
X119982716Y-72916245D01*
X120304740Y-73196386D01*
X120655430Y-73514249D01*
X121018848Y-73854678D01*
X121379054Y-74202516D01*
X121720111Y-74542607D01*
X122026080Y-74859795D01*
X122281023Y-75138924D01*
X122466707Y-75361855D01*
X122625882Y-75567255D01*
X122807419Y-75799748D01*
X122924855Y-75949161D01*
X123260060Y-76380472D01*
X123547384Y-76766379D01*
X123814578Y-77145433D01*
X124089395Y-77556186D01*
X124163145Y-77669272D01*
X124282639Y-77865587D01*
X124436775Y-78137148D01*
X124615330Y-78464132D01*
X124808080Y-78826713D01*
X125004803Y-79205066D01*
X125195273Y-79579367D01*
X125369267Y-79929791D01*
X125516562Y-80236512D01*
X125626934Y-80479707D01*
X125680374Y-80611334D01*
X125763593Y-80835395D01*
X125859194Y-81087049D01*
X125904428Y-81204000D01*
X125982019Y-81414480D01*
X126049177Y-81616365D01*
X126076961Y-81712000D01*
X126122740Y-81865850D01*
X126193276Y-82079040D01*
X126273028Y-82304667D01*
X126352128Y-82548116D01*
X126416752Y-82796200D01*
X126450917Y-82982000D01*
X126488507Y-83201256D01*
X126543186Y-83414681D01*
X126564344Y-83477031D01*
X126618034Y-83664423D01*
X126644079Y-83843554D01*
X126644543Y-83863455D01*
X126661504Y-84015011D01*
X126705082Y-84218511D01*
X126743541Y-84356202D01*
X126771009Y-84456947D01*
X126792957Y-84571832D01*
X126809969Y-84714047D01*
X126822628Y-84896782D01*
X126831520Y-85133226D01*
X126837228Y-85436568D01*
X126840336Y-85820000D01*
X126841429Y-86296710D01*
X126841406Y-86566222D01*
X126841192Y-87074900D01*
X126840219Y-87486078D01*
X126836976Y-87815143D01*
X126829957Y-88077480D01*
X126817652Y-88288478D01*
X126798553Y-88463522D01*
X126771151Y-88617999D01*
X126733937Y-88767296D01*
X126685404Y-88926798D01*
X126624041Y-89111893D01*
X126578531Y-89247334D01*
X126526916Y-89410519D01*
X126467298Y-89611057D01*
X126450286Y-89670667D01*
X126278214Y-90127284D01*
X126045286Y-90498086D01*
X125755912Y-90777051D01*
X125548592Y-90901975D01*
X125333718Y-91006259D01*
X125720813Y-91209219D01*
X125990689Y-91362272D01*
X126183059Y-91506999D01*
X126327145Y-91672536D01*
X126452170Y-91888018D01*
X126498821Y-91984889D01*
X126582767Y-92195182D01*
X126627606Y-92401697D01*
X126643403Y-92656031D01*
X126643990Y-92729103D01*
X126636784Y-92961333D01*
X126617285Y-93167686D01*
X126589556Y-93306640D01*
X126586673Y-93314745D01*
X126527227Y-93428494D01*
X126414347Y-93609632D01*
X126263230Y-93835800D01*
X126089072Y-94084640D01*
X125907070Y-94333793D01*
X125786447Y-94492158D01*
X125671179Y-94653754D01*
X125572451Y-94812849D01*
X125571580Y-94814427D01*
X125493975Y-94923567D01*
X125347936Y-95099295D01*
X125145393Y-95328734D01*
X124898272Y-95599006D01*
X124618500Y-95897235D01*
X124318006Y-96210543D01*
X124008717Y-96526052D01*
X123717037Y-96816659D01*
X123137193Y-97386873D01*
X123135092Y-98001992D01*
X123121987Y-98701169D01*
X123086940Y-99301599D01*
X123028635Y-99815534D01*
X122945758Y-100255222D01*
X122860007Y-100564445D01*
X122773243Y-100832388D01*
X122688271Y-101095471D01*
X122618596Y-101311851D01*
X122595816Y-101382889D01*
X122490585Y-101671638D01*
X122345564Y-102014670D01*
X122174781Y-102383462D01*
X121992263Y-102749493D01*
X121812039Y-103084239D01*
X121648135Y-103359178D01*
X121561095Y-103486783D01*
X121195095Y-103966875D01*
X120865824Y-104361384D01*
X120557089Y-104684506D01*
X120252699Y-104950434D01*
X119936461Y-105173366D01*
X119592182Y-105367495D01*
X119217947Y-105540930D01*
X118975563Y-105644611D01*
X118754978Y-105739070D01*
X118588455Y-105810486D01*
X118531753Y-105834871D01*
X118439595Y-105891382D01*
X118361666Y-105987086D01*
X118282477Y-106146290D01*
X118201118Y-106353706D01*
X118112699Y-106592036D01*
X118029045Y-106817041D01*
X117965809Y-106986632D01*
X117957011Y-107010138D01*
X117902133Y-107140078D01*
X117809688Y-107342580D01*
X117693226Y-107589495D01*
X117566298Y-107852674D01*
X117442454Y-108103967D01*
X117335243Y-108315226D01*
X117269467Y-108438445D01*
X117222215Y-108529329D01*
X117136789Y-108699469D01*
X117024309Y-108926512D01*
X116895897Y-109188103D01*
X116862310Y-109256889D01*
X116713489Y-109555098D01*
X116558462Y-109854082D01*
X116415003Y-110120233D01*
X116300883Y-110319939D01*
X116295200Y-110329334D01*
X116144444Y-110577746D01*
X115978398Y-110851899D01*
X115856932Y-111052833D01*
X115686302Y-111326831D01*
X115472244Y-111657783D01*
X115236030Y-112013909D01*
X114998934Y-112363431D01*
X114782229Y-112674570D01*
X114634537Y-112878946D01*
X114473700Y-113095825D01*
X114288105Y-113346196D01*
X114132436Y-113556279D01*
X113957333Y-113786166D01*
X113762078Y-114032823D01*
X113604699Y-114224000D01*
X113452052Y-114407378D01*
X113260557Y-114642055D01*
X113060900Y-114890276D01*
X112962418Y-115014222D01*
X112787854Y-115228048D01*
X112579034Y-115470105D01*
X112327036Y-115750110D01*
X112022936Y-116077783D01*
X111657811Y-116462841D01*
X111222739Y-116915001D01*
X111116035Y-117025185D01*
X110934568Y-117212555D01*
X110718022Y-117436394D01*
X110509788Y-117651846D01*
X110486957Y-117675485D01*
X110287142Y-117873182D01*
X110039362Y-118105063D01*
X109783525Y-118334200D01*
X109661701Y-118439041D01*
X109182671Y-118844083D01*
X109145363Y-120160597D01*
X109136796Y-120524971D01*
X109128914Y-120979652D01*
X109121951Y-121502058D01*
X109116138Y-122069608D01*
X109111708Y-122659720D01*
X109108893Y-123249814D01*
X109107925Y-123800378D01*
X109107795Y-126123644D01*
X109602784Y-126157004D01*
X109894121Y-126181137D01*
X110203163Y-126213826D01*
X110468203Y-126248467D01*
X110493764Y-126252385D01*
X110767356Y-126291160D01*
X111078755Y-126329341D01*
X111315830Y-126354261D01*
X111531566Y-126379229D01*
X111707122Y-126408289D01*
X111808418Y-126435659D01*
X111814432Y-126438839D01*
X111896567Y-126462521D01*
X112066338Y-126493814D01*
X112298853Y-126528622D01*
X112565414Y-126562407D01*
X112839626Y-126597838D01*
X113079709Y-126635432D01*
X113259193Y-126670616D01*
X113350064Y-126697960D01*
X113474413Y-126734692D01*
X113647786Y-126753867D01*
X113688075Y-126754667D01*
X113891051Y-126774532D01*
X114082905Y-126823169D01*
X114103671Y-126831284D01*
X114264235Y-126880669D01*
X114479789Y-126925438D01*
X114625128Y-126946375D01*
X114813730Y-126969933D01*
X115004105Y-126999023D01*
X115222628Y-127038440D01*
X115495673Y-127092976D01*
X115849615Y-127167424D01*
X115896213Y-127177375D01*
X116122876Y-127224444D01*
X116335832Y-127266365D01*
X116461915Y-127289342D01*
X116618332Y-127320360D01*
X116819557Y-127369443D01*
X117083727Y-127441421D01*
X117428982Y-127541125D01*
X117621603Y-127598098D01*
X117833371Y-127656673D01*
X118014668Y-127699021D01*
X118127712Y-127716364D01*
X118130735Y-127716417D01*
X118234538Y-127732424D01*
X118413824Y-127774639D01*
X118636218Y-127835175D01*
X118724721Y-127861167D01*
X118984666Y-127934704D01*
X119242668Y-128000370D01*
X119451419Y-128046282D01*
X119488418Y-128052956D01*
X119674454Y-128094472D01*
X119921682Y-128163250D01*
X120185479Y-128246589D01*
X120266152Y-128274276D01*
X120494150Y-128351022D01*
X120688476Y-128410428D01*
X120819803Y-128443791D01*
X120851589Y-128448000D01*
X120964090Y-128470033D01*
X121112652Y-128523400D01*
X121120403Y-128526789D01*
X121407107Y-128642770D01*
X121770133Y-128773033D01*
X122175741Y-128905710D01*
X122345211Y-128957658D01*
X122777623Y-129094025D01*
X123233663Y-129249249D01*
X123692793Y-129415373D01*
X124134472Y-129584437D01*
X124538159Y-129748483D01*
X124883316Y-129899552D01*
X125149402Y-130029684D01*
X125234102Y-130077049D01*
X125407783Y-130165878D01*
X125625893Y-130259065D01*
X125743233Y-130302474D01*
X126155229Y-130464931D01*
X126601230Y-130675375D01*
X127029448Y-130908200D01*
X127273040Y-131058957D01*
X127494446Y-131195034D01*
X127720906Y-131318525D01*
X127904751Y-131403501D01*
X127910475Y-131405705D01*
X128135914Y-131513908D01*
X128414222Y-131680533D01*
X128717125Y-131885327D01*
X129016353Y-132108039D01*
X129283635Y-132328415D01*
X129490699Y-132526203D01*
X129520412Y-132559001D01*
X129732035Y-132883105D01*
X129846248Y-133256500D01*
X129861135Y-133667930D01*
X129780728Y-134086456D01*
X129672650Y-134340353D01*
X129496419Y-134567880D01*
X129431187Y-134632923D01*
X129169959Y-134882667D01*
X127367520Y-134882667D01*
X126567613Y-134383427D01*
X126280777Y-134209900D01*
X125957987Y-134023774D01*
X125615535Y-133833497D01*
X125269713Y-133647515D01*
X124936814Y-133474276D01*
X124633130Y-133322228D01*
X124374953Y-133199817D01*
X124178576Y-133115492D01*
X124060291Y-133077700D01*
X124046906Y-133076466D01*
X123952599Y-133052387D01*
X123793840Y-132989452D01*
X123618040Y-132907590D01*
X123427685Y-132819642D01*
X123166628Y-132708134D01*
X122870546Y-132587939D01*
X122599777Y-132483181D01*
X122310771Y-132372116D01*
X122031597Y-132260825D01*
X121794850Y-132162535D01*
X121638084Y-132092851D01*
X121428015Y-132003034D01*
X121215628Y-131927974D01*
X121128953Y-131903664D01*
X120947642Y-131854626D01*
X120719669Y-131785749D01*
X120563251Y-131734910D01*
X120229382Y-131624319D01*
X119892746Y-131516209D01*
X119572337Y-131416324D01*
X119287152Y-131330408D01*
X119056182Y-131264207D01*
X118898423Y-131223465D01*
X118837862Y-131213061D01*
X118735045Y-131197690D01*
X118574320Y-131157411D01*
X118498441Y-131134876D01*
X117772690Y-130919086D01*
X117122842Y-130749311D01*
X116524571Y-130619200D01*
X116518485Y-130618024D01*
X116158232Y-130547443D01*
X115886973Y-130491395D01*
X115682310Y-130444649D01*
X115521843Y-130401974D01*
X115383174Y-130358138D01*
X115337542Y-130342229D01*
X115118099Y-130274786D01*
X114975151Y-130262417D01*
X114885431Y-130306936D01*
X114837938Y-130381222D01*
X114753468Y-130519178D01*
X114606438Y-130714061D01*
X114415763Y-130944467D01*
X114200353Y-131188993D01*
X113979123Y-131426235D01*
X113770985Y-131634790D01*
X113594851Y-131793254D01*
X113578572Y-131806445D01*
X113381049Y-131970495D01*
X113193570Y-132136639D01*
X113054619Y-132270691D01*
X113047560Y-132278143D01*
X112894043Y-132411510D01*
X112691331Y-132549993D01*
X112558574Y-132624629D01*
X112366300Y-132726912D01*
X112120546Y-132864953D01*
X111863792Y-133014705D01*
X111769520Y-133071289D01*
X111529940Y-133207982D01*
X111292656Y-133329028D01*
X111095346Y-133415730D01*
X111028875Y-133438788D01*
X110811974Y-133513736D01*
X110595855Y-133604363D01*
X110545100Y-133628980D01*
X110351984Y-133714574D01*
X110124583Y-133798515D01*
X110037371Y-133826120D01*
X109806277Y-133903177D01*
X109567606Y-133995620D01*
X109493055Y-134028021D01*
X109291624Y-134105967D01*
X109043889Y-134183487D01*
X108874615Y-134227008D01*
X108621117Y-134289187D01*
X108331260Y-134367032D01*
X108117817Y-134428807D01*
X107864001Y-134498107D01*
X107599867Y-134558411D01*
X107410690Y-134592240D01*
X107191439Y-134638382D01*
X106983922Y-134706764D01*
X106901559Y-134745100D01*
X106871258Y-134760458D01*
X106834982Y-134774326D01*
X106787029Y-134786792D01*
X106721700Y-134797944D01*
X106633292Y-134807872D01*
X106516104Y-134816665D01*
X106364436Y-134824410D01*
X106172587Y-134831197D01*
X105934854Y-134837116D01*
X105645538Y-134842253D01*
X105298936Y-134846700D01*
X104889349Y-134850543D01*
X104411074Y-134853872D01*
X103858411Y-134856776D01*
X103225658Y-134859344D01*
X102507115Y-134861664D01*
X101697081Y-134863825D01*
X100789853Y-134865916D01*
X99779732Y-134868026D01*
X98896882Y-134869781D01*
X91090200Y-134885117D01*
X90609354Y-134748805D01*
X90327792Y-134670964D01*
X89994399Y-134581722D01*
X89667233Y-134496545D01*
X89562806Y-134470018D01*
X89056680Y-134339461D01*
X88646431Y-134226361D01*
X88316976Y-134126135D01*
X88053229Y-134034200D01*
X87844723Y-133948073D01*
X87664225Y-133872885D01*
X87515194Y-133822586D01*
X87448731Y-133809671D01*
X87350168Y-133786321D01*
X87189690Y-133726418D01*
X87045434Y-133662883D01*
X86818763Y-133564552D01*
X86581259Y-133473897D01*
X86463735Y-133434920D01*
X86248808Y-133353199D01*
X86017449Y-133240830D01*
X85926319Y-133188387D01*
X85731352Y-133070603D01*
X85538715Y-132958299D01*
X85461470Y-132914951D01*
X85185375Y-132753366D01*
X84870177Y-132553389D01*
X84565227Y-132347020D01*
X84390540Y-132220600D01*
X84183074Y-132049247D01*
X83928154Y-131815538D01*
X83649344Y-131543454D01*
X83370205Y-131256977D01*
X83114298Y-130980086D01*
X82905187Y-130736762D01*
X82804041Y-130605911D01*
X82642195Y-130400465D01*
X82506605Y-130286494D01*
X82372867Y-130254533D01*
X82216574Y-130295119D01*
X82120246Y-130340738D01*
X82036754Y-130379912D01*
X81938490Y-130415470D01*
X81806055Y-130452282D01*
X81620049Y-130495219D01*
X81361072Y-130549152D01*
X81020712Y-130616792D01*
X80562223Y-130714206D01*
X80039962Y-130837661D01*
X79549888Y-130962960D01*
X79335817Y-131019168D01*
X79078524Y-131086012D01*
X78899331Y-131132171D01*
X78688113Y-131188923D01*
X78410339Y-131267188D01*
X78095498Y-131358265D01*
X77773076Y-131453453D01*
X77472559Y-131544049D01*
X77223433Y-131621354D01*
X77060801Y-131674703D01*
X76924194Y-131721489D01*
X76721389Y-131790075D01*
X76493523Y-131866559D01*
X76466815Y-131875485D01*
X76194377Y-131972023D01*
X75901099Y-132084437D01*
X75670321Y-132179936D01*
X75473225Y-132260866D01*
X75308461Y-132319135D01*
X75210447Y-132342622D01*
X75208227Y-132342667D01*
X75117119Y-132366023D01*
X74955983Y-132427970D01*
X74755845Y-132516322D01*
X74705203Y-132540222D01*
X74501931Y-132632931D01*
X74331933Y-132702306D01*
X74225402Y-132736247D01*
X74212282Y-132737778D01*
X74114412Y-132765874D01*
X73975485Y-132835132D01*
X73947696Y-132851744D01*
X73788436Y-132934668D01*
X73577766Y-133025324D01*
X73438045Y-133077223D01*
X73253984Y-133144823D01*
X73110566Y-133205491D01*
X73050478Y-133238379D01*
X72976605Y-133280644D01*
X72822668Y-133358427D01*
X72611561Y-133460440D01*
X72379192Y-133569380D01*
X71780045Y-133867731D01*
X71165313Y-134218067D01*
X70505940Y-134636960D01*
X70497175Y-134642778D01*
X70135958Y-134882667D01*
X69185907Y-134880879D01*
X68832915Y-134879192D01*
X68574266Y-134874312D01*
X68391167Y-134864217D01*
X68264828Y-134846885D01*
X68176456Y-134820291D01*
X68107260Y-134782414D01*
X68078010Y-134761625D01*
X67961718Y-134643047D01*
X67837714Y-134468871D01*
X67775079Y-134358488D01*
X67695151Y-134176882D01*
X67649388Y-133996231D01*
X67628811Y-133772061D01*
X67624987Y-133615013D01*
X67647208Y-133236941D01*
X67731852Y-132928063D01*
X67891989Y-132655989D01*
X68107326Y-132419769D01*
X68335152Y-132223615D01*
X68627183Y-132003084D01*
X68948959Y-131781594D01*
X69266023Y-131582566D01*
X69543917Y-131429421D01*
X69612069Y-131397022D01*
X69844727Y-131280262D01*
X70098425Y-131135934D01*
X70244098Y-131044081D01*
X70456552Y-130913056D01*
X70728672Y-130760745D01*
X71031742Y-130601616D01*
X71337048Y-130450139D01*
X71615872Y-130320782D01*
X71839500Y-130228014D01*
X71916371Y-130201475D01*
X72089956Y-130139239D01*
X72309838Y-130048712D01*
X72478619Y-129972628D01*
X72843130Y-129802173D01*
X73126713Y-129674136D01*
X73296438Y-129602577D01*
X86374297Y-129602577D01*
X86409210Y-129661785D01*
X86504016Y-129748046D01*
X86575006Y-129807197D01*
X86716299Y-129908649D01*
X86917038Y-130032705D01*
X87152365Y-130166292D01*
X87397420Y-130296332D01*
X87627345Y-130409750D01*
X87817279Y-130493470D01*
X87942363Y-130534418D01*
X87961438Y-130536445D01*
X88039064Y-130559385D01*
X88188831Y-130620157D01*
X88381395Y-130706681D01*
X88425363Y-130727391D01*
X88653956Y-130827961D01*
X88925763Y-130935352D01*
X89215136Y-131040829D01*
X89496425Y-131135658D01*
X89743982Y-131211104D01*
X89932157Y-131258432D01*
X90019364Y-131270222D01*
X90121667Y-131287003D01*
X90300288Y-131331947D01*
X90524399Y-131396960D01*
X90639932Y-131433192D01*
X90907476Y-131512700D01*
X91176603Y-131581884D01*
X91400796Y-131629090D01*
X91456765Y-131637828D01*
X91682087Y-131677391D01*
X91901617Y-131730437D01*
X91987151Y-131757081D01*
X92168014Y-131807782D01*
X92331659Y-131833413D01*
X92355998Y-131834193D01*
X92488615Y-131846346D01*
X92685121Y-131878450D01*
X92872160Y-131916850D01*
X93098411Y-131960825D01*
X93387718Y-132007069D01*
X93690434Y-132047906D01*
X93805568Y-132061161D01*
X94097417Y-132093411D01*
X94452887Y-132133718D01*
X94823285Y-132176516D01*
X95106681Y-132209884D01*
X95465612Y-132249423D01*
X95862754Y-132288074D01*
X96243854Y-132320791D01*
X96492650Y-132338792D01*
X96788364Y-132352101D01*
X97168809Y-132360759D01*
X97616194Y-132365057D01*
X98112728Y-132365287D01*
X98640620Y-132361740D01*
X99182078Y-132354707D01*
X99719310Y-132344479D01*
X100234526Y-132331347D01*
X100709933Y-132315603D01*
X101127741Y-132297538D01*
X101470158Y-132277444D01*
X101719393Y-132255610D01*
X101742429Y-132252858D01*
X102034640Y-132219837D01*
X102318470Y-132193515D01*
X102555778Y-132177140D01*
X102676210Y-132173334D01*
X102892830Y-132161689D01*
X103098519Y-132132277D01*
X103168302Y-132115572D01*
X103313424Y-132086035D01*
X103533436Y-132056158D01*
X103790205Y-132030778D01*
X103903340Y-132022389D01*
X104167811Y-131998362D01*
X104415520Y-131964416D01*
X104606615Y-131926426D01*
X104660007Y-131910817D01*
X104840904Y-131860558D01*
X105004495Y-131834703D01*
X105027713Y-131833817D01*
X105177637Y-131813868D01*
X105361553Y-131765554D01*
X105402450Y-131751628D01*
X105606543Y-131699783D01*
X105838080Y-131670207D01*
X105901324Y-131667811D01*
X106077058Y-131647907D01*
X106323442Y-131595909D01*
X106605383Y-131519881D01*
X106771896Y-131467778D01*
X107030550Y-131386871D01*
X107264134Y-131321995D01*
X107443217Y-131280862D01*
X107525785Y-131270222D01*
X107653600Y-131248376D01*
X107844728Y-131190823D01*
X108059931Y-131109540D01*
X108080508Y-131100889D01*
X108286630Y-131018904D01*
X108462670Y-130958763D01*
X108574451Y-130931986D01*
X108582860Y-130931556D01*
X108685097Y-130907359D01*
X108849876Y-130844204D01*
X109024380Y-130763994D01*
X109203896Y-130678328D01*
X109344556Y-130617311D01*
X109413741Y-130594660D01*
X109495329Y-130569564D01*
X109651822Y-130504802D01*
X109857584Y-130412484D01*
X110086980Y-130304721D01*
X110314377Y-130193621D01*
X110514138Y-130091294D01*
X110660630Y-130009850D01*
X110688715Y-129992370D01*
X110868540Y-129863157D01*
X111012801Y-129736622D01*
X111100922Y-129632868D01*
X111115241Y-129575606D01*
X111052311Y-129556304D01*
X110901859Y-129534946D01*
X110689379Y-129514687D01*
X110535865Y-129503950D01*
X110277904Y-129483245D01*
X110046804Y-129455719D01*
X109876663Y-129425836D01*
X109823037Y-129410634D01*
X109677002Y-129376896D01*
X109473933Y-129355324D01*
X109344162Y-129351111D01*
X109123053Y-129339904D01*
X108914428Y-129311295D01*
X108824570Y-129289790D01*
X108693320Y-129260872D01*
X108478186Y-129226347D01*
X108208003Y-129190368D01*
X107911604Y-129157089D01*
X107884205Y-129154326D01*
X107477748Y-129106034D01*
X107161086Y-129047128D01*
X106910890Y-128969071D01*
X106703834Y-128863328D01*
X106516590Y-128721359D01*
X106399951Y-128611134D01*
X106318650Y-128530823D01*
X106249048Y-128459340D01*
X106190240Y-128387699D01*
X106141318Y-128306914D01*
X106101375Y-128207998D01*
X106069506Y-128081964D01*
X106044802Y-127919825D01*
X106026358Y-127712596D01*
X106013268Y-127451289D01*
X106004623Y-127126917D01*
X105999518Y-126730495D01*
X105997046Y-126253035D01*
X105996301Y-125685551D01*
X105996375Y-125019056D01*
X105996436Y-124611591D01*
X105996078Y-124004705D01*
X105995048Y-123432658D01*
X105993408Y-122905205D01*
X105991223Y-122432097D01*
X105988555Y-122023089D01*
X105985470Y-121687933D01*
X105982029Y-121436383D01*
X105978298Y-121278191D01*
X105974339Y-121223112D01*
X105974329Y-121223111D01*
X105888573Y-121250455D01*
X105734696Y-121322717D01*
X105540684Y-121425248D01*
X105334521Y-121543396D01*
X105180964Y-121638464D01*
X104898092Y-121806308D01*
X104535184Y-121999297D01*
X104118845Y-122204863D01*
X103675681Y-122410441D01*
X103232296Y-122603462D01*
X102815295Y-122771361D01*
X102658797Y-122829778D01*
X102233962Y-122979133D01*
X101845089Y-123106435D01*
X101508118Y-123207014D01*
X101238985Y-123276202D01*
X101053629Y-123309331D01*
X101013934Y-123311556D01*
X100858656Y-123333753D01*
X100679681Y-123388015D01*
X100659282Y-123396222D01*
X100463946Y-123452451D01*
X100247038Y-123480917D01*
X100213955Y-123481739D01*
X99993589Y-123503296D01*
X99771737Y-123554993D01*
X99745434Y-123563928D01*
X99565518Y-123603938D01*
X99302726Y-123631491D01*
X98986635Y-123646571D01*
X98646819Y-123649164D01*
X98312855Y-123639255D01*
X98014319Y-123616830D01*
X97780785Y-123581873D01*
X97714060Y-123564945D01*
X97500065Y-123513895D01*
X97287335Y-123484067D01*
X97217254Y-123480889D01*
X97011504Y-123458289D01*
X96812823Y-123403541D01*
X96804133Y-123400005D01*
X96623552Y-123340924D01*
X96406864Y-123291109D01*
X96339246Y-123279894D01*
X96157881Y-123243191D01*
X95914515Y-123180193D01*
X95653651Y-123102691D01*
X95579183Y-123078556D01*
X95353049Y-123006461D01*
X95162290Y-122950847D01*
X95036143Y-122920019D01*
X95008312Y-122916445D01*
X94923431Y-122892524D01*
X94765969Y-122828581D01*
X94563900Y-122736343D01*
X94469787Y-122690667D01*
X94264252Y-122590728D01*
X94099009Y-122513448D01*
X93998702Y-122470212D01*
X93981054Y-122464889D01*
X93919317Y-122442381D01*
X93779284Y-122381854D01*
X93584820Y-122293804D01*
X93453091Y-122232669D01*
X93223194Y-122126174D01*
X93019516Y-122033841D01*
X92872286Y-121969285D01*
X92828429Y-121951349D01*
X92714860Y-121895870D01*
X92545674Y-121799666D01*
X92375868Y-121695119D01*
X92141835Y-121549016D01*
X91919461Y-121416381D01*
X91730734Y-121309720D01*
X91597643Y-121241542D01*
X91546017Y-121223111D01*
X91540368Y-121277930D01*
X91535043Y-121435884D01*
X91530134Y-121687221D01*
X91525730Y-122022186D01*
X91521923Y-122431028D01*
X91518803Y-122903992D01*
X91516461Y-123431326D01*
X91514989Y-124003276D01*
X91514476Y-124610089D01*
X91514476Y-124611591D01*
X91514587Y-125335467D01*
X91514343Y-125955432D01*
X91512877Y-126480459D01*
X91509323Y-126919525D01*
X91502816Y-127281605D01*
X91492490Y-127575675D01*
X91477479Y-127810709D01*
X91456917Y-127995684D01*
X91429937Y-128139575D01*
X91395674Y-128251358D01*
X91353262Y-128340007D01*
X91301835Y-128414499D01*
X91240527Y-128483808D01*
X91168472Y-128556911D01*
X91130086Y-128595705D01*
X90941419Y-128769248D01*
X90747250Y-128900245D01*
X90524684Y-128997049D01*
X90250829Y-129068014D01*
X89902791Y-129121495D01*
X89602953Y-129152985D01*
X89304322Y-129184101D01*
X89034009Y-129218609D01*
X88818338Y-129252706D01*
X88683633Y-129282593D01*
X88668143Y-129287959D01*
X88516235Y-129325388D01*
X88313368Y-129348032D01*
X88215208Y-129351111D01*
X87998708Y-129362614D01*
X87793091Y-129391658D01*
X87723902Y-129407999D01*
X87573493Y-129438559D01*
X87352305Y-129468466D01*
X87102598Y-129492223D01*
X87045434Y-129496248D01*
X86734845Y-129517259D01*
X86526521Y-129537317D01*
X86409870Y-129563422D01*
X86374297Y-129602577D01*
X73296438Y-129602577D01*
X73349507Y-129580202D01*
X73531655Y-129512053D01*
G37*
G36*
X89991812Y-91732713D02*
G01*
X90553639Y-91851568D01*
X91108197Y-92073760D01*
X91646594Y-92396663D01*
X92106346Y-92767880D01*
X92516446Y-93210910D01*
X92839487Y-93703490D01*
X93069952Y-94231233D01*
X93202319Y-94779748D01*
X93231068Y-95334646D01*
X93202537Y-95625556D01*
X93107792Y-96034348D01*
X92955741Y-96355867D01*
X92735499Y-96605789D01*
X92436181Y-96799789D01*
X92363029Y-96834544D01*
X92015535Y-96931684D01*
X91604410Y-96939635D01*
X91147294Y-96861233D01*
X90789189Y-96728736D01*
X90507673Y-96525945D01*
X90296923Y-96245404D01*
X90151115Y-95879654D01*
X90072305Y-95484445D01*
X90039371Y-95298752D01*
X89999117Y-95154905D01*
X89973821Y-95103445D01*
X89884405Y-95061485D01*
X89718232Y-95036688D01*
X89610439Y-95032889D01*
X89304219Y-95032889D01*
X89196606Y-95283383D01*
X89122182Y-95491226D01*
X89054837Y-95735886D01*
X89030149Y-95851483D01*
X88976624Y-96060196D01*
X88903966Y-96247192D01*
X88858955Y-96326520D01*
X88673210Y-96528194D01*
X88425453Y-96719810D01*
X88163602Y-96864600D01*
X88150347Y-96870223D01*
X87923281Y-96927945D01*
X87634675Y-96950785D01*
X87330279Y-96939682D01*
X87055845Y-96895576D01*
X86904009Y-96844618D01*
X86638923Y-96688086D01*
X86387638Y-96480949D01*
X86183598Y-96254132D01*
X86077299Y-96080261D01*
X86012079Y-95855810D01*
X85976211Y-95555646D01*
X85969726Y-95213087D01*
X85992653Y-94861452D01*
X86045023Y-94534058D01*
X86075798Y-94411821D01*
X86302439Y-93808097D01*
X86615679Y-93276110D01*
X87016080Y-92815338D01*
X87504207Y-92425262D01*
X88080620Y-92105359D01*
X88745884Y-91855110D01*
X88881919Y-91815521D01*
X89431608Y-91719822D01*
X89991812Y-91732713D01*
G37*
G04 #@! TD*
M02*
