%TF.GenerationSoftware,KiCad,Pcbnew,5.1.6-c6e7f7d~87~ubuntu20.04.1*%
%TF.CreationDate,2020-09-28T07:16:41-07:00*%
%TF.ProjectId,sao-wall,73616f2d-7761-46c6-9c2e-6b696361645f,rev?*%
%TF.SameCoordinates,Original*%
%TF.FileFunction,Soldermask,Bot*%
%TF.FilePolarity,Negative*%
%FSLAX46Y46*%
G04 Gerber Fmt 4.6, Leading zero omitted, Abs format (unit mm)*
G04 Created by KiCad (PCBNEW 5.1.6-c6e7f7d~87~ubuntu20.04.1) date 2020-09-28 07:16:41*
%MOMM*%
%LPD*%
G01*
G04 APERTURE LIST*
%ADD10R,1.827200X1.827200*%
%ADD11O,1.827200X1.827200*%
%ADD12C,1.827200*%
%ADD13C,3.100000*%
%ADD14R,2.500000X2.100000*%
%ADD15R,1.160000X0.750000*%
%ADD16R,5.250000X5.250000*%
%ADD17R,1.000000X0.900000*%
%ADD18R,2.000000X2.600000*%
%ADD19R,3.100000X1.600000*%
%ADD20R,2.640000X1.116000*%
%ADD21R,4.100000X3.100000*%
%ADD22R,1.100000X3.100000*%
G04 APERTURE END LIST*
D10*
%TO.C,X5*%
X277520000Y-16290000D03*
D11*
X277520000Y-13750000D03*
X280060000Y-16290000D03*
X280060000Y-13750000D03*
D12*
X282600000Y-16290000D03*
X282600000Y-13750000D03*
%TD*%
D10*
%TO.C,X3*%
X117520000Y-16290000D03*
D11*
X117520000Y-13750000D03*
X120060000Y-16290000D03*
X120060000Y-13750000D03*
D12*
X122600000Y-16290000D03*
X122600000Y-13750000D03*
%TD*%
D10*
%TO.C,X2*%
X37520000Y-16290000D03*
D11*
X37520000Y-13750000D03*
X40060000Y-16290000D03*
X40060000Y-13750000D03*
D12*
X42600000Y-16290000D03*
X42600000Y-13750000D03*
%TD*%
D10*
%TO.C,X4*%
X197520000Y-16290000D03*
D11*
X197520000Y-13750000D03*
X200060000Y-16290000D03*
X200060000Y-13750000D03*
D12*
X202600000Y-16290000D03*
X202600000Y-13750000D03*
%TD*%
%TO.C,C16*%
G36*
G01*
X153100000Y-10018750D02*
X153100000Y-10981250D01*
G75*
G02*
X152831250Y-11250000I-268750J0D01*
G01*
X152293750Y-11250000D01*
G75*
G02*
X152025000Y-10981250I0J268750D01*
G01*
X152025000Y-10018750D01*
G75*
G02*
X152293750Y-9750000I268750J0D01*
G01*
X152831250Y-9750000D01*
G75*
G02*
X153100000Y-10018750I0J-268750D01*
G01*
G37*
G36*
G01*
X154975000Y-10018750D02*
X154975000Y-10981250D01*
G75*
G02*
X154706250Y-11250000I-268750J0D01*
G01*
X154168750Y-11250000D01*
G75*
G02*
X153900000Y-10981250I0J268750D01*
G01*
X153900000Y-10018750D01*
G75*
G02*
X154168750Y-9750000I268750J0D01*
G01*
X154706250Y-9750000D01*
G75*
G02*
X154975000Y-10018750I0J-268750D01*
G01*
G37*
%TD*%
D13*
%TO.C,TP1*%
X169000000Y-27000000D03*
%TD*%
%TO.C,C15*%
G36*
G01*
X273518750Y-15400000D02*
X274481250Y-15400000D01*
G75*
G02*
X274750000Y-15668750I0J-268750D01*
G01*
X274750000Y-16206250D01*
G75*
G02*
X274481250Y-16475000I-268750J0D01*
G01*
X273518750Y-16475000D01*
G75*
G02*
X273250000Y-16206250I0J268750D01*
G01*
X273250000Y-15668750D01*
G75*
G02*
X273518750Y-15400000I268750J0D01*
G01*
G37*
G36*
G01*
X273518750Y-13525000D02*
X274481250Y-13525000D01*
G75*
G02*
X274750000Y-13793750I0J-268750D01*
G01*
X274750000Y-14331250D01*
G75*
G02*
X274481250Y-14600000I-268750J0D01*
G01*
X273518750Y-14600000D01*
G75*
G02*
X273250000Y-14331250I0J268750D01*
G01*
X273250000Y-13793750D01*
G75*
G02*
X273518750Y-13525000I268750J0D01*
G01*
G37*
%TD*%
D14*
%TO.C,X1*%
X152000000Y-16850000D03*
X152000000Y-13150000D03*
%TD*%
D15*
%TO.C,U2*%
X259100000Y-15950000D03*
X259100000Y-14050000D03*
X256900000Y-14050000D03*
X256900000Y-15000000D03*
X256900000Y-15950000D03*
%TD*%
D16*
%TO.C,U1*%
X160000000Y-15000000D03*
G36*
G01*
X163837500Y-17675000D02*
X163037500Y-17675000D01*
G75*
G02*
X162950000Y-17587500I0J87500D01*
G01*
X162950000Y-17412500D01*
G75*
G02*
X163037500Y-17325000I87500J0D01*
G01*
X163837500Y-17325000D01*
G75*
G02*
X163925000Y-17412500I0J-87500D01*
G01*
X163925000Y-17587500D01*
G75*
G02*
X163837500Y-17675000I-87500J0D01*
G01*
G37*
G36*
G01*
X163837500Y-17175000D02*
X163037500Y-17175000D01*
G75*
G02*
X162950000Y-17087500I0J87500D01*
G01*
X162950000Y-16912500D01*
G75*
G02*
X163037500Y-16825000I87500J0D01*
G01*
X163837500Y-16825000D01*
G75*
G02*
X163925000Y-16912500I0J-87500D01*
G01*
X163925000Y-17087500D01*
G75*
G02*
X163837500Y-17175000I-87500J0D01*
G01*
G37*
G36*
G01*
X163837500Y-16675000D02*
X163037500Y-16675000D01*
G75*
G02*
X162950000Y-16587500I0J87500D01*
G01*
X162950000Y-16412500D01*
G75*
G02*
X163037500Y-16325000I87500J0D01*
G01*
X163837500Y-16325000D01*
G75*
G02*
X163925000Y-16412500I0J-87500D01*
G01*
X163925000Y-16587500D01*
G75*
G02*
X163837500Y-16675000I-87500J0D01*
G01*
G37*
G36*
G01*
X163837500Y-16175000D02*
X163037500Y-16175000D01*
G75*
G02*
X162950000Y-16087500I0J87500D01*
G01*
X162950000Y-15912500D01*
G75*
G02*
X163037500Y-15825000I87500J0D01*
G01*
X163837500Y-15825000D01*
G75*
G02*
X163925000Y-15912500I0J-87500D01*
G01*
X163925000Y-16087500D01*
G75*
G02*
X163837500Y-16175000I-87500J0D01*
G01*
G37*
G36*
G01*
X163837500Y-15675000D02*
X163037500Y-15675000D01*
G75*
G02*
X162950000Y-15587500I0J87500D01*
G01*
X162950000Y-15412500D01*
G75*
G02*
X163037500Y-15325000I87500J0D01*
G01*
X163837500Y-15325000D01*
G75*
G02*
X163925000Y-15412500I0J-87500D01*
G01*
X163925000Y-15587500D01*
G75*
G02*
X163837500Y-15675000I-87500J0D01*
G01*
G37*
G36*
G01*
X163837500Y-15175000D02*
X163037500Y-15175000D01*
G75*
G02*
X162950000Y-15087500I0J87500D01*
G01*
X162950000Y-14912500D01*
G75*
G02*
X163037500Y-14825000I87500J0D01*
G01*
X163837500Y-14825000D01*
G75*
G02*
X163925000Y-14912500I0J-87500D01*
G01*
X163925000Y-15087500D01*
G75*
G02*
X163837500Y-15175000I-87500J0D01*
G01*
G37*
G36*
G01*
X163837500Y-14675000D02*
X163037500Y-14675000D01*
G75*
G02*
X162950000Y-14587500I0J87500D01*
G01*
X162950000Y-14412500D01*
G75*
G02*
X163037500Y-14325000I87500J0D01*
G01*
X163837500Y-14325000D01*
G75*
G02*
X163925000Y-14412500I0J-87500D01*
G01*
X163925000Y-14587500D01*
G75*
G02*
X163837500Y-14675000I-87500J0D01*
G01*
G37*
G36*
G01*
X163837500Y-14175000D02*
X163037500Y-14175000D01*
G75*
G02*
X162950000Y-14087500I0J87500D01*
G01*
X162950000Y-13912500D01*
G75*
G02*
X163037500Y-13825000I87500J0D01*
G01*
X163837500Y-13825000D01*
G75*
G02*
X163925000Y-13912500I0J-87500D01*
G01*
X163925000Y-14087500D01*
G75*
G02*
X163837500Y-14175000I-87500J0D01*
G01*
G37*
G36*
G01*
X163837500Y-13675000D02*
X163037500Y-13675000D01*
G75*
G02*
X162950000Y-13587500I0J87500D01*
G01*
X162950000Y-13412500D01*
G75*
G02*
X163037500Y-13325000I87500J0D01*
G01*
X163837500Y-13325000D01*
G75*
G02*
X163925000Y-13412500I0J-87500D01*
G01*
X163925000Y-13587500D01*
G75*
G02*
X163837500Y-13675000I-87500J0D01*
G01*
G37*
G36*
G01*
X163837500Y-13175000D02*
X163037500Y-13175000D01*
G75*
G02*
X162950000Y-13087500I0J87500D01*
G01*
X162950000Y-12912500D01*
G75*
G02*
X163037500Y-12825000I87500J0D01*
G01*
X163837500Y-12825000D01*
G75*
G02*
X163925000Y-12912500I0J-87500D01*
G01*
X163925000Y-13087500D01*
G75*
G02*
X163837500Y-13175000I-87500J0D01*
G01*
G37*
G36*
G01*
X163837500Y-12675000D02*
X163037500Y-12675000D01*
G75*
G02*
X162950000Y-12587500I0J87500D01*
G01*
X162950000Y-12412500D01*
G75*
G02*
X163037500Y-12325000I87500J0D01*
G01*
X163837500Y-12325000D01*
G75*
G02*
X163925000Y-12412500I0J-87500D01*
G01*
X163925000Y-12587500D01*
G75*
G02*
X163837500Y-12675000I-87500J0D01*
G01*
G37*
G36*
G01*
X162587500Y-12050000D02*
X162412500Y-12050000D01*
G75*
G02*
X162325000Y-11962500I0J87500D01*
G01*
X162325000Y-11162500D01*
G75*
G02*
X162412500Y-11075000I87500J0D01*
G01*
X162587500Y-11075000D01*
G75*
G02*
X162675000Y-11162500I0J-87500D01*
G01*
X162675000Y-11962500D01*
G75*
G02*
X162587500Y-12050000I-87500J0D01*
G01*
G37*
G36*
G01*
X162087500Y-12050000D02*
X161912500Y-12050000D01*
G75*
G02*
X161825000Y-11962500I0J87500D01*
G01*
X161825000Y-11162500D01*
G75*
G02*
X161912500Y-11075000I87500J0D01*
G01*
X162087500Y-11075000D01*
G75*
G02*
X162175000Y-11162500I0J-87500D01*
G01*
X162175000Y-11962500D01*
G75*
G02*
X162087500Y-12050000I-87500J0D01*
G01*
G37*
G36*
G01*
X161587500Y-12050000D02*
X161412500Y-12050000D01*
G75*
G02*
X161325000Y-11962500I0J87500D01*
G01*
X161325000Y-11162500D01*
G75*
G02*
X161412500Y-11075000I87500J0D01*
G01*
X161587500Y-11075000D01*
G75*
G02*
X161675000Y-11162500I0J-87500D01*
G01*
X161675000Y-11962500D01*
G75*
G02*
X161587500Y-12050000I-87500J0D01*
G01*
G37*
G36*
G01*
X161087500Y-12050000D02*
X160912500Y-12050000D01*
G75*
G02*
X160825000Y-11962500I0J87500D01*
G01*
X160825000Y-11162500D01*
G75*
G02*
X160912500Y-11075000I87500J0D01*
G01*
X161087500Y-11075000D01*
G75*
G02*
X161175000Y-11162500I0J-87500D01*
G01*
X161175000Y-11962500D01*
G75*
G02*
X161087500Y-12050000I-87500J0D01*
G01*
G37*
G36*
G01*
X160587500Y-12050000D02*
X160412500Y-12050000D01*
G75*
G02*
X160325000Y-11962500I0J87500D01*
G01*
X160325000Y-11162500D01*
G75*
G02*
X160412500Y-11075000I87500J0D01*
G01*
X160587500Y-11075000D01*
G75*
G02*
X160675000Y-11162500I0J-87500D01*
G01*
X160675000Y-11962500D01*
G75*
G02*
X160587500Y-12050000I-87500J0D01*
G01*
G37*
G36*
G01*
X160087500Y-12050000D02*
X159912500Y-12050000D01*
G75*
G02*
X159825000Y-11962500I0J87500D01*
G01*
X159825000Y-11162500D01*
G75*
G02*
X159912500Y-11075000I87500J0D01*
G01*
X160087500Y-11075000D01*
G75*
G02*
X160175000Y-11162500I0J-87500D01*
G01*
X160175000Y-11962500D01*
G75*
G02*
X160087500Y-12050000I-87500J0D01*
G01*
G37*
G36*
G01*
X159587500Y-12050000D02*
X159412500Y-12050000D01*
G75*
G02*
X159325000Y-11962500I0J87500D01*
G01*
X159325000Y-11162500D01*
G75*
G02*
X159412500Y-11075000I87500J0D01*
G01*
X159587500Y-11075000D01*
G75*
G02*
X159675000Y-11162500I0J-87500D01*
G01*
X159675000Y-11962500D01*
G75*
G02*
X159587500Y-12050000I-87500J0D01*
G01*
G37*
G36*
G01*
X159087500Y-12050000D02*
X158912500Y-12050000D01*
G75*
G02*
X158825000Y-11962500I0J87500D01*
G01*
X158825000Y-11162500D01*
G75*
G02*
X158912500Y-11075000I87500J0D01*
G01*
X159087500Y-11075000D01*
G75*
G02*
X159175000Y-11162500I0J-87500D01*
G01*
X159175000Y-11962500D01*
G75*
G02*
X159087500Y-12050000I-87500J0D01*
G01*
G37*
G36*
G01*
X158587500Y-12050000D02*
X158412500Y-12050000D01*
G75*
G02*
X158325000Y-11962500I0J87500D01*
G01*
X158325000Y-11162500D01*
G75*
G02*
X158412500Y-11075000I87500J0D01*
G01*
X158587500Y-11075000D01*
G75*
G02*
X158675000Y-11162500I0J-87500D01*
G01*
X158675000Y-11962500D01*
G75*
G02*
X158587500Y-12050000I-87500J0D01*
G01*
G37*
G36*
G01*
X158087500Y-12050000D02*
X157912500Y-12050000D01*
G75*
G02*
X157825000Y-11962500I0J87500D01*
G01*
X157825000Y-11162500D01*
G75*
G02*
X157912500Y-11075000I87500J0D01*
G01*
X158087500Y-11075000D01*
G75*
G02*
X158175000Y-11162500I0J-87500D01*
G01*
X158175000Y-11962500D01*
G75*
G02*
X158087500Y-12050000I-87500J0D01*
G01*
G37*
G36*
G01*
X157587500Y-12050000D02*
X157412500Y-12050000D01*
G75*
G02*
X157325000Y-11962500I0J87500D01*
G01*
X157325000Y-11162500D01*
G75*
G02*
X157412500Y-11075000I87500J0D01*
G01*
X157587500Y-11075000D01*
G75*
G02*
X157675000Y-11162500I0J-87500D01*
G01*
X157675000Y-11962500D01*
G75*
G02*
X157587500Y-12050000I-87500J0D01*
G01*
G37*
G36*
G01*
X156962500Y-12675000D02*
X156162500Y-12675000D01*
G75*
G02*
X156075000Y-12587500I0J87500D01*
G01*
X156075000Y-12412500D01*
G75*
G02*
X156162500Y-12325000I87500J0D01*
G01*
X156962500Y-12325000D01*
G75*
G02*
X157050000Y-12412500I0J-87500D01*
G01*
X157050000Y-12587500D01*
G75*
G02*
X156962500Y-12675000I-87500J0D01*
G01*
G37*
G36*
G01*
X156962500Y-13175000D02*
X156162500Y-13175000D01*
G75*
G02*
X156075000Y-13087500I0J87500D01*
G01*
X156075000Y-12912500D01*
G75*
G02*
X156162500Y-12825000I87500J0D01*
G01*
X156962500Y-12825000D01*
G75*
G02*
X157050000Y-12912500I0J-87500D01*
G01*
X157050000Y-13087500D01*
G75*
G02*
X156962500Y-13175000I-87500J0D01*
G01*
G37*
G36*
G01*
X156962500Y-13675000D02*
X156162500Y-13675000D01*
G75*
G02*
X156075000Y-13587500I0J87500D01*
G01*
X156075000Y-13412500D01*
G75*
G02*
X156162500Y-13325000I87500J0D01*
G01*
X156962500Y-13325000D01*
G75*
G02*
X157050000Y-13412500I0J-87500D01*
G01*
X157050000Y-13587500D01*
G75*
G02*
X156962500Y-13675000I-87500J0D01*
G01*
G37*
G36*
G01*
X156962500Y-14175000D02*
X156162500Y-14175000D01*
G75*
G02*
X156075000Y-14087500I0J87500D01*
G01*
X156075000Y-13912500D01*
G75*
G02*
X156162500Y-13825000I87500J0D01*
G01*
X156962500Y-13825000D01*
G75*
G02*
X157050000Y-13912500I0J-87500D01*
G01*
X157050000Y-14087500D01*
G75*
G02*
X156962500Y-14175000I-87500J0D01*
G01*
G37*
G36*
G01*
X156962500Y-14675000D02*
X156162500Y-14675000D01*
G75*
G02*
X156075000Y-14587500I0J87500D01*
G01*
X156075000Y-14412500D01*
G75*
G02*
X156162500Y-14325000I87500J0D01*
G01*
X156962500Y-14325000D01*
G75*
G02*
X157050000Y-14412500I0J-87500D01*
G01*
X157050000Y-14587500D01*
G75*
G02*
X156962500Y-14675000I-87500J0D01*
G01*
G37*
G36*
G01*
X156962500Y-15175000D02*
X156162500Y-15175000D01*
G75*
G02*
X156075000Y-15087500I0J87500D01*
G01*
X156075000Y-14912500D01*
G75*
G02*
X156162500Y-14825000I87500J0D01*
G01*
X156962500Y-14825000D01*
G75*
G02*
X157050000Y-14912500I0J-87500D01*
G01*
X157050000Y-15087500D01*
G75*
G02*
X156962500Y-15175000I-87500J0D01*
G01*
G37*
G36*
G01*
X156962500Y-15675000D02*
X156162500Y-15675000D01*
G75*
G02*
X156075000Y-15587500I0J87500D01*
G01*
X156075000Y-15412500D01*
G75*
G02*
X156162500Y-15325000I87500J0D01*
G01*
X156962500Y-15325000D01*
G75*
G02*
X157050000Y-15412500I0J-87500D01*
G01*
X157050000Y-15587500D01*
G75*
G02*
X156962500Y-15675000I-87500J0D01*
G01*
G37*
G36*
G01*
X156962500Y-16175000D02*
X156162500Y-16175000D01*
G75*
G02*
X156075000Y-16087500I0J87500D01*
G01*
X156075000Y-15912500D01*
G75*
G02*
X156162500Y-15825000I87500J0D01*
G01*
X156962500Y-15825000D01*
G75*
G02*
X157050000Y-15912500I0J-87500D01*
G01*
X157050000Y-16087500D01*
G75*
G02*
X156962500Y-16175000I-87500J0D01*
G01*
G37*
G36*
G01*
X156962500Y-16675000D02*
X156162500Y-16675000D01*
G75*
G02*
X156075000Y-16587500I0J87500D01*
G01*
X156075000Y-16412500D01*
G75*
G02*
X156162500Y-16325000I87500J0D01*
G01*
X156962500Y-16325000D01*
G75*
G02*
X157050000Y-16412500I0J-87500D01*
G01*
X157050000Y-16587500D01*
G75*
G02*
X156962500Y-16675000I-87500J0D01*
G01*
G37*
G36*
G01*
X156962500Y-17175000D02*
X156162500Y-17175000D01*
G75*
G02*
X156075000Y-17087500I0J87500D01*
G01*
X156075000Y-16912500D01*
G75*
G02*
X156162500Y-16825000I87500J0D01*
G01*
X156962500Y-16825000D01*
G75*
G02*
X157050000Y-16912500I0J-87500D01*
G01*
X157050000Y-17087500D01*
G75*
G02*
X156962500Y-17175000I-87500J0D01*
G01*
G37*
G36*
G01*
X156962500Y-17675000D02*
X156162500Y-17675000D01*
G75*
G02*
X156075000Y-17587500I0J87500D01*
G01*
X156075000Y-17412500D01*
G75*
G02*
X156162500Y-17325000I87500J0D01*
G01*
X156962500Y-17325000D01*
G75*
G02*
X157050000Y-17412500I0J-87500D01*
G01*
X157050000Y-17587500D01*
G75*
G02*
X156962500Y-17675000I-87500J0D01*
G01*
G37*
G36*
G01*
X157587500Y-18925000D02*
X157412500Y-18925000D01*
G75*
G02*
X157325000Y-18837500I0J87500D01*
G01*
X157325000Y-18037500D01*
G75*
G02*
X157412500Y-17950000I87500J0D01*
G01*
X157587500Y-17950000D01*
G75*
G02*
X157675000Y-18037500I0J-87500D01*
G01*
X157675000Y-18837500D01*
G75*
G02*
X157587500Y-18925000I-87500J0D01*
G01*
G37*
G36*
G01*
X158087500Y-18925000D02*
X157912500Y-18925000D01*
G75*
G02*
X157825000Y-18837500I0J87500D01*
G01*
X157825000Y-18037500D01*
G75*
G02*
X157912500Y-17950000I87500J0D01*
G01*
X158087500Y-17950000D01*
G75*
G02*
X158175000Y-18037500I0J-87500D01*
G01*
X158175000Y-18837500D01*
G75*
G02*
X158087500Y-18925000I-87500J0D01*
G01*
G37*
G36*
G01*
X158587500Y-18925000D02*
X158412500Y-18925000D01*
G75*
G02*
X158325000Y-18837500I0J87500D01*
G01*
X158325000Y-18037500D01*
G75*
G02*
X158412500Y-17950000I87500J0D01*
G01*
X158587500Y-17950000D01*
G75*
G02*
X158675000Y-18037500I0J-87500D01*
G01*
X158675000Y-18837500D01*
G75*
G02*
X158587500Y-18925000I-87500J0D01*
G01*
G37*
G36*
G01*
X159087500Y-18925000D02*
X158912500Y-18925000D01*
G75*
G02*
X158825000Y-18837500I0J87500D01*
G01*
X158825000Y-18037500D01*
G75*
G02*
X158912500Y-17950000I87500J0D01*
G01*
X159087500Y-17950000D01*
G75*
G02*
X159175000Y-18037500I0J-87500D01*
G01*
X159175000Y-18837500D01*
G75*
G02*
X159087500Y-18925000I-87500J0D01*
G01*
G37*
G36*
G01*
X159587500Y-18925000D02*
X159412500Y-18925000D01*
G75*
G02*
X159325000Y-18837500I0J87500D01*
G01*
X159325000Y-18037500D01*
G75*
G02*
X159412500Y-17950000I87500J0D01*
G01*
X159587500Y-17950000D01*
G75*
G02*
X159675000Y-18037500I0J-87500D01*
G01*
X159675000Y-18837500D01*
G75*
G02*
X159587500Y-18925000I-87500J0D01*
G01*
G37*
G36*
G01*
X160087500Y-18925000D02*
X159912500Y-18925000D01*
G75*
G02*
X159825000Y-18837500I0J87500D01*
G01*
X159825000Y-18037500D01*
G75*
G02*
X159912500Y-17950000I87500J0D01*
G01*
X160087500Y-17950000D01*
G75*
G02*
X160175000Y-18037500I0J-87500D01*
G01*
X160175000Y-18837500D01*
G75*
G02*
X160087500Y-18925000I-87500J0D01*
G01*
G37*
G36*
G01*
X160587500Y-18925000D02*
X160412500Y-18925000D01*
G75*
G02*
X160325000Y-18837500I0J87500D01*
G01*
X160325000Y-18037500D01*
G75*
G02*
X160412500Y-17950000I87500J0D01*
G01*
X160587500Y-17950000D01*
G75*
G02*
X160675000Y-18037500I0J-87500D01*
G01*
X160675000Y-18837500D01*
G75*
G02*
X160587500Y-18925000I-87500J0D01*
G01*
G37*
G36*
G01*
X161087500Y-18925000D02*
X160912500Y-18925000D01*
G75*
G02*
X160825000Y-18837500I0J87500D01*
G01*
X160825000Y-18037500D01*
G75*
G02*
X160912500Y-17950000I87500J0D01*
G01*
X161087500Y-17950000D01*
G75*
G02*
X161175000Y-18037500I0J-87500D01*
G01*
X161175000Y-18837500D01*
G75*
G02*
X161087500Y-18925000I-87500J0D01*
G01*
G37*
G36*
G01*
X161587500Y-18925000D02*
X161412500Y-18925000D01*
G75*
G02*
X161325000Y-18837500I0J87500D01*
G01*
X161325000Y-18037500D01*
G75*
G02*
X161412500Y-17950000I87500J0D01*
G01*
X161587500Y-17950000D01*
G75*
G02*
X161675000Y-18037500I0J-87500D01*
G01*
X161675000Y-18837500D01*
G75*
G02*
X161587500Y-18925000I-87500J0D01*
G01*
G37*
G36*
G01*
X162087500Y-18925000D02*
X161912500Y-18925000D01*
G75*
G02*
X161825000Y-18837500I0J87500D01*
G01*
X161825000Y-18037500D01*
G75*
G02*
X161912500Y-17950000I87500J0D01*
G01*
X162087500Y-17950000D01*
G75*
G02*
X162175000Y-18037500I0J-87500D01*
G01*
X162175000Y-18837500D01*
G75*
G02*
X162087500Y-18925000I-87500J0D01*
G01*
G37*
G36*
G01*
X162587500Y-18925000D02*
X162412500Y-18925000D01*
G75*
G02*
X162325000Y-18837500I0J87500D01*
G01*
X162325000Y-18037500D01*
G75*
G02*
X162412500Y-17950000I87500J0D01*
G01*
X162587500Y-17950000D01*
G75*
G02*
X162675000Y-18037500I0J-87500D01*
G01*
X162675000Y-18837500D01*
G75*
G02*
X162587500Y-18925000I-87500J0D01*
G01*
G37*
%TD*%
%TO.C,R7*%
G36*
G01*
X261400000Y-18481250D02*
X261400000Y-17518750D01*
G75*
G02*
X261668750Y-17250000I268750J0D01*
G01*
X262206250Y-17250000D01*
G75*
G02*
X262475000Y-17518750I0J-268750D01*
G01*
X262475000Y-18481250D01*
G75*
G02*
X262206250Y-18750000I-268750J0D01*
G01*
X261668750Y-18750000D01*
G75*
G02*
X261400000Y-18481250I0J268750D01*
G01*
G37*
G36*
G01*
X259525000Y-18481250D02*
X259525000Y-17518750D01*
G75*
G02*
X259793750Y-17250000I268750J0D01*
G01*
X260331250Y-17250000D01*
G75*
G02*
X260600000Y-17518750I0J-268750D01*
G01*
X260600000Y-18481250D01*
G75*
G02*
X260331250Y-18750000I-268750J0D01*
G01*
X259793750Y-18750000D01*
G75*
G02*
X259525000Y-18481250I0J268750D01*
G01*
G37*
%TD*%
%TO.C,R6*%
G36*
G01*
X257400000Y-18481250D02*
X257400000Y-17518750D01*
G75*
G02*
X257668750Y-17250000I268750J0D01*
G01*
X258206250Y-17250000D01*
G75*
G02*
X258475000Y-17518750I0J-268750D01*
G01*
X258475000Y-18481250D01*
G75*
G02*
X258206250Y-18750000I-268750J0D01*
G01*
X257668750Y-18750000D01*
G75*
G02*
X257400000Y-18481250I0J268750D01*
G01*
G37*
G36*
G01*
X255525000Y-18481250D02*
X255525000Y-17518750D01*
G75*
G02*
X255793750Y-17250000I268750J0D01*
G01*
X256331250Y-17250000D01*
G75*
G02*
X256600000Y-17518750I0J-268750D01*
G01*
X256600000Y-18481250D01*
G75*
G02*
X256331250Y-18750000I-268750J0D01*
G01*
X255793750Y-18750000D01*
G75*
G02*
X255525000Y-18481250I0J268750D01*
G01*
G37*
%TD*%
%TO.C,R5*%
G36*
G01*
X37400000Y-20481250D02*
X37400000Y-19518750D01*
G75*
G02*
X37668750Y-19250000I268750J0D01*
G01*
X38206250Y-19250000D01*
G75*
G02*
X38475000Y-19518750I0J-268750D01*
G01*
X38475000Y-20481250D01*
G75*
G02*
X38206250Y-20750000I-268750J0D01*
G01*
X37668750Y-20750000D01*
G75*
G02*
X37400000Y-20481250I0J268750D01*
G01*
G37*
G36*
G01*
X35525000Y-20481250D02*
X35525000Y-19518750D01*
G75*
G02*
X35793750Y-19250000I268750J0D01*
G01*
X36331250Y-19250000D01*
G75*
G02*
X36600000Y-19518750I0J-268750D01*
G01*
X36600000Y-20481250D01*
G75*
G02*
X36331250Y-20750000I-268750J0D01*
G01*
X35793750Y-20750000D01*
G75*
G02*
X35525000Y-20481250I0J268750D01*
G01*
G37*
%TD*%
%TO.C,R4*%
G36*
G01*
X37400000Y-10481250D02*
X37400000Y-9518750D01*
G75*
G02*
X37668750Y-9250000I268750J0D01*
G01*
X38206250Y-9250000D01*
G75*
G02*
X38475000Y-9518750I0J-268750D01*
G01*
X38475000Y-10481250D01*
G75*
G02*
X38206250Y-10750000I-268750J0D01*
G01*
X37668750Y-10750000D01*
G75*
G02*
X37400000Y-10481250I0J268750D01*
G01*
G37*
G36*
G01*
X35525000Y-10481250D02*
X35525000Y-9518750D01*
G75*
G02*
X35793750Y-9250000I268750J0D01*
G01*
X36331250Y-9250000D01*
G75*
G02*
X36600000Y-9518750I0J-268750D01*
G01*
X36600000Y-10481250D01*
G75*
G02*
X36331250Y-10750000I-268750J0D01*
G01*
X35793750Y-10750000D01*
G75*
G02*
X35525000Y-10481250I0J268750D01*
G01*
G37*
%TD*%
%TO.C,R3*%
G36*
G01*
X168018750Y-18900000D02*
X168981250Y-18900000D01*
G75*
G02*
X169250000Y-19168750I0J-268750D01*
G01*
X169250000Y-19706250D01*
G75*
G02*
X168981250Y-19975000I-268750J0D01*
G01*
X168018750Y-19975000D01*
G75*
G02*
X167750000Y-19706250I0J268750D01*
G01*
X167750000Y-19168750D01*
G75*
G02*
X168018750Y-18900000I268750J0D01*
G01*
G37*
G36*
G01*
X168018750Y-17025000D02*
X168981250Y-17025000D01*
G75*
G02*
X169250000Y-17293750I0J-268750D01*
G01*
X169250000Y-17831250D01*
G75*
G02*
X168981250Y-18100000I-268750J0D01*
G01*
X168018750Y-18100000D01*
G75*
G02*
X167750000Y-17831250I0J268750D01*
G01*
X167750000Y-17293750D01*
G75*
G02*
X168018750Y-17025000I268750J0D01*
G01*
G37*
%TD*%
%TO.C,R2*%
G36*
G01*
X192600000Y-9518750D02*
X192600000Y-10481250D01*
G75*
G02*
X192331250Y-10750000I-268750J0D01*
G01*
X191793750Y-10750000D01*
G75*
G02*
X191525000Y-10481250I0J268750D01*
G01*
X191525000Y-9518750D01*
G75*
G02*
X191793750Y-9250000I268750J0D01*
G01*
X192331250Y-9250000D01*
G75*
G02*
X192600000Y-9518750I0J-268750D01*
G01*
G37*
G36*
G01*
X194475000Y-9518750D02*
X194475000Y-10481250D01*
G75*
G02*
X194206250Y-10750000I-268750J0D01*
G01*
X193668750Y-10750000D01*
G75*
G02*
X193400000Y-10481250I0J268750D01*
G01*
X193400000Y-9518750D01*
G75*
G02*
X193668750Y-9250000I268750J0D01*
G01*
X194206250Y-9250000D01*
G75*
G02*
X194475000Y-9518750I0J-268750D01*
G01*
G37*
%TD*%
%TO.C,R1*%
G36*
G01*
X32600000Y-9518750D02*
X32600000Y-10481250D01*
G75*
G02*
X32331250Y-10750000I-268750J0D01*
G01*
X31793750Y-10750000D01*
G75*
G02*
X31525000Y-10481250I0J268750D01*
G01*
X31525000Y-9518750D01*
G75*
G02*
X31793750Y-9250000I268750J0D01*
G01*
X32331250Y-9250000D01*
G75*
G02*
X32600000Y-9518750I0J-268750D01*
G01*
G37*
G36*
G01*
X34475000Y-9518750D02*
X34475000Y-10481250D01*
G75*
G02*
X34206250Y-10750000I-268750J0D01*
G01*
X33668750Y-10750000D01*
G75*
G02*
X33400000Y-10481250I0J268750D01*
G01*
X33400000Y-9518750D01*
G75*
G02*
X33668750Y-9250000I268750J0D01*
G01*
X34206250Y-9250000D01*
G75*
G02*
X34475000Y-9518750I0J-268750D01*
G01*
G37*
%TD*%
D17*
%TO.C,Q2*%
X189000000Y-13000000D03*
X191000000Y-13950000D03*
X191000000Y-12050000D03*
%TD*%
%TO.C,Q1*%
X29000000Y-13000000D03*
X31000000Y-13950000D03*
X31000000Y-12050000D03*
%TD*%
D18*
%TO.C,L1*%
X249300000Y-15000000D03*
X253700000Y-15000000D03*
%TD*%
D19*
%TO.C,J2*%
X9460000Y-21350000D03*
X14540000Y-21350000D03*
X9460000Y-18810000D03*
X14540000Y-18810000D03*
X9460000Y-16270000D03*
X14540000Y-16270000D03*
X9460000Y-13730000D03*
X14540000Y-13730000D03*
X9460000Y-11190000D03*
X14540000Y-11190000D03*
X9460000Y-8650000D03*
X14540000Y-8650000D03*
%TD*%
D20*
%TO.C,J1*%
X310460000Y-21350000D03*
X315540000Y-21350000D03*
X310460000Y-18810000D03*
X315540000Y-18810000D03*
X310460000Y-16270000D03*
X315540000Y-16270000D03*
X310460000Y-13730000D03*
X315540000Y-13730000D03*
X310460000Y-11190000D03*
X315540000Y-11190000D03*
X310460000Y-8650000D03*
X315540000Y-8650000D03*
%TD*%
D21*
%TO.C,CON1*%
X157040000Y-22480000D03*
X157040000Y-27520000D03*
D22*
X153500000Y-22480000D03*
X153500000Y-27520000D03*
D21*
X149960000Y-22480000D03*
X149960000Y-27520000D03*
%TD*%
%TO.C,C14*%
G36*
G01*
X262481250Y-14600000D02*
X261518750Y-14600000D01*
G75*
G02*
X261250000Y-14331250I0J268750D01*
G01*
X261250000Y-13793750D01*
G75*
G02*
X261518750Y-13525000I268750J0D01*
G01*
X262481250Y-13525000D01*
G75*
G02*
X262750000Y-13793750I0J-268750D01*
G01*
X262750000Y-14331250D01*
G75*
G02*
X262481250Y-14600000I-268750J0D01*
G01*
G37*
G36*
G01*
X262481250Y-16475000D02*
X261518750Y-16475000D01*
G75*
G02*
X261250000Y-16206250I0J268750D01*
G01*
X261250000Y-15668750D01*
G75*
G02*
X261518750Y-15400000I268750J0D01*
G01*
X262481250Y-15400000D01*
G75*
G02*
X262750000Y-15668750I0J-268750D01*
G01*
X262750000Y-16206250D01*
G75*
G02*
X262481250Y-16475000I-268750J0D01*
G01*
G37*
%TD*%
%TO.C,C13*%
G36*
G01*
X246981250Y-14600000D02*
X246018750Y-14600000D01*
G75*
G02*
X245750000Y-14331250I0J268750D01*
G01*
X245750000Y-13793750D01*
G75*
G02*
X246018750Y-13525000I268750J0D01*
G01*
X246981250Y-13525000D01*
G75*
G02*
X247250000Y-13793750I0J-268750D01*
G01*
X247250000Y-14331250D01*
G75*
G02*
X246981250Y-14600000I-268750J0D01*
G01*
G37*
G36*
G01*
X246981250Y-16475000D02*
X246018750Y-16475000D01*
G75*
G02*
X245750000Y-16206250I0J268750D01*
G01*
X245750000Y-15668750D01*
G75*
G02*
X246018750Y-15400000I268750J0D01*
G01*
X246981250Y-15400000D01*
G75*
G02*
X247250000Y-15668750I0J-268750D01*
G01*
X247250000Y-16206250D01*
G75*
G02*
X246981250Y-16475000I-268750J0D01*
G01*
G37*
%TD*%
%TO.C,C12*%
G36*
G01*
X164518750Y-21400000D02*
X165481250Y-21400000D01*
G75*
G02*
X165750000Y-21668750I0J-268750D01*
G01*
X165750000Y-22206250D01*
G75*
G02*
X165481250Y-22475000I-268750J0D01*
G01*
X164518750Y-22475000D01*
G75*
G02*
X164250000Y-22206250I0J268750D01*
G01*
X164250000Y-21668750D01*
G75*
G02*
X164518750Y-21400000I268750J0D01*
G01*
G37*
G36*
G01*
X164518750Y-19525000D02*
X165481250Y-19525000D01*
G75*
G02*
X165750000Y-19793750I0J-268750D01*
G01*
X165750000Y-20331250D01*
G75*
G02*
X165481250Y-20600000I-268750J0D01*
G01*
X164518750Y-20600000D01*
G75*
G02*
X164250000Y-20331250I0J268750D01*
G01*
X164250000Y-19793750D01*
G75*
G02*
X164518750Y-19525000I268750J0D01*
G01*
G37*
%TD*%
%TO.C,C11*%
G36*
G01*
X166900000Y-11981250D02*
X166900000Y-11018750D01*
G75*
G02*
X167168750Y-10750000I268750J0D01*
G01*
X167706250Y-10750000D01*
G75*
G02*
X167975000Y-11018750I0J-268750D01*
G01*
X167975000Y-11981250D01*
G75*
G02*
X167706250Y-12250000I-268750J0D01*
G01*
X167168750Y-12250000D01*
G75*
G02*
X166900000Y-11981250I0J268750D01*
G01*
G37*
G36*
G01*
X165025000Y-11981250D02*
X165025000Y-11018750D01*
G75*
G02*
X165293750Y-10750000I268750J0D01*
G01*
X165831250Y-10750000D01*
G75*
G02*
X166100000Y-11018750I0J-268750D01*
G01*
X166100000Y-11981250D01*
G75*
G02*
X165831250Y-12250000I-268750J0D01*
G01*
X165293750Y-12250000D01*
G75*
G02*
X165025000Y-11981250I0J268750D01*
G01*
G37*
%TD*%
%TO.C,C10*%
G36*
G01*
X153100000Y-19018750D02*
X153100000Y-19981250D01*
G75*
G02*
X152831250Y-20250000I-268750J0D01*
G01*
X152293750Y-20250000D01*
G75*
G02*
X152025000Y-19981250I0J268750D01*
G01*
X152025000Y-19018750D01*
G75*
G02*
X152293750Y-18750000I268750J0D01*
G01*
X152831250Y-18750000D01*
G75*
G02*
X153100000Y-19018750I0J-268750D01*
G01*
G37*
G36*
G01*
X154975000Y-19018750D02*
X154975000Y-19981250D01*
G75*
G02*
X154706250Y-20250000I-268750J0D01*
G01*
X154168750Y-20250000D01*
G75*
G02*
X153900000Y-19981250I0J268750D01*
G01*
X153900000Y-19018750D01*
G75*
G02*
X154168750Y-18750000I268750J0D01*
G01*
X154706250Y-18750000D01*
G75*
G02*
X154975000Y-19018750I0J-268750D01*
G01*
G37*
%TD*%
%TO.C,C9*%
G36*
G01*
X162518750Y-21400000D02*
X163481250Y-21400000D01*
G75*
G02*
X163750000Y-21668750I0J-268750D01*
G01*
X163750000Y-22206250D01*
G75*
G02*
X163481250Y-22475000I-268750J0D01*
G01*
X162518750Y-22475000D01*
G75*
G02*
X162250000Y-22206250I0J268750D01*
G01*
X162250000Y-21668750D01*
G75*
G02*
X162518750Y-21400000I268750J0D01*
G01*
G37*
G36*
G01*
X162518750Y-19525000D02*
X163481250Y-19525000D01*
G75*
G02*
X163750000Y-19793750I0J-268750D01*
G01*
X163750000Y-20331250D01*
G75*
G02*
X163481250Y-20600000I-268750J0D01*
G01*
X162518750Y-20600000D01*
G75*
G02*
X162250000Y-20331250I0J268750D01*
G01*
X162250000Y-19793750D01*
G75*
G02*
X162518750Y-19525000I268750J0D01*
G01*
G37*
%TD*%
%TO.C,C8*%
G36*
G01*
X20650000Y-8481250D02*
X20650000Y-7518750D01*
G75*
G02*
X20918750Y-7250000I268750J0D01*
G01*
X21456250Y-7250000D01*
G75*
G02*
X21725000Y-7518750I0J-268750D01*
G01*
X21725000Y-8481250D01*
G75*
G02*
X21456250Y-8750000I-268750J0D01*
G01*
X20918750Y-8750000D01*
G75*
G02*
X20650000Y-8481250I0J268750D01*
G01*
G37*
G36*
G01*
X18775000Y-8481250D02*
X18775000Y-7518750D01*
G75*
G02*
X19043750Y-7250000I268750J0D01*
G01*
X19581250Y-7250000D01*
G75*
G02*
X19850000Y-7518750I0J-268750D01*
G01*
X19850000Y-8481250D01*
G75*
G02*
X19581250Y-8750000I-268750J0D01*
G01*
X19043750Y-8750000D01*
G75*
G02*
X18775000Y-8481250I0J268750D01*
G01*
G37*
%TD*%
%TO.C,C7*%
G36*
G01*
X193518750Y-15400000D02*
X194481250Y-15400000D01*
G75*
G02*
X194750000Y-15668750I0J-268750D01*
G01*
X194750000Y-16206250D01*
G75*
G02*
X194481250Y-16475000I-268750J0D01*
G01*
X193518750Y-16475000D01*
G75*
G02*
X193250000Y-16206250I0J268750D01*
G01*
X193250000Y-15668750D01*
G75*
G02*
X193518750Y-15400000I268750J0D01*
G01*
G37*
G36*
G01*
X193518750Y-13525000D02*
X194481250Y-13525000D01*
G75*
G02*
X194750000Y-13793750I0J-268750D01*
G01*
X194750000Y-14331250D01*
G75*
G02*
X194481250Y-14600000I-268750J0D01*
G01*
X193518750Y-14600000D01*
G75*
G02*
X193250000Y-14331250I0J268750D01*
G01*
X193250000Y-13793750D01*
G75*
G02*
X193518750Y-13525000I268750J0D01*
G01*
G37*
%TD*%
%TO.C,C6*%
G36*
G01*
X113518750Y-15400000D02*
X114481250Y-15400000D01*
G75*
G02*
X114750000Y-15668750I0J-268750D01*
G01*
X114750000Y-16206250D01*
G75*
G02*
X114481250Y-16475000I-268750J0D01*
G01*
X113518750Y-16475000D01*
G75*
G02*
X113250000Y-16206250I0J268750D01*
G01*
X113250000Y-15668750D01*
G75*
G02*
X113518750Y-15400000I268750J0D01*
G01*
G37*
G36*
G01*
X113518750Y-13525000D02*
X114481250Y-13525000D01*
G75*
G02*
X114750000Y-13793750I0J-268750D01*
G01*
X114750000Y-14331250D01*
G75*
G02*
X114481250Y-14600000I-268750J0D01*
G01*
X113518750Y-14600000D01*
G75*
G02*
X113250000Y-14331250I0J268750D01*
G01*
X113250000Y-13793750D01*
G75*
G02*
X113518750Y-13525000I268750J0D01*
G01*
G37*
%TD*%
%TO.C,C5*%
G36*
G01*
X33518750Y-15400000D02*
X34481250Y-15400000D01*
G75*
G02*
X34750000Y-15668750I0J-268750D01*
G01*
X34750000Y-16206250D01*
G75*
G02*
X34481250Y-16475000I-268750J0D01*
G01*
X33518750Y-16475000D01*
G75*
G02*
X33250000Y-16206250I0J268750D01*
G01*
X33250000Y-15668750D01*
G75*
G02*
X33518750Y-15400000I268750J0D01*
G01*
G37*
G36*
G01*
X33518750Y-13525000D02*
X34481250Y-13525000D01*
G75*
G02*
X34750000Y-13793750I0J-268750D01*
G01*
X34750000Y-14331250D01*
G75*
G02*
X34481250Y-14600000I-268750J0D01*
G01*
X33518750Y-14600000D01*
G75*
G02*
X33250000Y-14331250I0J268750D01*
G01*
X33250000Y-13793750D01*
G75*
G02*
X33518750Y-13525000I268750J0D01*
G01*
G37*
%TD*%
%TO.C,C4*%
G36*
G01*
X160518750Y-21400000D02*
X161481250Y-21400000D01*
G75*
G02*
X161750000Y-21668750I0J-268750D01*
G01*
X161750000Y-22206250D01*
G75*
G02*
X161481250Y-22475000I-268750J0D01*
G01*
X160518750Y-22475000D01*
G75*
G02*
X160250000Y-22206250I0J268750D01*
G01*
X160250000Y-21668750D01*
G75*
G02*
X160518750Y-21400000I268750J0D01*
G01*
G37*
G36*
G01*
X160518750Y-19525000D02*
X161481250Y-19525000D01*
G75*
G02*
X161750000Y-19793750I0J-268750D01*
G01*
X161750000Y-20331250D01*
G75*
G02*
X161481250Y-20600000I-268750J0D01*
G01*
X160518750Y-20600000D01*
G75*
G02*
X160250000Y-20331250I0J268750D01*
G01*
X160250000Y-19793750D01*
G75*
G02*
X160518750Y-19525000I268750J0D01*
G01*
G37*
%TD*%
%TO.C,C3*%
G36*
G01*
X168018750Y-15400000D02*
X168981250Y-15400000D01*
G75*
G02*
X169250000Y-15668750I0J-268750D01*
G01*
X169250000Y-16206250D01*
G75*
G02*
X168981250Y-16475000I-268750J0D01*
G01*
X168018750Y-16475000D01*
G75*
G02*
X167750000Y-16206250I0J268750D01*
G01*
X167750000Y-15668750D01*
G75*
G02*
X168018750Y-15400000I268750J0D01*
G01*
G37*
G36*
G01*
X168018750Y-13525000D02*
X168981250Y-13525000D01*
G75*
G02*
X169250000Y-13793750I0J-268750D01*
G01*
X169250000Y-14331250D01*
G75*
G02*
X168981250Y-14600000I-268750J0D01*
G01*
X168018750Y-14600000D01*
G75*
G02*
X167750000Y-14331250I0J268750D01*
G01*
X167750000Y-13793750D01*
G75*
G02*
X168018750Y-13525000I268750J0D01*
G01*
G37*
%TD*%
%TO.C,C2*%
G36*
G01*
X147100000Y-16518750D02*
X147100000Y-17481250D01*
G75*
G02*
X146831250Y-17750000I-268750J0D01*
G01*
X146293750Y-17750000D01*
G75*
G02*
X146025000Y-17481250I0J268750D01*
G01*
X146025000Y-16518750D01*
G75*
G02*
X146293750Y-16250000I268750J0D01*
G01*
X146831250Y-16250000D01*
G75*
G02*
X147100000Y-16518750I0J-268750D01*
G01*
G37*
G36*
G01*
X148975000Y-16518750D02*
X148975000Y-17481250D01*
G75*
G02*
X148706250Y-17750000I-268750J0D01*
G01*
X148168750Y-17750000D01*
G75*
G02*
X147900000Y-17481250I0J268750D01*
G01*
X147900000Y-16518750D01*
G75*
G02*
X148168750Y-16250000I268750J0D01*
G01*
X148706250Y-16250000D01*
G75*
G02*
X148975000Y-16518750I0J-268750D01*
G01*
G37*
%TD*%
%TO.C,C1*%
G36*
G01*
X147100000Y-12518750D02*
X147100000Y-13481250D01*
G75*
G02*
X146831250Y-13750000I-268750J0D01*
G01*
X146293750Y-13750000D01*
G75*
G02*
X146025000Y-13481250I0J268750D01*
G01*
X146025000Y-12518750D01*
G75*
G02*
X146293750Y-12250000I268750J0D01*
G01*
X146831250Y-12250000D01*
G75*
G02*
X147100000Y-12518750I0J-268750D01*
G01*
G37*
G36*
G01*
X148975000Y-12518750D02*
X148975000Y-13481250D01*
G75*
G02*
X148706250Y-13750000I-268750J0D01*
G01*
X148168750Y-13750000D01*
G75*
G02*
X147900000Y-13481250I0J268750D01*
G01*
X147900000Y-12518750D01*
G75*
G02*
X148168750Y-12250000I268750J0D01*
G01*
X148706250Y-12250000D01*
G75*
G02*
X148975000Y-12518750I0J-268750D01*
G01*
G37*
%TD*%
M02*
