M48
; DRILL file {KiCad 5.1.6-c6e7f7d~87~ubuntu20.04.1} date Mon Sep 28 07:16:43 2020
; FORMAT={-:-/ absolute / metric / decimal}
; #@! TF.CreationDate,2020-09-28T07:16:43-07:00
; #@! TF.GenerationSoftware,Kicad,Pcbnew,5.1.6-c6e7f7d~87~ubuntu20.04.1
FMAT,2
METRIC
T1C0.400
T2C1.016
T3C3.600
%
G90
G05
T1
X21.25Y-26.5
X22.5Y-26.5
X23.75Y-26.5
X32.75Y-12.25
X42.5Y-19.0
X44.5Y-19.5
X125.75Y-13.0
X125.75Y-14.0
X141.25Y-11.25
X143.75Y-11.25
X145.99Y-18.51
X147.0Y-23.0
X148.75Y-15.0
X150.0Y-15.0
X151.25Y-9.25
X151.25Y-19.5
X155.25Y-18.25
X155.5Y-11.5
X155.5Y-17.25
X156.007Y-19.559
X156.25Y-9.25
X157.75Y-20.25
X158.0Y-9.25
X158.75Y-10.25
X159.5Y-19.5
X160.0Y-15.0
X160.02Y-10.215
X161.0Y-23.25
X161.0Y-10.412
X163.443Y-11.707
X163.5Y-18.5
X164.181Y-10.982
X164.75Y-13.0
X164.897Y-15.708
X164.922Y-16.708
X165.0Y-23.25
X165.18Y-11.029
X165.346Y-18.154
X167.0Y-19.0
X168.75Y-11.5
X191.65Y-11.4
X281.25Y-17.75
X307.5Y-21.5
X311.4Y-21.35
X312.65Y-21.35
T2
X117.52Y-13.75
X117.52Y-16.29
X120.06Y-13.75
X120.06Y-16.29
X122.6Y-13.75
X122.6Y-16.29
X197.52Y-13.75
X197.52Y-16.29
X200.06Y-13.75
X200.06Y-16.29
X202.6Y-13.75
X202.6Y-16.29
X37.52Y-13.75
X37.52Y-16.29
X40.06Y-13.75
X40.06Y-16.29
X42.6Y-13.75
X42.6Y-16.29
X277.52Y-13.75
X277.52Y-16.29
X280.06Y-13.75
X280.06Y-16.29
X282.6Y-13.75
X282.6Y-16.29
T3
X4.0Y-3.0
X4.0Y-27.0
X316.0Y-3.0
X316.0Y-27.0
T0
M30
