  0
SECTION
  2
HEADER
  9
$ACADVER
  1
AC1014
  9
$HANDSEED
  5
FFFF
  9
$MEASUREMENT
 70
     1
  0
ENDSEC
  0
SECTION
  2
TABLES
  0
TABLE
  2
VPORT
  5
8
330
0
100
AcDbSymbolTable
 70
     4
  0
VPORT
  5
2E
330
8
100
AcDbSymbolTableRecord
100
AcDbViewportTableRecord
  2
*ACTIVE
 70
     0
 10
0.0
 20
0.0
 11
1.0
 21
1.0
 12
210.0
 22
148.5
 13
0.0
 23
0.0
 14
10.0
 24
10.0
 15
10.0
 25
10.0
 16
0.0
 26
0.0
 36
1.0
 17
0.0
 27
0.0
 37
0.0
 40
341.0
 41
1.24
 42
50.0
 43
0.0
 44
0.0
 50
0.0
 51
0.0
 71
     0
 72
   100
 73
     1
 74
     3
 75
     0
 76
     0
 77
     0
 78
     0
  0
ENDTAB
  0
TABLE
  2
LTYPE
  5
5
330
0
100
AcDbSymbolTable
 70
     1
  0
LTYPE
  5
14
330
5
100
AcDbSymbolTableRecord
100
AcDbLinetypeTableRecord
  2
BYBLOCK
 70
     0
  3

 72
    65
 73
     0
 40
0.0
  0
LTYPE
  5
15
330
5
100
AcDbSymbolTableRecord
100
AcDbLinetypeTableRecord
  2
BYLAYER
 70
     0
  3

 72
    65
 73
     0
 40
0.0
  0
LTYPE
  5
16
330
5
100
AcDbSymbolTableRecord
100
AcDbLinetypeTableRecord
  2
CONTINUOUS
 70
     0
  3
Solid line
 72
    65
 73
     0
 40
0.0
  0
ENDTAB
  0
TABLE
  2
LAYER
  5
2
100
AcDbSymbolTable
 70
3
  0
LAYER
  5
50
100
AcDbSymbolTableRecord
100
AcDbLayerTableRecord
  2
0
 70
0
  6
CONTINUOUS
  0
LAYER
  5
51
100
AcDbSymbolTableRecord
100
AcDbLayerTableRecord
  2
Layer_1
 70
0
  6
CONTINUOUS
  0
LAYER
  5
52
100
AcDbSymbolTableRecord
100
AcDbLayerTableRecord
  2
Layer_2
 70
0
  6
CONTINUOUS
  0
ENDTAB
  0
TABLE
  2
STYLE
  5
3
330
0
100
AcDbSymbolTable
 70
     1
  0
STYLE
  5
11
330
3
100
AcDbSymbolTableRecord
100
AcDbTextStyleTableRecord
  2
STANDARD
 70
     0
 40
0.0
 41
1.0
 50
0.0
 71
     0
 42
2.5
  3
txt
  4

  0
ENDTAB
  0
TABLE
  2
VIEW
  5
6
330
0
100
AcDbSymbolTable
 70
     0
  0
ENDTAB
  0
TABLE
  2
UCS
  5
7
330
0
100
AcDbSymbolTable
 70
     0
  0
ENDTAB
  0
TABLE
  2
APPID
  5
9
330
0
100
AcDbSymbolTable
 70
     2
  0
APPID
  5
12
330
9
100
AcDbSymbolTableRecord
100
AcDbRegAppTableRecord
  2
ACAD
 70
     0
  0
ENDTAB
  0
TABLE
  2
DIMSTYLE
  5
A
330
0
100
AcDbSymbolTable
 70
     1
  0
DIMSTYLE
105
27
330
A
100
AcDbSymbolTableRecord
100
AcDbDimStyleTableRecord
  2
ISO-25
 70
     0
  3

  4

  5

  6

  7

 40
1.0
 41
2.5
 42
0.625
 43
3.75
 44
1.25
 45
0.0
 46
0.0
 47
0.0
 48
0.0
140
2.5
141
2.5
142
0.0
143
0.03937007874016
144
1.0
145
0.0
146
1.0
147
0.625
 71
     0
 72
     0
 73
     0
 74
     0
 75
     0
 76
     0
 77
     1
 78
     8
170
     0
171
     3
172
     1
173
     0
174
     0
175
     0
176
     0
177
     0
178
     0
270
     2
271
     2
272
     2
273
     2
274
     3
340
11
275
     0
280
     0
281
     0
282
     0
283
     0
284
     8
285
     0
286
     0
287
     3
288
     0
  0
ENDTAB
  0
TABLE
  2
BLOCK_RECORD
  5
1
330
0
100
AcDbSymbolTable
 70
     1
  0
BLOCK_RECORD
  5
1F
330
1
100
AcDbSymbolTableRecord
100
AcDbBlockTableRecord
  2
*MODEL_SPACE
  0
BLOCK_RECORD
  5
1B
330
1
100
AcDbSymbolTableRecord
100
AcDbBlockTableRecord
  2
*PAPER_SPACE
  0
ENDTAB
  0
ENDSEC
  0
SECTION
  2
BLOCKS
  0
BLOCK
  5
20
330
1F
100
AcDbEntity
  8
0
100
AcDbBlockBegin
  2
*MODEL_SPACE
 70
     0
 10
0.0
 20
0.0
 30
0.0
  3
*MODEL_SPACE
  1

  0
ENDBLK
  5
21
330
1F
100
AcDbEntity
  8
0
100
AcDbBlockEnd
  0
BLOCK
  5
1C
330
1B
100
AcDbEntity
 67
     1
  8
0
100
AcDbBlockBegin
  2
*PAPER_SPACE
  1

  0
ENDBLK
  5
1D
330
1B
100
AcDbEntity
 67
     1
  8
0
100
AcDbBlockEnd
  0
ENDSEC
  0
SECTION
  2
ENTITIES
  0
SPLINE
  5
100
100
AcDbEntity
  8
Layer_2
 62
7
100
AcDbSpline
 70
8
 71
3
 72
8
 73
4
 74
0
 40
0
 40
0
 40
0
 40
0
 40
1
 40
1
 40
1
 40
1
 10
40.567427
 20
1.786628
 30
0.0
 10
34.596081
 20
2.200780
 30
0.0
 10
29.404548
 20
3.600130
 30
0.0
 10
24.321184
 20
6.165720
 30
0.0
  0
SPLINE
  5
101
100
AcDbEntity
  8
Layer_2
 62
7
100
AcDbSpline
 70
8
 71
3
 72
8
 73
4
 74
0
 40
0
 40
0
 40
0
 40
0
 40
1
 40
1
 40
1
 40
1
 10
24.321184
 20
6.165720
 30
0.0
 10
16.569842
 20
10.077834
 30
0.0
 10
10.129348
 20
16.529661
 30
0.0
 10
6.207336
 20
24.311427
 30
0.0
  0
SPLINE
  5
102
100
AcDbEntity
  8
Layer_2
 62
7
100
AcDbSpline
 70
8
 71
3
 72
8
 73
4
 74
0
 40
0
 40
0
 40
0
 40
0
 40
1
 40
1
 40
1
 40
1
 10
6.207336
 20
24.311427
 30
0.0
 10
3.829244
 20
29.029864
 30
0.0
 10
2.485106
 20
33.767784
 30
0.0
 10
1.945545
 20
39.333715
 30
0.0
  0
SPLINE
  5
103
100
AcDbEntity
  8
Layer_2
 62
7
100
AcDbSpline
 70
8
 71
3
 72
8
 73
4
 74
0
 40
0
 40
0
 40
0
 40
0
 40
1
 40
1
 40
1
 40
1
 10
1.945545
 20
39.333715
 30
0.0
 10
1.820937
 20
40.619130
 30
0.0
 10
1.820557
 20
45.072382
 30
0.0
 10
1.944948
 20
46.336858
 30
0.0
  0
SPLINE
  5
104
100
AcDbEntity
  8
Layer_2
 62
7
100
AcDbSpline
 70
8
 71
3
 72
8
 73
4
 74
0
 40
0
 40
0
 40
0
 40
0
 40
1
 40
1
 40
1
 40
1
 10
1.944948
 20
46.336858
 30
0.0
 10
2.286531
 20
49.809180
 30
0.0
 10
2.880196
 20
52.667710
 30
0.0
 10
3.907859
 20
55.788385
 30
0.0
  0
SPLINE
  5
105
100
AcDbEntity
  8
Layer_2
 62
7
100
AcDbSpline
 70
8
 71
3
 72
8
 73
4
 74
0
 40
0
 40
0
 40
0
 40
0
 40
1
 40
1
 40
1
 40
1
 10
3.907859
 20
55.788385
 30
0.0
 10
7.957712
 20
68.086460
 30
0.0
 10
17.841068
 20
77.902760
 30
0.0
 10
30.189715
 20
81.891924
 30
0.0
  0
SPLINE
  5
106
100
AcDbEntity
  8
Layer_2
 62
7
100
AcDbSpline
 70
8
 71
3
 72
8
 73
4
 74
0
 40
0
 40
0
 40
0
 40
0
 40
1
 40
1
 40
1
 40
1
 10
30.189715
 20
81.891924
 30
0.0
 10
33.108246
 20
82.834740
 30
0.0
 10
35.608448
 20
83.352118
 30
0.0
 10
39.043427
 20
83.724065
 30
0.0
  0
SPLINE
  5
107
100
AcDbEntity
  8
Layer_2
 62
7
100
AcDbSpline
 70
8
 71
3
 72
8
 73
4
 74
0
 40
0
 40
0
 40
0
 40
0
 40
1
 40
1
 40
1
 40
1
 10
39.043427
 20
83.724065
 30
0.0
 10
40.546594
 20
83.886830
 30
0.0
 10
44.861861
 20
83.908269
 30
0.0
 10
46.373142
 20
83.760479
 30
0.0
  0
SPLINE
  5
108
100
AcDbEntity
  8
Layer_2
 62
7
100
AcDbSpline
 70
8
 71
3
 72
8
 73
4
 74
0
 40
0
 40
0
 40
0
 40
0
 40
1
 40
1
 40
1
 40
1
 10
46.373142
 20
83.760479
 30
0.0
 10
51.052677
 20
83.302862
 30
0.0
 10
54.681207
 20
82.415343
 30
0.0
 10
58.673426
 20
80.751898
 30
0.0
  0
SPLINE
  5
109
100
AcDbEntity
  8
Layer_2
 62
7
100
AcDbSpline
 70
8
 71
3
 72
8
 73
4
 74
0
 40
0
 40
0
 40
0
 40
0
 40
1
 40
1
 40
1
 40
1
 10
58.673426
 20
80.751898
 30
0.0
 10
67.726290
 20
76.979823
 30
0.0
 10
75.163325
 20
70.065669
 30
0.0
 10
79.571779
 20
61.322858
 30
0.0
  0
SPLINE
  5
10a
100
AcDbEntity
  8
Layer_2
 62
7
100
AcDbSpline
 70
8
 71
3
 72
8
 73
4
 74
0
 40
0
 40
0
 40
0
 40
0
 40
1
 40
1
 40
1
 40
1
 10
79.571779
 20
61.322858
 30
0.0
 10
81.564051
 20
57.371792
 30
0.0
 10
82.814922
 20
53.454165
 30
0.0
 10
83.487776
 20
49.058285
 30
0.0
  0
SPLINE
  5
10b
100
AcDbEntity
  8
Layer_2
 62
7
100
AcDbSpline
 70
8
 71
3
 72
8
 73
4
 74
0
 40
0
 40
0
 40
0
 40
0
 40
1
 40
1
 40
1
 40
1
 10
83.487776
 20
49.058285
 30
0.0
 10
83.858994
 20
46.633014
 30
0.0
 10
83.922079
 20
45.726427
 30
0.0
 10
83.922079
 20
42.817142
 30
0.0
  0
SPLINE
  5
10c
100
AcDbEntity
  8
Layer_2
 62
7
100
AcDbSpline
 70
8
 71
3
 72
8
 73
4
 74
0
 40
0
 40
0
 40
0
 40
0
 40
1
 40
1
 40
1
 40
1
 10
83.922079
 20
42.817142
 30
0.0
 10
83.922079
 20
39.907858
 30
0.0
 10
83.858994
 20
39.001274
 30
0.0
 10
83.487776
 20
36.576000
 30
0.0
  0
SPLINE
  5
10d
100
AcDbEntity
  8
Layer_2
 62
7
100
AcDbSpline
 70
8
 71
3
 72
8
 73
4
 74
0
 40
0
 40
0
 40
0
 40
0
 40
1
 40
1
 40
1
 40
1
 10
83.487776
 20
36.576000
 30
0.0
 10
82.815025
 20
32.180800
 30
0.0
 10
81.565091
 20
28.265784
 30
0.0
 10
79.572091
 20
24.311427
 30
0.0
  0
SPLINE
  5
10e
100
AcDbEntity
  8
Layer_2
 62
7
100
AcDbSpline
 70
8
 71
3
 72
8
 73
4
 74
0
 40
0
 40
0
 40
0
 40
0
 40
1
 40
1
 40
1
 40
1
 10
79.572091
 20
24.311427
 30
0.0
 10
75.632993
 20
16.495760
 30
0.0
 10
69.215638
 20
10.078503
 30
0.0
 10
61.395430
 20
6.135045
 30
0.0
  0
SPLINE
  5
10f
100
AcDbEntity
  8
Layer_2
 62
7
100
AcDbSpline
 70
8
 71
3
 72
8
 73
4
 74
0
 40
0
 40
0
 40
0
 40
0
 40
1
 40
1
 40
1
 40
1
 10
61.395430
 20
6.135045
 30
0.0
 10
56.767484
 20
3.801335
 30
0.0
 10
52.273793
 20
2.502030
 30
0.0
 10
46.808573
 20
1.917409
 30
0.0
  0
SPLINE
  5
110
100
AcDbEntity
  8
Layer_2
 62
7
100
AcDbSpline
 70
8
 71
3
 72
8
 73
4
 74
0
 40
0
 40
0
 40
0
 40
0
 40
1
 40
1
 40
1
 40
1
 10
46.808573
 20
1.917409
 30
0.0
 10
45.808940
 20
1.810475
 30
0.0
 10
41.519531
 20
1.720596
 30
0.0
 10
40.567427
 20
1.786628
 30
0.0
  0
LWPOLYLINE
  5
111
100
AcDbEntity
  8
Layer_2
 62
7
100
AcDbPolyline
 90
1
 70
1
 10
40.567427
 20
1.786628
 30
0.0
  0
SPLINE
  5
112
100
AcDbEntity
  8
Layer_2
 62
7
100
AcDbSpline
 70
8
 71
3
 72
8
 73
4
 74
0
 40
0
 40
0
 40
0
 40
0
 40
1
 40
1
 40
1
 40
1
 10
22.006205
 20
16.311557
 30
0.0
 10
22.634733
 20
15.785142
 30
0.0
 10
24.533004
 20
14.489451
 30
0.0
 10
25.676666
 20
13.806233
 30
0.0
  0
SPLINE
  5
113
100
AcDbEntity
  8
Layer_2
 62
7
100
AcDbSpline
 70
8
 71
3
 72
8
 73
4
 74
0
 40
0
 40
0
 40
0
 40
0
 40
1
 40
1
 40
1
 40
1
 10
25.676666
 20
13.806233
 30
0.0
 10
26.848747
 20
13.106038
 30
0.0
 10
28.643363
 20
12.187865
 30
0.0
 10
29.751369
 20
11.721513
 30
0.0
  0
SPLINE
  5
114
100
AcDbEntity
  8
Layer_2
 62
7
100
AcDbSpline
 70
8
 71
3
 72
8
 73
4
 74
0
 40
0
 40
0
 40
0
 40
0
 40
1
 40
1
 40
1
 40
1
 10
29.751369
 20
11.721513
 30
0.0
 10
30.715236
 20
11.315824
 30
0.0
 10
32.704114
 20
10.617266
 30
0.0
 10
33.691600
 20
10.337562
 30
0.0
  0
SPLINE
  5
115
100
AcDbEntity
  8
Layer_2
 62
7
100
AcDbSpline
 70
8
 71
3
 72
8
 73
4
 74
0
 40
0
 40
0
 40
0
 40
0
 40
1
 40
1
 40
1
 40
1
 10
33.691600
 20
10.337562
 30
0.0
 10
35.009892
 20
9.964166
 30
0.0
 10
38.293842
 20
9.318260
 30
0.0
 10
38.989000
 20
9.295638
 30
0.0
  0
LWPOLYLINE
  5
116
100
AcDbEntity
  8
Layer_2
 62
7
100
AcDbPolyline
 90
5
 70
0
 10
39.188573
 20
21.608029
 30
0.0
 10
39.188573
 20
33.926915
 30
0.0
 10
30.478920
 20
25.218459
 30
0.0
 10
21.769267
 20
16.510000
 30
0.0
 10
22.006205
 20
16.311557
 30
0.0
  0
SPLINE
  5
117
100
AcDbEntity
  8
Layer_2
 62
7
100
AcDbSpline
 70
8
 71
3
 72
8
 73
4
 74
0
 40
0
 40
0
 40
0
 40
0
 40
1
 40
1
 40
1
 40
1
 10
48.200781
 20
9.501566
 30
0.0
 10
50.912387
 20
9.959943
 30
0.0
 10
53.049792
 20
10.547191
 30
0.0
 10
55.482477
 20
11.502194
 30
0.0
  0
SPLINE
  5
118
100
AcDbEntity
  8
Layer_2
 62
7
100
AcDbSpline
 70
8
 71
3
 72
8
 73
4
 74
0
 40
0
 40
0
 40
0
 40
0
 40
1
 40
1
 40
1
 40
1
 10
55.482477
 20
11.502194
 30
0.0
 10
56.749490
 20
11.999584
 30
0.0
 10
58.942624
 20
13.093991
 30
0.0
 10
60.234285
 20
13.873414
 30
0.0
  0
SPLINE
  5
119
100
AcDbEntity
  8
Layer_2
 62
7
100
AcDbSpline
 70
8
 71
3
 72
8
 73
4
 74
0
 40
0
 40
0
 40
0
 40
0
 40
1
 40
1
 40
1
 40
1
 10
60.234285
 20
13.873414
 30
0.0
 10
61.257733
 20
14.490988
 30
0.0
 10
63.184170
 20
15.818202
 30
0.0
 10
63.773225
 20
16.311557
 30
0.0
  0
LWPOLYLINE
  5
11a
100
AcDbEntity
  8
Layer_2
 62
7
100
AcDbPolyline
 90
4
 70
0
 10
38.989000
 20
9.295638
 30
0.0
 10
39.188573
 20
9.289103
 30
0.0
 10
39.188573
 20
21.607994
 30
0.0
 10
39.188573
 20
21.608029
 30
0.0
  0
SPLINE
  5
11b
100
AcDbEntity
  8
Layer_2
 62
7
100
AcDbSpline
 70
8
 71
3
 72
8
 73
4
 74
0
 40
0
 40
0
 40
0
 40
0
 40
1
 40
1
 40
1
 40
1
 10
46.767496
 20
9.289142
 30
0.0
 10
46.864646
 20
9.289142
 30
0.0
 10
47.509626
 20
9.384734
 30
0.0
 10
48.200781
 20
9.501566
 30
0.0
  0
LWPOLYLINE
  5
11c
100
AcDbEntity
  8
Layer_2
 62
7
100
AcDbPolyline
 90
7
 70
0
 10
63.773225
 20
16.311557
 30
0.0
 10
64.010162
 20
16.510000
 30
0.0
 10
55.300510
 20
25.218459
 30
0.0
 10
46.590858
 20
33.926915
 30
0.0
 10
46.590858
 20
21.608029
 30
0.0
 10
46.590858
 20
9.289142
 30
0.0
 10
46.767496
 20
9.289142
 30
0.0
  0
LWPOLYLINE
  5
11d
100
AcDbEntity
  8
Layer_2
 62
7
100
AcDbPolyline
 90
1
 70
1
 10
48.200781
 20
9.501566
 30
0.0
  0
SPLINE
  5
11e
100
AcDbEntity
  8
Layer_2
 62
7
100
AcDbSpline
 70
8
 71
3
 72
8
 73
4
 74
0
 40
0
 40
0
 40
0
 40
0
 40
1
 40
1
 40
1
 40
1
 10
38.771285
 20
76.311439
 30
0.0
 10
34.275898
 20
75.768179
 30
0.0
 10
29.627661
 20
74.186020
 30
0.0
 10
25.762857
 20
71.883651
 30
0.0
  0
SPLINE
  5
11f
100
AcDbEntity
  8
Layer_2
 62
7
100
AcDbSpline
 70
8
 71
3
 72
8
 73
4
 74
0
 40
0
 40
0
 40
0
 40
0
 40
1
 40
1
 40
1
 40
1
 10
25.762857
 20
71.883651
 30
0.0
 10
22.795211
 20
70.115744
 30
0.0
 10
20.422832
 20
68.198644
 30
0.0
 10
18.093712
 20
65.686277
 30
0.0
  0
SPLINE
  5
120
100
AcDbEntity
  8
Layer_2
 62
7
100
AcDbSpline
 70
8
 71
3
 72
8
 73
4
 74
0
 40
0
 40
0
 40
0
 40
0
 40
1
 40
1
 40
1
 40
1
 10
18.093712
 20
65.686277
 30
0.0
 10
11.376894
 20
58.441005
 30
0.0
 10
8.160438
 20
48.437967
 30
0.0
 10
9.403535
 20
38.660210
 30
0.0
  0
SPLINE
  5
121
100
AcDbEntity
  8
Layer_2
 62
7
100
AcDbSpline
 70
8
 71
3
 72
8
 73
4
 74
0
 40
0
 40
0
 40
0
 40
0
 40
1
 40
1
 40
1
 40
1
 10
9.403535
 20
38.660210
 30
0.0
 10
9.885153
 20
34.871975
 30
0.0
 10
10.929659
 20
31.373278
 30
0.0
 10
12.593131
 20
27.976285
 30
0.0
  0
SPLINE
  5
122
100
AcDbEntity
  8
Layer_2
 62
7
100
AcDbSpline
 70
8
 71
3
 72
8
 73
4
 74
0
 40
0
 40
0
 40
0
 40
0
 40
1
 40
1
 40
1
 40
1
 10
12.593131
 20
27.976285
 30
0.0
 10
13.603175
 20
25.913662
 30
0.0
 10
14.727478
 20
24.099462
 30
0.0
 10
16.137994
 20
22.256218
 30
0.0
  0
LWPOLYLINE
  5
123
100
AcDbEntity
  8
Layer_2
 62
7
100
AcDbPolyline
 90
3
 70
0
 10
39.188573
 20
60.333275
 30
0.0
 10
39.188573
 20
76.361867
 30
0.0
 10
38.771285
 20
76.311439
 30
0.0
  0
SPLINE
  5
124
100
AcDbEntity
  8
Layer_2
 62
7
100
AcDbSpline
 70
8
 71
3
 72
8
 73
4
 74
0
 40
0
 40
0
 40
0
 40
0
 40
1
 40
1
 40
1
 40
1
 10
70.360106
 20
23.241056
 30
0.0
 10
75.260113
 20
30.085583
 30
0.0
 10
77.433120
 20
38.658342
 30
0.0
 10
76.375892
 20
46.974077
 30
0.0
  0
SPLINE
  5
125
100
AcDbEntity
  8
Layer_2
 62
7
100
AcDbSpline
 70
8
 71
3
 72
8
 73
4
 74
0
 40
0
 40
0
 40
0
 40
0
 40
1
 40
1
 40
1
 40
1
 10
76.375892
 20
46.974077
 30
0.0
 10
75.894446
 20
50.760953
 30
0.0
 10
74.851043
 20
54.256625
 30
0.0
 10
73.186893
 20
57.658000
 30
0.0
  0
SPLINE
  5
126
100
AcDbEntity
  8
Layer_2
 62
7
100
AcDbSpline
 70
8
 71
3
 72
8
 73
4
 74
0
 40
0
 40
0
 40
0
 40
0
 40
1
 40
1
 40
1
 40
1
 10
73.186893
 20
57.658000
 30
0.0
 10
69.880512
 20
64.415974
 30
0.0
 10
64.350805
 20
69.921762
 30
0.0
 10
57.585430
 20
73.191979
 30
0.0
  0
SPLINE
  5
127
100
AcDbEntity
  8
Layer_2
 62
7
100
AcDbSpline
 70
8
 71
3
 72
8
 73
4
 74
0
 40
0
 40
0
 40
0
 40
0
 40
1
 40
1
 40
1
 40
1
 10
57.585430
 20
73.191979
 30
0.0
 10
54.658514
 20
74.606779
 30
0.0
 10
51.787491
 20
75.517952
 30
0.0
 10
48.462094
 20
76.087440
 30
0.0
  0
SPLINE
  5
128
100
AcDbEntity
  8
Layer_2
 62
7
100
AcDbSpline
 70
8
 71
3
 72
8
 73
4
 74
0
 40
0
 40
0
 40
0
 40
0
 40
1
 40
1
 40
1
 40
1
 10
48.462094
 20
76.087440
 30
0.0
 10
47.891928
 20
76.185083
 30
0.0
 10
47.237650
 20
76.286774
 30
0.0
 10
47.008142
 20
76.313420
 30
0.0
  0
LWPOLYLINE
  5
129
100
AcDbEntity
  8
Layer_2
 62
7
100
AcDbPolyline
 90
5
 70
0
 10
16.137994
 20
22.256218
 30
0.0
 10
16.572262
 20
21.688721
 30
0.0
 10
27.880416
 20
32.996703
 30
0.0
 10
39.188573
 20
44.304683
 30
0.0
 10
39.188573
 20
60.333275
 30
0.0
  0
SPLINE
  5
12a
100
AcDbEntity
  8
Layer_2
 62
7
100
AcDbSpline
 70
8
 71
3
 72
8
 73
4
 74
0
 40
0
 40
0
 40
0
 40
0
 40
1
 40
1
 40
1
 40
1
 10
69.395300
 20
21.933649
 30
0.0
 10
69.504446
 20
22.063956
 30
0.0
 10
69.938609
 20
22.652289
 30
0.0
 10
70.360106
 20
23.241056
 30
0.0
  0
LWPOLYLINE
  5
12b
100
AcDbEntity
  8
Layer_2
 62
7
100
AcDbPolyline
 90
7
 70
0
 10
47.008142
 20
76.313420
 30
0.0
 10
46.590858
 20
76.361867
 30
0.0
 10
46.590858
 20
60.333449
 30
0.0
 10
46.590858
 20
44.305032
 30
0.0
 10
57.893858
 20
33.000879
 30
0.0
 10
69.196858
 20
21.696725
 30
0.0
 10
69.395300
 20
21.933649
 30
0.0
  0
LWPOLYLINE
  5
12c
100
AcDbEntity
  8
Layer_2
 62
7
100
AcDbPolyline
 90
1
 70
1
 10
70.360106
 20
23.241056
 30
0.0
  0
ENDSEC
  0
SECTION
  2
OBJECTS
  0
DICTIONARY
  5
C
330
0
100
AcDbDictionary
  3
ACAD_GROUP
350
D
  3
ACAD_MLINESTYLE
350
17
  0
DICTIONARY
  5
D
330
C
100
AcDbDictionary
  0
DICTIONARY
  5
1A
330
C
100
AcDbDictionary
  0
DICTIONARY
  5
17
330
C
100
AcDbDictionary
  3
STANDARD
350
18
  0
DICTIONARY
  5
19
330
C
100
AcDbDictionary
  0
ENDSEC
  0
EOF
