G04 #@! TF.GenerationSoftware,KiCad,Pcbnew,7.0.9-unknown-1000.20231106gitacd7d5a.fc37*
G04 #@! TF.CreationDate,2023-11-18T15:56:13-08:00*
G04 #@! TF.ProjectId,strange-parts-coaster,73747261-6e67-4652-9d70-617274732d63,rev?*
G04 #@! TF.SameCoordinates,Original*
G04 #@! TF.FileFunction,Soldermask,Bot*
G04 #@! TF.FilePolarity,Negative*
%FSLAX46Y46*%
G04 Gerber Fmt 4.6, Leading zero omitted, Abs format (unit mm)*
G04 Created by KiCad (PCBNEW 7.0.9-unknown-1000.20231106gitacd7d5a.fc37) date 2023-11-18 15:56:13*
%MOMM*%
%LPD*%
G01*
G04 APERTURE LIST*
G04 APERTURE END LIST*
G04 #@! TO.C,G\u002A\u002A\u002A*
G36*
X150081460Y-103117734D02*
G01*
X150084014Y-103219288D01*
X150086468Y-103392526D01*
X150088822Y-103637205D01*
X150091075Y-103953081D01*
X150093227Y-104339910D01*
X150095278Y-104797449D01*
X150097227Y-105325454D01*
X150099074Y-105923681D01*
X150100818Y-106591887D01*
X150102460Y-107329827D01*
X150103998Y-108137259D01*
X150105433Y-109013939D01*
X150106764Y-109959623D01*
X150107990Y-110974067D01*
X150109112Y-112057028D01*
X150110128Y-113208262D01*
X150111040Y-114427525D01*
X150111845Y-115714574D01*
X150112544Y-117069165D01*
X150113137Y-118491054D01*
X150113622Y-119979998D01*
X150114001Y-121535753D01*
X150114271Y-123158076D01*
X150114434Y-124846722D01*
X150114488Y-126601449D01*
X150114488Y-150150568D01*
X126565369Y-150150568D01*
X124899503Y-150150519D01*
X123207444Y-150150362D01*
X121581696Y-150150097D01*
X120022502Y-150149724D01*
X118530107Y-150149244D01*
X117104755Y-150148657D01*
X115746688Y-150147963D01*
X114456150Y-150147163D01*
X113233386Y-150146258D01*
X112078639Y-150145247D01*
X110992152Y-150144130D01*
X109974169Y-150142909D01*
X109024934Y-150141584D01*
X108144691Y-150140155D01*
X107333682Y-150138622D01*
X106592152Y-150136985D01*
X105920345Y-150135246D01*
X105318504Y-150133405D01*
X104786873Y-150131461D01*
X104325695Y-150129415D01*
X103935214Y-150127268D01*
X103615674Y-150125020D01*
X103367318Y-150122672D01*
X103190390Y-150120223D01*
X103085134Y-150117674D01*
X103051793Y-150115025D01*
X103104200Y-150085846D01*
X103203205Y-150059625D01*
X103353886Y-150035748D01*
X103561362Y-150013555D01*
X103830756Y-149992389D01*
X104167187Y-149971589D01*
X104377112Y-149958230D01*
X104651712Y-149936909D01*
X104921691Y-149912243D01*
X105164556Y-149886316D01*
X105357812Y-149861214D01*
X105528993Y-149837182D01*
X105785537Y-149804907D01*
X106042890Y-149776021D01*
X106265055Y-149754748D01*
X106420329Y-149740002D01*
X106628999Y-149715611D01*
X106820669Y-149688592D01*
X106967833Y-149662552D01*
X107020563Y-149652089D01*
X107198266Y-149621980D01*
X107400842Y-149593063D01*
X107593971Y-149570388D01*
X107653705Y-149563897D01*
X107864471Y-149535807D01*
X108080117Y-149500775D01*
X108262216Y-149464870D01*
X108293802Y-149457941D01*
X108490346Y-149419886D01*
X108709053Y-149383875D01*
X108908184Y-149356887D01*
X108953776Y-149351309D01*
X109148461Y-149321791D01*
X109343505Y-149284854D01*
X109502771Y-149247167D01*
X109507079Y-149245976D01*
X109646624Y-149210927D01*
X109769298Y-149186054D01*
X109848991Y-149176673D01*
X109887964Y-149173318D01*
X109994661Y-149155573D01*
X110138861Y-149125990D01*
X110300710Y-149088445D01*
X110375033Y-149070412D01*
X110574775Y-149023367D01*
X110771646Y-148978665D01*
X110932102Y-148943980D01*
X110939866Y-148942372D01*
X111139852Y-148899666D01*
X111347872Y-148852454D01*
X111584466Y-148795950D01*
X111870170Y-148725368D01*
X111871466Y-148725044D01*
X112029052Y-148686677D01*
X112216432Y-148642453D01*
X112393324Y-148601881D01*
X112396252Y-148601221D01*
X112571749Y-148558015D01*
X112754828Y-148507267D01*
X112906319Y-148459825D01*
X113019551Y-148423841D01*
X113132824Y-148394093D01*
X113204653Y-148382671D01*
X113204958Y-148382670D01*
X113275675Y-148370958D01*
X113389337Y-148340559D01*
X113521487Y-148298007D01*
X113653794Y-148254904D01*
X113798382Y-148213598D01*
X113908665Y-148188207D01*
X114012393Y-148164935D01*
X114156482Y-148125407D01*
X114305540Y-148079022D01*
X114338313Y-148068176D01*
X114506807Y-148013529D01*
X114700188Y-147952107D01*
X114882812Y-147895258D01*
X114927279Y-147881515D01*
X115111655Y-147823130D01*
X115294514Y-147763406D01*
X115442045Y-147713341D01*
X115561027Y-147671940D01*
X115856598Y-147571878D01*
X116116900Y-147487842D01*
X116325994Y-147425031D01*
X116374599Y-147410545D01*
X116529266Y-147358296D01*
X116668750Y-147303902D01*
X116704088Y-147288983D01*
X116852811Y-147230481D01*
X116993466Y-147180263D01*
X117261529Y-147089815D01*
X117503880Y-147002922D01*
X117715057Y-146920782D01*
X117787359Y-146891423D01*
X117956295Y-146822876D01*
X118111932Y-146759782D01*
X118188811Y-146729632D01*
X118347844Y-146671387D01*
X118488679Y-146624295D01*
X118544107Y-146605787D01*
X118674726Y-146553602D01*
X118777316Y-146501923D01*
X118787782Y-146495666D01*
X118874220Y-146452325D01*
X118935714Y-146434510D01*
X118968754Y-146427603D01*
X119062042Y-146395584D01*
X119195111Y-146343126D01*
X119352851Y-146276481D01*
X119520153Y-146201905D01*
X119681910Y-146125650D01*
X119757222Y-146090389D01*
X119848128Y-146052296D01*
X119897869Y-146037500D01*
X119926938Y-146030230D01*
X120007812Y-145998587D01*
X120113829Y-145950366D01*
X120235455Y-145891993D01*
X120469704Y-145781224D01*
X120641508Y-145702760D01*
X120752047Y-145656070D01*
X120802502Y-145640625D01*
X120819817Y-145634886D01*
X120894647Y-145602112D01*
X121018855Y-145544215D01*
X121183007Y-145465680D01*
X121377667Y-145370991D01*
X121593400Y-145264636D01*
X121711113Y-145206313D01*
X121927470Y-145099512D01*
X122123312Y-145003334D01*
X122287620Y-144923166D01*
X122409374Y-144864394D01*
X122477557Y-144832407D01*
X122492768Y-144825564D01*
X122589644Y-144779203D01*
X122657954Y-144742235D01*
X122674183Y-144732650D01*
X122754363Y-144690119D01*
X122856392Y-144639996D01*
X122857952Y-144639256D01*
X122956760Y-144589994D01*
X123104376Y-144513418D01*
X123286789Y-144416986D01*
X123489988Y-144308155D01*
X123699962Y-144194381D01*
X123902699Y-144083123D01*
X123969404Y-144046541D01*
X124108637Y-143971528D01*
X124227415Y-143909060D01*
X124330774Y-143853105D01*
X124467512Y-143775365D01*
X124606250Y-143693608D01*
X124742484Y-143613298D01*
X124879516Y-143535333D01*
X124985085Y-143478137D01*
X125033257Y-143452291D01*
X125164896Y-143375732D01*
X125291761Y-143295617D01*
X125347618Y-143259639D01*
X125473616Y-143184888D01*
X125580398Y-143128973D01*
X125594497Y-143122177D01*
X125694082Y-143067393D01*
X125823761Y-142988905D01*
X125959233Y-142901318D01*
X125995528Y-142877197D01*
X126117814Y-142798695D01*
X126218457Y-142738077D01*
X126278555Y-142706854D01*
X126353281Y-142667642D01*
X126440913Y-142607798D01*
X126474093Y-142583448D01*
X126579233Y-142511279D01*
X126730830Y-142410899D01*
X126919080Y-142288701D01*
X127134183Y-142151074D01*
X127366335Y-142004411D01*
X127440779Y-141957150D01*
X127561763Y-141878533D01*
X127654971Y-141815857D01*
X127734191Y-141761860D01*
X127852840Y-141682541D01*
X127979687Y-141598886D01*
X128093031Y-141523573D01*
X128246187Y-141419299D01*
X128376562Y-141328017D01*
X128455112Y-141272051D01*
X128581154Y-141183157D01*
X128683238Y-141112169D01*
X128698978Y-141101313D01*
X128798611Y-141031437D01*
X128927572Y-140939798D01*
X129062074Y-140843281D01*
X129066046Y-140840415D01*
X129304808Y-140668728D01*
X129497884Y-140531240D01*
X129657386Y-140419324D01*
X129663060Y-140415343D01*
X129736186Y-140361877D01*
X129852349Y-140274919D01*
X129999129Y-140163919D01*
X130164106Y-140038330D01*
X130334860Y-139907601D01*
X130498972Y-139781184D01*
X130644022Y-139668530D01*
X130784360Y-139558725D01*
X130985747Y-139400601D01*
X131186847Y-139242148D01*
X131378236Y-139090834D01*
X131550493Y-138954126D01*
X131694194Y-138839491D01*
X131799917Y-138754396D01*
X131858238Y-138706308D01*
X131901972Y-138668749D01*
X131995290Y-138588696D01*
X132127547Y-138475285D01*
X132290389Y-138335681D01*
X132475462Y-138177044D01*
X132674410Y-138006540D01*
X132853116Y-137853151D01*
X133039945Y-137692248D01*
X133205309Y-137549266D01*
X133340859Y-137431443D01*
X133438246Y-137346018D01*
X133489120Y-137300229D01*
X133506030Y-137284214D01*
X133579849Y-137214490D01*
X133688631Y-137111883D01*
X133822656Y-136985547D01*
X133972207Y-136844635D01*
X134127563Y-136698300D01*
X134279008Y-136555697D01*
X134416821Y-136425978D01*
X134531285Y-136318296D01*
X134612680Y-136241806D01*
X134651288Y-136205660D01*
X134833057Y-136035362D01*
X135137840Y-135741709D01*
X135440816Y-135440927D01*
X135715038Y-135159517D01*
X135784627Y-135086635D01*
X135962878Y-134900209D01*
X136162415Y-134691791D01*
X136363567Y-134481921D01*
X136546665Y-134291140D01*
X136661087Y-134171722D01*
X136855203Y-133967197D01*
X137033729Y-133775831D01*
X137206952Y-133586183D01*
X137385156Y-133386808D01*
X137578626Y-133166266D01*
X137797649Y-132913114D01*
X138052509Y-132615909D01*
X138130779Y-132524373D01*
X138285278Y-132343736D01*
X138424317Y-132181232D01*
X138540039Y-132046042D01*
X138624589Y-131947344D01*
X138670109Y-131894318D01*
X138692971Y-131866936D01*
X138762411Y-131781259D01*
X138862410Y-131656310D01*
X138984184Y-131503193D01*
X139118947Y-131333010D01*
X139257914Y-131156866D01*
X139392299Y-130985862D01*
X139513317Y-130831104D01*
X139612181Y-130703693D01*
X139689499Y-130603788D01*
X139797373Y-130465008D01*
X139901864Y-130331100D01*
X139984998Y-130223571D01*
X140127925Y-130034962D01*
X140279276Y-129831819D01*
X140421389Y-129637907D01*
X140536606Y-129476989D01*
X140545754Y-129463977D01*
X140631691Y-129342441D01*
X140715767Y-129224432D01*
X140725082Y-129211417D01*
X140811565Y-129089882D01*
X140894892Y-128971875D01*
X140925017Y-128929100D01*
X141002241Y-128819879D01*
X141099118Y-128683199D01*
X141201580Y-128538921D01*
X141250715Y-128469443D01*
X141366051Y-128304137D01*
X141475953Y-128144020D01*
X141562041Y-128015767D01*
X141640290Y-127897622D01*
X141720701Y-127777650D01*
X141779777Y-127691051D01*
X141806548Y-127651766D01*
X141880479Y-127539101D01*
X141955583Y-127420455D01*
X141989023Y-127366781D01*
X142064272Y-127247888D01*
X142125560Y-127153316D01*
X142167789Y-127089039D01*
X142265417Y-126938201D01*
X142379908Y-126759392D01*
X142497663Y-126573975D01*
X142605085Y-126403315D01*
X142688575Y-126268774D01*
X142743823Y-126178911D01*
X142824910Y-126047920D01*
X142889814Y-125944059D01*
X142913925Y-125905212D01*
X142989289Y-125779340D01*
X143062280Y-125652557D01*
X143098867Y-125588524D01*
X143183363Y-125445572D01*
X143266515Y-125309801D01*
X143292225Y-125268714D01*
X143346151Y-125181310D01*
X143399235Y-125092773D01*
X143458643Y-124990708D01*
X143531538Y-124862719D01*
X143625085Y-124696408D01*
X143746449Y-124479381D01*
X143859498Y-124276328D01*
X144061806Y-123909000D01*
X144235639Y-123587214D01*
X144386836Y-123300101D01*
X144521235Y-123036790D01*
X144582452Y-122915629D01*
X144656969Y-122770443D01*
X144717727Y-122654620D01*
X144755561Y-122585796D01*
X144758564Y-122580666D01*
X144811141Y-122481058D01*
X144863233Y-122369318D01*
X144869591Y-122354709D01*
X144914999Y-122257503D01*
X144951827Y-122188921D01*
X144954547Y-122184378D01*
X144986682Y-122122960D01*
X145041259Y-122012655D01*
X145111372Y-121867578D01*
X145190115Y-121701847D01*
X145284237Y-121502043D01*
X145418190Y-121217167D01*
X145527882Y-120982932D01*
X145617477Y-120790255D01*
X145691141Y-120630056D01*
X145753037Y-120493251D01*
X145807330Y-120370759D01*
X145858184Y-120253498D01*
X145909765Y-120132387D01*
X145932542Y-120079037D01*
X146000620Y-119924435D01*
X146063741Y-119787307D01*
X146110660Y-119692284D01*
X146125795Y-119662835D01*
X146165830Y-119571582D01*
X146181954Y-119511886D01*
X146195876Y-119461154D01*
X146234845Y-119365746D01*
X146290057Y-119248438D01*
X146342830Y-119136643D01*
X146382816Y-119039665D01*
X146398160Y-118985069D01*
X146398465Y-118979890D01*
X146417987Y-118912651D01*
X146458561Y-118822711D01*
X146508014Y-118716483D01*
X146579847Y-118540403D01*
X146666048Y-118311907D01*
X146763200Y-118039773D01*
X146793866Y-117955380D01*
X146837846Y-117844814D01*
X146870792Y-117774062D01*
X146905826Y-117697709D01*
X146962567Y-117550048D01*
X147039662Y-117333372D01*
X147137148Y-117047585D01*
X147154819Y-116996521D01*
X147211880Y-116842983D01*
X147267822Y-116704830D01*
X147286334Y-116660060D01*
X147342190Y-116508828D01*
X147388952Y-116362074D01*
X147410129Y-116289192D01*
X147481669Y-116058638D01*
X147572446Y-115782969D01*
X147677261Y-115478125D01*
X147716524Y-115363502D01*
X147782582Y-115160984D01*
X147859786Y-114913651D01*
X147950704Y-114613222D01*
X148057907Y-114251421D01*
X148085826Y-114156858D01*
X148147203Y-113951002D01*
X148208051Y-113749152D01*
X148258556Y-113583949D01*
X148271141Y-113542596D01*
X148310110Y-113404951D01*
X148337216Y-113294134D01*
X148347210Y-113231035D01*
X148356063Y-113174183D01*
X148383725Y-113068470D01*
X148423745Y-112942399D01*
X148424528Y-112940117D01*
X148472130Y-112787685D01*
X148522837Y-112604390D01*
X148565801Y-112429404D01*
X148566614Y-112425792D01*
X148606878Y-112250285D01*
X148650108Y-112067081D01*
X148687084Y-111915270D01*
X148747895Y-111669661D01*
X148810394Y-111409222D01*
X148862164Y-111182110D01*
X148907900Y-110968182D01*
X148920299Y-110909499D01*
X148959982Y-110730194D01*
X149006562Y-110528111D01*
X149052366Y-110336790D01*
X149076270Y-110235418D01*
X149109467Y-110079086D01*
X149132216Y-109951290D01*
X149140593Y-109872663D01*
X149144001Y-109829390D01*
X149161627Y-109717053D01*
X149190900Y-109568316D01*
X149228011Y-109403629D01*
X149248088Y-109316547D01*
X149287753Y-109125426D01*
X149320236Y-108944436D01*
X149339972Y-108803409D01*
X149340294Y-108800325D01*
X149361823Y-108642880D01*
X149394419Y-108456280D01*
X149431157Y-108280256D01*
X149442667Y-108227801D01*
X149477788Y-108039207D01*
X149510317Y-107827745D01*
X149534435Y-107630051D01*
X149541779Y-107561647D01*
X149567308Y-107361004D01*
X149597220Y-107163652D01*
X149626472Y-107003913D01*
X149646350Y-106895264D01*
X149673463Y-106711333D01*
X149698772Y-106504121D01*
X149718668Y-106301135D01*
X149733854Y-106138122D01*
X149761263Y-105886071D01*
X149793098Y-105625996D01*
X149825134Y-105393892D01*
X149845294Y-105242239D01*
X149871224Y-105007146D01*
X149896294Y-104740625D01*
X149918417Y-104465167D01*
X149935510Y-104203267D01*
X149956280Y-103867256D01*
X149977446Y-103597772D01*
X149999636Y-103390213D01*
X150023511Y-103239457D01*
X150049728Y-103140384D01*
X150078945Y-103087873D01*
X150081460Y-103117734D01*
G37*
G36*
X74169384Y-49885521D02*
G01*
X75913021Y-49885617D01*
X77584885Y-49885814D01*
X79185244Y-49886114D01*
X80714366Y-49886517D01*
X82172520Y-49887022D01*
X83559973Y-49887632D01*
X84876994Y-49888346D01*
X86123850Y-49889164D01*
X87300810Y-49890087D01*
X88408143Y-49891115D01*
X89446116Y-49892249D01*
X90414997Y-49893490D01*
X91315054Y-49894836D01*
X92146556Y-49896290D01*
X92909771Y-49897852D01*
X93604967Y-49899521D01*
X94232412Y-49901298D01*
X94792374Y-49903184D01*
X95285121Y-49905180D01*
X95710922Y-49907284D01*
X96070045Y-49909499D01*
X96362757Y-49911824D01*
X96589327Y-49914260D01*
X96750023Y-49916807D01*
X96845113Y-49919466D01*
X96874866Y-49922237D01*
X96851063Y-49938201D01*
X96775970Y-49963483D01*
X96652541Y-49987553D01*
X96476015Y-50011004D01*
X96241632Y-50034429D01*
X95944633Y-50058422D01*
X95580256Y-50083576D01*
X95488575Y-50089715D01*
X95230808Y-50108869D01*
X94983965Y-50129760D01*
X94763327Y-50150953D01*
X94584175Y-50171016D01*
X94461790Y-50188514D01*
X94313604Y-50211195D01*
X94116700Y-50236151D01*
X93898929Y-50259986D01*
X93686079Y-50279669D01*
X93674736Y-50280610D01*
X93471111Y-50300171D01*
X93273118Y-50323587D01*
X93102883Y-50347999D01*
X92982528Y-50370551D01*
X92920100Y-50383841D01*
X92761293Y-50411847D01*
X92574152Y-50439665D01*
X92387216Y-50462871D01*
X92302631Y-50472930D01*
X92094978Y-50502617D01*
X91891184Y-50537487D01*
X91725274Y-50571935D01*
X91552462Y-50608163D01*
X91355399Y-50641312D01*
X91184081Y-50662560D01*
X91045472Y-50679637D01*
X90847706Y-50714153D01*
X90670041Y-50754907D01*
X90664073Y-50756511D01*
X90494150Y-50796092D01*
X90295830Y-50833838D01*
X90110808Y-50861780D01*
X90095363Y-50863743D01*
X89916507Y-50891963D01*
X89735664Y-50928564D01*
X89589764Y-50966149D01*
X89496852Y-50991984D01*
X89318761Y-51032322D01*
X89156810Y-51059490D01*
X89149168Y-51060463D01*
X89002005Y-51086001D01*
X88825310Y-51125662D01*
X88655645Y-51171291D01*
X88620261Y-51181657D01*
X88478420Y-51219755D01*
X88360009Y-51246464D01*
X88287692Y-51256534D01*
X88276767Y-51257079D01*
X88192260Y-51271783D01*
X88067137Y-51302478D01*
X87924235Y-51343688D01*
X87907557Y-51348810D01*
X87748306Y-51394254D01*
X87595597Y-51432629D01*
X87480398Y-51456092D01*
X87431488Y-51465077D01*
X87283301Y-51501954D01*
X87141203Y-51547943D01*
X87089452Y-51566109D01*
X86937227Y-51609888D01*
X86798447Y-51638685D01*
X86746492Y-51647732D01*
X86596016Y-51683583D01*
X86452131Y-51728404D01*
X86348370Y-51762752D01*
X86186248Y-51809621D01*
X86026768Y-51849786D01*
X85897535Y-51882735D01*
X85769325Y-51922290D01*
X85682765Y-51956804D01*
X85671932Y-51962143D01*
X85562530Y-52002282D01*
X85440657Y-52031178D01*
X85349337Y-52050972D01*
X85208206Y-52090183D01*
X85063068Y-52137472D01*
X84910558Y-52191409D01*
X84720575Y-52257887D01*
X84569803Y-52309297D01*
X84440880Y-52351400D01*
X84316440Y-52389957D01*
X84179119Y-52430729D01*
X83978583Y-52491455D01*
X83752052Y-52564659D01*
X83548239Y-52635266D01*
X83382783Y-52697830D01*
X83271319Y-52746904D01*
X83163261Y-52791184D01*
X83042613Y-52825735D01*
X83020481Y-52830826D01*
X82895980Y-52868683D01*
X82770765Y-52917642D01*
X82742667Y-52929905D01*
X82621234Y-52976907D01*
X82518208Y-53008917D01*
X82481822Y-53019358D01*
X82368868Y-53061358D01*
X82248863Y-53115347D01*
X82201154Y-53137779D01*
X82072284Y-53189530D01*
X81963314Y-53222594D01*
X81923115Y-53233271D01*
X81801726Y-53277661D01*
X81678324Y-53335278D01*
X81620588Y-53364489D01*
X81526943Y-53405292D01*
X81469689Y-53421307D01*
X81440523Y-53427659D01*
X81357751Y-53460345D01*
X81253211Y-53511506D01*
X81187670Y-53544504D01*
X81092219Y-53585634D01*
X81033626Y-53601705D01*
X81000307Y-53608786D01*
X80913673Y-53641525D01*
X80805682Y-53691904D01*
X80732762Y-53726926D01*
X80636875Y-53766644D01*
X80579448Y-53782102D01*
X80547265Y-53788664D01*
X80461096Y-53819684D01*
X80352751Y-53867585D01*
X80085748Y-53993989D01*
X79868759Y-54093361D01*
X79711095Y-54161315D01*
X79615057Y-54196826D01*
X79605287Y-54199839D01*
X79506929Y-54237723D01*
X79398579Y-54288223D01*
X79337061Y-54318987D01*
X79191335Y-54389195D01*
X78996007Y-54481197D01*
X78761088Y-54590292D01*
X78496591Y-54711778D01*
X78408861Y-54752486D01*
X78290803Y-54809052D01*
X78207954Y-54850878D01*
X78202214Y-54853937D01*
X78102761Y-54903532D01*
X77991477Y-54954958D01*
X77979866Y-54960113D01*
X77875205Y-55009131D01*
X77793040Y-55051430D01*
X77752503Y-55074142D01*
X77637140Y-55135115D01*
X77504403Y-55198286D01*
X77409740Y-55244231D01*
X77324006Y-55289896D01*
X77317004Y-55293883D01*
X77229970Y-55338815D01*
X77125568Y-55387717D01*
X77042881Y-55427607D01*
X76915303Y-55494475D01*
X76782812Y-55568136D01*
X76667801Y-55632397D01*
X76553819Y-55692538D01*
X76476136Y-55729525D01*
X76405700Y-55761354D01*
X76313778Y-55810088D01*
X76286159Y-55826475D01*
X76172868Y-55891191D01*
X76025706Y-55973011D01*
X75866847Y-56059684D01*
X75718466Y-56138962D01*
X75626850Y-56188437D01*
X75461094Y-56280805D01*
X75259599Y-56395209D01*
X75037313Y-56523000D01*
X74809182Y-56655528D01*
X74590156Y-56784142D01*
X74395181Y-56900191D01*
X74239204Y-56995027D01*
X74225512Y-57003283D01*
X74148061Y-57047601D01*
X74049763Y-57101788D01*
X74031933Y-57111665D01*
X73926693Y-57174052D01*
X73792140Y-57258059D01*
X73652888Y-57348391D01*
X73607476Y-57378427D01*
X73440041Y-57488582D01*
X73254964Y-57609682D01*
X73084659Y-57720500D01*
X73034370Y-57753119D01*
X72853605Y-57870616D01*
X72666845Y-57992308D01*
X72507386Y-58096506D01*
X72459602Y-58127598D01*
X72328615Y-58210890D01*
X72217602Y-58278859D01*
X72146591Y-58319145D01*
X72114832Y-58336666D01*
X72017231Y-58398865D01*
X71912074Y-58473860D01*
X71874739Y-58501939D01*
X71751607Y-58592746D01*
X71641477Y-58671803D01*
X71572321Y-58720559D01*
X71449902Y-58807334D01*
X71325298Y-58896065D01*
X71312114Y-58905474D01*
X71182192Y-58997876D01*
X71027747Y-59107311D01*
X70879407Y-59212074D01*
X70846606Y-59235200D01*
X70713086Y-59329539D01*
X70593373Y-59414406D01*
X70510075Y-59473781D01*
X70482685Y-59493244D01*
X70368986Y-59572004D01*
X70252415Y-59650523D01*
X70251866Y-59650886D01*
X70149500Y-59723307D01*
X70020129Y-59821141D01*
X69891619Y-59923318D01*
X69858792Y-59950211D01*
X69743101Y-60044696D01*
X69655930Y-60114751D01*
X69575686Y-60177265D01*
X69480773Y-60249125D01*
X69349598Y-60347220D01*
X69300670Y-60384182D01*
X69157924Y-60494790D01*
X68997360Y-60622036D01*
X68845312Y-60745138D01*
X68795084Y-60786093D01*
X68621638Y-60924696D01*
X68439288Y-61067113D01*
X68280096Y-61188211D01*
X68222950Y-61231298D01*
X68090289Y-61334798D01*
X67976455Y-61428086D01*
X67901261Y-61495111D01*
X67885640Y-61509956D01*
X67810031Y-61578050D01*
X67692557Y-61681100D01*
X67542888Y-61810714D01*
X67370697Y-61958500D01*
X67185653Y-62116066D01*
X67033558Y-62245174D01*
X66840234Y-62409967D01*
X66680778Y-62547298D01*
X66542316Y-62668612D01*
X66411972Y-62785354D01*
X66276873Y-62908969D01*
X66124143Y-63050901D01*
X65940909Y-63222596D01*
X65859638Y-63298975D01*
X65435234Y-63700688D01*
X65049064Y-64071925D01*
X64687117Y-64426690D01*
X64335384Y-64778989D01*
X63979854Y-65142827D01*
X63606517Y-65532209D01*
X63201363Y-65961140D01*
X63079184Y-66091469D01*
X62942764Y-66238013D01*
X62822493Y-66369060D01*
X62707913Y-66496376D01*
X62588572Y-66631729D01*
X62454013Y-66786888D01*
X62293781Y-66973620D01*
X62097422Y-67203693D01*
X62022855Y-67291029D01*
X61865780Y-67474016D01*
X61722232Y-67639969D01*
X61600492Y-67779383D01*
X61508838Y-67882752D01*
X61455551Y-67940571D01*
X61400765Y-67999906D01*
X61305874Y-68111321D01*
X61212105Y-68229207D01*
X61123995Y-68343859D01*
X61009063Y-68492025D01*
X60899900Y-68631562D01*
X60849886Y-68695139D01*
X60721674Y-68858194D01*
X60559595Y-69064394D01*
X60370733Y-69304723D01*
X60162175Y-69570166D01*
X59941007Y-69851706D01*
X59841642Y-69981181D01*
X59728221Y-70134307D01*
X59634331Y-70266313D01*
X59569305Y-70360300D01*
X59484639Y-70481287D01*
X59419401Y-70572989D01*
X59409577Y-70586589D01*
X59329410Y-70698533D01*
X59249258Y-70811648D01*
X59226296Y-70844098D01*
X59140047Y-70964142D01*
X59053737Y-71082244D01*
X59023869Y-71123079D01*
X58940859Y-71238536D01*
X58839990Y-71380558D01*
X58736805Y-71527316D01*
X58681410Y-71606457D01*
X58586295Y-71741895D01*
X58506261Y-71855319D01*
X58454403Y-71928140D01*
X58452225Y-71931162D01*
X58396668Y-72009354D01*
X58341704Y-72089693D01*
X58279652Y-72184038D01*
X58202829Y-72304254D01*
X58103555Y-72462202D01*
X57974146Y-72669744D01*
X57927478Y-72743817D01*
X57849113Y-72865003D01*
X57786384Y-72958381D01*
X57742619Y-73023311D01*
X57666869Y-73140251D01*
X57588494Y-73265057D01*
X57529300Y-73359746D01*
X57451292Y-73481316D01*
X57391008Y-73571733D01*
X57284535Y-73730567D01*
X57161903Y-73925890D01*
X57017873Y-74167046D01*
X57010137Y-74180222D01*
X56939240Y-74300599D01*
X56880810Y-74399163D01*
X56846836Y-74455682D01*
X56830317Y-74483187D01*
X56781077Y-74567597D01*
X56721153Y-74672159D01*
X56675107Y-74751864D01*
X56590427Y-74894939D01*
X56506832Y-75032955D01*
X56450638Y-75126406D01*
X56371633Y-75263544D01*
X56310724Y-75375710D01*
X56264078Y-75463718D01*
X56189326Y-75599611D01*
X56111740Y-75736506D01*
X56047685Y-75849160D01*
X55971022Y-75987604D01*
X55912442Y-76097301D01*
X55869478Y-76179434D01*
X55799672Y-76311216D01*
X55714772Y-76470438D01*
X55624672Y-76638494D01*
X55550161Y-76778545D01*
X55443580Y-76982781D01*
X55342695Y-77179989D01*
X55262003Y-77342046D01*
X55228325Y-77410954D01*
X55160705Y-77547652D01*
X55105417Y-77657281D01*
X55071972Y-77720881D01*
X55062166Y-77738805D01*
X55016067Y-77829532D01*
X54964603Y-77937358D01*
X54948698Y-77971230D01*
X54899458Y-78069958D01*
X54862475Y-78135796D01*
X54858082Y-78142764D01*
X54817797Y-78218034D01*
X54772012Y-78316193D01*
X54743802Y-78379907D01*
X54685800Y-78507931D01*
X54624393Y-78640909D01*
X54582885Y-78729818D01*
X54463619Y-78985712D01*
X54370480Y-79186355D01*
X54299899Y-79339450D01*
X54248308Y-79452699D01*
X54202947Y-79552794D01*
X54138812Y-79693734D01*
X54072832Y-79838281D01*
X54066173Y-79852891D01*
X54013512Y-79972209D01*
X53975995Y-80063806D01*
X53961368Y-80108877D01*
X53946807Y-80151514D01*
X53907817Y-80239911D01*
X53853129Y-80353769D01*
X53800931Y-80464450D01*
X53761216Y-80560284D01*
X53746023Y-80613437D01*
X53739614Y-80641778D01*
X53706922Y-80723271D01*
X53655824Y-80827186D01*
X53623238Y-80892373D01*
X53581765Y-80991199D01*
X53565490Y-81054593D01*
X53565037Y-81061777D01*
X53542209Y-81135509D01*
X53495556Y-81226829D01*
X53473335Y-81267151D01*
X53418585Y-81389869D01*
X53372280Y-81521379D01*
X53352792Y-81582150D01*
X53307279Y-81701053D01*
X53265358Y-81785743D01*
X53264720Y-81786754D01*
X53219685Y-81883191D01*
X53185986Y-81996307D01*
X53152057Y-82114963D01*
X53104139Y-82230824D01*
X53099660Y-82239639D01*
X53043926Y-82364611D01*
X52971341Y-82549012D01*
X52885270Y-82783981D01*
X52789078Y-83060654D01*
X52781357Y-83083270D01*
X52723164Y-83250110D01*
X52654923Y-83441330D01*
X52589833Y-83619887D01*
X52578598Y-83650557D01*
X52515619Y-83830958D01*
X52455532Y-84015073D01*
X52409987Y-84167428D01*
X52372302Y-84293629D01*
X52328192Y-84422165D01*
X52291497Y-84510184D01*
X52272101Y-84554430D01*
X52232462Y-84672382D01*
X52198984Y-84803295D01*
X52182826Y-84871209D01*
X52143232Y-85002520D01*
X52103006Y-85101849D01*
X52079753Y-85156253D01*
X52040814Y-85279491D01*
X52009452Y-85415014D01*
X51991373Y-85499729D01*
X51955821Y-85627828D01*
X51920456Y-85719364D01*
X51889247Y-85796520D01*
X51849877Y-85922151D01*
X51813706Y-86062848D01*
X51782644Y-86188308D01*
X51736194Y-86353204D01*
X51692324Y-86488210D01*
X51673573Y-86543556D01*
X51630834Y-86696439D01*
X51602605Y-86834527D01*
X51594022Y-86883815D01*
X51557708Y-87034120D01*
X51511863Y-87177283D01*
X51493468Y-87229487D01*
X51449408Y-87380189D01*
X51420012Y-87516477D01*
X51418393Y-87526415D01*
X51392895Y-87647286D01*
X51353353Y-87802241D01*
X51307609Y-87960314D01*
X51297866Y-87992294D01*
X51258510Y-88133230D01*
X51230881Y-88251335D01*
X51220454Y-88323772D01*
X51219823Y-88335859D01*
X51205235Y-88421439D01*
X51175280Y-88547616D01*
X51135211Y-88691724D01*
X51132236Y-88701781D01*
X51086747Y-88873009D01*
X51047753Y-89048898D01*
X51023410Y-89192889D01*
X51009390Y-89284935D01*
X50973118Y-89462827D01*
X50930431Y-89625844D01*
X50928214Y-89633203D01*
X50889890Y-89783362D01*
X50852570Y-89965277D01*
X50824039Y-90141230D01*
X50821298Y-90161173D01*
X50794244Y-90328835D01*
X50762391Y-90489286D01*
X50732066Y-90610264D01*
X50711310Y-90692782D01*
X50681723Y-90840857D01*
X50651329Y-91019701D01*
X50624196Y-91206804D01*
X50601586Y-91366784D01*
X50575494Y-91527569D01*
X50551429Y-91653367D01*
X50532625Y-91725841D01*
X50530794Y-91731060D01*
X50512603Y-91809434D01*
X50490150Y-91940515D01*
X50466113Y-92107329D01*
X50443170Y-92292901D01*
X50418667Y-92491233D01*
X50389904Y-92695260D01*
X50361114Y-92875414D01*
X50335893Y-93007731D01*
X50313824Y-93127508D01*
X50288161Y-93305497D01*
X50264074Y-93508315D01*
X50244758Y-93711282D01*
X50228813Y-93886434D01*
X50204383Y-94112968D01*
X50177687Y-94326636D01*
X50152204Y-94497869D01*
X50149794Y-94512554D01*
X50130059Y-94658475D01*
X50108277Y-94857082D01*
X50086080Y-95091302D01*
X50065101Y-95344063D01*
X50046973Y-95598296D01*
X50041014Y-95689655D01*
X50019826Y-96002569D01*
X50001234Y-96253304D01*
X49984433Y-96449729D01*
X49968619Y-96599714D01*
X49952987Y-96711126D01*
X49936734Y-96791836D01*
X49919054Y-96849712D01*
X49893914Y-96903872D01*
X49868364Y-96933239D01*
X49867664Y-96917225D01*
X49866627Y-96834301D01*
X49865606Y-96682374D01*
X49864601Y-96463334D01*
X49863616Y-96179075D01*
X49862650Y-95831488D01*
X49861705Y-95422464D01*
X49860784Y-94953895D01*
X49859887Y-94427673D01*
X49859017Y-93845690D01*
X49858174Y-93209837D01*
X49857360Y-92522006D01*
X49856577Y-91784089D01*
X49855826Y-90997977D01*
X49855109Y-90165562D01*
X49854427Y-89288737D01*
X49853782Y-88369392D01*
X49853175Y-87409419D01*
X49852608Y-86410711D01*
X49852082Y-85375158D01*
X49851599Y-84304653D01*
X49851160Y-83201087D01*
X49850768Y-82066351D01*
X49850422Y-80902339D01*
X49850126Y-79710941D01*
X49849880Y-78494049D01*
X49849686Y-77253554D01*
X49849546Y-75991349D01*
X49849460Y-74709326D01*
X49849432Y-73409375D01*
X49849432Y-49885512D01*
X73380511Y-49885512D01*
X74169384Y-49885521D01*
G37*
G36*
X150114488Y-73452671D02*
G01*
X150114488Y-73500081D01*
X150114447Y-75203104D01*
X150114324Y-76834823D01*
X150114120Y-78396071D01*
X150113833Y-79887681D01*
X150113461Y-81310485D01*
X150113004Y-82665316D01*
X150112459Y-83953006D01*
X150111825Y-85174389D01*
X150111102Y-86330296D01*
X150110287Y-87421561D01*
X150109379Y-88449016D01*
X150108377Y-89413494D01*
X150107279Y-90315827D01*
X150106085Y-91156849D01*
X150104792Y-91937391D01*
X150103400Y-92658287D01*
X150101907Y-93320368D01*
X150100311Y-93924469D01*
X150098611Y-94471420D01*
X150096806Y-94962056D01*
X150094895Y-95397208D01*
X150092876Y-95777710D01*
X150090748Y-96104394D01*
X150088508Y-96378092D01*
X150086157Y-96599638D01*
X150083692Y-96769863D01*
X150081113Y-96889601D01*
X150078417Y-96959684D01*
X150075604Y-96980945D01*
X150065417Y-96969188D01*
X150036537Y-96912908D01*
X150011805Y-96821737D01*
X149990185Y-96688221D01*
X149970642Y-96504910D01*
X149952141Y-96264350D01*
X149933647Y-95959091D01*
X149922043Y-95772763D01*
X149901141Y-95496678D01*
X149876603Y-95221430D01*
X149850592Y-94970774D01*
X149825269Y-94768466D01*
X149799386Y-94576342D01*
X149767406Y-94314947D01*
X149738481Y-94054591D01*
X149716676Y-93830398D01*
X149699421Y-93655227D01*
X149675813Y-93458681D01*
X149650874Y-93286292D01*
X149627785Y-93161974D01*
X149612845Y-93088618D01*
X149585867Y-92927356D01*
X149559174Y-92738256D01*
X149536815Y-92548621D01*
X149523515Y-92432256D01*
X149497585Y-92242545D01*
X149469523Y-92071617D01*
X149443443Y-91946033D01*
X149426433Y-91870651D01*
X149396478Y-91713051D01*
X149365655Y-91527002D01*
X149338475Y-91338607D01*
X149320519Y-91212454D01*
X149290435Y-91030106D01*
X149259632Y-90870911D01*
X149232547Y-90759140D01*
X149229496Y-90748605D01*
X149198185Y-90617659D01*
X149166447Y-90451763D01*
X149140714Y-90284179D01*
X149140084Y-90279401D01*
X149111184Y-90099062D01*
X149073110Y-89910368D01*
X149033927Y-89753409D01*
X149001251Y-89628976D01*
X148959164Y-89439288D01*
X148927515Y-89263757D01*
X148903187Y-89126441D01*
X148868563Y-88971963D01*
X148834278Y-88853159D01*
X148807191Y-88763852D01*
X148770745Y-88613333D01*
X148741465Y-88460060D01*
X148721150Y-88350096D01*
X148679315Y-88166698D01*
X148634193Y-88004749D01*
X148606206Y-87912959D01*
X148555999Y-87733890D01*
X148514774Y-87570597D01*
X148455878Y-87322882D01*
X148391895Y-87068295D01*
X148333414Y-86850573D01*
X148284839Y-86686648D01*
X148274256Y-86653159D01*
X148231338Y-86509975D01*
X148195267Y-86379972D01*
X148189842Y-86359264D01*
X148147913Y-86206021D01*
X148094710Y-86019472D01*
X148036320Y-85820192D01*
X147978833Y-85628754D01*
X147928339Y-85465734D01*
X147890928Y-85351705D01*
X147860015Y-85259006D01*
X147812315Y-85107091D01*
X147767062Y-84954830D01*
X147711524Y-84766441D01*
X147585857Y-84374393D01*
X147459847Y-84025067D01*
X147417709Y-83908051D01*
X147384976Y-83800303D01*
X147372443Y-83735039D01*
X147370279Y-83715467D01*
X147344520Y-83630700D01*
X147299009Y-83528296D01*
X147286198Y-83502207D01*
X147228751Y-83362508D01*
X147184550Y-83223012D01*
X147168488Y-83166327D01*
X147117944Y-83020153D01*
X147059899Y-82880256D01*
X147027787Y-82807060D01*
X146990567Y-82708265D01*
X146975921Y-82648110D01*
X146973471Y-82629832D01*
X146948645Y-82550556D01*
X146905782Y-82449673D01*
X146877610Y-82387474D01*
X146818992Y-82246494D01*
X146764997Y-82104546D01*
X146762264Y-82096910D01*
X146658774Y-81812177D01*
X146574933Y-81591300D01*
X146508831Y-81429403D01*
X146458561Y-81321607D01*
X146452660Y-81310088D01*
X146413707Y-81221041D01*
X146397163Y-81159249D01*
X146383022Y-81109106D01*
X146343973Y-81013934D01*
X146288924Y-80896799D01*
X146237227Y-80785751D01*
X146197159Y-80684891D01*
X146181818Y-80625211D01*
X146168806Y-80570620D01*
X146126550Y-80490275D01*
X146113558Y-80469983D01*
X146063759Y-80372525D01*
X146017189Y-80258051D01*
X145990584Y-80186983D01*
X145932788Y-80045154D01*
X145871225Y-79904994D01*
X145865474Y-79892489D01*
X145793729Y-79736289D01*
X145722394Y-79580521D01*
X145641390Y-79403140D01*
X145540633Y-79182102D01*
X145523659Y-79145098D01*
X145464319Y-79017627D01*
X145387845Y-78855087D01*
X145301069Y-78671816D01*
X145210825Y-78482154D01*
X145123945Y-78300439D01*
X145047262Y-78141013D01*
X144987608Y-78018212D01*
X144951816Y-77946378D01*
X144932402Y-77909246D01*
X144885113Y-77820100D01*
X144873662Y-77798075D01*
X144831229Y-77713722D01*
X144770769Y-77591698D01*
X144701367Y-77450284D01*
X144643976Y-77334623D01*
X144546981Y-77143549D01*
X144440829Y-76938176D01*
X144340018Y-76746733D01*
X144256429Y-76589459D01*
X144171585Y-76428958D01*
X144101114Y-76294765D01*
X144054849Y-76205540D01*
X144007760Y-76116827D01*
X143932498Y-75981237D01*
X143853988Y-75844744D01*
X143788519Y-75731256D01*
X143711509Y-75593265D01*
X143653225Y-75483949D01*
X143622548Y-75425206D01*
X143549652Y-75291203D01*
X143474973Y-75159233D01*
X143437223Y-75094026D01*
X143352628Y-74947111D01*
X143277915Y-74816477D01*
X143241180Y-74753449D01*
X143163638Y-74624267D01*
X143069197Y-74469843D01*
X142970738Y-74311364D01*
X142903403Y-74203249D01*
X142806346Y-74045272D01*
X142722161Y-73905878D01*
X142663724Y-73806250D01*
X142636253Y-73758692D01*
X142549980Y-73615255D01*
X142465681Y-73481534D01*
X142431819Y-73428686D01*
X142351986Y-73298709D01*
X142286964Y-73186326D01*
X142270203Y-73156841D01*
X142216625Y-73074688D01*
X142176988Y-73030540D01*
X142167154Y-73022350D01*
X142121125Y-72963405D01*
X142067013Y-72874754D01*
X142048463Y-72841356D01*
X142003918Y-72764730D01*
X141949631Y-72676879D01*
X141879324Y-72568187D01*
X141786720Y-72429043D01*
X141665544Y-72249833D01*
X141509517Y-72020945D01*
X141484880Y-71984871D01*
X141372292Y-71819679D01*
X141268659Y-71667122D01*
X141184588Y-71542834D01*
X141130682Y-71462449D01*
X141126110Y-71455563D01*
X140941012Y-71187579D01*
X140731248Y-70901847D01*
X140698843Y-70858573D01*
X140620442Y-70751296D01*
X140560751Y-70666310D01*
X140544170Y-70642096D01*
X140464643Y-70530428D01*
X140352676Y-70377451D01*
X140217215Y-70195222D01*
X140067205Y-69995799D01*
X139911591Y-69791240D01*
X139854888Y-69717066D01*
X139716958Y-69536227D01*
X139570365Y-69343602D01*
X139438592Y-69170029D01*
X139340710Y-69042733D01*
X139192031Y-68853489D01*
X139034688Y-68656750D01*
X138889785Y-68479085D01*
X138764956Y-68327530D01*
X138630367Y-68163122D01*
X138509577Y-68014616D01*
X138418744Y-67901813D01*
X138321222Y-67782710D01*
X138221947Y-67666831D01*
X138145049Y-67582529D01*
X138132325Y-67569189D01*
X138059792Y-67489432D01*
X137955930Y-67371811D01*
X137832676Y-67229935D01*
X137701971Y-67077415D01*
X137637204Y-67001652D01*
X137226679Y-66535287D01*
X136762078Y-66029418D01*
X136242672Y-65483287D01*
X135667729Y-64896136D01*
X135036519Y-64267206D01*
X134348313Y-63595739D01*
X134283697Y-63533450D01*
X134216489Y-63469335D01*
X134146890Y-63404018D01*
X134066349Y-63329664D01*
X133966318Y-63238438D01*
X133838246Y-63122506D01*
X133673582Y-62974033D01*
X133463778Y-62785185D01*
X133456627Y-62778753D01*
X133323105Y-62659463D01*
X133160545Y-62515361D01*
X132980802Y-62356839D01*
X132795730Y-62194289D01*
X132617182Y-62038103D01*
X132457012Y-61898673D01*
X132327074Y-61786391D01*
X132239222Y-61711649D01*
X132215114Y-61691672D01*
X132133237Y-61624460D01*
X132020669Y-61532507D01*
X131894318Y-61429640D01*
X131833552Y-61380199D01*
X131706764Y-61276727D01*
X131599284Y-61188619D01*
X131529483Y-61130917D01*
X131489755Y-61098037D01*
X131360678Y-60993407D01*
X131198768Y-60864167D01*
X131021319Y-60723945D01*
X130845627Y-60586373D01*
X130688987Y-60465081D01*
X130568694Y-60373700D01*
X130560970Y-60367925D01*
X130460484Y-60291627D01*
X130331859Y-60192574D01*
X130200944Y-60090660D01*
X130174974Y-60070511D01*
X130056278Y-59983019D01*
X129953928Y-59914356D01*
X129887685Y-59877942D01*
X129791544Y-59864730D01*
X129644856Y-59896425D01*
X129454920Y-59979858D01*
X129447049Y-59983886D01*
X129336362Y-60038779D01*
X129161742Y-60123244D01*
X128924594Y-60236611D01*
X128626320Y-60378209D01*
X128268324Y-60547365D01*
X128199035Y-60580229D01*
X128065491Y-60643910D01*
X127893427Y-60726182D01*
X127697562Y-60820009D01*
X127492613Y-60918350D01*
X127343150Y-60989996D01*
X127124718Y-61094284D01*
X126917553Y-61192748D01*
X126739565Y-61276882D01*
X126608665Y-61338180D01*
X126556310Y-61362619D01*
X126425128Y-61425175D01*
X126322076Y-61476163D01*
X126265909Y-61506382D01*
X126258857Y-61510684D01*
X126183595Y-61550257D01*
X126085511Y-61595853D01*
X126030045Y-61620396D01*
X125891479Y-61683440D01*
X125744170Y-61752224D01*
X125606747Y-61817896D01*
X125497841Y-61871601D01*
X125436079Y-61904487D01*
X125428984Y-61908673D01*
X125353726Y-61947467D01*
X125255682Y-61992728D01*
X125178413Y-62027351D01*
X125048625Y-62087115D01*
X124912926Y-62150905D01*
X124819067Y-62195465D01*
X124661073Y-62270291D01*
X124480072Y-62355874D01*
X124299574Y-62441090D01*
X124178302Y-62498423D01*
X123956839Y-62603578D01*
X123733507Y-62710077D01*
X123541903Y-62801921D01*
X123539891Y-62802889D01*
X123362771Y-62887933D01*
X123147792Y-62990872D01*
X122921908Y-63098813D01*
X122712074Y-63198864D01*
X122686110Y-63211227D01*
X122339680Y-63376425D01*
X122011147Y-63533610D01*
X121679832Y-63692713D01*
X121325055Y-63863662D01*
X120926136Y-64056386D01*
X120773414Y-64130118D01*
X120558346Y-64233581D01*
X120356248Y-64330413D01*
X120184437Y-64412324D01*
X120060227Y-64471022D01*
X119942576Y-64526359D01*
X119763052Y-64611245D01*
X119565268Y-64705120D01*
X119374716Y-64795903D01*
X119359866Y-64802992D01*
X119199152Y-64879417D01*
X119060278Y-64944947D01*
X118957652Y-64992815D01*
X118905682Y-65016250D01*
X118878021Y-65028558D01*
X118797443Y-65071009D01*
X118796732Y-65071434D01*
X118736716Y-65102889D01*
X118633431Y-65153209D01*
X118508807Y-65211706D01*
X118398374Y-65263101D01*
X118232079Y-65341306D01*
X118044636Y-65430061D01*
X117859375Y-65518354D01*
X117669112Y-65609353D01*
X117434288Y-65721627D01*
X117193042Y-65836940D01*
X116975426Y-65940925D01*
X116696041Y-66074416D01*
X116398585Y-66216608D01*
X116157174Y-66332103D01*
X115966739Y-66423332D01*
X115822214Y-66492726D01*
X115718531Y-66542715D01*
X115650623Y-66575730D01*
X115613423Y-66594202D01*
X115576899Y-66612839D01*
X115487145Y-66658639D01*
X115435436Y-66684248D01*
X115324030Y-66738283D01*
X115172722Y-66811057D01*
X114995452Y-66895913D01*
X114806160Y-66986192D01*
X114618784Y-67075237D01*
X114447264Y-67156390D01*
X114305540Y-67222994D01*
X114300330Y-67225429D01*
X114178041Y-67282754D01*
X114042416Y-67346658D01*
X113884829Y-67421236D01*
X113696655Y-67510583D01*
X113469269Y-67618796D01*
X113194045Y-67749968D01*
X112862358Y-67908196D01*
X112754198Y-67959936D01*
X112553084Y-68056519D01*
X112321853Y-68167893D01*
X112081278Y-68284051D01*
X111852131Y-68394981D01*
X111672971Y-68481644D01*
X111466446Y-68581058D01*
X111278977Y-68670808D01*
X111125838Y-68743582D01*
X111022301Y-68792074D01*
X110955230Y-68823298D01*
X110813891Y-68889960D01*
X110634889Y-68975030D01*
X110434388Y-69070818D01*
X110228551Y-69169637D01*
X109929591Y-69313522D01*
X109633903Y-69455765D01*
X109389206Y-69573378D01*
X109187946Y-69669976D01*
X109022571Y-69749176D01*
X108885531Y-69814594D01*
X108769272Y-69869845D01*
X108666243Y-69918546D01*
X108568892Y-69964312D01*
X108447911Y-70021265D01*
X108261625Y-70109403D01*
X108058567Y-70205839D01*
X107865341Y-70297956D01*
X107720180Y-70367301D01*
X107497382Y-70473671D01*
X107276702Y-70578967D01*
X107089631Y-70668161D01*
X106817874Y-70797660D01*
X106438938Y-70978247D01*
X106116732Y-71131834D01*
X105846105Y-71260894D01*
X105621908Y-71367901D01*
X105438989Y-71455326D01*
X105292200Y-71525642D01*
X105176390Y-71581323D01*
X105086408Y-71624841D01*
X105017105Y-71658669D01*
X104963331Y-71685279D01*
X104919935Y-71707145D01*
X104881768Y-71726739D01*
X104843679Y-71746534D01*
X104828445Y-71754196D01*
X104748982Y-71792241D01*
X104630306Y-71847706D01*
X104491903Y-71911456D01*
X104442689Y-71934053D01*
X104306796Y-71997327D01*
X104196193Y-72050050D01*
X104131108Y-72082628D01*
X104074594Y-72112921D01*
X104010906Y-72145591D01*
X103932131Y-72183977D01*
X103821458Y-72236249D01*
X103662074Y-72310577D01*
X103554078Y-72361259D01*
X103368982Y-72449246D01*
X103167196Y-72546134D01*
X102976562Y-72638599D01*
X102972063Y-72640795D01*
X102816195Y-72715250D01*
X102682687Y-72776122D01*
X102585603Y-72817189D01*
X102539006Y-72832227D01*
X102511505Y-72839814D01*
X102455050Y-72884244D01*
X102429595Y-72905579D01*
X102344983Y-72951557D01*
X102234155Y-72995383D01*
X102166012Y-73020453D01*
X102082351Y-73068407D01*
X102056534Y-73120431D01*
X102059653Y-73137401D01*
X102101247Y-73206578D01*
X102173158Y-73284076D01*
X102252186Y-73347210D01*
X102315134Y-73373296D01*
X102322999Y-73374937D01*
X102385469Y-73398978D01*
X102495743Y-73447251D01*
X102641010Y-73514034D01*
X102808459Y-73593607D01*
X102815116Y-73596818D01*
X103160013Y-73762728D01*
X103525267Y-73937670D01*
X103882484Y-74108070D01*
X104203267Y-74260356D01*
X104268186Y-74290782D01*
X104401336Y-74351811D01*
X104509943Y-74399978D01*
X104524563Y-74406326D01*
X104621763Y-74451478D01*
X104690341Y-74487885D01*
X104704444Y-74495908D01*
X104780239Y-74534316D01*
X104896064Y-74589889D01*
X105033096Y-74653532D01*
X105083822Y-74676798D01*
X105217399Y-74738731D01*
X105324247Y-74789203D01*
X105384872Y-74819041D01*
X105421783Y-74838634D01*
X105511150Y-74886073D01*
X105528265Y-74894795D01*
X105614415Y-74936250D01*
X105749863Y-74999702D01*
X105922606Y-75079587D01*
X106120639Y-75170345D01*
X106331960Y-75266413D01*
X106435038Y-75313936D01*
X106579049Y-75381462D01*
X106748660Y-75461682D01*
X106928721Y-75547364D01*
X107104080Y-75631279D01*
X107259584Y-75706196D01*
X107380084Y-75764886D01*
X107450426Y-75800119D01*
X107513568Y-75833074D01*
X107588414Y-75871115D01*
X107667310Y-75909317D01*
X107770808Y-75957570D01*
X107919460Y-76025761D01*
X107970234Y-76049045D01*
X108103791Y-76110869D01*
X108210621Y-76161127D01*
X108271236Y-76190682D01*
X108328216Y-76220310D01*
X108381623Y-76247620D01*
X108437904Y-76275463D01*
X108507509Y-76308772D01*
X108600886Y-76352483D01*
X108728482Y-76411528D01*
X108900745Y-76490844D01*
X109128125Y-76595363D01*
X109176355Y-76617609D01*
X109316544Y-76682791D01*
X109483924Y-76761130D01*
X109665273Y-76846379D01*
X109847368Y-76932294D01*
X110016986Y-77012630D01*
X110160904Y-77081140D01*
X110265899Y-77131581D01*
X110318750Y-77157706D01*
X110361180Y-77180283D01*
X110445028Y-77224992D01*
X110461135Y-77233281D01*
X110544255Y-77273631D01*
X110665893Y-77330868D01*
X110805824Y-77395437D01*
X110835578Y-77409052D01*
X110997417Y-77483547D01*
X111153901Y-77556193D01*
X111274858Y-77612996D01*
X111277163Y-77614090D01*
X111382073Y-77663767D01*
X111531996Y-77734604D01*
X111707264Y-77817316D01*
X111888210Y-77902615D01*
X111915840Y-77915637D01*
X112080332Y-77993410D01*
X112222878Y-78061197D01*
X112329020Y-78112103D01*
X112384304Y-78139232D01*
X112485391Y-78191083D01*
X112572198Y-78234153D01*
X112670848Y-78281094D01*
X112808238Y-78344959D01*
X112823602Y-78352078D01*
X112954183Y-78413025D01*
X113126124Y-78493788D01*
X113318851Y-78584687D01*
X113511790Y-78676040D01*
X113551553Y-78694906D01*
X113738010Y-78783296D01*
X113913913Y-78866571D01*
X114061053Y-78936116D01*
X114161221Y-78983316D01*
X114237122Y-79019056D01*
X114379516Y-79086335D01*
X114548072Y-79166145D01*
X114720454Y-79247920D01*
X114903366Y-79334769D01*
X115124901Y-79439939D01*
X115355881Y-79549578D01*
X115568324Y-79650404D01*
X115626892Y-79678235D01*
X115796409Y-79759204D01*
X115942688Y-79829670D01*
X116051726Y-79882863D01*
X116109517Y-79912013D01*
X116139558Y-79928155D01*
X116201489Y-79960319D01*
X116274054Y-79995862D01*
X116375589Y-80043645D01*
X116524432Y-80112529D01*
X116596242Y-80145822D01*
X116775803Y-80229851D01*
X116991764Y-80331623D01*
X117225212Y-80442173D01*
X117457232Y-80552534D01*
X117668911Y-80653738D01*
X117841335Y-80736821D01*
X117952256Y-80788101D01*
X118046847Y-80826930D01*
X118098046Y-80841775D01*
X118150143Y-80860581D01*
X118224325Y-80908674D01*
X118238411Y-80918924D01*
X118338849Y-80975044D01*
X118454687Y-81021920D01*
X118474863Y-81028725D01*
X118595436Y-81079485D01*
X118694774Y-81135406D01*
X118698333Y-81137888D01*
X118772226Y-81183646D01*
X118818817Y-81202557D01*
X118825388Y-81204108D01*
X118884335Y-81227866D01*
X118991527Y-81275850D01*
X119134382Y-81342339D01*
X119300321Y-81421608D01*
X119549187Y-81541616D01*
X119785142Y-81654612D01*
X119968633Y-81741400D01*
X120106240Y-81805088D01*
X120204545Y-81848787D01*
X120274137Y-81880821D01*
X120348863Y-81920124D01*
X120349609Y-81920570D01*
X120409654Y-81952115D01*
X120512919Y-82002597D01*
X120637500Y-82061300D01*
X120749679Y-82113297D01*
X121059563Y-82257619D01*
X121355080Y-82396464D01*
X121662607Y-82542264D01*
X122008523Y-82707451D01*
X122153057Y-82776640D01*
X122388833Y-82889390D01*
X122577259Y-82979252D01*
X122729992Y-83051730D01*
X122858692Y-83112324D01*
X122975019Y-83166537D01*
X123090631Y-83219871D01*
X123217187Y-83277828D01*
X123269001Y-83301643D01*
X123400413Y-83363327D01*
X123503669Y-83413599D01*
X123559943Y-83443365D01*
X123567001Y-83447599D01*
X123642262Y-83486749D01*
X123740341Y-83532117D01*
X123796502Y-83557476D01*
X123916086Y-83613297D01*
X124066330Y-83684699D01*
X124227415Y-83762316D01*
X124422844Y-83856565D01*
X124647627Y-83963609D01*
X124855013Y-84061000D01*
X125029222Y-84141334D01*
X125154470Y-84197208D01*
X125215467Y-84225343D01*
X125291761Y-84265470D01*
X125292510Y-84265916D01*
X125352557Y-84297375D01*
X125455821Y-84347793D01*
X125580398Y-84406470D01*
X125600927Y-84415980D01*
X125808066Y-84512268D01*
X126035075Y-84618296D01*
X126271295Y-84729037D01*
X126506067Y-84839461D01*
X126728733Y-84944539D01*
X126928634Y-85039241D01*
X127095110Y-85118540D01*
X127217504Y-85177406D01*
X127285156Y-85210810D01*
X127322141Y-85230039D01*
X127411435Y-85276982D01*
X127518191Y-85331372D01*
X127652288Y-85395947D01*
X127790378Y-85459669D01*
X127915277Y-85514785D01*
X128009801Y-85553540D01*
X128056768Y-85568182D01*
X128081272Y-85574223D01*
X128137199Y-85616462D01*
X128151677Y-85629668D01*
X128227337Y-85671899D01*
X128331034Y-85710734D01*
X128360778Y-85720296D01*
X128482996Y-85770309D01*
X128580569Y-85824812D01*
X128584372Y-85827499D01*
X128658492Y-85873779D01*
X128705811Y-85892898D01*
X128706390Y-85892928D01*
X128750959Y-85909180D01*
X128846003Y-85951069D01*
X128977941Y-86012424D01*
X129133196Y-86087076D01*
X129270496Y-86153695D01*
X129472052Y-86250453D01*
X129664384Y-86341748D01*
X129819744Y-86414355D01*
X129870790Y-86437961D01*
X130004235Y-86500303D01*
X130110961Y-86551044D01*
X130171520Y-86580973D01*
X130215905Y-86604438D01*
X130276048Y-86635602D01*
X130340329Y-86667691D01*
X130418998Y-86705547D01*
X130522303Y-86754016D01*
X130660494Y-86817940D01*
X130843819Y-86902165D01*
X131082528Y-87011533D01*
X131103498Y-87021139D01*
X131242333Y-87085136D01*
X131342618Y-87132596D01*
X131428595Y-87175207D01*
X131524503Y-87224659D01*
X131539736Y-87232321D01*
X131619200Y-87270366D01*
X131737876Y-87325831D01*
X131876278Y-87389581D01*
X131992048Y-87442645D01*
X132110956Y-87497804D01*
X132196774Y-87538989D01*
X132268545Y-87575405D01*
X132345312Y-87616254D01*
X132392874Y-87640709D01*
X132496250Y-87690846D01*
X132621911Y-87749719D01*
X132752375Y-87809367D01*
X132870159Y-87861829D01*
X132957781Y-87899145D01*
X132997758Y-87913352D01*
X132998870Y-87913424D01*
X133043186Y-87934200D01*
X133115453Y-87980778D01*
X133204759Y-88034086D01*
X133301420Y-88076047D01*
X133381575Y-88111302D01*
X133521995Y-88202226D01*
X133678139Y-88328108D01*
X133834422Y-88475023D01*
X133975262Y-88629047D01*
X134085072Y-88776254D01*
X134220241Y-89021998D01*
X134342900Y-89365069D01*
X134398010Y-89717258D01*
X134390330Y-89918596D01*
X134384529Y-90070669D01*
X134301417Y-90417404D01*
X134275339Y-90490952D01*
X134194845Y-90691049D01*
X134109118Y-90852196D01*
X134003717Y-90998758D01*
X133864201Y-91155102D01*
X133750284Y-91267778D01*
X133517921Y-91453817D01*
X133247301Y-91612556D01*
X133213981Y-91629691D01*
X133108414Y-91685652D01*
X133030824Y-91729084D01*
X133024223Y-91732938D01*
X132937114Y-91778138D01*
X132832386Y-91826348D01*
X132817824Y-91832683D01*
X132720592Y-91878232D01*
X132651988Y-91915386D01*
X132619823Y-91933533D01*
X132529919Y-91980190D01*
X132402883Y-92043878D01*
X132255113Y-92116299D01*
X132149421Y-92167782D01*
X132014633Y-92234189D01*
X131912114Y-92285601D01*
X131858238Y-92313868D01*
X131857099Y-92314503D01*
X131810859Y-92338133D01*
X131705549Y-92390976D01*
X131546288Y-92470488D01*
X131338193Y-92574126D01*
X131086383Y-92699346D01*
X130795974Y-92843605D01*
X130472084Y-93004359D01*
X130119832Y-93179064D01*
X129744335Y-93365176D01*
X129350710Y-93560153D01*
X129312621Y-93579015D01*
X128920486Y-93773298D01*
X128546967Y-93958525D01*
X128197182Y-94132149D01*
X127876249Y-94291621D01*
X127589287Y-94434393D01*
X127341415Y-94557916D01*
X127137749Y-94659643D01*
X126983410Y-94737025D01*
X126883515Y-94787514D01*
X126843182Y-94808562D01*
X126836244Y-94812705D01*
X126760972Y-94851525D01*
X126662784Y-94896380D01*
X126651690Y-94901190D01*
X126546770Y-94949749D01*
X126464346Y-94992491D01*
X126384687Y-95034884D01*
X126283949Y-95083424D01*
X126187054Y-95130278D01*
X126085511Y-95184386D01*
X126079975Y-95187538D01*
X125980470Y-95239440D01*
X125869034Y-95291855D01*
X125854116Y-95298504D01*
X125757079Y-95345052D01*
X125688636Y-95382955D01*
X125620399Y-95423072D01*
X125516861Y-95474042D01*
X125363920Y-95542124D01*
X125349307Y-95548536D01*
X125252103Y-95594702D01*
X125183523Y-95632699D01*
X125121620Y-95668942D01*
X125004647Y-95730113D01*
X124861661Y-95800248D01*
X124714488Y-95868380D01*
X124702675Y-95873700D01*
X124598116Y-95923430D01*
X124516051Y-95966408D01*
X124450943Y-96002269D01*
X124353693Y-96052486D01*
X124332364Y-96063007D01*
X124240267Y-96108429D01*
X124112290Y-96171539D01*
X123969303Y-96242046D01*
X123910806Y-96270940D01*
X123777040Y-96337383D01*
X123669920Y-96391097D01*
X123608508Y-96422543D01*
X123579609Y-96437447D01*
X123489500Y-96482710D01*
X123362786Y-96545609D01*
X123217187Y-96617324D01*
X123130422Y-96660061D01*
X122992347Y-96728740D01*
X122882945Y-96783989D01*
X122820312Y-96816715D01*
X122797383Y-96828877D01*
X122709616Y-96873046D01*
X122584627Y-96934308D01*
X122441477Y-97003276D01*
X122376142Y-97034673D01*
X122234379Y-97104006D01*
X122117061Y-97162960D01*
X122044602Y-97201345D01*
X122015450Y-97217142D01*
X121921441Y-97265656D01*
X121783784Y-97335186D01*
X121615911Y-97418968D01*
X121431250Y-97510238D01*
X121318223Y-97565946D01*
X121148131Y-97650220D01*
X121005836Y-97721260D01*
X120903673Y-97772897D01*
X120853977Y-97798962D01*
X120837048Y-97808045D01*
X120759952Y-97846954D01*
X120636818Y-97907726D01*
X120480478Y-97984049D01*
X120303764Y-98069611D01*
X120245213Y-98098138D01*
X120066661Y-98189360D01*
X119928498Y-98266802D01*
X119839308Y-98325436D01*
X119807670Y-98360234D01*
X119819089Y-98385596D01*
X119877443Y-98444466D01*
X119932666Y-98486180D01*
X119967509Y-98512500D01*
X120069141Y-98575076D01*
X120162192Y-98617571D01*
X120177132Y-98623046D01*
X120259964Y-98657757D01*
X120379889Y-98711180D01*
X120516276Y-98773766D01*
X120648494Y-98835968D01*
X120755911Y-98888238D01*
X120817898Y-98921027D01*
X120872818Y-98950927D01*
X120962216Y-98992975D01*
X121005099Y-99011787D01*
X121112502Y-99060145D01*
X121232812Y-99115353D01*
X121278140Y-99136351D01*
X121588947Y-99279803D01*
X121924494Y-99433908D01*
X122254759Y-99584902D01*
X122549716Y-99719022D01*
X122673777Y-99775565D01*
X122832772Y-99848751D01*
X122964631Y-99910179D01*
X122984145Y-99919345D01*
X123114439Y-99980019D01*
X123274332Y-100053888D01*
X123433665Y-100127006D01*
X123484407Y-100150257D01*
X123617977Y-100212041D01*
X123724819Y-100262272D01*
X123785440Y-100291818D01*
X123841693Y-100320576D01*
X123917806Y-100357660D01*
X124022067Y-100406508D01*
X124173295Y-100476059D01*
X124285069Y-100527524D01*
X124450175Y-100604109D01*
X124606250Y-100677019D01*
X124743438Y-100740987D01*
X124925981Y-100825309D01*
X125093324Y-100901886D01*
X125168171Y-100936202D01*
X125336810Y-101014695D01*
X125525830Y-101103766D01*
X125706676Y-101190001D01*
X125810955Y-101239867D01*
X125990457Y-101324833D01*
X126156740Y-101402589D01*
X126283949Y-101460996D01*
X126420933Y-101523741D01*
X126593753Y-101604416D01*
X126755674Y-101681318D01*
X126784604Y-101695135D01*
X126904461Y-101750474D01*
X126995091Y-101789319D01*
X127038741Y-101803977D01*
X127039889Y-101804028D01*
X127088111Y-101824655D01*
X127162328Y-101871403D01*
X127251834Y-101924107D01*
X127348295Y-101964042D01*
X127349848Y-101964484D01*
X127427161Y-101992797D01*
X127548232Y-102043617D01*
X127692729Y-102107904D01*
X127840318Y-102176619D01*
X127970667Y-102240723D01*
X128007212Y-102259411D01*
X128096946Y-102305300D01*
X128101792Y-102307746D01*
X128171285Y-102341039D01*
X128282113Y-102392635D01*
X128412642Y-102452451D01*
X128559572Y-102519644D01*
X128717820Y-102592648D01*
X128845596Y-102652225D01*
X128853637Y-102656007D01*
X128981525Y-102715823D01*
X129139970Y-102789498D01*
X129296591Y-102861972D01*
X129356639Y-102889728D01*
X129532268Y-102971267D01*
X129727446Y-103062251D01*
X129909943Y-103147671D01*
X129992692Y-103186445D01*
X130170793Y-103269570D01*
X130338822Y-103347615D01*
X130469176Y-103407744D01*
X130524060Y-103432920D01*
X130761876Y-103542370D01*
X131060474Y-103680258D01*
X131416264Y-103844926D01*
X131481424Y-103875089D01*
X131644437Y-103950442D01*
X131795099Y-104019965D01*
X131894869Y-104066476D01*
X132045281Y-104137379D01*
X132220415Y-104220476D01*
X132399432Y-104305907D01*
X132408761Y-104310369D01*
X132574283Y-104388109D01*
X132722692Y-104455336D01*
X132838081Y-104504993D01*
X132904545Y-104530022D01*
X132991739Y-104565514D01*
X133090513Y-104622915D01*
X133093686Y-104625137D01*
X133169045Y-104671264D01*
X133218637Y-104690341D01*
X133220105Y-104690387D01*
X133278886Y-104713477D01*
X133376362Y-104771164D01*
X133496600Y-104852237D01*
X133623666Y-104945486D01*
X133741624Y-105039700D01*
X133834543Y-105123668D01*
X133923544Y-105218934D01*
X134134037Y-105511848D01*
X134283709Y-105833060D01*
X134371599Y-106173342D01*
X134396747Y-106523467D01*
X134389156Y-106592522D01*
X134358192Y-106874208D01*
X134254973Y-107216336D01*
X134086131Y-107540625D01*
X133994985Y-107672117D01*
X133891439Y-107797267D01*
X133772367Y-107913938D01*
X133629303Y-108028280D01*
X133453779Y-108146443D01*
X133237328Y-108274576D01*
X132971484Y-108418829D01*
X132647781Y-108585352D01*
X132466109Y-108677485D01*
X132190677Y-108817952D01*
X131906003Y-108963883D01*
X131636665Y-109102668D01*
X131407244Y-109221701D01*
X131246809Y-109305003D01*
X131061445Y-109400349D01*
X130900332Y-109482259D01*
X130776677Y-109544024D01*
X130703693Y-109578938D01*
X130695949Y-109582407D01*
X130583710Y-109636248D01*
X130487216Y-109687722D01*
X130451875Y-109707208D01*
X130353929Y-109758925D01*
X130213274Y-109831849D01*
X130042907Y-109919256D01*
X129855824Y-110014420D01*
X129728620Y-110078966D01*
X129551403Y-110169282D01*
X129399641Y-110247084D01*
X129286321Y-110305705D01*
X129224432Y-110338479D01*
X129144948Y-110380818D01*
X129037409Y-110434760D01*
X129016122Y-110445027D01*
X128903748Y-110500488D01*
X128758411Y-110573507D01*
X128596359Y-110655774D01*
X128433840Y-110738980D01*
X128287103Y-110814814D01*
X128172396Y-110874967D01*
X128105966Y-110911129D01*
X128016066Y-110960162D01*
X127907528Y-111014503D01*
X127806533Y-111063021D01*
X127662738Y-111134508D01*
X127474574Y-111230249D01*
X127440118Y-111247914D01*
X127295044Y-111322403D01*
X127102695Y-111421280D01*
X126875835Y-111537975D01*
X126627227Y-111665918D01*
X126369635Y-111798540D01*
X126115824Y-111929271D01*
X125878556Y-112051541D01*
X125670596Y-112158780D01*
X125630006Y-112179712D01*
X125407359Y-112294306D01*
X125144755Y-112429181D01*
X124862235Y-112574057D01*
X124579841Y-112718658D01*
X124317613Y-112852702D01*
X124108362Y-112959566D01*
X123653846Y-113191799D01*
X123248615Y-113399017D01*
X122894816Y-113580117D01*
X122594596Y-113734000D01*
X122350102Y-113859565D01*
X122163481Y-113955710D01*
X122036879Y-114021335D01*
X121972443Y-114055339D01*
X121894636Y-114096626D01*
X121787463Y-114150953D01*
X121685865Y-114201045D01*
X121522938Y-114282512D01*
X121349766Y-114370106D01*
X121181316Y-114456169D01*
X121032556Y-114533042D01*
X120918454Y-114593067D01*
X120853977Y-114628585D01*
X120848367Y-114631902D01*
X120748881Y-114685381D01*
X120637500Y-114738838D01*
X120453609Y-114824644D01*
X120204545Y-114953206D01*
X120157579Y-114978196D01*
X120052440Y-115032863D01*
X119905712Y-115108469D01*
X119729790Y-115198629D01*
X119537074Y-115296959D01*
X119371319Y-115381490D01*
X119198570Y-115469919D01*
X119055729Y-115543397D01*
X118954274Y-115596020D01*
X118905682Y-115621880D01*
X118888580Y-115631393D01*
X118808555Y-115673761D01*
X118707244Y-115725630D01*
X118524573Y-115818014D01*
X118208519Y-115978939D01*
X117863670Y-116155580D01*
X117511109Y-116337098D01*
X117171920Y-116512656D01*
X116867187Y-116671419D01*
X116865207Y-116672455D01*
X116667742Y-116775195D01*
X116487102Y-116868122D01*
X116335037Y-116945276D01*
X116223299Y-117000692D01*
X116163636Y-117028409D01*
X116086046Y-117063524D01*
X115983238Y-117118532D01*
X115977828Y-117121742D01*
X115878291Y-117175148D01*
X115766761Y-117228218D01*
X115751737Y-117234905D01*
X115654759Y-117280926D01*
X115586363Y-117317779D01*
X115546659Y-117340187D01*
X115452349Y-117390514D01*
X115322088Y-117458516D01*
X115171449Y-117536005D01*
X115049154Y-117598653D01*
X114904447Y-117673254D01*
X114789045Y-117733277D01*
X114720454Y-117769653D01*
X114700064Y-117780676D01*
X114598733Y-117833748D01*
X114485937Y-117891067D01*
X114377123Y-117945746D01*
X114224171Y-118023162D01*
X114046254Y-118113592D01*
X113856131Y-118210514D01*
X113666564Y-118307406D01*
X113490310Y-118397744D01*
X113340131Y-118475008D01*
X113228785Y-118532674D01*
X113169034Y-118564219D01*
X113078998Y-118611410D01*
X112970596Y-118664738D01*
X112919082Y-118690025D01*
X112808783Y-118745648D01*
X112657832Y-118822612D01*
X112479007Y-118914397D01*
X112285085Y-119014486D01*
X112123413Y-119097945D01*
X111941128Y-119191521D01*
X111784543Y-119271338D01*
X111666433Y-119330889D01*
X111599574Y-119363668D01*
X111502217Y-119410844D01*
X111401136Y-119462965D01*
X111359819Y-119484787D01*
X111258177Y-119537557D01*
X111114507Y-119611636D01*
X110941464Y-119700501D01*
X110751704Y-119797632D01*
X110604631Y-119872953D01*
X110429700Y-119962987D01*
X110282554Y-120039219D01*
X110175367Y-120095339D01*
X110120312Y-120125033D01*
X110113270Y-120129026D01*
X110026244Y-120173876D01*
X109921875Y-120222813D01*
X109866256Y-120249222D01*
X109750830Y-120306666D01*
X109595564Y-120385509D01*
X109413662Y-120479038D01*
X109218324Y-120580541D01*
X109001811Y-120693149D01*
X108740287Y-120828365D01*
X108458066Y-120973653D01*
X108177130Y-121117699D01*
X107919460Y-121249185D01*
X107832281Y-121293576D01*
X107619815Y-121402110D01*
X107426601Y-121501279D01*
X107263917Y-121585270D01*
X107143041Y-121648268D01*
X107075251Y-121684457D01*
X107065393Y-121689899D01*
X106955474Y-121746830D01*
X106858774Y-121791616D01*
X106809633Y-121814532D01*
X106703218Y-121867399D01*
X106555859Y-121942355D01*
X106379890Y-122033119D01*
X106187642Y-122133411D01*
X106105095Y-122176625D01*
X105843824Y-122312581D01*
X105558565Y-122460060D01*
X105278571Y-122603967D01*
X105033096Y-122729206D01*
X104867724Y-122813377D01*
X104694842Y-122901937D01*
X104551881Y-122975788D01*
X104450337Y-123028987D01*
X104401704Y-123055592D01*
X104329666Y-123095829D01*
X104209151Y-123157526D01*
X104068786Y-123225856D01*
X103932670Y-123288835D01*
X103920917Y-123294131D01*
X103816328Y-123344132D01*
X103734233Y-123387672D01*
X103705354Y-123403960D01*
X103609498Y-123455611D01*
X103474566Y-123526772D01*
X103317198Y-123608824D01*
X103154034Y-123693147D01*
X103001714Y-123771124D01*
X102876877Y-123834135D01*
X102796165Y-123873561D01*
X102698855Y-123921043D01*
X102597727Y-123974021D01*
X102548868Y-124000186D01*
X102442172Y-124055812D01*
X102302278Y-124127820D01*
X102146733Y-124207141D01*
X102021781Y-124270999D01*
X101886672Y-124341131D01*
X101784815Y-124395248D01*
X101731818Y-124425149D01*
X101720336Y-124432208D01*
X101643005Y-124474487D01*
X101543699Y-124524120D01*
X101497380Y-124546677D01*
X101377223Y-124606468D01*
X101214192Y-124688500D01*
X101020208Y-124786689D01*
X100807192Y-124894951D01*
X100587067Y-125007204D01*
X100371755Y-125117362D01*
X100173176Y-125219344D01*
X100003252Y-125307066D01*
X99873906Y-125374444D01*
X99797058Y-125415396D01*
X99755034Y-125438111D01*
X99652903Y-125489942D01*
X99580581Y-125522097D01*
X99464833Y-125572640D01*
X99327149Y-125646589D01*
X99193852Y-125729121D01*
X99085416Y-125807511D01*
X99022318Y-125869034D01*
X99014383Y-125883094D01*
X99005459Y-125908239D01*
X98997402Y-125945733D01*
X98990112Y-125999564D01*
X98983491Y-126073719D01*
X98977442Y-126172184D01*
X98971865Y-126298948D01*
X98966664Y-126457996D01*
X98961738Y-126653317D01*
X98956990Y-126888897D01*
X98952323Y-127168724D01*
X98947636Y-127496785D01*
X98942833Y-127877066D01*
X98937815Y-128313555D01*
X98934317Y-128639376D01*
X98932483Y-128810240D01*
X98926739Y-129371106D01*
X98920486Y-130000142D01*
X98913442Y-130726466D01*
X98903790Y-131758271D01*
X98894498Y-132794142D01*
X98885591Y-133830067D01*
X98877093Y-134862035D01*
X98869028Y-135886035D01*
X98861419Y-136898053D01*
X98854290Y-137894080D01*
X98847665Y-138870103D01*
X98841568Y-139822111D01*
X98836023Y-140746092D01*
X98831054Y-141638034D01*
X98826683Y-142493926D01*
X98822936Y-143309757D01*
X98819836Y-144081514D01*
X98817407Y-144805187D01*
X98815673Y-145476763D01*
X98814657Y-146092231D01*
X98814383Y-146647579D01*
X98814876Y-147138796D01*
X98816159Y-147561870D01*
X98827415Y-150150586D01*
X74338423Y-150150577D01*
X49849432Y-150150568D01*
X49849432Y-126547330D01*
X49849432Y-126438847D01*
X49849491Y-124826301D01*
X49849652Y-123263904D01*
X49849915Y-121752501D01*
X49850278Y-120292940D01*
X49850740Y-118886067D01*
X49851300Y-117532728D01*
X49851957Y-116233771D01*
X49852709Y-114990041D01*
X49853555Y-113802385D01*
X49854494Y-112671650D01*
X49855524Y-111598683D01*
X49856646Y-110584329D01*
X49857856Y-109629436D01*
X49859155Y-108734850D01*
X49860540Y-107901418D01*
X49862011Y-107129986D01*
X49863566Y-106421400D01*
X49865204Y-105776509D01*
X49866925Y-105196157D01*
X49868726Y-104681191D01*
X49870606Y-104232459D01*
X49872565Y-103850806D01*
X49874601Y-103537079D01*
X49876712Y-103292126D01*
X49878898Y-103116791D01*
X49881158Y-103011923D01*
X49883490Y-102978367D01*
X49891232Y-102988418D01*
X49917299Y-103057727D01*
X49942779Y-103183277D01*
X49968063Y-103368248D01*
X49993539Y-103615823D01*
X50019596Y-103929182D01*
X50046624Y-104311506D01*
X50052653Y-104399933D01*
X50072272Y-104659743D01*
X50093757Y-104910105D01*
X50115623Y-105135370D01*
X50136383Y-105319888D01*
X50154552Y-105448012D01*
X50174027Y-105573438D01*
X50200414Y-105774268D01*
X50225448Y-105994764D01*
X50245614Y-106205682D01*
X50260660Y-106362383D01*
X50288253Y-106597950D01*
X50319971Y-106827276D01*
X50351524Y-107017472D01*
X50365156Y-107092250D01*
X50397764Y-107288386D01*
X50425673Y-107478727D01*
X50443992Y-107630824D01*
X50445473Y-107645455D01*
X50467435Y-107813283D01*
X50499397Y-108007879D01*
X50534983Y-108190057D01*
X50539827Y-108212806D01*
X50577272Y-108409285D01*
X50613261Y-108628367D01*
X50640607Y-108826737D01*
X50647810Y-108883340D01*
X50673958Y-109050717D01*
X50703689Y-109199970D01*
X50731868Y-109304237D01*
X50736317Y-109317483D01*
X50766926Y-109434171D01*
X50798061Y-109588210D01*
X50823617Y-109749943D01*
X50824000Y-109752809D01*
X50853253Y-109937069D01*
X50891525Y-110133734D01*
X50930638Y-110300710D01*
X50963802Y-110434297D01*
X51005668Y-110624719D01*
X51037569Y-110793758D01*
X51060273Y-110914057D01*
X51095855Y-111067037D01*
X51130840Y-111186316D01*
X51157710Y-111275541D01*
X51193322Y-111424573D01*
X51222016Y-111577218D01*
X51242275Y-111689677D01*
X51283768Y-111879385D01*
X51328579Y-112050568D01*
X51360851Y-112163194D01*
X51409951Y-112342842D01*
X51450923Y-112501563D01*
X51474591Y-112597150D01*
X51557175Y-112920525D01*
X51630806Y-113190685D01*
X51699251Y-113421591D01*
X51733828Y-113537348D01*
X51781328Y-113708090D01*
X51818490Y-113854546D01*
X51839073Y-113937854D01*
X51894535Y-114135463D01*
X51971206Y-114381163D01*
X52071961Y-114684375D01*
X52107501Y-114796576D01*
X52152665Y-114950890D01*
X52195576Y-115107505D01*
X52196606Y-115111416D01*
X52238057Y-115255316D01*
X52281052Y-115383826D01*
X52316444Y-115469547D01*
X52321715Y-115480176D01*
X52363858Y-115590968D01*
X52395565Y-115713413D01*
X52408591Y-115768659D01*
X52451926Y-115903241D01*
X52506544Y-116036882D01*
X52538077Y-116109744D01*
X52576274Y-116217387D01*
X52591477Y-116289915D01*
X52597763Y-116329730D01*
X52628398Y-116427739D01*
X52675808Y-116542472D01*
X52701753Y-116601865D01*
X52759976Y-116756188D01*
X52803097Y-116897597D01*
X52818012Y-116952064D01*
X52857728Y-117068464D01*
X52895975Y-117150154D01*
X52897133Y-117152009D01*
X52938929Y-117243795D01*
X52971116Y-117354262D01*
X53005045Y-117472918D01*
X53052963Y-117588779D01*
X53054197Y-117591178D01*
X53106552Y-117706487D01*
X53176452Y-117880438D01*
X53260045Y-118103086D01*
X53353478Y-118364489D01*
X53383688Y-118447117D01*
X53432231Y-118568125D01*
X53471569Y-118653125D01*
X53479167Y-118667827D01*
X53524238Y-118770727D01*
X53566688Y-118887463D01*
X53579979Y-118925807D01*
X53634931Y-119060192D01*
X53697619Y-119190493D01*
X53724697Y-119244533D01*
X53765884Y-119343126D01*
X53782102Y-119408141D01*
X53795032Y-119464264D01*
X53837370Y-119545805D01*
X53850711Y-119566729D01*
X53900220Y-119664484D01*
X53946344Y-119779330D01*
X53954668Y-119802743D01*
X54010435Y-119945135D01*
X54069130Y-120078267D01*
X54106835Y-120158565D01*
X54170567Y-120297724D01*
X54233905Y-120439063D01*
X54277729Y-120537173D01*
X54357439Y-120712510D01*
X54431363Y-120872017D01*
X54493164Y-121004345D01*
X54573683Y-121178240D01*
X54648457Y-121341051D01*
X54677458Y-121403673D01*
X54744854Y-121545761D01*
X54827041Y-121716138D01*
X54917443Y-121901469D01*
X55009484Y-122088422D01*
X55096585Y-122263664D01*
X55172170Y-122413863D01*
X55229662Y-122525684D01*
X55262484Y-122585796D01*
X55266729Y-122592955D01*
X55305761Y-122668207D01*
X55351327Y-122766193D01*
X55354625Y-122773625D01*
X55408594Y-122886005D01*
X55461013Y-122982671D01*
X55503483Y-123060234D01*
X55551461Y-123163068D01*
X55584237Y-123233046D01*
X55642752Y-123345142D01*
X55711997Y-123469744D01*
X55775527Y-123582166D01*
X55851801Y-123720736D01*
X55910100Y-123830540D01*
X55956586Y-123918422D01*
X56031165Y-124054369D01*
X56108537Y-124191335D01*
X56172388Y-124303746D01*
X56249398Y-124442322D01*
X56308628Y-124552131D01*
X56339908Y-124610709D01*
X56413827Y-124744782D01*
X56488947Y-124876847D01*
X56526697Y-124942054D01*
X56611292Y-125088969D01*
X56686005Y-125219602D01*
X56722730Y-125282618D01*
X56800261Y-125411801D01*
X56894687Y-125566230D01*
X56993126Y-125724716D01*
X57061904Y-125835381D01*
X57155176Y-125988151D01*
X57233780Y-126119901D01*
X57285705Y-126210683D01*
X57302129Y-126240450D01*
X57368269Y-126353973D01*
X57426106Y-126445200D01*
X57458442Y-126493705D01*
X57526816Y-126599813D01*
X57600333Y-126716904D01*
X57646637Y-126790760D01*
X57724795Y-126912064D01*
X57787479Y-127005540D01*
X57831244Y-127070470D01*
X57906994Y-127187410D01*
X57985369Y-127312216D01*
X58044601Y-127406852D01*
X58122895Y-127528451D01*
X58183595Y-127618892D01*
X58185142Y-127621102D01*
X58244360Y-127707631D01*
X58325344Y-127828252D01*
X58411041Y-127957571D01*
X58415265Y-127963987D01*
X58500190Y-128091374D01*
X58578882Y-128206803D01*
X58634801Y-128285998D01*
X58662101Y-128323683D01*
X58736503Y-128429278D01*
X58814418Y-128542632D01*
X58873387Y-128628134D01*
X58970871Y-128766034D01*
X59066975Y-128898918D01*
X59140249Y-129000679D01*
X59223906Y-129121172D01*
X59284233Y-129212898D01*
X59311353Y-129254230D01*
X59384150Y-129358145D01*
X59479484Y-129489194D01*
X59583829Y-129628611D01*
X59607212Y-129659390D01*
X59723197Y-129812092D01*
X59863327Y-129996610D01*
X60012012Y-130192415D01*
X60153662Y-130378977D01*
X60257860Y-130515664D01*
X60465426Y-130785068D01*
X60679601Y-131059724D01*
X60894092Y-131331803D01*
X61102608Y-131593472D01*
X61298854Y-131836900D01*
X61476538Y-132054258D01*
X61629366Y-132237713D01*
X61751046Y-132379434D01*
X61835285Y-132471591D01*
X61842439Y-132478971D01*
X61918006Y-132560911D01*
X62024877Y-132681171D01*
X62149863Y-132824765D01*
X62279775Y-132976705D01*
X62313426Y-133016230D01*
X62475354Y-133202656D01*
X62669662Y-133421797D01*
X62882309Y-133658124D01*
X63099254Y-133896112D01*
X63306456Y-134120232D01*
X63489876Y-134314957D01*
X63493606Y-134318849D01*
X63547728Y-134374501D01*
X63644120Y-134472946D01*
X63775383Y-134606653D01*
X63934120Y-134768093D01*
X64112932Y-134949735D01*
X64304422Y-135144050D01*
X64832885Y-135674843D01*
X65338215Y-136170680D01*
X65824171Y-136634194D01*
X66303796Y-137077435D01*
X66790129Y-137512450D01*
X67296212Y-137951288D01*
X67835085Y-138405997D01*
X67969797Y-138518463D01*
X68143233Y-138663616D01*
X68300904Y-138795955D01*
X68429574Y-138904366D01*
X68516009Y-138977738D01*
X68600886Y-139048280D01*
X68711338Y-139134790D01*
X68795626Y-139194949D01*
X68805316Y-139201291D01*
X68872097Y-139252779D01*
X68899432Y-139288377D01*
X68918758Y-139314440D01*
X68980783Y-139352188D01*
X68995663Y-139359904D01*
X69074144Y-139410496D01*
X69183614Y-139489506D01*
X69305200Y-139583477D01*
X69328614Y-139602148D01*
X69464443Y-139709267D01*
X69594867Y-139810430D01*
X69694526Y-139885938D01*
X69786878Y-139955538D01*
X69917641Y-140056208D01*
X70046601Y-140157266D01*
X70161675Y-140246972D01*
X70268586Y-140327747D01*
X70342613Y-140380863D01*
X70391333Y-140414369D01*
X70494912Y-140486915D01*
X70633961Y-140585044D01*
X70795614Y-140699616D01*
X70967003Y-140821494D01*
X71135260Y-140941538D01*
X71287518Y-141050610D01*
X71410909Y-141139572D01*
X71450422Y-141168096D01*
X71501880Y-141204637D01*
X71561230Y-141245767D01*
X71638907Y-141298565D01*
X71745345Y-141370111D01*
X71890979Y-141467485D01*
X72086245Y-141597766D01*
X72161045Y-141647648D01*
X72309086Y-141746274D01*
X72422980Y-141821817D01*
X72521085Y-141886304D01*
X72621762Y-141951764D01*
X72743367Y-142030226D01*
X72904261Y-142133717D01*
X72984906Y-142185696D01*
X73120767Y-142273821D01*
X73232686Y-142347094D01*
X73302243Y-142393493D01*
X73322956Y-142407302D01*
X73424503Y-142470034D01*
X73536760Y-142534236D01*
X73583413Y-142560388D01*
X73714997Y-142638332D01*
X73842329Y-142718238D01*
X73889851Y-142748766D01*
X74033304Y-142837587D01*
X74167045Y-142916619D01*
X74214975Y-142944426D01*
X74358248Y-143031086D01*
X74491761Y-143115845D01*
X74543850Y-143149151D01*
X74678510Y-143229679D01*
X74798437Y-143295019D01*
X74858738Y-143326404D01*
X74992080Y-143399928D01*
X75123153Y-143476255D01*
X75188283Y-143514632D01*
X75342136Y-143601003D01*
X75483949Y-143675980D01*
X75583723Y-143728295D01*
X75736010Y-143812392D01*
X75880824Y-143896231D01*
X75997884Y-143963287D01*
X76177921Y-144061913D01*
X76409686Y-144185828D01*
X76686567Y-144331528D01*
X77001953Y-144495512D01*
X77349231Y-144674275D01*
X77430675Y-144711303D01*
X77554708Y-144752072D01*
X77648721Y-144764474D01*
X77756960Y-144756676D01*
X77756960Y-140048296D01*
X77756958Y-140005939D01*
X77756853Y-139683665D01*
X77756589Y-139292150D01*
X77756171Y-138833928D01*
X77755604Y-138311535D01*
X77754891Y-137727507D01*
X77754039Y-137084378D01*
X77753050Y-136384685D01*
X77751930Y-135630962D01*
X77750683Y-134825746D01*
X77750561Y-134749640D01*
X81669801Y-134749640D01*
X81679716Y-140650087D01*
X81689631Y-146550534D01*
X81809844Y-146650887D01*
X81879849Y-146698112D01*
X82011396Y-146762949D01*
X82152600Y-146813190D01*
X82258995Y-146845267D01*
X82382121Y-146888364D01*
X82465341Y-146924557D01*
X82514832Y-146948669D01*
X82626980Y-146995779D01*
X82753977Y-147043189D01*
X82894354Y-147092237D01*
X83076206Y-147156306D01*
X83214209Y-147205957D01*
X83323466Y-147246758D01*
X83419082Y-147284274D01*
X83516159Y-147324073D01*
X83610270Y-147360818D01*
X83714002Y-147395235D01*
X83777021Y-147408523D01*
X83833654Y-147419605D01*
X83936832Y-147451275D01*
X84061146Y-147496317D01*
X84151098Y-147530842D01*
X84277784Y-147577613D01*
X84413621Y-147625008D01*
X84578540Y-147679919D01*
X84792471Y-147749238D01*
X84904188Y-147784707D01*
X85126739Y-147853461D01*
X85359077Y-147923305D01*
X85575068Y-147986429D01*
X85748579Y-148035020D01*
X85816997Y-148053950D01*
X85980859Y-148101781D01*
X86127415Y-148147347D01*
X86168391Y-148160612D01*
X86568388Y-148282322D01*
X87036751Y-148412280D01*
X87570596Y-148549680D01*
X87590928Y-148554779D01*
X87740959Y-148593646D01*
X87920043Y-148641518D01*
X88093750Y-148689211D01*
X88131258Y-148699504D01*
X88298501Y-148741832D01*
X88456296Y-148776875D01*
X88574812Y-148797892D01*
X88615960Y-148804086D01*
X88763505Y-148834623D01*
X88893244Y-148871771D01*
X88917723Y-148879794D01*
X89036922Y-148911719D01*
X89192237Y-148946522D01*
X89356534Y-148977983D01*
X89404476Y-148986578D01*
X89569286Y-149019784D01*
X89717301Y-149054579D01*
X89821254Y-149084700D01*
X89854092Y-149094869D01*
X89977474Y-149123253D01*
X90136498Y-149151148D01*
X90305088Y-149173755D01*
X90369353Y-149181534D01*
X90538759Y-149207170D01*
X90689374Y-149236582D01*
X90794642Y-149264829D01*
X90853079Y-149282108D01*
X90987448Y-149312918D01*
X91155103Y-149344706D01*
X91332790Y-149372806D01*
X91451445Y-149390426D01*
X91618483Y-149418052D01*
X91757220Y-149444230D01*
X91846023Y-149465069D01*
X91848613Y-149465825D01*
X91935859Y-149484788D01*
X92075282Y-149508322D01*
X92248214Y-149533502D01*
X92435987Y-149557409D01*
X92625691Y-149581605D01*
X92823750Y-149610279D01*
X92996815Y-149638655D01*
X93121498Y-149663126D01*
X93240930Y-149685430D01*
X93412857Y-149710273D01*
X93611077Y-149733932D01*
X93812358Y-149753371D01*
X94007638Y-149770943D01*
X94204782Y-149790923D01*
X94375837Y-149810429D01*
X94497869Y-149826997D01*
X94626264Y-149846749D01*
X94724155Y-149857575D01*
X94781082Y-149853744D01*
X94813329Y-149833779D01*
X94837185Y-149796200D01*
X94837719Y-149794740D01*
X94842498Y-149742081D01*
X94847406Y-149619095D01*
X94852426Y-149427428D01*
X94857538Y-149168725D01*
X94862726Y-148844633D01*
X94867970Y-148456797D01*
X94873252Y-148006862D01*
X94878554Y-147496474D01*
X94883857Y-146927278D01*
X94889144Y-146300921D01*
X94894397Y-145619047D01*
X94899596Y-144883302D01*
X94904723Y-144095332D01*
X94909762Y-143256783D01*
X94911364Y-142982229D01*
X94916030Y-142209330D01*
X94921075Y-141409281D01*
X94926441Y-140589720D01*
X94932071Y-139758287D01*
X94937908Y-138922621D01*
X94943896Y-138090360D01*
X94949976Y-137269145D01*
X94956092Y-136466615D01*
X94962186Y-135690407D01*
X94968203Y-134948162D01*
X94974083Y-134247519D01*
X94979772Y-133596117D01*
X94985211Y-133001594D01*
X94990343Y-132471591D01*
X94993966Y-132099870D01*
X94998880Y-131558408D01*
X95003167Y-131038940D01*
X95006809Y-130546027D01*
X95009787Y-130084228D01*
X95012086Y-129658104D01*
X95013685Y-129272213D01*
X95014569Y-128931118D01*
X95014718Y-128639376D01*
X95014115Y-128401549D01*
X95012742Y-128222197D01*
X95010582Y-128105879D01*
X95007616Y-128057155D01*
X95006491Y-128052717D01*
X94982487Y-127987970D01*
X94939964Y-127967541D01*
X94853257Y-127978322D01*
X94826146Y-127985552D01*
X94725864Y-128023636D01*
X94583584Y-128086396D01*
X94414175Y-128167110D01*
X94232503Y-128259053D01*
X94164376Y-128294518D01*
X93933795Y-128414053D01*
X93675085Y-128547600D01*
X93415168Y-128681277D01*
X93180966Y-128801205D01*
X93036011Y-128875310D01*
X92857750Y-128966723D01*
X92705810Y-129044952D01*
X92592852Y-129103476D01*
X92531534Y-129135774D01*
X92517586Y-129143269D01*
X92417168Y-129194846D01*
X92305207Y-129249729D01*
X92272882Y-129265442D01*
X92170931Y-129316239D01*
X92029167Y-129387759D01*
X91860617Y-129473338D01*
X91678304Y-129566314D01*
X91495255Y-129660027D01*
X91324494Y-129747815D01*
X91179047Y-129823014D01*
X91071938Y-129878964D01*
X91016193Y-129909004D01*
X90999635Y-129918194D01*
X90919512Y-129959693D01*
X90817756Y-130009941D01*
X90754118Y-130040695D01*
X90592986Y-130119121D01*
X90478230Y-130176201D01*
X90395559Y-130219128D01*
X90330682Y-130255096D01*
X90295345Y-130274396D01*
X90197400Y-130325851D01*
X90056744Y-130398543D01*
X89886375Y-130485767D01*
X89699290Y-130580818D01*
X89613946Y-130624118D01*
X89365876Y-130750789D01*
X89092577Y-130891251D01*
X88821683Y-131031279D01*
X88580824Y-131156646D01*
X88420145Y-131240319D01*
X88234859Y-131335907D01*
X88073820Y-131418023D01*
X87950225Y-131479945D01*
X87877273Y-131514952D01*
X87862161Y-131521783D01*
X87765231Y-131568976D01*
X87696875Y-131607455D01*
X87695388Y-131608442D01*
X87650661Y-131634802D01*
X87578408Y-131671516D01*
X87465797Y-131724843D01*
X87300000Y-131801043D01*
X87248789Y-131826639D01*
X87148203Y-131878668D01*
X87012994Y-131949456D01*
X86857753Y-132031403D01*
X86822345Y-132050116D01*
X86656743Y-132136889D01*
X86447548Y-132245659D01*
X86211044Y-132367997D01*
X85963515Y-132495474D01*
X85721248Y-132619662D01*
X85695998Y-132632572D01*
X85433016Y-132767225D01*
X85150541Y-132912151D01*
X84869516Y-133056588D01*
X84610887Y-133189770D01*
X84395596Y-133300936D01*
X84233973Y-133384364D01*
X84051672Y-133477982D01*
X83895072Y-133557881D01*
X83776950Y-133617546D01*
X83710085Y-133650460D01*
X83607984Y-133700482D01*
X83493608Y-133759904D01*
X83473025Y-133770814D01*
X83384850Y-133816411D01*
X83247980Y-133886420D01*
X83073354Y-133975268D01*
X82871911Y-134077386D01*
X82654591Y-134187203D01*
X82562598Y-134233870D01*
X82348126Y-134344639D01*
X82152966Y-134448071D01*
X81988463Y-134538008D01*
X81865961Y-134608293D01*
X81796806Y-134652768D01*
X81669801Y-134749640D01*
X77750561Y-134749640D01*
X77749314Y-133971571D01*
X77747827Y-133070973D01*
X77746226Y-132126488D01*
X77744517Y-131140650D01*
X77742704Y-130115996D01*
X77740791Y-129055060D01*
X77739586Y-128398406D01*
X81773031Y-128398406D01*
X81773034Y-128833781D01*
X81773969Y-129209362D01*
X81775841Y-129523090D01*
X81778657Y-129772905D01*
X81782424Y-129956747D01*
X81787147Y-130072556D01*
X81792833Y-130118272D01*
X81801209Y-130129678D01*
X81856620Y-130156465D01*
X81948001Y-130144578D01*
X82082409Y-130092221D01*
X82266903Y-129997596D01*
X82322462Y-129967322D01*
X82459262Y-129894684D01*
X82573803Y-129836402D01*
X82645738Y-129802931D01*
X82722126Y-129769089D01*
X82826136Y-129716068D01*
X82847348Y-129704551D01*
X82932892Y-129659558D01*
X83067013Y-129589905D01*
X83239225Y-129501012D01*
X83439039Y-129398299D01*
X83655966Y-129287188D01*
X83672478Y-129278745D01*
X83933620Y-129145139D01*
X84215473Y-129000816D01*
X84496794Y-128856660D01*
X84756341Y-128723557D01*
X84972869Y-128612392D01*
X85141888Y-128525615D01*
X85377218Y-128404923D01*
X85647015Y-128266655D01*
X85935583Y-128118854D01*
X86227227Y-127969559D01*
X86506250Y-127826813D01*
X86757405Y-127698310D01*
X87047244Y-127549889D01*
X87334996Y-127402421D01*
X87605119Y-127263873D01*
X87842069Y-127142216D01*
X88030302Y-127045418D01*
X88179169Y-126968929D01*
X88366030Y-126873373D01*
X88529900Y-126790073D01*
X88657076Y-126725989D01*
X88733854Y-126688081D01*
X88753291Y-126678721D01*
X88866424Y-126622586D01*
X88959659Y-126574013D01*
X89016692Y-126543716D01*
X89140159Y-126479375D01*
X89318969Y-126386915D01*
X89548228Y-126268853D01*
X89823042Y-126127704D01*
X90138517Y-125965986D01*
X90489760Y-125786214D01*
X90871875Y-125590904D01*
X90900745Y-125576155D01*
X91184742Y-125430938D01*
X91505447Y-125266758D01*
X91838212Y-125096243D01*
X92158390Y-124932022D01*
X92441335Y-124786725D01*
X92483490Y-124765064D01*
X92767719Y-124619212D01*
X93080268Y-124459099D01*
X93398023Y-124296554D01*
X93697864Y-124143402D01*
X93956676Y-124011471D01*
X94147164Y-123914383D01*
X94382050Y-123794059D01*
X94565670Y-123698911D01*
X94705945Y-123624651D01*
X94810792Y-123566988D01*
X94888132Y-123521634D01*
X94945882Y-123484299D01*
X94991962Y-123450692D01*
X94996238Y-123447222D01*
X95004861Y-123437977D01*
X95012738Y-123423674D01*
X95019919Y-123401118D01*
X95026455Y-123367114D01*
X95032395Y-123318467D01*
X95037791Y-123251981D01*
X95042692Y-123164461D01*
X95047150Y-123052713D01*
X95051213Y-122913540D01*
X95054933Y-122743747D01*
X95058359Y-122540139D01*
X95061542Y-122299521D01*
X95064533Y-122018697D01*
X95067382Y-121694473D01*
X95070138Y-121323652D01*
X95072853Y-120903040D01*
X95075576Y-120429441D01*
X95078359Y-119899660D01*
X95080152Y-119534280D01*
X98996268Y-119534280D01*
X98996488Y-119900808D01*
X98997304Y-120217988D01*
X98998724Y-120488541D01*
X99000751Y-120715184D01*
X99003393Y-120900636D01*
X99006655Y-121047615D01*
X99010542Y-121158840D01*
X99015061Y-121237029D01*
X99020218Y-121284900D01*
X99026018Y-121305172D01*
X99073620Y-121343543D01*
X99169283Y-121351790D01*
X99282563Y-121294088D01*
X99311404Y-121275111D01*
X99404271Y-121221508D01*
X99540792Y-121147279D01*
X99707709Y-121059577D01*
X99891761Y-120965551D01*
X100001654Y-120910124D01*
X100177617Y-120821079D01*
X100329062Y-120744084D01*
X100442668Y-120685919D01*
X100505113Y-120653363D01*
X100595396Y-120606428D01*
X100703551Y-120552907D01*
X100767576Y-120521208D01*
X100884441Y-120462254D01*
X101041170Y-120382619D01*
X101225494Y-120288536D01*
X101425142Y-120186240D01*
X101620872Y-120085927D01*
X101805632Y-119991550D01*
X101963043Y-119911462D01*
X102080833Y-119851907D01*
X102146733Y-119819126D01*
X102244378Y-119769779D01*
X102345170Y-119715075D01*
X102380308Y-119695929D01*
X102478200Y-119644733D01*
X102618890Y-119572416D01*
X102789352Y-119485662D01*
X102976562Y-119391151D01*
X103107683Y-119325036D01*
X103278530Y-119238296D01*
X103420846Y-119165345D01*
X103522628Y-119112347D01*
X103571875Y-119085465D01*
X103588581Y-119075619D01*
X103668678Y-119032406D01*
X103770312Y-118980867D01*
X103779382Y-118976401D01*
X103971743Y-118880725D01*
X104135702Y-118797399D01*
X104259043Y-118732711D01*
X104329545Y-118692953D01*
X104345997Y-118683170D01*
X104426138Y-118640116D01*
X104527983Y-118589207D01*
X104543761Y-118581589D01*
X104721494Y-118495394D01*
X104845895Y-118434119D01*
X104928034Y-118392242D01*
X104978977Y-118364243D01*
X104999453Y-118353102D01*
X105079556Y-118311217D01*
X105208479Y-118244649D01*
X105376482Y-118158405D01*
X105573825Y-118057492D01*
X105790767Y-117946918D01*
X105816696Y-117933718D01*
X106084617Y-117796938D01*
X106374730Y-117648226D01*
X106665391Y-117498716D01*
X106934959Y-117359536D01*
X107161790Y-117241818D01*
X107167542Y-117238821D01*
X107362883Y-117137664D01*
X107539326Y-117047368D01*
X107685623Y-116973606D01*
X107790530Y-116922050D01*
X107842797Y-116898371D01*
X107866201Y-116889029D01*
X107954433Y-116847406D01*
X108059274Y-116792389D01*
X108090558Y-116775407D01*
X108199235Y-116717814D01*
X108349609Y-116639238D01*
X108526121Y-116547789D01*
X108713210Y-116451575D01*
X108807525Y-116403213D01*
X108981608Y-116313692D01*
X109132193Y-116235933D01*
X109245693Y-116176959D01*
X109308523Y-116143794D01*
X109315741Y-116139892D01*
X109414805Y-116088376D01*
X109525000Y-116033488D01*
X109574089Y-116009426D01*
X109701997Y-115945518D01*
X109854269Y-115868346D01*
X110016104Y-115785532D01*
X110172701Y-115704699D01*
X110309262Y-115633472D01*
X110410984Y-115579472D01*
X110463068Y-115550324D01*
X110469970Y-115546105D01*
X110545246Y-115506753D01*
X110643466Y-115461685D01*
X110657999Y-115455366D01*
X110755247Y-115409739D01*
X110823863Y-115372397D01*
X110852016Y-115355707D01*
X110938498Y-115309105D01*
X111046281Y-115254414D01*
X111076072Y-115239672D01*
X111202943Y-115176194D01*
X111362500Y-115095627D01*
X111542607Y-115004176D01*
X111731131Y-114908050D01*
X111915936Y-114813456D01*
X112084888Y-114726601D01*
X112225853Y-114653693D01*
X112326697Y-114600940D01*
X112375284Y-114574549D01*
X112382574Y-114570279D01*
X112457813Y-114531328D01*
X112555682Y-114485472D01*
X112633246Y-114448116D01*
X112758942Y-114384176D01*
X112913347Y-114303551D01*
X113078835Y-114215341D01*
X113238618Y-114130142D01*
X113393708Y-114049098D01*
X113520706Y-113984421D01*
X113601988Y-113945210D01*
X113617091Y-113938392D01*
X113714027Y-113891294D01*
X113782386Y-113852946D01*
X113789240Y-113848581D01*
X113864519Y-113808225D01*
X113962784Y-113762711D01*
X113973899Y-113757893D01*
X114078809Y-113709431D01*
X114161221Y-113666890D01*
X114181690Y-113655503D01*
X114269418Y-113608670D01*
X114402571Y-113538882D01*
X114567931Y-113452946D01*
X114752278Y-113357670D01*
X114942393Y-113259860D01*
X115125059Y-113166325D01*
X115287055Y-113083871D01*
X115415163Y-113019306D01*
X115496165Y-112979437D01*
X115530846Y-112962741D01*
X115629105Y-112913564D01*
X115694602Y-112878098D01*
X115733847Y-112856611D01*
X115828121Y-112807588D01*
X115958569Y-112741106D01*
X116109517Y-112665208D01*
X116230526Y-112604354D01*
X116375777Y-112530244D01*
X116491656Y-112469915D01*
X116560511Y-112432476D01*
X116650641Y-112382964D01*
X116758949Y-112327975D01*
X116806017Y-112304761D01*
X116921534Y-112246635D01*
X117091261Y-112160545D01*
X117309475Y-112049419D01*
X117570454Y-111916190D01*
X117868477Y-111763787D01*
X118197822Y-111595140D01*
X118552766Y-111413181D01*
X118927588Y-111220840D01*
X119316567Y-111021046D01*
X119713980Y-110816731D01*
X120114105Y-110610824D01*
X120511221Y-110406257D01*
X120537611Y-110392661D01*
X120758998Y-110278858D01*
X121021202Y-110144434D01*
X121303568Y-109999959D01*
X121585441Y-109856003D01*
X121846165Y-109723136D01*
X121971476Y-109659322D01*
X122182631Y-109551603D01*
X122370802Y-109455373D01*
X122525651Y-109375931D01*
X122636841Y-109318574D01*
X122694034Y-109288601D01*
X122784276Y-109241514D01*
X122892471Y-109187953D01*
X122963621Y-109152591D01*
X123083467Y-109091442D01*
X123233770Y-109013828D01*
X123397585Y-108928455D01*
X123556776Y-108845585D01*
X123707683Y-108767932D01*
X123828636Y-108706629D01*
X123902699Y-108670333D01*
X124004392Y-108621239D01*
X124119176Y-108562822D01*
X124122606Y-108561011D01*
X124236831Y-108501165D01*
X124389334Y-108421906D01*
X124567323Y-108329814D01*
X124758006Y-108231467D01*
X124948591Y-108133446D01*
X125126286Y-108042330D01*
X125278301Y-107964698D01*
X125391842Y-107907129D01*
X125454119Y-107876203D01*
X125545992Y-107830074D01*
X125616477Y-107790672D01*
X125623925Y-107786150D01*
X125699149Y-107746016D01*
X125796875Y-107699080D01*
X125805472Y-107695145D01*
X125917324Y-107642046D01*
X126013352Y-107593687D01*
X126062661Y-107567857D01*
X126169356Y-107512469D01*
X126309069Y-107440247D01*
X126464346Y-107360227D01*
X126586955Y-107296930D01*
X126731530Y-107221740D01*
X126846815Y-107161163D01*
X126915341Y-107124336D01*
X126995548Y-107081527D01*
X127103248Y-107027740D01*
X127228086Y-106967271D01*
X127412320Y-106873571D01*
X127577685Y-106784427D01*
X127712576Y-106706382D01*
X127805388Y-106645981D01*
X127844517Y-106609767D01*
X127849248Y-106592522D01*
X127842933Y-106553991D01*
X127807230Y-106511546D01*
X127734712Y-106460375D01*
X127617954Y-106395667D01*
X127449531Y-106312610D01*
X127222017Y-106206392D01*
X127076885Y-106139021D01*
X126902306Y-106056883D01*
X126752983Y-105985569D01*
X126642498Y-105934091D01*
X126551950Y-105895643D01*
X126505996Y-105880952D01*
X126504859Y-105880911D01*
X126454834Y-105860362D01*
X126379717Y-105813540D01*
X126290330Y-105760478D01*
X126193750Y-105719347D01*
X126138296Y-105698670D01*
X126027868Y-105651810D01*
X125884304Y-105587562D01*
X125724716Y-105513440D01*
X125632740Y-105469961D01*
X125372714Y-105347248D01*
X125162547Y-105248469D01*
X124990568Y-105168167D01*
X124845105Y-105100886D01*
X124714488Y-105041169D01*
X124703801Y-105036294D01*
X124588436Y-104982514D01*
X124430218Y-104907433D01*
X124248594Y-104820326D01*
X124063012Y-104730467D01*
X124009326Y-104704453D01*
X123848610Y-104628065D01*
X123714307Y-104566418D01*
X123619166Y-104525275D01*
X123575938Y-104510396D01*
X123535862Y-104497107D01*
X123443898Y-104457536D01*
X123314916Y-104397977D01*
X123163068Y-104324795D01*
X123032839Y-104261221D01*
X122861972Y-104178828D01*
X122711615Y-104107398D01*
X122603835Y-104057479D01*
X122442290Y-103984313D01*
X122231639Y-103888119D01*
X122016347Y-103789141D01*
X121819896Y-103698180D01*
X121665767Y-103626034D01*
X121286397Y-103446974D01*
X120889544Y-103260279D01*
X120551968Y-103102249D01*
X120270555Y-102971425D01*
X120042187Y-102866349D01*
X120039796Y-102865256D01*
X119934861Y-102816818D01*
X119784955Y-102747032D01*
X119609730Y-102665068D01*
X119428835Y-102580098D01*
X119223484Y-102483475D01*
X119010102Y-102383289D01*
X118834595Y-102301230D01*
X118681684Y-102230180D01*
X118536088Y-102163020D01*
X118382528Y-102092631D01*
X118271365Y-102041763D01*
X118052749Y-101941415D01*
X117886958Y-101864688D01*
X117764927Y-101807288D01*
X117677591Y-101764922D01*
X117615883Y-101733294D01*
X117570738Y-101708111D01*
X117494771Y-101668343D01*
X117408778Y-101632932D01*
X117360498Y-101614047D01*
X117260267Y-101567781D01*
X117143538Y-101508878D01*
X117053932Y-101463890D01*
X116961728Y-101422906D01*
X116910668Y-101407102D01*
X116871914Y-101394213D01*
X116779058Y-101354609D01*
X116645380Y-101294032D01*
X116483247Y-101218326D01*
X116305028Y-101133337D01*
X116123089Y-101044906D01*
X115949798Y-100958880D01*
X115797523Y-100881101D01*
X115734649Y-100850146D01*
X115637692Y-100809617D01*
X115576892Y-100793750D01*
X115514409Y-100773716D01*
X115435044Y-100723828D01*
X115386086Y-100687743D01*
X115309104Y-100646836D01*
X115227943Y-100631926D01*
X115131041Y-100645200D01*
X115006834Y-100688844D01*
X114843760Y-100765043D01*
X114630256Y-100875985D01*
X114600453Y-100891668D01*
X114495839Y-100945639D01*
X114361154Y-101014238D01*
X114215256Y-101087955D01*
X114077002Y-101157284D01*
X113965250Y-101212716D01*
X113898856Y-101244744D01*
X113855210Y-101266074D01*
X113752797Y-101317078D01*
X113599053Y-101394056D01*
X113400679Y-101493641D01*
X113164379Y-101612465D01*
X112896856Y-101747159D01*
X112604811Y-101894356D01*
X112294947Y-102050688D01*
X112009431Y-102194776D01*
X111710528Y-102345554D01*
X111433554Y-102485203D01*
X111185588Y-102610157D01*
X110973712Y-102716848D01*
X110805006Y-102801711D01*
X110686551Y-102861178D01*
X110625426Y-102891684D01*
X110595996Y-102906317D01*
X110481947Y-102964888D01*
X110390909Y-103014149D01*
X110385344Y-103017287D01*
X110285847Y-103068849D01*
X110174432Y-103121116D01*
X110159448Y-103127789D01*
X110062448Y-103174011D01*
X109994034Y-103211265D01*
X109962000Y-103229222D01*
X109872112Y-103275552D01*
X109745022Y-103338824D01*
X109597159Y-103410778D01*
X109491968Y-103461821D01*
X109356958Y-103528619D01*
X109254253Y-103580980D01*
X109200284Y-103610630D01*
X109193386Y-103614902D01*
X109118110Y-103654587D01*
X109019886Y-103699835D01*
X109012824Y-103702896D01*
X108900276Y-103755799D01*
X108803409Y-103807370D01*
X108754874Y-103834315D01*
X108648178Y-103890755D01*
X108508154Y-103963110D01*
X108352415Y-104042208D01*
X108227670Y-104105290D01*
X108092468Y-104174345D01*
X107990534Y-104227195D01*
X107937500Y-104255795D01*
X107905193Y-104273202D01*
X107815270Y-104318975D01*
X107688294Y-104382138D01*
X107540625Y-104454500D01*
X107434812Y-104506248D01*
X107300077Y-104572959D01*
X107197603Y-104624682D01*
X107143750Y-104653225D01*
X107120137Y-104665966D01*
X107036748Y-104708590D01*
X106908445Y-104772930D01*
X106747574Y-104852810D01*
X106566477Y-104942053D01*
X106453706Y-104997584D01*
X106283527Y-105082021D01*
X106141152Y-105153442D01*
X106038928Y-105205638D01*
X105989204Y-105232397D01*
X105982463Y-105236413D01*
X105907174Y-105274815D01*
X105808807Y-105318890D01*
X105802223Y-105321675D01*
X105689460Y-105373935D01*
X105592329Y-105425646D01*
X105502414Y-105475729D01*
X105393892Y-105530785D01*
X105377708Y-105538514D01*
X105278276Y-105586848D01*
X105144995Y-105652470D01*
X104994298Y-105727193D01*
X104842619Y-105802826D01*
X104706391Y-105871181D01*
X104602048Y-105924069D01*
X104546023Y-105953299D01*
X104534392Y-105959439D01*
X104464934Y-105995069D01*
X104341257Y-106058008D01*
X104170429Y-106144673D01*
X103959518Y-106251486D01*
X103715591Y-106374865D01*
X103445716Y-106511231D01*
X103156960Y-106657002D01*
X103075742Y-106697993D01*
X102774281Y-106850278D01*
X102482489Y-106997883D01*
X102209493Y-107136178D01*
X101964424Y-107260531D01*
X101756410Y-107366311D01*
X101594580Y-107448887D01*
X101488064Y-107503627D01*
X101387802Y-107555018D01*
X101252994Y-107622281D01*
X101148542Y-107672191D01*
X101091189Y-107696608D01*
X101027239Y-107723225D01*
X100938068Y-107770560D01*
X100905472Y-107789669D01*
X100839730Y-107825812D01*
X100751587Y-107871065D01*
X100626767Y-107932678D01*
X100450994Y-108017900D01*
X100415903Y-108034969D01*
X100317881Y-108083933D01*
X100252557Y-108118401D01*
X100229970Y-108130586D01*
X100147926Y-108173402D01*
X100021208Y-108238766D01*
X99862133Y-108320335D01*
X99683019Y-108411763D01*
X99577688Y-108466171D01*
X99406938Y-108557747D01*
X99262923Y-108639181D01*
X99158305Y-108703219D01*
X99105746Y-108742604D01*
X99104659Y-108743856D01*
X99096900Y-108756758D01*
X99089777Y-108778145D01*
X99083243Y-108811202D01*
X99077251Y-108859113D01*
X99071753Y-108925061D01*
X99066703Y-109012229D01*
X99062054Y-109123802D01*
X99057757Y-109262962D01*
X99053767Y-109432894D01*
X99050035Y-109636781D01*
X99046515Y-109877807D01*
X99043160Y-110159154D01*
X99039921Y-110484008D01*
X99036754Y-110855552D01*
X99033609Y-111276968D01*
X99030658Y-111718708D01*
X99030439Y-111751441D01*
X99027199Y-112282155D01*
X99023840Y-112872293D01*
X99020315Y-113525038D01*
X99016578Y-114243574D01*
X99012580Y-115031086D01*
X99010946Y-115358543D01*
X99007152Y-116146611D01*
X99003915Y-116866303D01*
X99001238Y-117520339D01*
X98999130Y-118111436D01*
X98997595Y-118642313D01*
X98996639Y-119115688D01*
X98996268Y-119534280D01*
X95080152Y-119534280D01*
X95081250Y-119310502D01*
X95084301Y-118658772D01*
X95087562Y-117941273D01*
X95091083Y-117154812D01*
X95091883Y-116973779D01*
X95094691Y-116312621D01*
X95097230Y-115671722D01*
X95099494Y-115054789D01*
X95101476Y-114465529D01*
X95103170Y-113907650D01*
X95104568Y-113384859D01*
X95105664Y-112900862D01*
X95106451Y-112459366D01*
X95106921Y-112064079D01*
X95107069Y-111718708D01*
X95106886Y-111426960D01*
X95106367Y-111192542D01*
X95105505Y-111019160D01*
X95104292Y-110910523D01*
X95102722Y-110870337D01*
X95102076Y-110868628D01*
X95077772Y-110832921D01*
X95034790Y-110817848D01*
X94965724Y-110825802D01*
X94863167Y-110859170D01*
X94719712Y-110920344D01*
X94527954Y-111011714D01*
X94280486Y-111135668D01*
X94223581Y-111164549D01*
X94016175Y-111269614D01*
X93827477Y-111364906D01*
X93668889Y-111444686D01*
X93551811Y-111503216D01*
X93487642Y-111534757D01*
X93390285Y-111583953D01*
X93289204Y-111639980D01*
X93284413Y-111642805D01*
X93184719Y-111695328D01*
X93072727Y-111746770D01*
X93062029Y-111751305D01*
X92956910Y-111799132D01*
X92874290Y-111841639D01*
X92794488Y-111884301D01*
X92693892Y-111933285D01*
X92596929Y-111981157D01*
X92495454Y-112036855D01*
X92490671Y-112039675D01*
X92390976Y-112092189D01*
X92278977Y-112143610D01*
X92264670Y-112149680D01*
X92167298Y-112193848D01*
X92098579Y-112229440D01*
X92085920Y-112236336D01*
X92015004Y-112273082D01*
X91888749Y-112337630D01*
X91713290Y-112426872D01*
X91494761Y-112537698D01*
X91239298Y-112666999D01*
X90953033Y-112811665D01*
X90642103Y-112968586D01*
X90312642Y-113134655D01*
X90156068Y-113213543D01*
X89832570Y-113376622D01*
X89529418Y-113529560D01*
X89252911Y-113669173D01*
X89009353Y-113792273D01*
X88805043Y-113895676D01*
X88646284Y-113976194D01*
X88539378Y-114030643D01*
X88490625Y-114055835D01*
X88385424Y-114111327D01*
X88057670Y-114269117D01*
X88049860Y-114272626D01*
X87937651Y-114326522D01*
X87841193Y-114377934D01*
X87827255Y-114385590D01*
X87751355Y-114425205D01*
X87621336Y-114491867D01*
X87444528Y-114581857D01*
X87228264Y-114691456D01*
X86979876Y-114816947D01*
X86706694Y-114954610D01*
X86416051Y-115100728D01*
X86286756Y-115165682D01*
X86005299Y-115307273D01*
X85745872Y-115438044D01*
X85515555Y-115554411D01*
X85321428Y-115652788D01*
X85170571Y-115729589D01*
X85070064Y-115781231D01*
X85026988Y-115804126D01*
X85020233Y-115808104D01*
X84944945Y-115846236D01*
X84846591Y-115890197D01*
X84839989Y-115892990D01*
X84727234Y-115945170D01*
X84630113Y-115996705D01*
X84604257Y-116011345D01*
X84509337Y-116061753D01*
X84378915Y-116128513D01*
X84233238Y-116201193D01*
X84166494Y-116234198D01*
X84025292Y-116304906D01*
X83908508Y-116364533D01*
X83836363Y-116402808D01*
X83760129Y-116442737D01*
X83655966Y-116491123D01*
X83622403Y-116506576D01*
X83526728Y-116553123D01*
X83383838Y-116623992D01*
X83203746Y-116714183D01*
X82996468Y-116818694D01*
X82772017Y-116932525D01*
X82617218Y-117011467D01*
X82401735Y-117122770D01*
X82238199Y-117210131D01*
X82118569Y-117278539D01*
X82034803Y-117332989D01*
X81978859Y-117378471D01*
X81942696Y-117419977D01*
X81918273Y-117462500D01*
X81916368Y-117466677D01*
X81907030Y-117493500D01*
X81898587Y-117531814D01*
X81890941Y-117585660D01*
X81883995Y-117659085D01*
X81877650Y-117756133D01*
X81871808Y-117880848D01*
X81866371Y-118037275D01*
X81861242Y-118229458D01*
X81856323Y-118461442D01*
X81851515Y-118737271D01*
X81846720Y-119060990D01*
X81841841Y-119436643D01*
X81836780Y-119868275D01*
X81831438Y-120359930D01*
X81825718Y-120915653D01*
X81819522Y-121539489D01*
X81813838Y-122129195D01*
X81805751Y-123010019D01*
X81798537Y-123849588D01*
X81792202Y-124645842D01*
X81786754Y-125396722D01*
X81782198Y-126100167D01*
X81778542Y-126754118D01*
X81775791Y-127356514D01*
X81773952Y-127905297D01*
X81773031Y-128398406D01*
X77739586Y-128398406D01*
X77738783Y-127960379D01*
X77736684Y-126834487D01*
X77734499Y-125679920D01*
X77732232Y-124499213D01*
X77729888Y-123294902D01*
X77727472Y-122069522D01*
X77724987Y-120825609D01*
X77722439Y-119565698D01*
X77719832Y-118292325D01*
X77717171Y-117008025D01*
X77714460Y-115715332D01*
X77711703Y-114416784D01*
X77708905Y-113114915D01*
X77708571Y-112960320D01*
X77705800Y-111656781D01*
X77703111Y-110356159D01*
X77700506Y-109061017D01*
X77697990Y-107773921D01*
X77695566Y-106497434D01*
X77693237Y-105234123D01*
X77691007Y-103986550D01*
X77688878Y-102757282D01*
X77686855Y-101548881D01*
X77684940Y-100363913D01*
X77683138Y-99204943D01*
X77681451Y-98074534D01*
X77679884Y-96975251D01*
X77678438Y-95909660D01*
X77677118Y-94880323D01*
X77675928Y-93889807D01*
X77674870Y-92940675D01*
X77673948Y-92035492D01*
X77673359Y-91390017D01*
X81577166Y-91390017D01*
X81577274Y-92164644D01*
X81577544Y-92962616D01*
X81577971Y-93780951D01*
X81578551Y-94616663D01*
X81579278Y-95466769D01*
X81580150Y-96328283D01*
X81581160Y-97198223D01*
X81582306Y-98073603D01*
X81583582Y-98951440D01*
X81584983Y-99828750D01*
X81586506Y-100702547D01*
X81588145Y-101569849D01*
X81589897Y-102427671D01*
X81591757Y-103273029D01*
X81593721Y-104102938D01*
X81595783Y-104914414D01*
X81597940Y-105704474D01*
X81600186Y-106470133D01*
X81602519Y-107208406D01*
X81604932Y-107916311D01*
X81607422Y-108590861D01*
X81609984Y-109229074D01*
X81612613Y-109827966D01*
X81615306Y-110384551D01*
X81618058Y-110895846D01*
X81620863Y-111358866D01*
X81623718Y-111770628D01*
X81626619Y-112128148D01*
X81629560Y-112428440D01*
X81632538Y-112668521D01*
X81635548Y-112845407D01*
X81638584Y-112956114D01*
X81641644Y-112997656D01*
X81664389Y-113032702D01*
X81699920Y-113058282D01*
X81749979Y-113044996D01*
X81849135Y-113009242D01*
X81971251Y-112960553D01*
X82093678Y-112908316D01*
X82193766Y-112861919D01*
X82248863Y-112830751D01*
X82283117Y-112810521D01*
X82376974Y-112760215D01*
X82522887Y-112684118D01*
X82714198Y-112585639D01*
X82944250Y-112468187D01*
X83206387Y-112335173D01*
X83493950Y-112190007D01*
X83800284Y-112036097D01*
X84066593Y-111902551D01*
X84359733Y-111755413D01*
X84629506Y-111619861D01*
X84869051Y-111499347D01*
X85071511Y-111397326D01*
X85230026Y-111317251D01*
X85337737Y-111262577D01*
X85387784Y-111236756D01*
X85387914Y-111236685D01*
X85486030Y-111185855D01*
X85595241Y-111132184D01*
X85708820Y-111078171D01*
X85829758Y-111020657D01*
X85829972Y-111020555D01*
X85939193Y-110967029D01*
X86037216Y-110916614D01*
X86069385Y-110900005D01*
X86163860Y-110852169D01*
X86308761Y-110779280D01*
X86495850Y-110685468D01*
X86716886Y-110574863D01*
X86963629Y-110451597D01*
X87227841Y-110319798D01*
X87424504Y-110221675D01*
X87673223Y-110097305D01*
X87896851Y-109985172D01*
X88087486Y-109889253D01*
X88237223Y-109813528D01*
X88338158Y-109761977D01*
X88382386Y-109738577D01*
X88421657Y-109717046D01*
X88515934Y-109667956D01*
X88646371Y-109601393D01*
X88797301Y-109525406D01*
X88918322Y-109464427D01*
X89063567Y-109390062D01*
X89179442Y-109329402D01*
X89248295Y-109291598D01*
X89253937Y-109288296D01*
X89353415Y-109235193D01*
X89464773Y-109181901D01*
X89693900Y-109073836D01*
X89897727Y-108965158D01*
X89903241Y-108961995D01*
X90002751Y-108909825D01*
X90114204Y-108857293D01*
X90129091Y-108850655D01*
X90226145Y-108803949D01*
X90294602Y-108765730D01*
X90301360Y-108761427D01*
X90376648Y-108721258D01*
X90475000Y-108676114D01*
X90481840Y-108673185D01*
X90594488Y-108620691D01*
X90691477Y-108569241D01*
X90696946Y-108566048D01*
X90796468Y-108513219D01*
X90907954Y-108460383D01*
X90919460Y-108455270D01*
X91024173Y-108405765D01*
X91106392Y-108362459D01*
X91141432Y-108343717D01*
X91236629Y-108294645D01*
X91381922Y-108220600D01*
X91569363Y-108125609D01*
X91791003Y-108013697D01*
X92038895Y-107888893D01*
X92305089Y-107755221D01*
X92526728Y-107643829D01*
X92775861Y-107518022D01*
X92999030Y-107404680D01*
X93188517Y-107307755D01*
X93336600Y-107231199D01*
X93435559Y-107178964D01*
X93477675Y-107155001D01*
X93483499Y-107150835D01*
X93553688Y-107112808D01*
X93650000Y-107071339D01*
X93654657Y-107069535D01*
X93768284Y-107017861D01*
X93866477Y-106961787D01*
X93947361Y-106915175D01*
X94046875Y-106873154D01*
X94135636Y-106835377D01*
X94234697Y-106776901D01*
X94334803Y-106718345D01*
X94451174Y-106667621D01*
X94557848Y-106621059D01*
X94652902Y-106563198D01*
X94731307Y-106516502D01*
X94840807Y-106476239D01*
X94864047Y-106469174D01*
X94959862Y-106415081D01*
X95050203Y-106334305D01*
X95154567Y-106215441D01*
X95179717Y-103946570D01*
X95184358Y-103516899D01*
X95189404Y-103027684D01*
X99098340Y-103027684D01*
X99098560Y-103320506D01*
X99100984Y-103564727D01*
X99105994Y-103764347D01*
X99113972Y-103923365D01*
X99125301Y-104045779D01*
X99140363Y-104135589D01*
X99159540Y-104196794D01*
X99183214Y-104233392D01*
X99211768Y-104249382D01*
X99245584Y-104248764D01*
X99285045Y-104235536D01*
X99330531Y-104213697D01*
X99382427Y-104187247D01*
X99441113Y-104160184D01*
X99546991Y-104113467D01*
X99650671Y-104062408D01*
X99711363Y-104025904D01*
X99720710Y-104019805D01*
X99786841Y-103983194D01*
X99907688Y-103919529D01*
X100076101Y-103832473D01*
X100284927Y-103725689D01*
X100527018Y-103602841D01*
X100795221Y-103467590D01*
X101082386Y-103323602D01*
X101195393Y-103267082D01*
X101475944Y-103126644D01*
X101734785Y-102996902D01*
X101964776Y-102881447D01*
X102158775Y-102783868D01*
X102309641Y-102707756D01*
X102410233Y-102656701D01*
X102453409Y-102634295D01*
X102485745Y-102617205D01*
X102575671Y-102571829D01*
X102702635Y-102508944D01*
X102850284Y-102436693D01*
X102956114Y-102384951D01*
X103090841Y-102318303D01*
X103193309Y-102266680D01*
X103247159Y-102238260D01*
X103263703Y-102228987D01*
X103343828Y-102187273D01*
X103445596Y-102136934D01*
X103546225Y-102088272D01*
X103691779Y-102017268D01*
X103790637Y-101967822D01*
X103854880Y-101933834D01*
X103896591Y-101909203D01*
X103903501Y-101904962D01*
X103978775Y-101865492D01*
X104076988Y-101820336D01*
X104083906Y-101817335D01*
X104196519Y-101763804D01*
X104293466Y-101710854D01*
X104298174Y-101708007D01*
X104397888Y-101654534D01*
X104509943Y-101602697D01*
X104524241Y-101596631D01*
X104621617Y-101552412D01*
X104690341Y-101516718D01*
X104701824Y-101510390D01*
X104771122Y-101474366D01*
X104894717Y-101411162D01*
X105065531Y-101324366D01*
X105276486Y-101217563D01*
X105520502Y-101094340D01*
X105790500Y-100958284D01*
X106079403Y-100812979D01*
X106202733Y-100750980D01*
X106486937Y-100607883D01*
X106750614Y-100474818D01*
X106986434Y-100355502D01*
X107187067Y-100253653D01*
X107345183Y-100172991D01*
X107453452Y-100117231D01*
X107504545Y-100090093D01*
X107509743Y-100087120D01*
X107609334Y-100035373D01*
X107721023Y-99983642D01*
X107735519Y-99977323D01*
X107832787Y-99931341D01*
X107901420Y-99893362D01*
X107908078Y-99889125D01*
X107983374Y-99849154D01*
X108081818Y-99804406D01*
X108088402Y-99801620D01*
X108201165Y-99749361D01*
X108298295Y-99697650D01*
X108357011Y-99664142D01*
X108447329Y-99616818D01*
X108573039Y-99554879D01*
X108749290Y-99470702D01*
X108846833Y-99422764D01*
X108947727Y-99370205D01*
X108969969Y-99358469D01*
X109056702Y-99314051D01*
X109192143Y-99245500D01*
X109365802Y-99158104D01*
X109567189Y-99057146D01*
X109785811Y-98947915D01*
X109907803Y-98886420D01*
X110110523Y-98781187D01*
X110285813Y-98686342D01*
X110424294Y-98607151D01*
X110516589Y-98548881D01*
X110553320Y-98516802D01*
X110559630Y-98486180D01*
X110551081Y-98401774D01*
X110530559Y-98380177D01*
X110448562Y-98325881D01*
X110310160Y-98247713D01*
X110121153Y-98148685D01*
X109887344Y-98031808D01*
X109614533Y-97900096D01*
X109308523Y-97756560D01*
X109180662Y-97696598D01*
X109070389Y-97643515D01*
X109001846Y-97608929D01*
X108968879Y-97591300D01*
X108909103Y-97560533D01*
X108831177Y-97522063D01*
X108723297Y-97470177D01*
X108573657Y-97399158D01*
X108370454Y-97303294D01*
X108235961Y-97239632D01*
X108014348Y-97133900D01*
X107783740Y-97023113D01*
X107576704Y-96922881D01*
X107574140Y-96921633D01*
X107403750Y-96839179D01*
X107245475Y-96763429D01*
X107116876Y-96702735D01*
X107035511Y-96665449D01*
X107020518Y-96658795D01*
X106923522Y-96612957D01*
X106855113Y-96576320D01*
X106840949Y-96568255D01*
X106765134Y-96529729D01*
X106649337Y-96473960D01*
X106512358Y-96410068D01*
X106434038Y-96373785D01*
X106250364Y-96287311D01*
X106049567Y-96191417D01*
X105862926Y-96100990D01*
X105745751Y-96044047D01*
X105590702Y-95969778D01*
X105460814Y-95908766D01*
X105375852Y-95870367D01*
X105361265Y-95864046D01*
X105264047Y-95818956D01*
X105195454Y-95782570D01*
X105181354Y-95774549D01*
X105105561Y-95736148D01*
X104989734Y-95680585D01*
X104852699Y-95616955D01*
X104800902Y-95593125D01*
X104669483Y-95531291D01*
X104566221Y-95480779D01*
X104509943Y-95450721D01*
X104502849Y-95446392D01*
X104427591Y-95406738D01*
X104329545Y-95360985D01*
X104328914Y-95360707D01*
X104246794Y-95323173D01*
X104117594Y-95262498D01*
X103958915Y-95187006D01*
X103788352Y-95105020D01*
X103651842Y-95039151D01*
X103414888Y-94925121D01*
X103171965Y-94808511D01*
X102958523Y-94706352D01*
X102853069Y-94655964D01*
X102698749Y-94582030D01*
X102586638Y-94527874D01*
X102501800Y-94486196D01*
X102429296Y-94449699D01*
X102354190Y-94411085D01*
X102330413Y-94399022D01*
X102224879Y-94347579D01*
X102085097Y-94281181D01*
X101934613Y-94210863D01*
X101796978Y-94147656D01*
X101695738Y-94102593D01*
X101681114Y-94096242D01*
X101583916Y-94051082D01*
X101515341Y-94014672D01*
X101501237Y-94006650D01*
X101425443Y-93968242D01*
X101309618Y-93912668D01*
X101172585Y-93849026D01*
X101123380Y-93826438D01*
X100987483Y-93763175D01*
X100876877Y-93710459D01*
X100811790Y-93677883D01*
X100793081Y-93667756D01*
X100738981Y-93638968D01*
X100680787Y-93609225D01*
X100606264Y-93572566D01*
X100503176Y-93523029D01*
X100359286Y-93454653D01*
X100162358Y-93361477D01*
X100125089Y-93343836D01*
X99937140Y-93254257D01*
X99758613Y-93168262D01*
X99608145Y-93094868D01*
X99504372Y-93043094D01*
X99451275Y-93014800D01*
X99395218Y-92984592D01*
X99347710Y-92963516D01*
X99307987Y-92956419D01*
X99275285Y-92968148D01*
X99248839Y-93003550D01*
X99227885Y-93067474D01*
X99211659Y-93164765D01*
X99199395Y-93300271D01*
X99190330Y-93478840D01*
X99183699Y-93705318D01*
X99178738Y-93984553D01*
X99174683Y-94321392D01*
X99170768Y-94720682D01*
X99166230Y-95187271D01*
X99164509Y-95358271D01*
X99160542Y-95763854D01*
X99156144Y-96226545D01*
X99151406Y-96736170D01*
X99146419Y-97282550D01*
X99141274Y-97855512D01*
X99136062Y-98444878D01*
X99130874Y-99040473D01*
X99125802Y-99632121D01*
X99120935Y-100209646D01*
X99116366Y-100762871D01*
X99111854Y-101290414D01*
X99107081Y-101817627D01*
X99102983Y-102280244D01*
X99099942Y-102682263D01*
X99098340Y-103027684D01*
X95189404Y-103027684D01*
X95189512Y-103017247D01*
X95194850Y-102478637D01*
X95200330Y-101906625D01*
X95205906Y-101306768D01*
X95211536Y-100684619D01*
X95217174Y-100045736D01*
X95222776Y-99395674D01*
X95228300Y-98739988D01*
X95233699Y-98084234D01*
X95238931Y-97433968D01*
X95243950Y-96794746D01*
X95248714Y-96172122D01*
X95253177Y-95571654D01*
X95257296Y-94998896D01*
X95261027Y-94459403D01*
X95264324Y-93958733D01*
X95267146Y-93502440D01*
X95269446Y-93096080D01*
X95271181Y-92745209D01*
X95272307Y-92455382D01*
X95272779Y-92232155D01*
X95273579Y-91084907D01*
X95186481Y-91004187D01*
X95103760Y-90938000D01*
X95015103Y-90883687D01*
X94941639Y-90849269D01*
X94826704Y-90795710D01*
X94696307Y-90735134D01*
X94599510Y-90689913D01*
X94405742Y-90598396D01*
X94162227Y-90482551D01*
X93878051Y-90346744D01*
X93562301Y-90195339D01*
X93224063Y-90032702D01*
X92872426Y-89863199D01*
X92516475Y-89691196D01*
X92165299Y-89521057D01*
X91827983Y-89357149D01*
X91685216Y-89287856D01*
X91481620Y-89189667D01*
X91294522Y-89100120D01*
X91140025Y-89026912D01*
X91034233Y-88977740D01*
X91026018Y-88973998D01*
X90904722Y-88917861D01*
X90740767Y-88840907D01*
X90554622Y-88752783D01*
X90366761Y-88663140D01*
X90183410Y-88575330D01*
X89943577Y-88460625D01*
X89705510Y-88346904D01*
X89500852Y-88249288D01*
X89490148Y-88244187D01*
X89326577Y-88165784D01*
X89182495Y-88095949D01*
X89073148Y-88042118D01*
X89013778Y-88011725D01*
X88995814Y-88002079D01*
X88905097Y-87956480D01*
X88797301Y-87905229D01*
X88763429Y-87889324D01*
X88664701Y-87840084D01*
X88598863Y-87803101D01*
X88592003Y-87798778D01*
X88516724Y-87758701D01*
X88418466Y-87713330D01*
X88366922Y-87690755D01*
X88222268Y-87624817D01*
X88062358Y-87549424D01*
X87914278Y-87477453D01*
X87805113Y-87421777D01*
X87799202Y-87418631D01*
X87699793Y-87368913D01*
X87588636Y-87317128D01*
X87542490Y-87296429D01*
X87302122Y-87185421D01*
X87015357Y-87048155D01*
X86673674Y-86880566D01*
X86673249Y-86880356D01*
X86517677Y-86805134D01*
X86383496Y-86743542D01*
X86285020Y-86701930D01*
X86236565Y-86686648D01*
X86181385Y-86668195D01*
X86105221Y-86620263D01*
X86011620Y-86562562D01*
X85900322Y-86513345D01*
X85791449Y-86466553D01*
X85683845Y-86404593D01*
X85589312Y-86351454D01*
X85480183Y-86310675D01*
X85381344Y-86274273D01*
X85276176Y-86215215D01*
X85270231Y-86211018D01*
X85196179Y-86164573D01*
X85149933Y-86145455D01*
X85143295Y-86143874D01*
X85084277Y-86119945D01*
X84977086Y-86071691D01*
X84834283Y-86004856D01*
X84668429Y-85925187D01*
X84481014Y-85834363D01*
X84241391Y-85718748D01*
X84004056Y-85604689D01*
X83800284Y-85507243D01*
X83789493Y-85502100D01*
X83625948Y-85423813D01*
X83481894Y-85354251D01*
X83372569Y-85300810D01*
X83313210Y-85270883D01*
X83304821Y-85266390D01*
X83256354Y-85240760D01*
X83204680Y-85214410D01*
X83137397Y-85181306D01*
X83042105Y-85135411D01*
X82906406Y-85070688D01*
X82717898Y-84981103D01*
X82560335Y-84906127D01*
X82361683Y-84811274D01*
X82177062Y-84722804D01*
X82032067Y-84652963D01*
X81891464Y-84587467D01*
X81770504Y-84541033D01*
X81689568Y-84527859D01*
X81636478Y-84546308D01*
X81599053Y-84594741D01*
X81597978Y-84601360D01*
X81595125Y-84667697D01*
X81592501Y-84802143D01*
X81590101Y-85001713D01*
X81587921Y-85263423D01*
X81585957Y-85584290D01*
X81584203Y-85961328D01*
X81582655Y-86391554D01*
X81581310Y-86871984D01*
X81580161Y-87399632D01*
X81579206Y-87971516D01*
X81578439Y-88584651D01*
X81577856Y-89236053D01*
X81577453Y-89922737D01*
X81577224Y-90641720D01*
X81577166Y-91390017D01*
X77673359Y-91390017D01*
X77673165Y-91176823D01*
X77672525Y-90367232D01*
X77672031Y-89609283D01*
X77671686Y-88905542D01*
X77671495Y-88258572D01*
X77671459Y-87670939D01*
X77671584Y-87145206D01*
X77671871Y-86683938D01*
X77672325Y-86289700D01*
X77672949Y-85965057D01*
X77683934Y-81493542D01*
X84521875Y-81493542D01*
X84522030Y-81495136D01*
X84533958Y-81510372D01*
X84569832Y-81534524D01*
X84636602Y-81571094D01*
X84741223Y-81623585D01*
X84890645Y-81695500D01*
X85091822Y-81790342D01*
X85351704Y-81911612D01*
X85444411Y-81954814D01*
X85567590Y-82012772D01*
X85655481Y-82055386D01*
X85727409Y-82092118D01*
X85802699Y-82132429D01*
X85818802Y-82140821D01*
X85901922Y-82181453D01*
X86023561Y-82238912D01*
X86163494Y-82303601D01*
X86295310Y-82364027D01*
X86413498Y-82418843D01*
X86497459Y-82459043D01*
X86564650Y-82493023D01*
X86632528Y-82529180D01*
X86645080Y-82535732D01*
X86721322Y-82573602D01*
X86844175Y-82633313D01*
X86999641Y-82708091D01*
X87173721Y-82791160D01*
X87423673Y-82910076D01*
X87841401Y-83109403D01*
X88234243Y-83297742D01*
X88628346Y-83487644D01*
X89049858Y-83691659D01*
X89199065Y-83763906D01*
X89441320Y-83880866D01*
X89682836Y-83997117D01*
X89902232Y-84102370D01*
X90078125Y-84186340D01*
X90258385Y-84272116D01*
X90394342Y-84337084D01*
X90490750Y-84383670D01*
X90560683Y-84418259D01*
X90617220Y-84447234D01*
X90673437Y-84476981D01*
X90689691Y-84485361D01*
X90772845Y-84525947D01*
X90894417Y-84583580D01*
X91034233Y-84648660D01*
X91143857Y-84699506D01*
X91273097Y-84760112D01*
X91422308Y-84830773D01*
X91598977Y-84915071D01*
X91810590Y-85016590D01*
X92064636Y-85138915D01*
X92368601Y-85285628D01*
X92729971Y-85460314D01*
X92878910Y-85532260D01*
X93121223Y-85649016D01*
X93362816Y-85765118D01*
X93582288Y-85870285D01*
X93758238Y-85954238D01*
X93939694Y-86040583D01*
X94075413Y-86105441D01*
X94171611Y-86151933D01*
X94241336Y-86186431D01*
X94297634Y-86215304D01*
X94353551Y-86244925D01*
X94411464Y-86273893D01*
X94517908Y-86324450D01*
X94642187Y-86381697D01*
X94744254Y-86428510D01*
X94898570Y-86500689D01*
X95027797Y-86562613D01*
X95087103Y-86590921D01*
X95164053Y-86620333D01*
X95209363Y-86618794D01*
X95243825Y-86588828D01*
X95249207Y-86559468D01*
X95255859Y-86461799D01*
X95257727Y-86416103D01*
X99208765Y-86416103D01*
X99208852Y-86845536D01*
X99209534Y-87220416D01*
X99210818Y-87543225D01*
X99212710Y-87816442D01*
X99215218Y-88042548D01*
X99218347Y-88224024D01*
X99222104Y-88363350D01*
X99226498Y-88463006D01*
X99231533Y-88525473D01*
X99237217Y-88553231D01*
X99246200Y-88566987D01*
X99319660Y-88628591D01*
X99423744Y-88675590D01*
X99453123Y-88685113D01*
X99549338Y-88726418D01*
X99607971Y-88767061D01*
X99632370Y-88790374D01*
X99688402Y-88815341D01*
X99730824Y-88828266D01*
X99822857Y-88865731D01*
X99946349Y-88920044D01*
X100084115Y-88983453D01*
X100218971Y-89048203D01*
X100333736Y-89106541D01*
X100370657Y-89126125D01*
X100460014Y-89173450D01*
X100471841Y-89179498D01*
X100545231Y-89215503D01*
X100665535Y-89273544D01*
X100819078Y-89347044D01*
X100992187Y-89429425D01*
X100994377Y-89430465D01*
X101204666Y-89530584D01*
X101430701Y-89638723D01*
X101645484Y-89741938D01*
X101822017Y-89827283D01*
X101938784Y-89883707D01*
X102093995Y-89957820D01*
X102224035Y-90018927D01*
X102309091Y-90057656D01*
X102323985Y-90064220D01*
X102421035Y-90109765D01*
X102489488Y-90146165D01*
X102523944Y-90164793D01*
X102621006Y-90213277D01*
X102767471Y-90284398D01*
X102954075Y-90373728D01*
X103171554Y-90476839D01*
X103410642Y-90589300D01*
X103662074Y-90706684D01*
X103713450Y-90730642D01*
X103846758Y-90793401D01*
X103953359Y-90844418D01*
X104013849Y-90874438D01*
X104050770Y-90894023D01*
X104140128Y-90941347D01*
X104170163Y-90956421D01*
X104261723Y-91000923D01*
X104398897Y-91066847D01*
X104436684Y-91084907D01*
X104569937Y-91148595D01*
X104763097Y-91240565D01*
X104966627Y-91337159D01*
X105168782Y-91432775D01*
X105357812Y-91521814D01*
X105386071Y-91535123D01*
X105535840Y-91606233D01*
X105735955Y-91701881D01*
X105974778Y-91816465D01*
X106240672Y-91944380D01*
X106521997Y-92080022D01*
X106807117Y-92217789D01*
X107084393Y-92352076D01*
X107342187Y-92477280D01*
X107436078Y-92522858D01*
X107648438Y-92625317D01*
X107854991Y-92724216D01*
X108036072Y-92810161D01*
X108172017Y-92873755D01*
X108221610Y-92896712D01*
X108357350Y-92960295D01*
X108467808Y-93013079D01*
X108532812Y-93045463D01*
X108590050Y-93075824D01*
X108661905Y-93112783D01*
X108741677Y-93151826D01*
X108848585Y-93202300D01*
X109001846Y-93273549D01*
X109010699Y-93277655D01*
X109197967Y-93365561D01*
X109391689Y-93458184D01*
X109573874Y-93546779D01*
X109726533Y-93622601D01*
X109831676Y-93676905D01*
X109847786Y-93685257D01*
X109930907Y-93725780D01*
X110052544Y-93783161D01*
X110192471Y-93847819D01*
X110305087Y-93899422D01*
X110419647Y-93952493D01*
X110503613Y-93992646D01*
X110577420Y-94029714D01*
X110661506Y-94073531D01*
X110729916Y-94107475D01*
X110840117Y-94160117D01*
X110968182Y-94220025D01*
X111073612Y-94269487D01*
X111230465Y-94343961D01*
X111422499Y-94435703D01*
X111634720Y-94537551D01*
X111852131Y-94642340D01*
X112047212Y-94736490D01*
X112286581Y-94851800D01*
X112517873Y-94963015D01*
X112722131Y-95061021D01*
X112880398Y-95136701D01*
X112995751Y-95191761D01*
X113218289Y-95298205D01*
X113450007Y-95409260D01*
X113656108Y-95508257D01*
X113842994Y-95598064D01*
X114071075Y-95707497D01*
X114307075Y-95820596D01*
X114522017Y-95923465D01*
X114582823Y-95952556D01*
X114750550Y-96032976D01*
X114894020Y-96102015D01*
X114999611Y-96153109D01*
X115053701Y-96179691D01*
X115092814Y-96194889D01*
X115179979Y-96207618D01*
X115233450Y-96196325D01*
X115342217Y-96159100D01*
X115471891Y-96105844D01*
X115598095Y-96046734D01*
X115696454Y-95991949D01*
X115697530Y-95991258D01*
X115796102Y-95938816D01*
X115908737Y-95892453D01*
X115916862Y-95889608D01*
X116016700Y-95846479D01*
X116089134Y-95802224D01*
X116094800Y-95797676D01*
X116171694Y-95751316D01*
X116271875Y-95705890D01*
X116277111Y-95703847D01*
X116389205Y-95650750D01*
X116484198Y-95591709D01*
X116554278Y-95546312D01*
X116607765Y-95526137D01*
X116629585Y-95518274D01*
X116707585Y-95483304D01*
X116830636Y-95425416D01*
X116987395Y-95350178D01*
X117166522Y-95263157D01*
X117356674Y-95169922D01*
X117546510Y-95076041D01*
X117724687Y-94987081D01*
X117879864Y-94908611D01*
X118000700Y-94846198D01*
X118075852Y-94805411D01*
X118076983Y-94804781D01*
X118123192Y-94781183D01*
X118228480Y-94728384D01*
X118387728Y-94648927D01*
X118595818Y-94545354D01*
X118847630Y-94420208D01*
X119138046Y-94276032D01*
X119461948Y-94115368D01*
X119814217Y-93940758D01*
X120189734Y-93754745D01*
X120583381Y-93559872D01*
X120621197Y-93541155D01*
X121013369Y-93346959D01*
X121386926Y-93161799D01*
X121736749Y-92988222D01*
X122057717Y-92828778D01*
X122344712Y-92686014D01*
X122592614Y-92562480D01*
X122796305Y-92460724D01*
X122950663Y-92383294D01*
X123050571Y-92332739D01*
X123090909Y-92311608D01*
X123097939Y-92307342D01*
X123173202Y-92267947D01*
X123271307Y-92222514D01*
X123294279Y-92212234D01*
X123400374Y-92161972D01*
X123538982Y-92093711D01*
X123686221Y-92019157D01*
X123735102Y-91994110D01*
X123877859Y-91921737D01*
X124001317Y-91860202D01*
X124083096Y-91820694D01*
X124180408Y-91773872D01*
X124281534Y-91722182D01*
X124307545Y-91708535D01*
X124402480Y-91660194D01*
X124532836Y-91594917D01*
X124678409Y-91522852D01*
X124750271Y-91487345D01*
X124882040Y-91421491D01*
X124984228Y-91369440D01*
X125039204Y-91340122D01*
X125071450Y-91322815D01*
X125161364Y-91277211D01*
X125288366Y-91214255D01*
X125436079Y-91142118D01*
X125540963Y-91091104D01*
X125678140Y-91023895D01*
X125784106Y-90971394D01*
X125841974Y-90941930D01*
X125879111Y-90922066D01*
X125968253Y-90874987D01*
X125970443Y-90873846D01*
X126045493Y-90835655D01*
X126166342Y-90775039D01*
X126314921Y-90700970D01*
X126473159Y-90622418D01*
X126622988Y-90548354D01*
X126746339Y-90487748D01*
X126825142Y-90449572D01*
X126871989Y-90427202D01*
X126988447Y-90369404D01*
X127113778Y-90302805D01*
X127140071Y-90289095D01*
X127230051Y-90244033D01*
X127356767Y-90181805D01*
X127501633Y-90111575D01*
X127585428Y-90069735D01*
X127704798Y-90004045D01*
X127786830Y-89950773D01*
X127817329Y-89918596D01*
X127816641Y-89906470D01*
X127774471Y-89816380D01*
X127676874Y-89729847D01*
X127537773Y-89659763D01*
X127485695Y-89639227D01*
X127363359Y-89583112D01*
X127270567Y-89530478D01*
X127267758Y-89528559D01*
X127193067Y-89483444D01*
X127145325Y-89464773D01*
X127143144Y-89464481D01*
X127093533Y-89445564D01*
X126994305Y-89401415D01*
X126858686Y-89338070D01*
X126699900Y-89261561D01*
X126529645Y-89178820D01*
X126356503Y-89095490D01*
X126207745Y-89024696D01*
X126103551Y-88976098D01*
X126100873Y-88974876D01*
X125995855Y-88926305D01*
X125846006Y-88856192D01*
X125670922Y-88773736D01*
X125490199Y-88688137D01*
X125311013Y-88603228D01*
X125111621Y-88509175D01*
X124928728Y-88423307D01*
X124786648Y-88357066D01*
X124733988Y-88332646D01*
X124600906Y-88270435D01*
X124503740Y-88223691D01*
X124419860Y-88181362D01*
X124326633Y-88132393D01*
X124311415Y-88124632D01*
X124231956Y-88086327D01*
X124113273Y-88030677D01*
X123974858Y-87966853D01*
X123924084Y-87943569D01*
X123790527Y-87881745D01*
X123683697Y-87831487D01*
X123623082Y-87801932D01*
X123586299Y-87782749D01*
X123496804Y-87735984D01*
X123462935Y-87719057D01*
X123367144Y-87672842D01*
X123213604Y-87599756D01*
X123000400Y-87498893D01*
X122725622Y-87369347D01*
X122387358Y-87210212D01*
X122290293Y-87164437D01*
X122142922Y-87094726D01*
X121970031Y-87012799D01*
X121792045Y-86928329D01*
X121636285Y-86854578D01*
X121432964Y-86758847D01*
X121241489Y-86669214D01*
X121088494Y-86598177D01*
X121036354Y-86573999D01*
X120905081Y-86511849D01*
X120801948Y-86461233D01*
X120745738Y-86431298D01*
X120690858Y-86401041D01*
X120601420Y-86358801D01*
X120495127Y-86312011D01*
X120301725Y-86223522D01*
X120049450Y-86105189D01*
X119735511Y-85955712D01*
X119579242Y-85881204D01*
X119376089Y-85785020D01*
X119184806Y-85695109D01*
X119031960Y-85623998D01*
X118980914Y-85600391D01*
X118847469Y-85538050D01*
X118740743Y-85487308D01*
X118680185Y-85457380D01*
X118595134Y-85412633D01*
X118504853Y-85367152D01*
X118407808Y-85321581D01*
X118274290Y-85261591D01*
X118179045Y-85218318D01*
X118021282Y-85144934D01*
X117840822Y-85059687D01*
X117660937Y-84973507D01*
X117523109Y-84907148D01*
X117326215Y-84812923D01*
X117140755Y-84724744D01*
X116993466Y-84655355D01*
X116931936Y-84626587D01*
X116629625Y-84484783D01*
X116365735Y-84360211D01*
X116145688Y-84255463D01*
X115974907Y-84173133D01*
X115858817Y-84115813D01*
X115802841Y-84086097D01*
X115801612Y-84085331D01*
X115766469Y-84064728D01*
X115719211Y-84040472D01*
X115646352Y-84006219D01*
X115534405Y-83955620D01*
X115369886Y-83882330D01*
X115278439Y-83840783D01*
X115127235Y-83770378D01*
X114951876Y-83687465D01*
X114774574Y-83602484D01*
X114639206Y-83537401D01*
X114437509Y-83441268D01*
X114244817Y-83350268D01*
X114089062Y-83277637D01*
X114039477Y-83254689D01*
X113903734Y-83191117D01*
X113793273Y-83138340D01*
X113728267Y-83105958D01*
X113673306Y-83076885D01*
X113605494Y-83042369D01*
X113525857Y-83003948D01*
X113416426Y-82953001D01*
X113259233Y-82880906D01*
X113207427Y-82857066D01*
X113076013Y-82795222D01*
X112972753Y-82744702D01*
X112916477Y-82714641D01*
X112909574Y-82710433D01*
X112834299Y-82671146D01*
X112736079Y-82626114D01*
X112685377Y-82603843D01*
X112559201Y-82546393D01*
X112429403Y-82485354D01*
X112308595Y-82428227D01*
X112150938Y-82354876D01*
X111996449Y-82283985D01*
X111985906Y-82279189D01*
X111837825Y-82211374D01*
X111731664Y-82161353D01*
X111644767Y-82118211D01*
X111554474Y-82071029D01*
X111539145Y-82063198D01*
X111459655Y-82024698D01*
X111341023Y-81968724D01*
X111202699Y-81904486D01*
X111106636Y-81860099D01*
X110717496Y-81678447D01*
X110272301Y-81468043D01*
X109777557Y-81231958D01*
X109754025Y-81220686D01*
X109570372Y-81132896D01*
X109395296Y-81049504D01*
X109247620Y-80979459D01*
X109146165Y-80931711D01*
X109048964Y-80886079D01*
X108901613Y-80816477D01*
X108728774Y-80734549D01*
X108550852Y-80649951D01*
X108269998Y-80516295D01*
X107896781Y-80339081D01*
X107568090Y-80183509D01*
X107290751Y-80052807D01*
X107071591Y-79950204D01*
X106967184Y-79901282D01*
X106788934Y-79817063D01*
X106592318Y-79723581D01*
X106404119Y-79633543D01*
X106246371Y-79557859D01*
X105935658Y-79409257D01*
X105640763Y-79268821D01*
X105369880Y-79140419D01*
X105131202Y-79027918D01*
X104932924Y-78935188D01*
X104783239Y-78866095D01*
X104690341Y-78824509D01*
X104620802Y-78792227D01*
X104546023Y-78751971D01*
X104492436Y-78723565D01*
X104383357Y-78669625D01*
X104228781Y-78594920D01*
X104038702Y-78504220D01*
X103823115Y-78402293D01*
X103592015Y-78293909D01*
X103355398Y-78183838D01*
X103322689Y-78168648D01*
X103189113Y-78105805D01*
X103078689Y-78052648D01*
X103012642Y-78019361D01*
X102957103Y-77989491D01*
X102886743Y-77953095D01*
X102806873Y-77914184D01*
X102698744Y-77863692D01*
X102543608Y-77792552D01*
X102513749Y-77778899D01*
X102351940Y-77704666D01*
X102195498Y-77632553D01*
X102074574Y-77576452D01*
X102005739Y-77544533D01*
X101888854Y-77491182D01*
X101803977Y-77453486D01*
X101734412Y-77421326D01*
X101659659Y-77381538D01*
X101645545Y-77373592D01*
X101569747Y-77335378D01*
X101453927Y-77279942D01*
X101316903Y-77216355D01*
X101266178Y-77193089D01*
X101132600Y-77131155D01*
X101025753Y-77080684D01*
X100965128Y-77050846D01*
X100885237Y-77008977D01*
X100796554Y-76964499D01*
X100689827Y-76913568D01*
X100541193Y-76844573D01*
X100424443Y-76789904D01*
X100257553Y-76710479D01*
X100069793Y-76620191D01*
X99883871Y-76529912D01*
X99809634Y-76494145D01*
X99615079Y-76407635D01*
X99471151Y-76358253D01*
X99370185Y-76344623D01*
X99304514Y-76365371D01*
X99266473Y-76419120D01*
X99264227Y-76458111D01*
X99261686Y-76565716D01*
X99258944Y-76738013D01*
X99256028Y-76971214D01*
X99252968Y-77261528D01*
X99249792Y-77605169D01*
X99246528Y-77998347D01*
X99243206Y-78437275D01*
X99240912Y-78766422D01*
X99239854Y-78918163D01*
X99236500Y-79437223D01*
X99233174Y-79990668D01*
X99229903Y-80574707D01*
X99226717Y-81185554D01*
X99223644Y-81819419D01*
X99220713Y-82472514D01*
X99220359Y-82554999D01*
X99217018Y-83363836D01*
X99214231Y-84103238D01*
X99212006Y-84775685D01*
X99210348Y-85383658D01*
X99209266Y-85929637D01*
X99208765Y-86416103D01*
X95257727Y-86416103D01*
X95262430Y-86301019D01*
X95268891Y-86082140D01*
X95275211Y-85810170D01*
X95281360Y-85490120D01*
X95287307Y-85126999D01*
X95293023Y-84725817D01*
X95298476Y-84291584D01*
X95303636Y-83829309D01*
X95308474Y-83344002D01*
X95312958Y-82840674D01*
X95317058Y-82324333D01*
X95320745Y-81799989D01*
X95323987Y-81272653D01*
X95326754Y-80747334D01*
X95329015Y-80229041D01*
X95330742Y-79722785D01*
X95331902Y-79233576D01*
X95332466Y-78766422D01*
X95332403Y-78326334D01*
X95331684Y-77918321D01*
X95330277Y-77547394D01*
X95328152Y-77218561D01*
X95325279Y-76936834D01*
X95321627Y-76707220D01*
X95317167Y-76534731D01*
X95311867Y-76424376D01*
X95305698Y-76381165D01*
X95293296Y-76367991D01*
X95217289Y-76335437D01*
X95106903Y-76352823D01*
X94954181Y-76421052D01*
X94928941Y-76434287D01*
X94794998Y-76501455D01*
X94601001Y-76595446D01*
X94351494Y-76714096D01*
X94051019Y-76855240D01*
X93704119Y-77016713D01*
X93575645Y-77076662D01*
X93412439Y-77153423D01*
X93232386Y-77238539D01*
X93049178Y-77325500D01*
X92876504Y-77407793D01*
X92728055Y-77478907D01*
X92617521Y-77532331D01*
X92558594Y-77561553D01*
X92548259Y-77566958D01*
X92455836Y-77614628D01*
X92368937Y-77657516D01*
X92263789Y-77707093D01*
X92116619Y-77774831D01*
X91879517Y-77883611D01*
X91681795Y-77974959D01*
X91514535Y-78053206D01*
X91359804Y-78126812D01*
X91199668Y-78204238D01*
X91016193Y-78293943D01*
X90994541Y-78304544D01*
X90838180Y-78379822D01*
X90706586Y-78441030D01*
X90613027Y-78482119D01*
X90570768Y-78497040D01*
X90569617Y-78497066D01*
X90519589Y-78517328D01*
X90444490Y-78564017D01*
X90355097Y-78617062D01*
X90258523Y-78658139D01*
X90193002Y-78683400D01*
X90078300Y-78733668D01*
X89931261Y-78801432D01*
X89768161Y-78879349D01*
X89760617Y-78883014D01*
X89604766Y-78957262D01*
X89471984Y-79017930D01*
X89376128Y-79058853D01*
X89331052Y-79073864D01*
X89281053Y-79092778D01*
X89208062Y-79140776D01*
X89193975Y-79151026D01*
X89093537Y-79207147D01*
X88977699Y-79254023D01*
X88957523Y-79260827D01*
X88836950Y-79311587D01*
X88737612Y-79367508D01*
X88733998Y-79370029D01*
X88660276Y-79415761D01*
X88614025Y-79434659D01*
X88609254Y-79435444D01*
X88553571Y-79456213D01*
X88454891Y-79499485D01*
X88330958Y-79557556D01*
X88230014Y-79605989D01*
X88057471Y-79688380D01*
X87865098Y-79779914D01*
X87678835Y-79868234D01*
X87557196Y-79925832D01*
X87335834Y-80030810D01*
X87112644Y-80136812D01*
X86921165Y-80227919D01*
X86829692Y-80271405D01*
X86631269Y-80365251D01*
X86434755Y-80457666D01*
X86271733Y-80533776D01*
X86220400Y-80557654D01*
X86087074Y-80620187D01*
X85980457Y-80670913D01*
X85919957Y-80700625D01*
X85883232Y-80719760D01*
X85793679Y-80766421D01*
X85686266Y-80820486D01*
X85549884Y-80885788D01*
X85410776Y-80949823D01*
X85285831Y-81004982D01*
X85191934Y-81043656D01*
X85145973Y-81058239D01*
X85119735Y-81065959D01*
X85064709Y-81110381D01*
X85039453Y-81131589D01*
X84954976Y-81177564D01*
X84844271Y-81221367D01*
X84743514Y-81265708D01*
X84632833Y-81339708D01*
X84552728Y-81420909D01*
X84521875Y-81493542D01*
X77683934Y-81493542D01*
X77685048Y-81040199D01*
X77788681Y-80807020D01*
X77929503Y-80537939D01*
X78159508Y-80228870D01*
X78440115Y-79971218D01*
X78771172Y-79765146D01*
X78847878Y-79726634D01*
X79070598Y-79616924D01*
X79327751Y-79492492D01*
X79597165Y-79363948D01*
X79856669Y-79241899D01*
X80084091Y-79136955D01*
X80214141Y-79077419D01*
X80324508Y-79025548D01*
X80414335Y-78981042D01*
X80508025Y-78932109D01*
X80523363Y-78924273D01*
X80602855Y-78885758D01*
X80721484Y-78829760D01*
X80859801Y-78765491D01*
X80966869Y-78715766D01*
X81152160Y-78628806D01*
X81354307Y-78533153D01*
X81545312Y-78442017D01*
X81689950Y-78373022D01*
X81872252Y-78286979D01*
X82036268Y-78210494D01*
X82158665Y-78154505D01*
X82266557Y-78105389D01*
X82377023Y-78053576D01*
X82447301Y-78018788D01*
X82475648Y-78003715D01*
X82539012Y-77971003D01*
X82612155Y-77935204D01*
X82713687Y-77887330D01*
X82862216Y-77818393D01*
X82877874Y-77811135D01*
X83008492Y-77750024D01*
X83180366Y-77668958D01*
X83372968Y-77577642D01*
X83565767Y-77485783D01*
X83606122Y-77466510D01*
X83792428Y-77377747D01*
X83968153Y-77294337D01*
X84115131Y-77224887D01*
X84215199Y-77178008D01*
X84307733Y-77134970D01*
X84477223Y-77055717D01*
X84660675Y-76969538D01*
X84844868Y-76882682D01*
X85016582Y-76801401D01*
X85162597Y-76731944D01*
X85269691Y-76680562D01*
X85324645Y-76653504D01*
X85361428Y-76634268D01*
X85450923Y-76587557D01*
X85466157Y-76579895D01*
X85545620Y-76541850D01*
X85664296Y-76486385D01*
X85802699Y-76422636D01*
X85853433Y-76399360D01*
X85987007Y-76337415D01*
X86093851Y-76286936D01*
X86154474Y-76257096D01*
X86164743Y-76251650D01*
X86257232Y-76203346D01*
X86344144Y-76160124D01*
X86449282Y-76110440D01*
X86596449Y-76042749D01*
X86743524Y-75975102D01*
X86901694Y-75901689D01*
X87029403Y-75841757D01*
X87094365Y-75811271D01*
X87227492Y-75750192D01*
X87336079Y-75702011D01*
X87350741Y-75695649D01*
X87447918Y-75650705D01*
X87516477Y-75614715D01*
X87517205Y-75614273D01*
X87577235Y-75582519D01*
X87680511Y-75531911D01*
X87805113Y-75473194D01*
X87820478Y-75466076D01*
X87951060Y-75405140D01*
X88123000Y-75324386D01*
X88315726Y-75233493D01*
X88508665Y-75142142D01*
X88648850Y-75075641D01*
X88881650Y-74965360D01*
X89062046Y-74880190D01*
X89198494Y-74816170D01*
X89299447Y-74769344D01*
X89373362Y-74735754D01*
X89428693Y-74711441D01*
X89498285Y-74679407D01*
X89573011Y-74640103D01*
X89573748Y-74639663D01*
X89633784Y-74608137D01*
X89737055Y-74557695D01*
X89861648Y-74499046D01*
X89877175Y-74491851D01*
X90007777Y-74430825D01*
X90179681Y-74349903D01*
X90372338Y-74258780D01*
X90565199Y-74167149D01*
X90786123Y-74061937D01*
X91130289Y-73898155D01*
X91418171Y-73761358D01*
X91655402Y-73648885D01*
X91847616Y-73558078D01*
X92000447Y-73486279D01*
X92119529Y-73430829D01*
X92210494Y-73389068D01*
X92278977Y-73358338D01*
X92293839Y-73351691D01*
X92390906Y-73304613D01*
X92459375Y-73265761D01*
X92520660Y-73232326D01*
X92613637Y-73193418D01*
X92616549Y-73192372D01*
X92710052Y-73135530D01*
X92737257Y-73061474D01*
X92695245Y-72977916D01*
X92660137Y-72949389D01*
X92566286Y-72890400D01*
X92435617Y-72818051D01*
X92284974Y-72742025D01*
X92175547Y-72689122D01*
X92035360Y-72620688D01*
X91925785Y-72566421D01*
X91864062Y-72534808D01*
X91856962Y-72530964D01*
X91765293Y-72483027D01*
X91629895Y-72413975D01*
X91466206Y-72331493D01*
X91289659Y-72243272D01*
X91115693Y-72156998D01*
X90959743Y-72080360D01*
X90837245Y-72021045D01*
X90763636Y-71986742D01*
X90748861Y-71980209D01*
X90651746Y-71933900D01*
X90583238Y-71896047D01*
X90567348Y-71886341D01*
X90487111Y-71843475D01*
X90384801Y-71793919D01*
X90353671Y-71779366D01*
X90246912Y-71727088D01*
X90168324Y-71685303D01*
X90161681Y-71681506D01*
X90074579Y-71636932D01*
X89969886Y-71588994D01*
X89955256Y-71582635D01*
X89858061Y-71537430D01*
X89789488Y-71500966D01*
X89763169Y-71486136D01*
X89677677Y-71441486D01*
X89554518Y-71379204D01*
X89410653Y-71307930D01*
X89323837Y-71265209D01*
X89185783Y-71196741D01*
X89076400Y-71141832D01*
X89013778Y-71109523D01*
X88983857Y-71093883D01*
X88891687Y-71047250D01*
X88763339Y-70983303D01*
X88616903Y-70911086D01*
X88530215Y-70868344D01*
X88392107Y-70799400D01*
X88282676Y-70743717D01*
X88220028Y-70710446D01*
X88213354Y-70706693D01*
X88126258Y-70662584D01*
X88021591Y-70614846D01*
X88006973Y-70608492D01*
X87909772Y-70563220D01*
X87841193Y-70526622D01*
X87818471Y-70514528D01*
X87734898Y-70472041D01*
X87595766Y-70402144D01*
X87406407Y-70307491D01*
X87172152Y-70190736D01*
X86898335Y-70054533D01*
X86590285Y-69901535D01*
X86253335Y-69734397D01*
X85892817Y-69555772D01*
X85514062Y-69368314D01*
X85241920Y-69233659D01*
X84875662Y-69052319D01*
X84531446Y-68881761D01*
X84214604Y-68724634D01*
X83930466Y-68583586D01*
X83684363Y-68461264D01*
X83481628Y-68360318D01*
X83327590Y-68283396D01*
X83227581Y-68233147D01*
X83186932Y-68212218D01*
X83166714Y-68201218D01*
X83085897Y-68160163D01*
X82966450Y-68101278D01*
X82826136Y-68033368D01*
X82760438Y-68001723D01*
X82618820Y-67932705D01*
X82501639Y-67874548D01*
X82429261Y-67837315D01*
X82429150Y-67837255D01*
X82373322Y-67808489D01*
X82262290Y-67752507D01*
X82105503Y-67674026D01*
X81912412Y-67577766D01*
X81692465Y-67468448D01*
X81455113Y-67350789D01*
X81218746Y-67233638D01*
X80996344Y-67123153D01*
X80799870Y-67025294D01*
X80639014Y-66944896D01*
X80523469Y-66886792D01*
X80462926Y-66855818D01*
X80435404Y-66841352D01*
X80314664Y-66779107D01*
X80154195Y-66697503D01*
X79971328Y-66605238D01*
X79783393Y-66511011D01*
X79607723Y-66423519D01*
X79461648Y-66351461D01*
X79362500Y-66303536D01*
X79190168Y-66218313D01*
X78895403Y-66045656D01*
X78656870Y-65860641D01*
X78464011Y-65652825D01*
X78306271Y-65411768D01*
X78173093Y-65127025D01*
X78155852Y-65083693D01*
X78111072Y-64961940D01*
X78082538Y-64856770D01*
X78066658Y-64746005D01*
X78059845Y-64607464D01*
X78059044Y-64494421D01*
X84601907Y-64494421D01*
X84631754Y-64520107D01*
X84723914Y-64576529D01*
X84875420Y-64661206D01*
X85083317Y-64772580D01*
X85344649Y-64909090D01*
X85656461Y-65069175D01*
X86015798Y-65251277D01*
X86419703Y-65453835D01*
X86780415Y-65633912D01*
X87133353Y-65810111D01*
X87431145Y-65958771D01*
X87678802Y-66082375D01*
X87881331Y-66183408D01*
X88043744Y-66264357D01*
X88171048Y-66327706D01*
X88268254Y-66375939D01*
X88340370Y-66411543D01*
X88392405Y-66437002D01*
X88429370Y-66454800D01*
X88456273Y-66467424D01*
X88478124Y-66477359D01*
X88499931Y-66487088D01*
X88526704Y-66499098D01*
X88534706Y-66502738D01*
X88646828Y-66557280D01*
X88743182Y-66609300D01*
X88768407Y-66623422D01*
X88863263Y-66672819D01*
X88993956Y-66738084D01*
X89140057Y-66808940D01*
X89208180Y-66841630D01*
X89345203Y-66908258D01*
X89455129Y-66962857D01*
X89518892Y-66996012D01*
X89598606Y-67037572D01*
X89699290Y-67085697D01*
X89796184Y-67132551D01*
X89897727Y-67186658D01*
X89903263Y-67189811D01*
X90002768Y-67241712D01*
X90114204Y-67294127D01*
X90129091Y-67300766D01*
X90226145Y-67347472D01*
X90294602Y-67385691D01*
X90301360Y-67389993D01*
X90376648Y-67430163D01*
X90475000Y-67475306D01*
X90481991Y-67478297D01*
X90594571Y-67530134D01*
X90691477Y-67580142D01*
X90717141Y-67594147D01*
X90812042Y-67643254D01*
X90942547Y-67708769D01*
X91088352Y-67780447D01*
X91157226Y-67814081D01*
X91293938Y-67881660D01*
X91403581Y-67936921D01*
X91467187Y-67970358D01*
X91485112Y-67980163D01*
X91575839Y-68026262D01*
X91683665Y-68077726D01*
X91717537Y-68093631D01*
X91816264Y-68142871D01*
X91882102Y-68179854D01*
X91889215Y-68184341D01*
X91964471Y-68224900D01*
X92062500Y-68271223D01*
X92080094Y-68279247D01*
X92166971Y-68320703D01*
X92299843Y-68385438D01*
X92466403Y-68467329D01*
X92654343Y-68560257D01*
X92851357Y-68658102D01*
X93045136Y-68754743D01*
X93223373Y-68844059D01*
X93373761Y-68919930D01*
X93483993Y-68976236D01*
X93541761Y-69006856D01*
X93568996Y-69020984D01*
X93656906Y-69065374D01*
X93798889Y-69136564D01*
X93989015Y-69231596D01*
X94221356Y-69347512D01*
X94489980Y-69481354D01*
X94788958Y-69630164D01*
X95112360Y-69790983D01*
X95454255Y-69960855D01*
X95756373Y-70110782D01*
X96118138Y-70289690D01*
X96424613Y-70440051D01*
X96681119Y-70564075D01*
X96892974Y-70663969D01*
X97065499Y-70741943D01*
X97204013Y-70800204D01*
X97313834Y-70840962D01*
X97400284Y-70866425D01*
X97468681Y-70878800D01*
X97524344Y-70880298D01*
X97572594Y-70873126D01*
X97618750Y-70859492D01*
X97624840Y-70857253D01*
X97671272Y-70837477D01*
X97755345Y-70799147D01*
X97881609Y-70740114D01*
X98054614Y-70658225D01*
X98278910Y-70551330D01*
X98559047Y-70417278D01*
X98899574Y-70253917D01*
X99039577Y-70186934D01*
X99231701Y-70095629D01*
X99410043Y-70011493D01*
X99549006Y-69946637D01*
X99559576Y-69941751D01*
X99708838Y-69872348D01*
X99815768Y-69821383D01*
X99902454Y-69778120D01*
X99990980Y-69731825D01*
X100006195Y-69724066D01*
X100085654Y-69685767D01*
X100204338Y-69630126D01*
X100342756Y-69566316D01*
X100394600Y-69542467D01*
X100525999Y-69480743D01*
X100629243Y-69430445D01*
X100685511Y-69400669D01*
X100692419Y-69396529D01*
X100767694Y-69357669D01*
X100865909Y-69312872D01*
X100922347Y-69287612D01*
X101041915Y-69231852D01*
X101192049Y-69160279D01*
X101352983Y-69082249D01*
X101446095Y-69036882D01*
X101644051Y-68941283D01*
X101839927Y-68847615D01*
X102002415Y-68770888D01*
X102088023Y-68730640D01*
X102253647Y-68652133D01*
X102453845Y-68556725D01*
X102670716Y-68452953D01*
X102886363Y-68349351D01*
X103021028Y-68284565D01*
X103255213Y-68172124D01*
X103487124Y-68061013D01*
X103695859Y-67961244D01*
X103860511Y-67882828D01*
X103988521Y-67822012D01*
X104160207Y-67740339D01*
X104311399Y-67668302D01*
X104419744Y-67616545D01*
X104485020Y-67585614D01*
X104617985Y-67524164D01*
X104726420Y-67475875D01*
X104740999Y-67469541D01*
X104838222Y-67424178D01*
X104906818Y-67387348D01*
X104921018Y-67379145D01*
X104996844Y-67340265D01*
X105112625Y-67284155D01*
X105249574Y-67219988D01*
X105349435Y-67173641D01*
X105510617Y-67098130D01*
X105693859Y-67011733D01*
X105884596Y-66921368D01*
X106068263Y-66833957D01*
X106230293Y-66756418D01*
X106356120Y-66695673D01*
X106431179Y-66658639D01*
X106467703Y-66640002D01*
X106557457Y-66594202D01*
X106560283Y-66592768D01*
X106627700Y-66559668D01*
X106751270Y-66499957D01*
X106922651Y-66417629D01*
X107133502Y-66316678D01*
X107375482Y-66201098D01*
X107640248Y-66074883D01*
X107919460Y-65942028D01*
X107978145Y-65914094D01*
X108147625Y-65833009D01*
X108293868Y-65762453D01*
X108402876Y-65709202D01*
X108460653Y-65680033D01*
X108515878Y-65650502D01*
X108581832Y-65616756D01*
X108661146Y-65578430D01*
X108771279Y-65527128D01*
X108929687Y-65454454D01*
X109043362Y-65402356D01*
X109161329Y-65347664D01*
X109246873Y-65306672D01*
X109319501Y-65269966D01*
X109398721Y-65228133D01*
X109415055Y-65219703D01*
X109498228Y-65178987D01*
X109619764Y-65121138D01*
X109759517Y-65055781D01*
X109851713Y-65012824D01*
X110036265Y-64926120D01*
X110237912Y-64830725D01*
X110426988Y-64740646D01*
X110551070Y-64681430D01*
X110732229Y-64595477D01*
X110897495Y-64517594D01*
X111022301Y-64459386D01*
X111106392Y-64420093D01*
X111253065Y-64350738D01*
X111436453Y-64263468D01*
X111641245Y-64165570D01*
X111852131Y-64064335D01*
X112009478Y-63988631D01*
X112242480Y-63876534D01*
X112469373Y-63767383D01*
X112670518Y-63670624D01*
X112826278Y-63595704D01*
X112828080Y-63594838D01*
X113005198Y-63509893D01*
X113220231Y-63407118D01*
X113446195Y-63299392D01*
X113656108Y-63199596D01*
X113714676Y-63171765D01*
X113884193Y-63090796D01*
X114030473Y-63020330D01*
X114139510Y-62967138D01*
X114197301Y-62937987D01*
X114253413Y-62907987D01*
X114317823Y-62874990D01*
X114396778Y-62836571D01*
X114507282Y-62784483D01*
X114666335Y-62710480D01*
X114757868Y-62667876D01*
X114942556Y-62581486D01*
X115144464Y-62486648D01*
X115333807Y-62397334D01*
X115454689Y-62340267D01*
X115640910Y-62252706D01*
X115813691Y-62171831D01*
X115947159Y-62109775D01*
X116004215Y-62083385D01*
X116133985Y-62022918D01*
X116224018Y-61979816D01*
X116293614Y-61944701D01*
X116362074Y-61908196D01*
X116378177Y-61899805D01*
X116461297Y-61859172D01*
X116582936Y-61801713D01*
X116722869Y-61737024D01*
X116806606Y-61698661D01*
X116933012Y-61640148D01*
X117026390Y-61595503D01*
X117108456Y-61554226D01*
X117200923Y-61505812D01*
X117212779Y-61499746D01*
X117286187Y-61463692D01*
X117406488Y-61405571D01*
X117560013Y-61331967D01*
X117733096Y-61249465D01*
X117939293Y-61151357D01*
X118180224Y-61036560D01*
X118416176Y-60923994D01*
X118617045Y-60828013D01*
X118781483Y-60749493D01*
X118964987Y-60662169D01*
X119128080Y-60584851D01*
X119248437Y-60528142D01*
X119325246Y-60492009D01*
X119481202Y-60418071D01*
X119665349Y-60330269D01*
X119866023Y-60234219D01*
X120071556Y-60135533D01*
X120270281Y-60039824D01*
X120450532Y-59952706D01*
X120600643Y-59879792D01*
X120708947Y-59826695D01*
X120763778Y-59799030D01*
X120802763Y-59778154D01*
X120864879Y-59746191D01*
X120939394Y-59710064D01*
X121044086Y-59661237D01*
X121196733Y-59591177D01*
X121298223Y-59544287D01*
X121469549Y-59464105D01*
X121660729Y-59373791D01*
X121846165Y-59285399D01*
X121986057Y-59218575D01*
X122178219Y-59127371D01*
X122356602Y-59043296D01*
X122495596Y-58978456D01*
X122598121Y-58931007D01*
X122718574Y-58874804D01*
X122802070Y-58834845D01*
X122866199Y-58802651D01*
X122928551Y-58769742D01*
X122947858Y-58759722D01*
X123030189Y-58718931D01*
X123166744Y-58652784D01*
X123359741Y-58560219D01*
X123611399Y-58440173D01*
X123923937Y-58291584D01*
X124299574Y-58113391D01*
X124342057Y-58093226D01*
X124525964Y-58005350D01*
X124697087Y-57922723D01*
X124837922Y-57853832D01*
X124930966Y-57807169D01*
X124983400Y-57780962D01*
X125097380Y-57729066D01*
X125183523Y-57696244D01*
X125264926Y-57663129D01*
X125363920Y-57606809D01*
X125365841Y-57605490D01*
X125466220Y-57549920D01*
X125580398Y-57503238D01*
X125654139Y-57468515D01*
X125749830Y-57407294D01*
X125842856Y-57336323D01*
X125913287Y-57270901D01*
X125941193Y-57226323D01*
X125925946Y-57209570D01*
X125860729Y-57161728D01*
X125757017Y-57093624D01*
X125628832Y-57014374D01*
X125490199Y-56933097D01*
X125448573Y-56909336D01*
X125314174Y-56832172D01*
X125183523Y-56756666D01*
X125136336Y-56729315D01*
X124990698Y-56645218D01*
X124853267Y-56566220D01*
X124820910Y-56547790D01*
X124698426Y-56479004D01*
X124542073Y-56392144D01*
X124365698Y-56294802D01*
X124183150Y-56194570D01*
X124008277Y-56099038D01*
X123854926Y-56015798D01*
X123736945Y-55952441D01*
X123668182Y-55916560D01*
X123599101Y-55880543D01*
X123486675Y-55819556D01*
X123361506Y-55749992D01*
X123335101Y-55735295D01*
X123203323Y-55664598D01*
X123028780Y-55573881D01*
X122819714Y-55467190D01*
X122584371Y-55348566D01*
X122330993Y-55222053D01*
X122067826Y-55091692D01*
X121803113Y-54961528D01*
X121545099Y-54835602D01*
X121302026Y-54717957D01*
X121082140Y-54612637D01*
X120893684Y-54523684D01*
X120744903Y-54455141D01*
X120644040Y-54411050D01*
X120599340Y-54395455D01*
X120573030Y-54389685D01*
X120492993Y-54358396D01*
X120389826Y-54309016D01*
X120338115Y-54282527D01*
X120165157Y-54197027D01*
X120000079Y-54119600D01*
X119856936Y-54056511D01*
X119749786Y-54014021D01*
X119692685Y-53998395D01*
X119672586Y-53994466D01*
X119597016Y-53962639D01*
X119500994Y-53909322D01*
X119457424Y-53883833D01*
X119364342Y-53837934D01*
X119302557Y-53819172D01*
X119248861Y-53804886D01*
X119150647Y-53765475D01*
X119031960Y-53709943D01*
X118920004Y-53657374D01*
X118820981Y-53617244D01*
X118763735Y-53601840D01*
X118745448Y-53599445D01*
X118666173Y-53574734D01*
X118565297Y-53531918D01*
X118503099Y-53503746D01*
X118362118Y-53445129D01*
X118220170Y-53391134D01*
X118212535Y-53388401D01*
X117927802Y-53284911D01*
X117706925Y-53201069D01*
X117545027Y-53134968D01*
X117437232Y-53084697D01*
X117427552Y-53079751D01*
X117333161Y-53040521D01*
X117261346Y-53024432D01*
X117214528Y-53015677D01*
X117116294Y-52984154D01*
X116997977Y-52937580D01*
X116912029Y-52901881D01*
X116760857Y-52842768D01*
X116632670Y-52796649D01*
X116541660Y-52766132D01*
X116428082Y-52727504D01*
X116288453Y-52679443D01*
X116108763Y-52617123D01*
X115875000Y-52535720D01*
X115802898Y-52511172D01*
X115637824Y-52457170D01*
X115447968Y-52397024D01*
X115261648Y-52339779D01*
X115146894Y-52304953D01*
X114974285Y-52251757D01*
X114824399Y-52204655D01*
X114720454Y-52170893D01*
X114611952Y-52135605D01*
X114413431Y-52074487D01*
X114186636Y-52007536D01*
X113956087Y-51941952D01*
X113746307Y-51884933D01*
X113606703Y-51846335D01*
X113421424Y-51791789D01*
X113249894Y-51738304D01*
X113234795Y-51733451D01*
X113097356Y-51692823D01*
X112980148Y-51663892D01*
X112907138Y-51652648D01*
X112904202Y-51652569D01*
X112827488Y-51639021D01*
X112709216Y-51606843D01*
X112573721Y-51562607D01*
X112405987Y-51508809D01*
X112256446Y-51478945D01*
X112117185Y-51478613D01*
X111970249Y-51509851D01*
X111797683Y-51574697D01*
X111581534Y-51675186D01*
X111549417Y-51690843D01*
X111303499Y-51809990D01*
X111084002Y-51915059D01*
X110900477Y-52001544D01*
X110762474Y-52064938D01*
X110679545Y-52100736D01*
X110651789Y-52112684D01*
X110571307Y-52154531D01*
X110570596Y-52154956D01*
X110510580Y-52186411D01*
X110407295Y-52236732D01*
X110282670Y-52295229D01*
X110172190Y-52346660D01*
X110005904Y-52424902D01*
X109818480Y-52513714D01*
X109633238Y-52602076D01*
X109472425Y-52678721D01*
X109279143Y-52770058D01*
X109102138Y-52852944D01*
X108965767Y-52915926D01*
X108826467Y-52979567D01*
X108588874Y-53088830D01*
X108395869Y-53178600D01*
X108254550Y-53245566D01*
X108172017Y-53286413D01*
X108109687Y-53318999D01*
X108035052Y-53356972D01*
X107956013Y-53395262D01*
X107852135Y-53443701D01*
X107702983Y-53512124D01*
X107653728Y-53534731D01*
X107517851Y-53597885D01*
X107407264Y-53650387D01*
X107342187Y-53682678D01*
X107247388Y-53731711D01*
X107099540Y-53805065D01*
X106928731Y-53887565D01*
X106749574Y-53972370D01*
X106576684Y-54052638D01*
X106424676Y-54121529D01*
X106308164Y-54172201D01*
X106241761Y-54197814D01*
X106160230Y-54230856D01*
X106061363Y-54287216D01*
X105979858Y-54335048D01*
X105880966Y-54376926D01*
X105846709Y-54388797D01*
X105743251Y-54432426D01*
X105628409Y-54487919D01*
X105546733Y-54529013D01*
X105408145Y-54596843D01*
X105242152Y-54676781D01*
X105069176Y-54758931D01*
X104934853Y-54822316D01*
X104705295Y-54930883D01*
X104468073Y-55043303D01*
X104257386Y-55143379D01*
X104232973Y-55154993D01*
X104005899Y-55262826D01*
X103803775Y-55358345D01*
X103603978Y-55452178D01*
X103383887Y-55554952D01*
X103120881Y-55677295D01*
X103028818Y-55720252D01*
X102844238Y-55807001D01*
X102642539Y-55902371D01*
X102453409Y-55992346D01*
X102329464Y-56051399D01*
X102148257Y-56137295D01*
X101982940Y-56215199D01*
X101858096Y-56273499D01*
X101751931Y-56323031D01*
X101592036Y-56398269D01*
X101409514Y-56484614D01*
X101226704Y-56571524D01*
X101081465Y-56640618D01*
X100858690Y-56746188D01*
X100638040Y-56850358D01*
X100450994Y-56938245D01*
X100336058Y-56992289D01*
X100121385Y-57094015D01*
X99896059Y-57201540D01*
X99693324Y-57299034D01*
X99557864Y-57364202D01*
X99356196Y-57460316D01*
X99163539Y-57551231D01*
X99007812Y-57623724D01*
X98970670Y-57640831D01*
X98817292Y-57711792D01*
X98676522Y-57777359D01*
X98574858Y-57825202D01*
X98552249Y-57835895D01*
X98422513Y-57895610D01*
X98304261Y-57947918D01*
X98289664Y-57954227D01*
X98192452Y-57999052D01*
X98123863Y-58035002D01*
X98123161Y-58035428D01*
X98063153Y-58067127D01*
X97959862Y-58117626D01*
X97835227Y-58176194D01*
X97724747Y-58227625D01*
X97558461Y-58305868D01*
X97371036Y-58394680D01*
X97185795Y-58483042D01*
X97025000Y-58559695D01*
X96831712Y-58651092D01*
X96654700Y-58734067D01*
X96518324Y-58797159D01*
X96414983Y-58845091D01*
X96243785Y-58926036D01*
X96052963Y-59017511D01*
X95867855Y-59107426D01*
X95862072Y-59110256D01*
X95706337Y-59184925D01*
X95573227Y-59245968D01*
X95476708Y-59287159D01*
X95430747Y-59302273D01*
X95379311Y-59321119D01*
X95305505Y-59369185D01*
X95291484Y-59379386D01*
X95191029Y-59435379D01*
X95075142Y-59481985D01*
X95048020Y-59491148D01*
X94943740Y-59535407D01*
X94871952Y-59579161D01*
X94861766Y-59587129D01*
X94779440Y-59631085D01*
X94673514Y-59668893D01*
X94659797Y-59672860D01*
X94539381Y-59719437D01*
X94438180Y-59775401D01*
X94434187Y-59778223D01*
X94360685Y-59824397D01*
X94314593Y-59843466D01*
X94302031Y-59846523D01*
X94233995Y-59873410D01*
X94123367Y-59922218D01*
X93985389Y-59985853D01*
X93835306Y-60057219D01*
X93688362Y-60129223D01*
X93559801Y-60194768D01*
X93544979Y-60202503D01*
X93407523Y-60271762D01*
X93241382Y-60352279D01*
X93062127Y-60436866D01*
X92885331Y-60518338D01*
X92726563Y-60589507D01*
X92601396Y-60643186D01*
X92525400Y-60672188D01*
X92507906Y-60677915D01*
X92411646Y-60720462D01*
X92349605Y-60765340D01*
X92321256Y-60792688D01*
X92268231Y-60817614D01*
X92258852Y-60819235D01*
X92193464Y-60842618D01*
X92086894Y-60887986D01*
X91956953Y-60947886D01*
X91952452Y-60950031D01*
X91783528Y-61030016D01*
X91602983Y-61114723D01*
X91449148Y-61186165D01*
X91446191Y-61187527D01*
X91321798Y-61245891D01*
X91219258Y-61295849D01*
X91160511Y-61326719D01*
X91132798Y-61342378D01*
X91052273Y-61380948D01*
X91000122Y-61404256D01*
X90897652Y-61451910D01*
X90759760Y-61516931D01*
X90601278Y-61592366D01*
X90518442Y-61631923D01*
X90265147Y-61752238D01*
X90006490Y-61874013D01*
X89722352Y-62006694D01*
X89392613Y-62159723D01*
X89389468Y-62161181D01*
X89265148Y-62219810D01*
X89162683Y-62269954D01*
X89103977Y-62300899D01*
X89049045Y-62330402D01*
X88959659Y-62372165D01*
X88939915Y-62380716D01*
X88813221Y-62437443D01*
X88632607Y-62520338D01*
X88407154Y-62625162D01*
X88145940Y-62747678D01*
X87858048Y-62883649D01*
X87552557Y-63028836D01*
X87388071Y-63106861D01*
X87204585Y-63193119D01*
X87041510Y-63269018D01*
X86921165Y-63324121D01*
X86812950Y-63373379D01*
X86706586Y-63422912D01*
X86641548Y-63454556D01*
X86550881Y-63501419D01*
X86462526Y-63545460D01*
X86360026Y-63594341D01*
X86217613Y-63660584D01*
X86068462Y-63730315D01*
X85849292Y-63834041D01*
X85569409Y-63967430D01*
X85230944Y-64129467D01*
X84836026Y-64319136D01*
X84705221Y-64387811D01*
X84623078Y-64447797D01*
X84601907Y-64494421D01*
X78059044Y-64494421D01*
X78058509Y-64418969D01*
X78058752Y-64335216D01*
X78061869Y-64172157D01*
X78071429Y-64051589D01*
X78090993Y-63952462D01*
X78124125Y-63853726D01*
X78174388Y-63734331D01*
X78215648Y-63643891D01*
X78363196Y-63375491D01*
X78535183Y-63149141D01*
X78743494Y-62953084D01*
X79000019Y-62775568D01*
X79316644Y-62604837D01*
X79420034Y-62554374D01*
X79552214Y-62490068D01*
X79671757Y-62432331D01*
X79791667Y-62374985D01*
X79924950Y-62311849D01*
X80084610Y-62236745D01*
X80283653Y-62143493D01*
X80535085Y-62025915D01*
X80649870Y-61972029D01*
X80864579Y-61870474D01*
X81089964Y-61763141D01*
X81292756Y-61665842D01*
X81428036Y-61600891D01*
X81629761Y-61504873D01*
X81822486Y-61413968D01*
X81978267Y-61341404D01*
X82003858Y-61329609D01*
X82108723Y-61281238D01*
X82204693Y-61236844D01*
X82299175Y-61192933D01*
X82399579Y-61146013D01*
X82513312Y-61092594D01*
X82647782Y-61029182D01*
X82810398Y-60952285D01*
X83008568Y-60858411D01*
X83249700Y-60744069D01*
X83541202Y-60605765D01*
X83890483Y-60440008D01*
X84072224Y-60353823D01*
X84299571Y-60246312D01*
X84475332Y-60163681D01*
X84607640Y-60102130D01*
X84704628Y-60057858D01*
X84774432Y-60027066D01*
X84844024Y-59995032D01*
X84918750Y-59955728D01*
X84919398Y-59955340D01*
X84979362Y-59924001D01*
X85082683Y-59873934D01*
X85207386Y-59815792D01*
X85330119Y-59758879D01*
X85498184Y-59679896D01*
X85687186Y-59590331D01*
X85874858Y-59500695D01*
X85971147Y-59454538D01*
X86170439Y-59359452D01*
X86351244Y-59274047D01*
X86534620Y-59188470D01*
X86741627Y-59092868D01*
X86993324Y-58977388D01*
X87014294Y-58967781D01*
X87153129Y-58903784D01*
X87253414Y-58856325D01*
X87339390Y-58813714D01*
X87435298Y-58764261D01*
X87450532Y-58756600D01*
X87529995Y-58718555D01*
X87648671Y-58663089D01*
X87787074Y-58599340D01*
X87837808Y-58576065D01*
X87971382Y-58514120D01*
X88078226Y-58463641D01*
X88138849Y-58433800D01*
X88149118Y-58428354D01*
X88241607Y-58380051D01*
X88328519Y-58336828D01*
X88433657Y-58287144D01*
X88580824Y-58219454D01*
X88772751Y-58131326D01*
X88977909Y-58036338D01*
X89202259Y-57931650D01*
X89454972Y-57812954D01*
X89745219Y-57675943D01*
X90082172Y-57516309D01*
X90475000Y-57329744D01*
X90489266Y-57322963D01*
X90731431Y-57207906D01*
X90921777Y-57117639D01*
X91072963Y-57046217D01*
X91197652Y-56987699D01*
X91308505Y-56936140D01*
X91418182Y-56885597D01*
X91539346Y-56830127D01*
X91591161Y-56806312D01*
X91722572Y-56744628D01*
X91825828Y-56694356D01*
X91882102Y-56664589D01*
X91889176Y-56660345D01*
X91964436Y-56621165D01*
X92062500Y-56575739D01*
X92117966Y-56551195D01*
X92256532Y-56488152D01*
X92403841Y-56419367D01*
X92541264Y-56353695D01*
X92650171Y-56299990D01*
X92711932Y-56267104D01*
X92718987Y-56262942D01*
X92794249Y-56224226D01*
X92892329Y-56179115D01*
X92956043Y-56150905D01*
X93084067Y-56092902D01*
X93217045Y-56031496D01*
X93311182Y-55987570D01*
X93477136Y-55910236D01*
X93631960Y-55838190D01*
X93726192Y-55794169D01*
X93884124Y-55719955D01*
X94064979Y-55634636D01*
X94245312Y-55549256D01*
X94386987Y-55482252D01*
X94574457Y-55394126D01*
X94745876Y-55314087D01*
X94876704Y-55253626D01*
X95004340Y-55194493D01*
X95114752Y-55142067D01*
X95183381Y-55107998D01*
X95242159Y-55076991D01*
X95315279Y-55039543D01*
X95394880Y-55000773D01*
X95500683Y-54951138D01*
X95652415Y-54881098D01*
X95861077Y-54784674D01*
X96244537Y-54605936D01*
X96669061Y-54406422D01*
X97119992Y-54193032D01*
X97582670Y-53972663D01*
X97745263Y-53895224D01*
X97933695Y-53806007D01*
X98103753Y-53726002D01*
X98232102Y-53666222D01*
X98362812Y-53605620D01*
X98474016Y-53552840D01*
X98563802Y-53508154D01*
X98656037Y-53459950D01*
X98668225Y-53453674D01*
X98747351Y-53415221D01*
X98865660Y-53359368D01*
X99002340Y-53295757D01*
X99136580Y-53234033D01*
X99247567Y-53183841D01*
X99314488Y-53154825D01*
X99342200Y-53142710D01*
X99422727Y-53100582D01*
X99423473Y-53100137D01*
X99483518Y-53068607D01*
X99586784Y-53018138D01*
X99711363Y-52959439D01*
X99727274Y-52952071D01*
X99883446Y-52879659D01*
X100064533Y-52795589D01*
X100234517Y-52716583D01*
X100261608Y-52703984D01*
X100427189Y-52627100D01*
X100591148Y-52551130D01*
X100721591Y-52490855D01*
X100728106Y-52487851D01*
X100886251Y-52414216D01*
X101007124Y-52355984D01*
X101118466Y-52299802D01*
X101121673Y-52298163D01*
X101190994Y-52264228D01*
X101318083Y-52203297D01*
X101495988Y-52118658D01*
X101717757Y-52013601D01*
X101976436Y-51891415D01*
X102265072Y-51755389D01*
X102576712Y-51608812D01*
X102904403Y-51454973D01*
X102985946Y-51416728D01*
X103220602Y-51306704D01*
X103405162Y-51220246D01*
X103551349Y-51151886D01*
X103670883Y-51096158D01*
X103775487Y-51047593D01*
X103876882Y-51000723D01*
X103986790Y-50950081D01*
X104066807Y-50913191D01*
X104196916Y-50852618D01*
X104292523Y-50806716D01*
X104374781Y-50765210D01*
X104464844Y-50717821D01*
X104537974Y-50680593D01*
X104654892Y-50624532D01*
X104781539Y-50566340D01*
X104899241Y-50514397D01*
X104989322Y-50477084D01*
X105033107Y-50462784D01*
X105048185Y-50460415D01*
X105112370Y-50419005D01*
X105170275Y-50348784D01*
X105195454Y-50279593D01*
X105193821Y-50262850D01*
X105173948Y-50226338D01*
X105126431Y-50195310D01*
X105044913Y-50168709D01*
X104923039Y-50145479D01*
X104754453Y-50124564D01*
X104532801Y-50104908D01*
X104251726Y-50085455D01*
X103904873Y-50065149D01*
X103842874Y-50061637D01*
X103506994Y-50038714D01*
X103242254Y-50013074D01*
X103047819Y-49984599D01*
X102922852Y-49953170D01*
X102866519Y-49918671D01*
X102887164Y-49916997D01*
X102976962Y-49914894D01*
X103136835Y-49912848D01*
X103365613Y-49910863D01*
X103662123Y-49908940D01*
X104025194Y-49907079D01*
X104453653Y-49905284D01*
X104946327Y-49903556D01*
X105502046Y-49901895D01*
X106119637Y-49900305D01*
X106797928Y-49898786D01*
X107535747Y-49897341D01*
X108331921Y-49895970D01*
X109185280Y-49894676D01*
X110094650Y-49893460D01*
X111058860Y-49892323D01*
X112076738Y-49891269D01*
X113147111Y-49890297D01*
X114268808Y-49889410D01*
X115440657Y-49888609D01*
X116661485Y-49887897D01*
X117930121Y-49887274D01*
X119245392Y-49886742D01*
X120606126Y-49886303D01*
X122011152Y-49885959D01*
X123459297Y-49885712D01*
X124949389Y-49885562D01*
X126480257Y-49885512D01*
X150114488Y-49885512D01*
X150114488Y-57226323D01*
X150114488Y-73452671D01*
G37*
G04 #@! TD*
M02*
