G04 #@! TF.GenerationSoftware,KiCad,Pcbnew,7.0.9-unknown-1000.20231106gitacd7d5a.fc37*
G04 #@! TF.CreationDate,2023-11-18T15:42:19-08:00*
G04 #@! TF.ProjectId,strange-parts-coaster,73747261-6e67-4652-9d70-617274732d63,rev?*
G04 #@! TF.SameCoordinates,Original*
G04 #@! TF.FileFunction,Legend,Bot*
G04 #@! TF.FilePolarity,Positive*
%FSLAX46Y46*%
G04 Gerber Fmt 4.6, Leading zero omitted, Abs format (unit mm)*
G04 Created by KiCad (PCBNEW 7.0.9-unknown-1000.20231106gitacd7d5a.fc37) date 2023-11-18 15:42:19*
%MOMM*%
%LPD*%
G01*
G04 APERTURE LIST*
%ADD10C,0.300000*%
G04 APERTURE END LIST*
D10*
X101321427Y-99249757D02*
X101464285Y-99178328D01*
X101464285Y-99178328D02*
X101678570Y-99178328D01*
X101678570Y-99178328D02*
X101892856Y-99249757D01*
X101892856Y-99249757D02*
X102035713Y-99392614D01*
X102035713Y-99392614D02*
X102107142Y-99535471D01*
X102107142Y-99535471D02*
X102178570Y-99821185D01*
X102178570Y-99821185D02*
X102178570Y-100035471D01*
X102178570Y-100035471D02*
X102107142Y-100321185D01*
X102107142Y-100321185D02*
X102035713Y-100464042D01*
X102035713Y-100464042D02*
X101892856Y-100606900D01*
X101892856Y-100606900D02*
X101678570Y-100678328D01*
X101678570Y-100678328D02*
X101535713Y-100678328D01*
X101535713Y-100678328D02*
X101321427Y-100606900D01*
X101321427Y-100606900D02*
X101249999Y-100535471D01*
X101249999Y-100535471D02*
X101249999Y-100035471D01*
X101249999Y-100035471D02*
X101535713Y-100035471D01*
X100392856Y-99178328D02*
X100392856Y-99535471D01*
X100749999Y-99392614D02*
X100392856Y-99535471D01*
X100392856Y-99535471D02*
X100035713Y-99392614D01*
X100607142Y-99821185D02*
X100392856Y-99535471D01*
X100392856Y-99535471D02*
X100178570Y-99821185D01*
X99249999Y-99178328D02*
X99249999Y-99535471D01*
X99607142Y-99392614D02*
X99249999Y-99535471D01*
X99249999Y-99535471D02*
X98892856Y-99392614D01*
X99464285Y-99821185D02*
X99249999Y-99535471D01*
X99249999Y-99535471D02*
X99035713Y-99821185D01*
X98107142Y-99178328D02*
X98107142Y-99535471D01*
X98464285Y-99392614D02*
X98107142Y-99535471D01*
X98107142Y-99535471D02*
X97749999Y-99392614D01*
X98321428Y-99821185D02*
X98107142Y-99535471D01*
X98107142Y-99535471D02*
X97892856Y-99821185D01*
M02*
