  0
SECTION
  2
HEADER
  9
$ACADVER
  1
AC1014
  9
$HANDSEED
  5
FFFF
  9
$MEASUREMENT
 70
     1
  0
ENDSEC
  0
SECTION
  2
TABLES
  0
TABLE
  2
VPORT
  5
8
330
0
100
AcDbSymbolTable
 70
     4
  0
VPORT
  5
2E
330
8
100
AcDbSymbolTableRecord
100
AcDbViewportTableRecord
  2
*ACTIVE
 70
     0
 10
0.0
 20
0.0
 11
1.0
 21
1.0
 12
210.0
 22
148.5
 13
0.0
 23
0.0
 14
10.0
 24
10.0
 15
10.0
 25
10.0
 16
0.0
 26
0.0
 36
1.0
 17
0.0
 27
0.0
 37
0.0
 40
341.0
 41
1.24
 42
50.0
 43
0.0
 44
0.0
 50
0.0
 51
0.0
 71
     0
 72
   100
 73
     1
 74
     3
 75
     0
 76
     0
 77
     0
 78
     0
  0
ENDTAB
  0
TABLE
  2
LTYPE
  5
5
330
0
100
AcDbSymbolTable
 70
     1
  0
LTYPE
  5
14
330
5
100
AcDbSymbolTableRecord
100
AcDbLinetypeTableRecord
  2
BYBLOCK
 70
     0
  3

 72
    65
 73
     0
 40
0.0
  0
LTYPE
  5
15
330
5
100
AcDbSymbolTableRecord
100
AcDbLinetypeTableRecord
  2
BYLAYER
 70
     0
  3

 72
    65
 73
     0
 40
0.0
  0
LTYPE
  5
16
330
5
100
AcDbSymbolTableRecord
100
AcDbLinetypeTableRecord
  2
CONTINUOUS
 70
     0
  3
Solid line
 72
    65
 73
     0
 40
0.0
  0
ENDTAB
  0
TABLE
  2
LAYER
  5
2
100
AcDbSymbolTable
 70
3
  0
LAYER
  5
50
100
AcDbSymbolTableRecord
100
AcDbLayerTableRecord
  2
0
 70
0
  6
CONTINUOUS
  0
LAYER
  5
51
100
AcDbSymbolTableRecord
100
AcDbLayerTableRecord
  2
Layer_1
 70
0
  6
CONTINUOUS
  0
LAYER
  5
52
100
AcDbSymbolTableRecord
100
AcDbLayerTableRecord
  2
Layer_2
 70
0
  6
CONTINUOUS
  0
ENDTAB
  0
TABLE
  2
STYLE
  5
3
330
0
100
AcDbSymbolTable
 70
     1
  0
STYLE
  5
11
330
3
100
AcDbSymbolTableRecord
100
AcDbTextStyleTableRecord
  2
STANDARD
 70
     0
 40
0.0
 41
1.0
 50
0.0
 71
     0
 42
2.5
  3
txt
  4

  0
ENDTAB
  0
TABLE
  2
VIEW
  5
6
330
0
100
AcDbSymbolTable
 70
     0
  0
ENDTAB
  0
TABLE
  2
UCS
  5
7
330
0
100
AcDbSymbolTable
 70
     0
  0
ENDTAB
  0
TABLE
  2
APPID
  5
9
330
0
100
AcDbSymbolTable
 70
     2
  0
APPID
  5
12
330
9
100
AcDbSymbolTableRecord
100
AcDbRegAppTableRecord
  2
ACAD
 70
     0
  0
ENDTAB
  0
TABLE
  2
DIMSTYLE
  5
A
330
0
100
AcDbSymbolTable
 70
     1
  0
DIMSTYLE
105
27
330
A
100
AcDbSymbolTableRecord
100
AcDbDimStyleTableRecord
  2
ISO-25
 70
     0
  3

  4

  5

  6

  7

 40
1.0
 41
2.5
 42
0.625
 43
3.75
 44
1.25
 45
0.0
 46
0.0
 47
0.0
 48
0.0
140
2.5
141
2.5
142
0.0
143
0.03937007874016
144
1.0
145
0.0
146
1.0
147
0.625
 71
     0
 72
     0
 73
     0
 74
     0
 75
     0
 76
     0
 77
     1
 78
     8
170
     0
171
     3
172
     1
173
     0
174
     0
175
     0
176
     0
177
     0
178
     0
270
     2
271
     2
272
     2
273
     2
274
     3
340
11
275
     0
280
     0
281
     0
282
     0
283
     0
284
     8
285
     0
286
     0
287
     3
288
     0
  0
ENDTAB
  0
TABLE
  2
BLOCK_RECORD
  5
1
330
0
100
AcDbSymbolTable
 70
     1
  0
BLOCK_RECORD
  5
1F
330
1
100
AcDbSymbolTableRecord
100
AcDbBlockTableRecord
  2
*MODEL_SPACE
  0
BLOCK_RECORD
  5
1B
330
1
100
AcDbSymbolTableRecord
100
AcDbBlockTableRecord
  2
*PAPER_SPACE
  0
ENDTAB
  0
ENDSEC
  0
SECTION
  2
BLOCKS
  0
BLOCK
  5
20
330
1F
100
AcDbEntity
  8
0
100
AcDbBlockBegin
  2
*MODEL_SPACE
 70
     0
 10
0.0
 20
0.0
 30
0.0
  3
*MODEL_SPACE
  1

  0
ENDBLK
  5
21
330
1F
100
AcDbEntity
  8
0
100
AcDbBlockEnd
  0
BLOCK
  5
1C
330
1B
100
AcDbEntity
 67
     1
  8
0
100
AcDbBlockBegin
  2
*PAPER_SPACE
  1

  0
ENDBLK
  5
1D
330
1B
100
AcDbEntity
 67
     1
  8
0
100
AcDbBlockEnd
  0
ENDSEC
  0
SECTION
  2
ENTITIES
  0
SPLINE
  5
100
100
AcDbEntity
  8
Layer_1
 62
7
100
AcDbSpline
 70
8
 71
3
 72
8
 73
4
 74
0
 40
0
 40
0
 40
0
 40
0
 40
1
 40
1
 40
1
 40
1
 10
23.198667
 20
16.427640
 30
0.0
 10
20.715513
 20
16.770834
 30
0.0
 10
18.117682
 20
17.744379
 30
0.0
 10
16.099023
 20
19.088256
 30
0.0
  0
SPLINE
  5
101
100
AcDbEntity
  8
Layer_1
 62
7
100
AcDbSpline
 70
8
 71
3
 72
8
 73
4
 74
0
 40
0
 40
0
 40
0
 40
0
 40
1
 40
1
 40
1
 40
1
 10
16.099023
 20
19.088256
 30
0.0
 10
15.362694
 20
19.578450
 30
0.0
 10
15.140797
 20
19.677986
 30
0.0
 10
14.215029
 20
19.933354
 30
0.0
  0
SPLINE
  5
102
100
AcDbEntity
  8
Layer_1
 62
7
100
AcDbSpline
 70
8
 71
3
 72
8
 73
4
 74
0
 40
0
 40
0
 40
0
 40
0
 40
1
 40
1
 40
1
 40
1
 10
14.215029
 20
19.933354
 30
0.0
 10
7.465707
 20
21.795126
 30
0.0
 10
2.736286
 20
27.431018
 30
0.0
 10
2.025395
 20
34.459333
 30
0.0
  0
SPLINE
  5
103
100
AcDbEntity
  8
Layer_1
 62
7
100
AcDbSpline
 70
8
 71
3
 72
8
 73
4
 74
0
 40
0
 40
0
 40
0
 40
0
 40
1
 40
1
 40
1
 40
1
 10
2.025395
 20
34.459333
 30
0.0
 10
1.922954
 20
35.472127
 30
0.0
 10
1.965944
 20
37.331618
 30
0.0
 10
2.112106
 20
38.209985
 30
0.0
  0
SPLINE
  5
104
100
AcDbEntity
  8
Layer_1
 62
7
100
AcDbSpline
 70
8
 71
3
 72
8
 73
4
 74
0
 40
0
 40
0
 40
0
 40
0
 40
1
 40
1
 40
1
 40
1
 10
2.112106
 20
38.209985
 30
0.0
 10
2.177370
 20
38.602190
 30
0.0
 10
2.159942
 20
38.883249
 30
0.0
 10
2.025481
 20
39.606985
 30
0.0
  0
SPLINE
  5
105
100
AcDbEntity
  8
Layer_1
 62
7
100
AcDbSpline
 70
8
 71
3
 72
8
 73
4
 74
0
 40
0
 40
0
 40
0
 40
0
 40
1
 40
1
 40
1
 40
1
 10
2.025481
 20
39.606985
 30
0.0
 10
1.932901
 20
40.105293
 30
0.0
 10
1.824341
 20
41.122600
 30
0.0
 10
1.784236
 20
41.867667
 30
0.0
  0
SPLINE
  5
106
100
AcDbEntity
  8
Layer_1
 62
7
100
AcDbSpline
 70
8
 71
3
 72
8
 73
4
 74
0
 40
0
 40
0
 40
0
 40
0
 40
1
 40
1
 40
1
 40
1
 10
1.784236
 20
41.867667
 30
0.0
 10
1.726904
 20
42.932757
 30
0.0
 10
1.663241
 20
43.385221
 30
0.0
 10
1.486414
 20
43.984333
 30
0.0
  0
SPLINE
  5
107
100
AcDbEntity
  8
Layer_1
 62
7
100
AcDbSpline
 70
8
 71
3
 72
8
 73
4
 74
0
 40
0
 40
0
 40
0
 40
0
 40
1
 40
1
 40
1
 40
1
 10
1.486414
 20
43.984333
 30
0.0
 10
1.131682
 20
45.186211
 30
0.0
 10
0.928949
 20
46.562597
 30
0.0
 10
0.850400
 20
48.302333
 30
0.0
  0
SPLINE
  5
108
100
AcDbEntity
  8
Layer_1
 62
7
100
AcDbSpline
 70
8
 71
3
 72
8
 73
4
 74
0
 40
0
 40
0
 40
0
 40
0
 40
1
 40
1
 40
1
 40
1
 10
0.850400
 20
48.302333
 30
0.0
 10
0.803021
 20
49.351695
 30
0.0
 10
0.711511
 20
50.249529
 30
0.0
 10
0.587198
 20
50.884669
 30
0.0
  0
SPLINE
  5
109
100
AcDbEntity
  8
Layer_1
 62
7
100
AcDbSpline
 70
8
 71
3
 72
8
 73
4
 74
0
 40
0
 40
0
 40
0
 40
0
 40
1
 40
1
 40
1
 40
1
 10
0.587198
 20
50.884669
 30
0.0
 10
0.425666
 20
51.709974
 30
0.0
 10
0.396620
 20
52.135704
 30
0.0
 10
0.396572
 20
53.678669
 30
0.0
  0
SPLINE
  5
10a
100
AcDbEntity
  8
Layer_1
 62
7
100
AcDbSpline
 70
8
 71
3
 72
8
 73
4
 74
0
 40
0
 40
0
 40
0
 40
0
 40
1
 40
1
 40
1
 40
1
 10
0.396572
 20
53.678669
 30
0.0
 10
0.396523
 20
55.241463
 30
0.0
 10
0.424547
 20
55.642745
 30
0.0
 10
0.594646
 20
56.515003
 30
0.0
  0
SPLINE
  5
10b
100
AcDbEntity
  8
Layer_1
 62
7
100
AcDbSpline
 70
8
 71
3
 72
8
 73
4
 74
0
 40
0
 40
0
 40
0
 40
0
 40
1
 40
1
 40
1
 40
1
 10
0.594646
 20
56.515003
 30
0.0
 10
0.838670
 20
57.766334
 30
0.0
 10
0.839439
 20
57.954937
 30
0.0
 10
0.605690
 20
59.224336
 30
0.0
  0
SPLINE
  5
10c
100
AcDbEntity
  8
Layer_1
 62
7
100
AcDbSpline
 70
8
 71
3
 72
8
 73
4
 74
0
 40
0
 40
0
 40
0
 40
0
 40
1
 40
1
 40
1
 40
1
 10
0.605690
 20
59.224336
 30
0.0
 10
-0.017506
 20
62.608672
 30
0.0
 10
0.495071
 20
66.165963
 30
0.0
 10
2.069664
 20
69.384336
 30
0.0
  0
SPLINE
  5
10d
100
AcDbEntity
  8
Layer_1
 62
7
100
AcDbSpline
 70
8
 71
3
 72
8
 73
4
 74
0
 40
0
 40
0
 40
0
 40
0
 40
1
 40
1
 40
1
 40
1
 10
2.069664
 20
69.384336
 30
0.0
 10
2.939866
 20
71.162976
 30
0.0
 10
3.844560
 20
72.412431
 30
0.0
 10
5.296846
 20
73.841337
 30
0.0
  0
SPLINE
  5
10e
100
AcDbEntity
  8
Layer_1
 62
7
100
AcDbSpline
 70
8
 71
3
 72
8
 73
4
 74
0
 40
0
 40
0
 40
0
 40
0
 40
1
 40
1
 40
1
 40
1
 10
5.296846
 20
73.841337
 30
0.0
 10
6.034396
 20
74.567013
 30
0.0
 10
6.141725
 20
74.715579
 30
0.0
 10
6.572662
 20
75.607335
 30
0.0
  0
SPLINE
  5
10f
100
AcDbEntity
  8
Layer_1
 62
7
100
AcDbSpline
 70
8
 71
3
 72
8
 73
4
 74
0
 40
0
 40
0
 40
0
 40
0
 40
1
 40
1
 40
1
 40
1
 10
6.572662
 20
75.607335
 30
0.0
 10
6.887634
 20
76.259120
 30
0.0
 10
7.108679
 20
76.866161
 30
0.0
 10
7.241305
 20
77.443584
 30
0.0
  0
SPLINE
  5
110
100
AcDbEntity
  8
Layer_1
 62
7
100
AcDbSpline
 70
8
 71
3
 72
8
 73
4
 74
0
 40
0
 40
0
 40
0
 40
0
 40
1
 40
1
 40
1
 40
1
 10
7.241305
 20
77.443584
 30
0.0
 10
7.810589
 20
79.922133
 30
0.0
 10
9.060578
 20
82.435220
 30
0.0
 10
10.703437
 20
84.404156
 30
0.0
  0
SPLINE
  5
111
100
AcDbEntity
  8
Layer_1
 62
7
100
AcDbSpline
 70
8
 71
3
 72
8
 73
4
 74
0
 40
0
 40
0
 40
0
 40
0
 40
1
 40
1
 40
1
 40
1
 10
10.703437
 20
84.404156
 30
0.0
 10
11.796792
 20
85.714521
 30
0.0
 10
13.371370
 20
87.062092
 30
0.0
 10
14.859000
 20
87.960613
 30
0.0
  0
SPLINE
  5
112
100
AcDbEntity
  8
Layer_1
 62
7
100
AcDbSpline
 70
8
 71
3
 72
8
 73
4
 74
0
 40
0
 40
0
 40
0
 40
0
 40
1
 40
1
 40
1
 40
1
 10
14.859000
 20
87.960613
 30
0.0
 10
16.725511
 20
89.087975
 30
0.0
 10
19.361807
 20
89.986119
 30
0.0
 10
21.488074
 20
90.219032
 30
0.0
  0
SPLINE
  5
113
100
AcDbEntity
  8
Layer_1
 62
7
100
AcDbSpline
 70
8
 71
3
 72
8
 73
4
 74
0
 40
0
 40
0
 40
0
 40
0
 40
1
 40
1
 40
1
 40
1
 10
22.640847
 20
91.006881
 30
0.0
 10
25.485828
 20
94.355734
 30
0.0
 10
29.400333
 20
96.412628
 30
0.0
 10
33.769805
 20
96.854639
 30
0.0
  0
SPLINE
  5
114
100
AcDbEntity
  8
Layer_1
 62
7
100
AcDbSpline
 70
8
 71
3
 72
8
 73
4
 74
0
 40
0
 40
0
 40
0
 40
0
 40
1
 40
1
 40
1
 40
1
 10
33.769805
 20
96.854639
 30
0.0
 10
37.378270
 20
97.219668
 30
0.0
 10
41.462934
 20
96.217670
 30
0.0
 10
44.394427
 20
94.248341
 30
0.0
  0
SPLINE
  5
115
100
AcDbEntity
  8
Layer_1
 62
7
100
AcDbSpline
 70
8
 71
3
 72
8
 73
4
 74
0
 40
0
 40
0
 40
0
 40
0
 40
1
 40
1
 40
1
 40
1
 10
44.394427
 20
94.248341
 30
0.0
 10
44.752757
 20
94.007621
 30
0.0
 10
45.078684
 20
93.810669
 30
0.0
 10
45.118711
 20
93.810669
 30
0.0
  0
SPLINE
  5
116
100
AcDbEntity
  8
Layer_1
 62
7
100
AcDbSpline
 70
8
 71
3
 72
8
 73
4
 74
0
 40
0
 40
0
 40
0
 40
0
 40
1
 40
1
 40
1
 40
1
 10
45.118711
 20
93.810669
 30
0.0
 10
45.158737
 20
93.810669
 30
0.0
 10
45.415176
 20
93.946501
 30
0.0
 10
45.688578
 20
94.112518
 30
0.0
  0
SPLINE
  5
117
100
AcDbEntity
  8
Layer_1
 62
7
100
AcDbSpline
 70
8
 71
3
 72
8
 73
4
 74
0
 40
0
 40
0
 40
0
 40
0
 40
1
 40
1
 40
1
 40
1
 10
45.688578
 20
94.112518
 30
0.0
 10
48.526512
 20
95.835796
 30
0.0
 10
52.352297
 20
96.687602
 30
0.0
 10
55.722864
 20
96.346639
 30
0.0
  0
SPLINE
  5
118
100
AcDbEntity
  8
Layer_1
 62
7
100
AcDbSpline
 70
8
 71
3
 72
8
 73
4
 74
0
 40
0
 40
0
 40
0
 40
0
 40
1
 40
1
 40
1
 40
1
 10
55.722864
 20
96.346639
 30
0.0
 10
58.132483
 20
96.102884
 30
0.0
 10
60.902691
 20
95.189840
 30
0.0
 10
62.724834
 20
94.038833
 30
0.0
  0
LWPOLYLINE
  5
119
100
AcDbEntity
  8
Layer_1
 62
7
100
AcDbPolyline
 90
3
 70
0
 10
21.488074
 20
90.219032
 30
0.0
 10
22.021146
 20
90.277425
 30
0.0
 10
22.640847
 20
91.006881
 30
0.0
  0
SPLINE
  5
11a
100
AcDbEntity
  8
Layer_1
 62
7
100
AcDbSpline
 70
8
 71
3
 72
8
 73
4
 74
0
 40
0
 40
0
 40
0
 40
0
 40
1
 40
1
 40
1
 40
1
 10
64.253166
 20
94.116603
 30
0.0
 10
64.844874
 20
94.316584
 30
0.0
 10
65.822348
 20
94.585462
 30
0.0
 10
66.425334
 20
94.714109
 30
0.0
  0
SPLINE
  5
11b
100
AcDbEntity
  8
Layer_1
 62
7
100
AcDbSpline
 70
8
 71
3
 72
8
 73
4
 74
0
 40
0
 40
0
 40
0
 40
0
 40
1
 40
1
 40
1
 40
1
 10
66.425334
 20
94.714109
 30
0.0
 10
67.456285
 20
94.934063
 30
0.0
 10
67.647902
 20
94.948013
 30
0.0
 10
69.638336
 20
94.948013
 30
0.0
  0
SPLINE
  5
11c
100
AcDbEntity
  8
Layer_1
 62
7
100
AcDbSpline
 70
8
 71
3
 72
8
 73
4
 74
0
 40
0
 40
0
 40
0
 40
0
 40
1
 40
1
 40
1
 40
1
 10
69.638336
 20
94.948013
 30
0.0
 10
71.617499
 20
94.948013
 30
0.0
 10
71.824556
 20
94.933154
 30
0.0
 10
72.825705
 20
94.719299
 30
0.0
  0
SPLINE
  5
11d
100
AcDbEntity
  8
Layer_1
 62
7
100
AcDbSpline
 70
8
 71
3
 72
8
 73
4
 74
0
 40
0
 40
0
 40
0
 40
0
 40
1
 40
1
 40
1
 40
1
 10
72.825705
 20
94.719299
 30
0.0
 10
75.901505
 20
94.062275
 30
0.0
 10
78.615561
 20
92.697749
 30
0.0
 10
80.751003
 20
90.734755
 30
0.0
  0
SPLINE
  5
11e
100
AcDbEntity
  8
Layer_1
 62
7
100
AcDbSpline
 70
8
 71
3
 72
8
 73
4
 74
0
 40
0
 40
0
 40
0
 40
0
 40
1
 40
1
 40
1
 40
1
 10
80.751003
 20
90.734755
 30
0.0
 10
82.012393
 20
89.575230
 30
0.0
 10
82.994130
 20
88.388782
 30
0.0
 10
83.827371
 20
87.016903
 30
0.0
  0
LWPOLYLINE
  5
11f
100
AcDbEntity
  8
Layer_1
 62
7
100
AcDbPolyline
 90
3
 70
0
 10
62.724834
 20
94.038833
 30
0.0
 10
63.177330
 20
93.753000
 30
0.0
 10
64.253166
 20
94.116603
 30
0.0
  0
SPLINE
  5
120
100
AcDbEntity
  8
Layer_1
 62
7
100
AcDbSpline
 70
8
 71
3
 72
8
 73
4
 74
0
 40
0
 40
0
 40
0
 40
0
 40
1
 40
1
 40
1
 40
1
 10
85.391027
 20
86.096136
 30
0.0
 10
89.913698
 20
85.205136
 30
0.0
 10
93.721677
 20
82.662561
 30
0.0
 10
96.223804
 20
78.863121
 30
0.0
  0
SPLINE
  5
121
100
AcDbEntity
  8
Layer_1
 62
7
100
AcDbSpline
 70
8
 71
3
 72
8
 73
4
 74
0
 40
0
 40
0
 40
0
 40
0
 40
1
 40
1
 40
1
 40
1
 10
96.223804
 20
78.863121
 30
0.0
 10
97.294118
 20
77.237870
 30
0.0
 10
98.163687
 20
75.102995
 30
0.0
 10
98.613971
 20
72.995039
 30
0.0
  0
SPLINE
  5
122
100
AcDbEntity
  8
Layer_1
 62
7
100
AcDbSpline
 70
8
 71
3
 72
8
 73
4
 74
0
 40
0
 40
0
 40
0
 40
0
 40
1
 40
1
 40
1
 40
1
 10
98.613971
 20
72.995039
 30
0.0
 10
98.827820
 20
71.993890
 30
0.0
 10
98.842679
 20
71.786832
 30
0.0
 10
98.842679
 20
69.807669
 30
0.0
  0
SPLINE
  5
123
100
AcDbEntity
  8
Layer_1
 62
7
100
AcDbSpline
 70
8
 71
3
 72
8
 73
4
 74
0
 40
0
 40
0
 40
0
 40
0
 40
1
 40
1
 40
1
 40
1
 10
98.842679
 20
69.807669
 30
0.0
 10
98.842679
 20
67.821228
 30
0.0
 10
98.828418
 20
67.624119
 30
0.0
 10
98.610642
 20
66.603880
 30
0.0
  0
SPLINE
  5
124
100
AcDbEntity
  8
Layer_1
 62
7
100
AcDbSpline
 70
8
 71
3
 72
8
 73
4
 74
0
 40
0
 40
0
 40
0
 40
0
 40
1
 40
1
 40
1
 40
1
 10
98.610642
 20
66.603880
 30
0.0
 10
98.483015
 20
66.005961
 30
0.0
 10
98.230650
 20
65.074300
 30
0.0
 10
98.049829
 20
64.533518
 30
0.0
  0
LWPOLYLINE
  5
125
100
AcDbEntity
  8
Layer_1
 62
7
100
AcDbPolyline
 90
3
 70
0
 10
83.827371
 20
87.016903
 30
0.0
 10
84.250101
 20
86.320906
 30
0.0
 10
85.391027
 20
86.096136
 30
0.0
  0
SPLINE
  5
126
100
AcDbEntity
  8
Layer_1
 62
7
100
AcDbSpline
 70
8
 71
3
 72
8
 73
4
 74
0
 40
0
 40
0
 40
0
 40
0
 40
1
 40
1
 40
1
 40
1
 10
98.145645
 20
62.704173
 30
0.0
 10
98.961662
 20
61.078076
 30
0.0
 10
99.453507
 20
59.544487
 30
0.0
 10
99.709743
 20
57.827336
 30
0.0
  0
SPLINE
  5
127
100
AcDbEntity
  8
Layer_1
 62
7
100
AcDbSpline
 70
8
 71
3
 72
8
 73
4
 74
0
 40
0
 40
0
 40
0
 40
0
 40
1
 40
1
 40
1
 40
1
 10
99.709743
 20
57.827336
 30
0.0
 10
99.912249
 20
56.470288
 30
0.0
 10
99.909598
 20
53.887788
 30
0.0
 10
99.704398
 20
52.578003
 30
0.0
  0
SPLINE
  5
128
100
AcDbEntity
  8
Layer_1
 62
7
100
AcDbSpline
 70
8
 71
3
 72
8
 73
4
 74
0
 40
0
 40
0
 40
0
 40
0
 40
1
 40
1
 40
1
 40
1
 10
99.704398
 20
52.578003
 30
0.0
 10
99.371269
 20
50.451964
 30
0.0
 10
98.596984
 20
48.378332
 30
0.0
 10
97.396107
 20
46.396108
 30
0.0
  0
LWPOLYLINE
  5
129
100
AcDbEntity
  8
Layer_1
 62
7
100
AcDbPolyline
 90
3
 70
0
 10
98.049829
 20
64.533518
 30
0.0
 10
97.721050
 20
63.550279
 30
0.0
 10
98.145645
 20
62.704173
 30
0.0
  0
SPLINE
  5
12a
100
AcDbEntity
  8
Layer_1
 62
7
100
AcDbSpline
 70
8
 71
3
 72
8
 73
4
 74
0
 40
0
 40
0
 40
0
 40
0
 40
1
 40
1
 40
1
 40
1
 10
97.283109
 20
45.337775
 30
0.0
 10
97.744391
 20
43.731624
 30
0.0
 10
97.832553
 20
43.000229
 30
0.0
 10
97.828997
 20
40.809333
 30
0.0
  0
SPLINE
  5
12b
100
AcDbEntity
  8
Layer_1
 62
7
100
AcDbSpline
 70
8
 71
3
 72
8
 73
4
 74
0
 40
0
 40
0
 40
0
 40
0
 40
1
 40
1
 40
1
 40
1
 10
97.828997
 20
40.809333
 30
0.0
 10
97.825875
 20
38.885244
 30
0.0
 10
97.809100
 20
38.657451
 30
0.0
 10
97.597460
 20
37.664297
 30
0.0
  0
SPLINE
  5
12c
100
AcDbEntity
  8
Layer_1
 62
7
100
AcDbSpline
 70
8
 71
3
 72
8
 73
4
 74
0
 40
0
 40
0
 40
0
 40
0
 40
1
 40
1
 40
1
 40
1
 10
97.597460
 20
37.664297
 30
0.0
 10
97.280629
 20
36.177580
 30
0.0
 10
96.873195
 20
34.985426
 30
0.0
 10
96.187236
 20
33.537932
 30
0.0
  0
SPLINE
  5
12d
100
AcDbEntity
  8
Layer_1
 62
7
100
AcDbSpline
 70
8
 71
3
 72
8
 73
4
 74
0
 40
0
 40
0
 40
0
 40
0
 40
1
 40
1
 40
1
 40
1
 10
96.187236
 20
33.537932
 30
0.0
 10
95.864664
 20
32.857255
 30
0.0
 10
95.523153
 20
32.102245
 30
0.0
 10
95.428316
 20
31.860141
 30
0.0
  0
SPLINE
  5
12e
100
AcDbEntity
  8
Layer_1
 62
7
100
AcDbSpline
 70
8
 71
3
 72
8
 73
4
 74
0
 40
0
 40
0
 40
0
 40
0
 40
1
 40
1
 40
1
 40
1
 10
95.428316
 20
31.860141
 30
0.0
 10
95.182309
 20
31.232075
 30
0.0
 10
94.457978
 20
29.807154
 30
0.0
 10
94.092964
 20
29.233196
 30
0.0
  0
SPLINE
  5
12f
100
AcDbEntity
  8
Layer_1
 62
7
100
AcDbSpline
 70
8
 71
3
 72
8
 73
4
 74
0
 40
0
 40
0
 40
0
 40
0
 40
1
 40
1
 40
1
 40
1
 10
94.092964
 20
29.233196
 30
0.0
 10
93.032495
 20
27.565715
 30
0.0
 10
91.384721
 20
25.786199
 30
0.0
 10
89.946184
 20
24.754885
 30
0.0
  0
SPLINE
  5
130
100
AcDbEntity
  8
Layer_1
 62
7
100
AcDbSpline
 70
8
 71
3
 72
8
 73
4
 74
0
 40
0
 40
0
 40
0
 40
0
 40
1
 40
1
 40
1
 40
1
 10
89.946184
 20
24.754885
 30
0.0
 10
89.601479
 20
24.507759
 30
0.0
 10
89.232071
 20
24.120501
 30
0.0
 10
88.851113
 20
23.606908
 30
0.0
  0
SPLINE
  5
131
100
AcDbEntity
  8
Layer_1
 62
7
100
AcDbSpline
 70
8
 71
3
 72
8
 73
4
 74
0
 40
0
 40
0
 40
0
 40
0
 40
1
 40
1
 40
1
 40
1
 10
88.851113
 20
23.606908
 30
0.0
 10
85.613171
 20
19.241635
 30
0.0
 10
80.211898
 20
16.686070
 30
0.0
 10
74.845325
 20
16.980223
 30
0.0
  0
SPLINE
  5
132
100
AcDbEntity
  8
Layer_1
 62
7
100
AcDbSpline
 70
8
 71
3
 72
8
 73
4
 74
0
 40
0
 40
0
 40
0
 40
0
 40
1
 40
1
 40
1
 40
1
 10
74.845325
 20
16.980223
 30
0.0
 10
73.179239
 20
17.071544
 30
0.0
 10
73.067479
 20
17.069951
 30
0.0
 10
72.057996
 20
16.940538
 30
0.0
  0
SPLINE
  5
133
100
AcDbEntity
  8
Layer_1
 62
7
100
AcDbSpline
 70
8
 71
3
 72
8
 73
4
 74
0
 40
0
 40
0
 40
0
 40
0
 40
1
 40
1
 40
1
 40
1
 10
72.057996
 20
16.940538
 30
0.0
 10
70.899491
 20
16.792019
 30
0.0
 10
68.236695
 20
16.858935
 30
0.0
 10
67.193880
 20
17.062773
 30
0.0
  0
SPLINE
  5
134
100
AcDbEntity
  8
Layer_1
 62
7
100
AcDbSpline
 70
8
 71
3
 72
8
 73
4
 74
0
 40
0
 40
0
 40
0
 40
0
 40
1
 40
1
 40
1
 40
1
 10
67.193880
 20
17.062773
 30
0.0
 10
66.472295
 20
17.203820
 30
0.0
 10
66.409054
 20
17.203330
 30
0.0
 10
65.585213
 20
17.050284
 30
0.0
  0
SPLINE
  5
135
100
AcDbEntity
  8
Layer_1
 62
7
100
AcDbSpline
 70
8
 71
3
 72
8
 73
4
 74
0
 40
0
 40
0
 40
0
 40
0
 40
1
 40
1
 40
1
 40
1
 10
65.585213
 20
17.050284
 30
0.0
 10
64.380626
 20
16.826526
 30
0.0
 10
61.021584
 20
16.823084
 30
0.0
 10
59.901659
 20
17.044464
 30
0.0
  0
SPLINE
  5
136
100
AcDbEntity
  8
Layer_1
 62
7
100
AcDbSpline
 70
8
 71
3
 72
8
 73
4
 74
0
 40
0
 40
0
 40
0
 40
0
 40
1
 40
1
 40
1
 40
1
 10
59.901659
 20
17.044464
 30
0.0
 10
58.731838
 20
17.275702
 30
0.0
 10
57.620567
 20
17.592664
 30
0.0
 10
56.675031
 20
17.964780
 30
0.0
  0
LWPOLYLINE
  5
137
100
AcDbEntity
  8
Layer_1
 62
7
100
AcDbPolyline
 90
3
 70
0
 10
97.396107
 20
46.396108
 30
0.0
 10
97.113251
 20
45.929214
 30
0.0
 10
97.283109
 20
45.337775
 30
0.0
  0
SPLINE
  5
138
100
AcDbEntity
  8
Layer_1
 62
7
100
AcDbSpline
 70
8
 71
3
 72
8
 73
4
 74
0
 40
0
 40
0
 40
0
 40
0
 40
1
 40
1
 40
1
 40
1
 10
54.891768
 20
18.004372
 30
0.0
 10
51.469359
 20
16.897982
 30
0.0
 10
47.903238
 20
16.923912
 30
0.0
 10
44.474310
 20
18.080117
 30
0.0
  0
SPLINE
  5
139
100
AcDbEntity
  8
Layer_1
 62
7
100
AcDbSpline
 70
8
 71
3
 72
8
 73
4
 74
0
 40
0
 40
0
 40
0
 40
0
 40
1
 40
1
 40
1
 40
1
 10
44.474310
 20
18.080117
 30
0.0
 10
43.440607
 20
18.428671
 30
0.0
 10
43.290143
 20
18.457325
 30
0.0
 10
42.493578
 20
18.457325
 30
0.0
  0
SPLINE
  5
13a
100
AcDbEntity
  8
Layer_1
 62
7
100
AcDbSpline
 70
8
 71
3
 72
8
 73
4
 74
0
 40
0
 40
0
 40
0
 40
0
 40
1
 40
1
 40
1
 40
1
 10
42.493578
 20
18.457325
 30
0.0
 10
41.648642
 20
18.457325
 30
0.0
 10
41.614651
 20
18.449600
 30
0.0
 10
40.781518
 20
18.067695
 30
0.0
  0
SPLINE
  5
13b
100
AcDbEntity
  8
Layer_1
 62
7
100
AcDbSpline
 70
8
 71
3
 72
8
 73
4
 74
0
 40
0
 40
0
 40
0
 40
0
 40
1
 40
1
 40
1
 40
1
 10
40.781518
 20
18.067695
 30
0.0
 10
39.675088
 20
17.560528
 30
0.0
 10
38.426416
 20
17.155345
 30
0.0
 10
37.096361
 20
16.871900
 30
0.0
  0
SPLINE
  5
13c
100
AcDbEntity
  8
Layer_1
 62
7
100
AcDbSpline
 70
8
 71
3
 72
8
 73
4
 74
0
 40
0
 40
0
 40
0
 40
0
 40
1
 40
1
 40
1
 40
1
 10
37.096361
 20
16.871900
 30
0.0
 10
36.103208
 20
16.660254
 30
0.0
 10
35.875415
 20
16.643482
 30
0.0
 10
33.951323
 20
16.640360
 30
0.0
  0
SPLINE
  5
13d
100
AcDbEntity
  8
Layer_1
 62
7
100
AcDbSpline
 70
8
 71
3
 72
8
 73
4
 74
0
 40
0
 40
0
 40
0
 40
0
 40
1
 40
1
 40
1
 40
1
 10
33.951323
 20
16.640360
 30
0.0
 10
32.123253
 20
16.637397
 30
0.0
 10
31.764878
 20
16.659728
 30
0.0
 10
30.932631
 20
16.828492
 30
0.0
  0
SPLINE
  5
13e
100
AcDbEntity
  8
Layer_1
 62
7
100
AcDbSpline
 70
8
 71
3
 72
8
 73
4
 74
0
 40
0
 40
0
 40
0
 40
0
 40
1
 40
1
 40
1
 40
1
 10
30.932631
 20
16.828492
 30
0.0
 10
30.215724
 20
16.973867
 30
0.0
 10
29.933344
 20
16.999109
 30
0.0
 10
29.760217
 20
16.933286
 30
0.0
  0
SPLINE
  5
13f
100
AcDbEntity
  8
Layer_1
 62
7
100
AcDbSpline
 70
8
 71
3
 72
8
 73
4
 74
0
 40
0
 40
0
 40
0
 40
0
 40
1
 40
1
 40
1
 40
1
 10
29.760217
 20
16.933286
 30
0.0
 10
29.634789
 20
16.885597
 30
0.0
 10
29.069149
 20
16.748506
 30
0.0
 10
28.503242
 20
16.628637
 30
0.0
  0
SPLINE
  5
140
100
AcDbEntity
  8
Layer_1
 62
7
100
AcDbSpline
 70
8
 71
3
 72
8
 73
4
 74
0
 40
0
 40
0
 40
0
 40
0
 40
1
 40
1
 40
1
 40
1
 10
28.503242
 20
16.628637
 30
0.0
 10
27.616809
 20
16.440875
 30
0.0
 10
27.216380
 20
16.406601
 30
0.0
 10
25.611657
 20
16.381135
 30
0.0
  0
SPLINE
  5
141
100
AcDbEntity
  8
Layer_1
 62
7
100
AcDbSpline
 70
8
 71
3
 72
8
 73
4
 74
0
 40
0
 40
0
 40
0
 40
0
 40
1
 40
1
 40
1
 40
1
 10
25.611657
 20
16.381135
 30
0.0
 10
24.587190
 20
16.364863
 30
0.0
 10
23.501340
 20
16.385791
 30
0.0
 10
23.198657
 20
16.427633
 30
0.0
  0
LWPOLYLINE
  5
142
100
AcDbEntity
  8
Layer_1
 62
7
100
AcDbPolyline
 90
3
 70
0
 10
56.675031
 20
17.964780
 30
0.0
 10
55.815577
 20
18.303020
 30
0.0
 10
54.891768
 20
18.004372
 30
0.0
  0
LWPOLYLINE
  5
143
100
AcDbEntity
  8
Layer_1
 62
7
100
AcDbPolyline
 90
1
 70
1
 10
23.198657
 20
16.427633
 30
0.0
  0
ENDSEC
  0
SECTION
  2
OBJECTS
  0
DICTIONARY
  5
C
330
0
100
AcDbDictionary
  3
ACAD_GROUP
350
D
  3
ACAD_MLINESTYLE
350
17
  0
DICTIONARY
  5
D
330
C
100
AcDbDictionary
  0
DICTIONARY
  5
1A
330
C
100
AcDbDictionary
  0
DICTIONARY
  5
17
330
C
100
AcDbDictionary
  3
STANDARD
350
18
  0
DICTIONARY
  5
19
330
C
100
AcDbDictionary
  0
ENDSEC
  0
EOF
