G04 #@! TF.GenerationSoftware,KiCad,Pcbnew,5.1.5-52549c5~84~ubuntu18.04.1*
G04 #@! TF.CreationDate,2019-11-28T18:03:46-08:00*
G04 #@! TF.ProjectId,edison-led-3x4-pmod,65646973-6f6e-42d6-9c65-642d3378342d,rev?*
G04 #@! TF.SameCoordinates,PX68aa6f0PY527e2a0*
G04 #@! TF.FileFunction,Soldermask,Bot*
G04 #@! TF.FilePolarity,Negative*
%FSLAX46Y46*%
G04 Gerber Fmt 4.6, Leading zero omitted, Abs format (unit mm)*
G04 Created by KiCad (PCBNEW 5.1.5-52549c5~84~ubuntu18.04.1) date 2019-11-28 18:03:46*
%MOMM*%
%LPD*%
G04 APERTURE LIST*
%ADD10C,0.100000*%
G04 APERTURE END LIST*
D10*
G36*
X2629591Y-13803085D02*
G01*
X2663569Y-13813393D01*
X2694890Y-13830134D01*
X2722339Y-13852661D01*
X2744866Y-13880110D01*
X2761607Y-13911431D01*
X2771915Y-13945409D01*
X2776000Y-13986890D01*
X2776000Y-14588110D01*
X2771915Y-14629591D01*
X2761607Y-14663569D01*
X2744866Y-14694890D01*
X2722339Y-14722339D01*
X2694890Y-14744866D01*
X2663569Y-14761607D01*
X2629591Y-14771915D01*
X2588110Y-14776000D01*
X1911890Y-14776000D01*
X1870409Y-14771915D01*
X1836431Y-14761607D01*
X1805110Y-14744866D01*
X1777661Y-14722339D01*
X1755134Y-14694890D01*
X1738393Y-14663569D01*
X1728085Y-14629591D01*
X1724000Y-14588110D01*
X1724000Y-13986890D01*
X1728085Y-13945409D01*
X1738393Y-13911431D01*
X1755134Y-13880110D01*
X1777661Y-13852661D01*
X1805110Y-13830134D01*
X1836431Y-13813393D01*
X1870409Y-13803085D01*
X1911890Y-13799000D01*
X2588110Y-13799000D01*
X2629591Y-13803085D01*
G37*
G36*
X5910442Y-12955518D02*
G01*
X5976627Y-12962037D01*
X6146466Y-13013557D01*
X6302991Y-13097222D01*
X6330612Y-13119890D01*
X6440186Y-13209814D01*
X6523448Y-13311271D01*
X6552778Y-13347009D01*
X6636443Y-13503534D01*
X6687963Y-13673373D01*
X6705359Y-13850000D01*
X6687963Y-14026627D01*
X6636443Y-14196466D01*
X6552778Y-14352991D01*
X6523448Y-14388729D01*
X6440186Y-14490186D01*
X6338729Y-14573448D01*
X6302991Y-14602778D01*
X6146466Y-14686443D01*
X5976627Y-14737963D01*
X5910443Y-14744481D01*
X5844260Y-14751000D01*
X4915740Y-14751000D01*
X4849558Y-14744482D01*
X4783373Y-14737963D01*
X4613534Y-14686443D01*
X4457009Y-14602778D01*
X4421271Y-14573448D01*
X4319814Y-14490186D01*
X4236552Y-14388729D01*
X4207222Y-14352991D01*
X4123557Y-14196466D01*
X4072037Y-14026627D01*
X4054641Y-13850000D01*
X4072037Y-13673373D01*
X4123557Y-13503534D01*
X4207222Y-13347009D01*
X4236552Y-13311271D01*
X4319814Y-13209814D01*
X4429388Y-13119890D01*
X4457009Y-13097222D01*
X4613534Y-13013557D01*
X4783373Y-12962037D01*
X4849558Y-12955518D01*
X4915740Y-12949000D01*
X5844260Y-12949000D01*
X5910442Y-12955518D01*
G37*
G36*
X2629591Y-12228085D02*
G01*
X2663569Y-12238393D01*
X2694890Y-12255134D01*
X2722339Y-12277661D01*
X2744866Y-12305110D01*
X2761607Y-12336431D01*
X2771915Y-12370409D01*
X2776000Y-12411890D01*
X2776000Y-13013110D01*
X2771915Y-13054591D01*
X2761607Y-13088569D01*
X2744866Y-13119890D01*
X2722339Y-13147339D01*
X2694890Y-13169866D01*
X2663569Y-13186607D01*
X2629591Y-13196915D01*
X2588110Y-13201000D01*
X1911890Y-13201000D01*
X1870409Y-13196915D01*
X1836431Y-13186607D01*
X1805110Y-13169866D01*
X1777661Y-13147339D01*
X1755134Y-13119890D01*
X1738393Y-13088569D01*
X1728085Y-13054591D01*
X1724000Y-13013110D01*
X1724000Y-12411890D01*
X1728085Y-12370409D01*
X1738393Y-12336431D01*
X1755134Y-12305110D01*
X1777661Y-12277661D01*
X1805110Y-12255134D01*
X1836431Y-12238393D01*
X1870409Y-12228085D01*
X1911890Y-12224000D01*
X2588110Y-12224000D01*
X2629591Y-12228085D01*
G37*
G36*
X5910442Y-10415518D02*
G01*
X5976627Y-10422037D01*
X6146466Y-10473557D01*
X6302991Y-10557222D01*
X6330016Y-10579401D01*
X6440186Y-10669814D01*
X6512071Y-10757408D01*
X6552778Y-10807009D01*
X6636443Y-10963534D01*
X6687963Y-11133373D01*
X6705359Y-11310000D01*
X6687963Y-11486627D01*
X6636443Y-11656466D01*
X6552778Y-11812991D01*
X6523448Y-11848729D01*
X6440186Y-11950186D01*
X6338729Y-12033448D01*
X6302991Y-12062778D01*
X6146466Y-12146443D01*
X5976627Y-12197963D01*
X5910443Y-12204481D01*
X5844260Y-12211000D01*
X4915740Y-12211000D01*
X4849558Y-12204482D01*
X4783373Y-12197963D01*
X4613534Y-12146443D01*
X4457009Y-12062778D01*
X4421271Y-12033448D01*
X4319814Y-11950186D01*
X4236552Y-11848729D01*
X4207222Y-11812991D01*
X4123557Y-11656466D01*
X4072037Y-11486627D01*
X4054641Y-11310000D01*
X4072037Y-11133373D01*
X4123557Y-10963534D01*
X4207222Y-10807009D01*
X4247929Y-10757408D01*
X4319814Y-10669814D01*
X4429984Y-10579401D01*
X4457009Y-10557222D01*
X4613534Y-10473557D01*
X4783373Y-10422037D01*
X4849558Y-10415518D01*
X4915740Y-10409000D01*
X5844260Y-10409000D01*
X5910442Y-10415518D01*
G37*
G36*
X2629591Y-9803085D02*
G01*
X2663569Y-9813393D01*
X2694890Y-9830134D01*
X2722339Y-9852661D01*
X2744866Y-9880110D01*
X2761607Y-9911431D01*
X2771915Y-9945409D01*
X2776000Y-9986890D01*
X2776000Y-10588110D01*
X2771915Y-10629591D01*
X2761607Y-10663569D01*
X2744866Y-10694890D01*
X2722339Y-10722339D01*
X2694890Y-10744866D01*
X2663569Y-10761607D01*
X2629591Y-10771915D01*
X2588110Y-10776000D01*
X1911890Y-10776000D01*
X1870409Y-10771915D01*
X1836431Y-10761607D01*
X1805110Y-10744866D01*
X1777661Y-10722339D01*
X1755134Y-10694890D01*
X1738393Y-10663569D01*
X1728085Y-10629591D01*
X1724000Y-10588110D01*
X1724000Y-9986890D01*
X1728085Y-9945409D01*
X1738393Y-9911431D01*
X1755134Y-9880110D01*
X1777661Y-9852661D01*
X1805110Y-9830134D01*
X1836431Y-9813393D01*
X1870409Y-9803085D01*
X1911890Y-9799000D01*
X2588110Y-9799000D01*
X2629591Y-9803085D01*
G37*
G36*
X5910442Y-7875518D02*
G01*
X5976627Y-7882037D01*
X6146466Y-7933557D01*
X6302991Y-8017222D01*
X6338729Y-8046552D01*
X6440186Y-8129814D01*
X6517481Y-8224000D01*
X6552778Y-8267009D01*
X6636443Y-8423534D01*
X6687963Y-8593373D01*
X6705359Y-8770000D01*
X6687963Y-8946627D01*
X6636443Y-9116466D01*
X6552778Y-9272991D01*
X6523448Y-9308729D01*
X6440186Y-9410186D01*
X6338729Y-9493448D01*
X6302991Y-9522778D01*
X6146466Y-9606443D01*
X5976627Y-9657963D01*
X5910442Y-9664482D01*
X5844260Y-9671000D01*
X4915740Y-9671000D01*
X4849557Y-9664481D01*
X4783373Y-9657963D01*
X4613534Y-9606443D01*
X4457009Y-9522778D01*
X4421271Y-9493448D01*
X4319814Y-9410186D01*
X4236552Y-9308729D01*
X4207222Y-9272991D01*
X4123557Y-9116466D01*
X4072037Y-8946627D01*
X4054641Y-8770000D01*
X4072037Y-8593373D01*
X4123557Y-8423534D01*
X4207222Y-8267009D01*
X4242519Y-8224000D01*
X4319814Y-8129814D01*
X4421271Y-8046552D01*
X4457009Y-8017222D01*
X4613534Y-7933557D01*
X4783373Y-7882037D01*
X4849558Y-7875518D01*
X4915740Y-7869000D01*
X5844260Y-7869000D01*
X5910442Y-7875518D01*
G37*
G36*
X2629591Y-8228085D02*
G01*
X2663569Y-8238393D01*
X2694890Y-8255134D01*
X2722339Y-8277661D01*
X2744866Y-8305110D01*
X2761607Y-8336431D01*
X2771915Y-8370409D01*
X2776000Y-8411890D01*
X2776000Y-9013110D01*
X2771915Y-9054591D01*
X2761607Y-9088569D01*
X2744866Y-9119890D01*
X2722339Y-9147339D01*
X2694890Y-9169866D01*
X2663569Y-9186607D01*
X2629591Y-9196915D01*
X2588110Y-9201000D01*
X1911890Y-9201000D01*
X1870409Y-9196915D01*
X1836431Y-9186607D01*
X1805110Y-9169866D01*
X1777661Y-9147339D01*
X1755134Y-9119890D01*
X1738393Y-9088569D01*
X1728085Y-9054591D01*
X1724000Y-9013110D01*
X1724000Y-8411890D01*
X1728085Y-8370409D01*
X1738393Y-8336431D01*
X1755134Y-8305110D01*
X1777661Y-8277661D01*
X1805110Y-8255134D01*
X1836431Y-8238393D01*
X1870409Y-8228085D01*
X1911890Y-8224000D01*
X2588110Y-8224000D01*
X2629591Y-8228085D01*
G37*
G36*
X5910443Y-5335519D02*
G01*
X5976627Y-5342037D01*
X6146466Y-5393557D01*
X6302991Y-5477222D01*
X6338729Y-5506552D01*
X6440186Y-5589814D01*
X6523448Y-5691271D01*
X6552778Y-5727009D01*
X6636443Y-5883534D01*
X6687963Y-6053373D01*
X6705359Y-6230000D01*
X6687963Y-6406627D01*
X6636443Y-6576466D01*
X6552778Y-6732991D01*
X6543032Y-6744866D01*
X6440186Y-6870186D01*
X6338729Y-6953448D01*
X6302991Y-6982778D01*
X6146466Y-7066443D01*
X5976627Y-7117963D01*
X5910442Y-7124482D01*
X5844260Y-7131000D01*
X4915740Y-7131000D01*
X4849558Y-7124482D01*
X4783373Y-7117963D01*
X4613534Y-7066443D01*
X4457009Y-6982778D01*
X4421271Y-6953448D01*
X4319814Y-6870186D01*
X4216968Y-6744866D01*
X4207222Y-6732991D01*
X4123557Y-6576466D01*
X4072037Y-6406627D01*
X4054641Y-6230000D01*
X4072037Y-6053373D01*
X4123557Y-5883534D01*
X4207222Y-5727009D01*
X4236552Y-5691271D01*
X4319814Y-5589814D01*
X4421271Y-5506552D01*
X4457009Y-5477222D01*
X4613534Y-5393557D01*
X4783373Y-5342037D01*
X4849557Y-5335519D01*
X4915740Y-5329000D01*
X5844260Y-5329000D01*
X5910443Y-5335519D01*
G37*
G36*
X2629591Y-5803085D02*
G01*
X2663569Y-5813393D01*
X2694890Y-5830134D01*
X2722339Y-5852661D01*
X2744866Y-5880110D01*
X2761607Y-5911431D01*
X2771915Y-5945409D01*
X2776000Y-5986890D01*
X2776000Y-6588110D01*
X2771915Y-6629591D01*
X2761607Y-6663569D01*
X2744866Y-6694890D01*
X2722339Y-6722339D01*
X2694890Y-6744866D01*
X2663569Y-6761607D01*
X2629591Y-6771915D01*
X2588110Y-6776000D01*
X1911890Y-6776000D01*
X1870409Y-6771915D01*
X1836431Y-6761607D01*
X1805110Y-6744866D01*
X1777661Y-6722339D01*
X1755134Y-6694890D01*
X1738393Y-6663569D01*
X1728085Y-6629591D01*
X1724000Y-6588110D01*
X1724000Y-5986890D01*
X1728085Y-5945409D01*
X1738393Y-5911431D01*
X1755134Y-5880110D01*
X1777661Y-5852661D01*
X1805110Y-5830134D01*
X1836431Y-5813393D01*
X1870409Y-5803085D01*
X1911890Y-5799000D01*
X2588110Y-5799000D01*
X2629591Y-5803085D01*
G37*
G36*
X2629591Y-4228085D02*
G01*
X2663569Y-4238393D01*
X2694890Y-4255134D01*
X2722339Y-4277661D01*
X2744866Y-4305110D01*
X2761607Y-4336431D01*
X2771915Y-4370409D01*
X2776000Y-4411890D01*
X2776000Y-5013110D01*
X2771915Y-5054591D01*
X2761607Y-5088569D01*
X2744866Y-5119890D01*
X2722339Y-5147339D01*
X2694890Y-5169866D01*
X2663569Y-5186607D01*
X2629591Y-5196915D01*
X2588110Y-5201000D01*
X1911890Y-5201000D01*
X1870409Y-5196915D01*
X1836431Y-5186607D01*
X1805110Y-5169866D01*
X1777661Y-5147339D01*
X1755134Y-5119890D01*
X1738393Y-5088569D01*
X1728085Y-5054591D01*
X1724000Y-5013110D01*
X1724000Y-4411890D01*
X1728085Y-4370409D01*
X1738393Y-4336431D01*
X1755134Y-4305110D01*
X1777661Y-4277661D01*
X1805110Y-4255134D01*
X1836431Y-4238393D01*
X1870409Y-4228085D01*
X1911890Y-4224000D01*
X2588110Y-4224000D01*
X2629591Y-4228085D01*
G37*
G36*
X5910443Y-2795519D02*
G01*
X5976627Y-2802037D01*
X6146466Y-2853557D01*
X6302991Y-2937222D01*
X6338729Y-2966552D01*
X6440186Y-3049814D01*
X6523448Y-3151271D01*
X6552778Y-3187009D01*
X6636443Y-3343534D01*
X6687963Y-3513373D01*
X6705359Y-3690000D01*
X6687963Y-3866627D01*
X6636443Y-4036466D01*
X6552778Y-4192991D01*
X6527329Y-4224000D01*
X6440186Y-4330186D01*
X6340628Y-4411890D01*
X6302991Y-4442778D01*
X6146466Y-4526443D01*
X5976627Y-4577963D01*
X5910443Y-4584481D01*
X5844260Y-4591000D01*
X4915740Y-4591000D01*
X4849557Y-4584481D01*
X4783373Y-4577963D01*
X4613534Y-4526443D01*
X4457009Y-4442778D01*
X4419372Y-4411890D01*
X4319814Y-4330186D01*
X4232671Y-4224000D01*
X4207222Y-4192991D01*
X4123557Y-4036466D01*
X4072037Y-3866627D01*
X4054641Y-3690000D01*
X4072037Y-3513373D01*
X4123557Y-3343534D01*
X4207222Y-3187009D01*
X4236552Y-3151271D01*
X4319814Y-3049814D01*
X4421271Y-2966552D01*
X4457009Y-2937222D01*
X4613534Y-2853557D01*
X4783373Y-2802037D01*
X4849557Y-2795519D01*
X4915740Y-2789000D01*
X5844260Y-2789000D01*
X5910443Y-2795519D01*
G37*
G36*
X2629591Y-1803085D02*
G01*
X2663569Y-1813393D01*
X2694890Y-1830134D01*
X2722339Y-1852661D01*
X2744866Y-1880110D01*
X2761607Y-1911431D01*
X2771915Y-1945409D01*
X2776000Y-1986890D01*
X2776000Y-2588110D01*
X2771915Y-2629591D01*
X2761607Y-2663569D01*
X2744866Y-2694890D01*
X2722339Y-2722339D01*
X2694890Y-2744866D01*
X2663569Y-2761607D01*
X2629591Y-2771915D01*
X2588110Y-2776000D01*
X1911890Y-2776000D01*
X1870409Y-2771915D01*
X1836431Y-2761607D01*
X1805110Y-2744866D01*
X1777661Y-2722339D01*
X1755134Y-2694890D01*
X1738393Y-2663569D01*
X1728085Y-2629591D01*
X1724000Y-2588110D01*
X1724000Y-1986890D01*
X1728085Y-1945409D01*
X1738393Y-1911431D01*
X1755134Y-1880110D01*
X1777661Y-1852661D01*
X1805110Y-1830134D01*
X1836431Y-1813393D01*
X1870409Y-1803085D01*
X1911890Y-1799000D01*
X2588110Y-1799000D01*
X2629591Y-1803085D01*
G37*
G36*
X5906539Y-255134D02*
G01*
X5976627Y-262037D01*
X6146466Y-313557D01*
X6302991Y-397222D01*
X6331476Y-420599D01*
X6440186Y-509814D01*
X6523448Y-611271D01*
X6552778Y-647009D01*
X6636443Y-803534D01*
X6687963Y-973373D01*
X6705359Y-1150000D01*
X6687963Y-1326627D01*
X6636443Y-1496466D01*
X6552778Y-1652991D01*
X6523448Y-1688729D01*
X6440186Y-1790186D01*
X6342274Y-1870539D01*
X6302991Y-1902778D01*
X6146466Y-1986443D01*
X5976627Y-2037963D01*
X5922946Y-2043250D01*
X5844260Y-2051000D01*
X4915740Y-2051000D01*
X4837054Y-2043250D01*
X4783373Y-2037963D01*
X4613534Y-1986443D01*
X4457009Y-1902778D01*
X4417726Y-1870539D01*
X4319814Y-1790186D01*
X4236552Y-1688729D01*
X4207222Y-1652991D01*
X4123557Y-1496466D01*
X4072037Y-1326627D01*
X4054641Y-1150000D01*
X4072037Y-973373D01*
X4123557Y-803534D01*
X4207222Y-647009D01*
X4236552Y-611271D01*
X4319814Y-509814D01*
X4428524Y-420599D01*
X4457009Y-397222D01*
X4613534Y-313557D01*
X4783373Y-262037D01*
X4853461Y-255134D01*
X4915740Y-249000D01*
X5844260Y-249000D01*
X5906539Y-255134D01*
G37*
G36*
X2629591Y-228085D02*
G01*
X2663569Y-238393D01*
X2694890Y-255134D01*
X2722339Y-277661D01*
X2744866Y-305110D01*
X2761607Y-336431D01*
X2771915Y-370409D01*
X2776000Y-411890D01*
X2776000Y-1013110D01*
X2771915Y-1054591D01*
X2761607Y-1088569D01*
X2744866Y-1119890D01*
X2722339Y-1147339D01*
X2694890Y-1169866D01*
X2663569Y-1186607D01*
X2629591Y-1196915D01*
X2588110Y-1201000D01*
X1911890Y-1201000D01*
X1870409Y-1196915D01*
X1836431Y-1186607D01*
X1805110Y-1169866D01*
X1777661Y-1147339D01*
X1755134Y-1119890D01*
X1738393Y-1088569D01*
X1728085Y-1054591D01*
X1724000Y-1013110D01*
X1724000Y-411890D01*
X1728085Y-370409D01*
X1738393Y-336431D01*
X1755134Y-305110D01*
X1777661Y-277661D01*
X1805110Y-255134D01*
X1836431Y-238393D01*
X1870409Y-228085D01*
X1911890Y-224000D01*
X2588110Y-224000D01*
X2629591Y-228085D01*
G37*
M02*
