G04 #@! TF.GenerationSoftware,KiCad,Pcbnew,5.1.5-52549c5~84~ubuntu18.04.1*
G04 #@! TF.CreationDate,2019-11-28T18:03:46-08:00*
G04 #@! TF.ProjectId,edison-led-3x4-pmod,65646973-6f6e-42d6-9c65-642d3378342d,rev?*
G04 #@! TF.SameCoordinates,PX68aa6f0PY527e2a0*
G04 #@! TF.FileFunction,Legend,Bot*
G04 #@! TF.FilePolarity,Positive*
%FSLAX46Y46*%
G04 Gerber Fmt 4.6, Leading zero omitted, Abs format (unit mm)*
G04 Created by KiCad (PCBNEW 5.1.5-52549c5~84~ubuntu18.04.1) date 2019-11-28 18:03:46*
%MOMM*%
%LPD*%
G04 APERTURE LIST*
%ADD10C,0.300000*%
%ADD11C,0.120000*%
%ADD12C,0.150000*%
G04 APERTURE END LIST*
D10*
X14526261Y-389508D02*
X13913435Y-1002334D01*
X14620542Y-1049474D01*
X14479120Y-1190895D01*
X14431980Y-1332317D01*
X14431980Y-1426598D01*
X14479120Y-1568019D01*
X14714823Y-1803721D01*
X14856244Y-1850862D01*
X14950525Y-1850862D01*
X15091946Y-1803721D01*
X15374789Y-1520879D01*
X15421930Y-1379457D01*
X15421930Y-1285176D01*
X14573401Y-2322266D02*
X13394890Y-2180845D01*
X13913435Y-1662300D02*
X14054856Y-2840811D01*
X12593502Y-2982233D02*
X13253469Y-3642199D01*
X12452081Y-2369407D02*
X13394890Y-2840811D01*
X12782064Y-3453637D01*
X12357800Y-3783620D02*
X11603553Y-4537867D01*
X10849306Y-4726429D02*
X11839255Y-5716379D01*
X10896446Y-4773570D02*
X10755025Y-4820710D01*
X10566463Y-5009272D01*
X10519322Y-5150693D01*
X10519322Y-5244974D01*
X10566463Y-5386396D01*
X10849306Y-5669238D01*
X10990727Y-5716379D01*
X11085008Y-5716379D01*
X11226429Y-5669238D01*
X11414991Y-5480677D01*
X11462132Y-5339255D01*
X10613603Y-6282064D02*
X9953637Y-5622098D01*
X10047918Y-5716379D02*
X9953637Y-5716379D01*
X9812216Y-5763519D01*
X9670794Y-5904941D01*
X9623654Y-6046362D01*
X9670794Y-6187783D01*
X10189339Y-6706328D01*
X9670794Y-6187783D02*
X9529373Y-6140643D01*
X9387952Y-6187783D01*
X9246530Y-6329205D01*
X9199390Y-6470626D01*
X9246530Y-6612047D01*
X9765075Y-7130592D01*
X9152249Y-7743418D02*
X9199390Y-7601997D01*
X9199390Y-7507716D01*
X9152249Y-7366295D01*
X8869407Y-7083452D01*
X8727985Y-7036311D01*
X8633704Y-7036311D01*
X8492283Y-7083452D01*
X8350862Y-7224873D01*
X8303721Y-7366295D01*
X8303721Y-7460575D01*
X8350862Y-7601997D01*
X8633704Y-7884840D01*
X8775126Y-7931980D01*
X8869407Y-7931980D01*
X9010828Y-7884840D01*
X9152249Y-7743418D01*
X7973738Y-8921930D02*
X6983789Y-7931980D01*
X7926598Y-8874789D02*
X8068019Y-8827649D01*
X8256581Y-8639087D01*
X8303721Y-8497665D01*
X8303721Y-8403385D01*
X8256581Y-8261963D01*
X7973738Y-7979120D01*
X7832317Y-7931980D01*
X7738036Y-7931980D01*
X7596614Y-7979120D01*
X7408053Y-8167682D01*
X7360912Y-8309104D01*
X15452081Y-6123654D02*
X15876345Y-7019322D01*
X14980677Y-6595058D01*
X14744974Y-8150693D02*
X15310660Y-7585008D01*
X15027817Y-7867851D02*
X14037867Y-6877901D01*
X14273570Y-6925042D01*
X14462132Y-6925042D01*
X14603553Y-6877901D01*
X14226429Y-8480677D02*
X14226429Y-8574957D01*
X14320710Y-8574957D01*
X14320710Y-8480677D01*
X14226429Y-8480677D01*
X14320710Y-8574957D01*
X12670794Y-8244974D02*
X12576513Y-8339255D01*
X12529373Y-8480677D01*
X12529373Y-8574957D01*
X12576513Y-8716379D01*
X12717935Y-8952081D01*
X12953637Y-9187783D01*
X13189339Y-9329205D01*
X13330761Y-9376345D01*
X13425042Y-9376345D01*
X13566463Y-9329205D01*
X13660744Y-9234924D01*
X13707884Y-9093502D01*
X13707884Y-8999221D01*
X13660744Y-8857800D01*
X13519322Y-8622098D01*
X13283620Y-8386396D01*
X13047918Y-8244974D01*
X12906497Y-8197834D01*
X12812216Y-8197834D01*
X12670794Y-8244974D01*
X16931202Y-1394533D02*
X16554078Y-1771657D01*
X16459797Y-1205971D02*
X17308326Y-2054499D01*
X17355466Y-2195921D01*
X17308326Y-2337342D01*
X17214045Y-2431623D01*
X16742640Y-2903027D02*
X16789781Y-2761606D01*
X16789781Y-2667325D01*
X16742640Y-2525904D01*
X16459797Y-2243061D01*
X16318376Y-2195921D01*
X16224095Y-2195921D01*
X16082674Y-2243061D01*
X15941253Y-2384482D01*
X15894112Y-2525904D01*
X15894112Y-2620185D01*
X15941253Y-2761606D01*
X16224095Y-3044449D01*
X16365517Y-3091589D01*
X16459797Y-3091589D01*
X16601219Y-3044449D01*
X16742640Y-2903027D01*
X15988393Y-3657275D02*
X15328427Y-2997308D01*
X15422708Y-3091589D02*
X15328427Y-3091589D01*
X15187005Y-3138730D01*
X15045584Y-3280151D01*
X14998443Y-3421572D01*
X15045584Y-3562994D01*
X15564129Y-4081539D01*
X15045584Y-3562994D02*
X14904163Y-3515853D01*
X14762741Y-3562994D01*
X14621320Y-3704415D01*
X14574179Y-3845836D01*
X14621320Y-3987258D01*
X15139865Y-4505803D01*
X13584230Y-5118629D02*
X13584230Y-5024348D01*
X13631370Y-4882926D01*
X13725651Y-4788645D01*
X13867073Y-4741505D01*
X13961354Y-4741505D01*
X14102775Y-4788645D01*
X14197056Y-4882926D01*
X14244196Y-5024348D01*
X14244196Y-5118629D01*
X14197056Y-5260050D01*
X14102775Y-5354331D01*
X13961354Y-5401471D01*
X13867073Y-5401471D01*
X13489949Y-5024348D02*
X13867073Y-5401471D01*
X13867073Y-5495752D01*
X13819932Y-5542893D01*
X13678511Y-5590033D01*
X13537089Y-5542893D01*
X13301387Y-5307190D01*
X13254247Y-5071488D01*
X13301387Y-4835786D01*
X13442809Y-4600084D01*
X13678511Y-4458662D01*
X13914213Y-4411522D01*
X14149915Y-4458662D01*
X14385618Y-4600084D01*
X14527039Y-4835786D01*
X14574179Y-5071488D01*
X14527039Y-5307190D01*
X14385618Y-5542893D01*
X14149915Y-5684314D01*
X13914213Y-5731455D01*
X12877123Y-5448612D02*
X12500000Y-5825735D01*
X12405719Y-5260050D02*
X13254247Y-6108578D01*
X13301387Y-6250000D01*
X13254247Y-6391421D01*
X13159966Y-6485702D01*
X12688561Y-6957106D02*
X12735702Y-6815685D01*
X12735702Y-6721404D01*
X12688561Y-6579983D01*
X12405719Y-6297140D01*
X12264297Y-6250000D01*
X12170016Y-6250000D01*
X12028595Y-6297140D01*
X11887174Y-6438561D01*
X11840033Y-6579983D01*
X11840033Y-6674264D01*
X11887174Y-6815685D01*
X12170016Y-7098528D01*
X12311438Y-7145668D01*
X12405719Y-7145668D01*
X12547140Y-7098528D01*
X12688561Y-6957106D01*
X11934314Y-7711354D02*
X11274348Y-7051387D01*
X11368629Y-7145668D02*
X11274348Y-7145668D01*
X11132926Y-7192809D01*
X10991505Y-7334230D01*
X10944365Y-7475651D01*
X10991505Y-7617073D01*
X11510050Y-8135618D01*
X10991505Y-7617073D02*
X10850084Y-7569932D01*
X10708662Y-7617073D01*
X10567241Y-7758494D01*
X10520101Y-7899915D01*
X10567241Y-8041337D01*
X11085786Y-8559882D01*
X10614381Y-9031286D02*
X9624432Y-8041337D01*
X10142977Y-8748443D02*
X10237258Y-9408410D01*
X9577291Y-8748443D02*
X10331539Y-8748443D01*
X9718713Y-9738393D02*
X9718713Y-9832674D01*
X9812994Y-9832674D01*
X9812994Y-9738393D01*
X9718713Y-9738393D01*
X9812994Y-9832674D01*
X9341589Y-10304078D02*
X8681623Y-9644112D01*
X8351640Y-9314129D02*
X8445921Y-9314129D01*
X8445921Y-9408410D01*
X8351640Y-9408410D01*
X8351640Y-9314129D01*
X8445921Y-9408410D01*
X8210218Y-10115517D02*
X8870185Y-10775483D01*
X8304499Y-10209797D02*
X8210218Y-10209797D01*
X8068797Y-10256938D01*
X7927376Y-10398359D01*
X7880235Y-10539781D01*
X7927376Y-10681202D01*
X8445921Y-11199747D01*
D11*
X1740000Y-5662779D02*
X1740000Y-5337221D01*
X2760000Y-5662779D02*
X2760000Y-5337221D01*
X1740000Y-9662779D02*
X1740000Y-9337221D01*
X2760000Y-9662779D02*
X2760000Y-9337221D01*
X1740000Y-1662779D02*
X1740000Y-1337221D01*
X2760000Y-1662779D02*
X2760000Y-1337221D01*
X1740000Y-13662779D02*
X1740000Y-13337221D01*
X2760000Y-13662779D02*
X2760000Y-13337221D01*
D12*
X4132380Y-5333333D02*
X3656190Y-5000000D01*
X4132380Y-4761904D02*
X3132380Y-4761904D01*
X3132380Y-5142857D01*
X3180000Y-5238095D01*
X3227619Y-5285714D01*
X3322857Y-5333333D01*
X3465714Y-5333333D01*
X3560952Y-5285714D01*
X3608571Y-5238095D01*
X3656190Y-5142857D01*
X3656190Y-4761904D01*
X3465714Y-6190476D02*
X4132380Y-6190476D01*
X3084761Y-5952380D02*
X3799047Y-5714285D01*
X3799047Y-6333333D01*
X4132380Y-9333333D02*
X3656190Y-9000000D01*
X4132380Y-8761904D02*
X3132380Y-8761904D01*
X3132380Y-9142857D01*
X3180000Y-9238095D01*
X3227619Y-9285714D01*
X3322857Y-9333333D01*
X3465714Y-9333333D01*
X3560952Y-9285714D01*
X3608571Y-9238095D01*
X3656190Y-9142857D01*
X3656190Y-8761904D01*
X3132380Y-9666666D02*
X3132380Y-10285714D01*
X3513333Y-9952380D01*
X3513333Y-10095238D01*
X3560952Y-10190476D01*
X3608571Y-10238095D01*
X3703809Y-10285714D01*
X3941904Y-10285714D01*
X4037142Y-10238095D01*
X4084761Y-10190476D01*
X4132380Y-10095238D01*
X4132380Y-9809523D01*
X4084761Y-9714285D01*
X4037142Y-9666666D01*
X4132380Y-1333333D02*
X3656190Y-1000000D01*
X4132380Y-761904D02*
X3132380Y-761904D01*
X3132380Y-1142857D01*
X3180000Y-1238095D01*
X3227619Y-1285714D01*
X3322857Y-1333333D01*
X3465714Y-1333333D01*
X3560952Y-1285714D01*
X3608571Y-1238095D01*
X3656190Y-1142857D01*
X3656190Y-761904D01*
X3227619Y-1714285D02*
X3180000Y-1761904D01*
X3132380Y-1857142D01*
X3132380Y-2095238D01*
X3180000Y-2190476D01*
X3227619Y-2238095D01*
X3322857Y-2285714D01*
X3418095Y-2285714D01*
X3560952Y-2238095D01*
X4132380Y-1666666D01*
X4132380Y-2285714D01*
X4132380Y-13333333D02*
X3656190Y-13000000D01*
X4132380Y-12761904D02*
X3132380Y-12761904D01*
X3132380Y-13142857D01*
X3180000Y-13238095D01*
X3227619Y-13285714D01*
X3322857Y-13333333D01*
X3465714Y-13333333D01*
X3560952Y-13285714D01*
X3608571Y-13238095D01*
X3656190Y-13142857D01*
X3656190Y-12761904D01*
X4132380Y-14285714D02*
X4132380Y-13714285D01*
X4132380Y-14000000D02*
X3132380Y-14000000D01*
X3275238Y-13904761D01*
X3370476Y-13809523D01*
X3418095Y-13714285D01*
M02*
