G04 #@! TF.GenerationSoftware,KiCad,Pcbnew,8.0.5-1.fc40*
G04 #@! TF.CreationDate,2024-11-15T19:40:01-08:00*
G04 #@! TF.ProjectId,2024-rfid-sao,32303234-2d72-4666-9964-2d73616f2e6b,rev?*
G04 #@! TF.SameCoordinates,Original*
G04 #@! TF.FileFunction,Legend,Top*
G04 #@! TF.FilePolarity,Positive*
%FSLAX46Y46*%
G04 Gerber Fmt 4.6, Leading zero omitted, Abs format (unit mm)*
G04 Created by KiCad (PCBNEW 8.0.5-1.fc40) date 2024-11-15 19:40:01*
%MOMM*%
%LPD*%
G01*
G04 APERTURE LIST*
%ADD10C,0.000000*%
G04 APERTURE END LIST*
D10*
G04 #@! TO.C,G\u002A\u002A\u002A*
G36*
X103280633Y-103885394D02*
G01*
X103135790Y-103885395D01*
X103135790Y-103740551D01*
X103280633Y-103740551D01*
X103280633Y-103885394D01*
G37*
G36*
X54585404Y-135060463D02*
G01*
X54589298Y-135099026D01*
X54483306Y-135165253D01*
X54396174Y-135099026D01*
X54329948Y-134926809D01*
X54396174Y-134905902D01*
X54585404Y-135060463D01*
G37*
G36*
X59621508Y-138341692D02*
G01*
X60104444Y-138559226D01*
X60783284Y-138867449D01*
X61106046Y-139014573D01*
X62732995Y-139757001D01*
X62307081Y-140808404D01*
X62050535Y-141440793D01*
X61849088Y-141935728D01*
X61775239Y-142115984D01*
X61653739Y-142167001D01*
X61382549Y-142007304D01*
X60920661Y-141605432D01*
X60227070Y-140929922D01*
X60219554Y-140922405D01*
X58769798Y-139472650D01*
X59068148Y-138854969D01*
X59284025Y-138443255D01*
X59416122Y-138255838D01*
X59422799Y-138254716D01*
X59621508Y-138341692D01*
G37*
G36*
X32746981Y-109601875D02*
G01*
X35398639Y-110038011D01*
X38117925Y-110757601D01*
X40732778Y-111711859D01*
X41685461Y-112136315D01*
X43133482Y-112818849D01*
X43139939Y-113723537D01*
X43183132Y-114317805D01*
X43293936Y-115174817D01*
X43453121Y-116156951D01*
X43559945Y-116729211D01*
X43973495Y-118830198D01*
X42838363Y-118030164D01*
X40640985Y-116703051D01*
X38217169Y-115635466D01*
X35694976Y-114881589D01*
X35096753Y-114754819D01*
X33799381Y-114502232D01*
X32003400Y-112706252D01*
X30207420Y-110910272D01*
X30921937Y-110195755D01*
X31373843Y-109781882D01*
X31760260Y-109588314D01*
X32256289Y-109558069D01*
X32746981Y-109601875D01*
G37*
G36*
X67663162Y-141211623D02*
G01*
X67743922Y-141228942D01*
X68095278Y-141340048D01*
X68189352Y-141412727D01*
X68150882Y-141639478D01*
X68065668Y-142153767D01*
X67965525Y-142762828D01*
X67823485Y-143522588D01*
X67632133Y-144404633D01*
X67415817Y-145312627D01*
X67198887Y-146150234D01*
X67005694Y-146821117D01*
X66860590Y-147228942D01*
X66818746Y-147299737D01*
X66624708Y-147233465D01*
X66252545Y-146941492D01*
X65999304Y-146702155D01*
X65583710Y-146255431D01*
X65429502Y-145953625D01*
X65491328Y-145670089D01*
X65575400Y-145518300D01*
X65766023Y-145125270D01*
X66046950Y-144455291D01*
X66373279Y-143618137D01*
X66571664Y-143082717D01*
X66896922Y-142199641D01*
X67127047Y-141636864D01*
X67303694Y-141328514D01*
X67468514Y-141208724D01*
X67663162Y-141211623D01*
G37*
G36*
X97748642Y-91771239D02*
G01*
X98254217Y-92242901D01*
X98988532Y-92945218D01*
X99931313Y-93858470D01*
X101062288Y-94962939D01*
X102361183Y-96238907D01*
X103807724Y-97666653D01*
X105381639Y-99226459D01*
X106918247Y-100754729D01*
X117257967Y-111055115D01*
X107061055Y-121208623D01*
X105382527Y-122878544D01*
X103800682Y-124449430D01*
X102337526Y-125899609D01*
X101015058Y-127207410D01*
X99855285Y-128351163D01*
X98880207Y-129309198D01*
X98111827Y-130059843D01*
X97572148Y-130581429D01*
X97283173Y-130852285D01*
X97246256Y-130875185D01*
X99354745Y-127955870D01*
X101073197Y-125053572D01*
X102416914Y-122125842D01*
X103401198Y-119130229D01*
X104041352Y-116024288D01*
X104352677Y-112765570D01*
X104389804Y-111058624D01*
X104191991Y-107454657D01*
X103606680Y-103983121D01*
X102635025Y-100647274D01*
X101278176Y-97450374D01*
X99537289Y-94395679D01*
X97504807Y-91598754D01*
X97492081Y-91549950D01*
X97748642Y-91771239D01*
G37*
G36*
X84088956Y-77886105D02*
G01*
X85797590Y-79596160D01*
X87417650Y-81220333D01*
X88926399Y-82735655D01*
X90301100Y-84119157D01*
X91519012Y-85347871D01*
X92557399Y-86398828D01*
X93393523Y-87249060D01*
X94004644Y-87875598D01*
X94368026Y-88255474D01*
X94465065Y-88367366D01*
X94298522Y-88265827D01*
X93894205Y-87949895D01*
X93322157Y-87475512D01*
X92948432Y-87156125D01*
X90545087Y-85337894D01*
X87862532Y-83771127D01*
X84960037Y-82476492D01*
X81896870Y-81474656D01*
X78732302Y-80786286D01*
X75525601Y-80432051D01*
X73542646Y-80389286D01*
X70063101Y-80617825D01*
X66711441Y-81213475D01*
X63448434Y-82187394D01*
X60234847Y-83550737D01*
X57764658Y-84875659D01*
X56921367Y-85372442D01*
X56246888Y-85788329D01*
X55672024Y-86179111D01*
X55127580Y-86600572D01*
X54544357Y-87108506D01*
X53853160Y-87758697D01*
X52984791Y-88606936D01*
X52311686Y-89272000D01*
X51249011Y-90330764D01*
X50426852Y-91172314D01*
X49788817Y-91861718D01*
X49278517Y-92464043D01*
X48839561Y-93044358D01*
X48415561Y-93667731D01*
X48167121Y-94054379D01*
X46387977Y-97197391D01*
X44990383Y-100405782D01*
X43984849Y-103652807D01*
X43534739Y-105842550D01*
X43379596Y-106752017D01*
X43239699Y-107501621D01*
X43131879Y-108005372D01*
X43078092Y-108175957D01*
X42839950Y-108204307D01*
X42338754Y-108170497D01*
X42037667Y-108132702D01*
X40983657Y-108029305D01*
X39655361Y-107969128D01*
X38185928Y-107952557D01*
X36708506Y-107979980D01*
X35356239Y-108051781D01*
X34704154Y-108111420D01*
X32795613Y-108322079D01*
X53227943Y-87889750D01*
X73660272Y-67457420D01*
X84088956Y-77886105D01*
G37*
G36*
X92853194Y-135259797D02*
G01*
X92627744Y-135523902D01*
X92236639Y-135946987D01*
X91663985Y-136545704D01*
X90893885Y-137336709D01*
X89910445Y-138336654D01*
X88697767Y-139562195D01*
X87239959Y-141029985D01*
X85521122Y-142756681D01*
X83892978Y-144390254D01*
X73805115Y-154507967D01*
X73587851Y-154290702D01*
X73298165Y-154001017D01*
X73008479Y-153711331D01*
X72718794Y-153421646D01*
X72139422Y-152842274D01*
X70980680Y-151683531D01*
X70649423Y-151352275D01*
X67493732Y-148196583D01*
X67915907Y-146663381D01*
X68150726Y-145703262D01*
X68232094Y-145310447D01*
X81988735Y-145310447D01*
X82133578Y-145310447D01*
X82133579Y-145165604D01*
X81988735Y-145165604D01*
X81988735Y-145310447D01*
X68232094Y-145310447D01*
X68388179Y-144556929D01*
X68560870Y-143572333D01*
X81409364Y-143572333D01*
X81554206Y-143572333D01*
X81554207Y-143427490D01*
X81409364Y-143427490D01*
X81409364Y-143572333D01*
X68560870Y-143572333D01*
X68583193Y-143445058D01*
X68611491Y-143257535D01*
X68819299Y-141834218D01*
X80829993Y-141834218D01*
X80974836Y-141834219D01*
X80974835Y-141689376D01*
X80829993Y-141689376D01*
X80829993Y-141834218D01*
X68819299Y-141834218D01*
X68884902Y-141384893D01*
X69606149Y-141501669D01*
X71678556Y-141727957D01*
X73965253Y-141789735D01*
X76306718Y-141690130D01*
X78543433Y-141432262D01*
X79230021Y-141313225D01*
X79979517Y-141206778D01*
X80496819Y-141206217D01*
X80696712Y-141303825D01*
X80780239Y-141404935D01*
X80814488Y-141320521D01*
X81019854Y-141169818D01*
X81541920Y-140927283D01*
X81811487Y-140820319D01*
X86913392Y-140820319D01*
X86913392Y-140965161D01*
X87058234Y-140965161D01*
X87058235Y-140820318D01*
X86913392Y-140820319D01*
X81811487Y-140820319D01*
X82306552Y-140623878D01*
X83239611Y-140290568D01*
X83451421Y-140219202D01*
X83776370Y-140096104D01*
X86623706Y-140096104D01*
X86768550Y-140096104D01*
X86768549Y-139951261D01*
X86623707Y-139951261D01*
X86623706Y-140096104D01*
X83776370Y-140096104D01*
X85305772Y-139516733D01*
X86478863Y-139516733D01*
X86478864Y-139661576D01*
X86623706Y-139661576D01*
X86623707Y-139516733D01*
X86478863Y-139516733D01*
X85305772Y-139516733D01*
X86085040Y-139221529D01*
X88500774Y-138039098D01*
X90837111Y-136598388D01*
X92416368Y-135460081D01*
X92694578Y-135254812D01*
X92870716Y-135141906D01*
X92928887Y-135138017D01*
X92853194Y-135259797D01*
G37*
G36*
X83447009Y-94821181D02*
G01*
X86018677Y-95389520D01*
X87209484Y-95767788D01*
X89614439Y-96747017D01*
X91738255Y-97939028D01*
X93621114Y-99380528D01*
X95303199Y-101108228D01*
X96824692Y-103158835D01*
X98225775Y-105569058D01*
X98476922Y-106061168D01*
X99490325Y-108367012D01*
X100357533Y-110903241D01*
X101050846Y-113553726D01*
X101542569Y-116202343D01*
X101805002Y-118732961D01*
X101840709Y-120164408D01*
X101785334Y-121067681D01*
X101619560Y-121943105D01*
X101315585Y-122859157D01*
X100845608Y-123884316D01*
X100181829Y-125087064D01*
X99296445Y-126535876D01*
X99177868Y-126723398D01*
X98556210Y-127661388D01*
X97920372Y-128517800D01*
X97188819Y-129392558D01*
X96280015Y-130385587D01*
X95663406Y-131030449D01*
X94825705Y-131887409D01*
X94028852Y-132684893D01*
X93341843Y-133355105D01*
X92833677Y-133830249D01*
X92668037Y-133973637D01*
X92367283Y-134211411D01*
X92212338Y-134293103D01*
X92216385Y-134176432D01*
X92392608Y-133819120D01*
X92754189Y-133178887D01*
X93104173Y-132574970D01*
X94660877Y-129554038D01*
X95819812Y-126517401D01*
X96592027Y-123422918D01*
X96988575Y-120228445D01*
X97042448Y-117558663D01*
X96800880Y-114615146D01*
X96223490Y-111831976D01*
X95325013Y-109235069D01*
X94120183Y-106850339D01*
X92623732Y-104703703D01*
X90850396Y-102821078D01*
X88814905Y-101228378D01*
X87225760Y-100291458D01*
X85274144Y-99461064D01*
X83276472Y-98947231D01*
X81282421Y-98742468D01*
X79341666Y-98839287D01*
X77503880Y-99230199D01*
X75818742Y-99907712D01*
X74335925Y-100864340D01*
X73105103Y-102092592D01*
X72827778Y-102462206D01*
X71918865Y-104004118D01*
X71398514Y-105483678D01*
X71266887Y-106886699D01*
X71524152Y-108198993D01*
X72170473Y-109406372D01*
X72739166Y-110068605D01*
X73169170Y-110514474D01*
X73327404Y-110739221D01*
X73239158Y-110803845D01*
X73036325Y-110785345D01*
X71432266Y-110382028D01*
X70080100Y-109675154D01*
X69002874Y-108682536D01*
X68223634Y-107421981D01*
X68021972Y-106910339D01*
X67708829Y-105383083D01*
X67792629Y-103815465D01*
X68265598Y-102230659D01*
X69119958Y-100651835D01*
X70347935Y-99102167D01*
X70798774Y-98635752D01*
X72093488Y-97500611D01*
X73493135Y-96587868D01*
X75113415Y-95829279D01*
X76266219Y-95410865D01*
X78595959Y-94832676D01*
X80981162Y-94635840D01*
X83447009Y-94821181D01*
G37*
G36*
X45056232Y-102220268D02*
G01*
X45120134Y-102732414D01*
X45179791Y-103618933D01*
X45237837Y-104731625D01*
X45464112Y-107194813D01*
X45886350Y-109710462D01*
X46477612Y-112168688D01*
X47210954Y-114459604D01*
X48059438Y-116473329D01*
X48172113Y-116699805D01*
X49455742Y-118919824D01*
X50963716Y-120996061D01*
X52639270Y-122867302D01*
X54425637Y-124472337D01*
X56266048Y-125749952D01*
X56883737Y-126093536D01*
X58861469Y-126944079D01*
X61044874Y-127570455D01*
X63339761Y-127963662D01*
X65651937Y-128114696D01*
X67887210Y-128014559D01*
X69951390Y-127654246D01*
X70756356Y-127419275D01*
X72210999Y-126886433D01*
X73409577Y-126319448D01*
X74478110Y-125639675D01*
X75542619Y-124768470D01*
X76559063Y-123798074D01*
X77334948Y-123016825D01*
X77878709Y-122439858D01*
X78249913Y-121983793D01*
X78508130Y-121565246D01*
X78712927Y-121100835D01*
X78923870Y-120507178D01*
X78936463Y-120470209D01*
X79339111Y-118752132D01*
X79380909Y-117092744D01*
X79081766Y-115537587D01*
X78461596Y-114132199D01*
X77540306Y-112922119D01*
X76337807Y-111952888D01*
X74920893Y-111285712D01*
X74397449Y-111084059D01*
X74085129Y-110915995D01*
X74046520Y-110866743D01*
X74232036Y-110732955D01*
X74718045Y-110570843D01*
X75398743Y-110404574D01*
X76168320Y-110258314D01*
X76920970Y-110156229D01*
X77280473Y-110128112D01*
X78749320Y-110240246D01*
X80062049Y-110729374D01*
X81208474Y-111589689D01*
X82178405Y-112815378D01*
X82277128Y-112977733D01*
X82902589Y-114229909D01*
X83273113Y-115498920D01*
X83420778Y-116922422D01*
X83417068Y-117869555D01*
X83186242Y-119814788D01*
X82632011Y-121897613D01*
X81776741Y-124035901D01*
X81685067Y-124229716D01*
X81339744Y-124899497D01*
X80959897Y-125505186D01*
X80477179Y-126137726D01*
X79823244Y-126888065D01*
X79109363Y-127657105D01*
X78291738Y-128512240D01*
X77661357Y-129131782D01*
X77133327Y-129586365D01*
X76622760Y-129946630D01*
X76044765Y-130283212D01*
X75788917Y-130420058D01*
X73399056Y-131451883D01*
X70864221Y-132115800D01*
X68212930Y-132415028D01*
X65473700Y-132352785D01*
X62675049Y-131932294D01*
X59845494Y-131156772D01*
X57013551Y-130029440D01*
X54207740Y-128553517D01*
X53084349Y-127856690D01*
X51137341Y-126375858D01*
X49295232Y-124545125D01*
X47599252Y-122419292D01*
X46090627Y-120053157D01*
X44810586Y-117501520D01*
X44244131Y-116106570D01*
X44001635Y-115382007D01*
X43832535Y-114657669D01*
X43723496Y-113831782D01*
X43661184Y-112802570D01*
X43632265Y-111468255D01*
X43631889Y-111433438D01*
X43632150Y-109954717D01*
X43677075Y-108693679D01*
X43781091Y-107525032D01*
X43958621Y-106323482D01*
X44224092Y-104963738D01*
X44540145Y-103544444D01*
X44730042Y-102744586D01*
X44872087Y-102244904D01*
X44977184Y-102063949D01*
X45056232Y-102220268D01*
G37*
G36*
X71397718Y-80973030D02*
G01*
X71129828Y-81150707D01*
X70593235Y-81430134D01*
X70165121Y-81633096D01*
X67195576Y-83201271D01*
X64445350Y-85058808D01*
X61953501Y-87172023D01*
X59759084Y-89507233D01*
X57901157Y-92030754D01*
X57654455Y-92422548D01*
X56325853Y-94953787D01*
X55385952Y-97583341D01*
X54834844Y-100279846D01*
X54672616Y-103011939D01*
X54899360Y-105748254D01*
X55515167Y-108457427D01*
X56520124Y-111108095D01*
X57594882Y-113149579D01*
X58720449Y-114724130D01*
X60068285Y-116089449D01*
X61581087Y-117215383D01*
X63201556Y-118071780D01*
X64872391Y-118628490D01*
X66536291Y-118855361D01*
X68135956Y-118722241D01*
X68171133Y-118714793D01*
X69820604Y-118166948D01*
X71227752Y-117300211D01*
X72364961Y-116144602D01*
X73204616Y-114730133D01*
X73719103Y-113086822D01*
X73800251Y-112596265D01*
X73864435Y-111905197D01*
X73801592Y-111562642D01*
X73581096Y-111563605D01*
X73172321Y-111903089D01*
X72689188Y-112415021D01*
X71446905Y-113528388D01*
X70086258Y-114249683D01*
X68605566Y-114579393D01*
X67003144Y-114517997D01*
X66070280Y-114317959D01*
X64457632Y-113734123D01*
X63104001Y-112915537D01*
X61985885Y-111832801D01*
X61079780Y-110456518D01*
X60362183Y-108757289D01*
X59809591Y-106705717D01*
X59748399Y-106410358D01*
X59442913Y-104062466D01*
X59445313Y-101685555D01*
X59745134Y-99368153D01*
X60331914Y-97198791D01*
X61029068Y-95574665D01*
X62045119Y-93834130D01*
X63199377Y-92308683D01*
X64553447Y-90938911D01*
X66168935Y-89665404D01*
X68107450Y-88428755D01*
X68913018Y-87971890D01*
X71513599Y-86643361D01*
X73951532Y-85627139D01*
X76297610Y-84898865D01*
X78622622Y-84434181D01*
X79524882Y-84320631D01*
X81400446Y-84223019D01*
X83410156Y-84295585D01*
X85433645Y-84522938D01*
X87350549Y-84889686D01*
X89040497Y-85380440D01*
X89640146Y-85614054D01*
X90795044Y-86232680D01*
X92098526Y-87143982D01*
X93488864Y-88289066D01*
X94904326Y-89609034D01*
X96283181Y-91044993D01*
X97563701Y-92538045D01*
X98684153Y-94029295D01*
X99077542Y-94618100D01*
X99890330Y-95982310D01*
X100705144Y-97523722D01*
X101463619Y-99118747D01*
X102107384Y-100643798D01*
X102578074Y-101975285D01*
X102622493Y-102124221D01*
X102818301Y-102823317D01*
X102950645Y-103345425D01*
X102993999Y-103588965D01*
X102991988Y-103594668D01*
X102870049Y-103455137D01*
X102581165Y-103043877D01*
X102176961Y-102435657D01*
X101958464Y-102097772D01*
X99986833Y-99368454D01*
X97774276Y-96939615D01*
X95344652Y-94827708D01*
X92721819Y-93049182D01*
X89929637Y-91620487D01*
X86991964Y-90558074D01*
X84330573Y-89943524D01*
X82484499Y-89728686D01*
X80444015Y-89664477D01*
X78388220Y-89748546D01*
X76496214Y-89978543D01*
X76104763Y-90051492D01*
X73994782Y-90566941D01*
X72186937Y-91224525D01*
X70584353Y-92073500D01*
X69090155Y-93163123D01*
X67953862Y-94195806D01*
X66465870Y-95896724D01*
X65359698Y-97717380D01*
X64623354Y-99687919D01*
X64244850Y-101838487D01*
X64190267Y-103658374D01*
X64316264Y-105361425D01*
X64616953Y-106771418D01*
X65121248Y-107978162D01*
X65858065Y-109071460D01*
X65980976Y-109220054D01*
X67188088Y-110378429D01*
X68523810Y-111168191D01*
X69955028Y-111577984D01*
X71448624Y-111596461D01*
X72373898Y-111411372D01*
X73579479Y-111073044D01*
X73524868Y-109794054D01*
X73595161Y-108449936D01*
X73959489Y-107288868D01*
X74659688Y-106206941D01*
X75215080Y-105595912D01*
X76552314Y-104523619D01*
X78049250Y-103812797D01*
X79666718Y-103466746D01*
X81365546Y-103488767D01*
X83106567Y-103882161D01*
X84850609Y-104650229D01*
X85056331Y-104766626D01*
X86553003Y-105847066D01*
X87959758Y-107277522D01*
X89241867Y-109002066D01*
X90364601Y-110964773D01*
X91293233Y-113109715D01*
X91993033Y-115380967D01*
X92189358Y-116253751D01*
X92397231Y-117947389D01*
X92406544Y-119877840D01*
X92227502Y-121929420D01*
X91870312Y-123986445D01*
X91345175Y-125933232D01*
X91331961Y-125973491D01*
X90321695Y-128419209D01*
X88943802Y-130785915D01*
X87239860Y-133014369D01*
X85251444Y-135045330D01*
X84522047Y-135676959D01*
X82639347Y-137097999D01*
X80673905Y-138322152D01*
X78685622Y-139323992D01*
X76734401Y-140078089D01*
X74880144Y-140559015D01*
X73182755Y-140741341D01*
X72620908Y-140728940D01*
X69065303Y-140372042D01*
X65798084Y-139753064D01*
X62783337Y-138860256D01*
X59985148Y-137681868D01*
X57367603Y-136206149D01*
X56053456Y-135308304D01*
X55397177Y-134835374D01*
X54816923Y-134423489D01*
X54453789Y-134172355D01*
X54434174Y-134119603D01*
X54732570Y-134211892D01*
X55291910Y-134429477D01*
X55749919Y-134620861D01*
X58870123Y-135826982D01*
X61801821Y-136692304D01*
X64582690Y-137217614D01*
X67250403Y-137403696D01*
X69842637Y-137251331D01*
X72397065Y-136761307D01*
X74951364Y-135934406D01*
X76954931Y-135062300D01*
X78439219Y-134295690D01*
X79718785Y-133504031D01*
X80912757Y-132600386D01*
X82140264Y-131497819D01*
X82983845Y-130662531D01*
X84311797Y-129223445D01*
X85353035Y-127874243D01*
X86178087Y-126504277D01*
X86857482Y-125002896D01*
X87212640Y-124028112D01*
X87827128Y-121642479D01*
X88039436Y-119272211D01*
X87849334Y-116888874D01*
X87256594Y-114464034D01*
X87132828Y-114094643D01*
X86521120Y-112540152D01*
X85858461Y-111314108D01*
X85088415Y-110335319D01*
X84154539Y-109522591D01*
X83769766Y-109256594D01*
X82079199Y-108343014D01*
X80415663Y-107832107D01*
X78786440Y-107725199D01*
X77198812Y-108023611D01*
X77123569Y-108048222D01*
X76127467Y-108450407D01*
X75374184Y-108938307D01*
X75022573Y-109258285D01*
X74387476Y-109938492D01*
X74055552Y-110470150D01*
X74012736Y-110963930D01*
X74244966Y-111530504D01*
X74653787Y-112160146D01*
X75512772Y-113569585D01*
X76020778Y-114864045D01*
X76171876Y-116088238D01*
X75960130Y-117286872D01*
X75379610Y-118504659D01*
X74424384Y-119786306D01*
X73512383Y-120762631D01*
X72790179Y-121474666D01*
X72250481Y-121962101D01*
X71790874Y-122294715D01*
X71308947Y-122542285D01*
X70702286Y-122774588D01*
X70411075Y-122875666D01*
X68576754Y-123296956D01*
X66596477Y-123369200D01*
X64525633Y-123100139D01*
X62419613Y-122497510D01*
X60333805Y-121569055D01*
X60080302Y-121432150D01*
X59434369Y-121057850D01*
X58864569Y-120673857D01*
X58289984Y-120213436D01*
X57629692Y-119609855D01*
X56802776Y-118796382D01*
X56437813Y-118428260D01*
X55522927Y-117487052D01*
X54832160Y-116731927D01*
X54290367Y-116069194D01*
X53822401Y-115405162D01*
X53353116Y-114646136D01*
X53214500Y-114409431D01*
X52282265Y-112585757D01*
X51453459Y-110546156D01*
X50797626Y-108476419D01*
X50475265Y-107091240D01*
X50196017Y-104884744D01*
X50138878Y-102470594D01*
X50293999Y-99978824D01*
X50651534Y-97539466D01*
X51201636Y-95282555D01*
X51420559Y-94609116D01*
X51920195Y-93309253D01*
X52530879Y-91926448D01*
X53200572Y-90563467D01*
X53877234Y-89323076D01*
X54508826Y-88308040D01*
X54841337Y-87853882D01*
X55701827Y-86976402D01*
X56897053Y-86046155D01*
X58362397Y-85101768D01*
X60033241Y-84181868D01*
X61844970Y-83325082D01*
X63597684Y-82619504D01*
X64387388Y-82355997D01*
X65364403Y-82069963D01*
X66424864Y-81787242D01*
X67464903Y-81533674D01*
X68380652Y-81335098D01*
X69068243Y-81217354D01*
X69318409Y-81196313D01*
X69743933Y-81162567D01*
X70232966Y-81096969D01*
X70871193Y-80998511D01*
X71343811Y-80928828D01*
X71397718Y-80973030D01*
G37*
G04 #@! TD*
M02*
