  0
SECTION
  2
HEADER
  9
$ANGBASE
  50
0.0
  9
$ANGDIR
  70
1
  9
$MEASUREMENT
  70
1
  0
ENDSEC
  0
SECTION
  2
TABLES
  0
TABLE
  2
LTYPE
  70
4
  0
LTYPE
  5
40F
  2
CONTINUOUS
  70
0
  3
Solid line
  72
65
  73
0
  40
0.0
  0
LTYPE
  5
410
  2
DASHDOT
 70
0
  3
Dash Dot ____ _ ____ _
 72
65
 73
4
 40
2.0
 49
1.25
 49
-0.25
 49
0.25
 49
-0.25
  0
LTYPE
  5
411
  2
DASHED
 70
0
  3
Dashed __ __ __ __ __
 72
65
 73
2
 40
0.75
 49
0.5
 49
-0.25
  0
LTYPE
  5
43B
  2
DOTTED
 70
0
  3
Dotted .  .  .  .
 72
65
 73
2
 40
0.2
 49
0.0
 49
-0.2
  0
ENDTAB
  0
TABLE
  2
STYLE
  70
4
  0
STYLE
  2
KICAD
  70
0
  40
0
  41
1
  42
1
  50
0
  71
0
  3
isocp.shx
  0
STYLE
  2
KICADB
  70
0
  40
0
  41
1
  42
1
  50
0
  71
0
  3
isocp.shx
  0
STYLE
  2
KICADI
  70
0
  40
0
  41
1
  42
1
  50
15
  71
0
  3
isocp.shx
  0
STYLE
  2
KICADBI
  70
0
  40
0
  41
1
  42
1
  50
15
  71
0
  3
isocp.shx
  0
ENDTAB
  0
TABLE
  2
LAYER
  70
1
  0
LAYER
  2
BLACK
  70
0
  62
7
  6
CONTINUOUS
  0
ENDTAB
  0
ENDSEC
  0
SECTION
  2
ENTITIES
0
LINE
8
BLACK
6
CONTINUOUS
10
94.98
20
-96.425
11
94.9917
21
-96.4238
0
LINE
8
BLACK
6
CONTINUOUS
10
94.9917
20
-96.4238
11
95.003
21
-96.4204
0
LINE
8
BLACK
6
CONTINUOUS
10
95.003
20
-96.4204
11
95.0133
21
-96.4149
0
LINE
8
BLACK
6
CONTINUOUS
10
95.0133
20
-96.4149
11
95.0224
21
-96.4074
0
LINE
8
BLACK
6
CONTINUOUS
10
95.0224
20
-96.4074
11
95.0299
21
-96.3983
0
LINE
8
BLACK
6
CONTINUOUS
10
95.0299
20
-96.3983
11
95.0354
21
-96.388
0
LINE
8
BLACK
6
CONTINUOUS
10
95.0354
20
-96.388
11
95.0388
21
-96.3767
0
LINE
8
BLACK
6
CONTINUOUS
10
95.0388
20
-96.3767
11
95.04
21
-96.365
0
LINE
8
BLACK
6
CONTINUOUS
10
95.04
20
-96.365
11
95.0388
21
-96.3533
0
LINE
8
BLACK
6
CONTINUOUS
10
95.0388
20
-96.3533
11
95.0354
21
-96.342
0
LINE
8
BLACK
6
CONTINUOUS
10
95.0354
20
-96.342
11
95.0299
21
-96.3317
0
LINE
8
BLACK
6
CONTINUOUS
10
95.0299
20
-96.3317
11
95.0224
21
-96.3226
0
LINE
8
BLACK
6
CONTINUOUS
10
95.0224
20
-96.3226
11
95.0133
21
-96.3151
0
LINE
8
BLACK
6
CONTINUOUS
10
95.0133
20
-96.3151
11
95.003
21
-96.3096
0
LINE
8
BLACK
6
CONTINUOUS
10
95.003
20
-96.3096
11
94.9917
21
-96.3062
0
LINE
8
BLACK
6
CONTINUOUS
10
94.9917
20
-96.3062
11
94.98
21
-96.305
0
LINE
8
BLACK
6
CONTINUOUS
10
94.98
20
-96.305
11
92.98
21
-96.305
0
LINE
8
BLACK
6
CONTINUOUS
10
92.98
20
-96.305
11
92.9683
21
-96.3062
0
LINE
8
BLACK
6
CONTINUOUS
10
92.9683
20
-96.3062
11
92.957
21
-96.3096
0
LINE
8
BLACK
6
CONTINUOUS
10
92.957
20
-96.3096
11
92.9467
21
-96.3151
0
LINE
8
BLACK
6
CONTINUOUS
10
92.9467
20
-96.3151
11
92.9376
21
-96.3226
0
LINE
8
BLACK
6
CONTINUOUS
10
92.9376
20
-96.3226
11
92.9301
21
-96.3317
0
LINE
8
BLACK
6
CONTINUOUS
10
92.9301
20
-96.3317
11
92.9246
21
-96.342
0
LINE
8
BLACK
6
CONTINUOUS
10
92.9246
20
-96.342
11
92.9212
21
-96.3533
0
LINE
8
BLACK
6
CONTINUOUS
10
92.9212
20
-96.3533
11
92.92
21
-96.365
0
LINE
8
BLACK
6
CONTINUOUS
10
92.92
20
-96.365
11
92.9212
21
-96.3767
0
LINE
8
BLACK
6
CONTINUOUS
10
92.9212
20
-96.3767
11
92.9246
21
-96.388
0
LINE
8
BLACK
6
CONTINUOUS
10
92.9246
20
-96.388
11
92.9301
21
-96.3983
0
LINE
8
BLACK
6
CONTINUOUS
10
92.9301
20
-96.3983
11
92.9376
21
-96.4074
0
LINE
8
BLACK
6
CONTINUOUS
10
92.9376
20
-96.4074
11
92.9467
21
-96.4149
0
LINE
8
BLACK
6
CONTINUOUS
10
92.9467
20
-96.4149
11
92.957
21
-96.4204
0
LINE
8
BLACK
6
CONTINUOUS
10
92.957
20
-96.4204
11
92.9683
21
-96.4238
0
LINE
8
BLACK
6
CONTINUOUS
10
92.9683
20
-96.4238
11
92.98
21
-96.425
0
LINE
8
BLACK
6
CONTINUOUS
10
92.98
20
-96.425
11
94.98
21
-96.425
0
LINE
8
BLACK
6
CONTINUOUS
10
94.92
20
-96.365
11
94.9212
21
-96.3767
0
LINE
8
BLACK
6
CONTINUOUS
10
94.9212
20
-96.3767
11
94.9246
21
-96.388
0
LINE
8
BLACK
6
CONTINUOUS
10
94.9246
20
-96.388
11
94.9301
21
-96.3983
0
LINE
8
BLACK
6
CONTINUOUS
10
94.9301
20
-96.3983
11
94.9376
21
-96.4074
0
LINE
8
BLACK
6
CONTINUOUS
10
94.9376
20
-96.4074
11
94.9467
21
-96.4149
0
LINE
8
BLACK
6
CONTINUOUS
10
94.9467
20
-96.4149
11
94.957
21
-96.4204
0
LINE
8
BLACK
6
CONTINUOUS
10
94.957
20
-96.4204
11
94.9683
21
-96.4238
0
LINE
8
BLACK
6
CONTINUOUS
10
94.9683
20
-96.4238
11
94.98
21
-96.425
0
LINE
8
BLACK
6
CONTINUOUS
10
94.98
20
-96.425
11
94.9917
21
-96.4238
0
LINE
8
BLACK
6
CONTINUOUS
10
94.9917
20
-96.4238
11
95.003
21
-96.4204
0
LINE
8
BLACK
6
CONTINUOUS
10
95.003
20
-96.4204
11
95.0133
21
-96.4149
0
LINE
8
BLACK
6
CONTINUOUS
10
95.0133
20
-96.4149
11
95.0224
21
-96.4074
0
LINE
8
BLACK
6
CONTINUOUS
10
95.0224
20
-96.4074
11
95.0299
21
-96.3983
0
LINE
8
BLACK
6
CONTINUOUS
10
95.0299
20
-96.3983
11
95.0354
21
-96.388
0
LINE
8
BLACK
6
CONTINUOUS
10
95.0354
20
-96.388
11
95.0388
21
-96.3767
0
LINE
8
BLACK
6
CONTINUOUS
10
95.0388
20
-96.3767
11
95.04
21
-96.365
0
LINE
8
BLACK
6
CONTINUOUS
10
95.04
20
-96.365
11
95.04
21
-92.865
0
LINE
8
BLACK
6
CONTINUOUS
10
95.04
20
-92.865
11
95.0388
21
-92.8533
0
LINE
8
BLACK
6
CONTINUOUS
10
95.0388
20
-92.8533
11
95.0354
21
-92.842
0
LINE
8
BLACK
6
CONTINUOUS
10
95.0354
20
-92.842
11
95.0299
21
-92.8317
0
LINE
8
BLACK
6
CONTINUOUS
10
95.0299
20
-92.8317
11
95.0224
21
-92.8226
0
LINE
8
BLACK
6
CONTINUOUS
10
95.0224
20
-92.8226
11
95.0133
21
-92.8151
0
LINE
8
BLACK
6
CONTINUOUS
10
95.0133
20
-92.8151
11
95.003
21
-92.8096
0
LINE
8
BLACK
6
CONTINUOUS
10
95.003
20
-92.8096
11
94.9917
21
-92.8062
0
LINE
8
BLACK
6
CONTINUOUS
10
94.9917
20
-92.8062
11
94.98
21
-92.805
0
LINE
8
BLACK
6
CONTINUOUS
10
94.98
20
-92.805
11
94.9683
21
-92.8062
0
LINE
8
BLACK
6
CONTINUOUS
10
94.9683
20
-92.8062
11
94.957
21
-92.8096
0
LINE
8
BLACK
6
CONTINUOUS
10
94.957
20
-92.8096
11
94.9467
21
-92.8151
0
LINE
8
BLACK
6
CONTINUOUS
10
94.9467
20
-92.8151
11
94.9376
21
-92.8226
0
LINE
8
BLACK
6
CONTINUOUS
10
94.9376
20
-92.8226
11
94.9301
21
-92.8317
0
LINE
8
BLACK
6
CONTINUOUS
10
94.9301
20
-92.8317
11
94.9246
21
-92.842
0
LINE
8
BLACK
6
CONTINUOUS
10
94.9246
20
-92.842
11
94.9212
21
-92.8533
0
LINE
8
BLACK
6
CONTINUOUS
10
94.9212
20
-92.8533
11
94.92
21
-92.865
0
LINE
8
BLACK
6
CONTINUOUS
10
94.92
20
-92.865
11
94.92
21
-96.365
0
LINE
8
BLACK
6
CONTINUOUS
10
94.98
20
-92.925
11
94.9917
21
-92.9238
0
LINE
8
BLACK
6
CONTINUOUS
10
94.9917
20
-92.9238
11
95.003
21
-92.9204
0
LINE
8
BLACK
6
CONTINUOUS
10
95.003
20
-92.9204
11
95.0133
21
-92.9149
0
LINE
8
BLACK
6
CONTINUOUS
10
95.0133
20
-92.9149
11
95.0224
21
-92.9074
0
LINE
8
BLACK
6
CONTINUOUS
10
95.0224
20
-92.9074
11
95.0299
21
-92.8983
0
LINE
8
BLACK
6
CONTINUOUS
10
95.0299
20
-92.8983
11
95.0354
21
-92.888
0
LINE
8
BLACK
6
CONTINUOUS
10
95.0354
20
-92.888
11
95.0388
21
-92.8767
0
LINE
8
BLACK
6
CONTINUOUS
10
95.0388
20
-92.8767
11
95.04
21
-92.865
0
LINE
8
BLACK
6
CONTINUOUS
10
95.04
20
-92.865
11
95.0388
21
-92.8533
0
LINE
8
BLACK
6
CONTINUOUS
10
95.0388
20
-92.8533
11
95.0354
21
-92.842
0
LINE
8
BLACK
6
CONTINUOUS
10
95.0354
20
-92.842
11
95.0299
21
-92.8317
0
LINE
8
BLACK
6
CONTINUOUS
10
95.0299
20
-92.8317
11
95.0224
21
-92.8226
0
LINE
8
BLACK
6
CONTINUOUS
10
95.0224
20
-92.8226
11
95.0133
21
-92.8151
0
LINE
8
BLACK
6
CONTINUOUS
10
95.0133
20
-92.8151
11
95.003
21
-92.8096
0
LINE
8
BLACK
6
CONTINUOUS
10
95.003
20
-92.8096
11
94.9917
21
-92.8062
0
LINE
8
BLACK
6
CONTINUOUS
10
94.9917
20
-92.8062
11
94.98
21
-92.805
0
LINE
8
BLACK
6
CONTINUOUS
10
94.98
20
-92.805
11
92.98
21
-92.805
0
LINE
8
BLACK
6
CONTINUOUS
10
92.98
20
-92.805
11
92.9683
21
-92.8062
0
LINE
8
BLACK
6
CONTINUOUS
10
92.9683
20
-92.8062
11
92.957
21
-92.8096
0
LINE
8
BLACK
6
CONTINUOUS
10
92.957
20
-92.8096
11
92.9467
21
-92.8151
0
LINE
8
BLACK
6
CONTINUOUS
10
92.9467
20
-92.8151
11
92.9376
21
-92.8226
0
LINE
8
BLACK
6
CONTINUOUS
10
92.9376
20
-92.8226
11
92.9301
21
-92.8317
0
LINE
8
BLACK
6
CONTINUOUS
10
92.9301
20
-92.8317
11
92.9246
21
-92.842
0
LINE
8
BLACK
6
CONTINUOUS
10
92.9246
20
-92.842
11
92.9212
21
-92.8533
0
LINE
8
BLACK
6
CONTINUOUS
10
92.9212
20
-92.8533
11
92.92
21
-92.865
0
LINE
8
BLACK
6
CONTINUOUS
10
92.92
20
-92.865
11
92.9212
21
-92.8767
0
LINE
8
BLACK
6
CONTINUOUS
10
92.9212
20
-92.8767
11
92.9246
21
-92.888
0
LINE
8
BLACK
6
CONTINUOUS
10
92.9246
20
-92.888
11
92.9301
21
-92.8983
0
LINE
8
BLACK
6
CONTINUOUS
10
92.9301
20
-92.8983
11
92.9376
21
-92.9074
0
LINE
8
BLACK
6
CONTINUOUS
10
92.9376
20
-92.9074
11
92.9467
21
-92.9149
0
LINE
8
BLACK
6
CONTINUOUS
10
92.9467
20
-92.9149
11
92.957
21
-92.9204
0
LINE
8
BLACK
6
CONTINUOUS
10
92.957
20
-92.9204
11
92.9683
21
-92.9238
0
LINE
8
BLACK
6
CONTINUOUS
10
92.9683
20
-92.9238
11
92.98
21
-92.925
0
LINE
8
BLACK
6
CONTINUOUS
10
92.98
20
-92.925
11
94.98
21
-92.925
0
LINE
8
BLACK
6
CONTINUOUS
10
93.04
20
-92.865
11
93.0388
21
-92.8533
0
LINE
8
BLACK
6
CONTINUOUS
10
93.0388
20
-92.8533
11
93.0354
21
-92.842
0
LINE
8
BLACK
6
CONTINUOUS
10
93.0354
20
-92.842
11
93.0299
21
-92.8317
0
LINE
8
BLACK
6
CONTINUOUS
10
93.0299
20
-92.8317
11
93.0224
21
-92.8226
0
LINE
8
BLACK
6
CONTINUOUS
10
93.0224
20
-92.8226
11
93.0133
21
-92.8151
0
LINE
8
BLACK
6
CONTINUOUS
10
93.0133
20
-92.8151
11
93.003
21
-92.8096
0
LINE
8
BLACK
6
CONTINUOUS
10
93.003
20
-92.8096
11
92.9917
21
-92.8062
0
LINE
8
BLACK
6
CONTINUOUS
10
92.9917
20
-92.8062
11
92.98
21
-92.805
0
LINE
8
BLACK
6
CONTINUOUS
10
92.98
20
-92.805
11
92.9683
21
-92.8062
0
LINE
8
BLACK
6
CONTINUOUS
10
92.9683
20
-92.8062
11
92.957
21
-92.8096
0
LINE
8
BLACK
6
CONTINUOUS
10
92.957
20
-92.8096
11
92.9467
21
-92.8151
0
LINE
8
BLACK
6
CONTINUOUS
10
92.9467
20
-92.8151
11
92.9376
21
-92.8226
0
LINE
8
BLACK
6
CONTINUOUS
10
92.9376
20
-92.8226
11
92.9301
21
-92.8317
0
LINE
8
BLACK
6
CONTINUOUS
10
92.9301
20
-92.8317
11
92.9246
21
-92.842
0
LINE
8
BLACK
6
CONTINUOUS
10
92.9246
20
-92.842
11
92.9212
21
-92.8533
0
LINE
8
BLACK
6
CONTINUOUS
10
92.9212
20
-92.8533
11
92.92
21
-92.865
0
LINE
8
BLACK
6
CONTINUOUS
10
92.92
20
-92.865
11
92.92
21
-96.365
0
LINE
8
BLACK
6
CONTINUOUS
10
92.92
20
-96.365
11
92.9212
21
-96.3767
0
LINE
8
BLACK
6
CONTINUOUS
10
92.9212
20
-96.3767
11
92.9246
21
-96.388
0
LINE
8
BLACK
6
CONTINUOUS
10
92.9246
20
-96.388
11
92.9301
21
-96.3983
0
LINE
8
BLACK
6
CONTINUOUS
10
92.9301
20
-96.3983
11
92.9376
21
-96.4074
0
LINE
8
BLACK
6
CONTINUOUS
10
92.9376
20
-96.4074
11
92.9467
21
-96.4149
0
LINE
8
BLACK
6
CONTINUOUS
10
92.9467
20
-96.4149
11
92.957
21
-96.4204
0
LINE
8
BLACK
6
CONTINUOUS
10
92.957
20
-96.4204
11
92.9683
21
-96.4238
0
LINE
8
BLACK
6
CONTINUOUS
10
92.9683
20
-96.4238
11
92.98
21
-96.425
0
LINE
8
BLACK
6
CONTINUOUS
10
92.98
20
-96.425
11
92.9917
21
-96.4238
0
LINE
8
BLACK
6
CONTINUOUS
10
92.9917
20
-96.4238
11
93.003
21
-96.4204
0
LINE
8
BLACK
6
CONTINUOUS
10
93.003
20
-96.4204
11
93.0133
21
-96.4149
0
LINE
8
BLACK
6
CONTINUOUS
10
93.0133
20
-96.4149
11
93.0224
21
-96.4074
0
LINE
8
BLACK
6
CONTINUOUS
10
93.0224
20
-96.4074
11
93.0299
21
-96.3983
0
LINE
8
BLACK
6
CONTINUOUS
10
93.0299
20
-96.3983
11
93.0354
21
-96.388
0
LINE
8
BLACK
6
CONTINUOUS
10
93.0354
20
-96.388
11
93.0388
21
-96.3767
0
LINE
8
BLACK
6
CONTINUOUS
10
93.0388
20
-96.3767
11
93.04
21
-96.365
0
LINE
8
BLACK
6
CONTINUOUS
10
93.04
20
-96.365
11
93.04
21
-92.865
  0
ENDSEC
  0
EOF
