  0
SECTION
  2
HEADER
  9
$ANGBASE
  50
0.0
  9
$ANGDIR
  70
1
  9
$MEASUREMENT
  70
1
  0
ENDSEC
  0
SECTION
  2
TABLES
  0
TABLE
  2
LTYPE
  70
4
  0
LTYPE
  5
40F
  2
CONTINUOUS
  70
0
  3
Solid line
  72
65
  73
0
  40
0.0
  0
LTYPE
  5
410
  2
DASHDOT
 70
0
  3
Dash Dot ____ _ ____ _
 72
65
 73
4
 40
2.0
 49
1.25
 49
-0.25
 49
0.25
 49
-0.25
  0
LTYPE
  5
411
  2
DASHED
 70
0
  3
Dashed __ __ __ __ __
 72
65
 73
2
 40
0.75
 49
0.5
 49
-0.25
  0
LTYPE
  5
43B
  2
DOTTED
 70
0
  3
Dotted .  .  .  .
 72
65
 73
2
 40
0.2
 49
0.0
 49
-0.2
  0
ENDTAB
  0
TABLE
  2
STYLE
  70
4
  0
STYLE
  2
KICAD
  70
0
  40
0
  41
1
  42
1
  50
0
  71
0
  3
isocp.shx
  0
STYLE
  2
KICADB
  70
0
  40
0
  41
1
  42
1
  50
0
  71
0
  3
isocp.shx
  0
STYLE
  2
KICADI
  70
0
  40
0
  41
1
  42
1
  50
15
  71
0
  3
isocp.shx
  0
STYLE
  2
KICADBI
  70
0
  40
0
  41
1
  42
1
  50
15
  71
0
  3
isocp.shx
  0
ENDTAB
  0
TABLE
  2
LAYER
  70
1
  0
LAYER
  2
BLACK
  70
0
  62
7
  6
CONTINUOUS
  0
ENDTAB
  0
ENDSEC
  0
SECTION
  2
ENTITIES
0
LINE
8
BLACK
6
CONTINUOUS
10
122.086
20
-89.9
11
122.087
21
-89.9117
0
LINE
8
BLACK
6
CONTINUOUS
10
122.087
20
-89.9117
11
122.091
21
-89.923
0
LINE
8
BLACK
6
CONTINUOUS
10
122.091
20
-89.923
11
122.096
21
-89.9333
0
LINE
8
BLACK
6
CONTINUOUS
10
122.096
20
-89.9333
11
122.104
21
-89.9424
0
LINE
8
BLACK
6
CONTINUOUS
10
122.104
20
-89.9424
11
122.113
21
-89.9499
0
LINE
8
BLACK
6
CONTINUOUS
10
122.113
20
-89.9499
11
122.123
21
-89.9554
0
LINE
8
BLACK
6
CONTINUOUS
10
122.123
20
-89.9554
11
122.134
21
-89.9588
0
LINE
8
BLACK
6
CONTINUOUS
10
122.134
20
-89.9588
11
122.146
21
-89.96
0
LINE
8
BLACK
6
CONTINUOUS
10
122.146
20
-89.96
11
122.158
21
-89.9588
0
LINE
8
BLACK
6
CONTINUOUS
10
122.158
20
-89.9588
11
122.169
21
-89.9554
0
LINE
8
BLACK
6
CONTINUOUS
10
122.169
20
-89.9554
11
122.179
21
-89.9499
0
LINE
8
BLACK
6
CONTINUOUS
10
122.179
20
-89.9499
11
122.188
21
-89.9424
0
LINE
8
BLACK
6
CONTINUOUS
10
122.188
20
-89.9424
11
122.196
21
-89.9333
0
LINE
8
BLACK
6
CONTINUOUS
10
122.196
20
-89.9333
11
122.201
21
-89.923
0
LINE
8
BLACK
6
CONTINUOUS
10
122.201
20
-89.923
11
122.205
21
-89.9117
0
LINE
8
BLACK
6
CONTINUOUS
10
122.205
20
-89.9117
11
122.206
21
-89.9
0
LINE
8
BLACK
6
CONTINUOUS
10
122.206
20
-89.9
11
122.206
21
-87.9
0
LINE
8
BLACK
6
CONTINUOUS
10
122.206
20
-87.9
11
122.205
21
-87.8883
0
LINE
8
BLACK
6
CONTINUOUS
10
122.205
20
-87.8883
11
122.201
21
-87.877
0
LINE
8
BLACK
6
CONTINUOUS
10
122.201
20
-87.877
11
122.196
21
-87.8667
0
LINE
8
BLACK
6
CONTINUOUS
10
122.196
20
-87.8667
11
122.188
21
-87.8576
0
LINE
8
BLACK
6
CONTINUOUS
10
122.188
20
-87.8576
11
122.179
21
-87.8501
0
LINE
8
BLACK
6
CONTINUOUS
10
122.179
20
-87.8501
11
122.169
21
-87.8446
0
LINE
8
BLACK
6
CONTINUOUS
10
122.169
20
-87.8446
11
122.158
21
-87.8412
0
LINE
8
BLACK
6
CONTINUOUS
10
122.158
20
-87.8412
11
122.146
21
-87.84
0
LINE
8
BLACK
6
CONTINUOUS
10
122.146
20
-87.84
11
122.134
21
-87.8412
0
LINE
8
BLACK
6
CONTINUOUS
10
122.134
20
-87.8412
11
122.123
21
-87.8446
0
LINE
8
BLACK
6
CONTINUOUS
10
122.123
20
-87.8446
11
122.113
21
-87.8501
0
LINE
8
BLACK
6
CONTINUOUS
10
122.113
20
-87.8501
11
122.104
21
-87.8576
0
LINE
8
BLACK
6
CONTINUOUS
10
122.104
20
-87.8576
11
122.096
21
-87.8667
0
LINE
8
BLACK
6
CONTINUOUS
10
122.096
20
-87.8667
11
122.091
21
-87.877
0
LINE
8
BLACK
6
CONTINUOUS
10
122.091
20
-87.877
11
122.087
21
-87.8883
0
LINE
8
BLACK
6
CONTINUOUS
10
122.087
20
-87.8883
11
122.086
21
-87.9
0
LINE
8
BLACK
6
CONTINUOUS
10
122.086
20
-87.9
11
122.086
21
-89.9
0
LINE
8
BLACK
6
CONTINUOUS
10
122.146
20
-87.96
11
122.158
21
-87.9588
0
LINE
8
BLACK
6
CONTINUOUS
10
122.158
20
-87.9588
11
122.169
21
-87.9554
0
LINE
8
BLACK
6
CONTINUOUS
10
122.169
20
-87.9554
11
122.179
21
-87.9499
0
LINE
8
BLACK
6
CONTINUOUS
10
122.179
20
-87.9499
11
122.188
21
-87.9424
0
LINE
8
BLACK
6
CONTINUOUS
10
122.188
20
-87.9424
11
122.196
21
-87.9333
0
LINE
8
BLACK
6
CONTINUOUS
10
122.196
20
-87.9333
11
122.201
21
-87.923
0
LINE
8
BLACK
6
CONTINUOUS
10
122.201
20
-87.923
11
122.205
21
-87.9117
0
LINE
8
BLACK
6
CONTINUOUS
10
122.205
20
-87.9117
11
122.206
21
-87.9
0
LINE
8
BLACK
6
CONTINUOUS
10
122.206
20
-87.9
11
122.205
21
-87.8883
0
LINE
8
BLACK
6
CONTINUOUS
10
122.205
20
-87.8883
11
122.201
21
-87.877
0
LINE
8
BLACK
6
CONTINUOUS
10
122.201
20
-87.877
11
122.196
21
-87.8667
0
LINE
8
BLACK
6
CONTINUOUS
10
122.196
20
-87.8667
11
122.188
21
-87.8576
0
LINE
8
BLACK
6
CONTINUOUS
10
122.188
20
-87.8576
11
122.179
21
-87.8501
0
LINE
8
BLACK
6
CONTINUOUS
10
122.179
20
-87.8501
11
122.169
21
-87.8446
0
LINE
8
BLACK
6
CONTINUOUS
10
122.169
20
-87.8446
11
122.158
21
-87.8412
0
LINE
8
BLACK
6
CONTINUOUS
10
122.158
20
-87.8412
11
122.146
21
-87.84
0
LINE
8
BLACK
6
CONTINUOUS
10
122.146
20
-87.84
11
118.646
21
-87.84
0
LINE
8
BLACK
6
CONTINUOUS
10
118.646
20
-87.84
11
118.634
21
-87.8412
0
LINE
8
BLACK
6
CONTINUOUS
10
118.634
20
-87.8412
11
118.623
21
-87.8446
0
LINE
8
BLACK
6
CONTINUOUS
10
118.623
20
-87.8446
11
118.613
21
-87.8501
0
LINE
8
BLACK
6
CONTINUOUS
10
118.613
20
-87.8501
11
118.604
21
-87.8576
0
LINE
8
BLACK
6
CONTINUOUS
10
118.604
20
-87.8576
11
118.596
21
-87.8667
0
LINE
8
BLACK
6
CONTINUOUS
10
118.596
20
-87.8667
11
118.591
21
-87.877
0
LINE
8
BLACK
6
CONTINUOUS
10
118.591
20
-87.877
11
118.587
21
-87.8883
0
LINE
8
BLACK
6
CONTINUOUS
10
118.587
20
-87.8883
11
118.586
21
-87.9
0
LINE
8
BLACK
6
CONTINUOUS
10
118.586
20
-87.9
11
118.587
21
-87.9117
0
LINE
8
BLACK
6
CONTINUOUS
10
118.587
20
-87.9117
11
118.591
21
-87.923
0
LINE
8
BLACK
6
CONTINUOUS
10
118.591
20
-87.923
11
118.596
21
-87.9333
0
LINE
8
BLACK
6
CONTINUOUS
10
118.596
20
-87.9333
11
118.604
21
-87.9424
0
LINE
8
BLACK
6
CONTINUOUS
10
118.604
20
-87.9424
11
118.613
21
-87.9499
0
LINE
8
BLACK
6
CONTINUOUS
10
118.613
20
-87.9499
11
118.623
21
-87.9554
0
LINE
8
BLACK
6
CONTINUOUS
10
118.623
20
-87.9554
11
118.634
21
-87.9588
0
LINE
8
BLACK
6
CONTINUOUS
10
118.634
20
-87.9588
11
118.646
21
-87.96
0
LINE
8
BLACK
6
CONTINUOUS
10
118.646
20
-87.96
11
122.146
21
-87.96
0
LINE
8
BLACK
6
CONTINUOUS
10
118.706
20
-87.9
11
118.705
21
-87.8883
0
LINE
8
BLACK
6
CONTINUOUS
10
118.705
20
-87.8883
11
118.701
21
-87.877
0
LINE
8
BLACK
6
CONTINUOUS
10
118.701
20
-87.877
11
118.696
21
-87.8667
0
LINE
8
BLACK
6
CONTINUOUS
10
118.696
20
-87.8667
11
118.688
21
-87.8576
0
LINE
8
BLACK
6
CONTINUOUS
10
118.688
20
-87.8576
11
118.679
21
-87.8501
0
LINE
8
BLACK
6
CONTINUOUS
10
118.679
20
-87.8501
11
118.669
21
-87.8446
0
LINE
8
BLACK
6
CONTINUOUS
10
118.669
20
-87.8446
11
118.658
21
-87.8412
0
LINE
8
BLACK
6
CONTINUOUS
10
118.658
20
-87.8412
11
118.646
21
-87.84
0
LINE
8
BLACK
6
CONTINUOUS
10
118.646
20
-87.84
11
118.634
21
-87.8412
0
LINE
8
BLACK
6
CONTINUOUS
10
118.634
20
-87.8412
11
118.623
21
-87.8446
0
LINE
8
BLACK
6
CONTINUOUS
10
118.623
20
-87.8446
11
118.613
21
-87.8501
0
LINE
8
BLACK
6
CONTINUOUS
10
118.613
20
-87.8501
11
118.604
21
-87.8576
0
LINE
8
BLACK
6
CONTINUOUS
10
118.604
20
-87.8576
11
118.596
21
-87.8667
0
LINE
8
BLACK
6
CONTINUOUS
10
118.596
20
-87.8667
11
118.591
21
-87.877
0
LINE
8
BLACK
6
CONTINUOUS
10
118.591
20
-87.877
11
118.587
21
-87.8883
0
LINE
8
BLACK
6
CONTINUOUS
10
118.587
20
-87.8883
11
118.586
21
-87.9
0
LINE
8
BLACK
6
CONTINUOUS
10
118.586
20
-87.9
11
118.586
21
-89.9
0
LINE
8
BLACK
6
CONTINUOUS
10
118.586
20
-89.9
11
118.587
21
-89.9117
0
LINE
8
BLACK
6
CONTINUOUS
10
118.587
20
-89.9117
11
118.591
21
-89.923
0
LINE
8
BLACK
6
CONTINUOUS
10
118.591
20
-89.923
11
118.596
21
-89.9333
0
LINE
8
BLACK
6
CONTINUOUS
10
118.596
20
-89.9333
11
118.604
21
-89.9424
0
LINE
8
BLACK
6
CONTINUOUS
10
118.604
20
-89.9424
11
118.613
21
-89.9499
0
LINE
8
BLACK
6
CONTINUOUS
10
118.613
20
-89.9499
11
118.623
21
-89.9554
0
LINE
8
BLACK
6
CONTINUOUS
10
118.623
20
-89.9554
11
118.634
21
-89.9588
0
LINE
8
BLACK
6
CONTINUOUS
10
118.634
20
-89.9588
11
118.646
21
-89.96
0
LINE
8
BLACK
6
CONTINUOUS
10
118.646
20
-89.96
11
118.658
21
-89.9588
0
LINE
8
BLACK
6
CONTINUOUS
10
118.658
20
-89.9588
11
118.669
21
-89.9554
0
LINE
8
BLACK
6
CONTINUOUS
10
118.669
20
-89.9554
11
118.679
21
-89.9499
0
LINE
8
BLACK
6
CONTINUOUS
10
118.679
20
-89.9499
11
118.688
21
-89.9424
0
LINE
8
BLACK
6
CONTINUOUS
10
118.688
20
-89.9424
11
118.696
21
-89.9333
0
LINE
8
BLACK
6
CONTINUOUS
10
118.696
20
-89.9333
11
118.701
21
-89.923
0
LINE
8
BLACK
6
CONTINUOUS
10
118.701
20
-89.923
11
118.705
21
-89.9117
0
LINE
8
BLACK
6
CONTINUOUS
10
118.705
20
-89.9117
11
118.706
21
-89.9
0
LINE
8
BLACK
6
CONTINUOUS
10
118.706
20
-89.9
11
118.706
21
-87.9
0
LINE
8
BLACK
6
CONTINUOUS
10
122.146
20
-89.96
11
122.158
21
-89.9588
0
LINE
8
BLACK
6
CONTINUOUS
10
122.158
20
-89.9588
11
122.169
21
-89.9554
0
LINE
8
BLACK
6
CONTINUOUS
10
122.169
20
-89.9554
11
122.179
21
-89.9499
0
LINE
8
BLACK
6
CONTINUOUS
10
122.179
20
-89.9499
11
122.188
21
-89.9424
0
LINE
8
BLACK
6
CONTINUOUS
10
122.188
20
-89.9424
11
122.196
21
-89.9333
0
LINE
8
BLACK
6
CONTINUOUS
10
122.196
20
-89.9333
11
122.201
21
-89.923
0
LINE
8
BLACK
6
CONTINUOUS
10
122.201
20
-89.923
11
122.205
21
-89.9117
0
LINE
8
BLACK
6
CONTINUOUS
10
122.205
20
-89.9117
11
122.206
21
-89.9
0
LINE
8
BLACK
6
CONTINUOUS
10
122.206
20
-89.9
11
122.205
21
-89.8883
0
LINE
8
BLACK
6
CONTINUOUS
10
122.205
20
-89.8883
11
122.201
21
-89.877
0
LINE
8
BLACK
6
CONTINUOUS
10
122.201
20
-89.877
11
122.196
21
-89.8667
0
LINE
8
BLACK
6
CONTINUOUS
10
122.196
20
-89.8667
11
122.188
21
-89.8576
0
LINE
8
BLACK
6
CONTINUOUS
10
122.188
20
-89.8576
11
122.179
21
-89.8501
0
LINE
8
BLACK
6
CONTINUOUS
10
122.179
20
-89.8501
11
122.169
21
-89.8446
0
LINE
8
BLACK
6
CONTINUOUS
10
122.169
20
-89.8446
11
122.158
21
-89.8412
0
LINE
8
BLACK
6
CONTINUOUS
10
122.158
20
-89.8412
11
122.146
21
-89.84
0
LINE
8
BLACK
6
CONTINUOUS
10
122.146
20
-89.84
11
118.646
21
-89.84
0
LINE
8
BLACK
6
CONTINUOUS
10
118.646
20
-89.84
11
118.634
21
-89.8412
0
LINE
8
BLACK
6
CONTINUOUS
10
118.634
20
-89.8412
11
118.623
21
-89.8446
0
LINE
8
BLACK
6
CONTINUOUS
10
118.623
20
-89.8446
11
118.613
21
-89.8501
0
LINE
8
BLACK
6
CONTINUOUS
10
118.613
20
-89.8501
11
118.604
21
-89.8576
0
LINE
8
BLACK
6
CONTINUOUS
10
118.604
20
-89.8576
11
118.596
21
-89.8667
0
LINE
8
BLACK
6
CONTINUOUS
10
118.596
20
-89.8667
11
118.591
21
-89.877
0
LINE
8
BLACK
6
CONTINUOUS
10
118.591
20
-89.877
11
118.587
21
-89.8883
0
LINE
8
BLACK
6
CONTINUOUS
10
118.587
20
-89.8883
11
118.586
21
-89.9
0
LINE
8
BLACK
6
CONTINUOUS
10
118.586
20
-89.9
11
118.587
21
-89.9117
0
LINE
8
BLACK
6
CONTINUOUS
10
118.587
20
-89.9117
11
118.591
21
-89.923
0
LINE
8
BLACK
6
CONTINUOUS
10
118.591
20
-89.923
11
118.596
21
-89.9333
0
LINE
8
BLACK
6
CONTINUOUS
10
118.596
20
-89.9333
11
118.604
21
-89.9424
0
LINE
8
BLACK
6
CONTINUOUS
10
118.604
20
-89.9424
11
118.613
21
-89.9499
0
LINE
8
BLACK
6
CONTINUOUS
10
118.613
20
-89.9499
11
118.623
21
-89.9554
0
LINE
8
BLACK
6
CONTINUOUS
10
118.623
20
-89.9554
11
118.634
21
-89.9588
0
LINE
8
BLACK
6
CONTINUOUS
10
118.634
20
-89.9588
11
118.646
21
-89.96
0
LINE
8
BLACK
6
CONTINUOUS
10
118.646
20
-89.96
11
122.146
21
-89.96
0
LINE
8
BLACK
6
CONTINUOUS
10
115.31
20
-87.9
11
115.309
21
-87.8883
0
LINE
8
BLACK
6
CONTINUOUS
10
115.309
20
-87.8883
11
115.305
21
-87.877
0
LINE
8
BLACK
6
CONTINUOUS
10
115.305
20
-87.877
11
115.3
21
-87.8667
0
LINE
8
BLACK
6
CONTINUOUS
10
115.3
20
-87.8667
11
115.292
21
-87.8576
0
LINE
8
BLACK
6
CONTINUOUS
10
115.292
20
-87.8576
11
115.283
21
-87.8501
0
LINE
8
BLACK
6
CONTINUOUS
10
115.283
20
-87.8501
11
115.273
21
-87.8446
0
LINE
8
BLACK
6
CONTINUOUS
10
115.273
20
-87.8446
11
115.262
21
-87.8412
0
LINE
8
BLACK
6
CONTINUOUS
10
115.262
20
-87.8412
11
115.25
21
-87.84
0
LINE
8
BLACK
6
CONTINUOUS
10
115.25
20
-87.84
11
115.238
21
-87.8412
0
LINE
8
BLACK
6
CONTINUOUS
10
115.238
20
-87.8412
11
115.227
21
-87.8446
0
LINE
8
BLACK
6
CONTINUOUS
10
115.227
20
-87.8446
11
115.217
21
-87.8501
0
LINE
8
BLACK
6
CONTINUOUS
10
115.217
20
-87.8501
11
115.208
21
-87.8576
0
LINE
8
BLACK
6
CONTINUOUS
10
115.208
20
-87.8576
11
115.2
21
-87.8667
0
LINE
8
BLACK
6
CONTINUOUS
10
115.2
20
-87.8667
11
115.195
21
-87.877
0
LINE
8
BLACK
6
CONTINUOUS
10
115.195
20
-87.877
11
115.191
21
-87.8883
0
LINE
8
BLACK
6
CONTINUOUS
10
115.191
20
-87.8883
11
115.19
21
-87.9
0
LINE
8
BLACK
6
CONTINUOUS
10
115.19
20
-87.9
11
115.19
21
-89.9
0
LINE
8
BLACK
6
CONTINUOUS
10
115.19
20
-89.9
11
115.191
21
-89.9117
0
LINE
8
BLACK
6
CONTINUOUS
10
115.191
20
-89.9117
11
115.195
21
-89.923
0
LINE
8
BLACK
6
CONTINUOUS
10
115.195
20
-89.923
11
115.2
21
-89.9333
0
LINE
8
BLACK
6
CONTINUOUS
10
115.2
20
-89.9333
11
115.208
21
-89.9424
0
LINE
8
BLACK
6
CONTINUOUS
10
115.208
20
-89.9424
11
115.217
21
-89.9499
0
LINE
8
BLACK
6
CONTINUOUS
10
115.217
20
-89.9499
11
115.227
21
-89.9554
0
LINE
8
BLACK
6
CONTINUOUS
10
115.227
20
-89.9554
11
115.238
21
-89.9588
0
LINE
8
BLACK
6
CONTINUOUS
10
115.238
20
-89.9588
11
115.25
21
-89.96
0
LINE
8
BLACK
6
CONTINUOUS
10
115.25
20
-89.96
11
115.262
21
-89.9588
0
LINE
8
BLACK
6
CONTINUOUS
10
115.262
20
-89.9588
11
115.273
21
-89.9554
0
LINE
8
BLACK
6
CONTINUOUS
10
115.273
20
-89.9554
11
115.283
21
-89.9499
0
LINE
8
BLACK
6
CONTINUOUS
10
115.283
20
-89.9499
11
115.292
21
-89.9424
0
LINE
8
BLACK
6
CONTINUOUS
10
115.292
20
-89.9424
11
115.3
21
-89.9333
0
LINE
8
BLACK
6
CONTINUOUS
10
115.3
20
-89.9333
11
115.305
21
-89.923
0
LINE
8
BLACK
6
CONTINUOUS
10
115.305
20
-89.923
11
115.309
21
-89.9117
0
LINE
8
BLACK
6
CONTINUOUS
10
115.309
20
-89.9117
11
115.31
21
-89.9
0
LINE
8
BLACK
6
CONTINUOUS
10
115.31
20
-89.9
11
115.31
21
-87.9
0
LINE
8
BLACK
6
CONTINUOUS
10
118.75
20
-89.96
11
118.762
21
-89.9588
0
LINE
8
BLACK
6
CONTINUOUS
10
118.762
20
-89.9588
11
118.773
21
-89.9554
0
LINE
8
BLACK
6
CONTINUOUS
10
118.773
20
-89.9554
11
118.783
21
-89.9499
0
LINE
8
BLACK
6
CONTINUOUS
10
118.783
20
-89.9499
11
118.792
21
-89.9424
0
LINE
8
BLACK
6
CONTINUOUS
10
118.792
20
-89.9424
11
118.8
21
-89.9333
0
LINE
8
BLACK
6
CONTINUOUS
10
118.8
20
-89.9333
11
118.805
21
-89.923
0
LINE
8
BLACK
6
CONTINUOUS
10
118.805
20
-89.923
11
118.809
21
-89.9117
0
LINE
8
BLACK
6
CONTINUOUS
10
118.809
20
-89.9117
11
118.81
21
-89.9
0
LINE
8
BLACK
6
CONTINUOUS
10
118.81
20
-89.9
11
118.809
21
-89.8883
0
LINE
8
BLACK
6
CONTINUOUS
10
118.809
20
-89.8883
11
118.805
21
-89.877
0
LINE
8
BLACK
6
CONTINUOUS
10
118.805
20
-89.877
11
118.8
21
-89.8667
0
LINE
8
BLACK
6
CONTINUOUS
10
118.8
20
-89.8667
11
118.792
21
-89.8576
0
LINE
8
BLACK
6
CONTINUOUS
10
118.792
20
-89.8576
11
118.783
21
-89.8501
0
LINE
8
BLACK
6
CONTINUOUS
10
118.783
20
-89.8501
11
118.773
21
-89.8446
0
LINE
8
BLACK
6
CONTINUOUS
10
118.773
20
-89.8446
11
118.762
21
-89.8412
0
LINE
8
BLACK
6
CONTINUOUS
10
118.762
20
-89.8412
11
118.75
21
-89.84
0
LINE
8
BLACK
6
CONTINUOUS
10
118.75
20
-89.84
11
115.25
21
-89.84
0
LINE
8
BLACK
6
CONTINUOUS
10
115.25
20
-89.84
11
115.238
21
-89.8412
0
LINE
8
BLACK
6
CONTINUOUS
10
115.238
20
-89.8412
11
115.227
21
-89.8446
0
LINE
8
BLACK
6
CONTINUOUS
10
115.227
20
-89.8446
11
115.217
21
-89.8501
0
LINE
8
BLACK
6
CONTINUOUS
10
115.217
20
-89.8501
11
115.208
21
-89.8576
0
LINE
8
BLACK
6
CONTINUOUS
10
115.208
20
-89.8576
11
115.2
21
-89.8667
0
LINE
8
BLACK
6
CONTINUOUS
10
115.2
20
-89.8667
11
115.195
21
-89.877
0
LINE
8
BLACK
6
CONTINUOUS
10
115.195
20
-89.877
11
115.191
21
-89.8883
0
LINE
8
BLACK
6
CONTINUOUS
10
115.191
20
-89.8883
11
115.19
21
-89.9
0
LINE
8
BLACK
6
CONTINUOUS
10
115.19
20
-89.9
11
115.191
21
-89.9117
0
LINE
8
BLACK
6
CONTINUOUS
10
115.191
20
-89.9117
11
115.195
21
-89.923
0
LINE
8
BLACK
6
CONTINUOUS
10
115.195
20
-89.923
11
115.2
21
-89.9333
0
LINE
8
BLACK
6
CONTINUOUS
10
115.2
20
-89.9333
11
115.208
21
-89.9424
0
LINE
8
BLACK
6
CONTINUOUS
10
115.208
20
-89.9424
11
115.217
21
-89.9499
0
LINE
8
BLACK
6
CONTINUOUS
10
115.217
20
-89.9499
11
115.227
21
-89.9554
0
LINE
8
BLACK
6
CONTINUOUS
10
115.227
20
-89.9554
11
115.238
21
-89.9588
0
LINE
8
BLACK
6
CONTINUOUS
10
115.238
20
-89.9588
11
115.25
21
-89.96
0
LINE
8
BLACK
6
CONTINUOUS
10
115.25
20
-89.96
11
118.75
21
-89.96
0
LINE
8
BLACK
6
CONTINUOUS
10
118.69
20
-89.9
11
118.691
21
-89.9117
0
LINE
8
BLACK
6
CONTINUOUS
10
118.691
20
-89.9117
11
118.695
21
-89.923
0
LINE
8
BLACK
6
CONTINUOUS
10
118.695
20
-89.923
11
118.7
21
-89.9333
0
LINE
8
BLACK
6
CONTINUOUS
10
118.7
20
-89.9333
11
118.708
21
-89.9424
0
LINE
8
BLACK
6
CONTINUOUS
10
118.708
20
-89.9424
11
118.717
21
-89.9499
0
LINE
8
BLACK
6
CONTINUOUS
10
118.717
20
-89.9499
11
118.727
21
-89.9554
0
LINE
8
BLACK
6
CONTINUOUS
10
118.727
20
-89.9554
11
118.738
21
-89.9588
0
LINE
8
BLACK
6
CONTINUOUS
10
118.738
20
-89.9588
11
118.75
21
-89.96
0
LINE
8
BLACK
6
CONTINUOUS
10
118.75
20
-89.96
11
118.762
21
-89.9588
0
LINE
8
BLACK
6
CONTINUOUS
10
118.762
20
-89.9588
11
118.773
21
-89.9554
0
LINE
8
BLACK
6
CONTINUOUS
10
118.773
20
-89.9554
11
118.783
21
-89.9499
0
LINE
8
BLACK
6
CONTINUOUS
10
118.783
20
-89.9499
11
118.792
21
-89.9424
0
LINE
8
BLACK
6
CONTINUOUS
10
118.792
20
-89.9424
11
118.8
21
-89.9333
0
LINE
8
BLACK
6
CONTINUOUS
10
118.8
20
-89.9333
11
118.805
21
-89.923
0
LINE
8
BLACK
6
CONTINUOUS
10
118.805
20
-89.923
11
118.809
21
-89.9117
0
LINE
8
BLACK
6
CONTINUOUS
10
118.809
20
-89.9117
11
118.81
21
-89.9
0
LINE
8
BLACK
6
CONTINUOUS
10
118.81
20
-89.9
11
118.81
21
-87.9
0
LINE
8
BLACK
6
CONTINUOUS
10
118.81
20
-87.9
11
118.809
21
-87.8883
0
LINE
8
BLACK
6
CONTINUOUS
10
118.809
20
-87.8883
11
118.805
21
-87.877
0
LINE
8
BLACK
6
CONTINUOUS
10
118.805
20
-87.877
11
118.8
21
-87.8667
0
LINE
8
BLACK
6
CONTINUOUS
10
118.8
20
-87.8667
11
118.792
21
-87.8576
0
LINE
8
BLACK
6
CONTINUOUS
10
118.792
20
-87.8576
11
118.783
21
-87.8501
0
LINE
8
BLACK
6
CONTINUOUS
10
118.783
20
-87.8501
11
118.773
21
-87.8446
0
LINE
8
BLACK
6
CONTINUOUS
10
118.773
20
-87.8446
11
118.762
21
-87.8412
0
LINE
8
BLACK
6
CONTINUOUS
10
118.762
20
-87.8412
11
118.75
21
-87.84
0
LINE
8
BLACK
6
CONTINUOUS
10
118.75
20
-87.84
11
118.738
21
-87.8412
0
LINE
8
BLACK
6
CONTINUOUS
10
118.738
20
-87.8412
11
118.727
21
-87.8446
0
LINE
8
BLACK
6
CONTINUOUS
10
118.727
20
-87.8446
11
118.717
21
-87.8501
0
LINE
8
BLACK
6
CONTINUOUS
10
118.717
20
-87.8501
11
118.708
21
-87.8576
0
LINE
8
BLACK
6
CONTINUOUS
10
118.708
20
-87.8576
11
118.7
21
-87.8667
0
LINE
8
BLACK
6
CONTINUOUS
10
118.7
20
-87.8667
11
118.695
21
-87.877
0
LINE
8
BLACK
6
CONTINUOUS
10
118.695
20
-87.877
11
118.691
21
-87.8883
0
LINE
8
BLACK
6
CONTINUOUS
10
118.691
20
-87.8883
11
118.69
21
-87.9
0
LINE
8
BLACK
6
CONTINUOUS
10
118.69
20
-87.9
11
118.69
21
-89.9
0
LINE
8
BLACK
6
CONTINUOUS
10
118.75
20
-87.96
11
118.762
21
-87.9588
0
LINE
8
BLACK
6
CONTINUOUS
10
118.762
20
-87.9588
11
118.773
21
-87.9554
0
LINE
8
BLACK
6
CONTINUOUS
10
118.773
20
-87.9554
11
118.783
21
-87.9499
0
LINE
8
BLACK
6
CONTINUOUS
10
118.783
20
-87.9499
11
118.792
21
-87.9424
0
LINE
8
BLACK
6
CONTINUOUS
10
118.792
20
-87.9424
11
118.8
21
-87.9333
0
LINE
8
BLACK
6
CONTINUOUS
10
118.8
20
-87.9333
11
118.805
21
-87.923
0
LINE
8
BLACK
6
CONTINUOUS
10
118.805
20
-87.923
11
118.809
21
-87.9117
0
LINE
8
BLACK
6
CONTINUOUS
10
118.809
20
-87.9117
11
118.81
21
-87.9
0
LINE
8
BLACK
6
CONTINUOUS
10
118.81
20
-87.9
11
118.809
21
-87.8883
0
LINE
8
BLACK
6
CONTINUOUS
10
118.809
20
-87.8883
11
118.805
21
-87.877
0
LINE
8
BLACK
6
CONTINUOUS
10
118.805
20
-87.877
11
118.8
21
-87.8667
0
LINE
8
BLACK
6
CONTINUOUS
10
118.8
20
-87.8667
11
118.792
21
-87.8576
0
LINE
8
BLACK
6
CONTINUOUS
10
118.792
20
-87.8576
11
118.783
21
-87.8501
0
LINE
8
BLACK
6
CONTINUOUS
10
118.783
20
-87.8501
11
118.773
21
-87.8446
0
LINE
8
BLACK
6
CONTINUOUS
10
118.773
20
-87.8446
11
118.762
21
-87.8412
0
LINE
8
BLACK
6
CONTINUOUS
10
118.762
20
-87.8412
11
118.75
21
-87.84
0
LINE
8
BLACK
6
CONTINUOUS
10
118.75
20
-87.84
11
115.25
21
-87.84
0
LINE
8
BLACK
6
CONTINUOUS
10
115.25
20
-87.84
11
115.238
21
-87.8412
0
LINE
8
BLACK
6
CONTINUOUS
10
115.238
20
-87.8412
11
115.227
21
-87.8446
0
LINE
8
BLACK
6
CONTINUOUS
10
115.227
20
-87.8446
11
115.217
21
-87.8501
0
LINE
8
BLACK
6
CONTINUOUS
10
115.217
20
-87.8501
11
115.208
21
-87.8576
0
LINE
8
BLACK
6
CONTINUOUS
10
115.208
20
-87.8576
11
115.2
21
-87.8667
0
LINE
8
BLACK
6
CONTINUOUS
10
115.2
20
-87.8667
11
115.195
21
-87.877
0
LINE
8
BLACK
6
CONTINUOUS
10
115.195
20
-87.877
11
115.191
21
-87.8883
0
LINE
8
BLACK
6
CONTINUOUS
10
115.191
20
-87.8883
11
115.19
21
-87.9
0
LINE
8
BLACK
6
CONTINUOUS
10
115.19
20
-87.9
11
115.191
21
-87.9117
0
LINE
8
BLACK
6
CONTINUOUS
10
115.191
20
-87.9117
11
115.195
21
-87.923
0
LINE
8
BLACK
6
CONTINUOUS
10
115.195
20
-87.923
11
115.2
21
-87.9333
0
LINE
8
BLACK
6
CONTINUOUS
10
115.2
20
-87.9333
11
115.208
21
-87.9424
0
LINE
8
BLACK
6
CONTINUOUS
10
115.208
20
-87.9424
11
115.217
21
-87.9499
0
LINE
8
BLACK
6
CONTINUOUS
10
115.217
20
-87.9499
11
115.227
21
-87.9554
0
LINE
8
BLACK
6
CONTINUOUS
10
115.227
20
-87.9554
11
115.238
21
-87.9588
0
LINE
8
BLACK
6
CONTINUOUS
10
115.238
20
-87.9588
11
115.25
21
-87.96
0
LINE
8
BLACK
6
CONTINUOUS
10
115.25
20
-87.96
11
118.75
21
-87.96
0
LINE
8
BLACK
6
CONTINUOUS
10
94.98
20
-96.425
11
94.9917
21
-96.4238
0
LINE
8
BLACK
6
CONTINUOUS
10
94.9917
20
-96.4238
11
95.003
21
-96.4204
0
LINE
8
BLACK
6
CONTINUOUS
10
95.003
20
-96.4204
11
95.0133
21
-96.4149
0
LINE
8
BLACK
6
CONTINUOUS
10
95.0133
20
-96.4149
11
95.0224
21
-96.4074
0
LINE
8
BLACK
6
CONTINUOUS
10
95.0224
20
-96.4074
11
95.0299
21
-96.3983
0
LINE
8
BLACK
6
CONTINUOUS
10
95.0299
20
-96.3983
11
95.0354
21
-96.388
0
LINE
8
BLACK
6
CONTINUOUS
10
95.0354
20
-96.388
11
95.0388
21
-96.3767
0
LINE
8
BLACK
6
CONTINUOUS
10
95.0388
20
-96.3767
11
95.04
21
-96.365
0
LINE
8
BLACK
6
CONTINUOUS
10
95.04
20
-96.365
11
95.0388
21
-96.3533
0
LINE
8
BLACK
6
CONTINUOUS
10
95.0388
20
-96.3533
11
95.0354
21
-96.342
0
LINE
8
BLACK
6
CONTINUOUS
10
95.0354
20
-96.342
11
95.0299
21
-96.3317
0
LINE
8
BLACK
6
CONTINUOUS
10
95.0299
20
-96.3317
11
95.0224
21
-96.3226
0
LINE
8
BLACK
6
CONTINUOUS
10
95.0224
20
-96.3226
11
95.0133
21
-96.3151
0
LINE
8
BLACK
6
CONTINUOUS
10
95.0133
20
-96.3151
11
95.003
21
-96.3096
0
LINE
8
BLACK
6
CONTINUOUS
10
95.003
20
-96.3096
11
94.9917
21
-96.3062
0
LINE
8
BLACK
6
CONTINUOUS
10
94.9917
20
-96.3062
11
94.98
21
-96.305
0
LINE
8
BLACK
6
CONTINUOUS
10
94.98
20
-96.305
11
92.98
21
-96.305
0
LINE
8
BLACK
6
CONTINUOUS
10
92.98
20
-96.305
11
92.9683
21
-96.3062
0
LINE
8
BLACK
6
CONTINUOUS
10
92.9683
20
-96.3062
11
92.957
21
-96.3096
0
LINE
8
BLACK
6
CONTINUOUS
10
92.957
20
-96.3096
11
92.9467
21
-96.3151
0
LINE
8
BLACK
6
CONTINUOUS
10
92.9467
20
-96.3151
11
92.9376
21
-96.3226
0
LINE
8
BLACK
6
CONTINUOUS
10
92.9376
20
-96.3226
11
92.9301
21
-96.3317
0
LINE
8
BLACK
6
CONTINUOUS
10
92.9301
20
-96.3317
11
92.9246
21
-96.342
0
LINE
8
BLACK
6
CONTINUOUS
10
92.9246
20
-96.342
11
92.9212
21
-96.3533
0
LINE
8
BLACK
6
CONTINUOUS
10
92.9212
20
-96.3533
11
92.92
21
-96.365
0
LINE
8
BLACK
6
CONTINUOUS
10
92.92
20
-96.365
11
92.9212
21
-96.3767
0
LINE
8
BLACK
6
CONTINUOUS
10
92.9212
20
-96.3767
11
92.9246
21
-96.388
0
LINE
8
BLACK
6
CONTINUOUS
10
92.9246
20
-96.388
11
92.9301
21
-96.3983
0
LINE
8
BLACK
6
CONTINUOUS
10
92.9301
20
-96.3983
11
92.9376
21
-96.4074
0
LINE
8
BLACK
6
CONTINUOUS
10
92.9376
20
-96.4074
11
92.9467
21
-96.4149
0
LINE
8
BLACK
6
CONTINUOUS
10
92.9467
20
-96.4149
11
92.957
21
-96.4204
0
LINE
8
BLACK
6
CONTINUOUS
10
92.957
20
-96.4204
11
92.9683
21
-96.4238
0
LINE
8
BLACK
6
CONTINUOUS
10
92.9683
20
-96.4238
11
92.98
21
-96.425
0
LINE
8
BLACK
6
CONTINUOUS
10
92.98
20
-96.425
11
94.98
21
-96.425
0
LINE
8
BLACK
6
CONTINUOUS
10
94.92
20
-96.365
11
94.9212
21
-96.3767
0
LINE
8
BLACK
6
CONTINUOUS
10
94.9212
20
-96.3767
11
94.9246
21
-96.388
0
LINE
8
BLACK
6
CONTINUOUS
10
94.9246
20
-96.388
11
94.9301
21
-96.3983
0
LINE
8
BLACK
6
CONTINUOUS
10
94.9301
20
-96.3983
11
94.9376
21
-96.4074
0
LINE
8
BLACK
6
CONTINUOUS
10
94.9376
20
-96.4074
11
94.9467
21
-96.4149
0
LINE
8
BLACK
6
CONTINUOUS
10
94.9467
20
-96.4149
11
94.957
21
-96.4204
0
LINE
8
BLACK
6
CONTINUOUS
10
94.957
20
-96.4204
11
94.9683
21
-96.4238
0
LINE
8
BLACK
6
CONTINUOUS
10
94.9683
20
-96.4238
11
94.98
21
-96.425
0
LINE
8
BLACK
6
CONTINUOUS
10
94.98
20
-96.425
11
94.9917
21
-96.4238
0
LINE
8
BLACK
6
CONTINUOUS
10
94.9917
20
-96.4238
11
95.003
21
-96.4204
0
LINE
8
BLACK
6
CONTINUOUS
10
95.003
20
-96.4204
11
95.0133
21
-96.4149
0
LINE
8
BLACK
6
CONTINUOUS
10
95.0133
20
-96.4149
11
95.0224
21
-96.4074
0
LINE
8
BLACK
6
CONTINUOUS
10
95.0224
20
-96.4074
11
95.0299
21
-96.3983
0
LINE
8
BLACK
6
CONTINUOUS
10
95.0299
20
-96.3983
11
95.0354
21
-96.388
0
LINE
8
BLACK
6
CONTINUOUS
10
95.0354
20
-96.388
11
95.0388
21
-96.3767
0
LINE
8
BLACK
6
CONTINUOUS
10
95.0388
20
-96.3767
11
95.04
21
-96.365
0
LINE
8
BLACK
6
CONTINUOUS
10
95.04
20
-96.365
11
95.04
21
-92.865
0
LINE
8
BLACK
6
CONTINUOUS
10
95.04
20
-92.865
11
95.0388
21
-92.8533
0
LINE
8
BLACK
6
CONTINUOUS
10
95.0388
20
-92.8533
11
95.0354
21
-92.842
0
LINE
8
BLACK
6
CONTINUOUS
10
95.0354
20
-92.842
11
95.0299
21
-92.8317
0
LINE
8
BLACK
6
CONTINUOUS
10
95.0299
20
-92.8317
11
95.0224
21
-92.8226
0
LINE
8
BLACK
6
CONTINUOUS
10
95.0224
20
-92.8226
11
95.0133
21
-92.8151
0
LINE
8
BLACK
6
CONTINUOUS
10
95.0133
20
-92.8151
11
95.003
21
-92.8096
0
LINE
8
BLACK
6
CONTINUOUS
10
95.003
20
-92.8096
11
94.9917
21
-92.8062
0
LINE
8
BLACK
6
CONTINUOUS
10
94.9917
20
-92.8062
11
94.98
21
-92.805
0
LINE
8
BLACK
6
CONTINUOUS
10
94.98
20
-92.805
11
94.9683
21
-92.8062
0
LINE
8
BLACK
6
CONTINUOUS
10
94.9683
20
-92.8062
11
94.957
21
-92.8096
0
LINE
8
BLACK
6
CONTINUOUS
10
94.957
20
-92.8096
11
94.9467
21
-92.8151
0
LINE
8
BLACK
6
CONTINUOUS
10
94.9467
20
-92.8151
11
94.9376
21
-92.8226
0
LINE
8
BLACK
6
CONTINUOUS
10
94.9376
20
-92.8226
11
94.9301
21
-92.8317
0
LINE
8
BLACK
6
CONTINUOUS
10
94.9301
20
-92.8317
11
94.9246
21
-92.842
0
LINE
8
BLACK
6
CONTINUOUS
10
94.9246
20
-92.842
11
94.9212
21
-92.8533
0
LINE
8
BLACK
6
CONTINUOUS
10
94.9212
20
-92.8533
11
94.92
21
-92.865
0
LINE
8
BLACK
6
CONTINUOUS
10
94.92
20
-92.865
11
94.92
21
-96.365
0
LINE
8
BLACK
6
CONTINUOUS
10
94.98
20
-92.925
11
94.9917
21
-92.9238
0
LINE
8
BLACK
6
CONTINUOUS
10
94.9917
20
-92.9238
11
95.003
21
-92.9204
0
LINE
8
BLACK
6
CONTINUOUS
10
95.003
20
-92.9204
11
95.0133
21
-92.9149
0
LINE
8
BLACK
6
CONTINUOUS
10
95.0133
20
-92.9149
11
95.0224
21
-92.9074
0
LINE
8
BLACK
6
CONTINUOUS
10
95.0224
20
-92.9074
11
95.0299
21
-92.8983
0
LINE
8
BLACK
6
CONTINUOUS
10
95.0299
20
-92.8983
11
95.0354
21
-92.888
0
LINE
8
BLACK
6
CONTINUOUS
10
95.0354
20
-92.888
11
95.0388
21
-92.8767
0
LINE
8
BLACK
6
CONTINUOUS
10
95.0388
20
-92.8767
11
95.04
21
-92.865
0
LINE
8
BLACK
6
CONTINUOUS
10
95.04
20
-92.865
11
95.0388
21
-92.8533
0
LINE
8
BLACK
6
CONTINUOUS
10
95.0388
20
-92.8533
11
95.0354
21
-92.842
0
LINE
8
BLACK
6
CONTINUOUS
10
95.0354
20
-92.842
11
95.0299
21
-92.8317
0
LINE
8
BLACK
6
CONTINUOUS
10
95.0299
20
-92.8317
11
95.0224
21
-92.8226
0
LINE
8
BLACK
6
CONTINUOUS
10
95.0224
20
-92.8226
11
95.0133
21
-92.8151
0
LINE
8
BLACK
6
CONTINUOUS
10
95.0133
20
-92.8151
11
95.003
21
-92.8096
0
LINE
8
BLACK
6
CONTINUOUS
10
95.003
20
-92.8096
11
94.9917
21
-92.8062
0
LINE
8
BLACK
6
CONTINUOUS
10
94.9917
20
-92.8062
11
94.98
21
-92.805
0
LINE
8
BLACK
6
CONTINUOUS
10
94.98
20
-92.805
11
92.98
21
-92.805
0
LINE
8
BLACK
6
CONTINUOUS
10
92.98
20
-92.805
11
92.9683
21
-92.8062
0
LINE
8
BLACK
6
CONTINUOUS
10
92.9683
20
-92.8062
11
92.957
21
-92.8096
0
LINE
8
BLACK
6
CONTINUOUS
10
92.957
20
-92.8096
11
92.9467
21
-92.8151
0
LINE
8
BLACK
6
CONTINUOUS
10
92.9467
20
-92.8151
11
92.9376
21
-92.8226
0
LINE
8
BLACK
6
CONTINUOUS
10
92.9376
20
-92.8226
11
92.9301
21
-92.8317
0
LINE
8
BLACK
6
CONTINUOUS
10
92.9301
20
-92.8317
11
92.9246
21
-92.842
0
LINE
8
BLACK
6
CONTINUOUS
10
92.9246
20
-92.842
11
92.9212
21
-92.8533
0
LINE
8
BLACK
6
CONTINUOUS
10
92.9212
20
-92.8533
11
92.92
21
-92.865
0
LINE
8
BLACK
6
CONTINUOUS
10
92.92
20
-92.865
11
92.9212
21
-92.8767
0
LINE
8
BLACK
6
CONTINUOUS
10
92.9212
20
-92.8767
11
92.9246
21
-92.888
0
LINE
8
BLACK
6
CONTINUOUS
10
92.9246
20
-92.888
11
92.9301
21
-92.8983
0
LINE
8
BLACK
6
CONTINUOUS
10
92.9301
20
-92.8983
11
92.9376
21
-92.9074
0
LINE
8
BLACK
6
CONTINUOUS
10
92.9376
20
-92.9074
11
92.9467
21
-92.9149
0
LINE
8
BLACK
6
CONTINUOUS
10
92.9467
20
-92.9149
11
92.957
21
-92.9204
0
LINE
8
BLACK
6
CONTINUOUS
10
92.957
20
-92.9204
11
92.9683
21
-92.9238
0
LINE
8
BLACK
6
CONTINUOUS
10
92.9683
20
-92.9238
11
92.98
21
-92.925
0
LINE
8
BLACK
6
CONTINUOUS
10
92.98
20
-92.925
11
94.98
21
-92.925
0
LINE
8
BLACK
6
CONTINUOUS
10
93.04
20
-92.865
11
93.0388
21
-92.8533
0
LINE
8
BLACK
6
CONTINUOUS
10
93.0388
20
-92.8533
11
93.0354
21
-92.842
0
LINE
8
BLACK
6
CONTINUOUS
10
93.0354
20
-92.842
11
93.0299
21
-92.8317
0
LINE
8
BLACK
6
CONTINUOUS
10
93.0299
20
-92.8317
11
93.0224
21
-92.8226
0
LINE
8
BLACK
6
CONTINUOUS
10
93.0224
20
-92.8226
11
93.0133
21
-92.8151
0
LINE
8
BLACK
6
CONTINUOUS
10
93.0133
20
-92.8151
11
93.003
21
-92.8096
0
LINE
8
BLACK
6
CONTINUOUS
10
93.003
20
-92.8096
11
92.9917
21
-92.8062
0
LINE
8
BLACK
6
CONTINUOUS
10
92.9917
20
-92.8062
11
92.98
21
-92.805
0
LINE
8
BLACK
6
CONTINUOUS
10
92.98
20
-92.805
11
92.9683
21
-92.8062
0
LINE
8
BLACK
6
CONTINUOUS
10
92.9683
20
-92.8062
11
92.957
21
-92.8096
0
LINE
8
BLACK
6
CONTINUOUS
10
92.957
20
-92.8096
11
92.9467
21
-92.8151
0
LINE
8
BLACK
6
CONTINUOUS
10
92.9467
20
-92.8151
11
92.9376
21
-92.8226
0
LINE
8
BLACK
6
CONTINUOUS
10
92.9376
20
-92.8226
11
92.9301
21
-92.8317
0
LINE
8
BLACK
6
CONTINUOUS
10
92.9301
20
-92.8317
11
92.9246
21
-92.842
0
LINE
8
BLACK
6
CONTINUOUS
10
92.9246
20
-92.842
11
92.9212
21
-92.8533
0
LINE
8
BLACK
6
CONTINUOUS
10
92.9212
20
-92.8533
11
92.92
21
-92.865
0
LINE
8
BLACK
6
CONTINUOUS
10
92.92
20
-92.865
11
92.92
21
-96.365
0
LINE
8
BLACK
6
CONTINUOUS
10
92.92
20
-96.365
11
92.9212
21
-96.3767
0
LINE
8
BLACK
6
CONTINUOUS
10
92.9212
20
-96.3767
11
92.9246
21
-96.388
0
LINE
8
BLACK
6
CONTINUOUS
10
92.9246
20
-96.388
11
92.9301
21
-96.3983
0
LINE
8
BLACK
6
CONTINUOUS
10
92.9301
20
-96.3983
11
92.9376
21
-96.4074
0
LINE
8
BLACK
6
CONTINUOUS
10
92.9376
20
-96.4074
11
92.9467
21
-96.4149
0
LINE
8
BLACK
6
CONTINUOUS
10
92.9467
20
-96.4149
11
92.957
21
-96.4204
0
LINE
8
BLACK
6
CONTINUOUS
10
92.957
20
-96.4204
11
92.9683
21
-96.4238
0
LINE
8
BLACK
6
CONTINUOUS
10
92.9683
20
-96.4238
11
92.98
21
-96.425
0
LINE
8
BLACK
6
CONTINUOUS
10
92.98
20
-96.425
11
92.9917
21
-96.4238
0
LINE
8
BLACK
6
CONTINUOUS
10
92.9917
20
-96.4238
11
93.003
21
-96.4204
0
LINE
8
BLACK
6
CONTINUOUS
10
93.003
20
-96.4204
11
93.0133
21
-96.4149
0
LINE
8
BLACK
6
CONTINUOUS
10
93.0133
20
-96.4149
11
93.0224
21
-96.4074
0
LINE
8
BLACK
6
CONTINUOUS
10
93.0224
20
-96.4074
11
93.0299
21
-96.3983
0
LINE
8
BLACK
6
CONTINUOUS
10
93.0299
20
-96.3983
11
93.0354
21
-96.388
0
LINE
8
BLACK
6
CONTINUOUS
10
93.0354
20
-96.388
11
93.0388
21
-96.3767
0
LINE
8
BLACK
6
CONTINUOUS
10
93.0388
20
-96.3767
11
93.04
21
-96.365
0
LINE
8
BLACK
6
CONTINUOUS
10
93.04
20
-96.365
11
93.04
21
-92.865
  0
ENDSEC
  0
EOF
