G04 #@! TF.GenerationSoftware,KiCad,Pcbnew,7.0.2-6a45011f42~172~ubuntu22.04.1*
G04 #@! TF.CreationDate,2023-05-04T12:37:46-07:00*
G04 #@! TF.ProjectId,atmelice-swd-breakout-switch,61746d65-6c69-4636-952d-7377642d6272,rev?*
G04 #@! TF.SameCoordinates,Original*
G04 #@! TF.FileFunction,Legend,Bot*
G04 #@! TF.FilePolarity,Positive*
%FSLAX46Y46*%
G04 Gerber Fmt 4.6, Leading zero omitted, Abs format (unit mm)*
G04 Created by KiCad (PCBNEW 7.0.2-6a45011f42~172~ubuntu22.04.1) date 2023-05-04 12:37:46*
%MOMM*%
%LPD*%
G01*
G04 APERTURE LIST*
%ADD10C,0.250000*%
G04 APERTURE END LIST*
D10*
X150970237Y-127462619D02*
X150970237Y-126462619D01*
X150970237Y-126462619D02*
X150636904Y-127176904D01*
X150636904Y-127176904D02*
X150303571Y-126462619D01*
X150303571Y-126462619D02*
X150303571Y-127462619D01*
X149398809Y-127462619D02*
X149398809Y-126938809D01*
X149398809Y-126938809D02*
X149446428Y-126843571D01*
X149446428Y-126843571D02*
X149541666Y-126795952D01*
X149541666Y-126795952D02*
X149732142Y-126795952D01*
X149732142Y-126795952D02*
X149827380Y-126843571D01*
X149398809Y-127415000D02*
X149494047Y-127462619D01*
X149494047Y-127462619D02*
X149732142Y-127462619D01*
X149732142Y-127462619D02*
X149827380Y-127415000D01*
X149827380Y-127415000D02*
X149874999Y-127319761D01*
X149874999Y-127319761D02*
X149874999Y-127224523D01*
X149874999Y-127224523D02*
X149827380Y-127129285D01*
X149827380Y-127129285D02*
X149732142Y-127081666D01*
X149732142Y-127081666D02*
X149494047Y-127081666D01*
X149494047Y-127081666D02*
X149398809Y-127034047D01*
X149017856Y-126795952D02*
X148779761Y-127462619D01*
X148541666Y-126795952D02*
X148779761Y-127462619D01*
X148779761Y-127462619D02*
X148874999Y-127700714D01*
X148874999Y-127700714D02*
X148922618Y-127748333D01*
X148922618Y-127748333D02*
X149017856Y-127795952D01*
X148208332Y-126557857D02*
X148160713Y-126510238D01*
X148160713Y-126510238D02*
X148065475Y-126462619D01*
X148065475Y-126462619D02*
X147827380Y-126462619D01*
X147827380Y-126462619D02*
X147732142Y-126510238D01*
X147732142Y-126510238D02*
X147684523Y-126557857D01*
X147684523Y-126557857D02*
X147636904Y-126653095D01*
X147636904Y-126653095D02*
X147636904Y-126748333D01*
X147636904Y-126748333D02*
X147684523Y-126891190D01*
X147684523Y-126891190D02*
X148255951Y-127462619D01*
X148255951Y-127462619D02*
X147636904Y-127462619D01*
X147017856Y-126462619D02*
X146922618Y-126462619D01*
X146922618Y-126462619D02*
X146827380Y-126510238D01*
X146827380Y-126510238D02*
X146779761Y-126557857D01*
X146779761Y-126557857D02*
X146732142Y-126653095D01*
X146732142Y-126653095D02*
X146684523Y-126843571D01*
X146684523Y-126843571D02*
X146684523Y-127081666D01*
X146684523Y-127081666D02*
X146732142Y-127272142D01*
X146732142Y-127272142D02*
X146779761Y-127367380D01*
X146779761Y-127367380D02*
X146827380Y-127415000D01*
X146827380Y-127415000D02*
X146922618Y-127462619D01*
X146922618Y-127462619D02*
X147017856Y-127462619D01*
X147017856Y-127462619D02*
X147113094Y-127415000D01*
X147113094Y-127415000D02*
X147160713Y-127367380D01*
X147160713Y-127367380D02*
X147208332Y-127272142D01*
X147208332Y-127272142D02*
X147255951Y-127081666D01*
X147255951Y-127081666D02*
X147255951Y-126843571D01*
X147255951Y-126843571D02*
X147208332Y-126653095D01*
X147208332Y-126653095D02*
X147160713Y-126557857D01*
X147160713Y-126557857D02*
X147113094Y-126510238D01*
X147113094Y-126510238D02*
X147017856Y-126462619D01*
X146303570Y-126557857D02*
X146255951Y-126510238D01*
X146255951Y-126510238D02*
X146160713Y-126462619D01*
X146160713Y-126462619D02*
X145922618Y-126462619D01*
X145922618Y-126462619D02*
X145827380Y-126510238D01*
X145827380Y-126510238D02*
X145779761Y-126557857D01*
X145779761Y-126557857D02*
X145732142Y-126653095D01*
X145732142Y-126653095D02*
X145732142Y-126748333D01*
X145732142Y-126748333D02*
X145779761Y-126891190D01*
X145779761Y-126891190D02*
X146351189Y-127462619D01*
X146351189Y-127462619D02*
X145732142Y-127462619D01*
X145398808Y-126462619D02*
X144779761Y-126462619D01*
X144779761Y-126462619D02*
X145113094Y-126843571D01*
X145113094Y-126843571D02*
X144970237Y-126843571D01*
X144970237Y-126843571D02*
X144874999Y-126891190D01*
X144874999Y-126891190D02*
X144827380Y-126938809D01*
X144827380Y-126938809D02*
X144779761Y-127034047D01*
X144779761Y-127034047D02*
X144779761Y-127272142D01*
X144779761Y-127272142D02*
X144827380Y-127367380D01*
X144827380Y-127367380D02*
X144874999Y-127415000D01*
X144874999Y-127415000D02*
X144970237Y-127462619D01*
X144970237Y-127462619D02*
X145255951Y-127462619D01*
X145255951Y-127462619D02*
X145351189Y-127415000D01*
X145351189Y-127415000D02*
X145398808Y-127367380D01*
X142970237Y-126986428D02*
X143017856Y-126938809D01*
X143017856Y-126938809D02*
X143113094Y-126891190D01*
X143113094Y-126891190D02*
X143208332Y-126891190D01*
X143208332Y-126891190D02*
X143303570Y-126938809D01*
X143303570Y-126938809D02*
X143351189Y-126986428D01*
X143351189Y-126986428D02*
X143398808Y-127081666D01*
X143398808Y-127081666D02*
X143398808Y-127176904D01*
X143398808Y-127176904D02*
X143351189Y-127272142D01*
X143351189Y-127272142D02*
X143303570Y-127319761D01*
X143303570Y-127319761D02*
X143208332Y-127367380D01*
X143208332Y-127367380D02*
X143113094Y-127367380D01*
X143113094Y-127367380D02*
X143017856Y-127319761D01*
X143017856Y-127319761D02*
X142970237Y-127272142D01*
X142970237Y-126891190D02*
X142970237Y-127272142D01*
X142970237Y-127272142D02*
X142922618Y-127319761D01*
X142922618Y-127319761D02*
X142874999Y-127319761D01*
X142874999Y-127319761D02*
X142779760Y-127272142D01*
X142779760Y-127272142D02*
X142732141Y-127176904D01*
X142732141Y-127176904D02*
X142732141Y-126938809D01*
X142732141Y-126938809D02*
X142827380Y-126795952D01*
X142827380Y-126795952D02*
X142970237Y-126700714D01*
X142970237Y-126700714D02*
X143160713Y-126653095D01*
X143160713Y-126653095D02*
X143351189Y-126700714D01*
X143351189Y-126700714D02*
X143494046Y-126795952D01*
X143494046Y-126795952D02*
X143589284Y-126938809D01*
X143589284Y-126938809D02*
X143636903Y-127129285D01*
X143636903Y-127129285D02*
X143589284Y-127319761D01*
X143589284Y-127319761D02*
X143494046Y-127462619D01*
X143494046Y-127462619D02*
X143351189Y-127557857D01*
X143351189Y-127557857D02*
X143160713Y-127605476D01*
X143160713Y-127605476D02*
X142970237Y-127557857D01*
X142970237Y-127557857D02*
X142827380Y-127462619D01*
X142446427Y-126462619D02*
X141874999Y-126462619D01*
X142160713Y-127462619D02*
X142160713Y-126462619D01*
X141398808Y-127462619D02*
X141494046Y-127415000D01*
X141494046Y-127415000D02*
X141541665Y-127367380D01*
X141541665Y-127367380D02*
X141589284Y-127272142D01*
X141589284Y-127272142D02*
X141589284Y-126986428D01*
X141589284Y-126986428D02*
X141541665Y-126891190D01*
X141541665Y-126891190D02*
X141494046Y-126843571D01*
X141494046Y-126843571D02*
X141398808Y-126795952D01*
X141398808Y-126795952D02*
X141255951Y-126795952D01*
X141255951Y-126795952D02*
X141160713Y-126843571D01*
X141160713Y-126843571D02*
X141113094Y-126891190D01*
X141113094Y-126891190D02*
X141065475Y-126986428D01*
X141065475Y-126986428D02*
X141065475Y-127272142D01*
X141065475Y-127272142D02*
X141113094Y-127367380D01*
X141113094Y-127367380D02*
X141160713Y-127415000D01*
X141160713Y-127415000D02*
X141255951Y-127462619D01*
X141255951Y-127462619D02*
X141398808Y-127462619D01*
X140636903Y-127462619D02*
X140636903Y-126795952D01*
X140636903Y-126891190D02*
X140589284Y-126843571D01*
X140589284Y-126843571D02*
X140494046Y-126795952D01*
X140494046Y-126795952D02*
X140351189Y-126795952D01*
X140351189Y-126795952D02*
X140255951Y-126843571D01*
X140255951Y-126843571D02*
X140208332Y-126938809D01*
X140208332Y-126938809D02*
X140208332Y-127462619D01*
X140208332Y-126938809D02*
X140160713Y-126843571D01*
X140160713Y-126843571D02*
X140065475Y-126795952D01*
X140065475Y-126795952D02*
X139922618Y-126795952D01*
X139922618Y-126795952D02*
X139827379Y-126843571D01*
X139827379Y-126843571D02*
X139779760Y-126938809D01*
X139779760Y-126938809D02*
X139779760Y-127462619D01*
X139303570Y-127462619D02*
X139303570Y-126462619D01*
X138732142Y-127462619D02*
X139160713Y-126891190D01*
X138732142Y-126462619D02*
X139303570Y-127034047D01*
X137922618Y-127415000D02*
X138017856Y-127462619D01*
X138017856Y-127462619D02*
X138208332Y-127462619D01*
X138208332Y-127462619D02*
X138303570Y-127415000D01*
X138303570Y-127415000D02*
X138351189Y-127319761D01*
X138351189Y-127319761D02*
X138351189Y-126938809D01*
X138351189Y-126938809D02*
X138303570Y-126843571D01*
X138303570Y-126843571D02*
X138208332Y-126795952D01*
X138208332Y-126795952D02*
X138017856Y-126795952D01*
X138017856Y-126795952D02*
X137922618Y-126843571D01*
X137922618Y-126843571D02*
X137874999Y-126938809D01*
X137874999Y-126938809D02*
X137874999Y-127034047D01*
X137874999Y-127034047D02*
X138351189Y-127129285D01*
X137017856Y-127462619D02*
X137017856Y-126462619D01*
X137017856Y-127415000D02*
X137113094Y-127462619D01*
X137113094Y-127462619D02*
X137303570Y-127462619D01*
X137303570Y-127462619D02*
X137398808Y-127415000D01*
X137398808Y-127415000D02*
X137446427Y-127367380D01*
X137446427Y-127367380D02*
X137494046Y-127272142D01*
X137494046Y-127272142D02*
X137494046Y-126986428D01*
X137494046Y-126986428D02*
X137446427Y-126891190D01*
X137446427Y-126891190D02*
X137398808Y-126843571D01*
X137398808Y-126843571D02*
X137303570Y-126795952D01*
X137303570Y-126795952D02*
X137113094Y-126795952D01*
X137113094Y-126795952D02*
X137017856Y-126843571D01*
X136113094Y-127462619D02*
X136113094Y-126462619D01*
X136113094Y-127415000D02*
X136208332Y-127462619D01*
X136208332Y-127462619D02*
X136398808Y-127462619D01*
X136398808Y-127462619D02*
X136494046Y-127415000D01*
X136494046Y-127415000D02*
X136541665Y-127367380D01*
X136541665Y-127367380D02*
X136589284Y-127272142D01*
X136589284Y-127272142D02*
X136589284Y-126986428D01*
X136589284Y-126986428D02*
X136541665Y-126891190D01*
X136541665Y-126891190D02*
X136494046Y-126843571D01*
X136494046Y-126843571D02*
X136398808Y-126795952D01*
X136398808Y-126795952D02*
X136208332Y-126795952D01*
X136208332Y-126795952D02*
X136113094Y-126843571D01*
X135636903Y-127462619D02*
X135636903Y-126795952D01*
X135636903Y-126462619D02*
X135684522Y-126510238D01*
X135684522Y-126510238D02*
X135636903Y-126557857D01*
X135636903Y-126557857D02*
X135589284Y-126510238D01*
X135589284Y-126510238D02*
X135636903Y-126462619D01*
X135636903Y-126462619D02*
X135636903Y-126557857D01*
X134779761Y-127415000D02*
X134874999Y-127462619D01*
X134874999Y-127462619D02*
X135065475Y-127462619D01*
X135065475Y-127462619D02*
X135160713Y-127415000D01*
X135160713Y-127415000D02*
X135208332Y-127319761D01*
X135208332Y-127319761D02*
X135208332Y-126938809D01*
X135208332Y-126938809D02*
X135160713Y-126843571D01*
X135160713Y-126843571D02*
X135065475Y-126795952D01*
X135065475Y-126795952D02*
X134874999Y-126795952D01*
X134874999Y-126795952D02*
X134779761Y-126843571D01*
X134779761Y-126843571D02*
X134732142Y-126938809D01*
X134732142Y-126938809D02*
X134732142Y-127034047D01*
X134732142Y-127034047D02*
X135208332Y-127129285D01*
X155081381Y-122382619D02*
X155081381Y-121858809D01*
X155081381Y-121858809D02*
X155129000Y-121763571D01*
X155129000Y-121763571D02*
X155224238Y-121715952D01*
X155224238Y-121715952D02*
X155414714Y-121715952D01*
X155414714Y-121715952D02*
X155509952Y-121763571D01*
X155081381Y-122335000D02*
X155176619Y-122382619D01*
X155176619Y-122382619D02*
X155414714Y-122382619D01*
X155414714Y-122382619D02*
X155509952Y-122335000D01*
X155509952Y-122335000D02*
X155557571Y-122239761D01*
X155557571Y-122239761D02*
X155557571Y-122144523D01*
X155557571Y-122144523D02*
X155509952Y-122049285D01*
X155509952Y-122049285D02*
X155414714Y-122001666D01*
X155414714Y-122001666D02*
X155176619Y-122001666D01*
X155176619Y-122001666D02*
X155081381Y-121954047D01*
X154748047Y-121715952D02*
X154367095Y-121715952D01*
X154605190Y-121382619D02*
X154605190Y-122239761D01*
X154605190Y-122239761D02*
X154557571Y-122335000D01*
X154557571Y-122335000D02*
X154462333Y-122382619D01*
X154462333Y-122382619D02*
X154367095Y-122382619D01*
X154033761Y-122382619D02*
X154033761Y-121715952D01*
X154033761Y-121811190D02*
X153986142Y-121763571D01*
X153986142Y-121763571D02*
X153890904Y-121715952D01*
X153890904Y-121715952D02*
X153748047Y-121715952D01*
X153748047Y-121715952D02*
X153652809Y-121763571D01*
X153652809Y-121763571D02*
X153605190Y-121858809D01*
X153605190Y-121858809D02*
X153605190Y-122382619D01*
X153605190Y-121858809D02*
X153557571Y-121763571D01*
X153557571Y-121763571D02*
X153462333Y-121715952D01*
X153462333Y-121715952D02*
X153319476Y-121715952D01*
X153319476Y-121715952D02*
X153224237Y-121763571D01*
X153224237Y-121763571D02*
X153176618Y-121858809D01*
X153176618Y-121858809D02*
X153176618Y-122382619D01*
X152319476Y-122335000D02*
X152414714Y-122382619D01*
X152414714Y-122382619D02*
X152605190Y-122382619D01*
X152605190Y-122382619D02*
X152700428Y-122335000D01*
X152700428Y-122335000D02*
X152748047Y-122239761D01*
X152748047Y-122239761D02*
X152748047Y-121858809D01*
X152748047Y-121858809D02*
X152700428Y-121763571D01*
X152700428Y-121763571D02*
X152605190Y-121715952D01*
X152605190Y-121715952D02*
X152414714Y-121715952D01*
X152414714Y-121715952D02*
X152319476Y-121763571D01*
X152319476Y-121763571D02*
X152271857Y-121858809D01*
X152271857Y-121858809D02*
X152271857Y-121954047D01*
X152271857Y-121954047D02*
X152748047Y-122049285D01*
X151700428Y-122382619D02*
X151795666Y-122335000D01*
X151795666Y-122335000D02*
X151843285Y-122239761D01*
X151843285Y-122239761D02*
X151843285Y-121382619D01*
X151319475Y-122001666D02*
X150557571Y-122001666D01*
X150081380Y-122382619D02*
X150081380Y-121715952D01*
X150081380Y-121382619D02*
X150128999Y-121430238D01*
X150128999Y-121430238D02*
X150081380Y-121477857D01*
X150081380Y-121477857D02*
X150033761Y-121430238D01*
X150033761Y-121430238D02*
X150081380Y-121382619D01*
X150081380Y-121382619D02*
X150081380Y-121477857D01*
X149176619Y-122335000D02*
X149271857Y-122382619D01*
X149271857Y-122382619D02*
X149462333Y-122382619D01*
X149462333Y-122382619D02*
X149557571Y-122335000D01*
X149557571Y-122335000D02*
X149605190Y-122287380D01*
X149605190Y-122287380D02*
X149652809Y-122192142D01*
X149652809Y-122192142D02*
X149652809Y-121906428D01*
X149652809Y-121906428D02*
X149605190Y-121811190D01*
X149605190Y-121811190D02*
X149557571Y-121763571D01*
X149557571Y-121763571D02*
X149462333Y-121715952D01*
X149462333Y-121715952D02*
X149271857Y-121715952D01*
X149271857Y-121715952D02*
X149176619Y-121763571D01*
X148367095Y-122335000D02*
X148462333Y-122382619D01*
X148462333Y-122382619D02*
X148652809Y-122382619D01*
X148652809Y-122382619D02*
X148748047Y-122335000D01*
X148748047Y-122335000D02*
X148795666Y-122239761D01*
X148795666Y-122239761D02*
X148795666Y-121858809D01*
X148795666Y-121858809D02*
X148748047Y-121763571D01*
X148748047Y-121763571D02*
X148652809Y-121715952D01*
X148652809Y-121715952D02*
X148462333Y-121715952D01*
X148462333Y-121715952D02*
X148367095Y-121763571D01*
X148367095Y-121763571D02*
X148319476Y-121858809D01*
X148319476Y-121858809D02*
X148319476Y-121954047D01*
X148319476Y-121954047D02*
X148795666Y-122049285D01*
X147890904Y-122001666D02*
X147129000Y-122001666D01*
X146700428Y-122335000D02*
X146605190Y-122382619D01*
X146605190Y-122382619D02*
X146414714Y-122382619D01*
X146414714Y-122382619D02*
X146319476Y-122335000D01*
X146319476Y-122335000D02*
X146271857Y-122239761D01*
X146271857Y-122239761D02*
X146271857Y-122192142D01*
X146271857Y-122192142D02*
X146319476Y-122096904D01*
X146319476Y-122096904D02*
X146414714Y-122049285D01*
X146414714Y-122049285D02*
X146557571Y-122049285D01*
X146557571Y-122049285D02*
X146652809Y-122001666D01*
X146652809Y-122001666D02*
X146700428Y-121906428D01*
X146700428Y-121906428D02*
X146700428Y-121858809D01*
X146700428Y-121858809D02*
X146652809Y-121763571D01*
X146652809Y-121763571D02*
X146557571Y-121715952D01*
X146557571Y-121715952D02*
X146414714Y-121715952D01*
X146414714Y-121715952D02*
X146319476Y-121763571D01*
X145938523Y-121715952D02*
X145748047Y-122382619D01*
X145748047Y-122382619D02*
X145557571Y-121906428D01*
X145557571Y-121906428D02*
X145367095Y-122382619D01*
X145367095Y-122382619D02*
X145176619Y-121715952D01*
X144367095Y-122382619D02*
X144367095Y-121382619D01*
X144367095Y-122335000D02*
X144462333Y-122382619D01*
X144462333Y-122382619D02*
X144652809Y-122382619D01*
X144652809Y-122382619D02*
X144748047Y-122335000D01*
X144748047Y-122335000D02*
X144795666Y-122287380D01*
X144795666Y-122287380D02*
X144843285Y-122192142D01*
X144843285Y-122192142D02*
X144843285Y-121906428D01*
X144843285Y-121906428D02*
X144795666Y-121811190D01*
X144795666Y-121811190D02*
X144748047Y-121763571D01*
X144748047Y-121763571D02*
X144652809Y-121715952D01*
X144652809Y-121715952D02*
X144462333Y-121715952D01*
X144462333Y-121715952D02*
X144367095Y-121763571D01*
X143890904Y-122001666D02*
X143129000Y-122001666D01*
X142652809Y-122382619D02*
X142652809Y-121382619D01*
X142652809Y-121763571D02*
X142557571Y-121715952D01*
X142557571Y-121715952D02*
X142367095Y-121715952D01*
X142367095Y-121715952D02*
X142271857Y-121763571D01*
X142271857Y-121763571D02*
X142224238Y-121811190D01*
X142224238Y-121811190D02*
X142176619Y-121906428D01*
X142176619Y-121906428D02*
X142176619Y-122192142D01*
X142176619Y-122192142D02*
X142224238Y-122287380D01*
X142224238Y-122287380D02*
X142271857Y-122335000D01*
X142271857Y-122335000D02*
X142367095Y-122382619D01*
X142367095Y-122382619D02*
X142557571Y-122382619D01*
X142557571Y-122382619D02*
X142652809Y-122335000D01*
X141748047Y-122382619D02*
X141748047Y-121715952D01*
X141748047Y-121906428D02*
X141700428Y-121811190D01*
X141700428Y-121811190D02*
X141652809Y-121763571D01*
X141652809Y-121763571D02*
X141557571Y-121715952D01*
X141557571Y-121715952D02*
X141462333Y-121715952D01*
X140748047Y-122335000D02*
X140843285Y-122382619D01*
X140843285Y-122382619D02*
X141033761Y-122382619D01*
X141033761Y-122382619D02*
X141128999Y-122335000D01*
X141128999Y-122335000D02*
X141176618Y-122239761D01*
X141176618Y-122239761D02*
X141176618Y-121858809D01*
X141176618Y-121858809D02*
X141128999Y-121763571D01*
X141128999Y-121763571D02*
X141033761Y-121715952D01*
X141033761Y-121715952D02*
X140843285Y-121715952D01*
X140843285Y-121715952D02*
X140748047Y-121763571D01*
X140748047Y-121763571D02*
X140700428Y-121858809D01*
X140700428Y-121858809D02*
X140700428Y-121954047D01*
X140700428Y-121954047D02*
X141176618Y-122049285D01*
X139843285Y-122382619D02*
X139843285Y-121858809D01*
X139843285Y-121858809D02*
X139890904Y-121763571D01*
X139890904Y-121763571D02*
X139986142Y-121715952D01*
X139986142Y-121715952D02*
X140176618Y-121715952D01*
X140176618Y-121715952D02*
X140271856Y-121763571D01*
X139843285Y-122335000D02*
X139938523Y-122382619D01*
X139938523Y-122382619D02*
X140176618Y-122382619D01*
X140176618Y-122382619D02*
X140271856Y-122335000D01*
X140271856Y-122335000D02*
X140319475Y-122239761D01*
X140319475Y-122239761D02*
X140319475Y-122144523D01*
X140319475Y-122144523D02*
X140271856Y-122049285D01*
X140271856Y-122049285D02*
X140176618Y-122001666D01*
X140176618Y-122001666D02*
X139938523Y-122001666D01*
X139938523Y-122001666D02*
X139843285Y-121954047D01*
X139367094Y-122382619D02*
X139367094Y-121382619D01*
X139271856Y-122001666D02*
X138986142Y-122382619D01*
X138986142Y-121715952D02*
X139367094Y-122096904D01*
X138414713Y-122382619D02*
X138509951Y-122335000D01*
X138509951Y-122335000D02*
X138557570Y-122287380D01*
X138557570Y-122287380D02*
X138605189Y-122192142D01*
X138605189Y-122192142D02*
X138605189Y-121906428D01*
X138605189Y-121906428D02*
X138557570Y-121811190D01*
X138557570Y-121811190D02*
X138509951Y-121763571D01*
X138509951Y-121763571D02*
X138414713Y-121715952D01*
X138414713Y-121715952D02*
X138271856Y-121715952D01*
X138271856Y-121715952D02*
X138176618Y-121763571D01*
X138176618Y-121763571D02*
X138128999Y-121811190D01*
X138128999Y-121811190D02*
X138081380Y-121906428D01*
X138081380Y-121906428D02*
X138081380Y-122192142D01*
X138081380Y-122192142D02*
X138128999Y-122287380D01*
X138128999Y-122287380D02*
X138176618Y-122335000D01*
X138176618Y-122335000D02*
X138271856Y-122382619D01*
X138271856Y-122382619D02*
X138414713Y-122382619D01*
X137224237Y-121715952D02*
X137224237Y-122382619D01*
X137652808Y-121715952D02*
X137652808Y-122239761D01*
X137652808Y-122239761D02*
X137605189Y-122335000D01*
X137605189Y-122335000D02*
X137509951Y-122382619D01*
X137509951Y-122382619D02*
X137367094Y-122382619D01*
X137367094Y-122382619D02*
X137271856Y-122335000D01*
X137271856Y-122335000D02*
X137224237Y-122287380D01*
X136890903Y-121715952D02*
X136509951Y-121715952D01*
X136748046Y-121382619D02*
X136748046Y-122239761D01*
X136748046Y-122239761D02*
X136700427Y-122335000D01*
X136700427Y-122335000D02*
X136605189Y-122382619D01*
X136605189Y-122382619D02*
X136509951Y-122382619D01*
X136176617Y-122001666D02*
X135414713Y-122001666D01*
X134986141Y-122335000D02*
X134890903Y-122382619D01*
X134890903Y-122382619D02*
X134700427Y-122382619D01*
X134700427Y-122382619D02*
X134605189Y-122335000D01*
X134605189Y-122335000D02*
X134557570Y-122239761D01*
X134557570Y-122239761D02*
X134557570Y-122192142D01*
X134557570Y-122192142D02*
X134605189Y-122096904D01*
X134605189Y-122096904D02*
X134700427Y-122049285D01*
X134700427Y-122049285D02*
X134843284Y-122049285D01*
X134843284Y-122049285D02*
X134938522Y-122001666D01*
X134938522Y-122001666D02*
X134986141Y-121906428D01*
X134986141Y-121906428D02*
X134986141Y-121858809D01*
X134986141Y-121858809D02*
X134938522Y-121763571D01*
X134938522Y-121763571D02*
X134843284Y-121715952D01*
X134843284Y-121715952D02*
X134700427Y-121715952D01*
X134700427Y-121715952D02*
X134605189Y-121763571D01*
X134224236Y-121715952D02*
X134033760Y-122382619D01*
X134033760Y-122382619D02*
X133843284Y-121906428D01*
X133843284Y-121906428D02*
X133652808Y-122382619D01*
X133652808Y-122382619D02*
X133462332Y-121715952D01*
X133081379Y-122382619D02*
X133081379Y-121715952D01*
X133081379Y-121382619D02*
X133128998Y-121430238D01*
X133128998Y-121430238D02*
X133081379Y-121477857D01*
X133081379Y-121477857D02*
X133033760Y-121430238D01*
X133033760Y-121430238D02*
X133081379Y-121382619D01*
X133081379Y-121382619D02*
X133081379Y-121477857D01*
X132748046Y-121715952D02*
X132367094Y-121715952D01*
X132605189Y-121382619D02*
X132605189Y-122239761D01*
X132605189Y-122239761D02*
X132557570Y-122335000D01*
X132557570Y-122335000D02*
X132462332Y-122382619D01*
X132462332Y-122382619D02*
X132367094Y-122382619D01*
X131605189Y-122335000D02*
X131700427Y-122382619D01*
X131700427Y-122382619D02*
X131890903Y-122382619D01*
X131890903Y-122382619D02*
X131986141Y-122335000D01*
X131986141Y-122335000D02*
X132033760Y-122287380D01*
X132033760Y-122287380D02*
X132081379Y-122192142D01*
X132081379Y-122192142D02*
X132081379Y-121906428D01*
X132081379Y-121906428D02*
X132033760Y-121811190D01*
X132033760Y-121811190D02*
X131986141Y-121763571D01*
X131986141Y-121763571D02*
X131890903Y-121715952D01*
X131890903Y-121715952D02*
X131700427Y-121715952D01*
X131700427Y-121715952D02*
X131605189Y-121763571D01*
X131176617Y-122382619D02*
X131176617Y-121382619D01*
X130748046Y-122382619D02*
X130748046Y-121858809D01*
X130748046Y-121858809D02*
X130795665Y-121763571D01*
X130795665Y-121763571D02*
X130890903Y-121715952D01*
X130890903Y-121715952D02*
X131033760Y-121715952D01*
X131033760Y-121715952D02*
X131128998Y-121763571D01*
X131128998Y-121763571D02*
X131176617Y-121811190D01*
M02*
