M48
; DRILL file {KiCad 7.0.2-6a45011f42~172~ubuntu22.04.1} date Thu 04 May 2023 12:37:47 PM
; FORMAT={-:-/ absolute / metric / decimal}
; #@! TF.CreationDate,2023-05-04T12:37:47-07:00
; #@! TF.GenerationSoftware,Kicad,Pcbnew,7.0.2-6a45011f42~172~ubuntu22.04.1
; #@! TF.FileFunction,MixedPlating,1,2
FMAT,2
METRIC
; #@! TA.AperFunction,Plated,PTH,ViaDrill
T1C0.400
; #@! TA.AperFunction,Plated,PTH,ComponentDrill
T2C0.700
; #@! TA.AperFunction,Plated,PTH,ComponentDrill
T3C1.000
%
G90
G05
T1
X129.159Y-123.444
X129.667Y-121.793
X136.652Y-125.222
X138.879Y-121.849
T2
X125.73Y-121.92
X125.73Y-123.19
X125.73Y-124.46
X125.73Y-125.73
X125.73Y-127.0
X127.0Y-121.92
X127.0Y-123.19
X127.0Y-124.46
X127.0Y-125.73
X127.0Y-127.0
X169.025Y-121.92
X169.025Y-123.19
X169.025Y-124.46
X169.025Y-125.73
X169.025Y-127.0
X170.295Y-121.92
X170.295Y-123.19
X170.295Y-124.46
X170.295Y-125.73
X170.295Y-127.0
T3
X141.5Y-124.46
X144.04Y-124.46
X146.58Y-124.46
X149.12Y-124.46
X151.66Y-124.46
X154.2Y-124.46
X159.5Y-123.19
X159.5Y-125.73
X162.04Y-123.19
X162.04Y-125.73
X164.58Y-123.19
X164.58Y-125.73
T0
M30
