  0
SECTION
  2
HEADER
  9
$ANGBASE
  50
0.0
  9
$ANGDIR
  70
1
  9
$MEASUREMENT
  70
0
  0
ENDSEC
  0
SECTION
  2
TABLES
  0
TABLE
  2
LTYPE
  70
4
  0
LTYPE
  5
40F
  2
CONTINUOUS
  70
0
  3
Solid line
  72
65
  73
0
  40
0.0
  0
LTYPE
  5
410
  2
DASHDOT
 70
0
  3
Dash Dot ____ _ ____ _
 72
65
 73
4
 40
2.0
 49
1.25
 49
-0.25
 49
0.25
 49
-0.25
  0
LTYPE
  5
411
  2
DASHED
 70
0
  3
Dashed __ __ __ __ __
 72
65
 73
2
 40
0.75
 49
0.5
 49
-0.25
  0
LTYPE
  5
43B
  2
DOTTED
 70
0
  3
Dotted .  .  .  .
 72
65
 73
2
 40
0.2
 49
0.0
 49
-0.2
  0
ENDTAB
  0
TABLE
  2
STYLE
  70
4
  0
STYLE
  2
KICAD
  70
0
  40
0
  41
1
  42
1
  50
0
  71
0
  3
isocp.shx
  0
STYLE
  2
KICADB
  70
0
  40
0
  41
1
  42
1
  50
0
  71
0
  3
isocp.shx
  0
STYLE
  2
KICADI
  70
0
  40
0
  41
1
  42
1
  50
15
  71
0
  3
isocp.shx
  0
STYLE
  2
KICADBI
  70
0
  40
0
  41
1
  42
1
  50
15
  71
0
  3
isocp.shx
  0
ENDTAB
  0
TABLE
  2
LAYER
  70
35
  0
LAYER
  2
BLACK
  70
0
  62
7
  6
CONTINUOUS
  0
LAYER
  2
GRAY1
  70
0
  62
251
  6
CONTINUOUS
  0
LAYER
  2
GRAY2
  70
0
  62
8
  6
CONTINUOUS
  0
LAYER
  2
GRAY3
  70
0
  62
9
  6
CONTINUOUS
  0
LAYER
  2
WHITE
  70
0
  62
7
  6
CONTINUOUS
  0
LAYER
  2
LYELLOW
  70
0
  62
51
  6
CONTINUOUS
  0
LAYER
  2
LORANGE
  70
0
  62
41
  6
CONTINUOUS
  0
LAYER
  2
BLUE1
  70
0
  62
178
  6
CONTINUOUS
  0
LAYER
  2
GREEN1
  70
0
  62
98
  6
CONTINUOUS
  0
LAYER
  2
CYAN1
  70
0
  62
138
  6
CONTINUOUS
  0
LAYER
  2
RED1
  70
0
  62
18
  6
CONTINUOUS
  0
LAYER
  2
MAGENTA1
  70
0
  62
228
  6
CONTINUOUS
  0
LAYER
  2
BROWN1
  70
0
  62
58
  6
CONTINUOUS
  0
LAYER
  2
ORANGE1
  70
0
  62
34
  6
CONTINUOUS
  0
LAYER
  2
BLUE2
  70
0
  62
5
  6
CONTINUOUS
  0
LAYER
  2
GREEN2
  70
0
  62
3
  6
CONTINUOUS
  0
LAYER
  2
CYAN2
  70
0
  62
4
  6
CONTINUOUS
  0
LAYER
  2
RED2
  70
0
  62
1
  6
CONTINUOUS
  0
LAYER
  2
MAGENTA2
  70
0
  62
6
  6
CONTINUOUS
  0
LAYER
  2
BROWN2
  70
0
  62
54
  6
CONTINUOUS
  0
LAYER
  2
ORANGE2
  70
0
  62
42
  6
CONTINUOUS
  0
LAYER
  2
BLUE3
  70
0
  62
171
  6
CONTINUOUS
  0
LAYER
  2
GREEN3
  70
0
  62
91
  6
CONTINUOUS
  0
LAYER
  2
CYAN3
  70
0
  62
131
  6
CONTINUOUS
  0
LAYER
  2
RED3
  70
0
  62
11
  6
CONTINUOUS
  0
LAYER
  2
MAGENTA3
  70
0
  62
221
  6
CONTINUOUS
  0
LAYER
  2
YELLOW3
  70
0
  62
2
  6
CONTINUOUS
  0
LAYER
  2
ORANGE3
  70
0
  62
32
  6
CONTINUOUS
  0
LAYER
  2
BLUE4
  70
0
  62
5
  6
CONTINUOUS
  0
LAYER
  2
GREEN4
  70
0
  62
3
  6
CONTINUOUS
  0
LAYER
  2
CYAN4
  70
0
  62
4
  6
CONTINUOUS
  0
LAYER
  2
RED4
  70
0
  62
1
  6
CONTINUOUS
  0
LAYER
  2
MAGENTA4
  70
0
  62
6
  6
CONTINUOUS
  0
LAYER
  2
YELLOW4
  70
0
  62
2
  6
CONTINUOUS
  0
LAYER
  2
ORANGE4
  70
0
  62
40
  6
CONTINUOUS
  0
ENDTAB
  0
ENDSEC
  0
SECTION
  2
ENTITIES
0
ARC
8
WHITE
10
1.3877952755905512
20
-3.326771653543307
40
0.078740157480315
50
90.00000000
51
180.00000000
0
ARC
8
WHITE
10
2.8543307086614171
20
-3.326771653543307
40
0.078740157480315
50
0.00000000
51
90.00000000
0
LINE
8
WHITE
6
CONTINUOUS
10
2.8543307086614171
20
-4.6259842519685037
11
1.3877952755905512
21
-4.6259842519685037
0
ARC
8
WHITE
10
2.8543307086614171
20
-4.5472440944881889
40
0.078740157480315
50
-90.00000000
51
-0.00000000
0
LINE
8
WHITE
6
CONTINUOUS
10
2.9330708661417324
20
-3.326771653543307
11
2.9330708661417324
21
-4.5472440944881889
0
ARC
8
WHITE
10
1.3877952755905512
20
-4.5472440944881889
40
0.078740157480315
50
-180.00000000
51
-90.00000000
0
LINE
8
WHITE
6
CONTINUOUS
10
1.3877952755905512
20
-3.2480314960629921
11
2.8543307086614171
21
-3.2480314960629921
0
LINE
8
WHITE
6
CONTINUOUS
10
1.3090551181102361
20
-4.5472440944881889
11
1.3090551181102361
21
-3.326771653543307
0
CIRCLE
8
WHITE
10
1.9334645669291337
20
-4.4169291338582672
40
0.0127952362204724
0
CIRCLE
8
WHITE
10
2.1610236220472441
20
-4.4169291338582672
40
0.0127952362204724
0
LINE
8
WHITE
6
CONTINUOUS
10
1.8673228346456692
20
-4.3736220472440941
11
1.8673228346456692
21
-4.420866141732283
0
ARC
8
WHITE
10
1.8771653543307085
20
-4.420866141732283
40
0.0098425196850394
50
-180.00000000
51
0.00000000
0
LINE
8
WHITE
6
CONTINUOUS
10
1.8870078740157481
20
-4.420866141732283
11
1.8870078740157481
21
-4.3736220472440941
0
ARC
8
WHITE
10
1.8771653543307085
20
-4.3736220472440941
40
0.0098425196850394
50
0.00000000
51
180.00000000
0
LINE
8
WHITE
6
CONTINUOUS
10
1.8653543307086613
20
-4.5401574803149609
11
1.8653543307086613
21
-4.5834645669291341
0
ARC
8
WHITE
10
1.8771653543307085
20
-4.5834645669291341
40
0.0118110236220472
50
-180.00000000
51
0.00000000
0
LINE
8
WHITE
6
CONTINUOUS
10
1.888976377952756
20
-4.5834645669291341
11
1.888976377952756
21
-4.5401574803149609
0
ARC
8
WHITE
10
1.8771653543307085
20
-4.5401574803149609
40
0.0118110236220472
50
0.00000000
51
180.00000000
0
LINE
8
WHITE
6
CONTINUOUS
10
2.2074803149606299
20
-4.3736220472440941
11
2.2074803149606299
21
-4.420866141732283
0
ARC
8
WHITE
10
2.2173228346456693
20
-4.420866141732283
40
0.0098425196850394
50
-180.00000000
51
0.00000000
0
LINE
8
WHITE
6
CONTINUOUS
10
2.2271653543307086
20
-4.420866141732283
11
2.2271653543307086
21
-4.3736220472440941
0
ARC
8
WHITE
10
2.2173228346456693
20
-4.3736220472440941
40
0.0098425196850394
50
0.00000000
51
180.00000000
0
LINE
8
WHITE
6
CONTINUOUS
10
2.205511811023622
20
-4.5401574803149609
11
2.205511811023622
21
-4.5834645669291341
0
ARC
8
WHITE
10
2.2173228346456693
20
-4.5834645669291341
40
0.0118110236220472
50
-180.00000000
51
0.00000000
0
LINE
8
WHITE
6
CONTINUOUS
10
2.2291338582677165
20
-4.5834645669291341
11
2.2291338582677165
21
-4.5401574803149609
0
ARC
8
WHITE
10
2.2173228346456693
20
-4.5401574803149609
40
0.0118110236220472
50
0.00000000
51
180.00000000
0
ARC
8
WHITE
10
1.3710629921259843
20
-3.4862204724409449
40
0.0196850393700787
50
-180.00000000
51
0.00000000
0
ARC
8
WHITE
10
1.3710629921259843
20
-3.4862204724409449
40
0.0196850393700787
50
0.00000000
51
180.00000000
0
CIRCLE
8
WHITE
10
1.3710629921259843
20
-3.586220472440945
40
0.0196850393700787
0
CIRCLE
8
WHITE
10
1.3710629921259843
20
-3.6862204724409446
40
0.0196850393700787
0
CIRCLE
8
WHITE
10
1.3710629921259843
20
-3.7862204724409447
40
0.0196850393700787
0
CIRCLE
8
WHITE
10
1.3710629921259843
20
-3.8862204724409448
40
0.0196850393700787
0
CIRCLE
8
WHITE
10
1.3710629921259843
20
-3.9862204724409449
40
0.0196850393700787
0
CIRCLE
8
WHITE
10
1.3710629921259843
20
-4.086220472440945
40
0.0196850393700787
0
CIRCLE
8
WHITE
10
1.3710629921259843
20
-4.1862204724409446
40
0.0196850393700787
0
CIRCLE
8
WHITE
10
1.3710629921259843
20
-4.2862204724409452
40
0.0196850393700787
0
CIRCLE
8
WHITE
10
1.3710629921259843
20
-4.3862204724409448
40
0.0196850393700787
0
CIRCLE
8
WHITE
10
2.1610236220472441
20
-3.4570866141732282
40
0.0127952362204724
0
CIRCLE
8
WHITE
10
1.9334645669291337
20
-3.4570866141732282
40
0.0127952362204724
0
LINE
8
WHITE
6
CONTINUOUS
10
2.2271653543307086
20
-3.5003937007874013
11
2.2271653543307086
21
-3.4531496062992124
0
ARC
8
WHITE
10
2.2173228346456693
20
-3.4531496062992124
40
0.0098425196850394
50
0.00000000
51
180.00000000
0
LINE
8
WHITE
6
CONTINUOUS
10
2.2074803149606299
20
-3.4531496062992124
11
2.2074803149606299
21
-3.5003937007874013
0
ARC
8
WHITE
10
2.2173228346456693
20
-3.5003937007874013
40
0.0098425196850394
50
180.00000000
51
360.00000000
0
LINE
8
WHITE
6
CONTINUOUS
10
2.2291338582677165
20
-3.3338582677165354
11
2.2291338582677165
21
-3.2905511811023622
0
ARC
8
WHITE
10
2.2173228346456693
20
-3.2905511811023622
40
0.0118110236220472
50
0.00000000
51
180.00000000
0
LINE
8
WHITE
6
CONTINUOUS
10
2.205511811023622
20
-3.2905511811023622
11
2.205511811023622
21
-3.3338582677165354
0
ARC
8
WHITE
10
2.2173228346456693
20
-3.3338582677165354
40
0.0118110236220472
50
180.00000000
51
360.00000000
0
LINE
8
WHITE
6
CONTINUOUS
10
1.8870078740157481
20
-3.5003937007874013
11
1.8870078740157481
21
-3.4531496062992124
0
ARC
8
WHITE
10
1.8771653543307085
20
-3.4531496062992124
40
0.0098425196850394
50
0.00000000
51
180.00000000
0
LINE
8
WHITE
6
CONTINUOUS
10
1.8673228346456692
20
-3.4531496062992124
11
1.8673228346456692
21
-3.5003937007874013
0
ARC
8
WHITE
10
1.8771653543307085
20
-3.5003937007874013
40
0.0098425196850394
50
180.00000000
51
360.00000000
0
LINE
8
WHITE
6
CONTINUOUS
10
1.888976377952756
20
-3.3338582677165354
11
1.888976377952756
21
-3.2905511811023622
0
ARC
8
WHITE
10
1.8771653543307085
20
-3.2905511811023622
40
0.0118110236220472
50
0.00000000
51
180.00000000
0
LINE
8
WHITE
6
CONTINUOUS
10
1.8653543307086613
20
-3.2905511811023622
11
1.8653543307086613
21
-3.3338582677165354
0
ARC
8
WHITE
10
1.8771653543307085
20
-3.3338582677165354
40
0.0118110236220472
50
180.00000000
51
360.00000000
0
CIRCLE
8
WHITE
10
2.4409448818897639
20
-3.9854330708661418
40
0.0196850393700787
0
CIRCLE
8
WHITE
10
2.4409448818897639
20
-4.0854330708661415
40
0.0196850393700787
0
CIRCLE
8
WHITE
10
2.3409448818897638
20
-3.9854330708661418
40
0.0196850393700787
0
CIRCLE
8
WHITE
10
2.3409448818897638
20
-4.0854330708661415
40
0.0196850393700787
0
CIRCLE
8
WHITE
10
2.2409448818897637
20
-3.9854330708661418
40
0.0196850393700787
0
CIRCLE
8
WHITE
10
2.2409448818897637
20
-4.0854330708661415
40
0.0196850393700787
0
CIRCLE
8
WHITE
10
2.1409448818897636
20
-3.9854330708661418
40
0.0196850393700787
0
CIRCLE
8
WHITE
10
2.1409448818897636
20
-4.0854330708661415
40
0.0196850393700787
0
CIRCLE
8
WHITE
10
2.0409448818897635
20
-3.9854330708661418
40
0.0196850393700787
0
CIRCLE
8
WHITE
10
2.0409448818897635
20
-4.0854330708661415
40
0.0196850393700787
0
CIRCLE
8
WHITE
10
1.9409448818897637
20
-3.9854330708661418
40
0.0196850393700787
0
CIRCLE
8
WHITE
10
1.9409448818897637
20
-4.0854330708661415
40
0.0196850393700787
0
CIRCLE
8
WHITE
10
1.8409448818897638
20
-3.9854330708661418
40
0.0196850393700787
0
CIRCLE
8
WHITE
10
1.8409448818897638
20
-4.0854330708661415
40
0.0196850393700787
0
CIRCLE
8
WHITE
10
1.7409448818897637
20
-3.9854330708661418
40
0.0196850393700787
0
CIRCLE
8
WHITE
10
1.7409448818897637
20
-4.0854330708661415
40
0.0196850393700787
0
CIRCLE
8
WHITE
10
1.576771653543307
20
-3.484251968503937
40
0.0196850393700787
0
CIRCLE
8
WHITE
10
1.576771653543307
20
-3.5842519685039371
40
0.0196850393700787
0
CIRCLE
8
WHITE
10
1.576771653543307
20
-3.6842519685039368
40
0.0196850393700787
0
CIRCLE
8
WHITE
10
1.576771653543307
20
-3.7842519685039369
40
0.0196850393700787
0
CIRCLE
8
WHITE
10
1.576771653543307
20
-3.8842519685039369
40
0.0196850393700787
0
CIRCLE
8
WHITE
10
1.576771653543307
20
-3.984251968503937
40
0.0196850393700787
0
CIRCLE
8
WHITE
10
1.576771653543307
20
-4.0842519685039367
40
0.0196850393700787
0
CIRCLE
8
WHITE
10
1.576771653543307
20
-4.1842519685039372
40
0.0196850393700787
0
CIRCLE
8
WHITE
10
1.576771653543307
20
-4.2842519685039369
40
0.0196850393700787
0
CIRCLE
8
WHITE
10
1.576771653543307
20
-4.3842519685039365
40
0.0196850393700787
  0
ENDSEC
  0
EOF
