  0
SECTION
  2
HEADER
  9
$ANGBASE
  50
0.0
  9
$ANGDIR
  70
1
  9
$MEASUREMENT
  70
0
  0
ENDSEC
  0
SECTION
  2
TABLES
  0
TABLE
  2
LTYPE
  70
4
  0
LTYPE
  5
40F
  2
CONTINUOUS
  70
0
  3
Solid line
  72
65
  73
0
  40
0.0
  0
LTYPE
  5
410
  2
DASHDOT
 70
0
  3
Dash Dot ____ _ ____ _
 72
65
 73
4
 40
2.0
 49
1.25
 49
-0.25
 49
0.25
 49
-0.25
  0
LTYPE
  5
411
  2
DASHED
 70
0
  3
Dashed __ __ __ __ __
 72
65
 73
2
 40
0.75
 49
0.5
 49
-0.25
  0
LTYPE
  5
43B
  2
DOTTED
 70
0
  3
Dotted .  .  .  .
 72
65
 73
2
 40
0.2
 49
0.0
 49
-0.2
  0
ENDTAB
  0
TABLE
  2
STYLE
  70
4
  0
STYLE
  2
KICAD
  70
0
  40
0
  41
1
  42
1
  50
0
  71
0
  3
isocp.shx
  0
STYLE
  2
KICADB
  70
0
  40
0
  41
1
  42
1
  50
0
  71
0
  3
isocp.shx
  0
STYLE
  2
KICADI
  70
0
  40
0
  41
1
  42
1
  50
15
  71
0
  3
isocp.shx
  0
STYLE
  2
KICADBI
  70
0
  40
0
  41
1
  42
1
  50
15
  71
0
  3
isocp.shx
  0
ENDTAB
  0
TABLE
  2
LAYER
  70
1
  0
LAYER
  2
BLACK
  70
0
  62
7
  6
CONTINUOUS
  0
ENDTAB
  0
ENDSEC
  0
SECTION
  2
ENTITIES
0
LINE
8
BLACK
6
CONTINUOUS
10
4.7165354330708658
20
-4.9606299212598426
11
4.6929133858267713
21
-5.0629921259842519
0
LINE
8
BLACK
6
CONTINUOUS
10
3.0629921259842519
20
-5.377952755905512
11
4.0708661417322833
21
-5.377952755905512
0
LINE
8
BLACK
6
CONTINUOUS
10
9.4094488188976371
20
-4.090551181102362
11
9.2677165354330704
21
-5.0944881889763778
0
LINE
8
BLACK
6
CONTINUOUS
10
3.1653543307086611
20
-5.0944881889763778
11
3.311023622047244
21
-4.090551181102362
0
CIRCLE
8
BLACK
10
8.1496062992125982
20
-3.0511811023622046
40
0.1181102362204724
0
LINE
8
BLACK
6
CONTINUOUS
10
8.6811023622047241
20
-2.7755905511811023
11
9.5944881889763778
21
-2.7755905511811023
0
LINE
8
BLACK
6
CONTINUOUS
10
4.2244094488188972
20
-4.090551181102362
11
4.0826771653543306
21
-5.0944881889763778
0
LINE
8
BLACK
6
CONTINUOUS
10
6.5118110236220472
20
-2.7480314960629921
11
6.5118110236220472
21
-2.8818897637795273
0
LINE
8
BLACK
6
CONTINUOUS
10
3.2125984251968505
20
-2.7480314960629921
11
3.2125984251968505
21
-2.8188976377952755
0
LINE
8
BLACK
6
CONTINUOUS
10
2.3858267716535431
20
-3.7795275590551181
11
1.4685039370078741
21
-3.7795275590551181
0
LINE
8
BLACK
6
CONTINUOUS
10
2.8661417322834644
20
-5.0787401574803148
11
2.4881889763779528
21
-5.0787401574803148
0
LINE
8
BLACK
6
CONTINUOUS
10
4.7637795275590546
20
-2.8818897637795273
11
6.4724409448818898
21
-2.8818897637795273
0
LINE
8
BLACK
6
CONTINUOUS
10
7.3818897637795278
20
-5.0944881889763778
11
6.4645669291338583
21
-5.0944881889763778
0
LINE
8
BLACK
6
CONTINUOUS
10
2.8188976377952755
20
-2.8188976377952755
11
3.1968503937007875
21
-2.8188976377952755
0
CIRCLE
8
BLACK
10
5.0748031496062991
20
-4.9803149606299213
40
0.047244094488189
0
LINE
8
BLACK
6
CONTINUOUS
10
7.6771653543307083
20
-5.0787401574803148
11
7.6771653543307083
21
-5.1338582677165352
0
CIRCLE
8
BLACK
10
7.8976377952755907
20
-4.8070866141732278
40
0.1181102362204724
0
LINE
8
BLACK
6
CONTINUOUS
10
4.8188976377952759
20
-4.9606299212598426
11
4.7165354330708658
21
-4.9606299212598426
0
LINE
8
BLACK
6
CONTINUOUS
10
9.5511811023622037
20
-5.1417322834645667
11
9.8897637795275593
21
-2.7322834645669292
0
LINE
8
BLACK
6
CONTINUOUS
10
5.6850393700787398
20
-5.0629921259842519
11
4.8346456692913389
21
-5.0629921259842519
0
LINE
8
BLACK
6
CONTINUOUS
10
4.2677165354330704
20
-3.7795275590551181
11
3.3503937007874014
21
-3.7795275590551181
0
LINE
8
BLACK
6
CONTINUOUS
10
4.6929133858267713
20
-5.0629921259842519
11
4.4251968503937009
21
-5.0629921259842519
0
LINE
8
BLACK
6
CONTINUOUS
10
1.1811023622047243
20
-5.377952755905512
11
0.984251968503937
21
-5.1574803149606296
0
LINE
8
BLACK
6
CONTINUOUS
10
1.4291338582677164
20
-4.090551181102362
11
2.3425196850393699
21
-4.090551181102362
0
LINE
8
BLACK
6
CONTINUOUS
10
2.2007874015748032
20
-5.0944881889763778
11
1.2834645669291338
21
-5.0944881889763778
0
LINE
8
BLACK
6
CONTINUOUS
10
8.4960629921259834
20
-4.090551181102362
11
9.4094488188976371
21
-4.090551181102362
0
LINE
8
BLACK
6
CONTINUOUS
10
6.5118110236220472
20
-2.8818897637795273
11
6.4724409448818898
21
-2.8818897637795273
0
LINE
8
BLACK
6
CONTINUOUS
10
4.7007874015748028
20
-2.8818897637795273
11
4.7637795275590546
21
-2.8818897637795273
0
LINE
8
BLACK
6
CONTINUOUS
10
8.0551181102362204
20
-5.0787401574803148
11
7.6771653543307083
21
-5.0787401574803148
0
LINE
8
BLACK
6
CONTINUOUS
10
3.0629921259842519
20
-5.377952755905512
11
2.8661417322834644
21
-5.1574803149606296
0
LINE
8
BLACK
6
CONTINUOUS
10
5.7952755905511806
20
-4.9606299212598426
11
5.7086614173228343
21
-4.9606299212598426
0
LINE
8
BLACK
6
CONTINUOUS
10
1.2834645669291338
20
-5.0944881889763778
11
1.4291338582677164
21
-4.090551181102362
0
LINE
8
BLACK
6
CONTINUOUS
10
8.0551181102362204
20
-5.1574803149606296
11
8.0551181102362204
21
-5.0787401574803148
0
LINE
8
BLACK
6
CONTINUOUS
10
5.7086614173228343
20
-4.9606299212598426
11
5.6850393700787398
21
-5.0629921259842519
0
LINE
8
BLACK
6
CONTINUOUS
10
8.2598425196850389
20
-5.377952755905512
11
8.0551181102362204
21
-5.1574803149606296
0
LINE
8
BLACK
6
CONTINUOUS
10
1.3228346456692912
20
-2.7480314960629921
11
1.6141732283464567
21
-2.4881889763779528
0
LINE
8
BLACK
6
CONTINUOUS
10
9.2677165354330704
20
-5.0944881889763778
11
8.3503937007874018
21
-5.0944881889763778
0
LINE
8
BLACK
6
CONTINUOUS
10
0.984251968503937
20
-5.1574803149606296
11
1.3228346456692912
21
-2.7480314960629921
0
LINE
8
BLACK
6
CONTINUOUS
10
4.5039370078740157
20
-2.4881889763779528
11
4.7007874015748028
21
-2.7244094488188977
0
LINE
8
BLACK
6
CONTINUOUS
10
1.6141732283464567
20
-2.7755905511811023
11
2.5275590551181102
21
-2.7755905511811023
0
LINE
8
BLACK
6
CONTINUOUS
10
9.5944881889763778
20
-2.7755905511811023
11
9.4527559055118111
21
-3.7795275590551181
0
LINE
8
BLACK
6
CONTINUOUS
10
7.409448818897638
20
-5.377952755905512
11
6.3622047244094491
21
-5.377952755905512
0
LINE
8
BLACK
6
CONTINUOUS
10
7.5629921259842519
20
-3.7795275590551181
11
6.6456692913385824
21
-3.7795275590551181
0
LINE
8
BLACK
6
CONTINUOUS
10
6.0944881889763778
20
-5.0629921259842519
11
5.8110236220472435
21
-5.0629921259842519
0
LINE
8
BLACK
6
CONTINUOUS
10
3.4960629921259843
20
-2.7755905511811023
11
4.409448818897638
21
-2.7755905511811023
0
LINE
8
BLACK
6
CONTINUOUS
10
6.6456692913385824
20
-3.7795275590551181
11
6.7913385826771648
21
-2.7755905511811023
0
LINE
8
BLACK
6
CONTINUOUS
10
3.5039370078740157
20
-2.4881889763779528
11
4.5039370078740157
21
-2.4881889763779528
0
LINE
8
BLACK
6
CONTINUOUS
10
8.3503937007874018
20
-5.0944881889763778
11
8.4960629921259834
21
-4.090551181102362
0
LINE
8
BLACK
6
CONTINUOUS
10
6.3622047244094491
20
-5.377952755905512
11
6.0944881889763778
21
-5.0629921259842519
0
LINE
8
BLACK
6
CONTINUOUS
10
9.2755905511811019
20
-5.377952755905512
11
8.2598425196850389
21
-5.377952755905512
0
LINE
8
BLACK
6
CONTINUOUS
10
1.4685039370078741
20
-3.7795275590551181
11
1.6141732283464567
21
-2.7755905511811023
0
LINE
8
BLACK
6
CONTINUOUS
10
9.6929133858267722
20
-2.4960629921259843
11
9.8897637795275593
21
-2.7322834645669292
0
LINE
8
BLACK
6
CONTINUOUS
10
4.409448818897638
20
-2.7755905511811023
11
4.2677165354330704
21
-3.7795275590551181
0
LINE
8
BLACK
6
CONTINUOUS
10
2.4881889763779528
20
-5.1259842519685037
11
2.1968503937007875
21
-5.377952755905512
0
LINE
8
BLACK
6
CONTINUOUS
10
8.5354330708661408
20
-3.7795275590551181
11
8.6811023622047241
21
-2.7755905511811023
0
LINE
8
BLACK
6
CONTINUOUS
10
3.3503937007874014
20
-3.7795275590551181
11
3.4960629921259843
21
-2.7755905511811023
0
LINE
8
BLACK
6
CONTINUOUS
10
7.6771653543307083
20
-5.1338582677165352
11
7.409448818897638
21
-5.377952755905512
0
LINE
8
BLACK
6
CONTINUOUS
10
3.2125984251968505
20
-2.7480314960629921
11
3.5039370078740157
21
-2.4881889763779528
0
CIRCLE
8
BLACK
10
2.9685039370078741
20
-3.0551181102362204
40
0.1181102362204724
0
LINE
8
BLACK
6
CONTINUOUS
10
8.0078740157480315
20
-2.8188976377952755
11
8.3700787401574797
21
-2.8188976377952755
0
LINE
8
BLACK
6
CONTINUOUS
10
3.311023622047244
20
-4.090551181102362
11
4.2244094488188972
21
-4.090551181102362
0
LINE
8
BLACK
6
CONTINUOUS
10
7.7047244094488185
20
-2.7755905511811023
11
7.5629921259842519
21
-3.7795275590551181
0
LINE
8
BLACK
6
CONTINUOUS
10
6.4645669291338583
20
-5.0944881889763778
11
6.6102362204724407
21
-4.090551181102362
0
LINE
8
BLACK
6
CONTINUOUS
10
3.2125984251968505
20
-2.8188976377952755
11
3.1968503937007875
21
-2.8188976377952755
0
LINE
8
BLACK
6
CONTINUOUS
10
2.1968503937007875
20
-5.377952755905512
11
1.1811023622047243
21
-5.377952755905512
0
LINE
8
BLACK
6
CONTINUOUS
10
4.8346456692913389
20
-5.0629921259842519
11
4.8188976377952759
21
-4.9606299212598426
0
LINE
8
BLACK
6
CONTINUOUS
10
8.3779527559055111
20
-2.8188976377952755
11
8.3700787401574797
21
-2.8188976377952755
0
LINE
8
BLACK
6
CONTINUOUS
10
8.3779527559055111
20
-2.7559055118110236
11
8.6692913385826778
21
-2.4960629921259843
0
LINE
8
BLACK
6
CONTINUOUS
10
4.7007874015748028
20
-2.7244094488188977
11
4.7007874015748028
21
-2.8818897637795273
0
LINE
8
BLACK
6
CONTINUOUS
10
9.5511811023622037
20
-5.1417322834645667
11
9.2755905511811019
21
-5.377952755905512
0
LINE
8
BLACK
6
CONTINUOUS
10
9.4527559055118111
20
-3.7795275590551181
11
8.5354330708661408
21
-3.7795275590551181
0
LINE
8
BLACK
6
CONTINUOUS
10
6.5118110236220472
20
-2.7480314960629921
11
6.8031496062992121
21
-2.4881889763779528
0
LINE
8
BLACK
6
CONTINUOUS
10
6.6102362204724407
20
-4.090551181102362
11
7.5236220472440944
21
-4.090551181102362
0
LINE
8
BLACK
6
CONTINUOUS
10
6.7913385826771648
20
-2.7755905511811023
11
7.7047244094488185
21
-2.7755905511811023
0
LINE
8
BLACK
6
CONTINUOUS
10
2.5275590551181102
20
-2.7755905511811023
11
2.3858267716535431
21
-3.7795275590551181
0
LINE
8
BLACK
6
CONTINUOUS
10
6.8031496062992121
20
-2.4881889763779528
11
7.8110236220472435
21
-2.4881889763779528
0
LINE
8
BLACK
6
CONTINUOUS
10
8.3779527559055111
20
-2.7559055118110236
11
8.3779527559055111
21
-2.8188976377952755
0
LINE
8
BLACK
6
CONTINUOUS
10
4.4251968503937009
20
-5.0629921259842519
11
4.0708661417322833
21
-5.377952755905512
0
LINE
8
BLACK
6
CONTINUOUS
10
2.622047244094488
20
-2.4881889763779528
11
2.8188976377952755
21
-2.7244094488188977
0
LINE
8
BLACK
6
CONTINUOUS
10
7.5236220472440944
20
-4.090551181102362
11
7.3818897637795278
21
-5.0944881889763778
0
LINE
8
BLACK
6
CONTINUOUS
10
2.3425196850393699
20
-4.090551181102362
11
2.2007874015748032
21
-5.0944881889763778
0
LINE
8
BLACK
6
CONTINUOUS
10
4.0826771653543306
20
-5.0944881889763778
11
3.1653543307086611
21
-5.0944881889763778
0
LINE
8
BLACK
6
CONTINUOUS
10
8.0078740157480315
20
-2.7244094488188977
11
8.0078740157480315
21
-2.8188976377952755
0
LINE
8
BLACK
6
CONTINUOUS
10
2.8188976377952755
20
-2.7244094488188977
11
2.8188976377952755
21
-2.8188976377952755
0
CIRCLE
8
BLACK
10
5.6732283464566926
20
-3.0275590551181102
40
0.047244094488189
0
LINE
8
BLACK
6
CONTINUOUS
10
7.8110236220472435
20
-2.4881889763779528
11
8.0078740157480315
21
-2.7244094488188977
0
CIRCLE
8
BLACK
10
2.7204724409448819
20
-4.8149606299212602
40
0.1181102362204724
0
LINE
8
BLACK
6
CONTINUOUS
10
2.8661417322834644
20
-5.1574803149606296
11
2.8661417322834644
21
-5.0787401574803148
0
LINE
8
BLACK
6
CONTINUOUS
10
5.8110236220472435
20
-5.0629921259842519
11
5.7952755905511806
21
-4.9606299212598426
0
LINE
8
BLACK
6
CONTINUOUS
10
2.4881889763779528
20
-5.0787401574803148
11
2.4881889763779528
21
-5.1259842519685037
0
LINE
8
BLACK
6
CONTINUOUS
10
1.6141732283464567
20
-2.4881889763779528
11
2.622047244094488
21
-2.4881889763779528
0
LINE
8
BLACK
6
CONTINUOUS
10
9.6929133858267722
20
-2.4960629921259843
11
8.6692913385826778
21
-2.4960629921259843
  0
ENDSEC
  0
EOF
