G04 #@! TF.GenerationSoftware,KiCad,Pcbnew,5.1.4+dfsg1-1*
G04 #@! TF.CreationDate,2019-11-21T16:22:44-08:00*
G04 #@! TF.ProjectId,deutsche-bahn-sao,64657574-7363-4686-952d-6261686e2d73,rev?*
G04 #@! TF.SameCoordinates,PX70a3730PY3bf3e68*
G04 #@! TF.FileFunction,Copper,L2,Bot*
G04 #@! TF.FilePolarity,Positive*
%FSLAX46Y46*%
G04 Gerber Fmt 4.6, Leading zero omitted, Abs format (unit mm)*
G04 Created by KiCad (PCBNEW 5.1.4+dfsg1-1) date 2019-11-21 16:22:44*
%MOMM*%
%LPD*%
G04 APERTURE LIST*
%ADD10C,0.100000*%
%ADD11C,1.150000*%
%ADD12R,1.400000X2.600000*%
%ADD13R,2.600000X1.400000*%
%ADD14R,4.000000X3.000000*%
%ADD15R,1.000000X3.000000*%
%ADD16C,0.250000*%
G04 APERTURE END LIST*
D10*
G36*
X38186505Y-34607204D02*
G01*
X38210773Y-34610804D01*
X38234572Y-34616765D01*
X38257671Y-34625030D01*
X38279850Y-34635520D01*
X38300893Y-34648132D01*
X38320599Y-34662747D01*
X38338777Y-34679223D01*
X38355253Y-34697401D01*
X38369868Y-34717107D01*
X38382480Y-34738150D01*
X38392970Y-34760329D01*
X38401235Y-34783428D01*
X38407196Y-34807227D01*
X38410796Y-34831495D01*
X38412000Y-34855999D01*
X38412000Y-35756001D01*
X38410796Y-35780505D01*
X38407196Y-35804773D01*
X38401235Y-35828572D01*
X38392970Y-35851671D01*
X38382480Y-35873850D01*
X38369868Y-35894893D01*
X38355253Y-35914599D01*
X38338777Y-35932777D01*
X38320599Y-35949253D01*
X38300893Y-35963868D01*
X38279850Y-35976480D01*
X38257671Y-35986970D01*
X38234572Y-35995235D01*
X38210773Y-36001196D01*
X38186505Y-36004796D01*
X38162001Y-36006000D01*
X37511999Y-36006000D01*
X37487495Y-36004796D01*
X37463227Y-36001196D01*
X37439428Y-35995235D01*
X37416329Y-35986970D01*
X37394150Y-35976480D01*
X37373107Y-35963868D01*
X37353401Y-35949253D01*
X37335223Y-35932777D01*
X37318747Y-35914599D01*
X37304132Y-35894893D01*
X37291520Y-35873850D01*
X37281030Y-35851671D01*
X37272765Y-35828572D01*
X37266804Y-35804773D01*
X37263204Y-35780505D01*
X37262000Y-35756001D01*
X37262000Y-34855999D01*
X37263204Y-34831495D01*
X37266804Y-34807227D01*
X37272765Y-34783428D01*
X37281030Y-34760329D01*
X37291520Y-34738150D01*
X37304132Y-34717107D01*
X37318747Y-34697401D01*
X37335223Y-34679223D01*
X37353401Y-34662747D01*
X37373107Y-34648132D01*
X37394150Y-34635520D01*
X37416329Y-34625030D01*
X37439428Y-34616765D01*
X37463227Y-34610804D01*
X37487495Y-34607204D01*
X37511999Y-34606000D01*
X38162001Y-34606000D01*
X38186505Y-34607204D01*
X38186505Y-34607204D01*
G37*
D11*
X37837000Y-35306000D03*
D10*
G36*
X40236505Y-34607204D02*
G01*
X40260773Y-34610804D01*
X40284572Y-34616765D01*
X40307671Y-34625030D01*
X40329850Y-34635520D01*
X40350893Y-34648132D01*
X40370599Y-34662747D01*
X40388777Y-34679223D01*
X40405253Y-34697401D01*
X40419868Y-34717107D01*
X40432480Y-34738150D01*
X40442970Y-34760329D01*
X40451235Y-34783428D01*
X40457196Y-34807227D01*
X40460796Y-34831495D01*
X40462000Y-34855999D01*
X40462000Y-35756001D01*
X40460796Y-35780505D01*
X40457196Y-35804773D01*
X40451235Y-35828572D01*
X40442970Y-35851671D01*
X40432480Y-35873850D01*
X40419868Y-35894893D01*
X40405253Y-35914599D01*
X40388777Y-35932777D01*
X40370599Y-35949253D01*
X40350893Y-35963868D01*
X40329850Y-35976480D01*
X40307671Y-35986970D01*
X40284572Y-35995235D01*
X40260773Y-36001196D01*
X40236505Y-36004796D01*
X40212001Y-36006000D01*
X39561999Y-36006000D01*
X39537495Y-36004796D01*
X39513227Y-36001196D01*
X39489428Y-35995235D01*
X39466329Y-35986970D01*
X39444150Y-35976480D01*
X39423107Y-35963868D01*
X39403401Y-35949253D01*
X39385223Y-35932777D01*
X39368747Y-35914599D01*
X39354132Y-35894893D01*
X39341520Y-35873850D01*
X39331030Y-35851671D01*
X39322765Y-35828572D01*
X39316804Y-35804773D01*
X39313204Y-35780505D01*
X39312000Y-35756001D01*
X39312000Y-34855999D01*
X39313204Y-34831495D01*
X39316804Y-34807227D01*
X39322765Y-34783428D01*
X39331030Y-34760329D01*
X39341520Y-34738150D01*
X39354132Y-34717107D01*
X39368747Y-34697401D01*
X39385223Y-34679223D01*
X39403401Y-34662747D01*
X39423107Y-34648132D01*
X39444150Y-34635520D01*
X39466329Y-34625030D01*
X39489428Y-34616765D01*
X39513227Y-34610804D01*
X39537495Y-34607204D01*
X39561999Y-34606000D01*
X40212001Y-34606000D01*
X40236505Y-34607204D01*
X40236505Y-34607204D01*
G37*
D11*
X39887000Y-35306000D03*
D12*
X42358000Y-36195000D03*
X47558000Y-36195000D03*
D13*
X39116000Y-32445000D03*
X39116000Y-27245000D03*
D12*
X16513500Y-11112500D03*
X21713500Y-11112500D03*
D13*
X27622500Y-24070000D03*
X27622500Y-29270000D03*
X53213000Y-27245000D03*
X53213000Y-32445000D03*
D12*
X47558000Y-22987000D03*
X42358000Y-22987000D03*
D13*
X27559000Y-20253000D03*
X27559000Y-15053000D03*
X39116000Y-14418000D03*
X39116000Y-19618000D03*
X53086000Y-18602000D03*
X53086000Y-13402000D03*
X12827000Y-29651000D03*
X12827000Y-24451000D03*
D12*
X42358000Y-11049000D03*
X47558000Y-11049000D03*
X16450000Y-36195000D03*
X21650000Y-36195000D03*
D10*
G36*
X27155505Y-34607204D02*
G01*
X27179773Y-34610804D01*
X27203572Y-34616765D01*
X27226671Y-34625030D01*
X27248850Y-34635520D01*
X27269893Y-34648132D01*
X27289599Y-34662747D01*
X27307777Y-34679223D01*
X27324253Y-34697401D01*
X27338868Y-34717107D01*
X27351480Y-34738150D01*
X27361970Y-34760329D01*
X27370235Y-34783428D01*
X27376196Y-34807227D01*
X27379796Y-34831495D01*
X27381000Y-34855999D01*
X27381000Y-35756001D01*
X27379796Y-35780505D01*
X27376196Y-35804773D01*
X27370235Y-35828572D01*
X27361970Y-35851671D01*
X27351480Y-35873850D01*
X27338868Y-35894893D01*
X27324253Y-35914599D01*
X27307777Y-35932777D01*
X27289599Y-35949253D01*
X27269893Y-35963868D01*
X27248850Y-35976480D01*
X27226671Y-35986970D01*
X27203572Y-35995235D01*
X27179773Y-36001196D01*
X27155505Y-36004796D01*
X27131001Y-36006000D01*
X26480999Y-36006000D01*
X26456495Y-36004796D01*
X26432227Y-36001196D01*
X26408428Y-35995235D01*
X26385329Y-35986970D01*
X26363150Y-35976480D01*
X26342107Y-35963868D01*
X26322401Y-35949253D01*
X26304223Y-35932777D01*
X26287747Y-35914599D01*
X26273132Y-35894893D01*
X26260520Y-35873850D01*
X26250030Y-35851671D01*
X26241765Y-35828572D01*
X26235804Y-35804773D01*
X26232204Y-35780505D01*
X26231000Y-35756001D01*
X26231000Y-34855999D01*
X26232204Y-34831495D01*
X26235804Y-34807227D01*
X26241765Y-34783428D01*
X26250030Y-34760329D01*
X26260520Y-34738150D01*
X26273132Y-34717107D01*
X26287747Y-34697401D01*
X26304223Y-34679223D01*
X26322401Y-34662747D01*
X26342107Y-34648132D01*
X26363150Y-34635520D01*
X26385329Y-34625030D01*
X26408428Y-34616765D01*
X26432227Y-34610804D01*
X26456495Y-34607204D01*
X26480999Y-34606000D01*
X27131001Y-34606000D01*
X27155505Y-34607204D01*
X27155505Y-34607204D01*
G37*
D11*
X26806000Y-35306000D03*
D10*
G36*
X25105505Y-34607204D02*
G01*
X25129773Y-34610804D01*
X25153572Y-34616765D01*
X25176671Y-34625030D01*
X25198850Y-34635520D01*
X25219893Y-34648132D01*
X25239599Y-34662747D01*
X25257777Y-34679223D01*
X25274253Y-34697401D01*
X25288868Y-34717107D01*
X25301480Y-34738150D01*
X25311970Y-34760329D01*
X25320235Y-34783428D01*
X25326196Y-34807227D01*
X25329796Y-34831495D01*
X25331000Y-34855999D01*
X25331000Y-35756001D01*
X25329796Y-35780505D01*
X25326196Y-35804773D01*
X25320235Y-35828572D01*
X25311970Y-35851671D01*
X25301480Y-35873850D01*
X25288868Y-35894893D01*
X25274253Y-35914599D01*
X25257777Y-35932777D01*
X25239599Y-35949253D01*
X25219893Y-35963868D01*
X25198850Y-35976480D01*
X25176671Y-35986970D01*
X25153572Y-35995235D01*
X25129773Y-36001196D01*
X25105505Y-36004796D01*
X25081001Y-36006000D01*
X24430999Y-36006000D01*
X24406495Y-36004796D01*
X24382227Y-36001196D01*
X24358428Y-35995235D01*
X24335329Y-35986970D01*
X24313150Y-35976480D01*
X24292107Y-35963868D01*
X24272401Y-35949253D01*
X24254223Y-35932777D01*
X24237747Y-35914599D01*
X24223132Y-35894893D01*
X24210520Y-35873850D01*
X24200030Y-35851671D01*
X24191765Y-35828572D01*
X24185804Y-35804773D01*
X24182204Y-35780505D01*
X24181000Y-35756001D01*
X24181000Y-34855999D01*
X24182204Y-34831495D01*
X24185804Y-34807227D01*
X24191765Y-34783428D01*
X24200030Y-34760329D01*
X24210520Y-34738150D01*
X24223132Y-34717107D01*
X24237747Y-34697401D01*
X24254223Y-34679223D01*
X24272401Y-34662747D01*
X24292107Y-34648132D01*
X24313150Y-34635520D01*
X24335329Y-34625030D01*
X24358428Y-34616765D01*
X24382227Y-34610804D01*
X24406495Y-34607204D01*
X24430999Y-34606000D01*
X25081001Y-34606000D01*
X25105505Y-34607204D01*
X25105505Y-34607204D01*
G37*
D11*
X24756000Y-35306000D03*
D14*
X29480000Y-48875000D03*
X29480000Y-43835000D03*
D15*
X33020000Y-48875000D03*
X33020000Y-43835000D03*
D14*
X36560000Y-48875000D03*
X36560000Y-43835000D03*
D13*
X12763500Y-14418000D03*
X12763500Y-19618000D03*
D16*
X27622500Y-20316500D02*
X27559000Y-20253000D01*
X27622500Y-24070000D02*
X27622500Y-20316500D01*
X47558000Y-23587000D02*
X47558000Y-22987000D01*
X51216000Y-27245000D02*
X47558000Y-23587000D01*
X53213000Y-27245000D02*
X51216000Y-27245000D01*
X39116000Y-13341000D02*
X39116000Y-13468000D01*
X39116000Y-13468000D02*
X39116000Y-14418000D01*
X41408000Y-11049000D02*
X39116000Y-13341000D01*
X42358000Y-11049000D02*
X41408000Y-11049000D01*
X36449000Y-14986000D02*
X37017000Y-14418000D01*
X37017000Y-14418000D02*
X39116000Y-14418000D01*
X51343000Y-18602000D02*
X53086000Y-18602000D01*
X47558000Y-22987000D02*
X47558000Y-22387000D01*
X47558000Y-22387000D02*
X51343000Y-18602000D01*
X13808000Y-14418000D02*
X12763500Y-14418000D01*
X16513500Y-11712500D02*
X13808000Y-14418000D01*
X16513500Y-11112500D02*
X16513500Y-11712500D01*
X15500000Y-36195000D02*
X16450000Y-36195000D01*
X12827000Y-33522000D02*
X15500000Y-36195000D01*
X12827000Y-29651000D02*
X12827000Y-33522000D01*
X36449000Y-31750000D02*
X36449000Y-14986000D01*
X36449000Y-32258000D02*
X36449000Y-31750000D01*
X36509000Y-32445000D02*
X36449000Y-32385000D01*
X39116000Y-32445000D02*
X36509000Y-32445000D01*
X36449000Y-32385000D02*
X36449000Y-31750000D01*
X35687000Y-38098590D02*
X35687000Y-42009999D01*
X36449000Y-37336590D02*
X35687000Y-38098590D01*
X35687000Y-42009999D02*
X31805001Y-42009999D01*
X36449000Y-32385000D02*
X36449000Y-37336590D01*
X31805001Y-42009999D02*
X29980000Y-43835000D01*
X29980000Y-43835000D02*
X29480000Y-43835000D01*
X28889020Y-43835000D02*
X27706010Y-42651990D01*
X29480000Y-43835000D02*
X28889020Y-43835000D01*
X27686000Y-36195000D02*
X27686000Y-42164000D01*
X28321000Y-35560000D02*
X27686000Y-36195000D01*
X27686000Y-42164000D02*
X29357000Y-43835000D01*
X25841000Y-24070000D02*
X25400000Y-24511000D01*
X27622500Y-24070000D02*
X25841000Y-24070000D01*
X25400000Y-24511000D02*
X25400000Y-31115000D01*
X28321000Y-34036000D02*
X28321000Y-35560000D01*
X29357000Y-43835000D02*
X29480000Y-43835000D01*
X25400000Y-31115000D02*
X28321000Y-34036000D01*
X50292000Y-10541000D02*
X48768000Y-9017000D01*
X54636000Y-18602000D02*
X54991000Y-18247000D01*
X42358000Y-9499000D02*
X42358000Y-11049000D01*
X42840000Y-9017000D02*
X42358000Y-9499000D01*
X53086000Y-18602000D02*
X54636000Y-18602000D01*
X48768000Y-9017000D02*
X42840000Y-9017000D01*
X53340000Y-10541000D02*
X50292000Y-10541000D01*
X54991000Y-18247000D02*
X54991000Y-12192000D01*
X54991000Y-12192000D02*
X53340000Y-10541000D01*
X14799000Y-29651000D02*
X12827000Y-29651000D01*
X15367000Y-29083000D02*
X14799000Y-29651000D01*
X15367000Y-14986000D02*
X15367000Y-29083000D01*
X12763500Y-14418000D02*
X14799000Y-14418000D01*
X14799000Y-14418000D02*
X15367000Y-14986000D01*
X16513500Y-12662500D02*
X16513500Y-11112500D01*
X16805000Y-12954000D02*
X16513500Y-12662500D01*
X26009000Y-20253000D02*
X25527000Y-19771000D01*
X27559000Y-20253000D02*
X26009000Y-20253000D01*
X25527000Y-19771000D02*
X25527000Y-17018000D01*
X25527000Y-17018000D02*
X21463000Y-12954000D01*
X21463000Y-12954000D02*
X16805000Y-12954000D01*
X55245000Y-33655000D02*
X55245000Y-27727000D01*
X54763000Y-27245000D02*
X53213000Y-27245000D01*
X55245000Y-27727000D02*
X54763000Y-27245000D01*
X51308000Y-37592000D02*
X55245000Y-33655000D01*
X42358000Y-37659000D02*
X42799000Y-38100000D01*
X42358000Y-36195000D02*
X42358000Y-37659000D01*
X42799000Y-38100000D02*
X49403000Y-38100000D01*
X49403000Y-38100000D02*
X49911000Y-37592000D01*
X49911000Y-37592000D02*
X51308000Y-37592000D01*
X23867000Y-36195000D02*
X24756000Y-35306000D01*
X21650000Y-36195000D02*
X23867000Y-36195000D01*
X22663500Y-11112500D02*
X21713500Y-11112500D01*
X24568500Y-11112500D02*
X22663500Y-11112500D01*
X27559000Y-14103000D02*
X24568500Y-11112500D01*
X27559000Y-15053000D02*
X27559000Y-14103000D01*
X12763500Y-24387500D02*
X12827000Y-24451000D01*
X12763500Y-19618000D02*
X12763500Y-24387500D01*
X27622500Y-29270000D02*
X29785000Y-29270000D01*
X29785000Y-29270000D02*
X30353000Y-28702000D01*
X30353000Y-28702000D02*
X30353000Y-15875000D01*
X29531000Y-15053000D02*
X27559000Y-15053000D01*
X30353000Y-15875000D02*
X29531000Y-15053000D01*
X10982000Y-19618000D02*
X12763500Y-19618000D01*
X21713500Y-11112500D02*
X20763500Y-11112500D01*
X18795000Y-9144000D02*
X13970000Y-9144000D01*
X10414000Y-19050000D02*
X10982000Y-19618000D01*
X20763500Y-11112500D02*
X18795000Y-9144000D01*
X13970000Y-9144000D02*
X10414000Y-12700000D01*
X10414000Y-12700000D02*
X10414000Y-19050000D01*
X21650000Y-37798500D02*
X21650000Y-36195000D01*
X11277000Y-24451000D02*
X10287000Y-25441000D01*
X10287000Y-35052000D02*
X13462000Y-38227000D01*
X12827000Y-24451000D02*
X11277000Y-24451000D01*
X21221500Y-38227000D02*
X21650000Y-37798500D01*
X10287000Y-25441000D02*
X10287000Y-35052000D01*
X13462000Y-38227000D02*
X21221500Y-38227000D01*
X28980000Y-48875000D02*
X29480000Y-48875000D01*
X26806000Y-46701000D02*
X28980000Y-48875000D01*
X29980000Y-48875000D02*
X29480000Y-48875000D01*
X31805001Y-50700001D02*
X29980000Y-48875000D01*
X38820001Y-50700001D02*
X31805001Y-50700001D01*
X39243000Y-50277002D02*
X38820001Y-50700001D01*
X39243000Y-42432998D02*
X39243000Y-50277002D01*
X37837000Y-35306000D02*
X37837000Y-36585000D01*
X37837000Y-36585000D02*
X36195000Y-38227000D01*
X38820001Y-42009999D02*
X39243000Y-42432998D01*
X36195000Y-38227000D02*
X36195000Y-42009999D01*
X36195000Y-42009999D02*
X38820001Y-42009999D01*
X26806000Y-36106000D02*
X27178000Y-36478000D01*
X26806000Y-35306000D02*
X26806000Y-36106000D01*
X27178000Y-36478000D02*
X27178000Y-42037000D01*
X26806000Y-42409000D02*
X26806000Y-46701000D01*
X27178000Y-42037000D02*
X26806000Y-42409000D01*
X42358000Y-22260000D02*
X42358000Y-22987000D01*
X39716000Y-19618000D02*
X42358000Y-22260000D01*
X39116000Y-19618000D02*
X39716000Y-19618000D01*
X39116000Y-26295000D02*
X39116000Y-27245000D01*
X39116000Y-25279000D02*
X39116000Y-26295000D01*
X41408000Y-22987000D02*
X39116000Y-25279000D01*
X42358000Y-22987000D02*
X41408000Y-22987000D01*
X40510372Y-34682628D02*
X39887000Y-35306000D01*
X47558000Y-34645000D02*
X46923001Y-34010001D01*
X47558000Y-36195000D02*
X47558000Y-34645000D01*
X50794000Y-11049000D02*
X48508000Y-11049000D01*
X53213000Y-13468000D02*
X50794000Y-11049000D01*
X48508000Y-11049000D02*
X47558000Y-11049000D01*
X50413000Y-36195000D02*
X48508000Y-36195000D01*
X48508000Y-36195000D02*
X47558000Y-36195000D01*
X53213000Y-33395000D02*
X50413000Y-36195000D01*
X53213000Y-32445000D02*
X53213000Y-33395000D01*
X51749000Y-13402000D02*
X53086000Y-13402000D01*
X42358000Y-21437000D02*
X42713000Y-21082000D01*
X42358000Y-22987000D02*
X42358000Y-21437000D01*
X49657000Y-15494000D02*
X51749000Y-13402000D01*
X42713000Y-21082000D02*
X47625000Y-21082000D01*
X47625000Y-21082000D02*
X49657000Y-19050000D01*
X49657000Y-19050000D02*
X49657000Y-15494000D01*
X46923001Y-34010001D02*
X41630001Y-34010001D01*
X40957374Y-34682628D02*
X41630001Y-34010001D01*
X40510372Y-34682628D02*
X40957374Y-34682628D01*
X41630001Y-27774501D02*
X41630001Y-34010001D01*
X39116000Y-27245000D02*
X41100500Y-27245000D01*
X41100500Y-27245000D02*
X41630001Y-27774501D01*
M02*
