M48
; DRILL file {KiCad 5.1.6-c6e7f7d~87~ubuntu19.10.1} date Tue Dec 15 16:22:48 2020
; FORMAT={-:-/ absolute / metric / decimal}
; #@! TF.CreationDate,2020-12-15T16:22:48-08:00
; #@! TF.GenerationSoftware,Kicad,Pcbnew,5.1.6-c6e7f7d~87~ubuntu19.10.1
FMAT,2
METRIC
T1C0.400
T2C0.650
T3C1.000
T4C2.200
T5C0.650
%
G90
G05
T1
X97.75Y-98.75
X99.75Y-100.25
X100.25Y-98.75
X100.75Y-103.25
X101.235Y-100.505
X102.75Y-108.75
X104.5Y-96.0
X104.75Y-101.75
X104.75Y-103.0
X105.5Y-108.75
X106.0Y-98.0
X106.0Y-104.5
X106.237Y-92.487
X106.25Y-93.5
X106.75Y-91.0
X108.5Y-98.0
X110.25Y-108.0
X111.25Y-106.0
X111.75Y-90.875
X112.0Y-108.0
X112.25Y-99.75
X112.65Y-95.25
X113.25Y-102.75
X113.25Y-106.75
X114.169Y-104.169
X114.65Y-92.1
X114.75Y-108.25
X114.954Y-106.325
X115.195Y-104.168
X115.731Y-108.507
X115.75Y-105.0
X117.0Y-94.25
X117.435Y-107.659
X117.75Y-92.5
X117.987Y-102.75
X118.987Y-102.737
X119.418Y-107.825
X120.0Y-102.75
X120.5Y-91.0
X120.5Y-92.5
X121.75Y-102.6
X122.418Y-107.375
X122.502Y-106.275
X123.0Y-95.25
X124.0Y-103.5
X125.25Y-98.5
X125.25Y-106.25
X125.5Y-93.75
X129.5Y-92.5
X129.75Y-96.5
X132.75Y-92.5
X133.75Y-95.25
X153.0Y-97.75
T2
X149.0Y-97.46
X149.0Y-98.73
X149.0Y-100.0
X149.0Y-101.27
X149.0Y-102.54
X150.27Y-97.46
X150.27Y-98.73
X150.27Y-100.0
X150.27Y-101.27
X150.27Y-102.54
T3
X143.75Y-96.19
X143.75Y-98.73
X143.75Y-101.27
X143.75Y-103.81
T4
X97.25Y-92.25
X97.25Y-108.0
X151.75Y-92.25
X151.75Y-108.0
T5
X101.81Y-97.11
X101.81Y-102.89
T0
M30
