%TF.GenerationSoftware,KiCad,Pcbnew,5.1.6-c6e7f7d~87~ubuntu19.10.1*%
%TF.CreationDate,2020-12-15T16:22:55-08:00*%
%TF.ProjectId,blue-pill-bmp,626c7565-2d70-4696-9c6c-2d626d702e6b,rev?*%
%TF.SameCoordinates,Original*%
%TF.FileFunction,Paste,Top*%
%TF.FilePolarity,Positive*%
%FSLAX46Y46*%
G04 Gerber Fmt 4.6, Leading zero omitted, Abs format (unit mm)*
G04 Created by KiCad (PCBNEW 5.1.6-c6e7f7d~87~ubuntu19.10.1) date 2020-12-15 16:22:55*
%MOMM*%
%LPD*%
G01*
G04 APERTURE LIST*
%ADD10R,3.250000X2.150000*%
%ADD11R,0.950000X2.150000*%
%ADD12R,2.400000X2.000000*%
%ADD13R,0.280000X1.560000*%
%ADD14R,1.560000X0.280000*%
%ADD15R,3.000000X1.000000*%
%ADD16R,1.000000X0.900000*%
%ADD17O,1.800000X1.200000*%
%ADD18O,2.400000X1.200000*%
%ADD19R,1.750000X0.300000*%
G04 APERTURE END LIST*
D10*
%TO.C,VR1*%
X109500000Y-92100000D03*
D11*
X111800000Y-97900000D03*
X109500000Y-97900000D03*
X107200000Y-97900000D03*
%TD*%
%TO.C,R6*%
G36*
G01*
X104743750Y-92850000D02*
X105256250Y-92850000D01*
G75*
G02*
X105475000Y-93068750I0J-218750D01*
G01*
X105475000Y-93506250D01*
G75*
G02*
X105256250Y-93725000I-218750J0D01*
G01*
X104743750Y-93725000D01*
G75*
G02*
X104525000Y-93506250I0J218750D01*
G01*
X104525000Y-93068750D01*
G75*
G02*
X104743750Y-92850000I218750J0D01*
G01*
G37*
G36*
G01*
X104743750Y-91275000D02*
X105256250Y-91275000D01*
G75*
G02*
X105475000Y-91493750I0J-218750D01*
G01*
X105475000Y-91931250D01*
G75*
G02*
X105256250Y-92150000I-218750J0D01*
G01*
X104743750Y-92150000D01*
G75*
G02*
X104525000Y-91931250I0J218750D01*
G01*
X104525000Y-91493750D01*
G75*
G02*
X104743750Y-91275000I218750J0D01*
G01*
G37*
%TD*%
D12*
%TO.C,X2*%
X128000000Y-101650000D03*
X128000000Y-105350000D03*
%TD*%
%TO.C,X1*%
X128000000Y-94650000D03*
X128000000Y-98350000D03*
%TD*%
D13*
%TO.C,U1*%
X122250000Y-104180000D03*
X121750000Y-104180000D03*
X121250000Y-104180000D03*
X120750000Y-104180000D03*
X120250000Y-104180000D03*
X119750000Y-104180000D03*
X119250000Y-104180000D03*
X118750000Y-104180000D03*
X118250000Y-104180000D03*
X117750000Y-104180000D03*
X117250000Y-104180000D03*
X116750000Y-104180000D03*
D14*
X115320000Y-102750000D03*
X115320000Y-102250000D03*
X115320000Y-101750000D03*
X115320000Y-101250000D03*
X115320000Y-100750000D03*
X115320000Y-100250000D03*
X115320000Y-99750000D03*
X115320000Y-99250000D03*
X115320000Y-98750000D03*
X115320000Y-98250000D03*
X115320000Y-97750000D03*
X115320000Y-97250000D03*
D13*
X116750000Y-95820000D03*
X117250000Y-95820000D03*
X117750000Y-95820000D03*
X118250000Y-95820000D03*
X118750000Y-95820000D03*
X119250000Y-95820000D03*
X119750000Y-95820000D03*
X120250000Y-95820000D03*
X120750000Y-95820000D03*
X121250000Y-95820000D03*
X121750000Y-95820000D03*
X122250000Y-95820000D03*
D14*
X123680000Y-97250000D03*
X123680000Y-97750000D03*
X123680000Y-98250000D03*
X123680000Y-98750000D03*
X123680000Y-99250000D03*
X123680000Y-99750000D03*
X123680000Y-100250000D03*
X123680000Y-100750000D03*
X123680000Y-101250000D03*
X123680000Y-101750000D03*
X123680000Y-102250000D03*
X123680000Y-102750000D03*
%TD*%
D15*
%TO.C,SW2*%
X135210000Y-97450000D03*
X135210000Y-100000000D03*
X135210000Y-102540000D03*
X140290000Y-97460000D03*
X140290000Y-100000000D03*
X140290000Y-102540000D03*
%TD*%
D16*
%TO.C,SW1*%
X111300000Y-105200000D03*
X109700000Y-105200000D03*
X111300000Y-109300000D03*
X109700000Y-109300000D03*
%TD*%
%TO.C,R11*%
G36*
G01*
X102350000Y-107756250D02*
X102350000Y-107243750D01*
G75*
G02*
X102568750Y-107025000I218750J0D01*
G01*
X103006250Y-107025000D01*
G75*
G02*
X103225000Y-107243750I0J-218750D01*
G01*
X103225000Y-107756250D01*
G75*
G02*
X103006250Y-107975000I-218750J0D01*
G01*
X102568750Y-107975000D01*
G75*
G02*
X102350000Y-107756250I0J218750D01*
G01*
G37*
G36*
G01*
X100775000Y-107756250D02*
X100775000Y-107243750D01*
G75*
G02*
X100993750Y-107025000I218750J0D01*
G01*
X101431250Y-107025000D01*
G75*
G02*
X101650000Y-107243750I0J-218750D01*
G01*
X101650000Y-107756250D01*
G75*
G02*
X101431250Y-107975000I-218750J0D01*
G01*
X100993750Y-107975000D01*
G75*
G02*
X100775000Y-107756250I0J218750D01*
G01*
G37*
%TD*%
%TO.C,R10*%
G36*
G01*
X102350000Y-106256250D02*
X102350000Y-105743750D01*
G75*
G02*
X102568750Y-105525000I218750J0D01*
G01*
X103006250Y-105525000D01*
G75*
G02*
X103225000Y-105743750I0J-218750D01*
G01*
X103225000Y-106256250D01*
G75*
G02*
X103006250Y-106475000I-218750J0D01*
G01*
X102568750Y-106475000D01*
G75*
G02*
X102350000Y-106256250I0J218750D01*
G01*
G37*
G36*
G01*
X100775000Y-106256250D02*
X100775000Y-105743750D01*
G75*
G02*
X100993750Y-105525000I218750J0D01*
G01*
X101431250Y-105525000D01*
G75*
G02*
X101650000Y-105743750I0J-218750D01*
G01*
X101650000Y-106256250D01*
G75*
G02*
X101431250Y-106475000I-218750J0D01*
G01*
X100993750Y-106475000D01*
G75*
G02*
X100775000Y-106256250I0J218750D01*
G01*
G37*
%TD*%
%TO.C,R9*%
G36*
G01*
X109850000Y-103756250D02*
X109850000Y-103243750D01*
G75*
G02*
X110068750Y-103025000I218750J0D01*
G01*
X110506250Y-103025000D01*
G75*
G02*
X110725000Y-103243750I0J-218750D01*
G01*
X110725000Y-103756250D01*
G75*
G02*
X110506250Y-103975000I-218750J0D01*
G01*
X110068750Y-103975000D01*
G75*
G02*
X109850000Y-103756250I0J218750D01*
G01*
G37*
G36*
G01*
X108275000Y-103756250D02*
X108275000Y-103243750D01*
G75*
G02*
X108493750Y-103025000I218750J0D01*
G01*
X108931250Y-103025000D01*
G75*
G02*
X109150000Y-103243750I0J-218750D01*
G01*
X109150000Y-103756250D01*
G75*
G02*
X108931250Y-103975000I-218750J0D01*
G01*
X108493750Y-103975000D01*
G75*
G02*
X108275000Y-103756250I0J218750D01*
G01*
G37*
%TD*%
%TO.C,R8*%
G36*
G01*
X109150000Y-101743750D02*
X109150000Y-102256250D01*
G75*
G02*
X108931250Y-102475000I-218750J0D01*
G01*
X108493750Y-102475000D01*
G75*
G02*
X108275000Y-102256250I0J218750D01*
G01*
X108275000Y-101743750D01*
G75*
G02*
X108493750Y-101525000I218750J0D01*
G01*
X108931250Y-101525000D01*
G75*
G02*
X109150000Y-101743750I0J-218750D01*
G01*
G37*
G36*
G01*
X110725000Y-101743750D02*
X110725000Y-102256250D01*
G75*
G02*
X110506250Y-102475000I-218750J0D01*
G01*
X110068750Y-102475000D01*
G75*
G02*
X109850000Y-102256250I0J218750D01*
G01*
X109850000Y-101743750D01*
G75*
G02*
X110068750Y-101525000I218750J0D01*
G01*
X110506250Y-101525000D01*
G75*
G02*
X110725000Y-101743750I0J-218750D01*
G01*
G37*
%TD*%
%TO.C,R7*%
G36*
G01*
X109150000Y-100243750D02*
X109150000Y-100756250D01*
G75*
G02*
X108931250Y-100975000I-218750J0D01*
G01*
X108493750Y-100975000D01*
G75*
G02*
X108275000Y-100756250I0J218750D01*
G01*
X108275000Y-100243750D01*
G75*
G02*
X108493750Y-100025000I218750J0D01*
G01*
X108931250Y-100025000D01*
G75*
G02*
X109150000Y-100243750I0J-218750D01*
G01*
G37*
G36*
G01*
X110725000Y-100243750D02*
X110725000Y-100756250D01*
G75*
G02*
X110506250Y-100975000I-218750J0D01*
G01*
X110068750Y-100975000D01*
G75*
G02*
X109850000Y-100756250I0J218750D01*
G01*
X109850000Y-100243750D01*
G75*
G02*
X110068750Y-100025000I218750J0D01*
G01*
X110506250Y-100025000D01*
G75*
G02*
X110725000Y-100243750I0J-218750D01*
G01*
G37*
%TD*%
%TO.C,R5*%
G36*
G01*
X108006250Y-106400000D02*
X107493750Y-106400000D01*
G75*
G02*
X107275000Y-106181250I0J218750D01*
G01*
X107275000Y-105743750D01*
G75*
G02*
X107493750Y-105525000I218750J0D01*
G01*
X108006250Y-105525000D01*
G75*
G02*
X108225000Y-105743750I0J-218750D01*
G01*
X108225000Y-106181250D01*
G75*
G02*
X108006250Y-106400000I-218750J0D01*
G01*
G37*
G36*
G01*
X108006250Y-107975000D02*
X107493750Y-107975000D01*
G75*
G02*
X107275000Y-107756250I0J218750D01*
G01*
X107275000Y-107318750D01*
G75*
G02*
X107493750Y-107100000I218750J0D01*
G01*
X108006250Y-107100000D01*
G75*
G02*
X108225000Y-107318750I0J-218750D01*
G01*
X108225000Y-107756250D01*
G75*
G02*
X108006250Y-107975000I-218750J0D01*
G01*
G37*
%TD*%
%TO.C,R4*%
G36*
G01*
X101743750Y-92850000D02*
X102256250Y-92850000D01*
G75*
G02*
X102475000Y-93068750I0J-218750D01*
G01*
X102475000Y-93506250D01*
G75*
G02*
X102256250Y-93725000I-218750J0D01*
G01*
X101743750Y-93725000D01*
G75*
G02*
X101525000Y-93506250I0J218750D01*
G01*
X101525000Y-93068750D01*
G75*
G02*
X101743750Y-92850000I218750J0D01*
G01*
G37*
G36*
G01*
X101743750Y-91275000D02*
X102256250Y-91275000D01*
G75*
G02*
X102475000Y-91493750I0J-218750D01*
G01*
X102475000Y-91931250D01*
G75*
G02*
X102256250Y-92150000I-218750J0D01*
G01*
X101743750Y-92150000D01*
G75*
G02*
X101525000Y-91931250I0J218750D01*
G01*
X101525000Y-91493750D01*
G75*
G02*
X101743750Y-91275000I218750J0D01*
G01*
G37*
%TD*%
%TO.C,R3*%
G36*
G01*
X134850000Y-94256250D02*
X134850000Y-93743750D01*
G75*
G02*
X135068750Y-93525000I218750J0D01*
G01*
X135506250Y-93525000D01*
G75*
G02*
X135725000Y-93743750I0J-218750D01*
G01*
X135725000Y-94256250D01*
G75*
G02*
X135506250Y-94475000I-218750J0D01*
G01*
X135068750Y-94475000D01*
G75*
G02*
X134850000Y-94256250I0J218750D01*
G01*
G37*
G36*
G01*
X133275000Y-94256250D02*
X133275000Y-93743750D01*
G75*
G02*
X133493750Y-93525000I218750J0D01*
G01*
X133931250Y-93525000D01*
G75*
G02*
X134150000Y-93743750I0J-218750D01*
G01*
X134150000Y-94256250D01*
G75*
G02*
X133931250Y-94475000I-218750J0D01*
G01*
X133493750Y-94475000D01*
G75*
G02*
X133275000Y-94256250I0J218750D01*
G01*
G37*
%TD*%
%TO.C,R2*%
G36*
G01*
X104900000Y-105743750D02*
X104900000Y-106256250D01*
G75*
G02*
X104681250Y-106475000I-218750J0D01*
G01*
X104243750Y-106475000D01*
G75*
G02*
X104025000Y-106256250I0J218750D01*
G01*
X104025000Y-105743750D01*
G75*
G02*
X104243750Y-105525000I218750J0D01*
G01*
X104681250Y-105525000D01*
G75*
G02*
X104900000Y-105743750I0J-218750D01*
G01*
G37*
G36*
G01*
X106475000Y-105743750D02*
X106475000Y-106256250D01*
G75*
G02*
X106256250Y-106475000I-218750J0D01*
G01*
X105818750Y-106475000D01*
G75*
G02*
X105600000Y-106256250I0J218750D01*
G01*
X105600000Y-105743750D01*
G75*
G02*
X105818750Y-105525000I218750J0D01*
G01*
X106256250Y-105525000D01*
G75*
G02*
X106475000Y-105743750I0J-218750D01*
G01*
G37*
%TD*%
%TO.C,R1*%
G36*
G01*
X120150000Y-106243750D02*
X120150000Y-106756250D01*
G75*
G02*
X119931250Y-106975000I-218750J0D01*
G01*
X119493750Y-106975000D01*
G75*
G02*
X119275000Y-106756250I0J218750D01*
G01*
X119275000Y-106243750D01*
G75*
G02*
X119493750Y-106025000I218750J0D01*
G01*
X119931250Y-106025000D01*
G75*
G02*
X120150000Y-106243750I0J-218750D01*
G01*
G37*
G36*
G01*
X121725000Y-106243750D02*
X121725000Y-106756250D01*
G75*
G02*
X121506250Y-106975000I-218750J0D01*
G01*
X121068750Y-106975000D01*
G75*
G02*
X120850000Y-106756250I0J218750D01*
G01*
X120850000Y-106243750D01*
G75*
G02*
X121068750Y-106025000I218750J0D01*
G01*
X121506250Y-106025000D01*
G75*
G02*
X121725000Y-106243750I0J-218750D01*
G01*
G37*
%TD*%
D17*
%TO.C,J2*%
X98130000Y-95680000D03*
X98130000Y-104320000D03*
D18*
X102310000Y-95680000D03*
X102310000Y-104320000D03*
D19*
X103150000Y-100250000D03*
X103150000Y-100750000D03*
X103150000Y-101250000D03*
X103150000Y-101750000D03*
X103150000Y-99250000D03*
X103150000Y-98250000D03*
X103150000Y-98750000D03*
X103150000Y-99750000D03*
X103150000Y-96650000D03*
X103150000Y-96950000D03*
X103150000Y-97450000D03*
X103150000Y-97750000D03*
X103150000Y-102550000D03*
X103150000Y-102250000D03*
X103150000Y-103050000D03*
X103150000Y-103350000D03*
%TD*%
%TO.C,D3*%
G36*
G01*
X103756250Y-92150000D02*
X103243750Y-92150000D01*
G75*
G02*
X103025000Y-91931250I0J218750D01*
G01*
X103025000Y-91493750D01*
G75*
G02*
X103243750Y-91275000I218750J0D01*
G01*
X103756250Y-91275000D01*
G75*
G02*
X103975000Y-91493750I0J-218750D01*
G01*
X103975000Y-91931250D01*
G75*
G02*
X103756250Y-92150000I-218750J0D01*
G01*
G37*
G36*
G01*
X103756250Y-93725000D02*
X103243750Y-93725000D01*
G75*
G02*
X103025000Y-93506250I0J218750D01*
G01*
X103025000Y-93068750D01*
G75*
G02*
X103243750Y-92850000I218750J0D01*
G01*
X103756250Y-92850000D01*
G75*
G02*
X103975000Y-93068750I0J-218750D01*
G01*
X103975000Y-93506250D01*
G75*
G02*
X103756250Y-93725000I-218750J0D01*
G01*
G37*
%TD*%
%TO.C,D2*%
G36*
G01*
X138100000Y-94256250D02*
X138100000Y-93743750D01*
G75*
G02*
X138318750Y-93525000I218750J0D01*
G01*
X138756250Y-93525000D01*
G75*
G02*
X138975000Y-93743750I0J-218750D01*
G01*
X138975000Y-94256250D01*
G75*
G02*
X138756250Y-94475000I-218750J0D01*
G01*
X138318750Y-94475000D01*
G75*
G02*
X138100000Y-94256250I0J218750D01*
G01*
G37*
G36*
G01*
X136525000Y-94256250D02*
X136525000Y-93743750D01*
G75*
G02*
X136743750Y-93525000I218750J0D01*
G01*
X137181250Y-93525000D01*
G75*
G02*
X137400000Y-93743750I0J-218750D01*
G01*
X137400000Y-94256250D01*
G75*
G02*
X137181250Y-94475000I-218750J0D01*
G01*
X136743750Y-94475000D01*
G75*
G02*
X136525000Y-94256250I0J218750D01*
G01*
G37*
%TD*%
%TO.C,D1*%
G36*
G01*
X116650000Y-106243750D02*
X116650000Y-106756250D01*
G75*
G02*
X116431250Y-106975000I-218750J0D01*
G01*
X115993750Y-106975000D01*
G75*
G02*
X115775000Y-106756250I0J218750D01*
G01*
X115775000Y-106243750D01*
G75*
G02*
X115993750Y-106025000I218750J0D01*
G01*
X116431250Y-106025000D01*
G75*
G02*
X116650000Y-106243750I0J-218750D01*
G01*
G37*
G36*
G01*
X118225000Y-106243750D02*
X118225000Y-106756250D01*
G75*
G02*
X118006250Y-106975000I-218750J0D01*
G01*
X117568750Y-106975000D01*
G75*
G02*
X117350000Y-106756250I0J218750D01*
G01*
X117350000Y-106243750D01*
G75*
G02*
X117568750Y-106025000I218750J0D01*
G01*
X118006250Y-106025000D01*
G75*
G02*
X118225000Y-106243750I0J-218750D01*
G01*
G37*
%TD*%
%TO.C,C11*%
G36*
G01*
X130743750Y-102350000D02*
X131256250Y-102350000D01*
G75*
G02*
X131475000Y-102568750I0J-218750D01*
G01*
X131475000Y-103006250D01*
G75*
G02*
X131256250Y-103225000I-218750J0D01*
G01*
X130743750Y-103225000D01*
G75*
G02*
X130525000Y-103006250I0J218750D01*
G01*
X130525000Y-102568750D01*
G75*
G02*
X130743750Y-102350000I218750J0D01*
G01*
G37*
G36*
G01*
X130743750Y-100775000D02*
X131256250Y-100775000D01*
G75*
G02*
X131475000Y-100993750I0J-218750D01*
G01*
X131475000Y-101431250D01*
G75*
G02*
X131256250Y-101650000I-218750J0D01*
G01*
X130743750Y-101650000D01*
G75*
G02*
X130525000Y-101431250I0J218750D01*
G01*
X130525000Y-100993750D01*
G75*
G02*
X130743750Y-100775000I218750J0D01*
G01*
G37*
%TD*%
%TO.C,C10*%
G36*
G01*
X131256250Y-104650000D02*
X130743750Y-104650000D01*
G75*
G02*
X130525000Y-104431250I0J218750D01*
G01*
X130525000Y-103993750D01*
G75*
G02*
X130743750Y-103775000I218750J0D01*
G01*
X131256250Y-103775000D01*
G75*
G02*
X131475000Y-103993750I0J-218750D01*
G01*
X131475000Y-104431250D01*
G75*
G02*
X131256250Y-104650000I-218750J0D01*
G01*
G37*
G36*
G01*
X131256250Y-106225000D02*
X130743750Y-106225000D01*
G75*
G02*
X130525000Y-106006250I0J218750D01*
G01*
X130525000Y-105568750D01*
G75*
G02*
X130743750Y-105350000I218750J0D01*
G01*
X131256250Y-105350000D01*
G75*
G02*
X131475000Y-105568750I0J-218750D01*
G01*
X131475000Y-106006250D01*
G75*
G02*
X131256250Y-106225000I-218750J0D01*
G01*
G37*
%TD*%
%TO.C,C9*%
G36*
G01*
X130743750Y-95350000D02*
X131256250Y-95350000D01*
G75*
G02*
X131475000Y-95568750I0J-218750D01*
G01*
X131475000Y-96006250D01*
G75*
G02*
X131256250Y-96225000I-218750J0D01*
G01*
X130743750Y-96225000D01*
G75*
G02*
X130525000Y-96006250I0J218750D01*
G01*
X130525000Y-95568750D01*
G75*
G02*
X130743750Y-95350000I218750J0D01*
G01*
G37*
G36*
G01*
X130743750Y-93775000D02*
X131256250Y-93775000D01*
G75*
G02*
X131475000Y-93993750I0J-218750D01*
G01*
X131475000Y-94431250D01*
G75*
G02*
X131256250Y-94650000I-218750J0D01*
G01*
X130743750Y-94650000D01*
G75*
G02*
X130525000Y-94431250I0J218750D01*
G01*
X130525000Y-93993750D01*
G75*
G02*
X130743750Y-93775000I218750J0D01*
G01*
G37*
%TD*%
%TO.C,C8*%
G36*
G01*
X131256250Y-97650000D02*
X130743750Y-97650000D01*
G75*
G02*
X130525000Y-97431250I0J218750D01*
G01*
X130525000Y-96993750D01*
G75*
G02*
X130743750Y-96775000I218750J0D01*
G01*
X131256250Y-96775000D01*
G75*
G02*
X131475000Y-96993750I0J-218750D01*
G01*
X131475000Y-97431250D01*
G75*
G02*
X131256250Y-97650000I-218750J0D01*
G01*
G37*
G36*
G01*
X131256250Y-99225000D02*
X130743750Y-99225000D01*
G75*
G02*
X130525000Y-99006250I0J218750D01*
G01*
X130525000Y-98568750D01*
G75*
G02*
X130743750Y-98350000I218750J0D01*
G01*
X131256250Y-98350000D01*
G75*
G02*
X131475000Y-98568750I0J-218750D01*
G01*
X131475000Y-99006250D01*
G75*
G02*
X131256250Y-99225000I-218750J0D01*
G01*
G37*
%TD*%
%TO.C,C7*%
G36*
G01*
X114256250Y-94650000D02*
X113743750Y-94650000D01*
G75*
G02*
X113525000Y-94431250I0J218750D01*
G01*
X113525000Y-93993750D01*
G75*
G02*
X113743750Y-93775000I218750J0D01*
G01*
X114256250Y-93775000D01*
G75*
G02*
X114475000Y-93993750I0J-218750D01*
G01*
X114475000Y-94431250D01*
G75*
G02*
X114256250Y-94650000I-218750J0D01*
G01*
G37*
G36*
G01*
X114256250Y-96225000D02*
X113743750Y-96225000D01*
G75*
G02*
X113525000Y-96006250I0J218750D01*
G01*
X113525000Y-95568750D01*
G75*
G02*
X113743750Y-95350000I218750J0D01*
G01*
X114256250Y-95350000D01*
G75*
G02*
X114475000Y-95568750I0J-218750D01*
G01*
X114475000Y-96006250D01*
G75*
G02*
X114256250Y-96225000I-218750J0D01*
G01*
G37*
%TD*%
%TO.C,C6*%
G36*
G01*
X112993750Y-105350000D02*
X113506250Y-105350000D01*
G75*
G02*
X113725000Y-105568750I0J-218750D01*
G01*
X113725000Y-106006250D01*
G75*
G02*
X113506250Y-106225000I-218750J0D01*
G01*
X112993750Y-106225000D01*
G75*
G02*
X112775000Y-106006250I0J218750D01*
G01*
X112775000Y-105568750D01*
G75*
G02*
X112993750Y-105350000I218750J0D01*
G01*
G37*
G36*
G01*
X112993750Y-103775000D02*
X113506250Y-103775000D01*
G75*
G02*
X113725000Y-103993750I0J-218750D01*
G01*
X113725000Y-104431250D01*
G75*
G02*
X113506250Y-104650000I-218750J0D01*
G01*
X112993750Y-104650000D01*
G75*
G02*
X112775000Y-104431250I0J218750D01*
G01*
X112775000Y-103993750D01*
G75*
G02*
X112993750Y-103775000I218750J0D01*
G01*
G37*
%TD*%
%TO.C,C5*%
G36*
G01*
X123743750Y-105850000D02*
X124256250Y-105850000D01*
G75*
G02*
X124475000Y-106068750I0J-218750D01*
G01*
X124475000Y-106506250D01*
G75*
G02*
X124256250Y-106725000I-218750J0D01*
G01*
X123743750Y-106725000D01*
G75*
G02*
X123525000Y-106506250I0J218750D01*
G01*
X123525000Y-106068750D01*
G75*
G02*
X123743750Y-105850000I218750J0D01*
G01*
G37*
G36*
G01*
X123743750Y-104275000D02*
X124256250Y-104275000D01*
G75*
G02*
X124475000Y-104493750I0J-218750D01*
G01*
X124475000Y-104931250D01*
G75*
G02*
X124256250Y-105150000I-218750J0D01*
G01*
X123743750Y-105150000D01*
G75*
G02*
X123525000Y-104931250I0J218750D01*
G01*
X123525000Y-104493750D01*
G75*
G02*
X123743750Y-104275000I218750J0D01*
G01*
G37*
%TD*%
%TO.C,C4*%
G36*
G01*
X124506250Y-94150000D02*
X123993750Y-94150000D01*
G75*
G02*
X123775000Y-93931250I0J218750D01*
G01*
X123775000Y-93493750D01*
G75*
G02*
X123993750Y-93275000I218750J0D01*
G01*
X124506250Y-93275000D01*
G75*
G02*
X124725000Y-93493750I0J-218750D01*
G01*
X124725000Y-93931250D01*
G75*
G02*
X124506250Y-94150000I-218750J0D01*
G01*
G37*
G36*
G01*
X124506250Y-95725000D02*
X123993750Y-95725000D01*
G75*
G02*
X123775000Y-95506250I0J218750D01*
G01*
X123775000Y-95068750D01*
G75*
G02*
X123993750Y-94850000I218750J0D01*
G01*
X124506250Y-94850000D01*
G75*
G02*
X124725000Y-95068750I0J-218750D01*
G01*
X124725000Y-95506250D01*
G75*
G02*
X124506250Y-95725000I-218750J0D01*
G01*
G37*
%TD*%
%TO.C,C3*%
G36*
G01*
X118375000Y-93425001D02*
X118375000Y-91574999D01*
G75*
G02*
X118624999Y-91325000I249999J0D01*
G01*
X119450001Y-91325000D01*
G75*
G02*
X119700000Y-91574999I0J-249999D01*
G01*
X119700000Y-93425001D01*
G75*
G02*
X119450001Y-93675000I-249999J0D01*
G01*
X118624999Y-93675000D01*
G75*
G02*
X118375000Y-93425001I0J249999D01*
G01*
G37*
G36*
G01*
X115300000Y-93425001D02*
X115300000Y-91574999D01*
G75*
G02*
X115549999Y-91325000I249999J0D01*
G01*
X116375001Y-91325000D01*
G75*
G02*
X116625000Y-91574999I0J-249999D01*
G01*
X116625000Y-93425001D01*
G75*
G02*
X116375001Y-93675000I-249999J0D01*
G01*
X115549999Y-93675000D01*
G75*
G02*
X115300000Y-93425001I0J249999D01*
G01*
G37*
%TD*%
%TO.C,C2*%
G36*
G01*
X113243750Y-99100000D02*
X113756250Y-99100000D01*
G75*
G02*
X113975000Y-99318750I0J-218750D01*
G01*
X113975000Y-99756250D01*
G75*
G02*
X113756250Y-99975000I-218750J0D01*
G01*
X113243750Y-99975000D01*
G75*
G02*
X113025000Y-99756250I0J218750D01*
G01*
X113025000Y-99318750D01*
G75*
G02*
X113243750Y-99100000I218750J0D01*
G01*
G37*
G36*
G01*
X113243750Y-97525000D02*
X113756250Y-97525000D01*
G75*
G02*
X113975000Y-97743750I0J-218750D01*
G01*
X113975000Y-98181250D01*
G75*
G02*
X113756250Y-98400000I-218750J0D01*
G01*
X113243750Y-98400000D01*
G75*
G02*
X113025000Y-98181250I0J218750D01*
G01*
X113025000Y-97743750D01*
G75*
G02*
X113243750Y-97525000I218750J0D01*
G01*
G37*
%TD*%
%TO.C,C1*%
G36*
G01*
X105600000Y-107756250D02*
X105600000Y-107243750D01*
G75*
G02*
X105818750Y-107025000I218750J0D01*
G01*
X106256250Y-107025000D01*
G75*
G02*
X106475000Y-107243750I0J-218750D01*
G01*
X106475000Y-107756250D01*
G75*
G02*
X106256250Y-107975000I-218750J0D01*
G01*
X105818750Y-107975000D01*
G75*
G02*
X105600000Y-107756250I0J218750D01*
G01*
G37*
G36*
G01*
X104025000Y-107756250D02*
X104025000Y-107243750D01*
G75*
G02*
X104243750Y-107025000I218750J0D01*
G01*
X104681250Y-107025000D01*
G75*
G02*
X104900000Y-107243750I0J-218750D01*
G01*
X104900000Y-107756250D01*
G75*
G02*
X104681250Y-107975000I-218750J0D01*
G01*
X104243750Y-107975000D01*
G75*
G02*
X104025000Y-107756250I0J218750D01*
G01*
G37*
%TD*%
M02*
