G04 #@! TF.GenerationSoftware,KiCad,Pcbnew,8.0.5-1.fc40*
G04 #@! TF.CreationDate,2024-11-12T17:34:32-08:00*
G04 #@! TF.ProjectId,2024-supercon-sign-sao,32303234-2d73-4757-9065-72636f6e2d73,rev?*
G04 #@! TF.SameCoordinates,Original*
G04 #@! TF.FileFunction,Legend,Bot*
G04 #@! TF.FilePolarity,Positive*
%FSLAX46Y46*%
G04 Gerber Fmt 4.6, Leading zero omitted, Abs format (unit mm)*
G04 Created by KiCad (PCBNEW 8.0.5-1.fc40) date 2024-11-12 17:34:32*
%MOMM*%
%LPD*%
G01*
G04 APERTURE LIST*
%ADD10C,0.250000*%
%ADD11C,0.150000*%
%ADD12C,0.120000*%
G04 APERTURE END LIST*
D10*
X123910216Y-87202598D02*
X123910216Y-87067911D01*
X123910216Y-87067911D02*
X123977560Y-86865881D01*
X123977560Y-86865881D02*
X124112247Y-86731194D01*
X124112247Y-86731194D02*
X124314277Y-86663850D01*
X124314277Y-86663850D02*
X124448964Y-86663850D01*
X124448964Y-86663850D02*
X124650995Y-86731194D01*
X124650995Y-86731194D02*
X124785682Y-86865881D01*
X124785682Y-86865881D02*
X124853025Y-87067911D01*
X124853025Y-87067911D02*
X124853025Y-87202598D01*
X124853025Y-87202598D02*
X124785682Y-87404629D01*
X124785682Y-87404629D02*
X124650995Y-87539316D01*
X124650995Y-87539316D02*
X124448964Y-87606659D01*
X124448964Y-87606659D02*
X124314277Y-87606659D01*
X123775529Y-87067911D02*
X124314277Y-87606659D01*
X124314277Y-87606659D02*
X124314277Y-87741346D01*
X124314277Y-87741346D02*
X124246934Y-87808690D01*
X124246934Y-87808690D02*
X124044903Y-87876033D01*
X124044903Y-87876033D02*
X123842873Y-87808690D01*
X123842873Y-87808690D02*
X123506155Y-87471972D01*
X123506155Y-87471972D02*
X123438812Y-87135255D01*
X123438812Y-87135255D02*
X123506155Y-86798537D01*
X123506155Y-86798537D02*
X123708186Y-86461820D01*
X123708186Y-86461820D02*
X124044903Y-86259789D01*
X124044903Y-86259789D02*
X124381621Y-86192446D01*
X124381621Y-86192446D02*
X124718338Y-86259789D01*
X124718338Y-86259789D02*
X125055056Y-86461820D01*
X125055056Y-86461820D02*
X125257086Y-86798537D01*
X125257086Y-86798537D02*
X125324430Y-87135255D01*
X125324430Y-87135255D02*
X125257086Y-87471972D01*
X125257086Y-87471972D02*
X125055056Y-87808690D01*
X125055056Y-87808690D02*
X124718338Y-88010720D01*
X124718338Y-88010720D02*
X124381621Y-88078064D01*
X122428659Y-87202599D02*
X121620537Y-88010721D01*
X123438811Y-89020873D02*
X122024598Y-87606660D01*
X122361315Y-90098369D02*
X122428658Y-89896339D01*
X122428658Y-89896339D02*
X122428658Y-89761652D01*
X122428658Y-89761652D02*
X122361315Y-89559621D01*
X122361315Y-89559621D02*
X121957254Y-89155560D01*
X121957254Y-89155560D02*
X121755223Y-89088217D01*
X121755223Y-89088217D02*
X121620536Y-89088217D01*
X121620536Y-89088217D02*
X121418506Y-89155560D01*
X121418506Y-89155560D02*
X121216475Y-89357591D01*
X121216475Y-89357591D02*
X121149132Y-89559621D01*
X121149132Y-89559621D02*
X121149132Y-89694308D01*
X121149132Y-89694308D02*
X121216475Y-89896339D01*
X121216475Y-89896339D02*
X121620536Y-90300400D01*
X121620536Y-90300400D02*
X121822567Y-90367744D01*
X121822567Y-90367744D02*
X121957254Y-90367744D01*
X121957254Y-90367744D02*
X122159284Y-90300400D01*
X122159284Y-90300400D02*
X122361315Y-90098369D01*
X121283819Y-91175866D02*
X120341010Y-90233057D01*
X120475697Y-90367744D02*
X120341010Y-90367744D01*
X120341010Y-90367744D02*
X120138979Y-90435087D01*
X120138979Y-90435087D02*
X119936949Y-90637118D01*
X119936949Y-90637118D02*
X119869605Y-90839148D01*
X119869605Y-90839148D02*
X119936949Y-91041179D01*
X119936949Y-91041179D02*
X120677727Y-91781957D01*
X119936949Y-91041179D02*
X119734918Y-90973835D01*
X119734918Y-90973835D02*
X119532888Y-91041179D01*
X119532888Y-91041179D02*
X119330857Y-91243209D01*
X119330857Y-91243209D02*
X119263514Y-91445240D01*
X119263514Y-91445240D02*
X119330857Y-91647270D01*
X119330857Y-91647270D02*
X120071636Y-92388049D01*
X119398200Y-93061484D02*
X117983987Y-91647270D01*
X118590078Y-93869606D02*
X118388048Y-92455392D01*
X117175865Y-92455392D02*
X118792109Y-92455392D01*
X117377895Y-94947102D02*
X117579926Y-94879759D01*
X117579926Y-94879759D02*
X117849300Y-94610385D01*
X117849300Y-94610385D02*
X117916643Y-94408354D01*
X117916643Y-94408354D02*
X117849300Y-94206324D01*
X117849300Y-94206324D02*
X117310552Y-93667576D01*
X117310552Y-93667576D02*
X117108521Y-93600232D01*
X117108521Y-93600232D02*
X116906491Y-93667576D01*
X116906491Y-93667576D02*
X116637117Y-93936950D01*
X116637117Y-93936950D02*
X116569773Y-94138980D01*
X116569773Y-94138980D02*
X116637117Y-94341011D01*
X116637117Y-94341011D02*
X116771804Y-94475698D01*
X116771804Y-94475698D02*
X117579926Y-93936950D01*
X116165712Y-96293972D02*
X114751499Y-94879759D01*
X116098369Y-96226629D02*
X116300399Y-96159285D01*
X116300399Y-96159285D02*
X116569773Y-95889911D01*
X116569773Y-95889911D02*
X116637117Y-95687881D01*
X116637117Y-95687881D02*
X116637117Y-95553194D01*
X116637117Y-95553194D02*
X116569773Y-95351163D01*
X116569773Y-95351163D02*
X116165712Y-94947102D01*
X116165712Y-94947102D02*
X115963682Y-94879759D01*
X115963682Y-94879759D02*
X115828995Y-94879759D01*
X115828995Y-94879759D02*
X115626964Y-94947102D01*
X115626964Y-94947102D02*
X115357590Y-95216476D01*
X115357590Y-95216476D02*
X115290247Y-95418507D01*
X114886185Y-97573499D02*
X113471972Y-96159285D01*
X114818842Y-97506156D02*
X115020872Y-97438812D01*
X115020872Y-97438812D02*
X115290246Y-97169438D01*
X115290246Y-97169438D02*
X115357590Y-96967407D01*
X115357590Y-96967407D02*
X115357590Y-96832720D01*
X115357590Y-96832720D02*
X115290246Y-96630690D01*
X115290246Y-96630690D02*
X114886185Y-96226629D01*
X114886185Y-96226629D02*
X114684155Y-96159285D01*
X114684155Y-96159285D02*
X114549468Y-96159285D01*
X114549468Y-96159285D02*
X114347437Y-96226629D01*
X114347437Y-96226629D02*
X114078063Y-96496003D01*
X114078063Y-96496003D02*
X114010720Y-96698033D01*
X114212750Y-98246934D02*
X113269941Y-97304125D01*
X112798537Y-96832721D02*
X112933224Y-96832721D01*
X112933224Y-96832721D02*
X112933224Y-96967408D01*
X112933224Y-96967408D02*
X112798537Y-96967408D01*
X112798537Y-96967408D02*
X112798537Y-96832721D01*
X112798537Y-96832721D02*
X112933224Y-96967408D01*
X112933224Y-99391774D02*
X113135254Y-99324430D01*
X113135254Y-99324430D02*
X113404628Y-99055056D01*
X113404628Y-99055056D02*
X113471972Y-98853026D01*
X113471972Y-98853026D02*
X113404628Y-98650995D01*
X113404628Y-98650995D02*
X112865880Y-98112247D01*
X112865880Y-98112247D02*
X112663850Y-98044904D01*
X112663850Y-98044904D02*
X112461819Y-98112247D01*
X112461819Y-98112247D02*
X112192445Y-98381621D01*
X112192445Y-98381621D02*
X112125102Y-98583652D01*
X112125102Y-98583652D02*
X112192445Y-98785682D01*
X112192445Y-98785682D02*
X112327132Y-98920369D01*
X112327132Y-98920369D02*
X113135254Y-98381621D01*
X125782960Y-91230334D02*
X124368746Y-89816121D01*
X124368746Y-89816121D02*
X124974838Y-92038457D01*
X124974838Y-92038457D02*
X123560624Y-90624243D01*
X124099373Y-92913922D02*
X124166716Y-92711891D01*
X124166716Y-92711891D02*
X124166716Y-92577204D01*
X124166716Y-92577204D02*
X124099373Y-92375174D01*
X124099373Y-92375174D02*
X123695311Y-91971113D01*
X123695311Y-91971113D02*
X123493281Y-91903769D01*
X123493281Y-91903769D02*
X123358594Y-91903769D01*
X123358594Y-91903769D02*
X123156563Y-91971113D01*
X123156563Y-91971113D02*
X122954533Y-92173143D01*
X122954533Y-92173143D02*
X122887189Y-92375174D01*
X122887189Y-92375174D02*
X122887189Y-92509861D01*
X122887189Y-92509861D02*
X122954533Y-92711891D01*
X122954533Y-92711891D02*
X123358594Y-93115952D01*
X123358594Y-93115952D02*
X123560624Y-93183296D01*
X123560624Y-93183296D02*
X123695311Y-93183296D01*
X123695311Y-93183296D02*
X123897342Y-93115952D01*
X123897342Y-93115952D02*
X124099373Y-92913922D01*
X122213754Y-92913922D02*
X122819846Y-94193449D01*
X122819846Y-94193449D02*
X121540319Y-93587357D01*
X120732197Y-93722044D02*
X120597510Y-93722044D01*
X120597510Y-93722044D02*
X120395479Y-93789388D01*
X120395479Y-93789388D02*
X120058762Y-94126105D01*
X120058762Y-94126105D02*
X119991418Y-94328136D01*
X119991418Y-94328136D02*
X119991418Y-94462823D01*
X119991418Y-94462823D02*
X120058762Y-94664854D01*
X120058762Y-94664854D02*
X120193449Y-94799541D01*
X120193449Y-94799541D02*
X120462823Y-94934228D01*
X120462823Y-94934228D02*
X122079067Y-94934228D01*
X122079067Y-94934228D02*
X121203601Y-95809693D01*
X118913922Y-95270945D02*
X118779235Y-95405632D01*
X118779235Y-95405632D02*
X118711892Y-95607663D01*
X118711892Y-95607663D02*
X118711892Y-95742350D01*
X118711892Y-95742350D02*
X118779235Y-95944380D01*
X118779235Y-95944380D02*
X118981266Y-96281098D01*
X118981266Y-96281098D02*
X119317983Y-96617815D01*
X119317983Y-96617815D02*
X119654701Y-96819846D01*
X119654701Y-96819846D02*
X119856731Y-96887189D01*
X119856731Y-96887189D02*
X119991418Y-96887189D01*
X119991418Y-96887189D02*
X120193449Y-96819846D01*
X120193449Y-96819846D02*
X120328136Y-96685159D01*
X120328136Y-96685159D02*
X120395479Y-96483128D01*
X120395479Y-96483128D02*
X120395479Y-96348441D01*
X120395479Y-96348441D02*
X120328136Y-96146411D01*
X120328136Y-96146411D02*
X120126105Y-95809693D01*
X120126105Y-95809693D02*
X119789388Y-95472976D01*
X119789388Y-95472976D02*
X119452670Y-95270945D01*
X119452670Y-95270945D02*
X119250640Y-95203602D01*
X119250640Y-95203602D02*
X119115953Y-95203602D01*
X119115953Y-95203602D02*
X118913922Y-95270945D01*
X118038457Y-96415785D02*
X117903770Y-96415785D01*
X117903770Y-96415785D02*
X117701739Y-96483128D01*
X117701739Y-96483128D02*
X117365022Y-96819846D01*
X117365022Y-96819846D02*
X117297678Y-97021876D01*
X117297678Y-97021876D02*
X117297678Y-97156563D01*
X117297678Y-97156563D02*
X117365022Y-97358594D01*
X117365022Y-97358594D02*
X117499709Y-97493281D01*
X117499709Y-97493281D02*
X117769083Y-97627968D01*
X117769083Y-97627968D02*
X119385327Y-97627968D01*
X119385327Y-97627968D02*
X118509861Y-98503433D01*
X116354869Y-98772807D02*
X117297678Y-99715616D01*
X116152838Y-97897342D02*
X117499709Y-98570777D01*
X117499709Y-98570777D02*
X116624243Y-99446242D01*
X136376688Y-82631163D02*
X136242001Y-82631163D01*
X136242001Y-82631163D02*
X136039970Y-82698507D01*
X136039970Y-82698507D02*
X135703253Y-83035224D01*
X135703253Y-83035224D02*
X135635909Y-83237255D01*
X135635909Y-83237255D02*
X135635909Y-83371942D01*
X135635909Y-83371942D02*
X135703253Y-83573972D01*
X135703253Y-83573972D02*
X135837940Y-83708659D01*
X135837940Y-83708659D02*
X136107314Y-83843346D01*
X136107314Y-83843346D02*
X137723558Y-83843346D01*
X137723558Y-83843346D02*
X136848093Y-84718812D01*
X134558413Y-84180064D02*
X134423726Y-84314751D01*
X134423726Y-84314751D02*
X134356383Y-84516782D01*
X134356383Y-84516782D02*
X134356383Y-84651469D01*
X134356383Y-84651469D02*
X134423726Y-84853499D01*
X134423726Y-84853499D02*
X134625757Y-85190217D01*
X134625757Y-85190217D02*
X134962474Y-85526934D01*
X134962474Y-85526934D02*
X135299192Y-85728965D01*
X135299192Y-85728965D02*
X135501222Y-85796308D01*
X135501222Y-85796308D02*
X135635909Y-85796308D01*
X135635909Y-85796308D02*
X135837940Y-85728965D01*
X135837940Y-85728965D02*
X135972627Y-85594278D01*
X135972627Y-85594278D02*
X136039970Y-85392247D01*
X136039970Y-85392247D02*
X136039970Y-85257560D01*
X136039970Y-85257560D02*
X135972627Y-85055530D01*
X135972627Y-85055530D02*
X135770596Y-84718812D01*
X135770596Y-84718812D02*
X135433879Y-84382095D01*
X135433879Y-84382095D02*
X135097161Y-84180064D01*
X135097161Y-84180064D02*
X134895131Y-84112721D01*
X134895131Y-84112721D02*
X134760444Y-84112721D01*
X134760444Y-84112721D02*
X134558413Y-84180064D01*
X133682948Y-85324904D02*
X133548261Y-85324904D01*
X133548261Y-85324904D02*
X133346230Y-85392247D01*
X133346230Y-85392247D02*
X133009513Y-85728965D01*
X133009513Y-85728965D02*
X132942169Y-85930995D01*
X132942169Y-85930995D02*
X132942169Y-86065682D01*
X132942169Y-86065682D02*
X133009513Y-86267713D01*
X133009513Y-86267713D02*
X133144200Y-86402400D01*
X133144200Y-86402400D02*
X133413574Y-86537087D01*
X133413574Y-86537087D02*
X135029818Y-86537087D01*
X135029818Y-86537087D02*
X134154352Y-87412552D01*
X131999360Y-87681926D02*
X132942169Y-88624735D01*
X131797330Y-86806461D02*
X133144200Y-87479896D01*
X133144200Y-87479896D02*
X132268734Y-88355361D01*
X131662643Y-88826766D02*
X130585146Y-89904262D01*
X130450460Y-90981758D02*
X130383116Y-91183788D01*
X130383116Y-91183788D02*
X130113742Y-91453162D01*
X130113742Y-91453162D02*
X129911712Y-91520506D01*
X129911712Y-91520506D02*
X129709681Y-91453162D01*
X129709681Y-91453162D02*
X129642338Y-91385819D01*
X129642338Y-91385819D02*
X129574994Y-91183788D01*
X129574994Y-91183788D02*
X129642338Y-90981758D01*
X129642338Y-90981758D02*
X129844368Y-90779727D01*
X129844368Y-90779727D02*
X129911712Y-90577697D01*
X129911712Y-90577697D02*
X129844368Y-90375666D01*
X129844368Y-90375666D02*
X129777025Y-90308323D01*
X129777025Y-90308323D02*
X129574994Y-90240979D01*
X129574994Y-90240979D02*
X129372964Y-90308323D01*
X129372964Y-90308323D02*
X129170933Y-90510353D01*
X129170933Y-90510353D02*
X129103590Y-90712384D01*
X127756719Y-91924567D02*
X128699528Y-92867376D01*
X128362811Y-91318475D02*
X129103589Y-92059254D01*
X129103589Y-92059254D02*
X129170933Y-92261284D01*
X129170933Y-92261284D02*
X129103589Y-92463315D01*
X129103589Y-92463315D02*
X128901559Y-92665346D01*
X128901559Y-92665346D02*
X128699528Y-92732689D01*
X128699528Y-92732689D02*
X128564841Y-92732689D01*
X127083284Y-92598002D02*
X128497498Y-94012216D01*
X127150628Y-92665346D02*
X126948597Y-92732689D01*
X126948597Y-92732689D02*
X126679223Y-93002063D01*
X126679223Y-93002063D02*
X126611880Y-93204094D01*
X126611880Y-93204094D02*
X126611880Y-93338781D01*
X126611880Y-93338781D02*
X126679223Y-93540811D01*
X126679223Y-93540811D02*
X127083284Y-93944872D01*
X127083284Y-93944872D02*
X127285315Y-94012216D01*
X127285315Y-94012216D02*
X127420002Y-94012216D01*
X127420002Y-94012216D02*
X127622032Y-93944872D01*
X127622032Y-93944872D02*
X127891406Y-93675498D01*
X127891406Y-93675498D02*
X127958750Y-93473468D01*
X126140475Y-95291742D02*
X126342506Y-95224399D01*
X126342506Y-95224399D02*
X126611880Y-94955025D01*
X126611880Y-94955025D02*
X126679223Y-94752994D01*
X126679223Y-94752994D02*
X126611880Y-94550964D01*
X126611880Y-94550964D02*
X126073132Y-94012216D01*
X126073132Y-94012216D02*
X125871101Y-93944872D01*
X125871101Y-93944872D02*
X125669071Y-94012216D01*
X125669071Y-94012216D02*
X125399697Y-94281590D01*
X125399697Y-94281590D02*
X125332353Y-94483620D01*
X125332353Y-94483620D02*
X125399697Y-94685651D01*
X125399697Y-94685651D02*
X125534384Y-94820338D01*
X125534384Y-94820338D02*
X126342506Y-94281590D01*
X125534383Y-96032521D02*
X124591574Y-95089712D01*
X124860948Y-95359086D02*
X124658918Y-95291743D01*
X124658918Y-95291743D02*
X124524231Y-95291743D01*
X124524231Y-95291743D02*
X124322200Y-95359086D01*
X124322200Y-95359086D02*
X124187513Y-95493773D01*
X123985483Y-97446735D02*
X124187513Y-97379391D01*
X124187513Y-97379391D02*
X124456887Y-97110017D01*
X124456887Y-97110017D02*
X124524231Y-96907987D01*
X124524231Y-96907987D02*
X124524231Y-96773299D01*
X124524231Y-96773299D02*
X124456887Y-96571269D01*
X124456887Y-96571269D02*
X124052826Y-96167208D01*
X124052826Y-96167208D02*
X123850796Y-96099864D01*
X123850796Y-96099864D02*
X123716109Y-96099864D01*
X123716109Y-96099864D02*
X123514078Y-96167208D01*
X123514078Y-96167208D02*
X123244704Y-96436582D01*
X123244704Y-96436582D02*
X123177361Y-96638612D01*
X123244704Y-98322200D02*
X123312048Y-98120170D01*
X123312048Y-98120170D02*
X123312048Y-97985483D01*
X123312048Y-97985483D02*
X123244704Y-97783452D01*
X123244704Y-97783452D02*
X122840643Y-97379391D01*
X122840643Y-97379391D02*
X122638613Y-97312048D01*
X122638613Y-97312048D02*
X122503926Y-97312048D01*
X122503926Y-97312048D02*
X122301895Y-97379391D01*
X122301895Y-97379391D02*
X122099865Y-97581422D01*
X122099865Y-97581422D02*
X122032521Y-97783452D01*
X122032521Y-97783452D02*
X122032521Y-97918139D01*
X122032521Y-97918139D02*
X122099865Y-98120170D01*
X122099865Y-98120170D02*
X122503926Y-98524231D01*
X122503926Y-98524231D02*
X122705956Y-98591574D01*
X122705956Y-98591574D02*
X122840643Y-98591574D01*
X122840643Y-98591574D02*
X123042674Y-98524231D01*
X123042674Y-98524231D02*
X123244704Y-98322200D01*
X121224399Y-98456887D02*
X122167208Y-99399696D01*
X121359086Y-98591574D02*
X121224399Y-98591574D01*
X121224399Y-98591574D02*
X121022368Y-98658918D01*
X121022368Y-98658918D02*
X120820338Y-98860948D01*
X120820338Y-98860948D02*
X120752994Y-99062979D01*
X120752994Y-99062979D02*
X120820338Y-99265009D01*
X120820338Y-99265009D02*
X121561117Y-100005788D01*
X120348933Y-100140475D02*
X119271437Y-101217971D01*
X119136751Y-102295467D02*
X119069407Y-102497497D01*
X119069407Y-102497497D02*
X118800033Y-102766871D01*
X118800033Y-102766871D02*
X118598003Y-102834215D01*
X118598003Y-102834215D02*
X118395972Y-102766871D01*
X118395972Y-102766871D02*
X118328629Y-102699528D01*
X118328629Y-102699528D02*
X118261285Y-102497497D01*
X118261285Y-102497497D02*
X118328629Y-102295467D01*
X118328629Y-102295467D02*
X118530659Y-102093436D01*
X118530659Y-102093436D02*
X118598003Y-101891406D01*
X118598003Y-101891406D02*
X118530659Y-101689375D01*
X118530659Y-101689375D02*
X118463316Y-101622032D01*
X118463316Y-101622032D02*
X118261285Y-101554688D01*
X118261285Y-101554688D02*
X118059255Y-101622032D01*
X118059255Y-101622032D02*
X117857224Y-101824062D01*
X117857224Y-101824062D02*
X117789881Y-102026093D01*
X117991911Y-103574994D02*
X117049102Y-102632185D01*
X116577697Y-102160780D02*
X116712384Y-102160780D01*
X116712384Y-102160780D02*
X116712384Y-102295467D01*
X116712384Y-102295467D02*
X116577697Y-102295467D01*
X116577697Y-102295467D02*
X116577697Y-102160780D01*
X116577697Y-102160780D02*
X116712384Y-102295467D01*
X115769575Y-103911711D02*
X116914415Y-105056551D01*
X116914415Y-105056551D02*
X117116445Y-105123894D01*
X117116445Y-105123894D02*
X117251132Y-105123894D01*
X117251132Y-105123894D02*
X117453163Y-105056551D01*
X117453163Y-105056551D02*
X117655193Y-104854520D01*
X117655193Y-104854520D02*
X117722537Y-104652490D01*
X116645041Y-104787177D02*
X116847071Y-104719833D01*
X116847071Y-104719833D02*
X117116445Y-104450459D01*
X117116445Y-104450459D02*
X117183789Y-104248429D01*
X117183789Y-104248429D02*
X117183789Y-104113742D01*
X117183789Y-104113742D02*
X117116445Y-103911711D01*
X117116445Y-103911711D02*
X116712384Y-103507650D01*
X116712384Y-103507650D02*
X116510354Y-103440307D01*
X116510354Y-103440307D02*
X116375667Y-103440307D01*
X116375667Y-103440307D02*
X116173636Y-103507650D01*
X116173636Y-103507650D02*
X115904262Y-103777024D01*
X115904262Y-103777024D02*
X115836919Y-103979055D01*
X115096140Y-104585146D02*
X116038949Y-105527955D01*
X115230827Y-104719833D02*
X115096140Y-104719833D01*
X115096140Y-104719833D02*
X114894109Y-104787177D01*
X114894109Y-104787177D02*
X114692079Y-104989207D01*
X114692079Y-104989207D02*
X114624735Y-105191238D01*
X114624735Y-105191238D02*
X114692079Y-105393268D01*
X114692079Y-105393268D02*
X115432858Y-106134047D01*
X114220674Y-106268734D02*
X113143178Y-107346230D01*
X113008492Y-108423726D02*
X112941148Y-108625756D01*
X112941148Y-108625756D02*
X112671774Y-108895130D01*
X112671774Y-108895130D02*
X112469744Y-108962474D01*
X112469744Y-108962474D02*
X112267713Y-108895130D01*
X112267713Y-108895130D02*
X112200370Y-108827787D01*
X112200370Y-108827787D02*
X112133026Y-108625756D01*
X112133026Y-108625756D02*
X112200370Y-108423726D01*
X112200370Y-108423726D02*
X112402400Y-108221695D01*
X112402400Y-108221695D02*
X112469744Y-108019665D01*
X112469744Y-108019665D02*
X112402400Y-107817634D01*
X112402400Y-107817634D02*
X112335057Y-107750291D01*
X112335057Y-107750291D02*
X112133026Y-107682947D01*
X112133026Y-107682947D02*
X111930996Y-107750291D01*
X111930996Y-107750291D02*
X111728965Y-107952321D01*
X111728965Y-107952321D02*
X111661622Y-108154352D01*
X111257560Y-110309344D02*
X110516782Y-109568566D01*
X110516782Y-109568566D02*
X110449438Y-109366535D01*
X110449438Y-109366535D02*
X110516782Y-109164505D01*
X110516782Y-109164505D02*
X110786156Y-108895131D01*
X110786156Y-108895131D02*
X110988186Y-108827787D01*
X111190217Y-110242001D02*
X111392247Y-110174657D01*
X111392247Y-110174657D02*
X111728965Y-109837940D01*
X111728965Y-109837940D02*
X111796308Y-109635909D01*
X111796308Y-109635909D02*
X111728965Y-109433879D01*
X111728965Y-109433879D02*
X111594278Y-109299192D01*
X111594278Y-109299192D02*
X111392247Y-109231848D01*
X111392247Y-109231848D02*
X111190217Y-109299192D01*
X111190217Y-109299192D02*
X110853499Y-109635909D01*
X110853499Y-109635909D02*
X110651469Y-109703253D01*
X110382095Y-111184810D02*
X110449438Y-110982779D01*
X110449438Y-110982779D02*
X110449438Y-110848092D01*
X110449438Y-110848092D02*
X110382095Y-110646062D01*
X110382095Y-110646062D02*
X109978034Y-110242001D01*
X109978034Y-110242001D02*
X109776003Y-110174657D01*
X109776003Y-110174657D02*
X109641316Y-110174657D01*
X109641316Y-110174657D02*
X109439286Y-110242001D01*
X109439286Y-110242001D02*
X109237255Y-110444031D01*
X109237255Y-110444031D02*
X109169912Y-110646062D01*
X109169912Y-110646062D02*
X109169912Y-110780749D01*
X109169912Y-110780749D02*
X109237255Y-110982779D01*
X109237255Y-110982779D02*
X109641316Y-111386840D01*
X109641316Y-111386840D02*
X109843347Y-111454184D01*
X109843347Y-111454184D02*
X109978034Y-111454184D01*
X109978034Y-111454184D02*
X110180064Y-111386840D01*
X110180064Y-111386840D02*
X110382095Y-111184810D01*
X154580232Y-71540282D02*
X153166019Y-70126069D01*
X153974141Y-72146374D02*
X153233362Y-71405595D01*
X153233362Y-71405595D02*
X153166019Y-71203565D01*
X153166019Y-71203565D02*
X153233362Y-71001534D01*
X153233362Y-71001534D02*
X153435393Y-70799504D01*
X153435393Y-70799504D02*
X153637423Y-70732160D01*
X153637423Y-70732160D02*
X153772110Y-70732160D01*
X152559927Y-71674969D02*
X152021179Y-72213717D01*
X151886492Y-71405595D02*
X153098675Y-72617778D01*
X153098675Y-72617778D02*
X153166019Y-72819809D01*
X153166019Y-72819809D02*
X153098675Y-73021839D01*
X153098675Y-73021839D02*
X152963988Y-73156526D01*
X151751805Y-72483091D02*
X151213057Y-73021839D01*
X151078370Y-72213717D02*
X152290553Y-73425900D01*
X152290553Y-73425900D02*
X152357897Y-73627931D01*
X152357897Y-73627931D02*
X152290553Y-73829961D01*
X152290553Y-73829961D02*
X152155866Y-73964648D01*
X150741653Y-73493244D02*
X152155866Y-74907457D01*
X150808996Y-73560587D02*
X150606966Y-73627931D01*
X150606966Y-73627931D02*
X150337592Y-73897305D01*
X150337592Y-73897305D02*
X150270248Y-74099335D01*
X150270248Y-74099335D02*
X150270248Y-74234022D01*
X150270248Y-74234022D02*
X150337592Y-74436053D01*
X150337592Y-74436053D02*
X150741653Y-74840114D01*
X150741653Y-74840114D02*
X150943683Y-74907457D01*
X150943683Y-74907457D02*
X151078370Y-74907457D01*
X151078370Y-74907457D02*
X151280401Y-74840114D01*
X151280401Y-74840114D02*
X151549775Y-74570740D01*
X151549775Y-74570740D02*
X151617118Y-74368709D01*
X150404935Y-75580892D02*
X150337592Y-75782923D01*
X150337592Y-75782923D02*
X150068218Y-76052297D01*
X150068218Y-76052297D02*
X149866187Y-76119640D01*
X149866187Y-76119640D02*
X149664157Y-76052297D01*
X149664157Y-76052297D02*
X149596813Y-75984953D01*
X149596813Y-75984953D02*
X149529470Y-75782923D01*
X149529470Y-75782923D02*
X149596813Y-75580892D01*
X149596813Y-75580892D02*
X149798844Y-75378862D01*
X149798844Y-75378862D02*
X149866187Y-75176831D01*
X149866187Y-75176831D02*
X149798844Y-74974801D01*
X149798844Y-74974801D02*
X149731500Y-74907457D01*
X149731500Y-74907457D02*
X149529470Y-74840114D01*
X149529470Y-74840114D02*
X149327439Y-74907457D01*
X149327439Y-74907457D02*
X149125408Y-75109488D01*
X149125408Y-75109488D02*
X149058065Y-75311518D01*
X149125408Y-76725732D02*
X149125408Y-76860419D01*
X149125408Y-76860419D02*
X149260095Y-76860419D01*
X149260095Y-76860419D02*
X149260095Y-76725732D01*
X149260095Y-76725732D02*
X149125408Y-76725732D01*
X149125408Y-76725732D02*
X149260095Y-76860419D01*
X148384630Y-75984954D02*
X148384630Y-76119641D01*
X148384630Y-76119641D02*
X148519317Y-76119641D01*
X148519317Y-76119641D02*
X148519317Y-75984954D01*
X148519317Y-75984954D02*
X148384630Y-75984954D01*
X148384630Y-75984954D02*
X148519317Y-76119641D01*
X146094951Y-77062450D02*
X149125408Y-77668541D01*
X144613394Y-78544007D02*
X147643851Y-79150098D01*
X144074646Y-80160251D02*
X145219485Y-81305090D01*
X145219485Y-81305090D02*
X145421516Y-81372434D01*
X145421516Y-81372434D02*
X145556203Y-81372434D01*
X145556203Y-81372434D02*
X145758233Y-81305090D01*
X145758233Y-81305090D02*
X145960264Y-81103060D01*
X145960264Y-81103060D02*
X146027607Y-80901029D01*
X144950111Y-81035716D02*
X145152142Y-80968373D01*
X145152142Y-80968373D02*
X145421516Y-80698999D01*
X145421516Y-80698999D02*
X145488859Y-80496968D01*
X145488859Y-80496968D02*
X145488859Y-80362281D01*
X145488859Y-80362281D02*
X145421516Y-80160251D01*
X145421516Y-80160251D02*
X145017455Y-79756190D01*
X145017455Y-79756190D02*
X144815424Y-79688846D01*
X144815424Y-79688846D02*
X144680737Y-79688846D01*
X144680737Y-79688846D02*
X144478707Y-79756190D01*
X144478707Y-79756190D02*
X144209333Y-80025564D01*
X144209333Y-80025564D02*
X144141989Y-80227594D01*
X144344019Y-81776495D02*
X143401210Y-80833686D01*
X142929806Y-80362281D02*
X143064493Y-80362281D01*
X143064493Y-80362281D02*
X143064493Y-80496968D01*
X143064493Y-80496968D02*
X142929806Y-80496968D01*
X142929806Y-80496968D02*
X142929806Y-80362281D01*
X142929806Y-80362281D02*
X143064493Y-80496968D01*
X142929806Y-81305091D02*
X142391058Y-81843839D01*
X142256371Y-81035717D02*
X143468554Y-82247900D01*
X143468554Y-82247900D02*
X143535897Y-82449930D01*
X143535897Y-82449930D02*
X143468554Y-82651961D01*
X143468554Y-82651961D02*
X143333867Y-82786648D01*
X142862462Y-83258052D02*
X141448249Y-81843838D01*
X142256371Y-83864144D02*
X141515592Y-83123365D01*
X141515592Y-83123365D02*
X141448249Y-82921334D01*
X141448249Y-82921334D02*
X141515592Y-82719304D01*
X141515592Y-82719304D02*
X141717623Y-82517273D01*
X141717623Y-82517273D02*
X141919653Y-82449930D01*
X141919653Y-82449930D02*
X142054340Y-82449930D01*
X140034035Y-84200861D02*
X140976844Y-85143670D01*
X140640127Y-83594770D02*
X141380905Y-84335548D01*
X141380905Y-84335548D02*
X141448249Y-84537579D01*
X141448249Y-84537579D02*
X141380905Y-84739609D01*
X141380905Y-84739609D02*
X141178875Y-84941640D01*
X141178875Y-84941640D02*
X140976844Y-85008983D01*
X140976844Y-85008983D02*
X140842157Y-85008983D01*
X140303409Y-85817105D02*
X138889196Y-84402892D01*
X139427944Y-84941640D02*
X139225913Y-85008983D01*
X139225913Y-85008983D02*
X138956539Y-85278357D01*
X138956539Y-85278357D02*
X138889196Y-85480388D01*
X138889196Y-85480388D02*
X138889196Y-85615075D01*
X138889196Y-85615075D02*
X138956539Y-85817105D01*
X138956539Y-85817105D02*
X139360600Y-86221166D01*
X139360600Y-86221166D02*
X139562631Y-86288510D01*
X139562631Y-86288510D02*
X139697318Y-86288510D01*
X139697318Y-86288510D02*
X139899348Y-86221166D01*
X139899348Y-86221166D02*
X140168722Y-85951792D01*
X140168722Y-85951792D02*
X140236066Y-85749762D01*
X138889195Y-86961945D02*
X138889195Y-87096632D01*
X138889195Y-87096632D02*
X139023882Y-87096632D01*
X139023882Y-87096632D02*
X139023882Y-86961945D01*
X139023882Y-86961945D02*
X138889195Y-86961945D01*
X138889195Y-86961945D02*
X139023882Y-87096632D01*
X137677012Y-88308815D02*
X137879043Y-88241472D01*
X137879043Y-88241472D02*
X138148417Y-87972098D01*
X138148417Y-87972098D02*
X138215760Y-87770067D01*
X138215760Y-87770067D02*
X138215760Y-87635380D01*
X138215760Y-87635380D02*
X138148417Y-87433350D01*
X138148417Y-87433350D02*
X137744356Y-87029289D01*
X137744356Y-87029289D02*
X137542325Y-86961945D01*
X137542325Y-86961945D02*
X137407638Y-86961945D01*
X137407638Y-86961945D02*
X137205608Y-87029289D01*
X137205608Y-87029289D02*
X136936234Y-87298663D01*
X136936234Y-87298663D02*
X136868890Y-87500693D01*
X136936234Y-89184281D02*
X137003577Y-88982250D01*
X137003577Y-88982250D02*
X137003577Y-88847563D01*
X137003577Y-88847563D02*
X136936234Y-88645533D01*
X136936234Y-88645533D02*
X136532173Y-88241472D01*
X136532173Y-88241472D02*
X136330142Y-88174128D01*
X136330142Y-88174128D02*
X136195455Y-88174128D01*
X136195455Y-88174128D02*
X135993425Y-88241472D01*
X135993425Y-88241472D02*
X135791394Y-88443502D01*
X135791394Y-88443502D02*
X135724051Y-88645533D01*
X135724051Y-88645533D02*
X135724051Y-88780220D01*
X135724051Y-88780220D02*
X135791394Y-88982250D01*
X135791394Y-88982250D02*
X136195455Y-89386311D01*
X136195455Y-89386311D02*
X136397486Y-89453655D01*
X136397486Y-89453655D02*
X136532173Y-89453655D01*
X136532173Y-89453655D02*
X136734203Y-89386311D01*
X136734203Y-89386311D02*
X136936234Y-89184281D01*
X135858737Y-90261777D02*
X134915928Y-89318968D01*
X135050615Y-89453655D02*
X134915928Y-89453655D01*
X134915928Y-89453655D02*
X134713898Y-89520999D01*
X134713898Y-89520999D02*
X134511867Y-89723029D01*
X134511867Y-89723029D02*
X134444524Y-89925060D01*
X134444524Y-89925060D02*
X134511867Y-90127090D01*
X134511867Y-90127090D02*
X135252646Y-90867869D01*
X134511867Y-90127090D02*
X134309837Y-90059747D01*
X134309837Y-90059747D02*
X134107806Y-90127090D01*
X134107806Y-90127090D02*
X133905776Y-90329121D01*
X133905776Y-90329121D02*
X133838432Y-90531151D01*
X133838432Y-90531151D02*
X133905776Y-90733182D01*
X133905776Y-90733182D02*
X134646554Y-91473960D01*
X131481409Y-91675991D02*
X134511867Y-92282082D01*
X131279379Y-92012708D02*
X130471257Y-92820830D01*
X132289532Y-93830983D02*
X130875318Y-92416769D01*
X131212035Y-94908479D02*
X131279379Y-94706449D01*
X131279379Y-94706449D02*
X131279379Y-94571762D01*
X131279379Y-94571762D02*
X131212035Y-94369731D01*
X131212035Y-94369731D02*
X130807974Y-93965670D01*
X130807974Y-93965670D02*
X130605944Y-93898327D01*
X130605944Y-93898327D02*
X130471257Y-93898327D01*
X130471257Y-93898327D02*
X130269226Y-93965670D01*
X130269226Y-93965670D02*
X130067196Y-94167701D01*
X130067196Y-94167701D02*
X129999852Y-94369731D01*
X129999852Y-94369731D02*
X129999852Y-94504418D01*
X129999852Y-94504418D02*
X130067196Y-94706449D01*
X130067196Y-94706449D02*
X130471257Y-95110510D01*
X130471257Y-95110510D02*
X130673287Y-95177853D01*
X130673287Y-95177853D02*
X130807974Y-95177853D01*
X130807974Y-95177853D02*
X131010005Y-95110510D01*
X131010005Y-95110510D02*
X131212035Y-94908479D01*
X130134539Y-95985975D02*
X129191730Y-95043166D01*
X129326417Y-95177853D02*
X129191730Y-95177853D01*
X129191730Y-95177853D02*
X128989699Y-95245197D01*
X128989699Y-95245197D02*
X128787669Y-95447227D01*
X128787669Y-95447227D02*
X128720325Y-95649258D01*
X128720325Y-95649258D02*
X128787669Y-95851288D01*
X128787669Y-95851288D02*
X129528447Y-96592067D01*
X128787669Y-95851288D02*
X128585638Y-95783945D01*
X128585638Y-95783945D02*
X128383608Y-95851288D01*
X128383608Y-95851288D02*
X128181577Y-96053319D01*
X128181577Y-96053319D02*
X128114234Y-96255349D01*
X128114234Y-96255349D02*
X128181577Y-96457380D01*
X128181577Y-96457380D02*
X128922356Y-97198159D01*
X128248921Y-97871594D02*
X126834707Y-96457380D01*
X127440799Y-98679716D02*
X127238768Y-97265502D01*
X126026585Y-97265502D02*
X127642829Y-97265502D01*
X126228616Y-99757212D02*
X126430646Y-99689868D01*
X126430646Y-99689868D02*
X126700020Y-99420494D01*
X126700020Y-99420494D02*
X126767364Y-99218464D01*
X126767364Y-99218464D02*
X126700020Y-99016433D01*
X126700020Y-99016433D02*
X126161272Y-98477685D01*
X126161272Y-98477685D02*
X125959242Y-98410342D01*
X125959242Y-98410342D02*
X125757211Y-98477685D01*
X125757211Y-98477685D02*
X125487837Y-98747059D01*
X125487837Y-98747059D02*
X125420494Y-98949090D01*
X125420494Y-98949090D02*
X125487837Y-99151120D01*
X125487837Y-99151120D02*
X125622524Y-99285807D01*
X125622524Y-99285807D02*
X126430646Y-98747059D01*
X125016432Y-101104082D02*
X123602219Y-99689869D01*
X124949089Y-101036739D02*
X125151119Y-100969395D01*
X125151119Y-100969395D02*
X125420493Y-100700021D01*
X125420493Y-100700021D02*
X125487837Y-100497991D01*
X125487837Y-100497991D02*
X125487837Y-100363304D01*
X125487837Y-100363304D02*
X125420493Y-100161273D01*
X125420493Y-100161273D02*
X125016432Y-99757212D01*
X125016432Y-99757212D02*
X124814402Y-99689869D01*
X124814402Y-99689869D02*
X124679715Y-99689869D01*
X124679715Y-99689869D02*
X124477684Y-99757212D01*
X124477684Y-99757212D02*
X124208310Y-100026586D01*
X124208310Y-100026586D02*
X124140967Y-100228617D01*
X123736906Y-102383609D02*
X122322692Y-100969395D01*
X123669562Y-102316265D02*
X123871593Y-102248922D01*
X123871593Y-102248922D02*
X124140967Y-101979548D01*
X124140967Y-101979548D02*
X124208310Y-101777517D01*
X124208310Y-101777517D02*
X124208310Y-101642830D01*
X124208310Y-101642830D02*
X124140967Y-101440800D01*
X124140967Y-101440800D02*
X123736906Y-101036739D01*
X123736906Y-101036739D02*
X123534875Y-100969395D01*
X123534875Y-100969395D02*
X123400188Y-100969395D01*
X123400188Y-100969395D02*
X123198158Y-101036739D01*
X123198158Y-101036739D02*
X122928784Y-101306113D01*
X122928784Y-101306113D02*
X122861440Y-101508143D01*
X123063470Y-103057044D02*
X122120661Y-102114235D01*
X121649257Y-101642830D02*
X121783944Y-101642830D01*
X121783944Y-101642830D02*
X121783944Y-101777517D01*
X121783944Y-101777517D02*
X121649257Y-101777517D01*
X121649257Y-101777517D02*
X121649257Y-101642830D01*
X121649257Y-101642830D02*
X121783944Y-101777517D01*
X121783944Y-104201884D02*
X121985974Y-104134540D01*
X121985974Y-104134540D02*
X122255348Y-103865166D01*
X122255348Y-103865166D02*
X122322692Y-103663136D01*
X122322692Y-103663136D02*
X122255348Y-103461105D01*
X122255348Y-103461105D02*
X121716600Y-102922357D01*
X121716600Y-102922357D02*
X121514570Y-102855014D01*
X121514570Y-102855014D02*
X121312539Y-102922357D01*
X121312539Y-102922357D02*
X121043165Y-103191731D01*
X121043165Y-103191731D02*
X120975822Y-103393762D01*
X120975822Y-103393762D02*
X121043165Y-103595792D01*
X121043165Y-103595792D02*
X121177852Y-103730479D01*
X121177852Y-103730479D02*
X121985974Y-103191731D01*
X118686143Y-104471258D02*
X121716600Y-105077349D01*
X118753486Y-105481410D02*
X120167700Y-106895624D01*
X118820830Y-105548754D02*
X118618799Y-105616097D01*
X118618799Y-105616097D02*
X118349425Y-105885471D01*
X118349425Y-105885471D02*
X118282082Y-106087502D01*
X118282082Y-106087502D02*
X118282082Y-106222189D01*
X118282082Y-106222189D02*
X118349425Y-106424219D01*
X118349425Y-106424219D02*
X118753486Y-106828280D01*
X118753486Y-106828280D02*
X118955517Y-106895624D01*
X118955517Y-106895624D02*
X119090204Y-106895624D01*
X119090204Y-106895624D02*
X119292234Y-106828280D01*
X119292234Y-106828280D02*
X119561608Y-106558906D01*
X119561608Y-106558906D02*
X119628952Y-106356876D01*
X118416768Y-107703746D02*
X117473959Y-106760937D01*
X117743333Y-107030311D02*
X117541303Y-106962967D01*
X117541303Y-106962967D02*
X117406616Y-106962967D01*
X117406616Y-106962967D02*
X117204585Y-107030311D01*
X117204585Y-107030311D02*
X117069898Y-107164998D01*
X116598494Y-107636402D02*
X117810677Y-108848585D01*
X117810677Y-108848585D02*
X118012708Y-108915929D01*
X118012708Y-108915929D02*
X118214738Y-108848585D01*
X118214738Y-108848585D02*
X118282082Y-108781242D01*
X116127090Y-107164998D02*
X116261777Y-107164998D01*
X116261777Y-107164998D02*
X116261777Y-107299685D01*
X116261777Y-107299685D02*
X116127090Y-107299685D01*
X116127090Y-107299685D02*
X116127090Y-107164998D01*
X116127090Y-107164998D02*
X116261777Y-107299685D01*
X116329120Y-108713898D02*
X115251624Y-109791394D01*
X114174128Y-110060768D02*
X115588342Y-111474982D01*
X114241472Y-110128112D02*
X114039441Y-110195455D01*
X114039441Y-110195455D02*
X113770067Y-110464829D01*
X113770067Y-110464829D02*
X113702724Y-110666860D01*
X113702724Y-110666860D02*
X113702724Y-110801547D01*
X113702724Y-110801547D02*
X113770067Y-111003577D01*
X113770067Y-111003577D02*
X114174128Y-111407638D01*
X114174128Y-111407638D02*
X114376159Y-111474982D01*
X114376159Y-111474982D02*
X114510846Y-111474982D01*
X114510846Y-111474982D02*
X114712876Y-111407638D01*
X114712876Y-111407638D02*
X114982250Y-111138264D01*
X114982250Y-111138264D02*
X115049594Y-110936234D01*
X113163976Y-112821852D02*
X113366006Y-112754508D01*
X113366006Y-112754508D02*
X113635380Y-112485134D01*
X113635380Y-112485134D02*
X113702724Y-112283104D01*
X113702724Y-112283104D02*
X113702724Y-112148417D01*
X113702724Y-112148417D02*
X113635380Y-111946386D01*
X113635380Y-111946386D02*
X113231319Y-111542325D01*
X113231319Y-111542325D02*
X113029289Y-111474982D01*
X113029289Y-111474982D02*
X112894602Y-111474982D01*
X112894602Y-111474982D02*
X112692571Y-111542325D01*
X112692571Y-111542325D02*
X112423197Y-111811699D01*
X112423197Y-111811699D02*
X112355854Y-112013730D01*
X112625227Y-113495287D02*
X111211014Y-112081074D01*
X111749762Y-112619822D02*
X111547731Y-112687165D01*
X111547731Y-112687165D02*
X111278357Y-112956539D01*
X111278357Y-112956539D02*
X111211014Y-113158570D01*
X111211014Y-113158570D02*
X111211014Y-113293257D01*
X111211014Y-113293257D02*
X111278357Y-113495287D01*
X111278357Y-113495287D02*
X111682418Y-113899348D01*
X111682418Y-113899348D02*
X111884449Y-113966692D01*
X111884449Y-113966692D02*
X112019136Y-113966692D01*
X112019136Y-113966692D02*
X112221166Y-113899348D01*
X112221166Y-113899348D02*
X112490540Y-113629974D01*
X112490540Y-113629974D02*
X112557884Y-113427944D01*
X110806953Y-114236066D02*
X109729457Y-115313562D01*
X108988678Y-116997149D02*
X109190709Y-116929806D01*
X109190709Y-116929806D02*
X109460083Y-116660432D01*
X109460083Y-116660432D02*
X109527426Y-116458401D01*
X109527426Y-116458401D02*
X109460083Y-116256371D01*
X109460083Y-116256371D02*
X108921335Y-115717623D01*
X108921335Y-115717623D02*
X108719304Y-115650279D01*
X108719304Y-115650279D02*
X108517274Y-115717623D01*
X108517274Y-115717623D02*
X108247900Y-115986997D01*
X108247900Y-115986997D02*
X108180556Y-116189027D01*
X108180556Y-116189027D02*
X108247900Y-116391058D01*
X108247900Y-116391058D02*
X108382587Y-116525745D01*
X108382587Y-116525745D02*
X109190709Y-115986997D01*
X108517274Y-117603241D02*
X106833686Y-117401210D01*
X107574465Y-116660432D02*
X107776495Y-118344019D01*
X106294938Y-117939959D02*
X107709151Y-119354172D01*
X106362281Y-118007302D02*
X106160251Y-118074646D01*
X106160251Y-118074646D02*
X105890877Y-118344020D01*
X105890877Y-118344020D02*
X105823533Y-118546050D01*
X105823533Y-118546050D02*
X105823533Y-118680737D01*
X105823533Y-118680737D02*
X105890877Y-118882768D01*
X105890877Y-118882768D02*
X106294938Y-119286829D01*
X106294938Y-119286829D02*
X106496968Y-119354172D01*
X106496968Y-119354172D02*
X106631655Y-119354172D01*
X106631655Y-119354172D02*
X106833686Y-119286829D01*
X106833686Y-119286829D02*
X107103060Y-119017455D01*
X107103060Y-119017455D02*
X107170403Y-118815424D01*
X105352129Y-120633699D02*
X105554159Y-120566355D01*
X105554159Y-120566355D02*
X105823533Y-120296981D01*
X105823533Y-120296981D02*
X105890877Y-120094951D01*
X105890877Y-120094951D02*
X105823533Y-119892920D01*
X105823533Y-119892920D02*
X105284785Y-119354172D01*
X105284785Y-119354172D02*
X105082755Y-119286829D01*
X105082755Y-119286829D02*
X104880724Y-119354172D01*
X104880724Y-119354172D02*
X104611350Y-119623546D01*
X104611350Y-119623546D02*
X104544007Y-119825577D01*
X104544007Y-119825577D02*
X104611350Y-120027607D01*
X104611350Y-120027607D02*
X104746037Y-120162294D01*
X104746037Y-120162294D02*
X105554159Y-119623546D01*
X104746037Y-121374478D02*
X103803228Y-120431669D01*
X104072602Y-120701043D02*
X103870571Y-120633699D01*
X103870571Y-120633699D02*
X103735884Y-120633699D01*
X103735884Y-120633699D02*
X103533854Y-120701043D01*
X103533854Y-120701043D02*
X103399167Y-120835730D01*
X103870572Y-122249943D02*
X102927762Y-121307134D01*
X102456358Y-120835729D02*
X102591045Y-120835729D01*
X102591045Y-120835729D02*
X102591045Y-120970416D01*
X102591045Y-120970416D02*
X102456358Y-120970416D01*
X102456358Y-120970416D02*
X102456358Y-120835729D01*
X102456358Y-120835729D02*
X102591045Y-120970416D01*
X103197136Y-122923378D02*
X102254327Y-121980569D01*
X102389014Y-122115256D02*
X102254327Y-122115256D01*
X102254327Y-122115256D02*
X102052297Y-122182599D01*
X102052297Y-122182599D02*
X101850266Y-122384630D01*
X101850266Y-122384630D02*
X101782923Y-122586661D01*
X101782923Y-122586661D02*
X101850266Y-122788691D01*
X101850266Y-122788691D02*
X102591045Y-123529470D01*
X101850266Y-122788691D02*
X101648236Y-122721348D01*
X101648236Y-122721348D02*
X101446205Y-122788691D01*
X101446205Y-122788691D02*
X101244175Y-122990722D01*
X101244175Y-122990722D02*
X101176831Y-123192752D01*
X101176831Y-123192752D02*
X101244175Y-123394783D01*
X101244175Y-123394783D02*
X101984953Y-124135561D01*
X100705427Y-125280401D02*
X100907457Y-125213057D01*
X100907457Y-125213057D02*
X101176831Y-124943683D01*
X101176831Y-124943683D02*
X101244175Y-124741653D01*
X101244175Y-124741653D02*
X101176831Y-124539622D01*
X101176831Y-124539622D02*
X100638083Y-124000874D01*
X100638083Y-124000874D02*
X100436053Y-123933531D01*
X100436053Y-123933531D02*
X100234022Y-124000874D01*
X100234022Y-124000874D02*
X99964648Y-124270248D01*
X99964648Y-124270248D02*
X99897305Y-124472279D01*
X99897305Y-124472279D02*
X99964648Y-124674309D01*
X99964648Y-124674309D02*
X100099335Y-124808996D01*
X100099335Y-124808996D02*
X100907457Y-124270248D01*
X99156526Y-125078371D02*
X100099335Y-126021180D01*
X99291213Y-125213058D02*
X99156526Y-125213058D01*
X99156526Y-125213058D02*
X98954495Y-125280401D01*
X98954495Y-125280401D02*
X98752465Y-125482432D01*
X98752465Y-125482432D02*
X98685121Y-125684462D01*
X98685121Y-125684462D02*
X98752465Y-125886493D01*
X98752465Y-125886493D02*
X99493243Y-126627271D01*
X98079030Y-126155867D02*
X97540282Y-126694615D01*
X97405595Y-125886493D02*
X98617778Y-127098676D01*
X98617778Y-127098676D02*
X98685121Y-127300706D01*
X98685121Y-127300706D02*
X98617778Y-127502737D01*
X98617778Y-127502737D02*
X98483091Y-127637424D01*
X98011686Y-127974141D02*
X97944343Y-128176172D01*
X97944343Y-128176172D02*
X97674969Y-128445546D01*
X97674969Y-128445546D02*
X97472938Y-128512889D01*
X97472938Y-128512889D02*
X97270908Y-128445546D01*
X97270908Y-128445546D02*
X97203564Y-128378202D01*
X97203564Y-128378202D02*
X97136221Y-128176172D01*
X97136221Y-128176172D02*
X97203564Y-127974141D01*
X97203564Y-127974141D02*
X97405595Y-127772111D01*
X97405595Y-127772111D02*
X97472938Y-127570080D01*
X97472938Y-127570080D02*
X97405595Y-127368050D01*
X97405595Y-127368050D02*
X97338251Y-127300706D01*
X97338251Y-127300706D02*
X97136221Y-127233363D01*
X97136221Y-127233363D02*
X96934190Y-127300706D01*
X96934190Y-127300706D02*
X96732160Y-127502737D01*
X96732160Y-127502737D02*
X96664816Y-127704767D01*
D11*
X147050057Y-133404761D02*
X147002438Y-133309523D01*
X147002438Y-133309523D02*
X146907200Y-133214285D01*
X146907200Y-133214285D02*
X146764342Y-133071428D01*
X146764342Y-133071428D02*
X146716723Y-132976190D01*
X146716723Y-132976190D02*
X146716723Y-132880952D01*
X146954819Y-132928571D02*
X146907200Y-132833333D01*
X146907200Y-132833333D02*
X146811961Y-132738095D01*
X146811961Y-132738095D02*
X146621485Y-132690476D01*
X146621485Y-132690476D02*
X146288152Y-132690476D01*
X146288152Y-132690476D02*
X146097676Y-132738095D01*
X146097676Y-132738095D02*
X146002438Y-132833333D01*
X146002438Y-132833333D02*
X145954819Y-132928571D01*
X145954819Y-132928571D02*
X145954819Y-133119047D01*
X145954819Y-133119047D02*
X146002438Y-133214285D01*
X146002438Y-133214285D02*
X146097676Y-133309523D01*
X146097676Y-133309523D02*
X146288152Y-133357142D01*
X146288152Y-133357142D02*
X146621485Y-133357142D01*
X146621485Y-133357142D02*
X146811961Y-133309523D01*
X146811961Y-133309523D02*
X146907200Y-133214285D01*
X146907200Y-133214285D02*
X146954819Y-133119047D01*
X146954819Y-133119047D02*
X146954819Y-132928571D01*
X146050057Y-133738095D02*
X146002438Y-133785714D01*
X146002438Y-133785714D02*
X145954819Y-133880952D01*
X145954819Y-133880952D02*
X145954819Y-134119047D01*
X145954819Y-134119047D02*
X146002438Y-134214285D01*
X146002438Y-134214285D02*
X146050057Y-134261904D01*
X146050057Y-134261904D02*
X146145295Y-134309523D01*
X146145295Y-134309523D02*
X146240533Y-134309523D01*
X146240533Y-134309523D02*
X146383390Y-134261904D01*
X146383390Y-134261904D02*
X146954819Y-133690476D01*
X146954819Y-133690476D02*
X146954819Y-134309523D01*
X151550057Y-133342262D02*
X151502438Y-133247024D01*
X151502438Y-133247024D02*
X151407200Y-133151786D01*
X151407200Y-133151786D02*
X151264342Y-133008929D01*
X151264342Y-133008929D02*
X151216723Y-132913691D01*
X151216723Y-132913691D02*
X151216723Y-132818453D01*
X151454819Y-132866072D02*
X151407200Y-132770834D01*
X151407200Y-132770834D02*
X151311961Y-132675596D01*
X151311961Y-132675596D02*
X151121485Y-132627977D01*
X151121485Y-132627977D02*
X150788152Y-132627977D01*
X150788152Y-132627977D02*
X150597676Y-132675596D01*
X150597676Y-132675596D02*
X150502438Y-132770834D01*
X150502438Y-132770834D02*
X150454819Y-132866072D01*
X150454819Y-132866072D02*
X150454819Y-133056548D01*
X150454819Y-133056548D02*
X150502438Y-133151786D01*
X150502438Y-133151786D02*
X150597676Y-133247024D01*
X150597676Y-133247024D02*
X150788152Y-133294643D01*
X150788152Y-133294643D02*
X151121485Y-133294643D01*
X151121485Y-133294643D02*
X151311961Y-133247024D01*
X151311961Y-133247024D02*
X151407200Y-133151786D01*
X151407200Y-133151786D02*
X151454819Y-133056548D01*
X151454819Y-133056548D02*
X151454819Y-132866072D01*
X150454819Y-133627977D02*
X150454819Y-134247024D01*
X150454819Y-134247024D02*
X150835771Y-133913691D01*
X150835771Y-133913691D02*
X150835771Y-134056548D01*
X150835771Y-134056548D02*
X150883390Y-134151786D01*
X150883390Y-134151786D02*
X150931009Y-134199405D01*
X150931009Y-134199405D02*
X151026247Y-134247024D01*
X151026247Y-134247024D02*
X151264342Y-134247024D01*
X151264342Y-134247024D02*
X151359580Y-134199405D01*
X151359580Y-134199405D02*
X151407200Y-134151786D01*
X151407200Y-134151786D02*
X151454819Y-134056548D01*
X151454819Y-134056548D02*
X151454819Y-133770834D01*
X151454819Y-133770834D02*
X151407200Y-133675596D01*
X151407200Y-133675596D02*
X151359580Y-133627977D01*
X121359580Y-134833333D02*
X121407200Y-134785714D01*
X121407200Y-134785714D02*
X121454819Y-134642857D01*
X121454819Y-134642857D02*
X121454819Y-134547619D01*
X121454819Y-134547619D02*
X121407200Y-134404762D01*
X121407200Y-134404762D02*
X121311961Y-134309524D01*
X121311961Y-134309524D02*
X121216723Y-134261905D01*
X121216723Y-134261905D02*
X121026247Y-134214286D01*
X121026247Y-134214286D02*
X120883390Y-134214286D01*
X120883390Y-134214286D02*
X120692914Y-134261905D01*
X120692914Y-134261905D02*
X120597676Y-134309524D01*
X120597676Y-134309524D02*
X120502438Y-134404762D01*
X120502438Y-134404762D02*
X120454819Y-134547619D01*
X120454819Y-134547619D02*
X120454819Y-134642857D01*
X120454819Y-134642857D02*
X120502438Y-134785714D01*
X120502438Y-134785714D02*
X120550057Y-134833333D01*
X121454819Y-135785714D02*
X121454819Y-135214286D01*
X121454819Y-135500000D02*
X120454819Y-135500000D01*
X120454819Y-135500000D02*
X120597676Y-135404762D01*
X120597676Y-135404762D02*
X120692914Y-135309524D01*
X120692914Y-135309524D02*
X120740533Y-135214286D01*
X147142857Y-136954819D02*
X147476190Y-136478628D01*
X147714285Y-136954819D02*
X147714285Y-135954819D01*
X147714285Y-135954819D02*
X147333333Y-135954819D01*
X147333333Y-135954819D02*
X147238095Y-136002438D01*
X147238095Y-136002438D02*
X147190476Y-136050057D01*
X147190476Y-136050057D02*
X147142857Y-136145295D01*
X147142857Y-136145295D02*
X147142857Y-136288152D01*
X147142857Y-136288152D02*
X147190476Y-136383390D01*
X147190476Y-136383390D02*
X147238095Y-136431009D01*
X147238095Y-136431009D02*
X147333333Y-136478628D01*
X147333333Y-136478628D02*
X147714285Y-136478628D01*
X146285714Y-135954819D02*
X146476190Y-135954819D01*
X146476190Y-135954819D02*
X146571428Y-136002438D01*
X146571428Y-136002438D02*
X146619047Y-136050057D01*
X146619047Y-136050057D02*
X146714285Y-136192914D01*
X146714285Y-136192914D02*
X146761904Y-136383390D01*
X146761904Y-136383390D02*
X146761904Y-136764342D01*
X146761904Y-136764342D02*
X146714285Y-136859580D01*
X146714285Y-136859580D02*
X146666666Y-136907200D01*
X146666666Y-136907200D02*
X146571428Y-136954819D01*
X146571428Y-136954819D02*
X146380952Y-136954819D01*
X146380952Y-136954819D02*
X146285714Y-136907200D01*
X146285714Y-136907200D02*
X146238095Y-136859580D01*
X146238095Y-136859580D02*
X146190476Y-136764342D01*
X146190476Y-136764342D02*
X146190476Y-136526247D01*
X146190476Y-136526247D02*
X146238095Y-136431009D01*
X146238095Y-136431009D02*
X146285714Y-136383390D01*
X146285714Y-136383390D02*
X146380952Y-136335771D01*
X146380952Y-136335771D02*
X146571428Y-136335771D01*
X146571428Y-136335771D02*
X146666666Y-136383390D01*
X146666666Y-136383390D02*
X146714285Y-136431009D01*
X146714285Y-136431009D02*
X146761904Y-136526247D01*
X145857142Y-135954819D02*
X145238095Y-135954819D01*
X145238095Y-135954819D02*
X145571428Y-136335771D01*
X145571428Y-136335771D02*
X145428571Y-136335771D01*
X145428571Y-136335771D02*
X145333333Y-136383390D01*
X145333333Y-136383390D02*
X145285714Y-136431009D01*
X145285714Y-136431009D02*
X145238095Y-136526247D01*
X145238095Y-136526247D02*
X145238095Y-136764342D01*
X145238095Y-136764342D02*
X145285714Y-136859580D01*
X145285714Y-136859580D02*
X145333333Y-136907200D01*
X145333333Y-136907200D02*
X145428571Y-136954819D01*
X145428571Y-136954819D02*
X145714285Y-136954819D01*
X145714285Y-136954819D02*
X145809523Y-136907200D01*
X145809523Y-136907200D02*
X145857142Y-136859580D01*
X142392857Y-136954819D02*
X142726190Y-136478628D01*
X142964285Y-136954819D02*
X142964285Y-135954819D01*
X142964285Y-135954819D02*
X142583333Y-135954819D01*
X142583333Y-135954819D02*
X142488095Y-136002438D01*
X142488095Y-136002438D02*
X142440476Y-136050057D01*
X142440476Y-136050057D02*
X142392857Y-136145295D01*
X142392857Y-136145295D02*
X142392857Y-136288152D01*
X142392857Y-136288152D02*
X142440476Y-136383390D01*
X142440476Y-136383390D02*
X142488095Y-136431009D01*
X142488095Y-136431009D02*
X142583333Y-136478628D01*
X142583333Y-136478628D02*
X142964285Y-136478628D01*
X141535714Y-135954819D02*
X141726190Y-135954819D01*
X141726190Y-135954819D02*
X141821428Y-136002438D01*
X141821428Y-136002438D02*
X141869047Y-136050057D01*
X141869047Y-136050057D02*
X141964285Y-136192914D01*
X141964285Y-136192914D02*
X142011904Y-136383390D01*
X142011904Y-136383390D02*
X142011904Y-136764342D01*
X142011904Y-136764342D02*
X141964285Y-136859580D01*
X141964285Y-136859580D02*
X141916666Y-136907200D01*
X141916666Y-136907200D02*
X141821428Y-136954819D01*
X141821428Y-136954819D02*
X141630952Y-136954819D01*
X141630952Y-136954819D02*
X141535714Y-136907200D01*
X141535714Y-136907200D02*
X141488095Y-136859580D01*
X141488095Y-136859580D02*
X141440476Y-136764342D01*
X141440476Y-136764342D02*
X141440476Y-136526247D01*
X141440476Y-136526247D02*
X141488095Y-136431009D01*
X141488095Y-136431009D02*
X141535714Y-136383390D01*
X141535714Y-136383390D02*
X141630952Y-136335771D01*
X141630952Y-136335771D02*
X141821428Y-136335771D01*
X141821428Y-136335771D02*
X141916666Y-136383390D01*
X141916666Y-136383390D02*
X141964285Y-136431009D01*
X141964285Y-136431009D02*
X142011904Y-136526247D01*
X141059523Y-136050057D02*
X141011904Y-136002438D01*
X141011904Y-136002438D02*
X140916666Y-135954819D01*
X140916666Y-135954819D02*
X140678571Y-135954819D01*
X140678571Y-135954819D02*
X140583333Y-136002438D01*
X140583333Y-136002438D02*
X140535714Y-136050057D01*
X140535714Y-136050057D02*
X140488095Y-136145295D01*
X140488095Y-136145295D02*
X140488095Y-136240533D01*
X140488095Y-136240533D02*
X140535714Y-136383390D01*
X140535714Y-136383390D02*
X141107142Y-136954819D01*
X141107142Y-136954819D02*
X140488095Y-136954819D01*
X112704819Y-134107142D02*
X112228628Y-133773809D01*
X112704819Y-133535714D02*
X111704819Y-133535714D01*
X111704819Y-133535714D02*
X111704819Y-133916666D01*
X111704819Y-133916666D02*
X111752438Y-134011904D01*
X111752438Y-134011904D02*
X111800057Y-134059523D01*
X111800057Y-134059523D02*
X111895295Y-134107142D01*
X111895295Y-134107142D02*
X112038152Y-134107142D01*
X112038152Y-134107142D02*
X112133390Y-134059523D01*
X112133390Y-134059523D02*
X112181009Y-134011904D01*
X112181009Y-134011904D02*
X112228628Y-133916666D01*
X112228628Y-133916666D02*
X112228628Y-133535714D01*
X111704819Y-134964285D02*
X111704819Y-134773809D01*
X111704819Y-134773809D02*
X111752438Y-134678571D01*
X111752438Y-134678571D02*
X111800057Y-134630952D01*
X111800057Y-134630952D02*
X111942914Y-134535714D01*
X111942914Y-134535714D02*
X112133390Y-134488095D01*
X112133390Y-134488095D02*
X112514342Y-134488095D01*
X112514342Y-134488095D02*
X112609580Y-134535714D01*
X112609580Y-134535714D02*
X112657200Y-134583333D01*
X112657200Y-134583333D02*
X112704819Y-134678571D01*
X112704819Y-134678571D02*
X112704819Y-134869047D01*
X112704819Y-134869047D02*
X112657200Y-134964285D01*
X112657200Y-134964285D02*
X112609580Y-135011904D01*
X112609580Y-135011904D02*
X112514342Y-135059523D01*
X112514342Y-135059523D02*
X112276247Y-135059523D01*
X112276247Y-135059523D02*
X112181009Y-135011904D01*
X112181009Y-135011904D02*
X112133390Y-134964285D01*
X112133390Y-134964285D02*
X112085771Y-134869047D01*
X112085771Y-134869047D02*
X112085771Y-134678571D01*
X112085771Y-134678571D02*
X112133390Y-134583333D01*
X112133390Y-134583333D02*
X112181009Y-134535714D01*
X112181009Y-134535714D02*
X112276247Y-134488095D01*
X112704819Y-136011904D02*
X112704819Y-135440476D01*
X112704819Y-135726190D02*
X111704819Y-135726190D01*
X111704819Y-135726190D02*
X111847676Y-135630952D01*
X111847676Y-135630952D02*
X111942914Y-135535714D01*
X111942914Y-135535714D02*
X111990533Y-135440476D01*
X142300057Y-133342261D02*
X142252438Y-133247023D01*
X142252438Y-133247023D02*
X142157200Y-133151785D01*
X142157200Y-133151785D02*
X142014342Y-133008928D01*
X142014342Y-133008928D02*
X141966723Y-132913690D01*
X141966723Y-132913690D02*
X141966723Y-132818452D01*
X142204819Y-132866071D02*
X142157200Y-132770833D01*
X142157200Y-132770833D02*
X142061961Y-132675595D01*
X142061961Y-132675595D02*
X141871485Y-132627976D01*
X141871485Y-132627976D02*
X141538152Y-132627976D01*
X141538152Y-132627976D02*
X141347676Y-132675595D01*
X141347676Y-132675595D02*
X141252438Y-132770833D01*
X141252438Y-132770833D02*
X141204819Y-132866071D01*
X141204819Y-132866071D02*
X141204819Y-133056547D01*
X141204819Y-133056547D02*
X141252438Y-133151785D01*
X141252438Y-133151785D02*
X141347676Y-133247023D01*
X141347676Y-133247023D02*
X141538152Y-133294642D01*
X141538152Y-133294642D02*
X141871485Y-133294642D01*
X141871485Y-133294642D02*
X142061961Y-133247023D01*
X142061961Y-133247023D02*
X142157200Y-133151785D01*
X142157200Y-133151785D02*
X142204819Y-133056547D01*
X142204819Y-133056547D02*
X142204819Y-132866071D01*
X142204819Y-134247023D02*
X142204819Y-133675595D01*
X142204819Y-133961309D02*
X141204819Y-133961309D01*
X141204819Y-133961309D02*
X141347676Y-133866071D01*
X141347676Y-133866071D02*
X141442914Y-133770833D01*
X141442914Y-133770833D02*
X141490533Y-133675595D01*
X151642857Y-136954819D02*
X151976190Y-136478628D01*
X152214285Y-136954819D02*
X152214285Y-135954819D01*
X152214285Y-135954819D02*
X151833333Y-135954819D01*
X151833333Y-135954819D02*
X151738095Y-136002438D01*
X151738095Y-136002438D02*
X151690476Y-136050057D01*
X151690476Y-136050057D02*
X151642857Y-136145295D01*
X151642857Y-136145295D02*
X151642857Y-136288152D01*
X151642857Y-136288152D02*
X151690476Y-136383390D01*
X151690476Y-136383390D02*
X151738095Y-136431009D01*
X151738095Y-136431009D02*
X151833333Y-136478628D01*
X151833333Y-136478628D02*
X152214285Y-136478628D01*
X150785714Y-135954819D02*
X150976190Y-135954819D01*
X150976190Y-135954819D02*
X151071428Y-136002438D01*
X151071428Y-136002438D02*
X151119047Y-136050057D01*
X151119047Y-136050057D02*
X151214285Y-136192914D01*
X151214285Y-136192914D02*
X151261904Y-136383390D01*
X151261904Y-136383390D02*
X151261904Y-136764342D01*
X151261904Y-136764342D02*
X151214285Y-136859580D01*
X151214285Y-136859580D02*
X151166666Y-136907200D01*
X151166666Y-136907200D02*
X151071428Y-136954819D01*
X151071428Y-136954819D02*
X150880952Y-136954819D01*
X150880952Y-136954819D02*
X150785714Y-136907200D01*
X150785714Y-136907200D02*
X150738095Y-136859580D01*
X150738095Y-136859580D02*
X150690476Y-136764342D01*
X150690476Y-136764342D02*
X150690476Y-136526247D01*
X150690476Y-136526247D02*
X150738095Y-136431009D01*
X150738095Y-136431009D02*
X150785714Y-136383390D01*
X150785714Y-136383390D02*
X150880952Y-136335771D01*
X150880952Y-136335771D02*
X151071428Y-136335771D01*
X151071428Y-136335771D02*
X151166666Y-136383390D01*
X151166666Y-136383390D02*
X151214285Y-136431009D01*
X151214285Y-136431009D02*
X151261904Y-136526247D01*
X149833333Y-136288152D02*
X149833333Y-136954819D01*
X150071428Y-135907200D02*
X150309523Y-136621485D01*
X150309523Y-136621485D02*
X149690476Y-136621485D01*
X110454819Y-133261905D02*
X109454819Y-133261905D01*
X109454819Y-133261905D02*
X109454819Y-133642857D01*
X109454819Y-133642857D02*
X109502438Y-133738095D01*
X109502438Y-133738095D02*
X109550057Y-133785714D01*
X109550057Y-133785714D02*
X109645295Y-133833333D01*
X109645295Y-133833333D02*
X109788152Y-133833333D01*
X109788152Y-133833333D02*
X109883390Y-133785714D01*
X109883390Y-133785714D02*
X109931009Y-133738095D01*
X109931009Y-133738095D02*
X109978628Y-133642857D01*
X109978628Y-133642857D02*
X109978628Y-133261905D01*
X110454819Y-134261905D02*
X109454819Y-134261905D01*
X109454819Y-134261905D02*
X109454819Y-134500000D01*
X109454819Y-134500000D02*
X109502438Y-134642857D01*
X109502438Y-134642857D02*
X109597676Y-134738095D01*
X109597676Y-134738095D02*
X109692914Y-134785714D01*
X109692914Y-134785714D02*
X109883390Y-134833333D01*
X109883390Y-134833333D02*
X110026247Y-134833333D01*
X110026247Y-134833333D02*
X110216723Y-134785714D01*
X110216723Y-134785714D02*
X110311961Y-134738095D01*
X110311961Y-134738095D02*
X110407200Y-134642857D01*
X110407200Y-134642857D02*
X110454819Y-134500000D01*
X110454819Y-134500000D02*
X110454819Y-134261905D01*
X109454819Y-135738095D02*
X109454819Y-135261905D01*
X109454819Y-135261905D02*
X109931009Y-135214286D01*
X109931009Y-135214286D02*
X109883390Y-135261905D01*
X109883390Y-135261905D02*
X109835771Y-135357143D01*
X109835771Y-135357143D02*
X109835771Y-135595238D01*
X109835771Y-135595238D02*
X109883390Y-135690476D01*
X109883390Y-135690476D02*
X109931009Y-135738095D01*
X109931009Y-135738095D02*
X110026247Y-135785714D01*
X110026247Y-135785714D02*
X110264342Y-135785714D01*
X110264342Y-135785714D02*
X110359580Y-135738095D01*
X110359580Y-135738095D02*
X110407200Y-135690476D01*
X110407200Y-135690476D02*
X110454819Y-135595238D01*
X110454819Y-135595238D02*
X110454819Y-135357143D01*
X110454819Y-135357143D02*
X110407200Y-135261905D01*
X110407200Y-135261905D02*
X110359580Y-135214286D01*
X121359580Y-136833333D02*
X121407200Y-136785714D01*
X121407200Y-136785714D02*
X121454819Y-136642857D01*
X121454819Y-136642857D02*
X121454819Y-136547619D01*
X121454819Y-136547619D02*
X121407200Y-136404762D01*
X121407200Y-136404762D02*
X121311961Y-136309524D01*
X121311961Y-136309524D02*
X121216723Y-136261905D01*
X121216723Y-136261905D02*
X121026247Y-136214286D01*
X121026247Y-136214286D02*
X120883390Y-136214286D01*
X120883390Y-136214286D02*
X120692914Y-136261905D01*
X120692914Y-136261905D02*
X120597676Y-136309524D01*
X120597676Y-136309524D02*
X120502438Y-136404762D01*
X120502438Y-136404762D02*
X120454819Y-136547619D01*
X120454819Y-136547619D02*
X120454819Y-136642857D01*
X120454819Y-136642857D02*
X120502438Y-136785714D01*
X120502438Y-136785714D02*
X120550057Y-136833333D01*
X120550057Y-137214286D02*
X120502438Y-137261905D01*
X120502438Y-137261905D02*
X120454819Y-137357143D01*
X120454819Y-137357143D02*
X120454819Y-137595238D01*
X120454819Y-137595238D02*
X120502438Y-137690476D01*
X120502438Y-137690476D02*
X120550057Y-137738095D01*
X120550057Y-137738095D02*
X120645295Y-137785714D01*
X120645295Y-137785714D02*
X120740533Y-137785714D01*
X120740533Y-137785714D02*
X120883390Y-137738095D01*
X120883390Y-137738095D02*
X121454819Y-137166667D01*
X121454819Y-137166667D02*
X121454819Y-137785714D01*
X103954819Y-130166666D02*
X104669104Y-130166666D01*
X104669104Y-130166666D02*
X104811961Y-130119047D01*
X104811961Y-130119047D02*
X104907200Y-130023809D01*
X104907200Y-130023809D02*
X104954819Y-129880952D01*
X104954819Y-129880952D02*
X104954819Y-129785714D01*
X104954819Y-130642857D02*
X103954819Y-130642857D01*
X103954819Y-130642857D02*
X103954819Y-131023809D01*
X103954819Y-131023809D02*
X104002438Y-131119047D01*
X104002438Y-131119047D02*
X104050057Y-131166666D01*
X104050057Y-131166666D02*
X104145295Y-131214285D01*
X104145295Y-131214285D02*
X104288152Y-131214285D01*
X104288152Y-131214285D02*
X104383390Y-131166666D01*
X104383390Y-131166666D02*
X104431009Y-131119047D01*
X104431009Y-131119047D02*
X104478628Y-131023809D01*
X104478628Y-131023809D02*
X104478628Y-130642857D01*
X103954819Y-131547619D02*
X103954819Y-132166666D01*
X103954819Y-132166666D02*
X104335771Y-131833333D01*
X104335771Y-131833333D02*
X104335771Y-131976190D01*
X104335771Y-131976190D02*
X104383390Y-132071428D01*
X104383390Y-132071428D02*
X104431009Y-132119047D01*
X104431009Y-132119047D02*
X104526247Y-132166666D01*
X104526247Y-132166666D02*
X104764342Y-132166666D01*
X104764342Y-132166666D02*
X104859580Y-132119047D01*
X104859580Y-132119047D02*
X104907200Y-132071428D01*
X104907200Y-132071428D02*
X104954819Y-131976190D01*
X104954819Y-131976190D02*
X104954819Y-131690476D01*
X104954819Y-131690476D02*
X104907200Y-131595238D01*
X104907200Y-131595238D02*
X104859580Y-131547619D01*
X107954819Y-130761905D02*
X106954819Y-130761905D01*
X106954819Y-130761905D02*
X106954819Y-131142857D01*
X106954819Y-131142857D02*
X107002438Y-131238095D01*
X107002438Y-131238095D02*
X107050057Y-131285714D01*
X107050057Y-131285714D02*
X107145295Y-131333333D01*
X107145295Y-131333333D02*
X107288152Y-131333333D01*
X107288152Y-131333333D02*
X107383390Y-131285714D01*
X107383390Y-131285714D02*
X107431009Y-131238095D01*
X107431009Y-131238095D02*
X107478628Y-131142857D01*
X107478628Y-131142857D02*
X107478628Y-130761905D01*
X107954819Y-131761905D02*
X106954819Y-131761905D01*
X106954819Y-131761905D02*
X106954819Y-132000000D01*
X106954819Y-132000000D02*
X107002438Y-132142857D01*
X107002438Y-132142857D02*
X107097676Y-132238095D01*
X107097676Y-132238095D02*
X107192914Y-132285714D01*
X107192914Y-132285714D02*
X107383390Y-132333333D01*
X107383390Y-132333333D02*
X107526247Y-132333333D01*
X107526247Y-132333333D02*
X107716723Y-132285714D01*
X107716723Y-132285714D02*
X107811961Y-132238095D01*
X107811961Y-132238095D02*
X107907200Y-132142857D01*
X107907200Y-132142857D02*
X107954819Y-132000000D01*
X107954819Y-132000000D02*
X107954819Y-131761905D01*
X106954819Y-133190476D02*
X106954819Y-133000000D01*
X106954819Y-133000000D02*
X107002438Y-132904762D01*
X107002438Y-132904762D02*
X107050057Y-132857143D01*
X107050057Y-132857143D02*
X107192914Y-132761905D01*
X107192914Y-132761905D02*
X107383390Y-132714286D01*
X107383390Y-132714286D02*
X107764342Y-132714286D01*
X107764342Y-132714286D02*
X107859580Y-132761905D01*
X107859580Y-132761905D02*
X107907200Y-132809524D01*
X107907200Y-132809524D02*
X107954819Y-132904762D01*
X107954819Y-132904762D02*
X107954819Y-133095238D01*
X107954819Y-133095238D02*
X107907200Y-133190476D01*
X107907200Y-133190476D02*
X107859580Y-133238095D01*
X107859580Y-133238095D02*
X107764342Y-133285714D01*
X107764342Y-133285714D02*
X107526247Y-133285714D01*
X107526247Y-133285714D02*
X107431009Y-133238095D01*
X107431009Y-133238095D02*
X107383390Y-133190476D01*
X107383390Y-133190476D02*
X107335771Y-133095238D01*
X107335771Y-133095238D02*
X107335771Y-132904762D01*
X107335771Y-132904762D02*
X107383390Y-132809524D01*
X107383390Y-132809524D02*
X107431009Y-132761905D01*
X107431009Y-132761905D02*
X107526247Y-132714286D01*
X112642856Y-139954819D02*
X112642856Y-138954819D01*
X112642856Y-138954819D02*
X112071428Y-139954819D01*
X112071428Y-139954819D02*
X112071428Y-138954819D01*
X111023809Y-139954819D02*
X111357142Y-139478628D01*
X111595237Y-139954819D02*
X111595237Y-138954819D01*
X111595237Y-138954819D02*
X111214285Y-138954819D01*
X111214285Y-138954819D02*
X111119047Y-139002438D01*
X111119047Y-139002438D02*
X111071428Y-139050057D01*
X111071428Y-139050057D02*
X111023809Y-139145295D01*
X111023809Y-139145295D02*
X111023809Y-139288152D01*
X111023809Y-139288152D02*
X111071428Y-139383390D01*
X111071428Y-139383390D02*
X111119047Y-139431009D01*
X111119047Y-139431009D02*
X111214285Y-139478628D01*
X111214285Y-139478628D02*
X111595237Y-139478628D01*
X110642856Y-139907200D02*
X110499999Y-139954819D01*
X110499999Y-139954819D02*
X110261904Y-139954819D01*
X110261904Y-139954819D02*
X110166666Y-139907200D01*
X110166666Y-139907200D02*
X110119047Y-139859580D01*
X110119047Y-139859580D02*
X110071428Y-139764342D01*
X110071428Y-139764342D02*
X110071428Y-139669104D01*
X110071428Y-139669104D02*
X110119047Y-139573866D01*
X110119047Y-139573866D02*
X110166666Y-139526247D01*
X110166666Y-139526247D02*
X110261904Y-139478628D01*
X110261904Y-139478628D02*
X110452380Y-139431009D01*
X110452380Y-139431009D02*
X110547618Y-139383390D01*
X110547618Y-139383390D02*
X110595237Y-139335771D01*
X110595237Y-139335771D02*
X110642856Y-139240533D01*
X110642856Y-139240533D02*
X110642856Y-139145295D01*
X110642856Y-139145295D02*
X110595237Y-139050057D01*
X110595237Y-139050057D02*
X110547618Y-139002438D01*
X110547618Y-139002438D02*
X110452380Y-138954819D01*
X110452380Y-138954819D02*
X110214285Y-138954819D01*
X110214285Y-138954819D02*
X110071428Y-139002438D01*
X109785713Y-138954819D02*
X109214285Y-138954819D01*
X109499999Y-139954819D02*
X109499999Y-138954819D01*
X112780952Y-138677200D02*
X109219047Y-138677200D01*
X130309819Y-134671666D02*
X131024104Y-134671666D01*
X131024104Y-134671666D02*
X131166961Y-134624047D01*
X131166961Y-134624047D02*
X131262200Y-134528809D01*
X131262200Y-134528809D02*
X131309819Y-134385952D01*
X131309819Y-134385952D02*
X131309819Y-134290714D01*
X131309819Y-135671666D02*
X131309819Y-135100238D01*
X131309819Y-135385952D02*
X130309819Y-135385952D01*
X130309819Y-135385952D02*
X130452676Y-135290714D01*
X130452676Y-135290714D02*
X130547914Y-135195476D01*
X130547914Y-135195476D02*
X130595533Y-135100238D01*
X98454819Y-130166666D02*
X99169104Y-130166666D01*
X99169104Y-130166666D02*
X99311961Y-130119047D01*
X99311961Y-130119047D02*
X99407200Y-130023809D01*
X99407200Y-130023809D02*
X99454819Y-129880952D01*
X99454819Y-129880952D02*
X99454819Y-129785714D01*
X99454819Y-130642857D02*
X98454819Y-130642857D01*
X98454819Y-130642857D02*
X98454819Y-131023809D01*
X98454819Y-131023809D02*
X98502438Y-131119047D01*
X98502438Y-131119047D02*
X98550057Y-131166666D01*
X98550057Y-131166666D02*
X98645295Y-131214285D01*
X98645295Y-131214285D02*
X98788152Y-131214285D01*
X98788152Y-131214285D02*
X98883390Y-131166666D01*
X98883390Y-131166666D02*
X98931009Y-131119047D01*
X98931009Y-131119047D02*
X98978628Y-131023809D01*
X98978628Y-131023809D02*
X98978628Y-130642857D01*
X99454819Y-132166666D02*
X99454819Y-131595238D01*
X99454819Y-131880952D02*
X98454819Y-131880952D01*
X98454819Y-131880952D02*
X98597676Y-131785714D01*
X98597676Y-131785714D02*
X98692914Y-131690476D01*
X98692914Y-131690476D02*
X98740533Y-131595238D01*
X101454819Y-130166666D02*
X102169104Y-130166666D01*
X102169104Y-130166666D02*
X102311961Y-130119047D01*
X102311961Y-130119047D02*
X102407200Y-130023809D01*
X102407200Y-130023809D02*
X102454819Y-129880952D01*
X102454819Y-129880952D02*
X102454819Y-129785714D01*
X102454819Y-130642857D02*
X101454819Y-130642857D01*
X101454819Y-130642857D02*
X101454819Y-131023809D01*
X101454819Y-131023809D02*
X101502438Y-131119047D01*
X101502438Y-131119047D02*
X101550057Y-131166666D01*
X101550057Y-131166666D02*
X101645295Y-131214285D01*
X101645295Y-131214285D02*
X101788152Y-131214285D01*
X101788152Y-131214285D02*
X101883390Y-131166666D01*
X101883390Y-131166666D02*
X101931009Y-131119047D01*
X101931009Y-131119047D02*
X101978628Y-131023809D01*
X101978628Y-131023809D02*
X101978628Y-130642857D01*
X101550057Y-131595238D02*
X101502438Y-131642857D01*
X101502438Y-131642857D02*
X101454819Y-131738095D01*
X101454819Y-131738095D02*
X101454819Y-131976190D01*
X101454819Y-131976190D02*
X101502438Y-132071428D01*
X101502438Y-132071428D02*
X101550057Y-132119047D01*
X101550057Y-132119047D02*
X101645295Y-132166666D01*
X101645295Y-132166666D02*
X101740533Y-132166666D01*
X101740533Y-132166666D02*
X101883390Y-132119047D01*
X101883390Y-132119047D02*
X102454819Y-131547619D01*
X102454819Y-131547619D02*
X102454819Y-132166666D01*
D12*
G04 #@! TO.C,JP3*
X103500000Y-135900000D02*
X103500000Y-133100000D01*
X104200000Y-132450000D02*
X104800000Y-132450000D01*
X104800000Y-136550000D02*
X104200000Y-136550000D01*
X105500000Y-133100000D02*
X105500000Y-135900000D01*
X106000000Y-133000000D02*
X105700000Y-133300000D01*
X106000000Y-133600000D02*
X105700000Y-133300000D01*
X106000000Y-133600000D02*
X106000000Y-133000000D01*
X103500000Y-133150000D02*
G75*
G02*
X104200000Y-132450000I699999J1D01*
G01*
X104200000Y-136550000D02*
G75*
G02*
X103500000Y-135850000I0J700000D01*
G01*
X104800000Y-132450000D02*
G75*
G02*
X105500000Y-133150000I1J-699999D01*
G01*
X105500000Y-135850000D02*
G75*
G02*
X104800000Y-136550000I-700000J0D01*
G01*
G04 #@! TO.C,PD6*
X108700000Y-135000000D02*
G75*
G02*
X106300000Y-135000000I-1200000J0D01*
G01*
X106300000Y-135000000D02*
G75*
G02*
X108700000Y-135000000I1200000J0D01*
G01*
G04 #@! TO.C,~{NRST}*
X112450000Y-137250000D02*
G75*
G02*
X110050000Y-137250000I-1200000J0D01*
G01*
X110050000Y-137250000D02*
G75*
G02*
X112450000Y-137250000I1200000J0D01*
G01*
G04 #@! TO.C,J1*
X122115000Y-132405000D02*
X122115001Y-137605000D01*
X122115000Y-132405000D02*
X129855000Y-132405000D01*
X122115001Y-137605000D02*
X127254999Y-137605000D01*
X127255000Y-135005000D02*
X127254999Y-137605000D01*
X129855000Y-132405000D02*
X129855000Y-135004999D01*
X129855000Y-135004999D02*
X127255000Y-135005000D01*
X129855000Y-136275000D02*
X129855000Y-137605000D01*
X129855000Y-137605000D02*
X128525000Y-137605000D01*
G04 #@! TO.C,JP1*
X98000000Y-135900000D02*
X98000000Y-133100000D01*
X98700000Y-132450000D02*
X99300000Y-132450000D01*
X99300000Y-136550000D02*
X98700000Y-136550000D01*
X100000000Y-133100000D02*
X100000000Y-135900000D01*
X100500000Y-133000000D02*
X100200000Y-133300000D01*
X100500000Y-133600000D02*
X100200000Y-133300000D01*
X100500000Y-133600000D02*
X100500000Y-133000000D01*
X98000000Y-133150000D02*
G75*
G02*
X98700000Y-132450000I699999J1D01*
G01*
X98700000Y-136550000D02*
G75*
G02*
X98000000Y-135850000I0J700000D01*
G01*
X99300000Y-132450000D02*
G75*
G02*
X100000000Y-133150000I1J-699999D01*
G01*
X100000000Y-135850000D02*
G75*
G02*
X99300000Y-136550000I-700000J0D01*
G01*
G04 #@! TO.C,JP2*
X100750000Y-135900000D02*
X100750000Y-133100000D01*
X101450000Y-132450000D02*
X102050000Y-132450000D01*
X102050000Y-136550000D02*
X101450000Y-136550000D01*
X102750000Y-133100000D02*
X102750000Y-135900000D01*
X103250000Y-133000000D02*
X102950000Y-133300000D01*
X103250000Y-133600000D02*
X102950000Y-133300000D01*
X103250000Y-133600000D02*
X103250000Y-133000000D01*
X100750000Y-133150000D02*
G75*
G02*
X101450000Y-132450000I699999J1D01*
G01*
X101450000Y-136550000D02*
G75*
G02*
X100750000Y-135850000I0J700000D01*
G01*
X102050000Y-132450000D02*
G75*
G02*
X102750000Y-133150000I1J-699999D01*
G01*
X102750000Y-135850000D02*
G75*
G02*
X102050000Y-136550000I-700000J0D01*
G01*
G04 #@! TD*
M02*
