G04 #@! TF.GenerationSoftware,KiCad,Pcbnew,6.0.4-6f826c9f35~116~ubuntu20.04.1*
G04 #@! TF.CreationDate,2022-05-15T08:48:41-07:00*
G04 #@! TF.ProjectId,ft4232h-breakout,66743432-3332-4682-9d62-7265616b6f75,rev?*
G04 #@! TF.SameCoordinates,Original*
G04 #@! TF.FileFunction,Paste,Top*
G04 #@! TF.FilePolarity,Positive*
%FSLAX46Y46*%
G04 Gerber Fmt 4.6, Leading zero omitted, Abs format (unit mm)*
G04 Created by KiCad (PCBNEW 6.0.4-6f826c9f35~116~ubuntu20.04.1) date 2022-05-15 08:48:41*
%MOMM*%
%LPD*%
G01*
G04 APERTURE LIST*
G04 Aperture macros list*
%AMRoundRect*
0 Rectangle with rounded corners*
0 $1 Rounding radius*
0 $2 $3 $4 $5 $6 $7 $8 $9 X,Y pos of 4 corners*
0 Add a 4 corners polygon primitive as box body*
4,1,4,$2,$3,$4,$5,$6,$7,$8,$9,$2,$3,0*
0 Add four circle primitives for the rounded corners*
1,1,$1+$1,$2,$3*
1,1,$1+$1,$4,$5*
1,1,$1+$1,$6,$7*
1,1,$1+$1,$8,$9*
0 Add four rect primitives between the rounded corners*
20,1,$1+$1,$2,$3,$4,$5,0*
20,1,$1+$1,$4,$5,$6,$7,0*
20,1,$1+$1,$6,$7,$8,$9,0*
20,1,$1+$1,$8,$9,$2,$3,0*%
G04 Aperture macros list end*
%ADD10RoundRect,0.147500X-0.147500X-0.172500X0.147500X-0.172500X0.147500X0.172500X-0.147500X0.172500X0*%
%ADD11RoundRect,0.137500X0.137500X-0.662500X0.137500X0.662500X-0.137500X0.662500X-0.137500X-0.662500X0*%
%ADD12R,0.400000X1.350000*%
%ADD13RoundRect,0.147500X-0.172500X0.147500X-0.172500X-0.147500X0.172500X-0.147500X0.172500X0.147500X0*%
%ADD14R,0.950000X2.150000*%
%ADD15R,3.250000X2.150000*%
%ADD16RoundRect,0.147500X0.147500X0.172500X-0.147500X0.172500X-0.147500X-0.172500X0.147500X-0.172500X0*%
%ADD17R,1.400000X1.200000*%
%ADD18RoundRect,0.147500X0.172500X-0.147500X0.172500X0.147500X-0.172500X0.147500X-0.172500X-0.147500X0*%
%ADD19RoundRect,0.243750X0.243750X0.456250X-0.243750X0.456250X-0.243750X-0.456250X0.243750X-0.456250X0*%
%ADD20RoundRect,0.218750X-0.218750X-0.256250X0.218750X-0.256250X0.218750X0.256250X-0.218750X0.256250X0*%
%ADD21RoundRect,0.218750X0.256250X-0.218750X0.256250X0.218750X-0.256250X0.218750X-0.256250X-0.218750X0*%
%ADD22RoundRect,0.218750X0.218750X0.256250X-0.218750X0.256250X-0.218750X-0.256250X0.218750X-0.256250X0*%
%ADD23RoundRect,0.075000X-0.521491X0.415425X0.415425X-0.521491X0.521491X-0.415425X-0.415425X0.521491X0*%
%ADD24RoundRect,0.075000X-0.521491X-0.415425X-0.415425X-0.521491X0.521491X0.415425X0.415425X0.521491X0*%
%ADD25RoundRect,0.147500X0.226274X0.017678X0.017678X0.226274X-0.226274X-0.017678X-0.017678X-0.226274X0*%
%ADD26RoundRect,0.243750X-0.243750X-0.456250X0.243750X-0.456250X0.243750X0.456250X-0.243750X0.456250X0*%
%ADD27RoundRect,0.150000X0.725000X0.150000X-0.725000X0.150000X-0.725000X-0.150000X0.725000X-0.150000X0*%
%ADD28RoundRect,0.147500X-0.226274X-0.017678X-0.017678X-0.226274X0.226274X0.017678X0.017678X0.226274X0*%
%ADD29R,0.300000X1.750000*%
%ADD30O,1.000000X2.100000*%
%ADD31O,0.900000X2.100000*%
G04 APERTURE END LIST*
D10*
X91740000Y-100330000D03*
X92710000Y-100330000D03*
D11*
X95555000Y-115010000D03*
X96825000Y-115010000D03*
X98095000Y-115010000D03*
X99365000Y-115010000D03*
X100635000Y-115010000D03*
X101905000Y-115010000D03*
X103175000Y-115010000D03*
X104445000Y-115010000D03*
X104445000Y-108510000D03*
X103175000Y-108510000D03*
X101905000Y-108510000D03*
X100635000Y-108510000D03*
X99365000Y-108510000D03*
X98095000Y-108510000D03*
X96825000Y-108510000D03*
X95555000Y-108510000D03*
D12*
X111130000Y-76020000D03*
X110480000Y-76020000D03*
X109830000Y-76020000D03*
X109180000Y-76020000D03*
X108530000Y-76020000D03*
D13*
X115570000Y-87630000D03*
X115570000Y-88600000D03*
D14*
X122160000Y-85450000D03*
X124460000Y-85450000D03*
X126760000Y-85450000D03*
D15*
X124460000Y-79650000D03*
D16*
X104625000Y-87630000D03*
X103655000Y-87630000D03*
D17*
X96690000Y-85940000D03*
X98890000Y-85940000D03*
X98890000Y-84240000D03*
X96690000Y-84240000D03*
D13*
X107950000Y-82065000D03*
X107950000Y-83035000D03*
D18*
X102870000Y-104625000D03*
X102870000Y-103655000D03*
D16*
X64587500Y-108585000D03*
X63617500Y-108585000D03*
D13*
X119380000Y-74445000D03*
X119380000Y-75415000D03*
X116205000Y-122515000D03*
X116205000Y-123485000D03*
D19*
X98727500Y-81280000D03*
X96852500Y-81280000D03*
D13*
X129540000Y-87145000D03*
X129540000Y-88115000D03*
X118110000Y-122515000D03*
X118110000Y-123485000D03*
D20*
X60482500Y-108585000D03*
X62057500Y-108585000D03*
D13*
X118110000Y-74445000D03*
X118110000Y-75415000D03*
D10*
X90470000Y-93980000D03*
X91440000Y-93980000D03*
D20*
X99212500Y-73100000D03*
X100787500Y-73100000D03*
D21*
X116205000Y-126787500D03*
X116205000Y-125212500D03*
D13*
X120650000Y-74445000D03*
X120650000Y-75415000D03*
X129540000Y-89685000D03*
X129540000Y-90655000D03*
D10*
X90955000Y-91440000D03*
X91925000Y-91440000D03*
D18*
X111760000Y-88600000D03*
X111760000Y-87630000D03*
X114300000Y-88600000D03*
X114300000Y-87630000D03*
D10*
X110005000Y-93980000D03*
X110975000Y-93980000D03*
D16*
X64587500Y-110490000D03*
X63617500Y-110490000D03*
D18*
X93980000Y-84790000D03*
X93980000Y-83820000D03*
D22*
X139517500Y-110490000D03*
X137942500Y-110490000D03*
D13*
X83820000Y-122515000D03*
X83820000Y-123485000D03*
D18*
X83820000Y-75415000D03*
X83820000Y-74445000D03*
D21*
X118110000Y-126787500D03*
X118110000Y-125212500D03*
D13*
X118110000Y-78740000D03*
X118110000Y-79710000D03*
D10*
X94765000Y-104140000D03*
X95735000Y-104140000D03*
X135412500Y-108585000D03*
X136382500Y-108585000D03*
D16*
X103355000Y-73100000D03*
X102385000Y-73100000D03*
D23*
X98647658Y-89344357D03*
X98294105Y-89697911D03*
X97940551Y-90051464D03*
X97586998Y-90405018D03*
X97233445Y-90758571D03*
X96879891Y-91112124D03*
X96526338Y-91465678D03*
X96172785Y-91819231D03*
X95819231Y-92172785D03*
X95465678Y-92526338D03*
X95112124Y-92879891D03*
X94758571Y-93233445D03*
X94405018Y-93586998D03*
X94051464Y-93940551D03*
X93697911Y-94294105D03*
X93344357Y-94647658D03*
D24*
X93344357Y-97352342D03*
X93697911Y-97705895D03*
X94051464Y-98059449D03*
X94405018Y-98413002D03*
X94758571Y-98766555D03*
X95112124Y-99120109D03*
X95465678Y-99473662D03*
X95819231Y-99827215D03*
X96172785Y-100180769D03*
X96526338Y-100534322D03*
X96879891Y-100887876D03*
X97233445Y-101241429D03*
X97586998Y-101594982D03*
X97940551Y-101948536D03*
X98294105Y-102302089D03*
X98647658Y-102655643D03*
D23*
X101352342Y-102655643D03*
X101705895Y-102302089D03*
X102059449Y-101948536D03*
X102413002Y-101594982D03*
X102766555Y-101241429D03*
X103120109Y-100887876D03*
X103473662Y-100534322D03*
X103827215Y-100180769D03*
X104180769Y-99827215D03*
X104534322Y-99473662D03*
X104887876Y-99120109D03*
X105241429Y-98766555D03*
X105594982Y-98413002D03*
X105948536Y-98059449D03*
X106302089Y-97705895D03*
X106655643Y-97352342D03*
D24*
X106655643Y-94647658D03*
X106302089Y-94294105D03*
X105948536Y-93940551D03*
X105594982Y-93586998D03*
X105241429Y-93233445D03*
X104887876Y-92879891D03*
X104534322Y-92526338D03*
X104180769Y-92172785D03*
X103827215Y-91819231D03*
X103473662Y-91465678D03*
X103120109Y-91112124D03*
X102766555Y-90758571D03*
X102413002Y-90405018D03*
X102059449Y-90051464D03*
X101705895Y-89697911D03*
X101352342Y-89344357D03*
D25*
X91782947Y-87972947D03*
X91097053Y-87287053D03*
D10*
X94765000Y-87630000D03*
X95735000Y-87630000D03*
D16*
X130810000Y-81280000D03*
X129840000Y-81280000D03*
X110975000Y-92710000D03*
X110005000Y-92710000D03*
D26*
X124792500Y-74930000D03*
X126667500Y-74930000D03*
D20*
X60482500Y-110490000D03*
X62057500Y-110490000D03*
D16*
X97490000Y-105410000D03*
X96520000Y-105410000D03*
X91925000Y-90170000D03*
X90955000Y-90170000D03*
D21*
X81890000Y-126787500D03*
X81890000Y-125212500D03*
D10*
X90170000Y-92710000D03*
X91140000Y-92710000D03*
D27*
X115605000Y-83185000D03*
X115605000Y-81915000D03*
X115605000Y-80645000D03*
X115605000Y-79375000D03*
X110455000Y-79375000D03*
X110455000Y-80645000D03*
X110455000Y-81915000D03*
X110455000Y-83185000D03*
D21*
X83795000Y-126787500D03*
X83795000Y-125212500D03*
D18*
X92710000Y-84305000D03*
X92710000Y-83335000D03*
D16*
X107188000Y-91186000D03*
X106218000Y-91186000D03*
D10*
X135562500Y-110490000D03*
X136532500Y-110490000D03*
X92225000Y-81280000D03*
X93195000Y-81280000D03*
D16*
X107165000Y-101600000D03*
X106195000Y-101600000D03*
D13*
X101600000Y-85090000D03*
X101600000Y-86060000D03*
D28*
X92367053Y-86017053D03*
X93052947Y-86702947D03*
D29*
X93520000Y-78550000D03*
X92720000Y-78550000D03*
X91420000Y-78550000D03*
X90420000Y-78550000D03*
X89920000Y-78550000D03*
X88920000Y-78550000D03*
X87620000Y-78550000D03*
X86820000Y-78550000D03*
X87120000Y-78550000D03*
X87920000Y-78550000D03*
X88420000Y-78550000D03*
X89420000Y-78550000D03*
X90920000Y-78550000D03*
X91920000Y-78550000D03*
X92420000Y-78550000D03*
X93220000Y-78550000D03*
D30*
X85850000Y-73530000D03*
X94490000Y-73530000D03*
D31*
X85850000Y-77710000D03*
X94490000Y-77710000D03*
D16*
X110975000Y-95250000D03*
X110005000Y-95250000D03*
D22*
X124460000Y-88900000D03*
X122885000Y-88900000D03*
D18*
X113030000Y-88600000D03*
X113030000Y-87630000D03*
D13*
X81915000Y-122515000D03*
X81915000Y-123485000D03*
D10*
X125245000Y-77470000D03*
X126215000Y-77470000D03*
D20*
X129537500Y-83820000D03*
X131112500Y-83820000D03*
D22*
X139517500Y-108585000D03*
X137942500Y-108585000D03*
D26*
X86692500Y-88900000D03*
X88567500Y-88900000D03*
M02*
