G04 #@! TF.GenerationSoftware,KiCad,Pcbnew,6.0.4-6f826c9f35~116~ubuntu20.04.1*
G04 #@! TF.CreationDate,2022-05-15T08:48:41-07:00*
G04 #@! TF.ProjectId,ft4232h-breakout,66743432-3332-4682-9d62-7265616b6f75,rev?*
G04 #@! TF.SameCoordinates,Original*
G04 #@! TF.FileFunction,Soldermask,Bot*
G04 #@! TF.FilePolarity,Negative*
%FSLAX46Y46*%
G04 Gerber Fmt 4.6, Leading zero omitted, Abs format (unit mm)*
G04 Created by KiCad (PCBNEW 6.0.4-6f826c9f35~116~ubuntu20.04.1) date 2022-05-15 08:48:41*
%MOMM*%
%LPD*%
G01*
G04 APERTURE LIST*
%ADD10R,1.700000X1.700000*%
%ADD11O,1.700000X1.700000*%
%ADD12C,1.450000*%
%ADD13O,1.200000X2.000000*%
%ADD14C,1.250000*%
%ADD15O,1.199896X1.799996*%
%ADD16O,1.799996X1.199896*%
%ADD17C,0.650000*%
%ADD18O,1.000000X2.100000*%
%ADD19O,0.900000X2.100000*%
G04 APERTURE END LIST*
D10*
X92695000Y-120300000D03*
D11*
X90155000Y-120300000D03*
X87615000Y-120300000D03*
D12*
X107405000Y-76020000D03*
D13*
X113430000Y-73370000D03*
X106230000Y-73370000D03*
D12*
X112255000Y-76020000D03*
D10*
X67000000Y-105080000D03*
D11*
X67000000Y-102540000D03*
X67000000Y-100000000D03*
D14*
X77000000Y-119600000D03*
X77000000Y-125600000D03*
D15*
X74600000Y-123600000D03*
X79400000Y-125600000D03*
X79400000Y-118600000D03*
D14*
X123000000Y-119600000D03*
X123000000Y-125600000D03*
D15*
X120600000Y-123600000D03*
X125400000Y-125600000D03*
X125400000Y-118600000D03*
D10*
X112385000Y-120300000D03*
D11*
X109845000Y-120300000D03*
X107305000Y-120300000D03*
D14*
X61700000Y-115000000D03*
X67700000Y-115000000D03*
D16*
X63700000Y-112600000D03*
X61700000Y-117400000D03*
X68700000Y-117400000D03*
D17*
X93060000Y-77210000D03*
X87280000Y-77210000D03*
D18*
X85850000Y-73530000D03*
X94490000Y-73530000D03*
D19*
X85850000Y-77710000D03*
X94490000Y-77710000D03*
D14*
X132300000Y-115000000D03*
X138300000Y-115000000D03*
D16*
X136300000Y-117400000D03*
X138300000Y-112600000D03*
X131300000Y-112600000D03*
D10*
X133000000Y-100000000D03*
D11*
X133000000Y-102540000D03*
X133000000Y-105080000D03*
M02*
