G04 #@! TF.GenerationSoftware,KiCad,Pcbnew,5.1.4+dfsg1-1*
G04 #@! TF.CreationDate,2019-11-23T06:49:05-08:00*
G04 #@! TF.ProjectId,east-van-arrow,65617374-2d76-4616-9e2d-6172726f772e,rev?*
G04 #@! TF.SameCoordinates,Original*
G04 #@! TF.FileFunction,Copper,L1,Top*
G04 #@! TF.FilePolarity,Positive*
%FSLAX46Y46*%
G04 Gerber Fmt 4.6, Leading zero omitted, Abs format (unit mm)*
G04 Created by KiCad (PCBNEW 5.1.4+dfsg1-1) date 2019-11-23 06:49:05*
%MOMM*%
%LPD*%
G04 APERTURE LIST*
%ADD10C,0.010000*%
G04 APERTURE END LIST*
D10*
G36*
X130785544Y-57135709D02*
G01*
X130804103Y-57140240D01*
X130813355Y-57199210D01*
X130816646Y-57339195D01*
X130814058Y-57541593D01*
X130805674Y-57787798D01*
X130800745Y-57893797D01*
X130764708Y-58614676D01*
X130632423Y-58641548D01*
X130552433Y-58653347D01*
X130385840Y-58674550D01*
X130145247Y-58703671D01*
X129843260Y-58739220D01*
X129492480Y-58779708D01*
X129105514Y-58823648D01*
X128812088Y-58856528D01*
X128338613Y-58910111D01*
X127955843Y-58955471D01*
X127655139Y-58993935D01*
X127427860Y-59026830D01*
X127265365Y-59055482D01*
X127159016Y-59081218D01*
X127100171Y-59105365D01*
X127082589Y-59122086D01*
X127067826Y-59194450D01*
X127051461Y-59349672D01*
X127034762Y-59570850D01*
X127018996Y-59841080D01*
X127005429Y-60143458D01*
X127004816Y-60159523D01*
X126968493Y-61119509D01*
X127087557Y-61118926D01*
X127168977Y-61112995D01*
X127334330Y-61096640D01*
X127568477Y-61071513D01*
X127856282Y-61039270D01*
X128182606Y-61001562D01*
X128429214Y-60972398D01*
X128793413Y-60929386D01*
X129148038Y-60888353D01*
X129473485Y-60851503D01*
X129750152Y-60821042D01*
X129958435Y-60799172D01*
X130038546Y-60791441D01*
X130425284Y-60756430D01*
X130425026Y-61000347D01*
X130421486Y-61160753D01*
X130412238Y-61382832D01*
X130398970Y-61628725D01*
X130392273Y-61735007D01*
X130375190Y-61962569D01*
X130356780Y-62110152D01*
X130331842Y-62197505D01*
X130295179Y-62244375D01*
X130252322Y-62266605D01*
X130176632Y-62282116D01*
X130015087Y-62306026D01*
X129781126Y-62336659D01*
X129488187Y-62372340D01*
X129149710Y-62411393D01*
X128779133Y-62452142D01*
X128675743Y-62463173D01*
X128297275Y-62503710D01*
X127945848Y-62542153D01*
X127635200Y-62576938D01*
X127379070Y-62606497D01*
X127191198Y-62629265D01*
X127085323Y-62643677D01*
X127073023Y-62645841D01*
X126998728Y-62668931D01*
X126955071Y-62717187D01*
X126930002Y-62815763D01*
X126912196Y-62981516D01*
X126901702Y-63132286D01*
X126889401Y-63359991D01*
X126876359Y-63641805D01*
X126863642Y-63954900D01*
X126853719Y-64233546D01*
X126822473Y-65176856D01*
X127164252Y-65146683D01*
X127348105Y-65128894D01*
X127598594Y-65102535D01*
X127883286Y-65071110D01*
X128169747Y-65038124D01*
X128179705Y-65036949D01*
X128793947Y-64964615D01*
X129312605Y-64903998D01*
X129739157Y-64854704D01*
X130077086Y-64816339D01*
X130329872Y-64788510D01*
X130500996Y-64770824D01*
X130593939Y-64762886D01*
X130608466Y-64762338D01*
X130638658Y-64772705D01*
X130658044Y-64813599D01*
X130667481Y-64899705D01*
X130667826Y-65045710D01*
X130659936Y-65266299D01*
X130649947Y-65473438D01*
X130634105Y-65732403D01*
X130615281Y-65956955D01*
X130595494Y-66127601D01*
X130576760Y-66224847D01*
X130570811Y-66237952D01*
X130506106Y-66265101D01*
X130364461Y-66297073D01*
X130168313Y-66329448D01*
X129989972Y-66352358D01*
X129772636Y-66377039D01*
X129481121Y-66410186D01*
X129140410Y-66448959D01*
X128775485Y-66490513D01*
X128411329Y-66532005D01*
X128354361Y-66538499D01*
X127664140Y-66617016D01*
X127071227Y-66684108D01*
X126573807Y-66739975D01*
X126170065Y-66784817D01*
X125858184Y-66818835D01*
X125636350Y-66842230D01*
X125502746Y-66855201D01*
X125458819Y-66858212D01*
X125425685Y-66823439D01*
X125412482Y-66711833D01*
X125417360Y-66521375D01*
X125423529Y-66388131D01*
X125432082Y-66170308D01*
X125442489Y-65883091D01*
X125454222Y-65541661D01*
X125466753Y-65161201D01*
X125479554Y-64756895D01*
X125485521Y-64562731D01*
X125508358Y-63825919D01*
X125531682Y-63099860D01*
X125555226Y-62391326D01*
X125578726Y-61707095D01*
X125601918Y-61053940D01*
X125624536Y-60438637D01*
X125646316Y-59867961D01*
X125666994Y-59348687D01*
X125686305Y-58887591D01*
X125703983Y-58491447D01*
X125719765Y-58167031D01*
X125733385Y-57921118D01*
X125744579Y-57760482D01*
X125753082Y-57691900D01*
X125754025Y-57690048D01*
X125805790Y-57680215D01*
X125942166Y-57661150D01*
X126148576Y-57634701D01*
X126410443Y-57602715D01*
X126713192Y-57567041D01*
X126837142Y-57552762D01*
X127580752Y-57467828D01*
X128230792Y-57394029D01*
X128792810Y-57330786D01*
X129272349Y-57277525D01*
X129674956Y-57233667D01*
X130006175Y-57198636D01*
X130271552Y-57171856D01*
X130476632Y-57152750D01*
X130626960Y-57140741D01*
X130728082Y-57135253D01*
X130785544Y-57135709D01*
X130785544Y-57135709D01*
G37*
X130785544Y-57135709D02*
X130804103Y-57140240D01*
X130813355Y-57199210D01*
X130816646Y-57339195D01*
X130814058Y-57541593D01*
X130805674Y-57787798D01*
X130800745Y-57893797D01*
X130764708Y-58614676D01*
X130632423Y-58641548D01*
X130552433Y-58653347D01*
X130385840Y-58674550D01*
X130145247Y-58703671D01*
X129843260Y-58739220D01*
X129492480Y-58779708D01*
X129105514Y-58823648D01*
X128812088Y-58856528D01*
X128338613Y-58910111D01*
X127955843Y-58955471D01*
X127655139Y-58993935D01*
X127427860Y-59026830D01*
X127265365Y-59055482D01*
X127159016Y-59081218D01*
X127100171Y-59105365D01*
X127082589Y-59122086D01*
X127067826Y-59194450D01*
X127051461Y-59349672D01*
X127034762Y-59570850D01*
X127018996Y-59841080D01*
X127005429Y-60143458D01*
X127004816Y-60159523D01*
X126968493Y-61119509D01*
X127087557Y-61118926D01*
X127168977Y-61112995D01*
X127334330Y-61096640D01*
X127568477Y-61071513D01*
X127856282Y-61039270D01*
X128182606Y-61001562D01*
X128429214Y-60972398D01*
X128793413Y-60929386D01*
X129148038Y-60888353D01*
X129473485Y-60851503D01*
X129750152Y-60821042D01*
X129958435Y-60799172D01*
X130038546Y-60791441D01*
X130425284Y-60756430D01*
X130425026Y-61000347D01*
X130421486Y-61160753D01*
X130412238Y-61382832D01*
X130398970Y-61628725D01*
X130392273Y-61735007D01*
X130375190Y-61962569D01*
X130356780Y-62110152D01*
X130331842Y-62197505D01*
X130295179Y-62244375D01*
X130252322Y-62266605D01*
X130176632Y-62282116D01*
X130015087Y-62306026D01*
X129781126Y-62336659D01*
X129488187Y-62372340D01*
X129149710Y-62411393D01*
X128779133Y-62452142D01*
X128675743Y-62463173D01*
X128297275Y-62503710D01*
X127945848Y-62542153D01*
X127635200Y-62576938D01*
X127379070Y-62606497D01*
X127191198Y-62629265D01*
X127085323Y-62643677D01*
X127073023Y-62645841D01*
X126998728Y-62668931D01*
X126955071Y-62717187D01*
X126930002Y-62815763D01*
X126912196Y-62981516D01*
X126901702Y-63132286D01*
X126889401Y-63359991D01*
X126876359Y-63641805D01*
X126863642Y-63954900D01*
X126853719Y-64233546D01*
X126822473Y-65176856D01*
X127164252Y-65146683D01*
X127348105Y-65128894D01*
X127598594Y-65102535D01*
X127883286Y-65071110D01*
X128169747Y-65038124D01*
X128179705Y-65036949D01*
X128793947Y-64964615D01*
X129312605Y-64903998D01*
X129739157Y-64854704D01*
X130077086Y-64816339D01*
X130329872Y-64788510D01*
X130500996Y-64770824D01*
X130593939Y-64762886D01*
X130608466Y-64762338D01*
X130638658Y-64772705D01*
X130658044Y-64813599D01*
X130667481Y-64899705D01*
X130667826Y-65045710D01*
X130659936Y-65266299D01*
X130649947Y-65473438D01*
X130634105Y-65732403D01*
X130615281Y-65956955D01*
X130595494Y-66127601D01*
X130576760Y-66224847D01*
X130570811Y-66237952D01*
X130506106Y-66265101D01*
X130364461Y-66297073D01*
X130168313Y-66329448D01*
X129989972Y-66352358D01*
X129772636Y-66377039D01*
X129481121Y-66410186D01*
X129140410Y-66448959D01*
X128775485Y-66490513D01*
X128411329Y-66532005D01*
X128354361Y-66538499D01*
X127664140Y-66617016D01*
X127071227Y-66684108D01*
X126573807Y-66739975D01*
X126170065Y-66784817D01*
X125858184Y-66818835D01*
X125636350Y-66842230D01*
X125502746Y-66855201D01*
X125458819Y-66858212D01*
X125425685Y-66823439D01*
X125412482Y-66711833D01*
X125417360Y-66521375D01*
X125423529Y-66388131D01*
X125432082Y-66170308D01*
X125442489Y-65883091D01*
X125454222Y-65541661D01*
X125466753Y-65161201D01*
X125479554Y-64756895D01*
X125485521Y-64562731D01*
X125508358Y-63825919D01*
X125531682Y-63099860D01*
X125555226Y-62391326D01*
X125578726Y-61707095D01*
X125601918Y-61053940D01*
X125624536Y-60438637D01*
X125646316Y-59867961D01*
X125666994Y-59348687D01*
X125686305Y-58887591D01*
X125703983Y-58491447D01*
X125719765Y-58167031D01*
X125733385Y-57921118D01*
X125744579Y-57760482D01*
X125753082Y-57691900D01*
X125754025Y-57690048D01*
X125805790Y-57680215D01*
X125942166Y-57661150D01*
X126148576Y-57634701D01*
X126410443Y-57602715D01*
X126713192Y-57567041D01*
X126837142Y-57552762D01*
X127580752Y-57467828D01*
X128230792Y-57394029D01*
X128792810Y-57330786D01*
X129272349Y-57277525D01*
X129674956Y-57233667D01*
X130006175Y-57198636D01*
X130271552Y-57171856D01*
X130476632Y-57152750D01*
X130626960Y-57140741D01*
X130728082Y-57135253D01*
X130785544Y-57135709D01*
G36*
X139352480Y-67287295D02*
G01*
X139361648Y-67291314D01*
X139367994Y-67329492D01*
X139371844Y-67430665D01*
X139373135Y-67597519D01*
X139371806Y-67832738D01*
X139367797Y-68139005D01*
X139361045Y-68519005D01*
X139351489Y-68975422D01*
X139339067Y-69510941D01*
X139323719Y-70128244D01*
X139305382Y-70830017D01*
X139283995Y-71618944D01*
X139259497Y-72497709D01*
X139231827Y-73468995D01*
X139200922Y-74535488D01*
X139177611Y-75330630D01*
X139166636Y-75660500D01*
X139154400Y-75955635D01*
X139141690Y-76201886D01*
X139129289Y-76385102D01*
X139117982Y-76491134D01*
X139112081Y-76511800D01*
X139053051Y-76523313D01*
X138914656Y-76540700D01*
X138716998Y-76561683D01*
X138480182Y-76583982D01*
X138458225Y-76585924D01*
X138203477Y-76608846D01*
X137970963Y-76630695D01*
X137786483Y-76648989D01*
X137676318Y-76661181D01*
X137516938Y-76681676D01*
X136708864Y-75275543D01*
X136369691Y-74685134D01*
X136075840Y-74173124D01*
X135822734Y-73731480D01*
X135605793Y-73352168D01*
X135420440Y-73027155D01*
X135262094Y-72748407D01*
X135126178Y-72507892D01*
X135008114Y-72297576D01*
X134903321Y-72109425D01*
X134869304Y-72047996D01*
X134688589Y-71722265D01*
X134549200Y-71473887D01*
X134445021Y-71292411D01*
X134369936Y-71167383D01*
X134317827Y-71088350D01*
X134282579Y-71044862D01*
X134281887Y-71044166D01*
X134261078Y-71034525D01*
X134242690Y-71054332D01*
X134226353Y-71110256D01*
X134211700Y-71208966D01*
X134198363Y-71357130D01*
X134185973Y-71561418D01*
X134174162Y-71828498D01*
X134162561Y-72165040D01*
X134150803Y-72577712D01*
X134138519Y-73073184D01*
X134125341Y-73658124D01*
X134117605Y-74019116D01*
X134106711Y-74513432D01*
X134095470Y-74985033D01*
X134084203Y-75422965D01*
X134073229Y-75816275D01*
X134062870Y-76154012D01*
X134053444Y-76425222D01*
X134045273Y-76618953D01*
X134038676Y-76724252D01*
X134038469Y-76726287D01*
X134018174Y-76879254D01*
X133988698Y-76957782D01*
X133934755Y-76987048D01*
X133877391Y-76991630D01*
X133776591Y-76997851D01*
X133601300Y-77012293D01*
X133376287Y-77032794D01*
X133129464Y-77056878D01*
X132892942Y-77077444D01*
X132694477Y-77088536D01*
X132553953Y-77089483D01*
X132491251Y-77079613D01*
X132490272Y-77078470D01*
X132484711Y-77005975D01*
X132487370Y-77000746D01*
X132494326Y-76942818D01*
X132502783Y-76798440D01*
X132512221Y-76580947D01*
X132522120Y-76303672D01*
X132531959Y-75979948D01*
X132541220Y-75623111D01*
X132541390Y-75615972D01*
X132551019Y-75218219D01*
X132562727Y-74746745D01*
X132575848Y-74227596D01*
X132589718Y-73686819D01*
X132603671Y-73150459D01*
X132617043Y-72644561D01*
X132620990Y-72497112D01*
X132634063Y-72003831D01*
X132647902Y-71470000D01*
X132661840Y-70922107D01*
X132675212Y-70386642D01*
X132687352Y-69890093D01*
X132697594Y-69458949D01*
X132700174Y-69347341D01*
X132709644Y-68984659D01*
X132720492Y-68653697D01*
X132732101Y-68367857D01*
X132743857Y-68140539D01*
X132755141Y-67985144D01*
X132765339Y-67915074D01*
X132766084Y-67913566D01*
X132835604Y-67877835D01*
X132995311Y-67840364D01*
X133235638Y-67802642D01*
X133547020Y-67766155D01*
X133919892Y-67732391D01*
X133943359Y-67730535D01*
X134342573Y-67699207D01*
X134569774Y-68114564D01*
X134662047Y-68281969D01*
X134796882Y-68524813D01*
X134967829Y-68831591D01*
X135168441Y-69190804D01*
X135392265Y-69590948D01*
X135632854Y-70020522D01*
X135883758Y-70468024D01*
X136138526Y-70921951D01*
X136390710Y-71370801D01*
X136633859Y-71803072D01*
X136861524Y-72207263D01*
X137067256Y-72571871D01*
X137244605Y-72885394D01*
X137275399Y-72939718D01*
X137434011Y-73210767D01*
X137551389Y-73391722D01*
X137627955Y-73483181D01*
X137662802Y-73488638D01*
X137673936Y-73422097D01*
X137686149Y-73269652D01*
X137698755Y-73045187D01*
X137711068Y-72762587D01*
X137722399Y-72435736D01*
X137731607Y-72097898D01*
X137741359Y-71700278D01*
X137751816Y-71295601D01*
X137762345Y-70906859D01*
X137772314Y-70557044D01*
X137781090Y-70269150D01*
X137785832Y-70126778D01*
X137794810Y-69863746D01*
X137805783Y-69530860D01*
X137817788Y-69158023D01*
X137829860Y-68775139D01*
X137840060Y-68444232D01*
X137851597Y-68093252D01*
X137862836Y-67829581D01*
X137875112Y-67640737D01*
X137889764Y-67514238D01*
X137908128Y-67437604D01*
X137931540Y-67398351D01*
X137953407Y-67385879D01*
X138059871Y-67365063D01*
X138230633Y-67343669D01*
X138443318Y-67323199D01*
X138675552Y-67305155D01*
X138904960Y-67291040D01*
X139109167Y-67282357D01*
X139265799Y-67280608D01*
X139352480Y-67287295D01*
X139352480Y-67287295D01*
G37*
X139352480Y-67287295D02*
X139361648Y-67291314D01*
X139367994Y-67329492D01*
X139371844Y-67430665D01*
X139373135Y-67597519D01*
X139371806Y-67832738D01*
X139367797Y-68139005D01*
X139361045Y-68519005D01*
X139351489Y-68975422D01*
X139339067Y-69510941D01*
X139323719Y-70128244D01*
X139305382Y-70830017D01*
X139283995Y-71618944D01*
X139259497Y-72497709D01*
X139231827Y-73468995D01*
X139200922Y-74535488D01*
X139177611Y-75330630D01*
X139166636Y-75660500D01*
X139154400Y-75955635D01*
X139141690Y-76201886D01*
X139129289Y-76385102D01*
X139117982Y-76491134D01*
X139112081Y-76511800D01*
X139053051Y-76523313D01*
X138914656Y-76540700D01*
X138716998Y-76561683D01*
X138480182Y-76583982D01*
X138458225Y-76585924D01*
X138203477Y-76608846D01*
X137970963Y-76630695D01*
X137786483Y-76648989D01*
X137676318Y-76661181D01*
X137516938Y-76681676D01*
X136708864Y-75275543D01*
X136369691Y-74685134D01*
X136075840Y-74173124D01*
X135822734Y-73731480D01*
X135605793Y-73352168D01*
X135420440Y-73027155D01*
X135262094Y-72748407D01*
X135126178Y-72507892D01*
X135008114Y-72297576D01*
X134903321Y-72109425D01*
X134869304Y-72047996D01*
X134688589Y-71722265D01*
X134549200Y-71473887D01*
X134445021Y-71292411D01*
X134369936Y-71167383D01*
X134317827Y-71088350D01*
X134282579Y-71044862D01*
X134281887Y-71044166D01*
X134261078Y-71034525D01*
X134242690Y-71054332D01*
X134226353Y-71110256D01*
X134211700Y-71208966D01*
X134198363Y-71357130D01*
X134185973Y-71561418D01*
X134174162Y-71828498D01*
X134162561Y-72165040D01*
X134150803Y-72577712D01*
X134138519Y-73073184D01*
X134125341Y-73658124D01*
X134117605Y-74019116D01*
X134106711Y-74513432D01*
X134095470Y-74985033D01*
X134084203Y-75422965D01*
X134073229Y-75816275D01*
X134062870Y-76154012D01*
X134053444Y-76425222D01*
X134045273Y-76618953D01*
X134038676Y-76724252D01*
X134038469Y-76726287D01*
X134018174Y-76879254D01*
X133988698Y-76957782D01*
X133934755Y-76987048D01*
X133877391Y-76991630D01*
X133776591Y-76997851D01*
X133601300Y-77012293D01*
X133376287Y-77032794D01*
X133129464Y-77056878D01*
X132892942Y-77077444D01*
X132694477Y-77088536D01*
X132553953Y-77089483D01*
X132491251Y-77079613D01*
X132490272Y-77078470D01*
X132484711Y-77005975D01*
X132487370Y-77000746D01*
X132494326Y-76942818D01*
X132502783Y-76798440D01*
X132512221Y-76580947D01*
X132522120Y-76303672D01*
X132531959Y-75979948D01*
X132541220Y-75623111D01*
X132541390Y-75615972D01*
X132551019Y-75218219D01*
X132562727Y-74746745D01*
X132575848Y-74227596D01*
X132589718Y-73686819D01*
X132603671Y-73150459D01*
X132617043Y-72644561D01*
X132620990Y-72497112D01*
X132634063Y-72003831D01*
X132647902Y-71470000D01*
X132661840Y-70922107D01*
X132675212Y-70386642D01*
X132687352Y-69890093D01*
X132697594Y-69458949D01*
X132700174Y-69347341D01*
X132709644Y-68984659D01*
X132720492Y-68653697D01*
X132732101Y-68367857D01*
X132743857Y-68140539D01*
X132755141Y-67985144D01*
X132765339Y-67915074D01*
X132766084Y-67913566D01*
X132835604Y-67877835D01*
X132995311Y-67840364D01*
X133235638Y-67802642D01*
X133547020Y-67766155D01*
X133919892Y-67732391D01*
X133943359Y-67730535D01*
X134342573Y-67699207D01*
X134569774Y-68114564D01*
X134662047Y-68281969D01*
X134796882Y-68524813D01*
X134967829Y-68831591D01*
X135168441Y-69190804D01*
X135392265Y-69590948D01*
X135632854Y-70020522D01*
X135883758Y-70468024D01*
X136138526Y-70921951D01*
X136390710Y-71370801D01*
X136633859Y-71803072D01*
X136861524Y-72207263D01*
X137067256Y-72571871D01*
X137244605Y-72885394D01*
X137275399Y-72939718D01*
X137434011Y-73210767D01*
X137551389Y-73391722D01*
X137627955Y-73483181D01*
X137662802Y-73488638D01*
X137673936Y-73422097D01*
X137686149Y-73269652D01*
X137698755Y-73045187D01*
X137711068Y-72762587D01*
X137722399Y-72435736D01*
X137731607Y-72097898D01*
X137741359Y-71700278D01*
X137751816Y-71295601D01*
X137762345Y-70906859D01*
X137772314Y-70557044D01*
X137781090Y-70269150D01*
X137785832Y-70126778D01*
X137794810Y-69863746D01*
X137805783Y-69530860D01*
X137817788Y-69158023D01*
X137829860Y-68775139D01*
X137840060Y-68444232D01*
X137851597Y-68093252D01*
X137862836Y-67829581D01*
X137875112Y-67640737D01*
X137889764Y-67514238D01*
X137908128Y-67437604D01*
X137931540Y-67398351D01*
X137953407Y-67385879D01*
X138059871Y-67365063D01*
X138230633Y-67343669D01*
X138443318Y-67323199D01*
X138675552Y-67305155D01*
X138904960Y-67291040D01*
X139109167Y-67282357D01*
X139265799Y-67280608D01*
X139352480Y-67287295D01*
G36*
X128503217Y-68312830D02*
G01*
X128525093Y-68367209D01*
X128574008Y-68510740D01*
X128647964Y-68737091D01*
X128744962Y-69039931D01*
X128863002Y-69412925D01*
X129000088Y-69849741D01*
X129154219Y-70344046D01*
X129323398Y-70889507D01*
X129505625Y-71479793D01*
X129619024Y-71848389D01*
X129758618Y-72301633D01*
X129919975Y-72823766D01*
X130094927Y-73388466D01*
X130275306Y-73969412D01*
X130452942Y-74540283D01*
X130619669Y-75074757D01*
X130700281Y-75332560D01*
X130828291Y-75744224D01*
X130945274Y-76125643D01*
X131048173Y-76466450D01*
X131133931Y-76756277D01*
X131199488Y-76984755D01*
X131241787Y-77141518D01*
X131257770Y-77216196D01*
X131257245Y-77220881D01*
X131195688Y-77238600D01*
X131055601Y-77259553D01*
X130857141Y-77282162D01*
X130620468Y-77304844D01*
X130365737Y-77326019D01*
X130113107Y-77344106D01*
X129882736Y-77357523D01*
X129694780Y-77364690D01*
X129569398Y-77364027D01*
X129527436Y-77356551D01*
X129500377Y-77296949D01*
X129450375Y-77157167D01*
X129382590Y-76952788D01*
X129302184Y-76699398D01*
X129214316Y-76412581D01*
X129208770Y-76394153D01*
X129120459Y-76105658D01*
X129039059Y-75849533D01*
X128969777Y-75641396D01*
X128917821Y-75496861D01*
X128888396Y-75431545D01*
X128887453Y-75430479D01*
X128828300Y-75423550D01*
X128684082Y-75425727D01*
X128469003Y-75435799D01*
X128197265Y-75452552D01*
X127883075Y-75474776D01*
X127540634Y-75501257D01*
X127184146Y-75530784D01*
X126827816Y-75562145D01*
X126485847Y-75594128D01*
X126172443Y-75625520D01*
X125901807Y-75655110D01*
X125688143Y-75681685D01*
X125545655Y-75704033D01*
X125488909Y-75720497D01*
X125459314Y-75778687D01*
X125400074Y-75915827D01*
X125317052Y-76117594D01*
X125216108Y-76369665D01*
X125103103Y-76657714D01*
X125062044Y-76763713D01*
X124946781Y-77060033D01*
X124842231Y-77324587D01*
X124754108Y-77543261D01*
X124688124Y-77701941D01*
X124649992Y-77786510D01*
X124644229Y-77796047D01*
X124577399Y-77816701D01*
X124411203Y-77842655D01*
X124145935Y-77873876D01*
X123781891Y-77910330D01*
X123319365Y-77951981D01*
X123258743Y-77957199D01*
X123094260Y-77967039D01*
X122973553Y-77966311D01*
X122927670Y-77957323D01*
X122922370Y-77948485D01*
X122921952Y-77930898D01*
X122929173Y-77897480D01*
X122946790Y-77841151D01*
X122977557Y-77754828D01*
X123024232Y-77631432D01*
X123089569Y-77463881D01*
X123176325Y-77245093D01*
X123287255Y-76967988D01*
X123425116Y-76625485D01*
X123592664Y-76210502D01*
X123792653Y-75715958D01*
X123984562Y-75241709D01*
X124189358Y-74735401D01*
X124416741Y-74172776D01*
X124483217Y-74008178D01*
X126145513Y-74008178D01*
X126193949Y-74034490D01*
X126312845Y-74043528D01*
X126381067Y-74044066D01*
X126518517Y-74039400D01*
X126732156Y-74026501D01*
X126998857Y-74007016D01*
X127295497Y-73982595D01*
X127497201Y-73964503D01*
X127780448Y-73936218D01*
X128029181Y-73907606D01*
X128226297Y-73880936D01*
X128354694Y-73858480D01*
X128396407Y-73845110D01*
X128391440Y-73791687D01*
X128362649Y-73656142D01*
X128313781Y-73452270D01*
X128248583Y-73193868D01*
X128170802Y-72894733D01*
X128084186Y-72568661D01*
X127992482Y-72229450D01*
X127899436Y-71890895D01*
X127808795Y-71566793D01*
X127724307Y-71270942D01*
X127649719Y-71017137D01*
X127588778Y-70819175D01*
X127545231Y-70690854D01*
X127529899Y-70654668D01*
X127492873Y-70627603D01*
X127442871Y-70683325D01*
X127413904Y-70735705D01*
X127379090Y-70814211D01*
X127313782Y-70971830D01*
X127223465Y-71194622D01*
X127113625Y-71468647D01*
X126989747Y-71779963D01*
X126857318Y-72114631D01*
X126721821Y-72458710D01*
X126588744Y-72798259D01*
X126463572Y-73119338D01*
X126351789Y-73408007D01*
X126258882Y-73650324D01*
X126190336Y-73832351D01*
X126151637Y-73940145D01*
X126146438Y-73956738D01*
X126145513Y-74008178D01*
X124483217Y-74008178D01*
X124655945Y-73580503D01*
X124896203Y-72985252D01*
X125126750Y-72413692D01*
X125336820Y-71892493D01*
X125445016Y-71623831D01*
X125693927Y-71005954D01*
X125908623Y-70474252D01*
X126091914Y-70022219D01*
X126246612Y-69643348D01*
X126375527Y-69331134D01*
X126481471Y-69079070D01*
X126567255Y-68880650D01*
X126635690Y-68729368D01*
X126689588Y-68618718D01*
X126731758Y-68542193D01*
X126765014Y-68493289D01*
X126792164Y-68465497D01*
X126815232Y-68452593D01*
X126892629Y-68437823D01*
X127043940Y-68418878D01*
X127249025Y-68397425D01*
X127487742Y-68375132D01*
X127739953Y-68353666D01*
X127985516Y-68334696D01*
X128204292Y-68319888D01*
X128376141Y-68310909D01*
X128480922Y-68309429D01*
X128503217Y-68312830D01*
X128503217Y-68312830D01*
G37*
X128503217Y-68312830D02*
X128525093Y-68367209D01*
X128574008Y-68510740D01*
X128647964Y-68737091D01*
X128744962Y-69039931D01*
X128863002Y-69412925D01*
X129000088Y-69849741D01*
X129154219Y-70344046D01*
X129323398Y-70889507D01*
X129505625Y-71479793D01*
X129619024Y-71848389D01*
X129758618Y-72301633D01*
X129919975Y-72823766D01*
X130094927Y-73388466D01*
X130275306Y-73969412D01*
X130452942Y-74540283D01*
X130619669Y-75074757D01*
X130700281Y-75332560D01*
X130828291Y-75744224D01*
X130945274Y-76125643D01*
X131048173Y-76466450D01*
X131133931Y-76756277D01*
X131199488Y-76984755D01*
X131241787Y-77141518D01*
X131257770Y-77216196D01*
X131257245Y-77220881D01*
X131195688Y-77238600D01*
X131055601Y-77259553D01*
X130857141Y-77282162D01*
X130620468Y-77304844D01*
X130365737Y-77326019D01*
X130113107Y-77344106D01*
X129882736Y-77357523D01*
X129694780Y-77364690D01*
X129569398Y-77364027D01*
X129527436Y-77356551D01*
X129500377Y-77296949D01*
X129450375Y-77157167D01*
X129382590Y-76952788D01*
X129302184Y-76699398D01*
X129214316Y-76412581D01*
X129208770Y-76394153D01*
X129120459Y-76105658D01*
X129039059Y-75849533D01*
X128969777Y-75641396D01*
X128917821Y-75496861D01*
X128888396Y-75431545D01*
X128887453Y-75430479D01*
X128828300Y-75423550D01*
X128684082Y-75425727D01*
X128469003Y-75435799D01*
X128197265Y-75452552D01*
X127883075Y-75474776D01*
X127540634Y-75501257D01*
X127184146Y-75530784D01*
X126827816Y-75562145D01*
X126485847Y-75594128D01*
X126172443Y-75625520D01*
X125901807Y-75655110D01*
X125688143Y-75681685D01*
X125545655Y-75704033D01*
X125488909Y-75720497D01*
X125459314Y-75778687D01*
X125400074Y-75915827D01*
X125317052Y-76117594D01*
X125216108Y-76369665D01*
X125103103Y-76657714D01*
X125062044Y-76763713D01*
X124946781Y-77060033D01*
X124842231Y-77324587D01*
X124754108Y-77543261D01*
X124688124Y-77701941D01*
X124649992Y-77786510D01*
X124644229Y-77796047D01*
X124577399Y-77816701D01*
X124411203Y-77842655D01*
X124145935Y-77873876D01*
X123781891Y-77910330D01*
X123319365Y-77951981D01*
X123258743Y-77957199D01*
X123094260Y-77967039D01*
X122973553Y-77966311D01*
X122927670Y-77957323D01*
X122922370Y-77948485D01*
X122921952Y-77930898D01*
X122929173Y-77897480D01*
X122946790Y-77841151D01*
X122977557Y-77754828D01*
X123024232Y-77631432D01*
X123089569Y-77463881D01*
X123176325Y-77245093D01*
X123287255Y-76967988D01*
X123425116Y-76625485D01*
X123592664Y-76210502D01*
X123792653Y-75715958D01*
X123984562Y-75241709D01*
X124189358Y-74735401D01*
X124416741Y-74172776D01*
X124483217Y-74008178D01*
X126145513Y-74008178D01*
X126193949Y-74034490D01*
X126312845Y-74043528D01*
X126381067Y-74044066D01*
X126518517Y-74039400D01*
X126732156Y-74026501D01*
X126998857Y-74007016D01*
X127295497Y-73982595D01*
X127497201Y-73964503D01*
X127780448Y-73936218D01*
X128029181Y-73907606D01*
X128226297Y-73880936D01*
X128354694Y-73858480D01*
X128396407Y-73845110D01*
X128391440Y-73791687D01*
X128362649Y-73656142D01*
X128313781Y-73452270D01*
X128248583Y-73193868D01*
X128170802Y-72894733D01*
X128084186Y-72568661D01*
X127992482Y-72229450D01*
X127899436Y-71890895D01*
X127808795Y-71566793D01*
X127724307Y-71270942D01*
X127649719Y-71017137D01*
X127588778Y-70819175D01*
X127545231Y-70690854D01*
X127529899Y-70654668D01*
X127492873Y-70627603D01*
X127442871Y-70683325D01*
X127413904Y-70735705D01*
X127379090Y-70814211D01*
X127313782Y-70971830D01*
X127223465Y-71194622D01*
X127113625Y-71468647D01*
X126989747Y-71779963D01*
X126857318Y-72114631D01*
X126721821Y-72458710D01*
X126588744Y-72798259D01*
X126463572Y-73119338D01*
X126351789Y-73408007D01*
X126258882Y-73650324D01*
X126190336Y-73832351D01*
X126151637Y-73940145D01*
X126146438Y-73956738D01*
X126145513Y-74008178D01*
X124483217Y-74008178D01*
X124655945Y-73580503D01*
X124896203Y-72985252D01*
X125126750Y-72413692D01*
X125336820Y-71892493D01*
X125445016Y-71623831D01*
X125693927Y-71005954D01*
X125908623Y-70474252D01*
X126091914Y-70022219D01*
X126246612Y-69643348D01*
X126375527Y-69331134D01*
X126481471Y-69079070D01*
X126567255Y-68880650D01*
X126635690Y-68729368D01*
X126689588Y-68618718D01*
X126731758Y-68542193D01*
X126765014Y-68493289D01*
X126792164Y-68465497D01*
X126815232Y-68452593D01*
X126892629Y-68437823D01*
X127043940Y-68418878D01*
X127249025Y-68397425D01*
X127487742Y-68375132D01*
X127739953Y-68353666D01*
X127985516Y-68334696D01*
X128204292Y-68319888D01*
X128376141Y-68310909D01*
X128480922Y-68309429D01*
X128503217Y-68312830D01*
G36*
X124530417Y-68684077D02*
G01*
X124585683Y-68694015D01*
X124586164Y-68695475D01*
X124567761Y-68760865D01*
X124513814Y-68916895D01*
X124425171Y-69161275D01*
X124302679Y-69491714D01*
X124147187Y-69905919D01*
X123959542Y-70401599D01*
X123788721Y-70850353D01*
X123665728Y-71173146D01*
X123515899Y-71566924D01*
X123347728Y-72009334D01*
X123169708Y-72478019D01*
X122990332Y-72950625D01*
X122818094Y-73404796D01*
X122764939Y-73545049D01*
X122604294Y-73968500D01*
X122440243Y-74400024D01*
X122279853Y-74821097D01*
X122130190Y-75213195D01*
X121998321Y-75557794D01*
X121891312Y-75836371D01*
X121851187Y-75940334D01*
X121723344Y-76271182D01*
X121582057Y-76637420D01*
X121442540Y-76999575D01*
X121320007Y-77318175D01*
X121293392Y-77387485D01*
X121197843Y-77631471D01*
X121111359Y-77843201D01*
X121041619Y-78004536D01*
X120996302Y-78097340D01*
X120987171Y-78110772D01*
X120924343Y-78130417D01*
X120778536Y-78154983D01*
X120566326Y-78182327D01*
X120304286Y-78210306D01*
X120018123Y-78236032D01*
X119691640Y-78262078D01*
X119451193Y-78278818D01*
X119283449Y-78286256D01*
X119175078Y-78284397D01*
X119112746Y-78273244D01*
X119083121Y-78252801D01*
X119075568Y-78236320D01*
X119053449Y-78161341D01*
X119006283Y-78004091D01*
X118938071Y-77777785D01*
X118852818Y-77495632D01*
X118754527Y-77170847D01*
X118647200Y-76816641D01*
X118534841Y-76446225D01*
X118421453Y-76072813D01*
X118311039Y-75709617D01*
X118207602Y-75369847D01*
X118122867Y-75092004D01*
X118014029Y-74732700D01*
X117893669Y-74330722D01*
X117773719Y-73926198D01*
X117666111Y-73559260D01*
X117625818Y-73420294D01*
X117504953Y-73003761D01*
X117371964Y-72549353D01*
X117232158Y-72074893D01*
X117090840Y-71598203D01*
X116953320Y-71137104D01*
X116824903Y-70709419D01*
X116710898Y-70332968D01*
X116616611Y-70025575D01*
X116578167Y-69902220D01*
X116514888Y-69687253D01*
X116469877Y-69507364D01*
X116447889Y-69383566D01*
X116450590Y-69338396D01*
X116517227Y-69315127D01*
X116665213Y-69289343D01*
X116876188Y-69262953D01*
X117131797Y-69237865D01*
X117413682Y-69215987D01*
X117703484Y-69199228D01*
X117846137Y-69193345D01*
X118266400Y-69178644D01*
X118856639Y-71224617D01*
X118987469Y-71678350D01*
X119114371Y-72118895D01*
X119233633Y-72533335D01*
X119341543Y-72908755D01*
X119434390Y-73232241D01*
X119508463Y-73490875D01*
X119560051Y-73671742D01*
X119573638Y-73719705D01*
X119718088Y-74226577D01*
X119847289Y-74669967D01*
X119959514Y-75044329D01*
X120053036Y-75344119D01*
X120126126Y-75563793D01*
X120177057Y-75697806D01*
X120203375Y-75740727D01*
X120217704Y-75736846D01*
X120234536Y-75720726D01*
X120256406Y-75685651D01*
X120285845Y-75624903D01*
X120325387Y-75531765D01*
X120377566Y-75399522D01*
X120444914Y-75221456D01*
X120529965Y-74990852D01*
X120635251Y-74700991D01*
X120763307Y-74345157D01*
X120916664Y-73916634D01*
X121097856Y-73408705D01*
X121309417Y-72814654D01*
X121351396Y-72696719D01*
X121598507Y-72002387D01*
X121814396Y-71396045D01*
X122001412Y-70871692D01*
X122161904Y-70423331D01*
X122298220Y-70044962D01*
X122412712Y-69730586D01*
X122507726Y-69474205D01*
X122585613Y-69269820D01*
X122648721Y-69111431D01*
X122699400Y-68993040D01*
X122739999Y-68908648D01*
X122772866Y-68852257D01*
X122800351Y-68817866D01*
X122824804Y-68799478D01*
X122848572Y-68791093D01*
X122874006Y-68786712D01*
X122883132Y-68785130D01*
X123026961Y-68764380D01*
X123226939Y-68743928D01*
X123463859Y-68724785D01*
X123718517Y-68707960D01*
X123971707Y-68694466D01*
X124204224Y-68685314D01*
X124396862Y-68681514D01*
X124530417Y-68684077D01*
X124530417Y-68684077D01*
G37*
X124530417Y-68684077D02*
X124585683Y-68694015D01*
X124586164Y-68695475D01*
X124567761Y-68760865D01*
X124513814Y-68916895D01*
X124425171Y-69161275D01*
X124302679Y-69491714D01*
X124147187Y-69905919D01*
X123959542Y-70401599D01*
X123788721Y-70850353D01*
X123665728Y-71173146D01*
X123515899Y-71566924D01*
X123347728Y-72009334D01*
X123169708Y-72478019D01*
X122990332Y-72950625D01*
X122818094Y-73404796D01*
X122764939Y-73545049D01*
X122604294Y-73968500D01*
X122440243Y-74400024D01*
X122279853Y-74821097D01*
X122130190Y-75213195D01*
X121998321Y-75557794D01*
X121891312Y-75836371D01*
X121851187Y-75940334D01*
X121723344Y-76271182D01*
X121582057Y-76637420D01*
X121442540Y-76999575D01*
X121320007Y-77318175D01*
X121293392Y-77387485D01*
X121197843Y-77631471D01*
X121111359Y-77843201D01*
X121041619Y-78004536D01*
X120996302Y-78097340D01*
X120987171Y-78110772D01*
X120924343Y-78130417D01*
X120778536Y-78154983D01*
X120566326Y-78182327D01*
X120304286Y-78210306D01*
X120018123Y-78236032D01*
X119691640Y-78262078D01*
X119451193Y-78278818D01*
X119283449Y-78286256D01*
X119175078Y-78284397D01*
X119112746Y-78273244D01*
X119083121Y-78252801D01*
X119075568Y-78236320D01*
X119053449Y-78161341D01*
X119006283Y-78004091D01*
X118938071Y-77777785D01*
X118852818Y-77495632D01*
X118754527Y-77170847D01*
X118647200Y-76816641D01*
X118534841Y-76446225D01*
X118421453Y-76072813D01*
X118311039Y-75709617D01*
X118207602Y-75369847D01*
X118122867Y-75092004D01*
X118014029Y-74732700D01*
X117893669Y-74330722D01*
X117773719Y-73926198D01*
X117666111Y-73559260D01*
X117625818Y-73420294D01*
X117504953Y-73003761D01*
X117371964Y-72549353D01*
X117232158Y-72074893D01*
X117090840Y-71598203D01*
X116953320Y-71137104D01*
X116824903Y-70709419D01*
X116710898Y-70332968D01*
X116616611Y-70025575D01*
X116578167Y-69902220D01*
X116514888Y-69687253D01*
X116469877Y-69507364D01*
X116447889Y-69383566D01*
X116450590Y-69338396D01*
X116517227Y-69315127D01*
X116665213Y-69289343D01*
X116876188Y-69262953D01*
X117131797Y-69237865D01*
X117413682Y-69215987D01*
X117703484Y-69199228D01*
X117846137Y-69193345D01*
X118266400Y-69178644D01*
X118856639Y-71224617D01*
X118987469Y-71678350D01*
X119114371Y-72118895D01*
X119233633Y-72533335D01*
X119341543Y-72908755D01*
X119434390Y-73232241D01*
X119508463Y-73490875D01*
X119560051Y-73671742D01*
X119573638Y-73719705D01*
X119718088Y-74226577D01*
X119847289Y-74669967D01*
X119959514Y-75044329D01*
X120053036Y-75344119D01*
X120126126Y-75563793D01*
X120177057Y-75697806D01*
X120203375Y-75740727D01*
X120217704Y-75736846D01*
X120234536Y-75720726D01*
X120256406Y-75685651D01*
X120285845Y-75624903D01*
X120325387Y-75531765D01*
X120377566Y-75399522D01*
X120444914Y-75221456D01*
X120529965Y-74990852D01*
X120635251Y-74700991D01*
X120763307Y-74345157D01*
X120916664Y-73916634D01*
X121097856Y-73408705D01*
X121309417Y-72814654D01*
X121351396Y-72696719D01*
X121598507Y-72002387D01*
X121814396Y-71396045D01*
X122001412Y-70871692D01*
X122161904Y-70423331D01*
X122298220Y-70044962D01*
X122412712Y-69730586D01*
X122507726Y-69474205D01*
X122585613Y-69269820D01*
X122648721Y-69111431D01*
X122699400Y-68993040D01*
X122739999Y-68908648D01*
X122772866Y-68852257D01*
X122800351Y-68817866D01*
X122824804Y-68799478D01*
X122848572Y-68791093D01*
X122874006Y-68786712D01*
X122883132Y-68785130D01*
X123026961Y-68764380D01*
X123226939Y-68743928D01*
X123463859Y-68724785D01*
X123718517Y-68707960D01*
X123971707Y-68694466D01*
X124204224Y-68685314D01*
X124396862Y-68681514D01*
X124530417Y-68684077D01*
G36*
X127963322Y-78961095D02*
G01*
X128172878Y-78968573D01*
X128336054Y-78985463D01*
X128479551Y-79015381D01*
X128630069Y-79061944D01*
X128746978Y-79103827D01*
X129149319Y-79303865D01*
X129502401Y-79586024D01*
X129799320Y-79942052D01*
X130033172Y-80363701D01*
X130194861Y-80834027D01*
X130242284Y-81054078D01*
X130278773Y-81287173D01*
X130302511Y-81510874D01*
X130311683Y-81702744D01*
X130304473Y-81840345D01*
X130281132Y-81900163D01*
X130202674Y-81921062D01*
X130052538Y-81940005D01*
X129853883Y-81956069D01*
X129629868Y-81968332D01*
X129403651Y-81975871D01*
X129198392Y-81977764D01*
X129037248Y-81973088D01*
X128943378Y-81960920D01*
X128930035Y-81953985D01*
X128898210Y-81876835D01*
X128865585Y-81741795D01*
X128854568Y-81679037D01*
X128786158Y-81406286D01*
X128675320Y-81146987D01*
X128537645Y-80932283D01*
X128422767Y-80816646D01*
X128157330Y-80675012D01*
X127822778Y-80599278D01*
X127426337Y-80591060D01*
X127416683Y-80591670D01*
X127046709Y-80651062D01*
X126748951Y-80775017D01*
X126526176Y-80961047D01*
X126381149Y-81206664D01*
X126316639Y-81509378D01*
X126313521Y-81583772D01*
X126329062Y-81788960D01*
X126387444Y-81969796D01*
X126496985Y-82132857D01*
X126666001Y-82284720D01*
X126902807Y-82431964D01*
X127215721Y-82581166D01*
X127613059Y-82738903D01*
X127907784Y-82844684D01*
X128354315Y-83006690D01*
X128718145Y-83154522D01*
X129013894Y-83296127D01*
X129256183Y-83439450D01*
X129459633Y-83592437D01*
X129638864Y-83763035D01*
X129680471Y-83808115D01*
X129854986Y-84020401D01*
X129993019Y-84238399D01*
X130113249Y-84495388D01*
X130207971Y-84747996D01*
X130261153Y-84906824D01*
X130298872Y-85044712D01*
X130323805Y-85184413D01*
X130338631Y-85348683D01*
X130346028Y-85560276D01*
X130348676Y-85841946D01*
X130348949Y-85945638D01*
X130345949Y-86311492D01*
X130331872Y-86603749D01*
X130301393Y-86848449D01*
X130249190Y-87071633D01*
X130169938Y-87299341D01*
X130058313Y-87557613D01*
X129989189Y-87705314D01*
X129785370Y-88053860D01*
X129522792Y-88380796D01*
X129222683Y-88664918D01*
X128906275Y-88885024D01*
X128713886Y-88978975D01*
X128287239Y-89110070D01*
X127809468Y-89188100D01*
X127315633Y-89210327D01*
X126840797Y-89174015D01*
X126652149Y-89139931D01*
X126185991Y-88991169D01*
X125776342Y-88760607D01*
X125424219Y-88449399D01*
X125130638Y-88058697D01*
X124896616Y-87589655D01*
X124723170Y-87043426D01*
X124694473Y-86918723D01*
X124621321Y-86552639D01*
X124572561Y-86247062D01*
X124548912Y-86010210D01*
X124551091Y-85850306D01*
X124579817Y-85775571D01*
X124594258Y-85770982D01*
X124669614Y-85765085D01*
X124821661Y-85749043D01*
X125028092Y-85725325D01*
X125259363Y-85697303D01*
X125491245Y-85670518D01*
X125684640Y-85651919D01*
X125819465Y-85643176D01*
X125875635Y-85645961D01*
X125875725Y-85646046D01*
X125894215Y-85702498D01*
X125923164Y-85832126D01*
X125957043Y-86009594D01*
X125965306Y-86056562D01*
X126077296Y-86500323D01*
X126245953Y-86862442D01*
X126472057Y-87143964D01*
X126756387Y-87345934D01*
X126999286Y-87443183D01*
X127385165Y-87514203D01*
X127751437Y-87499367D01*
X128087155Y-87406095D01*
X128381368Y-87241808D01*
X128623127Y-87013925D01*
X128801484Y-86729866D01*
X128905488Y-86397050D01*
X128928192Y-86136018D01*
X128915682Y-85895915D01*
X128871727Y-85693421D01*
X128786792Y-85519846D01*
X128651340Y-85366499D01*
X128455837Y-85224687D01*
X128190746Y-85085721D01*
X127846531Y-84940909D01*
X127460172Y-84798029D01*
X126978282Y-84619512D01*
X126582113Y-84455157D01*
X126259801Y-84298208D01*
X125999481Y-84141909D01*
X125789288Y-83979503D01*
X125617357Y-83804236D01*
X125537081Y-83702996D01*
X125285905Y-83317858D01*
X125108578Y-82932802D01*
X124997259Y-82522783D01*
X124944105Y-82062756D01*
X124936828Y-81786044D01*
X124954958Y-81351908D01*
X125016288Y-80973893D01*
X125129195Y-80614590D01*
X125269268Y-80301384D01*
X125531331Y-79880143D01*
X125860957Y-79529788D01*
X126252106Y-79255636D01*
X126661801Y-79075058D01*
X126824985Y-79025457D01*
X126981524Y-78992100D01*
X127157921Y-78971979D01*
X127380684Y-78962087D01*
X127676318Y-78959415D01*
X127680687Y-78959414D01*
X127963322Y-78961095D01*
X127963322Y-78961095D01*
G37*
X127963322Y-78961095D02*
X128172878Y-78968573D01*
X128336054Y-78985463D01*
X128479551Y-79015381D01*
X128630069Y-79061944D01*
X128746978Y-79103827D01*
X129149319Y-79303865D01*
X129502401Y-79586024D01*
X129799320Y-79942052D01*
X130033172Y-80363701D01*
X130194861Y-80834027D01*
X130242284Y-81054078D01*
X130278773Y-81287173D01*
X130302511Y-81510874D01*
X130311683Y-81702744D01*
X130304473Y-81840345D01*
X130281132Y-81900163D01*
X130202674Y-81921062D01*
X130052538Y-81940005D01*
X129853883Y-81956069D01*
X129629868Y-81968332D01*
X129403651Y-81975871D01*
X129198392Y-81977764D01*
X129037248Y-81973088D01*
X128943378Y-81960920D01*
X128930035Y-81953985D01*
X128898210Y-81876835D01*
X128865585Y-81741795D01*
X128854568Y-81679037D01*
X128786158Y-81406286D01*
X128675320Y-81146987D01*
X128537645Y-80932283D01*
X128422767Y-80816646D01*
X128157330Y-80675012D01*
X127822778Y-80599278D01*
X127426337Y-80591060D01*
X127416683Y-80591670D01*
X127046709Y-80651062D01*
X126748951Y-80775017D01*
X126526176Y-80961047D01*
X126381149Y-81206664D01*
X126316639Y-81509378D01*
X126313521Y-81583772D01*
X126329062Y-81788960D01*
X126387444Y-81969796D01*
X126496985Y-82132857D01*
X126666001Y-82284720D01*
X126902807Y-82431964D01*
X127215721Y-82581166D01*
X127613059Y-82738903D01*
X127907784Y-82844684D01*
X128354315Y-83006690D01*
X128718145Y-83154522D01*
X129013894Y-83296127D01*
X129256183Y-83439450D01*
X129459633Y-83592437D01*
X129638864Y-83763035D01*
X129680471Y-83808115D01*
X129854986Y-84020401D01*
X129993019Y-84238399D01*
X130113249Y-84495388D01*
X130207971Y-84747996D01*
X130261153Y-84906824D01*
X130298872Y-85044712D01*
X130323805Y-85184413D01*
X130338631Y-85348683D01*
X130346028Y-85560276D01*
X130348676Y-85841946D01*
X130348949Y-85945638D01*
X130345949Y-86311492D01*
X130331872Y-86603749D01*
X130301393Y-86848449D01*
X130249190Y-87071633D01*
X130169938Y-87299341D01*
X130058313Y-87557613D01*
X129989189Y-87705314D01*
X129785370Y-88053860D01*
X129522792Y-88380796D01*
X129222683Y-88664918D01*
X128906275Y-88885024D01*
X128713886Y-88978975D01*
X128287239Y-89110070D01*
X127809468Y-89188100D01*
X127315633Y-89210327D01*
X126840797Y-89174015D01*
X126652149Y-89139931D01*
X126185991Y-88991169D01*
X125776342Y-88760607D01*
X125424219Y-88449399D01*
X125130638Y-88058697D01*
X124896616Y-87589655D01*
X124723170Y-87043426D01*
X124694473Y-86918723D01*
X124621321Y-86552639D01*
X124572561Y-86247062D01*
X124548912Y-86010210D01*
X124551091Y-85850306D01*
X124579817Y-85775571D01*
X124594258Y-85770982D01*
X124669614Y-85765085D01*
X124821661Y-85749043D01*
X125028092Y-85725325D01*
X125259363Y-85697303D01*
X125491245Y-85670518D01*
X125684640Y-85651919D01*
X125819465Y-85643176D01*
X125875635Y-85645961D01*
X125875725Y-85646046D01*
X125894215Y-85702498D01*
X125923164Y-85832126D01*
X125957043Y-86009594D01*
X125965306Y-86056562D01*
X126077296Y-86500323D01*
X126245953Y-86862442D01*
X126472057Y-87143964D01*
X126756387Y-87345934D01*
X126999286Y-87443183D01*
X127385165Y-87514203D01*
X127751437Y-87499367D01*
X128087155Y-87406095D01*
X128381368Y-87241808D01*
X128623127Y-87013925D01*
X128801484Y-86729866D01*
X128905488Y-86397050D01*
X128928192Y-86136018D01*
X128915682Y-85895915D01*
X128871727Y-85693421D01*
X128786792Y-85519846D01*
X128651340Y-85366499D01*
X128455837Y-85224687D01*
X128190746Y-85085721D01*
X127846531Y-84940909D01*
X127460172Y-84798029D01*
X126978282Y-84619512D01*
X126582113Y-84455157D01*
X126259801Y-84298208D01*
X125999481Y-84141909D01*
X125789288Y-83979503D01*
X125617357Y-83804236D01*
X125537081Y-83702996D01*
X125285905Y-83317858D01*
X125108578Y-82932802D01*
X124997259Y-82522783D01*
X124944105Y-82062756D01*
X124936828Y-81786044D01*
X124954958Y-81351908D01*
X125016288Y-80973893D01*
X125129195Y-80614590D01*
X125269268Y-80301384D01*
X125531331Y-79880143D01*
X125860957Y-79529788D01*
X126252106Y-79255636D01*
X126661801Y-79075058D01*
X126824985Y-79025457D01*
X126981524Y-78992100D01*
X127157921Y-78971979D01*
X127380684Y-78962087D01*
X127676318Y-78959415D01*
X127680687Y-78959414D01*
X127963322Y-78961095D01*
G36*
X130151976Y-91240135D02*
G01*
X130138210Y-91501217D01*
X130124714Y-91724432D01*
X130112700Y-91891996D01*
X130103379Y-91986120D01*
X130100236Y-91999972D01*
X130064118Y-92017815D01*
X129985640Y-92031381D01*
X129853181Y-92041271D01*
X129655119Y-92048085D01*
X129379836Y-92052424D01*
X129039275Y-92054787D01*
X128727293Y-92056589D01*
X128500564Y-92060059D01*
X128344539Y-92067065D01*
X128244668Y-92079475D01*
X128186401Y-92099158D01*
X128155188Y-92127984D01*
X128136479Y-92167819D01*
X128135331Y-92170884D01*
X128126245Y-92239453D01*
X128114314Y-92398957D01*
X128099953Y-92640580D01*
X128083575Y-92955507D01*
X128065597Y-93334922D01*
X128046431Y-93770010D01*
X128026494Y-94251955D01*
X128006199Y-94771942D01*
X127985961Y-95321155D01*
X127982195Y-95426974D01*
X127961838Y-95996302D01*
X127941624Y-96550207D01*
X127921962Y-97078205D01*
X127903261Y-97569816D01*
X127885929Y-98014557D01*
X127870375Y-98401946D01*
X127857008Y-98721500D01*
X127846237Y-98962738D01*
X127838470Y-99115177D01*
X127838203Y-99119705D01*
X127805442Y-99668624D01*
X127144140Y-99693575D01*
X126848251Y-99701039D01*
X126635143Y-99698277D01*
X126510764Y-99685512D01*
X126479156Y-99668624D01*
X126477859Y-99573511D01*
X126480655Y-99381246D01*
X126487460Y-99094394D01*
X126498188Y-98715521D01*
X126512755Y-98247191D01*
X126531075Y-97691968D01*
X126553064Y-97052417D01*
X126578636Y-96331104D01*
X126607706Y-95530593D01*
X126640190Y-94653448D01*
X126676002Y-93702235D01*
X126683290Y-93510340D01*
X126695868Y-93158178D01*
X126705677Y-92839884D01*
X126712435Y-92568728D01*
X126715860Y-92357978D01*
X126715668Y-92220904D01*
X126711805Y-92170927D01*
X126657561Y-92163921D01*
X126518999Y-92157049D01*
X126311602Y-92150768D01*
X126050854Y-92145530D01*
X125752239Y-92141792D01*
X125705686Y-92141393D01*
X124721167Y-92133457D01*
X124732352Y-91410513D01*
X124737919Y-91152306D01*
X124745659Y-90931402D01*
X124754700Y-90766149D01*
X124764167Y-90674900D01*
X124767931Y-90663175D01*
X124826383Y-90653480D01*
X124982083Y-90642411D01*
X125232488Y-90630055D01*
X125575054Y-90616497D01*
X126007235Y-90601824D01*
X126526488Y-90586123D01*
X127130270Y-90569479D01*
X127816034Y-90551979D01*
X128581239Y-90533708D01*
X128597806Y-90533325D01*
X130188598Y-90496519D01*
X130151976Y-91240135D01*
X130151976Y-91240135D01*
G37*
X130151976Y-91240135D02*
X130138210Y-91501217D01*
X130124714Y-91724432D01*
X130112700Y-91891996D01*
X130103379Y-91986120D01*
X130100236Y-91999972D01*
X130064118Y-92017815D01*
X129985640Y-92031381D01*
X129853181Y-92041271D01*
X129655119Y-92048085D01*
X129379836Y-92052424D01*
X129039275Y-92054787D01*
X128727293Y-92056589D01*
X128500564Y-92060059D01*
X128344539Y-92067065D01*
X128244668Y-92079475D01*
X128186401Y-92099158D01*
X128155188Y-92127984D01*
X128136479Y-92167819D01*
X128135331Y-92170884D01*
X128126245Y-92239453D01*
X128114314Y-92398957D01*
X128099953Y-92640580D01*
X128083575Y-92955507D01*
X128065597Y-93334922D01*
X128046431Y-93770010D01*
X128026494Y-94251955D01*
X128006199Y-94771942D01*
X127985961Y-95321155D01*
X127982195Y-95426974D01*
X127961838Y-95996302D01*
X127941624Y-96550207D01*
X127921962Y-97078205D01*
X127903261Y-97569816D01*
X127885929Y-98014557D01*
X127870375Y-98401946D01*
X127857008Y-98721500D01*
X127846237Y-98962738D01*
X127838470Y-99115177D01*
X127838203Y-99119705D01*
X127805442Y-99668624D01*
X127144140Y-99693575D01*
X126848251Y-99701039D01*
X126635143Y-99698277D01*
X126510764Y-99685512D01*
X126479156Y-99668624D01*
X126477859Y-99573511D01*
X126480655Y-99381246D01*
X126487460Y-99094394D01*
X126498188Y-98715521D01*
X126512755Y-98247191D01*
X126531075Y-97691968D01*
X126553064Y-97052417D01*
X126578636Y-96331104D01*
X126607706Y-95530593D01*
X126640190Y-94653448D01*
X126676002Y-93702235D01*
X126683290Y-93510340D01*
X126695868Y-93158178D01*
X126705677Y-92839884D01*
X126712435Y-92568728D01*
X126715860Y-92357978D01*
X126715668Y-92220904D01*
X126711805Y-92170927D01*
X126657561Y-92163921D01*
X126518999Y-92157049D01*
X126311602Y-92150768D01*
X126050854Y-92145530D01*
X125752239Y-92141792D01*
X125705686Y-92141393D01*
X124721167Y-92133457D01*
X124732352Y-91410513D01*
X124737919Y-91152306D01*
X124745659Y-90931402D01*
X124754700Y-90766149D01*
X124764167Y-90674900D01*
X124767931Y-90663175D01*
X124826383Y-90653480D01*
X124982083Y-90642411D01*
X125232488Y-90630055D01*
X125575054Y-90616497D01*
X126007235Y-90601824D01*
X126526488Y-90586123D01*
X127130270Y-90569479D01*
X127816034Y-90551979D01*
X128581239Y-90533708D01*
X128597806Y-90533325D01*
X130188598Y-90496519D01*
X130151976Y-91240135D01*
G36*
X128601830Y-50705108D02*
G01*
X129143806Y-50767696D01*
X129653292Y-50896094D01*
X130145028Y-51096799D01*
X130633755Y-51376311D01*
X131134216Y-51741128D01*
X131341266Y-51912632D01*
X131419453Y-51991958D01*
X131551874Y-52140842D01*
X131731193Y-52350293D01*
X131950073Y-52611317D01*
X132201179Y-52914926D01*
X132477175Y-53252125D01*
X132770726Y-53613925D01*
X133074495Y-53991334D01*
X133381147Y-54375360D01*
X133683347Y-54757011D01*
X133973757Y-55127297D01*
X134167917Y-55377267D01*
X134253664Y-55487503D01*
X134391776Y-55664244D01*
X134572904Y-55895559D01*
X134787695Y-56169519D01*
X135026799Y-56474195D01*
X135280865Y-56797657D01*
X135427236Y-56983882D01*
X135842968Y-57513050D01*
X136276741Y-58065876D01*
X136724296Y-58636892D01*
X137181375Y-59220632D01*
X137643721Y-59811629D01*
X138107077Y-60404416D01*
X138567184Y-60993526D01*
X139019785Y-61573493D01*
X139460622Y-62138850D01*
X139885438Y-62684130D01*
X140289974Y-63203866D01*
X140669973Y-63692591D01*
X141021178Y-64144839D01*
X141339330Y-64555144D01*
X141620173Y-64918037D01*
X141859447Y-65228053D01*
X142052896Y-65479724D01*
X142196261Y-65667584D01*
X142285286Y-65786166D01*
X142312928Y-65824928D01*
X142382382Y-65937481D01*
X142440300Y-66048150D01*
X142487560Y-66166674D01*
X142525037Y-66302792D01*
X142553609Y-66466242D01*
X142574151Y-66666762D01*
X142587541Y-66914091D01*
X142594654Y-67217967D01*
X142596368Y-67588128D01*
X142593558Y-68034313D01*
X142587102Y-68566260D01*
X142583341Y-68829332D01*
X142576868Y-69293027D01*
X142569828Y-69838397D01*
X142562423Y-70447320D01*
X142554855Y-71101669D01*
X142547327Y-71783321D01*
X142540042Y-72474150D01*
X142533201Y-73156033D01*
X142527008Y-73810844D01*
X142524248Y-74118919D01*
X142518578Y-74683282D01*
X142511725Y-75228215D01*
X142503901Y-75743781D01*
X142495322Y-76220043D01*
X142486202Y-76647065D01*
X142476753Y-77014909D01*
X142467191Y-77313639D01*
X142457728Y-77533318D01*
X142448579Y-77664009D01*
X142447793Y-77670941D01*
X142343306Y-78178366D01*
X142160537Y-78644791D01*
X141907050Y-79060577D01*
X141590411Y-79416084D01*
X141218184Y-79701674D01*
X140797935Y-79907708D01*
X140655147Y-79955085D01*
X140581187Y-79975817D01*
X140504602Y-79993700D01*
X140416319Y-80009301D01*
X140307265Y-80023185D01*
X140168368Y-80035917D01*
X139990556Y-80048064D01*
X139764756Y-80060190D01*
X139481896Y-80072862D01*
X139132902Y-80086644D01*
X138708704Y-80102103D01*
X138200227Y-80119803D01*
X137785795Y-80133949D01*
X137203674Y-80154707D01*
X136712054Y-80174714D01*
X136301648Y-80194857D01*
X135963167Y-80216021D01*
X135687323Y-80239090D01*
X135464827Y-80264950D01*
X135286390Y-80294487D01*
X135142726Y-80328585D01*
X135024544Y-80368130D01*
X134940367Y-80405129D01*
X134610120Y-80618187D01*
X134353408Y-80898428D01*
X134171261Y-81244450D01*
X134077703Y-81579233D01*
X134068556Y-81677368D01*
X134059605Y-81872273D01*
X134050895Y-82160915D01*
X134042468Y-82540262D01*
X134034370Y-83007279D01*
X134026645Y-83558935D01*
X134019336Y-84192196D01*
X134012487Y-84904028D01*
X134006144Y-85691400D01*
X134000348Y-86551277D01*
X133996920Y-87143281D01*
X133988483Y-88666396D01*
X133980299Y-90090299D01*
X133972362Y-91415582D01*
X133964668Y-92642837D01*
X133957212Y-93772655D01*
X133949990Y-94805627D01*
X133942996Y-95742346D01*
X133936225Y-96583403D01*
X133929673Y-97329389D01*
X133923335Y-97980895D01*
X133917206Y-98538515D01*
X133911282Y-99002838D01*
X133905556Y-99374457D01*
X133900026Y-99653963D01*
X133894685Y-99841948D01*
X133892907Y-99885210D01*
X133860359Y-100297457D01*
X133798095Y-100654822D01*
X133695971Y-100997182D01*
X133543843Y-101364414D01*
X133484705Y-101490039D01*
X133216874Y-101948026D01*
X132888005Y-102329709D01*
X132489735Y-102643558D01*
X132162528Y-102828731D01*
X132041311Y-102889243D01*
X131934277Y-102942408D01*
X131834445Y-102988952D01*
X131734838Y-103029600D01*
X131628477Y-103065076D01*
X131508381Y-103096107D01*
X131367573Y-103123418D01*
X131199073Y-103147733D01*
X130995902Y-103169777D01*
X130751081Y-103190277D01*
X130457632Y-103209956D01*
X130108574Y-103229541D01*
X129696929Y-103249756D01*
X129215719Y-103271326D01*
X128657963Y-103294977D01*
X128016683Y-103321433D01*
X127284900Y-103351421D01*
X127031964Y-103361820D01*
X126442053Y-103385081D01*
X125864298Y-103405898D01*
X125307884Y-103424070D01*
X124781997Y-103439397D01*
X124295820Y-103451678D01*
X123858540Y-103460713D01*
X123479341Y-103466302D01*
X123167408Y-103468243D01*
X122931926Y-103466336D01*
X122782080Y-103460381D01*
X122740412Y-103455494D01*
X122628615Y-103427659D01*
X122460435Y-103379489D01*
X122291296Y-103327385D01*
X121813417Y-103126809D01*
X121401592Y-102852257D01*
X121058171Y-102506579D01*
X120785502Y-102092625D01*
X120585936Y-101613248D01*
X120468738Y-101115776D01*
X120457696Y-101033712D01*
X120448733Y-100933465D01*
X120441986Y-100810390D01*
X120437595Y-100659844D01*
X120435698Y-100477184D01*
X120436433Y-100257767D01*
X120439938Y-99996948D01*
X120446352Y-99690084D01*
X120455814Y-99332533D01*
X120468461Y-98919650D01*
X120484432Y-98446791D01*
X120503866Y-97909314D01*
X120526901Y-97302575D01*
X120553675Y-96621931D01*
X120584327Y-95862737D01*
X120618994Y-95020352D01*
X120657817Y-94090130D01*
X120700932Y-93067428D01*
X120726781Y-92457819D01*
X120744730Y-92031936D01*
X120761199Y-91634778D01*
X120775725Y-91278028D01*
X120787843Y-90973368D01*
X120797089Y-90732481D01*
X120802999Y-90567051D01*
X120805108Y-90488759D01*
X120805100Y-90486699D01*
X120806501Y-90402824D01*
X120811302Y-90228998D01*
X120819153Y-89975005D01*
X120829702Y-89650629D01*
X120842599Y-89265652D01*
X120857494Y-88829857D01*
X120874036Y-88353027D01*
X120891875Y-87844945D01*
X120910659Y-87315394D01*
X120930038Y-86774158D01*
X120949662Y-86231020D01*
X120969181Y-85695761D01*
X120988242Y-85178167D01*
X121006497Y-84688018D01*
X121023594Y-84235100D01*
X121039182Y-83829193D01*
X121052912Y-83480083D01*
X121064433Y-83197551D01*
X121073393Y-82991381D01*
X121074739Y-82962452D01*
X121086366Y-82698826D01*
X121090329Y-82513742D01*
X121084163Y-82386074D01*
X121065399Y-82294696D01*
X121031572Y-82218481D01*
X120980215Y-82136304D01*
X120977861Y-82132744D01*
X120852994Y-81982683D01*
X120702459Y-81850993D01*
X120667104Y-81827269D01*
X120603219Y-81789675D01*
X120540366Y-81761937D01*
X120463782Y-81743085D01*
X120358702Y-81732153D01*
X120210365Y-81728172D01*
X120004007Y-81730176D01*
X119724865Y-81737197D01*
X119428676Y-81746099D01*
X118732654Y-81767230D01*
X118128914Y-81784888D01*
X117609998Y-81799100D01*
X117168444Y-81809891D01*
X116796795Y-81817288D01*
X116487590Y-81821315D01*
X116233369Y-81821999D01*
X116026674Y-81819365D01*
X115860044Y-81813440D01*
X115726020Y-81804249D01*
X115617142Y-81791819D01*
X115525951Y-81776174D01*
X115454754Y-81759856D01*
X114964659Y-81589440D01*
X114540726Y-81344401D01*
X114183219Y-81024944D01*
X113892398Y-80631276D01*
X113794868Y-80453210D01*
X113667149Y-80177501D01*
X113574808Y-79920520D01*
X113513803Y-79658769D01*
X113480093Y-79368746D01*
X113469636Y-79026953D01*
X113470888Y-78967035D01*
X115133503Y-78967035D01*
X115133549Y-79109096D01*
X115174723Y-79430582D01*
X115292759Y-79689402D01*
X115490620Y-79889512D01*
X115771271Y-80034863D01*
X115847285Y-80060789D01*
X115928965Y-80084488D01*
X116013517Y-80102755D01*
X116112666Y-80115745D01*
X116238134Y-80123617D01*
X116401645Y-80126529D01*
X116614921Y-80124638D01*
X116889687Y-80118101D01*
X117237666Y-80107077D01*
X117670580Y-80091722D01*
X117798970Y-80087023D01*
X118432826Y-80064361D01*
X118976024Y-80046854D01*
X119437603Y-80035028D01*
X119826603Y-80029406D01*
X120152062Y-80030513D01*
X120423019Y-80038875D01*
X120648513Y-80055015D01*
X120837583Y-80079460D01*
X120999266Y-80112733D01*
X121142603Y-80155359D01*
X121276632Y-80207863D01*
X121410392Y-80270770D01*
X121467917Y-80300033D01*
X121855564Y-80555358D01*
X122183156Y-80886432D01*
X122444283Y-81284846D01*
X122632535Y-81742189D01*
X122671054Y-81878644D01*
X122688528Y-81950723D01*
X122703289Y-82024815D01*
X122715246Y-82108062D01*
X122724310Y-82207607D01*
X122730390Y-82330594D01*
X122733396Y-82484164D01*
X122733237Y-82675461D01*
X122729824Y-82911628D01*
X122723067Y-83199807D01*
X122712874Y-83547141D01*
X122699157Y-83960773D01*
X122681824Y-84447846D01*
X122660785Y-85015503D01*
X122635951Y-85670886D01*
X122616854Y-86170196D01*
X122602650Y-86543826D01*
X122585336Y-87004332D01*
X122565385Y-87538848D01*
X122543272Y-88134512D01*
X122519473Y-88778459D01*
X122494460Y-89457825D01*
X122468710Y-90159745D01*
X122442696Y-90871357D01*
X122416893Y-91579797D01*
X122392281Y-92258212D01*
X122367845Y-92930259D01*
X122343188Y-93602682D01*
X122318724Y-94264559D01*
X122294865Y-94904967D01*
X122272024Y-95512982D01*
X122250613Y-96077681D01*
X122231045Y-96588142D01*
X122213731Y-97033442D01*
X122199086Y-97402657D01*
X122187520Y-97684865D01*
X122185930Y-97722455D01*
X122169267Y-98149231D01*
X122153983Y-98606861D01*
X122140865Y-99066553D01*
X122130695Y-99499513D01*
X122124260Y-99876949D01*
X122122625Y-100045680D01*
X122116640Y-101021558D01*
X122253776Y-101229635D01*
X122391912Y-101407132D01*
X122552538Y-101538224D01*
X122766171Y-101644725D01*
X122908684Y-101697747D01*
X122978096Y-101721237D01*
X123044820Y-101740839D01*
X123117284Y-101756533D01*
X123203918Y-101768299D01*
X123313151Y-101776117D01*
X123453412Y-101779967D01*
X123633130Y-101779829D01*
X123860734Y-101775683D01*
X124144654Y-101767508D01*
X124493319Y-101755285D01*
X124915157Y-101738993D01*
X125418598Y-101718613D01*
X126012072Y-101694124D01*
X126108782Y-101690120D01*
X126919226Y-101656587D01*
X127635957Y-101626917D01*
X128264975Y-101600760D01*
X128812280Y-101577767D01*
X129283874Y-101557588D01*
X129685758Y-101539874D01*
X130023931Y-101524275D01*
X130304396Y-101510441D01*
X130533152Y-101498024D01*
X130716201Y-101486673D01*
X130859543Y-101476039D01*
X130969179Y-101465772D01*
X131051109Y-101455524D01*
X131111336Y-101444943D01*
X131155859Y-101433682D01*
X131190679Y-101421390D01*
X131221797Y-101407718D01*
X131255214Y-101392315D01*
X131260307Y-101390050D01*
X131581251Y-101200761D01*
X131835001Y-100943772D01*
X132025248Y-100614166D01*
X132155682Y-100207026D01*
X132158925Y-100192593D01*
X132169522Y-100094902D01*
X132179414Y-99905240D01*
X132188450Y-99631439D01*
X132196481Y-99281328D01*
X132203358Y-98862741D01*
X132208929Y-98383507D01*
X132213047Y-97851457D01*
X132215561Y-97274424D01*
X132215696Y-97223438D01*
X132217467Y-96680615D01*
X132219974Y-96145019D01*
X132223110Y-95629243D01*
X132226763Y-95145879D01*
X132230826Y-94707519D01*
X132235189Y-94326757D01*
X132239742Y-94016185D01*
X132244376Y-93788396D01*
X132246005Y-93730314D01*
X132250483Y-93548993D01*
X132255505Y-93278653D01*
X132260936Y-92930080D01*
X132266646Y-92514057D01*
X132272503Y-92041367D01*
X132278375Y-91522794D01*
X132284129Y-90969121D01*
X132289635Y-90391133D01*
X132294759Y-89799612D01*
X132296065Y-89638369D01*
X132305612Y-88467650D01*
X132314806Y-87394643D01*
X132323675Y-86417258D01*
X132332245Y-85533406D01*
X132340545Y-84740996D01*
X132348601Y-84037937D01*
X132356440Y-83422140D01*
X132364090Y-82891514D01*
X132371578Y-82443970D01*
X132378931Y-82077416D01*
X132386177Y-81789762D01*
X132393342Y-81578919D01*
X132400454Y-81442797D01*
X132403325Y-81408453D01*
X132498515Y-80926005D01*
X132680529Y-80445863D01*
X132938273Y-79989631D01*
X133260652Y-79578910D01*
X133430418Y-79408594D01*
X133812817Y-79104428D01*
X134231105Y-78871388D01*
X134697507Y-78705056D01*
X135224243Y-78601015D01*
X135789725Y-78555914D01*
X135996741Y-78548410D01*
X136286307Y-78537223D01*
X136641267Y-78523048D01*
X137044463Y-78506587D01*
X137478738Y-78488535D01*
X137926936Y-78469593D01*
X138234911Y-78456386D01*
X138713235Y-78435311D01*
X139102536Y-78416882D01*
X139413528Y-78400145D01*
X139656926Y-78384147D01*
X139843446Y-78367935D01*
X139983803Y-78350554D01*
X140088712Y-78331052D01*
X140168887Y-78308475D01*
X140235044Y-78281870D01*
X140244163Y-78277596D01*
X140457244Y-78121381D01*
X140623454Y-77879671D01*
X140740170Y-77556425D01*
X140750749Y-77512239D01*
X140763778Y-77407383D01*
X140776650Y-77213014D01*
X140789286Y-76937312D01*
X140801604Y-76588453D01*
X140813524Y-76174614D01*
X140824966Y-75703974D01*
X140835849Y-75184710D01*
X140846093Y-74624998D01*
X140855618Y-74033017D01*
X140864343Y-73416945D01*
X140872188Y-72784957D01*
X140879073Y-72145232D01*
X140884916Y-71505948D01*
X140889638Y-70875282D01*
X140893159Y-70261411D01*
X140895397Y-69672512D01*
X140896273Y-69116764D01*
X140895706Y-68602343D01*
X140893615Y-68137427D01*
X140889921Y-67730194D01*
X140884543Y-67388821D01*
X140877400Y-67121485D01*
X140868413Y-66936364D01*
X140857500Y-66841635D01*
X140855711Y-66835779D01*
X140801336Y-66736090D01*
X140700484Y-66586537D01*
X140571267Y-66413344D01*
X140514796Y-66342209D01*
X140440336Y-66248379D01*
X140310000Y-66082055D01*
X140128857Y-65849776D01*
X139901980Y-65558079D01*
X139634439Y-65213504D01*
X139331306Y-64822588D01*
X138997652Y-64391870D01*
X138638547Y-63927887D01*
X138259064Y-63437180D01*
X137864272Y-62926285D01*
X137605817Y-62591611D01*
X137205352Y-62072970D01*
X136818088Y-61571525D01*
X136448972Y-61093671D01*
X136102947Y-60645805D01*
X135784959Y-60234326D01*
X135499952Y-59865629D01*
X135252870Y-59546112D01*
X135048659Y-59282172D01*
X134892264Y-59080206D01*
X134788628Y-58946612D01*
X134751439Y-58898880D01*
X134680601Y-58807518D01*
X134554942Y-58644434D01*
X134380260Y-58417187D01*
X134162353Y-58133339D01*
X133907021Y-57800451D01*
X133620060Y-57426082D01*
X133307272Y-57017795D01*
X132974453Y-56583149D01*
X132627402Y-56129706D01*
X132512571Y-55979626D01*
X132159522Y-55519816D01*
X131815969Y-55075528D01*
X131488034Y-54654478D01*
X131181838Y-54264383D01*
X130903502Y-53912961D01*
X130659147Y-53607928D01*
X130454895Y-53357001D01*
X130296867Y-53167897D01*
X130191184Y-53048333D01*
X130170826Y-53027399D01*
X129777502Y-52699641D01*
X129360114Y-52464020D01*
X128925571Y-52321876D01*
X128480782Y-52274549D01*
X128032660Y-52323378D01*
X127588112Y-52469703D01*
X127501877Y-52509982D01*
X127348193Y-52589394D01*
X127206688Y-52673824D01*
X127071061Y-52770733D01*
X126935013Y-52887580D01*
X126792243Y-53031825D01*
X126636453Y-53210927D01*
X126461342Y-53432347D01*
X126260611Y-53703544D01*
X126027959Y-54031977D01*
X125757087Y-54425107D01*
X125441695Y-54890394D01*
X125246004Y-55181198D01*
X124951267Y-55619875D01*
X124680240Y-56023068D01*
X124428429Y-56397371D01*
X124191339Y-56749378D01*
X123964476Y-57085686D01*
X123743345Y-57412889D01*
X123523453Y-57737581D01*
X123300304Y-58066359D01*
X123069404Y-58405816D01*
X122826259Y-58762547D01*
X122566374Y-59143149D01*
X122285256Y-59554214D01*
X121978409Y-60002339D01*
X121641339Y-60494119D01*
X121269552Y-61036148D01*
X120858554Y-61635021D01*
X120403849Y-62297333D01*
X119900945Y-63029679D01*
X119430685Y-63714400D01*
X118996601Y-64346090D01*
X118575317Y-64958501D01*
X118170610Y-65546176D01*
X117786255Y-66103660D01*
X117426030Y-66625496D01*
X117093711Y-67106228D01*
X116793075Y-67540400D01*
X116527898Y-67922555D01*
X116301957Y-68247236D01*
X116119030Y-68508988D01*
X115982891Y-68702354D01*
X115897319Y-68821878D01*
X115873083Y-68854283D01*
X115657415Y-69151318D01*
X115508540Y-69417509D01*
X115413315Y-69681771D01*
X115358598Y-69973020D01*
X115356430Y-69991015D01*
X115345279Y-70129411D01*
X115333472Y-70353630D01*
X115321473Y-70649697D01*
X115309744Y-71003639D01*
X115298749Y-71401482D01*
X115288950Y-71829251D01*
X115280817Y-72272554D01*
X115273411Y-72707817D01*
X115265567Y-73119827D01*
X115257587Y-73495970D01*
X115249773Y-73823632D01*
X115242428Y-74090199D01*
X115235854Y-74283057D01*
X115230353Y-74389591D01*
X115230026Y-74393379D01*
X115225025Y-74487771D01*
X115218685Y-74669143D01*
X115211267Y-74924685D01*
X115203034Y-75241586D01*
X115194247Y-75607035D01*
X115185169Y-76008223D01*
X115176061Y-76432338D01*
X115167186Y-76866571D01*
X115158807Y-77298110D01*
X115151184Y-77714145D01*
X115144580Y-78101865D01*
X115139257Y-78448461D01*
X115135478Y-78741121D01*
X115133503Y-78967035D01*
X113470888Y-78967035D01*
X113478298Y-78612438D01*
X113485440Y-78411890D01*
X113492393Y-78203373D01*
X113499347Y-77979164D01*
X113506489Y-77731538D01*
X113514006Y-77452773D01*
X113522086Y-77135143D01*
X113530918Y-76770926D01*
X113540688Y-76352397D01*
X113551584Y-75871833D01*
X113563795Y-75321511D01*
X113577507Y-74693705D01*
X113592909Y-73980693D01*
X113608139Y-73270589D01*
X113623477Y-72562532D01*
X113637325Y-71947031D01*
X113650001Y-71416855D01*
X113661824Y-70964772D01*
X113673112Y-70583551D01*
X113684185Y-70265961D01*
X113695360Y-70004771D01*
X113706956Y-69792749D01*
X113719292Y-69622663D01*
X113732686Y-69487284D01*
X113747457Y-69379379D01*
X113763923Y-69291718D01*
X113782403Y-69217068D01*
X113787504Y-69199151D01*
X113876822Y-68955348D01*
X114008960Y-68670183D01*
X114164592Y-68380389D01*
X114324391Y-68122697D01*
X114428447Y-67981002D01*
X114476474Y-67915522D01*
X114576339Y-67774102D01*
X114723594Y-67563221D01*
X114913793Y-67289356D01*
X115142489Y-66958987D01*
X115405234Y-66578591D01*
X115697581Y-66154646D01*
X116015083Y-65693631D01*
X116353293Y-65202025D01*
X116707764Y-64686305D01*
X117074049Y-64152949D01*
X117447700Y-63608437D01*
X117824270Y-63059246D01*
X118199313Y-62511855D01*
X118568382Y-61972741D01*
X118927028Y-61448384D01*
X119270805Y-60945261D01*
X119595266Y-60469851D01*
X119895963Y-60028631D01*
X120168450Y-59628082D01*
X120408280Y-59274679D01*
X120611005Y-58974903D01*
X120620622Y-58960645D01*
X121051684Y-58322183D01*
X121469490Y-57704873D01*
X121886905Y-57089795D01*
X122316793Y-56458029D01*
X122772019Y-55790655D01*
X123265448Y-55068755D01*
X123504631Y-54719246D01*
X123760462Y-54344829D01*
X124010077Y-53978198D01*
X124245075Y-53631786D01*
X124457054Y-53318029D01*
X124637612Y-53049362D01*
X124778348Y-52838221D01*
X124870099Y-52698224D01*
X125254456Y-52185192D01*
X125700092Y-51739201D01*
X126197065Y-51365562D01*
X126735432Y-51069586D01*
X127305248Y-50856583D01*
X127896571Y-50731864D01*
X128499458Y-50700741D01*
X128601830Y-50705108D01*
X128601830Y-50705108D01*
G37*
X128601830Y-50705108D02*
X129143806Y-50767696D01*
X129653292Y-50896094D01*
X130145028Y-51096799D01*
X130633755Y-51376311D01*
X131134216Y-51741128D01*
X131341266Y-51912632D01*
X131419453Y-51991958D01*
X131551874Y-52140842D01*
X131731193Y-52350293D01*
X131950073Y-52611317D01*
X132201179Y-52914926D01*
X132477175Y-53252125D01*
X132770726Y-53613925D01*
X133074495Y-53991334D01*
X133381147Y-54375360D01*
X133683347Y-54757011D01*
X133973757Y-55127297D01*
X134167917Y-55377267D01*
X134253664Y-55487503D01*
X134391776Y-55664244D01*
X134572904Y-55895559D01*
X134787695Y-56169519D01*
X135026799Y-56474195D01*
X135280865Y-56797657D01*
X135427236Y-56983882D01*
X135842968Y-57513050D01*
X136276741Y-58065876D01*
X136724296Y-58636892D01*
X137181375Y-59220632D01*
X137643721Y-59811629D01*
X138107077Y-60404416D01*
X138567184Y-60993526D01*
X139019785Y-61573493D01*
X139460622Y-62138850D01*
X139885438Y-62684130D01*
X140289974Y-63203866D01*
X140669973Y-63692591D01*
X141021178Y-64144839D01*
X141339330Y-64555144D01*
X141620173Y-64918037D01*
X141859447Y-65228053D01*
X142052896Y-65479724D01*
X142196261Y-65667584D01*
X142285286Y-65786166D01*
X142312928Y-65824928D01*
X142382382Y-65937481D01*
X142440300Y-66048150D01*
X142487560Y-66166674D01*
X142525037Y-66302792D01*
X142553609Y-66466242D01*
X142574151Y-66666762D01*
X142587541Y-66914091D01*
X142594654Y-67217967D01*
X142596368Y-67588128D01*
X142593558Y-68034313D01*
X142587102Y-68566260D01*
X142583341Y-68829332D01*
X142576868Y-69293027D01*
X142569828Y-69838397D01*
X142562423Y-70447320D01*
X142554855Y-71101669D01*
X142547327Y-71783321D01*
X142540042Y-72474150D01*
X142533201Y-73156033D01*
X142527008Y-73810844D01*
X142524248Y-74118919D01*
X142518578Y-74683282D01*
X142511725Y-75228215D01*
X142503901Y-75743781D01*
X142495322Y-76220043D01*
X142486202Y-76647065D01*
X142476753Y-77014909D01*
X142467191Y-77313639D01*
X142457728Y-77533318D01*
X142448579Y-77664009D01*
X142447793Y-77670941D01*
X142343306Y-78178366D01*
X142160537Y-78644791D01*
X141907050Y-79060577D01*
X141590411Y-79416084D01*
X141218184Y-79701674D01*
X140797935Y-79907708D01*
X140655147Y-79955085D01*
X140581187Y-79975817D01*
X140504602Y-79993700D01*
X140416319Y-80009301D01*
X140307265Y-80023185D01*
X140168368Y-80035917D01*
X139990556Y-80048064D01*
X139764756Y-80060190D01*
X139481896Y-80072862D01*
X139132902Y-80086644D01*
X138708704Y-80102103D01*
X138200227Y-80119803D01*
X137785795Y-80133949D01*
X137203674Y-80154707D01*
X136712054Y-80174714D01*
X136301648Y-80194857D01*
X135963167Y-80216021D01*
X135687323Y-80239090D01*
X135464827Y-80264950D01*
X135286390Y-80294487D01*
X135142726Y-80328585D01*
X135024544Y-80368130D01*
X134940367Y-80405129D01*
X134610120Y-80618187D01*
X134353408Y-80898428D01*
X134171261Y-81244450D01*
X134077703Y-81579233D01*
X134068556Y-81677368D01*
X134059605Y-81872273D01*
X134050895Y-82160915D01*
X134042468Y-82540262D01*
X134034370Y-83007279D01*
X134026645Y-83558935D01*
X134019336Y-84192196D01*
X134012487Y-84904028D01*
X134006144Y-85691400D01*
X134000348Y-86551277D01*
X133996920Y-87143281D01*
X133988483Y-88666396D01*
X133980299Y-90090299D01*
X133972362Y-91415582D01*
X133964668Y-92642837D01*
X133957212Y-93772655D01*
X133949990Y-94805627D01*
X133942996Y-95742346D01*
X133936225Y-96583403D01*
X133929673Y-97329389D01*
X133923335Y-97980895D01*
X133917206Y-98538515D01*
X133911282Y-99002838D01*
X133905556Y-99374457D01*
X133900026Y-99653963D01*
X133894685Y-99841948D01*
X133892907Y-99885210D01*
X133860359Y-100297457D01*
X133798095Y-100654822D01*
X133695971Y-100997182D01*
X133543843Y-101364414D01*
X133484705Y-101490039D01*
X133216874Y-101948026D01*
X132888005Y-102329709D01*
X132489735Y-102643558D01*
X132162528Y-102828731D01*
X132041311Y-102889243D01*
X131934277Y-102942408D01*
X131834445Y-102988952D01*
X131734838Y-103029600D01*
X131628477Y-103065076D01*
X131508381Y-103096107D01*
X131367573Y-103123418D01*
X131199073Y-103147733D01*
X130995902Y-103169777D01*
X130751081Y-103190277D01*
X130457632Y-103209956D01*
X130108574Y-103229541D01*
X129696929Y-103249756D01*
X129215719Y-103271326D01*
X128657963Y-103294977D01*
X128016683Y-103321433D01*
X127284900Y-103351421D01*
X127031964Y-103361820D01*
X126442053Y-103385081D01*
X125864298Y-103405898D01*
X125307884Y-103424070D01*
X124781997Y-103439397D01*
X124295820Y-103451678D01*
X123858540Y-103460713D01*
X123479341Y-103466302D01*
X123167408Y-103468243D01*
X122931926Y-103466336D01*
X122782080Y-103460381D01*
X122740412Y-103455494D01*
X122628615Y-103427659D01*
X122460435Y-103379489D01*
X122291296Y-103327385D01*
X121813417Y-103126809D01*
X121401592Y-102852257D01*
X121058171Y-102506579D01*
X120785502Y-102092625D01*
X120585936Y-101613248D01*
X120468738Y-101115776D01*
X120457696Y-101033712D01*
X120448733Y-100933465D01*
X120441986Y-100810390D01*
X120437595Y-100659844D01*
X120435698Y-100477184D01*
X120436433Y-100257767D01*
X120439938Y-99996948D01*
X120446352Y-99690084D01*
X120455814Y-99332533D01*
X120468461Y-98919650D01*
X120484432Y-98446791D01*
X120503866Y-97909314D01*
X120526901Y-97302575D01*
X120553675Y-96621931D01*
X120584327Y-95862737D01*
X120618994Y-95020352D01*
X120657817Y-94090130D01*
X120700932Y-93067428D01*
X120726781Y-92457819D01*
X120744730Y-92031936D01*
X120761199Y-91634778D01*
X120775725Y-91278028D01*
X120787843Y-90973368D01*
X120797089Y-90732481D01*
X120802999Y-90567051D01*
X120805108Y-90488759D01*
X120805100Y-90486699D01*
X120806501Y-90402824D01*
X120811302Y-90228998D01*
X120819153Y-89975005D01*
X120829702Y-89650629D01*
X120842599Y-89265652D01*
X120857494Y-88829857D01*
X120874036Y-88353027D01*
X120891875Y-87844945D01*
X120910659Y-87315394D01*
X120930038Y-86774158D01*
X120949662Y-86231020D01*
X120969181Y-85695761D01*
X120988242Y-85178167D01*
X121006497Y-84688018D01*
X121023594Y-84235100D01*
X121039182Y-83829193D01*
X121052912Y-83480083D01*
X121064433Y-83197551D01*
X121073393Y-82991381D01*
X121074739Y-82962452D01*
X121086366Y-82698826D01*
X121090329Y-82513742D01*
X121084163Y-82386074D01*
X121065399Y-82294696D01*
X121031572Y-82218481D01*
X120980215Y-82136304D01*
X120977861Y-82132744D01*
X120852994Y-81982683D01*
X120702459Y-81850993D01*
X120667104Y-81827269D01*
X120603219Y-81789675D01*
X120540366Y-81761937D01*
X120463782Y-81743085D01*
X120358702Y-81732153D01*
X120210365Y-81728172D01*
X120004007Y-81730176D01*
X119724865Y-81737197D01*
X119428676Y-81746099D01*
X118732654Y-81767230D01*
X118128914Y-81784888D01*
X117609998Y-81799100D01*
X117168444Y-81809891D01*
X116796795Y-81817288D01*
X116487590Y-81821315D01*
X116233369Y-81821999D01*
X116026674Y-81819365D01*
X115860044Y-81813440D01*
X115726020Y-81804249D01*
X115617142Y-81791819D01*
X115525951Y-81776174D01*
X115454754Y-81759856D01*
X114964659Y-81589440D01*
X114540726Y-81344401D01*
X114183219Y-81024944D01*
X113892398Y-80631276D01*
X113794868Y-80453210D01*
X113667149Y-80177501D01*
X113574808Y-79920520D01*
X113513803Y-79658769D01*
X113480093Y-79368746D01*
X113469636Y-79026953D01*
X113470888Y-78967035D01*
X115133503Y-78967035D01*
X115133549Y-79109096D01*
X115174723Y-79430582D01*
X115292759Y-79689402D01*
X115490620Y-79889512D01*
X115771271Y-80034863D01*
X115847285Y-80060789D01*
X115928965Y-80084488D01*
X116013517Y-80102755D01*
X116112666Y-80115745D01*
X116238134Y-80123617D01*
X116401645Y-80126529D01*
X116614921Y-80124638D01*
X116889687Y-80118101D01*
X117237666Y-80107077D01*
X117670580Y-80091722D01*
X117798970Y-80087023D01*
X118432826Y-80064361D01*
X118976024Y-80046854D01*
X119437603Y-80035028D01*
X119826603Y-80029406D01*
X120152062Y-80030513D01*
X120423019Y-80038875D01*
X120648513Y-80055015D01*
X120837583Y-80079460D01*
X120999266Y-80112733D01*
X121142603Y-80155359D01*
X121276632Y-80207863D01*
X121410392Y-80270770D01*
X121467917Y-80300033D01*
X121855564Y-80555358D01*
X122183156Y-80886432D01*
X122444283Y-81284846D01*
X122632535Y-81742189D01*
X122671054Y-81878644D01*
X122688528Y-81950723D01*
X122703289Y-82024815D01*
X122715246Y-82108062D01*
X122724310Y-82207607D01*
X122730390Y-82330594D01*
X122733396Y-82484164D01*
X122733237Y-82675461D01*
X122729824Y-82911628D01*
X122723067Y-83199807D01*
X122712874Y-83547141D01*
X122699157Y-83960773D01*
X122681824Y-84447846D01*
X122660785Y-85015503D01*
X122635951Y-85670886D01*
X122616854Y-86170196D01*
X122602650Y-86543826D01*
X122585336Y-87004332D01*
X122565385Y-87538848D01*
X122543272Y-88134512D01*
X122519473Y-88778459D01*
X122494460Y-89457825D01*
X122468710Y-90159745D01*
X122442696Y-90871357D01*
X122416893Y-91579797D01*
X122392281Y-92258212D01*
X122367845Y-92930259D01*
X122343188Y-93602682D01*
X122318724Y-94264559D01*
X122294865Y-94904967D01*
X122272024Y-95512982D01*
X122250613Y-96077681D01*
X122231045Y-96588142D01*
X122213731Y-97033442D01*
X122199086Y-97402657D01*
X122187520Y-97684865D01*
X122185930Y-97722455D01*
X122169267Y-98149231D01*
X122153983Y-98606861D01*
X122140865Y-99066553D01*
X122130695Y-99499513D01*
X122124260Y-99876949D01*
X122122625Y-100045680D01*
X122116640Y-101021558D01*
X122253776Y-101229635D01*
X122391912Y-101407132D01*
X122552538Y-101538224D01*
X122766171Y-101644725D01*
X122908684Y-101697747D01*
X122978096Y-101721237D01*
X123044820Y-101740839D01*
X123117284Y-101756533D01*
X123203918Y-101768299D01*
X123313151Y-101776117D01*
X123453412Y-101779967D01*
X123633130Y-101779829D01*
X123860734Y-101775683D01*
X124144654Y-101767508D01*
X124493319Y-101755285D01*
X124915157Y-101738993D01*
X125418598Y-101718613D01*
X126012072Y-101694124D01*
X126108782Y-101690120D01*
X126919226Y-101656587D01*
X127635957Y-101626917D01*
X128264975Y-101600760D01*
X128812280Y-101577767D01*
X129283874Y-101557588D01*
X129685758Y-101539874D01*
X130023931Y-101524275D01*
X130304396Y-101510441D01*
X130533152Y-101498024D01*
X130716201Y-101486673D01*
X130859543Y-101476039D01*
X130969179Y-101465772D01*
X131051109Y-101455524D01*
X131111336Y-101444943D01*
X131155859Y-101433682D01*
X131190679Y-101421390D01*
X131221797Y-101407718D01*
X131255214Y-101392315D01*
X131260307Y-101390050D01*
X131581251Y-101200761D01*
X131835001Y-100943772D01*
X132025248Y-100614166D01*
X132155682Y-100207026D01*
X132158925Y-100192593D01*
X132169522Y-100094902D01*
X132179414Y-99905240D01*
X132188450Y-99631439D01*
X132196481Y-99281328D01*
X132203358Y-98862741D01*
X132208929Y-98383507D01*
X132213047Y-97851457D01*
X132215561Y-97274424D01*
X132215696Y-97223438D01*
X132217467Y-96680615D01*
X132219974Y-96145019D01*
X132223110Y-95629243D01*
X132226763Y-95145879D01*
X132230826Y-94707519D01*
X132235189Y-94326757D01*
X132239742Y-94016185D01*
X132244376Y-93788396D01*
X132246005Y-93730314D01*
X132250483Y-93548993D01*
X132255505Y-93278653D01*
X132260936Y-92930080D01*
X132266646Y-92514057D01*
X132272503Y-92041367D01*
X132278375Y-91522794D01*
X132284129Y-90969121D01*
X132289635Y-90391133D01*
X132294759Y-89799612D01*
X132296065Y-89638369D01*
X132305612Y-88467650D01*
X132314806Y-87394643D01*
X132323675Y-86417258D01*
X132332245Y-85533406D01*
X132340545Y-84740996D01*
X132348601Y-84037937D01*
X132356440Y-83422140D01*
X132364090Y-82891514D01*
X132371578Y-82443970D01*
X132378931Y-82077416D01*
X132386177Y-81789762D01*
X132393342Y-81578919D01*
X132400454Y-81442797D01*
X132403325Y-81408453D01*
X132498515Y-80926005D01*
X132680529Y-80445863D01*
X132938273Y-79989631D01*
X133260652Y-79578910D01*
X133430418Y-79408594D01*
X133812817Y-79104428D01*
X134231105Y-78871388D01*
X134697507Y-78705056D01*
X135224243Y-78601015D01*
X135789725Y-78555914D01*
X135996741Y-78548410D01*
X136286307Y-78537223D01*
X136641267Y-78523048D01*
X137044463Y-78506587D01*
X137478738Y-78488535D01*
X137926936Y-78469593D01*
X138234911Y-78456386D01*
X138713235Y-78435311D01*
X139102536Y-78416882D01*
X139413528Y-78400145D01*
X139656926Y-78384147D01*
X139843446Y-78367935D01*
X139983803Y-78350554D01*
X140088712Y-78331052D01*
X140168887Y-78308475D01*
X140235044Y-78281870D01*
X140244163Y-78277596D01*
X140457244Y-78121381D01*
X140623454Y-77879671D01*
X140740170Y-77556425D01*
X140750749Y-77512239D01*
X140763778Y-77407383D01*
X140776650Y-77213014D01*
X140789286Y-76937312D01*
X140801604Y-76588453D01*
X140813524Y-76174614D01*
X140824966Y-75703974D01*
X140835849Y-75184710D01*
X140846093Y-74624998D01*
X140855618Y-74033017D01*
X140864343Y-73416945D01*
X140872188Y-72784957D01*
X140879073Y-72145232D01*
X140884916Y-71505948D01*
X140889638Y-70875282D01*
X140893159Y-70261411D01*
X140895397Y-69672512D01*
X140896273Y-69116764D01*
X140895706Y-68602343D01*
X140893615Y-68137427D01*
X140889921Y-67730194D01*
X140884543Y-67388821D01*
X140877400Y-67121485D01*
X140868413Y-66936364D01*
X140857500Y-66841635D01*
X140855711Y-66835779D01*
X140801336Y-66736090D01*
X140700484Y-66586537D01*
X140571267Y-66413344D01*
X140514796Y-66342209D01*
X140440336Y-66248379D01*
X140310000Y-66082055D01*
X140128857Y-65849776D01*
X139901980Y-65558079D01*
X139634439Y-65213504D01*
X139331306Y-64822588D01*
X138997652Y-64391870D01*
X138638547Y-63927887D01*
X138259064Y-63437180D01*
X137864272Y-62926285D01*
X137605817Y-62591611D01*
X137205352Y-62072970D01*
X136818088Y-61571525D01*
X136448972Y-61093671D01*
X136102947Y-60645805D01*
X135784959Y-60234326D01*
X135499952Y-59865629D01*
X135252870Y-59546112D01*
X135048659Y-59282172D01*
X134892264Y-59080206D01*
X134788628Y-58946612D01*
X134751439Y-58898880D01*
X134680601Y-58807518D01*
X134554942Y-58644434D01*
X134380260Y-58417187D01*
X134162353Y-58133339D01*
X133907021Y-57800451D01*
X133620060Y-57426082D01*
X133307272Y-57017795D01*
X132974453Y-56583149D01*
X132627402Y-56129706D01*
X132512571Y-55979626D01*
X132159522Y-55519816D01*
X131815969Y-55075528D01*
X131488034Y-54654478D01*
X131181838Y-54264383D01*
X130903502Y-53912961D01*
X130659147Y-53607928D01*
X130454895Y-53357001D01*
X130296867Y-53167897D01*
X130191184Y-53048333D01*
X130170826Y-53027399D01*
X129777502Y-52699641D01*
X129360114Y-52464020D01*
X128925571Y-52321876D01*
X128480782Y-52274549D01*
X128032660Y-52323378D01*
X127588112Y-52469703D01*
X127501877Y-52509982D01*
X127348193Y-52589394D01*
X127206688Y-52673824D01*
X127071061Y-52770733D01*
X126935013Y-52887580D01*
X126792243Y-53031825D01*
X126636453Y-53210927D01*
X126461342Y-53432347D01*
X126260611Y-53703544D01*
X126027959Y-54031977D01*
X125757087Y-54425107D01*
X125441695Y-54890394D01*
X125246004Y-55181198D01*
X124951267Y-55619875D01*
X124680240Y-56023068D01*
X124428429Y-56397371D01*
X124191339Y-56749378D01*
X123964476Y-57085686D01*
X123743345Y-57412889D01*
X123523453Y-57737581D01*
X123300304Y-58066359D01*
X123069404Y-58405816D01*
X122826259Y-58762547D01*
X122566374Y-59143149D01*
X122285256Y-59554214D01*
X121978409Y-60002339D01*
X121641339Y-60494119D01*
X121269552Y-61036148D01*
X120858554Y-61635021D01*
X120403849Y-62297333D01*
X119900945Y-63029679D01*
X119430685Y-63714400D01*
X118996601Y-64346090D01*
X118575317Y-64958501D01*
X118170610Y-65546176D01*
X117786255Y-66103660D01*
X117426030Y-66625496D01*
X117093711Y-67106228D01*
X116793075Y-67540400D01*
X116527898Y-67922555D01*
X116301957Y-68247236D01*
X116119030Y-68508988D01*
X115982891Y-68702354D01*
X115897319Y-68821878D01*
X115873083Y-68854283D01*
X115657415Y-69151318D01*
X115508540Y-69417509D01*
X115413315Y-69681771D01*
X115358598Y-69973020D01*
X115356430Y-69991015D01*
X115345279Y-70129411D01*
X115333472Y-70353630D01*
X115321473Y-70649697D01*
X115309744Y-71003639D01*
X115298749Y-71401482D01*
X115288950Y-71829251D01*
X115280817Y-72272554D01*
X115273411Y-72707817D01*
X115265567Y-73119827D01*
X115257587Y-73495970D01*
X115249773Y-73823632D01*
X115242428Y-74090199D01*
X115235854Y-74283057D01*
X115230353Y-74389591D01*
X115230026Y-74393379D01*
X115225025Y-74487771D01*
X115218685Y-74669143D01*
X115211267Y-74924685D01*
X115203034Y-75241586D01*
X115194247Y-75607035D01*
X115185169Y-76008223D01*
X115176061Y-76432338D01*
X115167186Y-76866571D01*
X115158807Y-77298110D01*
X115151184Y-77714145D01*
X115144580Y-78101865D01*
X115139257Y-78448461D01*
X115135478Y-78741121D01*
X115133503Y-78967035D01*
X113470888Y-78967035D01*
X113478298Y-78612438D01*
X113485440Y-78411890D01*
X113492393Y-78203373D01*
X113499347Y-77979164D01*
X113506489Y-77731538D01*
X113514006Y-77452773D01*
X113522086Y-77135143D01*
X113530918Y-76770926D01*
X113540688Y-76352397D01*
X113551584Y-75871833D01*
X113563795Y-75321511D01*
X113577507Y-74693705D01*
X113592909Y-73980693D01*
X113608139Y-73270589D01*
X113623477Y-72562532D01*
X113637325Y-71947031D01*
X113650001Y-71416855D01*
X113661824Y-70964772D01*
X113673112Y-70583551D01*
X113684185Y-70265961D01*
X113695360Y-70004771D01*
X113706956Y-69792749D01*
X113719292Y-69622663D01*
X113732686Y-69487284D01*
X113747457Y-69379379D01*
X113763923Y-69291718D01*
X113782403Y-69217068D01*
X113787504Y-69199151D01*
X113876822Y-68955348D01*
X114008960Y-68670183D01*
X114164592Y-68380389D01*
X114324391Y-68122697D01*
X114428447Y-67981002D01*
X114476474Y-67915522D01*
X114576339Y-67774102D01*
X114723594Y-67563221D01*
X114913793Y-67289356D01*
X115142489Y-66958987D01*
X115405234Y-66578591D01*
X115697581Y-66154646D01*
X116015083Y-65693631D01*
X116353293Y-65202025D01*
X116707764Y-64686305D01*
X117074049Y-64152949D01*
X117447700Y-63608437D01*
X117824270Y-63059246D01*
X118199313Y-62511855D01*
X118568382Y-61972741D01*
X118927028Y-61448384D01*
X119270805Y-60945261D01*
X119595266Y-60469851D01*
X119895963Y-60028631D01*
X120168450Y-59628082D01*
X120408280Y-59274679D01*
X120611005Y-58974903D01*
X120620622Y-58960645D01*
X121051684Y-58322183D01*
X121469490Y-57704873D01*
X121886905Y-57089795D01*
X122316793Y-56458029D01*
X122772019Y-55790655D01*
X123265448Y-55068755D01*
X123504631Y-54719246D01*
X123760462Y-54344829D01*
X124010077Y-53978198D01*
X124245075Y-53631786D01*
X124457054Y-53318029D01*
X124637612Y-53049362D01*
X124778348Y-52838221D01*
X124870099Y-52698224D01*
X125254456Y-52185192D01*
X125700092Y-51739201D01*
X126197065Y-51365562D01*
X126735432Y-51069586D01*
X127305248Y-50856583D01*
X127896571Y-50731864D01*
X128499458Y-50700741D01*
X128601830Y-50705108D01*
M02*
