G04 #@! TF.GenerationSoftware,KiCad,Pcbnew,5.1.4+dfsg1-1*
G04 #@! TF.CreationDate,2019-11-23T15:35:25-08:00*
G04 #@! TF.ProjectId,east-van-arrow,65617374-2d76-4616-9e2d-6172726f772e,rev?*
G04 #@! TF.SameCoordinates,Original*
G04 #@! TF.FileFunction,Soldermask,Top*
G04 #@! TF.FilePolarity,Negative*
%FSLAX46Y46*%
G04 Gerber Fmt 4.6, Leading zero omitted, Abs format (unit mm)*
G04 Created by KiCad (PCBNEW 5.1.4+dfsg1-1) date 2019-11-23 15:35:25*
%MOMM*%
%LPD*%
G04 APERTURE LIST*
%ADD10C,0.010000*%
%ADD11C,0.100000*%
G04 APERTURE END LIST*
D10*
G36*
X44230964Y-56166937D02*
G01*
X44280526Y-56295394D01*
X44360046Y-56542762D01*
X44463763Y-56887824D01*
X44585914Y-57309365D01*
X44720736Y-57786169D01*
X44862469Y-58297020D01*
X45005350Y-58820702D01*
X45143616Y-59335999D01*
X45271505Y-59821695D01*
X45383256Y-60256574D01*
X45473105Y-60619420D01*
X45535292Y-60889018D01*
X45564054Y-61044150D01*
X45563448Y-61073085D01*
X45468973Y-61099620D01*
X45249671Y-61134460D01*
X44933790Y-61174816D01*
X44549576Y-61217900D01*
X44125275Y-61260922D01*
X43689135Y-61301095D01*
X43269401Y-61335630D01*
X42894321Y-61361738D01*
X42592140Y-61376631D01*
X42464330Y-61379033D01*
X42231692Y-61372077D01*
X42119763Y-61343157D01*
X42096099Y-61280198D01*
X42103527Y-61244743D01*
X42146492Y-61120228D01*
X42238065Y-60874670D01*
X42369812Y-60529507D01*
X42533297Y-60106177D01*
X42720084Y-59626116D01*
X42921738Y-59110761D01*
X43129823Y-58581550D01*
X43335904Y-58059920D01*
X43531546Y-57567308D01*
X43708313Y-57125151D01*
X43857770Y-56754887D01*
X43971481Y-56477951D01*
X44041011Y-56315783D01*
X44052591Y-56291552D01*
X44144058Y-56146255D01*
X44207388Y-56133978D01*
X44230964Y-56166937D01*
X44230964Y-56166937D01*
G37*
X44230964Y-56166937D02*
X44280526Y-56295394D01*
X44360046Y-56542762D01*
X44463763Y-56887824D01*
X44585914Y-57309365D01*
X44720736Y-57786169D01*
X44862469Y-58297020D01*
X45005350Y-58820702D01*
X45143616Y-59335999D01*
X45271505Y-59821695D01*
X45383256Y-60256574D01*
X45473105Y-60619420D01*
X45535292Y-60889018D01*
X45564054Y-61044150D01*
X45563448Y-61073085D01*
X45468973Y-61099620D01*
X45249671Y-61134460D01*
X44933790Y-61174816D01*
X44549576Y-61217900D01*
X44125275Y-61260922D01*
X43689135Y-61301095D01*
X43269401Y-61335630D01*
X42894321Y-61361738D01*
X42592140Y-61376631D01*
X42464330Y-61379033D01*
X42231692Y-61372077D01*
X42119763Y-61343157D01*
X42096099Y-61280198D01*
X42103527Y-61244743D01*
X42146492Y-61120228D01*
X42238065Y-60874670D01*
X42369812Y-60529507D01*
X42533297Y-60106177D01*
X42720084Y-59626116D01*
X42921738Y-59110761D01*
X43129823Y-58581550D01*
X43335904Y-58059920D01*
X43531546Y-57567308D01*
X43708313Y-57125151D01*
X43857770Y-56754887D01*
X43971481Y-56477951D01*
X44041011Y-56315783D01*
X44052591Y-56291552D01*
X44144058Y-56146255D01*
X44207388Y-56133978D01*
X44230964Y-56166937D01*
G36*
X67407251Y-37667251D02*
G01*
X67407126Y-39022950D01*
X67406761Y-40336396D01*
X67406168Y-41599441D01*
X67405361Y-42803939D01*
X67404355Y-43941741D01*
X67403161Y-45004700D01*
X67401795Y-45984668D01*
X67400268Y-46873498D01*
X67398596Y-47663043D01*
X67396790Y-48345154D01*
X67394866Y-48911685D01*
X67392835Y-49354488D01*
X67390713Y-49665415D01*
X67388511Y-49836319D01*
X67387042Y-49868459D01*
X67359799Y-49800815D01*
X67311094Y-49626674D01*
X67271144Y-49465628D01*
X67170245Y-49155997D01*
X67027658Y-48846039D01*
X66965220Y-48739975D01*
X66890245Y-48636853D01*
X66727199Y-48421395D01*
X66482673Y-48102065D01*
X66163261Y-47687328D01*
X65775557Y-47185647D01*
X65326153Y-46605488D01*
X64821643Y-45955314D01*
X64268620Y-45243591D01*
X63673678Y-44478782D01*
X63043408Y-43669351D01*
X62384406Y-42823764D01*
X61703263Y-41950485D01*
X61006574Y-41057977D01*
X60300931Y-40154706D01*
X59592927Y-39249136D01*
X58889156Y-38349731D01*
X58196212Y-37464956D01*
X57520686Y-36603274D01*
X56869173Y-35773151D01*
X56375207Y-35144490D01*
X55977877Y-34638879D01*
X55595446Y-34151810D01*
X55242293Y-33701628D01*
X54932797Y-33306678D01*
X54681337Y-32985304D01*
X54502294Y-32755851D01*
X54438671Y-32673895D01*
X54011706Y-32125176D01*
X53558639Y-31549207D01*
X53090751Y-30959814D01*
X52619323Y-30370823D01*
X52155636Y-29796063D01*
X51710970Y-29249358D01*
X51296606Y-28744537D01*
X50923824Y-28295426D01*
X50603907Y-27915852D01*
X50348133Y-27619642D01*
X50167784Y-27420622D01*
X50091948Y-27346103D01*
X49267602Y-26704330D01*
X48456081Y-26203205D01*
X47638469Y-25833219D01*
X46795851Y-25584862D01*
X46458006Y-25519192D01*
X46510154Y-25515280D01*
X46707233Y-25511355D01*
X47040701Y-25507454D01*
X47502015Y-25503610D01*
X48082632Y-25499860D01*
X48774008Y-25496237D01*
X49567602Y-25492779D01*
X50454871Y-25489518D01*
X51427271Y-25486492D01*
X52476260Y-25483734D01*
X53593295Y-25481280D01*
X54769833Y-25479165D01*
X55997331Y-25477425D01*
X56836707Y-25476493D01*
X67407251Y-25466043D01*
X67407251Y-37667251D01*
X67407251Y-37667251D01*
G37*
X67407251Y-37667251D02*
X67407126Y-39022950D01*
X67406761Y-40336396D01*
X67406168Y-41599441D01*
X67405361Y-42803939D01*
X67404355Y-43941741D01*
X67403161Y-45004700D01*
X67401795Y-45984668D01*
X67400268Y-46873498D01*
X67398596Y-47663043D01*
X67396790Y-48345154D01*
X67394866Y-48911685D01*
X67392835Y-49354488D01*
X67390713Y-49665415D01*
X67388511Y-49836319D01*
X67387042Y-49868459D01*
X67359799Y-49800815D01*
X67311094Y-49626674D01*
X67271144Y-49465628D01*
X67170245Y-49155997D01*
X67027658Y-48846039D01*
X66965220Y-48739975D01*
X66890245Y-48636853D01*
X66727199Y-48421395D01*
X66482673Y-48102065D01*
X66163261Y-47687328D01*
X65775557Y-47185647D01*
X65326153Y-46605488D01*
X64821643Y-45955314D01*
X64268620Y-45243591D01*
X63673678Y-44478782D01*
X63043408Y-43669351D01*
X62384406Y-42823764D01*
X61703263Y-41950485D01*
X61006574Y-41057977D01*
X60300931Y-40154706D01*
X59592927Y-39249136D01*
X58889156Y-38349731D01*
X58196212Y-37464956D01*
X57520686Y-36603274D01*
X56869173Y-35773151D01*
X56375207Y-35144490D01*
X55977877Y-34638879D01*
X55595446Y-34151810D01*
X55242293Y-33701628D01*
X54932797Y-33306678D01*
X54681337Y-32985304D01*
X54502294Y-32755851D01*
X54438671Y-32673895D01*
X54011706Y-32125176D01*
X53558639Y-31549207D01*
X53090751Y-30959814D01*
X52619323Y-30370823D01*
X52155636Y-29796063D01*
X51710970Y-29249358D01*
X51296606Y-28744537D01*
X50923824Y-28295426D01*
X50603907Y-27915852D01*
X50348133Y-27619642D01*
X50167784Y-27420622D01*
X50091948Y-27346103D01*
X49267602Y-26704330D01*
X48456081Y-26203205D01*
X47638469Y-25833219D01*
X46795851Y-25584862D01*
X46458006Y-25519192D01*
X46510154Y-25515280D01*
X46707233Y-25511355D01*
X47040701Y-25507454D01*
X47502015Y-25503610D01*
X48082632Y-25499860D01*
X48774008Y-25496237D01*
X49567602Y-25492779D01*
X50454871Y-25489518D01*
X51427271Y-25486492D01*
X52476260Y-25483734D01*
X53593295Y-25481280D01*
X54769833Y-25479165D01*
X55997331Y-25477425D01*
X56836707Y-25476493D01*
X67407251Y-25466043D01*
X67407251Y-37667251D01*
G36*
X33738822Y-25472299D02*
G01*
X35269344Y-25473262D01*
X36653201Y-25474399D01*
X37897200Y-25475790D01*
X39008150Y-25477511D01*
X39992859Y-25479640D01*
X40858137Y-25482255D01*
X41610791Y-25485433D01*
X42257631Y-25489252D01*
X42805463Y-25493791D01*
X43261098Y-25499126D01*
X43631343Y-25505336D01*
X43923007Y-25512498D01*
X44142898Y-25520689D01*
X44297825Y-25529989D01*
X44394596Y-25540474D01*
X44440020Y-25552221D01*
X44440905Y-25565310D01*
X44404060Y-25579817D01*
X44347734Y-25593413D01*
X43446229Y-25862523D01*
X42580427Y-26270074D01*
X41770581Y-26801814D01*
X41036943Y-27443489D01*
X40399765Y-28180847D01*
X40140818Y-28554158D01*
X39997625Y-28772614D01*
X39780425Y-29098431D01*
X39502137Y-29512487D01*
X39175681Y-29995660D01*
X38813976Y-30528828D01*
X38429943Y-31092868D01*
X38041050Y-31662013D01*
X37249203Y-32819607D01*
X36525051Y-33880192D01*
X35848811Y-34872862D01*
X35200701Y-35826711D01*
X34560936Y-36770833D01*
X33909734Y-37734321D01*
X33606123Y-38184286D01*
X33297593Y-38640626D01*
X32931642Y-39179957D01*
X32515110Y-39792319D01*
X32054834Y-40467747D01*
X31557653Y-41196281D01*
X31030407Y-41967958D01*
X30479933Y-42772817D01*
X29913070Y-43600895D01*
X29336658Y-44442229D01*
X28757534Y-45286859D01*
X28182537Y-46124821D01*
X27618506Y-46946155D01*
X27072280Y-47740897D01*
X26550697Y-48499086D01*
X26060595Y-49210759D01*
X25608814Y-49865955D01*
X25202192Y-50454711D01*
X24847567Y-50967066D01*
X24551779Y-51393057D01*
X24321666Y-51722722D01*
X24164066Y-51946099D01*
X24085819Y-52053226D01*
X24084018Y-52055468D01*
X23849110Y-52387124D01*
X23600210Y-52808366D01*
X23367314Y-53262106D01*
X23180419Y-53691254D01*
X23096183Y-53935529D01*
X23032182Y-54252579D01*
X22981842Y-54715358D01*
X22945852Y-55316673D01*
X22934726Y-55623746D01*
X22920538Y-56119324D01*
X22903777Y-56748004D01*
X22884911Y-57489448D01*
X22864410Y-58323313D01*
X22842746Y-59229261D01*
X22820387Y-60186949D01*
X22797803Y-61176037D01*
X22775465Y-62176186D01*
X22753842Y-63167053D01*
X22733404Y-64128299D01*
X22714621Y-65039582D01*
X22698947Y-65829789D01*
X22686281Y-66442202D01*
X22673132Y-67004291D01*
X22660040Y-67498017D01*
X22647548Y-67905336D01*
X22636195Y-68208206D01*
X22626522Y-68388587D01*
X22620929Y-68432457D01*
X22618562Y-68359453D01*
X22616248Y-68139101D01*
X22613995Y-67777525D01*
X22611810Y-67280853D01*
X22609703Y-66655208D01*
X22607680Y-65906718D01*
X22605751Y-65041507D01*
X22603922Y-64065702D01*
X22602202Y-62985428D01*
X22600599Y-61806811D01*
X22599122Y-60535977D01*
X22597778Y-59179050D01*
X22596574Y-57742158D01*
X22595520Y-56231425D01*
X22594623Y-54652977D01*
X22593892Y-53012941D01*
X22593334Y-51317440D01*
X22592957Y-49572603D01*
X22592770Y-47784553D01*
X22592750Y-46965237D01*
X22592750Y-25466043D01*
X33738822Y-25472299D01*
X33738822Y-25472299D01*
G37*
X33738822Y-25472299D02*
X35269344Y-25473262D01*
X36653201Y-25474399D01*
X37897200Y-25475790D01*
X39008150Y-25477511D01*
X39992859Y-25479640D01*
X40858137Y-25482255D01*
X41610791Y-25485433D01*
X42257631Y-25489252D01*
X42805463Y-25493791D01*
X43261098Y-25499126D01*
X43631343Y-25505336D01*
X43923007Y-25512498D01*
X44142898Y-25520689D01*
X44297825Y-25529989D01*
X44394596Y-25540474D01*
X44440020Y-25552221D01*
X44440905Y-25565310D01*
X44404060Y-25579817D01*
X44347734Y-25593413D01*
X43446229Y-25862523D01*
X42580427Y-26270074D01*
X41770581Y-26801814D01*
X41036943Y-27443489D01*
X40399765Y-28180847D01*
X40140818Y-28554158D01*
X39997625Y-28772614D01*
X39780425Y-29098431D01*
X39502137Y-29512487D01*
X39175681Y-29995660D01*
X38813976Y-30528828D01*
X38429943Y-31092868D01*
X38041050Y-31662013D01*
X37249203Y-32819607D01*
X36525051Y-33880192D01*
X35848811Y-34872862D01*
X35200701Y-35826711D01*
X34560936Y-36770833D01*
X33909734Y-37734321D01*
X33606123Y-38184286D01*
X33297593Y-38640626D01*
X32931642Y-39179957D01*
X32515110Y-39792319D01*
X32054834Y-40467747D01*
X31557653Y-41196281D01*
X31030407Y-41967958D01*
X30479933Y-42772817D01*
X29913070Y-43600895D01*
X29336658Y-44442229D01*
X28757534Y-45286859D01*
X28182537Y-46124821D01*
X27618506Y-46946155D01*
X27072280Y-47740897D01*
X26550697Y-48499086D01*
X26060595Y-49210759D01*
X25608814Y-49865955D01*
X25202192Y-50454711D01*
X24847567Y-50967066D01*
X24551779Y-51393057D01*
X24321666Y-51722722D01*
X24164066Y-51946099D01*
X24085819Y-52053226D01*
X24084018Y-52055468D01*
X23849110Y-52387124D01*
X23600210Y-52808366D01*
X23367314Y-53262106D01*
X23180419Y-53691254D01*
X23096183Y-53935529D01*
X23032182Y-54252579D01*
X22981842Y-54715358D01*
X22945852Y-55316673D01*
X22934726Y-55623746D01*
X22920538Y-56119324D01*
X22903777Y-56748004D01*
X22884911Y-57489448D01*
X22864410Y-58323313D01*
X22842746Y-59229261D01*
X22820387Y-60186949D01*
X22797803Y-61176037D01*
X22775465Y-62176186D01*
X22753842Y-63167053D01*
X22733404Y-64128299D01*
X22714621Y-65039582D01*
X22698947Y-65829789D01*
X22686281Y-66442202D01*
X22673132Y-67004291D01*
X22660040Y-67498017D01*
X22647548Y-67905336D01*
X22636195Y-68208206D01*
X22626522Y-68388587D01*
X22620929Y-68432457D01*
X22618562Y-68359453D01*
X22616248Y-68139101D01*
X22613995Y-67777525D01*
X22611810Y-67280853D01*
X22609703Y-66655208D01*
X22607680Y-65906718D01*
X22605751Y-65041507D01*
X22603922Y-64065702D01*
X22602202Y-62985428D01*
X22600599Y-61806811D01*
X22599122Y-60535977D01*
X22597778Y-59179050D01*
X22596574Y-57742158D01*
X22595520Y-56231425D01*
X22594623Y-54652977D01*
X22593892Y-53012941D01*
X22593334Y-51317440D01*
X22592957Y-49572603D01*
X22592770Y-47784553D01*
X22592750Y-46965237D01*
X22592750Y-25466043D01*
X33738822Y-25472299D01*
G36*
X46243845Y-27949575D02*
G01*
X46916000Y-28139704D01*
X47563861Y-28473984D01*
X48176800Y-28950354D01*
X48292086Y-29060351D01*
X48428948Y-29210254D01*
X48649093Y-29470608D01*
X48943108Y-29829547D01*
X49301580Y-30275205D01*
X49715095Y-30795713D01*
X50174242Y-31379206D01*
X50669607Y-32013817D01*
X51191776Y-32687679D01*
X51731338Y-33388924D01*
X51893139Y-33600181D01*
X52432012Y-34304358D01*
X52951896Y-34983405D01*
X53443874Y-35625697D01*
X53899031Y-36219606D01*
X54308449Y-36753505D01*
X54663212Y-37215768D01*
X54954401Y-37594769D01*
X55173101Y-37878880D01*
X55310395Y-38056475D01*
X55335989Y-38089305D01*
X55437411Y-38219662D01*
X55625004Y-38461674D01*
X55891163Y-38805506D01*
X56228286Y-39241320D01*
X56628767Y-39759280D01*
X57085004Y-40349547D01*
X57589393Y-41002284D01*
X58134329Y-41707655D01*
X58712208Y-42455823D01*
X59315428Y-43236950D01*
X59725351Y-43767855D01*
X60343423Y-44568087D01*
X60942949Y-45343713D01*
X61516129Y-46084679D01*
X62055165Y-46780930D01*
X62552260Y-47422411D01*
X62999615Y-47999069D01*
X63389431Y-48500849D01*
X63713911Y-48917696D01*
X63965257Y-49239557D01*
X64135669Y-49456376D01*
X64198675Y-49535392D01*
X64407147Y-49804973D01*
X64583321Y-50054588D01*
X64699344Y-50243915D01*
X64722923Y-50294386D01*
X64740154Y-50418360D01*
X64754406Y-50683201D01*
X64765803Y-51076335D01*
X64774469Y-51585188D01*
X64780526Y-52197183D01*
X64784099Y-52899747D01*
X64785310Y-53680303D01*
X64784285Y-54526277D01*
X64781146Y-55425095D01*
X64776017Y-56364180D01*
X64769022Y-57330959D01*
X64760284Y-58312856D01*
X64749927Y-59297295D01*
X64738075Y-60271703D01*
X64724851Y-61223504D01*
X64710378Y-62140123D01*
X64694781Y-63008985D01*
X64678183Y-63817515D01*
X64660708Y-64553138D01*
X64642479Y-65203280D01*
X64623620Y-65755364D01*
X64604255Y-66196817D01*
X64584507Y-66515063D01*
X64564499Y-66697527D01*
X64561516Y-66712266D01*
X64391460Y-67224012D01*
X64144810Y-67611110D01*
X63825598Y-67867467D01*
X63782505Y-67889204D01*
X63682538Y-67931143D01*
X63563418Y-67966673D01*
X63408667Y-67997261D01*
X63201808Y-68024373D01*
X62926365Y-68049474D01*
X62565859Y-68074032D01*
X62103814Y-68099512D01*
X61523752Y-68127381D01*
X60809196Y-68159105D01*
X60692750Y-68164141D01*
X60004128Y-68193590D01*
X59318737Y-68222408D01*
X58662959Y-68249522D01*
X58063179Y-68273857D01*
X57545778Y-68294341D01*
X57137142Y-68309898D01*
X56932629Y-68317191D01*
X56017447Y-68392738D01*
X55212844Y-68557640D01*
X54500026Y-68818691D01*
X53860196Y-69182683D01*
X53304571Y-69628412D01*
X52768212Y-70215885D01*
X52323269Y-70888877D01*
X51986804Y-71614167D01*
X51775878Y-72358536D01*
X51725145Y-72703724D01*
X51714229Y-72867434D01*
X51703248Y-73144744D01*
X51692161Y-73538869D01*
X51680926Y-74053022D01*
X51669500Y-74690419D01*
X51657842Y-75454274D01*
X51645910Y-76347800D01*
X51633662Y-77374212D01*
X51621056Y-78536725D01*
X51608051Y-79838552D01*
X51594603Y-81282907D01*
X51580673Y-82873006D01*
X51566216Y-84612062D01*
X51560203Y-85359396D01*
X51552517Y-86271799D01*
X51544190Y-87167887D01*
X51535425Y-88031077D01*
X51526425Y-88844787D01*
X51517392Y-89592434D01*
X51508530Y-90257436D01*
X51500041Y-90823209D01*
X51492128Y-91273171D01*
X51484995Y-91590739D01*
X51483222Y-91651843D01*
X51476092Y-91952762D01*
X51469027Y-92387792D01*
X51462197Y-92937566D01*
X51455768Y-93582721D01*
X51449909Y-94303892D01*
X51444788Y-95081715D01*
X51440573Y-95896826D01*
X51437433Y-96729858D01*
X51436615Y-97023444D01*
X51432970Y-97916122D01*
X51426839Y-98740651D01*
X51418453Y-99484988D01*
X51408040Y-100137092D01*
X51395833Y-100684919D01*
X51382060Y-101116427D01*
X51366952Y-101419574D01*
X51350739Y-101582318D01*
X51349314Y-101589305D01*
X51151602Y-102219350D01*
X50862092Y-102729922D01*
X50475112Y-103128584D01*
X49984988Y-103422895D01*
X49967453Y-103430712D01*
X49914861Y-103454803D01*
X49867070Y-103476161D01*
X49814851Y-103495322D01*
X49748976Y-103512825D01*
X49660218Y-103529207D01*
X49539349Y-103545005D01*
X49377140Y-103560757D01*
X49164365Y-103577000D01*
X48891795Y-103594272D01*
X48550203Y-103613111D01*
X48130360Y-103634053D01*
X47623039Y-103657637D01*
X47019013Y-103684400D01*
X46309053Y-103714879D01*
X45483931Y-103749611D01*
X44534421Y-103789136D01*
X43451293Y-103833989D01*
X42225320Y-103884709D01*
X42045620Y-103892148D01*
X41111246Y-103930751D01*
X40317253Y-103963031D01*
X39650679Y-103989020D01*
X39098561Y-104008747D01*
X38647937Y-104022244D01*
X38285847Y-104029541D01*
X37999326Y-104030671D01*
X37775414Y-104025662D01*
X37601148Y-104014548D01*
X37463567Y-103997357D01*
X37349708Y-103974122D01*
X37246608Y-103944873D01*
X37141307Y-103909641D01*
X37124624Y-103903878D01*
X36735022Y-103746515D01*
X36451393Y-103568820D01*
X36226805Y-103337248D01*
X36117529Y-103184032D01*
X35906647Y-102864058D01*
X35915850Y-101363388D01*
X35922189Y-100846657D01*
X35934913Y-100220917D01*
X35952817Y-99530444D01*
X35974693Y-98819515D01*
X35999335Y-98132408D01*
X36013199Y-97790816D01*
X36030138Y-97380634D01*
X36051919Y-96833873D01*
X36077907Y-96167329D01*
X36107468Y-95397800D01*
X36139967Y-94542082D01*
X36174771Y-93616972D01*
X36211245Y-92639268D01*
X36248754Y-91625766D01*
X36286665Y-90593263D01*
X36324343Y-89558556D01*
X36330518Y-89388097D01*
X36337477Y-89196254D01*
X39911795Y-89196254D01*
X41425754Y-89208456D01*
X41891559Y-89213804D01*
X42302665Y-89221561D01*
X42635260Y-89231027D01*
X42865534Y-89241503D01*
X42969675Y-89252291D01*
X42972928Y-89253874D01*
X42978985Y-89336335D01*
X42979063Y-89551732D01*
X42973598Y-89879660D01*
X42963022Y-90299716D01*
X42947770Y-90791494D01*
X42929078Y-91313575D01*
X42873035Y-92797846D01*
X42822084Y-94168978D01*
X42776358Y-95423026D01*
X42735985Y-96556048D01*
X42701098Y-97564099D01*
X42671827Y-98443236D01*
X42648303Y-99189513D01*
X42630656Y-99798988D01*
X42619017Y-100267716D01*
X42613517Y-100591753D01*
X42614287Y-100767156D01*
X42615168Y-100783565D01*
X42692897Y-100815031D01*
X42914247Y-100831385D01*
X43270075Y-100832283D01*
X43637758Y-100821934D01*
X44654683Y-100783565D01*
X44705062Y-99939456D01*
X44716786Y-99711455D01*
X44733158Y-99346189D01*
X44753550Y-98859777D01*
X44777332Y-98268339D01*
X44803877Y-97587994D01*
X44832555Y-96834861D01*
X44862739Y-96025058D01*
X44893799Y-95174705D01*
X44925108Y-94299921D01*
X44926489Y-94260907D01*
X44957522Y-93409409D01*
X44988763Y-92600306D01*
X45019574Y-91847153D01*
X45049318Y-91163507D01*
X45077357Y-90562922D01*
X45103053Y-90058957D01*
X45125769Y-89665166D01*
X45144868Y-89395107D01*
X45159711Y-89262334D01*
X45161975Y-89253807D01*
X45190262Y-89191329D01*
X45236300Y-89145973D01*
X45322463Y-89114865D01*
X45471125Y-89095131D01*
X45704660Y-89083897D01*
X46045443Y-89078291D01*
X46515847Y-89075438D01*
X46552028Y-89075277D01*
X47103623Y-89071347D01*
X47519627Y-89064480D01*
X47817909Y-89053754D01*
X48016339Y-89038246D01*
X48132787Y-89017031D01*
X48183536Y-88990985D01*
X48195241Y-88909690D01*
X48211974Y-88702428D01*
X48231874Y-88396550D01*
X48253077Y-88019408D01*
X48263100Y-87822535D01*
X48319416Y-86679028D01*
X45873152Y-86735627D01*
X44693975Y-86763745D01*
X43636876Y-86790682D01*
X42705769Y-86816305D01*
X41904564Y-86840482D01*
X41237176Y-86863079D01*
X40707515Y-86883964D01*
X40319494Y-86903005D01*
X40077027Y-86920068D01*
X39984024Y-86935021D01*
X39983707Y-86935306D01*
X39969267Y-87021386D01*
X39954937Y-87232717D01*
X39942060Y-87541082D01*
X39931981Y-87918263D01*
X39928995Y-88084536D01*
X39911795Y-89196254D01*
X36337477Y-89196254D01*
X36369172Y-88322639D01*
X36408865Y-87232928D01*
X36448868Y-86138743D01*
X36488450Y-85059868D01*
X36526882Y-84016084D01*
X36563434Y-83027173D01*
X36597377Y-82112916D01*
X36627981Y-81293096D01*
X36654515Y-80587495D01*
X36675858Y-80026163D01*
X36688678Y-79690488D01*
X39643644Y-79690488D01*
X39667789Y-80019302D01*
X39730892Y-80457728D01*
X39831848Y-80993126D01*
X39870747Y-81177221D01*
X40119421Y-82045930D01*
X40462794Y-82794055D01*
X40899321Y-83420559D01*
X41427458Y-83924407D01*
X42045660Y-84304562D01*
X42752383Y-84559988D01*
X43546082Y-84689647D01*
X44425213Y-84692504D01*
X45015705Y-84629678D01*
X45667319Y-84490803D01*
X46225857Y-84265482D01*
X46736052Y-83931273D01*
X47151908Y-83558043D01*
X47494315Y-83193142D01*
X47748890Y-82859768D01*
X47955275Y-82503984D01*
X48012772Y-82386812D01*
X48212194Y-81951420D01*
X48357769Y-81582919D01*
X48457682Y-81241265D01*
X48520120Y-80886413D01*
X48553272Y-80478321D01*
X48565323Y-79976943D01*
X48565997Y-79680846D01*
X48563338Y-79207734D01*
X48554635Y-78853093D01*
X48535769Y-78581932D01*
X48502621Y-78359259D01*
X48451072Y-78150082D01*
X48377004Y-77919411D01*
X48349206Y-77839154D01*
X48165640Y-77360369D01*
X47977395Y-76981988D01*
X47755752Y-76652839D01*
X47538037Y-76393840D01*
X47268084Y-76123062D01*
X46966360Y-75882338D01*
X46610381Y-75659449D01*
X46177665Y-75442176D01*
X45645728Y-75218300D01*
X44992088Y-74975602D01*
X44812062Y-74912309D01*
X44113466Y-74656416D01*
X43552684Y-74419966D01*
X43116925Y-74192844D01*
X42793401Y-73964937D01*
X42569323Y-73726129D01*
X42431904Y-73466306D01*
X42368353Y-73175352D01*
X42360461Y-72973323D01*
X42431712Y-72488922D01*
X42627718Y-72091477D01*
X42944224Y-71784817D01*
X43376977Y-71572767D01*
X43921721Y-71459154D01*
X44056863Y-71447704D01*
X44668526Y-71457958D01*
X45185271Y-71572091D01*
X45595984Y-71787619D01*
X45603984Y-71793665D01*
X45831157Y-72038049D01*
X46035591Y-72388011D01*
X46193306Y-72795662D01*
X46267992Y-73119819D01*
X46313621Y-73345721D01*
X46365171Y-73508652D01*
X46384043Y-73542624D01*
X46478669Y-73566186D01*
X46690564Y-73577678D01*
X46984113Y-73578518D01*
X47323706Y-73570125D01*
X47673730Y-73553917D01*
X47998572Y-73531314D01*
X48262620Y-73503733D01*
X48430262Y-73472594D01*
X48461712Y-73459859D01*
X48499028Y-73358180D01*
X48508528Y-73140613D01*
X48493004Y-72841660D01*
X48455248Y-72495825D01*
X48398052Y-72137610D01*
X48329047Y-71820392D01*
X48075092Y-71085187D01*
X47713722Y-70438421D01*
X47255552Y-69892783D01*
X46711200Y-69460959D01*
X46102544Y-69159753D01*
X45841235Y-69068085D01*
X45617983Y-69005704D01*
X45391729Y-68967049D01*
X45121415Y-68946561D01*
X44765982Y-68938678D01*
X44462840Y-68937680D01*
X44006527Y-68941678D01*
X43662794Y-68956718D01*
X43390882Y-68987428D01*
X43150030Y-69038434D01*
X42899478Y-69114361D01*
X42896033Y-69115514D01*
X42215578Y-69421875D01*
X41621176Y-69852954D01*
X41122112Y-70400573D01*
X40754646Y-71001313D01*
X40504819Y-71573937D01*
X40345075Y-72127235D01*
X40262533Y-72718734D01*
X40243431Y-73284370D01*
X40282071Y-74049037D01*
X40403674Y-74716101D01*
X40620297Y-75324076D01*
X40944001Y-75911472D01*
X41166479Y-76232191D01*
X41406914Y-76516535D01*
X41696439Y-76775549D01*
X42053301Y-77019624D01*
X42495745Y-77259148D01*
X43042015Y-77504511D01*
X43710359Y-77766102D01*
X44123740Y-77916094D01*
X44775417Y-78158360D01*
X45292190Y-78379578D01*
X45688725Y-78593113D01*
X45979684Y-78812331D01*
X46179732Y-79050596D01*
X46303533Y-79321273D01*
X46365749Y-79637727D01*
X46381209Y-79973606D01*
X46312394Y-80531576D01*
X46117323Y-81022648D01*
X45812835Y-81435412D01*
X45415765Y-81758458D01*
X44942953Y-81980377D01*
X44411234Y-82089756D01*
X43837446Y-82075188D01*
X43415005Y-81983717D01*
X42912131Y-81760789D01*
X42499664Y-81416695D01*
X42176406Y-80949825D01*
X41941157Y-80358574D01*
X41824988Y-79851421D01*
X41772335Y-79566643D01*
X41725220Y-79346065D01*
X41692144Y-79228650D01*
X41687234Y-79220144D01*
X41602130Y-79215685D01*
X41395786Y-79228975D01*
X41099087Y-79257447D01*
X40742916Y-79298531D01*
X40739415Y-79298965D01*
X40373610Y-79343257D01*
X40058130Y-79379437D01*
X39827282Y-79403704D01*
X39716640Y-79412266D01*
X39659559Y-79483928D01*
X39643644Y-79690488D01*
X36688678Y-79690488D01*
X36718094Y-78920351D01*
X36754400Y-77956908D01*
X36784912Y-77124852D01*
X36809771Y-76413199D01*
X36829115Y-75810963D01*
X36843083Y-75307162D01*
X36851813Y-74890811D01*
X36855444Y-74550927D01*
X36854115Y-74276525D01*
X36847964Y-74056622D01*
X36837130Y-73880233D01*
X36821753Y-73736374D01*
X36801970Y-73614063D01*
X36777921Y-73502313D01*
X36759205Y-73426768D01*
X36502617Y-72700590D01*
X36131226Y-72061437D01*
X35654887Y-71522242D01*
X35083457Y-71095937D01*
X34909064Y-70999236D01*
X34699467Y-70895629D01*
X34495221Y-70808354D01*
X34282426Y-70736603D01*
X34047181Y-70679571D01*
X33775588Y-70636449D01*
X33453747Y-70606431D01*
X33067758Y-70588710D01*
X32603722Y-70582479D01*
X32047740Y-70586930D01*
X31385911Y-70601258D01*
X30604337Y-70624655D01*
X29689117Y-70656314D01*
X29267088Y-70671676D01*
X28564321Y-70696986D01*
X27996869Y-70715700D01*
X27546705Y-70727576D01*
X27195801Y-70732371D01*
X26926129Y-70729844D01*
X26719662Y-70719752D01*
X26558372Y-70701853D01*
X26424231Y-70675904D01*
X26299213Y-70641664D01*
X26265856Y-70631335D01*
X25804567Y-70426195D01*
X25471630Y-70138240D01*
X25262488Y-69761388D01*
X25172581Y-69289562D01*
X25168298Y-69167855D01*
X25168293Y-68937359D01*
X25171452Y-68585335D01*
X25177369Y-68131484D01*
X25185644Y-67595505D01*
X25195871Y-66997098D01*
X25207650Y-66355962D01*
X25220575Y-65691796D01*
X25234245Y-65024302D01*
X25248257Y-64373176D01*
X25262206Y-63758121D01*
X25275691Y-63198834D01*
X25288309Y-62715016D01*
X25299655Y-62326366D01*
X25309328Y-62052583D01*
X25316657Y-61916194D01*
X25324988Y-61762082D01*
X25335000Y-61473909D01*
X25346229Y-61071072D01*
X25358210Y-60572968D01*
X25370479Y-59998995D01*
X25382570Y-59368551D01*
X25394020Y-58701032D01*
X25394762Y-58654864D01*
X25407281Y-57972539D01*
X25422351Y-57314764D01*
X25439261Y-56703029D01*
X25457298Y-56158822D01*
X25475750Y-55703633D01*
X25493906Y-55358951D01*
X25511036Y-55146395D01*
X25592239Y-54694822D01*
X25734583Y-54287279D01*
X25762389Y-54236566D01*
X27192299Y-54236566D01*
X27232499Y-54443506D01*
X27306889Y-54731331D01*
X27389781Y-55009849D01*
X27516354Y-55418493D01*
X27677372Y-55947172D01*
X27864673Y-56568482D01*
X28070096Y-57255017D01*
X28285480Y-57979369D01*
X28502663Y-58714135D01*
X28713484Y-59431907D01*
X28909783Y-60105280D01*
X29000820Y-60419819D01*
X29152161Y-60939197D01*
X29330540Y-61543475D01*
X29517608Y-62170942D01*
X29695017Y-62759887D01*
X29765165Y-62990514D01*
X29909102Y-63462524D01*
X30069374Y-63989060D01*
X30239825Y-64549804D01*
X30414298Y-65124439D01*
X30586638Y-65692648D01*
X30750689Y-66234113D01*
X30900295Y-66728519D01*
X31029300Y-67155546D01*
X31131549Y-67494880D01*
X31200884Y-67726201D01*
X31230194Y-67825732D01*
X31255634Y-67865623D01*
X31319231Y-67891233D01*
X31441488Y-67902555D01*
X31642906Y-67899583D01*
X31943987Y-67882310D01*
X32365234Y-67850731D01*
X32679622Y-67825289D01*
X33132557Y-67784463D01*
X33533595Y-67741418D01*
X33857249Y-67699449D01*
X34078029Y-67661851D01*
X34169790Y-67632668D01*
X34222346Y-67536675D01*
X34300223Y-67362174D01*
X37144417Y-67362174D01*
X37146659Y-67386116D01*
X37153820Y-67396700D01*
X37192409Y-67410666D01*
X37283477Y-67415367D01*
X37444613Y-67409640D01*
X37693403Y-67392325D01*
X38047435Y-67362259D01*
X38524296Y-67318281D01*
X38937765Y-67278870D01*
X39274611Y-67242205D01*
X39552409Y-67203902D01*
X39736952Y-67169167D01*
X39793483Y-67148695D01*
X39834786Y-67064371D01*
X39922040Y-66858371D01*
X40046460Y-66552400D01*
X40199263Y-66168163D01*
X40371663Y-65727365D01*
X40435985Y-65561209D01*
X40614098Y-65104175D01*
X40776800Y-64694808D01*
X40915077Y-64355133D01*
X41019916Y-64107177D01*
X41082305Y-63972967D01*
X41092402Y-63956988D01*
X41184776Y-63930688D01*
X41407743Y-63896083D01*
X41739460Y-63855039D01*
X42158085Y-63809420D01*
X42641777Y-63761088D01*
X43168694Y-63711908D01*
X43716993Y-63663744D01*
X44264832Y-63618459D01*
X44790370Y-63577918D01*
X45271765Y-63543985D01*
X45687174Y-63518523D01*
X46014756Y-63503396D01*
X46232669Y-63500469D01*
X46318562Y-63511009D01*
X46361458Y-63603310D01*
X46439487Y-63818884D01*
X46544642Y-64133717D01*
X46668916Y-64523794D01*
X46804302Y-64965103D01*
X46812672Y-64992912D01*
X46948240Y-65436354D01*
X47072822Y-65829871D01*
X47178485Y-66149498D01*
X47257292Y-66371269D01*
X47301308Y-66471218D01*
X47302705Y-66472855D01*
X47393702Y-66485540D01*
X47606290Y-66484193D01*
X47909471Y-66471245D01*
X48272249Y-66449127D01*
X48663624Y-66420271D01*
X49052600Y-66387107D01*
X49408180Y-66352067D01*
X49699364Y-66317582D01*
X49895156Y-66286083D01*
X49962743Y-66264226D01*
X49949407Y-66184662D01*
X49901401Y-66001511D01*
X51838166Y-66001511D01*
X51907618Y-66047151D01*
X52078796Y-66064034D01*
X52367753Y-66053563D01*
X52790543Y-66017142D01*
X52841775Y-66012028D01*
X53225920Y-65974560D01*
X53571224Y-65943128D01*
X53839598Y-65921056D01*
X53991911Y-65911692D01*
X54113170Y-65895760D01*
X54181076Y-65829986D01*
X54219133Y-65675652D01*
X54239610Y-65503656D01*
X54249656Y-65347026D01*
X54262142Y-65053793D01*
X54276574Y-64640798D01*
X54292461Y-64124885D01*
X54309310Y-63522896D01*
X54326628Y-62851674D01*
X54343924Y-62128061D01*
X54360705Y-61368900D01*
X54361303Y-61340665D01*
X54382562Y-60361400D01*
X54402135Y-59525338D01*
X54420590Y-58822223D01*
X54438492Y-58241801D01*
X54456407Y-57773814D01*
X54474902Y-57408010D01*
X54494543Y-57134131D01*
X54515896Y-56941924D01*
X54539529Y-56821132D01*
X54566006Y-56761500D01*
X54595895Y-56752774D01*
X54613930Y-56765894D01*
X54667625Y-56831651D01*
X54747022Y-56951680D01*
X54861524Y-57142052D01*
X55020540Y-57418842D01*
X55233473Y-57798123D01*
X55509731Y-58295969D01*
X55517239Y-58309547D01*
X55672961Y-58589958D01*
X55846655Y-58900178D01*
X56045362Y-59252560D01*
X56276124Y-59659458D01*
X56545981Y-60133226D01*
X56861973Y-60686216D01*
X57231143Y-61330783D01*
X57660530Y-62079279D01*
X58157176Y-62944059D01*
X58346049Y-63272755D01*
X59588676Y-65435056D01*
X59833764Y-65403539D01*
X60004896Y-65384612D01*
X60289271Y-65356427D01*
X60647219Y-65322802D01*
X61036154Y-65287811D01*
X61404126Y-65253509D01*
X61714591Y-65220925D01*
X61936635Y-65193563D01*
X62039342Y-65174928D01*
X62041630Y-65173827D01*
X62057437Y-65091959D01*
X62075648Y-64878419D01*
X62095055Y-64554964D01*
X62114452Y-64143352D01*
X62132631Y-63665343D01*
X62142400Y-63357465D01*
X62193421Y-61613724D01*
X62239403Y-60019244D01*
X62280441Y-58569898D01*
X62316629Y-57261557D01*
X62348062Y-56090094D01*
X62374834Y-55051382D01*
X62397040Y-54141292D01*
X62414774Y-53355698D01*
X62428131Y-52690471D01*
X62437205Y-52141484D01*
X62442091Y-51704610D01*
X62442883Y-51375720D01*
X62439676Y-51150688D01*
X62432563Y-51025385D01*
X62425406Y-50994892D01*
X62332434Y-50980119D01*
X62121231Y-50979036D01*
X61826204Y-50989331D01*
X61481760Y-51008695D01*
X61122306Y-51034816D01*
X60782250Y-51065385D01*
X60495998Y-51098091D01*
X60297957Y-51130623D01*
X60259863Y-51140310D01*
X60216626Y-51169950D01*
X60182707Y-51242565D01*
X60156050Y-51377348D01*
X60134600Y-51593492D01*
X60116300Y-51910192D01*
X60099095Y-52346640D01*
X60085561Y-52767808D01*
X60068185Y-53330835D01*
X60049568Y-53920122D01*
X60031193Y-54489684D01*
X60014541Y-54993536D01*
X60002171Y-55355166D01*
X59990380Y-55717501D01*
X59976125Y-56197915D01*
X59960379Y-56761048D01*
X59944116Y-57371545D01*
X59928307Y-57994047D01*
X59918786Y-58386284D01*
X59903763Y-58933672D01*
X59886231Y-59433236D01*
X59867247Y-59863625D01*
X59847867Y-60203489D01*
X59829147Y-60431477D01*
X59812981Y-60524915D01*
X59752683Y-60510689D01*
X59630228Y-60359693D01*
X59444966Y-60071003D01*
X59217246Y-59680806D01*
X58954214Y-59216101D01*
X58645598Y-58669383D01*
X58301315Y-58058339D01*
X57931282Y-57400656D01*
X57545419Y-56714022D01*
X57153642Y-56016125D01*
X56765870Y-55324651D01*
X56392022Y-54657289D01*
X56042014Y-54031726D01*
X55725765Y-53465649D01*
X55453192Y-52976746D01*
X55234214Y-52582705D01*
X55078749Y-52301212D01*
X55056632Y-52260856D01*
X54707251Y-51622135D01*
X54093354Y-51670310D01*
X53514899Y-51721916D01*
X53030142Y-51777843D01*
X52653792Y-51835803D01*
X52400558Y-51893509D01*
X52285149Y-51948675D01*
X52282981Y-51951769D01*
X52267472Y-52048230D01*
X52250217Y-52277536D01*
X52232163Y-52619076D01*
X52214258Y-53052246D01*
X52197449Y-53556435D01*
X52182683Y-54111039D01*
X52181627Y-54156577D01*
X52166943Y-54781835D01*
X52149035Y-55519776D01*
X52128928Y-56329665D01*
X52107646Y-57170769D01*
X52086213Y-58002355D01*
X52065652Y-58783689D01*
X52059862Y-59000181D01*
X52039786Y-59755328D01*
X52018499Y-60569812D01*
X51997021Y-61403579D01*
X51976375Y-62216578D01*
X51957584Y-62968758D01*
X51941669Y-63620065D01*
X51937455Y-63796254D01*
X51923240Y-64345769D01*
X51908118Y-64844758D01*
X51892890Y-65272718D01*
X51878356Y-65609143D01*
X51865314Y-65833531D01*
X51854566Y-65925376D01*
X51854386Y-65925710D01*
X51838166Y-66001511D01*
X49901401Y-66001511D01*
X49894385Y-65974744D01*
X49802381Y-65650418D01*
X49678096Y-65227625D01*
X49526234Y-64722309D01*
X49351497Y-64150413D01*
X49158587Y-63527881D01*
X49106264Y-63360432D01*
X48863755Y-62584256D01*
X48597857Y-61730806D01*
X48321131Y-60840558D01*
X48046138Y-59953987D01*
X47785439Y-59111569D01*
X47551595Y-58353781D01*
X47443546Y-58002598D01*
X47152876Y-57058607D01*
X46880450Y-56177769D01*
X46629341Y-55369823D01*
X46402622Y-54644508D01*
X46203367Y-54011561D01*
X46034650Y-53480722D01*
X45899542Y-53061728D01*
X45801119Y-52764318D01*
X45742452Y-52598230D01*
X45727697Y-52565743D01*
X45643265Y-52559876D01*
X45437128Y-52567076D01*
X45140256Y-52584779D01*
X44783620Y-52610421D01*
X44398192Y-52641438D01*
X44014941Y-52675264D01*
X43664839Y-52709336D01*
X43378856Y-52741089D01*
X43187964Y-52767960D01*
X43131974Y-52780664D01*
X43095185Y-52801540D01*
X43053184Y-52845219D01*
X43001649Y-52921707D01*
X42936257Y-53041009D01*
X42852684Y-53213129D01*
X42746608Y-53448073D01*
X42613706Y-53755846D01*
X42449655Y-54146451D01*
X42250133Y-54629895D01*
X42010816Y-55216183D01*
X41727381Y-55915318D01*
X41395505Y-56737306D01*
X41024904Y-57657281D01*
X40727710Y-58395067D01*
X40389427Y-59234078D01*
X40026610Y-60133304D01*
X39655814Y-61051731D01*
X39293595Y-61948350D01*
X38956509Y-62782147D01*
X38779071Y-63220725D01*
X38427064Y-64090649D01*
X38128451Y-64829220D01*
X37878994Y-65447327D01*
X37674456Y-65955859D01*
X37510598Y-66365706D01*
X37383183Y-66687755D01*
X37287973Y-66932897D01*
X37220729Y-67112021D01*
X37177213Y-67236016D01*
X37153188Y-67315770D01*
X37144417Y-67362174D01*
X34300223Y-67362174D01*
X34316887Y-67324835D01*
X34441606Y-67025040D01*
X34584694Y-66665182D01*
X34640686Y-66520423D01*
X34818744Y-66057190D01*
X35028867Y-65511551D01*
X35247659Y-64944207D01*
X35451724Y-64415854D01*
X35498442Y-64295046D01*
X35641001Y-63924944D01*
X35826957Y-63439768D01*
X36045445Y-62868001D01*
X36285596Y-62238129D01*
X36536546Y-61578639D01*
X36787426Y-60918014D01*
X36903578Y-60611662D01*
X37162043Y-59929915D01*
X37435739Y-59208619D01*
X37711605Y-58482152D01*
X37976582Y-57784889D01*
X38217608Y-57151209D01*
X38421622Y-56615489D01*
X38477913Y-56467855D01*
X38804689Y-55608912D01*
X39083055Y-54872469D01*
X39311707Y-54262050D01*
X39489340Y-53781179D01*
X39614650Y-53433377D01*
X39686335Y-53222170D01*
X39704193Y-53154160D01*
X39633066Y-53137640D01*
X39438555Y-53132619D01*
X39150191Y-53137541D01*
X38797509Y-53150852D01*
X38410041Y-53170996D01*
X38017321Y-53196419D01*
X37648881Y-53225567D01*
X37334255Y-53256884D01*
X37102976Y-53288816D01*
X37085330Y-53292028D01*
X37044588Y-53298754D01*
X37007594Y-53308605D01*
X36970737Y-53330805D01*
X36930403Y-53374580D01*
X36882981Y-53449153D01*
X36824858Y-53563751D01*
X36752422Y-53727597D01*
X36662061Y-53949918D01*
X36550161Y-54239936D01*
X36413111Y-54606879D01*
X36247298Y-55059969D01*
X36049111Y-55608433D01*
X35814936Y-56261495D01*
X35541161Y-57028380D01*
X35224174Y-57918313D01*
X34860362Y-58940518D01*
X34729882Y-59307130D01*
X34395631Y-60245862D01*
X34108788Y-61050277D01*
X33865459Y-61730704D01*
X33661747Y-62297472D01*
X33493757Y-62760909D01*
X33357595Y-63131344D01*
X33249363Y-63419106D01*
X33165168Y-63634524D01*
X33101114Y-63787925D01*
X33053305Y-63889639D01*
X33017846Y-63949995D01*
X32990841Y-63979321D01*
X32968396Y-63987946D01*
X32964496Y-63988097D01*
X32921082Y-63915334D01*
X32841064Y-63702729D01*
X32727098Y-63358809D01*
X32581841Y-62892098D01*
X32407950Y-62311123D01*
X32208082Y-61624410D01*
X31996109Y-60880242D01*
X31932321Y-60655894D01*
X31831657Y-60303959D01*
X31699822Y-59844298D01*
X31542526Y-59296772D01*
X31365475Y-58681242D01*
X31174376Y-58017570D01*
X30974938Y-57325616D01*
X30893534Y-57043384D01*
X29985885Y-53897160D01*
X29339620Y-53919768D01*
X28898500Y-53940484D01*
X28455389Y-53970544D01*
X28038516Y-54007012D01*
X27676112Y-54046956D01*
X27396405Y-54087440D01*
X27227625Y-54125530D01*
X27193597Y-54142822D01*
X27192299Y-54236566D01*
X25762389Y-54236566D01*
X25958277Y-53879303D01*
X26283531Y-53426429D01*
X26305527Y-53398369D01*
X26391600Y-53281000D01*
X26558644Y-53045437D01*
X26800853Y-52700071D01*
X27112419Y-52253291D01*
X27487533Y-51713489D01*
X27920389Y-51089055D01*
X28405179Y-50388379D01*
X28595910Y-50112287D01*
X40975101Y-50112287D01*
X40996481Y-50279321D01*
X41046130Y-50328882D01*
X41149624Y-50320676D01*
X41378915Y-50297921D01*
X41707308Y-50263413D01*
X42108109Y-50219946D01*
X42474706Y-50179285D01*
X42986361Y-50121811D01*
X43598564Y-50052763D01*
X44259385Y-49978016D01*
X44916893Y-49903443D01*
X45498792Y-49837239D01*
X46054991Y-49773858D01*
X46618566Y-49709677D01*
X47151102Y-49649069D01*
X47614181Y-49596405D01*
X47969387Y-49556058D01*
X48013977Y-49550999D01*
X48357356Y-49505515D01*
X48644121Y-49455294D01*
X48839768Y-49407132D01*
X48907170Y-49375069D01*
X48934674Y-49272233D01*
X48964888Y-49046009D01*
X48994707Y-48726372D01*
X49021030Y-48343297D01*
X49028861Y-48199426D01*
X49049093Y-47766280D01*
X49057584Y-47463669D01*
X49053017Y-47269011D01*
X49034075Y-47159720D01*
X48999441Y-47113214D01*
X48965074Y-47105922D01*
X48862267Y-47113111D01*
X48641078Y-47135084D01*
X48296152Y-47172446D01*
X47822138Y-47225800D01*
X47213683Y-47295754D01*
X46465433Y-47382911D01*
X45572038Y-47487877D01*
X45230212Y-47528210D01*
X44790537Y-47578920D01*
X44351782Y-47627424D01*
X43963823Y-47668333D01*
X43676536Y-47696257D01*
X43668684Y-47696954D01*
X43143108Y-47743353D01*
X43191158Y-46292764D01*
X43208958Y-45798000D01*
X43228677Y-45320959D01*
X43248675Y-44896742D01*
X43267312Y-44560452D01*
X43281081Y-44367438D01*
X43309627Y-44104907D01*
X43348927Y-43956970D01*
X43417513Y-43884943D01*
X43528396Y-43851249D01*
X43655375Y-43832781D01*
X43913877Y-43800842D01*
X44282776Y-43757842D01*
X44740942Y-43706187D01*
X45267250Y-43648287D01*
X45840571Y-43586549D01*
X45993001Y-43570348D01*
X46572609Y-43507423D01*
X47108411Y-43446414D01*
X47579743Y-43389898D01*
X47965939Y-43340451D01*
X48246333Y-43300650D01*
X48400260Y-43273072D01*
X48417408Y-43268074D01*
X48494729Y-43224528D01*
X48547409Y-43143834D01*
X48583444Y-42995623D01*
X48610828Y-42749526D01*
X48632620Y-42450600D01*
X48654926Y-42074827D01*
X48672196Y-41709986D01*
X48681833Y-41414293D01*
X48682987Y-41320866D01*
X48683384Y-40945780D01*
X48088671Y-40999619D01*
X47841209Y-41024274D01*
X47471538Y-41064060D01*
X47009804Y-41115586D01*
X46486151Y-41175462D01*
X45930724Y-41240300D01*
X45613898Y-41277888D01*
X45084177Y-41340294D01*
X44597175Y-41396101D01*
X44176167Y-41442767D01*
X43844433Y-41477750D01*
X43625250Y-41498507D01*
X43550745Y-41503214D01*
X43367653Y-41504109D01*
X43423509Y-40027878D01*
X43444145Y-39561055D01*
X43468265Y-39142337D01*
X43493918Y-38797717D01*
X43519157Y-38553187D01*
X43542033Y-38434741D01*
X43543106Y-38432545D01*
X43590238Y-38395909D01*
X43701090Y-38358263D01*
X43888949Y-38317565D01*
X44167101Y-38271775D01*
X44548834Y-38218854D01*
X45047434Y-38156761D01*
X45676187Y-38083456D01*
X46202669Y-38024178D01*
X46825757Y-37954208D01*
X47407128Y-37887900D01*
X47927400Y-37827544D01*
X48367191Y-37775427D01*
X48707119Y-37733839D01*
X48927802Y-37705069D01*
X49001914Y-37693590D01*
X49205338Y-37652266D01*
X49260754Y-36543725D01*
X49277157Y-36146274D01*
X49284698Y-35804806D01*
X49283250Y-35547930D01*
X49272685Y-35404256D01*
X49265918Y-35384931D01*
X49227187Y-35377263D01*
X49128451Y-35377993D01*
X48961183Y-35388008D01*
X48716857Y-35408195D01*
X48386944Y-35439441D01*
X47962917Y-35482632D01*
X47436249Y-35538655D01*
X46798412Y-35608397D01*
X46040880Y-35692745D01*
X45155124Y-35792586D01*
X44132617Y-35908806D01*
X43165666Y-36019293D01*
X42681937Y-36075575D01*
X42252473Y-36127274D01*
X41899689Y-36171549D01*
X41646000Y-36205559D01*
X41513821Y-36226463D01*
X41500088Y-36230406D01*
X41487612Y-36315616D01*
X41470942Y-36543812D01*
X41450486Y-36904577D01*
X41426650Y-37387491D01*
X41399841Y-37982136D01*
X41370467Y-38678094D01*
X41338934Y-39464946D01*
X41305649Y-40332272D01*
X41271020Y-41269656D01*
X41235454Y-42266678D01*
X41199357Y-43312919D01*
X41163137Y-44397961D01*
X41127201Y-45511386D01*
X41091955Y-46642775D01*
X41087191Y-46798973D01*
X41067592Y-47429878D01*
X41048025Y-48035098D01*
X41029304Y-48591286D01*
X41012239Y-49075094D01*
X40997645Y-49463174D01*
X40986333Y-49732179D01*
X40982377Y-49810907D01*
X40975101Y-50112287D01*
X28595910Y-50112287D01*
X28936096Y-49619853D01*
X29507331Y-48791867D01*
X30113077Y-47912810D01*
X30747527Y-46991075D01*
X31404873Y-46035051D01*
X31776281Y-45494441D01*
X32618289Y-44268426D01*
X33380284Y-43158754D01*
X34069176Y-42155283D01*
X34691877Y-41247873D01*
X35255298Y-40426382D01*
X35766351Y-39680668D01*
X36231946Y-39000590D01*
X36658995Y-38376007D01*
X37054410Y-37796776D01*
X37425102Y-37252758D01*
X37777981Y-36733810D01*
X38119960Y-36229790D01*
X38457949Y-35730558D01*
X38798861Y-35225971D01*
X39149606Y-34705889D01*
X39517095Y-34160170D01*
X39908241Y-33578673D01*
X40329954Y-32951255D01*
X40718871Y-32372387D01*
X41245859Y-31590647D01*
X41699032Y-30926205D01*
X42088078Y-30367591D01*
X42422684Y-29903333D01*
X42712538Y-29521959D01*
X42967328Y-29211999D01*
X43196741Y-28961980D01*
X43410465Y-28760432D01*
X43618187Y-28595884D01*
X43829596Y-28456864D01*
X44054379Y-28331900D01*
X44187872Y-28264686D01*
X44869155Y-28010005D01*
X45558021Y-27905655D01*
X46243845Y-27949575D01*
X46243845Y-27949575D01*
G37*
X46243845Y-27949575D02*
X46916000Y-28139704D01*
X47563861Y-28473984D01*
X48176800Y-28950354D01*
X48292086Y-29060351D01*
X48428948Y-29210254D01*
X48649093Y-29470608D01*
X48943108Y-29829547D01*
X49301580Y-30275205D01*
X49715095Y-30795713D01*
X50174242Y-31379206D01*
X50669607Y-32013817D01*
X51191776Y-32687679D01*
X51731338Y-33388924D01*
X51893139Y-33600181D01*
X52432012Y-34304358D01*
X52951896Y-34983405D01*
X53443874Y-35625697D01*
X53899031Y-36219606D01*
X54308449Y-36753505D01*
X54663212Y-37215768D01*
X54954401Y-37594769D01*
X55173101Y-37878880D01*
X55310395Y-38056475D01*
X55335989Y-38089305D01*
X55437411Y-38219662D01*
X55625004Y-38461674D01*
X55891163Y-38805506D01*
X56228286Y-39241320D01*
X56628767Y-39759280D01*
X57085004Y-40349547D01*
X57589393Y-41002284D01*
X58134329Y-41707655D01*
X58712208Y-42455823D01*
X59315428Y-43236950D01*
X59725351Y-43767855D01*
X60343423Y-44568087D01*
X60942949Y-45343713D01*
X61516129Y-46084679D01*
X62055165Y-46780930D01*
X62552260Y-47422411D01*
X62999615Y-47999069D01*
X63389431Y-48500849D01*
X63713911Y-48917696D01*
X63965257Y-49239557D01*
X64135669Y-49456376D01*
X64198675Y-49535392D01*
X64407147Y-49804973D01*
X64583321Y-50054588D01*
X64699344Y-50243915D01*
X64722923Y-50294386D01*
X64740154Y-50418360D01*
X64754406Y-50683201D01*
X64765803Y-51076335D01*
X64774469Y-51585188D01*
X64780526Y-52197183D01*
X64784099Y-52899747D01*
X64785310Y-53680303D01*
X64784285Y-54526277D01*
X64781146Y-55425095D01*
X64776017Y-56364180D01*
X64769022Y-57330959D01*
X64760284Y-58312856D01*
X64749927Y-59297295D01*
X64738075Y-60271703D01*
X64724851Y-61223504D01*
X64710378Y-62140123D01*
X64694781Y-63008985D01*
X64678183Y-63817515D01*
X64660708Y-64553138D01*
X64642479Y-65203280D01*
X64623620Y-65755364D01*
X64604255Y-66196817D01*
X64584507Y-66515063D01*
X64564499Y-66697527D01*
X64561516Y-66712266D01*
X64391460Y-67224012D01*
X64144810Y-67611110D01*
X63825598Y-67867467D01*
X63782505Y-67889204D01*
X63682538Y-67931143D01*
X63563418Y-67966673D01*
X63408667Y-67997261D01*
X63201808Y-68024373D01*
X62926365Y-68049474D01*
X62565859Y-68074032D01*
X62103814Y-68099512D01*
X61523752Y-68127381D01*
X60809196Y-68159105D01*
X60692750Y-68164141D01*
X60004128Y-68193590D01*
X59318737Y-68222408D01*
X58662959Y-68249522D01*
X58063179Y-68273857D01*
X57545778Y-68294341D01*
X57137142Y-68309898D01*
X56932629Y-68317191D01*
X56017447Y-68392738D01*
X55212844Y-68557640D01*
X54500026Y-68818691D01*
X53860196Y-69182683D01*
X53304571Y-69628412D01*
X52768212Y-70215885D01*
X52323269Y-70888877D01*
X51986804Y-71614167D01*
X51775878Y-72358536D01*
X51725145Y-72703724D01*
X51714229Y-72867434D01*
X51703248Y-73144744D01*
X51692161Y-73538869D01*
X51680926Y-74053022D01*
X51669500Y-74690419D01*
X51657842Y-75454274D01*
X51645910Y-76347800D01*
X51633662Y-77374212D01*
X51621056Y-78536725D01*
X51608051Y-79838552D01*
X51594603Y-81282907D01*
X51580673Y-82873006D01*
X51566216Y-84612062D01*
X51560203Y-85359396D01*
X51552517Y-86271799D01*
X51544190Y-87167887D01*
X51535425Y-88031077D01*
X51526425Y-88844787D01*
X51517392Y-89592434D01*
X51508530Y-90257436D01*
X51500041Y-90823209D01*
X51492128Y-91273171D01*
X51484995Y-91590739D01*
X51483222Y-91651843D01*
X51476092Y-91952762D01*
X51469027Y-92387792D01*
X51462197Y-92937566D01*
X51455768Y-93582721D01*
X51449909Y-94303892D01*
X51444788Y-95081715D01*
X51440573Y-95896826D01*
X51437433Y-96729858D01*
X51436615Y-97023444D01*
X51432970Y-97916122D01*
X51426839Y-98740651D01*
X51418453Y-99484988D01*
X51408040Y-100137092D01*
X51395833Y-100684919D01*
X51382060Y-101116427D01*
X51366952Y-101419574D01*
X51350739Y-101582318D01*
X51349314Y-101589305D01*
X51151602Y-102219350D01*
X50862092Y-102729922D01*
X50475112Y-103128584D01*
X49984988Y-103422895D01*
X49967453Y-103430712D01*
X49914861Y-103454803D01*
X49867070Y-103476161D01*
X49814851Y-103495322D01*
X49748976Y-103512825D01*
X49660218Y-103529207D01*
X49539349Y-103545005D01*
X49377140Y-103560757D01*
X49164365Y-103577000D01*
X48891795Y-103594272D01*
X48550203Y-103613111D01*
X48130360Y-103634053D01*
X47623039Y-103657637D01*
X47019013Y-103684400D01*
X46309053Y-103714879D01*
X45483931Y-103749611D01*
X44534421Y-103789136D01*
X43451293Y-103833989D01*
X42225320Y-103884709D01*
X42045620Y-103892148D01*
X41111246Y-103930751D01*
X40317253Y-103963031D01*
X39650679Y-103989020D01*
X39098561Y-104008747D01*
X38647937Y-104022244D01*
X38285847Y-104029541D01*
X37999326Y-104030671D01*
X37775414Y-104025662D01*
X37601148Y-104014548D01*
X37463567Y-103997357D01*
X37349708Y-103974122D01*
X37246608Y-103944873D01*
X37141307Y-103909641D01*
X37124624Y-103903878D01*
X36735022Y-103746515D01*
X36451393Y-103568820D01*
X36226805Y-103337248D01*
X36117529Y-103184032D01*
X35906647Y-102864058D01*
X35915850Y-101363388D01*
X35922189Y-100846657D01*
X35934913Y-100220917D01*
X35952817Y-99530444D01*
X35974693Y-98819515D01*
X35999335Y-98132408D01*
X36013199Y-97790816D01*
X36030138Y-97380634D01*
X36051919Y-96833873D01*
X36077907Y-96167329D01*
X36107468Y-95397800D01*
X36139967Y-94542082D01*
X36174771Y-93616972D01*
X36211245Y-92639268D01*
X36248754Y-91625766D01*
X36286665Y-90593263D01*
X36324343Y-89558556D01*
X36330518Y-89388097D01*
X36337477Y-89196254D01*
X39911795Y-89196254D01*
X41425754Y-89208456D01*
X41891559Y-89213804D01*
X42302665Y-89221561D01*
X42635260Y-89231027D01*
X42865534Y-89241503D01*
X42969675Y-89252291D01*
X42972928Y-89253874D01*
X42978985Y-89336335D01*
X42979063Y-89551732D01*
X42973598Y-89879660D01*
X42963022Y-90299716D01*
X42947770Y-90791494D01*
X42929078Y-91313575D01*
X42873035Y-92797846D01*
X42822084Y-94168978D01*
X42776358Y-95423026D01*
X42735985Y-96556048D01*
X42701098Y-97564099D01*
X42671827Y-98443236D01*
X42648303Y-99189513D01*
X42630656Y-99798988D01*
X42619017Y-100267716D01*
X42613517Y-100591753D01*
X42614287Y-100767156D01*
X42615168Y-100783565D01*
X42692897Y-100815031D01*
X42914247Y-100831385D01*
X43270075Y-100832283D01*
X43637758Y-100821934D01*
X44654683Y-100783565D01*
X44705062Y-99939456D01*
X44716786Y-99711455D01*
X44733158Y-99346189D01*
X44753550Y-98859777D01*
X44777332Y-98268339D01*
X44803877Y-97587994D01*
X44832555Y-96834861D01*
X44862739Y-96025058D01*
X44893799Y-95174705D01*
X44925108Y-94299921D01*
X44926489Y-94260907D01*
X44957522Y-93409409D01*
X44988763Y-92600306D01*
X45019574Y-91847153D01*
X45049318Y-91163507D01*
X45077357Y-90562922D01*
X45103053Y-90058957D01*
X45125769Y-89665166D01*
X45144868Y-89395107D01*
X45159711Y-89262334D01*
X45161975Y-89253807D01*
X45190262Y-89191329D01*
X45236300Y-89145973D01*
X45322463Y-89114865D01*
X45471125Y-89095131D01*
X45704660Y-89083897D01*
X46045443Y-89078291D01*
X46515847Y-89075438D01*
X46552028Y-89075277D01*
X47103623Y-89071347D01*
X47519627Y-89064480D01*
X47817909Y-89053754D01*
X48016339Y-89038246D01*
X48132787Y-89017031D01*
X48183536Y-88990985D01*
X48195241Y-88909690D01*
X48211974Y-88702428D01*
X48231874Y-88396550D01*
X48253077Y-88019408D01*
X48263100Y-87822535D01*
X48319416Y-86679028D01*
X45873152Y-86735627D01*
X44693975Y-86763745D01*
X43636876Y-86790682D01*
X42705769Y-86816305D01*
X41904564Y-86840482D01*
X41237176Y-86863079D01*
X40707515Y-86883964D01*
X40319494Y-86903005D01*
X40077027Y-86920068D01*
X39984024Y-86935021D01*
X39983707Y-86935306D01*
X39969267Y-87021386D01*
X39954937Y-87232717D01*
X39942060Y-87541082D01*
X39931981Y-87918263D01*
X39928995Y-88084536D01*
X39911795Y-89196254D01*
X36337477Y-89196254D01*
X36369172Y-88322639D01*
X36408865Y-87232928D01*
X36448868Y-86138743D01*
X36488450Y-85059868D01*
X36526882Y-84016084D01*
X36563434Y-83027173D01*
X36597377Y-82112916D01*
X36627981Y-81293096D01*
X36654515Y-80587495D01*
X36675858Y-80026163D01*
X36688678Y-79690488D01*
X39643644Y-79690488D01*
X39667789Y-80019302D01*
X39730892Y-80457728D01*
X39831848Y-80993126D01*
X39870747Y-81177221D01*
X40119421Y-82045930D01*
X40462794Y-82794055D01*
X40899321Y-83420559D01*
X41427458Y-83924407D01*
X42045660Y-84304562D01*
X42752383Y-84559988D01*
X43546082Y-84689647D01*
X44425213Y-84692504D01*
X45015705Y-84629678D01*
X45667319Y-84490803D01*
X46225857Y-84265482D01*
X46736052Y-83931273D01*
X47151908Y-83558043D01*
X47494315Y-83193142D01*
X47748890Y-82859768D01*
X47955275Y-82503984D01*
X48012772Y-82386812D01*
X48212194Y-81951420D01*
X48357769Y-81582919D01*
X48457682Y-81241265D01*
X48520120Y-80886413D01*
X48553272Y-80478321D01*
X48565323Y-79976943D01*
X48565997Y-79680846D01*
X48563338Y-79207734D01*
X48554635Y-78853093D01*
X48535769Y-78581932D01*
X48502621Y-78359259D01*
X48451072Y-78150082D01*
X48377004Y-77919411D01*
X48349206Y-77839154D01*
X48165640Y-77360369D01*
X47977395Y-76981988D01*
X47755752Y-76652839D01*
X47538037Y-76393840D01*
X47268084Y-76123062D01*
X46966360Y-75882338D01*
X46610381Y-75659449D01*
X46177665Y-75442176D01*
X45645728Y-75218300D01*
X44992088Y-74975602D01*
X44812062Y-74912309D01*
X44113466Y-74656416D01*
X43552684Y-74419966D01*
X43116925Y-74192844D01*
X42793401Y-73964937D01*
X42569323Y-73726129D01*
X42431904Y-73466306D01*
X42368353Y-73175352D01*
X42360461Y-72973323D01*
X42431712Y-72488922D01*
X42627718Y-72091477D01*
X42944224Y-71784817D01*
X43376977Y-71572767D01*
X43921721Y-71459154D01*
X44056863Y-71447704D01*
X44668526Y-71457958D01*
X45185271Y-71572091D01*
X45595984Y-71787619D01*
X45603984Y-71793665D01*
X45831157Y-72038049D01*
X46035591Y-72388011D01*
X46193306Y-72795662D01*
X46267992Y-73119819D01*
X46313621Y-73345721D01*
X46365171Y-73508652D01*
X46384043Y-73542624D01*
X46478669Y-73566186D01*
X46690564Y-73577678D01*
X46984113Y-73578518D01*
X47323706Y-73570125D01*
X47673730Y-73553917D01*
X47998572Y-73531314D01*
X48262620Y-73503733D01*
X48430262Y-73472594D01*
X48461712Y-73459859D01*
X48499028Y-73358180D01*
X48508528Y-73140613D01*
X48493004Y-72841660D01*
X48455248Y-72495825D01*
X48398052Y-72137610D01*
X48329047Y-71820392D01*
X48075092Y-71085187D01*
X47713722Y-70438421D01*
X47255552Y-69892783D01*
X46711200Y-69460959D01*
X46102544Y-69159753D01*
X45841235Y-69068085D01*
X45617983Y-69005704D01*
X45391729Y-68967049D01*
X45121415Y-68946561D01*
X44765982Y-68938678D01*
X44462840Y-68937680D01*
X44006527Y-68941678D01*
X43662794Y-68956718D01*
X43390882Y-68987428D01*
X43150030Y-69038434D01*
X42899478Y-69114361D01*
X42896033Y-69115514D01*
X42215578Y-69421875D01*
X41621176Y-69852954D01*
X41122112Y-70400573D01*
X40754646Y-71001313D01*
X40504819Y-71573937D01*
X40345075Y-72127235D01*
X40262533Y-72718734D01*
X40243431Y-73284370D01*
X40282071Y-74049037D01*
X40403674Y-74716101D01*
X40620297Y-75324076D01*
X40944001Y-75911472D01*
X41166479Y-76232191D01*
X41406914Y-76516535D01*
X41696439Y-76775549D01*
X42053301Y-77019624D01*
X42495745Y-77259148D01*
X43042015Y-77504511D01*
X43710359Y-77766102D01*
X44123740Y-77916094D01*
X44775417Y-78158360D01*
X45292190Y-78379578D01*
X45688725Y-78593113D01*
X45979684Y-78812331D01*
X46179732Y-79050596D01*
X46303533Y-79321273D01*
X46365749Y-79637727D01*
X46381209Y-79973606D01*
X46312394Y-80531576D01*
X46117323Y-81022648D01*
X45812835Y-81435412D01*
X45415765Y-81758458D01*
X44942953Y-81980377D01*
X44411234Y-82089756D01*
X43837446Y-82075188D01*
X43415005Y-81983717D01*
X42912131Y-81760789D01*
X42499664Y-81416695D01*
X42176406Y-80949825D01*
X41941157Y-80358574D01*
X41824988Y-79851421D01*
X41772335Y-79566643D01*
X41725220Y-79346065D01*
X41692144Y-79228650D01*
X41687234Y-79220144D01*
X41602130Y-79215685D01*
X41395786Y-79228975D01*
X41099087Y-79257447D01*
X40742916Y-79298531D01*
X40739415Y-79298965D01*
X40373610Y-79343257D01*
X40058130Y-79379437D01*
X39827282Y-79403704D01*
X39716640Y-79412266D01*
X39659559Y-79483928D01*
X39643644Y-79690488D01*
X36688678Y-79690488D01*
X36718094Y-78920351D01*
X36754400Y-77956908D01*
X36784912Y-77124852D01*
X36809771Y-76413199D01*
X36829115Y-75810963D01*
X36843083Y-75307162D01*
X36851813Y-74890811D01*
X36855444Y-74550927D01*
X36854115Y-74276525D01*
X36847964Y-74056622D01*
X36837130Y-73880233D01*
X36821753Y-73736374D01*
X36801970Y-73614063D01*
X36777921Y-73502313D01*
X36759205Y-73426768D01*
X36502617Y-72700590D01*
X36131226Y-72061437D01*
X35654887Y-71522242D01*
X35083457Y-71095937D01*
X34909064Y-70999236D01*
X34699467Y-70895629D01*
X34495221Y-70808354D01*
X34282426Y-70736603D01*
X34047181Y-70679571D01*
X33775588Y-70636449D01*
X33453747Y-70606431D01*
X33067758Y-70588710D01*
X32603722Y-70582479D01*
X32047740Y-70586930D01*
X31385911Y-70601258D01*
X30604337Y-70624655D01*
X29689117Y-70656314D01*
X29267088Y-70671676D01*
X28564321Y-70696986D01*
X27996869Y-70715700D01*
X27546705Y-70727576D01*
X27195801Y-70732371D01*
X26926129Y-70729844D01*
X26719662Y-70719752D01*
X26558372Y-70701853D01*
X26424231Y-70675904D01*
X26299213Y-70641664D01*
X26265856Y-70631335D01*
X25804567Y-70426195D01*
X25471630Y-70138240D01*
X25262488Y-69761388D01*
X25172581Y-69289562D01*
X25168298Y-69167855D01*
X25168293Y-68937359D01*
X25171452Y-68585335D01*
X25177369Y-68131484D01*
X25185644Y-67595505D01*
X25195871Y-66997098D01*
X25207650Y-66355962D01*
X25220575Y-65691796D01*
X25234245Y-65024302D01*
X25248257Y-64373176D01*
X25262206Y-63758121D01*
X25275691Y-63198834D01*
X25288309Y-62715016D01*
X25299655Y-62326366D01*
X25309328Y-62052583D01*
X25316657Y-61916194D01*
X25324988Y-61762082D01*
X25335000Y-61473909D01*
X25346229Y-61071072D01*
X25358210Y-60572968D01*
X25370479Y-59998995D01*
X25382570Y-59368551D01*
X25394020Y-58701032D01*
X25394762Y-58654864D01*
X25407281Y-57972539D01*
X25422351Y-57314764D01*
X25439261Y-56703029D01*
X25457298Y-56158822D01*
X25475750Y-55703633D01*
X25493906Y-55358951D01*
X25511036Y-55146395D01*
X25592239Y-54694822D01*
X25734583Y-54287279D01*
X25762389Y-54236566D01*
X27192299Y-54236566D01*
X27232499Y-54443506D01*
X27306889Y-54731331D01*
X27389781Y-55009849D01*
X27516354Y-55418493D01*
X27677372Y-55947172D01*
X27864673Y-56568482D01*
X28070096Y-57255017D01*
X28285480Y-57979369D01*
X28502663Y-58714135D01*
X28713484Y-59431907D01*
X28909783Y-60105280D01*
X29000820Y-60419819D01*
X29152161Y-60939197D01*
X29330540Y-61543475D01*
X29517608Y-62170942D01*
X29695017Y-62759887D01*
X29765165Y-62990514D01*
X29909102Y-63462524D01*
X30069374Y-63989060D01*
X30239825Y-64549804D01*
X30414298Y-65124439D01*
X30586638Y-65692648D01*
X30750689Y-66234113D01*
X30900295Y-66728519D01*
X31029300Y-67155546D01*
X31131549Y-67494880D01*
X31200884Y-67726201D01*
X31230194Y-67825732D01*
X31255634Y-67865623D01*
X31319231Y-67891233D01*
X31441488Y-67902555D01*
X31642906Y-67899583D01*
X31943987Y-67882310D01*
X32365234Y-67850731D01*
X32679622Y-67825289D01*
X33132557Y-67784463D01*
X33533595Y-67741418D01*
X33857249Y-67699449D01*
X34078029Y-67661851D01*
X34169790Y-67632668D01*
X34222346Y-67536675D01*
X34300223Y-67362174D01*
X37144417Y-67362174D01*
X37146659Y-67386116D01*
X37153820Y-67396700D01*
X37192409Y-67410666D01*
X37283477Y-67415367D01*
X37444613Y-67409640D01*
X37693403Y-67392325D01*
X38047435Y-67362259D01*
X38524296Y-67318281D01*
X38937765Y-67278870D01*
X39274611Y-67242205D01*
X39552409Y-67203902D01*
X39736952Y-67169167D01*
X39793483Y-67148695D01*
X39834786Y-67064371D01*
X39922040Y-66858371D01*
X40046460Y-66552400D01*
X40199263Y-66168163D01*
X40371663Y-65727365D01*
X40435985Y-65561209D01*
X40614098Y-65104175D01*
X40776800Y-64694808D01*
X40915077Y-64355133D01*
X41019916Y-64107177D01*
X41082305Y-63972967D01*
X41092402Y-63956988D01*
X41184776Y-63930688D01*
X41407743Y-63896083D01*
X41739460Y-63855039D01*
X42158085Y-63809420D01*
X42641777Y-63761088D01*
X43168694Y-63711908D01*
X43716993Y-63663744D01*
X44264832Y-63618459D01*
X44790370Y-63577918D01*
X45271765Y-63543985D01*
X45687174Y-63518523D01*
X46014756Y-63503396D01*
X46232669Y-63500469D01*
X46318562Y-63511009D01*
X46361458Y-63603310D01*
X46439487Y-63818884D01*
X46544642Y-64133717D01*
X46668916Y-64523794D01*
X46804302Y-64965103D01*
X46812672Y-64992912D01*
X46948240Y-65436354D01*
X47072822Y-65829871D01*
X47178485Y-66149498D01*
X47257292Y-66371269D01*
X47301308Y-66471218D01*
X47302705Y-66472855D01*
X47393702Y-66485540D01*
X47606290Y-66484193D01*
X47909471Y-66471245D01*
X48272249Y-66449127D01*
X48663624Y-66420271D01*
X49052600Y-66387107D01*
X49408180Y-66352067D01*
X49699364Y-66317582D01*
X49895156Y-66286083D01*
X49962743Y-66264226D01*
X49949407Y-66184662D01*
X49901401Y-66001511D01*
X51838166Y-66001511D01*
X51907618Y-66047151D01*
X52078796Y-66064034D01*
X52367753Y-66053563D01*
X52790543Y-66017142D01*
X52841775Y-66012028D01*
X53225920Y-65974560D01*
X53571224Y-65943128D01*
X53839598Y-65921056D01*
X53991911Y-65911692D01*
X54113170Y-65895760D01*
X54181076Y-65829986D01*
X54219133Y-65675652D01*
X54239610Y-65503656D01*
X54249656Y-65347026D01*
X54262142Y-65053793D01*
X54276574Y-64640798D01*
X54292461Y-64124885D01*
X54309310Y-63522896D01*
X54326628Y-62851674D01*
X54343924Y-62128061D01*
X54360705Y-61368900D01*
X54361303Y-61340665D01*
X54382562Y-60361400D01*
X54402135Y-59525338D01*
X54420590Y-58822223D01*
X54438492Y-58241801D01*
X54456407Y-57773814D01*
X54474902Y-57408010D01*
X54494543Y-57134131D01*
X54515896Y-56941924D01*
X54539529Y-56821132D01*
X54566006Y-56761500D01*
X54595895Y-56752774D01*
X54613930Y-56765894D01*
X54667625Y-56831651D01*
X54747022Y-56951680D01*
X54861524Y-57142052D01*
X55020540Y-57418842D01*
X55233473Y-57798123D01*
X55509731Y-58295969D01*
X55517239Y-58309547D01*
X55672961Y-58589958D01*
X55846655Y-58900178D01*
X56045362Y-59252560D01*
X56276124Y-59659458D01*
X56545981Y-60133226D01*
X56861973Y-60686216D01*
X57231143Y-61330783D01*
X57660530Y-62079279D01*
X58157176Y-62944059D01*
X58346049Y-63272755D01*
X59588676Y-65435056D01*
X59833764Y-65403539D01*
X60004896Y-65384612D01*
X60289271Y-65356427D01*
X60647219Y-65322802D01*
X61036154Y-65287811D01*
X61404126Y-65253509D01*
X61714591Y-65220925D01*
X61936635Y-65193563D01*
X62039342Y-65174928D01*
X62041630Y-65173827D01*
X62057437Y-65091959D01*
X62075648Y-64878419D01*
X62095055Y-64554964D01*
X62114452Y-64143352D01*
X62132631Y-63665343D01*
X62142400Y-63357465D01*
X62193421Y-61613724D01*
X62239403Y-60019244D01*
X62280441Y-58569898D01*
X62316629Y-57261557D01*
X62348062Y-56090094D01*
X62374834Y-55051382D01*
X62397040Y-54141292D01*
X62414774Y-53355698D01*
X62428131Y-52690471D01*
X62437205Y-52141484D01*
X62442091Y-51704610D01*
X62442883Y-51375720D01*
X62439676Y-51150688D01*
X62432563Y-51025385D01*
X62425406Y-50994892D01*
X62332434Y-50980119D01*
X62121231Y-50979036D01*
X61826204Y-50989331D01*
X61481760Y-51008695D01*
X61122306Y-51034816D01*
X60782250Y-51065385D01*
X60495998Y-51098091D01*
X60297957Y-51130623D01*
X60259863Y-51140310D01*
X60216626Y-51169950D01*
X60182707Y-51242565D01*
X60156050Y-51377348D01*
X60134600Y-51593492D01*
X60116300Y-51910192D01*
X60099095Y-52346640D01*
X60085561Y-52767808D01*
X60068185Y-53330835D01*
X60049568Y-53920122D01*
X60031193Y-54489684D01*
X60014541Y-54993536D01*
X60002171Y-55355166D01*
X59990380Y-55717501D01*
X59976125Y-56197915D01*
X59960379Y-56761048D01*
X59944116Y-57371545D01*
X59928307Y-57994047D01*
X59918786Y-58386284D01*
X59903763Y-58933672D01*
X59886231Y-59433236D01*
X59867247Y-59863625D01*
X59847867Y-60203489D01*
X59829147Y-60431477D01*
X59812981Y-60524915D01*
X59752683Y-60510689D01*
X59630228Y-60359693D01*
X59444966Y-60071003D01*
X59217246Y-59680806D01*
X58954214Y-59216101D01*
X58645598Y-58669383D01*
X58301315Y-58058339D01*
X57931282Y-57400656D01*
X57545419Y-56714022D01*
X57153642Y-56016125D01*
X56765870Y-55324651D01*
X56392022Y-54657289D01*
X56042014Y-54031726D01*
X55725765Y-53465649D01*
X55453192Y-52976746D01*
X55234214Y-52582705D01*
X55078749Y-52301212D01*
X55056632Y-52260856D01*
X54707251Y-51622135D01*
X54093354Y-51670310D01*
X53514899Y-51721916D01*
X53030142Y-51777843D01*
X52653792Y-51835803D01*
X52400558Y-51893509D01*
X52285149Y-51948675D01*
X52282981Y-51951769D01*
X52267472Y-52048230D01*
X52250217Y-52277536D01*
X52232163Y-52619076D01*
X52214258Y-53052246D01*
X52197449Y-53556435D01*
X52182683Y-54111039D01*
X52181627Y-54156577D01*
X52166943Y-54781835D01*
X52149035Y-55519776D01*
X52128928Y-56329665D01*
X52107646Y-57170769D01*
X52086213Y-58002355D01*
X52065652Y-58783689D01*
X52059862Y-59000181D01*
X52039786Y-59755328D01*
X52018499Y-60569812D01*
X51997021Y-61403579D01*
X51976375Y-62216578D01*
X51957584Y-62968758D01*
X51941669Y-63620065D01*
X51937455Y-63796254D01*
X51923240Y-64345769D01*
X51908118Y-64844758D01*
X51892890Y-65272718D01*
X51878356Y-65609143D01*
X51865314Y-65833531D01*
X51854566Y-65925376D01*
X51854386Y-65925710D01*
X51838166Y-66001511D01*
X49901401Y-66001511D01*
X49894385Y-65974744D01*
X49802381Y-65650418D01*
X49678096Y-65227625D01*
X49526234Y-64722309D01*
X49351497Y-64150413D01*
X49158587Y-63527881D01*
X49106264Y-63360432D01*
X48863755Y-62584256D01*
X48597857Y-61730806D01*
X48321131Y-60840558D01*
X48046138Y-59953987D01*
X47785439Y-59111569D01*
X47551595Y-58353781D01*
X47443546Y-58002598D01*
X47152876Y-57058607D01*
X46880450Y-56177769D01*
X46629341Y-55369823D01*
X46402622Y-54644508D01*
X46203367Y-54011561D01*
X46034650Y-53480722D01*
X45899542Y-53061728D01*
X45801119Y-52764318D01*
X45742452Y-52598230D01*
X45727697Y-52565743D01*
X45643265Y-52559876D01*
X45437128Y-52567076D01*
X45140256Y-52584779D01*
X44783620Y-52610421D01*
X44398192Y-52641438D01*
X44014941Y-52675264D01*
X43664839Y-52709336D01*
X43378856Y-52741089D01*
X43187964Y-52767960D01*
X43131974Y-52780664D01*
X43095185Y-52801540D01*
X43053184Y-52845219D01*
X43001649Y-52921707D01*
X42936257Y-53041009D01*
X42852684Y-53213129D01*
X42746608Y-53448073D01*
X42613706Y-53755846D01*
X42449655Y-54146451D01*
X42250133Y-54629895D01*
X42010816Y-55216183D01*
X41727381Y-55915318D01*
X41395505Y-56737306D01*
X41024904Y-57657281D01*
X40727710Y-58395067D01*
X40389427Y-59234078D01*
X40026610Y-60133304D01*
X39655814Y-61051731D01*
X39293595Y-61948350D01*
X38956509Y-62782147D01*
X38779071Y-63220725D01*
X38427064Y-64090649D01*
X38128451Y-64829220D01*
X37878994Y-65447327D01*
X37674456Y-65955859D01*
X37510598Y-66365706D01*
X37383183Y-66687755D01*
X37287973Y-66932897D01*
X37220729Y-67112021D01*
X37177213Y-67236016D01*
X37153188Y-67315770D01*
X37144417Y-67362174D01*
X34300223Y-67362174D01*
X34316887Y-67324835D01*
X34441606Y-67025040D01*
X34584694Y-66665182D01*
X34640686Y-66520423D01*
X34818744Y-66057190D01*
X35028867Y-65511551D01*
X35247659Y-64944207D01*
X35451724Y-64415854D01*
X35498442Y-64295046D01*
X35641001Y-63924944D01*
X35826957Y-63439768D01*
X36045445Y-62868001D01*
X36285596Y-62238129D01*
X36536546Y-61578639D01*
X36787426Y-60918014D01*
X36903578Y-60611662D01*
X37162043Y-59929915D01*
X37435739Y-59208619D01*
X37711605Y-58482152D01*
X37976582Y-57784889D01*
X38217608Y-57151209D01*
X38421622Y-56615489D01*
X38477913Y-56467855D01*
X38804689Y-55608912D01*
X39083055Y-54872469D01*
X39311707Y-54262050D01*
X39489340Y-53781179D01*
X39614650Y-53433377D01*
X39686335Y-53222170D01*
X39704193Y-53154160D01*
X39633066Y-53137640D01*
X39438555Y-53132619D01*
X39150191Y-53137541D01*
X38797509Y-53150852D01*
X38410041Y-53170996D01*
X38017321Y-53196419D01*
X37648881Y-53225567D01*
X37334255Y-53256884D01*
X37102976Y-53288816D01*
X37085330Y-53292028D01*
X37044588Y-53298754D01*
X37007594Y-53308605D01*
X36970737Y-53330805D01*
X36930403Y-53374580D01*
X36882981Y-53449153D01*
X36824858Y-53563751D01*
X36752422Y-53727597D01*
X36662061Y-53949918D01*
X36550161Y-54239936D01*
X36413111Y-54606879D01*
X36247298Y-55059969D01*
X36049111Y-55608433D01*
X35814936Y-56261495D01*
X35541161Y-57028380D01*
X35224174Y-57918313D01*
X34860362Y-58940518D01*
X34729882Y-59307130D01*
X34395631Y-60245862D01*
X34108788Y-61050277D01*
X33865459Y-61730704D01*
X33661747Y-62297472D01*
X33493757Y-62760909D01*
X33357595Y-63131344D01*
X33249363Y-63419106D01*
X33165168Y-63634524D01*
X33101114Y-63787925D01*
X33053305Y-63889639D01*
X33017846Y-63949995D01*
X32990841Y-63979321D01*
X32968396Y-63987946D01*
X32964496Y-63988097D01*
X32921082Y-63915334D01*
X32841064Y-63702729D01*
X32727098Y-63358809D01*
X32581841Y-62892098D01*
X32407950Y-62311123D01*
X32208082Y-61624410D01*
X31996109Y-60880242D01*
X31932321Y-60655894D01*
X31831657Y-60303959D01*
X31699822Y-59844298D01*
X31542526Y-59296772D01*
X31365475Y-58681242D01*
X31174376Y-58017570D01*
X30974938Y-57325616D01*
X30893534Y-57043384D01*
X29985885Y-53897160D01*
X29339620Y-53919768D01*
X28898500Y-53940484D01*
X28455389Y-53970544D01*
X28038516Y-54007012D01*
X27676112Y-54046956D01*
X27396405Y-54087440D01*
X27227625Y-54125530D01*
X27193597Y-54142822D01*
X27192299Y-54236566D01*
X25762389Y-54236566D01*
X25958277Y-53879303D01*
X26283531Y-53426429D01*
X26305527Y-53398369D01*
X26391600Y-53281000D01*
X26558644Y-53045437D01*
X26800853Y-52700071D01*
X27112419Y-52253291D01*
X27487533Y-51713489D01*
X27920389Y-51089055D01*
X28405179Y-50388379D01*
X28595910Y-50112287D01*
X40975101Y-50112287D01*
X40996481Y-50279321D01*
X41046130Y-50328882D01*
X41149624Y-50320676D01*
X41378915Y-50297921D01*
X41707308Y-50263413D01*
X42108109Y-50219946D01*
X42474706Y-50179285D01*
X42986361Y-50121811D01*
X43598564Y-50052763D01*
X44259385Y-49978016D01*
X44916893Y-49903443D01*
X45498792Y-49837239D01*
X46054991Y-49773858D01*
X46618566Y-49709677D01*
X47151102Y-49649069D01*
X47614181Y-49596405D01*
X47969387Y-49556058D01*
X48013977Y-49550999D01*
X48357356Y-49505515D01*
X48644121Y-49455294D01*
X48839768Y-49407132D01*
X48907170Y-49375069D01*
X48934674Y-49272233D01*
X48964888Y-49046009D01*
X48994707Y-48726372D01*
X49021030Y-48343297D01*
X49028861Y-48199426D01*
X49049093Y-47766280D01*
X49057584Y-47463669D01*
X49053017Y-47269011D01*
X49034075Y-47159720D01*
X48999441Y-47113214D01*
X48965074Y-47105922D01*
X48862267Y-47113111D01*
X48641078Y-47135084D01*
X48296152Y-47172446D01*
X47822138Y-47225800D01*
X47213683Y-47295754D01*
X46465433Y-47382911D01*
X45572038Y-47487877D01*
X45230212Y-47528210D01*
X44790537Y-47578920D01*
X44351782Y-47627424D01*
X43963823Y-47668333D01*
X43676536Y-47696257D01*
X43668684Y-47696954D01*
X43143108Y-47743353D01*
X43191158Y-46292764D01*
X43208958Y-45798000D01*
X43228677Y-45320959D01*
X43248675Y-44896742D01*
X43267312Y-44560452D01*
X43281081Y-44367438D01*
X43309627Y-44104907D01*
X43348927Y-43956970D01*
X43417513Y-43884943D01*
X43528396Y-43851249D01*
X43655375Y-43832781D01*
X43913877Y-43800842D01*
X44282776Y-43757842D01*
X44740942Y-43706187D01*
X45267250Y-43648287D01*
X45840571Y-43586549D01*
X45993001Y-43570348D01*
X46572609Y-43507423D01*
X47108411Y-43446414D01*
X47579743Y-43389898D01*
X47965939Y-43340451D01*
X48246333Y-43300650D01*
X48400260Y-43273072D01*
X48417408Y-43268074D01*
X48494729Y-43224528D01*
X48547409Y-43143834D01*
X48583444Y-42995623D01*
X48610828Y-42749526D01*
X48632620Y-42450600D01*
X48654926Y-42074827D01*
X48672196Y-41709986D01*
X48681833Y-41414293D01*
X48682987Y-41320866D01*
X48683384Y-40945780D01*
X48088671Y-40999619D01*
X47841209Y-41024274D01*
X47471538Y-41064060D01*
X47009804Y-41115586D01*
X46486151Y-41175462D01*
X45930724Y-41240300D01*
X45613898Y-41277888D01*
X45084177Y-41340294D01*
X44597175Y-41396101D01*
X44176167Y-41442767D01*
X43844433Y-41477750D01*
X43625250Y-41498507D01*
X43550745Y-41503214D01*
X43367653Y-41504109D01*
X43423509Y-40027878D01*
X43444145Y-39561055D01*
X43468265Y-39142337D01*
X43493918Y-38797717D01*
X43519157Y-38553187D01*
X43542033Y-38434741D01*
X43543106Y-38432545D01*
X43590238Y-38395909D01*
X43701090Y-38358263D01*
X43888949Y-38317565D01*
X44167101Y-38271775D01*
X44548834Y-38218854D01*
X45047434Y-38156761D01*
X45676187Y-38083456D01*
X46202669Y-38024178D01*
X46825757Y-37954208D01*
X47407128Y-37887900D01*
X47927400Y-37827544D01*
X48367191Y-37775427D01*
X48707119Y-37733839D01*
X48927802Y-37705069D01*
X49001914Y-37693590D01*
X49205338Y-37652266D01*
X49260754Y-36543725D01*
X49277157Y-36146274D01*
X49284698Y-35804806D01*
X49283250Y-35547930D01*
X49272685Y-35404256D01*
X49265918Y-35384931D01*
X49227187Y-35377263D01*
X49128451Y-35377993D01*
X48961183Y-35388008D01*
X48716857Y-35408195D01*
X48386944Y-35439441D01*
X47962917Y-35482632D01*
X47436249Y-35538655D01*
X46798412Y-35608397D01*
X46040880Y-35692745D01*
X45155124Y-35792586D01*
X44132617Y-35908806D01*
X43165666Y-36019293D01*
X42681937Y-36075575D01*
X42252473Y-36127274D01*
X41899689Y-36171549D01*
X41646000Y-36205559D01*
X41513821Y-36226463D01*
X41500088Y-36230406D01*
X41487612Y-36315616D01*
X41470942Y-36543812D01*
X41450486Y-36904577D01*
X41426650Y-37387491D01*
X41399841Y-37982136D01*
X41370467Y-38678094D01*
X41338934Y-39464946D01*
X41305649Y-40332272D01*
X41271020Y-41269656D01*
X41235454Y-42266678D01*
X41199357Y-43312919D01*
X41163137Y-44397961D01*
X41127201Y-45511386D01*
X41091955Y-46642775D01*
X41087191Y-46798973D01*
X41067592Y-47429878D01*
X41048025Y-48035098D01*
X41029304Y-48591286D01*
X41012239Y-49075094D01*
X40997645Y-49463174D01*
X40986333Y-49732179D01*
X40982377Y-49810907D01*
X40975101Y-50112287D01*
X28595910Y-50112287D01*
X28936096Y-49619853D01*
X29507331Y-48791867D01*
X30113077Y-47912810D01*
X30747527Y-46991075D01*
X31404873Y-46035051D01*
X31776281Y-45494441D01*
X32618289Y-44268426D01*
X33380284Y-43158754D01*
X34069176Y-42155283D01*
X34691877Y-41247873D01*
X35255298Y-40426382D01*
X35766351Y-39680668D01*
X36231946Y-39000590D01*
X36658995Y-38376007D01*
X37054410Y-37796776D01*
X37425102Y-37252758D01*
X37777981Y-36733810D01*
X38119960Y-36229790D01*
X38457949Y-35730558D01*
X38798861Y-35225971D01*
X39149606Y-34705889D01*
X39517095Y-34160170D01*
X39908241Y-33578673D01*
X40329954Y-32951255D01*
X40718871Y-32372387D01*
X41245859Y-31590647D01*
X41699032Y-30926205D01*
X42088078Y-30367591D01*
X42422684Y-29903333D01*
X42712538Y-29521959D01*
X42967328Y-29211999D01*
X43196741Y-28961980D01*
X43410465Y-28760432D01*
X43618187Y-28595884D01*
X43829596Y-28456864D01*
X44054379Y-28331900D01*
X44187872Y-28264686D01*
X44869155Y-28010005D01*
X45558021Y-27905655D01*
X46243845Y-27949575D01*
G36*
X67380499Y-54015290D02*
G01*
X67382653Y-54236597D01*
X67384757Y-54600313D01*
X67386806Y-55100905D01*
X67388793Y-55732839D01*
X67390713Y-56490583D01*
X67392558Y-57368604D01*
X67394323Y-58361369D01*
X67396003Y-59463345D01*
X67397590Y-60668999D01*
X67399079Y-61972798D01*
X67400463Y-63369210D01*
X67401737Y-64852701D01*
X67402895Y-66417739D01*
X67403930Y-68058790D01*
X67404837Y-69770322D01*
X67405608Y-71546802D01*
X67406239Y-73382697D01*
X67406723Y-75272474D01*
X67407054Y-77210599D01*
X67407226Y-79191542D01*
X67407251Y-80281954D01*
X67407251Y-106653958D01*
X53383535Y-106639763D01*
X51935721Y-106638177D01*
X50533672Y-106636406D01*
X49184686Y-106634469D01*
X47896059Y-106632384D01*
X46675090Y-106630173D01*
X45529076Y-106627853D01*
X44465315Y-106625445D01*
X43491104Y-106622968D01*
X42613742Y-106620441D01*
X41840525Y-106617883D01*
X41178752Y-106615315D01*
X40635720Y-106612756D01*
X40218727Y-106610225D01*
X39935069Y-106607741D01*
X39792046Y-106605324D01*
X39781873Y-106603545D01*
X39950383Y-106595826D01*
X40253237Y-106583087D01*
X40671412Y-106566084D01*
X41185887Y-106545574D01*
X41777639Y-106522314D01*
X42427648Y-106497058D01*
X43116890Y-106470565D01*
X43350151Y-106461662D01*
X44530609Y-106416731D01*
X45568516Y-106376848D01*
X46474670Y-106340908D01*
X47259870Y-106307809D01*
X47934918Y-106276444D01*
X48510611Y-106245710D01*
X48997748Y-106214503D01*
X49407130Y-106181717D01*
X49749556Y-106146249D01*
X50035824Y-106106995D01*
X50276734Y-106062849D01*
X50483086Y-106012708D01*
X50665679Y-105955466D01*
X50835311Y-105890021D01*
X51002783Y-105815266D01*
X51178894Y-105730099D01*
X51354856Y-105643065D01*
X52050317Y-105226186D01*
X52629982Y-104714180D01*
X53106714Y-104094023D01*
X53388052Y-103584472D01*
X53649099Y-102995342D01*
X53828400Y-102463543D01*
X53941551Y-101927753D01*
X54004151Y-101326650D01*
X54015770Y-101116622D01*
X54023886Y-100875302D01*
X54032290Y-100493554D01*
X54040992Y-99970468D01*
X54049997Y-99305134D01*
X54059314Y-98496644D01*
X54068950Y-97544086D01*
X54078912Y-96446552D01*
X54089208Y-95203132D01*
X54099846Y-93812916D01*
X54110832Y-92274994D01*
X54122174Y-90588457D01*
X54133880Y-88752395D01*
X54145956Y-86765899D01*
X54158411Y-84628058D01*
X54171252Y-82337963D01*
X54175718Y-81522538D01*
X54184049Y-80130770D01*
X54193268Y-78847489D01*
X54203306Y-77677360D01*
X54214097Y-76625045D01*
X54225571Y-75695209D01*
X54237662Y-74892517D01*
X54250301Y-74221632D01*
X54263422Y-73687219D01*
X54276956Y-73293941D01*
X54290835Y-73046464D01*
X54299944Y-72966345D01*
X54484040Y-72352234D01*
X54784109Y-71837497D01*
X55198567Y-71424289D01*
X55626517Y-71160848D01*
X55786825Y-71092178D01*
X55974642Y-71032996D01*
X56204250Y-70981942D01*
X56489933Y-70937654D01*
X56845974Y-70898771D01*
X57286658Y-70863932D01*
X57826266Y-70831775D01*
X58479082Y-70800939D01*
X59259391Y-70770063D01*
X60002115Y-70743838D01*
X60883876Y-70713663D01*
X61626193Y-70687549D01*
X62243017Y-70664626D01*
X62748300Y-70644025D01*
X63155994Y-70624877D01*
X63480049Y-70606310D01*
X63734417Y-70587457D01*
X63933049Y-70567446D01*
X64089896Y-70545409D01*
X64218911Y-70520476D01*
X64334043Y-70491776D01*
X64414502Y-70468787D01*
X65079260Y-70194742D01*
X65675781Y-69793136D01*
X66191923Y-69279263D01*
X66615543Y-68668419D01*
X66934499Y-67975897D01*
X67136650Y-67216993D01*
X67170302Y-66997512D01*
X67182913Y-66828482D01*
X67196145Y-66518890D01*
X67209753Y-66081647D01*
X67223497Y-65529663D01*
X67237133Y-64875848D01*
X67250420Y-64133112D01*
X67263114Y-63314366D01*
X67274973Y-62432520D01*
X67285756Y-61500484D01*
X67295218Y-60531168D01*
X67298140Y-60189607D01*
X67306417Y-59226886D01*
X67314982Y-58309010D01*
X67323686Y-57447474D01*
X67332382Y-56653770D01*
X67340922Y-55939392D01*
X67349159Y-55315833D01*
X67356946Y-54794586D01*
X67364134Y-54387144D01*
X67370578Y-54105000D01*
X67376128Y-53959648D01*
X67378301Y-53941924D01*
X67380499Y-54015290D01*
X67380499Y-54015290D01*
G37*
X67380499Y-54015290D02*
X67382653Y-54236597D01*
X67384757Y-54600313D01*
X67386806Y-55100905D01*
X67388793Y-55732839D01*
X67390713Y-56490583D01*
X67392558Y-57368604D01*
X67394323Y-58361369D01*
X67396003Y-59463345D01*
X67397590Y-60668999D01*
X67399079Y-61972798D01*
X67400463Y-63369210D01*
X67401737Y-64852701D01*
X67402895Y-66417739D01*
X67403930Y-68058790D01*
X67404837Y-69770322D01*
X67405608Y-71546802D01*
X67406239Y-73382697D01*
X67406723Y-75272474D01*
X67407054Y-77210599D01*
X67407226Y-79191542D01*
X67407251Y-80281954D01*
X67407251Y-106653958D01*
X53383535Y-106639763D01*
X51935721Y-106638177D01*
X50533672Y-106636406D01*
X49184686Y-106634469D01*
X47896059Y-106632384D01*
X46675090Y-106630173D01*
X45529076Y-106627853D01*
X44465315Y-106625445D01*
X43491104Y-106622968D01*
X42613742Y-106620441D01*
X41840525Y-106617883D01*
X41178752Y-106615315D01*
X40635720Y-106612756D01*
X40218727Y-106610225D01*
X39935069Y-106607741D01*
X39792046Y-106605324D01*
X39781873Y-106603545D01*
X39950383Y-106595826D01*
X40253237Y-106583087D01*
X40671412Y-106566084D01*
X41185887Y-106545574D01*
X41777639Y-106522314D01*
X42427648Y-106497058D01*
X43116890Y-106470565D01*
X43350151Y-106461662D01*
X44530609Y-106416731D01*
X45568516Y-106376848D01*
X46474670Y-106340908D01*
X47259870Y-106307809D01*
X47934918Y-106276444D01*
X48510611Y-106245710D01*
X48997748Y-106214503D01*
X49407130Y-106181717D01*
X49749556Y-106146249D01*
X50035824Y-106106995D01*
X50276734Y-106062849D01*
X50483086Y-106012708D01*
X50665679Y-105955466D01*
X50835311Y-105890021D01*
X51002783Y-105815266D01*
X51178894Y-105730099D01*
X51354856Y-105643065D01*
X52050317Y-105226186D01*
X52629982Y-104714180D01*
X53106714Y-104094023D01*
X53388052Y-103584472D01*
X53649099Y-102995342D01*
X53828400Y-102463543D01*
X53941551Y-101927753D01*
X54004151Y-101326650D01*
X54015770Y-101116622D01*
X54023886Y-100875302D01*
X54032290Y-100493554D01*
X54040992Y-99970468D01*
X54049997Y-99305134D01*
X54059314Y-98496644D01*
X54068950Y-97544086D01*
X54078912Y-96446552D01*
X54089208Y-95203132D01*
X54099846Y-93812916D01*
X54110832Y-92274994D01*
X54122174Y-90588457D01*
X54133880Y-88752395D01*
X54145956Y-86765899D01*
X54158411Y-84628058D01*
X54171252Y-82337963D01*
X54175718Y-81522538D01*
X54184049Y-80130770D01*
X54193268Y-78847489D01*
X54203306Y-77677360D01*
X54214097Y-76625045D01*
X54225571Y-75695209D01*
X54237662Y-74892517D01*
X54250301Y-74221632D01*
X54263422Y-73687219D01*
X54276956Y-73293941D01*
X54290835Y-73046464D01*
X54299944Y-72966345D01*
X54484040Y-72352234D01*
X54784109Y-71837497D01*
X55198567Y-71424289D01*
X55626517Y-71160848D01*
X55786825Y-71092178D01*
X55974642Y-71032996D01*
X56204250Y-70981942D01*
X56489933Y-70937654D01*
X56845974Y-70898771D01*
X57286658Y-70863932D01*
X57826266Y-70831775D01*
X58479082Y-70800939D01*
X59259391Y-70770063D01*
X60002115Y-70743838D01*
X60883876Y-70713663D01*
X61626193Y-70687549D01*
X62243017Y-70664626D01*
X62748300Y-70644025D01*
X63155994Y-70624877D01*
X63480049Y-70606310D01*
X63734417Y-70587457D01*
X63933049Y-70567446D01*
X64089896Y-70545409D01*
X64218911Y-70520476D01*
X64334043Y-70491776D01*
X64414502Y-70468787D01*
X65079260Y-70194742D01*
X65675781Y-69793136D01*
X66191923Y-69279263D01*
X66615543Y-68668419D01*
X66934499Y-67975897D01*
X67136650Y-67216993D01*
X67170302Y-66997512D01*
X67182913Y-66828482D01*
X67196145Y-66518890D01*
X67209753Y-66081647D01*
X67223497Y-65529663D01*
X67237133Y-64875848D01*
X67250420Y-64133112D01*
X67263114Y-63314366D01*
X67274973Y-62432520D01*
X67285756Y-61500484D01*
X67295218Y-60531168D01*
X67298140Y-60189607D01*
X67306417Y-59226886D01*
X67314982Y-58309010D01*
X67323686Y-57447474D01*
X67332382Y-56653770D01*
X67340922Y-55939392D01*
X67349159Y-55315833D01*
X67356946Y-54794586D01*
X67364134Y-54387144D01*
X67370578Y-54105000D01*
X67376128Y-53959648D01*
X67378301Y-53941924D01*
X67380499Y-54015290D01*
G36*
X22711075Y-70198265D02*
G01*
X22724745Y-70234290D01*
X22738232Y-70280544D01*
X23021754Y-71067675D01*
X23411288Y-71745318D01*
X23904554Y-72311162D01*
X24499271Y-72762895D01*
X25193158Y-73098204D01*
X25662236Y-73244099D01*
X25788001Y-73272440D01*
X25930893Y-73295878D01*
X26102377Y-73314374D01*
X26313916Y-73327886D01*
X26576974Y-73336376D01*
X26903015Y-73339803D01*
X27303504Y-73338128D01*
X27789903Y-73331309D01*
X28373678Y-73319308D01*
X29066291Y-73302084D01*
X29879207Y-73279596D01*
X30823890Y-73251806D01*
X31779427Y-73222745D01*
X33407493Y-73172723D01*
X33707589Y-73371317D01*
X33937916Y-73561407D01*
X34139090Y-73788215D01*
X34178934Y-73846999D01*
X34249616Y-73971503D01*
X34295638Y-74094573D01*
X34320255Y-74248761D01*
X34326724Y-74466619D01*
X34318300Y-74780698D01*
X34304158Y-75099143D01*
X34291196Y-75392315D01*
X34274195Y-75805728D01*
X34253697Y-76324336D01*
X34230238Y-76933094D01*
X34204359Y-77616956D01*
X34176599Y-78360875D01*
X34147497Y-79149807D01*
X34117591Y-79968705D01*
X34087421Y-80802523D01*
X34057526Y-81636215D01*
X34028445Y-82454736D01*
X34000717Y-83243040D01*
X33974881Y-83986080D01*
X33951476Y-84668812D01*
X33931041Y-85276188D01*
X33914116Y-85793163D01*
X33901239Y-86204692D01*
X33892950Y-86495728D01*
X33889788Y-86651225D01*
X33889807Y-86663928D01*
X33887037Y-86773386D01*
X33878369Y-87018211D01*
X33864516Y-87380437D01*
X33846193Y-87842099D01*
X33824112Y-88385231D01*
X33798989Y-88991868D01*
X33771536Y-89644045D01*
X33769371Y-89695046D01*
X33699312Y-91349781D01*
X33635973Y-92858339D01*
X33579140Y-94227860D01*
X33528602Y-95465486D01*
X33484144Y-96578356D01*
X33445555Y-97573612D01*
X33412622Y-98458393D01*
X33385131Y-99239840D01*
X33362870Y-99925095D01*
X33345626Y-100521297D01*
X33333186Y-101035587D01*
X33325338Y-101475105D01*
X33321868Y-101846993D01*
X33322564Y-102158390D01*
X33327213Y-102416438D01*
X33335602Y-102628276D01*
X33347519Y-102801046D01*
X33362750Y-102941888D01*
X33372562Y-103008943D01*
X33571219Y-103830505D01*
X33884863Y-104558502D01*
X34309761Y-105187007D01*
X34842181Y-105710094D01*
X35254381Y-105996943D01*
X35610008Y-106180565D01*
X36041080Y-106359184D01*
X36479732Y-106507364D01*
X36858096Y-106599664D01*
X36865861Y-106600980D01*
X36818806Y-106605683D01*
X36628487Y-106610395D01*
X36305117Y-106615053D01*
X35858907Y-106619596D01*
X35300067Y-106623963D01*
X34638809Y-106628091D01*
X33885344Y-106631920D01*
X33049884Y-106635387D01*
X32142640Y-106638430D01*
X31173823Y-106640988D01*
X30153644Y-106643000D01*
X29825227Y-106643508D01*
X22592750Y-106653958D01*
X22597366Y-88217855D01*
X22597892Y-86233238D01*
X22598464Y-84396552D01*
X22599127Y-82702256D01*
X22599924Y-81144807D01*
X22600898Y-79718662D01*
X22602094Y-78418279D01*
X22603555Y-77238116D01*
X22605324Y-76172629D01*
X22607445Y-75216278D01*
X22609961Y-74363518D01*
X22612917Y-73608808D01*
X22616354Y-72946605D01*
X22620318Y-72371366D01*
X22624851Y-71877550D01*
X22629996Y-71459614D01*
X22635799Y-71112015D01*
X22642301Y-70829210D01*
X22649547Y-70605658D01*
X22657580Y-70435816D01*
X22666444Y-70314141D01*
X22676182Y-70235091D01*
X22686837Y-70193123D01*
X22698454Y-70182696D01*
X22711075Y-70198265D01*
X22711075Y-70198265D01*
G37*
X22711075Y-70198265D02*
X22724745Y-70234290D01*
X22738232Y-70280544D01*
X23021754Y-71067675D01*
X23411288Y-71745318D01*
X23904554Y-72311162D01*
X24499271Y-72762895D01*
X25193158Y-73098204D01*
X25662236Y-73244099D01*
X25788001Y-73272440D01*
X25930893Y-73295878D01*
X26102377Y-73314374D01*
X26313916Y-73327886D01*
X26576974Y-73336376D01*
X26903015Y-73339803D01*
X27303504Y-73338128D01*
X27789903Y-73331309D01*
X28373678Y-73319308D01*
X29066291Y-73302084D01*
X29879207Y-73279596D01*
X30823890Y-73251806D01*
X31779427Y-73222745D01*
X33407493Y-73172723D01*
X33707589Y-73371317D01*
X33937916Y-73561407D01*
X34139090Y-73788215D01*
X34178934Y-73846999D01*
X34249616Y-73971503D01*
X34295638Y-74094573D01*
X34320255Y-74248761D01*
X34326724Y-74466619D01*
X34318300Y-74780698D01*
X34304158Y-75099143D01*
X34291196Y-75392315D01*
X34274195Y-75805728D01*
X34253697Y-76324336D01*
X34230238Y-76933094D01*
X34204359Y-77616956D01*
X34176599Y-78360875D01*
X34147497Y-79149807D01*
X34117591Y-79968705D01*
X34087421Y-80802523D01*
X34057526Y-81636215D01*
X34028445Y-82454736D01*
X34000717Y-83243040D01*
X33974881Y-83986080D01*
X33951476Y-84668812D01*
X33931041Y-85276188D01*
X33914116Y-85793163D01*
X33901239Y-86204692D01*
X33892950Y-86495728D01*
X33889788Y-86651225D01*
X33889807Y-86663928D01*
X33887037Y-86773386D01*
X33878369Y-87018211D01*
X33864516Y-87380437D01*
X33846193Y-87842099D01*
X33824112Y-88385231D01*
X33798989Y-88991868D01*
X33771536Y-89644045D01*
X33769371Y-89695046D01*
X33699312Y-91349781D01*
X33635973Y-92858339D01*
X33579140Y-94227860D01*
X33528602Y-95465486D01*
X33484144Y-96578356D01*
X33445555Y-97573612D01*
X33412622Y-98458393D01*
X33385131Y-99239840D01*
X33362870Y-99925095D01*
X33345626Y-100521297D01*
X33333186Y-101035587D01*
X33325338Y-101475105D01*
X33321868Y-101846993D01*
X33322564Y-102158390D01*
X33327213Y-102416438D01*
X33335602Y-102628276D01*
X33347519Y-102801046D01*
X33362750Y-102941888D01*
X33372562Y-103008943D01*
X33571219Y-103830505D01*
X33884863Y-104558502D01*
X34309761Y-105187007D01*
X34842181Y-105710094D01*
X35254381Y-105996943D01*
X35610008Y-106180565D01*
X36041080Y-106359184D01*
X36479732Y-106507364D01*
X36858096Y-106599664D01*
X36865861Y-106600980D01*
X36818806Y-106605683D01*
X36628487Y-106610395D01*
X36305117Y-106615053D01*
X35858907Y-106619596D01*
X35300067Y-106623963D01*
X34638809Y-106628091D01*
X33885344Y-106631920D01*
X33049884Y-106635387D01*
X32142640Y-106638430D01*
X31173823Y-106640988D01*
X30153644Y-106643000D01*
X29825227Y-106643508D01*
X22592750Y-106653958D01*
X22597366Y-88217855D01*
X22597892Y-86233238D01*
X22598464Y-84396552D01*
X22599127Y-82702256D01*
X22599924Y-81144807D01*
X22600898Y-79718662D01*
X22602094Y-78418279D01*
X22603555Y-77238116D01*
X22605324Y-76172629D01*
X22607445Y-75216278D01*
X22609961Y-74363518D01*
X22612917Y-73608808D01*
X22616354Y-72946605D01*
X22620318Y-72371366D01*
X22624851Y-71877550D01*
X22629996Y-71459614D01*
X22635799Y-71112015D01*
X22642301Y-70829210D01*
X22649547Y-70605658D01*
X22657580Y-70435816D01*
X22666444Y-70314141D01*
X22676182Y-70235091D01*
X22686837Y-70193123D01*
X22698454Y-70182696D01*
X22711075Y-70198265D01*
D11*
G36*
X54170000Y-113420000D02*
G01*
X54163894Y-113420006D01*
X54163891Y-113420006D01*
X43002378Y-113430496D01*
X32890000Y-113440000D01*
X32890118Y-113420006D01*
X32929964Y-106646138D01*
X32930000Y-106640000D01*
X54170000Y-106640000D01*
X54170000Y-113420000D01*
X54170000Y-113420000D01*
G37*
M02*
