M48
; DRILL file {KiCad 6.0.5-a6ca702e91~116~ubuntu20.04.1} date Wed 18 May 2022 01:30:43 PM
; FORMAT={-:-/ absolute / metric / decimal}
; #@! TF.CreationDate,2022-05-18T13:30:43-07:00
; #@! TF.GenerationSoftware,Kicad,Pcbnew,6.0.5-a6ca702e91~116~ubuntu20.04.1
; #@! TF.FileFunction,MixedPlating,1,2
FMAT,2
METRIC
; #@! TA.AperFunction,Plated,PTH,ViaDrill
T1C0.300
; #@! TA.AperFunction,Plated,PTH,ComponentDrill
T2C0.500
; #@! TA.AperFunction,Plated,PTH,ComponentDrill
T3C0.550
; #@! TA.AperFunction,Plated,PTH,ComponentDrill
T4C0.600
; #@! TA.AperFunction,Plated,PTH,ComponentDrill
T5C0.800
; #@! TA.AperFunction,Plated,PTH,ComponentDrill
T6C0.890
; #@! TA.AperFunction,Plated,PTH,ComponentDrill
T7C1.000
; #@! TA.AperFunction,NonPlated,NPTH,ComponentDrill
T8C0.650
; #@! TA.AperFunction,NonPlated,NPTH,ComponentDrill
T9C3.450
%
G90
G05
T1
X36.83Y-125.73
X38.1Y-104.14
X38.1Y-107.95
X39.37Y-104.14
X39.37Y-116.84
X39.37Y-119.38
X41.275Y-118.11
X46.99Y-100.33
X49.53Y-85.725
X52.578Y-117.602
X53.34Y-119.38
X54.581Y-114.3
X54.61Y-103.505
X54.61Y-107.95
X55.245Y-101.6
X55.88Y-90.424
X55.88Y-97.79
X55.88Y-102.299
X55.917Y-107.936
X55.98Y-114.1
X56.515Y-119.659
X57.15Y-83.82
X57.15Y-107.95
X57.689Y-113.906
X57.785Y-91.44
X59.355Y-97.71
X59.69Y-107.95
X59.69Y-114.351
X60.96Y-87.63
X60.96Y-121.92
X61.426Y-103.155
X61.564Y-111.853
X61.596Y-90.884
X61.966Y-103.876
X61.979Y-102.339
X62.23Y-121.92
X62.865Y-93.345
X62.865Y-107.95
X63.5Y-90.805
X63.5Y-112.395
X63.5Y-121.92
X64.77Y-104.14
X64.77Y-111.695
X66.04Y-97.79
X66.675Y-101.535
X66.675Y-102.87
X66.675Y-106.68
X67.31Y-107.315
X67.31Y-123.19
X67.564Y-87.884
X67.569Y-102.965
X69.77Y-124.46
X73.66Y-127.0
X73.66Y-128.27
X74.93Y-110.49
X77.377Y-113.471
X77.47Y-118.11
X78.74Y-104.14
X78.759Y-113.026
X78.804Y-114.171
X78.831Y-116.651
X79.375Y-97.79
X79.551Y-111.643
X80.075Y-102.87
X80.333Y-115.227
T3
X67.85Y-85.58
X71.85Y-85.58
T6
X46.228Y-88.392
X46.23Y-86.36
X46.23Y-90.424
X48.26Y-87.376
X48.26Y-89.408
X48.26Y-91.44
T7
X45.72Y-101.6
X45.72Y-104.14
X45.72Y-106.68
X45.927Y-119.38
X45.927Y-121.92
X45.927Y-124.46
X45.927Y-127.0
X45.927Y-129.54
X48.26Y-101.6
X48.26Y-104.14
X48.26Y-106.68
X48.468Y-119.38
X48.468Y-121.92
X48.468Y-124.46
X48.468Y-127.0
X48.468Y-129.54
X55.88Y-125.73
X55.88Y-130.2
X58.42Y-96.52
X58.42Y-99.06
X58.42Y-125.73
X58.42Y-130.2
X60.96Y-96.52
X60.96Y-99.06
X60.96Y-125.73
X60.96Y-130.2
X63.5Y-96.52
X63.5Y-99.06
X63.5Y-125.73
X63.5Y-130.2
X66.04Y-125.73
X66.04Y-130.2
X68.58Y-125.73
X68.58Y-130.2
X71.12Y-125.73
X71.12Y-130.2
X83.2Y-96.52
X83.2Y-99.06
X83.2Y-101.6
X83.2Y-104.14
X83.2Y-106.68
X83.2Y-109.22
X83.2Y-111.76
X83.2Y-114.3
X83.2Y-116.84
X83.2Y-119.38
X85.74Y-96.52
X85.74Y-99.06
X85.74Y-101.6
X85.74Y-104.14
X85.74Y-106.68
X85.74Y-109.22
X85.74Y-111.76
X85.74Y-114.3
X85.74Y-116.84
X85.74Y-119.38
T8
X56.8Y-88.17
X62.58Y-88.17
T9
X43.18Y-84.138
X43.18Y-93.662
T2
X55.37Y-89.27G85X55.37Y-88.07
G05
X64.01Y-89.27G85X64.01Y-88.07
G05
T4
X55.37Y-84.79G85X55.37Y-84.19
G05
X64.01Y-84.79G85X64.01Y-84.19
G05
T5
X66.25Y-83.78G85X66.25Y-83.08
G05
X66.25Y-87.25G85X66.25Y-86.55
G05
X73.45Y-83.78G85X73.45Y-83.08
G05
X73.45Y-87.25G85X73.45Y-86.55
G05
T0
M30
