G04 #@! TF.GenerationSoftware,KiCad,Pcbnew,6.0.5-a6ca702e91~116~ubuntu20.04.1*
G04 #@! TF.CreationDate,2022-05-18T13:30:29-07:00*
G04 #@! TF.ProjectId,tag-connect-breakout,7461672d-636f-46e6-9e65-63742d627265,rev?*
G04 #@! TF.SameCoordinates,Original*
G04 #@! TF.FileFunction,Legend,Top*
G04 #@! TF.FilePolarity,Positive*
%FSLAX46Y46*%
G04 Gerber Fmt 4.6, Leading zero omitted, Abs format (unit mm)*
G04 Created by KiCad (PCBNEW 6.0.5-a6ca702e91~116~ubuntu20.04.1) date 2022-05-18 13:30:29*
%MOMM*%
%LPD*%
G01*
G04 APERTURE LIST*
%ADD10C,0.300000*%
%ADD11C,0.500000*%
%ADD12C,0.120000*%
%ADD13C,0.127000*%
%ADD14C,0.152400*%
%ADD15C,0.150000*%
G04 APERTURE END LIST*
D10*
X52518571Y-130408857D02*
X53732857Y-130408857D01*
X53875714Y-130337428D01*
X53947142Y-130266000D01*
X54018571Y-130123142D01*
X54018571Y-129837428D01*
X53947142Y-129694571D01*
X53875714Y-129623142D01*
X53732857Y-129551714D01*
X52518571Y-129551714D01*
X53590000Y-128908857D02*
X53590000Y-128194571D01*
X54018571Y-129051714D02*
X52518571Y-128551714D01*
X54018571Y-128051714D01*
X54018571Y-126694571D02*
X53304285Y-127194571D01*
X54018571Y-127551714D02*
X52518571Y-127551714D01*
X52518571Y-126980285D01*
X52590000Y-126837428D01*
X52661428Y-126766000D01*
X52804285Y-126694571D01*
X53018571Y-126694571D01*
X53161428Y-126766000D01*
X53232857Y-126837428D01*
X53304285Y-126980285D01*
X53304285Y-127551714D01*
X52518571Y-126266000D02*
X52518571Y-125408857D01*
X54018571Y-125837428D02*
X52518571Y-125837428D01*
X56130000Y-101615428D02*
X56130000Y-100901142D01*
X56558571Y-101758285D02*
X55058571Y-101258285D01*
X56558571Y-100758285D01*
X55058571Y-100472571D02*
X56558571Y-99972571D01*
X55058571Y-99472571D01*
X56558571Y-98115428D02*
X55844285Y-98615428D01*
X56558571Y-98972571D02*
X55058571Y-98972571D01*
X55058571Y-98401142D01*
X55130000Y-98258285D01*
X55201428Y-98186857D01*
X55344285Y-98115428D01*
X55558571Y-98115428D01*
X55701428Y-98186857D01*
X55772857Y-98258285D01*
X55844285Y-98401142D01*
X55844285Y-98972571D01*
X56558571Y-97472571D02*
X55058571Y-97472571D01*
X56487142Y-96829714D02*
X56558571Y-96615428D01*
X56558571Y-96258285D01*
X56487142Y-96115428D01*
X56415714Y-96044000D01*
X56272857Y-95972571D01*
X56130000Y-95972571D01*
X55987142Y-96044000D01*
X55915714Y-96115428D01*
X55844285Y-96258285D01*
X55772857Y-96544000D01*
X55701428Y-96686857D01*
X55630000Y-96758285D01*
X55487142Y-96829714D01*
X55344285Y-96829714D01*
X55201428Y-96758285D01*
X55130000Y-96686857D01*
X55058571Y-96544000D01*
X55058571Y-96186857D01*
X55130000Y-95972571D01*
X56558571Y-95329714D02*
X55058571Y-95329714D01*
X55058571Y-94758285D01*
X55130000Y-94615428D01*
X55201428Y-94544000D01*
X55344285Y-94472571D01*
X55558571Y-94472571D01*
X55701428Y-94544000D01*
X55772857Y-94615428D01*
X55844285Y-94758285D01*
X55844285Y-95329714D01*
D11*
X57146000Y-102616000D02*
G75*
G03*
X57146000Y-102616000I-250000J0D01*
G01*
D10*
X58884285Y-128694571D02*
X58384285Y-127980285D01*
X58027142Y-128694571D02*
X58027142Y-127194571D01*
X58598571Y-127194571D01*
X58741428Y-127266000D01*
X58812857Y-127337428D01*
X58884285Y-127480285D01*
X58884285Y-127694571D01*
X58812857Y-127837428D01*
X58741428Y-127908857D01*
X58598571Y-127980285D01*
X58027142Y-127980285D01*
X69044285Y-128551714D02*
X68972857Y-128623142D01*
X68758571Y-128694571D01*
X68615714Y-128694571D01*
X68401428Y-128623142D01*
X68258571Y-128480285D01*
X68187142Y-128337428D01*
X68115714Y-128051714D01*
X68115714Y-127837428D01*
X68187142Y-127551714D01*
X68258571Y-127408857D01*
X68401428Y-127266000D01*
X68615714Y-127194571D01*
X68758571Y-127194571D01*
X68972857Y-127266000D01*
X69044285Y-127337428D01*
X60710000Y-128694571D02*
X60210000Y-127980285D01*
X59852857Y-128694571D02*
X59852857Y-127194571D01*
X60424285Y-127194571D01*
X60567142Y-127266000D01*
X60638571Y-127337428D01*
X60710000Y-127480285D01*
X60710000Y-127694571D01*
X60638571Y-127837428D01*
X60567142Y-127908857D01*
X60424285Y-127980285D01*
X59852857Y-127980285D01*
X61210000Y-127194571D02*
X62210000Y-128694571D01*
X62210000Y-127194571D02*
X61210000Y-128694571D01*
X62357142Y-127194571D02*
X63214285Y-127194571D01*
X62785714Y-128694571D02*
X62785714Y-127194571D01*
X63571428Y-127194571D02*
X64571428Y-128694571D01*
X64571428Y-127194571D02*
X63571428Y-128694571D01*
X65540000Y-127194571D02*
X66040000Y-128694571D01*
X66540000Y-127194571D01*
X71512857Y-127266000D02*
X71370000Y-127194571D01*
X71155714Y-127194571D01*
X70941428Y-127266000D01*
X70798571Y-127408857D01*
X70727142Y-127551714D01*
X70655714Y-127837428D01*
X70655714Y-128051714D01*
X70727142Y-128337428D01*
X70798571Y-128480285D01*
X70941428Y-128623142D01*
X71155714Y-128694571D01*
X71298571Y-128694571D01*
X71512857Y-128623142D01*
X71584285Y-128551714D01*
X71584285Y-128051714D01*
X71298571Y-128051714D01*
X55487142Y-128694571D02*
X55487142Y-127194571D01*
X55844285Y-127194571D01*
X56058571Y-127266000D01*
X56201428Y-127408857D01*
X56272857Y-127551714D01*
X56344285Y-127837428D01*
X56344285Y-128051714D01*
X56272857Y-128337428D01*
X56201428Y-128480285D01*
X56058571Y-128623142D01*
X55844285Y-128694571D01*
X55487142Y-128694571D01*
X77751714Y-118931428D02*
X77823142Y-119002857D01*
X77894571Y-119217142D01*
X77894571Y-119360000D01*
X77823142Y-119574285D01*
X77680285Y-119717142D01*
X77537428Y-119788571D01*
X77251714Y-119860000D01*
X77037428Y-119860000D01*
X76751714Y-119788571D01*
X76608857Y-119717142D01*
X76466000Y-119574285D01*
X76394571Y-119360000D01*
X76394571Y-119217142D01*
X76466000Y-119002857D01*
X76537428Y-118931428D01*
X76394571Y-118502857D02*
X76394571Y-117645714D01*
X77894571Y-118074285D02*
X76394571Y-118074285D01*
X77823142Y-117217142D02*
X77894571Y-117002857D01*
X77894571Y-116645714D01*
X77823142Y-116502857D01*
X77751714Y-116431428D01*
X77608857Y-116360000D01*
X77466000Y-116360000D01*
X77323142Y-116431428D01*
X77251714Y-116502857D01*
X77180285Y-116645714D01*
X77108857Y-116931428D01*
X77037428Y-117074285D01*
X76966000Y-117145714D01*
X76823142Y-117217142D01*
X76680285Y-117217142D01*
X76537428Y-117145714D01*
X76466000Y-117074285D01*
X76394571Y-116931428D01*
X76394571Y-116574285D01*
X76466000Y-116360000D01*
X65702571Y-120078285D02*
X64202571Y-120078285D01*
X64202571Y-119721142D01*
X64274000Y-119506857D01*
X64416857Y-119364000D01*
X64559714Y-119292571D01*
X64845428Y-119221142D01*
X65059714Y-119221142D01*
X65345428Y-119292571D01*
X65488285Y-119364000D01*
X65631142Y-119506857D01*
X65702571Y-119721142D01*
X65702571Y-120078285D01*
X64202571Y-118792571D02*
X64202571Y-117935428D01*
X65702571Y-118364000D02*
X64202571Y-118364000D01*
X65702571Y-116578285D02*
X64988285Y-117078285D01*
X65702571Y-117435428D02*
X64202571Y-117435428D01*
X64202571Y-116864000D01*
X64274000Y-116721142D01*
X64345428Y-116649714D01*
X64488285Y-116578285D01*
X64702571Y-116578285D01*
X64845428Y-116649714D01*
X64916857Y-116721142D01*
X64988285Y-116864000D01*
X64988285Y-117435428D01*
X69195714Y-110938571D02*
X69695714Y-112438571D01*
X70195714Y-110938571D01*
X70481428Y-110938571D02*
X71338571Y-110938571D01*
X70910000Y-112438571D02*
X70910000Y-110938571D01*
X71767142Y-112010000D02*
X72481428Y-112010000D01*
X71624285Y-112438571D02*
X72124285Y-110938571D01*
X72624285Y-112438571D01*
X73981428Y-112438571D02*
X73481428Y-111724285D01*
X73124285Y-112438571D02*
X73124285Y-110938571D01*
X73695714Y-110938571D01*
X73838571Y-111010000D01*
X73910000Y-111081428D01*
X73981428Y-111224285D01*
X73981428Y-111438571D01*
X73910000Y-111581428D01*
X73838571Y-111652857D01*
X73695714Y-111724285D01*
X73124285Y-111724285D01*
X75410000Y-111010000D02*
X75267142Y-110938571D01*
X75052857Y-110938571D01*
X74838571Y-111010000D01*
X74695714Y-111152857D01*
X74624285Y-111295714D01*
X74552857Y-111581428D01*
X74552857Y-111795714D01*
X74624285Y-112081428D01*
X74695714Y-112224285D01*
X74838571Y-112367142D01*
X75052857Y-112438571D01*
X75195714Y-112438571D01*
X75410000Y-112367142D01*
X75481428Y-112295714D01*
X75481428Y-111795714D01*
X75195714Y-111795714D01*
X76124285Y-111652857D02*
X76624285Y-111652857D01*
X76838571Y-112438571D02*
X76124285Y-112438571D01*
X76124285Y-110938571D01*
X76838571Y-110938571D01*
X77267142Y-110938571D02*
X78124285Y-110938571D01*
X77695714Y-112438571D02*
X77695714Y-110938571D01*
X72231428Y-98746571D02*
X72517142Y-98746571D01*
X72660000Y-98818000D01*
X72802857Y-98960857D01*
X72874285Y-99246571D01*
X72874285Y-99746571D01*
X72802857Y-100032285D01*
X72660000Y-100175142D01*
X72517142Y-100246571D01*
X72231428Y-100246571D01*
X72088571Y-100175142D01*
X71945714Y-100032285D01*
X71874285Y-99746571D01*
X71874285Y-99246571D01*
X71945714Y-98960857D01*
X72088571Y-98818000D01*
X72231428Y-98746571D01*
X74017142Y-99460857D02*
X73517142Y-99460857D01*
X73517142Y-100246571D02*
X73517142Y-98746571D01*
X74231428Y-98746571D01*
X75302857Y-99460857D02*
X74802857Y-99460857D01*
X74802857Y-100246571D02*
X74802857Y-98746571D01*
X75517142Y-98746571D01*
X80117428Y-94150571D02*
X79617428Y-93436285D01*
X79260285Y-94150571D02*
X79260285Y-92650571D01*
X79831714Y-92650571D01*
X79974571Y-92722000D01*
X80046000Y-92793428D01*
X80117428Y-92936285D01*
X80117428Y-93150571D01*
X80046000Y-93293428D01*
X79974571Y-93364857D01*
X79831714Y-93436285D01*
X79260285Y-93436285D01*
X80760285Y-93364857D02*
X81260285Y-93364857D01*
X81474571Y-94150571D02*
X80760285Y-94150571D01*
X80760285Y-92650571D01*
X81474571Y-92650571D01*
X82046000Y-94079142D02*
X82260285Y-94150571D01*
X82617428Y-94150571D01*
X82760285Y-94079142D01*
X82831714Y-94007714D01*
X82903142Y-93864857D01*
X82903142Y-93722000D01*
X82831714Y-93579142D01*
X82760285Y-93507714D01*
X82617428Y-93436285D01*
X82331714Y-93364857D01*
X82188857Y-93293428D01*
X82117428Y-93222000D01*
X82046000Y-93079142D01*
X82046000Y-92936285D01*
X82117428Y-92793428D01*
X82188857Y-92722000D01*
X82331714Y-92650571D01*
X82688857Y-92650571D01*
X82903142Y-92722000D01*
X83546000Y-93364857D02*
X84046000Y-93364857D01*
X84260285Y-94150571D02*
X83546000Y-94150571D01*
X83546000Y-92650571D01*
X84260285Y-92650571D01*
X84688857Y-92650571D02*
X85546000Y-92650571D01*
X85117428Y-94150571D02*
X85117428Y-92650571D01*
X65012285Y-92650571D02*
X65869428Y-92650571D01*
X65440857Y-94150571D02*
X65440857Y-92650571D01*
X66369428Y-94150571D02*
X66369428Y-92650571D01*
X66726571Y-92650571D01*
X66940857Y-92722000D01*
X67083714Y-92864857D01*
X67155142Y-93007714D01*
X67226571Y-93293428D01*
X67226571Y-93507714D01*
X67155142Y-93793428D01*
X67083714Y-93936285D01*
X66940857Y-94079142D01*
X66726571Y-94150571D01*
X66369428Y-94150571D01*
X67869428Y-94150571D02*
X67869428Y-92650571D01*
G04 #@! TO.C,J7*
X65540000Y-97222571D02*
X65540000Y-98294000D01*
X65468571Y-98508285D01*
X65325714Y-98651142D01*
X65111428Y-98722571D01*
X64968571Y-98722571D01*
X66111428Y-97222571D02*
X67111428Y-97222571D01*
X66468571Y-98722571D01*
G04 #@! TO.C,J1*
X39310571Y-88892000D02*
X40382000Y-88892000D01*
X40596285Y-88963428D01*
X40739142Y-89106285D01*
X40810571Y-89320571D01*
X40810571Y-89463428D01*
X40810571Y-87392000D02*
X40810571Y-88249142D01*
X40810571Y-87820571D02*
X39310571Y-87820571D01*
X39524857Y-87963428D01*
X39667714Y-88106285D01*
X39739142Y-88249142D01*
G04 #@! TO.C,J11*
X72628571Y-126944285D02*
X73700000Y-126944285D01*
X73914285Y-127015714D01*
X74057142Y-127158571D01*
X74128571Y-127372857D01*
X74128571Y-127515714D01*
X74128571Y-125444285D02*
X74128571Y-126301428D01*
X74128571Y-125872857D02*
X72628571Y-125872857D01*
X72842857Y-126015714D01*
X72985714Y-126158571D01*
X73057142Y-126301428D01*
X74128571Y-124015714D02*
X74128571Y-124872857D01*
X74128571Y-124444285D02*
X72628571Y-124444285D01*
X72842857Y-124587142D01*
X72985714Y-124730000D01*
X73057142Y-124872857D01*
G04 #@! TO.C,J2*
X42312500Y-115510571D02*
X42312500Y-116582000D01*
X42241071Y-116796285D01*
X42098214Y-116939142D01*
X41883928Y-117010571D01*
X41741071Y-117010571D01*
X42955357Y-115653428D02*
X43026785Y-115582000D01*
X43169642Y-115510571D01*
X43526785Y-115510571D01*
X43669642Y-115582000D01*
X43741071Y-115653428D01*
X43812500Y-115796285D01*
X43812500Y-115939142D01*
X43741071Y-116153428D01*
X42883928Y-117010571D01*
X43812500Y-117010571D01*
G04 #@! TO.C,SW3*
X74267142Y-107410000D02*
X74338571Y-107195714D01*
X74338571Y-106838571D01*
X74267142Y-106695714D01*
X74195714Y-106624285D01*
X74052857Y-106552857D01*
X73910000Y-106552857D01*
X73767142Y-106624285D01*
X73695714Y-106695714D01*
X73624285Y-106838571D01*
X73552857Y-107124285D01*
X73481428Y-107267142D01*
X73410000Y-107338571D01*
X73267142Y-107410000D01*
X73124285Y-107410000D01*
X72981428Y-107338571D01*
X72910000Y-107267142D01*
X72838571Y-107124285D01*
X72838571Y-106767142D01*
X72910000Y-106552857D01*
X72838571Y-106052857D02*
X74338571Y-105695714D01*
X73267142Y-105410000D01*
X74338571Y-105124285D01*
X72838571Y-104767142D01*
X72838571Y-104338571D02*
X72838571Y-103410000D01*
X73410000Y-103910000D01*
X73410000Y-103695714D01*
X73481428Y-103552857D01*
X73552857Y-103481428D01*
X73695714Y-103410000D01*
X74052857Y-103410000D01*
X74195714Y-103481428D01*
X74267142Y-103552857D01*
X74338571Y-103695714D01*
X74338571Y-104124285D01*
X74267142Y-104267142D01*
X74195714Y-104338571D01*
G04 #@! TO.C,SW2*
X69120000Y-118971142D02*
X69334285Y-119042571D01*
X69691428Y-119042571D01*
X69834285Y-118971142D01*
X69905714Y-118899714D01*
X69977142Y-118756857D01*
X69977142Y-118614000D01*
X69905714Y-118471142D01*
X69834285Y-118399714D01*
X69691428Y-118328285D01*
X69405714Y-118256857D01*
X69262857Y-118185428D01*
X69191428Y-118114000D01*
X69120000Y-117971142D01*
X69120000Y-117828285D01*
X69191428Y-117685428D01*
X69262857Y-117614000D01*
X69405714Y-117542571D01*
X69762857Y-117542571D01*
X69977142Y-117614000D01*
X70477142Y-117542571D02*
X70834285Y-119042571D01*
X71120000Y-117971142D01*
X71405714Y-119042571D01*
X71762857Y-117542571D01*
X72262857Y-117685428D02*
X72334285Y-117614000D01*
X72477142Y-117542571D01*
X72834285Y-117542571D01*
X72977142Y-117614000D01*
X73048571Y-117685428D01*
X73120000Y-117828285D01*
X73120000Y-117971142D01*
X73048571Y-118185428D01*
X72191428Y-119042571D01*
X73120000Y-119042571D01*
G04 #@! TO.C,SW1*
X71660000Y-94587142D02*
X71874285Y-94658571D01*
X72231428Y-94658571D01*
X72374285Y-94587142D01*
X72445714Y-94515714D01*
X72517142Y-94372857D01*
X72517142Y-94230000D01*
X72445714Y-94087142D01*
X72374285Y-94015714D01*
X72231428Y-93944285D01*
X71945714Y-93872857D01*
X71802857Y-93801428D01*
X71731428Y-93730000D01*
X71660000Y-93587142D01*
X71660000Y-93444285D01*
X71731428Y-93301428D01*
X71802857Y-93230000D01*
X71945714Y-93158571D01*
X72302857Y-93158571D01*
X72517142Y-93230000D01*
X73017142Y-93158571D02*
X73374285Y-94658571D01*
X73660000Y-93587142D01*
X73945714Y-94658571D01*
X74302857Y-93158571D01*
X75660000Y-94658571D02*
X74802857Y-94658571D01*
X75231428Y-94658571D02*
X75231428Y-93158571D01*
X75088571Y-93372857D01*
X74945714Y-93515714D01*
X74802857Y-93587142D01*
G04 #@! TO.C,J10*
X51502571Y-109164285D02*
X52574000Y-109164285D01*
X52788285Y-109235714D01*
X52931142Y-109378571D01*
X53002571Y-109592857D01*
X53002571Y-109735714D01*
X53002571Y-107664285D02*
X53002571Y-108521428D01*
X53002571Y-108092857D02*
X51502571Y-108092857D01*
X51716857Y-108235714D01*
X51859714Y-108378571D01*
X51931142Y-108521428D01*
X51502571Y-106735714D02*
X51502571Y-106592857D01*
X51574000Y-106450000D01*
X51645428Y-106378571D01*
X51788285Y-106307142D01*
X52074000Y-106235714D01*
X52431142Y-106235714D01*
X52716857Y-106307142D01*
X52859714Y-106378571D01*
X52931142Y-106450000D01*
X53002571Y-106592857D01*
X53002571Y-106735714D01*
X52931142Y-106878571D01*
X52859714Y-106950000D01*
X52716857Y-107021428D01*
X52431142Y-107092857D01*
X52074000Y-107092857D01*
X51788285Y-107021428D01*
X51645428Y-106950000D01*
X51574000Y-106878571D01*
X51502571Y-106735714D01*
G04 #@! TO.C,J9*
X72628571Y-130700000D02*
X73700000Y-130700000D01*
X73914285Y-130771428D01*
X74057142Y-130914285D01*
X74128571Y-131128571D01*
X74128571Y-131271428D01*
X74128571Y-129914285D02*
X74128571Y-129628571D01*
X74057142Y-129485714D01*
X73985714Y-129414285D01*
X73771428Y-129271428D01*
X73485714Y-129200000D01*
X72914285Y-129200000D01*
X72771428Y-129271428D01*
X72700000Y-129342857D01*
X72628571Y-129485714D01*
X72628571Y-129771428D01*
X72700000Y-129914285D01*
X72771428Y-129985714D01*
X72914285Y-130057142D01*
X73271428Y-130057142D01*
X73414285Y-129985714D01*
X73485714Y-129914285D01*
X73557142Y-129771428D01*
X73557142Y-129485714D01*
X73485714Y-129342857D01*
X73414285Y-129271428D01*
X73271428Y-129200000D01*
G04 #@! TO.C,J8*
X59190000Y-91126571D02*
X59190000Y-92198000D01*
X59118571Y-92412285D01*
X58975714Y-92555142D01*
X58761428Y-92626571D01*
X58618571Y-92626571D01*
X60118571Y-91769428D02*
X59975714Y-91698000D01*
X59904285Y-91626571D01*
X59832857Y-91483714D01*
X59832857Y-91412285D01*
X59904285Y-91269428D01*
X59975714Y-91198000D01*
X60118571Y-91126571D01*
X60404285Y-91126571D01*
X60547142Y-91198000D01*
X60618571Y-91269428D01*
X60690000Y-91412285D01*
X60690000Y-91483714D01*
X60618571Y-91626571D01*
X60547142Y-91698000D01*
X60404285Y-91769428D01*
X60118571Y-91769428D01*
X59975714Y-91840857D01*
X59904285Y-91912285D01*
X59832857Y-92055142D01*
X59832857Y-92340857D01*
X59904285Y-92483714D01*
X59975714Y-92555142D01*
X60118571Y-92626571D01*
X60404285Y-92626571D01*
X60547142Y-92555142D01*
X60618571Y-92483714D01*
X60690000Y-92340857D01*
X60690000Y-92055142D01*
X60618571Y-91912285D01*
X60547142Y-91840857D01*
X60404285Y-91769428D01*
G04 #@! TO.C,J6*
X69350000Y-83358571D02*
X69350000Y-84430000D01*
X69278571Y-84644285D01*
X69135714Y-84787142D01*
X68921428Y-84858571D01*
X68778571Y-84858571D01*
X70707142Y-83358571D02*
X70421428Y-83358571D01*
X70278571Y-83430000D01*
X70207142Y-83501428D01*
X70064285Y-83715714D01*
X69992857Y-84001428D01*
X69992857Y-84572857D01*
X70064285Y-84715714D01*
X70135714Y-84787142D01*
X70278571Y-84858571D01*
X70564285Y-84858571D01*
X70707142Y-84787142D01*
X70778571Y-84715714D01*
X70850000Y-84572857D01*
X70850000Y-84215714D01*
X70778571Y-84072857D01*
X70707142Y-84001428D01*
X70564285Y-83930000D01*
X70278571Y-83930000D01*
X70135714Y-84001428D01*
X70064285Y-84072857D01*
X69992857Y-84215714D01*
G04 #@! TO.C,J5*
X42105000Y-108128571D02*
X42105000Y-109200000D01*
X42033571Y-109414285D01*
X41890714Y-109557142D01*
X41676428Y-109628571D01*
X41533571Y-109628571D01*
X43533571Y-108128571D02*
X42819285Y-108128571D01*
X42747857Y-108842857D01*
X42819285Y-108771428D01*
X42962142Y-108700000D01*
X43319285Y-108700000D01*
X43462142Y-108771428D01*
X43533571Y-108842857D01*
X43605000Y-108985714D01*
X43605000Y-109342857D01*
X43533571Y-109485714D01*
X43462142Y-109557142D01*
X43319285Y-109628571D01*
X42962142Y-109628571D01*
X42819285Y-109557142D01*
X42747857Y-109485714D01*
G04 #@! TO.C,J4*
X52010571Y-119880000D02*
X53082000Y-119880000D01*
X53296285Y-119951428D01*
X53439142Y-120094285D01*
X53510571Y-120308571D01*
X53510571Y-120451428D01*
X52510571Y-118522857D02*
X53510571Y-118522857D01*
X51939142Y-118880000D02*
X53010571Y-119237142D01*
X53010571Y-118308571D01*
G04 #@! TO.C,J3*
X88350000Y-121328571D02*
X88350000Y-122400000D01*
X88278571Y-122614285D01*
X88135714Y-122757142D01*
X87921428Y-122828571D01*
X87778571Y-122828571D01*
X88921428Y-121328571D02*
X89850000Y-121328571D01*
X89350000Y-121900000D01*
X89564285Y-121900000D01*
X89707142Y-121971428D01*
X89778571Y-122042857D01*
X89850000Y-122185714D01*
X89850000Y-122542857D01*
X89778571Y-122685714D01*
X89707142Y-122757142D01*
X89564285Y-122828571D01*
X89135714Y-122828571D01*
X88992857Y-122757142D01*
X88921428Y-122685714D01*
D12*
G04 #@! TO.C,J7*
X59690000Y-97790000D02*
X57090000Y-97790000D01*
X57090000Y-100390000D02*
X57090000Y-99060000D01*
X64830000Y-100390000D02*
X64830000Y-95190000D01*
X59690000Y-100390000D02*
X64830000Y-100390000D01*
X58420000Y-100390000D02*
X57090000Y-100390000D01*
X57090000Y-95190000D02*
X64830000Y-95190000D01*
X57090000Y-97790000D02*
X57090000Y-95190000D01*
X59690000Y-100390000D02*
X59690000Y-97790000D01*
D10*
G04 #@! TO.C,J1*
X52980000Y-91700000D02*
G75*
G03*
X52980000Y-91700000I-100000J0D01*
G01*
D13*
X41180000Y-94935000D02*
X35560000Y-94935000D01*
X52070000Y-82865000D02*
X52070000Y-94935000D01*
X35560000Y-82865000D02*
X41180000Y-82865000D01*
X52070000Y-94935000D02*
X45180000Y-94935000D01*
X45180000Y-82865000D02*
X52070000Y-82865000D01*
X35560000Y-94935000D02*
X35560000Y-82865000D01*
D12*
G04 #@! TO.C,J11*
X71120000Y-124400000D02*
X72450000Y-124400000D01*
X69850000Y-124400000D02*
X69850000Y-127060000D01*
X69850000Y-127060000D02*
X54550000Y-127060000D01*
X72450000Y-124400000D02*
X72450000Y-125730000D01*
X54550000Y-124400000D02*
X54550000Y-127060000D01*
X69850000Y-124400000D02*
X54550000Y-124400000D01*
G04 #@! TO.C,J2*
X44487500Y-130870000D02*
X44487500Y-118050000D01*
X44884571Y-129160000D02*
X44487500Y-129160000D01*
X44884571Y-122300000D02*
X44487500Y-122300000D01*
X44884571Y-119000000D02*
X44487500Y-119000000D01*
X35827500Y-122300000D02*
X35827500Y-121540000D01*
X44487500Y-123190000D02*
X41827500Y-123190000D01*
X41827500Y-129260000D02*
X35827500Y-129260000D01*
X35827500Y-126620000D02*
X41827500Y-126620000D01*
X44884571Y-129920000D02*
X44487500Y-129920000D01*
X44884571Y-127380000D02*
X44487500Y-127380000D01*
X41827500Y-124840000D02*
X35827500Y-124840000D01*
X41827500Y-129620000D02*
X35827500Y-129620000D01*
X44884571Y-119760000D02*
X44487500Y-119760000D01*
X41827500Y-127380000D02*
X35827500Y-127380000D01*
X47424571Y-127380000D02*
X46970429Y-127380000D01*
X49737500Y-129540000D02*
X49737500Y-130810000D01*
X35827500Y-124840000D02*
X35827500Y-124080000D01*
X35827500Y-129160000D02*
X41827500Y-129160000D01*
X35827500Y-121540000D02*
X41827500Y-121540000D01*
X35827500Y-127380000D02*
X35827500Y-126620000D01*
X47357500Y-129160000D02*
X46970429Y-129160000D01*
X44884571Y-126620000D02*
X44487500Y-126620000D01*
X47424571Y-124840000D02*
X46970429Y-124840000D01*
X41827500Y-129920000D02*
X35827500Y-129920000D01*
X49737500Y-130810000D02*
X48467500Y-130810000D01*
X41827500Y-118050000D02*
X41827500Y-130870000D01*
X47424571Y-126620000D02*
X46970429Y-126620000D01*
X35827500Y-124080000D02*
X41827500Y-124080000D01*
X47424571Y-122300000D02*
X46970429Y-122300000D01*
X44487500Y-128270000D02*
X41827500Y-128270000D01*
X44884571Y-124080000D02*
X44487500Y-124080000D01*
X47424571Y-119000000D02*
X46970429Y-119000000D01*
X41827500Y-122300000D02*
X35827500Y-122300000D01*
X44487500Y-118050000D02*
X41827500Y-118050000D01*
X44487500Y-120650000D02*
X41827500Y-120650000D01*
X35827500Y-119760000D02*
X35827500Y-119000000D01*
X47424571Y-119760000D02*
X46970429Y-119760000D01*
X41827500Y-130870000D02*
X44487500Y-130870000D01*
X47424571Y-124080000D02*
X46970429Y-124080000D01*
X47424571Y-121540000D02*
X46970429Y-121540000D01*
X44487500Y-125730000D02*
X41827500Y-125730000D01*
X41827500Y-129500000D02*
X35827500Y-129500000D01*
X44884571Y-124840000D02*
X44487500Y-124840000D01*
X41827500Y-129860000D02*
X35827500Y-129860000D01*
X44884571Y-121540000D02*
X44487500Y-121540000D01*
X47357500Y-129920000D02*
X46970429Y-129920000D01*
X41827500Y-129740000D02*
X35827500Y-129740000D01*
X35827500Y-119000000D02*
X41827500Y-119000000D01*
X35827500Y-129920000D02*
X35827500Y-129160000D01*
X41827500Y-129380000D02*
X35827500Y-129380000D01*
X41827500Y-119760000D02*
X35827500Y-119760000D01*
G04 #@! TO.C,SW3*
X71750000Y-100800000D02*
X75570000Y-100800000D01*
X71750000Y-108670000D02*
X71750000Y-110020000D01*
X71750000Y-110020000D02*
X75570000Y-110020000D01*
X75570000Y-110020000D02*
X75570000Y-108670000D01*
X71750000Y-106170000D02*
X71750000Y-107150000D01*
X71750000Y-100800000D02*
X71750000Y-102150000D01*
X75570000Y-100800000D02*
X75570000Y-102150000D01*
X71750000Y-103670000D02*
X71750000Y-104650000D01*
X75570000Y-106170000D02*
X75570000Y-107150000D01*
X75570000Y-103670000D02*
X75570000Y-104650000D01*
G04 #@! TO.C,SW2*
X66510000Y-120020000D02*
X66510000Y-116200000D01*
X74380000Y-120020000D02*
X75730000Y-120020000D01*
X75730000Y-120020000D02*
X75730000Y-116200000D01*
X75730000Y-116200000D02*
X74380000Y-116200000D01*
X71880000Y-120020000D02*
X72860000Y-120020000D01*
X66510000Y-120020000D02*
X67860000Y-120020000D01*
X66510000Y-116200000D02*
X67860000Y-116200000D01*
X69380000Y-120020000D02*
X70360000Y-120020000D01*
X71880000Y-116200000D02*
X72860000Y-116200000D01*
X69380000Y-116200000D02*
X70360000Y-116200000D01*
G04 #@! TO.C,SW1*
X75400000Y-95890000D02*
X74420000Y-95890000D01*
X72900000Y-95890000D02*
X71920000Y-95890000D01*
X75400000Y-92070000D02*
X74420000Y-92070000D01*
X78270000Y-95890000D02*
X76920000Y-95890000D01*
X78270000Y-92070000D02*
X76920000Y-92070000D01*
X72900000Y-92070000D02*
X71920000Y-92070000D01*
X69050000Y-95890000D02*
X70400000Y-95890000D01*
X69050000Y-92070000D02*
X69050000Y-95890000D01*
X70400000Y-92070000D02*
X69050000Y-92070000D01*
X78270000Y-92070000D02*
X78270000Y-95890000D01*
D14*
G04 #@! TO.C,J10*
X53721000Y-105283000D02*
X53721000Y-110617000D01*
X66675000Y-110617000D02*
X66675000Y-105283000D01*
X55118000Y-112981740D02*
X54483000Y-111711740D01*
X53848000Y-112981740D02*
X55118000Y-112981740D01*
X54483000Y-111711740D02*
X53848000Y-112981740D01*
D12*
G04 #@! TO.C,J9*
X71120000Y-128870000D02*
X72450000Y-128870000D01*
X69850000Y-128870000D02*
X69850000Y-131530000D01*
X69850000Y-131530000D02*
X54550000Y-131530000D01*
X72450000Y-128870000D02*
X72450000Y-130200000D01*
X54550000Y-128870000D02*
X54550000Y-131530000D01*
X69850000Y-128870000D02*
X54550000Y-128870000D01*
D15*
G04 #@! TO.C,J8*
X55090000Y-85310000D02*
X55090000Y-87610000D01*
X55090000Y-81710000D02*
X55090000Y-83660000D01*
X64290000Y-85310000D02*
X64290000Y-87610000D01*
X64290000Y-81710000D02*
X64290000Y-83660000D01*
X55090000Y-81710000D02*
X64290000Y-81710000D01*
G04 #@! TO.C,J6*
X66250000Y-86930000D02*
X66250000Y-81280000D01*
X73450000Y-86930000D02*
X66250000Y-86930000D01*
X73450000Y-81280000D02*
X73450000Y-86930000D01*
X73450000Y-81280000D02*
X66250000Y-81280000D01*
D12*
G04 #@! TO.C,J5*
X35620000Y-107060000D02*
X35620000Y-106300000D01*
X41620000Y-106520000D02*
X35620000Y-106520000D01*
X41620000Y-101980000D02*
X35620000Y-101980000D01*
X41620000Y-107060000D02*
X35620000Y-107060000D01*
X41620000Y-106760000D02*
X35620000Y-106760000D01*
X35620000Y-106300000D02*
X41620000Y-106300000D01*
X35620000Y-101220000D02*
X41620000Y-101220000D01*
X44280000Y-102870000D02*
X41620000Y-102870000D01*
X47217071Y-103760000D02*
X46762929Y-103760000D01*
X49530000Y-106680000D02*
X49530000Y-107950000D01*
X44280000Y-105410000D02*
X41620000Y-105410000D01*
X41620000Y-106400000D02*
X35620000Y-106400000D01*
X44677071Y-103760000D02*
X44280000Y-103760000D01*
X41620000Y-106640000D02*
X35620000Y-106640000D01*
X47217071Y-101980000D02*
X46762929Y-101980000D01*
X47217071Y-104520000D02*
X46762929Y-104520000D01*
X41620000Y-107000000D02*
X35620000Y-107000000D01*
X44677071Y-101220000D02*
X44280000Y-101220000D01*
X41620000Y-106880000D02*
X35620000Y-106880000D01*
X41620000Y-104520000D02*
X35620000Y-104520000D01*
X44280000Y-108010000D02*
X44280000Y-100270000D01*
X49530000Y-107950000D02*
X48260000Y-107950000D01*
X47150000Y-106300000D02*
X46762929Y-106300000D01*
X47217071Y-101220000D02*
X46762929Y-101220000D01*
X44677071Y-106300000D02*
X44280000Y-106300000D01*
X44677071Y-107060000D02*
X44280000Y-107060000D01*
X41620000Y-108010000D02*
X44280000Y-108010000D01*
X44677071Y-101980000D02*
X44280000Y-101980000D01*
X35620000Y-104520000D02*
X35620000Y-103760000D01*
X44677071Y-104520000D02*
X44280000Y-104520000D01*
X44280000Y-100270000D02*
X41620000Y-100270000D01*
X35620000Y-101980000D02*
X35620000Y-101220000D01*
X47150000Y-107060000D02*
X46762929Y-107060000D01*
X41620000Y-100270000D02*
X41620000Y-108010000D01*
X35620000Y-103760000D02*
X41620000Y-103760000D01*
D14*
G04 #@! TO.C,J4*
X54610000Y-122989340D02*
X53975000Y-124259340D01*
X53975000Y-124259340D02*
X55245000Y-124259340D01*
X55245000Y-124259340D02*
X54610000Y-122989340D01*
X60452000Y-121221500D02*
X60452000Y-117538500D01*
X53848000Y-117538500D02*
X53848000Y-121221500D01*
D12*
G04 #@! TO.C,J3*
X87200000Y-104500000D02*
X86790000Y-104500000D01*
X95830000Y-105410000D02*
X87200000Y-105410000D01*
X95830000Y-120590000D02*
X87200000Y-120590000D01*
X87200000Y-101240000D02*
X86790000Y-101240000D01*
X95830000Y-119999525D02*
X87200000Y-119999525D01*
X83200000Y-120710000D02*
X82090000Y-120710000D01*
X84690000Y-114660000D02*
X84250000Y-114660000D01*
X95830000Y-119290955D02*
X87200000Y-119290955D01*
X87200000Y-101960000D02*
X86790000Y-101960000D01*
X87200000Y-119740000D02*
X86790000Y-119740000D01*
X95830000Y-107950000D02*
X87200000Y-107950000D01*
X84690000Y-99420000D02*
X84250000Y-99420000D01*
X95830000Y-118346195D02*
X87200000Y-118346195D01*
X95830000Y-119054765D02*
X87200000Y-119054765D01*
X84690000Y-96160000D02*
X84250000Y-96160000D01*
X87200000Y-119020000D02*
X86790000Y-119020000D01*
X84690000Y-108860000D02*
X84250000Y-108860000D01*
X84690000Y-119020000D02*
X84310000Y-119020000D01*
X87200000Y-116480000D02*
X86790000Y-116480000D01*
X84690000Y-113940000D02*
X84250000Y-113940000D01*
X87200000Y-112120000D02*
X86790000Y-112120000D01*
X87200000Y-114660000D02*
X86790000Y-114660000D01*
X84690000Y-107040000D02*
X84250000Y-107040000D01*
X95830000Y-120471905D02*
X87200000Y-120471905D01*
X95830000Y-118582385D02*
X87200000Y-118582385D01*
X87200000Y-99420000D02*
X86790000Y-99420000D01*
X87200000Y-108860000D02*
X86790000Y-108860000D01*
X95830000Y-97790000D02*
X87200000Y-97790000D01*
X95830000Y-120710000D02*
X87200000Y-120710000D01*
X87200000Y-98700000D02*
X86790000Y-98700000D01*
X84690000Y-98700000D02*
X84250000Y-98700000D01*
X84690000Y-104500000D02*
X84250000Y-104500000D01*
X87200000Y-107040000D02*
X86790000Y-107040000D01*
X95830000Y-118818575D02*
X87200000Y-118818575D01*
X95830000Y-118936670D02*
X87200000Y-118936670D01*
X87200000Y-96160000D02*
X86790000Y-96160000D01*
X95830000Y-120235715D02*
X87200000Y-120235715D01*
X95830000Y-120117620D02*
X87200000Y-120117620D01*
X87200000Y-109580000D02*
X86790000Y-109580000D01*
X95830000Y-95190000D02*
X87200000Y-95190000D01*
X84690000Y-111400000D02*
X84250000Y-111400000D01*
X95830000Y-118110000D02*
X87200000Y-118110000D01*
X87200000Y-120710000D02*
X87200000Y-95190000D01*
X95830000Y-110490000D02*
X87200000Y-110490000D01*
X95830000Y-119527145D02*
X87200000Y-119527145D01*
X84690000Y-109580000D02*
X84250000Y-109580000D01*
X95830000Y-119881430D02*
X87200000Y-119881430D01*
X82090000Y-120710000D02*
X82090000Y-119380000D01*
X84690000Y-106320000D02*
X84250000Y-106320000D01*
X95830000Y-118464290D02*
X87200000Y-118464290D01*
X87200000Y-117200000D02*
X86790000Y-117200000D01*
X95830000Y-113030000D02*
X87200000Y-113030000D01*
X95830000Y-100330000D02*
X87200000Y-100330000D01*
X84690000Y-96880000D02*
X84250000Y-96880000D01*
X95830000Y-120710000D02*
X95830000Y-95190000D01*
X84690000Y-112120000D02*
X84250000Y-112120000D01*
X84690000Y-117200000D02*
X84250000Y-117200000D01*
X87200000Y-113940000D02*
X86790000Y-113940000D01*
X84690000Y-101240000D02*
X84250000Y-101240000D01*
X95830000Y-118700480D02*
X87200000Y-118700480D01*
X95830000Y-115570000D02*
X87200000Y-115570000D01*
X95830000Y-119645240D02*
X87200000Y-119645240D01*
X95830000Y-102870000D02*
X87200000Y-102870000D01*
X84690000Y-119740000D02*
X84310000Y-119740000D01*
X87200000Y-103780000D02*
X86790000Y-103780000D01*
X95830000Y-118228100D02*
X87200000Y-118228100D01*
X87200000Y-106320000D02*
X86790000Y-106320000D01*
X84690000Y-101960000D02*
X84250000Y-101960000D01*
X95830000Y-120353810D02*
X87200000Y-120353810D01*
X95830000Y-119409050D02*
X87200000Y-119409050D01*
X87200000Y-111400000D02*
X86790000Y-111400000D01*
X95830000Y-119763335D02*
X87200000Y-119763335D01*
X84690000Y-116480000D02*
X84250000Y-116480000D01*
X84690000Y-103780000D02*
X84250000Y-103780000D01*
X95830000Y-119172860D02*
X87200000Y-119172860D01*
X87200000Y-96880000D02*
X86790000Y-96880000D01*
G04 #@! TD*
M02*
