  0
SECTION
  2
HEADER
  9
$ACADVER
  1
AC1014
  9
$HANDSEED
  5
FFFF
  9
$MEASUREMENT
 70
     1
  0
ENDSEC
  0
SECTION
  2
TABLES
  0
TABLE
  2
VPORT
  5
8
330
0
100
AcDbSymbolTable
 70
     4
  0
VPORT
  5
2E
330
8
100
AcDbSymbolTableRecord
100
AcDbViewportTableRecord
  2
*ACTIVE
 70
     0
 10
0.0
 20
0.0
 11
1.0
 21
1.0
 12
210.0
 22
148.5
 13
0.0
 23
0.0
 14
10.0
 24
10.0
 15
10.0
 25
10.0
 16
0.0
 26
0.0
 36
1.0
 17
0.0
 27
0.0
 37
0.0
 40
341.0
 41
1.24
 42
50.0
 43
0.0
 44
0.0
 50
0.0
 51
0.0
 71
     0
 72
   100
 73
     1
 74
     3
 75
     0
 76
     0
 77
     0
 78
     0
  0
ENDTAB
  0
TABLE
  2
LTYPE
  5
5
330
0
100
AcDbSymbolTable
 70
     1
  0
LTYPE
  5
14
330
5
100
AcDbSymbolTableRecord
100
AcDbLinetypeTableRecord
  2
BYBLOCK
 70
     0
  3

 72
    65
 73
     0
 40
0.0
  0
LTYPE
  5
15
330
5
100
AcDbSymbolTableRecord
100
AcDbLinetypeTableRecord
  2
BYLAYER
 70
     0
  3

 72
    65
 73
     0
 40
0.0
  0
LTYPE
  5
16
330
5
100
AcDbSymbolTableRecord
100
AcDbLinetypeTableRecord
  2
CONTINUOUS
 70
     0
  3
Solid line
 72
    65
 73
     0
 40
0.0
  0
ENDTAB
  0
TABLE
  2
LAYER
  5
2
100
AcDbSymbolTable
 70
3
  0
LAYER
  5
50
100
AcDbSymbolTableRecord
100
AcDbLayerTableRecord
  2
0
 70
0
  6
CONTINUOUS
  0
LAYER
  5
51
100
AcDbSymbolTableRecord
100
AcDbLayerTableRecord
  2
Layer_1
 70
0
  6
CONTINUOUS
  0
LAYER
  5
52
100
AcDbSymbolTableRecord
100
AcDbLayerTableRecord
  2
Layer_2
 70
0
  6
CONTINUOUS
  0
ENDTAB
  0
TABLE
  2
STYLE
  5
3
330
0
100
AcDbSymbolTable
 70
     1
  0
STYLE
  5
11
330
3
100
AcDbSymbolTableRecord
100
AcDbTextStyleTableRecord
  2
STANDARD
 70
     0
 40
0.0
 41
1.0
 50
0.0
 71
     0
 42
2.5
  3
txt
  4

  0
ENDTAB
  0
TABLE
  2
VIEW
  5
6
330
0
100
AcDbSymbolTable
 70
     0
  0
ENDTAB
  0
TABLE
  2
UCS
  5
7
330
0
100
AcDbSymbolTable
 70
     0
  0
ENDTAB
  0
TABLE
  2
APPID
  5
9
330
0
100
AcDbSymbolTable
 70
     2
  0
APPID
  5
12
330
9
100
AcDbSymbolTableRecord
100
AcDbRegAppTableRecord
  2
ACAD
 70
     0
  0
ENDTAB
  0
TABLE
  2
DIMSTYLE
  5
A
330
0
100
AcDbSymbolTable
 70
     1
  0
DIMSTYLE
105
27
330
A
100
AcDbSymbolTableRecord
100
AcDbDimStyleTableRecord
  2
ISO-25
 70
     0
  3

  4

  5

  6

  7

 40
1.0
 41
2.5
 42
0.625
 43
3.75
 44
1.25
 45
0.0
 46
0.0
 47
0.0
 48
0.0
140
2.5
141
2.5
142
0.0
143
0.03937007874016
144
1.0
145
0.0
146
1.0
147
0.625
 71
     0
 72
     0
 73
     0
 74
     0
 75
     0
 76
     0
 77
     1
 78
     8
170
     0
171
     3
172
     1
173
     0
174
     0
175
     0
176
     0
177
     0
178
     0
270
     2
271
     2
272
     2
273
     2
274
     3
340
11
275
     0
280
     0
281
     0
282
     0
283
     0
284
     8
285
     0
286
     0
287
     3
288
     0
  0
ENDTAB
  0
TABLE
  2
BLOCK_RECORD
  5
1
330
0
100
AcDbSymbolTable
 70
     1
  0
BLOCK_RECORD
  5
1F
330
1
100
AcDbSymbolTableRecord
100
AcDbBlockTableRecord
  2
*MODEL_SPACE
  0
BLOCK_RECORD
  5
1B
330
1
100
AcDbSymbolTableRecord
100
AcDbBlockTableRecord
  2
*PAPER_SPACE
  0
ENDTAB
  0
ENDSEC
  0
SECTION
  2
BLOCKS
  0
BLOCK
  5
20
330
1F
100
AcDbEntity
  8
0
100
AcDbBlockBegin
  2
*MODEL_SPACE
 70
     0
 10
0.0
 20
0.0
 30
0.0
  3
*MODEL_SPACE
  1

  0
ENDBLK
  5
21
330
1F
100
AcDbEntity
  8
0
100
AcDbBlockEnd
  0
BLOCK
  5
1C
330
1B
100
AcDbEntity
 67
     1
  8
0
100
AcDbBlockBegin
  2
*PAPER_SPACE
  1

  0
ENDBLK
  5
1D
330
1B
100
AcDbEntity
 67
     1
  8
0
100
AcDbBlockEnd
  0
ENDSEC
  0
SECTION
  2
ENTITIES
  0
SPLINE
  5
100
100
AcDbEntity
  8
Layer_2
 62
7
100
AcDbSpline
 70
8
 71
3
 72
8
 73
4
 74
0
 40
0
 40
0
 40
0
 40
0
 40
1
 40
1
 40
1
 40
1
 10
53.569805
 20
118.636140
 30
0.0
 10
53.569805
 20
126.094210
 30
0.0
 10
53.600295
 20
130.785810
 30
0.0
 10
53.648765
 20
130.785810
 30
0.0
  0
SPLINE
  5
101
100
AcDbEntity
  8
Layer_2
 62
7
100
AcDbSpline
 70
8
 71
3
 72
8
 73
4
 74
0
 40
0
 40
0
 40
0
 40
0
 40
1
 40
1
 40
1
 40
1
 10
53.648765
 20
130.785810
 30
0.0
 10
53.692195
 20
130.785810
 30
0.0
 10
53.751293
 20
130.860110
 30
0.0
 10
53.780096
 20
130.950810
 30
0.0
  0
SPLINE
  5
102
100
AcDbEntity
  8
Layer_2
 62
7
100
AcDbSpline
 70
8
 71
3
 72
8
 73
4
 74
0
 40
0
 40
0
 40
0
 40
0
 40
1
 40
1
 40
1
 40
1
 10
53.780096
 20
130.950810
 30
0.0
 10
53.808896
 20
131.041610
 30
0.0
 10
53.916242
 20
131.142260
 30
0.0
 10
54.018635
 20
131.174590
 30
0.0
  0
SPLINE
  5
103
100
AcDbEntity
  8
Layer_2
 62
7
100
AcDbSpline
 70
8
 71
3
 72
8
 73
4
 74
0
 40
0
 40
0
 40
0
 40
0
 40
1
 40
1
 40
1
 40
1
 10
54.018635
 20
131.174590
 30
0.0
 10
54.121028
 20
131.206890
 30
0.0
 10
54.261954
 20
131.298660
 30
0.0
 10
54.331804
 20
131.378470
 30
0.0
  0
SPLINE
  5
104
100
AcDbEntity
  8
Layer_2
 62
7
100
AcDbSpline
 70
8
 71
3
 72
8
 73
4
 74
0
 40
0
 40
0
 40
0
 40
0
 40
1
 40
1
 40
1
 40
1
 10
54.331804
 20
131.378470
 30
0.0
 10
54.401654
 20
131.458270
 30
0.0
 10
54.544529
 20
131.550650
 30
0.0
 10
54.649304
 20
131.583740
 30
0.0
  0
SPLINE
  5
105
100
AcDbEntity
  8
Layer_2
 62
7
100
AcDbSpline
 70
8
 71
3
 72
8
 73
4
 74
0
 40
0
 40
0
 40
0
 40
0
 40
1
 40
1
 40
1
 40
1
 10
54.649304
 20
131.583740
 30
0.0
 10
54.754079
 20
131.616840
 30
0.0
 10
54.839804
 20
131.679440
 30
0.0
 10
54.839804
 20
131.722850
 30
0.0
  0
SPLINE
  5
106
100
AcDbEntity
  8
Layer_2
 62
7
100
AcDbSpline
 70
8
 71
3
 72
8
 73
4
 74
0
 40
0
 40
0
 40
0
 40
0
 40
1
 40
1
 40
1
 40
1
 10
54.839804
 20
131.722850
 30
0.0
 10
54.839804
 20
131.766250
 30
0.0
 10
54.896954
 20
131.801850
 30
0.0
 10
54.966804
 20
131.801850
 30
0.0
  0
SPLINE
  5
107
100
AcDbEntity
  8
Layer_2
 62
7
100
AcDbSpline
 70
8
 71
3
 72
8
 73
4
 74
0
 40
0
 40
0
 40
0
 40
0
 40
1
 40
1
 40
1
 40
1
 10
54.966804
 20
131.801850
 30
0.0
 10
55.036654
 20
131.801850
 30
0.0
 10
55.093804
 20
131.835150
 30
0.0
 10
55.093804
 20
131.875950
 30
0.0
  0
SPLINE
  5
108
100
AcDbEntity
  8
Layer_2
 62
7
100
AcDbSpline
 70
8
 71
3
 72
8
 73
4
 74
0
 40
0
 40
0
 40
0
 40
0
 40
1
 40
1
 40
1
 40
1
 10
55.093804
 20
131.875950
 30
0.0
 10
55.093804
 20
131.916750
 30
0.0
 10
55.213222
 20
131.973950
 30
0.0
 10
55.359177
 20
132.003110
 30
0.0
  0
SPLINE
  5
109
100
AcDbEntity
  8
Layer_2
 62
7
100
AcDbSpline
 70
8
 71
3
 72
8
 73
4
 74
0
 40
0
 40
0
 40
0
 40
0
 40
1
 40
1
 40
1
 40
1
 10
55.359177
 20
132.003110
 30
0.0
 10
55.505132
 20
132.032310
 30
0.0
 10
55.688364
 20
132.129760
 30
0.0
 10
55.766360
 20
132.219690
 30
0.0
  0
SPLINE
  5
10a
100
AcDbEntity
  8
Layer_2
 62
7
100
AcDbSpline
 70
8
 71
3
 72
8
 73
4
 74
0
 40
0
 40
0
 40
0
 40
0
 40
1
 40
1
 40
1
 40
1
 10
55.766360
 20
132.219690
 30
0.0
 10
55.844360
 20
132.309590
 30
0.0
 10
56.010688
 20
132.408930
 30
0.0
 10
56.135987
 20
132.440380
 30
0.0
  0
SPLINE
  5
10b
100
AcDbEntity
  8
Layer_2
 62
7
100
AcDbSpline
 70
8
 71
3
 72
8
 73
4
 74
0
 40
0
 40
0
 40
0
 40
0
 40
1
 40
1
 40
1
 40
1
 10
56.135987
 20
132.440380
 30
0.0
 10
56.261287
 20
132.471780
 30
0.0
 10
56.363804
 20
132.531480
 30
0.0
 10
56.363804
 20
132.573050
 30
0.0
  0
SPLINE
  5
10c
100
AcDbEntity
  8
Layer_2
 62
7
100
AcDbSpline
 70
8
 71
3
 72
8
 73
4
 74
0
 40
0
 40
0
 40
0
 40
0
 40
1
 40
1
 40
1
 40
1
 10
56.363804
 20
132.573050
 30
0.0
 10
56.363804
 20
132.614550
 30
0.0
 10
56.420954
 20
132.648550
 30
0.0
 10
56.490804
 20
132.648550
 30
0.0
  0
SPLINE
  5
10d
100
AcDbEntity
  8
Layer_2
 62
7
100
AcDbSpline
 70
8
 71
3
 72
8
 73
4
 74
0
 40
0
 40
0
 40
0
 40
0
 40
1
 40
1
 40
1
 40
1
 10
56.490804
 20
132.648550
 30
0.0
 10
56.560654
 20
132.648550
 30
0.0
 10
56.617804
 20
132.682450
 30
0.0
 10
56.617804
 20
132.723750
 30
0.0
  0
SPLINE
  5
10e
100
AcDbEntity
  8
Layer_2
 62
7
100
AcDbSpline
 70
8
 71
3
 72
8
 73
4
 74
0
 40
0
 40
0
 40
0
 40
0
 40
1
 40
1
 40
1
 40
1
 10
56.617804
 20
132.723750
 30
0.0
 10
56.617804
 20
132.765150
 30
0.0
 10
56.751154
 20
132.824010
 30
0.0
 10
56.914138
 20
132.854590
 30
0.0
  0
SPLINE
  5
10f
100
AcDbEntity
  8
Layer_2
 62
7
100
AcDbSpline
 70
8
 71
3
 72
8
 73
4
 74
0
 40
0
 40
0
 40
0
 40
0
 40
1
 40
1
 40
1
 40
1
 10
56.914138
 20
132.854590
 30
0.0
 10
57.077121
 20
132.885190
 30
0.0
 10
57.210471
 20
132.946590
 30
0.0
 10
57.210471
 20
132.991010
 30
0.0
  0
SPLINE
  5
110
100
AcDbEntity
  8
Layer_2
 62
7
100
AcDbSpline
 70
8
 71
3
 72
8
 73
4
 74
0
 40
0
 40
0
 40
0
 40
0
 40
1
 40
1
 40
1
 40
1
 10
57.210471
 20
132.991010
 30
0.0
 10
57.210471
 20
133.035410
 30
0.0
 10
57.267621
 20
133.071810
 30
0.0
 10
57.337471
 20
133.071810
 30
0.0
  0
SPLINE
  5
111
100
AcDbEntity
  8
Layer_2
 62
7
100
AcDbSpline
 70
8
 71
3
 72
8
 73
4
 74
0
 40
0
 40
0
 40
0
 40
0
 40
1
 40
1
 40
1
 40
1
 10
57.337471
 20
133.071810
 30
0.0
 10
57.407321
 20
133.071810
 30
0.0
 10
57.464471
 20
133.105610
 30
0.0
 10
57.464471
 20
133.146910
 30
0.0
  0
SPLINE
  5
112
100
AcDbEntity
  8
Layer_2
 62
7
100
AcDbSpline
 70
8
 71
3
 72
8
 73
4
 74
0
 40
0
 40
0
 40
0
 40
0
 40
1
 40
1
 40
1
 40
1
 10
57.464471
 20
133.146910
 30
0.0
 10
57.464471
 20
133.188210
 30
0.0
 10
57.635921
 20
133.247680
 30
0.0
 10
57.845471
 20
133.279100
 30
0.0
  0
SPLINE
  5
113
100
AcDbEntity
  8
Layer_2
 62
7
100
AcDbSpline
 70
8
 71
3
 72
8
 73
4
 74
0
 40
0
 40
0
 40
0
 40
0
 40
1
 40
1
 40
1
 40
1
 10
57.845471
 20
133.279100
 30
0.0
 10
58.055021
 20
133.310500
 30
0.0
 10
58.226471
 20
133.372000
 30
0.0
 10
58.226471
 20
133.415710
 30
0.0
  0
SPLINE
  5
114
100
AcDbEntity
  8
Layer_2
 62
7
100
AcDbSpline
 70
8
 71
3
 72
8
 73
4
 74
0
 40
0
 40
0
 40
0
 40
0
 40
1
 40
1
 40
1
 40
1
 10
58.226471
 20
133.415710
 30
0.0
 10
58.226471
 20
133.459410
 30
0.0
 10
58.283621
 20
133.495210
 30
0.0
 10
58.353471
 20
133.495210
 30
0.0
  0
SPLINE
  5
115
100
AcDbEntity
  8
Layer_2
 62
7
100
AcDbSpline
 70
8
 71
3
 72
8
 73
4
 74
0
 40
0
 40
0
 40
0
 40
0
 40
1
 40
1
 40
1
 40
1
 10
58.353471
 20
133.495210
 30
0.0
 10
58.423321
 20
133.495210
 30
0.0
 10
58.480471
 20
133.528410
 30
0.0
 10
58.480471
 20
133.569110
 30
0.0
  0
SPLINE
  5
116
100
AcDbEntity
  8
Layer_2
 62
7
100
AcDbSpline
 70
8
 71
3
 72
8
 73
4
 74
0
 40
0
 40
0
 40
0
 40
0
 40
1
 40
1
 40
1
 40
1
 10
58.480471
 20
133.569110
 30
0.0
 10
58.480471
 20
133.609710
 30
0.0
 10
58.632871
 20
133.667310
 30
0.0
 10
58.819138
 20
133.697110
 30
0.0
  0
SPLINE
  5
117
100
AcDbEntity
  8
Layer_2
 62
7
100
AcDbSpline
 70
8
 71
3
 72
8
 73
4
 74
0
 40
0
 40
0
 40
0
 40
0
 40
1
 40
1
 40
1
 40
1
 10
58.819138
 20
133.697110
 30
0.0
 10
59.005405
 20
133.726910
 30
0.0
 10
59.157805
 20
133.788910
 30
0.0
 10
59.157805
 20
133.834930
 30
0.0
  0
SPLINE
  5
118
100
AcDbEntity
  8
Layer_2
 62
7
100
AcDbSpline
 70
8
 71
3
 72
8
 73
4
 74
0
 40
0
 40
0
 40
0
 40
0
 40
1
 40
1
 40
1
 40
1
 10
59.157805
 20
133.834930
 30
0.0
 10
59.157805
 20
133.880930
 30
0.0
 10
59.234005
 20
133.918630
 30
0.0
 10
59.327138
 20
133.918630
 30
0.0
  0
SPLINE
  5
119
100
AcDbEntity
  8
Layer_2
 62
7
100
AcDbSpline
 70
8
 71
3
 72
8
 73
4
 74
0
 40
0
 40
0
 40
0
 40
0
 40
1
 40
1
 40
1
 40
1
 10
59.327138
 20
133.918630
 30
0.0
 10
59.420268
 20
133.918630
 30
0.0
 10
59.496471
 20
133.953130
 30
0.0
 10
59.496471
 20
133.995330
 30
0.0
  0
SPLINE
  5
11a
100
AcDbEntity
  8
Layer_2
 62
7
100
AcDbSpline
 70
8
 71
3
 72
8
 73
4
 74
0
 40
0
 40
0
 40
0
 40
0
 40
1
 40
1
 40
1
 40
1
 10
59.496471
 20
133.995330
 30
0.0
 10
59.496471
 20
134.037530
 30
0.0
 10
59.686971
 20
134.098250
 30
0.0
 10
59.919805
 20
134.130270
 30
0.0
  0
SPLINE
  5
11b
100
AcDbEntity
  8
Layer_2
 62
7
100
AcDbSpline
 70
8
 71
3
 72
8
 73
4
 74
0
 40
0
 40
0
 40
0
 40
0
 40
1
 40
1
 40
1
 40
1
 10
59.919805
 20
134.130270
 30
0.0
 10
60.152638
 20
134.162270
 30
0.0
 10
60.343138
 20
134.222970
 30
0.0
 10
60.343138
 20
134.265220
 30
0.0
  0
SPLINE
  5
11c
100
AcDbEntity
  8
Layer_2
 62
7
100
AcDbSpline
 70
8
 71
3
 72
8
 73
4
 74
0
 40
0
 40
0
 40
0
 40
0
 40
1
 40
1
 40
1
 40
1
 10
60.343138
 20
134.265220
 30
0.0
 10
60.343138
 20
134.307420
 30
0.0
 10
60.400288
 20
134.341920
 30
0.0
 10
60.470138
 20
134.341920
 30
0.0
  0
SPLINE
  5
11d
100
AcDbEntity
  8
Layer_2
 62
7
100
AcDbSpline
 70
8
 71
3
 72
8
 73
4
 74
0
 40
0
 40
0
 40
0
 40
0
 40
1
 40
1
 40
1
 40
1
 10
60.470138
 20
134.341920
 30
0.0
 10
60.539988
 20
134.341920
 30
0.0
 10
60.597138
 20
134.376420
 30
0.0
 10
60.597138
 20
134.418620
 30
0.0
  0
SPLINE
  5
11e
100
AcDbEntity
  8
Layer_2
 62
7
100
AcDbSpline
 70
8
 71
3
 72
8
 73
4
 74
0
 40
0
 40
0
 40
0
 40
0
 40
1
 40
1
 40
1
 40
1
 10
60.597138
 20
134.418620
 30
0.0
 10
60.597138
 20
134.460820
 30
0.0
 10
60.787638
 20
134.521540
 30
0.0
 10
61.020472
 20
134.553570
 30
0.0
  0
SPLINE
  5
11f
100
AcDbEntity
  8
Layer_2
 62
7
100
AcDbSpline
 70
8
 71
3
 72
8
 73
4
 74
0
 40
0
 40
0
 40
0
 40
0
 40
1
 40
1
 40
1
 40
1
 10
61.020472
 20
134.553570
 30
0.0
 10
61.253305
 20
134.585570
 30
0.0
 10
61.443805
 20
134.642770
 30
0.0
 10
61.443805
 20
134.680570
 30
0.0
  0
SPLINE
  5
120
100
AcDbEntity
  8
Layer_2
 62
7
100
AcDbSpline
 70
8
 71
3
 72
8
 73
4
 74
0
 40
0
 40
0
 40
0
 40
0
 40
1
 40
1
 40
1
 40
1
 10
61.443805
 20
134.680570
 30
0.0
 10
61.443805
 20
134.718370
 30
0.0
 10
61.634305
 20
134.775570
 30
0.0
 10
61.867138
 20
134.807570
 30
0.0
  0
SPLINE
  5
121
100
AcDbEntity
  8
Layer_2
 62
7
100
AcDbSpline
 70
8
 71
3
 72
8
 73
4
 74
0
 40
0
 40
0
 40
0
 40
0
 40
1
 40
1
 40
1
 40
1
 10
61.867138
 20
134.807570
 30
0.0
 10
62.099972
 20
134.839570
 30
0.0
 10
62.290472
 20
134.900270
 30
0.0
 10
62.290472
 20
134.942510
 30
0.0
  0
SPLINE
  5
122
100
AcDbEntity
  8
Layer_2
 62
7
100
AcDbSpline
 70
8
 71
3
 72
8
 73
4
 74
0
 40
0
 40
0
 40
0
 40
0
 40
1
 40
1
 40
1
 40
1
 10
62.290472
 20
134.942510
 30
0.0
 10
62.290472
 20
134.984710
 30
0.0
 10
62.385722
 20
135.019210
 30
0.0
 10
62.502138
 20
135.019210
 30
0.0
  0
SPLINE
  5
123
100
AcDbEntity
  8
Layer_2
 62
7
100
AcDbSpline
 70
8
 71
3
 72
8
 73
4
 74
0
 40
0
 40
0
 40
0
 40
0
 40
1
 40
1
 40
1
 40
1
 10
62.502138
 20
135.019210
 30
0.0
 10
62.618555
 20
135.019210
 30
0.0
 10
62.713805
 20
135.054610
 30
0.0
 10
62.713805
 20
135.097810
 30
0.0
  0
SPLINE
  5
124
100
AcDbEntity
  8
Layer_2
 62
7
100
AcDbSpline
 70
8
 71
3
 72
8
 73
4
 74
0
 40
0
 40
0
 40
0
 40
0
 40
1
 40
1
 40
1
 40
1
 10
62.713805
 20
135.097810
 30
0.0
 10
62.713805
 20
135.141010
 30
0.0
 10
62.923355
 20
135.202560
 30
0.0
 10
63.179472
 20
135.234560
 30
0.0
  0
SPLINE
  5
125
100
AcDbEntity
  8
Layer_2
 62
7
100
AcDbSpline
 70
8
 71
3
 72
8
 73
4
 74
0
 40
0
 40
0
 40
0
 40
0
 40
1
 40
1
 40
1
 40
1
 10
63.179472
 20
135.234560
 30
0.0
 10
63.435588
 20
135.266560
 30
0.0
 10
63.645138
 20
135.326460
 30
0.0
 10
63.645138
 20
135.367650
 30
0.0
  0
SPLINE
  5
126
100
AcDbEntity
  8
Layer_2
 62
7
100
AcDbSpline
 70
8
 71
3
 72
8
 73
4
 74
0
 40
0
 40
0
 40
0
 40
0
 40
1
 40
1
 40
1
 40
1
 10
63.645138
 20
135.367650
 30
0.0
 10
63.645138
 20
135.408850
 30
0.0
 10
63.740388
 20
135.442550
 30
0.0
 10
63.856805
 20
135.442550
 30
0.0
  0
SPLINE
  5
127
100
AcDbEntity
  8
Layer_2
 62
7
100
AcDbSpline
 70
8
 71
3
 72
8
 73
4
 74
0
 40
0
 40
0
 40
0
 40
0
 40
1
 40
1
 40
1
 40
1
 10
63.856805
 20
135.442550
 30
0.0
 10
63.973222
 20
135.442550
 30
0.0
 10
64.068472
 20
135.478750
 30
0.0
 10
64.068472
 20
135.523050
 30
0.0
  0
SPLINE
  5
128
100
AcDbEntity
  8
Layer_2
 62
7
100
AcDbSpline
 70
8
 71
3
 72
8
 73
4
 74
0
 40
0
 40
0
 40
0
 40
0
 40
1
 40
1
 40
1
 40
1
 10
64.068472
 20
135.523050
 30
0.0
 10
64.068472
 20
135.567350
 30
0.0
 10
64.297072
 20
135.629370
 30
0.0
 10
64.576472
 20
135.660980
 30
0.0
  0
SPLINE
  5
129
100
AcDbEntity
  8
Layer_2
 62
7
100
AcDbSpline
 70
8
 71
3
 72
8
 73
4
 74
0
 40
0
 40
0
 40
0
 40
0
 40
1
 40
1
 40
1
 40
1
 10
64.576472
 20
135.660980
 30
0.0
 10
64.855872
 20
135.692580
 30
0.0
 10
65.084472
 20
135.751680
 30
0.0
 10
65.084472
 20
135.792190
 30
0.0
  0
SPLINE
  5
12a
100
AcDbEntity
  8
Layer_2
 62
7
100
AcDbSpline
 70
8
 71
3
 72
8
 73
4
 74
0
 40
0
 40
0
 40
0
 40
0
 40
1
 40
1
 40
1
 40
1
 10
65.084472
 20
135.792190
 30
0.0
 10
65.084472
 20
135.832690
 30
0.0
 10
65.217822
 20
135.865890
 30
0.0
 10
65.380805
 20
135.865890
 30
0.0
  0
SPLINE
  5
12b
100
AcDbEntity
  8
Layer_2
 62
7
100
AcDbSpline
 70
8
 71
3
 72
8
 73
4
 74
0
 40
0
 40
0
 40
0
 40
0
 40
1
 40
1
 40
1
 40
1
 10
65.380805
 20
135.865890
 30
0.0
 10
65.543789
 20
135.865890
 30
0.0
 10
65.677139
 20
135.900990
 30
0.0
 10
65.677139
 20
135.943790
 30
0.0
  0
SPLINE
  5
12c
100
AcDbEntity
  8
Layer_2
 62
7
100
AcDbSpline
 70
8
 71
3
 72
8
 73
4
 74
0
 40
0
 40
0
 40
0
 40
0
 40
1
 40
1
 40
1
 40
1
 10
65.677139
 20
135.943790
 30
0.0
 10
65.677139
 20
135.986690
 30
0.0
 10
65.924789
 20
136.048230
 30
0.0
 10
66.227472
 20
136.080650
 30
0.0
  0
SPLINE
  5
12d
100
AcDbEntity
  8
Layer_2
 62
7
100
AcDbSpline
 70
8
 71
3
 72
8
 73
4
 74
0
 40
0
 40
0
 40
0
 40
0
 40
1
 40
1
 40
1
 40
1
 10
66.227472
 20
136.080650
 30
0.0
 10
66.530155
 20
136.113050
 30
0.0
 10
66.777805
 20
136.173250
 30
0.0
 10
66.777805
 20
136.214390
 30
0.0
  0
SPLINE
  5
12e
100
AcDbEntity
  8
Layer_2
 62
7
100
AcDbSpline
 70
8
 71
3
 72
8
 73
4
 74
0
 40
0
 40
0
 40
0
 40
0
 40
1
 40
1
 40
1
 40
1
 10
66.777805
 20
136.214390
 30
0.0
 10
66.777805
 20
136.255490
 30
0.0
 10
66.911155
 20
136.289190
 30
0.0
 10
67.074139
 20
136.289190
 30
0.0
  0
SPLINE
  5
12f
100
AcDbEntity
  8
Layer_2
 62
7
100
AcDbSpline
 70
8
 71
3
 72
8
 73
4
 74
0
 40
0
 40
0
 40
0
 40
0
 40
1
 40
1
 40
1
 40
1
 10
67.074139
 20
136.289190
 30
0.0
 10
67.237122
 20
136.289190
 30
0.0
 10
67.370472
 20
136.324990
 30
0.0
 10
67.370472
 20
136.368690
 30
0.0
  0
SPLINE
  5
130
100
AcDbEntity
  8
Layer_2
 62
7
100
AcDbSpline
 70
8
 71
3
 72
8
 73
4
 74
0
 40
0
 40
0
 40
0
 40
0
 40
1
 40
1
 40
1
 40
1
 10
67.370472
 20
136.368690
 30
0.0
 10
67.370472
 20
136.412390
 30
0.0
 10
67.637172
 20
136.474510
 30
0.0
 10
67.963139
 20
136.506630
 30
0.0
  0
SPLINE
  5
131
100
AcDbEntity
  8
Layer_2
 62
7
100
AcDbSpline
 70
8
 71
3
 72
8
 73
4
 74
0
 40
0
 40
0
 40
0
 40
0
 40
1
 40
1
 40
1
 40
1
 10
67.963139
 20
136.506630
 30
0.0
 10
68.289106
 20
136.538730
 30
0.0
 10
68.555806
 20
136.598230
 30
0.0
 10
68.555806
 20
136.638760
 30
0.0
  0
SPLINE
  5
132
100
AcDbEntity
  8
Layer_2
 62
7
100
AcDbSpline
 70
8
 71
3
 72
8
 73
4
 74
0
 40
0
 40
0
 40
0
 40
0
 40
1
 40
1
 40
1
 40
1
 10
68.555806
 20
136.638760
 30
0.0
 10
68.555806
 20
136.679360
 30
0.0
 10
68.727256
 20
136.712460
 30
0.0
 10
68.936806
 20
136.712460
 30
0.0
  0
SPLINE
  5
133
100
AcDbEntity
  8
Layer_2
 62
7
100
AcDbSpline
 70
8
 71
3
 72
8
 73
4
 74
0
 40
0
 40
0
 40
0
 40
0
 40
1
 40
1
 40
1
 40
1
 10
68.936806
 20
136.712460
 30
0.0
 10
69.146356
 20
136.712460
 30
0.0
 10
69.317806
 20
136.746560
 30
0.0
 10
69.317806
 20
136.788360
 30
0.0
  0
SPLINE
  5
134
100
AcDbEntity
  8
Layer_2
 62
7
100
AcDbSpline
 70
8
 71
3
 72
8
 73
4
 74
0
 40
0
 40
0
 40
0
 40
0
 40
1
 40
1
 40
1
 40
1
 10
69.317806
 20
136.788360
 30
0.0
 10
69.317806
 20
136.830060
 30
0.0
 10
69.622606
 20
136.891200
 30
0.0
 10
69.995139
 20
136.924170
 30
0.0
  0
SPLINE
  5
135
100
AcDbEntity
  8
Layer_2
 62
7
100
AcDbSpline
 70
8
 71
3
 72
8
 73
4
 74
0
 40
0
 40
0
 40
0
 40
0
 40
1
 40
1
 40
1
 40
1
 10
69.995139
 20
136.924170
 30
0.0
 10
70.367673
 20
136.957170
 30
0.0
 10
70.672473
 20
137.018270
 30
0.0
 10
70.672473
 20
137.059980
 30
0.0
  0
SPLINE
  5
136
100
AcDbEntity
  8
Layer_2
 62
7
100
AcDbSpline
 70
8
 71
3
 72
8
 73
4
 74
0
 40
0
 40
0
 40
0
 40
0
 40
1
 40
1
 40
1
 40
1
 10
70.672473
 20
137.059980
 30
0.0
 10
70.672473
 20
137.101680
 30
0.0
 10
70.862973
 20
137.135880
 30
0.0
 10
71.095806
 20
137.135880
 30
0.0
  0
SPLINE
  5
137
100
AcDbEntity
  8
Layer_2
 62
7
100
AcDbSpline
 70
8
 71
3
 72
8
 73
4
 74
0
 40
0
 40
0
 40
0
 40
0
 40
1
 40
1
 40
1
 40
1
 10
71.095806
 20
137.135880
 30
0.0
 10
71.328639
 20
137.135880
 30
0.0
 10
71.519139
 20
137.170780
 30
0.0
 10
71.519139
 20
137.213380
 30
0.0
  0
SPLINE
  5
138
100
AcDbEntity
  8
Layer_2
 62
7
100
AcDbSpline
 70
8
 71
3
 72
8
 73
4
 74
0
 40
0
 40
0
 40
0
 40
0
 40
1
 40
1
 40
1
 40
1
 10
71.519139
 20
137.213380
 30
0.0
 10
71.519139
 20
137.255980
 30
0.0
 10
71.938239
 20
137.318070
 30
0.0
 10
72.450473
 20
137.351270
 30
0.0
  0
SPLINE
  5
139
100
AcDbEntity
  8
Layer_2
 62
7
100
AcDbSpline
 70
8
 71
3
 72
8
 73
4
 74
0
 40
0
 40
0
 40
0
 40
0
 40
1
 40
1
 40
1
 40
1
 10
72.450473
 20
137.351270
 30
0.0
 10
72.962706
 20
137.384470
 30
0.0
 10
73.381806
 20
137.444870
 30
0.0
 10
73.381806
 20
137.485410
 30
0.0
  0
SPLINE
  5
13a
100
AcDbEntity
  8
Layer_2
 62
7
100
AcDbSpline
 70
8
 71
3
 72
8
 73
4
 74
0
 40
0
 40
0
 40
0
 40
0
 40
1
 40
1
 40
1
 40
1
 10
73.381806
 20
137.485410
 30
0.0
 10
73.381806
 20
137.526010
 30
0.0
 10
73.572306
 20
137.559210
 30
0.0
 10
73.805140
 20
137.559210
 30
0.0
  0
SPLINE
  5
13b
100
AcDbEntity
  8
Layer_2
 62
7
100
AcDbSpline
 70
8
 71
3
 72
8
 73
4
 74
0
 40
0
 40
0
 40
0
 40
0
 40
1
 40
1
 40
1
 40
1
 10
73.805140
 20
137.559210
 30
0.0
 10
74.037973
 20
137.559210
 30
0.0
 10
74.228473
 20
137.593010
 30
0.0
 10
74.228473
 20
137.634410
 30
0.0
  0
SPLINE
  5
13c
100
AcDbEntity
  8
Layer_2
 62
7
100
AcDbSpline
 70
8
 71
3
 72
8
 73
4
 74
0
 40
0
 40
0
 40
0
 40
0
 40
1
 40
1
 40
1
 40
1
 10
74.228473
 20
137.634410
 30
0.0
 10
74.228473
 20
137.675810
 30
0.0
 10
74.723773
 20
137.737180
 30
0.0
 10
75.329140
 20
137.770850
 30
0.0
  0
SPLINE
  5
13d
100
AcDbEntity
  8
Layer_2
 62
7
100
AcDbSpline
 70
8
 71
3
 72
8
 73
4
 74
0
 40
0
 40
0
 40
0
 40
0
 40
1
 40
1
 40
1
 40
1
 10
75.329140
 20
137.770850
 30
0.0
 10
75.934507
 20
137.804550
 30
0.0
 10
76.429807
 20
137.865950
 30
0.0
 10
76.429807
 20
137.907290
 30
0.0
  0
SPLINE
  5
13e
100
AcDbEntity
  8
Layer_2
 62
7
100
AcDbSpline
 70
8
 71
3
 72
8
 73
4
 74
0
 40
0
 40
0
 40
0
 40
0
 40
1
 40
1
 40
1
 40
1
 10
76.429807
 20
137.907290
 30
0.0
 10
76.429807
 20
137.948690
 30
0.0
 10
76.563157
 20
137.982490
 30
0.0
 10
76.726140
 20
137.982490
 30
0.0
  0
SPLINE
  5
13f
100
AcDbEntity
  8
Layer_2
 62
7
100
AcDbSpline
 70
8
 71
3
 72
8
 73
4
 74
0
 40
0
 40
0
 40
0
 40
0
 40
1
 40
1
 40
1
 40
1
 10
77.022473
 20
142.808490
 30
0.0
 10
77.022473
 20
145.736900
 30
0.0
 10
76.991423
 20
147.634490
 30
0.0
 10
76.943513
 20
147.634490
 30
0.0
  0
SPLINE
  5
140
100
AcDbEntity
  8
Layer_2
 62
7
100
AcDbSpline
 70
8
 71
3
 72
8
 73
4
 74
0
 40
0
 40
0
 40
0
 40
0
 40
1
 40
1
 40
1
 40
1
 10
76.943513
 20
147.634490
 30
0.0
 10
76.900083
 20
147.634490
 30
0.0
 10
76.840367
 20
147.710690
 30
0.0
 10
76.810808
 20
147.803820
 30
0.0
  0
SPLINE
  5
141
100
AcDbEntity
  8
Layer_2
 62
7
100
AcDbSpline
 70
8
 71
3
 72
8
 73
4
 74
0
 40
0
 40
0
 40
0
 40
0
 40
1
 40
1
 40
1
 40
1
 10
76.810808
 20
147.803820
 30
0.0
 10
76.781248
 20
147.896920
 30
0.0
 10
76.697900
 20
147.973150
 30
0.0
 10
76.625590
 20
147.973150
 30
0.0
  0
SPLINE
  5
142
100
AcDbEntity
  8
Layer_2
 62
7
100
AcDbSpline
 70
8
 71
3
 72
8
 73
4
 74
0
 40
0
 40
0
 40
0
 40
0
 40
1
 40
1
 40
1
 40
1
 10
76.625590
 20
147.973150
 30
0.0
 10
76.553280
 20
147.973150
 30
0.0
 10
76.217951
 20
148.254750
 30
0.0
 10
75.880417
 20
148.598920
 30
0.0
  0
SPLINE
  5
143
100
AcDbEntity
  8
Layer_2
 62
7
100
AcDbSpline
 70
8
 71
3
 72
8
 73
4
 74
0
 40
0
 40
0
 40
0
 40
0
 40
1
 40
1
 40
1
 40
1
 10
75.880417
 20
148.598920
 30
0.0
 10
75.542882
 20
148.943090
 30
0.0
 10
75.185513
 20
149.250460
 30
0.0
 10
75.086263
 20
149.281960
 30
0.0
  0
SPLINE
  5
144
100
AcDbEntity
  8
Layer_2
 62
7
100
AcDbSpline
 70
8
 71
3
 72
8
 73
4
 74
0
 40
0
 40
0
 40
0
 40
0
 40
1
 40
1
 40
1
 40
1
 10
75.086263
 20
149.281960
 30
0.0
 10
74.987013
 20
149.313460
 30
0.0
 10
74.905807
 20
149.393810
 30
0.0
 10
74.905807
 20
149.460530
 30
0.0
  0
SPLINE
  5
145
100
AcDbEntity
  8
Layer_2
 62
7
100
AcDbSpline
 70
8
 71
3
 72
8
 73
4
 74
0
 40
0
 40
0
 40
0
 40
0
 40
1
 40
1
 40
1
 40
1
 10
74.905807
 20
149.460530
 30
0.0
 10
74.905807
 20
149.615690
 30
0.0
 10
74.603316
 20
149.920490
 30
0.0
 10
74.449319
 20
149.920490
 30
0.0
  0
SPLINE
  5
146
100
AcDbEntity
  8
Layer_2
 62
7
100
AcDbSpline
 70
8
 71
3
 72
8
 73
4
 74
0
 40
0
 40
0
 40
0
 40
0
 40
1
 40
1
 40
1
 40
1
 10
74.449319
 20
149.920490
 30
0.0
 10
74.384519
 20
149.920490
 30
0.0
 10
74.307592
 20
150.015690
 30
0.0
 10
74.278373
 20
150.132150
 30
0.0
  0
SPLINE
  5
147
100
AcDbEntity
  8
Layer_2
 62
7
100
AcDbSpline
 70
8
 71
3
 72
8
 73
4
 74
0
 40
0
 40
0
 40
0
 40
0
 40
1
 40
1
 40
1
 40
1
 10
74.278373
 20
150.132150
 30
0.0
 10
74.245363
 20
150.263660
 30
0.0
 10
74.165206
 20
150.343820
 30
0.0
 10
74.066706
 20
150.343820
 30
0.0
  0
SPLINE
  5
148
100
AcDbEntity
  8
Layer_2
 62
7
100
AcDbSpline
 70
8
 71
3
 72
8
 73
4
 74
0
 40
0
 40
0
 40
0
 40
0
 40
1
 40
1
 40
1
 40
1
 10
74.066706
 20
150.343820
 30
0.0
 10
73.969366
 20
150.343820
 30
0.0
 10
73.888204
 20
150.423320
 30
0.0
 10
73.856455
 20
150.549840
 30
0.0
  0
SPLINE
  5
149
100
AcDbEntity
  8
Layer_2
 62
7
100
AcDbSpline
 70
8
 71
3
 72
8
 73
4
 74
0
 40
0
 40
0
 40
0
 40
0
 40
1
 40
1
 40
1
 40
1
 10
73.856455
 20
150.549840
 30
0.0
 10
73.828015
 20
150.663160
 30
0.0
 10
73.728636
 20
150.780020
 30
0.0
 10
73.635611
 20
150.809550
 30
0.0
  0
SPLINE
  5
14a
100
AcDbEntity
  8
Layer_2
 62
7
100
AcDbSpline
 70
8
 71
3
 72
8
 73
4
 74
0
 40
0
 40
0
 40
0
 40
0
 40
1
 40
1
 40
1
 40
1
 10
73.635611
 20
150.809550
 30
0.0
 10
73.542581
 20
150.839050
 30
0.0
 10
73.466474
 20
150.895750
 30
0.0
 10
73.466474
 20
150.935490
 30
0.0
  0
SPLINE
  5
14b
100
AcDbEntity
  8
Layer_2
 62
7
100
AcDbSpline
 70
8
 71
3
 72
8
 73
4
 74
0
 40
0
 40
0
 40
0
 40
0
 40
1
 40
1
 40
1
 40
1
 10
73.466474
 20
150.935490
 30
0.0
 10
73.466474
 20
150.975190
 30
0.0
 10
73.318548
 20
151.157150
 30
0.0
 10
73.137749
 20
151.339770
 30
0.0
  0
SPLINE
  5
14c
100
AcDbEntity
  8
Layer_2
 62
7
100
AcDbSpline
 70
8
 71
3
 72
8
 73
4
 74
0
 40
0
 40
0
 40
0
 40
0
 40
1
 40
1
 40
1
 40
1
 10
73.137749
 20
151.339770
 30
0.0
 10
72.956950
 20
151.522380
 30
0.0
 10
72.783551
 20
151.752050
 30
0.0
 10
72.752417
 20
151.850140
 30
0.0
  0
SPLINE
  5
14d
100
AcDbEntity
  8
Layer_2
 62
7
100
AcDbSpline
 70
8
 71
3
 72
8
 73
4
 74
0
 40
0
 40
0
 40
0
 40
0
 40
1
 40
1
 40
1
 40
1
 10
72.752417
 20
151.850140
 30
0.0
 10
72.721287
 20
151.948240
 30
0.0
 10
72.623510
 20
152.051440
 30
0.0
 10
72.535140
 20
152.079490
 30
0.0
  0
SPLINE
  5
14e
100
AcDbEntity
  8
Layer_2
 62
7
100
AcDbSpline
 70
8
 71
3
 72
8
 73
4
 74
0
 40
0
 40
0
 40
0
 40
0
 40
1
 40
1
 40
1
 40
1
 10
72.535140
 20
152.079490
 30
0.0
 10
72.446770
 20
152.107490
 30
0.0
 10
72.350902
 20
152.204730
 30
0.0
 10
72.322099
 20
152.295480
 30
0.0
  0
SPLINE
  5
14f
100
AcDbEntity
  8
Layer_2
 62
7
100
AcDbSpline
 70
8
 71
3
 72
8
 73
4
 74
0
 40
0
 40
0
 40
0
 40
0
 40
1
 40
1
 40
1
 40
1
 10
72.322099
 20
152.295480
 30
0.0
 10
72.293299
 20
152.386280
 30
0.0
 10
72.234199
 20
152.460490
 30
0.0
 10
72.190768
 20
152.460490
 30
0.0
  0
SPLINE
  5
150
100
AcDbEntity
  8
Layer_2
 62
7
100
AcDbSpline
 70
8
 71
3
 72
8
 73
4
 74
0
 40
0
 40
0
 40
0
 40
0
 40
1
 40
1
 40
1
 40
1
 10
72.190768
 20
152.460490
 30
0.0
 10
72.147338
 20
152.460490
 30
0.0
 10
72.111808
 20
152.501590
 30
0.0
 10
72.111808
 20
152.551790
 30
0.0
  0
SPLINE
  5
151
100
AcDbEntity
  8
Layer_2
 62
7
100
AcDbSpline
 70
8
 71
3
 72
8
 73
4
 74
0
 40
0
 40
0
 40
0
 40
0
 40
1
 40
1
 40
1
 40
1
 10
72.111808
 20
152.551790
 30
0.0
 10
72.111808
 20
152.601990
 30
0.0
 10
71.959408
 20
152.793980
 30
0.0
 10
71.773141
 20
152.978400
 30
0.0
  0
SPLINE
  5
152
100
AcDbEntity
  8
Layer_2
 62
7
100
AcDbSpline
 70
8
 71
3
 72
8
 73
4
 74
0
 40
0
 40
0
 40
0
 40
0
 40
1
 40
1
 40
1
 40
1
 10
71.773141
 20
152.978400
 30
0.0
 10
71.586875
 20
153.162810
 30
0.0
 10
71.434475
 20
153.360330
 30
0.0
 10
71.434475
 20
153.417330
 30
0.0
  0
SPLINE
  5
153
100
AcDbEntity
  8
Layer_2
 62
7
100
AcDbSpline
 70
8
 71
3
 72
8
 73
4
 74
0
 40
0
 40
0
 40
0
 40
0
 40
1
 40
1
 40
1
 40
1
 10
71.434475
 20
153.417330
 30
0.0
 10
71.434475
 20
153.474330
 30
0.0
 10
71.339225
 20
153.592490
 30
0.0
 10
71.222808
 20
153.679920
 30
0.0
  0
SPLINE
  5
154
100
AcDbEntity
  8
Layer_2
 62
7
100
AcDbSpline
 70
8
 71
3
 72
8
 73
4
 74
0
 40
0
 40
0
 40
0
 40
0
 40
1
 40
1
 40
1
 40
1
 10
71.222808
 20
153.679920
 30
0.0
 10
71.106391
 20
153.767320
 30
0.0
 10
71.011141
 20
153.907170
 30
0.0
 10
71.011141
 20
153.990640
 30
0.0
  0
SPLINE
  5
155
100
AcDbEntity
  8
Layer_2
 62
7
100
AcDbSpline
 70
8
 71
3
 72
8
 73
4
 74
0
 40
0
 40
0
 40
0
 40
0
 40
1
 40
1
 40
1
 40
1
 10
71.011141
 20
153.990640
 30
0.0
 10
71.011141
 20
154.074140
 30
0.0
 10
70.934941
 20
154.166590
 30
0.0
 10
70.841808
 20
154.196150
 30
0.0
  0
SPLINE
  5
156
100
AcDbEntity
  8
Layer_2
 62
7
100
AcDbSpline
 70
8
 71
3
 72
8
 73
4
 74
0
 40
0
 40
0
 40
0
 40
0
 40
1
 40
1
 40
1
 40
1
 10
70.841808
 20
154.196150
 30
0.0
 10
70.748198
 20
154.225850
 30
0.0
 10
70.672475
 20
154.324260
 30
0.0
 10
70.672475
 20
154.416180
 30
0.0
  0
SPLINE
  5
157
100
AcDbEntity
  8
Layer_2
 62
7
100
AcDbSpline
 70
8
 71
3
 72
8
 73
4
 74
0
 40
0
 40
0
 40
0
 40
0
 40
1
 40
1
 40
1
 40
1
 10
70.672475
 20
154.416180
 30
0.0
 10
70.672475
 20
154.507680
 30
0.0
 10
70.615325
 20
154.604400
 30
0.0
 10
70.545475
 20
154.631200
 30
0.0
  0
SPLINE
  5
158
100
AcDbEntity
  8
Layer_2
 62
7
100
AcDbSpline
 70
8
 71
3
 72
8
 73
4
 74
0
 40
0
 40
0
 40
0
 40
0
 40
1
 40
1
 40
1
 40
1
 10
70.545475
 20
154.631200
 30
0.0
 10
70.475625
 20
154.658000
 30
0.0
 10
70.418475
 20
154.747980
 30
0.0
 10
70.418475
 20
154.831150
 30
0.0
  0
SPLINE
  5
159
100
AcDbEntity
  8
Layer_2
 62
7
100
AcDbSpline
 70
8
 71
3
 72
8
 73
4
 74
0
 40
0
 40
0
 40
0
 40
0
 40
1
 40
1
 40
1
 40
1
 10
70.418475
 20
154.831150
 30
0.0
 10
70.418475
 20
154.914350
 30
0.0
 10
70.361325
 20
155.004300
 30
0.0
 10
70.291475
 20
155.031100
 30
0.0
  0
SPLINE
  5
15a
100
AcDbEntity
  8
Layer_2
 62
7
100
AcDbSpline
 70
8
 71
3
 72
8
 73
4
 74
0
 40
0
 40
0
 40
0
 40
0
 40
1
 40
1
 40
1
 40
1
 10
70.291475
 20
155.031100
 30
0.0
 10
70.221625
 20
155.057900
 30
0.0
 10
70.164475
 20
155.154670
 30
0.0
 10
70.164475
 20
155.246120
 30
0.0
  0
SPLINE
  5
15b
100
AcDbEntity
  8
Layer_2
 62
7
100
AcDbSpline
 70
8
 71
3
 72
8
 73
4
 74
0
 40
0
 40
0
 40
0
 40
0
 40
1
 40
1
 40
1
 40
1
 10
70.164475
 20
155.246120
 30
0.0
 10
70.164475
 20
155.338020
 30
0.0
 10
70.088755
 20
155.436440
 30
0.0
 10
69.995141
 20
155.466150
 30
0.0
  0
SPLINE
  5
15c
100
AcDbEntity
  8
Layer_2
 62
7
100
AcDbSpline
 70
8
 71
3
 72
8
 73
4
 74
0
 40
0
 40
0
 40
0
 40
0
 40
1
 40
1
 40
1
 40
1
 10
69.995141
 20
155.466150
 30
0.0
 10
69.902011
 20
155.495750
 30
0.0
 10
69.825808
 20
155.588190
 30
0.0
 10
69.825808
 20
155.671670
 30
0.0
  0
SPLINE
  5
15d
100
AcDbEntity
  8
Layer_2
 62
7
100
AcDbSpline
 70
8
 71
3
 72
8
 73
4
 74
0
 40
0
 40
0
 40
0
 40
0
 40
1
 40
1
 40
1
 40
1
 10
69.825808
 20
155.671670
 30
0.0
 10
69.825808
 20
155.755170
 30
0.0
 10
69.732848
 20
155.893240
 30
0.0
 10
69.619236
 20
155.978560
 30
0.0
  0
SPLINE
  5
15e
100
AcDbEntity
  8
Layer_2
 62
7
100
AcDbSpline
 70
8
 71
3
 72
8
 73
4
 74
0
 40
0
 40
0
 40
0
 40
0
 40
1
 40
1
 40
1
 40
1
 10
69.619236
 20
155.978560
 30
0.0
 10
69.505622
 20
156.063860
 30
0.0
 10
69.388772
 20
156.228890
 30
0.0
 10
69.359570
 20
156.345240
 30
0.0
  0
SPLINE
  5
15f
100
AcDbEntity
  8
Layer_2
 62
7
100
AcDbSpline
 70
8
 71
3
 72
8
 73
4
 74
0
 40
0
 40
0
 40
0
 40
0
 40
1
 40
1
 40
1
 40
1
 10
69.359570
 20
156.345240
 30
0.0
 10
69.330370
 20
156.461590
 30
0.0
 10
69.232896
 20
156.620600
 30
0.0
 10
69.142966
 20
156.698600
 30
0.0
  0
SPLINE
  5
160
100
AcDbEntity
  8
Layer_2
 62
7
100
AcDbSpline
 70
8
 71
3
 72
8
 73
4
 74
0
 40
0
 40
0
 40
0
 40
0
 40
1
 40
1
 40
1
 40
1
 10
69.142966
 20
156.698600
 30
0.0
 10
69.053036
 20
156.776600
 30
0.0
 10
68.955573
 20
156.959830
 30
0.0
 10
68.926382
 20
157.105780
 30
0.0
  0
SPLINE
  5
161
100
AcDbEntity
  8
Layer_2
 62
7
100
AcDbSpline
 70
8
 71
3
 72
8
 73
4
 74
0
 40
0
 40
0
 40
0
 40
0
 40
1
 40
1
 40
1
 40
1
 10
68.926382
 20
157.105780
 30
0.0
 10
68.897192
 20
157.251740
 30
0.0
 10
68.839972
 20
157.371150
 30
0.0
 10
68.799224
 20
157.371150
 30
0.0
  0
SPLINE
  5
162
100
AcDbEntity
  8
Layer_2
 62
7
100
AcDbSpline
 70
8
 71
3
 72
8
 73
4
 74
0
 40
0
 40
0
 40
0
 40
0
 40
1
 40
1
 40
1
 40
1
 10
68.799224
 20
157.371150
 30
0.0
 10
68.758474
 20
157.371150
 30
0.0
 10
68.725144
 20
157.428350
 30
0.0
 10
68.725144
 20
157.498150
 30
0.0
  0
SPLINE
  5
163
100
AcDbEntity
  8
Layer_2
 62
7
100
AcDbSpline
 70
8
 71
3
 72
8
 73
4
 74
0
 40
0
 40
0
 40
0
 40
0
 40
1
 40
1
 40
1
 40
1
 10
68.725144
 20
157.498150
 30
0.0
 10
68.725144
 20
157.568050
 30
0.0
 10
68.687774
 20
157.625150
 30
0.0
 10
68.642094
 20
157.625150
 30
0.0
  0
SPLINE
  5
164
100
AcDbEntity
  8
Layer_2
 62
7
100
AcDbSpline
 70
8
 71
3
 72
8
 73
4
 74
0
 40
0
 40
0
 40
0
 40
0
 40
1
 40
1
 40
1
 40
1
 10
68.642094
 20
157.625150
 30
0.0
 10
68.596414
 20
157.625150
 30
0.0
 10
68.535135
 20
157.720450
 30
0.0
 10
68.505916
 20
157.836820
 30
0.0
  0
SPLINE
  5
165
100
AcDbEntity
  8
Layer_2
 62
7
100
AcDbSpline
 70
8
 71
3
 72
8
 73
4
 74
0
 40
0
 40
0
 40
0
 40
0
 40
1
 40
1
 40
1
 40
1
 10
68.505916
 20
157.836820
 30
0.0
 10
68.476696
 20
157.953240
 30
0.0
 10
68.418816
 20
158.048490
 30
0.0
 10
68.377303
 20
158.048490
 30
0.0
  0
SPLINE
  5
166
100
AcDbEntity
  8
Layer_2
 62
7
100
AcDbSpline
 70
8
 71
3
 72
8
 73
4
 74
0
 40
0
 40
0
 40
0
 40
0
 40
1
 40
1
 40
1
 40
1
 10
68.377303
 20
158.048490
 30
0.0
 10
68.335783
 20
158.048490
 30
0.0
 10
68.301813
 20
158.105590
 30
0.0
 10
68.301813
 20
158.175490
 30
0.0
  0
SPLINE
  5
167
100
AcDbEntity
  8
Layer_2
 62
7
100
AcDbSpline
 70
8
 71
3
 72
8
 73
4
 74
0
 40
0
 40
0
 40
0
 40
0
 40
1
 40
1
 40
1
 40
1
 10
68.301813
 20
158.175490
 30
0.0
 10
68.301813
 20
158.245390
 30
0.0
 10
68.267953
 20
158.302490
 30
0.0
 10
68.226573
 20
158.302490
 30
0.0
  0
SPLINE
  5
168
100
AcDbEntity
  8
Layer_2
 62
7
100
AcDbSpline
 70
8
 71
3
 72
8
 73
4
 74
0
 40
0
 40
0
 40
0
 40
0
 40
1
 40
1
 40
1
 40
1
 10
68.226573
 20
158.302490
 30
0.0
 10
68.185183
 20
158.302490
 30
0.0
 10
68.126312
 20
158.435840
 30
0.0
 10
68.095736
 20
158.598820
 30
0.0
  0
SPLINE
  5
169
100
AcDbEntity
  8
Layer_2
 62
7
100
AcDbSpline
 70
8
 71
3
 72
8
 73
4
 74
0
 40
0
 40
0
 40
0
 40
0
 40
1
 40
1
 40
1
 40
1
 10
68.095736
 20
158.598820
 30
0.0
 10
68.065166
 20
158.761800
 30
0.0
 10
68.005496
 20
158.895150
 30
0.0
 10
67.963150
 20
158.895150
 30
0.0
  0
SPLINE
  5
16a
100
AcDbEntity
  8
Layer_2
 62
7
100
AcDbSpline
 70
8
 71
3
 72
8
 73
4
 74
0
 40
0
 40
0
 40
0
 40
0
 40
1
 40
1
 40
1
 40
1
 10
67.963150
 20
158.895150
 30
0.0
 10
67.920800
 20
158.895150
 30
0.0
 10
67.861139
 20
159.028500
 30
0.0
 10
67.830564
 20
159.191490
 30
0.0
  0
SPLINE
  5
16b
100
AcDbEntity
  8
Layer_2
 62
7
100
AcDbSpline
 70
8
 71
3
 72
8
 73
4
 74
0
 40
0
 40
0
 40
0
 40
0
 40
1
 40
1
 40
1
 40
1
 10
67.830564
 20
159.191490
 30
0.0
 10
67.799984
 20
159.354470
 30
0.0
 10
67.741114
 20
159.487820
 30
0.0
 10
67.699727
 20
159.487820
 30
0.0
  0
SPLINE
  5
16c
100
AcDbEntity
  8
Layer_2
 62
7
100
AcDbSpline
 70
8
 71
3
 72
8
 73
4
 74
0
 40
0
 40
0
 40
0
 40
0
 40
1
 40
1
 40
1
 40
1
 10
67.699727
 20
159.487820
 30
0.0
 10
67.658347
 20
159.487820
 30
0.0
 10
67.624487
 20
159.545020
 30
0.0
 10
67.624487
 20
159.614820
 30
0.0
  0
SPLINE
  5
16d
100
AcDbEntity
  8
Layer_2
 62
7
100
AcDbSpline
 70
8
 71
3
 72
8
 73
4
 74
0
 40
0
 40
0
 40
0
 40
0
 40
1
 40
1
 40
1
 40
1
 10
67.624487
 20
159.614820
 30
0.0
 10
67.624487
 20
159.684720
 30
0.0
 10
67.588117
 20
159.741820
 30
0.0
 10
67.543657
 20
159.741820
 30
0.0
  0
SPLINE
  5
16e
100
AcDbEntity
  8
Layer_2
 62
7
100
AcDbSpline
 70
8
 71
3
 72
8
 73
4
 74
0
 40
0
 40
0
 40
0
 40
0
 40
1
 40
1
 40
1
 40
1
 10
67.543657
 20
159.741820
 30
0.0
 10
67.499197
 20
159.741820
 30
0.0
 10
67.437810
 20
159.875170
 30
0.0
 10
67.407234
 20
160.038150
 30
0.0
  0
SPLINE
  5
16f
100
AcDbEntity
  8
Layer_2
 62
7
100
AcDbSpline
 70
8
 71
3
 72
8
 73
4
 74
0
 40
0
 40
0
 40
0
 40
0
 40
1
 40
1
 40
1
 40
1
 10
67.407234
 20
160.038150
 30
0.0
 10
67.376664
 20
160.201140
 30
0.0
 10
67.317784
 20
160.334490
 30
0.0
 10
67.276398
 20
160.334490
 30
0.0
  0
SPLINE
  5
170
100
AcDbEntity
  8
Layer_2
 62
7
100
AcDbSpline
 70
8
 71
3
 72
8
 73
4
 74
0
 40
0
 40
0
 40
0
 40
0
 40
1
 40
1
 40
1
 40
1
 10
67.276398
 20
160.334490
 30
0.0
 10
67.235018
 20
160.334490
 30
0.0
 10
67.201158
 20
160.391590
 30
0.0
 10
67.201158
 20
160.461490
 30
0.0
  0
SPLINE
  5
171
100
AcDbEntity
  8
Layer_2
 62
7
100
AcDbSpline
 70
8
 71
3
 72
8
 73
4
 74
0
 40
0
 40
0
 40
0
 40
0
 40
1
 40
1
 40
1
 40
1
 10
67.201158
 20
160.461490
 30
0.0
 10
67.201158
 20
160.531390
 30
0.0
 10
67.167928
 20
160.588490
 30
0.0
 10
67.127308
 20
160.588490
 30
0.0
  0
SPLINE
  5
172
100
AcDbEntity
  8
Layer_2
 62
7
100
AcDbSpline
 70
8
 71
3
 72
8
 73
4
 74
0
 40
0
 40
0
 40
0
 40
0
 40
1
 40
1
 40
1
 40
1
 10
67.127308
 20
160.588490
 30
0.0
 10
67.086688
 20
160.588490
 30
0.0
 10
67.029088
 20
160.740890
 30
0.0
 10
66.999308
 20
160.927150
 30
0.0
  0
SPLINE
  5
173
100
AcDbEntity
  8
Layer_2
 62
7
100
AcDbSpline
 70
8
 71
3
 72
8
 73
4
 74
0
 40
0
 40
0
 40
0
 40
0
 40
1
 40
1
 40
1
 40
1
 10
66.999308
 20
160.927150
 30
0.0
 10
66.969518
 20
161.113420
 30
0.0
 10
66.907498
 20
161.265820
 30
0.0
 10
66.861486
 20
161.265820
 30
0.0
  0
SPLINE
  5
174
100
AcDbEntity
  8
Layer_2
 62
7
100
AcDbSpline
 70
8
 71
3
 72
8
 73
4
 74
0
 40
0
 40
0
 40
0
 40
0
 40
1
 40
1
 40
1
 40
1
 10
66.861486
 20
161.265820
 30
0.0
 10
66.815466
 20
161.265820
 30
0.0
 10
66.777816
 20
161.361120
 30
0.0
 10
66.777816
 20
161.477490
 30
0.0
  0
SPLINE
  5
175
100
AcDbEntity
  8
Layer_2
 62
7
100
AcDbSpline
 70
8
 71
3
 72
8
 73
4
 74
0
 40
0
 40
0
 40
0
 40
0
 40
1
 40
1
 40
1
 40
1
 10
66.777816
 20
161.477490
 30
0.0
 10
66.777816
 20
161.593900
 30
0.0
 10
66.740166
 20
161.689150
 30
0.0
 10
66.694156
 20
161.689150
 30
0.0
  0
SPLINE
  5
176
100
AcDbEntity
  8
Layer_2
 62
7
100
AcDbSpline
 70
8
 71
3
 72
8
 73
4
 74
0
 40
0
 40
0
 40
0
 40
0
 40
1
 40
1
 40
1
 40
1
 10
66.694156
 20
161.689150
 30
0.0
 10
66.648136
 20
161.689150
 30
0.0
 10
66.586119
 20
161.841550
 30
0.0
 10
66.556334
 20
162.027820
 30
0.0
  0
SPLINE
  5
177
100
AcDbEntity
  8
Layer_2
 62
7
100
AcDbSpline
 70
8
 71
3
 72
8
 73
4
 74
0
 40
0
 40
0
 40
0
 40
0
 40
1
 40
1
 40
1
 40
1
 10
66.556334
 20
162.027820
 30
0.0
 10
66.526544
 20
162.214090
 30
0.0
 10
66.468954
 20
162.366490
 30
0.0
 10
66.428334
 20
162.366490
 30
0.0
  0
SPLINE
  5
178
100
AcDbEntity
  8
Layer_2
 62
7
100
AcDbSpline
 70
8
 71
3
 72
8
 73
4
 74
0
 40
0
 40
0
 40
0
 40
0
 40
1
 40
1
 40
1
 40
1
 10
66.428334
 20
162.366490
 30
0.0
 10
66.387714
 20
162.366490
 30
0.0
 10
66.354484
 20
162.438590
 30
0.0
 10
66.354484
 20
162.526760
 30
0.0
  0
SPLINE
  5
179
100
AcDbEntity
  8
Layer_2
 62
7
100
AcDbSpline
 70
8
 71
3
 72
8
 73
4
 74
0
 40
0
 40
0
 40
0
 40
0
 40
1
 40
1
 40
1
 40
1
 10
66.354484
 20
162.526760
 30
0.0
 10
66.354484
 20
162.694540
 30
0.0
 10
66.198636
 20
162.789820
 30
0.0
 10
65.924226
 20
162.789820
 30
0.0
  0
SPLINE
  5
17a
100
AcDbEntity
  8
Layer_2
 62
7
100
AcDbSpline
 70
8
 71
3
 72
8
 73
4
 74
0
 40
0
 40
0
 40
0
 40
0
 40
1
 40
1
 40
1
 40
1
 10
65.924226
 20
162.789820
 30
0.0
 10
65.834906
 20
162.789820
 30
0.0
 10
65.761817
 20
162.827920
 30
0.0
 10
65.761817
 20
162.874520
 30
0.0
  0
SPLINE
  5
17b
100
AcDbEntity
  8
Layer_2
 62
7
100
AcDbSpline
 70
8
 71
3
 72
8
 73
4
 74
0
 40
0
 40
0
 40
0
 40
0
 40
1
 40
1
 40
1
 40
1
 10
65.761817
 20
162.874520
 30
0.0
 10
65.761817
 20
162.921120
 30
0.0
 10
65.647517
 20
162.959220
 30
0.0
 10
65.507817
 20
162.959220
 30
0.0
  0
SPLINE
  5
17c
100
AcDbEntity
  8
Layer_2
 62
7
100
AcDbSpline
 70
8
 71
3
 72
8
 73
4
 74
0
 40
0
 40
0
 40
0
 40
0
 40
1
 40
1
 40
1
 40
1
 10
65.507817
 20
162.959220
 30
0.0
 10
65.368117
 20
162.959220
 30
0.0
 10
65.253817
 20
162.993120
 30
0.0
 10
65.253817
 20
163.034520
 30
0.0
  0
SPLINE
  5
17d
100
AcDbEntity
  8
Layer_2
 62
7
100
AcDbSpline
 70
8
 71
3
 72
8
 73
4
 74
0
 40
0
 40
0
 40
0
 40
0
 40
1
 40
1
 40
1
 40
1
 10
65.253817
 20
163.034520
 30
0.0
 10
65.253817
 20
163.075920
 30
0.0
 10
65.120467
 20
163.134780
 30
0.0
 10
64.957484
 20
163.165350
 30
0.0
  0
SPLINE
  5
17e
100
AcDbEntity
  8
Layer_2
 62
7
100
AcDbSpline
 70
8
 71
3
 72
8
 73
4
 74
0
 40
0
 40
0
 40
0
 40
0
 40
1
 40
1
 40
1
 40
1
 10
64.957484
 20
163.165350
 30
0.0
 10
64.794501
 20
163.195950
 30
0.0
 10
64.661151
 20
163.257350
 30
0.0
 10
64.661151
 20
163.301780
 30
0.0
  0
SPLINE
  5
17f
100
AcDbEntity
  8
Layer_2
 62
7
100
AcDbSpline
 70
8
 71
3
 72
8
 73
4
 74
0
 40
0
 40
0
 40
0
 40
0
 40
1
 40
1
 40
1
 40
1
 10
64.661151
 20
163.301780
 30
0.0
 10
64.661151
 20
163.346280
 30
0.0
 10
64.604001
 20
163.382580
 30
0.0
 10
64.534151
 20
163.382580
 30
0.0
  0
SPLINE
  5
180
100
AcDbEntity
  8
Layer_2
 62
7
100
AcDbSpline
 70
8
 71
3
 72
8
 73
4
 74
0
 40
0
 40
0
 40
0
 40
0
 40
1
 40
1
 40
1
 40
1
 10
64.534151
 20
163.382580
 30
0.0
 10
64.464301
 20
163.382580
 30
0.0
 10
64.407151
 20
163.418080
 30
0.0
 10
64.407151
 20
163.461580
 30
0.0
  0
SPLINE
  5
181
100
AcDbEntity
  8
Layer_2
 62
7
100
AcDbSpline
 70
8
 71
3
 72
8
 73
4
 74
0
 40
0
 40
0
 40
0
 40
0
 40
1
 40
1
 40
1
 40
1
 10
64.407151
 20
163.461580
 30
0.0
 10
64.407151
 20
163.504980
 30
0.0
 10
64.324531
 20
163.566760
 30
0.0
 10
64.223553
 20
163.598810
 30
0.0
  0
SPLINE
  5
182
100
AcDbEntity
  8
Layer_2
 62
7
100
AcDbSpline
 70
8
 71
3
 72
8
 73
4
 74
0
 40
0
 40
0
 40
0
 40
0
 40
1
 40
1
 40
1
 40
1
 10
64.223553
 20
163.598810
 30
0.0
 10
63.987955
 20
163.673610
 30
0.0
 10
63.259751
 20
164.399720
 30
0.0
 10
63.185386
 20
164.634020
 30
0.0
  0
SPLINE
  5
183
100
AcDbEntity
  8
Layer_2
 62
7
100
AcDbSpline
 70
8
 71
3
 72
8
 73
4
 74
0
 40
0
 40
0
 40
0
 40
0
 40
1
 40
1
 40
1
 40
1
 10
63.185386
 20
164.634020
 30
0.0
 10
63.154096
 20
164.732620
 30
0.0
 10
63.054326
 20
164.836830
 30
0.0
 10
62.963683
 20
164.865600
 30
0.0
  0
SPLINE
  5
184
100
AcDbEntity
  8
Layer_2
 62
7
100
AcDbSpline
 70
8
 71
3
 72
8
 73
4
 74
0
 40
0
 40
0
 40
0
 40
0
 40
1
 40
1
 40
1
 40
1
 10
62.963683
 20
164.865600
 30
0.0
 10
62.873043
 20
164.894400
 30
0.0
 10
62.775608
 20
165.010610
 30
0.0
 10
62.747169
 20
165.123930
 30
0.0
  0
SPLINE
  5
185
100
AcDbEntity
  8
Layer_2
 62
7
100
AcDbSpline
 70
8
 71
3
 72
8
 73
4
 74
0
 40
0
 40
0
 40
0
 40
0
 40
1
 40
1
 40
1
 40
1
 10
62.747169
 20
165.123930
 30
0.0
 10
62.718729
 20
165.237240
 30
0.0
 10
62.661489
 20
165.329950
 30
0.0
 10
62.619972
 20
165.329950
 30
0.0
  0
SPLINE
  5
186
100
AcDbEntity
  8
Layer_2
 62
7
100
AcDbSpline
 70
8
 71
3
 72
8
 73
4
 74
0
 40
0
 40
0
 40
0
 40
0
 40
1
 40
1
 40
1
 40
1
 10
62.619972
 20
165.329950
 30
0.0
 10
62.578452
 20
165.329950
 30
0.0
 10
62.544482
 20
165.406150
 30
0.0
 10
62.544482
 20
165.499280
 30
0.0
  0
SPLINE
  5
187
100
AcDbEntity
  8
Layer_2
 62
7
100
AcDbSpline
 70
8
 71
3
 72
8
 73
4
 74
0
 40
0
 40
0
 40
0
 40
0
 40
1
 40
1
 40
1
 40
1
 10
62.544482
 20
165.499280
 30
0.0
 10
62.544482
 20
165.592380
 30
0.0
 10
62.506382
 20
165.668620
 30
0.0
 10
62.459812
 20
165.668620
 30
0.0
  0
SPLINE
  5
188
100
AcDbEntity
  8
Layer_2
 62
7
100
AcDbSpline
 70
8
 71
3
 72
8
 73
4
 74
0
 40
0
 40
0
 40
0
 40
0
 40
1
 40
1
 40
1
 40
1
 10
62.459812
 20
165.668620
 30
0.0
 10
62.413242
 20
165.668620
 30
0.0
 10
62.375142
 20
165.723020
 30
0.0
 10
62.375142
 20
165.789570
 30
0.0
  0
SPLINE
  5
189
100
AcDbEntity
  8
Layer_2
 62
7
100
AcDbSpline
 70
8
 71
3
 72
8
 73
4
 74
0
 40
0
 40
0
 40
0
 40
0
 40
1
 40
1
 40
1
 40
1
 10
62.375142
 20
165.789570
 30
0.0
 10
62.375142
 20
165.856070
 30
0.0
 10
62.323842
 20
165.961820
 30
0.0
 10
62.261137
 20
166.024530
 30
0.0
  0
SPLINE
  5
18a
100
AcDbEntity
  8
Layer_2
 62
7
100
AcDbSpline
 70
8
 71
3
 72
8
 73
4
 74
0
 40
0
 40
0
 40
0
 40
0
 40
1
 40
1
 40
1
 40
1
 10
62.261137
 20
166.024530
 30
0.0
 10
62.198437
 20
166.087230
 30
0.0
 10
62.120508
 20
166.280450
 30
0.0
 10
62.087967
 20
166.453910
 30
0.0
  0
SPLINE
  5
18b
100
AcDbEntity
  8
Layer_2
 62
7
100
AcDbSpline
 70
8
 71
3
 72
8
 73
4
 74
0
 40
0
 40
0
 40
0
 40
0
 40
1
 40
1
 40
1
 40
1
 10
62.087967
 20
166.453910
 30
0.0
 10
62.055427
 20
166.627370
 30
0.0
 10
61.992427
 20
166.769280
 30
0.0
 10
61.947972
 20
166.769280
 30
0.0
  0
SPLINE
  5
18c
100
AcDbEntity
  8
Layer_2
 62
7
100
AcDbSpline
 70
8
 71
3
 72
8
 73
4
 74
0
 40
0
 40
0
 40
0
 40
0
 40
1
 40
1
 40
1
 40
1
 10
61.947972
 20
166.769280
 30
0.0
 10
61.903512
 20
166.769280
 30
0.0
 10
61.867142
 20
166.864480
 30
0.0
 10
61.867142
 20
166.980950
 30
0.0
  0
SPLINE
  5
18d
100
AcDbEntity
  8
Layer_2
 62
7
100
AcDbSpline
 70
8
 71
3
 72
8
 73
4
 74
0
 40
0
 40
0
 40
0
 40
0
 40
1
 40
1
 40
1
 40
1
 10
61.867142
 20
166.980950
 30
0.0
 10
61.867142
 20
167.097370
 30
0.0
 10
61.832612
 20
167.192620
 30
0.0
 10
61.790422
 20
167.192620
 30
0.0
  0
SPLINE
  5
18e
100
AcDbEntity
  8
Layer_2
 62
7
100
AcDbSpline
 70
8
 71
3
 72
8
 73
4
 74
0
 40
0
 40
0
 40
0
 40
0
 40
1
 40
1
 40
1
 40
1
 10
61.790422
 20
167.192620
 30
0.0
 10
61.748222
 20
167.192620
 30
0.0
 10
61.687499
 20
167.383120
 30
0.0
 10
61.655477
 20
167.615950
 30
0.0
  0
SPLINE
  5
18f
100
AcDbEntity
  8
Layer_2
 62
7
100
AcDbSpline
 70
8
 71
3
 72
8
 73
4
 74
0
 40
0
 40
0
 40
0
 40
0
 40
1
 40
1
 40
1
 40
1
 10
61.655477
 20
167.615950
 30
0.0
 10
61.623457
 20
167.848780
 30
0.0
 10
61.562727
 20
168.039280
 30
0.0
 10
61.520532
 20
168.039280
 30
0.0
  0
SPLINE
  5
190
100
AcDbEntity
  8
Layer_2
 62
7
100
AcDbSpline
 70
8
 71
3
 72
8
 73
4
 74
0
 40
0
 40
0
 40
0
 40
0
 40
1
 40
1
 40
1
 40
1
 10
61.520532
 20
168.039280
 30
0.0
 10
61.478332
 20
168.039280
 30
0.0
 10
61.443812
 20
168.150410
 30
0.0
 10
61.443812
 20
168.286230
 30
0.0
  0
SPLINE
  5
191
100
AcDbEntity
  8
Layer_2
 62
7
100
AcDbSpline
 70
8
 71
3
 72
8
 73
4
 74
0
 40
0
 40
0
 40
0
 40
0
 40
1
 40
1
 40
1
 40
1
 10
61.443812
 20
168.286230
 30
0.0
 10
61.443812
 20
168.422050
 30
0.0
 10
61.396182
 20
168.549040
 30
0.0
 10
61.337979
 20
168.568440
 30
0.0
  0
SPLINE
  5
192
100
AcDbEntity
  8
Layer_2
 62
7
100
AcDbSpline
 70
8
 71
3
 72
8
 73
4
 74
0
 40
0
 40
0
 40
0
 40
0
 40
1
 40
1
 40
1
 40
1
 10
61.337979
 20
168.568440
 30
0.0
 10
61.184334
 20
168.619640
 30
0.0
 10
61.184334
 20
173.131490
 30
0.0
 10
61.337979
 20
173.182750
 30
0.0
  0
SPLINE
  5
193
100
AcDbEntity
  8
Layer_2
 62
7
100
AcDbSpline
 70
8
 71
3
 72
8
 73
4
 74
0
 40
0
 40
0
 40
0
 40
0
 40
1
 40
1
 40
1
 40
1
 10
61.337979
 20
173.182750
 30
0.0
 10
61.396189
 20
173.202150
 30
0.0
 10
61.443812
 20
173.348240
 30
0.0
 10
61.443812
 20
173.507340
 30
0.0
  0
SPLINE
  5
194
100
AcDbEntity
  8
Layer_2
 62
7
100
AcDbSpline
 70
8
 71
3
 72
8
 73
4
 74
0
 40
0
 40
0
 40
0
 40
0
 40
1
 40
1
 40
1
 40
1
 10
61.443812
 20
173.507340
 30
0.0
 10
61.443812
 20
173.666440
 30
0.0
 10
61.478332
 20
173.796620
 30
0.0
 10
61.520532
 20
173.796620
 30
0.0
  0
SPLINE
  5
195
100
AcDbEntity
  8
Layer_2
 62
7
100
AcDbSpline
 70
8
 71
3
 72
8
 73
4
 74
0
 40
0
 40
0
 40
0
 40
0
 40
1
 40
1
 40
1
 40
1
 10
61.520532
 20
173.796620
 30
0.0
 10
61.562732
 20
173.796620
 30
0.0
 10
61.623454
 20
173.987120
 30
0.0
 10
61.655477
 20
174.219950
 30
0.0
  0
SPLINE
  5
196
100
AcDbEntity
  8
Layer_2
 62
7
100
AcDbSpline
 70
8
 71
3
 72
8
 73
4
 74
0
 40
0
 40
0
 40
0
 40
0
 40
1
 40
1
 40
1
 40
1
 10
61.655477
 20
174.219950
 30
0.0
 10
61.687497
 20
174.452780
 30
0.0
 10
61.748227
 20
174.643280
 30
0.0
 10
61.790422
 20
174.643280
 30
0.0
  0
SPLINE
  5
197
100
AcDbEntity
  8
Layer_2
 62
7
100
AcDbSpline
 70
8
 71
3
 72
8
 73
4
 74
0
 40
0
 40
0
 40
0
 40
0
 40
1
 40
1
 40
1
 40
1
 10
61.790422
 20
174.643280
 30
0.0
 10
61.832622
 20
174.643280
 30
0.0
 10
61.867142
 20
174.700380
 30
0.0
 10
61.867142
 20
174.770280
 30
0.0
  0
SPLINE
  5
198
100
AcDbEntity
  8
Layer_2
 62
7
100
AcDbSpline
 70
8
 71
3
 72
8
 73
4
 74
0
 40
0
 40
0
 40
0
 40
0
 40
1
 40
1
 40
1
 40
1
 10
61.867142
 20
174.770280
 30
0.0
 10
61.867142
 20
174.840180
 30
0.0
 10
61.905242
 20
174.897280
 30
0.0
 10
61.951812
 20
174.897280
 30
0.0
  0
SPLINE
  5
199
100
AcDbEntity
  8
Layer_2
 62
7
100
AcDbSpline
 70
8
 71
3
 72
8
 73
4
 74
0
 40
0
 40
0
 40
0
 40
0
 40
1
 40
1
 40
1
 40
1
 10
61.951812
 20
174.897280
 30
0.0
 10
61.998382
 20
174.897280
 30
0.0
 10
62.036482
 20
174.951680
 30
0.0
 10
62.036482
 20
175.018240
 30
0.0
  0
SPLINE
  5
19a
100
AcDbEntity
  8
Layer_2
 62
7
100
AcDbSpline
 70
8
 71
3
 72
8
 73
4
 74
0
 40
0
 40
0
 40
0
 40
0
 40
1
 40
1
 40
1
 40
1
 10
62.036482
 20
175.018240
 30
0.0
 10
62.036482
 20
175.084740
 30
0.0
 10
62.088602
 20
175.191310
 30
0.0
 10
62.152312
 20
175.255020
 30
0.0
  0
SPLINE
  5
19b
100
AcDbEntity
  8
Layer_2
 62
7
100
AcDbSpline
 70
8
 71
3
 72
8
 73
4
 74
0
 40
0
 40
0
 40
0
 40
0
 40
1
 40
1
 40
1
 40
1
 10
62.152312
 20
175.255020
 30
0.0
 10
62.216022
 20
175.318720
 30
0.0
 10
62.294785
 20
175.454800
 30
0.0
 10
62.327351
 20
175.557400
 30
0.0
  0
SPLINE
  5
19c
100
AcDbEntity
  8
Layer_2
 62
7
100
AcDbSpline
 70
8
 71
3
 72
8
 73
4
 74
0
 40
0
 40
0
 40
0
 40
0
 40
1
 40
1
 40
1
 40
1
 10
62.327351
 20
175.557400
 30
0.0
 10
62.359911
 20
175.660000
 30
0.0
 10
62.422091
 20
175.743950
 30
0.0
 10
62.465521
 20
175.743950
 30
0.0
  0
SPLINE
  5
19d
100
AcDbEntity
  8
Layer_2
 62
7
100
AcDbSpline
 70
8
 71
3
 72
8
 73
4
 74
0
 40
0
 40
0
 40
0
 40
0
 40
1
 40
1
 40
1
 40
1
 10
62.465521
 20
175.743950
 30
0.0
 10
62.508951
 20
175.743950
 30
0.0
 10
62.544481
 20
175.801150
 30
0.0
 10
62.544481
 20
175.870950
 30
0.0
  0
SPLINE
  5
19e
100
AcDbEntity
  8
Layer_2
 62
7
100
AcDbSpline
 70
8
 71
3
 72
8
 73
4
 74
0
 40
0
 40
0
 40
0
 40
0
 40
1
 40
1
 40
1
 40
1
 10
62.544481
 20
175.870950
 30
0.0
 10
62.544481
 20
175.940750
 30
0.0
 10
62.580011
 20
175.997950
 30
0.0
 10
62.623441
 20
175.997950
 30
0.0
  0
SPLINE
  5
19f
100
AcDbEntity
  8
Layer_2
 62
7
100
AcDbSpline
 70
8
 71
3
 72
8
 73
4
 74
0
 40
0
 40
0
 40
0
 40
0
 40
1
 40
1
 40
1
 40
1
 10
62.623441
 20
175.997950
 30
0.0
 10
62.666871
 20
175.997950
 30
0.0
 10
62.725969
 20
176.072150
 30
0.0
 10
62.754771
 20
176.162950
 30
0.0
  0
SPLINE
  5
1a0
100
AcDbEntity
  8
Layer_2
 62
7
100
AcDbSpline
 70
8
 71
3
 72
8
 73
4
 74
0
 40
0
 40
0
 40
0
 40
0
 40
1
 40
1
 40
1
 40
1
 10
62.754771
 20
176.162950
 30
0.0
 10
62.783571
 20
176.253750
 30
0.0
 10
62.887691
 20
176.353520
 30
0.0
 10
62.986140
 20
176.384770
 30
0.0
  0
SPLINE
  5
1a1
100
AcDbEntity
  8
Layer_2
 62
7
100
AcDbSpline
 70
8
 71
3
 72
8
 73
4
 74
0
 40
0
 40
0
 40
0
 40
0
 40
1
 40
1
 40
1
 40
1
 10
62.986140
 20
176.384770
 30
0.0
 10
63.084590
 20
176.415970
 30
0.0
 10
63.255822
 20
176.532260
 30
0.0
 10
63.366657
 20
176.643100
 30
0.0
  0
SPLINE
  5
1a2
100
AcDbEntity
  8
Layer_2
 62
7
100
AcDbSpline
 70
8
 71
3
 72
8
 73
4
 74
0
 40
0
 40
0
 40
0
 40
0
 40
1
 40
1
 40
1
 40
1
 10
63.366657
 20
176.643100
 30
0.0
 10
63.477493
 20
176.753930
 30
0.0
 10
63.623595
 20
176.844620
 30
0.0
 10
63.691328
 20
176.844620
 30
0.0
  0
SPLINE
  5
1a3
100
AcDbEntity
  8
Layer_2
 62
7
100
AcDbSpline
 70
8
 71
3
 72
8
 73
4
 74
0
 40
0
 40
0
 40
0
 40
0
 40
1
 40
1
 40
1
 40
1
 10
63.691328
 20
176.844620
 30
0.0
 10
63.759058
 20
176.844620
 30
0.0
 10
63.814480
 20
176.920820
 30
0.0
 10
63.814480
 20
177.013950
 30
0.0
  0
SPLINE
  5
1a4
100
AcDbEntity
  8
Layer_2
 62
7
100
AcDbSpline
 70
8
 71
3
 72
8
 73
4
 74
0
 40
0
 40
0
 40
0
 40
0
 40
1
 40
1
 40
1
 40
1
 10
63.814480
 20
177.013950
 30
0.0
 10
63.814480
 20
177.107050
 30
0.0
 10
63.779410
 20
177.183290
 30
0.0
 10
63.736540
 20
177.183290
 30
0.0
  0
SPLINE
  5
1a5
100
AcDbEntity
  8
Layer_2
 62
7
100
AcDbSpline
 70
8
 71
3
 72
8
 73
4
 74
0
 40
0
 40
0
 40
0
 40
0
 40
1
 40
1
 40
1
 40
1
 10
63.736540
 20
177.183290
 30
0.0
 10
63.693670
 20
177.183290
 30
0.0
 10
63.633495
 20
177.297590
 30
0.0
 10
63.602812
 20
177.437290
 30
0.0
  0
SPLINE
  5
1a6
100
AcDbEntity
  8
Layer_2
 62
7
100
AcDbSpline
 70
8
 71
3
 72
8
 73
4
 74
0
 40
0
 40
0
 40
0
 40
0
 40
1
 40
1
 40
1
 40
1
 10
63.602812
 20
177.437290
 30
0.0
 10
63.572132
 20
177.576990
 30
0.0
 10
63.511952
 20
177.691290
 30
0.0
 10
63.469084
 20
177.691290
 30
0.0
  0
SPLINE
  5
1a7
100
AcDbEntity
  8
Layer_2
 62
7
100
AcDbSpline
 70
8
 71
3
 72
8
 73
4
 74
0
 40
0
 40
0
 40
0
 40
0
 40
1
 40
1
 40
1
 40
1
 10
63.469084
 20
177.691290
 30
0.0
 10
63.426214
 20
177.691290
 30
0.0
 10
63.391144
 20
177.748490
 30
0.0
 10
63.391144
 20
177.818290
 30
0.0
  0
SPLINE
  5
1a8
100
AcDbEntity
  8
Layer_2
 62
7
100
AcDbSpline
 70
8
 71
3
 72
8
 73
4
 74
0
 40
0
 40
0
 40
0
 40
0
 40
1
 40
1
 40
1
 40
1
 10
63.391144
 20
177.818290
 30
0.0
 10
63.391144
 20
177.888190
 30
0.0
 10
63.357374
 20
177.945290
 30
0.0
 10
63.316094
 20
177.945290
 30
0.0
  0
SPLINE
  5
1a9
100
AcDbEntity
  8
Layer_2
 62
7
100
AcDbSpline
 70
8
 71
3
 72
8
 73
4
 74
0
 40
0
 40
0
 40
0
 40
0
 40
1
 40
1
 40
1
 40
1
 10
63.316094
 20
177.945290
 30
0.0
 10
63.274814
 20
177.945290
 30
0.0
 10
63.215330
 20
178.116740
 30
0.0
 10
63.183906
 20
178.326290
 30
0.0
  0
SPLINE
  5
1aa
100
AcDbEntity
  8
Layer_2
 62
7
100
AcDbSpline
 70
8
 71
3
 72
8
 73
4
 74
0
 40
0
 40
0
 40
0
 40
0
 40
1
 40
1
 40
1
 40
1
 10
63.183906
 20
178.326290
 30
0.0
 10
63.152486
 20
178.535840
 30
0.0
 10
63.091006
 20
178.707290
 30
0.0
 10
63.047293
 20
178.707290
 30
0.0
  0
SPLINE
  5
1ab
100
AcDbEntity
  8
Layer_2
 62
7
100
AcDbSpline
 70
8
 71
3
 72
8
 73
4
 74
0
 40
0
 40
0
 40
0
 40
0
 40
1
 40
1
 40
1
 40
1
 10
63.047293
 20
178.707290
 30
0.0
 10
63.003583
 20
178.707290
 30
0.0
 10
62.967813
 20
178.802590
 30
0.0
 10
62.967813
 20
178.918950
 30
0.0
  0
SPLINE
  5
1ac
100
AcDbEntity
  8
Layer_2
 62
7
100
AcDbSpline
 70
8
 71
3
 72
8
 73
4
 74
0
 40
0
 40
0
 40
0
 40
0
 40
1
 40
1
 40
1
 40
1
 10
62.967813
 20
178.918950
 30
0.0
 10
62.967813
 20
179.035370
 30
0.0
 10
62.930163
 20
179.130620
 30
0.0
 10
62.884143
 20
179.130620
 30
0.0
  0
SPLINE
  5
1ad
100
AcDbEntity
  8
Layer_2
 62
7
100
AcDbSpline
 70
8
 71
3
 72
8
 73
4
 74
0
 40
0
 40
0
 40
0
 40
0
 40
1
 40
1
 40
1
 40
1
 10
62.884143
 20
179.130620
 30
0.0
 10
62.838123
 20
179.130620
 30
0.0
 10
62.776107
 20
179.283020
 30
0.0
 10
62.746322
 20
179.469290
 30
0.0
  0
SPLINE
  5
1ae
100
AcDbEntity
  8
Layer_2
 62
7
100
AcDbSpline
 70
8
 71
3
 72
8
 73
4
 74
0
 40
0
 40
0
 40
0
 40
0
 40
1
 40
1
 40
1
 40
1
 10
62.746322
 20
179.469290
 30
0.0
 10
62.716542
 20
179.655550
 30
0.0
 10
62.658942
 20
179.807950
 30
0.0
 10
62.618321
 20
179.807950
 30
0.0
  0
SPLINE
  5
1af
100
AcDbEntity
  8
Layer_2
 62
7
100
AcDbSpline
 70
8
 71
3
 72
8
 73
4
 74
0
 40
0
 40
0
 40
0
 40
0
 40
1
 40
1
 40
1
 40
1
 10
62.618321
 20
179.807950
 30
0.0
 10
62.577701
 20
179.807950
 30
0.0
 10
62.544481
 20
179.938130
 30
0.0
 10
62.544481
 20
180.097230
 30
0.0
  0
SPLINE
  5
1b0
100
AcDbEntity
  8
Layer_2
 62
7
100
AcDbSpline
 70
8
 71
3
 72
8
 73
4
 74
0
 40
0
 40
0
 40
0
 40
0
 40
1
 40
1
 40
1
 40
1
 10
62.544481
 20
180.097230
 30
0.0
 10
62.544481
 20
180.256330
 30
0.0
 10
62.507701
 20
180.399210
 30
0.0
 10
62.462741
 20
180.414730
 30
0.0
  0
SPLINE
  5
1b1
100
AcDbEntity
  8
Layer_2
 62
7
100
AcDbSpline
 70
8
 71
3
 72
8
 73
4
 74
0
 40
0
 40
0
 40
0
 40
0
 40
1
 40
1
 40
1
 40
1
 10
62.462741
 20
180.414730
 30
0.0
 10
62.417781
 20
180.430230
 30
0.0
 10
62.354868
 20
180.671550
 30
0.0
 10
62.322923
 20
180.950950
 30
0.0
  0
SPLINE
  5
1b2
100
AcDbEntity
  8
Layer_2
 62
7
100
AcDbSpline
 70
8
 71
3
 72
8
 73
4
 74
0
 40
0
 40
0
 40
0
 40
0
 40
1
 40
1
 40
1
 40
1
 10
62.322923
 20
180.950950
 30
0.0
 10
62.290973
 20
181.230350
 30
0.0
 10
62.233843
 20
181.479420
 30
0.0
 10
62.195968
 20
181.504440
 30
0.0
  0
SPLINE
  5
1b3
100
AcDbEntity
  8
Layer_2
 62
7
100
AcDbSpline
 70
8
 71
3
 72
8
 73
4
 74
0
 40
0
 40
0
 40
0
 40
0
 40
1
 40
1
 40
1
 40
1
 10
62.195968
 20
181.504440
 30
0.0
 10
62.158088
 20
181.529440
 30
0.0
 10
62.101078
 20
181.919990
 30
0.0
 10
62.069289
 20
182.372280
 30
0.0
  0
SPLINE
  5
1b4
100
AcDbEntity
  8
Layer_2
 62
7
100
AcDbSpline
 70
8
 71
3
 72
8
 73
4
 74
0
 40
0
 40
0
 40
0
 40
0
 40
1
 40
1
 40
1
 40
1
 10
62.069289
 20
182.372280
 30
0.0
 10
62.037499
 20
182.824570
 30
0.0
 10
61.979009
 20
183.194620
 30
0.0
 10
61.939314
 20
183.194620
 30
0.0
  0
SPLINE
  5
1b5
100
AcDbEntity
  8
Layer_2
 62
7
100
AcDbSpline
 70
8
 71
3
 72
8
 73
4
 74
0
 40
0
 40
0
 40
0
 40
0
 40
1
 40
1
 40
1
 40
1
 10
61.939314
 20
183.194620
 30
0.0
 10
61.899624
 20
183.194620
 30
0.0
 10
61.867144
 20
184.070920
 30
0.0
 10
61.867144
 20
185.141950
 30
0.0
  0
SPLINE
  5
1b6
100
AcDbEntity
  8
Layer_2
 62
7
100
AcDbSpline
 70
8
 71
3
 72
8
 73
4
 74
0
 40
0
 40
0
 40
0
 40
0
 40
1
 40
1
 40
1
 40
1
 10
61.867144
 20
185.141950
 30
0.0
 10
61.867144
 20
186.212990
 30
0.0
 10
61.900344
 20
187.089290
 30
0.0
 10
61.940914
 20
187.089290
 30
0.0
  0
SPLINE
  5
1b7
100
AcDbEntity
  8
Layer_2
 62
7
100
AcDbSpline
 70
8
 71
3
 72
8
 73
4
 74
0
 40
0
 40
0
 40
0
 40
0
 40
1
 40
1
 40
1
 40
1
 10
61.940914
 20
187.089290
 30
0.0
 10
61.981494
 20
187.089290
 30
0.0
 10
62.041852
 20
187.508390
 30
0.0
 10
62.075050
 20
188.020620
 30
0.0
  0
SPLINE
  5
1b8
100
AcDbEntity
  8
Layer_2
 62
7
100
AcDbSpline
 70
8
 71
3
 72
8
 73
4
 74
0
 40
0
 40
0
 40
0
 40
0
 40
1
 40
1
 40
1
 40
1
 10
62.075050
 20
188.020620
 30
0.0
 10
62.108250
 20
188.532850
 30
0.0
 10
62.165830
 20
188.951950
 30
0.0
 10
62.202996
 20
188.951950
 30
0.0
  0
SPLINE
  5
1b9
100
AcDbEntity
  8
Layer_2
 62
7
100
AcDbSpline
 70
8
 71
3
 72
8
 73
4
 74
0
 40
0
 40
0
 40
0
 40
0
 40
1
 40
1
 40
1
 40
1
 10
62.202996
 20
188.951950
 30
0.0
 10
62.240166
 20
188.951950
 30
0.0
 10
62.297356
 20
189.237700
 30
0.0
 10
62.330083
 20
189.586950
 30
0.0
  0
SPLINE
  5
1ba
100
AcDbEntity
  8
Layer_2
 62
7
100
AcDbSpline
 70
8
 71
3
 72
8
 73
4
 74
0
 40
0
 40
0
 40
0
 40
0
 40
1
 40
1
 40
1
 40
1
 10
62.330083
 20
189.586950
 30
0.0
 10
62.362813
 20
189.936200
 30
0.0
 10
62.424433
 20
190.221950
 30
0.0
 10
62.467031
 20
190.221950
 30
0.0
  0
SPLINE
  5
1bb
100
AcDbEntity
  8
Layer_2
 62
7
100
AcDbSpline
 70
8
 71
3
 72
8
 73
4
 74
0
 40
0
 40
0
 40
0
 40
0
 40
1
 40
1
 40
1
 40
1
 10
62.467031
 20
190.221950
 30
0.0
 10
62.509621
 20
190.221950
 30
0.0
 10
62.544471
 20
190.336250
 30
0.0
 10
62.544471
 20
190.475950
 30
0.0
  0
SPLINE
  5
1bc
100
AcDbEntity
  8
Layer_2
 62
7
100
AcDbSpline
 70
8
 71
3
 72
8
 73
4
 74
0
 40
0
 40
0
 40
0
 40
0
 40
1
 40
1
 40
1
 40
1
 10
62.544471
 20
190.475950
 30
0.0
 10
62.544471
 20
190.615650
 30
0.0
 10
62.578991
 20
190.729950
 30
0.0
 10
62.621191
 20
190.729950
 30
0.0
  0
SPLINE
  5
1bd
100
AcDbEntity
  8
Layer_2
 62
7
100
AcDbSpline
 70
8
 71
3
 72
8
 73
4
 74
0
 40
0
 40
0
 40
0
 40
0
 40
1
 40
1
 40
1
 40
1
 10
62.621191
 20
190.729950
 30
0.0
 10
62.663391
 20
190.729950
 30
0.0
 10
62.724114
 20
190.920450
 30
0.0
 10
62.756136
 20
191.153290
 30
0.0
  0
SPLINE
  5
1be
100
AcDbEntity
  8
Layer_2
 62
7
100
AcDbSpline
 70
8
 71
3
 72
8
 73
4
 74
0
 40
0
 40
0
 40
0
 40
0
 40
1
 40
1
 40
1
 40
1
 10
62.756136
 20
191.153290
 30
0.0
 10
62.788156
 20
191.386120
 30
0.0
 10
62.848886
 20
191.576620
 30
0.0
 10
62.891082
 20
191.576620
 30
0.0
  0
SPLINE
  5
1bf
100
AcDbEntity
  8
Layer_2
 62
7
100
AcDbSpline
 70
8
 71
3
 72
8
 73
4
 74
0
 40
0
 40
0
 40
0
 40
0
 40
1
 40
1
 40
1
 40
1
 10
62.891082
 20
191.576620
 30
0.0
 10
62.933282
 20
191.576620
 30
0.0
 10
62.967802
 20
191.671820
 30
0.0
 10
62.967802
 20
191.788290
 30
0.0
  0
SPLINE
  5
1c0
100
AcDbEntity
  8
Layer_2
 62
7
100
AcDbSpline
 70
8
 71
3
 72
8
 73
4
 74
0
 40
0
 40
0
 40
0
 40
0
 40
1
 40
1
 40
1
 40
1
 10
62.967802
 20
191.788290
 30
0.0
 10
62.967802
 20
191.904700
 30
0.0
 10
63.002322
 20
191.999950
 30
0.0
 10
63.044522
 20
191.999950
 30
0.0
  0
SPLINE
  5
1c1
100
AcDbEntity
  8
Layer_2
 62
7
100
AcDbSpline
 70
8
 71
3
 72
8
 73
4
 74
0
 40
0
 40
0
 40
0
 40
0
 40
1
 40
1
 40
1
 40
1
 10
63.044522
 20
191.999950
 30
0.0
 10
63.086722
 20
191.999950
 30
0.0
 10
63.147444
 20
192.190450
 30
0.0
 10
63.179467
 20
192.423290
 30
0.0
  0
SPLINE
  5
1c2
100
AcDbEntity
  8
Layer_2
 62
7
100
AcDbSpline
 70
8
 71
3
 72
8
 73
4
 74
0
 40
0
 40
0
 40
0
 40
0
 40
1
 40
1
 40
1
 40
1
 10
63.179467
 20
192.423290
 30
0.0
 10
63.211487
 20
192.656120
 30
0.0
 10
63.272217
 20
192.846620
 30
0.0
 10
63.314412
 20
192.846620
 30
0.0
  0
SPLINE
  5
1c3
100
AcDbEntity
  8
Layer_2
 62
7
100
AcDbSpline
 70
8
 71
3
 72
8
 73
4
 74
0
 40
0
 40
0
 40
0
 40
0
 40
1
 40
1
 40
1
 40
1
 10
63.314412
 20
192.846620
 30
0.0
 10
63.356612
 20
192.846620
 30
0.0
 10
63.391132
 20
192.922820
 30
0.0
 10
63.391132
 20
193.015950
 30
0.0
  0
SPLINE
  5
1c4
100
AcDbEntity
  8
Layer_2
 62
7
100
AcDbSpline
 70
8
 71
3
 72
8
 73
4
 74
0
 40
0
 40
0
 40
0
 40
0
 40
1
 40
1
 40
1
 40
1
 10
63.391132
 20
193.015950
 30
0.0
 10
63.391132
 20
193.109050
 30
0.0
 10
63.426202
 20
193.185290
 30
0.0
 10
63.469072
 20
193.185290
 30
0.0
  0
SPLINE
  5
1c5
100
AcDbEntity
  8
Layer_2
 62
7
100
AcDbSpline
 70
8
 71
3
 72
8
 73
4
 74
0
 40
0
 40
0
 40
0
 40
0
 40
1
 40
1
 40
1
 40
1
 10
63.469072
 20
193.185290
 30
0.0
 10
63.511942
 20
193.185290
 30
0.0
 10
63.572117
 20
193.299590
 30
0.0
 10
63.602800
 20
193.439290
 30
0.0
  0
SPLINE
  5
1c6
100
AcDbEntity
  8
Layer_2
 62
7
100
AcDbSpline
 70
8
 71
3
 72
8
 73
4
 74
0
 40
0
 40
0
 40
0
 40
0
 40
1
 40
1
 40
1
 40
1
 10
63.602800
 20
193.439290
 30
0.0
 10
63.633480
 20
193.578990
 30
0.0
 10
63.693660
 20
193.693290
 30
0.0
 10
63.736528
 20
193.693290
 30
0.0
  0
SPLINE
  5
1c7
100
AcDbEntity
  8
Layer_2
 62
7
100
AcDbSpline
 70
8
 71
3
 72
8
 73
4
 74
0
 40
0
 40
0
 40
0
 40
0
 40
1
 40
1
 40
1
 40
1
 10
63.736528
 20
193.693290
 30
0.0
 10
63.779398
 20
193.693290
 30
0.0
 10
63.814468
 20
193.788490
 30
0.0
 10
63.814468
 20
193.904950
 30
0.0
  0
SPLINE
  5
1c8
100
AcDbEntity
  8
Layer_2
 62
7
100
AcDbSpline
 70
8
 71
3
 72
8
 73
4
 74
0
 40
0
 40
0
 40
0
 40
0
 40
1
 40
1
 40
1
 40
1
 10
63.814468
 20
193.904950
 30
0.0
 10
63.814468
 20
194.021370
 30
0.0
 10
63.850838
 20
194.116620
 30
0.0
 10
63.895298
 20
194.116620
 30
0.0
  0
SPLINE
  5
1c9
100
AcDbEntity
  8
Layer_2
 62
7
100
AcDbSpline
 70
8
 71
3
 72
8
 73
4
 74
0
 40
0
 40
0
 40
0
 40
0
 40
1
 40
1
 40
1
 40
1
 10
63.895298
 20
194.116620
 30
0.0
 10
63.939758
 20
194.116620
 30
0.0
 10
64.001145
 20
194.249970
 30
0.0
 10
64.031721
 20
194.412950
 30
0.0
  0
SPLINE
  5
1ca
100
AcDbEntity
  8
Layer_2
 62
7
100
AcDbSpline
 70
8
 71
3
 72
8
 73
4
 74
0
 40
0
 40
0
 40
0
 40
0
 40
1
 40
1
 40
1
 40
1
 10
64.031721
 20
194.412950
 30
0.0
 10
64.062291
 20
194.575940
 30
0.0
 10
64.121171
 20
194.709290
 30
0.0
 10
64.162557
 20
194.709290
 30
0.0
  0
SPLINE
  5
1cb
100
AcDbEntity
  8
Layer_2
 62
7
100
AcDbSpline
 70
8
 71
3
 72
8
 73
4
 74
0
 40
0
 40
0
 40
0
 40
0
 40
1
 40
1
 40
1
 40
1
 10
64.162557
 20
194.709290
 30
0.0
 10
64.203937
 20
194.709290
 30
0.0
 10
64.237797
 20
194.766490
 30
0.0
 10
64.237797
 20
194.836290
 30
0.0
  0
SPLINE
  5
1cc
100
AcDbEntity
  8
Layer_2
 62
7
100
AcDbSpline
 70
8
 71
3
 72
8
 73
4
 74
0
 40
0
 40
0
 40
0
 40
0
 40
1
 40
1
 40
1
 40
1
 10
64.237797
 20
194.836290
 30
0.0
 10
64.237797
 20
194.906190
 30
0.0
 10
64.274167
 20
194.963290
 30
0.0
 10
64.318627
 20
194.963290
 30
0.0
  0
SPLINE
  5
1cd
100
AcDbEntity
  8
Layer_2
 62
7
100
AcDbSpline
 70
8
 71
3
 72
8
 73
4
 74
0
 40
0
 40
0
 40
0
 40
0
 40
1
 40
1
 40
1
 40
1
 10
64.318627
 20
194.963290
 30
0.0
 10
64.363087
 20
194.963290
 30
0.0
 10
64.424474
 20
195.096640
 30
0.0
 10
64.455049
 20
195.259620
 30
0.0
  0
SPLINE
  5
1ce
100
AcDbEntity
  8
Layer_2
 62
7
100
AcDbSpline
 70
8
 71
3
 72
8
 73
4
 74
0
 40
0
 40
0
 40
0
 40
0
 40
1
 40
1
 40
1
 40
1
 10
64.455049
 20
195.259620
 30
0.0
 10
64.485629
 20
195.422600
 30
0.0
 10
64.544499
 20
195.555950
 30
0.0
 10
64.585885
 20
195.555950
 30
0.0
  0
SPLINE
  5
1cf
100
AcDbEntity
  8
Layer_2
 62
7
100
AcDbSpline
 70
8
 71
3
 72
8
 73
4
 74
0
 40
0
 40
0
 40
0
 40
0
 40
1
 40
1
 40
1
 40
1
 10
64.585885
 20
195.555950
 30
0.0
 10
64.627275
 20
195.555950
 30
0.0
 10
64.661135
 20
195.613150
 30
0.0
 10
64.661135
 20
195.682950
 30
0.0
  0
SPLINE
  5
1d0
100
AcDbEntity
  8
Layer_2
 62
7
100
AcDbSpline
 70
8
 71
3
 72
8
 73
4
 74
0
 40
0
 40
0
 40
0
 40
0
 40
1
 40
1
 40
1
 40
1
 10
64.661135
 20
195.682950
 30
0.0
 10
64.661135
 20
195.752850
 30
0.0
 10
64.696665
 20
195.809950
 30
0.0
 10
64.740095
 20
195.809950
 30
0.0
  0
SPLINE
  5
1d1
100
AcDbEntity
  8
Layer_2
 62
7
100
AcDbSpline
 70
8
 71
3
 72
8
 73
4
 74
0
 40
0
 40
0
 40
0
 40
0
 40
1
 40
1
 40
1
 40
1
 10
64.740095
 20
195.809950
 30
0.0
 10
64.783525
 20
195.809950
 30
0.0
 10
64.846123
 20
195.895650
 30
0.0
 10
64.879206
 20
196.000450
 30
0.0
  0
SPLINE
  5
1d2
100
AcDbEntity
  8
Layer_2
 62
7
100
AcDbSpline
 70
8
 71
3
 72
8
 73
4
 74
0
 40
0
 40
0
 40
0
 40
0
 40
1
 40
1
 40
1
 40
1
 10
64.879206
 20
196.000450
 30
0.0
 10
64.912286
 20
196.105230
 30
0.0
 10
65.004656
 20
196.248100
 30
0.0
 10
65.084467
 20
196.317950
 30
0.0
  0
SPLINE
  5
1d3
100
AcDbEntity
  8
Layer_2
 62
7
100
AcDbSpline
 70
8
 71
3
 72
8
 73
4
 74
0
 40
0
 40
0
 40
0
 40
0
 40
1
 40
1
 40
1
 40
1
 10
65.084467
 20
196.317950
 30
0.0
 10
65.164277
 20
196.387850
 30
0.0
 10
65.259528
 20
196.540200
 30
0.0
 10
65.296134
 20
196.656620
 30
0.0
  0
SPLINE
  5
1d4
100
AcDbEntity
  8
Layer_2
 62
7
100
AcDbSpline
 70
8
 71
3
 72
8
 73
4
 74
0
 40
0
 40
0
 40
0
 40
0
 40
1
 40
1
 40
1
 40
1
 10
65.296134
 20
196.656620
 30
0.0
 10
65.332744
 20
196.773040
 30
0.0
 10
65.427989
 20
196.925440
 30
0.0
 10
65.507800
 20
196.995290
 30
0.0
  0
SPLINE
  5
1d5
100
AcDbEntity
  8
Layer_2
 62
7
100
AcDbSpline
 70
8
 71
3
 72
8
 73
4
 74
0
 40
0
 40
0
 40
0
 40
0
 40
1
 40
1
 40
1
 40
1
 10
65.507800
 20
196.995290
 30
0.0
 10
65.587610
 20
197.065140
 30
0.0
 10
65.679978
 20
197.208012
 30
0.0
 10
65.713061
 20
197.312787
 30
0.0
  0
SPLINE
  5
1d6
100
AcDbEntity
  8
Layer_2
 62
7
100
AcDbSpline
 70
8
 71
3
 72
8
 73
4
 74
0
 40
0
 40
0
 40
0
 40
0
 40
1
 40
1
 40
1
 40
1
 10
65.713061
 20
197.312787
 30
0.0
 10
65.746141
 20
197.417562
 30
0.0
 10
65.808741
 20
197.503287
 30
0.0
 10
65.852173
 20
197.503287
 30
0.0
  0
SPLINE
  5
1d7
100
AcDbEntity
  8
Layer_2
 62
7
100
AcDbSpline
 70
8
 71
3
 72
8
 73
4
 74
0
 40
0
 40
0
 40
0
 40
0
 40
1
 40
1
 40
1
 40
1
 10
65.852173
 20
197.503287
 30
0.0
 10
65.895603
 20
197.503287
 30
0.0
 10
65.931133
 20
197.544107
 30
0.0
 10
65.931133
 20
197.593997
 30
0.0
  0
SPLINE
  5
1d8
100
AcDbEntity
  8
Layer_2
 62
7
100
AcDbSpline
 70
8
 71
3
 72
8
 73
4
 74
0
 40
0
 40
0
 40
0
 40
0
 40
1
 40
1
 40
1
 40
1
 10
65.931133
 20
197.593997
 30
0.0
 10
65.931133
 20
197.643887
 30
0.0
 10
65.978753
 20
197.737818
 30
0.0
 10
66.036966
 20
197.802725
 30
0.0
  0
SPLINE
  5
1d9
100
AcDbEntity
  8
Layer_2
 62
7
100
AcDbSpline
 70
8
 71
3
 72
8
 73
4
 74
0
 40
0
 40
0
 40
0
 40
0
 40
1
 40
1
 40
1
 40
1
 10
66.036966
 20
197.802725
 30
0.0
 10
66.271311
 20
198.064041
 30
0.0
 10
66.354466
 20
198.176166
 30
0.0
 10
66.354466
 20
198.230834
 30
0.0
  0
SPLINE
  5
1da
100
AcDbEntity
  8
Layer_2
 62
7
100
AcDbSpline
 70
8
 71
3
 72
8
 73
4
 74
0
 40
0
 40
0
 40
0
 40
0
 40
1
 40
1
 40
1
 40
1
 10
66.354466
 20
198.230834
 30
0.0
 10
66.354466
 20
198.262384
 30
0.0
 10
66.449716
 20
198.376473
 30
0.0
 10
66.566133
 20
198.484364
 30
0.0
  0
SPLINE
  5
1db
100
AcDbEntity
  8
Layer_2
 62
7
100
AcDbSpline
 70
8
 71
3
 72
8
 73
4
 74
0
 40
0
 40
0
 40
0
 40
0
 40
1
 40
1
 40
1
 40
1
 10
66.566133
 20
198.484364
 30
0.0
 10
66.682549
 20
198.592256
 30
0.0
 10
66.777799
 20
198.720450
 30
0.0
 10
66.777799
 20
198.769240
 30
0.0
  0
SPLINE
  5
1dc
100
AcDbEntity
  8
Layer_2
 62
7
100
AcDbSpline
 70
8
 71
3
 72
8
 73
4
 74
0
 40
0
 40
0
 40
0
 40
0
 40
1
 40
1
 40
1
 40
1
 10
66.777799
 20
198.769240
 30
0.0
 10
66.777799
 20
198.818030
 30
0.0
 10
66.813329
 20
198.857950
 30
0.0
 10
66.856759
 20
198.857950
 30
0.0
  0
SPLINE
  5
1dd
100
AcDbEntity
  8
Layer_2
 62
7
100
AcDbSpline
 70
8
 71
3
 72
8
 73
4
 74
0
 40
0
 40
0
 40
0
 40
0
 40
1
 40
1
 40
1
 40
1
 10
66.856759
 20
198.857950
 30
0.0
 10
66.900189
 20
198.857950
 30
0.0
 10
66.959287
 20
198.932200
 30
0.0
 10
66.988090
 20
199.022953
 30
0.0
  0
SPLINE
  5
1de
100
AcDbEntity
  8
Layer_2
 62
7
100
AcDbSpline
 70
8
 71
3
 72
8
 73
4
 74
0
 40
0
 40
0
 40
0
 40
0
 40
1
 40
1
 40
1
 40
1
 10
66.988090
 20
199.022953
 30
0.0
 10
67.016890
 20
199.113703
 30
0.0
 10
67.112763
 20
199.210903
 30
0.0
 10
67.201132
 20
199.238950
 30
0.0
  0
SPLINE
  5
1df
100
AcDbEntity
  8
Layer_2
 62
7
100
AcDbSpline
 70
8
 71
3
 72
8
 73
4
 74
0
 40
0
 40
0
 40
0
 40
0
 40
1
 40
1
 40
1
 40
1
 10
67.201132
 20
199.238950
 30
0.0
 10
67.289502
 20
199.267000
 30
0.0
 10
67.387276
 20
199.370202
 30
0.0
 10
67.418409
 20
199.468294
 30
0.0
  0
SPLINE
  5
1e0
100
AcDbEntity
  8
Layer_2
 62
7
100
AcDbSpline
 70
8
 71
3
 72
8
 73
4
 74
0
 40
0
 40
0
 40
0
 40
0
 40
1
 40
1
 40
1
 40
1
 10
67.418409
 20
199.468294
 30
0.0
 10
67.449539
 20
199.566384
 30
0.0
 10
67.613416
 20
199.791846
 30
0.0
 10
67.782573
 20
199.969318
 30
0.0
  0
SPLINE
  5
1e1
100
AcDbEntity
  8
Layer_2
 62
7
100
AcDbSpline
 70
8
 71
3
 72
8
 73
4
 74
0
 40
0
 40
0
 40
0
 40
0
 40
1
 40
1
 40
1
 40
1
 10
67.782573
 20
199.969318
 30
0.0
 10
67.951731
 20
200.146789
 30
0.0
 10
68.135932
 20
200.340809
 30
0.0
 10
68.191911
 20
200.400472
 30
0.0
  0
SPLINE
  5
1e2
100
AcDbEntity
  8
Layer_2
 62
7
100
AcDbSpline
 70
8
 71
3
 72
8
 73
4
 74
0
 40
0
 40
0
 40
0
 40
0
 40
1
 40
1
 40
1
 40
1
 10
68.191911
 20
200.400472
 30
0.0
 10
68.247891
 20
200.460132
 30
0.0
 10
68.343138
 20
200.554751
 30
0.0
 10
68.403577
 20
200.610729
 30
0.0
  0
SPLINE
  5
1e3
100
AcDbEntity
  8
Layer_2
 62
7
100
AcDbSpline
 70
8
 71
3
 72
8
 73
4
 74
0
 40
0
 40
0
 40
0
 40
0
 40
1
 40
1
 40
1
 40
1
 10
68.403577
 20
200.610729
 30
0.0
 10
68.464017
 20
200.666709
 30
0.0
 10
68.559266
 20
200.761957
 30
0.0
 10
68.615244
 20
200.822396
 30
0.0
  0
SPLINE
  5
1e4
100
AcDbEntity
  8
Layer_2
 62
7
100
AcDbSpline
 70
8
 71
3
 72
8
 73
4
 74
0
 40
0
 40
0
 40
0
 40
0
 40
1
 40
1
 40
1
 40
1
 10
68.615244
 20
200.822396
 30
0.0
 10
68.671224
 20
200.882836
 30
0.0
 10
68.766471
 20
200.978084
 30
0.0
 10
68.826911
 20
201.034062
 30
0.0
  0
SPLINE
  5
1e5
100
AcDbEntity
  8
Layer_2
 62
7
100
AcDbSpline
 70
8
 71
3
 72
8
 73
4
 74
0
 40
0
 40
0
 40
0
 40
0
 40
1
 40
1
 40
1
 40
1
 10
68.826911
 20
201.034062
 30
0.0
 10
68.887351
 20
201.090042
 30
0.0
 10
68.982599
 20
201.185290
 30
0.0
 10
69.038577
 20
201.245729
 30
0.0
  0
SPLINE
  5
1e6
100
AcDbEntity
  8
Layer_2
 62
7
100
AcDbSpline
 70
8
 71
3
 72
8
 73
4
 74
0
 40
0
 40
0
 40
0
 40
0
 40
1
 40
1
 40
1
 40
1
 10
69.038577
 20
201.245729
 30
0.0
 10
69.194599
 20
201.414184
 30
0.0
 10
69.389472
 20
201.567284
 30
0.0
 10
69.447865
 20
201.567284
 30
0.0
  0
SPLINE
  5
1e7
100
AcDbEntity
  8
Layer_2
 62
7
100
AcDbSpline
 70
8
 71
3
 72
8
 73
4
 74
0
 40
0
 40
0
 40
0
 40
0
 40
1
 40
1
 40
1
 40
1
 10
69.447865
 20
201.567284
 30
0.0
 10
69.476765
 20
201.567284
 30
0.0
 10
69.651296
 20
201.719684
 30
0.0
 10
69.835710
 20
201.905951
 30
0.0
  0
SPLINE
  5
1e8
100
AcDbEntity
  8
Layer_2
 62
7
100
AcDbSpline
 70
8
 71
3
 72
8
 73
4
 74
0
 40
0
 40
0
 40
0
 40
0
 40
1
 40
1
 40
1
 40
1
 10
69.835710
 20
201.905951
 30
0.0
 10
70.020124
 20
202.092217
 30
0.0
 10
70.217644
 20
202.244617
 30
0.0
 10
70.274641
 20
202.244617
 30
0.0
  0
SPLINE
  5
1e9
100
AcDbEntity
  8
Layer_2
 62
7
100
AcDbSpline
 70
8
 71
3
 72
8
 73
4
 74
0
 40
0
 40
0
 40
0
 40
0
 40
1
 40
1
 40
1
 40
1
 10
70.274641
 20
202.244617
 30
0.0
 10
70.331641
 20
202.244617
 30
0.0
 10
70.449804
 20
202.339867
 30
0.0
 10
70.537229
 20
202.456284
 30
0.0
  0
SPLINE
  5
1ea
100
AcDbEntity
  8
Layer_2
 62
7
100
AcDbSpline
 70
8
 71
3
 72
8
 73
4
 74
0
 40
0
 40
0
 40
0
 40
0
 40
1
 40
1
 40
1
 40
1
 10
70.537229
 20
202.456284
 30
0.0
 10
70.624659
 20
202.572701
 30
0.0
 10
70.764480
 20
202.667951
 30
0.0
 10
70.847953
 20
202.667951
 30
0.0
  0
SPLINE
  5
1eb
100
AcDbEntity
  8
Layer_2
 62
7
100
AcDbSpline
 70
8
 71
3
 72
8
 73
4
 74
0
 40
0
 40
0
 40
0
 40
0
 40
1
 40
1
 40
1
 40
1
 10
70.847953
 20
202.667951
 30
0.0
 10
70.931423
 20
202.667951
 30
0.0
 10
71.023288
 20
202.742201
 30
0.0
 10
71.052091
 20
202.832953
 30
0.0
  0
SPLINE
  5
1ec
100
AcDbEntity
  8
Layer_2
 62
7
100
AcDbSpline
 70
8
 71
3
 72
8
 73
4
 74
0
 40
0
 40
0
 40
0
 40
0
 40
1
 40
1
 40
1
 40
1
 10
71.052091
 20
202.832953
 30
0.0
 10
71.080891
 20
202.923703
 30
0.0
 10
71.188237
 20
203.024405
 30
0.0
 10
71.290630
 20
203.056731
 30
0.0
  0
SPLINE
  5
1ed
100
AcDbEntity
  8
Layer_2
 62
7
100
AcDbSpline
 70
8
 71
3
 72
8
 73
4
 74
0
 40
0
 40
0
 40
0
 40
0
 40
1
 40
1
 40
1
 40
1
 10
71.290630
 20
203.056731
 30
0.0
 10
71.393023
 20
203.089061
 30
0.0
 10
71.538357
 20
203.186186
 30
0.0
 10
71.613593
 20
203.272571
 30
0.0
  0
SPLINE
  5
1ee
100
AcDbEntity
  8
Layer_2
 62
7
100
AcDbSpline
 70
8
 71
3
 72
8
 73
4
 74
0
 40
0
 40
0
 40
0
 40
0
 40
1
 40
1
 40
1
 40
1
 10
71.613593
 20
203.272571
 30
0.0
 10
71.688833
 20
203.358951
 30
0.0
 10
71.868677
 20
203.453293
 30
0.0
 10
72.013255
 20
203.482208
 30
0.0
  0
SPLINE
  5
1ef
100
AcDbEntity
  8
Layer_2
 62
7
100
AcDbSpline
 70
8
 71
3
 72
8
 73
4
 74
0
 40
0
 40
0
 40
0
 40
0
 40
1
 40
1
 40
1
 40
1
 10
72.013255
 20
203.482208
 30
0.0
 10
72.157912
 20
203.511138
 30
0.0
 10
72.297583
 20
203.602402
 30
0.0
 10
72.323847
 20
203.685152
 30
0.0
  0
SPLINE
  5
1f0
100
AcDbEntity
  8
Layer_2
 62
7
100
AcDbSpline
 70
8
 71
3
 72
8
 73
4
 74
0
 40
0
 40
0
 40
0
 40
0
 40
1
 40
1
 40
1
 40
1
 10
72.323847
 20
203.685152
 30
0.0
 10
72.351997
 20
203.773852
 30
0.0
 10
72.491922
 20
203.858100
 30
0.0
 10
72.665020
 20
203.890573
 30
0.0
  0
SPLINE
  5
1f1
100
AcDbEntity
  8
Layer_2
 62
7
100
AcDbSpline
 70
8
 71
3
 72
8
 73
4
 74
0
 40
0
 40
0
 40
0
 40
0
 40
1
 40
1
 40
1
 40
1
 10
72.665020
 20
203.890573
 30
0.0
 10
72.826415
 20
203.920853
 30
0.0
 10
72.958466
 20
203.978973
 30
0.0
 10
72.958466
 20
204.019727
 30
0.0
  0
SPLINE
  5
1f2
100
AcDbEntity
  8
Layer_2
 62
7
100
AcDbSpline
 70
8
 71
3
 72
8
 73
4
 74
0
 40
0
 40
0
 40
0
 40
0
 40
1
 40
1
 40
1
 40
1
 10
72.958466
 20
204.019727
 30
0.0
 10
72.958466
 20
204.060487
 30
0.0
 10
73.072766
 20
204.118937
 30
0.0
 10
73.212466
 20
204.149617
 30
0.0
  0
SPLINE
  5
1f3
100
AcDbEntity
  8
Layer_2
 62
7
100
AcDbSpline
 70
8
 71
3
 72
8
 73
4
 74
0
 40
0
 40
0
 40
0
 40
0
 40
1
 40
1
 40
1
 40
1
 10
73.212466
 20
204.149617
 30
0.0
 10
73.352166
 20
204.180297
 30
0.0
 10
73.466466
 20
204.240477
 30
0.0
 10
73.466466
 20
204.283345
 30
0.0
  0
SPLINE
  5
1f4
100
AcDbEntity
  8
Layer_2
 62
7
100
AcDbSpline
 70
8
 71
3
 72
8
 73
4
 74
0
 40
0
 40
0
 40
0
 40
0
 40
1
 40
1
 40
1
 40
1
 10
73.466466
 20
204.283345
 30
0.0
 10
73.466466
 20
204.326215
 30
0.0
 10
73.542666
 20
204.361285
 30
0.0
 10
73.635799
 20
204.361285
 30
0.0
  0
SPLINE
  5
1f5
100
AcDbEntity
  8
Layer_2
 62
7
100
AcDbSpline
 70
8
 71
3
 72
8
 73
4
 74
0
 40
0
 40
0
 40
0
 40
0
 40
1
 40
1
 40
1
 40
1
 10
73.635799
 20
204.361285
 30
0.0
 10
73.728929
 20
204.361285
 30
0.0
 10
73.805133
 20
204.398935
 30
0.0
 10
73.805133
 20
204.444955
 30
0.0
  0
SPLINE
  5
1f6
100
AcDbEntity
  8
Layer_2
 62
7
100
AcDbSpline
 70
8
 71
3
 72
8
 73
4
 74
0
 40
0
 40
0
 40
0
 40
0
 40
1
 40
1
 40
1
 40
1
 10
73.805133
 20
204.444955
 30
0.0
 10
73.805133
 20
204.490975
 30
0.0
 10
73.957533
 20
204.552991
 30
0.0
 10
74.143799
 20
204.582776
 30
0.0
  0
SPLINE
  5
1f7
100
AcDbEntity
  8
Layer_2
 62
7
100
AcDbSpline
 70
8
 71
3
 72
8
 73
4
 74
0
 40
0
 40
0
 40
0
 40
0
 40
1
 40
1
 40
1
 40
1
 10
74.143799
 20
204.582776
 30
0.0
 10
74.330066
 20
204.612566
 30
0.0
 10
74.482466
 20
204.670166
 30
0.0
 10
74.482466
 20
204.710777
 30
0.0
  0
SPLINE
  5
1f8
100
AcDbEntity
  8
Layer_2
 62
7
100
AcDbSpline
 70
8
 71
3
 72
8
 73
4
 74
0
 40
0
 40
0
 40
0
 40
0
 40
1
 40
1
 40
1
 40
1
 10
74.482466
 20
204.710777
 30
0.0
 10
74.482466
 20
204.751397
 30
0.0
 10
74.539616
 20
204.784627
 30
0.0
 10
74.609466
 20
204.784627
 30
0.0
  0
SPLINE
  5
1f9
100
AcDbEntity
  8
Layer_2
 62
7
100
AcDbSpline
 70
8
 71
3
 72
8
 73
4
 74
0
 40
0
 40
0
 40
0
 40
0
 40
1
 40
1
 40
1
 40
1
 10
74.609466
 20
204.784627
 30
0.0
 10
74.679316
 20
204.784627
 30
0.0
 10
74.736466
 20
204.819147
 30
0.0
 10
74.736466
 20
204.861347
 30
0.0
  0
SPLINE
  5
1fa
100
AcDbEntity
  8
Layer_2
 62
7
100
AcDbSpline
 70
8
 71
3
 72
8
 73
4
 74
0
 40
0
 40
0
 40
0
 40
0
 40
1
 40
1
 40
1
 40
1
 10
74.736466
 20
204.861347
 30
0.0
 10
74.736466
 20
204.903547
 30
0.0
 10
74.926966
 20
204.964269
 30
0.0
 10
75.159799
 20
204.996292
 30
0.0
  0
SPLINE
  5
1fb
100
AcDbEntity
  8
Layer_2
 62
7
100
AcDbSpline
 70
8
 71
3
 72
8
 73
4
 74
0
 40
0
 40
0
 40
0
 40
0
 40
1
 40
1
 40
1
 40
1
 10
75.159799
 20
204.996292
 30
0.0
 10
75.392633
 20
205.028312
 30
0.0
 10
75.583133
 20
205.089042
 30
0.0
 10
75.583133
 20
205.131237
 30
0.0
  0
SPLINE
  5
1fc
100
AcDbEntity
  8
Layer_2
 62
7
100
AcDbSpline
 70
8
 71
3
 72
8
 73
4
 74
0
 40
0
 40
0
 40
0
 40
0
 40
1
 40
1
 40
1
 40
1
 10
75.583133
 20
205.131237
 30
0.0
 10
75.583133
 20
205.173437
 30
0.0
 10
75.678383
 20
205.207957
 30
0.0
 10
75.794799
 20
205.207957
 30
0.0
  0
SPLINE
  5
1fd
100
AcDbEntity
  8
Layer_2
 62
7
100
AcDbSpline
 70
8
 71
3
 72
8
 73
4
 74
0
 40
0
 40
0
 40
0
 40
0
 40
1
 40
1
 40
1
 40
1
 10
75.794799
 20
205.207957
 30
0.0
 10
75.911216
 20
205.207957
 30
0.0
 10
76.006466
 20
205.242187
 30
0.0
 10
76.006466
 20
205.284027
 30
0.0
  0
SPLINE
  5
1fe
100
AcDbEntity
  8
Layer_2
 62
7
100
AcDbSpline
 70
8
 71
3
 72
8
 73
4
 74
0
 40
0
 40
0
 40
0
 40
0
 40
1
 40
1
 40
1
 40
1
 10
76.006466
 20
205.284027
 30
0.0
 10
76.006466
 20
205.325867
 30
0.0
 10
76.273166
 20
205.386884
 30
0.0
 10
76.599133
 20
205.419620
 30
0.0
  0
SPLINE
  5
1ff
100
AcDbEntity
  8
Layer_2
 62
7
100
AcDbSpline
 70
8
 71
3
 72
8
 73
4
 74
0
 40
0
 40
0
 40
0
 40
0
 40
1
 40
1
 40
1
 40
1
 10
76.599133
 20
205.419620
 30
0.0
 10
76.925100
 20
205.452360
 30
0.0
 10
77.191800
 20
205.513370
 30
0.0
 10
77.191800
 20
205.555213
 30
0.0
  0
SPLINE
  5
200
100
AcDbEntity
  8
Layer_2
 62
7
100
AcDbSpline
 70
8
 71
3
 72
8
 73
4
 74
0
 40
0
 40
0
 40
0
 40
0
 40
1
 40
1
 40
1
 40
1
 10
77.191800
 20
205.555213
 30
0.0
 10
77.191800
 20
205.597053
 30
0.0
 10
77.341025
 20
205.631283
 30
0.0
 10
77.523411
 20
205.631283
 30
0.0
  0
SPLINE
  5
201
100
AcDbEntity
  8
Layer_2
 62
7
100
AcDbSpline
 70
8
 71
3
 72
8
 73
4
 74
0
 40
0
 40
0
 40
0
 40
0
 40
1
 40
1
 40
1
 40
1
 10
77.523411
 20
205.631283
 30
0.0
 10
77.706658
 20
205.631283
 30
0.0
 10
77.870223
 20
205.676883
 30
0.0
 10
77.888997
 20
205.733208
 30
0.0
  0
SPLINE
  5
202
100
AcDbEntity
  8
Layer_2
 62
7
100
AcDbSpline
 70
8
 71
3
 72
8
 73
4
 74
0
 40
0
 40
0
 40
0
 40
0
 40
1
 40
1
 40
1
 40
1
 10
77.888997
 20
205.733208
 30
0.0
 10
77.939007
 20
205.883237
 30
0.0
 10
82.115984
 20
205.887055
 30
0.0
 10
82.165965
 20
205.737108
 30
0.0
  0
SPLINE
  5
203
100
AcDbEntity
  8
Layer_2
 62
7
100
AcDbSpline
 70
8
 71
3
 72
8
 73
4
 74
0
 40
0
 40
0
 40
0
 40
0
 40
1
 40
1
 40
1
 40
1
 10
82.165965
 20
205.737108
 30
0.0
 10
82.187815
 20
205.671578
 30
0.0
 10
82.359760
 20
205.631274
 30
0.0
 10
82.617522
 20
205.631274
 30
0.0
  0
SPLINE
  5
204
100
AcDbEntity
  8
Layer_2
 62
7
100
AcDbSpline
 70
8
 71
3
 72
8
 73
4
 74
0
 40
0
 40
0
 40
0
 40
0
 40
1
 40
1
 40
1
 40
1
 10
82.617522
 20
205.631274
 30
0.0
 10
82.846475
 20
205.631274
 30
0.0
 10
83.033800
 20
205.597044
 30
0.0
 10
83.033800
 20
205.555204
 30
0.0
  0
SPLINE
  5
205
100
AcDbEntity
  8
Layer_2
 62
7
100
AcDbSpline
 70
8
 71
3
 72
8
 73
4
 74
0
 40
0
 40
0
 40
0
 40
0
 40
1
 40
1
 40
1
 40
1
 10
83.033800
 20
205.555204
 30
0.0
 10
83.033800
 20
205.513364
 30
0.0
 10
83.300500
 20
205.452346
 30
0.0
 10
83.626467
 20
205.419611
 30
0.0
  0
SPLINE
  5
206
100
AcDbEntity
  8
Layer_2
 62
7
100
AcDbSpline
 70
8
 71
3
 72
8
 73
4
 74
0
 40
0
 40
0
 40
0
 40
0
 40
1
 40
1
 40
1
 40
1
 10
83.626467
 20
205.419611
 30
0.0
 10
83.952434
 20
205.386871
 30
0.0
 10
84.219134
 20
205.325861
 30
0.0
 10
84.219134
 20
205.284018
 30
0.0
  0
SPLINE
  5
207
100
AcDbEntity
  8
Layer_2
 62
7
100
AcDbSpline
 70
8
 71
3
 72
8
 73
4
 74
0
 40
0
 40
0
 40
0
 40
0
 40
1
 40
1
 40
1
 40
1
 10
84.219134
 20
205.284018
 30
0.0
 10
84.219134
 20
205.242178
 30
0.0
 10
84.314384
 20
205.207948
 30
0.0
 10
84.430800
 20
205.207948
 30
0.0
  0
SPLINE
  5
208
100
AcDbEntity
  8
Layer_2
 62
7
100
AcDbSpline
 70
8
 71
3
 72
8
 73
4
 74
0
 40
0
 40
0
 40
0
 40
0
 40
1
 40
1
 40
1
 40
1
 10
84.430800
 20
205.207948
 30
0.0
 10
84.547217
 20
205.207948
 30
0.0
 10
84.642467
 20
205.173198
 30
0.0
 10
84.642467
 20
205.130728
 30
0.0
  0
SPLINE
  5
209
100
AcDbEntity
  8
Layer_2
 62
7
100
AcDbSpline
 70
8
 71
3
 72
8
 73
4
 74
0
 40
0
 40
0
 40
0
 40
0
 40
1
 40
1
 40
1
 40
1
 10
84.642467
 20
205.130728
 30
0.0
 10
84.642467
 20
205.088258
 30
0.0
 10
84.794867
 20
205.027756
 30
0.0
 10
84.981134
 20
204.996286
 30
0.0
  0
SPLINE
  5
20a
100
AcDbEntity
  8
Layer_2
 62
7
100
AcDbSpline
 70
8
 71
3
 72
8
 73
4
 74
0
 40
0
 40
0
 40
0
 40
0
 40
1
 40
1
 40
1
 40
1
 10
84.981134
 20
204.996286
 30
0.0
 10
85.167401
 20
204.964816
 30
0.0
 10
85.319801
 20
204.904316
 30
0.0
 10
85.319801
 20
204.861844
 30
0.0
  0
SPLINE
  5
20b
100
AcDbEntity
  8
Layer_2
 62
7
100
AcDbSpline
 70
8
 71
3
 72
8
 73
4
 74
0
 40
0
 40
0
 40
0
 40
0
 40
1
 40
1
 40
1
 40
1
 10
85.319801
 20
204.861844
 30
0.0
 10
85.319801
 20
204.819374
 30
0.0
 10
85.415051
 20
204.784624
 30
0.0
 10
85.531467
 20
204.784624
 30
0.0
  0
SPLINE
  5
20c
100
AcDbEntity
  8
Layer_2
 62
7
100
AcDbSpline
 70
8
 71
3
 72
8
 73
4
 74
0
 40
0
 40
0
 40
0
 40
0
 40
1
 40
1
 40
1
 40
1
 10
85.531467
 20
204.784624
 30
0.0
 10
85.647884
 20
204.784624
 30
0.0
 10
85.743134
 20
204.749554
 30
0.0
 10
85.743134
 20
204.706684
 30
0.0
  0
SPLINE
  5
20d
100
AcDbEntity
  8
Layer_2
 62
7
100
AcDbSpline
 70
8
 71
3
 72
8
 73
4
 74
0
 40
0
 40
0
 40
0
 40
0
 40
1
 40
1
 40
1
 40
1
 10
85.743134
 20
204.706684
 30
0.0
 10
85.743134
 20
204.663814
 30
0.0
 10
85.857434
 20
204.603640
 30
0.0
 10
85.997134
 20
204.572957
 30
0.0
  0
SPLINE
  5
20e
100
AcDbEntity
  8
Layer_2
 62
7
100
AcDbSpline
 70
8
 71
3
 72
8
 73
4
 74
0
 40
0
 40
0
 40
0
 40
0
 40
1
 40
1
 40
1
 40
1
 10
85.997134
 20
204.572957
 30
0.0
 10
86.136834
 20
204.542277
 30
0.0
 10
86.251134
 20
204.482097
 30
0.0
 10
86.251134
 20
204.439230
 30
0.0
  0
SPLINE
  5
20f
100
AcDbEntity
  8
Layer_2
 62
7
100
AcDbSpline
 70
8
 71
3
 72
8
 73
4
 74
0
 40
0
 40
0
 40
0
 40
0
 40
1
 40
1
 40
1
 40
1
 10
86.251134
 20
204.439230
 30
0.0
 10
86.251134
 20
204.396360
 30
0.0
 10
86.327334
 20
204.361290
 30
0.0
 10
86.420467
 20
204.361290
 30
0.0
  0
SPLINE
  5
210
100
AcDbEntity
  8
Layer_2
 62
7
100
AcDbSpline
 70
8
 71
3
 72
8
 73
4
 74
0
 40
0
 40
0
 40
0
 40
0
 40
1
 40
1
 40
1
 40
1
 10
86.420467
 20
204.361290
 30
0.0
 10
86.513597
 20
204.361290
 30
0.0
 10
86.589801
 20
204.326220
 30
0.0
 10
86.589801
 20
204.283350
 30
0.0
  0
SPLINE
  5
211
100
AcDbEntity
  8
Layer_2
 62
7
100
AcDbSpline
 70
8
 71
3
 72
8
 73
4
 74
0
 40
0
 40
0
 40
0
 40
0
 40
1
 40
1
 40
1
 40
1
 10
86.589801
 20
204.283350
 30
0.0
 10
86.589801
 20
204.240480
 30
0.0
 10
86.704101
 20
204.180306
 30
0.0
 10
86.843801
 20
204.149622
 30
0.0
  0
SPLINE
  5
212
100
AcDbEntity
  8
Layer_2
 62
7
100
AcDbSpline
 70
8
 71
3
 72
8
 73
4
 74
0
 40
0
 40
0
 40
0
 40
0
 40
1
 40
1
 40
1
 40
1
 10
86.843801
 20
204.149622
 30
0.0
 10
86.983501
 20
204.118942
 30
0.0
 10
87.097801
 20
204.063002
 30
0.0
 10
87.097801
 20
204.025318
 30
0.0
  0
SPLINE
  5
213
100
AcDbEntity
  8
Layer_2
 62
7
100
AcDbSpline
 70
8
 71
3
 72
8
 73
4
 74
0
 40
0
 40
0
 40
0
 40
0
 40
1
 40
1
 40
1
 40
1
 10
87.097801
 20
204.025318
 30
0.0
 10
87.097801
 20
203.987638
 30
0.0
 10
87.228378
 20
203.932308
 30
0.0
 10
87.387972
 20
203.902365
 30
0.0
  0
SPLINE
  5
214
100
AcDbEntity
  8
Layer_2
 62
7
100
AcDbSpline
 70
8
 71
3
 72
8
 73
4
 74
0
 40
0
 40
0
 40
0
 40
0
 40
1
 40
1
 40
1
 40
1
 10
87.387972
 20
203.902365
 30
0.0
 10
87.547566
 20
203.872425
 30
0.0
 10
87.697755
 20
203.801509
 30
0.0
 10
87.721725
 20
203.744775
 30
0.0
  0
SPLINE
  5
215
100
AcDbEntity
  8
Layer_2
 62
7
100
AcDbSpline
 70
8
 71
3
 72
8
 73
4
 74
0
 40
0
 40
0
 40
0
 40
0
 40
1
 40
1
 40
1
 40
1
 10
87.721725
 20
203.744775
 30
0.0
 10
87.752025
 20
203.673065
 30
0.0
 10
87.793895
 20
203.686785
 30
0.0
 10
87.859094
 20
203.789785
 30
0.0
  0
SPLINE
  5
216
100
AcDbEntity
  8
Layer_2
 62
7
100
AcDbSpline
 70
8
 71
3
 72
8
 73
4
 74
0
 40
0
 40
0
 40
0
 40
0
 40
1
 40
1
 40
1
 40
1
 10
87.859094
 20
203.789785
 30
0.0
 10
87.910674
 20
203.871275
 30
0.0
 10
88.027189
 20
203.937952
 30
0.0
 10
88.118008
 20
203.937952
 30
0.0
  0
SPLINE
  5
217
100
AcDbEntity
  8
Layer_2
 62
7
100
AcDbSpline
 70
8
 71
3
 72
8
 73
4
 74
0
 40
0
 40
0
 40
0
 40
0
 40
1
 40
1
 40
1
 40
1
 10
88.118008
 20
203.937952
 30
0.0
 10
88.208828
 20
203.937952
 30
0.0
 10
88.283134
 20
203.973022
 30
0.0
 10
88.283134
 20
204.015892
 30
0.0
  0
SPLINE
  5
218
100
AcDbEntity
  8
Layer_2
 62
7
100
AcDbSpline
 70
8
 71
3
 72
8
 73
4
 74
0
 40
0
 40
0
 40
0
 40
0
 40
1
 40
1
 40
1
 40
1
 10
88.283134
 20
204.015892
 30
0.0
 10
88.283134
 20
204.058762
 30
0.0
 10
88.397434
 20
204.118936
 30
0.0
 10
88.537134
 20
204.149619
 30
0.0
  0
SPLINE
  5
219
100
AcDbEntity
  8
Layer_2
 62
7
100
AcDbSpline
 70
8
 71
3
 72
8
 73
4
 74
0
 40
0
 40
0
 40
0
 40
0
 40
1
 40
1
 40
1
 40
1
 10
88.537134
 20
204.149619
 30
0.0
 10
88.676834
 20
204.180299
 30
0.0
 10
88.791134
 20
204.240479
 30
0.0
 10
88.791134
 20
204.283347
 30
0.0
  0
SPLINE
  5
21a
100
AcDbEntity
  8
Layer_2
 62
7
100
AcDbSpline
 70
8
 71
3
 72
8
 73
4
 74
0
 40
0
 40
0
 40
0
 40
0
 40
1
 40
1
 40
1
 40
1
 10
88.791134
 20
204.283347
 30
0.0
 10
88.791134
 20
204.326217
 30
0.0
 10
88.886384
 20
204.361287
 30
0.0
 10
89.002801
 20
204.361287
 30
0.0
  0
SPLINE
  5
21b
100
AcDbEntity
  8
Layer_2
 62
7
100
AcDbSpline
 70
8
 71
3
 72
8
 73
4
 74
0
 40
0
 40
0
 40
0
 40
0
 40
1
 40
1
 40
1
 40
1
 10
89.002801
 20
204.361287
 30
0.0
 10
89.119218
 20
204.361287
 30
0.0
 10
89.214468
 20
204.395147
 30
0.0
 10
89.214468
 20
204.436527
 30
0.0
  0
SPLINE
  5
21c
100
AcDbEntity
  8
Layer_2
 62
7
100
AcDbSpline
 70
8
 71
3
 72
8
 73
4
 74
0
 40
0
 40
0
 40
0
 40
0
 40
1
 40
1
 40
1
 40
1
 10
89.214468
 20
204.436527
 30
0.0
 10
89.214468
 20
204.477907
 30
0.0
 10
89.347818
 20
204.536788
 30
0.0
 10
89.510801
 20
204.567364
 30
0.0
  0
SPLINE
  5
21d
100
AcDbEntity
  8
Layer_2
 62
7
100
AcDbSpline
 70
8
 71
3
 72
8
 73
4
 74
0
 40
0
 40
0
 40
0
 40
0
 40
1
 40
1
 40
1
 40
1
 10
89.510801
 20
204.567364
 30
0.0
 10
89.673784
 20
204.597944
 30
0.0
 10
89.807134
 20
204.659334
 30
0.0
 10
89.807134
 20
204.703786
 30
0.0
  0
SPLINE
  5
21e
100
AcDbEntity
  8
Layer_2
 62
7
100
AcDbSpline
 70
8
 71
3
 72
8
 73
4
 74
0
 40
0
 40
0
 40
0
 40
0
 40
1
 40
1
 40
1
 40
1
 10
89.807134
 20
204.703786
 30
0.0
 10
89.807134
 20
204.748246
 30
0.0
 10
89.864284
 20
204.784616
 30
0.0
 10
89.934134
 20
204.784616
 30
0.0
  0
SPLINE
  5
21f
100
AcDbEntity
  8
Layer_2
 62
7
100
AcDbSpline
 70
8
 71
3
 72
8
 73
4
 74
0
 40
0
 40
0
 40
0
 40
0
 40
1
 40
1
 40
1
 40
1
 10
89.934134
 20
204.784616
 30
0.0
 10
90.003984
 20
204.784616
 30
0.0
 10
90.061134
 20
204.817846
 30
0.0
 10
90.061134
 20
204.858466
 30
0.0
  0
SPLINE
  5
220
100
AcDbEntity
  8
Layer_2
 62
7
100
AcDbSpline
 70
8
 71
3
 72
8
 73
4
 74
0
 40
0
 40
0
 40
0
 40
0
 40
1
 40
1
 40
1
 40
1
 10
90.061134
 20
204.858466
 30
0.0
 10
90.061134
 20
204.899076
 30
0.0
 10
90.213534
 20
204.956676
 30
0.0
 10
90.399801
 20
204.986467
 30
0.0
  0
SPLINE
  5
221
100
AcDbEntity
  8
Layer_2
 62
7
100
AcDbSpline
 70
8
 71
3
 72
8
 73
4
 74
0
 40
0
 40
0
 40
0
 40
0
 40
1
 40
1
 40
1
 40
1
 10
90.399801
 20
204.986467
 30
0.0
 10
90.586068
 20
205.016257
 30
0.0
 10
90.738468
 20
205.078267
 30
0.0
 10
90.738468
 20
205.124288
 30
0.0
  0
SPLINE
  5
222
100
AcDbEntity
  8
Layer_2
 62
7
100
AcDbSpline
 70
8
 71
3
 72
8
 73
4
 74
0
 40
0
 40
0
 40
0
 40
0
 40
1
 40
1
 40
1
 40
1
 10
90.738468
 20
205.124288
 30
0.0
 10
90.738468
 20
205.170308
 30
0.0
 10
90.833718
 20
205.207958
 30
0.0
 10
90.950135
 20
205.207958
 30
0.0
  0
SPLINE
  5
223
100
AcDbEntity
  8
Layer_2
 62
7
100
AcDbSpline
 70
8
 71
3
 72
8
 73
4
 74
0
 40
0
 40
0
 40
0
 40
0
 40
1
 40
1
 40
1
 40
1
 10
90.950135
 20
205.207958
 30
0.0
 10
91.066551
 20
205.207958
 30
0.0
 10
91.161801
 20
205.242488
 30
0.0
 10
91.161801
 20
205.284678
 30
0.0
  0
SPLINE
  5
224
100
AcDbEntity
  8
Layer_2
 62
7
100
AcDbSpline
 70
8
 71
3
 72
8
 73
4
 74
0
 40
0
 40
0
 40
0
 40
0
 40
1
 40
1
 40
1
 40
1
 10
91.161801
 20
205.284678
 30
0.0
 10
91.161801
 20
205.326878
 30
0.0
 10
91.352301
 20
205.387600
 30
0.0
 10
91.585135
 20
205.419623
 30
0.0
  0
SPLINE
  5
225
100
AcDbEntity
  8
Layer_2
 62
7
100
AcDbSpline
 70
8
 71
3
 72
8
 73
4
 74
0
 40
0
 40
0
 40
0
 40
0
 40
1
 40
1
 40
1
 40
1
 10
91.585135
 20
205.419623
 30
0.0
 10
91.817968
 20
205.451643
 30
0.0
 10
92.008468
 20
205.512373
 30
0.0
 10
92.008468
 20
205.554568
 30
0.0
  0
SPLINE
  5
226
100
AcDbEntity
  8
Layer_2
 62
7
100
AcDbSpline
 70
8
 71
3
 72
8
 73
4
 74
0
 40
0
 40
0
 40
0
 40
0
 40
1
 40
1
 40
1
 40
1
 10
92.008468
 20
205.554568
 30
0.0
 10
92.008468
 20
205.596768
 30
0.0
 10
92.103718
 20
205.631288
 30
0.0
 10
92.220135
 20
205.631288
 30
0.0
  0
SPLINE
  5
227
100
AcDbEntity
  8
Layer_2
 62
7
100
AcDbSpline
 70
8
 71
3
 72
8
 73
4
 74
0
 40
0
 40
0
 40
0
 40
0
 40
1
 40
1
 40
1
 40
1
 10
92.220135
 20
205.631288
 30
0.0
 10
92.336551
 20
205.631288
 30
0.0
 10
92.431801
 20
205.665518
 30
0.0
 10
92.431801
 20
205.707358
 30
0.0
  0
SPLINE
  5
228
100
AcDbEntity
  8
Layer_2
 62
7
100
AcDbSpline
 70
8
 71
3
 72
8
 73
4
 74
0
 40
0
 40
0
 40
0
 40
0
 40
1
 40
1
 40
1
 40
1
 10
92.431801
 20
205.707358
 30
0.0
 10
92.431801
 20
205.749198
 30
0.0
 10
92.698501
 20
205.810215
 30
0.0
 10
93.024468
 20
205.842951
 30
0.0
  0
SPLINE
  5
229
100
AcDbEntity
  8
Layer_2
 62
7
100
AcDbSpline
 70
8
 71
3
 72
8
 73
4
 74
0
 40
0
 40
0
 40
0
 40
0
 40
1
 40
1
 40
1
 40
1
 10
93.024468
 20
205.842951
 30
0.0
 10
93.350435
 20
205.875691
 30
0.0
 10
93.617135
 20
205.936701
 30
0.0
 10
93.617135
 20
205.978544
 30
0.0
  0
SPLINE
  5
22a
100
AcDbEntity
  8
Layer_2
 62
7
100
AcDbSpline
 70
8
 71
3
 72
8
 73
4
 74
0
 40
0
 40
0
 40
0
 40
0
 40
1
 40
1
 40
1
 40
1
 10
93.617135
 20
205.978544
 30
0.0
 10
93.617135
 20
206.020384
 30
0.0
 10
93.728260
 20
206.054614
 30
0.0
 10
93.864080
 20
206.054614
 30
0.0
  0
SPLINE
  5
22b
100
AcDbEntity
  8
Layer_2
 62
7
100
AcDbSpline
 70
8
 71
3
 72
8
 73
4
 74
0
 40
0
 40
0
 40
0
 40
0
 40
1
 40
1
 40
1
 40
1
 10
93.864080
 20
206.054614
 30
0.0
 10
93.999898
 20
206.054614
 30
0.0
 10
94.123723
 20
206.090784
 30
0.0
 10
94.139246
 20
206.134994
 30
0.0
  0
SPLINE
  5
22c
100
AcDbEntity
  8
Layer_2
 62
7
100
AcDbSpline
 70
8
 71
3
 72
8
 73
4
 74
0
 40
0
 40
0
 40
0
 40
0
 40
1
 40
1
 40
1
 40
1
 10
94.139246
 20
206.134994
 30
0.0
 10
94.154766
 20
206.179204
 30
0.0
 10
94.615143
 20
206.241944
 30
0.0
 10
95.162302
 20
206.274419
 30
0.0
  0
SPLINE
  5
22d
100
AcDbEntity
  8
Layer_2
 62
7
100
AcDbSpline
 70
8
 71
3
 72
8
 73
4
 74
0
 40
0
 40
0
 40
0
 40
0
 40
1
 40
1
 40
1
 40
1
 10
95.162302
 20
206.274419
 30
0.0
 10
95.709460
 20
206.306899
 30
0.0
 10
96.157135
 20
206.365969
 30
0.0
 10
96.157135
 20
206.405707
 30
0.0
  0
SPLINE
  5
22e
100
AcDbEntity
  8
Layer_2
 62
7
100
AcDbSpline
 70
8
 71
3
 72
8
 73
4
 74
0
 40
0
 40
0
 40
0
 40
0
 40
1
 40
1
 40
1
 40
1
 10
96.157135
 20
206.405707
 30
0.0
 10
96.157135
 20
206.445437
 30
0.0
 10
96.881035
 20
206.477947
 30
0.0
 10
97.765802
 20
206.477947
 30
0.0
  0
SPLINE
  5
22f
100
AcDbEntity
  8
Layer_2
 62
7
100
AcDbSpline
 70
8
 71
3
 72
8
 73
4
 74
0
 40
0
 40
0
 40
0
 40
0
 40
1
 40
1
 40
1
 40
1
 10
97.765802
 20
206.477947
 30
0.0
 10
98.650569
 20
206.477947
 30
0.0
 10
99.374469
 20
206.445577
 30
0.0
 10
99.374469
 20
206.406007
 30
0.0
  0
SPLINE
  5
230
100
AcDbEntity
  8
Layer_2
 62
7
100
AcDbSpline
 70
8
 71
3
 72
8
 73
4
 74
0
 40
0
 40
0
 40
0
 40
0
 40
1
 40
1
 40
1
 40
1
 10
99.374469
 20
206.406007
 30
0.0
 10
99.374469
 20
206.366437
 30
0.0
 10
99.764994
 20
206.308547
 30
0.0
 10
100.242300
 20
206.277361
 30
0.0
  0
SPLINE
  5
231
100
AcDbEntity
  8
Layer_2
 62
7
100
AcDbSpline
 70
8
 71
3
 72
8
 73
4
 74
0
 40
0
 40
0
 40
0
 40
0
 40
1
 40
1
 40
1
 40
1
 10
100.242300
 20
206.277361
 30
0.0
 10
100.719610
 20
206.246171
 30
0.0
 10
101.122830
 20
206.183291
 30
0.0
 10
101.138360
 20
206.137634
 30
0.0
  0
SPLINE
  5
232
100
AcDbEntity
  8
Layer_2
 62
7
100
AcDbSpline
 70
8
 71
3
 72
8
 73
4
 74
0
 40
0
 40
0
 40
0
 40
0
 40
1
 40
1
 40
1
 40
1
 10
101.138360
 20
206.137634
 30
0.0
 10
101.153860
 20
206.091974
 30
0.0
 10
101.334850
 20
206.054614
 30
0.0
 10
101.540520
 20
206.054614
 30
0.0
  0
SPLINE
  5
233
100
AcDbEntity
  8
Layer_2
 62
7
100
AcDbSpline
 70
8
 71
3
 72
8
 73
4
 74
0
 40
0
 40
0
 40
0
 40
0
 40
1
 40
1
 40
1
 40
1
 10
101.540520
 20
206.054614
 30
0.0
 10
101.746190
 20
206.054614
 30
0.0
 10
101.914470
 20
206.020904
 30
0.0
 10
101.914470
 20
205.979704
 30
0.0
  0
SPLINE
  5
234
100
AcDbEntity
  8
Layer_2
 62
7
100
AcDbSpline
 70
8
 71
3
 72
8
 73
4
 74
0
 40
0
 40
0
 40
0
 40
0
 40
1
 40
1
 40
1
 40
1
 10
101.914470
 20
205.979704
 30
0.0
 10
101.914470
 20
205.938504
 30
0.0
 10
102.124020
 20
205.878611
 30
0.0
 10
102.380130
 20
205.846611
 30
0.0
  0
SPLINE
  5
235
100
AcDbEntity
  8
Layer_2
 62
7
100
AcDbSpline
 70
8
 71
3
 72
8
 73
4
 74
0
 40
0
 40
0
 40
0
 40
0
 40
1
 40
1
 40
1
 40
1
 10
102.380130
 20
205.846611
 30
0.0
 10
102.636250
 20
205.814611
 30
0.0
 10
102.845800
 20
205.753071
 30
0.0
 10
102.845800
 20
205.709856
 30
0.0
  0
SPLINE
  5
236
100
AcDbEntity
  8
Layer_2
 62
7
100
AcDbSpline
 70
8
 71
3
 72
8
 73
4
 74
0
 40
0
 40
0
 40
0
 40
0
 40
1
 40
1
 40
1
 40
1
 10
102.845800
 20
205.709856
 30
0.0
 10
102.845800
 20
205.666636
 30
0.0
 10
102.941000
 20
205.631276
 30
0.0
 10
103.057470
 20
205.631276
 30
0.0
  0
SPLINE
  5
237
100
AcDbEntity
  8
Layer_2
 62
7
100
AcDbSpline
 70
8
 71
3
 72
8
 73
4
 74
0
 40
0
 40
0
 40
0
 40
0
 40
1
 40
1
 40
1
 40
1
 10
103.057470
 20
205.631276
 30
0.0
 10
103.173880
 20
205.631276
 30
0.0
 10
103.269130
 20
205.596746
 30
0.0
 10
103.269130
 20
205.554556
 30
0.0
  0
SPLINE
  5
238
100
AcDbEntity
  8
Layer_2
 62
7
100
AcDbSpline
 70
8
 71
3
 72
8
 73
4
 74
0
 40
0
 40
0
 40
0
 40
0
 40
1
 40
1
 40
1
 40
1
 10
103.269130
 20
205.554556
 30
0.0
 10
103.269130
 20
205.512356
 30
0.0
 10
103.459630
 20
205.451633
 30
0.0
 10
103.692470
 20
205.419611
 30
0.0
  0
SPLINE
  5
239
100
AcDbEntity
  8
Layer_2
 62
7
100
AcDbSpline
 70
8
 71
3
 72
8
 73
4
 74
0
 40
0
 40
0
 40
0
 40
0
 40
1
 40
1
 40
1
 40
1
 10
103.692470
 20
205.419611
 30
0.0
 10
103.925300
 20
205.387591
 30
0.0
 10
104.115800
 20
205.326861
 30
0.0
 10
104.115800
 20
205.284666
 30
0.0
  0
SPLINE
  5
23a
100
AcDbEntity
  8
Layer_2
 62
7
100
AcDbSpline
 70
8
 71
3
 72
8
 73
4
 74
0
 40
0
 40
0
 40
0
 40
0
 40
1
 40
1
 40
1
 40
1
 10
104.115800
 20
205.284666
 30
0.0
 10
104.115800
 20
205.242466
 30
0.0
 10
104.173000
 20
205.207946
 30
0.0
 10
104.242800
 20
205.207946
 30
0.0
  0
SPLINE
  5
23b
100
AcDbEntity
  8
Layer_2
 62
7
100
AcDbSpline
 70
8
 71
3
 72
8
 73
4
 74
0
 40
0
 40
0
 40
0
 40
0
 40
1
 40
1
 40
1
 40
1
 10
104.242800
 20
205.207946
 30
0.0
 10
104.312600
 20
205.207946
 30
0.0
 10
104.369800
 20
205.172176
 30
0.0
 10
104.369800
 20
205.128466
 30
0.0
  0
SPLINE
  5
23c
100
AcDbEntity
  8
Layer_2
 62
7
100
AcDbSpline
 70
8
 71
3
 72
8
 73
4
 74
0
 40
0
 40
0
 40
0
 40
0
 40
1
 40
1
 40
1
 40
1
 10
104.369800
 20
205.128466
 30
0.0
 10
104.369800
 20
205.084756
 30
0.0
 10
104.541250
 20
205.023277
 30
0.0
 10
104.750800
 20
204.991853
 30
0.0
  0
SPLINE
  5
23d
100
AcDbEntity
  8
Layer_2
 62
7
100
AcDbSpline
 70
8
 71
3
 72
8
 73
4
 74
0
 40
0
 40
0
 40
0
 40
0
 40
1
 40
1
 40
1
 40
1
 10
104.750800
 20
204.991853
 30
0.0
 10
104.960350
 20
204.960433
 30
0.0
 10
105.131800
 20
204.900943
 30
0.0
 10
105.131800
 20
204.859665
 30
0.0
  0
SPLINE
  5
23e
100
AcDbEntity
  8
Layer_2
 62
7
100
AcDbSpline
 70
8
 71
3
 72
8
 73
4
 74
0
 40
0
 40
0
 40
0
 40
0
 40
1
 40
1
 40
1
 40
1
 10
105.131800
 20
204.859665
 30
0.0
 10
105.131800
 20
204.818385
 30
0.0
 10
105.188900
 20
204.784615
 30
0.0
 10
105.258800
 20
204.784615
 30
0.0
  0
SPLINE
  5
23f
100
AcDbEntity
  8
Layer_2
 62
7
100
AcDbSpline
 70
8
 71
3
 72
8
 73
4
 74
0
 40
0
 40
0
 40
0
 40
0
 40
1
 40
1
 40
1
 40
1
 10
105.258800
 20
204.784615
 30
0.0
 10
105.328700
 20
204.784615
 30
0.0
 10
105.385800
 20
204.748245
 30
0.0
 10
105.385800
 20
204.703785
 30
0.0
  0
SPLINE
  5
240
100
AcDbEntity
  8
Layer_2
 62
7
100
AcDbSpline
 70
8
 71
3
 72
8
 73
4
 74
0
 40
0
 40
0
 40
0
 40
0
 40
1
 40
1
 40
1
 40
1
 10
105.385800
 20
204.703785
 30
0.0
 10
105.385800
 20
204.659325
 30
0.0
 10
105.519150
 20
204.597939
 30
0.0
 10
105.682130
 20
204.567363
 30
0.0
  0
SPLINE
  5
241
100
AcDbEntity
  8
Layer_2
 62
7
100
AcDbSpline
 70
8
 71
3
 72
8
 73
4
 74
0
 40
0
 40
0
 40
0
 40
0
 40
1
 40
1
 40
1
 40
1
 10
105.682130
 20
204.567363
 30
0.0
 10
105.845120
 20
204.536783
 30
0.0
 10
105.978470
 20
204.477913
 30
0.0
 10
105.978470
 20
204.436526
 30
0.0
  0
SPLINE
  5
242
100
AcDbEntity
  8
Layer_2
 62
7
100
AcDbSpline
 70
8
 71
3
 72
8
 73
4
 74
0
 40
0
 40
0
 40
0
 40
0
 40
1
 40
1
 40
1
 40
1
 10
105.978470
 20
204.436526
 30
0.0
 10
105.978470
 20
204.395146
 30
0.0
 10
106.035570
 20
204.361286
 30
0.0
 10
106.105470
 20
204.361286
 30
0.0
  0
SPLINE
  5
243
100
AcDbEntity
  8
Layer_2
 62
7
100
AcDbSpline
 70
8
 71
3
 72
8
 73
4
 74
0
 40
0
 40
0
 40
0
 40
0
 40
1
 40
1
 40
1
 40
1
 10
106.105470
 20
204.361286
 30
0.0
 10
106.175370
 20
204.361286
 30
0.0
 10
106.232470
 20
204.327316
 30
0.0
 10
106.232470
 20
204.285796
 30
0.0
  0
SPLINE
  5
244
100
AcDbEntity
  8
Layer_2
 62
7
100
AcDbSpline
 70
8
 71
3
 72
8
 73
4
 74
0
 40
0
 40
0
 40
0
 40
0
 40
1
 40
1
 40
1
 40
1
 10
106.232470
 20
204.285796
 30
0.0
 10
106.232470
 20
204.244276
 30
0.0
 10
106.327770
 20
204.186406
 30
0.0
 10
106.444130
 20
204.157183
 30
0.0
  0
SPLINE
  5
245
100
AcDbEntity
  8
Layer_2
 62
7
100
AcDbSpline
 70
8
 71
3
 72
8
 73
4
 74
0
 40
0
 40
0
 40
0
 40
0
 40
1
 40
1
 40
1
 40
1
 10
106.444130
 20
204.157183
 30
0.0
 10
106.560550
 20
204.127963
 30
0.0
 10
106.655800
 20
204.068413
 30
0.0
 10
106.655800
 20
204.024841
 30
0.0
  0
SPLINE
  5
246
100
AcDbEntity
  8
Layer_2
 62
7
100
AcDbSpline
 70
8
 71
3
 72
8
 73
4
 74
0
 40
0
 40
0
 40
0
 40
0
 40
1
 40
1
 40
1
 40
1
 10
106.655800
 20
204.024841
 30
0.0
 10
106.655800
 20
203.981271
 30
0.0
 10
106.789150
 20
203.920607
 30
0.0
 10
106.952130
 20
203.890031
 30
0.0
  0
SPLINE
  5
247
100
AcDbEntity
  8
Layer_2
 62
7
100
AcDbSpline
 70
8
 71
3
 72
8
 73
4
 74
0
 40
0
 40
0
 40
0
 40
0
 40
1
 40
1
 40
1
 40
1
 10
106.952130
 20
203.890031
 30
0.0
 10
107.115120
 20
203.859451
 30
0.0
 10
107.248470
 20
203.800581
 30
0.0
 10
107.248470
 20
203.759195
 30
0.0
  0
SPLINE
  5
248
100
AcDbEntity
  8
Layer_2
 62
7
100
AcDbSpline
 70
8
 71
3
 72
8
 73
4
 74
0
 40
0
 40
0
 40
0
 40
0
 40
1
 40
1
 40
1
 40
1
 10
107.248470
 20
203.759195
 30
0.0
 10
107.248470
 20
203.717815
 30
0.0
 10
107.301570
 20
203.683955
 30
0.0
 10
107.366410
 20
203.683955
 30
0.0
  0
SPLINE
  5
249
100
AcDbEntity
  8
Layer_2
 62
7
100
AcDbSpline
 70
8
 71
3
 72
8
 73
4
 74
0
 40
0
 40
0
 40
0
 40
0
 40
1
 40
1
 40
1
 40
1
 10
107.366410
 20
203.683955
 30
0.0
 10
107.431310
 20
203.683955
 30
0.0
 10
107.506280
 20
203.626805
 30
0.0
 10
107.533090
 20
203.556955
 30
0.0
  0
SPLINE
  5
24a
100
AcDbEntity
  8
Layer_2
 62
7
100
AcDbSpline
 70
8
 71
3
 72
8
 73
4
 74
0
 40
0
 40
0
 40
0
 40
0
 40
1
 40
1
 40
1
 40
1
 10
107.533090
 20
203.556955
 30
0.0
 10
107.559890
 20
203.487105
 30
0.0
 10
107.656650
 20
203.429955
 30
0.0
 10
107.748110
 20
203.429955
 30
0.0
  0
SPLINE
  5
24b
100
AcDbEntity
  8
Layer_2
 62
7
100
AcDbSpline
 70
8
 71
3
 72
8
 73
4
 74
0
 40
0
 40
0
 40
0
 40
0
 40
1
 40
1
 40
1
 40
1
 10
107.748110
 20
203.429955
 30
0.0
 10
107.839510
 20
203.429955
 30
0.0
 10
107.937140
 20
203.358295
 30
0.0
 10
107.964930
 20
203.270704
 30
0.0
  0
SPLINE
  5
24c
100
AcDbEntity
  8
Layer_2
 62
7
100
AcDbSpline
 70
8
 71
3
 72
8
 73
4
 74
0
 40
0
 40
0
 40
0
 40
0
 40
1
 40
1
 40
1
 40
1
 10
107.964930
 20
203.270704
 30
0.0
 10
107.994130
 20
203.178794
 30
0.0
 10
108.126640
 20
203.089221
 30
0.0
 10
108.278350
 20
203.058879
 30
0.0
  0
SPLINE
  5
24d
100
AcDbEntity
  8
Layer_2
 62
7
100
AcDbSpline
 70
8
 71
3
 72
8
 73
4
 74
0
 40
0
 40
0
 40
0
 40
0
 40
1
 40
1
 40
1
 40
1
 10
108.278350
 20
203.058879
 30
0.0
 10
108.665650
 20
202.981419
 30
0.0
 10
108.857130
 20
202.713972
 30
0.0
 10
108.857130
 20
202.250483
 30
0.0
  0
SPLINE
  5
24e
100
AcDbEntity
  8
Layer_2
 62
7
100
AcDbSpline
 70
8
 71
3
 72
8
 73
4
 74
0
 40
0
 40
0
 40
0
 40
0
 40
1
 40
1
 40
1
 40
1
 10
108.857130
 20
202.250483
 30
0.0
 10
108.857130
 20
201.686910
 30
0.0
 10
108.686480
 20
201.567288
 30
0.0
 10
107.882500
 20
201.567288
 30
0.0
  0
SPLINE
  5
24f
100
AcDbEntity
  8
Layer_2
 62
7
100
AcDbSpline
 70
8
 71
3
 72
8
 73
4
 74
0
 40
0
 40
0
 40
0
 40
0
 40
1
 40
1
 40
1
 40
1
 10
107.882500
 20
201.567288
 30
0.0
 10
107.516260
 20
201.567288
 30
0.0
 10
107.248470
 20
201.603048
 30
0.0
 10
107.248470
 20
201.651958
 30
0.0
  0
SPLINE
  5
250
100
AcDbEntity
  8
Layer_2
 62
7
100
AcDbSpline
 70
8
 71
3
 72
8
 73
4
 74
0
 40
0
 40
0
 40
0
 40
0
 40
1
 40
1
 40
1
 40
1
 10
107.248470
 20
201.651958
 30
0.0
 10
107.248470
 20
201.705078
 30
0.0
 10
106.712250
 20
201.736628
 30
0.0
 10
105.809130
 20
201.736628
 30
0.0
  0
SPLINE
  5
251
100
AcDbEntity
  8
Layer_2
 62
7
100
AcDbSpline
 70
8
 71
3
 72
8
 73
4
 74
0
 40
0
 40
0
 40
0
 40
0
 40
1
 40
1
 40
1
 40
1
 10
105.809130
 20
201.736628
 30
0.0
 10
104.463640
 20
201.736628
 30
0.0
 10
104.369800
 20
201.726388
 30
0.0
 10
104.369800
 20
201.579538
 30
0.0
  0
SPLINE
  5
252
100
AcDbEntity
  8
Layer_2
 62
7
100
AcDbSpline
 70
8
 71
3
 72
8
 73
4
 74
0
 40
0
 40
0
 40
0
 40
0
 40
1
 40
1
 40
1
 40
1
 10
104.369800
 20
201.579538
 30
0.0
 10
104.369800
 20
201.447326
 30
0.0
 10
104.460200
 20
201.414002
 30
0.0
 10
104.940890
 20
201.369119
 30
0.0
  0
SPLINE
  5
253
100
AcDbEntity
  8
Layer_2
 62
7
100
AcDbSpline
 70
8
 71
3
 72
8
 73
4
 74
0
 40
0
 40
0
 40
0
 40
0
 40
1
 40
1
 40
1
 40
1
 10
104.940890
 20
201.369119
 30
0.0
 10
105.254980
 20
201.339789
 30
0.0
 10
105.524860
 20
201.277129
 30
0.0
 10
105.540610
 20
201.229876
 30
0.0
  0
SPLINE
  5
254
100
AcDbEntity
  8
Layer_2
 62
7
100
AcDbSpline
 70
8
 71
3
 72
8
 73
4
 74
0
 40
0
 40
0
 40
0
 40
0
 40
1
 40
1
 40
1
 40
1
 10
105.540610
 20
201.229876
 30
0.0
 10
105.556310
 20
201.182626
 30
0.0
 10
105.680370
 20
201.143966
 30
0.0
 10
105.816190
 20
201.143966
 30
0.0
  0
SPLINE
  5
255
100
AcDbEntity
  8
Layer_2
 62
7
100
AcDbSpline
 70
8
 71
3
 72
8
 73
4
 74
0
 40
0
 40
0
 40
0
 40
0
 40
1
 40
1
 40
1
 40
1
 10
105.816190
 20
201.143966
 30
0.0
 10
105.952010
 20
201.143966
 30
0.0
 10
106.063130
 20
201.108196
 30
0.0
 10
106.063130
 20
201.064486
 30
0.0
  0
SPLINE
  5
256
100
AcDbEntity
  8
Layer_2
 62
7
100
AcDbSpline
 70
8
 71
3
 72
8
 73
4
 74
0
 40
0
 40
0
 40
0
 40
0
 40
1
 40
1
 40
1
 40
1
 10
106.063130
 20
201.064486
 30
0.0
 10
106.063130
 20
201.020776
 30
0.0
 10
106.234580
 20
200.959296
 30
0.0
 10
106.444130
 20
200.927872
 30
0.0
  0
SPLINE
  5
257
100
AcDbEntity
  8
Layer_2
 62
7
100
AcDbSpline
 70
8
 71
3
 72
8
 73
4
 74
0
 40
0
 40
0
 40
0
 40
0
 40
1
 40
1
 40
1
 40
1
 10
106.444130
 20
200.927872
 30
0.0
 10
106.653680
 20
200.896452
 30
0.0
 10
106.825130
 20
200.836962
 30
0.0
 10
106.825130
 20
200.795685
 30
0.0
  0
SPLINE
  5
258
100
AcDbEntity
  8
Layer_2
 62
7
100
AcDbSpline
 70
8
 71
3
 72
8
 73
4
 74
0
 40
0
 40
0
 40
0
 40
0
 40
1
 40
1
 40
1
 40
1
 10
106.825130
 20
200.795685
 30
0.0
 10
106.825130
 20
200.754405
 30
0.0
 10
106.882230
 20
200.720635
 30
0.0
 10
106.952130
 20
200.720635
 30
0.0
  0
SPLINE
  5
259
100
AcDbEntity
  8
Layer_2
 62
7
100
AcDbSpline
 70
8
 71
3
 72
8
 73
4
 74
0
 40
0
 40
0
 40
0
 40
0
 40
1
 40
1
 40
1
 40
1
 10
106.952130
 20
200.720635
 30
0.0
 10
107.022030
 20
200.720635
 30
0.0
 10
107.079130
 20
200.687405
 30
0.0
 10
107.079130
 20
200.646795
 30
0.0
  0
SPLINE
  5
25a
100
AcDbEntity
  8
Layer_2
 62
7
100
AcDbSpline
 70
8
 71
3
 72
8
 73
4
 74
0
 40
0
 40
0
 40
0
 40
0
 40
1
 40
1
 40
1
 40
1
 10
107.079130
 20
200.646795
 30
0.0
 10
107.079130
 20
200.606175
 30
0.0
 10
107.231530
 20
200.548575
 30
0.0
 10
107.417800
 20
200.518794
 30
0.0
  0
SPLINE
  5
25b
100
AcDbEntity
  8
Layer_2
 62
7
100
AcDbSpline
 70
8
 71
3
 72
8
 73
4
 74
0
 40
0
 40
0
 40
0
 40
0
 40
1
 40
1
 40
1
 40
1
 10
107.417800
 20
200.518794
 30
0.0
 10
107.604070
 20
200.489004
 30
0.0
 10
107.756470
 20
200.426984
 30
0.0
 10
107.756470
 20
200.380973
 30
0.0
  0
SPLINE
  5
25c
100
AcDbEntity
  8
Layer_2
 62
7
100
AcDbSpline
 70
8
 71
3
 72
8
 73
4
 74
0
 40
0
 40
0
 40
0
 40
0
 40
1
 40
1
 40
1
 40
1
 10
107.756470
 20
200.380973
 30
0.0
 10
107.756470
 20
200.334953
 30
0.0
 10
107.813670
 20
200.297303
 30
0.0
 10
107.883470
 20
200.297303
 30
0.0
  0
SPLINE
  5
25d
100
AcDbEntity
  8
Layer_2
 62
7
100
AcDbSpline
 70
8
 71
3
 72
8
 73
4
 74
0
 40
0
 40
0
 40
0
 40
0
 40
1
 40
1
 40
1
 40
1
 10
107.883470
 20
200.297303
 30
0.0
 10
107.953270
 20
200.297303
 30
0.0
 10
108.010470
 20
200.263963
 30
0.0
 10
108.010470
 20
200.223223
 30
0.0
  0
SPLINE
  5
25e
100
AcDbEntity
  8
Layer_2
 62
7
100
AcDbSpline
 70
8
 71
3
 72
8
 73
4
 74
0
 40
0
 40
0
 40
0
 40
0
 40
1
 40
1
 40
1
 40
1
 10
108.010470
 20
200.223223
 30
0.0
 10
108.010470
 20
200.182473
 30
0.0
 10
108.129890
 20
200.125253
 30
0.0
 10
108.275840
 20
200.096065
 30
0.0
  0
SPLINE
  5
25f
100
AcDbEntity
  8
Layer_2
 62
7
100
AcDbSpline
 70
8
 71
3
 72
8
 73
4
 74
0
 40
0
 40
0
 40
0
 40
0
 40
1
 40
1
 40
1
 40
1
 10
108.275840
 20
200.096065
 30
0.0
 10
108.421800
 20
200.066875
 30
0.0
 10
108.602770
 20
199.972311
 30
0.0
 10
108.678010
 20
199.885926
 30
0.0
  0
SPLINE
  5
260
100
AcDbEntity
  8
Layer_2
 62
7
100
AcDbSpline
 70
8
 71
3
 72
8
 73
4
 74
0
 40
0
 40
0
 40
0
 40
0
 40
1
 40
1
 40
1
 40
1
 10
108.678010
 20
199.885926
 30
0.0
 10
108.753210
 20
199.799536
 30
0.0
 10
108.910050
 20
199.698912
 30
0.0
 10
109.026470
 20
199.662306
 30
0.0
  0
SPLINE
  5
261
100
AcDbEntity
  8
Layer_2
 62
7
100
AcDbSpline
 70
8
 71
3
 72
8
 73
4
 74
0
 40
0
 40
0
 40
0
 40
0
 40
1
 40
1
 40
1
 40
1
 10
109.026470
 20
199.662306
 30
0.0
 10
109.142880
 20
199.625696
 30
0.0
 10
109.299750
 20
199.525000
 30
0.0
 10
109.375070
 20
199.438528
 30
0.0
  0
SPLINE
  5
262
100
AcDbEntity
  8
Layer_2
 62
7
100
AcDbSpline
 70
8
 71
3
 72
8
 73
4
 74
0
 40
0
 40
0
 40
0
 40
0
 40
1
 40
1
 40
1
 40
1
 10
109.375070
 20
199.438528
 30
0.0
 10
109.450370
 20
199.352058
 30
0.0
 10
109.553420
 20
199.281306
 30
0.0
 10
109.604050
 20
199.281306
 30
0.0
  0
SPLINE
  5
263
100
AcDbEntity
  8
Layer_2
 62
7
100
AcDbSpline
 70
8
 71
3
 72
8
 73
4
 74
0
 40
0
 40
0
 40
0
 40
0
 40
1
 40
1
 40
1
 40
1
 10
109.604050
 20
199.281306
 30
0.0
 10
109.654650
 20
199.281306
 30
0.0
 10
109.786790
 20
199.190626
 30
0.0
 10
109.897620
 20
199.079787
 30
0.0
  0
SPLINE
  5
264
100
AcDbEntity
  8
Layer_2
 62
7
100
AcDbSpline
 70
8
 71
3
 72
8
 73
4
 74
0
 40
0
 40
0
 40
0
 40
0
 40
1
 40
1
 40
1
 40
1
 10
109.897620
 20
199.079787
 30
0.0
 10
110.008460
 20
198.968951
 30
0.0
 10
110.181640
 20
198.852084
 30
0.0
 10
110.282470
 20
198.820081
 30
0.0
  0
SPLINE
  5
265
100
AcDbEntity
  8
Layer_2
 62
7
100
AcDbSpline
 70
8
 71
3
 72
8
 73
4
 74
0
 40
0
 40
0
 40
0
 40
0
 40
1
 40
1
 40
1
 40
1
 10
110.282470
 20
198.820081
 30
0.0
 10
110.383300
 20
198.788081
 30
0.0
 10
110.465800
 20
198.730491
 30
0.0
 10
110.465800
 20
198.692112
 30
0.0
  0
SPLINE
  5
266
100
AcDbEntity
  8
Layer_2
 62
7
100
AcDbSpline
 70
8
 71
3
 72
8
 73
4
 74
0
 40
0
 40
0
 40
0
 40
0
 40
1
 40
1
 40
1
 40
1
 10
110.465800
 20
198.692112
 30
0.0
 10
110.465800
 20
198.653732
 30
0.0
 10
110.558500
 20
198.599062
 30
0.0
 10
110.671830
 20
198.570621
 30
0.0
  0
SPLINE
  5
267
100
AcDbEntity
  8
Layer_2
 62
7
100
AcDbSpline
 70
8
 71
3
 72
8
 73
4
 74
0
 40
0
 40
0
 40
0
 40
0
 40
1
 40
1
 40
1
 40
1
 10
110.671830
 20
198.570621
 30
0.0
 10
110.785140
 20
198.542181
 30
0.0
 10
110.901390
 20
198.444750
 30
0.0
 10
110.930160
 20
198.354107
 30
0.0
  0
SPLINE
  5
268
100
AcDbEntity
  8
Layer_2
 62
7
100
AcDbSpline
 70
8
 71
3
 72
8
 73
4
 74
0
 40
0
 40
0
 40
0
 40
0
 40
1
 40
1
 40
1
 40
1
 10
110.930160
 20
198.354107
 30
0.0
 10
110.958960
 20
198.263467
 30
0.0
 10
111.064070
 20
198.163400
 30
0.0
 10
111.163810
 20
198.131744
 30
0.0
  0
SPLINE
  5
269
100
AcDbEntity
  8
Layer_2
 62
7
100
AcDbSpline
 70
8
 71
3
 72
8
 73
4
 74
0
 40
0
 40
0
 40
0
 40
0
 40
1
 40
1
 40
1
 40
1
 10
111.163810
 20
198.131744
 30
0.0
 10
111.368580
 20
198.066754
 30
0.0
 10
113.513800
 20
195.945000
 30
0.0
 10
113.513800
 20
195.807470
 30
0.0
  0
SPLINE
  5
26a
100
AcDbEntity
  8
Layer_2
 62
7
100
AcDbSpline
 70
8
 71
3
 72
8
 73
4
 74
0
 40
0
 40
0
 40
0
 40
0
 40
1
 40
1
 40
1
 40
1
 10
113.513800
 20
195.807470
 30
0.0
 10
113.513800
 20
195.758570
 30
0.0
 10
113.666200
 20
195.573550
 30
0.0
 10
113.852470
 20
195.396360
 30
0.0
  0
SPLINE
  5
26b
100
AcDbEntity
  8
Layer_2
 62
7
100
AcDbSpline
 70
8
 71
3
 72
8
 73
4
 74
0
 40
0
 40
0
 40
0
 40
0
 40
1
 40
1
 40
1
 40
1
 10
113.852470
 20
195.396360
 30
0.0
 10
114.038740
 20
195.219170
 30
0.0
 10
114.191140
 20
195.013710
 30
0.0
 10
114.191140
 20
194.939790
 30
0.0
  0
SPLINE
  5
26c
100
AcDbEntity
  8
Layer_2
 62
7
100
AcDbSpline
 70
8
 71
3
 72
8
 73
4
 74
0
 40
0
 40
0
 40
0
 40
0
 40
1
 40
1
 40
1
 40
1
 10
114.191140
 20
194.939790
 30
0.0
 10
114.191140
 20
194.865890
 30
0.0
 10
114.265440
 20
194.781820
 30
0.0
 10
114.356140
 20
194.753010
 30
0.0
  0
SPLINE
  5
26d
100
AcDbEntity
  8
Layer_2
 62
7
100
AcDbSpline
 70
8
 71
3
 72
8
 73
4
 74
0
 40
0
 40
0
 40
0
 40
0
 40
1
 40
1
 40
1
 40
1
 10
114.356140
 20
194.753010
 30
0.0
 10
114.446840
 20
194.724210
 30
0.0
 10
114.547590
 20
194.616870
 30
0.0
 10
114.579920
 20
194.514480
 30
0.0
  0
SPLINE
  5
26e
100
AcDbEntity
  8
Layer_2
 62
7
100
AcDbSpline
 70
8
 71
3
 72
8
 73
4
 74
0
 40
0
 40
0
 40
0
 40
0
 40
1
 40
1
 40
1
 40
1
 10
114.579920
 20
194.514480
 30
0.0
 10
114.612220
 20
194.412080
 30
0.0
 10
114.703990
 20
194.271160
 30
0.0
 10
114.783800
 20
194.201310
 30
0.0
  0
SPLINE
  5
26f
100
AcDbEntity
  8
Layer_2
 62
7
100
AcDbSpline
 70
8
 71
3
 72
8
 73
4
 74
0
 40
0
 40
0
 40
0
 40
0
 40
1
 40
1
 40
1
 40
1
 10
114.783800
 20
194.201310
 30
0.0
 10
114.863600
 20
194.131410
 30
0.0
 10
114.955980
 20
193.988580
 30
0.0
 10
114.989060
 20
193.883810
 30
0.0
  0
SPLINE
  5
270
100
AcDbEntity
  8
Layer_2
 62
7
100
AcDbSpline
 70
8
 71
3
 72
8
 73
4
 74
0
 40
0
 40
0
 40
0
 40
0
 40
1
 40
1
 40
1
 40
1
 10
114.989060
 20
193.883810
 30
0.0
 10
115.022160
 20
193.779030
 30
0.0
 10
115.084760
 20
193.693310
 30
0.0
 10
115.128170
 20
193.693310
 30
0.0
  0
SPLINE
  5
271
100
AcDbEntity
  8
Layer_2
 62
7
100
AcDbSpline
 70
8
 71
3
 72
8
 73
4
 74
0
 40
0
 40
0
 40
0
 40
0
 40
1
 40
1
 40
1
 40
1
 10
115.128170
 20
193.693310
 30
0.0
 10
115.171570
 20
193.693310
 30
0.0
 10
115.207170
 20
193.636110
 30
0.0
 10
115.207170
 20
193.566310
 30
0.0
  0
SPLINE
  5
272
100
AcDbEntity
  8
Layer_2
 62
7
100
AcDbSpline
 70
8
 71
3
 72
8
 73
4
 74
0
 40
0
 40
0
 40
0
 40
0
 40
1
 40
1
 40
1
 40
1
 10
115.207170
 20
193.566310
 30
0.0
 10
115.207170
 20
193.496510
 30
0.0
 10
115.244570
 20
193.439310
 30
0.0
 10
115.290270
 20
193.439310
 30
0.0
  0
SPLINE
  5
273
100
AcDbEntity
  8
Layer_2
 62
7
100
AcDbSpline
 70
8
 71
3
 72
8
 73
4
 74
0
 40
0
 40
0
 40
0
 40
0
 40
1
 40
1
 40
1
 40
1
 10
115.290270
 20
193.439310
 30
0.0
 10
115.335970
 20
193.439310
 30
0.0
 10
115.397230
 20
193.344110
 30
0.0
 10
115.426450
 20
193.227640
 30
0.0
  0
SPLINE
  5
274
100
AcDbEntity
  8
Layer_2
 62
7
100
AcDbSpline
 70
8
 71
3
 72
8
 73
4
 74
0
 40
0
 40
0
 40
0
 40
0
 40
1
 40
1
 40
1
 40
1
 10
115.426450
 20
193.227640
 30
0.0
 10
115.455650
 20
193.111220
 30
0.0
 10
115.513550
 20
193.015970
 30
0.0
 10
115.555060
 20
193.015970
 30
0.0
  0
SPLINE
  5
275
100
AcDbEntity
  8
Layer_2
 62
7
100
AcDbSpline
 70
8
 71
3
 72
8
 73
4
 74
0
 40
0
 40
0
 40
0
 40
0
 40
1
 40
1
 40
1
 40
1
 10
115.555060
 20
193.015970
 30
0.0
 10
115.596560
 20
193.015970
 30
0.0
 10
115.630560
 20
192.958770
 30
0.0
 10
115.630560
 20
192.888970
 30
0.0
  0
SPLINE
  5
276
100
AcDbEntity
  8
Layer_2
 62
7
100
AcDbSpline
 70
8
 71
3
 72
8
 73
4
 74
0
 40
0
 40
0
 40
0
 40
0
 40
1
 40
1
 40
1
 40
1
 10
115.630560
 20
192.888970
 30
0.0
 10
115.630560
 20
192.819070
 30
0.0
 10
115.667960
 20
192.761970
 30
0.0
 10
115.713660
 20
192.761970
 30
0.0
  0
SPLINE
  5
277
100
AcDbEntity
  8
Layer_2
 62
7
100
AcDbSpline
 70
8
 71
3
 72
8
 73
4
 74
0
 40
0
 40
0
 40
0
 40
0
 40
1
 40
1
 40
1
 40
1
 10
115.713660
 20
192.761970
 30
0.0
 10
115.759360
 20
192.761970
 30
0.0
 10
115.820620
 20
192.666770
 30
0.0
 10
115.849840
 20
192.550310
 30
0.0
  0
SPLINE
  5
278
100
AcDbEntity
  8
Layer_2
 62
7
100
AcDbSpline
 70
8
 71
3
 72
8
 73
4
 74
0
 40
0
 40
0
 40
0
 40
0
 40
1
 40
1
 40
1
 40
1
 10
115.849840
 20
192.550310
 30
0.0
 10
115.879040
 20
192.433890
 30
0.0
 10
115.936940
 20
192.338640
 30
0.0
 10
115.978450
 20
192.338640
 30
0.0
  0
SPLINE
  5
279
100
AcDbEntity
  8
Layer_2
 62
7
100
AcDbSpline
 70
8
 71
3
 72
8
 73
4
 74
0
 40
0
 40
0
 40
0
 40
0
 40
1
 40
1
 40
1
 40
1
 10
115.978450
 20
192.338640
 30
0.0
 10
116.019950
 20
192.338640
 30
0.0
 10
116.053950
 20
192.262440
 30
0.0
 10
116.053950
 20
192.169310
 30
0.0
  0
SPLINE
  5
27a
100
AcDbEntity
  8
Layer_2
 62
7
100
AcDbSpline
 70
8
 71
3
 72
8
 73
4
 74
0
 40
0
 40
0
 40
0
 40
0
 40
1
 40
1
 40
1
 40
1
 10
116.053950
 20
192.169310
 30
0.0
 10
116.053950
 20
192.076210
 30
0.0
 10
116.089050
 20
191.999970
 30
0.0
 10
116.131850
 20
191.999970
 30
0.0
  0
SPLINE
  5
27b
100
AcDbEntity
  8
Layer_2
 62
7
100
AcDbSpline
 70
8
 71
3
 72
8
 73
4
 74
0
 40
0
 40
0
 40
0
 40
0
 40
1
 40
1
 40
1
 40
1
 10
116.131850
 20
191.999970
 30
0.0
 10
116.174750
 20
191.999970
 30
0.0
 10
116.234900
 20
191.885670
 30
0.0
 10
116.265580
 20
191.745970
 30
0.0
  0
SPLINE
  5
27c
100
AcDbEntity
  8
Layer_2
 62
7
100
AcDbSpline
 70
8
 71
3
 72
8
 73
4
 74
0
 40
0
 40
0
 40
0
 40
0
 40
1
 40
1
 40
1
 40
1
 10
116.265580
 20
191.745970
 30
0.0
 10
116.296280
 20
191.606270
 30
0.0
 10
116.356480
 20
191.491970
 30
0.0
 10
116.399310
 20
191.491970
 30
0.0
  0
SPLINE
  5
27d
100
AcDbEntity
  8
Layer_2
 62
7
100
AcDbSpline
 70
8
 71
3
 72
8
 73
4
 74
0
 40
0
 40
0
 40
0
 40
0
 40
1
 40
1
 40
1
 40
1
 10
116.399310
 20
191.491970
 30
0.0
 10
116.442210
 20
191.491970
 30
0.0
 10
116.477210
 20
191.415770
 30
0.0
 10
116.477210
 20
191.322640
 30
0.0
  0
SPLINE
  5
27e
100
AcDbEntity
  8
Layer_2
 62
7
100
AcDbSpline
 70
8
 71
3
 72
8
 73
4
 74
0
 40
0
 40
0
 40
0
 40
0
 40
1
 40
1
 40
1
 40
1
 10
116.477210
 20
191.322640
 30
0.0
 10
116.477210
 20
191.229540
 30
0.0
 10
116.512310
 20
191.153310
 30
0.0
 10
116.555110
 20
191.153310
 30
0.0
  0
SPLINE
  5
27f
100
AcDbEntity
  8
Layer_2
 62
7
100
AcDbSpline
 70
8
 71
3
 72
8
 73
4
 74
0
 40
0
 40
0
 40
0
 40
0
 40
1
 40
1
 40
1
 40
1
 10
116.555110
 20
191.153310
 30
0.0
 10
116.598010
 20
191.153310
 30
0.0
 10
116.658160
 20
191.039010
 30
0.0
 10
116.688840
 20
190.899310
 30
0.0
  0
SPLINE
  5
280
100
AcDbEntity
  8
Layer_2
 62
7
100
AcDbSpline
 70
8
 71
3
 72
8
 73
4
 74
0
 40
0
 40
0
 40
0
 40
0
 40
1
 40
1
 40
1
 40
1
 10
116.688840
 20
190.899310
 30
0.0
 10
116.719540
 20
190.759610
 30
0.0
 10
116.779740
 20
190.645310
 30
0.0
 10
116.822570
 20
190.645310
 30
0.0
  0
SPLINE
  5
281
100
AcDbEntity
  8
Layer_2
 62
7
100
AcDbSpline
 70
8
 71
3
 72
8
 73
4
 74
0
 40
0
 40
0
 40
0
 40
0
 40
1
 40
1
 40
1
 40
1
 10
116.822570
 20
190.645310
 30
0.0
 10
116.865470
 20
190.645310
 30
0.0
 10
116.900470
 20
190.569110
 30
0.0
 10
116.900470
 20
190.475970
 30
0.0
  0
SPLINE
  5
282
100
AcDbEntity
  8
Layer_2
 62
7
100
AcDbSpline
 70
8
 71
3
 72
8
 73
4
 74
0
 40
0
 40
0
 40
0
 40
0
 40
1
 40
1
 40
1
 40
1
 10
116.900470
 20
190.475970
 30
0.0
 10
116.900470
 20
190.382870
 30
0.0
 10
116.933670
 20
190.306640
 30
0.0
 10
116.974270
 20
190.306640
 30
0.0
  0
SPLINE
  5
283
100
AcDbEntity
  8
Layer_2
 62
7
100
AcDbSpline
 70
8
 71
3
 72
8
 73
4
 74
0
 40
0
 40
0
 40
0
 40
0
 40
1
 40
1
 40
1
 40
1
 10
116.974270
 20
190.306640
 30
0.0
 10
117.014870
 20
190.306640
 30
0.0
 10
117.072470
 20
190.154240
 30
0.0
 10
117.102270
 20
189.967970
 30
0.0
  0
SPLINE
  5
284
100
AcDbEntity
  8
Layer_2
 62
7
100
AcDbSpline
 70
8
 71
3
 72
8
 73
4
 74
0
 40
0
 40
0
 40
0
 40
0
 40
1
 40
1
 40
1
 40
1
 10
117.102270
 20
189.967970
 30
0.0
 10
117.132070
 20
189.781710
 30
0.0
 10
117.194070
 20
189.629310
 30
0.0
 10
117.240100
 20
189.629310
 30
0.0
  0
SPLINE
  5
285
100
AcDbEntity
  8
Layer_2
 62
7
100
AcDbSpline
 70
8
 71
3
 72
8
 73
4
 74
0
 40
0
 40
0
 40
0
 40
0
 40
1
 40
1
 40
1
 40
1
 10
117.240100
 20
189.629310
 30
0.0
 10
117.286100
 20
189.629310
 30
0.0
 10
117.323800
 20
189.534110
 30
0.0
 10
117.323800
 20
189.417640
 30
0.0
  0
SPLINE
  5
286
100
AcDbEntity
  8
Layer_2
 62
7
100
AcDbSpline
 70
8
 71
3
 72
8
 73
4
 74
0
 40
0
 40
0
 40
0
 40
0
 40
1
 40
1
 40
1
 40
1
 10
117.323800
 20
189.417640
 30
0.0
 10
117.323800
 20
189.301220
 30
0.0
 10
117.358300
 20
189.205970
 30
0.0
 10
117.400500
 20
189.205970
 30
0.0
  0
SPLINE
  5
287
100
AcDbEntity
  8
Layer_2
 62
7
100
AcDbSpline
 70
8
 71
3
 72
8
 73
4
 74
0
 40
0
 40
0
 40
0
 40
0
 40
1
 40
1
 40
1
 40
1
 10
117.400500
 20
189.205970
 30
0.0
 10
117.442700
 20
189.205970
 30
0.0
 10
117.503430
 20
189.015470
 30
0.0
 10
117.535450
 20
188.782640
 30
0.0
  0
SPLINE
  5
288
100
AcDbEntity
  8
Layer_2
 62
7
100
AcDbSpline
 70
8
 71
3
 72
8
 73
4
 74
0
 40
0
 40
0
 40
0
 40
0
 40
1
 40
1
 40
1
 40
1
 10
117.535450
 20
188.782640
 30
0.0
 10
117.567450
 20
188.549810
 30
0.0
 10
117.628150
 20
188.359310
 30
0.0
 10
117.670390
 20
188.359310
 30
0.0
  0
SPLINE
  5
289
100
AcDbEntity
  8
Layer_2
 62
7
100
AcDbSpline
 70
8
 71
3
 72
8
 73
4
 74
0
 40
0
 40
0
 40
0
 40
0
 40
1
 40
1
 40
1
 40
1
 10
117.670390
 20
188.359310
 30
0.0
 10
117.712590
 20
188.359310
 30
0.0
 10
117.747090
 20
188.264110
 30
0.0
 10
117.747090
 20
188.147640
 30
0.0
  0
SPLINE
  5
28a
100
AcDbEntity
  8
Layer_2
 62
7
100
AcDbSpline
 70
8
 71
3
 72
8
 73
4
 74
0
 40
0
 40
0
 40
0
 40
0
 40
1
 40
1
 40
1
 40
1
 10
117.747090
 20
188.147640
 30
0.0
 10
117.747090
 20
188.031220
 30
0.0
 10
117.782190
 20
187.935970
 30
0.0
 10
117.824990
 20
187.935970
 30
0.0
  0
SPLINE
  5
28b
100
AcDbEntity
  8
Layer_2
 62
7
100
AcDbSpline
 70
8
 71
3
 72
8
 73
4
 74
0
 40
0
 40
0
 40
0
 40
0
 40
1
 40
1
 40
1
 40
1
 10
117.824990
 20
187.935970
 30
0.0
 10
117.867890
 20
187.935970
 30
0.0
 10
117.929440
 20
187.688320
 30
0.0
 10
117.961860
 20
187.385640
 30
0.0
  0
SPLINE
  5
28c
100
AcDbEntity
  8
Layer_2
 62
7
100
AcDbSpline
 70
8
 71
3
 72
8
 73
4
 74
0
 40
0
 40
0
 40
0
 40
0
 40
1
 40
1
 40
1
 40
1
 10
117.961860
 20
187.385640
 30
0.0
 10
117.994260
 20
187.082960
 30
0.0
 10
118.054460
 20
186.835310
 30
0.0
 10
118.095600
 20
186.835310
 30
0.0
  0
SPLINE
  5
28d
100
AcDbEntity
  8
Layer_2
 62
7
100
AcDbSpline
 70
8
 71
3
 72
8
 73
4
 74
0
 40
0
 40
0
 40
0
 40
0
 40
1
 40
1
 40
1
 40
1
 10
118.095600
 20
186.835310
 30
0.0
 10
118.136700
 20
186.835310
 30
0.0
 10
118.170400
 20
186.647980
 30
0.0
 10
118.170400
 20
186.419030
 30
0.0
  0
SPLINE
  5
28e
100
AcDbEntity
  8
Layer_2
 62
7
100
AcDbSpline
 70
8
 71
3
 72
8
 73
4
 74
0
 40
0
 40
0
 40
0
 40
0
 40
1
 40
1
 40
1
 40
1
 10
118.170400
 20
186.419030
 30
0.0
 10
118.170400
 20
186.161270
 30
0.0
 10
118.210700
 20
185.989320
 30
0.0
 10
118.276230
 20
185.967470
 30
0.0
  0
SPLINE
  5
28f
100
AcDbEntity
  8
Layer_2
 62
7
100
AcDbSpline
 70
8
 71
3
 72
8
 73
4
 74
0
 40
0
 40
0
 40
0
 40
0
 40
1
 40
1
 40
1
 40
1
 10
118.276230
 20
185.967470
 30
0.0
 10
118.429790
 20
185.916270
 30
0.0
 10
118.429790
 20
181.573670
 30
0.0
 10
118.276230
 20
181.522480
 30
0.0
  0
SPLINE
  5
290
100
AcDbEntity
  8
Layer_2
 62
7
100
AcDbSpline
 70
8
 71
3
 72
8
 73
4
 74
0
 40
0
 40
0
 40
0
 40
0
 40
1
 40
1
 40
1
 40
1
 10
118.276230
 20
181.522480
 30
0.0
 10
118.218030
 20
181.503080
 30
0.0
 10
118.170400
 20
181.357020
 30
0.0
 10
118.170400
 20
181.197920
 30
0.0
  0
SPLINE
  5
291
100
AcDbEntity
  8
Layer_2
 62
7
100
AcDbSpline
 70
8
 71
3
 72
8
 73
4
 74
0
 40
0
 40
0
 40
0
 40
0
 40
1
 40
1
 40
1
 40
1
 10
118.170400
 20
181.197920
 30
0.0
 10
118.170400
 20
181.038810
 30
0.0
 10
118.137200
 20
180.908640
 30
0.0
 10
118.096600
 20
180.908640
 30
0.0
  0
SPLINE
  5
292
100
AcDbEntity
  8
Layer_2
 62
7
100
AcDbSpline
 70
8
 71
3
 72
8
 73
4
 74
0
 40
0
 40
0
 40
0
 40
0
 40
1
 40
1
 40
1
 40
1
 10
118.096600
 20
180.908640
 30
0.0
 10
118.056000
 20
180.908640
 30
0.0
 10
117.997100
 20
180.714630
 30
0.0
 10
117.965650
 20
180.477510
 30
0.0
  0
SPLINE
  5
293
100
AcDbEntity
  8
Layer_2
 62
7
100
AcDbSpline
 70
8
 71
3
 72
8
 73
4
 74
0
 40
0
 40
0
 40
0
 40
0
 40
1
 40
1
 40
1
 40
1
 10
117.965650
 20
180.477510
 30
0.0
 10
117.886850
 20
179.883320
 30
0.0
 10
117.595610
 20
179.592250
 30
0.0
 10
117.099180
 20
179.611460
 30
0.0
  0
SPLINE
  5
294
100
AcDbEntity
  8
Layer_2
 62
7
100
AcDbSpline
 70
8
 71
3
 72
8
 73
4
 74
0
 40
0
 40
0
 40
0
 40
0
 40
1
 40
1
 40
1
 40
1
 10
117.099180
 20
179.611460
 30
0.0
 10
116.761120
 20
179.624560
 30
0.0
 10
116.683410
 20
179.680460
 30
0.0
 10
115.845900
 20
180.513960
 30
0.0
  0
SPLINE
  5
295
100
AcDbEntity
  8
Layer_2
 62
7
100
AcDbSpline
 70
8
 71
3
 72
8
 73
4
 74
0
 40
0
 40
0
 40
0
 40
0
 40
1
 40
1
 40
1
 40
1
 10
115.845900
 20
180.513960
 30
0.0
 10
115.354820
 20
181.002670
 30
0.0
 10
114.953030
 20
181.460280
 30
0.0
 10
114.953030
 20
181.530870
 30
0.0
  0
SPLINE
  5
296
100
AcDbEntity
  8
Layer_2
 62
7
100
AcDbSpline
 70
8
 71
3
 72
8
 73
4
 74
0
 40
0
 40
0
 40
0
 40
0
 40
1
 40
1
 40
1
 40
1
 10
114.953030
 20
181.530870
 30
0.0
 10
114.953030
 20
181.601470
 30
0.0
 10
114.878730
 20
181.682790
 30
0.0
 10
114.788020
 20
181.711600
 30
0.0
  0
SPLINE
  5
297
100
AcDbEntity
  8
Layer_2
 62
7
100
AcDbSpline
 70
8
 71
3
 72
8
 73
4
 74
0
 40
0
 40
0
 40
0
 40
0
 40
1
 40
1
 40
1
 40
1
 10
114.788020
 20
181.711600
 30
0.0
 10
114.697320
 20
181.740400
 30
0.0
 10
114.599450
 20
181.838220
 30
0.0
 10
114.570650
 20
181.928970
 30
0.0
  0
SPLINE
  5
298
100
AcDbEntity
  8
Layer_2
 62
7
100
AcDbSpline
 70
8
 71
3
 72
8
 73
4
 74
0
 40
0
 40
0
 40
0
 40
0
 40
1
 40
1
 40
1
 40
1
 10
114.570650
 20
181.928970
 30
0.0
 10
114.541850
 20
182.019670
 30
0.0
 10
114.482750
 20
182.093970
 30
0.0
 10
114.439320
 20
182.093970
 30
0.0
  0
SPLINE
  5
299
100
AcDbEntity
  8
Layer_2
 62
7
100
AcDbSpline
 70
8
 71
3
 72
8
 73
4
 74
0
 40
0
 40
0
 40
0
 40
0
 40
1
 40
1
 40
1
 40
1
 10
114.439320
 20
182.093970
 30
0.0
 10
114.395920
 20
182.093970
 30
0.0
 10
114.360320
 20
182.137070
 30
0.0
 10
114.360320
 20
182.189770
 30
0.0
  0
SPLINE
  5
29a
100
AcDbEntity
  8
Layer_2
 62
7
100
AcDbSpline
 70
8
 71
3
 72
8
 73
4
 74
0
 40
0
 40
0
 40
0
 40
0
 40
1
 40
1
 40
1
 40
1
 10
114.360320
 20
182.189770
 30
0.0
 10
114.360320
 20
182.242470
 30
0.0
 10
114.231790
 20
182.406820
 30
0.0
 10
114.074700
 20
182.554970
 30
0.0
  0
SPLINE
  5
29b
100
AcDbEntity
  8
Layer_2
 62
7
100
AcDbSpline
 70
8
 71
3
 72
8
 73
4
 74
0
 40
0
 40
0
 40
0
 40
0
 40
1
 40
1
 40
1
 40
1
 10
114.074700
 20
182.554970
 30
0.0
 10
113.917620
 20
182.703130
 30
0.0
 10
113.763270
 20
182.905700
 30
0.0
 10
113.731710
 20
183.005140
 30
0.0
  0
SPLINE
  5
29c
100
AcDbEntity
  8
Layer_2
 62
7
100
AcDbSpline
 70
8
 71
3
 72
8
 73
4
 74
0
 40
0
 40
0
 40
0
 40
0
 40
1
 40
1
 40
1
 40
1
 10
113.731710
 20
183.005140
 30
0.0
 10
113.700110
 20
183.104540
 30
0.0
 10
113.590550
 20
183.212390
 30
0.0
 10
113.488150
 20
183.244710
 30
0.0
  0
SPLINE
  5
29d
100
AcDbEntity
  8
Layer_2
 62
7
100
AcDbSpline
 70
8
 71
3
 72
8
 73
4
 74
0
 40
0
 40
0
 40
0
 40
0
 40
1
 40
1
 40
1
 40
1
 10
113.488150
 20
183.244710
 30
0.0
 10
113.385760
 20
183.277010
 30
0.0
 10
113.244840
 20
183.368790
 30
0.0
 10
113.174990
 20
183.448600
 30
0.0
  0
SPLINE
  5
29e
100
AcDbEntity
  8
Layer_2
 62
7
100
AcDbSpline
 70
8
 71
3
 72
8
 73
4
 74
0
 40
0
 40
0
 40
0
 40
0
 40
1
 40
1
 40
1
 40
1
 10
113.174990
 20
183.448600
 30
0.0
 10
113.105090
 20
183.528400
 30
0.0
 10
112.952740
 20
183.617860
 30
0.0
 10
112.836320
 20
183.647370
 30
0.0
  0
SPLINE
  5
29f
100
AcDbEntity
  8
Layer_2
 62
7
100
AcDbSpline
 70
8
 71
3
 72
8
 73
4
 74
0
 40
0
 40
0
 40
0
 40
0
 40
1
 40
1
 40
1
 40
1
 10
112.836320
 20
183.647370
 30
0.0
 10
112.719900
 20
183.676870
 30
0.0
 10
112.672280
 20
183.679170
 30
0.0
 10
112.730480
 20
183.652370
 30
0.0
  0
SPLINE
  5
2a0
100
AcDbEntity
  8
Layer_2
 62
7
100
AcDbSpline
 70
8
 71
3
 72
8
 73
4
 74
0
 40
0
 40
0
 40
0
 40
0
 40
1
 40
1
 40
1
 40
1
 10
112.730480
 20
183.652370
 30
0.0
 10
112.788680
 20
183.625670
 30
0.0
 10
112.836320
 20
183.511680
 30
0.0
 10
112.836320
 20
183.399150
 30
0.0
  0
SPLINE
  5
2a1
100
AcDbEntity
  8
Layer_2
 62
7
100
AcDbSpline
 70
8
 71
3
 72
8
 73
4
 74
0
 40
0
 40
0
 40
0
 40
0
 40
1
 40
1
 40
1
 40
1
 10
112.836320
 20
183.399150
 30
0.0
 10
112.836320
 20
183.286610
 30
0.0
 10
112.869520
 20
183.194540
 30
0.0
 10
112.910120
 20
183.194540
 30
0.0
  0
SPLINE
  5
2a2
100
AcDbEntity
  8
Layer_2
 62
7
100
AcDbSpline
 70
8
 71
3
 72
8
 73
4
 74
0
 40
0
 40
0
 40
0
 40
0
 40
1
 40
1
 40
1
 40
1
 10
112.910120
 20
183.194540
 30
0.0
 10
112.950720
 20
183.194540
 30
0.0
 10
113.008320
 20
183.042140
 30
0.0
 10
113.038120
 20
182.855870
 30
0.0
  0
SPLINE
  5
2a3
100
AcDbEntity
  8
Layer_2
 62
7
100
AcDbSpline
 70
8
 71
3
 72
8
 73
4
 74
0
 40
0
 40
0
 40
0
 40
0
 40
1
 40
1
 40
1
 40
1
 10
113.038120
 20
182.855870
 30
0.0
 10
113.067920
 20
182.669600
 30
0.0
 10
113.125720
 20
182.517200
 30
0.0
 10
113.166520
 20
182.517200
 30
0.0
  0
SPLINE
  5
2a4
100
AcDbEntity
  8
Layer_2
 62
7
100
AcDbSpline
 70
8
 71
3
 72
8
 73
4
 74
0
 40
0
 40
0
 40
0
 40
0
 40
1
 40
1
 40
1
 40
1
 10
113.166520
 20
182.517200
 30
0.0
 10
113.207320
 20
182.517200
 30
0.0
 10
113.265820
 20
182.383850
 30
0.0
 10
113.296360
 20
182.220870
 30
0.0
  0
SPLINE
  5
2a5
100
AcDbEntity
  8
Layer_2
 62
7
100
AcDbSpline
 70
8
 71
3
 72
8
 73
4
 74
0
 40
0
 40
0
 40
0
 40
0
 40
1
 40
1
 40
1
 40
1
 10
113.296360
 20
182.220870
 30
0.0
 10
113.326960
 20
182.057890
 30
0.0
 10
113.388360
 20
181.924540
 30
0.0
 10
113.432780
 20
181.924540
 30
0.0
  0
SPLINE
  5
2a6
100
AcDbEntity
  8
Layer_2
 62
7
100
AcDbSpline
 70
8
 71
3
 72
8
 73
4
 74
0
 40
0
 40
0
 40
0
 40
0
 40
1
 40
1
 40
1
 40
1
 10
113.432780
 20
181.924540
 30
0.0
 10
113.477280
 20
181.924540
 30
0.0
 10
113.513580
 20
181.867340
 30
0.0
 10
113.513580
 20
181.797540
 30
0.0
  0
SPLINE
  5
2a7
100
AcDbEntity
  8
Layer_2
 62
7
100
AcDbSpline
 70
8
 71
3
 72
8
 73
4
 74
0
 40
0
 40
0
 40
0
 40
0
 40
1
 40
1
 40
1
 40
1
 10
113.513580
 20
181.797540
 30
0.0
 10
113.513580
 20
181.727740
 30
0.0
 10
113.549080
 20
181.670540
 30
0.0
 10
113.592580
 20
181.670540
 30
0.0
  0
SPLINE
  5
2a8
100
AcDbEntity
  8
Layer_2
 62
7
100
AcDbSpline
 70
8
 71
3
 72
8
 73
4
 74
0
 40
0
 40
0
 40
0
 40
0
 40
1
 40
1
 40
1
 40
1
 10
113.592580
 20
181.670540
 30
0.0
 10
113.635980
 20
181.670540
 30
0.0
 10
113.698610
 20
181.584840
 30
0.0
 10
113.731690
 20
181.480040
 30
0.0
  0
SPLINE
  5
2a9
100
AcDbEntity
  8
Layer_2
 62
7
100
AcDbSpline
 70
8
 71
3
 72
8
 73
4
 74
0
 40
0
 40
0
 40
0
 40
0
 40
1
 40
1
 40
1
 40
1
 10
113.731690
 20
181.480040
 30
0.0
 10
113.764790
 20
181.375260
 30
0.0
 10
113.857140
 20
181.232390
 30
0.0
 10
113.936960
 20
181.162540
 30
0.0
  0
SPLINE
  5
2aa
100
AcDbEntity
  8
Layer_2
 62
7
100
AcDbSpline
 70
8
 71
3
 72
8
 73
4
 74
0
 40
0
 40
0
 40
0
 40
0
 40
1
 40
1
 40
1
 40
1
 10
113.936960
 20
181.162540
 30
0.0
 10
114.016760
 20
181.092640
 30
0.0
 10
114.109130
 20
180.949810
 30
0.0
 10
114.142220
 20
180.845040
 30
0.0
  0
SPLINE
  5
2ab
100
AcDbEntity
  8
Layer_2
 62
7
100
AcDbSpline
 70
8
 71
3
 72
8
 73
4
 74
0
 40
0
 40
0
 40
0
 40
0
 40
1
 40
1
 40
1
 40
1
 10
114.142220
 20
180.845040
 30
0.0
 10
114.175320
 20
180.740260
 30
0.0
 10
114.237920
 20
180.654540
 30
0.0
 10
114.281330
 20
180.654540
 30
0.0
  0
SPLINE
  5
2ac
100
AcDbEntity
  8
Layer_2
 62
7
100
AcDbSpline
 70
8
 71
3
 72
8
 73
4
 74
0
 40
0
 40
0
 40
0
 40
0
 40
1
 40
1
 40
1
 40
1
 10
114.281330
 20
180.654540
 30
0.0
 10
114.324730
 20
180.654540
 30
0.0
 10
114.360330
 20
180.613740
 30
0.0
 10
114.360330
 20
180.563840
 30
0.0
  0
SPLINE
  5
2ad
100
AcDbEntity
  8
Layer_2
 62
7
100
AcDbSpline
 70
8
 71
3
 72
8
 73
4
 74
0
 40
0
 40
0
 40
0
 40
0
 40
1
 40
1
 40
1
 40
1
 10
114.360330
 20
180.563840
 30
0.0
 10
114.360330
 20
180.513940
 30
0.0
 10
114.407930
 20
180.420020
 30
0.0
 10
114.466160
 20
180.355110
 30
0.0
  0
SPLINE
  5
2ae
100
AcDbEntity
  8
Layer_2
 62
7
100
AcDbSpline
 70
8
 71
3
 72
8
 73
4
 74
0
 40
0
 40
0
 40
0
 40
0
 40
1
 40
1
 40
1
 40
1
 10
114.466160
 20
180.355110
 30
0.0
 10
114.695100
 20
180.099830
 30
0.0
 10
114.783660
 20
179.982240
 30
0.0
 10
114.783660
 20
179.933540
 30
0.0
  0
SPLINE
  5
2af
100
AcDbEntity
  8
Layer_2
 62
7
100
AcDbSpline
 70
8
 71
3
 72
8
 73
4
 74
0
 40
0
 40
0
 40
0
 40
0
 40
1
 40
1
 40
1
 40
1
 10
114.783660
 20
179.933540
 30
0.0
 10
114.783660
 20
179.843040
 30
0.0
 10
116.548920
 20
178.114560
 30
0.0
 10
116.641410
 20
178.114560
 30
0.0
  0
SPLINE
  5
2b0
100
AcDbEntity
  8
Layer_2
 62
7
100
AcDbSpline
 70
8
 71
3
 72
8
 73
4
 74
0
 40
0
 40
0
 40
0
 40
0
 40
1
 40
1
 40
1
 40
1
 10
116.641410
 20
178.114560
 30
0.0
 10
116.690710
 20
178.114560
 30
0.0
 10
116.731010
 20
178.079060
 30
0.0
 10
116.731010
 20
178.035560
 30
0.0
  0
SPLINE
  5
2b1
100
AcDbEntity
  8
Layer_2
 62
7
100
AcDbSpline
 70
8
 71
3
 72
8
 73
4
 74
0
 40
0
 40
0
 40
0
 40
0
 40
1
 40
1
 40
1
 40
1
 10
116.731010
 20
178.035560
 30
0.0
 10
116.731010
 20
177.992160
 30
0.0
 10
116.816710
 20
177.929530
 30
0.0
 10
116.921510
 20
177.896440
 30
0.0
  0
SPLINE
  5
2b2
100
AcDbEntity
  8
Layer_2
 62
7
100
AcDbSpline
 70
8
 71
3
 72
8
 73
4
 74
0
 40
0
 40
0
 40
0
 40
0
 40
1
 40
1
 40
1
 40
1
 10
116.921510
 20
177.896440
 30
0.0
 10
117.026280
 20
177.863340
 30
0.0
 10
117.171410
 20
177.768090
 30
0.0
 10
117.244020
 20
177.684740
 30
0.0
  0
SPLINE
  5
2b3
100
AcDbEntity
  8
Layer_2
 62
7
100
AcDbSpline
 70
8
 71
3
 72
8
 73
4
 74
0
 40
0
 40
0
 40
0
 40
0
 40
1
 40
1
 40
1
 40
1
 10
117.244020
 20
177.684740
 30
0.0
 10
117.316620
 20
177.601340
 30
0.0
 10
117.484070
 20
177.506070
 30
0.0
 10
117.616110
 20
177.472930
 30
0.0
  0
SPLINE
  5
2b4
100
AcDbEntity
  8
Layer_2
 62
7
100
AcDbSpline
 70
8
 71
3
 72
8
 73
4
 74
0
 40
0
 40
0
 40
0
 40
0
 40
1
 40
1
 40
1
 40
1
 10
117.616110
 20
177.472930
 30
0.0
 10
118.002720
 20
177.375930
 30
0.0
 10
118.170340
 20
177.147430
 30
0.0
 10
118.170340
 20
176.717520
 30
0.0
  0
SPLINE
  5
2b5
100
AcDbEntity
  8
Layer_2
 62
7
100
AcDbSpline
 70
8
 71
3
 72
8
 73
4
 74
0
 40
0
 40
0
 40
0
 40
0
 40
1
 40
1
 40
1
 40
1
 10
118.170340
 20
176.717520
 30
0.0
 10
118.170340
 20
176.507970
 30
0.0
 10
118.134840
 20
176.336520
 30
0.0
 10
118.091340
 20
176.336520
 30
0.0
  0
SPLINE
  5
2b6
100
AcDbEntity
  8
Layer_2
 62
7
100
AcDbSpline
 70
8
 71
3
 72
8
 73
4
 74
0
 40
0
 40
0
 40
0
 40
0
 40
1
 40
1
 40
1
 40
1
 10
118.091340
 20
176.336520
 30
0.0
 10
118.047940
 20
176.336520
 30
0.0
 10
117.986190
 20
176.254020
 30
0.0
 10
117.954190
 20
176.153190
 30
0.0
  0
SPLINE
  5
2b7
100
AcDbEntity
  8
Layer_2
 62
7
100
AcDbSpline
 70
8
 71
3
 72
8
 73
4
 74
0
 40
0
 40
0
 40
0
 40
0
 40
1
 40
1
 40
1
 40
1
 10
117.954190
 20
176.153190
 30
0.0
 10
117.922190
 20
176.052360
 30
0.0
 10
117.805320
 20
175.879170
 30
0.0
 10
117.694480
 20
175.768340
 30
0.0
  0
SPLINE
  5
2b8
100
AcDbEntity
  8
Layer_2
 62
7
100
AcDbSpline
 70
8
 71
3
 72
8
 73
4
 74
0
 40
0
 40
0
 40
0
 40
0
 40
1
 40
1
 40
1
 40
1
 10
117.694480
 20
175.768340
 30
0.0
 10
117.583650
 20
175.657500
 30
0.0
 10
117.492970
 20
175.520440
 30
0.0
 10
117.492970
 20
175.463760
 30
0.0
  0
SPLINE
  5
2b9
100
AcDbEntity
  8
Layer_2
 62
7
100
AcDbSpline
 70
8
 71
3
 72
8
 73
4
 74
0
 40
0
 40
0
 40
0
 40
0
 40
1
 40
1
 40
1
 40
1
 10
117.492970
 20
175.463760
 30
0.0
 10
117.492970
 20
175.407060
 30
0.0
 10
117.397770
 20
175.289180
 30
0.0
 10
117.281300
 20
175.201750
 30
0.0
  0
SPLINE
  5
2ba
100
AcDbEntity
  8
Layer_2
 62
7
100
AcDbSpline
 70
8
 71
3
 72
8
 73
4
 74
0
 40
0
 40
0
 40
0
 40
0
 40
1
 40
1
 40
1
 40
1
 10
117.281300
 20
175.201750
 30
0.0
 10
117.164880
 20
175.114350
 30
0.0
 10
117.069630
 20
174.974500
 30
0.0
 10
117.069630
 20
174.891030
 30
0.0
  0
SPLINE
  5
2bb
100
AcDbEntity
  8
Layer_2
 62
7
100
AcDbSpline
 70
8
 71
3
 72
8
 73
4
 74
0
 40
0
 40
0
 40
0
 40
0
 40
1
 40
1
 40
1
 40
1
 10
117.069630
 20
174.891030
 30
0.0
 10
117.069630
 20
174.807530
 30
0.0
 10
116.995330
 20
174.715690
 30
0.0
 10
116.904630
 20
174.686890
 30
0.0
  0
SPLINE
  5
2bc
100
AcDbEntity
  8
Layer_2
 62
7
100
AcDbSpline
 70
8
 71
3
 72
8
 73
4
 74
0
 40
0
 40
0
 40
0
 40
0
 40
1
 40
1
 40
1
 40
1
 10
116.904630
 20
174.686890
 30
0.0
 10
116.813930
 20
174.658090
 30
0.0
 10
116.716060
 20
174.560270
 30
0.0
 10
116.687260
 20
174.469520
 30
0.0
  0
SPLINE
  5
2bd
100
AcDbEntity
  8
Layer_2
 62
7
100
AcDbSpline
 70
8
 71
3
 72
8
 73
4
 74
0
 40
0
 40
0
 40
0
 40
0
 40
1
 40
1
 40
1
 40
1
 10
116.687260
 20
174.469520
 30
0.0
 10
116.658460
 20
174.378820
 30
0.0
 10
116.599360
 20
174.304520
 30
0.0
 10
116.555930
 20
174.304520
 30
0.0
  0
SPLINE
  5
2be
100
AcDbEntity
  8
Layer_2
 62
7
100
AcDbSpline
 70
8
 71
3
 72
8
 73
4
 74
0
 40
0
 40
0
 40
0
 40
0
 40
1
 40
1
 40
1
 40
1
 10
116.555930
 20
174.304520
 30
0.0
 10
116.512530
 20
174.304520
 30
0.0
 10
116.476930
 20
174.264020
 30
0.0
 10
116.476930
 20
174.214420
 30
0.0
  0
SPLINE
  5
2bf
100
AcDbEntity
  8
Layer_2
 62
7
100
AcDbSpline
 70
8
 71
3
 72
8
 73
4
 74
0
 40
0
 40
0
 40
0
 40
0
 40
1
 40
1
 40
1
 40
1
 10
116.476930
 20
174.214420
 30
0.0
 10
116.476930
 20
174.081170
 30
0.0
 10
114.585420
 20
172.216950
 30
0.0
 10
114.386000
 20
172.153660
 30
0.0
  0
SPLINE
  5
2c0
100
AcDbEntity
  8
Layer_2
 62
7
100
AcDbSpline
 70
8
 71
3
 72
8
 73
4
 74
0
 40
0
 40
0
 40
0
 40
0
 40
1
 40
1
 40
1
 40
1
 10
114.386000
 20
172.153660
 30
0.0
 10
114.223740
 20
172.102160
 30
0.0
 10
114.212860
 20
172.010690
 30
0.0
 10
114.171310
 20
170.348000
 30
0.0
  0
SPLINE
  5
2c1
100
AcDbEntity
  8
Layer_2
 62
7
100
AcDbSpline
 70
8
 71
3
 72
8
 73
4
 74
0
 40
0
 40
0
 40
0
 40
0
 40
1
 40
1
 40
1
 40
1
 10
114.171310
 20
170.348000
 30
0.0
 10
114.141610
 20
169.160720
 30
0.0
 10
114.096810
 20
168.586350
 30
0.0
 10
114.032240
 20
168.564810
 30
0.0
  0
SPLINE
  5
2c2
100
AcDbEntity
  8
Layer_2
 62
7
100
AcDbSpline
 70
8
 71
3
 72
8
 73
4
 74
0
 40
0
 40
0
 40
0
 40
0
 40
1
 40
1
 40
1
 40
1
 10
114.032240
 20
168.564810
 30
0.0
 10
113.979840
 20
168.547310
 30
0.0
 10
113.936940
 20
168.421920
 30
0.0
 10
113.936940
 20
168.286100
 30
0.0
  0
SPLINE
  5
2c3
100
AcDbEntity
  8
Layer_2
 62
7
100
AcDbSpline
 70
8
 71
3
 72
8
 73
4
 74
0
 40
0
 40
0
 40
0
 40
0
 40
1
 40
1
 40
1
 40
1
 10
113.936940
 20
168.286100
 30
0.0
 10
113.936940
 20
168.150280
 30
0.0
 10
113.902440
 20
168.039150
 30
0.0
 10
113.860240
 20
168.039150
 30
0.0
  0
SPLINE
  5
2c4
100
AcDbEntity
  8
Layer_2
 62
7
100
AcDbSpline
 70
8
 71
3
 72
8
 73
4
 74
0
 40
0
 40
0
 40
0
 40
0
 40
1
 40
1
 40
1
 40
1
 10
113.860240
 20
168.039150
 30
0.0
 10
113.818040
 20
168.039150
 30
0.0
 10
113.757320
 20
167.848650
 30
0.0
 10
113.725300
 20
167.615820
 30
0.0
  0
SPLINE
  5
2c5
100
AcDbEntity
  8
Layer_2
 62
7
100
AcDbSpline
 70
8
 71
3
 72
8
 73
4
 74
0
 40
0
 40
0
 40
0
 40
0
 40
1
 40
1
 40
1
 40
1
 10
113.725300
 20
167.615820
 30
0.0
 10
113.693300
 20
167.382990
 30
0.0
 10
113.632500
 20
167.192490
 30
0.0
 10
113.590350
 20
167.192490
 30
0.0
  0
SPLINE
  5
2c6
100
AcDbEntity
  8
Layer_2
 62
7
100
AcDbSpline
 70
8
 71
3
 72
8
 73
4
 74
0
 40
0
 40
0
 40
0
 40
0
 40
1
 40
1
 40
1
 40
1
 10
113.590350
 20
167.192490
 30
0.0
 10
113.548150
 20
167.192490
 30
0.0
 10
113.513650
 20
167.097290
 30
0.0
 10
113.513650
 20
166.980820
 30
0.0
  0
SPLINE
  5
2c7
100
AcDbEntity
  8
Layer_2
 62
7
100
AcDbSpline
 70
8
 71
3
 72
8
 73
4
 74
0
 40
0
 40
0
 40
0
 40
0
 40
1
 40
1
 40
1
 40
1
 10
113.513650
 20
166.980820
 30
0.0
 10
113.513650
 20
166.864400
 30
0.0
 10
113.477250
 20
166.769150
 30
0.0
 10
113.432850
 20
166.769150
 30
0.0
  0
SPLINE
  5
2c8
100
AcDbEntity
  8
Layer_2
 62
7
100
AcDbSpline
 70
8
 71
3
 72
8
 73
4
 74
0
 40
0
 40
0
 40
0
 40
0
 40
1
 40
1
 40
1
 40
1
 10
113.432850
 20
166.769150
 30
0.0
 10
113.388450
 20
166.769150
 30
0.0
 10
113.327000
 20
166.635800
 30
0.0
 10
113.296430
 20
166.472820
 30
0.0
  0
SPLINE
  5
2c9
100
AcDbEntity
  8
Layer_2
 62
7
100
AcDbSpline
 70
8
 71
3
 72
8
 73
4
 74
0
 40
0
 40
0
 40
0
 40
0
 40
1
 40
1
 40
1
 40
1
 10
113.296430
 20
166.472820
 30
0.0
 10
113.265830
 20
166.309840
 30
0.0
 10
113.210030
 20
166.176490
 30
0.0
 10
113.172320
 20
166.176490
 30
0.0
  0
SPLINE
  5
2ca
100
AcDbEntity
  8
Layer_2
 62
7
100
AcDbSpline
 70
8
 71
3
 72
8
 73
4
 74
0
 40
0
 40
0
 40
0
 40
0
 40
1
 40
1
 40
1
 40
1
 10
113.172320
 20
166.176490
 30
0.0
 10
113.134620
 20
166.176490
 30
0.0
 10
113.078720
 20
166.062190
 30
0.0
 10
113.048020
 20
165.922490
 30
0.0
  0
SPLINE
  5
2cb
100
AcDbEntity
  8
Layer_2
 62
7
100
AcDbSpline
 70
8
 71
3
 72
8
 73
4
 74
0
 40
0
 40
0
 40
0
 40
0
 40
1
 40
1
 40
1
 40
1
 10
113.048020
 20
165.922490
 30
0.0
 10
113.017320
 20
165.782790
 30
0.0
 10
112.957120
 20
165.668490
 30
0.0
 10
112.914290
 20
165.668490
 30
0.0
  0
SPLINE
  5
2cc
100
AcDbEntity
  8
Layer_2
 62
7
100
AcDbSpline
 70
8
 71
3
 72
8
 73
4
 74
0
 40
0
 40
0
 40
0
 40
0
 40
1
 40
1
 40
1
 40
1
 10
112.914290
 20
165.668490
 30
0.0
 10
112.871390
 20
165.668490
 30
0.0
 10
112.836390
 20
165.596390
 30
0.0
 10
112.836390
 20
165.508210
 30
0.0
  0
SPLINE
  5
2cd
100
AcDbEntity
  8
Layer_2
 62
7
100
AcDbSpline
 70
8
 71
3
 72
8
 73
4
 74
0
 40
0
 40
0
 40
0
 40
0
 40
1
 40
1
 40
1
 40
1
 10
112.836390
 20
165.508210
 30
0.0
 10
112.836390
 20
165.420110
 30
0.0
 10
112.779290
 20
165.326010
 30
0.0
 10
112.709390
 20
165.299200
 30
0.0
  0
SPLINE
  5
2ce
100
AcDbEntity
  8
Layer_2
 62
7
100
AcDbSpline
 70
8
 71
3
 72
8
 73
4
 74
0
 40
0
 40
0
 40
0
 40
0
 40
1
 40
1
 40
1
 40
1
 10
112.709390
 20
165.299200
 30
0.0
 10
112.639490
 20
165.272400
 30
0.0
 10
112.582390
 20
165.175640
 30
0.0
 10
112.582390
 20
165.084180
 30
0.0
  0
SPLINE
  5
2cf
100
AcDbEntity
  8
Layer_2
 62
7
100
AcDbSpline
 70
8
 71
3
 72
8
 73
4
 74
0
 40
0
 40
0
 40
0
 40
0
 40
1
 40
1
 40
1
 40
1
 10
112.582390
 20
165.084180
 30
0.0
 10
112.582390
 20
164.992680
 30
0.0
 10
112.508090
 20
164.894330
 30
0.0
 10
112.417390
 20
164.865530
 30
0.0
  0
SPLINE
  5
2d0
100
AcDbEntity
  8
Layer_2
 62
7
100
AcDbSpline
 70
8
 71
3
 72
8
 73
4
 74
0
 40
0
 40
0
 40
0
 40
0
 40
1
 40
1
 40
1
 40
1
 10
112.417390
 20
164.865530
 30
0.0
 10
112.326590
 20
164.836730
 30
0.0
 10
112.226780
 20
164.732490
 30
0.0
 10
112.195490
 20
164.633890
 30
0.0
  0
SPLINE
  5
2d1
100
AcDbEntity
  8
Layer_2
 62
7
100
AcDbSpline
 70
8
 71
3
 72
8
 73
4
 74
0
 40
0
 40
0
 40
0
 40
0
 40
1
 40
1
 40
1
 40
1
 10
112.195490
 20
164.633890
 30
0.0
 10
112.121090
 20
164.399590
 30
0.0
 10
111.392920
 20
163.673460
 30
0.0
 10
111.157320
 20
163.598680
 30
0.0
  0
SPLINE
  5
2d2
100
AcDbEntity
  8
Layer_2
 62
7
100
AcDbSpline
 70
8
 71
3
 72
8
 73
4
 74
0
 40
0
 40
0
 40
0
 40
0
 40
1
 40
1
 40
1
 40
1
 10
111.157320
 20
163.598680
 30
0.0
 10
111.056340
 20
163.566680
 30
0.0
 10
110.973720
 20
163.504880
 30
0.0
 10
110.973720
 20
163.461450
 30
0.0
  0
SPLINE
  5
2d3
100
AcDbEntity
  8
Layer_2
 62
7
100
AcDbSpline
 70
8
 71
3
 72
8
 73
4
 74
0
 40
0
 40
0
 40
0
 40
0
 40
1
 40
1
 40
1
 40
1
 10
110.973720
 20
163.461450
 30
0.0
 10
110.973720
 20
163.418050
 30
0.0
 10
110.916520
 20
163.382450
 30
0.0
 10
110.846720
 20
163.382450
 30
0.0
  0
SPLINE
  5
2d4
100
AcDbEntity
  8
Layer_2
 62
7
100
AcDbSpline
 70
8
 71
3
 72
8
 73
4
 74
0
 40
0
 40
0
 40
0
 40
0
 40
1
 40
1
 40
1
 40
1
 10
110.846720
 20
163.382450
 30
0.0
 10
110.776820
 20
163.382450
 30
0.0
 10
110.719720
 20
163.346050
 30
0.0
 10
110.719720
 20
163.301650
 30
0.0
  0
SPLINE
  5
2d5
100
AcDbEntity
  8
Layer_2
 62
7
100
AcDbSpline
 70
8
 71
3
 72
8
 73
4
 74
0
 40
0
 40
0
 40
0
 40
0
 40
1
 40
1
 40
1
 40
1
 10
110.719720
 20
163.301650
 30
0.0
 10
110.719720
 20
163.257150
 30
0.0
 10
110.586370
 20
163.195800
 30
0.0
 10
110.423390
 20
163.165220
 30
0.0
  0
SPLINE
  5
2d6
100
AcDbEntity
  8
Layer_2
 62
7
100
AcDbSpline
 70
8
 71
3
 72
8
 73
4
 74
0
 40
0
 40
0
 40
0
 40
0
 40
1
 40
1
 40
1
 40
1
 10
110.423390
 20
163.165220
 30
0.0
 10
110.260400
 20
163.134620
 30
0.0
 10
110.127050
 20
163.075820
 30
0.0
 10
110.127050
 20
163.034390
 30
0.0
  0
SPLINE
  5
2d7
100
AcDbEntity
  8
Layer_2
 62
7
100
AcDbSpline
 70
8
 71
3
 72
8
 73
4
 74
0
 40
0
 40
0
 40
0
 40
0
 40
1
 40
1
 40
1
 40
1
 10
110.127050
 20
163.034390
 30
0.0
 10
110.127050
 20
162.992990
 30
0.0
 10
110.012750
 20
162.959090
 30
0.0
 10
109.873050
 20
162.959090
 30
0.0
  0
SPLINE
  5
2d8
100
AcDbEntity
  8
Layer_2
 62
7
100
AcDbSpline
 70
8
 71
3
 72
8
 73
4
 74
0
 40
0
 40
0
 40
0
 40
0
 40
1
 40
1
 40
1
 40
1
 10
109.873050
 20
162.959090
 30
0.0
 10
109.733350
 20
162.959090
 30
0.0
 10
109.619050
 20
162.920990
 30
0.0
 10
109.619050
 20
162.874390
 30
0.0
  0
SPLINE
  5
2d9
100
AcDbEntity
  8
Layer_2
 62
7
100
AcDbSpline
 70
8
 71
3
 72
8
 73
4
 74
0
 40
0
 40
0
 40
0
 40
0
 40
1
 40
1
 40
1
 40
1
 10
109.619050
 20
162.874390
 30
0.0
 10
109.619050
 20
162.827790
 30
0.0
 10
109.545950
 20
162.789690
 30
0.0
 10
109.456650
 20
162.789690
 30
0.0
  0
SPLINE
  5
2da
100
AcDbEntity
  8
Layer_2
 62
7
100
AcDbSpline
 70
8
 71
3
 72
8
 73
4
 74
0
 40
0
 40
0
 40
0
 40
0
 40
1
 40
1
 40
1
 40
1
 10
109.456650
 20
162.789690
 30
0.0
 10
109.182240
 20
162.789690
 30
0.0
 10
109.026390
 20
162.694390
 30
0.0
 10
109.026390
 20
162.526630
 30
0.0
  0
SPLINE
  5
2db
100
AcDbEntity
  8
Layer_2
 62
7
100
AcDbSpline
 70
8
 71
3
 72
8
 73
4
 74
0
 40
0
 40
0
 40
0
 40
0
 40
1
 40
1
 40
1
 40
1
 10
109.026390
 20
162.526630
 30
0.0
 10
109.026390
 20
162.438530
 30
0.0
 10
108.993190
 20
162.366360
 30
0.0
 10
108.952490
 20
162.366360
 30
0.0
  0
SPLINE
  5
2dc
100
AcDbEntity
  8
Layer_2
 62
7
100
AcDbSpline
 70
8
 71
3
 72
8
 73
4
 74
0
 40
0
 40
0
 40
0
 40
0
 40
1
 40
1
 40
1
 40
1
 10
108.952490
 20
162.366360
 30
0.0
 10
108.911890
 20
162.366360
 30
0.0
 10
108.854290
 20
162.213960
 30
0.0
 10
108.824490
 20
162.027690
 30
0.0
  0
SPLINE
  5
2dd
100
AcDbEntity
  8
Layer_2
 62
7
100
AcDbSpline
 70
8
 71
3
 72
8
 73
4
 74
0
 40
0
 40
0
 40
0
 40
0
 40
1
 40
1
 40
1
 40
1
 10
108.824490
 20
162.027690
 30
0.0
 10
108.794690
 20
161.841420
 30
0.0
 10
108.732690
 20
161.689020
 30
0.0
 10
108.686670
 20
161.689020
 30
0.0
  0
SPLINE
  5
2de
100
AcDbEntity
  8
Layer_2
 62
7
100
AcDbSpline
 70
8
 71
3
 72
8
 73
4
 74
0
 40
0
 40
0
 40
0
 40
0
 40
1
 40
1
 40
1
 40
1
 10
108.686670
 20
161.689020
 30
0.0
 10
108.640670
 20
161.689020
 30
0.0
 10
108.602970
 20
161.593720
 30
0.0
 10
108.602970
 20
161.477360
 30
0.0
  0
SPLINE
  5
2df
100
AcDbEntity
  8
Layer_2
 62
7
100
AcDbSpline
 70
8
 71
3
 72
8
 73
4
 74
0
 40
0
 40
0
 40
0
 40
0
 40
1
 40
1
 40
1
 40
1
 10
108.602970
 20
161.477360
 30
0.0
 10
108.602970
 20
161.360940
 30
0.0
 10
108.565370
 20
161.265690
 30
0.0
 10
108.519270
 20
161.265690
 30
0.0
  0
SPLINE
  5
2e0
100
AcDbEntity
  8
Layer_2
 62
7
100
AcDbSpline
 70
8
 71
3
 72
8
 73
4
 74
0
 40
0
 40
0
 40
0
 40
0
 40
1
 40
1
 40
1
 40
1
 10
108.519270
 20
161.265690
 30
0.0
 10
108.473270
 20
161.265690
 30
0.0
 10
108.411230
 20
161.113290
 30
0.0
 10
108.381450
 20
160.927020
 30
0.0
  0
SPLINE
  5
2e1
100
AcDbEntity
  8
Layer_2
 62
7
100
AcDbSpline
 70
8
 71
3
 72
8
 73
4
 74
0
 40
0
 40
0
 40
0
 40
0
 40
1
 40
1
 40
1
 40
1
 10
108.381450
 20
160.927020
 30
0.0
 10
108.351650
 20
160.740760
 30
0.0
 10
108.294050
 20
160.588360
 30
0.0
 10
108.253450
 20
160.588360
 30
0.0
  0
SPLINE
  5
2e2
100
AcDbEntity
  8
Layer_2
 62
7
100
AcDbSpline
 70
8
 71
3
 72
8
 73
4
 74
0
 40
0
 40
0
 40
0
 40
0
 40
1
 40
1
 40
1
 40
1
 10
108.253450
 20
160.588360
 30
0.0
 10
108.212850
 20
160.588360
 30
0.0
 10
108.179650
 20
160.531160
 30
0.0
 10
108.179650
 20
160.461360
 30
0.0
  0
SPLINE
  5
2e3
100
AcDbEntity
  8
Layer_2
 62
7
100
AcDbSpline
 70
8
 71
3
 72
8
 73
4
 74
0
 40
0
 40
0
 40
0
 40
0
 40
1
 40
1
 40
1
 40
1
 10
108.179650
 20
160.461360
 30
0.0
 10
108.179650
 20
160.391460
 30
0.0
 10
108.145750
 20
160.334360
 30
0.0
 10
108.104450
 20
160.334360
 30
0.0
  0
SPLINE
  5
2e4
100
AcDbEntity
  8
Layer_2
 62
7
100
AcDbSpline
 70
8
 71
3
 72
8
 73
4
 74
0
 40
0
 40
0
 40
0
 40
0
 40
1
 40
1
 40
1
 40
1
 10
108.104450
 20
160.334360
 30
0.0
 10
108.063050
 20
160.334360
 30
0.0
 10
108.004190
 20
160.201010
 30
0.0
 10
107.973610
 20
160.038020
 30
0.0
  0
SPLINE
  5
2e5
100
AcDbEntity
  8
Layer_2
 62
7
100
AcDbSpline
 70
8
 71
3
 72
8
 73
4
 74
0
 40
0
 40
0
 40
0
 40
0
 40
1
 40
1
 40
1
 40
1
 10
107.973610
 20
160.038020
 30
0.0
 10
107.943010
 20
159.875040
 30
0.0
 10
107.881610
 20
159.741690
 30
0.0
 10
107.837190
 20
159.741690
 30
0.0
  0
SPLINE
  5
2e6
100
AcDbEntity
  8
Layer_2
 62
7
100
AcDbSpline
 70
8
 71
3
 72
8
 73
4
 74
0
 40
0
 40
0
 40
0
 40
0
 40
1
 40
1
 40
1
 40
1
 10
107.837190
 20
159.741690
 30
0.0
 10
107.792690
 20
159.741690
 30
0.0
 10
107.756390
 20
159.684590
 30
0.0
 10
107.756390
 20
159.614690
 30
0.0
  0
SPLINE
  5
2e7
100
AcDbEntity
  8
Layer_2
 62
7
100
AcDbSpline
 70
8
 71
3
 72
8
 73
4
 74
0
 40
0
 40
0
 40
0
 40
0
 40
1
 40
1
 40
1
 40
1
 10
107.756390
 20
159.614690
 30
0.0
 10
107.756390
 20
159.544790
 30
0.0
 10
107.722490
 20
159.487690
 30
0.0
 10
107.681190
 20
159.487690
 30
0.0
  0
SPLINE
  5
2e8
100
AcDbEntity
  8
Layer_2
 62
7
100
AcDbSpline
 70
8
 71
3
 72
8
 73
4
 74
0
 40
0
 40
0
 40
0
 40
0
 40
1
 40
1
 40
1
 40
1
 10
107.681190
 20
159.487690
 30
0.0
 10
107.639790
 20
159.487690
 30
0.0
 10
107.580930
 20
159.354340
 30
0.0
 10
107.550360
 20
159.191360
 30
0.0
  0
SPLINE
  5
2e9
100
AcDbEntity
  8
Layer_2
 62
7
100
AcDbSpline
 70
8
 71
3
 72
8
 73
4
 74
0
 40
0
 40
0
 40
0
 40
0
 40
1
 40
1
 40
1
 40
1
 10
107.550360
 20
159.191360
 30
0.0
 10
107.519760
 20
159.028370
 30
0.0
 10
107.460160
 20
158.895020
 30
0.0
 10
107.417770
 20
158.895020
 30
0.0
  0
SPLINE
  5
2ea
100
AcDbEntity
  8
Layer_2
 62
7
100
AcDbSpline
 70
8
 71
3
 72
8
 73
4
 74
0
 40
0
 40
0
 40
0
 40
0
 40
1
 40
1
 40
1
 40
1
 10
107.417770
 20
158.895020
 30
0.0
 10
107.375470
 20
158.895020
 30
0.0
 10
107.315760
 20
158.761670
 30
0.0
 10
107.285180
 20
158.598690
 30
0.0
  0
SPLINE
  5
2eb
100
AcDbEntity
  8
Layer_2
 62
7
100
AcDbSpline
 70
8
 71
3
 72
8
 73
4
 74
0
 40
0
 40
0
 40
0
 40
0
 40
1
 40
1
 40
1
 40
1
 10
107.285180
 20
158.598690
 30
0.0
 10
107.254580
 20
158.435710
 30
0.0
 10
107.195780
 20
158.302360
 30
0.0
 10
107.154350
 20
158.302360
 30
0.0
  0
SPLINE
  5
2ec
100
AcDbEntity
  8
Layer_2
 62
7
100
AcDbSpline
 70
8
 71
3
 72
8
 73
4
 74
0
 40
0
 40
0
 40
0
 40
0
 40
1
 40
1
 40
1
 40
1
 10
107.154350
 20
158.302360
 30
0.0
 10
107.112950
 20
158.302360
 30
0.0
 10
107.079050
 20
158.245160
 30
0.0
 10
107.079050
 20
158.175360
 30
0.0
  0
SPLINE
  5
2ed
100
AcDbEntity
  8
Layer_2
 62
7
100
AcDbSpline
 70
8
 71
3
 72
8
 73
4
 74
0
 40
0
 40
0
 40
0
 40
0
 40
1
 40
1
 40
1
 40
1
 10
107.079050
 20
158.175360
 30
0.0
 10
107.079050
 20
158.105460
 30
0.0
 10
107.045050
 20
158.048360
 30
0.0
 10
107.003550
 20
158.048360
 30
0.0
  0
SPLINE
  5
2ee
100
AcDbEntity
  8
Layer_2
 62
7
100
AcDbSpline
 70
8
 71
3
 72
8
 73
4
 74
0
 40
0
 40
0
 40
0
 40
0
 40
1
 40
1
 40
1
 40
1
 10
107.003550
 20
158.048360
 30
0.0
 10
106.962050
 20
158.048360
 30
0.0
 10
106.904150
 20
157.953060
 30
0.0
 10
106.874930
 20
157.836690
 30
0.0
  0
SPLINE
  5
2ef
100
AcDbEntity
  8
Layer_2
 62
7
100
AcDbSpline
 70
8
 71
3
 72
8
 73
4
 74
0
 40
0
 40
0
 40
0
 40
0
 40
1
 40
1
 40
1
 40
1
 10
106.874930
 20
157.836690
 30
0.0
 10
106.845730
 20
157.720270
 30
0.0
 10
106.784430
 20
157.625020
 30
0.0
 10
106.738750
 20
157.625020
 30
0.0
  0
SPLINE
  5
2f0
100
AcDbEntity
  8
Layer_2
 62
7
100
AcDbSpline
 70
8
 71
3
 72
8
 73
4
 74
0
 40
0
 40
0
 40
0
 40
0
 40
1
 40
1
 40
1
 40
1
 10
106.738750
 20
157.625020
 30
0.0
 10
106.693050
 20
157.625020
 30
0.0
 10
106.655650
 20
157.567920
 30
0.0
 10
106.655650
 20
157.498020
 30
0.0
  0
SPLINE
  5
2f1
100
AcDbEntity
  8
Layer_2
 62
7
100
AcDbSpline
 70
8
 71
3
 72
8
 73
4
 74
0
 40
0
 40
0
 40
0
 40
0
 40
1
 40
1
 40
1
 40
1
 10
106.655650
 20
157.498020
 30
0.0
 10
106.655650
 20
157.428120
 30
0.0
 10
106.622350
 20
157.371020
 30
0.0
 10
106.581550
 20
157.371020
 30
0.0
  0
SPLINE
  5
2f2
100
AcDbEntity
  8
Layer_2
 62
7
100
AcDbSpline
 70
8
 71
3
 72
8
 73
4
 74
0
 40
0
 40
0
 40
0
 40
0
 40
1
 40
1
 40
1
 40
1
 10
106.581550
 20
157.371020
 30
0.0
 10
106.540850
 20
157.371020
 30
0.0
 10
106.483550
 20
157.251610
 30
0.0
 10
106.454390
 20
157.105650
 30
0.0
  0
SPLINE
  5
2f3
100
AcDbEntity
  8
Layer_2
 62
7
100
AcDbSpline
 70
8
 71
3
 72
8
 73
4
 74
0
 40
0
 40
0
 40
0
 40
0
 40
1
 40
1
 40
1
 40
1
 10
106.454390
 20
157.105650
 30
0.0
 10
106.425190
 20
156.959700
 30
0.0
 10
106.330640
 20
156.778720
 30
0.0
 10
106.244250
 20
156.703480
 30
0.0
  0
SPLINE
  5
2f4
100
AcDbEntity
  8
Layer_2
 62
7
100
AcDbSpline
 70
8
 71
3
 72
8
 73
4
 74
0
 40
0
 40
0
 40
0
 40
0
 40
1
 40
1
 40
1
 40
1
 10
106.244250
 20
156.703480
 30
0.0
 10
106.157850
 20
156.628280
 30
0.0
 10
106.060120
 20
156.480970
 30
0.0
 10
106.027040
 20
156.376190
 30
0.0
  0
SPLINE
  5
2f5
100
AcDbEntity
  8
Layer_2
 62
7
100
AcDbSpline
 70
8
 71
3
 72
8
 73
4
 74
0
 40
0
 40
0
 40
0
 40
0
 40
1
 40
1
 40
1
 40
1
 10
106.027040
 20
156.376190
 30
0.0
 10
105.993940
 20
156.271420
 30
0.0
 10
105.931340
 20
156.185690
 30
0.0
 10
105.887930
 20
156.185690
 30
0.0
  0
SPLINE
  5
2f6
100
AcDbEntity
  8
Layer_2
 62
7
100
AcDbSpline
 70
8
 71
3
 72
8
 73
4
 74
0
 40
0
 40
0
 40
0
 40
0
 40
1
 40
1
 40
1
 40
1
 10
105.887930
 20
156.185690
 30
0.0
 10
105.844530
 20
156.185690
 30
0.0
 10
105.808930
 20
156.132590
 30
0.0
 10
105.808930
 20
156.067750
 30
0.0
  0
SPLINE
  5
2f7
100
AcDbEntity
  8
Layer_2
 62
7
100
AcDbSpline
 70
8
 71
3
 72
8
 73
4
 74
0
 40
0
 40
0
 40
0
 40
0
 40
1
 40
1
 40
1
 40
1
 10
105.808930
 20
156.067750
 30
0.0
 10
105.808930
 20
156.002850
 30
0.0
 10
105.751830
 20
155.927880
 30
0.0
 10
105.681930
 20
155.901070
 30
0.0
  0
SPLINE
  5
2f8
100
AcDbEntity
  8
Layer_2
 62
7
100
AcDbSpline
 70
8
 71
3
 72
8
 73
4
 74
0
 40
0
 40
0
 40
0
 40
0
 40
1
 40
1
 40
1
 40
1
 10
105.681930
 20
155.901070
 30
0.0
 10
105.612030
 20
155.874270
 30
0.0
 10
105.554930
 20
155.774940
 30
0.0
 10
105.554930
 20
155.680350
 30
0.0
  0
SPLINE
  5
2f9
100
AcDbEntity
  8
Layer_2
 62
7
100
AcDbSpline
 70
8
 71
3
 72
8
 73
4
 74
0
 40
0
 40
0
 40
0
 40
0
 40
1
 40
1
 40
1
 40
1
 10
105.554930
 20
155.680350
 30
0.0
 10
105.554930
 20
155.585750
 30
0.0
 10
105.516830
 20
155.508360
 30
0.0
 10
105.470230
 20
155.508360
 30
0.0
  0
SPLINE
  5
2fa
100
AcDbEntity
  8
Layer_2
 62
7
100
AcDbSpline
 70
8
 71
3
 72
8
 73
4
 74
0
 40
0
 40
0
 40
0
 40
0
 40
1
 40
1
 40
1
 40
1
 10
105.470230
 20
155.508360
 30
0.0
 10
105.423630
 20
155.508360
 30
0.0
 10
105.385530
 20
155.451260
 30
0.0
 10
105.385530
 20
155.381360
 30
0.0
  0
SPLINE
  5
2fb
100
AcDbEntity
  8
Layer_2
 62
7
100
AcDbSpline
 70
8
 71
3
 72
8
 73
4
 74
0
 40
0
 40
0
 40
0
 40
0
 40
1
 40
1
 40
1
 40
1
 10
105.385530
 20
155.381360
 30
0.0
 10
105.385530
 20
155.311460
 30
0.0
 10
105.348130
 20
155.254360
 30
0.0
 10
105.302430
 20
155.254360
 30
0.0
  0
SPLINE
  5
2fc
100
AcDbEntity
  8
Layer_2
 62
7
100
AcDbSpline
 70
8
 71
3
 72
8
 73
4
 74
0
 40
0
 40
0
 40
0
 40
0
 40
1
 40
1
 40
1
 40
1
 10
105.302430
 20
155.254360
 30
0.0
 10
105.256730
 20
155.254360
 30
0.0
 10
105.197300
 20
155.166460
 30
0.0
 10
105.170330
 20
155.058960
 30
0.0
  0
SPLINE
  5
2fd
100
AcDbEntity
  8
Layer_2
 62
7
100
AcDbSpline
 70
8
 71
3
 72
8
 73
4
 74
0
 40
0
 40
0
 40
0
 40
0
 40
1
 40
1
 40
1
 40
1
 10
105.170330
 20
155.058960
 30
0.0
 10
105.143330
 20
154.951490
 30
0.0
 10
105.028330
 20
154.793750
 30
0.0
 10
104.914720
 20
154.708430
 30
0.0
  0
SPLINE
  5
2fe
100
AcDbEntity
  8
Layer_2
 62
7
100
AcDbSpline
 70
8
 71
3
 72
8
 73
4
 74
0
 40
0
 40
0
 40
0
 40
0
 40
1
 40
1
 40
1
 40
1
 10
104.914720
 20
154.708430
 30
0.0
 10
104.801100
 20
154.623130
 30
0.0
 10
104.708150
 20
154.485010
 30
0.0
 10
104.708150
 20
154.401540
 30
0.0
  0
SPLINE
  5
2ff
100
AcDbEntity
  8
Layer_2
 62
7
100
AcDbSpline
 70
8
 71
3
 72
8
 73
4
 74
0
 40
0
 40
0
 40
0
 40
0
 40
1
 40
1
 40
1
 40
1
 10
104.708150
 20
154.401540
 30
0.0
 10
104.708150
 20
154.318040
 30
0.0
 10
104.633950
 20
154.226200
 30
0.0
 10
104.543140
 20
154.197400
 30
0.0
  0
SPLINE
  5
300
100
AcDbEntity
  8
Layer_2
 62
7
100
AcDbSpline
 70
8
 71
3
 72
8
 73
4
 74
0
 40
0
 40
0
 40
0
 40
0
 40
1
 40
1
 40
1
 40
1
 10
104.543140
 20
154.197400
 30
0.0
 10
104.452440
 20
154.168600
 30
0.0
 10
104.352580
 20
154.064480
 30
0.0
 10
104.321330
 20
153.966030
 30
0.0
  0
SPLINE
  5
301
100
AcDbEntity
  8
Layer_2
 62
7
100
AcDbSpline
 70
8
 71
3
 72
8
 73
4
 74
0
 40
0
 40
0
 40
0
 40
0
 40
1
 40
1
 40
1
 40
1
 10
104.321330
 20
153.966030
 30
0.0
 10
104.290130
 20
153.867630
 30
0.0
 10
104.173840
 20
153.696350
 30
0.0
 10
104.063000
 20
153.585510
 30
0.0
  0
SPLINE
  5
302
100
AcDbEntity
  8
Layer_2
 62
7
100
AcDbSpline
 70
8
 71
3
 72
8
 73
4
 74
0
 40
0
 40
0
 40
0
 40
0
 40
1
 40
1
 40
1
 40
1
 10
104.063000
 20
153.585510
 30
0.0
 10
103.952160
 20
153.474680
 30
0.0
 10
103.861480
 20
153.345070
 30
0.0
 10
103.861480
 20
153.297490
 30
0.0
  0
SPLINE
  5
303
100
AcDbEntity
  8
Layer_2
 62
7
100
AcDbSpline
 70
8
 71
3
 72
8
 73
4
 74
0
 40
0
 40
0
 40
0
 40
0
 40
1
 40
1
 40
1
 40
1
 10
103.861480
 20
153.297490
 30
0.0
 10
103.861480
 20
153.249890
 30
0.0
 10
103.728130
 20
153.085220
 30
0.0
 10
103.565150
 20
152.931510
 30
0.0
  0
SPLINE
  5
304
100
AcDbEntity
  8
Layer_2
 62
7
100
AcDbSpline
 70
8
 71
3
 72
8
 73
4
 74
0
 40
0
 40
0
 40
0
 40
0
 40
1
 40
1
 40
1
 40
1
 10
103.565150
 20
152.931510
 30
0.0
 10
103.402160
 20
152.777790
 30
0.0
 10
103.268810
 20
152.608900
 30
0.0
 10
103.268810
 20
152.556190
 30
0.0
  0
SPLINE
  5
305
100
AcDbEntity
  8
Layer_2
 62
7
100
AcDbSpline
 70
8
 71
3
 72
8
 73
4
 74
0
 40
0
 40
0
 40
0
 40
0
 40
1
 40
1
 40
1
 40
1
 10
103.268810
 20
152.556190
 30
0.0
 10
103.268810
 20
152.503490
 30
0.0
 10
103.233310
 20
152.460390
 30
0.0
 10
103.189810
 20
152.460390
 30
0.0
  0
SPLINE
  5
306
100
AcDbEntity
  8
Layer_2
 62
7
100
AcDbSpline
 70
8
 71
3
 72
8
 73
4
 74
0
 40
0
 40
0
 40
0
 40
0
 40
1
 40
1
 40
1
 40
1
 10
103.189810
 20
152.460390
 30
0.0
 10
103.146410
 20
152.460390
 30
0.0
 10
103.087280
 20
152.386190
 30
0.0
 10
103.058480
 20
152.295380
 30
0.0
  0
SPLINE
  5
307
100
AcDbEntity
  8
Layer_2
 62
7
100
AcDbSpline
 70
8
 71
3
 72
8
 73
4
 74
0
 40
0
 40
0
 40
0
 40
0
 40
1
 40
1
 40
1
 40
1
 10
103.058480
 20
152.295380
 30
0.0
 10
103.029680
 20
152.204680
 30
0.0
 10
102.931860
 20
152.106820
 30
0.0
 10
102.841110
 20
152.078010
 30
0.0
  0
SPLINE
  5
308
100
AcDbEntity
  8
Layer_2
 62
7
100
AcDbSpline
 70
8
 71
3
 72
8
 73
4
 74
0
 40
0
 40
0
 40
0
 40
0
 40
1
 40
1
 40
1
 40
1
 10
102.841110
 20
152.078010
 30
0.0
 10
102.750410
 20
152.049210
 30
0.0
 10
102.676110
 20
151.966860
 30
0.0
 10
102.676110
 20
151.895020
 30
0.0
  0
SPLINE
  5
309
100
AcDbEntity
  8
Layer_2
 62
7
100
AcDbSpline
 70
8
 71
3
 72
8
 73
4
 74
0
 40
0
 40
0
 40
0
 40
0
 40
1
 40
1
 40
1
 40
1
 10
102.676110
 20
151.895020
 30
0.0
 10
102.676110
 20
151.823220
 30
0.0
 10
102.514180
 20
151.598140
 30
0.0
 10
102.316270
 20
151.394940
 30
0.0
  0
SPLINE
  5
30a
100
AcDbEntity
  8
Layer_2
 62
7
100
AcDbSpline
 70
8
 71
3
 72
8
 73
4
 74
0
 40
0
 40
0
 40
0
 40
0
 40
1
 40
1
 40
1
 40
1
 10
102.316270
 20
151.394940
 30
0.0
 10
102.118370
 20
151.191740
 30
0.0
 10
101.918340
 20
150.985650
 30
0.0
 10
101.871770
 20
150.936960
 30
0.0
  0
SPLINE
  5
30b
100
AcDbEntity
  8
Layer_2
 62
7
100
AcDbSpline
 70
8
 71
3
 72
8
 73
4
 74
0
 40
0
 40
0
 40
0
 40
0
 40
1
 40
1
 40
1
 40
1
 10
101.871770
 20
150.936960
 30
0.0
 10
101.825170
 20
150.888260
 30
0.0
 10
101.644230
 20
150.718370
 30
0.0
 10
101.469610
 20
150.559420
 30
0.0
  0
SPLINE
  5
30c
100
AcDbEntity
  8
Layer_2
 62
7
100
AcDbSpline
 70
8
 71
3
 72
8
 73
4
 74
0
 40
0
 40
0
 40
0
 40
0
 40
1
 40
1
 40
1
 40
1
 10
101.469610
 20
150.559420
 30
0.0
 10
101.294980
 20
150.400470
 30
0.0
 10
101.152110
 20
150.229770
 30
0.0
 10
101.152110
 20
150.180070
 30
0.0
  0
SPLINE
  5
30d
100
AcDbEntity
  8
Layer_2
 62
7
100
AcDbSpline
 70
8
 71
3
 72
8
 73
4
 74
0
 40
0
 40
0
 40
0
 40
0
 40
1
 40
1
 40
1
 40
1
 10
101.152110
 20
150.180070
 30
0.0
 10
101.152110
 20
150.130370
 30
0.0
 10
101.112710
 20
150.089670
 30
0.0
 10
101.064610
 20
150.089670
 30
0.0
  0
SPLINE
  5
30e
100
AcDbEntity
  8
Layer_2
 62
7
100
AcDbSpline
 70
8
 71
3
 72
8
 73
4
 74
0
 40
0
 40
0
 40
0
 40
0
 40
1
 40
1
 40
1
 40
1
 10
101.064610
 20
150.089670
 30
0.0
 10
100.937660
 20
150.089670
 30
0.0
 10
100.474790
 20
149.596250
 30
0.0
 10
100.474790
 20
149.460930
 30
0.0
  0
SPLINE
  5
30f
100
AcDbEntity
  8
Layer_2
 62
7
100
AcDbSpline
 70
8
 71
3
 72
8
 73
4
 74
0
 40
0
 40
0
 40
0
 40
0
 40
1
 40
1
 40
1
 40
1
 10
100.474790
 20
149.460930
 30
0.0
 10
100.474790
 20
149.397730
 30
0.0
 10
100.379590
 20
149.322120
 30
0.0
 10
100.263130
 20
149.292900
 30
0.0
  0
SPLINE
  5
310
100
AcDbEntity
  8
Layer_2
 62
7
100
AcDbSpline
 70
8
 71
3
 72
8
 73
4
 74
0
 40
0
 40
0
 40
0
 40
0
 40
1
 40
1
 40
1
 40
1
 10
100.263130
 20
149.292900
 30
0.0
 10
100.129600
 20
149.259400
 30
0.0
 10
100.051460
 20
149.179970
 30
0.0
 10
100.051460
 20
149.077760
 30
0.0
  0
SPLINE
  5
311
100
AcDbEntity
  8
Layer_2
 62
7
100
AcDbSpline
 70
8
 71
3
 72
8
 73
4
 74
0
 40
0
 40
0
 40
0
 40
0
 40
1
 40
1
 40
1
 40
1
 10
100.051460
 20
149.077760
 30
0.0
 10
100.051460
 20
148.985760
 30
0.0
 10
99.971890
 20
148.890490
 30
0.0
 10
99.867404
 20
148.857330
 30
0.0
  0
SPLINE
  5
312
100
AcDbEntity
  8
Layer_2
 62
7
100
AcDbSpline
 70
8
 71
3
 72
8
 73
4
 74
0
 40
0
 40
0
 40
0
 40
0
 40
1
 40
1
 40
1
 40
1
 10
99.867404
 20
148.857330
 30
0.0
 10
99.766171
 20
148.825230
 30
0.0
 10
99.505173
 20
148.613080
 30
0.0
 10
99.287408
 20
148.385960
 30
0.0
  0
SPLINE
  5
313
100
AcDbEntity
  8
Layer_2
 62
7
100
AcDbSpline
 70
8
 71
3
 72
8
 73
4
 74
0
 40
0
 40
0
 40
0
 40
0
 40
1
 40
1
 40
1
 40
1
 10
99.287408
 20
148.385960
 30
0.0
 10
99.069643
 20
148.158830
 30
0.0
 10
98.831187
 20
147.973000
 30
0.0
 10
98.757506
 20
147.973000
 30
0.0
  0
SPLINE
  5
314
100
AcDbEntity
  8
Layer_2
 62
7
100
AcDbSpline
 70
8
 71
3
 72
8
 73
4
 74
0
 40
0
 40
0
 40
0
 40
0
 40
1
 40
1
 40
1
 40
1
 10
98.757506
 20
147.973000
 30
0.0
 10
98.683826
 20
147.973000
 30
0.0
 10
98.599355
 20
147.896800
 30
0.0
 10
98.569795
 20
147.803670
 30
0.0
  0
SPLINE
  5
315
100
AcDbEntity
  8
Layer_2
 62
7
100
AcDbSpline
 70
8
 71
3
 72
8
 73
4
 74
0
 40
0
 40
0
 40
0
 40
0
 40
1
 40
1
 40
1
 40
1
 10
98.569795
 20
147.803670
 30
0.0
 10
98.540235
 20
147.710570
 30
0.0
 10
98.480515
 20
147.634340
 30
0.0
 10
98.437090
 20
147.634340
 30
0.0
  0
SPLINE
  5
316
100
AcDbEntity
  8
Layer_2
 62
7
100
AcDbSpline
 70
8
 71
3
 72
8
 73
4
 74
0
 40
0
 40
0
 40
0
 40
0
 40
1
 40
1
 40
1
 40
1
 10
98.437090
 20
147.634340
 30
0.0
 10
98.389180
 20
147.634340
 30
0.0
 10
98.358130
 20
145.736750
 30
0.0
 10
98.358130
 20
142.808340
 30
0.0
  0
LWPOLYLINE
  5
317
100
AcDbEntity
  8
Layer_2
 62
7
100
AcDbPolyline
 90
3
 70
0
 10
76.726140
 20
137.982490
 30
0.0
 10
77.022473
 20
137.982490
 30
0.0
 10
77.022473
 20
142.808490
 30
0.0
  0
SPLINE
  5
318
100
AcDbEntity
  8
Layer_2
 62
7
100
AcDbSpline
 70
8
 71
3
 72
8
 73
4
 74
0
 40
0
 40
0
 40
0
 40
0
 40
1
 40
1
 40
1
 40
1
 10
98.654463
 20
137.982340
 30
0.0
 10
98.817446
 20
137.982340
 30
0.0
 10
98.950796
 20
137.948840
 30
0.0
 10
98.950796
 20
137.907840
 30
0.0
  0
SPLINE
  5
319
100
AcDbEntity
  8
Layer_2
 62
7
100
AcDbSpline
 70
8
 71
3
 72
8
 73
4
 74
0
 40
0
 40
0
 40
0
 40
0
 40
1
 40
1
 40
1
 40
1
 10
98.950796
 20
137.907840
 30
0.0
 10
98.950796
 20
137.866840
 30
0.0
 10
99.427046
 20
137.805890
 30
0.0
 10
100.009130
 20
137.772320
 30
0.0
  0
SPLINE
  5
31a
100
AcDbEntity
  8
Layer_2
 62
7
100
AcDbSpline
 70
8
 71
3
 72
8
 73
4
 74
0
 40
0
 40
0
 40
0
 40
0
 40
1
 40
1
 40
1
 40
1
 10
100.009130
 20
137.772320
 30
0.0
 10
100.591210
 20
137.738720
 30
0.0
 10
101.067460
 20
137.677020
 30
0.0
 10
101.067460
 20
137.635130
 30
0.0
  0
SPLINE
  5
31b
100
AcDbEntity
  8
Layer_2
 62
7
100
AcDbSpline
 70
8
 71
3
 72
8
 73
4
 74
0
 40
0
 40
0
 40
0
 40
0
 40
1
 40
1
 40
1
 40
1
 10
101.067460
 20
137.635130
 30
0.0
 10
101.067460
 20
137.593230
 30
0.0
 10
101.315110
 20
137.559030
 30
0.0
 10
101.617790
 20
137.559030
 30
0.0
  0
SPLINE
  5
31c
100
AcDbEntity
  8
Layer_2
 62
7
100
AcDbSpline
 70
8
 71
3
 72
8
 73
4
 74
0
 40
0
 40
0
 40
0
 40
0
 40
1
 40
1
 40
1
 40
1
 10
101.617790
 20
137.559030
 30
0.0
 10
101.920480
 20
137.559030
 30
0.0
 10
102.168130
 20
137.525030
 30
0.0
 10
102.168130
 20
137.483530
 30
0.0
  0
SPLINE
  5
31d
100
AcDbEntity
  8
Layer_2
 62
7
100
AcDbSpline
 70
8
 71
3
 72
8
 73
4
 74
0
 40
0
 40
0
 40
0
 40
0
 40
1
 40
1
 40
1
 40
1
 10
102.168130
 20
137.483530
 30
0.0
 10
102.168130
 20
137.441930
 30
0.0
 10
102.549130
 20
137.380730
 30
0.0
 10
103.014790
 20
137.347400
 30
0.0
  0
SPLINE
  5
31e
100
AcDbEntity
  8
Layer_2
 62
7
100
AcDbSpline
 70
8
 71
3
 72
8
 73
4
 74
0
 40
0
 40
0
 40
0
 40
0
 40
1
 40
1
 40
1
 40
1
 10
103.014790
 20
137.347400
 30
0.0
 10
103.480460
 20
137.314100
 30
0.0
 10
103.861460
 20
137.252800
 30
0.0
 10
103.861460
 20
137.211260
 30
0.0
  0
SPLINE
  5
31f
100
AcDbEntity
  8
Layer_2
 62
7
100
AcDbSpline
 70
8
 71
3
 72
8
 73
4
 74
0
 40
0
 40
0
 40
0
 40
0
 40
1
 40
1
 40
1
 40
1
 10
103.861460
 20
137.211260
 30
0.0
 10
103.861460
 20
137.169760
 30
0.0
 10
104.051960
 20
137.135760
 30
0.0
 10
104.284790
 20
137.135760
 30
0.0
  0
SPLINE
  5
320
100
AcDbEntity
  8
Layer_2
 62
7
100
AcDbSpline
 70
8
 71
3
 72
8
 73
4
 74
0
 40
0
 40
0
 40
0
 40
0
 40
1
 40
1
 40
1
 40
1
 10
104.284790
 20
137.135760
 30
0.0
 10
104.517630
 20
137.135760
 30
0.0
 10
104.708130
 20
137.101660
 30
0.0
 10
104.708130
 20
137.059860
 30
0.0
  0
SPLINE
  5
321
100
AcDbEntity
  8
Layer_2
 62
7
100
AcDbSpline
 70
8
 71
3
 72
8
 73
4
 74
0
 40
0
 40
0
 40
0
 40
0
 40
1
 40
1
 40
1
 40
1
 10
104.708130
 20
137.059860
 30
0.0
 10
104.708130
 20
137.018160
 30
0.0
 10
105.012930
 20
136.957030
 30
0.0
 10
105.385460
 20
136.924050
 30
0.0
  0
SPLINE
  5
322
100
AcDbEntity
  8
Layer_2
 62
7
100
AcDbSpline
 70
8
 71
3
 72
8
 73
4
 74
0
 40
0
 40
0
 40
0
 40
0
 40
1
 40
1
 40
1
 40
1
 10
105.385460
 20
136.924050
 30
0.0
 10
105.757990
 20
136.891050
 30
0.0
 10
106.062790
 20
136.829950
 30
0.0
 10
106.062790
 20
136.788240
 30
0.0
  0
SPLINE
  5
323
100
AcDbEntity
  8
Layer_2
 62
7
100
AcDbSpline
 70
8
 71
3
 72
8
 73
4
 74
0
 40
0
 40
0
 40
0
 40
0
 40
1
 40
1
 40
1
 40
1
 10
106.062790
 20
136.788240
 30
0.0
 10
106.062790
 20
136.746540
 30
0.0
 10
106.234240
 20
136.712340
 30
0.0
 10
106.443790
 20
136.712340
 30
0.0
  0
SPLINE
  5
324
100
AcDbEntity
  8
Layer_2
 62
7
100
AcDbSpline
 70
8
 71
3
 72
8
 73
4
 74
0
 40
0
 40
0
 40
0
 40
0
 40
1
 40
1
 40
1
 40
1
 10
106.443790
 20
136.712340
 30
0.0
 10
106.653340
 20
136.712340
 30
0.0
 10
106.824790
 20
136.679140
 30
0.0
 10
106.824790
 20
136.638640
 30
0.0
  0
SPLINE
  5
325
100
AcDbEntity
  8
Layer_2
 62
7
100
AcDbSpline
 70
8
 71
3
 72
8
 73
4
 74
0
 40
0
 40
0
 40
0
 40
0
 40
1
 40
1
 40
1
 40
1
 10
106.824790
 20
136.638640
 30
0.0
 10
106.824790
 20
136.598140
 30
0.0
 10
107.091490
 20
136.538630
 30
0.0
 10
107.417460
 20
136.506510
 30
0.0
  0
SPLINE
  5
326
100
AcDbEntity
  8
Layer_2
 62
7
100
AcDbSpline
 70
8
 71
3
 72
8
 73
4
 74
0
 40
0
 40
0
 40
0
 40
0
 40
1
 40
1
 40
1
 40
1
 10
107.417460
 20
136.506510
 30
0.0
 10
107.743430
 20
136.474410
 30
0.0
 10
108.010130
 20
136.412310
 30
0.0
 10
108.010130
 20
136.368570
 30
0.0
  0
SPLINE
  5
327
100
AcDbEntity
  8
Layer_2
 62
7
100
AcDbSpline
 70
8
 71
3
 72
8
 73
4
 74
0
 40
0
 40
0
 40
0
 40
0
 40
1
 40
1
 40
1
 40
1
 10
108.010130
 20
136.368570
 30
0.0
 10
108.010130
 20
136.324770
 30
0.0
 10
108.143480
 20
136.289070
 30
0.0
 10
108.306460
 20
136.289070
 30
0.0
  0
SPLINE
  5
328
100
AcDbEntity
  8
Layer_2
 62
7
100
AcDbSpline
 70
8
 71
3
 72
8
 73
4
 74
0
 40
0
 40
0
 40
0
 40
0
 40
1
 40
1
 40
1
 40
1
 10
108.306460
 20
136.289070
 30
0.0
 10
108.469440
 20
136.289070
 30
0.0
 10
108.602790
 20
136.255370
 30
0.0
 10
108.602790
 20
136.214270
 30
0.0
  0
SPLINE
  5
329
100
AcDbEntity
  8
Layer_2
 62
7
100
AcDbSpline
 70
8
 71
3
 72
8
 73
4
 74
0
 40
0
 40
0
 40
0
 40
0
 40
1
 40
1
 40
1
 40
1
 10
108.602790
 20
136.214270
 30
0.0
 10
108.602790
 20
136.173170
 30
0.0
 10
108.850440
 20
136.112940
 30
0.0
 10
109.153130
 20
136.080530
 30
0.0
  0
SPLINE
  5
32a
100
AcDbEntity
  8
Layer_2
 62
7
100
AcDbSpline
 70
8
 71
3
 72
8
 73
4
 74
0
 40
0
 40
0
 40
0
 40
0
 40
1
 40
1
 40
1
 40
1
 10
109.153130
 20
136.080530
 30
0.0
 10
109.455810
 20
136.048130
 30
0.0
 10
109.703460
 20
135.986530
 30
0.0
 10
109.703460
 20
135.943670
 30
0.0
  0
SPLINE
  5
32b
100
AcDbEntity
  8
Layer_2
 62
7
100
AcDbSpline
 70
8
 71
3
 72
8
 73
4
 74
0
 40
0
 40
0
 40
0
 40
0
 40
1
 40
1
 40
1
 40
1
 10
109.703460
 20
135.943670
 30
0.0
 10
109.703460
 20
135.900770
 30
0.0
 10
109.836810
 20
135.865770
 30
0.0
 10
109.999790
 20
135.865770
 30
0.0
  0
SPLINE
  5
32c
100
AcDbEntity
  8
Layer_2
 62
7
100
AcDbSpline
 70
8
 71
3
 72
8
 73
4
 74
0
 40
0
 40
0
 40
0
 40
0
 40
1
 40
1
 40
1
 40
1
 10
109.999790
 20
135.865770
 30
0.0
 10
110.162780
 20
135.865770
 30
0.0
 10
110.296130
 20
135.832570
 30
0.0
 10
110.296130
 20
135.792070
 30
0.0
  0
SPLINE
  5
32d
100
AcDbEntity
  8
Layer_2
 62
7
100
AcDbSpline
 70
8
 71
3
 72
8
 73
4
 74
0
 40
0
 40
0
 40
0
 40
0
 40
1
 40
1
 40
1
 40
1
 10
110.296130
 20
135.792070
 30
0.0
 10
110.296130
 20
135.751570
 30
0.0
 10
110.524730
 20
135.692470
 30
0.0
 10
110.804130
 20
135.660860
 30
0.0
  0
SPLINE
  5
32e
100
AcDbEntity
  8
Layer_2
 62
7
100
AcDbSpline
 70
8
 71
3
 72
8
 73
4
 74
0
 40
0
 40
0
 40
0
 40
0
 40
1
 40
1
 40
1
 40
1
 10
110.804130
 20
135.660860
 30
0.0
 10
111.083530
 20
135.629260
 30
0.0
 10
111.312130
 20
135.567160
 30
0.0
 10
111.312130
 20
135.522930
 30
0.0
  0
SPLINE
  5
32f
100
AcDbEntity
  8
Layer_2
 62
7
100
AcDbSpline
 70
8
 71
3
 72
8
 73
4
 74
0
 40
0
 40
0
 40
0
 40
0
 40
1
 40
1
 40
1
 40
1
 10
111.312130
 20
135.522930
 30
0.0
 10
111.312130
 20
135.478630
 30
0.0
 10
111.426430
 20
135.442430
 30
0.0
 10
111.566130
 20
135.442430
 30
0.0
  0
SPLINE
  5
330
100
AcDbEntity
  8
Layer_2
 62
7
100
AcDbSpline
 70
8
 71
3
 72
8
 73
4
 74
0
 40
0
 40
0
 40
0
 40
0
 40
1
 40
1
 40
1
 40
1
 10
111.566130
 20
135.442430
 30
0.0
 10
111.705830
 20
135.442430
 30
0.0
 10
111.820130
 20
135.407930
 30
0.0
 10
111.820130
 20
135.365730
 30
0.0
  0
SPLINE
  5
331
100
AcDbEntity
  8
Layer_2
 62
7
100
AcDbSpline
 70
8
 71
3
 72
8
 73
4
 74
0
 40
0
 40
0
 40
0
 40
0
 40
1
 40
1
 40
1
 40
1
 10
111.820130
 20
135.365730
 30
0.0
 10
111.820130
 20
135.323530
 30
0.0
 10
112.010630
 20
135.262810
 30
0.0
 10
112.243460
 20
135.230790
 30
0.0
  0
SPLINE
  5
332
100
AcDbEntity
  8
Layer_2
 62
7
100
AcDbSpline
 70
8
 71
3
 72
8
 73
4
 74
0
 40
0
 40
0
 40
0
 40
0
 40
1
 40
1
 40
1
 40
1
 10
112.243460
 20
135.230790
 30
0.0
 10
112.476290
 20
135.198790
 30
0.0
 10
112.666790
 20
135.138090
 30
0.0
 10
112.666790
 20
135.095840
 30
0.0
  0
SPLINE
  5
333
100
AcDbEntity
  8
Layer_2
 62
7
100
AcDbSpline
 70
8
 71
3
 72
8
 73
4
 74
0
 40
0
 40
0
 40
0
 40
0
 40
1
 40
1
 40
1
 40
1
 10
112.666790
 20
135.095840
 30
0.0
 10
112.666790
 20
135.053640
 30
0.0
 10
112.761990
 20
135.019140
 30
0.0
 10
112.878460
 20
135.019140
 30
0.0
  0
SPLINE
  5
334
100
AcDbEntity
  8
Layer_2
 62
7
100
AcDbSpline
 70
8
 71
3
 72
8
 73
4
 74
0
 40
0
 40
0
 40
0
 40
0
 40
1
 40
1
 40
1
 40
1
 10
112.878460
 20
135.019140
 30
0.0
 10
112.994880
 20
135.019140
 30
0.0
 10
113.090130
 20
134.984640
 30
0.0
 10
113.090130
 20
134.942440
 30
0.0
  0
SPLINE
  5
335
100
AcDbEntity
  8
Layer_2
 62
7
100
AcDbSpline
 70
8
 71
3
 72
8
 73
4
 74
0
 40
0
 40
0
 40
0
 40
0
 40
1
 40
1
 40
1
 40
1
 10
113.090130
 20
134.942440
 30
0.0
 10
113.090130
 20
134.900240
 30
0.0
 10
113.280630
 20
134.839520
 30
0.0
 10
113.513460
 20
134.807500
 30
0.0
  0
SPLINE
  5
336
100
AcDbEntity
  8
Layer_2
 62
7
100
AcDbSpline
 70
8
 71
3
 72
8
 73
4
 74
0
 40
0
 40
0
 40
0
 40
0
 40
1
 40
1
 40
1
 40
1
 10
113.513460
 20
134.807500
 30
0.0
 10
113.746300
 20
134.775500
 30
0.0
 10
113.936800
 20
134.718300
 30
0.0
 10
113.936800
 20
134.680500
 30
0.0
  0
SPLINE
  5
337
100
AcDbEntity
  8
Layer_2
 62
7
100
AcDbSpline
 70
8
 71
3
 72
8
 73
4
 74
0
 40
0
 40
0
 40
0
 40
0
 40
1
 40
1
 40
1
 40
1
 10
113.936800
 20
134.680500
 30
0.0
 10
113.936800
 20
134.642700
 30
0.0
 10
114.127300
 20
134.585500
 30
0.0
 10
114.360130
 20
134.553500
 30
0.0
  0
SPLINE
  5
338
100
AcDbEntity
  8
Layer_2
 62
7
100
AcDbSpline
 70
8
 71
3
 72
8
 73
4
 74
0
 40
0
 40
0
 40
0
 40
0
 40
1
 40
1
 40
1
 40
1
 10
114.360130
 20
134.553500
 30
0.0
 10
114.592960
 20
134.521500
 30
0.0
 10
114.783460
 20
134.460800
 30
0.0
 10
114.783460
 20
134.418550
 30
0.0
  0
SPLINE
  5
339
100
AcDbEntity
  8
Layer_2
 62
7
100
AcDbSpline
 70
8
 71
3
 72
8
 73
4
 74
0
 40
0
 40
0
 40
0
 40
0
 40
1
 40
1
 40
1
 40
1
 10
114.783460
 20
134.418550
 30
0.0
 10
114.783460
 20
134.376350
 30
0.0
 10
114.878660
 20
134.341850
 30
0.0
 10
114.995130
 20
134.341850
 30
0.0
  0
SPLINE
  5
33a
100
AcDbEntity
  8
Layer_2
 62
7
100
AcDbSpline
 70
8
 71
3
 72
8
 73
4
 74
0
 40
0
 40
0
 40
0
 40
0
 40
1
 40
1
 40
1
 40
1
 10
114.995130
 20
134.341850
 30
0.0
 10
115.111550
 20
134.341850
 30
0.0
 10
115.206800
 20
134.304150
 30
0.0
 10
115.206800
 20
134.258150
 30
0.0
  0
SPLINE
  5
33b
100
AcDbEntity
  8
Layer_2
 62
7
100
AcDbSpline
 70
8
 71
3
 72
8
 73
4
 74
0
 40
0
 40
0
 40
0
 40
0
 40
1
 40
1
 40
1
 40
1
 10
115.206800
 20
134.258150
 30
0.0
 10
115.206800
 20
134.212150
 30
0.0
 10
115.359200
 20
134.150120
 30
0.0
 10
115.545460
 20
134.120330
 30
0.0
  0
SPLINE
  5
33c
100
AcDbEntity
  8
Layer_2
 62
7
100
AcDbSpline
 70
8
 71
3
 72
8
 73
4
 74
0
 40
0
 40
0
 40
0
 40
0
 40
1
 40
1
 40
1
 40
1
 10
115.545460
 20
134.120330
 30
0.0
 10
115.731730
 20
134.090530
 30
0.0
 10
115.884130
 20
134.032930
 30
0.0
 10
115.884130
 20
133.992330
 30
0.0
  0
SPLINE
  5
33d
100
AcDbEntity
  8
Layer_2
 62
7
100
AcDbSpline
 70
8
 71
3
 72
8
 73
4
 74
0
 40
0
 40
0
 40
0
 40
0
 40
1
 40
1
 40
1
 40
1
 10
115.884130
 20
133.992330
 30
0.0
 10
115.884130
 20
133.951730
 30
0.0
 10
115.960330
 20
133.918530
 30
0.0
 10
116.053460
 20
133.918530
 30
0.0
  0
SPLINE
  5
33e
100
AcDbEntity
  8
Layer_2
 62
7
100
AcDbSpline
 70
8
 71
3
 72
8
 73
4
 74
0
 40
0
 40
0
 40
0
 40
0
 40
1
 40
1
 40
1
 40
1
 10
116.053460
 20
133.918530
 30
0.0
 10
116.146560
 20
133.918530
 30
0.0
 10
116.222800
 20
133.885330
 30
0.0
 10
116.222800
 20
133.844730
 30
0.0
  0
SPLINE
  5
33f
100
AcDbEntity
  8
Layer_2
 62
7
100
AcDbSpline
 70
8
 71
3
 72
8
 73
4
 74
0
 40
0
 40
0
 40
0
 40
0
 40
1
 40
1
 40
1
 40
1
 10
116.222800
 20
133.844730
 30
0.0
 10
116.222800
 20
133.804130
 30
0.0
 10
116.375200
 20
133.746530
 30
0.0
 10
116.561460
 20
133.716730
 30
0.0
  0
SPLINE
  5
340
100
AcDbEntity
  8
Layer_2
 62
7
100
AcDbSpline
 70
8
 71
3
 72
8
 73
4
 74
0
 40
0
 40
0
 40
0
 40
0
 40
1
 40
1
 40
1
 40
1
 10
116.561460
 20
133.716730
 30
0.0
 10
116.747730
 20
133.686930
 30
0.0
 10
116.900130
 20
133.624930
 30
0.0
 10
116.900130
 20
133.578910
 30
0.0
  0
SPLINE
  5
341
100
AcDbEntity
  8
Layer_2
 62
7
100
AcDbSpline
 70
8
 71
3
 72
8
 73
4
 74
0
 40
0
 40
0
 40
0
 40
0
 40
1
 40
1
 40
1
 40
1
 10
116.900130
 20
133.578910
 30
0.0
 10
116.900130
 20
133.532910
 30
0.0
 10
116.957230
 20
133.495210
 30
0.0
 10
117.027130
 20
133.495210
 30
0.0
  0
SPLINE
  5
342
100
AcDbEntity
  8
Layer_2
 62
7
100
AcDbSpline
 70
8
 71
3
 72
8
 73
4
 74
0
 40
0
 40
0
 40
0
 40
0
 40
1
 40
1
 40
1
 40
1
 10
117.027130
 20
133.495210
 30
0.0
 10
117.097030
 20
133.495210
 30
0.0
 10
117.154130
 20
133.461310
 30
0.0
 10
117.154130
 20
133.420010
 30
0.0
  0
SPLINE
  5
343
100
AcDbEntity
  8
Layer_2
 62
7
100
AcDbSpline
 70
8
 71
3
 72
8
 73
4
 74
0
 40
0
 40
0
 40
0
 40
0
 40
1
 40
1
 40
1
 40
1
 10
117.154130
 20
133.420010
 30
0.0
 10
117.154130
 20
133.378610
 30
0.0
 10
117.287480
 20
133.319750
 30
0.0
 10
117.450460
 20
133.289170
 30
0.0
  0
SPLINE
  5
344
100
AcDbEntity
  8
Layer_2
 62
7
100
AcDbSpline
 70
8
 71
3
 72
8
 73
4
 74
0
 40
0
 40
0
 40
0
 40
0
 40
1
 40
1
 40
1
 40
1
 10
117.450460
 20
133.289170
 30
0.0
 10
117.613450
 20
133.258570
 30
0.0
 10
117.746800
 20
133.197170
 30
0.0
 10
117.746800
 20
133.152750
 30
0.0
  0
SPLINE
  5
345
100
AcDbEntity
  8
Layer_2
 62
7
100
AcDbSpline
 70
8
 71
3
 72
8
 73
4
 74
0
 40
0
 40
0
 40
0
 40
0
 40
1
 40
1
 40
1
 40
1
 10
117.746800
 20
133.152750
 30
0.0
 10
117.746800
 20
133.108250
 30
0.0
 10
117.842000
 20
133.071950
 30
0.0
 10
117.958460
 20
133.071950
 30
0.0
  0
SPLINE
  5
346
100
AcDbEntity
  8
Layer_2
 62
7
100
AcDbSpline
 70
8
 71
3
 72
8
 73
4
 74
0
 40
0
 40
0
 40
0
 40
0
 40
1
 40
1
 40
1
 40
1
 10
117.958460
 20
133.071950
 30
0.0
 10
118.074880
 20
133.071950
 30
0.0
 10
118.170130
 20
133.035550
 30
0.0
 10
118.170130
 20
132.991150
 30
0.0
  0
SPLINE
  5
347
100
AcDbEntity
  8
Layer_2
 62
7
100
AcDbSpline
 70
8
 71
3
 72
8
 73
4
 74
0
 40
0
 40
0
 40
0
 40
0
 40
1
 40
1
 40
1
 40
1
 10
118.170130
 20
132.991150
 30
0.0
 10
118.170130
 20
132.946650
 30
0.0
 10
118.303480
 20
132.885300
 30
0.0
 10
118.466460
 20
132.854730
 30
0.0
  0
SPLINE
  5
348
100
AcDbEntity
  8
Layer_2
 62
7
100
AcDbSpline
 70
8
 71
3
 72
8
 73
4
 74
0
 40
0
 40
0
 40
0
 40
0
 40
1
 40
1
 40
1
 40
1
 10
118.466460
 20
132.854730
 30
0.0
 10
118.629450
 20
132.824130
 30
0.0
 10
118.762800
 20
132.765230
 30
0.0
 10
118.762800
 20
132.723890
 30
0.0
  0
SPLINE
  5
349
100
AcDbEntity
  8
Layer_2
 62
7
100
AcDbSpline
 70
8
 71
3
 72
8
 73
4
 74
0
 40
0
 40
0
 40
0
 40
0
 40
1
 40
1
 40
1
 40
1
 10
118.762800
 20
132.723890
 30
0.0
 10
118.762800
 20
132.682490
 30
0.0
 10
118.820000
 20
132.648690
 30
0.0
 10
118.889800
 20
132.648690
 30
0.0
  0
SPLINE
  5
34a
100
AcDbEntity
  8
Layer_2
 62
7
100
AcDbSpline
 70
8
 71
3
 72
8
 73
4
 74
0
 40
0
 40
0
 40
0
 40
0
 40
1
 40
1
 40
1
 40
1
 10
118.889800
 20
132.648690
 30
0.0
 10
118.959600
 20
132.648690
 30
0.0
 10
119.016800
 20
132.614690
 30
0.0
 10
119.016800
 20
132.573190
 30
0.0
  0
SPLINE
  5
34b
100
AcDbEntity
  8
Layer_2
 62
7
100
AcDbSpline
 70
8
 71
3
 72
8
 73
4
 74
0
 40
0
 40
0
 40
0
 40
0
 40
1
 40
1
 40
1
 40
1
 10
119.016800
 20
132.573190
 30
0.0
 10
119.016800
 20
132.531690
 30
0.0
 10
119.119310
 20
132.471970
 30
0.0
 10
119.244610
 20
132.440520
 30
0.0
  0
SPLINE
  5
34c
100
AcDbEntity
  8
Layer_2
 62
7
100
AcDbSpline
 70
8
 71
3
 72
8
 73
4
 74
0
 40
0
 40
0
 40
0
 40
0
 40
1
 40
1
 40
1
 40
1
 10
119.244610
 20
132.440520
 30
0.0
 10
119.369910
 20
132.409020
 30
0.0
 10
119.536240
 20
132.309760
 30
0.0
 10
119.614240
 20
132.219830
 30
0.0
  0
SPLINE
  5
34d
100
AcDbEntity
  8
Layer_2
 62
7
100
AcDbSpline
 70
8
 71
3
 72
8
 73
4
 74
0
 40
0
 40
0
 40
0
 40
0
 40
1
 40
1
 40
1
 40
1
 10
119.614240
 20
132.219830
 30
0.0
 10
119.692240
 20
132.129930
 30
0.0
 10
119.875470
 20
132.032440
 30
0.0
 10
120.021420
 20
132.003250
 30
0.0
  0
SPLINE
  5
34e
100
AcDbEntity
  8
Layer_2
 62
7
100
AcDbSpline
 70
8
 71
3
 72
8
 73
4
 74
0
 40
0
 40
0
 40
0
 40
0
 40
1
 40
1
 40
1
 40
1
 10
120.021420
 20
132.003250
 30
0.0
 10
120.167380
 20
131.974050
 30
0.0
 10
120.286800
 20
131.916850
 30
0.0
 10
120.286800
 20
131.876090
 30
0.0
  0
SPLINE
  5
34f
100
AcDbEntity
  8
Layer_2
 62
7
100
AcDbSpline
 70
8
 71
3
 72
8
 73
4
 74
0
 40
0
 40
0
 40
0
 40
0
 40
1
 40
1
 40
1
 40
1
 10
120.286800
 20
131.876090
 30
0.0
 10
120.286800
 20
131.835390
 30
0.0
 10
120.344000
 20
131.801990
 30
0.0
 10
120.413800
 20
131.801990
 30
0.0
  0
SPLINE
  5
350
100
AcDbEntity
  8
Layer_2
 62
7
100
AcDbSpline
 70
8
 71
3
 72
8
 73
4
 74
0
 40
0
 40
0
 40
0
 40
0
 40
1
 40
1
 40
1
 40
1
 10
120.413800
 20
131.801990
 30
0.0
 10
120.483600
 20
131.801990
 30
0.0
 10
120.540800
 20
131.766490
 30
0.0
 10
120.540800
 20
131.722990
 30
0.0
  0
SPLINE
  5
351
100
AcDbEntity
  8
Layer_2
 62
7
100
AcDbSpline
 70
8
 71
3
 72
8
 73
4
 74
0
 40
0
 40
0
 40
0
 40
0
 40
1
 40
1
 40
1
 40
1
 10
120.540800
 20
131.722990
 30
0.0
 10
120.540800
 20
131.679590
 30
0.0
 10
120.626500
 20
131.616960
 30
0.0
 10
120.731300
 20
131.583880
 30
0.0
  0
SPLINE
  5
352
100
AcDbEntity
  8
Layer_2
 62
7
100
AcDbSpline
 70
8
 71
3
 72
8
 73
4
 74
0
 40
0
 40
0
 40
0
 40
0
 40
1
 40
1
 40
1
 40
1
 10
120.731300
 20
131.583880
 30
0.0
 10
120.836070
 20
131.550780
 30
0.0
 10
120.978950
 20
131.458430
 30
0.0
 10
121.048800
 20
131.378610
 30
0.0
  0
SPLINE
  5
353
100
AcDbEntity
  8
Layer_2
 62
7
100
AcDbSpline
 70
8
 71
3
 72
8
 73
4
 74
0
 40
0
 40
0
 40
0
 40
0
 40
1
 40
1
 40
1
 40
1
 10
121.048800
 20
131.378610
 30
0.0
 10
121.118700
 20
131.298810
 30
0.0
 10
121.259570
 20
131.207050
 30
0.0
 10
121.361970
 20
131.174730
 30
0.0
  0
SPLINE
  5
354
100
AcDbEntity
  8
Layer_2
 62
7
100
AcDbSpline
 70
8
 71
3
 72
8
 73
4
 74
0
 40
0
 40
0
 40
0
 40
0
 40
1
 40
1
 40
1
 40
1
 10
121.361970
 20
131.174730
 30
0.0
 10
121.464360
 20
131.142430
 30
0.0
 10
121.571700
 20
131.041700
 30
0.0
 10
121.600500
 20
130.950950
 30
0.0
  0
SPLINE
  5
355
100
AcDbEntity
  8
Layer_2
 62
7
100
AcDbSpline
 70
8
 71
3
 72
8
 73
4
 74
0
 40
0
 40
0
 40
0
 40
0
 40
1
 40
1
 40
1
 40
1
 10
121.600500
 20
130.950950
 30
0.0
 10
121.629300
 20
130.860250
 30
0.0
 10
121.688400
 20
130.785950
 30
0.0
 10
121.731840
 20
130.785950
 30
0.0
  0
SPLINE
  5
356
100
AcDbEntity
  8
Layer_2
 62
7
100
AcDbSpline
 70
8
 71
3
 72
8
 73
4
 74
0
 40
0
 40
0
 40
0
 40
0
 40
1
 40
1
 40
1
 40
1
 10
121.731840
 20
130.785950
 30
0.0
 10
121.780340
 20
130.785950
 30
0.0
 10
121.810840
 20
126.094350
 30
0.0
 10
121.810840
 20
118.636280
 30
0.0
  0
LWPOLYLINE
  5
357
100
AcDbEntity
  8
Layer_2
 62
7
100
AcDbPolyline
 90
3
 70
0
 10
98.358130
 20
142.808340
 30
0.0
 10
98.358130
 20
137.982340
 30
0.0
 10
98.654463
 20
137.982340
 30
0.0
  0
LWPOLYLINE
  5
358
100
AcDbEntity
  8
Layer_2
 62
7
100
AcDbPolyline
 90
5
 70
0
 10
121.810840
 20
118.636280
 30
0.0
 10
121.810840
 20
106.486610
 30
0.0
 10
87.690476
 20
106.486610
 30
0.0
 10
53.569805
 20
106.486610
 30
0.0
 10
53.569805
 20
118.636140
 30
0.0
  0
ENDSEC
  0
SECTION
  2
OBJECTS
  0
DICTIONARY
  5
C
330
0
100
AcDbDictionary
  3
ACAD_GROUP
350
D
  3
ACAD_MLINESTYLE
350
17
  0
DICTIONARY
  5
D
330
C
100
AcDbDictionary
  0
DICTIONARY
  5
1A
330
C
100
AcDbDictionary
  0
DICTIONARY
  5
17
330
C
100
AcDbDictionary
  3
STANDARD
350
18
  0
DICTIONARY
  5
19
330
C
100
AcDbDictionary
  0
ENDSEC
  0
EOF
