  0
SECTION
  2
HEADER
  9
$ACADVER
  1
AC1014
  9
$HANDSEED
  5
FFFF
  9
$MEASUREMENT
 70
     1
  0
ENDSEC
  0
SECTION
  2
TABLES
  0
TABLE
  2
VPORT
  5
8
330
0
100
AcDbSymbolTable
 70
     4
  0
VPORT
  5
2E
330
8
100
AcDbSymbolTableRecord
100
AcDbViewportTableRecord
  2
*ACTIVE
 70
     0
 10
0.0
 20
0.0
 11
1.0
 21
1.0
 12
210.0
 22
148.5
 13
0.0
 23
0.0
 14
10.0
 24
10.0
 15
10.0
 25
10.0
 16
0.0
 26
0.0
 36
1.0
 17
0.0
 27
0.0
 37
0.0
 40
341.0
 41
1.24
 42
50.0
 43
0.0
 44
0.0
 50
0.0
 51
0.0
 71
     0
 72
   100
 73
     1
 74
     3
 75
     0
 76
     0
 77
     0
 78
     0
  0
ENDTAB
  0
TABLE
  2
LTYPE
  5
5
330
0
100
AcDbSymbolTable
 70
     1
  0
LTYPE
  5
14
330
5
100
AcDbSymbolTableRecord
100
AcDbLinetypeTableRecord
  2
BYBLOCK
 70
     0
  3

 72
    65
 73
     0
 40
0.0
  0
LTYPE
  5
15
330
5
100
AcDbSymbolTableRecord
100
AcDbLinetypeTableRecord
  2
BYLAYER
 70
     0
  3

 72
    65
 73
     0
 40
0.0
  0
LTYPE
  5
16
330
5
100
AcDbSymbolTableRecord
100
AcDbLinetypeTableRecord
  2
CONTINUOUS
 70
     0
  3
Solid line
 72
    65
 73
     0
 40
0.0
  0
ENDTAB
  0
TABLE
  2
LAYER
  5
2
100
AcDbSymbolTable
 70
3
  0
LAYER
  5
50
100
AcDbSymbolTableRecord
100
AcDbLayerTableRecord
  2
0
 70
0
  6
CONTINUOUS
  0
LAYER
  5
51
100
AcDbSymbolTableRecord
100
AcDbLayerTableRecord
  2
Layer_1
 70
0
  6
CONTINUOUS
  0
LAYER
  5
52
100
AcDbSymbolTableRecord
100
AcDbLayerTableRecord
  2
Layer_2
 70
0
  6
CONTINUOUS
  0
ENDTAB
  0
TABLE
  2
STYLE
  5
3
330
0
100
AcDbSymbolTable
 70
     1
  0
STYLE
  5
11
330
3
100
AcDbSymbolTableRecord
100
AcDbTextStyleTableRecord
  2
STANDARD
 70
     0
 40
0.0
 41
1.0
 50
0.0
 71
     0
 42
2.5
  3
txt
  4

  0
ENDTAB
  0
TABLE
  2
VIEW
  5
6
330
0
100
AcDbSymbolTable
 70
     0
  0
ENDTAB
  0
TABLE
  2
UCS
  5
7
330
0
100
AcDbSymbolTable
 70
     0
  0
ENDTAB
  0
TABLE
  2
APPID
  5
9
330
0
100
AcDbSymbolTable
 70
     2
  0
APPID
  5
12
330
9
100
AcDbSymbolTableRecord
100
AcDbRegAppTableRecord
  2
ACAD
 70
     0
  0
ENDTAB
  0
TABLE
  2
DIMSTYLE
  5
A
330
0
100
AcDbSymbolTable
 70
     1
  0
DIMSTYLE
105
27
330
A
100
AcDbSymbolTableRecord
100
AcDbDimStyleTableRecord
  2
ISO-25
 70
     0
  3

  4

  5

  6

  7

 40
1.0
 41
2.5
 42
0.625
 43
3.75
 44
1.25
 45
0.0
 46
0.0
 47
0.0
 48
0.0
140
2.5
141
2.5
142
0.0
143
0.03937007874016
144
1.0
145
0.0
146
1.0
147
0.625
 71
     0
 72
     0
 73
     0
 74
     0
 75
     0
 76
     0
 77
     1
 78
     8
170
     0
171
     3
172
     1
173
     0
174
     0
175
     0
176
     0
177
     0
178
     0
270
     2
271
     2
272
     2
273
     2
274
     3
340
11
275
     0
280
     0
281
     0
282
     0
283
     0
284
     8
285
     0
286
     0
287
     3
288
     0
  0
ENDTAB
  0
TABLE
  2
BLOCK_RECORD
  5
1
330
0
100
AcDbSymbolTable
 70
     1
  0
BLOCK_RECORD
  5
1F
330
1
100
AcDbSymbolTableRecord
100
AcDbBlockTableRecord
  2
*MODEL_SPACE
  0
BLOCK_RECORD
  5
1B
330
1
100
AcDbSymbolTableRecord
100
AcDbBlockTableRecord
  2
*PAPER_SPACE
  0
ENDTAB
  0
ENDSEC
  0
SECTION
  2
BLOCKS
  0
BLOCK
  5
20
330
1F
100
AcDbEntity
  8
0
100
AcDbBlockBegin
  2
*MODEL_SPACE
 70
     0
 10
0.0
 20
0.0
 30
0.0
  3
*MODEL_SPACE
  1

  0
ENDBLK
  5
21
330
1F
100
AcDbEntity
  8
0
100
AcDbBlockEnd
  0
BLOCK
  5
1C
330
1B
100
AcDbEntity
 67
     1
  8
0
100
AcDbBlockBegin
  2
*PAPER_SPACE
  1

  0
ENDBLK
  5
1D
330
1B
100
AcDbEntity
 67
     1
  8
0
100
AcDbBlockEnd
  0
ENDSEC
  0
SECTION
  2
ENTITIES
  0
SPLINE
  5
100
100
AcDbEntity
  8
Layer_2
 62
7
100
AcDbSpline
 70
8
 71
3
 72
8
 73
4
 74
0
 40
0
 40
0
 40
0
 40
0
 40
1
 40
1
 40
1
 40
1
 10
59.761166
 20
166.086520
 30
0.0
 10
59.761166
 20
172.690520
 30
0.0
 10
59.776236
 20
173.579520
 30
0.0
 10
59.888166
 20
173.579520
 30
0.0
  0
SPLINE
  5
101
100
AcDbEntity
  8
Layer_2
 62
7
100
AcDbSpline
 70
8
 71
3
 72
8
 73
4
 74
0
 40
0
 40
0
 40
0
 40
0
 40
1
 40
1
 40
1
 40
1
 10
59.888166
 20
173.579520
 30
0.0
 10
59.958016
 20
173.579520
 30
0.0
 10
60.015166
 20
173.636620
 30
0.0
 10
60.015166
 20
173.706520
 30
0.0
  0
SPLINE
  5
102
100
AcDbEntity
  8
Layer_2
 62
7
100
AcDbSpline
 70
8
 71
3
 72
8
 73
4
 74
0
 40
0
 40
0
 40
0
 40
0
 40
1
 40
1
 40
1
 40
1
 10
60.015166
 20
173.706520
 30
0.0
 10
60.015166
 20
173.776420
 30
0.0
 10
60.072316
 20
173.833520
 30
0.0
 10
60.142166
 20
173.833520
 30
0.0
  0
SPLINE
  5
103
100
AcDbEntity
  8
Layer_2
 62
7
100
AcDbSpline
 70
8
 71
3
 72
8
 73
4
 74
0
 40
0
 40
0
 40
0
 40
0
 40
1
 40
1
 40
1
 40
1
 10
60.142166
 20
173.833520
 30
0.0
 10
60.212016
 20
173.833520
 30
0.0
 10
60.269166
 20
173.890720
 30
0.0
 10
60.269166
 20
173.960520
 30
0.0
  0
SPLINE
  5
104
100
AcDbEntity
  8
Layer_2
 62
7
100
AcDbSpline
 70
8
 71
3
 72
8
 73
4
 74
0
 40
0
 40
0
 40
0
 40
0
 40
1
 40
1
 40
1
 40
1
 10
60.269166
 20
173.960520
 30
0.0
 10
60.269166
 20
174.030420
 30
0.0
 10
60.326316
 20
174.087520
 30
0.0
 10
60.396166
 20
174.087520
 30
0.0
  0
SPLINE
  5
105
100
AcDbEntity
  8
Layer_2
 62
7
100
AcDbSpline
 70
8
 71
3
 72
8
 73
4
 74
0
 40
0
 40
0
 40
0
 40
0
 40
1
 40
1
 40
1
 40
1
 10
60.396166
 20
174.087520
 30
0.0
 10
60.466016
 20
174.087520
 30
0.0
 10
60.523166
 20
174.144720
 30
0.0
 10
60.523166
 20
174.214520
 30
0.0
  0
SPLINE
  5
106
100
AcDbEntity
  8
Layer_2
 62
7
100
AcDbSpline
 70
8
 71
3
 72
8
 73
4
 74
0
 40
0
 40
0
 40
0
 40
0
 40
1
 40
1
 40
1
 40
1
 10
60.523166
 20
174.214520
 30
0.0
 10
60.523166
 20
174.299220
 30
0.0
 10
60.607836
 20
174.341520
 30
0.0
 10
60.777166
 20
174.341520
 30
0.0
  0
SPLINE
  5
107
100
AcDbEntity
  8
Layer_2
 62
7
100
AcDbSpline
 70
8
 71
3
 72
8
 73
4
 74
0
 40
0
 40
0
 40
0
 40
0
 40
1
 40
1
 40
1
 40
1
 10
60.777166
 20
174.341520
 30
0.0
 10
60.946500
 20
174.341520
 30
0.0
 10
61.031166
 20
174.383820
 30
0.0
 10
61.031166
 20
174.468520
 30
0.0
  0
SPLINE
  5
108
100
AcDbEntity
  8
Layer_2
 62
7
100
AcDbSpline
 70
8
 71
3
 72
8
 73
4
 74
0
 40
0
 40
0
 40
0
 40
0
 40
1
 40
1
 40
1
 40
1
 10
61.031166
 20
174.468520
 30
0.0
 10
61.031166
 20
174.538420
 30
0.0
 10
61.088316
 20
174.595520
 30
0.0
 10
61.158166
 20
174.595520
 30
0.0
  0
SPLINE
  5
109
100
AcDbEntity
  8
Layer_2
 62
7
100
AcDbSpline
 70
8
 71
3
 72
8
 73
4
 74
0
 40
0
 40
0
 40
0
 40
0
 40
1
 40
1
 40
1
 40
1
 10
61.158166
 20
174.595520
 30
0.0
 10
61.228016
 20
174.595520
 30
0.0
 10
61.285166
 20
174.652720
 30
0.0
 10
61.285166
 20
174.722520
 30
0.0
  0
SPLINE
  5
10a
100
AcDbEntity
  8
Layer_2
 62
7
100
AcDbSpline
 70
8
 71
3
 72
8
 73
4
 74
0
 40
0
 40
0
 40
0
 40
0
 40
1
 40
1
 40
1
 40
1
 10
61.285166
 20
174.722520
 30
0.0
 10
61.285166
 20
174.807220
 30
0.0
 10
61.369836
 20
174.849520
 30
0.0
 10
61.539166
 20
174.849520
 30
0.0
  0
SPLINE
  5
10b
100
AcDbEntity
  8
Layer_2
 62
7
100
AcDbSpline
 70
8
 71
3
 72
8
 73
4
 74
0
 40
0
 40
0
 40
0
 40
0
 40
1
 40
1
 40
1
 40
1
 10
61.539166
 20
174.849520
 30
0.0
 10
61.708500
 20
174.849520
 30
0.0
 10
61.793166
 20
174.891820
 30
0.0
 10
61.793166
 20
174.976520
 30
0.0
  0
SPLINE
  5
10c
100
AcDbEntity
  8
Layer_2
 62
7
100
AcDbSpline
 70
8
 71
3
 72
8
 73
4
 74
0
 40
0
 40
0
 40
0
 40
0
 40
1
 40
1
 40
1
 40
1
 10
61.793166
 20
174.976520
 30
0.0
 10
61.793166
 20
175.061220
 30
0.0
 10
61.877836
 20
175.103520
 30
0.0
 10
62.047167
 20
175.103520
 30
0.0
  0
SPLINE
  5
10d
100
AcDbEntity
  8
Layer_2
 62
7
100
AcDbSpline
 70
8
 71
3
 72
8
 73
4
 74
0
 40
0
 40
0
 40
0
 40
0
 40
1
 40
1
 40
1
 40
1
 10
62.047167
 20
175.103520
 30
0.0
 10
62.216500
 20
175.103520
 30
0.0
 10
62.301167
 20
175.145820
 30
0.0
 10
62.301167
 20
175.230520
 30
0.0
  0
SPLINE
  5
10e
100
AcDbEntity
  8
Layer_2
 62
7
100
AcDbSpline
 70
8
 71
3
 72
8
 73
4
 74
0
 40
0
 40
0
 40
0
 40
0
 40
1
 40
1
 40
1
 40
1
 10
62.301167
 20
175.230520
 30
0.0
 10
62.301167
 20
175.309520
 30
0.0
 10
62.381127
 20
175.357520
 30
0.0
 10
62.512833
 20
175.357520
 30
0.0
  0
SPLINE
  5
10f
100
AcDbEntity
  8
Layer_2
 62
7
100
AcDbSpline
 70
8
 71
3
 72
8
 73
4
 74
0
 40
0
 40
0
 40
0
 40
0
 40
1
 40
1
 40
1
 40
1
 10
62.512833
 20
175.357520
 30
0.0
 10
62.644537
 20
175.357520
 30
0.0
 10
62.724500
 20
175.405520
 30
0.0
 10
62.724500
 20
175.484520
 30
0.0
  0
SPLINE
  5
110
100
AcDbEntity
  8
Layer_2
 62
7
100
AcDbSpline
 70
8
 71
3
 72
8
 73
4
 74
0
 40
0
 40
0
 40
0
 40
0
 40
1
 40
1
 40
1
 40
1
 10
62.724500
 20
175.484520
 30
0.0
 10
62.724500
 20
175.578620
 30
0.0
 10
62.823280
 20
175.611520
 30
0.0
 10
63.105500
 20
175.611520
 30
0.0
  0
SPLINE
  5
111
100
AcDbEntity
  8
Layer_2
 62
7
100
AcDbSpline
 70
8
 71
3
 72
8
 73
4
 74
0
 40
0
 40
0
 40
0
 40
0
 40
1
 40
1
 40
1
 40
1
 10
63.105500
 20
175.611520
 30
0.0
 10
63.387722
 20
175.611520
 30
0.0
 10
63.486500
 20
175.644420
 30
0.0
 10
63.486500
 20
175.738520
 30
0.0
  0
SPLINE
  5
112
100
AcDbEntity
  8
Layer_2
 62
7
100
AcDbSpline
 70
8
 71
3
 72
8
 73
4
 74
0
 40
0
 40
0
 40
0
 40
0
 40
1
 40
1
 40
1
 40
1
 10
63.486500
 20
175.738520
 30
0.0
 10
63.486500
 20
175.823220
 30
0.0
 10
63.571170
 20
175.865520
 30
0.0
 10
63.740500
 20
175.865520
 30
0.0
  0
SPLINE
  5
113
100
AcDbEntity
  8
Layer_2
 62
7
100
AcDbSpline
 70
8
 71
3
 72
8
 73
4
 74
0
 40
0
 40
0
 40
0
 40
0
 40
1
 40
1
 40
1
 40
1
 10
63.740500
 20
175.865520
 30
0.0
 10
63.880200
 20
175.865520
 30
0.0
 10
63.994500
 20
175.903620
 30
0.0
 10
63.994500
 20
175.950220
 30
0.0
  0
SPLINE
  5
114
100
AcDbEntity
  8
Layer_2
 62
7
100
AcDbSpline
 70
8
 71
3
 72
8
 73
4
 74
0
 40
0
 40
0
 40
0
 40
0
 40
1
 40
1
 40
1
 40
1
 10
63.994500
 20
175.950220
 30
0.0
 10
63.994500
 20
175.996820
 30
0.0
 10
64.165950
 20
176.034920
 30
0.0
 10
64.375500
 20
176.034920
 30
0.0
  0
SPLINE
  5
115
100
AcDbEntity
  8
Layer_2
 62
7
100
AcDbSpline
 70
8
 71
3
 72
8
 73
4
 74
0
 40
0
 40
0
 40
0
 40
0
 40
1
 40
1
 40
1
 40
1
 10
64.375500
 20
176.034920
 30
0.0
 10
64.657722
 20
176.034920
 30
0.0
 10
64.756500
 20
176.067820
 30
0.0
 10
64.756500
 20
176.161920
 30
0.0
  0
SPLINE
  5
116
100
AcDbEntity
  8
Layer_2
 62
7
100
AcDbSpline
 70
8
 71
3
 72
8
 73
4
 74
0
 40
0
 40
0
 40
0
 40
0
 40
1
 40
1
 40
1
 40
1
 10
64.756500
 20
176.161920
 30
0.0
 10
64.756500
 20
176.246620
 30
0.0
 10
64.841170
 20
176.288920
 30
0.0
 10
65.010500
 20
176.288920
 30
0.0
  0
SPLINE
  5
117
100
AcDbEntity
  8
Layer_2
 62
7
100
AcDbSpline
 70
8
 71
3
 72
8
 73
4
 74
0
 40
0
 40
0
 40
0
 40
0
 40
1
 40
1
 40
1
 40
1
 10
65.010500
 20
176.288920
 30
0.0
 10
65.179833
 20
176.288920
 30
0.0
 10
65.264500
 20
176.331220
 30
0.0
 10
65.264500
 20
176.415920
 30
0.0
  0
SPLINE
  5
118
100
AcDbEntity
  8
Layer_2
 62
7
100
AcDbSpline
 70
8
 71
3
 72
8
 73
4
 74
0
 40
0
 40
0
 40
0
 40
0
 40
1
 40
1
 40
1
 40
1
 10
65.264500
 20
176.415920
 30
0.0
 10
65.264500
 20
176.510020
 30
0.0
 10
65.363280
 20
176.542920
 30
0.0
 10
65.645500
 20
176.542920
 30
0.0
  0
SPLINE
  5
119
100
AcDbEntity
  8
Layer_2
 62
7
100
AcDbSpline
 70
8
 71
3
 72
8
 73
4
 74
0
 40
0
 40
0
 40
0
 40
0
 40
1
 40
1
 40
1
 40
1
 10
65.645500
 20
176.542920
 30
0.0
 10
65.927722
 20
176.542920
 30
0.0
 10
66.026500
 20
176.575820
 30
0.0
 10
66.026500
 20
176.669920
 30
0.0
  0
SPLINE
  5
11a
100
AcDbEntity
  8
Layer_2
 62
7
100
AcDbSpline
 70
8
 71
3
 72
8
 73
4
 74
0
 40
0
 40
0
 40
0
 40
0
 40
1
 40
1
 40
1
 40
1
 10
66.026500
 20
176.669920
 30
0.0
 10
66.026500
 20
176.768720
 30
0.0
 10
66.139389
 20
176.796920
 30
0.0
 10
66.534500
 20
176.796920
 30
0.0
  0
SPLINE
  5
11b
100
AcDbEntity
  8
Layer_2
 62
7
100
AcDbSpline
 70
8
 71
3
 72
8
 73
4
 74
0
 40
0
 40
0
 40
0
 40
0
 40
1
 40
1
 40
1
 40
1
 10
66.534500
 20
176.796920
 30
0.0
 10
66.929611
 20
176.796920
 30
0.0
 10
67.042500
 20
176.825120
 30
0.0
 10
67.042500
 20
176.923920
 30
0.0
  0
SPLINE
  5
11c
100
AcDbEntity
  8
Layer_2
 62
7
100
AcDbSpline
 70
8
 71
3
 72
8
 73
4
 74
0
 40
0
 40
0
 40
0
 40
0
 40
1
 40
1
 40
1
 40
1
 10
67.042500
 20
176.923920
 30
0.0
 10
67.042500
 20
177.018020
 30
0.0
 10
67.141280
 20
177.050920
 30
0.0
 10
67.423500
 20
177.050920
 30
0.0
  0
SPLINE
  5
11d
100
AcDbEntity
  8
Layer_2
 62
7
100
AcDbSpline
 70
8
 71
3
 72
8
 73
4
 74
0
 40
0
 40
0
 40
0
 40
0
 40
1
 40
1
 40
1
 40
1
 10
67.423500
 20
177.050920
 30
0.0
 10
67.705722
 20
177.050920
 30
0.0
 10
67.804500
 20
177.083820
 30
0.0
 10
67.804500
 20
177.177920
 30
0.0
  0
SPLINE
  5
11e
100
AcDbEntity
  8
Layer_2
 62
7
100
AcDbSpline
 70
8
 71
3
 72
8
 73
4
 74
0
 40
0
 40
0
 40
0
 40
0
 40
1
 40
1
 40
1
 40
1
 10
67.804500
 20
177.177920
 30
0.0
 10
67.804500
 20
177.275420
 30
0.0
 10
67.912685
 20
177.304920
 30
0.0
 10
68.270167
 20
177.304920
 30
0.0
  0
SPLINE
  5
11f
100
AcDbEntity
  8
Layer_2
 62
7
100
AcDbSpline
 70
8
 71
3
 72
8
 73
4
 74
0
 40
0
 40
0
 40
0
 40
0
 40
1
 40
1
 40
1
 40
1
 10
68.270167
 20
177.304920
 30
0.0
 10
68.627648
 20
177.304920
 30
0.0
 10
68.735833
 20
177.334420
 30
0.0
 10
68.735833
 20
177.431920
 30
0.0
  0
SPLINE
  5
120
100
AcDbEntity
  8
Layer_2
 62
7
100
AcDbSpline
 70
8
 71
3
 72
8
 73
4
 74
0
 40
0
 40
0
 40
0
 40
0
 40
1
 40
1
 40
1
 40
1
 10
68.735833
 20
177.431920
 30
0.0
 10
68.735833
 20
177.530720
 30
0.0
 10
68.848722
 20
177.558920
 30
0.0
 10
69.243833
 20
177.558920
 30
0.0
  0
SPLINE
  5
121
100
AcDbEntity
  8
Layer_2
 62
7
100
AcDbSpline
 70
8
 71
3
 72
8
 73
4
 74
0
 40
0
 40
0
 40
0
 40
0
 40
1
 40
1
 40
1
 40
1
 10
69.243833
 20
177.558920
 30
0.0
 10
69.638945
 20
177.558920
 30
0.0
 10
69.751833
 20
177.587120
 30
0.0
 10
69.751833
 20
177.685920
 30
0.0
  0
SPLINE
  5
122
100
AcDbEntity
  8
Layer_2
 62
7
100
AcDbSpline
 70
8
 71
3
 72
8
 73
4
 74
0
 40
0
 40
0
 40
0
 40
0
 40
1
 40
1
 40
1
 40
1
 10
69.751833
 20
177.685920
 30
0.0
 10
69.751833
 20
177.784720
 30
0.0
 10
69.864722
 20
177.812920
 30
0.0
 10
70.259833
 20
177.812920
 30
0.0
  0
SPLINE
  5
123
100
AcDbEntity
  8
Layer_2
 62
7
100
AcDbSpline
 70
8
 71
3
 72
8
 73
4
 74
0
 40
0
 40
0
 40
0
 40
0
 40
1
 40
1
 40
1
 40
1
 10
70.259833
 20
177.812920
 30
0.0
 10
70.654945
 20
177.812920
 30
0.0
 10
70.767833
 20
177.841120
 30
0.0
 10
70.767833
 20
177.939920
 30
0.0
  0
SPLINE
  5
124
100
AcDbEntity
  8
Layer_2
 62
7
100
AcDbSpline
 70
8
 71
3
 72
8
 73
4
 74
0
 40
0
 40
0
 40
0
 40
0
 40
1
 40
1
 40
1
 40
1
 10
70.767833
 20
177.939920
 30
0.0
 10
70.767833
 20
178.041520
 30
0.0
 10
70.894833
 20
178.066920
 30
0.0
 10
71.402833
 20
178.066920
 30
0.0
  0
SPLINE
  5
125
100
AcDbEntity
  8
Layer_2
 62
7
100
AcDbSpline
 70
8
 71
3
 72
8
 73
4
 74
0
 40
0
 40
0
 40
0
 40
0
 40
1
 40
1
 40
1
 40
1
 10
71.402833
 20
178.066920
 30
0.0
 10
71.910833
 20
178.066920
 30
0.0
 10
72.037833
 20
178.092320
 30
0.0
 10
72.037833
 20
178.193920
 30
0.0
  0
SPLINE
  5
126
100
AcDbEntity
  8
Layer_2
 62
7
100
AcDbSpline
 70
8
 71
3
 72
8
 73
4
 74
0
 40
0
 40
0
 40
0
 40
0
 40
1
 40
1
 40
1
 40
1
 10
72.037833
 20
178.193920
 30
0.0
 10
72.037833
 20
178.298340
 30
0.0
 10
72.188352
 20
178.320920
 30
0.0
 10
72.884500
 20
178.320920
 30
0.0
  0
SPLINE
  5
127
100
AcDbEntity
  8
Layer_2
 62
7
100
AcDbSpline
 70
8
 71
3
 72
8
 73
4
 74
0
 40
0
 40
0
 40
0
 40
0
 40
1
 40
1
 40
1
 40
1
 10
72.884500
 20
178.320920
 30
0.0
 10
73.580648
 20
178.320920
 30
0.0
 10
73.731167
 20
178.343520
 30
0.0
 10
73.731167
 20
178.447920
 30
0.0
  0
SPLINE
  5
128
100
AcDbEntity
  8
Layer_2
 62
7
100
AcDbSpline
 70
8
 71
3
 72
8
 73
4
 74
0
 40
0
 40
0
 40
0
 40
0
 40
1
 40
1
 40
1
 40
1
 10
73.731167
 20
178.447920
 30
0.0
 10
73.731167
 20
178.552750
 30
0.0
 10
73.886389
 20
178.574920
 30
0.0
 10
74.620167
 20
178.574920
 30
0.0
  0
SPLINE
  5
129
100
AcDbEntity
  8
Layer_2
 62
7
100
AcDbSpline
 70
8
 71
3
 72
8
 73
4
 74
0
 40
0
 40
0
 40
0
 40
0
 40
1
 40
1
 40
1
 40
1
 10
74.620167
 20
178.574920
 30
0.0
 10
75.353945
 20
178.574920
 30
0.0
 10
75.509167
 20
178.597120
 30
0.0
 10
75.509167
 20
178.701920
 30
0.0
  0
SPLINE
  5
12a
100
AcDbEntity
  8
Layer_2
 62
7
100
AcDbSpline
 70
8
 71
3
 72
8
 73
4
 74
0
 40
0
 40
0
 40
0
 40
0
 40
1
 40
1
 40
1
 40
1
 10
75.509167
 20
178.701920
 30
0.0
 10
75.509167
 20
178.800720
 30
0.0
 10
75.622055
 20
178.828920
 30
0.0
 10
76.017167
 20
178.828920
 30
0.0
  0
SPLINE
  5
12b
100
AcDbEntity
  8
Layer_2
 62
7
100
AcDbSpline
 70
8
 71
3
 72
8
 73
4
 74
0
 40
0
 40
0
 40
0
 40
0
 40
1
 40
1
 40
1
 40
1
 10
76.525167
 20
182.342590
 30
0.0
 10
76.525167
 20
185.409400
 30
0.0
 10
76.509017
 20
185.856260
 30
0.0
 10
76.398167
 20
185.856260
 30
0.0
  0
SPLINE
  5
12c
100
AcDbEntity
  8
Layer_2
 62
7
100
AcDbSpline
 70
8
 71
3
 72
8
 73
4
 74
0
 40
0
 40
0
 40
0
 40
0
 40
1
 40
1
 40
1
 40
1
 10
76.398167
 20
185.856260
 30
0.0
 10
76.328317
 20
185.856260
 30
0.0
 10
76.271167
 20
185.913460
 30
0.0
 10
76.271167
 20
185.983260
 30
0.0
  0
SPLINE
  5
12d
100
AcDbEntity
  8
Layer_2
 62
7
100
AcDbSpline
 70
8
 71
3
 72
8
 73
4
 74
0
 40
0
 40
0
 40
0
 40
0
 40
1
 40
1
 40
1
 40
1
 10
76.271167
 20
185.983260
 30
0.0
 10
76.271167
 20
186.053160
 30
0.0
 10
76.214017
 20
186.110260
 30
0.0
 10
76.144167
 20
186.110260
 30
0.0
  0
SPLINE
  5
12e
100
AcDbEntity
  8
Layer_2
 62
7
100
AcDbSpline
 70
8
 71
3
 72
8
 73
4
 74
0
 40
0
 40
0
 40
0
 40
0
 40
1
 40
1
 40
1
 40
1
 10
76.144167
 20
186.110260
 30
0.0
 10
76.074317
 20
186.110260
 30
0.0
 10
76.017167
 20
186.167360
 30
0.0
 10
76.017167
 20
186.237260
 30
0.0
  0
SPLINE
  5
12f
100
AcDbEntity
  8
Layer_2
 62
7
100
AcDbSpline
 70
8
 71
3
 72
8
 73
4
 74
0
 40
0
 40
0
 40
0
 40
0
 40
1
 40
1
 40
1
 40
1
 10
76.017167
 20
186.237260
 30
0.0
 10
76.017167
 20
186.307160
 30
0.0
 10
75.960017
 20
186.364260
 30
0.0
 10
75.890167
 20
186.364260
 30
0.0
  0
SPLINE
  5
130
100
AcDbEntity
  8
Layer_2
 62
7
100
AcDbSpline
 70
8
 71
3
 72
8
 73
4
 74
0
 40
0
 40
0
 40
0
 40
0
 40
1
 40
1
 40
1
 40
1
 10
75.890167
 20
186.364260
 30
0.0
 10
75.820317
 20
186.364260
 30
0.0
 10
75.763167
 20
186.421460
 30
0.0
 10
75.763167
 20
186.491260
 30
0.0
  0
SPLINE
  5
131
100
AcDbEntity
  8
Layer_2
 62
7
100
AcDbSpline
 70
8
 71
3
 72
8
 73
4
 74
0
 40
0
 40
0
 40
0
 40
0
 40
1
 40
1
 40
1
 40
1
 10
75.763167
 20
186.491260
 30
0.0
 10
75.763167
 20
186.561160
 30
0.0
 10
75.706017
 20
186.618260
 30
0.0
 10
75.636167
 20
186.618260
 30
0.0
  0
SPLINE
  5
132
100
AcDbEntity
  8
Layer_2
 62
7
100
AcDbSpline
 70
8
 71
3
 72
8
 73
4
 74
0
 40
0
 40
0
 40
0
 40
0
 40
1
 40
1
 40
1
 40
1
 10
75.636167
 20
186.618260
 30
0.0
 10
75.566317
 20
186.618260
 30
0.0
 10
75.509167
 20
186.656360
 30
0.0
 10
75.509167
 20
186.702960
 30
0.0
  0
SPLINE
  5
133
100
AcDbEntity
  8
Layer_2
 62
7
100
AcDbSpline
 70
8
 71
3
 72
8
 73
4
 74
0
 40
0
 40
0
 40
0
 40
0
 40
1
 40
1
 40
1
 40
1
 10
75.509167
 20
186.702960
 30
0.0
 10
75.509167
 20
186.749560
 30
0.0
 10
75.452017
 20
186.787660
 30
0.0
 10
75.382167
 20
186.787660
 30
0.0
  0
SPLINE
  5
134
100
AcDbEntity
  8
Layer_2
 62
7
100
AcDbSpline
 70
8
 71
3
 72
8
 73
4
 74
0
 40
0
 40
0
 40
0
 40
0
 40
1
 40
1
 40
1
 40
1
 10
75.382167
 20
186.787660
 30
0.0
 10
75.312317
 20
186.787660
 30
0.0
 10
75.255167
 20
186.844760
 30
0.0
 10
75.255167
 20
186.914660
 30
0.0
  0
SPLINE
  5
135
100
AcDbEntity
  8
Layer_2
 62
7
100
AcDbSpline
 70
8
 71
3
 72
8
 73
4
 74
0
 40
0
 40
0
 40
0
 40
0
 40
1
 40
1
 40
1
 40
1
 10
75.255167
 20
186.914660
 30
0.0
 10
75.255167
 20
186.984560
 30
0.0
 10
75.198017
 20
187.041660
 30
0.0
 10
75.128167
 20
187.041660
 30
0.0
  0
SPLINE
  5
136
100
AcDbEntity
  8
Layer_2
 62
7
100
AcDbSpline
 70
8
 71
3
 72
8
 73
4
 74
0
 40
0
 40
0
 40
0
 40
0
 40
1
 40
1
 40
1
 40
1
 10
75.128167
 20
187.041660
 30
0.0
 10
75.058317
 20
187.041660
 30
0.0
 10
75.001167
 20
187.098760
 30
0.0
 10
75.001167
 20
187.168660
 30
0.0
  0
SPLINE
  5
137
100
AcDbEntity
  8
Layer_2
 62
7
100
AcDbSpline
 70
8
 71
3
 72
8
 73
4
 74
0
 40
0
 40
0
 40
0
 40
0
 40
1
 40
1
 40
1
 40
1
 10
75.001167
 20
187.168660
 30
0.0
 10
75.001167
 20
187.238560
 30
0.0
 10
74.944017
 20
187.295660
 30
0.0
 10
74.874167
 20
187.295660
 30
0.0
  0
SPLINE
  5
138
100
AcDbEntity
  8
Layer_2
 62
7
100
AcDbSpline
 70
8
 71
3
 72
8
 73
4
 74
0
 40
0
 40
0
 40
0
 40
0
 40
1
 40
1
 40
1
 40
1
 10
74.874167
 20
187.295660
 30
0.0
 10
74.804317
 20
187.295660
 30
0.0
 10
74.747167
 20
187.352860
 30
0.0
 10
74.747167
 20
187.422660
 30
0.0
  0
SPLINE
  5
139
100
AcDbEntity
  8
Layer_2
 62
7
100
AcDbSpline
 70
8
 71
3
 72
8
 73
4
 74
0
 40
0
 40
0
 40
0
 40
0
 40
1
 40
1
 40
1
 40
1
 10
74.747167
 20
187.422660
 30
0.0
 10
74.747167
 20
187.492460
 30
0.0
 10
74.690017
 20
187.549660
 30
0.0
 10
74.620167
 20
187.549660
 30
0.0
  0
SPLINE
  5
13a
100
AcDbEntity
  8
Layer_2
 62
7
100
AcDbSpline
 70
8
 71
3
 72
8
 73
4
 74
0
 40
0
 40
0
 40
0
 40
0
 40
1
 40
1
 40
1
 40
1
 10
74.620167
 20
187.549660
 30
0.0
 10
74.550317
 20
187.549660
 30
0.0
 10
74.493167
 20
187.606760
 30
0.0
 10
74.493167
 20
187.676660
 30
0.0
  0
SPLINE
  5
13b
100
AcDbEntity
  8
Layer_2
 62
7
100
AcDbSpline
 70
8
 71
3
 72
8
 73
4
 74
0
 40
0
 40
0
 40
0
 40
0
 40
1
 40
1
 40
1
 40
1
 10
74.493167
 20
187.676660
 30
0.0
 10
74.493167
 20
187.746560
 30
0.0
 10
74.436017
 20
187.803660
 30
0.0
 10
74.366167
 20
187.803660
 30
0.0
  0
SPLINE
  5
13c
100
AcDbEntity
  8
Layer_2
 62
7
100
AcDbSpline
 70
8
 71
3
 72
8
 73
4
 74
0
 40
0
 40
0
 40
0
 40
0
 40
1
 40
1
 40
1
 40
1
 10
74.366167
 20
187.803660
 30
0.0
 10
74.296317
 20
187.803660
 30
0.0
 10
74.239167
 20
187.860760
 30
0.0
 10
74.239167
 20
187.930660
 30
0.0
  0
SPLINE
  5
13d
100
AcDbEntity
  8
Layer_2
 62
7
100
AcDbSpline
 70
8
 71
3
 72
8
 73
4
 74
0
 40
0
 40
0
 40
0
 40
0
 40
1
 40
1
 40
1
 40
1
 10
74.239167
 20
187.930660
 30
0.0
 10
74.239167
 20
188.000560
 30
0.0
 10
74.182017
 20
188.057660
 30
0.0
 10
74.112167
 20
188.057660
 30
0.0
  0
SPLINE
  5
13e
100
AcDbEntity
  8
Layer_2
 62
7
100
AcDbSpline
 70
8
 71
3
 72
8
 73
4
 74
0
 40
0
 40
0
 40
0
 40
0
 40
1
 40
1
 40
1
 40
1
 10
74.112167
 20
188.057660
 30
0.0
 10
74.042317
 20
188.057660
 30
0.0
 10
73.985167
 20
188.114860
 30
0.0
 10
73.985167
 20
188.184660
 30
0.0
  0
SPLINE
  5
13f
100
AcDbEntity
  8
Layer_2
 62
7
100
AcDbSpline
 70
8
 71
3
 72
8
 73
4
 74
0
 40
0
 40
0
 40
0
 40
0
 40
1
 40
1
 40
1
 40
1
 10
73.985167
 20
188.184660
 30
0.0
 10
73.985167
 20
188.254460
 30
0.0
 10
73.928017
 20
188.311660
 30
0.0
 10
73.858167
 20
188.311660
 30
0.0
  0
SPLINE
  5
140
100
AcDbEntity
  8
Layer_2
 62
7
100
AcDbSpline
 70
8
 71
3
 72
8
 73
4
 74
0
 40
0
 40
0
 40
0
 40
0
 40
1
 40
1
 40
1
 40
1
 10
73.858167
 20
188.311660
 30
0.0
 10
73.788317
 20
188.311660
 30
0.0
 10
73.731167
 20
188.368760
 30
0.0
 10
73.731167
 20
188.438660
 30
0.0
  0
SPLINE
  5
141
100
AcDbEntity
  8
Layer_2
 62
7
100
AcDbSpline
 70
8
 71
3
 72
8
 73
4
 74
0
 40
0
 40
0
 40
0
 40
0
 40
1
 40
1
 40
1
 40
1
 10
73.731167
 20
188.438660
 30
0.0
 10
73.731167
 20
188.508560
 30
0.0
 10
73.674017
 20
188.565660
 30
0.0
 10
73.604167
 20
188.565660
 30
0.0
  0
SPLINE
  5
142
100
AcDbEntity
  8
Layer_2
 62
7
100
AcDbSpline
 70
8
 71
3
 72
8
 73
4
 74
0
 40
0
 40
0
 40
0
 40
0
 40
1
 40
1
 40
1
 40
1
 10
73.604167
 20
188.565660
 30
0.0
 10
73.534317
 20
188.565660
 30
0.0
 10
73.477167
 20
188.622760
 30
0.0
 10
73.477167
 20
188.692660
 30
0.0
  0
SPLINE
  5
143
100
AcDbEntity
  8
Layer_2
 62
7
100
AcDbSpline
 70
8
 71
3
 72
8
 73
4
 74
0
 40
0
 40
0
 40
0
 40
0
 40
1
 40
1
 40
1
 40
1
 10
73.477167
 20
188.692660
 30
0.0
 10
73.477167
 20
188.762560
 30
0.0
 10
73.439067
 20
188.819660
 30
0.0
 10
73.392497
 20
188.819660
 30
0.0
  0
SPLINE
  5
144
100
AcDbEntity
  8
Layer_2
 62
7
100
AcDbSpline
 70
8
 71
3
 72
8
 73
4
 74
0
 40
0
 40
0
 40
0
 40
0
 40
1
 40
1
 40
1
 40
1
 10
73.392497
 20
188.819660
 30
0.0
 10
73.345927
 20
188.819660
 30
0.0
 10
73.307827
 20
188.933960
 30
0.0
 10
73.307827
 20
189.073660
 30
0.0
  0
SPLINE
  5
145
100
AcDbEntity
  8
Layer_2
 62
7
100
AcDbSpline
 70
8
 71
3
 72
8
 73
4
 74
0
 40
0
 40
0
 40
0
 40
0
 40
1
 40
1
 40
1
 40
1
 10
73.307827
 20
189.073660
 30
0.0
 10
73.307827
 20
189.242990
 30
0.0
 10
73.265497
 20
189.327660
 30
0.0
 10
73.180827
 20
189.327660
 30
0.0
  0
SPLINE
  5
146
100
AcDbEntity
  8
Layer_2
 62
7
100
AcDbSpline
 70
8
 71
3
 72
8
 73
4
 74
0
 40
0
 40
0
 40
0
 40
0
 40
1
 40
1
 40
1
 40
1
 10
73.180827
 20
189.327660
 30
0.0
 10
73.110977
 20
189.327660
 30
0.0
 10
73.053827
 20
189.384760
 30
0.0
 10
73.053827
 20
189.454660
 30
0.0
  0
SPLINE
  5
147
100
AcDbEntity
  8
Layer_2
 62
7
100
AcDbSpline
 70
8
 71
3
 72
8
 73
4
 74
0
 40
0
 40
0
 40
0
 40
0
 40
1
 40
1
 40
1
 40
1
 10
73.053827
 20
189.454660
 30
0.0
 10
73.053827
 20
189.524560
 30
0.0
 10
72.996677
 20
189.581660
 30
0.0
 10
72.926827
 20
189.581660
 30
0.0
  0
SPLINE
  5
148
100
AcDbEntity
  8
Layer_2
 62
7
100
AcDbSpline
 70
8
 71
3
 72
8
 73
4
 74
0
 40
0
 40
0
 40
0
 40
0
 40
1
 40
1
 40
1
 40
1
 10
72.926827
 20
189.581660
 30
0.0
 10
72.856977
 20
189.581660
 30
0.0
 10
72.799827
 20
189.638860
 30
0.0
 10
72.799827
 20
189.708660
 30
0.0
  0
SPLINE
  5
149
100
AcDbEntity
  8
Layer_2
 62
7
100
AcDbSpline
 70
8
 71
3
 72
8
 73
4
 74
0
 40
0
 40
0
 40
0
 40
0
 40
1
 40
1
 40
1
 40
1
 10
72.799827
 20
189.708660
 30
0.0
 10
72.799827
 20
189.778560
 30
0.0
 10
72.742677
 20
189.835660
 30
0.0
 10
72.672827
 20
189.835660
 30
0.0
  0
SPLINE
  5
14a
100
AcDbEntity
  8
Layer_2
 62
7
100
AcDbSpline
 70
8
 71
3
 72
8
 73
4
 74
0
 40
0
 40
0
 40
0
 40
0
 40
1
 40
1
 40
1
 40
1
 10
72.672827
 20
189.835660
 30
0.0
 10
72.602977
 20
189.835660
 30
0.0
 10
72.545827
 20
189.892760
 30
0.0
 10
72.545827
 20
189.962660
 30
0.0
  0
SPLINE
  5
14b
100
AcDbEntity
  8
Layer_2
 62
7
100
AcDbSpline
 70
8
 71
3
 72
8
 73
4
 74
0
 40
0
 40
0
 40
0
 40
0
 40
1
 40
1
 40
1
 40
1
 10
72.545827
 20
189.962660
 30
0.0
 10
72.545827
 20
190.032560
 30
0.0
 10
72.488677
 20
190.089660
 30
0.0
 10
72.418827
 20
190.089660
 30
0.0
  0
SPLINE
  5
14c
100
AcDbEntity
  8
Layer_2
 62
7
100
AcDbSpline
 70
8
 71
3
 72
8
 73
4
 74
0
 40
0
 40
0
 40
0
 40
0
 40
1
 40
1
 40
1
 40
1
 10
72.418827
 20
190.089660
 30
0.0
 10
72.334157
 20
190.089660
 30
0.0
 10
72.291827
 20
190.174360
 30
0.0
 10
72.291827
 20
190.343660
 30
0.0
  0
SPLINE
  5
14d
100
AcDbEntity
  8
Layer_2
 62
7
100
AcDbSpline
 70
8
 71
3
 72
8
 73
4
 74
0
 40
0
 40
0
 40
0
 40
0
 40
1
 40
1
 40
1
 40
1
 10
72.291827
 20
190.343660
 30
0.0
 10
72.291827
 20
190.512990
 30
0.0
 10
72.249497
 20
190.597660
 30
0.0
 10
72.164827
 20
190.597660
 30
0.0
  0
SPLINE
  5
14e
100
AcDbEntity
  8
Layer_2
 62
7
100
AcDbSpline
 70
8
 71
3
 72
8
 73
4
 74
0
 40
0
 40
0
 40
0
 40
0
 40
1
 40
1
 40
1
 40
1
 10
72.164827
 20
190.597660
 30
0.0
 10
72.094977
 20
190.597660
 30
0.0
 10
72.037827
 20
190.654760
 30
0.0
 10
72.037827
 20
190.724660
 30
0.0
  0
SPLINE
  5
14f
100
AcDbEntity
  8
Layer_2
 62
7
100
AcDbSpline
 70
8
 71
3
 72
8
 73
4
 74
0
 40
0
 40
0
 40
0
 40
0
 40
1
 40
1
 40
1
 40
1
 10
72.037827
 20
190.724660
 30
0.0
 10
72.037827
 20
190.794560
 30
0.0
 10
71.980677
 20
190.851660
 30
0.0
 10
71.910827
 20
190.851660
 30
0.0
  0
SPLINE
  5
150
100
AcDbEntity
  8
Layer_2
 62
7
100
AcDbSpline
 70
8
 71
3
 72
8
 73
4
 74
0
 40
0
 40
0
 40
0
 40
0
 40
1
 40
1
 40
1
 40
1
 10
71.910827
 20
190.851660
 30
0.0
 10
71.826157
 20
190.851660
 30
0.0
 10
71.783827
 20
190.936360
 30
0.0
 10
71.783827
 20
191.105660
 30
0.0
  0
SPLINE
  5
151
100
AcDbEntity
  8
Layer_2
 62
7
100
AcDbSpline
 70
8
 71
3
 72
8
 73
4
 74
0
 40
0
 40
0
 40
0
 40
0
 40
1
 40
1
 40
1
 40
1
 10
71.783827
 20
191.105660
 30
0.0
 10
71.783827
 20
191.274990
 30
0.0
 10
71.741497
 20
191.359660
 30
0.0
 10
71.656827
 20
191.359660
 30
0.0
  0
SPLINE
  5
152
100
AcDbEntity
  8
Layer_2
 62
7
100
AcDbSpline
 70
8
 71
3
 72
8
 73
4
 74
0
 40
0
 40
0
 40
0
 40
0
 40
1
 40
1
 40
1
 40
1
 10
71.656827
 20
191.359660
 30
0.0
 10
71.586977
 20
191.359660
 30
0.0
 10
71.529827
 20
191.416760
 30
0.0
 10
71.529827
 20
191.486660
 30
0.0
  0
SPLINE
  5
153
100
AcDbEntity
  8
Layer_2
 62
7
100
AcDbSpline
 70
8
 71
3
 72
8
 73
4
 74
0
 40
0
 40
0
 40
0
 40
0
 40
1
 40
1
 40
1
 40
1
 10
71.529827
 20
191.486660
 30
0.0
 10
71.529827
 20
191.556560
 30
0.0
 10
71.472677
 20
191.613660
 30
0.0
 10
71.402827
 20
191.613660
 30
0.0
  0
SPLINE
  5
154
100
AcDbEntity
  8
Layer_2
 62
7
100
AcDbSpline
 70
8
 71
3
 72
8
 73
4
 74
0
 40
0
 40
0
 40
0
 40
0
 40
1
 40
1
 40
1
 40
1
 10
71.402827
 20
191.613660
 30
0.0
 10
71.323807
 20
191.613660
 30
0.0
 10
71.275827
 20
191.693660
 30
0.0
 10
71.275827
 20
191.825330
 30
0.0
  0
SPLINE
  5
155
100
AcDbEntity
  8
Layer_2
 62
7
100
AcDbSpline
 70
8
 71
3
 72
8
 73
4
 74
0
 40
0
 40
0
 40
0
 40
0
 40
1
 40
1
 40
1
 40
1
 10
71.275827
 20
191.825330
 30
0.0
 10
71.275827
 20
191.957030
 30
0.0
 10
71.227847
 20
192.036990
 30
0.0
 10
71.148827
 20
192.036990
 30
0.0
  0
SPLINE
  5
156
100
AcDbEntity
  8
Layer_2
 62
7
100
AcDbSpline
 70
8
 71
3
 72
8
 73
4
 74
0
 40
0
 40
0
 40
0
 40
0
 40
1
 40
1
 40
1
 40
1
 10
71.148827
 20
192.036990
 30
0.0
 10
71.064157
 20
192.036990
 30
0.0
 10
71.021827
 20
192.121690
 30
0.0
 10
71.021827
 20
192.290990
 30
0.0
  0
SPLINE
  5
157
100
AcDbEntity
  8
Layer_2
 62
7
100
AcDbSpline
 70
8
 71
3
 72
8
 73
4
 74
0
 40
0
 40
0
 40
0
 40
0
 40
1
 40
1
 40
1
 40
1
 10
71.021827
 20
192.290990
 30
0.0
 10
71.021827
 20
192.460330
 30
0.0
 10
70.979497
 20
192.544990
 30
0.0
 10
70.894827
 20
192.544990
 30
0.0
  0
SPLINE
  5
158
100
AcDbEntity
  8
Layer_2
 62
7
100
AcDbSpline
 70
8
 71
3
 72
8
 73
4
 74
0
 40
0
 40
0
 40
0
 40
0
 40
1
 40
1
 40
1
 40
1
 10
70.894827
 20
192.544990
 30
0.0
 10
70.824977
 20
192.544990
 30
0.0
 10
70.767827
 20
192.602190
 30
0.0
 10
70.767827
 20
192.671990
 30
0.0
  0
SPLINE
  5
159
100
AcDbEntity
  8
Layer_2
 62
7
100
AcDbSpline
 70
8
 71
3
 72
8
 73
4
 74
0
 40
0
 40
0
 40
0
 40
0
 40
1
 40
1
 40
1
 40
1
 10
70.767827
 20
192.671990
 30
0.0
 10
70.767827
 20
192.741790
 30
0.0
 10
70.710677
 20
192.798990
 30
0.0
 10
70.640827
 20
192.798990
 30
0.0
  0
SPLINE
  5
15a
100
AcDbEntity
  8
Layer_2
 62
7
100
AcDbSpline
 70
8
 71
3
 72
8
 73
4
 74
0
 40
0
 40
0
 40
0
 40
0
 40
1
 40
1
 40
1
 40
1
 10
70.640827
 20
192.798990
 30
0.0
 10
70.556157
 20
192.798990
 30
0.0
 10
70.513827
 20
192.883690
 30
0.0
 10
70.513827
 20
193.052990
 30
0.0
  0
SPLINE
  5
15b
100
AcDbEntity
  8
Layer_2
 62
7
100
AcDbSpline
 70
8
 71
3
 72
8
 73
4
 74
0
 40
0
 40
0
 40
0
 40
0
 40
1
 40
1
 40
1
 40
1
 10
70.513827
 20
193.052990
 30
0.0
 10
70.513827
 20
193.222330
 30
0.0
 10
70.471497
 20
193.306990
 30
0.0
 10
70.386827
 20
193.306990
 30
0.0
  0
SPLINE
  5
15c
100
AcDbEntity
  8
Layer_2
 62
7
100
AcDbSpline
 70
8
 71
3
 72
8
 73
4
 74
0
 40
0
 40
0
 40
0
 40
0
 40
1
 40
1
 40
1
 40
1
 10
70.386827
 20
193.306990
 30
0.0
 10
70.302157
 20
193.306990
 30
0.0
 10
70.259827
 20
193.391690
 30
0.0
 10
70.259827
 20
193.560990
 30
0.0
  0
SPLINE
  5
15d
100
AcDbEntity
  8
Layer_2
 62
7
100
AcDbSpline
 70
8
 71
3
 72
8
 73
4
 74
0
 40
0
 40
0
 40
0
 40
0
 40
1
 40
1
 40
1
 40
1
 10
70.259827
 20
193.560990
 30
0.0
 10
70.259827
 20
193.730330
 30
0.0
 10
70.217497
 20
193.814990
 30
0.0
 10
70.132827
 20
193.814990
 30
0.0
  0
SPLINE
  5
15e
100
AcDbEntity
  8
Layer_2
 62
7
100
AcDbSpline
 70
8
 71
3
 72
8
 73
4
 74
0
 40
0
 40
0
 40
0
 40
0
 40
1
 40
1
 40
1
 40
1
 10
70.132827
 20
193.814990
 30
0.0
 10
70.048157
 20
193.814990
 30
0.0
 10
70.005827
 20
193.899690
 30
0.0
 10
70.005827
 20
194.068990
 30
0.0
  0
SPLINE
  5
15f
100
AcDbEntity
  8
Layer_2
 62
7
100
AcDbSpline
 70
8
 71
3
 72
8
 73
4
 74
0
 40
0
 40
0
 40
0
 40
0
 40
1
 40
1
 40
1
 40
1
 10
70.005827
 20
194.068990
 30
0.0
 10
70.005827
 20
194.238330
 30
0.0
 10
69.963497
 20
194.322990
 30
0.0
 10
69.878827
 20
194.322990
 30
0.0
  0
SPLINE
  5
160
100
AcDbEntity
  8
Layer_2
 62
7
100
AcDbSpline
 70
8
 71
3
 72
8
 73
4
 74
0
 40
0
 40
0
 40
0
 40
0
 40
1
 40
1
 40
1
 40
1
 10
69.878827
 20
194.322990
 30
0.0
 10
69.794157
 20
194.322990
 30
0.0
 10
69.751827
 20
194.407690
 30
0.0
 10
69.751827
 20
194.576990
 30
0.0
  0
SPLINE
  5
161
100
AcDbEntity
  8
Layer_2
 62
7
100
AcDbSpline
 70
8
 71
3
 72
8
 73
4
 74
0
 40
0
 40
0
 40
0
 40
0
 40
1
 40
1
 40
1
 40
1
 10
69.751827
 20
194.576990
 30
0.0
 10
69.751827
 20
194.746330
 30
0.0
 10
69.709497
 20
194.830990
 30
0.0
 10
69.624827
 20
194.830990
 30
0.0
  0
SPLINE
  5
162
100
AcDbEntity
  8
Layer_2
 62
7
100
AcDbSpline
 70
8
 71
3
 72
8
 73
4
 74
0
 40
0
 40
0
 40
0
 40
0
 40
1
 40
1
 40
1
 40
1
 10
69.624827
 20
194.830990
 30
0.0
 10
69.540157
 20
194.830990
 30
0.0
 10
69.497827
 20
194.915690
 30
0.0
 10
69.497827
 20
195.084990
 30
0.0
  0
SPLINE
  5
163
100
AcDbEntity
  8
Layer_2
 62
7
100
AcDbSpline
 70
8
 71
3
 72
8
 73
4
 74
0
 40
0
 40
0
 40
0
 40
0
 40
1
 40
1
 40
1
 40
1
 10
69.497827
 20
195.084990
 30
0.0
 10
69.497827
 20
195.254330
 30
0.0
 10
69.455497
 20
195.338990
 30
0.0
 10
69.370827
 20
195.338990
 30
0.0
  0
SPLINE
  5
164
100
AcDbEntity
  8
Layer_2
 62
7
100
AcDbSpline
 70
8
 71
3
 72
8
 73
4
 74
0
 40
0
 40
0
 40
0
 40
0
 40
1
 40
1
 40
1
 40
1
 10
69.370827
 20
195.338990
 30
0.0
 10
69.276757
 20
195.338990
 30
0.0
 10
69.243827
 20
195.437790
 30
0.0
 10
69.243827
 20
195.719990
 30
0.0
  0
SPLINE
  5
165
100
AcDbEntity
  8
Layer_2
 62
7
100
AcDbSpline
 70
8
 71
3
 72
8
 73
4
 74
0
 40
0
 40
0
 40
0
 40
0
 40
1
 40
1
 40
1
 40
1
 10
69.243827
 20
195.719990
 30
0.0
 10
69.243827
 20
196.002210
 30
0.0
 10
69.210897
 20
196.100990
 30
0.0
 10
69.116827
 20
196.100990
 30
0.0
  0
SPLINE
  5
166
100
AcDbEntity
  8
Layer_2
 62
7
100
AcDbSpline
 70
8
 71
3
 72
8
 73
4
 74
0
 40
0
 40
0
 40
0
 40
0
 40
1
 40
1
 40
1
 40
1
 10
69.116827
 20
196.100990
 30
0.0
 10
69.032157
 20
196.100990
 30
0.0
 10
68.989827
 20
196.185690
 30
0.0
 10
68.989827
 20
196.354990
 30
0.0
  0
SPLINE
  5
167
100
AcDbEntity
  8
Layer_2
 62
7
100
AcDbSpline
 70
8
 71
3
 72
8
 73
4
 74
0
 40
0
 40
0
 40
0
 40
0
 40
1
 40
1
 40
1
 40
1
 10
68.989827
 20
196.354990
 30
0.0
 10
68.989827
 20
196.599590
 30
0.0
 10
68.975717
 20
196.608990
 30
0.0
 10
68.608827
 20
196.608990
 30
0.0
  0
SPLINE
  5
168
100
AcDbEntity
  8
Layer_2
 62
7
100
AcDbSpline
 70
8
 71
3
 72
8
 73
4
 74
0
 40
0
 40
0
 40
0
 40
0
 40
1
 40
1
 40
1
 40
1
 10
68.608827
 20
196.608990
 30
0.0
 10
68.326605
 20
196.608990
 30
0.0
 10
68.227827
 20
196.641890
 30
0.0
 10
68.227827
 20
196.735990
 30
0.0
  0
SPLINE
  5
169
100
AcDbEntity
  8
Layer_2
 62
7
100
AcDbSpline
 70
8
 71
3
 72
8
 73
4
 74
0
 40
0
 40
0
 40
0
 40
0
 40
1
 40
1
 40
1
 40
1
 10
68.227827
 20
196.735990
 30
0.0
 10
68.227827
 20
196.814990
 30
0.0
 10
68.147867
 20
196.862990
 30
0.0
 10
68.016161
 20
196.862990
 30
0.0
  0
SPLINE
  5
16a
100
AcDbEntity
  8
Layer_2
 62
7
100
AcDbSpline
 70
8
 71
3
 72
8
 73
4
 74
0
 40
0
 40
0
 40
0
 40
0
 40
1
 40
1
 40
1
 40
1
 10
68.016161
 20
196.862990
 30
0.0
 10
67.884457
 20
196.862990
 30
0.0
 10
67.804494
 20
196.910990
 30
0.0
 10
67.804494
 20
196.989990
 30
0.0
  0
SPLINE
  5
16b
100
AcDbEntity
  8
Layer_2
 62
7
100
AcDbSpline
 70
8
 71
3
 72
8
 73
4
 74
0
 40
0
 40
0
 40
0
 40
0
 40
1
 40
1
 40
1
 40
1
 10
67.804494
 20
196.989990
 30
0.0
 10
67.804494
 20
197.074660
 30
0.0
 10
67.719824
 20
197.116993
 30
0.0
 10
67.550494
 20
197.116993
 30
0.0
  0
SPLINE
  5
16c
100
AcDbEntity
  8
Layer_2
 62
7
100
AcDbSpline
 70
8
 71
3
 72
8
 73
4
 74
0
 40
0
 40
0
 40
0
 40
0
 40
1
 40
1
 40
1
 40
1
 10
67.550494
 20
197.116993
 30
0.0
 10
67.410794
 20
197.116993
 30
0.0
 10
67.296494
 20
197.155093
 30
0.0
 10
67.296494
 20
197.201663
 30
0.0
  0
SPLINE
  5
16d
100
AcDbEntity
  8
Layer_2
 62
7
100
AcDbSpline
 70
8
 71
3
 72
8
 73
4
 74
0
 40
0
 40
0
 40
0
 40
0
 40
1
 40
1
 40
1
 40
1
 10
67.296494
 20
197.201663
 30
0.0
 10
67.296494
 20
197.248233
 30
0.0
 10
67.239344
 20
197.286333
 30
0.0
 10
67.169494
 20
197.286333
 30
0.0
  0
SPLINE
  5
16e
100
AcDbEntity
  8
Layer_2
 62
7
100
AcDbSpline
 70
8
 71
3
 72
8
 73
4
 74
0
 40
0
 40
0
 40
0
 40
0
 40
1
 40
1
 40
1
 40
1
 10
67.169494
 20
197.286333
 30
0.0
 10
67.099644
 20
197.286333
 30
0.0
 10
67.042494
 20
197.343483
 30
0.0
 10
67.042494
 20
197.413333
 30
0.0
  0
SPLINE
  5
16f
100
AcDbEntity
  8
Layer_2
 62
7
100
AcDbSpline
 70
8
 71
3
 72
8
 73
4
 74
0
 40
0
 40
0
 40
0
 40
0
 40
1
 40
1
 40
1
 40
1
 10
67.042494
 20
197.413333
 30
0.0
 10
67.042494
 20
197.483183
 30
0.0
 10
66.985344
 20
197.540333
 30
0.0
 10
66.915494
 20
197.540333
 30
0.0
  0
SPLINE
  5
170
100
AcDbEntity
  8
Layer_2
 62
7
100
AcDbSpline
 70
8
 71
3
 72
8
 73
4
 74
0
 40
0
 40
0
 40
0
 40
0
 40
1
 40
1
 40
1
 40
1
 10
66.915494
 20
197.540333
 30
0.0
 10
66.830824
 20
197.540333
 30
0.0
 10
66.788494
 20
197.625003
 30
0.0
 10
66.788494
 20
197.794333
 30
0.0
  0
SPLINE
  5
171
100
AcDbEntity
  8
Layer_2
 62
7
100
AcDbSpline
 70
8
 71
3
 72
8
 73
4
 74
0
 40
0
 40
0
 40
0
 40
0
 40
1
 40
1
 40
1
 40
1
 10
66.788494
 20
197.794333
 30
0.0
 10
66.788494
 20
197.963667
 30
0.0
 10
66.746164
 20
198.048333
 30
0.0
 10
66.661494
 20
198.048333
 30
0.0
  0
SPLINE
  5
172
100
AcDbEntity
  8
Layer_2
 62
7
100
AcDbSpline
 70
8
 71
3
 72
8
 73
4
 74
0
 40
0
 40
0
 40
0
 40
0
 40
1
 40
1
 40
1
 40
1
 10
66.661494
 20
198.048333
 30
0.0
 10
66.591644
 20
198.048333
 30
0.0
 10
66.534494
 20
198.105483
 30
0.0
 10
66.534494
 20
198.175333
 30
0.0
  0
SPLINE
  5
173
100
AcDbEntity
  8
Layer_2
 62
7
100
AcDbSpline
 70
8
 71
3
 72
8
 73
4
 74
0
 40
0
 40
0
 40
0
 40
0
 40
1
 40
1
 40
1
 40
1
 10
66.534494
 20
198.175333
 30
0.0
 10
66.534494
 20
198.245183
 30
0.0
 10
66.477344
 20
198.302333
 30
0.0
 10
66.407494
 20
198.302333
 30
0.0
  0
SPLINE
  5
174
100
AcDbEntity
  8
Layer_2
 62
7
100
AcDbSpline
 70
8
 71
3
 72
8
 73
4
 74
0
 40
0
 40
0
 40
0
 40
0
 40
1
 40
1
 40
1
 40
1
 10
66.407494
 20
198.302333
 30
0.0
 10
66.322824
 20
198.302333
 30
0.0
 10
66.280494
 20
198.387003
 30
0.0
 10
66.280494
 20
198.556333
 30
0.0
  0
SPLINE
  5
175
100
AcDbEntity
  8
Layer_2
 62
7
100
AcDbSpline
 70
8
 71
3
 72
8
 73
4
 74
0
 40
0
 40
0
 40
0
 40
0
 40
1
 40
1
 40
1
 40
1
 10
66.280494
 20
198.556333
 30
0.0
 10
66.280494
 20
198.725667
 30
0.0
 10
66.238164
 20
198.810334
 30
0.0
 10
66.153494
 20
198.810334
 30
0.0
  0
SPLINE
  5
176
100
AcDbEntity
  8
Layer_2
 62
7
100
AcDbSpline
 70
8
 71
3
 72
8
 73
4
 74
0
 40
0
 40
0
 40
0
 40
0
 40
1
 40
1
 40
1
 40
1
 10
66.153494
 20
198.810334
 30
0.0
 10
66.068824
 20
198.810334
 30
0.0
 10
66.026494
 20
198.895004
 30
0.0
 10
66.026494
 20
199.064334
 30
0.0
  0
SPLINE
  5
177
100
AcDbEntity
  8
Layer_2
 62
7
100
AcDbSpline
 70
8
 71
3
 72
8
 73
4
 74
0
 40
0
 40
0
 40
0
 40
0
 40
1
 40
1
 40
1
 40
1
 10
66.026494
 20
199.064334
 30
0.0
 10
66.026494
 20
199.233667
 30
0.0
 10
65.984164
 20
199.318334
 30
0.0
 10
65.899494
 20
199.318334
 30
0.0
  0
SPLINE
  5
178
100
AcDbEntity
  8
Layer_2
 62
7
100
AcDbSpline
 70
8
 71
3
 72
8
 73
4
 74
0
 40
0
 40
0
 40
0
 40
0
 40
1
 40
1
 40
1
 40
1
 10
65.899494
 20
199.318334
 30
0.0
 10
65.805424
 20
199.318334
 30
0.0
 10
65.772494
 20
199.417114
 30
0.0
 10
65.772494
 20
199.699334
 30
0.0
  0
SPLINE
  5
179
100
AcDbEntity
  8
Layer_2
 62
7
100
AcDbSpline
 70
8
 71
3
 72
8
 73
4
 74
0
 40
0
 40
0
 40
0
 40
0
 40
1
 40
1
 40
1
 40
1
 10
65.772494
 20
199.699334
 30
0.0
 10
65.772494
 20
199.981556
 30
0.0
 10
65.739564
 20
200.080334
 30
0.0
 10
65.645494
 20
200.080334
 30
0.0
  0
SPLINE
  5
17a
100
AcDbEntity
  8
Layer_2
 62
7
100
AcDbSpline
 70
8
 71
3
 72
8
 73
4
 74
0
 40
0
 40
0
 40
0
 40
0
 40
1
 40
1
 40
1
 40
1
 10
65.645494
 20
200.080334
 30
0.0
 10
65.543894
 20
200.080334
 30
0.0
 10
65.518494
 20
200.207334
 30
0.0
 10
65.518494
 20
200.715334
 30
0.0
  0
SPLINE
  5
17b
100
AcDbEntity
  8
Layer_2
 62
7
100
AcDbSpline
 70
8
 71
3
 72
8
 73
4
 74
0
 40
0
 40
0
 40
0
 40
0
 40
1
 40
1
 40
1
 40
1
 10
65.518494
 20
200.715334
 30
0.0
 10
65.518494
 20
201.223334
 30
0.0
 10
65.493094
 20
201.350334
 30
0.0
 10
65.391494
 20
201.350334
 30
0.0
  0
SPLINE
  5
17c
100
AcDbEntity
  8
Layer_2
 62
7
100
AcDbSpline
 70
8
 71
3
 72
8
 73
4
 74
0
 40
0
 40
0
 40
0
 40
0
 40
1
 40
1
 40
1
 40
1
 10
65.391494
 20
201.350334
 30
0.0
 10
65.285967
 20
201.350334
 30
0.0
 10
65.264494
 20
201.514963
 30
0.0
 10
65.264494
 20
202.324000
 30
0.0
  0
SPLINE
  5
17d
100
AcDbEntity
  8
Layer_2
 62
7
100
AcDbSpline
 70
8
 71
3
 72
8
 73
4
 74
0
 40
0
 40
0
 40
0
 40
0
 40
1
 40
1
 40
1
 40
1
 10
65.264494
 20
202.324000
 30
0.0
 10
65.264494
 20
203.133038
 30
0.0
 10
65.285964
 20
203.297667
 30
0.0
 10
65.391494
 20
203.297667
 30
0.0
  0
SPLINE
  5
17e
100
AcDbEntity
  8
Layer_2
 62
7
100
AcDbSpline
 70
8
 71
3
 72
8
 73
4
 74
0
 40
0
 40
0
 40
0
 40
0
 40
1
 40
1
 40
1
 40
1
 10
65.391494
 20
203.297667
 30
0.0
 10
65.490274
 20
203.297667
 30
0.0
 10
65.518494
 20
203.410556
 30
0.0
 10
65.518494
 20
203.805667
 30
0.0
  0
SPLINE
  5
17f
100
AcDbEntity
  8
Layer_2
 62
7
100
AcDbSpline
 70
8
 71
3
 72
8
 73
4
 74
0
 40
0
 40
0
 40
0
 40
0
 40
1
 40
1
 40
1
 40
1
 10
65.518494
 20
203.805667
 30
0.0
 10
65.518494
 20
204.200779
 30
0.0
 10
65.546714
 20
204.313667
 30
0.0
 10
65.645494
 20
204.313667
 30
0.0
  0
SPLINE
  5
180
100
AcDbEntity
  8
Layer_2
 62
7
100
AcDbSpline
 70
8
 71
3
 72
8
 73
4
 74
0
 40
0
 40
0
 40
0
 40
0
 40
1
 40
1
 40
1
 40
1
 10
65.645494
 20
204.313667
 30
0.0
 10
65.739564
 20
204.313667
 30
0.0
 10
65.772494
 20
204.412447
 30
0.0
 10
65.772494
 20
204.694667
 30
0.0
  0
SPLINE
  5
181
100
AcDbEntity
  8
Layer_2
 62
7
100
AcDbSpline
 70
8
 71
3
 72
8
 73
4
 74
0
 40
0
 40
0
 40
0
 40
0
 40
1
 40
1
 40
1
 40
1
 10
65.772494
 20
204.694667
 30
0.0
 10
65.772494
 20
204.976889
 30
0.0
 10
65.805424
 20
205.075667
 30
0.0
 10
65.899494
 20
205.075667
 30
0.0
  0
SPLINE
  5
182
100
AcDbEntity
  8
Layer_2
 62
7
100
AcDbSpline
 70
8
 71
3
 72
8
 73
4
 74
0
 40
0
 40
0
 40
0
 40
0
 40
1
 40
1
 40
1
 40
1
 10
65.899494
 20
205.075667
 30
0.0
 10
65.984164
 20
205.075667
 30
0.0
 10
66.026494
 20
205.160337
 30
0.0
 10
66.026494
 20
205.329667
 30
0.0
  0
SPLINE
  5
183
100
AcDbEntity
  8
Layer_2
 62
7
100
AcDbSpline
 70
8
 71
3
 72
8
 73
4
 74
0
 40
0
 40
0
 40
0
 40
0
 40
1
 40
1
 40
1
 40
1
 10
66.026494
 20
205.329667
 30
0.0
 10
66.026494
 20
205.499001
 30
0.0
 10
66.068824
 20
205.583667
 30
0.0
 10
66.153494
 20
205.583667
 30
0.0
  0
SPLINE
  5
184
100
AcDbEntity
  8
Layer_2
 62
7
100
AcDbSpline
 70
8
 71
3
 72
8
 73
4
 74
0
 40
0
 40
0
 40
0
 40
0
 40
1
 40
1
 40
1
 40
1
 10
66.153494
 20
205.583667
 30
0.0
 10
66.223344
 20
205.583667
 30
0.0
 10
66.280494
 20
205.640817
 30
0.0
 10
66.280494
 20
205.710667
 30
0.0
  0
SPLINE
  5
185
100
AcDbEntity
  8
Layer_2
 62
7
100
AcDbSpline
 70
8
 71
3
 72
8
 73
4
 74
0
 40
0
 40
0
 40
0
 40
0
 40
1
 40
1
 40
1
 40
1
 10
66.280494
 20
205.710667
 30
0.0
 10
66.280494
 20
205.780517
 30
0.0
 10
66.337644
 20
205.837667
 30
0.0
 10
66.407494
 20
205.837667
 30
0.0
  0
SPLINE
  5
186
100
AcDbEntity
  8
Layer_2
 62
7
100
AcDbSpline
 70
8
 71
3
 72
8
 73
4
 74
0
 40
0
 40
0
 40
0
 40
0
 40
1
 40
1
 40
1
 40
1
 10
66.407494
 20
205.837667
 30
0.0
 10
66.477344
 20
205.837667
 30
0.0
 10
66.534494
 20
205.894817
 30
0.0
 10
66.534494
 20
205.964667
 30
0.0
  0
SPLINE
  5
187
100
AcDbEntity
  8
Layer_2
 62
7
100
AcDbSpline
 70
8
 71
3
 72
8
 73
4
 74
0
 40
0
 40
0
 40
0
 40
0
 40
1
 40
1
 40
1
 40
1
 10
66.534494
 20
205.964667
 30
0.0
 10
66.534494
 20
206.034517
 30
0.0
 10
66.591644
 20
206.091667
 30
0.0
 10
66.661494
 20
206.091667
 30
0.0
  0
SPLINE
  5
188
100
AcDbEntity
  8
Layer_2
 62
7
100
AcDbSpline
 70
8
 71
3
 72
8
 73
4
 74
0
 40
0
 40
0
 40
0
 40
0
 40
1
 40
1
 40
1
 40
1
 10
66.661494
 20
206.091667
 30
0.0
 10
66.731344
 20
206.091667
 30
0.0
 10
66.788494
 20
206.148817
 30
0.0
 10
66.788494
 20
206.218667
 30
0.0
  0
SPLINE
  5
189
100
AcDbEntity
  8
Layer_2
 62
7
100
AcDbSpline
 70
8
 71
3
 72
8
 73
4
 74
0
 40
0
 40
0
 40
0
 40
0
 40
1
 40
1
 40
1
 40
1
 10
66.788494
 20
206.218667
 30
0.0
 10
66.788494
 20
206.303337
 30
0.0
 10
66.873164
 20
206.345667
 30
0.0
 10
67.042494
 20
206.345667
 30
0.0
  0
SPLINE
  5
18a
100
AcDbEntity
  8
Layer_2
 62
7
100
AcDbSpline
 70
8
 71
3
 72
8
 73
4
 74
0
 40
0
 40
0
 40
0
 40
0
 40
1
 40
1
 40
1
 40
1
 10
67.042494
 20
206.345667
 30
0.0
 10
67.268272
 20
206.345667
 30
0.0
 10
67.296494
 20
206.373887
 30
0.0
 10
67.296494
 20
206.599667
 30
0.0
  0
SPLINE
  5
18b
100
AcDbEntity
  8
Layer_2
 62
7
100
AcDbSpline
 70
8
 71
3
 72
8
 73
4
 74
0
 40
0
 40
0
 40
0
 40
0
 40
1
 40
1
 40
1
 40
1
 10
67.296494
 20
206.599667
 30
0.0
 10
67.296494
 20
206.769001
 30
0.0
 10
67.254164
 20
206.853667
 30
0.0
 10
67.169494
 20
206.853667
 30
0.0
  0
SPLINE
  5
18c
100
AcDbEntity
  8
Layer_2
 62
7
100
AcDbSpline
 70
8
 71
3
 72
8
 73
4
 74
0
 40
0
 40
0
 40
0
 40
0
 40
1
 40
1
 40
1
 40
1
 10
67.169494
 20
206.853667
 30
0.0
 10
67.084824
 20
206.853667
 30
0.0
 10
67.042494
 20
206.938337
 30
0.0
 10
67.042494
 20
207.107667
 30
0.0
  0
SPLINE
  5
18d
100
AcDbEntity
  8
Layer_2
 62
7
100
AcDbSpline
 70
8
 71
3
 72
8
 73
4
 74
0
 40
0
 40
0
 40
0
 40
0
 40
1
 40
1
 40
1
 40
1
 10
67.042494
 20
207.107667
 30
0.0
 10
67.042494
 20
207.277001
 30
0.0
 10
67.000164
 20
207.361667
 30
0.0
 10
66.915494
 20
207.361667
 30
0.0
  0
SPLINE
  5
18e
100
AcDbEntity
  8
Layer_2
 62
7
100
AcDbSpline
 70
8
 71
3
 72
8
 73
4
 74
0
 40
0
 40
0
 40
0
 40
0
 40
1
 40
1
 40
1
 40
1
 10
66.915494
 20
207.361667
 30
0.0
 10
66.836474
 20
207.361667
 30
0.0
 10
66.788494
 20
207.441627
 30
0.0
 10
66.788494
 20
207.573334
 30
0.0
  0
SPLINE
  5
18f
100
AcDbEntity
  8
Layer_2
 62
7
100
AcDbSpline
 70
8
 71
3
 72
8
 73
4
 74
0
 40
0
 40
0
 40
0
 40
0
 40
1
 40
1
 40
1
 40
1
 10
66.788494
 20
207.573334
 30
0.0
 10
66.788494
 20
207.705038
 30
0.0
 10
66.740514
 20
207.785001
 30
0.0
 10
66.661494
 20
207.785001
 30
0.0
  0
SPLINE
  5
190
100
AcDbEntity
  8
Layer_2
 62
7
100
AcDbSpline
 70
8
 71
3
 72
8
 73
4
 74
0
 40
0
 40
0
 40
0
 40
0
 40
1
 40
1
 40
1
 40
1
 10
66.661494
 20
207.785001
 30
0.0
 10
66.567424
 20
207.785001
 30
0.0
 10
66.534494
 20
207.883781
 30
0.0
 10
66.534494
 20
208.166001
 30
0.0
  0
SPLINE
  5
191
100
AcDbEntity
  8
Layer_2
 62
7
100
AcDbSpline
 70
8
 71
3
 72
8
 73
4
 74
0
 40
0
 40
0
 40
0
 40
0
 40
1
 40
1
 40
1
 40
1
 10
66.534494
 20
208.166001
 30
0.0
 10
66.534494
 20
208.448223
 30
0.0
 10
66.501564
 20
208.547001
 30
0.0
 10
66.407494
 20
208.547001
 30
0.0
  0
SPLINE
  5
192
100
AcDbEntity
  8
Layer_2
 62
7
100
AcDbSpline
 70
8
 71
3
 72
8
 73
4
 74
0
 40
0
 40
0
 40
0
 40
0
 40
1
 40
1
 40
1
 40
1
 10
66.407494
 20
208.547001
 30
0.0
 10
66.308714
 20
208.547001
 30
0.0
 10
66.280494
 20
208.659890
 30
0.0
 10
66.280494
 20
209.055001
 30
0.0
  0
SPLINE
  5
193
100
AcDbEntity
  8
Layer_2
 62
7
100
AcDbSpline
 70
8
 71
3
 72
8
 73
4
 74
0
 40
0
 40
0
 40
0
 40
0
 40
1
 40
1
 40
1
 40
1
 10
66.280494
 20
209.055001
 30
0.0
 10
66.280494
 20
209.450112
 30
0.0
 10
66.252274
 20
209.563001
 30
0.0
 10
66.153494
 20
209.563001
 30
0.0
  0
SPLINE
  5
194
100
AcDbEntity
  8
Layer_2
 62
7
100
AcDbSpline
 70
8
 71
3
 72
8
 73
4
 74
0
 40
0
 40
0
 40
0
 40
0
 40
1
 40
1
 40
1
 40
1
 10
66.153494
 20
209.563001
 30
0.0
 10
66.048668
 20
209.563001
 30
0.0
 10
66.026494
 20
209.718223
 30
0.0
 10
66.026494
 20
210.452001
 30
0.0
  0
SPLINE
  5
195
100
AcDbEntity
  8
Layer_2
 62
7
100
AcDbSpline
 70
8
 71
3
 72
8
 73
4
 74
0
 40
0
 40
0
 40
0
 40
0
 40
1
 40
1
 40
1
 40
1
 10
66.026494
 20
210.452001
 30
0.0
 10
66.026494
 20
211.185779
 30
0.0
 10
66.004324
 20
211.341001
 30
0.0
 10
65.899494
 20
211.341001
 30
0.0
  0
SPLINE
  5
196
100
AcDbEntity
  8
Layer_2
 62
7
100
AcDbSpline
 70
8
 71
3
 72
8
 73
4
 74
0
 40
0
 40
0
 40
0
 40
0
 40
1
 40
1
 40
1
 40
1
 10
65.899494
 20
211.341001
 30
0.0
 10
65.793967
 20
211.341001
 30
0.0
 10
65.772494
 20
211.505630
 30
0.0
 10
65.772494
 20
212.314668
 30
0.0
  0
SPLINE
  5
197
100
AcDbEntity
  8
Layer_2
 62
7
100
AcDbSpline
 70
8
 71
3
 72
8
 73
4
 74
0
 40
0
 40
0
 40
0
 40
0
 40
1
 40
1
 40
1
 40
1
 10
65.772494
 20
212.314668
 30
0.0
 10
65.772494
 20
213.123705
 30
0.0
 10
65.793964
 20
213.288335
 30
0.0
 10
65.899494
 20
213.288335
 30
0.0
  0
SPLINE
  5
198
100
AcDbEntity
  8
Layer_2
 62
7
100
AcDbSpline
 70
8
 71
3
 72
8
 73
4
 74
0
 40
0
 40
0
 40
0
 40
0
 40
1
 40
1
 40
1
 40
1
 10
65.899494
 20
213.288335
 30
0.0
 10
66.005327
 20
213.288335
 30
0.0
 10
66.026494
 20
213.457668
 30
0.0
 10
66.026494
 20
214.304335
 30
0.0
  0
SPLINE
  5
199
100
AcDbEntity
  8
Layer_2
 62
7
100
AcDbSpline
 70
8
 71
3
 72
8
 73
4
 74
0
 40
0
 40
0
 40
0
 40
0
 40
1
 40
1
 40
1
 40
1
 10
66.026494
 20
214.304335
 30
0.0
 10
66.026494
 20
215.151001
 30
0.0
 10
66.047664
 20
215.320335
 30
0.0
 10
66.153494
 20
215.320335
 30
0.0
  0
SPLINE
  5
19a
100
AcDbEntity
  8
Layer_2
 62
7
100
AcDbSpline
 70
8
 71
3
 72
8
 73
4
 74
0
 40
0
 40
0
 40
0
 40
0
 40
1
 40
1
 40
1
 40
1
 10
66.153494
 20
215.320335
 30
0.0
 10
66.252274
 20
215.320335
 30
0.0
 10
66.280494
 20
215.433223
 30
0.0
 10
66.280494
 20
215.828335
 30
0.0
  0
SPLINE
  5
19b
100
AcDbEntity
  8
Layer_2
 62
7
100
AcDbSpline
 70
8
 71
3
 72
8
 73
4
 74
0
 40
0
 40
0
 40
0
 40
0
 40
1
 40
1
 40
1
 40
1
 10
66.280494
 20
215.828335
 30
0.0
 10
66.280494
 20
216.223446
 30
0.0
 10
66.308714
 20
216.336335
 30
0.0
 10
66.407494
 20
216.336335
 30
0.0
  0
SPLINE
  5
19c
100
AcDbEntity
  8
Layer_2
 62
7
100
AcDbSpline
 70
8
 71
3
 72
8
 73
4
 74
0
 40
0
 40
0
 40
0
 40
0
 40
1
 40
1
 40
1
 40
1
 10
66.407494
 20
216.336335
 30
0.0
 10
66.501564
 20
216.336335
 30
0.0
 10
66.534494
 20
216.435115
 30
0.0
 10
66.534494
 20
216.717335
 30
0.0
  0
SPLINE
  5
19d
100
AcDbEntity
  8
Layer_2
 62
7
100
AcDbSpline
 70
8
 71
3
 72
8
 73
4
 74
0
 40
0
 40
0
 40
0
 40
0
 40
1
 40
1
 40
1
 40
1
 10
66.534494
 20
216.717335
 30
0.0
 10
66.534494
 20
216.999557
 30
0.0
 10
66.567424
 20
217.098335
 30
0.0
 10
66.661494
 20
217.098335
 30
0.0
  0
SPLINE
  5
19e
100
AcDbEntity
  8
Layer_2
 62
7
100
AcDbSpline
 70
8
 71
3
 72
8
 73
4
 74
0
 40
0
 40
0
 40
0
 40
0
 40
1
 40
1
 40
1
 40
1
 10
66.661494
 20
217.098335
 30
0.0
 10
66.755564
 20
217.098335
 30
0.0
 10
66.788494
 20
217.197115
 30
0.0
 10
66.788494
 20
217.479335
 30
0.0
  0
SPLINE
  5
19f
100
AcDbEntity
  8
Layer_2
 62
7
100
AcDbSpline
 70
8
 71
3
 72
8
 73
4
 74
0
 40
0
 40
0
 40
0
 40
0
 40
1
 40
1
 40
1
 40
1
 10
66.788494
 20
217.479335
 30
0.0
 10
66.788494
 20
217.761557
 30
0.0
 10
66.821424
 20
217.860335
 30
0.0
 10
66.915494
 20
217.860335
 30
0.0
  0
SPLINE
  5
1a0
100
AcDbEntity
  8
Layer_2
 62
7
100
AcDbSpline
 70
8
 71
3
 72
8
 73
4
 74
0
 40
0
 40
0
 40
0
 40
0
 40
1
 40
1
 40
1
 40
1
 10
66.915494
 20
217.860335
 30
0.0
 10
66.994514
 20
217.860335
 30
0.0
 10
67.042494
 20
217.940295
 30
0.0
 10
67.042494
 20
218.072002
 30
0.0
  0
SPLINE
  5
1a1
100
AcDbEntity
  8
Layer_2
 62
7
100
AcDbSpline
 70
8
 71
3
 72
8
 73
4
 74
0
 40
0
 40
0
 40
0
 40
0
 40
1
 40
1
 40
1
 40
1
 10
67.042494
 20
218.072002
 30
0.0
 10
67.042494
 20
218.203706
 30
0.0
 10
67.090474
 20
218.283668
 30
0.0
 10
67.169494
 20
218.283668
 30
0.0
  0
SPLINE
  5
1a2
100
AcDbEntity
  8
Layer_2
 62
7
100
AcDbSpline
 70
8
 71
3
 72
8
 73
4
 74
0
 40
0
 40
0
 40
0
 40
0
 40
1
 40
1
 40
1
 40
1
 10
67.169494
 20
218.283668
 30
0.0
 10
67.254164
 20
218.283668
 30
0.0
 10
67.296494
 20
218.368338
 30
0.0
 10
67.296494
 20
218.537668
 30
0.0
  0
SPLINE
  5
1a3
100
AcDbEntity
  8
Layer_2
 62
7
100
AcDbSpline
 70
8
 71
3
 72
8
 73
4
 74
0
 40
0
 40
0
 40
0
 40
0
 40
1
 40
1
 40
1
 40
1
 10
67.296494
 20
218.537668
 30
0.0
 10
67.296494
 20
218.707002
 30
0.0
 10
67.338824
 20
218.791668
 30
0.0
 10
67.423494
 20
218.791668
 30
0.0
  0
SPLINE
  5
1a4
100
AcDbEntity
  8
Layer_2
 62
7
100
AcDbSpline
 70
8
 71
3
 72
8
 73
4
 74
0
 40
0
 40
0
 40
0
 40
0
 40
1
 40
1
 40
1
 40
1
 10
67.423494
 20
218.791668
 30
0.0
 10
67.508164
 20
218.791668
 30
0.0
 10
67.550494
 20
218.876338
 30
0.0
 10
67.550494
 20
219.045668
 30
0.0
  0
SPLINE
  5
1a5
100
AcDbEntity
  8
Layer_2
 62
7
100
AcDbSpline
 70
8
 71
3
 72
8
 73
4
 74
0
 40
0
 40
0
 40
0
 40
0
 40
1
 40
1
 40
1
 40
1
 10
67.550494
 20
219.045668
 30
0.0
 10
67.550494
 20
219.215002
 30
0.0
 10
67.592824
 20
219.299668
 30
0.0
 10
67.677494
 20
219.299668
 30
0.0
  0
SPLINE
  5
1a6
100
AcDbEntity
  8
Layer_2
 62
7
100
AcDbSpline
 70
8
 71
3
 72
8
 73
4
 74
0
 40
0
 40
0
 40
0
 40
0
 40
1
 40
1
 40
1
 40
1
 10
67.677494
 20
219.299668
 30
0.0
 10
67.762164
 20
219.299668
 30
0.0
 10
67.804494
 20
219.384338
 30
0.0
 10
67.804494
 20
219.553668
 30
0.0
  0
SPLINE
  5
1a7
100
AcDbEntity
  8
Layer_2
 62
7
100
AcDbSpline
 70
8
 71
3
 72
8
 73
4
 74
0
 40
0
 40
0
 40
0
 40
0
 40
1
 40
1
 40
1
 40
1
 10
67.804494
 20
219.553668
 30
0.0
 10
67.804494
 20
219.723002
 30
0.0
 10
67.846824
 20
219.807668
 30
0.0
 10
67.931494
 20
219.807668
 30
0.0
  0
SPLINE
  5
1a8
100
AcDbEntity
  8
Layer_2
 62
7
100
AcDbSpline
 70
8
 71
3
 72
8
 73
4
 74
0
 40
0
 40
0
 40
0
 40
0
 40
1
 40
1
 40
1
 40
1
 10
67.931494
 20
219.807668
 30
0.0
 10
68.016164
 20
219.807668
 30
0.0
 10
68.058494
 20
219.892338
 30
0.0
 10
68.058494
 20
220.061668
 30
0.0
  0
SPLINE
  5
1a9
100
AcDbEntity
  8
Layer_2
 62
7
100
AcDbSpline
 70
8
 71
3
 72
8
 73
4
 74
0
 40
0
 40
0
 40
0
 40
0
 40
1
 40
1
 40
1
 40
1
 10
68.058494
 20
220.061668
 30
0.0
 10
68.058494
 20
220.201368
 30
0.0
 10
68.096594
 20
220.315668
 30
0.0
 10
68.143164
 20
220.315668
 30
0.0
  0
SPLINE
  5
1aa
100
AcDbEntity
  8
Layer_2
 62
7
100
AcDbSpline
 70
8
 71
3
 72
8
 73
4
 74
0
 40
0
 40
0
 40
0
 40
0
 40
1
 40
1
 40
1
 40
1
 10
68.143164
 20
220.315668
 30
0.0
 10
68.189734
 20
220.315668
 30
0.0
 10
68.227834
 20
220.372818
 30
0.0
 10
68.227834
 20
220.442668
 30
0.0
  0
SPLINE
  5
1ab
100
AcDbEntity
  8
Layer_2
 62
7
100
AcDbSpline
 70
8
 71
3
 72
8
 73
4
 74
0
 40
0
 40
0
 40
0
 40
0
 40
1
 40
1
 40
1
 40
1
 10
68.227834
 20
220.442668
 30
0.0
 10
68.227834
 20
220.512518
 30
0.0
 10
68.284984
 20
220.569669
 30
0.0
 10
68.354834
 20
220.569669
 30
0.0
  0
SPLINE
  5
1ac
100
AcDbEntity
  8
Layer_2
 62
7
100
AcDbSpline
 70
8
 71
3
 72
8
 73
4
 74
0
 40
0
 40
0
 40
0
 40
0
 40
1
 40
1
 40
1
 40
1
 10
68.354834
 20
220.569669
 30
0.0
 10
68.439504
 20
220.569669
 30
0.0
 10
68.481834
 20
220.654339
 30
0.0
 10
68.481834
 20
220.823669
 30
0.0
  0
SPLINE
  5
1ad
100
AcDbEntity
  8
Layer_2
 62
7
100
AcDbSpline
 70
8
 71
3
 72
8
 73
4
 74
0
 40
0
 40
0
 40
0
 40
0
 40
1
 40
1
 40
1
 40
1
 10
68.481834
 20
220.823669
 30
0.0
 10
68.481834
 20
220.993002
 30
0.0
 10
68.524164
 20
221.077669
 30
0.0
 10
68.608834
 20
221.077669
 30
0.0
  0
SPLINE
  5
1ae
100
AcDbEntity
  8
Layer_2
 62
7
100
AcDbSpline
 70
8
 71
3
 72
8
 73
4
 74
0
 40
0
 40
0
 40
0
 40
0
 40
1
 40
1
 40
1
 40
1
 10
68.608834
 20
221.077669
 30
0.0
 10
68.678684
 20
221.077669
 30
0.0
 10
68.735834
 20
221.134819
 30
0.0
 10
68.735834
 20
221.204669
 30
0.0
  0
SPLINE
  5
1af
100
AcDbEntity
  8
Layer_2
 62
7
100
AcDbSpline
 70
8
 71
3
 72
8
 73
4
 74
0
 40
0
 40
0
 40
0
 40
0
 40
1
 40
1
 40
1
 40
1
 10
68.735834
 20
221.204669
 30
0.0
 10
68.735834
 20
221.274519
 30
0.0
 10
68.792984
 20
221.331669
 30
0.0
 10
68.862834
 20
221.331669
 30
0.0
  0
SPLINE
  5
1b0
100
AcDbEntity
  8
Layer_2
 62
7
100
AcDbSpline
 70
8
 71
3
 72
8
 73
4
 74
0
 40
0
 40
0
 40
0
 40
0
 40
1
 40
1
 40
1
 40
1
 10
68.862834
 20
221.331669
 30
0.0
 10
68.947504
 20
221.331669
 30
0.0
 10
68.989834
 20
221.416339
 30
0.0
 10
68.989834
 20
221.585669
 30
0.0
  0
SPLINE
  5
1b1
100
AcDbEntity
  8
Layer_2
 62
7
100
AcDbSpline
 70
8
 71
3
 72
8
 73
4
 74
0
 40
0
 40
0
 40
0
 40
0
 40
1
 40
1
 40
1
 40
1
 10
68.989834
 20
221.585669
 30
0.0
 10
68.989834
 20
221.755002
 30
0.0
 10
69.032164
 20
221.839669
 30
0.0
 10
69.116834
 20
221.839669
 30
0.0
  0
SPLINE
  5
1b2
100
AcDbEntity
  8
Layer_2
 62
7
100
AcDbSpline
 70
8
 71
3
 72
8
 73
4
 74
0
 40
0
 40
0
 40
0
 40
0
 40
1
 40
1
 40
1
 40
1
 10
69.116834
 20
221.839669
 30
0.0
 10
69.186684
 20
221.839669
 30
0.0
 10
69.243834
 20
221.896819
 30
0.0
 10
69.243834
 20
221.966669
 30
0.0
  0
SPLINE
  5
1b3
100
AcDbEntity
  8
Layer_2
 62
7
100
AcDbSpline
 70
8
 71
3
 72
8
 73
4
 74
0
 40
0
 40
0
 40
0
 40
0
 40
1
 40
1
 40
1
 40
1
 10
69.243834
 20
221.966669
 30
0.0
 10
69.243834
 20
222.036519
 30
0.0
 10
69.300984
 20
222.093669
 30
0.0
 10
69.370834
 20
222.093669
 30
0.0
  0
SPLINE
  5
1b4
100
AcDbEntity
  8
Layer_2
 62
7
100
AcDbSpline
 70
8
 71
3
 72
8
 73
4
 74
0
 40
0
 40
0
 40
0
 40
0
 40
1
 40
1
 40
1
 40
1
 10
69.370834
 20
222.093669
 30
0.0
 10
69.440684
 20
222.093669
 30
0.0
 10
69.497834
 20
222.150819
 30
0.0
 10
69.497834
 20
222.220669
 30
0.0
  0
SPLINE
  5
1b5
100
AcDbEntity
  8
Layer_2
 62
7
100
AcDbSpline
 70
8
 71
3
 72
8
 73
4
 74
0
 40
0
 40
0
 40
0
 40
0
 40
1
 40
1
 40
1
 40
1
 10
69.497834
 20
222.220669
 30
0.0
 10
69.497834
 20
222.290519
 30
0.0
 10
69.554984
 20
222.347669
 30
0.0
 10
69.624834
 20
222.347669
 30
0.0
  0
SPLINE
  5
1b6
100
AcDbEntity
  8
Layer_2
 62
7
100
AcDbSpline
 70
8
 71
3
 72
8
 73
4
 74
0
 40
0
 40
0
 40
0
 40
0
 40
1
 40
1
 40
1
 40
1
 10
69.624834
 20
222.347669
 30
0.0
 10
69.694684
 20
222.347669
 30
0.0
 10
69.751834
 20
222.404819
 30
0.0
 10
69.751834
 20
222.474669
 30
0.0
  0
SPLINE
  5
1b7
100
AcDbEntity
  8
Layer_2
 62
7
100
AcDbSpline
 70
8
 71
3
 72
8
 73
4
 74
0
 40
0
 40
0
 40
0
 40
0
 40
1
 40
1
 40
1
 40
1
 10
69.751834
 20
222.474669
 30
0.0
 10
69.751834
 20
222.544519
 30
0.0
 10
69.808984
 20
222.601669
 30
0.0
 10
69.878834
 20
222.601669
 30
0.0
  0
SPLINE
  5
1b8
100
AcDbEntity
  8
Layer_2
 62
7
100
AcDbSpline
 70
8
 71
3
 72
8
 73
4
 74
0
 40
0
 40
0
 40
0
 40
0
 40
1
 40
1
 40
1
 40
1
 10
69.878834
 20
222.601669
 30
0.0
 10
69.948684
 20
222.601669
 30
0.0
 10
70.005834
 20
222.658819
 30
0.0
 10
70.005834
 20
222.728669
 30
0.0
  0
SPLINE
  5
1b9
100
AcDbEntity
  8
Layer_2
 62
7
100
AcDbSpline
 70
8
 71
3
 72
8
 73
4
 74
0
 40
0
 40
0
 40
0
 40
0
 40
1
 40
1
 40
1
 40
1
 10
70.005834
 20
222.728669
 30
0.0
 10
70.005834
 20
222.798519
 30
0.0
 10
70.062984
 20
222.855669
 30
0.0
 10
70.132834
 20
222.855669
 30
0.0
  0
SPLINE
  5
1ba
100
AcDbEntity
  8
Layer_2
 62
7
100
AcDbSpline
 70
8
 71
3
 72
8
 73
4
 74
0
 40
0
 40
0
 40
0
 40
0
 40
1
 40
1
 40
1
 40
1
 10
70.132834
 20
222.855669
 30
0.0
 10
70.202684
 20
222.855669
 30
0.0
 10
70.259834
 20
222.912819
 30
0.0
 10
70.259834
 20
222.982669
 30
0.0
  0
SPLINE
  5
1bb
100
AcDbEntity
  8
Layer_2
 62
7
100
AcDbSpline
 70
8
 71
3
 72
8
 73
4
 74
0
 40
0
 40
0
 40
0
 40
0
 40
1
 40
1
 40
1
 40
1
 10
70.259834
 20
222.982669
 30
0.0
 10
70.259834
 20
223.052519
 30
0.0
 10
70.316984
 20
223.109669
 30
0.0
 10
70.386834
 20
223.109669
 30
0.0
  0
SPLINE
  5
1bc
100
AcDbEntity
  8
Layer_2
 62
7
100
AcDbSpline
 70
8
 71
3
 72
8
 73
4
 74
0
 40
0
 40
0
 40
0
 40
0
 40
1
 40
1
 40
1
 40
1
 10
70.386834
 20
223.109669
 30
0.0
 10
70.456684
 20
223.109669
 30
0.0
 10
70.513834
 20
223.166819
 30
0.0
 10
70.513834
 20
223.236669
 30
0.0
  0
SPLINE
  5
1bd
100
AcDbEntity
  8
Layer_2
 62
7
100
AcDbSpline
 70
8
 71
3
 72
8
 73
4
 74
0
 40
0
 40
0
 40
0
 40
0
 40
1
 40
1
 40
1
 40
1
 10
70.513834
 20
223.236669
 30
0.0
 10
70.513834
 20
223.306519
 30
0.0
 10
70.570984
 20
223.363669
 30
0.0
 10
70.640834
 20
223.363669
 30
0.0
  0
SPLINE
  5
1be
100
AcDbEntity
  8
Layer_2
 62
7
100
AcDbSpline
 70
8
 71
3
 72
8
 73
4
 74
0
 40
0
 40
0
 40
0
 40
0
 40
1
 40
1
 40
1
 40
1
 10
70.640834
 20
223.363669
 30
0.0
 10
70.710684
 20
223.363669
 30
0.0
 10
70.767834
 20
223.401769
 30
0.0
 10
70.767834
 20
223.448339
 30
0.0
  0
SPLINE
  5
1bf
100
AcDbEntity
  8
Layer_2
 62
7
100
AcDbSpline
 70
8
 71
3
 72
8
 73
4
 74
0
 40
0
 40
0
 40
0
 40
0
 40
1
 40
1
 40
1
 40
1
 10
70.767834
 20
223.448339
 30
0.0
 10
70.767834
 20
223.494909
 30
0.0
 10
70.824984
 20
223.533009
 30
0.0
 10
70.894834
 20
223.533009
 30
0.0
  0
SPLINE
  5
1c0
100
AcDbEntity
  8
Layer_2
 62
7
100
AcDbSpline
 70
8
 71
3
 72
8
 73
4
 74
0
 40
0
 40
0
 40
0
 40
0
 40
1
 40
1
 40
1
 40
1
 10
70.894834
 20
223.533009
 30
0.0
 10
70.964684
 20
223.533009
 30
0.0
 10
71.021834
 20
223.590159
 30
0.0
 10
71.021834
 20
223.660009
 30
0.0
  0
SPLINE
  5
1c1
100
AcDbEntity
  8
Layer_2
 62
7
100
AcDbSpline
 70
8
 71
3
 72
8
 73
4
 74
0
 40
0
 40
0
 40
0
 40
0
 40
1
 40
1
 40
1
 40
1
 10
71.021834
 20
223.660009
 30
0.0
 10
71.021834
 20
223.729859
 30
0.0
 10
71.078984
 20
223.787009
 30
0.0
 10
71.148834
 20
223.787009
 30
0.0
  0
SPLINE
  5
1c2
100
AcDbEntity
  8
Layer_2
 62
7
100
AcDbSpline
 70
8
 71
3
 72
8
 73
4
 74
0
 40
0
 40
0
 40
0
 40
0
 40
1
 40
1
 40
1
 40
1
 10
71.148834
 20
223.787009
 30
0.0
 10
71.218684
 20
223.787009
 30
0.0
 10
71.275834
 20
223.844159
 30
0.0
 10
71.275834
 20
223.914009
 30
0.0
  0
SPLINE
  5
1c3
100
AcDbEntity
  8
Layer_2
 62
7
100
AcDbSpline
 70
8
 71
3
 72
8
 73
4
 74
0
 40
0
 40
0
 40
0
 40
0
 40
1
 40
1
 40
1
 40
1
 10
71.275834
 20
223.914009
 30
0.0
 10
71.275834
 20
223.983859
 30
0.0
 10
71.332984
 20
224.041009
 30
0.0
 10
71.402834
 20
224.041009
 30
0.0
  0
SPLINE
  5
1c4
100
AcDbEntity
  8
Layer_2
 62
7
100
AcDbSpline
 70
8
 71
3
 72
8
 73
4
 74
0
 40
0
 40
0
 40
0
 40
0
 40
1
 40
1
 40
1
 40
1
 10
71.402834
 20
224.041009
 30
0.0
 10
71.472684
 20
224.041009
 30
0.0
 10
71.529834
 20
224.098159
 30
0.0
 10
71.529834
 20
224.168009
 30
0.0
  0
SPLINE
  5
1c5
100
AcDbEntity
  8
Layer_2
 62
7
100
AcDbSpline
 70
8
 71
3
 72
8
 73
4
 74
0
 40
0
 40
0
 40
0
 40
0
 40
1
 40
1
 40
1
 40
1
 10
71.529834
 20
224.168009
 30
0.0
 10
71.529834
 20
224.237859
 30
0.0
 10
71.586984
 20
224.295009
 30
0.0
 10
71.656834
 20
224.295009
 30
0.0
  0
SPLINE
  5
1c6
100
AcDbEntity
  8
Layer_2
 62
7
100
AcDbSpline
 70
8
 71
3
 72
8
 73
4
 74
0
 40
0
 40
0
 40
0
 40
0
 40
1
 40
1
 40
1
 40
1
 10
71.656834
 20
224.295009
 30
0.0
 10
71.726684
 20
224.295009
 30
0.0
 10
71.783834
 20
224.352159
 30
0.0
 10
71.783834
 20
224.422009
 30
0.0
  0
SPLINE
  5
1c7
100
AcDbEntity
  8
Layer_2
 62
7
100
AcDbSpline
 70
8
 71
3
 72
8
 73
4
 74
0
 40
0
 40
0
 40
0
 40
0
 40
1
 40
1
 40
1
 40
1
 10
71.783834
 20
224.422009
 30
0.0
 10
71.783834
 20
224.491859
 30
0.0
 10
71.840984
 20
224.549009
 30
0.0
 10
71.910834
 20
224.549009
 30
0.0
  0
SPLINE
  5
1c8
100
AcDbEntity
  8
Layer_2
 62
7
100
AcDbSpline
 70
8
 71
3
 72
8
 73
4
 74
0
 40
0
 40
0
 40
0
 40
0
 40
1
 40
1
 40
1
 40
1
 10
71.910834
 20
224.549009
 30
0.0
 10
71.980684
 20
224.549009
 30
0.0
 10
72.037834
 20
224.606159
 30
0.0
 10
72.037834
 20
224.676009
 30
0.0
  0
SPLINE
  5
1c9
100
AcDbEntity
  8
Layer_2
 62
7
100
AcDbSpline
 70
8
 71
3
 72
8
 73
4
 74
0
 40
0
 40
0
 40
0
 40
0
 40
1
 40
1
 40
1
 40
1
 10
72.037834
 20
224.676009
 30
0.0
 10
72.037834
 20
224.760679
 30
0.0
 10
72.122504
 20
224.803009
 30
0.0
 10
72.291834
 20
224.803009
 30
0.0
  0
SPLINE
  5
1ca
100
AcDbEntity
  8
Layer_2
 62
7
100
AcDbSpline
 70
8
 71
3
 72
8
 73
4
 74
0
 40
0
 40
0
 40
0
 40
0
 40
1
 40
1
 40
1
 40
1
 10
72.291834
 20
224.803009
 30
0.0
 10
72.461168
 20
224.803009
 30
0.0
 10
72.545834
 20
224.845339
 30
0.0
 10
72.545834
 20
224.930009
 30
0.0
  0
SPLINE
  5
1cb
100
AcDbEntity
  8
Layer_2
 62
7
100
AcDbSpline
 70
8
 71
3
 72
8
 73
4
 74
0
 40
0
 40
0
 40
0
 40
0
 40
1
 40
1
 40
1
 40
1
 10
72.545834
 20
224.930009
 30
0.0
 10
72.545834
 20
224.999859
 30
0.0
 10
72.602984
 20
225.057009
 30
0.0
 10
72.672834
 20
225.057009
 30
0.0
  0
SPLINE
  5
1cc
100
AcDbEntity
  8
Layer_2
 62
7
100
AcDbSpline
 70
8
 71
3
 72
8
 73
4
 74
0
 40
0
 40
0
 40
0
 40
0
 40
1
 40
1
 40
1
 40
1
 10
72.672834
 20
225.057009
 30
0.0
 10
72.742684
 20
225.057009
 30
0.0
 10
72.799834
 20
225.114159
 30
0.0
 10
72.799834
 20
225.184009
 30
0.0
  0
SPLINE
  5
1cd
100
AcDbEntity
  8
Layer_2
 62
7
100
AcDbSpline
 70
8
 71
3
 72
8
 73
4
 74
0
 40
0
 40
0
 40
0
 40
0
 40
1
 40
1
 40
1
 40
1
 10
72.799834
 20
225.184009
 30
0.0
 10
72.799834
 20
225.268679
 30
0.0
 10
72.884504
 20
225.311009
 30
0.0
 10
73.053834
 20
225.311009
 30
0.0
  0
SPLINE
  5
1ce
100
AcDbEntity
  8
Layer_2
 62
7
100
AcDbSpline
 70
8
 71
3
 72
8
 73
4
 74
0
 40
0
 40
0
 40
0
 40
0
 40
1
 40
1
 40
1
 40
1
 10
73.053834
 20
225.311009
 30
0.0
 10
73.223168
 20
225.311009
 30
0.0
 10
73.307834
 20
225.353339
 30
0.0
 10
73.307834
 20
225.438009
 30
0.0
  0
SPLINE
  5
1cf
100
AcDbEntity
  8
Layer_2
 62
7
100
AcDbSpline
 70
8
 71
3
 72
8
 73
4
 74
0
 40
0
 40
0
 40
0
 40
0
 40
1
 40
1
 40
1
 40
1
 10
73.307834
 20
225.438009
 30
0.0
 10
73.307834
 20
225.517029
 30
0.0
 10
73.387794
 20
225.565009
 30
0.0
 10
73.519501
 20
225.565009
 30
0.0
  0
SPLINE
  5
1d0
100
AcDbEntity
  8
Layer_2
 62
7
100
AcDbSpline
 70
8
 71
3
 72
8
 73
4
 74
0
 40
0
 40
0
 40
0
 40
0
 40
1
 40
1
 40
1
 40
1
 10
73.519501
 20
225.565009
 30
0.0
 10
73.651205
 20
225.565009
 30
0.0
 10
73.731168
 20
225.612989
 30
0.0
 10
73.731168
 20
225.692009
 30
0.0
  0
SPLINE
  5
1d1
100
AcDbEntity
  8
Layer_2
 62
7
100
AcDbSpline
 70
8
 71
3
 72
8
 73
4
 74
0
 40
0
 40
0
 40
0
 40
0
 40
1
 40
1
 40
1
 40
1
 10
73.731168
 20
225.692009
 30
0.0
 10
73.731168
 20
225.776679
 30
0.0
 10
73.815838
 20
225.819009
 30
0.0
 10
73.985168
 20
225.819009
 30
0.0
  0
SPLINE
  5
1d2
100
AcDbEntity
  8
Layer_2
 62
7
100
AcDbSpline
 70
8
 71
3
 72
8
 73
4
 74
0
 40
0
 40
0
 40
0
 40
0
 40
1
 40
1
 40
1
 40
1
 10
73.985168
 20
225.819009
 30
0.0
 10
74.154501
 20
225.819009
 30
0.0
 10
74.239168
 20
225.861339
 30
0.0
 10
74.239168
 20
225.946009
 30
0.0
  0
SPLINE
  5
1d3
100
AcDbEntity
  8
Layer_2
 62
7
100
AcDbSpline
 70
8
 71
3
 72
8
 73
4
 74
0
 40
0
 40
0
 40
0
 40
0
 40
1
 40
1
 40
1
 40
1
 10
74.239168
 20
225.946009
 30
0.0
 10
74.239168
 20
226.030679
 30
0.0
 10
74.323838
 20
226.073009
 30
0.0
 10
74.493168
 20
226.073009
 30
0.0
  0
SPLINE
  5
1d4
100
AcDbEntity
  8
Layer_2
 62
7
100
AcDbSpline
 70
8
 71
3
 72
8
 73
4
 74
0
 40
0
 40
0
 40
0
 40
0
 40
1
 40
1
 40
1
 40
1
 10
74.493168
 20
226.073009
 30
0.0
 10
74.662501
 20
226.073009
 30
0.0
 10
74.747168
 20
226.115339
 30
0.0
 10
74.747168
 20
226.200009
 30
0.0
  0
SPLINE
  5
1d5
100
AcDbEntity
  8
Layer_2
 62
7
100
AcDbSpline
 70
8
 71
3
 72
8
 73
4
 74
0
 40
0
 40
0
 40
0
 40
0
 40
1
 40
1
 40
1
 40
1
 10
74.747168
 20
226.200009
 30
0.0
 10
74.747168
 20
226.294079
 30
0.0
 10
74.845948
 20
226.327009
 30
0.0
 10
75.128168
 20
226.327009
 30
0.0
  0
SPLINE
  5
1d6
100
AcDbEntity
  8
Layer_2
 62
7
100
AcDbSpline
 70
8
 71
3
 72
8
 73
4
 74
0
 40
0
 40
0
 40
0
 40
0
 40
1
 40
1
 40
1
 40
1
 10
75.128168
 20
226.327009
 30
0.0
 10
75.410390
 20
226.327009
 30
0.0
 10
75.509168
 20
226.359939
 30
0.0
 10
75.509168
 20
226.454009
 30
0.0
  0
SPLINE
  5
1d7
100
AcDbEntity
  8
Layer_2
 62
7
100
AcDbSpline
 70
8
 71
3
 72
8
 73
4
 74
0
 40
0
 40
0
 40
0
 40
0
 40
1
 40
1
 40
1
 40
1
 10
75.509168
 20
226.454009
 30
0.0
 10
75.509168
 20
226.548079
 30
0.0
 10
75.607948
 20
226.581009
 30
0.0
 10
75.890168
 20
226.581009
 30
0.0
  0
SPLINE
  5
1d8
100
AcDbEntity
  8
Layer_2
 62
7
100
AcDbSpline
 70
8
 71
3
 72
8
 73
4
 74
0
 40
0
 40
0
 40
0
 40
0
 40
1
 40
1
 40
1
 40
1
 10
75.890168
 20
226.581009
 30
0.0
 10
76.172390
 20
226.581009
 30
0.0
 10
76.271168
 20
226.613939
 30
0.0
 10
76.271168
 20
226.708009
 30
0.0
  0
SPLINE
  5
1d9
100
AcDbEntity
  8
Layer_2
 62
7
100
AcDbSpline
 70
8
 71
3
 72
8
 73
4
 74
0
 40
0
 40
0
 40
0
 40
0
 40
1
 40
1
 40
1
 40
1
 10
76.271168
 20
226.708009
 30
0.0
 10
76.271168
 20
226.809609
 30
0.0
 10
76.398168
 20
226.835009
 30
0.0
 10
76.906168
 20
226.835009
 30
0.0
  0
SPLINE
  5
1da
100
AcDbEntity
  8
Layer_2
 62
7
100
AcDbSpline
 70
8
 71
3
 72
8
 73
4
 74
0
 40
0
 40
0
 40
0
 40
0
 40
1
 40
1
 40
1
 40
1
 10
76.906168
 20
226.835009
 30
0.0
 10
77.414168
 20
226.835009
 30
0.0
 10
77.541168
 20
226.860409
 30
0.0
 10
77.541168
 20
226.962009
 30
0.0
  0
SPLINE
  5
1db
100
AcDbEntity
  8
Layer_2
 62
7
100
AcDbSpline
 70
8
 71
3
 72
8
 73
4
 74
0
 40
0
 40
0
 40
0
 40
0
 40
1
 40
1
 40
1
 40
1
 10
77.541168
 20
226.962009
 30
0.0
 10
77.541168
 20
227.069607
 30
0.0
 10
77.748130
 20
227.089009
 30
0.0
 10
78.895835
 20
227.089009
 30
0.0
  0
SPLINE
  5
1dc
100
AcDbEntity
  8
Layer_2
 62
7
100
AcDbSpline
 70
8
 71
3
 72
8
 73
4
 74
0
 40
0
 40
0
 40
0
 40
0
 40
1
 40
1
 40
1
 40
1
 10
78.895835
 20
227.089009
 30
0.0
 10
80.043539
 20
227.089009
 30
0.0
 10
80.250501
 20
227.069609
 30
0.0
 10
80.250501
 20
226.962009
 30
0.0
  0
SPLINE
  5
1dd
100
AcDbEntity
  8
Layer_2
 62
7
100
AcDbSpline
 70
8
 71
3
 72
8
 73
4
 74
0
 40
0
 40
0
 40
0
 40
0
 40
1
 40
1
 40
1
 40
1
 10
80.250501
 20
226.962009
 30
0.0
 10
80.250501
 20
226.860409
 30
0.0
 10
80.377501
 20
226.835009
 30
0.0
 10
80.885501
 20
226.835009
 30
0.0
  0
SPLINE
  5
1de
100
AcDbEntity
  8
Layer_2
 62
7
100
AcDbSpline
 70
8
 71
3
 72
8
 73
4
 74
0
 40
0
 40
0
 40
0
 40
0
 40
1
 40
1
 40
1
 40
1
 10
80.885501
 20
226.835009
 30
0.0
 10
81.393501
 20
226.835009
 30
0.0
 10
81.520501
 20
226.809609
 30
0.0
 10
81.520501
 20
226.708009
 30
0.0
  0
SPLINE
  5
1df
100
AcDbEntity
  8
Layer_2
 62
7
100
AcDbSpline
 70
8
 71
3
 72
8
 73
4
 74
0
 40
0
 40
0
 40
0
 40
0
 40
1
 40
1
 40
1
 40
1
 10
81.520501
 20
226.708009
 30
0.0
 10
81.520501
 20
226.613939
 30
0.0
 10
81.619281
 20
226.581009
 30
0.0
 10
81.901501
 20
226.581009
 30
0.0
  0
SPLINE
  5
1e0
100
AcDbEntity
  8
Layer_2
 62
7
100
AcDbSpline
 70
8
 71
3
 72
8
 73
4
 74
0
 40
0
 40
0
 40
0
 40
0
 40
1
 40
1
 40
1
 40
1
 10
81.901501
 20
226.581009
 30
0.0
 10
82.183723
 20
226.581009
 30
0.0
 10
82.282501
 20
226.548079
 30
0.0
 10
82.282501
 20
226.454009
 30
0.0
  0
SPLINE
  5
1e1
100
AcDbEntity
  8
Layer_2
 62
7
100
AcDbSpline
 70
8
 71
3
 72
8
 73
4
 74
0
 40
0
 40
0
 40
0
 40
0
 40
1
 40
1
 40
1
 40
1
 10
82.282501
 20
226.454009
 30
0.0
 10
82.282501
 20
226.369339
 30
0.0
 10
82.367171
 20
226.327009
 30
0.0
 10
82.536501
 20
226.327009
 30
0.0
  0
SPLINE
  5
1e2
100
AcDbEntity
  8
Layer_2
 62
7
100
AcDbSpline
 70
8
 71
3
 72
8
 73
4
 74
0
 40
0
 40
0
 40
0
 40
0
 40
1
 40
1
 40
1
 40
1
 10
82.536501
 20
226.327009
 30
0.0
 10
82.705835
 20
226.327009
 30
0.0
 10
82.790501
 20
226.284679
 30
0.0
 10
82.790501
 20
226.200009
 30
0.0
  0
SPLINE
  5
1e3
100
AcDbEntity
  8
Layer_2
 62
7
100
AcDbSpline
 70
8
 71
3
 72
8
 73
4
 74
0
 40
0
 40
0
 40
0
 40
0
 40
1
 40
1
 40
1
 40
1
 10
82.790501
 20
226.200009
 30
0.0
 10
82.790501
 20
226.105939
 30
0.0
 10
82.889281
 20
226.073009
 30
0.0
 10
83.171501
 20
226.073009
 30
0.0
  0
SPLINE
  5
1e4
100
AcDbEntity
  8
Layer_2
 62
7
100
AcDbSpline
 70
8
 71
3
 72
8
 73
4
 74
0
 40
0
 40
0
 40
0
 40
0
 40
1
 40
1
 40
1
 40
1
 10
83.171501
 20
226.073009
 30
0.0
 10
83.453723
 20
226.073009
 30
0.0
 10
83.552501
 20
226.040079
 30
0.0
 10
83.552501
 20
225.946009
 30
0.0
  0
SPLINE
  5
1e5
100
AcDbEntity
  8
Layer_2
 62
7
100
AcDbSpline
 70
8
 71
3
 72
8
 73
4
 74
0
 40
0
 40
0
 40
0
 40
0
 40
1
 40
1
 40
1
 40
1
 10
83.552501
 20
225.946009
 30
0.0
 10
83.552501
 20
225.876159
 30
0.0
 10
83.609651
 20
225.819009
 30
0.0
 10
83.679501
 20
225.819009
 30
0.0
  0
SPLINE
  5
1e6
100
AcDbEntity
  8
Layer_2
 62
7
100
AcDbSpline
 70
8
 71
3
 72
8
 73
4
 74
0
 40
0
 40
0
 40
0
 40
0
 40
1
 40
1
 40
1
 40
1
 10
83.679501
 20
225.819009
 30
0.0
 10
83.749351
 20
225.819009
 30
0.0
 10
83.806501
 20
225.761859
 30
0.0
 10
83.806501
 20
225.692009
 30
0.0
  0
SPLINE
  5
1e7
100
AcDbEntity
  8
Layer_2
 62
7
100
AcDbSpline
 70
8
 71
3
 72
8
 73
4
 74
0
 40
0
 40
0
 40
0
 40
0
 40
1
 40
1
 40
1
 40
1
 10
83.806501
 20
225.692009
 30
0.0
 10
83.806501
 20
225.600289
 30
0.0
 10
83.900571
 20
225.565009
 30
0.0
 10
84.145168
 20
225.565009
 30
0.0
  0
SPLINE
  5
1e8
100
AcDbEntity
  8
Layer_2
 62
7
100
AcDbSpline
 70
8
 71
3
 72
8
 73
4
 74
0
 40
0
 40
0
 40
0
 40
0
 40
1
 40
1
 40
1
 40
1
 10
84.145168
 20
225.565009
 30
0.0
 10
84.389761
 20
225.565009
 30
0.0
 10
84.483835
 20
225.600289
 30
0.0
 10
84.483835
 20
225.692009
 30
0.0
  0
SPLINE
  5
1e9
100
AcDbEntity
  8
Layer_2
 62
7
100
AcDbSpline
 70
8
 71
3
 72
8
 73
4
 74
0
 40
0
 40
0
 40
0
 40
0
 40
1
 40
1
 40
1
 40
1
 10
84.483835
 20
225.692009
 30
0.0
 10
84.483835
 20
225.776679
 30
0.0
 10
84.568505
 20
225.819009
 30
0.0
 10
84.737835
 20
225.819009
 30
0.0
  0
SPLINE
  5
1ea
100
AcDbEntity
  8
Layer_2
 62
7
100
AcDbSpline
 70
8
 71
3
 72
8
 73
4
 74
0
 40
0
 40
0
 40
0
 40
0
 40
1
 40
1
 40
1
 40
1
 10
84.737835
 20
225.819009
 30
0.0
 10
84.907168
 20
225.819009
 30
0.0
 10
84.991835
 20
225.861339
 30
0.0
 10
84.991835
 20
225.946009
 30
0.0
  0
SPLINE
  5
1eb
100
AcDbEntity
  8
Layer_2
 62
7
100
AcDbSpline
 70
8
 71
3
 72
8
 73
4
 74
0
 40
0
 40
0
 40
0
 40
0
 40
1
 40
1
 40
1
 40
1
 10
84.991835
 20
225.946009
 30
0.0
 10
84.991835
 20
226.040079
 30
0.0
 10
85.090615
 20
226.073009
 30
0.0
 10
85.372835
 20
226.073009
 30
0.0
  0
SPLINE
  5
1ec
100
AcDbEntity
  8
Layer_2
 62
7
100
AcDbSpline
 70
8
 71
3
 72
8
 73
4
 74
0
 40
0
 40
0
 40
0
 40
0
 40
1
 40
1
 40
1
 40
1
 10
85.372835
 20
226.073009
 30
0.0
 10
85.655057
 20
226.073009
 30
0.0
 10
85.753835
 20
226.105939
 30
0.0
 10
85.753835
 20
226.200009
 30
0.0
  0
SPLINE
  5
1ed
100
AcDbEntity
  8
Layer_2
 62
7
100
AcDbSpline
 70
8
 71
3
 72
8
 73
4
 74
0
 40
0
 40
0
 40
0
 40
0
 40
1
 40
1
 40
1
 40
1
 10
85.753835
 20
226.200009
 30
0.0
 10
85.753835
 20
226.284679
 30
0.0
 10
85.838505
 20
226.327009
 30
0.0
 10
86.007835
 20
226.327009
 30
0.0
  0
SPLINE
  5
1ee
100
AcDbEntity
  8
Layer_2
 62
7
100
AcDbSpline
 70
8
 71
3
 72
8
 73
4
 74
0
 40
0
 40
0
 40
0
 40
0
 40
1
 40
1
 40
1
 40
1
 10
86.007835
 20
226.327009
 30
0.0
 10
86.177168
 20
226.327009
 30
0.0
 10
86.261835
 20
226.369339
 30
0.0
 10
86.261835
 20
226.454009
 30
0.0
  0
SPLINE
  5
1ef
100
AcDbEntity
  8
Layer_2
 62
7
100
AcDbSpline
 70
8
 71
3
 72
8
 73
4
 74
0
 40
0
 40
0
 40
0
 40
0
 40
1
 40
1
 40
1
 40
1
 10
86.261835
 20
226.454009
 30
0.0
 10
86.261835
 20
226.548079
 30
0.0
 10
86.360615
 20
226.581009
 30
0.0
 10
86.642835
 20
226.581009
 30
0.0
  0
SPLINE
  5
1f0
100
AcDbEntity
  8
Layer_2
 62
7
100
AcDbSpline
 70
8
 71
3
 72
8
 73
4
 74
0
 40
0
 40
0
 40
0
 40
0
 40
1
 40
1
 40
1
 40
1
 10
86.642835
 20
226.581009
 30
0.0
 10
86.925057
 20
226.581009
 30
0.0
 10
87.023835
 20
226.613939
 30
0.0
 10
87.023835
 20
226.708009
 30
0.0
  0
SPLINE
  5
1f1
100
AcDbEntity
  8
Layer_2
 62
7
100
AcDbSpline
 70
8
 71
3
 72
8
 73
4
 74
0
 40
0
 40
0
 40
0
 40
0
 40
1
 40
1
 40
1
 40
1
 10
87.023835
 20
226.708009
 30
0.0
 10
87.023835
 20
226.802079
 30
0.0
 10
87.122615
 20
226.835009
 30
0.0
 10
87.404835
 20
226.835009
 30
0.0
  0
SPLINE
  5
1f2
100
AcDbEntity
  8
Layer_2
 62
7
100
AcDbSpline
 70
8
 71
3
 72
8
 73
4
 74
0
 40
0
 40
0
 40
0
 40
0
 40
1
 40
1
 40
1
 40
1
 10
87.404835
 20
226.835009
 30
0.0
 10
87.687057
 20
226.835009
 30
0.0
 10
87.785835
 20
226.867939
 30
0.0
 10
87.785835
 20
226.962009
 30
0.0
  0
SPLINE
  5
1f3
100
AcDbEntity
  8
Layer_2
 62
7
100
AcDbSpline
 70
8
 71
3
 72
8
 73
4
 74
0
 40
0
 40
0
 40
0
 40
0
 40
1
 40
1
 40
1
 40
1
 10
87.785835
 20
226.962009
 30
0.0
 10
87.785835
 20
227.060789
 30
0.0
 10
87.898723
 20
227.089009
 30
0.0
 10
88.293835
 20
227.089009
 30
0.0
  0
SPLINE
  5
1f4
100
AcDbEntity
  8
Layer_2
 62
7
100
AcDbSpline
 70
8
 71
3
 72
8
 73
4
 74
0
 40
0
 40
0
 40
0
 40
0
 40
1
 40
1
 40
1
 40
1
 10
88.293835
 20
227.089009
 30
0.0
 10
88.688946
 20
227.089009
 30
0.0
 10
88.801835
 20
227.117229
 30
0.0
 10
88.801835
 20
227.216009
 30
0.0
  0
SPLINE
  5
1f5
100
AcDbEntity
  8
Layer_2
 62
7
100
AcDbSpline
 70
8
 71
3
 72
8
 73
4
 74
0
 40
0
 40
0
 40
0
 40
0
 40
1
 40
1
 40
1
 40
1
 10
88.801835
 20
227.216009
 30
0.0
 10
88.801835
 20
227.321536
 30
0.0
 10
88.966464
 20
227.343009
 30
0.0
 10
89.775501
 20
227.343009
 30
0.0
  0
SPLINE
  5
1f6
100
AcDbEntity
  8
Layer_2
 62
7
100
AcDbSpline
 70
8
 71
3
 72
8
 73
4
 74
0
 40
0
 40
0
 40
0
 40
0
 40
1
 40
1
 40
1
 40
1
 10
89.775501
 20
227.343009
 30
0.0
 10
90.584539
 20
227.343009
 30
0.0
 10
90.749168
 20
227.364479
 30
0.0
 10
90.749168
 20
227.470009
 30
0.0
  0
SPLINE
  5
1f7
100
AcDbEntity
  8
Layer_2
 62
7
100
AcDbSpline
 70
8
 71
3
 72
8
 73
4
 74
0
 40
0
 40
0
 40
0
 40
0
 40
1
 40
1
 40
1
 40
1
 10
90.749168
 20
227.470009
 30
0.0
 10
90.749168
 20
227.571609
 30
0.0
 10
90.876168
 20
227.597009
 30
0.0
 10
91.384168
 20
227.597009
 30
0.0
  0
SPLINE
  5
1f8
100
AcDbEntity
  8
Layer_2
 62
7
100
AcDbSpline
 70
8
 71
3
 72
8
 73
4
 74
0
 40
0
 40
0
 40
0
 40
0
 40
1
 40
1
 40
1
 40
1
 10
91.384168
 20
227.597009
 30
0.0
 10
91.892168
 20
227.597009
 30
0.0
 10
92.019168
 20
227.571609
 30
0.0
 10
92.019168
 20
227.470009
 30
0.0
  0
SPLINE
  5
1f9
100
AcDbEntity
  8
Layer_2
 62
7
100
AcDbSpline
 70
8
 71
3
 72
8
 73
4
 74
0
 40
0
 40
0
 40
0
 40
0
 40
1
 40
1
 40
1
 40
1
 10
92.019168
 20
227.470009
 30
0.0
 10
92.019168
 20
227.364176
 30
0.0
 10
92.188502
 20
227.343009
 30
0.0
 10
93.035168
 20
227.343009
 30
0.0
  0
SPLINE
  5
1fa
100
AcDbEntity
  8
Layer_2
 62
7
100
AcDbSpline
 70
8
 71
3
 72
8
 73
4
 74
0
 40
0
 40
0
 40
0
 40
0
 40
1
 40
1
 40
1
 40
1
 10
93.035168
 20
227.343009
 30
0.0
 10
93.881835
 20
227.343009
 30
0.0
 10
94.051168
 20
227.321839
 30
0.0
 10
94.051168
 20
227.216009
 30
0.0
  0
SPLINE
  5
1fb
100
AcDbEntity
  8
Layer_2
 62
7
100
AcDbSpline
 70
8
 71
3
 72
8
 73
4
 74
0
 40
0
 40
0
 40
0
 40
0
 40
1
 40
1
 40
1
 40
1
 10
94.051168
 20
227.216009
 30
0.0
 10
94.051168
 20
227.117229
 30
0.0
 10
94.164057
 20
227.089009
 30
0.0
 10
94.559168
 20
227.089009
 30
0.0
  0
SPLINE
  5
1fc
100
AcDbEntity
  8
Layer_2
 62
7
100
AcDbSpline
 70
8
 71
3
 72
8
 73
4
 74
0
 40
0
 40
0
 40
0
 40
0
 40
1
 40
1
 40
1
 40
1
 10
94.559168
 20
227.089009
 30
0.0
 10
94.954280
 20
227.089009
 30
0.0
 10
95.067168
 20
227.060789
 30
0.0
 10
95.067168
 20
226.962009
 30
0.0
  0
SPLINE
  5
1fd
100
AcDbEntity
  8
Layer_2
 62
7
100
AcDbSpline
 70
8
 71
3
 72
8
 73
4
 74
0
 40
0
 40
0
 40
0
 40
0
 40
1
 40
1
 40
1
 40
1
 10
95.067168
 20
226.962009
 30
0.0
 10
95.067168
 20
226.870289
 30
0.0
 10
95.161238
 20
226.835009
 30
0.0
 10
95.405835
 20
226.835009
 30
0.0
  0
SPLINE
  5
1fe
100
AcDbEntity
  8
Layer_2
 62
7
100
AcDbSpline
 70
8
 71
3
 72
8
 73
4
 74
0
 40
0
 40
0
 40
0
 40
0
 40
1
 40
1
 40
1
 40
1
 10
95.405835
 20
226.835009
 30
0.0
 10
95.650428
 20
226.835009
 30
0.0
 10
95.744502
 20
226.799729
 30
0.0
 10
95.744502
 20
226.708009
 30
0.0
  0
SPLINE
  5
1ff
100
AcDbEntity
  8
Layer_2
 62
7
100
AcDbSpline
 70
8
 71
3
 72
8
 73
4
 74
0
 40
0
 40
0
 40
0
 40
0
 40
1
 40
1
 40
1
 40
1
 10
95.744502
 20
226.708009
 30
0.0
 10
95.744502
 20
226.623339
 30
0.0
 10
95.829172
 20
226.581009
 30
0.0
 10
95.998502
 20
226.581009
 30
0.0
  0
SPLINE
  5
200
100
AcDbEntity
  8
Layer_2
 62
7
100
AcDbSpline
 70
8
 71
3
 72
8
 73
4
 74
0
 40
0
 40
0
 40
0
 40
0
 40
1
 40
1
 40
1
 40
1
 10
95.998502
 20
226.581009
 30
0.0
 10
96.167835
 20
226.581009
 30
0.0
 10
96.252502
 20
226.538679
 30
0.0
 10
96.252502
 20
226.454009
 30
0.0
  0
SPLINE
  5
201
100
AcDbEntity
  8
Layer_2
 62
7
100
AcDbSpline
 70
8
 71
3
 72
8
 73
4
 74
0
 40
0
 40
0
 40
0
 40
0
 40
1
 40
1
 40
1
 40
1
 10
96.252502
 20
226.454009
 30
0.0
 10
96.252502
 20
226.369339
 30
0.0
 10
96.337172
 20
226.327009
 30
0.0
 10
96.506502
 20
226.327009
 30
0.0
  0
SPLINE
  5
202
100
AcDbEntity
  8
Layer_2
 62
7
100
AcDbSpline
 70
8
 71
3
 72
8
 73
4
 74
0
 40
0
 40
0
 40
0
 40
0
 40
1
 40
1
 40
1
 40
1
 10
96.506502
 20
226.327009
 30
0.0
 10
96.675835
 20
226.327009
 30
0.0
 10
96.760502
 20
226.284679
 30
0.0
 10
96.760502
 20
226.200009
 30
0.0
  0
SPLINE
  5
203
100
AcDbEntity
  8
Layer_2
 62
7
100
AcDbSpline
 70
8
 71
3
 72
8
 73
4
 74
0
 40
0
 40
0
 40
0
 40
0
 40
1
 40
1
 40
1
 40
1
 10
96.760502
 20
226.200009
 30
0.0
 10
96.760502
 20
226.115339
 30
0.0
 10
96.845172
 20
226.073009
 30
0.0
 10
97.014502
 20
226.073009
 30
0.0
  0
SPLINE
  5
204
100
AcDbEntity
  8
Layer_2
 62
7
100
AcDbSpline
 70
8
 71
3
 72
8
 73
4
 74
0
 40
0
 40
0
 40
0
 40
0
 40
1
 40
1
 40
1
 40
1
 10
97.014502
 20
226.073009
 30
0.0
 10
97.183835
 20
226.073009
 30
0.0
 10
97.268502
 20
226.030679
 30
0.0
 10
97.268502
 20
225.946009
 30
0.0
  0
SPLINE
  5
205
100
AcDbEntity
  8
Layer_2
 62
7
100
AcDbSpline
 70
8
 71
3
 72
8
 73
4
 74
0
 40
0
 40
0
 40
0
 40
0
 40
1
 40
1
 40
1
 40
1
 10
97.268502
 20
225.946009
 30
0.0
 10
97.268502
 20
225.861339
 30
0.0
 10
97.353172
 20
225.819009
 30
0.0
 10
97.522502
 20
225.819009
 30
0.0
  0
SPLINE
  5
206
100
AcDbEntity
  8
Layer_2
 62
7
100
AcDbSpline
 70
8
 71
3
 72
8
 73
4
 74
0
 40
0
 40
0
 40
0
 40
0
 40
1
 40
1
 40
1
 40
1
 10
97.522502
 20
225.819009
 30
0.0
 10
97.691835
 20
225.819009
 30
0.0
 10
97.776502
 20
225.776679
 30
0.0
 10
97.776502
 20
225.692009
 30
0.0
  0
SPLINE
  5
207
100
AcDbEntity
  8
Layer_2
 62
7
100
AcDbSpline
 70
8
 71
3
 72
8
 73
4
 74
0
 40
0
 40
0
 40
0
 40
0
 40
1
 40
1
 40
1
 40
1
 10
97.776502
 20
225.692009
 30
0.0
 10
97.776502
 20
225.607339
 30
0.0
 10
97.861172
 20
225.565009
 30
0.0
 10
98.030502
 20
225.565009
 30
0.0
  0
SPLINE
  5
208
100
AcDbEntity
  8
Layer_2
 62
7
100
AcDbSpline
 70
8
 71
3
 72
8
 73
4
 74
0
 40
0
 40
0
 40
0
 40
0
 40
1
 40
1
 40
1
 40
1
 10
98.030502
 20
225.565009
 30
0.0
 10
98.199835
 20
225.565009
 30
0.0
 10
98.284502
 20
225.522679
 30
0.0
 10
98.284502
 20
225.438009
 30
0.0
  0
SPLINE
  5
209
100
AcDbEntity
  8
Layer_2
 62
7
100
AcDbSpline
 70
8
 71
3
 72
8
 73
4
 74
0
 40
0
 40
0
 40
0
 40
0
 40
1
 40
1
 40
1
 40
1
 10
98.284502
 20
225.438009
 30
0.0
 10
98.284502
 20
225.353339
 30
0.0
 10
98.369172
 20
225.311009
 30
0.0
 10
98.538502
 20
225.311009
 30
0.0
  0
SPLINE
  5
20a
100
AcDbEntity
  8
Layer_2
 62
7
100
AcDbSpline
 70
8
 71
3
 72
8
 73
4
 74
0
 40
0
 40
0
 40
0
 40
0
 40
1
 40
1
 40
1
 40
1
 10
98.538502
 20
225.311009
 30
0.0
 10
98.707835
 20
225.311009
 30
0.0
 10
98.792502
 20
225.268679
 30
0.0
 10
98.792502
 20
225.184009
 30
0.0
  0
SPLINE
  5
20b
100
AcDbEntity
  8
Layer_2
 62
7
100
AcDbSpline
 70
8
 71
3
 72
8
 73
4
 74
0
 40
0
 40
0
 40
0
 40
0
 40
1
 40
1
 40
1
 40
1
 10
98.792502
 20
225.184009
 30
0.0
 10
98.792502
 20
225.114159
 30
0.0
 10
98.849652
 20
225.057009
 30
0.0
 10
98.919502
 20
225.057009
 30
0.0
  0
SPLINE
  5
20c
100
AcDbEntity
  8
Layer_2
 62
7
100
AcDbSpline
 70
8
 71
3
 72
8
 73
4
 74
0
 40
0
 40
0
 40
0
 40
0
 40
1
 40
1
 40
1
 40
1
 10
98.919502
 20
225.057009
 30
0.0
 10
98.989352
 20
225.057009
 30
0.0
 10
99.046502
 20
224.999859
 30
0.0
 10
99.046502
 20
224.930009
 30
0.0
  0
SPLINE
  5
20d
100
AcDbEntity
  8
Layer_2
 62
7
100
AcDbSpline
 70
8
 71
3
 72
8
 73
4
 74
0
 40
0
 40
0
 40
0
 40
0
 40
1
 40
1
 40
1
 40
1
 10
99.046502
 20
224.930009
 30
0.0
 10
99.046502
 20
224.860159
 30
0.0
 10
99.103652
 20
224.803009
 30
0.0
 10
99.173502
 20
224.803009
 30
0.0
  0
SPLINE
  5
20e
100
AcDbEntity
  8
Layer_2
 62
7
100
AcDbSpline
 70
8
 71
3
 72
8
 73
4
 74
0
 40
0
 40
0
 40
0
 40
0
 40
1
 40
1
 40
1
 40
1
 10
99.173502
 20
224.803009
 30
0.0
 10
99.267572
 20
224.803009
 30
0.0
 10
99.300502
 20
224.704229
 30
0.0
 10
99.300502
 20
224.422009
 30
0.0
  0
LWPOLYLINE
  5
20f
100
AcDbEntity
  8
Layer_2
 62
7
100
AcDbPolyline
 90
3
 70
0
 10
76.017167
 20
178.828920
 30
0.0
 10
76.525167
 20
178.828920
 30
0.0
 10
76.525167
 20
182.342590
 30
0.0
  0
SPLINE
  5
210
100
AcDbEntity
  8
Layer_2
 62
7
100
AcDbSpline
 70
8
 71
3
 72
8
 73
4
 74
0
 40
0
 40
0
 40
0
 40
0
 40
1
 40
1
 40
1
 40
1
 10
97.776502
 20
224.041009
 30
0.0
 10
96.478280
 20
224.041009
 30
0.0
 10
96.252502
 20
224.022199
 30
0.0
 10
96.252502
 20
223.914009
 30
0.0
  0
SPLINE
  5
211
100
AcDbEntity
  8
Layer_2
 62
7
100
AcDbSpline
 70
8
 71
3
 72
8
 73
4
 74
0
 40
0
 40
0
 40
0
 40
0
 40
1
 40
1
 40
1
 40
1
 10
96.252502
 20
223.914009
 30
0.0
 10
96.252502
 20
223.819939
 30
0.0
 10
96.351282
 20
223.787009
 30
0.0
 10
96.633502
 20
223.787009
 30
0.0
  0
SPLINE
  5
212
100
AcDbEntity
  8
Layer_2
 62
7
100
AcDbSpline
 70
8
 71
3
 72
8
 73
4
 74
0
 40
0
 40
0
 40
0
 40
0
 40
1
 40
1
 40
1
 40
1
 10
96.633502
 20
223.787009
 30
0.0
 10
96.915724
 20
223.787009
 30
0.0
 10
97.014502
 20
223.754079
 30
0.0
 10
97.014502
 20
223.660009
 30
0.0
  0
SPLINE
  5
213
100
AcDbEntity
  8
Layer_2
 62
7
100
AcDbSpline
 70
8
 71
3
 72
8
 73
4
 74
0
 40
0
 40
0
 40
0
 40
0
 40
1
 40
1
 40
1
 40
1
 10
97.014502
 20
223.660009
 30
0.0
 10
97.014502
 20
223.565939
 30
0.0
 10
97.113282
 20
223.533009
 30
0.0
 10
97.395502
 20
223.533009
 30
0.0
  0
SPLINE
  5
214
100
AcDbEntity
  8
Layer_2
 62
7
100
AcDbSpline
 70
8
 71
3
 72
8
 73
4
 74
0
 40
0
 40
0
 40
0
 40
0
 40
1
 40
1
 40
1
 40
1
 10
97.395502
 20
223.533009
 30
0.0
 10
97.605052
 20
223.533009
 30
0.0
 10
97.776502
 20
223.494909
 30
0.0
 10
97.776502
 20
223.448339
 30
0.0
  0
SPLINE
  5
215
100
AcDbEntity
  8
Layer_2
 62
7
100
AcDbSpline
 70
8
 71
3
 72
8
 73
4
 74
0
 40
0
 40
0
 40
0
 40
0
 40
1
 40
1
 40
1
 40
1
 10
97.776502
 20
223.448339
 30
0.0
 10
97.776502
 20
223.401769
 30
0.0
 10
97.890802
 20
223.363669
 30
0.0
 10
98.030502
 20
223.363669
 30
0.0
  0
SPLINE
  5
216
100
AcDbEntity
  8
Layer_2
 62
7
100
AcDbSpline
 70
8
 71
3
 72
8
 73
4
 74
0
 40
0
 40
0
 40
0
 40
0
 40
1
 40
1
 40
1
 40
1
 10
98.030502
 20
223.363669
 30
0.0
 10
98.199835
 20
223.363669
 30
0.0
 10
98.284502
 20
223.321339
 30
0.0
 10
98.284502
 20
223.236669
 30
0.0
  0
SPLINE
  5
217
100
AcDbEntity
  8
Layer_2
 62
7
100
AcDbSpline
 70
8
 71
3
 72
8
 73
4
 74
0
 40
0
 40
0
 40
0
 40
0
 40
1
 40
1
 40
1
 40
1
 10
98.284502
 20
223.236669
 30
0.0
 10
98.284502
 20
223.151999
 30
0.0
 10
98.369172
 20
223.109669
 30
0.0
 10
98.538502
 20
223.109669
 30
0.0
  0
SPLINE
  5
218
100
AcDbEntity
  8
Layer_2
 62
7
100
AcDbSpline
 70
8
 71
3
 72
8
 73
4
 74
0
 40
0
 40
0
 40
0
 40
0
 40
1
 40
1
 40
1
 40
1
 10
98.538502
 20
223.109669
 30
0.0
 10
98.707835
 20
223.109669
 30
0.0
 10
98.792502
 20
223.067339
 30
0.0
 10
98.792502
 20
222.982669
 30
0.0
  0
SPLINE
  5
219
100
AcDbEntity
  8
Layer_2
 62
7
100
AcDbSpline
 70
8
 71
3
 72
8
 73
4
 74
0
 40
0
 40
0
 40
0
 40
0
 40
1
 40
1
 40
1
 40
1
 10
98.792502
 20
222.982669
 30
0.0
 10
98.792502
 20
222.897999
 30
0.0
 10
98.877172
 20
222.855669
 30
0.0
 10
99.046502
 20
222.855669
 30
0.0
  0
SPLINE
  5
21a
100
AcDbEntity
  8
Layer_2
 62
7
100
AcDbSpline
 70
8
 71
3
 72
8
 73
4
 74
0
 40
0
 40
0
 40
0
 40
0
 40
1
 40
1
 40
1
 40
1
 10
99.046502
 20
222.855669
 30
0.0
 10
99.215835
 20
222.855669
 30
0.0
 10
99.300502
 20
222.813339
 30
0.0
 10
99.300502
 20
222.728669
 30
0.0
  0
SPLINE
  5
21b
100
AcDbEntity
  8
Layer_2
 62
7
100
AcDbSpline
 70
8
 71
3
 72
8
 73
4
 74
0
 40
0
 40
0
 40
0
 40
0
 40
1
 40
1
 40
1
 40
1
 10
99.300502
 20
222.728669
 30
0.0
 10
99.300502
 20
222.643999
 30
0.0
 10
99.385172
 20
222.601669
 30
0.0
 10
99.554502
 20
222.601669
 30
0.0
  0
SPLINE
  5
21c
100
AcDbEntity
  8
Layer_2
 62
7
100
AcDbSpline
 70
8
 71
3
 72
8
 73
4
 74
0
 40
0
 40
0
 40
0
 40
0
 40
1
 40
1
 40
1
 40
1
 10
99.554502
 20
222.601669
 30
0.0
 10
99.723835
 20
222.601669
 30
0.0
 10
99.808502
 20
222.559339
 30
0.0
 10
99.808502
 20
222.474669
 30
0.0
  0
SPLINE
  5
21d
100
AcDbEntity
  8
Layer_2
 62
7
100
AcDbSpline
 70
8
 71
3
 72
8
 73
4
 74
0
 40
0
 40
0
 40
0
 40
0
 40
1
 40
1
 40
1
 40
1
 10
99.808502
 20
222.474669
 30
0.0
 10
99.808502
 20
222.404819
 30
0.0
 10
99.865652
 20
222.347669
 30
0.0
 10
99.935502
 20
222.347669
 30
0.0
  0
SPLINE
  5
21e
100
AcDbEntity
  8
Layer_2
 62
7
100
AcDbSpline
 70
8
 71
3
 72
8
 73
4
 74
0
 40
0
 40
0
 40
0
 40
0
 40
1
 40
1
 40
1
 40
1
 10
99.935502
 20
222.347669
 30
0.0
 10
100.005352
 20
222.347669
 30
0.0
 10
100.062500
 20
222.290519
 30
0.0
 10
100.062500
 20
222.220669
 30
0.0
  0
SPLINE
  5
21f
100
AcDbEntity
  8
Layer_2
 62
7
100
AcDbSpline
 70
8
 71
3
 72
8
 73
4
 74
0
 40
0
 40
0
 40
0
 40
0
 40
1
 40
1
 40
1
 40
1
 10
100.062500
 20
222.220669
 30
0.0
 10
100.062500
 20
222.141649
 30
0.0
 10
100.142500
 20
222.093669
 30
0.0
 10
100.274170
 20
222.093669
 30
0.0
  0
SPLINE
  5
220
100
AcDbEntity
  8
Layer_2
 62
7
100
AcDbSpline
 70
8
 71
3
 72
8
 73
4
 74
0
 40
0
 40
0
 40
0
 40
0
 40
1
 40
1
 40
1
 40
1
 10
100.274170
 20
222.093669
 30
0.0
 10
100.405870
 20
222.093669
 30
0.0
 10
100.485830
 20
222.045689
 30
0.0
 10
100.485830
 20
221.966669
 30
0.0
  0
SPLINE
  5
221
100
AcDbEntity
  8
Layer_2
 62
7
100
AcDbSpline
 70
8
 71
3
 72
8
 73
4
 74
0
 40
0
 40
0
 40
0
 40
0
 40
1
 40
1
 40
1
 40
1
 10
100.485830
 20
221.966669
 30
0.0
 10
100.485830
 20
221.896819
 30
0.0
 10
100.542930
 20
221.839669
 30
0.0
 10
100.612830
 20
221.839669
 30
0.0
  0
SPLINE
  5
222
100
AcDbEntity
  8
Layer_2
 62
7
100
AcDbSpline
 70
8
 71
3
 72
8
 73
4
 74
0
 40
0
 40
0
 40
0
 40
0
 40
1
 40
1
 40
1
 40
1
 10
100.612830
 20
221.839669
 30
0.0
 10
100.682730
 20
221.839669
 30
0.0
 10
100.739830
 20
221.782519
 30
0.0
 10
100.739830
 20
221.712669
 30
0.0
  0
SPLINE
  5
223
100
AcDbEntity
  8
Layer_2
 62
7
100
AcDbSpline
 70
8
 71
3
 72
8
 73
4
 74
0
 40
0
 40
0
 40
0
 40
0
 40
1
 40
1
 40
1
 40
1
 10
100.739830
 20
221.712669
 30
0.0
 10
100.739830
 20
221.642819
 30
0.0
 10
100.797030
 20
221.585669
 30
0.0
 10
100.866830
 20
221.585669
 30
0.0
  0
SPLINE
  5
224
100
AcDbEntity
  8
Layer_2
 62
7
100
AcDbSpline
 70
8
 71
3
 72
8
 73
4
 74
0
 40
0
 40
0
 40
0
 40
0
 40
1
 40
1
 40
1
 40
1
 10
100.866830
 20
221.585669
 30
0.0
 10
100.936730
 20
221.585669
 30
0.0
 10
100.993830
 20
221.528519
 30
0.0
 10
100.993830
 20
221.458669
 30
0.0
  0
SPLINE
  5
225
100
AcDbEntity
  8
Layer_2
 62
7
100
AcDbSpline
 70
8
 71
3
 72
8
 73
4
 74
0
 40
0
 40
0
 40
0
 40
0
 40
1
 40
1
 40
1
 40
1
 10
100.993830
 20
221.458669
 30
0.0
 10
100.993830
 20
221.388819
 30
0.0
 10
101.050930
 20
221.331669
 30
0.0
 10
101.120830
 20
221.331669
 30
0.0
  0
SPLINE
  5
226
100
AcDbEntity
  8
Layer_2
 62
7
100
AcDbSpline
 70
8
 71
3
 72
8
 73
4
 74
0
 40
0
 40
0
 40
0
 40
0
 40
1
 40
1
 40
1
 40
1
 10
101.120830
 20
221.331669
 30
0.0
 10
101.190730
 20
221.331669
 30
0.0
 10
101.247830
 20
221.274519
 30
0.0
 10
101.247830
 20
221.204669
 30
0.0
  0
SPLINE
  5
227
100
AcDbEntity
  8
Layer_2
 62
7
100
AcDbSpline
 70
8
 71
3
 72
8
 73
4
 74
0
 40
0
 40
0
 40
0
 40
0
 40
1
 40
1
 40
1
 40
1
 10
101.247830
 20
221.204669
 30
0.0
 10
101.247830
 20
221.134819
 30
0.0
 10
101.305030
 20
221.077669
 30
0.0
 10
101.374830
 20
221.077669
 30
0.0
  0
SPLINE
  5
228
100
AcDbEntity
  8
Layer_2
 62
7
100
AcDbSpline
 70
8
 71
3
 72
8
 73
4
 74
0
 40
0
 40
0
 40
0
 40
0
 40
1
 40
1
 40
1
 40
1
 10
101.374830
 20
221.077669
 30
0.0
 10
101.444730
 20
221.077669
 30
0.0
 10
101.501830
 20
221.020519
 30
0.0
 10
101.501830
 20
220.950669
 30
0.0
  0
SPLINE
  5
229
100
AcDbEntity
  8
Layer_2
 62
7
100
AcDbSpline
 70
8
 71
3
 72
8
 73
4
 74
0
 40
0
 40
0
 40
0
 40
0
 40
1
 40
1
 40
1
 40
1
 10
101.501830
 20
220.950669
 30
0.0
 10
101.501830
 20
220.880819
 30
0.0
 10
101.559030
 20
220.823669
 30
0.0
 10
101.628830
 20
220.823669
 30
0.0
  0
SPLINE
  5
22a
100
AcDbEntity
  8
Layer_2
 62
7
100
AcDbSpline
 70
8
 71
3
 72
8
 73
4
 74
0
 40
0
 40
0
 40
0
 40
0
 40
1
 40
1
 40
1
 40
1
 10
101.628830
 20
220.823669
 30
0.0
 10
101.698730
 20
220.823669
 30
0.0
 10
101.755830
 20
220.766519
 30
0.0
 10
101.755830
 20
220.696669
 30
0.0
  0
SPLINE
  5
22b
100
AcDbEntity
  8
Layer_2
 62
7
100
AcDbSpline
 70
8
 71
3
 72
8
 73
4
 74
0
 40
0
 40
0
 40
0
 40
0
 40
1
 40
1
 40
1
 40
1
 10
101.755830
 20
220.696669
 30
0.0
 10
101.755830
 20
220.626819
 30
0.0
 10
101.812930
 20
220.569669
 30
0.0
 10
101.882830
 20
220.569669
 30
0.0
  0
SPLINE
  5
22c
100
AcDbEntity
  8
Layer_2
 62
7
100
AcDbSpline
 70
8
 71
3
 72
8
 73
4
 74
0
 40
0
 40
0
 40
0
 40
0
 40
1
 40
1
 40
1
 40
1
 10
101.882830
 20
220.569669
 30
0.0
 10
101.952730
 20
220.569669
 30
0.0
 10
102.009830
 20
220.512519
 30
0.0
 10
102.009830
 20
220.442668
 30
0.0
  0
SPLINE
  5
22d
100
AcDbEntity
  8
Layer_2
 62
7
100
AcDbSpline
 70
8
 71
3
 72
8
 73
4
 74
0
 40
0
 40
0
 40
0
 40
0
 40
1
 40
1
 40
1
 40
1
 10
102.009830
 20
220.442668
 30
0.0
 10
102.009830
 20
220.372818
 30
0.0
 10
102.067030
 20
220.315668
 30
0.0
 10
102.136830
 20
220.315668
 30
0.0
  0
SPLINE
  5
22e
100
AcDbEntity
  8
Layer_2
 62
7
100
AcDbSpline
 70
8
 71
3
 72
8
 73
4
 74
0
 40
0
 40
0
 40
0
 40
0
 40
1
 40
1
 40
1
 40
1
 10
102.136830
 20
220.315668
 30
0.0
 10
102.206730
 20
220.315668
 30
0.0
 10
102.263830
 20
220.258518
 30
0.0
 10
102.263830
 20
220.188668
 30
0.0
  0
SPLINE
  5
22f
100
AcDbEntity
  8
Layer_2
 62
7
100
AcDbSpline
 70
8
 71
3
 72
8
 73
4
 74
0
 40
0
 40
0
 40
0
 40
0
 40
1
 40
1
 40
1
 40
1
 10
102.263830
 20
220.188668
 30
0.0
 10
102.263830
 20
220.118818
 30
0.0
 10
102.321030
 20
220.061668
 30
0.0
 10
102.390830
 20
220.061668
 30
0.0
  0
SPLINE
  5
230
100
AcDbEntity
  8
Layer_2
 62
7
100
AcDbSpline
 70
8
 71
3
 72
8
 73
4
 74
0
 40
0
 40
0
 40
0
 40
0
 40
1
 40
1
 40
1
 40
1
 10
102.390830
 20
220.061668
 30
0.0
 10
102.460730
 20
220.061668
 30
0.0
 10
102.517830
 20
220.004518
 30
0.0
 10
102.517830
 20
219.934668
 30
0.0
  0
SPLINE
  5
231
100
AcDbEntity
  8
Layer_2
 62
7
100
AcDbSpline
 70
8
 71
3
 72
8
 73
4
 74
0
 40
0
 40
0
 40
0
 40
0
 40
1
 40
1
 40
1
 40
1
 10
102.517830
 20
219.934668
 30
0.0
 10
102.517830
 20
219.864818
 30
0.0
 10
102.574930
 20
219.807668
 30
0.0
 10
102.644830
 20
219.807668
 30
0.0
  0
SPLINE
  5
232
100
AcDbEntity
  8
Layer_2
 62
7
100
AcDbSpline
 70
8
 71
3
 72
8
 73
4
 74
0
 40
0
 40
0
 40
0
 40
0
 40
1
 40
1
 40
1
 40
1
 10
102.644830
 20
219.807668
 30
0.0
 10
102.714730
 20
219.807668
 30
0.0
 10
102.771830
 20
219.750518
 30
0.0
 10
102.771830
 20
219.680668
 30
0.0
  0
SPLINE
  5
233
100
AcDbEntity
  8
Layer_2
 62
7
100
AcDbSpline
 70
8
 71
3
 72
8
 73
4
 74
0
 40
0
 40
0
 40
0
 40
0
 40
1
 40
1
 40
1
 40
1
 10
102.771830
 20
219.680668
 30
0.0
 10
102.771830
 20
219.610818
 30
0.0
 10
102.829030
 20
219.553668
 30
0.0
 10
102.898830
 20
219.553668
 30
0.0
  0
SPLINE
  5
234
100
AcDbEntity
  8
Layer_2
 62
7
100
AcDbSpline
 70
8
 71
3
 72
8
 73
4
 74
0
 40
0
 40
0
 40
0
 40
0
 40
1
 40
1
 40
1
 40
1
 10
102.898830
 20
219.553668
 30
0.0
 10
102.968730
 20
219.553668
 30
0.0
 10
103.025830
 20
219.496518
 30
0.0
 10
103.025830
 20
219.426668
 30
0.0
  0
SPLINE
  5
235
100
AcDbEntity
  8
Layer_2
 62
7
100
AcDbSpline
 70
8
 71
3
 72
8
 73
4
 74
0
 40
0
 40
0
 40
0
 40
0
 40
1
 40
1
 40
1
 40
1
 10
103.025830
 20
219.426668
 30
0.0
 10
103.025830
 20
219.356818
 30
0.0
 10
103.083030
 20
219.299668
 30
0.0
 10
103.152830
 20
219.299668
 30
0.0
  0
SPLINE
  5
236
100
AcDbEntity
  8
Layer_2
 62
7
100
AcDbSpline
 70
8
 71
3
 72
8
 73
4
 74
0
 40
0
 40
0
 40
0
 40
0
 40
1
 40
1
 40
1
 40
1
 10
103.152830
 20
219.299668
 30
0.0
 10
103.237530
 20
219.299668
 30
0.0
 10
103.279830
 20
219.214998
 30
0.0
 10
103.279830
 20
219.045668
 30
0.0
  0
SPLINE
  5
237
100
AcDbEntity
  8
Layer_2
 62
7
100
AcDbSpline
 70
8
 71
3
 72
8
 73
4
 74
0
 40
0
 40
0
 40
0
 40
0
 40
1
 40
1
 40
1
 40
1
 10
103.279830
 20
219.045668
 30
0.0
 10
103.279830
 20
218.876335
 30
0.0
 10
103.322130
 20
218.791668
 30
0.0
 10
103.406830
 20
218.791668
 30
0.0
  0
SPLINE
  5
238
100
AcDbEntity
  8
Layer_2
 62
7
100
AcDbSpline
 70
8
 71
3
 72
8
 73
4
 74
0
 40
0
 40
0
 40
0
 40
0
 40
1
 40
1
 40
1
 40
1
 10
103.406830
 20
218.791668
 30
0.0
 10
103.476730
 20
218.791668
 30
0.0
 10
103.533830
 20
218.734518
 30
0.0
 10
103.533830
 20
218.664668
 30
0.0
  0
SPLINE
  5
239
100
AcDbEntity
  8
Layer_2
 62
7
100
AcDbSpline
 70
8
 71
3
 72
8
 73
4
 74
0
 40
0
 40
0
 40
0
 40
0
 40
1
 40
1
 40
1
 40
1
 10
103.533830
 20
218.664668
 30
0.0
 10
103.533830
 20
218.594818
 30
0.0
 10
103.591030
 20
218.537668
 30
0.0
 10
103.660830
 20
218.537668
 30
0.0
  0
SPLINE
  5
23a
100
AcDbEntity
  8
Layer_2
 62
7
100
AcDbSpline
 70
8
 71
3
 72
8
 73
4
 74
0
 40
0
 40
0
 40
0
 40
0
 40
1
 40
1
 40
1
 40
1
 10
103.660830
 20
218.537668
 30
0.0
 10
103.739830
 20
218.537668
 30
0.0
 10
103.787830
 20
218.457708
 30
0.0
 10
103.787830
 20
218.326002
 30
0.0
  0
SPLINE
  5
23b
100
AcDbEntity
  8
Layer_2
 62
7
100
AcDbSpline
 70
8
 71
3
 72
8
 73
4
 74
0
 40
0
 40
0
 40
0
 40
0
 40
1
 40
1
 40
1
 40
1
 10
103.787830
 20
218.326002
 30
0.0
 10
103.787830
 20
218.194298
 30
0.0
 10
103.835830
 20
218.114335
 30
0.0
 10
103.914830
 20
218.114335
 30
0.0
  0
SPLINE
  5
23c
100
AcDbEntity
  8
Layer_2
 62
7
100
AcDbSpline
 70
8
 71
3
 72
8
 73
4
 74
0
 40
0
 40
0
 40
0
 40
0
 40
1
 40
1
 40
1
 40
1
 10
103.914830
 20
218.114335
 30
0.0
 10
103.984730
 20
218.114335
 30
0.0
 10
104.041830
 20
218.057185
 30
0.0
 10
104.041830
 20
217.987335
 30
0.0
  0
SPLINE
  5
23d
100
AcDbEntity
  8
Layer_2
 62
7
100
AcDbSpline
 70
8
 71
3
 72
8
 73
4
 74
0
 40
0
 40
0
 40
0
 40
0
 40
1
 40
1
 40
1
 40
1
 10
104.041830
 20
217.987335
 30
0.0
 10
104.041830
 20
217.917485
 30
0.0
 10
104.098930
 20
217.860335
 30
0.0
 10
104.168830
 20
217.860335
 30
0.0
  0
SPLINE
  5
23e
100
AcDbEntity
  8
Layer_2
 62
7
100
AcDbSpline
 70
8
 71
3
 72
8
 73
4
 74
0
 40
0
 40
0
 40
0
 40
0
 40
1
 40
1
 40
1
 40
1
 10
104.168830
 20
217.860335
 30
0.0
 10
104.253530
 20
217.860335
 30
0.0
 10
104.295830
 20
217.775665
 30
0.0
 10
104.295830
 20
217.606335
 30
0.0
  0
SPLINE
  5
23f
100
AcDbEntity
  8
Layer_2
 62
7
100
AcDbSpline
 70
8
 71
3
 72
8
 73
4
 74
0
 40
0
 40
0
 40
0
 40
0
 40
1
 40
1
 40
1
 40
1
 10
104.295830
 20
217.606335
 30
0.0
 10
104.295830
 20
217.437002
 30
0.0
 10
104.338130
 20
217.352335
 30
0.0
 10
104.422830
 20
217.352335
 30
0.0
  0
SPLINE
  5
240
100
AcDbEntity
  8
Layer_2
 62
7
100
AcDbSpline
 70
8
 71
3
 72
8
 73
4
 74
0
 40
0
 40
0
 40
0
 40
0
 40
1
 40
1
 40
1
 40
1
 10
104.422830
 20
217.352335
 30
0.0
 10
104.507530
 20
217.352335
 30
0.0
 10
104.549830
 20
217.267665
 30
0.0
 10
104.549830
 20
217.098335
 30
0.0
  0
SPLINE
  5
241
100
AcDbEntity
  8
Layer_2
 62
7
100
AcDbSpline
 70
8
 71
3
 72
8
 73
4
 74
0
 40
0
 40
0
 40
0
 40
0
 40
1
 40
1
 40
1
 40
1
 10
104.549830
 20
217.098335
 30
0.0
 10
104.549830
 20
216.929002
 30
0.0
 10
104.592130
 20
216.844335
 30
0.0
 10
104.676830
 20
216.844335
 30
0.0
  0
SPLINE
  5
242
100
AcDbEntity
  8
Layer_2
 62
7
100
AcDbSpline
 70
8
 71
3
 72
8
 73
4
 74
0
 40
0
 40
0
 40
0
 40
0
 40
1
 40
1
 40
1
 40
1
 10
104.676830
 20
216.844335
 30
0.0
 10
104.761530
 20
216.844335
 30
0.0
 10
104.803830
 20
216.759665
 30
0.0
 10
104.803830
 20
216.590335
 30
0.0
  0
SPLINE
  5
243
100
AcDbEntity
  8
Layer_2
 62
7
100
AcDbSpline
 70
8
 71
3
 72
8
 73
4
 74
0
 40
0
 40
0
 40
0
 40
0
 40
1
 40
1
 40
1
 40
1
 10
104.803830
 20
216.590335
 30
0.0
 10
104.803830
 20
216.421002
 30
0.0
 10
104.846130
 20
216.336335
 30
0.0
 10
104.930830
 20
216.336335
 30
0.0
  0
SPLINE
  5
244
100
AcDbEntity
  8
Layer_2
 62
7
100
AcDbSpline
 70
8
 71
3
 72
8
 73
4
 74
0
 40
0
 40
0
 40
0
 40
0
 40
1
 40
1
 40
1
 40
1
 10
104.930830
 20
216.336335
 30
0.0
 10
105.015530
 20
216.336335
 30
0.0
 10
105.057830
 20
216.251665
 30
0.0
 10
105.057830
 20
216.082335
 30
0.0
  0
SPLINE
  5
245
100
AcDbEntity
  8
Layer_2
 62
7
100
AcDbSpline
 70
8
 71
3
 72
8
 73
4
 74
0
 40
0
 40
0
 40
0
 40
0
 40
1
 40
1
 40
1
 40
1
 10
105.057830
 20
216.082335
 30
0.0
 10
105.057830
 20
215.913001
 30
0.0
 10
105.100130
 20
215.828335
 30
0.0
 10
105.184830
 20
215.828335
 30
0.0
  0
SPLINE
  5
246
100
AcDbEntity
  8
Layer_2
 62
7
100
AcDbSpline
 70
8
 71
3
 72
8
 73
4
 74
0
 40
0
 40
0
 40
0
 40
0
 40
1
 40
1
 40
1
 40
1
 10
105.184830
 20
215.828335
 30
0.0
 10
105.278930
 20
215.828335
 30
0.0
 10
105.311830
 20
215.729555
 30
0.0
 10
105.311830
 20
215.447335
 30
0.0
  0
SPLINE
  5
247
100
AcDbEntity
  8
Layer_2
 62
7
100
AcDbSpline
 70
8
 71
3
 72
8
 73
4
 74
0
 40
0
 40
0
 40
0
 40
0
 40
1
 40
1
 40
1
 40
1
 10
105.311830
 20
215.447335
 30
0.0
 10
105.311830
 20
215.165113
 30
0.0
 10
105.344730
 20
215.066335
 30
0.0
 10
105.438830
 20
215.066335
 30
0.0
  0
SPLINE
  5
248
100
AcDbEntity
  8
Layer_2
 62
7
100
AcDbSpline
 70
8
 71
3
 72
8
 73
4
 74
0
 40
0
 40
0
 40
0
 40
0
 40
1
 40
1
 40
1
 40
1
 10
105.438830
 20
215.066335
 30
0.0
 10
105.532930
 20
215.066335
 30
0.0
 10
105.565830
 20
214.967555
 30
0.0
 10
105.565830
 20
214.685335
 30
0.0
  0
SPLINE
  5
249
100
AcDbEntity
  8
Layer_2
 62
7
100
AcDbSpline
 70
8
 71
3
 72
8
 73
4
 74
0
 40
0
 40
0
 40
0
 40
0
 40
1
 40
1
 40
1
 40
1
 10
105.565830
 20
214.685335
 30
0.0
 10
105.565830
 20
214.403113
 30
0.0
 10
105.598730
 20
214.304335
 30
0.0
 10
105.692830
 20
214.304335
 30
0.0
  0
SPLINE
  5
24a
100
AcDbEntity
  8
Layer_2
 62
7
100
AcDbSpline
 70
8
 71
3
 72
8
 73
4
 74
0
 40
0
 40
0
 40
0
 40
0
 40
1
 40
1
 40
1
 40
1
 10
105.692830
 20
214.304335
 30
0.0
 10
105.791630
 20
214.304335
 30
0.0
 10
105.819830
 20
214.191446
 30
0.0
 10
105.819830
 20
213.796335
 30
0.0
  0
SPLINE
  5
24b
100
AcDbEntity
  8
Layer_2
 62
7
100
AcDbSpline
 70
8
 71
3
 72
8
 73
4
 74
0
 40
0
 40
0
 40
0
 40
0
 40
1
 40
1
 40
1
 40
1
 10
105.819830
 20
213.796335
 30
0.0
 10
105.819830
 20
213.514113
 30
0.0
 10
105.857430
 20
213.288335
 30
0.0
 10
105.904530
 20
213.288335
 30
0.0
  0
SPLINE
  5
24c
100
AcDbEntity
  8
Layer_2
 62
7
100
AcDbSpline
 70
8
 71
3
 72
8
 73
4
 74
0
 40
0
 40
0
 40
0
 40
0
 40
1
 40
1
 40
1
 40
1
 10
105.904530
 20
213.288335
 30
0.0
 10
105.958430
 20
213.288335
 30
0.0
 10
105.989230
 20
212.611001
 30
0.0
 10
105.989230
 20
211.425668
 30
0.0
  0
SPLINE
  5
24d
100
AcDbEntity
  8
Layer_2
 62
7
100
AcDbSpline
 70
8
 71
3
 72
8
 73
4
 74
0
 40
0
 40
0
 40
0
 40
0
 40
1
 40
1
 40
1
 40
1
 10
105.989230
 20
211.425668
 30
0.0
 10
105.989230
 20
210.240334
 30
0.0
 10
105.958430
 20
209.563001
 30
0.0
 10
105.904530
 20
209.563001
 30
0.0
  0
SPLINE
  5
24e
100
AcDbEntity
  8
Layer_2
 62
7
100
AcDbSpline
 70
8
 71
3
 72
8
 73
4
 74
0
 40
0
 40
0
 40
0
 40
0
 40
1
 40
1
 40
1
 40
1
 10
105.904530
 20
209.563001
 30
0.0
 10
105.857530
 20
209.563001
 30
0.0
 10
105.819830
 20
209.337223
 30
0.0
 10
105.819830
 20
209.055001
 30
0.0
  0
LWPOLYLINE
  5
24f
100
AcDbEntity
  8
Layer_2
 62
7
100
AcDbPolyline
 90
3
 70
0
 10
99.300502
 20
224.422009
 30
0.0
 10
99.300502
 20
224.041009
 30
0.0
 10
97.776502
 20
224.041009
 30
0.0
  0
SPLINE
  5
250
100
AcDbEntity
  8
Layer_2
 62
7
100
AcDbSpline
 70
8
 71
3
 72
8
 73
4
 74
0
 40
0
 40
0
 40
0
 40
0
 40
1
 40
1
 40
1
 40
1
 10
105.565830
 20
208.547001
 30
0.0
 10
105.396500
 20
208.547001
 30
0.0
 10
105.311830
 20
208.504671
 30
0.0
 10
105.311830
 20
208.420001
 30
0.0
  0
SPLINE
  5
251
100
AcDbEntity
  8
Layer_2
 62
7
100
AcDbSpline
 70
8
 71
3
 72
8
 73
4
 74
0
 40
0
 40
0
 40
0
 40
0
 40
1
 40
1
 40
1
 40
1
 10
105.311830
 20
208.420001
 30
0.0
 10
105.311830
 20
208.350151
 30
0.0
 10
105.254630
 20
208.293001
 30
0.0
 10
105.184830
 20
208.293001
 30
0.0
  0
SPLINE
  5
252
100
AcDbEntity
  8
Layer_2
 62
7
100
AcDbSpline
 70
8
 71
3
 72
8
 73
4
 74
0
 40
0
 40
0
 40
0
 40
0
 40
1
 40
1
 40
1
 40
1
 10
105.184830
 20
208.293001
 30
0.0
 10
105.114930
 20
208.293001
 30
0.0
 10
105.057830
 20
208.350151
 30
0.0
 10
105.057830
 20
208.420001
 30
0.0
  0
SPLINE
  5
253
100
AcDbEntity
  8
Layer_2
 62
7
100
AcDbSpline
 70
8
 71
3
 72
8
 73
4
 74
0
 40
0
 40
0
 40
0
 40
0
 40
1
 40
1
 40
1
 40
1
 10
105.057830
 20
208.420001
 30
0.0
 10
105.057830
 20
208.489851
 30
0.0
 10
105.000730
 20
208.547001
 30
0.0
 10
104.930830
 20
208.547001
 30
0.0
  0
SPLINE
  5
254
100
AcDbEntity
  8
Layer_2
 62
7
100
AcDbSpline
 70
8
 71
3
 72
8
 73
4
 74
0
 40
0
 40
0
 40
0
 40
0
 40
1
 40
1
 40
1
 40
1
 10
104.930830
 20
208.547001
 30
0.0
 10
104.860930
 20
208.547001
 30
0.0
 10
104.803830
 20
208.604151
 30
0.0
 10
104.803830
 20
208.674001
 30
0.0
  0
SPLINE
  5
255
100
AcDbEntity
  8
Layer_2
 62
7
100
AcDbSpline
 70
8
 71
3
 72
8
 73
4
 74
0
 40
0
 40
0
 40
0
 40
0
 40
1
 40
1
 40
1
 40
1
 10
104.803830
 20
208.674001
 30
0.0
 10
104.803830
 20
208.758671
 30
0.0
 10
104.719130
 20
208.801001
 30
0.0
 10
104.549830
 20
208.801001
 30
0.0
  0
SPLINE
  5
256
100
AcDbEntity
  8
Layer_2
 62
7
100
AcDbSpline
 70
8
 71
3
 72
8
 73
4
 74
0
 40
0
 40
0
 40
0
 40
0
 40
1
 40
1
 40
1
 40
1
 10
104.549830
 20
208.801001
 30
0.0
 10
104.380500
 20
208.801001
 30
0.0
 10
104.295830
 20
208.843331
 30
0.0
 10
104.295830
 20
208.928001
 30
0.0
  0
SPLINE
  5
257
100
AcDbEntity
  8
Layer_2
 62
7
100
AcDbSpline
 70
8
 71
3
 72
8
 73
4
 74
0
 40
0
 40
0
 40
0
 40
0
 40
1
 40
1
 40
1
 40
1
 10
104.295830
 20
208.928001
 30
0.0
 10
104.295830
 20
208.997851
 30
0.0
 10
104.238730
 20
209.055001
 30
0.0
 10
104.168830
 20
209.055001
 30
0.0
  0
SPLINE
  5
258
100
AcDbEntity
  8
Layer_2
 62
7
100
AcDbSpline
 70
8
 71
3
 72
8
 73
4
 74
0
 40
0
 40
0
 40
0
 40
0
 40
1
 40
1
 40
1
 40
1
 10
104.168830
 20
209.055001
 30
0.0
 10
104.084130
 20
209.055001
 30
0.0
 10
104.041830
 20
209.139671
 30
0.0
 10
104.041830
 20
209.309001
 30
0.0
  0
SPLINE
  5
259
100
AcDbEntity
  8
Layer_2
 62
7
100
AcDbSpline
 70
8
 71
3
 72
8
 73
4
 74
0
 40
0
 40
0
 40
0
 40
0
 40
1
 40
1
 40
1
 40
1
 10
104.041830
 20
209.309001
 30
0.0
 10
104.041830
 20
209.478334
 30
0.0
 10
103.999530
 20
209.563001
 30
0.0
 10
103.914830
 20
209.563001
 30
0.0
  0
SPLINE
  5
25a
100
AcDbEntity
  8
Layer_2
 62
7
100
AcDbSpline
 70
8
 71
3
 72
8
 73
4
 74
0
 40
0
 40
0
 40
0
 40
0
 40
1
 40
1
 40
1
 40
1
 10
103.914830
 20
209.563001
 30
0.0
 10
103.845030
 20
209.563001
 30
0.0
 10
103.787830
 20
209.620151
 30
0.0
 10
103.787830
 20
209.690001
 30
0.0
  0
SPLINE
  5
25b
100
AcDbEntity
  8
Layer_2
 62
7
100
AcDbSpline
 70
8
 71
3
 72
8
 73
4
 74
0
 40
0
 40
0
 40
0
 40
0
 40
1
 40
1
 40
1
 40
1
 10
103.787830
 20
209.690001
 30
0.0
 10
103.787830
 20
209.759851
 30
0.0
 10
103.730730
 20
209.817001
 30
0.0
 10
103.660830
 20
209.817001
 30
0.0
  0
SPLINE
  5
25c
100
AcDbEntity
  8
Layer_2
 62
7
100
AcDbSpline
 70
8
 71
3
 72
8
 73
4
 74
0
 40
0
 40
0
 40
0
 40
0
 40
1
 40
1
 40
1
 40
1
 10
103.660830
 20
209.817001
 30
0.0
 10
103.590930
 20
209.817001
 30
0.0
 10
103.533830
 20
209.874151
 30
0.0
 10
103.533830
 20
209.944001
 30
0.0
  0
SPLINE
  5
25d
100
AcDbEntity
  8
Layer_2
 62
7
100
AcDbSpline
 70
8
 71
3
 72
8
 73
4
 74
0
 40
0
 40
0
 40
0
 40
0
 40
1
 40
1
 40
1
 40
1
 10
103.533830
 20
209.944001
 30
0.0
 10
103.533830
 20
210.013851
 30
0.0
 10
103.476730
 20
210.071001
 30
0.0
 10
103.406830
 20
210.071001
 30
0.0
  0
SPLINE
  5
25e
100
AcDbEntity
  8
Layer_2
 62
7
100
AcDbSpline
 70
8
 71
3
 72
8
 73
4
 74
0
 40
0
 40
0
 40
0
 40
0
 40
1
 40
1
 40
1
 40
1
 10
103.406830
 20
210.071001
 30
0.0
 10
103.336930
 20
210.071001
 30
0.0
 10
103.279830
 20
210.128151
 30
0.0
 10
103.279830
 20
210.198001
 30
0.0
  0
SPLINE
  5
25f
100
AcDbEntity
  8
Layer_2
 62
7
100
AcDbSpline
 70
8
 71
3
 72
8
 73
4
 74
0
 40
0
 40
0
 40
0
 40
0
 40
1
 40
1
 40
1
 40
1
 10
103.279830
 20
210.198001
 30
0.0
 10
103.279830
 20
210.267851
 30
0.0
 10
103.222630
 20
210.325001
 30
0.0
 10
103.152830
 20
210.325001
 30
0.0
  0
SPLINE
  5
260
100
AcDbEntity
  8
Layer_2
 62
7
100
AcDbSpline
 70
8
 71
3
 72
8
 73
4
 74
0
 40
0
 40
0
 40
0
 40
0
 40
1
 40
1
 40
1
 40
1
 10
103.152830
 20
210.325001
 30
0.0
 10
103.083030
 20
210.325001
 30
0.0
 10
103.025830
 20
210.382151
 30
0.0
 10
103.025830
 20
210.452001
 30
0.0
  0
SPLINE
  5
261
100
AcDbEntity
  8
Layer_2
 62
7
100
AcDbSpline
 70
8
 71
3
 72
8
 73
4
 74
0
 40
0
 40
0
 40
0
 40
0
 40
1
 40
1
 40
1
 40
1
 10
103.025830
 20
210.452001
 30
0.0
 10
103.025830
 20
210.521851
 30
0.0
 10
102.968730
 20
210.579001
 30
0.0
 10
102.898830
 20
210.579001
 30
0.0
  0
SPLINE
  5
262
100
AcDbEntity
  8
Layer_2
 62
7
100
AcDbSpline
 70
8
 71
3
 72
8
 73
4
 74
0
 40
0
 40
0
 40
0
 40
0
 40
1
 40
1
 40
1
 40
1
 10
102.898830
 20
210.579001
 30
0.0
 10
102.814130
 20
210.579001
 30
0.0
 10
102.771830
 20
210.663671
 30
0.0
 10
102.771830
 20
210.833001
 30
0.0
  0
SPLINE
  5
263
100
AcDbEntity
  8
Layer_2
 62
7
100
AcDbSpline
 70
8
 71
3
 72
8
 73
4
 74
0
 40
0
 40
0
 40
0
 40
0
 40
1
 40
1
 40
1
 40
1
 10
102.771830
 20
210.833001
 30
0.0
 10
102.771830
 20
211.058779
 30
0.0
 10
102.743630
 20
211.087001
 30
0.0
 10
102.517830
 20
211.087001
 30
0.0
  0
SPLINE
  5
264
100
AcDbEntity
  8
Layer_2
 62
7
100
AcDbSpline
 70
8
 71
3
 72
8
 73
4
 74
0
 40
0
 40
0
 40
0
 40
0
 40
1
 40
1
 40
1
 40
1
 10
102.517830
 20
211.087001
 30
0.0
 10
102.348500
 20
211.087001
 30
0.0
 10
102.263830
 20
211.129331
 30
0.0
 10
102.263830
 20
211.214001
 30
0.0
  0
SPLINE
  5
265
100
AcDbEntity
  8
Layer_2
 62
7
100
AcDbSpline
 70
8
 71
3
 72
8
 73
4
 74
0
 40
0
 40
0
 40
0
 40
0
 40
1
 40
1
 40
1
 40
1
 10
102.263830
 20
211.214001
 30
0.0
 10
102.263830
 20
211.283851
 30
0.0
 10
102.206730
 20
211.341001
 30
0.0
 10
102.136830
 20
211.341001
 30
0.0
  0
SPLINE
  5
266
100
AcDbEntity
  8
Layer_2
 62
7
100
AcDbSpline
 70
8
 71
3
 72
8
 73
4
 74
0
 40
0
 40
0
 40
0
 40
0
 40
1
 40
1
 40
1
 40
1
 10
102.136830
 20
211.341001
 30
0.0
 10
102.052130
 20
211.341001
 30
0.0
 10
102.009830
 20
211.256331
 30
0.0
 10
102.009830
 20
211.087001
 30
0.0
  0
SPLINE
  5
267
100
AcDbEntity
  8
Layer_2
 62
7
100
AcDbSpline
 70
8
 71
3
 72
8
 73
4
 74
0
 40
0
 40
0
 40
0
 40
0
 40
1
 40
1
 40
1
 40
1
 10
102.009830
 20
211.087001
 30
0.0
 10
102.009830
 20
210.917668
 30
0.0
 10
102.052130
 20
210.833001
 30
0.0
 10
102.136830
 20
210.833001
 30
0.0
  0
SPLINE
  5
268
100
AcDbEntity
  8
Layer_2
 62
7
100
AcDbSpline
 70
8
 71
3
 72
8
 73
4
 74
0
 40
0
 40
0
 40
0
 40
0
 40
1
 40
1
 40
1
 40
1
 10
102.136830
 20
210.833001
 30
0.0
 10
102.221530
 20
210.833001
 30
0.0
 10
102.263830
 20
210.748331
 30
0.0
 10
102.263830
 20
210.579001
 30
0.0
  0
SPLINE
  5
269
100
AcDbEntity
  8
Layer_2
 62
7
100
AcDbSpline
 70
8
 71
3
 72
8
 73
4
 74
0
 40
0
 40
0
 40
0
 40
0
 40
1
 40
1
 40
1
 40
1
 10
102.263830
 20
210.579001
 30
0.0
 10
102.263830
 20
210.409668
 30
0.0
 10
102.306130
 20
210.325001
 30
0.0
 10
102.390830
 20
210.325001
 30
0.0
  0
SPLINE
  5
26a
100
AcDbEntity
  8
Layer_2
 62
7
100
AcDbSpline
 70
8
 71
3
 72
8
 73
4
 74
0
 40
0
 40
0
 40
0
 40
0
 40
1
 40
1
 40
1
 40
1
 10
102.390830
 20
210.325001
 30
0.0
 10
102.475530
 20
210.325001
 30
0.0
 10
102.517830
 20
210.240331
 30
0.0
 10
102.517830
 20
210.071001
 30
0.0
  0
SPLINE
  5
26b
100
AcDbEntity
  8
Layer_2
 62
7
100
AcDbSpline
 70
8
 71
3
 72
8
 73
4
 74
0
 40
0
 40
0
 40
0
 40
0
 40
1
 40
1
 40
1
 40
1
 10
102.517830
 20
210.071001
 30
0.0
 10
102.517830
 20
209.901668
 30
0.0
 10
102.560130
 20
209.817001
 30
0.0
 10
102.644830
 20
209.817001
 30
0.0
  0
SPLINE
  5
26c
100
AcDbEntity
  8
Layer_2
 62
7
100
AcDbSpline
 70
8
 71
3
 72
8
 73
4
 74
0
 40
0
 40
0
 40
0
 40
0
 40
1
 40
1
 40
1
 40
1
 10
102.644830
 20
209.817001
 30
0.0
 10
102.714730
 20
209.817001
 30
0.0
 10
102.771830
 20
209.759851
 30
0.0
 10
102.771830
 20
209.690001
 30
0.0
  0
SPLINE
  5
26d
100
AcDbEntity
  8
Layer_2
 62
7
100
AcDbSpline
 70
8
 71
3
 72
8
 73
4
 74
0
 40
0
 40
0
 40
0
 40
0
 40
1
 40
1
 40
1
 40
1
 10
102.771830
 20
209.690001
 30
0.0
 10
102.771830
 20
209.620151
 30
0.0
 10
102.829030
 20
209.563001
 30
0.0
 10
102.898830
 20
209.563001
 30
0.0
  0
SPLINE
  5
26e
100
AcDbEntity
  8
Layer_2
 62
7
100
AcDbSpline
 70
8
 71
3
 72
8
 73
4
 74
0
 40
0
 40
0
 40
0
 40
0
 40
1
 40
1
 40
1
 40
1
 10
102.898830
 20
209.563001
 30
0.0
 10
102.983530
 20
209.563001
 30
0.0
 10
103.025830
 20
209.478331
 30
0.0
 10
103.025830
 20
209.309001
 30
0.0
  0
SPLINE
  5
26f
100
AcDbEntity
  8
Layer_2
 62
7
100
AcDbSpline
 70
8
 71
3
 72
8
 73
4
 74
0
 40
0
 40
0
 40
0
 40
0
 40
1
 40
1
 40
1
 40
1
 10
103.025830
 20
209.309001
 30
0.0
 10
103.025830
 20
209.139668
 30
0.0
 10
103.068130
 20
209.055001
 30
0.0
 10
103.152830
 20
209.055001
 30
0.0
  0
SPLINE
  5
270
100
AcDbEntity
  8
Layer_2
 62
7
100
AcDbSpline
 70
8
 71
3
 72
8
 73
4
 74
0
 40
0
 40
0
 40
0
 40
0
 40
1
 40
1
 40
1
 40
1
 10
103.152830
 20
209.055001
 30
0.0
 10
103.222730
 20
209.055001
 30
0.0
 10
103.279830
 20
208.997851
 30
0.0
 10
103.279830
 20
208.928001
 30
0.0
  0
SPLINE
  5
271
100
AcDbEntity
  8
Layer_2
 62
7
100
AcDbSpline
 70
8
 71
3
 72
8
 73
4
 74
0
 40
0
 40
0
 40
0
 40
0
 40
1
 40
1
 40
1
 40
1
 10
103.279830
 20
208.928001
 30
0.0
 10
103.279830
 20
208.858151
 30
0.0
 10
103.336930
 20
208.801001
 30
0.0
 10
103.406830
 20
208.801001
 30
0.0
  0
SPLINE
  5
272
100
AcDbEntity
  8
Layer_2
 62
7
100
AcDbSpline
 70
8
 71
3
 72
8
 73
4
 74
0
 40
0
 40
0
 40
0
 40
0
 40
1
 40
1
 40
1
 40
1
 10
103.406830
 20
208.801001
 30
0.0
 10
103.476730
 20
208.801001
 30
0.0
 10
103.533830
 20
208.743851
 30
0.0
 10
103.533830
 20
208.674001
 30
0.0
  0
SPLINE
  5
273
100
AcDbEntity
  8
Layer_2
 62
7
100
AcDbSpline
 70
8
 71
3
 72
8
 73
4
 74
0
 40
0
 40
0
 40
0
 40
0
 40
1
 40
1
 40
1
 40
1
 10
103.533830
 20
208.674001
 30
0.0
 10
103.533830
 20
208.604151
 30
0.0
 10
103.591030
 20
208.547001
 30
0.0
 10
103.660830
 20
208.547001
 30
0.0
  0
SPLINE
  5
274
100
AcDbEntity
  8
Layer_2
 62
7
100
AcDbSpline
 70
8
 71
3
 72
8
 73
4
 74
0
 40
0
 40
0
 40
0
 40
0
 40
1
 40
1
 40
1
 40
1
 10
103.660830
 20
208.547001
 30
0.0
 10
103.745530
 20
208.547001
 30
0.0
 10
103.787830
 20
208.462331
 30
0.0
 10
103.787830
 20
208.293001
 30
0.0
  0
SPLINE
  5
275
100
AcDbEntity
  8
Layer_2
 62
7
100
AcDbSpline
 70
8
 71
3
 72
8
 73
4
 74
0
 40
0
 40
0
 40
0
 40
0
 40
1
 40
1
 40
1
 40
1
 10
103.787830
 20
208.293001
 30
0.0
 10
103.787830
 20
208.123668
 30
0.0
 10
103.830130
 20
208.039001
 30
0.0
 10
103.914830
 20
208.039001
 30
0.0
  0
SPLINE
  5
276
100
AcDbEntity
  8
Layer_2
 62
7
100
AcDbSpline
 70
8
 71
3
 72
8
 73
4
 74
0
 40
0
 40
0
 40
0
 40
0
 40
1
 40
1
 40
1
 40
1
 10
103.914830
 20
208.039001
 30
0.0
 10
103.984730
 20
208.039001
 30
0.0
 10
104.041830
 20
207.981851
 30
0.0
 10
104.041830
 20
207.912001
 30
0.0
  0
SPLINE
  5
277
100
AcDbEntity
  8
Layer_2
 62
7
100
AcDbSpline
 70
8
 71
3
 72
8
 73
4
 74
0
 40
0
 40
0
 40
0
 40
0
 40
1
 40
1
 40
1
 40
1
 10
104.041830
 20
207.912001
 30
0.0
 10
104.041830
 20
207.842151
 30
0.0
 10
104.098930
 20
207.785001
 30
0.0
 10
104.168830
 20
207.785001
 30
0.0
  0
SPLINE
  5
278
100
AcDbEntity
  8
Layer_2
 62
7
100
AcDbSpline
 70
8
 71
3
 72
8
 73
4
 74
0
 40
0
 40
0
 40
0
 40
0
 40
1
 40
1
 40
1
 40
1
 10
104.168830
 20
207.785001
 30
0.0
 10
104.238730
 20
207.785001
 30
0.0
 10
104.295830
 20
207.746901
 30
0.0
 10
104.295830
 20
207.700331
 30
0.0
  0
SPLINE
  5
279
100
AcDbEntity
  8
Layer_2
 62
7
100
AcDbSpline
 70
8
 71
3
 72
8
 73
4
 74
0
 40
0
 40
0
 40
0
 40
0
 40
1
 40
1
 40
1
 40
1
 10
104.295830
 20
207.700331
 30
0.0
 10
104.295830
 20
207.653761
 30
0.0
 10
104.410130
 20
207.615661
 30
0.0
 10
104.549830
 20
207.615661
 30
0.0
  0
SPLINE
  5
27a
100
AcDbEntity
  8
Layer_2
 62
7
100
AcDbSpline
 70
8
 71
3
 72
8
 73
4
 74
0
 40
0
 40
0
 40
0
 40
0
 40
1
 40
1
 40
1
 40
1
 10
104.549830
 20
207.615661
 30
0.0
 10
104.719170
 20
207.615661
 30
0.0
 10
104.803830
 20
207.573331
 30
0.0
 10
104.803830
 20
207.488661
 30
0.0
  0
SPLINE
  5
27b
100
AcDbEntity
  8
Layer_2
 62
7
100
AcDbSpline
 70
8
 71
3
 72
8
 73
4
 74
0
 40
0
 40
0
 40
0
 40
0
 40
1
 40
1
 40
1
 40
1
 10
104.803830
 20
207.488661
 30
0.0
 10
104.803830
 20
207.418811
 30
0.0
 10
104.860930
 20
207.361660
 30
0.0
 10
104.930830
 20
207.361660
 30
0.0
  0
SPLINE
  5
27c
100
AcDbEntity
  8
Layer_2
 62
7
100
AcDbSpline
 70
8
 71
3
 72
8
 73
4
 74
0
 40
0
 40
0
 40
0
 40
0
 40
1
 40
1
 40
1
 40
1
 10
104.930830
 20
207.361660
 30
0.0
 10
105.000730
 20
207.361660
 30
0.0
 10
105.057830
 20
207.304510
 30
0.0
 10
105.057830
 20
207.234660
 30
0.0
  0
SPLINE
  5
27d
100
AcDbEntity
  8
Layer_2
 62
7
100
AcDbSpline
 70
8
 71
3
 72
8
 73
4
 74
0
 40
0
 40
0
 40
0
 40
0
 40
1
 40
1
 40
1
 40
1
 10
105.057830
 20
207.234660
 30
0.0
 10
105.057830
 20
207.149990
 30
0.0
 10
105.142530
 20
207.107660
 30
0.0
 10
105.311830
 20
207.107660
 30
0.0
  0
SPLINE
  5
27e
100
AcDbEntity
  8
Layer_2
 62
7
100
AcDbSpline
 70
8
 71
3
 72
8
 73
4
 74
0
 40
0
 40
0
 40
0
 40
0
 40
1
 40
1
 40
1
 40
1
 10
105.311830
 20
207.107660
 30
0.0
 10
105.481170
 20
207.107660
 30
0.0
 10
105.565830
 20
207.065330
 30
0.0
 10
105.565830
 20
206.980660
 30
0.0
  0
SPLINE
  5
27f
100
AcDbEntity
  8
Layer_2
 62
7
100
AcDbSpline
 70
8
 71
3
 72
8
 73
4
 74
0
 40
0
 40
0
 40
0
 40
0
 40
1
 40
1
 40
1
 40
1
 10
105.565830
 20
206.980660
 30
0.0
 10
105.565830
 20
206.910810
 30
0.0
 10
105.622930
 20
206.853660
 30
0.0
 10
105.692830
 20
206.853660
 30
0.0
  0
SPLINE
  5
280
100
AcDbEntity
  8
Layer_2
 62
7
100
AcDbSpline
 70
8
 71
3
 72
8
 73
4
 74
0
 40
0
 40
0
 40
0
 40
0
 40
1
 40
1
 40
1
 40
1
 10
105.692830
 20
206.853660
 30
0.0
 10
105.762730
 20
206.853660
 30
0.0
 10
105.819830
 20
206.796510
 30
0.0
 10
105.819830
 20
206.726660
 30
0.0
  0
SPLINE
  5
281
100
AcDbEntity
  8
Layer_2
 62
7
100
AcDbSpline
 70
8
 71
3
 72
8
 73
4
 74
0
 40
0
 40
0
 40
0
 40
0
 40
1
 40
1
 40
1
 40
1
 10
105.819830
 20
206.726660
 30
0.0
 10
105.819830
 20
206.656810
 30
0.0
 10
105.857930
 20
206.599660
 30
0.0
 10
105.904530
 20
206.599660
 30
0.0
  0
SPLINE
  5
282
100
AcDbEntity
  8
Layer_2
 62
7
100
AcDbSpline
 70
8
 71
3
 72
8
 73
4
 74
0
 40
0
 40
0
 40
0
 40
0
 40
1
 40
1
 40
1
 40
1
 10
105.904530
 20
206.599660
 30
0.0
 10
105.951130
 20
206.599660
 30
0.0
 10
105.989230
 20
206.542510
 30
0.0
 10
105.989230
 20
206.472660
 30
0.0
  0
SPLINE
  5
283
100
AcDbEntity
  8
Layer_2
 62
7
100
AcDbSpline
 70
8
 71
3
 72
8
 73
4
 74
0
 40
0
 40
0
 40
0
 40
0
 40
1
 40
1
 40
1
 40
1
 10
105.989230
 20
206.472660
 30
0.0
 10
105.989230
 20
206.402810
 30
0.0
 10
105.951130
 20
206.345660
 30
0.0
 10
105.904530
 20
206.345660
 30
0.0
  0
SPLINE
  5
284
100
AcDbEntity
  8
Layer_2
 62
7
100
AcDbSpline
 70
8
 71
3
 72
8
 73
4
 74
0
 40
0
 40
0
 40
0
 40
0
 40
1
 40
1
 40
1
 40
1
 10
105.904530
 20
206.345660
 30
0.0
 10
105.857930
 20
206.345660
 30
0.0
 10
105.819830
 20
206.231360
 30
0.0
 10
105.819830
 20
206.091660
 30
0.0
  0
SPLINE
  5
285
100
AcDbEntity
  8
Layer_2
 62
7
100
AcDbSpline
 70
8
 71
3
 72
8
 73
4
 74
0
 40
0
 40
0
 40
0
 40
0
 40
1
 40
1
 40
1
 40
1
 10
105.819830
 20
206.091660
 30
0.0
 10
105.819830
 20
205.922327
 30
0.0
 10
105.777530
 20
205.837660
 30
0.0
 10
105.692830
 20
205.837660
 30
0.0
  0
SPLINE
  5
286
100
AcDbEntity
  8
Layer_2
 62
7
100
AcDbSpline
 70
8
 71
3
 72
8
 73
4
 74
0
 40
0
 40
0
 40
0
 40
0
 40
1
 40
1
 40
1
 40
1
 10
105.692830
 20
205.837660
 30
0.0
 10
105.622930
 20
205.837660
 30
0.0
 10
105.565830
 20
205.780510
 30
0.0
 10
105.565830
 20
205.710660
 30
0.0
  0
SPLINE
  5
287
100
AcDbEntity
  8
Layer_2
 62
7
100
AcDbSpline
 70
8
 71
3
 72
8
 73
4
 74
0
 40
0
 40
0
 40
0
 40
0
 40
1
 40
1
 40
1
 40
1
 10
105.565830
 20
205.710660
 30
0.0
 10
105.565830
 20
205.640810
 30
0.0
 10
105.508630
 20
205.583660
 30
0.0
 10
105.438830
 20
205.583660
 30
0.0
  0
SPLINE
  5
288
100
AcDbEntity
  8
Layer_2
 62
7
100
AcDbSpline
 70
8
 71
3
 72
8
 73
4
 74
0
 40
0
 40
0
 40
0
 40
0
 40
1
 40
1
 40
1
 40
1
 10
105.438830
 20
205.583660
 30
0.0
 10
105.354130
 20
205.583660
 30
0.0
 10
105.311830
 20
205.498990
 30
0.0
 10
105.311830
 20
205.329660
 30
0.0
  0
SPLINE
  5
289
100
AcDbEntity
  8
Layer_2
 62
7
100
AcDbSpline
 70
8
 71
3
 72
8
 73
4
 74
0
 40
0
 40
0
 40
0
 40
0
 40
1
 40
1
 40
1
 40
1
 10
105.311830
 20
205.329660
 30
0.0
 10
105.311830
 20
205.160327
 30
0.0
 10
105.269530
 20
205.075660
 30
0.0
 10
105.184830
 20
205.075660
 30
0.0
  0
SPLINE
  5
28a
100
AcDbEntity
  8
Layer_2
 62
7
100
AcDbSpline
 70
8
 71
3
 72
8
 73
4
 74
0
 40
0
 40
0
 40
0
 40
0
 40
1
 40
1
 40
1
 40
1
 10
105.184830
 20
205.075660
 30
0.0
 10
105.114930
 20
205.075660
 30
0.0
 10
105.057830
 20
205.018510
 30
0.0
 10
105.057830
 20
204.948660
 30
0.0
  0
SPLINE
  5
28b
100
AcDbEntity
  8
Layer_2
 62
7
100
AcDbSpline
 70
8
 71
3
 72
8
 73
4
 74
0
 40
0
 40
0
 40
0
 40
0
 40
1
 40
1
 40
1
 40
1
 10
105.057830
 20
204.948660
 30
0.0
 10
105.057830
 20
204.878810
 30
0.0
 10
105.000730
 20
204.821660
 30
0.0
 10
104.930830
 20
204.821660
 30
0.0
  0
SPLINE
  5
28c
100
AcDbEntity
  8
Layer_2
 62
7
100
AcDbSpline
 70
8
 71
3
 72
8
 73
4
 74
0
 40
0
 40
0
 40
0
 40
0
 40
1
 40
1
 40
1
 40
1
 10
104.930830
 20
204.821660
 30
0.0
 10
104.860930
 20
204.821660
 30
0.0
 10
104.803830
 20
204.764510
 30
0.0
 10
104.803830
 20
204.694660
 30
0.0
  0
SPLINE
  5
28d
100
AcDbEntity
  8
Layer_2
 62
7
100
AcDbSpline
 70
8
 71
3
 72
8
 73
4
 74
0
 40
0
 40
0
 40
0
 40
0
 40
1
 40
1
 40
1
 40
1
 10
104.803830
 20
204.694660
 30
0.0
 10
104.803830
 20
204.624810
 30
0.0
 10
104.746630
 20
204.567660
 30
0.0
 10
104.676830
 20
204.567660
 30
0.0
  0
SPLINE
  5
28e
100
AcDbEntity
  8
Layer_2
 62
7
100
AcDbSpline
 70
8
 71
3
 72
8
 73
4
 74
0
 40
0
 40
0
 40
0
 40
0
 40
1
 40
1
 40
1
 40
1
 10
104.676830
 20
204.567660
 30
0.0
 10
104.606930
 20
204.567660
 30
0.0
 10
104.549830
 20
204.510510
 30
0.0
 10
104.549830
 20
204.440660
 30
0.0
  0
SPLINE
  5
28f
100
AcDbEntity
  8
Layer_2
 62
7
100
AcDbSpline
 70
8
 71
3
 72
8
 73
4
 74
0
 40
0
 40
0
 40
0
 40
0
 40
1
 40
1
 40
1
 40
1
 10
104.549830
 20
204.440660
 30
0.0
 10
104.549830
 20
204.370810
 30
0.0
 10
104.492630
 20
204.313660
 30
0.0
 10
104.422830
 20
204.313660
 30
0.0
  0
SPLINE
  5
290
100
AcDbEntity
  8
Layer_2
 62
7
100
AcDbSpline
 70
8
 71
3
 72
8
 73
4
 74
0
 40
0
 40
0
 40
0
 40
0
 40
1
 40
1
 40
1
 40
1
 10
104.422830
 20
204.313660
 30
0.0
 10
104.352930
 20
204.313660
 30
0.0
 10
104.295830
 20
204.256510
 30
0.0
 10
104.295830
 20
204.186660
 30
0.0
  0
SPLINE
  5
291
100
AcDbEntity
  8
Layer_2
 62
7
100
AcDbSpline
 70
8
 71
3
 72
8
 73
4
 74
0
 40
0
 40
0
 40
0
 40
0
 40
1
 40
1
 40
1
 40
1
 10
104.295830
 20
204.186660
 30
0.0
 10
104.295830
 20
204.116810
 30
0.0
 10
104.238730
 20
204.059660
 30
0.0
 10
104.168830
 20
204.059660
 30
0.0
  0
SPLINE
  5
292
100
AcDbEntity
  8
Layer_2
 62
7
100
AcDbSpline
 70
8
 71
3
 72
8
 73
4
 74
0
 40
0
 40
0
 40
0
 40
0
 40
1
 40
1
 40
1
 40
1
 10
104.168830
 20
204.059660
 30
0.0
 10
104.098930
 20
204.059660
 30
0.0
 10
104.041830
 20
204.002510
 30
0.0
 10
104.041830
 20
203.932660
 30
0.0
  0
SPLINE
  5
293
100
AcDbEntity
  8
Layer_2
 62
7
100
AcDbSpline
 70
8
 71
3
 72
8
 73
4
 74
0
 40
0
 40
0
 40
0
 40
0
 40
1
 40
1
 40
1
 40
1
 10
104.041830
 20
203.932660
 30
0.0
 10
104.041830
 20
203.862810
 30
0.0
 10
103.984630
 20
203.805660
 30
0.0
 10
103.914830
 20
203.805660
 30
0.0
  0
SPLINE
  5
294
100
AcDbEntity
  8
Layer_2
 62
7
100
AcDbSpline
 70
8
 71
3
 72
8
 73
4
 74
0
 40
0
 40
0
 40
0
 40
0
 40
1
 40
1
 40
1
 40
1
 10
103.914830
 20
203.805660
 30
0.0
 10
103.845030
 20
203.805660
 30
0.0
 10
103.787830
 20
203.748510
 30
0.0
 10
103.787830
 20
203.678660
 30
0.0
  0
SPLINE
  5
295
100
AcDbEntity
  8
Layer_2
 62
7
100
AcDbSpline
 70
8
 71
3
 72
8
 73
4
 74
0
 40
0
 40
0
 40
0
 40
0
 40
1
 40
1
 40
1
 40
1
 10
103.787830
 20
203.678660
 30
0.0
 10
103.787830
 20
203.608810
 30
0.0
 10
103.730730
 20
203.551660
 30
0.0
 10
103.660830
 20
203.551660
 30
0.0
  0
SPLINE
  5
296
100
AcDbEntity
  8
Layer_2
 62
7
100
AcDbSpline
 70
8
 71
3
 72
8
 73
4
 74
0
 40
0
 40
0
 40
0
 40
0
 40
1
 40
1
 40
1
 40
1
 10
103.660830
 20
203.551660
 30
0.0
 10
103.590930
 20
203.551660
 30
0.0
 10
103.533830
 20
203.494510
 30
0.0
 10
103.533830
 20
203.424660
 30
0.0
  0
SPLINE
  5
297
100
AcDbEntity
  8
Layer_2
 62
7
100
AcDbSpline
 70
8
 71
3
 72
8
 73
4
 74
0
 40
0
 40
0
 40
0
 40
0
 40
1
 40
1
 40
1
 40
1
 10
103.533830
 20
203.424660
 30
0.0
 10
103.533830
 20
203.354810
 30
0.0
 10
103.476730
 20
203.297660
 30
0.0
 10
103.406830
 20
203.297660
 30
0.0
  0
SPLINE
  5
298
100
AcDbEntity
  8
Layer_2
 62
7
100
AcDbSpline
 70
8
 71
3
 72
8
 73
4
 74
0
 40
0
 40
0
 40
0
 40
0
 40
1
 40
1
 40
1
 40
1
 10
103.406830
 20
203.297660
 30
0.0
 10
103.336930
 20
203.297660
 30
0.0
 10
103.279830
 20
203.240510
 30
0.0
 10
103.279830
 20
203.170660
 30
0.0
  0
SPLINE
  5
299
100
AcDbEntity
  8
Layer_2
 62
7
100
AcDbSpline
 70
8
 71
3
 72
8
 73
4
 74
0
 40
0
 40
0
 40
0
 40
0
 40
1
 40
1
 40
1
 40
1
 10
103.279830
 20
203.170660
 30
0.0
 10
103.279830
 20
203.100810
 30
0.0
 10
103.222630
 20
203.043660
 30
0.0
 10
103.152830
 20
203.043660
 30
0.0
  0
SPLINE
  5
29a
100
AcDbEntity
  8
Layer_2
 62
7
100
AcDbSpline
 70
8
 71
3
 72
8
 73
4
 74
0
 40
0
 40
0
 40
0
 40
0
 40
1
 40
1
 40
1
 40
1
 10
103.152830
 20
203.043660
 30
0.0
 10
103.045240
 20
203.043660
 30
0.0
 10
103.025830
 20
202.836698
 30
0.0
 10
103.025830
 20
201.688993
 30
0.0
  0
SPLINE
  5
29b
100
AcDbEntity
  8
Layer_2
 62
7
100
AcDbSpline
 70
8
 71
3
 72
8
 73
4
 74
0
 40
0
 40
0
 40
0
 40
0
 40
1
 40
1
 40
1
 40
1
 10
103.025830
 20
201.688993
 30
0.0
 10
103.025830
 20
200.541289
 30
0.0
 10
103.006430
 20
200.334327
 30
0.0
 10
102.898830
 20
200.334327
 30
0.0
  0
SPLINE
  5
29c
100
AcDbEntity
  8
Layer_2
 62
7
100
AcDbSpline
 70
8
 71
3
 72
8
 73
4
 74
0
 40
0
 40
0
 40
0
 40
0
 40
1
 40
1
 40
1
 40
1
 10
102.898830
 20
200.334327
 30
0.0
 10
102.804730
 20
200.334327
 30
0.0
 10
102.771830
 20
200.235547
 30
0.0
 10
102.771830
 20
199.953327
 30
0.0
  0
SPLINE
  5
29d
100
AcDbEntity
  8
Layer_2
 62
7
100
AcDbSpline
 70
8
 71
3
 72
8
 73
4
 74
0
 40
0
 40
0
 40
0
 40
0
 40
1
 40
1
 40
1
 40
1
 10
102.771830
 20
199.953327
 30
0.0
 10
102.771830
 20
199.671105
 30
0.0
 10
102.738930
 20
199.572327
 30
0.0
 10
102.644830
 20
199.572327
 30
0.0
  0
SPLINE
  5
29e
100
AcDbEntity
  8
Layer_2
 62
7
100
AcDbSpline
 70
8
 71
3
 72
8
 73
4
 74
0
 40
0
 40
0
 40
0
 40
0
 40
1
 40
1
 40
1
 40
1
 10
102.644830
 20
199.572327
 30
0.0
 10
102.560130
 20
199.572327
 30
0.0
 10
102.517830
 20
199.487657
 30
0.0
 10
102.517830
 20
199.318327
 30
0.0
  0
SPLINE
  5
29f
100
AcDbEntity
  8
Layer_2
 62
7
100
AcDbSpline
 70
8
 71
3
 72
8
 73
4
 74
0
 40
0
 40
0
 40
0
 40
0
 40
1
 40
1
 40
1
 40
1
 10
102.517830
 20
199.318327
 30
0.0
 10
102.517830
 20
199.148993
 30
0.0
 10
102.475530
 20
199.064327
 30
0.0
 10
102.390830
 20
199.064327
 30
0.0
  0
SPLINE
  5
2a0
100
AcDbEntity
  8
Layer_2
 62
7
100
AcDbSpline
 70
8
 71
3
 72
8
 73
4
 74
0
 40
0
 40
0
 40
0
 40
0
 40
1
 40
1
 40
1
 40
1
 10
102.390830
 20
199.064327
 30
0.0
 10
102.306130
 20
199.064327
 30
0.0
 10
102.263830
 20
198.979657
 30
0.0
 10
102.263830
 20
198.810327
 30
0.0
  0
SPLINE
  5
2a1
100
AcDbEntity
  8
Layer_2
 62
7
100
AcDbSpline
 70
8
 71
3
 72
8
 73
4
 74
0
 40
0
 40
0
 40
0
 40
0
 40
1
 40
1
 40
1
 40
1
 10
102.263830
 20
198.810327
 30
0.0
 10
102.263830
 20
198.640993
 30
0.0
 10
102.221530
 20
198.556326
 30
0.0
 10
102.136830
 20
198.556326
 30
0.0
  0
SPLINE
  5
2a2
100
AcDbEntity
  8
Layer_2
 62
7
100
AcDbSpline
 70
8
 71
3
 72
8
 73
4
 74
0
 40
0
 40
0
 40
0
 40
0
 40
1
 40
1
 40
1
 40
1
 10
102.136830
 20
198.556326
 30
0.0
 10
102.052130
 20
198.556326
 30
0.0
 10
102.009830
 20
198.471656
 30
0.0
 10
102.009830
 20
198.302326
 30
0.0
  0
SPLINE
  5
2a3
100
AcDbEntity
  8
Layer_2
 62
7
100
AcDbSpline
 70
8
 71
3
 72
8
 73
4
 74
0
 40
0
 40
0
 40
0
 40
0
 40
1
 40
1
 40
1
 40
1
 10
102.009830
 20
198.302326
 30
0.0
 10
102.009830
 20
198.132993
 30
0.0
 10
101.967530
 20
198.048326
 30
0.0
 10
101.882830
 20
198.048326
 30
0.0
  0
SPLINE
  5
2a4
100
AcDbEntity
  8
Layer_2
 62
7
100
AcDbSpline
 70
8
 71
3
 72
8
 73
4
 74
0
 40
0
 40
0
 40
0
 40
0
 40
1
 40
1
 40
1
 40
1
 10
101.882830
 20
198.048326
 30
0.0
 10
101.812930
 20
198.048326
 30
0.0
 10
101.755830
 20
197.991176
 30
0.0
 10
101.755830
 20
197.921326
 30
0.0
  0
SPLINE
  5
2a5
100
AcDbEntity
  8
Layer_2
 62
7
100
AcDbSpline
 70
8
 71
3
 72
8
 73
4
 74
0
 40
0
 40
0
 40
0
 40
0
 40
1
 40
1
 40
1
 40
1
 10
101.755830
 20
197.921326
 30
0.0
 10
101.755830
 20
197.851476
 30
0.0
 10
101.698630
 20
197.794326
 30
0.0
 10
101.628830
 20
197.794326
 30
0.0
  0
SPLINE
  5
2a6
100
AcDbEntity
  8
Layer_2
 62
7
100
AcDbSpline
 70
8
 71
3
 72
8
 73
4
 74
0
 40
0
 40
0
 40
0
 40
0
 40
1
 40
1
 40
1
 40
1
 10
101.628830
 20
197.794326
 30
0.0
 10
101.559030
 20
197.794326
 30
0.0
 10
101.501830
 20
197.737176
 30
0.0
 10
101.501830
 20
197.667326
 30
0.0
  0
SPLINE
  5
2a7
100
AcDbEntity
  8
Layer_2
 62
7
100
AcDbSpline
 70
8
 71
3
 72
8
 73
4
 74
0
 40
0
 40
0
 40
0
 40
0
 40
1
 40
1
 40
1
 40
1
 10
101.501830
 20
197.667326
 30
0.0
 10
101.501830
 20
197.597476
 30
0.0
 10
101.444730
 20
197.540326
 30
0.0
 10
101.374830
 20
197.540326
 30
0.0
  0
SPLINE
  5
2a8
100
AcDbEntity
  8
Layer_2
 62
7
100
AcDbSpline
 70
8
 71
3
 72
8
 73
4
 74
0
 40
0
 40
0
 40
0
 40
0
 40
1
 40
1
 40
1
 40
1
 10
101.374830
 20
197.540326
 30
0.0
 10
101.304930
 20
197.540326
 30
0.0
 10
101.247830
 20
197.483176
 30
0.0
 10
101.247830
 20
197.413326
 30
0.0
  0
SPLINE
  5
2a9
100
AcDbEntity
  8
Layer_2
 62
7
100
AcDbSpline
 70
8
 71
3
 72
8
 73
4
 74
0
 40
0
 40
0
 40
0
 40
0
 40
1
 40
1
 40
1
 40
1
 10
101.247830
 20
197.413326
 30
0.0
 10
101.247830
 20
197.343476
 30
0.0
 10
101.190730
 20
197.286326
 30
0.0
 10
101.120830
 20
197.286326
 30
0.0
  0
SPLINE
  5
2aa
100
AcDbEntity
  8
Layer_2
 62
7
100
AcDbSpline
 70
8
 71
3
 72
8
 73
4
 74
0
 40
0
 40
0
 40
0
 40
0
 40
1
 40
1
 40
1
 40
1
 10
101.120830
 20
197.286326
 30
0.0
 10
101.050930
 20
197.286326
 30
0.0
 10
100.993830
 20
197.248226
 30
0.0
 10
100.993830
 20
197.201656
 30
0.0
  0
SPLINE
  5
2ab
100
AcDbEntity
  8
Layer_2
 62
7
100
AcDbSpline
 70
8
 71
3
 72
8
 73
4
 74
0
 40
0
 40
0
 40
0
 40
0
 40
1
 40
1
 40
1
 40
1
 10
100.993830
 20
197.201656
 30
0.0
 10
100.993830
 20
197.155086
 30
0.0
 10
100.936630
 20
197.116986
 30
0.0
 10
100.866830
 20
197.116986
 30
0.0
  0
SPLINE
  5
2ac
100
AcDbEntity
  8
Layer_2
 62
7
100
AcDbSpline
 70
8
 71
3
 72
8
 73
4
 74
0
 40
0
 40
0
 40
0
 40
0
 40
1
 40
1
 40
1
 40
1
 10
100.866830
 20
197.116986
 30
0.0
 10
100.797030
 20
197.116986
 30
0.0
 10
100.739830
 20
197.059836
 30
0.0
 10
100.739830
 20
196.989980
 30
0.0
  0
SPLINE
  5
2ad
100
AcDbEntity
  8
Layer_2
 62
7
100
AcDbSpline
 70
8
 71
3
 72
8
 73
4
 74
0
 40
0
 40
0
 40
0
 40
0
 40
1
 40
1
 40
1
 40
1
 10
100.739830
 20
196.989980
 30
0.0
 10
100.739830
 20
196.910980
 30
0.0
 10
100.659830
 20
196.862980
 30
0.0
 10
100.528170
 20
196.862980
 30
0.0
  0
SPLINE
  5
2ae
100
AcDbEntity
  8
Layer_2
 62
7
100
AcDbSpline
 70
8
 71
3
 72
8
 73
4
 74
0
 40
0
 40
0
 40
0
 40
0
 40
1
 40
1
 40
1
 40
1
 10
100.528170
 20
196.862980
 30
0.0
 10
100.396460
 20
196.862980
 30
0.0
 10
100.316500
 20
196.814980
 30
0.0
 10
100.316500
 20
196.735980
 30
0.0
  0
SPLINE
  5
2af
100
AcDbEntity
  8
Layer_2
 62
7
100
AcDbSpline
 70
8
 71
3
 72
8
 73
4
 74
0
 40
0
 40
0
 40
0
 40
0
 40
1
 40
1
 40
1
 40
1
 10
100.316500
 20
196.735980
 30
0.0
 10
100.316500
 20
196.641880
 30
0.0
 10
100.217700
 20
196.608980
 30
0.0
 10
99.935502
 20
196.608980
 30
0.0
  0
SPLINE
  5
2b0
100
AcDbEntity
  8
Layer_2
 62
7
100
AcDbSpline
 70
8
 71
3
 72
8
 73
4
 74
0
 40
0
 40
0
 40
0
 40
0
 40
1
 40
1
 40
1
 40
1
 10
99.935502
 20
196.608980
 30
0.0
 10
99.653280
 20
196.608980
 30
0.0
 10
99.554502
 20
196.576080
 30
0.0
 10
99.554502
 20
196.481980
 30
0.0
  0
SPLINE
  5
2b1
100
AcDbEntity
  8
Layer_2
 62
7
100
AcDbSpline
 70
8
 71
3
 72
8
 73
4
 74
0
 40
0
 40
0
 40
0
 40
0
 40
1
 40
1
 40
1
 40
1
 10
99.554502
 20
196.481980
 30
0.0
 10
99.554502
 20
196.412180
 30
0.0
 10
99.497352
 20
196.354980
 30
0.0
 10
99.427502
 20
196.354980
 30
0.0
  0
SPLINE
  5
2b2
100
AcDbEntity
  8
Layer_2
 62
7
100
AcDbSpline
 70
8
 71
3
 72
8
 73
4
 74
0
 40
0
 40
0
 40
0
 40
0
 40
1
 40
1
 40
1
 40
1
 10
99.427502
 20
196.354980
 30
0.0
 10
99.333432
 20
196.354980
 30
0.0
 10
99.300502
 20
196.256180
 30
0.0
 10
99.300502
 20
195.973980
 30
0.0
  0
SPLINE
  5
2b3
100
AcDbEntity
  8
Layer_2
 62
7
100
AcDbSpline
 70
8
 71
3
 72
8
 73
4
 74
0
 40
0
 40
0
 40
0
 40
0
 40
1
 40
1
 40
1
 40
1
 10
99.300502
 20
195.973980
 30
0.0
 10
99.300502
 20
195.691760
 30
0.0
 10
99.267572
 20
195.592980
 30
0.0
 10
99.173502
 20
195.592980
 30
0.0
  0
SPLINE
  5
2b4
100
AcDbEntity
  8
Layer_2
 62
7
100
AcDbSpline
 70
8
 71
3
 72
8
 73
4
 74
0
 40
0
 40
0
 40
0
 40
0
 40
1
 40
1
 40
1
 40
1
 10
99.173502
 20
195.592980
 30
0.0
 10
99.088832
 20
195.592980
 30
0.0
 10
99.046502
 20
195.508280
 30
0.0
 10
99.046502
 20
195.338980
 30
0.0
  0
SPLINE
  5
2b5
100
AcDbEntity
  8
Layer_2
 62
7
100
AcDbSpline
 70
8
 71
3
 72
8
 73
4
 74
0
 40
0
 40
0
 40
0
 40
0
 40
1
 40
1
 40
1
 40
1
 10
99.046502
 20
195.338980
 30
0.0
 10
99.046502
 20
195.169650
 30
0.0
 10
99.004172
 20
195.084980
 30
0.0
 10
98.919502
 20
195.084980
 30
0.0
  0
SPLINE
  5
2b6
100
AcDbEntity
  8
Layer_2
 62
7
100
AcDbSpline
 70
8
 71
3
 72
8
 73
4
 74
0
 40
0
 40
0
 40
0
 40
0
 40
1
 40
1
 40
1
 40
1
 10
98.919502
 20
195.084980
 30
0.0
 10
98.834832
 20
195.084980
 30
0.0
 10
98.792502
 20
195.000280
 30
0.0
 10
98.792502
 20
194.830980
 30
0.0
  0
SPLINE
  5
2b7
100
AcDbEntity
  8
Layer_2
 62
7
100
AcDbSpline
 70
8
 71
3
 72
8
 73
4
 74
0
 40
0
 40
0
 40
0
 40
0
 40
1
 40
1
 40
1
 40
1
 10
98.792502
 20
194.830980
 30
0.0
 10
98.792502
 20
194.661650
 30
0.0
 10
98.750172
 20
194.576980
 30
0.0
 10
98.665502
 20
194.576980
 30
0.0
  0
SPLINE
  5
2b8
100
AcDbEntity
  8
Layer_2
 62
7
100
AcDbSpline
 70
8
 71
3
 72
8
 73
4
 74
0
 40
0
 40
0
 40
0
 40
0
 40
1
 40
1
 40
1
 40
1
 10
98.665502
 20
194.576980
 30
0.0
 10
98.580832
 20
194.576980
 30
0.0
 10
98.538502
 20
194.492280
 30
0.0
 10
98.538502
 20
194.322980
 30
0.0
  0
SPLINE
  5
2b9
100
AcDbEntity
  8
Layer_2
 62
7
100
AcDbSpline
 70
8
 71
3
 72
8
 73
4
 74
0
 40
0
 40
0
 40
0
 40
0
 40
1
 40
1
 40
1
 40
1
 10
98.538502
 20
194.322980
 30
0.0
 10
98.538502
 20
194.153650
 30
0.0
 10
98.496172
 20
194.068980
 30
0.0
 10
98.411502
 20
194.068980
 30
0.0
  0
SPLINE
  5
2ba
100
AcDbEntity
  8
Layer_2
 62
7
100
AcDbSpline
 70
8
 71
3
 72
8
 73
4
 74
0
 40
0
 40
0
 40
0
 40
0
 40
1
 40
1
 40
1
 40
1
 10
98.411502
 20
194.068980
 30
0.0
 10
98.326832
 20
194.068980
 30
0.0
 10
98.284502
 20
193.984280
 30
0.0
 10
98.284502
 20
193.814980
 30
0.0
  0
SPLINE
  5
2bb
100
AcDbEntity
  8
Layer_2
 62
7
100
AcDbSpline
 70
8
 71
3
 72
8
 73
4
 74
0
 40
0
 40
0
 40
0
 40
0
 40
1
 40
1
 40
1
 40
1
 10
98.284502
 20
193.814980
 30
0.0
 10
98.284502
 20
193.645650
 30
0.0
 10
98.242172
 20
193.560980
 30
0.0
 10
98.157502
 20
193.560980
 30
0.0
  0
SPLINE
  5
2bc
100
AcDbEntity
  8
Layer_2
 62
7
100
AcDbSpline
 70
8
 71
3
 72
8
 73
4
 74
0
 40
0
 40
0
 40
0
 40
0
 40
1
 40
1
 40
1
 40
1
 10
98.157502
 20
193.560980
 30
0.0
 10
98.072832
 20
193.560980
 30
0.0
 10
98.030502
 20
193.476280
 30
0.0
 10
98.030502
 20
193.306980
 30
0.0
  0
SPLINE
  5
2bd
100
AcDbEntity
  8
Layer_2
 62
7
100
AcDbSpline
 70
8
 71
3
 72
8
 73
4
 74
0
 40
0
 40
0
 40
0
 40
0
 40
1
 40
1
 40
1
 40
1
 10
98.030502
 20
193.306980
 30
0.0
 10
98.030502
 20
193.137650
 30
0.0
 10
97.988172
 20
193.052980
 30
0.0
 10
97.903502
 20
193.052980
 30
0.0
  0
SPLINE
  5
2be
100
AcDbEntity
  8
Layer_2
 62
7
100
AcDbSpline
 70
8
 71
3
 72
8
 73
4
 74
0
 40
0
 40
0
 40
0
 40
0
 40
1
 40
1
 40
1
 40
1
 10
97.903502
 20
193.052980
 30
0.0
 10
97.818832
 20
193.052980
 30
0.0
 10
97.776502
 20
192.968280
 30
0.0
 10
97.776502
 20
192.798980
 30
0.0
  0
SPLINE
  5
2bf
100
AcDbEntity
  8
Layer_2
 62
7
100
AcDbSpline
 70
8
 71
3
 72
8
 73
4
 74
0
 40
0
 40
0
 40
0
 40
0
 40
1
 40
1
 40
1
 40
1
 10
97.776502
 20
192.798980
 30
0.0
 10
97.776502
 20
192.629650
 30
0.0
 10
97.734172
 20
192.544980
 30
0.0
 10
97.649502
 20
192.544980
 30
0.0
  0
SPLINE
  5
2c0
100
AcDbEntity
  8
Layer_2
 62
7
100
AcDbSpline
 70
8
 71
3
 72
8
 73
4
 74
0
 40
0
 40
0
 40
0
 40
0
 40
1
 40
1
 40
1
 40
1
 10
97.649502
 20
192.544980
 30
0.0
 10
97.564832
 20
192.544980
 30
0.0
 10
97.522502
 20
192.460280
 30
0.0
 10
97.522502
 20
192.290980
 30
0.0
  0
SPLINE
  5
2c1
100
AcDbEntity
  8
Layer_2
 62
7
100
AcDbSpline
 70
8
 71
3
 72
8
 73
4
 74
0
 40
0
 40
0
 40
0
 40
0
 40
1
 40
1
 40
1
 40
1
 10
97.522502
 20
192.290980
 30
0.0
 10
97.522502
 20
192.121650
 30
0.0
 10
97.480172
 20
192.036980
 30
0.0
 10
97.395502
 20
192.036980
 30
0.0
  0
SPLINE
  5
2c2
100
AcDbEntity
  8
Layer_2
 62
7
100
AcDbSpline
 70
8
 71
3
 72
8
 73
4
 74
0
 40
0
 40
0
 40
0
 40
0
 40
1
 40
1
 40
1
 40
1
 10
97.395502
 20
192.036980
 30
0.0
 10
97.325652
 20
192.036980
 30
0.0
 10
97.268502
 20
191.998880
 30
0.0
 10
97.268502
 20
191.952280
 30
0.0
  0
SPLINE
  5
2c3
100
AcDbEntity
  8
Layer_2
 62
7
100
AcDbSpline
 70
8
 71
3
 72
8
 73
4
 74
0
 40
0
 40
0
 40
0
 40
0
 40
1
 40
1
 40
1
 40
1
 10
97.268502
 20
191.952280
 30
0.0
 10
97.268502
 20
191.905680
 30
0.0
 10
97.211352
 20
191.867580
 30
0.0
 10
97.141502
 20
191.867580
 30
0.0
  0
SPLINE
  5
2c4
100
AcDbEntity
  8
Layer_2
 62
7
100
AcDbSpline
 70
8
 71
3
 72
8
 73
4
 74
0
 40
0
 40
0
 40
0
 40
0
 40
1
 40
1
 40
1
 40
1
 10
97.141502
 20
191.867580
 30
0.0
 10
97.056832
 20
191.867580
 30
0.0
 10
97.014502
 20
191.782880
 30
0.0
 10
97.014502
 20
191.613580
 30
0.0
  0
SPLINE
  5
2c5
100
AcDbEntity
  8
Layer_2
 62
7
100
AcDbSpline
 70
8
 71
3
 72
8
 73
4
 74
0
 40
0
 40
0
 40
0
 40
0
 40
1
 40
1
 40
1
 40
1
 10
97.014502
 20
191.613580
 30
0.0
 10
97.014502
 20
191.444250
 30
0.0
 10
96.972172
 20
191.359580
 30
0.0
 10
96.887502
 20
191.359580
 30
0.0
  0
SPLINE
  5
2c6
100
AcDbEntity
  8
Layer_2
 62
7
100
AcDbSpline
 70
8
 71
3
 72
8
 73
4
 74
0
 40
0
 40
0
 40
0
 40
0
 40
1
 40
1
 40
1
 40
1
 10
96.887502
 20
191.359580
 30
0.0
 10
96.817652
 20
191.359580
 30
0.0
 10
96.760502
 20
191.302380
 30
0.0
 10
96.760502
 20
191.232580
 30
0.0
  0
SPLINE
  5
2c7
100
AcDbEntity
  8
Layer_2
 62
7
100
AcDbSpline
 70
8
 71
3
 72
8
 73
4
 74
0
 40
0
 40
0
 40
0
 40
0
 40
1
 40
1
 40
1
 40
1
 10
96.760502
 20
191.232580
 30
0.0
 10
96.760502
 20
191.162780
 30
0.0
 10
96.703352
 20
191.105580
 30
0.0
 10
96.633502
 20
191.105580
 30
0.0
  0
SPLINE
  5
2c8
100
AcDbEntity
  8
Layer_2
 62
7
100
AcDbSpline
 70
8
 71
3
 72
8
 73
4
 74
0
 40
0
 40
0
 40
0
 40
0
 40
1
 40
1
 40
1
 40
1
 10
96.633502
 20
191.105580
 30
0.0
 10
96.548832
 20
191.105580
 30
0.0
 10
96.506502
 20
191.020880
 30
0.0
 10
96.506502
 20
190.851580
 30
0.0
  0
SPLINE
  5
2c9
100
AcDbEntity
  8
Layer_2
 62
7
100
AcDbSpline
 70
8
 71
3
 72
8
 73
4
 74
0
 40
0
 40
0
 40
0
 40
0
 40
1
 40
1
 40
1
 40
1
 10
96.506502
 20
190.851580
 30
0.0
 10
96.506502
 20
190.682250
 30
0.0
 10
96.464172
 20
190.597580
 30
0.0
 10
96.379502
 20
190.597580
 30
0.0
  0
SPLINE
  5
2ca
100
AcDbEntity
  8
Layer_2
 62
7
100
AcDbSpline
 70
8
 71
3
 72
8
 73
4
 74
0
 40
0
 40
0
 40
0
 40
0
 40
1
 40
1
 40
1
 40
1
 10
96.379502
 20
190.597580
 30
0.0
 10
96.309652
 20
190.597580
 30
0.0
 10
96.252502
 20
190.540380
 30
0.0
 10
96.252502
 20
190.470580
 30
0.0
  0
SPLINE
  5
2cb
100
AcDbEntity
  8
Layer_2
 62
7
100
AcDbSpline
 70
8
 71
3
 72
8
 73
4
 74
0
 40
0
 40
0
 40
0
 40
0
 40
1
 40
1
 40
1
 40
1
 10
96.252502
 20
190.470580
 30
0.0
 10
96.252502
 20
190.400780
 30
0.0
 10
96.195352
 20
190.343580
 30
0.0
 10
96.125502
 20
190.343580
 30
0.0
  0
SPLINE
  5
2cc
100
AcDbEntity
  8
Layer_2
 62
7
100
AcDbSpline
 70
8
 71
3
 72
8
 73
4
 74
0
 40
0
 40
0
 40
0
 40
0
 40
1
 40
1
 40
1
 40
1
 10
96.125502
 20
190.343580
 30
0.0
 10
96.055652
 20
190.343580
 30
0.0
 10
95.998502
 20
190.286480
 30
0.0
 10
95.998502
 20
190.216580
 30
0.0
  0
SPLINE
  5
2cd
100
AcDbEntity
  8
Layer_2
 62
7
100
AcDbSpline
 70
8
 71
3
 72
8
 73
4
 74
0
 40
0
 40
0
 40
0
 40
0
 40
1
 40
1
 40
1
 40
1
 10
95.998502
 20
190.216580
 30
0.0
 10
95.998502
 20
190.146680
 30
0.0
 10
95.941352
 20
190.089580
 30
0.0
 10
95.871502
 20
190.089580
 30
0.0
  0
SPLINE
  5
2ce
100
AcDbEntity
  8
Layer_2
 62
7
100
AcDbSpline
 70
8
 71
3
 72
8
 73
4
 74
0
 40
0
 40
0
 40
0
 40
0
 40
1
 40
1
 40
1
 40
1
 10
95.871502
 20
190.089580
 30
0.0
 10
95.786832
 20
190.089580
 30
0.0
 10
95.744502
 20
190.004880
 30
0.0
 10
95.744502
 20
189.835580
 30
0.0
  0
SPLINE
  5
2cf
100
AcDbEntity
  8
Layer_2
 62
7
100
AcDbSpline
 70
8
 71
3
 72
8
 73
4
 74
0
 40
0
 40
0
 40
0
 40
0
 40
1
 40
1
 40
1
 40
1
 10
95.744502
 20
189.835580
 30
0.0
 10
95.744502
 20
189.666250
 30
0.0
 10
95.702172
 20
189.581580
 30
0.0
 10
95.617502
 20
189.581580
 30
0.0
  0
SPLINE
  5
2d0
100
AcDbEntity
  8
Layer_2
 62
7
100
AcDbSpline
 70
8
 71
3
 72
8
 73
4
 74
0
 40
0
 40
0
 40
0
 40
0
 40
1
 40
1
 40
1
 40
1
 10
95.617502
 20
189.581580
 30
0.0
 10
95.547652
 20
189.581580
 30
0.0
 10
95.490502
 20
189.524480
 30
0.0
 10
95.490502
 20
189.454580
 30
0.0
  0
SPLINE
  5
2d1
100
AcDbEntity
  8
Layer_2
 62
7
100
AcDbSpline
 70
8
 71
3
 72
8
 73
4
 74
0
 40
0
 40
0
 40
0
 40
0
 40
1
 40
1
 40
1
 40
1
 10
95.490502
 20
189.454580
 30
0.0
 10
95.490502
 20
189.384680
 30
0.0
 10
95.433352
 20
189.327580
 30
0.0
 10
95.363502
 20
189.327580
 30
0.0
  0
SPLINE
  5
2d2
100
AcDbEntity
  8
Layer_2
 62
7
100
AcDbSpline
 70
8
 71
3
 72
8
 73
4
 74
0
 40
0
 40
0
 40
0
 40
0
 40
1
 40
1
 40
1
 40
1
 10
95.363502
 20
189.327580
 30
0.0
 10
95.293652
 20
189.327580
 30
0.0
 10
95.236502
 20
189.270380
 30
0.0
 10
95.236502
 20
189.200580
 30
0.0
  0
SPLINE
  5
2d3
100
AcDbEntity
  8
Layer_2
 62
7
100
AcDbSpline
 70
8
 71
3
 72
8
 73
4
 74
0
 40
0
 40
0
 40
0
 40
0
 40
1
 40
1
 40
1
 40
1
 10
95.236502
 20
189.200580
 30
0.0
 10
95.236502
 20
189.130680
 30
0.0
 10
95.198402
 20
189.073580
 30
0.0
 10
95.151832
 20
189.073580
 30
0.0
  0
SPLINE
  5
2d4
100
AcDbEntity
  8
Layer_2
 62
7
100
AcDbSpline
 70
8
 71
3
 72
8
 73
4
 74
0
 40
0
 40
0
 40
0
 40
0
 40
1
 40
1
 40
1
 40
1
 10
95.151832
 20
189.073580
 30
0.0
 10
95.105262
 20
189.073580
 30
0.0
 10
95.067162
 20
189.016380
 30
0.0
 10
95.067162
 20
188.946580
 30
0.0
  0
SPLINE
  5
2d5
100
AcDbEntity
  8
Layer_2
 62
7
100
AcDbSpline
 70
8
 71
3
 72
8
 73
4
 74
0
 40
0
 40
0
 40
0
 40
0
 40
1
 40
1
 40
1
 40
1
 10
95.067162
 20
188.946580
 30
0.0
 10
95.067162
 20
188.876680
 30
0.0
 10
95.010012
 20
188.819580
 30
0.0
 10
94.940162
 20
188.819580
 30
0.0
  0
SPLINE
  5
2d6
100
AcDbEntity
  8
Layer_2
 62
7
100
AcDbSpline
 70
8
 71
3
 72
8
 73
4
 74
0
 40
0
 40
0
 40
0
 40
0
 40
1
 40
1
 40
1
 40
1
 10
94.940162
 20
188.819580
 30
0.0
 10
94.855492
 20
188.819580
 30
0.0
 10
94.813162
 20
188.734880
 30
0.0
 10
94.813162
 20
188.565580
 30
0.0
  0
SPLINE
  5
2d7
100
AcDbEntity
  8
Layer_2
 62
7
100
AcDbSpline
 70
8
 71
3
 72
8
 73
4
 74
0
 40
0
 40
0
 40
0
 40
0
 40
1
 40
1
 40
1
 40
1
 10
94.813162
 20
188.565580
 30
0.0
 10
94.813162
 20
188.396250
 30
0.0
 10
94.770832
 20
188.311580
 30
0.0
 10
94.686162
 20
188.311580
 30
0.0
  0
SPLINE
  5
2d8
100
AcDbEntity
  8
Layer_2
 62
7
100
AcDbSpline
 70
8
 71
3
 72
8
 73
4
 74
0
 40
0
 40
0
 40
0
 40
0
 40
1
 40
1
 40
1
 40
1
 10
94.686162
 20
188.311580
 30
0.0
 10
94.616312
 20
188.311580
 30
0.0
 10
94.559162
 20
188.254380
 30
0.0
 10
94.559162
 20
188.184580
 30
0.0
  0
SPLINE
  5
2d9
100
AcDbEntity
  8
Layer_2
 62
7
100
AcDbSpline
 70
8
 71
3
 72
8
 73
4
 74
0
 40
0
 40
0
 40
0
 40
0
 40
1
 40
1
 40
1
 40
1
 10
94.559162
 20
188.184580
 30
0.0
 10
94.559162
 20
188.114680
 30
0.0
 10
94.502012
 20
188.057580
 30
0.0
 10
94.432162
 20
188.057580
 30
0.0
  0
SPLINE
  5
2da
100
AcDbEntity
  8
Layer_2
 62
7
100
AcDbSpline
 70
8
 71
3
 72
8
 73
4
 74
0
 40
0
 40
0
 40
0
 40
0
 40
1
 40
1
 40
1
 40
1
 10
94.432162
 20
188.057580
 30
0.0
 10
94.362312
 20
188.057580
 30
0.0
 10
94.305162
 20
188.000480
 30
0.0
 10
94.305162
 20
187.930580
 30
0.0
  0
SPLINE
  5
2db
100
AcDbEntity
  8
Layer_2
 62
7
100
AcDbSpline
 70
8
 71
3
 72
8
 73
4
 74
0
 40
0
 40
0
 40
0
 40
0
 40
1
 40
1
 40
1
 40
1
 10
94.305162
 20
187.930580
 30
0.0
 10
94.305162
 20
187.860680
 30
0.0
 10
94.248012
 20
187.803580
 30
0.0
 10
94.178162
 20
187.803580
 30
0.0
  0
SPLINE
  5
2dc
100
AcDbEntity
  8
Layer_2
 62
7
100
AcDbSpline
 70
8
 71
3
 72
8
 73
4
 74
0
 40
0
 40
0
 40
0
 40
0
 40
1
 40
1
 40
1
 40
1
 10
94.178162
 20
187.803580
 30
0.0
 10
94.108312
 20
187.803580
 30
0.0
 10
94.051162
 20
187.746380
 30
0.0
 10
94.051162
 20
187.676580
 30
0.0
  0
SPLINE
  5
2dd
100
AcDbEntity
  8
Layer_2
 62
7
100
AcDbSpline
 70
8
 71
3
 72
8
 73
4
 74
0
 40
0
 40
0
 40
0
 40
0
 40
1
 40
1
 40
1
 40
1
 10
94.051162
 20
187.676580
 30
0.0
 10
94.051162
 20
187.606680
 30
0.0
 10
93.994012
 20
187.549580
 30
0.0
 10
93.924162
 20
187.549580
 30
0.0
  0
SPLINE
  5
2de
100
AcDbEntity
  8
Layer_2
 62
7
100
AcDbSpline
 70
8
 71
3
 72
8
 73
4
 74
0
 40
0
 40
0
 40
0
 40
0
 40
1
 40
1
 40
1
 40
1
 10
93.924162
 20
187.549580
 30
0.0
 10
93.854312
 20
187.549580
 30
0.0
 10
93.797162
 20
187.492380
 30
0.0
 10
93.797162
 20
187.422580
 30
0.0
  0
SPLINE
  5
2df
100
AcDbEntity
  8
Layer_2
 62
7
100
AcDbSpline
 70
8
 71
3
 72
8
 73
4
 74
0
 40
0
 40
0
 40
0
 40
0
 40
1
 40
1
 40
1
 40
1
 10
93.797162
 20
187.422580
 30
0.0
 10
93.797162
 20
187.352680
 30
0.0
 10
93.740012
 20
187.295580
 30
0.0
 10
93.670162
 20
187.295580
 30
0.0
  0
SPLINE
  5
2e0
100
AcDbEntity
  8
Layer_2
 62
7
100
AcDbSpline
 70
8
 71
3
 72
8
 73
4
 74
0
 40
0
 40
0
 40
0
 40
0
 40
1
 40
1
 40
1
 40
1
 10
93.670162
 20
187.295580
 30
0.0
 10
93.600312
 20
187.295580
 30
0.0
 10
93.543162
 20
187.238480
 30
0.0
 10
93.543162
 20
187.168580
 30
0.0
  0
SPLINE
  5
2e1
100
AcDbEntity
  8
Layer_2
 62
7
100
AcDbSpline
 70
8
 71
3
 72
8
 73
4
 74
0
 40
0
 40
0
 40
0
 40
0
 40
1
 40
1
 40
1
 40
1
 10
93.543162
 20
187.168580
 30
0.0
 10
93.543162
 20
187.098680
 30
0.0
 10
93.486012
 20
187.041580
 30
0.0
 10
93.416162
 20
187.041580
 30
0.0
  0
SPLINE
  5
2e2
100
AcDbEntity
  8
Layer_2
 62
7
100
AcDbSpline
 70
8
 71
3
 72
8
 73
4
 74
0
 40
0
 40
0
 40
0
 40
0
 40
1
 40
1
 40
1
 40
1
 10
93.416162
 20
187.041580
 30
0.0
 10
93.346312
 20
187.041580
 30
0.0
 10
93.289162
 20
186.984380
 30
0.0
 10
93.289162
 20
186.914580
 30
0.0
  0
SPLINE
  5
2e3
100
AcDbEntity
  8
Layer_2
 62
7
100
AcDbSpline
 70
8
 71
3
 72
8
 73
4
 74
0
 40
0
 40
0
 40
0
 40
0
 40
1
 40
1
 40
1
 40
1
 10
93.289162
 20
186.914580
 30
0.0
 10
93.289162
 20
186.844680
 30
0.0
 10
93.232012
 20
186.787580
 30
0.0
 10
93.162162
 20
186.787580
 30
0.0
  0
SPLINE
  5
2e4
100
AcDbEntity
  8
Layer_2
 62
7
100
AcDbSpline
 70
8
 71
3
 72
8
 73
4
 74
0
 40
0
 40
0
 40
0
 40
0
 40
1
 40
1
 40
1
 40
1
 10
93.162162
 20
186.787580
 30
0.0
 10
93.092312
 20
186.787580
 30
0.0
 10
93.035162
 20
186.749480
 30
0.0
 10
93.035162
 20
186.702880
 30
0.0
  0
SPLINE
  5
2e5
100
AcDbEntity
  8
Layer_2
 62
7
100
AcDbSpline
 70
8
 71
3
 72
8
 73
4
 74
0
 40
0
 40
0
 40
0
 40
0
 40
1
 40
1
 40
1
 40
1
 10
93.035162
 20
186.702880
 30
0.0
 10
93.035162
 20
186.656280
 30
0.0
 10
92.978012
 20
186.618180
 30
0.0
 10
92.908162
 20
186.618180
 30
0.0
  0
SPLINE
  5
2e6
100
AcDbEntity
  8
Layer_2
 62
7
100
AcDbSpline
 70
8
 71
3
 72
8
 73
4
 74
0
 40
0
 40
0
 40
0
 40
0
 40
1
 40
1
 40
1
 40
1
 10
92.908162
 20
186.618180
 30
0.0
 10
92.838312
 20
186.618180
 30
0.0
 10
92.781162
 20
186.561080
 30
0.0
 10
92.781162
 20
186.491180
 30
0.0
  0
SPLINE
  5
2e7
100
AcDbEntity
  8
Layer_2
 62
7
100
AcDbSpline
 70
8
 71
3
 72
8
 73
4
 74
0
 40
0
 40
0
 40
0
 40
0
 40
1
 40
1
 40
1
 40
1
 10
92.781162
 20
186.491180
 30
0.0
 10
92.781162
 20
186.406480
 30
0.0
 10
92.696492
 20
186.364180
 30
0.0
 10
92.527162
 20
186.364180
 30
0.0
  0
SPLINE
  5
2e8
100
AcDbEntity
  8
Layer_2
 62
7
100
AcDbSpline
 70
8
 71
3
 72
8
 73
4
 74
0
 40
0
 40
0
 40
0
 40
0
 40
1
 40
1
 40
1
 40
1
 10
92.527162
 20
186.364180
 30
0.0
 10
92.357829
 20
186.364180
 30
0.0
 10
92.273162
 20
186.321880
 30
0.0
 10
92.273162
 20
186.237180
 30
0.0
  0
SPLINE
  5
2e9
100
AcDbEntity
  8
Layer_2
 62
7
100
AcDbSpline
 70
8
 71
3
 72
8
 73
4
 74
0
 40
0
 40
0
 40
0
 40
0
 40
1
 40
1
 40
1
 40
1
 10
92.273162
 20
186.237180
 30
0.0
 10
92.273162
 20
186.167280
 30
0.0
 10
92.216012
 20
186.110180
 30
0.0
 10
92.146162
 20
186.110180
 30
0.0
  0
SPLINE
  5
2ea
100
AcDbEntity
  8
Layer_2
 62
7
100
AcDbSpline
 70
8
 71
3
 72
8
 73
4
 74
0
 40
0
 40
0
 40
0
 40
0
 40
1
 40
1
 40
1
 40
1
 10
92.146162
 20
186.110180
 30
0.0
 10
92.076312
 20
186.110180
 30
0.0
 10
92.019162
 20
186.052980
 30
0.0
 10
92.019162
 20
185.983180
 30
0.0
  0
SPLINE
  5
2eb
100
AcDbEntity
  8
Layer_2
 62
7
100
AcDbSpline
 70
8
 71
3
 72
8
 73
4
 74
0
 40
0
 40
0
 40
0
 40
0
 40
1
 40
1
 40
1
 40
1
 10
92.019162
 20
185.983180
 30
0.0
 10
92.019162
 20
185.913380
 30
0.0
 10
91.962012
 20
185.856180
 30
0.0
 10
91.892162
 20
185.856180
 30
0.0
  0
SPLINE
  5
2ec
100
AcDbEntity
  8
Layer_2
 62
7
100
AcDbSpline
 70
8
 71
3
 72
8
 73
4
 74
0
 40
0
 40
0
 40
0
 40
0
 40
1
 40
1
 40
1
 40
1
 10
91.892162
 20
185.856180
 30
0.0
 10
91.781313
 20
185.856180
 30
0.0
 10
91.765162
 20
185.409320
 30
0.0
 10
91.765162
 20
182.342510
 30
0.0
  0
LWPOLYLINE
  5
2ed
100
AcDbEntity
  8
Layer_2
 62
7
100
AcDbPolyline
 90
3
 70
0
 10
105.819830
 20
209.055001
 30
0.0
 10
105.819830
 20
208.547001
 30
0.0
 10
105.565830
 20
208.547001
 30
0.0
  0
SPLINE
  5
2ee
100
AcDbEntity
  8
Layer_2
 62
7
100
AcDbSpline
 70
8
 71
3
 72
8
 73
4
 74
0
 40
0
 40
0
 40
0
 40
0
 40
1
 40
1
 40
1
 40
1
 10
92.273162
 20
178.828840
 30
0.0
 10
92.668274
 20
178.828840
 30
0.0
 10
92.781162
 20
178.800640
 30
0.0
 10
92.781162
 20
178.701840
 30
0.0
  0
SPLINE
  5
2ef
100
AcDbEntity
  8
Layer_2
 62
7
100
AcDbSpline
 70
8
 71
3
 72
8
 73
4
 74
0
 40
0
 40
0
 40
0
 40
0
 40
1
 40
1
 40
1
 40
1
 10
92.781162
 20
178.701840
 30
0.0
 10
92.781162
 20
178.596010
 30
0.0
 10
92.950496
 20
178.574840
 30
0.0
 10
93.797162
 20
178.574840
 30
0.0
  0
SPLINE
  5
2f0
100
AcDbEntity
  8
Layer_2
 62
7
100
AcDbSpline
 70
8
 71
3
 72
8
 73
4
 74
0
 40
0
 40
0
 40
0
 40
0
 40
1
 40
1
 40
1
 40
1
 10
93.797162
 20
178.574840
 30
0.0
 10
94.643829
 20
178.574840
 30
0.0
 10
94.813162
 20
178.553640
 30
0.0
 10
94.813162
 20
178.447840
 30
0.0
  0
SPLINE
  5
2f1
100
AcDbEntity
  8
Layer_2
 62
7
100
AcDbSpline
 70
8
 71
3
 72
8
 73
4
 74
0
 40
0
 40
0
 40
0
 40
0
 40
1
 40
1
 40
1
 40
1
 10
94.813162
 20
178.447840
 30
0.0
 10
94.813162
 20
178.344910
 30
0.0
 10
94.949570
 20
178.320840
 30
0.0
 10
95.532829
 20
178.320840
 30
0.0
  0
SPLINE
  5
2f2
100
AcDbEntity
  8
Layer_2
 62
7
100
AcDbSpline
 70
8
 71
3
 72
8
 73
4
 74
0
 40
0
 40
0
 40
0
 40
0
 40
1
 40
1
 40
1
 40
1
 10
95.532829
 20
178.320840
 30
0.0
 10
96.116088
 20
178.320840
 30
0.0
 10
96.252496
 20
178.296740
 30
0.0
 10
96.252496
 20
178.193840
 30
0.0
  0
SPLINE
  5
2f3
100
AcDbEntity
  8
Layer_2
 62
7
100
AcDbSpline
 70
8
 71
3
 72
8
 73
4
 74
0
 40
0
 40
0
 40
0
 40
0
 40
1
 40
1
 40
1
 40
1
 10
96.252496
 20
178.193840
 30
0.0
 10
96.252496
 20
178.092240
 30
0.0
 10
96.379496
 20
178.066840
 30
0.0
 10
96.887496
 20
178.066840
 30
0.0
  0
SPLINE
  5
2f4
100
AcDbEntity
  8
Layer_2
 62
7
100
AcDbSpline
 70
8
 71
3
 72
8
 73
4
 74
0
 40
0
 40
0
 40
0
 40
0
 40
1
 40
1
 40
1
 40
1
 10
96.887496
 20
178.066840
 30
0.0
 10
97.395496
 20
178.066840
 30
0.0
 10
97.522496
 20
178.041440
 30
0.0
 10
97.522496
 20
177.939840
 30
0.0
  0
SPLINE
  5
2f5
100
AcDbEntity
  8
Layer_2
 62
7
100
AcDbSpline
 70
8
 71
3
 72
8
 73
4
 74
0
 40
0
 40
0
 40
0
 40
0
 40
1
 40
1
 40
1
 40
1
 10
97.522496
 20
177.939840
 30
0.0
 10
97.522496
 20
177.838240
 30
0.0
 10
97.649496
 20
177.812840
 30
0.0
 10
98.157496
 20
177.812840
 30
0.0
  0
SPLINE
  5
2f6
100
AcDbEntity
  8
Layer_2
 62
7
100
AcDbSpline
 70
8
 71
3
 72
8
 73
4
 74
0
 40
0
 40
0
 40
0
 40
0
 40
1
 40
1
 40
1
 40
1
 10
98.157496
 20
177.812840
 30
0.0
 10
98.665496
 20
177.812840
 30
0.0
 10
98.792496
 20
177.787440
 30
0.0
 10
98.792496
 20
177.685840
 30
0.0
  0
SPLINE
  5
2f7
100
AcDbEntity
  8
Layer_2
 62
7
100
AcDbSpline
 70
8
 71
3
 72
8
 73
4
 74
0
 40
0
 40
0
 40
0
 40
0
 40
1
 40
1
 40
1
 40
1
 10
98.792496
 20
177.685840
 30
0.0
 10
98.792496
 20
177.587040
 30
0.0
 10
98.905384
 20
177.558840
 30
0.0
 10
99.300496
 20
177.558840
 30
0.0
  0
SPLINE
  5
2f8
100
AcDbEntity
  8
Layer_2
 62
7
100
AcDbSpline
 70
8
 71
3
 72
8
 73
4
 74
0
 40
0
 40
0
 40
0
 40
0
 40
1
 40
1
 40
1
 40
1
 10
99.300496
 20
177.558840
 30
0.0
 10
99.695607
 20
177.558840
 30
0.0
 10
99.808496
 20
177.530640
 30
0.0
 10
99.808496
 20
177.431840
 30
0.0
  0
SPLINE
  5
2f9
100
AcDbEntity
  8
Layer_2
 62
7
100
AcDbSpline
 70
8
 71
3
 72
8
 73
4
 74
0
 40
0
 40
0
 40
0
 40
0
 40
1
 40
1
 40
1
 40
1
 10
99.808496
 20
177.431840
 30
0.0
 10
99.808496
 20
177.334340
 30
0.0
 10
99.916681
 20
177.304840
 30
0.0
 10
100.274170
 20
177.304840
 30
0.0
  0
SPLINE
  5
2fa
100
AcDbEntity
  8
Layer_2
 62
7
100
AcDbSpline
 70
8
 71
3
 72
8
 73
4
 74
0
 40
0
 40
0
 40
0
 40
0
 40
1
 40
1
 40
1
 40
1
 10
100.274170
 20
177.304840
 30
0.0
 10
100.631650
 20
177.304840
 30
0.0
 10
100.739830
 20
177.275340
 30
0.0
 10
100.739830
 20
177.177840
 30
0.0
  0
SPLINE
  5
2fb
100
AcDbEntity
  8
Layer_2
 62
7
100
AcDbSpline
 70
8
 71
3
 72
8
 73
4
 74
0
 40
0
 40
0
 40
0
 40
0
 40
1
 40
1
 40
1
 40
1
 10
100.739830
 20
177.177840
 30
0.0
 10
100.739830
 20
177.083740
 30
0.0
 10
100.838630
 20
177.050840
 30
0.0
 10
101.120830
 20
177.050840
 30
0.0
  0
SPLINE
  5
2fc
100
AcDbEntity
  8
Layer_2
 62
7
100
AcDbSpline
 70
8
 71
3
 72
8
 73
4
 74
0
 40
0
 40
0
 40
0
 40
0
 40
1
 40
1
 40
1
 40
1
 10
101.120830
 20
177.050840
 30
0.0
 10
101.403060
 20
177.050840
 30
0.0
 10
101.501830
 20
177.017940
 30
0.0
 10
101.501830
 20
176.923840
 30
0.0
  0
SPLINE
  5
2fd
100
AcDbEntity
  8
Layer_2
 62
7
100
AcDbSpline
 70
8
 71
3
 72
8
 73
4
 74
0
 40
0
 40
0
 40
0
 40
0
 40
1
 40
1
 40
1
 40
1
 10
101.501830
 20
176.923840
 30
0.0
 10
101.501830
 20
176.829740
 30
0.0
 10
101.600630
 20
176.796840
 30
0.0
 10
101.882830
 20
176.796840
 30
0.0
  0
SPLINE
  5
2fe
100
AcDbEntity
  8
Layer_2
 62
7
100
AcDbSpline
 70
8
 71
3
 72
8
 73
4
 74
0
 40
0
 40
0
 40
0
 40
0
 40
1
 40
1
 40
1
 40
1
 10
101.882830
 20
176.796840
 30
0.0
 10
102.165060
 20
176.796840
 30
0.0
 10
102.263830
 20
176.763940
 30
0.0
 10
102.263830
 20
176.669840
 30
0.0
  0
SPLINE
  5
2ff
100
AcDbEntity
  8
Layer_2
 62
7
100
AcDbSpline
 70
8
 71
3
 72
8
 73
4
 74
0
 40
0
 40
0
 40
0
 40
0
 40
1
 40
1
 40
1
 40
1
 10
102.263830
 20
176.669840
 30
0.0
 10
102.263830
 20
176.575740
 30
0.0
 10
102.362630
 20
176.542840
 30
0.0
 10
102.644830
 20
176.542840
 30
0.0
  0
SPLINE
  5
300
100
AcDbEntity
  8
Layer_2
 62
7
100
AcDbSpline
 70
8
 71
3
 72
8
 73
4
 74
0
 40
0
 40
0
 40
0
 40
0
 40
1
 40
1
 40
1
 40
1
 10
102.644830
 20
176.542840
 30
0.0
 10
102.927060
 20
176.542840
 30
0.0
 10
103.025830
 20
176.509940
 30
0.0
 10
103.025830
 20
176.415840
 30
0.0
  0
SPLINE
  5
301
100
AcDbEntity
  8
Layer_2
 62
7
100
AcDbSpline
 70
8
 71
3
 72
8
 73
4
 74
0
 40
0
 40
0
 40
0
 40
0
 40
1
 40
1
 40
1
 40
1
 10
103.025830
 20
176.415840
 30
0.0
 10
103.025830
 20
176.321740
 30
0.0
 10
103.124630
 20
176.288840
 30
0.0
 10
103.406830
 20
176.288840
 30
0.0
  0
SPLINE
  5
302
100
AcDbEntity
  8
Layer_2
 62
7
100
AcDbSpline
 70
8
 71
3
 72
8
 73
4
 74
0
 40
0
 40
0
 40
0
 40
0
 40
1
 40
1
 40
1
 40
1
 10
103.406830
 20
176.288840
 30
0.0
 10
103.689060
 20
176.288840
 30
0.0
 10
103.787830
 20
176.255940
 30
0.0
 10
103.787830
 20
176.161840
 30
0.0
  0
SPLINE
  5
303
100
AcDbEntity
  8
Layer_2
 62
7
100
AcDbSpline
 70
8
 71
3
 72
8
 73
4
 74
0
 40
0
 40
0
 40
0
 40
0
 40
1
 40
1
 40
1
 40
1
 10
103.787830
 20
176.161840
 30
0.0
 10
103.787830
 20
176.067740
 30
0.0
 10
103.886630
 20
176.034840
 30
0.0
 10
104.168830
 20
176.034840
 30
0.0
  0
SPLINE
  5
304
100
AcDbEntity
  8
Layer_2
 62
7
100
AcDbSpline
 70
8
 71
3
 72
8
 73
4
 74
0
 40
0
 40
0
 40
0
 40
0
 40
1
 40
1
 40
1
 40
1
 10
104.168830
 20
176.034840
 30
0.0
 10
104.378380
 20
176.034840
 30
0.0
 10
104.549830
 20
175.996740
 30
0.0
 10
104.549830
 20
175.950140
 30
0.0
  0
SPLINE
  5
305
100
AcDbEntity
  8
Layer_2
 62
7
100
AcDbSpline
 70
8
 71
3
 72
8
 73
4
 74
0
 40
0
 40
0
 40
0
 40
0
 40
1
 40
1
 40
1
 40
1
 10
104.549830
 20
175.950140
 30
0.0
 10
104.549830
 20
175.903540
 30
0.0
 10
104.664130
 20
175.865440
 30
0.0
 10
104.803830
 20
175.865440
 30
0.0
  0
SPLINE
  5
306
100
AcDbEntity
  8
Layer_2
 62
7
100
AcDbSpline
 70
8
 71
3
 72
8
 73
4
 74
0
 40
0
 40
0
 40
0
 40
0
 40
1
 40
1
 40
1
 40
1
 10
104.803830
 20
175.865440
 30
0.0
 10
104.973170
 20
175.865440
 30
0.0
 10
105.057830
 20
175.823140
 30
0.0
 10
105.057830
 20
175.738440
 30
0.0
  0
SPLINE
  5
307
100
AcDbEntity
  8
Layer_2
 62
7
100
AcDbSpline
 70
8
 71
3
 72
8
 73
4
 74
0
 40
0
 40
0
 40
0
 40
0
 40
1
 40
1
 40
1
 40
1
 10
105.057830
 20
175.738440
 30
0.0
 10
105.057830
 20
175.653740
 30
0.0
 10
105.142530
 20
175.611440
 30
0.0
 10
105.311830
 20
175.611440
 30
0.0
  0
SPLINE
  5
308
100
AcDbEntity
  8
Layer_2
 62
7
100
AcDbSpline
 70
8
 71
3
 72
8
 73
4
 74
0
 40
0
 40
0
 40
0
 40
0
 40
1
 40
1
 40
1
 40
1
 10
105.311830
 20
175.611440
 30
0.0
 10
105.481170
 20
175.611440
 30
0.0
 10
105.565830
 20
175.569140
 30
0.0
 10
105.565830
 20
175.484440
 30
0.0
  0
SPLINE
  5
309
100
AcDbEntity
  8
Layer_2
 62
7
100
AcDbSpline
 70
8
 71
3
 72
8
 73
4
 74
0
 40
0
 40
0
 40
0
 40
0
 40
1
 40
1
 40
1
 40
1
 10
105.565830
 20
175.484440
 30
0.0
 10
105.565830
 20
175.405440
 30
0.0
 10
105.645830
 20
175.357440
 30
0.0
 10
105.777500
 20
175.357440
 30
0.0
  0
SPLINE
  5
30a
100
AcDbEntity
  8
Layer_2
 62
7
100
AcDbSpline
 70
8
 71
3
 72
8
 73
4
 74
0
 40
0
 40
0
 40
0
 40
0
 40
1
 40
1
 40
1
 40
1
 10
105.777500
 20
175.357440
 30
0.0
 10
105.909200
 20
175.357440
 30
0.0
 10
105.989170
 20
175.309440
 30
0.0
 10
105.989170
 20
175.230440
 30
0.0
  0
SPLINE
  5
30b
100
AcDbEntity
  8
Layer_2
 62
7
100
AcDbSpline
 70
8
 71
3
 72
8
 73
4
 74
0
 40
0
 40
0
 40
0
 40
0
 40
1
 40
1
 40
1
 40
1
 10
105.989170
 20
175.230440
 30
0.0
 10
105.989170
 20
175.145740
 30
0.0
 10
106.073870
 20
175.103440
 30
0.0
 10
106.243170
 20
175.103440
 30
0.0
  0
SPLINE
  5
30c
100
AcDbEntity
  8
Layer_2
 62
7
100
AcDbSpline
 70
8
 71
3
 72
8
 73
4
 74
0
 40
0
 40
0
 40
0
 40
0
 40
1
 40
1
 40
1
 40
1
 10
106.243170
 20
175.103440
 30
0.0
 10
106.412500
 20
175.103440
 30
0.0
 10
106.497170
 20
175.061140
 30
0.0
 10
106.497170
 20
174.976440
 30
0.0
  0
SPLINE
  5
30d
100
AcDbEntity
  8
Layer_2
 62
7
100
AcDbSpline
 70
8
 71
3
 72
8
 73
4
 74
0
 40
0
 40
0
 40
0
 40
0
 40
1
 40
1
 40
1
 40
1
 10
106.497170
 20
174.976440
 30
0.0
 10
106.497170
 20
174.891740
 30
0.0
 10
106.581870
 20
174.849440
 30
0.0
 10
106.751170
 20
174.849440
 30
0.0
  0
SPLINE
  5
30e
100
AcDbEntity
  8
Layer_2
 62
7
100
AcDbSpline
 70
8
 71
3
 72
8
 73
4
 74
0
 40
0
 40
0
 40
0
 40
0
 40
1
 40
1
 40
1
 40
1
 10
106.751170
 20
174.849440
 30
0.0
 10
106.920500
 20
174.849440
 30
0.0
 10
107.005170
 20
174.807140
 30
0.0
 10
107.005170
 20
174.722440
 30
0.0
  0
SPLINE
  5
30f
100
AcDbEntity
  8
Layer_2
 62
7
100
AcDbSpline
 70
8
 71
3
 72
8
 73
4
 74
0
 40
0
 40
0
 40
0
 40
0
 40
1
 40
1
 40
1
 40
1
 10
107.005170
 20
174.722440
 30
0.0
 10
107.005170
 20
174.637740
 30
0.0
 10
107.089870
 20
174.595440
 30
0.0
 10
107.259170
 20
174.595440
 30
0.0
  0
SPLINE
  5
310
100
AcDbEntity
  8
Layer_2
 62
7
100
AcDbSpline
 70
8
 71
3
 72
8
 73
4
 74
0
 40
0
 40
0
 40
0
 40
0
 40
1
 40
1
 40
1
 40
1
 10
107.259170
 20
174.595440
 30
0.0
 10
107.428500
 20
174.595440
 30
0.0
 10
107.513170
 20
174.553140
 30
0.0
 10
107.513170
 20
174.468440
 30
0.0
  0
SPLINE
  5
311
100
AcDbEntity
  8
Layer_2
 62
7
100
AcDbSpline
 70
8
 71
3
 72
8
 73
4
 74
0
 40
0
 40
0
 40
0
 40
0
 40
1
 40
1
 40
1
 40
1
 10
107.513170
 20
174.468440
 30
0.0
 10
107.513170
 20
174.383740
 30
0.0
 10
107.597870
 20
174.341440
 30
0.0
 10
107.767170
 20
174.341440
 30
0.0
  0
SPLINE
  5
312
100
AcDbEntity
  8
Layer_2
 62
7
100
AcDbSpline
 70
8
 71
3
 72
8
 73
4
 74
0
 40
0
 40
0
 40
0
 40
0
 40
1
 40
1
 40
1
 40
1
 10
107.767170
 20
174.341440
 30
0.0
 10
107.936500
 20
174.341440
 30
0.0
 10
108.021170
 20
174.299140
 30
0.0
 10
108.021170
 20
174.214440
 30
0.0
  0
SPLINE
  5
313
100
AcDbEntity
  8
Layer_2
 62
7
100
AcDbSpline
 70
8
 71
3
 72
8
 73
4
 74
0
 40
0
 40
0
 40
0
 40
0
 40
1
 40
1
 40
1
 40
1
 10
108.021170
 20
174.214440
 30
0.0
 10
108.021170
 20
174.144640
 30
0.0
 10
108.078370
 20
174.087440
 30
0.0
 10
108.148170
 20
174.087440
 30
0.0
  0
SPLINE
  5
314
100
AcDbEntity
  8
Layer_2
 62
7
100
AcDbSpline
 70
8
 71
3
 72
8
 73
4
 74
0
 40
0
 40
0
 40
0
 40
0
 40
1
 40
1
 40
1
 40
1
 10
108.148170
 20
174.087440
 30
0.0
 10
108.218070
 20
174.087440
 30
0.0
 10
108.275170
 20
174.030340
 30
0.0
 10
108.275170
 20
173.960440
 30
0.0
  0
SPLINE
  5
315
100
AcDbEntity
  8
Layer_2
 62
7
100
AcDbSpline
 70
8
 71
3
 72
8
 73
4
 74
0
 40
0
 40
0
 40
0
 40
0
 40
1
 40
1
 40
1
 40
1
 10
108.275170
 20
173.960440
 30
0.0
 10
108.275170
 20
173.890540
 30
0.0
 10
108.332270
 20
173.833440
 30
0.0
 10
108.402170
 20
173.833440
 30
0.0
  0
SPLINE
  5
316
100
AcDbEntity
  8
Layer_2
 62
7
100
AcDbSpline
 70
8
 71
3
 72
8
 73
4
 74
0
 40
0
 40
0
 40
0
 40
0
 40
1
 40
1
 40
1
 40
1
 10
108.402170
 20
173.833440
 30
0.0
 10
108.514120
 20
173.833440
 30
0.0
 10
108.529170
 20
172.930330
 30
0.0
 10
108.529170
 20
166.213440
 30
0.0
  0
LWPOLYLINE
  5
317
100
AcDbEntity
  8
Layer_2
 62
7
100
AcDbPolyline
 90
3
 70
0
 10
91.765162
 20
182.342510
 30
0.0
 10
91.765162
 20
178.828840
 30
0.0
 10
92.273162
 20
178.828840
 30
0.0
  0
LWPOLYLINE
  5
318
100
AcDbEntity
  8
Layer_2
 62
7
100
AcDbPolyline
 90
5
 70
0
 10
108.529170
 20
166.213440
 30
0.0
 10
108.529170
 20
158.593440
 30
0.0
 10
84.145167
 20
158.593440
 30
0.0
 10
59.761166
 20
158.593440
 30
0.0
 10
59.761166
 20
166.086520
 30
0.0
  0
ENDSEC
  0
SECTION
  2
OBJECTS
  0
DICTIONARY
  5
C
330
0
100
AcDbDictionary
  3
ACAD_GROUP
350
D
  3
ACAD_MLINESTYLE
350
17
  0
DICTIONARY
  5
D
330
C
100
AcDbDictionary
  0
DICTIONARY
  5
1A
330
C
100
AcDbDictionary
  0
DICTIONARY
  5
17
330
C
100
AcDbDictionary
  3
STANDARD
350
18
  0
DICTIONARY
  5
19
330
C
100
AcDbDictionary
  0
ENDSEC
  0
EOF
