<?xml version="1.0" standalone="no"?>
 <!DOCTYPE svg PUBLIC "-//W3C//DTD SVG 1.1//EN" 
 "http://www.w3.org/Graphics/SVG/1.1/DTD/svg11.dtd"> 
<svg
  xmlns:svg="http://www.w3.org/2000/svg"
  xmlns="http://www.w3.org/2000/svg"
  xmlns:xlink="http://www.w3.org/1999/xlink"
  version="1.1"
  width="29.700220cm" height="21.000720cm" viewBox="0 0 116930 82680">
<title>SVG Picture created as galep4-plcc-28-F_Mask.svg date 2021/03/27 06:25:03 </title>
  <desc>Picture generated by PCBNEW </desc>
<g style="fill:#000000; fill-opacity:1;stroke:#000000; stroke-opacity:1;
stroke-linecap:round; stroke-linejoin:round;"
 transform="translate(0 0) scale(1 1)">
</g>
<g style="fill:#000000; fill-opacity:0.0; 
stroke:#000000; stroke-width:-0.000393701; stroke-opacity:1; 
stroke-linecap:round; stroke-linejoin:round;">
<g >
</g>
<g style="fill:#000000; fill-opacity:0.0; 
stroke:#000000; stroke-width:629.921; stroke-opacity:1; 
stroke-linecap:round; stroke-linejoin:round;">
<path d="M70802 30858
L71117 30858
" />
<path d="M64802 45858
L65117 45858
" />
<path d="M70802 31858
L71117 31858
" />
<path d="M64802 44858
L65117 44858
" />
<path d="M70802 32858
L71117 32858
" />
<path d="M64802 43858
L65117 43858
" />
<path d="M70802 33858
L71117 33858
" />
<path d="M64802 42858
L65117 42858
" />
<path d="M70802 34858
L71117 34858
" />
<path d="M64802 41858
L65117 41858
" />
<path d="M70802 35858
L71117 35858
" />
<path d="M64802 40858
L65117 40858
" />
<path d="M70802 36858
L71117 36858
" />
<path d="M64802 39858
L65117 39858
" />
<path d="M70802 37858
L71117 37858
" />
<path d="M64802 38858
L65117 38858
" />
<path d="M70802 38858
L71117 38858
" />
<path d="M64802 37858
L65117 37858
" />
<path d="M70802 39858
L71117 39858
" />
<path d="M64802 36858
L65117 36858
" />
<path d="M70802 40858
L71117 40858
" />
<path d="M64802 35858
L65117 35858
" />
<path d="M70802 41858
L71117 41858
" />
<path d="M64802 34858
L65117 34858
" />
<path d="M70802 42858
L71117 42858
" />
<path d="M64802 33858
L65117 33858
" />
<path d="M70802 43858
L71117 43858
" />
<path d="M64802 32858
L65117 32858
" />
<path d="M70802 44858
L71117 44858
" />
<path d="M64802 31858
L65117 31858
" />
<path d="M70802 45858
L71117 45858
" />
</g>
<g style="fill:#000000; fill-opacity:0.0; 
stroke:#000000; stroke-width:0; stroke-opacity:1; 
stroke-linecap:round; stroke-linejoin:round;">
</g>
<g style="fill:#000000; fill-opacity:1.0; 
stroke:#000000; stroke-width:0; stroke-opacity:1; 
stroke-linecap:round; stroke-linejoin:round;">
<path style="fill:#000000; fill-opacity:1.0; 
stroke:#000000; stroke-width:0; stroke-opacity:1; 
stroke-linecap:round; stroke-linejoin:round;fill-rule:evenodd;"
d="M 64487.4,31173.2
64487.4,30543.3
65432.3,30543.3
65432.3,31173.2
Z" /> 
</g>
<g >
</g>
<g style="fill:#000000; fill-opacity:1.0; 
stroke:#000000; stroke-width:0; stroke-opacity:1; 
stroke-linecap:round; stroke-linejoin:round;">
<path style="fill:#000000; fill-opacity:1.0; 
stroke:#000000; stroke-width:0; stroke-opacity:1; 
stroke-linecap:round; stroke-linejoin:round;fill-rule:evenodd;"
d="M 78137.7,35986
78156.8,35988.8
78175.5,35993.5
78193.6,36000
78211.1,36008.2
78227.6,36018.2
78243.1,36029.7
78257.4,36042.6
78270.3,36056.9
78281.8,36072.4
78291.8,36088.9
78300,36106.4
78306.5,36124.5
78311.2,36143.2
78314,36162.3
78315,36181.6
78315,36418.4
78314,36437.7
78311.2,36456.8
78306.5,36475.5
78300,36493.6
78291.8,36511.1
78281.8,36527.6
78270.3,36543.1
78257.4,36557.4
78243.1,36570.3
78227.6,36581.8
78211.1,36591.8
78193.6,36600
78175.5,36606.5
78156.8,36611.2
78137.7,36614
78118.4,36615
77881.6,36615
77862.3,36614
77843.2,36611.2
77824.5,36606.5
77806.4,36600
77788.9,36591.8
77772.4,36581.8
77756.9,36570.3
77742.6,36557.4
77729.7,36543.1
77718.2,36527.6
77708.2,36511.1
77700,36493.6
77693.5,36475.5
77688.8,36456.8
77686,36437.7
77685,36418.4
77685,36181.6
77686,36162.3
77688.8,36143.2
77693.5,36124.5
77700,36106.4
77708.2,36088.9
77718.2,36072.4
77729.7,36056.9
77742.6,36042.6
77756.9,36029.7
77772.4,36018.2
77788.9,36008.2
77806.4,36000
77824.5,35993.5
77843.2,35988.8
77862.3,35986
77881.6,35985
78118.4,35985
Z" /> 
<path style="fill:#000000; fill-opacity:1.0; 
stroke:#000000; stroke-width:0; stroke-opacity:1; 
stroke-linecap:round; stroke-linejoin:round;fill-rule:evenodd;"
d="M 78137.7,36986
78156.8,36988.8
78175.5,36993.5
78193.6,37000
78211.1,37008.2
78227.6,37018.2
78243.1,37029.7
78257.4,37042.6
78270.3,37056.9
78281.8,37072.4
78291.8,37088.9
78300,37106.4
78306.5,37124.5
78311.2,37143.2
78314,37162.3
78315,37181.6
78315,37418.4
78314,37437.7
78311.2,37456.8
78306.5,37475.5
78300,37493.6
78291.8,37511.1
78281.8,37527.6
78270.3,37543.1
78257.4,37557.4
78243.1,37570.3
78227.6,37581.8
78211.1,37591.8
78193.6,37600
78175.5,37606.5
78156.8,37611.2
78137.7,37614
78118.4,37615
77881.6,37615
77862.3,37614
77843.2,37611.2
77824.5,37606.5
77806.4,37600
77788.9,37591.8
77772.4,37581.8
77756.9,37570.3
77742.6,37557.4
77729.7,37543.1
77718.2,37527.6
77708.2,37511.1
77700,37493.6
77693.5,37475.5
77688.8,37456.8
77686,37437.7
77685,37418.4
77685,37181.6
77686,37162.3
77688.8,37143.2
77693.5,37124.5
77700,37106.4
77708.2,37088.9
77718.2,37072.4
77729.7,37056.9
77742.6,37042.6
77756.9,37029.7
77772.4,37018.2
77788.9,37008.2
77806.4,37000
77824.5,36993.5
77843.2,36988.8
77862.3,36986
77881.6,36985
78118.4,36985
Z" /> 
<path style="fill:#000000; fill-opacity:1.0; 
stroke:#000000; stroke-width:0; stroke-opacity:1; 
stroke-linecap:round; stroke-linejoin:round;fill-rule:evenodd;"
d="M 78137.7,37986
78156.8,37988.8
78175.5,37993.5
78193.6,38000
78211.1,38008.2
78227.6,38018.2
78243.1,38029.7
78257.4,38042.6
78270.3,38056.9
78281.8,38072.4
78291.8,38088.9
78300,38106.4
78306.5,38124.5
78311.2,38143.2
78314,38162.3
78315,38181.6
78315,38418.4
78314,38437.7
78311.2,38456.8
78306.5,38475.5
78300,38493.6
78291.8,38511.1
78281.8,38527.6
78270.3,38543.1
78257.4,38557.4
78243.1,38570.3
78227.6,38581.8
78211.1,38591.8
78193.6,38600
78175.5,38606.5
78156.8,38611.2
78137.7,38614
78118.4,38615
77881.6,38615
77862.3,38614
77843.2,38611.2
77824.5,38606.5
77806.4,38600
77788.9,38591.8
77772.4,38581.8
77756.9,38570.3
77742.6,38557.4
77729.7,38543.1
77718.2,38527.6
77708.2,38511.1
77700,38493.6
77693.5,38475.5
77688.8,38456.8
77686,38437.7
77685,38418.4
77685,38181.6
77686,38162.3
77688.8,38143.2
77693.5,38124.5
77700,38106.4
77708.2,38088.9
77718.2,38072.4
77729.7,38056.9
77742.6,38042.6
77756.9,38029.7
77772.4,38018.2
77788.9,38008.2
77806.4,38000
77824.5,37993.5
77843.2,37988.8
77862.3,37986
77881.6,37985
78118.4,37985
Z" /> 
<path style="fill:#000000; fill-opacity:1.0; 
stroke:#000000; stroke-width:0; stroke-opacity:1; 
stroke-linecap:round; stroke-linejoin:round;fill-rule:evenodd;"
d="M 78137.7,38986
78156.8,38988.8
78175.5,38993.5
78193.6,39000
78211.1,39008.2
78227.6,39018.2
78243.1,39029.7
78257.4,39042.6
78270.3,39056.9
78281.8,39072.4
78291.8,39088.9
78300,39106.4
78306.5,39124.5
78311.2,39143.2
78314,39162.3
78315,39181.6
78315,39418.4
78314,39437.7
78311.2,39456.8
78306.5,39475.5
78300,39493.6
78291.8,39511.1
78281.8,39527.6
78270.3,39543.1
78257.4,39557.4
78243.1,39570.3
78227.6,39581.8
78211.1,39591.8
78193.6,39600
78175.5,39606.5
78156.8,39611.2
78137.7,39614
78118.4,39615
77881.6,39615
77862.3,39614
77843.2,39611.2
77824.5,39606.5
77806.4,39600
77788.9,39591.8
77772.4,39581.8
77756.9,39570.3
77742.6,39557.4
77729.7,39543.1
77718.2,39527.6
77708.2,39511.1
77700,39493.6
77693.5,39475.5
77688.8,39456.8
77686,39437.7
77685,39418.4
77685,39181.6
77686,39162.3
77688.8,39143.2
77693.5,39124.5
77700,39106.4
77708.2,39088.9
77718.2,39072.4
77729.7,39056.9
77742.6,39042.6
77756.9,39029.7
77772.4,39018.2
77788.9,39008.2
77806.4,39000
77824.5,38993.5
77843.2,38988.8
77862.3,38986
77881.6,38985
78118.4,38985
Z" /> 
<path style="fill:#000000; fill-opacity:1.0; 
stroke:#000000; stroke-width:0; stroke-opacity:1; 
stroke-linecap:round; stroke-linejoin:round;fill-rule:evenodd;"
d="M 77137.7,36986
77156.8,36988.8
77175.5,36993.5
77193.6,37000
77211.1,37008.2
77227.6,37018.2
77243.1,37029.7
77257.4,37042.6
77270.3,37056.9
77281.8,37072.4
77291.8,37088.9
77300,37106.4
77306.5,37124.5
77311.2,37143.2
77314,37162.3
77315,37181.6
77315,37418.4
77314,37437.7
77311.2,37456.8
77306.5,37475.5
77300,37493.6
77291.8,37511.1
77281.8,37527.6
77270.3,37543.1
77257.4,37557.4
77243.1,37570.3
77227.6,37581.8
77211.1,37591.8
77193.6,37600
77175.5,37606.5
77156.8,37611.2
77137.7,37614
77118.4,37615
76881.6,37615
76862.3,37614
76843.2,37611.2
76824.5,37606.5
76806.4,37600
76788.9,37591.8
76772.4,37581.8
76756.9,37570.3
76742.6,37557.4
76729.7,37543.1
76718.2,37527.6
76708.2,37511.1
76700,37493.6
76693.5,37475.5
76688.8,37456.8
76686,37437.7
76685,37418.4
76685,37181.6
76686,37162.3
76688.8,37143.2
76693.5,37124.5
76700,37106.4
76708.2,37088.9
76718.2,37072.4
76729.7,37056.9
76742.6,37042.6
76756.9,37029.7
76772.4,37018.2
76788.9,37008.2
76806.4,37000
76824.5,36993.5
76843.2,36988.8
76862.3,36986
76881.6,36985
77118.4,36985
Z" /> 
<path style="fill:#000000; fill-opacity:1.0; 
stroke:#000000; stroke-width:0; stroke-opacity:1; 
stroke-linecap:round; stroke-linejoin:round;fill-rule:evenodd;"
d="M 77137.7,37986
77156.8,37988.8
77175.5,37993.5
77193.6,38000
77211.1,38008.2
77227.6,38018.2
77243.1,38029.7
77257.4,38042.6
77270.3,38056.9
77281.8,38072.4
77291.8,38088.9
77300,38106.4
77306.5,38124.5
77311.2,38143.2
77314,38162.3
77315,38181.6
77315,38418.4
77314,38437.7
77311.2,38456.8
77306.5,38475.5
77300,38493.6
77291.8,38511.1
77281.8,38527.6
77270.3,38543.1
77257.4,38557.4
77243.1,38570.3
77227.6,38581.8
77211.1,38591.8
77193.6,38600
77175.5,38606.5
77156.8,38611.2
77137.7,38614
77118.4,38615
76881.6,38615
76862.3,38614
76843.2,38611.2
76824.5,38606.5
76806.4,38600
76788.9,38591.8
76772.4,38581.8
76756.9,38570.3
76742.6,38557.4
76729.7,38543.1
76718.2,38527.6
76708.2,38511.1
76700,38493.6
76693.5,38475.5
76688.8,38456.8
76686,38437.7
76685,38418.4
76685,38181.6
76686,38162.3
76688.8,38143.2
76693.5,38124.5
76700,38106.4
76708.2,38088.9
76718.2,38072.4
76729.7,38056.9
76742.6,38042.6
76756.9,38029.7
76772.4,38018.2
76788.9,38008.2
76806.4,38000
76824.5,37993.5
76843.2,37988.8
76862.3,37986
76881.6,37985
77118.4,37985
Z" /> 
<path style="fill:#000000; fill-opacity:1.0; 
stroke:#000000; stroke-width:0; stroke-opacity:1; 
stroke-linecap:round; stroke-linejoin:round;fill-rule:evenodd;"
d="M 77137.7,38986
77156.8,38988.8
77175.5,38993.5
77193.6,39000
77211.1,39008.2
77227.6,39018.2
77243.1,39029.7
77257.4,39042.6
77270.3,39056.9
77281.8,39072.4
77291.8,39088.9
77300,39106.4
77306.5,39124.5
77311.2,39143.2
77314,39162.3
77315,39181.6
77315,39418.4
77314,39437.7
77311.2,39456.8
77306.5,39475.5
77300,39493.6
77291.8,39511.1
77281.8,39527.6
77270.3,39543.1
77257.4,39557.4
77243.1,39570.3
77227.6,39581.8
77211.1,39591.8
77193.6,39600
77175.5,39606.5
77156.8,39611.2
77137.7,39614
77118.4,39615
76881.6,39615
76862.3,39614
76843.2,39611.2
76824.5,39606.5
76806.4,39600
76788.9,39591.8
76772.4,39581.8
76756.9,39570.3
76742.6,39557.4
76729.7,39543.1
76718.2,39527.6
76708.2,39511.1
76700,39493.6
76693.5,39475.5
76688.8,39456.8
76686,39437.7
76685,39418.4
76685,39181.6
76686,39162.3
76688.8,39143.2
76693.5,39124.5
76700,39106.4
76708.2,39088.9
76718.2,39072.4
76729.7,39056.9
76742.6,39042.6
76756.9,39029.7
76772.4,39018.2
76788.9,39008.2
76806.4,39000
76824.5,38993.5
76843.2,38988.8
76862.3,38986
76881.6,38985
77118.4,38985
Z" /> 
<path style="fill:#000000; fill-opacity:1.0; 
stroke:#000000; stroke-width:0; stroke-opacity:1; 
stroke-linecap:round; stroke-linejoin:round;fill-rule:evenodd;"
d="M 77137.7,39986
77156.8,39988.8
77175.5,39993.5
77193.6,40000
77211.1,40008.2
77227.6,40018.2
77243.1,40029.7
77257.4,40042.6
77270.3,40056.9
77281.8,40072.4
77291.8,40088.9
77300,40106.4
77306.5,40124.5
77311.2,40143.2
77314,40162.3
77315,40181.6
77315,40418.4
77314,40437.7
77311.2,40456.8
77306.5,40475.5
77300,40493.6
77291.8,40511.1
77281.8,40527.6
77270.3,40543.1
77257.4,40557.4
77243.1,40570.3
77227.6,40581.8
77211.1,40591.8
77193.6,40600
77175.5,40606.5
77156.8,40611.2
77137.7,40614
77118.4,40615
76881.6,40615
76862.3,40614
76843.2,40611.2
76824.5,40606.5
76806.4,40600
76788.9,40591.8
76772.4,40581.8
76756.9,40570.3
76742.6,40557.4
76729.7,40543.1
76718.2,40527.6
76708.2,40511.1
76700,40493.6
76693.5,40475.5
76688.8,40456.8
76686,40437.7
76685,40418.4
76685,40181.6
76686,40162.3
76688.8,40143.2
76693.5,40124.5
76700,40106.4
76708.2,40088.9
76718.2,40072.4
76729.7,40056.9
76742.6,40042.6
76756.9,40029.7
76772.4,40018.2
76788.9,40008.2
76806.4,40000
76824.5,39993.5
76843.2,39988.8
76862.3,39986
76881.6,39985
77118.4,39985
Z" /> 
<path style="fill:#000000; fill-opacity:1.0; 
stroke:#000000; stroke-width:0; stroke-opacity:1; 
stroke-linecap:round; stroke-linejoin:round;fill-rule:evenodd;"
d="M 77137.7,40986
77156.8,40988.8
77175.5,40993.5
77193.6,41000
77211.1,41008.2
77227.6,41018.2
77243.1,41029.7
77257.4,41042.6
77270.3,41056.9
77281.8,41072.4
77291.8,41088.9
77300,41106.4
77306.5,41124.5
77311.2,41143.2
77314,41162.3
77315,41181.6
77315,41418.4
77314,41437.7
77311.2,41456.8
77306.5,41475.5
77300,41493.6
77291.8,41511.1
77281.8,41527.6
77270.3,41543.1
77257.4,41557.4
77243.1,41570.3
77227.6,41581.8
77211.1,41591.8
77193.6,41600
77175.5,41606.5
77156.8,41611.2
77137.7,41614
77118.4,41615
76881.6,41615
76862.3,41614
76843.2,41611.2
76824.5,41606.5
76806.4,41600
76788.9,41591.8
76772.4,41581.8
76756.9,41570.3
76742.6,41557.4
76729.7,41543.1
76718.2,41527.6
76708.2,41511.1
76700,41493.6
76693.5,41475.5
76688.8,41456.8
76686,41437.7
76685,41418.4
76685,41181.6
76686,41162.3
76688.8,41143.2
76693.5,41124.5
76700,41106.4
76708.2,41088.9
76718.2,41072.4
76729.7,41056.9
76742.6,41042.6
76756.9,41029.7
76772.4,41018.2
76788.9,41008.2
76806.4,41000
76824.5,40993.5
76843.2,40988.8
76862.3,40986
76881.6,40985
77118.4,40985
Z" /> 
<path style="fill:#000000; fill-opacity:1.0; 
stroke:#000000; stroke-width:0; stroke-opacity:1; 
stroke-linecap:round; stroke-linejoin:round;fill-rule:evenodd;"
d="M 76137.7,40986
76156.8,40988.8
76175.5,40993.5
76193.6,41000
76211.1,41008.2
76227.6,41018.2
76243.1,41029.7
76257.4,41042.6
76270.3,41056.9
76281.8,41072.4
76291.8,41088.9
76300,41106.4
76306.5,41124.5
76311.2,41143.2
76314,41162.3
76315,41181.6
76315,41418.4
76314,41437.7
76311.2,41456.8
76306.5,41475.5
76300,41493.6
76291.8,41511.1
76281.8,41527.6
76270.3,41543.1
76257.4,41557.4
76243.1,41570.3
76227.6,41581.8
76211.1,41591.8
76193.6,41600
76175.5,41606.5
76156.8,41611.2
76137.7,41614
76118.4,41615
75881.6,41615
75862.3,41614
75843.2,41611.2
75824.5,41606.5
75806.4,41600
75788.9,41591.8
75772.4,41581.8
75756.9,41570.3
75742.6,41557.4
75729.7,41543.1
75718.2,41527.6
75708.2,41511.1
75700,41493.6
75693.5,41475.5
75688.8,41456.8
75686,41437.7
75685,41418.4
75685,41181.6
75686,41162.3
75688.8,41143.2
75693.5,41124.5
75700,41106.4
75708.2,41088.9
75718.2,41072.4
75729.7,41056.9
75742.6,41042.6
75756.9,41029.7
75772.4,41018.2
75788.9,41008.2
75806.4,41000
75824.5,40993.5
75843.2,40988.8
75862.3,40986
75881.6,40985
76118.4,40985
Z" /> 
<path style="fill:#000000; fill-opacity:1.0; 
stroke:#000000; stroke-width:0; stroke-opacity:1; 
stroke-linecap:round; stroke-linejoin:round;fill-rule:evenodd;"
d="M 75137.7,40986
75156.8,40988.8
75175.5,40993.5
75193.6,41000
75211.1,41008.2
75227.6,41018.2
75243.1,41029.7
75257.4,41042.6
75270.3,41056.9
75281.8,41072.4
75291.8,41088.9
75300,41106.4
75306.5,41124.5
75311.2,41143.2
75314,41162.3
75315,41181.6
75315,41418.4
75314,41437.7
75311.2,41456.8
75306.5,41475.5
75300,41493.6
75291.8,41511.1
75281.8,41527.6
75270.3,41543.1
75257.4,41557.4
75243.1,41570.3
75227.6,41581.8
75211.1,41591.8
75193.6,41600
75175.5,41606.5
75156.8,41611.2
75137.7,41614
75118.4,41615
74881.6,41615
74862.3,41614
74843.2,41611.2
74824.5,41606.5
74806.4,41600
74788.9,41591.8
74772.4,41581.8
74756.9,41570.3
74742.6,41557.4
74729.7,41543.1
74718.2,41527.6
74708.2,41511.1
74700,41493.6
74693.5,41475.5
74688.8,41456.8
74686,41437.7
74685,41418.4
74685,41181.6
74686,41162.3
74688.8,41143.2
74693.5,41124.5
74700,41106.4
74708.2,41088.9
74718.2,41072.4
74729.7,41056.9
74742.6,41042.6
74756.9,41029.7
74772.4,41018.2
74788.9,41008.2
74806.4,41000
74824.5,40993.5
74843.2,40988.8
74862.3,40986
74881.6,40985
75118.4,40985
Z" /> 
<path style="fill:#000000; fill-opacity:1.0; 
stroke:#000000; stroke-width:0; stroke-opacity:1; 
stroke-linecap:round; stroke-linejoin:round;fill-rule:evenodd;"
d="M 74137.7,40986
74156.8,40988.8
74175.5,40993.5
74193.6,41000
74211.1,41008.2
74227.6,41018.2
74243.1,41029.7
74257.4,41042.6
74270.3,41056.9
74281.8,41072.4
74291.8,41088.9
74300,41106.4
74306.5,41124.5
74311.2,41143.2
74314,41162.3
74315,41181.6
74315,41418.4
74314,41437.7
74311.2,41456.8
74306.5,41475.5
74300,41493.6
74291.8,41511.1
74281.8,41527.6
74270.3,41543.1
74257.4,41557.4
74243.1,41570.3
74227.6,41581.8
74211.1,41591.8
74193.6,41600
74175.5,41606.5
74156.8,41611.2
74137.7,41614
74118.4,41615
73881.6,41615
73862.3,41614
73843.2,41611.2
73824.5,41606.5
73806.4,41600
73788.9,41591.8
73772.4,41581.8
73756.9,41570.3
73742.6,41557.4
73729.7,41543.1
73718.2,41527.6
73708.2,41511.1
73700,41493.6
73693.5,41475.5
73688.8,41456.8
73686,41437.7
73685,41418.4
73685,41181.6
73686,41162.3
73688.8,41143.2
73693.5,41124.5
73700,41106.4
73708.2,41088.9
73718.2,41072.4
73729.7,41056.9
73742.6,41042.6
73756.9,41029.7
73772.4,41018.2
73788.9,41008.2
73806.4,41000
73824.5,40993.5
73843.2,40988.8
73862.3,40986
73881.6,40985
74118.4,40985
Z" /> 
<path style="fill:#000000; fill-opacity:1.0; 
stroke:#000000; stroke-width:0; stroke-opacity:1; 
stroke-linecap:round; stroke-linejoin:round;fill-rule:evenodd;"
d="M 78137.7,39986
78156.8,39988.8
78175.5,39993.5
78193.6,40000
78211.1,40008.2
78227.6,40018.2
78243.1,40029.7
78257.4,40042.6
78270.3,40056.9
78281.8,40072.4
78291.8,40088.9
78300,40106.4
78306.5,40124.5
78311.2,40143.2
78314,40162.3
78315,40181.6
78315,40418.4
78314,40437.7
78311.2,40456.8
78306.5,40475.5
78300,40493.6
78291.8,40511.1
78281.8,40527.6
78270.3,40543.1
78257.4,40557.4
78243.1,40570.3
78227.6,40581.8
78211.1,40591.8
78193.6,40600
78175.5,40606.5
78156.8,40611.2
78137.7,40614
78118.4,40615
77881.6,40615
77862.3,40614
77843.2,40611.2
77824.5,40606.5
77806.4,40600
77788.9,40591.8
77772.4,40581.8
77756.9,40570.3
77742.6,40557.4
77729.7,40543.1
77718.2,40527.6
77708.2,40511.1
77700,40493.6
77693.5,40475.5
77688.8,40456.8
77686,40437.7
77685,40418.4
77685,40181.6
77686,40162.3
77688.8,40143.2
77693.5,40124.5
77700,40106.4
77708.2,40088.9
77718.2,40072.4
77729.7,40056.9
77742.6,40042.6
77756.9,40029.7
77772.4,40018.2
77788.9,40008.2
77806.4,40000
77824.5,39993.5
77843.2,39988.8
77862.3,39986
77881.6,39985
78118.4,39985
Z" /> 
<path style="fill:#000000; fill-opacity:1.0; 
stroke:#000000; stroke-width:0; stroke-opacity:1; 
stroke-linecap:round; stroke-linejoin:round;fill-rule:evenodd;"
d="M 76137.7,39986
76156.8,39988.8
76175.5,39993.5
76193.6,40000
76211.1,40008.2
76227.6,40018.2
76243.1,40029.7
76257.4,40042.6
76270.3,40056.9
76281.8,40072.4
76291.8,40088.9
76300,40106.4
76306.5,40124.5
76311.2,40143.2
76314,40162.3
76315,40181.6
76315,40418.4
76314,40437.7
76311.2,40456.8
76306.5,40475.5
76300,40493.6
76291.8,40511.1
76281.8,40527.6
76270.3,40543.1
76257.4,40557.4
76243.1,40570.3
76227.6,40581.8
76211.1,40591.8
76193.6,40600
76175.5,40606.5
76156.8,40611.2
76137.7,40614
76118.4,40615
75881.6,40615
75862.3,40614
75843.2,40611.2
75824.5,40606.5
75806.4,40600
75788.9,40591.8
75772.4,40581.8
75756.9,40570.3
75742.6,40557.4
75729.7,40543.1
75718.2,40527.6
75708.2,40511.1
75700,40493.6
75693.5,40475.5
75688.8,40456.8
75686,40437.7
75685,40418.4
75685,40181.6
75686,40162.3
75688.8,40143.2
75693.5,40124.5
75700,40106.4
75708.2,40088.9
75718.2,40072.4
75729.7,40056.9
75742.6,40042.6
75756.9,40029.7
75772.4,40018.2
75788.9,40008.2
75806.4,40000
75824.5,39993.5
75843.2,39988.8
75862.3,39986
75881.6,39985
76118.4,39985
Z" /> 
<path style="fill:#000000; fill-opacity:1.0; 
stroke:#000000; stroke-width:0; stroke-opacity:1; 
stroke-linecap:round; stroke-linejoin:round;fill-rule:evenodd;"
d="M 75137.7,39986
75156.8,39988.8
75175.5,39993.5
75193.6,40000
75211.1,40008.2
75227.6,40018.2
75243.1,40029.7
75257.4,40042.6
75270.3,40056.9
75281.8,40072.4
75291.8,40088.9
75300,40106.4
75306.5,40124.5
75311.2,40143.2
75314,40162.3
75315,40181.6
75315,40418.4
75314,40437.7
75311.2,40456.8
75306.5,40475.5
75300,40493.6
75291.8,40511.1
75281.8,40527.6
75270.3,40543.1
75257.4,40557.4
75243.1,40570.3
75227.6,40581.8
75211.1,40591.8
75193.6,40600
75175.5,40606.5
75156.8,40611.2
75137.7,40614
75118.4,40615
74881.6,40615
74862.3,40614
74843.2,40611.2
74824.5,40606.5
74806.4,40600
74788.9,40591.8
74772.4,40581.8
74756.9,40570.3
74742.6,40557.4
74729.7,40543.1
74718.2,40527.6
74708.2,40511.1
74700,40493.6
74693.5,40475.5
74688.8,40456.8
74686,40437.7
74685,40418.4
74685,40181.6
74686,40162.3
74688.8,40143.2
74693.5,40124.5
74700,40106.4
74708.2,40088.9
74718.2,40072.4
74729.7,40056.9
74742.6,40042.6
74756.9,40029.7
74772.4,40018.2
74788.9,40008.2
74806.4,40000
74824.5,39993.5
74843.2,39988.8
74862.3,39986
74881.6,39985
75118.4,39985
Z" /> 
<path style="fill:#000000; fill-opacity:1.0; 
stroke:#000000; stroke-width:0; stroke-opacity:1; 
stroke-linecap:round; stroke-linejoin:round;fill-rule:evenodd;"
d="M 74137.7,39986
74156.8,39988.8
74175.5,39993.5
74193.6,40000
74211.1,40008.2
74227.6,40018.2
74243.1,40029.7
74257.4,40042.6
74270.3,40056.9
74281.8,40072.4
74291.8,40088.9
74300,40106.4
74306.5,40124.5
74311.2,40143.2
74314,40162.3
74315,40181.6
74315,40418.4
74314,40437.7
74311.2,40456.8
74306.5,40475.5
74300,40493.6
74291.8,40511.1
74281.8,40527.6
74270.3,40543.1
74257.4,40557.4
74243.1,40570.3
74227.6,40581.8
74211.1,40591.8
74193.6,40600
74175.5,40606.5
74156.8,40611.2
74137.7,40614
74118.4,40615
73881.6,40615
73862.3,40614
73843.2,40611.2
73824.5,40606.5
73806.4,40600
73788.9,40591.8
73772.4,40581.8
73756.9,40570.3
73742.6,40557.4
73729.7,40543.1
73718.2,40527.6
73708.2,40511.1
73700,40493.6
73693.5,40475.5
73688.8,40456.8
73686,40437.7
73685,40418.4
73685,40181.6
73686,40162.3
73688.8,40143.2
73693.5,40124.5
73700,40106.4
73708.2,40088.9
73718.2,40072.4
73729.7,40056.9
73742.6,40042.6
73756.9,40029.7
73772.4,40018.2
73788.9,40008.2
73806.4,40000
73824.5,39993.5
73843.2,39988.8
73862.3,39986
73881.6,39985
74118.4,39985
Z" /> 
<path style="fill:#000000; fill-opacity:1.0; 
stroke:#000000; stroke-width:0; stroke-opacity:1; 
stroke-linecap:round; stroke-linejoin:round;fill-rule:evenodd;"
d="M 73137.7,39986
73156.8,39988.8
73175.5,39993.5
73193.6,40000
73211.1,40008.2
73227.6,40018.2
73243.1,40029.7
73257.4,40042.6
73270.3,40056.9
73281.8,40072.4
73291.8,40088.9
73300,40106.4
73306.5,40124.5
73311.2,40143.2
73314,40162.3
73315,40181.6
73315,40418.4
73314,40437.7
73311.2,40456.8
73306.5,40475.5
73300,40493.6
73291.8,40511.1
73281.8,40527.6
73270.3,40543.1
73257.4,40557.4
73243.1,40570.3
73227.6,40581.8
73211.1,40591.8
73193.6,40600
73175.5,40606.5
73156.8,40611.2
73137.7,40614
73118.4,40615
72881.6,40615
72862.3,40614
72843.2,40611.2
72824.5,40606.5
72806.4,40600
72788.9,40591.8
72772.4,40581.8
72756.9,40570.3
72742.6,40557.4
72729.7,40543.1
72718.2,40527.6
72708.2,40511.1
72700,40493.6
72693.5,40475.5
72688.8,40456.8
72686,40437.7
72685,40418.4
72685,40181.6
72686,40162.3
72688.8,40143.2
72693.5,40124.5
72700,40106.4
72708.2,40088.9
72718.2,40072.4
72729.7,40056.9
72742.6,40042.6
72756.9,40029.7
72772.4,40018.2
72788.9,40008.2
72806.4,40000
72824.5,39993.5
72843.2,39988.8
72862.3,39986
72881.6,39985
73118.4,39985
Z" /> 
<path style="fill:#000000; fill-opacity:1.0; 
stroke:#000000; stroke-width:0; stroke-opacity:1; 
stroke-linecap:round; stroke-linejoin:round;fill-rule:evenodd;"
d="M 73137.7,38986
73156.8,38988.8
73175.5,38993.5
73193.6,39000
73211.1,39008.2
73227.6,39018.2
73243.1,39029.7
73257.4,39042.6
73270.3,39056.9
73281.8,39072.4
73291.8,39088.9
73300,39106.4
73306.5,39124.5
73311.2,39143.2
73314,39162.3
73315,39181.6
73315,39418.4
73314,39437.7
73311.2,39456.8
73306.5,39475.5
73300,39493.6
73291.8,39511.1
73281.8,39527.6
73270.3,39543.1
73257.4,39557.4
73243.1,39570.3
73227.6,39581.8
73211.1,39591.8
73193.6,39600
73175.5,39606.5
73156.8,39611.2
73137.7,39614
73118.4,39615
72881.6,39615
72862.3,39614
72843.2,39611.2
72824.5,39606.5
72806.4,39600
72788.9,39591.8
72772.4,39581.8
72756.9,39570.3
72742.6,39557.4
72729.7,39543.1
72718.2,39527.6
72708.2,39511.1
72700,39493.6
72693.5,39475.5
72688.8,39456.8
72686,39437.7
72685,39418.4
72685,39181.6
72686,39162.3
72688.8,39143.2
72693.5,39124.5
72700,39106.4
72708.2,39088.9
72718.2,39072.4
72729.7,39056.9
72742.6,39042.6
72756.9,39029.7
72772.4,39018.2
72788.9,39008.2
72806.4,39000
72824.5,38993.5
72843.2,38988.8
72862.3,38986
72881.6,38985
73118.4,38985
Z" /> 
<path style="fill:#000000; fill-opacity:1.0; 
stroke:#000000; stroke-width:0; stroke-opacity:1; 
stroke-linecap:round; stroke-linejoin:round;fill-rule:evenodd;"
d="M 73137.7,37986
73156.8,37988.8
73175.5,37993.5
73193.6,38000
73211.1,38008.2
73227.6,38018.2
73243.1,38029.7
73257.4,38042.6
73270.3,38056.9
73281.8,38072.4
73291.8,38088.9
73300,38106.4
73306.5,38124.5
73311.2,38143.2
73314,38162.3
73315,38181.6
73315,38418.4
73314,38437.7
73311.2,38456.8
73306.5,38475.5
73300,38493.6
73291.8,38511.1
73281.8,38527.6
73270.3,38543.1
73257.4,38557.4
73243.1,38570.3
73227.6,38581.8
73211.1,38591.8
73193.6,38600
73175.5,38606.5
73156.8,38611.2
73137.7,38614
73118.4,38615
72881.6,38615
72862.3,38614
72843.2,38611.2
72824.5,38606.5
72806.4,38600
72788.9,38591.8
72772.4,38581.8
72756.9,38570.3
72742.6,38557.4
72729.7,38543.1
72718.2,38527.6
72708.2,38511.1
72700,38493.6
72693.5,38475.5
72688.8,38456.8
72686,38437.7
72685,38418.4
72685,38181.6
72686,38162.3
72688.8,38143.2
72693.5,38124.5
72700,38106.4
72708.2,38088.9
72718.2,38072.4
72729.7,38056.9
72742.6,38042.6
72756.9,38029.7
72772.4,38018.2
72788.9,38008.2
72806.4,38000
72824.5,37993.5
72843.2,37988.8
72862.3,37986
72881.6,37985
73118.4,37985
Z" /> 
<path style="fill:#000000; fill-opacity:1.0; 
stroke:#000000; stroke-width:0; stroke-opacity:1; 
stroke-linecap:round; stroke-linejoin:round;fill-rule:evenodd;"
d="M 73137.7,36986
73156.8,36988.8
73175.5,36993.5
73193.6,37000
73211.1,37008.2
73227.6,37018.2
73243.1,37029.7
73257.4,37042.6
73270.3,37056.9
73281.8,37072.4
73291.8,37088.9
73300,37106.4
73306.5,37124.5
73311.2,37143.2
73314,37162.3
73315,37181.6
73315,37418.4
73314,37437.7
73311.2,37456.8
73306.5,37475.5
73300,37493.6
73291.8,37511.1
73281.8,37527.6
73270.3,37543.1
73257.4,37557.4
73243.1,37570.3
73227.6,37581.8
73211.1,37591.8
73193.6,37600
73175.5,37606.5
73156.8,37611.2
73137.7,37614
73118.4,37615
72881.6,37615
72862.3,37614
72843.2,37611.2
72824.5,37606.5
72806.4,37600
72788.9,37591.8
72772.4,37581.8
72756.9,37570.3
72742.6,37557.4
72729.7,37543.1
72718.2,37527.6
72708.2,37511.1
72700,37493.6
72693.5,37475.5
72688.8,37456.8
72686,37437.7
72685,37418.4
72685,37181.6
72686,37162.3
72688.8,37143.2
72693.5,37124.5
72700,37106.4
72708.2,37088.9
72718.2,37072.4
72729.7,37056.9
72742.6,37042.6
72756.9,37029.7
72772.4,37018.2
72788.9,37008.2
72806.4,37000
72824.5,36993.5
72843.2,36988.8
72862.3,36986
72881.6,36985
73118.4,36985
Z" /> 
<path style="fill:#000000; fill-opacity:1.0; 
stroke:#000000; stroke-width:0; stroke-opacity:1; 
stroke-linecap:round; stroke-linejoin:round;fill-rule:evenodd;"
d="M 73137.7,35986
73156.8,35988.8
73175.5,35993.5
73193.6,36000
73211.1,36008.2
73227.6,36018.2
73243.1,36029.7
73257.4,36042.6
73270.3,36056.9
73281.8,36072.4
73291.8,36088.9
73300,36106.4
73306.5,36124.5
73311.2,36143.2
73314,36162.3
73315,36181.6
73315,36418.4
73314,36437.7
73311.2,36456.8
73306.5,36475.5
73300,36493.6
73291.8,36511.1
73281.8,36527.6
73270.3,36543.1
73257.4,36557.4
73243.1,36570.3
73227.6,36581.8
73211.1,36591.8
73193.6,36600
73175.5,36606.5
73156.8,36611.2
73137.7,36614
73118.4,36615
72881.6,36615
72862.3,36614
72843.2,36611.2
72824.5,36606.5
72806.4,36600
72788.9,36591.8
72772.4,36581.8
72756.9,36570.3
72742.6,36557.4
72729.7,36543.1
72718.2,36527.6
72708.2,36511.1
72700,36493.6
72693.5,36475.5
72688.8,36456.8
72686,36437.7
72685,36418.4
72685,36181.6
72686,36162.3
72688.8,36143.2
72693.5,36124.5
72700,36106.4
72708.2,36088.9
72718.2,36072.4
72729.7,36056.9
72742.6,36042.6
72756.9,36029.7
72772.4,36018.2
72788.9,36008.2
72806.4,36000
72824.5,35993.5
72843.2,35988.8
72862.3,35986
72881.6,35985
73118.4,35985
Z" /> 
<path style="fill:#000000; fill-opacity:1.0; 
stroke:#000000; stroke-width:0; stroke-opacity:1; 
stroke-linecap:round; stroke-linejoin:round;fill-rule:evenodd;"
d="M 74137.7,38986
74156.8,38988.8
74175.5,38993.5
74193.6,39000
74211.1,39008.2
74227.6,39018.2
74243.1,39029.7
74257.4,39042.6
74270.3,39056.9
74281.8,39072.4
74291.8,39088.9
74300,39106.4
74306.5,39124.5
74311.2,39143.2
74314,39162.3
74315,39181.6
74315,39418.4
74314,39437.7
74311.2,39456.8
74306.5,39475.5
74300,39493.6
74291.8,39511.1
74281.8,39527.6
74270.3,39543.1
74257.4,39557.4
74243.1,39570.3
74227.6,39581.8
74211.1,39591.8
74193.6,39600
74175.5,39606.5
74156.8,39611.2
74137.7,39614
74118.4,39615
73881.6,39615
73862.3,39614
73843.2,39611.2
73824.5,39606.5
73806.4,39600
73788.9,39591.8
73772.4,39581.8
73756.9,39570.3
73742.6,39557.4
73729.7,39543.1
73718.2,39527.6
73708.2,39511.1
73700,39493.6
73693.5,39475.5
73688.8,39456.8
73686,39437.7
73685,39418.4
73685,39181.6
73686,39162.3
73688.8,39143.2
73693.5,39124.5
73700,39106.4
73708.2,39088.9
73718.2,39072.4
73729.7,39056.9
73742.6,39042.6
73756.9,39029.7
73772.4,39018.2
73788.9,39008.2
73806.4,39000
73824.5,38993.5
73843.2,38988.8
73862.3,38986
73881.6,38985
74118.4,38985
Z" /> 
<path style="fill:#000000; fill-opacity:1.0; 
stroke:#000000; stroke-width:0; stroke-opacity:1; 
stroke-linecap:round; stroke-linejoin:round;fill-rule:evenodd;"
d="M 74137.7,37986
74156.8,37988.8
74175.5,37993.5
74193.6,38000
74211.1,38008.2
74227.6,38018.2
74243.1,38029.7
74257.4,38042.6
74270.3,38056.9
74281.8,38072.4
74291.8,38088.9
74300,38106.4
74306.5,38124.5
74311.2,38143.2
74314,38162.3
74315,38181.6
74315,38418.4
74314,38437.7
74311.2,38456.8
74306.5,38475.5
74300,38493.6
74291.8,38511.1
74281.8,38527.6
74270.3,38543.1
74257.4,38557.4
74243.1,38570.3
74227.6,38581.8
74211.1,38591.8
74193.6,38600
74175.5,38606.5
74156.8,38611.2
74137.7,38614
74118.4,38615
73881.6,38615
73862.3,38614
73843.2,38611.2
73824.5,38606.5
73806.4,38600
73788.9,38591.8
73772.4,38581.8
73756.9,38570.3
73742.6,38557.4
73729.7,38543.1
73718.2,38527.6
73708.2,38511.1
73700,38493.6
73693.5,38475.5
73688.8,38456.8
73686,38437.7
73685,38418.4
73685,38181.6
73686,38162.3
73688.8,38143.2
73693.5,38124.5
73700,38106.4
73708.2,38088.9
73718.2,38072.4
73729.7,38056.9
73742.6,38042.6
73756.9,38029.7
73772.4,38018.2
73788.9,38008.2
73806.4,38000
73824.5,37993.5
73843.2,37988.8
73862.3,37986
73881.6,37985
74118.4,37985
Z" /> 
<path style="fill:#000000; fill-opacity:1.0; 
stroke:#000000; stroke-width:0; stroke-opacity:1; 
stroke-linecap:round; stroke-linejoin:round;fill-rule:evenodd;"
d="M 74137.7,36986
74156.8,36988.8
74175.5,36993.5
74193.6,37000
74211.1,37008.2
74227.6,37018.2
74243.1,37029.7
74257.4,37042.6
74270.3,37056.9
74281.8,37072.4
74291.8,37088.9
74300,37106.4
74306.5,37124.5
74311.2,37143.2
74314,37162.3
74315,37181.6
74315,37418.4
74314,37437.7
74311.2,37456.8
74306.5,37475.5
74300,37493.6
74291.8,37511.1
74281.8,37527.6
74270.3,37543.1
74257.4,37557.4
74243.1,37570.3
74227.6,37581.8
74211.1,37591.8
74193.6,37600
74175.5,37606.5
74156.8,37611.2
74137.7,37614
74118.4,37615
73881.6,37615
73862.3,37614
73843.2,37611.2
73824.5,37606.5
73806.4,37600
73788.9,37591.8
73772.4,37581.8
73756.9,37570.3
73742.6,37557.4
73729.7,37543.1
73718.2,37527.6
73708.2,37511.1
73700,37493.6
73693.5,37475.5
73688.8,37456.8
73686,37437.7
73685,37418.4
73685,37181.6
73686,37162.3
73688.8,37143.2
73693.5,37124.5
73700,37106.4
73708.2,37088.9
73718.2,37072.4
73729.7,37056.9
73742.6,37042.6
73756.9,37029.7
73772.4,37018.2
73788.9,37008.2
73806.4,37000
73824.5,36993.5
73843.2,36988.8
73862.3,36986
73881.6,36985
74118.4,36985
Z" /> 
<path style="fill:#000000; fill-opacity:1.0; 
stroke:#000000; stroke-width:0; stroke-opacity:1; 
stroke-linecap:round; stroke-linejoin:round;fill-rule:evenodd;"
d="M 74137.7,35986
74156.8,35988.8
74175.5,35993.5
74193.6,36000
74211.1,36008.2
74227.6,36018.2
74243.1,36029.7
74257.4,36042.6
74270.3,36056.9
74281.8,36072.4
74291.8,36088.9
74300,36106.4
74306.5,36124.5
74311.2,36143.2
74314,36162.3
74315,36181.6
74315,36418.4
74314,36437.7
74311.2,36456.8
74306.5,36475.5
74300,36493.6
74291.8,36511.1
74281.8,36527.6
74270.3,36543.1
74257.4,36557.4
74243.1,36570.3
74227.6,36581.8
74211.1,36591.8
74193.6,36600
74175.5,36606.5
74156.8,36611.2
74137.7,36614
74118.4,36615
73881.6,36615
73862.3,36614
73843.2,36611.2
73824.5,36606.5
73806.4,36600
73788.9,36591.8
73772.4,36581.8
73756.9,36570.3
73742.6,36557.4
73729.7,36543.1
73718.2,36527.6
73708.2,36511.1
73700,36493.6
73693.5,36475.5
73688.8,36456.8
73686,36437.7
73685,36418.4
73685,36181.6
73686,36162.3
73688.8,36143.2
73693.5,36124.5
73700,36106.4
73708.2,36088.9
73718.2,36072.4
73729.7,36056.9
73742.6,36042.6
73756.9,36029.7
73772.4,36018.2
73788.9,36008.2
73806.4,36000
73824.5,35993.5
73843.2,35988.8
73862.3,35986
73881.6,35985
74118.4,35985
Z" /> 
<path style="fill:#000000; fill-opacity:1.0; 
stroke:#000000; stroke-width:0; stroke-opacity:1; 
stroke-linecap:round; stroke-linejoin:round;fill-rule:evenodd;"
d="M 77137.7,34986
77156.8,34988.8
77175.5,34993.5
77193.6,35000
77211.1,35008.2
77227.6,35018.2
77243.1,35029.7
77257.4,35042.6
77270.3,35056.9
77281.8,35072.4
77291.8,35088.9
77300,35106.4
77306.5,35124.5
77311.2,35143.2
77314,35162.3
77315,35181.6
77315,35418.4
77314,35437.7
77311.2,35456.8
77306.5,35475.5
77300,35493.6
77291.8,35511.1
77281.8,35527.6
77270.3,35543.1
77257.4,35557.4
77243.1,35570.3
77227.6,35581.8
77211.1,35591.8
77193.6,35600
77175.5,35606.5
77156.8,35611.2
77137.7,35614
77118.4,35615
76881.6,35615
76862.3,35614
76843.2,35611.2
76824.5,35606.5
76806.4,35600
76788.9,35591.8
76772.4,35581.8
76756.9,35570.3
76742.6,35557.4
76729.7,35543.1
76718.2,35527.6
76708.2,35511.1
76700,35493.6
76693.5,35475.5
76688.8,35456.8
76686,35437.7
76685,35418.4
76685,35181.6
76686,35162.3
76688.8,35143.2
76693.5,35124.5
76700,35106.4
76708.2,35088.9
76718.2,35072.4
76729.7,35056.9
76742.6,35042.6
76756.9,35029.7
76772.4,35018.2
76788.9,35008.2
76806.4,35000
76824.5,34993.5
76843.2,34988.8
76862.3,34986
76881.6,34985
77118.4,34985
Z" /> 
<path style="fill:#000000; fill-opacity:1.0; 
stroke:#000000; stroke-width:0; stroke-opacity:1; 
stroke-linecap:round; stroke-linejoin:round;fill-rule:evenodd;"
d="M 76137.7,34986
76156.8,34988.8
76175.5,34993.5
76193.6,35000
76211.1,35008.2
76227.6,35018.2
76243.1,35029.7
76257.4,35042.6
76270.3,35056.9
76281.8,35072.4
76291.8,35088.9
76300,35106.4
76306.5,35124.5
76311.2,35143.2
76314,35162.3
76315,35181.6
76315,35418.4
76314,35437.7
76311.2,35456.8
76306.5,35475.5
76300,35493.6
76291.8,35511.1
76281.8,35527.6
76270.3,35543.1
76257.4,35557.4
76243.1,35570.3
76227.6,35581.8
76211.1,35591.8
76193.6,35600
76175.5,35606.5
76156.8,35611.2
76137.7,35614
76118.4,35615
75881.6,35615
75862.3,35614
75843.2,35611.2
75824.5,35606.5
75806.4,35600
75788.9,35591.8
75772.4,35581.8
75756.9,35570.3
75742.6,35557.4
75729.7,35543.1
75718.2,35527.6
75708.2,35511.1
75700,35493.6
75693.5,35475.5
75688.8,35456.8
75686,35437.7
75685,35418.4
75685,35181.6
75686,35162.3
75688.8,35143.2
75693.5,35124.5
75700,35106.4
75708.2,35088.9
75718.2,35072.4
75729.7,35056.9
75742.6,35042.6
75756.9,35029.7
75772.4,35018.2
75788.9,35008.2
75806.4,35000
75824.5,34993.5
75843.2,34988.8
75862.3,34986
75881.6,34985
76118.4,34985
Z" /> 
<path style="fill:#000000; fill-opacity:1.0; 
stroke:#000000; stroke-width:0; stroke-opacity:1; 
stroke-linecap:round; stroke-linejoin:round;fill-rule:evenodd;"
d="M 74137.7,34986
74156.8,34988.8
74175.5,34993.5
74193.6,35000
74211.1,35008.2
74227.6,35018.2
74243.1,35029.7
74257.4,35042.6
74270.3,35056.9
74281.8,35072.4
74291.8,35088.9
74300,35106.4
74306.5,35124.5
74311.2,35143.2
74314,35162.3
74315,35181.6
74315,35418.4
74314,35437.7
74311.2,35456.8
74306.5,35475.5
74300,35493.6
74291.8,35511.1
74281.8,35527.6
74270.3,35543.1
74257.4,35557.4
74243.1,35570.3
74227.6,35581.8
74211.1,35591.8
74193.6,35600
74175.5,35606.5
74156.8,35611.2
74137.7,35614
74118.4,35615
73881.6,35615
73862.3,35614
73843.2,35611.2
73824.5,35606.5
73806.4,35600
73788.9,35591.8
73772.4,35581.8
73756.9,35570.3
73742.6,35557.4
73729.7,35543.1
73718.2,35527.6
73708.2,35511.1
73700,35493.6
73693.5,35475.5
73688.8,35456.8
73686,35437.7
73685,35418.4
73685,35181.6
73686,35162.3
73688.8,35143.2
73693.5,35124.5
73700,35106.4
73708.2,35088.9
73718.2,35072.4
73729.7,35056.9
73742.6,35042.6
73756.9,35029.7
73772.4,35018.2
73788.9,35008.2
73806.4,35000
73824.5,34993.5
73843.2,34988.8
73862.3,34986
73881.6,34985
74118.4,34985
Z" /> 
<path style="fill:#000000; fill-opacity:1.0; 
stroke:#000000; stroke-width:0; stroke-opacity:1; 
stroke-linecap:round; stroke-linejoin:round;fill-rule:evenodd;"
d="M 75137.7,34986
75156.8,34988.8
75175.5,34993.5
75193.6,35000
75211.1,35008.2
75227.6,35018.2
75243.1,35029.7
75257.4,35042.6
75270.3,35056.9
75281.8,35072.4
75291.8,35088.9
75300,35106.4
75306.5,35124.5
75311.2,35143.2
75314,35162.3
75315,35181.6
75315,35418.4
75314,35437.7
75311.2,35456.8
75306.5,35475.5
75300,35493.6
75291.8,35511.1
75281.8,35527.6
75270.3,35543.1
75257.4,35557.4
75243.1,35570.3
75227.6,35581.8
75211.1,35591.8
75193.6,35600
75175.5,35606.5
75156.8,35611.2
75137.7,35614
75118.4,35615
74881.6,35615
74862.3,35614
74843.2,35611.2
74824.5,35606.5
74806.4,35600
74788.9,35591.8
74772.4,35581.8
74756.9,35570.3
74742.6,35557.4
74729.7,35543.1
74718.2,35527.6
74708.2,35511.1
74700,35493.6
74693.5,35475.5
74688.8,35456.8
74686,35437.7
74685,35418.4
74685,35181.6
74686,35162.3
74688.8,35143.2
74693.5,35124.5
74700,35106.4
74708.2,35088.9
74718.2,35072.4
74729.7,35056.9
74742.6,35042.6
74756.9,35029.7
74772.4,35018.2
74788.9,35008.2
74806.4,35000
74824.5,34993.5
74843.2,34988.8
74862.3,34986
74881.6,34985
75118.4,34985
Z" /> 
<path style="fill:#000000; fill-opacity:1.0; 
stroke:#000000; stroke-width:0; stroke-opacity:1; 
stroke-linecap:round; stroke-linejoin:round;fill-rule:evenodd;"
d="M 77137.7,35986
77156.8,35988.8
77175.5,35993.5
77193.6,36000
77211.1,36008.2
77227.6,36018.2
77243.1,36029.7
77257.4,36042.6
77270.3,36056.9
77281.8,36072.4
77291.8,36088.9
77300,36106.4
77306.5,36124.5
77311.2,36143.2
77314,36162.3
77315,36181.6
77315,36418.4
77314,36437.7
77311.2,36456.8
77306.5,36475.5
77300,36493.6
77291.8,36511.1
77281.8,36527.6
77270.3,36543.1
77257.4,36557.4
77243.1,36570.3
77227.6,36581.8
77211.1,36591.8
77193.6,36600
77175.5,36606.5
77156.8,36611.2
77137.7,36614
77118.4,36615
76881.6,36615
76862.3,36614
76843.2,36611.2
76824.5,36606.5
76806.4,36600
76788.9,36591.8
76772.4,36581.8
76756.9,36570.3
76742.6,36557.4
76729.7,36543.1
76718.2,36527.6
76708.2,36511.1
76700,36493.6
76693.5,36475.5
76688.8,36456.8
76686,36437.7
76685,36418.4
76685,36181.6
76686,36162.3
76688.8,36143.2
76693.5,36124.5
76700,36106.4
76708.2,36088.9
76718.2,36072.4
76729.7,36056.9
76742.6,36042.6
76756.9,36029.7
76772.4,36018.2
76788.9,36008.2
76806.4,36000
76824.5,35993.5
76843.2,35988.8
76862.3,35986
76881.6,35985
77118.4,35985
Z" /> 
<path style="fill:#000000; fill-opacity:1.0; 
stroke:#000000; stroke-width:0; stroke-opacity:1; 
stroke-linecap:round; stroke-linejoin:round;fill-rule:evenodd;"
d="M 75137.7,35986
75156.8,35988.8
75175.5,35993.5
75193.6,36000
75211.1,36008.2
75227.6,36018.2
75243.1,36029.7
75257.4,36042.6
75270.3,36056.9
75281.8,36072.4
75291.8,36088.9
75300,36106.4
75306.5,36124.5
75311.2,36143.2
75314,36162.3
75315,36181.6
75315,36418.4
75314,36437.7
75311.2,36456.8
75306.5,36475.5
75300,36493.6
75291.8,36511.1
75281.8,36527.6
75270.3,36543.1
75257.4,36557.4
75243.1,36570.3
75227.6,36581.8
75211.1,36591.8
75193.6,36600
75175.5,36606.5
75156.8,36611.2
75137.7,36614
75118.4,36615
74881.6,36615
74862.3,36614
74843.2,36611.2
74824.5,36606.5
74806.4,36600
74788.9,36591.8
74772.4,36581.8
74756.9,36570.3
74742.6,36557.4
74729.7,36543.1
74718.2,36527.6
74708.2,36511.1
74700,36493.6
74693.5,36475.5
74688.8,36456.8
74686,36437.7
74685,36418.4
74685,36181.6
74686,36162.3
74688.8,36143.2
74693.5,36124.5
74700,36106.4
74708.2,36088.9
74718.2,36072.4
74729.7,36056.9
74742.6,36042.6
74756.9,36029.7
74772.4,36018.2
74788.9,36008.2
74806.4,36000
74824.5,35993.5
74843.2,35988.8
74862.3,35986
74881.6,35985
75118.4,35985
Z" /> 
<path style="fill:#000000; fill-opacity:1.0; 
stroke:#000000; stroke-width:0; stroke-opacity:1; 
stroke-linecap:round; stroke-linejoin:round;fill-rule:evenodd;"
d="M 75720,36580
75720,36020
76280,36020
76280,36580
Z" /> 
</g>
<g >
</g>
<g style="fill:#000000; fill-opacity:1.0; 
stroke:#000000; stroke-width:0; stroke-opacity:1; 
stroke-linecap:round; stroke-linejoin:round;">
<path style="fill:#000000; fill-opacity:1.0; 
stroke:#000000; stroke-width:0; stroke-opacity:1; 
stroke-linecap:round; stroke-linejoin:round;fill-rule:evenodd;"
d="M 63137.7,36486
63156.8,36488.8
63175.5,36493.5
63193.6,36500
63211.1,36508.2
63227.6,36518.2
63243.1,36529.7
63257.4,36542.6
63270.3,36556.9
63281.8,36572.4
63291.8,36588.9
63300,36606.4
63306.5,36624.5
63311.2,36643.2
63314,36662.3
63315,36681.6
63315,36918.4
63314,36937.7
63311.2,36956.8
63306.5,36975.5
63300,36993.6
63291.8,37011.1
63281.8,37027.6
63270.3,37043.1
63257.4,37057.4
63243.1,37070.3
63227.6,37081.8
63211.1,37091.8
63193.6,37100
63175.5,37106.5
63156.8,37111.2
63137.7,37114
63118.4,37115
62881.6,37115
62862.3,37114
62843.2,37111.2
62824.5,37106.5
62806.4,37100
62788.9,37091.8
62772.4,37081.8
62756.9,37070.3
62742.6,37057.4
62729.7,37043.1
62718.2,37027.6
62708.2,37011.1
62700,36993.6
62693.5,36975.5
62688.8,36956.8
62686,36937.7
62685,36918.4
62685,36681.6
62686,36662.3
62688.8,36643.2
62693.5,36624.5
62700,36606.4
62708.2,36588.9
62718.2,36572.4
62729.7,36556.9
62742.6,36542.6
62756.9,36529.7
62772.4,36518.2
62788.9,36508.2
62806.4,36500
62824.5,36493.5
62843.2,36488.8
62862.3,36486
62881.6,36485
63118.4,36485
Z" /> 
<path style="fill:#000000; fill-opacity:1.0; 
stroke:#000000; stroke-width:0; stroke-opacity:1; 
stroke-linecap:round; stroke-linejoin:round;fill-rule:evenodd;"
d="M 63137.7,37486
63156.8,37488.8
63175.5,37493.5
63193.6,37500
63211.1,37508.2
63227.6,37518.2
63243.1,37529.7
63257.4,37542.6
63270.3,37556.9
63281.8,37572.4
63291.8,37588.9
63300,37606.4
63306.5,37624.5
63311.2,37643.2
63314,37662.3
63315,37681.6
63315,37918.4
63314,37937.7
63311.2,37956.8
63306.5,37975.5
63300,37993.6
63291.8,38011.1
63281.8,38027.6
63270.3,38043.1
63257.4,38057.4
63243.1,38070.3
63227.6,38081.8
63211.1,38091.8
63193.6,38100
63175.5,38106.5
63156.8,38111.2
63137.7,38114
63118.4,38115
62881.6,38115
62862.3,38114
62843.2,38111.2
62824.5,38106.5
62806.4,38100
62788.9,38091.8
62772.4,38081.8
62756.9,38070.3
62742.6,38057.4
62729.7,38043.1
62718.2,38027.6
62708.2,38011.1
62700,37993.6
62693.5,37975.5
62688.8,37956.8
62686,37937.7
62685,37918.4
62685,37681.6
62686,37662.3
62688.8,37643.2
62693.5,37624.5
62700,37606.4
62708.2,37588.9
62718.2,37572.4
62729.7,37556.9
62742.6,37542.6
62756.9,37529.7
62772.4,37518.2
62788.9,37508.2
62806.4,37500
62824.5,37493.5
62843.2,37488.8
62862.3,37486
62881.6,37485
63118.4,37485
Z" /> 
<path style="fill:#000000; fill-opacity:1.0; 
stroke:#000000; stroke-width:0; stroke-opacity:1; 
stroke-linecap:round; stroke-linejoin:round;fill-rule:evenodd;"
d="M 63137.7,38486
63156.8,38488.8
63175.5,38493.5
63193.6,38500
63211.1,38508.2
63227.6,38518.2
63243.1,38529.7
63257.4,38542.6
63270.3,38556.9
63281.8,38572.4
63291.8,38588.9
63300,38606.4
63306.5,38624.5
63311.2,38643.2
63314,38662.3
63315,38681.6
63315,38918.4
63314,38937.7
63311.2,38956.8
63306.5,38975.5
63300,38993.6
63291.8,39011.1
63281.8,39027.6
63270.3,39043.1
63257.4,39057.4
63243.1,39070.3
63227.6,39081.8
63211.1,39091.8
63193.6,39100
63175.5,39106.5
63156.8,39111.2
63137.7,39114
63118.4,39115
62881.6,39115
62862.3,39114
62843.2,39111.2
62824.5,39106.5
62806.4,39100
62788.9,39091.8
62772.4,39081.8
62756.9,39070.3
62742.6,39057.4
62729.7,39043.1
62718.2,39027.6
62708.2,39011.1
62700,38993.6
62693.5,38975.5
62688.8,38956.8
62686,38937.7
62685,38918.4
62685,38681.6
62686,38662.3
62688.8,38643.2
62693.5,38624.5
62700,38606.4
62708.2,38588.9
62718.2,38572.4
62729.7,38556.9
62742.6,38542.6
62756.9,38529.7
62772.4,38518.2
62788.9,38508.2
62806.4,38500
62824.5,38493.5
62843.2,38488.8
62862.3,38486
62881.6,38485
63118.4,38485
Z" /> 
<path style="fill:#000000; fill-opacity:1.0; 
stroke:#000000; stroke-width:0; stroke-opacity:1; 
stroke-linecap:round; stroke-linejoin:round;fill-rule:evenodd;"
d="M 62137.7,35486
62156.8,35488.8
62175.5,35493.5
62193.6,35500
62211.1,35508.2
62227.6,35518.2
62243.1,35529.7
62257.4,35542.6
62270.3,35556.9
62281.8,35572.4
62291.8,35588.9
62300,35606.4
62306.5,35624.5
62311.2,35643.2
62314,35662.3
62315,35681.6
62315,35918.4
62314,35937.7
62311.2,35956.8
62306.5,35975.5
62300,35993.6
62291.8,36011.1
62281.8,36027.6
62270.3,36043.1
62257.4,36057.4
62243.1,36070.3
62227.6,36081.8
62211.1,36091.8
62193.6,36100
62175.5,36106.5
62156.8,36111.2
62137.7,36114
62118.4,36115
61881.6,36115
61862.3,36114
61843.2,36111.2
61824.5,36106.5
61806.4,36100
61788.9,36091.8
61772.4,36081.8
61756.9,36070.3
61742.6,36057.4
61729.7,36043.1
61718.2,36027.6
61708.2,36011.1
61700,35993.6
61693.5,35975.5
61688.8,35956.8
61686,35937.7
61685,35918.4
61685,35681.6
61686,35662.3
61688.8,35643.2
61693.5,35624.5
61700,35606.4
61708.2,35588.9
61718.2,35572.4
61729.7,35556.9
61742.6,35542.6
61756.9,35529.7
61772.4,35518.2
61788.9,35508.2
61806.4,35500
61824.5,35493.5
61843.2,35488.8
61862.3,35486
61881.6,35485
62118.4,35485
Z" /> 
<path style="fill:#000000; fill-opacity:1.0; 
stroke:#000000; stroke-width:0; stroke-opacity:1; 
stroke-linecap:round; stroke-linejoin:round;fill-rule:evenodd;"
d="M 62137.7,37486
62156.8,37488.8
62175.5,37493.5
62193.6,37500
62211.1,37508.2
62227.6,37518.2
62243.1,37529.7
62257.4,37542.6
62270.3,37556.9
62281.8,37572.4
62291.8,37588.9
62300,37606.4
62306.5,37624.5
62311.2,37643.2
62314,37662.3
62315,37681.6
62315,37918.4
62314,37937.7
62311.2,37956.8
62306.5,37975.5
62300,37993.6
62291.8,38011.1
62281.8,38027.6
62270.3,38043.1
62257.4,38057.4
62243.1,38070.3
62227.6,38081.8
62211.1,38091.8
62193.6,38100
62175.5,38106.5
62156.8,38111.2
62137.7,38114
62118.4,38115
61881.6,38115
61862.3,38114
61843.2,38111.2
61824.5,38106.5
61806.4,38100
61788.9,38091.8
61772.4,38081.8
61756.9,38070.3
61742.6,38057.4
61729.7,38043.1
61718.2,38027.6
61708.2,38011.1
61700,37993.6
61693.5,37975.5
61688.8,37956.8
61686,37937.7
61685,37918.4
61685,37681.6
61686,37662.3
61688.8,37643.2
61693.5,37624.5
61700,37606.4
61708.2,37588.9
61718.2,37572.4
61729.7,37556.9
61742.6,37542.6
61756.9,37529.7
61772.4,37518.2
61788.9,37508.2
61806.4,37500
61824.5,37493.5
61843.2,37488.8
61862.3,37486
61881.6,37485
62118.4,37485
Z" /> 
<path style="fill:#000000; fill-opacity:1.0; 
stroke:#000000; stroke-width:0; stroke-opacity:1; 
stroke-linecap:round; stroke-linejoin:round;fill-rule:evenodd;"
d="M 62137.7,38486
62156.8,38488.8
62175.5,38493.5
62193.6,38500
62211.1,38508.2
62227.6,38518.2
62243.1,38529.7
62257.4,38542.6
62270.3,38556.9
62281.8,38572.4
62291.8,38588.9
62300,38606.4
62306.5,38624.5
62311.2,38643.2
62314,38662.3
62315,38681.6
62315,38918.4
62314,38937.7
62311.2,38956.8
62306.5,38975.5
62300,38993.6
62291.8,39011.1
62281.8,39027.6
62270.3,39043.1
62257.4,39057.4
62243.1,39070.3
62227.6,39081.8
62211.1,39091.8
62193.6,39100
62175.5,39106.5
62156.8,39111.2
62137.7,39114
62118.4,39115
61881.6,39115
61862.3,39114
61843.2,39111.2
61824.5,39106.5
61806.4,39100
61788.9,39091.8
61772.4,39081.8
61756.9,39070.3
61742.6,39057.4
61729.7,39043.1
61718.2,39027.6
61708.2,39011.1
61700,38993.6
61693.5,38975.5
61688.8,38956.8
61686,38937.7
61685,38918.4
61685,38681.6
61686,38662.3
61688.8,38643.2
61693.5,38624.5
61700,38606.4
61708.2,38588.9
61718.2,38572.4
61729.7,38556.9
61742.6,38542.6
61756.9,38529.7
61772.4,38518.2
61788.9,38508.2
61806.4,38500
61824.5,38493.5
61843.2,38488.8
61862.3,38486
61881.6,38485
62118.4,38485
Z" /> 
<path style="fill:#000000; fill-opacity:1.0; 
stroke:#000000; stroke-width:0; stroke-opacity:1; 
stroke-linecap:round; stroke-linejoin:round;fill-rule:evenodd;"
d="M 62137.7,39486
62156.8,39488.8
62175.5,39493.5
62193.6,39500
62211.1,39508.2
62227.6,39518.2
62243.1,39529.7
62257.4,39542.6
62270.3,39556.9
62281.8,39572.4
62291.8,39588.9
62300,39606.4
62306.5,39624.5
62311.2,39643.2
62314,39662.3
62315,39681.6
62315,39918.4
62314,39937.7
62311.2,39956.8
62306.5,39975.5
62300,39993.6
62291.8,40011.1
62281.8,40027.6
62270.3,40043.1
62257.4,40057.4
62243.1,40070.3
62227.6,40081.8
62211.1,40091.8
62193.6,40100
62175.5,40106.5
62156.8,40111.2
62137.7,40114
62118.4,40115
61881.6,40115
61862.3,40114
61843.2,40111.2
61824.5,40106.5
61806.4,40100
61788.9,40091.8
61772.4,40081.8
61756.9,40070.3
61742.6,40057.4
61729.7,40043.1
61718.2,40027.6
61708.2,40011.1
61700,39993.6
61693.5,39975.5
61688.8,39956.8
61686,39937.7
61685,39918.4
61685,39681.6
61686,39662.3
61688.8,39643.2
61693.5,39624.5
61700,39606.4
61708.2,39588.9
61718.2,39572.4
61729.7,39556.9
61742.6,39542.6
61756.9,39529.7
61772.4,39518.2
61788.9,39508.2
61806.4,39500
61824.5,39493.5
61843.2,39488.8
61862.3,39486
61881.6,39485
62118.4,39485
Z" /> 
<path style="fill:#000000; fill-opacity:1.0; 
stroke:#000000; stroke-width:0; stroke-opacity:1; 
stroke-linecap:round; stroke-linejoin:round;fill-rule:evenodd;"
d="M 62137.7,40486
62156.8,40488.8
62175.5,40493.5
62193.6,40500
62211.1,40508.2
62227.6,40518.2
62243.1,40529.7
62257.4,40542.6
62270.3,40556.9
62281.8,40572.4
62291.8,40588.9
62300,40606.4
62306.5,40624.5
62311.2,40643.2
62314,40662.3
62315,40681.6
62315,40918.4
62314,40937.7
62311.2,40956.8
62306.5,40975.5
62300,40993.6
62291.8,41011.1
62281.8,41027.6
62270.3,41043.1
62257.4,41057.4
62243.1,41070.3
62227.6,41081.8
62211.1,41091.8
62193.6,41100
62175.5,41106.5
62156.8,41111.2
62137.7,41114
62118.4,41115
61881.6,41115
61862.3,41114
61843.2,41111.2
61824.5,41106.5
61806.4,41100
61788.9,41091.8
61772.4,41081.8
61756.9,41070.3
61742.6,41057.4
61729.7,41043.1
61718.2,41027.6
61708.2,41011.1
61700,40993.6
61693.5,40975.5
61688.8,40956.8
61686,40937.7
61685,40918.4
61685,40681.6
61686,40662.3
61688.8,40643.2
61693.5,40624.5
61700,40606.4
61708.2,40588.9
61718.2,40572.4
61729.7,40556.9
61742.6,40542.6
61756.9,40529.7
61772.4,40518.2
61788.9,40508.2
61806.4,40500
61824.5,40493.5
61843.2,40488.8
61862.3,40486
61881.6,40485
62118.4,40485
Z" /> 
<path style="fill:#000000; fill-opacity:1.0; 
stroke:#000000; stroke-width:0; stroke-opacity:1; 
stroke-linecap:round; stroke-linejoin:round;fill-rule:evenodd;"
d="M 61137.7,40486
61156.8,40488.8
61175.5,40493.5
61193.6,40500
61211.1,40508.2
61227.6,40518.2
61243.1,40529.7
61257.4,40542.6
61270.3,40556.9
61281.8,40572.4
61291.8,40588.9
61300,40606.4
61306.5,40624.5
61311.2,40643.2
61314,40662.3
61315,40681.6
61315,40918.4
61314,40937.7
61311.2,40956.8
61306.5,40975.5
61300,40993.6
61291.8,41011.1
61281.8,41027.6
61270.3,41043.1
61257.4,41057.4
61243.1,41070.3
61227.6,41081.8
61211.1,41091.8
61193.6,41100
61175.5,41106.5
61156.8,41111.2
61137.7,41114
61118.4,41115
60881.6,41115
60862.3,41114
60843.2,41111.2
60824.5,41106.5
60806.4,41100
60788.9,41091.8
60772.4,41081.8
60756.9,41070.3
60742.6,41057.4
60729.7,41043.1
60718.2,41027.6
60708.2,41011.1
60700,40993.6
60693.5,40975.5
60688.8,40956.8
60686,40937.7
60685,40918.4
60685,40681.6
60686,40662.3
60688.8,40643.2
60693.5,40624.5
60700,40606.4
60708.2,40588.9
60718.2,40572.4
60729.7,40556.9
60742.6,40542.6
60756.9,40529.7
60772.4,40518.2
60788.9,40508.2
60806.4,40500
60824.5,40493.5
60843.2,40488.8
60862.3,40486
60881.6,40485
61118.4,40485
Z" /> 
<path style="fill:#000000; fill-opacity:1.0; 
stroke:#000000; stroke-width:0; stroke-opacity:1; 
stroke-linecap:round; stroke-linejoin:round;fill-rule:evenodd;"
d="M 60137.7,40486
60156.8,40488.8
60175.5,40493.5
60193.6,40500
60211.1,40508.2
60227.6,40518.2
60243.1,40529.7
60257.4,40542.6
60270.3,40556.9
60281.8,40572.4
60291.8,40588.9
60300,40606.4
60306.5,40624.5
60311.2,40643.2
60314,40662.3
60315,40681.6
60315,40918.4
60314,40937.7
60311.2,40956.8
60306.5,40975.5
60300,40993.6
60291.8,41011.1
60281.8,41027.6
60270.3,41043.1
60257.4,41057.4
60243.1,41070.3
60227.6,41081.8
60211.1,41091.8
60193.6,41100
60175.5,41106.5
60156.8,41111.2
60137.7,41114
60118.4,41115
59881.6,41115
59862.3,41114
59843.2,41111.2
59824.5,41106.5
59806.4,41100
59788.9,41091.8
59772.4,41081.8
59756.9,41070.3
59742.6,41057.4
59729.7,41043.1
59718.2,41027.6
59708.2,41011.1
59700,40993.6
59693.5,40975.5
59688.8,40956.8
59686,40937.7
59685,40918.4
59685,40681.6
59686,40662.3
59688.8,40643.2
59693.5,40624.5
59700,40606.4
59708.2,40588.9
59718.2,40572.4
59729.7,40556.9
59742.6,40542.6
59756.9,40529.7
59772.4,40518.2
59788.9,40508.2
59806.4,40500
59824.5,40493.5
59843.2,40488.8
59862.3,40486
59881.6,40485
60118.4,40485
Z" /> 
<path style="fill:#000000; fill-opacity:1.0; 
stroke:#000000; stroke-width:0; stroke-opacity:1; 
stroke-linecap:round; stroke-linejoin:round;fill-rule:evenodd;"
d="M 59137.7,40486
59156.8,40488.8
59175.5,40493.5
59193.6,40500
59211.1,40508.2
59227.6,40518.2
59243.1,40529.7
59257.4,40542.6
59270.3,40556.9
59281.8,40572.4
59291.8,40588.9
59300,40606.4
59306.5,40624.5
59311.2,40643.2
59314,40662.3
59315,40681.6
59315,40918.4
59314,40937.7
59311.2,40956.8
59306.5,40975.5
59300,40993.6
59291.8,41011.1
59281.8,41027.6
59270.3,41043.1
59257.4,41057.4
59243.1,41070.3
59227.6,41081.8
59211.1,41091.8
59193.6,41100
59175.5,41106.5
59156.8,41111.2
59137.7,41114
59118.4,41115
58881.6,41115
58862.3,41114
58843.2,41111.2
58824.5,41106.5
58806.4,41100
58788.9,41091.8
58772.4,41081.8
58756.9,41070.3
58742.6,41057.4
58729.7,41043.1
58718.2,41027.6
58708.2,41011.1
58700,40993.6
58693.5,40975.5
58688.8,40956.8
58686,40937.7
58685,40918.4
58685,40681.6
58686,40662.3
58688.8,40643.2
58693.5,40624.5
58700,40606.4
58708.2,40588.9
58718.2,40572.4
58729.7,40556.9
58742.6,40542.6
58756.9,40529.7
58772.4,40518.2
58788.9,40508.2
58806.4,40500
58824.5,40493.5
58843.2,40488.8
58862.3,40486
58881.6,40485
59118.4,40485
Z" /> 
<path style="fill:#000000; fill-opacity:1.0; 
stroke:#000000; stroke-width:0; stroke-opacity:1; 
stroke-linecap:round; stroke-linejoin:round;fill-rule:evenodd;"
d="M 63137.7,39486
63156.8,39488.8
63175.5,39493.5
63193.6,39500
63211.1,39508.2
63227.6,39518.2
63243.1,39529.7
63257.4,39542.6
63270.3,39556.9
63281.8,39572.4
63291.8,39588.9
63300,39606.4
63306.5,39624.5
63311.2,39643.2
63314,39662.3
63315,39681.6
63315,39918.4
63314,39937.7
63311.2,39956.8
63306.5,39975.5
63300,39993.6
63291.8,40011.1
63281.8,40027.6
63270.3,40043.1
63257.4,40057.4
63243.1,40070.3
63227.6,40081.8
63211.1,40091.8
63193.6,40100
63175.5,40106.5
63156.8,40111.2
63137.7,40114
63118.4,40115
62881.6,40115
62862.3,40114
62843.2,40111.2
62824.5,40106.5
62806.4,40100
62788.9,40091.8
62772.4,40081.8
62756.9,40070.3
62742.6,40057.4
62729.7,40043.1
62718.2,40027.6
62708.2,40011.1
62700,39993.6
62693.5,39975.5
62688.8,39956.8
62686,39937.7
62685,39918.4
62685,39681.6
62686,39662.3
62688.8,39643.2
62693.5,39624.5
62700,39606.4
62708.2,39588.9
62718.2,39572.4
62729.7,39556.9
62742.6,39542.6
62756.9,39529.7
62772.4,39518.2
62788.9,39508.2
62806.4,39500
62824.5,39493.5
62843.2,39488.8
62862.3,39486
62881.6,39485
63118.4,39485
Z" /> 
<path style="fill:#000000; fill-opacity:1.0; 
stroke:#000000; stroke-width:0; stroke-opacity:1; 
stroke-linecap:round; stroke-linejoin:round;fill-rule:evenodd;"
d="M 61137.7,39486
61156.8,39488.8
61175.5,39493.5
61193.6,39500
61211.1,39508.2
61227.6,39518.2
61243.1,39529.7
61257.4,39542.6
61270.3,39556.9
61281.8,39572.4
61291.8,39588.9
61300,39606.4
61306.5,39624.5
61311.2,39643.2
61314,39662.3
61315,39681.6
61315,39918.4
61314,39937.7
61311.2,39956.8
61306.5,39975.5
61300,39993.6
61291.8,40011.1
61281.8,40027.6
61270.3,40043.1
61257.4,40057.4
61243.1,40070.3
61227.6,40081.8
61211.1,40091.8
61193.6,40100
61175.5,40106.5
61156.8,40111.2
61137.7,40114
61118.4,40115
60881.6,40115
60862.3,40114
60843.2,40111.2
60824.5,40106.5
60806.4,40100
60788.9,40091.8
60772.4,40081.8
60756.9,40070.3
60742.6,40057.4
60729.7,40043.1
60718.2,40027.6
60708.2,40011.1
60700,39993.6
60693.5,39975.5
60688.8,39956.8
60686,39937.7
60685,39918.4
60685,39681.6
60686,39662.3
60688.8,39643.2
60693.5,39624.5
60700,39606.4
60708.2,39588.9
60718.2,39572.4
60729.7,39556.9
60742.6,39542.6
60756.9,39529.7
60772.4,39518.2
60788.9,39508.2
60806.4,39500
60824.5,39493.5
60843.2,39488.8
60862.3,39486
60881.6,39485
61118.4,39485
Z" /> 
<path style="fill:#000000; fill-opacity:1.0; 
stroke:#000000; stroke-width:0; stroke-opacity:1; 
stroke-linecap:round; stroke-linejoin:round;fill-rule:evenodd;"
d="M 60137.7,39486
60156.8,39488.8
60175.5,39493.5
60193.6,39500
60211.1,39508.2
60227.6,39518.2
60243.1,39529.7
60257.4,39542.6
60270.3,39556.9
60281.8,39572.4
60291.8,39588.9
60300,39606.4
60306.5,39624.5
60311.2,39643.2
60314,39662.3
60315,39681.6
60315,39918.4
60314,39937.7
60311.2,39956.8
60306.5,39975.5
60300,39993.6
60291.8,40011.1
60281.8,40027.6
60270.3,40043.1
60257.4,40057.4
60243.1,40070.3
60227.6,40081.8
60211.1,40091.8
60193.6,40100
60175.5,40106.5
60156.8,40111.2
60137.7,40114
60118.4,40115
59881.6,40115
59862.3,40114
59843.2,40111.2
59824.5,40106.5
59806.4,40100
59788.9,40091.8
59772.4,40081.8
59756.9,40070.3
59742.6,40057.4
59729.7,40043.1
59718.2,40027.6
59708.2,40011.1
59700,39993.6
59693.5,39975.5
59688.8,39956.8
59686,39937.7
59685,39918.4
59685,39681.6
59686,39662.3
59688.8,39643.2
59693.5,39624.5
59700,39606.4
59708.2,39588.9
59718.2,39572.4
59729.7,39556.9
59742.6,39542.6
59756.9,39529.7
59772.4,39518.2
59788.9,39508.2
59806.4,39500
59824.5,39493.5
59843.2,39488.8
59862.3,39486
59881.6,39485
60118.4,39485
Z" /> 
<path style="fill:#000000; fill-opacity:1.0; 
stroke:#000000; stroke-width:0; stroke-opacity:1; 
stroke-linecap:round; stroke-linejoin:round;fill-rule:evenodd;"
d="M 59137.7,39486
59156.8,39488.8
59175.5,39493.5
59193.6,39500
59211.1,39508.2
59227.6,39518.2
59243.1,39529.7
59257.4,39542.6
59270.3,39556.9
59281.8,39572.4
59291.8,39588.9
59300,39606.4
59306.5,39624.5
59311.2,39643.2
59314,39662.3
59315,39681.6
59315,39918.4
59314,39937.7
59311.2,39956.8
59306.5,39975.5
59300,39993.6
59291.8,40011.1
59281.8,40027.6
59270.3,40043.1
59257.4,40057.4
59243.1,40070.3
59227.6,40081.8
59211.1,40091.8
59193.6,40100
59175.5,40106.5
59156.8,40111.2
59137.7,40114
59118.4,40115
58881.6,40115
58862.3,40114
58843.2,40111.2
58824.5,40106.5
58806.4,40100
58788.9,40091.8
58772.4,40081.8
58756.9,40070.3
58742.6,40057.4
58729.7,40043.1
58718.2,40027.6
58708.2,40011.1
58700,39993.6
58693.5,39975.5
58688.8,39956.8
58686,39937.7
58685,39918.4
58685,39681.6
58686,39662.3
58688.8,39643.2
58693.5,39624.5
58700,39606.4
58708.2,39588.9
58718.2,39572.4
58729.7,39556.9
58742.6,39542.6
58756.9,39529.7
58772.4,39518.2
58788.9,39508.2
58806.4,39500
58824.5,39493.5
58843.2,39488.8
58862.3,39486
58881.6,39485
59118.4,39485
Z" /> 
<path style="fill:#000000; fill-opacity:1.0; 
stroke:#000000; stroke-width:0; stroke-opacity:1; 
stroke-linecap:round; stroke-linejoin:round;fill-rule:evenodd;"
d="M 58137.7,39486
58156.8,39488.8
58175.5,39493.5
58193.6,39500
58211.1,39508.2
58227.6,39518.2
58243.1,39529.7
58257.4,39542.6
58270.3,39556.9
58281.8,39572.4
58291.8,39588.9
58300,39606.4
58306.5,39624.5
58311.2,39643.2
58314,39662.3
58315,39681.6
58315,39918.4
58314,39937.7
58311.2,39956.8
58306.5,39975.5
58300,39993.6
58291.8,40011.1
58281.8,40027.6
58270.3,40043.1
58257.4,40057.4
58243.1,40070.3
58227.6,40081.8
58211.1,40091.8
58193.6,40100
58175.5,40106.5
58156.8,40111.2
58137.7,40114
58118.4,40115
57881.6,40115
57862.3,40114
57843.2,40111.2
57824.5,40106.5
57806.4,40100
57788.9,40091.8
57772.4,40081.8
57756.9,40070.3
57742.6,40057.4
57729.7,40043.1
57718.2,40027.6
57708.2,40011.1
57700,39993.6
57693.5,39975.5
57688.8,39956.8
57686,39937.7
57685,39918.4
57685,39681.6
57686,39662.3
57688.8,39643.2
57693.5,39624.5
57700,39606.4
57708.2,39588.9
57718.2,39572.4
57729.7,39556.9
57742.6,39542.6
57756.9,39529.7
57772.4,39518.2
57788.9,39508.2
57806.4,39500
57824.5,39493.5
57843.2,39488.8
57862.3,39486
57881.6,39485
58118.4,39485
Z" /> 
<path style="fill:#000000; fill-opacity:1.0; 
stroke:#000000; stroke-width:0; stroke-opacity:1; 
stroke-linecap:round; stroke-linejoin:round;fill-rule:evenodd;"
d="M 58137.7,38486
58156.8,38488.8
58175.5,38493.5
58193.6,38500
58211.1,38508.2
58227.6,38518.2
58243.1,38529.7
58257.4,38542.6
58270.3,38556.9
58281.8,38572.4
58291.8,38588.9
58300,38606.4
58306.5,38624.5
58311.2,38643.2
58314,38662.3
58315,38681.6
58315,38918.4
58314,38937.7
58311.2,38956.8
58306.5,38975.5
58300,38993.6
58291.8,39011.1
58281.8,39027.6
58270.3,39043.1
58257.4,39057.4
58243.1,39070.3
58227.6,39081.8
58211.1,39091.8
58193.6,39100
58175.5,39106.5
58156.8,39111.2
58137.7,39114
58118.4,39115
57881.6,39115
57862.3,39114
57843.2,39111.2
57824.5,39106.5
57806.4,39100
57788.9,39091.8
57772.4,39081.8
57756.9,39070.3
57742.6,39057.4
57729.7,39043.1
57718.2,39027.6
57708.2,39011.1
57700,38993.6
57693.5,38975.5
57688.8,38956.8
57686,38937.7
57685,38918.4
57685,38681.6
57686,38662.3
57688.8,38643.2
57693.5,38624.5
57700,38606.4
57708.2,38588.9
57718.2,38572.4
57729.7,38556.9
57742.6,38542.6
57756.9,38529.7
57772.4,38518.2
57788.9,38508.2
57806.4,38500
57824.5,38493.5
57843.2,38488.8
57862.3,38486
57881.6,38485
58118.4,38485
Z" /> 
<path style="fill:#000000; fill-opacity:1.0; 
stroke:#000000; stroke-width:0; stroke-opacity:1; 
stroke-linecap:round; stroke-linejoin:round;fill-rule:evenodd;"
d="M 58137.7,37486
58156.8,37488.8
58175.5,37493.5
58193.6,37500
58211.1,37508.2
58227.6,37518.2
58243.1,37529.7
58257.4,37542.6
58270.3,37556.9
58281.8,37572.4
58291.8,37588.9
58300,37606.4
58306.5,37624.5
58311.2,37643.2
58314,37662.3
58315,37681.6
58315,37918.4
58314,37937.7
58311.2,37956.8
58306.5,37975.5
58300,37993.6
58291.8,38011.1
58281.8,38027.6
58270.3,38043.1
58257.4,38057.4
58243.1,38070.3
58227.6,38081.8
58211.1,38091.8
58193.6,38100
58175.5,38106.5
58156.8,38111.2
58137.7,38114
58118.4,38115
57881.6,38115
57862.3,38114
57843.2,38111.2
57824.5,38106.5
57806.4,38100
57788.9,38091.8
57772.4,38081.8
57756.9,38070.3
57742.6,38057.4
57729.7,38043.1
57718.2,38027.6
57708.2,38011.1
57700,37993.6
57693.5,37975.5
57688.8,37956.8
57686,37937.7
57685,37918.4
57685,37681.6
57686,37662.3
57688.8,37643.2
57693.5,37624.5
57700,37606.4
57708.2,37588.9
57718.2,37572.4
57729.7,37556.9
57742.6,37542.6
57756.9,37529.7
57772.4,37518.2
57788.9,37508.2
57806.4,37500
57824.5,37493.5
57843.2,37488.8
57862.3,37486
57881.6,37485
58118.4,37485
Z" /> 
<path style="fill:#000000; fill-opacity:1.0; 
stroke:#000000; stroke-width:0; stroke-opacity:1; 
stroke-linecap:round; stroke-linejoin:round;fill-rule:evenodd;"
d="M 58137.7,36486
58156.8,36488.8
58175.5,36493.5
58193.6,36500
58211.1,36508.2
58227.6,36518.2
58243.1,36529.7
58257.4,36542.6
58270.3,36556.9
58281.8,36572.4
58291.8,36588.9
58300,36606.4
58306.5,36624.5
58311.2,36643.2
58314,36662.3
58315,36681.6
58315,36918.4
58314,36937.7
58311.2,36956.8
58306.5,36975.5
58300,36993.6
58291.8,37011.1
58281.8,37027.6
58270.3,37043.1
58257.4,37057.4
58243.1,37070.3
58227.6,37081.8
58211.1,37091.8
58193.6,37100
58175.5,37106.5
58156.8,37111.2
58137.7,37114
58118.4,37115
57881.6,37115
57862.3,37114
57843.2,37111.2
57824.5,37106.5
57806.4,37100
57788.9,37091.8
57772.4,37081.8
57756.9,37070.3
57742.6,37057.4
57729.7,37043.1
57718.2,37027.6
57708.2,37011.1
57700,36993.6
57693.5,36975.5
57688.8,36956.8
57686,36937.7
57685,36918.4
57685,36681.6
57686,36662.3
57688.8,36643.2
57693.5,36624.5
57700,36606.4
57708.2,36588.9
57718.2,36572.4
57729.7,36556.9
57742.6,36542.6
57756.9,36529.7
57772.4,36518.2
57788.9,36508.2
57806.4,36500
57824.5,36493.5
57843.2,36488.8
57862.3,36486
57881.6,36485
58118.4,36485
Z" /> 
<path style="fill:#000000; fill-opacity:1.0; 
stroke:#000000; stroke-width:0; stroke-opacity:1; 
stroke-linecap:round; stroke-linejoin:round;fill-rule:evenodd;"
d="M 59137.7,38486
59156.8,38488.8
59175.5,38493.5
59193.6,38500
59211.1,38508.2
59227.6,38518.2
59243.1,38529.7
59257.4,38542.6
59270.3,38556.9
59281.8,38572.4
59291.8,38588.9
59300,38606.4
59306.5,38624.5
59311.2,38643.2
59314,38662.3
59315,38681.6
59315,38918.4
59314,38937.7
59311.2,38956.8
59306.5,38975.5
59300,38993.6
59291.8,39011.1
59281.8,39027.6
59270.3,39043.1
59257.4,39057.4
59243.1,39070.3
59227.6,39081.8
59211.1,39091.8
59193.6,39100
59175.5,39106.5
59156.8,39111.2
59137.7,39114
59118.4,39115
58881.6,39115
58862.3,39114
58843.2,39111.2
58824.5,39106.5
58806.4,39100
58788.9,39091.8
58772.4,39081.8
58756.9,39070.3
58742.6,39057.4
58729.7,39043.1
58718.2,39027.6
58708.2,39011.1
58700,38993.6
58693.5,38975.5
58688.8,38956.8
58686,38937.7
58685,38918.4
58685,38681.6
58686,38662.3
58688.8,38643.2
58693.5,38624.5
58700,38606.4
58708.2,38588.9
58718.2,38572.4
58729.7,38556.9
58742.6,38542.6
58756.9,38529.7
58772.4,38518.2
58788.9,38508.2
58806.4,38500
58824.5,38493.5
58843.2,38488.8
58862.3,38486
58881.6,38485
59118.4,38485
Z" /> 
<path style="fill:#000000; fill-opacity:1.0; 
stroke:#000000; stroke-width:0; stroke-opacity:1; 
stroke-linecap:round; stroke-linejoin:round;fill-rule:evenodd;"
d="M 59137.7,37486
59156.8,37488.8
59175.5,37493.5
59193.6,37500
59211.1,37508.2
59227.6,37518.2
59243.1,37529.7
59257.4,37542.6
59270.3,37556.9
59281.8,37572.4
59291.8,37588.9
59300,37606.4
59306.5,37624.5
59311.2,37643.2
59314,37662.3
59315,37681.6
59315,37918.4
59314,37937.7
59311.2,37956.8
59306.5,37975.5
59300,37993.6
59291.8,38011.1
59281.8,38027.6
59270.3,38043.1
59257.4,38057.4
59243.1,38070.3
59227.6,38081.8
59211.1,38091.8
59193.6,38100
59175.5,38106.5
59156.8,38111.2
59137.7,38114
59118.4,38115
58881.6,38115
58862.3,38114
58843.2,38111.2
58824.5,38106.5
58806.4,38100
58788.9,38091.8
58772.4,38081.8
58756.9,38070.3
58742.6,38057.4
58729.7,38043.1
58718.2,38027.6
58708.2,38011.1
58700,37993.6
58693.5,37975.5
58688.8,37956.8
58686,37937.7
58685,37918.4
58685,37681.6
58686,37662.3
58688.8,37643.2
58693.5,37624.5
58700,37606.4
58708.2,37588.9
58718.2,37572.4
58729.7,37556.9
58742.6,37542.6
58756.9,37529.7
58772.4,37518.2
58788.9,37508.2
58806.4,37500
58824.5,37493.5
58843.2,37488.8
58862.3,37486
58881.6,37485
59118.4,37485
Z" /> 
<path style="fill:#000000; fill-opacity:1.0; 
stroke:#000000; stroke-width:0; stroke-opacity:1; 
stroke-linecap:round; stroke-linejoin:round;fill-rule:evenodd;"
d="M 59137.7,36486
59156.8,36488.8
59175.5,36493.5
59193.6,36500
59211.1,36508.2
59227.6,36518.2
59243.1,36529.7
59257.4,36542.6
59270.3,36556.9
59281.8,36572.4
59291.8,36588.9
59300,36606.4
59306.5,36624.5
59311.2,36643.2
59314,36662.3
59315,36681.6
59315,36918.4
59314,36937.7
59311.2,36956.8
59306.5,36975.5
59300,36993.6
59291.8,37011.1
59281.8,37027.6
59270.3,37043.1
59257.4,37057.4
59243.1,37070.3
59227.6,37081.8
59211.1,37091.8
59193.6,37100
59175.5,37106.5
59156.8,37111.2
59137.7,37114
59118.4,37115
58881.6,37115
58862.3,37114
58843.2,37111.2
58824.5,37106.5
58806.4,37100
58788.9,37091.8
58772.4,37081.8
58756.9,37070.3
58742.6,37057.4
58729.7,37043.1
58718.2,37027.6
58708.2,37011.1
58700,36993.6
58693.5,36975.5
58688.8,36956.8
58686,36937.7
58685,36918.4
58685,36681.6
58686,36662.3
58688.8,36643.2
58693.5,36624.5
58700,36606.4
58708.2,36588.9
58718.2,36572.4
58729.7,36556.9
58742.6,36542.6
58756.9,36529.7
58772.4,36518.2
58788.9,36508.2
58806.4,36500
58824.5,36493.5
58843.2,36488.8
58862.3,36486
58881.6,36485
59118.4,36485
Z" /> 
<path style="fill:#000000; fill-opacity:1.0; 
stroke:#000000; stroke-width:0; stroke-opacity:1; 
stroke-linecap:round; stroke-linejoin:round;fill-rule:evenodd;"
d="M 61137.7,35486
61156.8,35488.8
61175.5,35493.5
61193.6,35500
61211.1,35508.2
61227.6,35518.2
61243.1,35529.7
61257.4,35542.6
61270.3,35556.9
61281.8,35572.4
61291.8,35588.9
61300,35606.4
61306.5,35624.5
61311.2,35643.2
61314,35662.3
61315,35681.6
61315,35918.4
61314,35937.7
61311.2,35956.8
61306.5,35975.5
61300,35993.6
61291.8,36011.1
61281.8,36027.6
61270.3,36043.1
61257.4,36057.4
61243.1,36070.3
61227.6,36081.8
61211.1,36091.8
61193.6,36100
61175.5,36106.5
61156.8,36111.2
61137.7,36114
61118.4,36115
60881.6,36115
60862.3,36114
60843.2,36111.2
60824.5,36106.5
60806.4,36100
60788.9,36091.8
60772.4,36081.8
60756.9,36070.3
60742.6,36057.4
60729.7,36043.1
60718.2,36027.6
60708.2,36011.1
60700,35993.6
60693.5,35975.5
60688.8,35956.8
60686,35937.7
60685,35918.4
60685,35681.6
60686,35662.3
60688.8,35643.2
60693.5,35624.5
60700,35606.4
60708.2,35588.9
60718.2,35572.4
60729.7,35556.9
60742.6,35542.6
60756.9,35529.7
60772.4,35518.2
60788.9,35508.2
60806.4,35500
60824.5,35493.5
60843.2,35488.8
60862.3,35486
60881.6,35485
61118.4,35485
Z" /> 
<path style="fill:#000000; fill-opacity:1.0; 
stroke:#000000; stroke-width:0; stroke-opacity:1; 
stroke-linecap:round; stroke-linejoin:round;fill-rule:evenodd;"
d="M 59137.7,35486
59156.8,35488.8
59175.5,35493.5
59193.6,35500
59211.1,35508.2
59227.6,35518.2
59243.1,35529.7
59257.4,35542.6
59270.3,35556.9
59281.8,35572.4
59291.8,35588.9
59300,35606.4
59306.5,35624.5
59311.2,35643.2
59314,35662.3
59315,35681.6
59315,35918.4
59314,35937.7
59311.2,35956.8
59306.5,35975.5
59300,35993.6
59291.8,36011.1
59281.8,36027.6
59270.3,36043.1
59257.4,36057.4
59243.1,36070.3
59227.6,36081.8
59211.1,36091.8
59193.6,36100
59175.5,36106.5
59156.8,36111.2
59137.7,36114
59118.4,36115
58881.6,36115
58862.3,36114
58843.2,36111.2
58824.5,36106.5
58806.4,36100
58788.9,36091.8
58772.4,36081.8
58756.9,36070.3
58742.6,36057.4
58729.7,36043.1
58718.2,36027.6
58708.2,36011.1
58700,35993.6
58693.5,35975.5
58688.8,35956.8
58686,35937.7
58685,35918.4
58685,35681.6
58686,35662.3
58688.8,35643.2
58693.5,35624.5
58700,35606.4
58708.2,35588.9
58718.2,35572.4
58729.7,35556.9
58742.6,35542.6
58756.9,35529.7
58772.4,35518.2
58788.9,35508.2
58806.4,35500
58824.5,35493.5
58843.2,35488.8
58862.3,35486
58881.6,35485
59118.4,35485
Z" /> 
<path style="fill:#000000; fill-opacity:1.0; 
stroke:#000000; stroke-width:0; stroke-opacity:1; 
stroke-linecap:round; stroke-linejoin:round;fill-rule:evenodd;"
d="M 60137.7,35486
60156.8,35488.8
60175.5,35493.5
60193.6,35500
60211.1,35508.2
60227.6,35518.2
60243.1,35529.7
60257.4,35542.6
60270.3,35556.9
60281.8,35572.4
60291.8,35588.9
60300,35606.4
60306.5,35624.5
60311.2,35643.2
60314,35662.3
60315,35681.6
60315,35918.4
60314,35937.7
60311.2,35956.8
60306.5,35975.5
60300,35993.6
60291.8,36011.1
60281.8,36027.6
60270.3,36043.1
60257.4,36057.4
60243.1,36070.3
60227.6,36081.8
60211.1,36091.8
60193.6,36100
60175.5,36106.5
60156.8,36111.2
60137.7,36114
60118.4,36115
59881.6,36115
59862.3,36114
59843.2,36111.2
59824.5,36106.5
59806.4,36100
59788.9,36091.8
59772.4,36081.8
59756.9,36070.3
59742.6,36057.4
59729.7,36043.1
59718.2,36027.6
59708.2,36011.1
59700,35993.6
59693.5,35975.5
59688.8,35956.8
59686,35937.7
59685,35918.4
59685,35681.6
59686,35662.3
59688.8,35643.2
59693.5,35624.5
59700,35606.4
59708.2,35588.9
59718.2,35572.4
59729.7,35556.9
59742.6,35542.6
59756.9,35529.7
59772.4,35518.2
59788.9,35508.2
59806.4,35500
59824.5,35493.5
59843.2,35488.8
59862.3,35486
59881.6,35485
60118.4,35485
Z" /> 
<path style="fill:#000000; fill-opacity:1.0; 
stroke:#000000; stroke-width:0; stroke-opacity:1; 
stroke-linecap:round; stroke-linejoin:round;fill-rule:evenodd;"
d="M 62137.7,36486
62156.8,36488.8
62175.5,36493.5
62193.6,36500
62211.1,36508.2
62227.6,36518.2
62243.1,36529.7
62257.4,36542.6
62270.3,36556.9
62281.8,36572.4
62291.8,36588.9
62300,36606.4
62306.5,36624.5
62311.2,36643.2
62314,36662.3
62315,36681.6
62315,36918.4
62314,36937.7
62311.2,36956.8
62306.5,36975.5
62300,36993.6
62291.8,37011.1
62281.8,37027.6
62270.3,37043.1
62257.4,37057.4
62243.1,37070.3
62227.6,37081.8
62211.1,37091.8
62193.6,37100
62175.5,37106.5
62156.8,37111.2
62137.7,37114
62118.4,37115
61881.6,37115
61862.3,37114
61843.2,37111.2
61824.5,37106.5
61806.4,37100
61788.9,37091.8
61772.4,37081.8
61756.9,37070.3
61742.6,37057.4
61729.7,37043.1
61718.2,37027.6
61708.2,37011.1
61700,36993.6
61693.5,36975.5
61688.8,36956.8
61686,36937.7
61685,36918.4
61685,36681.6
61686,36662.3
61688.8,36643.2
61693.5,36624.5
61700,36606.4
61708.2,36588.9
61718.2,36572.4
61729.7,36556.9
61742.6,36542.6
61756.9,36529.7
61772.4,36518.2
61788.9,36508.2
61806.4,36500
61824.5,36493.5
61843.2,36488.8
61862.3,36486
61881.6,36485
62118.4,36485
Z" /> 
<path style="fill:#000000; fill-opacity:1.0; 
stroke:#000000; stroke-width:0; stroke-opacity:1; 
stroke-linecap:round; stroke-linejoin:round;fill-rule:evenodd;"
d="M 60137.7,36486
60156.8,36488.8
60175.5,36493.5
60193.6,36500
60211.1,36508.2
60227.6,36518.2
60243.1,36529.7
60257.4,36542.6
60270.3,36556.9
60281.8,36572.4
60291.8,36588.9
60300,36606.4
60306.5,36624.5
60311.2,36643.2
60314,36662.3
60315,36681.6
60315,36918.4
60314,36937.7
60311.2,36956.8
60306.5,36975.5
60300,36993.6
60291.8,37011.1
60281.8,37027.6
60270.3,37043.1
60257.4,37057.4
60243.1,37070.3
60227.6,37081.8
60211.1,37091.8
60193.6,37100
60175.5,37106.5
60156.8,37111.2
60137.7,37114
60118.4,37115
59881.6,37115
59862.3,37114
59843.2,37111.2
59824.5,37106.5
59806.4,37100
59788.9,37091.8
59772.4,37081.8
59756.9,37070.3
59742.6,37057.4
59729.7,37043.1
59718.2,37027.6
59708.2,37011.1
59700,36993.6
59693.5,36975.5
59688.8,36956.8
59686,36937.7
59685,36918.4
59685,36681.6
59686,36662.3
59688.8,36643.2
59693.5,36624.5
59700,36606.4
59708.2,36588.9
59718.2,36572.4
59729.7,36556.9
59742.6,36542.6
59756.9,36529.7
59772.4,36518.2
59788.9,36508.2
59806.4,36500
59824.5,36493.5
59843.2,36488.8
59862.3,36486
59881.6,36485
60118.4,36485
Z" /> 
<path style="fill:#000000; fill-opacity:1.0; 
stroke:#000000; stroke-width:0; stroke-opacity:1; 
stroke-linecap:round; stroke-linejoin:round;fill-rule:evenodd;"
d="M 60720,37080
60720,36520
61280,36520
61280,37080
Z" /> 
</g>
<g >
</g>
<g >
</g>
<g >
</g>
</g> 
</svg>
