<?xml version="1.0" standalone="no"?>
 <!DOCTYPE svg PUBLIC "-//W3C//DTD SVG 1.1//EN" 
 "http://www.w3.org/Graphics/SVG/1.1/DTD/svg11.dtd"> 
<svg
  xmlns:svg="http://www.w3.org/2000/svg"
  xmlns="http://www.w3.org/2000/svg"
  xmlns:xlink="http://www.w3.org/1999/xlink"
  version="1.1"
  width="29.700220cm" height="21.000720cm" viewBox="0 0 116930 82680">
<title>SVG Picture created as galep4-plcc-28-B_Mask.svg date 2021/03/27 06:25:03 </title>
  <desc>Picture generated by PCBNEW </desc>
<g style="fill:#000000; fill-opacity:1;stroke:#000000; stroke-opacity:1;
stroke-linecap:round; stroke-linejoin:round;"
 transform="translate(0 0) scale(1 1)">
</g>
<g style="fill:#000000; fill-opacity:0.0; 
stroke:#000000; stroke-width:-0.000393701; stroke-opacity:1; 
stroke-linecap:round; stroke-linejoin:round;">
<g >
</g>
<g style="fill:#000000; fill-opacity:0.0; 
stroke:#000000; stroke-width:629.921; stroke-opacity:1; 
stroke-linecap:round; stroke-linejoin:round;">
<path d="M46127 30858
L45812 30858
" />
<path d="M52127 45858
L51812 45858
" />
<path d="M46127 31858
L45812 31858
" />
<path d="M52127 44858
L51812 44858
" />
<path d="M46127 32858
L45812 32858
" />
<path d="M52127 43858
L51812 43858
" />
<path d="M46127 33858
L45812 33858
" />
<path d="M52127 42858
L51812 42858
" />
<path d="M46127 34858
L45812 34858
" />
<path d="M52127 41858
L51812 41858
" />
<path d="M46127 35858
L45812 35858
" />
<path d="M52127 40858
L51812 40858
" />
<path d="M46127 36858
L45812 36858
" />
<path d="M52127 39858
L51812 39858
" />
<path d="M46127 37858
L45812 37858
" />
<path d="M52127 38858
L51812 38858
" />
<path d="M46127 38858
L45812 38858
" />
<path d="M52127 37858
L51812 37858
" />
<path d="M46127 39858
L45812 39858
" />
<path d="M52127 36858
L51812 36858
" />
<path d="M46127 40858
L45812 40858
" />
<path d="M52127 35858
L51812 35858
" />
<path d="M46127 41858
L45812 41858
" />
<path d="M52127 34858
L51812 34858
" />
<path d="M46127 42858
L45812 42858
" />
<path d="M52127 33858
L51812 33858
" />
<path d="M46127 43858
L45812 43858
" />
<path d="M52127 32858
L51812 32858
" />
<path d="M46127 44858
L45812 44858
" />
<path d="M52127 31858
L51812 31858
" />
<path d="M46127 45858
L45812 45858
" />
</g>
<g style="fill:#000000; fill-opacity:0.0; 
stroke:#000000; stroke-width:0; stroke-opacity:1; 
stroke-linecap:round; stroke-linejoin:round;">
</g>
<g style="fill:#000000; fill-opacity:1.0; 
stroke:#000000; stroke-width:0; stroke-opacity:1; 
stroke-linecap:round; stroke-linejoin:round;">
<path style="fill:#000000; fill-opacity:1.0; 
stroke:#000000; stroke-width:0; stroke-opacity:1; 
stroke-linecap:round; stroke-linejoin:round;fill-rule:evenodd;"
d="M 52442.6,31173.2
52442.6,30543.3
51497.7,30543.3
51497.7,31173.2
Z" /> 
</g>
<g >
</g>
<g style="fill:#000000; fill-opacity:1.0; 
stroke:#000000; stroke-width:0; stroke-opacity:1; 
stroke-linecap:round; stroke-linejoin:round;">
<path style="fill:#000000; fill-opacity:1.0; 
stroke:#000000; stroke-width:0; stroke-opacity:1; 
stroke-linecap:round; stroke-linejoin:round;fill-rule:evenodd;"
d="M 38792.3,35986
38773.2,35988.8
38754.5,35993.5
38736.4,36000
38718.9,36008.2
38702.4,36018.2
38686.9,36029.7
38672.6,36042.6
38659.7,36056.9
38648.2,36072.4
38638.2,36088.9
38630,36106.4
38623.5,36124.5
38618.8,36143.2
38616,36162.3
38615,36181.6
38615,36418.4
38616,36437.7
38618.8,36456.8
38623.5,36475.5
38630,36493.6
38638.2,36511.1
38648.2,36527.6
38659.7,36543.1
38672.6,36557.4
38686.9,36570.3
38702.4,36581.8
38718.9,36591.8
38736.4,36600
38754.5,36606.5
38773.2,36611.2
38792.3,36614
38811.6,36615
39048.4,36615
39067.7,36614
39086.8,36611.2
39105.5,36606.5
39123.6,36600
39141.1,36591.8
39157.6,36581.8
39173.1,36570.3
39187.4,36557.4
39200.3,36543.1
39211.8,36527.6
39221.8,36511.1
39230,36493.6
39236.5,36475.5
39241.2,36456.8
39244,36437.7
39245,36418.4
39245,36181.6
39244,36162.3
39241.2,36143.2
39236.5,36124.5
39230,36106.4
39221.8,36088.9
39211.8,36072.4
39200.3,36056.9
39187.4,36042.6
39173.1,36029.7
39157.6,36018.2
39141.1,36008.2
39123.6,36000
39105.5,35993.5
39086.8,35988.8
39067.7,35986
39048.4,35985
38811.6,35985
Z" /> 
<path style="fill:#000000; fill-opacity:1.0; 
stroke:#000000; stroke-width:0; stroke-opacity:1; 
stroke-linecap:round; stroke-linejoin:round;fill-rule:evenodd;"
d="M 38792.3,36986
38773.2,36988.8
38754.5,36993.5
38736.4,37000
38718.9,37008.2
38702.4,37018.2
38686.9,37029.7
38672.6,37042.6
38659.7,37056.9
38648.2,37072.4
38638.2,37088.9
38630,37106.4
38623.5,37124.5
38618.8,37143.2
38616,37162.3
38615,37181.6
38615,37418.4
38616,37437.7
38618.8,37456.8
38623.5,37475.5
38630,37493.6
38638.2,37511.1
38648.2,37527.6
38659.7,37543.1
38672.6,37557.4
38686.9,37570.3
38702.4,37581.8
38718.9,37591.8
38736.4,37600
38754.5,37606.5
38773.2,37611.2
38792.3,37614
38811.6,37615
39048.4,37615
39067.7,37614
39086.8,37611.2
39105.5,37606.5
39123.6,37600
39141.1,37591.8
39157.6,37581.8
39173.1,37570.3
39187.4,37557.4
39200.3,37543.1
39211.8,37527.6
39221.8,37511.1
39230,37493.6
39236.5,37475.5
39241.2,37456.8
39244,37437.7
39245,37418.4
39245,37181.6
39244,37162.3
39241.2,37143.2
39236.5,37124.5
39230,37106.4
39221.8,37088.9
39211.8,37072.4
39200.3,37056.9
39187.4,37042.6
39173.1,37029.7
39157.6,37018.2
39141.1,37008.2
39123.6,37000
39105.5,36993.5
39086.8,36988.8
39067.7,36986
39048.4,36985
38811.6,36985
Z" /> 
<path style="fill:#000000; fill-opacity:1.0; 
stroke:#000000; stroke-width:0; stroke-opacity:1; 
stroke-linecap:round; stroke-linejoin:round;fill-rule:evenodd;"
d="M 38792.3,37986
38773.2,37988.8
38754.5,37993.5
38736.4,38000
38718.9,38008.2
38702.4,38018.2
38686.9,38029.7
38672.6,38042.6
38659.7,38056.9
38648.2,38072.4
38638.2,38088.9
38630,38106.4
38623.5,38124.5
38618.8,38143.2
38616,38162.3
38615,38181.6
38615,38418.4
38616,38437.7
38618.8,38456.8
38623.5,38475.5
38630,38493.6
38638.2,38511.1
38648.2,38527.6
38659.7,38543.1
38672.6,38557.4
38686.9,38570.3
38702.4,38581.8
38718.9,38591.8
38736.4,38600
38754.5,38606.5
38773.2,38611.2
38792.3,38614
38811.6,38615
39048.4,38615
39067.7,38614
39086.8,38611.2
39105.5,38606.5
39123.6,38600
39141.1,38591.8
39157.6,38581.8
39173.1,38570.3
39187.4,38557.4
39200.3,38543.1
39211.8,38527.6
39221.8,38511.1
39230,38493.6
39236.5,38475.5
39241.2,38456.8
39244,38437.7
39245,38418.4
39245,38181.6
39244,38162.3
39241.2,38143.2
39236.5,38124.5
39230,38106.4
39221.8,38088.9
39211.8,38072.4
39200.3,38056.9
39187.4,38042.6
39173.1,38029.7
39157.6,38018.2
39141.1,38008.2
39123.6,38000
39105.5,37993.5
39086.8,37988.8
39067.7,37986
39048.4,37985
38811.6,37985
Z" /> 
<path style="fill:#000000; fill-opacity:1.0; 
stroke:#000000; stroke-width:0; stroke-opacity:1; 
stroke-linecap:round; stroke-linejoin:round;fill-rule:evenodd;"
d="M 38792.3,38986
38773.2,38988.8
38754.5,38993.5
38736.4,39000
38718.9,39008.2
38702.4,39018.2
38686.9,39029.7
38672.6,39042.6
38659.7,39056.9
38648.2,39072.4
38638.2,39088.9
38630,39106.4
38623.5,39124.5
38618.8,39143.2
38616,39162.3
38615,39181.6
38615,39418.4
38616,39437.7
38618.8,39456.8
38623.5,39475.5
38630,39493.6
38638.2,39511.1
38648.2,39527.6
38659.7,39543.1
38672.6,39557.4
38686.9,39570.3
38702.4,39581.8
38718.9,39591.8
38736.4,39600
38754.5,39606.5
38773.2,39611.2
38792.3,39614
38811.6,39615
39048.4,39615
39067.7,39614
39086.8,39611.2
39105.5,39606.5
39123.6,39600
39141.1,39591.8
39157.6,39581.8
39173.1,39570.3
39187.4,39557.4
39200.3,39543.1
39211.8,39527.6
39221.8,39511.1
39230,39493.6
39236.5,39475.5
39241.2,39456.8
39244,39437.7
39245,39418.4
39245,39181.6
39244,39162.3
39241.2,39143.2
39236.5,39124.5
39230,39106.4
39221.8,39088.9
39211.8,39072.4
39200.3,39056.9
39187.4,39042.6
39173.1,39029.7
39157.6,39018.2
39141.1,39008.2
39123.6,39000
39105.5,38993.5
39086.8,38988.8
39067.7,38986
39048.4,38985
38811.6,38985
Z" /> 
<path style="fill:#000000; fill-opacity:1.0; 
stroke:#000000; stroke-width:0; stroke-opacity:1; 
stroke-linecap:round; stroke-linejoin:round;fill-rule:evenodd;"
d="M 39792.3,36986
39773.2,36988.8
39754.5,36993.5
39736.4,37000
39718.9,37008.2
39702.4,37018.2
39686.9,37029.7
39672.6,37042.6
39659.7,37056.9
39648.2,37072.4
39638.2,37088.9
39630,37106.4
39623.5,37124.5
39618.8,37143.2
39616,37162.3
39615,37181.6
39615,37418.4
39616,37437.7
39618.8,37456.8
39623.5,37475.5
39630,37493.6
39638.2,37511.1
39648.2,37527.6
39659.7,37543.1
39672.6,37557.4
39686.9,37570.3
39702.4,37581.8
39718.9,37591.8
39736.4,37600
39754.5,37606.5
39773.2,37611.2
39792.3,37614
39811.6,37615
40048.4,37615
40067.7,37614
40086.8,37611.2
40105.5,37606.5
40123.6,37600
40141.1,37591.8
40157.6,37581.8
40173.1,37570.3
40187.4,37557.4
40200.3,37543.1
40211.8,37527.6
40221.8,37511.1
40230,37493.6
40236.5,37475.5
40241.2,37456.8
40244,37437.7
40245,37418.4
40245,37181.6
40244,37162.3
40241.2,37143.2
40236.5,37124.5
40230,37106.4
40221.8,37088.9
40211.8,37072.4
40200.3,37056.9
40187.4,37042.6
40173.1,37029.7
40157.6,37018.2
40141.1,37008.2
40123.6,37000
40105.5,36993.5
40086.8,36988.8
40067.7,36986
40048.4,36985
39811.6,36985
Z" /> 
<path style="fill:#000000; fill-opacity:1.0; 
stroke:#000000; stroke-width:0; stroke-opacity:1; 
stroke-linecap:round; stroke-linejoin:round;fill-rule:evenodd;"
d="M 39792.3,37986
39773.2,37988.8
39754.5,37993.5
39736.4,38000
39718.9,38008.2
39702.4,38018.2
39686.9,38029.7
39672.6,38042.6
39659.7,38056.9
39648.2,38072.4
39638.2,38088.9
39630,38106.4
39623.5,38124.5
39618.8,38143.2
39616,38162.3
39615,38181.6
39615,38418.4
39616,38437.7
39618.8,38456.8
39623.5,38475.5
39630,38493.6
39638.2,38511.1
39648.2,38527.6
39659.7,38543.1
39672.6,38557.4
39686.9,38570.3
39702.4,38581.8
39718.9,38591.8
39736.4,38600
39754.5,38606.5
39773.2,38611.2
39792.3,38614
39811.6,38615
40048.4,38615
40067.7,38614
40086.8,38611.2
40105.5,38606.5
40123.6,38600
40141.1,38591.8
40157.6,38581.8
40173.1,38570.3
40187.4,38557.4
40200.3,38543.1
40211.8,38527.6
40221.8,38511.1
40230,38493.6
40236.5,38475.5
40241.2,38456.8
40244,38437.7
40245,38418.4
40245,38181.6
40244,38162.3
40241.2,38143.2
40236.5,38124.5
40230,38106.4
40221.8,38088.9
40211.8,38072.4
40200.3,38056.9
40187.4,38042.6
40173.1,38029.7
40157.6,38018.2
40141.1,38008.2
40123.6,38000
40105.5,37993.5
40086.8,37988.8
40067.7,37986
40048.4,37985
39811.6,37985
Z" /> 
<path style="fill:#000000; fill-opacity:1.0; 
stroke:#000000; stroke-width:0; stroke-opacity:1; 
stroke-linecap:round; stroke-linejoin:round;fill-rule:evenodd;"
d="M 39792.3,38986
39773.2,38988.8
39754.5,38993.5
39736.4,39000
39718.9,39008.2
39702.4,39018.2
39686.9,39029.7
39672.6,39042.6
39659.7,39056.9
39648.2,39072.4
39638.2,39088.9
39630,39106.4
39623.5,39124.5
39618.8,39143.2
39616,39162.3
39615,39181.6
39615,39418.4
39616,39437.7
39618.8,39456.8
39623.5,39475.5
39630,39493.6
39638.2,39511.1
39648.2,39527.6
39659.7,39543.1
39672.6,39557.4
39686.9,39570.3
39702.4,39581.8
39718.9,39591.8
39736.4,39600
39754.5,39606.5
39773.2,39611.2
39792.3,39614
39811.6,39615
40048.4,39615
40067.7,39614
40086.8,39611.2
40105.5,39606.5
40123.6,39600
40141.1,39591.8
40157.6,39581.8
40173.1,39570.3
40187.4,39557.4
40200.3,39543.1
40211.8,39527.6
40221.8,39511.1
40230,39493.6
40236.5,39475.5
40241.2,39456.8
40244,39437.7
40245,39418.4
40245,39181.6
40244,39162.3
40241.2,39143.2
40236.5,39124.5
40230,39106.4
40221.8,39088.9
40211.8,39072.4
40200.3,39056.9
40187.4,39042.6
40173.1,39029.7
40157.6,39018.2
40141.1,39008.2
40123.6,39000
40105.5,38993.5
40086.8,38988.8
40067.7,38986
40048.4,38985
39811.6,38985
Z" /> 
<path style="fill:#000000; fill-opacity:1.0; 
stroke:#000000; stroke-width:0; stroke-opacity:1; 
stroke-linecap:round; stroke-linejoin:round;fill-rule:evenodd;"
d="M 39792.3,39986
39773.2,39988.8
39754.5,39993.5
39736.4,40000
39718.9,40008.2
39702.4,40018.2
39686.9,40029.7
39672.6,40042.6
39659.7,40056.9
39648.2,40072.4
39638.2,40088.9
39630,40106.4
39623.5,40124.5
39618.8,40143.2
39616,40162.3
39615,40181.6
39615,40418.4
39616,40437.7
39618.8,40456.8
39623.5,40475.5
39630,40493.6
39638.2,40511.1
39648.2,40527.6
39659.7,40543.1
39672.6,40557.4
39686.9,40570.3
39702.4,40581.8
39718.9,40591.8
39736.4,40600
39754.5,40606.5
39773.2,40611.2
39792.3,40614
39811.6,40615
40048.4,40615
40067.7,40614
40086.8,40611.2
40105.5,40606.5
40123.6,40600
40141.1,40591.8
40157.6,40581.8
40173.1,40570.3
40187.4,40557.4
40200.3,40543.1
40211.8,40527.6
40221.8,40511.1
40230,40493.6
40236.5,40475.5
40241.2,40456.8
40244,40437.7
40245,40418.4
40245,40181.6
40244,40162.3
40241.2,40143.2
40236.5,40124.5
40230,40106.4
40221.8,40088.9
40211.8,40072.4
40200.3,40056.9
40187.4,40042.6
40173.1,40029.7
40157.6,40018.2
40141.1,40008.2
40123.6,40000
40105.5,39993.5
40086.8,39988.8
40067.7,39986
40048.4,39985
39811.6,39985
Z" /> 
<path style="fill:#000000; fill-opacity:1.0; 
stroke:#000000; stroke-width:0; stroke-opacity:1; 
stroke-linecap:round; stroke-linejoin:round;fill-rule:evenodd;"
d="M 39792.3,40986
39773.2,40988.8
39754.5,40993.5
39736.4,41000
39718.9,41008.2
39702.4,41018.2
39686.9,41029.7
39672.6,41042.6
39659.7,41056.9
39648.2,41072.4
39638.2,41088.9
39630,41106.4
39623.5,41124.5
39618.8,41143.2
39616,41162.3
39615,41181.6
39615,41418.4
39616,41437.7
39618.8,41456.8
39623.5,41475.5
39630,41493.6
39638.2,41511.1
39648.2,41527.6
39659.7,41543.1
39672.6,41557.4
39686.9,41570.3
39702.4,41581.8
39718.9,41591.8
39736.4,41600
39754.5,41606.5
39773.2,41611.2
39792.3,41614
39811.6,41615
40048.4,41615
40067.7,41614
40086.8,41611.2
40105.5,41606.5
40123.6,41600
40141.1,41591.8
40157.6,41581.8
40173.1,41570.3
40187.4,41557.4
40200.3,41543.1
40211.8,41527.6
40221.8,41511.1
40230,41493.6
40236.5,41475.5
40241.2,41456.8
40244,41437.7
40245,41418.4
40245,41181.6
40244,41162.3
40241.2,41143.2
40236.5,41124.5
40230,41106.4
40221.8,41088.9
40211.8,41072.4
40200.3,41056.9
40187.4,41042.6
40173.1,41029.7
40157.6,41018.2
40141.1,41008.2
40123.6,41000
40105.5,40993.5
40086.8,40988.8
40067.7,40986
40048.4,40985
39811.6,40985
Z" /> 
<path style="fill:#000000; fill-opacity:1.0; 
stroke:#000000; stroke-width:0; stroke-opacity:1; 
stroke-linecap:round; stroke-linejoin:round;fill-rule:evenodd;"
d="M 40792.3,40986
40773.2,40988.8
40754.5,40993.5
40736.4,41000
40718.9,41008.2
40702.4,41018.2
40686.9,41029.7
40672.6,41042.6
40659.7,41056.9
40648.2,41072.4
40638.2,41088.9
40630,41106.4
40623.5,41124.5
40618.8,41143.2
40616,41162.3
40615,41181.6
40615,41418.4
40616,41437.7
40618.8,41456.8
40623.5,41475.5
40630,41493.6
40638.2,41511.1
40648.2,41527.6
40659.7,41543.1
40672.6,41557.4
40686.9,41570.3
40702.4,41581.8
40718.9,41591.8
40736.4,41600
40754.5,41606.5
40773.2,41611.2
40792.3,41614
40811.6,41615
41048.4,41615
41067.7,41614
41086.8,41611.2
41105.5,41606.5
41123.6,41600
41141.1,41591.8
41157.6,41581.8
41173.1,41570.3
41187.4,41557.4
41200.3,41543.1
41211.8,41527.6
41221.8,41511.1
41230,41493.6
41236.5,41475.5
41241.2,41456.8
41244,41437.7
41245,41418.4
41245,41181.6
41244,41162.3
41241.2,41143.2
41236.5,41124.5
41230,41106.4
41221.8,41088.9
41211.8,41072.4
41200.3,41056.9
41187.4,41042.6
41173.1,41029.7
41157.6,41018.2
41141.1,41008.2
41123.6,41000
41105.5,40993.5
41086.8,40988.8
41067.7,40986
41048.4,40985
40811.6,40985
Z" /> 
<path style="fill:#000000; fill-opacity:1.0; 
stroke:#000000; stroke-width:0; stroke-opacity:1; 
stroke-linecap:round; stroke-linejoin:round;fill-rule:evenodd;"
d="M 41792.3,40986
41773.2,40988.8
41754.5,40993.5
41736.4,41000
41718.9,41008.2
41702.4,41018.2
41686.9,41029.7
41672.6,41042.6
41659.7,41056.9
41648.2,41072.4
41638.2,41088.9
41630,41106.4
41623.5,41124.5
41618.8,41143.2
41616,41162.3
41615,41181.6
41615,41418.4
41616,41437.7
41618.8,41456.8
41623.5,41475.5
41630,41493.6
41638.2,41511.1
41648.2,41527.6
41659.7,41543.1
41672.6,41557.4
41686.9,41570.3
41702.4,41581.8
41718.9,41591.8
41736.4,41600
41754.5,41606.5
41773.2,41611.2
41792.3,41614
41811.6,41615
42048.4,41615
42067.7,41614
42086.8,41611.2
42105.5,41606.5
42123.6,41600
42141.1,41591.8
42157.6,41581.8
42173.1,41570.3
42187.4,41557.4
42200.3,41543.1
42211.8,41527.6
42221.8,41511.1
42230,41493.6
42236.5,41475.5
42241.2,41456.8
42244,41437.7
42245,41418.4
42245,41181.6
42244,41162.3
42241.2,41143.2
42236.5,41124.5
42230,41106.4
42221.8,41088.9
42211.8,41072.4
42200.3,41056.9
42187.4,41042.6
42173.1,41029.7
42157.6,41018.2
42141.1,41008.2
42123.6,41000
42105.5,40993.5
42086.8,40988.8
42067.7,40986
42048.4,40985
41811.6,40985
Z" /> 
<path style="fill:#000000; fill-opacity:1.0; 
stroke:#000000; stroke-width:0; stroke-opacity:1; 
stroke-linecap:round; stroke-linejoin:round;fill-rule:evenodd;"
d="M 42792.3,40986
42773.2,40988.8
42754.5,40993.5
42736.4,41000
42718.9,41008.2
42702.4,41018.2
42686.9,41029.7
42672.6,41042.6
42659.7,41056.9
42648.2,41072.4
42638.2,41088.9
42630,41106.4
42623.5,41124.5
42618.8,41143.2
42616,41162.3
42615,41181.6
42615,41418.4
42616,41437.7
42618.8,41456.8
42623.5,41475.5
42630,41493.6
42638.2,41511.1
42648.2,41527.6
42659.7,41543.1
42672.6,41557.4
42686.9,41570.3
42702.4,41581.8
42718.9,41591.8
42736.4,41600
42754.5,41606.5
42773.2,41611.2
42792.3,41614
42811.6,41615
43048.4,41615
43067.7,41614
43086.8,41611.2
43105.5,41606.5
43123.6,41600
43141.1,41591.8
43157.6,41581.8
43173.1,41570.3
43187.4,41557.4
43200.3,41543.1
43211.8,41527.6
43221.8,41511.1
43230,41493.6
43236.5,41475.5
43241.2,41456.8
43244,41437.7
43245,41418.4
43245,41181.6
43244,41162.3
43241.2,41143.2
43236.5,41124.5
43230,41106.4
43221.8,41088.9
43211.8,41072.4
43200.3,41056.9
43187.4,41042.6
43173.1,41029.7
43157.6,41018.2
43141.1,41008.2
43123.6,41000
43105.5,40993.5
43086.8,40988.8
43067.7,40986
43048.4,40985
42811.6,40985
Z" /> 
<path style="fill:#000000; fill-opacity:1.0; 
stroke:#000000; stroke-width:0; stroke-opacity:1; 
stroke-linecap:round; stroke-linejoin:round;fill-rule:evenodd;"
d="M 38792.3,39986
38773.2,39988.8
38754.5,39993.5
38736.4,40000
38718.9,40008.2
38702.4,40018.2
38686.9,40029.7
38672.6,40042.6
38659.7,40056.9
38648.2,40072.4
38638.2,40088.9
38630,40106.4
38623.5,40124.5
38618.8,40143.2
38616,40162.3
38615,40181.6
38615,40418.4
38616,40437.7
38618.8,40456.8
38623.5,40475.5
38630,40493.6
38638.2,40511.1
38648.2,40527.6
38659.7,40543.1
38672.6,40557.4
38686.9,40570.3
38702.4,40581.8
38718.9,40591.8
38736.4,40600
38754.5,40606.5
38773.2,40611.2
38792.3,40614
38811.6,40615
39048.4,40615
39067.7,40614
39086.8,40611.2
39105.5,40606.5
39123.6,40600
39141.1,40591.8
39157.6,40581.8
39173.1,40570.3
39187.4,40557.4
39200.3,40543.1
39211.8,40527.6
39221.8,40511.1
39230,40493.6
39236.5,40475.5
39241.2,40456.8
39244,40437.7
39245,40418.4
39245,40181.6
39244,40162.3
39241.2,40143.2
39236.5,40124.5
39230,40106.4
39221.8,40088.9
39211.8,40072.4
39200.3,40056.9
39187.4,40042.6
39173.1,40029.7
39157.6,40018.2
39141.1,40008.2
39123.6,40000
39105.5,39993.5
39086.8,39988.8
39067.7,39986
39048.4,39985
38811.6,39985
Z" /> 
<path style="fill:#000000; fill-opacity:1.0; 
stroke:#000000; stroke-width:0; stroke-opacity:1; 
stroke-linecap:round; stroke-linejoin:round;fill-rule:evenodd;"
d="M 40792.3,39986
40773.2,39988.8
40754.5,39993.5
40736.4,40000
40718.9,40008.2
40702.4,40018.2
40686.9,40029.7
40672.6,40042.6
40659.7,40056.9
40648.2,40072.4
40638.2,40088.9
40630,40106.4
40623.5,40124.5
40618.8,40143.2
40616,40162.3
40615,40181.6
40615,40418.4
40616,40437.7
40618.8,40456.8
40623.5,40475.5
40630,40493.6
40638.2,40511.1
40648.2,40527.6
40659.7,40543.1
40672.6,40557.4
40686.9,40570.3
40702.4,40581.8
40718.9,40591.8
40736.4,40600
40754.5,40606.5
40773.2,40611.2
40792.3,40614
40811.6,40615
41048.4,40615
41067.7,40614
41086.8,40611.2
41105.5,40606.5
41123.6,40600
41141.1,40591.8
41157.6,40581.8
41173.1,40570.3
41187.4,40557.4
41200.3,40543.1
41211.8,40527.6
41221.8,40511.1
41230,40493.6
41236.5,40475.5
41241.2,40456.8
41244,40437.7
41245,40418.4
41245,40181.6
41244,40162.3
41241.2,40143.2
41236.5,40124.5
41230,40106.4
41221.8,40088.9
41211.8,40072.4
41200.3,40056.9
41187.4,40042.6
41173.1,40029.7
41157.6,40018.2
41141.1,40008.2
41123.6,40000
41105.5,39993.5
41086.8,39988.8
41067.7,39986
41048.4,39985
40811.6,39985
Z" /> 
<path style="fill:#000000; fill-opacity:1.0; 
stroke:#000000; stroke-width:0; stroke-opacity:1; 
stroke-linecap:round; stroke-linejoin:round;fill-rule:evenodd;"
d="M 41792.3,39986
41773.2,39988.8
41754.5,39993.5
41736.4,40000
41718.9,40008.2
41702.4,40018.2
41686.9,40029.7
41672.6,40042.6
41659.7,40056.9
41648.2,40072.4
41638.2,40088.9
41630,40106.4
41623.5,40124.5
41618.8,40143.2
41616,40162.3
41615,40181.6
41615,40418.4
41616,40437.7
41618.8,40456.8
41623.5,40475.5
41630,40493.6
41638.2,40511.1
41648.2,40527.6
41659.7,40543.1
41672.6,40557.4
41686.9,40570.3
41702.4,40581.8
41718.9,40591.8
41736.4,40600
41754.5,40606.5
41773.2,40611.2
41792.3,40614
41811.6,40615
42048.4,40615
42067.7,40614
42086.8,40611.2
42105.5,40606.5
42123.6,40600
42141.1,40591.8
42157.6,40581.8
42173.1,40570.3
42187.4,40557.4
42200.3,40543.1
42211.8,40527.6
42221.8,40511.1
42230,40493.6
42236.5,40475.5
42241.2,40456.8
42244,40437.7
42245,40418.4
42245,40181.6
42244,40162.3
42241.2,40143.2
42236.5,40124.5
42230,40106.4
42221.8,40088.9
42211.8,40072.4
42200.3,40056.9
42187.4,40042.6
42173.1,40029.7
42157.6,40018.2
42141.1,40008.2
42123.6,40000
42105.5,39993.5
42086.8,39988.8
42067.7,39986
42048.4,39985
41811.6,39985
Z" /> 
<path style="fill:#000000; fill-opacity:1.0; 
stroke:#000000; stroke-width:0; stroke-opacity:1; 
stroke-linecap:round; stroke-linejoin:round;fill-rule:evenodd;"
d="M 42792.3,39986
42773.2,39988.8
42754.5,39993.5
42736.4,40000
42718.9,40008.2
42702.4,40018.2
42686.9,40029.7
42672.6,40042.6
42659.7,40056.9
42648.2,40072.4
42638.2,40088.9
42630,40106.4
42623.5,40124.5
42618.8,40143.2
42616,40162.3
42615,40181.6
42615,40418.4
42616,40437.7
42618.8,40456.8
42623.5,40475.5
42630,40493.6
42638.2,40511.1
42648.2,40527.6
42659.7,40543.1
42672.6,40557.4
42686.9,40570.3
42702.4,40581.8
42718.9,40591.8
42736.4,40600
42754.5,40606.5
42773.2,40611.2
42792.3,40614
42811.6,40615
43048.4,40615
43067.7,40614
43086.8,40611.2
43105.5,40606.5
43123.6,40600
43141.1,40591.8
43157.6,40581.8
43173.1,40570.3
43187.4,40557.4
43200.3,40543.1
43211.8,40527.6
43221.8,40511.1
43230,40493.6
43236.5,40475.5
43241.2,40456.8
43244,40437.7
43245,40418.4
43245,40181.6
43244,40162.3
43241.2,40143.2
43236.5,40124.5
43230,40106.4
43221.8,40088.9
43211.8,40072.4
43200.3,40056.9
43187.4,40042.6
43173.1,40029.7
43157.6,40018.2
43141.1,40008.2
43123.6,40000
43105.5,39993.5
43086.8,39988.8
43067.7,39986
43048.4,39985
42811.6,39985
Z" /> 
<path style="fill:#000000; fill-opacity:1.0; 
stroke:#000000; stroke-width:0; stroke-opacity:1; 
stroke-linecap:round; stroke-linejoin:round;fill-rule:evenodd;"
d="M 43792.3,39986
43773.2,39988.8
43754.5,39993.5
43736.4,40000
43718.9,40008.2
43702.4,40018.2
43686.9,40029.7
43672.6,40042.6
43659.7,40056.9
43648.2,40072.4
43638.2,40088.9
43630,40106.4
43623.5,40124.5
43618.8,40143.2
43616,40162.3
43615,40181.6
43615,40418.4
43616,40437.7
43618.8,40456.8
43623.5,40475.5
43630,40493.6
43638.2,40511.1
43648.2,40527.6
43659.7,40543.1
43672.6,40557.4
43686.9,40570.3
43702.4,40581.8
43718.9,40591.8
43736.4,40600
43754.5,40606.5
43773.2,40611.2
43792.3,40614
43811.6,40615
44048.4,40615
44067.7,40614
44086.8,40611.2
44105.5,40606.5
44123.6,40600
44141.1,40591.8
44157.6,40581.8
44173.1,40570.3
44187.4,40557.4
44200.3,40543.1
44211.8,40527.6
44221.8,40511.1
44230,40493.6
44236.5,40475.5
44241.2,40456.8
44244,40437.7
44245,40418.4
44245,40181.6
44244,40162.3
44241.2,40143.2
44236.5,40124.5
44230,40106.4
44221.8,40088.9
44211.8,40072.4
44200.3,40056.9
44187.4,40042.6
44173.1,40029.7
44157.6,40018.2
44141.1,40008.2
44123.6,40000
44105.5,39993.5
44086.8,39988.8
44067.7,39986
44048.4,39985
43811.6,39985
Z" /> 
<path style="fill:#000000; fill-opacity:1.0; 
stroke:#000000; stroke-width:0; stroke-opacity:1; 
stroke-linecap:round; stroke-linejoin:round;fill-rule:evenodd;"
d="M 43792.3,38986
43773.2,38988.8
43754.5,38993.5
43736.4,39000
43718.9,39008.2
43702.4,39018.2
43686.9,39029.7
43672.6,39042.6
43659.7,39056.9
43648.2,39072.4
43638.2,39088.9
43630,39106.4
43623.5,39124.5
43618.8,39143.2
43616,39162.3
43615,39181.6
43615,39418.4
43616,39437.7
43618.8,39456.8
43623.5,39475.5
43630,39493.6
43638.2,39511.1
43648.2,39527.6
43659.7,39543.1
43672.6,39557.4
43686.9,39570.3
43702.4,39581.8
43718.9,39591.8
43736.4,39600
43754.5,39606.5
43773.2,39611.2
43792.3,39614
43811.6,39615
44048.4,39615
44067.7,39614
44086.8,39611.2
44105.5,39606.5
44123.6,39600
44141.1,39591.8
44157.6,39581.8
44173.1,39570.3
44187.4,39557.4
44200.3,39543.1
44211.8,39527.6
44221.8,39511.1
44230,39493.6
44236.5,39475.5
44241.2,39456.8
44244,39437.7
44245,39418.4
44245,39181.6
44244,39162.3
44241.2,39143.2
44236.5,39124.5
44230,39106.4
44221.8,39088.9
44211.8,39072.4
44200.3,39056.9
44187.4,39042.6
44173.1,39029.7
44157.6,39018.2
44141.1,39008.2
44123.6,39000
44105.5,38993.5
44086.8,38988.8
44067.7,38986
44048.4,38985
43811.6,38985
Z" /> 
<path style="fill:#000000; fill-opacity:1.0; 
stroke:#000000; stroke-width:0; stroke-opacity:1; 
stroke-linecap:round; stroke-linejoin:round;fill-rule:evenodd;"
d="M 43792.3,37986
43773.2,37988.8
43754.5,37993.5
43736.4,38000
43718.9,38008.2
43702.4,38018.2
43686.9,38029.7
43672.6,38042.6
43659.7,38056.9
43648.2,38072.4
43638.2,38088.9
43630,38106.4
43623.5,38124.5
43618.8,38143.2
43616,38162.3
43615,38181.6
43615,38418.4
43616,38437.7
43618.8,38456.8
43623.5,38475.5
43630,38493.6
43638.2,38511.1
43648.2,38527.6
43659.7,38543.1
43672.6,38557.4
43686.9,38570.3
43702.4,38581.8
43718.9,38591.8
43736.4,38600
43754.5,38606.5
43773.2,38611.2
43792.3,38614
43811.6,38615
44048.4,38615
44067.7,38614
44086.8,38611.2
44105.5,38606.5
44123.6,38600
44141.1,38591.8
44157.6,38581.8
44173.1,38570.3
44187.4,38557.4
44200.3,38543.1
44211.8,38527.6
44221.8,38511.1
44230,38493.6
44236.5,38475.5
44241.2,38456.8
44244,38437.7
44245,38418.4
44245,38181.6
44244,38162.3
44241.2,38143.2
44236.5,38124.5
44230,38106.4
44221.8,38088.9
44211.8,38072.4
44200.3,38056.9
44187.4,38042.6
44173.1,38029.7
44157.6,38018.2
44141.1,38008.2
44123.6,38000
44105.5,37993.5
44086.8,37988.8
44067.7,37986
44048.4,37985
43811.6,37985
Z" /> 
<path style="fill:#000000; fill-opacity:1.0; 
stroke:#000000; stroke-width:0; stroke-opacity:1; 
stroke-linecap:round; stroke-linejoin:round;fill-rule:evenodd;"
d="M 43792.3,36986
43773.2,36988.8
43754.5,36993.5
43736.4,37000
43718.9,37008.2
43702.4,37018.2
43686.9,37029.7
43672.6,37042.6
43659.7,37056.9
43648.2,37072.4
43638.2,37088.9
43630,37106.4
43623.5,37124.5
43618.8,37143.2
43616,37162.3
43615,37181.6
43615,37418.4
43616,37437.7
43618.8,37456.8
43623.5,37475.5
43630,37493.6
43638.2,37511.1
43648.2,37527.6
43659.7,37543.1
43672.6,37557.4
43686.9,37570.3
43702.4,37581.8
43718.9,37591.8
43736.4,37600
43754.5,37606.5
43773.2,37611.2
43792.3,37614
43811.6,37615
44048.4,37615
44067.7,37614
44086.8,37611.2
44105.5,37606.5
44123.6,37600
44141.1,37591.8
44157.6,37581.8
44173.1,37570.3
44187.4,37557.4
44200.3,37543.1
44211.8,37527.6
44221.8,37511.1
44230,37493.6
44236.5,37475.5
44241.2,37456.8
44244,37437.7
44245,37418.4
44245,37181.6
44244,37162.3
44241.2,37143.2
44236.5,37124.5
44230,37106.4
44221.8,37088.9
44211.8,37072.4
44200.3,37056.9
44187.4,37042.6
44173.1,37029.7
44157.6,37018.2
44141.1,37008.2
44123.6,37000
44105.5,36993.5
44086.8,36988.8
44067.7,36986
44048.4,36985
43811.6,36985
Z" /> 
<path style="fill:#000000; fill-opacity:1.0; 
stroke:#000000; stroke-width:0; stroke-opacity:1; 
stroke-linecap:round; stroke-linejoin:round;fill-rule:evenodd;"
d="M 43792.3,35986
43773.2,35988.8
43754.5,35993.5
43736.4,36000
43718.9,36008.2
43702.4,36018.2
43686.9,36029.7
43672.6,36042.6
43659.7,36056.9
43648.2,36072.4
43638.2,36088.9
43630,36106.4
43623.5,36124.5
43618.8,36143.2
43616,36162.3
43615,36181.6
43615,36418.4
43616,36437.7
43618.8,36456.8
43623.5,36475.5
43630,36493.6
43638.2,36511.1
43648.2,36527.6
43659.7,36543.1
43672.6,36557.4
43686.9,36570.3
43702.4,36581.8
43718.9,36591.8
43736.4,36600
43754.5,36606.5
43773.2,36611.2
43792.3,36614
43811.6,36615
44048.4,36615
44067.7,36614
44086.8,36611.2
44105.5,36606.5
44123.6,36600
44141.1,36591.8
44157.6,36581.8
44173.1,36570.3
44187.4,36557.4
44200.3,36543.1
44211.8,36527.6
44221.8,36511.1
44230,36493.6
44236.5,36475.5
44241.2,36456.8
44244,36437.7
44245,36418.4
44245,36181.6
44244,36162.3
44241.2,36143.2
44236.5,36124.5
44230,36106.4
44221.8,36088.9
44211.8,36072.4
44200.3,36056.9
44187.4,36042.6
44173.1,36029.7
44157.6,36018.2
44141.1,36008.2
44123.6,36000
44105.5,35993.5
44086.8,35988.8
44067.7,35986
44048.4,35985
43811.6,35985
Z" /> 
<path style="fill:#000000; fill-opacity:1.0; 
stroke:#000000; stroke-width:0; stroke-opacity:1; 
stroke-linecap:round; stroke-linejoin:round;fill-rule:evenodd;"
d="M 42792.3,38986
42773.2,38988.8
42754.5,38993.5
42736.4,39000
42718.9,39008.2
42702.4,39018.2
42686.9,39029.7
42672.6,39042.6
42659.7,39056.9
42648.2,39072.4
42638.2,39088.9
42630,39106.4
42623.5,39124.5
42618.8,39143.2
42616,39162.3
42615,39181.6
42615,39418.4
42616,39437.7
42618.8,39456.8
42623.5,39475.5
42630,39493.6
42638.2,39511.1
42648.2,39527.6
42659.7,39543.1
42672.6,39557.4
42686.9,39570.3
42702.4,39581.8
42718.9,39591.8
42736.4,39600
42754.5,39606.5
42773.2,39611.2
42792.3,39614
42811.6,39615
43048.4,39615
43067.7,39614
43086.8,39611.2
43105.5,39606.5
43123.6,39600
43141.1,39591.8
43157.6,39581.8
43173.1,39570.3
43187.4,39557.4
43200.3,39543.1
43211.8,39527.6
43221.8,39511.1
43230,39493.6
43236.5,39475.5
43241.2,39456.8
43244,39437.7
43245,39418.4
43245,39181.6
43244,39162.3
43241.2,39143.2
43236.5,39124.5
43230,39106.4
43221.8,39088.9
43211.8,39072.4
43200.3,39056.9
43187.4,39042.6
43173.1,39029.7
43157.6,39018.2
43141.1,39008.2
43123.6,39000
43105.5,38993.5
43086.8,38988.8
43067.7,38986
43048.4,38985
42811.6,38985
Z" /> 
<path style="fill:#000000; fill-opacity:1.0; 
stroke:#000000; stroke-width:0; stroke-opacity:1; 
stroke-linecap:round; stroke-linejoin:round;fill-rule:evenodd;"
d="M 42792.3,37986
42773.2,37988.8
42754.5,37993.5
42736.4,38000
42718.9,38008.2
42702.4,38018.2
42686.9,38029.7
42672.6,38042.6
42659.7,38056.9
42648.2,38072.4
42638.2,38088.9
42630,38106.4
42623.5,38124.5
42618.8,38143.2
42616,38162.3
42615,38181.6
42615,38418.4
42616,38437.7
42618.8,38456.8
42623.5,38475.5
42630,38493.6
42638.2,38511.1
42648.2,38527.6
42659.7,38543.1
42672.6,38557.4
42686.9,38570.3
42702.4,38581.8
42718.9,38591.8
42736.4,38600
42754.5,38606.5
42773.2,38611.2
42792.3,38614
42811.6,38615
43048.4,38615
43067.7,38614
43086.8,38611.2
43105.5,38606.5
43123.6,38600
43141.1,38591.8
43157.6,38581.8
43173.1,38570.3
43187.4,38557.4
43200.3,38543.1
43211.8,38527.6
43221.8,38511.1
43230,38493.6
43236.5,38475.5
43241.2,38456.8
43244,38437.7
43245,38418.4
43245,38181.6
43244,38162.3
43241.2,38143.2
43236.5,38124.5
43230,38106.4
43221.8,38088.9
43211.8,38072.4
43200.3,38056.9
43187.4,38042.6
43173.1,38029.7
43157.6,38018.2
43141.1,38008.2
43123.6,38000
43105.5,37993.5
43086.8,37988.8
43067.7,37986
43048.4,37985
42811.6,37985
Z" /> 
<path style="fill:#000000; fill-opacity:1.0; 
stroke:#000000; stroke-width:0; stroke-opacity:1; 
stroke-linecap:round; stroke-linejoin:round;fill-rule:evenodd;"
d="M 42792.3,36986
42773.2,36988.8
42754.5,36993.5
42736.4,37000
42718.9,37008.2
42702.4,37018.2
42686.9,37029.7
42672.6,37042.6
42659.7,37056.9
42648.2,37072.4
42638.2,37088.9
42630,37106.4
42623.5,37124.5
42618.8,37143.2
42616,37162.3
42615,37181.6
42615,37418.4
42616,37437.7
42618.8,37456.8
42623.5,37475.5
42630,37493.6
42638.2,37511.1
42648.2,37527.6
42659.7,37543.1
42672.6,37557.4
42686.9,37570.3
42702.4,37581.8
42718.9,37591.8
42736.4,37600
42754.5,37606.5
42773.2,37611.2
42792.3,37614
42811.6,37615
43048.4,37615
43067.7,37614
43086.8,37611.2
43105.5,37606.5
43123.6,37600
43141.1,37591.8
43157.6,37581.8
43173.1,37570.3
43187.4,37557.4
43200.3,37543.1
43211.8,37527.6
43221.8,37511.1
43230,37493.6
43236.5,37475.5
43241.2,37456.8
43244,37437.7
43245,37418.4
43245,37181.6
43244,37162.3
43241.2,37143.2
43236.5,37124.5
43230,37106.4
43221.8,37088.9
43211.8,37072.4
43200.3,37056.9
43187.4,37042.6
43173.1,37029.7
43157.6,37018.2
43141.1,37008.2
43123.6,37000
43105.5,36993.5
43086.8,36988.8
43067.7,36986
43048.4,36985
42811.6,36985
Z" /> 
<path style="fill:#000000; fill-opacity:1.0; 
stroke:#000000; stroke-width:0; stroke-opacity:1; 
stroke-linecap:round; stroke-linejoin:round;fill-rule:evenodd;"
d="M 42792.3,35986
42773.2,35988.8
42754.5,35993.5
42736.4,36000
42718.9,36008.2
42702.4,36018.2
42686.9,36029.7
42672.6,36042.6
42659.7,36056.9
42648.2,36072.4
42638.2,36088.9
42630,36106.4
42623.5,36124.5
42618.8,36143.2
42616,36162.3
42615,36181.6
42615,36418.4
42616,36437.7
42618.8,36456.8
42623.5,36475.5
42630,36493.6
42638.2,36511.1
42648.2,36527.6
42659.7,36543.1
42672.6,36557.4
42686.9,36570.3
42702.4,36581.8
42718.9,36591.8
42736.4,36600
42754.5,36606.5
42773.2,36611.2
42792.3,36614
42811.6,36615
43048.4,36615
43067.7,36614
43086.8,36611.2
43105.5,36606.5
43123.6,36600
43141.1,36591.8
43157.6,36581.8
43173.1,36570.3
43187.4,36557.4
43200.3,36543.1
43211.8,36527.6
43221.8,36511.1
43230,36493.6
43236.5,36475.5
43241.2,36456.8
43244,36437.7
43245,36418.4
43245,36181.6
43244,36162.3
43241.2,36143.2
43236.5,36124.5
43230,36106.4
43221.8,36088.9
43211.8,36072.4
43200.3,36056.9
43187.4,36042.6
43173.1,36029.7
43157.6,36018.2
43141.1,36008.2
43123.6,36000
43105.5,35993.5
43086.8,35988.8
43067.7,35986
43048.4,35985
42811.6,35985
Z" /> 
<path style="fill:#000000; fill-opacity:1.0; 
stroke:#000000; stroke-width:0; stroke-opacity:1; 
stroke-linecap:round; stroke-linejoin:round;fill-rule:evenodd;"
d="M 39792.3,34986
39773.2,34988.8
39754.5,34993.5
39736.4,35000
39718.9,35008.2
39702.4,35018.2
39686.9,35029.7
39672.6,35042.6
39659.7,35056.9
39648.2,35072.4
39638.2,35088.9
39630,35106.4
39623.5,35124.5
39618.8,35143.2
39616,35162.3
39615,35181.6
39615,35418.4
39616,35437.7
39618.8,35456.8
39623.5,35475.5
39630,35493.6
39638.2,35511.1
39648.2,35527.6
39659.7,35543.1
39672.6,35557.4
39686.9,35570.3
39702.4,35581.8
39718.9,35591.8
39736.4,35600
39754.5,35606.5
39773.2,35611.2
39792.3,35614
39811.6,35615
40048.4,35615
40067.7,35614
40086.8,35611.2
40105.5,35606.5
40123.6,35600
40141.1,35591.8
40157.6,35581.8
40173.1,35570.3
40187.4,35557.4
40200.3,35543.1
40211.8,35527.6
40221.8,35511.1
40230,35493.6
40236.5,35475.5
40241.2,35456.8
40244,35437.7
40245,35418.4
40245,35181.6
40244,35162.3
40241.2,35143.2
40236.5,35124.5
40230,35106.4
40221.8,35088.9
40211.8,35072.4
40200.3,35056.9
40187.4,35042.6
40173.1,35029.7
40157.6,35018.2
40141.1,35008.2
40123.6,35000
40105.5,34993.5
40086.8,34988.8
40067.7,34986
40048.4,34985
39811.6,34985
Z" /> 
<path style="fill:#000000; fill-opacity:1.0; 
stroke:#000000; stroke-width:0; stroke-opacity:1; 
stroke-linecap:round; stroke-linejoin:round;fill-rule:evenodd;"
d="M 40792.3,34986
40773.2,34988.8
40754.5,34993.5
40736.4,35000
40718.9,35008.2
40702.4,35018.2
40686.9,35029.7
40672.6,35042.6
40659.7,35056.9
40648.2,35072.4
40638.2,35088.9
40630,35106.4
40623.5,35124.5
40618.8,35143.2
40616,35162.3
40615,35181.6
40615,35418.4
40616,35437.7
40618.8,35456.8
40623.5,35475.5
40630,35493.6
40638.2,35511.1
40648.2,35527.6
40659.7,35543.1
40672.6,35557.4
40686.9,35570.3
40702.4,35581.8
40718.9,35591.8
40736.4,35600
40754.5,35606.5
40773.2,35611.2
40792.3,35614
40811.6,35615
41048.4,35615
41067.7,35614
41086.8,35611.2
41105.5,35606.5
41123.6,35600
41141.1,35591.8
41157.6,35581.8
41173.1,35570.3
41187.4,35557.4
41200.3,35543.1
41211.8,35527.6
41221.8,35511.1
41230,35493.6
41236.5,35475.5
41241.2,35456.8
41244,35437.7
41245,35418.4
41245,35181.6
41244,35162.3
41241.2,35143.2
41236.5,35124.5
41230,35106.4
41221.8,35088.9
41211.8,35072.4
41200.3,35056.9
41187.4,35042.6
41173.1,35029.7
41157.6,35018.2
41141.1,35008.2
41123.6,35000
41105.5,34993.5
41086.8,34988.8
41067.7,34986
41048.4,34985
40811.6,34985
Z" /> 
<path style="fill:#000000; fill-opacity:1.0; 
stroke:#000000; stroke-width:0; stroke-opacity:1; 
stroke-linecap:round; stroke-linejoin:round;fill-rule:evenodd;"
d="M 42792.3,34986
42773.2,34988.8
42754.5,34993.5
42736.4,35000
42718.9,35008.2
42702.4,35018.2
42686.9,35029.7
42672.6,35042.6
42659.7,35056.9
42648.2,35072.4
42638.2,35088.9
42630,35106.4
42623.5,35124.5
42618.8,35143.2
42616,35162.3
42615,35181.6
42615,35418.4
42616,35437.7
42618.8,35456.8
42623.5,35475.5
42630,35493.6
42638.2,35511.1
42648.2,35527.6
42659.7,35543.1
42672.6,35557.4
42686.9,35570.3
42702.4,35581.8
42718.9,35591.8
42736.4,35600
42754.5,35606.5
42773.2,35611.2
42792.3,35614
42811.6,35615
43048.4,35615
43067.7,35614
43086.8,35611.2
43105.5,35606.5
43123.6,35600
43141.1,35591.8
43157.6,35581.8
43173.1,35570.3
43187.4,35557.4
43200.3,35543.1
43211.8,35527.6
43221.8,35511.1
43230,35493.6
43236.5,35475.5
43241.2,35456.8
43244,35437.7
43245,35418.4
43245,35181.6
43244,35162.3
43241.2,35143.2
43236.5,35124.5
43230,35106.4
43221.8,35088.9
43211.8,35072.4
43200.3,35056.9
43187.4,35042.6
43173.1,35029.7
43157.6,35018.2
43141.1,35008.2
43123.6,35000
43105.5,34993.5
43086.8,34988.8
43067.7,34986
43048.4,34985
42811.6,34985
Z" /> 
<path style="fill:#000000; fill-opacity:1.0; 
stroke:#000000; stroke-width:0; stroke-opacity:1; 
stroke-linecap:round; stroke-linejoin:round;fill-rule:evenodd;"
d="M 41792.3,34986
41773.2,34988.8
41754.5,34993.5
41736.4,35000
41718.9,35008.2
41702.4,35018.2
41686.9,35029.7
41672.6,35042.6
41659.7,35056.9
41648.2,35072.4
41638.2,35088.9
41630,35106.4
41623.5,35124.5
41618.8,35143.2
41616,35162.3
41615,35181.6
41615,35418.4
41616,35437.7
41618.8,35456.8
41623.5,35475.5
41630,35493.6
41638.2,35511.1
41648.2,35527.6
41659.7,35543.1
41672.6,35557.4
41686.9,35570.3
41702.4,35581.8
41718.9,35591.8
41736.4,35600
41754.5,35606.5
41773.2,35611.2
41792.3,35614
41811.6,35615
42048.4,35615
42067.7,35614
42086.8,35611.2
42105.5,35606.5
42123.6,35600
42141.1,35591.8
42157.6,35581.8
42173.1,35570.3
42187.4,35557.4
42200.3,35543.1
42211.8,35527.6
42221.8,35511.1
42230,35493.6
42236.5,35475.5
42241.2,35456.8
42244,35437.7
42245,35418.4
42245,35181.6
42244,35162.3
42241.2,35143.2
42236.5,35124.5
42230,35106.4
42221.8,35088.9
42211.8,35072.4
42200.3,35056.9
42187.4,35042.6
42173.1,35029.7
42157.6,35018.2
42141.1,35008.2
42123.6,35000
42105.5,34993.5
42086.8,34988.8
42067.7,34986
42048.4,34985
41811.6,34985
Z" /> 
<path style="fill:#000000; fill-opacity:1.0; 
stroke:#000000; stroke-width:0; stroke-opacity:1; 
stroke-linecap:round; stroke-linejoin:round;fill-rule:evenodd;"
d="M 39792.3,35986
39773.2,35988.8
39754.5,35993.5
39736.4,36000
39718.9,36008.2
39702.4,36018.2
39686.9,36029.7
39672.6,36042.6
39659.7,36056.9
39648.2,36072.4
39638.2,36088.9
39630,36106.4
39623.5,36124.5
39618.8,36143.2
39616,36162.3
39615,36181.6
39615,36418.4
39616,36437.7
39618.8,36456.8
39623.5,36475.5
39630,36493.6
39638.2,36511.1
39648.2,36527.6
39659.7,36543.1
39672.6,36557.4
39686.9,36570.3
39702.4,36581.8
39718.9,36591.8
39736.4,36600
39754.5,36606.5
39773.2,36611.2
39792.3,36614
39811.6,36615
40048.4,36615
40067.7,36614
40086.8,36611.2
40105.5,36606.5
40123.6,36600
40141.1,36591.8
40157.6,36581.8
40173.1,36570.3
40187.4,36557.4
40200.3,36543.1
40211.8,36527.6
40221.8,36511.1
40230,36493.6
40236.5,36475.5
40241.2,36456.8
40244,36437.7
40245,36418.4
40245,36181.6
40244,36162.3
40241.2,36143.2
40236.5,36124.5
40230,36106.4
40221.8,36088.9
40211.8,36072.4
40200.3,36056.9
40187.4,36042.6
40173.1,36029.7
40157.6,36018.2
40141.1,36008.2
40123.6,36000
40105.5,35993.5
40086.8,35988.8
40067.7,35986
40048.4,35985
39811.6,35985
Z" /> 
<path style="fill:#000000; fill-opacity:1.0; 
stroke:#000000; stroke-width:0; stroke-opacity:1; 
stroke-linecap:round; stroke-linejoin:round;fill-rule:evenodd;"
d="M 41792.3,35986
41773.2,35988.8
41754.5,35993.5
41736.4,36000
41718.9,36008.2
41702.4,36018.2
41686.9,36029.7
41672.6,36042.6
41659.7,36056.9
41648.2,36072.4
41638.2,36088.9
41630,36106.4
41623.5,36124.5
41618.8,36143.2
41616,36162.3
41615,36181.6
41615,36418.4
41616,36437.7
41618.8,36456.8
41623.5,36475.5
41630,36493.6
41638.2,36511.1
41648.2,36527.6
41659.7,36543.1
41672.6,36557.4
41686.9,36570.3
41702.4,36581.8
41718.9,36591.8
41736.4,36600
41754.5,36606.5
41773.2,36611.2
41792.3,36614
41811.6,36615
42048.4,36615
42067.7,36614
42086.8,36611.2
42105.5,36606.5
42123.6,36600
42141.1,36591.8
42157.6,36581.8
42173.1,36570.3
42187.4,36557.4
42200.3,36543.1
42211.8,36527.6
42221.8,36511.1
42230,36493.6
42236.5,36475.5
42241.2,36456.8
42244,36437.7
42245,36418.4
42245,36181.6
42244,36162.3
42241.2,36143.2
42236.5,36124.5
42230,36106.4
42221.8,36088.9
42211.8,36072.4
42200.3,36056.9
42187.4,36042.6
42173.1,36029.7
42157.6,36018.2
42141.1,36008.2
42123.6,36000
42105.5,35993.5
42086.8,35988.8
42067.7,35986
42048.4,35985
41811.6,35985
Z" /> 
<path style="fill:#000000; fill-opacity:1.0; 
stroke:#000000; stroke-width:0; stroke-opacity:1; 
stroke-linecap:round; stroke-linejoin:round;fill-rule:evenodd;"
d="M 41210,36580
41210,36020
40650,36020
40650,36580
Z" /> 
</g>
<g >
</g>
<g style="fill:#000000; fill-opacity:1.0; 
stroke:#000000; stroke-width:0; stroke-opacity:1; 
stroke-linecap:round; stroke-linejoin:round;">
<path style="fill:#000000; fill-opacity:1.0; 
stroke:#000000; stroke-width:0; stroke-opacity:1; 
stroke-linecap:round; stroke-linejoin:round;fill-rule:evenodd;"
d="M 53792.3,36486
53773.2,36488.8
53754.5,36493.5
53736.4,36500
53718.9,36508.2
53702.4,36518.2
53686.9,36529.7
53672.6,36542.6
53659.7,36556.9
53648.2,36572.4
53638.2,36588.9
53630,36606.4
53623.5,36624.5
53618.8,36643.2
53616,36662.3
53615,36681.6
53615,36918.4
53616,36937.7
53618.8,36956.8
53623.5,36975.5
53630,36993.6
53638.2,37011.1
53648.2,37027.6
53659.7,37043.1
53672.6,37057.4
53686.9,37070.3
53702.4,37081.8
53718.9,37091.8
53736.4,37100
53754.5,37106.5
53773.2,37111.2
53792.3,37114
53811.6,37115
54048.4,37115
54067.7,37114
54086.8,37111.2
54105.5,37106.5
54123.6,37100
54141.1,37091.8
54157.6,37081.8
54173.1,37070.3
54187.4,37057.4
54200.3,37043.1
54211.8,37027.6
54221.8,37011.1
54230,36993.6
54236.5,36975.5
54241.2,36956.8
54244,36937.7
54245,36918.4
54245,36681.6
54244,36662.3
54241.2,36643.2
54236.5,36624.5
54230,36606.4
54221.8,36588.9
54211.8,36572.4
54200.3,36556.9
54187.4,36542.6
54173.1,36529.7
54157.6,36518.2
54141.1,36508.2
54123.6,36500
54105.5,36493.5
54086.8,36488.8
54067.7,36486
54048.4,36485
53811.6,36485
Z" /> 
<path style="fill:#000000; fill-opacity:1.0; 
stroke:#000000; stroke-width:0; stroke-opacity:1; 
stroke-linecap:round; stroke-linejoin:round;fill-rule:evenodd;"
d="M 53792.3,37486
53773.2,37488.8
53754.5,37493.5
53736.4,37500
53718.9,37508.2
53702.4,37518.2
53686.9,37529.7
53672.6,37542.6
53659.7,37556.9
53648.2,37572.4
53638.2,37588.9
53630,37606.4
53623.5,37624.5
53618.8,37643.2
53616,37662.3
53615,37681.6
53615,37918.4
53616,37937.7
53618.8,37956.8
53623.5,37975.5
53630,37993.6
53638.2,38011.1
53648.2,38027.6
53659.7,38043.1
53672.6,38057.4
53686.9,38070.3
53702.4,38081.8
53718.9,38091.8
53736.4,38100
53754.5,38106.5
53773.2,38111.2
53792.3,38114
53811.6,38115
54048.4,38115
54067.7,38114
54086.8,38111.2
54105.5,38106.5
54123.6,38100
54141.1,38091.8
54157.6,38081.8
54173.1,38070.3
54187.4,38057.4
54200.3,38043.1
54211.8,38027.6
54221.8,38011.1
54230,37993.6
54236.5,37975.5
54241.2,37956.8
54244,37937.7
54245,37918.4
54245,37681.6
54244,37662.3
54241.2,37643.2
54236.5,37624.5
54230,37606.4
54221.8,37588.9
54211.8,37572.4
54200.3,37556.9
54187.4,37542.6
54173.1,37529.7
54157.6,37518.2
54141.1,37508.2
54123.6,37500
54105.5,37493.5
54086.8,37488.8
54067.7,37486
54048.4,37485
53811.6,37485
Z" /> 
<path style="fill:#000000; fill-opacity:1.0; 
stroke:#000000; stroke-width:0; stroke-opacity:1; 
stroke-linecap:round; stroke-linejoin:round;fill-rule:evenodd;"
d="M 53792.3,38486
53773.2,38488.8
53754.5,38493.5
53736.4,38500
53718.9,38508.2
53702.4,38518.2
53686.9,38529.7
53672.6,38542.6
53659.7,38556.9
53648.2,38572.4
53638.2,38588.9
53630,38606.4
53623.5,38624.5
53618.8,38643.2
53616,38662.3
53615,38681.6
53615,38918.4
53616,38937.7
53618.8,38956.8
53623.5,38975.5
53630,38993.6
53638.2,39011.1
53648.2,39027.6
53659.7,39043.1
53672.6,39057.4
53686.9,39070.3
53702.4,39081.8
53718.9,39091.8
53736.4,39100
53754.5,39106.5
53773.2,39111.2
53792.3,39114
53811.6,39115
54048.4,39115
54067.7,39114
54086.8,39111.2
54105.5,39106.5
54123.6,39100
54141.1,39091.8
54157.6,39081.8
54173.1,39070.3
54187.4,39057.4
54200.3,39043.1
54211.8,39027.6
54221.8,39011.1
54230,38993.6
54236.5,38975.5
54241.2,38956.8
54244,38937.7
54245,38918.4
54245,38681.6
54244,38662.3
54241.2,38643.2
54236.5,38624.5
54230,38606.4
54221.8,38588.9
54211.8,38572.4
54200.3,38556.9
54187.4,38542.6
54173.1,38529.7
54157.6,38518.2
54141.1,38508.2
54123.6,38500
54105.5,38493.5
54086.8,38488.8
54067.7,38486
54048.4,38485
53811.6,38485
Z" /> 
<path style="fill:#000000; fill-opacity:1.0; 
stroke:#000000; stroke-width:0; stroke-opacity:1; 
stroke-linecap:round; stroke-linejoin:round;fill-rule:evenodd;"
d="M 54792.3,35486
54773.2,35488.8
54754.5,35493.5
54736.4,35500
54718.9,35508.2
54702.4,35518.2
54686.9,35529.7
54672.6,35542.6
54659.7,35556.9
54648.2,35572.4
54638.2,35588.9
54630,35606.4
54623.5,35624.5
54618.8,35643.2
54616,35662.3
54615,35681.6
54615,35918.4
54616,35937.7
54618.8,35956.8
54623.5,35975.5
54630,35993.6
54638.2,36011.1
54648.2,36027.6
54659.7,36043.1
54672.6,36057.4
54686.9,36070.3
54702.4,36081.8
54718.9,36091.8
54736.4,36100
54754.5,36106.5
54773.2,36111.2
54792.3,36114
54811.6,36115
55048.4,36115
55067.7,36114
55086.8,36111.2
55105.5,36106.5
55123.6,36100
55141.1,36091.8
55157.6,36081.8
55173.1,36070.3
55187.4,36057.4
55200.3,36043.1
55211.8,36027.6
55221.8,36011.1
55230,35993.6
55236.5,35975.5
55241.2,35956.8
55244,35937.7
55245,35918.4
55245,35681.6
55244,35662.3
55241.2,35643.2
55236.5,35624.5
55230,35606.4
55221.8,35588.9
55211.8,35572.4
55200.3,35556.9
55187.4,35542.6
55173.1,35529.7
55157.6,35518.2
55141.1,35508.2
55123.6,35500
55105.5,35493.5
55086.8,35488.8
55067.7,35486
55048.4,35485
54811.6,35485
Z" /> 
<path style="fill:#000000; fill-opacity:1.0; 
stroke:#000000; stroke-width:0; stroke-opacity:1; 
stroke-linecap:round; stroke-linejoin:round;fill-rule:evenodd;"
d="M 54792.3,37486
54773.2,37488.8
54754.5,37493.5
54736.4,37500
54718.9,37508.2
54702.4,37518.2
54686.9,37529.7
54672.6,37542.6
54659.7,37556.9
54648.2,37572.4
54638.2,37588.9
54630,37606.4
54623.5,37624.5
54618.8,37643.2
54616,37662.3
54615,37681.6
54615,37918.4
54616,37937.7
54618.8,37956.8
54623.5,37975.5
54630,37993.6
54638.2,38011.1
54648.2,38027.6
54659.7,38043.1
54672.6,38057.4
54686.9,38070.3
54702.4,38081.8
54718.9,38091.8
54736.4,38100
54754.5,38106.5
54773.2,38111.2
54792.3,38114
54811.6,38115
55048.4,38115
55067.7,38114
55086.8,38111.2
55105.5,38106.5
55123.6,38100
55141.1,38091.8
55157.6,38081.8
55173.1,38070.3
55187.4,38057.4
55200.3,38043.1
55211.8,38027.6
55221.8,38011.1
55230,37993.6
55236.5,37975.5
55241.2,37956.8
55244,37937.7
55245,37918.4
55245,37681.6
55244,37662.3
55241.2,37643.2
55236.5,37624.5
55230,37606.4
55221.8,37588.9
55211.8,37572.4
55200.3,37556.9
55187.4,37542.6
55173.1,37529.7
55157.6,37518.2
55141.1,37508.2
55123.6,37500
55105.5,37493.5
55086.8,37488.8
55067.7,37486
55048.4,37485
54811.6,37485
Z" /> 
<path style="fill:#000000; fill-opacity:1.0; 
stroke:#000000; stroke-width:0; stroke-opacity:1; 
stroke-linecap:round; stroke-linejoin:round;fill-rule:evenodd;"
d="M 54792.3,38486
54773.2,38488.8
54754.5,38493.5
54736.4,38500
54718.9,38508.2
54702.4,38518.2
54686.9,38529.7
54672.6,38542.6
54659.7,38556.9
54648.2,38572.4
54638.2,38588.9
54630,38606.4
54623.5,38624.5
54618.8,38643.2
54616,38662.3
54615,38681.6
54615,38918.4
54616,38937.7
54618.8,38956.8
54623.5,38975.5
54630,38993.6
54638.2,39011.1
54648.2,39027.6
54659.7,39043.1
54672.6,39057.4
54686.9,39070.3
54702.4,39081.8
54718.9,39091.8
54736.4,39100
54754.5,39106.5
54773.2,39111.2
54792.3,39114
54811.6,39115
55048.4,39115
55067.7,39114
55086.8,39111.2
55105.5,39106.5
55123.6,39100
55141.1,39091.8
55157.6,39081.8
55173.1,39070.3
55187.4,39057.4
55200.3,39043.1
55211.8,39027.6
55221.8,39011.1
55230,38993.6
55236.5,38975.5
55241.2,38956.8
55244,38937.7
55245,38918.4
55245,38681.6
55244,38662.3
55241.2,38643.2
55236.5,38624.5
55230,38606.4
55221.8,38588.9
55211.8,38572.4
55200.3,38556.9
55187.4,38542.6
55173.1,38529.7
55157.6,38518.2
55141.1,38508.2
55123.6,38500
55105.5,38493.5
55086.8,38488.8
55067.7,38486
55048.4,38485
54811.6,38485
Z" /> 
<path style="fill:#000000; fill-opacity:1.0; 
stroke:#000000; stroke-width:0; stroke-opacity:1; 
stroke-linecap:round; stroke-linejoin:round;fill-rule:evenodd;"
d="M 54792.3,39486
54773.2,39488.8
54754.5,39493.5
54736.4,39500
54718.9,39508.2
54702.4,39518.2
54686.9,39529.7
54672.6,39542.6
54659.7,39556.9
54648.2,39572.4
54638.2,39588.9
54630,39606.4
54623.5,39624.5
54618.8,39643.2
54616,39662.3
54615,39681.6
54615,39918.4
54616,39937.7
54618.8,39956.8
54623.5,39975.5
54630,39993.6
54638.2,40011.1
54648.2,40027.6
54659.7,40043.1
54672.6,40057.4
54686.9,40070.3
54702.4,40081.8
54718.9,40091.8
54736.4,40100
54754.5,40106.5
54773.2,40111.2
54792.3,40114
54811.6,40115
55048.4,40115
55067.7,40114
55086.8,40111.2
55105.5,40106.5
55123.6,40100
55141.1,40091.8
55157.6,40081.8
55173.1,40070.3
55187.4,40057.4
55200.3,40043.1
55211.8,40027.6
55221.8,40011.1
55230,39993.6
55236.5,39975.5
55241.2,39956.8
55244,39937.7
55245,39918.4
55245,39681.6
55244,39662.3
55241.2,39643.2
55236.5,39624.5
55230,39606.4
55221.8,39588.9
55211.8,39572.4
55200.3,39556.9
55187.4,39542.6
55173.1,39529.7
55157.6,39518.2
55141.1,39508.2
55123.6,39500
55105.5,39493.5
55086.8,39488.8
55067.7,39486
55048.4,39485
54811.6,39485
Z" /> 
<path style="fill:#000000; fill-opacity:1.0; 
stroke:#000000; stroke-width:0; stroke-opacity:1; 
stroke-linecap:round; stroke-linejoin:round;fill-rule:evenodd;"
d="M 54792.3,40486
54773.2,40488.8
54754.5,40493.5
54736.4,40500
54718.9,40508.2
54702.4,40518.2
54686.9,40529.7
54672.6,40542.6
54659.7,40556.9
54648.2,40572.4
54638.2,40588.9
54630,40606.4
54623.5,40624.5
54618.8,40643.2
54616,40662.3
54615,40681.6
54615,40918.4
54616,40937.7
54618.8,40956.8
54623.5,40975.5
54630,40993.6
54638.2,41011.1
54648.2,41027.6
54659.7,41043.1
54672.6,41057.4
54686.9,41070.3
54702.4,41081.8
54718.9,41091.8
54736.4,41100
54754.5,41106.5
54773.2,41111.2
54792.3,41114
54811.6,41115
55048.4,41115
55067.7,41114
55086.8,41111.2
55105.5,41106.5
55123.6,41100
55141.1,41091.8
55157.6,41081.8
55173.1,41070.3
55187.4,41057.4
55200.3,41043.1
55211.8,41027.6
55221.8,41011.1
55230,40993.6
55236.5,40975.5
55241.2,40956.8
55244,40937.7
55245,40918.4
55245,40681.6
55244,40662.3
55241.2,40643.2
55236.5,40624.5
55230,40606.4
55221.8,40588.9
55211.8,40572.4
55200.3,40556.9
55187.4,40542.6
55173.1,40529.7
55157.6,40518.2
55141.1,40508.2
55123.6,40500
55105.5,40493.5
55086.8,40488.8
55067.7,40486
55048.4,40485
54811.6,40485
Z" /> 
<path style="fill:#000000; fill-opacity:1.0; 
stroke:#000000; stroke-width:0; stroke-opacity:1; 
stroke-linecap:round; stroke-linejoin:round;fill-rule:evenodd;"
d="M 55792.3,40486
55773.2,40488.8
55754.5,40493.5
55736.4,40500
55718.9,40508.2
55702.4,40518.2
55686.9,40529.7
55672.6,40542.6
55659.7,40556.9
55648.2,40572.4
55638.2,40588.9
55630,40606.4
55623.5,40624.5
55618.8,40643.2
55616,40662.3
55615,40681.6
55615,40918.4
55616,40937.7
55618.8,40956.8
55623.5,40975.5
55630,40993.6
55638.2,41011.1
55648.2,41027.6
55659.7,41043.1
55672.6,41057.4
55686.9,41070.3
55702.4,41081.8
55718.9,41091.8
55736.4,41100
55754.5,41106.5
55773.2,41111.2
55792.3,41114
55811.6,41115
56048.4,41115
56067.7,41114
56086.8,41111.2
56105.5,41106.5
56123.6,41100
56141.1,41091.8
56157.6,41081.8
56173.1,41070.3
56187.4,41057.4
56200.3,41043.1
56211.8,41027.6
56221.8,41011.1
56230,40993.6
56236.5,40975.5
56241.2,40956.8
56244,40937.7
56245,40918.4
56245,40681.6
56244,40662.3
56241.2,40643.2
56236.5,40624.5
56230,40606.4
56221.8,40588.9
56211.8,40572.4
56200.3,40556.9
56187.4,40542.6
56173.1,40529.7
56157.6,40518.2
56141.1,40508.2
56123.6,40500
56105.5,40493.5
56086.8,40488.8
56067.7,40486
56048.4,40485
55811.6,40485
Z" /> 
<path style="fill:#000000; fill-opacity:1.0; 
stroke:#000000; stroke-width:0; stroke-opacity:1; 
stroke-linecap:round; stroke-linejoin:round;fill-rule:evenodd;"
d="M 56792.3,40486
56773.2,40488.8
56754.5,40493.5
56736.4,40500
56718.9,40508.2
56702.4,40518.2
56686.9,40529.7
56672.6,40542.6
56659.7,40556.9
56648.2,40572.4
56638.2,40588.9
56630,40606.4
56623.5,40624.5
56618.8,40643.2
56616,40662.3
56615,40681.6
56615,40918.4
56616,40937.7
56618.8,40956.8
56623.5,40975.5
56630,40993.6
56638.2,41011.1
56648.2,41027.6
56659.7,41043.1
56672.6,41057.4
56686.9,41070.3
56702.4,41081.8
56718.9,41091.8
56736.4,41100
56754.5,41106.5
56773.2,41111.2
56792.3,41114
56811.6,41115
57048.4,41115
57067.7,41114
57086.8,41111.2
57105.5,41106.5
57123.6,41100
57141.1,41091.8
57157.6,41081.8
57173.1,41070.3
57187.4,41057.4
57200.3,41043.1
57211.8,41027.6
57221.8,41011.1
57230,40993.6
57236.5,40975.5
57241.2,40956.8
57244,40937.7
57245,40918.4
57245,40681.6
57244,40662.3
57241.2,40643.2
57236.5,40624.5
57230,40606.4
57221.8,40588.9
57211.8,40572.4
57200.3,40556.9
57187.4,40542.6
57173.1,40529.7
57157.6,40518.2
57141.1,40508.2
57123.6,40500
57105.5,40493.5
57086.8,40488.8
57067.7,40486
57048.4,40485
56811.6,40485
Z" /> 
<path style="fill:#000000; fill-opacity:1.0; 
stroke:#000000; stroke-width:0; stroke-opacity:1; 
stroke-linecap:round; stroke-linejoin:round;fill-rule:evenodd;"
d="M 57792.3,40486
57773.2,40488.8
57754.5,40493.5
57736.4,40500
57718.9,40508.2
57702.4,40518.2
57686.9,40529.7
57672.6,40542.6
57659.7,40556.9
57648.2,40572.4
57638.2,40588.9
57630,40606.4
57623.5,40624.5
57618.8,40643.2
57616,40662.3
57615,40681.6
57615,40918.4
57616,40937.7
57618.8,40956.8
57623.5,40975.5
57630,40993.6
57638.2,41011.1
57648.2,41027.6
57659.7,41043.1
57672.6,41057.4
57686.9,41070.3
57702.4,41081.8
57718.9,41091.8
57736.4,41100
57754.5,41106.5
57773.2,41111.2
57792.3,41114
57811.6,41115
58048.4,41115
58067.7,41114
58086.8,41111.2
58105.5,41106.5
58123.6,41100
58141.1,41091.8
58157.6,41081.8
58173.1,41070.3
58187.4,41057.4
58200.3,41043.1
58211.8,41027.6
58221.8,41011.1
58230,40993.6
58236.5,40975.5
58241.2,40956.8
58244,40937.7
58245,40918.4
58245,40681.6
58244,40662.3
58241.2,40643.2
58236.5,40624.5
58230,40606.4
58221.8,40588.9
58211.8,40572.4
58200.3,40556.9
58187.4,40542.6
58173.1,40529.7
58157.6,40518.2
58141.1,40508.2
58123.6,40500
58105.5,40493.5
58086.8,40488.8
58067.7,40486
58048.4,40485
57811.6,40485
Z" /> 
<path style="fill:#000000; fill-opacity:1.0; 
stroke:#000000; stroke-width:0; stroke-opacity:1; 
stroke-linecap:round; stroke-linejoin:round;fill-rule:evenodd;"
d="M 53792.3,39486
53773.2,39488.8
53754.5,39493.5
53736.4,39500
53718.9,39508.2
53702.4,39518.2
53686.9,39529.7
53672.6,39542.6
53659.7,39556.9
53648.2,39572.4
53638.2,39588.9
53630,39606.4
53623.5,39624.5
53618.8,39643.2
53616,39662.3
53615,39681.6
53615,39918.4
53616,39937.7
53618.8,39956.8
53623.5,39975.5
53630,39993.6
53638.2,40011.1
53648.2,40027.6
53659.7,40043.1
53672.6,40057.4
53686.9,40070.3
53702.4,40081.8
53718.9,40091.8
53736.4,40100
53754.5,40106.5
53773.2,40111.2
53792.3,40114
53811.6,40115
54048.4,40115
54067.7,40114
54086.8,40111.2
54105.5,40106.5
54123.6,40100
54141.1,40091.8
54157.6,40081.8
54173.1,40070.3
54187.4,40057.4
54200.3,40043.1
54211.8,40027.6
54221.8,40011.1
54230,39993.6
54236.5,39975.5
54241.2,39956.8
54244,39937.7
54245,39918.4
54245,39681.6
54244,39662.3
54241.2,39643.2
54236.5,39624.5
54230,39606.4
54221.8,39588.9
54211.8,39572.4
54200.3,39556.9
54187.4,39542.6
54173.1,39529.7
54157.6,39518.2
54141.1,39508.2
54123.6,39500
54105.5,39493.5
54086.8,39488.8
54067.7,39486
54048.4,39485
53811.6,39485
Z" /> 
<path style="fill:#000000; fill-opacity:1.0; 
stroke:#000000; stroke-width:0; stroke-opacity:1; 
stroke-linecap:round; stroke-linejoin:round;fill-rule:evenodd;"
d="M 55792.3,39486
55773.2,39488.8
55754.5,39493.5
55736.4,39500
55718.9,39508.2
55702.4,39518.2
55686.9,39529.7
55672.6,39542.6
55659.7,39556.9
55648.2,39572.4
55638.2,39588.9
55630,39606.4
55623.5,39624.5
55618.8,39643.2
55616,39662.3
55615,39681.6
55615,39918.4
55616,39937.7
55618.8,39956.8
55623.5,39975.5
55630,39993.6
55638.2,40011.1
55648.2,40027.6
55659.7,40043.1
55672.6,40057.4
55686.9,40070.3
55702.4,40081.8
55718.9,40091.8
55736.4,40100
55754.5,40106.5
55773.2,40111.2
55792.3,40114
55811.6,40115
56048.4,40115
56067.7,40114
56086.8,40111.2
56105.5,40106.5
56123.6,40100
56141.1,40091.8
56157.6,40081.8
56173.1,40070.3
56187.4,40057.4
56200.3,40043.1
56211.8,40027.6
56221.8,40011.1
56230,39993.6
56236.5,39975.5
56241.2,39956.8
56244,39937.7
56245,39918.4
56245,39681.6
56244,39662.3
56241.2,39643.2
56236.5,39624.5
56230,39606.4
56221.8,39588.9
56211.8,39572.4
56200.3,39556.9
56187.4,39542.6
56173.1,39529.7
56157.6,39518.2
56141.1,39508.2
56123.6,39500
56105.5,39493.5
56086.8,39488.8
56067.7,39486
56048.4,39485
55811.6,39485
Z" /> 
<path style="fill:#000000; fill-opacity:1.0; 
stroke:#000000; stroke-width:0; stroke-opacity:1; 
stroke-linecap:round; stroke-linejoin:round;fill-rule:evenodd;"
d="M 56792.3,39486
56773.2,39488.8
56754.5,39493.5
56736.4,39500
56718.9,39508.2
56702.4,39518.2
56686.9,39529.7
56672.6,39542.6
56659.7,39556.9
56648.2,39572.4
56638.2,39588.9
56630,39606.4
56623.5,39624.5
56618.8,39643.2
56616,39662.3
56615,39681.6
56615,39918.4
56616,39937.7
56618.8,39956.8
56623.5,39975.5
56630,39993.6
56638.2,40011.1
56648.2,40027.6
56659.7,40043.1
56672.6,40057.4
56686.9,40070.3
56702.4,40081.8
56718.9,40091.8
56736.4,40100
56754.5,40106.5
56773.2,40111.2
56792.3,40114
56811.6,40115
57048.4,40115
57067.7,40114
57086.8,40111.2
57105.5,40106.5
57123.6,40100
57141.1,40091.8
57157.6,40081.8
57173.1,40070.3
57187.4,40057.4
57200.3,40043.1
57211.8,40027.6
57221.8,40011.1
57230,39993.6
57236.5,39975.5
57241.2,39956.8
57244,39937.7
57245,39918.4
57245,39681.6
57244,39662.3
57241.2,39643.2
57236.5,39624.5
57230,39606.4
57221.8,39588.9
57211.8,39572.4
57200.3,39556.9
57187.4,39542.6
57173.1,39529.7
57157.6,39518.2
57141.1,39508.2
57123.6,39500
57105.5,39493.5
57086.8,39488.8
57067.7,39486
57048.4,39485
56811.6,39485
Z" /> 
<path style="fill:#000000; fill-opacity:1.0; 
stroke:#000000; stroke-width:0; stroke-opacity:1; 
stroke-linecap:round; stroke-linejoin:round;fill-rule:evenodd;"
d="M 57792.3,39486
57773.2,39488.8
57754.5,39493.5
57736.4,39500
57718.9,39508.2
57702.4,39518.2
57686.9,39529.7
57672.6,39542.6
57659.7,39556.9
57648.2,39572.4
57638.2,39588.9
57630,39606.4
57623.5,39624.5
57618.8,39643.2
57616,39662.3
57615,39681.6
57615,39918.4
57616,39937.7
57618.8,39956.8
57623.5,39975.5
57630,39993.6
57638.2,40011.1
57648.2,40027.6
57659.7,40043.1
57672.6,40057.4
57686.9,40070.3
57702.4,40081.8
57718.9,40091.8
57736.4,40100
57754.5,40106.5
57773.2,40111.2
57792.3,40114
57811.6,40115
58048.4,40115
58067.7,40114
58086.8,40111.2
58105.5,40106.5
58123.6,40100
58141.1,40091.8
58157.6,40081.8
58173.1,40070.3
58187.4,40057.4
58200.3,40043.1
58211.8,40027.6
58221.8,40011.1
58230,39993.6
58236.5,39975.5
58241.2,39956.8
58244,39937.7
58245,39918.4
58245,39681.6
58244,39662.3
58241.2,39643.2
58236.5,39624.5
58230,39606.4
58221.8,39588.9
58211.8,39572.4
58200.3,39556.9
58187.4,39542.6
58173.1,39529.7
58157.6,39518.2
58141.1,39508.2
58123.6,39500
58105.5,39493.5
58086.8,39488.8
58067.7,39486
58048.4,39485
57811.6,39485
Z" /> 
<path style="fill:#000000; fill-opacity:1.0; 
stroke:#000000; stroke-width:0; stroke-opacity:1; 
stroke-linecap:round; stroke-linejoin:round;fill-rule:evenodd;"
d="M 58792.3,39486
58773.2,39488.8
58754.5,39493.5
58736.4,39500
58718.9,39508.2
58702.4,39518.2
58686.9,39529.7
58672.6,39542.6
58659.7,39556.9
58648.2,39572.4
58638.2,39588.9
58630,39606.4
58623.5,39624.5
58618.8,39643.2
58616,39662.3
58615,39681.6
58615,39918.4
58616,39937.7
58618.8,39956.8
58623.5,39975.5
58630,39993.6
58638.2,40011.1
58648.2,40027.6
58659.7,40043.1
58672.6,40057.4
58686.9,40070.3
58702.4,40081.8
58718.9,40091.8
58736.4,40100
58754.5,40106.5
58773.2,40111.2
58792.3,40114
58811.6,40115
59048.4,40115
59067.7,40114
59086.8,40111.2
59105.5,40106.5
59123.6,40100
59141.1,40091.8
59157.6,40081.8
59173.1,40070.3
59187.4,40057.4
59200.3,40043.1
59211.8,40027.6
59221.8,40011.1
59230,39993.6
59236.5,39975.5
59241.2,39956.8
59244,39937.7
59245,39918.4
59245,39681.6
59244,39662.3
59241.2,39643.2
59236.5,39624.5
59230,39606.4
59221.8,39588.9
59211.8,39572.4
59200.3,39556.9
59187.4,39542.6
59173.1,39529.7
59157.6,39518.2
59141.1,39508.2
59123.6,39500
59105.5,39493.5
59086.8,39488.8
59067.7,39486
59048.4,39485
58811.6,39485
Z" /> 
<path style="fill:#000000; fill-opacity:1.0; 
stroke:#000000; stroke-width:0; stroke-opacity:1; 
stroke-linecap:round; stroke-linejoin:round;fill-rule:evenodd;"
d="M 58792.3,38486
58773.2,38488.8
58754.5,38493.5
58736.4,38500
58718.9,38508.2
58702.4,38518.2
58686.9,38529.7
58672.6,38542.6
58659.7,38556.9
58648.2,38572.4
58638.2,38588.9
58630,38606.4
58623.5,38624.5
58618.8,38643.2
58616,38662.3
58615,38681.6
58615,38918.4
58616,38937.7
58618.8,38956.8
58623.5,38975.5
58630,38993.6
58638.2,39011.1
58648.2,39027.6
58659.7,39043.1
58672.6,39057.4
58686.9,39070.3
58702.4,39081.8
58718.9,39091.8
58736.4,39100
58754.5,39106.5
58773.2,39111.2
58792.3,39114
58811.6,39115
59048.4,39115
59067.7,39114
59086.8,39111.2
59105.5,39106.5
59123.6,39100
59141.1,39091.8
59157.6,39081.8
59173.1,39070.3
59187.4,39057.4
59200.3,39043.1
59211.8,39027.6
59221.8,39011.1
59230,38993.6
59236.5,38975.5
59241.2,38956.8
59244,38937.7
59245,38918.4
59245,38681.6
59244,38662.3
59241.2,38643.2
59236.5,38624.5
59230,38606.4
59221.8,38588.9
59211.8,38572.4
59200.3,38556.9
59187.4,38542.6
59173.1,38529.7
59157.6,38518.2
59141.1,38508.2
59123.6,38500
59105.5,38493.5
59086.8,38488.8
59067.7,38486
59048.4,38485
58811.6,38485
Z" /> 
<path style="fill:#000000; fill-opacity:1.0; 
stroke:#000000; stroke-width:0; stroke-opacity:1; 
stroke-linecap:round; stroke-linejoin:round;fill-rule:evenodd;"
d="M 58792.3,37486
58773.2,37488.8
58754.5,37493.5
58736.4,37500
58718.9,37508.2
58702.4,37518.2
58686.9,37529.7
58672.6,37542.6
58659.7,37556.9
58648.2,37572.4
58638.2,37588.9
58630,37606.4
58623.5,37624.5
58618.8,37643.2
58616,37662.3
58615,37681.6
58615,37918.4
58616,37937.7
58618.8,37956.8
58623.5,37975.5
58630,37993.6
58638.2,38011.1
58648.2,38027.6
58659.7,38043.1
58672.6,38057.4
58686.9,38070.3
58702.4,38081.8
58718.9,38091.8
58736.4,38100
58754.5,38106.5
58773.2,38111.2
58792.3,38114
58811.6,38115
59048.4,38115
59067.7,38114
59086.8,38111.2
59105.5,38106.5
59123.6,38100
59141.1,38091.8
59157.6,38081.8
59173.1,38070.3
59187.4,38057.4
59200.3,38043.1
59211.8,38027.6
59221.8,38011.1
59230,37993.6
59236.5,37975.5
59241.2,37956.8
59244,37937.7
59245,37918.4
59245,37681.6
59244,37662.3
59241.2,37643.2
59236.5,37624.5
59230,37606.4
59221.8,37588.9
59211.8,37572.4
59200.3,37556.9
59187.4,37542.6
59173.1,37529.7
59157.6,37518.2
59141.1,37508.2
59123.6,37500
59105.5,37493.5
59086.8,37488.8
59067.7,37486
59048.4,37485
58811.6,37485
Z" /> 
<path style="fill:#000000; fill-opacity:1.0; 
stroke:#000000; stroke-width:0; stroke-opacity:1; 
stroke-linecap:round; stroke-linejoin:round;fill-rule:evenodd;"
d="M 58792.3,36486
58773.2,36488.8
58754.5,36493.5
58736.4,36500
58718.9,36508.2
58702.4,36518.2
58686.9,36529.7
58672.6,36542.6
58659.7,36556.9
58648.2,36572.4
58638.2,36588.9
58630,36606.4
58623.5,36624.5
58618.8,36643.2
58616,36662.3
58615,36681.6
58615,36918.4
58616,36937.7
58618.8,36956.8
58623.5,36975.5
58630,36993.6
58638.2,37011.1
58648.2,37027.6
58659.7,37043.1
58672.6,37057.4
58686.9,37070.3
58702.4,37081.8
58718.9,37091.8
58736.4,37100
58754.5,37106.5
58773.2,37111.2
58792.3,37114
58811.6,37115
59048.4,37115
59067.7,37114
59086.8,37111.2
59105.5,37106.5
59123.6,37100
59141.1,37091.8
59157.6,37081.8
59173.1,37070.3
59187.4,37057.4
59200.3,37043.1
59211.8,37027.6
59221.8,37011.1
59230,36993.6
59236.5,36975.5
59241.2,36956.8
59244,36937.7
59245,36918.4
59245,36681.6
59244,36662.3
59241.2,36643.2
59236.5,36624.5
59230,36606.4
59221.8,36588.9
59211.8,36572.4
59200.3,36556.9
59187.4,36542.6
59173.1,36529.7
59157.6,36518.2
59141.1,36508.2
59123.6,36500
59105.5,36493.5
59086.8,36488.8
59067.7,36486
59048.4,36485
58811.6,36485
Z" /> 
<path style="fill:#000000; fill-opacity:1.0; 
stroke:#000000; stroke-width:0; stroke-opacity:1; 
stroke-linecap:round; stroke-linejoin:round;fill-rule:evenodd;"
d="M 57792.3,38486
57773.2,38488.8
57754.5,38493.5
57736.4,38500
57718.9,38508.2
57702.4,38518.2
57686.9,38529.7
57672.6,38542.6
57659.7,38556.9
57648.2,38572.4
57638.2,38588.9
57630,38606.4
57623.5,38624.5
57618.8,38643.2
57616,38662.3
57615,38681.6
57615,38918.4
57616,38937.7
57618.8,38956.8
57623.5,38975.5
57630,38993.6
57638.2,39011.1
57648.2,39027.6
57659.7,39043.1
57672.6,39057.4
57686.9,39070.3
57702.4,39081.8
57718.9,39091.8
57736.4,39100
57754.5,39106.5
57773.2,39111.2
57792.3,39114
57811.6,39115
58048.4,39115
58067.7,39114
58086.8,39111.2
58105.5,39106.5
58123.6,39100
58141.1,39091.8
58157.6,39081.8
58173.1,39070.3
58187.4,39057.4
58200.3,39043.1
58211.8,39027.6
58221.8,39011.1
58230,38993.6
58236.5,38975.5
58241.2,38956.8
58244,38937.7
58245,38918.4
58245,38681.6
58244,38662.3
58241.2,38643.2
58236.5,38624.5
58230,38606.4
58221.8,38588.9
58211.8,38572.4
58200.3,38556.9
58187.4,38542.6
58173.1,38529.7
58157.6,38518.2
58141.1,38508.2
58123.6,38500
58105.5,38493.5
58086.8,38488.8
58067.7,38486
58048.4,38485
57811.6,38485
Z" /> 
<path style="fill:#000000; fill-opacity:1.0; 
stroke:#000000; stroke-width:0; stroke-opacity:1; 
stroke-linecap:round; stroke-linejoin:round;fill-rule:evenodd;"
d="M 57792.3,37486
57773.2,37488.8
57754.5,37493.5
57736.4,37500
57718.9,37508.2
57702.4,37518.2
57686.9,37529.7
57672.6,37542.6
57659.7,37556.9
57648.2,37572.4
57638.2,37588.9
57630,37606.4
57623.5,37624.5
57618.8,37643.2
57616,37662.3
57615,37681.6
57615,37918.4
57616,37937.7
57618.8,37956.8
57623.5,37975.5
57630,37993.6
57638.2,38011.1
57648.2,38027.6
57659.7,38043.1
57672.6,38057.4
57686.9,38070.3
57702.4,38081.8
57718.9,38091.8
57736.4,38100
57754.5,38106.5
57773.2,38111.2
57792.3,38114
57811.6,38115
58048.4,38115
58067.7,38114
58086.8,38111.2
58105.5,38106.5
58123.6,38100
58141.1,38091.8
58157.6,38081.8
58173.1,38070.3
58187.4,38057.4
58200.3,38043.1
58211.8,38027.6
58221.8,38011.1
58230,37993.6
58236.5,37975.5
58241.2,37956.8
58244,37937.7
58245,37918.4
58245,37681.6
58244,37662.3
58241.2,37643.2
58236.5,37624.5
58230,37606.4
58221.8,37588.9
58211.8,37572.4
58200.3,37556.9
58187.4,37542.6
58173.1,37529.7
58157.6,37518.2
58141.1,37508.2
58123.6,37500
58105.5,37493.5
58086.8,37488.8
58067.7,37486
58048.4,37485
57811.6,37485
Z" /> 
<path style="fill:#000000; fill-opacity:1.0; 
stroke:#000000; stroke-width:0; stroke-opacity:1; 
stroke-linecap:round; stroke-linejoin:round;fill-rule:evenodd;"
d="M 57792.3,36486
57773.2,36488.8
57754.5,36493.5
57736.4,36500
57718.9,36508.2
57702.4,36518.2
57686.9,36529.7
57672.6,36542.6
57659.7,36556.9
57648.2,36572.4
57638.2,36588.9
57630,36606.4
57623.5,36624.5
57618.8,36643.2
57616,36662.3
57615,36681.6
57615,36918.4
57616,36937.7
57618.8,36956.8
57623.5,36975.5
57630,36993.6
57638.2,37011.1
57648.2,37027.6
57659.7,37043.1
57672.6,37057.4
57686.9,37070.3
57702.4,37081.8
57718.9,37091.8
57736.4,37100
57754.5,37106.5
57773.2,37111.2
57792.3,37114
57811.6,37115
58048.4,37115
58067.7,37114
58086.8,37111.2
58105.5,37106.5
58123.6,37100
58141.1,37091.8
58157.6,37081.8
58173.1,37070.3
58187.4,37057.4
58200.3,37043.1
58211.8,37027.6
58221.8,37011.1
58230,36993.6
58236.5,36975.5
58241.2,36956.8
58244,36937.7
58245,36918.4
58245,36681.6
58244,36662.3
58241.2,36643.2
58236.5,36624.5
58230,36606.4
58221.8,36588.9
58211.8,36572.4
58200.3,36556.9
58187.4,36542.6
58173.1,36529.7
58157.6,36518.2
58141.1,36508.2
58123.6,36500
58105.5,36493.5
58086.8,36488.8
58067.7,36486
58048.4,36485
57811.6,36485
Z" /> 
<path style="fill:#000000; fill-opacity:1.0; 
stroke:#000000; stroke-width:0; stroke-opacity:1; 
stroke-linecap:round; stroke-linejoin:round;fill-rule:evenodd;"
d="M 55792.3,35486
55773.2,35488.8
55754.5,35493.5
55736.4,35500
55718.9,35508.2
55702.4,35518.2
55686.9,35529.7
55672.6,35542.6
55659.7,35556.9
55648.2,35572.4
55638.2,35588.9
55630,35606.4
55623.5,35624.5
55618.8,35643.2
55616,35662.3
55615,35681.6
55615,35918.4
55616,35937.7
55618.8,35956.8
55623.5,35975.5
55630,35993.6
55638.2,36011.1
55648.2,36027.6
55659.7,36043.1
55672.6,36057.4
55686.9,36070.3
55702.4,36081.8
55718.9,36091.8
55736.4,36100
55754.5,36106.5
55773.2,36111.2
55792.3,36114
55811.6,36115
56048.4,36115
56067.7,36114
56086.8,36111.2
56105.5,36106.5
56123.6,36100
56141.1,36091.8
56157.6,36081.8
56173.1,36070.3
56187.4,36057.4
56200.3,36043.1
56211.8,36027.6
56221.8,36011.1
56230,35993.6
56236.5,35975.5
56241.2,35956.8
56244,35937.7
56245,35918.4
56245,35681.6
56244,35662.3
56241.2,35643.2
56236.5,35624.5
56230,35606.4
56221.8,35588.9
56211.8,35572.4
56200.3,35556.9
56187.4,35542.6
56173.1,35529.7
56157.6,35518.2
56141.1,35508.2
56123.6,35500
56105.5,35493.5
56086.8,35488.8
56067.7,35486
56048.4,35485
55811.6,35485
Z" /> 
<path style="fill:#000000; fill-opacity:1.0; 
stroke:#000000; stroke-width:0; stroke-opacity:1; 
stroke-linecap:round; stroke-linejoin:round;fill-rule:evenodd;"
d="M 57792.3,35486
57773.2,35488.8
57754.5,35493.5
57736.4,35500
57718.9,35508.2
57702.4,35518.2
57686.9,35529.7
57672.6,35542.6
57659.7,35556.9
57648.2,35572.4
57638.2,35588.9
57630,35606.4
57623.5,35624.5
57618.8,35643.2
57616,35662.3
57615,35681.6
57615,35918.4
57616,35937.7
57618.8,35956.8
57623.5,35975.5
57630,35993.6
57638.2,36011.1
57648.2,36027.6
57659.7,36043.1
57672.6,36057.4
57686.9,36070.3
57702.4,36081.8
57718.9,36091.8
57736.4,36100
57754.5,36106.5
57773.2,36111.2
57792.3,36114
57811.6,36115
58048.4,36115
58067.7,36114
58086.8,36111.2
58105.5,36106.5
58123.6,36100
58141.1,36091.8
58157.6,36081.8
58173.1,36070.3
58187.4,36057.4
58200.3,36043.1
58211.8,36027.6
58221.8,36011.1
58230,35993.6
58236.5,35975.5
58241.2,35956.8
58244,35937.7
58245,35918.4
58245,35681.6
58244,35662.3
58241.2,35643.2
58236.5,35624.5
58230,35606.4
58221.8,35588.9
58211.8,35572.4
58200.3,35556.9
58187.4,35542.6
58173.1,35529.7
58157.6,35518.2
58141.1,35508.2
58123.6,35500
58105.5,35493.5
58086.8,35488.8
58067.7,35486
58048.4,35485
57811.6,35485
Z" /> 
<path style="fill:#000000; fill-opacity:1.0; 
stroke:#000000; stroke-width:0; stroke-opacity:1; 
stroke-linecap:round; stroke-linejoin:round;fill-rule:evenodd;"
d="M 56792.3,35486
56773.2,35488.8
56754.5,35493.5
56736.4,35500
56718.9,35508.2
56702.4,35518.2
56686.9,35529.7
56672.6,35542.6
56659.7,35556.9
56648.2,35572.4
56638.2,35588.9
56630,35606.4
56623.5,35624.5
56618.8,35643.2
56616,35662.3
56615,35681.6
56615,35918.4
56616,35937.7
56618.8,35956.8
56623.5,35975.5
56630,35993.6
56638.2,36011.1
56648.2,36027.6
56659.7,36043.1
56672.6,36057.4
56686.9,36070.3
56702.4,36081.8
56718.9,36091.8
56736.4,36100
56754.5,36106.5
56773.2,36111.2
56792.3,36114
56811.6,36115
57048.4,36115
57067.7,36114
57086.8,36111.2
57105.5,36106.5
57123.6,36100
57141.1,36091.8
57157.6,36081.8
57173.1,36070.3
57187.4,36057.4
57200.3,36043.1
57211.8,36027.6
57221.8,36011.1
57230,35993.6
57236.5,35975.5
57241.2,35956.8
57244,35937.7
57245,35918.4
57245,35681.6
57244,35662.3
57241.2,35643.2
57236.5,35624.5
57230,35606.4
57221.8,35588.9
57211.8,35572.4
57200.3,35556.9
57187.4,35542.6
57173.1,35529.7
57157.6,35518.2
57141.1,35508.2
57123.6,35500
57105.5,35493.5
57086.8,35488.8
57067.7,35486
57048.4,35485
56811.6,35485
Z" /> 
<path style="fill:#000000; fill-opacity:1.0; 
stroke:#000000; stroke-width:0; stroke-opacity:1; 
stroke-linecap:round; stroke-linejoin:round;fill-rule:evenodd;"
d="M 54792.3,36486
54773.2,36488.8
54754.5,36493.5
54736.4,36500
54718.9,36508.2
54702.4,36518.2
54686.9,36529.7
54672.6,36542.6
54659.7,36556.9
54648.2,36572.4
54638.2,36588.9
54630,36606.4
54623.5,36624.5
54618.8,36643.2
54616,36662.3
54615,36681.6
54615,36918.4
54616,36937.7
54618.8,36956.8
54623.5,36975.5
54630,36993.6
54638.2,37011.1
54648.2,37027.6
54659.7,37043.1
54672.6,37057.4
54686.9,37070.3
54702.4,37081.8
54718.9,37091.8
54736.4,37100
54754.5,37106.5
54773.2,37111.2
54792.3,37114
54811.6,37115
55048.4,37115
55067.7,37114
55086.8,37111.2
55105.5,37106.5
55123.6,37100
55141.1,37091.8
55157.6,37081.8
55173.1,37070.3
55187.4,37057.4
55200.3,37043.1
55211.8,37027.6
55221.8,37011.1
55230,36993.6
55236.5,36975.5
55241.2,36956.8
55244,36937.7
55245,36918.4
55245,36681.6
55244,36662.3
55241.2,36643.2
55236.5,36624.5
55230,36606.4
55221.8,36588.9
55211.8,36572.4
55200.3,36556.9
55187.4,36542.6
55173.1,36529.7
55157.6,36518.2
55141.1,36508.2
55123.6,36500
55105.5,36493.5
55086.8,36488.8
55067.7,36486
55048.4,36485
54811.6,36485
Z" /> 
<path style="fill:#000000; fill-opacity:1.0; 
stroke:#000000; stroke-width:0; stroke-opacity:1; 
stroke-linecap:round; stroke-linejoin:round;fill-rule:evenodd;"
d="M 56792.3,36486
56773.2,36488.8
56754.5,36493.5
56736.4,36500
56718.9,36508.2
56702.4,36518.2
56686.9,36529.7
56672.6,36542.6
56659.7,36556.9
56648.2,36572.4
56638.2,36588.9
56630,36606.4
56623.5,36624.5
56618.8,36643.2
56616,36662.3
56615,36681.6
56615,36918.4
56616,36937.7
56618.8,36956.8
56623.5,36975.5
56630,36993.6
56638.2,37011.1
56648.2,37027.6
56659.7,37043.1
56672.6,37057.4
56686.9,37070.3
56702.4,37081.8
56718.9,37091.8
56736.4,37100
56754.5,37106.5
56773.2,37111.2
56792.3,37114
56811.6,37115
57048.4,37115
57067.7,37114
57086.8,37111.2
57105.5,37106.5
57123.6,37100
57141.1,37091.8
57157.6,37081.8
57173.1,37070.3
57187.4,37057.4
57200.3,37043.1
57211.8,37027.6
57221.8,37011.1
57230,36993.6
57236.5,36975.5
57241.2,36956.8
57244,36937.7
57245,36918.4
57245,36681.6
57244,36662.3
57241.2,36643.2
57236.5,36624.5
57230,36606.4
57221.8,36588.9
57211.8,36572.4
57200.3,36556.9
57187.4,36542.6
57173.1,36529.7
57157.6,36518.2
57141.1,36508.2
57123.6,36500
57105.5,36493.5
57086.8,36488.8
57067.7,36486
57048.4,36485
56811.6,36485
Z" /> 
<path style="fill:#000000; fill-opacity:1.0; 
stroke:#000000; stroke-width:0; stroke-opacity:1; 
stroke-linecap:round; stroke-linejoin:round;fill-rule:evenodd;"
d="M 56210,37080
56210,36520
55650,36520
55650,37080
Z" /> 
</g>
<g >
</g>
<g >
</g>
<g >
</g>
</g> 
</svg>
