M48
; DRILL file {KiCad 5.1.7-a382d34a8~88~ubuntu20.04.1} date Sat Apr 17 07:34:17 2021
; FORMAT={-:-/ absolute / metric / decimal}
; #@! TF.CreationDate,2021-04-17T07:34:17-07:00
; #@! TF.GenerationSoftware,Kicad,Pcbnew,5.1.7-a382d34a8~88~ubuntu20.04.1
FMAT,2
METRIC
T1C0.400
T2C1.000
%
G90
G05
T1
X53.243Y-67.34
X53.848Y-40.513
X53.848Y-57.15
X54.038Y-44.386
X54.986Y-58.296
X54.991Y-39.688
X55.03Y-44.519
X55.88Y-57.848
X55.88Y-62.81
X57.15Y-60.325
X57.15Y-66.548
X58.356Y-60.325
X58.356Y-65.215
X60.515Y-63.5
X60.515Y-65.278
X61.658Y-63.373
X61.658Y-65.278
X61.976Y-41.656
X62.23Y-44.45
X64.706Y-54.292
X64.872Y-52.387
X65.849Y-50.927
X66.04Y-54.356
X66.868Y-41.722
X70.182Y-57.99
X72.39Y-48.26
X73.66Y-55.88
T2
X50.8Y-40.64
X50.8Y-43.18
X50.8Y-45.72
X76.2Y-36.195
X76.2Y-38.735
X76.2Y-41.275
X76.2Y-43.815
X50.8Y-33.02
X50.8Y-35.56
X50.8Y-50.8
X50.8Y-53.34
X50.8Y-55.88
X50.8Y-58.42
X50.8Y-60.96
X50.8Y-63.5
X76.2Y-28.635
X76.2Y-31.175
X50.8Y-68.58
X50.8Y-71.12
X76.2Y-48.26
X76.2Y-50.8
X76.2Y-53.34
X76.2Y-55.88
X76.2Y-58.42
X76.2Y-60.96
X76.2Y-63.5
X76.2Y-66.04
T0
M30
