G04 #@! TF.GenerationSoftware,KiCad,Pcbnew,5.1.7-a382d34a8~88~ubuntu20.04.1*
G04 #@! TF.CreationDate,2021-04-17T07:34:17-07:00*
G04 #@! TF.ProjectId,esp8266-wiz550io,65737038-3236-4362-9d77-697a35353069,Feb2021*
G04 #@! TF.SameCoordinates,Original*
G04 #@! TF.FileFunction,Legend,Top*
G04 #@! TF.FilePolarity,Positive*
%FSLAX46Y46*%
G04 Gerber Fmt 4.6, Leading zero omitted, Abs format (unit mm)*
G04 Created by KiCad (PCBNEW 5.1.7-a382d34a8~88~ubuntu20.04.1) date 2021-04-17 07:34:17*
%MOMM*%
%LPD*%
G01*
G04 APERTURE LIST*
%ADD10C,0.250000*%
%ADD11C,0.152400*%
%ADD12C,0.120000*%
%ADD13C,0.150000*%
%ADD14C,0.015000*%
G04 APERTURE END LIST*
D10*
X52515714Y-27551142D02*
X52372857Y-27622571D01*
X52087142Y-27622571D01*
X51944285Y-27551142D01*
X51872857Y-27408285D01*
X51872857Y-26836857D01*
X51944285Y-26694000D01*
X52087142Y-26622571D01*
X52372857Y-26622571D01*
X52515714Y-26694000D01*
X52587142Y-26836857D01*
X52587142Y-26979714D01*
X51872857Y-27122571D01*
X53158571Y-27551142D02*
X53301428Y-27622571D01*
X53587142Y-27622571D01*
X53729999Y-27551142D01*
X53801428Y-27408285D01*
X53801428Y-27336857D01*
X53729999Y-27194000D01*
X53587142Y-27122571D01*
X53372857Y-27122571D01*
X53229999Y-27051142D01*
X53158571Y-26908285D01*
X53158571Y-26836857D01*
X53229999Y-26694000D01*
X53372857Y-26622571D01*
X53587142Y-26622571D01*
X53729999Y-26694000D01*
X54444285Y-26622571D02*
X54444285Y-28122571D01*
X54444285Y-26694000D02*
X54587142Y-26622571D01*
X54872857Y-26622571D01*
X55015714Y-26694000D01*
X55087142Y-26765428D01*
X55158571Y-26908285D01*
X55158571Y-27336857D01*
X55087142Y-27479714D01*
X55015714Y-27551142D01*
X54872857Y-27622571D01*
X54587142Y-27622571D01*
X54444285Y-27551142D01*
X56015714Y-26765428D02*
X55872857Y-26694000D01*
X55801428Y-26622571D01*
X55729999Y-26479714D01*
X55729999Y-26408285D01*
X55801428Y-26265428D01*
X55872857Y-26194000D01*
X56015714Y-26122571D01*
X56301428Y-26122571D01*
X56444285Y-26194000D01*
X56515714Y-26265428D01*
X56587142Y-26408285D01*
X56587142Y-26479714D01*
X56515714Y-26622571D01*
X56444285Y-26694000D01*
X56301428Y-26765428D01*
X56015714Y-26765428D01*
X55872857Y-26836857D01*
X55801428Y-26908285D01*
X55729999Y-27051142D01*
X55729999Y-27336857D01*
X55801428Y-27479714D01*
X55872857Y-27551142D01*
X56015714Y-27622571D01*
X56301428Y-27622571D01*
X56444285Y-27551142D01*
X56515714Y-27479714D01*
X56587142Y-27336857D01*
X56587142Y-27051142D01*
X56515714Y-26908285D01*
X56444285Y-26836857D01*
X56301428Y-26765428D01*
X57158571Y-26265428D02*
X57229999Y-26194000D01*
X57372857Y-26122571D01*
X57729999Y-26122571D01*
X57872857Y-26194000D01*
X57944285Y-26265428D01*
X58015714Y-26408285D01*
X58015714Y-26551142D01*
X57944285Y-26765428D01*
X57087142Y-27622571D01*
X58015714Y-27622571D01*
X59301428Y-26122571D02*
X59015714Y-26122571D01*
X58872857Y-26194000D01*
X58801428Y-26265428D01*
X58658571Y-26479714D01*
X58587142Y-26765428D01*
X58587142Y-27336857D01*
X58658571Y-27479714D01*
X58729999Y-27551142D01*
X58872857Y-27622571D01*
X59158571Y-27622571D01*
X59301428Y-27551142D01*
X59372857Y-27479714D01*
X59444285Y-27336857D01*
X59444285Y-26979714D01*
X59372857Y-26836857D01*
X59301428Y-26765428D01*
X59158571Y-26694000D01*
X58872857Y-26694000D01*
X58729999Y-26765428D01*
X58658571Y-26836857D01*
X58587142Y-26979714D01*
X60729999Y-26122571D02*
X60444285Y-26122571D01*
X60301428Y-26194000D01*
X60229999Y-26265428D01*
X60087142Y-26479714D01*
X60015714Y-26765428D01*
X60015714Y-27336857D01*
X60087142Y-27479714D01*
X60158571Y-27551142D01*
X60301428Y-27622571D01*
X60587142Y-27622571D01*
X60729999Y-27551142D01*
X60801428Y-27479714D01*
X60872857Y-27336857D01*
X60872857Y-26979714D01*
X60801428Y-26836857D01*
X60729999Y-26765428D01*
X60587142Y-26694000D01*
X60301428Y-26694000D01*
X60158571Y-26765428D01*
X60087142Y-26836857D01*
X60015714Y-26979714D01*
X61515714Y-27051142D02*
X62658571Y-27051142D01*
X63229999Y-26622571D02*
X63515714Y-27622571D01*
X63801428Y-26908285D01*
X64087142Y-27622571D01*
X64372857Y-26622571D01*
X64944285Y-27622571D02*
X64944285Y-26622571D01*
X64944285Y-26122571D02*
X64872857Y-26194000D01*
X64944285Y-26265428D01*
X65015714Y-26194000D01*
X64944285Y-26122571D01*
X64944285Y-26265428D01*
X65515714Y-26622571D02*
X66301428Y-26622571D01*
X65515714Y-27622571D01*
X66301428Y-27622571D01*
X67587142Y-26122571D02*
X66872857Y-26122571D01*
X66801428Y-26836857D01*
X66872857Y-26765428D01*
X67015714Y-26694000D01*
X67372857Y-26694000D01*
X67515714Y-26765428D01*
X67587142Y-26836857D01*
X67658571Y-26979714D01*
X67658571Y-27336857D01*
X67587142Y-27479714D01*
X67515714Y-27551142D01*
X67372857Y-27622571D01*
X67015714Y-27622571D01*
X66872857Y-27551142D01*
X66801428Y-27479714D01*
X69015714Y-26122571D02*
X68301428Y-26122571D01*
X68230000Y-26836857D01*
X68301428Y-26765428D01*
X68444285Y-26694000D01*
X68801428Y-26694000D01*
X68944285Y-26765428D01*
X69015714Y-26836857D01*
X69087142Y-26979714D01*
X69087142Y-27336857D01*
X69015714Y-27479714D01*
X68944285Y-27551142D01*
X68801428Y-27622571D01*
X68444285Y-27622571D01*
X68301428Y-27551142D01*
X68230000Y-27479714D01*
X70015714Y-26122571D02*
X70158571Y-26122571D01*
X70301428Y-26194000D01*
X70372857Y-26265428D01*
X70444285Y-26408285D01*
X70515714Y-26694000D01*
X70515714Y-27051142D01*
X70444285Y-27336857D01*
X70372857Y-27479714D01*
X70301428Y-27551142D01*
X70158571Y-27622571D01*
X70015714Y-27622571D01*
X69872857Y-27551142D01*
X69801428Y-27479714D01*
X69730000Y-27336857D01*
X69658571Y-27051142D01*
X69658571Y-26694000D01*
X69730000Y-26408285D01*
X69801428Y-26265428D01*
X69872857Y-26194000D01*
X70015714Y-26122571D01*
X71158571Y-27622571D02*
X71158571Y-26622571D01*
X71158571Y-26122571D02*
X71087142Y-26194000D01*
X71158571Y-26265428D01*
X71230000Y-26194000D01*
X71158571Y-26122571D01*
X71158571Y-26265428D01*
X72087142Y-27622571D02*
X71944285Y-27551142D01*
X71872857Y-27479714D01*
X71801428Y-27336857D01*
X71801428Y-26908285D01*
X71872857Y-26765428D01*
X71944285Y-26694000D01*
X72087142Y-26622571D01*
X72301428Y-26622571D01*
X72444285Y-26694000D01*
X72515714Y-26765428D01*
X72587142Y-26908285D01*
X72587142Y-27336857D01*
X72515714Y-27479714D01*
X72444285Y-27551142D01*
X72301428Y-27622571D01*
X72087142Y-27622571D01*
X50730000Y-29336857D02*
X50230000Y-29336857D01*
X50230000Y-30122571D02*
X50230000Y-28622571D01*
X50944285Y-28622571D01*
X52087142Y-30051142D02*
X51944285Y-30122571D01*
X51658571Y-30122571D01*
X51515714Y-30051142D01*
X51444285Y-29908285D01*
X51444285Y-29336857D01*
X51515714Y-29194000D01*
X51658571Y-29122571D01*
X51944285Y-29122571D01*
X52087142Y-29194000D01*
X52158571Y-29336857D01*
X52158571Y-29479714D01*
X51444285Y-29622571D01*
X52801428Y-30122571D02*
X52801428Y-28622571D01*
X52801428Y-29194000D02*
X52944285Y-29122571D01*
X53230000Y-29122571D01*
X53372857Y-29194000D01*
X53444285Y-29265428D01*
X53515714Y-29408285D01*
X53515714Y-29836857D01*
X53444285Y-29979714D01*
X53372857Y-30051142D01*
X53230000Y-30122571D01*
X52944285Y-30122571D01*
X52801428Y-30051142D01*
X54087142Y-28765428D02*
X54158571Y-28694000D01*
X54301428Y-28622571D01*
X54658571Y-28622571D01*
X54801428Y-28694000D01*
X54872857Y-28765428D01*
X54944285Y-28908285D01*
X54944285Y-29051142D01*
X54872857Y-29265428D01*
X54015714Y-30122571D01*
X54944285Y-30122571D01*
X55872857Y-28622571D02*
X56015714Y-28622571D01*
X56158571Y-28694000D01*
X56230000Y-28765428D01*
X56301428Y-28908285D01*
X56372857Y-29194000D01*
X56372857Y-29551142D01*
X56301428Y-29836857D01*
X56230000Y-29979714D01*
X56158571Y-30051142D01*
X56015714Y-30122571D01*
X55872857Y-30122571D01*
X55730000Y-30051142D01*
X55658571Y-29979714D01*
X55587142Y-29836857D01*
X55515714Y-29551142D01*
X55515714Y-29194000D01*
X55587142Y-28908285D01*
X55658571Y-28765428D01*
X55730000Y-28694000D01*
X55872857Y-28622571D01*
X56944285Y-28765428D02*
X57015714Y-28694000D01*
X57158571Y-28622571D01*
X57515714Y-28622571D01*
X57658571Y-28694000D01*
X57730000Y-28765428D01*
X57801428Y-28908285D01*
X57801428Y-29051142D01*
X57730000Y-29265428D01*
X56872857Y-30122571D01*
X57801428Y-30122571D01*
X59230000Y-30122571D02*
X58372857Y-30122571D01*
X58801428Y-30122571D02*
X58801428Y-28622571D01*
X58658571Y-28836857D01*
X58515714Y-28979714D01*
X58372857Y-29051142D01*
X61944285Y-29408285D02*
X61872857Y-29336857D01*
X61730000Y-29265428D01*
X61587142Y-29265428D01*
X61444285Y-29336857D01*
X61372857Y-29408285D01*
X61301428Y-29551142D01*
X61301428Y-29694000D01*
X61372857Y-29836857D01*
X61444285Y-29908285D01*
X61587142Y-29979714D01*
X61730000Y-29979714D01*
X61872857Y-29908285D01*
X61944285Y-29836857D01*
X61944285Y-29265428D02*
X61944285Y-29836857D01*
X62015714Y-29908285D01*
X62087142Y-29908285D01*
X62230000Y-29836857D01*
X62301428Y-29694000D01*
X62301428Y-29336857D01*
X62158571Y-29122571D01*
X61944285Y-28979714D01*
X61658571Y-28908285D01*
X61372857Y-28979714D01*
X61158571Y-29122571D01*
X61015714Y-29336857D01*
X60944285Y-29622571D01*
X61015714Y-29908285D01*
X61158571Y-30122571D01*
X61372857Y-30265428D01*
X61658571Y-30336857D01*
X61944285Y-30265428D01*
X62158571Y-30122571D01*
X62730000Y-28622571D02*
X63587142Y-28622571D01*
X63158571Y-30122571D02*
X63158571Y-28622571D01*
X64301428Y-30122571D02*
X64158571Y-30051142D01*
X64087142Y-29979714D01*
X64015714Y-29836857D01*
X64015714Y-29408285D01*
X64087142Y-29265428D01*
X64158571Y-29194000D01*
X64301428Y-29122571D01*
X64515714Y-29122571D01*
X64658571Y-29194000D01*
X64730000Y-29265428D01*
X64801428Y-29408285D01*
X64801428Y-29836857D01*
X64730000Y-29979714D01*
X64658571Y-30051142D01*
X64515714Y-30122571D01*
X64301428Y-30122571D01*
X65444285Y-30122571D02*
X65444285Y-29122571D01*
X65444285Y-29265428D02*
X65515714Y-29194000D01*
X65658571Y-29122571D01*
X65872857Y-29122571D01*
X66015714Y-29194000D01*
X66087142Y-29336857D01*
X66087142Y-30122571D01*
X66087142Y-29336857D02*
X66158571Y-29194000D01*
X66301428Y-29122571D01*
X66515714Y-29122571D01*
X66658571Y-29194000D01*
X66730000Y-29336857D01*
X66730000Y-30122571D01*
X67444285Y-30122571D02*
X67444285Y-28622571D01*
X68301428Y-30122571D02*
X67658571Y-29265428D01*
X68301428Y-28622571D02*
X67444285Y-29479714D01*
X69515714Y-30051142D02*
X69372857Y-30122571D01*
X69087142Y-30122571D01*
X68944285Y-30051142D01*
X68872857Y-29908285D01*
X68872857Y-29336857D01*
X68944285Y-29194000D01*
X69087142Y-29122571D01*
X69372857Y-29122571D01*
X69515714Y-29194000D01*
X69587142Y-29336857D01*
X69587142Y-29479714D01*
X68872857Y-29622571D01*
X70872857Y-30122571D02*
X70872857Y-28622571D01*
X70872857Y-30051142D02*
X70730000Y-30122571D01*
X70444285Y-30122571D01*
X70301428Y-30051142D01*
X70230000Y-29979714D01*
X70158571Y-29836857D01*
X70158571Y-29408285D01*
X70230000Y-29265428D01*
X70301428Y-29194000D01*
X70444285Y-29122571D01*
X70730000Y-29122571D01*
X70872857Y-29194000D01*
X72230000Y-30122571D02*
X72230000Y-28622571D01*
X72230000Y-30051142D02*
X72087142Y-30122571D01*
X71801428Y-30122571D01*
X71658571Y-30051142D01*
X71587142Y-29979714D01*
X71515714Y-29836857D01*
X71515714Y-29408285D01*
X71587142Y-29265428D01*
X71658571Y-29194000D01*
X71801428Y-29122571D01*
X72087142Y-29122571D01*
X72230000Y-29194000D01*
X72944285Y-30122571D02*
X72944285Y-29122571D01*
X72944285Y-28622571D02*
X72872857Y-28694000D01*
X72944285Y-28765428D01*
X73015714Y-28694000D01*
X72944285Y-28622571D01*
X72944285Y-28765428D01*
X74230000Y-30051142D02*
X74087142Y-30122571D01*
X73801428Y-30122571D01*
X73658571Y-30051142D01*
X73587142Y-29908285D01*
X73587142Y-29336857D01*
X73658571Y-29194000D01*
X73801428Y-29122571D01*
X74087142Y-29122571D01*
X74230000Y-29194000D01*
X74301428Y-29336857D01*
X74301428Y-29479714D01*
X73587142Y-29622571D01*
D11*
G04 #@! TO.C,U1*
X70866000Y-58801000D02*
X70866000Y-58039000D01*
X70866000Y-58039000D02*
X54864000Y-58039000D01*
X54864000Y-58039000D02*
X54864000Y-58801000D01*
D12*
G04 #@! TO.C,J7*
X74870000Y-32505000D02*
X77530000Y-32505000D01*
X74870000Y-29905000D02*
X74870000Y-32505000D01*
X77530000Y-29905000D02*
X77530000Y-32505000D01*
X74870000Y-29905000D02*
X77530000Y-29905000D01*
X74870000Y-28635000D02*
X74870000Y-27305000D01*
X74870000Y-27305000D02*
X76200000Y-27305000D01*
G04 #@! TO.C,C7*
X56891422Y-40080000D02*
X57408578Y-40080000D01*
X56891422Y-38660000D02*
X57408578Y-38660000D01*
G04 #@! TO.C,C4*
X67362000Y-42413422D02*
X67362000Y-42930578D01*
X68782000Y-42413422D02*
X68782000Y-42930578D01*
G04 #@! TO.C,C3*
X59742000Y-42413422D02*
X59742000Y-42930578D01*
X61162000Y-42413422D02*
X61162000Y-42930578D01*
G04 #@! TO.C,C6*
X76458578Y-68505000D02*
X75941422Y-68505000D01*
X76458578Y-69925000D02*
X75941422Y-69925000D01*
G04 #@! TO.C,C5*
X55320000Y-48518578D02*
X55320000Y-48001422D01*
X53900000Y-48518578D02*
X53900000Y-48001422D01*
G04 #@! TO.C,U3*
X65670000Y-41062000D02*
X63220000Y-41062000D01*
X63870000Y-44282000D02*
X65670000Y-44282000D01*
D11*
G04 #@! TO.C,U2*
X55651400Y-43484800D02*
X55651400Y-43611800D01*
X55651400Y-42875200D02*
X55651400Y-43484800D01*
X55651400Y-42748200D02*
X55651400Y-42875200D01*
X57480200Y-42418000D02*
X56819800Y-42418000D01*
X58648600Y-43611800D02*
X58648600Y-42748200D01*
X55651400Y-42875200D02*
G75*
G02*
X55651400Y-43484800I0J-304800D01*
G01*
D12*
G04 #@! TO.C,R6*
X73100000Y-51058578D02*
X73100000Y-50541422D01*
X71680000Y-51058578D02*
X71680000Y-50541422D01*
G04 #@! TO.C,R5*
X61520000Y-34031422D02*
X61520000Y-34548578D01*
X62940000Y-34031422D02*
X62940000Y-34548578D01*
G04 #@! TO.C,R4*
X56440000Y-34031422D02*
X56440000Y-34548578D01*
X57860000Y-34031422D02*
X57860000Y-34548578D01*
G04 #@! TO.C,R3*
X76458578Y-74220000D02*
X75941422Y-74220000D01*
X76458578Y-75640000D02*
X75941422Y-75640000D01*
G04 #@! TO.C,R2*
X76458578Y-71934000D02*
X75941422Y-71934000D01*
X76458578Y-73354000D02*
X75941422Y-73354000D01*
G04 #@! TO.C,R1*
X55320000Y-34548578D02*
X55320000Y-34031422D01*
X53900000Y-34548578D02*
X53900000Y-34031422D01*
G04 #@! TO.C,J6*
X49470000Y-39310000D02*
X50800000Y-39310000D01*
X49470000Y-40640000D02*
X49470000Y-39310000D01*
X49470000Y-41910000D02*
X52130000Y-41910000D01*
X52130000Y-41910000D02*
X52130000Y-47050000D01*
X49470000Y-41910000D02*
X49470000Y-47050000D01*
X49470000Y-47050000D02*
X52130000Y-47050000D01*
G04 #@! TO.C,J5*
X49470000Y-72450000D02*
X52130000Y-72450000D01*
X49470000Y-69850000D02*
X49470000Y-72450000D01*
X52130000Y-69850000D02*
X52130000Y-72450000D01*
X49470000Y-69850000D02*
X52130000Y-69850000D01*
X49470000Y-68580000D02*
X49470000Y-67250000D01*
X49470000Y-67250000D02*
X50800000Y-67250000D01*
G04 #@! TO.C,J4*
X49470000Y-64830000D02*
X52130000Y-64830000D01*
X49470000Y-52070000D02*
X49470000Y-64830000D01*
X52130000Y-52070000D02*
X52130000Y-64830000D01*
X49470000Y-52070000D02*
X52130000Y-52070000D01*
X49470000Y-50800000D02*
X49470000Y-49470000D01*
X49470000Y-49470000D02*
X50800000Y-49470000D01*
G04 #@! TO.C,J3*
X74870000Y-46930000D02*
X76200000Y-46930000D01*
X74870000Y-48260000D02*
X74870000Y-46930000D01*
X74870000Y-49530000D02*
X77530000Y-49530000D01*
X77530000Y-49530000D02*
X77530000Y-67370000D01*
X74870000Y-49530000D02*
X74870000Y-67370000D01*
X74870000Y-67370000D02*
X77530000Y-67370000D01*
G04 #@! TO.C,J2*
X74870000Y-45145000D02*
X77530000Y-45145000D01*
X74870000Y-37465000D02*
X74870000Y-45145000D01*
X77530000Y-37465000D02*
X77530000Y-45145000D01*
X74870000Y-37465000D02*
X77530000Y-37465000D01*
X74870000Y-36195000D02*
X74870000Y-34865000D01*
X74870000Y-34865000D02*
X76200000Y-34865000D01*
G04 #@! TO.C,J1*
X49470000Y-36890000D02*
X52130000Y-36890000D01*
X49470000Y-34290000D02*
X49470000Y-36890000D01*
X52130000Y-34290000D02*
X52130000Y-36890000D01*
X49470000Y-34290000D02*
X52130000Y-34290000D01*
X49470000Y-33020000D02*
X49470000Y-31690000D01*
X49470000Y-31690000D02*
X50800000Y-31690000D01*
G04 #@! TO.C,D2*
X63810000Y-32605000D02*
X63810000Y-35290000D01*
X65730000Y-32605000D02*
X63810000Y-32605000D01*
X65730000Y-35290000D02*
X65730000Y-32605000D01*
G04 #@! TO.C,D1*
X58730000Y-32605000D02*
X58730000Y-35290000D01*
X60650000Y-32605000D02*
X58730000Y-32605000D01*
X60650000Y-35290000D02*
X60650000Y-32605000D01*
G04 #@! TO.C,C2*
X72442000Y-66035422D02*
X72442000Y-66552578D01*
X73862000Y-66035422D02*
X73862000Y-66552578D01*
G04 #@! TO.C,C1*
X70861422Y-56590000D02*
X71378578Y-56590000D01*
X70861422Y-55170000D02*
X71378578Y-55170000D01*
G04 #@! TO.C,U1*
D13*
X60412380Y-68071904D02*
X61221904Y-68071904D01*
X61317142Y-68024285D01*
X61364761Y-67976666D01*
X61412380Y-67881428D01*
X61412380Y-67690952D01*
X61364761Y-67595714D01*
X61317142Y-67548095D01*
X61221904Y-67500476D01*
X60412380Y-67500476D01*
X61412380Y-66500476D02*
X61412380Y-67071904D01*
X61412380Y-66786190D02*
X60412380Y-66786190D01*
X60555238Y-66881428D01*
X60650476Y-66976666D01*
X60698095Y-67071904D01*
G04 #@! TO.C,J7*
X75866666Y-25757380D02*
X75866666Y-26471666D01*
X75819047Y-26614523D01*
X75723809Y-26709761D01*
X75580952Y-26757380D01*
X75485714Y-26757380D01*
X76247619Y-25757380D02*
X76914285Y-25757380D01*
X76485714Y-26757380D01*
G04 #@! TO.C,C7*
X56983333Y-38077142D02*
X56935714Y-38124761D01*
X56792857Y-38172380D01*
X56697619Y-38172380D01*
X56554761Y-38124761D01*
X56459523Y-38029523D01*
X56411904Y-37934285D01*
X56364285Y-37743809D01*
X56364285Y-37600952D01*
X56411904Y-37410476D01*
X56459523Y-37315238D01*
X56554761Y-37220000D01*
X56697619Y-37172380D01*
X56792857Y-37172380D01*
X56935714Y-37220000D01*
X56983333Y-37267619D01*
X57316666Y-37172380D02*
X57983333Y-37172380D01*
X57554761Y-38172380D01*
G04 #@! TO.C,C4*
X70079142Y-42838666D02*
X70126761Y-42886285D01*
X70174380Y-43029142D01*
X70174380Y-43124380D01*
X70126761Y-43267238D01*
X70031523Y-43362476D01*
X69936285Y-43410095D01*
X69745809Y-43457714D01*
X69602952Y-43457714D01*
X69412476Y-43410095D01*
X69317238Y-43362476D01*
X69222000Y-43267238D01*
X69174380Y-43124380D01*
X69174380Y-43029142D01*
X69222000Y-42886285D01*
X69269619Y-42838666D01*
X69507714Y-41981523D02*
X70174380Y-41981523D01*
X69126761Y-42219619D02*
X69841047Y-42457714D01*
X69841047Y-41838666D01*
G04 #@! TO.C,C3*
X62459142Y-42838666D02*
X62506761Y-42886285D01*
X62554380Y-43029142D01*
X62554380Y-43124380D01*
X62506761Y-43267238D01*
X62411523Y-43362476D01*
X62316285Y-43410095D01*
X62125809Y-43457714D01*
X61982952Y-43457714D01*
X61792476Y-43410095D01*
X61697238Y-43362476D01*
X61602000Y-43267238D01*
X61554380Y-43124380D01*
X61554380Y-43029142D01*
X61602000Y-42886285D01*
X61649619Y-42838666D01*
X61554380Y-42505333D02*
X61554380Y-41886285D01*
X61935333Y-42219619D01*
X61935333Y-42076761D01*
X61982952Y-41981523D01*
X62030571Y-41933904D01*
X62125809Y-41886285D01*
X62363904Y-41886285D01*
X62459142Y-41933904D01*
X62506761Y-41981523D01*
X62554380Y-42076761D01*
X62554380Y-42362476D01*
X62506761Y-42457714D01*
X62459142Y-42505333D01*
G04 #@! TO.C,C6*
X78573333Y-69445142D02*
X78525714Y-69492761D01*
X78382857Y-69540380D01*
X78287619Y-69540380D01*
X78144761Y-69492761D01*
X78049523Y-69397523D01*
X78001904Y-69302285D01*
X77954285Y-69111809D01*
X77954285Y-68968952D01*
X78001904Y-68778476D01*
X78049523Y-68683238D01*
X78144761Y-68588000D01*
X78287619Y-68540380D01*
X78382857Y-68540380D01*
X78525714Y-68588000D01*
X78573333Y-68635619D01*
X79430476Y-68540380D02*
X79240000Y-68540380D01*
X79144761Y-68588000D01*
X79097142Y-68635619D01*
X79001904Y-68778476D01*
X78954285Y-68968952D01*
X78954285Y-69349904D01*
X79001904Y-69445142D01*
X79049523Y-69492761D01*
X79144761Y-69540380D01*
X79335238Y-69540380D01*
X79430476Y-69492761D01*
X79478095Y-69445142D01*
X79525714Y-69349904D01*
X79525714Y-69111809D01*
X79478095Y-69016571D01*
X79430476Y-68968952D01*
X79335238Y-68921333D01*
X79144761Y-68921333D01*
X79049523Y-68968952D01*
X79001904Y-69016571D01*
X78954285Y-69111809D01*
G04 #@! TO.C,C5*
X53317142Y-48426666D02*
X53364761Y-48474285D01*
X53412380Y-48617142D01*
X53412380Y-48712380D01*
X53364761Y-48855238D01*
X53269523Y-48950476D01*
X53174285Y-48998095D01*
X52983809Y-49045714D01*
X52840952Y-49045714D01*
X52650476Y-48998095D01*
X52555238Y-48950476D01*
X52460000Y-48855238D01*
X52412380Y-48712380D01*
X52412380Y-48617142D01*
X52460000Y-48474285D01*
X52507619Y-48426666D01*
X52412380Y-47521904D02*
X52412380Y-47998095D01*
X52888571Y-48045714D01*
X52840952Y-47998095D01*
X52793333Y-47902857D01*
X52793333Y-47664761D01*
X52840952Y-47569523D01*
X52888571Y-47521904D01*
X52983809Y-47474285D01*
X53221904Y-47474285D01*
X53317142Y-47521904D01*
X53364761Y-47569523D01*
X53412380Y-47664761D01*
X53412380Y-47902857D01*
X53364761Y-47998095D01*
X53317142Y-48045714D01*
G04 #@! TO.C,U3*
X64008095Y-39224380D02*
X64008095Y-40033904D01*
X64055714Y-40129142D01*
X64103333Y-40176761D01*
X64198571Y-40224380D01*
X64389047Y-40224380D01*
X64484285Y-40176761D01*
X64531904Y-40129142D01*
X64579523Y-40033904D01*
X64579523Y-39224380D01*
X64960476Y-39224380D02*
X65579523Y-39224380D01*
X65246190Y-39605333D01*
X65389047Y-39605333D01*
X65484285Y-39652952D01*
X65531904Y-39700571D01*
X65579523Y-39795809D01*
X65579523Y-40033904D01*
X65531904Y-40129142D01*
X65484285Y-40176761D01*
X65389047Y-40224380D01*
X65103333Y-40224380D01*
X65008095Y-40176761D01*
X64960476Y-40129142D01*
G04 #@! TO.C,U2*
X54316380Y-42671904D02*
X55125904Y-42671904D01*
X55221142Y-42624285D01*
X55268761Y-42576666D01*
X55316380Y-42481428D01*
X55316380Y-42290952D01*
X55268761Y-42195714D01*
X55221142Y-42148095D01*
X55125904Y-42100476D01*
X54316380Y-42100476D01*
X54411619Y-41671904D02*
X54364000Y-41624285D01*
X54316380Y-41529047D01*
X54316380Y-41290952D01*
X54364000Y-41195714D01*
X54411619Y-41148095D01*
X54506857Y-41100476D01*
X54602095Y-41100476D01*
X54744952Y-41148095D01*
X55316380Y-41719523D01*
X55316380Y-41100476D01*
D14*
X55227552Y-45291740D02*
X55466047Y-45291740D01*
X55370649Y-45530234D02*
X55466047Y-45291740D01*
X55370649Y-45053245D01*
X55656842Y-45434836D02*
X55466047Y-45291740D01*
X55656842Y-45148643D01*
G04 #@! TO.C,R6*
D13*
X71192380Y-50966666D02*
X70716190Y-51300000D01*
X71192380Y-51538095D02*
X70192380Y-51538095D01*
X70192380Y-51157142D01*
X70240000Y-51061904D01*
X70287619Y-51014285D01*
X70382857Y-50966666D01*
X70525714Y-50966666D01*
X70620952Y-51014285D01*
X70668571Y-51061904D01*
X70716190Y-51157142D01*
X70716190Y-51538095D01*
X70192380Y-50109523D02*
X70192380Y-50300000D01*
X70240000Y-50395238D01*
X70287619Y-50442857D01*
X70430476Y-50538095D01*
X70620952Y-50585714D01*
X71001904Y-50585714D01*
X71097142Y-50538095D01*
X71144761Y-50490476D01*
X71192380Y-50395238D01*
X71192380Y-50204761D01*
X71144761Y-50109523D01*
X71097142Y-50061904D01*
X71001904Y-50014285D01*
X70763809Y-50014285D01*
X70668571Y-50061904D01*
X70620952Y-50109523D01*
X70573333Y-50204761D01*
X70573333Y-50395238D01*
X70620952Y-50490476D01*
X70668571Y-50538095D01*
X70763809Y-50585714D01*
G04 #@! TO.C,R5*
X62682380Y-37250666D02*
X62206190Y-37584000D01*
X62682380Y-37822095D02*
X61682380Y-37822095D01*
X61682380Y-37441142D01*
X61730000Y-37345904D01*
X61777619Y-37298285D01*
X61872857Y-37250666D01*
X62015714Y-37250666D01*
X62110952Y-37298285D01*
X62158571Y-37345904D01*
X62206190Y-37441142D01*
X62206190Y-37822095D01*
X61682380Y-36345904D02*
X61682380Y-36822095D01*
X62158571Y-36869714D01*
X62110952Y-36822095D01*
X62063333Y-36726857D01*
X62063333Y-36488761D01*
X62110952Y-36393523D01*
X62158571Y-36345904D01*
X62253809Y-36298285D01*
X62491904Y-36298285D01*
X62587142Y-36345904D01*
X62634761Y-36393523D01*
X62682380Y-36488761D01*
X62682380Y-36726857D01*
X62634761Y-36822095D01*
X62587142Y-36869714D01*
G04 #@! TO.C,R4*
X57602380Y-31662666D02*
X57126190Y-31996000D01*
X57602380Y-32234095D02*
X56602380Y-32234095D01*
X56602380Y-31853142D01*
X56650000Y-31757904D01*
X56697619Y-31710285D01*
X56792857Y-31662666D01*
X56935714Y-31662666D01*
X57030952Y-31710285D01*
X57078571Y-31757904D01*
X57126190Y-31853142D01*
X57126190Y-32234095D01*
X56935714Y-30805523D02*
X57602380Y-30805523D01*
X56554761Y-31043619D02*
X57269047Y-31281714D01*
X57269047Y-30662666D01*
G04 #@! TO.C,R3*
X73239333Y-75382380D02*
X72906000Y-74906190D01*
X72667904Y-75382380D02*
X72667904Y-74382380D01*
X73048857Y-74382380D01*
X73144095Y-74430000D01*
X73191714Y-74477619D01*
X73239333Y-74572857D01*
X73239333Y-74715714D01*
X73191714Y-74810952D01*
X73144095Y-74858571D01*
X73048857Y-74906190D01*
X72667904Y-74906190D01*
X73572666Y-74382380D02*
X74191714Y-74382380D01*
X73858380Y-74763333D01*
X74001238Y-74763333D01*
X74096476Y-74810952D01*
X74144095Y-74858571D01*
X74191714Y-74953809D01*
X74191714Y-75191904D01*
X74144095Y-75287142D01*
X74096476Y-75334761D01*
X74001238Y-75382380D01*
X73715523Y-75382380D01*
X73620285Y-75334761D01*
X73572666Y-75287142D01*
G04 #@! TO.C,R2*
X78573333Y-73096380D02*
X78240000Y-72620190D01*
X78001904Y-73096380D02*
X78001904Y-72096380D01*
X78382857Y-72096380D01*
X78478095Y-72144000D01*
X78525714Y-72191619D01*
X78573333Y-72286857D01*
X78573333Y-72429714D01*
X78525714Y-72524952D01*
X78478095Y-72572571D01*
X78382857Y-72620190D01*
X78001904Y-72620190D01*
X78954285Y-72191619D02*
X79001904Y-72144000D01*
X79097142Y-72096380D01*
X79335238Y-72096380D01*
X79430476Y-72144000D01*
X79478095Y-72191619D01*
X79525714Y-72286857D01*
X79525714Y-72382095D01*
X79478095Y-72524952D01*
X78906666Y-73096380D01*
X79525714Y-73096380D01*
G04 #@! TO.C,R1*
X55062380Y-31662666D02*
X54586190Y-31996000D01*
X55062380Y-32234095D02*
X54062380Y-32234095D01*
X54062380Y-31853142D01*
X54110000Y-31757904D01*
X54157619Y-31710285D01*
X54252857Y-31662666D01*
X54395714Y-31662666D01*
X54490952Y-31710285D01*
X54538571Y-31757904D01*
X54586190Y-31853142D01*
X54586190Y-32234095D01*
X55062380Y-30710285D02*
X55062380Y-31281714D01*
X55062380Y-30996000D02*
X54062380Y-30996000D01*
X54205238Y-31091238D01*
X54300476Y-31186476D01*
X54348095Y-31281714D01*
G04 #@! TO.C,J6*
X50466666Y-37762380D02*
X50466666Y-38476666D01*
X50419047Y-38619523D01*
X50323809Y-38714761D01*
X50180952Y-38762380D01*
X50085714Y-38762380D01*
X51371428Y-37762380D02*
X51180952Y-37762380D01*
X51085714Y-37810000D01*
X51038095Y-37857619D01*
X50942857Y-38000476D01*
X50895238Y-38190952D01*
X50895238Y-38571904D01*
X50942857Y-38667142D01*
X50990476Y-38714761D01*
X51085714Y-38762380D01*
X51276190Y-38762380D01*
X51371428Y-38714761D01*
X51419047Y-38667142D01*
X51466666Y-38571904D01*
X51466666Y-38333809D01*
X51419047Y-38238571D01*
X51371428Y-38190952D01*
X51276190Y-38143333D01*
X51085714Y-38143333D01*
X50990476Y-38190952D01*
X50942857Y-38238571D01*
X50895238Y-38333809D01*
G04 #@! TO.C,J5*
X50466666Y-65702380D02*
X50466666Y-66416666D01*
X50419047Y-66559523D01*
X50323809Y-66654761D01*
X50180952Y-66702380D01*
X50085714Y-66702380D01*
X51419047Y-65702380D02*
X50942857Y-65702380D01*
X50895238Y-66178571D01*
X50942857Y-66130952D01*
X51038095Y-66083333D01*
X51276190Y-66083333D01*
X51371428Y-66130952D01*
X51419047Y-66178571D01*
X51466666Y-66273809D01*
X51466666Y-66511904D01*
X51419047Y-66607142D01*
X51371428Y-66654761D01*
X51276190Y-66702380D01*
X51038095Y-66702380D01*
X50942857Y-66654761D01*
X50895238Y-66607142D01*
G04 #@! TO.C,J4*
X50466666Y-47922380D02*
X50466666Y-48636666D01*
X50419047Y-48779523D01*
X50323809Y-48874761D01*
X50180952Y-48922380D01*
X50085714Y-48922380D01*
X51371428Y-48255714D02*
X51371428Y-48922380D01*
X51133333Y-47874761D02*
X50895238Y-48589047D01*
X51514285Y-48589047D01*
G04 #@! TO.C,J3*
X75866666Y-45382380D02*
X75866666Y-46096666D01*
X75819047Y-46239523D01*
X75723809Y-46334761D01*
X75580952Y-46382380D01*
X75485714Y-46382380D01*
X76247619Y-45382380D02*
X76866666Y-45382380D01*
X76533333Y-45763333D01*
X76676190Y-45763333D01*
X76771428Y-45810952D01*
X76819047Y-45858571D01*
X76866666Y-45953809D01*
X76866666Y-46191904D01*
X76819047Y-46287142D01*
X76771428Y-46334761D01*
X76676190Y-46382380D01*
X76390476Y-46382380D01*
X76295238Y-46334761D01*
X76247619Y-46287142D01*
G04 #@! TO.C,J2*
X75866666Y-33317380D02*
X75866666Y-34031666D01*
X75819047Y-34174523D01*
X75723809Y-34269761D01*
X75580952Y-34317380D01*
X75485714Y-34317380D01*
X76295238Y-33412619D02*
X76342857Y-33365000D01*
X76438095Y-33317380D01*
X76676190Y-33317380D01*
X76771428Y-33365000D01*
X76819047Y-33412619D01*
X76866666Y-33507857D01*
X76866666Y-33603095D01*
X76819047Y-33745952D01*
X76247619Y-34317380D01*
X76866666Y-34317380D01*
G04 #@! TO.C,J1*
X52284380Y-34623333D02*
X52998666Y-34623333D01*
X53141523Y-34670952D01*
X53236761Y-34766190D01*
X53284380Y-34909047D01*
X53284380Y-35004285D01*
X53284380Y-33623333D02*
X53284380Y-34194761D01*
X53284380Y-33909047D02*
X52284380Y-33909047D01*
X52427238Y-34004285D01*
X52522476Y-34099523D01*
X52570095Y-34194761D01*
G04 #@! TO.C,D2*
X65222380Y-32234095D02*
X64222380Y-32234095D01*
X64222380Y-31996000D01*
X64270000Y-31853142D01*
X64365238Y-31757904D01*
X64460476Y-31710285D01*
X64650952Y-31662666D01*
X64793809Y-31662666D01*
X64984285Y-31710285D01*
X65079523Y-31757904D01*
X65174761Y-31853142D01*
X65222380Y-31996000D01*
X65222380Y-32234095D01*
X64317619Y-31281714D02*
X64270000Y-31234095D01*
X64222380Y-31138857D01*
X64222380Y-30900761D01*
X64270000Y-30805523D01*
X64317619Y-30757904D01*
X64412857Y-30710285D01*
X64508095Y-30710285D01*
X64650952Y-30757904D01*
X65222380Y-31329333D01*
X65222380Y-30710285D01*
G04 #@! TO.C,D1*
X60142380Y-32234095D02*
X59142380Y-32234095D01*
X59142380Y-31996000D01*
X59190000Y-31853142D01*
X59285238Y-31757904D01*
X59380476Y-31710285D01*
X59570952Y-31662666D01*
X59713809Y-31662666D01*
X59904285Y-31710285D01*
X59999523Y-31757904D01*
X60094761Y-31853142D01*
X60142380Y-31996000D01*
X60142380Y-32234095D01*
X60142380Y-30710285D02*
X60142380Y-31281714D01*
X60142380Y-30996000D02*
X59142380Y-30996000D01*
X59285238Y-31091238D01*
X59380476Y-31186476D01*
X59428095Y-31281714D01*
G04 #@! TO.C,C2*
X73509142Y-69254666D02*
X73556761Y-69302285D01*
X73604380Y-69445142D01*
X73604380Y-69540380D01*
X73556761Y-69683238D01*
X73461523Y-69778476D01*
X73366285Y-69826095D01*
X73175809Y-69873714D01*
X73032952Y-69873714D01*
X72842476Y-69826095D01*
X72747238Y-69778476D01*
X72652000Y-69683238D01*
X72604380Y-69540380D01*
X72604380Y-69445142D01*
X72652000Y-69302285D01*
X72699619Y-69254666D01*
X72699619Y-68873714D02*
X72652000Y-68826095D01*
X72604380Y-68730857D01*
X72604380Y-68492761D01*
X72652000Y-68397523D01*
X72699619Y-68349904D01*
X72794857Y-68302285D01*
X72890095Y-68302285D01*
X73032952Y-68349904D01*
X73604380Y-68921333D01*
X73604380Y-68302285D01*
G04 #@! TO.C,C1*
X70953333Y-54587142D02*
X70905714Y-54634761D01*
X70762857Y-54682380D01*
X70667619Y-54682380D01*
X70524761Y-54634761D01*
X70429523Y-54539523D01*
X70381904Y-54444285D01*
X70334285Y-54253809D01*
X70334285Y-54110952D01*
X70381904Y-53920476D01*
X70429523Y-53825238D01*
X70524761Y-53730000D01*
X70667619Y-53682380D01*
X70762857Y-53682380D01*
X70905714Y-53730000D01*
X70953333Y-53777619D01*
X71905714Y-54682380D02*
X71334285Y-54682380D01*
X71620000Y-54682380D02*
X71620000Y-53682380D01*
X71524761Y-53825238D01*
X71429523Y-53920476D01*
X71334285Y-53968095D01*
G04 #@! TD*
M02*
