G04 #@! TF.GenerationSoftware,KiCad,Pcbnew,7.0.10-1.fc39*
G04 #@! TF.CreationDate,2024-03-02T06:46:17-08:00*
G04 #@! TF.ProjectId,mikrobus-pmod-adapt,6d696b72-6f62-4757-932d-706d6f642d61,rev?*
G04 #@! TF.SameCoordinates,Original*
G04 #@! TF.FileFunction,Legend,Bot*
G04 #@! TF.FilePolarity,Positive*
%FSLAX46Y46*%
G04 Gerber Fmt 4.6, Leading zero omitted, Abs format (unit mm)*
G04 Created by KiCad (PCBNEW 7.0.10-1.fc39) date 2024-03-02 06:46:17*
%MOMM*%
%LPD*%
G01*
G04 APERTURE LIST*
%ADD10C,0.400000*%
%ADD11C,0.150000*%
%ADD12C,0.120000*%
G04 APERTURE END LIST*
D10*
X93512057Y-95933570D02*
X93416819Y-95838332D01*
X93416819Y-95838332D02*
X93321580Y-95647856D01*
X93321580Y-95647856D02*
X93321580Y-95457380D01*
X93321580Y-95457380D02*
X93416819Y-95266904D01*
X93416819Y-95266904D02*
X93512057Y-95171665D01*
X93512057Y-95171665D02*
X93702533Y-95076427D01*
X93702533Y-95076427D02*
X93893009Y-95076427D01*
X93893009Y-95076427D02*
X94083485Y-95171665D01*
X94083485Y-95171665D02*
X94178723Y-95266904D01*
X94178723Y-95266904D02*
X94273961Y-95457380D01*
X94273961Y-95457380D02*
X94273961Y-95647856D01*
X94273961Y-95647856D02*
X94178723Y-95838332D01*
X94178723Y-95838332D02*
X94083485Y-95933570D01*
X93321580Y-95933570D02*
X94083485Y-95933570D01*
X94083485Y-95933570D02*
X94178723Y-96028808D01*
X94178723Y-96028808D02*
X94178723Y-96124046D01*
X94178723Y-96124046D02*
X94083485Y-96314523D01*
X94083485Y-96314523D02*
X93893009Y-96409761D01*
X93893009Y-96409761D02*
X93416819Y-96409761D01*
X93416819Y-96409761D02*
X93131104Y-96219285D01*
X93131104Y-96219285D02*
X92940628Y-95933570D01*
X92940628Y-95933570D02*
X92845390Y-95552618D01*
X92845390Y-95552618D02*
X92940628Y-95171665D01*
X92940628Y-95171665D02*
X93131104Y-94885951D01*
X93131104Y-94885951D02*
X93416819Y-94695475D01*
X93416819Y-94695475D02*
X93797771Y-94600237D01*
X93797771Y-94600237D02*
X94178723Y-94695475D01*
X94178723Y-94695475D02*
X94464438Y-94885951D01*
X94464438Y-94885951D02*
X94654914Y-95171665D01*
X94654914Y-95171665D02*
X94750152Y-95552618D01*
X94750152Y-95552618D02*
X94654914Y-95933570D01*
X94654914Y-95933570D02*
X94464438Y-96219285D01*
X92464438Y-96981190D02*
X92464438Y-98124047D01*
X94464438Y-97552618D02*
X92464438Y-97552618D01*
X94464438Y-99076428D02*
X94369200Y-98885952D01*
X94369200Y-98885952D02*
X94273961Y-98790714D01*
X94273961Y-98790714D02*
X94083485Y-98695476D01*
X94083485Y-98695476D02*
X93512057Y-98695476D01*
X93512057Y-98695476D02*
X93321580Y-98790714D01*
X93321580Y-98790714D02*
X93226342Y-98885952D01*
X93226342Y-98885952D02*
X93131104Y-99076428D01*
X93131104Y-99076428D02*
X93131104Y-99362143D01*
X93131104Y-99362143D02*
X93226342Y-99552619D01*
X93226342Y-99552619D02*
X93321580Y-99647857D01*
X93321580Y-99647857D02*
X93512057Y-99743095D01*
X93512057Y-99743095D02*
X94083485Y-99743095D01*
X94083485Y-99743095D02*
X94273961Y-99647857D01*
X94273961Y-99647857D02*
X94369200Y-99552619D01*
X94369200Y-99552619D02*
X94464438Y-99362143D01*
X94464438Y-99362143D02*
X94464438Y-99076428D01*
X94464438Y-100600238D02*
X93131104Y-100600238D01*
X93321580Y-100600238D02*
X93226342Y-100695476D01*
X93226342Y-100695476D02*
X93131104Y-100885952D01*
X93131104Y-100885952D02*
X93131104Y-101171667D01*
X93131104Y-101171667D02*
X93226342Y-101362143D01*
X93226342Y-101362143D02*
X93416819Y-101457381D01*
X93416819Y-101457381D02*
X94464438Y-101457381D01*
X93416819Y-101457381D02*
X93226342Y-101552619D01*
X93226342Y-101552619D02*
X93131104Y-101743095D01*
X93131104Y-101743095D02*
X93131104Y-102028809D01*
X93131104Y-102028809D02*
X93226342Y-102219286D01*
X93226342Y-102219286D02*
X93416819Y-102314524D01*
X93416819Y-102314524D02*
X94464438Y-102314524D01*
X94464438Y-103266905D02*
X92464438Y-103266905D01*
X94464438Y-104409762D02*
X93321580Y-103552619D01*
X92464438Y-104409762D02*
X93607295Y-103266905D01*
X94369200Y-106028810D02*
X94464438Y-105838334D01*
X94464438Y-105838334D02*
X94464438Y-105457381D01*
X94464438Y-105457381D02*
X94369200Y-105266905D01*
X94369200Y-105266905D02*
X94178723Y-105171667D01*
X94178723Y-105171667D02*
X93416819Y-105171667D01*
X93416819Y-105171667D02*
X93226342Y-105266905D01*
X93226342Y-105266905D02*
X93131104Y-105457381D01*
X93131104Y-105457381D02*
X93131104Y-105838334D01*
X93131104Y-105838334D02*
X93226342Y-106028810D01*
X93226342Y-106028810D02*
X93416819Y-106124048D01*
X93416819Y-106124048D02*
X93607295Y-106124048D01*
X93607295Y-106124048D02*
X93797771Y-105171667D01*
X94464438Y-107838334D02*
X92464438Y-107838334D01*
X94369200Y-107838334D02*
X94464438Y-107647858D01*
X94464438Y-107647858D02*
X94464438Y-107266905D01*
X94464438Y-107266905D02*
X94369200Y-107076429D01*
X94369200Y-107076429D02*
X94273961Y-106981191D01*
X94273961Y-106981191D02*
X94083485Y-106885953D01*
X94083485Y-106885953D02*
X93512057Y-106885953D01*
X93512057Y-106885953D02*
X93321580Y-106981191D01*
X93321580Y-106981191D02*
X93226342Y-107076429D01*
X93226342Y-107076429D02*
X93131104Y-107266905D01*
X93131104Y-107266905D02*
X93131104Y-107647858D01*
X93131104Y-107647858D02*
X93226342Y-107838334D01*
X94464438Y-109647858D02*
X92464438Y-109647858D01*
X94369200Y-109647858D02*
X94464438Y-109457382D01*
X94464438Y-109457382D02*
X94464438Y-109076429D01*
X94464438Y-109076429D02*
X94369200Y-108885953D01*
X94369200Y-108885953D02*
X94273961Y-108790715D01*
X94273961Y-108790715D02*
X94083485Y-108695477D01*
X94083485Y-108695477D02*
X93512057Y-108695477D01*
X93512057Y-108695477D02*
X93321580Y-108790715D01*
X93321580Y-108790715D02*
X93226342Y-108885953D01*
X93226342Y-108885953D02*
X93131104Y-109076429D01*
X93131104Y-109076429D02*
X93131104Y-109457382D01*
X93131104Y-109457382D02*
X93226342Y-109647858D01*
X94464438Y-110600239D02*
X93131104Y-110600239D01*
X92464438Y-110600239D02*
X92559676Y-110505001D01*
X92559676Y-110505001D02*
X92654914Y-110600239D01*
X92654914Y-110600239D02*
X92559676Y-110695477D01*
X92559676Y-110695477D02*
X92464438Y-110600239D01*
X92464438Y-110600239D02*
X92654914Y-110600239D01*
X94369200Y-112314525D02*
X94464438Y-112124049D01*
X94464438Y-112124049D02*
X94464438Y-111743096D01*
X94464438Y-111743096D02*
X94369200Y-111552620D01*
X94369200Y-111552620D02*
X94178723Y-111457382D01*
X94178723Y-111457382D02*
X93416819Y-111457382D01*
X93416819Y-111457382D02*
X93226342Y-111552620D01*
X93226342Y-111552620D02*
X93131104Y-111743096D01*
X93131104Y-111743096D02*
X93131104Y-112124049D01*
X93131104Y-112124049D02*
X93226342Y-112314525D01*
X93226342Y-112314525D02*
X93416819Y-112409763D01*
X93416819Y-112409763D02*
X93607295Y-112409763D01*
X93607295Y-112409763D02*
X93797771Y-111457382D01*
X97684438Y-97505000D02*
X95684438Y-97505000D01*
X95684438Y-97505000D02*
X97113009Y-98171667D01*
X97113009Y-98171667D02*
X95684438Y-98838333D01*
X95684438Y-98838333D02*
X97684438Y-98838333D01*
X97684438Y-100647857D02*
X96636819Y-100647857D01*
X96636819Y-100647857D02*
X96446342Y-100552619D01*
X96446342Y-100552619D02*
X96351104Y-100362143D01*
X96351104Y-100362143D02*
X96351104Y-99981190D01*
X96351104Y-99981190D02*
X96446342Y-99790714D01*
X97589200Y-100647857D02*
X97684438Y-100457381D01*
X97684438Y-100457381D02*
X97684438Y-99981190D01*
X97684438Y-99981190D02*
X97589200Y-99790714D01*
X97589200Y-99790714D02*
X97398723Y-99695476D01*
X97398723Y-99695476D02*
X97208247Y-99695476D01*
X97208247Y-99695476D02*
X97017771Y-99790714D01*
X97017771Y-99790714D02*
X96922533Y-99981190D01*
X96922533Y-99981190D02*
X96922533Y-100457381D01*
X96922533Y-100457381D02*
X96827295Y-100647857D01*
X97684438Y-101600238D02*
X96351104Y-101600238D01*
X96732057Y-101600238D02*
X96541580Y-101695476D01*
X96541580Y-101695476D02*
X96446342Y-101790714D01*
X96446342Y-101790714D02*
X96351104Y-101981190D01*
X96351104Y-101981190D02*
X96351104Y-102171667D01*
X95874914Y-102743095D02*
X95779676Y-102838333D01*
X95779676Y-102838333D02*
X95684438Y-103028809D01*
X95684438Y-103028809D02*
X95684438Y-103505000D01*
X95684438Y-103505000D02*
X95779676Y-103695476D01*
X95779676Y-103695476D02*
X95874914Y-103790714D01*
X95874914Y-103790714D02*
X96065390Y-103885952D01*
X96065390Y-103885952D02*
X96255866Y-103885952D01*
X96255866Y-103885952D02*
X96541580Y-103790714D01*
X96541580Y-103790714D02*
X97684438Y-102647857D01*
X97684438Y-102647857D02*
X97684438Y-103885952D01*
X95684438Y-105124047D02*
X95684438Y-105314524D01*
X95684438Y-105314524D02*
X95779676Y-105505000D01*
X95779676Y-105505000D02*
X95874914Y-105600238D01*
X95874914Y-105600238D02*
X96065390Y-105695476D01*
X96065390Y-105695476D02*
X96446342Y-105790714D01*
X96446342Y-105790714D02*
X96922533Y-105790714D01*
X96922533Y-105790714D02*
X97303485Y-105695476D01*
X97303485Y-105695476D02*
X97493961Y-105600238D01*
X97493961Y-105600238D02*
X97589200Y-105505000D01*
X97589200Y-105505000D02*
X97684438Y-105314524D01*
X97684438Y-105314524D02*
X97684438Y-105124047D01*
X97684438Y-105124047D02*
X97589200Y-104933571D01*
X97589200Y-104933571D02*
X97493961Y-104838333D01*
X97493961Y-104838333D02*
X97303485Y-104743095D01*
X97303485Y-104743095D02*
X96922533Y-104647857D01*
X96922533Y-104647857D02*
X96446342Y-104647857D01*
X96446342Y-104647857D02*
X96065390Y-104743095D01*
X96065390Y-104743095D02*
X95874914Y-104838333D01*
X95874914Y-104838333D02*
X95779676Y-104933571D01*
X95779676Y-104933571D02*
X95684438Y-105124047D01*
X95874914Y-106552619D02*
X95779676Y-106647857D01*
X95779676Y-106647857D02*
X95684438Y-106838333D01*
X95684438Y-106838333D02*
X95684438Y-107314524D01*
X95684438Y-107314524D02*
X95779676Y-107505000D01*
X95779676Y-107505000D02*
X95874914Y-107600238D01*
X95874914Y-107600238D02*
X96065390Y-107695476D01*
X96065390Y-107695476D02*
X96255866Y-107695476D01*
X96255866Y-107695476D02*
X96541580Y-107600238D01*
X96541580Y-107600238D02*
X97684438Y-106457381D01*
X97684438Y-106457381D02*
X97684438Y-107695476D01*
X96351104Y-109409762D02*
X97684438Y-109409762D01*
X95589200Y-108933571D02*
X97017771Y-108457381D01*
X97017771Y-108457381D02*
X97017771Y-109695476D01*
X100904438Y-97219285D02*
X99571104Y-97219285D01*
X99761580Y-97219285D02*
X99666342Y-97314523D01*
X99666342Y-97314523D02*
X99571104Y-97504999D01*
X99571104Y-97504999D02*
X99571104Y-97790714D01*
X99571104Y-97790714D02*
X99666342Y-97981190D01*
X99666342Y-97981190D02*
X99856819Y-98076428D01*
X99856819Y-98076428D02*
X100904438Y-98076428D01*
X99856819Y-98076428D02*
X99666342Y-98171666D01*
X99666342Y-98171666D02*
X99571104Y-98362142D01*
X99571104Y-98362142D02*
X99571104Y-98647856D01*
X99571104Y-98647856D02*
X99666342Y-98838333D01*
X99666342Y-98838333D02*
X99856819Y-98933571D01*
X99856819Y-98933571D02*
X100904438Y-98933571D01*
X100904438Y-99885952D02*
X99571104Y-99885952D01*
X98904438Y-99885952D02*
X98999676Y-99790714D01*
X98999676Y-99790714D02*
X99094914Y-99885952D01*
X99094914Y-99885952D02*
X98999676Y-99981190D01*
X98999676Y-99981190D02*
X98904438Y-99885952D01*
X98904438Y-99885952D02*
X99094914Y-99885952D01*
X100904438Y-100838333D02*
X98904438Y-100838333D01*
X100142533Y-101028809D02*
X100904438Y-101600238D01*
X99571104Y-101600238D02*
X100333009Y-100838333D01*
X100904438Y-102457381D02*
X99571104Y-102457381D01*
X99952057Y-102457381D02*
X99761580Y-102552619D01*
X99761580Y-102552619D02*
X99666342Y-102647857D01*
X99666342Y-102647857D02*
X99571104Y-102838333D01*
X99571104Y-102838333D02*
X99571104Y-103028810D01*
X100904438Y-103981190D02*
X100809200Y-103790714D01*
X100809200Y-103790714D02*
X100713961Y-103695476D01*
X100713961Y-103695476D02*
X100523485Y-103600238D01*
X100523485Y-103600238D02*
X99952057Y-103600238D01*
X99952057Y-103600238D02*
X99761580Y-103695476D01*
X99761580Y-103695476D02*
X99666342Y-103790714D01*
X99666342Y-103790714D02*
X99571104Y-103981190D01*
X99571104Y-103981190D02*
X99571104Y-104266905D01*
X99571104Y-104266905D02*
X99666342Y-104457381D01*
X99666342Y-104457381D02*
X99761580Y-104552619D01*
X99761580Y-104552619D02*
X99952057Y-104647857D01*
X99952057Y-104647857D02*
X100523485Y-104647857D01*
X100523485Y-104647857D02*
X100713961Y-104552619D01*
X100713961Y-104552619D02*
X100809200Y-104457381D01*
X100809200Y-104457381D02*
X100904438Y-104266905D01*
X100904438Y-104266905D02*
X100904438Y-103981190D01*
X100904438Y-105505000D02*
X98904438Y-105505000D01*
X99666342Y-105505000D02*
X99571104Y-105695476D01*
X99571104Y-105695476D02*
X99571104Y-106076429D01*
X99571104Y-106076429D02*
X99666342Y-106266905D01*
X99666342Y-106266905D02*
X99761580Y-106362143D01*
X99761580Y-106362143D02*
X99952057Y-106457381D01*
X99952057Y-106457381D02*
X100523485Y-106457381D01*
X100523485Y-106457381D02*
X100713961Y-106362143D01*
X100713961Y-106362143D02*
X100809200Y-106266905D01*
X100809200Y-106266905D02*
X100904438Y-106076429D01*
X100904438Y-106076429D02*
X100904438Y-105695476D01*
X100904438Y-105695476D02*
X100809200Y-105505000D01*
X99571104Y-108171667D02*
X100904438Y-108171667D01*
X99571104Y-107314524D02*
X100618723Y-107314524D01*
X100618723Y-107314524D02*
X100809200Y-107409762D01*
X100809200Y-107409762D02*
X100904438Y-107600238D01*
X100904438Y-107600238D02*
X100904438Y-107885953D01*
X100904438Y-107885953D02*
X100809200Y-108076429D01*
X100809200Y-108076429D02*
X100713961Y-108171667D01*
X100809200Y-109028810D02*
X100904438Y-109219286D01*
X100904438Y-109219286D02*
X100904438Y-109600238D01*
X100904438Y-109600238D02*
X100809200Y-109790715D01*
X100809200Y-109790715D02*
X100618723Y-109885953D01*
X100618723Y-109885953D02*
X100523485Y-109885953D01*
X100523485Y-109885953D02*
X100333009Y-109790715D01*
X100333009Y-109790715D02*
X100237771Y-109600238D01*
X100237771Y-109600238D02*
X100237771Y-109314524D01*
X100237771Y-109314524D02*
X100142533Y-109124048D01*
X100142533Y-109124048D02*
X99952057Y-109028810D01*
X99952057Y-109028810D02*
X99856819Y-109028810D01*
X99856819Y-109028810D02*
X99666342Y-109124048D01*
X99666342Y-109124048D02*
X99571104Y-109314524D01*
X99571104Y-109314524D02*
X99571104Y-109600238D01*
X99571104Y-109600238D02*
X99666342Y-109790715D01*
X102791104Y-99933571D02*
X104791104Y-99933571D01*
X102886342Y-99933571D02*
X102791104Y-100124047D01*
X102791104Y-100124047D02*
X102791104Y-100505000D01*
X102791104Y-100505000D02*
X102886342Y-100695476D01*
X102886342Y-100695476D02*
X102981580Y-100790714D01*
X102981580Y-100790714D02*
X103172057Y-100885952D01*
X103172057Y-100885952D02*
X103743485Y-100885952D01*
X103743485Y-100885952D02*
X103933961Y-100790714D01*
X103933961Y-100790714D02*
X104029200Y-100695476D01*
X104029200Y-100695476D02*
X104124438Y-100505000D01*
X104124438Y-100505000D02*
X104124438Y-100124047D01*
X104124438Y-100124047D02*
X104029200Y-99933571D01*
X104124438Y-101743095D02*
X102791104Y-101743095D01*
X102981580Y-101743095D02*
X102886342Y-101838333D01*
X102886342Y-101838333D02*
X102791104Y-102028809D01*
X102791104Y-102028809D02*
X102791104Y-102314524D01*
X102791104Y-102314524D02*
X102886342Y-102505000D01*
X102886342Y-102505000D02*
X103076819Y-102600238D01*
X103076819Y-102600238D02*
X104124438Y-102600238D01*
X103076819Y-102600238D02*
X102886342Y-102695476D01*
X102886342Y-102695476D02*
X102791104Y-102885952D01*
X102791104Y-102885952D02*
X102791104Y-103171666D01*
X102791104Y-103171666D02*
X102886342Y-103362143D01*
X102886342Y-103362143D02*
X103076819Y-103457381D01*
X103076819Y-103457381D02*
X104124438Y-103457381D01*
X104124438Y-104695476D02*
X104029200Y-104505000D01*
X104029200Y-104505000D02*
X103933961Y-104409762D01*
X103933961Y-104409762D02*
X103743485Y-104314524D01*
X103743485Y-104314524D02*
X103172057Y-104314524D01*
X103172057Y-104314524D02*
X102981580Y-104409762D01*
X102981580Y-104409762D02*
X102886342Y-104505000D01*
X102886342Y-104505000D02*
X102791104Y-104695476D01*
X102791104Y-104695476D02*
X102791104Y-104981191D01*
X102791104Y-104981191D02*
X102886342Y-105171667D01*
X102886342Y-105171667D02*
X102981580Y-105266905D01*
X102981580Y-105266905D02*
X103172057Y-105362143D01*
X103172057Y-105362143D02*
X103743485Y-105362143D01*
X103743485Y-105362143D02*
X103933961Y-105266905D01*
X103933961Y-105266905D02*
X104029200Y-105171667D01*
X104029200Y-105171667D02*
X104124438Y-104981191D01*
X104124438Y-104981191D02*
X104124438Y-104695476D01*
X104124438Y-107076429D02*
X102124438Y-107076429D01*
X104029200Y-107076429D02*
X104124438Y-106885953D01*
X104124438Y-106885953D02*
X104124438Y-106505000D01*
X104124438Y-106505000D02*
X104029200Y-106314524D01*
X104029200Y-106314524D02*
X103933961Y-106219286D01*
X103933961Y-106219286D02*
X103743485Y-106124048D01*
X103743485Y-106124048D02*
X103172057Y-106124048D01*
X103172057Y-106124048D02*
X102981580Y-106219286D01*
X102981580Y-106219286D02*
X102886342Y-106314524D01*
X102886342Y-106314524D02*
X102791104Y-106505000D01*
X102791104Y-106505000D02*
X102791104Y-106885953D01*
X102791104Y-106885953D02*
X102886342Y-107076429D01*
X107344438Y-100647857D02*
X106296819Y-100647857D01*
X106296819Y-100647857D02*
X106106342Y-100552619D01*
X106106342Y-100552619D02*
X106011104Y-100362143D01*
X106011104Y-100362143D02*
X106011104Y-99981190D01*
X106011104Y-99981190D02*
X106106342Y-99790714D01*
X107249200Y-100647857D02*
X107344438Y-100457381D01*
X107344438Y-100457381D02*
X107344438Y-99981190D01*
X107344438Y-99981190D02*
X107249200Y-99790714D01*
X107249200Y-99790714D02*
X107058723Y-99695476D01*
X107058723Y-99695476D02*
X106868247Y-99695476D01*
X106868247Y-99695476D02*
X106677771Y-99790714D01*
X106677771Y-99790714D02*
X106582533Y-99981190D01*
X106582533Y-99981190D02*
X106582533Y-100457381D01*
X106582533Y-100457381D02*
X106487295Y-100647857D01*
X107344438Y-102457381D02*
X105344438Y-102457381D01*
X107249200Y-102457381D02*
X107344438Y-102266905D01*
X107344438Y-102266905D02*
X107344438Y-101885952D01*
X107344438Y-101885952D02*
X107249200Y-101695476D01*
X107249200Y-101695476D02*
X107153961Y-101600238D01*
X107153961Y-101600238D02*
X106963485Y-101505000D01*
X106963485Y-101505000D02*
X106392057Y-101505000D01*
X106392057Y-101505000D02*
X106201580Y-101600238D01*
X106201580Y-101600238D02*
X106106342Y-101695476D01*
X106106342Y-101695476D02*
X106011104Y-101885952D01*
X106011104Y-101885952D02*
X106011104Y-102266905D01*
X106011104Y-102266905D02*
X106106342Y-102457381D01*
X107344438Y-104266905D02*
X106296819Y-104266905D01*
X106296819Y-104266905D02*
X106106342Y-104171667D01*
X106106342Y-104171667D02*
X106011104Y-103981191D01*
X106011104Y-103981191D02*
X106011104Y-103600238D01*
X106011104Y-103600238D02*
X106106342Y-103409762D01*
X107249200Y-104266905D02*
X107344438Y-104076429D01*
X107344438Y-104076429D02*
X107344438Y-103600238D01*
X107344438Y-103600238D02*
X107249200Y-103409762D01*
X107249200Y-103409762D02*
X107058723Y-103314524D01*
X107058723Y-103314524D02*
X106868247Y-103314524D01*
X106868247Y-103314524D02*
X106677771Y-103409762D01*
X106677771Y-103409762D02*
X106582533Y-103600238D01*
X106582533Y-103600238D02*
X106582533Y-104076429D01*
X106582533Y-104076429D02*
X106487295Y-104266905D01*
X106011104Y-105219286D02*
X108011104Y-105219286D01*
X106106342Y-105219286D02*
X106011104Y-105409762D01*
X106011104Y-105409762D02*
X106011104Y-105790715D01*
X106011104Y-105790715D02*
X106106342Y-105981191D01*
X106106342Y-105981191D02*
X106201580Y-106076429D01*
X106201580Y-106076429D02*
X106392057Y-106171667D01*
X106392057Y-106171667D02*
X106963485Y-106171667D01*
X106963485Y-106171667D02*
X107153961Y-106076429D01*
X107153961Y-106076429D02*
X107249200Y-105981191D01*
X107249200Y-105981191D02*
X107344438Y-105790715D01*
X107344438Y-105790715D02*
X107344438Y-105409762D01*
X107344438Y-105409762D02*
X107249200Y-105219286D01*
X106011104Y-106743096D02*
X106011104Y-107505000D01*
X105344438Y-107028810D02*
X107058723Y-107028810D01*
X107058723Y-107028810D02*
X107249200Y-107124048D01*
X107249200Y-107124048D02*
X107344438Y-107314524D01*
X107344438Y-107314524D02*
X107344438Y-107505000D01*
D11*
X100166666Y-114034819D02*
X100499999Y-113558628D01*
X100738094Y-114034819D02*
X100738094Y-113034819D01*
X100738094Y-113034819D02*
X100357142Y-113034819D01*
X100357142Y-113034819D02*
X100261904Y-113082438D01*
X100261904Y-113082438D02*
X100214285Y-113130057D01*
X100214285Y-113130057D02*
X100166666Y-113225295D01*
X100166666Y-113225295D02*
X100166666Y-113368152D01*
X100166666Y-113368152D02*
X100214285Y-113463390D01*
X100214285Y-113463390D02*
X100261904Y-113511009D01*
X100261904Y-113511009D02*
X100357142Y-113558628D01*
X100357142Y-113558628D02*
X100738094Y-113558628D01*
X99214285Y-114034819D02*
X99785713Y-114034819D01*
X99499999Y-114034819D02*
X99499999Y-113034819D01*
X99499999Y-113034819D02*
X99595237Y-113177676D01*
X99595237Y-113177676D02*
X99690475Y-113272914D01*
X99690475Y-113272914D02*
X99785713Y-113320533D01*
D12*
G04 #@! TO.C,R1*
X99397936Y-110850000D02*
X100602064Y-110850000D01*
X99397936Y-112670000D02*
X100602064Y-112670000D01*
G04 #@! TD*
M02*
