G04*
G04 #@! TF.GenerationSoftware,Altium Limited,Altium Designer,20.1.11 (218)*
G04*
G04 Layer_Color=32768*
%FSLAX44Y44*%
%MOMM*%
G71*
G04*
G04 #@! TF.SameCoordinates,F64D855A-75B5-494C-AA47-8135A0461B61*
G04*
G04*
G04 #@! TF.FilePolarity,Positive*
G04*
G01*
G75*
%ADD17C,0.2032*%
D17*
X883920Y591820D02*
X885190Y590550D01*
X877012Y595334D02*
X875742Y596604D01*
X874472Y597874D02*
X875742Y596604D01*
X874472Y597874D02*
X874370Y598332D01*
X874370D02*
X874065Y598687D01*
X873557Y598941D01*
X871932Y599144D01*
X871017Y599195D02*
X871932Y599144D01*
X870306Y599347D02*
X871017Y599195D01*
X869798Y599602D02*
X870306Y599347D01*
X869392Y600414D02*
X869798Y599601D01*
X869392Y600414D02*
X869290Y600872D01*
X869290D02*
X868985Y601227D01*
X868477Y601481D01*
X866852Y601684D01*
X865937Y601735D02*
X866852Y601684D01*
X865226Y601888D02*
X865937Y601735D01*
X864718Y602141D02*
X865226Y601888D01*
X864312Y602954D02*
X864718Y602141D01*
X864312Y602954D02*
X864210Y603412D01*
X864210D02*
X863905Y603767D01*
X863397Y604021D01*
X861772Y604224D01*
X860857Y604275D02*
X861772Y604224D01*
X860146Y604427D02*
X860857Y604275D01*
X859638Y604682D02*
X860146Y604427D01*
X859232Y605494D02*
X859638Y604681D01*
X859232Y605494D02*
X859130Y605952D01*
X859130D02*
X858825Y606307D01*
X858317Y606561D01*
X856692Y606764D01*
X855777Y606815D02*
X856692Y606764D01*
X855066Y606968D02*
X855777Y606815D01*
X854558Y607221D02*
X855066Y606968D01*
X854152Y608034D02*
X854558Y607221D01*
X854152Y608034D02*
X854058Y608470D01*
X853786Y608823D01*
X853786Y608823D02*
X853349Y609085D01*
X853349D02*
X852035Y609304D01*
X851309Y609361D02*
X852035Y609304D01*
X850721Y609524D02*
X851309Y609361D01*
X850284Y609786D02*
X850721Y609524D01*
X849918Y610574D02*
X850284Y609786D01*
X849918Y610574D02*
X849817Y611032D01*
X849817D02*
X849512Y611387D01*
X849512D02*
X849004Y611641D01*
X847378Y611844D01*
X846464Y611895D02*
X847378Y611844D01*
X845753Y612048D02*
X846464Y611895D01*
X845245Y612301D02*
X845753Y612048D01*
X844838Y613114D02*
X845245Y612301D01*
X844838Y613114D02*
X844737Y613572D01*
X844737D02*
X844432Y613927D01*
X844432D02*
X843924Y614181D01*
X842298Y614384D01*
X841498Y614428D02*
X842298Y614384D01*
X840801Y614548D02*
X841498Y614428D01*
X840250Y614732D02*
X840801Y614548D01*
X839758Y615231D02*
X840250Y614732D01*
X839758Y615231D02*
X839563Y615498D01*
X839563Y615498D02*
X839021Y615731D01*
X839021D02*
X838195Y615914D01*
X835948Y616078D01*
X834468Y616120D02*
X835948Y616078D01*
X833388Y616254D02*
X834468Y616120D01*
X832667Y616495D02*
X833388Y616254D01*
X832138Y617348D02*
X832667Y616495D01*
X832138Y617348D02*
X832013Y617842D01*
X832013D02*
X831610Y618202D01*
X830889Y618442D01*
X828328Y618618D01*
X826848Y618660D02*
X828328Y618618D01*
X825768Y618794D02*
X826848Y618660D01*
X825047Y619035D02*
X825768Y618794D01*
X824518Y619888D02*
X825047Y619035D01*
X824518Y619888D02*
X824393Y620382D01*
X824393D02*
X823990Y620742D01*
X823269Y620982D01*
X820708Y621158D01*
X819228Y621200D02*
X820708Y621158D01*
X818148Y621334D02*
X819228Y621200D01*
X817427Y621575D02*
X818148Y621334D01*
X816898Y622428D02*
X817427Y621575D01*
X816898Y622428D02*
X816773Y622922D01*
X816773D02*
X816370Y623282D01*
X815649Y623522D01*
X813088Y623698D01*
X811608Y623740D02*
X813088Y623698D01*
X810528Y623874D02*
X811608Y623740D01*
X809807Y624115D02*
X810528Y623874D01*
X809278Y624968D02*
X809807Y624115D01*
X809278Y624968D02*
X809153Y625462D01*
X809153D02*
X808750Y625822D01*
X808029Y626062D01*
X805468Y626238D01*
X803988Y626280D02*
X805468Y626238D01*
X802908Y626414D02*
X803988Y626280D01*
X802187Y626655D02*
X802908Y626414D01*
X801658Y627508D02*
X802187Y626655D01*
X801658Y627508D02*
X801517Y628015D01*
X801049Y628377D01*
X800185Y628612D01*
Y628612D02*
X797002Y628778D01*
X795145Y628817D02*
X797002Y628778D01*
X793818Y628945D02*
X795145Y628817D01*
X792955Y629180D02*
X793818Y628945D01*
X792345Y630048D02*
X792955Y629180D01*
X792345Y630048D02*
X792196Y630560D01*
X792196Y630560D02*
X791695Y630922D01*
X791695D02*
X790760Y631156D01*
Y631156D02*
X787265Y631318D01*
X785219Y631356D02*
X787265Y631318D01*
X783770Y631481D02*
X785219Y631356D01*
X782835Y631715D02*
X783770Y631481D01*
X782185Y632588D02*
X782835Y631715D01*
X782185Y632588D02*
X782012Y633111D01*
X782012Y633111D02*
X781413Y633474D01*
Y633474D02*
X780265Y633704D01*
X778052Y633839D01*
X775835Y633858D01*
X773224Y633893D02*
X775835Y633858D01*
X771405Y634013D02*
X773224Y633893D01*
X770257Y634242D02*
X771405Y634013D01*
X769485Y635128D02*
X770257Y634242D01*
X769485Y635128D02*
X769312Y635651D01*
X769312Y635651D02*
X768713Y636014D01*
Y636014D02*
X767565Y636244D01*
X765352Y636379D01*
X763135Y636398D01*
X760524Y636433D02*
X763135Y636398D01*
X758705Y636553D02*
X760524Y636433D01*
X757557Y636782D02*
X758705Y636553D01*
X756785Y637668D02*
X757557Y636782D01*
X756785Y637668D02*
X756596Y638196D01*
Y638196D02*
X755931Y638560D01*
X754641Y638788D01*
X754641Y638788D02*
X752116Y638921D01*
X749588Y638938D01*
X746600Y638972D02*
X749588Y638938D01*
X744535Y639089D02*
X746600Y638972D01*
X743245Y639317D02*
X744535Y639089D01*
X742392Y640208D02*
X743245Y639317D01*
X742392Y640208D02*
X742148Y640747D01*
X741254Y641113D01*
Y641113D02*
X739465Y641336D01*
X739466D02*
X737055Y641433D01*
X734644Y641481D01*
X732232Y641478D01*
X727924Y641509D02*
X730078Y641484D01*
X732232Y641478D01*
X724998Y641621D02*
X727924Y641509D01*
X723210Y641844D02*
X724998Y641621D01*
X722072Y642748D02*
X723210Y641844D01*
X722072Y642748D02*
X721923Y643260D01*
X721421Y643622D01*
X720487Y643856D01*
X716992Y644018D01*
X711937Y694586D02*
X711928Y692014D01*
X711921Y689441D01*
X711916Y686869D01*
X711913Y684297D01*
X711911Y681725D01*
X711912Y679156D01*
X712256Y710756D02*
X712114Y707765D01*
X712039Y704772D01*
X713182Y714292D02*
X712233Y712651D01*
X712256Y710756D01*
X713182Y714292D02*
X714452Y715562D01*
X715722Y716832D02*
X714452Y715562D01*
X715722Y716832D02*
X716992Y718102D01*
X717093Y718559D02*
X716992Y718102D01*
X717398Y718915D02*
X717093Y718559D01*
X717906Y719169D02*
X717398Y718915D01*
X719532Y719372D02*
X717906Y719169D01*
X719532Y719372D02*
X720446Y719423D01*
Y719423D02*
X721157Y719575D01*
Y719575D02*
X721665Y719829D01*
X722072Y720642D01*
X723342Y721912D02*
X722072Y720642D01*
X723342Y721912D02*
X724090Y722076D01*
X724090Y722076D02*
X724366Y722259D01*
X724366D02*
X724612Y722759D01*
X724677Y723026D02*
X724612Y722759D01*
X724857Y723258D02*
X724677Y723026D01*
X725133Y723442D02*
X724857Y723258D01*
X725882Y723606D02*
X725133Y723442D01*
X725882Y723606D02*
X727152Y724876D01*
X728422Y726146D02*
X727152Y724876D01*
X728422Y726146D02*
X729692Y727416D01*
X730962Y728686D02*
X729692Y727416D01*
X730962Y728686D02*
X732232Y729956D01*
X733502Y731226D02*
X732232Y729956D01*
X733502Y731226D02*
X734772Y732496D01*
X736042Y733766D02*
X734772Y732496D01*
X736042Y733766D02*
X737312Y735036D01*
X738582Y736306D02*
X737312Y735036D01*
X738582Y736306D02*
X739852Y737576D01*
X741122Y738846D02*
X739852Y737576D01*
X741122Y738846D02*
X741579Y738947D01*
X741934Y739252D01*
X741934D02*
X742188Y739760D01*
X742188D02*
X742392Y741386D01*
X742442Y742300D02*
X742392Y741386D01*
X742595Y743011D02*
X742442Y742300D01*
X742849Y743519D02*
X742595Y743011D01*
X743662Y743926D02*
X742849Y743519D01*
X743662Y743926D02*
X744932Y745196D01*
X745096Y745944D02*
X744932Y745196D01*
X745279Y746220D02*
X745096Y745944D01*
X745778Y746466D02*
X745279Y746220D01*
X745778Y746466D02*
X746045Y746531D01*
X746045Y746531D02*
X746278Y746712D01*
Y746712D02*
X746461Y746987D01*
X746461D02*
X746625Y747736D01*
X747895Y749006D02*
X746625Y747736D01*
X747895Y749006D02*
X749165Y750276D01*
X750435Y751546D02*
X749165Y750276D01*
X750435Y751546D02*
X750892Y751647D01*
X751248Y751952D01*
X751502Y752460D01*
X751502D02*
X751705Y754086D01*
X751756Y755000D02*
X751705Y754086D01*
X751908Y755711D02*
X751756Y755000D01*
X752162Y756219D02*
X751908Y755711D01*
X752975Y756626D02*
X752162Y756219D01*
X752975Y756626D02*
X754245Y757896D01*
X755515Y759166D02*
X754245Y757896D01*
X755515Y759166D02*
X756785Y760436D01*
X758055Y761706D02*
X756785Y760436D01*
X758055Y761706D02*
X758512Y761807D01*
X758868Y762112D01*
X759122Y762620D01*
X759122D02*
X759325Y764246D01*
X759376Y765160D02*
X759325Y764246D01*
X759528Y765871D02*
X759376Y765160D01*
X759782Y766379D02*
X759528Y765871D01*
X760595Y766786D02*
X759782Y766379D01*
X760595Y766786D02*
X761865Y768056D01*
X763135Y769326D02*
X761865Y768056D01*
X763135Y769326D02*
X763592Y769427D01*
X763948Y769732D01*
X764202Y770240D01*
X764202D02*
X764405Y771866D01*
X764456Y772780D02*
X764405Y771866D01*
X764608Y773491D02*
X764456Y772780D01*
X764862Y773999D02*
X764608Y773491D01*
X765675Y774406D02*
X764862Y773999D01*
X765675Y774406D02*
X766424Y774570D01*
X766424Y774570D02*
X766699Y774753D01*
X766699D02*
X766945Y775253D01*
X767010Y775520D02*
X766945Y775253D01*
X767191Y775752D02*
X767010Y775520D01*
X767466Y775936D02*
X767191Y775752D01*
X768215Y776100D02*
X767466Y775936D01*
X768215Y776100D02*
X768672Y776201D01*
Y776201D02*
X769028Y776506D01*
X769282Y777014D01*
X769282D02*
X769485Y778640D01*
X769536Y779554D02*
X769485Y778640D01*
X769688Y780265D02*
X769536Y779554D01*
X769942Y780773D02*
X769688Y780265D01*
X770755Y781180D02*
X769942Y780773D01*
X770755Y781180D02*
X771212Y781281D01*
Y781281D02*
X771568Y781586D01*
X771822Y782094D01*
X771822D02*
X772025Y783720D01*
X772076Y784634D02*
X772025Y783720D01*
X772228Y785345D02*
X772076Y784634D01*
X772482Y785853D02*
X772228Y785345D01*
X773295Y786260D02*
X772482Y785853D01*
X773295Y786260D02*
X773752Y786361D01*
Y786361D02*
X774108Y786666D01*
X774362Y787174D01*
X774362D02*
X774565Y788800D01*
X774616Y789714D02*
X774565Y788800D01*
X774768Y790425D02*
X774616Y789714D01*
X775022Y790933D02*
X774768Y790425D01*
X775835Y791340D02*
X775022Y790933D01*
X775835Y791340D02*
X776292Y791441D01*
Y791441D02*
X776648Y791746D01*
X776902Y792254D01*
X776902D02*
X777105Y793880D01*
X777156Y794794D02*
X777105Y793880D01*
X777308Y795505D02*
X777156Y794794D01*
X777562Y796013D02*
X777308Y795505D01*
X778375Y796420D02*
X777562Y796013D01*
X778375Y796420D02*
X778832Y796521D01*
Y796521D02*
X779188Y796826D01*
X779442Y797334D01*
X779442D02*
X779645Y798960D01*
X779696Y799874D02*
X779645Y798960D01*
X779848Y800585D02*
X779696Y799874D01*
X780102Y801093D02*
X779848Y800585D01*
X780915Y801500D02*
X780102Y801093D01*
X780915Y801500D02*
X781372Y801601D01*
Y801601D02*
X781728Y801906D01*
X781982Y802414D01*
X781982D02*
X782185Y804040D01*
X782236Y804954D02*
X782185Y804040D01*
X782388Y805665D02*
X782236Y804954D01*
X782642Y806173D02*
X782388Y805665D01*
X783455Y806580D02*
X782642Y806173D01*
X783455Y806580D02*
X783912Y806681D01*
Y806681D02*
X784268Y806986D01*
X784522Y807494D01*
X784522D02*
X784725Y809120D01*
X784776Y810034D02*
X784725Y809120D01*
X784928Y810745D02*
X784776Y810034D01*
X785182Y811253D02*
X784928Y810745D01*
X785995Y811660D02*
X785182Y811253D01*
X785995Y811660D02*
X786488Y811785D01*
X786848Y812188D01*
X787089Y812909D01*
X787089Y812909D02*
X787265Y815470D01*
X787307Y816950D02*
X787265Y815470D01*
X787441Y818030D02*
X787307Y816950D01*
X787682Y818751D02*
X787441Y818030D01*
X788535Y819280D02*
X787682Y818751D01*
X788535Y819280D02*
X789805Y820550D01*
X789930Y821043D02*
X789805Y820550D01*
X790333Y821403D02*
X789930Y821043D01*
X791055Y821644D02*
X790333Y821403D01*
X793615Y821820D02*
X791055Y821644D01*
X793615Y821820D02*
X795095Y821861D01*
Y821862D02*
X796175Y821996D01*
X796897Y822236D01*
X797425Y823090D01*
X797519Y823525D02*
X797425Y823090D01*
X797791Y823878D02*
X797519Y823525D01*
X798228Y824140D02*
X797791Y823878D01*
X799542Y824360D02*
X798228Y824140D01*
X799542Y824360D02*
X800267Y824416D01*
X800267D02*
X800855Y824579D01*
X801292Y824842D01*
X801658Y825630D01*
X802928Y826900D02*
X801658Y825630D01*
X802928Y826900D02*
X803677Y827064D01*
X803952Y827247D01*
Y827247D02*
X804198Y827747D01*
X804263Y828013D02*
X804198Y827747D01*
X804444Y828246D02*
X804263Y828014D01*
X804719Y828429D02*
X804444Y828246D01*
X805468Y828593D02*
X804719Y828429D01*
X805468Y828593D02*
X806738Y829863D01*
X808008Y831133D02*
X806738Y829863D01*
X808008Y831133D02*
X809278Y832403D01*
X810548Y833673D02*
X809278Y832403D01*
X810548Y833673D02*
X811818Y834943D01*
X813088Y836213D02*
X811818Y834943D01*
X813088Y836213D02*
X813546Y836315D01*
X813546Y836315D02*
X813901Y836620D01*
Y836620D02*
X814155Y837128D01*
Y837128D02*
X814358Y838753D01*
X814409Y839668D02*
X814358Y838753D01*
X814561Y840379D02*
X814409Y839668D01*
X814815Y840887D02*
X814561Y840379D01*
X815628Y841293D02*
X814815Y840887D01*
X815628Y841293D02*
X816086Y841395D01*
X816086Y841395D02*
X816441Y841700D01*
Y841700D02*
X816695Y842208D01*
X816898Y843833D01*
X816949Y844748D02*
X816898Y843833D01*
X817101Y845459D02*
X816949Y844748D01*
X817355Y845967D02*
X817101Y845459D01*
X818168Y846373D02*
X817355Y845967D01*
X818168Y846373D02*
X818626Y846475D01*
X818626Y846475D02*
X818981Y846780D01*
X818981D02*
X819235Y847288D01*
X819235Y847288D02*
X819438Y848913D01*
X819489Y849828D02*
X819438Y848913D01*
X819641Y850539D02*
X819489Y849828D01*
X819895Y851047D02*
X819641Y850539D01*
X820708Y851453D02*
X819895Y851047D01*
X820708Y851453D02*
X821202Y851579D01*
X821202Y851579D02*
X821562Y851982D01*
X821562Y851982D02*
X821802Y852703D01*
X821978Y855263D01*
X822020Y856743D02*
X821978Y855263D01*
X822154Y857824D02*
X822020Y856743D01*
X822395Y858545D02*
X822154Y857824D01*
X823248Y859073D02*
X822395Y858545D01*
X823248Y859073D02*
X823794Y859380D01*
X824160Y860536D01*
X824160D02*
X824381Y862893D01*
X824381Y862893D02*
X824457Y865324D01*
X824505Y867756D01*
X824526Y870188D01*
X824518Y872620D01*
X824547Y878436D02*
X824523Y875528D01*
X824518Y872620D01*
X824656Y882346D02*
X824583Y880392D01*
X824547Y878436D01*
X824876Y884704D02*
X824656Y882346D01*
X825788Y886167D02*
X824876Y884704D01*
X825788Y886167D02*
X827058Y887437D01*
X828328Y888707D02*
X827058Y887437D01*
X828328Y888707D02*
X829598Y889977D01*
X830868Y891247D02*
X829598Y889977D01*
X830868Y891247D02*
X832138Y892517D01*
X833408Y893787D02*
X832138Y892517D01*
X833408Y893787D02*
X834678Y895057D01*
X835948Y896327D02*
X834678Y895057D01*
X835948Y896327D02*
X837218Y897597D01*
X838488Y898867D02*
X837218Y897597D01*
X838488Y898867D02*
X839758Y900137D01*
X841028Y901407D02*
X839758Y900137D01*
X841028Y901407D02*
X842298Y902677D01*
X843568Y903947D02*
X842298Y902677D01*
X843568Y903947D02*
X844838Y905217D01*
X846108Y906487D02*
X844838Y905217D01*
X846108Y906487D02*
X846566Y906588D01*
X846566Y906588D02*
X846921Y906893D01*
Y906893D02*
X847175Y907401D01*
Y907401D02*
X847378Y909027D01*
X847429Y909941D02*
X847378Y909027D01*
X847581Y910652D02*
X847429Y909941D01*
X847835Y911160D02*
X847581Y910652D01*
X848648Y911567D02*
X847835Y911160D01*
X848648Y911567D02*
X849918Y912837D01*
X851188Y914107D02*
X849918Y912837D01*
X851188Y914107D02*
X851646Y914208D01*
X851646Y914208D02*
X852001Y914513D01*
Y914513D02*
X852255Y915021D01*
Y915021D02*
X852458Y916647D01*
X852502Y917447D02*
X852458Y916647D01*
X852622Y918144D02*
X852502Y917447D01*
X852806Y918695D02*
X852622Y918144D01*
X853305Y919187D02*
X852806Y918695D01*
X853305Y919187D02*
X853572Y919252D01*
X853805Y919433D01*
X853805D02*
X853988Y919708D01*
X853988D02*
X854152Y920457D01*
X853988Y921205D01*
X853988Y921205D02*
X853805Y921481D01*
Y921481D02*
X853305Y921727D01*
X853038Y921792D02*
X853305Y921727D01*
X852806Y921973D02*
X853038Y921792D01*
X852622Y922248D02*
X852806Y921973D01*
X852458Y922997D02*
X852622Y922248D01*
X852458Y922997D02*
X851188Y924267D01*
X849918Y925537D02*
X851188Y924267D01*
X849918Y925537D02*
X849817Y925994D01*
X849817D02*
X849512Y926349D01*
X849512Y926349D02*
X849004Y926603D01*
X847378Y926807D01*
X846464Y926857D02*
X847378Y926807D01*
X845753Y927010D02*
X846464Y926857D01*
X845245Y927264D02*
X845753Y927010D01*
X844838Y928077D02*
X845245Y927264D01*
X844838Y928077D02*
X843568Y929347D01*
X842298Y930617D02*
X843568Y929347D01*
X842298Y930617D02*
X842197Y931074D01*
X842197Y931074D02*
X841892Y931429D01*
X841892Y931430D02*
X841384Y931683D01*
X839758Y931887D01*
X841384Y943537D02*
X840673Y943689D01*
X844838Y939930D02*
X843568Y941200D01*
X844838Y939930D02*
X846108Y938660D01*
Y938660D02*
X847378Y939930D01*
X847480Y940387D02*
X847378Y939930D01*
X847785Y940743D02*
X847480Y940387D01*
X848293Y940997D02*
X847785Y940743D01*
X849918Y941200D02*
X848293Y940997D01*
X852501Y947892D02*
X852458Y946280D01*
X852621Y949287D02*
X852501Y947892D01*
X852804Y950385D02*
X852621Y949287D01*
X853305Y951360D02*
X852804Y950385D01*
X853305Y951360D02*
X853600Y952159D01*
X853600Y952159D02*
X853836Y954503D01*
X853836Y954503D02*
X853939Y956405D01*
X854009Y958309D01*
X854009Y958309D02*
X854066Y960645D01*
X854108Y962980D01*
X854137Y965315D01*
X854152Y967651D01*
X854152Y969987D01*
X854116Y976476D02*
X854075Y979070D01*
X854009Y981664D01*
X854009D02*
X853939Y983568D01*
X853836Y985471D01*
X853836D02*
X853305Y988613D01*
X853036Y988871D02*
X853305Y988613D01*
X852804Y989589D02*
X853036Y988871D01*
X852621Y990686D02*
X852804Y989589D01*
X852458Y993693D02*
X852621Y990686D01*
X852458Y993693D02*
X852421Y995739D01*
Y995739D02*
X852296Y997188D01*
X852296D02*
X852062Y998123D01*
Y998123D02*
X851188Y998773D01*
X850695Y998899D02*
X851188Y998773D01*
X850335Y999302D02*
X850695Y998899D01*
X850094Y1000023D02*
X850335Y999302D01*
X849918Y1002583D02*
X850094Y1000023D01*
X849918Y1002583D02*
X849877Y1004063D01*
X849742Y1005144D01*
X849502Y1005865D01*
X848648Y1006393D01*
X848155Y1006519D02*
X848648Y1006393D01*
X847795Y1006922D02*
X848155Y1006519D01*
X847554Y1007643D02*
X847795Y1006922D01*
X847378Y1010203D02*
X847554Y1007643D01*
X847378Y1010203D02*
X847337Y1011683D01*
X847202Y1012764D01*
X846962Y1013485D01*
X846108Y1014013D01*
X845651Y1014115D02*
X846108Y1014013D01*
X845295Y1014420D02*
X845651Y1014115D01*
X845041Y1014928D02*
X845295Y1014420D01*
X844838Y1016553D02*
X845041Y1014928D01*
X844838Y1016553D02*
X844788Y1017468D01*
X844788D02*
X844635Y1018179D01*
X844381Y1018687D01*
X843568Y1019093D01*
X843111Y1019195D02*
X843568Y1019093D01*
X842755Y1019500D02*
X843111Y1019195D01*
X842501Y1020008D02*
X842755Y1019500D01*
X842298Y1021633D02*
X842501Y1020008D01*
X842298Y1021633D02*
X842247Y1022548D01*
X842247D02*
X842095Y1023259D01*
X841841Y1023767D01*
X841028Y1024173D01*
X840571Y1024275D02*
X841028Y1024173D01*
X840215Y1024580D02*
X840571Y1024275D01*
X839961Y1025088D02*
X840215Y1024580D01*
X839758Y1026713D02*
X839961Y1025088D01*
X839758Y1026713D02*
X839707Y1027628D01*
X839707D02*
X839555Y1028339D01*
X839301Y1028847D01*
X838488Y1029253D01*
X838031Y1029355D02*
X838488Y1029253D01*
X837675Y1029660D02*
X838031Y1029355D01*
X837421Y1030168D02*
X837675Y1029660D01*
X837218Y1031793D02*
X837421Y1030168D01*
X837218Y1031793D02*
X837168Y1032708D01*
X837168D02*
X837015Y1033419D01*
X836761Y1033927D01*
X835948Y1034333D01*
X834678Y1035603D02*
X835948Y1034333D01*
X834678Y1035603D02*
X833408Y1036873D01*
X832973Y1036967D02*
X833408Y1036873D01*
X832620Y1037239D02*
X832973Y1036967D01*
X832358Y1037676D02*
X832620Y1037239D01*
X832138Y1038990D02*
X832358Y1037676D01*
X832138Y1038990D02*
X832082Y1039716D01*
X831919Y1040304D01*
Y1040304D02*
X831657Y1040741D01*
X830868Y1041107D01*
X829598Y1042377D02*
X830868Y1041107D01*
X829598Y1042377D02*
X828328Y1043647D01*
X827871Y1043748D02*
X828328Y1043647D01*
X827515Y1044053D02*
X827871Y1043748D01*
X827261Y1044561D02*
X827515Y1044053D01*
X827058Y1046187D02*
X827261Y1044561D01*
X827058Y1046187D02*
X827008Y1047101D01*
X827008Y1047101D02*
X826855Y1047812D01*
Y1047812D02*
X826601Y1048320D01*
Y1048320D02*
X825788Y1048727D01*
X824518Y1049997D02*
X825788Y1048727D01*
X824518Y1049997D02*
X823248Y1051267D01*
X821978Y1052537D02*
X823248Y1051267D01*
X821978Y1052537D02*
X820708Y1053807D01*
X819438Y1055077D02*
X820708Y1053807D01*
X819438Y1055077D02*
X818168Y1056347D01*
X816898Y1057617D02*
X818168Y1056347D01*
X816898Y1057617D02*
X815628Y1058887D01*
X814358Y1060157D02*
X815628Y1058887D01*
X814358Y1060157D02*
X813088Y1061427D01*
X811818Y1062697D02*
X813088Y1061427D01*
X811818Y1062697D02*
X810548Y1063967D01*
X809278Y1065237D02*
X810548Y1063967D01*
X809278Y1065237D02*
X808008Y1066507D01*
X806738Y1067777D02*
X808008Y1066507D01*
X806738Y1067777D02*
X805468Y1069047D01*
X804198Y1070317D02*
X805468Y1069047D01*
X804198Y1070317D02*
X802928Y1071587D01*
X801658Y1072857D02*
X802928Y1071587D01*
X801658Y1072857D02*
X800388Y1074127D01*
X799118Y1075397D02*
X800388Y1074127D01*
X799118Y1075397D02*
X799025Y1075832D01*
X799025Y1075832D02*
X798753Y1076185D01*
Y1076185D02*
X798316Y1076447D01*
Y1076447D02*
X797002Y1076667D01*
X796276Y1076723D02*
X797002Y1076667D01*
X795688Y1076886D02*
X796276Y1076723D01*
X795251Y1077148D02*
X795688Y1076886D01*
X794885Y1077937D02*
X795251Y1077148D01*
X794885Y1077937D02*
X793615Y1079207D01*
X792345Y1080477D02*
X793615Y1079207D01*
X792345Y1080477D02*
X792243Y1080934D01*
Y1080934D02*
X791939Y1081290D01*
X791431Y1081544D01*
X789805Y1081747D01*
X788891Y1081797D02*
X789805Y1081747D01*
X788179Y1081950D02*
X788891Y1081797D01*
X787671Y1082204D02*
X788179Y1081950D01*
X787265Y1083017D02*
X787671Y1082204D01*
X787265Y1083017D02*
X787163Y1083474D01*
Y1083474D02*
X786859Y1083829D01*
X786351Y1084083D01*
X784725Y1084287D01*
X783811Y1084337D02*
X784725Y1084287D01*
X783099Y1084490D02*
X783811Y1084337D01*
X782591Y1084744D02*
X783099Y1084490D01*
X782185Y1085557D02*
X782591Y1084744D01*
X782185Y1085557D02*
X782083Y1086014D01*
Y1086014D02*
X781779Y1086369D01*
X781271Y1086624D01*
X779645Y1086827D01*
X778731Y1086878D02*
X779645Y1086827D01*
X778019Y1087030D02*
X778731Y1086878D01*
X777511Y1087284D02*
X778019Y1087030D01*
X787265Y1099950D02*
X787223Y1101430D01*
X787223D02*
X787089Y1102510D01*
X787089D02*
X786848Y1103232D01*
X786848D02*
X785995Y1103760D01*
X784725Y1105030D02*
X785995Y1103760D01*
X784725Y1105030D02*
X783455Y1106300D01*
X782185Y1107570D02*
X783455Y1106300D01*
X782185Y1107570D02*
X782083Y1108027D01*
Y1108027D02*
X781779Y1108383D01*
Y1108383D02*
X781271Y1108637D01*
X779645Y1108840D01*
X778731Y1108891D02*
X779645Y1108840D01*
X778019Y1109043D02*
X778731Y1108891D01*
X777511Y1109297D02*
X778019Y1109043D01*
X777105Y1110110D02*
X777511Y1109297D01*
X777105Y1110110D02*
X777003Y1110567D01*
Y1110567D02*
X776699Y1110923D01*
Y1110923D02*
X776191Y1111177D01*
X774565Y1111380D01*
X773651Y1111431D02*
X774565Y1111380D01*
X772939Y1111583D02*
X773651Y1111431D01*
X772431Y1111837D02*
X772939Y1111583D01*
X772025Y1112650D02*
X772431Y1111837D01*
X772025Y1112650D02*
X771923Y1113107D01*
Y1113107D02*
X771619Y1113463D01*
Y1113463D02*
X771111Y1113717D01*
X769485Y1113920D01*
X768571Y1113971D02*
X769485Y1113920D01*
X767859Y1114123D02*
X768571Y1113971D01*
X767351Y1114377D02*
X767859Y1114123D01*
X766945Y1115190D02*
X767351Y1114377D01*
X766945Y1115190D02*
X766843Y1115647D01*
Y1115647D02*
X766539Y1116003D01*
Y1116003D02*
X766031Y1116257D01*
X764405Y1116460D01*
X763491Y1116511D02*
X764405Y1116460D01*
X762779Y1116663D02*
X763491Y1116511D01*
X762271Y1116917D02*
X762779Y1116663D01*
X761865Y1117730D02*
X762271Y1116917D01*
X761865Y1117730D02*
X761763Y1118187D01*
Y1118187D02*
X761459Y1118543D01*
Y1118543D02*
X760951Y1118797D01*
X759325Y1119000D01*
X758411Y1119051D02*
X759325Y1119000D01*
X757699Y1119203D02*
X758411Y1119051D01*
X757191Y1119457D02*
X757699Y1119203D01*
X756785Y1120270D02*
X757191Y1119457D01*
X756785Y1120270D02*
X756683Y1120727D01*
Y1120727D02*
X756379Y1121083D01*
Y1121083D02*
X755871Y1121337D01*
X754245Y1121540D01*
X753331Y1121591D02*
X754245Y1121540D01*
X752619Y1121743D02*
X753331Y1121591D01*
X752111Y1121997D02*
X752619Y1121743D01*
X751705Y1122810D02*
X752111Y1121997D01*
X751705Y1122810D02*
X751588Y1123294D01*
X751588Y1123294D02*
X751217Y1123653D01*
X751217Y1123653D02*
X750567Y1123897D01*
X750567D02*
X748318Y1124080D01*
X747027Y1124124D02*
X748318Y1124080D01*
X746070Y1124263D02*
X747027Y1124124D01*
X745419Y1124507D02*
X746070Y1124263D01*
X744932Y1125350D02*
X745419Y1124507D01*
X744932Y1125350D02*
X744783Y1125862D01*
X744281Y1126224D01*
X743347Y1126458D01*
X739852Y1126620D01*
X737806Y1126657D02*
X739852Y1126620D01*
X736357Y1126783D02*
X737806Y1126657D01*
X735422Y1127016D02*
X736357Y1126783D01*
X734772Y1127890D02*
X735422Y1127016D01*
X734772Y1127890D02*
X734528Y1128429D01*
X734528D02*
X733634Y1128794D01*
X731846Y1129018D01*
Y1129018D02*
X729435Y1129115D01*
X727024Y1129163D01*
X724612Y1129160D01*
X720304Y1129191D02*
X722458Y1129166D01*
X724612Y1129160D01*
X717378Y1129302D02*
X720304Y1129191D01*
X715590Y1129526D02*
X717378Y1129302D01*
X714452Y1130430D02*
X715590Y1129526D01*
X714452Y1130430D02*
X714279Y1130952D01*
X714279D02*
X713680Y1131316D01*
Y1131316D02*
X712531Y1131546D01*
Y1131546D02*
X710319Y1131681D01*
X708102Y1131700D01*
X705491Y1131666D01*
X703672Y1131546D01*
Y1131546D02*
X702524Y1131316D01*
X702524Y1131316D02*
X701752Y1130430D01*
X701516Y1129893D02*
X701752Y1130430D01*
X700654Y1129527D02*
X701516Y1129893D01*
X698937Y1129303D02*
X700654Y1129527D01*
X692015Y1129160D02*
X694323Y1129158D01*
X696631Y1129205D01*
X698937Y1129303D01*
X692015Y1129160D02*
X689955Y1129154D01*
X687896Y1129129D01*
Y1129129D02*
X685093Y1129017D01*
Y1129017D02*
X683376Y1128793D01*
Y1128793D02*
X682278Y1127890D01*
X682129Y1127379D02*
X682278Y1127890D01*
X681628Y1127016D02*
X682129Y1127379D01*
X680693Y1126783D02*
X681628Y1127016D01*
X677198Y1126620D02*
X680693Y1126783D01*
X677198Y1126620D02*
X675153Y1126583D01*
X673703Y1126458D01*
X672769Y1126224D01*
X672118Y1125350D01*
X671993Y1124857D02*
X672118Y1125350D01*
X671590Y1124497D02*
X671993Y1124857D01*
X670869Y1124256D02*
X671590Y1124497D01*
X668308Y1124080D02*
X670869Y1124256D01*
X668308Y1124080D02*
X666828Y1124038D01*
X665748Y1123904D01*
Y1123904D02*
X665027Y1123663D01*
X664498Y1122810D01*
X664373Y1122317D02*
X664498Y1122810D01*
X663970Y1121957D02*
X664373Y1122317D01*
X663249Y1121716D02*
X663970Y1121957D01*
X660688Y1121540D02*
X663249Y1121716D01*
X660688Y1121540D02*
X659208Y1121498D01*
X658128Y1121364D01*
Y1121364D02*
X657407Y1121124D01*
X656878Y1120270D01*
X656777Y1119813D02*
X656878Y1120270D01*
X656472Y1119457D02*
X656777Y1119813D01*
X655964Y1119203D02*
X656472Y1119457D01*
X654338Y1119000D02*
X655964Y1119203D01*
X654338Y1119000D02*
X653424Y1118949D01*
X652713Y1118797D01*
Y1118797D02*
X652205Y1118543D01*
Y1118543D02*
X651798Y1117730D01*
X651673Y1117237D02*
X651798Y1117730D01*
X651270Y1116877D02*
X651673Y1117237D01*
X650549Y1116636D02*
X651270Y1116877D01*
X647988Y1116460D02*
X650549Y1116636D01*
X647988Y1116460D02*
X646508Y1116418D01*
X645428Y1116284D01*
Y1116284D02*
X644707Y1116043D01*
X644178Y1115190D01*
X644077Y1114733D02*
X644178Y1115190D01*
X643772Y1114377D02*
X644077Y1114733D01*
X643264Y1114123D02*
X643772Y1114377D01*
X641638Y1113920D02*
X643264Y1114123D01*
X641638Y1113920D02*
X640724Y1113869D01*
X640013Y1113717D01*
Y1113717D02*
X639505Y1113463D01*
Y1113463D02*
X639098Y1112650D01*
X638981Y1112166D02*
X639098Y1112650D01*
X638611Y1111807D02*
X638981Y1112166D01*
X637960Y1111563D02*
X638611Y1111807D01*
X635712Y1111380D02*
X637960Y1111563D01*
X634420Y1111424D02*
X635712Y1111380D01*
X633463Y1111563D02*
X634420Y1111424D01*
X632813Y1111807D02*
X633463Y1111563D01*
X632325Y1112650D02*
X632813Y1111807D01*
X632325Y1112650D02*
X631055Y1113920D01*
X629785Y1115190D02*
X631055Y1113920D01*
X629785Y1115190D02*
X629660Y1115683D01*
X629660D02*
X629257Y1116043D01*
X628535Y1116284D01*
X628535D02*
X625975Y1116460D01*
X624495Y1116502D02*
X625975Y1116460D01*
X623415Y1116636D02*
X624495Y1116502D01*
X622693Y1116877D02*
X623415Y1116636D01*
X622165Y1117730D02*
X622693Y1116877D01*
X622165Y1117730D02*
X622063Y1118187D01*
X621759Y1118543D01*
X621759Y1118543D02*
X621251Y1118797D01*
X621251D02*
X619625Y1119000D01*
X618711Y1119051D02*
X619625Y1119000D01*
X617999Y1119203D02*
X618711Y1119051D01*
X617491Y1119457D02*
X617999Y1119203D01*
X617085Y1120270D02*
X617491Y1119457D01*
X617085Y1120270D02*
X616960Y1120763D01*
X616960D02*
X616557Y1121124D01*
X615835Y1121364D01*
X615835D02*
X613275Y1121540D01*
X611795Y1121582D02*
X613275Y1121540D01*
X610715Y1121716D02*
X611795Y1121582D01*
X609993Y1121957D02*
X610715Y1121716D01*
X609465Y1122810D02*
X609993Y1121957D01*
X609465Y1122810D02*
X609292Y1123332D01*
X609292D02*
X608693Y1123696D01*
Y1123696D02*
X607545Y1123926D01*
Y1123926D02*
X605332Y1124061D01*
X603115Y1124080D01*
X600504Y1124115D02*
X603115Y1124080D01*
X598685Y1124234D02*
X600504Y1124115D01*
X597537Y1124464D02*
X598685Y1124234D01*
X596765Y1125350D02*
X597537Y1124464D01*
X596765Y1125350D02*
X596458Y1125895D01*
X596458D02*
X595302Y1126262D01*
X592945Y1126483D01*
X590514Y1126559D01*
X588082Y1126607D01*
X585650Y1126627D01*
X583218Y1126620D01*
X577402Y1126591D02*
X575447Y1126555D01*
X573492Y1126483D01*
X573492D02*
X571135Y1126262D01*
X571135Y1126262D02*
X569672Y1125350D01*
X569499Y1124828D02*
X569672Y1125350D01*
X568899Y1124464D02*
X569499Y1124828D01*
X567751Y1124234D02*
X568899Y1124464D01*
X563322Y1124080D02*
X565539Y1124099D01*
X567751Y1124234D01*
X563322Y1124080D02*
X560711Y1124046D01*
X558892Y1123926D01*
Y1123926D02*
X557744Y1123696D01*
X557744Y1123696D02*
X556972Y1122810D01*
X556846Y1122317D02*
X556972Y1122810D01*
X556443Y1121957D02*
X556846Y1122317D01*
X555722Y1121716D02*
X556443Y1121957D01*
X553162Y1121540D02*
X555722Y1121716D01*
X553162Y1121540D02*
X551682Y1121498D01*
X550601Y1121364D01*
Y1121364D02*
X549880Y1121124D01*
X549880D02*
X549352Y1120270D01*
X549226Y1119777D02*
X549352Y1120270D01*
X548823Y1119417D02*
X549226Y1119777D01*
X548102Y1119176D02*
X548823Y1119417D01*
X545542Y1119000D02*
X548102Y1119176D01*
X545542Y1119000D02*
X544062Y1118958D01*
X542981Y1118824D01*
Y1118824D02*
X542260Y1118584D01*
X542260D02*
X541732Y1117730D01*
X541630Y1117273D02*
X541732Y1117730D01*
X541325Y1116917D02*
X541630Y1117273D01*
X540817Y1116663D02*
X541325Y1116917D01*
X539192Y1116460D02*
X540817Y1116663D01*
X539192Y1116460D02*
X538277Y1116409D01*
X537566Y1116257D01*
Y1116257D02*
X537058Y1116003D01*
Y1116003D02*
X536652Y1115190D01*
X536550Y1114733D02*
X536652Y1115190D01*
X536245Y1114377D02*
X536550Y1114733D01*
X535737Y1114123D02*
X536245Y1114377D01*
X534112Y1113920D02*
X535737Y1114123D01*
X534112Y1113920D02*
X533197Y1113869D01*
X532486Y1113717D01*
Y1113717D02*
X531978Y1113463D01*
Y1113463D02*
X531572Y1112650D01*
X531478Y1112215D02*
X531572Y1112650D01*
X531206Y1111862D02*
X531478Y1112215D01*
X530769Y1111600D02*
X531206Y1111862D01*
X529455Y1111380D02*
X530769Y1111600D01*
X529455Y1111380D02*
X528729Y1111324D01*
X528141Y1111161D01*
Y1111161D02*
X527704Y1110899D01*
X527704Y1110899D02*
X527338Y1110110D01*
X527237Y1109653D02*
X527338Y1110110D01*
X526932Y1109297D02*
X527237Y1109653D01*
X526424Y1109043D02*
X526932Y1109297D01*
X524798Y1108840D02*
X526424Y1109043D01*
X524798Y1108840D02*
X523884Y1108789D01*
X523173Y1108637D01*
Y1108637D02*
X522665Y1108383D01*
Y1108383D02*
X522258Y1107570D01*
X520988Y1106300D02*
X522258Y1107570D01*
X520988Y1106300D02*
X519718Y1105030D01*
X519617Y1104573D02*
X519718Y1105030D01*
X519312Y1104217D02*
X519617Y1104573D01*
X518804Y1103963D02*
X519312Y1104217D01*
X517178Y1103760D02*
X518804Y1103963D01*
X517178Y1103760D02*
X516264Y1103709D01*
X515553Y1103557D01*
Y1103557D02*
X515045Y1103303D01*
Y1103303D02*
X514638Y1102490D01*
X513368Y1101220D02*
X514638Y1102490D01*
X513368Y1101220D02*
X512098Y1099950D01*
X510828Y1098680D02*
X512098Y1099950D01*
X510828Y1098680D02*
X509558Y1097410D01*
X508288Y1096140D02*
X509558Y1097410D01*
X508288Y1096140D02*
X507018Y1094870D01*
X505748Y1093600D02*
X507018Y1094870D01*
X505748Y1093600D02*
X504478Y1092330D01*
X503208Y1091060D02*
X504478Y1092330D01*
X503208Y1091060D02*
X502459Y1090896D01*
Y1090896D02*
X502184Y1090713D01*
Y1090713D02*
X501938Y1090213D01*
X501873Y1089947D02*
X501938Y1090213D01*
X501693Y1089714D02*
X501873Y1089947D01*
X501417Y1089531D02*
X501693Y1089714D01*
X500668Y1089367D02*
X501417Y1089531D01*
X500668Y1089367D02*
X499398Y1088097D01*
X498128Y1086827D02*
X499398Y1088097D01*
X498128Y1086827D02*
X496858Y1085557D01*
X495588Y1084287D02*
X496858Y1085557D01*
X495588Y1084287D02*
X494318Y1083017D01*
X493048Y1081747D02*
X494318Y1083017D01*
X493048Y1081747D02*
X491778Y1080477D01*
X490508Y1079207D02*
X491778Y1080477D01*
X490508Y1079207D02*
X489238Y1077937D01*
X487968Y1076667D02*
X489238Y1077937D01*
X487968Y1076667D02*
X486698Y1075397D01*
X485428Y1074127D02*
X486698Y1075397D01*
X485428Y1074127D02*
X484971Y1074025D01*
X484971D02*
X484616Y1073720D01*
X484616Y1073720D02*
X484361Y1073212D01*
X484361D02*
X484158Y1071587D01*
X484108Y1070672D02*
X484158Y1071587D01*
X483955Y1069961D02*
X484108Y1070672D01*
X483701Y1069453D02*
X483955Y1069961D01*
X482888Y1069047D02*
X483701Y1069453D01*
X482888Y1069047D02*
X481618Y1067777D01*
X480348Y1066507D02*
X481618Y1067777D01*
X480348Y1066507D02*
X479891Y1066405D01*
X479891D02*
X479535Y1066100D01*
X479535Y1066100D02*
X479282Y1065592D01*
X479282D02*
X479078Y1063967D01*
X479027Y1063052D02*
X479078Y1063967D01*
X478875Y1062341D02*
X479027Y1063052D01*
X478621Y1061833D02*
X478875Y1062341D01*
X477808Y1061427D02*
X478621Y1061833D01*
X477808Y1061427D02*
X476538Y1060157D01*
X476374Y1059408D02*
X476538Y1060157D01*
X476191Y1059133D02*
X476374Y1059408D01*
X475692Y1058887D02*
X476191Y1059133D01*
X475692Y1058887D02*
X475425Y1058757D01*
X475425D02*
X475192Y1058395D01*
X475009Y1057844D01*
X474845Y1056347D01*
X474794Y1055432D02*
X474845Y1056347D01*
X474642Y1054721D02*
X474794Y1055432D01*
X474388Y1054213D02*
X474642Y1054721D01*
X473575Y1053807D02*
X474388Y1054213D01*
X473575Y1053807D02*
X473118Y1053705D01*
X473118Y1053705D02*
X472762Y1053400D01*
X472508Y1052892D01*
X472305Y1051267D01*
X472254Y1050352D02*
X472305Y1051267D01*
X472102Y1049641D02*
X472254Y1050352D01*
X471848Y1049133D02*
X472102Y1049641D01*
X471035Y1048727D02*
X471848Y1049133D01*
X469714Y1045272D02*
X469765Y1046187D01*
X469562Y1044561D02*
X469714Y1045272D01*
X469308Y1044053D02*
X469562Y1044561D01*
X468495Y1043647D02*
X469308Y1044053D01*
X468495Y1043647D02*
X468038Y1043545D01*
X468038Y1043545D02*
X467682Y1043240D01*
X467428Y1042732D01*
X467225Y1041107D01*
X467174Y1040192D02*
X467225Y1041107D01*
X467022Y1039481D02*
X467174Y1040192D01*
X466768Y1038973D02*
X467022Y1039481D01*
X465955Y1038567D02*
X466768Y1038973D01*
X465955Y1038567D02*
X465519Y1038473D01*
X465167Y1038201D01*
Y1038201D02*
X464904Y1037764D01*
Y1037764D02*
X464685Y1036450D01*
X464629Y1035724D02*
X464685Y1036450D01*
X464465Y1035136D02*
X464629Y1035724D01*
X464203Y1034699D02*
X464465Y1035136D01*
X463415Y1034333D02*
X464203Y1034699D01*
X463415Y1034333D02*
X462922Y1034208D01*
Y1034208D02*
X462561Y1033805D01*
X462561D02*
X462321Y1033084D01*
X462321Y1033084D02*
X462145Y1030523D01*
X462103Y1029043D02*
X462145Y1030523D01*
X461969Y1027963D02*
X462103Y1029043D01*
X461728Y1027242D02*
X461969Y1027963D01*
X460875Y1026713D02*
X461728Y1027242D01*
X460875Y1026713D02*
X460382Y1026588D01*
Y1026588D02*
X460022Y1026185D01*
X460022D02*
X459781Y1025464D01*
X459781Y1025464D02*
X459605Y1022903D01*
X459563Y1021423D02*
X459605Y1022903D01*
X459429Y1020343D02*
X459563Y1021423D01*
X459188Y1019622D02*
X459429Y1020343D01*
X458335Y1019093D02*
X459188Y1019622D01*
X458335Y1019093D02*
X457824Y1018944D01*
X457823Y1018944D02*
X457461Y1018443D01*
X457228Y1017508D01*
X457065Y1014013D01*
X457028Y1011968D02*
X457065Y1014013D01*
X456902Y1010518D02*
X457028Y1011968D01*
X456669Y1009584D02*
X456902Y1010518D01*
X455795Y1008933D02*
X456669Y1009584D01*
X455795Y1008933D02*
X455257Y1008689D01*
X455257D02*
X454891Y1007795D01*
X454891D02*
X454667Y1006007D01*
X454667D02*
X454570Y1003597D01*
X454522Y1001186D01*
X454525Y998773D01*
X454495Y994465D02*
X454519Y996619D01*
X454525Y998773D01*
X454383Y991539D02*
X454494Y994465D01*
X454159Y989751D02*
X454383Y991539D01*
X453255Y988613D02*
X454159Y989751D01*
X453255Y988613D02*
X452718Y988377D01*
X452718Y988377D02*
X452352Y987516D01*
X452352Y987516D02*
X452128Y985799D01*
X452030Y983493D01*
X451982Y981185D01*
X451985Y978877D01*
Y978877D02*
X451991Y976817D01*
X452016Y974757D01*
Y974757D02*
X452128Y971954D01*
X452128D02*
X452352Y970237D01*
X453255Y969140D01*
X453790Y968920D02*
X453255Y969140D01*
X454155Y968124D02*
X453790Y968920D01*
X454380Y966549D02*
X454155Y968124D01*
X454525Y960250D02*
X454509Y963401D01*
X454380Y966549D01*
X454525Y960250D02*
X454556Y956508D01*
X454556D02*
X454670Y953951D01*
X454895Y952376D01*
Y952376D02*
X455795Y951360D01*
X456306Y951211D02*
X455795Y951360D01*
X456669Y950710D02*
X456306Y951211D01*
X456902Y949775D02*
X456669Y950710D01*
X457065Y946280D02*
X456902Y949775D01*
X457065Y946280D02*
X457102Y944234D01*
Y944234D02*
X457228Y942785D01*
Y942785D02*
X457461Y941850D01*
X457461D02*
X458335Y941200D01*
X458828Y941075D02*
X458335Y941200D01*
X459188Y940672D02*
X458828Y941075D01*
X459429Y939950D02*
X459188Y940672D01*
X459605Y937390D02*
X459429Y939950D01*
X459605Y937390D02*
X459647Y935910D01*
X459781Y934830D01*
X459781D02*
X460022Y934108D01*
X460875Y933580D01*
X461311Y933486D02*
X460875Y933580D01*
X461663Y933214D02*
X461311Y933486D01*
X461926Y932777D02*
X461663Y933214D01*
X462145Y931463D02*
X461926Y932777D01*
X462145Y931463D02*
X462201Y930737D01*
Y930738D02*
X462364Y930149D01*
X462626Y929712D01*
Y929712D02*
X463415Y929347D01*
X463872Y929245D02*
X463415Y929347D01*
X464228Y928940D02*
X463872Y929245D01*
X464482Y928432D02*
X464228Y928940D01*
X464685Y926807D02*
X464482Y928432D01*
X464685Y926807D02*
X464736Y925892D01*
X464736D02*
X464888Y925181D01*
X465142Y924673D01*
X465142D02*
X465955Y924267D01*
X466412Y924165D02*
X465955Y924267D01*
X466768Y923860D02*
X466412Y924165D01*
X467022Y923352D02*
X466768Y923860D01*
X467225Y921727D02*
X467022Y923352D01*
X467178Y920595D02*
X467225Y921727D01*
X466554Y919430D02*
X467178Y920595D01*
X464685Y919187D02*
X466554Y919430D01*
X464685Y919187D02*
X463770Y919136D01*
X463059Y918984D01*
Y918984D02*
X462551Y918729D01*
Y918729D02*
X462145Y917917D01*
X460875Y916647D02*
X462145Y917917D01*
X460875Y916647D02*
X459605Y915377D01*
X458335Y914107D02*
X459605Y915377D01*
X458335Y914107D02*
X457065Y912837D01*
X455795Y911567D02*
X457065Y912837D01*
X455795Y911567D02*
X455338Y911465D01*
X455338D02*
X454982Y911160D01*
Y911160D02*
X454728Y910652D01*
Y910652D02*
X454525Y909027D01*
X454474Y908112D02*
X454525Y909027D01*
X454322Y907401D02*
X454474Y908112D01*
X454068Y906893D02*
X454322Y907401D01*
X453255Y906487D02*
X454068Y906893D01*
X453255Y906487D02*
X452762Y906361D01*
Y906361D02*
X452402Y905958D01*
X452402Y905958D02*
X452161Y905237D01*
X452161D02*
X451985Y902677D01*
X451943Y901197D02*
X451985Y902677D01*
X451809Y900116D02*
X451943Y901197D01*
X451568Y899395D02*
X451809Y900116D01*
X450715Y898867D02*
X451568Y899395D01*
X450715Y898867D02*
X450204Y898718D01*
X449841Y898216D01*
X449841Y898216D02*
X449608Y897282D01*
X449445Y893787D01*
X449408Y891741D02*
X449445Y893787D01*
X449282Y890292D02*
X449408Y891741D01*
X449049Y889357D02*
X449282Y890292D01*
X448175Y888707D02*
X449049Y889357D01*
X448175Y888707D02*
X447638Y888471D01*
X447272Y887609D01*
Y887609D02*
X447048Y885892D01*
X447048Y885892D02*
X446950Y883586D01*
X446903Y881278D01*
X446905Y878970D01*
X446905D02*
X446911Y876910D01*
X446936Y874851D01*
X447048Y872048D01*
X447272Y870331D01*
X447272D02*
X448175Y869233D01*
X448697Y869061D02*
X448175Y869233D01*
X449061Y868461D02*
X448697Y869061D01*
X449291Y867313D02*
X449061Y868461D01*
X449445Y862883D02*
X449426Y865100D01*
X449291Y867313D01*
X449445Y862883D02*
X449479Y860272D01*
X449599Y858454D01*
X449829Y857306D01*
X449829Y857306D02*
X450715Y856533D01*
X451208Y856408D02*
X450715Y856533D01*
X451568Y856005D02*
X451208Y856408D01*
X451809Y855284D02*
X451568Y856005D01*
X451985Y852723D02*
X451809Y855284D01*
X451985Y852723D02*
X452027Y851243D01*
X452161Y850163D01*
X452161D02*
X452402Y849442D01*
Y849442D02*
X453255Y848913D01*
X453712Y848812D02*
X453255Y848913D01*
X454068Y848507D02*
X453712Y848812D01*
X454322Y847999D02*
X454068Y848507D01*
X454525Y846373D02*
X454322Y847999D01*
X454525Y846373D02*
X454576Y845459D01*
X454576D02*
X454728Y844748D01*
X454982Y844240D01*
X454982Y844240D02*
X455795Y843833D01*
X456252Y843732D02*
X455795Y843833D01*
X456608Y843427D02*
X456252Y843732D01*
X456862Y842919D02*
X456608Y843427D01*
X457065Y841293D02*
X456862Y842919D01*
X457065Y841293D02*
X457116Y840379D01*
X457116D02*
X457268Y839668D01*
X457522Y839160D01*
X457522D02*
X458335Y838753D01*
X459605Y837483D02*
X458335Y838753D01*
X459605Y837483D02*
X460875Y836213D01*
X461332Y836112D02*
X460875Y836213D01*
X461688Y835807D02*
X461332Y836112D01*
X461942Y835299D02*
X461688Y835807D01*
X462145Y833673D02*
X461942Y835299D01*
X462145Y833673D02*
X462196Y832759D01*
X462196D02*
X462348Y832048D01*
X462602Y831540D01*
X462602D02*
X463415Y831133D01*
X464685Y829863D02*
X463415Y831133D01*
X464685Y829863D02*
X465955Y828593D01*
X466704Y828429D02*
X465955Y828593D01*
X466979Y828246D02*
X466704Y828429D01*
X467225Y827747D02*
X466979Y828246D01*
X467225Y827747D02*
X467355Y827480D01*
X467355Y827480D02*
X467717Y827247D01*
X467717D02*
X468267Y827064D01*
X469765Y826900D01*
X470679Y826849D02*
X469765Y826900D01*
X471390Y826697D02*
X470679Y826849D01*
X471898Y826443D02*
X471390Y826697D01*
X472305Y825630D02*
X471898Y826443D01*
X472305Y825630D02*
X472399Y825194D01*
X472399D02*
X472671Y824842D01*
Y824842D02*
X473108Y824579D01*
X473108D02*
X474422Y824360D01*
X475148Y824304D02*
X474422Y824360D01*
X475736Y824140D02*
X475148Y824304D01*
X476172Y823878D02*
X475736Y824140D01*
X476538Y823090D02*
X476172Y823878D01*
X476538Y823090D02*
X476664Y822597D01*
X476664D02*
X477067Y822236D01*
X477067Y822236D02*
X477788Y821996D01*
X480348Y821820D01*
X482153Y821791D02*
X480348Y821820D01*
X483274Y821630D02*
X482153Y821791D01*
X483874Y821231D02*
X483274Y821630D01*
X484158Y819280D02*
X483874Y821231D01*
X484158Y819280D02*
X484209Y818366D01*
X484209D02*
X484361Y817654D01*
X484361Y817654D02*
X484615Y817146D01*
X485428Y816740D01*
X485922Y816615D02*
X485428Y816740D01*
X486282Y816212D02*
X485922Y816615D01*
X486522Y815490D02*
X486282Y816212D01*
X486698Y812930D02*
X486522Y815490D01*
X486698Y812930D02*
X486740Y811450D01*
X486740Y811450D02*
X486874Y810370D01*
X487115Y809648D01*
X487968Y809120D01*
X488425Y809018D02*
X487968Y809120D01*
X488781Y808714D02*
X488425Y809018D01*
X489035Y808205D02*
X488781Y808714D01*
X489238Y806580D02*
X489035Y808205D01*
X489238Y806580D02*
X489289Y805666D01*
X489289D02*
X489441Y804954D01*
X489441Y804954D02*
X489695Y804446D01*
X490508Y804040D01*
X490965Y803938D02*
X490508Y804040D01*
X491321Y803633D02*
X490965Y803938D01*
X491575Y803126D02*
X491321Y803633D01*
X491778Y801500D02*
X491575Y803126D01*
X491778Y801500D02*
X491829Y800586D01*
X491829D02*
X491982Y799874D01*
X491981Y799874D02*
X492235Y799366D01*
X493048Y798960D01*
X493506Y798858D02*
X493048Y798960D01*
X493861Y798553D02*
X493506Y798858D01*
X494115Y798046D02*
X493861Y798553D01*
X494318Y796420D02*
X494115Y798046D01*
X494318Y796420D02*
X494369Y795506D01*
X494369D02*
X494521Y794794D01*
X494521Y794794D02*
X494775Y794286D01*
X495588Y793880D01*
X496045Y793778D02*
X495588Y793880D01*
X496401Y793474D02*
X496045Y793778D01*
X496655Y792965D02*
X496401Y793474D01*
X496858Y791340D02*
X496655Y792965D01*
X496858Y791340D02*
X496909Y790426D01*
X496909D02*
X497062Y789714D01*
X497061Y789714D02*
X497315Y789206D01*
X498128Y788800D01*
X498586Y788698D02*
X498128Y788800D01*
X498941Y788393D02*
X498586Y788698D01*
X499195Y787886D02*
X498941Y788393D01*
X499398Y786260D02*
X499195Y787886D01*
X499398Y786260D02*
X499449Y785346D01*
X499449D02*
X499602Y784634D01*
X499601Y784634D02*
X499855Y784126D01*
X500668Y783720D01*
X501938Y782450D02*
X500668Y783720D01*
X501938Y782450D02*
X503208Y781180D01*
X503666Y781078D02*
X503208Y781180D01*
X504021Y780773D02*
X503666Y781078D01*
X504275Y780266D02*
X504021Y780773D01*
X504478Y778640D02*
X504275Y780266D01*
X504478Y778640D02*
X504529Y777726D01*
X504529D02*
X504682Y777014D01*
X504681Y777014D02*
X504935Y776506D01*
X505748Y776100D01*
X506184Y776006D02*
X505748Y776100D01*
X506537Y775734D02*
X506184Y776006D01*
X506799Y775297D02*
X506537Y775734D01*
X507018Y773983D02*
X506799Y775297D01*
X507018Y773983D02*
X507075Y773258D01*
Y773258D02*
X507238Y772669D01*
X507500Y772233D01*
X508288Y771867D01*
X509558Y770597D02*
X508288Y771867D01*
X509558Y770597D02*
X510828Y769327D01*
X511286Y769225D02*
X510828Y769327D01*
X511641Y768920D02*
X511286Y769225D01*
X511895Y768412D02*
X511641Y768920D01*
X512098Y766787D02*
X511895Y768412D01*
X512098Y766787D02*
X512149Y765872D01*
X512149Y765872D02*
X512301Y765161D01*
X512301D02*
X512555Y764653D01*
X513368Y764247D01*
X514638Y762977D02*
X513368Y764247D01*
X514638Y762977D02*
X515908Y761707D01*
X516366Y761605D02*
X515908Y761707D01*
X516721Y761300D02*
X516366Y761605D01*
X516975Y760792D02*
X516721Y761300D01*
X517178Y759167D02*
X516975Y760792D01*
X517178Y759167D02*
X517229Y758252D01*
X517229Y758252D02*
X517382Y757541D01*
X517381D02*
X517635Y757033D01*
X518448Y756627D01*
X519718Y755357D02*
X518448Y756627D01*
X519718Y755357D02*
X520988Y754087D01*
X522258Y752817D02*
X520988Y754087D01*
X522258Y752817D02*
X523528Y751547D01*
X524798Y750277D02*
X523528Y751547D01*
X524798Y750277D02*
X526068Y749007D01*
X526525Y748905D02*
X526068Y749007D01*
X526881Y748600D02*
X526525Y748905D01*
X527135Y748092D02*
X526881Y748600D01*
X527338Y746467D02*
X527135Y748092D01*
X527338Y746467D02*
X527382Y745666D01*
Y745666D02*
X527502Y744969D01*
Y744969D02*
X527686Y744418D01*
X527686D02*
X528185Y743927D01*
X528452Y743862D02*
X528185Y743927D01*
X528684Y743681D02*
X528452Y743862D01*
X528868Y743406D02*
X528684Y743681D01*
X529032Y742657D02*
X528868Y743406D01*
X529032Y742657D02*
X530302Y741387D01*
X531572Y740117D02*
X530302Y741387D01*
X531572Y740117D02*
X532842Y738847D01*
X534112Y737577D02*
X532842Y738847D01*
X534112Y737577D02*
X535382Y736307D01*
X536652Y735037D02*
X535382Y736307D01*
X536652Y735037D02*
X537922Y733767D01*
X539192Y732497D02*
X537922Y733767D01*
X539192Y732497D02*
X540462Y731227D01*
X541732Y729957D02*
X540462Y731227D01*
X541732Y729957D02*
X543002Y728687D01*
X544272Y727417D02*
X543002Y728687D01*
X544272Y727417D02*
X545542Y726147D01*
X546812Y724877D02*
X545542Y726147D01*
X546812Y724877D02*
X548082Y723607D01*
X548830Y723443D02*
X548082Y723607D01*
X549106Y723259D02*
X548830Y723443D01*
X549352Y722760D02*
X549106Y723259D01*
X549352Y722760D02*
X549417Y722493D01*
X549417D02*
X549598Y722260D01*
Y722260D02*
X549873Y722076D01*
X549873D02*
X550622Y721913D01*
X551892Y720643D02*
X550622Y721913D01*
X551892Y720643D02*
X553162Y719373D01*
X554432Y718103D02*
X553162Y719373D01*
X554432Y718103D02*
X555702Y716833D01*
X556972Y715563D02*
X555702Y716833D01*
X556972Y715563D02*
X558242Y714293D01*
X558799Y713583D02*
X558242Y714293D01*
X559168Y710757D02*
X558799Y713583D01*
X559384Y704773D02*
X559310Y707766D01*
X559168Y710757D01*
X554432Y644019D02*
X552386Y643982D01*
X552386D02*
X550937Y643857D01*
X550937Y643857D02*
X550002Y643623D01*
Y643623D02*
X549352Y642749D01*
X549132Y642215D02*
X549352Y642749D01*
X548336Y641849D02*
X549132Y642215D01*
X546761Y641624D02*
X548336Y641849D01*
X540462Y641479D02*
X543613Y641495D01*
X546761Y641624D01*
X540462Y641479D02*
X536719Y641448D01*
Y641448D02*
X534162Y641334D01*
Y641334D02*
X532588Y641109D01*
X532588Y641109D02*
X531572Y640209D01*
X531359Y639676D02*
X531572Y640209D01*
X530596Y639311D02*
X531359Y639676D01*
X529093Y639086D02*
X530596Y639311D01*
X523105Y638939D02*
X526100Y638955D01*
X529093Y639086D01*
X523105Y638939D02*
X519551Y638907D01*
X519551D02*
X517117Y638793D01*
Y638793D02*
X515614Y638567D01*
X514638Y637669D01*
X514466Y637147D02*
X514638Y637669D01*
X513866Y636783D02*
X514466Y637147D01*
X512718Y636554D02*
X513866Y636783D01*
X508288Y636399D02*
X510505Y636418D01*
X512718Y636554D01*
X508288Y636399D02*
X505677Y636365D01*
X503859Y636245D01*
X503859Y636245D02*
X502710Y636015D01*
Y636015D02*
X501938Y635129D01*
X501789Y634618D02*
X501938Y635129D01*
X501288Y634255D02*
X501789Y634618D01*
X500353Y634022D02*
X501288Y634255D01*
X496858Y633859D02*
X500353Y634022D01*
X496858Y633859D02*
X494813Y633822D01*
X494813D02*
X493363Y633697D01*
Y633697D02*
X492429Y633463D01*
X492429D02*
X491778Y632589D01*
X491629Y632078D02*
X491778Y632589D01*
X491128Y631715D02*
X491629Y632078D01*
X490193Y631482D02*
X491128Y631715D01*
X486698Y631319D02*
X490193Y631482D01*
X486698Y631319D02*
X484653Y631282D01*
X484653D02*
X483203Y631157D01*
Y631157D02*
X482269Y630923D01*
X482269D02*
X481618Y630049D01*
X481477Y629543D02*
X481618Y630049D01*
X481009Y629181D02*
X481477Y629543D01*
X480145Y628945D02*
X481009Y629181D01*
X476962Y628779D02*
X480145Y628946D01*
X476962Y628779D02*
X475105Y628741D01*
Y628741D02*
X473778Y628613D01*
Y628613D02*
X472915Y628377D01*
X472305Y627509D01*
X472180Y627016D02*
X472305Y627509D01*
X471777Y626656D02*
X472180Y627016D01*
X471055Y626415D02*
X471777Y626656D01*
X468495Y626239D02*
X471055Y626415D01*
X468495Y626239D02*
X467015Y626198D01*
X465935Y626063D01*
X465935Y626063D02*
X465213Y625823D01*
X464685Y624969D01*
X464536Y624458D02*
X464685Y624969D01*
X464035Y624095D02*
X464536Y624458D01*
X463100Y623862D02*
X464035Y624095D01*
X459605Y623699D02*
X463100Y623862D01*
X459605Y623699D02*
X457560Y623662D01*
X457559D02*
X456110Y623537D01*
Y623537D02*
X455175Y623303D01*
X454525Y622429D01*
X454400Y621936D02*
X454525Y622429D01*
X453997Y621576D02*
X454400Y621936D01*
X453275Y621335D02*
X453997Y621576D01*
X450715Y621159D02*
X453275Y621335D01*
X450715Y621159D02*
X449235Y621118D01*
X448155Y620983D01*
X448155Y620983D02*
X447433Y620743D01*
X446905Y619889D01*
X446803Y619432D02*
X446905Y619889D01*
X446499Y619076D02*
X446803Y619432D01*
X445991Y618822D02*
X446499Y619076D01*
X444365Y618619D02*
X445991Y618822D01*
X444365Y618619D02*
X443451Y618568D01*
X443451Y618568D02*
X442739Y618416D01*
X442739Y618416D02*
X442231Y618162D01*
X442231D02*
X441825Y617349D01*
X441700Y616856D02*
X441825Y617349D01*
X441297Y616496D02*
X441700Y616856D01*
X440575Y616255D02*
X441297Y616496D01*
X438015Y616079D02*
X440575Y616255D01*
X438015Y616079D02*
X436814Y616036D01*
Y616036D02*
X435769Y615915D01*
Y615915D02*
X434943Y615732D01*
Y615732D02*
X434205Y615232D01*
X434075Y614965D02*
X434205Y615232D01*
X433713Y614733D02*
X434075Y614965D01*
X433163Y614549D02*
X433713Y614733D01*
X431665Y614385D02*
X433163Y614549D01*
X431665Y614385D02*
X430751Y614334D01*
X430751Y614334D02*
X430039Y614182D01*
X430039Y614182D02*
X429531Y613928D01*
X429531D02*
X429125Y613115D01*
X429000Y612622D02*
X429125Y613115D01*
X428597Y612262D02*
X429000Y612622D01*
X427875Y612021D02*
X428597Y612262D01*
X425315Y611845D02*
X427875Y612021D01*
X425315Y611845D02*
X423835Y611804D01*
X422755Y611669D01*
X422755Y611669D02*
X422033Y611429D01*
X421505Y610575D01*
X421411Y610140D02*
X421505Y610575D01*
X421139Y609787D02*
X421411Y610140D01*
X420702Y609525D02*
X421139Y609787D01*
X419388Y609305D02*
X420702Y609525D01*
X419388Y609305D02*
X418662Y609249D01*
X418074Y609086D01*
X417637Y608824D01*
X417637Y608824D02*
X417272Y608035D01*
X417170Y607578D02*
X417272Y608035D01*
X416865Y607222D02*
X417170Y607578D01*
X416357Y606968D02*
X416865Y607222D01*
X414732Y606765D02*
X416357Y606968D01*
X414732Y606765D02*
X413817Y606715D01*
Y606714D02*
X413106Y606562D01*
X413106Y606562D02*
X412598Y606308D01*
X412598D02*
X412192Y605495D01*
X412090Y605038D02*
X412192Y605495D01*
X411785Y604682D02*
X412090Y605038D01*
X411277Y604428D02*
X411785Y604682D01*
X409652Y604225D02*
X411277Y604428D01*
X409652Y604225D02*
X408737Y604174D01*
Y604174D02*
X408026Y604022D01*
X408026Y604022D02*
X407518Y603768D01*
X407518D02*
X407112Y602955D01*
X405842Y601685D02*
X407112Y602955D01*
X405842Y601685D02*
X404572Y600415D01*
X404470Y599958D02*
X404572Y600415D01*
X404165Y599602D02*
X404470Y599958D01*
X403657Y599348D02*
X404165Y599602D01*
X402032Y599145D02*
X403657Y599348D01*
X402032Y599145D02*
X401117Y599095D01*
Y599094D02*
X400406Y598942D01*
X400406Y598942D02*
X399898Y598688D01*
X399898D02*
X399492Y597875D01*
X398222Y596605D02*
X399492Y597875D01*
X398222Y596605D02*
X396952Y595335D01*
X395682Y594065D02*
X396952Y595335D01*
X395682Y594065D02*
X394412Y592795D01*
X393142Y591525D02*
X394412Y592795D01*
X393142Y591525D02*
X392580Y590072D01*
X777511Y1087284D02*
X786368Y1096140D01*
X786816D01*
X786368D02*
X787265D01*
X840673Y932801D02*
Y943689D01*
X1166460Y10070D02*
Y590070D01*
X113420Y10070D02*
X1166460D01*
X886460Y590070D02*
X1166460Y590070D01*
X113420Y10070D02*
Y590072D01*
X393420D01*
X880526Y591820D02*
X883920D01*
X711912Y644018D02*
X716992D01*
X711912D02*
Y679155D01*
X849918Y941200D02*
X852458D01*
Y946280D01*
X711937Y694586D02*
X712039Y704772D01*
X787265Y1096140D02*
Y1099950D01*
X854116Y976476D02*
X854152Y969987D01*
X559510Y644019D02*
X559512Y679156D01*
X554432Y644019D02*
X559512D01*
X577402Y1126591D02*
X583218Y1126620D01*
X559384Y704773D02*
X559512Y679156D01*
M02*
