G04 #@! TF.GenerationSoftware,KiCad,Pcbnew,5.1.4+dfsg1-1*
G04 #@! TF.CreationDate,2019-11-26T20:14:11-08:00*
G04 #@! TF.ProjectId,glasgow-pmod,676c6173-676f-4772-9d70-6d6f642e6b69,rev?*
G04 #@! TF.SameCoordinates,PX9001f78PY487d01c*
G04 #@! TF.FileFunction,Legend,Top*
G04 #@! TF.FilePolarity,Positive*
%FSLAX46Y46*%
G04 Gerber Fmt 4.6, Leading zero omitted, Abs format (unit mm)*
G04 Created by KiCad (PCBNEW 5.1.4+dfsg1-1) date 2019-11-26 20:14:11*
%MOMM*%
%LPD*%
G04 APERTURE LIST*
%ADD10C,0.300000*%
%ADD11C,0.120000*%
%ADD12C,1.000000*%
%ADD13C,0.150000*%
G04 APERTURE END LIST*
D10*
X3763428Y-45305261D02*
X5382476Y-45305261D01*
X5572952Y-45400500D01*
X5668190Y-45495738D01*
X5763428Y-45686214D01*
X5763428Y-45971928D01*
X5668190Y-46162404D01*
X5001523Y-45305261D02*
X5096761Y-45495738D01*
X5096761Y-45876690D01*
X5001523Y-46067166D01*
X4906285Y-46162404D01*
X4715809Y-46257642D01*
X4144380Y-46257642D01*
X3953904Y-46162404D01*
X3858666Y-46067166D01*
X3763428Y-45876690D01*
X3763428Y-45495738D01*
X3858666Y-45305261D01*
X5096761Y-44067166D02*
X5001523Y-44257642D01*
X4811047Y-44352880D01*
X3096761Y-44352880D01*
X5096761Y-42448119D02*
X4049142Y-42448119D01*
X3858666Y-42543357D01*
X3763428Y-42733833D01*
X3763428Y-43114785D01*
X3858666Y-43305261D01*
X5001523Y-42448119D02*
X5096761Y-42638595D01*
X5096761Y-43114785D01*
X5001523Y-43305261D01*
X4811047Y-43400500D01*
X4620571Y-43400500D01*
X4430095Y-43305261D01*
X4334857Y-43114785D01*
X4334857Y-42638595D01*
X4239619Y-42448119D01*
X5001523Y-41590976D02*
X5096761Y-41400500D01*
X5096761Y-41019547D01*
X5001523Y-40829071D01*
X4811047Y-40733833D01*
X4715809Y-40733833D01*
X4525333Y-40829071D01*
X4430095Y-41019547D01*
X4430095Y-41305261D01*
X4334857Y-41495738D01*
X4144380Y-41590976D01*
X4049142Y-41590976D01*
X3858666Y-41495738D01*
X3763428Y-41305261D01*
X3763428Y-41019547D01*
X3858666Y-40829071D01*
X3763428Y-39019547D02*
X5382476Y-39019547D01*
X5572952Y-39114785D01*
X5668190Y-39210023D01*
X5763428Y-39400500D01*
X5763428Y-39686214D01*
X5668190Y-39876690D01*
X5001523Y-39019547D02*
X5096761Y-39210023D01*
X5096761Y-39590976D01*
X5001523Y-39781452D01*
X4906285Y-39876690D01*
X4715809Y-39971928D01*
X4144380Y-39971928D01*
X3953904Y-39876690D01*
X3858666Y-39781452D01*
X3763428Y-39590976D01*
X3763428Y-39210023D01*
X3858666Y-39019547D01*
X5096761Y-37781452D02*
X5001523Y-37971928D01*
X4906285Y-38067166D01*
X4715809Y-38162404D01*
X4144380Y-38162404D01*
X3953904Y-38067166D01*
X3858666Y-37971928D01*
X3763428Y-37781452D01*
X3763428Y-37495738D01*
X3858666Y-37305261D01*
X3953904Y-37210023D01*
X4144380Y-37114785D01*
X4715809Y-37114785D01*
X4906285Y-37210023D01*
X5001523Y-37305261D01*
X5096761Y-37495738D01*
X5096761Y-37781452D01*
X3763428Y-36448119D02*
X5096761Y-36067166D01*
X4144380Y-35686214D01*
X5096761Y-35305261D01*
X3763428Y-34924309D01*
X4334857Y-34162404D02*
X4334857Y-32638595D01*
X3763428Y-31686214D02*
X5763428Y-31686214D01*
X3858666Y-31686214D02*
X3763428Y-31495738D01*
X3763428Y-31114785D01*
X3858666Y-30924309D01*
X3953904Y-30829071D01*
X4144380Y-30733833D01*
X4715809Y-30733833D01*
X4906285Y-30829071D01*
X5001523Y-30924309D01*
X5096761Y-31114785D01*
X5096761Y-31495738D01*
X5001523Y-31686214D01*
X5096761Y-29876690D02*
X3763428Y-29876690D01*
X3953904Y-29876690D02*
X3858666Y-29781452D01*
X3763428Y-29590976D01*
X3763428Y-29305261D01*
X3858666Y-29114785D01*
X4049142Y-29019547D01*
X5096761Y-29019547D01*
X4049142Y-29019547D02*
X3858666Y-28924309D01*
X3763428Y-28733833D01*
X3763428Y-28448119D01*
X3858666Y-28257642D01*
X4049142Y-28162404D01*
X5096761Y-28162404D01*
X5096761Y-26924309D02*
X5001523Y-27114785D01*
X4906285Y-27210023D01*
X4715809Y-27305261D01*
X4144380Y-27305261D01*
X3953904Y-27210023D01*
X3858666Y-27114785D01*
X3763428Y-26924309D01*
X3763428Y-26638595D01*
X3858666Y-26448119D01*
X3953904Y-26352880D01*
X4144380Y-26257642D01*
X4715809Y-26257642D01*
X4906285Y-26352880D01*
X5001523Y-26448119D01*
X5096761Y-26638595D01*
X5096761Y-26924309D01*
X5096761Y-24543357D02*
X3096761Y-24543357D01*
X5001523Y-24543357D02*
X5096761Y-24733833D01*
X5096761Y-25114785D01*
X5001523Y-25305261D01*
X4906285Y-25400500D01*
X4715809Y-25495738D01*
X4144380Y-25495738D01*
X3953904Y-25400500D01*
X3858666Y-25305261D01*
X3763428Y-25114785D01*
X3763428Y-24733833D01*
X3858666Y-24543357D01*
X4906285Y-23590976D02*
X5001523Y-23495738D01*
X5096761Y-23590976D01*
X5001523Y-23686214D01*
X4906285Y-23590976D01*
X5096761Y-23590976D01*
X3763428Y-22924309D02*
X3763428Y-22162404D01*
X3096761Y-22638595D02*
X4811047Y-22638595D01*
X5001523Y-22543357D01*
X5096761Y-22352880D01*
X5096761Y-22162404D01*
X5096761Y-21210023D02*
X5001523Y-21400500D01*
X4906285Y-21495738D01*
X4715809Y-21590976D01*
X4144380Y-21590976D01*
X3953904Y-21495738D01*
X3858666Y-21400500D01*
X3763428Y-21210023D01*
X3763428Y-20924309D01*
X3858666Y-20733833D01*
X3953904Y-20638595D01*
X4144380Y-20543357D01*
X4715809Y-20543357D01*
X4906285Y-20638595D01*
X5001523Y-20733833D01*
X5096761Y-20924309D01*
X5096761Y-21210023D01*
X5096761Y-19686214D02*
X3763428Y-19686214D01*
X3953904Y-19686214D02*
X3858666Y-19590976D01*
X3763428Y-19400500D01*
X3763428Y-19114785D01*
X3858666Y-18924309D01*
X4049142Y-18829071D01*
X5096761Y-18829071D01*
X4049142Y-18829071D02*
X3858666Y-18733833D01*
X3763428Y-18543357D01*
X3763428Y-18257642D01*
X3858666Y-18067166D01*
X4049142Y-17971928D01*
X5096761Y-17971928D01*
X5096761Y-17019547D02*
X3096761Y-17019547D01*
X4334857Y-16829071D02*
X5096761Y-16257642D01*
X3763428Y-16257642D02*
X4525333Y-17019547D01*
X4906285Y-15400500D02*
X5001523Y-15305261D01*
X5096761Y-15400500D01*
X5001523Y-15495738D01*
X4906285Y-15400500D01*
X5096761Y-15400500D01*
X5096761Y-14448119D02*
X3763428Y-14448119D01*
X3096761Y-14448119D02*
X3192000Y-14543357D01*
X3287238Y-14448119D01*
X3192000Y-14352880D01*
X3096761Y-14448119D01*
X3287238Y-14448119D01*
X3763428Y-13495738D02*
X5096761Y-13495738D01*
X3953904Y-13495738D02*
X3858666Y-13400500D01*
X3763428Y-13210023D01*
X3763428Y-12924309D01*
X3858666Y-12733833D01*
X4049142Y-12638595D01*
X5096761Y-12638595D01*
X7063428Y-32257642D02*
X8396761Y-31781452D01*
X7063428Y-31305261D01*
X8396761Y-29495738D02*
X8396761Y-30638595D01*
X8396761Y-30067166D02*
X6396761Y-30067166D01*
X6682476Y-30257642D01*
X6872952Y-30448119D01*
X6968190Y-30638595D01*
X8206285Y-28638595D02*
X8301523Y-28543357D01*
X8396761Y-28638595D01*
X8301523Y-28733833D01*
X8206285Y-28638595D01*
X8396761Y-28638595D01*
X6396761Y-27305261D02*
X6396761Y-27114785D01*
X6492000Y-26924309D01*
X6587238Y-26829071D01*
X6777714Y-26733833D01*
X7158666Y-26638595D01*
X7634857Y-26638595D01*
X8015809Y-26733833D01*
X8206285Y-26829071D01*
X8301523Y-26924309D01*
X8396761Y-27114785D01*
X8396761Y-27305261D01*
X8301523Y-27495738D01*
X8206285Y-27590976D01*
X8015809Y-27686214D01*
X7634857Y-27781452D01*
X7158666Y-27781452D01*
X6777714Y-27686214D01*
X6587238Y-27590976D01*
X6492000Y-27495738D01*
X6396761Y-27305261D01*
D11*
X6580000Y-48006000D02*
G75*
G03X6580000Y-48006000I-1500000J0D01*
G01*
X2791500Y-35242500D02*
G75*
G03X2791500Y-35242500I-950000J0D01*
G01*
X2791500Y-37782500D02*
G75*
G03X2791500Y-37782500I-950000J0D01*
G01*
D12*
X14997000Y-32970500D02*
G75*
G03X14997000Y-32970500I-100000J0D01*
G01*
X14997000Y-10110500D02*
G75*
G03X14997000Y-10110500I-100000J0D01*
G01*
X2527000Y-8280500D02*
G75*
G03X2527000Y-8280500I-100000J0D01*
G01*
D11*
X16898252Y-49010500D02*
X16375748Y-49010500D01*
X16898252Y-50430500D02*
X16375748Y-50430500D01*
X16375748Y-27443500D02*
X16898252Y-27443500D01*
X16375748Y-26023500D02*
X16898252Y-26023500D01*
X19633000Y-6674752D02*
X19633000Y-6152248D01*
X18213000Y-6674752D02*
X18213000Y-6152248D01*
D13*
X4518095Y-49958380D02*
X5089523Y-49958380D01*
X4803809Y-50958380D02*
X4803809Y-49958380D01*
X5422857Y-50958380D02*
X5422857Y-49958380D01*
X5803809Y-49958380D01*
X5899047Y-50006000D01*
X5946666Y-50053619D01*
X5994285Y-50148857D01*
X5994285Y-50291714D01*
X5946666Y-50386952D01*
X5899047Y-50434571D01*
X5803809Y-50482190D01*
X5422857Y-50482190D01*
X6327619Y-49958380D02*
X6946666Y-49958380D01*
X6613333Y-50339333D01*
X6756190Y-50339333D01*
X6851428Y-50386952D01*
X6899047Y-50434571D01*
X6946666Y-50529809D01*
X6946666Y-50767904D01*
X6899047Y-50863142D01*
X6851428Y-50910761D01*
X6756190Y-50958380D01*
X6470476Y-50958380D01*
X6375238Y-50910761D01*
X6327619Y-50863142D01*
X658880Y-34154904D02*
X658880Y-33583476D01*
X1658880Y-33869190D02*
X658880Y-33869190D01*
X1658880Y-33250142D02*
X658880Y-33250142D01*
X658880Y-32869190D01*
X706500Y-32773952D01*
X754119Y-32726333D01*
X849357Y-32678714D01*
X992214Y-32678714D01*
X1087452Y-32726333D01*
X1135071Y-32773952D01*
X1182690Y-32869190D01*
X1182690Y-33250142D01*
X754119Y-32297761D02*
X706500Y-32250142D01*
X658880Y-32154904D01*
X658880Y-31916809D01*
X706500Y-31821571D01*
X754119Y-31773952D01*
X849357Y-31726333D01*
X944595Y-31726333D01*
X1087452Y-31773952D01*
X1658880Y-32345380D01*
X1658880Y-31726333D01*
X595380Y-41393904D02*
X595380Y-40822476D01*
X1595380Y-41108190D02*
X595380Y-41108190D01*
X1595380Y-40489142D02*
X595380Y-40489142D01*
X595380Y-40108190D01*
X643000Y-40012952D01*
X690619Y-39965333D01*
X785857Y-39917714D01*
X928714Y-39917714D01*
X1023952Y-39965333D01*
X1071571Y-40012952D01*
X1119190Y-40108190D01*
X1119190Y-40489142D01*
X1595380Y-38965333D02*
X1595380Y-39536761D01*
X1595380Y-39251047D02*
X595380Y-39251047D01*
X738238Y-39346285D01*
X833476Y-39441523D01*
X881095Y-39536761D01*
D10*
X20548666Y-31254809D02*
X20548666Y-32397666D01*
X20472476Y-32626238D01*
X20320095Y-32778619D01*
X20091523Y-32854809D01*
X19939142Y-32854809D01*
X21996285Y-31788142D02*
X21996285Y-32854809D01*
X21615333Y-31178619D02*
X21234380Y-32321476D01*
X22224857Y-32321476D01*
X20675666Y-8712309D02*
X20675666Y-9855166D01*
X20599476Y-10083738D01*
X20447095Y-10236119D01*
X20218523Y-10312309D01*
X20066142Y-10312309D01*
X21285190Y-8712309D02*
X22275666Y-8712309D01*
X21742333Y-9321833D01*
X21970904Y-9321833D01*
X22123285Y-9398023D01*
X22199476Y-9474214D01*
X22275666Y-9626595D01*
X22275666Y-10007547D01*
X22199476Y-10159928D01*
X22123285Y-10236119D01*
X21970904Y-10312309D01*
X21513761Y-10312309D01*
X21361380Y-10236119D01*
X21285190Y-10159928D01*
X838309Y-5422833D02*
X1981166Y-5422833D01*
X2209738Y-5499023D01*
X2362119Y-5651404D01*
X2438309Y-5879976D01*
X2438309Y-6032357D01*
X990690Y-4737119D02*
X914500Y-4660928D01*
X838309Y-4508547D01*
X838309Y-4127595D01*
X914500Y-3975214D01*
X990690Y-3899023D01*
X1143071Y-3822833D01*
X1295452Y-3822833D01*
X1524023Y-3899023D01*
X2438309Y-4813309D01*
X2438309Y-3822833D01*
X19672333Y-50291928D02*
X19596142Y-50368119D01*
X19367571Y-50444309D01*
X19215190Y-50444309D01*
X18986619Y-50368119D01*
X18834238Y-50215738D01*
X18758047Y-50063357D01*
X18681857Y-49758595D01*
X18681857Y-49530023D01*
X18758047Y-49225261D01*
X18834238Y-49072880D01*
X18986619Y-48920500D01*
X19215190Y-48844309D01*
X19367571Y-48844309D01*
X19596142Y-48920500D01*
X19672333Y-48996690D01*
X20205666Y-48844309D02*
X21196142Y-48844309D01*
X20662809Y-49453833D01*
X20891380Y-49453833D01*
X21043761Y-49530023D01*
X21119952Y-49606214D01*
X21196142Y-49758595D01*
X21196142Y-50139547D01*
X21119952Y-50291928D01*
X21043761Y-50368119D01*
X20891380Y-50444309D01*
X20434238Y-50444309D01*
X20281857Y-50368119D01*
X20205666Y-50291928D01*
X20053333Y-27304928D02*
X19977142Y-27381119D01*
X19748571Y-27457309D01*
X19596190Y-27457309D01*
X19367619Y-27381119D01*
X19215238Y-27228738D01*
X19139047Y-27076357D01*
X19062857Y-26771595D01*
X19062857Y-26543023D01*
X19139047Y-26238261D01*
X19215238Y-26085880D01*
X19367619Y-25933500D01*
X19596190Y-25857309D01*
X19748571Y-25857309D01*
X19977142Y-25933500D01*
X20053333Y-26009690D01*
X20662857Y-26009690D02*
X20739047Y-25933500D01*
X20891428Y-25857309D01*
X21272380Y-25857309D01*
X21424761Y-25933500D01*
X21500952Y-26009690D01*
X21577142Y-26162071D01*
X21577142Y-26314452D01*
X21500952Y-26543023D01*
X20586666Y-27457309D01*
X21577142Y-27457309D01*
X19494428Y-3187666D02*
X19570619Y-3263857D01*
X19646809Y-3492428D01*
X19646809Y-3644809D01*
X19570619Y-3873380D01*
X19418238Y-4025761D01*
X19265857Y-4101952D01*
X18961095Y-4178142D01*
X18732523Y-4178142D01*
X18427761Y-4101952D01*
X18275380Y-4025761D01*
X18123000Y-3873380D01*
X18046809Y-3644809D01*
X18046809Y-3492428D01*
X18123000Y-3263857D01*
X18199190Y-3187666D01*
X19646809Y-1663857D02*
X19646809Y-2578142D01*
X19646809Y-2121000D02*
X18046809Y-2121000D01*
X18275380Y-2273380D01*
X18427761Y-2425761D01*
X18503952Y-2578142D01*
M02*
