M48
; DRILL file {KiCad 5.1.6-c6e7f7d~86~ubuntu20.04.1} date Sun Jun 28 08:51:00 2020
; FORMAT={-:-/ absolute / metric / decimal}
; #@! TF.CreationDate,2020-06-28T08:51:00-07:00
; #@! TF.GenerationSoftware,Kicad,Pcbnew,5.1.6-c6e7f7d~86~ubuntu20.04.1
FMAT,2
METRIC
T1C0.400
T2C1.000
%
G90
G05
T1
X1.355Y-36.125
X1.355Y-37.175
X1.355Y-47.567
X1.355Y-48.617
X1.679Y-44.279
X1.844Y-39.202
X1.844Y-41.742
X2.421Y-45.021
X4.05Y-22.15
X5.05Y-22.15
X6.15Y-22.15
X6.95Y-23.35
X10.6Y-50.0
X11.3Y-27.247
X11.3Y-28.297
T2
X15.37Y-11.58
X15.37Y-14.12
X15.37Y-16.66
X15.37Y-19.2
X15.37Y-21.74
X15.37Y-24.28
X17.91Y-11.58
X17.91Y-14.12
X17.91Y-16.66
X17.91Y-19.2
X17.91Y-21.74
X17.91Y-24.28
X15.37Y-34.44
X15.37Y-36.98
X15.37Y-39.52
X15.37Y-42.06
X15.37Y-44.6
X15.37Y-47.14
X17.91Y-34.44
X17.91Y-36.98
X17.91Y-39.52
X17.91Y-42.06
X17.91Y-44.6
X17.91Y-47.14
X3.94Y-5.23
X3.94Y-7.77
X6.48Y-5.23
X6.48Y-7.77
X9.02Y-5.23
X9.02Y-7.77
X11.56Y-5.23
X11.56Y-7.77
X14.1Y-5.23
X14.1Y-7.77
X16.64Y-5.23
X16.64Y-7.77
X20.5Y-6.5
T0
M30
