G04 #@! TF.GenerationSoftware,KiCad,Pcbnew,5.1.4+dfsg1-1*
G04 #@! TF.CreationDate,2019-11-26T20:14:11-08:00*
G04 #@! TF.ProjectId,glasgow-pmod,676c6173-676f-4772-9d70-6d6f642e6b69,rev?*
G04 #@! TF.SameCoordinates,PX9001f78PY487d01c*
G04 #@! TF.FileFunction,Paste,Top*
G04 #@! TF.FilePolarity,Positive*
%FSLAX46Y46*%
G04 Gerber Fmt 4.6, Leading zero omitted, Abs format (unit mm)*
G04 Created by KiCad (PCBNEW 5.1.4+dfsg1-1) date 2019-11-26 20:14:11*
%MOMM*%
%LPD*%
G04 APERTURE LIST*
%ADD10C,0.100000*%
%ADD11C,1.150000*%
G04 APERTURE END LIST*
D10*
G36*
X15961505Y-49021704D02*
G01*
X15985773Y-49025304D01*
X16009572Y-49031265D01*
X16032671Y-49039530D01*
X16054850Y-49050020D01*
X16075893Y-49062632D01*
X16095599Y-49077247D01*
X16113777Y-49093723D01*
X16130253Y-49111901D01*
X16144868Y-49131607D01*
X16157480Y-49152650D01*
X16167970Y-49174829D01*
X16176235Y-49197928D01*
X16182196Y-49221727D01*
X16185796Y-49245995D01*
X16187000Y-49270499D01*
X16187000Y-50170501D01*
X16185796Y-50195005D01*
X16182196Y-50219273D01*
X16176235Y-50243072D01*
X16167970Y-50266171D01*
X16157480Y-50288350D01*
X16144868Y-50309393D01*
X16130253Y-50329099D01*
X16113777Y-50347277D01*
X16095599Y-50363753D01*
X16075893Y-50378368D01*
X16054850Y-50390980D01*
X16032671Y-50401470D01*
X16009572Y-50409735D01*
X15985773Y-50415696D01*
X15961505Y-50419296D01*
X15937001Y-50420500D01*
X15286999Y-50420500D01*
X15262495Y-50419296D01*
X15238227Y-50415696D01*
X15214428Y-50409735D01*
X15191329Y-50401470D01*
X15169150Y-50390980D01*
X15148107Y-50378368D01*
X15128401Y-50363753D01*
X15110223Y-50347277D01*
X15093747Y-50329099D01*
X15079132Y-50309393D01*
X15066520Y-50288350D01*
X15056030Y-50266171D01*
X15047765Y-50243072D01*
X15041804Y-50219273D01*
X15038204Y-50195005D01*
X15037000Y-50170501D01*
X15037000Y-49270499D01*
X15038204Y-49245995D01*
X15041804Y-49221727D01*
X15047765Y-49197928D01*
X15056030Y-49174829D01*
X15066520Y-49152650D01*
X15079132Y-49131607D01*
X15093747Y-49111901D01*
X15110223Y-49093723D01*
X15128401Y-49077247D01*
X15148107Y-49062632D01*
X15169150Y-49050020D01*
X15191329Y-49039530D01*
X15214428Y-49031265D01*
X15238227Y-49025304D01*
X15262495Y-49021704D01*
X15286999Y-49020500D01*
X15937001Y-49020500D01*
X15961505Y-49021704D01*
X15961505Y-49021704D01*
G37*
D11*
X15612000Y-49720500D03*
D10*
G36*
X18011505Y-49021704D02*
G01*
X18035773Y-49025304D01*
X18059572Y-49031265D01*
X18082671Y-49039530D01*
X18104850Y-49050020D01*
X18125893Y-49062632D01*
X18145599Y-49077247D01*
X18163777Y-49093723D01*
X18180253Y-49111901D01*
X18194868Y-49131607D01*
X18207480Y-49152650D01*
X18217970Y-49174829D01*
X18226235Y-49197928D01*
X18232196Y-49221727D01*
X18235796Y-49245995D01*
X18237000Y-49270499D01*
X18237000Y-50170501D01*
X18235796Y-50195005D01*
X18232196Y-50219273D01*
X18226235Y-50243072D01*
X18217970Y-50266171D01*
X18207480Y-50288350D01*
X18194868Y-50309393D01*
X18180253Y-50329099D01*
X18163777Y-50347277D01*
X18145599Y-50363753D01*
X18125893Y-50378368D01*
X18104850Y-50390980D01*
X18082671Y-50401470D01*
X18059572Y-50409735D01*
X18035773Y-50415696D01*
X18011505Y-50419296D01*
X17987001Y-50420500D01*
X17336999Y-50420500D01*
X17312495Y-50419296D01*
X17288227Y-50415696D01*
X17264428Y-50409735D01*
X17241329Y-50401470D01*
X17219150Y-50390980D01*
X17198107Y-50378368D01*
X17178401Y-50363753D01*
X17160223Y-50347277D01*
X17143747Y-50329099D01*
X17129132Y-50309393D01*
X17116520Y-50288350D01*
X17106030Y-50266171D01*
X17097765Y-50243072D01*
X17091804Y-50219273D01*
X17088204Y-50195005D01*
X17087000Y-50170501D01*
X17087000Y-49270499D01*
X17088204Y-49245995D01*
X17091804Y-49221727D01*
X17097765Y-49197928D01*
X17106030Y-49174829D01*
X17116520Y-49152650D01*
X17129132Y-49131607D01*
X17143747Y-49111901D01*
X17160223Y-49093723D01*
X17178401Y-49077247D01*
X17198107Y-49062632D01*
X17219150Y-49050020D01*
X17241329Y-49039530D01*
X17264428Y-49031265D01*
X17288227Y-49025304D01*
X17312495Y-49021704D01*
X17336999Y-49020500D01*
X17987001Y-49020500D01*
X18011505Y-49021704D01*
X18011505Y-49021704D01*
G37*
D11*
X17662000Y-49720500D03*
D10*
G36*
X18011505Y-26034704D02*
G01*
X18035773Y-26038304D01*
X18059572Y-26044265D01*
X18082671Y-26052530D01*
X18104850Y-26063020D01*
X18125893Y-26075632D01*
X18145599Y-26090247D01*
X18163777Y-26106723D01*
X18180253Y-26124901D01*
X18194868Y-26144607D01*
X18207480Y-26165650D01*
X18217970Y-26187829D01*
X18226235Y-26210928D01*
X18232196Y-26234727D01*
X18235796Y-26258995D01*
X18237000Y-26283499D01*
X18237000Y-27183501D01*
X18235796Y-27208005D01*
X18232196Y-27232273D01*
X18226235Y-27256072D01*
X18217970Y-27279171D01*
X18207480Y-27301350D01*
X18194868Y-27322393D01*
X18180253Y-27342099D01*
X18163777Y-27360277D01*
X18145599Y-27376753D01*
X18125893Y-27391368D01*
X18104850Y-27403980D01*
X18082671Y-27414470D01*
X18059572Y-27422735D01*
X18035773Y-27428696D01*
X18011505Y-27432296D01*
X17987001Y-27433500D01*
X17336999Y-27433500D01*
X17312495Y-27432296D01*
X17288227Y-27428696D01*
X17264428Y-27422735D01*
X17241329Y-27414470D01*
X17219150Y-27403980D01*
X17198107Y-27391368D01*
X17178401Y-27376753D01*
X17160223Y-27360277D01*
X17143747Y-27342099D01*
X17129132Y-27322393D01*
X17116520Y-27301350D01*
X17106030Y-27279171D01*
X17097765Y-27256072D01*
X17091804Y-27232273D01*
X17088204Y-27208005D01*
X17087000Y-27183501D01*
X17087000Y-26283499D01*
X17088204Y-26258995D01*
X17091804Y-26234727D01*
X17097765Y-26210928D01*
X17106030Y-26187829D01*
X17116520Y-26165650D01*
X17129132Y-26144607D01*
X17143747Y-26124901D01*
X17160223Y-26106723D01*
X17178401Y-26090247D01*
X17198107Y-26075632D01*
X17219150Y-26063020D01*
X17241329Y-26052530D01*
X17264428Y-26044265D01*
X17288227Y-26038304D01*
X17312495Y-26034704D01*
X17336999Y-26033500D01*
X17987001Y-26033500D01*
X18011505Y-26034704D01*
X18011505Y-26034704D01*
G37*
D11*
X17662000Y-26733500D03*
D10*
G36*
X15961505Y-26034704D02*
G01*
X15985773Y-26038304D01*
X16009572Y-26044265D01*
X16032671Y-26052530D01*
X16054850Y-26063020D01*
X16075893Y-26075632D01*
X16095599Y-26090247D01*
X16113777Y-26106723D01*
X16130253Y-26124901D01*
X16144868Y-26144607D01*
X16157480Y-26165650D01*
X16167970Y-26187829D01*
X16176235Y-26210928D01*
X16182196Y-26234727D01*
X16185796Y-26258995D01*
X16187000Y-26283499D01*
X16187000Y-27183501D01*
X16185796Y-27208005D01*
X16182196Y-27232273D01*
X16176235Y-27256072D01*
X16167970Y-27279171D01*
X16157480Y-27301350D01*
X16144868Y-27322393D01*
X16130253Y-27342099D01*
X16113777Y-27360277D01*
X16095599Y-27376753D01*
X16075893Y-27391368D01*
X16054850Y-27403980D01*
X16032671Y-27414470D01*
X16009572Y-27422735D01*
X15985773Y-27428696D01*
X15961505Y-27432296D01*
X15937001Y-27433500D01*
X15286999Y-27433500D01*
X15262495Y-27432296D01*
X15238227Y-27428696D01*
X15214428Y-27422735D01*
X15191329Y-27414470D01*
X15169150Y-27403980D01*
X15148107Y-27391368D01*
X15128401Y-27376753D01*
X15110223Y-27360277D01*
X15093747Y-27342099D01*
X15079132Y-27322393D01*
X15066520Y-27301350D01*
X15056030Y-27279171D01*
X15047765Y-27256072D01*
X15041804Y-27232273D01*
X15038204Y-27208005D01*
X15037000Y-27183501D01*
X15037000Y-26283499D01*
X15038204Y-26258995D01*
X15041804Y-26234727D01*
X15047765Y-26210928D01*
X15056030Y-26187829D01*
X15066520Y-26165650D01*
X15079132Y-26144607D01*
X15093747Y-26124901D01*
X15110223Y-26106723D01*
X15128401Y-26090247D01*
X15148107Y-26075632D01*
X15169150Y-26063020D01*
X15191329Y-26052530D01*
X15214428Y-26044265D01*
X15238227Y-26038304D01*
X15262495Y-26034704D01*
X15286999Y-26033500D01*
X15937001Y-26033500D01*
X15961505Y-26034704D01*
X15961505Y-26034704D01*
G37*
D11*
X15612000Y-26733500D03*
D10*
G36*
X19397505Y-4814704D02*
G01*
X19421773Y-4818304D01*
X19445572Y-4824265D01*
X19468671Y-4832530D01*
X19490850Y-4843020D01*
X19511893Y-4855632D01*
X19531599Y-4870247D01*
X19549777Y-4886723D01*
X19566253Y-4904901D01*
X19580868Y-4924607D01*
X19593480Y-4945650D01*
X19603970Y-4967829D01*
X19612235Y-4990928D01*
X19618196Y-5014727D01*
X19621796Y-5038995D01*
X19623000Y-5063499D01*
X19623000Y-5713501D01*
X19621796Y-5738005D01*
X19618196Y-5762273D01*
X19612235Y-5786072D01*
X19603970Y-5809171D01*
X19593480Y-5831350D01*
X19580868Y-5852393D01*
X19566253Y-5872099D01*
X19549777Y-5890277D01*
X19531599Y-5906753D01*
X19511893Y-5921368D01*
X19490850Y-5933980D01*
X19468671Y-5944470D01*
X19445572Y-5952735D01*
X19421773Y-5958696D01*
X19397505Y-5962296D01*
X19373001Y-5963500D01*
X18472999Y-5963500D01*
X18448495Y-5962296D01*
X18424227Y-5958696D01*
X18400428Y-5952735D01*
X18377329Y-5944470D01*
X18355150Y-5933980D01*
X18334107Y-5921368D01*
X18314401Y-5906753D01*
X18296223Y-5890277D01*
X18279747Y-5872099D01*
X18265132Y-5852393D01*
X18252520Y-5831350D01*
X18242030Y-5809171D01*
X18233765Y-5786072D01*
X18227804Y-5762273D01*
X18224204Y-5738005D01*
X18223000Y-5713501D01*
X18223000Y-5063499D01*
X18224204Y-5038995D01*
X18227804Y-5014727D01*
X18233765Y-4990928D01*
X18242030Y-4967829D01*
X18252520Y-4945650D01*
X18265132Y-4924607D01*
X18279747Y-4904901D01*
X18296223Y-4886723D01*
X18314401Y-4870247D01*
X18334107Y-4855632D01*
X18355150Y-4843020D01*
X18377329Y-4832530D01*
X18400428Y-4824265D01*
X18424227Y-4818304D01*
X18448495Y-4814704D01*
X18472999Y-4813500D01*
X19373001Y-4813500D01*
X19397505Y-4814704D01*
X19397505Y-4814704D01*
G37*
D11*
X18923000Y-5388500D03*
D10*
G36*
X19397505Y-6864704D02*
G01*
X19421773Y-6868304D01*
X19445572Y-6874265D01*
X19468671Y-6882530D01*
X19490850Y-6893020D01*
X19511893Y-6905632D01*
X19531599Y-6920247D01*
X19549777Y-6936723D01*
X19566253Y-6954901D01*
X19580868Y-6974607D01*
X19593480Y-6995650D01*
X19603970Y-7017829D01*
X19612235Y-7040928D01*
X19618196Y-7064727D01*
X19621796Y-7088995D01*
X19623000Y-7113499D01*
X19623000Y-7763501D01*
X19621796Y-7788005D01*
X19618196Y-7812273D01*
X19612235Y-7836072D01*
X19603970Y-7859171D01*
X19593480Y-7881350D01*
X19580868Y-7902393D01*
X19566253Y-7922099D01*
X19549777Y-7940277D01*
X19531599Y-7956753D01*
X19511893Y-7971368D01*
X19490850Y-7983980D01*
X19468671Y-7994470D01*
X19445572Y-8002735D01*
X19421773Y-8008696D01*
X19397505Y-8012296D01*
X19373001Y-8013500D01*
X18472999Y-8013500D01*
X18448495Y-8012296D01*
X18424227Y-8008696D01*
X18400428Y-8002735D01*
X18377329Y-7994470D01*
X18355150Y-7983980D01*
X18334107Y-7971368D01*
X18314401Y-7956753D01*
X18296223Y-7940277D01*
X18279747Y-7922099D01*
X18265132Y-7902393D01*
X18252520Y-7881350D01*
X18242030Y-7859171D01*
X18233765Y-7836072D01*
X18227804Y-7812273D01*
X18224204Y-7788005D01*
X18223000Y-7763501D01*
X18223000Y-7113499D01*
X18224204Y-7088995D01*
X18227804Y-7064727D01*
X18233765Y-7040928D01*
X18242030Y-7017829D01*
X18252520Y-6995650D01*
X18265132Y-6974607D01*
X18279747Y-6954901D01*
X18296223Y-6936723D01*
X18314401Y-6920247D01*
X18334107Y-6905632D01*
X18355150Y-6893020D01*
X18377329Y-6882530D01*
X18400428Y-6874265D01*
X18424227Y-6868304D01*
X18448495Y-6864704D01*
X18472999Y-6863500D01*
X19373001Y-6863500D01*
X19397505Y-6864704D01*
X19397505Y-6864704D01*
G37*
D11*
X18923000Y-7438500D03*
M02*
