G04 #@! TF.GenerationSoftware,KiCad,Pcbnew,5.1.6-c6e7f7d~86~ubuntu20.04.1*
G04 #@! TF.CreationDate,2020-05-31T05:55:26-07:00*
G04 #@! TF.ProjectId,glasgow-pmod,676c6173-676f-4772-9d70-6d6f642e6b69,rev?*
G04 #@! TF.SameCoordinates,PX90013c0PY44b6550*
G04 #@! TF.FileFunction,Paste,Top*
G04 #@! TF.FilePolarity,Positive*
%FSLAX46Y46*%
G04 Gerber Fmt 4.6, Leading zero omitted, Abs format (unit mm)*
G04 Created by KiCad (PCBNEW 5.1.6-c6e7f7d~86~ubuntu20.04.1) date 2020-05-31 05:55:26*
%MOMM*%
%LPD*%
G01*
G04 APERTURE LIST*
%ADD10R,1.060000X0.650000*%
G04 APERTURE END LIST*
D10*
X6250000Y-30950000D03*
X6250000Y-29050000D03*
X8450000Y-29050000D03*
X8450000Y-30000000D03*
X8450000Y-30950000D03*
G36*
G01*
X8412500Y-32806250D02*
X8412500Y-32293750D01*
G75*
G02*
X8631250Y-32075000I218750J0D01*
G01*
X9068750Y-32075000D01*
G75*
G02*
X9287500Y-32293750I0J-218750D01*
G01*
X9287500Y-32806250D01*
G75*
G02*
X9068750Y-33025000I-218750J0D01*
G01*
X8631250Y-33025000D01*
G75*
G02*
X8412500Y-32806250I0J218750D01*
G01*
G37*
G36*
G01*
X6812500Y-32806250D02*
X6812500Y-32293750D01*
G75*
G02*
X7031250Y-32075000I218750J0D01*
G01*
X7468750Y-32075000D01*
G75*
G02*
X7687500Y-32293750I0J-218750D01*
G01*
X7687500Y-32806250D01*
G75*
G02*
X7468750Y-33025000I-218750J0D01*
G01*
X7031250Y-33025000D01*
G75*
G02*
X6812500Y-32806250I0J218750D01*
G01*
G37*
G36*
G01*
X5237500Y-32806250D02*
X5237500Y-32293750D01*
G75*
G02*
X5456250Y-32075000I218750J0D01*
G01*
X5893750Y-32075000D01*
G75*
G02*
X6112500Y-32293750I0J-218750D01*
G01*
X6112500Y-32806250D01*
G75*
G02*
X5893750Y-33025000I-218750J0D01*
G01*
X5456250Y-33025000D01*
G75*
G02*
X5237500Y-32806250I0J218750D01*
G01*
G37*
G36*
G01*
X5072500Y-30310000D02*
X4727500Y-30310000D01*
G75*
G02*
X4580000Y-30162500I0J147500D01*
G01*
X4580000Y-29867500D01*
G75*
G02*
X4727500Y-29720000I147500J0D01*
G01*
X5072500Y-29720000D01*
G75*
G02*
X5220000Y-29867500I0J-147500D01*
G01*
X5220000Y-30162500D01*
G75*
G02*
X5072500Y-30310000I-147500J0D01*
G01*
G37*
G36*
G01*
X5072500Y-31280000D02*
X4727500Y-31280000D01*
G75*
G02*
X4580000Y-31132500I0J147500D01*
G01*
X4580000Y-30837500D01*
G75*
G02*
X4727500Y-30690000I147500J0D01*
G01*
X5072500Y-30690000D01*
G75*
G02*
X5220000Y-30837500I0J-147500D01*
G01*
X5220000Y-31132500D01*
G75*
G02*
X5072500Y-31280000I-147500J0D01*
G01*
G37*
G36*
G01*
X10390000Y-31172500D02*
X10390000Y-30827500D01*
G75*
G02*
X10537500Y-30680000I147500J0D01*
G01*
X10832500Y-30680000D01*
G75*
G02*
X10980000Y-30827500I0J-147500D01*
G01*
X10980000Y-31172500D01*
G75*
G02*
X10832500Y-31320000I-147500J0D01*
G01*
X10537500Y-31320000D01*
G75*
G02*
X10390000Y-31172500I0J147500D01*
G01*
G37*
G36*
G01*
X9420000Y-31172500D02*
X9420000Y-30827500D01*
G75*
G02*
X9567500Y-30680000I147500J0D01*
G01*
X9862500Y-30680000D01*
G75*
G02*
X10010000Y-30827500I0J-147500D01*
G01*
X10010000Y-31172500D01*
G75*
G02*
X9862500Y-31320000I-147500J0D01*
G01*
X9567500Y-31320000D01*
G75*
G02*
X9420000Y-31172500I0J147500D01*
G01*
G37*
G36*
G01*
X9250001Y-50400000D02*
X8349999Y-50400000D01*
G75*
G02*
X8100000Y-50150001I0J249999D01*
G01*
X8100000Y-49499999D01*
G75*
G02*
X8349999Y-49250000I249999J0D01*
G01*
X9250001Y-49250000D01*
G75*
G02*
X9500000Y-49499999I0J-249999D01*
G01*
X9500000Y-50150001D01*
G75*
G02*
X9250001Y-50400000I-249999J0D01*
G01*
G37*
G36*
G01*
X9250001Y-48350000D02*
X8349999Y-48350000D01*
G75*
G02*
X8100000Y-48100001I0J249999D01*
G01*
X8100000Y-47449999D01*
G75*
G02*
X8349999Y-47200000I249999J0D01*
G01*
X9250001Y-47200000D01*
G75*
G02*
X9500000Y-47449999I0J-249999D01*
G01*
X9500000Y-48100001D01*
G75*
G02*
X9250001Y-48350000I-249999J0D01*
G01*
G37*
G36*
G01*
X17090000Y-27143001D02*
X17090000Y-26242999D01*
G75*
G02*
X17339999Y-25993000I249999J0D01*
G01*
X17990001Y-25993000D01*
G75*
G02*
X18240000Y-26242999I0J-249999D01*
G01*
X18240000Y-27143001D01*
G75*
G02*
X17990001Y-27393000I-249999J0D01*
G01*
X17339999Y-27393000D01*
G75*
G02*
X17090000Y-27143001I0J249999D01*
G01*
G37*
G36*
G01*
X15040000Y-27143001D02*
X15040000Y-26242999D01*
G75*
G02*
X15289999Y-25993000I249999J0D01*
G01*
X15940001Y-25993000D01*
G75*
G02*
X16190000Y-26242999I0J-249999D01*
G01*
X16190000Y-27143001D01*
G75*
G02*
X15940001Y-27393000I-249999J0D01*
G01*
X15289999Y-27393000D01*
G75*
G02*
X15040000Y-27143001I0J249999D01*
G01*
G37*
G36*
G01*
X20600000Y-3400001D02*
X20600000Y-2499999D01*
G75*
G02*
X20849999Y-2250000I249999J0D01*
G01*
X21500001Y-2250000D01*
G75*
G02*
X21750000Y-2499999I0J-249999D01*
G01*
X21750000Y-3400001D01*
G75*
G02*
X21500001Y-3650000I-249999J0D01*
G01*
X20849999Y-3650000D01*
G75*
G02*
X20600000Y-3400001I0J249999D01*
G01*
G37*
G36*
G01*
X18550000Y-3400001D02*
X18550000Y-2499999D01*
G75*
G02*
X18799999Y-2250000I249999J0D01*
G01*
X19450001Y-2250000D01*
G75*
G02*
X19700000Y-2499999I0J-249999D01*
G01*
X19700000Y-3400001D01*
G75*
G02*
X19450001Y-3650000I-249999J0D01*
G01*
X18799999Y-3650000D01*
G75*
G02*
X18550000Y-3400001I0J249999D01*
G01*
G37*
M02*
