G04 #@! TF.GenerationSoftware,KiCad,Pcbnew,5.1.6-c6e7f7d~86~ubuntu20.04.1*
G04 #@! TF.CreationDate,2020-05-18T13:47:47-07:00*
G04 #@! TF.ProjectId,glasgow-pmod,676c6173-676f-4772-9d70-6d6f642e6b69,rev?*
G04 #@! TF.SameCoordinates,PX90013c0PY44b6550*
G04 #@! TF.FileFunction,Legend,Top*
G04 #@! TF.FilePolarity,Positive*
%FSLAX46Y46*%
G04 Gerber Fmt 4.6, Leading zero omitted, Abs format (unit mm)*
G04 Created by KiCad (PCBNEW 5.1.6-c6e7f7d~86~ubuntu20.04.1) date 2020-05-18 13:47:47*
%MOMM*%
%LPD*%
G01*
G04 APERTURE LIST*
%ADD10C,0.300000*%
%ADD11C,0.010000*%
%ADD12C,0.120000*%
%ADD13C,1.000000*%
G04 APERTURE END LIST*
D10*
X6123809Y-34923809D02*
X4523809Y-34923809D01*
X5666666Y-34390476D01*
X4523809Y-33857142D01*
X6123809Y-33857142D01*
X6123809Y-32409523D02*
X5285714Y-32409523D01*
X5133333Y-32485714D01*
X5057142Y-32638095D01*
X5057142Y-32942857D01*
X5133333Y-33095238D01*
X6047619Y-32409523D02*
X6123809Y-32561904D01*
X6123809Y-32942857D01*
X6047619Y-33095238D01*
X5895238Y-33171428D01*
X5742857Y-33171428D01*
X5590476Y-33095238D01*
X5514285Y-32942857D01*
X5514285Y-32561904D01*
X5438095Y-32409523D01*
X5057142Y-31800000D02*
X6123809Y-31419047D01*
X5057142Y-31038095D02*
X6123809Y-31419047D01*
X6504761Y-31571428D01*
X6580952Y-31647619D01*
X6657142Y-31800000D01*
X4676190Y-29285714D02*
X4600000Y-29209523D01*
X4523809Y-29057142D01*
X4523809Y-28676190D01*
X4600000Y-28523809D01*
X4676190Y-28447619D01*
X4828571Y-28371428D01*
X4980952Y-28371428D01*
X5209523Y-28447619D01*
X6123809Y-29361904D01*
X6123809Y-28371428D01*
X4523809Y-27380952D02*
X4523809Y-27228571D01*
X4600000Y-27076190D01*
X4676190Y-27000000D01*
X4828571Y-26923809D01*
X5133333Y-26847619D01*
X5514285Y-26847619D01*
X5819047Y-26923809D01*
X5971428Y-27000000D01*
X6047619Y-27076190D01*
X6123809Y-27228571D01*
X6123809Y-27380952D01*
X6047619Y-27533333D01*
X5971428Y-27609523D01*
X5819047Y-27685714D01*
X5514285Y-27761904D01*
X5133333Y-27761904D01*
X4828571Y-27685714D01*
X4676190Y-27609523D01*
X4600000Y-27533333D01*
X4523809Y-27380952D01*
X4676190Y-26238095D02*
X4600000Y-26161904D01*
X4523809Y-26009523D01*
X4523809Y-25628571D01*
X4600000Y-25476190D01*
X4676190Y-25400000D01*
X4828571Y-25323809D01*
X4980952Y-25323809D01*
X5209523Y-25400000D01*
X6123809Y-26314285D01*
X6123809Y-25323809D01*
X4523809Y-24333333D02*
X4523809Y-24180952D01*
X4600000Y-24028571D01*
X4676190Y-23952380D01*
X4828571Y-23876190D01*
X5133333Y-23800000D01*
X5514285Y-23800000D01*
X5819047Y-23876190D01*
X5971428Y-23952380D01*
X6047619Y-24028571D01*
X6123809Y-24180952D01*
X6123809Y-24333333D01*
X6047619Y-24485714D01*
X5971428Y-24561904D01*
X5819047Y-24638095D01*
X5514285Y-24714285D01*
X5133333Y-24714285D01*
X4828571Y-24638095D01*
X4676190Y-24561904D01*
X4600000Y-24485714D01*
X4523809Y-24333333D01*
X22204761Y-29842857D02*
X21595238Y-29842857D01*
X21976190Y-30376190D02*
X21976190Y-29004761D01*
X21900000Y-28852380D01*
X21747619Y-28776190D01*
X21595238Y-28776190D01*
X20833333Y-28776190D02*
X20985714Y-28852380D01*
X21061904Y-28928571D01*
X21138095Y-29080952D01*
X21138095Y-29538095D01*
X21061904Y-29690476D01*
X20985714Y-29766666D01*
X20833333Y-29842857D01*
X20604761Y-29842857D01*
X20452380Y-29766666D01*
X20376190Y-29690476D01*
X20300000Y-29538095D01*
X20300000Y-29080952D01*
X20376190Y-28928571D01*
X20452380Y-28852380D01*
X20604761Y-28776190D01*
X20833333Y-28776190D01*
X19614285Y-28776190D02*
X19614285Y-29842857D01*
X19614285Y-29690476D02*
X19538095Y-29766666D01*
X19385714Y-29842857D01*
X19157142Y-29842857D01*
X19004761Y-29766666D01*
X18928571Y-29614285D01*
X18928571Y-28776190D01*
X18928571Y-29614285D02*
X18852380Y-29766666D01*
X18700000Y-29842857D01*
X18471428Y-29842857D01*
X18319047Y-29766666D01*
X18242857Y-29614285D01*
X18242857Y-28776190D01*
X16490476Y-29538095D02*
X16566666Y-29614285D01*
X16719047Y-29690476D01*
X16871428Y-29690476D01*
X17023809Y-29614285D01*
X17100000Y-29538095D01*
X17176190Y-29385714D01*
X17176190Y-29233333D01*
X17100000Y-29080952D01*
X17023809Y-29004761D01*
X16871428Y-28928571D01*
X16719047Y-28928571D01*
X16566666Y-29004761D01*
X16490476Y-29080952D01*
X16490476Y-29690476D02*
X16490476Y-29080952D01*
X16414285Y-29004761D01*
X16338095Y-29004761D01*
X16185714Y-29080952D01*
X16109523Y-29233333D01*
X16109523Y-29614285D01*
X16261904Y-29842857D01*
X16490476Y-29995238D01*
X16795238Y-30071428D01*
X17100000Y-29995238D01*
X17328571Y-29842857D01*
X17480952Y-29614285D01*
X17557142Y-29309523D01*
X17480952Y-29004761D01*
X17328571Y-28776190D01*
X17100000Y-28623809D01*
X16795238Y-28547619D01*
X16490476Y-28623809D01*
X16261904Y-28776190D01*
X15652380Y-29842857D02*
X15042857Y-29842857D01*
X15423809Y-30376190D02*
X15423809Y-29004761D01*
X15347619Y-28852380D01*
X15195238Y-28776190D01*
X15042857Y-28776190D01*
X14280952Y-28776190D02*
X14433333Y-28852380D01*
X14509523Y-28928571D01*
X14585714Y-29080952D01*
X14585714Y-29538095D01*
X14509523Y-29690476D01*
X14433333Y-29766666D01*
X14280952Y-29842857D01*
X14052380Y-29842857D01*
X13900000Y-29766666D01*
X13823809Y-29690476D01*
X13747619Y-29538095D01*
X13747619Y-29080952D01*
X13823809Y-28928571D01*
X13900000Y-28852380D01*
X14052380Y-28776190D01*
X14280952Y-28776190D01*
X13061904Y-28776190D02*
X13061904Y-29842857D01*
X13061904Y-29690476D02*
X12985714Y-29766666D01*
X12833333Y-29842857D01*
X12604761Y-29842857D01*
X12452380Y-29766666D01*
X12376190Y-29614285D01*
X12376190Y-28776190D01*
X12376190Y-29614285D02*
X12300000Y-29766666D01*
X12147619Y-29842857D01*
X11919047Y-29842857D01*
X11766666Y-29766666D01*
X11690476Y-29614285D01*
X11690476Y-28776190D01*
X10928571Y-28776190D02*
X10928571Y-30376190D01*
X10776190Y-29385714D02*
X10319047Y-28776190D01*
X10319047Y-29842857D02*
X10928571Y-29233333D01*
X9633333Y-28928571D02*
X9557142Y-28852380D01*
X9633333Y-28776190D01*
X9709523Y-28852380D01*
X9633333Y-28928571D01*
X9633333Y-28776190D01*
X8871428Y-28776190D02*
X8871428Y-29842857D01*
X8871428Y-30376190D02*
X8947619Y-30300000D01*
X8871428Y-30223809D01*
X8795238Y-30300000D01*
X8871428Y-30376190D01*
X8871428Y-30223809D01*
X8109523Y-29842857D02*
X8109523Y-28776190D01*
X8109523Y-29690476D02*
X8033333Y-29766666D01*
X7880952Y-29842857D01*
X7652380Y-29842857D01*
X7500000Y-29766666D01*
X7423809Y-29614285D01*
X7423809Y-28776190D01*
X1550000Y-34054761D02*
X1473809Y-34207142D01*
X1473809Y-34435714D01*
X1550000Y-34664285D01*
X1702380Y-34816666D01*
X1854761Y-34892857D01*
X2159523Y-34969047D01*
X2388095Y-34969047D01*
X2692857Y-34892857D01*
X2845238Y-34816666D01*
X2997619Y-34664285D01*
X3073809Y-34435714D01*
X3073809Y-34283333D01*
X2997619Y-34054761D01*
X2921428Y-33978571D01*
X2388095Y-33978571D01*
X2388095Y-34283333D01*
X3073809Y-33064285D02*
X2997619Y-33216666D01*
X2845238Y-33292857D01*
X1473809Y-33292857D01*
X3073809Y-31769047D02*
X2235714Y-31769047D01*
X2083333Y-31845238D01*
X2007142Y-31997619D01*
X2007142Y-32302380D01*
X2083333Y-32454761D01*
X2997619Y-31769047D02*
X3073809Y-31921428D01*
X3073809Y-32302380D01*
X2997619Y-32454761D01*
X2845238Y-32530952D01*
X2692857Y-32530952D01*
X2540476Y-32454761D01*
X2464285Y-32302380D01*
X2464285Y-31921428D01*
X2388095Y-31769047D01*
X2997619Y-31083333D02*
X3073809Y-30930952D01*
X3073809Y-30626190D01*
X2997619Y-30473809D01*
X2845238Y-30397619D01*
X2769047Y-30397619D01*
X2616666Y-30473809D01*
X2540476Y-30626190D01*
X2540476Y-30854761D01*
X2464285Y-31007142D01*
X2311904Y-31083333D01*
X2235714Y-31083333D01*
X2083333Y-31007142D01*
X2007142Y-30854761D01*
X2007142Y-30626190D01*
X2083333Y-30473809D01*
X2007142Y-29026190D02*
X3302380Y-29026190D01*
X3454761Y-29102380D01*
X3530952Y-29178571D01*
X3607142Y-29330952D01*
X3607142Y-29559523D01*
X3530952Y-29711904D01*
X2997619Y-29026190D02*
X3073809Y-29178571D01*
X3073809Y-29483333D01*
X2997619Y-29635714D01*
X2921428Y-29711904D01*
X2769047Y-29788095D01*
X2311904Y-29788095D01*
X2159523Y-29711904D01*
X2083333Y-29635714D01*
X2007142Y-29483333D01*
X2007142Y-29178571D01*
X2083333Y-29026190D01*
X3073809Y-28035714D02*
X2997619Y-28188095D01*
X2921428Y-28264285D01*
X2769047Y-28340476D01*
X2311904Y-28340476D01*
X2159523Y-28264285D01*
X2083333Y-28188095D01*
X2007142Y-28035714D01*
X2007142Y-27807142D01*
X2083333Y-27654761D01*
X2159523Y-27578571D01*
X2311904Y-27502380D01*
X2769047Y-27502380D01*
X2921428Y-27578571D01*
X2997619Y-27654761D01*
X3073809Y-27807142D01*
X3073809Y-28035714D01*
X2007142Y-26969047D02*
X3073809Y-26664285D01*
X2311904Y-26359523D01*
X3073809Y-26054761D01*
X2007142Y-25750000D01*
X3073809Y-23159523D02*
X3073809Y-23921428D01*
X1473809Y-23921428D01*
X1473809Y-22854761D02*
X3073809Y-22321428D01*
X1473809Y-21788095D01*
X3073809Y-21254761D02*
X1473809Y-21254761D01*
X1473809Y-20873809D01*
X1550000Y-20645238D01*
X1702380Y-20492857D01*
X1854761Y-20416666D01*
X2159523Y-20340476D01*
X2388095Y-20340476D01*
X2692857Y-20416666D01*
X2845238Y-20492857D01*
X2997619Y-20645238D01*
X3073809Y-20873809D01*
X3073809Y-21254761D01*
X2997619Y-19730952D02*
X3073809Y-19502380D01*
X3073809Y-19121428D01*
X2997619Y-18969047D01*
X2921428Y-18892857D01*
X2769047Y-18816666D01*
X2616666Y-18816666D01*
X2464285Y-18892857D01*
X2388095Y-18969047D01*
X2311904Y-19121428D01*
X2235714Y-19426190D01*
X2159523Y-19578571D01*
X2083333Y-19654761D01*
X1930952Y-19730952D01*
X1778571Y-19730952D01*
X1626190Y-19654761D01*
X1550000Y-19578571D01*
X1473809Y-19426190D01*
X1473809Y-19045238D01*
X1550000Y-18816666D01*
X2464285Y-18130952D02*
X2464285Y-16911904D01*
X3073809Y-16150000D02*
X1473809Y-16150000D01*
X1473809Y-15540476D01*
X1550000Y-15388095D01*
X1626190Y-15311904D01*
X1778571Y-15235714D01*
X2007142Y-15235714D01*
X2159523Y-15311904D01*
X2235714Y-15388095D01*
X2311904Y-15540476D01*
X2311904Y-16150000D01*
X3073809Y-14550000D02*
X1473809Y-14550000D01*
X2616666Y-14016666D01*
X1473809Y-13483333D01*
X3073809Y-13483333D01*
X1473809Y-12416666D02*
X1473809Y-12111904D01*
X1550000Y-11959523D01*
X1702380Y-11807142D01*
X2007142Y-11730952D01*
X2540476Y-11730952D01*
X2845238Y-11807142D01*
X2997619Y-11959523D01*
X3073809Y-12111904D01*
X3073809Y-12416666D01*
X2997619Y-12569047D01*
X2845238Y-12721428D01*
X2540476Y-12797619D01*
X2007142Y-12797619D01*
X1702380Y-12721428D01*
X1550000Y-12569047D01*
X1473809Y-12416666D01*
X3073809Y-11045238D02*
X1473809Y-11045238D01*
X1473809Y-10664285D01*
X1550000Y-10435714D01*
X1702380Y-10283333D01*
X1854761Y-10207142D01*
X2159523Y-10130952D01*
X2388095Y-10130952D01*
X2692857Y-10207142D01*
X2845238Y-10283333D01*
X2997619Y-10435714D01*
X3073809Y-10664285D01*
X3073809Y-11045238D01*
D11*
G36*
X2646557Y-46020832D02*
G01*
X2685792Y-45703726D01*
X2827867Y-45172127D01*
X3042503Y-44679353D01*
X3324436Y-44231036D01*
X3668400Y-43832805D01*
X4069129Y-43490290D01*
X4521359Y-43209122D01*
X5019823Y-42994930D01*
X5297280Y-42911440D01*
X5556233Y-42865472D01*
X5864017Y-42843520D01*
X6188278Y-42845563D01*
X6496662Y-42871584D01*
X6720896Y-42912236D01*
X7014749Y-43009202D01*
X7340003Y-43159520D01*
X7673898Y-43351465D01*
X7971223Y-43556303D01*
X8123505Y-43667513D01*
X8265707Y-43765581D01*
X8373233Y-43833711D01*
X8395618Y-43846094D01*
X8572697Y-43915838D01*
X8811267Y-43978935D01*
X9088188Y-44031231D01*
X9380319Y-44068575D01*
X9664520Y-44086814D01*
X9743334Y-44087938D01*
X10050003Y-44076623D01*
X10299086Y-44035989D01*
X10515178Y-43957075D01*
X10722876Y-43830921D01*
X10944942Y-43650195D01*
X11120299Y-43505501D01*
X11248573Y-43424103D01*
X11320373Y-43406249D01*
X11349364Y-43426058D01*
X11394654Y-43482156D01*
X11458972Y-43579339D01*
X11545047Y-43722405D01*
X11655610Y-43916152D01*
X11793390Y-44165377D01*
X11961117Y-44474878D01*
X12161520Y-44849452D01*
X12397330Y-45293898D01*
X12435719Y-45366500D01*
X12634139Y-45743462D01*
X12820047Y-46099679D01*
X12989721Y-46427808D01*
X13139439Y-46720508D01*
X13265480Y-46970436D01*
X13364121Y-47170251D01*
X13431641Y-47312609D01*
X13464317Y-47390169D01*
X13466833Y-47400616D01*
X13444965Y-47497023D01*
X13417867Y-47538200D01*
X13357721Y-47574725D01*
X13265345Y-47585713D01*
X13125440Y-47570677D01*
X12922706Y-47529127D01*
X12889210Y-47521348D01*
X12593498Y-47476218D01*
X12276859Y-47477994D01*
X11922764Y-47527792D01*
X11574250Y-47610269D01*
X11369624Y-47667069D01*
X11236468Y-47715439D01*
X11164997Y-47770734D01*
X11145423Y-47848309D01*
X11167960Y-47963517D01*
X11222821Y-48131713D01*
X11229442Y-48151252D01*
X11303966Y-48497166D01*
X11295306Y-48841389D01*
X11204754Y-49176557D01*
X11033604Y-49495309D01*
X10980570Y-49568692D01*
X10812117Y-49738502D01*
X10573680Y-49906396D01*
X10279862Y-50066768D01*
X9945266Y-50214014D01*
X9584494Y-50342530D01*
X9212148Y-50446709D01*
X8842833Y-50520948D01*
X8491149Y-50559641D01*
X8388667Y-50563530D01*
X8225941Y-50563349D01*
X8189227Y-50559482D01*
X8189227Y-50169654D01*
X8306479Y-50168684D01*
X8488772Y-50158076D01*
X8490403Y-50157970D01*
X8872117Y-50110028D01*
X9290862Y-50017051D01*
X9717175Y-49886415D01*
X9989492Y-49782687D01*
X10209404Y-49678096D01*
X10391751Y-49555125D01*
X10572724Y-49391019D01*
X10764407Y-49167665D01*
X10880799Y-48946741D01*
X10924458Y-48714193D01*
X10897942Y-48455968D01*
X10803806Y-48158013D01*
X10799196Y-48146385D01*
X10666761Y-47843422D01*
X10496700Y-47498608D01*
X10302556Y-47137547D01*
X10097873Y-46785842D01*
X9977027Y-46592121D01*
X9854237Y-46404495D01*
X9715144Y-46197651D01*
X9567927Y-45983116D01*
X9420765Y-45772415D01*
X9281836Y-45577074D01*
X9159320Y-45408618D01*
X9061394Y-45278574D01*
X8996239Y-45198467D01*
X8973603Y-45178069D01*
X8938915Y-45210775D01*
X8919481Y-45255476D01*
X8930203Y-45330638D01*
X8987537Y-45475025D01*
X9090980Y-45687514D01*
X9227101Y-45943393D01*
X9357269Y-46185720D01*
X9485665Y-46432633D01*
X9606642Y-46672410D01*
X9714557Y-46893331D01*
X9803763Y-47083675D01*
X9868618Y-47231721D01*
X9903474Y-47325749D01*
X9906421Y-47353879D01*
X9846610Y-47376809D01*
X9728419Y-47403191D01*
X9577786Y-47428813D01*
X9420652Y-47449462D01*
X9282954Y-47460927D01*
X9240629Y-47462000D01*
X9167942Y-47461540D01*
X9107041Y-47455024D01*
X9050776Y-47434746D01*
X8991994Y-47393001D01*
X8923544Y-47322083D01*
X8838275Y-47214286D01*
X8729035Y-47061906D01*
X8588673Y-46857237D01*
X8410037Y-46592574D01*
X8347449Y-46499634D01*
X8193287Y-46272214D01*
X8052922Y-46067914D01*
X7933878Y-45897461D01*
X7843679Y-45771584D01*
X7789849Y-45701013D01*
X7780035Y-45690554D01*
X7704022Y-45652537D01*
X7623825Y-45627474D01*
X7593514Y-45624242D01*
X7577818Y-45637328D01*
X7580040Y-45674826D01*
X7603483Y-45744831D01*
X7651451Y-45855438D01*
X7727247Y-46014740D01*
X7834173Y-46230833D01*
X7975534Y-46511812D01*
X8023086Y-46605886D01*
X8198111Y-46956325D01*
X8333420Y-47237369D01*
X8430927Y-47453350D01*
X8492543Y-47608601D01*
X8520183Y-47707452D01*
X8521991Y-47735517D01*
X8502117Y-47879532D01*
X8461049Y-48085234D01*
X8403519Y-48333708D01*
X8334262Y-48606043D01*
X8258009Y-48883326D01*
X8179495Y-49146642D01*
X8132010Y-49293830D01*
X8052665Y-49537399D01*
X8001207Y-49716560D01*
X7975814Y-49846187D01*
X7974664Y-49941154D01*
X7995935Y-50016336D01*
X8035319Y-50083080D01*
X8072886Y-50130018D01*
X8117775Y-50157821D01*
X8189227Y-50169654D01*
X8189227Y-50559482D01*
X8099470Y-50550027D01*
X7987410Y-50514939D01*
X7867918Y-50449459D01*
X7719153Y-50344961D01*
X7592719Y-50249199D01*
X7421925Y-50124670D01*
X7290847Y-50049896D01*
X7176696Y-50017519D01*
X7056685Y-50020182D01*
X6947950Y-50041018D01*
X6637143Y-50083257D01*
X6299697Y-50080058D01*
X5973799Y-50033402D01*
X5786503Y-49980799D01*
X5623882Y-49927078D01*
X5510501Y-49902587D01*
X5417466Y-49903944D01*
X5320836Y-49926322D01*
X5212670Y-49945585D01*
X5042765Y-49961777D01*
X4834041Y-49973244D01*
X4609415Y-49978330D01*
X4599834Y-49978380D01*
X4364830Y-49977760D01*
X4197930Y-49972195D01*
X4082629Y-49959802D01*
X4002417Y-49938697D01*
X3940790Y-49906996D01*
X3933829Y-49902370D01*
X3783228Y-49755203D01*
X3671155Y-49555862D01*
X3625010Y-49398750D01*
X3588599Y-49285860D01*
X3537871Y-49240262D01*
X3533532Y-49240000D01*
X3466217Y-49211925D01*
X3374831Y-49141986D01*
X3347744Y-49116256D01*
X3261575Y-49007696D01*
X3227420Y-48887826D01*
X3224000Y-48808583D01*
X3189539Y-48605853D01*
X3115047Y-48464315D01*
X2977366Y-48238290D01*
X2893573Y-48032505D01*
X2852823Y-47812631D01*
X2843930Y-47606210D01*
X2823862Y-47298544D01*
X2762407Y-47036302D01*
X2754570Y-47013544D01*
X2680238Y-46718290D01*
X2643696Y-46377162D01*
X2646557Y-46020832D01*
G37*
X2646557Y-46020832D02*
X2685792Y-45703726D01*
X2827867Y-45172127D01*
X3042503Y-44679353D01*
X3324436Y-44231036D01*
X3668400Y-43832805D01*
X4069129Y-43490290D01*
X4521359Y-43209122D01*
X5019823Y-42994930D01*
X5297280Y-42911440D01*
X5556233Y-42865472D01*
X5864017Y-42843520D01*
X6188278Y-42845563D01*
X6496662Y-42871584D01*
X6720896Y-42912236D01*
X7014749Y-43009202D01*
X7340003Y-43159520D01*
X7673898Y-43351465D01*
X7971223Y-43556303D01*
X8123505Y-43667513D01*
X8265707Y-43765581D01*
X8373233Y-43833711D01*
X8395618Y-43846094D01*
X8572697Y-43915838D01*
X8811267Y-43978935D01*
X9088188Y-44031231D01*
X9380319Y-44068575D01*
X9664520Y-44086814D01*
X9743334Y-44087938D01*
X10050003Y-44076623D01*
X10299086Y-44035989D01*
X10515178Y-43957075D01*
X10722876Y-43830921D01*
X10944942Y-43650195D01*
X11120299Y-43505501D01*
X11248573Y-43424103D01*
X11320373Y-43406249D01*
X11349364Y-43426058D01*
X11394654Y-43482156D01*
X11458972Y-43579339D01*
X11545047Y-43722405D01*
X11655610Y-43916152D01*
X11793390Y-44165377D01*
X11961117Y-44474878D01*
X12161520Y-44849452D01*
X12397330Y-45293898D01*
X12435719Y-45366500D01*
X12634139Y-45743462D01*
X12820047Y-46099679D01*
X12989721Y-46427808D01*
X13139439Y-46720508D01*
X13265480Y-46970436D01*
X13364121Y-47170251D01*
X13431641Y-47312609D01*
X13464317Y-47390169D01*
X13466833Y-47400616D01*
X13444965Y-47497023D01*
X13417867Y-47538200D01*
X13357721Y-47574725D01*
X13265345Y-47585713D01*
X13125440Y-47570677D01*
X12922706Y-47529127D01*
X12889210Y-47521348D01*
X12593498Y-47476218D01*
X12276859Y-47477994D01*
X11922764Y-47527792D01*
X11574250Y-47610269D01*
X11369624Y-47667069D01*
X11236468Y-47715439D01*
X11164997Y-47770734D01*
X11145423Y-47848309D01*
X11167960Y-47963517D01*
X11222821Y-48131713D01*
X11229442Y-48151252D01*
X11303966Y-48497166D01*
X11295306Y-48841389D01*
X11204754Y-49176557D01*
X11033604Y-49495309D01*
X10980570Y-49568692D01*
X10812117Y-49738502D01*
X10573680Y-49906396D01*
X10279862Y-50066768D01*
X9945266Y-50214014D01*
X9584494Y-50342530D01*
X9212148Y-50446709D01*
X8842833Y-50520948D01*
X8491149Y-50559641D01*
X8388667Y-50563530D01*
X8225941Y-50563349D01*
X8189227Y-50559482D01*
X8189227Y-50169654D01*
X8306479Y-50168684D01*
X8488772Y-50158076D01*
X8490403Y-50157970D01*
X8872117Y-50110028D01*
X9290862Y-50017051D01*
X9717175Y-49886415D01*
X9989492Y-49782687D01*
X10209404Y-49678096D01*
X10391751Y-49555125D01*
X10572724Y-49391019D01*
X10764407Y-49167665D01*
X10880799Y-48946741D01*
X10924458Y-48714193D01*
X10897942Y-48455968D01*
X10803806Y-48158013D01*
X10799196Y-48146385D01*
X10666761Y-47843422D01*
X10496700Y-47498608D01*
X10302556Y-47137547D01*
X10097873Y-46785842D01*
X9977027Y-46592121D01*
X9854237Y-46404495D01*
X9715144Y-46197651D01*
X9567927Y-45983116D01*
X9420765Y-45772415D01*
X9281836Y-45577074D01*
X9159320Y-45408618D01*
X9061394Y-45278574D01*
X8996239Y-45198467D01*
X8973603Y-45178069D01*
X8938915Y-45210775D01*
X8919481Y-45255476D01*
X8930203Y-45330638D01*
X8987537Y-45475025D01*
X9090980Y-45687514D01*
X9227101Y-45943393D01*
X9357269Y-46185720D01*
X9485665Y-46432633D01*
X9606642Y-46672410D01*
X9714557Y-46893331D01*
X9803763Y-47083675D01*
X9868618Y-47231721D01*
X9903474Y-47325749D01*
X9906421Y-47353879D01*
X9846610Y-47376809D01*
X9728419Y-47403191D01*
X9577786Y-47428813D01*
X9420652Y-47449462D01*
X9282954Y-47460927D01*
X9240629Y-47462000D01*
X9167942Y-47461540D01*
X9107041Y-47455024D01*
X9050776Y-47434746D01*
X8991994Y-47393001D01*
X8923544Y-47322083D01*
X8838275Y-47214286D01*
X8729035Y-47061906D01*
X8588673Y-46857237D01*
X8410037Y-46592574D01*
X8347449Y-46499634D01*
X8193287Y-46272214D01*
X8052922Y-46067914D01*
X7933878Y-45897461D01*
X7843679Y-45771584D01*
X7789849Y-45701013D01*
X7780035Y-45690554D01*
X7704022Y-45652537D01*
X7623825Y-45627474D01*
X7593514Y-45624242D01*
X7577818Y-45637328D01*
X7580040Y-45674826D01*
X7603483Y-45744831D01*
X7651451Y-45855438D01*
X7727247Y-46014740D01*
X7834173Y-46230833D01*
X7975534Y-46511812D01*
X8023086Y-46605886D01*
X8198111Y-46956325D01*
X8333420Y-47237369D01*
X8430927Y-47453350D01*
X8492543Y-47608601D01*
X8520183Y-47707452D01*
X8521991Y-47735517D01*
X8502117Y-47879532D01*
X8461049Y-48085234D01*
X8403519Y-48333708D01*
X8334262Y-48606043D01*
X8258009Y-48883326D01*
X8179495Y-49146642D01*
X8132010Y-49293830D01*
X8052665Y-49537399D01*
X8001207Y-49716560D01*
X7975814Y-49846187D01*
X7974664Y-49941154D01*
X7995935Y-50016336D01*
X8035319Y-50083080D01*
X8072886Y-50130018D01*
X8117775Y-50157821D01*
X8189227Y-50169654D01*
X8189227Y-50559482D01*
X8099470Y-50550027D01*
X7987410Y-50514939D01*
X7867918Y-50449459D01*
X7719153Y-50344961D01*
X7592719Y-50249199D01*
X7421925Y-50124670D01*
X7290847Y-50049896D01*
X7176696Y-50017519D01*
X7056685Y-50020182D01*
X6947950Y-50041018D01*
X6637143Y-50083257D01*
X6299697Y-50080058D01*
X5973799Y-50033402D01*
X5786503Y-49980799D01*
X5623882Y-49927078D01*
X5510501Y-49902587D01*
X5417466Y-49903944D01*
X5320836Y-49926322D01*
X5212670Y-49945585D01*
X5042765Y-49961777D01*
X4834041Y-49973244D01*
X4609415Y-49978330D01*
X4599834Y-49978380D01*
X4364830Y-49977760D01*
X4197930Y-49972195D01*
X4082629Y-49959802D01*
X4002417Y-49938697D01*
X3940790Y-49906996D01*
X3933829Y-49902370D01*
X3783228Y-49755203D01*
X3671155Y-49555862D01*
X3625010Y-49398750D01*
X3588599Y-49285860D01*
X3537871Y-49240262D01*
X3533532Y-49240000D01*
X3466217Y-49211925D01*
X3374831Y-49141986D01*
X3347744Y-49116256D01*
X3261575Y-49007696D01*
X3227420Y-48887826D01*
X3224000Y-48808583D01*
X3189539Y-48605853D01*
X3115047Y-48464315D01*
X2977366Y-48238290D01*
X2893573Y-48032505D01*
X2852823Y-47812631D01*
X2843930Y-47606210D01*
X2823862Y-47298544D01*
X2762407Y-47036302D01*
X2754570Y-47013544D01*
X2680238Y-46718290D01*
X2643696Y-46377162D01*
X2646557Y-46020832D01*
D12*
X22000000Y-6500000D02*
G75*
G03*
X22000000Y-6500000I-1500000J0D01*
G01*
X2794500Y-39202000D02*
G75*
G03*
X2794500Y-39202000I-950000J0D01*
G01*
X2794500Y-41742000D02*
G75*
G03*
X2794500Y-41742000I-950000J0D01*
G01*
D13*
X15000000Y-32930000D02*
G75*
G03*
X15000000Y-32930000I-100000J0D01*
G01*
X15000000Y-10070000D02*
G75*
G03*
X15000000Y-10070000I-100000J0D01*
G01*
X2530000Y-8240000D02*
G75*
G03*
X2530000Y-8240000I-100000J0D01*
G01*
D12*
X16901252Y-50390000D02*
X16378748Y-50390000D01*
X16901252Y-48970000D02*
X16378748Y-48970000D01*
X16378748Y-25983000D02*
X16901252Y-25983000D01*
X16378748Y-27403000D02*
X16901252Y-27403000D01*
X19888748Y-2240000D02*
X20411252Y-2240000D01*
X19888748Y-3660000D02*
X20411252Y-3660000D01*
D10*
X2630952Y-38323809D02*
X3545238Y-38323809D01*
X3088095Y-39923809D02*
X3088095Y-38323809D01*
X4078571Y-39923809D02*
X4078571Y-38323809D01*
X4688095Y-38323809D01*
X4840476Y-38400000D01*
X4916666Y-38476190D01*
X4992857Y-38628571D01*
X4992857Y-38857142D01*
X4916666Y-39009523D01*
X4840476Y-39085714D01*
X4688095Y-39161904D01*
X4078571Y-39161904D01*
X5602380Y-38476190D02*
X5678571Y-38400000D01*
X5830952Y-38323809D01*
X6211904Y-38323809D01*
X6364285Y-38400000D01*
X6440476Y-38476190D01*
X6516666Y-38628571D01*
X6516666Y-38780952D01*
X6440476Y-39009523D01*
X5526190Y-39923809D01*
X6516666Y-39923809D01*
X2630952Y-40873809D02*
X3545238Y-40873809D01*
X3088095Y-42473809D02*
X3088095Y-40873809D01*
X4078571Y-42473809D02*
X4078571Y-40873809D01*
X4688095Y-40873809D01*
X4840476Y-40950000D01*
X4916666Y-41026190D01*
X4992857Y-41178571D01*
X4992857Y-41407142D01*
X4916666Y-41559523D01*
X4840476Y-41635714D01*
X4688095Y-41711904D01*
X4078571Y-41711904D01*
X6516666Y-42473809D02*
X5602380Y-42473809D01*
X6059523Y-42473809D02*
X6059523Y-40873809D01*
X5907142Y-41102380D01*
X5754761Y-41254761D01*
X5602380Y-41330952D01*
X20551666Y-31214309D02*
X20551666Y-32357166D01*
X20475476Y-32585738D01*
X20323095Y-32738119D01*
X20094523Y-32814309D01*
X19942142Y-32814309D01*
X21999285Y-31747642D02*
X21999285Y-32814309D01*
X21618333Y-31138119D02*
X21237380Y-32280976D01*
X22227857Y-32280976D01*
X20678666Y-8671809D02*
X20678666Y-9814666D01*
X20602476Y-10043238D01*
X20450095Y-10195619D01*
X20221523Y-10271809D01*
X20069142Y-10271809D01*
X21288190Y-8671809D02*
X22278666Y-8671809D01*
X21745333Y-9281333D01*
X21973904Y-9281333D01*
X22126285Y-9357523D01*
X22202476Y-9433714D01*
X22278666Y-9586095D01*
X22278666Y-9967047D01*
X22202476Y-10119428D01*
X22126285Y-10195619D01*
X21973904Y-10271809D01*
X21516761Y-10271809D01*
X21364380Y-10195619D01*
X21288190Y-10119428D01*
X841309Y-5382333D02*
X1984166Y-5382333D01*
X2212738Y-5458523D01*
X2365119Y-5610904D01*
X2441309Y-5839476D01*
X2441309Y-5991857D01*
X993690Y-4696619D02*
X917500Y-4620428D01*
X841309Y-4468047D01*
X841309Y-4087095D01*
X917500Y-3934714D01*
X993690Y-3858523D01*
X1146071Y-3782333D01*
X1298452Y-3782333D01*
X1527023Y-3858523D01*
X2441309Y-4772809D01*
X2441309Y-3782333D01*
X19675333Y-50251428D02*
X19599142Y-50327619D01*
X19370571Y-50403809D01*
X19218190Y-50403809D01*
X18989619Y-50327619D01*
X18837238Y-50175238D01*
X18761047Y-50022857D01*
X18684857Y-49718095D01*
X18684857Y-49489523D01*
X18761047Y-49184761D01*
X18837238Y-49032380D01*
X18989619Y-48880000D01*
X19218190Y-48803809D01*
X19370571Y-48803809D01*
X19599142Y-48880000D01*
X19675333Y-48956190D01*
X20208666Y-48803809D02*
X21199142Y-48803809D01*
X20665809Y-49413333D01*
X20894380Y-49413333D01*
X21046761Y-49489523D01*
X21122952Y-49565714D01*
X21199142Y-49718095D01*
X21199142Y-50099047D01*
X21122952Y-50251428D01*
X21046761Y-50327619D01*
X20894380Y-50403809D01*
X20437238Y-50403809D01*
X20284857Y-50327619D01*
X20208666Y-50251428D01*
X20056333Y-27264428D02*
X19980142Y-27340619D01*
X19751571Y-27416809D01*
X19599190Y-27416809D01*
X19370619Y-27340619D01*
X19218238Y-27188238D01*
X19142047Y-27035857D01*
X19065857Y-26731095D01*
X19065857Y-26502523D01*
X19142047Y-26197761D01*
X19218238Y-26045380D01*
X19370619Y-25893000D01*
X19599190Y-25816809D01*
X19751571Y-25816809D01*
X19980142Y-25893000D01*
X20056333Y-25969190D01*
X20665857Y-25969190D02*
X20742047Y-25893000D01*
X20894428Y-25816809D01*
X21275380Y-25816809D01*
X21427761Y-25893000D01*
X21503952Y-25969190D01*
X21580142Y-26121571D01*
X21580142Y-26273952D01*
X21503952Y-26502523D01*
X20589666Y-27416809D01*
X21580142Y-27416809D01*
X16433333Y-2421428D02*
X16357142Y-2497619D01*
X16128571Y-2573809D01*
X15976190Y-2573809D01*
X15747619Y-2497619D01*
X15595238Y-2345238D01*
X15519047Y-2192857D01*
X15442857Y-1888095D01*
X15442857Y-1659523D01*
X15519047Y-1354761D01*
X15595238Y-1202380D01*
X15747619Y-1050000D01*
X15976190Y-973809D01*
X16128571Y-973809D01*
X16357142Y-1050000D01*
X16433333Y-1126190D01*
X17957142Y-2573809D02*
X17042857Y-2573809D01*
X17500000Y-2573809D02*
X17500000Y-973809D01*
X17347619Y-1202380D01*
X17195238Y-1354761D01*
X17042857Y-1430952D01*
M02*
