G04 #@! TF.GenerationSoftware,KiCad,Pcbnew,5.1.6-c6e7f7d~86~ubuntu20.04.1*
G04 #@! TF.CreationDate,2020-06-28T08:51:03-07:00*
G04 #@! TF.ProjectId,glasgow-pmod,676c6173-676f-4772-9d70-6d6f642e6b69,rev?*
G04 #@! TF.SameCoordinates,PX90013c0PY44b6550*
G04 #@! TF.FileFunction,Soldermask,Top*
G04 #@! TF.FilePolarity,Negative*
%FSLAX46Y46*%
G04 Gerber Fmt 4.6, Leading zero omitted, Abs format (unit mm)*
G04 Created by KiCad (PCBNEW 5.1.6-c6e7f7d~86~ubuntu20.04.1) date 2020-06-28 08:51:03*
%MOMM*%
%LPD*%
G01*
G04 APERTURE LIST*
%ADD10C,0.100000*%
G04 APERTURE END LIST*
D10*
G36*
X9388674Y-49203465D02*
G01*
X9426367Y-49214899D01*
X9461103Y-49233466D01*
X9491548Y-49258452D01*
X9516534Y-49288897D01*
X9535101Y-49323633D01*
X9546535Y-49361326D01*
X9551000Y-49406661D01*
X9551000Y-50243339D01*
X9546535Y-50288674D01*
X9535101Y-50326367D01*
X9516534Y-50361103D01*
X9491548Y-50391548D01*
X9461103Y-50416534D01*
X9426367Y-50435101D01*
X9388674Y-50446535D01*
X9343339Y-50451000D01*
X8256661Y-50451000D01*
X8211326Y-50446535D01*
X8173633Y-50435101D01*
X8138897Y-50416534D01*
X8108452Y-50391548D01*
X8083466Y-50361103D01*
X8064899Y-50326367D01*
X8053465Y-50288674D01*
X8049000Y-50243339D01*
X8049000Y-49406661D01*
X8053465Y-49361326D01*
X8064899Y-49323633D01*
X8083466Y-49288897D01*
X8108452Y-49258452D01*
X8138897Y-49233466D01*
X8173633Y-49214899D01*
X8211326Y-49203465D01*
X8256661Y-49199000D01*
X9343339Y-49199000D01*
X9388674Y-49203465D01*
G37*
G36*
X9388674Y-47153465D02*
G01*
X9426367Y-47164899D01*
X9461103Y-47183466D01*
X9491548Y-47208452D01*
X9516534Y-47238897D01*
X9535101Y-47273633D01*
X9546535Y-47311326D01*
X9551000Y-47356661D01*
X9551000Y-48193339D01*
X9546535Y-48238674D01*
X9535101Y-48276367D01*
X9516534Y-48311103D01*
X9491548Y-48341548D01*
X9461103Y-48366534D01*
X9426367Y-48385101D01*
X9388674Y-48396535D01*
X9343339Y-48401000D01*
X8256661Y-48401000D01*
X8211326Y-48396535D01*
X8173633Y-48385101D01*
X8138897Y-48366534D01*
X8108452Y-48341548D01*
X8083466Y-48311103D01*
X8064899Y-48276367D01*
X8053465Y-48238674D01*
X8049000Y-48193339D01*
X8049000Y-47356661D01*
X8053465Y-47311326D01*
X8064899Y-47273633D01*
X8083466Y-47238897D01*
X8108452Y-47208452D01*
X8138897Y-47183466D01*
X8173633Y-47164899D01*
X8211326Y-47153465D01*
X8256661Y-47149000D01*
X9343339Y-47149000D01*
X9388674Y-47153465D01*
G37*
G36*
X15500443Y-46245519D02*
G01*
X15566627Y-46252037D01*
X15736466Y-46303557D01*
X15892991Y-46387222D01*
X15928729Y-46416552D01*
X16030186Y-46499814D01*
X16113448Y-46601271D01*
X16142778Y-46637009D01*
X16226443Y-46793534D01*
X16277963Y-46963373D01*
X16295359Y-47140000D01*
X16277963Y-47316627D01*
X16226443Y-47486466D01*
X16142778Y-47642991D01*
X16113448Y-47678729D01*
X16030186Y-47780186D01*
X15928729Y-47863448D01*
X15892991Y-47892778D01*
X15736466Y-47976443D01*
X15566627Y-48027963D01*
X15500443Y-48034481D01*
X15434260Y-48041000D01*
X14505740Y-48041000D01*
X14439557Y-48034481D01*
X14373373Y-48027963D01*
X14203534Y-47976443D01*
X14047009Y-47892778D01*
X14011271Y-47863448D01*
X13909814Y-47780186D01*
X13826552Y-47678729D01*
X13797222Y-47642991D01*
X13713557Y-47486466D01*
X13662037Y-47316627D01*
X13644641Y-47140000D01*
X13662037Y-46963373D01*
X13713557Y-46793534D01*
X13797222Y-46637009D01*
X13826552Y-46601271D01*
X13909814Y-46499814D01*
X14011271Y-46416552D01*
X14047009Y-46387222D01*
X14203534Y-46303557D01*
X14373373Y-46252037D01*
X14439557Y-46245519D01*
X14505740Y-46239000D01*
X15434260Y-46239000D01*
X15500443Y-46245519D01*
G37*
G36*
X18840443Y-46245519D02*
G01*
X18906627Y-46252037D01*
X19076466Y-46303557D01*
X19232991Y-46387222D01*
X19268729Y-46416552D01*
X19370186Y-46499814D01*
X19453448Y-46601271D01*
X19482778Y-46637009D01*
X19566443Y-46793534D01*
X19617963Y-46963373D01*
X19635359Y-47140000D01*
X19617963Y-47316627D01*
X19566443Y-47486466D01*
X19482778Y-47642991D01*
X19453448Y-47678729D01*
X19370186Y-47780186D01*
X19268729Y-47863448D01*
X19232991Y-47892778D01*
X19076466Y-47976443D01*
X18906627Y-48027963D01*
X18840443Y-48034481D01*
X18774260Y-48041000D01*
X17845740Y-48041000D01*
X17779557Y-48034481D01*
X17713373Y-48027963D01*
X17543534Y-47976443D01*
X17387009Y-47892778D01*
X17351271Y-47863448D01*
X17249814Y-47780186D01*
X17166552Y-47678729D01*
X17137222Y-47642991D01*
X17053557Y-47486466D01*
X17002037Y-47316627D01*
X16984641Y-47140000D01*
X17002037Y-46963373D01*
X17053557Y-46793534D01*
X17137222Y-46637009D01*
X17166552Y-46601271D01*
X17249814Y-46499814D01*
X17351271Y-46416552D01*
X17387009Y-46387222D01*
X17543534Y-46303557D01*
X17713373Y-46252037D01*
X17779557Y-46245519D01*
X17845740Y-46239000D01*
X18774260Y-46239000D01*
X18840443Y-46245519D01*
G37*
G36*
X18840443Y-43705519D02*
G01*
X18906627Y-43712037D01*
X19076466Y-43763557D01*
X19232991Y-43847222D01*
X19268729Y-43876552D01*
X19370186Y-43959814D01*
X19453448Y-44061271D01*
X19482778Y-44097009D01*
X19566443Y-44253534D01*
X19617963Y-44423373D01*
X19635359Y-44600000D01*
X19617963Y-44776627D01*
X19566443Y-44946466D01*
X19482778Y-45102991D01*
X19453448Y-45138729D01*
X19370186Y-45240186D01*
X19268729Y-45323448D01*
X19232991Y-45352778D01*
X19076466Y-45436443D01*
X18906627Y-45487963D01*
X18840443Y-45494481D01*
X18774260Y-45501000D01*
X17845740Y-45501000D01*
X17779557Y-45494481D01*
X17713373Y-45487963D01*
X17543534Y-45436443D01*
X17387009Y-45352778D01*
X17351271Y-45323448D01*
X17249814Y-45240186D01*
X17166552Y-45138729D01*
X17137222Y-45102991D01*
X17053557Y-44946466D01*
X17002037Y-44776627D01*
X16984641Y-44600000D01*
X17002037Y-44423373D01*
X17053557Y-44253534D01*
X17137222Y-44097009D01*
X17166552Y-44061271D01*
X17249814Y-43959814D01*
X17351271Y-43876552D01*
X17387009Y-43847222D01*
X17543534Y-43763557D01*
X17713373Y-43712037D01*
X17779557Y-43705519D01*
X17845740Y-43699000D01*
X18774260Y-43699000D01*
X18840443Y-43705519D01*
G37*
G36*
X15500443Y-43705519D02*
G01*
X15566627Y-43712037D01*
X15736466Y-43763557D01*
X15892991Y-43847222D01*
X15928729Y-43876552D01*
X16030186Y-43959814D01*
X16113448Y-44061271D01*
X16142778Y-44097009D01*
X16226443Y-44253534D01*
X16277963Y-44423373D01*
X16295359Y-44600000D01*
X16277963Y-44776627D01*
X16226443Y-44946466D01*
X16142778Y-45102991D01*
X16113448Y-45138729D01*
X16030186Y-45240186D01*
X15928729Y-45323448D01*
X15892991Y-45352778D01*
X15736466Y-45436443D01*
X15566627Y-45487963D01*
X15500443Y-45494481D01*
X15434260Y-45501000D01*
X14505740Y-45501000D01*
X14439557Y-45494481D01*
X14373373Y-45487963D01*
X14203534Y-45436443D01*
X14047009Y-45352778D01*
X14011271Y-45323448D01*
X13909814Y-45240186D01*
X13826552Y-45138729D01*
X13797222Y-45102991D01*
X13713557Y-44946466D01*
X13662037Y-44776627D01*
X13644641Y-44600000D01*
X13662037Y-44423373D01*
X13713557Y-44253534D01*
X13797222Y-44097009D01*
X13826552Y-44061271D01*
X13909814Y-43959814D01*
X14011271Y-43876552D01*
X14047009Y-43847222D01*
X14203534Y-43763557D01*
X14373373Y-43712037D01*
X14439557Y-43705519D01*
X14505740Y-43699000D01*
X15434260Y-43699000D01*
X15500443Y-43705519D01*
G37*
G36*
X15500443Y-41165519D02*
G01*
X15566627Y-41172037D01*
X15736466Y-41223557D01*
X15892991Y-41307222D01*
X15928729Y-41336552D01*
X16030186Y-41419814D01*
X16102850Y-41508357D01*
X16142778Y-41557009D01*
X16226443Y-41713534D01*
X16277963Y-41883373D01*
X16295359Y-42060000D01*
X16277963Y-42236627D01*
X16226443Y-42406466D01*
X16142778Y-42562991D01*
X16113448Y-42598729D01*
X16030186Y-42700186D01*
X15928729Y-42783448D01*
X15892991Y-42812778D01*
X15736466Y-42896443D01*
X15566627Y-42947963D01*
X15500443Y-42954481D01*
X15434260Y-42961000D01*
X14505740Y-42961000D01*
X14439557Y-42954481D01*
X14373373Y-42947963D01*
X14203534Y-42896443D01*
X14047009Y-42812778D01*
X14011271Y-42783448D01*
X13909814Y-42700186D01*
X13826552Y-42598729D01*
X13797222Y-42562991D01*
X13713557Y-42406466D01*
X13662037Y-42236627D01*
X13644641Y-42060000D01*
X13662037Y-41883373D01*
X13713557Y-41713534D01*
X13797222Y-41557009D01*
X13837150Y-41508357D01*
X13909814Y-41419814D01*
X14011271Y-41336552D01*
X14047009Y-41307222D01*
X14203534Y-41223557D01*
X14373373Y-41172037D01*
X14439557Y-41165519D01*
X14505740Y-41159000D01*
X15434260Y-41159000D01*
X15500443Y-41165519D01*
G37*
G36*
X18840443Y-41165519D02*
G01*
X18906627Y-41172037D01*
X19076466Y-41223557D01*
X19232991Y-41307222D01*
X19268729Y-41336552D01*
X19370186Y-41419814D01*
X19442850Y-41508357D01*
X19482778Y-41557009D01*
X19566443Y-41713534D01*
X19617963Y-41883373D01*
X19635359Y-42060000D01*
X19617963Y-42236627D01*
X19566443Y-42406466D01*
X19482778Y-42562991D01*
X19453448Y-42598729D01*
X19370186Y-42700186D01*
X19268729Y-42783448D01*
X19232991Y-42812778D01*
X19076466Y-42896443D01*
X18906627Y-42947963D01*
X18840443Y-42954481D01*
X18774260Y-42961000D01*
X17845740Y-42961000D01*
X17779557Y-42954481D01*
X17713373Y-42947963D01*
X17543534Y-42896443D01*
X17387009Y-42812778D01*
X17351271Y-42783448D01*
X17249814Y-42700186D01*
X17166552Y-42598729D01*
X17137222Y-42562991D01*
X17053557Y-42406466D01*
X17002037Y-42236627D01*
X16984641Y-42060000D01*
X17002037Y-41883373D01*
X17053557Y-41713534D01*
X17137222Y-41557009D01*
X17177150Y-41508357D01*
X17249814Y-41419814D01*
X17351271Y-41336552D01*
X17387009Y-41307222D01*
X17543534Y-41223557D01*
X17713373Y-41172037D01*
X17779557Y-41165519D01*
X17845740Y-41159000D01*
X18774260Y-41159000D01*
X18840443Y-41165519D01*
G37*
G36*
X2078142Y-40971781D02*
G01*
X2223914Y-41032162D01*
X2223916Y-41032163D01*
X2355108Y-41119822D01*
X2466678Y-41231392D01*
X2554337Y-41362584D01*
X2554338Y-41362586D01*
X2614719Y-41508358D01*
X2645500Y-41663107D01*
X2645500Y-41820893D01*
X2614719Y-41975642D01*
X2554338Y-42121414D01*
X2554337Y-42121416D01*
X2466678Y-42252608D01*
X2355108Y-42364178D01*
X2223916Y-42451837D01*
X2223915Y-42451838D01*
X2223914Y-42451838D01*
X2078142Y-42512219D01*
X1923393Y-42543000D01*
X1765607Y-42543000D01*
X1610858Y-42512219D01*
X1465086Y-42451838D01*
X1465085Y-42451838D01*
X1465084Y-42451837D01*
X1333892Y-42364178D01*
X1222322Y-42252608D01*
X1134663Y-42121416D01*
X1134662Y-42121414D01*
X1074281Y-41975642D01*
X1043500Y-41820893D01*
X1043500Y-41663107D01*
X1074281Y-41508358D01*
X1134662Y-41362586D01*
X1134663Y-41362584D01*
X1222322Y-41231392D01*
X1333892Y-41119822D01*
X1465084Y-41032163D01*
X1465086Y-41032162D01*
X1610858Y-40971781D01*
X1765607Y-40941000D01*
X1923393Y-40941000D01*
X2078142Y-40971781D01*
G37*
G36*
X15500442Y-38625518D02*
G01*
X15566627Y-38632037D01*
X15736466Y-38683557D01*
X15892991Y-38767222D01*
X15928729Y-38796552D01*
X16030186Y-38879814D01*
X16102850Y-38968357D01*
X16142778Y-39017009D01*
X16226443Y-39173534D01*
X16277963Y-39343373D01*
X16295359Y-39520000D01*
X16277963Y-39696627D01*
X16226443Y-39866466D01*
X16142778Y-40022991D01*
X16113448Y-40058729D01*
X16030186Y-40160186D01*
X15928729Y-40243448D01*
X15892991Y-40272778D01*
X15736466Y-40356443D01*
X15566627Y-40407963D01*
X15500443Y-40414481D01*
X15434260Y-40421000D01*
X14505740Y-40421000D01*
X14439557Y-40414481D01*
X14373373Y-40407963D01*
X14203534Y-40356443D01*
X14047009Y-40272778D01*
X14011271Y-40243448D01*
X13909814Y-40160186D01*
X13826552Y-40058729D01*
X13797222Y-40022991D01*
X13713557Y-39866466D01*
X13662037Y-39696627D01*
X13644641Y-39520000D01*
X13662037Y-39343373D01*
X13713557Y-39173534D01*
X13797222Y-39017009D01*
X13837150Y-38968357D01*
X13909814Y-38879814D01*
X14011271Y-38796552D01*
X14047009Y-38767222D01*
X14203534Y-38683557D01*
X14373373Y-38632037D01*
X14439558Y-38625518D01*
X14505740Y-38619000D01*
X15434260Y-38619000D01*
X15500442Y-38625518D01*
G37*
G36*
X18840442Y-38625518D02*
G01*
X18906627Y-38632037D01*
X19076466Y-38683557D01*
X19232991Y-38767222D01*
X19268729Y-38796552D01*
X19370186Y-38879814D01*
X19442850Y-38968357D01*
X19482778Y-39017009D01*
X19566443Y-39173534D01*
X19617963Y-39343373D01*
X19635359Y-39520000D01*
X19617963Y-39696627D01*
X19566443Y-39866466D01*
X19482778Y-40022991D01*
X19453448Y-40058729D01*
X19370186Y-40160186D01*
X19268729Y-40243448D01*
X19232991Y-40272778D01*
X19076466Y-40356443D01*
X18906627Y-40407963D01*
X18840443Y-40414481D01*
X18774260Y-40421000D01*
X17845740Y-40421000D01*
X17779557Y-40414481D01*
X17713373Y-40407963D01*
X17543534Y-40356443D01*
X17387009Y-40272778D01*
X17351271Y-40243448D01*
X17249814Y-40160186D01*
X17166552Y-40058729D01*
X17137222Y-40022991D01*
X17053557Y-39866466D01*
X17002037Y-39696627D01*
X16984641Y-39520000D01*
X17002037Y-39343373D01*
X17053557Y-39173534D01*
X17137222Y-39017009D01*
X17177150Y-38968357D01*
X17249814Y-38879814D01*
X17351271Y-38796552D01*
X17387009Y-38767222D01*
X17543534Y-38683557D01*
X17713373Y-38632037D01*
X17779558Y-38625518D01*
X17845740Y-38619000D01*
X18774260Y-38619000D01*
X18840442Y-38625518D01*
G37*
G36*
X2078142Y-38431781D02*
G01*
X2223914Y-38492162D01*
X2223916Y-38492163D01*
X2355108Y-38579822D01*
X2466678Y-38691392D01*
X2554337Y-38822584D01*
X2554338Y-38822586D01*
X2614719Y-38968358D01*
X2645500Y-39123107D01*
X2645500Y-39280893D01*
X2614719Y-39435642D01*
X2554338Y-39581414D01*
X2554337Y-39581416D01*
X2466678Y-39712608D01*
X2355108Y-39824178D01*
X2223916Y-39911837D01*
X2223915Y-39911838D01*
X2223914Y-39911838D01*
X2078142Y-39972219D01*
X1923393Y-40003000D01*
X1765607Y-40003000D01*
X1610858Y-39972219D01*
X1465086Y-39911838D01*
X1465085Y-39911838D01*
X1465084Y-39911837D01*
X1333892Y-39824178D01*
X1222322Y-39712608D01*
X1134663Y-39581416D01*
X1134662Y-39581414D01*
X1074281Y-39435642D01*
X1043500Y-39280893D01*
X1043500Y-39123107D01*
X1074281Y-38968358D01*
X1134662Y-38822586D01*
X1134663Y-38822584D01*
X1222322Y-38691392D01*
X1333892Y-38579822D01*
X1465084Y-38492163D01*
X1465086Y-38492162D01*
X1610858Y-38431781D01*
X1765607Y-38401000D01*
X1923393Y-38401000D01*
X2078142Y-38431781D01*
G37*
G36*
X18840442Y-36085518D02*
G01*
X18906627Y-36092037D01*
X19076466Y-36143557D01*
X19232991Y-36227222D01*
X19268729Y-36256552D01*
X19370186Y-36339814D01*
X19453448Y-36441271D01*
X19482778Y-36477009D01*
X19566443Y-36633534D01*
X19617963Y-36803373D01*
X19635359Y-36980000D01*
X19617963Y-37156627D01*
X19566443Y-37326466D01*
X19482778Y-37482991D01*
X19453448Y-37518729D01*
X19370186Y-37620186D01*
X19268729Y-37703448D01*
X19232991Y-37732778D01*
X19076466Y-37816443D01*
X18906627Y-37867963D01*
X18840442Y-37874482D01*
X18774260Y-37881000D01*
X17845740Y-37881000D01*
X17779558Y-37874482D01*
X17713373Y-37867963D01*
X17543534Y-37816443D01*
X17387009Y-37732778D01*
X17351271Y-37703448D01*
X17249814Y-37620186D01*
X17166552Y-37518729D01*
X17137222Y-37482991D01*
X17053557Y-37326466D01*
X17002037Y-37156627D01*
X16984641Y-36980000D01*
X17002037Y-36803373D01*
X17053557Y-36633534D01*
X17137222Y-36477009D01*
X17166552Y-36441271D01*
X17249814Y-36339814D01*
X17351271Y-36256552D01*
X17387009Y-36227222D01*
X17543534Y-36143557D01*
X17713373Y-36092037D01*
X17779558Y-36085518D01*
X17845740Y-36079000D01*
X18774260Y-36079000D01*
X18840442Y-36085518D01*
G37*
G36*
X15500442Y-36085518D02*
G01*
X15566627Y-36092037D01*
X15736466Y-36143557D01*
X15892991Y-36227222D01*
X15928729Y-36256552D01*
X16030186Y-36339814D01*
X16113448Y-36441271D01*
X16142778Y-36477009D01*
X16226443Y-36633534D01*
X16277963Y-36803373D01*
X16295359Y-36980000D01*
X16277963Y-37156627D01*
X16226443Y-37326466D01*
X16142778Y-37482991D01*
X16113448Y-37518729D01*
X16030186Y-37620186D01*
X15928729Y-37703448D01*
X15892991Y-37732778D01*
X15736466Y-37816443D01*
X15566627Y-37867963D01*
X15500442Y-37874482D01*
X15434260Y-37881000D01*
X14505740Y-37881000D01*
X14439558Y-37874482D01*
X14373373Y-37867963D01*
X14203534Y-37816443D01*
X14047009Y-37732778D01*
X14011271Y-37703448D01*
X13909814Y-37620186D01*
X13826552Y-37518729D01*
X13797222Y-37482991D01*
X13713557Y-37326466D01*
X13662037Y-37156627D01*
X13644641Y-36980000D01*
X13662037Y-36803373D01*
X13713557Y-36633534D01*
X13797222Y-36477009D01*
X13826552Y-36441271D01*
X13909814Y-36339814D01*
X14011271Y-36256552D01*
X14047009Y-36227222D01*
X14203534Y-36143557D01*
X14373373Y-36092037D01*
X14439558Y-36085518D01*
X14505740Y-36079000D01*
X15434260Y-36079000D01*
X15500442Y-36085518D01*
G37*
G36*
X18840442Y-33545518D02*
G01*
X18906627Y-33552037D01*
X19076466Y-33603557D01*
X19232991Y-33687222D01*
X19268729Y-33716552D01*
X19370186Y-33799814D01*
X19453448Y-33901271D01*
X19482778Y-33937009D01*
X19566443Y-34093534D01*
X19617963Y-34263373D01*
X19635359Y-34440000D01*
X19617963Y-34616627D01*
X19566443Y-34786466D01*
X19482778Y-34942991D01*
X19453448Y-34978729D01*
X19370186Y-35080186D01*
X19268729Y-35163448D01*
X19232991Y-35192778D01*
X19076466Y-35276443D01*
X18906627Y-35327963D01*
X18840443Y-35334481D01*
X18774260Y-35341000D01*
X17845740Y-35341000D01*
X17779557Y-35334481D01*
X17713373Y-35327963D01*
X17543534Y-35276443D01*
X17387009Y-35192778D01*
X17351271Y-35163448D01*
X17249814Y-35080186D01*
X17166552Y-34978729D01*
X17137222Y-34942991D01*
X17053557Y-34786466D01*
X17002037Y-34616627D01*
X16984641Y-34440000D01*
X17002037Y-34263373D01*
X17053557Y-34093534D01*
X17137222Y-33937009D01*
X17166552Y-33901271D01*
X17249814Y-33799814D01*
X17351271Y-33716552D01*
X17387009Y-33687222D01*
X17543534Y-33603557D01*
X17713373Y-33552037D01*
X17779558Y-33545518D01*
X17845740Y-33539000D01*
X18774260Y-33539000D01*
X18840442Y-33545518D01*
G37*
G36*
X15500442Y-33545518D02*
G01*
X15566627Y-33552037D01*
X15736466Y-33603557D01*
X15892991Y-33687222D01*
X15928729Y-33716552D01*
X16030186Y-33799814D01*
X16113448Y-33901271D01*
X16142778Y-33937009D01*
X16226443Y-34093534D01*
X16277963Y-34263373D01*
X16295359Y-34440000D01*
X16277963Y-34616627D01*
X16226443Y-34786466D01*
X16142778Y-34942991D01*
X16113448Y-34978729D01*
X16030186Y-35080186D01*
X15928729Y-35163448D01*
X15892991Y-35192778D01*
X15736466Y-35276443D01*
X15566627Y-35327963D01*
X15500443Y-35334481D01*
X15434260Y-35341000D01*
X14505740Y-35341000D01*
X14439557Y-35334481D01*
X14373373Y-35327963D01*
X14203534Y-35276443D01*
X14047009Y-35192778D01*
X14011271Y-35163448D01*
X13909814Y-35080186D01*
X13826552Y-34978729D01*
X13797222Y-34942991D01*
X13713557Y-34786466D01*
X13662037Y-34616627D01*
X13644641Y-34440000D01*
X13662037Y-34263373D01*
X13713557Y-34093534D01*
X13797222Y-33937009D01*
X13826552Y-33901271D01*
X13909814Y-33799814D01*
X14011271Y-33716552D01*
X14047009Y-33687222D01*
X14203534Y-33603557D01*
X14373373Y-33552037D01*
X14439558Y-33545518D01*
X14505740Y-33539000D01*
X15434260Y-33539000D01*
X15500442Y-33545518D01*
G37*
G36*
X6017091Y-32028085D02*
G01*
X6051069Y-32038393D01*
X6082390Y-32055134D01*
X6109839Y-32077661D01*
X6132366Y-32105110D01*
X6149107Y-32136431D01*
X6159415Y-32170409D01*
X6163500Y-32211890D01*
X6163500Y-32888110D01*
X6159415Y-32929591D01*
X6149107Y-32963569D01*
X6132366Y-32994890D01*
X6109839Y-33022339D01*
X6082390Y-33044866D01*
X6051069Y-33061607D01*
X6017091Y-33071915D01*
X5975610Y-33076000D01*
X5374390Y-33076000D01*
X5332909Y-33071915D01*
X5298931Y-33061607D01*
X5267610Y-33044866D01*
X5240161Y-33022339D01*
X5217634Y-32994890D01*
X5200893Y-32963569D01*
X5190585Y-32929591D01*
X5186500Y-32888110D01*
X5186500Y-32211890D01*
X5190585Y-32170409D01*
X5200893Y-32136431D01*
X5217634Y-32105110D01*
X5240161Y-32077661D01*
X5267610Y-32055134D01*
X5298931Y-32038393D01*
X5332909Y-32028085D01*
X5374390Y-32024000D01*
X5975610Y-32024000D01*
X6017091Y-32028085D01*
G37*
G36*
X7592091Y-32028085D02*
G01*
X7626069Y-32038393D01*
X7657390Y-32055134D01*
X7684839Y-32077661D01*
X7707366Y-32105110D01*
X7724107Y-32136431D01*
X7734415Y-32170409D01*
X7738500Y-32211890D01*
X7738500Y-32888110D01*
X7734415Y-32929591D01*
X7724107Y-32963569D01*
X7707366Y-32994890D01*
X7684839Y-33022339D01*
X7657390Y-33044866D01*
X7626069Y-33061607D01*
X7592091Y-33071915D01*
X7550610Y-33076000D01*
X6949390Y-33076000D01*
X6907909Y-33071915D01*
X6873931Y-33061607D01*
X6842610Y-33044866D01*
X6815161Y-33022339D01*
X6792634Y-32994890D01*
X6775893Y-32963569D01*
X6765585Y-32929591D01*
X6761500Y-32888110D01*
X6761500Y-32211890D01*
X6765585Y-32170409D01*
X6775893Y-32136431D01*
X6792634Y-32105110D01*
X6815161Y-32077661D01*
X6842610Y-32055134D01*
X6873931Y-32038393D01*
X6907909Y-32028085D01*
X6949390Y-32024000D01*
X7550610Y-32024000D01*
X7592091Y-32028085D01*
G37*
G36*
X9192091Y-32028085D02*
G01*
X9226069Y-32038393D01*
X9257390Y-32055134D01*
X9284839Y-32077661D01*
X9307366Y-32105110D01*
X9324107Y-32136431D01*
X9334415Y-32170409D01*
X9338500Y-32211890D01*
X9338500Y-32888110D01*
X9334415Y-32929591D01*
X9324107Y-32963569D01*
X9307366Y-32994890D01*
X9284839Y-33022339D01*
X9257390Y-33044866D01*
X9226069Y-33061607D01*
X9192091Y-33071915D01*
X9150610Y-33076000D01*
X8549390Y-33076000D01*
X8507909Y-33071915D01*
X8473931Y-33061607D01*
X8442610Y-33044866D01*
X8415161Y-33022339D01*
X8392634Y-32994890D01*
X8375893Y-32963569D01*
X8365585Y-32929591D01*
X8361500Y-32888110D01*
X8361500Y-32211890D01*
X8365585Y-32170409D01*
X8375893Y-32136431D01*
X8392634Y-32105110D01*
X8415161Y-32077661D01*
X8442610Y-32055134D01*
X8473931Y-32038393D01*
X8507909Y-32028085D01*
X8549390Y-32024000D01*
X9150610Y-32024000D01*
X9192091Y-32028085D01*
G37*
G36*
X10941938Y-30631716D02*
G01*
X10962557Y-30637971D01*
X10981553Y-30648124D01*
X10998208Y-30661792D01*
X11011876Y-30678447D01*
X11022029Y-30697443D01*
X11028284Y-30718062D01*
X11031000Y-30745640D01*
X11031000Y-31254360D01*
X11028284Y-31281938D01*
X11022029Y-31302557D01*
X11011876Y-31321553D01*
X10998208Y-31338208D01*
X10981553Y-31351876D01*
X10962557Y-31362029D01*
X10941938Y-31368284D01*
X10914360Y-31371000D01*
X10455640Y-31371000D01*
X10428062Y-31368284D01*
X10407443Y-31362029D01*
X10388447Y-31351876D01*
X10371792Y-31338208D01*
X10358124Y-31321553D01*
X10347971Y-31302557D01*
X10341716Y-31281938D01*
X10339000Y-31254360D01*
X10339000Y-30745640D01*
X10341716Y-30718062D01*
X10347971Y-30697443D01*
X10358124Y-30678447D01*
X10371792Y-30661792D01*
X10388447Y-30648124D01*
X10407443Y-30637971D01*
X10428062Y-30631716D01*
X10455640Y-30629000D01*
X10914360Y-30629000D01*
X10941938Y-30631716D01*
G37*
G36*
X9971938Y-30631716D02*
G01*
X9992557Y-30637971D01*
X10011553Y-30648124D01*
X10028208Y-30661792D01*
X10041876Y-30678447D01*
X10052029Y-30697443D01*
X10058284Y-30718062D01*
X10061000Y-30745640D01*
X10061000Y-31254360D01*
X10058284Y-31281938D01*
X10052029Y-31302557D01*
X10041876Y-31321553D01*
X10028208Y-31338208D01*
X10011553Y-31351876D01*
X9992557Y-31362029D01*
X9971938Y-31368284D01*
X9944360Y-31371000D01*
X9485640Y-31371000D01*
X9458062Y-31368284D01*
X9437443Y-31362029D01*
X9418447Y-31351876D01*
X9401792Y-31338208D01*
X9388124Y-31321553D01*
X9377971Y-31302557D01*
X9371716Y-31281938D01*
X9369000Y-31254360D01*
X9369000Y-30745640D01*
X9371716Y-30718062D01*
X9377971Y-30697443D01*
X9388124Y-30678447D01*
X9401792Y-30661792D01*
X9418447Y-30648124D01*
X9437443Y-30637971D01*
X9458062Y-30631716D01*
X9485640Y-30629000D01*
X9944360Y-30629000D01*
X9971938Y-30631716D01*
G37*
G36*
X5181938Y-30641716D02*
G01*
X5202557Y-30647971D01*
X5221553Y-30658124D01*
X5238208Y-30671792D01*
X5251876Y-30688447D01*
X5262029Y-30707443D01*
X5268284Y-30728062D01*
X5271000Y-30755640D01*
X5271000Y-31214360D01*
X5268284Y-31241938D01*
X5262029Y-31262557D01*
X5251876Y-31281553D01*
X5238208Y-31298208D01*
X5221553Y-31311876D01*
X5202557Y-31322029D01*
X5181938Y-31328284D01*
X5154360Y-31331000D01*
X4645640Y-31331000D01*
X4618062Y-31328284D01*
X4597443Y-31322029D01*
X4578447Y-31311876D01*
X4561792Y-31298208D01*
X4548124Y-31281553D01*
X4537971Y-31262557D01*
X4531716Y-31241938D01*
X4529000Y-31214360D01*
X4529000Y-30755640D01*
X4531716Y-30728062D01*
X4537971Y-30707443D01*
X4548124Y-30688447D01*
X4561792Y-30671792D01*
X4578447Y-30658124D01*
X4597443Y-30647971D01*
X4618062Y-30641716D01*
X4645640Y-30639000D01*
X5154360Y-30639000D01*
X5181938Y-30641716D01*
G37*
G36*
X9031000Y-31326000D02*
G01*
X7869000Y-31326000D01*
X7869000Y-28674000D01*
X9031000Y-28674000D01*
X9031000Y-31326000D01*
G37*
G36*
X6831000Y-31326000D02*
G01*
X5669000Y-31326000D01*
X5669000Y-30574000D01*
X6831000Y-30574000D01*
X6831000Y-31326000D01*
G37*
G36*
X5181938Y-29671716D02*
G01*
X5202557Y-29677971D01*
X5221553Y-29688124D01*
X5238208Y-29701792D01*
X5251876Y-29718447D01*
X5262029Y-29737443D01*
X5268284Y-29758062D01*
X5271000Y-29785640D01*
X5271000Y-30244360D01*
X5268284Y-30271938D01*
X5262029Y-30292557D01*
X5251876Y-30311553D01*
X5238208Y-30328208D01*
X5221553Y-30341876D01*
X5202557Y-30352029D01*
X5181938Y-30358284D01*
X5154360Y-30361000D01*
X4645640Y-30361000D01*
X4618062Y-30358284D01*
X4597443Y-30352029D01*
X4578447Y-30341876D01*
X4561792Y-30328208D01*
X4548124Y-30311553D01*
X4537971Y-30292557D01*
X4531716Y-30271938D01*
X4529000Y-30244360D01*
X4529000Y-29785640D01*
X4531716Y-29758062D01*
X4537971Y-29737443D01*
X4548124Y-29718447D01*
X4561792Y-29701792D01*
X4578447Y-29688124D01*
X4597443Y-29677971D01*
X4618062Y-29671716D01*
X4645640Y-29669000D01*
X5154360Y-29669000D01*
X5181938Y-29671716D01*
G37*
G36*
X6831000Y-29426000D02*
G01*
X5669000Y-29426000D01*
X5669000Y-28674000D01*
X6831000Y-28674000D01*
X6831000Y-29426000D01*
G37*
G36*
X18128674Y-25946465D02*
G01*
X18166367Y-25957899D01*
X18201103Y-25976466D01*
X18231548Y-26001452D01*
X18256534Y-26031897D01*
X18275101Y-26066633D01*
X18286535Y-26104326D01*
X18291000Y-26149661D01*
X18291000Y-27236339D01*
X18286535Y-27281674D01*
X18275101Y-27319367D01*
X18256534Y-27354103D01*
X18231548Y-27384548D01*
X18201103Y-27409534D01*
X18166367Y-27428101D01*
X18128674Y-27439535D01*
X18083339Y-27444000D01*
X17246661Y-27444000D01*
X17201326Y-27439535D01*
X17163633Y-27428101D01*
X17128897Y-27409534D01*
X17098452Y-27384548D01*
X17073466Y-27354103D01*
X17054899Y-27319367D01*
X17043465Y-27281674D01*
X17039000Y-27236339D01*
X17039000Y-26149661D01*
X17043465Y-26104326D01*
X17054899Y-26066633D01*
X17073466Y-26031897D01*
X17098452Y-26001452D01*
X17128897Y-25976466D01*
X17163633Y-25957899D01*
X17201326Y-25946465D01*
X17246661Y-25942000D01*
X18083339Y-25942000D01*
X18128674Y-25946465D01*
G37*
G36*
X16078674Y-25946465D02*
G01*
X16116367Y-25957899D01*
X16151103Y-25976466D01*
X16181548Y-26001452D01*
X16206534Y-26031897D01*
X16225101Y-26066633D01*
X16236535Y-26104326D01*
X16241000Y-26149661D01*
X16241000Y-27236339D01*
X16236535Y-27281674D01*
X16225101Y-27319367D01*
X16206534Y-27354103D01*
X16181548Y-27384548D01*
X16151103Y-27409534D01*
X16116367Y-27428101D01*
X16078674Y-27439535D01*
X16033339Y-27444000D01*
X15196661Y-27444000D01*
X15151326Y-27439535D01*
X15113633Y-27428101D01*
X15078897Y-27409534D01*
X15048452Y-27384548D01*
X15023466Y-27354103D01*
X15004899Y-27319367D01*
X14993465Y-27281674D01*
X14989000Y-27236339D01*
X14989000Y-26149661D01*
X14993465Y-26104326D01*
X15004899Y-26066633D01*
X15023466Y-26031897D01*
X15048452Y-26001452D01*
X15078897Y-25976466D01*
X15113633Y-25957899D01*
X15151326Y-25946465D01*
X15196661Y-25942000D01*
X16033339Y-25942000D01*
X16078674Y-25946465D01*
G37*
G36*
X15500442Y-23385518D02*
G01*
X15566627Y-23392037D01*
X15736466Y-23443557D01*
X15892991Y-23527222D01*
X15928729Y-23556552D01*
X16030186Y-23639814D01*
X16113448Y-23741271D01*
X16142778Y-23777009D01*
X16226443Y-23933534D01*
X16277963Y-24103373D01*
X16295359Y-24280000D01*
X16277963Y-24456627D01*
X16226443Y-24626466D01*
X16142778Y-24782991D01*
X16113448Y-24818729D01*
X16030186Y-24920186D01*
X15928729Y-25003448D01*
X15892991Y-25032778D01*
X15736466Y-25116443D01*
X15566627Y-25167963D01*
X15500442Y-25174482D01*
X15434260Y-25181000D01*
X14505740Y-25181000D01*
X14439558Y-25174482D01*
X14373373Y-25167963D01*
X14203534Y-25116443D01*
X14047009Y-25032778D01*
X14011271Y-25003448D01*
X13909814Y-24920186D01*
X13826552Y-24818729D01*
X13797222Y-24782991D01*
X13713557Y-24626466D01*
X13662037Y-24456627D01*
X13644641Y-24280000D01*
X13662037Y-24103373D01*
X13713557Y-23933534D01*
X13797222Y-23777009D01*
X13826552Y-23741271D01*
X13909814Y-23639814D01*
X14011271Y-23556552D01*
X14047009Y-23527222D01*
X14203534Y-23443557D01*
X14373373Y-23392037D01*
X14439557Y-23385519D01*
X14505740Y-23379000D01*
X15434260Y-23379000D01*
X15500442Y-23385518D01*
G37*
G36*
X18840442Y-23385518D02*
G01*
X18906627Y-23392037D01*
X19076466Y-23443557D01*
X19232991Y-23527222D01*
X19268729Y-23556552D01*
X19370186Y-23639814D01*
X19453448Y-23741271D01*
X19482778Y-23777009D01*
X19566443Y-23933534D01*
X19617963Y-24103373D01*
X19635359Y-24280000D01*
X19617963Y-24456627D01*
X19566443Y-24626466D01*
X19482778Y-24782991D01*
X19453448Y-24818729D01*
X19370186Y-24920186D01*
X19268729Y-25003448D01*
X19232991Y-25032778D01*
X19076466Y-25116443D01*
X18906627Y-25167963D01*
X18840442Y-25174482D01*
X18774260Y-25181000D01*
X17845740Y-25181000D01*
X17779558Y-25174482D01*
X17713373Y-25167963D01*
X17543534Y-25116443D01*
X17387009Y-25032778D01*
X17351271Y-25003448D01*
X17249814Y-24920186D01*
X17166552Y-24818729D01*
X17137222Y-24782991D01*
X17053557Y-24626466D01*
X17002037Y-24456627D01*
X16984641Y-24280000D01*
X17002037Y-24103373D01*
X17053557Y-23933534D01*
X17137222Y-23777009D01*
X17166552Y-23741271D01*
X17249814Y-23639814D01*
X17351271Y-23556552D01*
X17387009Y-23527222D01*
X17543534Y-23443557D01*
X17713373Y-23392037D01*
X17779557Y-23385519D01*
X17845740Y-23379000D01*
X18774260Y-23379000D01*
X18840442Y-23385518D01*
G37*
G36*
X15500442Y-20845518D02*
G01*
X15566627Y-20852037D01*
X15736466Y-20903557D01*
X15892991Y-20987222D01*
X15928729Y-21016552D01*
X16030186Y-21099814D01*
X16113448Y-21201271D01*
X16142778Y-21237009D01*
X16226443Y-21393534D01*
X16277963Y-21563373D01*
X16295359Y-21740000D01*
X16277963Y-21916627D01*
X16226443Y-22086466D01*
X16142778Y-22242991D01*
X16113448Y-22278729D01*
X16030186Y-22380186D01*
X15928729Y-22463448D01*
X15892991Y-22492778D01*
X15736466Y-22576443D01*
X15566627Y-22627963D01*
X15500442Y-22634482D01*
X15434260Y-22641000D01*
X14505740Y-22641000D01*
X14439558Y-22634482D01*
X14373373Y-22627963D01*
X14203534Y-22576443D01*
X14047009Y-22492778D01*
X14011271Y-22463448D01*
X13909814Y-22380186D01*
X13826552Y-22278729D01*
X13797222Y-22242991D01*
X13713557Y-22086466D01*
X13662037Y-21916627D01*
X13644641Y-21740000D01*
X13662037Y-21563373D01*
X13713557Y-21393534D01*
X13797222Y-21237009D01*
X13826552Y-21201271D01*
X13909814Y-21099814D01*
X14011271Y-21016552D01*
X14047009Y-20987222D01*
X14203534Y-20903557D01*
X14373373Y-20852037D01*
X14439558Y-20845518D01*
X14505740Y-20839000D01*
X15434260Y-20839000D01*
X15500442Y-20845518D01*
G37*
G36*
X18840442Y-20845518D02*
G01*
X18906627Y-20852037D01*
X19076466Y-20903557D01*
X19232991Y-20987222D01*
X19268729Y-21016552D01*
X19370186Y-21099814D01*
X19453448Y-21201271D01*
X19482778Y-21237009D01*
X19566443Y-21393534D01*
X19617963Y-21563373D01*
X19635359Y-21740000D01*
X19617963Y-21916627D01*
X19566443Y-22086466D01*
X19482778Y-22242991D01*
X19453448Y-22278729D01*
X19370186Y-22380186D01*
X19268729Y-22463448D01*
X19232991Y-22492778D01*
X19076466Y-22576443D01*
X18906627Y-22627963D01*
X18840442Y-22634482D01*
X18774260Y-22641000D01*
X17845740Y-22641000D01*
X17779558Y-22634482D01*
X17713373Y-22627963D01*
X17543534Y-22576443D01*
X17387009Y-22492778D01*
X17351271Y-22463448D01*
X17249814Y-22380186D01*
X17166552Y-22278729D01*
X17137222Y-22242991D01*
X17053557Y-22086466D01*
X17002037Y-21916627D01*
X16984641Y-21740000D01*
X17002037Y-21563373D01*
X17053557Y-21393534D01*
X17137222Y-21237009D01*
X17166552Y-21201271D01*
X17249814Y-21099814D01*
X17351271Y-21016552D01*
X17387009Y-20987222D01*
X17543534Y-20903557D01*
X17713373Y-20852037D01*
X17779558Y-20845518D01*
X17845740Y-20839000D01*
X18774260Y-20839000D01*
X18840442Y-20845518D01*
G37*
G36*
X15500442Y-18305518D02*
G01*
X15566627Y-18312037D01*
X15736466Y-18363557D01*
X15892991Y-18447222D01*
X15928729Y-18476552D01*
X16030186Y-18559814D01*
X16113448Y-18661271D01*
X16142778Y-18697009D01*
X16226443Y-18853534D01*
X16277963Y-19023373D01*
X16295359Y-19200000D01*
X16277963Y-19376627D01*
X16226443Y-19546466D01*
X16142778Y-19702991D01*
X16113448Y-19738729D01*
X16030186Y-19840186D01*
X15928729Y-19923448D01*
X15892991Y-19952778D01*
X15736466Y-20036443D01*
X15566627Y-20087963D01*
X15500443Y-20094481D01*
X15434260Y-20101000D01*
X14505740Y-20101000D01*
X14439557Y-20094481D01*
X14373373Y-20087963D01*
X14203534Y-20036443D01*
X14047009Y-19952778D01*
X14011271Y-19923448D01*
X13909814Y-19840186D01*
X13826552Y-19738729D01*
X13797222Y-19702991D01*
X13713557Y-19546466D01*
X13662037Y-19376627D01*
X13644641Y-19200000D01*
X13662037Y-19023373D01*
X13713557Y-18853534D01*
X13797222Y-18697009D01*
X13826552Y-18661271D01*
X13909814Y-18559814D01*
X14011271Y-18476552D01*
X14047009Y-18447222D01*
X14203534Y-18363557D01*
X14373373Y-18312037D01*
X14439557Y-18305519D01*
X14505740Y-18299000D01*
X15434260Y-18299000D01*
X15500442Y-18305518D01*
G37*
G36*
X18840442Y-18305518D02*
G01*
X18906627Y-18312037D01*
X19076466Y-18363557D01*
X19232991Y-18447222D01*
X19268729Y-18476552D01*
X19370186Y-18559814D01*
X19453448Y-18661271D01*
X19482778Y-18697009D01*
X19566443Y-18853534D01*
X19617963Y-19023373D01*
X19635359Y-19200000D01*
X19617963Y-19376627D01*
X19566443Y-19546466D01*
X19482778Y-19702991D01*
X19453448Y-19738729D01*
X19370186Y-19840186D01*
X19268729Y-19923448D01*
X19232991Y-19952778D01*
X19076466Y-20036443D01*
X18906627Y-20087963D01*
X18840443Y-20094481D01*
X18774260Y-20101000D01*
X17845740Y-20101000D01*
X17779557Y-20094481D01*
X17713373Y-20087963D01*
X17543534Y-20036443D01*
X17387009Y-19952778D01*
X17351271Y-19923448D01*
X17249814Y-19840186D01*
X17166552Y-19738729D01*
X17137222Y-19702991D01*
X17053557Y-19546466D01*
X17002037Y-19376627D01*
X16984641Y-19200000D01*
X17002037Y-19023373D01*
X17053557Y-18853534D01*
X17137222Y-18697009D01*
X17166552Y-18661271D01*
X17249814Y-18559814D01*
X17351271Y-18476552D01*
X17387009Y-18447222D01*
X17543534Y-18363557D01*
X17713373Y-18312037D01*
X17779557Y-18305519D01*
X17845740Y-18299000D01*
X18774260Y-18299000D01*
X18840442Y-18305518D01*
G37*
G36*
X15500443Y-15765519D02*
G01*
X15566627Y-15772037D01*
X15736466Y-15823557D01*
X15892991Y-15907222D01*
X15928729Y-15936552D01*
X16030186Y-16019814D01*
X16113448Y-16121271D01*
X16142778Y-16157009D01*
X16226443Y-16313534D01*
X16277963Y-16483373D01*
X16295359Y-16660000D01*
X16277963Y-16836627D01*
X16226443Y-17006466D01*
X16142778Y-17162991D01*
X16113448Y-17198729D01*
X16030186Y-17300186D01*
X15928729Y-17383448D01*
X15892991Y-17412778D01*
X15736466Y-17496443D01*
X15566627Y-17547963D01*
X15500442Y-17554482D01*
X15434260Y-17561000D01*
X14505740Y-17561000D01*
X14439558Y-17554482D01*
X14373373Y-17547963D01*
X14203534Y-17496443D01*
X14047009Y-17412778D01*
X14011271Y-17383448D01*
X13909814Y-17300186D01*
X13826552Y-17198729D01*
X13797222Y-17162991D01*
X13713557Y-17006466D01*
X13662037Y-16836627D01*
X13644641Y-16660000D01*
X13662037Y-16483373D01*
X13713557Y-16313534D01*
X13797222Y-16157009D01*
X13826552Y-16121271D01*
X13909814Y-16019814D01*
X14011271Y-15936552D01*
X14047009Y-15907222D01*
X14203534Y-15823557D01*
X14373373Y-15772037D01*
X14439557Y-15765519D01*
X14505740Y-15759000D01*
X15434260Y-15759000D01*
X15500443Y-15765519D01*
G37*
G36*
X18840443Y-15765519D02*
G01*
X18906627Y-15772037D01*
X19076466Y-15823557D01*
X19232991Y-15907222D01*
X19268729Y-15936552D01*
X19370186Y-16019814D01*
X19453448Y-16121271D01*
X19482778Y-16157009D01*
X19566443Y-16313534D01*
X19617963Y-16483373D01*
X19635359Y-16660000D01*
X19617963Y-16836627D01*
X19566443Y-17006466D01*
X19482778Y-17162991D01*
X19453448Y-17198729D01*
X19370186Y-17300186D01*
X19268729Y-17383448D01*
X19232991Y-17412778D01*
X19076466Y-17496443D01*
X18906627Y-17547963D01*
X18840442Y-17554482D01*
X18774260Y-17561000D01*
X17845740Y-17561000D01*
X17779558Y-17554482D01*
X17713373Y-17547963D01*
X17543534Y-17496443D01*
X17387009Y-17412778D01*
X17351271Y-17383448D01*
X17249814Y-17300186D01*
X17166552Y-17198729D01*
X17137222Y-17162991D01*
X17053557Y-17006466D01*
X17002037Y-16836627D01*
X16984641Y-16660000D01*
X17002037Y-16483373D01*
X17053557Y-16313534D01*
X17137222Y-16157009D01*
X17166552Y-16121271D01*
X17249814Y-16019814D01*
X17351271Y-15936552D01*
X17387009Y-15907222D01*
X17543534Y-15823557D01*
X17713373Y-15772037D01*
X17779557Y-15765519D01*
X17845740Y-15759000D01*
X18774260Y-15759000D01*
X18840443Y-15765519D01*
G37*
G36*
X18840443Y-13225519D02*
G01*
X18906627Y-13232037D01*
X19076466Y-13283557D01*
X19232991Y-13367222D01*
X19268729Y-13396552D01*
X19370186Y-13479814D01*
X19453448Y-13581271D01*
X19482778Y-13617009D01*
X19566443Y-13773534D01*
X19617963Y-13943373D01*
X19635359Y-14120000D01*
X19617963Y-14296627D01*
X19566443Y-14466466D01*
X19482778Y-14622991D01*
X19453448Y-14658729D01*
X19370186Y-14760186D01*
X19268729Y-14843448D01*
X19232991Y-14872778D01*
X19076466Y-14956443D01*
X18906627Y-15007963D01*
X18840443Y-15014481D01*
X18774260Y-15021000D01*
X17845740Y-15021000D01*
X17779557Y-15014481D01*
X17713373Y-15007963D01*
X17543534Y-14956443D01*
X17387009Y-14872778D01*
X17351271Y-14843448D01*
X17249814Y-14760186D01*
X17166552Y-14658729D01*
X17137222Y-14622991D01*
X17053557Y-14466466D01*
X17002037Y-14296627D01*
X16984641Y-14120000D01*
X17002037Y-13943373D01*
X17053557Y-13773534D01*
X17137222Y-13617009D01*
X17166552Y-13581271D01*
X17249814Y-13479814D01*
X17351271Y-13396552D01*
X17387009Y-13367222D01*
X17543534Y-13283557D01*
X17713373Y-13232037D01*
X17779557Y-13225519D01*
X17845740Y-13219000D01*
X18774260Y-13219000D01*
X18840443Y-13225519D01*
G37*
G36*
X15500443Y-13225519D02*
G01*
X15566627Y-13232037D01*
X15736466Y-13283557D01*
X15892991Y-13367222D01*
X15928729Y-13396552D01*
X16030186Y-13479814D01*
X16113448Y-13581271D01*
X16142778Y-13617009D01*
X16226443Y-13773534D01*
X16277963Y-13943373D01*
X16295359Y-14120000D01*
X16277963Y-14296627D01*
X16226443Y-14466466D01*
X16142778Y-14622991D01*
X16113448Y-14658729D01*
X16030186Y-14760186D01*
X15928729Y-14843448D01*
X15892991Y-14872778D01*
X15736466Y-14956443D01*
X15566627Y-15007963D01*
X15500443Y-15014481D01*
X15434260Y-15021000D01*
X14505740Y-15021000D01*
X14439557Y-15014481D01*
X14373373Y-15007963D01*
X14203534Y-14956443D01*
X14047009Y-14872778D01*
X14011271Y-14843448D01*
X13909814Y-14760186D01*
X13826552Y-14658729D01*
X13797222Y-14622991D01*
X13713557Y-14466466D01*
X13662037Y-14296627D01*
X13644641Y-14120000D01*
X13662037Y-13943373D01*
X13713557Y-13773534D01*
X13797222Y-13617009D01*
X13826552Y-13581271D01*
X13909814Y-13479814D01*
X14011271Y-13396552D01*
X14047009Y-13367222D01*
X14203534Y-13283557D01*
X14373373Y-13232037D01*
X14439557Y-13225519D01*
X14505740Y-13219000D01*
X15434260Y-13219000D01*
X15500443Y-13225519D01*
G37*
G36*
X18840442Y-10685518D02*
G01*
X18906627Y-10692037D01*
X19076466Y-10743557D01*
X19232991Y-10827222D01*
X19268729Y-10856552D01*
X19370186Y-10939814D01*
X19453448Y-11041271D01*
X19482778Y-11077009D01*
X19566443Y-11233534D01*
X19617963Y-11403373D01*
X19635359Y-11580000D01*
X19617963Y-11756627D01*
X19566443Y-11926466D01*
X19482778Y-12082991D01*
X19453448Y-12118729D01*
X19370186Y-12220186D01*
X19268729Y-12303448D01*
X19232991Y-12332778D01*
X19076466Y-12416443D01*
X18906627Y-12467963D01*
X18840442Y-12474482D01*
X18774260Y-12481000D01*
X17845740Y-12481000D01*
X17779558Y-12474482D01*
X17713373Y-12467963D01*
X17543534Y-12416443D01*
X17387009Y-12332778D01*
X17351271Y-12303448D01*
X17249814Y-12220186D01*
X17166552Y-12118729D01*
X17137222Y-12082991D01*
X17053557Y-11926466D01*
X17002037Y-11756627D01*
X16984641Y-11580000D01*
X17002037Y-11403373D01*
X17053557Y-11233534D01*
X17137222Y-11077009D01*
X17166552Y-11041271D01*
X17249814Y-10939814D01*
X17351271Y-10856552D01*
X17387009Y-10827222D01*
X17543534Y-10743557D01*
X17713373Y-10692037D01*
X17779558Y-10685518D01*
X17845740Y-10679000D01*
X18774260Y-10679000D01*
X18840442Y-10685518D01*
G37*
G36*
X15500442Y-10685518D02*
G01*
X15566627Y-10692037D01*
X15736466Y-10743557D01*
X15892991Y-10827222D01*
X15928729Y-10856552D01*
X16030186Y-10939814D01*
X16113448Y-11041271D01*
X16142778Y-11077009D01*
X16226443Y-11233534D01*
X16277963Y-11403373D01*
X16295359Y-11580000D01*
X16277963Y-11756627D01*
X16226443Y-11926466D01*
X16142778Y-12082991D01*
X16113448Y-12118729D01*
X16030186Y-12220186D01*
X15928729Y-12303448D01*
X15892991Y-12332778D01*
X15736466Y-12416443D01*
X15566627Y-12467963D01*
X15500442Y-12474482D01*
X15434260Y-12481000D01*
X14505740Y-12481000D01*
X14439558Y-12474482D01*
X14373373Y-12467963D01*
X14203534Y-12416443D01*
X14047009Y-12332778D01*
X14011271Y-12303448D01*
X13909814Y-12220186D01*
X13826552Y-12118729D01*
X13797222Y-12082991D01*
X13713557Y-11926466D01*
X13662037Y-11756627D01*
X13644641Y-11580000D01*
X13662037Y-11403373D01*
X13713557Y-11233534D01*
X13797222Y-11077009D01*
X13826552Y-11041271D01*
X13909814Y-10939814D01*
X14011271Y-10856552D01*
X14047009Y-10827222D01*
X14203534Y-10743557D01*
X14373373Y-10692037D01*
X14439558Y-10685518D01*
X14505740Y-10679000D01*
X15434260Y-10679000D01*
X15500442Y-10685518D01*
G37*
G36*
X4116626Y-6862037D02*
G01*
X4286465Y-6913557D01*
X4286467Y-6913558D01*
X4442989Y-6997221D01*
X4580186Y-7109814D01*
X4629556Y-7169973D01*
X4692778Y-7247009D01*
X4776443Y-7403534D01*
X4827963Y-7573373D01*
X4841000Y-7705742D01*
X4841000Y-8634258D01*
X4827963Y-8766627D01*
X4776443Y-8936466D01*
X4692778Y-9092991D01*
X4663448Y-9128729D01*
X4580186Y-9230186D01*
X4478729Y-9313448D01*
X4442991Y-9342778D01*
X4286466Y-9426443D01*
X4116627Y-9477963D01*
X3940000Y-9495359D01*
X3763374Y-9477963D01*
X3593535Y-9426443D01*
X3437010Y-9342778D01*
X3401272Y-9313448D01*
X3299815Y-9230186D01*
X3216553Y-9128729D01*
X3187223Y-9092991D01*
X3103558Y-8936466D01*
X3052038Y-8766627D01*
X3039000Y-8634258D01*
X3039000Y-7705743D01*
X3052037Y-7573374D01*
X3103557Y-7403535D01*
X3103559Y-7403532D01*
X3187221Y-7247011D01*
X3299814Y-7109814D01*
X3401271Y-7026552D01*
X3437009Y-6997222D01*
X3593534Y-6913557D01*
X3763373Y-6862037D01*
X3940000Y-6844641D01*
X4116626Y-6862037D01*
G37*
G36*
X11736626Y-6862037D02*
G01*
X11906465Y-6913557D01*
X11906467Y-6913558D01*
X12062989Y-6997221D01*
X12200186Y-7109814D01*
X12249556Y-7169973D01*
X12312778Y-7247009D01*
X12396443Y-7403534D01*
X12447963Y-7573373D01*
X12461000Y-7705742D01*
X12461000Y-8634258D01*
X12447963Y-8766627D01*
X12396443Y-8936466D01*
X12312778Y-9092991D01*
X12283448Y-9128729D01*
X12200186Y-9230186D01*
X12098729Y-9313448D01*
X12062991Y-9342778D01*
X11906466Y-9426443D01*
X11736627Y-9477963D01*
X11560000Y-9495359D01*
X11383374Y-9477963D01*
X11213535Y-9426443D01*
X11057010Y-9342778D01*
X11021272Y-9313448D01*
X10919815Y-9230186D01*
X10836553Y-9128729D01*
X10807223Y-9092991D01*
X10723558Y-8936466D01*
X10672038Y-8766627D01*
X10659000Y-8634258D01*
X10659000Y-7705743D01*
X10672037Y-7573374D01*
X10723557Y-7403535D01*
X10723559Y-7403532D01*
X10807221Y-7247011D01*
X10919814Y-7109814D01*
X11021271Y-7026552D01*
X11057009Y-6997222D01*
X11213534Y-6913557D01*
X11383373Y-6862037D01*
X11560000Y-6844641D01*
X11736626Y-6862037D01*
G37*
G36*
X9196626Y-6862037D02*
G01*
X9366465Y-6913557D01*
X9366467Y-6913558D01*
X9522989Y-6997221D01*
X9660186Y-7109814D01*
X9709556Y-7169973D01*
X9772778Y-7247009D01*
X9856443Y-7403534D01*
X9907963Y-7573373D01*
X9921000Y-7705742D01*
X9921000Y-8634258D01*
X9907963Y-8766627D01*
X9856443Y-8936466D01*
X9772778Y-9092991D01*
X9743448Y-9128729D01*
X9660186Y-9230186D01*
X9558729Y-9313448D01*
X9522991Y-9342778D01*
X9366466Y-9426443D01*
X9196627Y-9477963D01*
X9020000Y-9495359D01*
X8843374Y-9477963D01*
X8673535Y-9426443D01*
X8517010Y-9342778D01*
X8481272Y-9313448D01*
X8379815Y-9230186D01*
X8296553Y-9128729D01*
X8267223Y-9092991D01*
X8183558Y-8936466D01*
X8132038Y-8766627D01*
X8119000Y-8634258D01*
X8119000Y-7705743D01*
X8132037Y-7573374D01*
X8183557Y-7403535D01*
X8183559Y-7403532D01*
X8267221Y-7247011D01*
X8379814Y-7109814D01*
X8481271Y-7026552D01*
X8517009Y-6997222D01*
X8673534Y-6913557D01*
X8843373Y-6862037D01*
X9020000Y-6844641D01*
X9196626Y-6862037D01*
G37*
G36*
X16816626Y-6862037D02*
G01*
X16986465Y-6913557D01*
X16986467Y-6913558D01*
X17142989Y-6997221D01*
X17280186Y-7109814D01*
X17329556Y-7169973D01*
X17392778Y-7247009D01*
X17476443Y-7403534D01*
X17527963Y-7573373D01*
X17541000Y-7705742D01*
X17541000Y-8634258D01*
X17527963Y-8766627D01*
X17476443Y-8936466D01*
X17392778Y-9092991D01*
X17363448Y-9128729D01*
X17280186Y-9230186D01*
X17178729Y-9313448D01*
X17142991Y-9342778D01*
X16986466Y-9426443D01*
X16816627Y-9477963D01*
X16640000Y-9495359D01*
X16463374Y-9477963D01*
X16293535Y-9426443D01*
X16137010Y-9342778D01*
X16101272Y-9313448D01*
X15999815Y-9230186D01*
X15916553Y-9128729D01*
X15887223Y-9092991D01*
X15803558Y-8936466D01*
X15752038Y-8766627D01*
X15739000Y-8634258D01*
X15739000Y-7705743D01*
X15752037Y-7573374D01*
X15803557Y-7403535D01*
X15803559Y-7403532D01*
X15887221Y-7247011D01*
X15999814Y-7109814D01*
X16101271Y-7026552D01*
X16137009Y-6997222D01*
X16293534Y-6913557D01*
X16463373Y-6862037D01*
X16640000Y-6844641D01*
X16816626Y-6862037D01*
G37*
G36*
X6656626Y-6862037D02*
G01*
X6826465Y-6913557D01*
X6826467Y-6913558D01*
X6982989Y-6997221D01*
X7120186Y-7109814D01*
X7169556Y-7169973D01*
X7232778Y-7247009D01*
X7316443Y-7403534D01*
X7367963Y-7573373D01*
X7381000Y-7705742D01*
X7381000Y-8634258D01*
X7367963Y-8766627D01*
X7316443Y-8936466D01*
X7232778Y-9092991D01*
X7203448Y-9128729D01*
X7120186Y-9230186D01*
X7018729Y-9313448D01*
X6982991Y-9342778D01*
X6826466Y-9426443D01*
X6656627Y-9477963D01*
X6480000Y-9495359D01*
X6303374Y-9477963D01*
X6133535Y-9426443D01*
X5977010Y-9342778D01*
X5941272Y-9313448D01*
X5839815Y-9230186D01*
X5756553Y-9128729D01*
X5727223Y-9092991D01*
X5643558Y-8936466D01*
X5592038Y-8766627D01*
X5579000Y-8634258D01*
X5579000Y-7705743D01*
X5592037Y-7573374D01*
X5643557Y-7403535D01*
X5643559Y-7403532D01*
X5727221Y-7247011D01*
X5839814Y-7109814D01*
X5941271Y-7026552D01*
X5977009Y-6997222D01*
X6133534Y-6913557D01*
X6303373Y-6862037D01*
X6480000Y-6844641D01*
X6656626Y-6862037D01*
G37*
G36*
X14276626Y-6862037D02*
G01*
X14446465Y-6913557D01*
X14446467Y-6913558D01*
X14602989Y-6997221D01*
X14740186Y-7109814D01*
X14789556Y-7169973D01*
X14852778Y-7247009D01*
X14936443Y-7403534D01*
X14987963Y-7573373D01*
X15001000Y-7705742D01*
X15001000Y-8634258D01*
X14987963Y-8766627D01*
X14936443Y-8936466D01*
X14852778Y-9092991D01*
X14823448Y-9128729D01*
X14740186Y-9230186D01*
X14638729Y-9313448D01*
X14602991Y-9342778D01*
X14446466Y-9426443D01*
X14276627Y-9477963D01*
X14100000Y-9495359D01*
X13923374Y-9477963D01*
X13753535Y-9426443D01*
X13597010Y-9342778D01*
X13561272Y-9313448D01*
X13459815Y-9230186D01*
X13376553Y-9128729D01*
X13347223Y-9092991D01*
X13263558Y-8936466D01*
X13212038Y-8766627D01*
X13199000Y-8634258D01*
X13199000Y-7705743D01*
X13212037Y-7573374D01*
X13263557Y-7403535D01*
X13263559Y-7403532D01*
X13347221Y-7247011D01*
X13459814Y-7109814D01*
X13561271Y-7026552D01*
X13597009Y-6997222D01*
X13753534Y-6913557D01*
X13923373Y-6862037D01*
X14100000Y-6844641D01*
X14276626Y-6862037D01*
G37*
G36*
X20806564Y-5489389D02*
G01*
X20997833Y-5568615D01*
X20997835Y-5568616D01*
X21039515Y-5596466D01*
X21169973Y-5683635D01*
X21316365Y-5830027D01*
X21431385Y-6002167D01*
X21510611Y-6193436D01*
X21551000Y-6396484D01*
X21551000Y-6603516D01*
X21510611Y-6806564D01*
X21431638Y-6997221D01*
X21431384Y-6997835D01*
X21316365Y-7169973D01*
X21169973Y-7316365D01*
X20997835Y-7431384D01*
X20997834Y-7431385D01*
X20997833Y-7431385D01*
X20806564Y-7510611D01*
X20603516Y-7551000D01*
X20396484Y-7551000D01*
X20193436Y-7510611D01*
X20002167Y-7431385D01*
X20002166Y-7431385D01*
X20002165Y-7431384D01*
X19830027Y-7316365D01*
X19683635Y-7169973D01*
X19568616Y-6997835D01*
X19568362Y-6997221D01*
X19489389Y-6806564D01*
X19449000Y-6603516D01*
X19449000Y-6396484D01*
X19489389Y-6193436D01*
X19568615Y-6002167D01*
X19683635Y-5830027D01*
X19830027Y-5683635D01*
X19960485Y-5596466D01*
X20002165Y-5568616D01*
X20002167Y-5568615D01*
X20193436Y-5489389D01*
X20396484Y-5449000D01*
X20603516Y-5449000D01*
X20806564Y-5489389D01*
G37*
G36*
X11736626Y-3522037D02*
G01*
X11906465Y-3573557D01*
X11906467Y-3573558D01*
X12062989Y-3657221D01*
X12200186Y-3769814D01*
X12283448Y-3871271D01*
X12312778Y-3907009D01*
X12396443Y-4063534D01*
X12447963Y-4233373D01*
X12461000Y-4365742D01*
X12461000Y-5294258D01*
X12447963Y-5426627D01*
X12396443Y-5596466D01*
X12312778Y-5752991D01*
X12283448Y-5788729D01*
X12200186Y-5890186D01*
X12098729Y-5973448D01*
X12062991Y-6002778D01*
X11906466Y-6086443D01*
X11736627Y-6137963D01*
X11560000Y-6155359D01*
X11383374Y-6137963D01*
X11213535Y-6086443D01*
X11057010Y-6002778D01*
X11021272Y-5973448D01*
X10919815Y-5890186D01*
X10836553Y-5788729D01*
X10807223Y-5752991D01*
X10723558Y-5596466D01*
X10672038Y-5426627D01*
X10659000Y-5294258D01*
X10659000Y-4365743D01*
X10672037Y-4233374D01*
X10723557Y-4063535D01*
X10807222Y-3907010D01*
X10807223Y-3907009D01*
X10919814Y-3769814D01*
X11028911Y-3680282D01*
X11057009Y-3657222D01*
X11213534Y-3573557D01*
X11383373Y-3522037D01*
X11560000Y-3504641D01*
X11736626Y-3522037D01*
G37*
G36*
X16816626Y-3522037D02*
G01*
X16986465Y-3573557D01*
X16986467Y-3573558D01*
X17142989Y-3657221D01*
X17280186Y-3769814D01*
X17363448Y-3871271D01*
X17392778Y-3907009D01*
X17476443Y-4063534D01*
X17527963Y-4233373D01*
X17541000Y-4365742D01*
X17541000Y-5294258D01*
X17527963Y-5426627D01*
X17476443Y-5596466D01*
X17392778Y-5752991D01*
X17363448Y-5788729D01*
X17280186Y-5890186D01*
X17178729Y-5973448D01*
X17142991Y-6002778D01*
X16986466Y-6086443D01*
X16816627Y-6137963D01*
X16640000Y-6155359D01*
X16463374Y-6137963D01*
X16293535Y-6086443D01*
X16137010Y-6002778D01*
X16101272Y-5973448D01*
X15999815Y-5890186D01*
X15916553Y-5788729D01*
X15887223Y-5752991D01*
X15803558Y-5596466D01*
X15752038Y-5426627D01*
X15739000Y-5294258D01*
X15739000Y-4365743D01*
X15752037Y-4233374D01*
X15803557Y-4063535D01*
X15887222Y-3907010D01*
X15887223Y-3907009D01*
X15999814Y-3769814D01*
X16108911Y-3680282D01*
X16137009Y-3657222D01*
X16293534Y-3573557D01*
X16463373Y-3522037D01*
X16640000Y-3504641D01*
X16816626Y-3522037D01*
G37*
G36*
X14276626Y-3522037D02*
G01*
X14446465Y-3573557D01*
X14446467Y-3573558D01*
X14602989Y-3657221D01*
X14740186Y-3769814D01*
X14823448Y-3871271D01*
X14852778Y-3907009D01*
X14936443Y-4063534D01*
X14987963Y-4233373D01*
X15001000Y-4365742D01*
X15001000Y-5294258D01*
X14987963Y-5426627D01*
X14936443Y-5596466D01*
X14852778Y-5752991D01*
X14823448Y-5788729D01*
X14740186Y-5890186D01*
X14638729Y-5973448D01*
X14602991Y-6002778D01*
X14446466Y-6086443D01*
X14276627Y-6137963D01*
X14100000Y-6155359D01*
X13923374Y-6137963D01*
X13753535Y-6086443D01*
X13597010Y-6002778D01*
X13561272Y-5973448D01*
X13459815Y-5890186D01*
X13376553Y-5788729D01*
X13347223Y-5752991D01*
X13263558Y-5596466D01*
X13212038Y-5426627D01*
X13199000Y-5294258D01*
X13199000Y-4365743D01*
X13212037Y-4233374D01*
X13263557Y-4063535D01*
X13347222Y-3907010D01*
X13347223Y-3907009D01*
X13459814Y-3769814D01*
X13568911Y-3680282D01*
X13597009Y-3657222D01*
X13753534Y-3573557D01*
X13923373Y-3522037D01*
X14100000Y-3504641D01*
X14276626Y-3522037D01*
G37*
G36*
X6656626Y-3522037D02*
G01*
X6826465Y-3573557D01*
X6826467Y-3573558D01*
X6982989Y-3657221D01*
X7120186Y-3769814D01*
X7203448Y-3871271D01*
X7232778Y-3907009D01*
X7316443Y-4063534D01*
X7367963Y-4233373D01*
X7381000Y-4365742D01*
X7381000Y-5294258D01*
X7367963Y-5426627D01*
X7316443Y-5596466D01*
X7232778Y-5752991D01*
X7203448Y-5788729D01*
X7120186Y-5890186D01*
X7018729Y-5973448D01*
X6982991Y-6002778D01*
X6826466Y-6086443D01*
X6656627Y-6137963D01*
X6480000Y-6155359D01*
X6303374Y-6137963D01*
X6133535Y-6086443D01*
X5977010Y-6002778D01*
X5941272Y-5973448D01*
X5839815Y-5890186D01*
X5756553Y-5788729D01*
X5727223Y-5752991D01*
X5643558Y-5596466D01*
X5592038Y-5426627D01*
X5579000Y-5294258D01*
X5579000Y-4365743D01*
X5592037Y-4233374D01*
X5643557Y-4063535D01*
X5727222Y-3907010D01*
X5727223Y-3907009D01*
X5839814Y-3769814D01*
X5948911Y-3680282D01*
X5977009Y-3657222D01*
X6133534Y-3573557D01*
X6303373Y-3522037D01*
X6480000Y-3504641D01*
X6656626Y-3522037D01*
G37*
G36*
X9196626Y-3522037D02*
G01*
X9366465Y-3573557D01*
X9366467Y-3573558D01*
X9522989Y-3657221D01*
X9660186Y-3769814D01*
X9743448Y-3871271D01*
X9772778Y-3907009D01*
X9856443Y-4063534D01*
X9907963Y-4233373D01*
X9921000Y-4365742D01*
X9921000Y-5294258D01*
X9907963Y-5426627D01*
X9856443Y-5596466D01*
X9772778Y-5752991D01*
X9743448Y-5788729D01*
X9660186Y-5890186D01*
X9558729Y-5973448D01*
X9522991Y-6002778D01*
X9366466Y-6086443D01*
X9196627Y-6137963D01*
X9020000Y-6155359D01*
X8843374Y-6137963D01*
X8673535Y-6086443D01*
X8517010Y-6002778D01*
X8481272Y-5973448D01*
X8379815Y-5890186D01*
X8296553Y-5788729D01*
X8267223Y-5752991D01*
X8183558Y-5596466D01*
X8132038Y-5426627D01*
X8119000Y-5294258D01*
X8119000Y-4365743D01*
X8132037Y-4233374D01*
X8183557Y-4063535D01*
X8267222Y-3907010D01*
X8267223Y-3907009D01*
X8379814Y-3769814D01*
X8488911Y-3680282D01*
X8517009Y-3657222D01*
X8673534Y-3573557D01*
X8843373Y-3522037D01*
X9020000Y-3504641D01*
X9196626Y-3522037D01*
G37*
G36*
X4116626Y-3522037D02*
G01*
X4286465Y-3573557D01*
X4286467Y-3573558D01*
X4442989Y-3657221D01*
X4580186Y-3769814D01*
X4663448Y-3871271D01*
X4692778Y-3907009D01*
X4776443Y-4063534D01*
X4827963Y-4233373D01*
X4841000Y-4365742D01*
X4841000Y-5294258D01*
X4827963Y-5426627D01*
X4776443Y-5596466D01*
X4692778Y-5752991D01*
X4663448Y-5788729D01*
X4580186Y-5890186D01*
X4478729Y-5973448D01*
X4442991Y-6002778D01*
X4286466Y-6086443D01*
X4116627Y-6137963D01*
X3940000Y-6155359D01*
X3763374Y-6137963D01*
X3593535Y-6086443D01*
X3437010Y-6002778D01*
X3401272Y-5973448D01*
X3299815Y-5890186D01*
X3216553Y-5788729D01*
X3187223Y-5752991D01*
X3103558Y-5596466D01*
X3052038Y-5426627D01*
X3039000Y-5294258D01*
X3039000Y-4365743D01*
X3052037Y-4233374D01*
X3103557Y-4063535D01*
X3187222Y-3907010D01*
X3187223Y-3907009D01*
X3299814Y-3769814D01*
X3408911Y-3680282D01*
X3437009Y-3657222D01*
X3593534Y-3573557D01*
X3763373Y-3522037D01*
X3940000Y-3504641D01*
X4116626Y-3522037D01*
G37*
G36*
X19588674Y-2203465D02*
G01*
X19626367Y-2214899D01*
X19661103Y-2233466D01*
X19691548Y-2258452D01*
X19716534Y-2288897D01*
X19735101Y-2323633D01*
X19746535Y-2361326D01*
X19751000Y-2406661D01*
X19751000Y-3493339D01*
X19746535Y-3538674D01*
X19735101Y-3576367D01*
X19716534Y-3611103D01*
X19691548Y-3641548D01*
X19661103Y-3666534D01*
X19626367Y-3685101D01*
X19588674Y-3696535D01*
X19543339Y-3701000D01*
X18706661Y-3701000D01*
X18661326Y-3696535D01*
X18623633Y-3685101D01*
X18588897Y-3666534D01*
X18558452Y-3641548D01*
X18533466Y-3611103D01*
X18514899Y-3576367D01*
X18503465Y-3538674D01*
X18499000Y-3493339D01*
X18499000Y-2406661D01*
X18503465Y-2361326D01*
X18514899Y-2323633D01*
X18533466Y-2288897D01*
X18558452Y-2258452D01*
X18588897Y-2233466D01*
X18623633Y-2214899D01*
X18661326Y-2203465D01*
X18706661Y-2199000D01*
X19543339Y-2199000D01*
X19588674Y-2203465D01*
G37*
G36*
X21638674Y-2203465D02*
G01*
X21676367Y-2214899D01*
X21711103Y-2233466D01*
X21741548Y-2258452D01*
X21766534Y-2288897D01*
X21785101Y-2323633D01*
X21796535Y-2361326D01*
X21801000Y-2406661D01*
X21801000Y-3493339D01*
X21796535Y-3538674D01*
X21785101Y-3576367D01*
X21766534Y-3611103D01*
X21741548Y-3641548D01*
X21711103Y-3666534D01*
X21676367Y-3685101D01*
X21638674Y-3696535D01*
X21593339Y-3701000D01*
X20756661Y-3701000D01*
X20711326Y-3696535D01*
X20673633Y-3685101D01*
X20638897Y-3666534D01*
X20608452Y-3641548D01*
X20583466Y-3611103D01*
X20564899Y-3576367D01*
X20553465Y-3538674D01*
X20549000Y-3493339D01*
X20549000Y-2406661D01*
X20553465Y-2361326D01*
X20564899Y-2323633D01*
X20583466Y-2288897D01*
X20608452Y-2258452D01*
X20638897Y-2233466D01*
X20673633Y-2214899D01*
X20711326Y-2203465D01*
X20756661Y-2199000D01*
X21593339Y-2199000D01*
X21638674Y-2203465D01*
G37*
M02*
