G04 #@! TF.GenerationSoftware,KiCad,Pcbnew,5.1.4+dfsg1-1*
G04 #@! TF.CreationDate,2019-11-26T20:14:11-08:00*
G04 #@! TF.ProjectId,glasgow-pmod,676c6173-676f-4772-9d70-6d6f642e6b69,rev?*
G04 #@! TF.SameCoordinates,PX9001f78PY487d01c*
G04 #@! TF.FileFunction,Paste,Bot*
G04 #@! TF.FilePolarity,Positive*
%FSLAX46Y46*%
G04 Gerber Fmt 4.6, Leading zero omitted, Abs format (unit mm)*
G04 Created by KiCad (PCBNEW 5.1.4+dfsg1-1) date 2019-11-26 20:14:11*
%MOMM*%
%LPD*%
G04 APERTURE LIST*
%ADD10R,2.100000X0.750000*%
G04 APERTURE END LIST*
D10*
X8683400Y-46037500D03*
X5083400Y-46037500D03*
X8683400Y-44767500D03*
X5083400Y-44767500D03*
X8683400Y-43497500D03*
X5083400Y-43497500D03*
X8683400Y-42227500D03*
X5083400Y-42227500D03*
X8683400Y-40957500D03*
X5083400Y-40957500D03*
X8683400Y-39687500D03*
X5083400Y-39687500D03*
X8683400Y-38417500D03*
X5083400Y-38417500D03*
X8683400Y-37147500D03*
X5083400Y-37147500D03*
X8683400Y-35877500D03*
X5083400Y-35877500D03*
X8683400Y-34607500D03*
X5083400Y-34607500D03*
X8683400Y-33337500D03*
X5083400Y-33337500D03*
X8683400Y-32067500D03*
X5083400Y-32067500D03*
X8683400Y-30797500D03*
X5083400Y-30797500D03*
X8683400Y-29527500D03*
X5083400Y-29527500D03*
X8683400Y-28257500D03*
X5083400Y-28257500D03*
X8683400Y-26987500D03*
X5083400Y-26987500D03*
X8683400Y-25717500D03*
X5083400Y-25717500D03*
X8683400Y-24447500D03*
X5083400Y-24447500D03*
X8683400Y-23177500D03*
X5083400Y-23177500D03*
X8683400Y-21907500D03*
X5083400Y-21907500D03*
X8683400Y-20637500D03*
X5083400Y-20637500D03*
X8683400Y-19367500D03*
X5083400Y-19367500D03*
M02*
