%TF.GenerationSoftware,KiCad,Pcbnew,5.1.7-a382d34a8~88~ubuntu20.04.1*%
%TF.CreationDate,2021-01-15T04:41:24-08:00*%
%TF.ProjectId,kindcalmsafe,6b696e64-6361-46c6-9d73-6166652e6b69,rev?*%
%TF.SameCoordinates,Original*%
%TF.FileFunction,Legend,Top*%
%TF.FilePolarity,Positive*%
%FSLAX46Y46*%
G04 Gerber Fmt 4.6, Leading zero omitted, Abs format (unit mm)*
G04 Created by KiCad (PCBNEW 5.1.7-a382d34a8~88~ubuntu20.04.1) date 2021-01-15 04:41:24*
%MOMM*%
%LPD*%
G01*
G04 APERTURE LIST*
%ADD10C,0.010000*%
G04 APERTURE END LIST*
D10*
%TO.C,H4*%
G36*
X71414528Y-106731435D02*
G01*
X72285226Y-106733025D01*
X73016621Y-106736196D01*
X73623728Y-106741375D01*
X74121563Y-106748989D01*
X74525139Y-106759463D01*
X74849472Y-106773226D01*
X75109576Y-106790703D01*
X75320466Y-106812321D01*
X75497157Y-106838506D01*
X75654663Y-106869685D01*
X75709277Y-106882148D01*
X76489639Y-107116158D01*
X77149715Y-107431411D01*
X77727440Y-107848817D01*
X78081228Y-108189545D01*
X78449515Y-108620747D01*
X78709936Y-109035195D01*
X78878304Y-109476384D01*
X78970435Y-109987806D01*
X79002143Y-110612953D01*
X79002667Y-110723597D01*
X78971831Y-111383766D01*
X78871833Y-111922285D01*
X78691432Y-112376618D01*
X78419390Y-112784234D01*
X78364938Y-112849573D01*
X78067231Y-113197377D01*
X78505522Y-113604855D01*
X78772847Y-113869407D01*
X79026318Y-114146707D01*
X79184906Y-114342536D01*
X79328356Y-114532665D01*
X79399572Y-114596211D01*
X79423683Y-114545133D01*
X79426000Y-114457288D01*
X79457969Y-114218931D01*
X79543133Y-113877118D01*
X79665382Y-113482896D01*
X79808601Y-113087310D01*
X79956680Y-112741404D01*
X79987319Y-112678995D01*
X80206466Y-112332822D01*
X80526224Y-111936332D01*
X80905680Y-111532187D01*
X81303921Y-111163048D01*
X81680033Y-110871574D01*
X81785976Y-110803514D01*
X82101258Y-110637751D01*
X82502118Y-110460561D01*
X82910961Y-110305775D01*
X82982000Y-110282061D01*
X83278116Y-110190410D01*
X83537125Y-110125893D01*
X83800574Y-110083571D01*
X84110010Y-110058503D01*
X84506979Y-110045750D01*
X85014000Y-110040480D01*
X85542546Y-110040413D01*
X85941877Y-110049750D01*
X86252020Y-110072426D01*
X86513003Y-110112377D01*
X86764857Y-110173537D01*
X86959198Y-110231717D01*
X87553167Y-110439597D01*
X88032865Y-110664795D01*
X88452651Y-110940055D01*
X88866884Y-111298118D01*
X89079660Y-111508970D01*
X89676653Y-112223373D01*
X90126039Y-112999852D01*
X90432691Y-113851017D01*
X90601481Y-114789479D01*
X90640497Y-115548204D01*
X90637573Y-115984474D01*
X90621873Y-116284319D01*
X90589291Y-116480425D01*
X90535722Y-116605480D01*
X90502250Y-116648870D01*
X90417311Y-116777073D01*
X90405554Y-116932703D01*
X90455311Y-117162680D01*
X90487003Y-117573440D01*
X90395902Y-118055329D01*
X90195388Y-118578828D01*
X89898842Y-119114417D01*
X89519645Y-119632577D01*
X89160047Y-120020253D01*
X88688767Y-120429040D01*
X88204375Y-120745873D01*
X87677612Y-120980662D01*
X87079219Y-121143316D01*
X86379937Y-121243747D01*
X85550507Y-121291865D01*
X85395000Y-121295545D01*
X84926950Y-121301749D01*
X84500414Y-121301976D01*
X84152971Y-121296601D01*
X83922197Y-121285998D01*
X83871000Y-121280381D01*
X83372214Y-121177713D01*
X82832362Y-121028142D01*
X82340354Y-120857341D01*
X82192005Y-120795573D01*
X81636851Y-120479670D01*
X81083693Y-120039506D01*
X80572100Y-119515936D01*
X80141641Y-118949811D01*
X79831884Y-118381984D01*
X79815035Y-118341485D01*
X79628626Y-117882836D01*
X79479563Y-118302531D01*
X79313690Y-118635878D01*
X79029767Y-119019983D01*
X78726618Y-119357958D01*
X78307877Y-119773512D01*
X77930021Y-120081813D01*
X77540991Y-120317152D01*
X77088732Y-120513823D01*
X76834704Y-120604289D01*
X76563862Y-120694339D01*
X76313634Y-120771044D01*
X76068200Y-120835472D01*
X75811741Y-120888693D01*
X75528436Y-120931775D01*
X75202465Y-120965787D01*
X74818008Y-120991796D01*
X74359244Y-121010873D01*
X73810353Y-121024086D01*
X73155515Y-121032503D01*
X72378910Y-121037193D01*
X71464717Y-121039224D01*
X70397117Y-121039666D01*
X70389514Y-121039667D01*
X65713361Y-121039667D01*
X65159667Y-120486077D01*
X65159667Y-118629923D01*
X65430764Y-118358825D01*
X65616327Y-118198114D01*
X65808283Y-118108246D01*
X66074721Y-118062429D01*
X66213931Y-118050687D01*
X66726000Y-118013648D01*
X66726000Y-109757019D01*
X66213931Y-109719979D01*
X65899847Y-109684104D01*
X65686872Y-109614652D01*
X65506916Y-109484834D01*
X65430764Y-109411841D01*
X65159667Y-109140743D01*
X65159667Y-108720667D01*
X66218000Y-108720667D01*
X67742000Y-108720667D01*
X67742000Y-119134667D01*
X66218000Y-119134667D01*
X66218000Y-120066000D01*
X69583500Y-120065257D01*
X70378249Y-120062922D01*
X71167525Y-120056601D01*
X71924212Y-120046795D01*
X72621196Y-120034004D01*
X73231361Y-120018730D01*
X73727593Y-120001474D01*
X74082776Y-119982736D01*
X74094484Y-119981904D01*
X75160373Y-119863171D01*
X76077166Y-119669876D01*
X76849086Y-119399334D01*
X77480358Y-119048860D01*
X77975208Y-118615769D01*
X78337859Y-118097377D01*
X78572536Y-117490998D01*
X78653583Y-117084463D01*
X78689653Y-116328053D01*
X78632608Y-115986511D01*
X80453077Y-115986511D01*
X80488958Y-116566726D01*
X80562443Y-117051649D01*
X80569471Y-117082369D01*
X80837683Y-117886797D01*
X81235221Y-118582823D01*
X81757707Y-119165955D01*
X82400766Y-119631700D01*
X83160017Y-119975566D01*
X83485828Y-120075440D01*
X83918944Y-120157252D01*
X84465085Y-120208592D01*
X85070600Y-120228859D01*
X85681835Y-120217448D01*
X86245138Y-120173758D01*
X86645510Y-120110934D01*
X87373083Y-119883961D01*
X88017504Y-119536501D01*
X88557818Y-119084224D01*
X88973075Y-118542801D01*
X89119754Y-118260496D01*
X89282078Y-117894999D01*
X89368704Y-117658269D01*
X89368227Y-117522417D01*
X89269240Y-117459555D01*
X89060338Y-117441796D01*
X88784715Y-117441333D01*
X88405856Y-117453606D01*
X88184212Y-117491516D01*
X88111007Y-117547167D01*
X87868353Y-118194255D01*
X87548878Y-118693521D01*
X87142958Y-119052572D01*
X86640966Y-119279015D01*
X86033277Y-119380459D01*
X85782084Y-119387839D01*
X85205657Y-119325402D01*
X84706057Y-119147913D01*
X84310332Y-118867411D01*
X84133731Y-118654253D01*
X83933593Y-118247578D01*
X83770772Y-117701102D01*
X83689738Y-117249658D01*
X84772428Y-117249658D01*
X84823075Y-117457915D01*
X84916562Y-117704226D01*
X85032390Y-117934059D01*
X85143035Y-118086066D01*
X85317426Y-118217249D01*
X85537834Y-118276977D01*
X85776356Y-118288000D01*
X86086942Y-118261295D01*
X86371307Y-118193836D01*
X86463985Y-118155492D01*
X86707426Y-117943939D01*
X86923743Y-117583992D01*
X87127258Y-117145000D01*
X85974316Y-117121368D01*
X85550749Y-117115255D01*
X85191702Y-117114939D01*
X84929175Y-117120080D01*
X84795167Y-117130338D01*
X84785122Y-117133988D01*
X84772428Y-117249658D01*
X83689738Y-117249658D01*
X83652399Y-117041645D01*
X83614166Y-116700500D01*
X83557481Y-116086667D01*
X89685551Y-116086667D01*
X89639305Y-115769167D01*
X89601464Y-115494212D01*
X89557523Y-115154023D01*
X89536794Y-114986000D01*
X89369275Y-114173281D01*
X89077609Y-113412240D01*
X88677296Y-112728740D01*
X88183836Y-112148643D01*
X87612730Y-111697813D01*
X87539541Y-111653526D01*
X87052859Y-111430642D01*
X86455419Y-111254442D01*
X85802350Y-111137630D01*
X85148784Y-111092910D01*
X85106290Y-111092803D01*
X84142254Y-111161206D01*
X83276251Y-111359694D01*
X82513824Y-111684317D01*
X81860518Y-112131125D01*
X81321878Y-112696170D01*
X80903448Y-113375502D01*
X80610772Y-114165172D01*
X80570749Y-114323487D01*
X80494002Y-114799955D01*
X80454768Y-115375942D01*
X80453077Y-115986511D01*
X78632608Y-115986511D01*
X78576504Y-115650606D01*
X78315676Y-115053975D01*
X77908706Y-114540013D01*
X77357134Y-114110570D01*
X76662498Y-113767500D01*
X75826336Y-113512655D01*
X75655653Y-113475202D01*
X75303216Y-113400846D01*
X75099474Y-113351138D01*
X75027178Y-113317014D01*
X75069081Y-113289412D01*
X75207932Y-113259266D01*
X75235000Y-113254163D01*
X76051274Y-113052124D01*
X76716605Y-112779220D01*
X77235245Y-112432324D01*
X77611443Y-112008310D01*
X77849450Y-111504052D01*
X77904453Y-111291181D01*
X77961960Y-110623791D01*
X77862744Y-109982652D01*
X77618091Y-109391524D01*
X77239288Y-108874166D01*
X76737622Y-108454340D01*
X76488595Y-108310561D01*
X76292187Y-108212360D01*
X76108432Y-108128948D01*
X75921998Y-108059005D01*
X75717554Y-108001215D01*
X75479769Y-107954257D01*
X75193311Y-107916815D01*
X74842848Y-107887570D01*
X74413049Y-107865203D01*
X73888583Y-107848395D01*
X73254117Y-107835830D01*
X72494321Y-107826187D01*
X71593863Y-107818150D01*
X70684167Y-107811437D01*
X66218000Y-107779766D01*
X66218000Y-108720667D01*
X65159667Y-108720667D01*
X65159667Y-107284590D01*
X65713361Y-106731000D01*
X70389514Y-106731000D01*
X71414528Y-106731435D01*
G37*
X71414528Y-106731435D02*
X72285226Y-106733025D01*
X73016621Y-106736196D01*
X73623728Y-106741375D01*
X74121563Y-106748989D01*
X74525139Y-106759463D01*
X74849472Y-106773226D01*
X75109576Y-106790703D01*
X75320466Y-106812321D01*
X75497157Y-106838506D01*
X75654663Y-106869685D01*
X75709277Y-106882148D01*
X76489639Y-107116158D01*
X77149715Y-107431411D01*
X77727440Y-107848817D01*
X78081228Y-108189545D01*
X78449515Y-108620747D01*
X78709936Y-109035195D01*
X78878304Y-109476384D01*
X78970435Y-109987806D01*
X79002143Y-110612953D01*
X79002667Y-110723597D01*
X78971831Y-111383766D01*
X78871833Y-111922285D01*
X78691432Y-112376618D01*
X78419390Y-112784234D01*
X78364938Y-112849573D01*
X78067231Y-113197377D01*
X78505522Y-113604855D01*
X78772847Y-113869407D01*
X79026318Y-114146707D01*
X79184906Y-114342536D01*
X79328356Y-114532665D01*
X79399572Y-114596211D01*
X79423683Y-114545133D01*
X79426000Y-114457288D01*
X79457969Y-114218931D01*
X79543133Y-113877118D01*
X79665382Y-113482896D01*
X79808601Y-113087310D01*
X79956680Y-112741404D01*
X79987319Y-112678995D01*
X80206466Y-112332822D01*
X80526224Y-111936332D01*
X80905680Y-111532187D01*
X81303921Y-111163048D01*
X81680033Y-110871574D01*
X81785976Y-110803514D01*
X82101258Y-110637751D01*
X82502118Y-110460561D01*
X82910961Y-110305775D01*
X82982000Y-110282061D01*
X83278116Y-110190410D01*
X83537125Y-110125893D01*
X83800574Y-110083571D01*
X84110010Y-110058503D01*
X84506979Y-110045750D01*
X85014000Y-110040480D01*
X85542546Y-110040413D01*
X85941877Y-110049750D01*
X86252020Y-110072426D01*
X86513003Y-110112377D01*
X86764857Y-110173537D01*
X86959198Y-110231717D01*
X87553167Y-110439597D01*
X88032865Y-110664795D01*
X88452651Y-110940055D01*
X88866884Y-111298118D01*
X89079660Y-111508970D01*
X89676653Y-112223373D01*
X90126039Y-112999852D01*
X90432691Y-113851017D01*
X90601481Y-114789479D01*
X90640497Y-115548204D01*
X90637573Y-115984474D01*
X90621873Y-116284319D01*
X90589291Y-116480425D01*
X90535722Y-116605480D01*
X90502250Y-116648870D01*
X90417311Y-116777073D01*
X90405554Y-116932703D01*
X90455311Y-117162680D01*
X90487003Y-117573440D01*
X90395902Y-118055329D01*
X90195388Y-118578828D01*
X89898842Y-119114417D01*
X89519645Y-119632577D01*
X89160047Y-120020253D01*
X88688767Y-120429040D01*
X88204375Y-120745873D01*
X87677612Y-120980662D01*
X87079219Y-121143316D01*
X86379937Y-121243747D01*
X85550507Y-121291865D01*
X85395000Y-121295545D01*
X84926950Y-121301749D01*
X84500414Y-121301976D01*
X84152971Y-121296601D01*
X83922197Y-121285998D01*
X83871000Y-121280381D01*
X83372214Y-121177713D01*
X82832362Y-121028142D01*
X82340354Y-120857341D01*
X82192005Y-120795573D01*
X81636851Y-120479670D01*
X81083693Y-120039506D01*
X80572100Y-119515936D01*
X80141641Y-118949811D01*
X79831884Y-118381984D01*
X79815035Y-118341485D01*
X79628626Y-117882836D01*
X79479563Y-118302531D01*
X79313690Y-118635878D01*
X79029767Y-119019983D01*
X78726618Y-119357958D01*
X78307877Y-119773512D01*
X77930021Y-120081813D01*
X77540991Y-120317152D01*
X77088732Y-120513823D01*
X76834704Y-120604289D01*
X76563862Y-120694339D01*
X76313634Y-120771044D01*
X76068200Y-120835472D01*
X75811741Y-120888693D01*
X75528436Y-120931775D01*
X75202465Y-120965787D01*
X74818008Y-120991796D01*
X74359244Y-121010873D01*
X73810353Y-121024086D01*
X73155515Y-121032503D01*
X72378910Y-121037193D01*
X71464717Y-121039224D01*
X70397117Y-121039666D01*
X70389514Y-121039667D01*
X65713361Y-121039667D01*
X65159667Y-120486077D01*
X65159667Y-118629923D01*
X65430764Y-118358825D01*
X65616327Y-118198114D01*
X65808283Y-118108246D01*
X66074721Y-118062429D01*
X66213931Y-118050687D01*
X66726000Y-118013648D01*
X66726000Y-109757019D01*
X66213931Y-109719979D01*
X65899847Y-109684104D01*
X65686872Y-109614652D01*
X65506916Y-109484834D01*
X65430764Y-109411841D01*
X65159667Y-109140743D01*
X65159667Y-108720667D01*
X66218000Y-108720667D01*
X67742000Y-108720667D01*
X67742000Y-119134667D01*
X66218000Y-119134667D01*
X66218000Y-120066000D01*
X69583500Y-120065257D01*
X70378249Y-120062922D01*
X71167525Y-120056601D01*
X71924212Y-120046795D01*
X72621196Y-120034004D01*
X73231361Y-120018730D01*
X73727593Y-120001474D01*
X74082776Y-119982736D01*
X74094484Y-119981904D01*
X75160373Y-119863171D01*
X76077166Y-119669876D01*
X76849086Y-119399334D01*
X77480358Y-119048860D01*
X77975208Y-118615769D01*
X78337859Y-118097377D01*
X78572536Y-117490998D01*
X78653583Y-117084463D01*
X78689653Y-116328053D01*
X78632608Y-115986511D01*
X80453077Y-115986511D01*
X80488958Y-116566726D01*
X80562443Y-117051649D01*
X80569471Y-117082369D01*
X80837683Y-117886797D01*
X81235221Y-118582823D01*
X81757707Y-119165955D01*
X82400766Y-119631700D01*
X83160017Y-119975566D01*
X83485828Y-120075440D01*
X83918944Y-120157252D01*
X84465085Y-120208592D01*
X85070600Y-120228859D01*
X85681835Y-120217448D01*
X86245138Y-120173758D01*
X86645510Y-120110934D01*
X87373083Y-119883961D01*
X88017504Y-119536501D01*
X88557818Y-119084224D01*
X88973075Y-118542801D01*
X89119754Y-118260496D01*
X89282078Y-117894999D01*
X89368704Y-117658269D01*
X89368227Y-117522417D01*
X89269240Y-117459555D01*
X89060338Y-117441796D01*
X88784715Y-117441333D01*
X88405856Y-117453606D01*
X88184212Y-117491516D01*
X88111007Y-117547167D01*
X87868353Y-118194255D01*
X87548878Y-118693521D01*
X87142958Y-119052572D01*
X86640966Y-119279015D01*
X86033277Y-119380459D01*
X85782084Y-119387839D01*
X85205657Y-119325402D01*
X84706057Y-119147913D01*
X84310332Y-118867411D01*
X84133731Y-118654253D01*
X83933593Y-118247578D01*
X83770772Y-117701102D01*
X83689738Y-117249658D01*
X84772428Y-117249658D01*
X84823075Y-117457915D01*
X84916562Y-117704226D01*
X85032390Y-117934059D01*
X85143035Y-118086066D01*
X85317426Y-118217249D01*
X85537834Y-118276977D01*
X85776356Y-118288000D01*
X86086942Y-118261295D01*
X86371307Y-118193836D01*
X86463985Y-118155492D01*
X86707426Y-117943939D01*
X86923743Y-117583992D01*
X87127258Y-117145000D01*
X85974316Y-117121368D01*
X85550749Y-117115255D01*
X85191702Y-117114939D01*
X84929175Y-117120080D01*
X84795167Y-117130338D01*
X84785122Y-117133988D01*
X84772428Y-117249658D01*
X83689738Y-117249658D01*
X83652399Y-117041645D01*
X83614166Y-116700500D01*
X83557481Y-116086667D01*
X89685551Y-116086667D01*
X89639305Y-115769167D01*
X89601464Y-115494212D01*
X89557523Y-115154023D01*
X89536794Y-114986000D01*
X89369275Y-114173281D01*
X89077609Y-113412240D01*
X88677296Y-112728740D01*
X88183836Y-112148643D01*
X87612730Y-111697813D01*
X87539541Y-111653526D01*
X87052859Y-111430642D01*
X86455419Y-111254442D01*
X85802350Y-111137630D01*
X85148784Y-111092910D01*
X85106290Y-111092803D01*
X84142254Y-111161206D01*
X83276251Y-111359694D01*
X82513824Y-111684317D01*
X81860518Y-112131125D01*
X81321878Y-112696170D01*
X80903448Y-113375502D01*
X80610772Y-114165172D01*
X80570749Y-114323487D01*
X80494002Y-114799955D01*
X80454768Y-115375942D01*
X80453077Y-115986511D01*
X78632608Y-115986511D01*
X78576504Y-115650606D01*
X78315676Y-115053975D01*
X77908706Y-114540013D01*
X77357134Y-114110570D01*
X76662498Y-113767500D01*
X75826336Y-113512655D01*
X75655653Y-113475202D01*
X75303216Y-113400846D01*
X75099474Y-113351138D01*
X75027178Y-113317014D01*
X75069081Y-113289412D01*
X75207932Y-113259266D01*
X75235000Y-113254163D01*
X76051274Y-113052124D01*
X76716605Y-112779220D01*
X77235245Y-112432324D01*
X77611443Y-112008310D01*
X77849450Y-111504052D01*
X77904453Y-111291181D01*
X77961960Y-110623791D01*
X77862744Y-109982652D01*
X77618091Y-109391524D01*
X77239288Y-108874166D01*
X76737622Y-108454340D01*
X76488595Y-108310561D01*
X76292187Y-108212360D01*
X76108432Y-108128948D01*
X75921998Y-108059005D01*
X75717554Y-108001215D01*
X75479769Y-107954257D01*
X75193311Y-107916815D01*
X74842848Y-107887570D01*
X74413049Y-107865203D01*
X73888583Y-107848395D01*
X73254117Y-107835830D01*
X72494321Y-107826187D01*
X71593863Y-107818150D01*
X70684167Y-107811437D01*
X66218000Y-107779766D01*
X66218000Y-108720667D01*
X65159667Y-108720667D01*
X65159667Y-107284590D01*
X65713361Y-106731000D01*
X70389514Y-106731000D01*
X71414528Y-106731435D01*
G36*
X125560935Y-106206443D02*
G01*
X126337626Y-106243036D01*
X126965505Y-106296492D01*
X127464625Y-106371053D01*
X127855036Y-106470959D01*
X128156789Y-106600452D01*
X128389935Y-106763772D01*
X128446224Y-106816713D01*
X128744333Y-107114822D01*
X128744333Y-109818077D01*
X128471713Y-110090697D01*
X128299039Y-110243677D01*
X128125896Y-110331876D01*
X127890616Y-110378170D01*
X127641031Y-110398852D01*
X127082968Y-110434386D01*
X127276116Y-110639983D01*
X127387891Y-110795577D01*
X127455803Y-111001417D01*
X127494223Y-111308357D01*
X127503015Y-111442884D01*
X127536765Y-112040188D01*
X128055883Y-111531573D01*
X128567800Y-111077264D01*
X129082469Y-110730365D01*
X129661414Y-110454000D01*
X130141333Y-110281639D01*
X130437655Y-110190120D01*
X130697036Y-110125701D01*
X130961049Y-110083448D01*
X131271266Y-110058428D01*
X131669256Y-110045707D01*
X132173333Y-110040480D01*
X132701880Y-110040413D01*
X133101210Y-110049750D01*
X133411353Y-110072426D01*
X133672337Y-110112377D01*
X133924190Y-110173537D01*
X134118531Y-110231717D01*
X134712500Y-110439597D01*
X135192199Y-110664795D01*
X135611985Y-110940055D01*
X136026217Y-111298118D01*
X136238993Y-111508970D01*
X136835987Y-112223373D01*
X137285373Y-112999852D01*
X137592024Y-113851017D01*
X137760814Y-114789479D01*
X137799831Y-115548204D01*
X137796907Y-115984474D01*
X137781207Y-116284319D01*
X137748625Y-116480425D01*
X137695055Y-116605480D01*
X137661583Y-116648870D01*
X137576645Y-116777073D01*
X137564887Y-116932703D01*
X137614644Y-117162680D01*
X137646336Y-117573440D01*
X137555235Y-118055329D01*
X137354721Y-118578828D01*
X137058176Y-119114417D01*
X136678978Y-119632577D01*
X136319380Y-120020253D01*
X135859298Y-120422153D01*
X135390594Y-120735844D01*
X134885579Y-120970079D01*
X134316561Y-121133612D01*
X133655849Y-121235195D01*
X132875751Y-121283582D01*
X132300333Y-121290674D01*
X131409842Y-121266399D01*
X130654972Y-121191050D01*
X130007110Y-121054807D01*
X129437645Y-120847845D01*
X128917966Y-120560343D01*
X128419460Y-120182478D01*
X128034521Y-119826222D01*
X127512434Y-119244320D01*
X127121899Y-118645379D01*
X126829969Y-117972920D01*
X126692587Y-117526000D01*
X126612794Y-117110369D01*
X126560820Y-116583541D01*
X126536212Y-115989737D01*
X126536224Y-115986511D01*
X127612410Y-115986511D01*
X127648292Y-116566726D01*
X127721776Y-117051649D01*
X127728805Y-117082369D01*
X127997016Y-117886797D01*
X128394554Y-118582823D01*
X128917041Y-119165955D01*
X129560099Y-119631700D01*
X130319351Y-119975566D01*
X130645162Y-120075440D01*
X131078277Y-120157252D01*
X131624418Y-120208592D01*
X132229933Y-120228859D01*
X132841168Y-120217448D01*
X133404471Y-120173758D01*
X133804843Y-120110934D01*
X134532416Y-119883961D01*
X135176837Y-119536501D01*
X135717152Y-119084224D01*
X136132408Y-118542801D01*
X136279088Y-118260496D01*
X136441411Y-117894999D01*
X136528037Y-117658269D01*
X136527560Y-117522417D01*
X136428573Y-117459555D01*
X136219671Y-117441796D01*
X135944048Y-117441333D01*
X135565190Y-117453606D01*
X135343545Y-117491516D01*
X135270341Y-117547167D01*
X135027686Y-118194255D01*
X134708212Y-118693521D01*
X134302291Y-119052572D01*
X133800299Y-119279015D01*
X133192610Y-119380459D01*
X132941417Y-119387839D01*
X132364990Y-119325402D01*
X131865390Y-119147913D01*
X131469665Y-118867411D01*
X131293065Y-118654253D01*
X131092926Y-118247578D01*
X130930105Y-117701102D01*
X130849072Y-117249658D01*
X131931762Y-117249658D01*
X131982409Y-117457915D01*
X132075896Y-117704226D01*
X132191723Y-117934059D01*
X132302369Y-118086066D01*
X132476759Y-118217249D01*
X132697167Y-118276977D01*
X132935689Y-118288000D01*
X133246276Y-118261295D01*
X133530640Y-118193836D01*
X133623318Y-118155492D01*
X133866760Y-117943939D01*
X134083076Y-117583992D01*
X134286591Y-117145000D01*
X133133650Y-117121368D01*
X132710083Y-117115255D01*
X132351036Y-117114939D01*
X132088508Y-117120080D01*
X131954501Y-117130338D01*
X131944456Y-117133988D01*
X131931762Y-117249658D01*
X130849072Y-117249658D01*
X130811733Y-117041645D01*
X130773500Y-116700500D01*
X130716814Y-116086667D01*
X136844884Y-116086667D01*
X136798638Y-115769167D01*
X136760797Y-115494212D01*
X136716856Y-115154023D01*
X136696128Y-114986000D01*
X136528609Y-114173281D01*
X136236942Y-113412240D01*
X135836629Y-112728740D01*
X135343169Y-112148643D01*
X134772063Y-111697813D01*
X134698875Y-111653526D01*
X134212193Y-111430642D01*
X133614752Y-111254442D01*
X132961683Y-111137630D01*
X132308117Y-111092910D01*
X132265623Y-111092803D01*
X131301588Y-111161206D01*
X130435584Y-111359694D01*
X129673157Y-111684317D01*
X129019851Y-112131125D01*
X128481211Y-112696170D01*
X128062781Y-113375502D01*
X127770106Y-114165172D01*
X127730082Y-114323487D01*
X127653336Y-114799955D01*
X127614101Y-115375942D01*
X127612410Y-115986511D01*
X126536224Y-115986511D01*
X126538515Y-115373177D01*
X126567276Y-114778082D01*
X126622039Y-114248673D01*
X126702352Y-113829171D01*
X126731565Y-113730748D01*
X126821481Y-113444797D01*
X126852818Y-113289066D01*
X126828499Y-113236004D01*
X126783194Y-113243915D01*
X126641552Y-113267103D01*
X126381700Y-113284310D01*
X126054739Y-113292413D01*
X125985742Y-113292667D01*
X125315333Y-113292667D01*
X125315333Y-118014273D01*
X125868213Y-118049478D01*
X126187822Y-118079727D01*
X126400416Y-118135802D01*
X126568293Y-118240933D01*
X126693713Y-118357303D01*
X126966333Y-118629923D01*
X126966333Y-120486077D01*
X126412779Y-121039667D01*
X120593556Y-121059876D01*
X119273149Y-121063122D01*
X118109924Y-121063162D01*
X117105561Y-121060013D01*
X116261741Y-121053694D01*
X115580142Y-121044223D01*
X115062446Y-121031620D01*
X114710332Y-121015902D01*
X114525479Y-120997088D01*
X114507663Y-120992614D01*
X114321392Y-120954497D01*
X114113640Y-120972419D01*
X113828336Y-121053668D01*
X113703330Y-121097146D01*
X113449715Y-121178944D01*
X113202085Y-121234095D01*
X112917443Y-121267498D01*
X112552796Y-121284055D01*
X112065148Y-121288663D01*
X112022667Y-121288663D01*
X111536039Y-121285046D01*
X111177263Y-121271296D01*
X110904934Y-121242349D01*
X110677644Y-121193138D01*
X110453988Y-121118599D01*
X110371667Y-121086685D01*
X109851679Y-120808280D01*
X109359616Y-120412647D01*
X108927182Y-119936381D01*
X108586077Y-119416078D01*
X108368005Y-118888332D01*
X108330684Y-118730742D01*
X108277828Y-118453817D01*
X108102680Y-118815408D01*
X107886622Y-119155001D01*
X107561770Y-119536535D01*
X107168558Y-119921917D01*
X106747422Y-120273057D01*
X106338793Y-120551862D01*
X106154042Y-120651169D01*
X105677267Y-120861491D01*
X105219305Y-121021364D01*
X104743895Y-121137559D01*
X104214774Y-121216847D01*
X103595680Y-121265999D01*
X102850349Y-121291783D01*
X102709333Y-121294316D01*
X102189512Y-121300393D01*
X101708942Y-121301779D01*
X101301035Y-121298704D01*
X100999203Y-121291397D01*
X100846667Y-121281497D01*
X99748654Y-121103698D01*
X98625836Y-120854753D01*
X98163014Y-120731406D01*
X97722978Y-120601144D01*
X97410839Y-120490009D01*
X97189055Y-120381011D01*
X97020085Y-120257160D01*
X96935347Y-120175819D01*
X96655667Y-119887261D01*
X96655667Y-116089923D01*
X96932327Y-115813128D01*
X97069519Y-115683858D01*
X97082470Y-115675444D01*
X99304527Y-115675444D01*
X99474990Y-115859889D01*
X99595908Y-116046430D01*
X99718922Y-116322054D01*
X99779407Y-116500877D01*
X99991238Y-117071789D01*
X100255356Y-117498976D01*
X100586771Y-117803891D01*
X100763876Y-117907950D01*
X101331642Y-118120314D01*
X101962847Y-118230841D01*
X102601447Y-118236187D01*
X103191398Y-118133011D01*
X103391179Y-118064649D01*
X103680795Y-117872379D01*
X103847414Y-117596561D01*
X103869516Y-117275830D01*
X103858766Y-117225152D01*
X103799034Y-117098079D01*
X103675296Y-116980827D01*
X103469494Y-116865953D01*
X103163572Y-116746015D01*
X102739470Y-116613572D01*
X102179131Y-116461180D01*
X101725489Y-116345955D01*
X101221902Y-116218294D01*
X100730024Y-116089833D01*
X100293728Y-115972292D01*
X99956890Y-115877388D01*
X99842763Y-115843111D01*
X99304527Y-115675444D01*
X97082470Y-115675444D01*
X97196890Y-115601111D01*
X97357776Y-115552601D01*
X97595515Y-115526042D01*
X97953446Y-115509149D01*
X98012284Y-115506978D01*
X98815581Y-115477623D01*
X98328290Y-115160568D01*
X97679622Y-114660006D01*
X97174172Y-114090160D01*
X96805791Y-113438841D01*
X96568331Y-112693863D01*
X96455642Y-111843039D01*
X96444000Y-111425755D01*
X96446108Y-111387667D01*
X97587000Y-111387667D01*
X97589339Y-111848346D01*
X97600579Y-112181714D01*
X97627058Y-112429775D01*
X97675111Y-112634531D01*
X97751074Y-112837985D01*
X97833608Y-113022429D01*
X98034916Y-113394365D01*
X98281758Y-113718179D01*
X98591547Y-114003628D01*
X98981697Y-114260472D01*
X99469619Y-114498468D01*
X100072727Y-114727374D01*
X100808434Y-114956948D01*
X101694152Y-115196948D01*
X101730740Y-115206337D01*
X102560193Y-115426625D01*
X103237490Y-115627649D01*
X103777267Y-115819360D01*
X104194164Y-116011706D01*
X104502817Y-116214638D01*
X104717864Y-116438104D01*
X104853944Y-116692054D01*
X104925694Y-116986438D01*
X104947751Y-117331205D01*
X104947636Y-117392907D01*
X104911355Y-117876701D01*
X104798621Y-118249066D01*
X104588660Y-118558490D01*
X104353642Y-118779450D01*
X104018914Y-119007836D01*
X103640213Y-119164779D01*
X103186016Y-119257309D01*
X102624798Y-119292453D01*
X102088770Y-119284408D01*
X101428783Y-119240451D01*
X100899653Y-119156538D01*
X100465057Y-119019604D01*
X100088667Y-118816588D01*
X99734157Y-118534426D01*
X99573986Y-118380064D01*
X99267154Y-118015588D01*
X99008104Y-117603831D01*
X98821945Y-117193096D01*
X98733787Y-116831686D01*
X98730000Y-116756466D01*
X98709284Y-116665814D01*
X98621624Y-116616828D01*
X98428747Y-116597318D01*
X98222000Y-116594667D01*
X97714000Y-116594667D01*
X97714000Y-119448666D01*
X98327833Y-119626097D01*
X99093162Y-119837894D01*
X99751371Y-119994577D01*
X100353007Y-120102808D01*
X100948615Y-120169244D01*
X101588739Y-120200547D01*
X102323925Y-120203374D01*
X102667000Y-120197799D01*
X103354693Y-120177270D01*
X103895825Y-120145760D01*
X104312926Y-120101347D01*
X104628525Y-120042110D01*
X104693670Y-120024910D01*
X105484644Y-119736244D01*
X106151749Y-119354189D01*
X106685398Y-118885589D01*
X107076009Y-118337286D01*
X107087570Y-118315602D01*
X107380006Y-117584115D01*
X107389610Y-117531360D01*
X109313333Y-117531360D01*
X109351459Y-118162161D01*
X109475430Y-118679055D01*
X109699640Y-119121655D01*
X110038480Y-119529571D01*
X110039845Y-119530944D01*
X110354683Y-119813723D01*
X110669985Y-120011344D01*
X111024300Y-120135990D01*
X111456174Y-120199841D01*
X112004157Y-120215077D01*
X112195267Y-120212028D01*
X112615430Y-120197839D01*
X112919492Y-120170892D01*
X113160673Y-120120445D01*
X113392193Y-120035757D01*
X113636954Y-119921058D01*
X113976013Y-119727783D01*
X114306278Y-119496632D01*
X114522686Y-119309381D01*
X114716727Y-119122815D01*
X114865662Y-118998285D01*
X114922500Y-118966758D01*
X114954831Y-119043223D01*
X114977701Y-119244680D01*
X114986000Y-119515667D01*
X114986000Y-120066000D01*
X119134667Y-120066000D01*
X119134667Y-119134667D01*
X117864667Y-119134667D01*
X117864027Y-116785167D01*
X117860690Y-116138369D01*
X117851612Y-115518199D01*
X117837665Y-114953431D01*
X117819719Y-114472839D01*
X117798644Y-114105197D01*
X117776293Y-113885333D01*
X117593787Y-113172659D01*
X117287075Y-112569083D01*
X116852588Y-112071289D01*
X116286757Y-111675961D01*
X115586013Y-111379781D01*
X114892066Y-111205482D01*
X114204191Y-111119625D01*
X113411779Y-111094699D01*
X112566857Y-111127129D01*
X111721453Y-111213338D01*
X110927592Y-111349750D01*
X110265833Y-111523464D01*
X109990667Y-111612465D01*
X109990667Y-113462000D01*
X110402497Y-113462000D01*
X110650682Y-113454990D01*
X110790474Y-113406436D01*
X110881485Y-113275056D01*
X110962416Y-113074237D01*
X111205831Y-112613549D01*
X111542293Y-112277527D01*
X111982483Y-112060609D01*
X112537082Y-111957232D01*
X113111686Y-111954779D01*
X113715176Y-112040798D01*
X114189205Y-112227624D01*
X114543141Y-112525006D01*
X114786350Y-112942689D01*
X114928202Y-113490420D01*
X114968632Y-113886803D01*
X115006175Y-114535344D01*
X113662587Y-114588867D01*
X112821597Y-114634999D01*
X112125904Y-114704352D01*
X111552297Y-114803471D01*
X111077563Y-114938906D01*
X110678489Y-115117201D01*
X110331864Y-115344904D01*
X110029383Y-115613573D01*
X109691893Y-116012342D01*
X109470908Y-116435378D01*
X109350149Y-116926287D01*
X109313334Y-117528672D01*
X109313333Y-117531360D01*
X107389610Y-117531360D01*
X107522075Y-116803760D01*
X107513593Y-116003886D01*
X107354377Y-115213843D01*
X107110733Y-114592944D01*
X106903665Y-114226906D01*
X106655157Y-113908346D01*
X106347508Y-113627466D01*
X105963015Y-113374465D01*
X105483976Y-113139543D01*
X104892691Y-112912901D01*
X104171456Y-112684738D01*
X103302570Y-112445255D01*
X103168049Y-112410244D01*
X102405626Y-112208128D01*
X101790204Y-112032683D01*
X101302900Y-111876559D01*
X100924833Y-111732411D01*
X100637122Y-111592889D01*
X100420886Y-111450647D01*
X100257243Y-111298337D01*
X100229873Y-111266863D01*
X100055827Y-111026123D01*
X99956336Y-110781111D01*
X99918295Y-110478629D01*
X99927001Y-110129415D01*
X100988439Y-110129415D01*
X100994439Y-110367279D01*
X101047346Y-110482989D01*
X101170963Y-110595783D01*
X101381039Y-110711992D01*
X101693322Y-110837946D01*
X102123561Y-110979975D01*
X102687503Y-111144410D01*
X103400898Y-111337582D01*
X103422399Y-111343260D01*
X103996377Y-111494959D01*
X104424779Y-111607279D01*
X104726008Y-111683077D01*
X104918469Y-111725212D01*
X105020566Y-111736542D01*
X105050704Y-111719926D01*
X105027287Y-111678220D01*
X104968719Y-111614285D01*
X104935015Y-111578167D01*
X104816619Y-111392734D01*
X104693037Y-111112742D01*
X104617118Y-110885562D01*
X104413419Y-110403166D01*
X104105716Y-110035931D01*
X103684956Y-109778549D01*
X103142086Y-109625713D01*
X102468051Y-109572116D01*
X102376466Y-109572112D01*
X101801699Y-109609826D01*
X101380549Y-109714258D01*
X101110351Y-109886943D01*
X100988439Y-110129415D01*
X99927001Y-110129415D01*
X99928596Y-110065480D01*
X99929669Y-110048388D01*
X100007050Y-109573880D01*
X100186133Y-109211298D01*
X100490877Y-108925934D01*
X100839002Y-108730968D01*
X101054514Y-108636644D01*
X101251868Y-108573469D01*
X101473424Y-108535302D01*
X101761543Y-108516004D01*
X102158586Y-108509438D01*
X102370667Y-108509000D01*
X103023358Y-108526487D01*
X103549390Y-108585285D01*
X103988422Y-108694897D01*
X104380114Y-108864829D01*
X104716039Y-109071057D01*
X105046758Y-109375194D01*
X105348954Y-109792111D01*
X105586033Y-110265449D01*
X105684177Y-110562167D01*
X105777436Y-110922000D01*
X106773333Y-110922000D01*
X106773333Y-108241337D01*
X105778500Y-108016226D01*
X105126839Y-107871716D01*
X104596638Y-107763567D01*
X104145199Y-107686590D01*
X103729824Y-107635593D01*
X103307817Y-107605388D01*
X102836481Y-107590784D01*
X102273118Y-107586592D01*
X102243667Y-107586564D01*
X101706492Y-107587799D01*
X101302437Y-107595083D01*
X100995303Y-107612389D01*
X100748890Y-107643689D01*
X100526997Y-107692956D01*
X100293425Y-107764162D01*
X100136195Y-107817824D01*
X99411248Y-108121118D01*
X98825814Y-108486598D01*
X98355134Y-108935364D01*
X97974451Y-109488512D01*
X97818478Y-109792894D01*
X97722317Y-110010200D01*
X97657165Y-110204346D01*
X97617047Y-110416504D01*
X97595985Y-110687849D01*
X97588005Y-111059555D01*
X97587000Y-111387667D01*
X96446108Y-111387667D01*
X96482525Y-110729808D01*
X96591186Y-110054234D01*
X96759616Y-109446429D01*
X96977446Y-108953790D01*
X96989255Y-108933361D01*
X97501919Y-108220087D01*
X98132575Y-107627430D01*
X98880137Y-107155617D01*
X99743515Y-106804875D01*
X100721621Y-106575432D01*
X101813368Y-106467515D01*
X103017666Y-106481352D01*
X104333428Y-106617171D01*
X105759566Y-106875198D01*
X106274199Y-106991948D01*
X106691522Y-107096627D01*
X106982807Y-107187294D01*
X107188412Y-107281319D01*
X107348698Y-107396076D01*
X107459532Y-107502147D01*
X107747000Y-107798738D01*
X107747000Y-111426743D01*
X107471851Y-111701892D01*
X107314683Y-111845168D01*
X107163278Y-111931208D01*
X106964081Y-111978034D01*
X106663534Y-112003666D01*
X106558370Y-112009275D01*
X105920038Y-112041509D01*
X106441239Y-112349588D01*
X106851298Y-112636727D01*
X107270996Y-113006562D01*
X107657380Y-113414934D01*
X107967495Y-113817684D01*
X108115164Y-114070485D01*
X108229470Y-114348026D01*
X108352747Y-114711111D01*
X108455508Y-115070732D01*
X108544262Y-115388071D01*
X108610094Y-115546353D01*
X108656782Y-115553739D01*
X108667461Y-115528255D01*
X108752815Y-115385932D01*
X108925095Y-115174814D01*
X109143804Y-114943860D01*
X109566948Y-114527078D01*
X109249641Y-114202126D01*
X108932333Y-113877174D01*
X108932333Y-113521651D01*
X111937827Y-113521651D01*
X112016651Y-113546461D01*
X112230526Y-113562251D01*
X112545337Y-113567524D01*
X112869161Y-113562551D01*
X113243453Y-113545194D01*
X113545945Y-113518358D01*
X113742466Y-113485924D01*
X113800667Y-113456718D01*
X113746191Y-113344041D01*
X113631333Y-113208000D01*
X113494535Y-113109847D01*
X113300839Y-113057477D01*
X113000526Y-113039252D01*
X112907818Y-113038667D01*
X112588166Y-113047974D01*
X112381673Y-113086012D01*
X112232712Y-113167951D01*
X112145818Y-113246485D01*
X112005850Y-113404069D01*
X111938815Y-113514167D01*
X111937827Y-113521651D01*
X108932333Y-113521651D01*
X108932333Y-111185405D01*
X109213012Y-110895818D01*
X109455958Y-110705740D01*
X109805646Y-110534640D01*
X110279972Y-110375979D01*
X110896829Y-110223220D01*
X111260667Y-110147727D01*
X111630375Y-110097047D01*
X112118972Y-110062065D01*
X112686955Y-110042462D01*
X113294823Y-110037919D01*
X113903073Y-110048118D01*
X114472204Y-110072738D01*
X114962713Y-110111460D01*
X115335098Y-110163966D01*
X115413579Y-110181283D01*
X115991597Y-110338031D01*
X116446630Y-110498428D01*
X116823909Y-110685529D01*
X117168665Y-110922389D01*
X117526132Y-111232062D01*
X117586244Y-111288686D01*
X117922165Y-111622426D01*
X118195130Y-111936585D01*
X118411527Y-112253628D01*
X118577748Y-112596017D01*
X118700182Y-112986217D01*
X118785221Y-113446690D01*
X118839253Y-113999901D01*
X118868670Y-114668312D01*
X118879862Y-115474387D01*
X118880667Y-115838947D01*
X118880667Y-118010983D01*
X119270490Y-118064415D01*
X119596032Y-118086303D01*
X119919809Y-118074208D01*
X119990156Y-118065102D01*
X120320000Y-118012358D01*
X120320000Y-113314962D01*
X119968073Y-113267759D01*
X119585124Y-113139204D01*
X119354239Y-112958650D01*
X119239676Y-112838831D01*
X119164605Y-112728276D01*
X119120679Y-112589061D01*
X119099551Y-112383264D01*
X119092876Y-112072961D01*
X119092333Y-111768667D01*
X119093816Y-111361224D01*
X119094392Y-111345333D01*
X120150667Y-111345333D01*
X120150667Y-112276667D01*
X121420667Y-112276667D01*
X121420667Y-119134667D01*
X120150667Y-119134667D01*
X120150667Y-120066000D01*
X125992667Y-120066000D01*
X125992667Y-119134667D01*
X124299333Y-119134667D01*
X124299333Y-112276667D01*
X126500667Y-112276667D01*
X126500667Y-111345333D01*
X124299333Y-111345333D01*
X124299805Y-110350500D01*
X124301826Y-110244667D01*
X125307660Y-110244667D01*
X126278347Y-110244667D01*
X126052344Y-110008770D01*
X125884102Y-109775404D01*
X125776854Y-109522722D01*
X125771921Y-109500770D01*
X125703651Y-109314987D01*
X125610815Y-109229323D01*
X125602696Y-109228667D01*
X125534187Y-109249194D01*
X125481238Y-109332213D01*
X125432618Y-109509875D01*
X125377098Y-109814334D01*
X125358708Y-109927167D01*
X125307660Y-110244667D01*
X124301826Y-110244667D01*
X124311015Y-109763632D01*
X124348959Y-109314005D01*
X124421059Y-108970634D01*
X124534738Y-108702531D01*
X124697415Y-108478711D01*
X124765260Y-108407139D01*
X124948789Y-108243256D01*
X125121191Y-108159821D01*
X125353805Y-108130546D01*
X125522738Y-108128000D01*
X125853589Y-108152894D01*
X126148049Y-108217094D01*
X126257524Y-108260615D01*
X126460175Y-108433835D01*
X126650849Y-108706156D01*
X126789722Y-109009652D01*
X126837474Y-109249833D01*
X126869352Y-109340102D01*
X126988062Y-109384932D01*
X127232641Y-109397927D01*
X127262667Y-109398000D01*
X127686000Y-109398000D01*
X127686000Y-107547339D01*
X127199167Y-107435503D01*
X126879925Y-107387069D01*
X126411600Y-107351883D01*
X125814003Y-107331030D01*
X125188333Y-107325405D01*
X124631449Y-107327756D01*
X124212433Y-107335396D01*
X123899837Y-107351383D01*
X123662212Y-107378772D01*
X123468108Y-107420621D01*
X123286074Y-107479987D01*
X123181595Y-107520456D01*
X122660650Y-107798293D01*
X122196199Y-108177116D01*
X121831141Y-108617486D01*
X121671540Y-108908675D01*
X121578032Y-109157473D01*
X121513735Y-109428407D01*
X121471301Y-109766824D01*
X121443384Y-110218073D01*
X121437940Y-110350500D01*
X121399796Y-111345333D01*
X120150667Y-111345333D01*
X119094392Y-111345333D01*
X119103830Y-111085191D01*
X119130721Y-110902646D01*
X119182835Y-110775666D01*
X119268520Y-110666328D01*
X119354239Y-110578683D01*
X119698953Y-110341219D01*
X119958249Y-110270892D01*
X120300352Y-110225006D01*
X120356028Y-109705670D01*
X120464309Y-109042581D01*
X120646296Y-108490518D01*
X120924214Y-107999187D01*
X121320286Y-107518294D01*
X121324682Y-107513619D01*
X121774393Y-107086705D01*
X122243868Y-106752766D01*
X122757570Y-106504252D01*
X123339966Y-106333614D01*
X124015518Y-106233305D01*
X124808692Y-106195774D01*
X125560935Y-106206443D01*
G37*
X125560935Y-106206443D02*
X126337626Y-106243036D01*
X126965505Y-106296492D01*
X127464625Y-106371053D01*
X127855036Y-106470959D01*
X128156789Y-106600452D01*
X128389935Y-106763772D01*
X128446224Y-106816713D01*
X128744333Y-107114822D01*
X128744333Y-109818077D01*
X128471713Y-110090697D01*
X128299039Y-110243677D01*
X128125896Y-110331876D01*
X127890616Y-110378170D01*
X127641031Y-110398852D01*
X127082968Y-110434386D01*
X127276116Y-110639983D01*
X127387891Y-110795577D01*
X127455803Y-111001417D01*
X127494223Y-111308357D01*
X127503015Y-111442884D01*
X127536765Y-112040188D01*
X128055883Y-111531573D01*
X128567800Y-111077264D01*
X129082469Y-110730365D01*
X129661414Y-110454000D01*
X130141333Y-110281639D01*
X130437655Y-110190120D01*
X130697036Y-110125701D01*
X130961049Y-110083448D01*
X131271266Y-110058428D01*
X131669256Y-110045707D01*
X132173333Y-110040480D01*
X132701880Y-110040413D01*
X133101210Y-110049750D01*
X133411353Y-110072426D01*
X133672337Y-110112377D01*
X133924190Y-110173537D01*
X134118531Y-110231717D01*
X134712500Y-110439597D01*
X135192199Y-110664795D01*
X135611985Y-110940055D01*
X136026217Y-111298118D01*
X136238993Y-111508970D01*
X136835987Y-112223373D01*
X137285373Y-112999852D01*
X137592024Y-113851017D01*
X137760814Y-114789479D01*
X137799831Y-115548204D01*
X137796907Y-115984474D01*
X137781207Y-116284319D01*
X137748625Y-116480425D01*
X137695055Y-116605480D01*
X137661583Y-116648870D01*
X137576645Y-116777073D01*
X137564887Y-116932703D01*
X137614644Y-117162680D01*
X137646336Y-117573440D01*
X137555235Y-118055329D01*
X137354721Y-118578828D01*
X137058176Y-119114417D01*
X136678978Y-119632577D01*
X136319380Y-120020253D01*
X135859298Y-120422153D01*
X135390594Y-120735844D01*
X134885579Y-120970079D01*
X134316561Y-121133612D01*
X133655849Y-121235195D01*
X132875751Y-121283582D01*
X132300333Y-121290674D01*
X131409842Y-121266399D01*
X130654972Y-121191050D01*
X130007110Y-121054807D01*
X129437645Y-120847845D01*
X128917966Y-120560343D01*
X128419460Y-120182478D01*
X128034521Y-119826222D01*
X127512434Y-119244320D01*
X127121899Y-118645379D01*
X126829969Y-117972920D01*
X126692587Y-117526000D01*
X126612794Y-117110369D01*
X126560820Y-116583541D01*
X126536212Y-115989737D01*
X126536224Y-115986511D01*
X127612410Y-115986511D01*
X127648292Y-116566726D01*
X127721776Y-117051649D01*
X127728805Y-117082369D01*
X127997016Y-117886797D01*
X128394554Y-118582823D01*
X128917041Y-119165955D01*
X129560099Y-119631700D01*
X130319351Y-119975566D01*
X130645162Y-120075440D01*
X131078277Y-120157252D01*
X131624418Y-120208592D01*
X132229933Y-120228859D01*
X132841168Y-120217448D01*
X133404471Y-120173758D01*
X133804843Y-120110934D01*
X134532416Y-119883961D01*
X135176837Y-119536501D01*
X135717152Y-119084224D01*
X136132408Y-118542801D01*
X136279088Y-118260496D01*
X136441411Y-117894999D01*
X136528037Y-117658269D01*
X136527560Y-117522417D01*
X136428573Y-117459555D01*
X136219671Y-117441796D01*
X135944048Y-117441333D01*
X135565190Y-117453606D01*
X135343545Y-117491516D01*
X135270341Y-117547167D01*
X135027686Y-118194255D01*
X134708212Y-118693521D01*
X134302291Y-119052572D01*
X133800299Y-119279015D01*
X133192610Y-119380459D01*
X132941417Y-119387839D01*
X132364990Y-119325402D01*
X131865390Y-119147913D01*
X131469665Y-118867411D01*
X131293065Y-118654253D01*
X131092926Y-118247578D01*
X130930105Y-117701102D01*
X130849072Y-117249658D01*
X131931762Y-117249658D01*
X131982409Y-117457915D01*
X132075896Y-117704226D01*
X132191723Y-117934059D01*
X132302369Y-118086066D01*
X132476759Y-118217249D01*
X132697167Y-118276977D01*
X132935689Y-118288000D01*
X133246276Y-118261295D01*
X133530640Y-118193836D01*
X133623318Y-118155492D01*
X133866760Y-117943939D01*
X134083076Y-117583992D01*
X134286591Y-117145000D01*
X133133650Y-117121368D01*
X132710083Y-117115255D01*
X132351036Y-117114939D01*
X132088508Y-117120080D01*
X131954501Y-117130338D01*
X131944456Y-117133988D01*
X131931762Y-117249658D01*
X130849072Y-117249658D01*
X130811733Y-117041645D01*
X130773500Y-116700500D01*
X130716814Y-116086667D01*
X136844884Y-116086667D01*
X136798638Y-115769167D01*
X136760797Y-115494212D01*
X136716856Y-115154023D01*
X136696128Y-114986000D01*
X136528609Y-114173281D01*
X136236942Y-113412240D01*
X135836629Y-112728740D01*
X135343169Y-112148643D01*
X134772063Y-111697813D01*
X134698875Y-111653526D01*
X134212193Y-111430642D01*
X133614752Y-111254442D01*
X132961683Y-111137630D01*
X132308117Y-111092910D01*
X132265623Y-111092803D01*
X131301588Y-111161206D01*
X130435584Y-111359694D01*
X129673157Y-111684317D01*
X129019851Y-112131125D01*
X128481211Y-112696170D01*
X128062781Y-113375502D01*
X127770106Y-114165172D01*
X127730082Y-114323487D01*
X127653336Y-114799955D01*
X127614101Y-115375942D01*
X127612410Y-115986511D01*
X126536224Y-115986511D01*
X126538515Y-115373177D01*
X126567276Y-114778082D01*
X126622039Y-114248673D01*
X126702352Y-113829171D01*
X126731565Y-113730748D01*
X126821481Y-113444797D01*
X126852818Y-113289066D01*
X126828499Y-113236004D01*
X126783194Y-113243915D01*
X126641552Y-113267103D01*
X126381700Y-113284310D01*
X126054739Y-113292413D01*
X125985742Y-113292667D01*
X125315333Y-113292667D01*
X125315333Y-118014273D01*
X125868213Y-118049478D01*
X126187822Y-118079727D01*
X126400416Y-118135802D01*
X126568293Y-118240933D01*
X126693713Y-118357303D01*
X126966333Y-118629923D01*
X126966333Y-120486077D01*
X126412779Y-121039667D01*
X120593556Y-121059876D01*
X119273149Y-121063122D01*
X118109924Y-121063162D01*
X117105561Y-121060013D01*
X116261741Y-121053694D01*
X115580142Y-121044223D01*
X115062446Y-121031620D01*
X114710332Y-121015902D01*
X114525479Y-120997088D01*
X114507663Y-120992614D01*
X114321392Y-120954497D01*
X114113640Y-120972419D01*
X113828336Y-121053668D01*
X113703330Y-121097146D01*
X113449715Y-121178944D01*
X113202085Y-121234095D01*
X112917443Y-121267498D01*
X112552796Y-121284055D01*
X112065148Y-121288663D01*
X112022667Y-121288663D01*
X111536039Y-121285046D01*
X111177263Y-121271296D01*
X110904934Y-121242349D01*
X110677644Y-121193138D01*
X110453988Y-121118599D01*
X110371667Y-121086685D01*
X109851679Y-120808280D01*
X109359616Y-120412647D01*
X108927182Y-119936381D01*
X108586077Y-119416078D01*
X108368005Y-118888332D01*
X108330684Y-118730742D01*
X108277828Y-118453817D01*
X108102680Y-118815408D01*
X107886622Y-119155001D01*
X107561770Y-119536535D01*
X107168558Y-119921917D01*
X106747422Y-120273057D01*
X106338793Y-120551862D01*
X106154042Y-120651169D01*
X105677267Y-120861491D01*
X105219305Y-121021364D01*
X104743895Y-121137559D01*
X104214774Y-121216847D01*
X103595680Y-121265999D01*
X102850349Y-121291783D01*
X102709333Y-121294316D01*
X102189512Y-121300393D01*
X101708942Y-121301779D01*
X101301035Y-121298704D01*
X100999203Y-121291397D01*
X100846667Y-121281497D01*
X99748654Y-121103698D01*
X98625836Y-120854753D01*
X98163014Y-120731406D01*
X97722978Y-120601144D01*
X97410839Y-120490009D01*
X97189055Y-120381011D01*
X97020085Y-120257160D01*
X96935347Y-120175819D01*
X96655667Y-119887261D01*
X96655667Y-116089923D01*
X96932327Y-115813128D01*
X97069519Y-115683858D01*
X97082470Y-115675444D01*
X99304527Y-115675444D01*
X99474990Y-115859889D01*
X99595908Y-116046430D01*
X99718922Y-116322054D01*
X99779407Y-116500877D01*
X99991238Y-117071789D01*
X100255356Y-117498976D01*
X100586771Y-117803891D01*
X100763876Y-117907950D01*
X101331642Y-118120314D01*
X101962847Y-118230841D01*
X102601447Y-118236187D01*
X103191398Y-118133011D01*
X103391179Y-118064649D01*
X103680795Y-117872379D01*
X103847414Y-117596561D01*
X103869516Y-117275830D01*
X103858766Y-117225152D01*
X103799034Y-117098079D01*
X103675296Y-116980827D01*
X103469494Y-116865953D01*
X103163572Y-116746015D01*
X102739470Y-116613572D01*
X102179131Y-116461180D01*
X101725489Y-116345955D01*
X101221902Y-116218294D01*
X100730024Y-116089833D01*
X100293728Y-115972292D01*
X99956890Y-115877388D01*
X99842763Y-115843111D01*
X99304527Y-115675444D01*
X97082470Y-115675444D01*
X97196890Y-115601111D01*
X97357776Y-115552601D01*
X97595515Y-115526042D01*
X97953446Y-115509149D01*
X98012284Y-115506978D01*
X98815581Y-115477623D01*
X98328290Y-115160568D01*
X97679622Y-114660006D01*
X97174172Y-114090160D01*
X96805791Y-113438841D01*
X96568331Y-112693863D01*
X96455642Y-111843039D01*
X96444000Y-111425755D01*
X96446108Y-111387667D01*
X97587000Y-111387667D01*
X97589339Y-111848346D01*
X97600579Y-112181714D01*
X97627058Y-112429775D01*
X97675111Y-112634531D01*
X97751074Y-112837985D01*
X97833608Y-113022429D01*
X98034916Y-113394365D01*
X98281758Y-113718179D01*
X98591547Y-114003628D01*
X98981697Y-114260472D01*
X99469619Y-114498468D01*
X100072727Y-114727374D01*
X100808434Y-114956948D01*
X101694152Y-115196948D01*
X101730740Y-115206337D01*
X102560193Y-115426625D01*
X103237490Y-115627649D01*
X103777267Y-115819360D01*
X104194164Y-116011706D01*
X104502817Y-116214638D01*
X104717864Y-116438104D01*
X104853944Y-116692054D01*
X104925694Y-116986438D01*
X104947751Y-117331205D01*
X104947636Y-117392907D01*
X104911355Y-117876701D01*
X104798621Y-118249066D01*
X104588660Y-118558490D01*
X104353642Y-118779450D01*
X104018914Y-119007836D01*
X103640213Y-119164779D01*
X103186016Y-119257309D01*
X102624798Y-119292453D01*
X102088770Y-119284408D01*
X101428783Y-119240451D01*
X100899653Y-119156538D01*
X100465057Y-119019604D01*
X100088667Y-118816588D01*
X99734157Y-118534426D01*
X99573986Y-118380064D01*
X99267154Y-118015588D01*
X99008104Y-117603831D01*
X98821945Y-117193096D01*
X98733787Y-116831686D01*
X98730000Y-116756466D01*
X98709284Y-116665814D01*
X98621624Y-116616828D01*
X98428747Y-116597318D01*
X98222000Y-116594667D01*
X97714000Y-116594667D01*
X97714000Y-119448666D01*
X98327833Y-119626097D01*
X99093162Y-119837894D01*
X99751371Y-119994577D01*
X100353007Y-120102808D01*
X100948615Y-120169244D01*
X101588739Y-120200547D01*
X102323925Y-120203374D01*
X102667000Y-120197799D01*
X103354693Y-120177270D01*
X103895825Y-120145760D01*
X104312926Y-120101347D01*
X104628525Y-120042110D01*
X104693670Y-120024910D01*
X105484644Y-119736244D01*
X106151749Y-119354189D01*
X106685398Y-118885589D01*
X107076009Y-118337286D01*
X107087570Y-118315602D01*
X107380006Y-117584115D01*
X107389610Y-117531360D01*
X109313333Y-117531360D01*
X109351459Y-118162161D01*
X109475430Y-118679055D01*
X109699640Y-119121655D01*
X110038480Y-119529571D01*
X110039845Y-119530944D01*
X110354683Y-119813723D01*
X110669985Y-120011344D01*
X111024300Y-120135990D01*
X111456174Y-120199841D01*
X112004157Y-120215077D01*
X112195267Y-120212028D01*
X112615430Y-120197839D01*
X112919492Y-120170892D01*
X113160673Y-120120445D01*
X113392193Y-120035757D01*
X113636954Y-119921058D01*
X113976013Y-119727783D01*
X114306278Y-119496632D01*
X114522686Y-119309381D01*
X114716727Y-119122815D01*
X114865662Y-118998285D01*
X114922500Y-118966758D01*
X114954831Y-119043223D01*
X114977701Y-119244680D01*
X114986000Y-119515667D01*
X114986000Y-120066000D01*
X119134667Y-120066000D01*
X119134667Y-119134667D01*
X117864667Y-119134667D01*
X117864027Y-116785167D01*
X117860690Y-116138369D01*
X117851612Y-115518199D01*
X117837665Y-114953431D01*
X117819719Y-114472839D01*
X117798644Y-114105197D01*
X117776293Y-113885333D01*
X117593787Y-113172659D01*
X117287075Y-112569083D01*
X116852588Y-112071289D01*
X116286757Y-111675961D01*
X115586013Y-111379781D01*
X114892066Y-111205482D01*
X114204191Y-111119625D01*
X113411779Y-111094699D01*
X112566857Y-111127129D01*
X111721453Y-111213338D01*
X110927592Y-111349750D01*
X110265833Y-111523464D01*
X109990667Y-111612465D01*
X109990667Y-113462000D01*
X110402497Y-113462000D01*
X110650682Y-113454990D01*
X110790474Y-113406436D01*
X110881485Y-113275056D01*
X110962416Y-113074237D01*
X111205831Y-112613549D01*
X111542293Y-112277527D01*
X111982483Y-112060609D01*
X112537082Y-111957232D01*
X113111686Y-111954779D01*
X113715176Y-112040798D01*
X114189205Y-112227624D01*
X114543141Y-112525006D01*
X114786350Y-112942689D01*
X114928202Y-113490420D01*
X114968632Y-113886803D01*
X115006175Y-114535344D01*
X113662587Y-114588867D01*
X112821597Y-114634999D01*
X112125904Y-114704352D01*
X111552297Y-114803471D01*
X111077563Y-114938906D01*
X110678489Y-115117201D01*
X110331864Y-115344904D01*
X110029383Y-115613573D01*
X109691893Y-116012342D01*
X109470908Y-116435378D01*
X109350149Y-116926287D01*
X109313334Y-117528672D01*
X109313333Y-117531360D01*
X107389610Y-117531360D01*
X107522075Y-116803760D01*
X107513593Y-116003886D01*
X107354377Y-115213843D01*
X107110733Y-114592944D01*
X106903665Y-114226906D01*
X106655157Y-113908346D01*
X106347508Y-113627466D01*
X105963015Y-113374465D01*
X105483976Y-113139543D01*
X104892691Y-112912901D01*
X104171456Y-112684738D01*
X103302570Y-112445255D01*
X103168049Y-112410244D01*
X102405626Y-112208128D01*
X101790204Y-112032683D01*
X101302900Y-111876559D01*
X100924833Y-111732411D01*
X100637122Y-111592889D01*
X100420886Y-111450647D01*
X100257243Y-111298337D01*
X100229873Y-111266863D01*
X100055827Y-111026123D01*
X99956336Y-110781111D01*
X99918295Y-110478629D01*
X99927001Y-110129415D01*
X100988439Y-110129415D01*
X100994439Y-110367279D01*
X101047346Y-110482989D01*
X101170963Y-110595783D01*
X101381039Y-110711992D01*
X101693322Y-110837946D01*
X102123561Y-110979975D01*
X102687503Y-111144410D01*
X103400898Y-111337582D01*
X103422399Y-111343260D01*
X103996377Y-111494959D01*
X104424779Y-111607279D01*
X104726008Y-111683077D01*
X104918469Y-111725212D01*
X105020566Y-111736542D01*
X105050704Y-111719926D01*
X105027287Y-111678220D01*
X104968719Y-111614285D01*
X104935015Y-111578167D01*
X104816619Y-111392734D01*
X104693037Y-111112742D01*
X104617118Y-110885562D01*
X104413419Y-110403166D01*
X104105716Y-110035931D01*
X103684956Y-109778549D01*
X103142086Y-109625713D01*
X102468051Y-109572116D01*
X102376466Y-109572112D01*
X101801699Y-109609826D01*
X101380549Y-109714258D01*
X101110351Y-109886943D01*
X100988439Y-110129415D01*
X99927001Y-110129415D01*
X99928596Y-110065480D01*
X99929669Y-110048388D01*
X100007050Y-109573880D01*
X100186133Y-109211298D01*
X100490877Y-108925934D01*
X100839002Y-108730968D01*
X101054514Y-108636644D01*
X101251868Y-108573469D01*
X101473424Y-108535302D01*
X101761543Y-108516004D01*
X102158586Y-108509438D01*
X102370667Y-108509000D01*
X103023358Y-108526487D01*
X103549390Y-108585285D01*
X103988422Y-108694897D01*
X104380114Y-108864829D01*
X104716039Y-109071057D01*
X105046758Y-109375194D01*
X105348954Y-109792111D01*
X105586033Y-110265449D01*
X105684177Y-110562167D01*
X105777436Y-110922000D01*
X106773333Y-110922000D01*
X106773333Y-108241337D01*
X105778500Y-108016226D01*
X105126839Y-107871716D01*
X104596638Y-107763567D01*
X104145199Y-107686590D01*
X103729824Y-107635593D01*
X103307817Y-107605388D01*
X102836481Y-107590784D01*
X102273118Y-107586592D01*
X102243667Y-107586564D01*
X101706492Y-107587799D01*
X101302437Y-107595083D01*
X100995303Y-107612389D01*
X100748890Y-107643689D01*
X100526997Y-107692956D01*
X100293425Y-107764162D01*
X100136195Y-107817824D01*
X99411248Y-108121118D01*
X98825814Y-108486598D01*
X98355134Y-108935364D01*
X97974451Y-109488512D01*
X97818478Y-109792894D01*
X97722317Y-110010200D01*
X97657165Y-110204346D01*
X97617047Y-110416504D01*
X97595985Y-110687849D01*
X97588005Y-111059555D01*
X97587000Y-111387667D01*
X96446108Y-111387667D01*
X96482525Y-110729808D01*
X96591186Y-110054234D01*
X96759616Y-109446429D01*
X96977446Y-108953790D01*
X96989255Y-108933361D01*
X97501919Y-108220087D01*
X98132575Y-107627430D01*
X98880137Y-107155617D01*
X99743515Y-106804875D01*
X100721621Y-106575432D01*
X101813368Y-106467515D01*
X103017666Y-106481352D01*
X104333428Y-106617171D01*
X105759566Y-106875198D01*
X106274199Y-106991948D01*
X106691522Y-107096627D01*
X106982807Y-107187294D01*
X107188412Y-107281319D01*
X107348698Y-107396076D01*
X107459532Y-107502147D01*
X107747000Y-107798738D01*
X107747000Y-111426743D01*
X107471851Y-111701892D01*
X107314683Y-111845168D01*
X107163278Y-111931208D01*
X106964081Y-111978034D01*
X106663534Y-112003666D01*
X106558370Y-112009275D01*
X105920038Y-112041509D01*
X106441239Y-112349588D01*
X106851298Y-112636727D01*
X107270996Y-113006562D01*
X107657380Y-113414934D01*
X107967495Y-113817684D01*
X108115164Y-114070485D01*
X108229470Y-114348026D01*
X108352747Y-114711111D01*
X108455508Y-115070732D01*
X108544262Y-115388071D01*
X108610094Y-115546353D01*
X108656782Y-115553739D01*
X108667461Y-115528255D01*
X108752815Y-115385932D01*
X108925095Y-115174814D01*
X109143804Y-114943860D01*
X109566948Y-114527078D01*
X109249641Y-114202126D01*
X108932333Y-113877174D01*
X108932333Y-113521651D01*
X111937827Y-113521651D01*
X112016651Y-113546461D01*
X112230526Y-113562251D01*
X112545337Y-113567524D01*
X112869161Y-113562551D01*
X113243453Y-113545194D01*
X113545945Y-113518358D01*
X113742466Y-113485924D01*
X113800667Y-113456718D01*
X113746191Y-113344041D01*
X113631333Y-113208000D01*
X113494535Y-113109847D01*
X113300839Y-113057477D01*
X113000526Y-113039252D01*
X112907818Y-113038667D01*
X112588166Y-113047974D01*
X112381673Y-113086012D01*
X112232712Y-113167951D01*
X112145818Y-113246485D01*
X112005850Y-113404069D01*
X111938815Y-113514167D01*
X111937827Y-113521651D01*
X108932333Y-113521651D01*
X108932333Y-111185405D01*
X109213012Y-110895818D01*
X109455958Y-110705740D01*
X109805646Y-110534640D01*
X110279972Y-110375979D01*
X110896829Y-110223220D01*
X111260667Y-110147727D01*
X111630375Y-110097047D01*
X112118972Y-110062065D01*
X112686955Y-110042462D01*
X113294823Y-110037919D01*
X113903073Y-110048118D01*
X114472204Y-110072738D01*
X114962713Y-110111460D01*
X115335098Y-110163966D01*
X115413579Y-110181283D01*
X115991597Y-110338031D01*
X116446630Y-110498428D01*
X116823909Y-110685529D01*
X117168665Y-110922389D01*
X117526132Y-111232062D01*
X117586244Y-111288686D01*
X117922165Y-111622426D01*
X118195130Y-111936585D01*
X118411527Y-112253628D01*
X118577748Y-112596017D01*
X118700182Y-112986217D01*
X118785221Y-113446690D01*
X118839253Y-113999901D01*
X118868670Y-114668312D01*
X118879862Y-115474387D01*
X118880667Y-115838947D01*
X118880667Y-118010983D01*
X119270490Y-118064415D01*
X119596032Y-118086303D01*
X119919809Y-118074208D01*
X119990156Y-118065102D01*
X120320000Y-118012358D01*
X120320000Y-113314962D01*
X119968073Y-113267759D01*
X119585124Y-113139204D01*
X119354239Y-112958650D01*
X119239676Y-112838831D01*
X119164605Y-112728276D01*
X119120679Y-112589061D01*
X119099551Y-112383264D01*
X119092876Y-112072961D01*
X119092333Y-111768667D01*
X119093816Y-111361224D01*
X119094392Y-111345333D01*
X120150667Y-111345333D01*
X120150667Y-112276667D01*
X121420667Y-112276667D01*
X121420667Y-119134667D01*
X120150667Y-119134667D01*
X120150667Y-120066000D01*
X125992667Y-120066000D01*
X125992667Y-119134667D01*
X124299333Y-119134667D01*
X124299333Y-112276667D01*
X126500667Y-112276667D01*
X126500667Y-111345333D01*
X124299333Y-111345333D01*
X124299805Y-110350500D01*
X124301826Y-110244667D01*
X125307660Y-110244667D01*
X126278347Y-110244667D01*
X126052344Y-110008770D01*
X125884102Y-109775404D01*
X125776854Y-109522722D01*
X125771921Y-109500770D01*
X125703651Y-109314987D01*
X125610815Y-109229323D01*
X125602696Y-109228667D01*
X125534187Y-109249194D01*
X125481238Y-109332213D01*
X125432618Y-109509875D01*
X125377098Y-109814334D01*
X125358708Y-109927167D01*
X125307660Y-110244667D01*
X124301826Y-110244667D01*
X124311015Y-109763632D01*
X124348959Y-109314005D01*
X124421059Y-108970634D01*
X124534738Y-108702531D01*
X124697415Y-108478711D01*
X124765260Y-108407139D01*
X124948789Y-108243256D01*
X125121191Y-108159821D01*
X125353805Y-108130546D01*
X125522738Y-108128000D01*
X125853589Y-108152894D01*
X126148049Y-108217094D01*
X126257524Y-108260615D01*
X126460175Y-108433835D01*
X126650849Y-108706156D01*
X126789722Y-109009652D01*
X126837474Y-109249833D01*
X126869352Y-109340102D01*
X126988062Y-109384932D01*
X127232641Y-109397927D01*
X127262667Y-109398000D01*
X127686000Y-109398000D01*
X127686000Y-107547339D01*
X127199167Y-107435503D01*
X126879925Y-107387069D01*
X126411600Y-107351883D01*
X125814003Y-107331030D01*
X125188333Y-107325405D01*
X124631449Y-107327756D01*
X124212433Y-107335396D01*
X123899837Y-107351383D01*
X123662212Y-107378772D01*
X123468108Y-107420621D01*
X123286074Y-107479987D01*
X123181595Y-107520456D01*
X122660650Y-107798293D01*
X122196199Y-108177116D01*
X121831141Y-108617486D01*
X121671540Y-108908675D01*
X121578032Y-109157473D01*
X121513735Y-109428407D01*
X121471301Y-109766824D01*
X121443384Y-110218073D01*
X121437940Y-110350500D01*
X121399796Y-111345333D01*
X120150667Y-111345333D01*
X119094392Y-111345333D01*
X119103830Y-111085191D01*
X119130721Y-110902646D01*
X119182835Y-110775666D01*
X119268520Y-110666328D01*
X119354239Y-110578683D01*
X119698953Y-110341219D01*
X119958249Y-110270892D01*
X120300352Y-110225006D01*
X120356028Y-109705670D01*
X120464309Y-109042581D01*
X120646296Y-108490518D01*
X120924214Y-107999187D01*
X121320286Y-107518294D01*
X121324682Y-107513619D01*
X121774393Y-107086705D01*
X122243868Y-106752766D01*
X122757570Y-106504252D01*
X123339966Y-106333614D01*
X124015518Y-106233305D01*
X124808692Y-106195774D01*
X125560935Y-106206443D01*
G36*
X67604528Y-86750102D02*
G01*
X68475226Y-86751692D01*
X69206621Y-86754863D01*
X69813728Y-86760042D01*
X70311563Y-86767655D01*
X70715139Y-86778130D01*
X71039472Y-86791893D01*
X71299576Y-86809369D01*
X71510466Y-86830987D01*
X71687157Y-86857173D01*
X71844663Y-86888352D01*
X71899277Y-86900815D01*
X72679639Y-87134824D01*
X73339715Y-87450078D01*
X73917440Y-87867483D01*
X74271228Y-88208212D01*
X74639515Y-88639413D01*
X74899936Y-89053862D01*
X75068304Y-89495051D01*
X75160435Y-90006473D01*
X75192143Y-90631620D01*
X75192667Y-90742264D01*
X75161831Y-91402433D01*
X75061833Y-91940951D01*
X74881432Y-92395285D01*
X74609390Y-92802901D01*
X74554938Y-92868240D01*
X74257231Y-93216044D01*
X74695522Y-93623522D01*
X74962847Y-93888073D01*
X75216318Y-94165374D01*
X75374906Y-94361203D01*
X75518356Y-94551332D01*
X75589572Y-94614877D01*
X75613683Y-94563800D01*
X75616000Y-94475955D01*
X75647969Y-94237597D01*
X75733133Y-93895785D01*
X75855382Y-93501563D01*
X75998601Y-93105977D01*
X76146680Y-92760070D01*
X76177319Y-92697662D01*
X76396466Y-92351488D01*
X76716224Y-91954999D01*
X77095680Y-91550854D01*
X77493921Y-91181714D01*
X77870033Y-90890241D01*
X77975976Y-90822181D01*
X78291258Y-90656417D01*
X78692118Y-90479227D01*
X79100961Y-90324442D01*
X79172000Y-90300728D01*
X79468116Y-90209077D01*
X79727125Y-90144560D01*
X79990574Y-90102237D01*
X80300010Y-90077169D01*
X80696979Y-90064417D01*
X81204000Y-90059147D01*
X81732546Y-90059080D01*
X82131877Y-90068417D01*
X82442020Y-90091093D01*
X82703003Y-90131044D01*
X82954857Y-90192204D01*
X83149198Y-90250384D01*
X83743167Y-90458264D01*
X84222865Y-90683462D01*
X84642651Y-90958721D01*
X85056884Y-91316785D01*
X85269660Y-91527636D01*
X85866653Y-92242039D01*
X86316039Y-93018519D01*
X86622691Y-93869684D01*
X86791481Y-94808146D01*
X86830497Y-95566870D01*
X86827573Y-96003140D01*
X86811873Y-96302985D01*
X86779291Y-96499092D01*
X86725722Y-96624147D01*
X86692250Y-96667537D01*
X86607311Y-96795740D01*
X86595554Y-96951370D01*
X86645311Y-97181347D01*
X86677003Y-97592106D01*
X86585902Y-98073995D01*
X86385388Y-98597495D01*
X86088842Y-99133084D01*
X85709645Y-99651244D01*
X85350047Y-100038919D01*
X84878767Y-100447707D01*
X84394375Y-100764540D01*
X83867612Y-100999328D01*
X83269219Y-101161983D01*
X82569937Y-101262414D01*
X81740507Y-101310532D01*
X81585000Y-101314212D01*
X81116950Y-101320415D01*
X80690414Y-101320643D01*
X80342971Y-101315268D01*
X80112197Y-101304665D01*
X80061000Y-101299047D01*
X79562214Y-101196380D01*
X79022362Y-101046809D01*
X78530354Y-100876008D01*
X78382005Y-100814240D01*
X77826851Y-100498336D01*
X77273693Y-100058173D01*
X76762100Y-99534603D01*
X76331641Y-98968478D01*
X76021884Y-98400651D01*
X76005035Y-98360152D01*
X75818626Y-97901503D01*
X75669563Y-98321198D01*
X75503690Y-98654544D01*
X75219767Y-99038650D01*
X74916618Y-99376625D01*
X74497877Y-99792179D01*
X74120021Y-100100479D01*
X73730991Y-100335818D01*
X73278732Y-100532490D01*
X73024704Y-100622956D01*
X72753862Y-100713006D01*
X72503634Y-100789710D01*
X72258200Y-100854139D01*
X72001741Y-100907360D01*
X71718436Y-100950442D01*
X71392465Y-100984453D01*
X71008008Y-101010463D01*
X70549244Y-101029540D01*
X70000353Y-101042753D01*
X69345515Y-101051170D01*
X68568910Y-101055859D01*
X67654717Y-101057891D01*
X66587117Y-101058333D01*
X61903361Y-101058333D01*
X61349667Y-100504743D01*
X61349667Y-98648590D01*
X61620764Y-98377492D01*
X61806327Y-98216781D01*
X61998283Y-98126912D01*
X62264721Y-98081096D01*
X62403931Y-98069354D01*
X62916000Y-98032314D01*
X62916000Y-89775685D01*
X62403931Y-89738646D01*
X62089847Y-89702770D01*
X61876872Y-89633318D01*
X61696916Y-89503500D01*
X61620764Y-89430508D01*
X61349667Y-89159410D01*
X61349667Y-88739333D01*
X62408000Y-88739333D01*
X63932000Y-88739333D01*
X63932000Y-99153333D01*
X62408000Y-99153333D01*
X62408000Y-100084667D01*
X65773500Y-100083923D01*
X66568249Y-100081589D01*
X67357525Y-100075268D01*
X68114212Y-100065462D01*
X68811196Y-100052671D01*
X69421361Y-100037397D01*
X69917593Y-100020141D01*
X70272776Y-100001403D01*
X70284484Y-100000571D01*
X71350373Y-99881838D01*
X72267166Y-99688543D01*
X73039086Y-99418001D01*
X73670358Y-99067527D01*
X74165208Y-98634436D01*
X74527859Y-98116044D01*
X74762536Y-97509665D01*
X74843583Y-97103130D01*
X74879653Y-96346720D01*
X74822608Y-96005178D01*
X76643077Y-96005178D01*
X76678958Y-96585393D01*
X76752443Y-97070316D01*
X76759471Y-97101036D01*
X77027683Y-97905463D01*
X77425221Y-98601489D01*
X77947707Y-99184622D01*
X78590766Y-99650367D01*
X79350017Y-99994233D01*
X79675828Y-100094107D01*
X80108944Y-100175918D01*
X80655085Y-100227259D01*
X81260600Y-100247525D01*
X81871835Y-100236115D01*
X82435138Y-100192425D01*
X82835510Y-100129601D01*
X83563083Y-99902628D01*
X84207504Y-99555168D01*
X84747818Y-99102891D01*
X85163075Y-98561468D01*
X85309754Y-98279162D01*
X85472078Y-97913666D01*
X85558704Y-97676935D01*
X85558227Y-97541083D01*
X85459240Y-97478222D01*
X85250338Y-97460463D01*
X84974715Y-97460000D01*
X84595856Y-97472273D01*
X84374212Y-97510183D01*
X84301007Y-97565833D01*
X84058353Y-98212922D01*
X83738878Y-98712188D01*
X83332958Y-99071239D01*
X82830966Y-99297682D01*
X82223277Y-99399126D01*
X81972084Y-99406506D01*
X81395657Y-99344068D01*
X80896057Y-99166580D01*
X80500332Y-98886078D01*
X80323731Y-98672920D01*
X80123593Y-98266245D01*
X79960772Y-97719769D01*
X79879738Y-97268324D01*
X80962428Y-97268324D01*
X81013075Y-97476581D01*
X81106562Y-97722893D01*
X81222390Y-97952726D01*
X81333035Y-98104732D01*
X81507426Y-98235915D01*
X81727834Y-98295644D01*
X81966356Y-98306667D01*
X82276942Y-98279961D01*
X82561307Y-98212503D01*
X82653985Y-98174158D01*
X82897426Y-97962606D01*
X83113743Y-97602658D01*
X83317258Y-97163667D01*
X82164316Y-97140035D01*
X81740749Y-97133922D01*
X81381702Y-97133606D01*
X81119175Y-97138746D01*
X80985167Y-97149004D01*
X80975122Y-97152655D01*
X80962428Y-97268324D01*
X79879738Y-97268324D01*
X79842399Y-97060312D01*
X79804166Y-96719167D01*
X79747481Y-96105333D01*
X85875551Y-96105333D01*
X85829305Y-95787833D01*
X85791464Y-95512879D01*
X85747523Y-95172689D01*
X85726794Y-95004667D01*
X85559275Y-94191947D01*
X85267609Y-93430906D01*
X84867296Y-92747406D01*
X84373836Y-92167310D01*
X83802730Y-91716479D01*
X83729541Y-91672193D01*
X83242859Y-91449309D01*
X82645419Y-91273109D01*
X81992350Y-91156296D01*
X81338784Y-91111576D01*
X81296290Y-91111470D01*
X80332254Y-91179873D01*
X79466251Y-91378360D01*
X78703824Y-91702983D01*
X78050518Y-92149792D01*
X77511878Y-92714837D01*
X77093448Y-93394169D01*
X76800772Y-94183839D01*
X76760749Y-94342154D01*
X76684002Y-94818622D01*
X76644768Y-95394609D01*
X76643077Y-96005178D01*
X74822608Y-96005178D01*
X74766504Y-95669273D01*
X74505676Y-95072642D01*
X74098706Y-94558679D01*
X73547134Y-94129237D01*
X72852498Y-93786167D01*
X72016336Y-93531322D01*
X71845653Y-93493869D01*
X71493216Y-93419513D01*
X71289474Y-93369805D01*
X71217178Y-93335681D01*
X71259081Y-93308078D01*
X71397932Y-93277932D01*
X71425000Y-93272829D01*
X72241274Y-93070791D01*
X72906605Y-92797887D01*
X73425245Y-92450990D01*
X73801443Y-92026976D01*
X74039450Y-91522719D01*
X74094453Y-91309848D01*
X74151960Y-90642458D01*
X74052744Y-90001318D01*
X73808091Y-89410190D01*
X73429288Y-88892833D01*
X72927622Y-88473007D01*
X72678595Y-88329228D01*
X72482187Y-88231027D01*
X72298432Y-88147614D01*
X72111998Y-88077672D01*
X71907554Y-88019881D01*
X71669769Y-87972924D01*
X71383311Y-87935482D01*
X71032848Y-87906236D01*
X70603049Y-87883869D01*
X70078583Y-87867062D01*
X69444117Y-87854496D01*
X68684321Y-87844854D01*
X67783863Y-87836817D01*
X66874167Y-87830104D01*
X62408000Y-87798432D01*
X62408000Y-88739333D01*
X61349667Y-88739333D01*
X61349667Y-87303256D01*
X61626514Y-87026461D01*
X61903361Y-86749667D01*
X66579514Y-86749667D01*
X67604528Y-86750102D01*
G37*
X67604528Y-86750102D02*
X68475226Y-86751692D01*
X69206621Y-86754863D01*
X69813728Y-86760042D01*
X70311563Y-86767655D01*
X70715139Y-86778130D01*
X71039472Y-86791893D01*
X71299576Y-86809369D01*
X71510466Y-86830987D01*
X71687157Y-86857173D01*
X71844663Y-86888352D01*
X71899277Y-86900815D01*
X72679639Y-87134824D01*
X73339715Y-87450078D01*
X73917440Y-87867483D01*
X74271228Y-88208212D01*
X74639515Y-88639413D01*
X74899936Y-89053862D01*
X75068304Y-89495051D01*
X75160435Y-90006473D01*
X75192143Y-90631620D01*
X75192667Y-90742264D01*
X75161831Y-91402433D01*
X75061833Y-91940951D01*
X74881432Y-92395285D01*
X74609390Y-92802901D01*
X74554938Y-92868240D01*
X74257231Y-93216044D01*
X74695522Y-93623522D01*
X74962847Y-93888073D01*
X75216318Y-94165374D01*
X75374906Y-94361203D01*
X75518356Y-94551332D01*
X75589572Y-94614877D01*
X75613683Y-94563800D01*
X75616000Y-94475955D01*
X75647969Y-94237597D01*
X75733133Y-93895785D01*
X75855382Y-93501563D01*
X75998601Y-93105977D01*
X76146680Y-92760070D01*
X76177319Y-92697662D01*
X76396466Y-92351488D01*
X76716224Y-91954999D01*
X77095680Y-91550854D01*
X77493921Y-91181714D01*
X77870033Y-90890241D01*
X77975976Y-90822181D01*
X78291258Y-90656417D01*
X78692118Y-90479227D01*
X79100961Y-90324442D01*
X79172000Y-90300728D01*
X79468116Y-90209077D01*
X79727125Y-90144560D01*
X79990574Y-90102237D01*
X80300010Y-90077169D01*
X80696979Y-90064417D01*
X81204000Y-90059147D01*
X81732546Y-90059080D01*
X82131877Y-90068417D01*
X82442020Y-90091093D01*
X82703003Y-90131044D01*
X82954857Y-90192204D01*
X83149198Y-90250384D01*
X83743167Y-90458264D01*
X84222865Y-90683462D01*
X84642651Y-90958721D01*
X85056884Y-91316785D01*
X85269660Y-91527636D01*
X85866653Y-92242039D01*
X86316039Y-93018519D01*
X86622691Y-93869684D01*
X86791481Y-94808146D01*
X86830497Y-95566870D01*
X86827573Y-96003140D01*
X86811873Y-96302985D01*
X86779291Y-96499092D01*
X86725722Y-96624147D01*
X86692250Y-96667537D01*
X86607311Y-96795740D01*
X86595554Y-96951370D01*
X86645311Y-97181347D01*
X86677003Y-97592106D01*
X86585902Y-98073995D01*
X86385388Y-98597495D01*
X86088842Y-99133084D01*
X85709645Y-99651244D01*
X85350047Y-100038919D01*
X84878767Y-100447707D01*
X84394375Y-100764540D01*
X83867612Y-100999328D01*
X83269219Y-101161983D01*
X82569937Y-101262414D01*
X81740507Y-101310532D01*
X81585000Y-101314212D01*
X81116950Y-101320415D01*
X80690414Y-101320643D01*
X80342971Y-101315268D01*
X80112197Y-101304665D01*
X80061000Y-101299047D01*
X79562214Y-101196380D01*
X79022362Y-101046809D01*
X78530354Y-100876008D01*
X78382005Y-100814240D01*
X77826851Y-100498336D01*
X77273693Y-100058173D01*
X76762100Y-99534603D01*
X76331641Y-98968478D01*
X76021884Y-98400651D01*
X76005035Y-98360152D01*
X75818626Y-97901503D01*
X75669563Y-98321198D01*
X75503690Y-98654544D01*
X75219767Y-99038650D01*
X74916618Y-99376625D01*
X74497877Y-99792179D01*
X74120021Y-100100479D01*
X73730991Y-100335818D01*
X73278732Y-100532490D01*
X73024704Y-100622956D01*
X72753862Y-100713006D01*
X72503634Y-100789710D01*
X72258200Y-100854139D01*
X72001741Y-100907360D01*
X71718436Y-100950442D01*
X71392465Y-100984453D01*
X71008008Y-101010463D01*
X70549244Y-101029540D01*
X70000353Y-101042753D01*
X69345515Y-101051170D01*
X68568910Y-101055859D01*
X67654717Y-101057891D01*
X66587117Y-101058333D01*
X61903361Y-101058333D01*
X61349667Y-100504743D01*
X61349667Y-98648590D01*
X61620764Y-98377492D01*
X61806327Y-98216781D01*
X61998283Y-98126912D01*
X62264721Y-98081096D01*
X62403931Y-98069354D01*
X62916000Y-98032314D01*
X62916000Y-89775685D01*
X62403931Y-89738646D01*
X62089847Y-89702770D01*
X61876872Y-89633318D01*
X61696916Y-89503500D01*
X61620764Y-89430508D01*
X61349667Y-89159410D01*
X61349667Y-88739333D01*
X62408000Y-88739333D01*
X63932000Y-88739333D01*
X63932000Y-99153333D01*
X62408000Y-99153333D01*
X62408000Y-100084667D01*
X65773500Y-100083923D01*
X66568249Y-100081589D01*
X67357525Y-100075268D01*
X68114212Y-100065462D01*
X68811196Y-100052671D01*
X69421361Y-100037397D01*
X69917593Y-100020141D01*
X70272776Y-100001403D01*
X70284484Y-100000571D01*
X71350373Y-99881838D01*
X72267166Y-99688543D01*
X73039086Y-99418001D01*
X73670358Y-99067527D01*
X74165208Y-98634436D01*
X74527859Y-98116044D01*
X74762536Y-97509665D01*
X74843583Y-97103130D01*
X74879653Y-96346720D01*
X74822608Y-96005178D01*
X76643077Y-96005178D01*
X76678958Y-96585393D01*
X76752443Y-97070316D01*
X76759471Y-97101036D01*
X77027683Y-97905463D01*
X77425221Y-98601489D01*
X77947707Y-99184622D01*
X78590766Y-99650367D01*
X79350017Y-99994233D01*
X79675828Y-100094107D01*
X80108944Y-100175918D01*
X80655085Y-100227259D01*
X81260600Y-100247525D01*
X81871835Y-100236115D01*
X82435138Y-100192425D01*
X82835510Y-100129601D01*
X83563083Y-99902628D01*
X84207504Y-99555168D01*
X84747818Y-99102891D01*
X85163075Y-98561468D01*
X85309754Y-98279162D01*
X85472078Y-97913666D01*
X85558704Y-97676935D01*
X85558227Y-97541083D01*
X85459240Y-97478222D01*
X85250338Y-97460463D01*
X84974715Y-97460000D01*
X84595856Y-97472273D01*
X84374212Y-97510183D01*
X84301007Y-97565833D01*
X84058353Y-98212922D01*
X83738878Y-98712188D01*
X83332958Y-99071239D01*
X82830966Y-99297682D01*
X82223277Y-99399126D01*
X81972084Y-99406506D01*
X81395657Y-99344068D01*
X80896057Y-99166580D01*
X80500332Y-98886078D01*
X80323731Y-98672920D01*
X80123593Y-98266245D01*
X79960772Y-97719769D01*
X79879738Y-97268324D01*
X80962428Y-97268324D01*
X81013075Y-97476581D01*
X81106562Y-97722893D01*
X81222390Y-97952726D01*
X81333035Y-98104732D01*
X81507426Y-98235915D01*
X81727834Y-98295644D01*
X81966356Y-98306667D01*
X82276942Y-98279961D01*
X82561307Y-98212503D01*
X82653985Y-98174158D01*
X82897426Y-97962606D01*
X83113743Y-97602658D01*
X83317258Y-97163667D01*
X82164316Y-97140035D01*
X81740749Y-97133922D01*
X81381702Y-97133606D01*
X81119175Y-97138746D01*
X80985167Y-97149004D01*
X80975122Y-97152655D01*
X80962428Y-97268324D01*
X79879738Y-97268324D01*
X79842399Y-97060312D01*
X79804166Y-96719167D01*
X79747481Y-96105333D01*
X85875551Y-96105333D01*
X85829305Y-95787833D01*
X85791464Y-95512879D01*
X85747523Y-95172689D01*
X85726794Y-95004667D01*
X85559275Y-94191947D01*
X85267609Y-93430906D01*
X84867296Y-92747406D01*
X84373836Y-92167310D01*
X83802730Y-91716479D01*
X83729541Y-91672193D01*
X83242859Y-91449309D01*
X82645419Y-91273109D01*
X81992350Y-91156296D01*
X81338784Y-91111576D01*
X81296290Y-91111470D01*
X80332254Y-91179873D01*
X79466251Y-91378360D01*
X78703824Y-91702983D01*
X78050518Y-92149792D01*
X77511878Y-92714837D01*
X77093448Y-93394169D01*
X76800772Y-94183839D01*
X76760749Y-94342154D01*
X76684002Y-94818622D01*
X76644768Y-95394609D01*
X76643077Y-96005178D01*
X74822608Y-96005178D01*
X74766504Y-95669273D01*
X74505676Y-95072642D01*
X74098706Y-94558679D01*
X73547134Y-94129237D01*
X72852498Y-93786167D01*
X72016336Y-93531322D01*
X71845653Y-93493869D01*
X71493216Y-93419513D01*
X71289474Y-93369805D01*
X71217178Y-93335681D01*
X71259081Y-93308078D01*
X71397932Y-93277932D01*
X71425000Y-93272829D01*
X72241274Y-93070791D01*
X72906605Y-92797887D01*
X73425245Y-92450990D01*
X73801443Y-92026976D01*
X74039450Y-91522719D01*
X74094453Y-91309848D01*
X74151960Y-90642458D01*
X74052744Y-90001318D01*
X73808091Y-89410190D01*
X73429288Y-88892833D01*
X72927622Y-88473007D01*
X72678595Y-88329228D01*
X72482187Y-88231027D01*
X72298432Y-88147614D01*
X72111998Y-88077672D01*
X71907554Y-88019881D01*
X71669769Y-87972924D01*
X71383311Y-87935482D01*
X71032848Y-87906236D01*
X70603049Y-87883869D01*
X70078583Y-87867062D01*
X69444117Y-87854496D01*
X68684321Y-87844854D01*
X67783863Y-87836817D01*
X66874167Y-87830104D01*
X62408000Y-87798432D01*
X62408000Y-88739333D01*
X61349667Y-88739333D01*
X61349667Y-87303256D01*
X61626514Y-87026461D01*
X61903361Y-86749667D01*
X66579514Y-86749667D01*
X67604528Y-86750102D01*
G36*
X122733000Y-86795189D02*
G01*
X122755918Y-92412660D01*
X122778836Y-98030130D01*
X123166908Y-98083321D01*
X123492278Y-98105069D01*
X123816039Y-98092719D01*
X123884823Y-98083768D01*
X124214667Y-98031024D01*
X124214667Y-93332975D01*
X123893574Y-93281631D01*
X123543592Y-93147407D01*
X123322074Y-92968917D01*
X123212160Y-92847736D01*
X123140282Y-92733481D01*
X123098367Y-92587924D01*
X123078339Y-92372840D01*
X123072124Y-92050003D01*
X123071667Y-91783402D01*
X123071667Y-91364000D01*
X124045333Y-91364000D01*
X124045333Y-92295333D01*
X125315333Y-92295333D01*
X125315333Y-99153333D01*
X124045333Y-99153333D01*
X124045333Y-100084667D01*
X129210000Y-100084667D01*
X129210000Y-99153333D01*
X128185312Y-99153333D01*
X128195727Y-98038544D01*
X129192104Y-98038544D01*
X129391552Y-98076051D01*
X129595563Y-98093830D01*
X129703758Y-98083112D01*
X129862439Y-98054363D01*
X129894258Y-98052667D01*
X129914454Y-97972528D01*
X129931814Y-97750180D01*
X129946194Y-97412725D01*
X129957450Y-96987266D01*
X129965438Y-96500907D01*
X129970014Y-95980749D01*
X129971034Y-95453895D01*
X129968354Y-94947448D01*
X129961830Y-94488510D01*
X129951318Y-94104185D01*
X129936674Y-93821575D01*
X129917753Y-93667782D01*
X129917563Y-93667067D01*
X129829001Y-93516919D01*
X129698287Y-93516837D01*
X129544880Y-93659162D01*
X129423195Y-93861667D01*
X129367884Y-93988784D01*
X129325197Y-94134759D01*
X129292982Y-94323983D01*
X129269082Y-94580846D01*
X129251342Y-94929741D01*
X129237610Y-95395057D01*
X129225729Y-96001187D01*
X129223747Y-96119439D01*
X129192104Y-98038544D01*
X128195727Y-98038544D01*
X128210822Y-96422833D01*
X128236333Y-93692333D01*
X128483780Y-93245707D01*
X128778957Y-92832763D01*
X129138066Y-92565591D01*
X129589995Y-92424296D01*
X129698973Y-92408804D01*
X130161263Y-92420217D01*
X130537195Y-92569336D01*
X130814336Y-92850356D01*
X130875624Y-92958042D01*
X130917441Y-93055449D01*
X130951465Y-93174727D01*
X130978724Y-93334174D01*
X131000245Y-93552083D01*
X131017053Y-93846751D01*
X131030177Y-94236472D01*
X131040642Y-94739542D01*
X131049475Y-95374257D01*
X131057704Y-96158910D01*
X131058201Y-96211167D01*
X131086069Y-99153333D01*
X130056667Y-99153333D01*
X130056667Y-100084667D01*
X134967333Y-100084667D01*
X134967333Y-99153333D01*
X133942533Y-99153333D01*
X133953137Y-98038308D01*
X134947636Y-98038308D01*
X135147984Y-98075932D01*
X135352234Y-98093810D01*
X135461091Y-98083112D01*
X135623017Y-98054311D01*
X135655538Y-98052667D01*
X135675377Y-97972481D01*
X135690922Y-97749735D01*
X135702319Y-97411143D01*
X135709714Y-96983418D01*
X135713254Y-96493275D01*
X135713084Y-95967429D01*
X135709351Y-95432592D01*
X135702201Y-94915481D01*
X135691780Y-94442809D01*
X135678234Y-94041290D01*
X135661710Y-93737639D01*
X135642354Y-93558570D01*
X135630751Y-93523055D01*
X135511298Y-93505243D01*
X135355789Y-93601849D01*
X135207728Y-93777810D01*
X135134074Y-93923379D01*
X135093074Y-94119879D01*
X135056778Y-94474937D01*
X135025899Y-94977825D01*
X135001148Y-95617815D01*
X134988319Y-96119321D01*
X134947636Y-98038308D01*
X133953137Y-98038308D01*
X133968100Y-96465167D01*
X133993667Y-93777000D01*
X134230583Y-93294548D01*
X134498223Y-92873331D01*
X134829740Y-92596182D01*
X135255448Y-92441195D01*
X135456306Y-92408804D01*
X135918596Y-92420217D01*
X136294528Y-92569336D01*
X136571670Y-92850356D01*
X136632957Y-92958042D01*
X136674774Y-93055449D01*
X136708799Y-93174727D01*
X136736058Y-93334174D01*
X136757578Y-93552083D01*
X136774387Y-93846751D01*
X136787510Y-94236472D01*
X136797975Y-94739542D01*
X136806809Y-95374257D01*
X136815038Y-96158910D01*
X136815535Y-96211167D01*
X136843403Y-99153333D01*
X135814000Y-99153333D01*
X135814000Y-100084667D01*
X140978667Y-100084667D01*
X140978667Y-99153333D01*
X139708667Y-99153333D01*
X139706989Y-96676833D01*
X139703652Y-96011731D01*
X139695068Y-95371765D01*
X139682024Y-94785126D01*
X139665307Y-94280007D01*
X139645701Y-93884602D01*
X139623995Y-93627101D01*
X139621408Y-93607667D01*
X139450984Y-92878338D01*
X139165180Y-92272528D01*
X138766492Y-91792186D01*
X138257413Y-91439257D01*
X137640437Y-91215690D01*
X136918060Y-91123433D01*
X136449570Y-91130994D01*
X135977725Y-91178416D01*
X135606867Y-91262853D01*
X135273017Y-91398050D01*
X134869181Y-91643096D01*
X134452413Y-91973733D01*
X134088073Y-92334471D01*
X133916884Y-92549333D01*
X133769373Y-92761000D01*
X133627520Y-92551530D01*
X133326546Y-92131657D01*
X133062644Y-91827609D01*
X132798945Y-91602871D01*
X132498578Y-91420932D01*
X132472016Y-91407212D01*
X132244605Y-91296434D01*
X132049390Y-91223418D01*
X131841023Y-91180345D01*
X131574155Y-91159393D01*
X131203439Y-91152743D01*
X130993986Y-91152333D01*
X130558196Y-91155609D01*
X130246220Y-91170342D01*
X130012589Y-91203895D01*
X129811835Y-91263626D01*
X129598488Y-91356898D01*
X129532572Y-91388912D01*
X129139409Y-91633441D01*
X128748533Y-91964316D01*
X128622406Y-92094235D01*
X128194000Y-92562979D01*
X128194000Y-91364000D01*
X124045333Y-91364000D01*
X123071667Y-91364000D01*
X123071667Y-90859256D01*
X123348334Y-90582461D01*
X123625001Y-90305667D01*
X126015334Y-90283740D01*
X126770334Y-90278789D01*
X127372142Y-90279651D01*
X127836815Y-90286864D01*
X128180412Y-90300968D01*
X128418992Y-90322500D01*
X128568613Y-90352000D01*
X128617333Y-90371049D01*
X128754897Y-90423066D01*
X128904274Y-90420526D01*
X129117076Y-90356017D01*
X129337000Y-90267683D01*
X129562301Y-90179886D01*
X129770442Y-90120194D01*
X130002291Y-90083406D01*
X130298716Y-90064320D01*
X130700584Y-90057736D01*
X130988000Y-90057573D01*
X131639079Y-90075074D01*
X132162541Y-90131497D01*
X132597725Y-90237486D01*
X132983970Y-90403684D01*
X133360612Y-90640733D01*
X133485520Y-90733279D01*
X133860551Y-91019547D01*
X134096442Y-90822344D01*
X134624341Y-90480980D01*
X135260705Y-90230661D01*
X135969406Y-90074302D01*
X136714317Y-90014821D01*
X137459308Y-90055134D01*
X138168252Y-90198157D01*
X138797339Y-90442873D01*
X139136730Y-90666386D01*
X139506335Y-90989436D01*
X139858512Y-91362795D01*
X140145620Y-91737235D01*
X140285784Y-91980897D01*
X140409045Y-92259841D01*
X140507060Y-92524748D01*
X140582664Y-92799576D01*
X140638694Y-93108281D01*
X140677984Y-93474821D01*
X140703372Y-93923152D01*
X140717692Y-94477231D01*
X140723780Y-95161014D01*
X140724667Y-95688640D01*
X140724667Y-98030371D01*
X141076594Y-98077574D01*
X141459542Y-98206129D01*
X141690427Y-98386683D01*
X141804990Y-98506502D01*
X141880061Y-98617057D01*
X141923988Y-98756272D01*
X141945115Y-98962069D01*
X141951790Y-99272372D01*
X141952333Y-99576667D01*
X141952333Y-100504743D01*
X141675536Y-100781538D01*
X141398740Y-101058333D01*
X126816536Y-101077666D01*
X124667499Y-101080013D01*
X122687478Y-101081130D01*
X120876162Y-101081016D01*
X119233237Y-101079668D01*
X117758393Y-101077087D01*
X116451317Y-101073270D01*
X115311697Y-101068216D01*
X114339220Y-101061923D01*
X113533574Y-101054391D01*
X112894447Y-101045617D01*
X112421528Y-101035601D01*
X112114502Y-101024340D01*
X111973060Y-101011834D01*
X111967663Y-101010404D01*
X111780200Y-100972944D01*
X111570030Y-100991954D01*
X111281161Y-101074770D01*
X111163330Y-101115813D01*
X110909715Y-101197610D01*
X110662085Y-101252761D01*
X110377443Y-101286165D01*
X110012796Y-101302721D01*
X109525148Y-101307329D01*
X109482667Y-101307330D01*
X108996039Y-101303712D01*
X108637263Y-101289963D01*
X108364934Y-101261015D01*
X108137644Y-101211805D01*
X107913988Y-101137266D01*
X107831667Y-101105352D01*
X107307789Y-100825399D01*
X106815361Y-100429345D01*
X106384820Y-99952889D01*
X106046602Y-99431727D01*
X105831142Y-98901559D01*
X105788391Y-98708833D01*
X105742270Y-98505300D01*
X105693666Y-98396940D01*
X105683012Y-98391485D01*
X105612339Y-98457110D01*
X105486719Y-98625724D01*
X105386265Y-98777954D01*
X104811593Y-99537372D01*
X104129453Y-100166085D01*
X103339057Y-100664700D01*
X102469398Y-101024238D01*
X102148027Y-101124920D01*
X101875045Y-101197409D01*
X101609656Y-101247105D01*
X101311061Y-101279409D01*
X100938463Y-101299723D01*
X100451065Y-101313448D01*
X100254000Y-101317533D01*
X99738917Y-101322253D01*
X99240940Y-101317014D01*
X98803206Y-101302958D01*
X98468857Y-101281227D01*
X98349000Y-101267093D01*
X97724861Y-101136687D01*
X97038526Y-100936762D01*
X96368009Y-100692743D01*
X95809000Y-100439253D01*
X95491164Y-100252855D01*
X95158558Y-100009244D01*
X94781663Y-99684560D01*
X94330957Y-99254944D01*
X94273780Y-99198447D01*
X93891393Y-98813296D01*
X93607138Y-98507761D01*
X93394100Y-98247279D01*
X93225365Y-97997284D01*
X93074018Y-97723213D01*
X92986028Y-97544667D01*
X92621296Y-96617137D01*
X92374068Y-95620709D01*
X92243143Y-94583489D01*
X92232900Y-93904000D01*
X93355725Y-93904000D01*
X93364330Y-94575221D01*
X93398647Y-95123516D01*
X93467976Y-95594496D01*
X93581621Y-96033770D01*
X93748881Y-96486949D01*
X93979058Y-96999644D01*
X93992989Y-97028927D01*
X94189785Y-97409227D01*
X94399435Y-97731964D01*
X94661529Y-98050784D01*
X95015655Y-98419334D01*
X95028374Y-98431978D01*
X95359725Y-98742895D01*
X95704357Y-99036175D01*
X96014794Y-99272826D01*
X96190000Y-99385989D01*
X96655649Y-99612899D01*
X97216761Y-99832246D01*
X97800410Y-100018580D01*
X98333672Y-100146451D01*
X98405211Y-100159083D01*
X98825822Y-100206970D01*
X99350544Y-100234112D01*
X99928024Y-100241035D01*
X100506910Y-100228267D01*
X101035852Y-100196335D01*
X101463497Y-100145767D01*
X101566333Y-100126628D01*
X102270940Y-99916996D01*
X102949966Y-99600461D01*
X103549571Y-99205010D01*
X103851517Y-98938802D01*
X104128614Y-98610736D01*
X104417006Y-98185065D01*
X104685663Y-97716263D01*
X104764842Y-97550026D01*
X106773333Y-97550026D01*
X106811459Y-98180828D01*
X106935430Y-98697722D01*
X107159640Y-99140321D01*
X107498480Y-99548237D01*
X107499845Y-99549611D01*
X107814683Y-99832389D01*
X108129985Y-100030011D01*
X108484300Y-100154657D01*
X108916174Y-100218508D01*
X109464157Y-100233744D01*
X109655267Y-100230695D01*
X110075430Y-100216506D01*
X110379492Y-100189559D01*
X110620673Y-100139112D01*
X110852193Y-100054424D01*
X111096954Y-99939724D01*
X111436013Y-99746449D01*
X111766278Y-99515299D01*
X111982686Y-99328048D01*
X112176727Y-99141482D01*
X112325662Y-99016951D01*
X112382500Y-98985425D01*
X112414831Y-99061889D01*
X112437701Y-99263346D01*
X112446000Y-99534333D01*
X112446000Y-100084667D01*
X116594667Y-100084667D01*
X116594667Y-99153333D01*
X115324667Y-99153333D01*
X115324027Y-96803833D01*
X115320690Y-96157035D01*
X115311612Y-95536866D01*
X115297665Y-94972098D01*
X115279719Y-94491506D01*
X115258644Y-94123864D01*
X115236293Y-93904000D01*
X115053787Y-93191326D01*
X114747075Y-92587750D01*
X114312588Y-92089956D01*
X113746757Y-91694627D01*
X113046013Y-91398448D01*
X112352066Y-91224148D01*
X111664191Y-91138291D01*
X110871779Y-91113366D01*
X110026857Y-91145795D01*
X109181453Y-91232004D01*
X108387592Y-91368416D01*
X107725833Y-91542131D01*
X107450667Y-91631132D01*
X107450667Y-93480667D01*
X107862497Y-93480667D01*
X108110682Y-93473656D01*
X108250474Y-93425103D01*
X108341485Y-93293722D01*
X108422416Y-93092903D01*
X108665831Y-92632215D01*
X109002293Y-92296194D01*
X109442483Y-92079276D01*
X109997082Y-91975898D01*
X110571686Y-91973446D01*
X111175176Y-92059464D01*
X111649205Y-92246291D01*
X112003141Y-92543672D01*
X112246350Y-92961355D01*
X112388202Y-93509087D01*
X112428632Y-93905470D01*
X112466175Y-94554011D01*
X111122587Y-94607534D01*
X110281597Y-94653666D01*
X109585904Y-94723018D01*
X109012297Y-94822138D01*
X108537563Y-94957572D01*
X108138489Y-95135867D01*
X107791864Y-95363571D01*
X107489383Y-95632240D01*
X107151893Y-96031009D01*
X106930908Y-96454045D01*
X106810149Y-96944953D01*
X106773334Y-97547339D01*
X106773333Y-97550026D01*
X104764842Y-97550026D01*
X104903553Y-97258803D01*
X105039646Y-96867158D01*
X105045483Y-96842857D01*
X105100018Y-96606714D01*
X104315985Y-96631190D01*
X103531951Y-96655667D01*
X103430924Y-96994333D01*
X103165739Y-97643105D01*
X102787646Y-98226835D01*
X102323316Y-98711408D01*
X101823732Y-99050325D01*
X101425574Y-99194400D01*
X100921726Y-99287207D01*
X100368834Y-99325646D01*
X99823547Y-99306617D01*
X99342511Y-99227018D01*
X99224414Y-99192589D01*
X98606899Y-98919285D01*
X98089075Y-98533411D01*
X97662887Y-98024742D01*
X97320284Y-97383054D01*
X97053212Y-96598123D01*
X96992776Y-96359333D01*
X96918528Y-95937807D01*
X96860152Y-95391287D01*
X96819025Y-94763492D01*
X96796524Y-94098139D01*
X96794026Y-93438946D01*
X96812906Y-92829631D01*
X96854542Y-92313914D01*
X96863210Y-92244496D01*
X97046149Y-91286116D01*
X97322352Y-90469064D01*
X97691842Y-89793315D01*
X98154644Y-89258846D01*
X98710782Y-88865633D01*
X99360281Y-88613651D01*
X100103164Y-88502877D01*
X100644206Y-88507081D01*
X101390233Y-88623493D01*
X102040012Y-88875608D01*
X102596617Y-89266078D01*
X103063126Y-89797551D01*
X103442611Y-90472678D01*
X103689718Y-91131167D01*
X103840924Y-91618000D01*
X104826000Y-91618000D01*
X104826000Y-88599895D01*
X103873500Y-88277752D01*
X102881485Y-87974027D01*
X101960476Y-87763619D01*
X101049027Y-87634347D01*
X100381000Y-87585475D01*
X99224430Y-87597445D01*
X98148376Y-87745789D01*
X97159991Y-88025968D01*
X96266425Y-88433446D01*
X95474831Y-88963687D01*
X94792362Y-89612154D01*
X94226168Y-90374309D01*
X93783402Y-91245617D01*
X93550707Y-91918149D01*
X93472239Y-92218104D01*
X93417709Y-92505111D01*
X93382979Y-92821289D01*
X93363915Y-93208755D01*
X93356381Y-93709630D01*
X93355725Y-93904000D01*
X92232900Y-93904000D01*
X92227315Y-93533587D01*
X92325381Y-92499111D01*
X92536138Y-91508168D01*
X92858381Y-90588868D01*
X93290907Y-89769319D01*
X93320986Y-89722947D01*
X93726174Y-89185538D01*
X94229164Y-88641152D01*
X94785923Y-88130471D01*
X95352422Y-87694176D01*
X95839663Y-87395887D01*
X96862052Y-86958034D01*
X97968573Y-86661226D01*
X99149354Y-86505662D01*
X100394524Y-86491542D01*
X101694211Y-86619066D01*
X103038545Y-86888433D01*
X104201896Y-87226726D01*
X104671412Y-87389179D01*
X105010929Y-87525667D01*
X105254387Y-87652611D01*
X105435731Y-87786429D01*
X105514229Y-87861575D01*
X105799667Y-88156072D01*
X105799667Y-92038077D01*
X105246077Y-92591667D01*
X104275667Y-92591667D01*
X103857612Y-92590332D01*
X103572662Y-92581282D01*
X103384585Y-92556950D01*
X103257151Y-92509768D01*
X103154132Y-92432166D01*
X103059695Y-92337667D01*
X102868052Y-92061711D01*
X102694744Y-91664921D01*
X102638252Y-91491000D01*
X102390030Y-90835176D01*
X102075988Y-90327621D01*
X101689067Y-89957790D01*
X101551736Y-89868586D01*
X101334026Y-89750839D01*
X101136397Y-89679211D01*
X100904530Y-89642584D01*
X100584107Y-89629839D01*
X100381000Y-89628940D01*
X99779256Y-89668616D01*
X99302372Y-89796983D01*
X98922450Y-90029662D01*
X98611594Y-90382275D01*
X98407375Y-90734078D01*
X98184836Y-91307398D01*
X98018717Y-92004590D01*
X97909941Y-92789545D01*
X97859430Y-93626155D01*
X97868107Y-94478312D01*
X97936895Y-95309907D01*
X98066715Y-96084832D01*
X98253600Y-96753232D01*
X98529073Y-97329660D01*
X98898865Y-97765576D01*
X99364955Y-98062406D01*
X99929320Y-98221574D01*
X100331566Y-98251772D01*
X100924299Y-98188390D01*
X101427014Y-97984815D01*
X101842842Y-97638452D01*
X102174913Y-97146706D01*
X102423107Y-96517881D01*
X102569046Y-96149889D01*
X102752728Y-95856923D01*
X102815377Y-95788519D01*
X102913648Y-95698445D01*
X103009406Y-95635145D01*
X103132970Y-95593896D01*
X103314658Y-95569976D01*
X103584789Y-95558664D01*
X103973681Y-95555236D01*
X104314670Y-95555000D01*
X104814876Y-95557530D01*
X105174060Y-95567089D01*
X105420483Y-95586625D01*
X105582409Y-95619091D01*
X105688098Y-95667435D01*
X105733944Y-95703167D01*
X105888421Y-95825029D01*
X105982605Y-95816266D01*
X106068262Y-95663443D01*
X106090496Y-95610621D01*
X106202340Y-95426930D01*
X106395991Y-95184727D01*
X106608575Y-94957827D01*
X107026948Y-94545745D01*
X106709641Y-94220793D01*
X106392333Y-93895840D01*
X106392333Y-93540318D01*
X109397827Y-93540318D01*
X109476651Y-93565127D01*
X109690526Y-93580918D01*
X110005337Y-93586191D01*
X110329161Y-93581218D01*
X110703453Y-93563861D01*
X111005945Y-93537024D01*
X111202466Y-93504590D01*
X111260667Y-93475385D01*
X111206191Y-93362707D01*
X111091333Y-93226667D01*
X110954535Y-93128514D01*
X110760839Y-93076144D01*
X110460526Y-93057919D01*
X110367818Y-93057333D01*
X110048166Y-93066641D01*
X109841673Y-93104678D01*
X109692712Y-93186618D01*
X109605818Y-93265151D01*
X109465850Y-93422735D01*
X109398815Y-93532834D01*
X109397827Y-93540318D01*
X106392333Y-93540318D01*
X106392333Y-91204072D01*
X106673012Y-90914484D01*
X106915958Y-90724407D01*
X107265646Y-90553307D01*
X107739972Y-90394646D01*
X108356829Y-90241887D01*
X108720667Y-90166394D01*
X109090375Y-90115714D01*
X109578972Y-90080731D01*
X110146955Y-90061129D01*
X110754823Y-90056586D01*
X111363073Y-90066784D01*
X111932204Y-90091404D01*
X112422713Y-90130127D01*
X112795098Y-90182633D01*
X112873579Y-90199950D01*
X113451597Y-90356698D01*
X113906630Y-90517095D01*
X114283909Y-90704196D01*
X114628665Y-90941056D01*
X114986132Y-91250728D01*
X115046244Y-91307353D01*
X115382165Y-91641092D01*
X115655130Y-91955252D01*
X115871527Y-92272294D01*
X116037748Y-92614684D01*
X116160182Y-93004884D01*
X116245221Y-93465357D01*
X116299253Y-94018568D01*
X116328670Y-94686978D01*
X116339862Y-95493053D01*
X116340667Y-95857613D01*
X116340667Y-98029650D01*
X116730490Y-98083081D01*
X117056032Y-98104969D01*
X117379809Y-98092875D01*
X117450156Y-98083768D01*
X117780000Y-98031024D01*
X117780000Y-89268975D01*
X117458907Y-89217631D01*
X117108926Y-89083407D01*
X116887407Y-88904917D01*
X116777493Y-88783736D01*
X116705616Y-88669481D01*
X116663700Y-88523924D01*
X116643672Y-88308840D01*
X116637457Y-87986003D01*
X116637000Y-87719402D01*
X116637000Y-87300000D01*
X117610667Y-87300000D01*
X117610667Y-88146667D01*
X118880667Y-88146667D01*
X118880667Y-99153333D01*
X117610667Y-99153333D01*
X117610667Y-100084667D01*
X123029333Y-100084667D01*
X123029333Y-99153333D01*
X121759333Y-99153333D01*
X121759333Y-87300000D01*
X117610667Y-87300000D01*
X116637000Y-87300000D01*
X116637000Y-86795256D01*
X116913795Y-86518461D01*
X117190590Y-86241667D01*
X122179410Y-86241667D01*
X122733000Y-86795189D01*
G37*
X122733000Y-86795189D02*
X122755918Y-92412660D01*
X122778836Y-98030130D01*
X123166908Y-98083321D01*
X123492278Y-98105069D01*
X123816039Y-98092719D01*
X123884823Y-98083768D01*
X124214667Y-98031024D01*
X124214667Y-93332975D01*
X123893574Y-93281631D01*
X123543592Y-93147407D01*
X123322074Y-92968917D01*
X123212160Y-92847736D01*
X123140282Y-92733481D01*
X123098367Y-92587924D01*
X123078339Y-92372840D01*
X123072124Y-92050003D01*
X123071667Y-91783402D01*
X123071667Y-91364000D01*
X124045333Y-91364000D01*
X124045333Y-92295333D01*
X125315333Y-92295333D01*
X125315333Y-99153333D01*
X124045333Y-99153333D01*
X124045333Y-100084667D01*
X129210000Y-100084667D01*
X129210000Y-99153333D01*
X128185312Y-99153333D01*
X128195727Y-98038544D01*
X129192104Y-98038544D01*
X129391552Y-98076051D01*
X129595563Y-98093830D01*
X129703758Y-98083112D01*
X129862439Y-98054363D01*
X129894258Y-98052667D01*
X129914454Y-97972528D01*
X129931814Y-97750180D01*
X129946194Y-97412725D01*
X129957450Y-96987266D01*
X129965438Y-96500907D01*
X129970014Y-95980749D01*
X129971034Y-95453895D01*
X129968354Y-94947448D01*
X129961830Y-94488510D01*
X129951318Y-94104185D01*
X129936674Y-93821575D01*
X129917753Y-93667782D01*
X129917563Y-93667067D01*
X129829001Y-93516919D01*
X129698287Y-93516837D01*
X129544880Y-93659162D01*
X129423195Y-93861667D01*
X129367884Y-93988784D01*
X129325197Y-94134759D01*
X129292982Y-94323983D01*
X129269082Y-94580846D01*
X129251342Y-94929741D01*
X129237610Y-95395057D01*
X129225729Y-96001187D01*
X129223747Y-96119439D01*
X129192104Y-98038544D01*
X128195727Y-98038544D01*
X128210822Y-96422833D01*
X128236333Y-93692333D01*
X128483780Y-93245707D01*
X128778957Y-92832763D01*
X129138066Y-92565591D01*
X129589995Y-92424296D01*
X129698973Y-92408804D01*
X130161263Y-92420217D01*
X130537195Y-92569336D01*
X130814336Y-92850356D01*
X130875624Y-92958042D01*
X130917441Y-93055449D01*
X130951465Y-93174727D01*
X130978724Y-93334174D01*
X131000245Y-93552083D01*
X131017053Y-93846751D01*
X131030177Y-94236472D01*
X131040642Y-94739542D01*
X131049475Y-95374257D01*
X131057704Y-96158910D01*
X131058201Y-96211167D01*
X131086069Y-99153333D01*
X130056667Y-99153333D01*
X130056667Y-100084667D01*
X134967333Y-100084667D01*
X134967333Y-99153333D01*
X133942533Y-99153333D01*
X133953137Y-98038308D01*
X134947636Y-98038308D01*
X135147984Y-98075932D01*
X135352234Y-98093810D01*
X135461091Y-98083112D01*
X135623017Y-98054311D01*
X135655538Y-98052667D01*
X135675377Y-97972481D01*
X135690922Y-97749735D01*
X135702319Y-97411143D01*
X135709714Y-96983418D01*
X135713254Y-96493275D01*
X135713084Y-95967429D01*
X135709351Y-95432592D01*
X135702201Y-94915481D01*
X135691780Y-94442809D01*
X135678234Y-94041290D01*
X135661710Y-93737639D01*
X135642354Y-93558570D01*
X135630751Y-93523055D01*
X135511298Y-93505243D01*
X135355789Y-93601849D01*
X135207728Y-93777810D01*
X135134074Y-93923379D01*
X135093074Y-94119879D01*
X135056778Y-94474937D01*
X135025899Y-94977825D01*
X135001148Y-95617815D01*
X134988319Y-96119321D01*
X134947636Y-98038308D01*
X133953137Y-98038308D01*
X133968100Y-96465167D01*
X133993667Y-93777000D01*
X134230583Y-93294548D01*
X134498223Y-92873331D01*
X134829740Y-92596182D01*
X135255448Y-92441195D01*
X135456306Y-92408804D01*
X135918596Y-92420217D01*
X136294528Y-92569336D01*
X136571670Y-92850356D01*
X136632957Y-92958042D01*
X136674774Y-93055449D01*
X136708799Y-93174727D01*
X136736058Y-93334174D01*
X136757578Y-93552083D01*
X136774387Y-93846751D01*
X136787510Y-94236472D01*
X136797975Y-94739542D01*
X136806809Y-95374257D01*
X136815038Y-96158910D01*
X136815535Y-96211167D01*
X136843403Y-99153333D01*
X135814000Y-99153333D01*
X135814000Y-100084667D01*
X140978667Y-100084667D01*
X140978667Y-99153333D01*
X139708667Y-99153333D01*
X139706989Y-96676833D01*
X139703652Y-96011731D01*
X139695068Y-95371765D01*
X139682024Y-94785126D01*
X139665307Y-94280007D01*
X139645701Y-93884602D01*
X139623995Y-93627101D01*
X139621408Y-93607667D01*
X139450984Y-92878338D01*
X139165180Y-92272528D01*
X138766492Y-91792186D01*
X138257413Y-91439257D01*
X137640437Y-91215690D01*
X136918060Y-91123433D01*
X136449570Y-91130994D01*
X135977725Y-91178416D01*
X135606867Y-91262853D01*
X135273017Y-91398050D01*
X134869181Y-91643096D01*
X134452413Y-91973733D01*
X134088073Y-92334471D01*
X133916884Y-92549333D01*
X133769373Y-92761000D01*
X133627520Y-92551530D01*
X133326546Y-92131657D01*
X133062644Y-91827609D01*
X132798945Y-91602871D01*
X132498578Y-91420932D01*
X132472016Y-91407212D01*
X132244605Y-91296434D01*
X132049390Y-91223418D01*
X131841023Y-91180345D01*
X131574155Y-91159393D01*
X131203439Y-91152743D01*
X130993986Y-91152333D01*
X130558196Y-91155609D01*
X130246220Y-91170342D01*
X130012589Y-91203895D01*
X129811835Y-91263626D01*
X129598488Y-91356898D01*
X129532572Y-91388912D01*
X129139409Y-91633441D01*
X128748533Y-91964316D01*
X128622406Y-92094235D01*
X128194000Y-92562979D01*
X128194000Y-91364000D01*
X124045333Y-91364000D01*
X123071667Y-91364000D01*
X123071667Y-90859256D01*
X123348334Y-90582461D01*
X123625001Y-90305667D01*
X126015334Y-90283740D01*
X126770334Y-90278789D01*
X127372142Y-90279651D01*
X127836815Y-90286864D01*
X128180412Y-90300968D01*
X128418992Y-90322500D01*
X128568613Y-90352000D01*
X128617333Y-90371049D01*
X128754897Y-90423066D01*
X128904274Y-90420526D01*
X129117076Y-90356017D01*
X129337000Y-90267683D01*
X129562301Y-90179886D01*
X129770442Y-90120194D01*
X130002291Y-90083406D01*
X130298716Y-90064320D01*
X130700584Y-90057736D01*
X130988000Y-90057573D01*
X131639079Y-90075074D01*
X132162541Y-90131497D01*
X132597725Y-90237486D01*
X132983970Y-90403684D01*
X133360612Y-90640733D01*
X133485520Y-90733279D01*
X133860551Y-91019547D01*
X134096442Y-90822344D01*
X134624341Y-90480980D01*
X135260705Y-90230661D01*
X135969406Y-90074302D01*
X136714317Y-90014821D01*
X137459308Y-90055134D01*
X138168252Y-90198157D01*
X138797339Y-90442873D01*
X139136730Y-90666386D01*
X139506335Y-90989436D01*
X139858512Y-91362795D01*
X140145620Y-91737235D01*
X140285784Y-91980897D01*
X140409045Y-92259841D01*
X140507060Y-92524748D01*
X140582664Y-92799576D01*
X140638694Y-93108281D01*
X140677984Y-93474821D01*
X140703372Y-93923152D01*
X140717692Y-94477231D01*
X140723780Y-95161014D01*
X140724667Y-95688640D01*
X140724667Y-98030371D01*
X141076594Y-98077574D01*
X141459542Y-98206129D01*
X141690427Y-98386683D01*
X141804990Y-98506502D01*
X141880061Y-98617057D01*
X141923988Y-98756272D01*
X141945115Y-98962069D01*
X141951790Y-99272372D01*
X141952333Y-99576667D01*
X141952333Y-100504743D01*
X141675536Y-100781538D01*
X141398740Y-101058333D01*
X126816536Y-101077666D01*
X124667499Y-101080013D01*
X122687478Y-101081130D01*
X120876162Y-101081016D01*
X119233237Y-101079668D01*
X117758393Y-101077087D01*
X116451317Y-101073270D01*
X115311697Y-101068216D01*
X114339220Y-101061923D01*
X113533574Y-101054391D01*
X112894447Y-101045617D01*
X112421528Y-101035601D01*
X112114502Y-101024340D01*
X111973060Y-101011834D01*
X111967663Y-101010404D01*
X111780200Y-100972944D01*
X111570030Y-100991954D01*
X111281161Y-101074770D01*
X111163330Y-101115813D01*
X110909715Y-101197610D01*
X110662085Y-101252761D01*
X110377443Y-101286165D01*
X110012796Y-101302721D01*
X109525148Y-101307329D01*
X109482667Y-101307330D01*
X108996039Y-101303712D01*
X108637263Y-101289963D01*
X108364934Y-101261015D01*
X108137644Y-101211805D01*
X107913988Y-101137266D01*
X107831667Y-101105352D01*
X107307789Y-100825399D01*
X106815361Y-100429345D01*
X106384820Y-99952889D01*
X106046602Y-99431727D01*
X105831142Y-98901559D01*
X105788391Y-98708833D01*
X105742270Y-98505300D01*
X105693666Y-98396940D01*
X105683012Y-98391485D01*
X105612339Y-98457110D01*
X105486719Y-98625724D01*
X105386265Y-98777954D01*
X104811593Y-99537372D01*
X104129453Y-100166085D01*
X103339057Y-100664700D01*
X102469398Y-101024238D01*
X102148027Y-101124920D01*
X101875045Y-101197409D01*
X101609656Y-101247105D01*
X101311061Y-101279409D01*
X100938463Y-101299723D01*
X100451065Y-101313448D01*
X100254000Y-101317533D01*
X99738917Y-101322253D01*
X99240940Y-101317014D01*
X98803206Y-101302958D01*
X98468857Y-101281227D01*
X98349000Y-101267093D01*
X97724861Y-101136687D01*
X97038526Y-100936762D01*
X96368009Y-100692743D01*
X95809000Y-100439253D01*
X95491164Y-100252855D01*
X95158558Y-100009244D01*
X94781663Y-99684560D01*
X94330957Y-99254944D01*
X94273780Y-99198447D01*
X93891393Y-98813296D01*
X93607138Y-98507761D01*
X93394100Y-98247279D01*
X93225365Y-97997284D01*
X93074018Y-97723213D01*
X92986028Y-97544667D01*
X92621296Y-96617137D01*
X92374068Y-95620709D01*
X92243143Y-94583489D01*
X92232900Y-93904000D01*
X93355725Y-93904000D01*
X93364330Y-94575221D01*
X93398647Y-95123516D01*
X93467976Y-95594496D01*
X93581621Y-96033770D01*
X93748881Y-96486949D01*
X93979058Y-96999644D01*
X93992989Y-97028927D01*
X94189785Y-97409227D01*
X94399435Y-97731964D01*
X94661529Y-98050784D01*
X95015655Y-98419334D01*
X95028374Y-98431978D01*
X95359725Y-98742895D01*
X95704357Y-99036175D01*
X96014794Y-99272826D01*
X96190000Y-99385989D01*
X96655649Y-99612899D01*
X97216761Y-99832246D01*
X97800410Y-100018580D01*
X98333672Y-100146451D01*
X98405211Y-100159083D01*
X98825822Y-100206970D01*
X99350544Y-100234112D01*
X99928024Y-100241035D01*
X100506910Y-100228267D01*
X101035852Y-100196335D01*
X101463497Y-100145767D01*
X101566333Y-100126628D01*
X102270940Y-99916996D01*
X102949966Y-99600461D01*
X103549571Y-99205010D01*
X103851517Y-98938802D01*
X104128614Y-98610736D01*
X104417006Y-98185065D01*
X104685663Y-97716263D01*
X104764842Y-97550026D01*
X106773333Y-97550026D01*
X106811459Y-98180828D01*
X106935430Y-98697722D01*
X107159640Y-99140321D01*
X107498480Y-99548237D01*
X107499845Y-99549611D01*
X107814683Y-99832389D01*
X108129985Y-100030011D01*
X108484300Y-100154657D01*
X108916174Y-100218508D01*
X109464157Y-100233744D01*
X109655267Y-100230695D01*
X110075430Y-100216506D01*
X110379492Y-100189559D01*
X110620673Y-100139112D01*
X110852193Y-100054424D01*
X111096954Y-99939724D01*
X111436013Y-99746449D01*
X111766278Y-99515299D01*
X111982686Y-99328048D01*
X112176727Y-99141482D01*
X112325662Y-99016951D01*
X112382500Y-98985425D01*
X112414831Y-99061889D01*
X112437701Y-99263346D01*
X112446000Y-99534333D01*
X112446000Y-100084667D01*
X116594667Y-100084667D01*
X116594667Y-99153333D01*
X115324667Y-99153333D01*
X115324027Y-96803833D01*
X115320690Y-96157035D01*
X115311612Y-95536866D01*
X115297665Y-94972098D01*
X115279719Y-94491506D01*
X115258644Y-94123864D01*
X115236293Y-93904000D01*
X115053787Y-93191326D01*
X114747075Y-92587750D01*
X114312588Y-92089956D01*
X113746757Y-91694627D01*
X113046013Y-91398448D01*
X112352066Y-91224148D01*
X111664191Y-91138291D01*
X110871779Y-91113366D01*
X110026857Y-91145795D01*
X109181453Y-91232004D01*
X108387592Y-91368416D01*
X107725833Y-91542131D01*
X107450667Y-91631132D01*
X107450667Y-93480667D01*
X107862497Y-93480667D01*
X108110682Y-93473656D01*
X108250474Y-93425103D01*
X108341485Y-93293722D01*
X108422416Y-93092903D01*
X108665831Y-92632215D01*
X109002293Y-92296194D01*
X109442483Y-92079276D01*
X109997082Y-91975898D01*
X110571686Y-91973446D01*
X111175176Y-92059464D01*
X111649205Y-92246291D01*
X112003141Y-92543672D01*
X112246350Y-92961355D01*
X112388202Y-93509087D01*
X112428632Y-93905470D01*
X112466175Y-94554011D01*
X111122587Y-94607534D01*
X110281597Y-94653666D01*
X109585904Y-94723018D01*
X109012297Y-94822138D01*
X108537563Y-94957572D01*
X108138489Y-95135867D01*
X107791864Y-95363571D01*
X107489383Y-95632240D01*
X107151893Y-96031009D01*
X106930908Y-96454045D01*
X106810149Y-96944953D01*
X106773334Y-97547339D01*
X106773333Y-97550026D01*
X104764842Y-97550026D01*
X104903553Y-97258803D01*
X105039646Y-96867158D01*
X105045483Y-96842857D01*
X105100018Y-96606714D01*
X104315985Y-96631190D01*
X103531951Y-96655667D01*
X103430924Y-96994333D01*
X103165739Y-97643105D01*
X102787646Y-98226835D01*
X102323316Y-98711408D01*
X101823732Y-99050325D01*
X101425574Y-99194400D01*
X100921726Y-99287207D01*
X100368834Y-99325646D01*
X99823547Y-99306617D01*
X99342511Y-99227018D01*
X99224414Y-99192589D01*
X98606899Y-98919285D01*
X98089075Y-98533411D01*
X97662887Y-98024742D01*
X97320284Y-97383054D01*
X97053212Y-96598123D01*
X96992776Y-96359333D01*
X96918528Y-95937807D01*
X96860152Y-95391287D01*
X96819025Y-94763492D01*
X96796524Y-94098139D01*
X96794026Y-93438946D01*
X96812906Y-92829631D01*
X96854542Y-92313914D01*
X96863210Y-92244496D01*
X97046149Y-91286116D01*
X97322352Y-90469064D01*
X97691842Y-89793315D01*
X98154644Y-89258846D01*
X98710782Y-88865633D01*
X99360281Y-88613651D01*
X100103164Y-88502877D01*
X100644206Y-88507081D01*
X101390233Y-88623493D01*
X102040012Y-88875608D01*
X102596617Y-89266078D01*
X103063126Y-89797551D01*
X103442611Y-90472678D01*
X103689718Y-91131167D01*
X103840924Y-91618000D01*
X104826000Y-91618000D01*
X104826000Y-88599895D01*
X103873500Y-88277752D01*
X102881485Y-87974027D01*
X101960476Y-87763619D01*
X101049027Y-87634347D01*
X100381000Y-87585475D01*
X99224430Y-87597445D01*
X98148376Y-87745789D01*
X97159991Y-88025968D01*
X96266425Y-88433446D01*
X95474831Y-88963687D01*
X94792362Y-89612154D01*
X94226168Y-90374309D01*
X93783402Y-91245617D01*
X93550707Y-91918149D01*
X93472239Y-92218104D01*
X93417709Y-92505111D01*
X93382979Y-92821289D01*
X93363915Y-93208755D01*
X93356381Y-93709630D01*
X93355725Y-93904000D01*
X92232900Y-93904000D01*
X92227315Y-93533587D01*
X92325381Y-92499111D01*
X92536138Y-91508168D01*
X92858381Y-90588868D01*
X93290907Y-89769319D01*
X93320986Y-89722947D01*
X93726174Y-89185538D01*
X94229164Y-88641152D01*
X94785923Y-88130471D01*
X95352422Y-87694176D01*
X95839663Y-87395887D01*
X96862052Y-86958034D01*
X97968573Y-86661226D01*
X99149354Y-86505662D01*
X100394524Y-86491542D01*
X101694211Y-86619066D01*
X103038545Y-86888433D01*
X104201896Y-87226726D01*
X104671412Y-87389179D01*
X105010929Y-87525667D01*
X105254387Y-87652611D01*
X105435731Y-87786429D01*
X105514229Y-87861575D01*
X105799667Y-88156072D01*
X105799667Y-92038077D01*
X105246077Y-92591667D01*
X104275667Y-92591667D01*
X103857612Y-92590332D01*
X103572662Y-92581282D01*
X103384585Y-92556950D01*
X103257151Y-92509768D01*
X103154132Y-92432166D01*
X103059695Y-92337667D01*
X102868052Y-92061711D01*
X102694744Y-91664921D01*
X102638252Y-91491000D01*
X102390030Y-90835176D01*
X102075988Y-90327621D01*
X101689067Y-89957790D01*
X101551736Y-89868586D01*
X101334026Y-89750839D01*
X101136397Y-89679211D01*
X100904530Y-89642584D01*
X100584107Y-89629839D01*
X100381000Y-89628940D01*
X99779256Y-89668616D01*
X99302372Y-89796983D01*
X98922450Y-90029662D01*
X98611594Y-90382275D01*
X98407375Y-90734078D01*
X98184836Y-91307398D01*
X98018717Y-92004590D01*
X97909941Y-92789545D01*
X97859430Y-93626155D01*
X97868107Y-94478312D01*
X97936895Y-95309907D01*
X98066715Y-96084832D01*
X98253600Y-96753232D01*
X98529073Y-97329660D01*
X98898865Y-97765576D01*
X99364955Y-98062406D01*
X99929320Y-98221574D01*
X100331566Y-98251772D01*
X100924299Y-98188390D01*
X101427014Y-97984815D01*
X101842842Y-97638452D01*
X102174913Y-97146706D01*
X102423107Y-96517881D01*
X102569046Y-96149889D01*
X102752728Y-95856923D01*
X102815377Y-95788519D01*
X102913648Y-95698445D01*
X103009406Y-95635145D01*
X103132970Y-95593896D01*
X103314658Y-95569976D01*
X103584789Y-95558664D01*
X103973681Y-95555236D01*
X104314670Y-95555000D01*
X104814876Y-95557530D01*
X105174060Y-95567089D01*
X105420483Y-95586625D01*
X105582409Y-95619091D01*
X105688098Y-95667435D01*
X105733944Y-95703167D01*
X105888421Y-95825029D01*
X105982605Y-95816266D01*
X106068262Y-95663443D01*
X106090496Y-95610621D01*
X106202340Y-95426930D01*
X106395991Y-95184727D01*
X106608575Y-94957827D01*
X107026948Y-94545745D01*
X106709641Y-94220793D01*
X106392333Y-93895840D01*
X106392333Y-93540318D01*
X109397827Y-93540318D01*
X109476651Y-93565127D01*
X109690526Y-93580918D01*
X110005337Y-93586191D01*
X110329161Y-93581218D01*
X110703453Y-93563861D01*
X111005945Y-93537024D01*
X111202466Y-93504590D01*
X111260667Y-93475385D01*
X111206191Y-93362707D01*
X111091333Y-93226667D01*
X110954535Y-93128514D01*
X110760839Y-93076144D01*
X110460526Y-93057919D01*
X110367818Y-93057333D01*
X110048166Y-93066641D01*
X109841673Y-93104678D01*
X109692712Y-93186618D01*
X109605818Y-93265151D01*
X109465850Y-93422735D01*
X109398815Y-93532834D01*
X109397827Y-93540318D01*
X106392333Y-93540318D01*
X106392333Y-91204072D01*
X106673012Y-90914484D01*
X106915958Y-90724407D01*
X107265646Y-90553307D01*
X107739972Y-90394646D01*
X108356829Y-90241887D01*
X108720667Y-90166394D01*
X109090375Y-90115714D01*
X109578972Y-90080731D01*
X110146955Y-90061129D01*
X110754823Y-90056586D01*
X111363073Y-90066784D01*
X111932204Y-90091404D01*
X112422713Y-90130127D01*
X112795098Y-90182633D01*
X112873579Y-90199950D01*
X113451597Y-90356698D01*
X113906630Y-90517095D01*
X114283909Y-90704196D01*
X114628665Y-90941056D01*
X114986132Y-91250728D01*
X115046244Y-91307353D01*
X115382165Y-91641092D01*
X115655130Y-91955252D01*
X115871527Y-92272294D01*
X116037748Y-92614684D01*
X116160182Y-93004884D01*
X116245221Y-93465357D01*
X116299253Y-94018568D01*
X116328670Y-94686978D01*
X116339862Y-95493053D01*
X116340667Y-95857613D01*
X116340667Y-98029650D01*
X116730490Y-98083081D01*
X117056032Y-98104969D01*
X117379809Y-98092875D01*
X117450156Y-98083768D01*
X117780000Y-98031024D01*
X117780000Y-89268975D01*
X117458907Y-89217631D01*
X117108926Y-89083407D01*
X116887407Y-88904917D01*
X116777493Y-88783736D01*
X116705616Y-88669481D01*
X116663700Y-88523924D01*
X116643672Y-88308840D01*
X116637457Y-87986003D01*
X116637000Y-87719402D01*
X116637000Y-87300000D01*
X117610667Y-87300000D01*
X117610667Y-88146667D01*
X118880667Y-88146667D01*
X118880667Y-99153333D01*
X117610667Y-99153333D01*
X117610667Y-100084667D01*
X123029333Y-100084667D01*
X123029333Y-99153333D01*
X121759333Y-99153333D01*
X121759333Y-87300000D01*
X117610667Y-87300000D01*
X116637000Y-87300000D01*
X116637000Y-86795256D01*
X116913795Y-86518461D01*
X117190590Y-86241667D01*
X122179410Y-86241667D01*
X122733000Y-86795189D01*
G36*
X69382528Y-66768768D02*
G01*
X70253226Y-66770358D01*
X70984621Y-66773529D01*
X71591728Y-66778708D01*
X72089563Y-66786322D01*
X72493139Y-66796797D01*
X72817472Y-66810559D01*
X73077576Y-66828036D01*
X73288466Y-66849654D01*
X73465157Y-66875839D01*
X73622663Y-66907019D01*
X73677277Y-66919481D01*
X74457639Y-67153491D01*
X75117715Y-67468744D01*
X75695440Y-67886150D01*
X76049228Y-68226879D01*
X76417515Y-68658080D01*
X76677936Y-69072529D01*
X76846304Y-69513717D01*
X76938435Y-70025139D01*
X76970143Y-70650287D01*
X76970667Y-70760930D01*
X76939831Y-71421100D01*
X76839833Y-71959618D01*
X76659432Y-72413952D01*
X76387390Y-72821567D01*
X76332938Y-72886906D01*
X76035231Y-73234710D01*
X76473522Y-73642188D01*
X76740847Y-73906740D01*
X76994318Y-74184040D01*
X77152906Y-74379870D01*
X77296356Y-74569998D01*
X77367572Y-74633544D01*
X77391683Y-74582467D01*
X77394000Y-74494621D01*
X77425969Y-74256264D01*
X77511133Y-73914452D01*
X77633382Y-73520230D01*
X77776601Y-73124643D01*
X77924680Y-72778737D01*
X77955319Y-72716329D01*
X78174466Y-72370155D01*
X78494224Y-71973665D01*
X78873680Y-71569521D01*
X79271921Y-71200381D01*
X79648033Y-70908908D01*
X79753976Y-70840847D01*
X80069258Y-70675084D01*
X80470118Y-70497894D01*
X80878961Y-70343108D01*
X80950000Y-70319394D01*
X81246116Y-70227744D01*
X81505125Y-70163227D01*
X81768574Y-70120904D01*
X82078010Y-70095836D01*
X82474979Y-70083083D01*
X82982000Y-70077814D01*
X83510546Y-70077747D01*
X83909877Y-70087084D01*
X84220020Y-70109760D01*
X84481003Y-70149710D01*
X84732857Y-70210871D01*
X84927198Y-70269051D01*
X85521167Y-70476930D01*
X86000865Y-70702128D01*
X86420651Y-70977388D01*
X86834884Y-71335452D01*
X87047660Y-71546303D01*
X87644653Y-72260706D01*
X88094039Y-73037185D01*
X88400691Y-73888351D01*
X88569481Y-74826812D01*
X88608497Y-75585537D01*
X88605573Y-76021807D01*
X88589873Y-76321652D01*
X88557291Y-76517759D01*
X88503722Y-76642814D01*
X88470250Y-76686204D01*
X88385311Y-76814407D01*
X88373554Y-76970036D01*
X88423311Y-77200014D01*
X88455003Y-77610773D01*
X88363902Y-78092662D01*
X88163388Y-78616161D01*
X87866842Y-79151751D01*
X87487645Y-79669910D01*
X87128047Y-80057586D01*
X86656767Y-80466374D01*
X86172375Y-80783207D01*
X85645612Y-81017995D01*
X85047219Y-81180649D01*
X84347937Y-81281080D01*
X83518507Y-81329199D01*
X83363000Y-81332879D01*
X82894950Y-81339082D01*
X82468414Y-81339309D01*
X82120971Y-81333934D01*
X81890197Y-81323331D01*
X81839000Y-81317714D01*
X81340214Y-81215046D01*
X80800362Y-81065475D01*
X80308354Y-80894675D01*
X80160005Y-80832906D01*
X79604851Y-80517003D01*
X79051693Y-80076840D01*
X78540100Y-79553269D01*
X78109641Y-78987144D01*
X77799884Y-78419318D01*
X77783035Y-78378819D01*
X77596626Y-77920169D01*
X77447563Y-78339865D01*
X77281690Y-78673211D01*
X76997767Y-79057316D01*
X76694618Y-79395291D01*
X76275877Y-79810846D01*
X75898021Y-80119146D01*
X75508991Y-80354485D01*
X75056732Y-80551157D01*
X74802704Y-80641622D01*
X74531862Y-80731672D01*
X74281634Y-80808377D01*
X74036200Y-80872806D01*
X73779741Y-80926026D01*
X73496436Y-80969108D01*
X73170465Y-81003120D01*
X72786008Y-81029130D01*
X72327244Y-81048207D01*
X71778353Y-81061419D01*
X71123515Y-81069836D01*
X70346910Y-81074526D01*
X69432717Y-81076558D01*
X68365117Y-81077000D01*
X63681361Y-81077000D01*
X63127667Y-80523410D01*
X63127667Y-78667256D01*
X63398764Y-78396158D01*
X63584327Y-78235448D01*
X63776283Y-78145579D01*
X64042721Y-78099763D01*
X64181931Y-78088021D01*
X64694000Y-78050981D01*
X64694000Y-69794352D01*
X64181931Y-69757312D01*
X63867847Y-69721437D01*
X63654872Y-69651985D01*
X63474916Y-69522167D01*
X63398764Y-69449175D01*
X63127667Y-69178077D01*
X63127667Y-68758000D01*
X64186000Y-68758000D01*
X65710000Y-68758000D01*
X65710000Y-79172000D01*
X64186000Y-79172000D01*
X64186000Y-80103333D01*
X67551500Y-80102590D01*
X68346249Y-80100256D01*
X69135525Y-80093935D01*
X69892212Y-80084128D01*
X70589196Y-80071338D01*
X71199361Y-80056064D01*
X71695593Y-80038807D01*
X72050776Y-80020070D01*
X72062484Y-80019237D01*
X73128373Y-79900505D01*
X74045166Y-79707210D01*
X74817086Y-79436667D01*
X75448358Y-79086193D01*
X75943208Y-78653103D01*
X76305859Y-78134710D01*
X76540536Y-77528332D01*
X76621583Y-77121796D01*
X76657653Y-76365386D01*
X76600608Y-76023845D01*
X78421077Y-76023845D01*
X78456958Y-76604059D01*
X78530443Y-77088983D01*
X78537471Y-77119702D01*
X78805683Y-77924130D01*
X79203221Y-78620156D01*
X79725707Y-79203288D01*
X80368766Y-79669034D01*
X81128017Y-80012900D01*
X81453828Y-80112773D01*
X81886944Y-80194585D01*
X82433085Y-80245926D01*
X83038600Y-80266192D01*
X83649835Y-80254781D01*
X84213138Y-80211091D01*
X84613510Y-80148268D01*
X85341083Y-79921294D01*
X85985504Y-79573834D01*
X86525818Y-79121558D01*
X86941075Y-78580135D01*
X87087754Y-78297829D01*
X87250078Y-77932332D01*
X87336704Y-77695602D01*
X87336227Y-77559750D01*
X87237240Y-77496889D01*
X87028338Y-77479130D01*
X86752715Y-77478667D01*
X86373856Y-77490940D01*
X86152212Y-77528849D01*
X86079007Y-77584500D01*
X85836353Y-78231589D01*
X85516878Y-78730855D01*
X85110958Y-79089905D01*
X84608966Y-79316349D01*
X84001277Y-79417792D01*
X83750084Y-79425173D01*
X83173657Y-79362735D01*
X82674057Y-79185247D01*
X82278332Y-78904745D01*
X82101731Y-78691587D01*
X81901593Y-78284911D01*
X81738772Y-77738435D01*
X81657738Y-77286991D01*
X82740428Y-77286991D01*
X82791075Y-77495248D01*
X82884562Y-77741559D01*
X83000390Y-77971392D01*
X83111035Y-78123399D01*
X83285426Y-78254582D01*
X83505834Y-78314310D01*
X83744356Y-78325333D01*
X84054942Y-78298628D01*
X84339307Y-78231170D01*
X84431985Y-78192825D01*
X84675426Y-77981273D01*
X84891743Y-77621325D01*
X85095258Y-77182333D01*
X83942316Y-77158701D01*
X83518749Y-77152589D01*
X83159702Y-77152272D01*
X82897175Y-77157413D01*
X82763167Y-77167671D01*
X82753122Y-77171322D01*
X82740428Y-77286991D01*
X81657738Y-77286991D01*
X81620399Y-77078979D01*
X81582166Y-76737833D01*
X81525481Y-76124000D01*
X87653551Y-76124000D01*
X87607305Y-75806500D01*
X87569464Y-75531546D01*
X87525523Y-75191356D01*
X87504794Y-75023333D01*
X87337275Y-74210614D01*
X87045609Y-73449573D01*
X86645296Y-72766073D01*
X86151836Y-72185976D01*
X85580730Y-71735146D01*
X85507541Y-71690859D01*
X85020859Y-71467976D01*
X84423419Y-71291776D01*
X83770350Y-71174963D01*
X83116784Y-71130243D01*
X83074290Y-71130137D01*
X82110254Y-71198539D01*
X81244251Y-71397027D01*
X80481824Y-71721650D01*
X79828518Y-72168459D01*
X79289878Y-72733504D01*
X78871448Y-73412836D01*
X78578772Y-74202505D01*
X78538749Y-74360820D01*
X78462002Y-74837289D01*
X78422768Y-75413276D01*
X78421077Y-76023845D01*
X76600608Y-76023845D01*
X76544504Y-75687940D01*
X76283676Y-75091309D01*
X75876706Y-74577346D01*
X75325134Y-74147903D01*
X74630498Y-73804833D01*
X73794336Y-73549989D01*
X73623653Y-73512536D01*
X73271216Y-73438180D01*
X73067474Y-73388471D01*
X72995178Y-73354348D01*
X73037081Y-73326745D01*
X73175932Y-73296599D01*
X73203000Y-73291496D01*
X74019274Y-73089458D01*
X74684605Y-72816553D01*
X75203245Y-72469657D01*
X75579443Y-72045643D01*
X75817450Y-71541386D01*
X75872453Y-71328515D01*
X75929960Y-70661124D01*
X75830744Y-70019985D01*
X75586091Y-69428857D01*
X75207288Y-68911500D01*
X74705622Y-68491674D01*
X74456595Y-68347894D01*
X74260187Y-68249693D01*
X74076432Y-68166281D01*
X73889998Y-68096339D01*
X73685554Y-68038548D01*
X73447769Y-67991591D01*
X73161311Y-67954149D01*
X72810848Y-67924903D01*
X72381049Y-67902536D01*
X71856583Y-67885729D01*
X71222117Y-67873163D01*
X70462321Y-67863521D01*
X69561863Y-67855483D01*
X68652167Y-67848771D01*
X64186000Y-67817099D01*
X64186000Y-68758000D01*
X63127667Y-68758000D01*
X63127667Y-67321923D01*
X63681361Y-66768333D01*
X68357514Y-66768333D01*
X69382528Y-66768768D01*
G37*
X69382528Y-66768768D02*
X70253226Y-66770358D01*
X70984621Y-66773529D01*
X71591728Y-66778708D01*
X72089563Y-66786322D01*
X72493139Y-66796797D01*
X72817472Y-66810559D01*
X73077576Y-66828036D01*
X73288466Y-66849654D01*
X73465157Y-66875839D01*
X73622663Y-66907019D01*
X73677277Y-66919481D01*
X74457639Y-67153491D01*
X75117715Y-67468744D01*
X75695440Y-67886150D01*
X76049228Y-68226879D01*
X76417515Y-68658080D01*
X76677936Y-69072529D01*
X76846304Y-69513717D01*
X76938435Y-70025139D01*
X76970143Y-70650287D01*
X76970667Y-70760930D01*
X76939831Y-71421100D01*
X76839833Y-71959618D01*
X76659432Y-72413952D01*
X76387390Y-72821567D01*
X76332938Y-72886906D01*
X76035231Y-73234710D01*
X76473522Y-73642188D01*
X76740847Y-73906740D01*
X76994318Y-74184040D01*
X77152906Y-74379870D01*
X77296356Y-74569998D01*
X77367572Y-74633544D01*
X77391683Y-74582467D01*
X77394000Y-74494621D01*
X77425969Y-74256264D01*
X77511133Y-73914452D01*
X77633382Y-73520230D01*
X77776601Y-73124643D01*
X77924680Y-72778737D01*
X77955319Y-72716329D01*
X78174466Y-72370155D01*
X78494224Y-71973665D01*
X78873680Y-71569521D01*
X79271921Y-71200381D01*
X79648033Y-70908908D01*
X79753976Y-70840847D01*
X80069258Y-70675084D01*
X80470118Y-70497894D01*
X80878961Y-70343108D01*
X80950000Y-70319394D01*
X81246116Y-70227744D01*
X81505125Y-70163227D01*
X81768574Y-70120904D01*
X82078010Y-70095836D01*
X82474979Y-70083083D01*
X82982000Y-70077814D01*
X83510546Y-70077747D01*
X83909877Y-70087084D01*
X84220020Y-70109760D01*
X84481003Y-70149710D01*
X84732857Y-70210871D01*
X84927198Y-70269051D01*
X85521167Y-70476930D01*
X86000865Y-70702128D01*
X86420651Y-70977388D01*
X86834884Y-71335452D01*
X87047660Y-71546303D01*
X87644653Y-72260706D01*
X88094039Y-73037185D01*
X88400691Y-73888351D01*
X88569481Y-74826812D01*
X88608497Y-75585537D01*
X88605573Y-76021807D01*
X88589873Y-76321652D01*
X88557291Y-76517759D01*
X88503722Y-76642814D01*
X88470250Y-76686204D01*
X88385311Y-76814407D01*
X88373554Y-76970036D01*
X88423311Y-77200014D01*
X88455003Y-77610773D01*
X88363902Y-78092662D01*
X88163388Y-78616161D01*
X87866842Y-79151751D01*
X87487645Y-79669910D01*
X87128047Y-80057586D01*
X86656767Y-80466374D01*
X86172375Y-80783207D01*
X85645612Y-81017995D01*
X85047219Y-81180649D01*
X84347937Y-81281080D01*
X83518507Y-81329199D01*
X83363000Y-81332879D01*
X82894950Y-81339082D01*
X82468414Y-81339309D01*
X82120971Y-81333934D01*
X81890197Y-81323331D01*
X81839000Y-81317714D01*
X81340214Y-81215046D01*
X80800362Y-81065475D01*
X80308354Y-80894675D01*
X80160005Y-80832906D01*
X79604851Y-80517003D01*
X79051693Y-80076840D01*
X78540100Y-79553269D01*
X78109641Y-78987144D01*
X77799884Y-78419318D01*
X77783035Y-78378819D01*
X77596626Y-77920169D01*
X77447563Y-78339865D01*
X77281690Y-78673211D01*
X76997767Y-79057316D01*
X76694618Y-79395291D01*
X76275877Y-79810846D01*
X75898021Y-80119146D01*
X75508991Y-80354485D01*
X75056732Y-80551157D01*
X74802704Y-80641622D01*
X74531862Y-80731672D01*
X74281634Y-80808377D01*
X74036200Y-80872806D01*
X73779741Y-80926026D01*
X73496436Y-80969108D01*
X73170465Y-81003120D01*
X72786008Y-81029130D01*
X72327244Y-81048207D01*
X71778353Y-81061419D01*
X71123515Y-81069836D01*
X70346910Y-81074526D01*
X69432717Y-81076558D01*
X68365117Y-81077000D01*
X63681361Y-81077000D01*
X63127667Y-80523410D01*
X63127667Y-78667256D01*
X63398764Y-78396158D01*
X63584327Y-78235448D01*
X63776283Y-78145579D01*
X64042721Y-78099763D01*
X64181931Y-78088021D01*
X64694000Y-78050981D01*
X64694000Y-69794352D01*
X64181931Y-69757312D01*
X63867847Y-69721437D01*
X63654872Y-69651985D01*
X63474916Y-69522167D01*
X63398764Y-69449175D01*
X63127667Y-69178077D01*
X63127667Y-68758000D01*
X64186000Y-68758000D01*
X65710000Y-68758000D01*
X65710000Y-79172000D01*
X64186000Y-79172000D01*
X64186000Y-80103333D01*
X67551500Y-80102590D01*
X68346249Y-80100256D01*
X69135525Y-80093935D01*
X69892212Y-80084128D01*
X70589196Y-80071338D01*
X71199361Y-80056064D01*
X71695593Y-80038807D01*
X72050776Y-80020070D01*
X72062484Y-80019237D01*
X73128373Y-79900505D01*
X74045166Y-79707210D01*
X74817086Y-79436667D01*
X75448358Y-79086193D01*
X75943208Y-78653103D01*
X76305859Y-78134710D01*
X76540536Y-77528332D01*
X76621583Y-77121796D01*
X76657653Y-76365386D01*
X76600608Y-76023845D01*
X78421077Y-76023845D01*
X78456958Y-76604059D01*
X78530443Y-77088983D01*
X78537471Y-77119702D01*
X78805683Y-77924130D01*
X79203221Y-78620156D01*
X79725707Y-79203288D01*
X80368766Y-79669034D01*
X81128017Y-80012900D01*
X81453828Y-80112773D01*
X81886944Y-80194585D01*
X82433085Y-80245926D01*
X83038600Y-80266192D01*
X83649835Y-80254781D01*
X84213138Y-80211091D01*
X84613510Y-80148268D01*
X85341083Y-79921294D01*
X85985504Y-79573834D01*
X86525818Y-79121558D01*
X86941075Y-78580135D01*
X87087754Y-78297829D01*
X87250078Y-77932332D01*
X87336704Y-77695602D01*
X87336227Y-77559750D01*
X87237240Y-77496889D01*
X87028338Y-77479130D01*
X86752715Y-77478667D01*
X86373856Y-77490940D01*
X86152212Y-77528849D01*
X86079007Y-77584500D01*
X85836353Y-78231589D01*
X85516878Y-78730855D01*
X85110958Y-79089905D01*
X84608966Y-79316349D01*
X84001277Y-79417792D01*
X83750084Y-79425173D01*
X83173657Y-79362735D01*
X82674057Y-79185247D01*
X82278332Y-78904745D01*
X82101731Y-78691587D01*
X81901593Y-78284911D01*
X81738772Y-77738435D01*
X81657738Y-77286991D01*
X82740428Y-77286991D01*
X82791075Y-77495248D01*
X82884562Y-77741559D01*
X83000390Y-77971392D01*
X83111035Y-78123399D01*
X83285426Y-78254582D01*
X83505834Y-78314310D01*
X83744356Y-78325333D01*
X84054942Y-78298628D01*
X84339307Y-78231170D01*
X84431985Y-78192825D01*
X84675426Y-77981273D01*
X84891743Y-77621325D01*
X85095258Y-77182333D01*
X83942316Y-77158701D01*
X83518749Y-77152589D01*
X83159702Y-77152272D01*
X82897175Y-77157413D01*
X82763167Y-77167671D01*
X82753122Y-77171322D01*
X82740428Y-77286991D01*
X81657738Y-77286991D01*
X81620399Y-77078979D01*
X81582166Y-76737833D01*
X81525481Y-76124000D01*
X87653551Y-76124000D01*
X87607305Y-75806500D01*
X87569464Y-75531546D01*
X87525523Y-75191356D01*
X87504794Y-75023333D01*
X87337275Y-74210614D01*
X87045609Y-73449573D01*
X86645296Y-72766073D01*
X86151836Y-72185976D01*
X85580730Y-71735146D01*
X85507541Y-71690859D01*
X85020859Y-71467976D01*
X84423419Y-71291776D01*
X83770350Y-71174963D01*
X83116784Y-71130243D01*
X83074290Y-71130137D01*
X82110254Y-71198539D01*
X81244251Y-71397027D01*
X80481824Y-71721650D01*
X79828518Y-72168459D01*
X79289878Y-72733504D01*
X78871448Y-73412836D01*
X78578772Y-74202505D01*
X78538749Y-74360820D01*
X78462002Y-74837289D01*
X78422768Y-75413276D01*
X78421077Y-76023845D01*
X76600608Y-76023845D01*
X76544504Y-75687940D01*
X76283676Y-75091309D01*
X75876706Y-74577346D01*
X75325134Y-74147903D01*
X74630498Y-73804833D01*
X73794336Y-73549989D01*
X73623653Y-73512536D01*
X73271216Y-73438180D01*
X73067474Y-73388471D01*
X72995178Y-73354348D01*
X73037081Y-73326745D01*
X73175932Y-73296599D01*
X73203000Y-73291496D01*
X74019274Y-73089458D01*
X74684605Y-72816553D01*
X75203245Y-72469657D01*
X75579443Y-72045643D01*
X75817450Y-71541386D01*
X75872453Y-71328515D01*
X75929960Y-70661124D01*
X75830744Y-70019985D01*
X75586091Y-69428857D01*
X75207288Y-68911500D01*
X74705622Y-68491674D01*
X74456595Y-68347894D01*
X74260187Y-68249693D01*
X74076432Y-68166281D01*
X73889998Y-68096339D01*
X73685554Y-68038548D01*
X73447769Y-67991591D01*
X73161311Y-67954149D01*
X72810848Y-67924903D01*
X72381049Y-67902536D01*
X71856583Y-67885729D01*
X71222117Y-67873163D01*
X70462321Y-67863521D01*
X69561863Y-67855483D01*
X68652167Y-67848771D01*
X64186000Y-67817099D01*
X64186000Y-68758000D01*
X63127667Y-68758000D01*
X63127667Y-67321923D01*
X63681361Y-66768333D01*
X68357514Y-66768333D01*
X69382528Y-66768768D01*
G36*
X112755750Y-66263725D02*
G01*
X113171751Y-66359272D01*
X113565864Y-66560538D01*
X113963561Y-66878239D01*
X114320007Y-67266548D01*
X114590365Y-67679636D01*
X114689381Y-67910473D01*
X114800052Y-68460040D01*
X114800902Y-69057541D01*
X114696279Y-69634816D01*
X114555878Y-70004129D01*
X114338728Y-70442910D01*
X114556531Y-70660642D01*
X114774333Y-70878373D01*
X114798115Y-74463703D01*
X114821896Y-78049033D01*
X115209105Y-78102106D01*
X115534390Y-78123785D01*
X115858145Y-78111308D01*
X115926156Y-78102435D01*
X116256000Y-78049691D01*
X116256000Y-73351642D01*
X115934907Y-73300297D01*
X115584926Y-73166073D01*
X115363407Y-72987583D01*
X115253493Y-72866403D01*
X115181616Y-72752147D01*
X115139700Y-72606591D01*
X115119672Y-72391507D01*
X115113457Y-72068669D01*
X115113000Y-71802069D01*
X115113000Y-71382667D01*
X116086667Y-71382667D01*
X116086667Y-72314000D01*
X117356667Y-72314000D01*
X117356667Y-79172000D01*
X116086667Y-79172000D01*
X116086667Y-80103333D01*
X121251333Y-80103333D01*
X121251333Y-79172000D01*
X120224444Y-79172000D01*
X120238063Y-78056907D01*
X121231120Y-78056907D01*
X121431727Y-78094923D01*
X121663618Y-78134516D01*
X121811218Y-78139905D01*
X121955844Y-78112207D01*
X121992167Y-78102636D01*
X122182667Y-78051584D01*
X122182667Y-76040042D01*
X122181041Y-75311231D01*
X122174993Y-74734473D01*
X122162768Y-74292509D01*
X122142607Y-73968080D01*
X122112756Y-73743925D01*
X122071458Y-73602787D01*
X122016956Y-73527406D01*
X121947496Y-73500522D01*
X121924131Y-73499333D01*
X121757077Y-73528618D01*
X121621513Y-73626496D01*
X121513853Y-73807999D01*
X121430512Y-74088161D01*
X121367904Y-74482014D01*
X121322443Y-75004590D01*
X121290544Y-75670925D01*
X121274560Y-76222620D01*
X121231120Y-78056907D01*
X120238063Y-78056907D01*
X120256759Y-76526167D01*
X120270910Y-75630013D01*
X120289581Y-74898209D01*
X120313001Y-74325826D01*
X120341397Y-73907934D01*
X120375001Y-73639605D01*
X120394837Y-73556841D01*
X120603158Y-73133243D01*
X120904000Y-72799458D01*
X121268765Y-72561427D01*
X121668855Y-72425092D01*
X122075673Y-72396396D01*
X122460620Y-72481280D01*
X122795098Y-72685687D01*
X123045512Y-73006095D01*
X123097965Y-73108867D01*
X123140293Y-73212651D01*
X123173782Y-73336325D01*
X123199718Y-73498766D01*
X123219389Y-73718851D01*
X123234080Y-74015458D01*
X123245079Y-74407462D01*
X123253671Y-74913743D01*
X123261144Y-75553175D01*
X123268106Y-76272167D01*
X123295213Y-79172000D01*
X122182667Y-79172000D01*
X122182667Y-80103333D01*
X127347333Y-80103333D01*
X127347333Y-79172000D01*
X126162000Y-79172000D01*
X126160533Y-76949500D01*
X126156818Y-76300658D01*
X126147160Y-75660911D01*
X126132521Y-75064266D01*
X126113859Y-74544731D01*
X126092135Y-74136316D01*
X126075342Y-73932085D01*
X125936445Y-73145307D01*
X125697639Y-72494113D01*
X125355341Y-71974819D01*
X124905969Y-71583743D01*
X124345938Y-71317202D01*
X123671668Y-71171514D01*
X123364797Y-71146031D01*
X122587412Y-71161079D01*
X121917020Y-71295541D01*
X121333460Y-71557007D01*
X120816571Y-71953065D01*
X120588090Y-72191088D01*
X120235333Y-72591840D01*
X120235333Y-71382667D01*
X116086667Y-71382667D01*
X115113000Y-71382667D01*
X115113000Y-70877923D01*
X115666334Y-70324333D01*
X118056667Y-70302407D01*
X118811340Y-70297453D01*
X119412855Y-70298301D01*
X119877307Y-70305491D01*
X120220789Y-70319565D01*
X120459397Y-70341062D01*
X120609224Y-70370523D01*
X120658667Y-70389823D01*
X120794018Y-70441006D01*
X120944731Y-70441355D01*
X121160134Y-70384411D01*
X121420667Y-70290044D01*
X121677904Y-70200273D01*
X121919662Y-70139792D01*
X122190646Y-70102795D01*
X122535560Y-70083477D01*
X122999108Y-70076032D01*
X123071667Y-70075628D01*
X123757437Y-70090277D01*
X124313336Y-70149380D01*
X124775635Y-70264662D01*
X125180601Y-70447849D01*
X125564505Y-70710665D01*
X125877005Y-70982545D01*
X126204578Y-71305965D01*
X126473064Y-71618571D01*
X126688157Y-71941397D01*
X126855550Y-72295480D01*
X126980936Y-72701856D01*
X127070009Y-73181561D01*
X127128461Y-73755631D01*
X127161985Y-74445102D01*
X127176276Y-75271010D01*
X127178000Y-75789614D01*
X127178000Y-78052807D01*
X127474655Y-78087440D01*
X127671864Y-78096353D01*
X127740119Y-78050509D01*
X127733694Y-77990870D01*
X127688388Y-77832553D01*
X127618407Y-77587737D01*
X127587246Y-77478667D01*
X127531837Y-77174840D01*
X127494681Y-76743602D01*
X127475285Y-76225831D01*
X127473540Y-75763147D01*
X128548956Y-75763147D01*
X128555761Y-76291649D01*
X128587052Y-76751914D01*
X128613522Y-76948073D01*
X128828553Y-77765250D01*
X129177551Y-78492959D01*
X129650424Y-79118816D01*
X130237079Y-79630438D01*
X130927427Y-80015439D01*
X131198561Y-80120371D01*
X131614928Y-80216287D01*
X132130315Y-80264856D01*
X132681107Y-80265883D01*
X133203687Y-80219171D01*
X133624111Y-80127856D01*
X133956123Y-79986583D01*
X134274754Y-79766024D01*
X134565167Y-79499629D01*
X135052000Y-79016213D01*
X135052000Y-80103333D01*
X139200667Y-80103333D01*
X139200667Y-79172000D01*
X137930667Y-79172000D01*
X137930667Y-67318667D01*
X133782000Y-67318667D01*
X133782000Y-68165333D01*
X135052000Y-68165333D01*
X135052000Y-72438091D01*
X134675096Y-72007234D01*
X134263877Y-71622920D01*
X133795270Y-71359954D01*
X133236417Y-71203878D01*
X132720243Y-71147239D01*
X131862658Y-71172029D01*
X131087304Y-71344026D01*
X130399302Y-71659677D01*
X129803774Y-72115432D01*
X129305841Y-72707738D01*
X128910625Y-73433043D01*
X128730165Y-73914248D01*
X128657242Y-74241958D01*
X128601518Y-74690927D01*
X128564816Y-75213782D01*
X128548956Y-75763147D01*
X127473540Y-75763147D01*
X127473160Y-75662410D01*
X127487813Y-75094218D01*
X127518755Y-74562137D01*
X127565494Y-74107046D01*
X127627538Y-73769826D01*
X127631986Y-73753333D01*
X127920419Y-72931317D01*
X128306857Y-72220647D01*
X128813230Y-71581387D01*
X128841109Y-71551622D01*
X129329497Y-71077459D01*
X129801177Y-70722253D01*
X130309403Y-70450756D01*
X130776333Y-70270733D01*
X131069846Y-70180967D01*
X131349238Y-70122064D01*
X131663837Y-70088037D01*
X132062971Y-70072899D01*
X132427333Y-70070333D01*
X132896619Y-70078819D01*
X133305362Y-70102293D01*
X133614440Y-70137780D01*
X133760833Y-70171762D01*
X134036000Y-70273191D01*
X134036000Y-69288296D01*
X133684073Y-69241092D01*
X133301124Y-69112537D01*
X133070239Y-68931983D01*
X132955676Y-68812164D01*
X132880605Y-68701609D01*
X132836679Y-68562394D01*
X132815551Y-68356597D01*
X132808876Y-68046294D01*
X132808333Y-67742000D01*
X132808333Y-66813923D01*
X133361923Y-66260333D01*
X138435410Y-66260333D01*
X138712205Y-66537095D01*
X138989000Y-66813856D01*
X139011919Y-72432054D01*
X139034838Y-78050251D01*
X139354178Y-78101316D01*
X139700465Y-78234122D01*
X139923926Y-78413750D01*
X140033840Y-78534930D01*
X140105717Y-78649186D01*
X140147633Y-78794742D01*
X140167661Y-79009826D01*
X140173876Y-79332664D01*
X140174333Y-79599264D01*
X140174333Y-80523410D01*
X139621005Y-81077000D01*
X137269177Y-81101853D01*
X136645203Y-81105753D01*
X136068820Y-81104244D01*
X135564054Y-81097793D01*
X135154935Y-81086868D01*
X134865490Y-81071937D01*
X134719747Y-81053468D01*
X134715787Y-81052144D01*
X134505778Y-81028765D01*
X134214990Y-81098198D01*
X134084613Y-81146330D01*
X133686815Y-81254700D01*
X133174386Y-81324873D01*
X132597905Y-81355797D01*
X132007951Y-81346420D01*
X131455103Y-81295690D01*
X131017376Y-81210149D01*
X130478212Y-81041857D01*
X130035847Y-80842709D01*
X129632473Y-80579324D01*
X129210280Y-80218318D01*
X129072310Y-80086957D01*
X128468953Y-79502366D01*
X128431613Y-80018585D01*
X128396018Y-80333354D01*
X128327769Y-80546359D01*
X128200441Y-80725054D01*
X128123187Y-80805902D01*
X127852102Y-81077000D01*
X116513440Y-81097993D01*
X114916144Y-81100360D01*
X113413282Y-81101400D01*
X112011347Y-81101146D01*
X110716833Y-81099630D01*
X109536234Y-81096886D01*
X108476044Y-81092946D01*
X107542756Y-81087842D01*
X106742865Y-81081606D01*
X106082863Y-81074273D01*
X105569245Y-81065873D01*
X105208505Y-81056441D01*
X105007136Y-81046008D01*
X104967137Y-81040041D01*
X104861383Y-80960286D01*
X104657039Y-80770356D01*
X104369179Y-80485595D01*
X104012880Y-80121341D01*
X103603215Y-79692938D01*
X103155261Y-79215725D01*
X102845414Y-78880886D01*
X100931333Y-76800677D01*
X100931333Y-78050981D01*
X101443402Y-78088021D01*
X101757486Y-78123896D01*
X101970461Y-78193348D01*
X102150417Y-78323166D01*
X102226569Y-78396158D01*
X102497667Y-78667256D01*
X102497667Y-80523410D01*
X101944077Y-81077000D01*
X94669256Y-81077000D01*
X94392461Y-80800205D01*
X94115667Y-80523410D01*
X94115667Y-78667256D01*
X94386764Y-78396158D01*
X94572327Y-78235448D01*
X94764283Y-78145579D01*
X95030721Y-78099763D01*
X95169931Y-78088021D01*
X95682000Y-78050981D01*
X95682000Y-69794352D01*
X95169931Y-69757312D01*
X94855847Y-69721437D01*
X94642872Y-69651985D01*
X94462916Y-69522167D01*
X94386764Y-69449175D01*
X94115667Y-69178077D01*
X94115667Y-67826667D01*
X95174000Y-67826667D01*
X95174000Y-68758000D01*
X96698000Y-68758000D01*
X96698000Y-79172000D01*
X95174000Y-79172000D01*
X95174000Y-80103333D01*
X101439333Y-80103333D01*
X101439333Y-79172000D01*
X99830667Y-79172000D01*
X99830667Y-76632000D01*
X99832696Y-75996079D01*
X99838439Y-75418807D01*
X99847380Y-74920810D01*
X99859000Y-74522717D01*
X99872784Y-74245156D01*
X99888214Y-74108753D01*
X99894167Y-74098183D01*
X99962292Y-74160048D01*
X100133044Y-74335009D01*
X100395084Y-74610917D01*
X100737072Y-74975627D01*
X101147669Y-75416991D01*
X101615536Y-75922861D01*
X102129334Y-76481092D01*
X102677723Y-77079536D01*
X102699954Y-77103849D01*
X105442241Y-80103333D01*
X109567333Y-80103333D01*
X109567333Y-79172000D01*
X108953500Y-79169745D01*
X108339667Y-79167491D01*
X105334000Y-75902930D01*
X104758289Y-75276479D01*
X104218766Y-74687180D01*
X103726072Y-74146809D01*
X103290850Y-73667146D01*
X102923741Y-73259967D01*
X102635386Y-72937052D01*
X102436428Y-72710177D01*
X102337507Y-72591122D01*
X102328333Y-72576303D01*
X102390184Y-72508292D01*
X102565870Y-72343342D01*
X102840594Y-72094636D01*
X103199557Y-71775360D01*
X103627962Y-71398697D01*
X104111009Y-70977832D01*
X104506036Y-70636119D01*
X106683738Y-68758000D01*
X108382000Y-68758000D01*
X108382000Y-67826667D01*
X103810000Y-67826667D01*
X103810000Y-68751152D01*
X104473040Y-68775742D01*
X105136080Y-68800333D01*
X102585615Y-70995808D01*
X102023374Y-71478475D01*
X101498976Y-71926126D01*
X101026734Y-72326731D01*
X100620962Y-72668259D01*
X100295974Y-72938679D01*
X100066083Y-73125962D01*
X99945602Y-73218077D01*
X99932908Y-73225364D01*
X99900643Y-73196314D01*
X99875366Y-73075782D01*
X99856428Y-72849664D01*
X99843177Y-72503860D01*
X99834964Y-72024268D01*
X99831138Y-71396787D01*
X99830667Y-71008722D01*
X99830667Y-68758000D01*
X101439333Y-68758000D01*
X101439333Y-67826667D01*
X95174000Y-67826667D01*
X94115667Y-67826667D01*
X94115667Y-67321923D01*
X94392461Y-67045128D01*
X94669256Y-66768333D01*
X101859844Y-66768333D01*
X102178755Y-67087244D01*
X102497667Y-67406155D01*
X102497667Y-68292116D01*
X102496064Y-68688581D01*
X102485084Y-68955224D01*
X102455470Y-69131558D01*
X102397963Y-69257094D01*
X102303307Y-69371344D01*
X102226569Y-69449175D01*
X102041006Y-69609885D01*
X101849050Y-69699754D01*
X101582612Y-69745570D01*
X101443402Y-69757312D01*
X100931333Y-69794352D01*
X100931333Y-70980012D01*
X101502833Y-70485408D01*
X101819418Y-70211613D01*
X102141113Y-69933713D01*
X102407637Y-69703776D01*
X102450587Y-69666775D01*
X102826840Y-69342745D01*
X102831587Y-68332576D01*
X102836333Y-67322407D01*
X103389923Y-66768333D01*
X108802077Y-66768333D01*
X109355667Y-67321923D01*
X109355667Y-69178077D01*
X109079006Y-69454872D01*
X108943168Y-69583098D01*
X108817198Y-69665603D01*
X108658430Y-69714335D01*
X108424195Y-69741245D01*
X108071828Y-69758281D01*
X107984061Y-69761532D01*
X107165776Y-69791398D01*
X105530221Y-71198310D01*
X105086217Y-71582856D01*
X104688015Y-71932740D01*
X104352760Y-72232491D01*
X104097593Y-72466634D01*
X103939658Y-72619698D01*
X103894667Y-72674526D01*
X103950366Y-72749390D01*
X104109589Y-72935132D01*
X104360524Y-73218648D01*
X104691359Y-73586834D01*
X105090281Y-74026587D01*
X105545479Y-74524802D01*
X106045140Y-75068377D01*
X106358348Y-75407582D01*
X108822030Y-78071333D01*
X109821333Y-78071333D01*
X109821333Y-73351642D01*
X109500241Y-73300297D01*
X109150259Y-73166073D01*
X108928741Y-72987583D01*
X108818827Y-72866403D01*
X108746949Y-72752147D01*
X108705033Y-72606591D01*
X108685005Y-72391507D01*
X108678790Y-72068669D01*
X108678333Y-71802069D01*
X108679795Y-71395757D01*
X108680272Y-71382667D01*
X109652000Y-71382667D01*
X109652000Y-72314000D01*
X110922000Y-72314000D01*
X110922000Y-79172000D01*
X109652000Y-79172000D01*
X109652000Y-80103333D01*
X115070667Y-80103333D01*
X115070667Y-79172000D01*
X113800667Y-79172000D01*
X113800667Y-71382667D01*
X109652000Y-71382667D01*
X108680272Y-71382667D01*
X108689839Y-71120674D01*
X108716952Y-70938717D01*
X108769625Y-70811780D01*
X108856344Y-70701759D01*
X108943201Y-70613055D01*
X109233996Y-70398386D01*
X109584146Y-70305798D01*
X109960224Y-70263409D01*
X109794392Y-69928233D01*
X109650536Y-69496411D01*
X109584673Y-68981323D01*
X109593396Y-68684536D01*
X110674831Y-68684536D01*
X110703563Y-69117068D01*
X110849863Y-69526028D01*
X111100398Y-69882890D01*
X111441834Y-70159126D01*
X111860836Y-70326210D01*
X112192000Y-70362948D01*
X112461790Y-70326302D01*
X112763972Y-70235241D01*
X112836829Y-70204689D01*
X113251269Y-69934110D01*
X113531932Y-69559808D01*
X113678429Y-69082375D01*
X113697645Y-68896003D01*
X113704900Y-68579721D01*
X113668259Y-68352252D01*
X113568790Y-68134925D01*
X113479596Y-67989899D01*
X113167236Y-67626447D01*
X112780766Y-67406994D01*
X112299736Y-67320847D01*
X112196166Y-67318667D01*
X111754622Y-67366279D01*
X111393692Y-67526091D01*
X111058508Y-67823561D01*
X111023411Y-67862865D01*
X110777003Y-68256959D01*
X110674831Y-68684536D01*
X109593396Y-68684536D01*
X109600239Y-68451735D01*
X109697402Y-67986159D01*
X109884712Y-67596872D01*
X110174920Y-67194940D01*
X110527186Y-66823622D01*
X110900671Y-66526176D01*
X111242003Y-66350033D01*
X111695186Y-66252235D01*
X112225520Y-66223589D01*
X112755750Y-66263725D01*
G37*
X112755750Y-66263725D02*
X113171751Y-66359272D01*
X113565864Y-66560538D01*
X113963561Y-66878239D01*
X114320007Y-67266548D01*
X114590365Y-67679636D01*
X114689381Y-67910473D01*
X114800052Y-68460040D01*
X114800902Y-69057541D01*
X114696279Y-69634816D01*
X114555878Y-70004129D01*
X114338728Y-70442910D01*
X114556531Y-70660642D01*
X114774333Y-70878373D01*
X114798115Y-74463703D01*
X114821896Y-78049033D01*
X115209105Y-78102106D01*
X115534390Y-78123785D01*
X115858145Y-78111308D01*
X115926156Y-78102435D01*
X116256000Y-78049691D01*
X116256000Y-73351642D01*
X115934907Y-73300297D01*
X115584926Y-73166073D01*
X115363407Y-72987583D01*
X115253493Y-72866403D01*
X115181616Y-72752147D01*
X115139700Y-72606591D01*
X115119672Y-72391507D01*
X115113457Y-72068669D01*
X115113000Y-71802069D01*
X115113000Y-71382667D01*
X116086667Y-71382667D01*
X116086667Y-72314000D01*
X117356667Y-72314000D01*
X117356667Y-79172000D01*
X116086667Y-79172000D01*
X116086667Y-80103333D01*
X121251333Y-80103333D01*
X121251333Y-79172000D01*
X120224444Y-79172000D01*
X120238063Y-78056907D01*
X121231120Y-78056907D01*
X121431727Y-78094923D01*
X121663618Y-78134516D01*
X121811218Y-78139905D01*
X121955844Y-78112207D01*
X121992167Y-78102636D01*
X122182667Y-78051584D01*
X122182667Y-76040042D01*
X122181041Y-75311231D01*
X122174993Y-74734473D01*
X122162768Y-74292509D01*
X122142607Y-73968080D01*
X122112756Y-73743925D01*
X122071458Y-73602787D01*
X122016956Y-73527406D01*
X121947496Y-73500522D01*
X121924131Y-73499333D01*
X121757077Y-73528618D01*
X121621513Y-73626496D01*
X121513853Y-73807999D01*
X121430512Y-74088161D01*
X121367904Y-74482014D01*
X121322443Y-75004590D01*
X121290544Y-75670925D01*
X121274560Y-76222620D01*
X121231120Y-78056907D01*
X120238063Y-78056907D01*
X120256759Y-76526167D01*
X120270910Y-75630013D01*
X120289581Y-74898209D01*
X120313001Y-74325826D01*
X120341397Y-73907934D01*
X120375001Y-73639605D01*
X120394837Y-73556841D01*
X120603158Y-73133243D01*
X120904000Y-72799458D01*
X121268765Y-72561427D01*
X121668855Y-72425092D01*
X122075673Y-72396396D01*
X122460620Y-72481280D01*
X122795098Y-72685687D01*
X123045512Y-73006095D01*
X123097965Y-73108867D01*
X123140293Y-73212651D01*
X123173782Y-73336325D01*
X123199718Y-73498766D01*
X123219389Y-73718851D01*
X123234080Y-74015458D01*
X123245079Y-74407462D01*
X123253671Y-74913743D01*
X123261144Y-75553175D01*
X123268106Y-76272167D01*
X123295213Y-79172000D01*
X122182667Y-79172000D01*
X122182667Y-80103333D01*
X127347333Y-80103333D01*
X127347333Y-79172000D01*
X126162000Y-79172000D01*
X126160533Y-76949500D01*
X126156818Y-76300658D01*
X126147160Y-75660911D01*
X126132521Y-75064266D01*
X126113859Y-74544731D01*
X126092135Y-74136316D01*
X126075342Y-73932085D01*
X125936445Y-73145307D01*
X125697639Y-72494113D01*
X125355341Y-71974819D01*
X124905969Y-71583743D01*
X124345938Y-71317202D01*
X123671668Y-71171514D01*
X123364797Y-71146031D01*
X122587412Y-71161079D01*
X121917020Y-71295541D01*
X121333460Y-71557007D01*
X120816571Y-71953065D01*
X120588090Y-72191088D01*
X120235333Y-72591840D01*
X120235333Y-71382667D01*
X116086667Y-71382667D01*
X115113000Y-71382667D01*
X115113000Y-70877923D01*
X115666334Y-70324333D01*
X118056667Y-70302407D01*
X118811340Y-70297453D01*
X119412855Y-70298301D01*
X119877307Y-70305491D01*
X120220789Y-70319565D01*
X120459397Y-70341062D01*
X120609224Y-70370523D01*
X120658667Y-70389823D01*
X120794018Y-70441006D01*
X120944731Y-70441355D01*
X121160134Y-70384411D01*
X121420667Y-70290044D01*
X121677904Y-70200273D01*
X121919662Y-70139792D01*
X122190646Y-70102795D01*
X122535560Y-70083477D01*
X122999108Y-70076032D01*
X123071667Y-70075628D01*
X123757437Y-70090277D01*
X124313336Y-70149380D01*
X124775635Y-70264662D01*
X125180601Y-70447849D01*
X125564505Y-70710665D01*
X125877005Y-70982545D01*
X126204578Y-71305965D01*
X126473064Y-71618571D01*
X126688157Y-71941397D01*
X126855550Y-72295480D01*
X126980936Y-72701856D01*
X127070009Y-73181561D01*
X127128461Y-73755631D01*
X127161985Y-74445102D01*
X127176276Y-75271010D01*
X127178000Y-75789614D01*
X127178000Y-78052807D01*
X127474655Y-78087440D01*
X127671864Y-78096353D01*
X127740119Y-78050509D01*
X127733694Y-77990870D01*
X127688388Y-77832553D01*
X127618407Y-77587737D01*
X127587246Y-77478667D01*
X127531837Y-77174840D01*
X127494681Y-76743602D01*
X127475285Y-76225831D01*
X127473540Y-75763147D01*
X128548956Y-75763147D01*
X128555761Y-76291649D01*
X128587052Y-76751914D01*
X128613522Y-76948073D01*
X128828553Y-77765250D01*
X129177551Y-78492959D01*
X129650424Y-79118816D01*
X130237079Y-79630438D01*
X130927427Y-80015439D01*
X131198561Y-80120371D01*
X131614928Y-80216287D01*
X132130315Y-80264856D01*
X132681107Y-80265883D01*
X133203687Y-80219171D01*
X133624111Y-80127856D01*
X133956123Y-79986583D01*
X134274754Y-79766024D01*
X134565167Y-79499629D01*
X135052000Y-79016213D01*
X135052000Y-80103333D01*
X139200667Y-80103333D01*
X139200667Y-79172000D01*
X137930667Y-79172000D01*
X137930667Y-67318667D01*
X133782000Y-67318667D01*
X133782000Y-68165333D01*
X135052000Y-68165333D01*
X135052000Y-72438091D01*
X134675096Y-72007234D01*
X134263877Y-71622920D01*
X133795270Y-71359954D01*
X133236417Y-71203878D01*
X132720243Y-71147239D01*
X131862658Y-71172029D01*
X131087304Y-71344026D01*
X130399302Y-71659677D01*
X129803774Y-72115432D01*
X129305841Y-72707738D01*
X128910625Y-73433043D01*
X128730165Y-73914248D01*
X128657242Y-74241958D01*
X128601518Y-74690927D01*
X128564816Y-75213782D01*
X128548956Y-75763147D01*
X127473540Y-75763147D01*
X127473160Y-75662410D01*
X127487813Y-75094218D01*
X127518755Y-74562137D01*
X127565494Y-74107046D01*
X127627538Y-73769826D01*
X127631986Y-73753333D01*
X127920419Y-72931317D01*
X128306857Y-72220647D01*
X128813230Y-71581387D01*
X128841109Y-71551622D01*
X129329497Y-71077459D01*
X129801177Y-70722253D01*
X130309403Y-70450756D01*
X130776333Y-70270733D01*
X131069846Y-70180967D01*
X131349238Y-70122064D01*
X131663837Y-70088037D01*
X132062971Y-70072899D01*
X132427333Y-70070333D01*
X132896619Y-70078819D01*
X133305362Y-70102293D01*
X133614440Y-70137780D01*
X133760833Y-70171762D01*
X134036000Y-70273191D01*
X134036000Y-69288296D01*
X133684073Y-69241092D01*
X133301124Y-69112537D01*
X133070239Y-68931983D01*
X132955676Y-68812164D01*
X132880605Y-68701609D01*
X132836679Y-68562394D01*
X132815551Y-68356597D01*
X132808876Y-68046294D01*
X132808333Y-67742000D01*
X132808333Y-66813923D01*
X133361923Y-66260333D01*
X138435410Y-66260333D01*
X138712205Y-66537095D01*
X138989000Y-66813856D01*
X139011919Y-72432054D01*
X139034838Y-78050251D01*
X139354178Y-78101316D01*
X139700465Y-78234122D01*
X139923926Y-78413750D01*
X140033840Y-78534930D01*
X140105717Y-78649186D01*
X140147633Y-78794742D01*
X140167661Y-79009826D01*
X140173876Y-79332664D01*
X140174333Y-79599264D01*
X140174333Y-80523410D01*
X139621005Y-81077000D01*
X137269177Y-81101853D01*
X136645203Y-81105753D01*
X136068820Y-81104244D01*
X135564054Y-81097793D01*
X135154935Y-81086868D01*
X134865490Y-81071937D01*
X134719747Y-81053468D01*
X134715787Y-81052144D01*
X134505778Y-81028765D01*
X134214990Y-81098198D01*
X134084613Y-81146330D01*
X133686815Y-81254700D01*
X133174386Y-81324873D01*
X132597905Y-81355797D01*
X132007951Y-81346420D01*
X131455103Y-81295690D01*
X131017376Y-81210149D01*
X130478212Y-81041857D01*
X130035847Y-80842709D01*
X129632473Y-80579324D01*
X129210280Y-80218318D01*
X129072310Y-80086957D01*
X128468953Y-79502366D01*
X128431613Y-80018585D01*
X128396018Y-80333354D01*
X128327769Y-80546359D01*
X128200441Y-80725054D01*
X128123187Y-80805902D01*
X127852102Y-81077000D01*
X116513440Y-81097993D01*
X114916144Y-81100360D01*
X113413282Y-81101400D01*
X112011347Y-81101146D01*
X110716833Y-81099630D01*
X109536234Y-81096886D01*
X108476044Y-81092946D01*
X107542756Y-81087842D01*
X106742865Y-81081606D01*
X106082863Y-81074273D01*
X105569245Y-81065873D01*
X105208505Y-81056441D01*
X105007136Y-81046008D01*
X104967137Y-81040041D01*
X104861383Y-80960286D01*
X104657039Y-80770356D01*
X104369179Y-80485595D01*
X104012880Y-80121341D01*
X103603215Y-79692938D01*
X103155261Y-79215725D01*
X102845414Y-78880886D01*
X100931333Y-76800677D01*
X100931333Y-78050981D01*
X101443402Y-78088021D01*
X101757486Y-78123896D01*
X101970461Y-78193348D01*
X102150417Y-78323166D01*
X102226569Y-78396158D01*
X102497667Y-78667256D01*
X102497667Y-80523410D01*
X101944077Y-81077000D01*
X94669256Y-81077000D01*
X94392461Y-80800205D01*
X94115667Y-80523410D01*
X94115667Y-78667256D01*
X94386764Y-78396158D01*
X94572327Y-78235448D01*
X94764283Y-78145579D01*
X95030721Y-78099763D01*
X95169931Y-78088021D01*
X95682000Y-78050981D01*
X95682000Y-69794352D01*
X95169931Y-69757312D01*
X94855847Y-69721437D01*
X94642872Y-69651985D01*
X94462916Y-69522167D01*
X94386764Y-69449175D01*
X94115667Y-69178077D01*
X94115667Y-67826667D01*
X95174000Y-67826667D01*
X95174000Y-68758000D01*
X96698000Y-68758000D01*
X96698000Y-79172000D01*
X95174000Y-79172000D01*
X95174000Y-80103333D01*
X101439333Y-80103333D01*
X101439333Y-79172000D01*
X99830667Y-79172000D01*
X99830667Y-76632000D01*
X99832696Y-75996079D01*
X99838439Y-75418807D01*
X99847380Y-74920810D01*
X99859000Y-74522717D01*
X99872784Y-74245156D01*
X99888214Y-74108753D01*
X99894167Y-74098183D01*
X99962292Y-74160048D01*
X100133044Y-74335009D01*
X100395084Y-74610917D01*
X100737072Y-74975627D01*
X101147669Y-75416991D01*
X101615536Y-75922861D01*
X102129334Y-76481092D01*
X102677723Y-77079536D01*
X102699954Y-77103849D01*
X105442241Y-80103333D01*
X109567333Y-80103333D01*
X109567333Y-79172000D01*
X108953500Y-79169745D01*
X108339667Y-79167491D01*
X105334000Y-75902930D01*
X104758289Y-75276479D01*
X104218766Y-74687180D01*
X103726072Y-74146809D01*
X103290850Y-73667146D01*
X102923741Y-73259967D01*
X102635386Y-72937052D01*
X102436428Y-72710177D01*
X102337507Y-72591122D01*
X102328333Y-72576303D01*
X102390184Y-72508292D01*
X102565870Y-72343342D01*
X102840594Y-72094636D01*
X103199557Y-71775360D01*
X103627962Y-71398697D01*
X104111009Y-70977832D01*
X104506036Y-70636119D01*
X106683738Y-68758000D01*
X108382000Y-68758000D01*
X108382000Y-67826667D01*
X103810000Y-67826667D01*
X103810000Y-68751152D01*
X104473040Y-68775742D01*
X105136080Y-68800333D01*
X102585615Y-70995808D01*
X102023374Y-71478475D01*
X101498976Y-71926126D01*
X101026734Y-72326731D01*
X100620962Y-72668259D01*
X100295974Y-72938679D01*
X100066083Y-73125962D01*
X99945602Y-73218077D01*
X99932908Y-73225364D01*
X99900643Y-73196314D01*
X99875366Y-73075782D01*
X99856428Y-72849664D01*
X99843177Y-72503860D01*
X99834964Y-72024268D01*
X99831138Y-71396787D01*
X99830667Y-71008722D01*
X99830667Y-68758000D01*
X101439333Y-68758000D01*
X101439333Y-67826667D01*
X95174000Y-67826667D01*
X94115667Y-67826667D01*
X94115667Y-67321923D01*
X94392461Y-67045128D01*
X94669256Y-66768333D01*
X101859844Y-66768333D01*
X102178755Y-67087244D01*
X102497667Y-67406155D01*
X102497667Y-68292116D01*
X102496064Y-68688581D01*
X102485084Y-68955224D01*
X102455470Y-69131558D01*
X102397963Y-69257094D01*
X102303307Y-69371344D01*
X102226569Y-69449175D01*
X102041006Y-69609885D01*
X101849050Y-69699754D01*
X101582612Y-69745570D01*
X101443402Y-69757312D01*
X100931333Y-69794352D01*
X100931333Y-70980012D01*
X101502833Y-70485408D01*
X101819418Y-70211613D01*
X102141113Y-69933713D01*
X102407637Y-69703776D01*
X102450587Y-69666775D01*
X102826840Y-69342745D01*
X102831587Y-68332576D01*
X102836333Y-67322407D01*
X103389923Y-66768333D01*
X108802077Y-66768333D01*
X109355667Y-67321923D01*
X109355667Y-69178077D01*
X109079006Y-69454872D01*
X108943168Y-69583098D01*
X108817198Y-69665603D01*
X108658430Y-69714335D01*
X108424195Y-69741245D01*
X108071828Y-69758281D01*
X107984061Y-69761532D01*
X107165776Y-69791398D01*
X105530221Y-71198310D01*
X105086217Y-71582856D01*
X104688015Y-71932740D01*
X104352760Y-72232491D01*
X104097593Y-72466634D01*
X103939658Y-72619698D01*
X103894667Y-72674526D01*
X103950366Y-72749390D01*
X104109589Y-72935132D01*
X104360524Y-73218648D01*
X104691359Y-73586834D01*
X105090281Y-74026587D01*
X105545479Y-74524802D01*
X106045140Y-75068377D01*
X106358348Y-75407582D01*
X108822030Y-78071333D01*
X109821333Y-78071333D01*
X109821333Y-73351642D01*
X109500241Y-73300297D01*
X109150259Y-73166073D01*
X108928741Y-72987583D01*
X108818827Y-72866403D01*
X108746949Y-72752147D01*
X108705033Y-72606591D01*
X108685005Y-72391507D01*
X108678790Y-72068669D01*
X108678333Y-71802069D01*
X108679795Y-71395757D01*
X108680272Y-71382667D01*
X109652000Y-71382667D01*
X109652000Y-72314000D01*
X110922000Y-72314000D01*
X110922000Y-79172000D01*
X109652000Y-79172000D01*
X109652000Y-80103333D01*
X115070667Y-80103333D01*
X115070667Y-79172000D01*
X113800667Y-79172000D01*
X113800667Y-71382667D01*
X109652000Y-71382667D01*
X108680272Y-71382667D01*
X108689839Y-71120674D01*
X108716952Y-70938717D01*
X108769625Y-70811780D01*
X108856344Y-70701759D01*
X108943201Y-70613055D01*
X109233996Y-70398386D01*
X109584146Y-70305798D01*
X109960224Y-70263409D01*
X109794392Y-69928233D01*
X109650536Y-69496411D01*
X109584673Y-68981323D01*
X109593396Y-68684536D01*
X110674831Y-68684536D01*
X110703563Y-69117068D01*
X110849863Y-69526028D01*
X111100398Y-69882890D01*
X111441834Y-70159126D01*
X111860836Y-70326210D01*
X112192000Y-70362948D01*
X112461790Y-70326302D01*
X112763972Y-70235241D01*
X112836829Y-70204689D01*
X113251269Y-69934110D01*
X113531932Y-69559808D01*
X113678429Y-69082375D01*
X113697645Y-68896003D01*
X113704900Y-68579721D01*
X113668259Y-68352252D01*
X113568790Y-68134925D01*
X113479596Y-67989899D01*
X113167236Y-67626447D01*
X112780766Y-67406994D01*
X112299736Y-67320847D01*
X112196166Y-67318667D01*
X111754622Y-67366279D01*
X111393692Y-67526091D01*
X111058508Y-67823561D01*
X111023411Y-67862865D01*
X110777003Y-68256959D01*
X110674831Y-68684536D01*
X109593396Y-68684536D01*
X109600239Y-68451735D01*
X109697402Y-67986159D01*
X109884712Y-67596872D01*
X110174920Y-67194940D01*
X110527186Y-66823622D01*
X110900671Y-66526176D01*
X111242003Y-66350033D01*
X111695186Y-66252235D01*
X112225520Y-66223589D01*
X112755750Y-66263725D01*
G36*
X85535433Y-112028193D02*
G01*
X85670940Y-112101846D01*
X85905585Y-112287344D01*
X86091394Y-112530224D01*
X86236138Y-112852964D01*
X86347588Y-113278043D01*
X86433513Y-113827940D01*
X86499606Y-114499167D01*
X86552447Y-115155333D01*
X83574667Y-115155333D01*
X83575361Y-114880167D01*
X83592705Y-114493908D01*
X83637833Y-114048681D01*
X83664316Y-113864167D01*
X84760472Y-113864167D01*
X84786645Y-113993852D01*
X84898100Y-114046749D01*
X85056333Y-114054667D01*
X85272348Y-114028807D01*
X85351116Y-113943770D01*
X85352667Y-113922825D01*
X85327153Y-113690886D01*
X85262919Y-113434262D01*
X85178425Y-113206929D01*
X85092132Y-113062860D01*
X85050262Y-113038667D01*
X84960100Y-113113966D01*
X84869524Y-113304537D01*
X84797136Y-113557389D01*
X84761538Y-113819533D01*
X84760472Y-113864167D01*
X83664316Y-113864167D01*
X83702967Y-113594876D01*
X83780326Y-113182885D01*
X83862132Y-112863097D01*
X83904428Y-112748676D01*
X84134380Y-112354845D01*
X84417385Y-112106477D01*
X84782962Y-111981346D01*
X84949849Y-111961473D01*
X85283512Y-111960769D01*
X85535433Y-112028193D01*
G37*
X85535433Y-112028193D02*
X85670940Y-112101846D01*
X85905585Y-112287344D01*
X86091394Y-112530224D01*
X86236138Y-112852964D01*
X86347588Y-113278043D01*
X86433513Y-113827940D01*
X86499606Y-114499167D01*
X86552447Y-115155333D01*
X83574667Y-115155333D01*
X83575361Y-114880167D01*
X83592705Y-114493908D01*
X83637833Y-114048681D01*
X83664316Y-113864167D01*
X84760472Y-113864167D01*
X84786645Y-113993852D01*
X84898100Y-114046749D01*
X85056333Y-114054667D01*
X85272348Y-114028807D01*
X85351116Y-113943770D01*
X85352667Y-113922825D01*
X85327153Y-113690886D01*
X85262919Y-113434262D01*
X85178425Y-113206929D01*
X85092132Y-113062860D01*
X85050262Y-113038667D01*
X84960100Y-113113966D01*
X84869524Y-113304537D01*
X84797136Y-113557389D01*
X84761538Y-113819533D01*
X84760472Y-113864167D01*
X83664316Y-113864167D01*
X83702967Y-113594876D01*
X83780326Y-113182885D01*
X83862132Y-112863097D01*
X83904428Y-112748676D01*
X84134380Y-112354845D01*
X84417385Y-112106477D01*
X84782962Y-111981346D01*
X84949849Y-111961473D01*
X85283512Y-111960769D01*
X85535433Y-112028193D01*
G36*
X71996500Y-113825339D02*
G01*
X72675794Y-113870230D01*
X73218281Y-113942338D01*
X73655348Y-114049254D01*
X74018379Y-114198568D01*
X74326483Y-114388929D01*
X74712312Y-114768298D01*
X74999042Y-115257449D01*
X75180080Y-115824334D01*
X75248833Y-116436902D01*
X75198708Y-117063103D01*
X75023110Y-117670887D01*
X75008747Y-117705346D01*
X74750495Y-118152487D01*
X74387852Y-118510324D01*
X73910841Y-118783055D01*
X73309484Y-118974876D01*
X72573804Y-119089987D01*
X71693822Y-119132585D01*
X71615500Y-119132989D01*
X70874667Y-119134667D01*
X70874667Y-118057314D01*
X71975333Y-118057314D01*
X72462167Y-118000481D01*
X72795926Y-117953167D01*
X73113222Y-117894789D01*
X73254037Y-117861916D01*
X73632132Y-117680373D01*
X73915661Y-117380714D01*
X74095839Y-116990817D01*
X74163882Y-116538562D01*
X74111007Y-116051830D01*
X73959759Y-115621914D01*
X73751731Y-115368067D01*
X73402770Y-115158771D01*
X72938082Y-115005856D01*
X72486574Y-114930646D01*
X71975333Y-114877211D01*
X71975333Y-118057314D01*
X70874667Y-118057314D01*
X70874667Y-113775304D01*
X71996500Y-113825339D01*
G37*
X71996500Y-113825339D02*
X72675794Y-113870230D01*
X73218281Y-113942338D01*
X73655348Y-114049254D01*
X74018379Y-114198568D01*
X74326483Y-114388929D01*
X74712312Y-114768298D01*
X74999042Y-115257449D01*
X75180080Y-115824334D01*
X75248833Y-116436902D01*
X75198708Y-117063103D01*
X75023110Y-117670887D01*
X75008747Y-117705346D01*
X74750495Y-118152487D01*
X74387852Y-118510324D01*
X73910841Y-118783055D01*
X73309484Y-118974876D01*
X72573804Y-119089987D01*
X71693822Y-119132585D01*
X71615500Y-119132989D01*
X70874667Y-119134667D01*
X70874667Y-118057314D01*
X71975333Y-118057314D01*
X72462167Y-118000481D01*
X72795926Y-117953167D01*
X73113222Y-117894789D01*
X73254037Y-117861916D01*
X73632132Y-117680373D01*
X73915661Y-117380714D01*
X74095839Y-116990817D01*
X74163882Y-116538562D01*
X74111007Y-116051830D01*
X73959759Y-115621914D01*
X73751731Y-115368067D01*
X73402770Y-115158771D01*
X72938082Y-115005856D01*
X72486574Y-114930646D01*
X71975333Y-114877211D01*
X71975333Y-118057314D01*
X70874667Y-118057314D01*
X70874667Y-113775304D01*
X71996500Y-113825339D01*
G36*
X72592215Y-108738460D02*
G01*
X73140513Y-108796805D01*
X73579598Y-108903142D01*
X73937899Y-109064917D01*
X74243842Y-109289573D01*
X74308514Y-109349687D01*
X74551693Y-109622209D01*
X74696705Y-109902877D01*
X74770905Y-110170507D01*
X74843545Y-110808886D01*
X74771475Y-111385378D01*
X74560488Y-111885832D01*
X74216378Y-112296094D01*
X73782929Y-112583815D01*
X73574368Y-112681022D01*
X73386262Y-112749397D01*
X73180620Y-112795021D01*
X72919449Y-112823971D01*
X72564760Y-112842328D01*
X72081167Y-112856105D01*
X70874667Y-112885211D01*
X70874667Y-111872560D01*
X71975333Y-111872560D01*
X72377500Y-111814874D01*
X72702073Y-111757839D01*
X73018876Y-111686262D01*
X73095803Y-111665268D01*
X73429145Y-111516176D01*
X73630125Y-111283907D01*
X73728621Y-110933779D01*
X73729109Y-110930169D01*
X73732532Y-110551528D01*
X73620873Y-110258485D01*
X73382219Y-110040592D01*
X73004658Y-109887402D01*
X72476280Y-109788465D01*
X72419833Y-109781740D01*
X71975333Y-109730834D01*
X71975333Y-111872560D01*
X70874667Y-111872560D01*
X70874667Y-108720667D01*
X71906279Y-108720667D01*
X72592215Y-108738460D01*
G37*
X72592215Y-108738460D02*
X73140513Y-108796805D01*
X73579598Y-108903142D01*
X73937899Y-109064917D01*
X74243842Y-109289573D01*
X74308514Y-109349687D01*
X74551693Y-109622209D01*
X74696705Y-109902877D01*
X74770905Y-110170507D01*
X74843545Y-110808886D01*
X74771475Y-111385378D01*
X74560488Y-111885832D01*
X74216378Y-112296094D01*
X73782929Y-112583815D01*
X73574368Y-112681022D01*
X73386262Y-112749397D01*
X73180620Y-112795021D01*
X72919449Y-112823971D01*
X72564760Y-112842328D01*
X72081167Y-112856105D01*
X70874667Y-112885211D01*
X70874667Y-111872560D01*
X71975333Y-111872560D01*
X72377500Y-111814874D01*
X72702073Y-111757839D01*
X73018876Y-111686262D01*
X73095803Y-111665268D01*
X73429145Y-111516176D01*
X73630125Y-111283907D01*
X73728621Y-110933779D01*
X73729109Y-110930169D01*
X73732532Y-110551528D01*
X73620873Y-110258485D01*
X73382219Y-110040592D01*
X73004658Y-109887402D01*
X72476280Y-109788465D01*
X72419833Y-109781740D01*
X71975333Y-109730834D01*
X71975333Y-111872560D01*
X70874667Y-111872560D01*
X70874667Y-108720667D01*
X71906279Y-108720667D01*
X72592215Y-108738460D01*
G36*
X114984140Y-116606230D02*
G01*
X114971832Y-117200045D01*
X114931868Y-117656106D01*
X114856373Y-118004834D01*
X114737470Y-118276649D01*
X114567285Y-118501972D01*
X114468002Y-118599860D01*
X114090015Y-118838911D01*
X113641722Y-118955764D01*
X113176888Y-118943456D01*
X112790477Y-118817035D01*
X112490536Y-118588620D01*
X112288034Y-118251256D01*
X112176892Y-117790692D01*
X112158671Y-117471865D01*
X113199468Y-117471865D01*
X113259392Y-117730742D01*
X113377869Y-117845138D01*
X113561728Y-117846028D01*
X113750594Y-117733302D01*
X113752286Y-117731619D01*
X113843877Y-117547739D01*
X113883207Y-117222838D01*
X113885333Y-117096619D01*
X113879006Y-116814946D01*
X113851272Y-116663485D01*
X113789000Y-116603313D01*
X113716000Y-116594667D01*
X113491999Y-116670493D01*
X113319989Y-116869970D01*
X113216852Y-117151095D01*
X113199468Y-117471865D01*
X112158671Y-117471865D01*
X112149667Y-117314333D01*
X112159550Y-116931410D01*
X112196895Y-116657939D01*
X112273242Y-116434789D01*
X112350147Y-116287147D01*
X112568706Y-115983297D01*
X112841270Y-115765981D01*
X113197375Y-115622185D01*
X113666554Y-115538892D01*
X114118167Y-115507998D01*
X114986000Y-115474794D01*
X114984140Y-116606230D01*
G37*
X114984140Y-116606230D02*
X114971832Y-117200045D01*
X114931868Y-117656106D01*
X114856373Y-118004834D01*
X114737470Y-118276649D01*
X114567285Y-118501972D01*
X114468002Y-118599860D01*
X114090015Y-118838911D01*
X113641722Y-118955764D01*
X113176888Y-118943456D01*
X112790477Y-118817035D01*
X112490536Y-118588620D01*
X112288034Y-118251256D01*
X112176892Y-117790692D01*
X112158671Y-117471865D01*
X113199468Y-117471865D01*
X113259392Y-117730742D01*
X113377869Y-117845138D01*
X113561728Y-117846028D01*
X113750594Y-117733302D01*
X113752286Y-117731619D01*
X113843877Y-117547739D01*
X113883207Y-117222838D01*
X113885333Y-117096619D01*
X113879006Y-116814946D01*
X113851272Y-116663485D01*
X113789000Y-116603313D01*
X113716000Y-116594667D01*
X113491999Y-116670493D01*
X113319989Y-116869970D01*
X113216852Y-117151095D01*
X113199468Y-117471865D01*
X112158671Y-117471865D01*
X112149667Y-117314333D01*
X112159550Y-116931410D01*
X112196895Y-116657939D01*
X112273242Y-116434789D01*
X112350147Y-116287147D01*
X112568706Y-115983297D01*
X112841270Y-115765981D01*
X113197375Y-115622185D01*
X113666554Y-115538892D01*
X114118167Y-115507998D01*
X114986000Y-115474794D01*
X114984140Y-116606230D01*
G36*
X132694766Y-112028193D02*
G01*
X132830274Y-112101846D01*
X133064918Y-112287344D01*
X133250727Y-112530224D01*
X133395472Y-112852964D01*
X133506921Y-113278043D01*
X133592847Y-113827940D01*
X133658940Y-114499167D01*
X133711781Y-115155333D01*
X130734000Y-115155333D01*
X130734695Y-114880167D01*
X130752038Y-114493908D01*
X130797167Y-114048681D01*
X130823649Y-113864167D01*
X131919805Y-113864167D01*
X131945978Y-113993852D01*
X132057433Y-114046749D01*
X132215667Y-114054667D01*
X132431681Y-114028807D01*
X132510449Y-113943770D01*
X132512000Y-113922825D01*
X132486486Y-113690886D01*
X132422252Y-113434262D01*
X132337759Y-113206929D01*
X132251466Y-113062860D01*
X132209595Y-113038667D01*
X132119433Y-113113966D01*
X132028858Y-113304537D01*
X131956470Y-113557389D01*
X131920872Y-113819533D01*
X131919805Y-113864167D01*
X130823649Y-113864167D01*
X130862300Y-113594876D01*
X130939660Y-113182885D01*
X131021465Y-112863097D01*
X131063761Y-112748676D01*
X131293713Y-112354845D01*
X131576719Y-112106477D01*
X131942295Y-111981346D01*
X132109182Y-111961473D01*
X132442845Y-111960769D01*
X132694766Y-112028193D01*
G37*
X132694766Y-112028193D02*
X132830274Y-112101846D01*
X133064918Y-112287344D01*
X133250727Y-112530224D01*
X133395472Y-112852964D01*
X133506921Y-113278043D01*
X133592847Y-113827940D01*
X133658940Y-114499167D01*
X133711781Y-115155333D01*
X130734000Y-115155333D01*
X130734695Y-114880167D01*
X130752038Y-114493908D01*
X130797167Y-114048681D01*
X130823649Y-113864167D01*
X131919805Y-113864167D01*
X131945978Y-113993852D01*
X132057433Y-114046749D01*
X132215667Y-114054667D01*
X132431681Y-114028807D01*
X132510449Y-113943770D01*
X132512000Y-113922825D01*
X132486486Y-113690886D01*
X132422252Y-113434262D01*
X132337759Y-113206929D01*
X132251466Y-113062860D01*
X132209595Y-113038667D01*
X132119433Y-113113966D01*
X132028858Y-113304537D01*
X131956470Y-113557389D01*
X131920872Y-113819533D01*
X131919805Y-113864167D01*
X130823649Y-113864167D01*
X130862300Y-113594876D01*
X130939660Y-113182885D01*
X131021465Y-112863097D01*
X131063761Y-112748676D01*
X131293713Y-112354845D01*
X131576719Y-112106477D01*
X131942295Y-111981346D01*
X132109182Y-111961473D01*
X132442845Y-111960769D01*
X132694766Y-112028193D01*
G36*
X81725433Y-92046860D02*
G01*
X81860940Y-92120513D01*
X82095585Y-92306011D01*
X82281394Y-92548890D01*
X82426138Y-92871630D01*
X82537588Y-93296709D01*
X82623513Y-93846606D01*
X82689606Y-94517833D01*
X82742447Y-95174000D01*
X79764667Y-95174000D01*
X79765361Y-94898833D01*
X79782705Y-94512574D01*
X79827833Y-94067347D01*
X79854316Y-93882833D01*
X80950472Y-93882833D01*
X80976645Y-94012518D01*
X81088100Y-94065415D01*
X81246333Y-94073333D01*
X81462348Y-94047473D01*
X81541116Y-93962436D01*
X81542667Y-93941492D01*
X81517153Y-93709552D01*
X81452919Y-93452929D01*
X81368425Y-93225596D01*
X81282132Y-93081526D01*
X81240262Y-93057333D01*
X81150100Y-93132633D01*
X81059524Y-93323204D01*
X80987136Y-93576056D01*
X80951538Y-93838199D01*
X80950472Y-93882833D01*
X79854316Y-93882833D01*
X79892967Y-93613543D01*
X79970326Y-93201552D01*
X80052132Y-92881764D01*
X80094428Y-92767343D01*
X80324380Y-92373512D01*
X80607385Y-92125144D01*
X80972962Y-92000013D01*
X81139849Y-91980140D01*
X81473512Y-91979435D01*
X81725433Y-92046860D01*
G37*
X81725433Y-92046860D02*
X81860940Y-92120513D01*
X82095585Y-92306011D01*
X82281394Y-92548890D01*
X82426138Y-92871630D01*
X82537588Y-93296709D01*
X82623513Y-93846606D01*
X82689606Y-94517833D01*
X82742447Y-95174000D01*
X79764667Y-95174000D01*
X79765361Y-94898833D01*
X79782705Y-94512574D01*
X79827833Y-94067347D01*
X79854316Y-93882833D01*
X80950472Y-93882833D01*
X80976645Y-94012518D01*
X81088100Y-94065415D01*
X81246333Y-94073333D01*
X81462348Y-94047473D01*
X81541116Y-93962436D01*
X81542667Y-93941492D01*
X81517153Y-93709552D01*
X81452919Y-93452929D01*
X81368425Y-93225596D01*
X81282132Y-93081526D01*
X81240262Y-93057333D01*
X81150100Y-93132633D01*
X81059524Y-93323204D01*
X80987136Y-93576056D01*
X80951538Y-93838199D01*
X80950472Y-93882833D01*
X79854316Y-93882833D01*
X79892967Y-93613543D01*
X79970326Y-93201552D01*
X80052132Y-92881764D01*
X80094428Y-92767343D01*
X80324380Y-92373512D01*
X80607385Y-92125144D01*
X80972962Y-92000013D01*
X81139849Y-91980140D01*
X81473512Y-91979435D01*
X81725433Y-92046860D01*
G36*
X68186500Y-93844005D02*
G01*
X68865794Y-93888897D01*
X69408281Y-93961005D01*
X69845348Y-94067920D01*
X70208379Y-94217235D01*
X70516483Y-94407595D01*
X70902312Y-94786964D01*
X71189042Y-95276116D01*
X71370080Y-95843001D01*
X71438833Y-96455569D01*
X71388708Y-97081769D01*
X71213110Y-97689553D01*
X71198747Y-97724012D01*
X70940495Y-98171154D01*
X70577852Y-98528991D01*
X70100841Y-98801721D01*
X69499484Y-98993543D01*
X68763804Y-99108654D01*
X67883822Y-99151252D01*
X67805500Y-99151656D01*
X67064667Y-99153333D01*
X67064667Y-98075981D01*
X68165333Y-98075981D01*
X68652167Y-98019147D01*
X68985926Y-97971834D01*
X69303222Y-97913456D01*
X69444037Y-97880583D01*
X69822132Y-97699040D01*
X70105661Y-97399381D01*
X70285839Y-97009484D01*
X70353882Y-96557229D01*
X70301007Y-96070496D01*
X70149759Y-95640581D01*
X69941731Y-95386733D01*
X69592770Y-95177438D01*
X69128082Y-95024523D01*
X68676574Y-94949312D01*
X68165333Y-94895877D01*
X68165333Y-98075981D01*
X67064667Y-98075981D01*
X67064667Y-93793970D01*
X68186500Y-93844005D01*
G37*
X68186500Y-93844005D02*
X68865794Y-93888897D01*
X69408281Y-93961005D01*
X69845348Y-94067920D01*
X70208379Y-94217235D01*
X70516483Y-94407595D01*
X70902312Y-94786964D01*
X71189042Y-95276116D01*
X71370080Y-95843001D01*
X71438833Y-96455569D01*
X71388708Y-97081769D01*
X71213110Y-97689553D01*
X71198747Y-97724012D01*
X70940495Y-98171154D01*
X70577852Y-98528991D01*
X70100841Y-98801721D01*
X69499484Y-98993543D01*
X68763804Y-99108654D01*
X67883822Y-99151252D01*
X67805500Y-99151656D01*
X67064667Y-99153333D01*
X67064667Y-98075981D01*
X68165333Y-98075981D01*
X68652167Y-98019147D01*
X68985926Y-97971834D01*
X69303222Y-97913456D01*
X69444037Y-97880583D01*
X69822132Y-97699040D01*
X70105661Y-97399381D01*
X70285839Y-97009484D01*
X70353882Y-96557229D01*
X70301007Y-96070496D01*
X70149759Y-95640581D01*
X69941731Y-95386733D01*
X69592770Y-95177438D01*
X69128082Y-95024523D01*
X68676574Y-94949312D01*
X68165333Y-94895877D01*
X68165333Y-98075981D01*
X67064667Y-98075981D01*
X67064667Y-93793970D01*
X68186500Y-93844005D01*
G36*
X68782215Y-88757127D02*
G01*
X69330513Y-88815471D01*
X69769598Y-88921809D01*
X70127899Y-89083584D01*
X70433842Y-89308240D01*
X70498514Y-89368354D01*
X70741693Y-89640876D01*
X70886705Y-89921544D01*
X70960905Y-90189173D01*
X71033545Y-90827552D01*
X70961475Y-91404045D01*
X70750488Y-91904498D01*
X70406378Y-92314760D01*
X69972929Y-92602482D01*
X69764368Y-92699688D01*
X69576262Y-92768064D01*
X69370620Y-92813688D01*
X69109449Y-92842638D01*
X68754760Y-92860994D01*
X68271167Y-92874772D01*
X67064667Y-92903877D01*
X67064667Y-91891227D01*
X68165333Y-91891227D01*
X68567500Y-91833541D01*
X68892073Y-91776505D01*
X69208876Y-91704929D01*
X69285803Y-91683935D01*
X69619145Y-91534843D01*
X69820125Y-91302573D01*
X69918621Y-90952445D01*
X69919109Y-90948836D01*
X69922532Y-90570194D01*
X69810873Y-90277151D01*
X69572219Y-90059259D01*
X69194658Y-89906068D01*
X68666280Y-89807131D01*
X68609833Y-89800406D01*
X68165333Y-89749501D01*
X68165333Y-91891227D01*
X67064667Y-91891227D01*
X67064667Y-88739333D01*
X68096279Y-88739333D01*
X68782215Y-88757127D01*
G37*
X68782215Y-88757127D02*
X69330513Y-88815471D01*
X69769598Y-88921809D01*
X70127899Y-89083584D01*
X70433842Y-89308240D01*
X70498514Y-89368354D01*
X70741693Y-89640876D01*
X70886705Y-89921544D01*
X70960905Y-90189173D01*
X71033545Y-90827552D01*
X70961475Y-91404045D01*
X70750488Y-91904498D01*
X70406378Y-92314760D01*
X69972929Y-92602482D01*
X69764368Y-92699688D01*
X69576262Y-92768064D01*
X69370620Y-92813688D01*
X69109449Y-92842638D01*
X68754760Y-92860994D01*
X68271167Y-92874772D01*
X67064667Y-92903877D01*
X67064667Y-91891227D01*
X68165333Y-91891227D01*
X68567500Y-91833541D01*
X68892073Y-91776505D01*
X69208876Y-91704929D01*
X69285803Y-91683935D01*
X69619145Y-91534843D01*
X69820125Y-91302573D01*
X69918621Y-90952445D01*
X69919109Y-90948836D01*
X69922532Y-90570194D01*
X69810873Y-90277151D01*
X69572219Y-90059259D01*
X69194658Y-89906068D01*
X68666280Y-89807131D01*
X68609833Y-89800406D01*
X68165333Y-89749501D01*
X68165333Y-91891227D01*
X67064667Y-91891227D01*
X67064667Y-88739333D01*
X68096279Y-88739333D01*
X68782215Y-88757127D01*
G36*
X112444140Y-96624897D02*
G01*
X112431832Y-97218712D01*
X112391868Y-97674773D01*
X112316373Y-98023501D01*
X112197470Y-98295316D01*
X112027285Y-98520638D01*
X111928002Y-98618527D01*
X111550015Y-98857578D01*
X111101722Y-98974430D01*
X110636888Y-98962123D01*
X110250477Y-98835702D01*
X109950536Y-98607287D01*
X109748034Y-98269923D01*
X109636892Y-97809359D01*
X109618671Y-97490532D01*
X110659468Y-97490532D01*
X110719392Y-97749408D01*
X110837869Y-97863805D01*
X111021728Y-97864694D01*
X111210594Y-97751969D01*
X111212286Y-97750286D01*
X111303877Y-97566406D01*
X111343207Y-97241504D01*
X111345333Y-97115286D01*
X111339006Y-96833613D01*
X111311272Y-96682151D01*
X111249000Y-96621980D01*
X111176000Y-96613333D01*
X110951999Y-96689160D01*
X110779989Y-96888637D01*
X110676852Y-97169762D01*
X110659468Y-97490532D01*
X109618671Y-97490532D01*
X109609667Y-97333000D01*
X109619550Y-96950076D01*
X109656895Y-96676605D01*
X109733242Y-96453455D01*
X109810147Y-96305814D01*
X110028706Y-96001963D01*
X110301270Y-95784648D01*
X110657375Y-95640851D01*
X111126554Y-95557559D01*
X111578167Y-95526665D01*
X112446000Y-95493461D01*
X112444140Y-96624897D01*
G37*
X112444140Y-96624897D02*
X112431832Y-97218712D01*
X112391868Y-97674773D01*
X112316373Y-98023501D01*
X112197470Y-98295316D01*
X112027285Y-98520638D01*
X111928002Y-98618527D01*
X111550015Y-98857578D01*
X111101722Y-98974430D01*
X110636888Y-98962123D01*
X110250477Y-98835702D01*
X109950536Y-98607287D01*
X109748034Y-98269923D01*
X109636892Y-97809359D01*
X109618671Y-97490532D01*
X110659468Y-97490532D01*
X110719392Y-97749408D01*
X110837869Y-97863805D01*
X111021728Y-97864694D01*
X111210594Y-97751969D01*
X111212286Y-97750286D01*
X111303877Y-97566406D01*
X111343207Y-97241504D01*
X111345333Y-97115286D01*
X111339006Y-96833613D01*
X111311272Y-96682151D01*
X111249000Y-96621980D01*
X111176000Y-96613333D01*
X110951999Y-96689160D01*
X110779989Y-96888637D01*
X110676852Y-97169762D01*
X110659468Y-97490532D01*
X109618671Y-97490532D01*
X109609667Y-97333000D01*
X109619550Y-96950076D01*
X109656895Y-96676605D01*
X109733242Y-96453455D01*
X109810147Y-96305814D01*
X110028706Y-96001963D01*
X110301270Y-95784648D01*
X110657375Y-95640851D01*
X111126554Y-95557559D01*
X111578167Y-95526665D01*
X112446000Y-95493461D01*
X112444140Y-96624897D01*
G36*
X83503433Y-72065526D02*
G01*
X83638940Y-72139179D01*
X83873585Y-72324677D01*
X84059394Y-72567557D01*
X84204138Y-72890297D01*
X84315588Y-73315376D01*
X84401513Y-73865273D01*
X84467606Y-74536500D01*
X84520447Y-75192667D01*
X81542667Y-75192667D01*
X81543361Y-74917500D01*
X81560705Y-74531241D01*
X81605833Y-74086014D01*
X81632316Y-73901500D01*
X82728472Y-73901500D01*
X82754645Y-74031185D01*
X82866100Y-74084082D01*
X83024333Y-74092000D01*
X83240348Y-74066140D01*
X83319116Y-73981103D01*
X83320667Y-73960159D01*
X83295153Y-73728219D01*
X83230919Y-73471596D01*
X83146425Y-73244262D01*
X83060132Y-73100193D01*
X83018262Y-73076000D01*
X82928100Y-73151299D01*
X82837524Y-73341870D01*
X82765136Y-73594723D01*
X82729538Y-73856866D01*
X82728472Y-73901500D01*
X81632316Y-73901500D01*
X81670967Y-73632210D01*
X81748326Y-73220218D01*
X81830132Y-72900430D01*
X81872428Y-72786009D01*
X82102380Y-72392178D01*
X82385385Y-72143811D01*
X82750962Y-72018680D01*
X82917849Y-71998806D01*
X83251512Y-71998102D01*
X83503433Y-72065526D01*
G37*
X83503433Y-72065526D02*
X83638940Y-72139179D01*
X83873585Y-72324677D01*
X84059394Y-72567557D01*
X84204138Y-72890297D01*
X84315588Y-73315376D01*
X84401513Y-73865273D01*
X84467606Y-74536500D01*
X84520447Y-75192667D01*
X81542667Y-75192667D01*
X81543361Y-74917500D01*
X81560705Y-74531241D01*
X81605833Y-74086014D01*
X81632316Y-73901500D01*
X82728472Y-73901500D01*
X82754645Y-74031185D01*
X82866100Y-74084082D01*
X83024333Y-74092000D01*
X83240348Y-74066140D01*
X83319116Y-73981103D01*
X83320667Y-73960159D01*
X83295153Y-73728219D01*
X83230919Y-73471596D01*
X83146425Y-73244262D01*
X83060132Y-73100193D01*
X83018262Y-73076000D01*
X82928100Y-73151299D01*
X82837524Y-73341870D01*
X82765136Y-73594723D01*
X82729538Y-73856866D01*
X82728472Y-73901500D01*
X81632316Y-73901500D01*
X81670967Y-73632210D01*
X81748326Y-73220218D01*
X81830132Y-72900430D01*
X81872428Y-72786009D01*
X82102380Y-72392178D01*
X82385385Y-72143811D01*
X82750962Y-72018680D01*
X82917849Y-71998806D01*
X83251512Y-71998102D01*
X83503433Y-72065526D01*
G36*
X69964500Y-73862672D02*
G01*
X70643794Y-73907564D01*
X71186281Y-73979672D01*
X71623348Y-74086587D01*
X71986379Y-74235902D01*
X72294483Y-74426262D01*
X72680312Y-74805631D01*
X72967042Y-75294783D01*
X73148080Y-75861668D01*
X73216833Y-76474235D01*
X73166708Y-77100436D01*
X72991110Y-77708220D01*
X72976747Y-77742679D01*
X72718495Y-78189821D01*
X72355852Y-78547658D01*
X71878841Y-78820388D01*
X71277484Y-79012210D01*
X70541804Y-79127320D01*
X69661822Y-79169918D01*
X69583500Y-79170323D01*
X68842667Y-79172000D01*
X68842667Y-78094647D01*
X69943333Y-78094647D01*
X70430167Y-78037814D01*
X70763926Y-77990500D01*
X71081222Y-77932122D01*
X71222037Y-77899250D01*
X71600132Y-77717707D01*
X71883661Y-77418047D01*
X72063839Y-77028150D01*
X72131882Y-76575896D01*
X72079007Y-76089163D01*
X71927759Y-75659248D01*
X71719731Y-75405400D01*
X71370770Y-75196104D01*
X70906082Y-75043189D01*
X70454574Y-74967979D01*
X69943333Y-74914544D01*
X69943333Y-78094647D01*
X68842667Y-78094647D01*
X68842667Y-73812637D01*
X69964500Y-73862672D01*
G37*
X69964500Y-73862672D02*
X70643794Y-73907564D01*
X71186281Y-73979672D01*
X71623348Y-74086587D01*
X71986379Y-74235902D01*
X72294483Y-74426262D01*
X72680312Y-74805631D01*
X72967042Y-75294783D01*
X73148080Y-75861668D01*
X73216833Y-76474235D01*
X73166708Y-77100436D01*
X72991110Y-77708220D01*
X72976747Y-77742679D01*
X72718495Y-78189821D01*
X72355852Y-78547658D01*
X71878841Y-78820388D01*
X71277484Y-79012210D01*
X70541804Y-79127320D01*
X69661822Y-79169918D01*
X69583500Y-79170323D01*
X68842667Y-79172000D01*
X68842667Y-78094647D01*
X69943333Y-78094647D01*
X70430167Y-78037814D01*
X70763926Y-77990500D01*
X71081222Y-77932122D01*
X71222037Y-77899250D01*
X71600132Y-77717707D01*
X71883661Y-77418047D01*
X72063839Y-77028150D01*
X72131882Y-76575896D01*
X72079007Y-76089163D01*
X71927759Y-75659248D01*
X71719731Y-75405400D01*
X71370770Y-75196104D01*
X70906082Y-75043189D01*
X70454574Y-74967979D01*
X69943333Y-74914544D01*
X69943333Y-78094647D01*
X68842667Y-78094647D01*
X68842667Y-73812637D01*
X69964500Y-73862672D01*
G36*
X70560215Y-68775794D02*
G01*
X71108513Y-68834138D01*
X71547598Y-68940476D01*
X71905899Y-69102251D01*
X72211842Y-69326906D01*
X72276514Y-69387020D01*
X72519693Y-69659542D01*
X72664705Y-69940210D01*
X72738905Y-70207840D01*
X72811545Y-70846219D01*
X72739475Y-71422711D01*
X72528488Y-71923165D01*
X72184378Y-72333427D01*
X71750929Y-72621149D01*
X71542368Y-72718355D01*
X71354262Y-72786731D01*
X71148620Y-72832354D01*
X70887449Y-72861305D01*
X70532760Y-72879661D01*
X70049167Y-72893439D01*
X68842667Y-72922544D01*
X68842667Y-71909893D01*
X69943333Y-71909893D01*
X70345500Y-71852208D01*
X70670073Y-71795172D01*
X70986876Y-71723596D01*
X71063803Y-71702601D01*
X71397145Y-71553510D01*
X71598125Y-71321240D01*
X71696621Y-70971112D01*
X71697109Y-70967503D01*
X71700532Y-70588861D01*
X71588873Y-70295818D01*
X71350219Y-70077926D01*
X70972658Y-69924735D01*
X70444280Y-69825798D01*
X70387833Y-69819073D01*
X69943333Y-69768168D01*
X69943333Y-71909893D01*
X68842667Y-71909893D01*
X68842667Y-68758000D01*
X69874279Y-68758000D01*
X70560215Y-68775794D01*
G37*
X70560215Y-68775794D02*
X71108513Y-68834138D01*
X71547598Y-68940476D01*
X71905899Y-69102251D01*
X72211842Y-69326906D01*
X72276514Y-69387020D01*
X72519693Y-69659542D01*
X72664705Y-69940210D01*
X72738905Y-70207840D01*
X72811545Y-70846219D01*
X72739475Y-71422711D01*
X72528488Y-71923165D01*
X72184378Y-72333427D01*
X71750929Y-72621149D01*
X71542368Y-72718355D01*
X71354262Y-72786731D01*
X71148620Y-72832354D01*
X70887449Y-72861305D01*
X70532760Y-72879661D01*
X70049167Y-72893439D01*
X68842667Y-72922544D01*
X68842667Y-71909893D01*
X69943333Y-71909893D01*
X70345500Y-71852208D01*
X70670073Y-71795172D01*
X70986876Y-71723596D01*
X71063803Y-71702601D01*
X71397145Y-71553510D01*
X71598125Y-71321240D01*
X71696621Y-70971112D01*
X71697109Y-70967503D01*
X71700532Y-70588861D01*
X71588873Y-70295818D01*
X71350219Y-70077926D01*
X70972658Y-69924735D01*
X70444280Y-69825798D01*
X70387833Y-69819073D01*
X69943333Y-69768168D01*
X69943333Y-71909893D01*
X68842667Y-71909893D01*
X68842667Y-68758000D01*
X69874279Y-68758000D01*
X70560215Y-68775794D01*
G36*
X133747284Y-72370202D02*
G01*
X134171207Y-72550674D01*
X134374611Y-72705022D01*
X134568612Y-72900937D01*
X134718682Y-73111525D01*
X134831047Y-73362019D01*
X134911938Y-73677652D01*
X134967581Y-74083656D01*
X135004205Y-74605265D01*
X135028038Y-75267711D01*
X135030436Y-75362000D01*
X135041227Y-76113768D01*
X135030682Y-76723710D01*
X134995751Y-77218343D01*
X134933384Y-77624182D01*
X134840530Y-77967746D01*
X134714140Y-78275550D01*
X134689551Y-78325333D01*
X134424327Y-78674083D01*
X134052920Y-78925393D01*
X133616115Y-79065934D01*
X133154695Y-79082377D01*
X132723667Y-78967814D01*
X132435979Y-78798486D01*
X132208892Y-78561738D01*
X132033157Y-78236319D01*
X131899521Y-77800980D01*
X131798734Y-77234471D01*
X131738591Y-76704993D01*
X131703025Y-76108656D01*
X131700536Y-75530559D01*
X132775826Y-75530559D01*
X132782117Y-76122482D01*
X132818324Y-76681728D01*
X132882305Y-77173537D01*
X132971915Y-77563153D01*
X133071722Y-77796167D01*
X133254009Y-77962519D01*
X133463723Y-77978201D01*
X133660515Y-77847721D01*
X133745776Y-77720852D01*
X133845461Y-77432320D01*
X133924333Y-77015060D01*
X133979371Y-76508739D01*
X134007554Y-75953027D01*
X134005861Y-75387591D01*
X133971272Y-74852099D01*
X133967190Y-74813544D01*
X133900706Y-74295326D01*
X133826214Y-73922895D01*
X133734951Y-73672706D01*
X133618156Y-73521214D01*
X133467067Y-73444874D01*
X133456867Y-73442206D01*
X133254254Y-73448341D01*
X133094152Y-73587682D01*
X132969581Y-73871316D01*
X132873558Y-74310332D01*
X132861566Y-74387712D01*
X132801595Y-74940716D01*
X132775826Y-75530559D01*
X131700536Y-75530559D01*
X131700248Y-75463668D01*
X131727540Y-74815474D01*
X131782180Y-74209517D01*
X131861446Y-73691241D01*
X131937676Y-73380108D01*
X132150112Y-72953119D01*
X132469736Y-72629646D01*
X132864103Y-72418676D01*
X133300768Y-72329199D01*
X133747284Y-72370202D01*
G37*
X133747284Y-72370202D02*
X134171207Y-72550674D01*
X134374611Y-72705022D01*
X134568612Y-72900937D01*
X134718682Y-73111525D01*
X134831047Y-73362019D01*
X134911938Y-73677652D01*
X134967581Y-74083656D01*
X135004205Y-74605265D01*
X135028038Y-75267711D01*
X135030436Y-75362000D01*
X135041227Y-76113768D01*
X135030682Y-76723710D01*
X134995751Y-77218343D01*
X134933384Y-77624182D01*
X134840530Y-77967746D01*
X134714140Y-78275550D01*
X134689551Y-78325333D01*
X134424327Y-78674083D01*
X134052920Y-78925393D01*
X133616115Y-79065934D01*
X133154695Y-79082377D01*
X132723667Y-78967814D01*
X132435979Y-78798486D01*
X132208892Y-78561738D01*
X132033157Y-78236319D01*
X131899521Y-77800980D01*
X131798734Y-77234471D01*
X131738591Y-76704993D01*
X131703025Y-76108656D01*
X131700536Y-75530559D01*
X132775826Y-75530559D01*
X132782117Y-76122482D01*
X132818324Y-76681728D01*
X132882305Y-77173537D01*
X132971915Y-77563153D01*
X133071722Y-77796167D01*
X133254009Y-77962519D01*
X133463723Y-77978201D01*
X133660515Y-77847721D01*
X133745776Y-77720852D01*
X133845461Y-77432320D01*
X133924333Y-77015060D01*
X133979371Y-76508739D01*
X134007554Y-75953027D01*
X134005861Y-75387591D01*
X133971272Y-74852099D01*
X133967190Y-74813544D01*
X133900706Y-74295326D01*
X133826214Y-73922895D01*
X133734951Y-73672706D01*
X133618156Y-73521214D01*
X133467067Y-73444874D01*
X133456867Y-73442206D01*
X133254254Y-73448341D01*
X133094152Y-73587682D01*
X132969581Y-73871316D01*
X132873558Y-74310332D01*
X132861566Y-74387712D01*
X132801595Y-74940716D01*
X132775826Y-75530559D01*
X131700536Y-75530559D01*
X131700248Y-75463668D01*
X131727540Y-74815474D01*
X131782180Y-74209517D01*
X131861446Y-73691241D01*
X131937676Y-73380108D01*
X132150112Y-72953119D01*
X132469736Y-72629646D01*
X132864103Y-72418676D01*
X133300768Y-72329199D01*
X133747284Y-72370202D01*
%TD*%
M02*
