M48
; DRILL file {KiCad 5.1.6-c6e7f7d~87~ubuntu20.04.1} date Fri Sep 18 07:37:38 2020
; FORMAT={-:-/ absolute / metric / decimal}
; #@! TF.CreationDate,2020-09-18T07:37:38-07:00
; #@! TF.GenerationSoftware,Kicad,Pcbnew,5.1.6-c6e7f7d~87~ubuntu20.04.1
FMAT,2
METRIC
T1C0.400
T2C0.550
T3C0.800
T4C0.900
T5C0.920
T6C1.000
T7C2.300
T8C4.300
%
G90
G05
T1
X-38.5Y35.0
X-38.5Y34.0
X-38.0Y31.5
X-38.0Y-31.5
T2
X-41.7Y33.0
X-41.7Y29.0
X-41.7Y-29.0
X-41.7Y-33.0
T4
X0.0Y25.5
X0.0Y23.0
X0.0Y21.0
X0.0Y-18.5
X0.0Y-21.0
X0.0Y-23.0
X25.0Y-18.5
X25.0Y-21.0
X25.0Y-23.0
X-25.0Y25.5
X-25.0Y23.0
X-25.0Y21.0
X25.0Y3.5
X25.0Y1.0
X25.0Y-1.0
X0.0Y3.5
X0.0Y1.0
X0.0Y-1.0
X-25.0Y3.5
X-25.0Y1.0
X-25.0Y-1.0
X-25.0Y-18.5
X-25.0Y-21.0
X-25.0Y-23.0
X25.0Y25.5
X25.0Y23.0
X25.0Y21.0
T6
X-36.54Y30.0
X-34.0Y30.0
X-36.54Y-30.0
X-34.0Y-30.0
T7
X-15.57Y-38.2
X-2.43Y-38.2
X38.2Y15.57
X38.2Y2.43
X2.43Y38.2
X15.57Y38.2
X2.43Y-38.2
X15.57Y-38.2
X2.2Y-15.43
X2.2Y-28.57
X38.2Y-20.43
X38.2Y-33.57
X-38.2Y-11.43
X-38.2Y-24.57
X27.2Y-15.43
X27.2Y-28.57
X-22.8Y28.57
X-22.8Y15.43
X-38.2Y6.57
X-38.2Y-6.57
X27.2Y6.57
X27.2Y-6.57
X2.2Y6.57
X2.2Y-6.57
X-22.8Y6.57
X-22.8Y-6.57
X-22.8Y-15.43
X-22.8Y-28.57
X27.2Y28.57
X27.2Y15.43
X20.43Y38.2
X33.57Y38.2
X-33.57Y-38.2
X-20.43Y-38.2
X20.43Y-38.2
X33.57Y-38.2
X38.2Y33.57
X38.2Y20.43
X-15.57Y38.2
X-2.43Y38.2
X-33.57Y38.2
X-20.43Y38.2
X2.2Y28.57
X2.2Y15.43
X38.2Y-2.43
X38.2Y-15.57
X-38.2Y24.57
X-38.2Y11.43
T8
X-39.75Y39.75
X-39.75Y-39.75
X39.75Y39.75
X39.75Y-39.75
T3
G00X-43.5Y34.6
M15
G01X-44.2Y34.6
M16
G05
G00X-43.5Y27.4
M15
G01X-44.2Y27.4
M16
G05
G00X-40.03Y34.6
M15
G01X-40.73Y34.6
M16
G05
G00X-40.03Y27.4
M15
G01X-40.73Y27.4
M16
G05
G00X-43.5Y-27.4
M15
G01X-44.2Y-27.4
M16
G05
G00X-43.5Y-34.6
M15
G01X-44.2Y-34.6
M16
G05
G00X-40.03Y-27.4
M15
G01X-40.73Y-27.4
M16
G05
G00X-40.03Y-34.6
M15
G01X-40.73Y-34.6
M16
G05
T4
G00X0.0Y18.5
M15
G01X0.0Y18.5
M16
G05
G00X0.0Y-25.5
M15
G01X0.0Y-25.5
M16
G05
G00X25.0Y-25.5
M15
G01X25.0Y-25.5
M16
G05
G00X-25.0Y18.5
M15
G01X-25.0Y18.5
M16
G05
G00X25.0Y-3.5
M15
G01X25.0Y-3.5
M16
G05
G00X0.0Y-3.5
M15
G01X0.0Y-3.5
M16
G05
G00X-25.0Y-3.5
M15
G01X-25.0Y-3.5
M16
G05
G00X-25.0Y-25.5
M15
G01X-25.0Y-25.5
M16
G05
G00X25.0Y18.5
M15
G01X25.0Y18.5
M16
G05
T5
G00X23.5Y35.49
M15
G01X23.5Y35.49
M16
G05
G00X26.0Y35.49
M15
G01X26.0Y35.49
M16
G05
G00X28.0Y35.49
M15
G01X28.0Y35.49
M16
G05
G00X30.5Y35.49
M15
G01X30.5Y35.49
M16
G05
G00X-30.5Y-35.49
M15
G01X-30.5Y-35.49
M16
G05
G00X-28.0Y-35.49
M15
G01X-28.0Y-35.49
M16
G05
G00X-26.0Y-35.49
M15
G01X-26.0Y-35.49
M16
G05
G00X-23.5Y-35.49
M15
G01X-23.5Y-35.49
M16
G05
G00X23.5Y-35.49
M15
G01X23.5Y-35.49
M16
G05
G00X26.0Y-35.49
M15
G01X26.0Y-35.49
M16
G05
G00X28.0Y-35.49
M15
G01X28.0Y-35.49
M16
G05
G00X30.5Y-35.49
M15
G01X30.5Y-35.49
M16
G05
G00X35.49Y30.5
M15
G01X35.49Y30.5
M16
G05
G00X35.49Y28.0
M15
G01X35.49Y28.0
M16
G05
G00X35.49Y26.0
M15
G01X35.49Y26.0
M16
G05
G00X35.49Y23.5
M15
G01X35.49Y23.5
M16
G05
G00X-12.5Y35.49
M15
G01X-12.5Y35.49
M16
G05
G00X-10.0Y35.49
M15
G01X-10.0Y35.49
M16
G05
G00X-8.0Y35.49
M15
G01X-8.0Y35.49
M16
G05
G00X-5.5Y35.49
M15
G01X-5.5Y35.49
M16
G05
G00X-30.5Y35.49
M15
G01X-30.5Y35.49
M16
G05
G00X-28.0Y35.49
M15
G01X-28.0Y35.49
M16
G05
G00X-26.0Y35.49
M15
G01X-26.0Y35.49
M16
G05
G00X-23.5Y35.49
M15
G01X-23.5Y35.49
M16
G05
G00X35.49Y-5.5
M15
G01X35.49Y-5.5
M16
G05
G00X35.49Y-8.0
M15
G01X35.49Y-8.0
M16
G05
G00X35.49Y-10.0
M15
G01X35.49Y-10.0
M16
G05
G00X35.49Y-12.5
M15
G01X35.49Y-12.5
M16
G05
G00X-35.49Y21.5
M15
G01X-35.49Y21.5
M16
G05
G00X-35.49Y19.0
M15
G01X-35.49Y19.0
M16
G05
G00X-35.49Y17.0
M15
G01X-35.49Y17.0
M16
G05
G00X-35.49Y14.5
M15
G01X-35.49Y14.5
M16
G05
G00X-12.5Y-35.49
M15
G01X-12.5Y-35.49
M16
G05
G00X-10.0Y-35.49
M15
G01X-10.0Y-35.49
M16
G05
G00X-8.0Y-35.49
M15
G01X-8.0Y-35.49
M16
G05
G00X-5.5Y-35.49
M15
G01X-5.5Y-35.49
M16
G05
G00X35.49Y12.5
M15
G01X35.49Y12.5
M16
G05
G00X35.49Y10.0
M15
G01X35.49Y10.0
M16
G05
G00X35.49Y8.0
M15
G01X35.49Y8.0
M16
G05
G00X35.49Y5.5
M15
G01X35.49Y5.5
M16
G05
G00X5.5Y35.49
M15
G01X5.5Y35.49
M16
G05
G00X8.0Y35.49
M15
G01X8.0Y35.49
M16
G05
G00X10.0Y35.49
M15
G01X10.0Y35.49
M16
G05
G00X12.5Y35.49
M15
G01X12.5Y35.49
M16
G05
G00X5.5Y-35.49
M15
G01X5.5Y-35.49
M16
G05
G00X8.0Y-35.49
M15
G01X8.0Y-35.49
M16
G05
G00X10.0Y-35.49
M15
G01X10.0Y-35.49
M16
G05
G00X12.5Y-35.49
M15
G01X12.5Y-35.49
M16
G05
G00X35.49Y-23.5
M15
G01X35.49Y-23.5
M16
G05
G00X35.49Y-26.0
M15
G01X35.49Y-26.0
M16
G05
G00X35.49Y-28.0
M15
G01X35.49Y-28.0
M16
G05
G00X35.49Y-30.5
M15
G01X35.49Y-30.5
M16
G05
G00X-35.49Y-14.5
M15
G01X-35.49Y-14.5
M16
G05
G00X-35.49Y-17.0
M15
G01X-35.49Y-17.0
M16
G05
G00X-35.49Y-19.0
M15
G01X-35.49Y-19.0
M16
G05
G00X-35.49Y-21.5
M15
G01X-35.49Y-21.5
M16
G05
G00X-35.49Y3.5
M15
G01X-35.49Y3.5
M16
G05
G00X-35.49Y1.0
M15
G01X-35.49Y1.0
M16
G05
G00X-35.49Y-1.0
M15
G01X-35.49Y-1.0
M16
G05
G00X-35.49Y-3.5
M15
G01X-35.49Y-3.5
M16
G05
T0
M30
