<?xml version="1.0" standalone="no"?>
 <!DOCTYPE svg PUBLIC "-//W3C//DTD SVG 1.1//EN" 
 "http://www.w3.org/Graphics/SVG/1.1/DTD/svg11.dtd"> 
<svg
  xmlns:svg="http://www.w3.org/2000/svg"
  xmlns="http://www.w3.org/2000/svg"
  xmlns:xlink="http://www.w3.org/1999/xlink"
  version="1.1"
  width="29.700220cm" height="21.000720cm" viewBox="0 0 116930 82680">
<title>SVG Picture created as ft4232h-breakout-B_Mask.svg date 2021/12/19 18:17:36 </title>
  <desc>Picture generated by PCBNEW </desc>
<g style="fill:#000000; fill-opacity:1;stroke:#000000; stroke-opacity:1;
stroke-linecap:round; stroke-linejoin:round;"
 transform="translate(0 0) scale(1 1)">
</g>
<g style="fill:#000000; fill-opacity:0.0; 
stroke:#000000; stroke-width:-0.000393701; stroke-opacity:1; 
stroke-linecap:round; stroke-linejoin:round;">
<g >
</g>
<g style="fill:#000000; fill-opacity:1.0; 
stroke:#000000; stroke-width:0; stroke-opacity:1; 
stroke-linecap:round; stroke-linejoin:round;">
<circle cx="77930" cy="34500" r="1476.38" /> 
</g>
<g style="fill:#000000; fill-opacity:1.0; 
stroke:#000000; stroke-width:98.4252; stroke-opacity:1; 
stroke-linecap:round; stroke-linejoin:round;">
</g>
<g >
</g>
<g style="fill:#000000; fill-opacity:1.0; 
stroke:#000000; stroke-width:98.4252; stroke-opacity:1; 
stroke-linecap:round; stroke-linejoin:round;">
</g>
<g style="fill:#000000; fill-opacity:1.0; 
stroke:#000000; stroke-width:0; stroke-opacity:1; 
stroke-linecap:round; stroke-linejoin:round;">
<circle cx="88730" cy="33500" r="334.646" /> 
<circle cx="88730" cy="34500" r="334.646" /> 
<circle cx="88730" cy="35500" r="334.646" /> 
<circle cx="88730" cy="36500" r="334.646" /> 
<circle cx="88730" cy="37500" r="334.646" /> 
<circle cx="88730" cy="38500" r="334.646" /> 
<path style="fill:#000000; fill-opacity:1.0; 
stroke:#000000; stroke-width:0; stroke-opacity:1; 
stroke-linecap:round; stroke-linejoin:round;fill-rule:evenodd;"
d="M 88395.4,39165.4
88395.4,39834.6
89064.6,39834.6
89064.6,39165.4
Z" /> 
</g>
<g >
</g>
<g style="fill:#000000; fill-opacity:1.0; 
stroke:#000000; stroke-width:0; stroke-opacity:1; 
stroke-linecap:round; stroke-linejoin:round;">
<circle cx="88730" cy="41500" r="334.646" /> 
<circle cx="88730" cy="42500" r="334.646" /> 
<circle cx="88730" cy="43500" r="334.646" /> 
<circle cx="88730" cy="44500" r="334.646" /> 
<circle cx="88730" cy="45500" r="334.646" /> 
<circle cx="88730" cy="46500" r="334.646" /> 
<path style="fill:#000000; fill-opacity:1.0; 
stroke:#000000; stroke-width:0; stroke-opacity:1; 
stroke-linecap:round; stroke-linejoin:round;fill-rule:evenodd;"
d="M 88395.4,47165.4
88395.4,47834.6
89064.6,47834.6
89064.6,47165.4
Z" /> 
</g>
<g >
</g>
<g style="fill:#000000; fill-opacity:1.0; 
stroke:#000000; stroke-width:0; stroke-opacity:1; 
stroke-linecap:round; stroke-linejoin:round;">
<circle cx="84930" cy="49000" r="334.646" /> 
<circle cx="83930" cy="49000" r="334.646" /> 
<path style="fill:#000000; fill-opacity:1.0; 
stroke:#000000; stroke-width:0; stroke-opacity:1; 
stroke-linecap:round; stroke-linejoin:round;fill-rule:evenodd;"
d="M 83264.6,48665.4
82595.4,48665.4
82595.4,49334.6
83264.6,49334.6
Z" /> 
</g>
<g >
</g>
<g style="fill:#000000; fill-opacity:1.0; 
stroke:#000000; stroke-width:0; stroke-opacity:1; 
stroke-linecap:round; stroke-linejoin:round;">
<circle cx="80930" cy="49000" r="334.646" /> 
<circle cx="79930" cy="49000" r="334.646" /> 
<path style="fill:#000000; fill-opacity:1.0; 
stroke:#000000; stroke-width:0; stroke-opacity:1; 
stroke-linecap:round; stroke-linejoin:round;fill-rule:evenodd;"
d="M 79264.6,48665.4
78595.4,48665.4
78595.4,49334.6
79264.6,49334.6
Z" /> 
</g>
<g >
</g>
<g style="fill:#000000; fill-opacity:1.0; 
stroke:#000000; stroke-width:0; stroke-opacity:1; 
stroke-linecap:round; stroke-linejoin:round;">
<path style="fill:#000000; fill-opacity:1.0; 
stroke:#000000; stroke-width:0; stroke-opacity:1; 
stroke-linecap:round; stroke-linejoin:round;fill-rule:evenodd;"
d="M 87141,39146.7
87131.7,39148.1
87122.5,39150.4
87113.6,39153.6
87105.1,39157.6
87097.1,39162.4
87089.5,39168
87082.5,39174.4
87076.2,39181.3
87070.6,39188.9
87065.7,39197
87061.7,39205.5
87058.5,39214.4
87056.3,39223.5
87054.9,39232.8
87054.4,39242.2
87054.4,39434.2
87054.9,39443.6
87056.3,39452.9
87058.5,39462
87061.7,39470.9
87065.7,39479.4
87070.6,39487.5
87076.2,39495
87082.5,39502
87089.5,39508.3
87097.1,39513.9
87105.1,39518.8
87113.6,39522.8
87122.5,39526
87131.7,39528.3
87141,39529.7
87150.4,39530.1
87509.6,39530.1
87519,39529.7
87528.3,39528.3
87537.5,39526
87546.4,39522.8
87554.9,39518.8
87562.9,39513.9
87570.5,39508.3
87577.5,39502
87583.8,39495
87589.4,39487.5
87594.3,39479.4
87598.3,39470.9
87601.5,39462
87603.7,39452.9
87605.1,39443.6
87605.6,39434.2
87605.6,39242.2
87605.1,39232.8
87603.7,39223.5
87601.5,39214.4
87598.3,39205.5
87594.3,39197
87589.4,39188.9
87583.8,39181.3
87577.5,39174.4
87570.5,39168
87562.9,39162.4
87554.9,39157.6
87546.4,39153.6
87537.5,39150.4
87528.3,39148.1
87519,39146.7
87509.6,39146.3
87150.4,39146.3
Z" /> 
<path style="fill:#000000; fill-opacity:1.0; 
stroke:#000000; stroke-width:0; stroke-opacity:1; 
stroke-linecap:round; stroke-linejoin:round;fill-rule:evenodd;"
d="M 87141,38408.5
87131.7,38409.9
87122.5,38412.2
87113.6,38415.4
87105.1,38419.4
87097.1,38424.2
87089.5,38429.9
87082.5,38436.2
87076.2,38443.2
87070.6,38450.7
87065.7,38458.8
87061.7,38467.3
87058.5,38476.2
87056.3,38485.3
87054.9,38494.6
87054.4,38504
87054.4,38696
87054.9,38705.4
87056.3,38714.7
87058.5,38723.8
87061.7,38732.7
87065.7,38741.2
87070.6,38749.3
87076.2,38756.8
87082.5,38763.8
87089.5,38770.1
87097.1,38775.8
87105.1,38780.6
87113.6,38784.6
87122.5,38787.8
87131.7,38790.1
87141,38791.5
87150.4,38791.9
87509.6,38791.9
87519,38791.5
87528.3,38790.1
87537.5,38787.8
87546.4,38784.6
87554.9,38780.6
87562.9,38775.8
87570.5,38770.1
87577.5,38763.8
87583.8,38756.8
87589.4,38749.3
87594.3,38741.2
87598.3,38732.7
87601.5,38723.8
87603.7,38714.7
87605.1,38705.4
87605.6,38696
87605.6,38504
87605.1,38494.6
87603.7,38485.3
87601.5,38476.2
87598.3,38467.3
87594.3,38458.8
87589.4,38450.7
87583.8,38443.2
87577.5,38436.2
87570.5,38429.9
87562.9,38424.2
87554.9,38419.4
87546.4,38415.4
87537.5,38412.2
87528.3,38409.9
87519,38408.5
87509.6,38408.1
87150.4,38408.1
Z" /> 
</g>
<g >
</g>
<g style="fill:#000000; fill-opacity:1.0; 
stroke:#000000; stroke-width:0; stroke-opacity:1; 
stroke-linecap:round; stroke-linejoin:round;">
<path style="fill:#000000; fill-opacity:1.0; 
stroke:#000000; stroke-width:0; stroke-opacity:1; 
stroke-linecap:round; stroke-linejoin:round;fill-rule:evenodd;"
d="M 87141,46946.7
87131.7,46948.1
87122.5,46950.4
87113.6,46953.6
87105.1,46957.6
87097.1,46962.4
87089.5,46968
87082.5,46974.4
87076.2,46981.3
87070.6,46988.9
87065.7,46997
87061.7,47005.5
87058.5,47014.4
87056.3,47023.5
87054.9,47032.8
87054.4,47042.2
87054.4,47234.2
87054.9,47243.6
87056.3,47252.9
87058.5,47262
87061.7,47270.9
87065.7,47279.4
87070.6,47287.5
87076.2,47295
87082.5,47302
87089.5,47308.3
87097.1,47313.9
87105.1,47318.8
87113.6,47322.8
87122.5,47326
87131.7,47328.3
87141,47329.7
87150.4,47330.1
87509.6,47330.1
87519,47329.7
87528.3,47328.3
87537.5,47326
87546.4,47322.8
87554.9,47318.8
87562.9,47313.9
87570.5,47308.3
87577.5,47302
87583.8,47295
87589.4,47287.5
87594.3,47279.4
87598.3,47270.9
87601.5,47262
87603.7,47252.9
87605.1,47243.6
87605.6,47234.2
87605.6,47042.2
87605.1,47032.8
87603.7,47023.5
87601.5,47014.4
87598.3,47005.5
87594.3,46997
87589.4,46988.9
87583.8,46981.3
87577.5,46974.4
87570.5,46968
87562.9,46962.4
87554.9,46957.6
87546.4,46953.6
87537.5,46950.4
87528.3,46948.1
87519,46946.7
87509.6,46946.3
87150.4,46946.3
Z" /> 
<path style="fill:#000000; fill-opacity:1.0; 
stroke:#000000; stroke-width:0; stroke-opacity:1; 
stroke-linecap:round; stroke-linejoin:round;fill-rule:evenodd;"
d="M 87141,46208.5
87131.7,46209.9
87122.5,46212.2
87113.6,46215.4
87105.1,46219.4
87097.1,46224.2
87089.5,46229.9
87082.5,46236.2
87076.2,46243.2
87070.6,46250.7
87065.7,46258.8
87061.7,46267.3
87058.5,46276.2
87056.3,46285.3
87054.9,46294.6
87054.4,46304
87054.4,46496
87054.9,46505.4
87056.3,46514.7
87058.5,46523.8
87061.7,46532.7
87065.7,46541.2
87070.6,46549.3
87076.2,46556.8
87082.5,46563.8
87089.5,46570.1
87097.1,46575.8
87105.1,46580.6
87113.6,46584.6
87122.5,46587.8
87131.7,46590.1
87141,46591.5
87150.4,46591.9
87509.6,46591.9
87519,46591.5
87528.3,46590.1
87537.5,46587.8
87546.4,46584.6
87554.9,46580.6
87562.9,46575.8
87570.5,46570.1
87577.5,46563.8
87583.8,46556.8
87589.4,46549.3
87594.3,46541.2
87598.3,46532.7
87601.5,46523.8
87603.7,46514.7
87605.1,46505.4
87605.6,46496
87605.6,46304
87605.1,46294.6
87603.7,46285.3
87601.5,46276.2
87598.3,46267.3
87594.3,46258.8
87589.4,46250.7
87583.8,46243.2
87577.5,46236.2
87570.5,46229.9
87562.9,46224.2
87554.9,46219.4
87546.4,46215.4
87537.5,46212.2
87528.3,46209.9
87519,46208.5
87509.6,46208.1
87150.4,46208.1
Z" /> 
</g>
<g >
</g>
<g >
</g>
<g >
</g>
<g style="fill:#000000; fill-opacity:1.0; 
stroke:#000000; stroke-width:0; stroke-opacity:1; 
stroke-linecap:round; stroke-linejoin:round;">
</g>
<g style="fill:#000000; fill-opacity:1.0; 
stroke:#000000; stroke-width:787.402; stroke-opacity:1; 
stroke-linecap:round; stroke-linejoin:round;">
</g>
<g style="fill:#000000; fill-opacity:0.0; 
stroke:#000000; stroke-width:787.402; stroke-opacity:1; 
stroke-linecap:round; stroke-linejoin:round;">
<path d="M81565 45645
L81172 45645
" />
<path d="M72559 43645
L72166 43645
" />
<path d="M81565 42645
L81172 42645
" />
<path d="M72559 45645
L72166 45645
" />
<path d="M73554 45645
L73947 45645
" />
<path d="M73554 43645
L73947 43645
" />
<path d="M82559 45645
L82953 45645
" />
<path d="M81565 41645
L81172 41645
" />
<path d="M73554 44645
L73947 44645
" />
<path d="M73554 42645
L73947 42645
" />
<path d="M72559 41645
L72166 41645
" />
<path d="M73554 41645
L73947 41645
" />
<path d="M81565 44645
L81172 44645
" />
<path d="M82559 41645
L82953 41645
" />
<path d="M72559 44645
L72166 44645
" />
<path d="M81565 43645
L81172 43645
" />
<path d="M82559 42645
L82953 42645
" />
<path d="M82559 43645
L82953 43645
" />
<path d="M72559 42645
L72166 42645
" />
<path d="M82559 44645
L82953 44645
" />
<path d="M72559 38645
L72166 38645
" />
<path d="M73554 38645
L73947 38645
" />
<path d="M82559 39645
L82953 39645
" />
<path d="M72559 37645
L72166 37645
" />
<path d="M73554 39645
L73947 39645
" />
<path d="M81565 39645
L81172 39645
" />
<path d="M82559 37645
L82953 37645
" />
<path d="M73554 37645
L73947 37645
" />
<path d="M72559 39645
L72166 39645
" />
<path d="M81565 37645
L81172 37645
" />
<path d="M81565 40645
L81172 40645
" />
<path d="M72559 40645
L72166 40645
" />
<path d="M81565 38645
L81172 38645
" />
<path d="M73554 40645
L73947 40645
" />
<path d="M82559 40645
L82953 40645
" />
<path d="M82559 38645
L82953 38645
" />
<path d="M72559 36645
L72166 36645
" />
<path d="M73554 36645
L73947 36645
" />
<path d="M72559 35645
L72166 35645
" />
<path d="M82559 35645
L82953 35645
" />
<path d="M73554 35645
L73947 35645
" />
<path d="M81565 35645
L81172 35645
" />
<path d="M81565 36645
L81172 36645
" />
<path d="M82559 36645
L82953 36645
" />
<path d="M72559 34645
L72166 34645
" />
<path d="M82559 34645
L82953 34645
" />
<path d="M73554 34645
L73947 34645
" />
<path d="M81565 34645
L81172 34645
" />
<path d="M82559 33645
L82953 33645
" />
<path d="M72559 33645
L72166 33645
" />
<path d="M81565 33645
L81172 33645
" />
<path d="M73554 33645
L73947 33645
" />
</g>
<g >
</g>
<g style="fill:#000000; fill-opacity:0.0; 
stroke:#000000; stroke-width:787.402; stroke-opacity:1; 
stroke-linecap:round; stroke-linejoin:round;">
</g>
<g style="fill:#000000; fill-opacity:1.0; 
stroke:#000000; stroke-width:0; stroke-opacity:1; 
stroke-linecap:round; stroke-linejoin:round;">
<circle cx="66430" cy="47500" r="334.646" /> 
<circle cx="66430" cy="46500" r="334.646" /> 
<circle cx="66430" cy="45500" r="334.646" /> 
<circle cx="66430" cy="44500" r="334.646" /> 
<circle cx="66430" cy="43500" r="334.646" /> 
<circle cx="66430" cy="42500" r="334.646" /> 
<path style="fill:#000000; fill-opacity:1.0; 
stroke:#000000; stroke-width:0; stroke-opacity:1; 
stroke-linecap:round; stroke-linejoin:round;fill-rule:evenodd;"
d="M 66764.6,41834.6
66764.6,41165.4
66095.4,41165.4
66095.4,41834.6
Z" /> 
</g>
<g >
</g>
<g style="fill:#000000; fill-opacity:1.0; 
stroke:#000000; stroke-width:0; stroke-opacity:1; 
stroke-linecap:round; stroke-linejoin:round;">
<circle cx="66430" cy="39500" r="334.646" /> 
<circle cx="66430" cy="38500" r="334.646" /> 
<circle cx="66430" cy="37500" r="334.646" /> 
<circle cx="66430" cy="36500" r="334.646" /> 
<circle cx="66430" cy="35500" r="334.646" /> 
<circle cx="66430" cy="34500" r="334.646" /> 
<path style="fill:#000000; fill-opacity:1.0; 
stroke:#000000; stroke-width:0; stroke-opacity:1; 
stroke-linecap:round; stroke-linejoin:round;fill-rule:evenodd;"
d="M 66764.6,33834.6
66764.6,33165.4
66095.4,33165.4
66095.4,33834.6
Z" /> 
</g>
<g >
</g>
<g style="fill:#000000; fill-opacity:1.0; 
stroke:#000000; stroke-width:0; stroke-opacity:1; 
stroke-linecap:round; stroke-linejoin:round;">
<circle cx="76930" cy="49000" r="334.646" /> 
<circle cx="75930" cy="49000" r="334.646" /> 
<path style="fill:#000000; fill-opacity:1.0; 
stroke:#000000; stroke-width:0; stroke-opacity:1; 
stroke-linecap:round; stroke-linejoin:round;fill-rule:evenodd;"
d="M 75264.6,48665.4
74595.4,48665.4
74595.4,49334.6
75264.6,49334.6
Z" /> 
</g>
<g >
</g>
<g style="fill:#000000; fill-opacity:1.0; 
stroke:#000000; stroke-width:0; stroke-opacity:1; 
stroke-linecap:round; stroke-linejoin:round;">
<circle cx="72930" cy="49000" r="334.646" /> 
<circle cx="71930" cy="49000" r="334.646" /> 
<path style="fill:#000000; fill-opacity:1.0; 
stroke:#000000; stroke-width:0; stroke-opacity:1; 
stroke-linecap:round; stroke-linejoin:round;fill-rule:evenodd;"
d="M 71264.6,48665.4
70595.4,48665.4
70595.4,49334.6
71264.6,49334.6
Z" /> 
</g>
<g >
</g>
<g style="fill:#000000; fill-opacity:1.0; 
stroke:#000000; stroke-width:0; stroke-opacity:1; 
stroke-linecap:round; stroke-linejoin:round;">
<path style="fill:#000000; fill-opacity:1.0; 
stroke:#000000; stroke-width:0; stroke-opacity:1; 
stroke-linecap:round; stroke-linejoin:round;fill-rule:evenodd;"
d="M 67741,33439.4
67731.7,33440.8
67722.5,33443.1
67713.6,33446.3
67705.1,33450.3
67697.1,33455.1
67689.5,33460.8
67682.5,33467.1
67676.2,33474.1
67670.6,33481.6
67665.7,33489.7
67661.7,33498.2
67658.5,33507.1
67656.3,33516.2
67654.9,33525.5
67654.4,33534.9
67654.4,33726.9
67654.9,33736.3
67656.3,33745.6
67658.5,33754.7
67661.7,33763.6
67665.7,33772.1
67670.6,33780.2
67676.2,33787.7
67682.5,33794.7
67689.5,33801.1
67697.1,33806.7
67705.1,33811.5
67713.6,33815.5
67722.5,33818.7
67731.7,33821
67741,33822.4
67750.4,33822.8
68109.6,33822.8
68119,33822.4
68128.3,33821
68137.5,33818.7
68146.4,33815.5
68154.9,33811.5
68162.9,33806.7
68170.5,33801.1
68177.5,33794.7
68183.8,33787.7
68189.4,33780.2
68194.3,33772.1
68198.3,33763.6
68201.5,33754.7
68203.7,33745.6
68205.1,33736.3
68205.6,33726.9
68205.6,33534.9
68205.1,33525.5
68203.7,33516.2
68201.5,33507.1
68198.3,33498.2
68194.3,33489.7
68189.4,33481.6
68183.8,33474.1
68177.5,33467.1
68170.5,33460.8
68162.9,33455.1
68154.9,33450.3
68146.4,33446.3
68137.5,33443.1
68128.3,33440.8
68119,33439.4
68109.6,33439
67750.4,33439
Z" /> 
<path style="fill:#000000; fill-opacity:1.0; 
stroke:#000000; stroke-width:0; stroke-opacity:1; 
stroke-linecap:round; stroke-linejoin:round;fill-rule:evenodd;"
d="M 67741,34177.6
67731.7,34179
67722.5,34181.3
67713.6,34184.5
67705.1,34188.5
67697.1,34193.3
67689.5,34198.9
67682.5,34205.3
67676.2,34212.3
67670.6,34219.8
67665.7,34227.9
67661.7,34236.4
67658.5,34245.3
67656.3,34254.4
67654.9,34263.7
67654.4,34273.1
67654.4,34465.1
67654.9,34474.5
67656.3,34483.8
67658.5,34492.9
67661.7,34501.8
67665.7,34510.3
67670.6,34518.4
67676.2,34525.9
67682.5,34532.9
67689.5,34539.2
67697.1,34544.9
67705.1,34549.7
67713.6,34553.7
67722.5,34556.9
67731.7,34559.2
67741,34560.6
67750.4,34561
68109.6,34561
68119,34560.6
68128.3,34559.2
68137.5,34556.9
68146.4,34553.7
68154.9,34549.7
68162.9,34544.9
68170.5,34539.2
68177.5,34532.9
68183.8,34525.9
68189.4,34518.4
68194.3,34510.3
68198.3,34501.8
68201.5,34492.9
68203.7,34483.8
68205.1,34474.5
68205.6,34465.1
68205.6,34273.1
68205.1,34263.7
68203.7,34254.4
68201.5,34245.3
68198.3,34236.4
68194.3,34227.9
68189.4,34219.8
68183.8,34212.3
68177.5,34205.3
68170.5,34198.9
68162.9,34193.3
68154.9,34188.5
68146.4,34184.5
68137.5,34181.3
68128.3,34179
68119,34177.6
68109.6,34177.2
67750.4,34177.2
Z" /> 
</g>
<g >
</g>
<g style="fill:#000000; fill-opacity:1.0; 
stroke:#000000; stroke-width:0; stroke-opacity:1; 
stroke-linecap:round; stroke-linejoin:round;">
<path style="fill:#000000; fill-opacity:1.0; 
stroke:#000000; stroke-width:0; stroke-opacity:1; 
stroke-linecap:round; stroke-linejoin:round;fill-rule:evenodd;"
d="M 67741,41439.4
67731.7,41440.8
67722.5,41443.1
67713.6,41446.3
67705.1,41450.3
67697.1,41455.1
67689.5,41460.8
67682.5,41467.1
67676.2,41474.1
67670.6,41481.6
67665.7,41489.7
67661.7,41498.2
67658.5,41507.1
67656.3,41516.2
67654.9,41525.5
67654.4,41534.9
67654.4,41726.9
67654.9,41736.3
67656.3,41745.6
67658.5,41754.7
67661.7,41763.6
67665.7,41772.1
67670.6,41780.2
67676.2,41787.7
67682.5,41794.7
67689.5,41801.1
67697.1,41806.7
67705.1,41811.5
67713.6,41815.5
67722.5,41818.7
67731.7,41821
67741,41822.4
67750.4,41822.8
68109.6,41822.8
68119,41822.4
68128.3,41821
68137.5,41818.7
68146.4,41815.5
68154.9,41811.5
68162.9,41806.7
68170.5,41801.1
68177.5,41794.7
68183.8,41787.7
68189.4,41780.2
68194.3,41772.1
68198.3,41763.6
68201.5,41754.7
68203.7,41745.6
68205.1,41736.3
68205.6,41726.9
68205.6,41534.9
68205.1,41525.5
68203.7,41516.2
68201.5,41507.1
68198.3,41498.2
68194.3,41489.7
68189.4,41481.6
68183.8,41474.1
68177.5,41467.1
68170.5,41460.8
68162.9,41455.1
68154.9,41450.3
68146.4,41446.3
68137.5,41443.1
68128.3,41440.8
68119,41439.4
68109.6,41439
67750.4,41439
Z" /> 
<path style="fill:#000000; fill-opacity:1.0; 
stroke:#000000; stroke-width:0; stroke-opacity:1; 
stroke-linecap:round; stroke-linejoin:round;fill-rule:evenodd;"
d="M 67741,42177.6
67731.7,42179
67722.5,42181.3
67713.6,42184.5
67705.1,42188.5
67697.1,42193.3
67689.5,42198.9
67682.5,42205.3
67676.2,42212.3
67670.6,42219.8
67665.7,42227.9
67661.7,42236.4
67658.5,42245.3
67656.3,42254.4
67654.9,42263.7
67654.4,42273.1
67654.4,42465.1
67654.9,42474.5
67656.3,42483.8
67658.5,42492.9
67661.7,42501.8
67665.7,42510.3
67670.6,42518.4
67676.2,42525.9
67682.5,42532.9
67689.5,42539.2
67697.1,42544.9
67705.1,42549.7
67713.6,42553.7
67722.5,42556.9
67731.7,42559.2
67741,42560.6
67750.4,42561
68109.6,42561
68119,42560.6
68128.3,42559.2
68137.5,42556.9
68146.4,42553.7
68154.9,42549.7
68162.9,42544.9
68170.5,42539.2
68177.5,42532.9
68183.8,42525.9
68189.4,42518.4
68194.3,42510.3
68198.3,42501.8
68201.5,42492.9
68203.7,42483.8
68205.1,42474.5
68205.6,42465.1
68205.6,42273.1
68205.1,42263.7
68203.7,42254.4
68201.5,42245.3
68198.3,42236.4
68194.3,42227.9
68189.4,42219.8
68183.8,42212.3
68177.5,42205.3
68170.5,42198.9
68162.9,42193.3
68154.9,42188.5
68146.4,42184.5
68137.5,42181.3
68128.3,42179
68119,42177.6
68109.6,42177.2
67750.4,42177.2
Z" /> 
</g>
<g >
</g>
<g style="fill:#000000; fill-opacity:1.0; 
stroke:#000000; stroke-width:0; stroke-opacity:1; 
stroke-linecap:round; stroke-linejoin:round;">
<path style="fill:#000000; fill-opacity:1.0; 
stroke:#000000; stroke-width:0; stroke-opacity:1; 
stroke-linecap:round; stroke-linejoin:round;fill-rule:evenodd;"
d="M 83991,35177.6
83981.7,35179
83972.5,35181.3
83963.6,35184.5
83955.1,35188.5
83947.1,35193.3
83939.5,35198.9
83932.5,35205.3
83926.2,35212.3
83920.6,35219.8
83915.7,35227.9
83911.7,35236.4
83908.5,35245.3
83906.3,35254.4
83904.9,35263.7
83904.4,35273.1
83904.4,35465.1
83904.9,35474.5
83906.3,35483.8
83908.5,35492.9
83911.7,35501.8
83915.7,35510.3
83920.6,35518.4
83926.2,35525.9
83932.5,35532.9
83939.5,35539.2
83947.1,35544.9
83955.1,35549.7
83963.6,35553.7
83972.5,35556.9
83981.7,35559.2
83991,35560.6
84000.4,35561
84359.6,35561
84369,35560.6
84378.3,35559.2
84387.5,35556.9
84396.4,35553.7
84404.9,35549.7
84412.9,35544.9
84420.5,35539.2
84427.5,35532.9
84433.8,35525.9
84439.4,35518.4
84444.3,35510.3
84448.3,35501.8
84451.5,35492.9
84453.7,35483.8
84455.1,35474.5
84455.6,35465.1
84455.6,35273.1
84455.1,35263.7
84453.7,35254.4
84451.5,35245.3
84448.3,35236.4
84444.3,35227.9
84439.4,35219.8
84433.8,35212.3
84427.5,35205.3
84420.5,35198.9
84412.9,35193.3
84404.9,35188.5
84396.4,35184.5
84387.5,35181.3
84378.3,35179
84369,35177.6
84359.6,35177.2
84000.4,35177.2
Z" /> 
<path style="fill:#000000; fill-opacity:1.0; 
stroke:#000000; stroke-width:0; stroke-opacity:1; 
stroke-linecap:round; stroke-linejoin:round;fill-rule:evenodd;"
d="M 83991,34439.4
83981.7,34440.8
83972.5,34443.1
83963.6,34446.3
83955.1,34450.3
83947.1,34455.1
83939.5,34460.8
83932.5,34467.1
83926.2,34474.1
83920.6,34481.6
83915.7,34489.7
83911.7,34498.2
83908.5,34507.1
83906.3,34516.2
83904.9,34525.5
83904.4,34534.9
83904.4,34726.9
83904.9,34736.3
83906.3,34745.6
83908.5,34754.7
83911.7,34763.6
83915.7,34772.1
83920.6,34780.2
83926.2,34787.7
83932.5,34794.7
83939.5,34801.1
83947.1,34806.7
83955.1,34811.5
83963.6,34815.5
83972.5,34818.7
83981.7,34821
83991,34822.4
84000.4,34822.8
84359.6,34822.8
84369,34822.4
84378.3,34821
84387.5,34818.7
84396.4,34815.5
84404.9,34811.5
84412.9,34806.7
84420.5,34801.1
84427.5,34794.7
84433.8,34787.7
84439.4,34780.2
84444.3,34772.1
84448.3,34763.6
84451.5,34754.7
84453.7,34745.6
84455.1,34736.3
84455.6,34726.9
84455.6,34534.9
84455.1,34525.5
84453.7,34516.2
84451.5,34507.1
84448.3,34498.2
84444.3,34489.7
84439.4,34481.6
84433.8,34474.1
84427.5,34467.1
84420.5,34460.8
84412.9,34455.1
84404.9,34450.3
84396.4,34446.3
84387.5,34443.1
84378.3,34440.8
84369,34439.4
84359.6,34439
84000.4,34439
Z" /> 
</g>
<g >
</g>
<g >
</g>
<g >
</g>
<g >
</g>
</g> 
</svg>
