G04 #@! TF.GenerationSoftware,KiCad,Pcbnew,7.0.2-6a45011f42~172~ubuntu22.04.1*
G04 #@! TF.CreationDate,2023-04-23T17:07:22-07:00*
G04 #@! TF.ProjectId,esp8266-plugpack,65737038-3236-4362-9d70-6c7567706163,rev?*
G04 #@! TF.SameCoordinates,Original*
G04 #@! TF.FileFunction,Legend,Bot*
G04 #@! TF.FilePolarity,Positive*
%FSLAX46Y46*%
G04 Gerber Fmt 4.6, Leading zero omitted, Abs format (unit mm)*
G04 Created by KiCad (PCBNEW 7.0.2-6a45011f42~172~ubuntu22.04.1) date 2023-04-23 17:07:22*
%MOMM*%
%LPD*%
G01*
G04 APERTURE LIST*
%ADD10C,0.300000*%
G04 APERTURE END LIST*
D10*
X80590000Y-106404761D02*
X80685238Y-106214285D01*
X80685238Y-106214285D02*
X80685238Y-105833332D01*
X80685238Y-105833332D02*
X80590000Y-105642856D01*
X80590000Y-105642856D02*
X80399523Y-105547618D01*
X80399523Y-105547618D02*
X79637619Y-105547618D01*
X79637619Y-105547618D02*
X79447142Y-105642856D01*
X79447142Y-105642856D02*
X79351904Y-105833332D01*
X79351904Y-105833332D02*
X79351904Y-106214285D01*
X79351904Y-106214285D02*
X79447142Y-106404761D01*
X79447142Y-106404761D02*
X79637619Y-106499999D01*
X79637619Y-106499999D02*
X79828095Y-106499999D01*
X79828095Y-106499999D02*
X80018571Y-105547618D01*
X80590000Y-107261904D02*
X80685238Y-107452380D01*
X80685238Y-107452380D02*
X80685238Y-107833332D01*
X80685238Y-107833332D02*
X80590000Y-108023809D01*
X80590000Y-108023809D02*
X80399523Y-108119047D01*
X80399523Y-108119047D02*
X80304285Y-108119047D01*
X80304285Y-108119047D02*
X80113809Y-108023809D01*
X80113809Y-108023809D02*
X80018571Y-107833332D01*
X80018571Y-107833332D02*
X80018571Y-107547618D01*
X80018571Y-107547618D02*
X79923333Y-107357142D01*
X79923333Y-107357142D02*
X79732857Y-107261904D01*
X79732857Y-107261904D02*
X79637619Y-107261904D01*
X79637619Y-107261904D02*
X79447142Y-107357142D01*
X79447142Y-107357142D02*
X79351904Y-107547618D01*
X79351904Y-107547618D02*
X79351904Y-107833332D01*
X79351904Y-107833332D02*
X79447142Y-108023809D01*
X79351904Y-108976190D02*
X81351904Y-108976190D01*
X79447142Y-108976190D02*
X79351904Y-109166666D01*
X79351904Y-109166666D02*
X79351904Y-109547619D01*
X79351904Y-109547619D02*
X79447142Y-109738095D01*
X79447142Y-109738095D02*
X79542380Y-109833333D01*
X79542380Y-109833333D02*
X79732857Y-109928571D01*
X79732857Y-109928571D02*
X80304285Y-109928571D01*
X80304285Y-109928571D02*
X80494761Y-109833333D01*
X80494761Y-109833333D02*
X80590000Y-109738095D01*
X80590000Y-109738095D02*
X80685238Y-109547619D01*
X80685238Y-109547619D02*
X80685238Y-109166666D01*
X80685238Y-109166666D02*
X80590000Y-108976190D01*
X79542380Y-111071428D02*
X79447142Y-110880952D01*
X79447142Y-110880952D02*
X79351904Y-110785714D01*
X79351904Y-110785714D02*
X79161428Y-110690476D01*
X79161428Y-110690476D02*
X79066190Y-110690476D01*
X79066190Y-110690476D02*
X78875714Y-110785714D01*
X78875714Y-110785714D02*
X78780476Y-110880952D01*
X78780476Y-110880952D02*
X78685238Y-111071428D01*
X78685238Y-111071428D02*
X78685238Y-111452381D01*
X78685238Y-111452381D02*
X78780476Y-111642857D01*
X78780476Y-111642857D02*
X78875714Y-111738095D01*
X78875714Y-111738095D02*
X79066190Y-111833333D01*
X79066190Y-111833333D02*
X79161428Y-111833333D01*
X79161428Y-111833333D02*
X79351904Y-111738095D01*
X79351904Y-111738095D02*
X79447142Y-111642857D01*
X79447142Y-111642857D02*
X79542380Y-111452381D01*
X79542380Y-111452381D02*
X79542380Y-111071428D01*
X79542380Y-111071428D02*
X79637619Y-110880952D01*
X79637619Y-110880952D02*
X79732857Y-110785714D01*
X79732857Y-110785714D02*
X79923333Y-110690476D01*
X79923333Y-110690476D02*
X80304285Y-110690476D01*
X80304285Y-110690476D02*
X80494761Y-110785714D01*
X80494761Y-110785714D02*
X80590000Y-110880952D01*
X80590000Y-110880952D02*
X80685238Y-111071428D01*
X80685238Y-111071428D02*
X80685238Y-111452381D01*
X80685238Y-111452381D02*
X80590000Y-111642857D01*
X80590000Y-111642857D02*
X80494761Y-111738095D01*
X80494761Y-111738095D02*
X80304285Y-111833333D01*
X80304285Y-111833333D02*
X79923333Y-111833333D01*
X79923333Y-111833333D02*
X79732857Y-111738095D01*
X79732857Y-111738095D02*
X79637619Y-111642857D01*
X79637619Y-111642857D02*
X79542380Y-111452381D01*
X78875714Y-112595238D02*
X78780476Y-112690476D01*
X78780476Y-112690476D02*
X78685238Y-112880952D01*
X78685238Y-112880952D02*
X78685238Y-113357143D01*
X78685238Y-113357143D02*
X78780476Y-113547619D01*
X78780476Y-113547619D02*
X78875714Y-113642857D01*
X78875714Y-113642857D02*
X79066190Y-113738095D01*
X79066190Y-113738095D02*
X79256666Y-113738095D01*
X79256666Y-113738095D02*
X79542380Y-113642857D01*
X79542380Y-113642857D02*
X80685238Y-112500000D01*
X80685238Y-112500000D02*
X80685238Y-113738095D01*
X78685238Y-115452381D02*
X78685238Y-115071428D01*
X78685238Y-115071428D02*
X78780476Y-114880952D01*
X78780476Y-114880952D02*
X78875714Y-114785714D01*
X78875714Y-114785714D02*
X79161428Y-114595238D01*
X79161428Y-114595238D02*
X79542380Y-114500000D01*
X79542380Y-114500000D02*
X80304285Y-114500000D01*
X80304285Y-114500000D02*
X80494761Y-114595238D01*
X80494761Y-114595238D02*
X80590000Y-114690476D01*
X80590000Y-114690476D02*
X80685238Y-114880952D01*
X80685238Y-114880952D02*
X80685238Y-115261905D01*
X80685238Y-115261905D02*
X80590000Y-115452381D01*
X80590000Y-115452381D02*
X80494761Y-115547619D01*
X80494761Y-115547619D02*
X80304285Y-115642857D01*
X80304285Y-115642857D02*
X79828095Y-115642857D01*
X79828095Y-115642857D02*
X79637619Y-115547619D01*
X79637619Y-115547619D02*
X79542380Y-115452381D01*
X79542380Y-115452381D02*
X79447142Y-115261905D01*
X79447142Y-115261905D02*
X79447142Y-114880952D01*
X79447142Y-114880952D02*
X79542380Y-114690476D01*
X79542380Y-114690476D02*
X79637619Y-114595238D01*
X79637619Y-114595238D02*
X79828095Y-114500000D01*
X78685238Y-117357143D02*
X78685238Y-116976190D01*
X78685238Y-116976190D02*
X78780476Y-116785714D01*
X78780476Y-116785714D02*
X78875714Y-116690476D01*
X78875714Y-116690476D02*
X79161428Y-116500000D01*
X79161428Y-116500000D02*
X79542380Y-116404762D01*
X79542380Y-116404762D02*
X80304285Y-116404762D01*
X80304285Y-116404762D02*
X80494761Y-116500000D01*
X80494761Y-116500000D02*
X80590000Y-116595238D01*
X80590000Y-116595238D02*
X80685238Y-116785714D01*
X80685238Y-116785714D02*
X80685238Y-117166667D01*
X80685238Y-117166667D02*
X80590000Y-117357143D01*
X80590000Y-117357143D02*
X80494761Y-117452381D01*
X80494761Y-117452381D02*
X80304285Y-117547619D01*
X80304285Y-117547619D02*
X79828095Y-117547619D01*
X79828095Y-117547619D02*
X79637619Y-117452381D01*
X79637619Y-117452381D02*
X79542380Y-117357143D01*
X79542380Y-117357143D02*
X79447142Y-117166667D01*
X79447142Y-117166667D02*
X79447142Y-116785714D01*
X79447142Y-116785714D02*
X79542380Y-116595238D01*
X79542380Y-116595238D02*
X79637619Y-116500000D01*
X79637619Y-116500000D02*
X79828095Y-116404762D01*
X79923333Y-118404762D02*
X79923333Y-119928572D01*
X79351904Y-120880952D02*
X81351904Y-120880952D01*
X79447142Y-120880952D02*
X79351904Y-121071428D01*
X79351904Y-121071428D02*
X79351904Y-121452381D01*
X79351904Y-121452381D02*
X79447142Y-121642857D01*
X79447142Y-121642857D02*
X79542380Y-121738095D01*
X79542380Y-121738095D02*
X79732857Y-121833333D01*
X79732857Y-121833333D02*
X80304285Y-121833333D01*
X80304285Y-121833333D02*
X80494761Y-121738095D01*
X80494761Y-121738095D02*
X80590000Y-121642857D01*
X80590000Y-121642857D02*
X80685238Y-121452381D01*
X80685238Y-121452381D02*
X80685238Y-121071428D01*
X80685238Y-121071428D02*
X80590000Y-120880952D01*
X80685238Y-122976190D02*
X80590000Y-122785714D01*
X80590000Y-122785714D02*
X80399523Y-122690476D01*
X80399523Y-122690476D02*
X78685238Y-122690476D01*
X79351904Y-124595238D02*
X80685238Y-124595238D01*
X79351904Y-123738095D02*
X80399523Y-123738095D01*
X80399523Y-123738095D02*
X80590000Y-123833333D01*
X80590000Y-123833333D02*
X80685238Y-124023809D01*
X80685238Y-124023809D02*
X80685238Y-124309524D01*
X80685238Y-124309524D02*
X80590000Y-124500000D01*
X80590000Y-124500000D02*
X80494761Y-124595238D01*
X79351904Y-126404762D02*
X80970952Y-126404762D01*
X80970952Y-126404762D02*
X81161428Y-126309524D01*
X81161428Y-126309524D02*
X81256666Y-126214286D01*
X81256666Y-126214286D02*
X81351904Y-126023809D01*
X81351904Y-126023809D02*
X81351904Y-125738095D01*
X81351904Y-125738095D02*
X81256666Y-125547619D01*
X80590000Y-126404762D02*
X80685238Y-126214286D01*
X80685238Y-126214286D02*
X80685238Y-125833333D01*
X80685238Y-125833333D02*
X80590000Y-125642857D01*
X80590000Y-125642857D02*
X80494761Y-125547619D01*
X80494761Y-125547619D02*
X80304285Y-125452381D01*
X80304285Y-125452381D02*
X79732857Y-125452381D01*
X79732857Y-125452381D02*
X79542380Y-125547619D01*
X79542380Y-125547619D02*
X79447142Y-125642857D01*
X79447142Y-125642857D02*
X79351904Y-125833333D01*
X79351904Y-125833333D02*
X79351904Y-126214286D01*
X79351904Y-126214286D02*
X79447142Y-126404762D01*
X79351904Y-127357143D02*
X81351904Y-127357143D01*
X79447142Y-127357143D02*
X79351904Y-127547619D01*
X79351904Y-127547619D02*
X79351904Y-127928572D01*
X79351904Y-127928572D02*
X79447142Y-128119048D01*
X79447142Y-128119048D02*
X79542380Y-128214286D01*
X79542380Y-128214286D02*
X79732857Y-128309524D01*
X79732857Y-128309524D02*
X80304285Y-128309524D01*
X80304285Y-128309524D02*
X80494761Y-128214286D01*
X80494761Y-128214286D02*
X80590000Y-128119048D01*
X80590000Y-128119048D02*
X80685238Y-127928572D01*
X80685238Y-127928572D02*
X80685238Y-127547619D01*
X80685238Y-127547619D02*
X80590000Y-127357143D01*
X80685238Y-130023810D02*
X79637619Y-130023810D01*
X79637619Y-130023810D02*
X79447142Y-129928572D01*
X79447142Y-129928572D02*
X79351904Y-129738096D01*
X79351904Y-129738096D02*
X79351904Y-129357143D01*
X79351904Y-129357143D02*
X79447142Y-129166667D01*
X80590000Y-130023810D02*
X80685238Y-129833334D01*
X80685238Y-129833334D02*
X80685238Y-129357143D01*
X80685238Y-129357143D02*
X80590000Y-129166667D01*
X80590000Y-129166667D02*
X80399523Y-129071429D01*
X80399523Y-129071429D02*
X80209047Y-129071429D01*
X80209047Y-129071429D02*
X80018571Y-129166667D01*
X80018571Y-129166667D02*
X79923333Y-129357143D01*
X79923333Y-129357143D02*
X79923333Y-129833334D01*
X79923333Y-129833334D02*
X79828095Y-130023810D01*
X80590000Y-131833334D02*
X80685238Y-131642858D01*
X80685238Y-131642858D02*
X80685238Y-131261905D01*
X80685238Y-131261905D02*
X80590000Y-131071429D01*
X80590000Y-131071429D02*
X80494761Y-130976191D01*
X80494761Y-130976191D02*
X80304285Y-130880953D01*
X80304285Y-130880953D02*
X79732857Y-130880953D01*
X79732857Y-130880953D02*
X79542380Y-130976191D01*
X79542380Y-130976191D02*
X79447142Y-131071429D01*
X79447142Y-131071429D02*
X79351904Y-131261905D01*
X79351904Y-131261905D02*
X79351904Y-131642858D01*
X79351904Y-131642858D02*
X79447142Y-131833334D01*
X80685238Y-132690477D02*
X78685238Y-132690477D01*
X79923333Y-132880953D02*
X80685238Y-133452382D01*
X79351904Y-133452382D02*
X80113809Y-132690477D01*
X82972857Y-111928570D02*
X82877619Y-111833332D01*
X82877619Y-111833332D02*
X82782380Y-111642856D01*
X82782380Y-111642856D02*
X82782380Y-111452380D01*
X82782380Y-111452380D02*
X82877619Y-111261904D01*
X82877619Y-111261904D02*
X82972857Y-111166665D01*
X82972857Y-111166665D02*
X83163333Y-111071427D01*
X83163333Y-111071427D02*
X83353809Y-111071427D01*
X83353809Y-111071427D02*
X83544285Y-111166665D01*
X83544285Y-111166665D02*
X83639523Y-111261904D01*
X83639523Y-111261904D02*
X83734761Y-111452380D01*
X83734761Y-111452380D02*
X83734761Y-111642856D01*
X83734761Y-111642856D02*
X83639523Y-111833332D01*
X83639523Y-111833332D02*
X83544285Y-111928570D01*
X82782380Y-111928570D02*
X83544285Y-111928570D01*
X83544285Y-111928570D02*
X83639523Y-112023808D01*
X83639523Y-112023808D02*
X83639523Y-112119046D01*
X83639523Y-112119046D02*
X83544285Y-112309523D01*
X83544285Y-112309523D02*
X83353809Y-112404761D01*
X83353809Y-112404761D02*
X82877619Y-112404761D01*
X82877619Y-112404761D02*
X82591904Y-112214285D01*
X82591904Y-112214285D02*
X82401428Y-111928570D01*
X82401428Y-111928570D02*
X82306190Y-111547618D01*
X82306190Y-111547618D02*
X82401428Y-111166665D01*
X82401428Y-111166665D02*
X82591904Y-110880951D01*
X82591904Y-110880951D02*
X82877619Y-110690475D01*
X82877619Y-110690475D02*
X83258571Y-110595237D01*
X83258571Y-110595237D02*
X83639523Y-110690475D01*
X83639523Y-110690475D02*
X83925238Y-110880951D01*
X83925238Y-110880951D02*
X84115714Y-111166665D01*
X84115714Y-111166665D02*
X84210952Y-111547618D01*
X84210952Y-111547618D02*
X84115714Y-111928570D01*
X84115714Y-111928570D02*
X83925238Y-112214285D01*
X81925238Y-112976190D02*
X81925238Y-114119047D01*
X83925238Y-113547618D02*
X81925238Y-113547618D01*
X83925238Y-115071428D02*
X83830000Y-114880952D01*
X83830000Y-114880952D02*
X83734761Y-114785714D01*
X83734761Y-114785714D02*
X83544285Y-114690476D01*
X83544285Y-114690476D02*
X82972857Y-114690476D01*
X82972857Y-114690476D02*
X82782380Y-114785714D01*
X82782380Y-114785714D02*
X82687142Y-114880952D01*
X82687142Y-114880952D02*
X82591904Y-115071428D01*
X82591904Y-115071428D02*
X82591904Y-115357143D01*
X82591904Y-115357143D02*
X82687142Y-115547619D01*
X82687142Y-115547619D02*
X82782380Y-115642857D01*
X82782380Y-115642857D02*
X82972857Y-115738095D01*
X82972857Y-115738095D02*
X83544285Y-115738095D01*
X83544285Y-115738095D02*
X83734761Y-115642857D01*
X83734761Y-115642857D02*
X83830000Y-115547619D01*
X83830000Y-115547619D02*
X83925238Y-115357143D01*
X83925238Y-115357143D02*
X83925238Y-115071428D01*
X83925238Y-116595238D02*
X82591904Y-116595238D01*
X82782380Y-116595238D02*
X82687142Y-116690476D01*
X82687142Y-116690476D02*
X82591904Y-116880952D01*
X82591904Y-116880952D02*
X82591904Y-117166667D01*
X82591904Y-117166667D02*
X82687142Y-117357143D01*
X82687142Y-117357143D02*
X82877619Y-117452381D01*
X82877619Y-117452381D02*
X83925238Y-117452381D01*
X82877619Y-117452381D02*
X82687142Y-117547619D01*
X82687142Y-117547619D02*
X82591904Y-117738095D01*
X82591904Y-117738095D02*
X82591904Y-118023809D01*
X82591904Y-118023809D02*
X82687142Y-118214286D01*
X82687142Y-118214286D02*
X82877619Y-118309524D01*
X82877619Y-118309524D02*
X83925238Y-118309524D01*
X83925238Y-119261905D02*
X81925238Y-119261905D01*
X83925238Y-120404762D02*
X82782380Y-119547619D01*
X81925238Y-120404762D02*
X83068095Y-119261905D01*
X83830000Y-122023810D02*
X83925238Y-121833334D01*
X83925238Y-121833334D02*
X83925238Y-121452381D01*
X83925238Y-121452381D02*
X83830000Y-121261905D01*
X83830000Y-121261905D02*
X83639523Y-121166667D01*
X83639523Y-121166667D02*
X82877619Y-121166667D01*
X82877619Y-121166667D02*
X82687142Y-121261905D01*
X82687142Y-121261905D02*
X82591904Y-121452381D01*
X82591904Y-121452381D02*
X82591904Y-121833334D01*
X82591904Y-121833334D02*
X82687142Y-122023810D01*
X82687142Y-122023810D02*
X82877619Y-122119048D01*
X82877619Y-122119048D02*
X83068095Y-122119048D01*
X83068095Y-122119048D02*
X83258571Y-121166667D01*
X83925238Y-123833334D02*
X81925238Y-123833334D01*
X83830000Y-123833334D02*
X83925238Y-123642858D01*
X83925238Y-123642858D02*
X83925238Y-123261905D01*
X83925238Y-123261905D02*
X83830000Y-123071429D01*
X83830000Y-123071429D02*
X83734761Y-122976191D01*
X83734761Y-122976191D02*
X83544285Y-122880953D01*
X83544285Y-122880953D02*
X82972857Y-122880953D01*
X82972857Y-122880953D02*
X82782380Y-122976191D01*
X82782380Y-122976191D02*
X82687142Y-123071429D01*
X82687142Y-123071429D02*
X82591904Y-123261905D01*
X82591904Y-123261905D02*
X82591904Y-123642858D01*
X82591904Y-123642858D02*
X82687142Y-123833334D01*
X83925238Y-125642858D02*
X81925238Y-125642858D01*
X83830000Y-125642858D02*
X83925238Y-125452382D01*
X83925238Y-125452382D02*
X83925238Y-125071429D01*
X83925238Y-125071429D02*
X83830000Y-124880953D01*
X83830000Y-124880953D02*
X83734761Y-124785715D01*
X83734761Y-124785715D02*
X83544285Y-124690477D01*
X83544285Y-124690477D02*
X82972857Y-124690477D01*
X82972857Y-124690477D02*
X82782380Y-124785715D01*
X82782380Y-124785715D02*
X82687142Y-124880953D01*
X82687142Y-124880953D02*
X82591904Y-125071429D01*
X82591904Y-125071429D02*
X82591904Y-125452382D01*
X82591904Y-125452382D02*
X82687142Y-125642858D01*
X83925238Y-126595239D02*
X82591904Y-126595239D01*
X81925238Y-126595239D02*
X82020476Y-126500001D01*
X82020476Y-126500001D02*
X82115714Y-126595239D01*
X82115714Y-126595239D02*
X82020476Y-126690477D01*
X82020476Y-126690477D02*
X81925238Y-126595239D01*
X81925238Y-126595239D02*
X82115714Y-126595239D01*
X83830000Y-128309525D02*
X83925238Y-128119049D01*
X83925238Y-128119049D02*
X83925238Y-127738096D01*
X83925238Y-127738096D02*
X83830000Y-127547620D01*
X83830000Y-127547620D02*
X83639523Y-127452382D01*
X83639523Y-127452382D02*
X82877619Y-127452382D01*
X82877619Y-127452382D02*
X82687142Y-127547620D01*
X82687142Y-127547620D02*
X82591904Y-127738096D01*
X82591904Y-127738096D02*
X82591904Y-128119049D01*
X82591904Y-128119049D02*
X82687142Y-128309525D01*
X82687142Y-128309525D02*
X82877619Y-128404763D01*
X82877619Y-128404763D02*
X83068095Y-128404763D01*
X83068095Y-128404763D02*
X83258571Y-127452382D01*
X86593809Y-113690476D02*
X86593809Y-114642857D01*
X87165238Y-113500000D02*
X85165238Y-114166666D01*
X85165238Y-114166666D02*
X87165238Y-114833333D01*
X85831904Y-115500000D02*
X87831904Y-115500000D01*
X85927142Y-115500000D02*
X85831904Y-115690476D01*
X85831904Y-115690476D02*
X85831904Y-116071429D01*
X85831904Y-116071429D02*
X85927142Y-116261905D01*
X85927142Y-116261905D02*
X86022380Y-116357143D01*
X86022380Y-116357143D02*
X86212857Y-116452381D01*
X86212857Y-116452381D02*
X86784285Y-116452381D01*
X86784285Y-116452381D02*
X86974761Y-116357143D01*
X86974761Y-116357143D02*
X87070000Y-116261905D01*
X87070000Y-116261905D02*
X87165238Y-116071429D01*
X87165238Y-116071429D02*
X87165238Y-115690476D01*
X87165238Y-115690476D02*
X87070000Y-115500000D01*
X87165238Y-117309524D02*
X85831904Y-117309524D01*
X86212857Y-117309524D02*
X86022380Y-117404762D01*
X86022380Y-117404762D02*
X85927142Y-117500000D01*
X85927142Y-117500000D02*
X85831904Y-117690476D01*
X85831904Y-117690476D02*
X85831904Y-117880953D01*
X85355714Y-118452381D02*
X85260476Y-118547619D01*
X85260476Y-118547619D02*
X85165238Y-118738095D01*
X85165238Y-118738095D02*
X85165238Y-119214286D01*
X85165238Y-119214286D02*
X85260476Y-119404762D01*
X85260476Y-119404762D02*
X85355714Y-119500000D01*
X85355714Y-119500000D02*
X85546190Y-119595238D01*
X85546190Y-119595238D02*
X85736666Y-119595238D01*
X85736666Y-119595238D02*
X86022380Y-119500000D01*
X86022380Y-119500000D02*
X87165238Y-118357143D01*
X87165238Y-118357143D02*
X87165238Y-119595238D01*
X85165238Y-120833333D02*
X85165238Y-121023810D01*
X85165238Y-121023810D02*
X85260476Y-121214286D01*
X85260476Y-121214286D02*
X85355714Y-121309524D01*
X85355714Y-121309524D02*
X85546190Y-121404762D01*
X85546190Y-121404762D02*
X85927142Y-121500000D01*
X85927142Y-121500000D02*
X86403333Y-121500000D01*
X86403333Y-121500000D02*
X86784285Y-121404762D01*
X86784285Y-121404762D02*
X86974761Y-121309524D01*
X86974761Y-121309524D02*
X87070000Y-121214286D01*
X87070000Y-121214286D02*
X87165238Y-121023810D01*
X87165238Y-121023810D02*
X87165238Y-120833333D01*
X87165238Y-120833333D02*
X87070000Y-120642857D01*
X87070000Y-120642857D02*
X86974761Y-120547619D01*
X86974761Y-120547619D02*
X86784285Y-120452381D01*
X86784285Y-120452381D02*
X86403333Y-120357143D01*
X86403333Y-120357143D02*
X85927142Y-120357143D01*
X85927142Y-120357143D02*
X85546190Y-120452381D01*
X85546190Y-120452381D02*
X85355714Y-120547619D01*
X85355714Y-120547619D02*
X85260476Y-120642857D01*
X85260476Y-120642857D02*
X85165238Y-120833333D01*
X85355714Y-122261905D02*
X85260476Y-122357143D01*
X85260476Y-122357143D02*
X85165238Y-122547619D01*
X85165238Y-122547619D02*
X85165238Y-123023810D01*
X85165238Y-123023810D02*
X85260476Y-123214286D01*
X85260476Y-123214286D02*
X85355714Y-123309524D01*
X85355714Y-123309524D02*
X85546190Y-123404762D01*
X85546190Y-123404762D02*
X85736666Y-123404762D01*
X85736666Y-123404762D02*
X86022380Y-123309524D01*
X86022380Y-123309524D02*
X87165238Y-122166667D01*
X87165238Y-122166667D02*
X87165238Y-123404762D01*
X85165238Y-124071429D02*
X85165238Y-125309524D01*
X85165238Y-125309524D02*
X85927142Y-124642857D01*
X85927142Y-124642857D02*
X85927142Y-124928572D01*
X85927142Y-124928572D02*
X86022380Y-125119048D01*
X86022380Y-125119048D02*
X86117619Y-125214286D01*
X86117619Y-125214286D02*
X86308095Y-125309524D01*
X86308095Y-125309524D02*
X86784285Y-125309524D01*
X86784285Y-125309524D02*
X86974761Y-125214286D01*
X86974761Y-125214286D02*
X87070000Y-125119048D01*
X87070000Y-125119048D02*
X87165238Y-124928572D01*
X87165238Y-124928572D02*
X87165238Y-124357143D01*
X87165238Y-124357143D02*
X87070000Y-124166667D01*
X87070000Y-124166667D02*
X86974761Y-124071429D01*
G04 #@! TO.C,X1*
X87404761Y-95663333D02*
X87309523Y-95568095D01*
X87309523Y-95568095D02*
X87119047Y-95472857D01*
X87119047Y-95472857D02*
X86738095Y-95663333D01*
X86738095Y-95663333D02*
X86547618Y-95568095D01*
X86547618Y-95568095D02*
X86452380Y-95472857D01*
X85785714Y-95853809D02*
X84833333Y-95853809D01*
X85976190Y-96425238D02*
X85309524Y-94425238D01*
X85309524Y-94425238D02*
X84642857Y-96425238D01*
X82833333Y-96234761D02*
X82928571Y-96330000D01*
X82928571Y-96330000D02*
X83214285Y-96425238D01*
X83214285Y-96425238D02*
X83404761Y-96425238D01*
X83404761Y-96425238D02*
X83690476Y-96330000D01*
X83690476Y-96330000D02*
X83880952Y-96139523D01*
X83880952Y-96139523D02*
X83976190Y-95949047D01*
X83976190Y-95949047D02*
X84071428Y-95568095D01*
X84071428Y-95568095D02*
X84071428Y-95282380D01*
X84071428Y-95282380D02*
X83976190Y-94901428D01*
X83976190Y-94901428D02*
X83880952Y-94710952D01*
X83880952Y-94710952D02*
X83690476Y-94520476D01*
X83690476Y-94520476D02*
X83404761Y-94425238D01*
X83404761Y-94425238D02*
X83214285Y-94425238D01*
X83214285Y-94425238D02*
X82928571Y-94520476D01*
X82928571Y-94520476D02*
X82833333Y-94615714D01*
X81976190Y-96425238D02*
X81976190Y-94425238D01*
X81023809Y-96425238D02*
X81023809Y-94425238D01*
X81023809Y-94425238D02*
X79880952Y-96425238D01*
X79880952Y-96425238D02*
X79880952Y-94425238D01*
X108523809Y-88163333D02*
X107000000Y-88163333D01*
X106333333Y-86925238D02*
X105666667Y-88925238D01*
X105666667Y-88925238D02*
X105000000Y-86925238D01*
X104333333Y-87877619D02*
X103666666Y-87877619D01*
X103380952Y-88925238D02*
X104333333Y-88925238D01*
X104333333Y-88925238D02*
X104333333Y-86925238D01*
X104333333Y-86925238D02*
X103380952Y-86925238D01*
X108523809Y-103163333D02*
X107000000Y-103163333D01*
X107761904Y-103925238D02*
X107761904Y-102401428D01*
X106333333Y-101925238D02*
X105666667Y-103925238D01*
X105666667Y-103925238D02*
X105000000Y-101925238D01*
X104333333Y-102877619D02*
X103666666Y-102877619D01*
X103380952Y-103925238D02*
X104333333Y-103925238D01*
X104333333Y-103925238D02*
X104333333Y-101925238D01*
X104333333Y-101925238D02*
X103380952Y-101925238D01*
G04 #@! TD*
G36*
X120004418Y-64500316D02*
G01*
X120275785Y-64519724D01*
X120293297Y-64522242D01*
X120554794Y-64579127D01*
X120571770Y-64584111D01*
X120822524Y-64677638D01*
X120838617Y-64684988D01*
X121073496Y-64813241D01*
X121088380Y-64822806D01*
X121302624Y-64983188D01*
X121315994Y-64994774D01*
X121505225Y-65184005D01*
X121516811Y-65197375D01*
X121677193Y-65411619D01*
X121686758Y-65426503D01*
X121815011Y-65661382D01*
X121822361Y-65677475D01*
X121915888Y-65928229D01*
X121920872Y-65945205D01*
X121977757Y-66206702D01*
X121980275Y-66224214D01*
X121999683Y-66495581D01*
X121999999Y-66504427D01*
X122000000Y-81876000D01*
X121980315Y-81943039D01*
X121927511Y-81988794D01*
X121876000Y-82000000D01*
X112999999Y-82000000D01*
X92036319Y-102963681D01*
X91974996Y-102997166D01*
X91948638Y-103000000D01*
X78124000Y-103000000D01*
X78056961Y-102980315D01*
X78011206Y-102927511D01*
X78000000Y-102876000D01*
X78000000Y-101657593D01*
X78497999Y-101657593D01*
X78498000Y-102376000D01*
X79132991Y-102376000D01*
X79174697Y-102334293D01*
X79878975Y-102334293D01*
X79920682Y-102376000D01*
X81254311Y-102376000D01*
X81296018Y-102334292D01*
X82000295Y-102334292D01*
X82042003Y-102376000D01*
X83375632Y-102376000D01*
X83417339Y-102334293D01*
X84121615Y-102334293D01*
X84163323Y-102376000D01*
X85496952Y-102376000D01*
X85538658Y-102334293D01*
X86242935Y-102334293D01*
X86284643Y-102376000D01*
X87618272Y-102376000D01*
X87659979Y-102334292D01*
X88364256Y-102334292D01*
X88405964Y-102376000D01*
X89739593Y-102376000D01*
X89781300Y-102334293D01*
X90485577Y-102334293D01*
X90527284Y-102376000D01*
X91741532Y-102376000D01*
X91842929Y-102274602D01*
X91194098Y-101625771D01*
X90485577Y-102334293D01*
X89781300Y-102334293D01*
X89072778Y-101625771D01*
X88364256Y-102334292D01*
X87659979Y-102334292D01*
X86951457Y-101625771D01*
X86242935Y-102334293D01*
X85538658Y-102334293D01*
X85538659Y-102334292D01*
X84830137Y-101625771D01*
X84121615Y-102334293D01*
X83417339Y-102334293D01*
X82708817Y-101625771D01*
X82000295Y-102334292D01*
X81296018Y-102334292D01*
X80587496Y-101625771D01*
X79878975Y-102334293D01*
X79174697Y-102334293D01*
X79174698Y-102334292D01*
X78497999Y-101657593D01*
X78000000Y-101657593D01*
X78000000Y-101273632D01*
X78818315Y-101273632D01*
X79526836Y-101982154D01*
X80235358Y-101273632D01*
X80939635Y-101273632D01*
X81648157Y-101982153D01*
X82356678Y-101273632D01*
X83060955Y-101273632D01*
X83769477Y-101982154D01*
X84477998Y-101273632D01*
X85182276Y-101273632D01*
X85890797Y-101982154D01*
X86599319Y-101273632D01*
X87303596Y-101273632D01*
X88012118Y-101982154D01*
X88720639Y-101273632D01*
X89424916Y-101273632D01*
X90133438Y-101982154D01*
X90841959Y-101273632D01*
X91546237Y-101273632D01*
X92195067Y-101922463D01*
X92903589Y-101213941D01*
X92254758Y-100565111D01*
X91546237Y-101273632D01*
X90841959Y-101273632D01*
X90133438Y-100565111D01*
X89424916Y-101273632D01*
X88720639Y-101273632D01*
X88012118Y-100565111D01*
X87303596Y-101273632D01*
X86599319Y-101273632D01*
X85890797Y-100565111D01*
X85182276Y-101273632D01*
X84477998Y-101273632D01*
X83769477Y-100565111D01*
X83060955Y-101273632D01*
X82356678Y-101273632D01*
X81648157Y-100565111D01*
X80939635Y-101273632D01*
X80235358Y-101273632D01*
X79526836Y-100565111D01*
X78818315Y-101273632D01*
X78000000Y-101273632D01*
X78000000Y-99536273D01*
X78497999Y-99536273D01*
X78497999Y-100889672D01*
X79174698Y-100212972D01*
X79878975Y-100212972D01*
X80587496Y-100921494D01*
X81296018Y-100212972D01*
X82000295Y-100212972D01*
X82708817Y-100921494D01*
X83417338Y-100212972D01*
X84121616Y-100212972D01*
X84830137Y-100921494D01*
X85538659Y-100212972D01*
X86242936Y-100212972D01*
X86951457Y-100921494D01*
X87659979Y-100212972D01*
X88364256Y-100212972D01*
X89072778Y-100921494D01*
X89781299Y-100212972D01*
X90485577Y-100212972D01*
X91194098Y-100921494D01*
X91902620Y-100212972D01*
X92606897Y-100212972D01*
X93255727Y-100861803D01*
X93964249Y-100153281D01*
X93315418Y-99504451D01*
X92606897Y-100212972D01*
X91902620Y-100212972D01*
X91194098Y-99504451D01*
X90485577Y-100212972D01*
X89781299Y-100212972D01*
X89072778Y-99504451D01*
X88364256Y-100212972D01*
X87659979Y-100212972D01*
X86951457Y-99504451D01*
X86242936Y-100212972D01*
X85538659Y-100212972D01*
X84830137Y-99504451D01*
X84121616Y-100212972D01*
X83417338Y-100212972D01*
X82708817Y-99504451D01*
X82000295Y-100212972D01*
X81296018Y-100212972D01*
X80587496Y-99504451D01*
X79878975Y-100212972D01*
X79174698Y-100212972D01*
X78497999Y-99536273D01*
X78000000Y-99536273D01*
X78000000Y-99152312D01*
X78818315Y-99152312D01*
X79526836Y-99860833D01*
X80235358Y-99152312D01*
X80939635Y-99152312D01*
X81648157Y-99860833D01*
X82356678Y-99152312D01*
X83060955Y-99152312D01*
X83769477Y-99860833D01*
X84477998Y-99152312D01*
X85182276Y-99152312D01*
X85890797Y-99860833D01*
X86599319Y-99152312D01*
X87303596Y-99152312D01*
X88012118Y-99860833D01*
X88720639Y-99152312D01*
X89424916Y-99152312D01*
X90133438Y-99860833D01*
X90841959Y-99152312D01*
X91546237Y-99152312D01*
X92254758Y-99860833D01*
X92963280Y-99152312D01*
X93667557Y-99152312D01*
X94316388Y-99801142D01*
X95024909Y-99092621D01*
X94376079Y-98443790D01*
X93667557Y-99152312D01*
X92963280Y-99152312D01*
X92254758Y-98443790D01*
X91546237Y-99152312D01*
X90841959Y-99152312D01*
X90133438Y-98443790D01*
X89424916Y-99152312D01*
X88720639Y-99152312D01*
X88012118Y-98443790D01*
X87303596Y-99152312D01*
X86599319Y-99152312D01*
X85890797Y-98443790D01*
X85182276Y-99152312D01*
X84477998Y-99152312D01*
X83769477Y-98443790D01*
X83060955Y-99152312D01*
X82356678Y-99152312D01*
X81648157Y-98443790D01*
X80939635Y-99152312D01*
X80235358Y-99152312D01*
X79526836Y-98443790D01*
X78818315Y-99152312D01*
X78000000Y-99152312D01*
X78000000Y-97414953D01*
X78497999Y-97414953D01*
X78497999Y-98768351D01*
X79174698Y-98091652D01*
X79878975Y-98091652D01*
X80587496Y-98800173D01*
X81296018Y-98091652D01*
X82000295Y-98091652D01*
X82708817Y-98800173D01*
X83417338Y-98091652D01*
X84121616Y-98091652D01*
X84830137Y-98800173D01*
X85538659Y-98091652D01*
X86242936Y-98091652D01*
X86951457Y-98800173D01*
X87659979Y-98091652D01*
X88364256Y-98091652D01*
X89072778Y-98800173D01*
X89781299Y-98091652D01*
X90485577Y-98091652D01*
X91194098Y-98800173D01*
X91902620Y-98091652D01*
X92606897Y-98091652D01*
X93315418Y-98800173D01*
X94023940Y-98091652D01*
X94728217Y-98091652D01*
X95377048Y-98740482D01*
X96085569Y-98031961D01*
X95436739Y-97383130D01*
X94728217Y-98091652D01*
X94023940Y-98091652D01*
X93315418Y-97383130D01*
X92606897Y-98091652D01*
X91902620Y-98091652D01*
X91194098Y-97383130D01*
X90485577Y-98091652D01*
X89781299Y-98091652D01*
X89072778Y-97383130D01*
X88364256Y-98091652D01*
X87659979Y-98091652D01*
X86951457Y-97383130D01*
X86242936Y-98091652D01*
X85538659Y-98091652D01*
X84830137Y-97383130D01*
X84121616Y-98091652D01*
X83417338Y-98091652D01*
X82708817Y-97383130D01*
X82000295Y-98091652D01*
X81296018Y-98091652D01*
X80587496Y-97383130D01*
X79878975Y-98091652D01*
X79174698Y-98091652D01*
X78497999Y-97414953D01*
X78000000Y-97414953D01*
X78000000Y-97030992D01*
X78818315Y-97030992D01*
X79526836Y-97739513D01*
X80235358Y-97030992D01*
X80939635Y-97030992D01*
X81648157Y-97739513D01*
X82356678Y-97030992D01*
X83060955Y-97030992D01*
X83769477Y-97739513D01*
X84477998Y-97030992D01*
X85182276Y-97030992D01*
X85890797Y-97739513D01*
X86599319Y-97030992D01*
X87303596Y-97030992D01*
X88012118Y-97739513D01*
X88720639Y-97030992D01*
X89424916Y-97030992D01*
X90133438Y-97739513D01*
X90841959Y-97030992D01*
X91546237Y-97030992D01*
X92254758Y-97739513D01*
X92963280Y-97030992D01*
X93667557Y-97030992D01*
X94376079Y-97739513D01*
X95084600Y-97030992D01*
X95788877Y-97030992D01*
X96437708Y-97679822D01*
X97146229Y-96971301D01*
X96497399Y-96322470D01*
X95788877Y-97030992D01*
X95084600Y-97030992D01*
X94376079Y-96322470D01*
X93667557Y-97030992D01*
X92963280Y-97030992D01*
X92254758Y-96322470D01*
X91546237Y-97030992D01*
X90841959Y-97030992D01*
X90133438Y-96322470D01*
X89424916Y-97030992D01*
X88720639Y-97030992D01*
X88012118Y-96322470D01*
X87303596Y-97030992D01*
X86599319Y-97030992D01*
X85890797Y-96322470D01*
X85182276Y-97030992D01*
X84477998Y-97030992D01*
X83769477Y-96322470D01*
X83060955Y-97030992D01*
X82356678Y-97030992D01*
X81648157Y-96322471D01*
X80939635Y-97030992D01*
X80235358Y-97030992D01*
X79526836Y-96322470D01*
X78818315Y-97030992D01*
X78000000Y-97030992D01*
X78000000Y-95293632D01*
X78497999Y-95293632D01*
X78497999Y-96647031D01*
X79174698Y-95970331D01*
X79878975Y-95970331D01*
X80587496Y-96678853D01*
X81296018Y-95970331D01*
X82000295Y-95970331D01*
X82708817Y-96678853D01*
X83417338Y-95970331D01*
X84121616Y-95970331D01*
X84830137Y-96678853D01*
X85538659Y-95970331D01*
X86242936Y-95970331D01*
X86951457Y-96678853D01*
X87659979Y-95970331D01*
X88364256Y-95970331D01*
X89072778Y-96678853D01*
X89781299Y-95970331D01*
X90485577Y-95970331D01*
X91194098Y-96678853D01*
X91902620Y-95970331D01*
X92606897Y-95970331D01*
X93315418Y-96678853D01*
X94023940Y-95970331D01*
X94728217Y-95970331D01*
X95436739Y-96678853D01*
X96145260Y-95970331D01*
X96849538Y-95970331D01*
X97498368Y-96619162D01*
X98206890Y-95910640D01*
X97558059Y-95261810D01*
X96849538Y-95970331D01*
X96145260Y-95970331D01*
X95436739Y-95261810D01*
X94728217Y-95970331D01*
X94023940Y-95970331D01*
X93315418Y-95261810D01*
X92606897Y-95970331D01*
X91902620Y-95970331D01*
X91194098Y-95261810D01*
X90485577Y-95970331D01*
X89781299Y-95970331D01*
X89072778Y-95261810D01*
X88364256Y-95970331D01*
X87659979Y-95970331D01*
X86951457Y-95261810D01*
X86242936Y-95970331D01*
X85538659Y-95970331D01*
X84830137Y-95261810D01*
X84121616Y-95970331D01*
X83417338Y-95970331D01*
X82708817Y-95261810D01*
X82000295Y-95970331D01*
X81296018Y-95970331D01*
X80587496Y-95261810D01*
X79878975Y-95970331D01*
X79174698Y-95970331D01*
X78497999Y-95293632D01*
X78000000Y-95293632D01*
X78000000Y-94909671D01*
X78818315Y-94909671D01*
X79526836Y-95618193D01*
X80235358Y-94909671D01*
X80939635Y-94909671D01*
X81648157Y-95618193D01*
X82356678Y-94909671D01*
X83060955Y-94909671D01*
X83769477Y-95618193D01*
X84477998Y-94909671D01*
X85182276Y-94909671D01*
X85890797Y-95618193D01*
X86599319Y-94909671D01*
X87303596Y-94909671D01*
X88012118Y-95618193D01*
X88720639Y-94909671D01*
X89424916Y-94909671D01*
X90133438Y-95618193D01*
X90841959Y-94909671D01*
X91546237Y-94909671D01*
X92254758Y-95618193D01*
X92963280Y-94909671D01*
X93667557Y-94909671D01*
X94376079Y-95618193D01*
X95084600Y-94909671D01*
X95788877Y-94909671D01*
X96497399Y-95618193D01*
X97205920Y-94909671D01*
X97910198Y-94909671D01*
X98559028Y-95558502D01*
X99267550Y-94849980D01*
X98618719Y-94201150D01*
X97910198Y-94909671D01*
X97205920Y-94909671D01*
X96497399Y-94201150D01*
X95788877Y-94909671D01*
X95084600Y-94909671D01*
X94376079Y-94201150D01*
X93667557Y-94909671D01*
X92963280Y-94909671D01*
X92254758Y-94201150D01*
X91546237Y-94909671D01*
X90841959Y-94909671D01*
X90133438Y-94201150D01*
X89424916Y-94909671D01*
X88720639Y-94909671D01*
X88012118Y-94201150D01*
X87303596Y-94909671D01*
X86599319Y-94909671D01*
X85890797Y-94201150D01*
X85182276Y-94909671D01*
X84477998Y-94909671D01*
X83769477Y-94201150D01*
X83060955Y-94909671D01*
X82356678Y-94909671D01*
X81648157Y-94201150D01*
X80939635Y-94909671D01*
X80235358Y-94909671D01*
X79526836Y-94201150D01*
X78818315Y-94909671D01*
X78000000Y-94909671D01*
X78000000Y-93172312D01*
X78497999Y-93172312D01*
X78497999Y-94525711D01*
X79174698Y-93849011D01*
X79878975Y-93849011D01*
X80587496Y-94557533D01*
X81296018Y-93849011D01*
X82000295Y-93849011D01*
X82708817Y-94557533D01*
X83417338Y-93849011D01*
X84121616Y-93849011D01*
X84830137Y-94557533D01*
X85538659Y-93849011D01*
X86242936Y-93849011D01*
X86951457Y-94557533D01*
X87659979Y-93849011D01*
X88364256Y-93849011D01*
X89072778Y-94557533D01*
X89781299Y-93849011D01*
X90485577Y-93849011D01*
X91194098Y-94557533D01*
X91902620Y-93849011D01*
X92606897Y-93849011D01*
X93315418Y-94557533D01*
X94023940Y-93849011D01*
X94728217Y-93849011D01*
X95436739Y-94557533D01*
X96145260Y-93849011D01*
X96849538Y-93849011D01*
X97558059Y-94557533D01*
X98266581Y-93849011D01*
X98970858Y-93849011D01*
X99619688Y-94497842D01*
X100328210Y-93789320D01*
X99679379Y-93140490D01*
X98970858Y-93849011D01*
X98266581Y-93849011D01*
X97558059Y-93140490D01*
X96849538Y-93849011D01*
X96145260Y-93849011D01*
X95436739Y-93140490D01*
X94728217Y-93849011D01*
X94023940Y-93849011D01*
X93315418Y-93140490D01*
X92606897Y-93849011D01*
X91902620Y-93849011D01*
X91194098Y-93140490D01*
X90485577Y-93849011D01*
X89781299Y-93849011D01*
X89072778Y-93140490D01*
X88364256Y-93849011D01*
X87659979Y-93849011D01*
X86951457Y-93140490D01*
X86242936Y-93849011D01*
X85538659Y-93849011D01*
X84830137Y-93140490D01*
X84121616Y-93849011D01*
X83417338Y-93849011D01*
X82708817Y-93140490D01*
X82000295Y-93849011D01*
X81296018Y-93849011D01*
X80587496Y-93140490D01*
X79878975Y-93849011D01*
X79174698Y-93849011D01*
X78497999Y-93172312D01*
X78000000Y-93172312D01*
X78000000Y-92788351D01*
X78818315Y-92788351D01*
X79526836Y-93496872D01*
X80235358Y-92788351D01*
X80939635Y-92788351D01*
X81648157Y-93496872D01*
X82356678Y-92788351D01*
X83060955Y-92788351D01*
X83769477Y-93496872D01*
X84477998Y-92788351D01*
X85182276Y-92788351D01*
X85890797Y-93496872D01*
X86599319Y-92788351D01*
X87303596Y-92788351D01*
X88012118Y-93496872D01*
X88720639Y-92788351D01*
X89424916Y-92788351D01*
X90133438Y-93496872D01*
X90841959Y-92788351D01*
X91546237Y-92788351D01*
X92254758Y-93496872D01*
X92963280Y-92788351D01*
X93667557Y-92788351D01*
X94376079Y-93496872D01*
X95084600Y-92788351D01*
X95788877Y-92788351D01*
X96497399Y-93496872D01*
X97205920Y-92788351D01*
X97910198Y-92788351D01*
X98618719Y-93496872D01*
X99327241Y-92788351D01*
X100031518Y-92788351D01*
X100680349Y-93437181D01*
X101388870Y-92728660D01*
X100740040Y-92079829D01*
X100031518Y-92788351D01*
X99327241Y-92788351D01*
X98618719Y-92079829D01*
X97910198Y-92788351D01*
X97205920Y-92788351D01*
X96497399Y-92079829D01*
X95788877Y-92788351D01*
X95084600Y-92788351D01*
X94376079Y-92079829D01*
X93667557Y-92788351D01*
X92963280Y-92788351D01*
X92254758Y-92079829D01*
X91546237Y-92788351D01*
X90841959Y-92788351D01*
X90133438Y-92079829D01*
X89424916Y-92788351D01*
X88720639Y-92788351D01*
X88012118Y-92079829D01*
X87303596Y-92788351D01*
X86599319Y-92788351D01*
X85890797Y-92079829D01*
X85182276Y-92788351D01*
X84477998Y-92788351D01*
X83769477Y-92079829D01*
X83060955Y-92788351D01*
X82356678Y-92788351D01*
X81648157Y-92079830D01*
X80939635Y-92788351D01*
X80235358Y-92788351D01*
X79526836Y-92079829D01*
X78818315Y-92788351D01*
X78000000Y-92788351D01*
X78000000Y-91050991D01*
X78497999Y-91050991D01*
X78497999Y-92404390D01*
X79174698Y-91727691D01*
X79878975Y-91727691D01*
X80587496Y-92436212D01*
X81296018Y-91727691D01*
X82000295Y-91727691D01*
X82708817Y-92436212D01*
X83417338Y-91727691D01*
X84121616Y-91727691D01*
X84830137Y-92436212D01*
X85538659Y-91727691D01*
X86242936Y-91727691D01*
X86951457Y-92436212D01*
X87659979Y-91727691D01*
X88364256Y-91727691D01*
X89072778Y-92436212D01*
X89781299Y-91727691D01*
X90485577Y-91727691D01*
X91194098Y-92436212D01*
X91902620Y-91727691D01*
X92606897Y-91727691D01*
X93315418Y-92436212D01*
X94023940Y-91727691D01*
X94728217Y-91727691D01*
X95436739Y-92436212D01*
X96145260Y-91727691D01*
X96849538Y-91727691D01*
X97558059Y-92436212D01*
X98266581Y-91727691D01*
X98970858Y-91727691D01*
X99679379Y-92436212D01*
X100387901Y-91727691D01*
X101092178Y-91727691D01*
X101741009Y-92376521D01*
X102449530Y-91668000D01*
X101800700Y-91019169D01*
X101092178Y-91727691D01*
X100387901Y-91727691D01*
X99679379Y-91019169D01*
X98970858Y-91727691D01*
X98266581Y-91727691D01*
X97558059Y-91019169D01*
X96849538Y-91727691D01*
X96145260Y-91727691D01*
X95436739Y-91019169D01*
X94728217Y-91727691D01*
X94023940Y-91727691D01*
X93315418Y-91019169D01*
X92606897Y-91727691D01*
X91902620Y-91727691D01*
X91194098Y-91019169D01*
X90485577Y-91727691D01*
X89781299Y-91727691D01*
X89072778Y-91019169D01*
X88364256Y-91727691D01*
X87659979Y-91727691D01*
X86951457Y-91019169D01*
X86242936Y-91727691D01*
X85538659Y-91727691D01*
X84830137Y-91019169D01*
X84121616Y-91727691D01*
X83417338Y-91727691D01*
X82708817Y-91019169D01*
X82000295Y-91727691D01*
X81296018Y-91727691D01*
X80587496Y-91019169D01*
X79878975Y-91727691D01*
X79174698Y-91727691D01*
X78497999Y-91050991D01*
X78000000Y-91050991D01*
X78000000Y-90667031D01*
X78818315Y-90667031D01*
X79526836Y-91375552D01*
X80235358Y-90667031D01*
X80939635Y-90667031D01*
X81648157Y-91375552D01*
X82356678Y-90667031D01*
X83060955Y-90667031D01*
X83769477Y-91375552D01*
X84477998Y-90667031D01*
X85182276Y-90667031D01*
X85890797Y-91375552D01*
X86599319Y-90667031D01*
X87303596Y-90667031D01*
X88012118Y-91375552D01*
X88720639Y-90667031D01*
X89424916Y-90667031D01*
X90133438Y-91375552D01*
X90841959Y-90667031D01*
X91546237Y-90667031D01*
X92254758Y-91375552D01*
X92963280Y-90667031D01*
X93667557Y-90667031D01*
X94376079Y-91375552D01*
X95084600Y-90667031D01*
X95788877Y-90667031D01*
X96497399Y-91375552D01*
X97205920Y-90667031D01*
X97910198Y-90667031D01*
X98618719Y-91375552D01*
X99327241Y-90667031D01*
X100031518Y-90667031D01*
X100740040Y-91375552D01*
X101448561Y-90667031D01*
X102152838Y-90667031D01*
X102801669Y-91315861D01*
X103510190Y-90607340D01*
X102861360Y-89958509D01*
X102152838Y-90667031D01*
X101448561Y-90667031D01*
X100740040Y-89958509D01*
X100031518Y-90667031D01*
X99327241Y-90667031D01*
X98618719Y-89958509D01*
X97910198Y-90667031D01*
X97205920Y-90667031D01*
X96497399Y-89958509D01*
X95788877Y-90667031D01*
X95084600Y-90667031D01*
X94376079Y-89958509D01*
X93667557Y-90667031D01*
X92963280Y-90667031D01*
X92254758Y-89958509D01*
X91546237Y-90667031D01*
X90841959Y-90667031D01*
X90133438Y-89958509D01*
X89424916Y-90667031D01*
X88720639Y-90667031D01*
X88012118Y-89958509D01*
X87303596Y-90667031D01*
X86599319Y-90667031D01*
X85890797Y-89958509D01*
X85182276Y-90667031D01*
X84477998Y-90667031D01*
X83769477Y-89958509D01*
X83060955Y-90667031D01*
X82356678Y-90667031D01*
X81648157Y-89958510D01*
X80939635Y-90667031D01*
X80235358Y-90667031D01*
X79526836Y-89958509D01*
X78818315Y-90667031D01*
X78000000Y-90667031D01*
X78000000Y-88929671D01*
X78497999Y-88929671D01*
X78497999Y-90283069D01*
X79174698Y-89606370D01*
X79878975Y-89606370D01*
X80587496Y-90314892D01*
X81296018Y-89606370D01*
X82000295Y-89606370D01*
X82708817Y-90314892D01*
X83417338Y-89606370D01*
X84121616Y-89606370D01*
X84830137Y-90314892D01*
X85538659Y-89606370D01*
X86242936Y-89606370D01*
X86951457Y-90314892D01*
X87659979Y-89606370D01*
X88364256Y-89606370D01*
X89072778Y-90314892D01*
X89781299Y-89606370D01*
X90485577Y-89606370D01*
X91194098Y-90314892D01*
X91902620Y-89606370D01*
X92606897Y-89606370D01*
X93315418Y-90314892D01*
X94023940Y-89606370D01*
X94728217Y-89606370D01*
X95436739Y-90314892D01*
X96145260Y-89606370D01*
X96849538Y-89606370D01*
X97558059Y-90314892D01*
X98266581Y-89606370D01*
X98970858Y-89606370D01*
X99679379Y-90314892D01*
X100387901Y-89606370D01*
X101092178Y-89606370D01*
X101800700Y-90314892D01*
X102509221Y-89606370D01*
X103213499Y-89606370D01*
X103862329Y-90255201D01*
X104570851Y-89546679D01*
X103922020Y-88897849D01*
X103213499Y-89606370D01*
X102509221Y-89606370D01*
X101800700Y-88897849D01*
X101092178Y-89606370D01*
X100387901Y-89606370D01*
X99679379Y-88897849D01*
X98970858Y-89606370D01*
X98266581Y-89606370D01*
X97558059Y-88897849D01*
X96849538Y-89606370D01*
X96145260Y-89606370D01*
X95436739Y-88897849D01*
X94728217Y-89606370D01*
X94023940Y-89606370D01*
X93315418Y-88897849D01*
X92606897Y-89606370D01*
X91902620Y-89606370D01*
X91194098Y-88897849D01*
X90485577Y-89606370D01*
X89781299Y-89606370D01*
X89072778Y-88897849D01*
X88364256Y-89606370D01*
X87659979Y-89606370D01*
X86951457Y-88897849D01*
X86242936Y-89606370D01*
X85538659Y-89606370D01*
X84830137Y-88897849D01*
X84121616Y-89606370D01*
X83417338Y-89606370D01*
X82708817Y-88897849D01*
X82000295Y-89606370D01*
X81296018Y-89606370D01*
X80587496Y-88897849D01*
X79878975Y-89606370D01*
X79174698Y-89606370D01*
X78497999Y-88929671D01*
X78000000Y-88929671D01*
X78000000Y-88545710D01*
X78818315Y-88545710D01*
X79526836Y-89254232D01*
X80235358Y-88545710D01*
X80939635Y-88545710D01*
X81648157Y-89254232D01*
X82356678Y-88545710D01*
X83060955Y-88545710D01*
X83769477Y-89254232D01*
X84477998Y-88545710D01*
X85182276Y-88545710D01*
X85890797Y-89254232D01*
X86599319Y-88545710D01*
X87303596Y-88545710D01*
X88012118Y-89254232D01*
X88720639Y-88545710D01*
X89424916Y-88545710D01*
X90133438Y-89254232D01*
X90841959Y-88545710D01*
X91546237Y-88545710D01*
X92254758Y-89254232D01*
X92963280Y-88545710D01*
X93667557Y-88545710D01*
X94376079Y-89254232D01*
X95084600Y-88545710D01*
X95788877Y-88545710D01*
X96497399Y-89254232D01*
X97205920Y-88545710D01*
X97910198Y-88545710D01*
X98618719Y-89254232D01*
X99327241Y-88545710D01*
X100031518Y-88545710D01*
X100740040Y-89254232D01*
X101448561Y-88545710D01*
X102152838Y-88545710D01*
X102861360Y-89254232D01*
X103569881Y-88545710D01*
X104274159Y-88545710D01*
X104922989Y-89194541D01*
X105631511Y-88486019D01*
X104982680Y-87837189D01*
X104274159Y-88545710D01*
X103569881Y-88545710D01*
X102861360Y-87837189D01*
X102152838Y-88545710D01*
X101448561Y-88545710D01*
X100740040Y-87837189D01*
X100031518Y-88545710D01*
X99327241Y-88545710D01*
X98618719Y-87837189D01*
X97910198Y-88545710D01*
X97205920Y-88545710D01*
X96497399Y-87837189D01*
X95788877Y-88545710D01*
X95084600Y-88545710D01*
X94376079Y-87837189D01*
X93667557Y-88545710D01*
X92963280Y-88545710D01*
X92254758Y-87837189D01*
X91546237Y-88545710D01*
X90841959Y-88545710D01*
X90133438Y-87837189D01*
X89424916Y-88545710D01*
X88720639Y-88545710D01*
X88012118Y-87837189D01*
X87303596Y-88545710D01*
X86599319Y-88545710D01*
X85890797Y-87837189D01*
X85182276Y-88545710D01*
X84477998Y-88545710D01*
X83769477Y-87837189D01*
X83060955Y-88545710D01*
X82356678Y-88545710D01*
X81648157Y-87837189D01*
X80939635Y-88545710D01*
X80235358Y-88545710D01*
X79526836Y-87837189D01*
X78818315Y-88545710D01*
X78000000Y-88545710D01*
X78000000Y-86808351D01*
X78497999Y-86808351D01*
X78497999Y-88161750D01*
X79174698Y-87485050D01*
X79878975Y-87485050D01*
X80587496Y-88193572D01*
X81296018Y-87485050D01*
X82000295Y-87485050D01*
X82708817Y-88193572D01*
X83417338Y-87485050D01*
X84121616Y-87485050D01*
X84830137Y-88193572D01*
X85538659Y-87485050D01*
X86242936Y-87485050D01*
X86951457Y-88193572D01*
X87659979Y-87485050D01*
X88364256Y-87485050D01*
X89072778Y-88193572D01*
X89781299Y-87485050D01*
X90485577Y-87485050D01*
X91194098Y-88193572D01*
X91902620Y-87485050D01*
X92606897Y-87485050D01*
X93315418Y-88193572D01*
X94023940Y-87485050D01*
X94728217Y-87485050D01*
X95436739Y-88193572D01*
X96145260Y-87485050D01*
X96849538Y-87485050D01*
X97558059Y-88193572D01*
X98266581Y-87485050D01*
X98970858Y-87485050D01*
X99679379Y-88193572D01*
X100387901Y-87485050D01*
X101092178Y-87485050D01*
X101800700Y-88193572D01*
X102509221Y-87485050D01*
X103213499Y-87485050D01*
X103922020Y-88193572D01*
X104630542Y-87485050D01*
X105334819Y-87485050D01*
X105983649Y-88133881D01*
X106692171Y-87425359D01*
X106043340Y-86776529D01*
X105334819Y-87485050D01*
X104630542Y-87485050D01*
X103922020Y-86776529D01*
X103213499Y-87485050D01*
X102509221Y-87485050D01*
X101800700Y-86776529D01*
X101092178Y-87485050D01*
X100387901Y-87485050D01*
X99679379Y-86776529D01*
X98970858Y-87485050D01*
X98266581Y-87485050D01*
X97558059Y-86776529D01*
X96849538Y-87485050D01*
X96145260Y-87485050D01*
X95436739Y-86776529D01*
X94728217Y-87485050D01*
X94023940Y-87485050D01*
X93315418Y-86776529D01*
X92606897Y-87485050D01*
X91902620Y-87485050D01*
X91194098Y-86776529D01*
X90485577Y-87485050D01*
X89781299Y-87485050D01*
X89072778Y-86776529D01*
X88364256Y-87485050D01*
X87659979Y-87485050D01*
X86951457Y-86776529D01*
X86242936Y-87485050D01*
X85538659Y-87485050D01*
X84830137Y-86776529D01*
X84121616Y-87485050D01*
X83417338Y-87485050D01*
X82708817Y-86776529D01*
X82000295Y-87485050D01*
X81296018Y-87485050D01*
X80587496Y-86776529D01*
X79878975Y-87485050D01*
X79174698Y-87485050D01*
X78497999Y-86808351D01*
X78000000Y-86808351D01*
X78000000Y-86424390D01*
X78818315Y-86424390D01*
X79526836Y-87132911D01*
X80235358Y-86424390D01*
X80939635Y-86424390D01*
X81648157Y-87132911D01*
X82356678Y-86424390D01*
X83060955Y-86424390D01*
X83769477Y-87132911D01*
X84477998Y-86424390D01*
X85182276Y-86424390D01*
X85890797Y-87132911D01*
X86599319Y-86424390D01*
X87303596Y-86424390D01*
X88012118Y-87132911D01*
X88720639Y-86424390D01*
X89424916Y-86424390D01*
X90133438Y-87132911D01*
X90841959Y-86424390D01*
X91546237Y-86424390D01*
X92254758Y-87132911D01*
X92963280Y-86424390D01*
X93667557Y-86424390D01*
X94376079Y-87132911D01*
X95084600Y-86424390D01*
X95788877Y-86424390D01*
X96497399Y-87132911D01*
X97205920Y-86424390D01*
X97910198Y-86424390D01*
X98618719Y-87132911D01*
X99327241Y-86424390D01*
X100031518Y-86424390D01*
X100740040Y-87132911D01*
X101448561Y-86424390D01*
X102152838Y-86424390D01*
X102861360Y-87132911D01*
X103569881Y-86424390D01*
X104274159Y-86424390D01*
X104982680Y-87132911D01*
X105691202Y-86424390D01*
X106395479Y-86424390D01*
X107044310Y-87073220D01*
X107752831Y-86364699D01*
X107104001Y-85715868D01*
X106395479Y-86424390D01*
X105691202Y-86424390D01*
X104982680Y-85715868D01*
X104274159Y-86424390D01*
X103569881Y-86424390D01*
X102861360Y-85715868D01*
X102152838Y-86424390D01*
X101448561Y-86424390D01*
X100740040Y-85715868D01*
X100031518Y-86424390D01*
X99327241Y-86424390D01*
X98618719Y-85715868D01*
X97910198Y-86424390D01*
X97205920Y-86424390D01*
X96497399Y-85715868D01*
X95788877Y-86424390D01*
X95084600Y-86424390D01*
X94376079Y-85715868D01*
X93667557Y-86424390D01*
X92963280Y-86424390D01*
X92254758Y-85715868D01*
X91546237Y-86424390D01*
X90841959Y-86424390D01*
X90133438Y-85715868D01*
X89424916Y-86424390D01*
X88720639Y-86424390D01*
X88012118Y-85715868D01*
X87303596Y-86424390D01*
X86599319Y-86424390D01*
X85890797Y-85715868D01*
X85182276Y-86424390D01*
X84477998Y-86424390D01*
X83769477Y-85715868D01*
X83060955Y-86424390D01*
X82356678Y-86424390D01*
X81648157Y-85715869D01*
X80939635Y-86424390D01*
X80235358Y-86424390D01*
X79526836Y-85715868D01*
X78818315Y-86424390D01*
X78000000Y-86424390D01*
X78000000Y-84687031D01*
X78497999Y-84687031D01*
X78497999Y-86040429D01*
X79174698Y-85363730D01*
X79878975Y-85363730D01*
X80587496Y-86072251D01*
X81296018Y-85363730D01*
X82000295Y-85363730D01*
X82708817Y-86072251D01*
X83417338Y-85363730D01*
X84121616Y-85363730D01*
X84830137Y-86072251D01*
X85538659Y-85363730D01*
X86242936Y-85363730D01*
X86951457Y-86072251D01*
X87659979Y-85363730D01*
X88364256Y-85363730D01*
X89072778Y-86072251D01*
X89781299Y-85363730D01*
X90485577Y-85363730D01*
X91194098Y-86072251D01*
X91902620Y-85363730D01*
X92606897Y-85363730D01*
X93315418Y-86072251D01*
X94023940Y-85363730D01*
X94728217Y-85363730D01*
X95436739Y-86072251D01*
X96145260Y-85363730D01*
X96849538Y-85363730D01*
X97558059Y-86072251D01*
X98266581Y-85363730D01*
X98970858Y-85363730D01*
X99679379Y-86072251D01*
X100387901Y-85363730D01*
X101092178Y-85363730D01*
X101800700Y-86072251D01*
X102509221Y-85363730D01*
X103213499Y-85363730D01*
X103922020Y-86072251D01*
X104630542Y-85363730D01*
X105334819Y-85363730D01*
X106043340Y-86072251D01*
X106751862Y-85363730D01*
X107456139Y-85363730D01*
X108104970Y-86012560D01*
X108813491Y-85304039D01*
X108164661Y-84655208D01*
X107456139Y-85363730D01*
X106751862Y-85363730D01*
X106043340Y-84655208D01*
X105334819Y-85363730D01*
X104630542Y-85363730D01*
X103922020Y-84655208D01*
X103213499Y-85363730D01*
X102509221Y-85363730D01*
X101800700Y-84655208D01*
X101092178Y-85363730D01*
X100387901Y-85363730D01*
X99679379Y-84655208D01*
X98970858Y-85363730D01*
X98266581Y-85363730D01*
X97558059Y-84655208D01*
X96849538Y-85363730D01*
X96145260Y-85363730D01*
X95436739Y-84655208D01*
X94728217Y-85363730D01*
X94023940Y-85363730D01*
X93315418Y-84655208D01*
X92606897Y-85363730D01*
X91902620Y-85363730D01*
X91194098Y-84655208D01*
X90485577Y-85363730D01*
X89781299Y-85363730D01*
X89072778Y-84655208D01*
X88364256Y-85363730D01*
X87659979Y-85363730D01*
X86951457Y-84655208D01*
X86242936Y-85363730D01*
X85538659Y-85363730D01*
X84830137Y-84655208D01*
X84121616Y-85363730D01*
X83417338Y-85363730D01*
X82708817Y-84655208D01*
X82000295Y-85363730D01*
X81296018Y-85363730D01*
X80587496Y-84655208D01*
X79878975Y-85363730D01*
X79174698Y-85363730D01*
X78497999Y-84687031D01*
X78000000Y-84687031D01*
X78000000Y-84303070D01*
X78818315Y-84303070D01*
X79526836Y-85011591D01*
X80235358Y-84303070D01*
X80939635Y-84303070D01*
X81648157Y-85011591D01*
X82356678Y-84303070D01*
X83060955Y-84303070D01*
X83769477Y-85011591D01*
X84477998Y-84303070D01*
X85182276Y-84303070D01*
X85890797Y-85011591D01*
X86599319Y-84303070D01*
X87303596Y-84303070D01*
X88012118Y-85011591D01*
X88720639Y-84303070D01*
X89424916Y-84303070D01*
X90133438Y-85011591D01*
X90841959Y-84303070D01*
X91546237Y-84303070D01*
X92254758Y-85011591D01*
X92963280Y-84303070D01*
X93667557Y-84303070D01*
X94376079Y-85011591D01*
X95084600Y-84303070D01*
X95788877Y-84303070D01*
X96497399Y-85011591D01*
X97205920Y-84303070D01*
X97910198Y-84303070D01*
X98618719Y-85011591D01*
X99327241Y-84303070D01*
X100031518Y-84303070D01*
X100740040Y-85011591D01*
X101448561Y-84303070D01*
X102152838Y-84303070D01*
X102861360Y-85011591D01*
X103569881Y-84303070D01*
X104274159Y-84303070D01*
X104982680Y-85011591D01*
X105691202Y-84303070D01*
X106395479Y-84303070D01*
X107104001Y-85011591D01*
X107812522Y-84303070D01*
X108516799Y-84303070D01*
X109165630Y-84951900D01*
X109874151Y-84243379D01*
X109225321Y-83594548D01*
X108516799Y-84303070D01*
X107812522Y-84303070D01*
X107104001Y-83594548D01*
X106395479Y-84303070D01*
X105691202Y-84303070D01*
X104982680Y-83594548D01*
X104274159Y-84303070D01*
X103569881Y-84303070D01*
X102861360Y-83594548D01*
X102152838Y-84303070D01*
X101448561Y-84303070D01*
X100740040Y-83594548D01*
X100031518Y-84303070D01*
X99327241Y-84303070D01*
X98618719Y-83594548D01*
X97910198Y-84303070D01*
X97205920Y-84303070D01*
X96497399Y-83594548D01*
X95788877Y-84303070D01*
X95084600Y-84303070D01*
X94376079Y-83594548D01*
X93667557Y-84303070D01*
X92963280Y-84303070D01*
X92254758Y-83594548D01*
X91546237Y-84303070D01*
X90841959Y-84303070D01*
X90133438Y-83594548D01*
X89424916Y-84303070D01*
X88720639Y-84303070D01*
X88012118Y-83594548D01*
X87303596Y-84303070D01*
X86599319Y-84303070D01*
X85890797Y-83594548D01*
X85182276Y-84303070D01*
X84477998Y-84303070D01*
X83769477Y-83594548D01*
X83060955Y-84303070D01*
X82356678Y-84303070D01*
X81648157Y-83594549D01*
X80939635Y-84303070D01*
X80235358Y-84303070D01*
X79526836Y-83594548D01*
X78818315Y-84303070D01*
X78000000Y-84303070D01*
X78000000Y-82565710D01*
X78497999Y-82565710D01*
X78497999Y-83919109D01*
X79174698Y-83242409D01*
X79878975Y-83242409D01*
X80587496Y-83950931D01*
X81296018Y-83242409D01*
X82000295Y-83242409D01*
X82708817Y-83950931D01*
X83417338Y-83242409D01*
X84121616Y-83242409D01*
X84830137Y-83950931D01*
X85538659Y-83242409D01*
X86242936Y-83242409D01*
X86951457Y-83950931D01*
X87659979Y-83242409D01*
X88364256Y-83242409D01*
X89072778Y-83950931D01*
X89781299Y-83242409D01*
X90485577Y-83242409D01*
X91194098Y-83950931D01*
X91902620Y-83242409D01*
X92606897Y-83242409D01*
X93315418Y-83950931D01*
X94023940Y-83242409D01*
X94728217Y-83242409D01*
X95436739Y-83950931D01*
X96145260Y-83242409D01*
X96849538Y-83242409D01*
X97558059Y-83950931D01*
X98266581Y-83242409D01*
X98970858Y-83242409D01*
X99679379Y-83950931D01*
X100387901Y-83242409D01*
X101092178Y-83242409D01*
X101800700Y-83950931D01*
X102509221Y-83242409D01*
X103213499Y-83242409D01*
X103922020Y-83950931D01*
X104630542Y-83242409D01*
X105334819Y-83242409D01*
X106043340Y-83950931D01*
X106751862Y-83242409D01*
X107456139Y-83242409D01*
X108164661Y-83950931D01*
X108873182Y-83242409D01*
X109577460Y-83242409D01*
X110226290Y-83891240D01*
X110934812Y-83182718D01*
X110285981Y-82533888D01*
X109577460Y-83242409D01*
X108873182Y-83242409D01*
X108164661Y-82533888D01*
X107456139Y-83242409D01*
X106751862Y-83242409D01*
X106043340Y-82533888D01*
X105334819Y-83242409D01*
X104630542Y-83242409D01*
X103922020Y-82533888D01*
X103213499Y-83242409D01*
X102509221Y-83242409D01*
X101800700Y-82533888D01*
X101092178Y-83242409D01*
X100387901Y-83242409D01*
X99679379Y-82533888D01*
X98970858Y-83242409D01*
X98266581Y-83242409D01*
X97558059Y-82533888D01*
X96849538Y-83242409D01*
X96145260Y-83242409D01*
X95436739Y-82533888D01*
X94728217Y-83242409D01*
X94023940Y-83242409D01*
X93315418Y-82533888D01*
X92606897Y-83242409D01*
X91902620Y-83242409D01*
X91194098Y-82533888D01*
X90485577Y-83242409D01*
X89781299Y-83242409D01*
X89072778Y-82533888D01*
X88364256Y-83242409D01*
X87659979Y-83242409D01*
X86951457Y-82533888D01*
X86242936Y-83242409D01*
X85538659Y-83242409D01*
X84830137Y-82533888D01*
X84121616Y-83242409D01*
X83417338Y-83242409D01*
X82708817Y-82533888D01*
X82000295Y-83242409D01*
X81296018Y-83242409D01*
X80587496Y-82533888D01*
X79878975Y-83242409D01*
X79174698Y-83242409D01*
X78497999Y-82565710D01*
X78000000Y-82565710D01*
X78000000Y-82181749D01*
X78818315Y-82181749D01*
X79526836Y-82890271D01*
X80235358Y-82181749D01*
X80939635Y-82181749D01*
X81648157Y-82890271D01*
X82356678Y-82181749D01*
X83060955Y-82181749D01*
X83769477Y-82890271D01*
X84477998Y-82181749D01*
X85182276Y-82181749D01*
X85890797Y-82890271D01*
X86599319Y-82181749D01*
X87303596Y-82181749D01*
X88012118Y-82890271D01*
X88422962Y-82479426D01*
X89722593Y-82479426D01*
X90133438Y-82890271D01*
X90525710Y-82498000D01*
X91862487Y-82498000D01*
X92254758Y-82890271D01*
X92647030Y-82498000D01*
X93983808Y-82498000D01*
X94376079Y-82890271D01*
X94768351Y-82498000D01*
X96105128Y-82498000D01*
X96497399Y-82890271D01*
X96889671Y-82498000D01*
X98226448Y-82498000D01*
X98618719Y-82890271D01*
X99010991Y-82498000D01*
X100347769Y-82498000D01*
X100740040Y-82890271D01*
X101132312Y-82498000D01*
X102469089Y-82498000D01*
X102861360Y-82890271D01*
X103253632Y-82498000D01*
X104590409Y-82498000D01*
X104982680Y-82890271D01*
X105374952Y-82498000D01*
X106711730Y-82498000D01*
X107104001Y-82890271D01*
X107496273Y-82498000D01*
X108833050Y-82498000D01*
X109225321Y-82890271D01*
X109617593Y-82498000D01*
X108833050Y-82498000D01*
X107496273Y-82498000D01*
X106711730Y-82498000D01*
X105374952Y-82498000D01*
X104590409Y-82498000D01*
X103253632Y-82498000D01*
X102469089Y-82498000D01*
X101132312Y-82498000D01*
X100347769Y-82498000D01*
X99010991Y-82498000D01*
X98226448Y-82498000D01*
X96889671Y-82498000D01*
X96105128Y-82498000D01*
X94768351Y-82498000D01*
X93983808Y-82498000D01*
X92647030Y-82498000D01*
X91862487Y-82498000D01*
X90525710Y-82498000D01*
X90000000Y-82498000D01*
X89988866Y-82497821D01*
X89977802Y-82497446D01*
X89966676Y-82496869D01*
X89722593Y-82479426D01*
X88422962Y-82479426D01*
X88545178Y-82357210D01*
X110813580Y-82357210D01*
X111286950Y-82830580D01*
X111995471Y-82122058D01*
X111699455Y-81826042D01*
X111642947Y-81882552D01*
X111629576Y-81894138D01*
X111358310Y-82097207D01*
X111343425Y-82106772D01*
X111046018Y-82269167D01*
X111029926Y-82276517D01*
X110813580Y-82357210D01*
X88545178Y-82357210D01*
X88720639Y-82181749D01*
X88619437Y-82080547D01*
X88370424Y-81894138D01*
X88357053Y-81882552D01*
X88117448Y-81642947D01*
X88105862Y-81629577D01*
X87998794Y-81486551D01*
X87303596Y-82181749D01*
X86599319Y-82181749D01*
X85890797Y-81473228D01*
X85182276Y-82181749D01*
X84477998Y-82181749D01*
X83769477Y-81473228D01*
X83060955Y-82181749D01*
X82356678Y-82181749D01*
X81648157Y-81473228D01*
X80939635Y-82181749D01*
X80235358Y-82181749D01*
X79526836Y-81473228D01*
X78818315Y-82181749D01*
X78000000Y-82181749D01*
X78000000Y-80444390D01*
X78497999Y-80444390D01*
X78497999Y-81797789D01*
X79174698Y-81121089D01*
X79878975Y-81121089D01*
X80587496Y-81829611D01*
X81296018Y-81121089D01*
X82000295Y-81121089D01*
X82708817Y-81829611D01*
X83417338Y-81121089D01*
X84121616Y-81121089D01*
X84830137Y-81829611D01*
X85538659Y-81121089D01*
X86242936Y-81121089D01*
X86951457Y-81829611D01*
X87659979Y-81121089D01*
X86951457Y-80412568D01*
X86242936Y-81121089D01*
X85538659Y-81121089D01*
X84830137Y-80412568D01*
X84121616Y-81121089D01*
X83417338Y-81121089D01*
X82708817Y-80412568D01*
X82000295Y-81121089D01*
X81296018Y-81121089D01*
X80587496Y-80412568D01*
X79878975Y-81121089D01*
X79174698Y-81121089D01*
X78497999Y-80444390D01*
X78000000Y-80444390D01*
X78000000Y-80060429D01*
X78818315Y-80060429D01*
X79526836Y-80768950D01*
X80235358Y-80060429D01*
X80939635Y-80060429D01*
X81648157Y-80768950D01*
X82356678Y-80060429D01*
X83060955Y-80060429D01*
X83769477Y-80768950D01*
X84477998Y-80060429D01*
X85182276Y-80060429D01*
X85890797Y-80768950D01*
X86599319Y-80060429D01*
X86536674Y-79997784D01*
X88000000Y-79997784D01*
X88000158Y-80002210D01*
X88020357Y-80284631D01*
X88081012Y-80563460D01*
X88180738Y-80830833D01*
X88317491Y-81081280D01*
X88488503Y-81309724D01*
X88690275Y-81511496D01*
X88918719Y-81682508D01*
X89169166Y-81819261D01*
X89436539Y-81918987D01*
X89715368Y-81979642D01*
X89997789Y-81999841D01*
X90002215Y-82000000D01*
X109997785Y-82000000D01*
X110002210Y-81999841D01*
X110284631Y-81979642D01*
X110563460Y-81918987D01*
X110830833Y-81819261D01*
X111081280Y-81682508D01*
X111309723Y-81511496D01*
X111370719Y-81450500D01*
X112028191Y-81450500D01*
X112347611Y-81769920D01*
X112629092Y-81488439D01*
X112669320Y-81461559D01*
X112850330Y-81386582D01*
X113115823Y-81121089D01*
X113820100Y-81121089D01*
X114075011Y-81376000D01*
X114982233Y-81376000D01*
X115237143Y-81121089D01*
X115941421Y-81121089D01*
X116196332Y-81376000D01*
X117103554Y-81376000D01*
X117358464Y-81121089D01*
X118062741Y-81121089D01*
X118317652Y-81376000D01*
X119224874Y-81376000D01*
X119479784Y-81121089D01*
X120184061Y-81121089D01*
X120438972Y-81376000D01*
X121346194Y-81376000D01*
X121501999Y-81220194D01*
X121501999Y-81021984D01*
X120892583Y-80412568D01*
X120184061Y-81121089D01*
X119479784Y-81121089D01*
X118771263Y-80412568D01*
X118062741Y-81121089D01*
X117358464Y-81121089D01*
X116649942Y-80412568D01*
X115941421Y-81121089D01*
X115237143Y-81121089D01*
X114528622Y-80412568D01*
X113820100Y-81121089D01*
X113115823Y-81121089D01*
X112451781Y-80457048D01*
X112399919Y-80695460D01*
X112394935Y-80712436D01*
X112276517Y-81029926D01*
X112269167Y-81046018D01*
X112106772Y-81343425D01*
X112097206Y-81358310D01*
X112028191Y-81450500D01*
X111370719Y-81450500D01*
X111511496Y-81309723D01*
X111682508Y-81081280D01*
X111819261Y-80830833D01*
X111918987Y-80563460D01*
X111979642Y-80284631D01*
X111995677Y-80060429D01*
X112759440Y-80060429D01*
X113467962Y-80768950D01*
X114176483Y-80060429D01*
X114880761Y-80060429D01*
X115589282Y-80768950D01*
X116297804Y-80060429D01*
X117002081Y-80060429D01*
X117710602Y-80768950D01*
X118419124Y-80060429D01*
X119123401Y-80060429D01*
X119831923Y-80768950D01*
X120540444Y-80060429D01*
X119831923Y-79351907D01*
X119123401Y-80060429D01*
X118419124Y-80060429D01*
X117710602Y-79351907D01*
X117002081Y-80060429D01*
X116297804Y-80060429D01*
X115589282Y-79351907D01*
X114880761Y-80060429D01*
X114176483Y-80060429D01*
X113467962Y-79351907D01*
X112759440Y-80060429D01*
X111995677Y-80060429D01*
X111999841Y-80002210D01*
X112000000Y-79997784D01*
X112000000Y-78381946D01*
X112498000Y-78381946D01*
X112498000Y-79617592D01*
X113115823Y-78999769D01*
X113820100Y-78999769D01*
X114528622Y-79708290D01*
X115237143Y-78999769D01*
X115941421Y-78999769D01*
X116649942Y-79708290D01*
X117358464Y-78999769D01*
X118062741Y-78999769D01*
X118771263Y-79708290D01*
X119479784Y-78999769D01*
X120184061Y-78999769D01*
X120892582Y-79708290D01*
X121501999Y-79098874D01*
X121501999Y-78900663D01*
X120892583Y-78291247D01*
X120184061Y-78999769D01*
X119479784Y-78999769D01*
X118771263Y-78291247D01*
X118062741Y-78999769D01*
X117358464Y-78999769D01*
X116649942Y-78291247D01*
X115941421Y-78999769D01*
X115237143Y-78999769D01*
X114528622Y-78291247D01*
X113820100Y-78999769D01*
X113115823Y-78999769D01*
X112498000Y-78381946D01*
X112000000Y-78381946D01*
X112000000Y-77939108D01*
X112759440Y-77939108D01*
X113467962Y-78647630D01*
X114176482Y-77939109D01*
X114880761Y-77939109D01*
X115589282Y-78647630D01*
X116297802Y-77939109D01*
X117002081Y-77939109D01*
X117710602Y-78647630D01*
X118419124Y-77939109D01*
X119123402Y-77939109D01*
X119831923Y-78647630D01*
X120540444Y-77939109D01*
X119831923Y-77230587D01*
X119123402Y-77939109D01*
X118419124Y-77939109D01*
X117710602Y-77230587D01*
X117002081Y-77939109D01*
X116297802Y-77939109D01*
X116297803Y-77939108D01*
X115589282Y-77230587D01*
X114880761Y-77939109D01*
X114176482Y-77939109D01*
X114176483Y-77939108D01*
X113467962Y-77230587D01*
X112759440Y-77939108D01*
X112000000Y-77939108D01*
X112000000Y-76260625D01*
X112498000Y-76260625D01*
X112498000Y-77496272D01*
X113115823Y-76878448D01*
X113820100Y-76878448D01*
X114528622Y-77586970D01*
X115237143Y-76878448D01*
X115941421Y-76878448D01*
X116649942Y-77586970D01*
X117358464Y-76878448D01*
X118062741Y-76878448D01*
X118771263Y-77586970D01*
X119479784Y-76878448D01*
X120184061Y-76878448D01*
X120892583Y-77586970D01*
X121501999Y-76977554D01*
X121501999Y-76779342D01*
X120892583Y-76169927D01*
X120184061Y-76878448D01*
X119479784Y-76878448D01*
X118771263Y-76169927D01*
X118062741Y-76878448D01*
X117358464Y-76878448D01*
X116649942Y-76169927D01*
X115941421Y-76878448D01*
X115237143Y-76878448D01*
X114528622Y-76169927D01*
X113820100Y-76878448D01*
X113115823Y-76878448D01*
X112498000Y-76260625D01*
X112000000Y-76260625D01*
X112000000Y-75817788D01*
X112759440Y-75817788D01*
X113467962Y-76526310D01*
X114176483Y-75817788D01*
X114880761Y-75817788D01*
X115589282Y-76526310D01*
X116297804Y-75817788D01*
X117002081Y-75817788D01*
X117710602Y-76526310D01*
X118419124Y-75817788D01*
X119123401Y-75817788D01*
X119831923Y-76526310D01*
X120540444Y-75817788D01*
X119831923Y-75109267D01*
X119123401Y-75817788D01*
X118419124Y-75817788D01*
X117710602Y-75109267D01*
X117002081Y-75817788D01*
X116297804Y-75817788D01*
X115589282Y-75109267D01*
X114880761Y-75817788D01*
X114176483Y-75817788D01*
X113467962Y-75109267D01*
X112759440Y-75817788D01*
X112000000Y-75817788D01*
X112000000Y-74139286D01*
X112497981Y-74139286D01*
X112497997Y-75374954D01*
X113115823Y-74757128D01*
X113820100Y-74757128D01*
X114528622Y-75465649D01*
X115237143Y-74757128D01*
X115941421Y-74757128D01*
X116649942Y-75465649D01*
X117358464Y-74757128D01*
X118062741Y-74757128D01*
X118771263Y-75465649D01*
X119479784Y-74757128D01*
X120184061Y-74757128D01*
X120892582Y-75465649D01*
X121501999Y-74856233D01*
X121501999Y-74658022D01*
X120892583Y-74048606D01*
X120184061Y-74757128D01*
X119479784Y-74757128D01*
X118771263Y-74048606D01*
X118062741Y-74757128D01*
X117358464Y-74757128D01*
X116649942Y-74048606D01*
X115941421Y-74757128D01*
X115237143Y-74757128D01*
X114528622Y-74048606D01*
X113820100Y-74757128D01*
X113115823Y-74757128D01*
X112497981Y-74139286D01*
X112000000Y-74139286D01*
X112000000Y-74002215D01*
X111999841Y-73997789D01*
X111979642Y-73715368D01*
X111975531Y-73696468D01*
X112759440Y-73696468D01*
X113467962Y-74404989D01*
X114176483Y-73696468D01*
X114880761Y-73696468D01*
X115589282Y-74404989D01*
X116297804Y-73696468D01*
X117002081Y-73696468D01*
X117710602Y-74404989D01*
X118419124Y-73696468D01*
X119123401Y-73696468D01*
X119831923Y-74404989D01*
X120540444Y-73696468D01*
X119831923Y-72987946D01*
X119123401Y-73696468D01*
X118419124Y-73696468D01*
X117710602Y-72987946D01*
X117002081Y-73696468D01*
X116297804Y-73696468D01*
X115589282Y-72987946D01*
X114880761Y-73696468D01*
X114176483Y-73696468D01*
X113467962Y-72987946D01*
X112759440Y-73696468D01*
X111975531Y-73696468D01*
X111918987Y-73436539D01*
X111819261Y-73169166D01*
X111682508Y-72918719D01*
X111511496Y-72690276D01*
X111309723Y-72488503D01*
X111205485Y-72410471D01*
X111924117Y-72410471D01*
X112097207Y-72641690D01*
X112106772Y-72656575D01*
X112269167Y-72953982D01*
X112276517Y-72970074D01*
X112394935Y-73287564D01*
X112399919Y-73304541D01*
X112408346Y-73343285D01*
X113115823Y-72635808D01*
X113820100Y-72635808D01*
X114528622Y-73344329D01*
X115237143Y-72635808D01*
X115941421Y-72635808D01*
X116649942Y-73344329D01*
X117358464Y-72635808D01*
X118062741Y-72635808D01*
X118771263Y-73344329D01*
X119479784Y-72635808D01*
X120184061Y-72635808D01*
X120892582Y-73344329D01*
X121501999Y-72734913D01*
X121501999Y-72536702D01*
X120892583Y-71927286D01*
X120184061Y-72635808D01*
X119479784Y-72635808D01*
X118771263Y-71927286D01*
X118062741Y-72635808D01*
X117358464Y-72635808D01*
X116649942Y-71927286D01*
X115941421Y-72635808D01*
X115237143Y-72635808D01*
X114528622Y-71927286D01*
X113820100Y-72635808D01*
X113115823Y-72635808D01*
X112407301Y-71927286D01*
X111924117Y-72410471D01*
X111205485Y-72410471D01*
X111081280Y-72317491D01*
X110830833Y-72180738D01*
X110563460Y-72081012D01*
X110284631Y-72020357D01*
X110002210Y-72000158D01*
X109997785Y-72000000D01*
X90002215Y-72000000D01*
X89997789Y-72000158D01*
X89715368Y-72020357D01*
X89436539Y-72081012D01*
X89169166Y-72180738D01*
X88918719Y-72317491D01*
X88690275Y-72488503D01*
X88488503Y-72690275D01*
X88317491Y-72918719D01*
X88180738Y-73169166D01*
X88081012Y-73436539D01*
X88020357Y-73715368D01*
X88000158Y-73997789D01*
X88000000Y-74002215D01*
X88000000Y-79997784D01*
X86536674Y-79997784D01*
X85890797Y-79351907D01*
X85182276Y-80060429D01*
X84477998Y-80060429D01*
X83769477Y-79351907D01*
X83060955Y-80060429D01*
X82356678Y-80060429D01*
X81648157Y-79351908D01*
X80939635Y-80060429D01*
X80235358Y-80060429D01*
X79526836Y-79351907D01*
X78818315Y-80060429D01*
X78000000Y-80060429D01*
X78000000Y-78323070D01*
X78497999Y-78323070D01*
X78497999Y-79676468D01*
X79174698Y-78999769D01*
X79878975Y-78999769D01*
X80587496Y-79708290D01*
X81296018Y-78999769D01*
X82000295Y-78999769D01*
X82708817Y-79708290D01*
X83417338Y-78999769D01*
X84121616Y-78999769D01*
X84830137Y-79708290D01*
X85538659Y-78999769D01*
X86242936Y-78999769D01*
X86951457Y-79708290D01*
X87502000Y-79157748D01*
X87502000Y-78841790D01*
X86951457Y-78291247D01*
X86242936Y-78999769D01*
X85538659Y-78999769D01*
X84830137Y-78291247D01*
X84121616Y-78999769D01*
X83417338Y-78999769D01*
X82708817Y-78291247D01*
X82000295Y-78999769D01*
X81296018Y-78999769D01*
X80587496Y-78291247D01*
X79878975Y-78999769D01*
X79174698Y-78999769D01*
X78497999Y-78323070D01*
X78000000Y-78323070D01*
X78000000Y-77939109D01*
X78818315Y-77939109D01*
X79526836Y-78647630D01*
X80235358Y-77939109D01*
X80939636Y-77939109D01*
X81648157Y-78647630D01*
X82356678Y-77939109D01*
X83060956Y-77939109D01*
X83769477Y-78647630D01*
X84477998Y-77939109D01*
X85182276Y-77939109D01*
X85890797Y-78647630D01*
X86599319Y-77939109D01*
X85890797Y-77230587D01*
X85182276Y-77939109D01*
X84477998Y-77939109D01*
X83769477Y-77230587D01*
X83060956Y-77939109D01*
X82356678Y-77939109D01*
X81648157Y-77230588D01*
X80939636Y-77939109D01*
X80235358Y-77939109D01*
X79526836Y-77230587D01*
X78818315Y-77939109D01*
X78000000Y-77939109D01*
X78000000Y-76201749D01*
X78497999Y-76201749D01*
X78497999Y-77555148D01*
X79174698Y-76878448D01*
X79878975Y-76878448D01*
X80587496Y-77586970D01*
X81296018Y-76878448D01*
X82000295Y-76878448D01*
X82708817Y-77586970D01*
X83417338Y-76878448D01*
X84121616Y-76878448D01*
X84830137Y-77586970D01*
X85538659Y-76878448D01*
X86242936Y-76878448D01*
X86951457Y-77586969D01*
X87502000Y-77036427D01*
X87502000Y-76720469D01*
X86951458Y-76169927D01*
X86242936Y-76878448D01*
X85538659Y-76878448D01*
X84830137Y-76169927D01*
X84121616Y-76878448D01*
X83417338Y-76878448D01*
X82708817Y-76169927D01*
X82000295Y-76878448D01*
X81296018Y-76878448D01*
X80587496Y-76169927D01*
X79878975Y-76878448D01*
X79174698Y-76878448D01*
X78497999Y-76201749D01*
X78000000Y-76201749D01*
X78000000Y-75817788D01*
X78818315Y-75817788D01*
X79526836Y-76526310D01*
X80235358Y-75817788D01*
X80939635Y-75817788D01*
X81648157Y-76526310D01*
X82356678Y-75817788D01*
X83060955Y-75817788D01*
X83769477Y-76526310D01*
X84477998Y-75817788D01*
X85182276Y-75817788D01*
X85890797Y-76526310D01*
X86599319Y-75817788D01*
X85890797Y-75109267D01*
X85182276Y-75817788D01*
X84477998Y-75817788D01*
X83769477Y-75109267D01*
X83060955Y-75817788D01*
X82356678Y-75817788D01*
X81648157Y-75109267D01*
X80939635Y-75817788D01*
X80235358Y-75817788D01*
X79526836Y-75109267D01*
X78818315Y-75817788D01*
X78000000Y-75817788D01*
X78000000Y-74080429D01*
X78497999Y-74080429D01*
X78497999Y-75433827D01*
X79174698Y-74757128D01*
X79878975Y-74757128D01*
X80587496Y-75465649D01*
X81296018Y-74757128D01*
X82000295Y-74757128D01*
X82708817Y-75465649D01*
X83417338Y-74757128D01*
X84121616Y-74757128D01*
X84830137Y-75465649D01*
X85538659Y-74757128D01*
X86242936Y-74757128D01*
X86951457Y-75465649D01*
X87502000Y-74915107D01*
X87502000Y-74599149D01*
X86951457Y-74048606D01*
X86242936Y-74757128D01*
X85538659Y-74757128D01*
X84830137Y-74048606D01*
X84121616Y-74757128D01*
X83417338Y-74757128D01*
X82708817Y-74048606D01*
X82000295Y-74757128D01*
X81296018Y-74757128D01*
X80587496Y-74048606D01*
X79878975Y-74757128D01*
X79174698Y-74757128D01*
X78497999Y-74080429D01*
X78000000Y-74080429D01*
X78000000Y-73696468D01*
X78818315Y-73696468D01*
X79526836Y-74404989D01*
X80235358Y-73696468D01*
X80939635Y-73696468D01*
X81648157Y-74404989D01*
X82356678Y-73696468D01*
X83060955Y-73696468D01*
X83769477Y-74404989D01*
X84477998Y-73696468D01*
X85182276Y-73696468D01*
X85890797Y-74404989D01*
X86599319Y-73696468D01*
X85890797Y-72987946D01*
X85182276Y-73696468D01*
X84477998Y-73696468D01*
X83769477Y-72987946D01*
X83060955Y-73696468D01*
X82356678Y-73696468D01*
X81648157Y-72987947D01*
X80939635Y-73696468D01*
X80235358Y-73696468D01*
X79526836Y-72987946D01*
X78818315Y-73696468D01*
X78000000Y-73696468D01*
X78000000Y-71959109D01*
X78497999Y-71959109D01*
X78497999Y-73312507D01*
X79174698Y-72635808D01*
X79878975Y-72635808D01*
X80587496Y-73344329D01*
X81296018Y-72635808D01*
X82000295Y-72635808D01*
X82708817Y-73344329D01*
X83417338Y-72635808D01*
X84121616Y-72635808D01*
X84830137Y-73344329D01*
X85538659Y-72635808D01*
X86242936Y-72635808D01*
X86951457Y-73344329D01*
X87659979Y-72635808D01*
X86951457Y-71927286D01*
X86242936Y-72635808D01*
X85538659Y-72635808D01*
X84830137Y-71927286D01*
X84121616Y-72635808D01*
X83417338Y-72635808D01*
X82708817Y-71927286D01*
X82000295Y-72635808D01*
X81296018Y-72635808D01*
X80587496Y-71927286D01*
X79878975Y-72635808D01*
X79174698Y-72635808D01*
X78497999Y-71959109D01*
X78000000Y-71959109D01*
X78000000Y-71575148D01*
X78818315Y-71575148D01*
X79526836Y-72283669D01*
X80235358Y-71575148D01*
X80939636Y-71575148D01*
X81648157Y-72283669D01*
X82356678Y-71575148D01*
X83060956Y-71575148D01*
X83769477Y-72283669D01*
X84477998Y-71575148D01*
X85182276Y-71575148D01*
X85890797Y-72283669D01*
X86599319Y-71575148D01*
X87303597Y-71575148D01*
X88012118Y-72283669D01*
X88720639Y-71575148D01*
X110638120Y-71575148D01*
X110654043Y-71591071D01*
X110695460Y-71600081D01*
X110712436Y-71605065D01*
X111029926Y-71723483D01*
X111046018Y-71730833D01*
X111343425Y-71893228D01*
X111358310Y-71902793D01*
X111569454Y-72060855D01*
X112055161Y-71575148D01*
X112759441Y-71575148D01*
X113467962Y-72283669D01*
X114176483Y-71575148D01*
X114880761Y-71575148D01*
X115589282Y-72283669D01*
X116297803Y-71575148D01*
X117002081Y-71575148D01*
X117710602Y-72283669D01*
X118419124Y-71575148D01*
X119123401Y-71575148D01*
X119831923Y-72283669D01*
X120540444Y-71575148D01*
X119831923Y-70866626D01*
X119123401Y-71575148D01*
X118419124Y-71575148D01*
X117710602Y-70866626D01*
X117002081Y-71575148D01*
X116297803Y-71575148D01*
X115589282Y-70866626D01*
X114880761Y-71575148D01*
X114176483Y-71575148D01*
X113467962Y-70866626D01*
X112759441Y-71575148D01*
X112055161Y-71575148D01*
X112055162Y-71575147D01*
X111346641Y-70866626D01*
X110638120Y-71575148D01*
X88720639Y-71575148D01*
X88719037Y-71573546D01*
X89426518Y-71573546D01*
X89635650Y-71528053D01*
X89653162Y-71525535D01*
X89964473Y-71503269D01*
X89975586Y-71502653D01*
X89986648Y-71502238D01*
X89997791Y-71502020D01*
X90768815Y-71502004D01*
X90768811Y-71502000D01*
X91619385Y-71502000D01*
X92890132Y-71502000D01*
X93740706Y-71502000D01*
X95011453Y-71502000D01*
X95862026Y-71502000D01*
X97132773Y-71502000D01*
X97983346Y-71502000D01*
X99254093Y-71502000D01*
X100104667Y-71502000D01*
X101375414Y-71502000D01*
X102225987Y-71502000D01*
X103496734Y-71502000D01*
X104347307Y-71502000D01*
X105618054Y-71502000D01*
X106468628Y-71502000D01*
X107739375Y-71502000D01*
X108589948Y-71502000D01*
X109860695Y-71502000D01*
X109225321Y-70866626D01*
X108589948Y-71502000D01*
X107739375Y-71502000D01*
X107104001Y-70866626D01*
X106468628Y-71502000D01*
X105618054Y-71502000D01*
X104982680Y-70866626D01*
X104347307Y-71502000D01*
X103496734Y-71502000D01*
X102861360Y-70866626D01*
X102225987Y-71502000D01*
X101375414Y-71502000D01*
X100740040Y-70866626D01*
X100104667Y-71502000D01*
X99254093Y-71502000D01*
X98618719Y-70866626D01*
X97983346Y-71502000D01*
X97132773Y-71502000D01*
X96497399Y-70866626D01*
X95862026Y-71502000D01*
X95011453Y-71502000D01*
X94376079Y-70866626D01*
X93740706Y-71502000D01*
X92890132Y-71502000D01*
X92254758Y-70866626D01*
X91619385Y-71502000D01*
X90768811Y-71502000D01*
X90133438Y-70866626D01*
X89426518Y-71573546D01*
X88719037Y-71573546D01*
X88012118Y-70866626D01*
X87303597Y-71575148D01*
X86599319Y-71575148D01*
X85890797Y-70866626D01*
X85182276Y-71575148D01*
X84477998Y-71575148D01*
X83769477Y-70866626D01*
X83060956Y-71575148D01*
X82356678Y-71575148D01*
X81648157Y-70866627D01*
X80939636Y-71575148D01*
X80235358Y-71575148D01*
X79526836Y-70866626D01*
X78818315Y-71575148D01*
X78000000Y-71575148D01*
X78000000Y-69837788D01*
X78497999Y-69837788D01*
X78497999Y-71191187D01*
X79174698Y-70514487D01*
X79878975Y-70514487D01*
X80587496Y-71223009D01*
X81296018Y-70514487D01*
X82000295Y-70514487D01*
X82708817Y-71223009D01*
X83417338Y-70514487D01*
X84121616Y-70514487D01*
X84830137Y-71223009D01*
X85538659Y-70514487D01*
X86242936Y-70514487D01*
X86951457Y-71223009D01*
X87659979Y-70514487D01*
X88364256Y-70514487D01*
X89072778Y-71223009D01*
X89781299Y-70514487D01*
X90485577Y-70514487D01*
X91194098Y-71223009D01*
X91902620Y-70514487D01*
X92606897Y-70514487D01*
X93315418Y-71223009D01*
X94023940Y-70514487D01*
X94728217Y-70514487D01*
X95436739Y-71223009D01*
X96145260Y-70514487D01*
X96849538Y-70514487D01*
X97558059Y-71223009D01*
X98266581Y-70514487D01*
X98970858Y-70514487D01*
X99679379Y-71223009D01*
X100387901Y-70514487D01*
X101092178Y-70514487D01*
X101800700Y-71223009D01*
X102509221Y-70514487D01*
X103213499Y-70514487D01*
X103922020Y-71223009D01*
X104630542Y-70514487D01*
X105334819Y-70514487D01*
X106043340Y-71223009D01*
X106751862Y-70514487D01*
X107456139Y-70514487D01*
X108164661Y-71223009D01*
X108873182Y-70514487D01*
X109577460Y-70514487D01*
X110285981Y-71223009D01*
X110994503Y-70514487D01*
X111698780Y-70514487D01*
X112407302Y-71223009D01*
X113115823Y-70514487D01*
X113820100Y-70514487D01*
X114528622Y-71223009D01*
X115237143Y-70514487D01*
X115941421Y-70514487D01*
X116649942Y-71223009D01*
X117358464Y-70514487D01*
X118062741Y-70514487D01*
X118771263Y-71223009D01*
X119479784Y-70514487D01*
X120184061Y-70514487D01*
X120892583Y-71223009D01*
X121501999Y-70613593D01*
X121501999Y-70415382D01*
X120892583Y-69805966D01*
X120184061Y-70514487D01*
X119479784Y-70514487D01*
X118771263Y-69805966D01*
X118062741Y-70514487D01*
X117358464Y-70514487D01*
X116649942Y-69805966D01*
X115941421Y-70514487D01*
X115237143Y-70514487D01*
X114528622Y-69805966D01*
X113820100Y-70514487D01*
X113115823Y-70514487D01*
X112407302Y-69805966D01*
X111698780Y-70514487D01*
X110994503Y-70514487D01*
X110285981Y-69805966D01*
X109577460Y-70514487D01*
X108873182Y-70514487D01*
X108164661Y-69805966D01*
X107456139Y-70514487D01*
X106751862Y-70514487D01*
X106043340Y-69805966D01*
X105334819Y-70514487D01*
X104630542Y-70514487D01*
X103922020Y-69805966D01*
X103213499Y-70514487D01*
X102509221Y-70514487D01*
X101800700Y-69805966D01*
X101092178Y-70514487D01*
X100387901Y-70514487D01*
X99679379Y-69805966D01*
X98970858Y-70514487D01*
X98266581Y-70514487D01*
X97558059Y-69805966D01*
X96849538Y-70514487D01*
X96145260Y-70514487D01*
X95436739Y-69805966D01*
X94728217Y-70514487D01*
X94023940Y-70514487D01*
X93315418Y-69805966D01*
X92606897Y-70514487D01*
X91902620Y-70514487D01*
X91194098Y-69805966D01*
X90485577Y-70514487D01*
X89781299Y-70514487D01*
X89072778Y-69805966D01*
X88364256Y-70514487D01*
X87659979Y-70514487D01*
X86951457Y-69805966D01*
X86242936Y-70514487D01*
X85538659Y-70514487D01*
X84830137Y-69805966D01*
X84121616Y-70514487D01*
X83417338Y-70514487D01*
X82708817Y-69805966D01*
X82000295Y-70514487D01*
X81296018Y-70514487D01*
X80587496Y-69805966D01*
X79878975Y-70514487D01*
X79174698Y-70514487D01*
X78497999Y-69837788D01*
X78000000Y-69837788D01*
X78000000Y-69453827D01*
X78818315Y-69453827D01*
X79526836Y-70162349D01*
X80235358Y-69453827D01*
X80939635Y-69453827D01*
X81648157Y-70162348D01*
X82356678Y-69453827D01*
X83060955Y-69453827D01*
X83769477Y-70162349D01*
X84477998Y-69453827D01*
X85182276Y-69453827D01*
X85890797Y-70162349D01*
X86599319Y-69453827D01*
X87303596Y-69453827D01*
X88012118Y-70162349D01*
X88720639Y-69453827D01*
X89424916Y-69453827D01*
X90133438Y-70162349D01*
X90841959Y-69453827D01*
X91546237Y-69453827D01*
X92254758Y-70162349D01*
X92963280Y-69453827D01*
X93667557Y-69453827D01*
X94376079Y-70162349D01*
X95084600Y-69453827D01*
X95788877Y-69453827D01*
X96497399Y-70162349D01*
X97205920Y-69453827D01*
X97910198Y-69453827D01*
X98618719Y-70162349D01*
X99327241Y-69453827D01*
X100031518Y-69453827D01*
X100740040Y-70162349D01*
X101448561Y-69453827D01*
X102152838Y-69453827D01*
X102861360Y-70162349D01*
X103569881Y-69453827D01*
X104274159Y-69453827D01*
X104982680Y-70162349D01*
X105691202Y-69453827D01*
X106395479Y-69453827D01*
X107104001Y-70162349D01*
X107812522Y-69453827D01*
X108516799Y-69453827D01*
X109225321Y-70162349D01*
X109933842Y-69453827D01*
X110638120Y-69453827D01*
X111346641Y-70162349D01*
X112055163Y-69453827D01*
X112759440Y-69453827D01*
X113467962Y-70162349D01*
X114176483Y-69453827D01*
X114880761Y-69453827D01*
X115589282Y-70162349D01*
X116297804Y-69453827D01*
X117002081Y-69453827D01*
X117710602Y-70162349D01*
X118419124Y-69453827D01*
X119123401Y-69453827D01*
X119831923Y-70162349D01*
X120540444Y-69453827D01*
X119831923Y-68745306D01*
X119123401Y-69453827D01*
X118419124Y-69453827D01*
X117710602Y-68745306D01*
X117002081Y-69453827D01*
X116297804Y-69453827D01*
X115589282Y-68745306D01*
X114880761Y-69453827D01*
X114176483Y-69453827D01*
X113467962Y-68745306D01*
X112759440Y-69453827D01*
X112055163Y-69453827D01*
X111346641Y-68745306D01*
X110638120Y-69453827D01*
X109933842Y-69453827D01*
X109225321Y-68745306D01*
X108516799Y-69453827D01*
X107812522Y-69453827D01*
X107104001Y-68745306D01*
X106395479Y-69453827D01*
X105691202Y-69453827D01*
X104982680Y-68745306D01*
X104274159Y-69453827D01*
X103569881Y-69453827D01*
X102861360Y-68745306D01*
X102152838Y-69453827D01*
X101448561Y-69453827D01*
X100740040Y-68745306D01*
X100031518Y-69453827D01*
X99327241Y-69453827D01*
X98618719Y-68745306D01*
X97910198Y-69453827D01*
X97205920Y-69453827D01*
X96497399Y-68745306D01*
X95788877Y-69453827D01*
X95084600Y-69453827D01*
X94376079Y-68745306D01*
X93667557Y-69453827D01*
X92963280Y-69453827D01*
X92254758Y-68745306D01*
X91546237Y-69453827D01*
X90841959Y-69453827D01*
X90133438Y-68745306D01*
X89424916Y-69453827D01*
X88720639Y-69453827D01*
X88012118Y-68745306D01*
X87303596Y-69453827D01*
X86599319Y-69453827D01*
X85890797Y-68745306D01*
X85182276Y-69453827D01*
X84477998Y-69453827D01*
X83769477Y-68745306D01*
X83060955Y-69453827D01*
X82356678Y-69453827D01*
X81648157Y-68745306D01*
X80939635Y-69453827D01*
X80235358Y-69453827D01*
X79526836Y-68745306D01*
X78818315Y-69453827D01*
X78000000Y-69453827D01*
X78000000Y-67716468D01*
X78497999Y-67716468D01*
X78497999Y-69069866D01*
X79174698Y-68393167D01*
X79878975Y-68393167D01*
X80587496Y-69101688D01*
X81296018Y-68393167D01*
X82000295Y-68393167D01*
X82708817Y-69101688D01*
X83417338Y-68393167D01*
X84121616Y-68393167D01*
X84830137Y-69101688D01*
X85538659Y-68393167D01*
X86242936Y-68393167D01*
X86951457Y-69101688D01*
X87659979Y-68393167D01*
X88364256Y-68393167D01*
X89072778Y-69101688D01*
X89781299Y-68393167D01*
X90485577Y-68393167D01*
X91194098Y-69101688D01*
X91902620Y-68393167D01*
X92606897Y-68393167D01*
X93315418Y-69101688D01*
X94023940Y-68393167D01*
X94728217Y-68393167D01*
X95436739Y-69101688D01*
X96145260Y-68393167D01*
X96849538Y-68393167D01*
X97558059Y-69101688D01*
X98266581Y-68393167D01*
X98970858Y-68393167D01*
X99679379Y-69101688D01*
X100387901Y-68393167D01*
X101092178Y-68393167D01*
X101800700Y-69101688D01*
X102509221Y-68393167D01*
X103213499Y-68393167D01*
X103922020Y-69101688D01*
X104630542Y-68393167D01*
X105334819Y-68393167D01*
X106043340Y-69101688D01*
X106751862Y-68393167D01*
X107456139Y-68393167D01*
X108164661Y-69101688D01*
X108873182Y-68393167D01*
X109577460Y-68393167D01*
X110285981Y-69101688D01*
X110994503Y-68393167D01*
X111698780Y-68393167D01*
X112407302Y-69101688D01*
X113115823Y-68393167D01*
X113820100Y-68393167D01*
X114528622Y-69101688D01*
X115237143Y-68393167D01*
X115941421Y-68393167D01*
X116649942Y-69101688D01*
X117358464Y-68393167D01*
X118062741Y-68393167D01*
X118771263Y-69101688D01*
X119479784Y-68393167D01*
X120184061Y-68393167D01*
X120892582Y-69101688D01*
X121501999Y-68492272D01*
X121501999Y-68294061D01*
X120892583Y-67684645D01*
X120184061Y-68393167D01*
X119479784Y-68393167D01*
X118771263Y-67684645D01*
X118062741Y-68393167D01*
X117358464Y-68393167D01*
X116649942Y-67684645D01*
X115941421Y-68393167D01*
X115237143Y-68393167D01*
X114528622Y-67684645D01*
X113820100Y-68393167D01*
X113115823Y-68393167D01*
X112407302Y-67684646D01*
X111698780Y-68393167D01*
X110994503Y-68393167D01*
X110285981Y-67684645D01*
X109577460Y-68393167D01*
X108873182Y-68393167D01*
X108164661Y-67684645D01*
X107456139Y-68393167D01*
X106751862Y-68393167D01*
X106043340Y-67684645D01*
X105334819Y-68393167D01*
X104630542Y-68393167D01*
X103922020Y-67684645D01*
X103213499Y-68393167D01*
X102509221Y-68393167D01*
X101800700Y-67684645D01*
X101092178Y-68393167D01*
X100387901Y-68393167D01*
X99679379Y-67684645D01*
X98970858Y-68393167D01*
X98266581Y-68393167D01*
X97558059Y-67684645D01*
X96849538Y-68393167D01*
X96145260Y-68393167D01*
X95436739Y-67684645D01*
X94728217Y-68393167D01*
X94023940Y-68393167D01*
X93315418Y-67684645D01*
X92606897Y-68393167D01*
X91902620Y-68393167D01*
X91194098Y-67684645D01*
X90485577Y-68393167D01*
X89781299Y-68393167D01*
X89072778Y-67684645D01*
X88364256Y-68393167D01*
X87659979Y-68393167D01*
X86951457Y-67684645D01*
X86242936Y-68393167D01*
X85538659Y-68393167D01*
X84830137Y-67684645D01*
X84121616Y-68393167D01*
X83417338Y-68393167D01*
X82708817Y-67684645D01*
X82000295Y-68393167D01*
X81296018Y-68393167D01*
X80587496Y-67684645D01*
X79878975Y-68393167D01*
X79174698Y-68393167D01*
X78497999Y-67716468D01*
X78000000Y-67716468D01*
X78000000Y-67332507D01*
X78818315Y-67332507D01*
X79526836Y-68041028D01*
X80235358Y-67332507D01*
X80939635Y-67332507D01*
X81648157Y-68041028D01*
X82356678Y-67332507D01*
X83060955Y-67332507D01*
X83769477Y-68041028D01*
X84477998Y-67332507D01*
X85182276Y-67332507D01*
X85890797Y-68041028D01*
X86599319Y-67332507D01*
X87303596Y-67332507D01*
X88012118Y-68041028D01*
X88720639Y-67332507D01*
X89424916Y-67332507D01*
X90133438Y-68041028D01*
X90841959Y-67332507D01*
X91546237Y-67332507D01*
X92254758Y-68041028D01*
X92963280Y-67332507D01*
X93667557Y-67332507D01*
X94376079Y-68041028D01*
X95084600Y-67332507D01*
X95788877Y-67332507D01*
X96497399Y-68041028D01*
X97205920Y-67332507D01*
X97910198Y-67332507D01*
X98618719Y-68041028D01*
X99327241Y-67332507D01*
X100031518Y-67332507D01*
X100740040Y-68041028D01*
X101448561Y-67332507D01*
X102152838Y-67332507D01*
X102861360Y-68041028D01*
X103569881Y-67332507D01*
X104274159Y-67332507D01*
X104982680Y-68041028D01*
X105691202Y-67332507D01*
X106395479Y-67332507D01*
X107104001Y-68041028D01*
X107812522Y-67332507D01*
X108516799Y-67332507D01*
X109225321Y-68041028D01*
X109933842Y-67332507D01*
X110638120Y-67332507D01*
X111346641Y-68041028D01*
X112055163Y-67332507D01*
X112759440Y-67332507D01*
X113467962Y-68041028D01*
X114176483Y-67332507D01*
X114880761Y-67332507D01*
X115589282Y-68041028D01*
X116297804Y-67332507D01*
X117002081Y-67332507D01*
X117710602Y-68041028D01*
X118419124Y-67332507D01*
X119123401Y-67332507D01*
X119831923Y-68041028D01*
X120540444Y-67332507D01*
X119831923Y-66623985D01*
X119123401Y-67332507D01*
X118419124Y-67332507D01*
X117710602Y-66623985D01*
X117002081Y-67332507D01*
X116297804Y-67332507D01*
X115589282Y-66623985D01*
X114880761Y-67332507D01*
X114176483Y-67332507D01*
X113467962Y-66623985D01*
X112759440Y-67332507D01*
X112055163Y-67332507D01*
X111346641Y-66623985D01*
X110638120Y-67332507D01*
X109933842Y-67332507D01*
X109225321Y-66623985D01*
X108516799Y-67332507D01*
X107812522Y-67332507D01*
X107104001Y-66623985D01*
X106395479Y-67332507D01*
X105691202Y-67332507D01*
X104982680Y-66623985D01*
X104274159Y-67332507D01*
X103569881Y-67332507D01*
X102861360Y-66623985D01*
X102152838Y-67332507D01*
X101448561Y-67332507D01*
X100740040Y-66623985D01*
X100031518Y-67332507D01*
X99327241Y-67332507D01*
X98618719Y-66623985D01*
X97910198Y-67332507D01*
X97205920Y-67332507D01*
X96497399Y-66623985D01*
X95788877Y-67332507D01*
X95084600Y-67332507D01*
X94376079Y-66623985D01*
X93667557Y-67332507D01*
X92963280Y-67332507D01*
X92254758Y-66623985D01*
X91546237Y-67332507D01*
X90841959Y-67332507D01*
X90133438Y-66623985D01*
X89424916Y-67332507D01*
X88720639Y-67332507D01*
X88012118Y-66623985D01*
X87303596Y-67332507D01*
X86599319Y-67332507D01*
X85890797Y-66623985D01*
X85182276Y-67332507D01*
X84477998Y-67332507D01*
X83769477Y-66623985D01*
X83060955Y-67332507D01*
X82356678Y-67332507D01*
X81648157Y-66623985D01*
X80939635Y-67332507D01*
X80235358Y-67332507D01*
X79526836Y-66623985D01*
X78818315Y-67332507D01*
X78000000Y-67332507D01*
X78000000Y-66948546D01*
X78497999Y-66948546D01*
X79174698Y-66271847D01*
X79878975Y-66271847D01*
X80587496Y-66980368D01*
X81296018Y-66271847D01*
X82000295Y-66271847D01*
X82708817Y-66980368D01*
X83417338Y-66271847D01*
X84121616Y-66271847D01*
X84830137Y-66980368D01*
X85538659Y-66271847D01*
X86242936Y-66271847D01*
X86951457Y-66980368D01*
X87659979Y-66271847D01*
X88364256Y-66271847D01*
X89072778Y-66980368D01*
X89781299Y-66271847D01*
X90485577Y-66271847D01*
X91194098Y-66980368D01*
X91902620Y-66271847D01*
X92606897Y-66271847D01*
X93315418Y-66980368D01*
X94023940Y-66271847D01*
X94728217Y-66271847D01*
X95436739Y-66980368D01*
X96145260Y-66271847D01*
X96849538Y-66271847D01*
X97558059Y-66980368D01*
X98266581Y-66271847D01*
X98970858Y-66271847D01*
X99679379Y-66980368D01*
X100387901Y-66271847D01*
X101092178Y-66271847D01*
X101800700Y-66980368D01*
X102509221Y-66271847D01*
X103213499Y-66271847D01*
X103922020Y-66980368D01*
X104630542Y-66271847D01*
X105334819Y-66271847D01*
X106043340Y-66980368D01*
X106751862Y-66271847D01*
X107456139Y-66271847D01*
X108164661Y-66980368D01*
X108873182Y-66271847D01*
X109577460Y-66271847D01*
X110285981Y-66980368D01*
X110994503Y-66271847D01*
X111698780Y-66271847D01*
X112407302Y-66980368D01*
X113115823Y-66271847D01*
X113820100Y-66271847D01*
X114528622Y-66980368D01*
X115237143Y-66271847D01*
X115941421Y-66271847D01*
X116649942Y-66980368D01*
X117358464Y-66271847D01*
X118062741Y-66271847D01*
X118771263Y-66980368D01*
X119479784Y-66271847D01*
X120184061Y-66271847D01*
X120892582Y-66980368D01*
X121492198Y-66380752D01*
X121485451Y-66286421D01*
X121449246Y-66119988D01*
X120892583Y-65563325D01*
X120184061Y-66271847D01*
X119479784Y-66271847D01*
X118771263Y-65563325D01*
X118062741Y-66271847D01*
X117358464Y-66271847D01*
X116649942Y-65563325D01*
X115941421Y-66271847D01*
X115237143Y-66271847D01*
X114528622Y-65563325D01*
X113820100Y-66271847D01*
X113115823Y-66271847D01*
X112407302Y-65563325D01*
X111698780Y-66271847D01*
X110994503Y-66271847D01*
X110285981Y-65563325D01*
X109577460Y-66271847D01*
X108873182Y-66271847D01*
X108164661Y-65563325D01*
X107456139Y-66271847D01*
X106751862Y-66271847D01*
X106043340Y-65563325D01*
X105334819Y-66271847D01*
X104630542Y-66271847D01*
X103922020Y-65563325D01*
X103213499Y-66271847D01*
X102509221Y-66271847D01*
X101800700Y-65563325D01*
X101092178Y-66271847D01*
X100387901Y-66271847D01*
X99679379Y-65563325D01*
X98970858Y-66271847D01*
X98266581Y-66271847D01*
X97558059Y-65563325D01*
X96849538Y-66271847D01*
X96145260Y-66271847D01*
X95436739Y-65563325D01*
X94728217Y-66271847D01*
X94023940Y-66271847D01*
X93315418Y-65563325D01*
X92606897Y-66271847D01*
X91902620Y-66271847D01*
X91194098Y-65563325D01*
X90485577Y-66271847D01*
X89781299Y-66271847D01*
X89072778Y-65563325D01*
X88364256Y-66271847D01*
X87659979Y-66271847D01*
X86951457Y-65563325D01*
X86242936Y-66271847D01*
X85538659Y-66271847D01*
X84830137Y-65563325D01*
X84121616Y-66271847D01*
X83417338Y-66271847D01*
X82708817Y-65563325D01*
X82000295Y-66271847D01*
X81296018Y-66271847D01*
X80587496Y-65563325D01*
X79878975Y-66271847D01*
X79174698Y-66271847D01*
X78685936Y-65783085D01*
X78634893Y-65876565D01*
X78560058Y-66077202D01*
X78514546Y-66286421D01*
X78497999Y-66517781D01*
X78497999Y-66948546D01*
X78000000Y-66948546D01*
X78000000Y-66504427D01*
X78000316Y-66495581D01*
X78019724Y-66224214D01*
X78022242Y-66206702D01*
X78079127Y-65945205D01*
X78084111Y-65928229D01*
X78177638Y-65677475D01*
X78184988Y-65661382D01*
X78313243Y-65426500D01*
X78322808Y-65411617D01*
X78340515Y-65387963D01*
X78995091Y-65387963D01*
X79526836Y-65919708D01*
X80235357Y-65211187D01*
X80939636Y-65211187D01*
X81648157Y-65919707D01*
X82356678Y-65211187D01*
X83060956Y-65211187D01*
X83769477Y-65919708D01*
X84477998Y-65211186D01*
X85182276Y-65211186D01*
X85890797Y-65919708D01*
X86599319Y-65211187D01*
X87303597Y-65211187D01*
X88012118Y-65919708D01*
X88720638Y-65211187D01*
X89424917Y-65211187D01*
X90133438Y-65919708D01*
X90841959Y-65211186D01*
X91546237Y-65211186D01*
X92254758Y-65919708D01*
X92963280Y-65211187D01*
X93667558Y-65211187D01*
X94376079Y-65919708D01*
X95084599Y-65211187D01*
X95788878Y-65211187D01*
X96497399Y-65919708D01*
X97205920Y-65211186D01*
X97910198Y-65211186D01*
X98618719Y-65919708D01*
X99327241Y-65211187D01*
X100031519Y-65211187D01*
X100740040Y-65919708D01*
X101448560Y-65211187D01*
X102152839Y-65211187D01*
X102861360Y-65919708D01*
X103569881Y-65211186D01*
X104274159Y-65211186D01*
X104982680Y-65919708D01*
X105691202Y-65211187D01*
X106395480Y-65211187D01*
X107104001Y-65919708D01*
X107812521Y-65211187D01*
X108516800Y-65211187D01*
X109225321Y-65919708D01*
X109933842Y-65211186D01*
X110638120Y-65211186D01*
X111346641Y-65919708D01*
X112055163Y-65211187D01*
X112759440Y-65211187D01*
X113467962Y-65919708D01*
X114176483Y-65211186D01*
X114880761Y-65211186D01*
X115589282Y-65919708D01*
X116297804Y-65211187D01*
X116297803Y-65211186D01*
X117002081Y-65211186D01*
X117710602Y-65919708D01*
X118419124Y-65211187D01*
X119123402Y-65211187D01*
X119831923Y-65919708D01*
X120540444Y-65211186D01*
X120380008Y-65050750D01*
X120213576Y-65014546D01*
X119982217Y-64998000D01*
X119336589Y-64998000D01*
X119123402Y-65211187D01*
X118419124Y-65211187D01*
X118205937Y-64998000D01*
X117215268Y-64998000D01*
X117002081Y-65211186D01*
X116297803Y-65211186D01*
X116084617Y-64998000D01*
X115093948Y-64998000D01*
X114880761Y-65211186D01*
X114176483Y-65211186D01*
X113963297Y-64998000D01*
X112972628Y-64998000D01*
X112759440Y-65211187D01*
X112055163Y-65211187D01*
X111841976Y-64998000D01*
X110851307Y-64998000D01*
X110638120Y-65211186D01*
X109933842Y-65211186D01*
X109720656Y-64998000D01*
X108729987Y-64998000D01*
X108516800Y-65211187D01*
X107812521Y-65211187D01*
X107812522Y-65211186D01*
X107599336Y-64998000D01*
X106608667Y-64998000D01*
X106395480Y-65211187D01*
X105691202Y-65211187D01*
X105478015Y-64998000D01*
X104487346Y-64998000D01*
X104274159Y-65211186D01*
X103569881Y-65211186D01*
X103356695Y-64998000D01*
X102366026Y-64998000D01*
X102152839Y-65211187D01*
X101448560Y-65211187D01*
X101448561Y-65211186D01*
X101235375Y-64998000D01*
X100244706Y-64998000D01*
X100031519Y-65211187D01*
X99327241Y-65211187D01*
X99114054Y-64998000D01*
X98123385Y-64998000D01*
X97910198Y-65211186D01*
X97205920Y-65211186D01*
X96992734Y-64998000D01*
X96002065Y-64998000D01*
X95788878Y-65211187D01*
X95084599Y-65211187D01*
X95084600Y-65211186D01*
X94871414Y-64998000D01*
X93880745Y-64998000D01*
X93667558Y-65211187D01*
X92963280Y-65211187D01*
X92750093Y-64998000D01*
X91759424Y-64998000D01*
X91546237Y-65211186D01*
X90841959Y-65211186D01*
X90628773Y-64998000D01*
X89638104Y-64998000D01*
X89424917Y-65211187D01*
X88720638Y-65211187D01*
X88720639Y-65211186D01*
X88507453Y-64998000D01*
X87516784Y-64998000D01*
X87303597Y-65211187D01*
X86599319Y-65211187D01*
X86386132Y-64998000D01*
X85395463Y-64998000D01*
X85182276Y-65211186D01*
X84477998Y-65211186D01*
X84264812Y-64998000D01*
X83274143Y-64998000D01*
X83060956Y-65211187D01*
X82356678Y-65211187D01*
X82143491Y-64998000D01*
X81152823Y-64998000D01*
X80939636Y-65211187D01*
X80235357Y-65211187D01*
X80022171Y-64998000D01*
X80017783Y-64998000D01*
X79786421Y-65014546D01*
X79577202Y-65060058D01*
X79376565Y-65134893D01*
X79188643Y-65237505D01*
X79017235Y-65365820D01*
X78995091Y-65387963D01*
X78340515Y-65387963D01*
X78483186Y-65197377D01*
X78494772Y-65184006D01*
X78684006Y-64994772D01*
X78697377Y-64983186D01*
X78911617Y-64822808D01*
X78926500Y-64813243D01*
X79161382Y-64684988D01*
X79177475Y-64677638D01*
X79428229Y-64584111D01*
X79445205Y-64579127D01*
X79706702Y-64522242D01*
X79724214Y-64519724D01*
X79995582Y-64500316D01*
X80004428Y-64500000D01*
X119995572Y-64500000D01*
X120004418Y-64500316D01*
G37*
M02*
