G04 #@! TF.GenerationSoftware,KiCad,Pcbnew,7.0.2-6a45011f42~172~ubuntu22.04.1*
G04 #@! TF.CreationDate,2023-04-23T17:07:22-07:00*
G04 #@! TF.ProjectId,esp8266-plugpack,65737038-3236-4362-9d70-6c7567706163,rev?*
G04 #@! TF.SameCoordinates,Original*
G04 #@! TF.FileFunction,Paste,Top*
G04 #@! TF.FilePolarity,Positive*
%FSLAX46Y46*%
G04 Gerber Fmt 4.6, Leading zero omitted, Abs format (unit mm)*
G04 Created by KiCad (PCBNEW 7.0.2-6a45011f42~172~ubuntu22.04.1) date 2023-04-23 17:07:22*
%MOMM*%
%LPD*%
G01*
G04 APERTURE LIST*
G04 Aperture macros list*
%AMRoundRect*
0 Rectangle with rounded corners*
0 $1 Rounding radius*
0 $2 $3 $4 $5 $6 $7 $8 $9 X,Y pos of 4 corners*
0 Add a 4 corners polygon primitive as box body*
4,1,4,$2,$3,$4,$5,$6,$7,$8,$9,$2,$3,0*
0 Add four circle primitives for the rounded corners*
1,1,$1+$1,$2,$3*
1,1,$1+$1,$4,$5*
1,1,$1+$1,$6,$7*
1,1,$1+$1,$8,$9*
0 Add four rect primitives between the rounded corners*
20,1,$1+$1,$2,$3,$4,$5,0*
20,1,$1+$1,$4,$5,$6,$7,0*
20,1,$1+$1,$6,$7,$8,$9,0*
20,1,$1+$1,$8,$9,$2,$3,0*%
G04 Aperture macros list end*
%ADD10RoundRect,0.218750X-0.256250X0.218750X-0.256250X-0.218750X0.256250X-0.218750X0.256250X0.218750X0*%
%ADD11R,1.060000X0.650000*%
%ADD12RoundRect,0.218750X-0.218750X-0.256250X0.218750X-0.256250X0.218750X0.256250X-0.218750X0.256250X0*%
%ADD13RoundRect,0.218750X0.256250X-0.218750X0.256250X0.218750X-0.256250X0.218750X-0.256250X-0.218750X0*%
%ADD14R,3.100000X1.600000*%
%ADD15R,1.100000X2.500000*%
%ADD16R,2.500000X1.100000*%
%ADD17R,1.200000X1.840000*%
%ADD18RoundRect,0.218750X0.218750X0.256250X-0.218750X0.256250X-0.218750X-0.256250X0.218750X-0.256250X0*%
%ADD19RoundRect,0.392000X-1.183000X0.588000X-1.183000X-0.588000X1.183000X-0.588000X1.183000X0.588000X0*%
%ADD20RoundRect,0.250000X-2.500000X0.250000X-2.500000X-0.250000X2.500000X-0.250000X2.500000X0.250000X0*%
%ADD21RoundRect,0.250000X-1.250000X0.550000X-1.250000X-0.550000X1.250000X-0.550000X1.250000X0.550000X0*%
%ADD22RoundRect,0.243750X0.456250X-0.243750X0.456250X0.243750X-0.456250X0.243750X-0.456250X-0.243750X0*%
G04 APERTURE END LIST*
D10*
G04 #@! TO.C,R20*
X120600000Y-99712500D03*
X120600000Y-101287500D03*
G04 #@! TD*
G04 #@! TO.C,R2*
X113990000Y-128212500D03*
X113990000Y-129787500D03*
G04 #@! TD*
G04 #@! TO.C,R22*
X116400000Y-99712500D03*
X116400000Y-101287500D03*
G04 #@! TD*
D11*
G04 #@! TO.C,U3*
X116400000Y-122800000D03*
X116400000Y-123750000D03*
X116400000Y-124700000D03*
X118600000Y-124700000D03*
X118600000Y-122800000D03*
G04 #@! TD*
D10*
G04 #@! TO.C,R13*
X120500000Y-122962500D03*
X120500000Y-124537500D03*
G04 #@! TD*
D12*
G04 #@! TO.C,R16*
X109612500Y-110000000D03*
X111187500Y-110000000D03*
G04 #@! TD*
D13*
G04 #@! TO.C,C4*
X105400000Y-133775000D03*
X105400000Y-132200000D03*
G04 #@! TD*
D10*
G04 #@! TO.C,R7*
X112000000Y-128212500D03*
X112000000Y-129787500D03*
G04 #@! TD*
G04 #@! TO.C,C2*
X111400000Y-117012500D03*
X111400000Y-118587500D03*
G04 #@! TD*
D14*
G04 #@! TO.C,U4*
X88945000Y-115310000D03*
X88945000Y-112770000D03*
X88945000Y-110230000D03*
X88945000Y-107690000D03*
X80055000Y-107690000D03*
X80055000Y-110230000D03*
X80055000Y-112770000D03*
X80055000Y-115310000D03*
G04 #@! TD*
D10*
G04 #@! TO.C,R11*
X110000000Y-128212500D03*
X110000000Y-129787500D03*
G04 #@! TD*
D15*
G04 #@! TO.C,U2*
X87412500Y-133950000D03*
X89412500Y-133950000D03*
X91412500Y-133950000D03*
X93412500Y-133950000D03*
X95412500Y-133950000D03*
X97412500Y-133950000D03*
X99412500Y-133950000D03*
X101412500Y-133950000D03*
X101412500Y-118550000D03*
X99412500Y-118550000D03*
X97412500Y-118550000D03*
X95412500Y-118550000D03*
X93412500Y-118550000D03*
X91412500Y-118550000D03*
X89412500Y-118550000D03*
X87412500Y-118550000D03*
D16*
X103112500Y-131260000D03*
X103112500Y-129260000D03*
X103112500Y-127260000D03*
X103112500Y-125260000D03*
X103112500Y-123260000D03*
X103112500Y-121260000D03*
G04 #@! TD*
D10*
G04 #@! TO.C,R18*
X118510000Y-103212500D03*
X118510000Y-104787500D03*
G04 #@! TD*
D12*
G04 #@! TO.C,C1*
X106212500Y-128266665D03*
X107787500Y-128266665D03*
G04 #@! TD*
G04 #@! TO.C,R10*
X106212500Y-120600000D03*
X107787500Y-120600000D03*
G04 #@! TD*
D17*
G04 #@! TO.C,D1*
X119200000Y-90000000D03*
X116800000Y-90000000D03*
X116800000Y-96000000D03*
X119200000Y-96000000D03*
G04 #@! TD*
D18*
G04 #@! TO.C,R3*
X107787500Y-125199999D03*
X106212500Y-125199999D03*
G04 #@! TD*
D12*
G04 #@! TO.C,C3*
X116462500Y-121000000D03*
X118037500Y-121000000D03*
G04 #@! TD*
D11*
G04 #@! TO.C,U5*
X107400000Y-116800000D03*
X107400000Y-117750000D03*
X107400000Y-118700000D03*
X109600000Y-118700000D03*
X109600000Y-116800000D03*
G04 #@! TD*
D19*
G04 #@! TO.C,F1*
X117000000Y-68000000D03*
X117000000Y-73000000D03*
G04 #@! TD*
D18*
G04 #@! TO.C,R4*
X107787500Y-123666666D03*
X106212500Y-123666666D03*
G04 #@! TD*
G04 #@! TO.C,C5*
X120287500Y-127000000D03*
X118712500Y-127000000D03*
G04 #@! TD*
D20*
G04 #@! TO.C,J2*
X116750000Y-110000000D03*
X116750000Y-112000000D03*
X116750000Y-114000000D03*
X116750000Y-116000000D03*
D21*
X119000000Y-107600000D03*
X119000000Y-118400000D03*
G04 #@! TD*
D10*
G04 #@! TO.C,R21*
X118490000Y-99712500D03*
X118490000Y-101287500D03*
G04 #@! TD*
D12*
G04 #@! TO.C,R17*
X109612500Y-111600000D03*
X111187500Y-111600000D03*
G04 #@! TD*
D18*
G04 #@! TO.C,R14*
X109387500Y-107600000D03*
X107812500Y-107600000D03*
G04 #@! TD*
D12*
G04 #@! TO.C,R6*
X115712500Y-130250000D03*
X117287500Y-130250000D03*
G04 #@! TD*
D13*
G04 #@! TO.C,R5*
X119500000Y-87287500D03*
X119500000Y-85712500D03*
G04 #@! TD*
D14*
G04 #@! TO.C,U1*
X104445000Y-115310000D03*
X104445000Y-112770000D03*
X104445000Y-110230000D03*
X104445000Y-107690000D03*
X95555000Y-107690000D03*
X95555000Y-110230000D03*
X95555000Y-112770000D03*
X95555000Y-115310000D03*
G04 #@! TD*
D10*
G04 #@! TO.C,R8*
X116500000Y-85712500D03*
X116500000Y-87287500D03*
G04 #@! TD*
D18*
G04 #@! TO.C,R12*
X107787500Y-126733332D03*
X106212500Y-126733332D03*
G04 #@! TD*
G04 #@! TO.C,R9*
X107787500Y-122133333D03*
X106212500Y-122133333D03*
G04 #@! TD*
G04 #@! TO.C,R1*
X107787500Y-129800000D03*
X106212500Y-129800000D03*
G04 #@! TD*
D13*
G04 #@! TO.C,R15*
X92200000Y-114987500D03*
X92200000Y-113412500D03*
G04 #@! TD*
D22*
G04 #@! TO.C,D2*
X116500000Y-128437500D03*
X116500000Y-126562500D03*
G04 #@! TD*
D10*
G04 #@! TO.C,R19*
X116000000Y-103212500D03*
X116000000Y-104787500D03*
G04 #@! TD*
M02*
