G04 #@! TF.GenerationSoftware,KiCad,Pcbnew,8.0.7-unknown-1000.20241230gita20d76c.fc41*
G04 #@! TF.CreationDate,2025-01-11T13:27:58-08:00*
G04 #@! TF.ProjectId,led-ctrl-24v,6c65642d-6374-4726-9c2d-3234762e6b69,rev?*
G04 #@! TF.SameCoordinates,Original*
G04 #@! TF.FileFunction,Legend,Bot*
G04 #@! TF.FilePolarity,Positive*
%FSLAX46Y46*%
G04 Gerber Fmt 4.6, Leading zero omitted, Abs format (unit mm)*
G04 Created by KiCad (PCBNEW 8.0.7-unknown-1000.20241230gita20d76c.fc41) date 2025-01-11 13:27:58*
%MOMM*%
%LPD*%
G01*
G04 APERTURE LIST*
%ADD10C,0.300000*%
%ADD11C,0.150000*%
%ADD12C,0.120000*%
G04 APERTURE END LIST*
D10*
X109410837Y-115046780D02*
X109545524Y-115046780D01*
X109545524Y-115046780D02*
X109747555Y-115114123D01*
X109747555Y-115114123D02*
X109882242Y-115248810D01*
X109882242Y-115248810D02*
X109949585Y-115450841D01*
X109949585Y-115450841D02*
X109949585Y-115585528D01*
X109949585Y-115585528D02*
X109882242Y-115787558D01*
X109882242Y-115787558D02*
X109747555Y-115922245D01*
X109747555Y-115922245D02*
X109545524Y-115989589D01*
X109545524Y-115989589D02*
X109410837Y-115989589D01*
X109410837Y-115989589D02*
X109208807Y-115922245D01*
X109208807Y-115922245D02*
X109074120Y-115787558D01*
X109074120Y-115787558D02*
X109006776Y-115585528D01*
X109006776Y-115585528D02*
X109006776Y-115450841D01*
X109545524Y-114912093D02*
X109006776Y-115450841D01*
X109006776Y-115450841D02*
X108872089Y-115450841D01*
X108872089Y-115450841D02*
X108804746Y-115383497D01*
X108804746Y-115383497D02*
X108737402Y-115181467D01*
X108737402Y-115181467D02*
X108804746Y-114979436D01*
X108804746Y-114979436D02*
X109141463Y-114642719D01*
X109141463Y-114642719D02*
X109478181Y-114575375D01*
X109478181Y-114575375D02*
X109814898Y-114642719D01*
X109814898Y-114642719D02*
X110151616Y-114844749D01*
X110151616Y-114844749D02*
X110353646Y-115181467D01*
X110353646Y-115181467D02*
X110420990Y-115518184D01*
X110420990Y-115518184D02*
X110353646Y-115854902D01*
X110353646Y-115854902D02*
X110151616Y-116191619D01*
X110151616Y-116191619D02*
X109814898Y-116393650D01*
X109814898Y-116393650D02*
X109478181Y-116460993D01*
X109478181Y-116460993D02*
X109141463Y-116393650D01*
X109141463Y-116393650D02*
X108804746Y-116191619D01*
X108804746Y-116191619D02*
X108602715Y-115854902D01*
X108602715Y-115854902D02*
X108535372Y-115518184D01*
X109410837Y-113565222D02*
X108602715Y-112757100D01*
X107592562Y-114575375D02*
X109006776Y-113161161D01*
X106515066Y-113497879D02*
X106717096Y-113565222D01*
X106717096Y-113565222D02*
X106851784Y-113565222D01*
X106851784Y-113565222D02*
X107053814Y-113497879D01*
X107053814Y-113497879D02*
X107457875Y-113093818D01*
X107457875Y-113093818D02*
X107525219Y-112891787D01*
X107525219Y-112891787D02*
X107525219Y-112757100D01*
X107525219Y-112757100D02*
X107457875Y-112555069D01*
X107457875Y-112555069D02*
X107255845Y-112353039D01*
X107255845Y-112353039D02*
X107053814Y-112285695D01*
X107053814Y-112285695D02*
X106919127Y-112285695D01*
X106919127Y-112285695D02*
X106717096Y-112353039D01*
X106717096Y-112353039D02*
X106313035Y-112757100D01*
X106313035Y-112757100D02*
X106245692Y-112959130D01*
X106245692Y-112959130D02*
X106245692Y-113093818D01*
X106245692Y-113093818D02*
X106313035Y-113295848D01*
X106313035Y-113295848D02*
X106515066Y-113497879D01*
X105437570Y-112420382D02*
X106380379Y-111477573D01*
X106245692Y-111612260D02*
X106245692Y-111477573D01*
X106245692Y-111477573D02*
X106178348Y-111275543D01*
X106178348Y-111275543D02*
X105976318Y-111073512D01*
X105976318Y-111073512D02*
X105774287Y-111006169D01*
X105774287Y-111006169D02*
X105572257Y-111073512D01*
X105572257Y-111073512D02*
X104831478Y-111814291D01*
X105572257Y-111073512D02*
X105639600Y-110871482D01*
X105639600Y-110871482D02*
X105572257Y-110669451D01*
X105572257Y-110669451D02*
X105370226Y-110467421D01*
X105370226Y-110467421D02*
X105168196Y-110400077D01*
X105168196Y-110400077D02*
X104966165Y-110467421D01*
X104966165Y-110467421D02*
X104225387Y-111208199D01*
X103551951Y-110534764D02*
X104966165Y-109120550D01*
X102743829Y-109726642D02*
X104158043Y-109524611D01*
X104158043Y-108312428D02*
X104158043Y-109928672D01*
X101666333Y-108514459D02*
X101733677Y-108716489D01*
X101733677Y-108716489D02*
X102003051Y-108985863D01*
X102003051Y-108985863D02*
X102205081Y-109053207D01*
X102205081Y-109053207D02*
X102407112Y-108985863D01*
X102407112Y-108985863D02*
X102945860Y-108447115D01*
X102945860Y-108447115D02*
X103013203Y-108245085D01*
X103013203Y-108245085D02*
X102945860Y-108043054D01*
X102945860Y-108043054D02*
X102676486Y-107773680D01*
X102676486Y-107773680D02*
X102474455Y-107706337D01*
X102474455Y-107706337D02*
X102272425Y-107773680D01*
X102272425Y-107773680D02*
X102137738Y-107908367D01*
X102137738Y-107908367D02*
X102676486Y-108716489D01*
X100319463Y-107302276D02*
X101733677Y-105888062D01*
X100386807Y-107234932D02*
X100454150Y-107436963D01*
X100454150Y-107436963D02*
X100723524Y-107706337D01*
X100723524Y-107706337D02*
X100925555Y-107773680D01*
X100925555Y-107773680D02*
X101060242Y-107773680D01*
X101060242Y-107773680D02*
X101262272Y-107706337D01*
X101262272Y-107706337D02*
X101666333Y-107302276D01*
X101666333Y-107302276D02*
X101733677Y-107100245D01*
X101733677Y-107100245D02*
X101733677Y-106965558D01*
X101733677Y-106965558D02*
X101666333Y-106763528D01*
X101666333Y-106763528D02*
X101396959Y-106494154D01*
X101396959Y-106494154D02*
X101194929Y-106426810D01*
X99039936Y-106022749D02*
X100454150Y-104608535D01*
X99107280Y-105955405D02*
X99174623Y-106157436D01*
X99174623Y-106157436D02*
X99443997Y-106426810D01*
X99443997Y-106426810D02*
X99646028Y-106494154D01*
X99646028Y-106494154D02*
X99780715Y-106494154D01*
X99780715Y-106494154D02*
X99982745Y-106426810D01*
X99982745Y-106426810D02*
X100386807Y-106022749D01*
X100386807Y-106022749D02*
X100454150Y-105820718D01*
X100454150Y-105820718D02*
X100454150Y-105686031D01*
X100454150Y-105686031D02*
X100386807Y-105484001D01*
X100386807Y-105484001D02*
X100117432Y-105214627D01*
X100117432Y-105214627D02*
X99915402Y-105147283D01*
X98366501Y-105349314D02*
X99309310Y-104406505D01*
X99780715Y-103935100D02*
X99780715Y-104069787D01*
X99780715Y-104069787D02*
X99646028Y-104069787D01*
X99646028Y-104069787D02*
X99646028Y-103935100D01*
X99646028Y-103935100D02*
X99780715Y-103935100D01*
X99780715Y-103935100D02*
X99646028Y-104069787D01*
X97221662Y-104069787D02*
X97289005Y-104271818D01*
X97289005Y-104271818D02*
X97558379Y-104541192D01*
X97558379Y-104541192D02*
X97760410Y-104608535D01*
X97760410Y-104608535D02*
X97962440Y-104541192D01*
X97962440Y-104541192D02*
X98501188Y-104002444D01*
X98501188Y-104002444D02*
X98568532Y-103800413D01*
X98568532Y-103800413D02*
X98501188Y-103598383D01*
X98501188Y-103598383D02*
X98231814Y-103329009D01*
X98231814Y-103329009D02*
X98029784Y-103261665D01*
X98029784Y-103261665D02*
X97827753Y-103329009D01*
X97827753Y-103329009D02*
X97693066Y-103463696D01*
X97693066Y-103463696D02*
X98231814Y-104271818D01*
X107639108Y-119175531D02*
X107841139Y-119242874D01*
X107841139Y-119242874D02*
X108043169Y-119175531D01*
X108043169Y-119175531D02*
X109255352Y-117963348D01*
X106628956Y-118030691D02*
X106696299Y-118232722D01*
X106696299Y-118232722D02*
X106965673Y-118502096D01*
X106965673Y-118502096D02*
X107167704Y-118569439D01*
X107167704Y-118569439D02*
X107369734Y-118502096D01*
X107369734Y-118502096D02*
X107908482Y-117963348D01*
X107908482Y-117963348D02*
X107975826Y-117761317D01*
X107975826Y-117761317D02*
X107908482Y-117559287D01*
X107908482Y-117559287D02*
X107639108Y-117289913D01*
X107639108Y-117289913D02*
X107437078Y-117222569D01*
X107437078Y-117222569D02*
X107235047Y-117289913D01*
X107235047Y-117289913D02*
X107100360Y-117424600D01*
X107100360Y-117424600D02*
X107639108Y-118232722D01*
X105282085Y-116818508D02*
X106696299Y-115404294D01*
X105349429Y-116751164D02*
X105416772Y-116953195D01*
X105416772Y-116953195D02*
X105686146Y-117222569D01*
X105686146Y-117222569D02*
X105888177Y-117289912D01*
X105888177Y-117289912D02*
X106022864Y-117289912D01*
X106022864Y-117289912D02*
X106224894Y-117222569D01*
X106224894Y-117222569D02*
X106628955Y-116818508D01*
X106628955Y-116818508D02*
X106696299Y-116616477D01*
X106696299Y-116616477D02*
X106696299Y-116481790D01*
X106696299Y-116481790D02*
X106628955Y-116279760D01*
X106628955Y-116279760D02*
X106359581Y-116010386D01*
X106359581Y-116010386D02*
X106157551Y-115943042D01*
X105147398Y-115606325D02*
X104069902Y-114528829D01*
X102318971Y-113720707D02*
X102386315Y-113922737D01*
X102386315Y-113922737D02*
X102655689Y-114192111D01*
X102655689Y-114192111D02*
X102857719Y-114259455D01*
X102857719Y-114259455D02*
X102992406Y-114259455D01*
X102992406Y-114259455D02*
X103194437Y-114192111D01*
X103194437Y-114192111D02*
X103598498Y-113788050D01*
X103598498Y-113788050D02*
X103665841Y-113586020D01*
X103665841Y-113586020D02*
X103665841Y-113451333D01*
X103665841Y-113451333D02*
X103598498Y-113249302D01*
X103598498Y-113249302D02*
X103329124Y-112979928D01*
X103329124Y-112979928D02*
X103127093Y-112912585D01*
X102790376Y-112441180D02*
X102251628Y-111902432D01*
X103059750Y-111767745D02*
X101847567Y-112979928D01*
X101847567Y-112979928D02*
X101645536Y-113047272D01*
X101645536Y-113047272D02*
X101443506Y-112979928D01*
X101443506Y-112979928D02*
X101308819Y-112845241D01*
X100837414Y-112373837D02*
X101780223Y-111431028D01*
X101510849Y-111700402D02*
X101578193Y-111498371D01*
X101578193Y-111498371D02*
X101578193Y-111363684D01*
X101578193Y-111363684D02*
X101510849Y-111161654D01*
X101510849Y-111161654D02*
X101376162Y-111026967D01*
X99759918Y-111296341D02*
X99961949Y-111363684D01*
X99961949Y-111363684D02*
X100163979Y-111296341D01*
X100163979Y-111296341D02*
X101376162Y-110084158D01*
X99759918Y-110218845D02*
X98682422Y-109141349D01*
X98817110Y-107794479D02*
X98817110Y-107659792D01*
X98817110Y-107659792D02*
X98749766Y-107457762D01*
X98749766Y-107457762D02*
X98413049Y-107121044D01*
X98413049Y-107121044D02*
X98211018Y-107053700D01*
X98211018Y-107053700D02*
X98076331Y-107053700D01*
X98076331Y-107053700D02*
X97874301Y-107121044D01*
X97874301Y-107121044D02*
X97739614Y-107255731D01*
X97739614Y-107255731D02*
X97604927Y-107525105D01*
X97604927Y-107525105D02*
X97604927Y-109141349D01*
X97604927Y-109141349D02*
X96729461Y-108265884D01*
X96460087Y-106110891D02*
X95517278Y-107053700D01*
X97335552Y-105908861D02*
X96662117Y-107255731D01*
X96662117Y-107255731D02*
X95786652Y-106380265D01*
X95853995Y-105504800D02*
X94574469Y-106110891D01*
X94574469Y-106110891D02*
X95180560Y-104831365D01*
X103106296Y-119196329D02*
X104520510Y-117782115D01*
X104520510Y-117782115D02*
X104183792Y-117445397D01*
X104183792Y-117445397D02*
X103914418Y-117310710D01*
X103914418Y-117310710D02*
X103645044Y-117310710D01*
X103645044Y-117310710D02*
X103443014Y-117378054D01*
X103443014Y-117378054D02*
X103106296Y-117580084D01*
X103106296Y-117580084D02*
X102904266Y-117782115D01*
X102904266Y-117782115D02*
X102702235Y-118118832D01*
X102702235Y-118118832D02*
X102634891Y-118320863D01*
X102634891Y-118320863D02*
X102634891Y-118590237D01*
X102634891Y-118590237D02*
X102769578Y-118859611D01*
X102769578Y-118859611D02*
X103106296Y-119196329D01*
X101220678Y-117176023D02*
X101288021Y-117378054D01*
X101288021Y-117378054D02*
X101557395Y-117647428D01*
X101557395Y-117647428D02*
X101759426Y-117714771D01*
X101759426Y-117714771D02*
X101961456Y-117647428D01*
X101961456Y-117647428D02*
X102500204Y-117108680D01*
X102500204Y-117108680D02*
X102567548Y-116906649D01*
X102567548Y-116906649D02*
X102500204Y-116704619D01*
X102500204Y-116704619D02*
X102230830Y-116435245D01*
X102230830Y-116435245D02*
X102028800Y-116367901D01*
X102028800Y-116367901D02*
X101826769Y-116435245D01*
X101826769Y-116435245D02*
X101692082Y-116569932D01*
X101692082Y-116569932D02*
X102230830Y-117378054D01*
X99941151Y-115896497D02*
X100008495Y-116098527D01*
X100008495Y-116098527D02*
X100277869Y-116367901D01*
X100277869Y-116367901D02*
X100479899Y-116435245D01*
X100479899Y-116435245D02*
X100614586Y-116435245D01*
X100614586Y-116435245D02*
X100816617Y-116367901D01*
X100816617Y-116367901D02*
X101220678Y-115963840D01*
X101220678Y-115963840D02*
X101288021Y-115761810D01*
X101288021Y-115761810D02*
X101288021Y-115627123D01*
X101288021Y-115627123D02*
X101220678Y-115425092D01*
X101220678Y-115425092D02*
X100951304Y-115155718D01*
X100951304Y-115155718D02*
X100749273Y-115088375D01*
X100614586Y-114145565D02*
X100614586Y-114010878D01*
X100614586Y-114010878D02*
X100547242Y-113808848D01*
X100547242Y-113808848D02*
X100210525Y-113472130D01*
X100210525Y-113472130D02*
X100008494Y-113404787D01*
X100008494Y-113404787D02*
X99873807Y-113404787D01*
X99873807Y-113404787D02*
X99671777Y-113472130D01*
X99671777Y-113472130D02*
X99537090Y-113606817D01*
X99537090Y-113606817D02*
X99402403Y-113876191D01*
X99402403Y-113876191D02*
X99402403Y-115492435D01*
X99402403Y-115492435D02*
X98526937Y-114616970D01*
X99065685Y-112327291D02*
X98930998Y-112192604D01*
X98930998Y-112192604D02*
X98728968Y-112125260D01*
X98728968Y-112125260D02*
X98594281Y-112125260D01*
X98594281Y-112125260D02*
X98392250Y-112192604D01*
X98392250Y-112192604D02*
X98055533Y-112394634D01*
X98055533Y-112394634D02*
X97718815Y-112731352D01*
X97718815Y-112731352D02*
X97516785Y-113068069D01*
X97516785Y-113068069D02*
X97449441Y-113270100D01*
X97449441Y-113270100D02*
X97449441Y-113404787D01*
X97449441Y-113404787D02*
X97516785Y-113606817D01*
X97516785Y-113606817D02*
X97651472Y-113741504D01*
X97651472Y-113741504D02*
X97853502Y-113808848D01*
X97853502Y-113808848D02*
X97988189Y-113808848D01*
X97988189Y-113808848D02*
X98190220Y-113741504D01*
X98190220Y-113741504D02*
X98526937Y-113539474D01*
X98526937Y-113539474D02*
X98863655Y-113202756D01*
X98863655Y-113202756D02*
X99065685Y-112866039D01*
X99065685Y-112866039D02*
X99133029Y-112664008D01*
X99133029Y-112664008D02*
X99133029Y-112529321D01*
X99133029Y-112529321D02*
X99065685Y-112327291D01*
X97920846Y-111451825D02*
X97920846Y-111317138D01*
X97920846Y-111317138D02*
X97853502Y-111115108D01*
X97853502Y-111115108D02*
X97516785Y-110778390D01*
X97516785Y-110778390D02*
X97314754Y-110711047D01*
X97314754Y-110711047D02*
X97180067Y-110711047D01*
X97180067Y-110711047D02*
X96978037Y-110778390D01*
X96978037Y-110778390D02*
X96843350Y-110913077D01*
X96843350Y-110913077D02*
X96708663Y-111182451D01*
X96708663Y-111182451D02*
X96708663Y-112798695D01*
X96708663Y-112798695D02*
X95833197Y-111923230D01*
X95563823Y-109768238D02*
X94621014Y-110711047D01*
X96439289Y-109566207D02*
X95765854Y-110913077D01*
X95765854Y-110913077D02*
X94890388Y-110037612D01*
D11*
X103093332Y-127005200D02*
X102950475Y-127052819D01*
X102950475Y-127052819D02*
X102712380Y-127052819D01*
X102712380Y-127052819D02*
X102617142Y-127005200D01*
X102617142Y-127005200D02*
X102569523Y-126957580D01*
X102569523Y-126957580D02*
X102521904Y-126862342D01*
X102521904Y-126862342D02*
X102521904Y-126767104D01*
X102521904Y-126767104D02*
X102569523Y-126671866D01*
X102569523Y-126671866D02*
X102617142Y-126624247D01*
X102617142Y-126624247D02*
X102712380Y-126576628D01*
X102712380Y-126576628D02*
X102902856Y-126529009D01*
X102902856Y-126529009D02*
X102998094Y-126481390D01*
X102998094Y-126481390D02*
X103045713Y-126433771D01*
X103045713Y-126433771D02*
X103093332Y-126338533D01*
X103093332Y-126338533D02*
X103093332Y-126243295D01*
X103093332Y-126243295D02*
X103045713Y-126148057D01*
X103045713Y-126148057D02*
X102998094Y-126100438D01*
X102998094Y-126100438D02*
X102902856Y-126052819D01*
X102902856Y-126052819D02*
X102664761Y-126052819D01*
X102664761Y-126052819D02*
X102521904Y-126100438D01*
X102188570Y-126052819D02*
X101950475Y-127052819D01*
X101950475Y-127052819D02*
X101759999Y-126338533D01*
X101759999Y-126338533D02*
X101569523Y-127052819D01*
X101569523Y-127052819D02*
X101331428Y-126052819D01*
X100474285Y-126052819D02*
X100950475Y-126052819D01*
X100950475Y-126052819D02*
X100998094Y-126529009D01*
X100998094Y-126529009D02*
X100950475Y-126481390D01*
X100950475Y-126481390D02*
X100855237Y-126433771D01*
X100855237Y-126433771D02*
X100617142Y-126433771D01*
X100617142Y-126433771D02*
X100521904Y-126481390D01*
X100521904Y-126481390D02*
X100474285Y-126529009D01*
X100474285Y-126529009D02*
X100426666Y-126624247D01*
X100426666Y-126624247D02*
X100426666Y-126862342D01*
X100426666Y-126862342D02*
X100474285Y-126957580D01*
X100474285Y-126957580D02*
X100521904Y-127005200D01*
X100521904Y-127005200D02*
X100617142Y-127052819D01*
X100617142Y-127052819D02*
X100855237Y-127052819D01*
X100855237Y-127052819D02*
X100950475Y-127005200D01*
X100950475Y-127005200D02*
X100998094Y-126957580D01*
X80093332Y-127005200D02*
X79950475Y-127052819D01*
X79950475Y-127052819D02*
X79712380Y-127052819D01*
X79712380Y-127052819D02*
X79617142Y-127005200D01*
X79617142Y-127005200D02*
X79569523Y-126957580D01*
X79569523Y-126957580D02*
X79521904Y-126862342D01*
X79521904Y-126862342D02*
X79521904Y-126767104D01*
X79521904Y-126767104D02*
X79569523Y-126671866D01*
X79569523Y-126671866D02*
X79617142Y-126624247D01*
X79617142Y-126624247D02*
X79712380Y-126576628D01*
X79712380Y-126576628D02*
X79902856Y-126529009D01*
X79902856Y-126529009D02*
X79998094Y-126481390D01*
X79998094Y-126481390D02*
X80045713Y-126433771D01*
X80045713Y-126433771D02*
X80093332Y-126338533D01*
X80093332Y-126338533D02*
X80093332Y-126243295D01*
X80093332Y-126243295D02*
X80045713Y-126148057D01*
X80045713Y-126148057D02*
X79998094Y-126100438D01*
X79998094Y-126100438D02*
X79902856Y-126052819D01*
X79902856Y-126052819D02*
X79664761Y-126052819D01*
X79664761Y-126052819D02*
X79521904Y-126100438D01*
X79188570Y-126052819D02*
X78950475Y-127052819D01*
X78950475Y-127052819D02*
X78759999Y-126338533D01*
X78759999Y-126338533D02*
X78569523Y-127052819D01*
X78569523Y-127052819D02*
X78331428Y-126052819D01*
X77521904Y-126386152D02*
X77521904Y-127052819D01*
X77759999Y-126005200D02*
X77998094Y-126719485D01*
X77998094Y-126719485D02*
X77379047Y-126719485D01*
X91593332Y-138505200D02*
X91450475Y-138552819D01*
X91450475Y-138552819D02*
X91212380Y-138552819D01*
X91212380Y-138552819D02*
X91117142Y-138505200D01*
X91117142Y-138505200D02*
X91069523Y-138457580D01*
X91069523Y-138457580D02*
X91021904Y-138362342D01*
X91021904Y-138362342D02*
X91021904Y-138267104D01*
X91021904Y-138267104D02*
X91069523Y-138171866D01*
X91069523Y-138171866D02*
X91117142Y-138124247D01*
X91117142Y-138124247D02*
X91212380Y-138076628D01*
X91212380Y-138076628D02*
X91402856Y-138029009D01*
X91402856Y-138029009D02*
X91498094Y-137981390D01*
X91498094Y-137981390D02*
X91545713Y-137933771D01*
X91545713Y-137933771D02*
X91593332Y-137838533D01*
X91593332Y-137838533D02*
X91593332Y-137743295D01*
X91593332Y-137743295D02*
X91545713Y-137648057D01*
X91545713Y-137648057D02*
X91498094Y-137600438D01*
X91498094Y-137600438D02*
X91402856Y-137552819D01*
X91402856Y-137552819D02*
X91164761Y-137552819D01*
X91164761Y-137552819D02*
X91021904Y-137600438D01*
X90688570Y-137552819D02*
X90450475Y-138552819D01*
X90450475Y-138552819D02*
X90259999Y-137838533D01*
X90259999Y-137838533D02*
X90069523Y-138552819D01*
X90069523Y-138552819D02*
X89831428Y-137552819D01*
X89545713Y-137552819D02*
X88926666Y-137552819D01*
X88926666Y-137552819D02*
X89259999Y-137933771D01*
X89259999Y-137933771D02*
X89117142Y-137933771D01*
X89117142Y-137933771D02*
X89021904Y-137981390D01*
X89021904Y-137981390D02*
X88974285Y-138029009D01*
X88974285Y-138029009D02*
X88926666Y-138124247D01*
X88926666Y-138124247D02*
X88926666Y-138362342D01*
X88926666Y-138362342D02*
X88974285Y-138457580D01*
X88974285Y-138457580D02*
X89021904Y-138505200D01*
X89021904Y-138505200D02*
X89117142Y-138552819D01*
X89117142Y-138552819D02*
X89402856Y-138552819D01*
X89402856Y-138552819D02*
X89498094Y-138505200D01*
X89498094Y-138505200D02*
X89545713Y-138457580D01*
X91593332Y-127005200D02*
X91450475Y-127052819D01*
X91450475Y-127052819D02*
X91212380Y-127052819D01*
X91212380Y-127052819D02*
X91117142Y-127005200D01*
X91117142Y-127005200D02*
X91069523Y-126957580D01*
X91069523Y-126957580D02*
X91021904Y-126862342D01*
X91021904Y-126862342D02*
X91021904Y-126767104D01*
X91021904Y-126767104D02*
X91069523Y-126671866D01*
X91069523Y-126671866D02*
X91117142Y-126624247D01*
X91117142Y-126624247D02*
X91212380Y-126576628D01*
X91212380Y-126576628D02*
X91402856Y-126529009D01*
X91402856Y-126529009D02*
X91498094Y-126481390D01*
X91498094Y-126481390D02*
X91545713Y-126433771D01*
X91545713Y-126433771D02*
X91593332Y-126338533D01*
X91593332Y-126338533D02*
X91593332Y-126243295D01*
X91593332Y-126243295D02*
X91545713Y-126148057D01*
X91545713Y-126148057D02*
X91498094Y-126100438D01*
X91498094Y-126100438D02*
X91402856Y-126052819D01*
X91402856Y-126052819D02*
X91164761Y-126052819D01*
X91164761Y-126052819D02*
X91021904Y-126100438D01*
X90688570Y-126052819D02*
X90450475Y-127052819D01*
X90450475Y-127052819D02*
X90259999Y-126338533D01*
X90259999Y-126338533D02*
X90069523Y-127052819D01*
X90069523Y-127052819D02*
X89831428Y-126052819D01*
X88926666Y-127052819D02*
X89498094Y-127052819D01*
X89212380Y-127052819D02*
X89212380Y-126052819D01*
X89212380Y-126052819D02*
X89307618Y-126195676D01*
X89307618Y-126195676D02*
X89402856Y-126290914D01*
X89402856Y-126290914D02*
X89498094Y-126338533D01*
X91593332Y-115505200D02*
X91450475Y-115552819D01*
X91450475Y-115552819D02*
X91212380Y-115552819D01*
X91212380Y-115552819D02*
X91117142Y-115505200D01*
X91117142Y-115505200D02*
X91069523Y-115457580D01*
X91069523Y-115457580D02*
X91021904Y-115362342D01*
X91021904Y-115362342D02*
X91021904Y-115267104D01*
X91021904Y-115267104D02*
X91069523Y-115171866D01*
X91069523Y-115171866D02*
X91117142Y-115124247D01*
X91117142Y-115124247D02*
X91212380Y-115076628D01*
X91212380Y-115076628D02*
X91402856Y-115029009D01*
X91402856Y-115029009D02*
X91498094Y-114981390D01*
X91498094Y-114981390D02*
X91545713Y-114933771D01*
X91545713Y-114933771D02*
X91593332Y-114838533D01*
X91593332Y-114838533D02*
X91593332Y-114743295D01*
X91593332Y-114743295D02*
X91545713Y-114648057D01*
X91545713Y-114648057D02*
X91498094Y-114600438D01*
X91498094Y-114600438D02*
X91402856Y-114552819D01*
X91402856Y-114552819D02*
X91164761Y-114552819D01*
X91164761Y-114552819D02*
X91021904Y-114600438D01*
X90688570Y-114552819D02*
X90450475Y-115552819D01*
X90450475Y-115552819D02*
X90259999Y-114838533D01*
X90259999Y-114838533D02*
X90069523Y-115552819D01*
X90069523Y-115552819D02*
X89831428Y-114552819D01*
X89498094Y-114648057D02*
X89450475Y-114600438D01*
X89450475Y-114600438D02*
X89355237Y-114552819D01*
X89355237Y-114552819D02*
X89117142Y-114552819D01*
X89117142Y-114552819D02*
X89021904Y-114600438D01*
X89021904Y-114600438D02*
X88974285Y-114648057D01*
X88974285Y-114648057D02*
X88926666Y-114743295D01*
X88926666Y-114743295D02*
X88926666Y-114838533D01*
X88926666Y-114838533D02*
X88974285Y-114981390D01*
X88974285Y-114981390D02*
X89545713Y-115552819D01*
X89545713Y-115552819D02*
X88926666Y-115552819D01*
D12*
G04 #@! TO.C,SW5*
X98550000Y-119148000D02*
X98550000Y-119558000D01*
X98550000Y-121158000D02*
X98550000Y-123558000D01*
X98550000Y-125288000D02*
X98550000Y-125568000D01*
X98550000Y-125568000D02*
X104970000Y-125568000D01*
X104970000Y-119148000D02*
X98550000Y-119148000D01*
X104970000Y-119558000D02*
X104970000Y-119148000D01*
X104970000Y-123558000D02*
X104970000Y-121158000D01*
X104970000Y-125568000D02*
X104970000Y-125158000D01*
G04 #@! TO.C,SW4*
X75550000Y-119148000D02*
X75550000Y-119558000D01*
X75550000Y-121158000D02*
X75550000Y-123558000D01*
X75550000Y-125288000D02*
X75550000Y-125568000D01*
X75550000Y-125568000D02*
X81970000Y-125568000D01*
X81970000Y-119148000D02*
X75550000Y-119148000D01*
X81970000Y-119558000D02*
X81970000Y-119148000D01*
X81970000Y-123558000D02*
X81970000Y-121158000D01*
X81970000Y-125568000D02*
X81970000Y-125158000D01*
G04 #@! TO.C,SW3*
X87050000Y-130648000D02*
X87050000Y-131058000D01*
X87050000Y-132658000D02*
X87050000Y-135058000D01*
X87050000Y-136788000D02*
X87050000Y-137068000D01*
X87050000Y-137068000D02*
X93470000Y-137068000D01*
X93470000Y-130648000D02*
X87050000Y-130648000D01*
X93470000Y-131058000D02*
X93470000Y-130648000D01*
X93470000Y-135058000D02*
X93470000Y-132658000D01*
X93470000Y-137068000D02*
X93470000Y-136658000D01*
G04 #@! TO.C,SW1*
X87050000Y-119148000D02*
X87050000Y-119558000D01*
X87050000Y-121158000D02*
X87050000Y-123558000D01*
X87050000Y-125288000D02*
X87050000Y-125568000D01*
X87050000Y-125568000D02*
X93470000Y-125568000D01*
X93470000Y-119148000D02*
X87050000Y-119148000D01*
X93470000Y-119558000D02*
X93470000Y-119148000D01*
X93470000Y-123558000D02*
X93470000Y-121158000D01*
X93470000Y-125568000D02*
X93470000Y-125158000D01*
G04 #@! TO.C,SW2*
X87050000Y-107648000D02*
X87050000Y-108058000D01*
X87050000Y-109658000D02*
X87050000Y-112058000D01*
X87050000Y-113788000D02*
X87050000Y-114068000D01*
X87050000Y-114068000D02*
X93470000Y-114068000D01*
X93470000Y-107648000D02*
X87050000Y-107648000D01*
X93470000Y-108058000D02*
X93470000Y-107648000D01*
X93470000Y-112058000D02*
X93470000Y-109658000D01*
X93470000Y-114068000D02*
X93470000Y-113658000D01*
G04 #@! TD*
M02*
