G04 #@! TF.GenerationSoftware,KiCad,Pcbnew,8.0.7-unknown-1000.20241208gitf899755.fc40*
G04 #@! TF.CreationDate,2024-12-14T19:17:03-08:00*
G04 #@! TF.ProjectId,led-ctrl-24v,6c65642d-6374-4726-9c2d-3234762e6b69,rev?*
G04 #@! TF.SameCoordinates,Original*
G04 #@! TF.FileFunction,Legend,Top*
G04 #@! TF.FilePolarity,Positive*
%FSLAX46Y46*%
G04 Gerber Fmt 4.6, Leading zero omitted, Abs format (unit mm)*
G04 Created by KiCad (PCBNEW 8.0.7-unknown-1000.20241208gitf899755.fc40) date 2024-12-14 19:17:03*
%MOMM*%
%LPD*%
G01*
G04 APERTURE LIST*
%ADD10C,0.150000*%
%ADD11C,0.250000*%
%ADD12C,0.120000*%
%ADD13C,0.152400*%
G04 APERTURE END LIST*
D10*
X103011904Y-121502438D02*
X102916666Y-121454819D01*
X102916666Y-121454819D02*
X102773809Y-121454819D01*
X102773809Y-121454819D02*
X102630952Y-121502438D01*
X102630952Y-121502438D02*
X102535714Y-121597676D01*
X102535714Y-121597676D02*
X102488095Y-121692914D01*
X102488095Y-121692914D02*
X102440476Y-121883390D01*
X102440476Y-121883390D02*
X102440476Y-122026247D01*
X102440476Y-122026247D02*
X102488095Y-122216723D01*
X102488095Y-122216723D02*
X102535714Y-122311961D01*
X102535714Y-122311961D02*
X102630952Y-122407200D01*
X102630952Y-122407200D02*
X102773809Y-122454819D01*
X102773809Y-122454819D02*
X102869047Y-122454819D01*
X102869047Y-122454819D02*
X103011904Y-122407200D01*
X103011904Y-122407200D02*
X103059523Y-122359580D01*
X103059523Y-122359580D02*
X103059523Y-122026247D01*
X103059523Y-122026247D02*
X102869047Y-122026247D01*
X102750000Y-125978628D02*
X102750000Y-126454819D01*
X102416667Y-125454819D02*
X102750000Y-125978628D01*
X102750000Y-125978628D02*
X103083333Y-125454819D01*
D11*
X78988095Y-115150333D02*
X80511905Y-115150333D01*
X79750000Y-115912238D02*
X79750000Y-114388428D01*
D10*
X103059523Y-118704819D02*
X102726190Y-118228628D01*
X102488095Y-118704819D02*
X102488095Y-117704819D01*
X102488095Y-117704819D02*
X102869047Y-117704819D01*
X102869047Y-117704819D02*
X102964285Y-117752438D01*
X102964285Y-117752438D02*
X103011904Y-117800057D01*
X103011904Y-117800057D02*
X103059523Y-117895295D01*
X103059523Y-117895295D02*
X103059523Y-118038152D01*
X103059523Y-118038152D02*
X103011904Y-118133390D01*
X103011904Y-118133390D02*
X102964285Y-118181009D01*
X102964285Y-118181009D02*
X102869047Y-118228628D01*
X102869047Y-118228628D02*
X102488095Y-118228628D01*
X102821428Y-129681009D02*
X102964285Y-129728628D01*
X102964285Y-129728628D02*
X103011904Y-129776247D01*
X103011904Y-129776247D02*
X103059523Y-129871485D01*
X103059523Y-129871485D02*
X103059523Y-130014342D01*
X103059523Y-130014342D02*
X103011904Y-130109580D01*
X103011904Y-130109580D02*
X102964285Y-130157200D01*
X102964285Y-130157200D02*
X102869047Y-130204819D01*
X102869047Y-130204819D02*
X102488095Y-130204819D01*
X102488095Y-130204819D02*
X102488095Y-129204819D01*
X102488095Y-129204819D02*
X102821428Y-129204819D01*
X102821428Y-129204819D02*
X102916666Y-129252438D01*
X102916666Y-129252438D02*
X102964285Y-129300057D01*
X102964285Y-129300057D02*
X103011904Y-129395295D01*
X103011904Y-129395295D02*
X103011904Y-129490533D01*
X103011904Y-129490533D02*
X102964285Y-129585771D01*
X102964285Y-129585771D02*
X102916666Y-129633390D01*
X102916666Y-129633390D02*
X102821428Y-129681009D01*
X102821428Y-129681009D02*
X102488095Y-129681009D01*
X100913220Y-114431009D02*
X101056077Y-114478628D01*
X101056077Y-114478628D02*
X101103696Y-114526247D01*
X101103696Y-114526247D02*
X101151315Y-114621485D01*
X101151315Y-114621485D02*
X101151315Y-114764342D01*
X101151315Y-114764342D02*
X101103696Y-114859580D01*
X101103696Y-114859580D02*
X101056077Y-114907200D01*
X101056077Y-114907200D02*
X100960839Y-114954819D01*
X100960839Y-114954819D02*
X100579887Y-114954819D01*
X100579887Y-114954819D02*
X100579887Y-113954819D01*
X100579887Y-113954819D02*
X100913220Y-113954819D01*
X100913220Y-113954819D02*
X101008458Y-114002438D01*
X101008458Y-114002438D02*
X101056077Y-114050057D01*
X101056077Y-114050057D02*
X101103696Y-114145295D01*
X101103696Y-114145295D02*
X101103696Y-114240533D01*
X101103696Y-114240533D02*
X101056077Y-114335771D01*
X101056077Y-114335771D02*
X101008458Y-114383390D01*
X101008458Y-114383390D02*
X100913220Y-114431009D01*
X100913220Y-114431009D02*
X100579887Y-114431009D01*
X102056077Y-114954819D02*
X101579887Y-114954819D01*
X101579887Y-114954819D02*
X101579887Y-113954819D01*
X102389411Y-114954819D02*
X102389411Y-113954819D01*
X102960839Y-114954819D02*
X102532268Y-114383390D01*
X102960839Y-113954819D02*
X102389411Y-114526247D01*
X97833333Y-112859580D02*
X97785714Y-112907200D01*
X97785714Y-112907200D02*
X97642857Y-112954819D01*
X97642857Y-112954819D02*
X97547619Y-112954819D01*
X97547619Y-112954819D02*
X97404762Y-112907200D01*
X97404762Y-112907200D02*
X97309524Y-112811961D01*
X97309524Y-112811961D02*
X97261905Y-112716723D01*
X97261905Y-112716723D02*
X97214286Y-112526247D01*
X97214286Y-112526247D02*
X97214286Y-112383390D01*
X97214286Y-112383390D02*
X97261905Y-112192914D01*
X97261905Y-112192914D02*
X97309524Y-112097676D01*
X97309524Y-112097676D02*
X97404762Y-112002438D01*
X97404762Y-112002438D02*
X97547619Y-111954819D01*
X97547619Y-111954819D02*
X97642857Y-111954819D01*
X97642857Y-111954819D02*
X97785714Y-112002438D01*
X97785714Y-112002438D02*
X97833333Y-112050057D01*
X98214286Y-112050057D02*
X98261905Y-112002438D01*
X98261905Y-112002438D02*
X98357143Y-111954819D01*
X98357143Y-111954819D02*
X98595238Y-111954819D01*
X98595238Y-111954819D02*
X98690476Y-112002438D01*
X98690476Y-112002438D02*
X98738095Y-112050057D01*
X98738095Y-112050057D02*
X98785714Y-112145295D01*
X98785714Y-112145295D02*
X98785714Y-112240533D01*
X98785714Y-112240533D02*
X98738095Y-112383390D01*
X98738095Y-112383390D02*
X98166667Y-112954819D01*
X98166667Y-112954819D02*
X98785714Y-112954819D01*
X93060543Y-142203754D02*
X93161558Y-141631335D01*
X92656482Y-141799693D02*
X93363589Y-141092587D01*
X93363589Y-141092587D02*
X93632963Y-141361961D01*
X93632963Y-141361961D02*
X93666635Y-141462976D01*
X93666635Y-141462976D02*
X93666635Y-141530319D01*
X93666635Y-141530319D02*
X93632963Y-141631335D01*
X93632963Y-141631335D02*
X93531948Y-141732350D01*
X93531948Y-141732350D02*
X93430932Y-141766022D01*
X93430932Y-141766022D02*
X93363589Y-141766022D01*
X93363589Y-141766022D02*
X93262574Y-141732350D01*
X93262574Y-141732350D02*
X92993200Y-141462976D01*
X94373741Y-142102739D02*
X94239054Y-141968052D01*
X94239054Y-141968052D02*
X94138039Y-141934380D01*
X94138039Y-141934380D02*
X94070696Y-141934380D01*
X94070696Y-141934380D02*
X93902337Y-141968052D01*
X93902337Y-141968052D02*
X93733978Y-142069067D01*
X93733978Y-142069067D02*
X93464604Y-142338441D01*
X93464604Y-142338441D02*
X93430932Y-142439457D01*
X93430932Y-142439457D02*
X93430932Y-142506800D01*
X93430932Y-142506800D02*
X93464604Y-142607815D01*
X93464604Y-142607815D02*
X93599291Y-142742502D01*
X93599291Y-142742502D02*
X93700306Y-142776174D01*
X93700306Y-142776174D02*
X93767650Y-142776174D01*
X93767650Y-142776174D02*
X93868665Y-142742502D01*
X93868665Y-142742502D02*
X94037024Y-142574144D01*
X94037024Y-142574144D02*
X94070696Y-142473128D01*
X94070696Y-142473128D02*
X94070696Y-142405785D01*
X94070696Y-142405785D02*
X94037024Y-142304770D01*
X94037024Y-142304770D02*
X93902337Y-142170083D01*
X93902337Y-142170083D02*
X93801322Y-142136411D01*
X93801322Y-142136411D02*
X93733978Y-142136411D01*
X93733978Y-142136411D02*
X93632963Y-142170083D01*
X94560543Y-140703754D02*
X94661558Y-140131335D01*
X94156482Y-140299693D02*
X94863589Y-139592587D01*
X94863589Y-139592587D02*
X95132963Y-139861961D01*
X95132963Y-139861961D02*
X95166635Y-139962976D01*
X95166635Y-139962976D02*
X95166635Y-140030319D01*
X95166635Y-140030319D02*
X95132963Y-140131335D01*
X95132963Y-140131335D02*
X95031948Y-140232350D01*
X95031948Y-140232350D02*
X94930932Y-140266022D01*
X94930932Y-140266022D02*
X94863589Y-140266022D01*
X94863589Y-140266022D02*
X94762574Y-140232350D01*
X94762574Y-140232350D02*
X94493200Y-139962976D01*
X95907413Y-140636411D02*
X95570696Y-140299693D01*
X95570696Y-140299693D02*
X95200306Y-140602739D01*
X95200306Y-140602739D02*
X95267650Y-140602739D01*
X95267650Y-140602739D02*
X95368665Y-140636411D01*
X95368665Y-140636411D02*
X95537024Y-140804770D01*
X95537024Y-140804770D02*
X95570696Y-140905785D01*
X95570696Y-140905785D02*
X95570696Y-140973128D01*
X95570696Y-140973128D02*
X95537024Y-141074144D01*
X95537024Y-141074144D02*
X95368665Y-141242502D01*
X95368665Y-141242502D02*
X95267650Y-141276174D01*
X95267650Y-141276174D02*
X95200306Y-141276174D01*
X95200306Y-141276174D02*
X95099291Y-141242502D01*
X95099291Y-141242502D02*
X94930932Y-141074144D01*
X94930932Y-141074144D02*
X94897261Y-140973128D01*
X94897261Y-140973128D02*
X94897261Y-140905785D01*
X80300492Y-108443703D02*
X80401507Y-107871283D01*
X79896431Y-108039642D02*
X80603537Y-107332535D01*
X80603537Y-107332535D02*
X80872911Y-107601909D01*
X80872911Y-107601909D02*
X80906583Y-107702924D01*
X80906583Y-107702924D02*
X80906583Y-107770268D01*
X80906583Y-107770268D02*
X80872911Y-107871283D01*
X80872911Y-107871283D02*
X80771896Y-107972298D01*
X80771896Y-107972298D02*
X80670881Y-108005970D01*
X80670881Y-108005970D02*
X80603537Y-108005970D01*
X80603537Y-108005970D02*
X80502522Y-107972298D01*
X80502522Y-107972298D02*
X80233148Y-107702924D01*
X81209629Y-108073314D02*
X81276972Y-108073314D01*
X81276972Y-108073314D02*
X81377988Y-108106985D01*
X81377988Y-108106985D02*
X81546346Y-108275344D01*
X81546346Y-108275344D02*
X81580018Y-108376359D01*
X81580018Y-108376359D02*
X81580018Y-108443703D01*
X81580018Y-108443703D02*
X81546346Y-108544718D01*
X81546346Y-108544718D02*
X81479003Y-108612062D01*
X81479003Y-108612062D02*
X81344316Y-108679405D01*
X81344316Y-108679405D02*
X80536194Y-108679405D01*
X80536194Y-108679405D02*
X80973927Y-109117138D01*
X97560543Y-137703754D02*
X97661558Y-137131335D01*
X97156482Y-137299693D02*
X97863589Y-136592587D01*
X97863589Y-136592587D02*
X98132963Y-136861961D01*
X98132963Y-136861961D02*
X98166635Y-136962976D01*
X98166635Y-136962976D02*
X98166635Y-137030319D01*
X98166635Y-137030319D02*
X98132963Y-137131335D01*
X98132963Y-137131335D02*
X98031948Y-137232350D01*
X98031948Y-137232350D02*
X97930932Y-137266022D01*
X97930932Y-137266022D02*
X97863589Y-137266022D01*
X97863589Y-137266022D02*
X97762574Y-137232350D01*
X97762574Y-137232350D02*
X97493200Y-136962976D01*
X98503352Y-137232350D02*
X98941085Y-137670083D01*
X98941085Y-137670083D02*
X98436009Y-137703754D01*
X98436009Y-137703754D02*
X98537024Y-137804770D01*
X98537024Y-137804770D02*
X98570696Y-137905785D01*
X98570696Y-137905785D02*
X98570696Y-137973128D01*
X98570696Y-137973128D02*
X98537024Y-138074144D01*
X98537024Y-138074144D02*
X98368665Y-138242502D01*
X98368665Y-138242502D02*
X98267650Y-138276174D01*
X98267650Y-138276174D02*
X98200306Y-138276174D01*
X98200306Y-138276174D02*
X98099291Y-138242502D01*
X98099291Y-138242502D02*
X97897261Y-138040472D01*
X97897261Y-138040472D02*
X97863589Y-137939457D01*
X97863589Y-137939457D02*
X97863589Y-137872113D01*
X100833333Y-131654819D02*
X100500000Y-131178628D01*
X100261905Y-131654819D02*
X100261905Y-130654819D01*
X100261905Y-130654819D02*
X100642857Y-130654819D01*
X100642857Y-130654819D02*
X100738095Y-130702438D01*
X100738095Y-130702438D02*
X100785714Y-130750057D01*
X100785714Y-130750057D02*
X100833333Y-130845295D01*
X100833333Y-130845295D02*
X100833333Y-130988152D01*
X100833333Y-130988152D02*
X100785714Y-131083390D01*
X100785714Y-131083390D02*
X100738095Y-131131009D01*
X100738095Y-131131009D02*
X100642857Y-131178628D01*
X100642857Y-131178628D02*
X100261905Y-131178628D01*
X101404762Y-131083390D02*
X101309524Y-131035771D01*
X101309524Y-131035771D02*
X101261905Y-130988152D01*
X101261905Y-130988152D02*
X101214286Y-130892914D01*
X101214286Y-130892914D02*
X101214286Y-130845295D01*
X101214286Y-130845295D02*
X101261905Y-130750057D01*
X101261905Y-130750057D02*
X101309524Y-130702438D01*
X101309524Y-130702438D02*
X101404762Y-130654819D01*
X101404762Y-130654819D02*
X101595238Y-130654819D01*
X101595238Y-130654819D02*
X101690476Y-130702438D01*
X101690476Y-130702438D02*
X101738095Y-130750057D01*
X101738095Y-130750057D02*
X101785714Y-130845295D01*
X101785714Y-130845295D02*
X101785714Y-130892914D01*
X101785714Y-130892914D02*
X101738095Y-130988152D01*
X101738095Y-130988152D02*
X101690476Y-131035771D01*
X101690476Y-131035771D02*
X101595238Y-131083390D01*
X101595238Y-131083390D02*
X101404762Y-131083390D01*
X101404762Y-131083390D02*
X101309524Y-131131009D01*
X101309524Y-131131009D02*
X101261905Y-131178628D01*
X101261905Y-131178628D02*
X101214286Y-131273866D01*
X101214286Y-131273866D02*
X101214286Y-131464342D01*
X101214286Y-131464342D02*
X101261905Y-131559580D01*
X101261905Y-131559580D02*
X101309524Y-131607200D01*
X101309524Y-131607200D02*
X101404762Y-131654819D01*
X101404762Y-131654819D02*
X101595238Y-131654819D01*
X101595238Y-131654819D02*
X101690476Y-131607200D01*
X101690476Y-131607200D02*
X101738095Y-131559580D01*
X101738095Y-131559580D02*
X101785714Y-131464342D01*
X101785714Y-131464342D02*
X101785714Y-131273866D01*
X101785714Y-131273866D02*
X101738095Y-131178628D01*
X101738095Y-131178628D02*
X101690476Y-131131009D01*
X101690476Y-131131009D02*
X101595238Y-131083390D01*
X72499883Y-124764414D02*
X72600898Y-124191995D01*
X72095822Y-124360353D02*
X72802929Y-123653247D01*
X72802929Y-123653247D02*
X73072303Y-123922621D01*
X73072303Y-123922621D02*
X73105975Y-124023636D01*
X73105975Y-124023636D02*
X73105975Y-124090979D01*
X73105975Y-124090979D02*
X73072303Y-124191995D01*
X73072303Y-124191995D02*
X72971288Y-124293010D01*
X72971288Y-124293010D02*
X72870272Y-124326682D01*
X72870272Y-124326682D02*
X72802929Y-124326682D01*
X72802929Y-124326682D02*
X72701914Y-124293010D01*
X72701914Y-124293010D02*
X72432540Y-124023636D01*
X73577379Y-124899101D02*
X73105975Y-125370506D01*
X73678394Y-124461369D02*
X73004959Y-124798086D01*
X73004959Y-124798086D02*
X73442692Y-125235819D01*
X84766184Y-124989949D02*
X85338604Y-125562369D01*
X85338604Y-125562369D02*
X85439619Y-125596041D01*
X85439619Y-125596041D02*
X85506963Y-125596041D01*
X85506963Y-125596041D02*
X85607978Y-125562369D01*
X85607978Y-125562369D02*
X85742665Y-125427682D01*
X85742665Y-125427682D02*
X85776337Y-125326667D01*
X85776337Y-125326667D02*
X85776337Y-125259323D01*
X85776337Y-125259323D02*
X85742665Y-125158308D01*
X85742665Y-125158308D02*
X85170245Y-124585888D01*
X85540635Y-124350186D02*
X85540635Y-124282843D01*
X85540635Y-124282843D02*
X85574306Y-124181827D01*
X85574306Y-124181827D02*
X85742665Y-124013469D01*
X85742665Y-124013469D02*
X85843680Y-123979797D01*
X85843680Y-123979797D02*
X85911024Y-123979797D01*
X85911024Y-123979797D02*
X86012039Y-124013469D01*
X86012039Y-124013469D02*
X86079383Y-124080812D01*
X86079383Y-124080812D02*
X86146726Y-124215499D01*
X86146726Y-124215499D02*
X86146726Y-125023621D01*
X86146726Y-125023621D02*
X86584459Y-124585888D01*
X75846725Y-132253215D02*
X76553832Y-131546109D01*
X76553832Y-131546109D02*
X76250786Y-132657277D01*
X76250786Y-132657277D02*
X76957893Y-131950170D01*
X76688519Y-133095009D02*
X76654847Y-132993994D01*
X76654847Y-132993994D02*
X76654847Y-132926650D01*
X76654847Y-132926650D02*
X76688519Y-132825635D01*
X76688519Y-132825635D02*
X76890549Y-132623605D01*
X76890549Y-132623605D02*
X76991565Y-132589933D01*
X76991565Y-132589933D02*
X77058908Y-132589933D01*
X77058908Y-132589933D02*
X77159923Y-132623605D01*
X77159923Y-132623605D02*
X77260939Y-132724620D01*
X77260939Y-132724620D02*
X77294610Y-132825635D01*
X77294610Y-132825635D02*
X77294610Y-132892979D01*
X77294610Y-132892979D02*
X77260939Y-132993994D01*
X77260939Y-132993994D02*
X77058908Y-133196024D01*
X77058908Y-133196024D02*
X76957893Y-133229696D01*
X76957893Y-133229696D02*
X76890549Y-133229696D01*
X76890549Y-133229696D02*
X76789534Y-133196024D01*
X76789534Y-133196024D02*
X76688519Y-133095009D01*
X78237420Y-134509223D02*
X78170076Y-134509223D01*
X78170076Y-134509223D02*
X78035389Y-134441880D01*
X78035389Y-134441880D02*
X77968046Y-134374536D01*
X77968046Y-134374536D02*
X77900702Y-134239849D01*
X77900702Y-134239849D02*
X77900702Y-134105162D01*
X77900702Y-134105162D02*
X77934374Y-134004147D01*
X77934374Y-134004147D02*
X78035389Y-133835788D01*
X78035389Y-133835788D02*
X78136405Y-133734773D01*
X78136405Y-133734773D02*
X78304763Y-133633757D01*
X78304763Y-133633757D02*
X78405779Y-133600086D01*
X78405779Y-133600086D02*
X78540466Y-133600086D01*
X78540466Y-133600086D02*
X78675153Y-133667429D01*
X78675153Y-133667429D02*
X78742496Y-133734773D01*
X78742496Y-133734773D02*
X78809840Y-133869460D01*
X78809840Y-133869460D02*
X78809840Y-133936803D01*
X78574137Y-134980628D02*
X78540466Y-134879612D01*
X78540466Y-134879612D02*
X78540466Y-134812269D01*
X78540466Y-134812269D02*
X78574137Y-134711254D01*
X78574137Y-134711254D02*
X78776168Y-134509223D01*
X78776168Y-134509223D02*
X78877183Y-134475551D01*
X78877183Y-134475551D02*
X78944527Y-134475551D01*
X78944527Y-134475551D02*
X79045542Y-134509223D01*
X79045542Y-134509223D02*
X79146557Y-134610238D01*
X79146557Y-134610238D02*
X79180229Y-134711254D01*
X79180229Y-134711254D02*
X79180229Y-134778597D01*
X79180229Y-134778597D02*
X79146557Y-134879612D01*
X79146557Y-134879612D02*
X78944527Y-135081643D01*
X78944527Y-135081643D02*
X78843511Y-135115315D01*
X78843511Y-135115315D02*
X78776168Y-135115315D01*
X78776168Y-135115315D02*
X78675153Y-135081643D01*
X78675153Y-135081643D02*
X78574137Y-134980628D01*
X79584290Y-135047971D02*
X78877183Y-135755078D01*
X79550618Y-135081643D02*
X79651633Y-135115315D01*
X79651633Y-135115315D02*
X79786320Y-135250002D01*
X79786320Y-135250002D02*
X79819992Y-135351017D01*
X79819992Y-135351017D02*
X79819992Y-135418360D01*
X79819992Y-135418360D02*
X79786320Y-135519376D01*
X79786320Y-135519376D02*
X79584290Y-135721406D01*
X79584290Y-135721406D02*
X79483275Y-135755078D01*
X79483275Y-135755078D02*
X79415931Y-135755078D01*
X79415931Y-135755078D02*
X79314916Y-135721406D01*
X79314916Y-135721406D02*
X79180229Y-135586719D01*
X79180229Y-135586719D02*
X79146557Y-135485704D01*
X80224053Y-135687734D02*
X79516946Y-136394841D01*
X80190381Y-135721406D02*
X80291397Y-135755078D01*
X80291397Y-135755078D02*
X80426084Y-135889765D01*
X80426084Y-135889765D02*
X80459756Y-135990780D01*
X80459756Y-135990780D02*
X80459756Y-136058124D01*
X80459756Y-136058124D02*
X80426084Y-136159139D01*
X80426084Y-136159139D02*
X80224053Y-136361170D01*
X80224053Y-136361170D02*
X80123038Y-136394841D01*
X80123038Y-136394841D02*
X80055694Y-136394841D01*
X80055694Y-136394841D02*
X79954679Y-136361170D01*
X79954679Y-136361170D02*
X79819992Y-136226482D01*
X79819992Y-136226482D02*
X79786320Y-136125467D01*
X80695458Y-137034605D02*
X80594443Y-137000933D01*
X80594443Y-137000933D02*
X80459756Y-136866246D01*
X80459756Y-136866246D02*
X80426084Y-136765231D01*
X80426084Y-136765231D02*
X80459756Y-136664215D01*
X80459756Y-136664215D02*
X80729130Y-136394841D01*
X80729130Y-136394841D02*
X80830145Y-136361170D01*
X80830145Y-136361170D02*
X80931160Y-136394841D01*
X80931160Y-136394841D02*
X81065847Y-136529528D01*
X81065847Y-136529528D02*
X81099519Y-136630544D01*
X81099519Y-136630544D02*
X81065847Y-136731559D01*
X81065847Y-136731559D02*
X80998504Y-136798902D01*
X80998504Y-136798902D02*
X80594443Y-136529528D01*
X80998504Y-137404994D02*
X81469908Y-136933589D01*
X81335221Y-137068276D02*
X81436236Y-137034605D01*
X81436236Y-137034605D02*
X81503580Y-137034605D01*
X81503580Y-137034605D02*
X81604595Y-137068276D01*
X81604595Y-137068276D02*
X81671939Y-137135620D01*
X71796066Y-119732528D02*
X71290990Y-120237604D01*
X71290990Y-120237604D02*
X71156303Y-120304948D01*
X71156303Y-120304948D02*
X71021616Y-120304948D01*
X71021616Y-120304948D02*
X70886929Y-120237604D01*
X70886929Y-120237604D02*
X70819585Y-120170261D01*
X72031769Y-120102917D02*
X72099112Y-120102917D01*
X72099112Y-120102917D02*
X72200127Y-120136589D01*
X72200127Y-120136589D02*
X72368486Y-120304948D01*
X72368486Y-120304948D02*
X72402158Y-120405963D01*
X72402158Y-120405963D02*
X72402158Y-120473307D01*
X72402158Y-120473307D02*
X72368486Y-120574322D01*
X72368486Y-120574322D02*
X72301143Y-120641665D01*
X72301143Y-120641665D02*
X72166456Y-120709009D01*
X72166456Y-120709009D02*
X71358334Y-120709009D01*
X71358334Y-120709009D02*
X71796066Y-121146742D01*
X94954819Y-117761904D02*
X95764342Y-117761904D01*
X95764342Y-117761904D02*
X95859580Y-117714285D01*
X95859580Y-117714285D02*
X95907200Y-117666666D01*
X95907200Y-117666666D02*
X95954819Y-117571428D01*
X95954819Y-117571428D02*
X95954819Y-117380952D01*
X95954819Y-117380952D02*
X95907200Y-117285714D01*
X95907200Y-117285714D02*
X95859580Y-117238095D01*
X95859580Y-117238095D02*
X95764342Y-117190476D01*
X95764342Y-117190476D02*
X94954819Y-117190476D01*
X95288152Y-116285714D02*
X95954819Y-116285714D01*
X94907200Y-116523809D02*
X95621485Y-116761904D01*
X95621485Y-116761904D02*
X95621485Y-116142857D01*
X97627887Y-122136411D02*
X97560543Y-122136411D01*
X97560543Y-122136411D02*
X97425856Y-122069067D01*
X97425856Y-122069067D02*
X97358513Y-122001724D01*
X97358513Y-122001724D02*
X97291169Y-121867037D01*
X97291169Y-121867037D02*
X97291169Y-121732350D01*
X97291169Y-121732350D02*
X97324841Y-121631335D01*
X97324841Y-121631335D02*
X97425856Y-121462976D01*
X97425856Y-121462976D02*
X97526871Y-121361961D01*
X97526871Y-121361961D02*
X97695230Y-121260945D01*
X97695230Y-121260945D02*
X97796245Y-121227274D01*
X97796245Y-121227274D02*
X97930932Y-121227274D01*
X97930932Y-121227274D02*
X98065619Y-121294617D01*
X98065619Y-121294617D02*
X98132963Y-121361961D01*
X98132963Y-121361961D02*
X98200306Y-121496648D01*
X98200306Y-121496648D02*
X98200306Y-121563991D01*
X98233978Y-122877189D02*
X97829917Y-122473128D01*
X98031948Y-122675159D02*
X98739054Y-121968052D01*
X98739054Y-121968052D02*
X98570696Y-122001724D01*
X98570696Y-122001724D02*
X98436009Y-122001724D01*
X98436009Y-122001724D02*
X98334993Y-121968052D01*
X78800492Y-109943703D02*
X78901507Y-109371283D01*
X78396431Y-109539642D02*
X79103537Y-108832535D01*
X79103537Y-108832535D02*
X79372911Y-109101909D01*
X79372911Y-109101909D02*
X79406583Y-109202924D01*
X79406583Y-109202924D02*
X79406583Y-109270268D01*
X79406583Y-109270268D02*
X79372911Y-109371283D01*
X79372911Y-109371283D02*
X79271896Y-109472298D01*
X79271896Y-109472298D02*
X79170881Y-109505970D01*
X79170881Y-109505970D02*
X79103537Y-109505970D01*
X79103537Y-109505970D02*
X79002522Y-109472298D01*
X79002522Y-109472298D02*
X78733148Y-109202924D01*
X79473927Y-110617138D02*
X79069866Y-110213077D01*
X79271896Y-110415107D02*
X79979003Y-109708001D01*
X79979003Y-109708001D02*
X79810644Y-109741672D01*
X79810644Y-109741672D02*
X79675957Y-109741672D01*
X79675957Y-109741672D02*
X79574942Y-109708001D01*
X96060543Y-139203754D02*
X96161558Y-138631335D01*
X95656482Y-138799693D02*
X96363589Y-138092587D01*
X96363589Y-138092587D02*
X96632963Y-138361961D01*
X96632963Y-138361961D02*
X96666635Y-138462976D01*
X96666635Y-138462976D02*
X96666635Y-138530319D01*
X96666635Y-138530319D02*
X96632963Y-138631335D01*
X96632963Y-138631335D02*
X96531948Y-138732350D01*
X96531948Y-138732350D02*
X96430932Y-138766022D01*
X96430932Y-138766022D02*
X96363589Y-138766022D01*
X96363589Y-138766022D02*
X96262574Y-138732350D01*
X96262574Y-138732350D02*
X95993200Y-138462976D01*
X97003352Y-138732350D02*
X97474757Y-139203754D01*
X97474757Y-139203754D02*
X96464604Y-139607815D01*
X96624549Y-132259236D02*
X96523534Y-132292908D01*
X96523534Y-132292908D02*
X96388847Y-132292908D01*
X96388847Y-132292908D02*
X96186816Y-132292908D01*
X96186816Y-132292908D02*
X96085801Y-132326580D01*
X96085801Y-132326580D02*
X96018458Y-132393923D01*
X96220488Y-132528610D02*
X96119473Y-132562282D01*
X96119473Y-132562282D02*
X95984786Y-132562282D01*
X95984786Y-132562282D02*
X95816427Y-132461267D01*
X95816427Y-132461267D02*
X95580725Y-132225564D01*
X95580725Y-132225564D02*
X95479710Y-132057206D01*
X95479710Y-132057206D02*
X95479710Y-131922519D01*
X95479710Y-131922519D02*
X95513381Y-131821503D01*
X95513381Y-131821503D02*
X95648068Y-131686816D01*
X95648068Y-131686816D02*
X95749084Y-131653145D01*
X95749084Y-131653145D02*
X95883771Y-131653145D01*
X95883771Y-131653145D02*
X96052129Y-131754160D01*
X96052129Y-131754160D02*
X96287832Y-131989862D01*
X96287832Y-131989862D02*
X96388847Y-132158221D01*
X96388847Y-132158221D02*
X96388847Y-132292908D01*
X96388847Y-132292908D02*
X96355175Y-132393923D01*
X96355175Y-132393923D02*
X96220488Y-132528610D01*
X97196969Y-131552129D02*
X96792908Y-131956190D01*
X96994938Y-131754160D02*
X96287832Y-131047053D01*
X96287832Y-131047053D02*
X96321503Y-131215412D01*
X96321503Y-131215412D02*
X96321503Y-131350099D01*
X96321503Y-131350099D02*
X96287832Y-131451114D01*
X81127057Y-106270268D02*
X81228072Y-105697848D01*
X80722996Y-105866207D02*
X81430102Y-105159100D01*
X81430102Y-105159100D02*
X81699476Y-105428474D01*
X81699476Y-105428474D02*
X81733148Y-105529489D01*
X81733148Y-105529489D02*
X81733148Y-105596833D01*
X81733148Y-105596833D02*
X81699476Y-105697848D01*
X81699476Y-105697848D02*
X81598461Y-105798863D01*
X81598461Y-105798863D02*
X81497446Y-105832535D01*
X81497446Y-105832535D02*
X81430102Y-105832535D01*
X81430102Y-105832535D02*
X81329087Y-105798863D01*
X81329087Y-105798863D02*
X81059713Y-105529489D01*
X81800492Y-106943703D02*
X81396431Y-106539642D01*
X81598461Y-106741672D02*
X82305568Y-106034566D01*
X82305568Y-106034566D02*
X82137209Y-106068237D01*
X82137209Y-106068237D02*
X82002522Y-106068237D01*
X82002522Y-106068237D02*
X81901507Y-106034566D01*
X82877988Y-107078390D02*
X82406583Y-107549794D01*
X82979003Y-106640657D02*
X82305568Y-106977375D01*
X82305568Y-106977375D02*
X82743301Y-107415107D01*
X109679819Y-122433333D02*
X110394104Y-122433333D01*
X110394104Y-122433333D02*
X110536961Y-122480952D01*
X110536961Y-122480952D02*
X110632200Y-122576190D01*
X110632200Y-122576190D02*
X110679819Y-122719047D01*
X110679819Y-122719047D02*
X110679819Y-122814285D01*
X109679819Y-122052380D02*
X109679819Y-121433333D01*
X109679819Y-121433333D02*
X110060771Y-121766666D01*
X110060771Y-121766666D02*
X110060771Y-121623809D01*
X110060771Y-121623809D02*
X110108390Y-121528571D01*
X110108390Y-121528571D02*
X110156009Y-121480952D01*
X110156009Y-121480952D02*
X110251247Y-121433333D01*
X110251247Y-121433333D02*
X110489342Y-121433333D01*
X110489342Y-121433333D02*
X110584580Y-121480952D01*
X110584580Y-121480952D02*
X110632200Y-121528571D01*
X110632200Y-121528571D02*
X110679819Y-121623809D01*
X110679819Y-121623809D02*
X110679819Y-121909523D01*
X110679819Y-121909523D02*
X110632200Y-122004761D01*
X110632200Y-122004761D02*
X110584580Y-122052380D01*
X100454819Y-121166666D02*
X99978628Y-121499999D01*
X100454819Y-121738094D02*
X99454819Y-121738094D01*
X99454819Y-121738094D02*
X99454819Y-121357142D01*
X99454819Y-121357142D02*
X99502438Y-121261904D01*
X99502438Y-121261904D02*
X99550057Y-121214285D01*
X99550057Y-121214285D02*
X99645295Y-121166666D01*
X99645295Y-121166666D02*
X99788152Y-121166666D01*
X99788152Y-121166666D02*
X99883390Y-121214285D01*
X99883390Y-121214285D02*
X99931009Y-121261904D01*
X99931009Y-121261904D02*
X99978628Y-121357142D01*
X99978628Y-121357142D02*
X99978628Y-121738094D01*
X100454819Y-120690475D02*
X100454819Y-120499999D01*
X100454819Y-120499999D02*
X100407200Y-120404761D01*
X100407200Y-120404761D02*
X100359580Y-120357142D01*
X100359580Y-120357142D02*
X100216723Y-120261904D01*
X100216723Y-120261904D02*
X100026247Y-120214285D01*
X100026247Y-120214285D02*
X99645295Y-120214285D01*
X99645295Y-120214285D02*
X99550057Y-120261904D01*
X99550057Y-120261904D02*
X99502438Y-120309523D01*
X99502438Y-120309523D02*
X99454819Y-120404761D01*
X99454819Y-120404761D02*
X99454819Y-120595237D01*
X99454819Y-120595237D02*
X99502438Y-120690475D01*
X99502438Y-120690475D02*
X99550057Y-120738094D01*
X99550057Y-120738094D02*
X99645295Y-120785713D01*
X99645295Y-120785713D02*
X99883390Y-120785713D01*
X99883390Y-120785713D02*
X99978628Y-120738094D01*
X99978628Y-120738094D02*
X100026247Y-120690475D01*
X100026247Y-120690475D02*
X100073866Y-120595237D01*
X100073866Y-120595237D02*
X100073866Y-120404761D01*
X100073866Y-120404761D02*
X100026247Y-120309523D01*
X100026247Y-120309523D02*
X99978628Y-120261904D01*
X99978628Y-120261904D02*
X99883390Y-120214285D01*
X100878796Y-133850201D02*
X101383872Y-134355277D01*
X101383872Y-134355277D02*
X101451216Y-134489964D01*
X101451216Y-134489964D02*
X101451216Y-134624651D01*
X101451216Y-134624651D02*
X101383872Y-134759338D01*
X101383872Y-134759338D02*
X101316529Y-134826682D01*
X102293010Y-133850201D02*
X101888949Y-134254262D01*
X102090979Y-134052231D02*
X101383872Y-133345124D01*
X101383872Y-133345124D02*
X101417544Y-133513483D01*
X101417544Y-133513483D02*
X101417544Y-133648170D01*
X101417544Y-133648170D02*
X101383872Y-133749185D01*
X76627057Y-110770268D02*
X76728072Y-110197848D01*
X76222996Y-110366207D02*
X76930102Y-109659100D01*
X76930102Y-109659100D02*
X77199476Y-109928474D01*
X77199476Y-109928474D02*
X77233148Y-110029489D01*
X77233148Y-110029489D02*
X77233148Y-110096833D01*
X77233148Y-110096833D02*
X77199476Y-110197848D01*
X77199476Y-110197848D02*
X77098461Y-110298863D01*
X77098461Y-110298863D02*
X76997446Y-110332535D01*
X76997446Y-110332535D02*
X76930102Y-110332535D01*
X76930102Y-110332535D02*
X76829087Y-110298863D01*
X76829087Y-110298863D02*
X76559713Y-110029489D01*
X77300492Y-111443703D02*
X76896431Y-111039642D01*
X77098461Y-111241672D02*
X77805568Y-110534566D01*
X77805568Y-110534566D02*
X77637209Y-110568237D01*
X77637209Y-110568237D02*
X77502522Y-110568237D01*
X77502522Y-110568237D02*
X77401507Y-110534566D01*
X78209629Y-111073314D02*
X78276972Y-111073314D01*
X78276972Y-111073314D02*
X78377988Y-111106985D01*
X78377988Y-111106985D02*
X78546346Y-111275344D01*
X78546346Y-111275344D02*
X78580018Y-111376359D01*
X78580018Y-111376359D02*
X78580018Y-111443703D01*
X78580018Y-111443703D02*
X78546346Y-111544718D01*
X78546346Y-111544718D02*
X78479003Y-111612062D01*
X78479003Y-111612062D02*
X78344316Y-111679405D01*
X78344316Y-111679405D02*
X77536194Y-111679405D01*
X77536194Y-111679405D02*
X77973927Y-112117138D01*
D12*
G04 #@! TO.C,C2*
X98162779Y-113490000D02*
X97837221Y-113490000D01*
X98162779Y-114510000D02*
X97837221Y-114510000D01*
G04 #@! TO.C,R6*
X91254478Y-140475727D02*
X91024273Y-140245522D01*
X91975727Y-139754478D02*
X91745522Y-139524273D01*
G04 #@! TO.C,R5*
X92754478Y-138975727D02*
X92524273Y-138745522D01*
X93475727Y-138254478D02*
X93245522Y-138024273D01*
G04 #@! TO.C,R2*
X84024273Y-109245522D02*
X84254478Y-109475727D01*
X84745522Y-108524273D02*
X84975727Y-108754478D01*
G04 #@! TO.C,R3*
X94254478Y-137475727D02*
X94024273Y-137245522D01*
X94975727Y-136754478D02*
X94745522Y-136524273D01*
G04 #@! TO.C,R8*
X100837221Y-129190000D02*
X101162779Y-129190000D01*
X100837221Y-130210000D02*
X101162779Y-130210000D01*
G04 #@! TO.C,R4*
X73524273Y-123745522D02*
X73754478Y-123975727D01*
X74245522Y-123024273D02*
X74475727Y-123254478D01*
D13*
G04 #@! TO.C,U2*
X70945843Y-130951762D02*
X86360771Y-138164251D01*
X70962814Y-130943277D02*
X76261165Y-125644926D01*
X82259552Y-142265471D02*
X75047063Y-126850543D01*
X82277936Y-142258400D02*
X70962814Y-130943277D01*
X82277936Y-142258400D02*
X87486485Y-137049851D01*
X86360771Y-138164251D02*
X75047063Y-126850543D01*
X87935498Y-113970593D02*
X87396682Y-114509408D01*
X98711805Y-125824531D02*
X99250621Y-125285715D01*
X99250621Y-125285715D02*
X87935498Y-113970593D01*
D12*
G04 #@! TO.C,U4*
X97100000Y-118610000D02*
X98900000Y-118610000D01*
X98900000Y-115390000D02*
X96450000Y-115390000D01*
G04 #@! TO.C,C1*
X99254478Y-123975727D02*
X99024273Y-123745522D01*
X99975727Y-123254478D02*
X99745522Y-123024273D01*
G04 #@! TO.C,R1*
X81024273Y-112245522D02*
X81254478Y-112475727D01*
X81745522Y-111524273D02*
X81975727Y-111754478D01*
G04 #@! TO.C,R7*
X95524273Y-135745522D02*
X95754478Y-135975727D01*
X96245522Y-135024273D02*
X96475727Y-135254478D01*
G04 #@! TO.C,Q1*
X96896913Y-132396913D02*
X96437294Y-132856533D01*
X96896913Y-132396913D02*
X97356533Y-131937294D01*
X99103087Y-134603087D02*
X98643467Y-135062706D01*
X99103087Y-134603087D02*
X99562706Y-134143467D01*
X96110257Y-133254280D02*
X95707206Y-133190641D01*
X96046618Y-132851230D01*
X96110257Y-133254280D01*
G36*
X96110257Y-133254280D02*
G01*
X95707206Y-133190641D01*
X96046618Y-132851230D01*
X96110257Y-133254280D01*
G37*
G04 #@! TO.C,R14*
X82754478Y-110975727D02*
X82524273Y-110745522D01*
X83475727Y-110254478D02*
X83245522Y-110024273D01*
G04 #@! TO.C,R9*
X100990000Y-120837220D02*
X100990000Y-121162780D01*
X102010000Y-120837220D02*
X102010000Y-121162780D01*
G04 #@! TO.C,J1*
X98817948Y-138601148D02*
X100698852Y-140482052D01*
X104248528Y-133170568D02*
X98817948Y-138601148D01*
X104248528Y-133170568D02*
X106129432Y-135051472D01*
X105146554Y-132272542D02*
X106087006Y-131332090D01*
X106087006Y-131332090D02*
X107027458Y-132272542D01*
X106129432Y-135051472D02*
X100698852Y-140482052D01*
G04 #@! TO.C,R12*
X79524273Y-113745522D02*
X79754478Y-113975727D01*
X80245522Y-113024273D02*
X80475727Y-113254478D01*
G04 #@! TD*
M02*
