G04 #@! TF.GenerationSoftware,KiCad,Pcbnew,8.0.7-unknown-1000.20241230gita20d76c.fc41*
G04 #@! TF.CreationDate,2025-01-11T13:27:58-08:00*
G04 #@! TF.ProjectId,led-ctrl-24v,6c65642d-6374-4726-9c2d-3234762e6b69,rev?*
G04 #@! TF.SameCoordinates,Original*
G04 #@! TF.FileFunction,Legend,Top*
G04 #@! TF.FilePolarity,Positive*
%FSLAX46Y46*%
G04 Gerber Fmt 4.6, Leading zero omitted, Abs format (unit mm)*
G04 Created by KiCad (PCBNEW 8.0.7-unknown-1000.20241230gita20d76c.fc41) date 2025-01-11 13:27:58*
%MOMM*%
%LPD*%
G01*
G04 APERTURE LIST*
%ADD10C,0.150000*%
%ADD11C,0.250000*%
%ADD12C,0.120000*%
%ADD13C,0.200000*%
%ADD14C,0.152400*%
G04 APERTURE END LIST*
D10*
X103011904Y-121502438D02*
X102916666Y-121454819D01*
X102916666Y-121454819D02*
X102773809Y-121454819D01*
X102773809Y-121454819D02*
X102630952Y-121502438D01*
X102630952Y-121502438D02*
X102535714Y-121597676D01*
X102535714Y-121597676D02*
X102488095Y-121692914D01*
X102488095Y-121692914D02*
X102440476Y-121883390D01*
X102440476Y-121883390D02*
X102440476Y-122026247D01*
X102440476Y-122026247D02*
X102488095Y-122216723D01*
X102488095Y-122216723D02*
X102535714Y-122311961D01*
X102535714Y-122311961D02*
X102630952Y-122407200D01*
X102630952Y-122407200D02*
X102773809Y-122454819D01*
X102773809Y-122454819D02*
X102869047Y-122454819D01*
X102869047Y-122454819D02*
X103011904Y-122407200D01*
X103011904Y-122407200D02*
X103059523Y-122359580D01*
X103059523Y-122359580D02*
X103059523Y-122026247D01*
X103059523Y-122026247D02*
X102869047Y-122026247D01*
X102750000Y-125978628D02*
X102750000Y-126454819D01*
X102416667Y-125454819D02*
X102750000Y-125978628D01*
X102750000Y-125978628D02*
X103083333Y-125454819D01*
D11*
X78988095Y-115150333D02*
X80511905Y-115150333D01*
X79750000Y-115912238D02*
X79750000Y-114388428D01*
D10*
X103059523Y-118704819D02*
X102726190Y-118228628D01*
X102488095Y-118704819D02*
X102488095Y-117704819D01*
X102488095Y-117704819D02*
X102869047Y-117704819D01*
X102869047Y-117704819D02*
X102964285Y-117752438D01*
X102964285Y-117752438D02*
X103011904Y-117800057D01*
X103011904Y-117800057D02*
X103059523Y-117895295D01*
X103059523Y-117895295D02*
X103059523Y-118038152D01*
X103059523Y-118038152D02*
X103011904Y-118133390D01*
X103011904Y-118133390D02*
X102964285Y-118181009D01*
X102964285Y-118181009D02*
X102869047Y-118228628D01*
X102869047Y-118228628D02*
X102488095Y-118228628D01*
X102821428Y-129681009D02*
X102964285Y-129728628D01*
X102964285Y-129728628D02*
X103011904Y-129776247D01*
X103011904Y-129776247D02*
X103059523Y-129871485D01*
X103059523Y-129871485D02*
X103059523Y-130014342D01*
X103059523Y-130014342D02*
X103011904Y-130109580D01*
X103011904Y-130109580D02*
X102964285Y-130157200D01*
X102964285Y-130157200D02*
X102869047Y-130204819D01*
X102869047Y-130204819D02*
X102488095Y-130204819D01*
X102488095Y-130204819D02*
X102488095Y-129204819D01*
X102488095Y-129204819D02*
X102821428Y-129204819D01*
X102821428Y-129204819D02*
X102916666Y-129252438D01*
X102916666Y-129252438D02*
X102964285Y-129300057D01*
X102964285Y-129300057D02*
X103011904Y-129395295D01*
X103011904Y-129395295D02*
X103011904Y-129490533D01*
X103011904Y-129490533D02*
X102964285Y-129585771D01*
X102964285Y-129585771D02*
X102916666Y-129633390D01*
X102916666Y-129633390D02*
X102821428Y-129681009D01*
X102821428Y-129681009D02*
X102488095Y-129681009D01*
X100913220Y-114431009D02*
X101056077Y-114478628D01*
X101056077Y-114478628D02*
X101103696Y-114526247D01*
X101103696Y-114526247D02*
X101151315Y-114621485D01*
X101151315Y-114621485D02*
X101151315Y-114764342D01*
X101151315Y-114764342D02*
X101103696Y-114859580D01*
X101103696Y-114859580D02*
X101056077Y-114907200D01*
X101056077Y-114907200D02*
X100960839Y-114954819D01*
X100960839Y-114954819D02*
X100579887Y-114954819D01*
X100579887Y-114954819D02*
X100579887Y-113954819D01*
X100579887Y-113954819D02*
X100913220Y-113954819D01*
X100913220Y-113954819D02*
X101008458Y-114002438D01*
X101008458Y-114002438D02*
X101056077Y-114050057D01*
X101056077Y-114050057D02*
X101103696Y-114145295D01*
X101103696Y-114145295D02*
X101103696Y-114240533D01*
X101103696Y-114240533D02*
X101056077Y-114335771D01*
X101056077Y-114335771D02*
X101008458Y-114383390D01*
X101008458Y-114383390D02*
X100913220Y-114431009D01*
X100913220Y-114431009D02*
X100579887Y-114431009D01*
X102056077Y-114954819D02*
X101579887Y-114954819D01*
X101579887Y-114954819D02*
X101579887Y-113954819D01*
X102389411Y-114954819D02*
X102389411Y-113954819D01*
X102960839Y-114954819D02*
X102532268Y-114383390D01*
X102960839Y-113954819D02*
X102389411Y-114526247D01*
X103109580Y-117416666D02*
X103157200Y-117464285D01*
X103157200Y-117464285D02*
X103204819Y-117607142D01*
X103204819Y-117607142D02*
X103204819Y-117702380D01*
X103204819Y-117702380D02*
X103157200Y-117845237D01*
X103157200Y-117845237D02*
X103061961Y-117940475D01*
X103061961Y-117940475D02*
X102966723Y-117988094D01*
X102966723Y-117988094D02*
X102776247Y-118035713D01*
X102776247Y-118035713D02*
X102633390Y-118035713D01*
X102633390Y-118035713D02*
X102442914Y-117988094D01*
X102442914Y-117988094D02*
X102347676Y-117940475D01*
X102347676Y-117940475D02*
X102252438Y-117845237D01*
X102252438Y-117845237D02*
X102204819Y-117702380D01*
X102204819Y-117702380D02*
X102204819Y-117607142D01*
X102204819Y-117607142D02*
X102252438Y-117464285D01*
X102252438Y-117464285D02*
X102300057Y-117416666D01*
X102300057Y-117035713D02*
X102252438Y-116988094D01*
X102252438Y-116988094D02*
X102204819Y-116892856D01*
X102204819Y-116892856D02*
X102204819Y-116654761D01*
X102204819Y-116654761D02*
X102252438Y-116559523D01*
X102252438Y-116559523D02*
X102300057Y-116511904D01*
X102300057Y-116511904D02*
X102395295Y-116464285D01*
X102395295Y-116464285D02*
X102490533Y-116464285D01*
X102490533Y-116464285D02*
X102633390Y-116511904D01*
X102633390Y-116511904D02*
X103204819Y-117083332D01*
X103204819Y-117083332D02*
X103204819Y-116464285D01*
X85295180Y-108083332D02*
X85295180Y-107607142D01*
X85295180Y-107607142D02*
X86295180Y-107607142D01*
X85295180Y-108940475D02*
X85295180Y-108369047D01*
X85295180Y-108654761D02*
X86295180Y-108654761D01*
X86295180Y-108654761D02*
X86152323Y-108559523D01*
X86152323Y-108559523D02*
X86057085Y-108464285D01*
X86057085Y-108464285D02*
X86009466Y-108369047D01*
X93060543Y-142203754D02*
X93161558Y-141631335D01*
X92656482Y-141799693D02*
X93363589Y-141092587D01*
X93363589Y-141092587D02*
X93632963Y-141361961D01*
X93632963Y-141361961D02*
X93666635Y-141462976D01*
X93666635Y-141462976D02*
X93666635Y-141530319D01*
X93666635Y-141530319D02*
X93632963Y-141631335D01*
X93632963Y-141631335D02*
X93531948Y-141732350D01*
X93531948Y-141732350D02*
X93430932Y-141766022D01*
X93430932Y-141766022D02*
X93363589Y-141766022D01*
X93363589Y-141766022D02*
X93262574Y-141732350D01*
X93262574Y-141732350D02*
X92993200Y-141462976D01*
X94373741Y-142102739D02*
X94239054Y-141968052D01*
X94239054Y-141968052D02*
X94138039Y-141934380D01*
X94138039Y-141934380D02*
X94070696Y-141934380D01*
X94070696Y-141934380D02*
X93902337Y-141968052D01*
X93902337Y-141968052D02*
X93733978Y-142069067D01*
X93733978Y-142069067D02*
X93464604Y-142338441D01*
X93464604Y-142338441D02*
X93430932Y-142439457D01*
X93430932Y-142439457D02*
X93430932Y-142506800D01*
X93430932Y-142506800D02*
X93464604Y-142607815D01*
X93464604Y-142607815D02*
X93599291Y-142742502D01*
X93599291Y-142742502D02*
X93700306Y-142776174D01*
X93700306Y-142776174D02*
X93767650Y-142776174D01*
X93767650Y-142776174D02*
X93868665Y-142742502D01*
X93868665Y-142742502D02*
X94037024Y-142574144D01*
X94037024Y-142574144D02*
X94070696Y-142473128D01*
X94070696Y-142473128D02*
X94070696Y-142405785D01*
X94070696Y-142405785D02*
X94037024Y-142304770D01*
X94037024Y-142304770D02*
X93902337Y-142170083D01*
X93902337Y-142170083D02*
X93801322Y-142136411D01*
X93801322Y-142136411D02*
X93733978Y-142136411D01*
X93733978Y-142136411D02*
X93632963Y-142170083D01*
X94560543Y-140703754D02*
X94661558Y-140131335D01*
X94156482Y-140299693D02*
X94863589Y-139592587D01*
X94863589Y-139592587D02*
X95132963Y-139861961D01*
X95132963Y-139861961D02*
X95166635Y-139962976D01*
X95166635Y-139962976D02*
X95166635Y-140030319D01*
X95166635Y-140030319D02*
X95132963Y-140131335D01*
X95132963Y-140131335D02*
X95031948Y-140232350D01*
X95031948Y-140232350D02*
X94930932Y-140266022D01*
X94930932Y-140266022D02*
X94863589Y-140266022D01*
X94863589Y-140266022D02*
X94762574Y-140232350D01*
X94762574Y-140232350D02*
X94493200Y-139962976D01*
X95907413Y-140636411D02*
X95570696Y-140299693D01*
X95570696Y-140299693D02*
X95200306Y-140602739D01*
X95200306Y-140602739D02*
X95267650Y-140602739D01*
X95267650Y-140602739D02*
X95368665Y-140636411D01*
X95368665Y-140636411D02*
X95537024Y-140804770D01*
X95537024Y-140804770D02*
X95570696Y-140905785D01*
X95570696Y-140905785D02*
X95570696Y-140973128D01*
X95570696Y-140973128D02*
X95537024Y-141074144D01*
X95537024Y-141074144D02*
X95368665Y-141242502D01*
X95368665Y-141242502D02*
X95267650Y-141276174D01*
X95267650Y-141276174D02*
X95200306Y-141276174D01*
X95200306Y-141276174D02*
X95099291Y-141242502D01*
X95099291Y-141242502D02*
X94930932Y-141074144D01*
X94930932Y-141074144D02*
X94897261Y-140973128D01*
X94897261Y-140973128D02*
X94897261Y-140905785D01*
X79463805Y-114429405D02*
X78891385Y-114328390D01*
X79059744Y-114833466D02*
X78352637Y-114126359D01*
X78352637Y-114126359D02*
X78622011Y-113856985D01*
X78622011Y-113856985D02*
X78723027Y-113823314D01*
X78723027Y-113823314D02*
X78790370Y-113823314D01*
X78790370Y-113823314D02*
X78891385Y-113856985D01*
X78891385Y-113856985D02*
X78992401Y-113958001D01*
X78992401Y-113958001D02*
X79026072Y-114059016D01*
X79026072Y-114059016D02*
X79026072Y-114126359D01*
X79026072Y-114126359D02*
X78992401Y-114227375D01*
X78992401Y-114227375D02*
X78723027Y-114496749D01*
X79093416Y-113520268D02*
X79093416Y-113452924D01*
X79093416Y-113452924D02*
X79127088Y-113351909D01*
X79127088Y-113351909D02*
X79295446Y-113183550D01*
X79295446Y-113183550D02*
X79396462Y-113149879D01*
X79396462Y-113149879D02*
X79463805Y-113149879D01*
X79463805Y-113149879D02*
X79564820Y-113183550D01*
X79564820Y-113183550D02*
X79632164Y-113250894D01*
X79632164Y-113250894D02*
X79699507Y-113385581D01*
X79699507Y-113385581D02*
X79699507Y-114193703D01*
X79699507Y-114193703D02*
X80137240Y-113755970D01*
X97560543Y-137703754D02*
X97661558Y-137131335D01*
X97156482Y-137299693D02*
X97863589Y-136592587D01*
X97863589Y-136592587D02*
X98132963Y-136861961D01*
X98132963Y-136861961D02*
X98166635Y-136962976D01*
X98166635Y-136962976D02*
X98166635Y-137030319D01*
X98166635Y-137030319D02*
X98132963Y-137131335D01*
X98132963Y-137131335D02*
X98031948Y-137232350D01*
X98031948Y-137232350D02*
X97930932Y-137266022D01*
X97930932Y-137266022D02*
X97863589Y-137266022D01*
X97863589Y-137266022D02*
X97762574Y-137232350D01*
X97762574Y-137232350D02*
X97493200Y-136962976D01*
X98503352Y-137232350D02*
X98941085Y-137670083D01*
X98941085Y-137670083D02*
X98436009Y-137703754D01*
X98436009Y-137703754D02*
X98537024Y-137804770D01*
X98537024Y-137804770D02*
X98570696Y-137905785D01*
X98570696Y-137905785D02*
X98570696Y-137973128D01*
X98570696Y-137973128D02*
X98537024Y-138074144D01*
X98537024Y-138074144D02*
X98368665Y-138242502D01*
X98368665Y-138242502D02*
X98267650Y-138276174D01*
X98267650Y-138276174D02*
X98200306Y-138276174D01*
X98200306Y-138276174D02*
X98099291Y-138242502D01*
X98099291Y-138242502D02*
X97897261Y-138040472D01*
X97897261Y-138040472D02*
X97863589Y-137939457D01*
X97863589Y-137939457D02*
X97863589Y-137872113D01*
X102764414Y-133250116D02*
X102191995Y-133149101D01*
X102360353Y-133654177D02*
X101653247Y-132947070D01*
X101653247Y-132947070D02*
X101922621Y-132677696D01*
X101922621Y-132677696D02*
X102023636Y-132644024D01*
X102023636Y-132644024D02*
X102090979Y-132644024D01*
X102090979Y-132644024D02*
X102191995Y-132677696D01*
X102191995Y-132677696D02*
X102293010Y-132778711D01*
X102293010Y-132778711D02*
X102326682Y-132879727D01*
X102326682Y-132879727D02*
X102326682Y-132947070D01*
X102326682Y-132947070D02*
X102293010Y-133048085D01*
X102293010Y-133048085D02*
X102023636Y-133317459D01*
X102764414Y-132441994D02*
X102663399Y-132475666D01*
X102663399Y-132475666D02*
X102596056Y-132475666D01*
X102596056Y-132475666D02*
X102495040Y-132441994D01*
X102495040Y-132441994D02*
X102461369Y-132408322D01*
X102461369Y-132408322D02*
X102427697Y-132307307D01*
X102427697Y-132307307D02*
X102427697Y-132239963D01*
X102427697Y-132239963D02*
X102461369Y-132138948D01*
X102461369Y-132138948D02*
X102596056Y-132004261D01*
X102596056Y-132004261D02*
X102697071Y-131970589D01*
X102697071Y-131970589D02*
X102764414Y-131970589D01*
X102764414Y-131970589D02*
X102865430Y-132004261D01*
X102865430Y-132004261D02*
X102899101Y-132037933D01*
X102899101Y-132037933D02*
X102932773Y-132138948D01*
X102932773Y-132138948D02*
X102932773Y-132206292D01*
X102932773Y-132206292D02*
X102899101Y-132307307D01*
X102899101Y-132307307D02*
X102764414Y-132441994D01*
X102764414Y-132441994D02*
X102730743Y-132543009D01*
X102730743Y-132543009D02*
X102730743Y-132610353D01*
X102730743Y-132610353D02*
X102764414Y-132711368D01*
X102764414Y-132711368D02*
X102899101Y-132846055D01*
X102899101Y-132846055D02*
X103000117Y-132879727D01*
X103000117Y-132879727D02*
X103067460Y-132879727D01*
X103067460Y-132879727D02*
X103168475Y-132846055D01*
X103168475Y-132846055D02*
X103303162Y-132711368D01*
X103303162Y-132711368D02*
X103336834Y-132610353D01*
X103336834Y-132610353D02*
X103336834Y-132543009D01*
X103336834Y-132543009D02*
X103303162Y-132441994D01*
X103303162Y-132441994D02*
X103168475Y-132307307D01*
X103168475Y-132307307D02*
X103067460Y-132273635D01*
X103067460Y-132273635D02*
X103000117Y-132273635D01*
X103000117Y-132273635D02*
X102899101Y-132307307D01*
X89704819Y-108238094D02*
X88704819Y-108238094D01*
X88704819Y-108238094D02*
X88704819Y-107999999D01*
X88704819Y-107999999D02*
X88752438Y-107857142D01*
X88752438Y-107857142D02*
X88847676Y-107761904D01*
X88847676Y-107761904D02*
X88942914Y-107714285D01*
X88942914Y-107714285D02*
X89133390Y-107666666D01*
X89133390Y-107666666D02*
X89276247Y-107666666D01*
X89276247Y-107666666D02*
X89466723Y-107714285D01*
X89466723Y-107714285D02*
X89561961Y-107761904D01*
X89561961Y-107761904D02*
X89657200Y-107857142D01*
X89657200Y-107857142D02*
X89704819Y-107999999D01*
X89704819Y-107999999D02*
X89704819Y-108238094D01*
X89704819Y-106714285D02*
X89704819Y-107285713D01*
X89704819Y-106999999D02*
X88704819Y-106999999D01*
X88704819Y-106999999D02*
X88847676Y-107095237D01*
X88847676Y-107095237D02*
X88942914Y-107190475D01*
X88942914Y-107190475D02*
X88990533Y-107285713D01*
X72499883Y-124764414D02*
X72600898Y-124191995D01*
X72095822Y-124360353D02*
X72802929Y-123653247D01*
X72802929Y-123653247D02*
X73072303Y-123922621D01*
X73072303Y-123922621D02*
X73105975Y-124023636D01*
X73105975Y-124023636D02*
X73105975Y-124090979D01*
X73105975Y-124090979D02*
X73072303Y-124191995D01*
X73072303Y-124191995D02*
X72971288Y-124293010D01*
X72971288Y-124293010D02*
X72870272Y-124326682D01*
X72870272Y-124326682D02*
X72802929Y-124326682D01*
X72802929Y-124326682D02*
X72701914Y-124293010D01*
X72701914Y-124293010D02*
X72432540Y-124023636D01*
X73577379Y-124899101D02*
X73105975Y-125370506D01*
X73678394Y-124461369D02*
X73004959Y-124798086D01*
X73004959Y-124798086D02*
X73442692Y-125235819D01*
X84357142Y-114454819D02*
X84023809Y-113978628D01*
X83785714Y-114454819D02*
X83785714Y-113454819D01*
X83785714Y-113454819D02*
X84166666Y-113454819D01*
X84166666Y-113454819D02*
X84261904Y-113502438D01*
X84261904Y-113502438D02*
X84309523Y-113550057D01*
X84309523Y-113550057D02*
X84357142Y-113645295D01*
X84357142Y-113645295D02*
X84357142Y-113788152D01*
X84357142Y-113788152D02*
X84309523Y-113883390D01*
X84309523Y-113883390D02*
X84261904Y-113931009D01*
X84261904Y-113931009D02*
X84166666Y-113978628D01*
X84166666Y-113978628D02*
X83785714Y-113978628D01*
X85309523Y-114454819D02*
X84738095Y-114454819D01*
X85023809Y-114454819D02*
X85023809Y-113454819D01*
X85023809Y-113454819D02*
X84928571Y-113597676D01*
X84928571Y-113597676D02*
X84833333Y-113692914D01*
X84833333Y-113692914D02*
X84738095Y-113740533D01*
X85928571Y-113454819D02*
X86023809Y-113454819D01*
X86023809Y-113454819D02*
X86119047Y-113502438D01*
X86119047Y-113502438D02*
X86166666Y-113550057D01*
X86166666Y-113550057D02*
X86214285Y-113645295D01*
X86214285Y-113645295D02*
X86261904Y-113835771D01*
X86261904Y-113835771D02*
X86261904Y-114073866D01*
X86261904Y-114073866D02*
X86214285Y-114264342D01*
X86214285Y-114264342D02*
X86166666Y-114359580D01*
X86166666Y-114359580D02*
X86119047Y-114407200D01*
X86119047Y-114407200D02*
X86023809Y-114454819D01*
X86023809Y-114454819D02*
X85928571Y-114454819D01*
X85928571Y-114454819D02*
X85833333Y-114407200D01*
X85833333Y-114407200D02*
X85785714Y-114359580D01*
X85785714Y-114359580D02*
X85738095Y-114264342D01*
X85738095Y-114264342D02*
X85690476Y-114073866D01*
X85690476Y-114073866D02*
X85690476Y-113835771D01*
X85690476Y-113835771D02*
X85738095Y-113645295D01*
X85738095Y-113645295D02*
X85785714Y-113550057D01*
X85785714Y-113550057D02*
X85833333Y-113502438D01*
X85833333Y-113502438D02*
X85928571Y-113454819D01*
X84766184Y-124989949D02*
X85338604Y-125562369D01*
X85338604Y-125562369D02*
X85439619Y-125596041D01*
X85439619Y-125596041D02*
X85506963Y-125596041D01*
X85506963Y-125596041D02*
X85607978Y-125562369D01*
X85607978Y-125562369D02*
X85742665Y-125427682D01*
X85742665Y-125427682D02*
X85776337Y-125326667D01*
X85776337Y-125326667D02*
X85776337Y-125259323D01*
X85776337Y-125259323D02*
X85742665Y-125158308D01*
X85742665Y-125158308D02*
X85170245Y-124585888D01*
X85540635Y-124350186D02*
X85540635Y-124282843D01*
X85540635Y-124282843D02*
X85574306Y-124181827D01*
X85574306Y-124181827D02*
X85742665Y-124013469D01*
X85742665Y-124013469D02*
X85843680Y-123979797D01*
X85843680Y-123979797D02*
X85911024Y-123979797D01*
X85911024Y-123979797D02*
X86012039Y-124013469D01*
X86012039Y-124013469D02*
X86079383Y-124080812D01*
X86079383Y-124080812D02*
X86146726Y-124215499D01*
X86146726Y-124215499D02*
X86146726Y-125023621D01*
X86146726Y-125023621D02*
X86584459Y-124585888D01*
X75846725Y-132253215D02*
X76553832Y-131546109D01*
X76553832Y-131546109D02*
X76250786Y-132657277D01*
X76250786Y-132657277D02*
X76957893Y-131950170D01*
X76688519Y-133095009D02*
X76654847Y-132993994D01*
X76654847Y-132993994D02*
X76654847Y-132926650D01*
X76654847Y-132926650D02*
X76688519Y-132825635D01*
X76688519Y-132825635D02*
X76890549Y-132623605D01*
X76890549Y-132623605D02*
X76991565Y-132589933D01*
X76991565Y-132589933D02*
X77058908Y-132589933D01*
X77058908Y-132589933D02*
X77159923Y-132623605D01*
X77159923Y-132623605D02*
X77260939Y-132724620D01*
X77260939Y-132724620D02*
X77294610Y-132825635D01*
X77294610Y-132825635D02*
X77294610Y-132892979D01*
X77294610Y-132892979D02*
X77260939Y-132993994D01*
X77260939Y-132993994D02*
X77058908Y-133196024D01*
X77058908Y-133196024D02*
X76957893Y-133229696D01*
X76957893Y-133229696D02*
X76890549Y-133229696D01*
X76890549Y-133229696D02*
X76789534Y-133196024D01*
X76789534Y-133196024D02*
X76688519Y-133095009D01*
X78237420Y-134509223D02*
X78170076Y-134509223D01*
X78170076Y-134509223D02*
X78035389Y-134441880D01*
X78035389Y-134441880D02*
X77968046Y-134374536D01*
X77968046Y-134374536D02*
X77900702Y-134239849D01*
X77900702Y-134239849D02*
X77900702Y-134105162D01*
X77900702Y-134105162D02*
X77934374Y-134004147D01*
X77934374Y-134004147D02*
X78035389Y-133835788D01*
X78035389Y-133835788D02*
X78136405Y-133734773D01*
X78136405Y-133734773D02*
X78304763Y-133633757D01*
X78304763Y-133633757D02*
X78405779Y-133600086D01*
X78405779Y-133600086D02*
X78540466Y-133600086D01*
X78540466Y-133600086D02*
X78675153Y-133667429D01*
X78675153Y-133667429D02*
X78742496Y-133734773D01*
X78742496Y-133734773D02*
X78809840Y-133869460D01*
X78809840Y-133869460D02*
X78809840Y-133936803D01*
X78574137Y-134980628D02*
X78540466Y-134879612D01*
X78540466Y-134879612D02*
X78540466Y-134812269D01*
X78540466Y-134812269D02*
X78574137Y-134711254D01*
X78574137Y-134711254D02*
X78776168Y-134509223D01*
X78776168Y-134509223D02*
X78877183Y-134475551D01*
X78877183Y-134475551D02*
X78944527Y-134475551D01*
X78944527Y-134475551D02*
X79045542Y-134509223D01*
X79045542Y-134509223D02*
X79146557Y-134610238D01*
X79146557Y-134610238D02*
X79180229Y-134711254D01*
X79180229Y-134711254D02*
X79180229Y-134778597D01*
X79180229Y-134778597D02*
X79146557Y-134879612D01*
X79146557Y-134879612D02*
X78944527Y-135081643D01*
X78944527Y-135081643D02*
X78843511Y-135115315D01*
X78843511Y-135115315D02*
X78776168Y-135115315D01*
X78776168Y-135115315D02*
X78675153Y-135081643D01*
X78675153Y-135081643D02*
X78574137Y-134980628D01*
X79584290Y-135047971D02*
X78877183Y-135755078D01*
X79550618Y-135081643D02*
X79651633Y-135115315D01*
X79651633Y-135115315D02*
X79786320Y-135250002D01*
X79786320Y-135250002D02*
X79819992Y-135351017D01*
X79819992Y-135351017D02*
X79819992Y-135418360D01*
X79819992Y-135418360D02*
X79786320Y-135519376D01*
X79786320Y-135519376D02*
X79584290Y-135721406D01*
X79584290Y-135721406D02*
X79483275Y-135755078D01*
X79483275Y-135755078D02*
X79415931Y-135755078D01*
X79415931Y-135755078D02*
X79314916Y-135721406D01*
X79314916Y-135721406D02*
X79180229Y-135586719D01*
X79180229Y-135586719D02*
X79146557Y-135485704D01*
X80224053Y-135687734D02*
X79516946Y-136394841D01*
X80190381Y-135721406D02*
X80291397Y-135755078D01*
X80291397Y-135755078D02*
X80426084Y-135889765D01*
X80426084Y-135889765D02*
X80459756Y-135990780D01*
X80459756Y-135990780D02*
X80459756Y-136058124D01*
X80459756Y-136058124D02*
X80426084Y-136159139D01*
X80426084Y-136159139D02*
X80224053Y-136361170D01*
X80224053Y-136361170D02*
X80123038Y-136394841D01*
X80123038Y-136394841D02*
X80055694Y-136394841D01*
X80055694Y-136394841D02*
X79954679Y-136361170D01*
X79954679Y-136361170D02*
X79819992Y-136226482D01*
X79819992Y-136226482D02*
X79786320Y-136125467D01*
X80695458Y-137034605D02*
X80594443Y-137000933D01*
X80594443Y-137000933D02*
X80459756Y-136866246D01*
X80459756Y-136866246D02*
X80426084Y-136765231D01*
X80426084Y-136765231D02*
X80459756Y-136664215D01*
X80459756Y-136664215D02*
X80729130Y-136394841D01*
X80729130Y-136394841D02*
X80830145Y-136361170D01*
X80830145Y-136361170D02*
X80931160Y-136394841D01*
X80931160Y-136394841D02*
X81065847Y-136529528D01*
X81065847Y-136529528D02*
X81099519Y-136630544D01*
X81099519Y-136630544D02*
X81065847Y-136731559D01*
X81065847Y-136731559D02*
X80998504Y-136798902D01*
X80998504Y-136798902D02*
X80594443Y-136529528D01*
X80998504Y-137404994D02*
X81469908Y-136933589D01*
X81335221Y-137068276D02*
X81436236Y-137034605D01*
X81436236Y-137034605D02*
X81503580Y-137034605D01*
X81503580Y-137034605D02*
X81604595Y-137068276D01*
X81604595Y-137068276D02*
X81671939Y-137135620D01*
X100522806Y-131350302D02*
X101095226Y-131922722D01*
X101095226Y-131922722D02*
X101196241Y-131956394D01*
X101196241Y-131956394D02*
X101263585Y-131956394D01*
X101263585Y-131956394D02*
X101364600Y-131922722D01*
X101364600Y-131922722D02*
X101499287Y-131788035D01*
X101499287Y-131788035D02*
X101532959Y-131687020D01*
X101532959Y-131687020D02*
X101532959Y-131619676D01*
X101532959Y-131619676D02*
X101499287Y-131518661D01*
X101499287Y-131518661D02*
X100926867Y-130946241D01*
X101196241Y-130676867D02*
X101633974Y-130239135D01*
X101633974Y-130239135D02*
X101667646Y-130744211D01*
X101667646Y-130744211D02*
X101768661Y-130643196D01*
X101768661Y-130643196D02*
X101869676Y-130609524D01*
X101869676Y-130609524D02*
X101937020Y-130609524D01*
X101937020Y-130609524D02*
X102038035Y-130643196D01*
X102038035Y-130643196D02*
X102206394Y-130811554D01*
X102206394Y-130811554D02*
X102240066Y-130912570D01*
X102240066Y-130912570D02*
X102240066Y-130979913D01*
X102240066Y-130979913D02*
X102206394Y-131080928D01*
X102206394Y-131080928D02*
X102004363Y-131282959D01*
X102004363Y-131282959D02*
X101903348Y-131316631D01*
X101903348Y-131316631D02*
X101836005Y-131316631D01*
X98177904Y-132102945D02*
X98177904Y-132170289D01*
X98177904Y-132170289D02*
X98110560Y-132304976D01*
X98110560Y-132304976D02*
X98043217Y-132372319D01*
X98043217Y-132372319D02*
X97908530Y-132439663D01*
X97908530Y-132439663D02*
X97773843Y-132439663D01*
X97773843Y-132439663D02*
X97672828Y-132405991D01*
X97672828Y-132405991D02*
X97504469Y-132304976D01*
X97504469Y-132304976D02*
X97403454Y-132203961D01*
X97403454Y-132203961D02*
X97302438Y-132035602D01*
X97302438Y-132035602D02*
X97268767Y-131934587D01*
X97268767Y-131934587D02*
X97268767Y-131799900D01*
X97268767Y-131799900D02*
X97336110Y-131665213D01*
X97336110Y-131665213D02*
X97403454Y-131597869D01*
X97403454Y-131597869D02*
X97538141Y-131530526D01*
X97538141Y-131530526D02*
X97605484Y-131530526D01*
X97773843Y-131227480D02*
X98245247Y-130756075D01*
X98245247Y-130756075D02*
X98649308Y-131766228D01*
X101858720Y-126094918D02*
X101791376Y-126094918D01*
X101791376Y-126094918D02*
X101656689Y-126027574D01*
X101656689Y-126027574D02*
X101589346Y-125960231D01*
X101589346Y-125960231D02*
X101522002Y-125825544D01*
X101522002Y-125825544D02*
X101522002Y-125690857D01*
X101522002Y-125690857D02*
X101555674Y-125589842D01*
X101555674Y-125589842D02*
X101656689Y-125421483D01*
X101656689Y-125421483D02*
X101757704Y-125320468D01*
X101757704Y-125320468D02*
X101926063Y-125219452D01*
X101926063Y-125219452D02*
X102027078Y-125185781D01*
X102027078Y-125185781D02*
X102161765Y-125185781D01*
X102161765Y-125185781D02*
X102296452Y-125253124D01*
X102296452Y-125253124D02*
X102363796Y-125320468D01*
X102363796Y-125320468D02*
X102431139Y-125455155D01*
X102431139Y-125455155D02*
X102431139Y-125522498D01*
X103104574Y-126061246D02*
X102969887Y-125926559D01*
X102969887Y-125926559D02*
X102868872Y-125892887D01*
X102868872Y-125892887D02*
X102801529Y-125892887D01*
X102801529Y-125892887D02*
X102633170Y-125926559D01*
X102633170Y-125926559D02*
X102464811Y-126027574D01*
X102464811Y-126027574D02*
X102195437Y-126296948D01*
X102195437Y-126296948D02*
X102161765Y-126397964D01*
X102161765Y-126397964D02*
X102161765Y-126465307D01*
X102161765Y-126465307D02*
X102195437Y-126566322D01*
X102195437Y-126566322D02*
X102330124Y-126701009D01*
X102330124Y-126701009D02*
X102431139Y-126734681D01*
X102431139Y-126734681D02*
X102498483Y-126734681D01*
X102498483Y-126734681D02*
X102599498Y-126701009D01*
X102599498Y-126701009D02*
X102767857Y-126532651D01*
X102767857Y-126532651D02*
X102801529Y-126431635D01*
X102801529Y-126431635D02*
X102801529Y-126364292D01*
X102801529Y-126364292D02*
X102767857Y-126263277D01*
X102767857Y-126263277D02*
X102633170Y-126128590D01*
X102633170Y-126128590D02*
X102532155Y-126094918D01*
X102532155Y-126094918D02*
X102464811Y-126094918D01*
X102464811Y-126094918D02*
X102363796Y-126128590D01*
X71796066Y-119732528D02*
X71290990Y-120237604D01*
X71290990Y-120237604D02*
X71156303Y-120304948D01*
X71156303Y-120304948D02*
X71021616Y-120304948D01*
X71021616Y-120304948D02*
X70886929Y-120237604D01*
X70886929Y-120237604D02*
X70819585Y-120170261D01*
X72031769Y-120102917D02*
X72099112Y-120102917D01*
X72099112Y-120102917D02*
X72200127Y-120136589D01*
X72200127Y-120136589D02*
X72368486Y-120304948D01*
X72368486Y-120304948D02*
X72402158Y-120405963D01*
X72402158Y-120405963D02*
X72402158Y-120473307D01*
X72402158Y-120473307D02*
X72368486Y-120574322D01*
X72368486Y-120574322D02*
X72301143Y-120641665D01*
X72301143Y-120641665D02*
X72166456Y-120709009D01*
X72166456Y-120709009D02*
X71358334Y-120709009D01*
X71358334Y-120709009D02*
X71796066Y-121146742D01*
X100009579Y-112916666D02*
X100057199Y-112964285D01*
X100057199Y-112964285D02*
X100104818Y-113107142D01*
X100104818Y-113107142D02*
X100104818Y-113202380D01*
X100104818Y-113202380D02*
X100057199Y-113345237D01*
X100057199Y-113345237D02*
X99961960Y-113440475D01*
X99961960Y-113440475D02*
X99866722Y-113488094D01*
X99866722Y-113488094D02*
X99676246Y-113535713D01*
X99676246Y-113535713D02*
X99533389Y-113535713D01*
X99533389Y-113535713D02*
X99342913Y-113488094D01*
X99342913Y-113488094D02*
X99247675Y-113440475D01*
X99247675Y-113440475D02*
X99152437Y-113345237D01*
X99152437Y-113345237D02*
X99104818Y-113202380D01*
X99104818Y-113202380D02*
X99104818Y-113107142D01*
X99104818Y-113107142D02*
X99152437Y-112964285D01*
X99152437Y-112964285D02*
X99200056Y-112916666D01*
X99438151Y-112059523D02*
X100104818Y-112059523D01*
X99057199Y-112297618D02*
X99771484Y-112535713D01*
X99771484Y-112535713D02*
X99771484Y-111916666D01*
X95357142Y-118034819D02*
X95023809Y-117558628D01*
X94785714Y-118034819D02*
X94785714Y-117034819D01*
X94785714Y-117034819D02*
X95166666Y-117034819D01*
X95166666Y-117034819D02*
X95261904Y-117082438D01*
X95261904Y-117082438D02*
X95309523Y-117130057D01*
X95309523Y-117130057D02*
X95357142Y-117225295D01*
X95357142Y-117225295D02*
X95357142Y-117368152D01*
X95357142Y-117368152D02*
X95309523Y-117463390D01*
X95309523Y-117463390D02*
X95261904Y-117511009D01*
X95261904Y-117511009D02*
X95166666Y-117558628D01*
X95166666Y-117558628D02*
X94785714Y-117558628D01*
X96309523Y-118034819D02*
X95738095Y-118034819D01*
X96023809Y-118034819D02*
X96023809Y-117034819D01*
X96023809Y-117034819D02*
X95928571Y-117177676D01*
X95928571Y-117177676D02*
X95833333Y-117272914D01*
X95833333Y-117272914D02*
X95738095Y-117320533D01*
X97261904Y-118034819D02*
X96690476Y-118034819D01*
X96976190Y-118034819D02*
X96976190Y-117034819D01*
X96976190Y-117034819D02*
X96880952Y-117177676D01*
X96880952Y-117177676D02*
X96785714Y-117272914D01*
X96785714Y-117272914D02*
X96690476Y-117320533D01*
X96204819Y-121511904D02*
X97014342Y-121511904D01*
X97014342Y-121511904D02*
X97109580Y-121464285D01*
X97109580Y-121464285D02*
X97157200Y-121416666D01*
X97157200Y-121416666D02*
X97204819Y-121321428D01*
X97204819Y-121321428D02*
X97204819Y-121130952D01*
X97204819Y-121130952D02*
X97157200Y-121035714D01*
X97157200Y-121035714D02*
X97109580Y-120988095D01*
X97109580Y-120988095D02*
X97014342Y-120940476D01*
X97014342Y-120940476D02*
X96204819Y-120940476D01*
X96538152Y-120035714D02*
X97204819Y-120035714D01*
X96157200Y-120273809D02*
X96871485Y-120511904D01*
X96871485Y-120511904D02*
X96871485Y-119892857D01*
X79550492Y-112193703D02*
X79651507Y-111621283D01*
X79146431Y-111789642D02*
X79853537Y-111082535D01*
X79853537Y-111082535D02*
X80122911Y-111351909D01*
X80122911Y-111351909D02*
X80156583Y-111452924D01*
X80156583Y-111452924D02*
X80156583Y-111520268D01*
X80156583Y-111520268D02*
X80122911Y-111621283D01*
X80122911Y-111621283D02*
X80021896Y-111722298D01*
X80021896Y-111722298D02*
X79920881Y-111755970D01*
X79920881Y-111755970D02*
X79853537Y-111755970D01*
X79853537Y-111755970D02*
X79752522Y-111722298D01*
X79752522Y-111722298D02*
X79483148Y-111452924D01*
X80223927Y-112867138D02*
X79819866Y-112463077D01*
X80021896Y-112665107D02*
X80729003Y-111958001D01*
X80729003Y-111958001D02*
X80560644Y-111991672D01*
X80560644Y-111991672D02*
X80425957Y-111991672D01*
X80425957Y-111991672D02*
X80324942Y-111958001D01*
X90949580Y-112916666D02*
X90997200Y-112964285D01*
X90997200Y-112964285D02*
X91044819Y-113107142D01*
X91044819Y-113107142D02*
X91044819Y-113202380D01*
X91044819Y-113202380D02*
X90997200Y-113345237D01*
X90997200Y-113345237D02*
X90901961Y-113440475D01*
X90901961Y-113440475D02*
X90806723Y-113488094D01*
X90806723Y-113488094D02*
X90616247Y-113535713D01*
X90616247Y-113535713D02*
X90473390Y-113535713D01*
X90473390Y-113535713D02*
X90282914Y-113488094D01*
X90282914Y-113488094D02*
X90187676Y-113440475D01*
X90187676Y-113440475D02*
X90092438Y-113345237D01*
X90092438Y-113345237D02*
X90044819Y-113202380D01*
X90044819Y-113202380D02*
X90044819Y-113107142D01*
X90044819Y-113107142D02*
X90092438Y-112964285D01*
X90092438Y-112964285D02*
X90140057Y-112916666D01*
X90044819Y-112583332D02*
X90044819Y-111964285D01*
X90044819Y-111964285D02*
X90425771Y-112297618D01*
X90425771Y-112297618D02*
X90425771Y-112154761D01*
X90425771Y-112154761D02*
X90473390Y-112059523D01*
X90473390Y-112059523D02*
X90521009Y-112011904D01*
X90521009Y-112011904D02*
X90616247Y-111964285D01*
X90616247Y-111964285D02*
X90854342Y-111964285D01*
X90854342Y-111964285D02*
X90949580Y-112011904D01*
X90949580Y-112011904D02*
X90997200Y-112059523D01*
X90997200Y-112059523D02*
X91044819Y-112154761D01*
X91044819Y-112154761D02*
X91044819Y-112440475D01*
X91044819Y-112440475D02*
X90997200Y-112535713D01*
X90997200Y-112535713D02*
X90949580Y-112583332D01*
X96060543Y-139203754D02*
X96161558Y-138631335D01*
X95656482Y-138799693D02*
X96363589Y-138092587D01*
X96363589Y-138092587D02*
X96632963Y-138361961D01*
X96632963Y-138361961D02*
X96666635Y-138462976D01*
X96666635Y-138462976D02*
X96666635Y-138530319D01*
X96666635Y-138530319D02*
X96632963Y-138631335D01*
X96632963Y-138631335D02*
X96531948Y-138732350D01*
X96531948Y-138732350D02*
X96430932Y-138766022D01*
X96430932Y-138766022D02*
X96363589Y-138766022D01*
X96363589Y-138766022D02*
X96262574Y-138732350D01*
X96262574Y-138732350D02*
X95993200Y-138462976D01*
X97003352Y-138732350D02*
X97474757Y-139203754D01*
X97474757Y-139203754D02*
X96464604Y-139607815D01*
X95588095Y-111004819D02*
X95588095Y-111814342D01*
X95588095Y-111814342D02*
X95635714Y-111909580D01*
X95635714Y-111909580D02*
X95683333Y-111957200D01*
X95683333Y-111957200D02*
X95778571Y-112004819D01*
X95778571Y-112004819D02*
X95969047Y-112004819D01*
X95969047Y-112004819D02*
X96064285Y-111957200D01*
X96064285Y-111957200D02*
X96111904Y-111909580D01*
X96111904Y-111909580D02*
X96159523Y-111814342D01*
X96159523Y-111814342D02*
X96159523Y-111004819D01*
X97159523Y-112004819D02*
X96588095Y-112004819D01*
X96873809Y-112004819D02*
X96873809Y-111004819D01*
X96873809Y-111004819D02*
X96778571Y-111147676D01*
X96778571Y-111147676D02*
X96683333Y-111242914D01*
X96683333Y-111242914D02*
X96588095Y-111290533D01*
X96624549Y-132259236D02*
X96523534Y-132292908D01*
X96523534Y-132292908D02*
X96388847Y-132292908D01*
X96388847Y-132292908D02*
X96186816Y-132292908D01*
X96186816Y-132292908D02*
X96085801Y-132326580D01*
X96085801Y-132326580D02*
X96018458Y-132393923D01*
X96220488Y-132528610D02*
X96119473Y-132562282D01*
X96119473Y-132562282D02*
X95984786Y-132562282D01*
X95984786Y-132562282D02*
X95816427Y-132461267D01*
X95816427Y-132461267D02*
X95580725Y-132225564D01*
X95580725Y-132225564D02*
X95479710Y-132057206D01*
X95479710Y-132057206D02*
X95479710Y-131922519D01*
X95479710Y-131922519D02*
X95513381Y-131821503D01*
X95513381Y-131821503D02*
X95648068Y-131686816D01*
X95648068Y-131686816D02*
X95749084Y-131653145D01*
X95749084Y-131653145D02*
X95883771Y-131653145D01*
X95883771Y-131653145D02*
X96052129Y-131754160D01*
X96052129Y-131754160D02*
X96287832Y-131989862D01*
X96287832Y-131989862D02*
X96388847Y-132158221D01*
X96388847Y-132158221D02*
X96388847Y-132292908D01*
X96388847Y-132292908D02*
X96355175Y-132393923D01*
X96355175Y-132393923D02*
X96220488Y-132528610D01*
X97196969Y-131552129D02*
X96792908Y-131956190D01*
X96994938Y-131754160D02*
X96287832Y-131047053D01*
X96287832Y-131047053D02*
X96321503Y-131215412D01*
X96321503Y-131215412D02*
X96321503Y-131350099D01*
X96321503Y-131350099D02*
X96287832Y-131451114D01*
X77713805Y-112679405D02*
X77141385Y-112578390D01*
X77309744Y-113083466D02*
X76602637Y-112376359D01*
X76602637Y-112376359D02*
X76872011Y-112106985D01*
X76872011Y-112106985D02*
X76973027Y-112073314D01*
X76973027Y-112073314D02*
X77040370Y-112073314D01*
X77040370Y-112073314D02*
X77141385Y-112106985D01*
X77141385Y-112106985D02*
X77242401Y-112208001D01*
X77242401Y-112208001D02*
X77276072Y-112309016D01*
X77276072Y-112309016D02*
X77276072Y-112376359D01*
X77276072Y-112376359D02*
X77242401Y-112477375D01*
X77242401Y-112477375D02*
X76973027Y-112746749D01*
X78387240Y-112005970D02*
X77983179Y-112410031D01*
X78185210Y-112208001D02*
X77478103Y-111500894D01*
X77478103Y-111500894D02*
X77511775Y-111669253D01*
X77511775Y-111669253D02*
X77511775Y-111803940D01*
X77511775Y-111803940D02*
X77478103Y-111904955D01*
X78521927Y-110928474D02*
X78993332Y-111399879D01*
X78084194Y-110827459D02*
X78420912Y-111500894D01*
X78420912Y-111500894D02*
X78858645Y-111063161D01*
X109679819Y-122433333D02*
X110394104Y-122433333D01*
X110394104Y-122433333D02*
X110536961Y-122480952D01*
X110536961Y-122480952D02*
X110632200Y-122576190D01*
X110632200Y-122576190D02*
X110679819Y-122719047D01*
X110679819Y-122719047D02*
X110679819Y-122814285D01*
X109679819Y-122052380D02*
X109679819Y-121433333D01*
X109679819Y-121433333D02*
X110060771Y-121766666D01*
X110060771Y-121766666D02*
X110060771Y-121623809D01*
X110060771Y-121623809D02*
X110108390Y-121528571D01*
X110108390Y-121528571D02*
X110156009Y-121480952D01*
X110156009Y-121480952D02*
X110251247Y-121433333D01*
X110251247Y-121433333D02*
X110489342Y-121433333D01*
X110489342Y-121433333D02*
X110584580Y-121480952D01*
X110584580Y-121480952D02*
X110632200Y-121528571D01*
X110632200Y-121528571D02*
X110679819Y-121623809D01*
X110679819Y-121623809D02*
X110679819Y-121909523D01*
X110679819Y-121909523D02*
X110632200Y-122004761D01*
X110632200Y-122004761D02*
X110584580Y-122052380D01*
X91301140Y-114289721D02*
X91402155Y-113717302D01*
X90897079Y-113885660D02*
X91604186Y-113178554D01*
X91604186Y-113178554D02*
X91873560Y-113447928D01*
X91873560Y-113447928D02*
X91907232Y-113548943D01*
X91907232Y-113548943D02*
X91907232Y-113616286D01*
X91907232Y-113616286D02*
X91873560Y-113717302D01*
X91873560Y-113717302D02*
X91772545Y-113818317D01*
X91772545Y-113818317D02*
X91671529Y-113851989D01*
X91671529Y-113851989D02*
X91604186Y-113851989D01*
X91604186Y-113851989D02*
X91503171Y-113818317D01*
X91503171Y-113818317D02*
X91233797Y-113548943D01*
X91974575Y-114963156D02*
X91570514Y-114559095D01*
X91772545Y-114761126D02*
X92479651Y-114054019D01*
X92479651Y-114054019D02*
X92311293Y-114087691D01*
X92311293Y-114087691D02*
X92176606Y-114087691D01*
X92176606Y-114087691D02*
X92075590Y-114054019D01*
X93321445Y-114895813D02*
X92984728Y-114559095D01*
X92984728Y-114559095D02*
X92614339Y-114862141D01*
X92614339Y-114862141D02*
X92681682Y-114862141D01*
X92681682Y-114862141D02*
X92782697Y-114895813D01*
X92782697Y-114895813D02*
X92951056Y-115064172D01*
X92951056Y-115064172D02*
X92984728Y-115165187D01*
X92984728Y-115165187D02*
X92984728Y-115232531D01*
X92984728Y-115232531D02*
X92951056Y-115333546D01*
X92951056Y-115333546D02*
X92782697Y-115501905D01*
X92782697Y-115501905D02*
X92681682Y-115535576D01*
X92681682Y-115535576D02*
X92614339Y-115535576D01*
X92614339Y-115535576D02*
X92513323Y-115501905D01*
X92513323Y-115501905D02*
X92344965Y-115333546D01*
X92344965Y-115333546D02*
X92311293Y-115232531D01*
X92311293Y-115232531D02*
X92311293Y-115165187D01*
X103954819Y-122916666D02*
X103478628Y-123249999D01*
X103954819Y-123488094D02*
X102954819Y-123488094D01*
X102954819Y-123488094D02*
X102954819Y-123107142D01*
X102954819Y-123107142D02*
X103002438Y-123011904D01*
X103002438Y-123011904D02*
X103050057Y-122964285D01*
X103050057Y-122964285D02*
X103145295Y-122916666D01*
X103145295Y-122916666D02*
X103288152Y-122916666D01*
X103288152Y-122916666D02*
X103383390Y-122964285D01*
X103383390Y-122964285D02*
X103431009Y-123011904D01*
X103431009Y-123011904D02*
X103478628Y-123107142D01*
X103478628Y-123107142D02*
X103478628Y-123488094D01*
X103954819Y-122440475D02*
X103954819Y-122249999D01*
X103954819Y-122249999D02*
X103907200Y-122154761D01*
X103907200Y-122154761D02*
X103859580Y-122107142D01*
X103859580Y-122107142D02*
X103716723Y-122011904D01*
X103716723Y-122011904D02*
X103526247Y-121964285D01*
X103526247Y-121964285D02*
X103145295Y-121964285D01*
X103145295Y-121964285D02*
X103050057Y-122011904D01*
X103050057Y-122011904D02*
X103002438Y-122059523D01*
X103002438Y-122059523D02*
X102954819Y-122154761D01*
X102954819Y-122154761D02*
X102954819Y-122345237D01*
X102954819Y-122345237D02*
X103002438Y-122440475D01*
X103002438Y-122440475D02*
X103050057Y-122488094D01*
X103050057Y-122488094D02*
X103145295Y-122535713D01*
X103145295Y-122535713D02*
X103383390Y-122535713D01*
X103383390Y-122535713D02*
X103478628Y-122488094D01*
X103478628Y-122488094D02*
X103526247Y-122440475D01*
X103526247Y-122440475D02*
X103573866Y-122345237D01*
X103573866Y-122345237D02*
X103573866Y-122154761D01*
X103573866Y-122154761D02*
X103526247Y-122059523D01*
X103526247Y-122059523D02*
X103478628Y-122011904D01*
X103478628Y-122011904D02*
X103383390Y-121964285D01*
X95357142Y-119034819D02*
X95023809Y-118558628D01*
X94785714Y-119034819D02*
X94785714Y-118034819D01*
X94785714Y-118034819D02*
X95166666Y-118034819D01*
X95166666Y-118034819D02*
X95261904Y-118082438D01*
X95261904Y-118082438D02*
X95309523Y-118130057D01*
X95309523Y-118130057D02*
X95357142Y-118225295D01*
X95357142Y-118225295D02*
X95357142Y-118368152D01*
X95357142Y-118368152D02*
X95309523Y-118463390D01*
X95309523Y-118463390D02*
X95261904Y-118511009D01*
X95261904Y-118511009D02*
X95166666Y-118558628D01*
X95166666Y-118558628D02*
X94785714Y-118558628D01*
X96309523Y-119034819D02*
X95738095Y-119034819D01*
X96023809Y-119034819D02*
X96023809Y-118034819D01*
X96023809Y-118034819D02*
X95928571Y-118177676D01*
X95928571Y-118177676D02*
X95833333Y-118272914D01*
X95833333Y-118272914D02*
X95738095Y-118320533D01*
X96642857Y-118034819D02*
X97261904Y-118034819D01*
X97261904Y-118034819D02*
X96928571Y-118415771D01*
X96928571Y-118415771D02*
X97071428Y-118415771D01*
X97071428Y-118415771D02*
X97166666Y-118463390D01*
X97166666Y-118463390D02*
X97214285Y-118511009D01*
X97214285Y-118511009D02*
X97261904Y-118606247D01*
X97261904Y-118606247D02*
X97261904Y-118844342D01*
X97261904Y-118844342D02*
X97214285Y-118939580D01*
X97214285Y-118939580D02*
X97166666Y-118987200D01*
X97166666Y-118987200D02*
X97071428Y-119034819D01*
X97071428Y-119034819D02*
X96785714Y-119034819D01*
X96785714Y-119034819D02*
X96690476Y-118987200D01*
X96690476Y-118987200D02*
X96642857Y-118939580D01*
X100878796Y-133850201D02*
X101383872Y-134355277D01*
X101383872Y-134355277D02*
X101451216Y-134489964D01*
X101451216Y-134489964D02*
X101451216Y-134624651D01*
X101451216Y-134624651D02*
X101383872Y-134759338D01*
X101383872Y-134759338D02*
X101316529Y-134826682D01*
X102293010Y-133850201D02*
X101888949Y-134254262D01*
X102090979Y-134052231D02*
X101383872Y-133345124D01*
X101383872Y-133345124D02*
X101417544Y-133513483D01*
X101417544Y-133513483D02*
X101417544Y-133648170D01*
X101417544Y-133648170D02*
X101383872Y-133749185D01*
X78009580Y-107666666D02*
X78057200Y-107714285D01*
X78057200Y-107714285D02*
X78104819Y-107857142D01*
X78104819Y-107857142D02*
X78104819Y-107952380D01*
X78104819Y-107952380D02*
X78057200Y-108095237D01*
X78057200Y-108095237D02*
X77961961Y-108190475D01*
X77961961Y-108190475D02*
X77866723Y-108238094D01*
X77866723Y-108238094D02*
X77676247Y-108285713D01*
X77676247Y-108285713D02*
X77533390Y-108285713D01*
X77533390Y-108285713D02*
X77342914Y-108238094D01*
X77342914Y-108238094D02*
X77247676Y-108190475D01*
X77247676Y-108190475D02*
X77152438Y-108095237D01*
X77152438Y-108095237D02*
X77104819Y-107952380D01*
X77104819Y-107952380D02*
X77104819Y-107857142D01*
X77104819Y-107857142D02*
X77152438Y-107714285D01*
X77152438Y-107714285D02*
X77200057Y-107666666D01*
X77104819Y-106761904D02*
X77104819Y-107238094D01*
X77104819Y-107238094D02*
X77581009Y-107285713D01*
X77581009Y-107285713D02*
X77533390Y-107238094D01*
X77533390Y-107238094D02*
X77485771Y-107142856D01*
X77485771Y-107142856D02*
X77485771Y-106904761D01*
X77485771Y-106904761D02*
X77533390Y-106809523D01*
X77533390Y-106809523D02*
X77581009Y-106761904D01*
X77581009Y-106761904D02*
X77676247Y-106714285D01*
X77676247Y-106714285D02*
X77914342Y-106714285D01*
X77914342Y-106714285D02*
X78009580Y-106761904D01*
X78009580Y-106761904D02*
X78057200Y-106809523D01*
X78057200Y-106809523D02*
X78104819Y-106904761D01*
X78104819Y-106904761D02*
X78104819Y-107142856D01*
X78104819Y-107142856D02*
X78057200Y-107238094D01*
X78057200Y-107238094D02*
X78009580Y-107285713D01*
X77627057Y-112770268D02*
X77728072Y-112197848D01*
X77222996Y-112366207D02*
X77930102Y-111659100D01*
X77930102Y-111659100D02*
X78199476Y-111928474D01*
X78199476Y-111928474D02*
X78233148Y-112029489D01*
X78233148Y-112029489D02*
X78233148Y-112096833D01*
X78233148Y-112096833D02*
X78199476Y-112197848D01*
X78199476Y-112197848D02*
X78098461Y-112298863D01*
X78098461Y-112298863D02*
X77997446Y-112332535D01*
X77997446Y-112332535D02*
X77930102Y-112332535D01*
X77930102Y-112332535D02*
X77829087Y-112298863D01*
X77829087Y-112298863D02*
X77559713Y-112029489D01*
X78300492Y-113443703D02*
X77896431Y-113039642D01*
X78098461Y-113241672D02*
X78805568Y-112534566D01*
X78805568Y-112534566D02*
X78637209Y-112568237D01*
X78637209Y-112568237D02*
X78502522Y-112568237D01*
X78502522Y-112568237D02*
X78401507Y-112534566D01*
X79209629Y-113073314D02*
X79276972Y-113073314D01*
X79276972Y-113073314D02*
X79377988Y-113106985D01*
X79377988Y-113106985D02*
X79546346Y-113275344D01*
X79546346Y-113275344D02*
X79580018Y-113376359D01*
X79580018Y-113376359D02*
X79580018Y-113443703D01*
X79580018Y-113443703D02*
X79546346Y-113544718D01*
X79546346Y-113544718D02*
X79479003Y-113612062D01*
X79479003Y-113612062D02*
X79344316Y-113679405D01*
X79344316Y-113679405D02*
X78536194Y-113679405D01*
X78536194Y-113679405D02*
X78973927Y-114117138D01*
D12*
G04 #@! TO.C,C2*
X100740000Y-117412780D02*
X100740000Y-117087220D01*
X101760000Y-117412780D02*
X101760000Y-117087220D01*
D13*
G04 #@! TO.C,L1*
X89350000Y-111050000D02*
X82150000Y-111050000D01*
X82150000Y-104450000D01*
X89350000Y-104450000D01*
X89350000Y-111050000D01*
D12*
G04 #@! TO.C,R6*
X91254478Y-140475727D02*
X91024273Y-140245522D01*
X91975727Y-139754478D02*
X91745522Y-139524273D01*
G04 #@! TO.C,R5*
X92754478Y-138975727D02*
X92524273Y-138745522D01*
X93475727Y-138254478D02*
X93245522Y-138024273D01*
G04 #@! TO.C,R2*
X78024273Y-111504478D02*
X78254478Y-111274273D01*
X78745522Y-112225727D02*
X78975727Y-111995522D01*
G04 #@! TO.C,R3*
X94254478Y-137475727D02*
X94024273Y-137245522D01*
X94975727Y-136754478D02*
X94745522Y-136524273D01*
G04 #@! TO.C,R8*
X101024273Y-131504478D02*
X101254478Y-131274273D01*
X101745522Y-132225727D02*
X101975727Y-131995522D01*
G04 #@! TO.C,D1*
X90100000Y-111010000D02*
X90100000Y-105500000D01*
X90100000Y-111010000D02*
X93400000Y-111010000D01*
X93400000Y-111010000D02*
X93400000Y-105500000D01*
G04 #@! TO.C,R4*
X73524273Y-123745522D02*
X73754478Y-123975727D01*
X74245522Y-123024273D02*
X74475727Y-123254478D01*
G04 #@! TO.C,R10*
X84837220Y-111990000D02*
X85162780Y-111990000D01*
X84837220Y-113010000D02*
X85162780Y-113010000D01*
D14*
G04 #@! TO.C,U2*
X70962814Y-130943277D02*
X76261165Y-125644926D01*
X82277936Y-142258400D02*
X70962814Y-130943277D01*
X82277936Y-142258400D02*
X87486485Y-137049851D01*
X86360771Y-138164251D02*
X75047063Y-126850543D01*
X87935498Y-113970593D02*
X87396682Y-114509408D01*
X98711805Y-125824531D02*
X99250621Y-125285715D01*
X99250621Y-125285715D02*
X87935498Y-113970593D01*
D12*
G04 #@! TO.C,U3*
X98646913Y-128396913D02*
X98187294Y-128856533D01*
X98646913Y-128396913D02*
X99106533Y-127937294D01*
X100853087Y-130603087D02*
X100393467Y-131062706D01*
X100853087Y-130603087D02*
X101312706Y-130143467D01*
X102042794Y-129809359D02*
X101703382Y-130148770D01*
X101639743Y-129745720D01*
X102042794Y-129809359D01*
G36*
X102042794Y-129809359D02*
G01*
X101703382Y-130148770D01*
X101639743Y-129745720D01*
X102042794Y-129809359D01*
G37*
G04 #@! TO.C,C7*
X96254478Y-130774273D02*
X96024273Y-131004478D01*
X96975727Y-131495522D02*
X96745522Y-131725727D01*
G04 #@! TO.C,C6*
X101274273Y-127745522D02*
X101504478Y-127975727D01*
X101995522Y-127024273D02*
X102225727Y-127254478D01*
G04 #@! TO.C,C4*
X100590000Y-113461252D02*
X100590000Y-112038748D01*
X102410000Y-113461252D02*
X102410000Y-112038748D01*
G04 #@! TO.C,R11*
X95846359Y-118370000D02*
X96153641Y-118370000D01*
X95846359Y-119130000D02*
X96153641Y-119130000D01*
G04 #@! TO.C,U4*
X98350000Y-122360000D02*
X100150000Y-122360000D01*
X100150000Y-119140000D02*
X97700000Y-119140000D01*
G04 #@! TO.C,R1*
X81774273Y-114495522D02*
X82004478Y-114725727D01*
X82495522Y-113774273D02*
X82725727Y-114004478D01*
G04 #@! TO.C,C3*
X91390000Y-112857836D02*
X91390000Y-112642164D01*
X92110000Y-112857836D02*
X92110000Y-112642164D01*
G04 #@! TO.C,R7*
X95524273Y-135745522D02*
X95754478Y-135975727D01*
X96245522Y-135024273D02*
X96475727Y-135254478D01*
D10*
G04 #@! TO.C,U1*
X94275000Y-112475000D02*
X98425000Y-112475000D01*
X94275000Y-117625000D02*
X98425000Y-117625000D01*
D12*
X93850000Y-112550000D02*
X93610000Y-112220000D01*
X94090000Y-112220000D01*
X93850000Y-112550000D01*
G36*
X93850000Y-112550000D02*
G01*
X93610000Y-112220000D01*
X94090000Y-112220000D01*
X93850000Y-112550000D01*
G37*
G04 #@! TO.C,Q1*
X96896913Y-132396913D02*
X96437294Y-132856533D01*
X96896913Y-132396913D02*
X97356533Y-131937294D01*
X99103087Y-134603087D02*
X98643467Y-135062706D01*
X99103087Y-134603087D02*
X99562706Y-134143467D01*
X96110257Y-133254280D02*
X95707206Y-133190641D01*
X96046618Y-132851230D01*
X96110257Y-133254280D01*
G36*
X96110257Y-133254280D02*
G01*
X95707206Y-133190641D01*
X96046618Y-132851230D01*
X96110257Y-133254280D01*
G37*
G04 #@! TO.C,R14*
X79504478Y-112524273D02*
X79274273Y-112754478D01*
X80225727Y-113245522D02*
X79995522Y-113475727D01*
G04 #@! TO.C,R15*
X90872659Y-115410060D02*
X91089940Y-115627341D01*
X91410060Y-114872659D02*
X91627341Y-115089940D01*
G04 #@! TO.C,R9*
X101490000Y-122912780D02*
X101490000Y-122587220D01*
X102510000Y-122912780D02*
X102510000Y-122587220D01*
G04 #@! TO.C,R13*
X95846359Y-119370000D02*
X96153641Y-119370000D01*
X95846359Y-120130000D02*
X96153641Y-120130000D01*
G04 #@! TO.C,J1*
X98817948Y-138601148D02*
X100698852Y-140482052D01*
X104248528Y-133170568D02*
X98817948Y-138601148D01*
X104248528Y-133170568D02*
X106129432Y-135051472D01*
X105146554Y-132272542D02*
X106087006Y-131332090D01*
X106087006Y-131332090D02*
X107027458Y-132272542D01*
X106129432Y-135051472D02*
X100698852Y-140482052D01*
G04 #@! TO.C,C5*
X78490000Y-105750000D02*
X78490000Y-109960000D01*
X78490000Y-109960000D02*
X81510000Y-109960000D01*
X81510000Y-109960000D02*
X81510000Y-105750000D01*
G04 #@! TO.C,R12*
X80524273Y-115745522D02*
X80754478Y-115975727D01*
X81245522Y-115024273D02*
X81475727Y-115254478D01*
G04 #@! TD*
M02*
