M48
; DRILL file {KiCad 8.0.7-unknown-1000.20241230gita20d76c.fc41} date 2025-01-11T13:28:00-0800
; FORMAT={-:-/ absolute / metric / decimal}
; #@! TF.CreationDate,2025-01-11T13:28:00-08:00
; #@! TF.GenerationSoftware,Kicad,Pcbnew,8.0.7-unknown-1000.20241230gita20d76c.fc41
; #@! TF.FileFunction,MixedPlating,1,2
FMAT,2
METRIC
; #@! TA.AperFunction,Plated,PTH,ComponentDrill
T1C0.300
; #@! TA.AperFunction,Plated,PTH,ViaDrill
T2C0.400
; #@! TA.AperFunction,Plated,PTH,ComponentDrill
T3C1.000
%
G90
G05
T1
X95.75Y-113.25
X95.75Y-114.45
X95.75Y-115.75
X95.75Y-116.85
X96.95Y-113.25
X96.95Y-114.45
X96.95Y-115.75
X96.95Y-116.85
T2
X71.5Y-114.5
X72.5Y-113.5
X73.5Y-112.5
X74.5Y-111.5
X76.914Y-117.914
X78.75Y-119.75
X79.25Y-107.25
X80.25Y-113.75
X80.75Y-107.25
X83.5Y-126.0
X85.25Y-113.75
X85.5Y-105.25
X88.5Y-114.75
X88.5Y-116.75
X89.285Y-130.475
X91.0Y-130.5
X93.25Y-142.5
X94.75Y-122.25
X94.75Y-140.5
X96.31Y-120.75
X97.75Y-118.5
X98.0Y-131.75
X98.75Y-129.25
X99.0Y-123.208
X100.0Y-126.25
X100.0Y-133.25
X100.25Y-115.5
X100.5Y-128.75
X101.479Y-134.666
X106.5Y-114.48
T3
X100.699Y-138.601
X102.495Y-136.805
X104.291Y-135.009
X106.087Y-133.213
M30
