G04 #@! TF.GenerationSoftware,KiCad,Pcbnew,5.1.7-a382d34a8~88~ubuntu20.04.1*
G04 #@! TF.CreationDate,2021-05-29T17:17:54-07:00*
G04 #@! TF.ProjectId,keypad-frame,6b657970-6164-42d6-9672-616d652e6b69,May2021*
G04 #@! TF.SameCoordinates,Original*
G04 #@! TF.FileFunction,Legend,Bot*
G04 #@! TF.FilePolarity,Positive*
%FSLAX46Y46*%
G04 Gerber Fmt 4.6, Leading zero omitted, Abs format (unit mm)*
G04 Created by KiCad (PCBNEW 5.1.7-a382d34a8~88~ubuntu20.04.1) date 2021-05-29 17:17:54*
%MOMM*%
%LPD*%
G01*
G04 APERTURE LIST*
%ADD10C,0.500000*%
G04 APERTURE END LIST*
D10*
X205258571Y-113117142D02*
X205258571Y-110117142D01*
X204972857Y-111974285D02*
X204115714Y-113117142D01*
X204115714Y-111117142D02*
X205258571Y-112260000D01*
X201687142Y-112974285D02*
X201972857Y-113117142D01*
X202544285Y-113117142D01*
X202830000Y-112974285D01*
X202972857Y-112688571D01*
X202972857Y-111545714D01*
X202830000Y-111260000D01*
X202544285Y-111117142D01*
X201972857Y-111117142D01*
X201687142Y-111260000D01*
X201544285Y-111545714D01*
X201544285Y-111831428D01*
X202972857Y-112117142D01*
X200544285Y-111117142D02*
X199830000Y-113117142D01*
X199115714Y-111117142D02*
X199830000Y-113117142D01*
X200115714Y-113831428D01*
X200258571Y-113974285D01*
X200544285Y-114117142D01*
X197972857Y-111117142D02*
X197972857Y-114117142D01*
X197972857Y-111260000D02*
X197687142Y-111117142D01*
X197115714Y-111117142D01*
X196830000Y-111260000D01*
X196687142Y-111402857D01*
X196544285Y-111688571D01*
X196544285Y-112545714D01*
X196687142Y-112831428D01*
X196830000Y-112974285D01*
X197115714Y-113117142D01*
X197687142Y-113117142D01*
X197972857Y-112974285D01*
X193972857Y-113117142D02*
X193972857Y-111545714D01*
X194115714Y-111260000D01*
X194401428Y-111117142D01*
X194972857Y-111117142D01*
X195258571Y-111260000D01*
X193972857Y-112974285D02*
X194258571Y-113117142D01*
X194972857Y-113117142D01*
X195258571Y-112974285D01*
X195401428Y-112688571D01*
X195401428Y-112402857D01*
X195258571Y-112117142D01*
X194972857Y-111974285D01*
X194258571Y-111974285D01*
X193972857Y-111831428D01*
X191258571Y-113117142D02*
X191258571Y-110117142D01*
X191258571Y-112974285D02*
X191544285Y-113117142D01*
X192115714Y-113117142D01*
X192401428Y-112974285D01*
X192544285Y-112831428D01*
X192687142Y-112545714D01*
X192687142Y-111688571D01*
X192544285Y-111402857D01*
X192401428Y-111260000D01*
X192115714Y-111117142D01*
X191544285Y-111117142D01*
X191258571Y-111260000D01*
X189830000Y-111974285D02*
X187544285Y-111974285D01*
X186544285Y-111117142D02*
X185401428Y-111117142D01*
X186115714Y-113117142D02*
X186115714Y-110545714D01*
X185972857Y-110260000D01*
X185687142Y-110117142D01*
X185401428Y-110117142D01*
X184401428Y-113117142D02*
X184401428Y-111117142D01*
X184401428Y-111688571D02*
X184258571Y-111402857D01*
X184115714Y-111260000D01*
X183830000Y-111117142D01*
X183544285Y-111117142D01*
X181258571Y-113117142D02*
X181258571Y-111545714D01*
X181401428Y-111260000D01*
X181687142Y-111117142D01*
X182258571Y-111117142D01*
X182544285Y-111260000D01*
X181258571Y-112974285D02*
X181544285Y-113117142D01*
X182258571Y-113117142D01*
X182544285Y-112974285D01*
X182687142Y-112688571D01*
X182687142Y-112402857D01*
X182544285Y-112117142D01*
X182258571Y-111974285D01*
X181544285Y-111974285D01*
X181258571Y-111831428D01*
X179830000Y-113117142D02*
X179830000Y-111117142D01*
X179830000Y-111402857D02*
X179687142Y-111260000D01*
X179401428Y-111117142D01*
X178972857Y-111117142D01*
X178687142Y-111260000D01*
X178544285Y-111545714D01*
X178544285Y-113117142D01*
X178544285Y-111545714D02*
X178401428Y-111260000D01*
X178115714Y-111117142D01*
X177687142Y-111117142D01*
X177401428Y-111260000D01*
X177258571Y-111545714D01*
X177258571Y-113117142D01*
X174687142Y-112974285D02*
X174972857Y-113117142D01*
X175544285Y-113117142D01*
X175830000Y-112974285D01*
X175972857Y-112688571D01*
X175972857Y-111545714D01*
X175830000Y-111260000D01*
X175544285Y-111117142D01*
X174972857Y-111117142D01*
X174687142Y-111260000D01*
X174544285Y-111545714D01*
X174544285Y-111831428D01*
X175972857Y-112117142D01*
X169115714Y-111688571D02*
X169258571Y-111545714D01*
X169544285Y-111402857D01*
X169830000Y-111402857D01*
X170115714Y-111545714D01*
X170258571Y-111688571D01*
X170401428Y-111974285D01*
X170401428Y-112260000D01*
X170258571Y-112545714D01*
X170115714Y-112688571D01*
X169830000Y-112831428D01*
X169544285Y-112831428D01*
X169258571Y-112688571D01*
X169115714Y-112545714D01*
X169115714Y-111402857D02*
X169115714Y-112545714D01*
X168972857Y-112688571D01*
X168830000Y-112688571D01*
X168544285Y-112545714D01*
X168401428Y-112260000D01*
X168401428Y-111545714D01*
X168687142Y-111117142D01*
X169115714Y-110831428D01*
X169687142Y-110688571D01*
X170258571Y-110831428D01*
X170687142Y-111117142D01*
X170972857Y-111545714D01*
X171115714Y-112117142D01*
X170972857Y-112688571D01*
X170687142Y-113117142D01*
X170258571Y-113402857D01*
X169687142Y-113545714D01*
X169115714Y-113402857D01*
X168687142Y-113117142D01*
X167544285Y-110117142D02*
X165830000Y-110117142D01*
X166687142Y-113117142D02*
X166687142Y-110117142D01*
X164401428Y-113117142D02*
X164687142Y-112974285D01*
X164830000Y-112831428D01*
X164972857Y-112545714D01*
X164972857Y-111688571D01*
X164830000Y-111402857D01*
X164687142Y-111260000D01*
X164401428Y-111117142D01*
X163972857Y-111117142D01*
X163687142Y-111260000D01*
X163544285Y-111402857D01*
X163401428Y-111688571D01*
X163401428Y-112545714D01*
X163544285Y-112831428D01*
X163687142Y-112974285D01*
X163972857Y-113117142D01*
X164401428Y-113117142D01*
X162115714Y-113117142D02*
X162115714Y-111117142D01*
X162115714Y-111402857D02*
X161972857Y-111260000D01*
X161687142Y-111117142D01*
X161258571Y-111117142D01*
X160972857Y-111260000D01*
X160830000Y-111545714D01*
X160830000Y-113117142D01*
X160830000Y-111545714D02*
X160687142Y-111260000D01*
X160401428Y-111117142D01*
X159972857Y-111117142D01*
X159687142Y-111260000D01*
X159544285Y-111545714D01*
X159544285Y-113117142D01*
X158115714Y-113117142D02*
X158115714Y-110117142D01*
X156401428Y-113117142D02*
X157687142Y-111402857D01*
X156401428Y-110117142D02*
X158115714Y-111831428D01*
X153972857Y-112974285D02*
X154258571Y-113117142D01*
X154830000Y-113117142D01*
X155115714Y-112974285D01*
X155258571Y-112688571D01*
X155258571Y-111545714D01*
X155115714Y-111260000D01*
X154830000Y-111117142D01*
X154258571Y-111117142D01*
X153972857Y-111260000D01*
X153830000Y-111545714D01*
X153830000Y-111831428D01*
X155258571Y-112117142D01*
X151258571Y-113117142D02*
X151258571Y-110117142D01*
X151258571Y-112974285D02*
X151544285Y-113117142D01*
X152115714Y-113117142D01*
X152401428Y-112974285D01*
X152544285Y-112831428D01*
X152687142Y-112545714D01*
X152687142Y-111688571D01*
X152544285Y-111402857D01*
X152401428Y-111260000D01*
X152115714Y-111117142D01*
X151544285Y-111117142D01*
X151258571Y-111260000D01*
X148544285Y-113117142D02*
X148544285Y-110117142D01*
X148544285Y-112974285D02*
X148830000Y-113117142D01*
X149401428Y-113117142D01*
X149687142Y-112974285D01*
X149830000Y-112831428D01*
X149972857Y-112545714D01*
X149972857Y-111688571D01*
X149830000Y-111402857D01*
X149687142Y-111260000D01*
X149401428Y-111117142D01*
X148830000Y-111117142D01*
X148544285Y-111260000D01*
X147115714Y-113117142D02*
X147115714Y-111117142D01*
X147115714Y-110117142D02*
X147258571Y-110260000D01*
X147115714Y-110402857D01*
X146972857Y-110260000D01*
X147115714Y-110117142D01*
X147115714Y-110402857D01*
X144544285Y-112974285D02*
X144830000Y-113117142D01*
X145401428Y-113117142D01*
X145687142Y-112974285D01*
X145830000Y-112688571D01*
X145830000Y-111545714D01*
X145687142Y-111260000D01*
X145401428Y-111117142D01*
X144830000Y-111117142D01*
X144544285Y-111260000D01*
X144401428Y-111545714D01*
X144401428Y-111831428D01*
X145830000Y-112117142D01*
X140830000Y-113117142D02*
X140830000Y-110117142D01*
X139830000Y-112260000D01*
X138830000Y-110117142D01*
X138830000Y-113117142D01*
X136115714Y-113117142D02*
X136115714Y-111545714D01*
X136258571Y-111260000D01*
X136544285Y-111117142D01*
X137115714Y-111117142D01*
X137401428Y-111260000D01*
X136115714Y-112974285D02*
X136401428Y-113117142D01*
X137115714Y-113117142D01*
X137401428Y-112974285D01*
X137544285Y-112688571D01*
X137544285Y-112402857D01*
X137401428Y-112117142D01*
X137115714Y-111974285D01*
X136401428Y-111974285D01*
X136115714Y-111831428D01*
X134972857Y-111117142D02*
X134258571Y-113117142D01*
X133544285Y-111117142D02*
X134258571Y-113117142D01*
X134544285Y-113831428D01*
X134687142Y-113974285D01*
X134972857Y-114117142D01*
X132544285Y-110402857D02*
X132401428Y-110260000D01*
X132115714Y-110117142D01*
X131401428Y-110117142D01*
X131115714Y-110260000D01*
X130972857Y-110402857D01*
X130830000Y-110688571D01*
X130830000Y-110974285D01*
X130972857Y-111402857D01*
X132687142Y-113117142D01*
X130830000Y-113117142D01*
X128972857Y-110117142D02*
X128687142Y-110117142D01*
X128401428Y-110260000D01*
X128258571Y-110402857D01*
X128115714Y-110688571D01*
X127972857Y-111260000D01*
X127972857Y-111974285D01*
X128115714Y-112545714D01*
X128258571Y-112831428D01*
X128401428Y-112974285D01*
X128687142Y-113117142D01*
X128972857Y-113117142D01*
X129258571Y-112974285D01*
X129401428Y-112831428D01*
X129544285Y-112545714D01*
X129687142Y-111974285D01*
X129687142Y-111260000D01*
X129544285Y-110688571D01*
X129401428Y-110402857D01*
X129258571Y-110260000D01*
X128972857Y-110117142D01*
X126830000Y-110402857D02*
X126687142Y-110260000D01*
X126401428Y-110117142D01*
X125687142Y-110117142D01*
X125401428Y-110260000D01*
X125258571Y-110402857D01*
X125115714Y-110688571D01*
X125115714Y-110974285D01*
X125258571Y-111402857D01*
X126972857Y-113117142D01*
X125115714Y-113117142D01*
X122258571Y-113117142D02*
X123972857Y-113117142D01*
X123115714Y-113117142D02*
X123115714Y-110117142D01*
X123401428Y-110545714D01*
X123687142Y-110831428D01*
X123972857Y-110974285D01*
M02*
